<svg version="1.1" baseProfile="tiny" id="レイヤー_1" xmlns="http://www.w3.org/2000/svg" x="0" y="0" width="63.277" height="248.053" viewBox="0 0 63.277 248.053" xml:space="preserve"><metadata><?xpacket begin="﻿" id="W5M0MpCehiHzreSzNTczkc9d"?><x:xmpmeta xmlns:x="adobe:ns:meta/" x:xmptk="Adobe XMP Core 5.3-c011 66.145661, 2012/02/06-14:56:27"><rdf:RDF xmlns:rdf="http://www.w3.org/1999/02/22-rdf-syntax-ns#"><rdf:Description xmlns:dc="http://purl.org/dc/elements/1.1/"><dc:format>image/svg+xml</dc:format><dc:title><rdf:Alt><rdf:li xml:lang="x-default">Web</rdf:li></rdf:Alt></dc:title></rdf:Description><rdf:Description xmlns:xmp="http://ns.adobe.com/xap/1.0/" xmlns:xmpGImg="http://ns.adobe.com/xap/1.0/g/img/"><xmp:CreatorTool>Adobe Illustrator CS6 (Windows)</xmp:CreatorTool><xmp:CreateDate>2017-07-12T09:52:19+09:00</xmp:CreateDate><xmp:ModifyDate>2017-07-12T09:52:19+09:00</xmp:ModifyDate><xmp:MetadataDate>2017-07-12T09:52:19+09:00</xmp:MetadataDate><xmp:Thumbnails><rdf:Alt><rdf:li rdf:parseType="Resource"><xmpGImg:width>68</xmpGImg:width><xmpGImg:height>256</xmpGImg:height><xmpGImg:format>JPEG</xmpGImg:format><xmpGImg:image>/9j/4AAQSkZJRgABAgEASABIAAD/7QAsUGhvdG9zaG9wIDMuMAA4QklNA+0AAAAAABAASAAAAAEA AQBIAAAAAQAB/+4ADkFkb2JlAGTAAAAAAf/bAIQABgQEBAUEBgUFBgkGBQYJCwgGBggLDAoKCwoK DBAMDAwMDAwQDA4PEA8ODBMTFBQTExwbGxscHx8fHx8fHx8fHwEHBwcNDA0YEBAYGhURFRofHx8f Hx8fHx8fHx8fHx8fHx8fHx8fHx8fHx8fHx8fHx8fHx8fHx8fHx8fHx8fHx8f/8AAEQgBAABEAwER AAIRAQMRAf/EAaIAAAAHAQEBAQEAAAAAAAAAAAQFAwIGAQAHCAkKCwEAAgIDAQEBAQEAAAAAAAAA AQACAwQFBgcICQoLEAACAQMDAgQCBgcDBAIGAnMBAgMRBAAFIRIxQVEGE2EicYEUMpGhBxWxQiPB UtHhMxZi8CRygvElQzRTkqKyY3PCNUQnk6OzNhdUZHTD0uIIJoMJChgZhJRFRqS0VtNVKBry4/PE 1OT0ZXWFlaW1xdXl9WZ2hpamtsbW5vY3R1dnd4eXp7fH1+f3OEhYaHiImKi4yNjo+Ck5SVlpeYmZ qbnJ2en5KjpKWmp6ipqqusra6voRAAICAQIDBQUEBQYECAMDbQEAAhEDBCESMUEFURNhIgZxgZEy obHwFMHR4SNCFVJicvEzJDRDghaSUyWiY7LCB3PSNeJEgxdUkwgJChgZJjZFGidkdFU38qOzwygp 0+PzhJSktMTU5PRldYWVpbXF1eX1RlZmdoaWprbG1ub2R1dnd4eXp7fH1+f3OEhYaHiImKi4yNjo +DlJWWl5iZmpucnZ6fkqOkpaanqKmqq6ytrq+v/aAAwDAQACEQMRAD8A9Na22rJYNLpclvHcxH1G F2rtE6KDyUmMhk/1qNT+U4JX0TGr3YFpXmb85tb1FY08t6fp2iCT07i9ubi5jeaLo7WymOG4Q0+y 0kIykSmTy2bjHGBz3TXyb5G1nSPMWo6tqGpNOZWkt4wlALu3PpNbz3aAKn1mGjxF0UclpX3lCBBs sZ5ARQDN8tanYq7FWP3Xn7yha6yNHuNSSO+9RYGqknorO45JC9wF9BJWG4jZwx8MgckbpmMcqtjO mH8zP+VluLo3J8vme59cOLYWAsRD/of1cr/pH1j1j+95dvamQHFxeTYeDg83o2XNCV3evwWvmPTt FlARtSt7qaCVmpyktWh/dKO7FJmb5L86RMt6ZCO1pmzKqlmICgVJOwAGSYt4q7FXYqlHmjR9T1XS JbbS9Vm0bUKN9XvoQr8WKlaPG4Ksu/sR1BByMgSNjTKEgDuLQei+QvL+neUF8rzQLf2MiEX7XC8m uppPilnlJqS7v8Va1G1OgwRxgRpMshMrYZeXnnT8sZkPpzeZvIJcDmS0mo6ZGSPtEBmngQVpUVA2 JHeomUPOP3NoEcnlL73qnqJ6fq1+CnKvtSuZDjpZ5k8raD5ksBY61aLdQI4liNWSSORekkciFXRh XqpGRlES5sozMTYYfefkP5IvgEv59VvbcE0trjUbmSMDsAGau3zys4InnbaNRIcqZ7punWem6fba fZIYrS0iSC3jLM5WONQqjk5ZjQDqTloFCmkmzaIwodirsVdirsVdiqTeZPOXlby1B62uanBZAisc TtWV/aOJayOf9VTkZTEebKMDLkFHS/PXly/0+zvZLg6YNQl9C0t9TU2U0ku1ESOfgXLBgV41rXbA MgIScZBVtP8ANmk3/mTVfLtv6p1HRlge+rGwiUXKCSKkn2SWU9PY+GETBJHcgwIAPenOSYuxV2Ku xV2KuxV4T+dt4uiXei27Wulw3GpaxDetc29uyzpDbXKN61y6mrcmkQN4mtDmJnNVy5uXgF3z5Jzr 8utXOq+R72/1Wx1e0u/MKzaZc6fEURYWt5/g5+pKJAuwDD6clK7Fm92MaqVCtk/8of8Ak3PzC/4w 6J/1Dz5OH1y+DCf0R+LPsuaXYq7FWM6/L5pTzDYWlmjTaDq0c1reTwgJcafOsTyR3Kv0KPx4kMNm 4068TCV35FsjVeYYdrGr+fn1PyV5ZS+SLziZpLvXprb4rX9FwO0bSTQ/ZrcALx8HqFK5UTKwP4v0 NgEaJ/h6e96vmQ47yL8y/L88MEGv6kVfVL/XtJt4VU8lt7KG7rDChIG7FjJIf5jTooOY2WPU94cn FLoO4p7qv5d6Tps+jXOm3EOm6dYa6+t3cdzIVj5TRNG8cFfhQFmqF2HXJnGBVd9sBkJu+6lPyPd2 t3+a35gzWs0dxCYtFAkiYOpIt567qSMYH1y+Ccg9Efi9Ey5odirsVQGuX2o2diX06wbUb6RhHBbh 1jTk1fjlkb7Ea0qxAJ8ATtgkSOTKIB5pR5N8nNorXuqalcDUPMursJNV1ELxX4RSOCFTXhDEPhUd T1PtGEK3PMspzvYcgybJtaA1nQdK1qCG31OD6xDb3EV3CnJ0pNA3ONvgK14sOh2PfBKIPNMZEckZ NDDPE0U0ayxOKPG4DKR7g7YUJX5f8o+WvLpvDomnQ2Bv5fWu/RFOb1J3qTQDkaKNh2GRjADkylMy 5pvkmLsVdirsVdirsVYjrPmzXrXz7ZeW9Os7W6jvNOlveVxNJblGhlVD8aR3FQQ424fTlcpnioNk YDhsoXTvPPmi/wDNmseWo9Eslu9Gitpp5m1GX03F0pZQlLLltTeowCZJIrl+O5JxgRBvn5ftRXkb zZr2u6p5ltNTs7W1j0W+FlAbaWSUsRErvzLpHX7WzADrTjtUmEySb6IyQAArqy7LGt2KuxVi175w vLH8wNN8rz2IltNYtp7i0von+KJrVQZFnjYU4mo4srdSBx75WZ1Ku9sELiT3Mpyxrdirynza1hL+ dulw6hFcTWsHl+eUpaR3UsoaS7CAlbQNJx+HqRTMef8AeC+5yIX4ZrvSXy4vlf8A5Wz5vElrqRtP qunegiW+qGUH025eoqJ6yg9uYp4ZGNcZ/azlfAOXXuZR+TwtRqHnf6osiW36cb0knWVJAPq0P2ln AlB/1t8nh5n3teblH3PSMvaHYq7FXnPnr9Kzfmb5Qg0e4htdSSx1aRJbqFp4SCLb4GRJIW34ncNt lOS+MV5t+OuA35J95M1zzle3Oo6d5p0VNOutPMfo39q5ks7tJeXxQ8wHUrw+JTUiorTJQlI7EMJx iNwWUZY1sO8oaVcXnmXWvOV7E0J1JYrLSIZAVkTT7apWRlNCpuJWaTiRULxrvXK4CyZNszQEUJp2 ieYNL/Mfzb5jOnSXen6jb6fFZLBJAJZWgiZZaLLJGF4mg+MrXtkREiRKTIGICj+UX6RuZfNer3em XmlQatq73NnBfxiGYx+jGlSlW7r16eBOOG9zXMrmrYXyD0LLml2KuxVh2saBrM/5peXtbjjV9Isr C9t55ARySaYoVqD1DBdqZUYnjB6NokOAjqzHLWp2KuxV2KuxV2KuxV2KuxV2KuxVjqebCnn2Xync QgPLp66nYXKVIMYk9GWOQdmV6MG6EGnUbw4/VTPg9PEnt3cx2ttJcSh2jiUs4iR5XoOvGOMM7H2U E5MliApaXqunarYQ6hptwl1ZTjlFPGaqQDQ/IgihB3BwAg7hSCDRRWFDsVdiqUWPmvQ73XNQ0GGf /cxpirJdWTqyyem4BSRKijoeQ3UmnQ0OREwTXVkYEC+iI0bXdL1m3kmsJvU9GRobmFgUlhmT7UU0 bUZHHgR79MMZArKJHNH4WLzbztr+k+TvzCtPNGtMYtPudDu7GOcCv+kW8yXSwg9mmTlxqdytMonI RlZ7m+ETKNDvZhod1rEfli3vdVie41OWM3M9pAq8kaZjILeOpQH0gwjBJ3pU5bEmt2qQF7MS/K62 1+LzR51mu9KutI0S+vLe80u1vBGGM0sTC8Yek8ifE6q2zd/GuV4gbO1BtykUN7L0bLmh2KpN5n8x jRbRBb2smo6tdkppulwU9SeQUrUn4Y40qDJI3wqPegMZSr3soRv3JR+X/kWTQjfa1rEqXvmzXJPX 1e+UHivThbQV3EMQAA8ab9gI44VueZZ5Ml7DkEv84aFrWl+dNE82+WopJHvLqDTfM9lFThPZyHil y69OduT9rrTavGuRnEiQI+KYSBiYn4PQMuaUt8xeWtC8yaXJpWt2cd9YSkM0MlRRl6MrKVZWHipB yMoiQosoyMTYTFVCqFHQCgyTFvFXYq7FXYq7FXYq7FVO6uYbW3kuZ24QwqXkahNFAqTQAnElQFHT NV03VbKO+0y6ivbOYViuIHWSNuxoykjbACDySQRsUVhQ7FXYq7FUt1bzJoWjzWkOq30Vk985itDO 3BZJB+wHPw8jXYE75EyA5shEnkmWSYuxVg/nvzf5x8s2Wq30WjQX+mQQiSzvUuRC6OwCCOWF1cs3 qEceFeVaUByrJOUb2bccIyrdjPkyx8xfltodovmbUEXR7GzcLomkWT3C86+pLd3V4yVQ1Zq1KJ7m m9cAYDfk2TImdufm9H8q+Z7PzLpCapZ211awSMVWO9ge3kNKbhW+0u+zKSMvhLiFtE48JpN8kxdi qE1cTHS7v0Lo2Uwicx3YVX9JgKh+Lq6kDuKYDySObyrTtP8APf5n+UvL2q3+oaVp9itxbapEsNpP cSvPakjjIHnjjClw3JRX55jgSyAE05BMcciBaa6RrnnmL82/8MT6rDq+lQaZ9d1Qi1W2+rySSMsK oVZ2Lt8JozU4175ISlx1d7MTGPBdUbel5e0PPvOt3Lrf5geW/JcUbG1gp5h1mQj4DBaOVtY/Bg10 FLD2GUzNyEfi3QFRMvgmes+ffLWk69caL5pnt9OhZILnTJrscYZ1BqxEj1j5xSpWmxHwnJSyAGix jjJFhO9A8z+XvMNtJc6JqMGowQuYpZLdw4VxvQ0/DxyUZA8mMoGPNM8kxdiriARQ9MVSDVNS8v8A kny2pjt/RtIP3On6ZarWSaaQkpb28Y3Z3Y7AfPpkCREMwDMpb+XHlfUdMttR1vXAv+JfMc/1zUwp 5LCoHG3tVbusEfw/OuDHEjc8yyyzB2HIMxyxqW+nH6nqcR6lOPOg5ca1pXwxVSvLCxvYTBe28V1C esUyLIp/2LAjARaQaW6fpemabCYNOs4LOEmpit40iWvjxQAYgAclJJ5onCh2KuxVCvpWnPqUepyW 6PfwxmGG4YcmjRiSwSv2OVfi49dq9BgoXabNUisKHYqoX080FnNPBGs0sSF1iZ/TDcRWnMhguApC S+WfOdr5h8pW/mSzsroRXMTTR2LKguWVGKnivLialfh33yMZ2LZShwypBeSPPknma5uY1sGSyRTJ aapEXaCUK5jeKRZEikguI22eJh7gkYIZOJM8fCy7LGt2KuxVKW82+Vkso76XV7OG0lXnHPLPHGpX 5uVp75HjHey4D3LvL/mny75it5rjQ9Qg1GCCQwzSQMGCuvY/wPQ9sYyB5LKBjzTTJMXmv5pab5gs tOu5tH8yXlrJr88Gm22lMkM8ZuLthCfReVWkiX0+TuFbahK0yjKCBsebfiIJ3HJZF+Xj+R4BfeT9 OGsa0lulomoarcSz3AjWixW8UaqkUcfiecaqPHHw+H6dyvicf1bBmflG31uHRx+nLSwstTmlkmuI tM5mAtI3IuS6qxdiaud9++Wwut2uZF7J1kmDsVdirzP8wR5N8m28+oaR5ds7vzprTuNLgitVmuZb gqWebiqtJ6cY+OTiN/mcoycMdwPUW/HxS2J9ITb8otA8v6T5RibSr6LVrm9drjVtXiIZri7f4pC5 +0OJagVqEdxWuSwxAjtuxzSJlvszbLWphWq6Fr+q/mjpF5cxgeV9CspLq1YMD6mpTloKMla/uod1 NKCvWp2qMSZjuDaJAQPeV2t6x5z8v61eT2uhzeYdEvfTlj+qTRLcWsqxiKSP0ZSnON+AcFTsS1Rj IyB5WFjGJHOinHlHX9U1vTpLrUtEudCnSVo1tbtkZmQAESAoehrTfJQkSNxTGcQDsbTvJsHYqgtX n1WGyJ0q1S7vnISJJpPRhWv7crgO3FfBFJP4gG+iRXVJvLPksafqE2u6xdfpbzNdL6cuoMvCOGKt Rb2kVW9KIH3LMd2JyEYUbO5ZynYobBAN5DubD8xrbzVoMy2lnfpJF5m0+rCO4IjJguEQfD6qyABj 4fTUeHUrHxT4lxo/BmuWtTsVdirsVdirsVdirsVdirsVYprHmLVbL8xfLuiW4E+n6xa3z3sZUcoD aCNo5gw3o7SemQfb6azIiQHe2RiDEnuQH5j+bdMj8l61caV5lh07VdOiuHgMU1v6hubZWIt2jlD1 LMvHjSvhgyTHCaLLFA8QsbIz8ufPWn+adIhWCeW9vbO2txqN99Xkit5bhox6vpOUSNqODUL0+WHH kEgxyYzEsuyxrdiqnJc28UkUUkqJJOSsKMwDOwBYhQftEKK7Y2tPPZfPi2X5sXGjXPmOyi0FbCOW a2vZLaJ0vZZGSOC2f907fCnNg3IivuKU+JU6vZv8O4XW6beffMetaeba00Xi88zxx3MkXGee1Mzh Leaa0oXktneqSMpVl6rXJZJEcmOOIPNOfrXmf/Cv1n6lB/iX6ry+oeqfq/1rh9j1OvDn/t98lZrz YUL8mFebNXOnfmtYLE/HUdQ0y3sNNqoNBPqIN24qNzHBHzp7ZVM1P4fpbYC4fH9Cafm5pvl5PIfm XVbywtXvU0y5jivJIY2mV5IWii4yMOQ+JxTfJZgOEnyY4SeIDzZR5eieHQNMikUo8dpAjodiCsag j6MsjyDCXMphhYuxVjf5g6T5Pv8AyzcS+bYRNpGm/wCnOS7xsjQqfiRo2R+RDFaA71pkMgiRvyZ4 zIH083nv6F0ny1+Q3mLULrToLGbXrW4u5LJECrE98BHZ24A+L90GiXx5VPU5TwiOMnvb+IyyAdyZ /mHpHmQ+S9Hj0XS7y884aPBaT2GqW/oIIZY+CzpIZJI3ZZVDBo1Vq1FRthyA8IobhjjI4jZ9Jele pffo31fRX6/6PL6vy+D1uNeHPw5bVy/o0dUu1Xyjo2p+YdG8wXKN+kdCM5snUjiRcRGJ1cEGoFeS +BGAwBIPcyEyAR3oLzN5Vu/Muo2trqUka+WLR47mWyQsZby4jblGsxoFWCNgG4ipdutAN4yhxHfk mM+Ebc2T5Y1uxV2KpJ5v8o6Z5q0uLTNTZ/qaXMF1LEhosvoOH9KQHqjU3GQnASFFnCZibCRav+Vd jqmvQXk+qXY0KKeO+fy4GraPdxMWWT4uRVCTVolopO+ROKzz27mQy0OW/ezjLWp2KuxVB2Ws6PfX Fxb2V9b3VxaNwuoYZUkeJqkUkVSSpqO+ASBSYkIzCh2KuxV2KuxV2KuxVI/Md15itZ7M6PLYO1yz QLY6g0sIll4NKDHPEspUhI2JUxmoHUd4SJ6M4gdXlkv+MbL8wfM+pXmraB5Yu5LDTvrd/L6l0scL m4VBC0xtFZ/3Hx81/lplHqEibAcj0mIFE83rXlV5H8vWLyauuvO8fL9LokUa3AYkhwsP7sbbbZkQ 5c7cafPlSa5Ji7FXYq7FXYq7FWN+ebvQhp0Wm6rpUmufpGThbaVBEsskrxKZSw9Ro0T0wtebOtPG tMhMiqItnjBuwaeO2t5+X/l/z9rcmv8AkaW0s4LSwdzJb2+prYtymLTTGGS59NZVZNxU/D06ZjAx EjcXKIkYipfoe9aPf6XqGl2t7pUkc2mzxq9pJDtGYyPh4jany7ZlggjZw5Ag7ozCh2KuxV2KuxV2 KpbrvlzR9dt44NTgMqwv6kMkcksEsbUIJSaFo5EqDQ8W3yMog82UZEckJ5a8keWfLcd2mk2hjbUG V7+aaWW4lnZQVBkknaRm2J2rTfBGAjyTKZlzTXT9OsNNs47LT7eO0tIq+lbwqEjXkxY8VWgG5JyQ FcmJJPNEYUOxV2KuxV2KuxV2Ksbk84yweebfyrcaZKv122ku7PUY3V4WSGgkEi/CyEFgO/UZDj9V U2cHpu2QxXEEpcRSLIYmKSBWDcWHVWp0Ptk2tfirsVdirsVdirsVYZr3kLT31O91+TXNZ0+0ZPXv 9OsL2S3t3aFKGTjHSRWKr8XBxXKpYxd2W2OQ1VBgOh6D5e1Hz15eGs6Nbfo7XtCurnTbee5n1F2Z ntpVEz3PL41gDbqSNyO1TVGIMhY5hulIiJo8i9W0HyR5S8vXM91oelW+nTXKiOdrdPTDKpqAVHw/ hl8YAcg48skpcyneTYOxV2KuxV2KuxVZMITDIJ+Po8T6vOnHjT4uVdqU64q8n8g+QtL/AMff4m0c XS+WdKs3sdFa7mlmWWSViXazEpYpaxoeKEbOSSKjfMfHjHFY5OTkyHho8y9bzIcZ2KuxV2KuxV2K uxV//9k=</xmpGImg:image></rdf:li></rdf:Alt></xmp:Thumbnails></rdf:Description><rdf:Description xmlns:xmpMM="http://ns.adobe.com/xap/1.0/mm/" xmlns:stRef="http://ns.adobe.com/xap/1.0/sType/ResourceRef#" xmlns:stEvt="http://ns.adobe.com/xap/1.0/sType/ResourceEvent#"><xmpMM:RenditionClass>proof:pdf</xmpMM:RenditionClass><xmpMM:OriginalDocumentID>uuid:65E6390686CF11DBA6E2D887CEACB407</xmpMM:OriginalDocumentID><xmpMM:DocumentID>xmp.did:081DE06E9B66E711BC30C8B554C325DD</xmpMM:DocumentID><xmpMM:InstanceID>xmp.iid:081DE06E9B66E711BC30C8B554C325DD</xmpMM:InstanceID><xmpMM:DerivedFrom rdf:parseType="Resource"><stRef:instanceID>uuid:c5b5eddb-66da-6741-a40d-cc810f9d042d</stRef:instanceID><stRef:documentID>xmp.did:FB05051EC465E111835FF2FC000FBA2B</stRef:documentID><stRef:originalDocumentID>uuid:65E6390686CF11DBA6E2D887CEACB407</stRef:originalDocumentID><stRef:renditionClass>proof:pdf</stRef:renditionClass></xmpMM:DerivedFrom><xmpMM:History><rdf:Seq><rdf:li rdf:parseType="Resource"><stEvt:action>saved</stEvt:action><stEvt:instanceID>xmp.iid:081DE06E9B66E711BC30C8B554C325DD</stEvt:instanceID><stEvt:when>2017-07-12T09:52:19+09:00</stEvt:when><stEvt:softwareAgent>Adobe Illustrator CS6 (Windows)</stEvt:softwareAgent><stEvt:changed>/</stEvt:changed></rdf:li></rdf:Seq></xmpMM:History></rdf:Description><rdf:Description xmlns:illustrator="http://ns.adobe.com/illustrator/1.0/"><illustrator:StartupProfile>Web</illustrator:StartupProfile></rdf:Description><rdf:Description xmlns:xmpTPg="http://ns.adobe.com/xap/1.0/t/pg/" xmlns:stDim="http://ns.adobe.com/xap/1.0/sType/Dimensions#" xmlns:xmpG="http://ns.adobe.com/xap/1.0/g/"><xmpTPg:NPages>1</xmpTPg:NPages><xmpTPg:HasVisibleTransparency>False</xmpTPg:HasVisibleTransparency><xmpTPg:HasVisibleOverprint>False</xmpTPg:HasVisibleOverprint><xmpTPg:MaxPageSize rdf:parseType="Resource"><stDim:w>63.277344</stDim:w><stDim:h>248.052734</stDim:h><stDim:unit>Pixels</stDim:unit></xmpTPg:MaxPageSize><xmpTPg:PlateNames><rdf:Seq><rdf:li>Cyan</rdf:li><rdf:li>Magenta</rdf:li><rdf:li>Yellow</rdf:li><rdf:li>Black</rdf:li></rdf:Seq></xmpTPg:PlateNames><xmpTPg:SwatchGroups><rdf:Seq><rdf:li rdf:parseType="Resource"><xmpG:groupName>初期設定のスウォッチグループ</xmpG:groupName><xmpG:groupType>0</xmpG:groupType><xmpG:Colorants><rdf:Seq><rdf:li rdf:parseType="Resource"><xmpG:swatchName>ホワイト</xmpG:swatchName><xmpG:mode>RGB</xmpG:mode><xmpG:type>PROCESS</xmpG:type><xmpG:red>255</xmpG:red><xmpG:green>255</xmpG:green><xmpG:blue>255</xmpG:blue></rdf:li><rdf:li rdf:parseType="Resource"><xmpG:swatchName>ブラック</xmpG:swatchName><xmpG:mode>RGB</xmpG:mode><xmpG:type>PROCESS</xmpG:type><xmpG:red>0</xmpG:red><xmpG:green>0</xmpG:green><xmpG:blue>0</xmpG:blue></rdf:li><rdf:li rdf:parseType="Resource"><xmpG:swatchName>RGB レッド</xmpG:swatchName><xmpG:mode>RGB</xmpG:mode><xmpG:type>PROCESS</xmpG:type><xmpG:red>255</xmpG:red><xmpG:green>0</xmpG:green><xmpG:blue>0</xmpG:blue></rdf:li><rdf:li rdf:parseType="Resource"><xmpG:swatchName>RGB イエロー</xmpG:swatchName><xmpG:mode>RGB</xmpG:mode><xmpG:type>PROCESS</xmpG:type><xmpG:red>255</xmpG:red><xmpG:green>255</xmpG:green><xmpG:blue>0</xmpG:blue></rdf:li><rdf:li rdf:parseType="Resource"><xmpG:swatchName>RGB グリーン</xmpG:swatchName><xmpG:mode>RGB</xmpG:mode><xmpG:type>PROCESS</xmpG:type><xmpG:red>0</xmpG:red><xmpG:green>255</xmpG:green><xmpG:blue>0</xmpG:blue></rdf:li><rdf:li rdf:parseType="Resource"><xmpG:swatchName>RGB シアン</xmpG:swatchName><xmpG:mode>RGB</xmpG:mode><xmpG:type>PROCESS</xmpG:type><xmpG:red>0</xmpG:red><xmpG:green>255</xmpG:green><xmpG:blue>255</xmpG:blue></rdf:li><rdf:li rdf:parseType="Resource"><xmpG:swatchName>RGB ブルー</xmpG:swatchName><xmpG:mode>RGB</xmpG:mode><xmpG:type>PROCESS</xmpG:type><xmpG:red>0</xmpG:red><xmpG:green>0</xmpG:green><xmpG:blue>255</xmpG:blue></rdf:li><rdf:li rdf:parseType="Resource"><xmpG:swatchName>RGB マゼンタ</xmpG:swatchName><xmpG:mode>RGB</xmpG:mode><xmpG:type>PROCESS</xmpG:type><xmpG:red>255</xmpG:red><xmpG:green>0</xmpG:green><xmpG:blue>255</xmpG:blue></rdf:li><rdf:li rdf:parseType="Resource"><xmpG:swatchName>R=193 G=39 B=45</xmpG:swatchName><xmpG:mode>RGB</xmpG:mode><xmpG:type>PROCESS</xmpG:type><xmpG:red>193</xmpG:red><xmpG:green>39</xmpG:green><xmpG:blue>45</xmpG:blue></rdf:li><rdf:li rdf:parseType="Resource"><xmpG:swatchName>R=237 G=28 B=36</xmpG:swatchName><xmpG:mode>RGB</xmpG:mode><xmpG:type>PROCESS</xmpG:type><xmpG:red>237</xmpG:red><xmpG:green>28</xmpG:green><xmpG:blue>36</xmpG:blue></rdf:li><rdf:li rdf:parseType="Resource"><xmpG:swatchName>R=241 G=90 B=36</xmpG:swatchName><xmpG:mode>RGB</xmpG:mode><xmpG:type>PROCESS</xmpG:type><xmpG:red>241</xmpG:red><xmpG:green>90</xmpG:green><xmpG:blue>36</xmpG:blue></rdf:li><rdf:li rdf:parseType="Resource"><xmpG:swatchName>R=247 G=147 B=30</xmpG:swatchName><xmpG:mode>RGB</xmpG:mode><xmpG:type>PROCESS</xmpG:type><xmpG:red>247</xmpG:red><xmpG:green>147</xmpG:green><xmpG:blue>30</xmpG:blue></rdf:li><rdf:li rdf:parseType="Resource"><xmpG:swatchName>R=251 G=176 B=59</xmpG:swatchName><xmpG:mode>RGB</xmpG:mode><xmpG:type>PROCESS</xmpG:type><xmpG:red>251</xmpG:red><xmpG:green>176</xmpG:green><xmpG:blue>59</xmpG:blue></rdf:li><rdf:li rdf:parseType="Resource"><xmpG:swatchName>R=252 G=238 B=33</xmpG:swatchName><xmpG:mode>RGB</xmpG:mode><xmpG:type>PROCESS</xmpG:type><xmpG:red>252</xmpG:red><xmpG:green>238</xmpG:green><xmpG:blue>33</xmpG:blue></rdf:li><rdf:li rdf:parseType="Resource"><xmpG:swatchName>R=217 G=224 B=33</xmpG:swatchName><xmpG:mode>RGB</xmpG:mode><xmpG:type>PROCESS</xmpG:type><xmpG:red>217</xmpG:red><xmpG:green>224</xmpG:green><xmpG:blue>33</xmpG:blue></rdf:li><rdf:li rdf:parseType="Resource"><xmpG:swatchName>R=140 G=198 B=63</xmpG:swatchName><xmpG:mode>RGB</xmpG:mode><xmpG:type>PROCESS</xmpG:type><xmpG:red>140</xmpG:red><xmpG:green>198</xmpG:green><xmpG:blue>63</xmpG:blue></rdf:li><rdf:li rdf:parseType="Resource"><xmpG:swatchName>R=57 G=181 B=74</xmpG:swatchName><xmpG:mode>RGB</xmpG:mode><xmpG:type>PROCESS</xmpG:type><xmpG:red>57</xmpG:red><xmpG:green>181</xmpG:green><xmpG:blue>74</xmpG:blue></rdf:li><rdf:li rdf:parseType="Resource"><xmpG:swatchName>R=0 G=146 B=69</xmpG:swatchName><xmpG:mode>RGB</xmpG:mode><xmpG:type>PROCESS</xmpG:type><xmpG:red>0</xmpG:red><xmpG:green>146</xmpG:green><xmpG:blue>69</xmpG:blue></rdf:li><rdf:li rdf:parseType="Resource"><xmpG:swatchName>R=0 G=104 B=55</xmpG:swatchName><xmpG:mode>RGB</xmpG:mode><xmpG:type>PROCESS</xmpG:type><xmpG:red>0</xmpG:red><xmpG:green>104</xmpG:green><xmpG:blue>55</xmpG:blue></rdf:li><rdf:li rdf:parseType="Resource"><xmpG:swatchName>R=34 G=181 B=115</xmpG:swatchName><xmpG:mode>RGB</xmpG:mode><xmpG:type>PROCESS</xmpG:type><xmpG:red>34</xmpG:red><xmpG:green>181</xmpG:green><xmpG:blue>115</xmpG:blue></rdf:li><rdf:li rdf:parseType="Resource"><xmpG:swatchName>R=0 G=169 B=157</xmpG:swatchName><xmpG:mode>RGB</xmpG:mode><xmpG:type>PROCESS</xmpG:type><xmpG:red>0</xmpG:red><xmpG:green>169</xmpG:green><xmpG:blue>157</xmpG:blue></rdf:li><rdf:li rdf:parseType="Resource"><xmpG:swatchName>R=41 G=171 B=226</xmpG:swatchName><xmpG:mode>RGB</xmpG:mode><xmpG:type>PROCESS</xmpG:type><xmpG:red>41</xmpG:red><xmpG:green>171</xmpG:green><xmpG:blue>226</xmpG:blue></rdf:li><rdf:li rdf:parseType="Resource"><xmpG:swatchName>R=0 G=113 B=188</xmpG:swatchName><xmpG:mode>RGB</xmpG:mode><xmpG:type>PROCESS</xmpG:type><xmpG:red>0</xmpG:red><xmpG:green>113</xmpG:green><xmpG:blue>188</xmpG:blue></rdf:li><rdf:li rdf:parseType="Resource"><xmpG:swatchName>R=46 G=49 B=146</xmpG:swatchName><xmpG:mode>RGB</xmpG:mode><xmpG:type>PROCESS</xmpG:type><xmpG:red>46</xmpG:red><xmpG:green>49</xmpG:green><xmpG:blue>146</xmpG:blue></rdf:li><rdf:li rdf:parseType="Resource"><xmpG:swatchName>R=27 G=20 B=100</xmpG:swatchName><xmpG:mode>RGB</xmpG:mode><xmpG:type>PROCESS</xmpG:type><xmpG:red>27</xmpG:red><xmpG:green>20</xmpG:green><xmpG:blue>100</xmpG:blue></rdf:li><rdf:li rdf:parseType="Resource"><xmpG:swatchName>R=102 G=45 B=145</xmpG:swatchName><xmpG:mode>RGB</xmpG:mode><xmpG:type>PROCESS</xmpG:type><xmpG:red>102</xmpG:red><xmpG:green>45</xmpG:green><xmpG:blue>145</xmpG:blue></rdf:li><rdf:li rdf:parseType="Resource"><xmpG:swatchName>R=147 G=39 B=143</xmpG:swatchName><xmpG:mode>RGB</xmpG:mode><xmpG:type>PROCESS</xmpG:type><xmpG:red>147</xmpG:red><xmpG:green>39</xmpG:green><xmpG:blue>143</xmpG:blue></rdf:li><rdf:li rdf:parseType="Resource"><xmpG:swatchName>R=158 G=0 B=93</xmpG:swatchName><xmpG:mode>RGB</xmpG:mode><xmpG:type>PROCESS</xmpG:type><xmpG:red>158</xmpG:red><xmpG:green>0</xmpG:green><xmpG:blue>93</xmpG:blue></rdf:li><rdf:li rdf:parseType="Resource"><xmpG:swatchName>R=212 G=20 B=90</xmpG:swatchName><xmpG:mode>RGB</xmpG:mode><xmpG:type>PROCESS</xmpG:type><xmpG:red>212</xmpG:red><xmpG:green>20</xmpG:green><xmpG:blue>90</xmpG:blue></rdf:li><rdf:li rdf:parseType="Resource"><xmpG:swatchName>R=237 G=30 B=121</xmpG:swatchName><xmpG:mode>RGB</xmpG:mode><xmpG:type>PROCESS</xmpG:type><xmpG:red>237</xmpG:red><xmpG:green>30</xmpG:green><xmpG:blue>121</xmpG:blue></rdf:li><rdf:li rdf:parseType="Resource"><xmpG:swatchName>R=199 G=178 B=153</xmpG:swatchName><xmpG:mode>RGB</xmpG:mode><xmpG:type>PROCESS</xmpG:type><xmpG:red>199</xmpG:red><xmpG:green>178</xmpG:green><xmpG:blue>153</xmpG:blue></rdf:li><rdf:li rdf:parseType="Resource"><xmpG:swatchName>R=153 G=134 B=117</xmpG:swatchName><xmpG:mode>RGB</xmpG:mode><xmpG:type>PROCESS</xmpG:type><xmpG:red>153</xmpG:red><xmpG:green>134</xmpG:green><xmpG:blue>117</xmpG:blue></rdf:li><rdf:li rdf:parseType="Resource"><xmpG:swatchName>R=115 G=99 B=87</xmpG:swatchName><xmpG:mode>RGB</xmpG:mode><xmpG:type>PROCESS</xmpG:type><xmpG:red>115</xmpG:red><xmpG:green>99</xmpG:green><xmpG:blue>87</xmpG:blue></rdf:li><rdf:li rdf:parseType="Resource"><xmpG:swatchName>R=83 G=71 B=65</xmpG:swatchName><xmpG:mode>RGB</xmpG:mode><xmpG:type>PROCESS</xmpG:type><xmpG:red>83</xmpG:red><xmpG:green>71</xmpG:green><xmpG:blue>65</xmpG:blue></rdf:li><rdf:li rdf:parseType="Resource"><xmpG:swatchName>R=198 G=156 B=109</xmpG:swatchName><xmpG:mode>RGB</xmpG:mode><xmpG:type>PROCESS</xmpG:type><xmpG:red>198</xmpG:red><xmpG:green>156</xmpG:green><xmpG:blue>109</xmpG:blue></rdf:li><rdf:li rdf:parseType="Resource"><xmpG:swatchName>R=166 G=124 B=82</xmpG:swatchName><xmpG:mode>RGB</xmpG:mode><xmpG:type>PROCESS</xmpG:type><xmpG:red>166</xmpG:red><xmpG:green>124</xmpG:green><xmpG:blue>82</xmpG:blue></rdf:li><rdf:li rdf:parseType="Resource"><xmpG:swatchName>R=140 G=98 B=57</xmpG:swatchName><xmpG:mode>RGB</xmpG:mode><xmpG:type>PROCESS</xmpG:type><xmpG:red>140</xmpG:red><xmpG:green>98</xmpG:green><xmpG:blue>57</xmpG:blue></rdf:li><rdf:li rdf:parseType="Resource"><xmpG:swatchName>R=117 G=76 B=36</xmpG:swatchName><xmpG:mode>RGB</xmpG:mode><xmpG:type>PROCESS</xmpG:type><xmpG:red>117</xmpG:red><xmpG:green>76</xmpG:green><xmpG:blue>36</xmpG:blue></rdf:li><rdf:li rdf:parseType="Resource"><xmpG:swatchName>R=96 G=56 B=19</xmpG:swatchName><xmpG:mode>RGB</xmpG:mode><xmpG:type>PROCESS</xmpG:type><xmpG:red>96</xmpG:red><xmpG:green>56</xmpG:green><xmpG:blue>19</xmpG:blue></rdf:li><rdf:li rdf:parseType="Resource"><xmpG:swatchName>R=66 G=33 B=11</xmpG:swatchName><xmpG:mode>RGB</xmpG:mode><xmpG:type>PROCESS</xmpG:type><xmpG:red>66</xmpG:red><xmpG:green>33</xmpG:green><xmpG:blue>11</xmpG:blue></rdf:li></rdf:Seq></xmpG:Colorants></rdf:li><rdf:li rdf:parseType="Resource"><xmpG:groupName>グレー</xmpG:groupName><xmpG:groupType>1</xmpG:groupType><xmpG:Colorants><rdf:Seq><rdf:li rdf:parseType="Resource"><xmpG:swatchName>R=0 G=0 B=0</xmpG:swatchName><xmpG:mode>RGB</xmpG:mode><xmpG:type>PROCESS</xmpG:type><xmpG:red>0</xmpG:red><xmpG:green>0</xmpG:green><xmpG:blue>0</xmpG:blue></rdf:li><rdf:li rdf:parseType="Resource"><xmpG:swatchName>R=26 G=26 B=26</xmpG:swatchName><xmpG:mode>RGB</xmpG:mode><xmpG:type>PROCESS</xmpG:type><xmpG:red>26</xmpG:red><xmpG:green>26</xmpG:green><xmpG:blue>26</xmpG:blue></rdf:li><rdf:li rdf:parseType="Resource"><xmpG:swatchName>R=51 G=51 B=51</xmpG:swatchName><xmpG:mode>RGB</xmpG:mode><xmpG:type>PROCESS</xmpG:type><xmpG:red>51</xmpG:red><xmpG:green>51</xmpG:green><xmpG:blue>51</xmpG:blue></rdf:li><rdf:li rdf:parseType="Resource"><xmpG:swatchName>R=77 G=77 B=77</xmpG:swatchName><xmpG:mode>RGB</xmpG:mode><xmpG:type>PROCESS</xmpG:type><xmpG:red>77</xmpG:red><xmpG:green>77</xmpG:green><xmpG:blue>77</xmpG:blue></rdf:li><rdf:li rdf:parseType="Resource"><xmpG:swatchName>R=102 G=102 B=102</xmpG:swatchName><xmpG:mode>RGB</xmpG:mode><xmpG:type>PROCESS</xmpG:type><xmpG:red>102</xmpG:red><xmpG:green>102</xmpG:green><xmpG:blue>102</xmpG:blue></rdf:li><rdf:li rdf:parseType="Resource"><xmpG:swatchName>R=128 G=128 B=128</xmpG:swatchName><xmpG:mode>RGB</xmpG:mode><xmpG:type>PROCESS</xmpG:type><xmpG:red>128</xmpG:red><xmpG:green>128</xmpG:green><xmpG:blue>128</xmpG:blue></rdf:li><rdf:li rdf:parseType="Resource"><xmpG:swatchName>R=153 G=153 B=153</xmpG:swatchName><xmpG:mode>RGB</xmpG:mode><xmpG:type>PROCESS</xmpG:type><xmpG:red>153</xmpG:red><xmpG:green>153</xmpG:green><xmpG:blue>153</xmpG:blue></rdf:li><rdf:li rdf:parseType="Resource"><xmpG:swatchName>R=179 G=179 B=179</xmpG:swatchName><xmpG:mode>RGB</xmpG:mode><xmpG:type>PROCESS</xmpG:type><xmpG:red>179</xmpG:red><xmpG:green>179</xmpG:green><xmpG:blue>179</xmpG:blue></rdf:li><rdf:li rdf:parseType="Resource"><xmpG:swatchName>R=204 G=204 B=204</xmpG:swatchName><xmpG:mode>RGB</xmpG:mode><xmpG:type>PROCESS</xmpG:type><xmpG:red>204</xmpG:red><xmpG:green>204</xmpG:green><xmpG:blue>204</xmpG:blue></rdf:li><rdf:li rdf:parseType="Resource"><xmpG:swatchName>R=230 G=230 B=230</xmpG:swatchName><xmpG:mode>RGB</xmpG:mode><xmpG:type>PROCESS</xmpG:type><xmpG:red>230</xmpG:red><xmpG:green>230</xmpG:green><xmpG:blue>230</xmpG:blue></rdf:li><rdf:li rdf:parseType="Resource"><xmpG:swatchName>R=242 G=242 B=242</xmpG:swatchName><xmpG:mode>RGB</xmpG:mode><xmpG:type>PROCESS</xmpG:type><xmpG:red>242</xmpG:red><xmpG:green>242</xmpG:green><xmpG:blue>242</xmpG:blue></rdf:li></rdf:Seq></xmpG:Colorants></rdf:li><rdf:li rdf:parseType="Resource"><xmpG:groupName>Web カラーグループ</xmpG:groupName><xmpG:groupType>1</xmpG:groupType><xmpG:Colorants><rdf:Seq><rdf:li rdf:parseType="Resource"><xmpG:swatchName>R=63 G=169 B=245</xmpG:swatchName><xmpG:mode>RGB</xmpG:mode><xmpG:type>PROCESS</xmpG:type><xmpG:red>63</xmpG:red><xmpG:green>169</xmpG:green><xmpG:blue>245</xmpG:blue></rdf:li><rdf:li rdf:parseType="Resource"><xmpG:swatchName>R=122 G=201 B=67</xmpG:swatchName><xmpG:mode>RGB</xmpG:mode><xmpG:type>PROCESS</xmpG:type><xmpG:red>122</xmpG:red><xmpG:green>201</xmpG:green><xmpG:blue>67</xmpG:blue></rdf:li><rdf:li rdf:parseType="Resource"><xmpG:swatchName>R=255 G=147 B=30</xmpG:swatchName><xmpG:mode>RGB</xmpG:mode><xmpG:type>PROCESS</xmpG:type><xmpG:red>255</xmpG:red><xmpG:green>147</xmpG:green><xmpG:blue>30</xmpG:blue></rdf:li><rdf:li rdf:parseType="Resource"><xmpG:swatchName>R=255 G=29 B=37</xmpG:swatchName><xmpG:mode>RGB</xmpG:mode><xmpG:type>PROCESS</xmpG:type><xmpG:red>255</xmpG:red><xmpG:green>29</xmpG:green><xmpG:blue>37</xmpG:blue></rdf:li><rdf:li rdf:parseType="Resource"><xmpG:swatchName>R=255 G=123 B=172</xmpG:swatchName><xmpG:mode>RGB</xmpG:mode><xmpG:type>PROCESS</xmpG:type><xmpG:red>255</xmpG:red><xmpG:green>123</xmpG:green><xmpG:blue>172</xmpG:blue></rdf:li><rdf:li rdf:parseType="Resource"><xmpG:swatchName>R=189 G=204 B=212</xmpG:swatchName><xmpG:mode>RGB</xmpG:mode><xmpG:type>PROCESS</xmpG:type><xmpG:red>189</xmpG:red><xmpG:green>204</xmpG:green><xmpG:blue>212</xmpG:blue></rdf:li></rdf:Seq></xmpG:Colorants></rdf:li></rdf:Seq></xmpTPg:SwatchGroups></rdf:Description><rdf:Description xmlns:pdf="http://ns.adobe.com/pdf/1.3/"><pdf:Producer>Adobe PDF library 10.01</pdf:Producer></rdf:Description></rdf:RDF></x:xmpmeta><?xpacket end="w"?></metadata><g fill="#4A1F00"><path d="M44.905 10.077c.285 0 .55-.132.968-.506.374-.286.528-.462 1.98-1.826 1.628-1.541 2.178-1.915 2.816-1.915.616 0 .616 0 3.895 2.399 3.168 2.332 5.171 3.608 6.425 4.114.506.198 1.21 1.519 1.21 2.245 0 .33-.176.55-.484.55-.638 0-1.584-.726-6.908-5.237-3.631-3.103-3.785-3.212-4.247-3.212-.44 0-.902.44-2.002 1.871-.771 1.034-1.255 1.782-1.717 2.728-.176.374-.418.55-.748.55-.924 0-2.552-1.518-2.552-2.397 0-.044 0-.044.044-.287.483.571 1.012.923 1.32.923zm15.072-6.183c0 1.232-.989 2.244-2.222 2.244s-2.223-1.012-2.223-2.244c0-1.232.99-2.222 2.223-2.222s2.222.99 2.222 2.222zm-3.741.022c0 .836.683 1.54 1.519 1.54s1.518-.682 1.518-1.54-.682-1.54-1.518-1.54-1.519.682-1.519 1.54zm-6.755 29.392c2.2 1.342 3.059 2.178 3.059 3.015 0 .661-.353 1.276-.704 1.276-.22 0-.353-.154-.55-.615-.595-1.453-.902-1.959-2.024-3.477l.219-.199zm2.046 11.288c1.497-1.145 2.201-1.805 3.279-2.993 1.804-2.024 3.3-4.357 4.246-6.557.309-.726.418-1.056.418-1.364 0-.528-.22-.748-1.144-1.188.22-.132.33-.176.527-.176.507 0 1.188.264 1.849.704.594.396.836.682.836 1.012 0 .221-.044.287-.308.551-.132.132-.462.66-.771 1.188-1.563 2.685-1.914 3.212-3.036 4.554-1.761 2.113-3.652 3.653-5.677 4.599l-.219-.33zm1.893-12.08c.814.396 1.364.748 1.937 1.254.594.484.814.88.814 1.364 0 .66-.374 1.343-.727 1.343-.242 0-.374-.176-.528-.661-.418-1.319-.901-2.222-1.694-3.08l.198-.22zm-4.29 25.322c.462 0 .945.11 1.628.374.924.352 1.452.792 1.452 1.21 0 .154 0 .154-.132.484-.265.594-.396 2.244-.396 4.796 1.65.154 3.829.682 5.127 1.232.99.462 1.364.902 1.364 1.694 0 .638-.198 1.012-.528 1.012-.22 0-.242 0-.813-.528-1.453-1.342-3.146-2.267-5.171-2.86.021 1.386.021 2.068.021 2.729v3.213c0 .66 0 .66.044 2.508.022.462.022.836.022 1.166 0 .418-.022.617-.11.749-.065.11-.242.198-.396.198-.528 0-1.408-1.188-1.408-1.915 0-.22.021-.352.109-.616.33-1.056.462-3.917.462-9.527 0-1.584-.065-3.191-.153-3.785-.133-.99-.616-1.54-1.673-1.958.265-.154.353-.176.551-.176zm-6.447 42.616c2.178-1.716 4.07-3.873 5.413-6.117.682-1.166.901-1.694.901-2.178 0-.352-.286-.682-1.1-1.254.242-.066.352-.088.484-.088.396 0 1.166.309 1.804.748.771.506 1.078.836 1.078 1.188 0 .176-.065.308-.264.484-.418.352-.44.352-.925 1.012-1.848 2.42-2.772 3.411-4.643 4.819-.968.748-1.584 1.144-2.574 1.628l-.174-.242zm11.794-9.682c2.31 1.386 4.4 3.234 5.786 5.127.683.945.925 1.562.925 2.354 0 .902-.353 1.606-.837 1.606-.308 0-.396-.132-.726-1.012-1.078-2.948-2.839-5.479-5.391-7.789l.243-.286zm-4.864 42.177c1.738-1.232 2.904-2.332 4.093-3.873 1.276-1.672 2.179-3.322 3.059-5.633.572-1.497.814-2.509.946-3.763-.353-.022-.44-.022-.704-.022-1.98 0-5.061.396-7.657.969a1.798 1.798 0 01-.396.065c-.264 0-.55-.11-1.122-.396.088.242.088.264.11.99.021 1.563.044 3.059.044 3.168 0 .814-.154 1.188-.506 1.188-.484 0-1.255-1.144-1.255-1.848 0-.155.022-.243.154-.507.132-.33.198-.836.198-1.606 0-1.694-.374-2.398-1.606-3.102a.811.811 0 01.44-.11c.616 0 .946.176 2.311 1.254.55 0 .638-.022 2.178-.243.88-.132 1.166-.153 1.87-.242.022-.352.022-.506.022-.99 0-1.364-.066-1.958-.286-2.333-.198-.374-.374-.484-1.188-.792.176-.154.33-.22.551-.22 1.275 0 2.904.682 2.904 1.232 0 .132-.044.22-.198.506-.309.528-.44 1.232-.484 2.442 3.807-.33 4.181-.374 4.511-.55.176-.088.286-.132.396-.132.22 0 .571.198 1.078.594.638.528.857.814.857 1.123 0 .22-.021.264-.264.528-.198.198-.33.506-.638 1.32-.792 2.112-1.32 3.301-2.112 4.599-1.475 2.442-2.816 3.961-4.775 5.325-.968.682-1.518 1.012-2.332 1.363l-.199-.304zm-5.742 27.28c2.112-1.32 4.29-3.103 5.919-4.818 1.319-1.387 2.904-3.455 4.202-5.479.704-1.078 1.078-1.805 1.496-2.839-1.056.065-2.223.308-4.643.968-1.056.286-1.145.309-1.849.594a1 1 0 01-.374.066c-.483 0-.946-.396-1.43-1.254-.309-.506-.462-.969-.462-1.32 0-.133.044-.242.153-.439.639 1.144 1.101 1.474 2.068 1.474.727 0 2.948-.286 4.621-.616 1.276-.242 1.672-.374 2.068-.616.242-.153.352-.198.506-.198.462 0 1.716 1.123 1.716 1.541 0 .153-.088.285-.285.418-.463.309-.463.309-1.255 1.496-1.056 1.584-1.056 1.584-2.772 3.828 3.103 1.629 4.841 2.751 5.699 3.719.594.639.836 1.276.836 2.178 0 .705-.22 1.145-.594 1.145-.154 0-.33-.109-.506-.353-.089-.109-.089-.109-.528-.88-1.101-1.848-2.992-3.807-5.237-5.391-1.782 2.156-3.212 3.5-5.324 4.951-1.387.968-2.332 1.496-3.851 2.156l-.174-.331zm4.687 18.676c-1.54.506-2.244.792-2.86 1.145-.33.197-.462.241-.639.241-.242 0-.682-.285-.968-.66-.396-.506-.727-1.275-.727-1.672 0-.109.044-.264.133-.484.462.902.857 1.211 1.672 1.211.484 0 2.112-.33 3.74-.771.506-1.255.902-2.86.902-3.608 0-.682-.44-1.078-1.694-1.475.265-.197.396-.242.639-.242.329 0 .901.111 1.496.286.99.286 1.54.704 1.54 1.167 0 .153-.044.24-.309.638-.285.418-.77 1.452-1.408 2.97.969-.197 1.364-.242 1.915-.242 1.892 0 2.794 1.123 2.794 3.434 0 2.816-1.122 6.469-2.398 7.877-.55.572-1.408.99-2.112.99-.374 0-.55-.154-.594-.506-.066-.617-.11-.66-2.442-2.574l.198-.265c1.672.946 2.948 1.496 3.41 1.496.484 0 .858-.462 1.431-1.848.77-1.805 1.298-4.226 1.298-5.897 0-.924-.198-1.519-.594-1.781-.221-.154-.507-.221-.99-.221-.616 0-1.034.088-2.289.439-.308.771-.308.771-1.275 2.993-.11.286-.551 1.298-1.299 3.08-.88 2.068-1.606 3.652-1.958 4.269-.154.286-.33.418-.528.418-.396 0-.638-.572-.638-1.518 0-.551.065-.727.506-1.232.418-.463 1.012-1.408 1.628-2.597.837-1.606.837-1.606 1.761-3.63l.659-1.431zm8.581-1.408c1.716.507 3.059 1.386 4.026 2.64.836 1.078 1.254 2.135 1.254 3.104 0 .77-.33 1.209-.88 1.209-.176 0-.264-.021-.506-.153-.374-.22-.484-.242-.902-.242-.77 0-.88 0-2.75.198l-.088-.286c2.31-.704 2.662-.836 3.366-1.122a5.508 5.508 0 00-.683-2.112c-.704-1.364-1.562-2.2-3.014-2.927l.177-.309zm.946-3.389c.682.242 1.518.683 2.244 1.166.792.528 1.056.902 1.056 1.475 0 .594-.241 1.056-.527 1.056-.221 0-.353-.154-.66-.726-.418-.814-1.431-2.003-2.288-2.706l.175-.265zm1.826-1.452c.748.22 1.474.527 2.2.946.792.44 1.166.88 1.166 1.364 0 .594-.198 1.056-.439 1.056-.177 0-.33-.153-.639-.594-.594-.925-1.232-1.562-2.464-2.53l.176-.242zM4.577 11.486c-.044.484-.066.682-.066.99 0 2.619 1.65 3.85 5.193 3.85 1.738 0 3.564-.308 4.862-.792a.853.853 0 01.374-.087c.33 0 .836.198 1.21.44.309.242.484.506.484.77 0 .33-.242.573-.704.682-1.012.264-3.168.44-5.127.44-2.464 0-4.026-.308-5.127-1.057-1.1-.704-1.826-2.09-1.826-3.454 0-.55.11-1.123.353-1.871l.374.089zm.682-8.692c1.123.748 1.893.968 3.367.968 1.452 0 3.3-.264 4.576-.66.154-.043.33-.089.396-.089.572 0 1.32.661 1.32 1.145 0 .374-.133.462-1.606.77-.858.176-1.057.264-3.213 1.078-.527.22-.527.22-1.804.748-.44.198-.44.198-.858.353l-.154-.33c.683-.396 1.034-.616 1.607-.924 1.496-.814 1.496-.814 1.849-1.034-.484.044-1.255.066-1.65.066-.814 0-1.826-.242-2.509-.594-.572-.308-.924-.594-1.54-1.277l.219-.22zm9.924-1.474c2.135.858 3.322 1.826 3.322 2.728 0 .573-.264 1.1-.572 1.1-.153 0-.285-.131-.439-.439-.639-1.276-1.343-2.201-2.442-3.169l.131-.22zM17.163 0c1.21.374 2.046.77 2.706 1.254.484.374.66.66.66 1.167 0 .661-.198 1.144-.484 1.144-.176 0-.308-.154-.506-.528C18.967 2.002 18.175 1.1 17.031.22l.132-.22zM6.844 34.563h1.694c.439-.639.571-.814 1.034-1.387.77.682 1.012.88 1.76 1.584.066.066.088.132.088.177 0 .066-.11.131-.242.131H6.844v2.156c1.386.617 1.958.925 2.706 1.453s.99.836.99 1.364c0 .792-.286 1.408-.66 1.408-.154 0-.242-.087-.353-.33-.374-.835-.989-1.804-1.562-2.419-.309-.353-.528-.55-1.122-.991v3.323c0 2.552 0 2.618.109 6.931 0 .132-.044.198-.153.22-.154.066-.793.132-1.167.132-.176 0-.22-.044-.241-.221.065-2.948.065-2.948.088-7.063l.109-4.291C4.092 39.93 3.014 41.581.88 43.891l-.242-.198c1.32-1.98 2.002-3.19 2.927-5.171.638-1.364.857-1.936 1.298-3.455H2.311c-.396 0-.748.022-1.21.11l-.132-.771c.638.11 1.034.155 1.563.155h2.86v-3.477c-1.826.396-2.465.506-4.115.683l-.088-.331a34.938 34.938 0 004.973-1.694c1.254-.506 1.673-.726 2.465-1.276 1.254.814 1.848 1.298 1.848 1.474 0 .088-.109.175-.264.175-.088 0-.55-.087-.924-.175-1.101.418-1.452.528-2.442.792v3.831zm7.854-3.983c0 .154-.109.22-.813.506.021 8.955.021 8.955.088 11.86 0 .109-.044.154-.132.198-.177.066-.793.132-1.211.132-.176 0-.241-.044-.241-.221.021-1.54.021-1.54.021-2.046 0-8.009-.021-9.659-.11-11.001 2.266.308 2.398.352 2.398.572zm2.993.397c-.022-.727-.044-1.255-.089-2.377 1.893.286 2.068.309 2.245.374.176.044.264.132.264.242 0 .176-.154.264-.88.55v11.882c0 .198.044 1.761.109 4.643 0 .594-.109.858-.527 1.188-.484.375-.99.55-2.003.727-.088-.594-.22-.836-.594-1.078-.22-.133-.792-.309-1.452-.441l-.792-.132-.66-.132.021-.375c.99.066.99.066 2.398.132.969.022.969.022 1.65.066.309 0 .374-.066.374-.352v-.065l-.064-14.852zM4.753 68.422a14.433 14.433 0 01-1.386 4.555c-.836 1.671-1.694 2.75-3.125 3.916L0 76.673c1.452-1.782 2.267-3.521 2.816-5.875.396-1.694.507-2.75.572-5.875.022-1.034.066-4.049.066-4.929 0-1.144-.022-1.804-.11-2.838.792.461 1.034.616 1.761 1.122h11.771c.374-.462.484-.594.902-1.034.616.44.792.572 1.386 1.034.176.131.265.22.265.308 0 .154-.133.242-.814.66v10.231c0 1.914 0 2.772.044 5.589-.066.549-.198.748-.683 1.012-.396.22-.901.374-1.936.55-.309-1.298-.484-1.408-2.927-1.716v-.331c.814.044.814.044 2.091.11.792.044.792.044 1.43.066h.175c.221 0 .265-.066.265-.308V68.42H11.64v2.002c.022 1.431.022 1.431.022 2.641.022 1.057.022 1.057.044 1.893-.021.33-.22.44-.88.462h-.308c-.308 0-.439-.11-.439-.352.021-1.342.044-3.763.044-4.644V68.42h-5.37zm5.369-5.039H4.974c-.022 2.068-.045 3.213-.154 4.533h5.303v-4.533zm0-4.599H4.974c.021.463.021.859.021 1.057 0 .177 0 .682-.021 1.365v1.672h5.148v-4.094zm6.953 4.093v-4.093H11.64v4.093h5.435zm0 5.039v-4.533H11.64v4.533h5.435zM9.704 95.042c-1.606 3.697-2.068 4.994-2.068 5.875 0 .176 0 .176.132.748.022.11.044.242.044.352 0 .309-.22.55-.484.55-.616 0-1.738-.858-2.42-1.87-.748-1.079-1.276-2.641-1.496-4.4-.132-.969-.154-1.519-.154-3.873-.021-2.046-.176-2.553-1.122-3.785h.198c.352 0 .99.418 1.65 1.079.66.638.99 1.232.99 1.738 0 .132-.022.308-.066.572-.264 1.342-.396 2.376-.396 3.278 0 1.188.177 2.289.507 3.191.33.902.594 1.298 1.144 1.716.242-.352.242-.352.727-1.166.704-1.188.704-1.188 1.848-3.103.353-.572.353-.572.639-1.056l.327.154zm4.687-3.983c2.772.616 4.973 3.542 4.973 6.579 0 1.056-.44 1.738-1.101 1.738-.22 0-.352-.044-.66-.242-.285-.198-.704-.264-1.649-.264-.507 0-.925 0-1.673.044l-.065-.33c1.782-.484 2.772-.77 2.97-.836.44-.154.507-.242.507-.66 0-.814-.309-2.091-.683-2.883-.594-1.276-1.475-2.2-2.729-2.882l.11-.264zM2.024 119.504c.902.924 1.475 1.21 2.421 1.21.857 0 1.782-.132 2.794-.418.44-1.43.748-2.971.748-3.719 0-.682-.33-.968-1.562-1.386.285-.154.396-.198.682-.198.506 0 1.232.154 1.893.418.66.242.99.55.99.88 0 .155 0 .155-.265.528-.286.418-.77 1.584-1.32 3.146 1.232-.44 2.024-.858 2.553-1.342.352-.33.44-.374.616-.374.286 0 .814.11 1.166.242.242.088.353.22.353.396 0 .375-.353.66-1.276 1.079-.99.44-2.465.924-3.851 1.275-.265.749-.265.749-.925 2.795-.439 1.321-.439 1.321-1.649 4.907-.881 2.619-1.167 3.169-1.629 3.169-.22 0-.374-.132-.506-.44a3.291 3.291 0 01-.308-1.276c0-.353.021-.418.483-1.077 1.101-1.607 1.959-3.521 3.455-7.878-.836.154-1.475.219-2.112.219-1.343 0-2.2-.571-3.015-1.98l.264-.176zm8.78 7.592c-.021.33-.021.594-.021.682 0 1.254.594 2.2 1.672 2.662.594.264 1.496.418 2.354.418.902 0 1.408-.066 2.112-.33.154-.065.286-.088.374-.088.242 0 .748.242 1.122.529.264.219.396.417.396.615 0 .484-.858.727-2.597.727-1.694 0-3.103-.242-4.07-.705-1.188-.572-1.87-1.716-1.87-3.189 0-.485.044-.859.197-1.387l.331.066zm.594-4.072c1.584-.945 3.388-1.474 5.104-1.474.462 0 1.034.155 1.386.396a.73.73 0 01.353.616c0 .352-.198.484-.836.506-.814.044-1.078.11-1.694.44-.44.242-.462.242-1.21.748-.419.265-.419.265-.771.462l-.132-.197c.264-.265.264-.265 1.056-.991.198-.176.396-.352 1.078-1.034-1.452 0-2.618.242-4.202.813l-.132-.285zm-9.549 25.388c.902.924 1.475 1.211 2.42 1.211.858 0 1.783-.133 2.795-.419.44-1.431.748-2.97.748-3.74 0-.659-.33-.946-1.563-1.364.286-.153.396-.197.683-.197.506 0 1.232.153 1.892.418.66.241.99.549.99.88 0 .153 0 .153-.264.528-.286.418-.771 1.584-1.32 3.146 1.232-.441 2.024-.859 2.553-1.343.352-.33.439-.374.616-.374.286 0 .813.109 1.166.242.242.088.352.22.352.396 0 .374-.352.66-1.276 1.058-.989.461-2.464.945-3.85 1.297-.265.748-.265.748-.925 2.795-.439 1.32-.439 1.32-1.65 4.906-.88 2.618-1.166 3.168-1.628 3.168-.22 0-.374-.132-.506-.439a3.292 3.292 0 01-.309-1.275c0-.354.022-.419.484-1.079 1.101-1.606 1.958-3.521 3.454-7.877-.836.153-1.474.22-2.112.22-1.342 0-2.2-.571-3.014-1.98l.264-.178zm8.779 7.592c-.021.33-.021.594-.021.682 0 1.254.594 2.2 1.672 2.662.594.265 1.496.418 2.354.418.901 0 1.408-.065 2.112-.33a.983.983 0 01.374-.088c.242 0 .748.242 1.122.528.264.22.396.418.396.616 0 .484-.857.727-2.596.727-1.694 0-3.103-.242-4.071-.705-1.188-.572-1.87-1.716-1.87-3.189a4.5 4.5 0 01.198-1.387l.33.066zm.594-4.07c1.585-.969 3.389-1.496 5.105-1.496.462 0 1.034.152 1.386.396a.73.73 0 01.353.616c0 .373-.198.484-.837.527-.813.021-1.078.111-1.694.441-.439.24-.462.24-1.21.747-.418.264-.418.264-.77.462l-.132-.198c.264-.264.264-.264 1.056-.989.198-.177.396-.375 1.078-1.035-1.452 0-2.618.242-4.202.814l-.133-.285zm3.125-7.262c1.21.374 2.332.902 2.971 1.387.483.352.638.638.638 1.1 0 .594-.264 1.1-.55 1.1-.177 0-.33-.132-.507-.418-.77-1.254-1.386-1.914-2.684-2.904l.132-.265zm1.892-1.518c1.649.417 2.552.748 3.168 1.166.44.33.594.615.594 1.144 0 .55-.197.968-.462.968-.154 0-.286-.109-.506-.439-.748-1.013-1.672-1.849-2.927-2.553l.133-.286zM7.13 180.688c-.946 3.895-1.343 5.896-1.343 6.666v.242c.022.176.022.264.022.353 0 .704-.177 1.034-.551 1.034-.33 0-.66-.286-.924-.793-.704-1.363-1.056-3.277-1.056-5.698 0-1.628.109-2.685.483-4.994.286-1.606.353-2.224.353-2.729 0-.682-.265-1.363-.792-2.111.483.021.924.308 1.452.857.638.704.968 1.299.968 1.76 0 .287-.021.419-.308 1.211-.748 2.09-1.145 4.181-1.145 6.117 0 1.628.154 2.662.528 3.432.264-.66 1.584-4.246 1.98-5.435l.333.088zm1.76-3.631c.99.703 1.519.881 2.553.881.901 0 2.178-.178 3.168-.463v-.771c0-1.826-.065-2.706-.264-3.08-.221-.44-.836-.771-1.87-1.012.33-.286.483-.331 1.21-.331 1.584 0 2.641.44 2.641 1.101 0 .088-.044.308-.11.528-.22.814-.242 1.078-.286 3.168 1.188-.374 1.452-.506 2.002-.945a.688.688 0 01.463-.154c.704 0 1.319.308 1.319.659 0 .265-.153.396-.77.704-.704.33-1.387.551-2.992.969v3.234c0 3.477-.595 5.26-2.245 6.997-.968.99-1.936 1.716-3.344 2.398l-.177-.286c1.606-1.254 2.377-2.09 3.103-3.389 1.034-1.805 1.387-3.762 1.387-7.547v-1.122c-.99.198-1.761.286-2.553.286-1.474 0-2.464-.44-3.454-1.563l.219-.262zm-5.171 27.038c1.166.969 1.87 1.188 3.543 1.188.946 0 1.804-.066 3.146-.264-.088-3.367-.242-3.676-1.915-3.918.309-.307.484-.352 1.101-.352s1.342.11 1.849.286c.527.177.748.396.748.727 0 .132 0 .132-.286.747-.198.419-.33 1.189-.396 2.333 2.179-.418 3.367-.792 4.093-1.298a.612.612 0 01.264-.088c.265 0 .902.197 1.145.373.242.154.374.33.374.529 0 .309-.352.483-1.716.813-1.496.353-2.883.616-4.203.771-.021.572-.021.902-.021 1.408 0 .594 0 1.033.021 2.002a18.294 18.294 0 002.509-.594c.572-.198.682-.265 1.1-.551a.53.53 0 01.33-.088c.309 0 .858.154 1.122.33a.452.452 0 01.265.418c0 .396-.309.572-1.694.946-1.101.286-2.53.55-3.587.638.044.858.044 1.211.066 1.98.044.836.065 1.166.132 1.717 2.024.374 3.961 1.122 4.841 1.893.418.374.638.879.638 1.451 0 .463-.197.771-.483.771-.221 0-.309-.065-.881-.616-.374-.352-1.21-.99-1.848-1.363a7.864 7.864 0 00-2.2-.925c.044.483.065.704.065.969 0 .857-.242 1.43-.748 1.848-.616.507-1.76.813-2.948.813-2.2 0-3.719-.968-3.719-2.354 0-1.563 2.047-2.662 4.973-2.662.353 0 .572 0 1.101.021-.022-1.057-.022-1.21-.022-1.518v-1.916c-.88.044-1.298.066-1.628.066-1.431 0-2.398-.154-2.927-.484-.638-.374-.99-.99-.99-1.673 0-.153.022-.373.045-.615l.329.022c.022.682.133.989.463 1.254.352.308 1.298.483 2.574.483.616 0 1.144-.044 2.134-.154v-1.539l-.044-1.607v-.264c-1.21.11-2.09.154-2.838.154-2.091 0-2.993-.418-4.093-1.892l.216-.216zm4.885 10.825c-.858 0-1.716.154-2.398.418-.792.309-1.188.748-1.188 1.32 0 .793.901 1.255 2.397 1.255 1.078 0 1.98-.286 2.509-.792.286-.265.418-.595.484-1.145.021-.154.044-.66.044-.836v-.066c-.858-.109-1.254-.154-1.848-.154zm-1.298 32.846c2.552-1.738 3.63-3.146 4.181-5.5-.506.308-.902.439-1.408.439-1.54 0-2.707-1.364-2.707-3.168 0-1.936 1.211-3.367 2.839-3.367.418 0 .66.066 1.232.375 0-.375.021-1.585.021-2.289 0-.044 0-.242-.021-.439-1.717.154-3.763.571-5.545 1.1-.55.176-.924.33-1.431.594-.132.045-.374.11-.506.11-.396 0-.902-.308-1.408-.837-.484-.527-.88-1.254-.88-1.605 0-.044.044-.154.109-.264.572.748 1.255 1.122 2.135 1.122.44 0 .924-.044 1.893-.198 2.596-.418 3.389-.527 5.633-.77 0-1.32-.066-1.959-.242-2.443-.242-.615-.771-.924-1.893-1.078.265-.33.418-.396 1.013-.396.748 0 1.496.11 2.134.308.528.176.836.463.836.771 0 .176-.021.22-.22.595-.242.461-.396 1.078-.484 2.134.572-.066.572-.066 1.431-.132 2.112-.154 2.354-.198 2.926-.396.551-.22.639-.242.814-.242.44 0 1.32.375 1.87.814.265.198.353.352.353.594s-.154.375-.484.375c-.154 0-.198 0-1.188-.133a23.48 23.48 0 00-3.388-.221c-.814 0-1.452.023-2.354.089a34.523 34.523 0 00-.154 2.992c0 .155 0 .419.022.748.55 1.122.704 1.806.704 2.927 0 2.156-.858 4.159-2.377 5.589-.836.792-1.914 1.496-3.278 2.091l-.178-.289zm2.794-11.068c-.99 0-1.76 1.034-1.76 2.376 0 1.387.748 2.398 1.782 2.398.946 0 1.408-.703 1.408-2.068 0-1.825-.462-2.706-1.43-2.706z"/></g></svg>