<svg version="1.1" baseProfile="tiny" id="レイヤー_1" xmlns="http://www.w3.org/2000/svg" x="0" y="0" width="260.209" height="44.284" viewBox="0 0 260.209 44.284" xml:space="preserve"><metadata><?xpacket begin="﻿" id="W5M0MpCehiHzreSzNTczkc9d"?><x:xmpmeta xmlns:x="adobe:ns:meta/" x:xmptk="Adobe XMP Core 5.3-c011 66.145661, 2012/02/06-14:56:27"><rdf:RDF xmlns:rdf="http://www.w3.org/1999/02/22-rdf-syntax-ns#"><rdf:Description xmlns:dc="http://purl.org/dc/elements/1.1/"><dc:format>image/svg+xml</dc:format><dc:title><rdf:Alt><rdf:li xml:lang="x-default">Web</rdf:li></rdf:Alt></dc:title></rdf:Description><rdf:Description xmlns:xmp="http://ns.adobe.com/xap/1.0/" xmlns:xmpGImg="http://ns.adobe.com/xap/1.0/g/img/"><xmp:CreatorTool>Adobe Illustrator CS6 (Windows)</xmp:CreatorTool><xmp:CreateDate>2017-07-12T10:01:49+09:00</xmp:CreateDate><xmp:ModifyDate>2017-07-12T10:01:50+09:00</xmp:ModifyDate><xmp:MetadataDate>2017-07-12T10:01:50+09:00</xmp:MetadataDate><xmp:Thumbnails><rdf:Alt><rdf:li rdf:parseType="Resource"><xmpGImg:width>256</xmpGImg:width><xmpGImg:height>44</xmpGImg:height><xmpGImg:format>JPEG</xmpGImg:format><xmpGImg:image>/9j/4AAQSkZJRgABAgEASABIAAD/7QAsUGhvdG9zaG9wIDMuMAA4QklNA+0AAAAAABAASAAAAAEA AQBIAAAAAQAB/+4ADkFkb2JlAGTAAAAAAf/bAIQABgQEBAUEBgUFBgkGBQYJCwgGBggLDAoKCwoK DBAMDAwMDAwQDA4PEA8ODBMTFBQTExwbGxscHx8fHx8fHx8fHwEHBwcNDA0YEBAYGhURFRofHx8f Hx8fHx8fHx8fHx8fHx8fHx8fHx8fHx8fHx8fHx8fHx8fHx8fHx8fHx8fHx8f/8AAEQgALAEAAwER AAIRAQMRAf/EAaIAAAAHAQEBAQEAAAAAAAAAAAQFAwIGAQAHCAkKCwEAAgIDAQEBAQEAAAAAAAAA AQACAwQFBgcICQoLEAACAQMDAgQCBgcDBAIGAnMBAgMRBAAFIRIxQVEGE2EicYEUMpGhBxWxQiPB UtHhMxZi8CRygvElQzRTkqKyY3PCNUQnk6OzNhdUZHTD0uIIJoMJChgZhJRFRqS0VtNVKBry4/PE 1OT0ZXWFlaW1xdXl9WZ2hpamtsbW5vY3R1dnd4eXp7fH1+f3OEhYaHiImKi4yNjo+Ck5SVlpeYmZ qbnJ2en5KjpKWmp6ipqqusra6voRAAICAQIDBQUEBQYECAMDbQEAAhEDBCESMUEFURNhIgZxgZEy obHwFMHR4SNCFVJicvEzJDRDghaSUyWiY7LCB3PSNeJEgxdUkwgJChgZJjZFGidkdFU38qOzwygp 0+PzhJSktMTU5PRldYWVpbXF1eX1RlZmdoaWprbG1ub2R1dnd4eXp7fH1+f3OEhYaHiImKi4yNjo +DlJWWl5iZmpucnZ6fkqOkpaanqKmqq6ytrq+v/aAAwDAQACEQMRAD8A9RX19ZWFnNe308drZ26G Se4mYJGiLuWZmoAMVY1c/mZ5XfyhdeZ9Fuotbs7eSO2RbWRfiuZpUhjidmoI6vKtS3RTy6YLZcJu kT5L83TeYotTjvNNk0nU9HvWsL+zeRZlDiNJkeOVAFdHjlUjYHxGIKyFMjwsXYq7FXYq7FXnmneb fMi/nfqfk2aaO60Q6QmsW5eMJLbt6qW5hV04h0ZiX+McvegyN7syBw29DyTB2KoTUtX0rS4Y5tSv ILKGWRYY5biRYkaR68UDOQOTU2HfFICtPd2tuYhcTRwmeQQwCRgpeQgkIlSOTEKTQYoVcVWyOscb SNXigLGgLGgFdgKk/Riryb8w/wA9fKVv5Av9Y8o+adNfWYODWdpIVkllYSKGjNqxSYclJ+Ljt16Z Ey2bI4ze4TTQPz8/LLUItHtrjzDZrrGpxxB4EEqxpcOgLIXdeMY5niObe2IkEHGXo+SYJN5r836B 5T0k6vr1w1ppqyLFJciKWYI0lQpcRK7BSdq0pXATSQCeTBtR/wCcj/y8i0e61XSk1LXLW0QtLLZ2 FysK70+OadIY0Fe5P34OIMxiLOvJ/mmw81eWrDzBp8c0VpqEQlijuIzFIu5BBU9dxswqD1BIwg2w kKNJxhQ+e7fzHfeZ/wAz/Mfn3S9bsrHQPKKwaJZi+upLazuHlkKvJcNEf7v1ZD6ZYEMePhkL3tuq hXe15y8yapJ+ePkG6TUNFJFvfKTDeyG34+i7f6RIAKA/7qHHdhv7AndYj0l6l5Q1/WtV8yaok2ua JqOnW8cajTdLdpbi1l61lk5bh6nqo6CneswWsjZJ/wDnI68v7H8n9a1DT7uaxvbOSzlgubaRopFY 3kKbOhDDZ+xwT5MsX1MS/NnX9J0D8u9S1Tyt+YFzc63a/VxZQrqkFyz87iOOT92Ks/7tmb8cEjsy gLO4b/NjVdAsPy21m90D8wbu51WOGM2scWrxO78pUVqLFxc1Qn7OMuSwBvcPYfKX1k+VtHN1cyXl w1lbtNdTcfUkdo1JZ+IUVJPhkg1Hm8f/ADbvPNly13oWswzRaRB5h0aTRNdty1s0kF9IUlt+alav ByZeS/s0LfF1jJthXNkul3/5o6jpfmDVtE1SwuLkak7aHoN2isY7OH4fq91KjK8UsyFZVVviQkcj 8RCndiaWflz9ZP5z/mck8slLcaKyW3qu8Mb3NkZJuKGi7sg+LjWmI5lZfSENZflp+YPmnzFJP+aG pWt95c06UNpeg6cGitbmRDVJ7uMjkwH++2dt/wDJ+00TzXiAGyr+Y/kvUNDvrnzn5U0uPVILmH0P N3lJgPQ1K0UU9RI6Mv1iJenwnkPE7MkLGV7Fk/5W+ZPy81vy4kvkkW1vZA87nT4UWGWCZ/tCeJdw 5p9rv2JGEEdGMwQd2Y4WLzTXNN87+Z7jzX5M1SI2dn6cd/5V81WoeIRv6nOKKQq1fWgkTcoRVOoF d47tgIFFLdbu9X8x/mv5Z8uaHqMtPJqfXfNmsQ0UM0qKqWbAVTlPwJdOwNRuuPVRtEnveu5Jrdir xDzH5Yu9f/P7VYtP1W50TVbbyzBLp+o2jUKS/W2AEsZ+CWJq/EjDf2O+QI3bQaj8Xof5aX3n268v vH54sYrTW7O4ktjPAymK7ijpwuVVT8HOp226VoK0EhfVhKr2ZZhYvEPzBW+/ODzBb+S9CJHkrSrl ZvM/mBCPTlmj6Wdq+6yMtfiIqA1K/Z+KB32bY+kWeb1bU/KGgan5XbyxeWwl0g26WqQsSzIkahY2 V25MHTiCr9QRXJU1gm7YF+RWu+dS3mLyd5sWe4u/Kt0tvaaxOjKbq2kL+kSzfbPGMMGrUqwr7iNs 8gHMdXq2Sa3mX5ReVY9LvvO8F3pCW6nzJdzWE0kSVe2njiljEbcd4xyqN9q07ZGIbJnl7kt1u0g8 /wD526XZxoJ9B/L5HutRmIrG+qXPEw24NCCYhGsjeBqDvjzKRtH3vX8k1LZYoponilRZInBV43AZ WB2IIOxGKvDvzF1e48/ar/hnQ9PuNS8h+W50m83T6fw5XUkHxLp9oCyLLwoGkVDXsPiChoHdtiK3 6vXPKnmLy3r+iW+oeXbmK50sqI4fRHER8BT02jopjK9OJApkgWsgjmq+Y9Hk1nR7jS1u5LGO7HpX M8FPW9Fj+8SNj9hnWq86Gldt6HCVBp892XkK61H8tvzZ8neU7JTL/iRYNNsQ4VRHBPaycecrU+FI z9psrrYt3FuCe5dqUl/rH5mflt9U8raCpEOqulpHdyNbymOD0pUu2awWSJ7eSIhR6cnx7VHXHqFG wO70X8p/JuvaN5v88avq+j2mkrq9zamwWykWaExRQnn6b8IH48mFeUa1au2SiGE5AgNf85Nf+SQ8 yf8ARl/1H2+M+S4vqDEPz980eXr38m9ShtNA1CxkufqX1eW40ua1jhpcxP8AFK0YRPgUps3U0wSO zLGDxJr+cfmby5e/lR5gjg0HUIWmtAYZZtJuIY0JdSrNI0YVKda12xkdkQB4nq3lX/lGNH/5grb/ AJNLkg1nm+e/z+8t+Wbnzx5Z0bTtPjtLf9JWs/mjUIAnNf0ndCKGOjc1aRlSaQKVOwrSmQkN27GT RT2Py55WHlfVdJ1t9N8iebdM1MjTvMVoYbR7qW3Fbe+ii5q7CVJWSSOpFeQ67KaRZvvDXlXz48f5 u+e7jy1ot75nOpPocVzJbqLZYlt7WWOaZmuPTRd6cEJHPehoK4g7qY+kW98ybS7FWLaf+WHkjTvO E3m/T9NFnrlwjpcTQSSRxyep9tnhVhEWbqTx3O/XfBQZGZqmU4WLG/NcnnG7I0jy3Gti9wn+k+Yb ji8dqjVB9CCvOafwDcUHUk/ZILIV1RHk/wAnaN5T0cabpiu3N2mvLydvUuLq4feSeeQ7vI56n6Bt iBSJStPMKHYqwm28l6rD+cV55yNwjaVdaImmi3pR1nS5En0rxB39/bBW7Pi9NM2wsFs0MM8LwzIs sMqlJI3AZWVhQqwOxBGKrLW1tbS3jtrSFLe2hUJFBEoREUdAqqAAPliqrirsVdirHvNv+MbqJdM8 tCKykuVIuNduCrraoTQ+jbglpZv5Q/FB1JP2cBZCuqt5O8n6N5S0OPSNLVzGGaW5uZm5z3E8hrJP O/7cjnqfoG2IFIlK07woSTzV5evdftY9PTVZtM02TkNRWzAS5nQjaJLgk+ip35lV5Hsy9wQkGkbo ehaPoWl2+laPaR2OnWq8ILaIUVR4+JJ6ljuTucKk2xryv+WWn+W/PHmHzNpt3JFbeYVia40dVCwL coxaSetd2evSgpVutRQAbpMrFMzwsXlH5c3TeXb78wbzVLS7SO68zXL2ccNrcTyzq0UZDRRwo7up /mAp75EdWyW9e5jp/Lr8yL/zzffmZ5ctbLy5erVdM8v6orSm7WRaTz3XouVtpZgF2Tf+Yg1JFG7Z cQqizXyB53/NDWNcl0nzT5J/QcNrGXuNWF36kDtsESBBG4kLHc0loB13oCQSwlEDkUb+aPl69802 +j+WIoXawvL+G71m6p+7jsrFhMycunqTSBERf9ZuinCRawNbpZ/zkRoOt69+VWpaXotpLfX9xNae nbQDk7BblCdvAUqfDrgkNk4zRUP+cgtT11fImo6Jpvl6+1c6zCLWO6sgsqwyu4oJYwfVAoNmCkV2 JGMuS4xu9D0G1ms9D060nHGe3tYYpVBBo6RhWFR7jJBgXmv5u+U5I9N0T9EWVxf3l/5u0+/1KeND LIFDP8cpUfDFDGqxqeiqBXucjIM4H7npVloWiWFxNc2On21rcXLtJcTQQxxvI7GrM7KAWJPUnJUw tgfkjTdYtvzp/Mq+ms5ItLv10b6reOjKkrwWXFhGx2bjzIanQ5EcyzkfSHpWSa3Yq7FXYq7FXYq7 FXYq7FXYq7FXYq7FXYq7FXYq7FXYq7FXYq7FXYq7FXYq7FXYq7FXYq7FXYq7FXYq8882W+oy+dLi 1sE1O6ku9Gdo4bXUZbS3inEwRJWHrxqnuY0Y/wCScpnfF15N0COHeufc6Lz15g02/tPLj6dLrWo6 ZBpsOvXkCTkvLdLxmmj4QtEFj4+ofUdOQNB0x4yNufJfDBF8ubI/LGrazf6jr0V9FCttY6g1tatF IzMEW3gcBlKL19QsTy6mnvk4kklhMAAJPqj3S/mdFAgv7m2m0WWSSztrt4oxILhIhIImnhjDcGI5 Lv3675E/X8GQ+j4pd5Q8z6lB5b8uabYRvqer6hptxqdxNqN5K1BbtGrq0z+u5ZpZ1QDooqe1DGEj QHVlOIsk8rRsX5mzXWm3OpWmnobZNN0nVLYSTMrtHqks0bK4EZCtEYDSlQ3iMl4u1+77UeFvXmfs Vr38yUsfNFzpF7ZfVba3SZ0mmZ0luEt7cztJbKY/RmX4WQqkvNSKlaV4pyUaQMVi0T5F86ap5k9R 7vR5bC1e2t7uzuys4icXAJaGs8MFXioKsnJWBqDhhMy6IyQEeq2ZZW/NWCL6zci3OjSzm1FxOLcy i4SIOYA/pcuDEV4+/XH+P4J/g+KV3/mqXyd5fhMMU+oRT3V+x1C/uLqaGJIrhlhWW54XToHUqIyw EdAasO8TPhCRDiKa3Xn4ReabDRoreOeC9mjgaaOUyPGZbV7lXkEaPEgPDiqtIGevJRxG8jk3pAx7 WlNp+ad9c+ZJtNj0uE2lo2ofpBvrLG6tY9ObiWmgERUevyR4vj4kHrXIjLvVMji2u038iedNU8yK 0t3pElhbS2tveWlzSf02FwCTCWnhg5SR7EtHyRgdjksczLowyQEeqS+ehrFt5vFzpkeoai/6EvJx pUGoT2tu00EkSxyFEkT4qSFfgFT88hkvi27meOuHfvV9Z833/lS6j8uabY3nmG8trQ6g3qG4nuHg kumjjhWSOKarqoYB5mFeI5EliQZTMdhuiMBLc7IuH8wr2581y6TZ6NPcWFtfDTry8RJ6xubdZzMx 9L0BGrSKjAy8/wBqlOp8TeqR4e12zXLWp2KuxV2KuxV2KuxV2KuxV2KuxV2KuxV2KuxV2KsbH+E/ 8dmnr/4p+q7/AO9np/Vf+obhy/4f/KyG3F5tnq4fJB65/gD/ABT/ALkPV/TXow/W/q/1z0vQ5t6H 176v/o/Dny4fWNutNsEuG9+aY8Vbckx0b/C/+Ita/RnP9K+qv6W/3o9H1vRi+xz/AHHP0vS5+lv0 5b4Y1ZpjK6F8kJf/AODv8XS+v9b/AMSfUH5eh+kOX1Lflw9D93Tl0478+nx0wHh4vNI4uHy+CTp/ yqn/AA7pno+v+i+N1+i/R/SXrejx/wBL4cP9I9ClOf8AuutO9Mj6KH7WXrs/sa8yf8qirB+lf7n9 GW3p/Vfrv1b9HeofqfP6p+54+py9DnvWvDGXB17ljx9O9Ew/8qz/AMTyV9X9Keu3P6z9f+pfW/qh 5/33+hev9W5cv26cq78sPotfXSN8i/4H9P8A51n1/S9Ffq/1j67w+rV+H6p9c+H0K9PQ+Dp7YcfD 0Y5OLqiPNX+Efr9l+lvW/Sfpy/U/qP1v636Hw+t/vD++9GvDny+CvGu9MM+HqsOKtku81f8AKuPq Omfpf1vq31Kf9HfUfr3L6jwi9ev1H4/R4eny57U+nIz4drTDi3pDXP8Ayqj9P2//AFcvrVp6H1X6 56P1z0h9W/uP9H9X0ONa/F6dOXw4DwWkcdMQ8l/UP+ViD6t9f+p/WtU+tUrx9b979Y/Snp/6H6Xq cvQ9P9qlcrh9Xz/BbZ3w/L8B6D5F/wADekf8Met6Hpj6v63130/q/Lb6n9b+H0OX++Pg6e2XY+Ho 0ZOLqiJf8J/45i5/Wf8AE/1Y+nT676f1Wo5fZ/0b0+VK1250/aph24vNd+HyQ3m//Af6Xtf05636 V+ryen9T+u+r9T5r6n1j6lv9X50r63wVwT4b3WHFW3JS/wCQd/4tk9Ln+mPVt/rPofXPqfr+mPq3 r+n/AKF63p8fT9T4qcadsHpvzT6uHyZnlrU7FXYq7FXYq7FXYq7FXYq7FXYq7FXYq7FXYq7FX//Z</xmpGImg:image></rdf:li></rdf:Alt></xmp:Thumbnails></rdf:Description><rdf:Description xmlns:xmpMM="http://ns.adobe.com/xap/1.0/mm/" xmlns:stRef="http://ns.adobe.com/xap/1.0/sType/ResourceRef#" xmlns:stEvt="http://ns.adobe.com/xap/1.0/sType/ResourceEvent#"><xmpMM:RenditionClass>proof:pdf</xmpMM:RenditionClass><xmpMM:OriginalDocumentID>uuid:65E6390686CF11DBA6E2D887CEACB407</xmpMM:OriginalDocumentID><xmpMM:DocumentID>xmp.did:0B1DE06E9B66E711BC30C8B554C325DD</xmpMM:DocumentID><xmpMM:InstanceID>xmp.iid:0B1DE06E9B66E711BC30C8B554C325DD</xmpMM:InstanceID><xmpMM:DerivedFrom rdf:parseType="Resource"><stRef:instanceID>uuid:c5b5eddb-66da-6741-a40d-cc810f9d042d</stRef:instanceID><stRef:documentID>xmp.did:FB05051EC465E111835FF2FC000FBA2B</stRef:documentID><stRef:originalDocumentID>uuid:65E6390686CF11DBA6E2D887CEACB407</stRef:originalDocumentID><stRef:renditionClass>proof:pdf</stRef:renditionClass></xmpMM:DerivedFrom><xmpMM:History><rdf:Seq><rdf:li rdf:parseType="Resource"><stEvt:action>saved</stEvt:action><stEvt:instanceID>xmp.iid:0B1DE06E9B66E711BC30C8B554C325DD</stEvt:instanceID><stEvt:when>2017-07-12T10:01:50+09:00</stEvt:when><stEvt:softwareAgent>Adobe Illustrator CS6 (Windows)</stEvt:softwareAgent><stEvt:changed>/</stEvt:changed></rdf:li></rdf:Seq></xmpMM:History></rdf:Description><rdf:Description xmlns:illustrator="http://ns.adobe.com/illustrator/1.0/"><illustrator:StartupProfile>Web</illustrator:StartupProfile></rdf:Description><rdf:Description xmlns:xmpTPg="http://ns.adobe.com/xap/1.0/t/pg/" xmlns:stDim="http://ns.adobe.com/xap/1.0/sType/Dimensions#" xmlns:xmpG="http://ns.adobe.com/xap/1.0/g/"><xmpTPg:NPages>1</xmpTPg:NPages><xmpTPg:HasVisibleTransparency>False</xmpTPg:HasVisibleTransparency><xmpTPg:HasVisibleOverprint>False</xmpTPg:HasVisibleOverprint><xmpTPg:MaxPageSize rdf:parseType="Resource"><stDim:w>260.208984</stDim:w><stDim:h>44.284180</stDim:h><stDim:unit>Pixels</stDim:unit></xmpTPg:MaxPageSize><xmpTPg:PlateNames><rdf:Seq><rdf:li>Cyan</rdf:li><rdf:li>Magenta</rdf:li><rdf:li>Yellow</rdf:li><rdf:li>Black</rdf:li></rdf:Seq></xmpTPg:PlateNames><xmpTPg:SwatchGroups><rdf:Seq><rdf:li rdf:parseType="Resource"><xmpG:groupName>初期設定のスウォッチグループ</xmpG:groupName><xmpG:groupType>0</xmpG:groupType><xmpG:Colorants><rdf:Seq><rdf:li rdf:parseType="Resource"><xmpG:swatchName>ホワイト</xmpG:swatchName><xmpG:mode>RGB</xmpG:mode><xmpG:type>PROCESS</xmpG:type><xmpG:red>255</xmpG:red><xmpG:green>255</xmpG:green><xmpG:blue>255</xmpG:blue></rdf:li><rdf:li rdf:parseType="Resource"><xmpG:swatchName>ブラック</xmpG:swatchName><xmpG:mode>RGB</xmpG:mode><xmpG:type>PROCESS</xmpG:type><xmpG:red>0</xmpG:red><xmpG:green>0</xmpG:green><xmpG:blue>0</xmpG:blue></rdf:li><rdf:li rdf:parseType="Resource"><xmpG:swatchName>RGB レッド</xmpG:swatchName><xmpG:mode>RGB</xmpG:mode><xmpG:type>PROCESS</xmpG:type><xmpG:red>255</xmpG:red><xmpG:green>0</xmpG:green><xmpG:blue>0</xmpG:blue></rdf:li><rdf:li rdf:parseType="Resource"><xmpG:swatchName>RGB イエロー</xmpG:swatchName><xmpG:mode>RGB</xmpG:mode><xmpG:type>PROCESS</xmpG:type><xmpG:red>255</xmpG:red><xmpG:green>255</xmpG:green><xmpG:blue>0</xmpG:blue></rdf:li><rdf:li rdf:parseType="Resource"><xmpG:swatchName>RGB グリーン</xmpG:swatchName><xmpG:mode>RGB</xmpG:mode><xmpG:type>PROCESS</xmpG:type><xmpG:red>0</xmpG:red><xmpG:green>255</xmpG:green><xmpG:blue>0</xmpG:blue></rdf:li><rdf:li rdf:parseType="Resource"><xmpG:swatchName>RGB シアン</xmpG:swatchName><xmpG:mode>RGB</xmpG:mode><xmpG:type>PROCESS</xmpG:type><xmpG:red>0</xmpG:red><xmpG:green>255</xmpG:green><xmpG:blue>255</xmpG:blue></rdf:li><rdf:li rdf:parseType="Resource"><xmpG:swatchName>RGB ブルー</xmpG:swatchName><xmpG:mode>RGB</xmpG:mode><xmpG:type>PROCESS</xmpG:type><xmpG:red>0</xmpG:red><xmpG:green>0</xmpG:green><xmpG:blue>255</xmpG:blue></rdf:li><rdf:li rdf:parseType="Resource"><xmpG:swatchName>RGB マゼンタ</xmpG:swatchName><xmpG:mode>RGB</xmpG:mode><xmpG:type>PROCESS</xmpG:type><xmpG:red>255</xmpG:red><xmpG:green>0</xmpG:green><xmpG:blue>255</xmpG:blue></rdf:li><rdf:li rdf:parseType="Resource"><xmpG:swatchName>R=193 G=39 B=45</xmpG:swatchName><xmpG:mode>RGB</xmpG:mode><xmpG:type>PROCESS</xmpG:type><xmpG:red>193</xmpG:red><xmpG:green>39</xmpG:green><xmpG:blue>45</xmpG:blue></rdf:li><rdf:li rdf:parseType="Resource"><xmpG:swatchName>R=237 G=28 B=36</xmpG:swatchName><xmpG:mode>RGB</xmpG:mode><xmpG:type>PROCESS</xmpG:type><xmpG:red>237</xmpG:red><xmpG:green>28</xmpG:green><xmpG:blue>36</xmpG:blue></rdf:li><rdf:li rdf:parseType="Resource"><xmpG:swatchName>R=241 G=90 B=36</xmpG:swatchName><xmpG:mode>RGB</xmpG:mode><xmpG:type>PROCESS</xmpG:type><xmpG:red>241</xmpG:red><xmpG:green>90</xmpG:green><xmpG:blue>36</xmpG:blue></rdf:li><rdf:li rdf:parseType="Resource"><xmpG:swatchName>R=247 G=147 B=30</xmpG:swatchName><xmpG:mode>RGB</xmpG:mode><xmpG:type>PROCESS</xmpG:type><xmpG:red>247</xmpG:red><xmpG:green>147</xmpG:green><xmpG:blue>30</xmpG:blue></rdf:li><rdf:li rdf:parseType="Resource"><xmpG:swatchName>R=251 G=176 B=59</xmpG:swatchName><xmpG:mode>RGB</xmpG:mode><xmpG:type>PROCESS</xmpG:type><xmpG:red>251</xmpG:red><xmpG:green>176</xmpG:green><xmpG:blue>59</xmpG:blue></rdf:li><rdf:li rdf:parseType="Resource"><xmpG:swatchName>R=252 G=238 B=33</xmpG:swatchName><xmpG:mode>RGB</xmpG:mode><xmpG:type>PROCESS</xmpG:type><xmpG:red>252</xmpG:red><xmpG:green>238</xmpG:green><xmpG:blue>33</xmpG:blue></rdf:li><rdf:li rdf:parseType="Resource"><xmpG:swatchName>R=217 G=224 B=33</xmpG:swatchName><xmpG:mode>RGB</xmpG:mode><xmpG:type>PROCESS</xmpG:type><xmpG:red>217</xmpG:red><xmpG:green>224</xmpG:green><xmpG:blue>33</xmpG:blue></rdf:li><rdf:li rdf:parseType="Resource"><xmpG:swatchName>R=140 G=198 B=63</xmpG:swatchName><xmpG:mode>RGB</xmpG:mode><xmpG:type>PROCESS</xmpG:type><xmpG:red>140</xmpG:red><xmpG:green>198</xmpG:green><xmpG:blue>63</xmpG:blue></rdf:li><rdf:li rdf:parseType="Resource"><xmpG:swatchName>R=57 G=181 B=74</xmpG:swatchName><xmpG:mode>RGB</xmpG:mode><xmpG:type>PROCESS</xmpG:type><xmpG:red>57</xmpG:red><xmpG:green>181</xmpG:green><xmpG:blue>74</xmpG:blue></rdf:li><rdf:li rdf:parseType="Resource"><xmpG:swatchName>R=0 G=146 B=69</xmpG:swatchName><xmpG:mode>RGB</xmpG:mode><xmpG:type>PROCESS</xmpG:type><xmpG:red>0</xmpG:red><xmpG:green>146</xmpG:green><xmpG:blue>69</xmpG:blue></rdf:li><rdf:li rdf:parseType="Resource"><xmpG:swatchName>R=0 G=104 B=55</xmpG:swatchName><xmpG:mode>RGB</xmpG:mode><xmpG:type>PROCESS</xmpG:type><xmpG:red>0</xmpG:red><xmpG:green>104</xmpG:green><xmpG:blue>55</xmpG:blue></rdf:li><rdf:li rdf:parseType="Resource"><xmpG:swatchName>R=34 G=181 B=115</xmpG:swatchName><xmpG:mode>RGB</xmpG:mode><xmpG:type>PROCESS</xmpG:type><xmpG:red>34</xmpG:red><xmpG:green>181</xmpG:green><xmpG:blue>115</xmpG:blue></rdf:li><rdf:li rdf:parseType="Resource"><xmpG:swatchName>R=0 G=169 B=157</xmpG:swatchName><xmpG:mode>RGB</xmpG:mode><xmpG:type>PROCESS</xmpG:type><xmpG:red>0</xmpG:red><xmpG:green>169</xmpG:green><xmpG:blue>157</xmpG:blue></rdf:li><rdf:li rdf:parseType="Resource"><xmpG:swatchName>R=41 G=171 B=226</xmpG:swatchName><xmpG:mode>RGB</xmpG:mode><xmpG:type>PROCESS</xmpG:type><xmpG:red>41</xmpG:red><xmpG:green>171</xmpG:green><xmpG:blue>226</xmpG:blue></rdf:li><rdf:li rdf:parseType="Resource"><xmpG:swatchName>R=0 G=113 B=188</xmpG:swatchName><xmpG:mode>RGB</xmpG:mode><xmpG:type>PROCESS</xmpG:type><xmpG:red>0</xmpG:red><xmpG:green>113</xmpG:green><xmpG:blue>188</xmpG:blue></rdf:li><rdf:li rdf:parseType="Resource"><xmpG:swatchName>R=46 G=49 B=146</xmpG:swatchName><xmpG:mode>RGB</xmpG:mode><xmpG:type>PROCESS</xmpG:type><xmpG:red>46</xmpG:red><xmpG:green>49</xmpG:green><xmpG:blue>146</xmpG:blue></rdf:li><rdf:li rdf:parseType="Resource"><xmpG:swatchName>R=27 G=20 B=100</xmpG:swatchName><xmpG:mode>RGB</xmpG:mode><xmpG:type>PROCESS</xmpG:type><xmpG:red>27</xmpG:red><xmpG:green>20</xmpG:green><xmpG:blue>100</xmpG:blue></rdf:li><rdf:li rdf:parseType="Resource"><xmpG:swatchName>R=102 G=45 B=145</xmpG:swatchName><xmpG:mode>RGB</xmpG:mode><xmpG:type>PROCESS</xmpG:type><xmpG:red>102</xmpG:red><xmpG:green>45</xmpG:green><xmpG:blue>145</xmpG:blue></rdf:li><rdf:li rdf:parseType="Resource"><xmpG:swatchName>R=147 G=39 B=143</xmpG:swatchName><xmpG:mode>RGB</xmpG:mode><xmpG:type>PROCESS</xmpG:type><xmpG:red>147</xmpG:red><xmpG:green>39</xmpG:green><xmpG:blue>143</xmpG:blue></rdf:li><rdf:li rdf:parseType="Resource"><xmpG:swatchName>R=158 G=0 B=93</xmpG:swatchName><xmpG:mode>RGB</xmpG:mode><xmpG:type>PROCESS</xmpG:type><xmpG:red>158</xmpG:red><xmpG:green>0</xmpG:green><xmpG:blue>93</xmpG:blue></rdf:li><rdf:li rdf:parseType="Resource"><xmpG:swatchName>R=212 G=20 B=90</xmpG:swatchName><xmpG:mode>RGB</xmpG:mode><xmpG:type>PROCESS</xmpG:type><xmpG:red>212</xmpG:red><xmpG:green>20</xmpG:green><xmpG:blue>90</xmpG:blue></rdf:li><rdf:li rdf:parseType="Resource"><xmpG:swatchName>R=237 G=30 B=121</xmpG:swatchName><xmpG:mode>RGB</xmpG:mode><xmpG:type>PROCESS</xmpG:type><xmpG:red>237</xmpG:red><xmpG:green>30</xmpG:green><xmpG:blue>121</xmpG:blue></rdf:li><rdf:li rdf:parseType="Resource"><xmpG:swatchName>R=199 G=178 B=153</xmpG:swatchName><xmpG:mode>RGB</xmpG:mode><xmpG:type>PROCESS</xmpG:type><xmpG:red>199</xmpG:red><xmpG:green>178</xmpG:green><xmpG:blue>153</xmpG:blue></rdf:li><rdf:li rdf:parseType="Resource"><xmpG:swatchName>R=153 G=134 B=117</xmpG:swatchName><xmpG:mode>RGB</xmpG:mode><xmpG:type>PROCESS</xmpG:type><xmpG:red>153</xmpG:red><xmpG:green>134</xmpG:green><xmpG:blue>117</xmpG:blue></rdf:li><rdf:li rdf:parseType="Resource"><xmpG:swatchName>R=115 G=99 B=87</xmpG:swatchName><xmpG:mode>RGB</xmpG:mode><xmpG:type>PROCESS</xmpG:type><xmpG:red>115</xmpG:red><xmpG:green>99</xmpG:green><xmpG:blue>87</xmpG:blue></rdf:li><rdf:li rdf:parseType="Resource"><xmpG:swatchName>R=83 G=71 B=65</xmpG:swatchName><xmpG:mode>RGB</xmpG:mode><xmpG:type>PROCESS</xmpG:type><xmpG:red>83</xmpG:red><xmpG:green>71</xmpG:green><xmpG:blue>65</xmpG:blue></rdf:li><rdf:li rdf:parseType="Resource"><xmpG:swatchName>R=198 G=156 B=109</xmpG:swatchName><xmpG:mode>RGB</xmpG:mode><xmpG:type>PROCESS</xmpG:type><xmpG:red>198</xmpG:red><xmpG:green>156</xmpG:green><xmpG:blue>109</xmpG:blue></rdf:li><rdf:li rdf:parseType="Resource"><xmpG:swatchName>R=166 G=124 B=82</xmpG:swatchName><xmpG:mode>RGB</xmpG:mode><xmpG:type>PROCESS</xmpG:type><xmpG:red>166</xmpG:red><xmpG:green>124</xmpG:green><xmpG:blue>82</xmpG:blue></rdf:li><rdf:li rdf:parseType="Resource"><xmpG:swatchName>R=140 G=98 B=57</xmpG:swatchName><xmpG:mode>RGB</xmpG:mode><xmpG:type>PROCESS</xmpG:type><xmpG:red>140</xmpG:red><xmpG:green>98</xmpG:green><xmpG:blue>57</xmpG:blue></rdf:li><rdf:li rdf:parseType="Resource"><xmpG:swatchName>R=117 G=76 B=36</xmpG:swatchName><xmpG:mode>RGB</xmpG:mode><xmpG:type>PROCESS</xmpG:type><xmpG:red>117</xmpG:red><xmpG:green>76</xmpG:green><xmpG:blue>36</xmpG:blue></rdf:li><rdf:li rdf:parseType="Resource"><xmpG:swatchName>R=96 G=56 B=19</xmpG:swatchName><xmpG:mode>RGB</xmpG:mode><xmpG:type>PROCESS</xmpG:type><xmpG:red>96</xmpG:red><xmpG:green>56</xmpG:green><xmpG:blue>19</xmpG:blue></rdf:li><rdf:li rdf:parseType="Resource"><xmpG:swatchName>R=66 G=33 B=11</xmpG:swatchName><xmpG:mode>RGB</xmpG:mode><xmpG:type>PROCESS</xmpG:type><xmpG:red>66</xmpG:red><xmpG:green>33</xmpG:green><xmpG:blue>11</xmpG:blue></rdf:li></rdf:Seq></xmpG:Colorants></rdf:li><rdf:li rdf:parseType="Resource"><xmpG:groupName>グレー</xmpG:groupName><xmpG:groupType>1</xmpG:groupType><xmpG:Colorants><rdf:Seq><rdf:li rdf:parseType="Resource"><xmpG:swatchName>R=0 G=0 B=0</xmpG:swatchName><xmpG:mode>RGB</xmpG:mode><xmpG:type>PROCESS</xmpG:type><xmpG:red>0</xmpG:red><xmpG:green>0</xmpG:green><xmpG:blue>0</xmpG:blue></rdf:li><rdf:li rdf:parseType="Resource"><xmpG:swatchName>R=26 G=26 B=26</xmpG:swatchName><xmpG:mode>RGB</xmpG:mode><xmpG:type>PROCESS</xmpG:type><xmpG:red>26</xmpG:red><xmpG:green>26</xmpG:green><xmpG:blue>26</xmpG:blue></rdf:li><rdf:li rdf:parseType="Resource"><xmpG:swatchName>R=51 G=51 B=51</xmpG:swatchName><xmpG:mode>RGB</xmpG:mode><xmpG:type>PROCESS</xmpG:type><xmpG:red>51</xmpG:red><xmpG:green>51</xmpG:green><xmpG:blue>51</xmpG:blue></rdf:li><rdf:li rdf:parseType="Resource"><xmpG:swatchName>R=77 G=77 B=77</xmpG:swatchName><xmpG:mode>RGB</xmpG:mode><xmpG:type>PROCESS</xmpG:type><xmpG:red>77</xmpG:red><xmpG:green>77</xmpG:green><xmpG:blue>77</xmpG:blue></rdf:li><rdf:li rdf:parseType="Resource"><xmpG:swatchName>R=102 G=102 B=102</xmpG:swatchName><xmpG:mode>RGB</xmpG:mode><xmpG:type>PROCESS</xmpG:type><xmpG:red>102</xmpG:red><xmpG:green>102</xmpG:green><xmpG:blue>102</xmpG:blue></rdf:li><rdf:li rdf:parseType="Resource"><xmpG:swatchName>R=128 G=128 B=128</xmpG:swatchName><xmpG:mode>RGB</xmpG:mode><xmpG:type>PROCESS</xmpG:type><xmpG:red>128</xmpG:red><xmpG:green>128</xmpG:green><xmpG:blue>128</xmpG:blue></rdf:li><rdf:li rdf:parseType="Resource"><xmpG:swatchName>R=153 G=153 B=153</xmpG:swatchName><xmpG:mode>RGB</xmpG:mode><xmpG:type>PROCESS</xmpG:type><xmpG:red>153</xmpG:red><xmpG:green>153</xmpG:green><xmpG:blue>153</xmpG:blue></rdf:li><rdf:li rdf:parseType="Resource"><xmpG:swatchName>R=179 G=179 B=179</xmpG:swatchName><xmpG:mode>RGB</xmpG:mode><xmpG:type>PROCESS</xmpG:type><xmpG:red>179</xmpG:red><xmpG:green>179</xmpG:green><xmpG:blue>179</xmpG:blue></rdf:li><rdf:li rdf:parseType="Resource"><xmpG:swatchName>R=204 G=204 B=204</xmpG:swatchName><xmpG:mode>RGB</xmpG:mode><xmpG:type>PROCESS</xmpG:type><xmpG:red>204</xmpG:red><xmpG:green>204</xmpG:green><xmpG:blue>204</xmpG:blue></rdf:li><rdf:li rdf:parseType="Resource"><xmpG:swatchName>R=230 G=230 B=230</xmpG:swatchName><xmpG:mode>RGB</xmpG:mode><xmpG:type>PROCESS</xmpG:type><xmpG:red>230</xmpG:red><xmpG:green>230</xmpG:green><xmpG:blue>230</xmpG:blue></rdf:li><rdf:li rdf:parseType="Resource"><xmpG:swatchName>R=242 G=242 B=242</xmpG:swatchName><xmpG:mode>RGB</xmpG:mode><xmpG:type>PROCESS</xmpG:type><xmpG:red>242</xmpG:red><xmpG:green>242</xmpG:green><xmpG:blue>242</xmpG:blue></rdf:li></rdf:Seq></xmpG:Colorants></rdf:li><rdf:li rdf:parseType="Resource"><xmpG:groupName>Web カラーグループ</xmpG:groupName><xmpG:groupType>1</xmpG:groupType><xmpG:Colorants><rdf:Seq><rdf:li rdf:parseType="Resource"><xmpG:swatchName>R=63 G=169 B=245</xmpG:swatchName><xmpG:mode>RGB</xmpG:mode><xmpG:type>PROCESS</xmpG:type><xmpG:red>63</xmpG:red><xmpG:green>169</xmpG:green><xmpG:blue>245</xmpG:blue></rdf:li><rdf:li rdf:parseType="Resource"><xmpG:swatchName>R=122 G=201 B=67</xmpG:swatchName><xmpG:mode>RGB</xmpG:mode><xmpG:type>PROCESS</xmpG:type><xmpG:red>122</xmpG:red><xmpG:green>201</xmpG:green><xmpG:blue>67</xmpG:blue></rdf:li><rdf:li rdf:parseType="Resource"><xmpG:swatchName>R=255 G=147 B=30</xmpG:swatchName><xmpG:mode>RGB</xmpG:mode><xmpG:type>PROCESS</xmpG:type><xmpG:red>255</xmpG:red><xmpG:green>147</xmpG:green><xmpG:blue>30</xmpG:blue></rdf:li><rdf:li rdf:parseType="Resource"><xmpG:swatchName>R=255 G=29 B=37</xmpG:swatchName><xmpG:mode>RGB</xmpG:mode><xmpG:type>PROCESS</xmpG:type><xmpG:red>255</xmpG:red><xmpG:green>29</xmpG:green><xmpG:blue>37</xmpG:blue></rdf:li><rdf:li rdf:parseType="Resource"><xmpG:swatchName>R=255 G=123 B=172</xmpG:swatchName><xmpG:mode>RGB</xmpG:mode><xmpG:type>PROCESS</xmpG:type><xmpG:red>255</xmpG:red><xmpG:green>123</xmpG:green><xmpG:blue>172</xmpG:blue></rdf:li><rdf:li rdf:parseType="Resource"><xmpG:swatchName>R=189 G=204 B=212</xmpG:swatchName><xmpG:mode>RGB</xmpG:mode><xmpG:type>PROCESS</xmpG:type><xmpG:red>189</xmpG:red><xmpG:green>204</xmpG:green><xmpG:blue>212</xmpG:blue></rdf:li></rdf:Seq></xmpG:Colorants></rdf:li></rdf:Seq></xmpTPg:SwatchGroups></rdf:Description><rdf:Description xmlns:pdf="http://ns.adobe.com/pdf/1.3/"><pdf:Producer>Adobe PDF library 10.01</pdf:Producer></rdf:Description></rdf:RDF></x:xmpmeta><?xpacket end="w"?></metadata><g><g fill="#210701"><path d="M11.753 8.528c.155.208 3.926 4.551 6.968 6.526.442.286 2.393 1.456 2.73 1.742.156.104.572.468.572.962 0 .598-.625.78-1.093.78-.754 0-2.729 0-9.178-7.8-.313-.365-1.587-1.977-1.872-2.288-.13-.13-.442-.389-.779-.389-.442 0-.468 0-4.134 3.406-.677.624-.729.676-1.171 1.326-.26.39-.728.806-1.3.806-.52 0-.857-.13-2.184-1.508C.208 11.96 0 11.752 0 11.284c0-.129.026-.312.182-.312.131 0 .677.104.807.104 1.196 0 2.521-.494 5.772-3.12C7.983 6.968 8.399 6.63 9.127 6.63c1.039.001 1.924 1.015 2.626 1.898zm7.67-1.69c0 1.405-1.144 2.548-2.47 2.548-1.196 0-2.522-.988-2.522-2.522 0-1.3 1.014-2.496 2.548-2.496 1.872 0 2.444 1.612 2.444 2.47zm-4.134.079c0 1.119.987 1.586 1.689 1.586 1.118 0 1.612-.988 1.612-1.586 0-1.014-.962-1.664-1.664-1.664-.597-.001-1.637.519-1.637 1.664zm21.891 7.306a.944.944 0 01-.884.987c-.572 0-.754-.597-.936-1.169-.234-.728-.807-1.742-1.509-2.626-.13-.182-.182-.259-.182-.338 0-.156.156-.233.338-.233.625-.001 3.173 1.299 3.173 3.379zm8.035-5.356c0-.026-.053-.157-.053-.234 0-.13.104-.182.183-.182.208 0 .987.545 1.17.649.416.208 1.456.832 1.456 1.586 0 .208-.104.233-.546.494-.208.13-1.118 1.898-1.326 2.236-3.979 6.605-10.375 9.179-10.583 9.179-.078 0-.155-.078-.155-.156 0-.129 1.222-.91 1.456-1.091 5.538-4.239 8.58-9.127 8.58-11.363-.001-.52-.052-.807-.182-1.118zm-4.057 2.522c0 .754-.416 1.326-.884 1.326-.572 0-.702-.65-.78-1.092-.182-.832-.26-1.066-.962-2.47-.052-.104-.286-.468-.286-.572 0-.078.13-.156.26-.129 1.223.181 2.652 1.481 2.652 2.937zm26.391-9.205c.936 0 2.808.832 2.808 1.664 0 .182-.26.936-.312 1.092-.13.65-.234 2.964-.234 3.614 0 .572.104.65.858.832 1.586.364 5.616 2.262 5.616 4.212 0 .858-.807.91-.937.91-.649 0-.728-.104-2.47-2.366-.729-.962-1.95-2.184-2.756-2.184-.26 0-.364 0-.364 1.924 0 2.756.026 4.134.13 6.474.026.286.052.936.052 1.327 0 .649 0 2.365-.754 2.365-.78 0-1.456-1.768-1.456-2.443 0-.104.104-.65.104-.754.182-2.159.233-2.835.233-6.033 0-7.436 0-8.268-.312-9.101-.208-.545-.468-.806-.884-1.195l-.051-.104c.027-.234.702-.234.729-.234zm27.508 5.435c-.156-.234-.183-.287-.183-.365 0-.129.104-.156.234-.156 1.378 0 3.302 1.535 3.302 2.21 0 .234-.13.312-.468.546-.39.233-.546.494-1.066 1.222-3.146 4.499-7.514 6.137-7.878 6.137a.2.2 0 01-.208-.182c0-.104.078-.183.728-.703 4.005-3.328 5.824-6.916 5.824-7.852 0-.364-.052-.494-.285-.857zm7.982-.182c.13 0 1.3.468 2.6 1.352 1.846 1.274 4.187 3.718 4.187 5.46 0 .39-.156 1.508-1.301 1.508-.936 0-1.378-.936-1.794-2.288-.546-1.742-.962-2.782-2.704-4.628-.182-.182-1.17-1.092-1.17-1.171-.027-.104.026-.233.182-.233zm25.011-.391c.599-.129.599-.39.599-1.065 0-1.248-.053-1.69-.261-2.055-.104-.182-.754-.91-.754-1.118 0-.234.624-.259.807-.259.416 0 .728.025 1.846.675.546.312.624.364.624.702 0 .13-.26.676-.313.781-.13.286-.155.988-.155 1.3 0 .441.104.831.754.831.598 0 2.522-.077 3.068-.259.182-.053 1.04-.521 1.248-.521.26 0 2.262 1.222 2.262 1.716 0 .261-.104.364-.26.494-.468.338-.521.391-.624.728-.78 2.21-2.86 8.06-8.398 11.752-1.482.988-2.86 1.508-3.042 1.508-.078 0-.156-.052-.156-.104 0-.051.026-.104.208-.208a24.357 24.357 0 002.6-2.053c5.617-4.967 6.683-11.051 6.683-11.363 0-.546-.442-.546-.806-.546-2.314 0-6.137.234-7.358.39-1.95.26-1.95.468-1.95.884 0 .078.104 1.014.13 1.144.234 2.028.364 2.86.364 3.952 0 .494 0 1.326-.598 1.326-.65 0-1.066-.857-1.171-1.638-.025-.129-.025-1.873-.025-2.081 0-1.56-.494-3.379-1.431-4.654-.104-.156-.312-.442-.312-.598 0-.208.468-.337.91-.337.546 0 .962.155 1.43.441.65.416.858.52 1.248.52.415.002 2.287-.181 2.833-.285zm33.047-.259c-.182 0-5.642 1.273-5.772 1.325-.182.052-.987.494-1.17.494-.39 0-1.611-.779-1.768-.937-.183-.182-.624-1.325-.624-1.507 0-.131.025-.208.155-.208.026 0 .599.155.677.182.806.234 1.118.26 1.378.26.884 0 5.772-.416 7.124-.962.234-.104 1.196-.806 1.431-.806.623 0 2.21 1.327 2.21 1.977 0 .233-.962.936-1.118 1.118-.521.624-2.574 3.667-2.99 4.265-.104.13-.208.312-.208.52 0 .234.052.286 1.144.884 1.17.676 5.824 3.302 5.824 5.669 0 .598-.468 1.144-1.065 1.144-.599 0-.702-.182-1.612-1.794-1.794-3.146-4.082-5.122-4.654-5.122-.26 0-.338.078-.91.728-.91.962-3.562 3.874-6.942 5.564-.702.338-1.403.598-1.611.598-.053 0-.183 0-.183-.155 0-.104 1.04-.858 1.196-.962 6.786-4.915 9.88-11.648 9.803-12.064-.056-.211-.264-.211-.315-.211zm21.059.13c.468.287.52.312.52.468 0 .129-.468.598-.52.728-.182.364-.182 3.302-.182 3.979 0 .962.025 6.656.104 8.425 0 .233.104 1.325.104 1.56 0 1.222-.857 1.69-1.325 1.69-.65 0-.65-.65-.65-.988 0-1.534.104-9.101.104-10.791 0-.52 0-.806-.053-2.054 0-.13-.025-.728-.312-.728-.156 0-.313.182-.702.598-.13.13-2.158 2.185-2.522 2.185-.104 0-.155-.052-.155-.156 0-.078.052-.156.182-.312.884-1.195 1.924-2.859 2.73-4.16 2.027-3.328 2.834-6.162 2.859-6.474.078-.783.078-.887.286-.887.364 0 2.626 1.274 2.626 1.69 0 .208-.13.26-.546.494-.312.157-2.912 3.979-2.834 4.42.026.13.182.26.286.313zM193.675 13c-.702 0-.729.157-.807 1.613-.052 1.04-.338 2.574-.598 3.691.13.442 3.952 2.211 7.853 2.211.779 0 .988 0 .988.13 0 .078-.313.286-.391.363-.728.755-1.04 1.093-1.273 1.56-.234.494-.261.546-.391.546-.286 0-2.574-.416-5.902-2.366-.26-.156-1.248-.91-1.508-.91-.182 0-.702.702-1.04 1.015-.988.936-2.574 2.08-6.006 2.625-.13.026-.546.079-.677.079-.104 0-.208-.079-.208-.13 0-.156.026-.183.832-.416 4.603-1.326 5.643-4.031 5.643-4.291 0-.156-.234-.39-.676-.857-1.534-1.535-2.028-3.354-2.028-3.641 0-.208.13-.26.208-.26.156 0 .234.157.39.494.729 1.664 2.341 2.991 2.522 2.991.286 0 .521-2.496.521-3.511 0-.391-.053-.936-.832-.936h-2.549c-.468 0-.52.13-.728.676-.13.364-.494.598-1.248.598-.183 0-.677 0-.677-.754 0-.468.078-2.496.078-2.912 0-.521-.078-2.834-.078-3.302 0-.311.053-.39.261-.39s1.04.468 1.222.546c.416.208.65.26 1.326.26h2.418c.754 0 .754-.519.754-.624 0-2.288 0-2.574-.806-2.574h-1.145c-.598 0-2.366 0-3.275.078-.104 0-.469.052-.546.052-.104 0-.156-.052-.234-.156l-.52-.598c-.077-.104-.104-.13-.104-.156 0-.052.026-.078.104-.078.183 0 .988.078 1.145.104 1.196.052 2.34.078 3.562.078h.963c.546 0 .728-.234.728-.675 0-.469-.052-1.04-.078-1.353-.025-.208-.182-1.17-.182-1.378 0-.312.156-.364.39-.364.286 0 2.34.286 2.34.858 0 .13-.363.52-.39.624-.104.338-.13.702-.13 1.664 0 .624.52.624.78.624h2.002c1.17 0 1.3 0 1.664-.442.728-.857.806-.962 1.065-.962.339 0 2.003 1.43 2.003 1.716 0 .364-.546.364-1.404.364h-5.33c-.156 0-.78 0-.78.676 0 2.444 0 2.522.754 2.522h2.626c.65 0 .78-.078 1.066-.442.26-.338.442-.416.598-.416.391 0 1.82.937 1.82 1.222 0 .157-.026.183-.39.468-.469.364-.469.546-.469 2.185 0 .441.053 2.521 0 2.834-.025.363-.52.936-1.144.936s-.676-.442-.729-.988c-.025-.208-.052-.52-.649-.52h-2.704zm-5.824-4.602c-.832 0-.832.208-.832 1.95 0 1.794 0 1.977.832 1.977h2.47c.832 0 .832-.183.832-1.951s0-1.976-.832-1.976h-2.47zm8.502 3.927c.546 0 .729-.261.729-.754 0-.313 0-2.549-.026-2.653-.026-.233-.13-.52-.702-.52h-2.678c-.364 0-.754.078-.754.728 0 .365 0 2.601.025 2.705.052.287.208.495.729.495h2.677zm15.73 2.469c-.754 0-.754.208-.858 1.145-.441 4.55-3.328 7.333-3.718 7.333-.104 0-.156-.078-.156-.13 0-.026.624-1.04.728-1.248 1.066-2.21 1.509-4.499 1.509-10.974 0-2.053-.052-6.318-.234-8.242-.026-.286-.208-1.768-.208-1.82 0-.156.026-.208.182-.208.286 0 1.015.312 1.301.442.91.467 1.222.598 2.054.598h12.715c.571 0 .728-.13.91-.313.441-.468.468-.52.649-.52.208 0 2.106 1.066 2.106 1.482 0 .233-.208.39-.416.494-.599.312-.676.338-.676 2.808 0 2.132.155 11.726.155 13.937 0 1.145 0 4.03-2.418 4.03-.233 0-.26-.052-.441-.572-.364-.936-1.95-1.481-2.185-1.534-.078-.025-.468-.104-.468-.26 0-.104.182-.156.312-.156.339 0 1.977.13 2.341.13 1.014 0 1.04-.285 1.04-3.588 0-.338 0-2.158-.053-2.366-.104-.469-.493-.469-.779-.469h-5.278c-.702 0-.832.261-.807 1.015.026 1.872.026 4.005.026 6.006 0 .495-.078.676-.26.858-.234.208-.702.469-1.223.469-.52 0-.546-.339-.546-.677 0-.962.156-5.746.156-6.839 0-.571-.182-.832-.806-.832h-4.654zm4.731-7.175c.78 0 .78 0 .78-2.627 0-2.522 0-2.6-.78-2.6h-4.731c-.78 0-.78.104-.78 2.262 0 2.965.026 2.965.806 2.965h4.705zm0 6.474c.234 0 .547-.026.677-.312.104-.208.104-2.705.104-3.042 0-2.314 0-2.419-.78-2.419h-4.731c-.286 0-.624.052-.729.468-.025.129-.025 3.796-.025 4.394 0 .416 0 .91.754.91h4.73zm3.355-11.701c-.338 0-.676.052-.78.468-.025.156-.025 3.146-.025 3.771 0 .546 0 .988.806.988h5.175c.806 0 .806-.287.806-1.769 0-3.458-.026-3.458-.858-3.458h-5.124zm0 5.928c-.806 0-.806.078-.806 2.47 0 .416 0 2.755.104 2.963.13.339.521.339.702.339h5.305c.779 0 .779-.182.779-1.898 0-3.822-.025-3.875-.832-3.875h-5.252zm23.556.989c-.156 0-.78.026-.78.442 0 .104.104.208.208.259 1.482.781 4.057 2.653 4.057 4.057 0 .364-.208 1.092-.937 1.092-.494 0-.598-.313-.91-1.3-.624-1.95-2.235-3.433-2.34-3.433-.13 0-.13.078-.13.573 0 .624.052 3.666.052 4.342.026.988.104 5.772.104 6.864 0 1.195-1.118 1.378-1.248 1.378-.313 0-.729-.233-.729-.806s.208-3.38.234-4.004c.025-.338.156-4.992.156-5.227 0-.155-.053-.285-.234-.285-.13 0-.182.077-.572.832-1.066 1.95-3.354 5.044-3.692 5.044-.052 0-.077-.026-.077-.077 0-.053.363-.703.441-.833 2.86-5.512 3.354-8.164 3.354-8.346a.564.564 0 00-.599-.572c-.468 0-1.897.078-2.34.104-.052 0-.312.026-.364.026-.104 0-.155-.052-.233-.155l-.494-.599c-.13-.13-.13-.13-.13-.182 0-.051.052-.051.104-.051.13 0 .78.077.937.077.494.026 2.859.104 3.198.104.624 0 .779-.234.779-.755 0-1.481-.052-4.134-.104-5.512-.026-.286-.183-1.612-.183-1.897 0-.131.053-.287.209-.287.052 0 2.573.495 2.573.962 0 .13-.052.157-.26.365-.208.155-.416.39-.572 1.065 0 .052-.233 5.096-.233 5.356 0 .703.494.703.91.703.285 0 .857 0 1.065-.182.156-.157.884-1.223 1.145-1.223.13 0 2.028 1.378 2.028 1.742 0 .338-.286.338-.988.338h-3.405zm-4.603-2.237c-.52 0-.598-.416-.832-1.56-.26-1.196-.857-2.159-1.248-2.809-.025-.052-.078-.13-.078-.208 0-.104.104-.155.183-.155.441 0 3.016 1.819 3.016 3.483-.001.964-.78 1.249-1.041 1.249zm4.992.442c-.025 0-.052 0-.052-.078s.494-1.118.598-1.326c.494-1.144 1.118-3.094 1.17-4.186 0-.079.026-.234.156-.234.208 0 2.08 1.274 2.08 1.56 0 .156-.156.259-.233.312-.156.078-.572.286-.807.521-.078.077-2.599 3.431-2.912 3.431zm5.408 8.711c-1.118.234-2.496.546-3.198.754-.104.026-.468.156-.571.156-.078 0-.13-.026-.208-.104l-.624-.495c-.13-.104-.13-.104-.13-.156 0-.052.052-.052.701-.13a73.018 73.018 0 004.03-.702l4.057-.858c.806-.182.806-.884.806-.937 0-4.784-.13-9.594-.26-11.284-.026-.286-.234-1.638-.234-1.924 0-.13.078-.234.208-.234.156 0 2.679.442 2.679.884 0 .156-.494.624-.572.729-.13.285-.234.701-.26.883 0 .104-.026 4.161-.026 4.888 0 1.171 0 5.045.026 5.928 0 .234.233.442.494.442.104 0 .493-.078.623-.313.156-.259.65-1.533.91-1.533.078 0 2.236 1.014 2.236 1.43 0 .39-.78.572-.91.598l-2.6.52c-.442.078-.702.391-.702.832 0 1.092.26 6.214.26 6.76 0 .911-.832 1.327-1.326 1.327-.441 0-.754-.338-.754-.858 0-.234.078-1.352.078-1.586.026-1.066.104-4.004.104-4.732 0-.624 0-1.274-.755-1.118l-4.082.833zm1.873-3.926c-.546 0-.624-.312-.806-.91-.13-.469-1.066-2.184-1.769-2.886-.13-.13-.26-.234-.26-.338 0-.079.104-.104.156-.104.416 0 3.536 1.326 3.536 3.172.001 1.039-.728 1.066-.857 1.066zm.234-6.527c-.494 0-.78-.572-.988-.962-.416-.806-.676-1.04-1.534-1.845-.13-.13-.155-.157-.155-.234 0-.078.052-.078.182-.078.078 0 3.224.494 3.224 2.132-.002.104-.002.987-.729.987z"/></g><g fill="#4A1F00"><path d="M5.708 33.575c.456 0 3.418 0 3.418 2.267 0 1.247-.959 2.339-3.106 2.339H4.869c-.324 0-.324.096-.324 1.007 0 2.195 0 2.207.132 2.41.192.276.492.336.804.336.264 0 .408 0 .408.192s-.168.192-.336.192H2.59c-.18 0-.348 0-.348-.192s.18-.192.3-.192c.408 0 .923 0 1.043-.623.036-.191.036-.204.036-3.395 0-.563 0-3.13-.036-3.334-.108-.575-.624-.611-.912-.611-.3 0-.432 0-.432-.191 0-.204.168-.204.348-.204h3.119zm.072 4.209c1.583 0 2.207-.875 2.207-1.895 0-1.319-.971-1.919-2.063-1.919h-.516c-.863 0-.863.527-.863 1.571 0 .168 0 1.87.012 1.979.024.18.156.264.312.264h.911zm6.289 1.392c-.156 0-.384 0-.384.384 0 1.463.996 2.471 1.991 2.471.552 0 1.08-.324 1.451-.672.072-.06.348-.468.456-.468.06 0 .12.061.12.155 0 .265-.839 1.5-2.422 1.5-1.679 0-2.626-1.331-2.626-3.07 0-1.991 1.235-3.046 2.542-3.046 1.859 0 2.387 1.967 2.387 2.471 0 .215-.12.275-.36.275h-3.155zm2.207-.397c.264 0 .396-.06.396-.348 0-.455-.432-1.679-1.439-1.679-1.116 0-1.463 1.499-1.463 1.763s.204.264.312.264h2.194zm3.098-1.738c-.132 0-.324 0-.324-.191 0-.156.06-.168.408-.217.192-.023 1.199-.264 1.199-1.799 0-.107 0-.275.156-.275.192 0 .192.18.192.252v1.547c0 .107.036.3.3.3h1.271c.12 0 .336.024.336.192 0 .071-.072.191-.324.191h-1.283c-.036 0-.216.012-.276.156-.048.131-.048 1.475-.048 1.715 0 .359 0 2.278.036 2.446.156.672.708.672.828.672.252 0 .54-.097.804-.3.072-.049.348-.324.432-.324.048 0 .072.049.072.096 0 .216-.743 1.044-1.751 1.044-1.259 0-1.259-.948-1.259-2.159 0-.035.024-2.639 0-3.046 0-.06-.012-.3-.3-.3h-.469zm15.177.611c.324 0 .324-.072.324-1.654 0-1.739 0-2.039-1.115-2.039-.096 0-.312 0-.312-.205 0-.179.216-.179.324-.179h3.058c.084 0 .312 0 .312.191 0 .204-.156.204-.528.204-.36 0-.648.204-.731.443-.096.252-.108.288-.108 4.629 0 .457 0 2.16.096 2.436.168.455.66.455.888.455.18 0 .384 0 .384.192s-.228.192-.312.192h-3.058c-.12 0-.324 0-.324-.18 0-.192.216-.192.348-.192.324 0 .66-.048.839-.24.24-.239.24-.251.24-2.446 0-1.115 0-1.211-.324-1.211h-3.226c-.072 0-.228.035-.276.144-.048.132-.048 1.319-.048 1.547 0 1.967 0 2.207 1.127 2.207.084 0 .3 0 .3.204 0 .168-.216.168-.324.168h-3.058c-.072 0-.312 0-.312-.192s.156-.192.528-.192c.168 0 .684-.071.78-.611.048-.287.048-3.202.048-4.737 0-.432 0-1.895-.084-2.159-.156-.455-.66-.455-.888-.455-.18 0-.384 0-.384-.204 0-.191.228-.191.312-.191h3.058c.12 0 .324 0 .324.179 0 .205-.204.205-.348.205-1.079 0-1.079.359-1.079 1.895 0 .216 0 1.535.048 1.643.06.156.252.156.276.156h3.225zm6.542-1.222c1.535 0 2.65 1.331 2.65 3.058 0 1.728-1.115 3.059-2.65 3.059s-2.651-1.343-2.651-3.059c0-1.704 1.091-3.058 2.651-3.058zm0 5.793c1.007 0 1.631-1.296 1.631-2.735 0-1.463-.636-2.734-1.631-2.734-.912 0-1.631 1.115-1.631 2.734-.001 1.414.611 2.735 1.631 2.735zm8.519.095c-.132 0-.228-.096-.228-.24-.012-.276-.012-.36-.108-.36-.072 0-.312.24-.372.276-.156.107-.743.552-1.463.552-.348 0-1.619-.12-1.703-1.858-.012-.253.012-1.477.012-1.752 0-.287 0-1.583-.06-1.738-.048-.133-.18-.156-.3-.156-.048 0-.3.023-.36.023-.084 0-.12-.06-.12-.107 0-.096.048-.107.48-.228.36-.108 1.067-.3 1.091-.3a.11.11 0 01.108.096c0 .012.012 3.118.012 3.466 0 .708 0 1.02.12 1.331.192.492.624.708 1.043.708.516 0 1.271-.433 1.487-.876.156-.3.168-2.135.168-2.555 0-1.188 0-1.559-.456-1.559-.06 0-.348.035-.408.035-.12 0-.144-.071-.144-.096 0-.131.084-.155.875-.348.204-.048.792-.203.84-.203s.096.048.108.096c.024.096 0 2.039 0 2.422 0 .313.024 1.848.024 2.195 0 .252 0 .779.6.779.144 0 .324 0 .324.204 0 .084-.06.192-.204.192h-1.366zm5.533-5.661c.096.036.144.06.228.06a.441.441 0 00.348-.168c.084-.084.12-.119.168-.119.072 0 .096.06.132.155.108.276.648 1.583.648 1.716 0 .059-.024.119-.108.119-.12 0-.144-.048-.432-.479-.144-.228-1.007-1.188-1.775-1.188-.444 0-1.031.312-1.031.972 0 .492.324.768 1.535 1.188 1.391.491 2.099.936 2.099 1.895 0 .804-.563 1.739-1.835 1.739-.324 0-.456-.036-.972-.192a.784.784 0 00-.228-.035c-.168 0-.288.047-.36.071-.228.097-.372.156-.432.156-.108 0-.144-.097-.204-.252-.108-.276-.576-1.476-.576-1.631 0-.072.024-.204.144-.204.144 0 .228.145.419.479.528.911 1.655 1.284 2.207 1.284.587 0 1.043-.505 1.043-1.092 0-.552-.348-.828-1.739-1.308-1.259-.444-1.895-.863-1.895-1.787 0-.911.672-1.606 1.583-1.606.409 0 .577.059 1.033.227zm4.668 2.519c-.156 0-.384 0-.384.384 0 1.463.996 2.471 1.991 2.471.552 0 1.08-.324 1.451-.672.072-.06.348-.468.456-.468.06 0 .12.061.12.155 0 .265-.839 1.5-2.422 1.5-1.679 0-2.626-1.331-2.626-3.07 0-1.991 1.235-3.046 2.542-3.046 1.859 0 2.387 1.967 2.387 2.471 0 .215-.12.275-.36.275h-3.155zm2.207-.397c.264 0 .396-.06.396-.348 0-.455-.432-1.679-1.439-1.679-1.116 0-1.463 1.499-1.463 1.763s.204.264.312.264h2.194zm15.537-5.204c.156 0 .336 0 .336.204 0 .191-.168.191-.372.191-.851 0-.911.684-.923 1.056-.012.6 0 3.573 0 4.245 0 .852-.036 1.774-.768 2.519-.6.6-1.379.756-2.027.756-.516 0-2.974-.168-3.046-2.651-.012-.671.012-3.934.012-4.664 0-.924-.06-1.26-1.116-1.26-.072 0-.264 0-.264-.191 0-.204.18-.204.36-.204h2.938c.144 0 .324 0 .324.204 0 .191-.156.191-.384.191-.264 0-.731.036-.875.539-.06.181-.06 2.459-.06 2.879 0 2.639 0 2.842.204 3.406.192.516.815 1.295 2.051 1.295.923 0 1.535-.42 1.871-.936.408-.6.408-1.104.408-3.886 0-2.65-.024-2.71-.168-2.938-.228-.348-.6-.359-.852-.359-.132 0-.24-.06-.24-.191 0-.204.18-.204.288-.204h2.303zm4.419 3.082c.096.036.144.06.228.06a.441.441 0 00.348-.168c.084-.084.12-.119.168-.119.072 0 .096.06.132.155.108.276.647 1.583.647 1.716 0 .059-.024.119-.108.119-.12 0-.144-.048-.432-.479-.144-.228-1.007-1.188-1.775-1.188-.444 0-1.031.312-1.031.972 0 .492.324.768 1.535 1.188 1.391.491 2.099.936 2.099 1.895 0 .804-.563 1.739-1.835 1.739-.324 0-.456-.036-.972-.192a.784.784 0 00-.228-.035c-.168 0-.288.047-.36.071-.228.097-.372.156-.432.156-.108 0-.144-.097-.204-.252-.108-.276-.576-1.476-.576-1.631 0-.072.024-.204.144-.204.144 0 .228.145.419.479.528.911 1.655 1.284 2.207 1.284.588 0 1.043-.505 1.043-1.092 0-.552-.348-.828-1.739-1.308-1.259-.444-1.895-.863-1.895-1.787 0-.911.672-1.606 1.583-1.606.411 0 .579.059 1.034.227zm7.619 1.404c.012.407-.012 2.362-.012 2.807 0 .563 0 1.066.479 1.066.12 0 .312-.071.384-.132a.493.493 0 01.096-.071c.024 0 .06.012.06.071 0 .216-.492.744-1.008.744-.384 0-.695-.288-.792-.54-.024-.084-.06-.191-.168-.191-.072 0-.18.084-.288.168-.468.359-1.056.563-1.583.563-.72 0-1.523-.384-1.523-1.271 0-1.427 2.015-2.039 2.71-2.243.72-.215.792-.239.792-.863 0-1.031-.576-1.415-1.127-1.415-.792 0-.924.563-.959.731-.084.36-.168.792-.636.792a.569.569 0 01-.564-.588c0-.708 1.164-1.259 2.171-1.259.949 0 1.944.431 1.968 1.631zm-.936 3.213c.06-.144.084-.192.084-1.606 0-.24 0-.444-.251-.444-.432 0-2.231.804-2.231 1.931 0 .324.204.876 1.031.876.408-.001 1.2-.361 1.367-.757zm6.972-4.617c.084.036.468.288.563.288.06 0 .228-.132.384-.252a1.14 1.14 0 01.72-.264.69.69 0 01.696.659c0 .264-.204.563-.492.563-.312 0-.444-.228-.564-.42-.06-.107-.12-.119-.168-.119-.096 0-.251.035-.251.191 0 .061.167.348.204.42.108.228.18.492.18.791 0 1.14-1.08 2.088-2.303 2.088-.108 0-.672-.097-.804-.097-.288 0-.564.336-.564.479 0 .145.108.217.192.252.156.061.228.084 1.332.12.779.024 2.758.071 2.758 1.427 0 1.499-2.758 1.499-3.106 1.499-.912 0-2.615-.107-2.615-1.078 0-.624.66-.9 1.043-1.009.072-.023.228-.071.228-.131 0-.061-.312-.156-.372-.192-.192-.12-.312-.264-.312-.503 0-.42.312-.66.731-.864.144-.072.276-.132.276-.18s-.18-.192-.252-.24c-.192-.144-.804-.695-.804-1.571 0-1.163 1.104-2.086 2.279-2.086.517.002.889.17 1.021.229zm-1.044 7.304c.755 0 1.919-.203 1.919-1.008 0-.575-.444-.827-2.411-.827-.348 0-.552 0-.864.192a.87.87 0 00-.419.743c.001.864 1.463.9 1.775.9zm.024-3.682c1.271 0 1.271-1.584 1.271-1.799 0-.744-.288-1.728-1.271-1.728-.72 0-1.259.575-1.259 1.763 0 .901.348 1.764 1.259 1.764zm5.905-1.103c-.156 0-.384 0-.384.384 0 1.463.996 2.471 1.991 2.471.552 0 1.08-.324 1.451-.672.072-.06.348-.468.456-.468.06 0 .12.061.12.155 0 .265-.839 1.5-2.422 1.5-1.679 0-2.626-1.331-2.626-3.07 0-1.991 1.235-3.046 2.542-3.046 1.859 0 2.387 1.967 2.387 2.471 0 .215-.12.275-.36.275h-3.155zm2.207-.397c.264 0 .396-.06.396-.348 0-.455-.432-1.679-1.439-1.679-1.116 0-1.463 1.499-1.463 1.763s.204.264.312.264h2.194zm11.496-1.186c.827 0 1.175-.3 1.175-1.151 0-.204 0-.359.192-.359s.192.18.192.228v3.118c0 .084 0 .264-.192.264s-.192-.18-.192-.3c0-.624 0-1.415-1.175-1.415h-1.427c-.036 0-.216.012-.276.168-.048.096-.048 1.955-.048 2.219 0 1.139 0 1.57.984 1.57.335 0 .456 0 .456.192s-.168.192-.324.192h-3.083c-.192 0-.372 0-.372-.192s.192-.192.312-.192c.432 0 .948 0 1.067-.623.036-.191.036-.204.036-3.395 0-.563 0-3.118-.036-3.334-.108-.6-.671-.611-.923-.611-.336 0-.456 0-.456-.191 0-.204.168-.204.372-.204h5.769c.671 0 .792.036 1.02.684.06.167.456 1.295.456 1.367 0 .155-.132.216-.216.216s-.084 0-.372-.432c-.576-.876-1.415-1.439-2.482-1.439h-1.331c-.876 0-.876.539-.876 1.535 0 .156 0 1.715.012 1.822.024.181.156.265.312.265h1.426zm6.313 1.583c-.156 0-.384 0-.384.384 0 1.463.996 2.471 1.991 2.471.552 0 1.08-.324 1.451-.672.072-.06.348-.468.456-.468.06 0 .12.061.12.155 0 .265-.839 1.5-2.422 1.5-1.679 0-2.626-1.331-2.626-3.07 0-1.991 1.235-3.046 2.542-3.046 1.859 0 2.387 1.967 2.387 2.471 0 .215-.12.275-.36.275h-3.155zm2.207-.397c.264 0 .396-.06.396-.348 0-.455-.432-1.679-1.439-1.679-1.116 0-1.463 1.499-1.463 1.763s.204.264.312.264h2.194zm4.393.397c-.156 0-.384 0-.384.384 0 1.463.996 2.471 1.991 2.471.552 0 1.08-.324 1.451-.672.072-.06.348-.468.456-.468.06 0 .12.061.12.155 0 .265-.839 1.5-2.422 1.5-1.679 0-2.626-1.331-2.626-3.07 0-1.991 1.235-3.046 2.542-3.046 1.859 0 2.387 1.967 2.387 2.471 0 .215-.12.275-.36.275h-3.155zm2.207-.397c.264 0 .396-.06.396-.348 0-.455-.432-1.679-1.439-1.679-1.116 0-1.463 1.499-1.463 1.763s.204.264.312.264h2.194z"/></g></g></svg>