<svg version="1.1" baseProfile="tiny" id="レイヤー_1" xmlns="http://www.w3.org/2000/svg" x="0" y="0" width="229.789" height="44.259" viewBox="0 0 229.789 44.259" xml:space="preserve"><metadata><?xpacket begin="﻿" id="W5M0MpCehiHzreSzNTczkc9d"?><x:xmpmeta xmlns:x="adobe:ns:meta/" x:xmptk="Adobe XMP Core 5.3-c011 66.145661, 2012/02/06-14:56:27"><rdf:RDF xmlns:rdf="http://www.w3.org/1999/02/22-rdf-syntax-ns#"><rdf:Description xmlns:dc="http://purl.org/dc/elements/1.1/"><dc:format>image/svg+xml</dc:format><dc:title><rdf:Alt><rdf:li xml:lang="x-default">Web</rdf:li></rdf:Alt></dc:title></rdf:Description><rdf:Description xmlns:xmp="http://ns.adobe.com/xap/1.0/" xmlns:xmpGImg="http://ns.adobe.com/xap/1.0/g/img/"><xmp:CreatorTool>Adobe Illustrator CS6 (Windows)</xmp:CreatorTool><xmp:CreateDate>2017-07-12T10:02:30+09:00</xmp:CreateDate><xmp:ModifyDate>2017-07-12T10:02:30+09:00</xmp:ModifyDate><xmp:MetadataDate>2017-07-12T10:02:30+09:00</xmp:MetadataDate><xmp:Thumbnails><rdf:Alt><rdf:li rdf:parseType="Resource"><xmpGImg:width>256</xmpGImg:width><xmpGImg:height>52</xmpGImg:height><xmpGImg:format>JPEG</xmpGImg:format><xmpGImg:image>/9j/4AAQSkZJRgABAgEASABIAAD/7QAsUGhvdG9zaG9wIDMuMAA4QklNA+0AAAAAABAASAAAAAEA AQBIAAAAAQAB/+4ADkFkb2JlAGTAAAAAAf/bAIQABgQEBAUEBgUFBgkGBQYJCwgGBggLDAoKCwoK DBAMDAwMDAwQDA4PEA8ODBMTFBQTExwbGxscHx8fHx8fHx8fHwEHBwcNDA0YEBAYGhURFRofHx8f Hx8fHx8fHx8fHx8fHx8fHx8fHx8fHx8fHx8fHx8fHx8fHx8fHx8fHx8fHx8f/8AAEQgANAEAAwER AAIRAQMRAf/EAaIAAAAHAQEBAQEAAAAAAAAAAAQFAwIGAQAHCAkKCwEAAgIDAQEBAQEAAAAAAAAA AQACAwQFBgcICQoLEAACAQMDAgQCBgcDBAIGAnMBAgMRBAAFIRIxQVEGE2EicYEUMpGhBxWxQiPB UtHhMxZi8CRygvElQzRTkqKyY3PCNUQnk6OzNhdUZHTD0uIIJoMJChgZhJRFRqS0VtNVKBry4/PE 1OT0ZXWFlaW1xdXl9WZ2hpamtsbW5vY3R1dnd4eXp7fH1+f3OEhYaHiImKi4yNjo+Ck5SVlpeYmZ qbnJ2en5KjpKWmp6ipqqusra6voRAAICAQIDBQUEBQYECAMDbQEAAhEDBCESMUEFURNhIgZxgZEy obHwFMHR4SNCFVJicvEzJDRDghaSUyWiY7LCB3PSNeJEgxdUkwgJChgZJjZFGidkdFU38qOzwygp 0+PzhJSktMTU5PRldYWVpbXF1eX1RlZmdoaWprbG1ub2R1dnd4eXp7fH1+f3OEhYaHiImKi4yNjo +DlJWWl5iZmpucnZ6fkqOkpaanqKmqq6ytrq+v/aAAwDAQACEQMRAD8A9U4qhrLVNMvzMtjdwXTW zmK4EEiSGOQdUfiTxb2OK0xTy3+aGn67qdlarpd9ZWWsJLLoOqXCxCC9SAcnKBJHljqnxoJUXku+ AFmYUzTCwdirsVdirsVdirzPzP5x846N+dPlfy7bSQ3Pl/zLBP6lrLGBJA9pG8krxSqQxqoU0cEd ae0Sd2wRBiS9MyTW7FXYq0rqxIUglTRqGtD1ocVbxV2KrZJI442kkYJGgLO7EAAAVJJPQDFWKebv OlpF5A1fzD5b1fTppLS1mns7xpEuLV5IVL+mTHIoJcLxFG2J79MBOzIR3opP5F/OTy1qnkTSdd8y 6zpOl6leRcrq1W6jUK/qNGKJI3qCvHdTWm4qaVwCWyZQN0HoiOkiK6MHRwGVlNQQdwQRkmDeKsUv fzX/AC0sZrm3vfM2nW1zaTPb3NtLcRpMksRKupiJ57FT2wcQZcB7kgH/ADkV+U0mvWGjW+rm4lv5 PRS8jhkFqkhICq8rhB8RIFVqB+0Rg4gy8OVPSsk1rJ5ooIZJ5nEcMSl5JGNAqqKkk+AGKvDvytl8 z6tc69+Yel3ln6vmvUXWxsNSuJ441021Jt4ZBFFWszelx+JfsrsRU1gO9unQ27mHaTqXnY+WvzkZ rnRgsk+opfRGecsCYZPW+qCtOJRz6ZI3frg33ZECwy/8tPMXm2x0H8vxf+ZtDsdLvrdYBpU3qSXV 4ZBzUmZzVJlX/Y8mp8VVGEFjICzs92ybS8j/ADlvfMsXn/8ALmw0bW7rRoNVu7y1vzasp5oBA6kw yrJAxUBgC6GlcjLmGyFUWaHyf5hII/xxre//ABTov/eOw0x4h3MT/wCcb9U17U/y+mu9a1S41W5O pXccc1yQzoiOBx5U5Ecqtudq0GwwQ5MsoFpFNrf5zfmPrlx5XOjT+Q/Ltoxj17VOZluZ12rDZzlI k/efzoD8O/L9lhuU1GO/NMPMf5ZS+QltPNn5YWPp3elRCLWNAV24apZLu3Ikkm4j3ZH6n36FIrko lexTX8pbP8tNbtrfzR5VnuZlt0kht9MubmWVNLaejTQRWzsywE0pttx+yeOGNInY2L0zJNaQ+evM t75Z8sXmvWumPqw08Ca6tIpPTk+rg/vpEqrhjGlX4mlQOuAlMRZpjul3/mbWvN/l3zV5cu2ufIWu aa7apaXDAehKi87eWJDVlkdn9N1U8fhJO9MDI0BR5pb5G83eZvMX5t+blsLgXHkTSxFZh5ByH6Rj RRILVhT4QQ3qCpHQj7WIO6ZACI73qWSa3Yq8b/NLS9S1H86vy9h0zUTpV/Ha6tLb3qxJNxZYBs0b /CytWjDwrQg7iB5tsD6Sn/5dfmVrmreZdU8lebNLGneatHi+sPNbhzZ3dtzCC4hLVKhi6/CSfvDA EHoxlGhY5PRckwQWt61peh6Tdavqtwtrp9lGZbmd+iqP1k9ABuTsMUgW8V/JDRfMnmTz5r/5r3hn 0fRdbYx6XpA+AXUKqI45506UVEBVhuzVNeP2oR5225CAOFlX502XmDRtIl8/eU7lrbW9DQS39oSz Wt9YxmskdxFUKxjUllcfEBUA7ihl3sYUdiyj8ufPOn+ePJ9h5jskMS3SlZ7djVopozxkjJ70YbHu KHCDbGUaNMlIBBBFQdiDhYvn/wDJ78rfy5vdd8+WmoaDa3z6Vr9xBZtcoZBHasAY4lViUolG3419 +lIRAbpzOzf5+eSPJEWjaL5O8s+XNLtPNHme+itrGe2tIYpoYISHnnMkaB+KjiG33BPhjIBccjzL 3Dy/odhoOh2OjaenCy0+BLeBSanjGvEEnxPU5MNRNo/FDFda8kflpDe3nmzWdF0361FEZb3U7qCN uKRAkyOXBXkFH2qcqbVwUGQkeTyv8sZtF/MH80rnzrqvC1i06L6t5G0GdPSY2iV5X8cbhQ/xFqFK 8WrX7KnIjc22S9Ip79k2lJfN3l6TzFo7aM1ybfT7x1TVeFRJLabmWBHBHD1dkZuvAtShoQCEg0+Y NA8o+XNQ/LD8npbjT7ZrnUPMbW9/OYlMk9v9duOcMrbM6MsYWhO2VgbByCTZ9yJPmrQrXyteaxN5 f8gm6g1iTTINLn06KO6MIn9MTSBG2CDc0SnEV642ijfVl/lRfLtz+ctv5Xj0XyZqemDSjqMl7pGm wK0MySsgRZA0/wAf2Sd/skdD1kObE3w3u99ubiK2tpbiUkRQo0khALHigqaAVJ2HbJtLyPzPq35F fmDceX9f1DzNGYtCeaa0SO4ez5GYIW9aojnTiYlOxU5A0W0CUdqWN5j/ACBfR7TVP0zdHTdQuHsI blb/AFchbhV5GOQCXlGSpqOYFRvjYWpIryl5s/Jn8tNDsfLlprrxWd1dSfV3vVkLc5jybm/pRKsa 7LyPTap74QQEESlu9ZyTW7FXkXnH8jb8+af8Y/l3rP8AhfzDM/LUYeJazuqkFmkjWoqerAqVY70B 3yJj3Nkcm1F61AJlgjE7K84UCV0UorPT4iqksQCe1TkmtcyqylWAZWFCDuCDirzHzTresayW8hfl qkdosK/VdY8wRIFstKhA4tBb8OKvdcdgifY706rE9wbAK3LNPJnk/RfKHlyz0DR4vTs7RaF23klk bd5ZG7u7bn7htQYQKYSlZtO8KHYq8m86w6m3/OQ35dSJDJ9Qjs9V5zqPg5G2cMrEeB9Pr4jInmGy P0l6xwXlzoOZFC1N6DtXJNbeKsZ8z+QNG80ajaT69JPfabZUeHQ2YLYtOCSJpo1AaZh0VXYoP5dz gItkJVyZKiJGioihEQBVVRQADYAAYWK24t4LmCS3uI1mgmRo5onAZXRhRlYHYgg0IxVL/LvlrQvL elR6VodlHYafEzOlvFWgZzyY1JJJJPc4gJJJTPFDHtf1nyv5PtbvVriJYrrUZQfQto+d3fXQjEcc cUa/HLIVQKB2G5oKnAdmQBLGvIXk3XLvzJd/mD5ziWLzDeR/VtI0oMJE0uw6iIMNjNJWsjD3A6kY AOqZS2oPRskwadwiM5BIUEkKCSaeAG5xV5pq3lDzH+Ymoxf4pjfR/JNpIssPlwSKbrUHQhkkv3iL JHEO0KsT3YggUjVtgkI8uadfmT+XNj5s8qDTbQjTtU04Cby9fwVhezuIlpH6bJQqhoFYDt03AoSL YxlRVPyqu/PFz5HsH87231XzCnOK5B4cpFjcqkrhKqrOoqafPvTGN1us6vZk2ozm30+6uFYIYYpJ AxpQFVJqa4WIfOP5O2Taxov5PadGvNNK/TmtX3iiRXcsFuf9nNL+ByuPRvntbENQh15fyZ1O9t4t Jk0qbzW4HOBnupT9ZqpeXl6fEuoWnHdO/bB0ZCuL4PVNEsdatP8AnJiBdX/R4uH8rs0Y0yKSCP0/ rVP3iyM558gwrX7NMl1az9Hxez6r/wAcu8/4wSf8QOTag8S/5x3/ADF8h6b+Tul6fqerWtndWTXi 3sE7BW+O5kmBoftAxSL+rIRIpuyRPE8y8uX+j2H5U/lZPcOkEUfnNbnUJnFEVYZ/jeQnb4Yiv0ZE cgzPM+56N+ennLybreo/l/aaff22qTJ5ks5ZbaNudYAwVwxA2UllGSkWGOJF+579k2l2KuxV2KrZ Yo5onikXlHIpV1PdWFCMVUrGxsbC0js7G3itLSEcYbeBFjjQdaKigKB8sVV8VdirsVaKIzKxUFkr xYjcV2NMVbxV2KuxV2KuxV2KuxVRaxsmvEvWt42vI0McdyUUyqjGpUPTkFJ7VxVWxV2KuxV2KuxV 2Kqd1bQXVtNazrzgnRopUqRyRxxYVFDuDiqS+UPI/lrylpdvpuiWgght4vq6Suecxi9aSfg0jfEQ JbiRgO3I4AKSZEoay/LPyRaeXl8uppaSaOt0b8WszPKPrHq+qHq7E7N2rSm2NBPEbtW0v8v/AChp fmrUfNdjpyQ69qq8L27Bb4l+EtxSvBeZQFiBVjucaUyNUn80MU0LwzIJIpVKSRsKqysKEEHqCMLF LfLXlfQPLOjQ6NoVmllpkBYx26FmFZGLMSzlmYknucACSSUFc/l75KuYNMt5NGtlt9HvP0jpkMSe kkN1yLmRVj4g1ZixBqCdyNhjSeIppqWi6RqbWr6jZQ3jWMy3Vm08ayGKdPsyx8geLLXYjCgFLNV8 4pp+v2+hDSr68vLqCS6t2txb+m8cJUS0aWaLdDItQd99q5Azo1TIQsXaYaBr+m69pkepac7PbyM8 ZDq0bpJE5jkjdGAKsjqQRhjIEWESiQaKMe5gSeKB3AmmDGJD1YJTlT5VGStjSD8w61Doei3mr3EE txbWETT3CW4QyCKMcnYB2QHioLEVr4VwSlQtlGNmkq/xzALnQ7dtKv1fzApayNLYhQqmRvVpOeNI hz77Gn2qqI8fLbmy8PnvyZLk2t2KuxV2KpDrnm2PSdX0/Sv0be3t1qgk+qG2EHploVLyIzzSwhSE HLfbw3yEp0aZxhYu0Zouuw6oLlPq1xZXVnL6NzaXSBJFYqGVgUZ43RlNQyMR26g4YytEo0mWSYob UL1rOBZVtprotJHF6duoZx6rhOZDFfgTlyY9gDgJpIFonCh2KuxV2KqN5eW1nbSXN1IIoIhWSRug HTATSQLVsKHYq7FXYq7FXYq7FXYq7FXYq7FXYq7FXYqwHzVW8/Mvy5aQ3F7ZmCx1FLi7tYCUDXLW pijM0kMsQ5iF+hqKdRtlM95BuhtA/BKfNuh/oDUPLOnWRa18qRrfteyzQ3N/E19OVeOS7EUsUhZ+ cpV2agb/AGNIzjRA6MoSsE9VSSztrPX/ACLe6pJeahGmm31m2pTW9ws0sxa1Nt6sSB3R3VZDRxU7 13w1Rja3YlXezHz9MsXknXapJI0ljcQxRwxvK7SSxMiKqRhmNWYDplmT6S1Y/qDCLIJba5+X0pud Ru19KYTJNBK0cBe1MChuMK+nWX4fjP4b5UOcW08pclPSF1dtS0hGF3/i0a7eHX2Pq8P0aTPTmxpH 9X9H0PQp0anHfliLsd9pNUe6tlLyxqs8GoeUNMnt9SN5p+o6paapI8V40USv9YEHqycWicSFoyrc jQUPTBE7ge9ZDYnbolejDzPaxa5b6Ibm+v7jRr+WzvuN1Ddx3HqBo472GcyQG55syxSRP8QU7FeJ EY3vXcylW197NPywjHOWeC+kngks7ZJrP6ldWkUU8fIFma6lmLXDBqShT+yC29CbcTVlWfmNdQp5 u8oo7X8McUt3JcXdhBLJ6KS2zRIXdY5VUM/w+PfpvjkO4XGPSUu1GS4PlPSNOtxfy+X9K1Kzt9a1 F4p4Jbu0RZPWfgFWYxLMYvUcCjDl+yDkTyA6MhzJ6kINLiB/LOoX2mSXkum6V5ss5lP+lPJHZwS2 n1j921ZWiRC/w8T8PbB02/nJrffrFZNqxSw124jg1Uonm3Tb2zT0L1Xa0rZtMyo6hniZYZzx+z38 Mb58/qC1uOX0n9KG8y8W1nztb6c963mldS0//Doja6dUlktLWUhaExInJnMoNBw67UwS5mufRMeU b5Vuv83WcTal5wuUOppdx32lnTJYDqFEJ9L6y8CxVXaj8ig26eGGY3PPp3rA7Dl17kXrn6Ut9A84 6Z5ea/8ARgvrGSIFbydxZyLbm9+rs5EklaSl1R6n4qUJxldEBEasEtarFGfLTNFfXl7Yz67pkiLp 9rfWUMEIlh+trAqvLMY/RR3YhuIcnj8W2J5fEKOfwLWt2tvc+SPN+nNa3ktlpWtQS2MLrcswtle2 eRoC4LMit6/2agUJ6UxkPSR5rE+oHvD1XS5rOfT4ZbIMLVl/c80kjbjWleMoV6HtUbjfpmQOTjnm isKHYq7FXYq7FXYq7FXYq7FXYq7FXYq7FXYq7FXYq7FXYq7FXYq7FXYq7FXYqxvyd/gv1NW/wzw5 /Wm/S/p+r/vXU8/U9T/dn83fx7ZCHDvTOfFtbJMmwY75e/wZ/iDXP0L6f6a9RP07w9Tn6m/p+ry+ GtK8adum2Qjw2a5s5cVC+TIsmwdirsVdirsVdirsVdirsVdirsVdirsVdirsVdirsVdir//Z</xmpGImg:image></rdf:li></rdf:Alt></xmp:Thumbnails></rdf:Description><rdf:Description xmlns:xmpMM="http://ns.adobe.com/xap/1.0/mm/" xmlns:stRef="http://ns.adobe.com/xap/1.0/sType/ResourceRef#" xmlns:stEvt="http://ns.adobe.com/xap/1.0/sType/ResourceEvent#"><xmpMM:RenditionClass>proof:pdf</xmpMM:RenditionClass><xmpMM:OriginalDocumentID>uuid:65E6390686CF11DBA6E2D887CEACB407</xmpMM:OriginalDocumentID><xmpMM:DocumentID>xmp.did:0C1DE06E9B66E711BC30C8B554C325DD</xmpMM:DocumentID><xmpMM:InstanceID>xmp.iid:0C1DE06E9B66E711BC30C8B554C325DD</xmpMM:InstanceID><xmpMM:DerivedFrom rdf:parseType="Resource"><stRef:instanceID>uuid:c5b5eddb-66da-6741-a40d-cc810f9d042d</stRef:instanceID><stRef:documentID>xmp.did:FB05051EC465E111835FF2FC000FBA2B</stRef:documentID><stRef:originalDocumentID>uuid:65E6390686CF11DBA6E2D887CEACB407</stRef:originalDocumentID><stRef:renditionClass>proof:pdf</stRef:renditionClass></xmpMM:DerivedFrom><xmpMM:History><rdf:Seq><rdf:li rdf:parseType="Resource"><stEvt:action>saved</stEvt:action><stEvt:instanceID>xmp.iid:0C1DE06E9B66E711BC30C8B554C325DD</stEvt:instanceID><stEvt:when>2017-07-12T10:02:30+09:00</stEvt:when><stEvt:softwareAgent>Adobe Illustrator CS6 (Windows)</stEvt:softwareAgent><stEvt:changed>/</stEvt:changed></rdf:li></rdf:Seq></xmpMM:History></rdf:Description><rdf:Description xmlns:illustrator="http://ns.adobe.com/illustrator/1.0/"><illustrator:StartupProfile>Web</illustrator:StartupProfile></rdf:Description><rdf:Description xmlns:xmpTPg="http://ns.adobe.com/xap/1.0/t/pg/" xmlns:stDim="http://ns.adobe.com/xap/1.0/sType/Dimensions#" xmlns:xmpG="http://ns.adobe.com/xap/1.0/g/"><xmpTPg:NPages>1</xmpTPg:NPages><xmpTPg:HasVisibleTransparency>False</xmpTPg:HasVisibleTransparency><xmpTPg:HasVisibleOverprint>False</xmpTPg:HasVisibleOverprint><xmpTPg:MaxPageSize rdf:parseType="Resource"><stDim:w>229.788574</stDim:w><stDim:h>44.258789</stDim:h><stDim:unit>Pixels</stDim:unit></xmpTPg:MaxPageSize><xmpTPg:PlateNames><rdf:Seq><rdf:li>Cyan</rdf:li><rdf:li>Magenta</rdf:li><rdf:li>Yellow</rdf:li><rdf:li>Black</rdf:li></rdf:Seq></xmpTPg:PlateNames><xmpTPg:SwatchGroups><rdf:Seq><rdf:li rdf:parseType="Resource"><xmpG:groupName>初期設定のスウォッチグループ</xmpG:groupName><xmpG:groupType>0</xmpG:groupType><xmpG:Colorants><rdf:Seq><rdf:li rdf:parseType="Resource"><xmpG:swatchName>ホワイト</xmpG:swatchName><xmpG:mode>RGB</xmpG:mode><xmpG:type>PROCESS</xmpG:type><xmpG:red>255</xmpG:red><xmpG:green>255</xmpG:green><xmpG:blue>255</xmpG:blue></rdf:li><rdf:li rdf:parseType="Resource"><xmpG:swatchName>ブラック</xmpG:swatchName><xmpG:mode>RGB</xmpG:mode><xmpG:type>PROCESS</xmpG:type><xmpG:red>0</xmpG:red><xmpG:green>0</xmpG:green><xmpG:blue>0</xmpG:blue></rdf:li><rdf:li rdf:parseType="Resource"><xmpG:swatchName>RGB レッド</xmpG:swatchName><xmpG:mode>RGB</xmpG:mode><xmpG:type>PROCESS</xmpG:type><xmpG:red>255</xmpG:red><xmpG:green>0</xmpG:green><xmpG:blue>0</xmpG:blue></rdf:li><rdf:li rdf:parseType="Resource"><xmpG:swatchName>RGB イエロー</xmpG:swatchName><xmpG:mode>RGB</xmpG:mode><xmpG:type>PROCESS</xmpG:type><xmpG:red>255</xmpG:red><xmpG:green>255</xmpG:green><xmpG:blue>0</xmpG:blue></rdf:li><rdf:li rdf:parseType="Resource"><xmpG:swatchName>RGB グリーン</xmpG:swatchName><xmpG:mode>RGB</xmpG:mode><xmpG:type>PROCESS</xmpG:type><xmpG:red>0</xmpG:red><xmpG:green>255</xmpG:green><xmpG:blue>0</xmpG:blue></rdf:li><rdf:li rdf:parseType="Resource"><xmpG:swatchName>RGB シアン</xmpG:swatchName><xmpG:mode>RGB</xmpG:mode><xmpG:type>PROCESS</xmpG:type><xmpG:red>0</xmpG:red><xmpG:green>255</xmpG:green><xmpG:blue>255</xmpG:blue></rdf:li><rdf:li rdf:parseType="Resource"><xmpG:swatchName>RGB ブルー</xmpG:swatchName><xmpG:mode>RGB</xmpG:mode><xmpG:type>PROCESS</xmpG:type><xmpG:red>0</xmpG:red><xmpG:green>0</xmpG:green><xmpG:blue>255</xmpG:blue></rdf:li><rdf:li rdf:parseType="Resource"><xmpG:swatchName>RGB マゼンタ</xmpG:swatchName><xmpG:mode>RGB</xmpG:mode><xmpG:type>PROCESS</xmpG:type><xmpG:red>255</xmpG:red><xmpG:green>0</xmpG:green><xmpG:blue>255</xmpG:blue></rdf:li><rdf:li rdf:parseType="Resource"><xmpG:swatchName>R=193 G=39 B=45</xmpG:swatchName><xmpG:mode>RGB</xmpG:mode><xmpG:type>PROCESS</xmpG:type><xmpG:red>193</xmpG:red><xmpG:green>39</xmpG:green><xmpG:blue>45</xmpG:blue></rdf:li><rdf:li rdf:parseType="Resource"><xmpG:swatchName>R=237 G=28 B=36</xmpG:swatchName><xmpG:mode>RGB</xmpG:mode><xmpG:type>PROCESS</xmpG:type><xmpG:red>237</xmpG:red><xmpG:green>28</xmpG:green><xmpG:blue>36</xmpG:blue></rdf:li><rdf:li rdf:parseType="Resource"><xmpG:swatchName>R=241 G=90 B=36</xmpG:swatchName><xmpG:mode>RGB</xmpG:mode><xmpG:type>PROCESS</xmpG:type><xmpG:red>241</xmpG:red><xmpG:green>90</xmpG:green><xmpG:blue>36</xmpG:blue></rdf:li><rdf:li rdf:parseType="Resource"><xmpG:swatchName>R=247 G=147 B=30</xmpG:swatchName><xmpG:mode>RGB</xmpG:mode><xmpG:type>PROCESS</xmpG:type><xmpG:red>247</xmpG:red><xmpG:green>147</xmpG:green><xmpG:blue>30</xmpG:blue></rdf:li><rdf:li rdf:parseType="Resource"><xmpG:swatchName>R=251 G=176 B=59</xmpG:swatchName><xmpG:mode>RGB</xmpG:mode><xmpG:type>PROCESS</xmpG:type><xmpG:red>251</xmpG:red><xmpG:green>176</xmpG:green><xmpG:blue>59</xmpG:blue></rdf:li><rdf:li rdf:parseType="Resource"><xmpG:swatchName>R=252 G=238 B=33</xmpG:swatchName><xmpG:mode>RGB</xmpG:mode><xmpG:type>PROCESS</xmpG:type><xmpG:red>252</xmpG:red><xmpG:green>238</xmpG:green><xmpG:blue>33</xmpG:blue></rdf:li><rdf:li rdf:parseType="Resource"><xmpG:swatchName>R=217 G=224 B=33</xmpG:swatchName><xmpG:mode>RGB</xmpG:mode><xmpG:type>PROCESS</xmpG:type><xmpG:red>217</xmpG:red><xmpG:green>224</xmpG:green><xmpG:blue>33</xmpG:blue></rdf:li><rdf:li rdf:parseType="Resource"><xmpG:swatchName>R=140 G=198 B=63</xmpG:swatchName><xmpG:mode>RGB</xmpG:mode><xmpG:type>PROCESS</xmpG:type><xmpG:red>140</xmpG:red><xmpG:green>198</xmpG:green><xmpG:blue>63</xmpG:blue></rdf:li><rdf:li rdf:parseType="Resource"><xmpG:swatchName>R=57 G=181 B=74</xmpG:swatchName><xmpG:mode>RGB</xmpG:mode><xmpG:type>PROCESS</xmpG:type><xmpG:red>57</xmpG:red><xmpG:green>181</xmpG:green><xmpG:blue>74</xmpG:blue></rdf:li><rdf:li rdf:parseType="Resource"><xmpG:swatchName>R=0 G=146 B=69</xmpG:swatchName><xmpG:mode>RGB</xmpG:mode><xmpG:type>PROCESS</xmpG:type><xmpG:red>0</xmpG:red><xmpG:green>146</xmpG:green><xmpG:blue>69</xmpG:blue></rdf:li><rdf:li rdf:parseType="Resource"><xmpG:swatchName>R=0 G=104 B=55</xmpG:swatchName><xmpG:mode>RGB</xmpG:mode><xmpG:type>PROCESS</xmpG:type><xmpG:red>0</xmpG:red><xmpG:green>104</xmpG:green><xmpG:blue>55</xmpG:blue></rdf:li><rdf:li rdf:parseType="Resource"><xmpG:swatchName>R=34 G=181 B=115</xmpG:swatchName><xmpG:mode>RGB</xmpG:mode><xmpG:type>PROCESS</xmpG:type><xmpG:red>34</xmpG:red><xmpG:green>181</xmpG:green><xmpG:blue>115</xmpG:blue></rdf:li><rdf:li rdf:parseType="Resource"><xmpG:swatchName>R=0 G=169 B=157</xmpG:swatchName><xmpG:mode>RGB</xmpG:mode><xmpG:type>PROCESS</xmpG:type><xmpG:red>0</xmpG:red><xmpG:green>169</xmpG:green><xmpG:blue>157</xmpG:blue></rdf:li><rdf:li rdf:parseType="Resource"><xmpG:swatchName>R=41 G=171 B=226</xmpG:swatchName><xmpG:mode>RGB</xmpG:mode><xmpG:type>PROCESS</xmpG:type><xmpG:red>41</xmpG:red><xmpG:green>171</xmpG:green><xmpG:blue>226</xmpG:blue></rdf:li><rdf:li rdf:parseType="Resource"><xmpG:swatchName>R=0 G=113 B=188</xmpG:swatchName><xmpG:mode>RGB</xmpG:mode><xmpG:type>PROCESS</xmpG:type><xmpG:red>0</xmpG:red><xmpG:green>113</xmpG:green><xmpG:blue>188</xmpG:blue></rdf:li><rdf:li rdf:parseType="Resource"><xmpG:swatchName>R=46 G=49 B=146</xmpG:swatchName><xmpG:mode>RGB</xmpG:mode><xmpG:type>PROCESS</xmpG:type><xmpG:red>46</xmpG:red><xmpG:green>49</xmpG:green><xmpG:blue>146</xmpG:blue></rdf:li><rdf:li rdf:parseType="Resource"><xmpG:swatchName>R=27 G=20 B=100</xmpG:swatchName><xmpG:mode>RGB</xmpG:mode><xmpG:type>PROCESS</xmpG:type><xmpG:red>27</xmpG:red><xmpG:green>20</xmpG:green><xmpG:blue>100</xmpG:blue></rdf:li><rdf:li rdf:parseType="Resource"><xmpG:swatchName>R=102 G=45 B=145</xmpG:swatchName><xmpG:mode>RGB</xmpG:mode><xmpG:type>PROCESS</xmpG:type><xmpG:red>102</xmpG:red><xmpG:green>45</xmpG:green><xmpG:blue>145</xmpG:blue></rdf:li><rdf:li rdf:parseType="Resource"><xmpG:swatchName>R=147 G=39 B=143</xmpG:swatchName><xmpG:mode>RGB</xmpG:mode><xmpG:type>PROCESS</xmpG:type><xmpG:red>147</xmpG:red><xmpG:green>39</xmpG:green><xmpG:blue>143</xmpG:blue></rdf:li><rdf:li rdf:parseType="Resource"><xmpG:swatchName>R=158 G=0 B=93</xmpG:swatchName><xmpG:mode>RGB</xmpG:mode><xmpG:type>PROCESS</xmpG:type><xmpG:red>158</xmpG:red><xmpG:green>0</xmpG:green><xmpG:blue>93</xmpG:blue></rdf:li><rdf:li rdf:parseType="Resource"><xmpG:swatchName>R=212 G=20 B=90</xmpG:swatchName><xmpG:mode>RGB</xmpG:mode><xmpG:type>PROCESS</xmpG:type><xmpG:red>212</xmpG:red><xmpG:green>20</xmpG:green><xmpG:blue>90</xmpG:blue></rdf:li><rdf:li rdf:parseType="Resource"><xmpG:swatchName>R=237 G=30 B=121</xmpG:swatchName><xmpG:mode>RGB</xmpG:mode><xmpG:type>PROCESS</xmpG:type><xmpG:red>237</xmpG:red><xmpG:green>30</xmpG:green><xmpG:blue>121</xmpG:blue></rdf:li><rdf:li rdf:parseType="Resource"><xmpG:swatchName>R=199 G=178 B=153</xmpG:swatchName><xmpG:mode>RGB</xmpG:mode><xmpG:type>PROCESS</xmpG:type><xmpG:red>199</xmpG:red><xmpG:green>178</xmpG:green><xmpG:blue>153</xmpG:blue></rdf:li><rdf:li rdf:parseType="Resource"><xmpG:swatchName>R=153 G=134 B=117</xmpG:swatchName><xmpG:mode>RGB</xmpG:mode><xmpG:type>PROCESS</xmpG:type><xmpG:red>153</xmpG:red><xmpG:green>134</xmpG:green><xmpG:blue>117</xmpG:blue></rdf:li><rdf:li rdf:parseType="Resource"><xmpG:swatchName>R=115 G=99 B=87</xmpG:swatchName><xmpG:mode>RGB</xmpG:mode><xmpG:type>PROCESS</xmpG:type><xmpG:red>115</xmpG:red><xmpG:green>99</xmpG:green><xmpG:blue>87</xmpG:blue></rdf:li><rdf:li rdf:parseType="Resource"><xmpG:swatchName>R=83 G=71 B=65</xmpG:swatchName><xmpG:mode>RGB</xmpG:mode><xmpG:type>PROCESS</xmpG:type><xmpG:red>83</xmpG:red><xmpG:green>71</xmpG:green><xmpG:blue>65</xmpG:blue></rdf:li><rdf:li rdf:parseType="Resource"><xmpG:swatchName>R=198 G=156 B=109</xmpG:swatchName><xmpG:mode>RGB</xmpG:mode><xmpG:type>PROCESS</xmpG:type><xmpG:red>198</xmpG:red><xmpG:green>156</xmpG:green><xmpG:blue>109</xmpG:blue></rdf:li><rdf:li rdf:parseType="Resource"><xmpG:swatchName>R=166 G=124 B=82</xmpG:swatchName><xmpG:mode>RGB</xmpG:mode><xmpG:type>PROCESS</xmpG:type><xmpG:red>166</xmpG:red><xmpG:green>124</xmpG:green><xmpG:blue>82</xmpG:blue></rdf:li><rdf:li rdf:parseType="Resource"><xmpG:swatchName>R=140 G=98 B=57</xmpG:swatchName><xmpG:mode>RGB</xmpG:mode><xmpG:type>PROCESS</xmpG:type><xmpG:red>140</xmpG:red><xmpG:green>98</xmpG:green><xmpG:blue>57</xmpG:blue></rdf:li><rdf:li rdf:parseType="Resource"><xmpG:swatchName>R=117 G=76 B=36</xmpG:swatchName><xmpG:mode>RGB</xmpG:mode><xmpG:type>PROCESS</xmpG:type><xmpG:red>117</xmpG:red><xmpG:green>76</xmpG:green><xmpG:blue>36</xmpG:blue></rdf:li><rdf:li rdf:parseType="Resource"><xmpG:swatchName>R=96 G=56 B=19</xmpG:swatchName><xmpG:mode>RGB</xmpG:mode><xmpG:type>PROCESS</xmpG:type><xmpG:red>96</xmpG:red><xmpG:green>56</xmpG:green><xmpG:blue>19</xmpG:blue></rdf:li><rdf:li rdf:parseType="Resource"><xmpG:swatchName>R=66 G=33 B=11</xmpG:swatchName><xmpG:mode>RGB</xmpG:mode><xmpG:type>PROCESS</xmpG:type><xmpG:red>66</xmpG:red><xmpG:green>33</xmpG:green><xmpG:blue>11</xmpG:blue></rdf:li></rdf:Seq></xmpG:Colorants></rdf:li><rdf:li rdf:parseType="Resource"><xmpG:groupName>グレー</xmpG:groupName><xmpG:groupType>1</xmpG:groupType><xmpG:Colorants><rdf:Seq><rdf:li rdf:parseType="Resource"><xmpG:swatchName>R=0 G=0 B=0</xmpG:swatchName><xmpG:mode>RGB</xmpG:mode><xmpG:type>PROCESS</xmpG:type><xmpG:red>0</xmpG:red><xmpG:green>0</xmpG:green><xmpG:blue>0</xmpG:blue></rdf:li><rdf:li rdf:parseType="Resource"><xmpG:swatchName>R=26 G=26 B=26</xmpG:swatchName><xmpG:mode>RGB</xmpG:mode><xmpG:type>PROCESS</xmpG:type><xmpG:red>26</xmpG:red><xmpG:green>26</xmpG:green><xmpG:blue>26</xmpG:blue></rdf:li><rdf:li rdf:parseType="Resource"><xmpG:swatchName>R=51 G=51 B=51</xmpG:swatchName><xmpG:mode>RGB</xmpG:mode><xmpG:type>PROCESS</xmpG:type><xmpG:red>51</xmpG:red><xmpG:green>51</xmpG:green><xmpG:blue>51</xmpG:blue></rdf:li><rdf:li rdf:parseType="Resource"><xmpG:swatchName>R=77 G=77 B=77</xmpG:swatchName><xmpG:mode>RGB</xmpG:mode><xmpG:type>PROCESS</xmpG:type><xmpG:red>77</xmpG:red><xmpG:green>77</xmpG:green><xmpG:blue>77</xmpG:blue></rdf:li><rdf:li rdf:parseType="Resource"><xmpG:swatchName>R=102 G=102 B=102</xmpG:swatchName><xmpG:mode>RGB</xmpG:mode><xmpG:type>PROCESS</xmpG:type><xmpG:red>102</xmpG:red><xmpG:green>102</xmpG:green><xmpG:blue>102</xmpG:blue></rdf:li><rdf:li rdf:parseType="Resource"><xmpG:swatchName>R=128 G=128 B=128</xmpG:swatchName><xmpG:mode>RGB</xmpG:mode><xmpG:type>PROCESS</xmpG:type><xmpG:red>128</xmpG:red><xmpG:green>128</xmpG:green><xmpG:blue>128</xmpG:blue></rdf:li><rdf:li rdf:parseType="Resource"><xmpG:swatchName>R=153 G=153 B=153</xmpG:swatchName><xmpG:mode>RGB</xmpG:mode><xmpG:type>PROCESS</xmpG:type><xmpG:red>153</xmpG:red><xmpG:green>153</xmpG:green><xmpG:blue>153</xmpG:blue></rdf:li><rdf:li rdf:parseType="Resource"><xmpG:swatchName>R=179 G=179 B=179</xmpG:swatchName><xmpG:mode>RGB</xmpG:mode><xmpG:type>PROCESS</xmpG:type><xmpG:red>179</xmpG:red><xmpG:green>179</xmpG:green><xmpG:blue>179</xmpG:blue></rdf:li><rdf:li rdf:parseType="Resource"><xmpG:swatchName>R=204 G=204 B=204</xmpG:swatchName><xmpG:mode>RGB</xmpG:mode><xmpG:type>PROCESS</xmpG:type><xmpG:red>204</xmpG:red><xmpG:green>204</xmpG:green><xmpG:blue>204</xmpG:blue></rdf:li><rdf:li rdf:parseType="Resource"><xmpG:swatchName>R=230 G=230 B=230</xmpG:swatchName><xmpG:mode>RGB</xmpG:mode><xmpG:type>PROCESS</xmpG:type><xmpG:red>230</xmpG:red><xmpG:green>230</xmpG:green><xmpG:blue>230</xmpG:blue></rdf:li><rdf:li rdf:parseType="Resource"><xmpG:swatchName>R=242 G=242 B=242</xmpG:swatchName><xmpG:mode>RGB</xmpG:mode><xmpG:type>PROCESS</xmpG:type><xmpG:red>242</xmpG:red><xmpG:green>242</xmpG:green><xmpG:blue>242</xmpG:blue></rdf:li></rdf:Seq></xmpG:Colorants></rdf:li><rdf:li rdf:parseType="Resource"><xmpG:groupName>Web カラーグループ</xmpG:groupName><xmpG:groupType>1</xmpG:groupType><xmpG:Colorants><rdf:Seq><rdf:li rdf:parseType="Resource"><xmpG:swatchName>R=63 G=169 B=245</xmpG:swatchName><xmpG:mode>RGB</xmpG:mode><xmpG:type>PROCESS</xmpG:type><xmpG:red>63</xmpG:red><xmpG:green>169</xmpG:green><xmpG:blue>245</xmpG:blue></rdf:li><rdf:li rdf:parseType="Resource"><xmpG:swatchName>R=122 G=201 B=67</xmpG:swatchName><xmpG:mode>RGB</xmpG:mode><xmpG:type>PROCESS</xmpG:type><xmpG:red>122</xmpG:red><xmpG:green>201</xmpG:green><xmpG:blue>67</xmpG:blue></rdf:li><rdf:li rdf:parseType="Resource"><xmpG:swatchName>R=255 G=147 B=30</xmpG:swatchName><xmpG:mode>RGB</xmpG:mode><xmpG:type>PROCESS</xmpG:type><xmpG:red>255</xmpG:red><xmpG:green>147</xmpG:green><xmpG:blue>30</xmpG:blue></rdf:li><rdf:li rdf:parseType="Resource"><xmpG:swatchName>R=255 G=29 B=37</xmpG:swatchName><xmpG:mode>RGB</xmpG:mode><xmpG:type>PROCESS</xmpG:type><xmpG:red>255</xmpG:red><xmpG:green>29</xmpG:green><xmpG:blue>37</xmpG:blue></rdf:li><rdf:li rdf:parseType="Resource"><xmpG:swatchName>R=255 G=123 B=172</xmpG:swatchName><xmpG:mode>RGB</xmpG:mode><xmpG:type>PROCESS</xmpG:type><xmpG:red>255</xmpG:red><xmpG:green>123</xmpG:green><xmpG:blue>172</xmpG:blue></rdf:li><rdf:li rdf:parseType="Resource"><xmpG:swatchName>R=189 G=204 B=212</xmpG:swatchName><xmpG:mode>RGB</xmpG:mode><xmpG:type>PROCESS</xmpG:type><xmpG:red>189</xmpG:red><xmpG:green>204</xmpG:green><xmpG:blue>212</xmpG:blue></rdf:li></rdf:Seq></xmpG:Colorants></rdf:li></rdf:Seq></xmpTPg:SwatchGroups></rdf:Description><rdf:Description xmlns:pdf="http://ns.adobe.com/pdf/1.3/"><pdf:Producer>Adobe PDF library 10.01</pdf:Producer></rdf:Description></rdf:RDF></x:xmpmeta><?xpacket end="w"?></metadata><g><g fill="#210701"><path d="M11.753 8.503c.155.208 3.926 4.55 6.968 6.525.442.287 2.393 1.457 2.73 1.742.156.104.572.469.572.963 0 .598-.625.779-1.093.779-.754 0-2.729 0-9.178-7.8-.313-.364-1.587-1.977-1.872-2.288-.131-.13-.442-.39-.78-.39-.442 0-.468 0-4.134 3.406-.677.624-.729.676-1.171 1.326-.26.39-.728.806-1.3.806-.52 0-.857-.129-2.184-1.508-.103-.129-.311-.337-.311-.805 0-.13.026-.312.182-.312.131 0 .677.104.807.104 1.196 0 2.521-.494 5.772-3.12 1.222-.988 1.638-1.326 2.366-1.326 1.039-.001 1.924 1.014 2.626 1.898zm7.67-1.69c0 1.404-1.144 2.548-2.47 2.548-1.196 0-2.522-.988-2.522-2.522 0-1.299 1.014-2.496 2.548-2.496 1.872-.001 2.444 1.612 2.444 2.47zm-4.134.078c0 1.118.987 1.586 1.689 1.586 1.118 0 1.612-.988 1.612-1.586 0-1.014-.962-1.664-1.664-1.664-.597 0-1.637.52-1.637 1.664zm21.891 7.305a.945.945 0 01-.884.988c-.572 0-.754-.598-.936-1.17-.234-.728-.807-1.742-1.509-2.626-.13-.182-.182-.26-.182-.338 0-.156.156-.234.338-.234.625 0 3.173 1.301 3.173 3.38zm8.035-5.355c0-.026-.053-.156-.053-.234 0-.13.104-.182.183-.182.208 0 .987.546 1.17.65.416.208 1.456.833 1.456 1.586 0 .208-.104.234-.546.495-.208.129-1.118 1.897-1.326 2.235-3.979 6.604-10.375 9.179-10.583 9.179-.078 0-.155-.078-.155-.156 0-.13 1.222-.91 1.456-1.092 5.538-4.238 8.58-9.126 8.58-11.362-.001-.522-.052-.808-.182-1.119zm-4.057 2.522c0 .753-.416 1.325-.884 1.325-.572 0-.702-.65-.78-1.092-.182-.832-.26-1.065-.962-2.47-.052-.104-.286-.468-.286-.572 0-.078.13-.156.26-.13 1.223.182 2.652 1.483 2.652 2.939zm26.391-9.205c.936 0 2.808.832 2.808 1.664 0 .183-.26.936-.312 1.092-.13.65-.234 2.964-.234 3.614 0 .572.104.65.858.832 1.586.364 5.616 2.262 5.616 4.212 0 .858-.807.911-.937.911-.649 0-.728-.104-2.47-2.367-.729-.961-1.95-2.184-2.756-2.184-.26 0-.364 0-.364 1.924 0 2.756.026 4.135.13 6.475.026.286.052.936.052 1.326 0 .65 0 2.365-.754 2.365-.78 0-1.456-1.768-1.456-2.443 0-.104.104-.65.104-.754.182-2.158.233-2.834.233-6.032 0-7.437 0-8.269-.312-9.101-.208-.546-.468-.806-.884-1.196l-.051-.103c.027-.235.702-.235.729-.235zm27.508 5.435c-.156-.234-.183-.286-.183-.364 0-.13.104-.156.234-.156 1.378 0 3.302 1.534 3.302 2.211 0 .233-.13.312-.468.545-.39.234-.546.495-1.066 1.222-3.146 4.498-7.514 6.136-7.878 6.136a.2.2 0 01-.208-.182c0-.104.078-.182.728-.702 4.005-3.328 5.824-6.916 5.824-7.852 0-.364-.052-.494-.285-.858zm7.982-.182c.13 0 1.3.468 2.6 1.352 1.846 1.274 4.187 3.718 4.187 5.46 0 .39-.156 1.508-1.301 1.508-.936 0-1.378-.936-1.794-2.287-.546-1.743-.962-2.783-2.704-4.629-.182-.182-1.17-1.092-1.17-1.17-.027-.104.026-.234.182-.234zm25.011-.39c.598-.13.598-.39.598-1.066 0-1.248-.053-1.69-.26-2.054-.104-.182-.754-.91-.754-1.118 0-.233.623-.26.807-.26.416 0 .727.026 1.846.676.545.312.623.364.623.702 0 .13-.26.676-.313.78-.129.286-.154.988-.154 1.3 0 .442.104.832.754.832.598 0 2.521-.078 3.068-.26.182-.052 1.039-.521 1.248-.521.26 0 2.262 1.222 2.262 1.716 0 .26-.105.364-.26.494-.469.338-.521.39-.625.728-.779 2.21-2.859 8.061-8.398 11.752-1.482.988-2.859 1.507-3.041 1.507-.078 0-.156-.052-.156-.104s.025-.104.207-.208c.91-.624 1.768-1.3 2.6-2.054 5.617-4.967 6.684-11.051 6.684-11.362 0-.546-.443-.546-.807-.546-2.314 0-6.137.234-7.357.39-1.951.26-1.951.468-1.951.884 0 .078.104 1.014.131 1.145.234 2.028.363 2.86.363 3.952 0 .494 0 1.327-.598 1.327-.65 0-1.066-.858-1.17-1.639-.025-.13-.025-1.872-.025-2.08 0-1.56-.494-3.38-1.432-4.654-.104-.155-.311-.442-.311-.598 0-.208.467-.338.91-.338.545 0 .961.156 1.43.442.65.416.857.52 1.248.52.415.001 2.286-.181 2.833-.285zm33.047-.26c-.182 0-5.643 1.274-5.773 1.326-.182.052-.986.494-1.17.494-.389 0-1.611-.78-1.768-.936-.182-.183-.623-1.326-.623-1.508 0-.13.025-.208.154-.208.027 0 .6.156.678.182.805.234 1.117.26 1.377.26.885 0 5.773-.416 7.125-.962.234-.104 1.195-.806 1.43-.806.623 0 2.211 1.326 2.211 1.976 0 .234-.963.936-1.119 1.118-.52.624-2.574 3.667-2.99 4.265-.104.13-.207.312-.207.52 0 .234.051.286 1.143.884 1.17.676 5.824 3.302 5.824 5.668 0 .598-.467 1.144-1.064 1.144-.6 0-.703-.182-1.613-1.794-1.793-3.146-4.082-5.122-4.654-5.122-.26 0-.338.078-.91.728-.91.962-3.561 3.875-6.941 5.564-.703.338-1.404.599-1.611.599-.053 0-.184 0-.184-.156 0-.104 1.041-.858 1.197-.962 6.785-4.915 9.879-11.648 9.803-12.064-.055-.21-.264-.21-.315-.21zm18.537 2.288c0-.104-.025-.468-.209-.468-.285 0-1.949 2.47-2.365 2.47-.078 0-.131-.078-.131-.156 0-.104.625-1.014.729-1.195 2.08-3.641 3.146-6.787 3.563-8.269.363-1.3.416-1.43.572-1.43.285 0 2.08.91 2.08 1.326 0 .182-.027.182-.469.364a.651.651 0 00-.313.26c-.025.026-2.262 4.524-2.262 4.654 0 .233.078.26.469.468.182.104.572.338.572.546 0 .104-.469.52-.547.624-.104.156-.104.39-.104 2.34 0 1.3-.078 7.565-.078 8.97 0 .442.053 2.47.053 2.938 0 .937-.625 1.195-1.275 1.195-.676 0-.701-.363-.701-.728 0-.026.051-1.456.051-1.534.209-2.964.391-7.93.391-10.92 0-.207-.026-1.221-.026-1.455zm15.912-5.044c-.207 0-.754 0-.754.624 0 2.548.053 2.548.91 2.548h.416c1.195 0 1.326 0 1.664-.416.701-.91.779-1.014 1.014-1.014.338 0 2.08 1.456 2.08 1.768 0 .364-.52.364-1.404.364h-12.453c-.859 0-1.17.13-1.301.52-.156.39-.182 2.262-.182 2.86-.078 7.826-2.523 11.388-3.172 11.388-.078 0-.131-.051-.131-.129.104-.312.441-1.17.547-1.534.727-2.444 1.143-5.668 1.143-12.195 0-.624-.104-.832-.545-.832-.078 0-.391.052-.441.052-.105 0-.131-.078-.234-.182l-.521-.598c-.104-.13-.104-.13-.104-.156 0-.052.053-.052.078-.052.131 0 .754.052.91.052.26 0 2.859.13 3.275.13.807 0 1.016-.026 1.197-.104.416-.208.416-.364.416-2.288 0-.78-.391-.806-.885-.806s-1.949.052-2.393.078c-.051.025-.311.051-.363.051-.078 0-.129-.051-.234-.156l-.494-.598c-.104-.13-.104-.13-.104-.183 0-.052.053-.052.078-.052.52 0 3.094.182 3.666.182.547 0 .754-.285.754-.701 0-.313-.078-1.873-.078-2.211 0-.078 0-.338.104-.338.078 0 2.029.26 2.029.65 0 .104-.313.494-.365.598-.104.286-.104.832-.104 1.118 0 .468 0 .884.754.884h2.186c.232 0 .701-.104.701-.701 0-.313-.104-1.847-.104-2.185 0-.156 0-.338.156-.338.104 0 2.105.338 2.105.676 0 .156-.494.676-.547.807-.051.155-.051.701-.051 1.04 0 .598.338.701.779.701 1.066 0 1.223-.026 1.535-.442.701-.91.779-1.014 1.014-1.014.285 0 2.08 1.456 2.08 1.769 0 .364-.521.364-1.379.364h-3.248zm-5.953 14.143c-.65 0-.756.208-.756 1.066 0 .234.053 2.236.053 2.652 0 .363 0 1.638-1.195 1.638-.729 0-.729-.468-.729-.65 0-.155.131-1.325.156-1.585.104-1.924.207-3.874.207-5.824 0-1.353 0-2.809-.051-4.135 0-.182-.053-1.092-.053-1.274 0-.129 0-.598.234-.598.182 0 .65.313.857.442.416.286.598.338 1.119.338h6.396c.154 0 .416 0 .598-.182.494-.494.545-.545.65-.545.076 0 1.299.598 1.508.676.078.025.338.26.338.572 0 .052 0 .155-.105.259-.26.26-.311.312-.363.962-.025.26-.025 7.462-.025 8.398 0 1.247 0 1.924-.443 2.47-.26.313-1.17.754-1.48.754-.26 0-.313-.078-.572-.624-.104-.208-.91-1.066-.91-1.17s.104-.13.234-.13c.078 0 .52.052.623.052.807 0 .936-.338.936-2.6 0-.729-.154-.963-.779-.963h-1.898c-.65 0-.701.364-.701 1.066 0 .338.078 2.08.078 2.47s-.027.572-.131.753c-.234.442-.676.65-1.092.65-.52 0-.623-.208-.623-.676 0-.183.076-1.015.104-1.196a35.06 35.06 0 00.078-2.313c0-.442-.105-.755-.65-.755h-1.613zm-.052-3.691c-.598 0-.729.338-.729.754 0 2.184 0 2.262.729 2.262h1.664c.598 0 .729-.338.729-.754 0-2.184 0-2.262-.729-2.262h-1.664zm.025-3.562c-.598 0-.729.338-.729.78 0 1.898 0 2.106.729 2.106h1.613c.598 0 .727-.337.727-.78 0-1.872 0-2.106-.727-2.106h-1.613zm.781-6.89c-.391 0-.781.129-.781.571 0 2.601.156 2.601.885 2.601h1.846c.416 0 .729-.026.832-.39.053-.234.053-1.794.053-2.106 0-.468-.313-.676-.703-.676h-2.132zm3.77 6.89c-.625 0-.729.338-.729.78 0 1.898 0 2.106.729 2.106h1.949c.6 0 .729-.337.729-.78 0-1.872-.025-2.106-.729-2.106h-1.949zm.025 3.562c-.623 0-.729.338-.729.754 0 2.184 0 2.262.729 2.262h1.924c.6 0 .729-.338.729-.754 0-1.456-.025-1.612-.025-1.716-.053-.442-.365-.546-.703-.546h-1.925zm16.744 6.838c-.285 0-.729 0-.779.494-.053.494-.131 1.404-1.352 1.404-.572 0-.754-.364-.754-.937 0-.78.154-4.576.154-5.434 0-.313 0-1.925-.078-2.756a46.531 46.531 0 01-.129-1.274c0-.182.025-.234.182-.234.209 0 .729.182 1.639.598.389.182.623.208 1.066.208h3.354c1.195 0 1.352.026 1.561-.312.338-.52.363-.572.572-.572.207 0 2.002.91 2.002 1.456 0 .208-.262.39-.572.65-.365.312-.365.832-.365 1.56 0 .677.078 4.03.078 4.785 0 .598 0 1.586-1.117 1.586-.676 0-.729-.468-.781-.858-.051-.364-.389-.364-.727-.364h-3.954zm4.057-.676c.676 0 .701-.546.701-.728v-5.044c0-.779-.441-.779-.91-.779h-4.055c-.65 0-.781.285-.781.857 0 .702.156 3.874.156 4.524 0 .754 0 1.17.754 1.17h4.135zm6.578-18.799c1.195 0 1.326 0 1.533-.312.391-.598.443-.676.678-.676.26 0 1.768 1.04 1.768 1.509 0 .26-.078.312-.52.571-.287.182-.287.469-.287.755 0 .754.156 4.212.156 4.706 0 .52 0 1.404-1.17 1.404-.234 0-.65-.052-.701-.416-.053-.572-.078-.676-.703-.676h-7.67c-.391 0-.52.026-.625.416-.154.52-.26.936-1.143.936-.832 0-.859-.39-.859-.753 0-.521.131-3.043.131-3.614 0-.807 0-3.276-.156-3.849-.025-.104-.26-.598-.26-.728s.129-.156.207-.156c.209 0 .807.182 2.029.728.363.156.65.156.91.156h6.682zm.754 6.189c.703 0 .754-.416.754-.832 0-.26-.025-3.9-.051-4.083-.053-.572-.547-.572-.781-.572h-7.488c-.779 0-.807.416-.807.988 0 1.274 0 3.146.053 3.848.025.65.52.65.807.65h7.513zm.053 13.286c-.209 0-.65 0-.703.598-.025.572-.078 1.3-1.273 1.3-.547 0-.754-.364-.754-.937 0-.78.182-4.602.182-5.486 0-.208 0-2.028-.078-2.834-.025-.182-.156-1.117-.156-1.325 0-.183.053-.208.209-.208.416 0 .961.259 1.482.52.389.182.676.26 1.195.26h3.119c1.223 0 1.354 0 1.561-.338.313-.494.365-.546.52-.546.105 0 2.158.937 2.158 1.586 0 .234-.051.286-.623.728-.313.261-.313.78-.313 1.274 0 .729.104 4.265.104 5.044 0 .624 0 1.665-1.352 1.665-.623 0-.623-.339-.65-.781 0-.052-.025-.52-.623-.52h-4.005zm-.053-7.436c-.779 0-.779.39-.779 1.065 0 .65.078 3.484.078 4.082 0 1.404 0 1.612.754 1.612h3.979c.648 0 .754-.286.754-.936 0-.754-.078-4.083-.078-4.758s0-1.065-.754-1.065h-3.954z"/></g><g fill="#4A1F00"><path d="M5.707 33.549c.456 0 3.418 0 3.418 2.267 0 1.247-.959 2.339-3.106 2.339H4.868c-.324 0-.324.096-.324 1.008 0 2.194 0 2.206.132 2.41.192.276.492.336.804.336.264 0 .408 0 .408.192 0 .191-.168.191-.336.191H2.589c-.18 0-.348 0-.348-.191 0-.192.18-.192.3-.192.408 0 .923 0 1.043-.624.036-.191.036-.203.036-3.394 0-.563 0-3.13-.036-3.335-.108-.575-.624-.611-.912-.611-.3 0-.432 0-.432-.191 0-.204.168-.204.348-.204h3.119zm.072 4.21c1.583 0 2.207-.876 2.207-1.896 0-1.318-.971-1.919-2.063-1.919h-.516c-.863 0-.863.527-.863 1.571 0 .168 0 1.871.012 1.979.024.18.156.264.312.264h.911zm6.289 1.39c-.156 0-.384 0-.384.385 0 1.463.996 2.47 1.991 2.47.552 0 1.08-.323 1.451-.671.072-.061.348-.469.456-.469.06 0 .12.061.12.156 0 .264-.839 1.5-2.422 1.5-1.679 0-2.626-1.332-2.626-3.07 0-1.991 1.235-3.047 2.542-3.047 1.859 0 2.387 1.967 2.387 2.471 0 .216-.12.275-.36.275h-3.155zm2.207-.395c.264 0 .396-.06.396-.348 0-.456-.432-1.679-1.439-1.679-1.116 0-1.463 1.499-1.463 1.763s.204.264.312.264h2.194zm3.098-1.739c-.132 0-.324 0-.324-.191 0-.156.06-.168.408-.217.192-.023 1.199-.263 1.199-1.798 0-.108 0-.276.156-.276.192 0 .192.18.192.252v1.547c0 .108.036.3.3.3h1.271c.12 0 .336.024.336.192 0 .072-.072.191-.324.191h-1.283c-.036 0-.216.013-.276.156-.048.132-.048 1.475-.048 1.715 0 .359 0 2.279.036 2.447.156.671.708.671.828.671.252 0 .54-.096.804-.3.072-.048.348-.323.432-.323.048 0 .072.048.072.096 0 .216-.743 1.044-1.751 1.044-1.259 0-1.259-.948-1.259-2.159 0-.036.024-2.639 0-3.046 0-.061-.012-.301-.3-.301h-.469zm15.177.612c.324 0 .324-.072.324-1.655 0-1.739 0-2.039-1.115-2.039-.096 0-.312 0-.312-.204 0-.18.216-.18.324-.18h3.058c.084 0 .312 0 .312.192 0 .203-.156.203-.528.203-.36 0-.648.204-.731.443-.096.252-.108.289-.108 4.63 0 .456 0 2.159.096 2.435.168.456.66.456.888.456.18 0 .384 0 .384.192 0 .191-.228.191-.312.191h-3.058c-.12 0-.324 0-.324-.18 0-.191.216-.191.348-.191.324 0 .66-.049.839-.24.24-.24.24-.252.24-2.447 0-1.115 0-1.211-.324-1.211h-3.226c-.072 0-.228.036-.276.144C29 38.298 29 39.485 29 39.714c0 1.967 0 2.207 1.127 2.207.084 0 .3 0 .3.203 0 .168-.216.168-.324.168h-3.058c-.072 0-.312 0-.312-.191 0-.192.156-.192.528-.192.168 0 .684-.071.78-.611.048-.288.048-3.202.048-4.737 0-.432 0-1.896-.084-2.159-.156-.456-.66-.456-.888-.456-.18 0-.384 0-.384-.203 0-.192.228-.192.312-.192h3.058c.12 0 .324 0 .324.18 0 .204-.204.204-.348.204C29 33.933 29 34.293 29 35.828c0 .216 0 1.535.048 1.643.06.156.252.156.276.156h3.226zm6.542-1.224c1.535 0 2.65 1.331 2.65 3.059 0 1.727-1.115 3.059-2.65 3.059s-2.651-1.344-2.651-3.059c0-1.703 1.091-3.059 2.651-3.059zm0 5.793c1.007 0 1.631-1.295 1.631-2.734 0-1.463-.636-2.734-1.631-2.734-.912 0-1.631 1.115-1.631 2.734-.001 1.415.611 2.734 1.631 2.734zm8.519.096c-.132 0-.228-.096-.228-.24-.012-.275-.012-.359-.108-.359-.072 0-.312.24-.372.275-.156.108-.743.553-1.463.553-.348 0-1.619-.121-1.703-1.859-.012-.252.012-1.476.012-1.751 0-.288 0-1.583-.06-1.739-.048-.132-.18-.156-.3-.156-.048 0-.3.024-.36.024-.084 0-.12-.061-.12-.108 0-.096.048-.107.48-.228.36-.107 1.067-.3 1.091-.3.036 0 .096.024.108.096 0 .013.012 3.119.012 3.467 0 .707 0 1.02.12 1.331a1.09 1.09 0 001.043.707c.516 0 1.271-.432 1.487-.875.156-.3.168-2.135.168-2.555 0-1.188 0-1.56-.456-1.56-.06 0-.348.036-.408.036-.12 0-.144-.072-.144-.096 0-.132.084-.156.875-.349.204-.047.792-.203.84-.203s.096.048.108.096c.024.097 0 2.039 0 2.423 0 .312.024 1.847.024 2.194 0 .252 0 .779.6.779.144 0 .324 0 .324.205 0 .084-.06.191-.204.191h-1.366zm5.533-5.661c.096.036.144.06.228.06a.441.441 0 00.348-.168c.084-.083.12-.119.168-.119.072 0 .096.061.132.156.108.275.648 1.583.648 1.715 0 .06-.024.12-.108.12-.12 0-.144-.048-.432-.479-.144-.229-1.007-1.188-1.775-1.188-.444 0-1.031.312-1.031.972 0 .491.324.767 1.535 1.187 1.391.492 2.099.936 2.099 1.895 0 .805-.563 1.74-1.835 1.74-.324 0-.456-.037-.972-.192a.754.754 0 00-.228-.036c-.168 0-.288.048-.36.072-.228.096-.372.156-.432.156-.108 0-.144-.097-.204-.252-.108-.276-.576-1.476-.576-1.632 0-.071.024-.204.144-.204.144 0 .228.145.419.48.528.911 1.655 1.283 2.207 1.283.587 0 1.043-.504 1.043-1.092 0-.552-.348-.827-1.739-1.307-1.259-.444-1.895-.864-1.895-1.787 0-.912.672-1.607 1.583-1.607.409-.001.577.06 1.033.227zm4.668 2.518c-.156 0-.384 0-.384.385 0 1.463.996 2.47 1.991 2.47.552 0 1.08-.323 1.451-.671.072-.061.348-.469.456-.469.06 0 .12.061.12.156 0 .264-.839 1.5-2.422 1.5-1.679 0-2.626-1.332-2.626-3.07 0-1.991 1.235-3.047 2.542-3.047 1.859 0 2.387 1.967 2.387 2.471 0 .216-.12.275-.36.275h-3.155zm2.207-.395c.264 0 .396-.06.396-.348 0-.456-.432-1.679-1.439-1.679-1.116 0-1.463 1.499-1.463 1.763s.204.264.312.264h2.194zm11.507 3.154c.756 0 1.991-.108 2.867-1.487.3-.468.324-.516.419-.516.096 0 .204.061.204.192 0 .06-.432 1.199-.504 1.379-.3.779-.312.815-1.091.815h-5.649c-.204 0-.372 0-.372-.191 0-.192.12-.192.456-.192.288 0 .804-.036.912-.624.036-.203.048-2.962.048-3.31 0-.479 0-3.203-.036-3.419-.12-.611-.635-.611-1.115-.611-.084 0-.264 0-.264-.191 0-.204.167-.204.372-.204h5.469c.743 0 .803.024 1.043.612.072.167.516 1.271.516 1.354a.187.187 0 01-.192.181c-.072 0-.096-.024-.372-.408-.372-.527-1.151-1.344-2.303-1.344h-1.331c-.468 0-.672.24-.72.313-.144.215-.144.323-.144 1.271 0 .155 0 1.787.036 1.883.072.144.252.155.288.155h1.055c1.355 0 1.355-.815 1.355-1.343 0-.036 0-.24.192-.24.204 0 .192.204.192.3-.012.444 0 2.591 0 3.07 0 .06 0 .252-.192.252s-.192-.155-.192-.396c0-1.02-.684-1.26-1.355-1.26h-1.055c-.204 0-.288.12-.312.276-.012.096-.012 2.075-.012 2.254 0 .84 0 1.428.864 1.428h.923zm8.137 2.351c-.132 0-.3 0-.3-.204 0-.191.12-.191.492-.191.6 0 .72-.288.72-.947 0-.731 0-.815-.168-.815-.084 0-.108.012-.312.119-.264.145-.768.301-1.295.301-1.5 0-2.399-1.596-2.399-3.167 0-1.858 1.14-2.95 2.387-2.95.312 0 .672.072 1.031.252.108.048.588.336.708.336.204 0 .419-.229.527-.372.156-.191.18-.216.252-.216.12 0 .12.061.12.264 0 .78-.012 4.642-.012 5.518 0 1.57 0 1.679.912 1.679.132 0 .24.06.24.191 0 .204-.18.204-.3.204h-2.603zm.779-2.819c.144-.24.132-.455.132-2.015 0-1.343 0-1.667-.228-1.955-.216-.275-.755-.552-1.235-.552-1.104 0-1.703 1.151-1.703 2.555 0 1.559.72 2.53 1.643 2.53.264.001 1.079-.024 1.391-.563zm7.656.852c-.132 0-.228-.096-.228-.24-.012-.275-.012-.359-.108-.359-.072 0-.312.24-.372.275-.156.108-.743.553-1.463.553-.348 0-1.619-.121-1.703-1.859-.012-.252.012-1.476.012-1.751 0-.288 0-1.583-.06-1.739-.048-.132-.18-.156-.3-.156-.048 0-.3.024-.36.024-.084 0-.12-.061-.12-.108 0-.096.048-.107.48-.228.36-.107 1.067-.3 1.091-.3.036 0 .096.024.108.096 0 .013.012 3.119.012 3.467 0 .707 0 1.02.12 1.331a1.09 1.09 0 001.043.707c.516 0 1.271-.432 1.487-.875.156-.3.168-2.135.168-2.555 0-1.188 0-1.56-.456-1.56-.06 0-.348.036-.408.036-.12 0-.144-.072-.144-.096 0-.132.084-.156.875-.349.204-.047.792-.203.84-.203s.096.048.108.096c.024.097 0 2.039 0 2.423 0 .312.024 1.847.024 2.194 0 .252 0 .779.6.779.144 0 .324 0 .324.205 0 .084-.06.191-.204.191h-1.366zm2.834 0c-.108 0-.275 0-.275-.191 0-.18.144-.192.372-.205a.506.506 0 00.48-.335c.096-.204.096-1.955.096-2.387 0-.336-.012-1.727-.072-1.895-.06-.145-.192-.204-.336-.204-.06 0-.36.036-.372.036-.048 0-.108-.024-.108-.108s.06-.107.6-.275c.156-.049.9-.324.996-.324.12 0 .12.108.12.228 0 .54-.012 3.238-.012 3.85 0 .876 0 1.38.552 1.415.24.013.384.025.384.205 0 .191-.204.191-.288.191h-2.137zm.383-8.275c0-.384.312-.696.696-.684.384 0 .696.3.696.684s-.312.695-.696.695a.69.69 0 01-.696-.695zm3.325 10.242c-.108 0-.324-.023-.324-.191 0-.181.228-.192.432-.204.288-.013.516-.132.587-.504.036-.228.036-4.149.036-4.881 0-1.056 0-1.392-.42-1.392-.072 0-.432.084-.516.084-.06 0-.108-.06-.108-.108 0-.084.048-.107.276-.18.132-.036 1.487-.479 1.523-.479.084 0 .084.096.084.336 0 .18 0 .264.096.264.012 0 .384-.216.419-.24.228-.132.708-.359 1.259-.359 1.248 0 2.387 1.092 2.387 2.95 0 1.583-.899 3.167-2.398 3.167-.528 0-.983-.156-1.164-.229-.072-.036-.36-.191-.443-.191-.156 0-.156.035-.156.982 0 .217 0 .744.6.78.336.012.492.023.492.204 0 .18-.228.191-.348.191H94.64zm1.871-6.884c-.3.288-.312.491-.312 2.23 0 1.763.048 1.799.3 2.039.372.335.947.359 1.139.359 1.343 0 1.727-1.476 1.727-2.53 0-1.415-.6-2.555-1.703-2.555a1.837 1.837 0 00-1.151.457zm12.561 4.917c-.216 0-.228-.145-.228-.191 0-.18.144-.192.324-.192.624-.024.624-.348.624-1.967 0-1.655-.024-1.812-.12-2.219-.108-.432-.419-.804-.947-.804-.671 0-1.463.6-1.619 1.008-.072.191-.072 1.906-.072 2.242 0 1.164 0 1.296.12 1.476.12.18.276.251.492.264.348.013.456.013.456.192 0 .191-.168.191-.276.191h-2.411c-.108 0-.288 0-.288-.191 0-.072.036-.145.096-.168.06-.037.419-.024.503-.037.48-.096.48-.347.48-2.014 0-1.607 0-1.883-.156-2.327a.952.952 0 00-.9-.636c-.516 0-1.067.336-1.331.6-.288.288-.312.313-.312 2.363 0 1.667 0 2.002.624 2.026.18 0 .359.013.359.192s-.167.191-.264.191h-2.267c-.06 0-.24 0-.24-.191 0-.192.156-.192.36-.192.3 0 .48-.204.528-.348.084-.252.084-1.991.084-2.398 0-.336 0-1.644-.072-1.847a.455.455 0 00-.444-.301c-.048 0-.3.036-.36.036-.024 0-.12 0-.12-.084 0-.096.036-.107.588-.264.276-.072 1.031-.275 1.127-.3.12 0 .12.061.12.348 0 .312.012.396.12.396.048 0 .288-.18.36-.228.3-.216.828-.516 1.499-.516.972 0 1.224.54 1.343.779.024.048.084.168.156.168.06 0 .083-.023.276-.191.372-.324.959-.756 1.811-.756.816 0 1.211.384 1.368.924.144.504.144.731.144 2.746 0 1.439 0 1.835.672 1.835.084 0 .276 0 .276.204 0 .119-.108.18-.228.18h-2.255zm5.319-3.143c-.156 0-.384 0-.384.385 0 1.463.996 2.47 1.99 2.47.553 0 1.08-.323 1.451-.671.072-.061.349-.469.457-.469.06 0 .119.061.119.156 0 .264-.84 1.5-2.422 1.5-1.68 0-2.627-1.332-2.627-3.07 0-1.991 1.235-3.047 2.543-3.047 1.858 0 2.387 1.967 2.387 2.471 0 .216-.121.275-.36.275h-3.154zm2.206-.395c.265 0 .396-.06.396-.348 0-.456-.432-1.679-1.439-1.679-1.115 0-1.463 1.499-1.463 1.763s.204.264.312.264h2.194zm6.421 3.538c-.216 0-.216-.168-.216-.191 0-.168.156-.192.216-.192.312-.036.432-.048.575-.252.121-.191.121-.396.121-2.327 0-1.139 0-1.582-.252-1.966a.929.929 0 00-.792-.444c-.384 0-.888.204-1.224.54-.359.372-.359.552-.359 1.931 0 .312 0 1.775.035 1.991.072.384.276.515.588.527.12.013.324.013.324.192 0 .023 0 .191-.24.191h-2.23c-.24 0-.24-.168-.24-.18 0-.204.145-.204.324-.204.3 0 .48-.192.539-.359.097-.276.097-1.871.097-2.291 0-1.942-.013-2.243-.54-2.243-.048 0-.3.048-.348.048s-.119-.012-.119-.107.047-.108.479-.204c.192-.048 1.199-.348 1.236-.348.119 0 .119.048.119.527 0 .168 0 .265.084.265s.42-.313.492-.36c.479-.313.899-.432 1.344-.432.863 0 1.223.468 1.343.804.167.468.167.672.167 2.53 0 .36 0 1.596.084 1.812.025.084.145.347.541.359.191 0 .336.013.336.204 0 .18-.145.18-.24.18h-2.244zm3.949-5.277c-.132 0-.323 0-.323-.191 0-.156.06-.168.407-.217.192-.023 1.199-.263 1.199-1.798 0-.108 0-.276.156-.276.192 0 .192.18.192.252v1.547c0 .108.035.3.299.3h1.271c.12 0 .336.024.336.192 0 .072-.072.191-.324.191h-1.283c-.035 0-.215.013-.275.156-.048.132-.048 1.475-.048 1.715 0 .359 0 2.279.036 2.447.156.671.707.671.827.671.252 0 .54-.096.804-.3.072-.048.348-.323.432-.323.048 0 .072.048.072.096 0 .216-.744 1.044-1.752 1.044-1.259 0-1.259-.948-1.259-2.159 0-.036.024-2.639 0-3.046 0-.061-.012-.301-.3-.301h-.467z"/></g></g></svg>