<svg version="1.1" baseProfile="tiny" id="レイヤー_1" xmlns="http://www.w3.org/2000/svg" x="0" y="0" width="319.49" height="44.285" viewBox="0 0 319.49 44.285" xml:space="preserve"><metadata><?xpacket begin="﻿" id="W5M0MpCehiHzreSzNTczkc9d"?><x:xmpmeta xmlns:x="adobe:ns:meta/" x:xmptk="Adobe XMP Core 5.3-c011 66.145661, 2012/02/06-14:56:27"><rdf:RDF xmlns:rdf="http://www.w3.org/1999/02/22-rdf-syntax-ns#"><rdf:Description xmlns:dc="http://purl.org/dc/elements/1.1/"><dc:format>image/svg+xml</dc:format><dc:title><rdf:Alt><rdf:li xml:lang="x-default">Web</rdf:li></rdf:Alt></dc:title></rdf:Description><rdf:Description xmlns:xmp="http://ns.adobe.com/xap/1.0/" xmlns:xmpGImg="http://ns.adobe.com/xap/1.0/g/img/"><xmp:CreatorTool>Adobe Illustrator CS6 (Windows)</xmp:CreatorTool><xmp:CreateDate>2017-07-12T10:02:57+09:00</xmp:CreateDate><xmp:ModifyDate>2017-07-12T10:02:58+09:00</xmp:ModifyDate><xmp:MetadataDate>2017-07-12T10:02:58+09:00</xmp:MetadataDate><xmp:Thumbnails><rdf:Alt><rdf:li rdf:parseType="Resource"><xmpGImg:width>256</xmpGImg:width><xmpGImg:height>36</xmpGImg:height><xmpGImg:format>JPEG</xmpGImg:format><xmpGImg:image>/9j/4AAQSkZJRgABAgEASABIAAD/7QAsUGhvdG9zaG9wIDMuMAA4QklNA+0AAAAAABAASAAAAAEA AQBIAAAAAQAB/+4ADkFkb2JlAGTAAAAAAf/bAIQABgQEBAUEBgUFBgkGBQYJCwgGBggLDAoKCwoK DBAMDAwMDAwQDA4PEA8ODBMTFBQTExwbGxscHx8fHx8fHx8fHwEHBwcNDA0YEBAYGhURFRofHx8f Hx8fHx8fHx8fHx8fHx8fHx8fHx8fHx8fHx8fHx8fHx8fHx8fHx8fHx8fHx8f/8AAEQgAJAEAAwER AAIRAQMRAf/EAaIAAAAHAQEBAQEAAAAAAAAAAAQFAwIGAQAHCAkKCwEAAgIDAQEBAQEAAAAAAAAA AQACAwQFBgcICQoLEAACAQMDAgQCBgcDBAIGAnMBAgMRBAAFIRIxQVEGE2EicYEUMpGhBxWxQiPB UtHhMxZi8CRygvElQzRTkqKyY3PCNUQnk6OzNhdUZHTD0uIIJoMJChgZhJRFRqS0VtNVKBry4/PE 1OT0ZXWFlaW1xdXl9WZ2hpamtsbW5vY3R1dnd4eXp7fH1+f3OEhYaHiImKi4yNjo+Ck5SVlpeYmZ qbnJ2en5KjpKWmp6ipqqusra6voRAAICAQIDBQUEBQYECAMDbQEAAhEDBCESMUEFURNhIgZxgZEy obHwFMHR4SNCFVJicvEzJDRDghaSUyWiY7LCB3PSNeJEgxdUkwgJChgZJjZFGidkdFU38qOzwygp 0+PzhJSktMTU5PRldYWVpbXF1eX1RlZmdoaWprbG1ub2R1dnd4eXp7fH1+f3OEhYaHiImKi4yNjo +DlJWWl5iZmpucnZ6fkqOkpaanqKmqq6ytrq+v/aAAwDAQACEQMRAD8A9E+afPOgeWjbwXry3GpX pIsNJs42uL24KglvSgSrEKASWNFHjgJZCJLEPM35xywS6DP5XsU1rTNYBKzBbjnJItxHC1pEscTi O4VXdmE3EDjv3wGTIQ73p+Sa0PqGoWOnWU19fzpbWdshkuLiUhURF3LMx2AHc4qtbVdMW5tLZrqI XF8jyWURdeUyRgM7RCvxhVcE07YrSKxVhv5w6xrOiflzrOtaNdGz1LTY0uoJQqOp9ORSyOrhgVda qcEuTKAssn0i+jv9LtLyOaK4WeJHM9uyvExI+IoylwRX3OFBReKEm1nzh5d0XWNI0jVLxbW+115I tLR1bjLLFwrHzAKqx9ReIYjl0G+C0iJLHfzB80aqYL3RPKxe51+1WOS+s7aVLfUY7aWnG5sluYZI bgKTR/2eq8g+AllEd7K9AtdYtNHtbbWb5dT1OJStzfpCLcTEE0f0lLKhK0qBtXJBiWO615/1mw12 bRbPyZrWqTJwaG+t1tksZEda1FzNPGqsGqpVhUdelMFpEduaF/K78yNT87Sa8bnQ20u20m9ayt7o TpcRTvHtKqugALIw3K1WhFDgBtM40zzJMGIeZPzM0jRNX1TRXtrifVtN0WTzAsCqoSe1iZ0dUkBa jhoyKMo7UrgJZCNptpvmzSb3ynZ+aZGaz0u8tIr1TcDi6xzorIGVS1WPIABa1PSuNoI3pOcKHYq7 FXYqw382vOOoeVPJ0l7pMYn167uLey0WzZefr3U8oAj41FfgDE79sEjTKEbLLbR7l7WF7qNYblo1 M8SNzVJCByVWovIA7VphYoHzP5i0zy3oF9rmpyenZWETSyU+0xGyogPV3YhVHcnASkCy8U/LDzFq NlZW+s3OsvHrP5gyXetDTH02/wBVjiSGUoEgS1mjMYWNlqSnxbb7DIgtsx9iT/ll5s1LSPIGm2Te YbjS4rnXZLO2ddAvLh2kkum4wtPI/oUk4kFFXmtePUYAdkyFl7v5/wCX+A/MlHZG/RV7R0JRgfq7 7qQag+ByZ5NMeYeJ6vr8Vn+TPl7VLC+8yxa9PFpAu7tpNc9NzO0QueEkx+rEScm4cDQ1HDtkL2bg PV0ZL5klsv8AHvkG30e81+1in1Ob66t3LrMUUqR2zyqh+v8A7tgSlGC78a4TzYjkWefmTqeqaZ5a +u6TqNvp2pxXEJtfrpAtrg8vjtpSQxAkj5UK7g0IyRYRG7xz8vvNNmupXgtfNUumaAL/AMw3jXdv Eblbgy3BEDOZIp4YUghi9dagBuW1fjyALbIeTNfKS6rJ+b1nc6lqVvqk03lCKR72xqlrcONRkCzr GGZPiidd6nvSgyQ5sD9PxZV5M/K7yv5S1DUNSsPrN3qWot+9vtQmN1cJFWqwRyuOYjXwJJO3ImmE CmMpkse81+XPN3lHXLjzh5CthqNret6vmXyny4C6fobu0JqI7in2wB8dOhbARXJkCDsXoGgasdX0 az1NrO505ruMSNY3sZhuYieqSxn7LDJBgRSS+Y/LEE2vReYLnVGtNIhsbmz8wadMx+qXVo6MVaTk wSMwszHnSpUkVpgISDtTEvJOgReZvMeleZktGtPJnlW0/R/kazmDB5gUWKS/ZX+MJ6cYSHnuR8e2 2ABlI0K6l6tkmt5/+f0yw/k75pdgSDaBNvGSVEH4tkZcmeP6gmOgfl7pei+brvzJod3JZ6dq0H+m 6HCALKS5ZlYXip0SQqKNxG/X5kBBlYpldzK8VvLLHC9w8aMyQRlA8hUVCKZGROTdByYDxIwsWB6B 5C1PUfOTeevOQifVYEMHl/R4m9WDTYD1YuQokuXr8bgUHRailIgdWZltQV/zL/L7UPM1z5f1XRL2 PS9f0C/S4gv3DGtq/wANzD8O7B1p8J2NKGgNcJCxlTOcLBgHnDXtc8xzXHlDyTL6dyxMGt+ZBU2+ nRnaSOJh/e3ZFQqIfg6sV2yJPcziK3KX+WdQm/LvXdF/Lq9tvW0DUEkj8sa1CnFvUjBkktr5EHH1 erCVaB+4ryOI22SRxC3p5IAJPQb7b/qyTW8xs/J+v64POfmbULYWmreYtOk0jQLC4PFraxSKQRCZ lDFGnmk9SRaHjsOoORps4gKCj+W/kzzjfWGhXPnqKKwtvL0ENvo3lm3IaNZbaNYlvbp1Zlkk+EmJ B8MYNftdEDvWUh0eoXVtDdW01tOC0M6NHKoJUlXHFhyUgjY9Qck1sAh/JTSBGsdz5l8z3sSvzWOf WbriB2UCMpsBsO/vkeFnx+QRFv8Akv5Mhv7e+MuqzXFq6yQmbVb+QBkbktQ024r2x4V4yzpuXE8Q C1NgTQV+e+SYPFbPX/zI8z+dLfW5fy8uI7XREkt9Ki1G9is4orqQlLm5esckkh4rwjZIyAvIj7W0 LJ6NtADmnbz/AJqaT+Zeh3NzbpeaF5hjktdZsbAXFxa2ElsnKG69eUJwMnLg3wIGC9C1MO9o2pnv mHTbG9053u4VmNoHuLcPuFlWNgr8ehZeR416Hcb4SwBeMeUfK88n5X+RfOtpc3SXXlvS5RLaWjRo 81pO4NzxaRWHqJGhZF/aIpUVyIG1tpO5Cl+TPk7R/NvkPy/dnzHcST6Zrb67Jpkc0EipJDeyvEs0 YUOhkWjnp9rYYxFhZyovXfzHnit/y98zzynjHHpN8zH5W75I8muPMPIPO+medtN/Iry1Z3l/pwEB 0O3W0NnMkqskkIiVpTdEOUKjnSIVANOORPJsiRxFlnnweZ7Xzh+Xsmp3tldwNrhjWO2tJbZw8lnO nIs9zcggKTtQYT0Yxqizrzneatb+X7iLRYzJrV7/AKJpvXik8wKiZz2SFayN7LQb0wlhHm8e/Jry lrWg6ZZz+X4ZL6CO41jTNZgkkhhtLr6vevHbSz8i7rIgDfEkTkr8J2GRiG2ZvmibHyt5stvzYtNE 0m4sfKVrZ+XUeGLT1fUSLZdS5vCHuVgA5ud29P7O3vjW62OHve55NpdirsVS/WNA0nWVhj1SD61b wP6i2sjMYHcfZMsVeEvHqocEA79caSDSYAACg2AxQ7FUNqemafqmnz6dqNul1Y3SGO4t5QGR1PUE HFQUTirsVdirsVdirSqqiigAeA264q4qpIJAJU1UnsaU2+g4q3irsVdirsVdirsVdirsVdiqyeFJ oZIX+xIpRqeDChxViEH5V6Cnl3T/AC1LeX0/l3T4I7f9FNMscM4j3LXDRJHLJzJ+JC/pn+XBTLjN 2hfNH5Hfll5ju4b280dLa+h4hbqwZrR2RRx4P6JVWHEcdxUDYEYDEJGQhlWr+XdL1bS00q7jP6OV 4Wa1Sio6wOrpEwA/u6oOS9xsdq5KmINKPmjypo/mewhsNWR5LaC5gvEVGKH1bdw6VI7VG4wEKDSW 6l+Wvl7UPOmnebriS7OoaYWeC1+sObNpWQxiVoG5KHRSaFOPvXGkiRqmVYWKU+V/LGm+WtLOm6eZ Wga4uLpmmbm5kupmnkq1Btyc09sACSbUx5R0gec284UkOsHThpAPL90LYTm4NEp9oyHck9B86tLe 1Me1bzJ5vh83ahpmmCO8S3GmyW9l9VlNY7uWRLn1bpXEcfpxws6lvlRtq1mUroeTaIx4bPmrp+aG mXdtqEumWN1dtZOiIaQqswa4NsXQtKOIWQfZk4MRQgUNcfFHRHhHqmXnjV9W03ytJqOmstterJaq Fmi+sUE88cLKY42HIgSfst1GSmSBYY4wCaKS6d+Yk2naJqmo+agI47DUZbVGjiMEwtlQSRy3MMsh 9NmSrKoarjjxXk3HIDJQJLM47IAROt+ddRQaxHptm4OkmxcXDCOQTpcyIXSNBIGDNG1E5Dr1pthl M70iMBtfVHr55tnfToo9Lv5JtRkuYViVISYpLKb0J1mPq8V4sCeQJUgbE7Vlx+SPD80Kv5m6ERF/ o13W74fotSkY+uiW4FsrQH1KAc2U/vSnwkHpg8UL4Rak/MzSl9Php1/KGRmn9OOEmFkuzYyRyKZQ xdLhSh4Bh3BI3x8UJ8Ip9pGsJrGmvc2ySWsqyTW8kVwql4Z4HaJ1cRu6Nxdf2XIPY5IGwwMaLG9A 8weYZ9H0TUdRu4WWUXkuqLDavV0gDcRCod2UjjX9onpkIyNAlnKIsgL4PzX8rS6DDrretFp00/1c yv6RCtxViSUkdT/eAcFJetRx+FqPiirXwTdIrUfzE0Sx1qfSmgupntFle+uYo1MNuIIFuJPU5Or7 RSIaqpB5ACprQnIAaQMZItHeVPNlh5lsZLyzgnt1icI0dwEDHlGsqspieVCCrjo1QaqwDAjJQnxI nDhYloHnXX5dQn/SN7EbPT5dXfUK2E0SGz0y6a1VobjmVaWqh3VVYUNPhNK1Rmb382yUBW3l9qPP 5veXBpcV+bS95zzGGGz4weqwWAXJkVvW9Er6R6epy5fBx5/DkvGFMfBN0zS2uIrm3iuIiTFMiyRk gqeLCoqrUI2PQ5aGoqmKuxV2KuxV2KuxV2KuxV2KuxV2KuxV2KuxV2KuxVIdM/w5/i3V/qn1j9O+ lb/pP1Prfo+lRvQ4er/o381PS/yvfICrPezN8I7khtf8A/orVvq31/8ARNZOfH9Iehy+snn9R/Zr 9Z6ej3pT4aZEcNHuZnisd/wTvzT/AIa/w7D+nPrX6K9W14en9d9b1PUX6v6n1f8A0j+84/b/AGvt b5KVVuwhd7c2KeYf+VP/AFeT9Mev6n1yT6xz/SP1z1/qbcvUr/pPD6pWlfg49Mrlwdf0tkePp+hG 6h/yrn0b/wCt/pD0PqmnfXvT/Sn93UfU+Xo/H632eX7f83fCeH8WgcX39yK0n/Af6Y0/6l+kPr31 vUfqPq/pX0vrHI/X+XrfuePOv2/h5V474Rw3/ag8VfLuS6P/AJVZxl4ety5RfUP96uVfrx9L9H17 fXP99bfZr+744PR+P0MvX+P0ul/5VV6Scvrv+84r6P6V5cPr55ep6P8Au369X1OXx868sfR+L/HN fX+K/HJlnlT/AA/9Su/0H631f67c/WvX+s8vrfqH6xT618f95X7Pw1rTLIV0a531SPRP8B8dS/Rv 1z6r6d76nL6/9V9PmPrf1P1P3VPU/wB8968dshHh6MpcW1sZ1P8A5Un+jz+k/rtfXvOfrfpP676v 1OD6z6lP3/8AvN6HLl7V35ZA8Fb/AKWweJe36FFP0L/ytHVuf6U+r0l/xD6vr/VPq36OHp/W6/6L 9X9Knp/7u5/a2rg24zz8/ku/AOXl83ofkz9Dfow/or696HwU/SP1v1OHAenw+t/Fw4Upx71r8Vcu hVbNM7vdBeWf8Df4d1f9Get+hfrF5+l/r/1ynrVb67y+vfHTly58fh5cu9cEeGjXJMuKxfNKR/gH 9E6bT9L/AN8P0P8A8dT69/vOf956/v8A0fq1eVPh8fjyPprr9rL1WeX2M+tvS+rRelX0uC+ny5cu NNq8/irTx3y4NJVMVdirsVdirsVdirsVdirsVdirsVdirsVdirsVdir/AP/Z</xmpGImg:image></rdf:li></rdf:Alt></xmp:Thumbnails></rdf:Description><rdf:Description xmlns:xmpMM="http://ns.adobe.com/xap/1.0/mm/" xmlns:stRef="http://ns.adobe.com/xap/1.0/sType/ResourceRef#" xmlns:stEvt="http://ns.adobe.com/xap/1.0/sType/ResourceEvent#"><xmpMM:RenditionClass>proof:pdf</xmpMM:RenditionClass><xmpMM:OriginalDocumentID>uuid:65E6390686CF11DBA6E2D887CEACB407</xmpMM:OriginalDocumentID><xmpMM:DocumentID>xmp.did:0D1DE06E9B66E711BC30C8B554C325DD</xmpMM:DocumentID><xmpMM:InstanceID>xmp.iid:0D1DE06E9B66E711BC30C8B554C325DD</xmpMM:InstanceID><xmpMM:DerivedFrom rdf:parseType="Resource"><stRef:instanceID>uuid:c5b5eddb-66da-6741-a40d-cc810f9d042d</stRef:instanceID><stRef:documentID>xmp.did:FB05051EC465E111835FF2FC000FBA2B</stRef:documentID><stRef:originalDocumentID>uuid:65E6390686CF11DBA6E2D887CEACB407</stRef:originalDocumentID><stRef:renditionClass>proof:pdf</stRef:renditionClass></xmpMM:DerivedFrom><xmpMM:History><rdf:Seq><rdf:li rdf:parseType="Resource"><stEvt:action>saved</stEvt:action><stEvt:instanceID>xmp.iid:0D1DE06E9B66E711BC30C8B554C325DD</stEvt:instanceID><stEvt:when>2017-07-12T10:02:58+09:00</stEvt:when><stEvt:softwareAgent>Adobe Illustrator CS6 (Windows)</stEvt:softwareAgent><stEvt:changed>/</stEvt:changed></rdf:li></rdf:Seq></xmpMM:History></rdf:Description><rdf:Description xmlns:illustrator="http://ns.adobe.com/illustrator/1.0/"><illustrator:StartupProfile>Web</illustrator:StartupProfile></rdf:Description><rdf:Description xmlns:xmpTPg="http://ns.adobe.com/xap/1.0/t/pg/" xmlns:stDim="http://ns.adobe.com/xap/1.0/sType/Dimensions#" xmlns:xmpG="http://ns.adobe.com/xap/1.0/g/"><xmpTPg:NPages>1</xmpTPg:NPages><xmpTPg:HasVisibleTransparency>False</xmpTPg:HasVisibleTransparency><xmpTPg:HasVisibleOverprint>False</xmpTPg:HasVisibleOverprint><xmpTPg:MaxPageSize rdf:parseType="Resource"><stDim:w>319.489746</stDim:w><stDim:h>44.284668</stDim:h><stDim:unit>Pixels</stDim:unit></xmpTPg:MaxPageSize><xmpTPg:PlateNames><rdf:Seq><rdf:li>Cyan</rdf:li><rdf:li>Magenta</rdf:li><rdf:li>Yellow</rdf:li><rdf:li>Black</rdf:li></rdf:Seq></xmpTPg:PlateNames><xmpTPg:SwatchGroups><rdf:Seq><rdf:li rdf:parseType="Resource"><xmpG:groupName>初期設定のスウォッチグループ</xmpG:groupName><xmpG:groupType>0</xmpG:groupType><xmpG:Colorants><rdf:Seq><rdf:li rdf:parseType="Resource"><xmpG:swatchName>ホワイト</xmpG:swatchName><xmpG:mode>RGB</xmpG:mode><xmpG:type>PROCESS</xmpG:type><xmpG:red>255</xmpG:red><xmpG:green>255</xmpG:green><xmpG:blue>255</xmpG:blue></rdf:li><rdf:li rdf:parseType="Resource"><xmpG:swatchName>ブラック</xmpG:swatchName><xmpG:mode>RGB</xmpG:mode><xmpG:type>PROCESS</xmpG:type><xmpG:red>0</xmpG:red><xmpG:green>0</xmpG:green><xmpG:blue>0</xmpG:blue></rdf:li><rdf:li rdf:parseType="Resource"><xmpG:swatchName>RGB レッド</xmpG:swatchName><xmpG:mode>RGB</xmpG:mode><xmpG:type>PROCESS</xmpG:type><xmpG:red>255</xmpG:red><xmpG:green>0</xmpG:green><xmpG:blue>0</xmpG:blue></rdf:li><rdf:li rdf:parseType="Resource"><xmpG:swatchName>RGB イエロー</xmpG:swatchName><xmpG:mode>RGB</xmpG:mode><xmpG:type>PROCESS</xmpG:type><xmpG:red>255</xmpG:red><xmpG:green>255</xmpG:green><xmpG:blue>0</xmpG:blue></rdf:li><rdf:li rdf:parseType="Resource"><xmpG:swatchName>RGB グリーン</xmpG:swatchName><xmpG:mode>RGB</xmpG:mode><xmpG:type>PROCESS</xmpG:type><xmpG:red>0</xmpG:red><xmpG:green>255</xmpG:green><xmpG:blue>0</xmpG:blue></rdf:li><rdf:li rdf:parseType="Resource"><xmpG:swatchName>RGB シアン</xmpG:swatchName><xmpG:mode>RGB</xmpG:mode><xmpG:type>PROCESS</xmpG:type><xmpG:red>0</xmpG:red><xmpG:green>255</xmpG:green><xmpG:blue>255</xmpG:blue></rdf:li><rdf:li rdf:parseType="Resource"><xmpG:swatchName>RGB ブルー</xmpG:swatchName><xmpG:mode>RGB</xmpG:mode><xmpG:type>PROCESS</xmpG:type><xmpG:red>0</xmpG:red><xmpG:green>0</xmpG:green><xmpG:blue>255</xmpG:blue></rdf:li><rdf:li rdf:parseType="Resource"><xmpG:swatchName>RGB マゼンタ</xmpG:swatchName><xmpG:mode>RGB</xmpG:mode><xmpG:type>PROCESS</xmpG:type><xmpG:red>255</xmpG:red><xmpG:green>0</xmpG:green><xmpG:blue>255</xmpG:blue></rdf:li><rdf:li rdf:parseType="Resource"><xmpG:swatchName>R=193 G=39 B=45</xmpG:swatchName><xmpG:mode>RGB</xmpG:mode><xmpG:type>PROCESS</xmpG:type><xmpG:red>193</xmpG:red><xmpG:green>39</xmpG:green><xmpG:blue>45</xmpG:blue></rdf:li><rdf:li rdf:parseType="Resource"><xmpG:swatchName>R=237 G=28 B=36</xmpG:swatchName><xmpG:mode>RGB</xmpG:mode><xmpG:type>PROCESS</xmpG:type><xmpG:red>237</xmpG:red><xmpG:green>28</xmpG:green><xmpG:blue>36</xmpG:blue></rdf:li><rdf:li rdf:parseType="Resource"><xmpG:swatchName>R=241 G=90 B=36</xmpG:swatchName><xmpG:mode>RGB</xmpG:mode><xmpG:type>PROCESS</xmpG:type><xmpG:red>241</xmpG:red><xmpG:green>90</xmpG:green><xmpG:blue>36</xmpG:blue></rdf:li><rdf:li rdf:parseType="Resource"><xmpG:swatchName>R=247 G=147 B=30</xmpG:swatchName><xmpG:mode>RGB</xmpG:mode><xmpG:type>PROCESS</xmpG:type><xmpG:red>247</xmpG:red><xmpG:green>147</xmpG:green><xmpG:blue>30</xmpG:blue></rdf:li><rdf:li rdf:parseType="Resource"><xmpG:swatchName>R=251 G=176 B=59</xmpG:swatchName><xmpG:mode>RGB</xmpG:mode><xmpG:type>PROCESS</xmpG:type><xmpG:red>251</xmpG:red><xmpG:green>176</xmpG:green><xmpG:blue>59</xmpG:blue></rdf:li><rdf:li rdf:parseType="Resource"><xmpG:swatchName>R=252 G=238 B=33</xmpG:swatchName><xmpG:mode>RGB</xmpG:mode><xmpG:type>PROCESS</xmpG:type><xmpG:red>252</xmpG:red><xmpG:green>238</xmpG:green><xmpG:blue>33</xmpG:blue></rdf:li><rdf:li rdf:parseType="Resource"><xmpG:swatchName>R=217 G=224 B=33</xmpG:swatchName><xmpG:mode>RGB</xmpG:mode><xmpG:type>PROCESS</xmpG:type><xmpG:red>217</xmpG:red><xmpG:green>224</xmpG:green><xmpG:blue>33</xmpG:blue></rdf:li><rdf:li rdf:parseType="Resource"><xmpG:swatchName>R=140 G=198 B=63</xmpG:swatchName><xmpG:mode>RGB</xmpG:mode><xmpG:type>PROCESS</xmpG:type><xmpG:red>140</xmpG:red><xmpG:green>198</xmpG:green><xmpG:blue>63</xmpG:blue></rdf:li><rdf:li rdf:parseType="Resource"><xmpG:swatchName>R=57 G=181 B=74</xmpG:swatchName><xmpG:mode>RGB</xmpG:mode><xmpG:type>PROCESS</xmpG:type><xmpG:red>57</xmpG:red><xmpG:green>181</xmpG:green><xmpG:blue>74</xmpG:blue></rdf:li><rdf:li rdf:parseType="Resource"><xmpG:swatchName>R=0 G=146 B=69</xmpG:swatchName><xmpG:mode>RGB</xmpG:mode><xmpG:type>PROCESS</xmpG:type><xmpG:red>0</xmpG:red><xmpG:green>146</xmpG:green><xmpG:blue>69</xmpG:blue></rdf:li><rdf:li rdf:parseType="Resource"><xmpG:swatchName>R=0 G=104 B=55</xmpG:swatchName><xmpG:mode>RGB</xmpG:mode><xmpG:type>PROCESS</xmpG:type><xmpG:red>0</xmpG:red><xmpG:green>104</xmpG:green><xmpG:blue>55</xmpG:blue></rdf:li><rdf:li rdf:parseType="Resource"><xmpG:swatchName>R=34 G=181 B=115</xmpG:swatchName><xmpG:mode>RGB</xmpG:mode><xmpG:type>PROCESS</xmpG:type><xmpG:red>34</xmpG:red><xmpG:green>181</xmpG:green><xmpG:blue>115</xmpG:blue></rdf:li><rdf:li rdf:parseType="Resource"><xmpG:swatchName>R=0 G=169 B=157</xmpG:swatchName><xmpG:mode>RGB</xmpG:mode><xmpG:type>PROCESS</xmpG:type><xmpG:red>0</xmpG:red><xmpG:green>169</xmpG:green><xmpG:blue>157</xmpG:blue></rdf:li><rdf:li rdf:parseType="Resource"><xmpG:swatchName>R=41 G=171 B=226</xmpG:swatchName><xmpG:mode>RGB</xmpG:mode><xmpG:type>PROCESS</xmpG:type><xmpG:red>41</xmpG:red><xmpG:green>171</xmpG:green><xmpG:blue>226</xmpG:blue></rdf:li><rdf:li rdf:parseType="Resource"><xmpG:swatchName>R=0 G=113 B=188</xmpG:swatchName><xmpG:mode>RGB</xmpG:mode><xmpG:type>PROCESS</xmpG:type><xmpG:red>0</xmpG:red><xmpG:green>113</xmpG:green><xmpG:blue>188</xmpG:blue></rdf:li><rdf:li rdf:parseType="Resource"><xmpG:swatchName>R=46 G=49 B=146</xmpG:swatchName><xmpG:mode>RGB</xmpG:mode><xmpG:type>PROCESS</xmpG:type><xmpG:red>46</xmpG:red><xmpG:green>49</xmpG:green><xmpG:blue>146</xmpG:blue></rdf:li><rdf:li rdf:parseType="Resource"><xmpG:swatchName>R=27 G=20 B=100</xmpG:swatchName><xmpG:mode>RGB</xmpG:mode><xmpG:type>PROCESS</xmpG:type><xmpG:red>27</xmpG:red><xmpG:green>20</xmpG:green><xmpG:blue>100</xmpG:blue></rdf:li><rdf:li rdf:parseType="Resource"><xmpG:swatchName>R=102 G=45 B=145</xmpG:swatchName><xmpG:mode>RGB</xmpG:mode><xmpG:type>PROCESS</xmpG:type><xmpG:red>102</xmpG:red><xmpG:green>45</xmpG:green><xmpG:blue>145</xmpG:blue></rdf:li><rdf:li rdf:parseType="Resource"><xmpG:swatchName>R=147 G=39 B=143</xmpG:swatchName><xmpG:mode>RGB</xmpG:mode><xmpG:type>PROCESS</xmpG:type><xmpG:red>147</xmpG:red><xmpG:green>39</xmpG:green><xmpG:blue>143</xmpG:blue></rdf:li><rdf:li rdf:parseType="Resource"><xmpG:swatchName>R=158 G=0 B=93</xmpG:swatchName><xmpG:mode>RGB</xmpG:mode><xmpG:type>PROCESS</xmpG:type><xmpG:red>158</xmpG:red><xmpG:green>0</xmpG:green><xmpG:blue>93</xmpG:blue></rdf:li><rdf:li rdf:parseType="Resource"><xmpG:swatchName>R=212 G=20 B=90</xmpG:swatchName><xmpG:mode>RGB</xmpG:mode><xmpG:type>PROCESS</xmpG:type><xmpG:red>212</xmpG:red><xmpG:green>20</xmpG:green><xmpG:blue>90</xmpG:blue></rdf:li><rdf:li rdf:parseType="Resource"><xmpG:swatchName>R=237 G=30 B=121</xmpG:swatchName><xmpG:mode>RGB</xmpG:mode><xmpG:type>PROCESS</xmpG:type><xmpG:red>237</xmpG:red><xmpG:green>30</xmpG:green><xmpG:blue>121</xmpG:blue></rdf:li><rdf:li rdf:parseType="Resource"><xmpG:swatchName>R=199 G=178 B=153</xmpG:swatchName><xmpG:mode>RGB</xmpG:mode><xmpG:type>PROCESS</xmpG:type><xmpG:red>199</xmpG:red><xmpG:green>178</xmpG:green><xmpG:blue>153</xmpG:blue></rdf:li><rdf:li rdf:parseType="Resource"><xmpG:swatchName>R=153 G=134 B=117</xmpG:swatchName><xmpG:mode>RGB</xmpG:mode><xmpG:type>PROCESS</xmpG:type><xmpG:red>153</xmpG:red><xmpG:green>134</xmpG:green><xmpG:blue>117</xmpG:blue></rdf:li><rdf:li rdf:parseType="Resource"><xmpG:swatchName>R=115 G=99 B=87</xmpG:swatchName><xmpG:mode>RGB</xmpG:mode><xmpG:type>PROCESS</xmpG:type><xmpG:red>115</xmpG:red><xmpG:green>99</xmpG:green><xmpG:blue>87</xmpG:blue></rdf:li><rdf:li rdf:parseType="Resource"><xmpG:swatchName>R=83 G=71 B=65</xmpG:swatchName><xmpG:mode>RGB</xmpG:mode><xmpG:type>PROCESS</xmpG:type><xmpG:red>83</xmpG:red><xmpG:green>71</xmpG:green><xmpG:blue>65</xmpG:blue></rdf:li><rdf:li rdf:parseType="Resource"><xmpG:swatchName>R=198 G=156 B=109</xmpG:swatchName><xmpG:mode>RGB</xmpG:mode><xmpG:type>PROCESS</xmpG:type><xmpG:red>198</xmpG:red><xmpG:green>156</xmpG:green><xmpG:blue>109</xmpG:blue></rdf:li><rdf:li rdf:parseType="Resource"><xmpG:swatchName>R=166 G=124 B=82</xmpG:swatchName><xmpG:mode>RGB</xmpG:mode><xmpG:type>PROCESS</xmpG:type><xmpG:red>166</xmpG:red><xmpG:green>124</xmpG:green><xmpG:blue>82</xmpG:blue></rdf:li><rdf:li rdf:parseType="Resource"><xmpG:swatchName>R=140 G=98 B=57</xmpG:swatchName><xmpG:mode>RGB</xmpG:mode><xmpG:type>PROCESS</xmpG:type><xmpG:red>140</xmpG:red><xmpG:green>98</xmpG:green><xmpG:blue>57</xmpG:blue></rdf:li><rdf:li rdf:parseType="Resource"><xmpG:swatchName>R=117 G=76 B=36</xmpG:swatchName><xmpG:mode>RGB</xmpG:mode><xmpG:type>PROCESS</xmpG:type><xmpG:red>117</xmpG:red><xmpG:green>76</xmpG:green><xmpG:blue>36</xmpG:blue></rdf:li><rdf:li rdf:parseType="Resource"><xmpG:swatchName>R=96 G=56 B=19</xmpG:swatchName><xmpG:mode>RGB</xmpG:mode><xmpG:type>PROCESS</xmpG:type><xmpG:red>96</xmpG:red><xmpG:green>56</xmpG:green><xmpG:blue>19</xmpG:blue></rdf:li><rdf:li rdf:parseType="Resource"><xmpG:swatchName>R=66 G=33 B=11</xmpG:swatchName><xmpG:mode>RGB</xmpG:mode><xmpG:type>PROCESS</xmpG:type><xmpG:red>66</xmpG:red><xmpG:green>33</xmpG:green><xmpG:blue>11</xmpG:blue></rdf:li></rdf:Seq></xmpG:Colorants></rdf:li><rdf:li rdf:parseType="Resource"><xmpG:groupName>グレー</xmpG:groupName><xmpG:groupType>1</xmpG:groupType><xmpG:Colorants><rdf:Seq><rdf:li rdf:parseType="Resource"><xmpG:swatchName>R=0 G=0 B=0</xmpG:swatchName><xmpG:mode>RGB</xmpG:mode><xmpG:type>PROCESS</xmpG:type><xmpG:red>0</xmpG:red><xmpG:green>0</xmpG:green><xmpG:blue>0</xmpG:blue></rdf:li><rdf:li rdf:parseType="Resource"><xmpG:swatchName>R=26 G=26 B=26</xmpG:swatchName><xmpG:mode>RGB</xmpG:mode><xmpG:type>PROCESS</xmpG:type><xmpG:red>26</xmpG:red><xmpG:green>26</xmpG:green><xmpG:blue>26</xmpG:blue></rdf:li><rdf:li rdf:parseType="Resource"><xmpG:swatchName>R=51 G=51 B=51</xmpG:swatchName><xmpG:mode>RGB</xmpG:mode><xmpG:type>PROCESS</xmpG:type><xmpG:red>51</xmpG:red><xmpG:green>51</xmpG:green><xmpG:blue>51</xmpG:blue></rdf:li><rdf:li rdf:parseType="Resource"><xmpG:swatchName>R=77 G=77 B=77</xmpG:swatchName><xmpG:mode>RGB</xmpG:mode><xmpG:type>PROCESS</xmpG:type><xmpG:red>77</xmpG:red><xmpG:green>77</xmpG:green><xmpG:blue>77</xmpG:blue></rdf:li><rdf:li rdf:parseType="Resource"><xmpG:swatchName>R=102 G=102 B=102</xmpG:swatchName><xmpG:mode>RGB</xmpG:mode><xmpG:type>PROCESS</xmpG:type><xmpG:red>102</xmpG:red><xmpG:green>102</xmpG:green><xmpG:blue>102</xmpG:blue></rdf:li><rdf:li rdf:parseType="Resource"><xmpG:swatchName>R=128 G=128 B=128</xmpG:swatchName><xmpG:mode>RGB</xmpG:mode><xmpG:type>PROCESS</xmpG:type><xmpG:red>128</xmpG:red><xmpG:green>128</xmpG:green><xmpG:blue>128</xmpG:blue></rdf:li><rdf:li rdf:parseType="Resource"><xmpG:swatchName>R=153 G=153 B=153</xmpG:swatchName><xmpG:mode>RGB</xmpG:mode><xmpG:type>PROCESS</xmpG:type><xmpG:red>153</xmpG:red><xmpG:green>153</xmpG:green><xmpG:blue>153</xmpG:blue></rdf:li><rdf:li rdf:parseType="Resource"><xmpG:swatchName>R=179 G=179 B=179</xmpG:swatchName><xmpG:mode>RGB</xmpG:mode><xmpG:type>PROCESS</xmpG:type><xmpG:red>179</xmpG:red><xmpG:green>179</xmpG:green><xmpG:blue>179</xmpG:blue></rdf:li><rdf:li rdf:parseType="Resource"><xmpG:swatchName>R=204 G=204 B=204</xmpG:swatchName><xmpG:mode>RGB</xmpG:mode><xmpG:type>PROCESS</xmpG:type><xmpG:red>204</xmpG:red><xmpG:green>204</xmpG:green><xmpG:blue>204</xmpG:blue></rdf:li><rdf:li rdf:parseType="Resource"><xmpG:swatchName>R=230 G=230 B=230</xmpG:swatchName><xmpG:mode>RGB</xmpG:mode><xmpG:type>PROCESS</xmpG:type><xmpG:red>230</xmpG:red><xmpG:green>230</xmpG:green><xmpG:blue>230</xmpG:blue></rdf:li><rdf:li rdf:parseType="Resource"><xmpG:swatchName>R=242 G=242 B=242</xmpG:swatchName><xmpG:mode>RGB</xmpG:mode><xmpG:type>PROCESS</xmpG:type><xmpG:red>242</xmpG:red><xmpG:green>242</xmpG:green><xmpG:blue>242</xmpG:blue></rdf:li></rdf:Seq></xmpG:Colorants></rdf:li><rdf:li rdf:parseType="Resource"><xmpG:groupName>Web カラーグループ</xmpG:groupName><xmpG:groupType>1</xmpG:groupType><xmpG:Colorants><rdf:Seq><rdf:li rdf:parseType="Resource"><xmpG:swatchName>R=63 G=169 B=245</xmpG:swatchName><xmpG:mode>RGB</xmpG:mode><xmpG:type>PROCESS</xmpG:type><xmpG:red>63</xmpG:red><xmpG:green>169</xmpG:green><xmpG:blue>245</xmpG:blue></rdf:li><rdf:li rdf:parseType="Resource"><xmpG:swatchName>R=122 G=201 B=67</xmpG:swatchName><xmpG:mode>RGB</xmpG:mode><xmpG:type>PROCESS</xmpG:type><xmpG:red>122</xmpG:red><xmpG:green>201</xmpG:green><xmpG:blue>67</xmpG:blue></rdf:li><rdf:li rdf:parseType="Resource"><xmpG:swatchName>R=255 G=147 B=30</xmpG:swatchName><xmpG:mode>RGB</xmpG:mode><xmpG:type>PROCESS</xmpG:type><xmpG:red>255</xmpG:red><xmpG:green>147</xmpG:green><xmpG:blue>30</xmpG:blue></rdf:li><rdf:li rdf:parseType="Resource"><xmpG:swatchName>R=255 G=29 B=37</xmpG:swatchName><xmpG:mode>RGB</xmpG:mode><xmpG:type>PROCESS</xmpG:type><xmpG:red>255</xmpG:red><xmpG:green>29</xmpG:green><xmpG:blue>37</xmpG:blue></rdf:li><rdf:li rdf:parseType="Resource"><xmpG:swatchName>R=255 G=123 B=172</xmpG:swatchName><xmpG:mode>RGB</xmpG:mode><xmpG:type>PROCESS</xmpG:type><xmpG:red>255</xmpG:red><xmpG:green>123</xmpG:green><xmpG:blue>172</xmpG:blue></rdf:li><rdf:li rdf:parseType="Resource"><xmpG:swatchName>R=189 G=204 B=212</xmpG:swatchName><xmpG:mode>RGB</xmpG:mode><xmpG:type>PROCESS</xmpG:type><xmpG:red>189</xmpG:red><xmpG:green>204</xmpG:green><xmpG:blue>212</xmpG:blue></rdf:li></rdf:Seq></xmpG:Colorants></rdf:li></rdf:Seq></xmpTPg:SwatchGroups></rdf:Description><rdf:Description xmlns:pdf="http://ns.adobe.com/pdf/1.3/"><pdf:Producer>Adobe PDF library 10.01</pdf:Producer></rdf:Description></rdf:RDF></x:xmpmeta><?xpacket end="w"?></metadata><g><g fill="#210701"><path d="M11.753 8.528c.155.208 3.926 4.55 6.968 6.526.442.286 2.393 1.456 2.73 1.742.156.104.572.468.572.962 0 .598-.625.78-1.093.78-.754 0-2.729 0-9.178-7.8-.313-.364-1.587-1.977-1.872-2.288-.131-.131-.442-.39-.78-.39-.442 0-.468 0-4.134 3.405-.677.624-.729.677-1.171 1.326-.26.391-.728.807-1.3.807-.52 0-.857-.13-2.184-1.509C.208 11.96 0 11.752 0 11.285c0-.13.026-.312.182-.312.131 0 .677.104.807.104 1.196 0 2.521-.494 5.772-3.12C7.982 6.968 8.398 6.63 9.127 6.63c1.039 0 1.924 1.015 2.626 1.898zm7.67-1.69c0 1.404-1.144 2.548-2.47 2.548-1.196 0-2.522-.988-2.522-2.522 0-1.299 1.014-2.495 2.548-2.495 1.872 0 2.444 1.612 2.444 2.469zm-4.134.079c0 1.118.987 1.586 1.689 1.586 1.118 0 1.612-.988 1.612-1.586 0-1.015-.962-1.664-1.664-1.664-.597-.001-1.637.52-1.637 1.664zm21.891 7.306a.945.945 0 01-.884.987c-.572 0-.754-.598-.936-1.17-.234-.728-.807-1.742-1.509-2.626-.13-.182-.182-.26-.182-.338 0-.156.156-.234.338-.234.625 0 3.173 1.301 3.173 3.381zm8.035-5.356c0-.026-.053-.156-.053-.234 0-.13.104-.182.183-.182.208 0 .987.546 1.17.65.416.208 1.456.832 1.456 1.585 0 .208-.104.234-.546.495-.208.129-1.118 1.897-1.326 2.235-3.979 6.604-10.375 9.179-10.583 9.179-.078 0-.155-.078-.155-.156 0-.13 1.222-.91 1.456-1.092 5.538-4.238 8.58-9.126 8.58-11.363-.001-.52-.052-.806-.182-1.117zm-4.057 2.522c0 .754-.416 1.326-.884 1.326-.572 0-.702-.649-.78-1.092-.182-.832-.26-1.065-.962-2.471-.052-.104-.286-.467-.286-.571 0-.078.13-.156.26-.13 1.223.181 2.652 1.482 2.652 2.938zm26.391-9.205c.936 0 2.808.832 2.808 1.664 0 .182-.26.937-.312 1.092-.13.65-.234 2.963-.234 3.614 0 .572.104.65.858.832 1.586.364 5.616 2.262 5.616 4.213 0 .857-.807.91-.937.91-.649 0-.728-.104-2.47-2.366-.729-.962-1.95-2.185-2.756-2.185-.26 0-.364 0-.364 1.924 0 2.756.026 4.135.13 6.475.026.286.052.937.052 1.326 0 .65 0 2.366-.754 2.366-.78 0-1.456-1.768-1.456-2.444 0-.104.104-.65.104-.754.182-2.158.233-2.834.233-6.032 0-7.437 0-8.269-.312-9.101-.208-.546-.468-.806-.884-1.196l-.051-.104c.027-.234.702-.234.729-.234zm27.508 5.643c-.156-.234-.183-.286-.183-.364 0-.13.104-.156.234-.156 1.378 0 3.302 1.534 3.302 2.211 0 .233-.13.312-.468.545-.39.234-.546.495-1.066 1.222-3.146 4.498-7.514 6.136-7.878 6.136a.2.2 0 01-.208-.182c0-.104.078-.182.728-.702 4.005-3.328 5.824-6.916 5.824-7.852 0-.416-.13-.624-.285-.858zm7.462-.182c.13 0 1.3.467 2.601 1.352 1.846 1.274 4.186 3.718 4.186 5.46 0 .39-.182 1.508-1.3 1.508-.937 0-1.378-.936-1.794-2.288-.572-1.768-1.04-2.834-2.704-4.628-.183-.182-1.17-1.092-1.17-1.17-.001-.13.051-.234.181-.234zm7.124-.52c0 .442-.312 1.014-.754 1.014-.364 0-.572-.156-1.378-1.144-.39-.494-.572-.65-1.82-1.561-.26-.182-.39-.26-.39-.364 0-.104.208-.233.441-.233 3.069-.001 3.901 1.793 3.901 2.288zm2.288-2.575c0 .312-.208.754-.649.754-.547 0-.832-.338-1.353-.936-.416-.442-1.481-1.066-2.34-1.378-.26-.079-.338-.183-.338-.261 0-.208.649-.363.962-.363 3.198.001 3.718 1.69 3.718 2.184zm19.525 2.237c-.182 0-5.642 1.274-5.772 1.325-.182.053-.987.495-1.17.495-.39 0-1.611-.78-1.768-.936-.183-.182-.624-1.326-.624-1.508 0-.13.025-.208.155-.208.026 0 .599.156.677.182.806.234 1.118.261 1.378.261.884 0 5.772-.416 7.124-.963.234-.104 1.196-.806 1.431-.806.623 0 2.21 1.326 2.21 1.977 0 .233-.962.936-1.118 1.117-.521.624-2.574 3.667-2.99 4.265-.104.13-.208.312-.208.52 0 .234.052.286 1.144.885 1.17.676 5.824 3.302 5.824 5.668 0 .598-.468 1.144-1.065 1.144-.599 0-.702-.182-1.612-1.794-1.794-3.146-4.082-5.122-4.654-5.122-.26 0-.338.078-.91.729-.91.962-3.562 3.874-6.942 5.563-.702.339-1.403.598-1.611.598-.053 0-.183 0-.183-.156 0-.104 1.04-.858 1.196-.962 6.786-4.914 9.88-11.648 9.803-12.064-.055-.21-.263-.21-.315-.21zm23.063 6.526c-1.56 3.38-4.29 4.939-4.811 4.939-.104 0-.13-.078-.13-.13 0-.208.832-1.118 1.04-1.378 2.86-3.926 3.146-6.76 3.146-7.618 0-.676-.026-.962-.442-2.236-.052-.182-.104-.338-.104-.468 0-.078.025-.13.13-.13.182 0 2.938.884 2.938 2.21.001.079-1.325 3.823-1.767 4.811zm4.211 2.418c0-.13.13-.806.156-.937.078-.494.104-2.548.104-3.198 0-3.172-.312-4.238-.493-4.888-.053-.13-.339-.807-.339-.936 0-.104.104-.131.156-.131.13 0 2.861.468 2.861 1.82 0 .312-.365 1.664-.416 1.95-.105.702-.209 3.848-.209 4.706 0 .338.027.858.494.858.781 0 3.172-1.716 5.668-4.238.443-.442 2.652-2.782 2.756-2.782.053 0 .105.052.105.104 0 .208-1.508 3.432-6.059 7.436-1.352 1.17-1.613 1.43-1.795 1.664-.441.494-.676.676-.857.702-.754.132-2.132-1.403-2.132-2.13zm37.936-4.94c.154 0 .441-.025.57-.025 1.586 0 1.82.962 1.82 1.144 0 .728-1.066.806-2.158.806-.598 0-3.197-.052-3.717-.052-3.588 0-9.543.338-10.168.468-.311.053-1.715.469-2.027.469-1.117 0-2.314-1.612-2.314-2.497 0-.155.078-.312.209-.312.129 0 .754.286.883.312.443.13 1.51.234 3.174.234.856-.002 9.931-.339 13.728-.547zm17.576 4.862c.805 0 2.547-.156 5.979-.754 3.822-.65 3.822-.78 3.822-1.092 0-.313-.232-.807-.754-1.534-.207-.338-.598-.91-.598-.988s.078-.156.182-.156c.754 0 4.682 3.198 4.682 5.746 0 1.742-1.248 1.82-1.432 1.82-.883 0-.988-.65-1.326-2.366-.232-1.248-.338-1.482-.727-1.482-.131 0-6.008 1.794-7.125 2.106-.701.182-4.107.962-4.342 1.066-.182.078-.807.832-.988.832-.234 0-.234-.026-1.379-1.145-.311-.312-.676-1.82-.676-2.08 0-.078 0-.182.105-.182.129 0 .648.208.754.234.207.052.623.13.936.13 1.092 0 1.611-.338 3.016-2.887 1.145-2.106 3.484-6.838 3.484-8.814 0-.13-.053-.754-.053-.858 0-.131.027-.286.184-.286.182 0 2.572 1.742 2.572 2.652 0 .441-.285.702-.805 1.196-.416.39-3.406 5.069-4.057 6.006-.285.39-1.768 2.314-1.795 2.418-.025.262.106.418.341.418zm27.195-8.736c.467.286.52.313.52.468 0 .13-.469.598-.52.728-.184.365-.184 3.303-.184 3.979 0 .962.027 6.656.105 8.425 0 .234.104 1.326.104 1.56 0 1.223-.857 1.69-1.326 1.69-.65 0-.65-.65-.65-.988 0-1.534.104-9.1.104-10.79 0-.521 0-.806-.051-2.054 0-.131-.025-.729-.313-.729-.156 0-.313.182-.701.598-.131.131-2.158 2.185-2.523 2.185-.104 0-.156-.052-.156-.156 0-.078.053-.156.184-.312.883-1.196 1.924-2.86 2.729-4.161 2.029-3.329 2.836-6.163 2.861-6.474.077-.782.077-.886.284-.886.365 0 2.627 1.274 2.627 1.69 0 .208-.131.261-.547.494-.311.156-2.912 3.979-2.834 4.421.027.129.182.259.287.312zM252.955 13c-.701 0-.729.156-.807 1.612-.051 1.04-.338 2.574-.598 3.692.131.442 3.953 2.21 7.854 2.21.779 0 .986 0 .986.13 0 .078-.311.286-.389.364-.729.754-1.041 1.092-1.275 1.56-.232.494-.26.546-.389.546-.287 0-2.574-.416-5.902-2.365-.26-.157-1.248-.91-1.508-.91-.182 0-.703.702-1.041 1.014-.988.937-2.574 2.08-6.006 2.626a6.277 6.277 0 01-.676.078c-.104 0-.209-.078-.209-.13 0-.156.027-.183.832-.416 4.604-1.326 5.643-4.03 5.643-4.291 0-.156-.234-.39-.676-.858-1.533-1.534-2.027-3.354-2.027-3.64 0-.208.129-.261.207-.261.156 0 .234.156.391.494.729 1.664 2.34 2.99 2.521 2.99.287 0 .52-2.496.52-3.51 0-.391-.051-.937-.832-.937h-2.547c-.469 0-.52.13-.729.676-.129.364-.494.598-1.248.598-.182 0-.676 0-.676-.754 0-.468.078-2.497.078-2.913 0-.52-.078-2.834-.078-3.302 0-.312.053-.39.26-.39.209 0 1.041.468 1.223.546.416.208.65.26 1.326.26h2.418c.754 0 .754-.52.754-.624 0-2.288 0-2.574-.807-2.574h-1.145c-.598 0-2.365 0-3.275.078-.104 0-.469.052-.547.052-.104 0-.154-.052-.232-.155l-.521-.596c-.078-.104-.104-.13-.104-.157 0-.051.025-.077.104-.077.184 0 .988.077 1.145.104 1.197.052 2.34.078 3.563.078h.963c.545 0 .727-.234.727-.676 0-.468-.051-1.04-.078-1.353-.025-.208-.182-1.17-.182-1.378 0-.312.156-.363.391-.363.285 0 2.34.285 2.34.857 0 .13-.363.52-.391.624-.104.338-.129.702-.129 1.664 0 .624.52.624.779.624h2.002c1.17 0 1.301 0 1.664-.441.729-.858.807-.963 1.066-.963.338 0 2.002 1.431 2.002 1.717 0 .364-.547.364-1.404.364h-5.33c-.156 0-.779 0-.779.676 0 2.444 0 2.521.754 2.521h2.625c.65 0 .781-.077 1.066-.442.26-.337.441-.416.598-.416.391 0 1.82.937 1.82 1.223 0 .156-.025.183-.389.468-.469.364-.469.547-.469 2.185 0 .442.053 2.522 0 2.834-.025.364-.52.936-1.145.936-.623 0-.676-.442-.729-.988-.025-.208-.051-.521-.648-.521h-2.705zm-5.825-4.602c-.832 0-.832.208-.832 1.951 0 1.794 0 1.976.832 1.976h2.471c.832 0 .832-.182.832-1.95s0-1.976-.832-1.976h-2.471zm8.502 3.927c.547 0 .729-.26.729-.754 0-.313 0-2.548-.025-2.652-.027-.233-.131-.52-.703-.52h-2.678c-.363 0-.754.079-.754.728 0 .364 0 2.601.025 2.704.053.286.209.494.729.494h2.677zm15.731 2.469c-.754 0-.754.208-.859 1.145-.441 4.55-3.328 7.332-3.717 7.332-.105 0-.156-.078-.156-.13 0-.026.623-1.04.727-1.248 1.066-2.21 1.51-4.498 1.51-10.973 0-2.054-.053-6.318-.234-8.242-.027-.286-.209-1.768-.209-1.82 0-.155.027-.208.182-.208.287 0 1.016.313 1.301.442.91.468 1.223.598 2.055.598h12.715c.57 0 .727-.13.91-.312.441-.468.467-.521.648-.521.209 0 2.107 1.066 2.107 1.482 0 .234-.209.39-.416.494-.6.312-.676.338-.676 2.808 0 2.132.154 11.727.154 13.937 0 1.145 0 4.03-2.418 4.03-.232 0-.26-.052-.441-.571-.363-.937-1.949-1.482-2.184-1.534-.078-.026-.469-.104-.469-.261 0-.104.182-.155.313-.155.338 0 1.977.129 2.34.129 1.014 0 1.041-.286 1.041-3.588 0-.338 0-2.158-.053-2.366-.104-.468-.494-.468-.779-.468h-5.279c-.701 0-.832.26-.807 1.015.027 1.872.027 4.004.027 6.006 0 .494-.078.676-.26.858-.234.208-.703.468-1.223.468s-.547-.338-.547-.676c0-.961.156-5.746.156-6.838 0-.572-.182-.832-.805-.832h-4.654zm4.73-7.175c.781 0 .781 0 .781-2.626 0-2.522 0-2.601-.781-2.601h-4.73c-.781 0-.781.104-.781 2.262 0 2.965.027 2.965.807 2.965h4.704zm0 6.474c.234 0 .547-.026.678-.312.104-.208.104-2.704.104-3.042 0-2.314 0-2.419-.781-2.419h-4.73c-.287 0-.625.053-.729.469-.025.13-.025 3.796-.025 4.395 0 .416 0 .91.754.91h4.729zm3.356-11.701c-.338 0-.676.052-.781.468-.025.156-.025 3.146-.025 3.77 0 .546 0 .988.807.988h5.174c.807 0 .807-.286.807-1.769 0-3.458-.027-3.458-.859-3.458h-5.123zm0 5.928c-.807 0-.807.079-.807 2.471 0 .416 0 2.756.104 2.964.131.338.521.338.703.338h5.305c.779 0 .779-.182.779-1.898 0-3.822-.025-3.875-.832-3.875h-5.252zm23.556.989c-.156 0-.781.025-.781.441 0 .104.105.208.209.26 1.482.78 4.057 2.652 4.057 4.057 0 .364-.209 1.092-.938 1.092-.494 0-.598-.312-.91-1.3-.623-1.95-2.236-3.433-2.34-3.433-.129 0-.129.078-.129.572 0 .624.051 3.666.051 4.342.027.988.105 5.772.105 6.864 0 1.196-1.119 1.378-1.248 1.378-.313 0-.729-.234-.729-.807 0-.572.207-3.38.234-4.004.025-.338.154-4.992.154-5.227 0-.155-.051-.286-.232-.286-.131 0-.184.078-.572.832-1.066 1.95-3.355 5.044-3.693 5.044-.051 0-.078-.026-.078-.078 0-.052.365-.702.443-.832 2.859-5.513 3.354-8.165 3.354-8.347a.562.562 0 00-.598-.571c-.469 0-1.898.077-2.34.104-.053 0-.313.026-.365.026-.104 0-.154-.052-.232-.156l-.494-.598c-.131-.131-.131-.131-.131-.183s.053-.052.104-.052c.131 0 .781.078.938.078.494.026 2.859.104 3.197.104.625 0 .779-.234.779-.754 0-1.481-.051-4.135-.104-5.512-.025-.287-.182-1.612-.182-1.898 0-.13.053-.286.207-.286.053 0 2.574.494 2.574.962 0 .13-.051.156-.26.364-.207.156-.416.39-.572 1.066 0 .052-.232 5.096-.232 5.355 0 .702.494.702.91.702.285 0 .857 0 1.064-.182.156-.156.885-1.222 1.145-1.222.131 0 2.027 1.377 2.027 1.741 0 .339-.285.339-.986.339h-3.406zm-4.603-2.237c-.52 0-.598-.415-.832-1.56-.26-1.196-.857-2.158-1.248-2.808-.025-.052-.078-.129-.078-.208 0-.104.105-.156.184-.156.441 0 3.016 1.82 3.016 3.484-.001.963-.782 1.248-1.042 1.248zm4.992.442c-.025 0-.051 0-.051-.077 0-.079.494-1.119.598-1.327.494-1.144 1.117-3.094 1.17-4.186 0-.078.025-.234.156-.234.207 0 2.08 1.274 2.08 1.561 0 .156-.156.26-.234.312-.156.078-.572.286-.807.521-.078.077-2.599 3.43-2.912 3.43zm5.408 8.711c-1.117.233-2.496.546-3.197.754-.104.026-.469.156-.572.156-.078 0-.131-.026-.207-.104l-.625-.494c-.131-.104-.131-.104-.131-.156s.053-.052.703-.13a72.022 72.022 0 004.029-.702l4.057-.858c.807-.182.807-.884.807-.937 0-4.784-.131-9.594-.26-11.284-.027-.286-.234-1.638-.234-1.924 0-.13.078-.234.207-.234.156 0 2.68.442 2.68.884 0 .156-.494.624-.572.729a3.934 3.934 0 00-.26.884c0 .104-.027 4.16-.027 4.888 0 1.171 0 5.045.027 5.929 0 .234.232.442.492.442.105 0 .494-.078.625-.313.156-.26.65-1.534.91-1.534.078 0 2.236 1.014 2.236 1.43 0 .39-.781.572-.91.598l-2.6.521c-.443.078-.703.39-.703.832 0 1.092.26 6.214.26 6.76 0 .91-.832 1.326-1.326 1.326-.441 0-.754-.338-.754-.858 0-.233.078-1.352.078-1.586.027-1.066.104-4.004.104-4.732 0-.624 0-1.274-.754-1.118l-4.083.831zm1.873-3.927c-.547 0-.625-.312-.807-.91-.129-.468-1.066-2.184-1.768-2.886-.131-.13-.26-.233-.26-.338 0-.078.104-.104.156-.104.416 0 3.535 1.325 3.535 3.171.002 1.042-.727 1.067-.856 1.067zm.235-6.525c-.494 0-.781-.572-.988-.963-.416-.806-.676-1.04-1.535-1.846-.129-.13-.156-.156-.156-.234s.053-.078.184-.078c.078 0 3.223.494 3.223 2.133-.002.103-.002.988-.728.988z"/></g><g fill="#4A1F00"><path d="M5.707 33.575c.456 0 3.418 0 3.418 2.267 0 1.247-.959 2.339-3.106 2.339H4.868c-.324 0-.324.096-.324 1.008 0 2.194 0 2.206.132 2.41.192.275.492.336.804.336.264 0 .408 0 .408.191 0 .192-.168.192-.336.192H2.589c-.18 0-.348 0-.348-.192 0-.191.18-.191.3-.191.408 0 .923 0 1.043-.624.036-.191.036-.204.036-3.394 0-.563 0-3.13-.036-3.334-.108-.576-.624-.612-.912-.612-.3 0-.432 0-.432-.191 0-.204.168-.204.348-.204h3.119zm.072 4.21c1.583 0 2.207-.876 2.207-1.896 0-1.319-.971-1.919-2.063-1.919h-.516c-.863 0-.863.528-.863 1.571 0 .168 0 1.871.012 1.979.024.18.156.264.312.264h.911zm6.289 1.391c-.156 0-.384 0-.384.383 0 1.463.996 2.471 1.991 2.471.552 0 1.08-.323 1.451-.672.072-.06.348-.467.456-.467.06 0 .12.06.12.155 0 .264-.839 1.499-2.422 1.499-1.679 0-2.626-1.331-2.626-3.07 0-1.99 1.235-3.046 2.542-3.046 1.859 0 2.387 1.967 2.387 2.471 0 .216-.12.276-.36.276h-3.155zm2.207-.396c.264 0 .396-.06.396-.348 0-.456-.432-1.68-1.439-1.68-1.116 0-1.463 1.5-1.463 1.764s.204.264.312.264h2.194zm3.098-1.739c-.132 0-.324 0-.324-.191 0-.156.06-.168.408-.216.192-.024 1.199-.264 1.199-1.799 0-.108 0-.276.156-.276.192 0 .192.18.192.252v1.547c0 .108.036.3.3.3h1.271c.12 0 .336.024.336.192 0 .071-.072.191-.324.191h-1.283c-.036 0-.216.013-.276.156-.048.132-.048 1.476-.048 1.715 0 .36 0 2.278.036 2.446.156.672.708.672.828.672.252 0 .54-.096.804-.3.072-.048.348-.323.432-.323.048 0 .072.048.072.096 0 .216-.743 1.043-1.751 1.043-1.259 0-1.259-.947-1.259-2.158 0-.036.024-2.639 0-3.047 0-.06-.012-.3-.3-.3h-.469zm13.27-3.466c1.343 0 3.046.444 3.046 1.931 0 .936-.696 1.655-1.451 1.943-.072.024-.288.108-.288.168s.504.168.6.203c1.031.408 1.643 1.248 1.643 2.087 0 1.14-1.02 2.411-3.262 2.411h-4.018c-.18 0-.36 0-.36-.192 0-.191.18-.191.372-.191.396 0 .924 0 1.032-.624.048-.239.072-3.621.072-4.089 0-.528.012-2.483-.108-2.807-.156-.444-.72-.444-.839-.444-.396 0-.528 0-.528-.203 0-.192.12-.192.468-.192h3.621zM29.24 37.88c-.084 0-.228.048-.276.155-.048.108-.048 1.812-.048 2.088 0 1.307 0 1.811.875 1.811h1.043c1.295 0 2.219-.731 2.219-1.99 0-1.056-.72-2.063-2.183-2.063h-1.63zm1.295-.383c1.127 0 2.039-.6 2.039-1.823 0-1.163-.803-1.703-1.931-1.703h-.852c-.864 0-.864.54-.864 1.583 0 .6 0 1.68.036 1.787.048.108.204.156.276.156h1.296zm9.539.563c.012.408-.012 2.363-.012 2.807 0 .563 0 1.067.479 1.067.12 0 .312-.072.384-.132a.462.462 0 01.096-.072c.024 0 .06.013.06.072 0 .216-.492.743-1.008.743-.384 0-.695-.287-.792-.539-.024-.084-.06-.192-.168-.192-.072 0-.18.084-.288.168-.468.36-1.056.563-1.583.563-.72 0-1.523-.383-1.523-1.271 0-1.427 2.015-2.038 2.71-2.242.72-.216.792-.24.792-.863 0-1.031-.576-1.416-1.127-1.416-.792 0-.924.564-.959.732-.084.359-.168.791-.636.791a.569.569 0 01-.564-.587c0-.708 1.164-1.26 2.171-1.26.949 0 1.944.432 1.968 1.631zm-.935 3.214c.06-.144.084-.191.084-1.606 0-.24 0-.444-.251-.444-.432 0-2.231.804-2.231 1.931 0 .324.204.876 1.031.876.408-.001 1.199-.361 1.367-.757zm3.29-4.233c-.132 0-.324 0-.324-.191 0-.156.06-.168.408-.216.192-.024 1.199-.264 1.199-1.799 0-.108 0-.276.156-.276.192 0 .192.18.192.252v1.547c0 .108.036.3.3.3h1.271c.12 0 .336.024.336.192 0 .071-.072.191-.324.191H44.36c-.036 0-.216.013-.276.156-.048.132-.048 1.476-.048 1.715 0 .36 0 2.278.036 2.446.156.672.708.672.828.672.252 0 .54-.096.804-.3.072-.048.348-.323.432-.323.048 0 .072.048.072.096 0 .216-.743 1.043-1.751 1.043-1.259 0-1.259-.947-1.259-2.158 0-.036.024-2.639 0-3.047 0-.06-.012-.3-.3-.3h-.469zm5.04 5.277c-.096 0-.324 0-.324-.192 0-.191.192-.191.3-.191.408-.012.516-.3.54-.359.084-.24.084-.756.084-5.397 0-.359 0-1.703-.072-1.919a.474.474 0 00-.456-.288c-.048 0-.3.049-.348.049a.12.12 0 01-.12-.12c0-.084.072-.108.216-.145.168-.048 1.439-.408 1.499-.408.048 0 .108.037.108.132.012.085 0 2.747 0 3.263 0 .252 0 .408.132.408.084 0 .42-.275.492-.324.18-.119.672-.396 1.295-.396.828 0 1.235.407 1.379.876.144.468.144.515.144 2.626 0 .36 0 1.439.084 1.655a.544.544 0 00.54.348c.228 0 .456 0 .456.204 0 .167-.216.18-.36.18h-2.303c-.108 0-.324 0-.324-.192 0-.071.048-.144.132-.168.072-.023.492-.035.576-.071.372-.144.372-.312.372-2.039 0-1.522 0-2.074-.252-2.458a.934.934 0 00-.792-.444c-.588 0-1.343.468-1.499.959-.072.229-.084.253-.084 2.543 0 1.02 0 1.487.624 1.487.168 0 .36 0 .36.204 0 .18-.216.18-.348.18h-2.051zm7.283 0c-.084 0-.312 0-.312-.192 0-.191.12-.191.456-.191.144 0 .396-.012.551-.264.108-.168.132-.313.132-1.991 0-.384 0-2.135-.072-2.339-.036-.132-.18-.228-.372-.228-.084 0-.492.108-.576.108a.12.12 0 01-.12-.12c0-.097.06-.108.588-.276.168-.048 1.259-.396 1.319-.396.036 0 .048.012.06.036v.527c0 .636 0 .708.12.708.06 0 .084-.024.252-.24.096-.132.815-1.031 1.691-1.031.444 0 .708.276.708.684a.618.618 0 01-.6.636c-.252 0-.372-.132-.468-.252-.072-.072-.18-.204-.348-.204-.3 0-.792.359-1.02.779-.288.517-.336.792-.336 2.567 0 1.091.036 1.295.876 1.295.096 0 .251.036.251.191 0 .192-.216.192-.312.192h-2.468zm8.291-5.889c1.535 0 2.65 1.331 2.65 3.058 0 1.728-1.115 3.059-2.65 3.059s-2.651-1.343-2.651-3.059c0-1.702 1.091-3.058 2.651-3.058zm0 5.793c1.007 0 1.631-1.296 1.631-2.735 0-1.463-.636-2.734-1.631-2.734-.912 0-1.631 1.116-1.631 2.734 0 1.416.611 2.735 1.631 2.735zm6.6-5.793c1.535 0 2.65 1.331 2.65 3.058 0 1.728-1.115 3.059-2.65 3.059s-2.651-1.343-2.651-3.059c0-1.702 1.092-3.058 2.651-3.058zm0 5.793c1.007 0 1.631-1.296 1.631-2.735 0-1.463-.636-2.734-1.631-2.734-.912 0-1.631 1.116-1.631 2.734 0 1.416.612 2.735 1.631 2.735zm11.241.096c-.216 0-.228-.144-.228-.192 0-.18.144-.191.324-.191.624-.023.624-.348.624-1.967 0-1.655-.024-1.811-.12-2.219-.108-.432-.419-.804-.947-.804-.671 0-1.463.6-1.619 1.007-.072.192-.072 1.908-.072 2.243 0 1.163 0 1.296.12 1.476.12.18.276.252.492.264.348.012.456.012.456.191 0 .192-.168.192-.276.192h-2.411c-.108 0-.288 0-.288-.192 0-.071.036-.144.096-.168.06-.035.419-.023.503-.035.48-.096.48-.348.48-2.016 0-1.606 0-1.883-.156-2.326a.952.952 0 00-.9-.636c-.516 0-1.067.336-1.331.6-.288.288-.312.312-.312 2.362 0 1.668 0 2.004.624 2.027.18 0 .359.012.359.191s-.167.192-.264.192h-2.267c-.06 0-.24 0-.24-.192 0-.191.156-.191.36-.191.3 0 .48-.204.528-.348.084-.252.084-1.991.084-2.398 0-.336 0-1.644-.072-1.848a.455.455 0 00-.444-.3c-.048 0-.3.036-.36.036-.024 0-.12 0-.12-.084 0-.096.036-.107.588-.264.276-.072 1.031-.275 1.127-.3.12 0 .12.06.12.348 0 .312.012.396.12.396.048 0 .288-.18.36-.228.3-.216.828-.516 1.499-.516.972 0 1.224.54 1.343.779.024.048.084.168.156.168.06 0 .083-.023.276-.191.372-.324.959-.756 1.811-.756.816 0 1.211.384 1.368.924.144.503.144.731.144 2.746 0 1.439 0 1.835.672 1.835.084 0 .276 0 .276.204 0 .12-.108.18-.228.18h-2.255zm16.464-8.743c.156 0 .336 0 .336.204 0 .191-.168.191-.372.191-.852 0-.911.684-.923 1.056-.012.6 0 3.574 0 4.246 0 .852-.036 1.774-.768 2.518-.6.6-1.379.756-2.027.756-.516 0-2.974-.168-3.046-2.65-.012-.672.012-3.934.012-4.665 0-.924-.06-1.26-1.116-1.26-.072 0-.264 0-.264-.191 0-.204.18-.204.36-.204h2.938c.144 0 .324 0 .324.204 0 .191-.156.191-.384.191-.264 0-.731.036-.875.54-.06.18-.06 2.459-.06 2.879 0 2.638 0 2.842.204 3.406.192.515.815 1.295 2.051 1.295.923 0 1.535-.42 1.871-.937.408-.599.408-1.103.408-3.885 0-2.65-.024-2.711-.168-2.938-.228-.348-.6-.36-.852-.36-.132 0-.24-.06-.24-.191 0-.204.18-.204.288-.204h2.303zm4.419 3.082c.096.036.144.061.228.061a.444.444 0 00.348-.168c.084-.084.12-.12.168-.12.072 0 .096.06.132.156.108.275.648 1.583.648 1.715 0 .06-.024.12-.108.12-.12 0-.144-.049-.432-.48-.144-.228-1.007-1.188-1.775-1.188-.444 0-1.031.313-1.031.973 0 .491.324.768 1.535 1.187 1.391.491 2.099.936 2.099 1.896 0 .803-.563 1.738-1.835 1.738-.324 0-.456-.035-.972-.191a.786.786 0 00-.228-.036c-.168 0-.288.048-.36.071-.228.097-.372.156-.432.156-.108 0-.144-.096-.204-.252-.108-.275-.576-1.475-.576-1.631 0-.072.024-.203.144-.203.144 0 .228.144.419.479.528.912 1.655 1.284 2.207 1.284.587 0 1.043-.504 1.043-1.092 0-.552-.348-.827-1.739-1.308-1.259-.443-1.895-.863-1.895-1.787 0-.911.672-1.606 1.583-1.606.409-.002.577.058 1.033.226zm7.618 1.403c.012.408-.012 2.363-.012 2.807 0 .563 0 1.067.479 1.067.12 0 .312-.072.384-.132a.462.462 0 01.096-.072c.024 0 .06.013.06.072 0 .216-.492.743-1.008.743-.384 0-.695-.287-.792-.539-.024-.084-.06-.192-.168-.192-.072 0-.18.084-.288.168-.468.36-1.056.563-1.583.563-.72 0-1.523-.383-1.523-1.271 0-1.427 2.015-2.038 2.71-2.242.72-.216.792-.24.792-.863 0-1.031-.576-1.416-1.127-1.416-.792 0-.924.564-.959.732-.084.359-.168.791-.636.791a.569.569 0 01-.564-.587c0-.708 1.164-1.26 2.171-1.26.949 0 1.944.432 1.968 1.631zm-.935 3.214c.06-.144.083-.191.083-1.606 0-.24 0-.444-.251-.444-.432 0-2.231.804-2.231 1.931 0 .324.204.876 1.031.876.408-.001 1.2-.361 1.368-.757zm6.972-4.617c.084.036.468.288.563.288.06 0 .228-.132.384-.252.228-.191.504-.264.72-.264a.69.69 0 01.696.659c0 .265-.204.563-.492.563-.312 0-.444-.228-.564-.419-.06-.108-.12-.12-.168-.12-.096 0-.251.036-.251.192 0 .06.167.347.204.42.108.227.18.491.18.791 0 1.139-1.08 2.087-2.303 2.087-.108 0-.672-.097-.804-.097-.288 0-.564.336-.564.48 0 .144.108.216.192.252.156.06.228.083 1.332.119.779.024 2.758.072 2.758 1.428 0 1.499-2.758 1.499-3.106 1.499-.912 0-2.615-.108-2.615-1.079 0-.624.66-.9 1.043-1.008.072-.023.228-.072.228-.132s-.312-.155-.372-.192c-.192-.119-.312-.264-.312-.503 0-.42.312-.659.731-.864.144-.071.276-.131.276-.18 0-.048-.18-.191-.252-.239-.192-.144-.804-.696-.804-1.571 0-1.163 1.104-2.087 2.279-2.087a2.43 2.43 0 011.021.229zm-1.044 7.303c.755 0 1.919-.203 1.919-1.007 0-.576-.444-.828-2.411-.828-.348 0-.552 0-.864.192a.871.871 0 00-.419.743c.001.864 1.463.9 1.775.9zm.024-3.681c1.271 0 1.271-1.583 1.271-1.799 0-.744-.288-1.728-1.271-1.728-.72 0-1.259.576-1.259 1.764 0 .9.348 1.763 1.259 1.763zm5.905-1.103c-.156 0-.384 0-.384.383 0 1.463.996 2.471 1.991 2.471.552 0 1.08-.323 1.451-.672.072-.06.348-.467.456-.467.06 0 .12.06.12.155 0 .264-.839 1.499-2.422 1.499-1.679 0-2.626-1.331-2.626-3.07 0-1.99 1.235-3.046 2.542-3.046 1.859 0 2.387 1.967 2.387 2.471 0 .216-.12.276-.36.276h-3.155zm2.207-.396c.264 0 .396-.06.396-.348 0-.456-.432-1.68-1.439-1.68-1.116 0-1.463 1.5-1.463 1.764s.204.264.312.264h2.194zm11.496-1.188c.827 0 1.175-.3 1.175-1.151 0-.204 0-.359.192-.359s.192.18.192.228v3.118c0 .084 0 .265-.192.265s-.192-.181-.192-.301c0-.623 0-1.415-1.175-1.415h-1.427c-.036 0-.216.013-.276.168-.048.097-.048 1.955-.048 2.219 0 1.14 0 1.571.984 1.571.335 0 .456 0 .456.191 0 .192-.168.192-.324.192h-3.083c-.192 0-.372 0-.372-.192 0-.191.192-.191.312-.191.432 0 .948 0 1.067-.624.036-.191.036-.204.036-3.394 0-.563 0-3.118-.036-3.334-.108-.6-.671-.612-.923-.612-.336 0-.456 0-.456-.191 0-.204.168-.204.372-.204h5.769c.671 0 .792.036 1.02.684.06.168.456 1.295.456 1.367 0 .156-.132.216-.216.216s-.084 0-.372-.432c-.576-.875-1.415-1.439-2.482-1.439h-1.332c-.875 0-.875.54-.875 1.535 0 .156 0 1.716.012 1.823.024.18.156.264.312.264h1.426zm6.313 1.584c-.156 0-.384 0-.384.383 0 1.463.996 2.471 1.991 2.471.552 0 1.08-.323 1.451-.672.072-.06.348-.467.456-.467.06 0 .12.06.12.155 0 .264-.839 1.499-2.422 1.499-1.679 0-2.626-1.331-2.626-3.07 0-1.99 1.235-3.046 2.542-3.046 1.859 0 2.387 1.967 2.387 2.471 0 .216-.12.276-.36.276h-3.155zm2.207-.396c.264 0 .396-.06.396-.348 0-.456-.432-1.68-1.439-1.68-1.116 0-1.463 1.5-1.463 1.764s.204.264.312.264h2.194zm4.393.396c-.156 0-.384 0-.384.383 0 1.463.996 2.471 1.991 2.471.552 0 1.08-.323 1.451-.672.072-.06.348-.467.456-.467.06 0 .12.06.12.155 0 .264-.839 1.499-2.422 1.499-1.679 0-2.626-1.331-2.626-3.07 0-1.99 1.235-3.046 2.542-3.046 1.859 0 2.387 1.967 2.387 2.471 0 .216-.12.276-.36.276h-3.155zm2.207-.396c.264 0 .396-.06.396-.348 0-.456-.432-1.68-1.439-1.68-1.116 0-1.463 1.5-1.463 1.764s.204.264.312.264h2.194z"/></g></g></svg>