<?xml version="1.0" encoding="utf-8"?>
<!-- Generator: Adobe Illustrator 25.2.3, SVG Export Plug-In . SVG Version: 6.00 Build 0)  -->
<svg version="1.1" id="レイヤー_1" xmlns="http://www.w3.org/2000/svg" xmlns:xlink="http://www.w3.org/1999/xlink" x="0px"
	 y="0px" viewBox="0 0 89.8 89.8" style="enable-background:new 0 0 89.8 89.8;" xml:space="preserve">
<style type="text/css">
	.st0{fill:none;}
	.st1{fill:#A7912D;}
	.st2{opacity:0.6;clip-path:url(#SVGID_1_);fill:url(#SVGID_2_);}
	.st3{fill:#FFFFFF;}
</style>
<pattern  x="-639.5" y="-338.5" width="1024.1" height="726.9" patternUnits="userSpaceOnUse" id="新規パターンスウォッチ_3" viewBox="1 -727.9 1024.1 726.9" style="overflow:visible;">
	<g>
		<rect x="1" y="-727.9" class="st0" width="1024.1" height="726.9"/>
		
			<image style="overflow:visible;" width="2950" height="2094" id="SB005_4_" xlink:href="7303660C87FB8463.png"  transform="matrix(0.3471 0 0 0.3471 1 -727.9108)">
		</image>
	</g>
</pattern>
<g>
	<g>
		<g>
			<circle class="st1" cx="44.9" cy="44.9" r="44.9"/>
		</g>
		<g>
			<defs>
				<circle id="SVGID_4_" cx="44.9" cy="44.9" r="44.9"/>
			</defs>
			<clipPath id="SVGID_1_">
				<use xlink:href="#SVGID_4_"  style="overflow:visible;"/>
			</clipPath>
			
				<pattern  id="SVGID_2_" xlink:href="#譁ｰ隕上ヱ繧ｿ繝ｼ繝ｳ繧ｹ繧ｦ繧ｩ繝メ_3" patternTransform="matrix(5.269419e-02 0 0 9.740121e-02 -6371.061 -8975.1533)">
			</pattern>
			<rect x="-8.7" y="-6.7" class="st2" width="105.4" height="105.5"/>
		</g>
	</g>
	<g>
		<path class="st3" d="M22,55.6c1.3-0.1,1.7-0.1,2.1-0.3c0.7-0.3,1-0.9,1.3-3.1l1.8-12.5c0.3-2.6,0.3-2.6,0.1-2.8
			c-0.2-0.2-0.6-0.3-1.4-0.3h-1.2l0.1-0.9c2.4-0.1,4.4-0.4,6-0.8c-0.5,2.3-0.9,4.9-1.4,8.4l-1.2,8.8c-0.3,2-0.2,2.6,0.1,2.9
			c0.3,0.3,0.4,0.3,2.2,0.4l-0.1,0.9h-8.5L22,55.6z"/>
	</g>
	<g>
		<g>
			<path class="st3" d="M46.5,52.6c0,2.3,0,2.3,0,4.1c0,0.3,0,0.5,0,0.6c0,0.2,0,0.4,0,0.7s-0.1,0.4-0.3,0.4c-0.1,0-0.7,0.1-1,0.1
				c-0.4,0-0.5-0.1-0.5-0.4c0.1-5.1,0.1-5.1,0.1-14.3c0-7.9,0-8.7-0.1-10.6c0.9,0.5,1.2,0.7,2,1.3h3.1c0.4-0.5,0.5-0.6,1-1.1
				c0.7,0.6,0.9,0.8,1.5,1.3c0.2,0.3,0.3,0.4,0.3,0.5c0,0.2-0.2,0.3-1,0.6c-1,2.2-2.4,4.6-3.3,6c1.2,1.2,1.6,1.7,2,2.4
				c0.7,1.1,1.2,2.7,1.2,4.1c0,1.5-0.5,2.8-1.3,3.4c-0.6,0.5-1.1,0.8-2.1,0.9c-0.3-1.3-0.5-1.6-1.6-1.8V52.6z M46.5,50.3
				c1,0.1,1.7,0.1,2.1,0.1c0.6,0,0.8-0.1,1-0.5c0.2-0.5,0.4-1.4,0.4-2.3c0-2.4-0.7-4-2.3-5.7c0.7-1.7,1.6-4.3,2.2-6.8h-3.2V50.3z
				 M56.9,38.1c0.5-0.7,0.7-0.8,1.2-1.5c0.9,0.7,1.1,1,2,1.8c0,0.1,0.1,0.1,0.1,0.1c0,0.1-0.1,0.2-0.2,0.1h-5.1V43
				c1.8-0.4,3.2-0.8,5-1.3l0.2,0.4c-2.1,1.1-3.8,1.8-7.3,3.1c0,0.6-0.1,0.9-0.4,0.9s-0.4-0.4-1-2.5c0.8,0,0.9,0,1.8-0.2v-7.8
				c0-0.2,0-0.7,0-1.4c0-0.2,0-0.5,0-1c2.3,0.3,2.8,0.4,2.8,0.7c0,0.2-0.3,0.4-1,0.5v3.7H56.9z M57.3,48c0.3-0.7,0.8-2.4,1.1-3.7
				c2.3,0.6,2.7,0.8,2.7,1.1c0,0.2-0.3,0.4-0.9,0.4c0,0-0.1,0-0.3,0c-0.6,0.9-1,1.3-1.9,2.3h6.2c0.4-0.5,0.5-0.7,1-1.2
				c0.8,0.5,1,0.7,1.6,1.2c0.3,0.2,0.3,0.3,0.3,0.4c0,0.2-0.3,0.4-0.9,0.7c-0.1,2.1-0.1,3.1-0.1,4.3c0,1.2,0,2.3,0.1,4.9
				c0,0.2-0.1,0.3-0.3,0.4c-0.1,0-1.1,0.1-1.3,0.1c-0.2,0-0.3-0.1-0.3-0.3c0,0,0-0.1,0-0.1V57h-9.1v1.2c-0.1,0.3-0.3,0.4-0.9,0.4
				c-0.3,0-0.5,0-0.6,0.1c0,0-0.1,0-0.1,0c-0.3,0-0.4-0.1-0.4-0.4c0.1-2.3,0.1-2.3,0.1-8.8c0-1.1,0-1.7-0.1-2.8c1,0.5,1.2,0.7,2,1.3
				H57.3z M64.4,48.6h-9.1v3.3h9.1V48.6z M55.3,52.6v3.7h9.1v-3.7H55.3z M62.2,39.2c0.6-0.5,1.2-1,2.4-2.2c1.1-1.1,1.2-1.2,1.6-1.9
				c1.7,0.9,2.4,1.3,2.4,1.6c0,0.1-0.2,0.3-0.5,0.3s-0.5,0-0.8-0.1c-2.2,1.4-3.4,2.1-5,2.9v2.9c0,0.4,0,0.5,0.1,0.6
				c0.2,0.1,0.8,0.2,1.8,0.2c1.5,0,2.2-0.1,2.4-0.2c0.1-0.1,0.3-0.3,0.4-0.6c0.1-0.4,0.2-0.9,0.4-1.5c0.1-0.4,0.3-1.1,0.6-2l0.4,0.1
				L68,42.3v0.4c0,0.3,0,0.3,0.3,0.4c0.4,0.2,0.5,0.3,0.5,0.6c0,0.4-0.3,0.7-0.8,0.8c-0.3,0.1-1.5,0.1-2.8,0.1c-0.1,0-0.2,0-0.4,0
				c-0.7,0-1.3,0-1.8,0c-1.9,0-2.4-0.3-2.4-1.8l0-1.5v-6.3c0-1,0-1.2-0.1-2c2.5,0.3,2.9,0.4,2.9,0.7c0,0.2-0.3,0.3-1.1,0.5V39.2z"/>
		</g>
	</g>
</g>
</svg>
