<?xml version="1.0" encoding="utf-8"?>
<!-- Generator: Adobe Illustrator 25.2.3, SVG Export Plug-In . SVG Version: 6.00 Build 0)  -->
<svg version="1.1" id="レイヤー_1" xmlns="http://www.w3.org/2000/svg" xmlns:xlink="http://www.w3.org/1999/xlink" x="0px"
	 y="0px" viewBox="0 0 92.8 416.9" style="enable-background:new 0 0 92.8 416.9;" xml:space="preserve">
<style type="text/css">
	.st0{fill:#200701;}
	.st1{fill:none;stroke:#76544B;stroke-miterlimit:10;}
</style>
<g>
	<g>
		<path class="st0" d="M42.4,93.9c0.8,0,2.2,0.3,2.8,0.5c0.6,0.2,0.8,0.5,0.8,0.9c0,0,0,0.1,0,0.1c0,0.2,0,0.2-0.2,0.7
			c-0.3,1-0.6,3.4-0.6,5.7c0,1.7,0.2,2.1,1.1,2.1c0.6,0,1.2-0.2,3.8-1.4c0.5-0.3,0.8-0.3,1.1-0.3c0.7,0,1.3,0.6,1.3,1.2
			c0,0.4-0.2,0.7-0.6,0.8c-0.2,0.1-0.6,0.2-1.9,0.6c-3.4,1-5.2,1.8-7,3.1c-1.5,1.2-2.2,2.3-2.2,3.6c0,2,1.6,3.1,4.7,3.1
			c1.7,0,4.5-0.3,6.5-0.8c0.3-0.1,0.4-0.1,0.6-0.1c0.7,0,1.5,0.7,1.5,1.4c0,0.5-0.3,0.8-1.2,0.9s-3.7,0.4-5.4,0.4
			c-2,0-3.6-0.2-4.8-0.6c-1.9-0.7-3.1-2.3-3.1-4.1c0-1.6,0.9-3.2,2.7-4.7c0.8-0.7,1.8-1.3,3.4-2.2c-0.6,0-0.9-0.1-1.3-0.4
			c-0.4-0.3-0.7-0.9-0.8-2.1c-0.1-0.7-0.1-1.3-0.2-3.4c-0.1-2.4-0.1-2.8-0.3-3.2c-0.3-0.5-0.8-0.8-2-1C41.7,94,41.9,93.9,42.4,93.9z
			"/>
		<path class="st0" d="M46.8,148c3.5-0.7,5.8-1.7,7.8-3.4c1.5-1.3,2.4-2.9,2.4-4.5c0-2.4-1.7-4.1-4.2-4.1c-2.7,0-6.3,1.5-9.3,3.8
			c-0.5,0.4-0.8,0.5-1.1,0.5c-1,0-2.7-2-2.7-3.3c0-0.2,0.1-0.3,0.2-0.6c0.4,1,1.1,1.5,1.7,1.5c0.4,0,1-0.2,2.5-0.8
			c2.5-1,4.8-1.7,6.4-2c0.7-0.1,1.3-0.2,2.2-0.2c3.7,0,6.2,2.2,6.2,5.4c0,2-1.2,4-3,5.3c-2.2,1.5-4.7,2.3-8.9,2.8L46.8,148z"/>
		<path class="st0" d="M36.4,172.1c0.4,0.4,0.7,0.5,1.3,0.5c0.8,0,1.5-0.1,7.8-1.7c1.2-0.3,2.7-0.6,4.5-1c2.1-0.4,2.9-0.6,3.8-0.9
			c0.6-0.2,0.8-0.2,1-0.2c0.3,0,1,0.3,1.5,0.6c0.6,0.4,0.8,0.7,0.8,1.1c0,0.4-0.3,0.7-0.9,0.7c-0.1,0-0.3,0-0.5,0
			c-0.4-0.1-0.5-0.1-0.8-0.1c-4.8,0-9.4,4.6-9.4,9.3c0,2.6,1.3,4.5,3.7,5.5c0.9,0.4,2,0.6,2.9,0.7c0.6,0,0.8,0.1,1.2,0.4
			c0.5,0.5,0.8,1,0.8,1.3c0,0.5-0.4,0.8-1,0.8c-1.6,0-4.1-0.9-5.7-2c-2.1-1.5-3.2-3.7-3.2-6.3c0-2.3,1.1-4.8,3.1-6.8
			c1.1-1.2,2.2-2,4.6-3.2c-2.5,0.4-4.8,0.9-8,1.9c-1.8,0.6-3.6,1.3-4.5,1.8c-0.6,0.3-0.8,0.4-1.1,0.4c-0.7,0-1.5-0.6-2.2-1.7
			c-0.4-0.7-0.7-1.4-0.7-1.9c0-0.2,0.1-0.4,0.3-0.7C35.8,171.3,36,171.7,36.4,172.1z"/>
		<path class="st0" d="M35.7,209.6c1.1,1,2.1,1.4,3.3,1.4c0.8,0,1.5-0.1,2.8-0.4c0-0.8,0-2.1,0-2.6c0-2.9-0.3-3.5-2.3-3.9
			c0.4-0.3,0.6-0.4,1.2-0.4c1,0,2.1,0.3,2.9,0.7c0.4,0.2,0.6,0.6,0.6,0.9c0,0.2,0,0.2-0.3,0.7c-0.4,0.8-0.7,2.1-0.9,4.2
			c1.5-0.5,2.2-0.9,3.1-1.6c0.2-0.2,0.5-0.3,0.7-0.3c0.3,0,0.7,0.1,1.1,0.3c0.3,0.1,0.5,0.4,0.5,0.6c0,0.4-0.3,0.6-1.3,1.1
			c-1.3,0.6-2.6,1-4.1,1.4c0,0.4,0,0.4-0.1,1.4c0,0.8-0.1,2-0.1,3.7c3.1-1.1,5.2-1.5,7.4-1.5c3.8,0,6.2,1.8,6.2,4.8
			c0,2.7-2.1,4.9-4.8,4.9c-2.6,0-4.4-1.7-5.4-5l0.4-0.1c0.7,1.3,1.1,1.9,1.7,2.4c0.8,0.7,1.7,1.1,2.7,1.1c2,0,3.5-1.6,3.5-3.8
			c0-2.2-1.5-3.3-4.1-3.3c-2.2,0-4.9,0.7-7.6,2c0,3,0,3,0,3.8c0,0.5,0,0.8,0,1.1c0,0.7-0.1,1.2-0.4,1.7c-0.3,0.6-0.9,1-1.3,1
			c-0.4,0-0.4,0-2.1-1.5c-0.6-0.5-1.4-1-1.9-1.3c-0.6-0.3-0.9-0.7-0.9-1.2c0-0.4,0.3-1,0.8-1.6c1-1.1,2-1.7,4.5-2.9
			c0-0.4,0-0.8,0.1-1.3c0.1-1.3,0.1-1.3,0.1-4c-0.9,0.1-1.5,0.2-2.2,0.2c-1.8,0-3-0.6-4.2-2.3L35.7,209.6z M38.7,220.9
			c-0.6,0.6-0.8,1-0.8,1.3c0,0.3,0.4,0.6,1.1,0.9c0.6,0.3,1.4,0.4,1.7,0.4c0.3,0,0.5-0.2,0.5-0.7c0.1-2.5,0.2-3.9,0.2-4.1
			C40.1,219.6,39.4,220.1,38.7,220.9z M51.2,206.7c1.7,0.1,3,0.4,4.1,1c1.2,0.7,2,1.6,2,2.5c0,0.5-0.3,0.8-0.8,0.8
			c-0.1,0-0.2,0-0.4-0.1c-0.4-0.1-0.5-0.1-0.6-0.1c-0.4,0-1.1,0.1-3.4,0.8l-0.2-0.3c1.7-0.9,2.7-1.5,3.1-1.8
			c-0.4-0.8-0.9-1.2-1.8-1.7c-0.6-0.3-1-0.5-1.9-0.7L51.2,206.7z"/>
		<path class="st0" d="M37.6,243.8c1.3,1,2.2,1.3,3.7,1.3c1.3,0,3.4-0.4,4.6-0.8c-0.6-1.2-1.8-2.7-2.4-3.1c-0.4-0.3-1.1-0.5-2.2-0.6
			c0.2-0.5,0.4-0.6,1.1-0.7c0.4-0.1,0.8-0.1,1.3-0.1c1,0,1.7,0.1,1.9,0.4c0.3,0.2,0.3,0.3,0.3,1.1c0,0.6,0,0.6,1.1,2.8
			c2.6-1,3.2-1.3,4-2.1c0.2-0.2,0.5-0.3,0.9-0.3c1.1,0,1.7,0.3,1.7,0.7c0,0.4-0.4,0.6-1.8,1.2c-0.4,0.2-1.8,0.7-4.1,1.4
			c0.3,0.5,0.3,0.5,0.6,1c0.2,0.3,0.6,1.1,1.4,2.3c2.2-0.9,2.7-1.1,3.5-1.5c-0.6-0.6-0.8-0.8-1.5-1.3L52,245
			c1.1,0.5,1.8,0.8,2.4,0.8c0,0,0,0,0.5-0.1c0.1,0,0.2,0,0.2,0c0.4,0,0.8,0.3,0.8,0.7c0,0.7-1.6,1.5-5.4,2.9c0.9,1.5,1,1.7,1.3,2.2
			c0.6,1.1,0.6,1.1,1.3,2.2c0.3,0.5,0.5,1,0.5,1.5c0,1.1-0.4,1.8-0.9,1.8c-0.3,0-0.3-0.1-0.8-0.4c-1.4-1.1-4-1.9-6.5-1.9
			c-1.3,0-2.5,0.3-3.5,0.8c-1.1,0.6-1.7,1.3-1.7,2.3c0,1.7,1.8,2.7,5.3,2.7c1.4,0,2.2-0.1,3.5-0.4c0.1,0,0.3-0.1,0.3-0.1
			c0.8,0,1.8,0.8,1.8,1.5c0,0.2-0.1,0.4-0.4,0.5c-0.5,0.2-2.2,0.4-3.8,0.4c-2.2,0-4.1-0.3-5.4-0.8c-1.7-0.8-2.7-2.1-2.7-3.5
			c0-2.5,3-4.2,7.4-4.2c1.7,0,3.2,0.2,5.3,0.6c-0.3-1.1-1.1-2.8-2.1-4.8c-1.9,0.6-4.3,1.1-6,1.1c-1.2,0-2.1-0.3-2.9-0.8
			c-0.6-0.4-0.9-0.8-1.3-1.7l0.3-0.3c0.9,1.2,1.8,1.7,3.3,1.7c1.6,0,3.7-0.4,6-1.1c-0.6-1.1-1.3-2.4-2-3.4c-1.9,0.6-3.7,0.9-5.2,0.9
			c-1.5,0-2.9-0.7-4.1-2L37.6,243.8z"/>
		<path class="st0" d="M46.3,297.5c3-0.9,5-2,6.6-3.9c1.7-1.9,2.5-4.2,2.5-6.7c0-2.7-1.1-4.9-3.2-6.2c-1.2-0.8-3.1-1.3-4.8-1.3
			c-0.3,0-0.5,0-1,0.1c0.7,1,0.9,1.5,0.9,2.3c0,2.2-1.6,6.3-3.7,9.7c-1.8,2.8-3.1,4.2-4.2,4.2c-0.5,0-0.9-0.2-1.2-0.6
			c-0.3-0.3-0.3-0.4-0.8-1.8c-0.3-0.7-0.4-1.1-1.2-2.6c-0.4-0.9-0.6-1.7-0.6-2.5c0-1.8,1-3.8,2.5-5.5c2.3-2.4,6-3.9,9.6-3.9
			c2.8,0,5.4,0.9,7.2,2.6c1.8,1.7,2.7,3.9,2.7,6.6c0,3.5-2,6.6-5.6,8.5c-1.6,0.9-3.1,1.3-5.5,1.7L46.3,297.5z M37.1,288.8
			c0,1.3,0.4,2.7,1.1,3.7c0.4,0.5,0.8,0.8,1.1,0.8c0.6,0,2-1.5,3.3-3.7c2.1-3.3,3.6-6.9,3.6-8.7c0-0.4-0.1-0.7-0.4-1.4
			C40.9,280.4,37.1,284.5,37.1,288.8z"/>
		<path class="st0" d="M55.2,313.5c0.7-0.9,1-1.1,1.7-2c1.2,0.9,1.6,1.2,2.7,2.2c0.1,0.1,0.2,0.2,0.2,0.2c0,0.1-0.1,0.2-0.3,0.2
			H48.2c0.3,0.1,0.3,0.1,1.5,0.6c0.3,0.1,0.5,0.3,0.5,0.4c0,0.2-0.2,0.3-1.1,0.3c2.7,1.8,6.1,2.7,10.8,2.9v0.3
			c-1.1,0.4-1.4,0.8-1.7,1.9c-2.8-0.8-3.9-1.2-5.4-2c-1.3-0.8-2.5-1.5-4.1-2.8c-3.1,2.7-5,3.8-9.1,5.4l-0.2-0.4
			c2.5-1.3,4.5-2.6,6.7-4.8c0.8-0.8,1.2-1.2,1.7-1.7h-8.4c0,4.2-0.1,6.6-0.1,7.2c-0.1,4-0.8,7.5-2.2,10.5c-0.8,1.7-1.5,2.8-3.1,4.5
			l-0.3-0.2c1.8-2.9,2.6-4.9,3.1-7.9c0.3-1.3,0.3-2.2,0.5-4.3c-0.9,1-1.3,1.4-2.6,2.5c0,0.3,0,0.4,0,0.6c0,0.1,0,0.1,0,0.1
			c0,0.3-0.1,0.5-0.3,0.5c-0.3,0-0.5-0.5-1.4-2.7c0.7-0.1,1.1-0.3,2.5-0.8c0.6-0.3,0.8-0.4,1.8-0.9c0.1-1.7,0.1-3.7,0.1-6.6
			c0-2.9,0-3.1-0.1-4.4c1,0.5,1.3,0.7,2.2,1.3h7.4v-1.1c0-0.7,0-1-0.1-1.6c2.9,0.2,3.2,0.3,3.2,0.6c0,0.2-0.2,0.3-1.1,0.6v1.5H55.2z
			 M33.5,315.4c0.8,0.6,1.3,1.2,2.2,2.2c0.7,0.8,1,1.4,1,1.9c0,0.4-0.2,1.2-0.4,1.5c-0.2,0.2-0.3,0.3-0.5,0.3c-0.3,0-0.5-0.3-0.6-1
			c-0.3-1.4-1.2-3.8-1.8-4.8L33.5,315.4z M41.9,330.7c-0.1,1.1-0.5,2.4-1.1,3.4c-0.5,0.9-1.4,1.7-2,1.7c-0.4,0-0.7-0.6-0.7-1.3
			c0-0.5,0.1-0.7,0.8-0.9c0.7-0.3,1.5-0.8,1.8-1.2c0.4-0.4,0.5-0.8,0.7-1.7L41.9,330.7z M42.6,326.7v3.1c-0.1,0.2-0.1,0.2-0.4,0.3
			c-0.3,0-0.7,0.1-0.9,0.1c-0.4,0-0.5-0.1-0.5-0.3c0.1-1.8,0.1-2.8,0.1-5.3c0-1.4,0-1.4-0.1-3.6c0.8,0.4,1.1,0.5,1.8,0.9H47
			c0.5-0.5,0.5-0.5,0.8-0.9c0.6,0.4,0.8,0.5,1.4,0.9c0.1,0.1,0.1,0.1,0.1,0.2c0,0.2-0.3,0.4-0.7,0.6v3.6c0,0.3,0,0.5,0,2.4
			c0,0.5-0.2,0.7-0.7,1c-0.3,0.1-0.5,0.2-1.4,0.4c-0.3-1-0.7-1.3-2.1-1.4v-0.3c1.7,0.1,1.7,0.1,2.5,0.1c0.2,0,0.2-0.1,0.2-0.2v-1.4
			H42.6z M47.2,323.8v-1.5h-4.6v1.5H47.2z M42.6,324.4v1.7h4.6v-1.7H42.6z M43.6,332.2c0-1.2,0-1.2-0.1-1.8c2.6,0.3,2.7,0.3,2.7,0.6
			c0,0.2,0,0.2-0.9,0.5v2.4c0,0.2,0.1,0.4,0.2,0.4c0.3,0.1,0.9,0.1,1.8,0.1c1.2,0,3.8-0.1,4.1-0.1c0.4-0.1,0.6-0.2,0.8-0.7
			c0.4-1,0.7-1.8,1-2.6l0.4,0.1l-0.1,2.3v0.1c0,0.3,0.2,0.5,0.6,0.6c0.6,0.1,0.8,0.3,0.8,0.6c0,0.4-0.3,0.6-1.1,0.8
			c-0.9,0.2-2.4,0.3-4.9,0.3c-5.1,0-5.3-0.1-5.3-2V332.2z M44.2,319.1c0.8,0.2,1.2,0.2,2.3,0.2h2.9c0.6-0.6,0.8-0.8,1.3-1.4
			c0.9,0.7,1.2,0.9,2,1.7c0.1,0.1,0.1,0.1,0.1,0.2c0,0.1-0.1,0.2-0.3,0.2h-6c-0.9,0-0.9,0-2.1,0.2L44.2,319.1z M47.4,330.2
			c0.9,0.2,2,0.6,2.8,1.1c0.4,0.3,0.7,0.7,0.7,1.1c0,0.6-0.4,1.4-0.8,1.4c-0.2,0-0.3-0.1-0.5-0.4c-0.6-1-1.5-2.1-2.4-2.9L47.4,330.2
			z M53.4,322.2c0,0.2-0.3,0.4-0.8,0.4c0,2.7,0,3,0.1,4.4c-0.1,0.2-0.1,0.3-0.3,0.3c-0.1,0.1-0.7,0.1-1,0.1c-0.3,0-0.4-0.1-0.4-0.3
			c0.1-1,0.1-1.2,0.1-3.3c0-1.2,0-1.5-0.1-2.1C53.2,321.9,53.4,321.9,53.4,322.2z M55.4,323.1c0-0.1,0-0.8-0.1-1.9
			c3,0.3,3,0.3,3,0.6c0,0.2,0,0.2-1.1,0.6v3.9l0,1.3v0.3c0,0.3,0,0.3,0,0.5c0,0.7-0.2,0.9-0.9,1.3c-0.6,0.3-1.1,0.4-1.8,0.5
			c-0.1-0.8-0.3-1.1-0.7-1.3c-0.3-0.1-0.5-0.1-1.6-0.3v-0.4c0.4,0,0.4,0,1.5,0.1c0.8,0.1,0.8,0.1,1.5,0.1c0.1,0,0.2-0.1,0.2-0.4
			V323.1z M54.7,330.7c1.2,0.5,2.9,1.3,3.7,1.9c0.5,0.4,0.8,0.8,0.8,1.5c0,0.8-0.4,1.5-0.8,1.5c-0.3,0-0.3-0.1-0.7-0.8
			c-0.8-1.4-1.7-2.5-3.2-3.9L54.7,330.7z"/>
		<path class="st0" d="M56.1,365.8c-2.7,3.6-6.4,5.8-9.8,5.8c-2.1,0-3.8-0.9-4.6-2.4c-0.6-1-0.8-2.4-0.8-4.7c0-1.5,0.1-4.2,0.2-6.7
			c0.2-3,0.2-3.8,0.2-4.8c0-2.4-0.3-2.9-2.3-3.7c0.3-0.2,0.5-0.3,0.8-0.3c0.6,0,1.7,0.3,2.5,0.6c1.1,0.5,1.6,1.1,1.6,1.7
			c0,0.2,0,0.4-0.3,1c-0.5,1.7-1.5,10.2-1.5,13.4c0,1.7,0.3,2.7,1.1,3.4c0.6,0.5,1.5,0.8,2.5,0.8c1.9,0,4.3-0.7,6.4-1.8
			c1.3-0.7,2.1-1.3,3.6-2.5L56.1,365.8z"/>
		<path class="st0" d="M36.9,388.8c1.3,1.1,2,1.3,3.5,1.3c0.9,0,1.7-0.1,3-0.4c0.6-1.2,1-2.2,1-2.9c0-0.8-0.5-1.2-2-1.6
			c0.5-0.3,0.7-0.3,1.3-0.3c0.6,0,1.5,0.2,2.2,0.5c0.7,0.3,1,0.6,1,0.9c0,0.2-0.1,0.4-0.4,0.8c-0.3,0.3-0.6,0.8-0.8,1.1
			c-0.5,0.8-0.5,0.8-0.7,1.1c2.4-0.7,3.1-1,4-1.8c0.2-0.1,0.3-0.2,0.5-0.2c1.1,0,1.9,0.4,1.9,0.9c0,0.3-0.4,0.6-1.2,0.9
			c-2.5,0.8-3.8,1.1-6.1,1.6c-0.5,0.7-0.8,1.2-1.5,2.2c-0.8,1.2-1,1.5-1.5,2.2c1.6-0.8,2.5-1.1,3.6-1.1c1.7,0,2.9,1.1,3.1,2.8
			c0.5-0.2,0.5-0.2,2.7-1.4c2.8-1.4,3.4-1.8,3.4-2.4c0-0.5-0.5-1-1.3-1.3c0.3-0.1,0.4-0.2,0.6-0.2c1.2,0,3.2,1.7,3.2,2.8
			c0,0.5-0.2,0.7-1,0.9c-1.7,0.4-5.3,1.8-7.5,2.9c0,0.9,0,1.1,0,2.3c0,1.3-0.1,2.1-0.2,2.4c-0.1,0.3-0.4,0.5-0.8,0.5
			c-0.5,0-0.9-0.4-0.9-0.8c0-0.1,0-0.3,0-0.5c0.1-0.8,0.2-1.8,0.2-3c-1.7,1-2.5,1.5-3.3,2.2c-0.9,0.9-1.4,1.8-1.4,2.6
			c0,1.5,1.5,2.2,4.7,2.2c2,0,3.9-0.3,5.6-0.8c0.2-0.1,0.4-0.1,0.5-0.1c0.9,0,2,0.8,2,1.4c0,0.4-0.3,0.6-0.9,0.8
			c-1.1,0.2-3.3,0.4-5,0.4c-2.6,0-4.6-0.3-5.7-0.8c-1.4-0.7-2.1-1.6-2.1-3c0-1.3,0.6-2.5,2-3.8c0.7-0.7,1.6-1.3,3.5-2.5
			c0-1.2-0.1-1.6-0.4-2.2c-0.3-0.5-0.8-0.8-1.4-0.8c-1.8,0-4.1,1.5-6.1,4.1c-0.5,0.7-0.8,0.9-1,0.9c-0.4,0-0.8-0.6-0.8-1.5
			c0-0.6,0-0.6,0.8-1.3c2-1.6,3.2-3,5.2-6c-0.9,0.1-1.3,0.2-1.9,0.2c-1.9,0-2.9-0.5-4.2-2.2L36.9,388.8z"/>
	</g>
</g>
<line class="st1" x1="46.6" y1="0" x2="46.6" y2="60"/>
</svg>
