<?xml version="1.0" encoding="utf-8"?>
<!-- Generator: Adobe Illustrator 25.2.3, SVG Export Plug-In . SVG Version: 6.00 Build 0)  -->
<svg version="1.1" id="レイヤー_1" xmlns="http://www.w3.org/2000/svg" xmlns:xlink="http://www.w3.org/1999/xlink" x="0px"
	 y="0px" viewBox="0 0 114 438" style="enable-background:new 0 0 114 438;" xml:space="preserve">
<style type="text/css">
	.st0{fill:#200701;}
	.st1{fill:none;stroke:#76544B;stroke-miterlimit:10;}
</style>
<g>
	<g>
		<path class="st0" d="M80.4,124.9c-0.6,0-1.5,0.1-2.1,0.1l-0.1-1c0.7,0.2,1.4,0.2,2.2,0.2h1.8V120h-3.6c-0.8,0-1.6,0.1-2.2,0.1
			l-0.2-1c1.1,0.2,1.5,0.2,2.4,0.2h3.5v-4h-1.5c-1.1,0-1.6,0-2.3,0.1l-0.2-1c0.9,0.2,1.5,0.2,2.7,0.2H97c0.7-0.7,0.9-1,1.6-1.7
			c1.1,0.9,1.4,1.1,2.4,2c0.1,0.1,0.1,0.1,0.1,0.2c0,0.1-0.1,0.1-0.2,0.1h-5v4h2.5c0.7-0.8,1-1.1,1.7-1.8c1.2,0.9,1.5,1.2,2.6,2.2
			c0,0.1,0.1,0.1,0.1,0.2c0,0.1-0.1,0.1-0.3,0.1h-6.6v4.3h1.2c0.7-0.8,0.9-1,1.6-1.7c1,0.9,1.3,1.1,2.3,2c0.1,0.1,0.1,0.1,0.1,0.2
			s-0.1,0.2-0.3,0.2H89.8v3.1h7.4c0.8-0.8,1-1,1.8-1.8c1.1,0.9,1.5,1.2,2.6,2.1c0.1,0.1,0.1,0.1,0.1,0.2c0,0.1-0.1,0.1-0.3,0.1H89.8
			v0.3c0,2.2,0,2.5,0,4c0,0.3-0.2,0.3-1,0.4c-0.4,0-0.6,0-0.7,0c0,0-0.1,0-0.1,0c-0.2,0-0.2-0.1-0.3-0.2c0-1.1,0.1-3.2,0.1-4.2v-0.3
			h-8.1c-1.1,0-1.5,0-2.4,0.2l-0.2-1c1,0.2,1.5,0.2,2.7,0.2h8v-3.1H80.4z M91.9,110.6v-1.2c0-0.8,0-1-0.1-1.6c2.8,0.3,3,0.3,3,0.6
			c0,0.2-0.2,0.3-1.1,0.6c0,0.8,0,0.9,0,1.7h4c0.8-0.8,1-1,1.7-1.8c1.1,0.9,1.5,1.1,2.5,2c0.1,0.1,0.2,0.2,0.2,0.3
			c0,0.1-0.1,0.1-0.3,0.1h-8.1c0,1.3,0,1.3,0,2.1c0,0.2,0,0.3-0.2,0.3c-0.1,0-0.9,0.1-1.4,0.1c-0.2,0-0.3-0.1-0.3-0.3
			c0.1-1.1,0.1-1.6,0.1-2.2h-5.6c0,1.1,0,1.1,0,2c0,0,0,0.1,0,0.1c0,0.2-0.1,0.2-0.2,0.3c-0.2,0.1-0.9,0.1-1.4,0.1
			c-0.2,0-0.2-0.1-0.3-0.2c0.1-1.1,0.1-1.4,0.1-2.2h-4.8c-0.8,0-1.2,0-2.4,0.2l-0.2-1c1,0.2,1.4,0.2,2.5,0.2h4.9c0-0.2,0-0.4,0-0.5
			c0-1,0-1.5-0.1-2.4c0.6,0.1,1.1,0.1,1.4,0.2c1.3,0.1,1.6,0.2,1.6,0.4c0,0.2-0.2,0.3-1.1,0.6c0,0.8,0,0.8,0,1.7H91.9z M84,115.3v4
			h4v-4H84z M84,120v4.3h4V120H84z M89.8,119.4h4.3v-4h-4.3V119.4z M89.8,124.3h4.3V120h-4.3V124.3z"/>
		<path class="st0" d="M89.2,145c2.9,1.4,4.1,2.5,4.1,4.1c0,0.7-0.3,1.1-0.8,1.1c-0.2,0-0.2,0-0.9-0.3c-0.8-0.3-1.8-0.5-3.1-0.6
			c-1.9-0.2-3.7-0.4-4.3-0.4s-1.1,0.3-1.1,0.8c0,0.4,0.6,1.8,1.8,4.4c1.5-0.8,3.3-1.7,4.9-2.3c2-0.8,3.7-1.1,5.4-1.1
			c3.4,0,5.8,1.8,5.8,4.4c0,1.1-0.6,2.4-1.4,3.2c-1,1-2.5,1.5-4.5,1.5c-2.3,0-4.6-0.8-6.4-2.1l0.2-0.4c1.5,0.7,3.3,1.2,4.9,1.2
			c1.9,0,3.4-0.5,4.2-1.5c0.6-0.7,0.9-1.5,0.9-2.4c0-1.9-1.5-3-4-3c-1.5,0-2.9,0.4-5.3,1.5c-1.3,0.6-2.6,1.3-4.1,2.3
			c1.3,2.7,2.2,4.6,3.1,7c1.1,2.8,1.4,3.7,1.4,4.6c0,1.2-0.5,2.1-1.3,2.1c-0.1,0-0.3-0.1-0.4-0.3c-0.2-0.2-0.3-0.5-0.4-1.2
			c-0.5-3.5-1.7-7.3-3.5-11.5c-1.6,1.1-2.5,1.7-2.9,2c-0.4,0.3-0.5,0.4-0.8,0.6c-0.4,0.3-0.6,0.4-1,0.4c-1.2,0-3-1.8-3-3.1
			c0-0.1,0-0.3,0.1-0.5c0.6,1,1.3,1.5,2,1.5c0.8,0,2.5-0.8,4.9-2.2c-0.7-1.6-1.4-2.7-1.9-3.4c-0.5-0.7-0.6-0.8-0.6-1.2
			c0-0.9,1.1-1.9,2.1-1.9c0.3,0,0.4,0,0.9,0.1c0.2,0.1,0.3,0.1,0.7,0.1c0.1,0,1,0,2.2,0c0.7,0,1.3,0,2.1,0c1.6,0,1.8-0.1,1.8-0.4
			c0-0.6-1-1.7-2.3-2.6L89.2,145z"/>
		<path class="st0" d="M84,190.2c-2,0.7-2.9,1-3.6,1.5c-0.4,0.3-0.6,0.3-0.8,0.3c-0.3,0-0.9-0.4-1.2-0.8c-0.5-0.6-0.9-1.6-0.9-2.1
			c0-0.1,0.1-0.3,0.2-0.6c0.6,1.2,1.1,1.5,2.1,1.5c0.6,0,2.5-0.4,4.8-1c0.6-1.6,1.1-3.6,1.1-4.6c0-0.9-0.5-1.3-2.2-1.9
			c0.3-0.2,0.5-0.3,0.8-0.3c0.4,0,1.1,0.1,1.9,0.4c1.3,0.4,2,0.9,2,1.5c0,0.2-0.1,0.3-0.4,0.8c-0.4,0.6-1,1.8-1.8,3.8
			c1.2-0.3,1.8-0.3,2.4-0.3c2.4,0,3.6,1.4,3.6,4.4c0,3.6-1.4,8.2-3.1,10.1c-0.7,0.8-1.8,1.3-2.7,1.3c-0.5,0-0.7-0.2-0.8-0.6
			c-0.1-0.8-0.1-0.8-3.1-3.3l0.3-0.4c2.2,1.2,3.8,1.9,4.3,1.9c0.6,0,1.1-0.6,1.8-2.4c1-2.3,1.7-5.4,1.7-7.5c0-1.9-0.5-2.5-2-2.5
			c-0.8,0-1.3,0.1-2.9,0.6c-0.4,1-0.4,1-1.6,3.8c-0.1,0.3-0.7,1.6-1.7,3.9c-1.1,2.6-2,4.6-2.5,5.4c-0.2,0.4-0.4,0.5-0.7,0.5
			c-0.5,0-0.8-0.7-0.8-1.9c0-0.7,0.1-0.9,0.6-1.6c0.6-0.6,1.3-1.8,2.1-3.3c1.1-2.1,1.1-2.1,2.2-4.6L84,190.2z M94.9,188.4
			c2.2,0.6,3.9,1.8,5.1,3.4c1.1,1.4,1.6,2.7,1.6,4c0,1-0.4,1.5-1.1,1.5c-0.2,0-0.4,0-0.6-0.2c-0.4-0.3-0.6-0.3-1.1-0.3
			c-1,0-1.1,0-3.5,0.3l-0.1-0.4c2.8-0.9,3.4-1.1,4.3-1.4c-0.1-1-0.4-1.7-0.9-2.7c-0.9-1.7-2-2.8-3.8-3.7L94.9,188.4z"/>
		<path class="st0" d="M78.7,222.7c1.3,1.3,2.1,1.6,3.5,1.6c0.7,0,1.5-0.1,2.5-0.3c0.7-1.8,1-3,1-4c0-0.9-0.4-1.5-1.8-2.2
			c0.3-0.2,0.4-0.2,0.7-0.2c0.6,0,1.4,0.3,2.2,0.6c1,0.5,1.3,0.8,1.3,1.2c0,0.2-0.1,0.4-0.3,0.7c-0.1,0.2-0.7,1.4-1.7,3.4
			c2.1-0.7,2.3-0.9,3.1-1.5c0.2-0.2,0.3-0.2,0.6-0.2c1.1,0,1.9,0.4,1.9,0.8c0,0.7-1.7,1.4-6.2,2.5c-0.3,0.6-0.7,1.7-1.5,3.4
			c-0.8,1.9-3,6.6-3.2,7.1c-0.4,0.8-0.7,1-1,1c-0.5,0-0.9-0.9-0.9-2c0-0.6,0.1-0.7,0.3-1c0.6-0.7,1-1.1,1.3-1.7
			c1.4-2,2.4-3.9,3.5-6.6c-0.6,0.1-0.9,0.1-1.3,0.1c-1,0-1.8-0.2-2.5-0.6c-0.8-0.5-1.5-1.1-2-2L78.7,222.7z M93.6,224.3
			c1.9,0.2,3.5,0.7,4.8,1.5c1.1,0.7,1.8,1.5,1.8,2.2c0,0.5-0.3,0.8-0.7,0.8c-0.2,0-0.4-0.1-0.6-0.2c-0.8-0.5-1.3-0.6-2.7-0.6
			c-2.2,0-2.9,0.6-2.9,2.5c0,0.8,0.1,2,0.6,4.8c1.7,0.5,3.2,1.2,4,1.8c0.8,0.6,1.1,1.3,1.1,2.2c0,0.6-0.2,1-0.6,1
			c-0.3,0-0.4-0.1-1-0.7c-1-1.1-1.9-1.8-3.4-2.5c0,0.2,0,0.4,0,0.5c0,1.1-0.2,1.8-0.8,2.4c-0.8,0.8-2.1,1.2-3.6,1.2
			c-2.5,0-4.3-1.2-4.3-3c0-2,2.1-3.3,5.2-3.3c0.6,0,1,0,1.7,0.1c-0.1-2.2-0.1-2.4-0.1-2.8c0-2.3,0.2-3.2,1-4c0.6-0.6,1.3-1,2.7-1.3
			c0.4-0.1,0.5-0.1,1.5-0.4c-0.8-0.8-1.6-1.3-3.6-1.9L93.6,224.3z M92,236.6c-0.9-0.3-1.5-0.3-2.4-0.3c-2.4,0-3.8,0.8-3.8,2.1
			c0,1,1.1,1.7,2.8,1.7c2.3,0,3.4-0.9,3.4-2.7V236.6z"/>
		<path class="st0" d="M89.2,266.9c-0.7,1.2-0.8,1.3-1.9,2.8h10.5c0.8-0.9,0.8-0.9,1.7-1.9l2.5,2.2c0.1,0.1,0.1,0.2,0.1,0.3
			c0,0.1-0.1,0.2-0.3,0.2h-6.9c-0.9,1.7-1.7,2.6-3,3.9c3.9,0.8,5.3,1.2,6,1.8c0.7,0.5,1.3,1.7,1.3,2.4c0,0.2-0.2,0.4-0.5,0.4
			c-0.3,0-0.4-0.1-0.8-0.4c-1.5-1.1-4.1-2.3-7.2-3.2c-1.1,0.8-2.2,1.4-3.3,1.8c-2.7,1-6.3,1.7-9,1.7c-0.3,0-0.8,0-1.5-0.1l-0.1-0.4
			c5.4-0.6,9.1-1.6,12.1-3.5c-1.9-0.4-2.9-0.6-4.8-0.9l-1,1.1c-0.2,0.2-0.3,0.2-0.5,0.2c-0.7,0-1.5-0.3-1.5-0.5
			c0-0.1,0.1-0.2,0.1-0.3c1.8-1.9,2.5-2.7,3.6-3.9H79c-0.8,0-1.3,0-2.2,0.1l-0.3-1.2c0.9,0.3,2,0.4,2.7,0.4h6.1
			c0.7-1,1.2-1.7,1.9-2.8h-3.2v0.7c0,0.4-0.2,0.5-0.9,0.5c-0.2,0-0.3,0-0.3,0c-0.1,0-0.1,0-0.1,0c-0.4,0-0.5-0.1-0.5-0.4
			c0.1-2.2,0.1-3.2,0.1-4.2c0-0.2,0-1.1,0-2.5c0-0.5,0-1.3,0-2.4c0.9,0.5,1.2,0.7,2,1.3h10.1c0.3-0.5,0.4-0.6,0.8-1.1
			c0.8,0.4,1,0.6,1.7,1.1c0.2,0.2,0.3,0.3,0.3,0.4c0,0.1-0.1,0.2-0.3,0.4c0,0-0.1,0.1-0.1,0.1c-0.1,0.1-0.3,0.3-0.5,0.4
			c0,2.3,0,2.3,0,2.8c0,1.1,0,1.8,0.1,3.3c0,0.4-0.1,0.5-1.4,0.6c-0.3,0-0.5-0.1-0.5-0.4v-0.6H89.2z M88.3,256.9v-1.7
			c0-0.6,0-1-0.1-1.9c0.7,0.1,1.2,0.2,1.6,0.2c1.4,0.2,1.8,0.3,1.8,0.6c0,0.2-0.3,0.4-1.3,0.7v2.1H98c0.6-0.6,0.8-0.8,1.4-1.4
			c1,0.8,1.3,1.1,2.3,2c0.2,0.2,0.3,0.3,0.3,0.4c0,0.2-0.4,0.3-1.8,0.4c-0.5,0.4-0.5,0.4-1.3,1.1c-0.6,0.5-0.6,0.5-1,0.8l-0.3-0.1
			c0.4-1.4,0.4-1.5,0.6-2.5H80.1c-0.4,2.6-1.5,4.5-2.5,4.5c-0.4,0-0.8-0.6-0.9-1.3c0-0.3-0.1-0.4-0.1-0.4v0c0-0.1,0.1-0.2,0.2-0.3
			c0.1-0.1,0.1-0.1,0.6-0.4c0.4-0.3,1.1-1.1,1.4-1.6c0.5-1,0.7-1.7,0.9-2.8h0.5c0,0.5,0,0.7,0,1.1c0,0.3,0,0.5,0,0.8H88.3z
			 M94.4,260.6H83.9v2.4h10.5V260.6z M83.9,263.6v2.6h10.5v-2.6H83.9z M86.8,270.3c-1.1,1.4-1.5,2-2.3,2.9c2.4,0.2,3.2,0.3,5.5,0.7
			c1.2-1,1.7-1.7,2.8-3.5H86.8z"/>
		<path class="st0" d="M84,302.8c-0.1,0.3-0.5,2-1.3,5.3c-0.4,1.7-0.5,2.1-0.5,3c0,0.8,0,1-0.1,1.2c-0.1,0.3-0.4,0.5-0.7,0.5
			c-0.5,0-0.9-0.4-1.2-1.1c-0.6-1.5-1-3.7-1-6c0-0.8,0.1-1.9,0.2-3c0.2-1.6,0.2-1.6,1-5.3c0.3-1.3,0.4-2,0.4-2.6
			c0-0.9-0.2-1.6-0.8-2.6c0.6,0,1.1,0.4,1.9,1.4c0.7,0.9,1,1.6,1,2.2c0,0.4,0,0.6-0.6,1.7c-0.6,1.2-1.2,3.1-1.5,4.5
			c-0.3,1.1-0.4,2.3-0.4,3.5c0,1.5,0.1,2.5,0.5,3.7c0.5-1,0.7-1.5,1-2.4l1.5-3.9L84,302.8z M87.5,304.2c-0.1,0.6-0.1,0.8-0.1,1.2
			c0,3.1,1.8,4.3,6.1,4.3c0.8,0,1.6-0.1,2.4-0.2c0.6-0.1,0.6-0.1,1.5-0.4c0.2-0.1,0.3-0.1,0.4-0.1c0.7,0,1.8,1,1.8,1.7
			c0,0.3-0.2,0.6-0.6,0.7c-0.6,0.2-1.9,0.3-3.5,0.3c-3.5,0-6-0.6-7.3-1.7c-1-0.9-1.5-2.1-1.5-3.6c0-0.7,0.1-1.3,0.3-2.2L87.5,304.2z
			 M87.5,295.3c1,0.6,1.6,0.8,2.6,0.8c1.7,0,4.5-0.6,5.6-1.3c0.4-0.2,0.4-0.2,0.6-0.2c0.2,0,0.6,0.1,1,0.4c0.6,0.3,0.9,0.7,0.9,1
			s-0.2,0.5-0.8,0.6c-1.8,0.3-2.9,0.5-4,1c-0.9,0.4-2.5,1.3-3.6,2l-0.3-0.3c1.3-1.1,2.2-1.8,2.7-2.2c-0.6,0-0.9,0.1-1.1,0.1
			c-1.6,0-2.6-0.4-3.8-1.6L87.5,295.3z"/>
		<path class="st0" d="M14.3,151.8c1.1,1,2.1,1.4,3.3,1.4c0.8,0,1.5-0.1,2.8-0.4c0-0.8,0-2.1,0-2.6c0-2.9-0.3-3.5-2.3-3.9
			c0.4-0.3,0.6-0.4,1.2-0.4c1,0,2.1,0.3,2.9,0.7c0.4,0.2,0.6,0.6,0.6,0.9c0,0.2,0,0.2-0.3,0.7c-0.4,0.8-0.7,2.1-0.9,4.2
			c1.5-0.5,2.2-0.9,3.1-1.6c0.2-0.2,0.5-0.3,0.7-0.3c0.3,0,0.7,0.1,1.1,0.3c0.3,0.1,0.5,0.4,0.5,0.6c0,0.4-0.3,0.6-1.3,1.1
			c-1.3,0.6-2.6,1-4.1,1.4c0,0.4,0,0.4-0.1,1.4c0,0.8-0.1,2-0.1,3.7c3.1-1.1,5.2-1.5,7.4-1.5c3.8,0,6.2,1.8,6.2,4.8
			c0,2.7-2.1,4.9-4.8,4.9c-2.6,0-4.4-1.7-5.4-5l0.4-0.1c0.7,1.3,1.1,1.9,1.7,2.4c0.8,0.7,1.7,1.1,2.7,1.1c2,0,3.5-1.6,3.5-3.8
			c0-2.2-1.5-3.3-4.1-3.3c-2.2,0-4.9,0.7-7.6,2c0,3,0,3,0,3.8c0,0.5,0,0.8,0,1.1c0,0.7-0.1,1.2-0.4,1.7c-0.3,0.6-0.9,1-1.3,1
			c-0.4,0-0.4,0-2.1-1.5c-0.6-0.5-1.4-1-1.9-1.3c-0.6-0.3-0.9-0.7-0.9-1.2c0-0.4,0.3-1,0.8-1.6c1-1.1,2-1.7,4.5-2.9
			c0-0.4,0-0.8,0.1-1.3c0.1-1.3,0.1-1.3,0.1-4c-0.9,0.1-1.5,0.2-2.2,0.2c-1.8,0-3-0.6-4.2-2.3L14.3,151.8z M17.4,163.1
			c-0.6,0.6-0.8,1-0.8,1.3c0,0.3,0.4,0.6,1.1,0.9c0.6,0.3,1.4,0.4,1.7,0.4c0.3,0,0.5-0.2,0.5-0.7c0.1-2.5,0.2-3.9,0.2-4.1
			C18.8,161.9,18.1,162.4,17.4,163.1z M29.8,149c1.7,0.1,3,0.4,4.1,1c1.2,0.7,2,1.6,2,2.5c0,0.5-0.3,0.8-0.8,0.8
			c-0.1,0-0.2,0-0.4-0.1c-0.4-0.1-0.5-0.1-0.6-0.1c-0.4,0-1.1,0.1-3.4,0.8l-0.2-0.3c1.7-0.9,2.7-1.5,3.1-1.8
			c-0.4-0.8-0.9-1.2-1.8-1.7c-0.6-0.3-1-0.5-1.9-0.7L29.8,149z"/>
		<path class="st0" d="M17.4,195.7c-0.1,0.6-0.1,0.9-0.1,1.3c0,3.3,2.1,4.9,6.6,4.9c2.2,0,4.5-0.4,6.2-1c0.1-0.1,0.3-0.1,0.5-0.1
			c0.4,0,1.1,0.2,1.5,0.6c0.4,0.3,0.6,0.6,0.6,1c0,0.4-0.3,0.7-0.9,0.9c-1.3,0.3-4,0.6-6.5,0.6c-3.1,0-5.1-0.4-6.5-1.3
			c-1.4-0.9-2.3-2.7-2.3-4.4c0-0.7,0.1-1.4,0.4-2.4L17.4,195.7z M18.2,184.6c1.4,1,2.4,1.2,4.3,1.2c1.8,0,4.2-0.3,5.8-0.8
			c0.2-0.1,0.4-0.1,0.5-0.1c0.7,0,1.7,0.8,1.7,1.5c0,0.5-0.2,0.6-2,1c-1.5,0.3-3,0.9-7.5,2.8l-0.2-0.4c0.8-0.5,1.3-0.8,2-1.2l1.8-1
			l0.5-0.3c-0.6,0.1-1.6,0.1-2.1,0.1c-1,0-2.3-0.3-3.2-0.8c-0.7-0.4-1.2-0.8-2-1.6L18.2,184.6z M31,182.1c1,0.6,1.8,1.1,2.5,1.7
			c1,0.9,1.4,1.6,1.4,2.2s-0.4,1.2-0.9,1.2c-0.4,0-0.4,0-1.3-1.8c-0.5-1-1.4-2.2-2.1-3L31,182.1z M33.9,180.5c1,0.4,1.8,1,2.7,1.6
			c1.1,0.8,1.5,1.4,1.5,2.2c0,0.7-0.3,1.1-0.7,1.1c-0.3,0-0.4-0.1-0.6-0.5c-1-1.8-1.5-2.5-3.1-4L33.9,180.5z"/>
		<path class="st0" d="M19.4,220.6c0.3,0.2,0.6,0.3,1.1,0.3s2.3-0.4,4.3-1c1.1-0.3,1.8-0.5,2.2-0.7c0.2-0.1,0.2-0.1,0.6-0.4
			c0.1-0.1,0.3-0.2,0.5-0.2c0.8,0,2.5,1.8,2.5,2.6c0,0.3-0.1,0.4-0.7,0.6c-0.4,0.2-1.6,1.1-3.7,2.8c-2.1,1.8-5.3,4.2-8.1,6.3
			c3.1-1.2,5.2-1.9,10.9-3.5c1.1-0.3,2-0.6,2.6-0.8c0.7-0.3,0.9-0.3,1.1-0.3c0.4,0,1,0.3,1.5,0.7c0.4,0.3,0.5,0.5,0.5,0.8
			c0,0.3-0.2,0.5-0.6,0.5c-0.2,0.1-0.3,0.1-1.8,0.1c-1.5,0.1-3.6,0.6-5,1.4c-2.4,1.3-3.8,3.2-3.8,5.2c0,1.6,1,2.9,2.8,3.5
			c0.7,0.3,1.2,0.3,2.5,0.3c0.2,0,0.4,0,0.5,0c0.2,0,0.4-0.1,0.4-0.1c0.6,0,1.7,1,1.7,1.6c0,0.5-0.4,0.8-1.4,0.8
			c-4.5,0-7.6-2.4-7.6-5.6c0-1.4,0.6-2.8,1.7-4c0.9-1,1.6-1.5,3.2-2.4c-3.2,0.9-8.3,3-10,4.1c-0.4,0.3-0.5,0.3-0.7,0.3
			c-0.6,0-1.6-0.9-1.6-1.5c0-0.4,0.2-0.6,0.8-0.7c1.5-0.4,4-2.4,7.9-6.1c3.1-2.9,4.5-4.5,4.5-4.9c0-0.2-0.2-0.4-0.4-0.4
			c-0.3,0-0.6,0.1-3.1,1.1c-1.6,0.6-2.6,1.1-3.4,1.6c-0.4,0.2-0.6,0.3-0.8,0.3c-0.6,0-1.2-0.6-1.7-1.5c-0.3-0.6-0.5-1.2-0.5-1.6
			c0-0.1,0-0.3,0.2-0.5C18.6,219.9,18.9,220.2,19.4,220.6z"/>
		<path class="st0" d="M20,263c-2,0.7-2.9,1-3.6,1.5c-0.4,0.3-0.6,0.3-0.8,0.3c-0.3,0-0.9-0.4-1.2-0.8c-0.5-0.6-0.9-1.6-0.9-2.1
			c0-0.1,0.1-0.3,0.2-0.6c0.6,1.2,1.1,1.5,2.1,1.5c0.6,0,2.5-0.4,4.8-1c0.6-1.6,1.1-3.6,1.1-4.6c0-0.9-0.5-1.3-2.2-1.9
			c0.3-0.2,0.5-0.3,0.8-0.3c0.4,0,1.1,0.1,1.9,0.4c1.3,0.4,2,0.9,2,1.5c0,0.2-0.1,0.3-0.4,0.8c-0.4,0.6-1,1.8-1.8,3.8
			c1.2-0.3,1.8-0.3,2.4-0.3c2.4,0,3.6,1.4,3.6,4.4c0,3.6-1.4,8.2-3.1,10.1c-0.7,0.8-1.8,1.3-2.7,1.3c-0.5,0-0.7-0.2-0.8-0.6
			c-0.1-0.8-0.1-0.8-3.1-3.3l0.3-0.4c2.2,1.2,3.8,1.9,4.3,1.9c0.6,0,1.1-0.6,1.8-2.4c1-2.3,1.7-5.4,1.7-7.5c0-1.9-0.5-2.5-2-2.5
			c-0.8,0-1.3,0.1-2.9,0.6c-0.4,1-0.4,1-1.6,3.8c-0.1,0.3-0.7,1.6-1.7,3.9c-1.1,2.6-2,4.6-2.5,5.4c-0.2,0.4-0.4,0.5-0.7,0.5
			c-0.5,0-0.8-0.7-0.8-1.9c0-0.7,0.1-0.9,0.6-1.6c0.6-0.6,1.3-1.8,2.1-3.3c1.1-2.1,1.1-2.1,2.2-4.6L20,263z M30.9,261.2
			c2.2,0.6,3.9,1.8,5.1,3.4c1.1,1.4,1.6,2.7,1.6,4c0,1-0.4,1.5-1.1,1.5c-0.2,0-0.4,0-0.6-0.2c-0.4-0.3-0.6-0.3-1.1-0.3
			c-1,0-1.1,0-3.5,0.3l-0.1-0.4c2.8-0.9,3.4-1.1,4.3-1.4c-0.1-1-0.4-1.7-0.9-2.7c-0.9-1.7-2-2.8-3.8-3.7L30.9,261.2z"/>
		<path class="st0" d="M14.7,295.5c1.3,1.3,2.1,1.6,3.5,1.6c0.7,0,1.5-0.1,2.5-0.3c0.7-1.8,1-3,1-4c0-0.9-0.4-1.5-1.8-2.2
			c0.3-0.2,0.4-0.2,0.7-0.2c0.6,0,1.4,0.3,2.2,0.6c1,0.5,1.3,0.8,1.3,1.2c0,0.2-0.1,0.4-0.3,0.7c-0.1,0.2-0.7,1.4-1.7,3.4
			c2.1-0.7,2.3-0.9,3.1-1.5c0.2-0.2,0.3-0.2,0.6-0.2c1.1,0,1.9,0.4,1.9,0.8c0,0.7-1.7,1.4-6.2,2.5c-0.3,0.6-0.7,1.7-1.5,3.4
			c-0.8,1.9-3,6.6-3.2,7.1c-0.4,0.8-0.7,1-1,1c-0.5,0-0.9-0.9-0.9-2c0-0.6,0.1-0.7,0.3-1c0.6-0.7,1-1.1,1.3-1.7
			c1.4-2,2.4-3.9,3.5-6.6c-0.6,0.1-0.9,0.1-1.3,0.1c-1,0-1.8-0.2-2.5-0.6c-0.8-0.5-1.5-1.1-2-2L14.7,295.5z M29.6,297.1
			c1.9,0.2,3.5,0.7,4.8,1.5c1.1,0.7,1.8,1.5,1.8,2.2c0,0.5-0.3,0.8-0.7,0.8c-0.2,0-0.4-0.1-0.6-0.2c-0.8-0.5-1.3-0.6-2.7-0.6
			c-2.2,0-2.9,0.6-2.9,2.5c0,0.8,0.1,2,0.6,4.8c1.7,0.5,3.2,1.2,4,1.8c0.8,0.6,1.1,1.3,1.1,2.2c0,0.6-0.2,1-0.6,1
			c-0.3,0-0.4-0.1-1-0.7c-1-1.1-1.9-1.8-3.4-2.5c0,0.2,0,0.4,0,0.5c0,1.1-0.2,1.8-0.8,2.4c-0.8,0.8-2.1,1.2-3.6,1.2
			c-2.5,0-4.3-1.2-4.3-3c0-2,2.1-3.3,5.2-3.3c0.6,0,1,0,1.7,0.1c-0.1-2.2-0.1-2.4-0.1-2.8c0-2.3,0.2-3.2,1-4c0.6-0.6,1.3-1,2.7-1.3
			c0.4-0.1,0.5-0.1,1.5-0.4c-0.8-0.8-1.6-1.3-3.6-1.9L29.6,297.1z M28,309.4c-0.9-0.3-1.5-0.3-2.4-0.3c-2.4,0-3.8,0.8-3.8,2.1
			c0,1,1.1,1.7,2.8,1.7c2.3,0,3.4-0.9,3.4-2.7V309.4z"/>
		<path class="st0" d="M27.3,331.8c-0.1-1-0.1-1.5-0.1-2.4c-0.1-1.9-0.1-2.3-0.2-3.2c2.7,0.2,3.2,0.3,3.2,0.6c0,0.2-0.3,0.4-1.1,0.6
			c0,0.6,0,0.9,0,1.3c0,1,0,2.2,0.1,3.2h4.3c0.7-0.9,0.9-1.2,1.7-2c1.1,0.9,1.5,1.2,2.5,2.2c0.1,0.1,0.1,0.2,0.1,0.3
			c0,0.1-0.2,0.2-0.3,0.2h-8.3c0.2,2.9,0.4,4.8,0.8,6.6c0.5,2.2,1.4,4.3,2.5,6c0.6,1.1,1.3,1.7,2.7,3.1c1.4-2.9,1.5-3.1,2.4-5.2
			l0.3,0.1l-1,4.9c-0.2,0.8-0.2,0.8-0.2,0.9c0,0.3,0.1,0.4,0.5,0.8c0.3,0.3,0.4,0.6,0.4,0.8c0,0.4-0.3,0.8-0.8,0.8
			c-0.6,0-1.4-0.3-2.2-0.8c-2-1.3-3.8-3.7-5-6.7c-1.3-3-1.9-5.9-2.3-11.1H15.9c-1.3,0-2,0.1-2.9,0.2l-0.2-1.2
			c1.1,0.3,1.5,0.3,3.1,0.3H27.3z M21.4,345.4c4.2-1.1,4.6-1.3,6.5-2l0.2,0.3c-1.7,1-2.8,1.5-6.5,3c-2.4,1-3.9,1.5-6.6,2.3
			c-0.1,1.2-0.2,1.4-0.5,1.4c-0.3,0-0.3-0.1-1.4-3.3c2.5-0.3,4.4-0.7,6.4-1.3V338h-3.1c-0.6,0-1.4,0.1-2,0.2l-0.2-1.1
			c0.7,0.2,1.4,0.3,2.2,0.3h6.8c0.6-0.9,0.8-1.1,1.6-1.9c1.1,0.8,1.4,1.1,2.4,2.1c0.1,0.1,0.1,0.2,0.1,0.3c0,0.1-0.1,0.2-0.3,0.2
			h-5.5V345.4z M30.6,327c0.3,0.1,0.5,0.2,0.6,0.2c1.4,0.5,1.7,0.6,2.3,1c0.5,0.3,0.6,0.6,0.6,1.2c0,0.7-0.4,1.3-0.8,1.3
			c-0.2,0-0.2,0-0.4-0.3c-0.1-0.1-0.2-0.3-0.3-0.5c-0.1-0.1-0.3-0.4-0.7-1c-0.2-0.3-0.5-0.6-1.5-1.6L30.6,327z"/>
		<path class="st0" d="M35,379.9c0.6-0.8,0.8-1,1.4-1.8c1,0.8,1.3,1.1,2.2,2c0.1,0.1,0.1,0.2,0.1,0.2c0,0.1-0.2,0.3-0.3,0.3H14.6
			c-0.6,0-1.6,0.1-2.2,0.1l-0.2-1c0.9,0.2,1.4,0.3,2.4,0.3h1.2v-11c0-1.3,0-1.8-0.1-3.2c1.1,0.6,1.4,0.8,2.4,1.5h3.2v-2.5
			c0-0.7,0-1.1-0.1-2.1c2.7,0.4,3.1,0.4,3.1,0.8c0,0.3-0.1,0.3-1.2,0.7v3.1H27v-2.2c0-0.2,0-0.7-0.1-1.5c0-0.2,0-0.4,0-0.8
			c2.5,0.4,2.9,0.5,2.9,0.8c0,0.3-0.1,0.3-1.1,0.6v3.1h3.8c0.5-0.6,0.6-0.8,1.1-1.3c0.8,0.6,1.1,0.8,1.8,1.5
			c0.2,0.2,0.3,0.3,0.3,0.4c0,0.2-0.3,0.4-1.2,0.8v11.4H35z M12.6,387.5c2.2-1.1,3.6-2,5.5-3.6c1.4-1.2,1.9-1.7,2.5-2.6
			c2.5,0.9,2.8,1,2.8,1.3c0,0.2-0.4,0.4-0.9,0.4c-0.2,0-0.4,0-0.6,0c-3.5,2.7-5.3,3.7-9.1,4.8L12.6,387.5z M21.4,367.7h-3.7v5.1h3.7
			V367.7z M21.4,373.5h-3.7v6.4h3.7V373.5z M27,367.7h-3.8v5.1H27V367.7z M27,373.5h-3.8v6.4H27V373.5z M27.6,381.4
			c2,0.6,3,1,4.9,1.8c2,0.9,2.6,1.2,2.9,1.7c0.2,0.3,0.4,0.9,0.4,1.5c0,0.6-0.3,1.2-0.6,1.2c-0.2,0-0.5-0.2-0.9-0.6
			c-0.6-0.7-1.3-1.3-2.7-2.4c-1.8-1.5-2.5-1.9-4.2-2.8L27.6,381.4z M32.7,367.7h-4v5.1h4V367.7z M32.7,373.5h-4v6.4h4V373.5z"/>
		<path class="st0" d="M20,412c-0.1,0.3-0.5,2-1.3,5.3c-0.4,1.7-0.5,2.1-0.5,3c0,0.8,0,1-0.1,1.2c-0.1,0.3-0.4,0.5-0.7,0.5
			c-0.5,0-0.9-0.4-1.2-1.1c-0.6-1.5-1-3.7-1-6c0-0.8,0.1-1.9,0.2-3c0.2-1.6,0.2-1.6,1-5.3c0.3-1.3,0.4-2,0.4-2.6
			c0-0.9-0.2-1.6-0.8-2.6c0.6,0,1.1,0.4,1.9,1.4c0.7,0.9,1,1.6,1,2.2c0,0.4,0,0.6-0.6,1.7c-0.6,1.2-1.2,3.1-1.5,4.5
			c-0.3,1.1-0.4,2.3-0.4,3.5c0,1.5,0.1,2.5,0.5,3.7c0.5-1,0.7-1.5,1-2.4l1.5-3.9L20,412z M23.5,413.4c-0.1,0.6-0.1,0.8-0.1,1.2
			c0,3.1,1.8,4.3,6.1,4.3c0.8,0,1.6-0.1,2.4-0.2c0.6-0.1,0.6-0.1,1.5-0.4c0.2-0.1,0.3-0.1,0.4-0.1c0.7,0,1.8,1,1.8,1.7
			c0,0.3-0.2,0.6-0.6,0.7c-0.6,0.2-1.9,0.3-3.5,0.3c-3.5,0-6-0.6-7.3-1.7c-1-0.9-1.5-2.1-1.5-3.6c0-0.7,0.1-1.3,0.3-2.2L23.5,413.4z
			 M23.5,404.5c1,0.6,1.6,0.8,2.6,0.8c1.7,0,4.5-0.6,5.6-1.3c0.4-0.2,0.4-0.2,0.6-0.2c0.2,0,0.6,0.1,1,0.4c0.6,0.3,0.9,0.7,0.9,1
			s-0.2,0.5-0.8,0.6c-1.8,0.3-2.9,0.5-4,1c-0.9,0.4-2.5,1.3-3.6,2l-0.3-0.3c1.3-1.1,2.2-1.8,2.7-2.2c-0.6,0-0.9,0.1-1.1,0.1
			c-1.6,0-2.6-0.4-3.8-1.6L23.5,404.5z"/>
	</g>
</g>
<line class="st1" x1="89.2" y1="15.1" x2="89.2" y2="75.1"/>
</svg>
