<?xml version="1.0" encoding="utf-8"?>
<!-- Generator: Adobe Illustrator 25.2.3, SVG Export Plug-In . SVG Version: 6.00 Build 0)  -->
<svg version="1.1" id="レイヤー_1" xmlns="http://www.w3.org/2000/svg" xmlns:xlink="http://www.w3.org/1999/xlink" x="0px"
	 y="0px" viewBox="0 0 410 138.7" style="enable-background:new 0 0 410 138.7;" xml:space="preserve">
<style type="text/css">
	.st0{fill:#8D8017;}
	.st1{fill:#200701;}
	.st2{fill:none;stroke:#AA942C;stroke-miterlimit:10;}
	.st3{fill:#FFFFFF;}
</style>
<g>
	<g>
		<g>
			<path class="st0" d="M97.7,76.8l-1.8-1.4c-0.9-0.7-2.3-0.7-3.1,0.1c-0.4,0.3-0.7,0.6-0.8,0.9c0,0,0,0,0,0c0,0,0,0,0,0
				c-0.1,0-0.1,0-0.3,0l0,0c-1-0.2-3.6-2.5-4.2-3.1c-0.7-0.6-3.7-4-3-4.5c0.2-0.2,0.5-0.5,0.9-0.8c0.8-0.9,0.8-2.2,0.1-3.1l-1.4-1.8
				c-0.1-0.1-0.2-0.3-0.4-0.4c0,0,0,0,0,0c-0.1-0.1-0.1-0.1-0.2-0.1c0,0,0,0,0,0c-0.2-0.1-0.5-0.2-0.7-0.3l0,0c-0.1,0-0.2,0-0.3,0
				c0,0,0,0,0,0c-0.3,0-0.6,0-0.9,0.1c-0.8,0.2-1.4,0.7-1.7,1.5c-0.4,0.9-0.7,2.2-0.6,3.3c0,0.1,0,0.1,0,0.2c0,0,0,0,0,0
				c0.4,1.8,3.1,5.8,5.2,8.1c0,0,0.1,0.1,0.1,0.1c0,0.1,0.1,0.1,0.1,0.2l0,0c0.1,0.1,0.6,0.6,0.7,0.7l0,0c2.2,2.1,6.4,5,8.3,5.4
				c0,0,0,0,0,0c0.1,0,0.1,0,0.2,0c1.1,0.1,2.4-0.3,3.3-0.6c0.7-0.3,1.3-0.9,1.5-1.7C98.8,78.3,98.4,77.4,97.7,76.8z"/>
		</g>
		<g>
			<g>
				<path class="st0" d="M113.9,58.8c2.3,0,4.2,0.9,5.8,2.7c1.9,2.2,2.9,5.6,2.9,10c0,4.2-0.8,7.3-2.5,9.5c-1.7,2.2-3.7,3.3-6,3.3
					c-2.3,0-4.1-0.9-5.7-2.7c-1.9-2.3-2.8-5.6-2.8-10c0-4.1,0.9-7.4,2.7-9.9C109.7,59.8,111.6,58.8,113.9,58.8z M114,60.1
					c-1.6,0-2.8,0.7-3.7,2.2c-0.9,1.5-1.3,4.6-1.3,9.3c0,4.6,0.5,7.7,1.4,9.2s2.1,2.3,3.6,2.3c1.5,0,2.7-0.7,3.5-2.1
					c1-1.7,1.5-4.8,1.5-9.3c0-4.6-0.5-7.7-1.4-9.3C116.8,60.9,115.6,60.1,114,60.1z"/>
				<path class="st0" d="M129.7,80c-0.5,0.7,2.1,1,8,1c0.9,0,1.5-0.2,1.9-0.7c0.4-0.5,0.8-1.7,1.3-3.8h1.2l-0.6,7.4h-15.9v-1
					l5.2-5.9c2.9-3.1,4.6-5.1,5.2-5.9c0.8-1.1,1.4-2.3,1.8-3.3c0.4-1.1,0.6-2,0.6-2.9c0-1.5-0.4-2.6-1.2-3.4
					c-0.8-0.8-1.9-1.2-3.3-1.2c-1.6,0-2.9,0.4-3.9,1.2c-1,0.8-1.5,1.6-1.5,2.4c0,0.3,0.1,0.5,0.2,0.7c0.1,0.2,0.4,0.3,0.9,0.4
					c1.2,0.3,1.8,1,1.8,2.1c0,0.6-0.2,1.1-0.6,1.5c-0.4,0.4-0.9,0.6-1.5,0.6c-0.7,0-1.4-0.3-1.9-1c-0.5-0.7-0.8-1.5-0.8-2.6
					c0-1.2,0.3-2.3,0.9-3.3c0.6-1,1.6-1.8,2.8-2.4s2.6-0.9,4-0.9c1.4,0,2.8,0.3,4,0.9c1.2,0.6,2.1,1.4,2.8,2.4
					c0.6,1,0.9,2.1,0.9,3.3c0,0.8-0.2,1.6-0.5,2.5c-0.3,0.8-0.8,1.6-1.3,2.4c-1,1.3-2.1,2.3-3.1,3.2l-4.7,3.9
					C131.1,78.5,130.2,79.3,129.7,80z"/>
				<path class="st0" d="M158,59.3h1.2v16.8h4.1v1.5h-4.1v3.8c0,0.3,0.1,0.6,0.4,0.8c0.4,0.3,0.8,0.4,1.3,0.4h1.5v1.3h-9.8v-1.3h1.8
					c0.6,0,1.1-0.1,1.4-0.4c0.3-0.3,0.4-0.6,0.4-1.1v-3.5h-10v-1.7L158,59.3z M156.1,64.1l-8.6,12h8.6V64.1z"/>
				<path class="st0" d="M177.1,70.8c1.7,0.4,3,1.1,4,2.1c1.2,1.2,1.8,2.7,1.8,4.5c0,2-0.7,3.7-2.2,4.9c-1.6,1.4-3.8,2.1-6.4,2.1
					c-1.6,0-2.9-0.3-4.1-0.8c-1.1-0.5-2-1.2-2.6-2.1c-0.6-0.9-0.9-1.9-0.9-3c0-0.9,0.2-1.6,0.7-2.1c0.4-0.5,1-0.8,1.6-0.8
					c0.6,0,1.1,0.2,1.5,0.6s0.5,0.9,0.5,1.6c0,0.4-0.1,0.8-0.3,1.1c-0.2,0.3-0.5,0.6-1,0.8c-0.5,0.3-0.8,0.5-0.8,0.8
					c0,0.4,0.2,0.8,0.5,1.2s0.9,0.8,1.6,1.1c0.7,0.3,1.6,0.4,2.7,0.4c1.9,0,3.2-0.5,4.1-1.4c0.9-0.9,1.3-2.4,1.3-4.4
					c0-2.1-0.4-3.6-1.1-4.5c-0.8-0.9-1.9-1.3-3.4-1.3c-0.4,0-0.9,0-1.5,0.1c-0.5,0.1-0.8,0.1-1,0.1c-0.4,0-0.6-0.1-0.8-0.2
					c-0.2-0.1-0.3-0.3-0.3-0.6c0-0.2,0.1-0.4,0.3-0.6c0.2-0.1,0.5-0.2,0.9-0.2l1,0l0.9,0c1.5,0,2.6-0.4,3.4-1.1
					c0.8-0.8,1.1-2,1.1-3.6c0-2-0.4-3.4-1.1-4.2c-0.7-0.8-1.8-1.2-3.2-1.2c-1.3,0-2.4,0.2-3.1,0.7c-0.8,0.5-1.2,0.9-1.2,1.3
					c0,0.3,0.2,0.6,0.7,1c0.6,0.6,1,1.2,1,1.8c0,0.5-0.2,0.9-0.5,1.2c-0.4,0.3-0.8,0.5-1.4,0.5c-0.6,0-1.1-0.2-1.4-0.7
					c-0.4-0.4-0.6-1.1-0.6-1.9c0-1.3,0.4-2.4,1.3-3.3c1.3-1.4,3.1-2.1,5.5-2.1c2.2,0,4,0.6,5.3,1.8s2,2.7,2,4.4
					c0,1.3-0.4,2.4-1.1,3.3C180.1,69.3,178.9,70.1,177.1,70.8z"/>
				<path class="st0" d="M187,71.1h7.2v2.7H187V71.1z"/>
				<path class="st0" d="M202.3,80c-0.5,0.7,2.1,1,8,1c0.9,0,1.5-0.2,1.9-0.7c0.4-0.5,0.8-1.7,1.3-3.8h1.2l-0.6,7.4h-15.9v-1
					l5.2-5.9c2.9-3.1,4.6-5.1,5.2-5.9c0.8-1.1,1.4-2.3,1.8-3.3c0.4-1.1,0.6-2,0.6-2.9c0-1.5-0.4-2.6-1.2-3.4
					c-0.8-0.8-1.9-1.2-3.3-1.2c-1.6,0-2.9,0.4-3.9,1.2c-1,0.8-1.5,1.6-1.5,2.4c0,0.3,0.1,0.5,0.2,0.7c0.1,0.2,0.4,0.3,0.9,0.4
					c1.2,0.3,1.8,1,1.8,2.1c0,0.6-0.2,1.1-0.6,1.5c-0.4,0.4-0.9,0.6-1.5,0.6c-0.7,0-1.4-0.3-1.9-1c-0.5-0.7-0.8-1.5-0.8-2.6
					c0-1.2,0.3-2.3,0.9-3.3c0.6-1,1.6-1.8,2.8-2.4s2.6-0.9,4-0.9c1.4,0,2.8,0.3,4,0.9c1.2,0.6,2.1,1.4,2.8,2.4
					c0.6,1,0.9,2.1,0.9,3.3c0,0.8-0.2,1.6-0.5,2.5c-0.3,0.8-0.8,1.6-1.3,2.4c-1,1.3-2.1,2.3-3.1,3.2l-4.7,3.9
					C203.8,78.5,202.9,79.3,202.3,80z"/>
				<path class="st0" d="M230.6,59.3h1.2v16.8h4.1v1.5h-4.1v3.8c0,0.3,0.1,0.6,0.4,0.8c0.4,0.3,0.8,0.4,1.3,0.4h1.5v1.3h-9.8v-1.3
					h1.8c0.6,0,1.1-0.1,1.4-0.4c0.3-0.3,0.4-0.6,0.4-1.1v-3.5h-10v-1.7L230.6,59.3z M228.8,64.1l-8.6,12h8.6V64.1z"/>
				<path class="st0" d="M239.4,71.1h7.2v2.7h-7.2V71.1z"/>
				<path class="st0" d="M254.8,80c-0.5,0.7,2.1,1,8,1c0.9,0,1.5-0.2,1.9-0.7c0.4-0.5,0.8-1.7,1.3-3.8h1.2l-0.6,7.4h-15.9v-1
					l5.2-5.9c2.9-3.1,4.6-5.1,5.2-5.9c0.8-1.1,1.4-2.3,1.8-3.3c0.4-1.1,0.6-2,0.6-2.9c0-1.5-0.4-2.6-1.2-3.4
					c-0.8-0.8-1.9-1.2-3.3-1.2c-1.6,0-2.9,0.4-3.9,1.2c-1,0.8-1.5,1.6-1.5,2.4c0,0.3,0.1,0.5,0.2,0.7c0.1,0.2,0.4,0.3,0.9,0.4
					c1.2,0.3,1.8,1,1.8,2.1c0,0.6-0.2,1.1-0.6,1.5c-0.4,0.4-0.9,0.6-1.5,0.6c-0.7,0-1.4-0.3-1.9-1c-0.5-0.7-0.8-1.5-0.8-2.6
					c0-1.2,0.3-2.3,0.9-3.3c0.6-1,1.6-1.8,2.8-2.4s2.6-0.9,4-0.9c1.4,0,2.8,0.3,4,0.9c1.2,0.6,2.1,1.4,2.8,2.4
					c0.6,1,0.9,2.1,0.9,3.3c0,0.8-0.2,1.6-0.5,2.5c-0.3,0.8-0.8,1.6-1.3,2.4c-1,1.3-2.1,2.3-3.1,3.2l-4.7,3.9
					C256.2,78.5,255.3,79.3,254.8,80z"/>
				<path class="st0" d="M281.6,59.3v22.1c0,0.3,0.1,0.6,0.4,0.8c0.3,0.2,0.8,0.4,1.3,0.4h3.4v1.3h-12.8v-1.3h2.9
					c0.6,0,1.1-0.1,1.4-0.4c0.3-0.3,0.4-0.7,0.4-1.2V64.2c0-0.3-0.1-0.6-0.4-0.9c-0.3-0.2-0.6-0.4-1-0.4h-3.9v-1.2
					c1.8-0.2,3.3-0.6,4.5-0.9c1.1-0.4,2.2-0.9,3-1.6H281.6z"/>
				<path class="st0" d="M299.6,58.8c2.3,0,4.2,0.9,5.8,2.7c1.9,2.2,2.9,5.6,2.9,10c0,4.2-0.8,7.3-2.5,9.5c-1.7,2.2-3.7,3.3-6,3.3
					c-2.3,0-4.1-0.9-5.7-2.7c-1.9-2.3-2.8-5.6-2.8-10c0-4.1,0.9-7.4,2.7-9.9C295.3,59.8,297.2,58.8,299.6,58.8z M299.7,60.1
					c-1.6,0-2.8,0.7-3.7,2.2c-0.9,1.5-1.3,4.6-1.3,9.3c0,4.6,0.5,7.7,1.4,9.2s2.1,2.3,3.6,2.3c1.5,0,2.7-0.7,3.5-2.1
					c1-1.7,1.5-4.8,1.5-9.3c0-4.6-0.5-7.7-1.4-9.3C302.4,60.9,301.2,60.1,299.7,60.1z"/>
				<path class="st0" d="M322,59.3v22.1c0,0.3,0.1,0.6,0.4,0.8c0.3,0.2,0.8,0.4,1.3,0.4h3.4v1.3h-12.8v-1.3h2.9
					c0.6,0,1.1-0.1,1.4-0.4c0.3-0.3,0.4-0.7,0.4-1.2V64.2c0-0.3-0.1-0.6-0.4-0.9c-0.3-0.2-0.6-0.4-1-0.4h-3.9v-1.2
					c1.8-0.2,3.3-0.6,4.5-0.9c1.1-0.4,2.2-0.9,3-1.6H322z"/>
			</g>
		</g>
	</g>
	<g>
		<g>
			<path class="st1" d="M103,97.2h5.1c-1,1-1.5,1.8-2,2.7c-1,1.7-1.5,3.9-1.5,5.9c0,2,0.6,4.1,1.5,5.9c0.5,0.9,1,1.6,2,2.7H103V97.2
				z"/>
			<path class="st1" d="M120.7,102.6c0.8-1.2,1.2-2.2,1.6-3.4c1.9,0.6,1.9,0.6,1.9,0.8s-0.2,0.2-0.8,0.3c-0.7,0.9-1.4,1.7-2.2,2.3
				h2.8l0.8-0.9c0.6,0.5,0.8,0.6,1.5,1.2c0.1,0.1,0.2,0.2,0.2,0.3c0,0,0,0.1-0.1,0.1c-0.1,0.1-0.1,0.1-1.1,0.2
				c-0.2,0.2-0.3,0.3-0.4,0.4c-0.8,0.8-0.9,1-1.4,1.4l-0.2-0.1c0.3-0.7,0.4-1,0.8-2.1h-11.9c-0.1,1-0.3,1.6-0.7,2.2
				c-0.3,0.4-0.6,0.7-0.8,0.7c-0.1,0-0.3-0.1-0.4-0.4c-0.1-0.3-0.2-0.6-0.2-0.8c0-0.2,0.1-0.3,0.3-0.5c0.3-0.2,0.8-0.8,1.1-1.3
				c0.2-0.5,0.3-0.8,0.3-1.6h0.3c0,0.4,0,0.6,0,0.8c0,0.1,0,0.3,0,0.5h2.5c-0.1-0.1-0.1-0.2-0.2-0.4c-0.1-0.4-0.3-1-0.6-1.5
				c-0.1-0.3-0.2-0.4-0.4-0.6c-0.7,0.1-1.2,0.1-2.4,0.1l0-0.3c3.6-0.4,6-0.8,8.4-1.3c1.8-0.5,2.9-0.8,3.9-1.3c1.6,1,1.6,1,1.6,1.2
				c0,0.1-0.1,0.2-0.3,0.2c-0.1,0-0.2,0-0.3,0c-0.1,0-0.3,0-0.6-0.1c-2,0.6-3.8,1-6.5,1.3c0.3,0.2,1.1,0.9,1.4,1.2
				c0.3,0.3,0.4,0.5,0.4,0.6c0,0.1-0.1,0.4-0.2,0.7c-0.1,0.1-0.1,0.2-0.2,0.3H120.7z M126.3,112c-0.8,0.2-1.2,0.5-1.5,1.3
				c-1.4-0.3-2.1-0.6-3.4-1.2c-1.2-0.6-2.2-1.1-3.1-1.7c-2.2,1.6-4.8,2.6-8.1,3.3l-0.1-0.3c3-1,5.1-2,7.3-3.7
				c-1.4-1.2-2.2-2.4-2.8-4h-0.6c-0.5,0-0.8,0-1.5,0.1l-0.1-0.6c0.8,0.1,1,0.1,1.6,0.1h7.1c0.3-0.3,0.4-0.4,0.7-0.8
				c0.6,0.5,0.8,0.6,1.5,1.2c0.1,0.1,0.1,0.1,0.1,0.3c0,0-0.1,0.1-0.1,0.1c-0.1,0.1-0.2,0.1-1,0.3c-1.2,1.6-2,2.5-3.3,3.5
				c1.9,1,4.3,1.7,7.2,2V112z M118.4,102.6c-0.1-0.1-0.2-0.2-0.2-0.4c-0.3-0.8-0.8-1.9-1.1-2.3c-1.2,0.1-2,0.2-3,0.2
				c0.3,0.2,1,0.8,1.2,1c0.3,0.3,0.4,0.5,0.4,0.6c0,0.3-0.2,0.7-0.4,0.9H118.4z M115.2,105.7c0.3,0.7,0.5,1.1,1.1,1.8
				c0.6,0.6,1.2,1.2,1.9,1.8c1.3-1.1,2-2,3-3.5H115.2z"/>
			<path class="st1" d="M128.2,106.9c1.2-1.7,2.1-3.3,3-5.5c0.7-1.6,1-2.6,1.2-3.9c0.7,0.2,1.7,0.5,2,0.6c0.1,0.1,0.2,0.1,0.2,0.2
				c0,0.2-0.2,0.3-0.9,0.4c-0.7,1.8-1.3,2.9-2.4,4.8c1.3,0.2,1.5,0.3,1.5,0.4c0,0.1-0.1,0.2-0.6,0.4v4.9c0,2.4,0,2.4,0,4.4
				c0,0.2-0.2,0.3-0.7,0.4c-0.2,0-0.3,0-0.3,0s0,0,0,0c-0.2,0-0.3-0.1-0.3-0.2c0,0,0,0,0,0c0.1-2.1,0.1-3.2,0.1-4.4v-5.3
				c-1.2,1.7-1.6,2.3-2.5,3.2L128.2,106.9z M134.3,103c-0.3,0-0.7,0-1.4,0.1l-0.1-0.6c0.8,0.1,1.2,0.1,1.6,0.1h5.9v-3
				c0-0.9,0-1.2-0.1-1.9c1.6,0.2,2.1,0.3,2.1,0.5c0,0.1-0.2,0.3-0.8,0.5v4h0.5c0.4-0.6,0.6-0.8,1-1.3c0.7,0.6,0.9,0.8,1.6,1.4
				c0.1,0.1,0.1,0.1,0.1,0.2c0,0.1-0.1,0.2-0.2,0.2h-3v5.2c0,1.2,0,2.9,0.1,4c0,0.5-0.1,0.8-0.5,1c-0.3,0.2-0.6,0.3-1.9,0.6
				c-0.2-0.9-0.3-0.9-3.2-1.5l0-0.3c0.5,0,1,0.1,1.3,0.1c1.5,0.1,1.6,0.1,2.6,0.1c0.3,0,0.4-0.1,0.4-0.4V103H134.3z M134.5,104.7
				c1,0.6,1.7,1.2,2.6,2c0.6,0.6,0.8,0.9,0.8,1.3c0,0.5-0.5,1.2-0.7,1.2c-0.2,0-0.3-0.1-0.5-0.5c-0.6-1.6-1.4-2.7-2.4-3.8
				L134.5,104.7z"/>
			<path class="st1" d="M147.8,111.3c0,0.2-0.1,0.3-0.6,0.3c-0.1,0-0.2,0-0.3,0c0,0,0,0-0.1,0c-0.2,0-0.2-0.1-0.3-0.2
				c0-2.3,0.1-4.5,0.1-8.4c0-2,0-2.9-0.1-4.6c0.6,0.3,0.7,0.5,1.3,0.9h2.2c0.3-0.3,0.4-0.5,0.7-0.8c0.4,0.3,0.5,0.5,1,0.8
				c0.1,0.1,0.2,0.2,0.2,0.3c0,0.1-0.2,0.3-0.6,0.5v3.4c0,1.7,0,4.1,0,7.2c0,0.1-0.1,0.2-0.1,0.2c-0.1,0-0.6,0.1-0.8,0.1
				c-0.1,0-0.2-0.1-0.2-0.2v-1h-2.4V111.3z M150.3,99.7h-2.4v4.4h2.4V99.7z M147.8,104.5v4.8h2.4v-4.8H147.8z M159.8,106.3h0.4
				c0.4-0.5,0.6-0.6,1-1.1c0.6,0.5,0.8,0.7,1.3,1.2c0.1,0.1,0.1,0.1,0.1,0.2c0,0.1-0.1,0.1-0.2,0.1h-2.6v2.8c0,0.2,0,1.7,0,2.3
				c0,0.8-0.1,1-0.2,1.2c-0.3,0.3-0.6,0.5-1.7,0.7c-0.1-0.5-0.2-0.7-0.5-0.9c-0.3-0.2-0.6-0.3-1.9-0.5v-0.3c1.3,0.1,1.7,0.1,2.9,0.1
				c0.2,0,0.3-0.1,0.3-0.3v-5.3h-4.8c-1,0-1.1,0-1.7,0.1l-0.2-0.7c0.6,0.1,1,0.2,1.9,0.2h4.8v-2.4h-5.1c-0.9,0-1.2,0-1.7,0.1
				l-0.1-0.7c0.6,0.1,0.8,0.1,1.8,0.1h2.3v-2.9h-2.2c-0.7,0-1,0-1.4,0.1l-0.1-0.7c0.5,0.1,0.9,0.2,1.5,0.2h2.2v-1.3
				c0-0.3,0-0.6-0.1-1.4c1.7,0.2,2.1,0.3,2.1,0.4c0,0.1-0.2,0.3-0.8,0.4v1.9h2.1l1-1.2c0.6,0.6,0.8,0.7,1.4,1.3
				c0.1,0.1,0.1,0.1,0.1,0.2c0,0.1-0.1,0.1-0.2,0.1H157v2.9h3l1-1.2c0.7,0.6,0.9,0.8,1.6,1.3c0.1,0.1,0.1,0.1,0.1,0.1
				c0,0.1-0.1,0.1-0.2,0.1h-2.7V106.3z M153.4,107.5c0.7,0.3,1.4,0.6,2.1,1.2c0.5,0.4,0.8,0.7,0.8,1.1c0,0.6-0.3,1.2-0.5,1.2
				c-0.1,0-0.3-0.1-0.4-0.5c-0.4-1-1.1-1.8-2.1-2.8L153.4,107.5z"/>
			<path class="st1" d="M166,103.2v6.9c0,2.4,0,2.4,0,3.6c0,0.1-0.1,0.2-0.2,0.2c-0.1,0-0.6,0.1-0.9,0.1c-0.2,0-0.2,0-0.2-0.2
				c0.1-1.5,0.1-4.4,0.1-8.9c0-4.7,0-6.3-0.1-7.3c0.5,0.3,0.7,0.5,1.3,0.8h3.7c0.3-0.4,0.4-0.5,0.7-0.8c0.4,0.4,0.6,0.5,1,0.8
				c0.1,0.1,0.2,0.2,0.2,0.2c0,0.1-0.1,0.2-0.5,0.5c0,0.9,0,1.4,0,2c0,0.9,0,1.5,0.1,2.6c0,0.1,0,0.2-0.1,0.2
				c-0.1,0-0.5,0.1-0.9,0.1c-0.1,0-0.2-0.1-0.2-0.2v-0.5H166z M169.9,98.8H166v1.8h3.8V98.8z M169.9,100.9H166v1.8h3.8V100.9z
				 M169.9,112.1c0,0.1,0,0.1-0.2,0.2c-0.1,0-0.6,0.1-0.7,0.1c-0.2,0-0.2-0.1-0.2-0.2c0-1.5,0-2.3,0-3.1c0-2.1,0-3.8-0.1-4.5
				c0.6,0.3,0.8,0.4,1.4,0.8h4.2c0.3-0.3,0.5-0.4,0.8-0.7c0.4,0.3,0.5,0.4,0.9,0.8c0.2,0.1,0.2,0.2,0.2,0.3c0,0.1-0.1,0.2-0.6,0.4
				c0,0.9,0,1.3,0,2c0,1.2,0,1.9,0.1,3.3v0c0,0.2,0,0.2-0.2,0.3c-0.1,0-0.5,0.1-0.8,0.1c-0.2,0-0.2,0-0.3-0.2V111h-4.5V112.1z
				 M174.4,105.8h-4.5v2h4.5V105.8z M169.9,108.2v2.3h4.5v-2.3H169.9z M174.4,103.2v0.5c0,0.2-0.2,0.3-0.7,0.3c-0.5,0-0.5,0-0.5-0.2
				c0-1.1,0.1-1.7,0.1-2.7c0-2.6,0-2.7-0.1-3.4c0.6,0.3,0.8,0.4,1.3,0.8h3.8c0.3-0.4,0.4-0.5,0.7-0.8c0.5,0.4,0.6,0.5,1.1,0.8
				c0.1,0.1,0.2,0.2,0.2,0.3c0,0.1-0.1,0.2-0.6,0.5v8.7c0,3,0,3,0,4.7c-0.1,0.8-0.4,1.1-1.9,1.4c-0.2-0.4-0.3-0.6-0.6-0.8
				c-0.2-0.1-0.5-0.2-1-0.3c-0.6-0.1-1-0.2-1-0.2v-0.3c1.5,0.1,1.8,0.1,2.9,0.1c0.3,0,0.3-0.1,0.3-0.3v-9H174.4z M178.5,98.8h-4.1
				v1.8h4.1V98.8z M178.5,100.9h-4.1v1.8h4.1V100.9z"/>
			<path class="st1" d="M182.4,114.2c1-1,1.5-1.8,2-2.7c1-1.7,1.5-3.9,1.5-5.9c0-2-0.6-4.1-1.5-5.9c-0.5-0.9-1-1.6-2-2.7h5.1v17
				H182.4z"/>
			<path class="st1" d="M206,108.7c0,2.2-1.7,3.5-4.5,3.5c-2.7,0-4.4-1.3-4.4-3.3c0-1,0.5-2,1.4-2.6c0.4-0.3,0.9-0.6,1.7-0.9
				c-0.8-0.4-1.2-0.7-1.6-1c-0.7-0.6-1-1.2-1-2.2c0-0.8,0.3-1.6,0.7-2.1c0.7-0.8,1.9-1.3,3.3-1.3c1.4,0,2.6,0.5,3.3,1.5
				c0.3,0.5,0.5,1,0.5,1.7c0,0.9-0.3,1.5-1,2.1c-0.5,0.4-1,0.6-1.6,0.8C204.9,105.9,206,107.1,206,108.7z M199.5,106.4
				c-0.7,0.6-1,1.4-1,2.3c0,1.8,1.3,3,3.1,3c1.7,0,2.9-1.1,2.9-2.7c0-0.9-0.4-1.5-1.3-2.1c-0.3-0.3-0.9-0.5-1.7-0.9
				c-0.2-0.1-0.7-0.3-0.7-0.3C200.2,105.9,199.9,106.1,199.5,106.4z M204.2,102.1c0-1.7-1-2.8-2.7-2.8c-1.5,0-2.5,0.9-2.5,2.4
				c0,1,0.4,1.5,1.5,2.2c0.2,0.1,0.2,0.1,1.3,0.6c0.1,0.1,0.3,0.1,0.5,0.3C203.6,104.2,204.2,103.4,204.2,102.1z"/>
			<path class="st1" d="M210.9,103.9c0,0.7-0.5,1.3-1.3,1.3c-0.7,0-1.3-0.5-1.3-1.3c0-0.7,0.5-1.3,1.3-1.3
				C210.4,102.6,210.9,103.1,210.9,103.9z M210.9,110.9c0,0.7-0.5,1.3-1.3,1.3c-0.7,0-1.3-0.6-1.3-1.3s0.5-1.3,1.3-1.3
				C210.4,109.6,210.9,110.2,210.9,110.9z"/>
			<path class="st1" d="M214.3,100.9c0.7-1.3,2-2,3.5-2c1.5,0,2.8,0.7,3.5,2c0.7,1.2,1,2.9,1,4.7c0,1.8-0.4,3.4-1,4.7
				c-0.7,1.3-2,2-3.5,2c-1.5,0-2.8-0.8-3.5-2c-0.7-1.2-1-2.9-1-4.7C213.3,103.8,213.6,102.2,214.3,100.9z M217.8,111.8
				c1.9,0,2.8-1.9,2.8-6.2c0-4.3-0.8-6.2-2.8-6.2c-1.9,0-2.8,1.9-2.8,6.2C215,109.9,215.9,111.8,217.8,111.8z"/>
			<path class="st1" d="M224.9,100.9c0.7-1.3,2-2,3.5-2c1.5,0,2.8,0.7,3.5,2c0.7,1.2,1,2.9,1,4.7c0,1.8-0.4,3.4-1,4.7
				c-0.7,1.3-2,2-3.5,2c-1.5,0-2.8-0.8-3.5-2c-0.7-1.2-1-2.9-1-4.7C223.8,103.8,224.2,102.2,224.9,100.9z M228.4,111.8
				c1.9,0,2.8-1.9,2.8-6.2c0-4.3-0.8-6.2-2.8-6.2c-1.9,0-2.8,1.9-2.8,6.2C225.6,109.9,226.4,111.8,228.4,111.8z"/>
			<path class="st1" d="M239.2,106.2c1.4-1.9,2.7-2.8,4.2-2.8c1,0,1.9,0.4,4.6,1.9c2.1,1.2,3,1.6,3.9,1.6c0.4,0,1-0.2,1.5-0.5
				c0.5-0.3,0.9-0.8,1.5-1.6l0.4,0.3c-0.4,0.8-0.9,1.4-1.7,2.1c-0.8,0.7-1.4,1-2.3,1c-0.4,0-0.8-0.1-1.2-0.2
				c-0.7-0.2-1.3-0.5-3.4-1.7c-1.9-1.1-3.2-1.7-4.2-1.7c-0.8,0-1.9,0.7-2.9,2L239.2,106.2z"/>
			<path class="st1" d="M263.5,111.4c0.8-0.1,1-0.1,1.2-0.2c0.4-0.2,0.5-0.6,0.5-1.9v-7.6c0-1.6,0-1.6-0.2-1.7s-0.4-0.2-0.8-0.2
				h-0.7v-0.5c1.4-0.1,2.5-0.3,3.4-0.5c-0.1,1.4-0.1,3-0.1,5.1v5.3c0,1.2,0.1,1.6,0.3,1.8c0.2,0.2,0.3,0.2,1.3,0.3v0.5h-4.9V111.4z"
				/>
			<path class="st1" d="M276.1,107.3c-1.2,0-2.2-0.4-2.9-1.1c-0.6-0.7-1-1.8-1-2.9c0-2.6,1.8-4.4,4.3-4.4c2.9,0,4.4,2.1,4.4,6
				c0,2.6-0.6,4.8-1.6,5.9c-0.8,0.9-1.8,1.4-3.1,1.4c-1.9,0-3.5-1-3.5-2.1c0-0.6,0.4-0.9,1-0.9c0.6,0,0.8,0.2,0.8,0.7
				c0.1,1.3,0.6,1.9,1.7,1.9c1.2,0,2.1-0.8,2.6-2.5c0.3-0.9,0.4-2.2,0.4-3.4C278.2,106.9,277.3,107.3,276.1,107.3z M278.5,100.7
				c-0.5-0.9-1.2-1.3-2.1-1.3c-0.8,0-1.6,0.4-2,1.2c-0.4,0.7-0.6,1.7-0.6,2.7c0,2.2,1,3.6,2.5,3.6c0.7,0,1.4-0.3,1.9-0.8
				c0.6-0.6,0.9-1.3,0.9-2.4C279.2,102.5,278.9,101.5,278.5,100.7z"/>
			<path class="st1" d="M285.9,103.9c0,0.7-0.5,1.3-1.3,1.3c-0.7,0-1.3-0.5-1.3-1.3c0-0.7,0.5-1.3,1.3-1.3
				C285.4,102.6,285.9,103.1,285.9,103.9z M285.9,110.9c0,0.7-0.5,1.3-1.3,1.3c-0.7,0-1.3-0.6-1.3-1.3s0.5-1.3,1.3-1.3
				C285.4,109.6,285.9,110.2,285.9,110.9z"/>
			<path class="st1" d="M289.3,100.9c0.7-1.3,2-2,3.5-2c1.5,0,2.8,0.7,3.5,2c0.7,1.2,1,2.9,1,4.7c0,1.8-0.4,3.4-1,4.7
				c-0.7,1.3-2,2-3.5,2c-1.5,0-2.8-0.8-3.5-2c-0.7-1.2-1-2.9-1-4.7C288.2,103.8,288.6,102.2,289.3,100.9z M292.8,111.8
				c1.9,0,2.8-1.9,2.8-6.2c0-4.3-0.8-6.2-2.8-6.2c-1.9,0-2.8,1.9-2.8,6.2C290,109.9,290.8,111.8,292.8,111.8z"/>
			<path class="st1" d="M299.9,100.9c0.7-1.3,2-2,3.5-2c1.5,0,2.8,0.7,3.5,2c0.7,1.2,1,2.9,1,4.7c0,1.8-0.4,3.4-1,4.7
				c-0.7,1.3-2,2-3.5,2c-1.5,0-2.8-0.8-3.5-2c-0.7-1.2-1-2.9-1-4.7C298.8,103.8,299.2,102.2,299.9,100.9z M303.4,111.8
				c1.9,0,2.8-1.9,2.8-6.2c0-4.3-0.8-6.2-2.8-6.2c-1.9,0-2.8,1.9-2.8,6.2C300.6,109.9,301.4,111.8,303.4,111.8z"/>
		</g>
	</g>
	<line class="st2" x1="4.4" y1="133.8" x2="404.4" y2="133.8"/>
	<polygon class="st0" points="393.7,37.3 404.4,18.7 393.7,0 15.2,0 4.4,18.7 15.2,37.3 	"/>
	<g>
		<g>
			<path class="st3" d="M112.8,23.9c0.2,0,1-0.1,1.7-0.2c0.3,0,1.4-0.2,1.7-0.2c0.6,0,1.2,0.5,1.2,0.8c0,1-3.1,1.1-4.1,1.1
				c-2.4,0-5.6-0.5-5.6-3.2c0-0.6,0.2-0.8,0.3-0.8c0.1,0,0.1,0,0.2,0.5c0.4,1.4,2.2,2,3.5,2C111.8,23.8,112.6,23.9,112.8,23.9z
				 M110,14c1.4,0,2.7-0.3,2.9-0.3c0.6-0.1,0.8-0.1,0.9-0.1c0.8,0,1.7,0.8,1.7,1.2c0,0.3-0.1,0.3-1.3,0.6c-0.9,0.2-1.5,0.7-2.1,1.2
				c-0.1,0.1-0.2,0.1-0.2,0.1c0,0-0.1,0-0.1-0.1c0-0.1,0.8-1.1,0.8-1.3c0-0.1-0.1-0.1-0.6-0.1c-2.1,0-3.4-1-3.4-1.2
				c0-0.1,0.1-0.1,0.1-0.1c0.1,0,0.1,0,0.6,0.1C109.5,14,109.8,14,110,14z M117.6,16.3c0.5,0.3,0.8,0.8,0.8,1c0,0.3-0.2,0.7-0.5,0.7
				c-0.2,0-0.4-0.1-1-0.7c-0.4-0.4-0.5-0.5-1.3-1c-0.1-0.1-0.3-0.2-0.3-0.3c0-0.1,0.1-0.2,0.3-0.2C116.4,15.8,117,15.8,117.6,16.3z
				 M120.3,15.8c0,0.2-0.1,0.5-0.5,0.5c-0.4,0-0.6-0.3-0.9-0.7c-0.2-0.3-1-0.8-1.6-1c-0.2-0.1-0.2-0.1-0.2-0.2
				c0-0.1,0.4-0.2,0.7-0.2C119.4,14.3,120.3,15.1,120.3,15.8z"/>
			<path class="st3" d="M133.1,17.6c0.4,0,0.6,0,0.6-0.2c0,0-0.4-1-2.4-2.5c-0.5-0.4-0.5-0.4-0.5-0.5c0-0.1,0.1-0.1,0.1-0.1
				c0.1,0,1,0.3,1.7,0.5c0.3,0.1,1.6,0.6,1.7,0.6c0.2,0,0.2,0,0.8-0.7c0.2-0.3,1-1.4,1-1.6c0-0.2-0.2-0.2-0.4-0.2h-5.2
				c-0.4,0-1.6,0-2.3,0.1c-0.1,0-0.3,0-0.4,0c-0.1,0-0.1,0-0.2-0.1l-0.3-0.4c-0.1-0.1-0.1-0.1-0.1-0.1s0,0,0.1,0
				c0.1,0,0.7,0.1,0.8,0.1c0.5,0,1.4,0.1,2.5,0.1h5.3c0.6,0,0.8,0,0.9-0.2c0.3-0.3,0.4-0.5,0.6-0.5c0.3,0,1.8,0.9,1.8,1.2
				c0,0.2-0.1,0.2-0.8,0.3c-0.4,0.1-0.7,0.3-3.2,2c-0.5,0.3-0.6,0.4-0.6,0.5c0,0.1,0,0.1,0.1,0.3c0.1,0.2,0.2,0.4,0.2,0.6
				c0,0.1,0,0.2-0.1,0.3c-0.1,0.2-0.1,0.2-0.1,0.4c0,0.2,0.2,0.2,0.3,0.2h3.2c0.8,0,0.8,0,0.9-0.1c0.3-0.3,0.5-0.4,0.6-0.4
				c0.2,0,1.8,1.3,1.8,1.6c0,0.2-0.2,0.3-0.3,0.3s-0.6-0.1-0.8-0.1c-0.5,0-0.6,0.1-1.9,1c-0.2,0.1-0.8,0.6-0.8,0.6s-0.1-0.1-0.1-0.1
				c0,0,1.3-1.7,1.3-2.1c0-0.2-0.1-0.2-0.5-0.2h-3.6c-0.4,0-0.7,0-0.7,0.5c0,0.7,0.1,6.2,0.1,6.4c0,0.6,0,1.5-0.5,2
				c-0.4,0.5-0.9,0.6-1.1,0.6c-0.3,0-0.4-0.1-0.7-0.7c-0.1-0.2-0.4-0.5-0.8-0.7c-0.2-0.1-1.1-0.4-1.1-0.5c0-0.1,0.1-0.1,0.2-0.1
				s0.4,0.1,0.5,0.1c0.3,0,0.7,0.1,1,0.1c0.8,0,1,0,1.2-0.4c0.1-0.4,0.1-2.8,0.1-3.4c0-0.5-0.1-2.7-0.1-3.2c0-0.3,0-0.6-0.5-0.6
				h-4.1c-0.4,0-1.6,0-2.3,0.1c-0.1,0-0.3,0-0.4,0c-0.1,0-0.1,0-0.2-0.1l-0.3-0.4c-0.1-0.1-0.1-0.1-0.1-0.1s0.1,0,0.1,0
				c0.1,0,0.7,0.1,0.8,0.1c0.5,0,1.4,0.1,2.5,0.1H133.1z"/>
			<path class="st3" d="M148.7,22.2c0,0.1-0.3,0.4-0.4,0.5c-0.3,0.4-1.5,2.4-1.8,2.7c-0.1,0.2-0.5,0.6-0.6,0.6c-0.1,0-0.1,0-0.1-0.1
				c0,0,0.5-1.3,0.6-1.6c0.3-0.9,0.6-1.8,0.7-2.3c0-0.5,0-0.6,0.2-0.6c0.1,0,0.6,0.2,0.7,0.2C148.2,21.8,148.7,22,148.7,22.2z
				 M152.5,20.1c0-0.2-0.1-0.3-0.3-0.3c-0.2,0-1,0.2-1.2,0.2c-0.5,0.1-0.5,0.2-0.5,0.9c0,0.8,0,4.7,0,5.6c0,0.9-0.8,1-0.9,1
				c-0.4,0-0.4-0.3-0.4-0.4c0-0.2,0.1-1.3,0.1-1.6c0-1.3,0.1-3.5,0.1-4.8c0-0.2,0-0.4-0.4-0.4c-0.3,0-1.7,0.1-2.1,0.3
				c-0.1,0-0.4,0.3-0.5,0.3c-0.3,0-0.4-1.4-0.4-1.5c0-0.1,0-0.3,0.2-0.3c0,0,0.5,0.1,0.5,0.1c0.4,0.1,1,0.3,1.8,0.3
				c0.6,0,0.6-0.1,0.8-0.3c0.9-1.5,2-3.9,2.2-5c0.1-0.4,0.1-0.5,0.2-0.5c0.1,0,1.7,0.7,1.7,1c0,0.2-0.1,0.2-0.3,0.2
				c-0.2,0-0.3,0.1-0.6,0.4c-0.5,0.5-2.8,4-2.8,4.1c0,0.1,0,0.1,0.1,0.1c0.1,0,1.1,0,1.3,0c0.3,0,0.8,0,1-0.1c0.1,0,0.2,0,0.2-0.2
				c0-0.2-0.5-1.2-0.5-1.3c0-0.1,0.1-0.1,0.1-0.1c0.3,0,2,1,2,2.3c0,0.4-0.2,0.7-0.6,0.7C152.8,20.8,152.6,20.7,152.5,20.1z
				 M148.6,17.7c-0.3,0-0.4-0.1-0.6-0.6c-0.1-0.2-0.5-1-1.2-1.9c-0.2-0.2-0.2-0.2-0.2-0.3s0-0.1,0.1-0.1c0.2,0,1.2,0.5,1.3,0.5
				c0.2,0,0.9-2.2,1.1-3.7c0.1-0.3,0.1-0.3,0.2-0.3c0.1,0,1.6,0.6,1.6,0.8c0,0.1-0.5,0.4-0.5,0.5c-0.2,0.2-1.8,2.7-1.8,3
				c0,0.2,0.1,0.3,0.2,0.3c0.2,0.2,0.5,0.7,0.5,1C149.2,17.3,149,17.7,148.6,17.7z M153.8,24.4c0,0.5-0.4,0.9-0.7,0.9
				c-0.4,0-0.4-0.1-0.7-1.4c-0.2-0.7-0.2-0.8-0.6-1.5c0-0.1-0.1-0.3-0.1-0.3c0-0.1,0.1-0.1,0.1-0.1c0.2,0,0.7,0.4,1,0.7
				C153.3,23.2,153.8,23.9,153.8,24.4z M155.5,15.8c-0.4,0-0.5,0.1-0.7,0.3c-0.4,0.6-1.4,2.2-1.7,2.2c-0.1,0-0.1-0.1-0.1-0.1
				c0,0,0.7-1.3,0.8-1.6c0.8-1.6,1.5-4.1,1.5-5c0,0,0-0.2,0-0.3c0-0.1,0-0.1,0.1-0.1c0.1,0,2,0.6,2,0.9c0,0.2-0.2,0.3-0.5,0.4
				c-0.3,0.1-1.4,2.6-1.4,2.7c0,0.1,0.1,0.1,0.3,0.1h3.3c0.5,0,0.5,0,0.7-0.2c0.3-0.3,0.4-0.3,0.5-0.3c0.2,0,1.4,0.7,1.4,1
				c0,0.1-0.1,0.1-0.5,0.5c-0.1,0.1-0.1,0.9-0.1,1.4c0,3.3-0.5,7.2-1.5,8.8c-0.5,0.7-1.5,1.1-1.9,1.1c-0.2,0-0.3-0.1-0.5-0.6
				c-0.2-0.5-0.6-0.8-1-1.1c-0.3-0.2-0.3-0.2-0.3-0.3c0-0.1,0.1-0.1,0.1-0.1c0,0,0.5,0.2,0.6,0.2c0.5,0.1,0.8,0.3,1.1,0.3
				c0.8,0,1.2-0.8,1.4-1.6c0.6-2.2,0.8-4.4,0.8-6.7c0-0.3,0-1.6-0.1-1.7c-0.1-0.2-0.3-0.2-0.5-0.2H155.5z M157.5,21.6
				c0,0.7-0.4,1.2-0.9,1.2c-0.5,0-0.5-0.2-0.7-1.4c-0.2-0.9-0.5-1.6-0.5-1.8c-0.1-0.3-0.1-0.3-0.1-0.4c0-0.1,0-0.1,0.1-0.1
				c0.3,0,1.1,0.7,1.4,1C157.2,20.6,157.5,21.1,157.5,21.6z"/>
			<path class="st3" d="M173.2,19.4c0-0.6,0.5-1.2,1.2-1.2c0.6,0,1.2,0.5,1.2,1.2c0,0.7-0.6,1.2-1.2,1.2
				C173.7,20.6,173.2,20.1,173.2,19.4z"/>
			<path class="st3" d="M194.7,16.5c0,0.6-1.4,1.1-1.8,1.3c-0.3,0.1-0.3,0.2-0.3,0.8c0,0.4,0,1.9,0,1.9c0,0.1,0,0.3,0.2,0.3
				c0.1,0,1.5-0.6,1.8-0.7c1.8-0.7,2.6-0.7,3.1-0.7c1.3,0,2.8,1,2.8,2.7c0,2.4-2.5,3.5-4,3.5c-1,0-1.9-0.5-1.9-1.5
				c0-0.8,0.7-1.4,0.9-1.4c0.1,0,0.1,0.1,0.1,0.1c0,0.1,0,0.1-0.1,0.1c-0.1,0.1-0.2,0.2-0.2,0.5c0,0.9,1,0.9,1.2,0.9
				c1.2,0,2.7-0.8,2.7-2.2c0-1.3-1-2-1.7-2c-0.5,0-1.6,0.2-3.7,1.4c-1,0.5-1.1,0.6-1.1,0.9c0,0.2,0.1,1,0.1,1.2c0,0.8-0.3,2-0.9,2
				c-0.5,0-0.7-0.4-0.8-0.7c-0.6-1.1-0.7-1.1-0.9-1.1c-0.2,0-0.3,0.1-0.5,0.1c-0.1,0.1-0.6,0.4-0.7,0.4c-0.2,0-1.1-0.5-1.1-1.1
				c0-0.3,0.2-0.7,0.5-0.7c0.1,0,0.6,0.1,0.7,0.1c0.5,0,0.8-0.1,1.9-0.6c0.9-0.5,1-0.5,1-1c0-0.4,0-1.9,0-2.3c0-0.1-0.1-0.4-0.3-0.4
				c-0.2,0-0.7,0.1-0.8,0.2c-0.9,0.3-1,0.3-1.3,0.3c-0.6,0-1.3-1.2-1.3-1.4c0-0.1,0.1-0.1,0.1-0.1c0.1,0,0.3,0.1,0.3,0.1
				c0.3,0.1,0.6,0.1,0.8,0.1c0.6,0,2.2-0.4,2.3-0.5c0.1-0.1,0.2-1.8,0.2-2c0-0.6-0.1-0.9-0.6-1.4c0,0-0.3-0.3-0.3-0.3
				c0-0.2,0.3-0.2,0.4-0.2c1.2,0,1.9,0.9,1.9,1.2c0,0.2-0.3,0.8-0.4,0.9c0,0.1-0.2,0.8-0.2,1.2c0,0.1,0,0.2,0.1,0.2
				c0.1,0,0.6-0.2,0.6-0.5c0,0-0.1-0.2-0.1-0.3c0,0,0-0.1,0.1-0.1C193.8,15.6,194.7,15.9,194.7,16.5z M190.6,23.4
				c0,0.3,0.5,0.8,0.8,0.8c0.3,0,0.5-0.5,0.5-1.4c0-0.1,0-0.3-0.1-0.3C191.8,22.5,190.6,23.1,190.6,23.4z M202.4,17.8
				c0,0.4-0.2,0.9-0.6,0.9c-0.1,0-0.5,0-0.6,0c-0.1,0-0.5,0.1-0.5,0.1c0,0-0.1,0-0.1-0.1c0,0,0.1-0.1,0.1-0.1c0-0.1,0.1-0.2,0.1-0.3
				c0-0.7-0.9-1-1.5-1c-0.3,0-0.5,0.1-0.7,0.2c-0.1,0-0.1,0.1-0.2,0.1c-0.1,0-0.1,0-0.1-0.1c0-0.1,0.8-1.1,1.9-1.1
				C201.6,16.2,202.4,16.9,202.4,17.8z"/>
			<path class="st3" d="M212.6,12.4c0.2,0,0.3,0,0.5-0.2c0.3-0.3,0.4-0.4,0.6-0.4c0.3,0,1.2,0.8,1.2,1.1c0,0.1-0.4,0.3-0.4,0.3
				c-0.1,0.1-0.1,0.2-0.1,0.8c0,0.5,0.1,2.7,0.1,3c0,0.2,0,1.2-0.8,1.2c-0.4,0-0.5-0.3-0.5-0.5c-0.1-0.3-0.3-0.3-0.6-0.3h-2.2
				c-0.6,0-0.6,0.1-0.6,1.2c0,1,0,5.1,0.1,6.4c0,0.2,0.1,1.1,0.1,1.3c0,0.9-0.6,1.2-1,1.2c-0.3,0-0.5-0.2-0.5-0.6c0-0.1,0-0.3,0-0.3
				c0.2-6.1,0.2-6.8,0.2-12.4c0-0.3-0.1-2-0.1-2.2c0-0.1,0-0.2,0.1-0.2c0.2,0,0.5,0.1,1,0.4c0.3,0.1,0.3,0.1,0.5,0.1H212.6z
				 M210.1,12.8c-0.3,0-0.5,0-0.5,0.4v1c0,0.4,0.2,0.4,0.5,0.4h2.4c0.2,0,0.4,0,0.5-0.3v-1c0-0.4-0.1-0.5-0.5-0.5H210.1z
				 M210.1,15.1c-0.3,0-0.5,0-0.5,0.4v1.2c0.1,0.3,0.2,0.3,0.5,0.3h2.4c0.3,0,0.5,0,0.5-0.4v-1.2c0-0.3-0.2-0.3-0.5-0.3H210.1z
				 M216.7,20.3c0.2,0,0.3,0,0.4-0.2c0.3-0.3,0.3-0.4,0.5-0.4c0.2,0,1.1,0.6,1.1,1c0,0.1-0.1,0.2-0.3,0.4c-0.1,0.1-0.1,0.2-0.1,0.3
				c0,0.4,0,2.2,0,2.6c0,0.5,0,0.7-0.2,0.8c-0.2,0.2-0.5,0.5-0.8,0.5c-0.3,0-0.4-0.3-0.4-0.5c0-0.4-0.3-0.4-0.6-0.4h-2.3
				c-0.5,0-0.5,0.1-0.6,0.6c-0.1,0.7-0.8,0.9-0.9,0.9c-0.3,0-0.4-0.3-0.4-0.7c0-0.1,0-0.6,0-0.8c0-0.8,0.1-1.3,0.1-2
				c0-0.5,0-1.5,0-2c0-0.1-0.1-0.5-0.1-0.6c0-0.1,0-0.1,0.1-0.1c0.1,0,0.2,0,1.1,0.4c0.3,0.1,0.4,0.2,0.6,0.2H216.7z M216.5,23.8
				c0.3,0,0.5,0,0.6-0.2c0.1-0.1,0.1-1,0.1-1.2c0-0.2,0-1.4-0.1-1.5c-0.1-0.2-0.3-0.2-0.6-0.2h-2.3c-0.5,0-0.6,0.1-0.6,0.6v2.2
				c0,0.3,0.3,0.3,0.6,0.3H216.5z M220.7,12.4c0.2,0,0.3,0,0.4-0.2c0.4-0.4,0.4-0.5,0.5-0.5c0.1,0,1.2,0.6,1.2,0.9
				c0,0.1-0.1,0.2-0.2,0.3c-0.3,0.2-0.3,0.4-0.3,0.7v8.2c0,0.5,0,2.8,0,3.3c0,0.6,0,1.3-0.5,1.7c-0.3,0.3-0.9,0.6-1.1,0.6
				c-0.1,0-0.2-0.1-0.2-0.2c0-0.3-0.1-0.5-0.3-0.7c-0.2-0.2-1.1-0.6-1.1-0.7c0-0.1,0.1-0.1,0.2-0.1c0.2,0,0.9,0,1.1,0
				c0.7,0,0.7-0.1,0.7-1.5c0-0.9,0-5.3,0-6.4c0-0.5-0.2-0.5-0.6-0.5h-2.3c-0.3,0-0.5,0-0.5,0.3c-0.2,0.6-0.7,0.6-0.8,0.6
				c-0.1,0-0.4,0-0.5-0.6c0-0.1,0-3,0-3.5c0-0.3-0.1-1.6-0.1-1.9c0-0.1,0-0.3,0.2-0.3c0.2,0,0.5,0.1,0.9,0.3
				c0.2,0.1,0.3,0.1,0.5,0.1H220.7z M220.7,14.6c0.4,0,0.5,0,0.5-0.5c0-0.9,0-1,0-1.1c-0.1-0.2-0.2-0.2-0.5-0.2h-2.5
				c-0.4,0-0.5,0-0.5,0.5c0,0.9,0,1,0,1.1c0.1,0.2,0.2,0.2,0.5,0.2H220.7z M220.7,16.9c0.4,0,0.5,0,0.5-0.4v-1.1
				c0-0.4-0.1-0.4-0.5-0.4h-2.5c-0.4,0-0.5,0-0.5,0.4v1.1c0,0.4,0.1,0.4,0.5,0.4H220.7z"/>
			<path class="st3" d="M231.9,16.3c0,0.1,0,0.2-0.2,0.7c-0.3,0.7-0.4,1.4-0.4,2.3c0,1.8,0.9,3.1,1.5,3.1c0.3,0,0.4-0.1,0.9-1
				c0.1-0.2,0.4-0.6,0.6-0.6c0.1,0,0.1,0.1,0.1,0.1s0,0.3-0.1,0.4c-0.2,0.8-0.2,1-0.2,1.4c0,0.3,0.1,0.5,0.1,0.7
				c0.1,0.2,0.1,0.5,0.1,0.6c0,0.4-0.4,0.6-0.7,0.6c-1.2,0-3.4-1.9-3.4-5.3c0-0.5,0.3-2.7,0.3-3.2c0-0.4-0.1-0.8-0.1-1
				c-0.1-0.5-0.1-0.5-0.1-0.6c0-0.1,0.1-0.1,0.1-0.1C231.1,14.4,231.9,15.9,231.9,16.3z M240.7,16.8c0.9,0.7,1.6,2,1.6,3.4
				c0,0.3,0,1.2-0.9,1.2c-0.9,0-0.9-1-0.9-1.2c0-1.5,0-2.2-1-3.2c-0.1-0.1-0.9-0.7-0.9-0.8c0-0.1,0.1-0.1,0.2-0.1
				C238.9,16.1,239.9,16.1,240.7,16.8z"/>
			<path class="st3" d="M257.3,11.8C257.3,11.8,257.3,11.8,257.3,11.8c0,0.2,0,0.2-0.2,0.3c-0.1,0-0.1,0.1-0.1,0.1
				c0,0.1,1.2,2.3,2.8,3.8c1.3,1.1,2.7,2.1,4.5,2.8c0.6,0.2,0.6,0.2,0.6,0.3c0,0.2-0.1,0.2-0.6,0.3c-0.4,0.1-0.9,0.2-1.1,0.5
				c-0.1,0.1-0.2,0.2-0.2,0.2c-0.1,0-0.9-0.3-2.6-2c-1.9-1.9-2.6-3-3.4-4.8c-0.1-0.2-0.4-0.8-0.5-0.8c-0.1,0-0.1,0.1-0.5,0.6
				c-3,4.3-7.1,7-7.6,7c-0.1,0-0.1-0.1-0.1-0.1c0-0.1,1.7-1.6,2.1-2c2.5-2.5,3.9-4.9,4.4-6c0.1-0.2,0.4-1.1,0.4-1.2
				C255.3,10.8,257.2,11.6,257.3,11.8z M258.9,21.2c0.1,0,0.3,0,0.4-0.1c0.1-0.1,0.6-0.6,0.7-0.6c0.1,0,1.2,0.8,1.2,1.1
				c0,0.2-0.1,0.2-0.2,0.4c-0.2,0.2-0.2,1-0.2,1.2c0,0.6,0.1,3.1,0.1,3.6c0,0.5-0.9,0.7-1.2,0.7c-0.4,0-0.4-0.3-0.4-0.5
				c0-0.8,0-1-0.5-1h-5.4c-0.2,0-0.5,0-0.5,0.5c0,0.5,0,0.5-0.1,0.7c-0.1,0.1-0.6,0.4-1,0.4c-0.5,0-0.5-0.4-0.5-0.5
				c0-0.1,0.2-3.4,0.2-4.1c0-0.4,0-1.4,0-1.7c0-0.1-0.1-0.5-0.1-0.6c0-0.1,0-0.2,0.2-0.2c0.1,0,0.9,0.4,1.1,0.5
				c0.2,0.1,0.5,0.1,0.7,0.1H258.9z M256.3,18.3c0.6,0,0.9,0,1.1-0.2c0.1-0.1,0.7-0.9,0.9-0.9s1.6,1.2,1.6,1.3c0,0.2-0.4,0.2-1,0.2
				h-3.4c-1.3,0-1.8,0-2.3,0.1c-0.1,0-0.3,0-0.4,0c-0.1,0-0.1,0-0.2-0.1l-0.3-0.4c-0.1-0.1-0.1-0.1-0.1-0.1c0,0,0,0,0.1,0
				c0.1,0,0.7,0.1,0.8,0.1c0.9,0.1,1.6,0.1,2.5,0.1H256.3z M258.8,25.6c0.5,0,0.5-0.3,0.5-0.6c0-0.5,0-2.5,0-2.9
				c0-0.2,0-0.6-0.5-0.6h-5.5c-0.5,0-0.6,0.3-0.6,0.6c0,0.5,0,2.5,0,2.9c0,0.2,0,0.6,0.5,0.6H258.8z"/>
			<path class="st3" d="M275.3,15.8c0.5,0.3,0.5,0.6,0.5,0.7c0,0.3-0.1,0.6-0.3,0.9c-0.1,0.1-0.1,0.3-0.1,0.3c0,0.1,0,0.1,0.1,0.1
				c0.1,0,0.4-0.2,0.5-0.3c1.8-0.9,2.8-1,3.6-1c2.8,0,4.1,1.9,4.1,3.8c0,4.3-5.8,5.7-6.2,5.7c0,0-0.1,0-0.1,0c0-0.1,1.1-0.7,1.3-0.8
				c0.9-0.6,3.5-2.6,3.5-5.3c0-2.1-1.5-2.8-2.7-2.8c-2,0-4,1.1-4.7,1.9c-0.2,0.3-0.3,0.6-0.3,1.8c0,0.4,0,2.7,0.1,3.6
				c0,0.1,0.1,0.7,0.1,0.8c0,0.6-0.5,1-0.8,1c-0.5,0-0.6-0.6-0.6-1.7c0-0.4-0.1-2.1-0.6-2.1c-0.1,0-0.3,0.5-0.5,0.7
				c-0.3,0.5-0.6,1.3-1.3,1.3c-0.2,0-0.4-0.1-0.4-0.5c0-0.3,0.1-0.5,0.5-1.2c0.2-0.3,0.9-1.6,0.9-1.7c0-0.3-0.4-1-0.7-1.4
				c-0.6-0.7-0.6-0.8-0.6-1.1c0-0.6,0.5-0.7,1.2-0.8c0.3-0.1,0.4-0.1,1.6-1.2c0.1-0.1,0.4-0.4,0.5-0.4c0.1-0.2,0.2-1,0.2-1.5
				c0-1.6-0.4-2.2-0.7-2.5c-0.3-0.4-0.3-0.4-0.3-0.5c0-0.1,0.4-0.2,0.6-0.2c0.5,0,1.7,0.7,1.7,1.3c0,0.3-0.2,1.4-0.3,1.6
				c0,0.3-0.1,0.8-0.1,1C275,15.6,275,15.7,275.3,15.8z M273.1,18c-0.2,0.3-0.4,0.6-0.8,0.6c-0.6,0-0.8,0.1-0.8,0.3
				c0,0.3,0.6,1.4,0.8,1.4c0.1,0,0.2-0.1,0.4-0.4c1.1-1.6,1.1-1.7,1.1-2.3c0-0.1,0-0.2-0.1-0.3C273.7,17.3,273.4,17.5,273.1,18z
				 M273,21.7c0,0.2,0.4,0.7,0.5,0.7c0.2,0,0.2-1,0.2-1.8c0-0.1,0-0.1-0.1-0.1C273.5,20.5,273,21.5,273,21.7z"/>
			<path class="st3" d="M300.9,15.2c-0.1,1.2-0.1,1.3-0.1,1.4c0,0.1,0.1,0.1,0.2,0.1c0.1,0,0.7-0.1,0.8-0.1c0.4,0,0.6-0.1,0.6-0.3
				c0-0.1,0-0.1-0.4-0.4c0,0-0.1-0.1-0.1-0.1c0-0.1,0.1-0.1,0.1-0.1c0.2,0,1,0.2,1.3,0.3c1.1,0.3,1.4,0.6,1.4,1
				c0,0.5-0.5,0.6-0.9,0.6c-0.4,0-1.9-0.2-2.3-0.2c-1,0-1.1,0-1.2,1c-0.3,2.7-1.3,3.6-2,3.6c-0.6,0-0.7-0.2-0.8-0.7
				c-0.1-0.3-0.2-0.6-0.3-0.8c0-0.1-0.2-0.3-0.2-0.4c0,0,0.1,0,0.1,0c0.2,0,1,0.3,1.2,0.3c0.3,0,0.5-0.2,0.6-0.5
				c0.3-0.6,0.5-1.9,0.5-2.1c0-0.1,0-0.2-0.3-0.2c-0.4,0-3.6,0.7-3.9,1.1c-0.1,0.2-0.1,0.4-0.2,0.7c0,0.6-0.1,2.2-0.1,2.3
				c0,1.7,0.3,2.5,2.8,2.5c0.4,0,1,0,1.6-0.1c0.1,0,0.6-0.1,0.9-0.1c0.5,0,1,0.4,1,0.8c0,0.8-1.6,0.8-2.1,0.8
				c-5.1,0-5.1-1.4-5.1-4.9c0-1.5,0-1.7-0.3-1.7c-0.3,0-1.5,0.6-1.8,0.6c-0.4,0-1.9-0.3-1.9-1.3c0-0.2,0.1-0.3,0.2-0.3
				c0.2,0,0.9,0.1,1.1,0.1c1.1,0,2-0.1,2.3-0.3c0.3-0.1,0.3-0.3,0.3-0.9c0-1-0.1-1.4-0.3-1.9c-0.1-0.1-0.4-0.8-0.4-0.8
				c0-0.2,0.3-0.3,0.5-0.3c0.4,0,1.5,0.5,1.5,1.1c0,0.1,0,0.3-0.1,0.6c0,0-0.1,0.6-0.1,1.4c0,0.4,0,0.5,0.2,0.5
				c0.1,0,2.4-0.5,2.9-0.6c1.1-0.2,1.2-0.2,1.3-0.6c0.1-0.4,0.1-1.2,0.1-1.5c0-0.5-0.1-0.9-0.2-1.2c0,0-0.3-0.6-0.3-0.7
				c0-0.2,0.3-0.2,0.4-0.2c1.1,0,1.5,0.9,1.5,1.3C301.1,14.2,300.9,15,300.9,15.2z"/>
		</g>
	</g>
</g>
</svg>
