<?xml version="1.0" encoding="utf-8"?>
<!-- Generator: Adobe Illustrator 25.2.3, SVG Export Plug-In . SVG Version: 6.00 Build 0)  -->
<svg version="1.1" id="レイヤー_1" xmlns="http://www.w3.org/2000/svg" xmlns:xlink="http://www.w3.org/1999/xlink" x="0px"
	 y="0px" viewBox="0 0 114 438" style="enable-background:new 0 0 114 438;" xml:space="preserve">
<style type="text/css">
	.st0{fill:#200701;}
	.st1{fill:none;stroke:#76544B;stroke-miterlimit:10;}
</style>
<g>
	<path class="st0" d="M82.5,129.4c0.3-2.3,0.9-3.9,2.1-5.5c1.1-1.6,2.3-2.7,5.9-5.6c1.1-0.9,1.7-1.5,2.1-2.2
		c0.4-0.7,0.6-1.5,0.6-2.4c0-2.4-1.5-3.9-3.8-3.9c-1.7,0-2.9,0.8-3.3,2.2c-0.2,0.6-0.2,1-0.3,2c-0.1,1-0.4,1.2-1.3,1.2
		c-1,0-1.4-0.3-1.4-1.1c0-2.9,2.8-5,6.6-5c2.4,0,4.3,0.8,5.4,2.1c0.6,0.8,0.9,1.7,0.9,3c0,2.3-1,3.8-4.1,5.7
		c-3.5,2.2-4.3,2.7-5.5,3.9c-1.2,1.2-1.8,2.1-2.3,3.6h8.1c2,0,2.7-0.6,3.3-3l0.8,0.2l-0.8,4.9H82.5z"/>
	<path class="st0" d="M76.6,167.9c2.6-1.8,3.9-3.1,5.3-5c2.5-3.3,4.2-7.1,5.1-11.4c0.4-2.1,0.6-4.2,0.6-6c0-0.6,0-0.9-0.1-1.6
		c3.1,0.4,3.4,0.5,3.4,0.8c0,0.2-0.1,0.3-1.2,0.7c0,0.4,0,0.6,0,0.9c0,4.1,1.5,8.9,3.9,12.3c1.5,2.2,3.5,4,5.7,5.4
		c1.1,0.7,1.7,1,3.2,1.5l0,0.3c-0.1,0-0.2,0-0.2,0c-0.6,0-1.1,0.2-1.4,0.6c-0.3,0.3-0.4,0.6-0.8,1.4c-2.8-1.8-4.9-3.9-6.7-6.8
		c-1.3-2.1-2.5-5-3.2-7.8c-0.3-1.2-0.5-2.1-0.7-4.1c-0.8,5.2-2.1,8.8-4.5,12.1c-2.2,3.1-4.5,5-8.2,6.9L76.6,167.9z"/>
	<path class="st0" d="M89.1,202.6c3-0.9,5-2,6.6-3.9c1.7-1.9,2.5-4.2,2.5-6.7c0-2.7-1.1-4.9-3.2-6.2c-1.2-0.8-3.1-1.3-4.8-1.3
		c-0.3,0-0.5,0-1,0.1c0.7,1,0.9,1.5,0.9,2.3c0,2.2-1.6,6.3-3.7,9.7c-1.8,2.8-3.1,4.2-4.2,4.2c-0.5,0-0.9-0.2-1.2-0.6
		c-0.3-0.3-0.3-0.4-0.8-1.8c-0.3-0.7-0.4-1.1-1.2-2.6c-0.4-0.9-0.6-1.7-0.6-2.5c0-1.8,1-3.8,2.5-5.5c2.3-2.4,6-3.9,9.6-3.9
		c2.8,0,5.4,0.9,7.2,2.6c1.8,1.7,2.7,3.9,2.7,6.6c0,3.5-2,6.6-5.6,8.5c-1.6,0.9-3.1,1.3-5.5,1.7L89.1,202.6z M79.9,193.9
		c0,1.3,0.4,2.7,1.1,3.7c0.4,0.5,0.8,0.8,1.1,0.8c0.6,0,2-1.5,3.3-3.7c2.1-3.3,3.6-6.9,3.6-8.7c0-0.4-0.1-0.7-0.4-1.4
		C83.7,185.5,79.9,189.5,79.9,193.9z"/>
	<path class="st0" d="M81.1,231.9c0,0.3,0,0.4,0,0.6c0,1.3-0.3,3-0.7,4.1c-0.6,1.6-1.8,3-2.5,3c-0.5,0-0.8-0.7-0.8-1.7
		c0-0.5,0.1-0.6,0.6-0.9c0.7-0.3,1.5-1.2,2-1.8c0.5-0.8,0.8-1.6,1.1-3.2H81.1z M82.2,229.9c0,0.2-0.1,0.4-0.1,0.4
		c-0.2,0.1-0.6,0.3-1.2,0.3c-0.5,0-0.6-0.1-0.6-0.4c0.1-4.2,0.1-6.7,0.1-10.9c0-1.4,0-1.7-0.1-2.9c1,0.6,1.3,0.8,2.3,1.5h13.3
		c0.6-0.7,0.8-0.9,1.3-1.5c0.7,0.6,1.3,1,1.8,1.4c0.2,0.2,0.3,0.3,0.3,0.4c0,0.2-0.3,0.4-1.2,1v6.6c0,2.3,0,2.7,0.1,4.2
		c0,0.5-0.3,0.6-1.5,0.6c-0.4,0-0.5-0.1-0.5-0.4v-1.3H82.2V229.9z M88.2,218.4h-6v4.6h6V218.4z M88.2,223.6h-6v4.6h6V223.6z
		 M83.8,233.4c0-1.5,0-1.7-0.1-2.6c2.7,0.3,3.3,0.4,3.3,0.8c0,0.2-0.2,0.3-1.2,0.6v6c0,0.3,0,0.3,0.1,0.4c0.2,0.1,1,0.2,3.2,0.2
		c1.3,0,3.4-0.1,3.8-0.1c0.6-0.1,0.8-0.3,1.1-1c0.4-1,1-2.8,1.4-4.6l0.4,0l-0.4,4.8c0,0.1,0,0.2,0,0.2c0,0.1,0.1,0.2,0.6,0.3
		c0.4,0.1,0.7,0.4,0.7,0.7c0,0.4-0.3,0.8-0.9,1c-0.4,0.1-0.9,0.2-1.8,0.3c-1.1,0.1-3.3,0.1-3.8,0.1c-3.7,0-5-0.1-5.5-0.2
		c-0.6-0.3-0.8-0.5-0.9-1.1c0-0.8,0-0.8,0-2.6V233.4z M87.6,230.1c1.7,0.8,2.5,1.3,3.6,2.2c0.7,0.6,1,1,1,1.7c0,0.7-0.5,1.5-0.9,1.5
		c-0.3,0-0.4-0.2-0.8-0.9c-1.1-2-1.5-2.7-3.1-4.3L87.6,230.1z M96.1,223v-4.6H90v4.6H96.1z M90,228.2h6.1v-4.6H90V228.2z
		 M96.8,231.5c1.8,1.3,2.9,2.4,4.1,4.1c0.4,0.5,0.6,1,0.6,1.3c0,0.4-0.3,1.2-0.6,1.7c-0.2,0.3-0.4,0.5-0.6,0.5
		c-0.3,0-0.4-0.2-0.7-1.3c-0.2-0.8-0.8-2.2-1.5-3.6c-0.4-0.8-0.7-1.3-1.5-2.5L96.8,231.5z"/>
	<path class="st0" d="M88,264.8c-2,4.7-2.6,6.4-2.6,7.5c0,0.2,0,0.2,0.2,1c0,0.1,0.1,0.3,0.1,0.4c0,0.4-0.3,0.7-0.6,0.7
		c-0.8,0-2.2-1.1-3.1-2.4c-1-1.4-1.6-3.4-1.9-5.6c-0.2-1.2-0.2-1.9-0.2-4.9c0-2.6-0.2-3.2-1.4-4.8c0.1,0,0.1,0,0.3,0
		c0.4,0,1.3,0.5,2.1,1.4c0.8,0.8,1.3,1.6,1.3,2.2c0,0.2,0,0.4-0.1,0.7c-0.3,1.7-0.5,3-0.5,4.2c0,1.5,0.2,2.9,0.6,4.1
		s0.8,1.7,1.5,2.2c0.3-0.4,0.3-0.4,0.9-1.5c0.9-1.5,0.9-1.5,2.4-3.9c0.4-0.7,0.4-0.7,0.8-1.3L88,264.8z M94,259.7
		c3.5,0.8,6.3,4.5,6.3,8.4c0,1.3-0.6,2.2-1.4,2.2c-0.3,0-0.4-0.1-0.8-0.3c-0.4-0.3-0.9-0.3-2.1-0.3c-0.6,0-1.2,0-2.1,0.1l-0.1-0.4
		c2.3-0.6,3.5-1,3.8-1.1c0.6-0.2,0.6-0.3,0.6-0.8c0-1-0.4-2.7-0.9-3.7c-0.8-1.6-1.9-2.8-3.5-3.7L94,259.7z"/>
	<path class="st0" d="M79.7,293.9c1.3,1.1,2,1.3,3.5,1.3c0.9,0,1.7-0.1,3-0.4c0.6-1.2,1-2.2,1-2.9c0-0.8-0.5-1.2-2-1.6
		c0.5-0.3,0.7-0.3,1.3-0.3c0.6,0,1.5,0.2,2.2,0.5c0.7,0.3,1,0.6,1,0.9c0,0.2-0.1,0.4-0.4,0.8c-0.3,0.3-0.6,0.8-0.8,1.1
		c-0.5,0.8-0.5,0.8-0.7,1.1c2.4-0.7,3.1-1,4-1.8c0.2-0.1,0.3-0.2,0.5-0.2c1.1,0,1.9,0.4,1.9,0.9c0,0.3-0.4,0.6-1.2,0.9
		c-2.5,0.8-3.8,1.1-6.1,1.6c-0.5,0.7-0.8,1.2-1.5,2.2c-0.8,1.2-1,1.5-1.5,2.2c1.6-0.8,2.5-1.1,3.6-1.1c1.7,0,2.9,1.1,3.1,2.8
		c0.5-0.2,0.5-0.2,2.7-1.4c2.8-1.4,3.4-1.8,3.4-2.4c0-0.5-0.5-1-1.3-1.3c0.3-0.1,0.4-0.2,0.6-0.2c1.2,0,3.2,1.7,3.2,2.8
		c0,0.5-0.2,0.7-1,0.9c-1.7,0.4-5.3,1.8-7.5,2.9c0,0.9,0,1.1,0,2.3c0,1.3-0.1,2.1-0.2,2.4c-0.1,0.3-0.4,0.5-0.8,0.5
		c-0.5,0-0.9-0.4-0.9-0.8c0-0.1,0-0.3,0-0.5c0.1-0.8,0.2-1.8,0.2-3c-1.7,1-2.5,1.5-3.3,2.2c-0.9,0.9-1.4,1.8-1.4,2.6
		c0,1.5,1.5,2.2,4.7,2.2c2,0,3.9-0.3,5.6-0.8c0.2-0.1,0.4-0.1,0.5-0.1c0.9,0,2,0.8,2,1.4c0,0.4-0.3,0.6-0.9,0.8
		c-1.1,0.2-3.3,0.4-5,0.4c-2.6,0-4.6-0.3-5.7-0.8c-1.4-0.7-2.1-1.6-2.1-3c0-1.3,0.6-2.5,2-3.8c0.7-0.7,1.6-1.3,3.5-2.5
		c0-1.2-0.1-1.6-0.4-2.2c-0.3-0.5-0.8-0.8-1.4-0.8c-1.8,0-4.1,1.5-6.1,4.1c-0.5,0.7-0.8,0.9-1,0.9c-0.4,0-0.8-0.6-0.8-1.5
		c0-0.6,0-0.6,0.8-1.3c2-1.6,3.2-3,5.2-6c-0.9,0.1-1.3,0.2-1.9,0.2c-1.9,0-2.9-0.5-4.2-2.2L79.7,293.9z"/>
	<path class="st0" d="M15.3,190.7h-0.3c-0.9,0-1.7,0.1-2.5,0.2l-0.2-1c0.8,0.1,1.3,0.2,2.7,0.2h18.6c0.7-0.8,0.9-1.1,1.6-1.9
		c0.8,0.7,1.6,1.4,2.4,2.1c0.2,0.1,0.2,0.2,0.2,0.3s-0.1,0.2-0.3,0.2H23.8v7.3c0,2.7,0,4.3,0.1,6.6c0,0.2-0.1,0.3-0.3,0.3
		c-0.2,0.1-1,0.2-1.4,0.2c-0.2,0-0.3-0.1-0.3-0.3c0,0,0,0,0-0.1c0.1-2.6,0.1-3.3,0.1-4.5c-3.7,1.3-3.7,1.3-7.8,2.7
		c-0.2,1-0.2,1.1-0.5,1.1c-0.3,0-0.5-0.5-1.1-2.8c1-0.1,1.3-0.1,2.7-0.3V190.7z M18.3,188.5C18.3,188.5,18.3,188.6,18.3,188.5
		c0,0.3-0.3,0.4-1.2,0.4c-0.6,0-0.7-0.1-0.7-0.3c0,0,0-0.1,0-0.1c0.1-2,0.1-2.9,0.1-5.5c0-1.9,0-2.3-0.1-3.5c0.9,0.5,1.2,0.7,2,1.2
		h13c0.4-0.5,0.6-0.7,1-1.2c0.8,0.6,1,0.8,1.7,1.4c0.1,0.1,0.2,0.2,0.2,0.3c0,0.2,0,0.2-0.9,0.8c0,3.7,0,4.9,0.1,6.2v0
		c0,0.3-0.1,0.3-0.2,0.4c-0.2,0.1-0.6,0.1-1.3,0.1c-0.4,0-0.4-0.1-0.4-0.3v-0.7H18.3V188.5z M17.1,193.4h5v-2.7h-5V193.4z
		 M17.1,196.8h5v-2.8h-5V196.8z M17.1,200.8c2.4-0.4,3.3-0.6,5-1v-2.3h-5V200.8z M31.6,181.4H18.3v2.5h13.3V181.4z M18.3,184.6v2.6
		h13.3v-2.6H18.3z M33,193.3c0.5-0.5,0.7-0.6,1.2-1.1c0.7,0.6,0.9,0.8,1.7,1.4c0.2,0.2,0.3,0.3,0.3,0.4c0,0.2-0.1,0.3-1.3,0.7
		c-1.5,2.7-2.2,3.8-3.3,5.1c2,1.4,3.6,2,6.5,2.6v0.4c-0.6,0.1-0.9,0.3-1.2,0.6c-0.4,0.4-0.5,0.6-0.7,1.2c-2.6-1.1-3.9-2-5.6-3.6
		c-1.7,1.6-3.1,2.5-5.8,3.8l-0.2-0.3c2-1.2,3.3-2.3,5.2-4.4c-1.6-1.9-2.4-3.3-3.3-5.9h-0.3c-0.4,0-0.9,0.1-1.4,0.1l-0.2-0.9
		c0.5,0.1,0.9,0.1,1.6,0.1H33z M26.8,193.9c0.8,1.7,1,2.1,1.7,3c0.6,0.7,1.1,1.3,1.9,2c1.3-1.7,1.8-2.7,2.5-4.9H26.8z"/>
	<path class="st0" d="M33.5,219.1c0.8-0.9,1-1.2,1.7-2.1c1.3,1,1.7,1.3,2.9,2.3c0.1,0.1,0.1,0.2,0.1,0.2c0,0.1-0.1,0.2-0.3,0.2H15.7
		c-0.8,0-2,0.1-2.7,0.2l-0.3-1.2c0.9,0.2,2.3,0.3,2.9,0.3h8.5v-1.6c0-0.4,0-0.8-0.2-1.7c2.9,0.3,3.2,0.4,3.2,0.8
		c0,0.2-0.2,0.3-1.1,0.6v1.9H33.5z M33.9,229.4c0.3-0.4,0.7-0.8,1.1-1.2c0.9,0.6,1.2,0.8,2,1.4c0.2,0.2,0.2,0.2,0.2,0.3
		c0,0.2,0,0.2-1,0.8v4.5c0,0.9,0.1,1.8,0.1,2.6c0,1.3,0,1.3,0.1,2.1c0,0.7-0.3,1-1.1,1.3c-0.5,0.2-1,0.3-2.2,0.5
		c-0.1-0.7-0.3-1.1-0.9-1.3c-0.4-0.3-1.1-0.4-2.7-0.5v-0.5c2,0.1,2.9,0.2,4.6,0.2c0.2,0,0.3-0.1,0.3-0.5v-9H16.2v5.7
		c0,2.1,0,2.7,0.1,5.5c-0.1,0.2-0.1,0.2-0.3,0.3c-0.3,0.1-0.9,0.1-1.3,0.1c-0.3,0-0.4-0.1-0.4-0.3c0.1-3.4,0.1-3.7,0.1-4.5
		c0-5.2,0-6.7-0.1-8.8c1.1,0.5,1.5,0.7,2.4,1.3H33.9z M30.2,222.1c0.4-0.5,0.5-0.6,1-1.1c0.8,0.5,1.1,0.7,1.8,1.2
		c0.2,0.1,0.2,0.2,0.2,0.3c0,0.2,0,0.2-0.9,0.8c0,0.5,0,1,0,1.2c0,0.6,0,1,0.1,3.3c0,0.2-0.1,0.3-0.3,0.4c-0.2,0.1-0.9,0.1-1.3,0.1
		c-0.3,0-0.4-0.1-0.4-0.3v-1H20.2v0.7c0,0,0,0.1,0,0.1c0,0.3-0.4,0.4-1.2,0.4c-0.6,0-0.7-0.1-0.7-0.3c0,0,0-0.1,0-0.1
		c0.1-1.5,0.1-2.2,0.1-3.6s0-2.2-0.1-3.3c1,0.4,1.3,0.6,2.2,1.1H30.2z M28.7,232.5c0.4-0.5,0.5-0.6,1-1.1c0.8,0.5,1,0.7,1.7,1.2
		c0.1,0.1,0.1,0.2,0.1,0.2c0,0.1,0,0.1-0.8,0.7v1.1c0,0.5,0,1.1,0,2c0,0.5,0,1,0,1.5c0,0.3-0.4,0.4-1.5,0.4c-0.3,0-0.3-0.1-0.4-0.2
		v-1h-7.3v1.4c-0.1,0.3-0.3,0.3-1,0.4c-0.2,0-0.3,0-0.4,0c0,0-0.1,0-0.1,0c-0.3,0-0.4-0.1-0.4-0.4l0-4.1c0-1.5,0-2.5-0.1-3.5
		c1,0.4,1.3,0.6,2.2,1.1H28.7z M20.2,226.4h10.1v-3.6H20.2V226.4z M21.6,236.8h7.3v-3.7h-7.3V236.8z"/>
	<path class="st0" d="M14.9,258.3c1.3,1.3,2.1,1.6,3.5,1.6c0.7,0,1.5-0.1,2.5-0.3c0.7-1.8,1-3,1-4c0-0.9-0.4-1.5-1.8-2.2
		c0.3-0.2,0.4-0.2,0.7-0.2c0.6,0,1.4,0.3,2.2,0.6c1,0.5,1.3,0.8,1.3,1.2c0,0.2-0.1,0.4-0.3,0.7c-0.1,0.2-0.7,1.4-1.7,3.4
		c2.1-0.7,2.3-0.9,3.1-1.5c0.2-0.2,0.3-0.2,0.6-0.2c1.1,0,1.9,0.4,1.9,0.8c0,0.7-1.7,1.4-6.2,2.5c-0.3,0.6-0.7,1.7-1.5,3.4
		c-0.8,1.9-3,6.6-3.2,7.1c-0.4,0.8-0.7,1-1,1c-0.5,0-0.9-0.9-0.9-2c0-0.6,0.1-0.7,0.3-1c0.6-0.7,1-1.1,1.3-1.7
		c1.4-2,2.4-3.9,3.5-6.6c-0.6,0.1-0.9,0.1-1.3,0.1c-1,0-1.8-0.2-2.5-0.6c-0.8-0.5-1.5-1.1-2-2L14.9,258.3z M29.7,259.9
		c1.9,0.2,3.5,0.7,4.8,1.5c1.1,0.7,1.8,1.5,1.8,2.2c0,0.5-0.3,0.8-0.7,0.8c-0.2,0-0.4-0.1-0.6-0.2c-0.8-0.5-1.3-0.6-2.7-0.6
		c-2.2,0-2.9,0.6-2.9,2.5c0,0.8,0.1,2,0.6,4.8c1.7,0.5,3.2,1.2,4,1.8c0.8,0.6,1.1,1.3,1.1,2.2c0,0.6-0.2,1-0.6,1
		c-0.3,0-0.4-0.1-1-0.7c-1-1.1-1.9-1.8-3.4-2.5c0,0.2,0,0.4,0,0.5c0,1.1-0.2,1.8-0.8,2.4c-0.8,0.8-2.1,1.2-3.6,1.2
		c-2.5,0-4.3-1.2-4.3-3c0-2,2.1-3.3,5.2-3.3c0.6,0,1,0,1.7,0.1c-0.1-2.2-0.1-2.4-0.1-2.8c0-2.3,0.2-3.2,1-4c0.6-0.6,1.3-1,2.7-1.3
		c0.4-0.1,0.5-0.1,1.5-0.4c-0.8-0.8-1.6-1.3-3.6-1.9L29.7,259.9z M28.2,272.1c-0.9-0.3-1.5-0.3-2.4-0.3c-2.4,0-3.8,0.8-3.8,2.1
		c0,1,1.1,1.7,2.8,1.7c2.3,0,3.4-0.9,3.4-2.7V272.1z"/>
	<path class="st0" d="M14.3,312.2c4.1-3.1,7.3-7.6,9.5-13.7c-1.9,0.3-3.8,0.8-4.6,1.1c-0.4,0.2-0.5,0.2-0.7,0.2
		c-0.6,0-1.3-0.5-1.9-1.3c-0.4-0.5-0.6-1.2-0.6-1.6c0-0.1,0-0.3,0.1-0.4c0.6,1,1.3,1.5,2.4,1.5c0.8,0,2.9-0.3,5.7-0.7
		c0.6-2.2,1-3.8,1-4.6c0-0.9-0.5-1.5-1.9-2c0.3-0.2,0.5-0.2,0.8-0.2c0.9,0,2,0.4,3,1c0.6,0.4,0.8,0.7,0.8,1.1c0,0.2,0,0.3-0.3,0.7
		c-0.3,0.5-0.6,1.2-1.3,3.8c1-0.1,3-0.4,3.3-0.5c1.4-0.2,1.4-0.2,1.8-0.4c0.2-0.1,0.3-0.2,0.6-0.2c0.4,0,0.7,0.2,1.5,0.8
		c0.6,0.6,1,1,1,1.3c0,0.2-0.1,0.3-0.3,0.7c-0.3,0.5-0.3,0.5-1,3.9c-1.1,5.3-1.7,7.2-2.9,8.3c-0.7,0.6-1.6,1-2.4,1
		c-0.3,0-0.6-0.3-0.7-0.6c-0.2-0.6-0.4-0.8-1.1-1.2c-0.3-0.2-1.3-0.7-2.8-1.6l0.2-0.4c2.4,0.8,4.5,1.4,5.1,1.4c0.4,0,0.7-0.3,1-1
		c0.7-1.6,1.4-3.9,1.9-7.1c0.2-1.3,0.4-2.5,0.4-3.1c0-0.7-0.2-0.9-0.8-0.9c-0.7,0-3.6,0.4-5.2,0.8c-1.8,5-3.4,7.9-6.2,10.6
		c-1.5,1.5-3.3,2.9-5,3.7L14.3,312.2z"/>
	<path class="st0" d="M16.3,349.5c2.7-1.7,3.6-2.5,5.2-3.9c2-1.8,3.4-3.3,4.7-5.1c-0.4-0.1-0.6-0.2-1.2-1.1
		c-1.2-1.8-2.1-2.8-3.9-4.2c-2,2-3.5,3.2-5.2,4.2l-0.3-0.4c2-1.7,3.7-3.5,5.4-5.8c1.8-2.4,2.8-4.1,2.8-4.9c0-0.6-0.5-1.1-1.8-1.7
		c0.3-0.1,0.4-0.1,0.6-0.1c0.6,0,1.7,0.3,2.5,0.8c0.8,0.4,1.1,0.8,1.1,1.2c0,0.4-0.3,0.8-1.3,2.2c0.3,0.1,0.5,0.1,0.8,0.1
		c0.6,0,1.6-0.2,3.7-0.6c1.5-0.3,1.7-0.4,2.2-0.8c0.1-0.1,0.3-0.1,0.4-0.1c0.4,0,0.8,0.3,1.6,1c0.5,0.4,0.8,0.9,0.8,1.1
		c0,0.2-0.1,0.3-0.4,0.6c-0.3,0.3-0.4,0.4-0.9,1.3c-2.9,5.4-5.8,9.2-9.5,12.2c-2.4,2-4.8,3.5-7.2,4.5L16.3,349.5z M29.7,331.2
		c-2.3,0.6-2.3,0.6-2.6,0.7c-0.5,0.2-0.6,0.2-0.9,0.2c-0.5,0-1-0.2-1.7-0.8c-1.1,1.4-1.8,2.3-3,3.5c2.1,0.9,2.1,0.9,2.7,1.3
		c1.2,0.7,1.9,1.3,2.4,2.2c0.3,0.4,0.3,0.7,0.4,1.3c2-2.7,3.8-6,4.8-8.7C31.1,330.8,30.6,330.9,29.7,331.2z"/>
	<path class="st0" d="M17,369.1c2.3-0.6,5-1.7,7-2.7c1.1-0.6,2.4-1.3,3-1.8c0.2-0.2,0.3-0.3,0.3-0.5c0-0.3-0.4-0.7-1.2-1.1
		c0.2-0.1,0.3-0.2,0.5-0.2c1.2,0,3.5,1.4,3.5,2.2c0,0.3-0.1,0.4-1.2,1c-0.7,0.3-2.2,1-4.1,1.7c1.5,0.6,2.4,1.3,2.4,1.8
		c0,0.1,0,0.3-0.1,0.7c0,0.3-0.1,1-0.2,1.9c4.6-0.4,4.9-0.5,5.5-0.7c0.2-0.1,0.4-0.1,0.7-0.1c1.1,0,2.8,1,2.8,1.7
		c0,0.3-0.3,0.6-0.6,0.6c-0.2,0-0.2,0-0.9-0.1c-1.3-0.2-2.3-0.3-4.1-0.3c-0.1,0-1.2,0-3.5,0.1c-0.4,3.4-1.2,6-2.6,8.4
		c-1.2,2-2.8,3.7-4.6,4.9l-0.3-0.3c3.3-3.2,5.2-7.4,5.6-12.8c-2.9,0.4-5.8,1.1-7.4,1.8c-0.3,0.1-0.5,0.2-0.7,0.2
		c-1.1,0-2.7-1.8-2.7-2.9c0-0.1,0-0.2,0.1-0.3c0.8,1,1.3,1.3,2.4,1.3c0.5,0,1.2-0.1,3.6-0.4c1.8-0.3,3.2-0.5,4.7-0.7
		c0.1-0.8,0.1-1.1,0.1-1.7c0-1.6-0.2-2.2-1.1-2.6c-2.5,0.9-4.6,1.4-6.9,1.7L17,369.1z"/>
	<path class="st0" d="M14.8,404.8c0.4,0.4,0.7,0.5,1.3,0.5c0.8,0,1.5-0.1,7.8-1.7c1-0.3,2.6-0.6,4.5-1c2-0.4,2.9-0.6,3.8-0.9
		c0.6-0.2,0.8-0.2,1-0.2c0.3,0,1,0.3,1.5,0.6c0.6,0.3,0.8,0.7,0.8,1.1c0,0.4-0.3,0.7-0.9,0.7c-0.1,0-0.3,0-0.5,0
		c-0.3-0.1-0.5-0.1-0.8-0.1c-4.8,0-9.4,4.6-9.4,9.4c0,2.5,1.3,4.5,3.7,5.5c0.9,0.4,2,0.6,2.8,0.7c0.6,0,0.8,0.1,1.2,0.4
		c0.5,0.5,0.8,1,0.8,1.3c0,0.4-0.4,0.8-1,0.8c-1.6,0-4.1-0.9-5.7-2c-2.1-1.5-3.2-3.7-3.2-6.3c0-2.3,1.1-4.8,3.1-6.8
		c1.1-1.2,2.2-2,4.6-3.2c-3.5,0.4-9.9,2.3-12.5,3.8c-0.6,0.3-0.8,0.4-1.1,0.4c-0.7,0-1.5-0.6-2.2-1.7c-0.4-0.7-0.7-1.4-0.7-1.9
		c0-0.2,0.1-0.4,0.3-0.8C14.2,404.1,14.4,404.4,14.8,404.8z M31.5,407.4c1,0.6,1.8,1.1,2.5,1.7c1,0.9,1.4,1.6,1.4,2.2
		s-0.4,1.2-0.9,1.2c-0.4,0-0.4,0-1.2-1.8c-0.5-1-1.4-2.2-2.2-3L31.5,407.4z M34.4,405.7c1,0.4,1.8,1,2.7,1.6
		c1.1,0.8,1.4,1.4,1.4,2.2c0,0.7-0.3,1.1-0.7,1.1c-0.3,0-0.4-0.1-0.6-0.5c-1-1.8-1.5-2.5-3.1-4L34.4,405.7z"/>
</g>
<line class="st1" x1="89.3" y1="15.1" x2="89.3" y2="75.1"/>
</svg>
