<?xml version="1.0" encoding="utf-8"?>
<!-- Generator: Adobe Illustrator 25.2.3, SVG Export Plug-In . SVG Version: 6.00 Build 0)  -->
<svg version="1.1" id="レイヤー_1" xmlns="http://www.w3.org/2000/svg" xmlns:xlink="http://www.w3.org/1999/xlink" x="0px"
	 y="0px" viewBox="0 0 114 438" style="enable-background:new 0 0 114 438;" xml:space="preserve">
<style type="text/css">
	.st0{fill:#200701;}
	.st1{fill:none;stroke:#76544B;stroke-miterlimit:10;}
</style>
<g>
	<path class="st0" d="M83.1,130.1c0.6-0.8,0.8-1,1.4-1.7c0.9,0.8,1.2,1.1,2,1.9c0.1,0.1,0.1,0.2,0.1,0.3s-0.1,0.1-0.3,0.1h-3.8v2
		c0.4,0.3,0.4,0.3,1.5,1c0.8,0.6,1.3,1.2,1.3,1.8c0,0.7-0.5,1.5-0.9,1.5c-0.2,0-0.3-0.2-0.4-0.6c-0.3-1.3-0.8-2.4-1.4-3.2v7.2
		c0,3.6,0,4.2,0,9c-0.1,0.4-0.3,0.4-1.5,0.4c-0.3,0-0.4-0.1-0.4-0.3c0,0,0-0.1,0-0.1c0.1-4.3,0.1-4.4,0.1-6c0-0.7,0-1.5,0-2.2
		c0-1.6,0-2.7,0.1-3.3l0.3-4.1c-0.8,2.4-1.2,3.6-2.1,5.4c-0.9,1.7-1.4,2.5-2.6,4l-0.3-0.2c1.5-2.9,2.4-5.1,3.2-7.4
		c0.5-1.6,0.5-1.6,1.2-4.9h-1.5c-0.8,0-1.5,0.1-2,0.2l-0.2-1.1c0.7,0.1,1.4,0.2,2.2,0.2h1.9V127c0-1.2,0-1.7-0.2-2.8
		c2.7,0.4,3,0.5,3,0.8c0,0.2-0.3,0.4-1,0.6v4.6H83.1z M93.7,132.8h3.4c0.6-0.8,0.8-1,1.3-1.6c1,0.8,1.3,1,2.2,1.9
		c0.1,0.1,0.1,0.2,0.1,0.3s-0.1,0.1-0.3,0.1h-6.9v3.1h5.1c0.7-0.8,0.9-1.1,1.6-1.8c1.1,0.8,1.4,1.1,2.5,2c0.1,0.1,0.1,0.2,0.1,0.3
		c0,0.1-0.1,0.1-0.3,0.1h-8.9c0.8,2.1,1.2,3,2.4,4.4c1.1-1.1,1.8-2.1,2.7-3.9c1.9,1.1,2.7,1.7,2.7,1.9c0,0.1-0.2,0.3-0.4,0.3
		c0,0,0,0-0.1,0c0,0-0.1,0-0.2,0c-0.1,0-0.4,0-0.7-0.1c-1.5,1-2,1.3-3.7,2.2c1.7,2,3.7,3.2,6.4,4.4v0.3c-1.1,0.3-1.3,0.4-2.1,1.8
		c-2-1.4-3-2.4-4.6-4.7c-1.1-1.7-1.8-3-2.5-5.2v3.6c0.1,1.2,0.1,2.2,0.1,2.9c0,1.1,0.1,1.3,0.1,2.4c0,0.9-0.2,1.4-0.7,1.8
		c-0.4,0.3-0.9,0.5-2.4,0.7c-0.3-0.8-0.5-1.1-1.1-1.4c-0.6-0.3-1.4-0.4-2.7-0.6l0-0.4c1.7,0.1,1.8,0.1,4.6,0.1c0,0,0.1,0,0.1,0
		c0.3,0,0.3-0.1,0.3-0.4v-4.1c-2.5,1.6-3.8,2.3-6.4,3.6c-0.1,0.9-0.2,1.1-0.4,1.1c-0.3,0-0.5-0.5-1.3-2.7c2.6-0.5,5.5-1.4,8.1-2.6
		v-5.3h-3.8c-1.4,0-1.9,0.1-2.5,0.3l-0.2-1.1c0.7,0.2,1.5,0.3,2.7,0.3h3.8v-3.1h-3.5c-1,0-1.7,0.1-2.2,0.2l-0.2-1.1
		c0.6,0.2,1.7,0.3,2.4,0.3h3.5v-3.1h-3.2c-0.9,0-1.4,0.1-2.2,0.2l-0.2-1.1c0.9,0.2,1.6,0.3,2.4,0.3h5.2c1.2-1.7,1.8-2.9,2.5-4.8
		c2.2,1,2.7,1.3,2.7,1.5c0,0.3-0.2,0.3-1.3,0.4c-1.3,1.3-1.9,1.9-3.3,2.9h3.8c0.6-0.8,0.7-1,1.3-1.7c1.1,0.8,1.4,1.1,2.4,2
		c0,0.1,0.1,0.1,0.1,0.2c0,0.1-0.1,0.2-0.2,0.2h-8.3V132.8z M86.2,137.9c0.9,0.4,1.7,0.9,2.5,1.5c0.8,0.6,1.1,1,1.1,1.5
		c0,0.9-0.5,1.8-1,1.8c-0.2,0-0.4-0.2-0.6-0.6c-0.8-2.1-1.2-2.7-2.3-3.9L86.2,137.9z M88.1,124.4c1,0.6,1.8,1.1,2.6,1.7
		c0.7,0.5,0.9,0.8,0.9,1.3c0,0.8-0.5,1.6-1,1.6c-0.3,0-0.3-0.1-0.8-1.1c-0.5-1.2-0.9-1.9-2-3.2L88.1,124.4z"/>
	<path class="st0" d="M78.2,177.8c2.4-2.1,4.7-4.7,6.8-7.7c1.6-2.4,2.6-4.2,2.6-5c0-0.5-0.5-1.1-1.3-1.6c0.3-0.1,0.5-0.2,0.8-0.2
		c0.6,0,1.3,0.3,2.5,1.1c0.6,0.4,0.8,0.6,0.8,1c0,0.4,0,0.4-0.7,1.1c-0.2,0.2-0.2,0.2-0.6,0.7c-0.4,0.6-0.6,0.9-1.3,1.7
		c0.3,0,0.6,0,0.7,0c0.5,0,3.7-0.3,5.3-0.5c0.4,0,0.5-0.1,0.9-0.4c0.3-0.2,0.6-0.4,0.8-0.4c0.5,0,2,1.6,2,2.2c0,0.1-0.1,0.3-0.3,0.4
		c-0.1,0.1-0.4,0.2-0.9,0.4c-2.2,3.2-3.8,5-6.2,7.4l0.4,0.3c2.4,1.6,3.1,2.5,3.1,3.8c0,0.9-0.3,1.5-0.8,1.5c-0.3,0-0.6-0.2-0.9-0.8
		c-1.8-2.8-4.4-5.2-7.5-7.1l0.2-0.4c2.3,0.9,3.1,1.3,4.7,2.3c2.3-3,3.8-5.3,5.1-8.1c-1.1,0.2-2.1,0.4-2.6,0.4
		c-0.9,0.2-1.6,0.3-2,0.4c-0.4,0.1-0.7,0.1-0.9,0.1c-0.4,0-0.8-0.2-1.5-0.7c-2.5,3.4-5.9,6.6-8.9,8.5L78.2,177.8z"/>
	<path class="st0" d="M79.1,203c1.3,1.3,2.1,1.6,3.5,1.6c0.7,0,1.5-0.1,2.5-0.3c0.7-1.8,1-3,1-4c0-0.9-0.4-1.5-1.8-2.2
		c0.3-0.2,0.4-0.2,0.7-0.2c0.6,0,1.4,0.3,2.2,0.6c1,0.5,1.3,0.8,1.3,1.2c0,0.2-0.1,0.4-0.3,0.7c-0.1,0.2-0.7,1.4-1.7,3.4
		c2.1-0.7,2.3-0.9,3.1-1.5c0.2-0.2,0.3-0.2,0.6-0.2c1.1,0,1.9,0.4,1.9,0.8c0,0.7-1.7,1.4-6.2,2.5c-0.3,0.6-0.7,1.7-1.5,3.4
		c-0.8,1.9-3,6.6-3.2,7.1c-0.4,0.8-0.7,1-1,1c-0.5,0-0.9-0.9-0.9-2c0-0.6,0.1-0.7,0.3-1c0.6-0.7,1-1.1,1.3-1.7
		c1.4-2,2.4-3.9,3.5-6.6c-0.6,0.1-0.9,0.1-1.3,0.1c-1,0-1.8-0.2-2.5-0.6c-0.8-0.5-1.5-1.1-2-2L79.1,203z M93.9,204.6
		c1.9,0.2,3.5,0.7,4.8,1.5c1.1,0.7,1.8,1.5,1.8,2.2c0,0.5-0.3,0.8-0.7,0.8c-0.2,0-0.4-0.1-0.6-0.2c-0.8-0.5-1.3-0.6-2.7-0.6
		c-2.2,0-2.9,0.6-2.9,2.5c0,0.8,0.1,2,0.6,4.8c1.7,0.5,3.2,1.2,4,1.8c0.8,0.6,1.1,1.3,1.1,2.2c0,0.6-0.2,1-0.6,1
		c-0.3,0-0.4-0.1-1-0.7c-1-1.1-1.9-1.8-3.4-2.5c0,0.2,0,0.4,0,0.5c0,1.1-0.2,1.8-0.8,2.4c-0.8,0.8-2.1,1.2-3.6,1.2
		c-2.5,0-4.3-1.2-4.3-3c0-2,2.1-3.3,5.2-3.3c0.6,0,1,0,1.7,0.1c-0.1-2.2-0.1-2.4-0.1-2.8c0-2.3,0.2-3.2,1-4c0.6-0.6,1.3-1,2.7-1.3
		c0.4-0.1,0.5-0.1,1.5-0.4c-0.8-0.8-1.6-1.3-3.6-1.9L93.9,204.6z M92.4,216.9c-0.9-0.3-1.5-0.3-2.4-0.3c-2.4,0-3.8,0.8-3.8,2.1
		c0,1,1.1,1.7,2.8,1.7c2.3,0,3.4-0.9,3.4-2.7V216.9z"/>
	<path class="st0" d="M82,248.4c-0.3,2.1-0.9,4-1.8,5.8c-1.1,2.1-2.2,3.5-4,5l-0.3-0.3c1.8-2.3,2.9-4.5,3.6-7.5
		c0.5-2.2,0.6-3.5,0.7-7.5c0-1.3,0.1-5.2,0.1-6.3c0-1.5,0-2.3-0.1-3.6c1,0.6,1.3,0.8,2.2,1.4h15c0.5-0.6,0.6-0.8,1.1-1.3
		c0.8,0.6,1,0.7,1.8,1.3c0.2,0.2,0.3,0.3,0.3,0.4c0,0.2-0.2,0.3-1,0.8v13c0,2.4,0,3.5,0.1,7.1c-0.1,0.7-0.3,1-0.9,1.3
		c-0.5,0.3-1.1,0.5-2.5,0.7c-0.4-1.7-0.6-1.8-3.7-2.2v-0.4c1,0.1,1,0.1,2.7,0.1c1,0.1,1,0.1,1.8,0.1c0.1,0,0.1,0,0.1,0
		c0.1,0,0.1,0,0.1,0c0.3,0,0.3-0.1,0.3-0.4v-7.7h-6.9v2.5c0,1.8,0,1.8,0,3.4c0,1.3,0,1.3,0.1,2.4c0,0.4-0.3,0.6-1.1,0.6
		c-0.2,0-0.3,0-0.3,0c0,0-0.1,0-0.1,0c-0.4,0-0.6-0.1-0.6-0.4c0-1.7,0.1-4.8,0.1-5.9v-2.5H82z M88.8,242h-6.6c0,2.6-0.1,4.1-0.2,5.8
		h6.7V242z M88.8,236.1h-6.6c0,0.6,0,1.1,0,1.3c0,0.2,0,0.9,0,1.7c0,0.5,0,1.2,0,2.1h6.6V236.1z M97.6,241.4v-5.2h-6.9v5.2H97.6z
		 M97.6,247.8V242h-6.9v5.8H97.6z"/>
	<path class="st0" d="M76.6,281.5c0.8,0.1,1.9,0.2,2.4,0.2h1.3c0.5-0.5,0.6-0.7,1.1-1.3c0.7,0.5,0.9,0.7,1.6,1.3
		c0.2,0.2,0.2,0.2,0.2,0.3c0,0.2-0.3,0.4-0.8,0.8v6.8c0.4,1.2,1,1.8,2,2.3c1.4,0.7,3.4,1,6.4,1c2.3,0,8.8-0.3,11.8-0.4v0.3
		c-1.1,0.4-1.5,1-1.6,2.1c-9,0-10.4,0-12.2-0.2c-2.5-0.2-4.2-0.9-5.5-2.2c-0.9-0.8-1.2-1.4-1.6-3c-1.1,1.5-2.8,3.7-3.4,4.4
		c0,0.3,0,0.5,0,0.7c0,0.4-0.1,0.7-0.4,0.7c-0.1,0-0.2-0.1-0.3-0.3c-0.3-0.6-0.9-1.8-1.3-2.9c1.4-0.6,2.9-1.5,4.2-2.5v-7.3H79
		c-1,0-1.3,0-2.1,0.2L76.6,281.5z M77.4,270.7c2,1,3.6,2,4.6,3c0.4,0.4,0.6,0.8,0.6,1.1c0,0.4-0.2,1.3-0.4,1.7
		c-0.2,0.4-0.4,0.6-0.6,0.6s-0.4-0.1-0.6-0.5c-1.3-2.5-2.5-4.1-4-5.5L77.4,270.7z M83.2,279.2c2.4-1.6,4-3.1,5.9-5.2
		c1.3-1.6,2-2.6,3-4.5c0.9,0.2,0.9,0.2,2.3,0.7c0.3,0.1,0.5,0.3,0.5,0.4c0,0.3-0.2,0.3-1.3,0.4c0.8,1.2,1.1,1.7,2,2.4
		c1.4,1.2,3.1,2.2,4.7,2.8c0.8,0.3,1.4,0.4,2.7,0.6l0,0.4c-0.5,0.1-0.7,0.3-1,0.7c-0.3,0.4-0.4,0.6-0.6,1.2
		c-1.8-0.7-3.3-1.7-4.8-3.1c-1.2-1.2-2.1-2.3-3.5-4.5c-2.7,3.8-5.3,5.9-9.7,8L83.2,279.2z M83.8,290.2c2-2.4,3.2-4.1,4-6.4
		c2.4,0.6,2.9,0.8,2.9,1c0,0.2-0.3,0.3-1.3,0.4c-1.9,2.4-3.1,3.6-5.3,5.2L83.8,290.2z M93.8,282h3.9c0.6-0.8,0.8-1.1,1.5-1.8
		c1,0.9,1.4,1.2,2.4,2.2c0,0,0.1,0.1,0.1,0.1c0,0.1-0.1,0.1-0.3,0.1h-7.7v2.5c0,0.4,0,1.2,0,2.3c0,1.1,0,1.2,0,2.5
		c0,0.7-0.2,1-0.6,1.3c-0.4,0.3-1.1,0.5-2.2,0.6c-0.1-0.6-0.2-0.8-0.6-1.2c-0.3-0.2-0.8-0.4-1.6-0.5l-0.6-0.1l-0.4-0.1v-0.3
		c1,0.1,2.9,0.2,3.6,0.2c0.1,0,0.1,0,0.3,0c0.3,0,0.3-0.1,0.3-0.4v-6.8h-5.2c-0.8,0-1.1,0-2,0.1l-0.4-1c1.6,0.2,1.8,0.2,2.3,0.2H92
		v-3.6h-2.4c-0.1,0-0.4,0-0.8,0.1c-0.1,0-0.4,0-0.7,0.1l-0.3-1c0.7,0.1,1.3,0.2,1.8,0.2h4.6c0.6-0.6,0.8-0.8,1.3-1.5
		c0.9,0.7,1.2,0.9,2.2,1.7c0.1,0.1,0.1,0.1,0.1,0.2c0,0.1-0.1,0.2-0.3,0.2h-3.8V282z M95.8,284.1c1.3,0.7,2.8,1.7,3.9,2.5
		c0.8,0.7,1.1,1.1,1.1,1.7c0,1.1-0.4,2.1-0.9,2.1c-0.3,0-0.3,0-0.8-1.1c-1-2-1.9-3.2-3.5-4.9L95.8,284.1z"/>
	<path class="st0" d="M79.1,313.1c0.4,0.4,0.7,0.5,1.3,0.5c0.8,0,1.5-0.1,7.8-1.7c1-0.3,2.6-0.6,4.5-1c2-0.4,2.9-0.6,3.8-0.9
		c0.6-0.2,0.8-0.2,1-0.2c0.3,0,1,0.3,1.5,0.6c0.6,0.3,0.8,0.7,0.8,1.1c0,0.4-0.3,0.7-0.9,0.7c-0.1,0-0.3,0-0.5,0
		c-0.3-0.1-0.5-0.1-0.8-0.1c-4.8,0-9.4,4.6-9.4,9.4c0,2.5,1.3,4.5,3.7,5.5c0.9,0.4,2,0.6,2.8,0.7c0.6,0,0.8,0.1,1.2,0.4
		c0.5,0.5,0.8,1,0.8,1.3c0,0.4-0.4,0.8-1,0.8c-1.6,0-4.1-0.9-5.7-2c-2.1-1.5-3.2-3.7-3.2-6.3c0-2.3,1.1-4.8,3.1-6.8
		c1.1-1.2,2.2-2,4.6-3.2c-3.5,0.4-9.9,2.3-12.5,3.8c-0.6,0.3-0.8,0.4-1.1,0.4c-0.7,0-1.5-0.6-2.2-1.7c-0.4-0.7-0.7-1.4-0.7-1.9
		c0-0.2,0.1-0.4,0.3-0.8C78.4,312.4,78.6,312.8,79.1,313.1z M95.7,315.7c1,0.6,1.8,1.1,2.5,1.7c1,0.9,1.4,1.6,1.4,2.2
		s-0.4,1.2-0.9,1.2c-0.4,0-0.4,0-1.2-1.8c-0.5-1-1.4-2.2-2.2-3L95.7,315.7z M98.6,314c1,0.4,1.8,1,2.7,1.6c1.1,0.8,1.4,1.4,1.4,2.2
		c0,0.7-0.3,1.1-0.7,1.1c-0.3,0-0.4-0.1-0.6-0.5c-1-1.8-1.5-2.5-3.1-4L98.6,314z"/>
	<path class="st0" d="M17.7,248.7c-0.1,0.6-0.1,0.9-0.1,1.3c0,3.3,2.1,4.9,6.6,4.9c2.2,0,4.5-0.4,6.2-1c0.1-0.1,0.3-0.1,0.5-0.1
		c0.4,0,1.1,0.2,1.5,0.6c0.4,0.3,0.6,0.6,0.6,1c0,0.4-0.3,0.7-0.9,0.9c-1.3,0.3-4,0.6-6.5,0.6c-3.1,0-5.1-0.4-6.5-1.3
		c-1.4-0.9-2.3-2.7-2.3-4.4c0-0.7,0.1-1.4,0.4-2.4L17.7,248.7z M18.6,237.7c1.4,1,2.4,1.2,4.3,1.2c1.8,0,4.2-0.3,5.8-0.8
		c0.2-0.1,0.4-0.1,0.5-0.1c0.7,0,1.7,0.8,1.7,1.5c0,0.5-0.2,0.6-2,1c-1.5,0.3-3,0.9-7.5,2.8l-0.2-0.4c0.8-0.5,1.3-0.8,2-1.2l1.8-1
		l0.5-0.3c-0.6,0.1-1.6,0.1-2.1,0.1c-1,0-2.3-0.3-3.2-0.8c-0.7-0.4-1.2-0.8-2-1.6L18.6,237.7z M31.4,235.2c1,0.6,1.8,1.1,2.5,1.7
		c1,0.9,1.4,1.6,1.4,2.2s-0.4,1.2-0.9,1.2c-0.4,0-0.4,0-1.3-1.8c-0.5-1-1.4-2.2-2.1-3L31.4,235.2z M34.3,233.6c1,0.4,1.8,1,2.7,1.6
		c1.1,0.8,1.5,1.4,1.5,2.2c0,0.7-0.3,1.1-0.7,1.1c-0.3,0-0.4-0.1-0.6-0.5c-1-1.8-1.5-2.5-3.1-4L34.3,233.6z"/>
	<path class="st0" d="M20.6,278.1h2.2c0.6-0.8,0.7-1,1.3-1.8c1,0.9,1.3,1.1,2.2,2c0.1,0.1,0.1,0.2,0.1,0.2c0,0.1-0.1,0.2-0.3,0.2
		h-5.5v2.7c1.8,0.8,2.5,1.2,3.4,1.8c1,0.7,1.3,1.1,1.3,1.7c0,1-0.4,1.8-0.8,1.8c-0.2,0-0.3-0.1-0.4-0.4c-0.5-1.1-1.3-2.3-2-3.1
		c-0.4-0.4-0.7-0.7-1.4-1.3v4.2c0,3.2,0,3.3,0.1,8.8c0,0.2-0.1,0.3-0.2,0.3c-0.2,0.1-1,0.2-1.5,0.2c-0.2,0-0.3-0.1-0.3-0.3
		c0.1-3.8,0.1-3.8,0.1-9l0.1-5.5c-1.9,4.1-3.3,6.2-6,9.1l-0.3-0.3c1.7-2.5,2.5-4.1,3.7-6.6c0.8-1.7,1.1-2.5,1.7-4.4h-3.2
		c-0.5,0-1,0-1.5,0.1l-0.2-1c0.8,0.1,1.3,0.2,2,0.2h3.6v-4.4c-2.3,0.5-3.1,0.6-5.2,0.9l-0.1-0.4c2.2-0.6,4.1-1.2,6.3-2.2
		c1.6-0.6,2.1-0.9,3.1-1.6c1.6,1,2.4,1.7,2.4,1.9c0,0.1-0.1,0.2-0.3,0.2c-0.1,0-0.7-0.1-1.2-0.2c-1.4,0.5-1.8,0.7-3.1,1V278.1z
		 M30.6,273.1c0,0.2-0.1,0.3-1,0.6c0,11.4,0,11.4,0.1,15.1c0,0.1-0.1,0.2-0.2,0.3c-0.2,0.1-1,0.2-1.5,0.2c-0.2,0-0.3-0.1-0.3-0.3
		c0-2,0-2,0-2.6c0-10.2,0-12.3-0.1-14C30.5,272.7,30.6,272.8,30.6,273.1z M34.4,273.6c0-0.9-0.1-1.6-0.1-3c2.4,0.4,2.6,0.4,2.9,0.5
		c0.2,0.1,0.3,0.2,0.3,0.3c0,0.2-0.2,0.3-1.1,0.7v15.1c0,0.3,0.1,2.2,0.1,5.9c0,0.8-0.1,1.1-0.7,1.5c-0.6,0.5-1.3,0.7-2.5,0.9
		c-0.1-0.8-0.3-1.1-0.8-1.4c-0.3-0.2-1-0.4-1.8-0.6l-1-0.2l-0.8-0.2l0-0.5c1.3,0.1,1.3,0.1,3.1,0.2c1.2,0,1.2,0,2.1,0.1
		c0.4,0,0.5-0.1,0.5-0.4v-0.1L34.4,273.6z"/>
	<path class="st0" d="M18,321.2c-0.3,2.1-0.9,4-1.8,5.8c-1.1,2.1-2.2,3.5-4,5l-0.3-0.3c1.8-2.3,2.9-4.5,3.6-7.5
		c0.5-2.2,0.6-3.5,0.7-7.5c0-1.3,0.1-5.2,0.1-6.3c0-1.5,0-2.3-0.1-3.6c1,0.6,1.3,0.8,2.2,1.4h15c0.5-0.6,0.6-0.8,1.1-1.3
		c0.8,0.6,1,0.7,1.8,1.3c0.2,0.2,0.3,0.3,0.3,0.4c0,0.2-0.2,0.3-1,0.8v13c0,2.4,0,3.5,0.1,7.1c-0.1,0.7-0.3,1-0.9,1.3
		c-0.5,0.3-1.1,0.5-2.5,0.7c-0.4-1.7-0.6-1.8-3.7-2.2v-0.4c1,0.1,1,0.1,2.7,0.1c1,0.1,1,0.1,1.8,0.1c0.1,0,0.1,0,0.1,0
		c0.1,0,0.1,0,0.1,0c0.3,0,0.3-0.1,0.3-0.4v-7.7h-6.9v2.5c0,1.8,0,1.8,0,3.4c0,1.3,0,1.3,0.1,2.4c0,0.4-0.3,0.6-1.1,0.6
		c-0.2,0-0.3,0-0.3,0c0,0-0.1,0-0.1,0c-0.4,0-0.6-0.1-0.6-0.4c0-1.7,0.1-4.8,0.1-5.9v-2.5H18z M24.8,314.8h-6.6
		c0,2.6-0.1,4.1-0.2,5.8h6.7V314.8z M24.8,308.9h-6.6c0,0.6,0,1.1,0,1.3c0,0.2,0,0.9,0,1.7c0,0.5,0,1.2,0,2.1h6.6V308.9z
		 M33.6,314.2v-5.2h-6.9v5.2H33.6z M33.6,320.6v-5.8h-6.9v5.8H33.6z"/>
	<path class="st0" d="M34.7,356.4c0,4.8,0,4.8,0.1,9.2c0,0.9-0.2,1.3-0.9,1.7c-0.6,0.4-1.4,0.6-3.3,0.9c-0.1-0.8-0.3-1.1-0.8-1.5
		c-0.6-0.4-1.2-0.5-3.6-0.8v-0.4c2.9,0.1,4.1,0.2,5.2,0.2c0.2,0,0.4,0,0.8,0c0.4-0.1,0.5-0.1,0.5-0.5v-19.7H16.6
		c-0.8,0-2.7,0.1-3.4,0.2l-0.2-1.1c1.1,0.2,2.1,0.3,3.6,0.3h18c0.7-0.9,0.9-1.2,1.7-2.1c1.2,1,1.5,1.3,2.7,2.3
		c0.1,0.1,0.1,0.2,0.1,0.2c0,0.1-0.2,0.2-0.4,0.2h-3.9V356.4z M19,361.8c0,0.4-0.2,0.5-1,0.5c-0.2,0-0.3,0-0.4,0c0,0-0.1,0-0.1,0
		c-0.3,0-0.4-0.1-0.5-0.4c0.1-1.9,0.1-6.7,0.1-9.5c0-0.3,0-1.6-0.1-4c1.1,0.6,1.4,0.8,2.4,1.5h5.9c0.5-0.6,0.6-0.8,1.2-1.3
		c0.8,0.6,1,0.7,1.7,1.3c0.2,0.2,0.3,0.3,0.3,0.4c0,0.1-0.1,0.3-0.9,0.7c0,0.8,0,1.3,0,1.8c0,2.7,0.1,5.6,0.1,8
		c0,0.2-0.1,0.3-0.3,0.4c-0.2,0.1-1,0.1-1.3,0.1c-0.3,0-0.4-0.1-0.4-0.4v-1.7H19V361.8z M19,358.6h6.7v-8H19V358.6z"/>
	<path class="st0" d="M21.4,381.8c1.1,0.8,2.2,1.8,2.9,2.5c0.6,0.7,0.8,1.1,0.8,1.8c0,1-0.5,2.1-0.9,2.1c-0.3,0-0.4-0.2-0.6-1
		c-0.1-0.4-0.3-0.8-0.5-1.5c-1.5,0.4-2.5,0.6-4.6,0.9c-2.9,0.4-3.2,0.5-4.2,0.7c-0.1,0.9-0.2,1.1-0.6,1.1c-0.2,0-0.4-0.2-0.4-0.6
		c0-0.2-0.1-0.5-0.2-1c-0.1-0.3-0.1-0.7-0.2-1.3c1.2,0.1,1.6,0.1,2.7,0.1c0.9-1.7,1.7-4.2,2-6.2c2.4,0.4,3.3,0.7,3.3,1
		c0,0.3-0.4,0.4-1.4,0.6c-1.3,2.1-1.4,2.3-3.1,4.5c3.5-0.1,4.5-0.1,6.4-0.3c-0.4-1-0.8-1.6-1.7-2.9L21.4,381.8z M16.7,397.4v2.3
		c0,0.6,0,0.6,0,4.1c0,0.3-0.1,0.3-0.3,0.4c-0.3,0.1-0.8,0.1-1.2,0.1c-0.4,0-0.5-0.1-0.5-0.4c0,0,0-0.1,0-0.1
		c0.1-2,0.1-8.3,0.1-12.7c0-0.6,0-1.3-0.1-3.1c1,0.4,1.3,0.6,2.1,1.1h5c0.4-0.5,0.6-0.6,1-1.1c0.6,0.4,0.8,0.5,1.3,1
		c0.3,0.2,0.4,0.3,0.4,0.5s0,0.2-0.7,0.7v6.9c0,1.6,0,1.6,0,3.8c0,0.1,0,0.3,0,0.4c0,0.4,0,0.4,0,0.8c-0.1,0.8-0.2,1.1-0.7,1.5
		c-0.3,0.3-0.8,0.4-2.2,0.7c-0.1-0.6-0.3-1-0.6-1.2c-0.3-0.2-0.6-0.3-2-0.6v-0.4c0.8,0.1,0.8,0.1,1.9,0.1c0.8,0,0.8,0,1.4,0
		c0.4,0,0.4-0.1,0.4-0.4v-4.4H16.7z M22.1,392.9v-3.1h-5.5v3.1H22.1z M16.7,393.6v3.2h5.5v-3.2H16.7z M28.2,385.1
		c2-1,4.9-3.4,6.1-5.1c1.8,1.4,2.4,1.8,2.4,2c0,0.2-0.2,0.3-0.4,0.3c-0.2,0-0.5-0.1-1-0.2c-1.8,1.3-3.7,2.3-7,3.6v2.5
		c0,0.4,0.1,0.5,0.2,0.6c0.3,0.1,1.2,0.2,3.1,0.2c1.4,0,2.7,0,2.9-0.1c0.3-0.1,0.3-0.1,0.6-1c0.1-0.3,0.3-0.8,0.6-1.8
		c0.1-0.4,0.3-0.9,0.6-1.7h0.3l-0.2,3.4c0,0.1,0,0.3,0,0.3c0,0.4,0.1,0.5,0.4,0.6c0.7,0.2,0.9,0.4,0.9,0.8c0,0.4-0.4,0.8-1,0.9
		c-0.5,0.1-0.5,0.1-3.6,0.2l-2.1,0c-2.5,0-3.4-0.1-3.9-0.3c-0.5-0.2-0.7-0.6-0.7-1.4v-7.6c0-0.5,0-0.6-0.1-2
		c2.3,0.3,2.9,0.4,2.9,0.7c0,0.3-0.4,0.5-1,0.7V385.1z M28.2,397.7c1.1-0.6,2-1.2,3-2c1.7-1.4,2.7-2.3,3.3-3.2
		c0.9,0.6,1.8,1.3,2.3,1.8c0.1,0.1,0.1,0.2,0.1,0.3c0,0.2-0.2,0.3-0.4,0.3c-0.2,0-0.4-0.1-0.9-0.2c-2.3,1.5-4.5,2.7-7.4,3.8v3
		c0,0.3,0.1,0.5,0.2,0.6c0.2,0.1,1.4,0.2,3.2,0.2c2.4,0,2.9-0.1,3.2-0.4c0.3-0.3,0.4-0.6,1.7-4.5l0.4,0.1l-0.3,3.2
		c0,0.2,0,0.5,0,0.7c0,0.6,0,0.6,0.8,0.7c0.3,0.1,0.5,0.3,0.5,0.6c0,0.3-0.3,0.7-0.8,0.9c-0.8,0.3-2.3,0.4-5.4,0.4
		c-3.2,0-4-0.1-4.6-0.4c-0.4-0.3-0.6-0.8-0.6-1.5v-7.9c0-0.5,0-0.7-0.1-2.2c1.3,0.1,2.4,0.3,2.7,0.4c0.1,0,0.2,0.1,0.2,0.2
		c0,0.2-0.2,0.4-1,0.8V397.7z"/>
</g>
<line class="st1" x1="89.5" y1="32.7" x2="89.5" y2="92.7"/>
</svg>
