<?xml version="1.0" encoding="utf-8"?>
<!-- Generator: Adobe Illustrator 25.2.3, SVG Export Plug-In . SVG Version: 6.00 Build 0)  -->
<svg version="1.1" id="レイヤー_1" xmlns="http://www.w3.org/2000/svg" xmlns:xlink="http://www.w3.org/1999/xlink" x="0px"
	 y="0px" viewBox="0 0 92.8 383.9" style="enable-background:new 0 0 92.8 383.9;" xml:space="preserve">
<style type="text/css">
	.st0{fill:#210100;}
	.st1{fill:none;stroke:#76544B;stroke-miterlimit:10;}
	.st2{fill:#FFFFFF;}
</style>
<g>
	<rect x="37.8" class="st0" width="55" height="149"/>
	<rect y="66.7" class="st0" width="55" height="317"/>
	<line class="st1" x1="65.4" y1="0" x2="65.4" y2="30"/>
	<g>
		<g>
			<path class="st2" d="M67.9,54.8c-0.2,0-0.4,0-0.4,0.2c0,0.5,2.6,3.7,6.6,4c1.2,0.1,1.3,0.1,1.3,0.2c0,0.1-0.1,0.1-0.3,0.2
				c-0.7,0.2-0.9,0.3-1.3,0.5c-0.2,0.1-1,0.8-1.1,0.8c-0.4,0-2.2-1.3-2.5-1.3c-0.2,0-0.3,0.1-0.3,0.3c0,0.2,0,1.4,0,1.8
				c0,1.2,0.1,2,0.1,2.4c0,0.3,0.1,0.4,0.1,0.5c0,0.4,0,0.6-0.3,0.9c-0.3,0.3-0.6,0.5-0.9,0.5c-0.1,0-0.5,0-0.7-0.5
				c-0.1-0.4-0.4-0.4-0.7-0.4h-5.5c-0.2,0-0.5,0-0.6,0.3c-0.4,0.7-1,0.7-1.1,0.7c-0.6,0-0.6-0.6-0.6-0.9c0-0.2,0.1-1.1,0.1-1.4
				c0-0.7,0.1-1.5,0.1-2.2c0-0.3,0-3-0.1-3.7s-0.1-0.9-0.1-1c0-0.1,0-0.2,0.1-0.2c0.1,0,0.2,0.1,1.4,0.7c0.7,0.4,1.1,0.4,1.6,0.4
				h5.1c0.1,0,0.4,0,0.4-0.2c0-0.1-0.1-0.3-0.1-0.4c-0.4-0.7-0.5-0.9-0.8-1.5c-0.4-0.8-0.4-0.9-0.9-0.9h-5.6c-0.4,0-0.6,0.1-0.7,0.4
				c-0.7,2.1-1.8,3.8-3.5,5C56,60.5,55,61,54.6,61c-0.1,0-0.1-0.1-0.1-0.1c0-0.1,0.6-0.4,0.7-0.4c1.6-1,3.4-3.9,3.4-8.3
				c0-0.4,0-1.2-0.1-1.6c0-0.1-0.2-0.4-0.2-0.5c0-0.2,0.2-0.2,0.4-0.2c0.2,0,0.5,0.1,1.2,0.4c0.5,0.2,0.9,0.2,1.2,0.2h7.6
				c0.4,0,0.7,0,1-0.4c0.2-0.4,0.3-0.5,0.5-0.5c0.2,0,0.3,0,1.1,0.5c0.8,0.5,0.9,0.5,0.9,0.8c0,0.1-0.1,0.2-0.4,0.4
				c-0.4,0.2-0.5,0.3-0.5,0.5c0,0.4,0.1,2.1,0.1,2.6c0,0.5-0.4,1.2-1.2,1.2c-0.5,0-0.6-0.3-0.7-0.6c-0.1-0.2-0.3-0.3-0.6-0.3H67.9z
				 M69.9,67.1c0.7,0,0.9,0,1.1-0.2c0.2-0.2,0.9-1,1.1-1c0.1,0,2.3,1.1,2.3,1.4c0,0.3-0.4,0.3-1.2,0.3H58.9c-1.9,0-2.6,0-2.8,0.1
				c-0.1,0-0.4,0-0.5,0c-0.1,0-0.1,0-0.2-0.1L55,67.2C55,67.1,55,67.1,55,67c0,0,0,0,0.1,0c0.2,0,0.8,0.1,1,0.1c1.1,0,2,0.1,3,0.1
				H69.9z M61,51.1c-0.2,0-0.5,0-0.6,0.3c0,0-0.2,2.2-0.2,2.3c0,0.3,0.1,0.5,0.6,0.5H69c0.6,0,0.6,0,0.6-1.8c0-1.1,0-1.3-0.6-1.3H61
				z M67.5,60.8c0.7,0,0.7-0.2,0.7-1.8c0-0.6-0.4-0.6-0.7-0.6H62c-0.7,0-0.7,0.2-0.7,1.7c0,0.7,0.4,0.7,0.7,0.7H67.5z M61.9,61.4
				c-0.7,0-0.7,0.3-0.7,0.8c0,2.1,0,2.1,0.7,2.1h5.5c0.7,0,0.7-0.1,0.7-2.2c0-0.5,0-0.8-0.7-0.8H61.9z"/>
			<path class="st2" d="M58,75.8c-0.6,0-0.6,0.4-0.6,0.6c0,0.2-0.2,6.8-0.2,7.4c0,0.2,0.1,5.3,0.1,7.2c0,0.2,0.1,1.1,0.1,1.3
				c0,0.7,0,1.1-0.4,1.5c-0.2,0.2-0.6,0.4-0.8,0.4c-0.5,0-0.6-0.5-0.6-0.7c0-0.4,0.2-1.8,0.2-2.2c0-0.4,0.1-2.3,0.1-2.4V76.7
				c0-0.2-0.2-1.7-0.2-1.8c0-0.1,0-0.3,0.3-0.3c0.2,0,1.2,0.5,1.4,0.6s0.4,0.1,0.7,0.1h1.7c0.3,0,0.5,0,0.7-0.3
				c0.2-0.3,0.2-0.4,0.4-0.4c0.1,0,1.7,0.7,1.7,1.1c0,0.2-0.1,0.2-0.4,0.5c-0.3,0.2-0.3,0.3-1.7,2.6c-0.5,0.9-0.6,1.1-0.9,1.5
				c-0.1,0.1-0.4,0.6-0.4,0.6c0,0.2,0.3,0.4,0.5,0.5c1.3,0.8,2.1,2,2.4,2.8c0.2,0.5,0.4,1,0.4,2.2c0,3.1-1.8,3.8-2.2,3.8
				c-0.4,0-0.5-0.2-0.7-0.6c-0.1-0.2-0.2-0.6-0.8-1.2c0,0-0.2-0.2-0.2-0.3c0-0.1,0.1-0.1,0.2-0.1c0.1,0,0.5,0,0.6,0
				c0.8,0,1.6,0,1.6-1.7c0-1.5-0.2-3.5-1.7-4.8c-0.5-0.4-0.6-0.6-0.6-0.9c0-0.4,1.5-4.2,1.5-4.7c0-0.1-0.1-0.4-0.5-0.4H58z
				 M70.8,75.7c0.2,0,0.4,0,0.6-0.3c0.3-0.4,0.3-0.4,0.5-0.4c0.2,0,1.6,1.1,1.7,1.2c0,0,0,0.1,0,0.1c0,0.1-0.2,0.2-0.5,0.5
				c-0.2,0.1-0.2,0.3-0.2,0.5c0,1,0,5.2,0,6.1c0,0.3,0,1.3-1.1,1.3c-0.4,0-0.4-0.3-0.4-0.7c0-0.3-0.4-0.3-0.5-0.3h-2.1
				c-0.3,0-0.5,0-0.5,0.5c0,0.8,1.5,4.2,1.9,4.2c0.3,0,2-2,2.3-2.6c0.2-0.4,0.2-0.5,0.3-0.5c0.1,0,1.7,0.9,1.7,1.3
				c0,0.3-0.2,0.3-0.7,0.4c-0.3,0.1-2.5,1.3-3,1.5c-0.4,0.2-0.4,0.2-0.4,0.4c0,0.1,1,1.8,3.3,3.1c0.3,0.2,1.7,0.8,1.7,0.9
				c0,0.2-0.8,0.2-0.9,0.3c-0.4,0.1-1,0.4-1.2,0.6c-0.3,0.3-0.4,0.4-0.5,0.4c-0.2,0-1.2-1-2.4-2.7c-0.5-0.7-0.5-0.8-0.8-0.8
				c-0.4,0-6.8,2.6-6.8,2.6c-0.2,0.1-0.7,0.9-0.9,0.9c-0.4,0-1.2-2.3-1.2-2.4c0-0.2,0.1-0.2,0.2-0.2s0.7,0.1,0.9,0.1
				c0.1,0,2.3-0.1,2.4-0.6c0.1-0.3,0.1-3.2,0.1-3.9c0-3.4,0-8.4-0.1-10.8c0-0.2-0.1-0.9-0.1-1S63.9,75,64,75c0.2,0,0.8,0.4,1.1,0.5
				c0.2,0.1,0.5,0.3,0.9,0.3H70.8z M70.8,82.9c0.6,0,0.6-0.3,0.6-1.5c0-1.4,0-1.6-0.7-1.6H66c-0.4,0-0.7,0.1-0.7,0.7
				c0,1.7,0,1.9,0.1,2.1c0.1,0.3,0.4,0.3,0.6,0.3H70.8z M65.9,76.3c-0.5,0-0.5,0.5-0.5,0.7v1.8c0.1,0.5,0.5,0.5,0.6,0.5h4.8
				c0.6,0,0.7-0.3,0.7-0.9c0-1.9,0-2.1-0.6-2.1H65.9z M66,83.5c-0.6,0-0.6,0.4-0.6,0.6c0,0.9,0.1,5.2,0.1,6.2c0,0.2,0,0.4,0.3,0.4
				c0.1,0,2.2-0.4,2.6-0.5c0.8-0.2,0.9-0.2,0.9-0.5c0-0.1-0.4-0.9-0.4-1c-0.6-1.5-0.9-2.8-1.1-4.2c-0.1-1-0.1-1.1-0.7-1.1H66z"/>
			<path class="st2" d="M61.5,107.4c-1.9,0-2.6,0-2.8,0.1c-0.1,0-0.4,0-0.5,0c-0.1,0-0.1,0-0.2-0.1l-0.4-0.5
				c-0.1-0.1-0.1-0.1-0.1-0.2c0,0,0,0,0.1,0c0.2,0,0.8,0.1,1,0.1c1.1,0,2,0.1,3,0.1h6c0.9,0,1.2,0,1.4-0.4c0.5-0.8,0.6-0.9,0.8-0.9
				c0.4,0,1.9,1.1,1.9,1.5c0,0.3-0.4,0.3-1.2,0.3h-4.2c-0.6,0-0.6,0.2-0.6,2c0,1.7,0,1.9,0.6,1.9h1.5c0.9,0,1.1,0,1.4-0.4
				c0.4-0.6,0.5-0.7,0.7-0.7c0.3,0,1.6,1.1,1.6,1.4c0,0.1-0.1,0.2-0.3,0.3c-0.2,0-0.3,0-0.8,0h-3.9c-0.7,0-0.7,0.1-0.7,1.5
				c0,0.7,0,3.2,0.1,3.3c0.1,0.2,0.3,0.2,0.5,0.2c0.2,0,1.3,0.1,2.4,0.1c2.4,0,5.2-0.5,5.9-0.7c0.1,0,0.6-0.2,0.7-0.2
				c0,0,0.1,0,0.1,0.1c0,0.1-1.3,1.1-1.6,1.3c-0.1,0.1-0.3,0.8-0.4,0.9c-0.2,0.3-1,0.3-1.3,0.3c-8.8,0-9.9-1.3-11.3-2.9
				c-0.5-0.6-0.8-1.2-0.9-1.6c0-0.1-0.1-0.2-0.2-0.2c-0.1,0-0.1,0.1-0.3,0.4c-2,3.3-4,3.8-4.1,3.8c-0.1,0-0.1,0-0.1-0.1
				c0,0,0.3-0.4,0.4-0.4c2.6-2.8,3.7-6.2,3.8-7.7c0.1-1,0.1-1.1,0.2-1.1c0.1,0,1.9,0.5,1.9,0.8c0,0.1-0.4,0.5-0.5,0.6
				c-0.2,0.3-0.5,1.8-0.6,2.2c0,0-0.4,1.1-0.4,1.2c0,1.1,2.8,3,4,3c0.3,0,0.3-0.3,0.3-0.5c0-1.2,0-6.8,0-7.9c0-0.5,0-0.9-0.7-0.9
				H61.5z M58.2,103.4c-0.3,0-0.4,0-0.5,0.4c-0.4,1.3-1.1,1.8-1.6,1.8c-0.4,0-0.7-0.2-0.7-0.6c0-0.3,0.1-0.4,0.6-1
				c0.4-0.5,0.9-1.3,1.1-2c0.1-0.3,0.1-0.4,0.2-0.4c0.2,0,0.3,0.4,0.5,0.8c0.1,0.3,0.2,0.4,0.5,0.4h5.2c0.5,0,0.6-0.3,0.6-0.7
				c0-0.4,0-1.3-0.1-1.7c0-0.2-0.2-1-0.2-1.2c0-0.1,0.1-0.1,0.1-0.1c0,0,1.5,0.3,2.2,0.5c0.1,0,0.2,0.1,0.2,0.2
				c0,0.1-0.5,0.5-0.6,0.6c-0.1,0.2-0.1,1.2-0.1,1.4c0,0.8,0.2,0.9,0.7,0.9h4.3c0.6,0,0.7,0,1-0.3c0.3-0.2,0.5-0.5,0.8-0.5
				c0.2,0,2,1.1,2,1.7c0,0.4-0.5,0.4-0.6,0.4c-0.2,0-0.9-0.1-1.1-0.1c-0.7,0-1.1,0.2-1.3,0.3c-0.1,0.1-0.5,0.3-0.6,0.3
				c0,0-0.1,0-0.1-0.1c0-0.2,0.5-1,0.5-1.2c0-0.2-0.1-0.2-0.4-0.2H58.2z"/>
		</g>
	</g>
	<g>
		<g>
			<path class="st2" d="M19.6,106c-0.4,0-0.7,0.2-0.7,0.6c0,0.9,0,1.7-0.9,1.7c-0.8,0-0.8-0.4-0.8-0.7c0-0.1,0-0.8,0.1-2.1
				c0.1-1.4,0.2-5.3,0.2-5.8c0-0.1-0.1-3.3-0.1-3.5c0-0.2-0.2-1-0.2-1.1c0-0.1,0.1-0.2,0.3-0.2c0.1,0,0.9,0.4,1.1,0.4
				c0.4,0.2,0.6,0.3,1.1,0.3H21c0.5,0,0.6-0.1,0.7-0.3c0.2-0.3,0.4-0.5,0.5-0.5s0.8,0.6,0.9,0.7c0.4,0.3,0.4,0.4,0.4,0.6
				c0,0.1-0.1,0.2-0.2,0.3c-0.3,0.2-0.4,0.2-0.4,0.3c-0.2,0.3-0.2,4-0.2,4.6c0,0.4,0.1,3.7,0.1,4c0,1,0,1.7-1.1,1.7
				c-0.5,0-0.5-0.2-0.5-0.5c0-0.2-0.2-0.4-0.5-0.4H19.6z M19.6,96c-0.2,0-0.6,0-0.7,0.5c-0.1,1.1-0.1,6.7-0.1,8.3
				c0,0.4,0.2,0.6,0.7,0.6h1.2c0.2,0,0.6,0,0.7-0.5c0.1-1.3,0.2-6.8,0.2-8.3c0-0.3-0.1-0.6-0.7-0.6H19.6z M30,101.6
				c-0.2,0-0.4,0.1-0.4,0.4c0,0.5,2.4,4.5,6.4,6.4c0.1,0.1,0.9,0.3,0.9,0.4c0,0.1-0.2,0.1-0.3,0.1c-0.4,0-0.7,0.1-1,0.3
				c-0.2,0.1-1,0.6-1.1,0.6c-0.1,0-3-1.7-4.9-6.1c-0.2-0.4-0.2-0.4-0.3-0.4c-0.2,0-0.2,0.1-0.2,0.4c0,0.2,0.2,6.4,0.2,7.2
				c0,0.3,0,1.4-1,1.4c-0.6,0-0.6-0.4-0.6-0.7c0-0.6,0.2-3.7,0.2-4.4v-3.2c0-0.1-0.1-0.2-0.2-0.2c-0.1,0-0.2,0.1-0.2,0.1
				c-0.7,1-1.5,1.9-2.5,2.8c-2.3,2-5.1,3.4-5.3,3.4c0,0-0.1,0-0.1,0c0-0.1,2.2-1.9,2.6-2.3c3.1-2.7,4.8-5.5,4.8-5.8
				c0-0.3-0.1-0.3-0.8-0.3c-0.1,0-1.5,0-2,0.1c-0.1,0-0.4,0.1-0.5,0.1c-0.1,0-0.1-0.1-0.2-0.2l-0.4-0.5c-0.1-0.1-0.1-0.1-0.1-0.2
				s0,0,0.1,0c0.1,0,0.8,0.1,1,0.1c0.9,0,1.8,0.1,2.7,0.1h0.4c0.2,0,0.5,0,0.6-0.4c0-0.1,0-2.4,0-2.6c0-0.2,0-0.7-0.6-0.7
				c-0.7,0-1.8,0-2.4,0.1c-0.1,0-0.4,0-0.5,0c-0.1,0-0.1,0-0.2-0.1l-0.4-0.5c-0.1-0.1-0.1-0.1-0.1-0.2c0,0,0,0,0.1,0
				c0.1,0,0.7,0.1,0.8,0.1c0.3,0,2.2,0.1,2.6,0.1s0.7,0,0.7-0.7c0-0.6-0.1-2.1-0.1-2.8c0-0.1-0.2-0.8-0.2-0.9c0-0.1,0.1-0.2,0.2-0.2
				c0.1,0,2.1,0.3,2.1,0.7c0,0.1-0.4,0.4-0.5,0.5c-0.1,0.2-0.1,0.3-0.1,0.8c0,0.3,0,1.7,0,2c0,0.3,0,0.6,0.7,0.6h1.2
				c0.9,0,1.2,0,1.4-0.4c0.4-0.7,0.5-0.7,0.7-0.7c0.2,0,1.6,1.2,1.6,1.4c0,0.3-0.4,0.3-1.2,0.3h-3.7c-0.2,0-0.5,0-0.6,0.4
				c0,0.2,0,2.3,0,2.6c0,0.6,0.4,0.6,0.7,0.6h2.6c1.1,0,1.2,0,1.5-0.6c0.4-0.6,0.4-0.8,0.6-0.8c0.2,0,1.8,1.4,1.8,1.6
				c0,0.3-0.4,0.3-1.2,0.3H30z"/>
			<path class="st2" d="M28.1,124.9c-0.4,0-0.7,0.1-0.9,0.6c-0.7,1.6-1.5,2.5-1.8,2.8c0,0-0.1,0.1-0.1,0.2c0,0.2,0.2,0.2,0.3,0.2
				h6.3c0.4,0,0.8-0.1,1.2-0.5c0.2-0.2,0.4-0.4,0.5-0.4c0.1,0,1.7,0.8,1.7,1.2c0,0.3-0.2,0.4-0.5,0.6c-0.2,0.2-0.2,0.3-0.2,1.7
				c0,0.7,0.2,4.6,0.2,4.7c0,0.8-0.9,1.1-1.2,1.1c-0.6,0-0.6-0.3-0.6-1c0-0.6-0.4-0.6-0.7-0.6H20.8c-0.7,0-0.7,0.4-0.7,0.6
				c0,1.1-1.1,1.1-1.3,1.1c-0.4,0-0.5-0.2-0.5-0.5c0-0.2,0.1-1,0.1-1.1c0.1-1,0.1-3.3,0.1-3.8c0-1.4,0-2-0.1-2.9
				c0-0.1-0.2-0.7-0.2-0.8c0-0.2,0.1-0.2,0.2-0.2c0.2,0,0.5,0.1,1.1,0.4c1.3,0.6,1.7,0.6,2,0.6h2.4c0.2,0,0.5,0,0.7-0.4
				c0.5-0.8,0.8-2.7,0.8-2.9c0-0.6-0.5-0.6-0.7-0.6h-1.8c-0.1,0-0.5,0-0.7,0.4c-0.2,0.4-0.4,0.8-1.1,0.8c-0.5,0-0.5-0.4-0.5-0.5
				c0-0.5,0.2-2.8,0.2-3.3c0-1.3-0.2-3.1-0.2-3.5c0-0.1-0.2-0.7-0.2-0.9c0-0.1,0-0.1,0.2-0.1c0.1,0,0.3,0.1,1.4,0.7
				c0.7,0.4,1.1,0.4,1.4,0.4h6.6c0.7,0,1-0.4,1.1-0.4c0.4-0.4,0.4-0.5,0.5-0.5c0.1,0,1.6,0.8,1.6,1.1c0,0.2-0.1,0.3-0.3,0.4
				c-0.4,0.3-0.4,0.3-0.4,0.7c0,0.4,0.1,3,0.1,3.6c0,0.2,0.1,1,0.1,1.2c0,0.9-0.9,1.1-1.2,1.1c-0.5,0-0.5-0.3-0.6-0.7
				c0-0.2-0.2-0.4-0.5-0.4H28.1z M32.2,134.8c0.5,0,0.7-0.4,0.7-0.6c0-0.6,0-3.6,0-4.3c0-0.6-0.3-0.7-0.7-0.7H20.8
				c-0.2,0-0.4,0-0.6,0.2c-0.1,0.2-0.1,3.1-0.1,3.5c0,1.7,0,1.9,0.7,1.9H32.2z M30.1,124.3c0.7,0,0.7-0.2,0.7-1.8c0-0.4,0-2.6,0-2.8
				c-0.1-0.5-0.5-0.5-0.7-0.5h-7.1c-0.2,0-0.6,0-0.7,0.4c0,0.1,0,1.6,0,2c0,0.2,0,2.3,0.2,2.5c0.2,0.2,0.4,0.2,0.6,0.2H30.1z"/>
			<path class="st2" d="M26.3,148.8c0,0.7-1.7,1.4-2.2,1.6c-0.3,0.1-0.3,0.2-0.4,1c0,0.5,0,2.3,0,2.4c0,0.1,0,0.4,0.2,0.4
				c0.1,0,1.9-0.7,2.2-0.9c2.2-0.8,3.2-0.9,3.7-0.9c1.6,0,3.4,1.3,3.4,3.3c0,2.9-3.1,4.2-4.9,4.2c-1.3,0-2.3-0.6-2.3-1.8
				c0-1,0.9-1.7,1.1-1.7c0.1,0,0.1,0.1,0.1,0.1c0,0.1,0,0.1-0.1,0.2c-0.1,0.1-0.2,0.3-0.2,0.6c0,1.1,1.2,1.1,1.4,1.1
				c1.5,0,3.3-1,3.3-2.7c0-1.6-1.2-2.4-2.1-2.4c-0.6,0-2,0.3-4.6,1.6c-1.2,0.7-1.4,0.7-1.4,1.1c0,0.2,0.1,1.2,0.1,1.5
				c0,1-0.3,2.5-1.1,2.5c-0.6,0-0.8-0.5-1-0.8c-0.7-1.4-0.8-1.4-1.1-1.4c-0.2,0-0.4,0.1-0.5,0.1c-0.1,0.1-0.7,0.4-0.8,0.4
				c-0.2,0-1.4-0.7-1.4-1.4c0-0.4,0.2-0.9,0.6-0.9c0.1,0,0.8,0.1,0.9,0.1c0.6,0,1-0.1,2.3-0.7c1.1-0.6,1.3-0.6,1.3-1.2
				c0-0.5,0-2.4,0-2.8c0-0.2-0.1-0.5-0.3-0.5c-0.3,0-0.9,0.2-1,0.2c-1.1,0.4-1.2,0.4-1.6,0.4c-0.7,0-1.6-1.5-1.6-1.7
				c0-0.1,0.1-0.2,0.2-0.2c0.1,0,0.3,0.1,0.4,0.1c0.4,0.1,0.7,0.1,1,0.1c0.8,0,2.7-0.5,2.8-0.7c0.1-0.2,0.2-2.2,0.2-2.4
				c0-0.7-0.1-1.1-0.7-1.8c0,0-0.3-0.3-0.3-0.4c0-0.2,0.4-0.2,0.5-0.2c1.5,0,2.3,1.1,2.3,1.5c0,0.2-0.4,1-0.5,1.1
				c0,0.2-0.2,1-0.2,1.4c0,0.1,0,0.2,0.2,0.2c0.2,0,0.8-0.2,0.8-0.5c0,0-0.1-0.3-0.1-0.3c0,0,0-0.1,0.1-0.1
				C25.2,147.8,26.3,148.1,26.3,148.8z M21.3,157.2c0,0.3,0.6,1,0.9,1c0.3,0,0.6-0.6,0.6-1.7c0-0.1,0-0.3-0.1-0.4
				C22.7,156.2,21.3,156.9,21.3,157.2z M35.7,150.4c0,0.5-0.3,1.1-0.7,1.1c-0.1,0-0.6,0-0.7,0c-0.1,0-0.6,0.2-0.7,0.2
				c0,0-0.1,0-0.1-0.1c0,0,0.1-0.2,0.1-0.2c0-0.1,0.1-0.2,0.1-0.4c0-0.9-1.1-1.2-1.8-1.2c-0.4,0-0.6,0.1-0.9,0.2
				c-0.1,0-0.2,0.1-0.2,0.1c-0.1,0-0.1,0-0.1-0.1c0-0.2,0.9-1.4,2.4-1.4C34.7,148.5,35.7,149.4,35.7,150.4z"/>
			<path class="st2" d="M24.2,169.5c0.2,0.7,0.2,0.9,0.7,1c1,0.1,1.4,0.2,1.4,0.8c0,0.5-0.5,0.9-1.2,1.2c-0.2,0.1-1.3,0.4-1.5,0.5
				c-0.3,0.2-0.4,1.6-0.4,1.8c0,0.2,0.1,0.3,0.2,0.5c0.5,0.6,0.7,0.9,0.7,1.8c0,1.7-1,2.6-1.2,2.8c-0.2,0.2-0.3,0.2-0.3,0.5
				c0,0.2,0.2,1.1,0.2,1.3c0,0.1,0,0.5-0.5,0.7c-0.4,0.2-0.5,0.2-0.5,0.5c0,1.1,1.3,1.6,3.7,1.6c4,0,4.5-1.1,4.6-4.9
				c0-1.9,0.1-5.8,2.5-5.8c1.4,0,2.8,2.6,2.8,3.8c0,0.7-0.5,1-0.7,1c-0.2,0-0.9-0.5-1.1-0.6c-0.2-0.1-1.4-0.3-1.4-0.5
				s0.8-0.3,0.9-0.4c0.3-0.2,0.4-0.4,0.4-0.8c0-0.9-0.6-2-1.3-2c-1.3,0-1.5,1.9-1.5,4.3c0,0.7,0.1,1.9,0.2,2.6
				c0,0.3,0.4,1.9,0.4,2.3c0,2.3-4.4,2.4-5.6,2.4c-4.3,0-4.6-1.9-4.6-2.5c0-0.2,0.2-1.1,0.2-1.3c0-0.3,0-0.3-0.5-0.8
				c-0.5-0.6-1.3-2.2-1.3-3.5c0-0.3,0-2,1.8-2.8c0.1,0,0.7-0.2,0.8-0.2c0.2,0,0.2-1.2,0.2-1.3c0-0.3-0.1-0.3-0.2-0.3
				c-0.2,0-1.3,0.3-1.6,0.3c-0.7,0-1.7-1-1.7-1.8c0-0.1,0-0.3,0.2-0.3c0.2,0,1,0.2,1.2,0.3c0.4,0.1,0.8,0.1,1.3,0.1
				c1,0,1.2,0,1.2-0.8c0-0.4-0.1-0.9-0.4-1.5c-0.1-0.1-0.5-0.7-0.5-0.8c0-0.3,0.5-0.2,0.7-0.2C23.1,168.6,24.1,168.9,24.2,169.5z
				 M21.8,176.2c-0.5,0-1.2,0.6-1.2,1.8c0,0.8,0.4,1.6,1,1.6c0.3,0,0.4-0.3,0.4-0.5c0.1-0.3,0.3-1.8,0.3-2.2
				C22.3,176.4,22.1,176.2,21.8,176.2z M23.9,171.2c0,0.2,0,0.2,0.2,0.2c0,0,0.7-0.2,0.7-0.4c0-0.2-0.2-0.4-0.5-0.4c0,0-0.1,0-0.2,0
				C23.9,170.8,23.9,171.1,23.9,171.2z"/>
			<path class="st2" d="M19.4,198.6c1.5,0,4.4-0.5,6-0.7c1.1-0.2,1.3-0.2,1.3-0.8c0-1.1-0.1-2.4-0.3-3c0-0.1-0.4-0.5-0.4-0.6
				c0-0.2,0.3-0.2,0.5-0.2c1,0,1.8,0.4,1.8,1.1c0,0.1-0.1,0.6-0.1,0.7c0,0.5,0.6,0.8,1.9,1.4c0.5,0.2,1.1,0.4,1.9,0.4
				c0.2,0,1.1-0.1,1.3-0.1c0.3,0,1.3,0.1,1.3,0.9c0,0.6-0.4,0.8-1.2,0.8c-0.5,0-2.5-0.2-2.9-0.2c-0.5,0-2,0-2.4,0.2
				c-0.3,0.1-0.4,0.4-0.4,2.4c0,0.6,0,0.8,0.3,1.4c0.4,0.9,0.6,1.7,0.6,3c0,4.3-3.3,7-4,7c0,0-0.1,0-0.1-0.1c0,0,0.9-1.1,1.1-1.3
				c0.6-0.9,1.2-2.3,1.2-3.2c0-0.1,0-0.3-0.2-0.3c-0.1,0-0.4,0-0.5,0c-1.2,0-2.2-1.1-2.2-2.9c0-0.3,0-2.7,2.1-3
				c0.6-0.1,0.6-0.2,0.6-1.3c0-1.2,0-1.3-0.4-1.3c-0.2,0-2.5,0.4-3.9,0.9c-0.4,0.1-2,0.9-2.4,0.9c-0.5,0-2.3-0.9-2.3-1.8
				c0-0.1,0-0.2,0.1-0.2C18,198.5,19.1,198.6,19.4,198.6z M25.9,202.2c-0.5,0-1.3,0.9-1.3,2c0,1.2,0.9,1.8,1.4,1.8
				c0.9,0,0.9-1.3,0.9-1.7c0-0.8-0.2-1.4-0.3-1.5C26.6,202.7,26.4,202.2,25.9,202.2z M28,197c0,0.4,0.1,0.4,0.4,0.4
				c0.1,0,1.5,0,1.5-0.4c0-0.2-1.5-1.2-1.7-1.2C28,195.9,28,196.4,28,197z"/>
			<path class="st2" d="M23.2,221.1c1.3-0.5,1.4-0.5,1.7-0.5c0.5,0,0.7,0.5,0.7,0.6c0,0.5-0.4,0.6-1.2,0.9c-1.5,0.5-4.2,6-4.2,8.7
				c0,0.9,0.5,3.6,3.4,3.6c2.2,0,3.8-1.4,4.4-2.4c1.5-2.5,1.5-7.2,1.5-7.9c0-0.9,0-1.5-0.3-2.4c-0.3-1-0.3-1.1-0.3-1.3
				c0-0.6,0.5-0.8,0.7-0.8c0.7,0,0.8,0.4,1.2,2.6c0.2,1,0.8,3.2,2.8,4.5c1.2,0.8,1.4,1.1,1.4,1.5c0,0.5-0.4,0.9-0.8,0.9
				c-1,0-2-1.7-2.6-2.8c-0.2-0.4-1.3-2.5-1.4-2.5c-0.1,0-0.1,0.2-0.1,0.3c0,2.6,0,4.8-0.6,7.2c-0.9,3.6-4,4.9-6.1,4.9
				c-2.7,0-4.7-2-4.7-4.6c0-2.3,1-4.5,2.1-6.4c0.1-0.2,1.2-2.2,1.2-2.2c0-0.1-0.1-0.1-0.2-0.1c-0.2,0-1.1,0.5-1.3,0.5
				c-0.8,0-1.2-1.5-1.2-1.5c0-0.1,0-0.2,0.1-0.2c0.1,0,0.9,0.1,1,0.1C20.7,221.7,22,221.5,23.2,221.1z M34.7,221.4
				c0,0.3-0.3,0.8-0.7,0.8c-0.4,0-0.5-0.2-1.1-1.1c-0.3-0.5-0.6-0.7-1.4-1.5c-0.1-0.1-0.3-0.2-0.3-0.3c0-0.1,0.2-0.2,0.4-0.2
				C33,219.2,34.7,220.4,34.7,221.4z M36.5,219.4c0,0.2-0.2,0.6-0.6,0.6c-0.5,0-0.7-0.3-1.1-0.8c-0.3-0.4-1.2-1-1.9-1.3
				c-0.2-0.1-0.3-0.2-0.3-0.2c0-0.2,0.4-0.3,0.8-0.3C35.1,217.5,36.5,218.4,36.5,219.4z"/>
			<path class="st2" d="M22.4,249.3c-0.1-0.2-0.2-0.2-0.2-0.3c0-0.1,0.1-0.1,0.2-0.1c1.2,0,2.8,1.3,2.8,1.9c0,0.2-0.1,0.3-0.4,0.5
				c-0.3,0.2-0.5,0.4-0.9,1c-2.7,3.8-6.4,5.2-6.7,5.2c-0.1,0-0.2-0.1-0.2-0.2c0-0.1,0.1-0.2,0.6-0.6c3.4-2.8,4.9-5.9,4.9-6.6
				C22.6,249.6,22.5,249.5,22.4,249.3z M28.7,249.1c0.1,0,1.1,0.4,2.2,1.1c1.6,1.1,3.5,3.1,3.5,4.6c0,0.3-0.2,1.3-1.1,1.3
				c-0.8,0-1.2-0.8-1.5-1.9c-0.5-1.5-0.9-2.4-2.3-3.9c-0.2-0.2-1-0.9-1-1C28.5,249.2,28.6,249.1,28.7,249.1z M34.7,248.7
				c0,0.4-0.3,0.9-0.6,0.9c-0.3,0-0.5-0.1-1.2-1c-0.3-0.4-0.5-0.5-1.5-1.3c-0.2-0.2-0.3-0.2-0.3-0.3c0-0.1,0.2-0.2,0.4-0.2
				C34,246.7,34.7,248.2,34.7,248.7z M36.7,246.5c0,0.3-0.2,0.6-0.5,0.6c-0.5,0-0.7-0.3-1.1-0.8c-0.4-0.4-1.3-0.9-2-1.2
				c-0.2-0.1-0.3-0.2-0.3-0.2c0-0.2,0.6-0.3,0.8-0.3C36.2,244.6,36.7,246.1,36.7,246.5z"/>
			<path class="st2" d="M27.2,275.6c0.9,0.5,0.9,0.6,0.9,0.8c0,0.1-0.2,0.7-0.3,0.9c-0.1,0.4-0.1,0.9-0.1,3.9c0,0.6,0,1.8,0.1,2.6
				c0,0.3,0.2,1.5,0.2,1.8c0,0.2,0,1-0.5,1c-0.6,0-1.4-0.9-1.4-1.5c0-0.2,0.2-1.2,0.2-1.4c0.1-1.2,0.2-2.9,0.2-4
				c0-0.8,0-3.1-0.6-3.1c-0.1,0-0.2,0.1-0.4,0.3c-2.2,2.1-5.9,4.2-6.2,4.2c-0.1,0-0.1,0-0.1-0.1c0-0.1,0-0.1,0.1-0.2
				c0.6-0.5,1.2-1,1.5-1.3c5.2-4.4,6.9-8.2,6.9-8.8c0-0.2-0.1-0.4-0.2-0.6c0,0-0.2-0.3-0.2-0.4c0-0.1,0.1-0.2,0.2-0.2
				c0.3,0,2.6,0.9,2.6,1.8c0,0.2-0.1,0.4-0.2,0.4c-0.6,0.5-0.7,0.6-1.5,1.8c-0.4,0.5-1.1,1.3-1.5,1.8
				C27,275.4,27.1,275.5,27.2,275.6z"/>
			<path class="st2" d="M29.5,310.8c0,0.4-0.2,0.8-0.5,0.8c-1,0-1.3-1.9-1.5-2.8c-0.1-0.6-0.6-2.9-0.7-3.5c-0.1-0.4-0.2-0.7-0.6-0.7
				c-0.1,0-2.7,0.6-3.8,1c-0.2,0.1-1.1,0.6-1.3,0.6c-0.3,0-2.5-1-2.5-1.6c0-0.2,0.2-0.2,0.3-0.2c0.2,0,1.1,0.1,1.3,0.1
				c1.7,0,3-0.3,5.3-0.7c0.6-0.1,0.7-0.2,0.7-0.6c0-0.4-0.2-1-0.5-2.2c-0.1-0.6-0.2-0.8-0.6-0.8c-0.5,0-3,0.8-3,0.8
				c-0.5,0-2-0.8-2-1.2c0-0.2,0.2-0.2,0.4-0.2c0.5,0,2.1-0.1,3.4-0.4c0.8-0.2,1.1-0.3,1.1-0.7c0-0.1-0.3-2.2-1.3-3
				c-0.2-0.1-1-0.7-1-0.8c0-0.1,0.7-0.4,1.1-0.4c0.4,0,2,0.5,2,0.9c0,0.3,0.1,1.6,0.1,1.8c0.2,1.4,0.4,1.4,0.7,1.4
				c0.2,0,1.6-0.5,1.9-0.6c0.9-0.4,1.1-0.5,1.4-0.5c0.7,0,1.3,0.5,1.3,0.8c0,0.4-0.4,0.5-2,0.8c-1.8,0.4-2,0.4-2.2,0.5
				c-0.4,0.1-0.4,0.3-0.4,0.6c0,0.4,0.3,1.5,0.4,2c0.2,0.7,0.3,0.9,0.7,0.9c0.4,0,2.3-0.6,2.8-0.8c0.7-0.3,1.2-0.5,2.2-0.5
				c1.2,0,1.7,0.6,1.7,1c0,0.7-0.9,0.7-1.7,0.7c-1.3,0-3.3,0.5-4,0.6c-0.9,0.2-1,0.3-1,0.7C27.9,305.3,29.5,309.8,29.5,310.8z"/>
			<path class="st2" d="M26.4,332.4c-0.6,0.4-1.7,1.3-2.2,1.8c-0.4,0.5-0.5,0.5-0.8,0.5c-1.2,0-2.8-1.4-2.8-2.3c0-0.2,0-1.2,0.2-1.2
				c0.1,0,0.6,0.4,0.7,0.4c0.3,0.2,1,0.5,1.5,0.5c1.1,0,6.9-3.9,10.6-7.5c0.4-0.4,1-1,1-1s0.1,0.1,0.1,0.1
				C34.7,324,32.1,328.1,26.4,332.4z M24.6,325.1c-0.6,0-0.8-0.4-1.5-1.5c-0.7-1.1-1.4-1.5-2-1.8c-0.1,0-0.2-0.1-0.2-0.2
				c0-0.1,0.2-0.2,0.5-0.2c2.4,0,4.2,1.3,4.2,2.6C25.5,324.7,25.1,325.1,24.6,325.1z"/>
			<path class="st2" d="M24.1,346.1c0-0.2,0.3-0.2,0.5-0.2c1.5,0,2,1.1,2,1.2c0,0.3-0.2,0.6-0.7,1.1c-0.1,0.2-0.2,0.2-0.2,0.4
				c0,0.2,0.3,0.2,0.4,0.2c0.2,0,1.8-0.2,3.3-0.9c0.3-0.1,0.8-0.4,1-0.4c0.2,0,0.3,0.1,1.2,0.6c0.1,0.1,0.7,0.4,0.8,0.4
				c0.2,0.2,0.4,0.4,0.4,0.5c0,0.3-0.2,0.4-0.9,0.8c-0.2,0.2-0.3,0.3-1.1,1.5c-1.1,1.8-3.5,5.4-7.9,8.3c-2.4,1.6-4.2,2.1-4.4,2.1
				c-0.1,0-0.2-0.1-0.2-0.2c0-0.1,0.1-0.1,0.7-0.5c6.7-3.7,10.9-11.2,10.9-11.9c0-0.2-0.2-0.2-0.2-0.2c0,0-3.1,0.7-3.6,0.7
				c-0.1,0-0.7-0.1-0.9-0.1c-0.4,0-0.5,0-1.4,1.1c-1.3,1.5-1.9,2.1-3,2.9c-0.9,0.7-1.8,1.2-2.1,1.2c-0.1,0-0.2-0.1-0.2-0.1
				c0-0.2,1.5-1.4,1.7-1.7c1.8-1.8,3.9-4.8,3.7-6.1C24.2,346.7,24.1,346.2,24.1,346.1z M34.5,346.9c0,0.4-0.3,0.9-0.6,0.9
				c-0.3,0-0.5-0.1-1.2-0.9c-0.4-0.5-0.7-0.7-1.6-1.3c-0.1-0.1-0.3-0.2-0.3-0.3s0.2-0.2,0.4-0.2C34,345,34.5,346.6,34.5,346.9z
				 M35,343.6c0.9,0.5,0.9,1,0.9,1.3c0,0.3-0.2,0.6-0.5,0.6c-0.5,0-0.7-0.2-1.2-0.7c-0.4-0.4-1.3-0.9-2-1.1
				c-0.2-0.1-0.3-0.2-0.3-0.2c0-0.2,0.6-0.3,0.8-0.3C33.5,343.1,34.2,343.1,35,343.6z"/>
		</g>
	</g>
</g>
</svg>
