<?xml version="1.0" encoding="utf-8"?>
<!-- Generator: Adobe Illustrator 25.2.3, SVG Export Plug-In . SVG Version: 6.00 Build 0)  -->
<svg version="1.1" id="レイヤー_1" xmlns="http://www.w3.org/2000/svg" xmlns:xlink="http://www.w3.org/1999/xlink" x="0px"
	 y="0px" viewBox="0 0 92.8 289.9" style="enable-background:new 0 0 92.8 289.9;" xml:space="preserve">
<style type="text/css">
	.st0{fill:#210100;}
	.st1{fill:none;stroke:#76544B;stroke-miterlimit:10;}
	.st2{fill:#FFFFFF;}
</style>
<g>
	<rect x="37.8" class="st0" width="55" height="119"/>
	<rect y="46.7" class="st0" width="55" height="243.2"/>
	<line class="st1" x1="65.4" y1="0" x2="65.4" y2="30"/>
	<g>
		<g>
			<path class="st2" d="M70,53.2c0.9,0,1,0,1.2-0.2c0.2-0.2,1-1.2,1.2-1.2c0.2,0,2.2,1.4,2.2,1.7s-0.4,0.3-1.2,0.3H58.9
				c-0.5,0-2,0-2.8,0c-0.1,0-0.4,0.1-0.5,0.1c-0.1,0-0.1-0.1-0.2-0.2L55,53.2c0,0-0.1-0.1-0.1-0.1c0,0,0-0.1,0.1-0.1
				c0.2,0,0.8,0.1,1,0.1c1,0,2,0.1,3,0.1h4.5c0.6,0,0.7-0.3,0.7-0.8c0-0.3,0-2-0.1-2.2c0-0.2-0.3-0.8-0.3-0.9c0-0.1,0.2-0.2,0.3-0.2
				c0.1,0,2.4,0.3,2.4,0.9c0,0.2-0.2,0.4-0.4,0.5c-0.3,0.2-0.3,0.4-0.3,0.6c0,0.2,0,1.1,0,1.3c0,0.7,0.3,0.7,0.7,0.7H70z M62.4,55.2
				c-0.4,0.2-1.8,2.6-2.1,3c-0.3,0.3-0.4,0.5-0.4,0.6c0,0,0.1,0.1,0.4,0.2c0.3,0.1,0.5,0.2,0.5,0.3c0,0.1-0.4,0.4-0.5,0.5
				c-0.1,0.2-0.1,3.1-0.1,4.7c0,0.6,0,1.5,0,2.1c0,0.2,0.1,1,0.1,1.1c0,0.7-0.5,1.1-1,1.1c-0.4,0-0.7-0.2-0.7-0.8
				c0-0.2,0.1-1.5,0.1-1.8c0.1-2,0.1-3.9,0.1-5.9c0-0.1,0-0.5-0.3-0.5c-0.2,0-0.4,0.2-0.6,0.4c-0.2,0.1-2.7,2.2-2.7,1.9
				c0,0,1-1.3,1.1-1.4c0.2-0.3,3.6-4.4,4.2-6.5c0.1-0.3,0.1-0.5,0.3-0.5c0.2,0,1.6,0.9,1.7,1.1C62.8,55.1,62.7,55.1,62.4,55.2z
				 M70.3,56.7c0.4,0,0.6,0,0.8-0.1c0.2-0.1,0.6-0.5,0.7-0.5c0.2,0,1.6,0.9,1.6,1.2c0,0.1-0.1,0.2-0.4,0.2c-0.3,0.1-0.5,0.3-1,1.2
				c-0.7,1.3-2,3.4-3,4.4c-0.1,0.1-0.4,0.4-0.4,0.7c0,0.2,0.2,0.4,0.4,0.5c2.1,1.8,4.8,2.3,5.7,2.5c0.4,0.1,0.5,0.1,0.5,0.2
				c0,0-0.1,0.1-0.2,0.2c-0.8,0.3-1.1,0.5-1.4,0.8c-0.2,0.2-0.5,0.7-0.7,0.7c-0.1,0-2.7-1.1-4.8-3.4c-0.2-0.2-0.4-0.3-0.5-0.3
				s-0.4,0.1-0.6,0.4c-3.2,3-5,3.4-5,3.4c0-0.1,0.1-0.2,0.2-0.2c1.5-1.3,1.9-1.7,3.7-3.7c0.8-0.8,0.9-0.9,0.9-1.3
				c0-0.2,0-0.3-0.2-0.7c-0.3-0.6-0.7-1.7-0.9-2.3c-0.2-0.6-0.2-0.6-0.3-0.6s-0.9,0.9-1,1.1c-1.2,1.3-2.9,2.3-2.9,2.2
				c0,0,1.3-1.5,1.5-1.8c1.8-2.3,3.3-5.6,3.4-6.7c0-0.4,0-0.5,0.2-0.5s1.8,0.8,1.8,1c0,0.1-0.2,0.4-0.4,0.5
				c-0.2,0.2-0.4,0.6-0.4,0.8c0,0.2,0.2,0.2,0.4,0.2H70.3z M67.3,57.2c-0.5,0-0.7,0.1-0.9,0.5c-0.2,0.3-0.8,1.2-0.8,1.5
				c0,0.6,1.2,3.3,1.8,3.3c0.4,0,1.3-1.5,1.8-2.4c0.8-1.3,1.3-2.5,1.3-2.7c0-0.3-0.2-0.3-0.5-0.3H67.3z M66.6,58
				c0.7,0,2.1,1,2.1,2.1c0,0.5-0.4,1-0.9,1c-0.5,0-0.5-0.4-0.6-1c-0.1-0.7-0.2-1.3-0.6-1.9c0,0-0.1-0.1-0.1-0.1
				C66.5,58,66.6,58,66.6,58z"/>
			<path class="st2" d="M64.8,77.9c0,0.1,0,0.2,0,0.2c0.1,0.7,0.2,1.4,0.2,2.4c0,1.5-0.3,3.5-2.3,6.4c-1.8,2.7-2.9,3.2-3.8,3.2
				c-1.5,0-2.8-2.3-2.8-5c0-1.2,0.2-3.4,2.4-5.6c2.8-2.9,5.7-2.9,7-2.9c2,0,2.9,0.4,3.5,0.7c2.4,1.2,3.8,3.5,3.8,6.4
				c0,2.9-1.7,6.4-5.5,7.7c-1.9,0.7-3.3,0.8-3.7,0.8c-0.1,0-0.2,0-0.2-0.2c0-0.1,0-0.1,0.6-0.3c2.3-0.9,7.1-2.8,7.1-8.3
				c0-0.9-0.1-6.1-6.1-6.1C64.8,77.6,64.8,77.8,64.8,77.9z M57.6,84.7c0,1.4,0.6,3.4,1.9,3.4c0.6,0,1.2-0.3,2.7-2.6
				c1.2-1.8,2.2-4.2,2.2-6.4c0-1.3-0.1-1.4-0.4-1.4C61.9,77.7,57.6,80.5,57.6,84.7z"/>
		</g>
	</g>
	<g>
		<g>
			<path class="st2" d="M22.3,89.9c6.9-3.7,8.7-8.4,8.7-8.9c0-0.3-0.2-0.4-0.5-0.4c-0.7,0-6.3,1-7.2,1.3c-0.2,0-0.9,0.4-1,0.4
				c-0.9,0-2.5-1.9-2.5-2.5c0-0.1,0.1-0.1,0.1-0.1c0.1,0,0.3,0.2,0.4,0.2c0.4,0.2,1.3,0.4,2.2,0.4c1.8,0,6.2-0.6,7-0.7
				c0,0,1.5-0.1,1.5-0.1c0.1,0,0.5-0.2,0.6-0.2c0.4,0,1.9,1.3,1.9,1.8c0,0.3-0.1,0.4-0.6,0.8c-0.4,0.3-0.6,0.6-1.2,1.6
				c-1.7,2.6-3.1,4.3-6.2,5.9c-2,1-3.7,1.4-3.9,1.4c-0.2,0-0.2-0.1-0.2-0.2c0,0,0-0.1,0-0.1C21.5,90.3,22.1,90,22.3,89.9z
				 M22.8,75.5c0.4,0.1,0.9,0.1,1.2,0.1c1,0,2.5,0,3.5-0.2c0.3-0.1,1.8-0.4,2.2-0.4c0.4,0,1.3,0.2,1.3,0.8c0,0.7-0.8,0.7-2,0.9
				c-0.4,0-5.1,0.5-5.2,0.5c-1.2,0-1.8-1.5-1.8-1.7c0-0.1,0-0.2,0.1-0.2C22.1,75.3,22.7,75.5,22.8,75.5z"/>
			<path class="st2" d="M27.7,100.6c0,0.2-0.3,0.9-0.3,1.1c-0.1,0.6-0.2,3.9-0.2,4.7c0,1.1,0,4.6,0,5.4c0,0.5,0.1,1.6,0.1,2.1
				c0,0.6-0.2,2-0.8,2c-0.3,0-0.8-0.8-0.8-2.1c0-0.5,0.1-2.6,0.1-3c0-1.4,0.1-5.5,0.1-6.5c0-1.4,0-3.1-0.5-4
				c-0.1-0.2-0.3-0.4-0.5-0.6c0,0-0.1-0.1-0.1-0.2c0-0.2,0.5-0.5,0.8-0.5C25.8,99,27.7,99.7,27.7,100.6z"/>
			<path class="st2" d="M25.4,130.1c0.2,0.1,1.2,0.6,1.4,0.6c0.5,0,1.1-1.5,1.4-2.2c0.4-0.9,0.8-2.2,0.8-2.6c0-0.2-0.1-0.4-0.2-0.5
				c-0.1-0.1-0.1-0.2-0.1-0.3c0-0.1,0.1-0.2,0.2-0.2c0.2,0,0.9,0.2,1.5,0.7c0.7,0.5,0.9,1.4,0.9,1.6c0,0.2-0.1,0.2-0.5,0.4
				c-0.2,0.1-0.3,0.2-0.9,1.3c-0.4,0.7-0.8,1.5-1.3,2.2c-0.1,0.2-0.2,0.4-0.2,0.5c0,0.2,0.2,0.4,0.4,0.6c1.9,1.7,2.2,2.9,2.2,3.4
				c0,0.6-0.5,0.7-0.7,0.7c-0.8,0-1.1-0.6-1.9-1.9c-0.2-0.4-0.6-1.1-0.9-1.1c-0.2,0-0.4,0.2-0.5,0.3c-4,5-8.4,6.9-8.6,6.9
				c-0.1,0-0.2,0-0.2-0.1s0.4-0.4,0.7-0.6c3.7-2.9,5.2-4.6,5.8-5.4c0.5-0.7,1.6-2,1.6-2.4c0-0.5-2-1.7-2.9-2.1
				c-0.4-0.2-0.5-0.2-0.5-0.4c0-0.1,0-0.2,0.2-0.2C23.4,129.4,24.4,129.6,25.4,130.1z"/>
			<path class="st2" d="M26.4,161.9c-0.6,0.4-1.7,1.3-2.2,1.8c-0.4,0.5-0.5,0.5-0.8,0.5c-1.2,0-2.8-1.4-2.8-2.3c0-0.2,0-1.2,0.2-1.2
				c0.1,0,0.6,0.4,0.7,0.4c0.3,0.2,1,0.5,1.5,0.5c1.1,0,6.9-3.9,10.6-7.5c0.4-0.4,1-1,1-1s0.1,0.1,0.1,0.1
				C34.7,153.5,32.1,157.7,26.4,161.9z M24.6,154.6c-0.6,0-0.8-0.4-1.5-1.5c-0.7-1.1-1.4-1.5-2-1.8c-0.1,0-0.2-0.1-0.2-0.2
				c0-0.1,0.2-0.2,0.5-0.2c2.4,0,4.2,1.3,4.2,2.6C25.5,154.2,25.1,154.6,24.6,154.6z"/>
			<path class="st2" d="M22.5,178.8c2,0,6.7-0.4,7.2-0.7c0.8-0.5,0.9-0.6,1.1-0.6c0.4,0,2.6,1.4,2.6,2c0,0.2-0.1,0.3-0.7,0.8
				c-0.4,0.3-0.5,0.6-1.2,3.7c0,0.2-0.4,1.2-0.4,1.3c0,0.3,0.2,0.3,0.5,0.4c0.5,0.1,1.4,0.4,1.4,0.9c0,0.6-1,0.6-1.2,0.6
				c-0.5,0-3-0.2-3.5-0.2c-1.4,0-5.5,0.5-5.9,0.5c-0.1,0-0.7,0.3-0.8,0.3c-0.4,0-1.7-1-1.7-1.8c0-0.1,0.1-0.2,0.2-0.2
				c0.1,0,0.6,0.1,0.7,0.1c0.5,0.1,0.9,0.1,1.1,0.1c1.5,0,7.3-0.4,7.6-0.6c0.3-0.1,0.4-0.4,0.5-1.5c0.3-1.9,0.5-3.9,0.5-4.3
				c0-0.4-0.1-0.5-0.3-0.5c-0.7,0-6.1,0.9-7,1.1c-0.2,0-1,0.4-1.1,0.4c-0.5,0-2-1.3-2-1.8c0-0.2,0.2-0.2,0.3-0.2
				C20.2,178.7,22.1,178.8,22.5,178.8z"/>
			<path class="st2" d="M27.7,200.9c0,0.2-0.3,0.9-0.3,1.1c-0.1,0.6-0.2,3.9-0.2,4.7c0,1.1,0,4.6,0,5.4c0,0.5,0.1,1.6,0.1,2.1
				c0,0.6-0.2,2-0.8,2c-0.3,0-0.8-0.8-0.8-2.1c0-0.5,0.1-2.6,0.1-3c0-1.4,0.1-5.5,0.1-6.5c0-1.4,0-3.1-0.5-4
				c-0.1-0.2-0.3-0.4-0.5-0.6c0,0-0.1-0.1-0.1-0.2c0-0.2,0.5-0.5,0.8-0.5C25.8,199.3,27.7,200,27.7,200.9z"/>
			<path class="st2" d="M25.3,231.8c-0.4,0-1.7,0.2-2.1,0.3c-0.5,0.1-2.9,0.6-3,0.6c-0.5,0-0.6-0.1-1.7-1.2
				c-0.6-0.6-0.6-0.6-0.6-0.8c0,0,0-0.2,0.2-0.2c0.1,0,0.7,0.2,0.9,0.2c0.6,0.2,1,0.2,1.7,0.2c1.1,0,4.9-0.4,5.4-0.6
				c0.3-0.1,0.3-0.3,0.4-0.8c0.1-0.6,0.1-1.6,0.1-2.2c0-1.3-0.1-1.9-0.4-2.3c-0.1-0.1-0.4-0.6-0.4-0.7c0-0.2,0.7-0.2,0.9-0.2
				c0.7,0,2.1,1.2,2.1,1.6c0,0.2-0.3,0.7-0.4,0.8c-0.2,0.4-0.4,2.5-0.4,2.8c0,0.4,0.1,0.6,0.6,0.6c0.4,0,2-0.2,2.5-0.4
				c1.1-0.4,1.4-0.5,1.8-0.5c0.6,0,2.2,0.4,2.2,1.4c0,0.7-1.2,0.7-1.5,0.7c-0.3,0-1.7-0.1-2-0.1c-0.2,0-3.1,0.2-3.5,0.3
				c-0.2,0.1-0.4,0.3-0.5,0.9c-1,4-1.5,6.1-3.9,8.4c-0.8,0.7-1.5,1.2-1.6,1.2c-0.1,0-0.1-0.1-0.1-0.1c0-0.1,0.7-0.9,1.1-1.5
				c1.7-2.3,2.2-4.2,2.5-5.4c0.4-1.5,0.5-2.5,0.5-2.6C25.8,231.9,25.6,231.8,25.3,231.8z"/>
			<path class="st2" d="M27.7,251.1c0,0.2-0.3,0.9-0.3,1.1c-0.1,0.6-0.2,3.9-0.2,4.7c0,1.1,0,4.6,0,5.4c0,0.5,0.1,1.6,0.1,2.1
				c0,0.6-0.2,2-0.8,2c-0.3,0-0.8-0.8-0.8-2.1c0-0.5,0.1-2.6,0.1-3c0-1.4,0.1-5.5,0.1-6.5c0-1.4,0-3.1-0.5-4
				c-0.1-0.2-0.3-0.4-0.5-0.6c0,0-0.1-0.1-0.1-0.2c0-0.2,0.5-0.5,0.8-0.5C25.8,249.5,27.7,250.2,27.7,251.1z"/>
		</g>
	</g>
</g>
</svg>
