<?xml version="1.0" encoding="utf-8"?>
<!-- Generator: Adobe Illustrator 25.2.3, SVG Export Plug-In . SVG Version: 6.00 Build 0)  -->
<svg version="1.1" id="レイヤー_1" xmlns="http://www.w3.org/2000/svg" xmlns:xlink="http://www.w3.org/1999/xlink" x="0px"
	 y="0px" viewBox="0 0 92.8 239.9" style="enable-background:new 0 0 92.8 239.9;" xml:space="preserve">
<style type="text/css">
	.st0{fill:#210100;}
	.st1{fill:none;stroke:#76544B;stroke-miterlimit:10;}
	.st2{fill:#FFFFFF;}
</style>
<g>
	<rect x="37.8" class="st0" width="55" height="149"/>
	<rect y="66.7" class="st0" width="55" height="173.2"/>
	<line class="st1" x1="65.4" y1="0" x2="65.4" y2="30"/>
	<g>
		<g>
			<path class="st2" d="M61.5,66.6c-0.1,0-0.6,0-0.6,0.5c0,0.6-0.1,1.2-1.1,1.2c-0.7,0-0.8-0.4-0.8-0.8c0-0.1,0.1-4.5,0.1-5.3
				c0-2.4,0-7.6-0.2-9.9c0-0.2-0.1-1.1-0.1-1.3c0-0.1,0-0.2,0.1-0.2c0.1,0,0.2,0,1,0.5c0.6,0.3,0.7,0.3,1.1,0.3h6.7
				c0.5,0,0.6,0,0.8-0.2c0.3-0.5,0.4-0.6,0.6-0.6c0.3,0,1.9,1,1.9,1.4c0,0.2-0.1,0.2-0.5,0.6c-0.3,0.2-0.4,0.4-0.4,1.4
				c0,2.4,0,2.8,0,4.7c0,1.3,0.2,6.8,0.2,8c0,0.8-0.5,1.2-1.1,1.2c-0.1,0-0.6,0-0.7-0.8c0-0.4,0-0.5-0.5-0.5H61.5z M68.1,58.6
				c0.6,0,0.6-0.4,0.6-0.7c0-0.3-0.1-5.4-0.1-5.5c-0.1-0.3-0.4-0.3-0.5-0.3h-6.8c-0.3,0-0.5,0.2-0.5,0.3c0,0.2,0,5,0,5.3
				c0,0.4,0,0.8,0.6,0.8H68.1z M68.1,66c0.2,0,0.6,0,0.6-0.5c0-0.1,0-5,0-5.5c0-0.5,0-0.8-0.6-0.8h-6.7c-0.6,0-0.6,0.3-0.6,0.8
				c0,0.7,0.1,4.3,0.1,5.1c0,0.7,0.1,1,0.7,1H68.1z"/>
			<path class="st2" d="M56.4,78.1c0.3,0.7,0.7,1.7,0.7,4.5c0,0.4,0,4.3-1.3,4.3c-0.7,0-0.8-0.9-0.8-1.1c0-0.2,0.4-1.3,0.6-1.9
				c0.5-1.5,0.5-3.8,0.5-4.5c0-0.2,0-1.2,0-1.4c0-0.1,0-0.2,0-0.3C56.2,77.8,56.3,77.9,56.4,78.1z M59,74.3c0.1,0,1.5,0.4,1.9,0.5
				c0.2,0,0.4,0.1,0.4,0.3c0,0.2-0.2,0.4-0.4,0.5c-0.3,0.3-0.3,0.4-0.3,1.7c0,0.8,0.1,4.6,0.1,5.3c0,3.5-0.2,7.1-2.8,9.9
				c-0.4,0.4-1.4,1.3-1.6,1.3c0,0-0.1,0-0.1-0.1c0.2-0.3,0.6-0.9,0.8-1.1c1.7-2.6,2.3-5.1,2.3-9.7c0-1.5,0-7.1-0.4-8
				c-0.1-0.2-0.1-0.4-0.1-0.5C58.9,74.3,58.9,74.3,59,74.3z M71.7,82.9c0.4,0,0.5,0,0.8-0.3c0.1-0.1,0.4-0.4,0.4-0.4
				c0.1,0,1.7,1.3,1.7,1.7c0,0.2-0.1,0.4-0.6,0.4c-0.1,0-0.7,0-0.8,0c-0.4,0-0.6,0-0.9,0.3c-0.1,0.1-0.3,0.3-0.4,0.3c0,0,0,0,0-0.1
				c0-0.2,0.2-0.8,0.2-1c0-0.3-0.2-0.3-0.4-0.3h-3.4c-0.1,0-0.2,0-0.2,0.1c0,0.1,0.2,0.2,0.3,0.2c0.7,0.3,0.7,0.3,0.7,0.4
				c0,0.1-0.4,0.5-0.5,0.5c-0.1,0.2-0.2,0.2-0.2,0.4c0,0.6,0.5,0.6,0.7,0.6h1.2c0.2,0,0.4,0,0.6-0.1c0.1-0.1,0.4-0.4,0.5-0.4
				c0.2,0,1.8,0.8,1.8,1.2c0,0.2-0.1,0.2-0.5,0.5c-0.1,0.1-0.2,0.2-0.2,0.4c0,0.4,0,2,0,2.3c0,1.4,0,2-0.7,2.7
				c-0.3,0.3-0.8,0.5-1,0.5c-0.3,0-0.3-0.1-0.7-0.8c-0.2-0.3-0.6-0.7-0.9-0.9c-0.2-0.1-0.2-0.2-0.2-0.2c0,0,0,0,0.1,0
				c0.2,0,1,0.1,1.2,0.1c0.6,0,0.9-0.2,0.9-1.8c0,0-0.1-2.3-0.1-2.4c-0.1-0.3-0.5-0.3-0.6-0.3h-1.1c-0.7,0-0.7,0.3-0.7,0.7
				c0,1.3,0,3,0.1,4.3c0,0.3,0.1,1.5,0.1,1.8c0,0.7-1,0.9-1.2,0.9c-0.4,0-0.5-0.4-0.5-0.5c0-0.8,0.1-4.5,0.1-5.3c0-0.5,0-1.5,0-1.7
				c-0.1-0.3-0.5-0.3-0.7-0.3h-1.1c-0.7,0-0.7,0.4-0.7,0.7c0,0.7,0.1,4,0.1,4.7c0,0.6-0.5,0.9-1,0.9c-0.6,0-0.6-0.5-0.6-0.7
				c0-0.8,0.1-4.4,0.1-5.2c0-0.2-0.1-1.3-0.1-1.5c0-0.1,0-0.2,0.2-0.2c0.2,0,0.8,0.5,1,0.5c0.3,0.1,0.4,0.2,0.9,0.2h1.3
				c0.4,0,0.7-0.1,0.7-0.7c0-1.4,0-1.5-0.7-1.5h-2.6c-0.5,0-0.5,0.1-0.7,0.9c-0.2,0.7-0.8,1.1-1.2,1.1s-0.7-0.4-0.7-0.7
				c0-0.4,0.2-0.5,0.6-0.9c0.4-0.4,0.7-0.9,0.9-1.6c0-0.1,0.1-0.4,0.2-0.4s0.2,0.4,0.3,0.7c0.1,0.4,0.3,0.4,0.6,0.4H71.7z
				 M70.3,75.7c0.2,0,0.3,0,0.5-0.1c0.1-0.1,0.4-0.5,0.6-0.5c0.2,0,1.6,1,1.6,1.1c0,0.1,0,0.1-0.4,0.5c-0.2,0.2-0.2,0.3-0.2,1.5
				c0,0.4,0.1,2.5,0.1,3c0,0.6-0.4,1-1,1c-0.4,0-0.5-0.2-0.6-0.6c-0.1-0.3-0.3-0.3-0.6-0.3h-4.1c-0.6,0-1.7,0-2.6,0
				c-0.1,0-0.6,0.1-0.6,0.1c-0.1,0-0.1,0-0.2-0.2l-0.4-0.5c-0.1-0.1-0.1-0.1-0.1-0.1c0,0,0-0.1,0.1-0.1c0.1,0,0.8,0.1,0.9,0.1
				c0.6,0,1.8,0.1,3,0.1h4c0.5,0,0.7-0.1,0.7-0.6c0-1.1,0-1.3-0.6-1.3h-3.8c-2,0-2.5,0-2.8,0.1c-0.1,0-0.4,0-0.5,0
				c-0.1,0-0.1,0-0.2-0.2l-0.4-0.5c-0.1-0.1-0.1-0.1-0.1-0.1c0,0,0,0,0.1,0c0.1,0,0.8,0.1,1,0.1c0.6,0,1.8,0.1,3,0.1h3.7
				c0.6,0,0.6-0.2,0.6-1.3c0-0.4-0.2-0.6-0.6-0.6h-4.1c-0.6,0-1.7,0-2.6,0c-0.1,0-0.6,0.1-0.6,0.1c-0.1,0-0.1,0-0.2-0.2l-0.4-0.5
				c0,0-0.1-0.1-0.1-0.1c0,0,0,0,0.1,0c0.1,0,0.8,0.1,1,0.1c0.7,0,2.5,0.1,3,0.1H70.3z"/>
			<path class="st2" d="M65.7,104c-1.9,0-3.6,3.1-3.6,5.4c0,0.7,0.1,1.1,0.3,1.6c0.2,0.4,0.2,0.6,0.2,0.8c0,0.7-0.6,0.8-0.8,0.8
				c-1,0-1.5-1.8-1.5-3.6c0-1.1,0.2-2.3,0.4-3.5c0.3-1.8,0.3-2.3,0.3-2.8c0-0.8-0.1-1.1-0.3-1.4c0-0.1-0.4-0.5-0.4-0.6
				s0.3-0.2,0.6-0.2c1,0,1.7,0.9,1.7,1.5c0,0.3-0.4,1.4-0.5,1.6c0,0.2-0.5,2.2-0.5,2.7c0,0.1,0,0.3,0.2,0.3c0.1,0,0.2-0.3,0.4-0.5
				c0.2-0.5,1.7-3.3,4-3.3c1.4,0,2.8,0.7,2.8,5.3c0,3.1-0.6,6.6-4.8,9.1c-0.9,0.5-1.5,0.7-1.6,0.7c0,0-0.1,0-0.1-0.1
				c0-0.1,0-0.1,0.5-0.5c3.6-2.7,4.3-5.3,4.3-9.8C67.5,105.5,67.1,104,65.7,104z"/>
		</g>
	</g>
	<g>
		<g>
			<path class="st2" d="M26.3,98.6c0,0.7-1.7,1.4-2.2,1.6c-0.3,0.1-0.3,0.2-0.4,1c0,0.5,0,2.3,0,2.4c0,0.1,0,0.4,0.2,0.4
				c0.1,0,1.9-0.7,2.2-0.9c2.2-0.8,3.2-0.9,3.7-0.9c1.6,0,3.4,1.3,3.4,3.3c0,2.9-3.1,4.2-4.9,4.2c-1.3,0-2.3-0.6-2.3-1.8
				c0-1,0.9-1.7,1.1-1.7c0.1,0,0.1,0.1,0.1,0.1c0,0.1,0,0.1-0.1,0.2c-0.1,0.1-0.2,0.3-0.2,0.6c0,1.1,1.2,1.1,1.4,1.1
				c1.5,0,3.3-1,3.3-2.7c0-1.6-1.2-2.4-2.1-2.4c-0.6,0-2,0.3-4.6,1.7c-1.2,0.7-1.4,0.7-1.4,1.1c0,0.2,0.1,1.2,0.1,1.5
				c0,1-0.3,2.5-1.1,2.5c-0.6,0-0.8-0.5-1-0.8c-0.7-1.4-0.8-1.4-1.1-1.4c-0.2,0-0.4,0.1-0.5,0.1c-0.1,0.1-0.7,0.4-0.8,0.4
				c-0.2,0-1.4-0.7-1.4-1.4c0-0.4,0.2-0.9,0.6-0.9c0.1,0,0.8,0.1,0.9,0.1c0.6,0,1-0.1,2.3-0.7c1.1-0.6,1.3-0.6,1.3-1.2
				c0-0.5,0-2.4,0-2.8c0-0.2-0.1-0.5-0.3-0.5c-0.3,0-0.9,0.2-1,0.2c-1.1,0.4-1.2,0.4-1.6,0.4c-0.7,0-1.6-1.5-1.6-1.7
				c0-0.1,0.1-0.2,0.2-0.2c0.1,0,0.3,0.1,0.4,0.1c0.4,0.1,0.7,0.1,1,0.1c0.8,0,2.7-0.5,2.8-0.7c0.1-0.2,0.2-2.2,0.2-2.4
				c0-0.7-0.1-1.1-0.7-1.8c0,0-0.3-0.3-0.3-0.4c0-0.2,0.4-0.2,0.5-0.2c1.5,0,2.3,1.1,2.3,1.5c0,0.2-0.4,1-0.5,1.1
				c0,0.2-0.2,1-0.2,1.4c0,0.1,0,0.2,0.2,0.2c0.2,0,0.8-0.2,0.8-0.6c0,0-0.1-0.3-0.1-0.3c0,0,0-0.1,0.1-0.1
				C25.2,97.7,26.3,98,26.3,98.6z M21.3,107.1c0,0.3,0.6,1,0.9,1c0.3,0,0.6-0.6,0.6-1.7c0-0.1,0-0.3-0.1-0.4
				C22.7,106.1,21.3,106.8,21.3,107.1z M35.7,100.2c0,0.5-0.3,1.1-0.7,1.1c-0.1,0-0.6,0-0.7,0c-0.1,0-0.6,0.2-0.7,0.2
				c0,0-0.1,0-0.1-0.1c0,0,0.1-0.2,0.1-0.2c0-0.1,0.1-0.2,0.1-0.4c0-0.9-1.1-1.2-1.8-1.2c-0.4,0-0.6,0.1-0.9,0.2
				c-0.1,0-0.2,0.1-0.2,0.1c-0.1,0-0.1,0-0.1-0.1c0-0.2,0.9-1.4,2.4-1.4C34.7,98.3,35.7,99.2,35.7,100.2z"/>
			<path class="st2" d="M19.5,127.4c0-0.3,0-0.5-0.2-0.5c-0.1,0-2.3,1.9-2.8,1.9c0,0-0.1,0-0.1-0.1c0,0,1-1.1,1.4-1.5
				c0.7-0.8,1.7-1.9,2.8-4.2c0.3-0.6,0.3-0.7,0.5-0.7c0.2,0,1.7,1,1.7,1.3c0,0.1-0.6,0.4-0.7,0.5c-0.5,0.4-1.4,1.5-1.4,1.7
				c0,0.2,0.1,0.2,0.3,0.3c0.3,0.2,0.5,0.2,0.5,0.4c0,0.1-0.3,0.4-0.3,0.5c0,0.2,0,0.4,0,0.6c0,0.3,0,1.8,0,2.2c0,0.8,0,4.7,0.1,5.8
				c0,0.1,0,0.7,0,0.8c0,0.3,0,1-1.1,1c-0.5,0-0.6-0.2-0.6-0.6c0-0.1,0.1-0.6,0.1-0.7c0-0.7,0.2-2.9,0.2-5.4
				C19.5,128.8,19.5,128.6,19.5,127.4z M20.6,117.3c0.2,0,1.7,1,1.7,1.3c0,0.1-0.6,0.5-0.7,0.5c-0.9,0.7-2.4,1.8-2.8,2.1
				c-0.3,0.2-1.8,1.2-2,1.2c-0.1,0-0.1,0-0.1-0.1c0-0.1,1.3-1.4,1.5-1.6c1.6-1.9,1.9-2.3,2-2.6c0.2-0.6,0.2-0.7,0.3-0.7
				C20.5,117.4,20.5,117.3,20.6,117.3z M25.6,130.6c-1.9,0-2.6,0-2.7,0.1c-0.1,0-0.4,0-0.5,0c-0.1,0-0.1,0-0.2-0.1l-0.4-0.5
				c-0.1-0.1-0.1-0.1-0.1-0.2s0,0,0.1,0c0.2,0,0.8,0.1,0.9,0.1c1,0,1.9,0.1,3,0.1h4.9c0.4,0,0.7-0.2,0.7-0.6c0-0.1,0-0.8-0.1-1
				c0-0.2-0.2-0.9-0.2-1c0-0.1,0.1-0.2,0.1-0.2c0.1,0,0.9,0.3,1.1,0.4c0.5,0.2,0.9,0.3,0.9,0.5c0,0.1-0.4,0.4-0.4,0.4
				c-0.1,0.1-0.1,0.4-0.1,0.6c0,0.6,0.1,0.9,0.6,0.9c0.8,0,0.9,0,1.1-0.4c0.2-0.3,0.4-0.8,0.6-0.8c0.2,0,1.7,1.3,1.7,1.5
				c0,0.3-0.4,0.3-1.2,0.3h-1.7c-0.7,0-1.1,0-1.1,0.6c0,0.6,0.1,4.1,0.1,4.2c0,1.6-1.6,1.9-1.7,1.9c-0.2,0-0.3-0.1-0.5-0.3
				c-0.5-0.6-0.7-0.8-1.7-1.2c-0.4-0.2-0.4-0.2-0.4-0.3c0-0.1,0.2-0.1,0.2-0.1c0,0,1.3,0.1,1.6,0.1c1.1,0,1.1-0.2,1.1-1.8
				c0-0.2,0-2.5,0-2.6c0-0.2-0.2-0.4-0.6-0.4H25.6z M31.7,126.4c1,0,1.1,0,1.4-0.4c0.6-0.7,0.7-0.8,0.9-0.8c0.1,0,2,1.2,2,1.5
				c0,0.3-0.4,0.3-1.1,0.3h-8.7c-1.9,0-2.6,0-2.7,0c-0.1,0-0.4,0.1-0.5,0.1s-0.1-0.1-0.2-0.2l-0.4-0.5c0,0-0.1-0.1-0.1-0.1
				c0,0,0-0.1,0.1-0.1c0.2,0,0.8,0.1,0.9,0.1c1,0,1.9,0.1,2.9,0.1H31.7z M31.3,118.4c0.1,0,0.4,0,0.7-0.1c0.1,0,0.5-0.4,0.7-0.4
				c0.4,0,1.4,0.8,1.4,1.1c0,0.1-0.3,0.3-0.4,0.4c-0.2,0.2-0.2,0.8-0.2,1.2c0,0.3,0.1,3.1,0.1,3.5c0,0.5-0.4,1.3-1.3,1.3
				c-0.4,0-0.4-0.2-0.4-0.5c0-0.4-0.2-0.4-0.7-0.4h-4.2c-0.5,0-0.6,0-0.7,0.4c-0.1,0.4-0.2,0.9-0.8,0.9c-0.8,0-0.8-0.5-0.8-0.7
				c0-0.3,0-1.6,0-1.9c0-0.6-0.1-3.6-0.1-4.3c0-0.1-0.1-0.6-0.1-0.8c0-0.1,0-0.3,0.2-0.3c0.1,0,1,0.4,1.2,0.4
				c0.4,0.2,0.6,0.2,1.1,0.2H31.3z M27.5,134.3c0,0.5-0.4,1.1-0.9,1.1c-0.3,0-0.5-0.2-0.6-0.8c-0.2-0.8-0.6-1.8-0.8-2.1
				c0,0-0.3-0.6-0.3-0.6c0-0.1,0.2-0.1,0.2-0.1C25.4,131.8,27.5,132.6,27.5,134.3z M31.4,121.1c0.7,0,0.7-0.4,0.7-0.6
				c0-1.4,0-1.5-0.7-1.5H27c-0.6,0-0.7,0.3-0.7,0.6c0,1.4,0,1.6,0.7,1.6H31.4z M31.3,123.9c0.7,0,0.7-0.4,0.7-0.6c0-0.2,0-1,0-1.1
				c0-0.4-0.4-0.4-0.6-0.4H27c-0.7,0-0.7,0.3-0.7,1c0,0.9,0,1.2,0.7,1.2H31.3z"/>
			<path class="st2" d="M22.4,148.9c-0.1-0.2-0.2-0.2-0.2-0.3c0-0.1,0.1-0.1,0.2-0.1c1.2,0,2.8,1.3,2.8,1.9c0,0.2-0.1,0.3-0.4,0.5
				c-0.3,0.2-0.5,0.4-0.9,1c-2.7,3.8-6.4,5.2-6.7,5.2c-0.1,0-0.2-0.1-0.2-0.2c0-0.1,0.1-0.2,0.6-0.6c3.4-2.8,4.9-5.9,4.9-6.6
				C22.6,149.3,22.5,149.1,22.4,148.9z M28.7,148.8c0.1,0,1.1,0.4,2.2,1.1c1.6,1.1,3.5,3.1,3.5,4.6c0,0.3-0.2,1.3-1.1,1.3
				c-0.8,0-1.2-0.8-1.5-1.9c-0.5-1.5-0.8-2.3-2.3-3.9c-0.2-0.2-1-0.9-1-1C28.5,148.9,28.6,148.8,28.7,148.8z M35.6,147.1
				c0,1.2-1,2.2-2.1,2.2c-1,0-2.1-0.8-2.1-2.1c0-1.1,0.8-2.1,2.1-2.1C35.1,145,35.6,146.4,35.6,147.1z M32.1,147.2
				c0,0.9,0.8,1.3,1.4,1.3c0.9,0,1.3-0.8,1.3-1.4c0-0.8-0.8-1.4-1.4-1.4C33,145.8,32.1,146.2,32.1,147.2z"/>
			<path class="st2" d="M26,176.8c0,0.6-0.5,0.8-0.7,0.8c-0.5,0-0.7-0.5-0.8-1c-0.2-0.6-0.7-1.5-1.3-2.2c-0.1-0.2-0.2-0.2-0.2-0.3
				c0-0.1,0.1-0.2,0.3-0.2C23.8,173.9,26,175,26,176.8z M32.8,172.3c0,0-0.1-0.2-0.1-0.2c0-0.1,0.1-0.2,0.2-0.2
				c0.2,0,1.2,0.6,1.3,0.7c0.6,0.3,0.9,0.8,0.9,1.2c0,0.2-0.1,0.2-0.4,0.4c-0.2,0.1-1,1.6-1.1,1.9c-3.4,5.6-8.8,7.8-9,7.8
				c0,0-0.1-0.1-0.1-0.1c0-0.1,1-0.8,1.2-0.9c4.6-3.6,7.3-7.7,7.3-9.6C32.9,172.9,32.9,172.5,32.8,172.3z M29.3,174.4
				c0,0.6-0.3,1.1-0.7,1.1c-0.5,0-0.6-0.6-0.7-0.9c-0.1-0.7-0.2-0.9-0.8-2.1c0-0.1-0.2-0.4-0.2-0.5c0-0.1,0.1-0.1,0.2-0.1
				C28.1,172.1,29.3,173.1,29.3,174.4z"/>
			<path class="st2" d="M24.9,195.4c0-0.2,0.3-0.2,0.5-0.2c1.5,0,2,1.1,2,1.2c0,0.3-0.2,0.5-0.7,1.1c-0.1,0.2-0.2,0.2-0.2,0.4
				c0,0.2,0.3,0.2,0.4,0.2c0.2,0,1.8-0.2,3.3-0.9c0.3-0.1,0.8-0.4,1-0.4c0.2,0,0.3,0.1,1.2,0.6c0.1,0.1,0.7,0.4,0.8,0.4
				c0.2,0.2,0.4,0.4,0.4,0.5c0,0.3-0.2,0.4-0.9,0.8c-0.2,0.2-0.3,0.3-1.1,1.5c-1.1,1.8-3.5,5.4-7.9,8.3c-2.4,1.6-4.2,2.1-4.4,2.1
				c-0.1,0-0.2-0.1-0.2-0.2c0-0.1,0.1-0.1,0.7-0.5c6.7-3.7,10.9-11.2,10.9-11.9c0-0.2-0.2-0.2-0.2-0.2c0,0-3.1,0.7-3.6,0.7
				c-0.1,0-0.7-0.1-0.9-0.1c-0.4,0-0.5,0-1.4,1.1c-1.3,1.5-1.9,2.1-3,2.9c-0.9,0.7-1.8,1.2-2.1,1.2c-0.1,0-0.2-0.1-0.2-0.1
				c0-0.2,1.5-1.4,1.7-1.7c1.8-1.8,3.9-4.8,3.7-6.1C25,196,24.9,195.5,24.9,195.4z"/>
		</g>
	</g>
</g>
</svg>
