<?xml version="1.0" encoding="utf-8"?>
<!-- Generator: Adobe Illustrator 25.2.3, SVG Export Plug-In . SVG Version: 6.00 Build 0)  -->
<svg version="1.1" id="レイヤー_1" xmlns="http://www.w3.org/2000/svg" xmlns:xlink="http://www.w3.org/1999/xlink" x="0px"
	 y="0px" viewBox="0 0 20.6 133.8" style="enable-background:new 0 0 20.6 133.8;" xml:space="preserve">
<style type="text/css">
	.st0{fill:#200701;}
</style>
<g>
	<g>
		<path class="st0" d="M3.5,10.5c-1,1.3-1.9,2.2-3.3,3.3L0,13.5c1.4-1.6,2.3-2.8,3.5-5.1c1-1.8,1.4-2.8,1.6-3.8C6,4.8,7,5.1,7.2,5.2
			c0.1,0,0.3,0.2,0.3,0.2c0,0,0,0-0.1,0.1c0,0.1-0.2,0.2-0.5,0.2c-0.1,0-0.3,0-0.5,0.1c-1,1.9-1.6,2.8-2.3,3.8
			c0.5,0.1,0.5,0.1,0.7,0.1c1,0.2,1.1,0.2,1.1,0.4c0,0.1-0.1,0.2-0.1,0.2c-0.1,0-0.2,0.1-0.4,0.1c-0.1,0-0.2,0.1-0.4,0.2v5.2
			c0,1.1,0,1.9,0,2.6c0,0.5,0,0.9,0,1.4c0,0.2-0.1,0.3-0.2,0.4c-0.2,0-0.7,0.1-1,0.1c-0.3,0-0.4-0.1-0.4-0.3c0,0,0,0,0-0.1
			c0-1,0.1-3.8,0.1-4.7V10.5z M9.5,2.9V1.3c0-0.5,0-0.7,0-1.3c2.4,0.2,2.7,0.3,2.7,0.5c0,0.2-0.1,0.3-1.1,0.6v1.7h6.4
			c0.4-0.5,0.5-0.7,1-1.2c0.8,0.5,1.1,0.7,1.9,1.3c0.2,0.2,0.3,0.2,0.3,0.3c0,0.1-0.1,0.2-0.2,0.2c-0.2,0.1-0.2,0.1-1.3,0.3
			c-0.2,0.2-0.4,0.4-0.5,0.5C18,5,17.9,5.1,17.6,5.3c0.6,0.4,1.2,0.8,1.6,1.1c0.1,0.1,0.1,0.1,0.1,0.2c0,0-0.1,0.1-0.1,0.1h-5
			C14.1,7,14.1,7,13.8,7.4c-0.6,1-1,1.5-1.7,2.4h4.3l0.8-1c0.6,0.4,0.8,0.5,1.4,1c0.2,0.1,0.2,0.2,0.2,0.3c0,0.1-0.1,0.2-0.8,0.6
			c0,0.7,0,1.2,0,1.7c0,2.4,0,6.1,0.1,7.2c0,0.4-0.2,0.4-1.2,0.4c-0.3,0-0.4-0.1-0.4-0.4V19H9.8v0.9c0,0.3-0.2,0.4-0.9,0.4
			c-0.1,0-0.2,0-0.2,0c0,0,0,0,0,0c-0.3,0-0.4-0.1-0.4-0.3c0.1-4.5,0.1-5.9,0.1-7.4c0-1.5,0-1.8-0.1-3.7c0.5,0.3,1.1,0.7,1.6,1h1.7
			c0.5-1.6,0.6-2.1,0.8-3.1H9c-0.4,0-0.7,0-1.5,0.1L7.3,6C8,6.1,8.6,6.2,9.1,6.2h7c0.4-0.6,0.5-0.8,0.9-1.3L17.3,5
			c0.2-1,0.2-1,0.3-1.6H3.1C3,4.3,2.9,5,2.6,5.7c-0.3,0.8-1,1.5-1.5,1.5c-0.4,0-0.7-0.7-0.7-1.5c0-0.3,0.2-0.5,0.6-0.8
			c0.5-0.3,0.8-0.7,1.1-1.2c0.4-0.6,0.5-1.1,0.6-2.4h0.4c0,0.4,0,0.5,0,0.8c0,0.3,0,0.4,0,0.8H9.5z M16.5,10.3H9.8v3.5h6.7V10.3z
			 M9.8,14.3v4.1h6.7v-4.1H9.8z"/>
		<path class="st0" d="M0.7,34.1c1.2,0.5,1.8,0.7,2.4,1.2C3.9,35.7,4,36,4,36.4c0,0.7-0.4,1.4-0.7,1.4c-0.2,0-0.4-0.1-0.6-0.5
			c-0.9-1.6-1.3-2-2.3-3L0.7,34.1z M0.9,42L1.3,42c0.4,0.1,0.6,0.1,0.7,0.1c0.3,0,0.5-0.1,0.7-0.5c0.2-0.3,0.6-1.2,1.8-3.8
			c1.6-3.5,1.6-3.5,2-4.3l0.3,0.1l-2.9,8.6c-0.2,0.7-0.2,0.8-0.2,1c0,0.2,0,0.4,0.2,0.9c0.4,1.3,0.5,1.7,0.5,2.2
			c0,1.1-0.8,2.1-1.7,2.1c-0.3,0-0.5-0.3-0.5-0.6c0-0.2,0.1-0.6,0.2-1c0.2-0.6,0.3-1.6,0.3-2.4c0-0.4-0.1-0.8-0.2-1.1
			c-0.2-0.5-0.5-0.7-1.6-1.1L0.9,42z M2,29.4c0.9,0.4,1.6,0.6,2.4,1.1c0.8,0.5,1,0.7,1,1.3c0,0.3-0.1,0.8-0.3,1.1
			C5,33,4.9,33.1,4.8,33.1c-0.2,0-0.3-0.1-0.5-0.4c-0.6-1.1-1.3-1.9-2.5-3.1L2,29.4z M17.1,33c0.4-0.5,0.5-0.6,0.9-1
			c0.6,0.4,0.8,0.6,1.4,1c0.2,0.2,0.2,0.2,0.2,0.3c0,0.1-0.2,0.3-0.7,0.7c0,8.6,0,10,0,14.2c0,0.2,0,0.2-0.2,0.2
			c-0.2,0-0.8,0.1-1.2,0.1c-0.2,0-0.3-0.1-0.3-0.2v0v-1.5H9v1.3c0,0,0,0,0,0.1c0,0.2-0.1,0.2-0.2,0.3c-0.2,0-0.8,0.1-1.1,0.1
			c-0.2,0-0.3-0.1-0.3-0.3v0c0.1-2.2,0.1-5,0.1-12c0-2,0-3-0.1-4.2c0.8,0.4,1,0.5,1.8,1h1.6c0.6-1.7,1-3,1.1-4.1
			c2.5,0.6,2.6,0.7,2.6,0.9c0,0.2-0.3,0.3-1.1,0.4c-0.9,1.3-1.4,1.9-2.1,2.8H17.1z M17.2,39.4v-5.8H9v5.8H17.2z M9,39.9v6.4h8.2
			v-6.4H9z"/>
		<path class="st0" d="M5.2,76.3c3.5-2.9,5.3-5.1,7.3-8.4c1.4-2.5,2.6-5.1,2.6-5.9c0-0.2-0.1-0.3-0.4-0.3c-0.4,0-2.5,0.4-4.1,0.7
			c-1.6,0.4-3.1,0.8-4,1.2c-0.3,0.2-0.6,0.2-0.8,0.2c-0.4,0-1-0.4-1.6-1.2c-0.4-0.5-0.6-1-0.6-1.4c0-0.2,0-0.2,0.2-0.5
			c0.4,0.8,1.1,1.3,2.1,1.3c0.7,0,2.5-0.3,6.2-0.9c1.9-0.3,2.1-0.4,2.6-0.6c0.3-0.2,0.3-0.2,0.4-0.2c0.3,0,0.9,0.4,1.6,1
			c0.5,0.5,0.7,0.8,0.7,1.1c0,0.2,0,0.3-0.3,0.6c-0.3,0.3-0.4,0.4-0.7,1.2c-1.8,3.6-4,6.7-6.4,8.9c-1.4,1.3-2.7,2.2-4.5,3.3
			L5.2,76.3z"/>
		<path class="st0" d="M3.1,90.5c0.6,0,1.2,0.2,2.5,1c0.8,0,3.5-0.3,6.9-0.6c1.9-0.2,2.2-0.3,2.6-0.4c0.2-0.1,0.3-0.1,0.4-0.1
			c0.3,0,0.7,0.3,1.1,0.7c0.5,0.5,0.7,0.8,0.7,1.1c0,0.2,0,0.2-0.2,0.4c-0.2,0.3-0.3,0.5-0.5,1.2c-0.2,0.7-0.3,1.2-0.9,3.7
			c-0.4,1.7-0.4,1.7-0.6,2.3c0.7,0.3,1.1,0.7,1.1,1.1c0,0.3-0.2,0.5-0.4,0.5c-0.2,0-0.2,0-1.1-0.2c-0.5-0.1-1.9-0.1-3.1-0.1
			c-1.7,0-3.1,0.1-5.1,0.3c0,0.6,0,0.6,0,0.8c0,0.6-0.1,0.8-0.5,0.8c-0.4,0-0.7-0.3-1-1c-0.2-0.4-0.3-0.8-0.3-1c0-0.1,0-0.2,0.1-0.4
			c0-0.2,0.1-0.9,0.1-1.8c0-2.6-0.3-5.6-0.7-6.6c-0.3-0.7-0.7-1.2-1.5-1.6C2.8,90.5,2.9,90.5,3.1,90.5z M6.4,100.3
			c1.6-0.1,6-0.4,7.3-0.5c0.5-2.3,1.1-6.1,1.4-8.1c-0.3,0-0.4,0-0.6,0c-0.4,0-1.6,0.1-4.3,0.3c-2.4,0.2-3.1,0.3-4.3,0.5
			C5.9,94.7,6.2,98.4,6.4,100.3z"/>
		<path class="st0" d="M4.7,133.5c1.6-1.3,3-3.3,4-5.5c0.7-1.7,1.3-3.8,1.3-4.8c0-0.6-0.4-1-1.3-1.4c0.1-0.2,0.3-0.2,0.5-0.2
			c0.3,0,1.1,0.3,1.7,0.6c0.6,0.3,0.8,0.5,0.9,0.8c1-0.6,3-2.2,3.9-3.1c0.5-0.5,0.7-0.7,0.7-0.9c0-0.3-0.3-0.3-1.3-0.3
			c-1.5,0-5.2,0.6-7.6,1.2c-0.8,0.2-1.6,0.5-2.2,0.8c-0.1,0.1-0.4,0.1-0.5,0.1c-0.5,0-1.3-0.7-1.8-1.5c-0.2-0.4-0.4-0.9-0.4-1.2
			c0-0.2,0-0.3,0.2-0.5c0.4,0.9,1.1,1.3,2.2,1.3c0.8,0,1.2,0,5.3-0.6c0.2,0,0.7-0.1,1.5-0.2c3.4-0.4,3.6-0.4,4-0.7
			c0.1,0,0.2-0.1,0.3-0.1c0.2,0,0.6,0.2,1.2,0.6c0.9,0.7,1.6,1.5,1.6,1.8c0,0.3-0.1,0.4-0.8,0.6c-0.4,0.1-0.6,0.2-1.1,0.5
			c-1.8,1-2.8,1.5-5.2,2.7c-0.1,0.4-0.2,0.4-0.3,1c-1,3-1.8,4.7-3.2,6.3c-1.1,1.3-2.2,2.2-3.4,2.9L4.7,133.5z"/>
	</g>
</g>
</svg>
