<?xml version="1.0" encoding="utf-8"?>
<!-- Generator: Adobe Illustrator 25.2.3, SVG Export Plug-In . SVG Version: 6.00 Build 0)  -->
<svg version="1.1" id="レイヤー_1" xmlns="http://www.w3.org/2000/svg" xmlns:xlink="http://www.w3.org/1999/xlink" x="0px"
	 y="0px" viewBox="0 0 55 179" style="enable-background:new 0 0 55 179;" xml:space="preserve">
<style type="text/css">
	.st0{fill:#210100;}
	.st1{fill:none;stroke:#76544B;stroke-miterlimit:10;}
	.st2{fill:#FFFFFF;}
</style>
<g>
	<rect class="st0" width="55" height="179"/>
	<line class="st1" x1="27.7" y1="0" x2="27.7" y2="30"/>
	<g>
		<g>
			<path class="st2" d="M25.9,56.8c0.2,0.1,1.2,0.6,1.4,0.6c0.5,0,1.1-1.5,1.4-2.2c0.4-0.9,0.8-2.2,0.8-2.6c0-0.2-0.1-0.4-0.2-0.5
				c-0.1-0.1-0.1-0.2-0.1-0.3c0-0.1,0.1-0.2,0.2-0.2c0.2,0,0.9,0.2,1.5,0.7c0.7,0.5,0.9,1.4,0.9,1.6c0,0.2-0.1,0.2-0.5,0.4
				c-0.2,0.1-0.3,0.2-0.9,1.3c-0.4,0.7-0.8,1.5-1.3,2.2c-0.1,0.2-0.2,0.4-0.2,0.5c0,0.2,0.2,0.4,0.4,0.6c1.9,1.7,2.2,2.9,2.2,3.4
				c0,0.6-0.5,0.7-0.7,0.7c-0.8,0-1.1-0.6-1.9-1.9c-0.2-0.4-0.6-1.1-0.9-1.1c-0.2,0-0.4,0.2-0.5,0.3c-4,5-8.4,6.9-8.6,6.9
				c-0.1,0-0.2,0-0.2-0.1s0.4-0.4,0.7-0.6c3.7-2.9,5.2-4.6,5.8-5.4c0.5-0.7,1.6-2,1.6-2.4c0-0.5-2-1.7-2.9-2.1
				c-0.4-0.2-0.5-0.2-0.5-0.4c0-0.1,0-0.2,0.2-0.2C23.9,56.1,24.8,56.3,25.9,56.8z"/>
			<path class="st2" d="M22.2,87.4c2.6,0,4.8-0.3,6.2-0.5c0.6-0.1,3.1-0.6,3.6-0.6c0.6,0,3.3,0.4,3.3,1.5c0,0.5-0.9,0.6-1.2,0.6
				c-0.2,0-0.7-0.1-1.2-0.2c-0.7-0.1-1.5-0.2-2.5-0.2c-1.8,0-6.5,0.5-7.7,0.7c-0.3,0-1.9,0.4-1.9,0.4c-0.3,0-1.2-0.5-1.5-0.8
				c-0.4-0.4-0.7-1.4-0.7-1.5c0-0.2,0.1-0.2,0.2-0.2c0.1,0,0.2,0,0.2,0C20.5,87.3,20.7,87.4,22.2,87.4z M23.5,80.3
				c0.7,0,3.9-0.4,4.7-0.6c0.3,0,1.7-0.3,1.9-0.3c1,0,2,0.5,2,1.1c0,0.5-0.8,0.6-3.2,0.7c-0.9,0-5.1,0.6-5.3,0.6
				c-0.6,0-1.1-0.5-1.2-0.7c-0.1-0.1-0.6-0.7-0.6-0.8c0-0.1,0.2-0.1,0.3-0.1S23.3,80.3,23.5,80.3z"/>
			<path class="st2" d="M25.5,106c1.1,0,4.2-0.8,4.5-0.9c0.1,0,0.6-0.3,0.7-0.3c0.6,0,1.7,0.9,1.7,1.2c0,0.2-0.5,0.7-0.5,0.8
				c-0.4,0.9-0.7,3.6-0.7,4.2c0,0.2,0,0.3,0.3,0.3c0.3,0,2.1-0.4,2.5-0.4c0.9,0,2.3,0.7,2.3,1.5c0,0.2-0.1,0.5-0.5,0.5
				c-0.2,0-0.5-0.1-1.2-0.3c-0.5-0.1-1.3-0.2-2.2-0.2c-2.8,0-6.6,0.4-8.3,0.9c-0.2,0-0.7,0.3-0.9,0.3s-1.8-0.8-1.8-2
				c0-0.1,0.1-0.2,0.2-0.2c0.1,0,0.4,0.1,0.6,0.2c0.4,0.1,0.9,0.2,1.5,0.2c0.6,0,5.6-0.4,5.9-0.5c0.2-0.1,0.3-0.4,0.4-0.8
				c0-0.4,0.5-3.9,0.5-3.9c0-0.3-0.2-0.3-0.3-0.3c-0.2,0-3,0.7-3.6,0.9c-0.1,0-0.7,0.3-0.8,0.3c-0.5,0-1.3-1-1.3-1.5
				c0-0.1,0.1-0.2,0.2-0.2S25.3,106,25.5,106z"/>
			<path class="st2" d="M28.2,127.6c0,0.2-0.3,0.9-0.3,1.1c-0.1,0.6-0.2,3.9-0.2,4.7c0,1.1,0,4.6,0,5.4c0,0.5,0.1,1.6,0.1,2.1
				c0,0.6-0.2,2-0.8,2c-0.3,0-0.8-0.8-0.8-2.1c0-0.5,0.1-2.6,0.1-3c0-1.4,0.1-5.5,0.1-6.5c0-1.4,0-3.1-0.5-4
				c-0.1-0.2-0.3-0.4-0.5-0.6c0,0-0.1-0.1-0.1-0.2c0-0.2,0.5-0.5,0.8-0.5C26.2,126,28.2,126.7,28.2,127.6z"/>
		</g>
	</g>
</g>
</svg>
