<?xml version="1.0" encoding="utf-8"?>
<!-- Generator: Adobe Illustrator 25.2.3, SVG Export Plug-In . SVG Version: 6.00 Build 0)  -->
<svg version="1.1" id="レイヤー_1" xmlns="http://www.w3.org/2000/svg" xmlns:xlink="http://www.w3.org/1999/xlink" x="0px"
	 y="0px" viewBox="0 0 80 80" style="enable-background:new 0 0 80 80;" xml:space="preserve">
<style type="text/css">
	.st0{fill:none;}
	.st1{fill:#A7912D;}
	.st2{opacity:0.6;clip-path:url(#SVGID_1_);fill:url(#SVGID_2_);}
	.st3{fill:#FFFFFF;}
</style>
<pattern  x="-644.3" y="-343.5" width="1024.1" height="726.9" patternUnits="userSpaceOnUse" id="新規パターンスウォッチ_14" viewBox="1 -727.9 1024.1 726.9" style="overflow:visible;">
	<g>
		<rect x="1" y="-727.9" class="st0" width="1024.1" height="726.9"/>
		
			<image style="overflow:visible;" width="2950" height="2094" id="SB005_1_" xlink:href="6D384EC0259735B5.png"  transform="matrix(0.3471 0 0 0.3471 1 -727.9108)">
		</image>
	</g>
</pattern>
<g>
	<g>
		<circle class="st1" cx="40" cy="40" r="40"/>
	</g>
	<g>
		<defs>
			<circle id="SVGID_4_" cx="40" cy="40" r="40"/>
		</defs>
		<clipPath id="SVGID_1_">
			<use xlink:href="#SVGID_4_"  style="overflow:visible;"/>
		</clipPath>
		
			<pattern  id="SVGID_2_" xlink:href="#譁ｰ隕上ヱ繧ｿ繝ｼ繝ｳ繧ｹ繧ｦ繧ｩ繝メ_14" patternTransform="matrix(4.695291e-02 0 0 8.678889e-02 -6537.8154 -9064.8691)">
		</pattern>
		<rect x="-7.8" y="-6" class="st2" width="93.9" height="94"/>
	</g>
	<g>
		<path class="st3" d="M50.5,20.1c0.8-1.1,1.6-2.4,2.2-3.7c0.2-0.4,0.3-0.7,0.3-0.8c0-0.1-0.1-0.1-0.1-0.1c-0.3,0-0.8,0.3-2.3,1.1
			c-2,1.1-2.3,1.2-3,1.6c0.1,0.8,0.1,1.1,0.2,1.6c0.3,1.8,0.5,2.6,0.8,3c0.3,0.4,1,0.5,2.1,0.3c1.2-0.2,2.4-0.6,3.2-1
			c0.2-0.1,0.3-0.1,0.3-0.2c0.2,0,0.4,0,0.7,0.2c0.4,0.2,0.6,0.4,0.6,0.7c0,0.2-0.1,0.4-0.3,0.5c-0.6,0.3-1.6,0.5-2.9,0.7
			c-2.5,0.4-3.8,0.2-4.4-0.7c-0.5-0.6-0.8-1.7-1.3-4.6c-0.1,0.1-0.1,0.1-0.8,0.5c-0.1,0.1-0.3,0.2-0.6,0.4c-0.2,0.1-0.3,0.2-0.5,0.4
			c-0.2,0.1-0.2,0.2-0.5,0.3s-0.4,0.3-0.5,0.3c-0.4,0.1-0.9-0.2-1.4-0.7c-0.4-0.3-0.6-0.7-0.7-1c0-0.1,0-0.1,0-0.2
			c0.7,0.6,1.1,0.7,1.6,0.7c0.4-0.1,2.1-0.8,3.4-1.5c-0.5-3.4-0.6-3.5-0.8-3.9c-0.2-0.5-0.7-0.7-1.5-0.8c0.1-0.2,0.3-0.3,0.6-0.3
			c0.6-0.1,1.4,0,2.1,0.2c0.4,0.1,0.6,0.3,0.6,0.6c0,0.1,0,0.1-0.1,0.4c-0.1,0.5-0.1,1.7,0,3.3c2-1,3.1-1.6,3.6-1.9
			c0.9-0.5,0.9-0.5,1.2-0.8c0.2-0.2,0.3-0.2,0.4-0.2c0.3-0.1,0.9,0.2,1.5,0.6c0.4,0.3,0.6,0.5,0.7,0.7c0,0.2,0,0.3-0.4,0.6
			c-0.2,0.1-0.6,0.5-1.6,1.7c-0.7,0.8-1.3,1.3-2.3,2.3L50.5,20.1z"/>
		<path class="st3" d="M48.5,30.8c1.9,0.8,2.7,1.4,2.8,2.1c0.1,0.5-0.1,1.1-0.4,1.1c-0.2,0-0.3-0.1-0.5-0.4c-0.7-1.1-1-1.5-2.1-2.6
			L48.5,30.8z M51.6,29.6c0.7,0.2,1.2,0.4,1.7,0.8c0.5,0.3,0.8,0.6,0.8,1c0.1,0.5-0.1,1.1-0.4,1.2c-0.2,0-0.3-0.1-0.5-0.5
			c-0.5-1-1-1.7-1.7-2.3L51.6,29.6z M51.5,39.6c1.1-1.1,1.6-1.7,2.3-2.8C55,35,56,32.9,56.5,31c0.2-0.6,0.2-0.9,0.2-1.2
			c-0.1-0.4-0.3-0.6-1.1-0.8c0.2-0.1,0.2-0.2,0.4-0.2c0.4-0.1,1,0.1,1.6,0.3c0.5,0.2,0.8,0.4,0.8,0.7c0,0.2,0,0.2-0.2,0.5
			c-0.1,0.1-0.3,0.6-0.5,1.1c-0.9,2.4-1.2,2.8-1.9,4.1c-1.2,1.9-2.5,3.4-4,4.4L51.5,39.6z"/>
		<path class="st3" d="M50.2,43.5c0.4-0.1,0.8,0,1.4,0.1c0.8,0.2,1.3,0.5,1.3,0.8c0,0.1,0,0.1,0,0.4c-0.1,0.5,0,1.9,0.3,3.9
			c1.4-0.1,3.2,0.1,4.3,0.4c0.9,0.3,1.2,0.6,1.3,1.2c0.1,0.5,0,0.8-0.3,0.9c-0.2,0-0.2,0-0.7-0.3c-1.3-0.9-2.8-1.4-4.5-1.7
			c0.2,1.1,0.3,1.7,0.4,2.2c0.1,0.5,0.1,0.7,0.2,1.1c0.1,0.8,0.2,1.1,0.2,1.5c0.1,0.5,0.1,0.5,0.3,2c0.1,0.4,0.1,0.7,0.2,0.9
			c0.1,0.3,0.1,0.5,0,0.6c0,0.1-0.2,0.2-0.3,0.2c-0.4,0.1-1.3-0.8-1.4-1.4c0-0.2,0-0.3,0-0.5c0.1-0.9-0.1-3.2-0.8-7.8
			c-0.2-1.3-0.4-2.6-0.6-3c-0.2-0.8-0.7-1.2-1.6-1.4C49.9,43.6,50,43.5,50.2,43.5z"/>
		<path class="st3" d="M20,15.4c1.6,0.4,2.7,0.8,4.6,1.7c0.6-1.4,1.1-2.8,1.4-3.9c0.1-0.5,0.1-0.7,0.1-1c-0.1-0.4-0.4-0.7-1.1-1
			c0.1-0.1,0.2-0.1,0.3-0.2c0.3,0,0.9,0.1,1.4,0.3c0.8,0.3,1.3,0.7,1.4,1.1c0,0.2,0,0.3-0.2,0.6c-0.3,0.4-0.4,0.7-0.8,1.5
			c-0.6,1.5-0.6,1.5-1.4,3.1c2.1,1.2,2.5,1.5,2.7,2.5c0.1,0.6,0,1-0.3,1c-0.2,0-0.2,0-0.8-0.6c-0.7-0.7-1.3-1.3-2.1-1.9
			c-1.3,2.3-1.9,3.1-3.1,4.6c-1.1,1.2-1.8,1.9-3.4,3L18.4,26c1.3-1.3,2-2.1,2.9-3.4c1.1-1.4,1.6-2.3,2.8-4.6c-1.5-1-2.6-1.6-4.3-2.3
			L20,15.4z"/>
		<path class="st3" d="M21.8,38.3c0.3,0,0.7-0.1,1.5-0.4c2.6-0.7,4.1-1,6.3-1.5c1.7-0.3,1.8-0.3,2.4-0.6c0.2-0.1,0.4-0.1,0.5-0.1
			c0.6-0.1,1.8,0.7,1.9,1.1c0,0.2-0.1,0.4-0.4,0.5c-0.1,0-0.2,0-0.9,0c-1.3-0.1-2.7,0-4.2,0.2c-2,0.3-5.1,1.3-6.3,2
			c-0.3,0.2-0.3,0.2-0.5,0.2c-0.4,0.1-1-0.2-1.6-0.8c-0.4-0.4-0.6-0.8-0.7-1.1c0-0.1,0-0.1,0.1-0.4C20.5,38.3,20.9,38.4,21.8,38.3z
			 M21.5,30.5c0.9,0.7,1.4,0.8,2.3,0.7c1.5-0.2,3.9-1.1,4.7-1.7c0.1-0.1,0.2-0.1,0.3-0.1c0.2,0,0.7,0.1,1.1,0.3
			c0.3,0.2,0.4,0.3,0.4,0.5c0,0.3-0.2,0.4-1.1,0.7c-2.3,0.7-3.8,1.1-4.8,1.2c-1.3,0.2-2-0.1-3.2-1.3L21.5,30.5z"/>
		<path class="st3" d="M28.2,47c0.6-0.1,1.6-0.4,2.5-0.7c0.4-0.2,0.5-0.2,0.7-0.4c0.1-0.1,0.1-0.1,0.2-0.2c0.1-0.1,0.1-0.1,0.3-0.1
			c0.2,0,0.6,0.2,1,0.5c0.3,0.3,0.4,0.4,0.4,0.6c0,0.1,0,0.2-0.1,0.3c-0.1,0.2-0.1,0.5-0.2,1.3c-0.1,1.1-0.2,2.7-0.3,3.2
			c0.2,0,0.2,0,0.7-0.1c1.3-0.3,1.4-0.3,1.8-0.5c0.2-0.1,0.2-0.1,0.3-0.1c0.1,0,0.5,0.1,0.8,0.2c0.5,0.2,0.8,0.5,0.8,0.7
			c0,0.2-0.1,0.4-0.4,0.4c-0.1,0-0.1,0-1,0c-0.5,0-1.2,0-2.2,0.2c-1.7,0.3-3,0.6-4.5,1.3c-0.7,0.3-1.1,0.5-1.5,0.7
			c-0.2,0.2-0.3,0.2-0.4,0.2c-0.3,0-0.7-0.1-1.1-0.4c-0.4-0.3-0.7-0.8-0.8-1.1c0-0.1,0-0.1,0-0.3c0.5,0.5,0.9,0.7,1.5,0.6
			c0.2,0,0.6-0.2,1.2-0.3c1.1-0.3,2-0.6,2.6-0.8c0.7-0.2,0.7-0.2,1.1-0.3c0.1-1.5,0-4.4,0-5c0-0.1,0-0.1-0.1-0.1
			c-0.2,0-1.5,0.5-2.1,0.8c-0.5,0.2-0.6,0.3-1,0.5c-0.1,0.1-0.3,0.1-0.4,0.2c-0.3,0-0.7-0.2-1-0.6c-0.3-0.3-0.4-0.7-0.5-0.9
			c0-0.1,0-0.2,0.1-0.4C27.2,46.8,27.7,47.1,28.2,47z"/>
		<path class="st3" d="M30.2,62.1c-0.2-1.3-0.3-1.6-0.6-1.9c-0.3-0.2-0.6-0.4-1.1-0.5c0.1-0.2,0.3-0.3,0.5-0.3c0.4-0.1,1,0,1.7,0.3
			c0.6,0.2,0.8,0.4,0.9,0.6c0,0.2,0,0.3-0.2,0.6c-0.1,0.3-0.1,1.1,1,7.9c0.6,3.8,0.5,4.4,0,4.5c-0.2,0-0.3-0.1-0.4-0.3
			c-0.2-0.3-0.3-0.8-0.5-2.2L30.2,62.1z"/>
	</g>
</g>
</svg>
