<?xml version="1.0" encoding="utf-8"?>
<!-- Generator: Adobe Illustrator 25.2.3, SVG Export Plug-In . SVG Version: 6.00 Build 0)  -->
<svg version="1.1" id="レイヤー_1" xmlns="http://www.w3.org/2000/svg" xmlns:xlink="http://www.w3.org/1999/xlink" x="0px"
	 y="0px" viewBox="0 0 92 436.8" style="enable-background:new 0 0 92 436.8;" xml:space="preserve">
<style type="text/css">
	.st0{fill:#200701;}
	.st1{fill:none;stroke:#76544B;stroke-miterlimit:10;}
</style>
<g>
	<g>
		<path class="st0" d="M71.6,111.8v0.7c0,0.2-0.1,0.3-0.3,0.4c-0.1,0.1-0.8,0.1-1.1,0.1c-0.4,0-0.5-0.1-0.5-0.4v-0.1
			c0.1-2.4,0.1-4.3,0.1-6c0-2.7,0-4.8-0.1-5.6c1,0.5,1.3,0.7,2.2,1.3h11.6c0.4-0.5,0.5-0.7,0.9-1.2c0.8,0.5,1,0.6,1.8,1.2
			c0.2,0.2,0.3,0.3,0.3,0.4c0,0.1-0.4,0.5-1,0.8c0,1.1,0,1.5,0,1.9c0,0.9,0.1,5.7,0.1,7c0,0.3-0.1,0.3-0.3,0.4
			c-0.2,0.1-1,0.1-1.2,0.1s-0.4-0.1-0.4-0.4v-0.7h-2.8v3.7c0,0.5,0.1,0.6,0.7,0.6c0.2,0,2.1,0,3.5,0c0.6,0,1.1,0,1.4,0
			c0.9,0,1.1-0.1,1.4-0.6c0.4-0.9,1.1-2.9,1.7-4.4l0.3,0.1l-0.3,3.8c0,0.2,0,0.3,0,0.4c0,0.2,0.1,0.3,0.4,0.4
			c0.7,0.3,0.9,0.5,0.9,0.8c0,0.2-0.2,0.4-0.5,0.6c-0.4,0.2-0.6,0.2-1.5,0.2c-0.3,0-3.7,0.1-4.2,0.1c-3.5,0-4.1,0-4.6-0.2
			c-0.7-0.3-0.9-0.5-0.9-1.3c0-1.8,0-1.8,0-2v-2.3h-2.5c-0.6,1.6-1.1,2.4-2,3.3c-2,1.8-4.8,2.7-9.5,3l-0.1-0.4
			c5.5-0.9,8.7-2.8,9.7-5.9H71.6z M86.6,95.2c0.4-0.6,0.6-0.8,1.1-1.4c1.1,0.7,1.5,0.9,2.5,1.6c0.3,0.2,0.4,0.3,0.4,0.5
			c0,0.3-0.3,0.4-1.8,0.6c-0.6,0.6-0.8,0.7-1.7,1.5c0.6,0.4,0.8,0.6,1.6,1.2c0.1,0.1,0.1,0.1,0.1,0.2c0,0.1-0.1,0.2-0.3,0.2h-6.6
			c0,0.6,0,0.7,0,1.4c0,0.3-0.1,0.4-0.3,0.4c-0.2,0.1-0.8,0.1-1.1,0.1c-0.4,0-0.5-0.1-0.5-0.3c0-0.9,0-1.5,0-1.7h-4.8l0,1.5
			c0,0,0,0.1,0,0.1c0,0.3-0.4,0.4-1.1,0.4c-0.4,0-0.6-0.1-0.6-0.3c0,0,0-0.1,0-0.1c0-0.8,0-1,0-1.6h-3.4c-0.4,0-0.9,0-1.8,0.1
			l-0.2-1c1.1,0.2,1.7,0.3,2.3,0.3h3c0-0.2,0-0.3,0-0.4c0-0.8,0-1.5-0.1-2c2.5,0.3,2.5,0.3,2.7,0.4c0.1,0,0.2,0.1,0.2,0.2
			c0,0.2-0.2,0.3-1.1,0.5c0,0.3,0,0.5,0,0.6c0,0.2,0,0.4,0,0.7H80c0-1-0.1-1.5-0.1-2.3c2.5,0.3,2.9,0.4,2.9,0.7
			c0,0.2-0.2,0.3-1.1,0.5c0,0.5,0,0.9,0,1.2h3c0.6-0.7,0.7-0.9,1.3-1.5c0.3,0.2,0.3,0.2,0.6,0.4c0-0.2,0.1-0.8,0.3-1.9H68.6
			c-0.4,2.2-1.4,4.1-2.2,4.1c-0.4,0-1-1-1-1.8c0-0.3,0.1-0.4,0.7-0.9c1.2-0.9,2-2.3,2.2-3.9h0.4c0,0.3,0,0.6,0,0.8
			c0,0.3,0,0.6-0.1,1h8v-1.4c0-0.8,0-0.9-0.1-1.4c1.2,0.1,2.5,0.4,2.9,0.5c0.3,0.1,0.4,0.2,0.4,0.3c0,0.3-0.4,0.4-1.3,0.6v1.4H86.6z
			 M83.7,105.1v-2.2H71.6v2.2H83.7z M71.6,105.7v2.2h12.1v-2.2H71.6z M71.6,108.6v2.5h12.1v-2.5H71.6z"/>
		<path class="st0" d="M68.4,134.8c1.3,0.9,2.2,1.2,3.7,1.2c1.3,0,3.4-0.4,4.6-0.8c-0.5-1-1.8-2.7-2.4-3.1c-0.2-0.3-1.3-0.5-2.2-0.6
			c0.2-0.5,0.4-0.6,1.1-0.8c0.4-0.1,0.8-0.1,1.3-0.1c1,0,1.7,0.1,1.9,0.4s0.3,0.3,0.3,1.1c0.1,0.7,0.1,0.8,1.1,2.8
			c1.9-0.7,3.1-1.3,3.7-2c0.2-0.2,0.4-0.3,0.9-0.3c1.1,0,1.7,0.3,1.7,0.7c0,0.6-1,1-5.6,2.5c0.2,0.3,0.3,0.5,0.3,0.6
			c0.4,0.6,1,1.6,1.7,2.7c2.2-0.9,2.9-1.1,3.5-1.6c-0.6-0.6-0.8-0.8-1.5-1.3l0.2-0.3c1.1,0.6,1.8,0.8,2.4,0.8c0,0,0,0,0.5-0.1
			c0.1,0,0.2,0,0.2,0c0.4,0,0.8,0.3,0.8,0.7c0,0.6-1.6,1.5-5.4,2.9c0.7,1.2,0.9,1.6,1.3,2.2c0.4,0.8,0.7,1.3,0.9,1.5l0.4,0.7
			c0.3,0.5,0.5,1,0.5,1.5c0,1.1-0.4,1.8-0.9,1.8c-0.3,0-0.3-0.1-0.8-0.4c-1.4-1.1-4-1.9-6.5-1.9c-1.3,0-2.5,0.3-3.5,0.8
			c-1.1,0.6-1.7,1.3-1.7,2.3c0,1.7,1.8,2.7,5.3,2.7c1.4,0,2.2-0.1,3.5-0.4c0.1,0,0.3-0.1,0.3-0.1c0.8,0,1.8,0.8,1.8,1.5
			c0,0.3-0.1,0.4-0.4,0.5c-0.5,0.2-2.2,0.4-3.8,0.4c-2.2,0-4.1-0.3-5.4-0.8c-1.7-0.8-2.7-2.1-2.7-3.5c0-2.5,3-4.2,7.4-4.2
			c1.7,0,3.2,0.2,5.3,0.6c-0.3-0.9-1.1-3-2.1-4.8c-1.9,0.7-4.3,1.1-6,1.1c-1.2,0-2.1-0.3-2.9-0.8c-0.6-0.4-0.9-0.8-1.3-1.7l0.3-0.3
			c0.9,1.2,1.8,1.7,3.3,1.7c1.6,0,3.6-0.4,6-1.1c-0.5-0.9-1.5-2.7-2-3.4c-1.9,0.6-3.7,0.9-5.2,0.9c-1.5,0-2.9-0.7-4.1-2L68.4,134.8z
			 M84.5,130.1c1,0.6,1.8,1.1,2.5,1.7c1,0.9,1.4,1.6,1.4,2.2c0,0.7-0.4,1.2-0.9,1.2c-0.4,0-0.4,0-1.2-1.8c-0.5-1-1.4-2.2-2.2-2.9
			L84.5,130.1z M87.4,128.5c1,0.5,1.8,1,2.7,1.6c1.1,0.8,1.4,1.4,1.4,2.2c0,0.7-0.3,1.1-0.7,1.1c-0.3,0-0.4-0.1-0.6-0.6
			c-1-1.8-1.5-2.5-3.1-4L87.4,128.5z"/>
		<path class="st0" d="M77.8,188.3c3-0.9,5-2,6.6-3.9c1.7-1.9,2.5-4.2,2.5-6.7c0-2.7-1.1-4.9-3.2-6.2c-1.2-0.8-3.1-1.3-4.8-1.3
			c-0.3,0-0.5,0-1,0.1c0.7,1,0.9,1.5,0.9,2.3c0,2.2-1.6,6.3-3.7,9.7c-1.8,2.8-3.1,4.2-4.2,4.2c-0.5,0-0.9-0.2-1.2-0.6
			c-0.3-0.3-0.3-0.4-0.8-1.8c-0.3-0.7-0.4-1.1-1.2-2.6c-0.4-0.9-0.6-1.7-0.6-2.5c0-1.8,1-3.8,2.5-5.5c2.3-2.4,6-3.9,9.6-3.9
			c2.8,0,5.4,0.9,7.2,2.6c1.8,1.7,2.7,3.9,2.7,6.6c0,3.5-2,6.6-5.6,8.5c-1.6,0.9-3.1,1.3-5.5,1.7L77.8,188.3z M68.6,179.6
			c0,1.3,0.4,2.7,1.1,3.7c0.4,0.5,0.8,0.8,1.1,0.8c0.6,0,2-1.5,3.3-3.7c2.1-3.3,3.6-6.9,3.6-8.7c0-0.4-0.1-0.7-0.4-1.4
			C72.4,171.2,68.6,175.3,68.6,179.6z"/>
		<path class="st0" d="M67.8,205.5c0.9,1,1.3,1.3,2.4,1.3c1.7,0,3.8-0.7,5.3-1.8c0.1-0.1,0.3-0.1,0.4-0.1c0.6,0,1.6,0.8,1.6,1.3
			c0,0.3-0.1,0.3-0.9,0.8c-1.1,0.6-2.5,1.7-3.6,3.1c-2,2.5-3.1,5.3-3.1,8c0,3.8,2.1,6.1,5.4,6.1c2.5,0,4.8-1.4,6.1-3.8
			c0.9-1.8,1.4-4.1,1.4-7.1c0-2.9-0.3-5.3-0.9-7.6c-0.1-0.3-0.1-0.6-0.1-0.7c0-0.3,0.2-0.5,0.5-0.5h0c0.4,0,1,0.3,1.3,0.7
			c0.3,0.3,0.4,0.4,0.4,1c0.1,1.3,1.1,4.2,2.2,6.4c0.8,1.6,1.5,2.6,2.2,3.4c0.5,0.5,0.8,1.4,0.8,2.3c0,0.6-0.3,1.1-0.6,1.1
			c-0.6,0-1.4-1-2.5-3.2c-1.1-2.4-1.9-4.4-3-8l-0.1,0c0.6,4,0.6,5,0.6,7c0,3.7-0.8,6.4-2.5,8.3c-1.3,1.5-3.4,2.4-5.5,2.4
			c-4.2,0-6.9-3.1-6.9-7.9c0-1.8,0.4-3.8,1.1-5.5c0.7-1.7,1.4-2.9,2.9-4.8c-1,0.2-1.6,0.3-2.2,0.3c-1.6,0-2.5-0.7-3.3-2.2
			L67.8,205.5z"/>
		<path class="st0" d="M73.9,239.5c0.8,0,2.2,0.3,2.8,0.5c0.6,0.2,0.8,0.5,0.8,0.9c0,0,0,0.1,0,0.1c0,0.2,0,0.2-0.2,0.7
			c-0.3,1-0.6,3.4-0.6,5.7c0,1.7,0.2,2.1,1.1,2.1c0.6,0,1.2-0.2,3.8-1.4c0.5-0.3,0.8-0.3,1.1-0.3c0.7,0,1.3,0.6,1.3,1.2
			c0,0.4-0.2,0.7-0.6,0.8c-0.2,0.1-0.6,0.2-1.9,0.6c-3.4,1-5.2,1.8-7,3.1c-1.5,1.2-2.2,2.3-2.2,3.6c0,2,1.6,3.1,4.7,3.1
			c1.7,0,4.5-0.3,6.5-0.8c0.3-0.1,0.4-0.1,0.6-0.1c0.7,0,1.5,0.7,1.5,1.4c0,0.5-0.3,0.8-1.2,0.9c-0.9,0.2-3.7,0.4-5.4,0.4
			c-2,0-3.6-0.2-4.8-0.6c-1.9-0.7-3.1-2.3-3.1-4.1c0-1.6,0.9-3.2,2.7-4.7c0.8-0.7,1.8-1.3,3.4-2.2c-0.6,0-0.9-0.1-1.3-0.4
			c-0.4-0.3-0.7-0.9-0.8-2.1c-0.1-0.7-0.1-1.3-0.2-3.4c-0.1-2.4-0.1-2.8-0.3-3.2c-0.3-0.5-0.8-0.8-2-1
			C73.1,239.6,73.3,239.5,73.9,239.5z"/>
		<path class="st0" d="M73.9,275.9c0.8,0,2.2,0.3,2.8,0.5c0.6,0.2,0.8,0.5,0.8,0.9c0,0,0,0.1,0,0.1c0,0.2,0,0.2-0.2,0.7
			c-0.3,1-0.6,3.4-0.6,5.7c0,1.7,0.2,2.1,1.1,2.1c0.6,0,1.2-0.2,3.8-1.4c0.5-0.3,0.8-0.3,1.1-0.3c0.7,0,1.3,0.6,1.3,1.2
			c0,0.4-0.2,0.7-0.6,0.8c-0.2,0.1-0.6,0.2-1.9,0.6c-3.4,1-5.2,1.8-7,3.1c-1.5,1.2-2.2,2.3-2.2,3.6c0,2,1.6,3.1,4.7,3.1
			c1.7,0,4.5-0.3,6.5-0.8c0.3-0.1,0.4-0.1,0.6-0.1c0.7,0,1.5,0.7,1.5,1.4c0,0.5-0.3,0.8-1.2,0.9c-0.9,0.2-3.7,0.4-5.4,0.4
			c-2,0-3.6-0.2-4.8-0.6c-1.9-0.7-3.1-2.3-3.1-4.1c0-1.6,0.9-3.2,2.7-4.7c0.8-0.7,1.8-1.3,3.4-2.2c-0.6,0-0.9-0.1-1.3-0.4
			c-0.4-0.3-0.7-0.9-0.8-2.1c-0.1-0.7-0.1-1.3-0.2-3.4c-0.1-2.4-0.1-2.8-0.3-3.2c-0.3-0.5-0.8-0.8-2-1
			C73.1,276,73.3,275.9,73.9,275.9z"/>
		<path class="st0" d="M69.1,316.6c1.3,1,2.2,1.3,3.7,1.3c1.3,0,3.4-0.4,4.6-0.8c-0.6-1.2-1.8-2.7-2.4-3.1c-0.4-0.3-1.1-0.5-2.2-0.6
			c0.2-0.5,0.4-0.6,1.1-0.7c0.4-0.1,0.8-0.1,1.3-0.1c1,0,1.7,0.1,1.9,0.4s0.3,0.3,0.3,1.1c0,0.6,0,0.6,1.1,2.8c2.6-1,3.2-1.3,4-2.1
			c0.2-0.2,0.5-0.3,0.9-0.3c1.1,0,1.7,0.3,1.7,0.7c0,0.4-0.4,0.6-1.8,1.2c-0.4,0.2-1.8,0.7-4.1,1.4c0.3,0.5,0.3,0.5,0.6,1
			c0.2,0.3,0.6,1.1,1.4,2.3c2.2-0.9,2.7-1.1,3.5-1.5c-0.6-0.6-0.8-0.8-1.5-1.3l0.2-0.3c1.1,0.5,1.8,0.8,2.4,0.8c0,0,0,0,0.5-0.1
			c0.1,0,0.2,0,0.2,0c0.4,0,0.8,0.3,0.8,0.7c0,0.7-1.6,1.5-5.4,2.9c0.9,1.5,1,1.7,1.3,2.2c0.6,1.1,0.6,1.1,1.3,2.2
			c0.3,0.5,0.5,1,0.5,1.5c0,1.1-0.4,1.8-0.9,1.8c-0.3,0-0.3-0.1-0.8-0.4c-1.4-1.1-4-1.9-6.5-1.9c-1.3,0-2.5,0.3-3.5,0.8
			c-1.1,0.6-1.7,1.3-1.7,2.3c0,1.7,1.8,2.7,5.3,2.7c1.4,0,2.2-0.1,3.5-0.4c0.1,0,0.3-0.1,0.3-0.1c0.8,0,1.8,0.8,1.8,1.5
			c0,0.2-0.1,0.4-0.4,0.5c-0.5,0.2-2.2,0.4-3.8,0.4c-2.2,0-4.1-0.3-5.4-0.8c-1.7-0.8-2.7-2.1-2.7-3.5c0-2.5,3-4.2,7.4-4.2
			c1.7,0,3.2,0.2,5.3,0.6c-0.3-1.1-1.1-2.8-2.1-4.8c-1.9,0.6-4.3,1.1-6,1.1c-1.2,0-2.1-0.3-2.9-0.8c-0.6-0.4-0.9-0.8-1.3-1.7
			l0.3-0.3c0.9,1.2,1.8,1.7,3.3,1.7c1.6,0,3.7-0.4,6-1.1c-0.6-1.1-1.3-2.4-2-3.4c-1.9,0.6-3.7,0.9-5.2,0.9c-1.5,0-2.9-0.7-4.1-2
			L69.1,316.6z"/>
		<path class="st0" d="M22.3,113.4c0.8-0.9,1-1.2,1.7-2.1c1.3,1,1.7,1.3,2.9,2.3c0.1,0.1,0.1,0.2,0.1,0.2c0,0.1-0.1,0.2-0.3,0.2H4.4
			c-0.8,0-2,0.1-2.7,0.2l-0.3-1.2c0.9,0.2,2.3,0.3,2.9,0.3h8.5v-1.6c0-0.4,0-0.8-0.2-1.7c2.9,0.3,3.2,0.4,3.2,0.8
			c0,0.2-0.2,0.3-1.1,0.6v1.9H22.3z M22.6,123.7c0.3-0.4,0.7-0.8,1.1-1.2c0.9,0.6,1.2,0.8,2,1.4c0.2,0.2,0.2,0.2,0.2,0.3
			c0,0.2,0,0.2-1,0.8v4.5c0,0.9,0.1,1.8,0.1,2.6c0,1.3,0,1.3,0.1,2.1c0,0.7-0.3,1-1.1,1.3c-0.5,0.2-1,0.3-2.2,0.5
			c-0.1-0.7-0.3-1.1-0.9-1.3c-0.4-0.3-1.1-0.4-2.7-0.5v-0.5c2,0.1,2.9,0.2,4.6,0.2c0.2,0,0.3-0.1,0.3-0.5v-9H5v5.7
			c0,2.1,0,2.7,0.1,5.5c-0.1,0.2-0.1,0.2-0.3,0.3c-0.3,0.1-0.9,0.1-1.3,0.1c-0.3,0-0.4-0.1-0.4-0.3C3,132.4,3,132,3,131.2
			c0-5.2,0-6.7-0.1-8.8c1.1,0.5,1.5,0.7,2.4,1.3H22.6z M18.9,116.4c0.4-0.5,0.5-0.6,1-1.1c0.8,0.5,1.1,0.7,1.8,1.2
			c0.2,0.1,0.2,0.2,0.2,0.3c0,0.2,0,0.2-0.9,0.8c0,0.5,0,1,0,1.2c0,0.6,0,1,0.1,3.3c0,0.2-0.1,0.3-0.3,0.4c-0.2,0.1-0.9,0.1-1.3,0.1
			c-0.3,0-0.4-0.1-0.4-0.3v-1H8.9v0.7c0,0,0,0.1,0,0.1c0,0.3-0.4,0.4-1.2,0.4c-0.6,0-0.7-0.1-0.7-0.3c0,0,0-0.1,0-0.1
			c0.1-1.5,0.1-2.2,0.1-3.6s0-2.2-0.1-3.3c1,0.4,1.3,0.6,2.2,1.1H18.9z M17.4,126.8c0.4-0.5,0.5-0.6,1-1.1c0.8,0.5,1,0.7,1.7,1.2
			c0.1,0.1,0.1,0.2,0.1,0.2c0,0.1,0,0.1-0.8,0.7v1.1c0,0.5,0,1.1,0,2c0,0.5,0,1,0,1.5c0,0.3-0.4,0.4-1.5,0.4c-0.3,0-0.3-0.1-0.4-0.2
			v-1h-7.3v1.4c-0.1,0.3-0.3,0.3-1,0.4c-0.2,0-0.3,0-0.4,0c0,0-0.1,0-0.1,0c-0.3,0-0.4-0.1-0.4-0.4l0-4.1c0-1.5,0-2.5-0.1-3.5
			c1,0.4,1.3,0.6,2.2,1.1H17.4z M8.9,120.7H19V117H8.9V120.7z M10.3,131.1h7.3v-3.7h-7.3V131.1z"/>
		<path class="st0" d="M2.7,156.3c0.8,0.1,1.1,0.1,1.6,0.1c0.3,0,1,0,3.4-0.1c1-2,1.1-2.2,2-4.2c1.2-2.8,1.7-3.9,1.9-5.1
			c2.8,0.8,3.2,1,3.2,1.3c0,0.3-0.2,0.4-1.2,0.5c-2.1,3.3-2.9,4.5-5.1,7.5c4-0.1,8.5-0.3,12.7-0.7c-1.1-1.4-2.1-2.5-3.9-4.1l0.2-0.3
			c2.1,1.2,3.4,2,5.3,3.5c1.9,1.5,2.1,1.7,2.1,2.7c0,1.2-0.3,2.1-0.8,2.1c-0.2,0-0.4-0.1-0.6-0.5c-0.8-1.3-1.2-2-1.8-2.9
			c-6.9,1-12.2,1.6-17.5,2.1c-0.3,0.9-0.4,1.1-0.6,1.1c-0.1,0-0.2-0.1-0.3-0.3c-0.1-0.1-0.2-0.5-0.3-1L2.7,156.3z M19.9,161.7
			c0.5-0.6,0.6-0.8,1.1-1.3c0.8,0.6,1.1,0.8,1.8,1.3c0.2,0.2,0.3,0.3,0.3,0.4c0,0.2-0.2,0.3-1,0.8c0,0.9,0,1.7,0,2.1
			c0,2.8,0,4.6,0.1,6.6c0,0.2,0,0.3-0.1,0.3c-0.1,0.1-0.9,0.2-1.7,0.2c-0.2,0-0.2-0.1-0.3-0.2v-1.3H7.8v1.3c0,0.2-0.1,0.2-0.2,0.3
			c-0.1,0.1-0.9,0.1-1.3,0.1c-0.3,0-0.4-0.1-0.4-0.3c0,0,0,0,0-0.1c0.1-2.1,0.1-5.1,0.1-8c0-1,0-2.1-0.1-3.5c1,0.5,1.3,0.7,2.3,1.3
			H19.9z M7.8,169.9h12.5v-7.5H7.8V169.9z"/>
		<path class="st0" d="M13.8,206.1c3-0.9,5-2,6.6-3.9c1.7-1.9,2.5-4.2,2.5-6.7c0-2.7-1.1-4.9-3.2-6.2c-1.2-0.8-3.1-1.3-4.8-1.3
			c-0.3,0-0.5,0-1,0.1c0.7,1,0.9,1.5,0.9,2.3c0,2.2-1.6,6.3-3.7,9.7c-1.8,2.8-3.1,4.2-4.2,4.2c-0.5,0-0.9-0.2-1.2-0.6
			c-0.3-0.3-0.3-0.4-0.8-1.8c-0.3-0.7-0.4-1.1-1.2-2.6c-0.4-0.9-0.6-1.7-0.6-2.5c0-1.8,1-3.8,2.5-5.5c2.3-2.4,6-3.9,9.6-3.9
			c2.8,0,5.4,0.9,7.2,2.6c1.8,1.7,2.7,3.9,2.7,6.6c0,3.5-2,6.6-5.6,8.5c-1.6,0.9-3.1,1.3-5.5,1.7L13.8,206.1z M4.6,197.3
			c0,1.3,0.4,2.7,1.1,3.7c0.4,0.5,0.8,0.8,1.1,0.8c0.6,0,2-1.5,3.3-3.7c2.1-3.3,3.6-6.9,3.6-8.7c0-0.4-0.1-0.7-0.4-1.4
			C8.4,189,4.6,193,4.6,197.3z"/>
		<path class="st0" d="M10.8,223.1c0.5-0.6,0.7-0.8,1.3-1.3c0.8,0.7,1,0.9,1.8,1.7c0.1,0.1,0.1,0.2,0.1,0.2c0,0.1-0.1,0.1-0.3,0.1
			H8.6v2.4h1.9c0.5-0.6,0.7-0.8,1.2-1.3c0.8,0.7,1,0.9,1.7,1.6c0.1,0.1,0.1,0.2,0.1,0.2c0,0.1-0.1,0.1-0.3,0.1H8.6v2.6h2.2
			c0.6-0.6,0.8-0.8,1.3-1.3c0.9,0.7,1.1,0.9,1.9,1.6c0.1,0.1,0.1,0.2,0.1,0.3c0,0.1-0.1,0.1-0.3,0.1H3.2c-0.8,0-1.1,0-1.6,0.1
			l-0.2-1c0.7,0.1,1,0.2,1.8,0.2h3.6v-2.6H4.1c-0.6,0-0.8,0-1.4,0.1l-0.2-1c0.5,0.2,0.9,0.2,1.6,0.2h2.7v-2.4H3.2
			c-0.4,0-0.8,0-1.2,0.1l-0.2-1c0.6,0.2,1.1,0.3,1.4,0.3h3.5v-0.4c0-1.3,0-1.9-0.1-3.1c2.9,0.4,3.1,0.5,3.1,0.7s-0.3,0.4-1.3,0.7
			v2.2H10.8z M5,238.8v2.3c0,2.5,0,2.5,0,3.4c0,0.2-0.1,0.3-0.2,0.3c-0.2,0.1-0.9,0.1-1.3,0.1c-0.3,0-0.4-0.1-0.4-0.3
			c0.1-4.5,0.2-7.2,0.2-11.4c0-1.2,0-1.5,0-2.5c0.9,0.5,1.2,0.6,2.2,1.1h5c0.4-0.4,0.6-0.5,1-0.9c0.6,0.4,0.8,0.6,1.4,1.1
			c0.2,0.1,0.3,0.3,0.3,0.4c0,0.2-0.1,0.3-0.7,0.6v6.6c0,0.2,0,0.4,0.1,2.6c0,0.2,0,0.3,0,0.4s0,0.2,0,0.2c0,1.2-0.4,1.5-2.8,1.9
			c-0.1-0.6-0.2-0.9-0.5-1.1c-0.3-0.3-0.6-0.4-2.3-0.7v-0.4c0.8,0,0.8,0,2.1,0.1c0.8,0.1,0.8,0.1,1.3,0.1c0.2,0,0.3,0,0.3-0.2v-3.8
			H5z M10.5,232.7H5v2.4h5.5V232.7z M10.5,235.7H5v2.5h5.5V235.7z M19.8,237.4c0.1,2.6,0.1,4.3,0.1,4.9c0,0.2,0,0.4,0,0.5
			c0,1.3-0.5,1.7-2.7,2.1c-0.1-1.3-0.1-1.3-3.7-2.2l0-0.3c2.9,0.3,2.9,0.3,4.2,0.3c0.3,0,0.4-0.1,0.4-0.3v-5.3h-2.9
			c-0.6,0-1.1,0-1.5,0.1l-0.2-1c0.6,0.1,1,0.2,1.7,0.2h2.8v-3.9h-3.2c-0.7,0-0.9,0-1.3,0.1l-0.2-0.9c0.6,0.1,0.8,0.1,1.5,0.1h3.2
			v-3.8h-1.9c-0.8,0-1,0-1.5,0.1l-0.2-0.9c0.6,0.1,1.1,0.2,1.7,0.2h3.1c1-1.8,1.2-2.3,1.8-3.9h-3.6c-1.1,1.5-2.2,2.7-4,4.5l-0.3-0.3
			c2-2.6,3.5-5.5,4.4-8.3c0.5,0.2,0.9,0.3,1.1,0.4c1.3,0.4,1.5,0.5,1.5,0.7c0,0.2-0.3,0.3-1.2,0.4c-0.5,0.9-0.7,1.1-1.1,1.8H21
			c0.4-0.5,0.5-0.7,1-1.2c1,0.6,1.2,0.8,2.1,1.5c0.2,0.1,0.3,0.3,0.3,0.3c0,0.3-0.3,0.3-1.4,0.5c-0.4,0.5-0.8,0.9-1,1.2
			c-1,1.3-1.2,1.5-2,2.2H23c0.4-0.4,0.5-0.6,1-1c0.6,0.4,0.8,0.6,1.4,1c0.2,0.2,0.3,0.3,0.3,0.4c0,0.2-0.2,0.4-0.9,0.7v3.3h0.3
			c0.5-0.6,0.6-0.9,1.1-1.5c0.6,0.8,0.8,1,1.4,1.8c0,0.1,0.1,0.1,0.1,0.2c0,0.1-0.1,0.1-0.2,0.1h-2.6c0,4.1,0,4.5,0.1,6.1
			c0,0.2,0,0.3-0.1,0.3c-0.1,0.1-0.7,0.1-1.2,0.1c-0.4,0-0.6-0.1-0.6-0.3c0,0,0-0.1,0-0.1v-1.6h-3.3V237.4z M23,231.9v-3.8h-3.3v3.8
			H23z M23,236.5v-3.9h-3.3v3.9H23z"/>
		<path class="st0" d="M8.8,265.7c-2,0.7-2.9,1-3.6,1.5c-0.4,0.3-0.6,0.3-0.8,0.3c-0.3,0-0.9-0.4-1.2-0.8c-0.5-0.6-0.9-1.6-0.9-2.1
			c0-0.1,0.1-0.3,0.2-0.6c0.6,1.2,1.1,1.5,2.1,1.5c0.6,0,2.5-0.4,4.8-1c0.6-1.6,1.1-3.6,1.1-4.6c0-0.9-0.5-1.3-2.2-1.9
			c0.3-0.2,0.5-0.3,0.8-0.3c0.4,0,1.1,0.1,1.9,0.4c1.3,0.4,2,0.9,2,1.5c0,0.2-0.1,0.3-0.4,0.8c-0.4,0.6-1,1.8-1.8,3.8
			c1.2-0.3,1.8-0.3,2.4-0.3c2.4,0,3.6,1.4,3.6,4.4c0,3.6-1.4,8.2-3.1,10.1c-0.7,0.8-1.8,1.3-2.7,1.3c-0.5,0-0.7-0.2-0.8-0.6
			c-0.1-0.8-0.1-0.8-3.1-3.3l0.3-0.4c2.2,1.2,3.8,1.9,4.3,1.9c0.6,0,1.1-0.6,1.8-2.4c1-2.3,1.7-5.4,1.7-7.5c0-1.9-0.5-2.5-2-2.5
			c-0.8,0-1.3,0.1-2.9,0.6c-0.4,1-0.4,1-1.6,3.8C8.5,269.3,8,270.6,7,273c-1.1,2.6-2,4.6-2.5,5.4c-0.2,0.4-0.4,0.5-0.7,0.5
			c-0.5,0-0.8-0.7-0.8-1.9c0-0.7,0.1-0.9,0.6-1.6c0.6-0.6,1.3-1.8,2.1-3.3c1.1-2.1,1.1-2.1,2.2-4.6L8.8,265.7z M19.7,263.9
			c2.2,0.6,3.9,1.8,5.1,3.4c1.1,1.4,1.6,2.7,1.6,4c0,1-0.4,1.5-1.1,1.5c-0.2,0-0.4,0-0.6-0.2c-0.4-0.3-0.6-0.3-1.1-0.3
			c-1,0-1.1,0-3.5,0.3l-0.1-0.4c2.8-0.9,3.4-1.1,4.3-1.4c-0.1-1-0.4-1.7-0.9-2.7c-0.9-1.7-2-2.8-3.8-3.7L19.7,263.9z"/>
		<path class="st0" d="M3.6,298.2c1.3,1.3,2.1,1.6,3.5,1.6c0.7,0,1.5-0.1,2.5-0.3c0.7-1.8,1-3,1-4c0-0.9-0.4-1.5-1.8-2.2
			c0.3-0.2,0.4-0.2,0.7-0.2c0.6,0,1.4,0.3,2.2,0.6c1,0.5,1.3,0.8,1.3,1.2c0,0.2-0.1,0.4-0.3,0.7c-0.1,0.2-0.7,1.4-1.7,3.4
			c2.1-0.7,2.3-0.9,3.1-1.5c0.2-0.2,0.3-0.2,0.6-0.2c1.1,0,1.9,0.4,1.9,0.8c0,0.7-1.7,1.4-6.2,2.5c-0.3,0.6-0.7,1.7-1.5,3.4
			c-0.8,1.9-3,6.6-3.2,7.1c-0.4,0.8-0.7,1-1,1c-0.5,0-0.9-0.9-0.9-2c0-0.6,0.1-0.7,0.3-1c0.6-0.7,1-1.1,1.3-1.7
			c1.4-2,2.4-3.9,3.5-6.6c-0.6,0.1-0.9,0.1-1.3,0.1c-1,0-1.8-0.2-2.5-0.6c-0.8-0.5-1.5-1.1-2-2L3.6,298.2z M18.4,299.8
			c1.9,0.2,3.5,0.7,4.8,1.5c1.1,0.7,1.8,1.5,1.8,2.2c0,0.5-0.3,0.8-0.7,0.8c-0.2,0-0.4-0.1-0.6-0.2c-0.8-0.5-1.3-0.6-2.7-0.6
			c-2.2,0-2.9,0.6-2.9,2.5c0,0.8,0.1,2,0.6,4.8c1.7,0.5,3.2,1.2,4,1.8c0.8,0.6,1.1,1.3,1.1,2.2c0,0.6-0.2,1-0.6,1
			c-0.3,0-0.4-0.1-1-0.7c-1-1.1-1.9-1.8-3.4-2.5c0,0.2,0,0.4,0,0.5c0,1.1-0.2,1.8-0.8,2.4c-0.8,0.8-2.1,1.2-3.6,1.2
			c-2.5,0-4.3-1.2-4.3-3c0-2,2.1-3.3,5.2-3.3c0.6,0,1,0,1.7,0.1c-0.1-2.2-0.1-2.4-0.1-2.8c0-2.3,0.2-3.2,1-4c0.6-0.6,1.3-1,2.7-1.3
			c0.4-0.1,0.5-0.1,1.5-0.4c-0.8-0.8-1.6-1.3-3.6-1.9L18.4,299.8z M16.9,312c-0.9-0.3-1.5-0.3-2.4-0.3c-2.4,0-3.8,0.8-3.8,2.1
			c0,1,1.1,1.7,2.8,1.7c2.3,0,3.4-0.9,3.4-2.7V312z"/>
		<path class="st0" d="M1.4,340.7c1.2,0.2,1.8,0.2,3.7,0.2h16.5c0.8-1.1,1.1-1.4,1.9-2.4c1.4,1.1,1.9,1.5,3.2,2.7
			c0.1,0.1,0.1,0.1,0.1,0.2c0,0.1-0.1,0.2-0.3,0.2H5c-1.7,0-2.2,0-3.5,0.2L1.4,340.7z"/>
		<path class="st0" d="M8.6,381.4c0,1.7,0,1.7,0,3.1h2.9c0.6-0.7,0.8-1,1.4-1.6c0.9,0.8,1.2,1,2,1.9c0.1,0.1,0.1,0.2,0.1,0.3
			c0,0.1-0.1,0.1-0.2,0.1H8.7c0.1,3.7,0.1,3.7,0.1,5.2c0,0.3-0.3,0.4-1.2,0.4c-0.5,0-0.6,0-0.6-0.3c0.1-0.9,0.1-2.7,0.1-5.3H3.5
			c-1.1,0-2,0.1-2.5,0.2l-0.1-1c0.7,0.2,1.5,0.2,2.6,0.2H7c0-0.8,0-1.8,0-3.1H4.4v1.1c0,0.3-0.3,0.4-1.2,0.4c-0.4,0-0.5-0.1-0.5-0.2
			c0.1-3.2,0.1-3.6,0.1-4.9c0-2-0.1-5.7-0.1-6.7c1,0.5,1.2,0.6,2.1,1.2h2.3v-2.8H3.5c-1.2,0-1.5,0.1-2.1,0.3l-0.2-1.1
			c0.6,0.1,1.4,0.2,2.3,0.2h3.5c0-2.3,0-2.4-0.1-3.7c0.6,0.1,1.1,0.2,1.3,0.2c1.3,0.2,1.5,0.3,1.5,0.5c0,0.3-0.3,0.4-1.2,0.6
			c0,1.2,0,1.6,0,2.4h2.2c0.6-0.7,0.8-1,1.5-1.6c0.8,0.8,1.1,1.1,1.9,1.9c0.1,0.1,0.1,0.2,0.1,0.2c0,0.1-0.1,0.1-0.1,0.1H8.6v2.8
			h2.6c0.3-0.4,0.6-0.7,0.9-1.1c0.6,0.4,0.8,0.6,1.4,1.1c0.2,0.2,0.3,0.3,0.3,0.4c0,0.2-0.2,0.4-0.8,0.8v3.8c0,1.5,0,1.5,0.1,5.1
			c0,0.2,0,0.2-0.1,0.3c-0.1,0.1-0.8,0.1-1,0.1c-0.4,0-0.6-0.1-0.6-0.3c0,0,0-0.1,0-0.1v-0.8H8.6z M7.1,376.3c0-0.5,0-0.5,0-3.5H4.4
			v3.5H7.1z M7,376.9H4.4v3.8H7V376.9z M11.4,372.8H8.6v3.5h2.8V372.8z M11.4,376.9H8.6l0,3.8h2.7V376.9z M20.5,376h2.7
			c0.8-0.8,1.1-1.1,1.9-1.9c1,0.9,1.3,1.2,2.2,2.1c0.1,0.1,0.1,0.2,0.1,0.3c0,0.1-0.1,0.1-0.2,0.1h-6.8v6.8c0,0.5,0.1,4.5,0.1,6.7
			c0,0.4-0.2,0.5-1.3,0.5c-0.1,0-0.1,0-0.2,0c0,0-0.1,0-0.1,0c-0.4,0-0.5-0.1-0.5-0.4c0-1.2,0-1.2,0.1-3.3c0.1-1.8,0.1-1.9,0.1-3.5
			v-6.8h-2.9c-0.8,0-1.6,0.1-2.1,0.2l-0.2-1.1c0.6,0.1,1.3,0.2,2.3,0.2h2.9V368h-2.4c-1.1,0-1.5,0-2,0.2l-0.1-1
			c0.5,0.1,1.1,0.2,2.1,0.2h6.4c0.7-0.8,0.9-1.1,1.7-1.8c1.1,0.9,1.4,1.2,2.4,2.2c0.1,0.1,0.1,0.1,0.1,0.2c0,0.1-0.1,0.1-0.3,0.1h-6
			V376z"/>
		<path class="st0" d="M7,408.2c0-0.6,0-0.9-0.1-1.6c2,0.2,2.3,0.3,2.6,0.4c0.1,0.1,0.2,0.2,0.2,0.3c0,0.2,0,0.2-1,0.5v2.2h1.4
			c0.4-0.5,0.6-0.7,1.1-1.2c0.6,0.4,0.8,0.6,1.3,1c0.3,0.2,0.4,0.3,0.4,0.5c0,0.1-0.2,0.3-0.8,0.6c0,0.5,0,0.6,0,1.1
			c0,0.3,0,0.3,0,2.9c0,1.6,0,1.6,0.1,4.1c0,0.2-0.1,0.3-0.3,0.3c-0.2,0.1-0.8,0.1-1.1,0.1s-0.4-0.1-0.5-0.3v-0.9h-5v5.5
			c2.5-0.5,2.5-0.5,5.1-1.2c-0.8-1.2-1.1-1.7-2.1-2.6l0.2-0.3c2.6,1.6,3.2,2,4,2.8c0.4,0.4,0.6,0.8,0.6,1.3c0,1-0.4,1.8-0.9,1.8
			c-0.3,0-0.3-0.1-0.6-0.7c-0.3-0.6-0.5-1.1-0.9-1.8c-1.4,0.7-5.2,2.2-7.8,3.1c-0.1,0.8-0.2,1-0.4,1c-0.1,0-0.3-0.1-0.4-0.3
			c-0.1-0.1-0.2-0.4-0.3-0.9c-0.3-0.7-0.3-0.8-0.6-1.5c0.9-0.1,1.1-0.1,2.4-0.3v-14.7c-1.1,1.3-1.7,1.7-2.8,2.6l-0.3-0.4
			c1.9-2.1,2.5-3,3.7-5.2c1.3-2.3,1.9-3.5,2.4-5c2.3,0.6,3,0.9,3,1.1c0,0.2-0.2,0.3-1.1,0.4l-0.1,0.3c1.3,0.3,2.3,0.7,3.2,1.1
			c1,0.5,1.3,0.8,1.3,1.7c0,0.8-0.3,1.4-0.7,1.4c-0.2,0-0.3-0.1-0.5-0.4c-1.2-1.5-2.5-2.7-3.6-3.3c-1.2,1.8-2.4,3.4-4,5.3
			c0.6,0.3,0.8,0.4,1.5,0.8H7V408.2z M10.4,413.5v-2.9h-5v2.9H10.4z M5.3,414.1v3.5h5v-3.5H5.3z M18.8,405.3v-1.7c0-0.8,0-1.1-0.1-2
			c2.1,0.2,2.5,0.3,2.8,0.5c0.1,0.1,0.2,0.1,0.2,0.2c0,0.2-0.3,0.4-1.1,0.6v2.4h3.1c0.5-0.7,0.7-0.9,1.2-1.5c0.9,0.7,1.2,0.9,2,1.7
			c0.3,0.3,0.3,0.4,0.3,0.5c0,0.3-0.3,0.4-1.3,0.4c-1,0.9-1.4,1.1-2.4,1.7l-0.3-0.3c0.4-0.6,0.5-0.8,0.9-1.8h-8.3
			c-0.1,1-0.2,1.4-0.6,2.3c1,0.5,1.1,0.6,1.9,1.1h5.2c0.4-0.5,0.5-0.6,1-1.1c0.7,0.4,1,0.6,1.6,1.1c0.2,0.1,0.3,0.2,0.3,0.4
			c0,0.2-0.1,0.3-0.8,0.7c0,0.6,0,1.2,0,1.5c0,0.7,0,1,0.1,3.8c0,0.4-0.2,0.5-1.4,0.5c-0.3,0-0.3,0-0.4-0.2v-0.7h-5.7v3.2h6.3
			c0.4-0.6,0.5-0.8,1-1.3c0.8,0.5,1,0.6,1.7,1.1c0.3,0.2,0.4,0.4,0.4,0.5c0,0.2-0.2,0.3-0.8,0.8c0,0.8,0,1.4,0,1.9
			c0,1.4,0,2.7,0.1,5.1c0,0.2-0.1,0.3-0.2,0.3c-0.3,0.1-0.8,0.2-1.4,0.2c-0.3,0-0.4-0.1-0.4-0.3v-1.7h-6.6v1.8
			c0,0.2-0.1,0.3-0.3,0.3c-0.3,0.1-0.7,0.1-1.1,0.1c-0.3,0-0.4-0.1-0.4-0.3c0,0,0-0.1,0-0.2c0-4.1,0.1-12.5,0.1-14.9
			c0-0.5,0-0.6,0-1.6c0-0.8,0-1.5-0.1-2c-0.2,0.5-0.4,0.7-0.8,0.9c-0.2,0.1-0.4,0.2-0.5,0.2c-0.4,0-0.7-0.8-0.7-1.7
			c0-0.3,0.1-0.4,0.4-0.6c0.4-0.2,0.7-0.5,1-1.1c0.5-0.9,0.7-1.7,0.8-3h0.5c0,0.4,0,0.7,0,0.9c0,0.4,0,0.7-0.1,1.3H18.8z
			 M22.5,414.6V410h-5.7v4.6H22.5z M23.4,424.4v-5.3h-6.6v5.3H23.4z"/>
	</g>
</g>
<line class="st1" x1="78" y1="0" x2="78" y2="60"/>
</svg>
