<?xml version="1.0" encoding="utf-8"?>
<!-- Generator: Adobe Illustrator 25.2.3, SVG Export Plug-In . SVG Version: 6.00 Build 0)  -->
<svg version="1.1" id="レイヤー_1" xmlns="http://www.w3.org/2000/svg" xmlns:xlink="http://www.w3.org/1999/xlink" x="0px"
	 y="0px" viewBox="0 0 55 275" style="enable-background:new 0 0 55 275;" xml:space="preserve">
<style type="text/css">
	.st0{fill:#210100;}
	.st1{fill:none;stroke:#76544B;stroke-miterlimit:10;}
	.st2{fill:#FFFFFF;}
</style>
<g>
	<rect class="st0" width="55" height="275"/>
	<line class="st1" x1="27.7" y1="0" x2="27.7" y2="30"/>
	<g>
		<g>
			<path class="st2" d="M16.9,50.7c0-0.1-0.1-0.1-0.1-0.2c0,0,0,0,0.1,0c0.2,0,0.8,0.1,1,0.1c1.1,0.1,2,0.1,3,0.1H26
				c0.3,0,0.4,0,0.7-0.5c0.4-0.5,0.4-0.5,0.6-0.5c0.3,0,1.6,1.1,1.6,1.3c0,0.3-0.5,0.3-1.2,0.3h-1.1c-0.6,0-0.7,0.3-0.7,0.7
				c0,1.3-0.1,6.8-0.1,7.9c0,4.3,0,4.8,0,5.6c0,0.3,0.1,1.6,0.1,1.8c0,0.3,0,1.6-1.1,1.6c-0.6,0-0.6-0.4-0.6-0.7
				c0-0.2,0.1-0.9,0.1-1.1c0-0.8,0.1-1.6,0.1-2.7c0-1.6,0-1.8-0.5-1.8c-0.5,0-4.3,1.5-5,1.9c-0.2,0.1-0.9,0.9-1.1,0.9
				c-0.3,0-1.1-1.9-1.1-2.2c0-0.2,0.1-0.2,0.9-0.2c1.7,0,1.9-0.5,2-0.8c0.1-0.4,0.1-7.3,0.1-8.2c0-0.5,0-2.1,0-2.2
				c0-0.2,0-0.7-0.6-0.7c-0.2,0-1.3,0.1-1.5,0.1c-0.1,0-0.1,0-0.2-0.1L16.9,50.7z M21.6,59.1c-0.6,0-0.6,0.4-0.6,1.1
				c0,2,0,2.4,0.7,2.4c0.3,0,1.7-0.2,2.2-0.5c0.4-0.2,0.5-0.4,0.5-2.2c0-0.5,0-0.9-0.7-0.9H21.6z M21.7,51.3c-0.7,0-0.7,0.1-0.7,2.1
				c0,0.9,0,1.2,0.6,1.2H24c0.6,0,0.6-0.1,0.6-2c0-1-0.1-1.3-0.7-1.3H21.7z M23.8,58.5c0.7,0,0.7-0.1,0.7-2c0-1,0-1.3-0.6-1.3h-2.3
				c-0.6,0-0.6,0-0.6,2.6c0,0.7,0.2,0.8,0.6,0.8H23.8z M27.3,51.9c-0.1-0.1-0.1-0.1-0.1-0.2s0,0,0.1,0c0.2,0,0.8,0.1,1,0.1
				c1.8,0.1,2.4,0.1,3,0.1h1.8c0.3,0,0.7,0,1.1-0.6c0.2-0.2,0.2-0.2,0.4-0.2c0.2,0,1.8,0.8,1.8,1.2c0,0.2,0,0.2-0.3,0.4
				c-0.4,0.3-0.6,1.2-0.8,1.7c-1,3.6-1.3,4.4-2.2,6.2c-0.2,0.5-0.3,0.7-0.3,1c0,0.7,1.5,2.8,3.5,4.2c0.2,0.2,1.3,0.9,1.3,0.9
				c0,0.1-1.1,0.2-1.4,0.3c-0.2,0.1-0.5,0.2-0.7,0.5c-0.1,0.1-0.2,0.2-0.3,0.2c-0.5,0-2.3-2.9-2.9-3.8c-0.2-0.4-0.4-0.6-0.6-0.6
				c-0.2,0-0.2,0.1-0.7,0.7c-2.7,3.4-4.5,4.1-4.6,4.1c-0.1,0-0.2-0.1-0.2-0.2c0-0.1,1.3-1.3,1.5-1.5c0.3-0.3,3-3.5,3-4.7
				c0-0.4-1.1-3.4-1.3-4.1c-0.2-1.1-0.4-2.8-0.6-3.9c-0.2-0.9-0.4-1.1-0.7-1.1c0,0-0.3,0-0.4,0c-0.1,0-0.1-0.1-0.2-0.2L27.3,51.9z
				 M31.3,52.4c-1.7,0-1.8,0-1.8,0.7c0,1.5,1.7,6.6,2.3,6.6c0.5,0,2.1-5.3,2.1-6.7c0-0.7-0.6-0.7-1-0.7H31.3z"/>
			<path class="st2" d="M27.9,79c-1.9,0-3.6,3.1-3.6,5.4c0,0.7,0.1,1.1,0.3,1.6c0.2,0.4,0.2,0.6,0.2,0.8c0,0.7-0.6,0.8-0.8,0.8
				c-1,0-1.5-1.8-1.5-3.6c0-1.1,0.2-2.3,0.4-3.5c0.3-1.8,0.3-2.3,0.3-2.8c0-0.8-0.1-1.1-0.3-1.4c0-0.1-0.4-0.5-0.4-0.6
				s0.3-0.2,0.6-0.2c1,0,1.7,0.9,1.7,1.5c0,0.3-0.4,1.4-0.5,1.6c0,0.2-0.5,2.2-0.5,2.7c0,0.1,0,0.3,0.2,0.3c0.1,0,0.2-0.3,0.4-0.6
				c0.2-0.5,1.7-3.3,4-3.3c1.4,0,2.8,0.7,2.8,5.3c0,3.1-0.6,6.6-4.8,9.1c-0.9,0.5-1.5,0.7-1.6,0.7c0,0-0.1,0-0.1-0.1
				c0-0.1,0-0.1,0.5-0.5c3.6-2.7,4.3-5.3,4.3-9.8C29.7,80.4,29.3,79,27.9,79z"/>
			<path class="st2" d="M20.1,110.3c-0.3,0-1.1,0.2-1.6,0.4c-0.1,0-0.5,0.4-0.6,0.4s-0.2-0.1-0.2-0.2c-0.1-0.1-0.7-1.7-0.7-1.8
				c0-0.2,0.1-0.2,0.2-0.2s0.5,0.1,0.6,0.1c0.4,0.1,0.9,0.1,1.3,0.1c0.7,0,1-0.2,1.4-0.8c0.9-1.3,2.4-3.7,2.6-4
				c0.1-0.2,0.4-1.3,0.5-1.3c0.2,0,1.9,1.1,1.9,1.4c0,0.2-0.5,0.4-0.7,0.4c-0.6,0.2-0.7,0.3-1.9,1.8c-1.6,1.9-1.8,2.1-1.8,2.2
				c0,0.2,0.2,0.2,0.4,0.2c0.2,0,1.2-0.1,1.5-0.1c1-0.1,1.1-0.1,1.1-0.3c0-0.3-0.3-0.8-0.4-1c0,0-0.2-0.3-0.2-0.3
				c0-0.1,0-0.1,0.1-0.1c0.4,0,2.9,1.7,2.9,3.4c0,0.7-0.6,1-1,1c-0.5,0-0.7-0.5-0.7-0.8c-0.2-1.1-0.2-1.3-0.4-1.3
				c-0.2,0-1.5,0.3-1.7,0.3C22,110,22,110.2,22,111c0,0.4,0,2.6,0,3.1c0,0.6,0,2.6,0,3.1c0,0.1,0,0.6,0,1c0,0.9-0.9,1.2-1.3,1.2
				c-0.4,0-0.4-0.5-0.4-0.7c0-0.7,0.1-5.2,0.1-6.2v-1.3c0-0.1,0-0.4,0-0.6C20.5,110.4,20.3,110.3,20.1,110.3z M20.1,112.6
				c0,0.2-0.5,0.8-0.6,0.9c-0.1,0.3-0.6,1.4-0.7,1.7c-0.7,1.7-1.5,2.6-1.6,2.6c-0.1,0-0.1,0-0.1-0.1s0.2-0.5,0.2-0.7
				c0.3-1.2,0.7-3.4,0.7-4.5c0-0.7,0-0.8,0.2-0.8c0.1,0,0.2,0,0.2,0C19.1,112,20.1,112.3,20.1,112.6z M23.2,100.6
				c0,0.1-0.1,0.2-0.6,0.5c-0.1,0.1-2.4,3.3-2.4,3.5c0,0.1,0.1,0.2,0.5,0.7c0.2,0.3,0.3,0.7,0.3,1c0,0.7-0.5,1-0.8,1
				c-0.7,0-1-0.9-1.1-1.2c-0.3-0.7-0.7-1.4-1.3-2c-0.1,0-0.5-0.4-0.5-0.5s0.2-0.1,0.2-0.1c0.3,0,0.6,0.1,1.1,0.3
				c0.2,0.1,0.8,0.4,0.9,0.4c0.5,0,1.2-3,1.4-4.1c0.1-0.7,0.2-0.8,0.4-0.7C21.4,99.5,23.2,100.1,23.2,100.6z M25.6,114.9
				c0,0.5-0.4,1-0.9,1c-0.4,0-0.5-0.2-0.6-0.7c-0.3-1-0.8-2-1.3-2.8c0-0.1-0.4-0.6-0.4-0.7s0-0.1,0.1-0.1s0.2,0,0.4,0.2
				C24.8,113,25.6,114,25.6,114.9z M23.5,117.6c-0.1-0.1-0.1-0.1-0.1-0.2s0.1,0,0.1,0c0.4,0,2.6,0.2,3.1,0.2c0.4,0,0.4-0.2,0.5-0.4
				c0.1-1.2,0.2-10.3,0.2-12.2c0-0.9,0-3.4-0.1-4.1c0-0.1-0.1-0.7-0.1-0.8c0-0.1,0-0.1,0.1-0.1c0.2,0,0.8,0.4,1,0.5
				c0.5,0.3,0.6,0.3,1.1,0.3h3.3c0.4,0,0.5-0.1,0.6-0.3c0.4-0.5,0.4-0.6,0.6-0.6c0.1,0,1.7,0.7,1.7,1.2c0,0.2-0.1,0.2-0.4,0.6
				c-0.2,0.2-0.2,0.9-0.2,1.6c0,0.5,0,2.8,0,3.4c0,1.5,0,8.7,0,10.4c0,0.2,0,0.4,0.1,0.4c0.2,0,0.8-1,1-1c0.3,0,1.4,1.2,1.4,1.6
				c0,0.3-0.1,0.3-0.9,0.3H27c-0.7,0-1.7,0-2.4,0.1c-0.1,0-0.4,0-0.5,0c-0.1,0-0.1,0-0.2-0.1L23.5,117.6z M32.7,111.9
				c0.7,0,0.7-0.4,0.7-0.9v-4c0-0.2,0-0.5-0.6-0.5h-3.4c-0.2,0-0.4,0-0.5,0.2c-0.1,0.2-0.1,2-0.1,2.4c0,0.4,0,2.4,0.1,2.6
				c0.1,0.2,0.4,0.2,0.5,0.2H32.7z M32.7,117.6c0.6,0,0.6-0.1,0.6-2.4c0-0.4,0-2.4-0.1-2.5c-0.2-0.2-0.4-0.2-0.6-0.2h-3.4
				c-0.1,0-0.4,0-0.6,0.2c-0.1,0.1-0.1,2.1-0.1,2.4c0,0.4,0,2.1,0.1,2.2c0.1,0.2,0.4,0.2,0.6,0.2H32.7z M32.7,105.9
				c0.6,0,0.6-0.4,0.6-0.7c0-0.3,0-3.5,0-3.6c-0.1-0.3-0.2-0.4-0.6-0.4h-3.3c-0.6,0-0.7,0.3-0.7,0.7v3.5c0,0.3,0.2,0.5,0.6,0.5H32.7
				z"/>
			<path class="st2" d="M26.5,127.7c-0.3,0-1.2,0.8-1.6,1.1c-0.3,0.3-1.1,1-1.7,1c-0.8,0-1.4-1.6-1.4-1.6c0-0.1,0-0.2,0.2-0.2
				c0.1,0,0.6,0.1,0.7,0.1c0.7,0,1,0,2.3-0.9c1.1-0.7,1.8-0.7,2.1-0.7c1.5,0,1.8,1,1.8,1.3c0,0.5-0.2,0.7-1.3,1.8
				c-1.6,1.5-3.2,4.4-3.2,4.5c0,0.1,0.2,0.1,0.2,0.1c0.3,0,1.5,0,1.8,0c1.4,0.1,3,0.5,4.2,0.9c0.2,0.1,0.3,0.1,0.4,0.1
				c0.3,0,0.4-1.8,0.4-2c0-0.2-0.1-1.1-0.1-1.2c0-0.1,0.2-0.1,0.2-0.1c0.1,0,2,0.4,2,1.2c0,0.2-0.4,0.7-0.5,0.9c0,0-0.3,1.8-0.3,1.9
				c0,0.3,0.1,0.4,0.5,0.5c0.9,0.5,2.9,1.5,2.9,2.6c0,0.6-0.5,0.8-0.8,0.8c-0.4,0-0.7-0.2-2.2-1.5c0,0-0.7-0.6-0.9-0.6
				c-0.2,0-0.2,0.2-0.3,0.3c-0.6,1.1-1.7,2.7-4.3,4.1c-1.2,0.6-2.2,0.9-2.4,0.9c0,0-0.2,0-0.2-0.1c0,0,0.4-0.3,0.4-0.3
				c2.2-1.5,3.3-2.4,4.5-4.4c0.3-0.5,0.7-1,0.7-1.3c0-0.2,0-0.3-1.2-0.9c-1.5-0.7-2.9-1-4-1c-1.4,0-1.4,0.1-1.8,0.9
				c-1.9,4-2.3,4.8-3.7,4.8c-1.1,0-1.5-1.2-1.5-1.8c0-1.9,2-3.5,4.3-4.4c0.3-0.1,0.3-0.1,0.6-0.4c0.5-0.8,3.3-5,3.4-5.2
				c0.1-0.2,0.3-0.8,0.3-1C26.7,127.9,26.6,127.7,26.5,127.7z M19.1,138.3c0,0.4,0.2,0.6,0.6,0.6c1.2,0,2.6-3.2,2.6-3.3
				c0-0.1,0-0.1-0.1-0.1C21.4,135.5,19.1,137,19.1,138.3z"/>
			<path class="st2" d="M21.7,162.8c0.4,0,0.6-0.4,1.1-1.7c0.1-0.4,0.2-0.5,0.3-0.5s0.1,0.2,0.1,0.3c0,0.2-0.5,2.8-0.5,3.3
				c0,0.4,0.3,1,0.4,1.1c0.2,0.3,0.3,0.7,0.3,1c0,0.4-0.4,0.7-0.7,0.7c-1.4,0-2.4-3.7-2.4-5.9c0-1.4,0.2-2,0.9-4.8
				c0.4-1.3,0.4-1.9,0.4-2.3c0-0.7-0.1-1.3-0.2-1.6c0-0.1-0.1-0.3-0.1-0.4s0.1-0.1,0.2-0.1c1,0,1.9,2,1.9,2.8c0,0.2,0,0.3-0.4,1
				c-0.2,0.5-1.7,3.7-1.7,5.7C21.1,162.1,21.3,162.8,21.7,162.8z M34.5,165c0,0.9-0.7,1.1-3.7,1.1c-2.2,0-3-0.5-3.4-1
				c-0.1-0.1-0.7-0.7-0.7-1.1c0,0,0-0.2,0.1-0.2c0.1,0,0.4,0.3,0.5,0.3c0.6,0.3,1.5,0.4,2.4,0.4c0.6,0,1.4,0,1.9-0.1
				c0.3,0,1.8-0.2,1.9-0.2C34.3,164.2,34.5,164.7,34.5,165z M33.4,154.3c0,1.1-2.4,1.1-2.7,1.1c-2.5,0-3.8-1.3-3.8-1.6
				c0,0,0-0.1,0.2-0.1c0.1,0,0.3,0.1,0.6,0.2c0.5,0.1,1.1,0.1,1.5,0.1c1.1,0,2.1-0.2,2.4-0.3c0.7-0.2,0.7-0.3,0.9-0.2
				C32.9,153.4,33.4,153.8,33.4,154.3z"/>
			<path class="st2" d="M18,182.1c0-0.2,0.1-0.4,0.3-0.4c0.2,0,1.1,0.3,1.3,0.3c0.6,0,0.8-0.1,3.5-1.2c1.1-0.4,4.1-1.7,6.2-1.7
				c3.2,0,5.6,2.5,5.6,5.4c0,4-4.1,6.4-8.8,6.4c-0.2,0-0.5,0-0.5-0.3c0-0.2,0.1-0.2,0.9-0.3c5.4-0.8,6.8-4.6,6.8-6.6
				c0-2.6-2.1-3.7-3.6-3.7c-2.1,0-5.2,1.7-7.2,3c-1.1,0.8-1.4,0.9-2,0.9C19.2,183.9,18,182.7,18,182.1z"/>
			<path class="st2" d="M22.1,205.9c0,0.2,0,0.2-0.3,0.9c-0.3,0.9-0.5,1.7-0.5,2.8c0,2.2,1.1,3.8,1.8,3.8c0.4,0,0.5-0.1,1.1-1.2
				c0.1-0.2,0.5-0.7,0.7-0.7c0.1,0,0.1,0.1,0.1,0.2s0,0.4-0.1,0.4c-0.2,1-0.3,1.2-0.3,1.7c0,0.4,0.1,0.7,0.1,0.9
				c0.1,0.2,0.2,0.6,0.2,0.7c0,0.4-0.5,0.7-0.8,0.7c-1.4,0-4.2-2.3-4.2-6.5c0-0.6,0.3-3.3,0.3-3.9c0-0.4-0.1-1-0.2-1.3
				c-0.2-0.5-0.2-0.6-0.2-0.7c0-0.1,0.1-0.1,0.1-0.1C21.1,203.5,22.1,205.3,22.1,205.9z M32.8,206.4c1.1,0.9,2,2.5,2,4.2
				c0,0.4,0,1.5-1.1,1.5c-1.1,0-1.1-1.2-1.1-1.5c0-1.8,0-2.8-1.2-3.9c-0.2-0.2-1.1-0.9-1.1-1c0-0.1,0.1-0.1,0.2-0.1
				C30.6,205.5,31.9,205.6,32.8,206.4z"/>
			<path class="st2" d="M20,230.1c0.9,0,1.3-0.1,4.3-0.9c2-0.6,7-2,8.4-2c0.8,0,1.8,0.3,1.8,1.1c0,0.6-0.6,0.8-0.9,0.8
				c-0.3,0-1.5-0.2-1.8-0.2c-2.8,0-5.9,2.6-5.9,8.2c0,3.7,1.4,3.9,2.7,3.9c0.3,0,1.9-0.1,2.1-0.1c0.7,0,1.1,0.3,1.1,0.8
				c0,1.2-2.4,1.2-2.6,1.2c-4.5,0-4.5-3.7-4.5-4.7c0-1,0-5.6,3.2-8.5c0.1-0.1,0.5-0.4,0.5-0.5s-0.1,0-0.1,0c-1.3,0-5.8,2-6.5,2.4
				c-0.3,0.2-0.5,0.3-0.8,0.3c-1.1,0-2.1-1.5-1.9-1.8C19.2,229.9,19.9,230.1,20,230.1z"/>
		</g>
	</g>
</g>
</svg>
