<?xml version="1.0" encoding="utf-8"?>
<!-- Generator: Adobe Illustrator 25.2.3, SVG Export Plug-In . SVG Version: 6.00 Build 0)  -->
<svg version="1.1" id="レイヤー_1" xmlns="http://www.w3.org/2000/svg" xmlns:xlink="http://www.w3.org/1999/xlink" x="0px"
	 y="0px" viewBox="0 0 112.2 416.5" style="enable-background:new 0 0 112.2 416.5;" xml:space="preserve">
<style type="text/css">
	.st0{fill:#200701;}
	.st1{fill:none;stroke:#76544B;stroke-miterlimit:10;}
</style>
<g>
	<path class="st0" d="M85.4,108c0,0.6,0,0.6,0,2.2c0,0.1,0,0.1,0,0.9h8c0.8-1,1-1.2,1.8-2.2c1.2,1,1.5,1.3,2.6,2.4
		c0.1,0.1,0.1,0.2,0.1,0.3c0,0.1-0.1,0.1-0.2,0.1H85.4c0.1,3.8,0.1,3.8,0.1,5.2c0,0.2-0.1,0.3-0.2,0.4c-0.2,0-1,0.1-1.6,0.1
		c-0.3,0-0.4-0.1-0.4-0.3c0-1,0.1-2.7,0.1-5.3h-8.4c-1.2,0-2.1,0.1-2.7,0.2l-0.1-1.1c0.9,0.2,1.7,0.3,2.9,0.3h8.4c0-1.2,0-1.2,0-3.2
		h-5.7v1c0,0.4-0.3,0.4-1.6,0.4c-0.3,0-0.5-0.1-0.5-0.3c0.1-2.2,0.1-3.3,0.1-5.8c0-2.7,0-3.9-0.1-5.7c0.9,0.5,1.2,0.7,2.1,1.2h5.6
		v-3h-8.4c-0.9,0-1.5,0.1-2.1,0.2l-0.1-1.1c0.7,0.2,1.2,0.2,2.2,0.2h8.4c0-2.3,0-2.3-0.2-3.6c0.6,0.1,1.1,0.1,1.5,0.1
		c1.4,0.1,1.8,0.2,1.8,0.5c0,0.3-0.3,0.4-1.1,0.6c0,1.2,0,1.4,0,2.4h7.6c0.7-0.9,0.9-1.1,1.6-2c1.2,1,1.5,1.2,2.6,2.2
		c0.1,0.1,0.1,0.2,0.1,0.2c0,0.1-0.1,0.1-0.3,0.1H85.4v3h5.8c0.5-0.5,0.6-0.7,1.1-1.2c0.7,0.5,1,0.7,1.7,1.2
		c0.2,0.2,0.3,0.3,0.3,0.4c0,0.2-0.2,0.4-1.1,0.8c0,0.8,0,1.3,0,1.7c0,2.7,0,4.8,0.1,6.8c0,0.2,0,0.3-0.1,0.3
		c-0.2,0.1-0.7,0.2-1.5,0.2c-0.3,0-0.4-0.1-0.4-0.3V108H85.4z M83.5,101.9c0-0.3,0-0.9,0-2.2h-5.7v3.4h5.7V101.9z M83.5,103.7h-5.7
		v3.7h5.7V103.7z M91.4,99.6h-6v3.4h6V99.6z M91.4,103.7h-6v3.7h6V103.7z"/>
	<path class="st0" d="M94,139.4l1.6-1.7c1,0.9,1.3,1.1,2.2,2c0.1,0.1,0.1,0.1,0.1,0.2c0,0.1-0.1,0.1-0.3,0.1h-3v6.7
		c0,2.5,0,2.5,0,4.4c-0.1,1.8-0.5,2.3-3,2.7c-0.3-1.4-0.9-1.7-3.8-2l0-0.4c2.7,0.1,2.9,0.1,4.5,0.1c0.3,0,0.4-0.1,0.4-0.4V140H80.7
		c0.1,0.3,0.1,0.4,0.1,0.6c0,0.9-0.4,1.8-0.9,1.8c-0.2,0-0.3-0.1-0.6-1c-0.3-1.1-0.8-2.1-1.7-3.3c0,3.2,0.1,12.7,0.1,15.1
		c0,0.4-0.2,0.4-1.3,0.4c-0.4,0-0.5-0.1-0.6-0.3c0.1-3.9,0.1-3.9,0.1-5.2c0-0.5,0-1.6,0-3.3c0-1.6,0-2,0-2.4l0.1-4.1
		c-1.3,4.1-2.3,6-4.5,8.8l-0.3-0.3c1.4-2.5,2.2-4.3,3.2-7.4c0.7-2,0.9-2.8,1.3-4.8h-1.6c-0.8,0-1.2,0-2,0.1l-0.1-1
		c0.8,0.2,1.3,0.2,2.2,0.2h1.7V131c0-1.7,0-2-0.1-2.9c2.5,0.3,2.5,0.3,2.8,0.4c0.2,0.1,0.3,0.2,0.3,0.3c0,0.3-0.3,0.4-1.2,0.7v4.7
		h0.8c0.6-0.7,0.7-0.9,1.3-1.6c0.9,0.8,1.1,1,2,1.8c0.1,0.1,0.1,0.1,0.1,0.2c0,0.1-0.1,0.2-0.3,0.2h-3.9v2.7c2,1.3,2,1.4,2.5,1.9H94
		z M83.4,132.5c-1.4,0-1.7,0-2.4,0.2l-0.2-1.1c0.7,0.2,1.4,0.3,2.6,0.3h3.4c0.1-0.8,0.2-1.4,0.2-2.3c0-0.4,0-0.8-0.1-1.5
		c2.9,0.4,3.1,0.4,3.1,0.7c0,0.2-0.3,0.4-1.2,0.6c-0.1,1.3-0.1,1.7-0.3,2.5h4L94,130c1.1,0.9,1.5,1.2,2.6,2.2
		c0.1,0.1,0.1,0.1,0.1,0.2c0,0.1-0.1,0.2-0.3,0.2h-8c-0.1,0.5-0.2,0.7-0.4,1.3c1.5,0.4,3.8,1.1,4.8,1.6c1.3,0.5,1.8,1.1,1.8,2.2
		c0,0.6-0.2,1-0.4,1c-0.2,0-0.3-0.1-0.6-0.4c-1.5-1.3-2.7-2.2-5.8-3.9c-0.5,1-1.1,1.6-2.1,2.4c-1.3,1-2.4,1.6-4.6,2.3l-0.2-0.4
		c2.1-1,3.1-1.8,4.1-3c0.8-0.9,1.2-1.8,1.5-2.9H83.4z M87.9,142.9c0.4-0.5,0.6-0.7,1.1-1.1c0.6,0.5,0.8,0.6,1.4,1
		c0.2,0.2,0.3,0.3,0.3,0.4c0,0.2-0.2,0.4-0.7,0.6c0,3.3,0,3.3,0,5.2v0.1c0,0.2,0,0.2-0.2,0.3c-0.2,0.1-0.8,0.1-1.3,0.1
		c-0.3,0-0.4-0.1-0.4-0.3v-1h-4.5v1.8c0,0.2,0,0.2-0.2,0.3c-0.1,0.1-0.8,0.1-1.2,0.1c-0.3,0-0.4-0.1-0.4-0.3
		c0.1-2.7,0.1-2.9,0.1-3.8c0-2.4,0-3.6-0.1-4.5c0.9,0.5,1.2,0.6,2.1,1.1H87.9z M83.7,147.5h4.5v-4h-4.5V147.5z"/>
	<path class="st0" d="M89.8,166.6c0.6-0.7,0.7-0.9,1.3-1.5c1.1,0.8,1.5,1,2.5,1.8c0.3,0.3,0.5,0.4,0.5,0.5c0,0.1-0.1,0.2-0.2,0.3
		c-0.2,0.1-0.2,0.1-1.8,0.3c-0.5,0.4-0.9,0.7-1.2,0.9c-2.7,2.1-3.2,2.4-4.9,3.5c0.1,0,0.1,0,0.2,0c0.4,0.1,0.6,0.2,0.6,0.4
		c0,0.2-0.1,0.3-1.1,0.8v2.9h7.1c0.8-1,1.1-1.3,2-2.2c1.3,1,1.6,1.3,2.8,2.4c0.1,0.1,0.1,0.2,0.1,0.3c0,0.1-0.1,0.3-0.3,0.3H85.7
		v6.9l0,2.9c0,0.2,0,0.4,0,0.7c0,1-0.3,1.4-1.2,1.9c-0.4,0.3-0.9,0.4-2.3,0.8c-0.4-1.1-0.6-1.5-1.3-1.7c-0.6-0.3-1.3-0.4-4.2-0.7
		l0.1-0.5l6.4,0.3c0.4,0,0.4-0.1,0.4-0.6v-9.9h-8.8c-1,0-1.7,0-2.8,0.1l-0.3-1c1.3,0.2,1.8,0.3,3.1,0.3h8.8v-0.5
		c0-2.7,0-2.7-0.2-4.1c0.9,0.1,1.3,0.3,1.8,0.4c1.7-1.6,3.4-3.4,4.5-5H77.3c-1,0-1.9,0.1-2.6,0.1l-0.3-1.1c1,0.2,2,0.3,3.1,0.3H89.8
		z"/>
	<path class="st0" d="M74.2,207.7c0.4,0.4,0.7,0.5,1.3,0.5c0.8,0,1.5-0.1,7.8-1.7c1-0.3,2.6-0.6,4.5-1c2-0.4,2.9-0.6,3.8-0.9
		c0.6-0.2,0.8-0.2,1-0.2c0.3,0,1,0.3,1.5,0.6c0.6,0.3,0.8,0.7,0.8,1.1c0,0.4-0.3,0.7-0.9,0.7c-0.1,0-0.3,0-0.5,0
		c-0.3-0.1-0.5-0.1-0.8-0.1c-4.8,0-9.4,4.6-9.4,9.4c0,2.5,1.3,4.5,3.7,5.5c0.9,0.4,2,0.6,2.8,0.7c0.6,0,0.8,0.1,1.2,0.4
		c0.5,0.5,0.8,1,0.8,1.3c0,0.4-0.4,0.8-1,0.8c-1.6,0-4.1-0.9-5.7-2c-2.1-1.5-3.2-3.7-3.2-6.3c0-2.3,1.1-4.8,3.1-6.8
		c1.1-1.2,2.2-2,4.6-3.2c-3.5,0.4-9.9,2.3-12.5,3.8c-0.6,0.3-0.8,0.4-1.1,0.4c-0.7,0-1.5-0.6-2.2-1.7c-0.4-0.7-0.7-1.4-0.7-1.9
		c0-0.2,0.1-0.4,0.3-0.8C73.5,206.9,73.7,207.3,74.2,207.7z M90.8,210.2c1,0.6,1.8,1.1,2.5,1.7c1,0.9,1.4,1.6,1.4,2.2
		s-0.4,1.2-0.9,1.2c-0.4,0-0.4,0-1.2-1.8c-0.5-1-1.4-2.2-2.2-3L90.8,210.2z M93.7,208.6c1,0.4,1.8,1,2.7,1.6
		c1.1,0.8,1.4,1.4,1.4,2.2c0,0.7-0.3,1.1-0.7,1.1c-0.3,0-0.4-0.1-0.6-0.5c-1-1.8-1.5-2.5-3.1-4L93.7,208.6z"/>
	<path class="st0" d="M73.7,245c1.1,1,2.1,1.4,3.3,1.4c0.8,0,1.5-0.1,2.8-0.4c0-0.8,0-2.1,0-2.6c0-2.9-0.3-3.5-2.3-3.9
		c0.4-0.3,0.6-0.4,1.2-0.4c1,0,2.1,0.3,2.9,0.7c0.4,0.2,0.6,0.6,0.6,0.9c0,0.2,0,0.2-0.3,0.7c-0.4,0.8-0.7,2.1-0.9,4.2
		c1.5-0.5,2.2-0.9,3.1-1.6c0.2-0.2,0.5-0.3,0.7-0.3c0.3,0,0.7,0.1,1.1,0.3c0.3,0.1,0.5,0.4,0.5,0.6c0,0.4-0.3,0.6-1.3,1.1
		c-1.3,0.6-2.6,1-4.1,1.4c0,0.4,0,0.4-0.1,1.4c0,0.8-0.1,2-0.1,3.7c3.1-1.1,5.2-1.5,7.4-1.5c3.8,0,6.2,1.8,6.2,4.8
		c0,2.7-2.1,4.9-4.8,4.9c-2.6,0-4.4-1.7-5.4-5l0.4-0.1c0.7,1.3,1.1,1.9,1.7,2.4c0.8,0.7,1.7,1.1,2.7,1.1c2,0,3.5-1.6,3.5-3.8
		c0-2.2-1.5-3.3-4.1-3.3c-2.2,0-4.9,0.7-7.6,2c0,3,0,3,0,3.8c0,0.5,0,0.8,0,1.1c0,0.7-0.1,1.2-0.4,1.7c-0.3,0.6-0.9,1-1.3,1
		c-0.4,0-0.4,0-2.1-1.5c-0.6-0.5-1.4-1-1.9-1.3c-0.6-0.3-0.9-0.7-0.9-1.2c0-0.4,0.3-1,0.8-1.6c1-1.1,2-1.7,4.5-2.9
		c0-0.4,0-0.8,0.1-1.3c0.1-1.3,0.1-1.3,0.1-4c-0.9,0.1-1.5,0.2-2.2,0.2c-1.8,0-3-0.6-4.2-2.3L73.7,245z M76.8,256.4
		c-0.6,0.6-0.8,1-0.8,1.3c0,0.3,0.4,0.6,1.1,0.9c0.6,0.3,1.4,0.4,1.7,0.4c0.3,0,0.5-0.2,0.5-0.7c0.1-2.5,0.2-3.9,0.2-4.1
		C78.2,255.1,77.5,255.6,76.8,256.4z M89.3,242.2c1.7,0.1,3,0.4,4.1,1c1.2,0.7,2,1.6,2,2.5c0,0.5-0.3,0.8-0.8,0.8
		c-0.1,0-0.2,0-0.4-0.1c-0.4-0.1-0.5-0.1-0.6-0.1c-0.4,0-1.1,0.1-3.4,0.8l-0.2-0.3c1.7-0.9,2.7-1.5,3.1-1.8
		c-0.4-0.8-0.9-1.2-1.8-1.7c-0.6-0.3-1-0.5-1.9-0.7L89.3,242.2z"/>
	<path class="st0" d="M71.8,285.1c0.5,0.1,1.7,0.2,2,0.2h2c0.4-0.5,0.5-0.6,0.9-1.1c0.8,0.5,1,0.6,1.8,1.1c0.1,0.1,0.2,0.2,0.2,0.3
		c0,0.2-0.2,0.4-0.9,0.9v7c0.5,1,0.9,1.5,1.9,2.1c1.3,0.8,2.9,1.1,5.6,1.1c3.5,0,9.1-0.3,12.9-0.6v0.4c-1.2,0.4-1.5,0.7-1.8,2
		c-1.7,0.1-3.9,0.1-7.1,0.1c-3.4,0-4.8-0.1-6.2-0.3c-2.3-0.4-3.6-1.1-4.7-2.5c-0.4-0.6-0.8-1.1-1.4-2.4c-0.7,1.1-2.2,3.1-3.3,4.2
		c0.1,0.3,0.1,0.5,0.1,0.6c0,0.3-0.2,0.6-0.4,0.6c-0.2,0-0.8-0.9-1.7-2.9c0.7-0.3,1.1-0.5,2.3-1.2c1.2-0.7,1.5-0.9,2-1.4v-7.3h-2.1
		c-0.6,0-0.9,0-1.8,0.1L71.8,285.1z M72.9,274.2c1.6,1,2.4,1.5,3.8,2.7c0.8,0.7,1.1,1.2,1.1,1.8c0,0.3-0.3,1.2-0.5,1.7
		c-0.2,0.4-0.4,0.6-0.6,0.6c-0.2,0-0.3-0.1-0.5-0.5c-0.7-2-1.9-4-3.6-5.9L72.9,274.2z M82.7,277.1c0-0.1,0-1.1-0.1-3.3
		c1,0.5,1.3,0.7,2.2,1.3H92c0.4-0.5,0.5-0.7,1-1.2c0.6,0.4,1.2,0.8,1.7,1.1c0.1,0.1,0.2,0.2,0.2,0.3c0,0.2-0.3,0.4-0.9,0.9v7h0.4
		c0.3-0.5,0.5-0.7,0.9-1.2c0.8,0.5,1.1,0.6,1.8,1.2c0.1,0.1,0.1,0.2,0.1,0.3c0,0.2-0.1,0.3-0.9,1v6.9c0,0.1,0,0.4,0,0.8
		c0,0.3,0,0.6,0,1.1c-0.1,0.7-0.2,1-0.8,1.3c-0.5,0.3-1.1,0.4-2.2,0.5c-0.1-0.7-0.2-0.9-0.4-1.1c-0.3-0.2-0.3-0.2-2.1-0.6V293
		c1.3,0.1,1.7,0.1,3.2,0.2c0.3,0,0.4-0.1,0.4-0.5V284H82.2v8.4c0,0.2,0,0.2,0.1,2c0,0.3-0.2,0.4-1.1,0.4c-0.1,0-0.3,0-0.5,0.1
		c0,0-0.1,0-0.1,0c-0.3,0-0.4-0.1-0.4-0.5c0-0.5,0-0.9,0-1l0.1-3.5c0-6.2,0-6.3-0.1-7.7c1,0.5,1.2,0.6,2.1,1.2h0.4V277.1z
		 M87.2,279.3c0-0.3,0-0.7-0.1-1.9c1,0.5,1.2,0.7,2.2,1.3h2.9v-2.9h-7.8v7.5h2.9V279.3z M90.2,286.2c0.4-0.4,0.5-0.6,0.9-1
		c0.7,0.4,0.9,0.6,1.6,1.1c0.1,0.1,0.2,0.2,0.2,0.3c0,0.1-0.1,0.2-0.7,0.7c0,0.3,0,0.4,0,0.6c0,0.9,0,1.9,0.1,3.7c0,0.1,0,0.1,0,0.1
		c0,0.1-0.1,0.3-0.2,0.3c-0.2,0.1-0.8,0.2-1.1,0.2c-0.3,0-0.4-0.1-0.4-0.4v-0.6h-4.3v1.5c0,0.1,0,0.1,0,0.1c0,0.1,0,0.3-0.1,0.3
		c-0.1,0.1-0.8,0.2-1.3,0.2c-0.2,0-0.3-0.1-0.4-0.3c0.1-1.1,0.1-1.4,0.1-2.6c0-1.8,0-4.7-0.1-5.2c0.9,0.4,1.2,0.5,2,1.1H90.2z
		 M86.1,290.5h4.3v-3.7h-4.3V290.5z M92.2,283.3v-4h-3.3v4H92.2z"/>
	<path class="st0" d="M76.8,325.3c-0.1,0.6-0.1,0.9-0.1,1.3c0,3.3,2.1,4.9,6.6,4.9c2.2,0,4.5-0.4,6.2-1c0.1-0.1,0.3-0.1,0.5-0.1
		c0.4,0,1.1,0.2,1.5,0.6c0.4,0.3,0.6,0.6,0.6,1c0,0.4-0.3,0.7-0.9,0.9c-1.3,0.3-4,0.6-6.5,0.6c-3.1,0-5.1-0.4-6.5-1.3
		c-1.4-0.9-2.3-2.7-2.3-4.4c0-0.7,0.1-1.4,0.4-2.4L76.8,325.3z M77.7,314.2c1.4,1,2.4,1.2,4.3,1.2c1.8,0,4.2-0.3,5.8-0.8
		c0.2-0.1,0.4-0.1,0.5-0.1c0.7,0,1.7,0.8,1.7,1.5c0,0.5-0.2,0.6-2,1c-1.5,0.3-3,0.9-7.5,2.8l-0.2-0.4c0.8-0.5,1.3-0.8,2-1.2l1.8-1
		l0.5-0.3c-0.6,0.1-1.6,0.1-2.1,0.1c-1,0-2.3-0.3-3.2-0.8c-0.7-0.4-1.2-0.8-2-1.6L77.7,314.2z M90.5,311.8c1,0.6,1.8,1.1,2.5,1.7
		c1,0.9,1.4,1.6,1.4,2.2s-0.4,1.2-0.9,1.2c-0.4,0-0.4,0-1.3-1.8c-0.5-1-1.4-2.2-2.1-3L90.5,311.8z M93.4,310.1c1,0.4,1.8,1,2.7,1.6
		c1.1,0.8,1.5,1.4,1.5,2.2c0,0.7-0.3,1.1-0.7,1.1c-0.3,0-0.4-0.1-0.6-0.5c-1-1.8-1.5-2.5-3.1-4L93.4,310.1z"/>
	<path class="st0" d="M94.1,364.9c-2.7,3.6-6.4,5.8-9.8,5.8c-2.1,0-3.8-0.9-4.6-2.4c-0.6-1-0.8-2.4-0.8-4.7c0-1.5,0.1-4.2,0.2-6.7
		c0.2-3,0.2-3.8,0.2-4.8c0-2.4-0.3-2.9-2.3-3.7c0.3-0.2,0.5-0.3,0.8-0.3c0.6,0,1.7,0.3,2.5,0.6c1.1,0.5,1.6,1.1,1.6,1.7
		c0,0.2,0,0.4-0.3,1c-0.5,1.7-1.5,10.2-1.5,13.4c0,1.7,0.3,2.7,1.1,3.4c0.6,0.5,1.5,0.8,2.5,0.8c1.9,0,4.3-0.7,6.4-1.8
		c1.3-0.7,2.1-1.3,3.6-2.5L94.1,364.9z"/>
	<path class="st0" d="M19.4,213.2c-2,4.7-2.6,6.4-2.6,7.5c0,0.2,0,0.2,0.2,1c0,0.1,0.1,0.3,0.1,0.4c0,0.4-0.3,0.7-0.6,0.7
		c-0.8,0-2.2-1.1-3.1-2.4c-1-1.4-1.6-3.4-1.9-5.6c-0.2-1.2-0.2-1.9-0.2-4.9c0-2.6-0.2-3.2-1.4-4.8c0.1,0,0.1,0,0.3,0
		c0.4,0,1.3,0.5,2.1,1.4c0.8,0.8,1.3,1.6,1.3,2.2c0,0.2,0,0.4-0.1,0.7c-0.3,1.7-0.5,3-0.5,4.2c0,1.5,0.2,2.9,0.6,4.1
		s0.8,1.7,1.5,2.2c0.3-0.4,0.3-0.4,0.9-1.5c0.9-1.5,0.9-1.5,2.4-3.9c0.4-0.7,0.4-0.7,0.8-1.3L19.4,213.2z M25.3,208.2
		c3.5,0.8,6.3,4.5,6.3,8.4c0,1.3-0.6,2.2-1.4,2.2c-0.3,0-0.4-0.1-0.8-0.3c-0.4-0.3-0.9-0.3-2.1-0.3c-0.6,0-1.2,0-2.1,0.1l-0.1-0.4
		c2.3-0.6,3.5-1,3.8-1.1c0.6-0.2,0.6-0.3,0.6-0.8c0-1-0.4-2.7-0.9-3.7c-0.8-1.6-1.9-2.8-3.5-3.7L25.3,208.2z"/>
	<path class="st0" d="M9.6,244.4c1.1,1.2,1.9,1.5,3.1,1.5c1.1,0,2.3-0.2,3.6-0.5c0.6-1.8,1-3.8,1-4.7c0-0.9-0.4-1.2-2-1.8
		c0.4-0.2,0.5-0.3,0.9-0.3c0.6,0,1.6,0.2,2.4,0.5c0.8,0.3,1.3,0.7,1.3,1.1c0,0.2,0,0.2-0.3,0.7c-0.4,0.5-1,2-1.7,4
		c1.6-0.6,2.6-1.1,3.2-1.7c0.4-0.4,0.6-0.5,0.8-0.5c0.4,0,1,0.1,1.5,0.3c0.3,0.1,0.4,0.3,0.4,0.5c0,0.5-0.4,0.8-1.6,1.4
		c-1.3,0.6-3.1,1.2-4.9,1.6c-0.3,1-0.3,1-1.2,3.6c-0.6,1.7-0.6,1.7-2.1,6.2c-1.1,3.3-1.5,4-2.1,4c-0.3,0-0.5-0.2-0.6-0.6
		c-0.2-0.4-0.4-1.1-0.4-1.6c0-0.4,0-0.5,0.6-1.4c1.4-2,2.5-4.5,4.4-10c-1.1,0.2-1.9,0.3-2.7,0.3c-1.7,0-2.8-0.7-3.8-2.5L9.6,244.4z
		 M20.8,254c0,0.4,0,0.8,0,0.9c0,1.6,0.8,2.8,2.1,3.4c0.8,0.3,1.9,0.5,3,0.5c1.1,0,1.8-0.1,2.7-0.4c0.2-0.1,0.4-0.1,0.5-0.1
		c0.3,0,1,0.3,1.4,0.7c0.3,0.3,0.5,0.5,0.5,0.8c0,0.6-1.1,0.9-3.3,0.9c-2.2,0-3.9-0.3-5.2-0.9c-1.5-0.7-2.4-2.2-2.4-4.1
		c0-0.6,0.1-1.1,0.3-1.8L20.8,254z M21.5,248.9c2-1.2,4.3-1.9,6.5-1.9c0.6,0,1.3,0.2,1.8,0.5c0.3,0.2,0.4,0.5,0.4,0.8
		c0,0.4-0.3,0.6-1.1,0.6c-1,0.1-1.4,0.1-2.2,0.6c-0.6,0.3-0.6,0.3-1.5,1c-0.5,0.3-0.5,0.3-1,0.6l-0.2-0.3c0.3-0.3,0.3-0.3,1.3-1.3
		c0.3-0.2,0.5-0.4,1.4-1.3c-1.8,0-3.3,0.3-5.3,1L21.5,248.9z"/>
	<path class="st0" d="M9.4,281.2c1.1,1.2,1.9,1.5,3.1,1.5c1.1,0,2.3-0.2,3.6-0.5c0.6-1.8,1-3.8,1-4.8c0-0.8-0.4-1.2-2-1.7
		c0.4-0.2,0.5-0.3,0.9-0.3c0.6,0,1.6,0.2,2.4,0.5c0.8,0.3,1.3,0.7,1.3,1.1c0,0.2,0,0.2-0.3,0.7c-0.4,0.5-1,2.2-1.7,4
		c1.4-0.5,2.6-1.1,3.2-1.7c0.4-0.4,0.6-0.5,0.8-0.5c0.4,0,1,0.1,1.5,0.3c0.3,0.1,0.4,0.3,0.4,0.5c0,0.5-0.4,0.8-1.6,1.3
		c-1.3,0.6-3.1,1.2-4.9,1.7c-0.2,0.6-0.3,1-0.4,1.1c-0.9,2.8-1.9,5.7-2.9,8.7c-1.1,3.3-1.5,4-2.1,4c-0.3,0-0.5-0.2-0.6-0.6
		c-0.2-0.4-0.4-1.1-0.4-1.6c0-0.4,0-0.5,0.6-1.4c1.3-1.8,2.6-4.8,4.4-10c-1.1,0.2-1.9,0.3-2.7,0.3c-1.7,0-2.8-0.7-3.8-2.5L9.4,281.2
		z M20.5,290.8c0,0.4,0,0.8,0,0.9c0,1.6,0.8,2.8,2.1,3.4c0.8,0.3,1.9,0.5,3,0.5c1.1,0,1.8-0.1,2.7-0.4c0.2-0.1,0.4-0.1,0.5-0.1
		c0.3,0,1,0.3,1.4,0.7c0.3,0.3,0.5,0.5,0.5,0.8c0,0.6-1.1,0.9-3.3,0.9c-2.2,0-3.9-0.3-5.2-0.9c-1.5-0.7-2.4-2.2-2.4-4.1
		c0-0.6,0.1-1.1,0.3-1.8L20.5,290.8z M21.3,285.6c2-1.2,4.3-1.9,6.5-1.9c0.6,0,1.3,0.2,1.8,0.5c0.3,0.2,0.4,0.5,0.4,0.8
		c0,0.5-0.3,0.6-1.1,0.7c-1,0-1.3,0.1-2.2,0.6c-0.4,0.2-0.7,0.4-0.9,0.5l-1,0.7c-0.1,0.1-0.3,0.2-0.6,0.3l-0.2-0.3
		c0.2-0.2,0.4-0.4,0.4-0.4l0.9-0.8c0.2-0.2,0.6-0.6,1.4-1.3c-0.1,0-0.2,0-0.2,0c-1.5,0-3.4,0.4-5.1,1L21.3,285.6z M26.2,275.6
		c1,0.6,1.8,1.1,2.5,1.7c1,0.9,1.4,1.6,1.4,2.2c0,0.7-0.4,1.2-0.9,1.2c-0.4,0-0.4,0-1.2-1.8c-0.5-1-1.4-2.2-2.2-2.9L26.2,275.6z
		 M29.1,273.9c1,0.4,1.8,1,2.7,1.6c1.1,0.8,1.4,1.4,1.4,2.2c0,0.7-0.3,1.1-0.7,1.1c-0.3,0-0.4-0.1-0.6-0.5c-1-1.8-1.5-2.5-3.1-4
		L29.1,273.9z"/>
	<path class="st0" d="M16.1,322.2c-1.2,5-1.7,7.5-1.7,8.5c0,0.1,0,0.2,0,0.3c0,0.2,0,0.3,0,0.4c0,0.9-0.2,1.3-0.7,1.3
		c-0.4,0-0.8-0.4-1.2-1c-0.9-1.7-1.3-4.2-1.3-7.3c0-2.1,0.1-3.4,0.6-6.4c0.4-2,0.4-2.8,0.4-3.5c0-0.9-0.3-1.7-1-2.7
		c0.6,0,1.2,0.4,1.8,1.1c0.8,0.9,1.2,1.7,1.2,2.2c0,0.4,0,0.5-0.4,1.5c-1,2.7-1.5,5.3-1.5,7.8c0,2.1,0.2,3.4,0.7,4.4
		c0.3-0.8,2-5.4,2.5-6.9L16.1,322.2z M18.3,317.6c1.3,0.9,1.9,1.1,3.2,1.1c1.1,0,2.8-0.2,4-0.6c0-0.4,0-0.7,0-1
		c0-2.3-0.1-3.4-0.3-3.9c-0.3-0.6-1.1-1-2.4-1.3c0.4-0.4,0.6-0.4,1.5-0.4c2,0,3.4,0.6,3.4,1.4c0,0.1-0.1,0.4-0.1,0.7
		c-0.3,1-0.3,1.4-0.4,4c1.5-0.5,1.8-0.6,2.5-1.2c0.2-0.1,0.3-0.2,0.6-0.2c0.9,0,1.7,0.4,1.7,0.8c0,0.3-0.2,0.5-1,0.9
		c-0.9,0.4-1.8,0.7-3.8,1.2v4.1c0,4.4-0.8,6.7-2.9,8.9c-1.2,1.3-2.5,2.2-4.3,3.1l-0.2-0.4c2-1.6,3-2.7,3.9-4.3
		c1.3-2.3,1.8-4.8,1.8-9.6c0-0.6,0-0.7,0-1.4c-1.3,0.3-2.2,0.4-3.2,0.4c-1.9,0-3.1-0.6-4.4-2L18.3,317.6z"/>
	<path class="st0" d="M11.8,352c1.5,1.2,2.4,1.5,4.5,1.5c1.2,0,2.3-0.1,4-0.3c-0.1-4.3-0.3-4.7-2.4-5c0.4-0.4,0.6-0.4,1.4-0.4
		s1.7,0.1,2.4,0.4c0.7,0.2,1,0.5,1,0.9c0,0.2,0,0.2-0.4,1c-0.3,0.5-0.4,1.5-0.5,3c2.8-0.5,4.3-1,5.2-1.7c0.1-0.1,0.3-0.1,0.3-0.1
		c0.3,0,1.1,0.3,1.5,0.5c0.3,0.2,0.5,0.4,0.5,0.7c0,0.4-0.4,0.6-2.2,1c-1.9,0.4-3.7,0.8-5.3,1c0,0.7,0,1.1,0,1.8c0,0.8,0,1.3,0,2.5
		c1.1-0.2,2.2-0.4,3.2-0.8c0.7-0.3,0.9-0.3,1.4-0.7c0.1-0.1,0.3-0.1,0.4-0.1c0.4,0,1.1,0.2,1.4,0.4c0.2,0.1,0.3,0.3,0.3,0.5
		c0,0.5-0.4,0.7-2.2,1.2c-1.4,0.4-3.2,0.7-4.6,0.8c0.1,1.1,0.1,1.5,0.1,2.5c0.1,1.1,0.1,1.5,0.2,2.2c2.6,0.5,5,1.4,6.2,2.4
		c0.5,0.5,0.8,1.1,0.8,1.8c0,0.6-0.3,1-0.6,1c-0.3,0-0.4-0.1-1.1-0.8c-0.5-0.4-1.5-1.3-2.4-1.7c-1-0.6-1.7-0.9-2.8-1.2
		c0.1,0.6,0.1,0.9,0.1,1.2c0,1.1-0.3,1.8-1,2.4c-0.8,0.6-2.2,1-3.8,1c-2.8,0-4.7-1.2-4.7-3c0-2,2.6-3.4,6.3-3.4c0.4,0,0.7,0,1.4,0
		c0-1.3,0-1.5,0-1.9c0-0.1,0-0.3,0-0.4c0-0.7,0-1.1,0-1.3c0-0.1,0-0.4,0-0.7c-1.1,0.1-1.7,0.1-2.1,0.1c-1.8,0-3.1-0.2-3.7-0.6
		c-0.8-0.5-1.3-1.3-1.3-2.1c0-0.2,0-0.5,0.1-0.8l0.4,0c0,0.9,0.2,1.3,0.6,1.6c0.4,0.4,1.7,0.6,3.3,0.6c0.8,0,1.5-0.1,2.7-0.2
		c0-0.2,0-0.3,0-0.3v-1.6l-0.1-2v-0.3c-1.5,0.1-2.7,0.2-3.6,0.2c-2.7,0-3.8-0.5-5.2-2.4L11.8,352z M18,365.8c-1.1,0-2.2,0.2-3.1,0.5
		c-1,0.4-1.5,1-1.5,1.7c0,1,1.1,1.6,3.1,1.6c1.4,0,2.5-0.4,3.2-1c0.4-0.3,0.5-0.8,0.6-1.5c0-0.2,0.1-0.8,0.1-1.1c0-0.1,0-0.1,0-0.1
		C19.2,365.9,18.7,365.8,18,365.8z"/>
	<path class="st0" d="M16.3,407.6c3.2-2.2,4.6-4,5.3-7c-0.6,0.4-1.1,0.6-1.8,0.6c-2,0-3.4-1.7-3.4-4c0-2.5,1.5-4.3,3.6-4.3
		c0.5,0,0.8,0.1,1.6,0.5c0-0.5,0-2,0-2.9c0-0.1,0-0.3,0-0.6c-2.2,0.2-4.8,0.7-7.1,1.4c-0.7,0.2-1.2,0.4-1.8,0.8
		c-0.2,0.1-0.5,0.1-0.6,0.1c-0.5,0-1.1-0.4-1.8-1.1c-0.6-0.7-1.1-1.6-1.1-2c0-0.1,0.1-0.2,0.1-0.3c0.7,1,1.6,1.4,2.7,1.4
		c0.6,0,1.2-0.1,2.4-0.3c3.3-0.5,4.3-0.7,7.2-1c0-1.7-0.1-2.5-0.3-3.1c-0.3-0.8-1-1.2-2.4-1.4c0.3-0.4,0.5-0.5,1.3-0.5
		c1,0,1.9,0.1,2.7,0.4c0.7,0.2,1.1,0.6,1.1,1c0,0.2,0,0.3-0.3,0.8c-0.3,0.6-0.5,1.4-0.6,2.7c0.7-0.1,0.7-0.1,1.8-0.2
		c2.7-0.2,3-0.3,3.7-0.5c0.7-0.3,0.8-0.3,1-0.3c0.6,0,1.7,0.5,2.4,1c0.3,0.3,0.4,0.4,0.4,0.8c0,0.3-0.2,0.5-0.6,0.5
		c-0.2,0-0.3,0-1.5-0.2c-1.5-0.2-2.7-0.3-4.3-0.3c-1,0-1.8,0-3,0.1c-0.1,1.1-0.2,2.8-0.2,3.8c0,0.2,0,0.5,0,1
		c0.7,1.4,0.9,2.3,0.9,3.7c0,2.7-1.1,5.3-3,7.1c-1.1,1-2.4,1.9-4.2,2.7L16.3,407.6z M19.9,393.5c-1.3,0-2.2,1.3-2.2,3
		c0,1.8,1,3.1,2.3,3.1c1.2,0,1.8-0.9,1.8-2.6C21.7,394.6,21.1,393.5,19.9,393.5z"/>
</g>
<line class="st1" x1="84.6" y1="0" x2="84.6" y2="60"/>
</svg>
