<svg version="1.1" id="レイヤー_1" xmlns="http://www.w3.org/2000/svg" x="0" y="0" viewBox="0 0 114 419" xml:space="preserve"><g><g><path d="M65.3 198.9c.8-1 1.1-1.3 1.9-2.3 1.3 1.1 1.7 1.4 2.9 2.5.1.1.1.2.1.3 0 .1-.1.2-.3.2h-9.4v11c0 .7 0 .7 2.9.7s3.1 0 3.4-.6c.3-.4.9-2.4 1.7-5.5h.4l-.4 4.6-.1.5c0 .3.2.4.6.6.4.2.6.4.6.7 0 .4-.3.8-1 1-.6.1-2.2.2-4.7.2-3.5 0-4.3-.1-4.8-.4-.4-.3-.6-.7-.7-1.6v-11.4h-3.5c-.1 1.7-.1 2.1-.3 3.2-.7 3.7-2.1 6.4-4.6 8.3-1.3 1.1-2.5 1.7-4.7 2.5l-.2-.4c2-1.1 3.1-1.9 4.4-3.3 2.2-2.4 3.1-5.2 3.4-10.3h-6.6c-.4 0-.9 0-1.6.1l-.2-1.1c1.5.3 2 .3 3.2.3h8.2V192c0-1.7 0-2.1-.2-3.2 2.9.3 3.4.4 3.4.8 0 .3-.4.4-1.3.6v8.7h7.5zm-16.7-8.7c1.4 1.2 2.6 2.4 3.5 3.3.7.8 1 1.5 1 2.1 0 1-.7 2.1-1.2 2.1-.3 0-.4-.2-.6-1-.6-2.1-1.6-4.1-3.1-6.2l.4-.3zm11.7 8c1.9-3 3.3-5.8 3.9-7.9 3 1.1 3.2 1.2 3.2 1.5 0 .3-.5.5-1.5.5-3.6 4.6-3.6 4.6-5.2 6.3l-.4-.4zM56 227h-5.8c-1 0-1.1 0-2.6.1l-.2-1.1c.9.2 1.6.3 2.9.3H63c.7-.8 1-1.1 1.7-1.9 1.2.9 1.5 1.1 2.7 2.2.1.1.1.1.1.2s-.1.2-.2.2h-9.4v2.4h8.7c.4-.5.6-.7 1.1-1.1 1.1.8 1.4 1 2.4 1.8.2.1.2.2.2.3 0 .3-.3.4-1.8.4-.3.4-.3.4-1.1 1.2l-1 1-.3-.1c.5-1.5.6-1.7.8-2.8h-9v7.6c0 .2-.1.3-.2.3-.1.1-.9.1-1.4.1-.2 0-.3-.1-.4-.3V230h-8.1c-.3 2.4-1.3 4.3-2.3 4.3-.4 0-.9-.8-.9-1.5 0-.3.1-.6.5-.8 1.2-.8 1.7-1.7 2.3-3.9h.4v1.3H56V227zm.2 15.7c-1.5 1.8-2.7 3.1-4 4.3 5.9-.2 7.6-.2 11.2-.5-.8-.7-1.5-1.2-3.1-2.4l.2-.3c1.8.7 4.4 1.9 5.7 2.7 1 .6 1.3 1.1 1.3 2.1 0 .8-.2 1.3-.6 1.3-.2 0-.3-.1-.5-.4-.6-.8-1.9-2.1-2.4-2.5-1.8.4-2.9.6-5.2.9-3.6.5-4.2.6-10.8 1.1-.3.8-.4 1.2-.6 1.2-.1 0-.2-.1-.3-.3-.1-.2-.2-.6-.3-1.2-.1-.8-.2-1.4-.3-1.7.7 0 .7 0 2 .1h2.9c.9-1.4 1.4-2.5 2.2-4.3h-5.4c-.9 0-2.2.1-3 .2l-.2-1.1c1.1.2 2.2.3 3.3.3h17c.6-.8.8-1 1.5-1.8 1.4 1 1.4 1 2.6 1.9.1.1.1.2.1.3 0 .1-.2.3-.3.3h-13zm-9.1-7.1c.8.1 1.2.2 1.9.2h2.8c.6-.6.7-.8 1.3-1.4.8.6 1 .8 1.8 1.6.1.1.1.2.1.3s-.1.2-.3.2H49c-.6 0-1 0-1.7.1l-.2-1zm.7 3.3c1.1.1 1.8.2 3.4.2h11.5c.5-.6 1-1.1 1.5-1.7 1.1.8 1.4 1.1 2.4 2 .1.1.1.2.1.2 0 .1-.1.2-.3.2H51.2c-2.4.1-2.4.1-3.2.1l-.2-1zm.1-6.4c.5.1 1.1.1 1.7.1h2.3c.5-.7.7-.8 1.3-1.4.8.7 1 .9 1.8 1.6.1.1.1.2.1.3 0 .1-.1.2-.2.2h-5.1c-.6 0-.9 0-1.5.1l-.4-.9zm11-.1c1 .2 1 .2 1.6.2h2.1l1.3-1.5c.8.7 1 1 1.8 1.7 0 .1.1.1.1.1 0 .1-.1.2-.3.2h-5c-.1 0-.6 0-1.5.1l-.1-.8zm0 3.2c.5.1 1 .2 1.7.2h3c.6-.7.8-.9 1.3-1.5.9.7 1.1.9 2 1.7.1.1.1.2.1.3s-.1.2-.2.2h-6.2c-.4 0-.7 0-1.5.1l-.2-1zM57 284.1c3-.9 5-2 6.6-3.9 1.7-1.9 2.5-4.2 2.5-6.7 0-2.7-1.1-4.9-3.2-6.2-1.2-.8-3.1-1.3-4.8-1.3-.3 0-.5 0-1 .1.7 1 .9 1.5.9 2.3 0 2.2-1.6 6.3-3.7 9.7-1.8 2.8-3.1 4.2-4.2 4.2-.5 0-.9-.2-1.2-.6-.3-.3-.3-.4-.8-1.8-.3-.7-.4-1.1-1.2-2.6-.4-.9-.6-1.7-.6-2.5 0-1.8 1-3.8 2.5-5.5 2.3-2.4 6-3.9 9.6-3.9 2.8 0 5.4.9 7.2 2.6 1.8 1.7 2.7 3.9 2.7 6.6 0 3.5-2 6.6-5.6 8.5-1.6.9-3.1 1.3-5.5 1.7l-.2-.7zm-9.2-8.7c0 1.3.4 2.7 1.1 3.7.4.5.8.8 1.1.8.6 0 2-1.5 3.3-3.7 2.1-3.3 3.6-6.9 3.6-8.7 0-.4-.1-.7-.4-1.4-4.9.9-8.7 5-8.7 9.3zm-.2 31.1v16.3c0 .2-.1.3-.3.3-.2.1-.9.1-1.3.1-.3 0-.3-.1-.4-.3.1-2.4.1-6.8.1-13.9 0-7.3 0-9.8-.1-11.4.8.5 1.1.7 2 1.3h5.7c.5-.6.7-.7 1.1-1.3.7.6.9.7 1.5 1.3.2.2.3.3.3.4 0 .2-.2.4-.8.7v3.1c0 1.5 0 2.4.1 4.1 0 .2-.1.3-.2.4-.1.1-.8.1-1.4.1-.2 0-.3-.1-.3-.3v-.8h-6zm5.9-6.9h-6v2.7h6v-2.7zm0 3.4h-6v2.9h6V303zm0 17.4c0 .2-.1.2-.3.3-.2.1-.9.1-1.1.1-.3 0-.3-.1-.4-.3 0-2.3.1-3.6.1-4.8 0-3.3 0-5.9-.1-7 .9.5 1.2.7 2.1 1.2h6.6c.5-.5.7-.6 1.2-1.1.6.5.8.6 1.4 1.2.3.2.3.3.3.4 0 .2-.1.3-.9.7v3.1c0 1.9 0 3 .1 5.2 0 .3-.1.3-.3.4-.2.1-.8.1-1.2.1-.3 0-.4-.1-.4-.3v-1h-7.1v1.8zm7.1-9.8h-7.1v3.1h7.1v-3.1zm-7.1 3.8v3.6h7.1v-3.6h-7.1zm7.1-7.9v.7c-.1.3-.3.4-1 .4s-.8-.1-.8-.4c.1-1.8.1-2.6.1-4.2 0-4 0-4.3-.1-5.3.9.5 1.2.7 2 1.2h5.9c.5-.6.7-.7 1.1-1.3.8.6 1 .7 1.7 1.3.2.2.3.3.3.4 0 .2-.1.3-.9.8v20.8c-.1 1.3-.6 1.7-3 2.2-.3-.7-.5-1-1-1.3-.3-.2-.7-.3-1.5-.4-1-.2-1.5-.3-1.6-.3v-.4c2.3.1 2.8.2 4.6.2.4 0 .5-.1.5-.4v-14h-6.3zm6.3-6.9h-6.3v2.7h6.3v-2.7zm0 3.4h-6.3v2.9h6.3V303z" fill="#200701"/></g></g><line x1="57.2" y1="95.8" x2="57.2" y2="155.8" fill="none" stroke="#76544b" stroke-miterlimit="10"/></svg>