<svg version="1.1" id="レイヤー_1" xmlns="http://www.w3.org/2000/svg" x="0" y="0" viewBox="0 0 114 419" xml:space="preserve"><g><g><path d="M82.5 102.7h-1.7c-.9.1-.9.1-1.3.1s-.4 0-.9.1l-.3-1c1 .2 1.2.2 2.5.2h4.9l1.1-1.3c.8.6 1.1.8 1.9 1.5.1.1.1.1.1.2s-.1.2-.4.2h-4.2v2.3h2.2c.6-.6.7-.8 1.3-1.3.8.6 1.1.9 1.8 1.6.1.1.1.2.1.2 0 .1-.1.2-.3.2h-2.1v13.5c0 .4-.2.4-1.1.4h-.2c-.3 0-.4-.1-.4-.3.1-1.9.1-2.1.1-2.5v-2.1c-2.3 1-4.7 1.7-7.2 2.3-.1 1-.2 1.2-.4 1.2-.3 0-.4-.4-1-2.7 1 0 1.5 0 2.6-.2v-9.6h-1.9c-.1 2.9-.3 4.5-.7 6.5-.6 2.8-1.5 5-2.9 7.3l-.4-.2c.7-1.7 1.1-3.2 1.5-6.2.5-3 .6-5.5.6-10.6 0-2 0-3-.1-4.5 1.1.6 1.4.7 2.4 1.4H90c1.1-1.7 2-3.4 2.4-4.8 1.2.2 2.5.5 2.9.7.2.1.3.2.3.3 0 .3-.2.3-1.3.5-1.2 1.5-1.4 1.7-3.4 3.4h4c.8-.8 1-1.1 1.8-1.9 1.1.9 1.4 1.2 2.5 2.1.1.1.1.2.1.3 0 .1-.1.2-.4.2h-21c0 3.7 0 3.7-.1 5.1h4.7v-2.6zm-3.5-8c1.1.5 2 1 2.9 1.7.5.4.7.8.7 1.2 0 .8-.4 1.5-1 1.5-.2 0-.3-.1-.5-.5-.5-1.2-1.4-2.5-2.5-3.6l.4-.3zm2.4 11v2.5h4.3v-2.5h-4.3zm0 3.1v2.6h4.3v-2.6h-4.3zm0 3.2v3c1.8-.3 1.9-.3 4.3-.9V112h-4.3zM85 94.3c1.1.6 1.9 1.2 2.7 1.9.4.4.7.8.7 1.1 0 .3-.2.9-.5 1.2-.2.3-.4.4-.6.4-.3 0-.3-.1-.6-1-.3-1-1-2.2-1.9-3.4l.2-.2zm11.8 11.4c-.7 3.4-1.5 5.5-3 7.9.7.6 1.1 1 1.7 1.4 1.5 1.1 2.3 1.5 4 2l-.1.4c-.6.1-.7.1-1.1.6-.3.4-.5.6-.8 1.3-2.1-1.4-3.3-2.5-4.7-4.4-1.5 2-2.9 3.4-5 4.9l-.2-.4c1.9-1.8 3.2-3.4 4.5-5.7-1-1.8-1.8-4.1-2.2-5.9-1 1.5-1.2 1.8-2.2 2.8l-.3-.3c1.3-1.8 1.9-3.1 2.8-5.8.6-1.7.8-2.6.9-3.7 2.8.6 2.9.7 2.9 1 0 .3-.4.4-1.3.4-.6 1.4-.8 2-1.3 2.9h4.5c.8-.9.8-.9 1.4-1.6 1 .8 1.3 1 2.3 1.8.1.1.1.2.1.2 0 .1-.1.2-.4.2h-2.5zm-5.6 0c-.4.6-.4.8-.8 1.3.5 2.1 1.1 3.6 2.4 5.3 1-2.2 1.6-4.1 2.1-6.7h-3.7zm-3.4 44.4h-.4c-1.6 1.2-3.2 2-5.2 2.7 1.4.4 2.9.6 5.7.6 3.3 0 6.9-.1 12.2-.5v.4c-1 .2-1.3.6-1.7 2-1.3.1-2.3.1-3.8.1-5.3 0-7 0-8.2-.1-2.4-.1-3.6-.5-5-1.3s-2.1-1.7-2.9-3.6c-.8 1.5-2 3.2-2.8 4.1.1.4.1.7.1.9 0 .3-.2.5-.3.5-.3 0-.5-.4-1.8-2.9 1.2-.5 2.1-1.1 3.6-2.2v-7.7h-1.7c-.5 0-1.1.1-1.6.2l-.4-1.1c.8.2 1.4.3 2 .3h1.6c.4-.5.6-.7 1-1.2.8.5 1 .7 1.6 1.2.1.1.2.3.2.3 0 .2-.3.4-.9.8v6.7c.7 1.3 1.3 1.9 2.5 2.4 1-.7 1.4-1 2.1-1.7 1.1-1 1.7-1.7 2.1-2.4 1 .3 2.5.7 2.7.8.1.1.2.1.2.2s-.1.2-.1.3c-.1.1-.3.1-.5.1l-.3.1zm-13-18.8c1.2.8 2.2 1.7 3.5 2.8.6.6.8 1 .8 1.5 0 .8-.7 2-1.1 2-.3 0-.5-.3-1-1.7s-1.3-2.8-2.5-4.3l.3-.3zm16.9 11.9v-.8c-.1-1.5-.1-1.5-.2-2 1 .1 2.1.2 2.5.4.2.1.3.1.3.3 0 .2-.3.3-1 .6v1.5h1.5c.5-.7.7-.9 1.2-1.6 1 .8 1.3 1 2.3 1.8 0 .1.1.1.1.2s-.1.2-.4.2h-4.8v3.4H96c.6-.8.8-1 1.3-1.7 1 .8 1.3 1.1 2.3 2 .1.1.1.2.1.2 0 .1-.1.2-.3.2H82.3c-.3 0-1.2.1-1.5.2l-.3-1.1c.9.2 1.4.3 1.8.3h3.4v-3.4h-2.2c-.6 0-1.1 0-1.6.1l-.2-1c.7.1 1.1.2 1.8.2h2.2v-.8c0-.8-.1-1.4-.2-1.9 2.3.2 2.8.3 2.8.6 0 .2-.1.3-.9.6v1.5h4.3zm-8.7-7.4v2c0 .3.1.5.2.6.1.1.8.1 2.2.1 1 0 2.1-.1 2.3-.1.4-.1.6-.5 1.3-1.9l.3.1-.1 1.2v.2c0 .1 0 .1.3.2.2.1.4.4.4.6 0 .3-.2.6-.6.7-.3.1-2.3.3-3.6.3-3 0-3.7-.1-4-.6-.2-.3-.2-.3-.2-3.8 0-.8 0-.9-.1-1.5.9.4 1.1.6 2 1.1h3.8v-2.4h-4.4c-.4 0-.9.1-1.6.2l-.2-1c.6.1 1.3.2 1.8.2h4.3c.4-.4.5-.6.9-1 .7.4.9.6 1.5 1 .1.1.2.2.2.3 0 .2-.3.4-.9.8v2.7c-.1.1-.1.2-.2.2-.2.1-.7.1-1.1.1-.2 0-.3-.1-.4-.3v-.1H83zm4.4 11.5h4.3v-3.4h-4.3v3.4zm5.1-11.5v2.2c0 .3.2.4.7.4h.4c.3 0 .8 0 1.4.1h.1c.8 0 1.7-.1 1.9-.1.3-.1.4-.3 1.2-1.8l.3.1-.1 1v.3c0 .1.1.2.4.4.3.2.4.3.4.6s-.3.6-.8.8c-.6.2-1.8.2-4 .2-2.1 0-2.8-.1-3.1-.4s-.3-.3-.3-4c0-.7 0-.9-.1-1.4.9.4 1.1.5 2 1.2h3.6V133h-4.3c-.3 0-1.1.1-1.5.1l-.3-1c.5.1 1.3.2 1.7.2h4.2c.4-.4.5-.6.8-1 .6.4.8.5 1.4 1 .2.1.3.2.3.3 0 .2-.1.2-.7.6v2.8c-.1.3-.4.4-1.3.4-.3 0-.4-.1-.4-.3v-.3h-3.9zm-1 12.8c1.4.3 4.1 1.1 4.8 1.4.6.3 1 1 1 1.8 0 .5-.1.8-.4.8-.1 0-.4-.1-.6-.2-.3-.2-.3-.2-1.3-1.1-1.3-1.2-2.3-1.8-3.6-2.4l.1-.3zm4.9 37c-2.7 3.6-6.4 5.8-9.8 5.8-2.1 0-3.8-.9-4.6-2.4-.6-1-.8-2.4-.8-4.7 0-1.5.1-4.2.2-6.7.2-3 .2-3.8.2-4.8 0-2.4-.3-2.9-2.3-3.7.3-.2.5-.3.8-.3.6 0 1.7.3 2.5.6 1.1.5 1.6 1.1 1.6 1.7 0 .2 0 .4-.3 1-.5 1.7-1.5 10.2-1.5 13.4 0 1.7.3 2.7 1.1 3.4.6.5 1.5.8 2.5.8 1.9 0 4.3-.7 6.4-1.8 1.3-.7 2.1-1.3 3.6-2.5l.4.2zm-20.5 25.1c1.1 1.2 1.9 1.5 3.1 1.5 1.1 0 2.3-.2 3.6-.5.6-1.8 1-3.8 1-4.7 0-.9-.4-1.2-2-1.8.4-.2.5-.3.9-.3.6 0 1.6.2 2.4.5.8.3 1.3.7 1.3 1.1 0 .2 0 .2-.3.7-.4.5-1 2-1.7 4 1.6-.6 2.6-1.1 3.2-1.7.4-.4.6-.5.8-.5.4 0 1 .1 1.5.3.3.1.4.3.4.5 0 .5-.4.8-1.6 1.4-1.3.6-3.1 1.2-4.9 1.6-.3 1-.3 1-1.2 3.6-.6 1.7-.6 1.7-2.1 6.2-1.1 3.3-1.5 4-2.1 4-.3 0-.5-.2-.6-.6-.2-.4-.4-1.1-.4-1.6 0-.4 0-.5.6-1.4 1.4-2 2.5-4.5 4.4-10-1.1.2-1.9.3-2.7.3-1.7 0-2.8-.7-3.8-2.5l.2-.1zm11.1 9.6v.9c0 1.6.8 2.8 2.1 3.4.8.3 1.9.5 3 .5s1.8-.1 2.7-.4c.2-.1.4-.1.5-.1.3 0 1 .3 1.4.7.3.3.5.5.5.8 0 .6-1.1.9-3.3.9-2.2 0-3.9-.3-5.2-.9-1.5-.7-2.4-2.2-2.4-4.1 0-.6.1-1.1.3-1.8l.4.1zm.8-5.2c2-1.2 4.3-1.9 6.5-1.9.6 0 1.3.2 1.8.5.3.2.4.5.4.8 0 .4-.3.6-1.1.6-1 .1-1.4.1-2.2.6-.6.3-.6.3-1.5 1l-1 .6-.2-.3 1.3-1.3c.3-.2.5-.4 1.4-1.3-1.8 0-3.3.3-5.3 1l-.1-.3zm-68.5-42.5v3.7c0 .2 0 .3-.1.4-.1.1-.6.1-1.2.1-.3 0-.4-.1-.4-.3v-.1c.1-1.1.1-1.1.1-3.9h-3.6c-.4 2.6-1.5 4.2-3.8 5.9l-.3-.3c1.1-1.1 1.7-2.2 2.1-3.8.3-1.1.4-2.3.4-4.2 0-.7 0-1-.1-1.8 1 .5 1.2.7 2.1 1.3 1.2-.3 2.5-.8 3.9-1.5.7-.3 1-.5 1.6-1 1.8 1.1 2.3 1.5 2.3 1.7 0 .2-.2.3-.5.3-.2 0-.4 0-.9-.1-2 .5-4.2 1-6.7 1.3v1.6h5.7c.6-.6.7-.8 1.3-1.4.8.7 1.1 1 1.9 1.8l.1.1c0 .1-.1.2-.2.2h-3.7zm-8.7 19.7c3.8-.9 7.1-2.3 8.5-3.6 2.2.6 2.7.9 2.7 1.2 0 .1-.2.3-.6.3h-.8c-3.1 1.4-5.8 2.2-9.7 2.6l-.1-.5zm6.5-3.8c0 .2-.1.3-.2.3-.2.1-.8.2-1.4.2-.3 0-.4-.1-.5-.3.1-2.3.1-4.6.1-8.3 0-2 0-2.6-.1-3.9 1 .4 1.3.6 2.2 1H29c.3-.4.4-.6.8-1 .7.5 1 .6 1.7 1.1.2.1.3.3.3.3 0 .2-.3.4-.9.8 0 4.4 0 7.6.1 9.7 0 .3-.1.3-.3.4-.3.1-.9.1-1.3.1-.3 0-.3-.1-.4-.2v-.7H17.1v.5zm11.9-7.9v-2.4H17.1v2.4H29zm-11.9.6v2.7H29v-2.7H17.1zm0 3.3v2.8H29v-2.8H17.1zm8.3-11.9c-.2.8-.4 1.2-.8 1.8-.8 1.3-1.9 2-3.6 2.7l-.2-.3c1.7-1.3 2.2-2 2.6-3.3.3-1 .5-2.8.5-4.3v-1c1 .5 1.3.7 2.1 1.3 1.1-.2 2.8-.8 4.7-1.6 1-.4 1.2-.6 1.7-1 1.7 1 2.4 1.5 2.4 1.8 0 .1-.1.3-.3.3-.2 0-.2 0-1.1-.2-2.2.6-3.6.9-7.7 1.4v.5c-.1.7-.1.9-.2 1.3h6.9c.6-.7.6-.7 1.4-1.5.9.7 1.2 1 2 1.7.1.1.1.1.1.2s-.1.2-.2.2h-5.2v3.1c0 .1 0 .2-.1.3-.1.1-.8.2-1.3.2-.2 0-.3-.1-.4-.3v-3.2h-3.3zm-.2 16.3c3.8.4 6.7.9 7.3 1.1.8.3 1.3 1.2 1.3 2 0 .4-.2.6-.6.6-.3 0-.3 0-1.1-.6-.7-.4-2.7-1.4-4-1.9-.5-.2-1.1-.4-3-1l.1-.2zm-2.5 37.6c3-.9 5-2 6.6-3.9 1.7-1.9 2.5-4.2 2.5-6.7 0-2.7-1.1-4.9-3.2-6.2-1.2-.8-3.1-1.3-4.8-1.3-.3 0-.5 0-1 .1.7 1 .9 1.5.9 2.3 0 2.2-1.6 6.3-3.7 9.7-1.8 2.8-3.1 4.2-4.2 4.2-.5 0-.9-.2-1.2-.6-.3-.3-.3-.4-.8-1.8-.3-.7-.4-1.1-1.2-2.6-.4-.9-.6-1.7-.6-2.5 0-1.8 1-3.8 2.5-5.5 2.3-2.4 6-3.9 9.6-3.9 2.8 0 5.4.9 7.2 2.6 1.8 1.7 2.7 3.9 2.7 6.6 0 3.5-2 6.6-5.6 8.5-1.6.9-3.1 1.3-5.5 1.7l-.2-.7zm-9.2-8.7c0 1.3.4 2.7 1.1 3.7.4.5.8.8 1.1.8.6 0 2-1.5 3.3-3.7 2.1-3.3 3.6-6.9 3.6-8.7 0-.4-.1-.7-.4-1.4-4.9.9-8.7 5-8.7 9.3zm8.9 36c.8 2.2 1.5 3.1 3.2 5 1.5-.8 1.9-1.1 3.6-2.5 1.5-1.3 1.5-1.3 2-2 2.3 1.1 2.7 1.3 2.7 1.6 0 .2-.2.3-.6.3h-.9c-.3.2-.3.2-2 1.1-.6.3-.6.3-3.5 1.7-.1.1-.3.1-.8.4.7.7 1.4 1.1 2.7 1.7 2 .9 3.9 1.5 6.6 1.9l-.1.3c-1.4.4-1.5.6-2.2 2-2.9-1.1-4.1-1.8-5.6-2.8-2.3-1.7-4.1-3.9-5.1-6.6-.2-.5-.4-.9-.7-1.9H17v7.8c3.2-.6 4.3-.9 6.7-1.7l.1.4c-1.7.9-3.3 1.5-6 2.4-3.3 1.1-3.6 1.2-4.8 1.7-.1.2-.1.4-.1.5-.1.5-.2.8-.4.8-.3 0-.6-.8-1.2-3.1 1.3-.1 1.3-.1 3.8-.6V247c0-1.7 0-3.5-.1-4.4 1 .5 1.3.7 2.3 1.3h4.6v-1.6c-.1-1.2-.1-1.9-.2-2 2.5.2 3.3.4 3.3.7 0 .3-.3.4-1.2.7v2.3h4.6c.4-.6.5-.8 1-1.3.8.6 1.1.8 1.9 1.5.1.1.2.2.2.3 0 .2-.3.4-1 .9v8.7c0 .5 0 .5-1.6.6-.2 0-.3-.1-.3-.4v-.5h-6.2zm6.3-5.4v-3.8H17v3.8h11.7zM17 249v4.2h11.7V249H17zm4.6 39.7c-2 4.7-2.6 6.4-2.6 7.5 0 .2 0 .2.2 1 0 .1.1.3.1.4 0 .4-.3.7-.6.7-.8 0-2.2-1.1-3.1-2.4-1-1.4-1.6-3.4-1.9-5.6-.2-1.2-.2-1.9-.2-4.9 0-2.6-.2-3.2-1.4-4.8h.3c.4 0 1.3.5 2.1 1.4.8.8 1.3 1.6 1.3 2.2 0 .2 0 .4-.1.7-.3 1.7-.5 3-.5 4.2 0 1.5.2 2.9.6 4.1s.8 1.7 1.5 2.2c.3-.4.3-.4.9-1.5.9-1.5.9-1.5 2.4-3.9.4-.7.4-.7.8-1.3h.2zm6-5c3.5.8 6.3 4.5 6.3 8.4 0 1.3-.6 2.2-1.4 2.2-.3 0-.4-.1-.8-.3-.4-.3-.9-.3-2.1-.3-.6 0-1.2 0-2.1.1l-.1-.4c2.3-.6 3.5-1 3.8-1.1.6-.2.6-.3.6-.8 0-1-.4-2.7-.9-3.7-.8-1.6-1.9-2.8-3.5-3.7l.2-.4zm-16.1 53.9c.1-4.5.2-6.4.2-8.5 0-.8 0-6.1-.1-12.7 0-1.5 0-1.9-.1-3.1 1.1.5 1.4.6 2.4 1.3h17.9c.5-.6.7-.7 1.2-1.3.8.5 1 .6 1.7 1.2.2.1.3.3.3.4 0 .3-.1.3-1.1.9 0 15.3 0 16.2.3 21.5 0 .6-.3.7-1.7.7-.3 0-.4-.1-.4-.5v-1.3H13.5v1.3c0 .3-.1.4-.3.5-.1.1-.9.1-1.3.1-.3 0-.4-.2-.4-.5zm2-2.1h18.6v-20.4H13.5v20.4zm9.9-11H26c.5-.7.6-1 1.3-1.6 1 .8 1.3 1 2.2 1.8.1.1.2.2.2.3 0 .1-.1.2-.3.2h-6v6.4h3.8c.6-.8.8-1 1.4-1.8 1 .8 1.3 1.1 2.2 1.9.2.2.2.3.2.3 0 .1-.1.2-.3.2H16.9c-1.5 0-1.5 0-2 .1l-.2-1c.6.1 1.5.2 2.2.2h4.6v-6.4h-3.6c-1 .1-1.6.1-1.8.1l-.2-1c.8.1 1.3.2 2 .2h3.6v-5.2h-4.3c-.6 0-1.3.1-2 .1l-.3-1c.7.2 1.3.2 2.3.2h9.2c.6-.8.8-1 1.4-1.7 1 .8 1.3 1 2.3 1.8.1.1.2.3.2.3 0 .1-.1.2-.3.2h-6.7v5.4zm1.6 1.6c1.3.3 2.4.7 3 1 .5.3.8.7.8 1.3 0 .7-.3 1.2-.6 1.2-.2 0-.4-.1-.6-.4-1.3-1.6-1.8-2.1-2.9-2.9l.3-.2zm5.5 26.6c.7-.8.9-1.1 1.5-1.8 1.1.8 1.5 1.1 2.6 2 .1.1.2.2.2.3 0 .1-.2.2-.4.2h-7.3c2.4 1 2.5 1 2.5 1.3 0 .2 0 .2-1.3.5-.6.7-1.6 1.7-2.8 2.8H31c.8-.9 1-1.2 1.8-2.1 1.2.9 1.5 1.2 2.7 2.2.1.1.1.2.1.3 0 .1-.2.3-.3.3h-21c-.1 5-.3 6.9-.8 8.9-.7 2.7-1.9 5.1-3.8 7.2l-.3-.3c.9-1.4 1.3-2.3 1.8-4 .8-3 1.1-5.7 1.1-11.6 0-1 0-1.4-.1-2.4 1.1.6 1.4.8 2.4 1.5h5.2c-.2-.1-.3-.2-.3-.4-.5-1.6-1.1-2.7-2.1-3.8l.3-.2c2.1 1 3.3 2 3.3 2.8 0 .3-.1.6-.4 1.1-.2.4-.3.5-.6.6h5c.8-1.2 1.5-2.8 2-4.5H14.5c-.7 0-1.6.1-2.5.2l-.3-1.1c1.2.2 2 .3 2.8.3H22v-1.4c0-.8 0-1.2-.1-2.1 3.1.3 3.2.3 3.2.6s-.3.4-1.1.8v2.1h6.5zm-7.2 10.7v-2c0-.7 0-1.1-.1-2.1 2.4.3 3 .4 3 .7 0 .2-.2.3-1.1.7v2.8h4.3l1.5-1.7c1.1.8 1.5 1 2.5 1.9.1.1.2.2.2.3 0 .1-.2.2-.4.2h-8.1v3.8h3.7c.7-.8.9-1.1 1.5-1.9 1.1.9 1.4 1.1 2.5 2.1.1.1.1.2.1.2 0 .1-.1.2-.3.2H25v4.6h6c.8-.9 1.1-1.2 1.9-2.1 1.2.9 1.6 1.2 2.9 2.2.1.1.1.2.1.3 0 .1-.1.2-.3.2h-20c-.3 0-1 .1-1.9.2l-.2-1.1c.6.1 1.6.3 2.1.3h7.7v-4.6h-4.2c-.5 0-1.2.1-2.2.2l-.3-1.1c.6.1 1.8.3 2.5.3h4.2v-4h-5.2c-1.3 2-2.2 3-3.6 4.2l-.3-.2c1.5-2.1 2.1-3.3 2.9-5.3.6-1.5.8-2.1 1-3.2.6.2 1.1.3 1.3.4 1 .3 1.3.5 1.3.7s-.1.3-1.2.5c-.5 1-.7 1.3-1.2 2.2h5zM22 392.8v-2.4c0-2.7 0-3.1-.1-4.6 2.9.4 3.3.5 3.3.8 0 .2-.4.4-1.2.6v5.5h4.9c.8-.9 1-1.1 1.8-1.9 1.1.9 1.5 1.2 2.6 2.2.1.1.1.2.1.2 0 .1 0 .1-.3.1h-9.2v6.4H31c.8-.9 1.1-1.2 1.9-2.1 1.2 1 1.6 1.3 2.8 2.4.1.1.1.1.1.2s-.1.2-.2.2H23.9c.1 4.4.1 7.8.1 10.1v.1c0 .3-.3.4-1.1.4h-.6c-.3 0-.5-.1-.5-.3v-.1c.1-3.4.1-5.2.1-10.2h-8.4c-.6 0-1.8.1-2.8.2l-.2-1.1c1.3.2 2 .3 2.9.3H22v-6.5h-6.3c-1.3 2.1-2.7 3.8-4.2 5.3l-.3-.2c1.4-2 2.3-3.7 3.2-6 .9-2.3 1.4-4 1.6-5.1.6.2 1 .3 1.3.4 1.7.5 1.9.6 1.9.8 0 .3-.4.4-1.3.5-1 2-1.3 2.7-1.8 3.6H22z" fill="#200701"/></g></g><line x1="86.9" y1="1.8" x2="86.9" y2="61.8" fill="none" stroke="#76544b" stroke-miterlimit="10"/></svg>