<svg version="1.1" id="レイヤー_1" xmlns="http://www.w3.org/2000/svg" x="0" y="0" viewBox="0 0 114 419" xml:space="preserve"><style type="text/css">.st0{fill:#200701}</style><g><path class="st0" d="M79.9 141.2h.8c.4-.4.8-.9 1.2-1.3.8.7 1 .9 1.8 1.5.1.1.2.2.2.3s-.1.2-.3.2H80v1.9c2.4 1.7 3.1 2.5 3.1 3.3 0 .9-.5 1.8-1 1.8-.2 0-.3-.2-.4-.5-.4-1.7-1.1-3.1-1.8-4v6.4c0 5.3 0 5.3.1 7.8 0 .2-.1.3-.2.3-.2.1-.8.1-1.2.1-.4 0-.6-.1-.6-.3v-.1c.1-4.5.1-4.5.2-7.9l.1-5.5c-1.6 4.3-2.3 5.7-4.1 7.9l-.3-.2c1.1-2.2 1.8-3.8 2.7-6.6.6-1.8.8-2.4 1.2-4.5h-2.3c-.3 0-.8.1-1.2.2l-.2-1c.5.1 1 .2 1.4.2H78v-4.4c-1.5.3-2 .4-3.6.6l-.1-.3c2.5-.8 3.2-1.1 4.8-1.9 1.5-.8 1.8-1 2.5-1.7 2.1 1 2.7 1.3 2.7 1.6 0 .2-.2.3-.4.3-.3 0-.6 0-1-.1-1.3.6-1.7.7-3.1 1.1v4.8zm6.1 10.1c0 .3-.4.4-1.3.4-.3 0-.4-.1-.4-.3v-.1c.1-1.9.1-2.6.1-4.4 0-.7-.1-5.3-.1-6 .9.5 1.1.7 2 1.3h3.5v-2.6h-5.9c-.3 0-.6 0-1 .2l-.2-1c.4.2.8.2 1.2.2h5.9v-2.7c-2.7.3-3.6.4-6 .4l-.1-.4c3.5-.5 5.6-.9 7.9-1.5 1.9-.5 2.6-.8 3.9-1.6 2.4 1.4 2.4 1.5 2.4 1.7 0 .2-.2.3-.4.3-.3 0-.7-.1-1.1-.1-2.3.6-3.1.8-4.9 1v2.9h4.4c.6-.8.9-1.1 1.5-1.8 1.1.8 1.4 1.1 2.3 2 .1.1.2.2.2.3 0 .1-.1.2-.3.2h-8.2v2.6h4c.4-.5.6-.7 1-1.1.7.5.9.6 1.5 1.1.2.2.3.3.3.4 0 .2-.2.3-.9.8v2.2c0 2 0 2.9.1 5.4v.1c0 .3-.3.4-1.4.4-.3 0-.4-.1-.4-.3v-.8h-4.2v2.8H95c.6-.7.8-.9 1.4-1.5.9.7 1.2.9 2.1 1.7.1.1.2.2.2.3 0 .1-.1.2-.3.2h-7v3.2H96c.9-1 .9-1 1.6-1.9 1.1.9 1.4 1.2 2.4 2.1.1.1.2.2.2.3 0 .1-.1.2-.3.2H83.1c-.4 0-.9.1-1.5.2l-.3-1.1c.6.2 1.1.3 1.7.3h6.7v-3.2h-5c-.5 0-.9.1-1.4.2l-.3-1.1c.5.2 1 .3 1.7.3h5v-2.8H86v.6zm3.8-5.4V143H86v2.9h3.8zm0 3.9v-3.3H86v3.3h3.8zm5.9-3.9V143h-4.2v2.9h4.2zm0 3.9v-3.3h-4.2v3.3h4.2zm-14.2 28.3c1.6.4 3.1 1 3.9 1.4.7.4 1 .9 1 1.8 0 .5-.2.9-.4.9-.1 0-.3-.1-.5-.4-1.1-1.3-2.6-2.5-4-3.4 0 2 0 2 .1 3.3-.1.3-.3.4-1.3.4-.3 0-.4-.1-.4-.4 0-.5 0-.5.1-1.4 0-.4 0-.4.1-1.3v-.8c-.8 1.3-1.3 1.8-2.4 2.9-1.3 1.1-2 1.7-3.5 2.5l-.2-.4c2.5-2.2 3.4-3.2 5.3-6.3h-3c-.6 0-1 .1-1.5.2l-.2-1.1c.8.2 1.1.2 1.7.2h3.8v-3.6c0-.9 0-1.5-.1-2.6 2.5.2 2.7.3 2.7.6 0 .2-.2.3-1 .5v5.1H84c.5-.7.7-.9 1.2-1.5.8.7 1.1.9 1.8 1.7.1.1.1.2.1.2 0 .1-.1.2-.2.2h-5.5v1.3zm2 7.5c.5-.5 1-1.1 1.5-1.6.9.8 1.2 1 2.2 1.8.1.1.1.2.1.3s-.1.2-.3.2h-5.7c-.1.6-.2.8-.3 1.3 1.4.4 3.2 1.1 3.8 1.5.4.2.7.6 1 .9.1.2.2.4.2.9 0 .7-.2 1.2-.5 1.2-.1 0-.2-.1-.4-.3-.7-1-2.3-2.4-4.2-3.7-.4 1.5-1 2.4-2.1 3.6-1.3 1.3-2.3 2-4.1 2.9l-.3-.3c1.2-.8 1.7-1.2 2.6-2.2 1.7-1.9 2.3-3.2 2.6-5.7h-2.9c-.9 0-1.1 0-2 .2l-.1-1.1c.8.2 1.2.3 2.1.3h2.9c.1-.7.1-1 .1-1.7v-1.2c2.8.2 2.9.2 2.9.5 0 .2-.2.3-.9.5-.1 1.1-.1 1.5-.2 1.9h2zm-7.7-14.5c.6.6 1.7 1.6 2 2.1.4.4.6.8.6 1.2 0 .7-.6 1.5-1.1 1.5-.2 0-.2 0-.6-1.7-.2-.7-.8-2-1.3-2.9l.4-.2zm6.3 4.8c1.1-2 1.5-3 2.2-5 1.5.6 2.3 1 2.3 1.3 0 .2-.3.3-.9.3h-.2c-.6.9-.8 1.1-1.6 2-.1.1-.4.4-1 1.1-.2.2-.3.4-.5.6l-.3-.3zm1 18.8c2-.9 3-1.6 4.6-2.9.9-.8 1.4-1.3 2.1-2.2 1.9.9 2.5 1.2 2.5 1.4 0 .2-.4.3-.8.3H91c-4.1 2.7-4.5 2.9-7.7 3.8l-.2-.4zm10.8-22.6c-.8 1.5-1.1 2-2.2 3.6h4.5c.5-.5.6-.7 1.1-1.2.7.5.9.6 1.5 1.2.2.2.3.3.3.5s-.2.4-.9.7v8.5c0 1.8 0 2.1.1 3.6 0 .5-.2.5-1.6.5-.2 0-.3-.1-.3-.3v-.7h-6.9v.7c0 .2-.1.3-.2.3s-.8.1-1.3.1c-.3 0-.4-.1-.4-.4.1-2.8.1-3.9.1-9.6 0-2.4 0-3.4-.1-5.2 1 .4 1.3.6 2.2 1.2H91c.3-1.3.4-1.9.6-3.6h-2.9c-.7 0-1.3.1-1.8.2l-.2-1.1c.6.2 1.2.3 2 .3h7.6c.7-.8.9-1.1 1.7-1.9 1 .9 1.3 1.1 2.2 2.1.1.1.1.2.1.3s-.1.2-.3.2h-6.1zm2.5 4.3h-6.9v3.2h6.9v-3.2zm-6.9 3.9v3.4h6.9v-3.4h-6.9zm0 4v3.6h6.9v-3.6h-6.9zm4.4 5.3c2.4.8 3.8 1.5 5.1 2.4.7.4.9.8.9 1.7 0 .8-.3 1.4-.6 1.4-.2 0-.3-.1-.5-.4-1.2-1.7-2.4-2.9-5-4.8l.1-.3zm-13.6 35.5c3.2-1 6.4-2.3 9-3.6l.1.4c-1.6 1.2-3.2 2.1-6 3.6-1.9.9-3.1 1.5-6.4 2.8 0 .3-.1.6-.1.7 0 .4-.2.6-.4.6-.3 0-.5-.3-1.4-3.1 1.1-.2 1.4-.3 3.2-.8l-.3-15.1c0-.8-.1-1.5-.3-2.9.6.1 1.1.1 1.4.1 1.4.1 1.8.3 1.8.5s-.3.4-1.1.6l.5 16.2zm1 5.7c4.8-2.2 8-5 9.8-8.6 1.5-3 2.5-7.9 2.5-12.9 0-.7 0-1.2-.1-2.1 3 .4 3.4.5 3.4.8 0 .3-.4.5-1.2.6-.3 5.6-.5 7.7-1.1 10-.4 1.5-.9 2.7-1.7 4 1.5.9 3.1 2 4.5 3.1.9.7 1.3 1.3 1.3 2 0 1.1-.5 2.3-1 2.3-.3 0-.4-.2-.7-.8-1-2.3-2.4-4.3-4.3-6.2-1.2 2-2.5 3.5-4.3 4.8-1.9 1.5-3.8 2.3-6.9 3.2l-.2-.2zm1.7-20.7c2.1 1.2 3.3 2 4.4 3 1.1 1 1.5 1.5 1.5 2.2 0 1.1-.4 2.2-1 2.2-.3 0-.4-.1-.7-.9-.8-1.8-2.6-4.4-4.5-6.2l.3-.3zm10.4 42.8l1.8-2.2c1.2 1.1 1.6 1.4 2.8 2.4.1.1.1.2.1.2 0 .1-.1.2-.3.2H87.1v12.1h8.1c.8-1 1-1.3 1.8-2.3 1.3 1.1 1.7 1.4 2.9 2.5.1.1.1.2.1.2 0 .1-.1.2-.2.2H77.2c-.9 0-1.5.1-2.3.2l-.2-1.1c1 .2 1.4.2 2.5.2h7.9v-19.3c0-1.6-.1-2.5-.2-3.4.7.1 1.2.2 1.5.2 1.5.2 1.8.3 1.8.5s-.3.4-1 .6v8.7h6.2zm-6.6 48.8c3-.9 5-2 6.6-3.9 1.7-1.9 2.5-4.2 2.5-6.7 0-2.7-1.1-4.9-3.2-6.2-1.2-.8-3.1-1.3-4.8-1.3-.3 0-.5 0-1 .1.7 1 .9 1.5.9 2.3 0 2.2-1.6 6.3-3.7 9.7-1.8 2.8-3.1 4.2-4.2 4.2-.5 0-.9-.2-1.2-.6-.3-.3-.3-.4-.8-1.8-.3-.7-.4-1.1-1.2-2.6-.4-.9-.6-1.7-.6-2.5 0-1.8 1-3.8 2.5-5.5 2.3-2.4 6-3.9 9.6-3.9 2.8 0 5.4.9 7.2 2.6 1.8 1.7 2.7 3.9 2.7 6.6 0 3.5-2 6.6-5.6 8.5-1.6.9-3.1 1.3-5.5 1.7l-.2-.7zm-9.3-8.7c0 1.3.4 2.7 1.1 3.7.4.5.8.8 1.1.8.6 0 2-1.5 3.3-3.7 2.1-3.3 3.6-6.9 3.6-8.7 0-.4-.1-.7-.4-1.4-4.8.9-8.7 5-8.7 9.3zM18 189.1h2c.6-.7.8-1 1.3-1.6.9.8 1.1 1 2 1.8.1.1.1.2.1.3s-.1.1-.3.1H18v5c0 .3-.4.4-1.7.4-.3 0-.3-.1-.3-.2.1-2.3.1-3.1.1-4.7v-.5h-3.7c-.8 0-1.2.1-2.1.2l-.2-1.1c.8.2 1.3.2 2.2.2H16v-3.7h-2.6v1.4c0 .2 0 .2-.2.3-.3.1-.8.1-1.2.1-.3 0-.3-.1-.3-.3v-.1c0-1 .1-1.6.1-1.8 0-6.8 0-7.4-.2-8.8 1 .5 1.3.7 2.2 1.3H16v-3.6h-3.7c-.8 0-1.3.1-1.9.2l-.2-1c.8.2 1.2.2 2.1.2H16v-1.1c0-1.4 0-1.7-.1-2.7 2.8.4 3.2.4 3.2.7 0 .2-.3.3-1.1.6v2.4h2.5c.6-.8.8-1 1.4-1.7.9.8 1.2 1.1 2 2 .1.1.2.2.2.3 0 .1-.1.1-.2.1h-6v3.6h2.3c.5-.6.6-.7 1.1-1.3.7.5.9.7 1.5 1.3.2.2.3.3.3.4 0 .1-.2.4-.8.7v2.2c0 2 0 3.1.1 5.3v.1c0 .3-.6.4-1.5.4-.3 0-.4-.1-.4-.2v-1.1H18v3.9zm2.5-8.2v-2.7h-7.1v2.7h7.1zm-7.1.6v3.2h7.1v-3.2h-7.1zm13.2 3.2c-.3 2.2-1 4.2-2.1 6-.9 1.6-1.9 2.6-4 4.4l-.3-.3c2.3-2.5 3.4-4.4 4.1-7 .6-2.4.8-4.7.8-11.8 0-3.2 0-4.1-.1-5.6 1 .5 1.3.6 2.2 1.2H32c.4-.6.6-.7 1-1.3.7.5.9.7 1.5 1.3.2.2.3.3.3.4 0 .1-.2.4-.8.7V187c0 2.6 0 3 .1 5.5 0 .8-.2 1.1-.7 1.5-.6.4-1.1.6-2.2.8-.2-.8-.4-1-1-1.3-.6-.3-1.5-.6-3.2-.8v-.4c1.9.1 2.5.1 4.7.2h.1c.2 0 .3-.1.3-.3v-7.4h-5.5zm.4-6.4c0 3-.1 3.6-.3 5.7h5.6v-5.7H27zm5.2-.6v-5.5H27v5.5h5.2zm-9.9 44.7c.7 1.5 1.8 2.6 3.5 3.9 2.6-1.9 4.2-3.5 5-4.8 1.8 1 2.5 1.4 2.5 1.7 0 .2-.2.3-.5.3-.1 0-.4 0-.8-.1-2.7 1.8-2.9 2-5.7 3.2 2.4 1.6 5.3 2.4 9.4 2.8v.3c-1.4.4-1.7.8-2 2-2.2-.6-3.6-1.2-5.5-2.3-2.5-1.4-4.5-3.4-5.7-5.6-.2-.4-.3-.6-.6-1.5H18v5.9c2.9-.5 4.1-.8 6.3-1.3l.1.3c-2.7 1.3-4.7 2-10.2 3.8-.1.8-.2 1.1-.4 1.1-.1 0-.3-.1-.4-.3-.1-.2-.2-.6-.4-1.1-.3-.9-.4-1.4-.5-1.6 1.2-.1 2-.2 3.6-.5v-13.8c-2.2 1.5-3.6 2.3-5.8 3.4l-.2-.4c5.1-3.1 10-8.1 11.9-11.8.6.1 1.1.3 1.4.4 1.3.3 1.6.4 1.6.7 0 .3-.2.3-1.1.4 1 1.4 1.8 2.3 3.4 3.5 3.1 2.3 5.9 3.6 9.3 4.2v.4c-1 .1-1.4.5-1.8 1.8-2.1-.9-2.9-1.4-4.3-2.3l-.2.1.1 7.2c0 .3-.1.4-.2.4-.2.1-1.1.4-1.4.4-.1 0-.2-.1-.3-.3v-.4h-6.2zm5.5-7.9c.3-.3.4-.4.7-.6-.9-.8-1.7-1.5-2.6-2.5-1.3-1.4-1.9-2.2-2.7-3.6-2.3 2.9-3.8 4.5-6.3 6.3.3.2.4.3.6.5h4.2v-1.4c0-.5-.1-1-.2-2 1.9.1 2.4.2 2.7.4.2.1.3.2.3.3 0 .2-.3.4-1 .6v2h4.3zm.2 3.4v-2.7H17.8v2.7H28zm-10.2 3.8H28v-3.2H17.8v3.2zM10.2 262c2.7-2.2 5.2-4.9 6.9-7.8.9-1.5 1.1-2.2 1.1-2.8 0-.4-.4-.9-1.4-1.6.3-.1.4-.1.6-.1.5 0 1.5.4 2.3 1 1 .6 1.4 1.1 1.4 1.5 0 .3-.1.3-.6.8-.3.2-.4.4-.9 1.1-2.3 3.1-3.3 4.1-5.9 6.1-1.3 1-2.1 1.5-3.3 2l-.2-.2zm15-12.3c2.9 1.7 5.6 4.1 7.4 6.5.9 1.2 1.2 2 1.2 3 0 1.2-.4 2.1-1.1 2.1-.4 0-.5-.2-.9-1.3-1.4-3.8-3.8-7.2-6.9-9.9l.3-.4zm3.5-4c1 .6 1.8 1.1 2.5 1.7 1 .9 1.4 1.6 1.4 2.2 0 .7-.4 1.2-.9 1.2-.4 0-.4 0-1.3-1.8-.5-1-1.4-2.2-2.1-2.9l.4-.4zm2.8-1.6c1 .4 1.8 1 2.7 1.6 1.1.8 1.5 1.4 1.5 2.2 0 .7-.3 1.1-.7 1.1-.3 0-.4-.1-.6-.5-1-1.8-1.5-2.5-3.1-4l.2-.4zm-19.8 51.6c3.5-1.9 7.3-4.7 10.5-8 2.8-2.7 4.6-5 4.6-5.8 0-.5-.4-1-1.6-1.6.3-.1.4-.1.6-.1.8 0 1.5.3 2.4.8 1 .6 1.5 1.3 1.5 1.8 0 .3 0 .3-1.1 1.2-.3.2-.3.2-2.3 2.1-2 1.9-2.1 2-3.3 3 1.1.8 1.6 1.2 1.7 1.6.1.3.2 1.6.2 4.1 0 2 .1 3.8.1 5.3v1.6c0 1-.2 1.4-.6 1.4-.6 0-1.9-1.5-1.9-2.4 0-.2 0-.2.2-.7.3-.7.5-4.2.5-6.9 0-1.4-.1-2.2-.2-2.7-.1-.3-.2-.4-.6-.9-2 1.6-4 3-5.4 3.8-1.6.9-3.6 1.9-5 2.4h-.3zm1.9 27.2c1 .7 1.8 1 2.9 1 1.1 0 2.9-.4 4.8-1.1-.6-2.4-1-3.7-1.4-4.3-.4-.6-.9-.9-2.3-1 .4-.4.8-.5 1.6-.5.7 0 1.6.1 2.3.3.7.2 1.1.5 1.1 1v.3c-.1.4-.1.6-.1.9 0 .8.1 1.4.3 2.9 2.5-.9 3.5-1.3 4.2-1.9.4-.3.4-.3.7-.3.4 0 .9.1 1.3.3.4.2.6.4.6.6 0 .4-.4.6-1.6 1-3.2 1-3.4 1.1-5 1.6.3 1.4.6 3 1 4.5 1.5-.4 3.4-1 4.3-1.3.8-.3.9-.3 1.8-.8.3-.2.4-.2.6-.2 1.1 0 2.5.7 2.5 1.2 0 .2-.1.4-.3.4-.3.1-.3.1-2 .3-1.3.1-4.1.8-6.6 1.5.9 3.7 1.6 6.3 2 7.8.3.9.3 1.3.3 1.7 0 .6-.2 1-.6 1-.7 0-2.1-1.5-2.1-2.3l.1-.4v-.7c0-1-.3-2.6-1.1-6.6-2.1.6-4.6 1.6-5.8 2.3-.6.3-1 .5-1.2.5-1 0-3-1.7-3-2.5 0-.1 0-.2.1-.3.6.7 1.4 1 2.1 1 .9 0 1.3-.1 5.2-1.3.3-.1.8-.3 2.4-.7-.3-1.5-.8-3.5-1-4.5-2.9.8-3.6 1-4.6 1-1.3 0-2.6-.6-3.6-1.7l.1-.7zm.4 33.5c2.7.7 4.3 1.3 5.4 2.1.6.4 1 1.1 1 1.9 0 .9-.3 1.6-.8 1.6-.3 0-.4-.1-1.2-1.1-1.4-1.8-2.4-2.7-4.6-4.1l.2-.4zm19.9 1.6c-1.4 2.6-3.1 4.8-5.9 7.5-2.6 2.5-4.3 3.9-7.9 6.4-1.3.9-1.5 1-1.7 1.3-.4.5-.6.7-1 .7-1.1 0-3.3-2.7-3.3-4.1 0-.2 0-.3.1-.6.6.8.6.9 1 1.2.4.4.8.6 1.1.6.5 0 1.3-.4 2.7-1.2 3.1-1.8 4.2-2.6 6.7-4.6 3.4-2.8 5.1-4.5 7.5-7.5l.7.3zm-20.4 44.4c2-1.7 3.9-3.9 5.9-6.8 1.1-1.7 1.8-3.2 1.8-3.8 0-.4-.1-.6-.5-1-.3-.3-.3-.3-.7-.5-.3-.2-.3-.2-.5-.3.3-.1.4-.1.5-.1.6 0 1.5.3 2.3.8.9.5 1.3 1 1.3 1.4 0 .3 0 .4-1.5 2.5.4.1.5.1.8.1.5 0 1.9-.2 3.3-.6 1.2-.3 1.6-.4 2.2-.8.2-.1.3-.2.5-.2.7 0 2.3 1.5 2.3 2.1 0 .2-.1.4-.4.7-.5.4-.6.7-1.3 2-2.5 4.8-4.7 7.5-8.3 10.6-2.4 2-4.8 3.5-6.9 4.4l-.2-.4c2.2-1.4 3.9-2.7 6.2-5 3.4-3.4 6-7.2 7.6-11.1.3-.6.4-1.2.4-1.4 0-.1-.1-.2-.3-.2-.4 0-2.2.4-3.6.9-.5.2-.7.2-.9.2-.6 0-1.2-.3-1.7-.8-2.3 3.2-5 5.8-8.1 7.7l-.2-.4zm16.4-13.5c1 .6 1.8 1.1 2.5 1.7 1 .9 1.4 1.6 1.4 2.2s-.4 1.2-.9 1.2c-.4 0-.4 0-1.2-1.8-.5-1-1.4-2.2-2.2-2.9l.4-.4zm2.9-1.6c1 .5 1.8 1 2.7 1.6 1.1.8 1.4 1.4 1.4 2.2 0 .7-.3 1.1-.7 1.1-.3 0-.4-.1-.6-.6-1-1.8-1.5-2.5-3.1-4l.3-.3z"/></g><line x1="87" y1="5.1" x2="87" y2="65.1" fill="none" stroke="#76544b" stroke-miterlimit="10"/><g><path class="st0" d="M81.3 107.9c1.5.1 2.4.4 3.4.8 1.6.9 2.4 2.6 2.1 4.6-.5 3.7-3.9 6.1-8.5 6.1-4 0-6.8-1.8-6.4-4.3.1-1 .8-1.4 2-1.4.9 0 1.2.3 1.1 1.1-.1 1.5-.1 2 .4 2.7.5.7 1.6 1.1 2.9 1.1 3.1 0 5.1-2 5.6-5.3.3-2.1-.2-3.6-1.5-4.3-.8-.4-2.1-.7-3.5-.7h-1.4l.1-1H79c1.2 0 2.5-.3 3.5-.9 1.3-.7 2.1-2.1 2.3-3.8.2-1.2 0-2.2-.4-3-.5-1-1.5-1.5-3-1.5-2.3 0-3.7 1.2-4.2 3.5-.2 1.1-.5 1.4-1.6 1.4s-1.6-.3-1.5-1.1c.4-2.5 3.7-4.6 7.4-4.6 3.9 0 6.5 2.2 6.1 5.2-.2 1.7-1.4 3.1-3.1 4-.9.4-1.8.7-3.2 1v.4zm10.8-7.2c1.4-2.1 3.8-3.3 6.5-3.3 2.6 0 4.7 1.2 5.5 3.3.9 2 1.1 4.8.7 7.7-.4 2.9-1.4 5.6-2.8 7.7-1.4 2.1-3.8 3.3-6.4 3.3-2.6 0-4.7-1.2-5.6-3.3-.9-2-1.1-4.8-.7-7.7.3-2.9 1.3-5.6 2.8-7.7zm3.5 17.9c3.3 0 5.2-3.1 6.2-10.2s0-10.2-3.3-10.2-5.2 3.1-6.2 10.2c-1.1 7.1-.1 10.2 3.3 10.2z"/></g></svg>