<svg version="1.1" id="レイヤー_1" xmlns="http://www.w3.org/2000/svg" x="0" y="0" viewBox="0 0 114 419" xml:space="preserve"><g><g><path d="M48.7 210.9v1.9c0 .4-.2.5-1 .5h-.6c-.3 0-.4-.1-.4-.4.1-3.6.1-6 .1-10.3 0-4 0-6.3-.1-8.2 2.7.4 3 .5 3 .8 0 .2-.2.4-1 .6v14.4h7.6v-17.8c0-.8-.1-2.5-.1-3.3 2.6.3 2.7.3 3.1.5.2.1.3.2.3.3 0 .2-.1.3-1.2.6v19.6h8.1v-12.9c0-1-.1-1.8-.2-2.9.6.1 1.1.1 1.5.2 1.4.1 1.9.3 1.9.6s-.3.4-1.1.8l-.1 8.1c0 1.6 0 2.9.1 8.8 0 .4-.2.5-1 .5H67c-.3 0-.4-.1-.4-.4v-2.2H48.7zm-3.3 21.8c1 .2 1.5.3 2.5.3h4.6c.5-.6.6-.8 1.1-1.3.7.6 1 .8 1.7 1.4.3.2.3.4.3.5 0 .2-.3.4-1.1.7-1.3 3.8-2.4 6-4.1 8.3-1.6 2.1-3.3 3.6-5.9 5.3l-.3-.4c2.3-2.1 3.6-3.6 4.9-5.7 1.5-2.4 2.5-4.8 3.4-8.1h-4.6c-1 0-1.6.1-2.2.2l-.3-1.2zm22.2-.9c-2 2.2-3.2 3.3-5.8 5.2 1 1.7 2.1 3.1 3.4 4.3 1.7 1.6 3.1 2.5 5.5 3.5v.4c-1.4.2-1.6.4-2.3 1.9-2-1.4-3.2-2.4-4.7-4.4-2.3-2.9-3.6-5.8-4.6-10l-.8-4 .1 10.8.1 8c0 .8-.1 1.1-.4 1.5-.5.5-1.3.8-3 1.1-.1-.9-.3-1.2-.9-1.5-.6-.3-1.5-.6-3.6-.9v-.4c3.4.2 3.5.2 5.3.3.4 0 .5-.1.5-.5v-17.9c0-1.7 0-2.5-.1-4.2 3.3.5 3.3.5 3.3.8 0 .3-.3.4-1.3.7.5 3.8 1.5 7.2 3 10.1 1.1-1.1 1.5-1.7 2.1-2.6 1.2-1.6 1.9-2.9 2.4-4.2 2.1 1.1 3 1.6 3 1.8 0 .3-.3.3-1.1.3h-.1zm-10.3 52.3c3-.9 5-2 6.6-3.9 1.7-1.9 2.5-4.2 2.5-6.7 0-2.7-1.1-4.9-3.2-6.2-1.2-.8-3.1-1.3-4.8-1.3-.3 0-.5 0-1 .1.7 1 .9 1.5.9 2.3 0 2.2-1.6 6.3-3.7 9.7-1.8 2.8-3.1 4.2-4.2 4.2-.5 0-.9-.2-1.2-.6-.3-.3-.3-.4-.8-1.8-.3-.7-.4-1.1-1.2-2.6-.4-.9-.6-1.7-.6-2.5 0-1.8 1-3.8 2.5-5.5 2.3-2.4 6-3.9 9.6-3.9 2.8 0 5.4.9 7.2 2.6s2.7 3.9 2.7 6.6c0 3.5-2 6.6-5.6 8.5-1.6.9-3.1 1.3-5.5 1.7l-.2-.7zm-9.2-8.7c0 1.3.4 2.7 1.1 3.7.4.5.8.8 1.1.8.6 0 2-1.5 3.3-3.7 2.1-3.3 3.6-6.9 3.6-8.7 0-.4-.1-.7-.4-1.4-4.9.9-8.7 5-8.7 9.3zm-.2 31.1v16.3c0 .2-.1.3-.3.3-.2.1-.9.1-1.3.1-.3 0-.3-.1-.4-.3.1-2.4.1-6.8.1-13.9 0-7.3 0-9.8-.1-11.4.8.5 1.1.7 2 1.3h5.7c.5-.6.7-.7 1.1-1.3.7.6.9.7 1.5 1.3.2.2.3.3.3.4 0 .2-.2.4-.8.7v3.1c0 1.5 0 2.4.1 4.1 0 .2-.1.3-.2.4-.1.1-.8.1-1.4.1-.2 0-.3-.1-.3-.3v-.8h-6zm5.9-6.9h-6v2.7h6v-2.7zm0 3.4h-6v2.9h6V303zm0 17.4c0 .2-.1.2-.3.3-.2.1-.9.1-1.1.1-.3 0-.3-.1-.4-.3 0-2.3.1-3.6.1-4.8 0-3.3 0-5.9-.1-7 .9.5 1.2.7 2.1 1.2h6.6c.5-.5.7-.6 1.2-1.1.6.5.8.6 1.4 1.2.3.2.3.3.3.4 0 .2-.1.3-.9.7v3.1c0 1.9 0 3 .1 5.2 0 .3-.1.3-.3.4-.2.1-.8.1-1.2.1-.3 0-.4-.1-.4-.3v-1h-7.1v1.8zm7.1-9.8h-7.1v3.1h7.1v-3.1zm-7.1 3.8v3.6h7.1v-3.6h-7.1zm7.1-7.9v.7c-.1.3-.3.4-1 .4s-.8-.1-.8-.4c.1-1.8.1-2.6.1-4.2 0-4 0-4.3-.1-5.3.9.5 1.2.7 2 1.2H67c.5-.6.7-.7 1.1-1.3.8.6 1 .7 1.7 1.3.2.2.3.3.3.4 0 .2-.1.3-.9.8v20.8c-.1 1.3-.6 1.7-3 2.2-.3-.7-.5-1-1-1.3-.3-.2-.7-.3-1.5-.4-1-.2-1.5-.3-1.6-.3v-.4c2.3.1 2.8.2 4.6.2.4 0 .5-.1.5-.4v-14h-6.3zm6.3-6.9h-6.3v2.7h6.3v-2.7zm0 3.4h-6.3v2.9h6.3V303z" fill="#200701"/></g></g><line x1="57.5" y1="95.8" x2="57.5" y2="155.8" fill="none" stroke="#76544b" stroke-miterlimit="10"/></svg>