<svg version="1.1" id="レイヤー_1" xmlns="http://www.w3.org/2000/svg" x="0" y="0" viewBox="0 0 114 419" xml:space="preserve"><g><path d="M94.6 106.2c.5-.6.6-.8 1.1-1.5.9.6 1.1.8 1.9 1.3.3.2.4.4.4.5 0 .3-.3.4-1.1.8v6.9c0 1.1 0 1.7.1 5.1 0 .3-.1.4-.2.5-.2.1-.8.2-1.4.2-.4 0-.5-.1-.5-.3v-1.1H78.2c-1.1 0-1.5 0-2.5.2l-.2-1c.9.1 1.5.2 2.6.2h16.7v-5.5H79.5c-1.2 0-1.6 0-2.5.1l-.2-1c.9.1 1.5.2 2.7.2h15.4v-4.9H78.2c-.7 0-1.2 0-2.2.1l-.2-1c.7.1 1.8.2 2.5.2h7.2v-8c0-1.1 0-1.8-.2-3.2.7.1 1.2.1 1.5.2 1.5.2 1.9.3 1.9.6s-.4.5-1.3.6v9.7h7.2zm-17.9-9.6c1.5 1.1 3.1 2.6 4.4 4.2.5.6.8 1.4.8 1.9 0 1-.7 2.4-1.3 2.4-.3 0-.3-.1-.6-1.1-1.1-3.1-1.6-4.1-3.6-7l.3-.4zm17.6-.3c3.2 1 3.3 1 3.3 1.3 0 .3-.4.4-1.6.6-2.7 3.9-3.5 4.8-5.8 7.3l-.4-.2c.9-1.3 1.3-2.1 3-5.4.5-1.1.5-1.1 1.1-2.5l.4-1.1zm-14.4 43.8c.6-.7.7-1 1.3-1.7 1 1 1 1 2 1.9.1.1.1.2.1.3 0 .1-.1.2-.3.2h-4v8.9c1.3-.4 2.1-.8 4.2-1.6l.2.4c-1.5 1-2.1 1.3-3.9 2.3-2.2 1.1-2.3 1.2-4 2.1-.1.3-.1.5-.1.6-.1.4-.2.7-.4.7-.3 0-.3 0-1.1-3 1-.2 1-.2 3.4-1v-9.5h-1.6c-.6 0-1.2.1-1.8.2l-.2-1c.5.1 1.2.2 2 .2h1.6v-4.6c0-.9 0-1.2-.2-3.6 2.7.3 3.1.4 3.1.7 0 .2-.3.4-1.2.6v6.9h.9zm9.5-.3c0-6.7 0-6.7-.1-8.4 2.7.4 2.7.4 2.9.5.1 0 .1.1.1.2 0 .2-.1.3-1.2.7v6.4l3.9-1.5c.3-.7.4-.9.8-1.5.9.5 1.2.7 2 1.1.3.2.3.3.3.4 0 .2-.3.5-.9.9-.2 5-.3 7.4-.7 9-.1.7-.5 1.3-1 1.6-.4.3-.8.4-1.8.6-.1-1.2-.6-1.6-2.2-1.9v-.4c1 .1 1.8.2 2.3.2.8 0 1-.2 1.1-1.8.3-2 .3-3.9.3-7.6l-4.3 1.6v4.7c0 2.6 0 3.6.1 6.5 0 .4-.4.5-1.4.5-.4 0-.5-.1-.6-.4.1-5.2.1-6.2.1-8.5v-2.2l-3.4 1.3v11.4c0 .4 0 .5.2.6.3.1 1.6.2 3.9.2 1.6 0 4.6-.1 5.2-.1 1-.1 1.1-.1 1.5-.8.4-1.1 1.1-3.1 1.8-5.5l.4.1-.4 4.9c-.1.4-.1.4-.1.5 0 .3.1.3.6.6.2.1.4.3.4.6 0 .6-.6 1.1-1.7 1.2-.8.1-.8.1-4.6.2h-3.6c-4.8 0-5.3-.2-5.3-1.9l.1-6.2v-5.1l-1 .4c-.8.3-1.1.4-1.7.9l-.6-.9c.8-.1.9-.2 2-.6l1.3-.4v-3.7c0-1.5 0-2.2-.1-3.5 2.8.4 3 .4 3 .7 0 .2-.3.4-1.1.6v5.2l3.5-1.4zm4.8 31c.7-.8 1-1 1.7-1.7 1.1.8 1.5 1.1 2.5 2 .1.1.1.1.1.2s-.1.2-.2.2H87.2v2.6h4.9c.7-.7.9-.9 1.6-1.5 1 .7 1.3 1 2.3 1.8.1.1.1.2.1.2 0 .1-.1.2-.2.2h-8.6v2.7h7.9c.8-.8 1.1-1.1 1.8-1.9 1.2.9 1.5 1.2 2.6 2.1.1.1.1.2.1.3 0 .1-.1.1-.3.1H87c-1.2 1.1-2.5 2.2-3.7 3.1.8.5 1 .8 1 1.4 0 .9-.3 1.4-.6 1.4-.2 0-.3-.1-.6-.4-.1-.1-.1-.1-1.3-1.4-.5-.6-1.3-1.1-3-2.4l.2-.3c.6.2 1 .4 1.3.5 1.4.5 1.8.7 2.5 1 1.1-1.4 1.4-1.9 1.9-2.7h-8.1c-.8 0-1.7.1-2.3.2l-.2-1.1c.7.1 1.7.2 2.4.2h8.8v-2.7h-6.1c-.7 0-1.5.1-2.1.2L77 174c.5.1 1.6.3 2.2.3h6.1v-2.6h-7.8c-.8 0-1.9.1-2.4.2l-.1-1.1c.5.1.5.1 2.5.3h7.8v-.4c0-1.2 0-1.8-.1-3 2.8.3 3.2.3 3.2.6s-.1.3-1.3.8v2h7.1zm-19.8 21.5c1.8-1.1 2.8-1.8 4.2-3.2 1.3-1.2 1.7-1.6 2.3-2.4 2.1.9 2.6 1.1 2.6 1.3 0 .2-.3.3-.6.3-.1 0-.4 0-.8-.1-3.3 2.5-4.5 3.1-7.6 4.3l-.1-.2zm11-6.6c-6.4.4-6.4.4-9 .6-.2 1-.3 1.2-.5 1.2-.3 0-.4-.5-.8-3 1.4.1 4.6.1 6.2.1.2 0 1.1 0 2.8-.1 1.8-1.4 1.8-1.4 2.6-2.1 1.7-1.4 3.1-2.8 3.9-3.7 2.1 1 2.7 1.4 2.7 1.6 0 .1-.2.3-.4.3-.4 0-.8-.1-1.2-.2-2.2 1.6-3.7 2.5-6.6 4.1 4.8-.1 4.8-.1 9.1-.4-.7-.6-1.1-.9-2.3-1.7l.2-.3c2.2.9 4.2 1.8 5.2 2.5.6.4.8.8.8 1.7 0 .9-.3 1.5-.6 1.5s-.4-.1-1-1c-.5-.8-1-1.4-1.7-2.1-4.3.6-4.3.6-7.4.9v2.4c0 1.8 0 3.4.1 4.9-.1.4-.4.4-1.7.4-.3 0-.4-.1-.4-.3v-.1c0-.6 0-.6.1-1.8.1-1.3.1-1.7.1-3.1v-2.3zm4 1c3.1.8 4.5 1.4 6 2.3.8.5 1.1 1 1.1 2 0 .8-.2 1.4-.5 1.4-.2 0-.3-.1-.6-.4-2.1-2.2-3.4-3.3-6.1-4.9l.1-.4zm-8 23.6c.6-.7.8-1 1.3-1.7.9.8 1.2 1.1 2.1 1.9.1.1.1.2.1.3 0 .1-.1.2-.3.2h-3.8v2.5c1.5.7 2.3 1.1 3.1 1.7.8.5 1 .8 1 1.4 0 .9-.3 1.7-.7 1.7-.2 0-.3-.1-.8-.8-.8-1.2-1.7-2.4-2.7-3.3v6.4c0 4.3 0 4.8.1 8.5 0 .2-.1.3-.2.4-.1.1-.9.1-1.5.1-.2 0-.3-.1-.3-.3v-.1c0-1.3.1-2.4.1-3.1.1-2.7.1-2.7.1-7.3l.2-5c-1.9 4.6-2.9 6.3-5.8 9.6l-.3-.3c1.4-2.2 2.2-3.8 3.4-6.4 1-2.4 1.3-3.3 2-5.9H76c-.4 0-.8 0-1.5.1l-.2-1c.6.1 1.1.2 1.6.2h3.2v-3.5c0-.8 0-1.4-.1-2.8.6.1 1 .1 1.3.2 1.7.2 2 .3 2 .6s-.2.4-1.5.7v4.8h.6zm13.2 10.8c0 1.3.1 2.4.1 3.1 0 1.1 0 1.1.1 2.1 0 1-.1 1.3-.4 1.7-.4.6-1.2.9-2.8 1.2-.1-.6-.3-.9-.7-1.1-.3-.1-.9-.3-1.6-.5 0 0-.4-.1-1.2-.2l-1.3-.2v-.4c2.4.1 2.7.1 5.6.2.4 0 .5-.1.5-.5l-.1-10.8V213c-1.5 2.7-2.5 4.2-4.6 6.5-2 2.2-3.3 3.3-5.7 5l-.3-.3c3.2-2.9 4.6-4.5 6.7-7.6 1.4-2.1 2-3.2 3-5.4h-4.6c-.4 0-1 .1-1.6.2l-.2-1c.7.1 1.1.2 1.7.2h5.3v-3.5c0-1.3 0-1.7-.2-2.7.6.1 1 .1 1.3.1 1.6.1 2.2.3 2.2.6s-.3.4-1.4.8l.1 4.8h1.2c.6-.9.8-1.1 1.5-1.9 1.1.9 1.5 1.2 2.5 2.2.1.1.1.2.1.2 0 .1-.1.2-.3.2h-5l.1 9.7zm-13.1 32.3c-.1.3-.5 2-1.3 5.3-.4 1.7-.5 2.1-.5 3 0 .8 0 1-.1 1.2-.1.3-.4.5-.7.5-.5 0-.9-.4-1.2-1.1-.6-1.5-1-3.7-1-6 0-.8.1-1.9.2-3 .2-1.6.2-1.6 1-5.3.3-1.3.4-2 .4-2.6 0-.9-.2-1.6-.8-2.6.6 0 1.1.4 1.9 1.4.7.9 1 1.6 1 2.2 0 .4 0 .6-.6 1.7-.6 1.2-1.2 3.1-1.5 4.5-.3 1.1-.4 2.3-.4 3.5 0 1.5.1 2.5.5 3.7.5-1 .7-1.5 1-2.4l1.5-3.9.6-.1zm3.5 1.4c-.1.6-.1.8-.1 1.2 0 3.1 1.8 4.3 6.1 4.3.8 0 1.6-.1 2.4-.2.6-.1.6-.1 1.5-.4.2-.1.3-.1.4-.1.7 0 1.8 1 1.8 1.7 0 .3-.2.6-.6.7-.6.2-1.9.3-3.5.3-3.5 0-6-.6-7.3-1.7-1-.9-1.5-2.1-1.5-3.6 0-.7.1-1.3.3-2.2h.5zm-.1-8.9c1 .6 1.6.8 2.6.8 1.7 0 4.5-.6 5.6-1.3.4-.2.4-.2.6-.2.2 0 .6.1 1 .4.6.3.9.7.9 1 0 .4-.2.5-.8.6-1.8.3-2.9.5-4 1-.9.4-2.5 1.3-3.6 2l-.3-.3c1.3-1.1 2.2-1.8 2.7-2.2-.6 0-.9.1-1.1.1-1.6 0-2.6-.4-3.8-1.6l.2-.3zM15.6 182c-.1.6-.1.9-.1 1.3 0 3.3 2.1 4.9 6.6 4.9 2.2 0 4.5-.4 6.2-1 .2-.1.3-.1.5-.1.4 0 1.1.3 1.5.6.4.3.6.6.6 1s-.3.7-.9.9c-1.3.3-4 .6-6.5.6-3.1 0-5.1-.4-6.5-1.3-1.4-.9-2.3-2.7-2.3-4.4 0-.7.1-1.4.4-2.4l.5-.1zm.8-11.1c1.4 1 2.4 1.2 4.3 1.2 1.8 0 4.2-.3 5.8-.8.2-.1.4-.1.5-.1.7 0 1.7.8 1.7 1.5 0 .5-.2.6-2 1-1.1.2-1.3.3-4.1 1.4-.7.3-.7.3-2.3 1-.6.2-.6.3-1.1.4l-.2-.5c.9-.5 1.3-.8 2-1.2 1.9-1 1.9-1 2.4-1.3-.6.1-1.6.1-2.1.1-1 0-2.3-.3-3.2-.8-.7-.4-1.2-.8-2-1.6l.3-.3zm-5 40.4c1.1 1.2 1.9 1.5 3.1 1.5 1.1 0 2.3-.2 3.6-.5.6-1.8 1-3.8 1-4.8 0-.8-.4-1.2-2-1.7.4-.2.5-.3.9-.3.6 0 1.6.2 2.4.5.8.3 1.3.7 1.3 1.1 0 .2 0 .2-.3.7-.4.5-1 2.2-1.7 4 1.4-.5 2.6-1.1 3.2-1.7.4-.4.6-.5.8-.5.4 0 1 .1 1.5.3.3.1.4.3.4.5 0 .5-.4.8-1.6 1.3-1.3.6-3.1 1.2-4.9 1.7-.2.6-.3 1-.4 1.1-.9 2.8-1.9 5.7-2.9 8.7-1.1 3.3-1.5 4-2.1 4-.3 0-.5-.2-.6-.6-.2-.4-.4-1.1-.4-1.6 0-.4 0-.5.6-1.4 1.3-1.8 2.6-4.8 4.4-10-1.1.2-1.9.3-2.7.3-1.7 0-2.8-.7-3.8-2.5l.2-.1zm11.1 9.7v.9c0 1.6.8 2.8 2.1 3.4.8.3 1.9.5 3 .5s1.8-.1 2.7-.4c.2-.1.4-.1.5-.1.3 0 1 .3 1.4.7.3.3.5.5.5.8 0 .6-1.1.9-3.3.9-2.2 0-3.9-.3-5.2-.9-1.5-.7-2.4-2.2-2.4-4.1 0-.6.1-1.1.3-1.8l.4.1zm.8-5.2c2-1.2 4.3-1.9 6.5-1.9.6 0 1.3.2 1.8.5.3.2.4.5.4.8 0 .5-.3.6-1.1.7-1 0-1.3.1-2.2.6-.4.2-.7.4-.9.5l-1 .7c-.1.1-.3.2-.6.3l-.2-.3.4-.4.9-.8c.2-.2.6-.6 1.4-1.3h-.2c-1.5 0-3.4.4-5.1 1l-.1-.4zm4.9-10.1c1 .6 1.8 1.1 2.5 1.7 1 .9 1.4 1.6 1.4 2.2 0 .7-.4 1.2-.9 1.2-.4 0-.4 0-1.2-1.8-.5-1-1.4-2.2-2.2-2.9l.4-.4zm2.9-1.6c1 .4 1.8 1 2.7 1.6 1.1.8 1.4 1.4 1.4 2.2 0 .7-.3 1.1-.7 1.1-.3 0-.4-.1-.6-.5-1-1.8-1.5-2.5-3.1-4l.3-.4zm-7.5 58.8c5-1.8 7.8-4.8 7.8-8.5 0-2.7-1.7-4.6-4.3-4.6-2.5 0-5.7 1.5-8.7 3.9 0 2.3.2 5.3.3 6.4.1.7.1.8.1 1.1 0 .9-.2 1.9-.6 2.6-.2.4-.4.6-.7.6-.2 0-.5-.1-.6-.4 0-.1 0-.1-.3-.8-.3-.8-.4-1-1-1.7-.8-.9-1.3-1.4-2.1-2.2-.1.3-.2.4-.3.6-.4.8-.6 1-.8 1-.4 0-.8-1.1-.8-2 0-.4.1-.6.5-1s.8-.8 1.2-1.4c.8-1 3.4-4.8 4.1-5.9.1-1 .1-1.7.1-2-1.2.7-1.2.7-2.7 1.8-.5.4-.9.5-1.1.5-.5 0-1-.4-1.5-1-.4-.5-.7-1.2-.7-1.5 0-.1.1-.3.1-.5.5.9 1.1 1.3 1.7 1.3.6 0 2.6-.8 4.3-1.8.1-.5.1-2.2.1-2.8 0-1.8-.2-2.2-1.7-3.2.2-.1.3-.1.4-.1.6 0 1.5.4 2.3 1 .7.5 1 .9 1 1.3 0 .2 0 .2-.3 1.1-.3.7-.4 1.4-.6 2.3.7.6 1 1 1 1.3 0 .2 0 .2-.5.7-.3.4-.6.9-1 1.8-.1.4-.1.5-.1.9 1.6-.9 2-1.1 2.9-1.5 2-1 3.9-1.5 5.7-1.5 3.7 0 6.4 2.5 6.4 5.8 0 2.8-1.6 5.1-4.6 6.8-1.6.9-3.1 1.3-5.2 1.7l.2-.1zm-8.1-6.6c-1.4 2.3-1.4 2.3-1.6 2.7 1.3.9 1.3 1 3.4 2.2 0-1.8.1-6 .2-8.3-1.7 2.9-1.7 3-2 3.4zm7.4 39.3c3.5-.7 5.8-1.7 7.8-3.4 1.5-1.3 2.4-2.9 2.4-4.5 0-2.4-1.7-4.1-4.2-4.1-2.7 0-6.3 1.5-9.3 3.8-.5.4-.8.5-1.1.5-1 0-2.7-2-2.7-3.3 0-.2.1-.3.2-.6.4 1 1.1 1.5 1.7 1.5.4 0 1-.2 2.5-.8 2.5-1 4.8-1.7 6.4-2 .7-.1 1.3-.2 2.2-.2 3.7 0 6.2 2.2 6.2 5.4 0 2-1.2 4-3 5.3-2.2 1.5-4.7 2.3-8.9 2.8l-.2-.4zm-11.3 24.5c1.1 1.2 1.9 1.5 3.1 1.5 1.1 0 2.3-.2 3.6-.5.6-1.8 1-3.8 1-4.7 0-.9-.4-1.2-2-1.8.4-.2.5-.3.9-.3.6 0 1.6.2 2.4.5.8.3 1.3.7 1.3 1.1 0 .2 0 .2-.3.7-.4.5-1 2-1.7 4 1.6-.6 2.6-1.1 3.2-1.7.4-.4.6-.5.8-.5.4 0 1 .1 1.5.3.3.1.4.3.4.5 0 .5-.4.8-1.6 1.4-1.3.6-3.1 1.2-4.9 1.6-.3 1-.3 1-1.2 3.6-.6 1.7-.6 1.7-2.1 6.2-1.1 3.3-1.5 4-2.1 4-.3 0-.5-.2-.6-.6-.2-.4-.4-1.1-.4-1.6 0-.4 0-.5.6-1.4 1.4-2 2.5-4.5 4.4-10-1.1.2-1.9.3-2.7.3-1.7 0-2.8-.7-3.8-2.5l.2-.1zm11.2 9.7v.9c0 1.6.8 2.8 2.1 3.4.8.3 1.9.5 3 .5s1.8-.1 2.7-.4c.2-.1.4-.1.5-.1.3 0 1 .3 1.4.7.3.3.5.5.5.8 0 .6-1.1.9-3.3.9-2.2 0-3.9-.3-5.2-.9-1.5-.7-2.4-2.2-2.4-4.1 0-.6.1-1.1.3-1.8l.4.1zm.7-5.2c2-1.2 4.3-1.9 6.5-1.9.6 0 1.3.2 1.8.5.3.2.4.5.4.8 0 .4-.3.6-1.1.6-1 .1-1.4.1-2.2.6-.6.3-.6.3-1.5 1l-1 .6-.2-.3 1.3-1.3c.3-.2.5-.4 1.4-1.3-1.8 0-3.3.3-5.3 1l-.1-.3zm-6.6 37.2c1.1.5 1.6.8 2.4 1.2.6.4 1.1.8 1.3 1.1.2.2.2.4.2.9 0 .8-.3 1.6-.7 1.6-.2 0-.4-.2-.5-.5-.8-1.7-1.5-2.7-2.7-3.6 0 .7.1 4.9.1 12.4-.1.2-.1.3-.4.3-.4.1-.8.1-1.1.1-.4 0-.6-.1-.6-.5.1-2.3.1-2.3.2-7.4l.2-5.2c-1 2.5-1.7 3.8-2.8 5.7-.9 1.5-1.4 2.2-2.5 3.4l-.3-.3c1.6-2.6 2.2-3.9 3.4-6.7.8-1.9 1-2.6 1.4-4.2h-3c-.3 0-.9.1-1.2.2l-.1-1.1c.4.1 1 .3 1.3.3h3.6v-6.1c0-1.1-.1-1.9-.3-3.7 2.7.3 3.1.4 3.1.7 0 .3-.3.4-1.2.6v8.5h1.7c.5-.8.7-1 1.3-1.7.9.8 1.2 1 2 1.9.1.1.1.2.1.2 0 .1-.1.2-.4.2h-4.7v1.7zm-6-9.9c.7.8 1.1 1.3 1.9 2.6.5.8.7 1.3.7 1.7 0 .8-.6 1.7-1.1 1.7-.2 0-.3-.1-.4-.4 0-.1 0-.1-.3-1.5-.2-1.1-.7-2.8-1.2-4.1h.4zm6.8 6.1c.6-1.7.8-2.2 1.2-3.8s.4-1.7.5-2.5c2.1.6 2.6.8 2.6 1 0 .2-.3.3-.9.4-.5 1-.6 1.2-1.5 2.7-.8 1.2-1 1.6-1.7 2.3l-.2-.1zm14.7 7.5c.5-1 .7-1.2 1.2-2.2 1.1.6 1.5.8 2.4 1.4.3.2.4.4.4.5s-.1.3-.3.3l-4.5.9v2.7c0 .8 0 2 .1 3.6v2c0 .2-.1.3-.2.3-.1.1-.9.2-1.4.2-.3 0-.5-.1-.5-.4v-8l-7.8 1.5c-.4.1-1 .3-1.4.4l-.4-1h.3c.3 0 1-.1 1.3-.1l8-1.6v-5.9c0-5.8-.1-9-.2-10.5 2.5.3 3.3.4 3.3.8 0 .3-.3.4-1.2.7v5.5c0 1.7 0 6 .1 9.1l.8-.2zm-10-6.1c2.2.8 3.6 1.5 4.3 2 .4.3.4.6.4 1.2 0 .8-.3 1.6-.7 1.6-.3 0-.5-.2-.9-.8-.8-1.2-1.6-2.2-3.4-3.8l.3-.2zm.9-7c1.7.8 2.6 1.2 3.4 1.8.8.5 1 1 1 2 0 .9-.3 1.5-.7 1.5-.3 0-.3-.1-.8-1-.8-1.4-1.4-2.3-3.1-3.9l.2-.4zM15.5 396h.5c.6-.7.7-.9 1.3-1.6.9.8 1.1 1 1.9 1.8.1.1.1.1.1.2s-.1.2-.3.2h-3.6v6.9c2-.9 2.7-1.3 4.3-2.2l.2.4c-2.3 1.9-5.5 3.9-8.4 5.5-.1.9-.2 1.2-.4 1.2-.3 0-.5-.5-1.5-2.7 1.4-.4 2.3-.8 3.9-1.4v-7.7H12c-.4 0-.8 0-1.7.1l-.2-1c.7.1 1.4.2 1.9.2h1.6V389H12c-.8 0-1.1 0-1.8.1l-.2-1c.7.2 1.1.2 2.1.2H16c.6-.7.8-.9 1.4-1.6.9.8 1.1 1 2 1.8.1.1.1.2.1.3 0 .1-.1.2-.3.2h-3.8v7zm11.9 7.5H31c.6-.8.8-1 1.5-1.7 1 .8 1.3 1.1 2.3 2 .1.1.1.1.1.2s-.1.2-.3.2h-7.1v5.2h4.7c.7-.8.9-1.1 1.6-1.9 1.1.9 1.4 1.2 2.4 2.1.1.1.1.2.1.2 0 .1-.1.2-.3.2H19.2c-.5 0-.9 0-2.2.1l-.2-1c.8.2 1.6.3 2.4.3h6.5v-5.2h-4c-.5 0-.8 0-2.2.1l-.2-1c1 .2 1.1.2 2.4.2h4v-4.6h-4v1.3c-.1.4-.2.5-.8.5-.9 0-1.1-.1-1.1-.4.1-2.5.2-4.8.2-8.8 0-3.1 0-3.6-.2-4.9 1 .5 1.2.7 2.1 1.3h9.7c.4-.6.6-.8 1.1-1.3.8.6 1 .8 1.7 1.3.2.2.3.3.3.4 0 .1-.1.2-.1.3-.1 0-.4.3-.9.6v3.1c0 3.3 0 5.2.2 7.6 0 .3-.1.4-.3.4-.1.1-1 .2-1.3.2-.3 0-.3-.1-.4-.4V399h-4.4v4.5zm-1.7-15h-4v4.6h4v-4.6zm0 5.3h-4v4.5h4v-4.5zm6.1-.7v-4.6h-4.4v4.6h4.4zm-4.4 5.2h4.4v-4.5h-4.4v4.5z" fill="#200701"/></g><line x1="86.6" y1="2.9" x2="86.6" y2="62.9" fill="none" stroke="#76544b" stroke-miterlimit="10"/></svg>