<svg version="1.1" id="レイヤー_1" xmlns="http://www.w3.org/2000/svg" x="0" y="0" viewBox="0 0 114 419" xml:space="preserve"><g><path d="M44.9 154.4c0 .4-.3.4-1.5.4-.4 0-.6-.1-.6-.3.2-5.5.2-10.4.2-15.1 0-3.7-.1-5.1-.2-7.3 1.1.7 1.5.9 2.5 1.6h18.3c.5-.7.7-.9 1.3-1.6.9.7 1.1.9 1.9 1.5.2.2.3.3.3.4 0 .2-.2.4-1.1 1v5.8c0 4.3 0 9.9.1 13.4 0 .3-.1.3-.3.4-.3.1-1 .2-1.3.2-.3 0-.5-.1-.5-.3v-2.2H45v2.1zm0-20.1v17.4h19v-17.4h-6.1V145c0 .2.1.2.3.3h1.1c1.1 0 1.3-.1 1.4-.3.1-.3.1-.3 1.1-5.2h.4v4.6c0 .6 0 .6.5.9.4.2.5.3.5.6 0 .4-.3.7-1 .8-.5.1-2.1.2-3.2.2-1.2 0-1.9-.1-2.4-.3-.4-.2-.6-.6-.6-1.4v-11h-3.6c-.1 3.6-.3 5.7-1 7.7-.6 1.8-1.8 3.6-3.4 5.2-.7.6-1 .9-2 1.5l-.3-.3c1.5-1.3 2.7-3.1 3.5-5.2.8-2.2 1.2-4.8 1.2-8.2v-.6h-5.4zM55 173.1h7.3c.8-.9 1.1-1.1 1.9-2 1.1.9 1.5 1.2 2.5 2.1.1.1.2.2.2.3 0 .1-.1.2-.3.2h-11c1.2 1.1 1.9 1.7 3 2.2 1.4.8 3.4 1.5 5.6 2 1 .2 1.8.4 3.5.6l-.1.4c-.9.2-1.2.5-1.8 1.9-2.8-.8-4.4-1.6-6.9-3.3-1.5-1.1-2.5-2-3.9-3.6v1.6c0 2 0 2 .1 2.7v.1c0 .3-.4.5-1.4.5-.3 0-.5-.1-.5-.3v-.1c.1-.9.1-2.2.1-2.7v-1.3c-2 2.2-3.4 3.2-6.1 4.8-1.9 1.1-3.1 1.7-5.4 2.4l-.1-.3c4.5-2.4 7.1-4.4 9.7-7.5H44c-.6 0-1.1.1-1.6.2l-.2-1.1c.6.2 1.1.3 1.8.3h9.2v-2.6c-2.6.3-5 .4-6.9.4-.4 0-1.3 0-2.3-.1v-.4c2.7-.2 5.7-.6 9.1-1.2 2.2-.4 4.6-1 6.2-1.5.7-.3 1.1-.4 2-.9 2 1.3 2.7 1.8 2.7 2.1 0 .2-.2.3-.4.3s-.6-.1-1.3-.3c-3.2.8-4.5 1.1-7.3 1.5v2.6zm2.7 6.6c.6-.4.8-.6 1.5-1 .8.6 1 .7 1.7 1.3.2.2.3.3.3.4 0 .3-.4.3-1.3.3-3.1 1.5-3.1 1.5-4.4 2 .4.1.6.1.6.3 0 .2-.3.3-1.1.5v1h7.6c.8-.9 1-1.1 1.7-2 1.1.9 1.5 1.2 2.6 2.2.1.1.2.2.2.3s-.1.2-.3.2H55.1v5.5c0 .6-.1.8-.5 1.1-.5.4-1.2.5-2.4.7-.1-.6-.3-.9-.8-1.2-.3-.2-1-.4-1.8-.5l-1.1-.2c-.3-.1-.7-.1-1-.2v-.5c2.5.1 3.4.1 5.5.2.3 0 .4-.1.4-.4v-4.5H44c-.4 0-1 .1-1.6.2l-.2-1.1c.7.2 1.1.3 1.8.3h9.3c0-.8 0-1.2-.1-2.2.8.1 1.1.2 1.6.3 1.5-.9 1.8-1.2 3.1-2.2h-8.8c-.4 0-.8.1-1.2.2l-.2-1c.5.1 1 .2 1.4.2h8.6zm-8.5 29.6c.8-1 .8-1 1.4-1.7.8.8 1.1 1.1 1.9 2 0 .1.1.1.1.2s-.1.1-.3.1H48v5.9c1.6-.5 2.2-.7 3.7-1.4l.2.4c-1.5.9-2 1.2-3.9 2.2v4c0 .7 0 2.3.1 5.1-.1.8-.2 1.1-.8 1.6-.5.4-1 .6-2.1.8-.1-1.3-.3-1.4-3.1-2.1v-.4c1.7.1 2.1.2 3.4.3h.2c.3 0 .4-.2.4-.4V218c-.9.4-.9.4-2.4 1.1-.1.8-.2 1.1-.4 1.1-.3 0-.6-.7-1.1-2.9 1-.1 2.7-.4 4-.8V210h-1.3c-1 0-1.7.1-2.5.2l-.2-1.1c1 .2 1.7.3 2.7.3h1.3V207c0-1.6-.1-2.6-.1-3.7.6.1 1 .1 1.3.2 1.4.1 1.9.3 1.9.6s-.3.4-1.2.6v4.7h1.1zm6 3.9c-.1 2.3-.1 2.7-.3 3.8-.6 5.4-2.2 8.5-6.2 11.5l-.3-.4c2.1-2.2 2.9-3.5 3.7-5.7 1-2.7 1.3-5.3 1.3-10.5 0-3.7 0-4.5-.1-5.9 1 .5 1.2.6 2.1 1.2 3.2-1 5.8-2.2 7.6-3.6.6.3 1 .6 1.3.7.6.3 1.1.6 1.1.6.4.2.6.4.6.5 0 .2-.2.3-.5.3-.4 0-.8-.1-1.3-.2-3.5 1.3-5.7 1.8-8.9 2.4 0 3.9 0 3.9-.1 4.8h8c.7-.8.9-1.1 1.6-1.9 1.1.9 1.5 1.2 2.5 2.2.1.1.1.1.1.2s-.1.2-.3.2h-5v7.3c0 4.9 0 4.9.1 7.7-.1.3-.3.4-1.3.4h-.5c-.3 0-.3-.1-.4-.3l.1-7.7v-7.4h-4.9zm-12 43.4c2.4-2.1 4.7-4.7 6.8-7.7 1.6-2.4 2.6-4.2 2.6-5 0-.5-.5-1.1-1.3-1.6.3-.1.5-.2.8-.2.6 0 1.3.3 2.5 1.1.6.4.8.6.8 1s0 .4-.7 1.1c-.2.2-.2.2-.6.7-.4.6-.6.9-1.3 1.7h.7c.5 0 3.7-.3 5.3-.5.4 0 .5-.1.9-.4.3-.2.6-.4.8-.4.5 0 2 1.6 2 2.2 0 .1-.1.3-.3.4-.1.1-.4.2-.9.4-2.2 3.2-3.8 5-6.2 7.4l.4.3c2.4 1.6 3.1 2.5 3.1 3.8 0 .9-.3 1.5-.8 1.5-.3 0-.6-.2-.9-.8-1.8-2.8-4.4-5.2-7.5-7.1l.2-.4c2.3.9 3.1 1.3 4.7 2.3 2.3-3 3.8-5.3 5.1-8.1-1.1.2-2.1.4-2.6.4-.9.2-1.6.3-2 .4-.4.1-.7.1-.9.1-.4 0-.8-.2-1.5-.7-2.5 3.4-5.9 6.6-8.9 8.5l-.3-.4zm11 42.3c3-.9 5-2 6.6-3.9 1.7-1.9 2.5-4.2 2.5-6.7 0-2.7-1.1-4.9-3.2-6.2-1.2-.8-3.1-1.3-4.8-1.3-.3 0-.5 0-1 .1.7 1 .9 1.5.9 2.3 0 2.2-1.6 6.3-3.7 9.7-1.8 2.8-3.1 4.2-4.2 4.2-.5 0-.9-.2-1.2-.6-.3-.3-.3-.4-.8-1.8-.3-.7-.4-1.1-1.2-2.6-.4-.9-.6-1.7-.6-2.5 0-1.8 1-3.8 2.5-5.5 2.3-2.4 6-3.9 9.6-3.9 2.8 0 5.4.9 7.2 2.6 1.8 1.7 2.7 3.9 2.7 6.6 0 3.5-2 6.6-5.6 8.5-1.6.9-3.1 1.3-5.5 1.7l-.2-.7zm-9.2-8.7c0 1.3.4 2.7 1.1 3.7.4.5.8.8 1.1.8.6 0 2-1.5 3.3-3.7 2.1-3.3 3.6-6.9 3.6-8.7 0-.4-.1-.7-.4-1.4-4.9.9-8.7 5-8.7 9.3zm-3.4 28.9c1.5.5 2.6 1 3.4 1.4.8.4 1 .8 1 1.5 0 .8-.4 1.6-.9 1.6-.2 0-.3-.1-.5-.5-.7-1.2-2-2.7-3.1-3.8l.1-.2zm21.2-.9c.8-.9 1-1.1 1.8-1.9 1.2.9 1.5 1.1 2.6 2.1.1.1.2.2.2.3 0 .1-.1.2-.3.2H49.2l-3.3 10.4c-.4 1.1-.4 1.4-.4 1.6 0 .2.1.6.3 1.3.4 1.2.5 1.8.5 2.7 0 1.3-.8 2.5-1.8 2.5-.4 0-.8-.3-.8-.8 0-.1 0-.1.1-1 .1-.2.3-2.7.3-2.9 0-1.2-.2-1.9-.5-2.2-.3-.3-.4-.3-1.6-.8l.1-.4c.2.1.4.1.5.1.6.1.7.1.9.1.4 0 .5-.1 1-1.3 1.2-2.7 2-4.5 2.8-6.5 1.4-3.5 1.4-3.5 2-4.8l.4.1-.4 1.3h8.6c1.2-2 2.2-4.1 2.6-5.8 3 .9 3.1 1 3.1 1.2s-.2.3-1.4.4l-.7.8c-1.7 2-1.9 2.3-3 3.3h4.3zm-19.1-5.3c.6.3.6.3 2.3 1 1.6.7 2 1.1 2 2 0 .8-.4 1.7-.8 1.7-.2 0-.4-.2-.6-.6-.7-1.3-1.7-2.5-3.1-3.9l.2-.2zM53.8 331c1.9 2 2.6 3.1 2.6 4.1 0 .9-.6 2.1-1 2.1-.1 0-.3-.2-.4-.4 0-.1-.2-.8-.4-2.2-.9.3-1.1.4-1.9.6-.4.1-.4.1-2.7.7-.6.1-.6.1-1.3.3-.1.8-.3 1.1-.5 1.1-.1 0-.2-.1-.3-.3-.1-.1-.3-1-.7-2.6h2c1.3-2.1 1.9-3.2 2.6-4.8 2.5-5.5 2.5-5.5 2.8-6.6 2 .6 2.6.9 2.6 1.1 0 .3-.2.3-1.3.4-3.3 6-4.1 7.2-6 9.7 2.5-.2 2.5-.2 4.6-.4-.2-.9-.4-1.3-1-3l.3.2zm-5.7-6.6c.9.6 1.2.8 1.8 1.3 1.3-3.1 1.9-4.7 2.2-6.5 2.4.9 2.8 1 2.8 1.2 0 .3-.3.4-1.2.4-.3.4-.5.8-.6 1.1-1.2 2-1.2 2-2.8 4.2 1 1 1.3 1.4 1.3 2 0 .8-.4 1.7-.8 1.7-.3 0-.3-.1-.7-1.1-.6-1.7-1.2-2.9-2.2-4.1l.2-.2zm3.3-12c1.2.6 2.1 1.3 3 2.1.7.6.9 1 .9 1.7 0 .8-.5 1.7-.9 1.7-.3 0-.5-.2-.7-.8-.5-1.6-1.3-3-2.5-4.4l.2-.3zm5.5 13c.5.4.7.5 1.1.8 1.1-2.2 2.2-5 2.5-6.9 2.8 1 2.9 1 2.9 1.2 0 .3-.4.4-1.3.4-1 1.8-2.2 3.6-3.7 5.6 1.1 1 1.7 1.6 1.7 2.1 0 .7-.5 1.6-.9 1.6-.3 0-.4-.2-.6-.9-.3-1.1-.9-2.1-1.9-3.9h.2zm5.9 5c2.4 2.3 3.6 3.9 3.6 4.9 0 .8-.8 2.1-1.2 2.1-.1 0-.3-.1-.4-.3-.1-.2-.1-.2-.3-1-.1-.4-.2-.7-.4-1.5-1.5.5-2.2.7-6.1 1.6-.2.9-.3 1.1-.5 1.1s-.3-.1-.9-2.8h1.1c2.2-3.5 4.2-7.5 5.6-11.2 2.6.9 2.9 1 2.9 1.2 0 .3-.1.3-1.4.5-1 1.7-3.2 5-4.5 7-.7 1.1-.8 1.2-1.8 2.5 2.2-.1 3.5-.2 5.3-.5-.4-1.4-.7-2-1.4-3.4l.4-.2zm-6.6 30V355h-3.1c-.5 0-1 0-1.3.1-.4 0-.4 0-.8.1l-.2-1.1c.8.2 1.4.3 2.3.3h3.1v-3c0-1.3 0-1.6-.1-2.5.6.1 1.1.1 1.3.1 1.4.1 1.8.2 1.8.5s-.3.4-1.1.6v4.3h3.6c.6-.8.8-1 1.5-1.7 1.1.8 1.4 1.1 2.4 1.9.1.1.1.2.1.3 0 .1-.1.2-.3.2h-7.2v5.4h4.3c.8-.9.8-.9 1.6-1.9 1.1.9 1.4 1.2 2.5 2 .1.1.1.2.1.3 0 .1-.1.2-.3.2h-8c.2.5.5.9 1.1 1.9 1.3 2.1 2.8 3.6 4.8 4.9 1.2.8 2.1 1.2 3.7 1.7l-.1.4c-1 .2-1.5.7-2 1.8-2.3-1.5-3.4-2.6-4.9-4.6-1.3-1.7-2.1-3.3-2.9-5.5v4.9c0 4.8 0 4.8.1 7.4-.1.3-.1.3-.3.4-.3.1-.7.1-1.1.1-.4 0-.5-.1-.5-.4v-.1c.1-3.7.1-6.2.1-7.5V363c-1.7 2.7-3.2 4.4-5.6 6.4-1.8 1.5-3.1 2.4-5.5 3.6l-.3-.4c2.3-1.5 4.4-3.2 6.4-5.4 1.7-1.9 2.5-3.1 4-6h-5.5v4.4c0 .5-.3.6-1.3.6-.3 0-.4-.1-.4-.4v-1.3h-3.6v2.4c0 .4-.3.5-1 .5h-.3c-.4 0-.5-.1-.6-.3.1-2.5.1-6.7.1-9.4 0-2.4 0-4.5-.1-6 1 .5 1.3.6 2.2 1.2H48c.4-.5.6-.7 1-1.2.8.5 1 .7 1.7 1.1.2.2.3.3.3.4 0 .1-.1.2-.1.2 0 .1-.4.3-1 .6v6.6h6.3zm-11.6 3.3h3.6v-10.4h-3.6v10.4z" fill="#200701"/></g><line x1="54.4" y1="38.7" x2="54.4" y2="98.7" fill="none" stroke="#76544b" stroke-miterlimit="10"/></svg>