<svg version="1.1" id="レイヤー_1" xmlns="http://www.w3.org/2000/svg" x="0" y="0" width="418" height="405" viewBox="0 0 418 405" xml:space="preserve"><style type="text/css">.st0{fill:#fff}</style><g><g><path class="st0" d="M363.6 29.2c-1.2 0-1.2.4-1.2 2.3 0 1.2 0 2.8-1.8 2.8-1.3 0-1.3-1-1.3-1.5 0-.2.1-1.5.1-1.8.1-2.1.4-7.7.4-12.8 0-5.4-.2-10-.4-12 0-.4-.4-2.2-.4-2.6 0-.1 0-.4.2-.4.6 0 1.6.5 2.2.8 1 .5 1.6.5 1.9.5h2.2c.4 0 .8 0 1.1-.2.1-.1.8-.8 1-.8.3 0 2.8 1.4 2.8 2 0 .2-.1.3-.3.5-.1 0-.7.5-.7.6-.2.4-.2 9.2-.2 10.9 0 2 .2 5.6.2 6.1 0 .8.2 4.6.2 5.5 0 .4 0 1.1-.3 1.4-.2.2-1.1.8-1.8.8s-.8-.6-.8-1.2c-.1-1-.7-1-1.3-1h-1.8zm-.2-23.6c-.3 0-.7 0-.9.3-.3.3-.3.6-.3 3.1 0 3.3 0 3.4 1.2 3.4h2.1c.3 0 .6 0 .9-.3.3-.3.3-.6.3-3.1 0-3.2 0-3.4-1.2-3.4h-2.1zm0 7.8c-.6 0-1 .2-1.2.8v5.6c0 .6.6.9 1.2.9h2.1c.3 0 1.2 0 1.2-1.1 0-.6 0-5.3-.1-5.6-.2-.5-.8-.6-1.1-.6h-2.1zm.1 8.3c-1.1 0-1.2.6-1.2 1.3 0 .9 0 4.2.1 4.6.2.6.9.6 1.1.6h1.9c1.2 0 1.3-.2 1.3-4.6 0-1.2 0-1.9-1.2-1.9h-2zm9.1 3.6c-.5.8-.7 1-1 1-.5 0-.5-.1-.9-1.2-.1-.4-1-2.4-1-2.7 0-.2.1-.3.3-.3.1 0 .9.2 1.1.2 1.2 0 4-.7 4.1-.8 1.3-.4 1.4-.8 1.4-2.6 0-11.4-.3-14.9-.8-16.7 0-.2-.5-.9-.5-1.1 0-.2.2-.2.4-.2.4 0 2.1.4 2.6.5 1 .2 1.6.4 1.6.9 0 .2 0 .2-.5.8-.1.2-.2.3-.2.6V15c0 8-.2 15.2-7.9 19.6-2.7 1.6-5.6 2.4-6.4 2.4h-.2c0-.2.2-.2 1.6-1 2.4-1.2 6.2-3.4 8.2-7.2 1.1-2.1 1.6-5 1.6-5.3 0-.1 0-.4-.1-.5-.6-.4-3.3 2.2-3.4 2.3zm1.8-10.1c0 1.5-.9 2.1-1.5 2.1-.8 0-.9-.3-1.4-3.2-.3-1.4-.5-1.8-1.4-3-.2-.2-.2-.4-.1-.5.2-.1 4.4 1.8 4.4 4.6zm11.1-.9c0 .1.1.5.3.5.7 0 3.7-3.8 4.1-5.3.2-.8.2-.8.5-.8.4 0 3.5 2.7 3.5 3 0 .3-.7.5-1 .5-.4.1-.6.1-.8.3-2.4 1.7-2.4 1.7-5 3.1-1.2.6-1.6.9-1.6 2 0 1.2.4 1.6 1.4 2 5.8 2.2 6.3 4.7 6.3 5.5 0 1.4-1.2 1.8-1.6 1.8-1 0-1.3-.7-2.2-2.6-.8-1.7-2.6-4-3.4-4-.5 0-.5.4-.5 3.4 0 1.5 0 7.3.3 8.4.1.5.7.8 2.7.8 3 0 3-.3 3.6-2 .2-.5.8-3 1-3 .2 0 .2.4.2 1 0 2.4.4 3.1.7 3.7.1.2.8 1 .8 1.2 0 .2-.3.6-.8 1-1.4.9-4.2 1-6 1-5 0-5-1-5-5.3 0-1.2.1-7.2.1-8.6 0-2.8-.1-17.1-.3-18.7 0-.2-.5-1.6-.5-1.8 0-.2.2-.2.3-.2.3 0 2.6.3 2.7.4.8.1 1.4.2 1.4.8 0 .2-.8.9-.9 1.1-.3.6-.3 6.1-.3 7.2v3.6zm-7.6 60.5c-1.1 0-1.1.9-1.1 1 0 .6 0 3.6.2 3.9.2.5.8.5 1.2.5h8c1.9 0 2.1 0 2.7-1 .9-1.2 1-1.4 1.3-1.4.5 0 3.4 2.2 3.4 2.8s-.7.6-2.1.6H365c-1 0-3.6 0-5 .1-.1 0-.7.1-.8.1-.2 0-.2-.1-.4-.2l-.8-.9c-.1-.1-.2-.2-.2-.3 0-.1.1-.1.2-.1.2 0 1.5.1 1.8.1 1.1 0 3.2.2 5.5.2h7.4c.5 0 1.1 0 1.4-.6.1-.2.1-2.2.1-3.4 0-1.1-.2-1.4-1.4-1.4h-3.4c-1 0-3.6 0-5 .1-.1 0-.7.1-.8.1-.1 0-.2-.1-.4-.2l-.8-.9c-.2-.2-.2-.2-.2-.3 0-.1.1-.1.1-.1.2 0 1.5.1 1.8.1 1.2 0 3.2.2 5.5.2h3.1c.5 0 1.4 0 1.4-1.1 0-.6 0-3.5-.2-3.7-.3-.4-.8-.4-1.2-.4h-5.3c-1 0-3.6 0-5 .1-.1 0-.7.1-.8.1-.2 0-.2-.1-.4-.3l-.8-.9c-.2-.2-.2-.2-.2-.3 0-.1.1-.1.2-.1.2 0 1.5.1 1.8.1 1.1 0 3.2.2 5.5.2h17.1c1.2 0 1.4 0 1.8-.3.4-.2 1.9-1.6 2.3-1.6.2 0 2.9 1.5 2.9 2.4 0 .6-.2.6-2.2.6H378c-1.1 0-1.1.2-1.1 4.1 0 .8.4 1.1 1.1 1.1h5c1.9 0 2.1 0 2.7-.8.7-1 .8-1.1 1.2-1.1.5 0 2.8 2 2.8 2.4 0 .5-.8.5-2.1.5h-9.7zM365 53.6c-1.2 0-1.3.2-1.3 4 0 3.4.3 3.8 2.2 3.8.6 0 2.5 0 5.3-.2.4 0 2.2-.2 2.5-.2.6 0 .8.2.8.6 0 .7-.6 1.5-1.2 1.7-1 .4-5.8.4-7.3.4-4.8 0-4.8-.6-4.8-5.6v-4c-.1-.3-.3-.4-.6-.4-.2 0-1 .1-1.1.1-.1 0-.2-.1-.3-.3l-.8-.9-.2-.2c0-.1 0-.1.1-.1.3 0 1.5.1 1.8.2 3.2.1 4.4.1 5.7.1 1.1 0 1.1-.8 1.1-1.8 0-.5 0-1.9-.2-2.8 0-.1-.2-.8-.2-.9 0-.2.2-.4.5-.4.2 0 .5.1 2.8.7.6.2.9.2.9.6 0 .2-.8.9-.9 1.1-.2.3-.2.5-.2 2.3 0 .9.4 1.2 1.2 1.2 2 0 2.2 0 2.6-.7.7-1.1.8-1.2 1-1.2.4 0 2.7 1.9 2.7 2.4 0 .6-.7.6-2.1.6h-10zm16.3 4.6c-1 0-1.1.2-1.4 1-2.4 5.3-6.2 6-6.4 6-.1 0-.2 0-.2-.2s.9-.8 1-1c.9-1 4.2-4.7 4.2-10.7 0-1.2 0-1.8-.2-3.8-.1-.9-.2-1.4-.2-1.5 0-.2 0-.4.2-.4s2.4.9 2.6 1c.5.2.6.2 1.1.2h5.5c.2 0 .5 0 .8-.2.2-.2 1.2-1.2 1.4-1.2.3 0 2.8 1.6 2.8 2.2 0 .2-1.1.8-1.2 1-.2.3-.3 1.4-.3 1.9 0 .3-.2 6.2-.9 9.2-.6 2.2-2.5 3.3-3.5 3.3-.7 0-.9-.2-1.8-1.4-.5-.6-1-1-1.4-1.2-.2-.1-.7-.4-.7-.6 0-.2.2-.2.3-.2.1 0 .5.1.7.1.6.1 1.7.2 2.2.2 1 0 1.6-.3 1.8-1.6.1-.3.3-1.4.3-1.6 0-.8-.8-.8-1.2-.8h-5.5zm6-1c.8 0 1.2 0 1.2-1.9 0-.9-.8-.9-1-.9H382c-.8 0-1.3 0-1.3 2 0 .9.7.9 1 .9h5.6zm-4.9-7.1c-.7 0-1.4 0-1.4.8 0 2.1 0 2.3 1 2.3h5.4c1.1 0 1.1-.4 1.1-2.1 0-1-.6-1-1.3-1h-4.8zm-6.7 49c0 .1.1.3.1.4.2 1.3.4 2.6.4 4.3 0 2.7-.6 6.4-4.1 11.7-3.2 4.9-5.2 5.8-6.8 5.8-2.6 0-5-4.1-5-9 0-2.1.4-6.2 4.4-10.2 5.1-5.2 10.5-5.2 12.8-5.2 3.6 0 5.3.7 6.4 1.3 4.3 2.1 7 6.4 7 11.6 0 5.2-3 11.6-10.1 14.1-3.4 1.2-6 1.5-6.6 1.5-.2 0-.4 0-.4-.3 0-.1.1-.2 1.1-.6 4.2-1.6 12.9-5.1 12.9-15 0-1.6-.2-11.1-11.1-11.1-1 .1-1 .5-1 .7zm-13 12.3c0 2.6 1 6.2 3.5 6.2 1.2 0 2.1-.5 4.9-4.6 2.1-3.2 3.9-7.7 3.9-11.6 0-2.4-.2-2.6-.7-2.6-3.8-.1-11.6 5-11.6 12.6zm.9 31.7c-1 0-1 .2-1.3 1.6-.3 1.9-2 2.8-2.7 2.8-.7 0-1.3-.6-1.3-1.4 0-.1 0-.5.2-.9s1.4-2.1 1.6-2.5c.2-.4 1-2.8 1.1-3 .2 0 .7 1.2.8 1.6.3.8.9.8 1.4.8h9.6c.9 0 1.1-.4 1.1-1.1 0-.2 0-1.1-.1-1.5 0-.2-.2-1.1-.2-1.3 0-.3.3-.4.6-.4.2 0 3.5.5 3.5 1.2 0 .2-.6.9-.6 1-.2.3-.2.6-.2 1 0 1.1.6 1.1 1.1 1.1h9.8c.4 0 .7 0 1-.3.2-.2.8-1.1 1.1-1.1s3.6 2.5 3.6 3.4c0 .1 0 1-.9 1-.3 0-1.8-.3-2.1-.3-1 0-1.8.3-2.2.6-.1 0-.6.4-.7.4-.1 0-.1-.1-.1-.1 0-.1.8-1.6.8-1.9 0-.5-.4-.5-.7-.5h-24.2zm19.1 9c.6 0 .8 0 1.3-.5.4-.4.6-.6.9-.6.2 0 .4.1 1.9 1.2.9.7 1 .8 1 1.1s-.2.4-.8.9c-.5.4-.5.6-.5 2.8 0 1 .2 6.4.2 6.6 0 1.5-1.4 2-1.9 2-.8 0-.9-.5-.9-.9 0-.6-.3-.7-.9-.7h-2.4c-.7 0-1 .2-1 1 0 1.1 0 3.5.2 4.5.2.7.3 1.2 4.6 1.2 4.4 0 5.2-.4 6.6-3.2.2-.3.8-2.2.9-2.4 0 .3.4 2.3.5 2.8.1.4 1.1 2 1.1 2.4 0 .6-.5 3.1-7.6 3.1-8.8 0-8.8-1.2-8.8-4.4v-4.4c-.1-.5-.5-.5-1-.5h-2.7c-.2 0-.3 0-.3.2s.3.4.4.4c.6.4.8.6.8.8 0 .2-.1.2-.3.4-.4.2-.6.4-.7.6-2.7 4.6-4.5 7.5-13.3 7.5-1 0-1.1 0-1.1-.2 0-.1.3-.2.4-.2 3-.6 6.2-1.4 9-4 2.1-2 2.7-4.6 2.7-4.9 0-.6-.4-.6-.7-.6H368c-.8 0-.8.2-1 .8-.2.7-1.3 1.2-2 1.2-.9 0-1-.4-1-.8 0-1 .3-5.4.3-6.3 0-1.7-.1-4.1-.2-5.8 0-.3-.4-1.6-.4-1.9 0-.2.2-.2.3-.2.2 0 2 .7 2.3.8 1 .4 1.2.4 1.8.4h14.6zm-10.1-3.2c-.4 0-.9 0-.9.7s0 .9-.3 1.3c-.5.6-1.1.8-1.6.8-.9 0-1-.5-1-2.1 0-.8-.4-.8-1.2-.8-.2 0-3.2 0-4.6.1-.2 0-.7.1-.8.1-.2 0-.2-.1-.4-.2l-.8-.9c-.1-.2-.2-.2-.2-.3 0 0 0-.1.2-.1s1.2.1 1.4.1c1.4.1 4 .2 5.4.2.4 0 1 0 1-.8v-1.1c0-.2-.4-1-.4-1.2 0-.3.4-.3.6-.3.3 0 3.2.4 3.2 1.1 0 .2-.4.7-.5.8-.2.2-.2.6-.2.7 0 .6.3.8 1 .8h5.4c.8 0 .8-.4.8-1 0-.4 0-1.2-.1-1.6 0-.2-.5-.7-.5-.8 0-.2.2-.2.4-.2.3 0 2.6.4 2.9.4 1 .2 1.3.4 1.3.7 0 .4-.3.5-.8.9-.4.4-.5.6-.5.8 0 .6.4.6.7.6 2.3 0 2.5 0 3-.7.9-1.2 1-1.4 1.4-1.4.6 0 3.2 1.8 3.2 2.5 0 .6-.7.6-2.2.6h-5.2c-.3 0-.8 0-.8.8 0 .9 0 1.8-1.6 1.8-.9 0-1.2-.2-1.2-1.3 0-1 0-1.3-.8-1.3h-5.3zm10.3 6.6c.4 0 .9 0 .9-.8 0-1.2 0-1.5-.9-1.5h-15c-1 0-1 .2-1 1.6 0 .7.6.7 1 .7h15zm.1 3.7c.3 0 .9 0 .9-.7 0-1.7 0-1.9-.9-1.9h-15.1c-.3 0-.9 0-.9.7 0 1.7 0 1.9.9 1.9H383zm.1 3.7c.9 0 .9-.5.9-1.2 0-1 0-1.4-.9-1.4h-15.3c-.9 0-.9.5-.9 1.2 0 1 0 1.4.9 1.4h15.3zm-10.2 24.4c.7 2.4 1.8 4.1 2.1 4.1.2 0 .9-.3 1.5-.6.8-.5 1-.6 1.4-.6.8 0 1.3.6 1.3 1.2 0 .1 0 1.5-2.1 2.2-.3.1-.6.2-.6.3 0 .1 2.1 3.4 2.4 3.4.2 0 1.4-.4 1.4-1.1 0-.2-.5-.7-.5-.9 0-.3.4-.4.6-.4.8-.1 2.2-.2 2.5-.2 1.3 0 2.4.6 2.4 1.8 0 .8-.5 1.7-3.5 2.7-1.1.4-1.2.4-1.2.6 0 .2.1.3 1.3 2.2 1.9 3 2.6 4.8 2.6 6.3 0 1.6-1.3 2.8-2.4 2.8-1 0-1.3-.2-3.8-2-1.6-1.1-3-1.2-3.9-1.2-3.6 0-5.3 2.3-5.3 4.1 0 3 3.5 3.2 4.6 3.2.6 0 3.3-.3 3.9-.3.4 0 1.9.1 1.9 1.4 0 2.3-4.2 2.3-4.6 2.3-1.2 0-7.9 0-7.9-5.6 0-2.4 1.8-6.3 7.8-6.3 1.4 0 2.5.2 3.8.5.4.1 1.2.2 1.9.2.4 0 .9-.2.9-.8 0-1.3-1.4-4.4-2.2-5.7-.2-.4-.4-.5-.6-.5-.1 0-1.1.3-1.3.3-2.2.6-3.6.8-5.5.8-2.7 0-3.8-.4-4.8-1.2-1-.7-1.4-1.7-1.4-2.1 0-.3.2-.4.3-.4.2 0 .8.4 1 .5 1.3.7 2.9 1 4.5 1 3.3 0 6.2-1 6.2-1.3s-2.2-3.8-2.7-3.8c-.1 0-2.2.4-2.6.4-3.1 0-5.4-2.2-5.4-2.9 0-.1.1-.3.3-.3.1 0 1.3.4 1.6.5.9.3 1.4.4 2.2.4.9 0 2.4-.2 2.4-.5 0-.1-2-3.2-4.1-4.2-1.2-.6-1.3-.6-1.3-.9 0-.3.7-1 1.6-1 .6-.1 2.9.4 3.3 1.6zm12.2.7c1.5.6 2.6 1.9 2.6 2.6 0 .9-.5 1.6-1.1 1.6-.5 0-.8-.2-2.2-1.6-.7-.7-1.3-1.2-3-2.2-.2-.1-.6-.4-.6-.6 0-.1.3-.4.6-.4 2.2.2 2.6.2 3.7.6zm1.7-3.7c3.5 0 4.8 2 4.8 3 0 .6-.4 1.2-1 1.2-.8 0-1.2-.3-2.1-1.2-.7-.7-2.4-1.4-3.8-1.8-.4-.1-.6-.3-.6-.4 0-.2.6-.5 1.4-.6.5-.2 1-.2 1.3-.2zm-3.2 66.8c.4 0 .9 0 1.7-1 1-1.3 1.3-1.4 1.6-1.4.6 0 3.7 2.2 3.7 2.8 0 .4-.4.6-1 .6h-11.1c-1 0-1 .8-1 2.5v7c.1.8 1 .8 1 .8h8.6c.9 0 1.2-.4 1.6-1.2 1-1.6 1.2-1.8 1.5-1.8.5 0 3.6 2.9 3.6 3.5 0 .4-.4.5-1 .5h-28.4c-1.2 0-3.9 0-5.3.1-.2 0-.7.1-.8.1-.2 0-.2-.1-.4-.2l-.8-.9c-.1-.2-.2-.2-.2-.2 0-.1 0-.1.2-.1s1.2.1 1.4.1c1.2.1 4.3.2 5.8.2h9c1 0 1-.9 1-1.3 0-1.1.1-6 .1-7 0-1.2 0-2-1-2H368c-1 0-3.6 0-5 .1-.2 0-.8.1-.9.1-.1 0-.3-.2-.3-.2l-.8-1-.2-.2c0-.1 0-.1.2-.1.3 0 1.5.2 1.8.2 1.7.1 3.4.1 5.5.1h15.3zM364.3 236c-.9 0-1 0-1.3 1.4-.3 1.6-1.4 3.2-3 3.2-.9 0-1.4-.5-1.4-1 0-.4 1.2-2.2 1.4-2.6.5-.9.8-2.6.8-3.6 0-.2 0-.7.2-.7s.8.8 1.4 1.7c.4.6.8.7 1.4.7h9.3c1.1 0 1.1-.8 1.1-2.7 0-.8-.1-1.9-.2-2.3 0-.1-.4-.6-.4-.7 0-.1 0-.3.5-.3.8 0 4 .6 4 1.2 0 .2-.8 1-.8 1.2-.3.6-.3 2-.3 2.4 0 .4 0 1.2 1 1.2h8.7c1 0 1.3-.4 1.6-1.2.2-.5.5-1 .7-1 .3 0 3 1.8 3.6 2.2 1 .7 1 1 1 1.2 0 .8-.3.8-3.6.8-1 0-2 .6-2.4.8-.2.1-1.4.9-1.6.9-.1 0-.2-.1-.2-.2 0-.2 1.3-1.9 1.3-2.4 0-.3-.3-.3-.8-.3h-5.2c-1 0-1 .8-1 1.2 0 1.2 0 4.6.3 5.6s.9 1.2 4.4 1.2c3.9 0 4.3 0 5.4-1.7.2-.4 1.2-2.3 1.4-2.3.2 0 .2.2.2 1.2 0 .8 0 1.4.7 2 .6.4.6.5.6.8 0 .8-1.1 1.9-2.4 2.3-1.4.4-3 .4-5.8.4-6.2 0-7 0-7-3.6 0-1.5 0-4.7-.1-6 0-.6-.4-1-1-1H373c-.6 0-.9 0-.9.2 0 .1.6.5 1 .7.9.6.9.7.9.9 0 .4-.3.6-1.2 1-.3.2-2.2 2.8-2.6 3.3-2.4 2.9-4.6 4.2-7.3 5.4-1.9.8-3.3 1.2-3.9 1.2 0 0-.2 0-.2-.2 0-.1.5-.3.6-.4 5.6-2.4 10.4-8.5 10.4-11.4 0-.6-.2-.8-1.2-.8h-4.3zm5.2 41.4c.4 0 .7 0 1.1-.4.4-.4.7-.8 1.1-.8.4 0 2.4 1.5 2.4 2 0 .2-.6.8-.8 1-.3.4-.3.7-.3 1.8 0 1 .2 6.1.2 7.3 0 2.2-1.1 2.6-1.7 2.6-1 0-1.1-.8-1.2-1.4-.1-.8-.6-.8-1.3-.8h-5c-.6 0-1.3 0-1.5.5-.1.3-.1 2.1-.1 2.8v10.1c0 .9.2 5.1.2 6.1 0 .7 0 2.9-2.1 2.9-1 0-1-1.1-1-1.4v-1.6c.4-11.9.4-14.5.4-18.9v-9c0-.3-.2-3.6-.2-3.7 0-.2 0-.4.2-.4.6 0 1.6.6 1.9.7 1 .6 1.2.6 1.7.6h6zm-5.7 6.1c-.8 0-1.2 0-1.2.8v2.3c0 .9.3.9 1.2.9h5.6c.8 0 1.2 0 1.2-.8v-2.3c0-.9-.3-.9-1.2-.9h-5.6zm0-5c-.9 0-1.2 0-1.2 1v2.2c0 .8.4.8 1.2.8h5.7c.9 0 1.2 0 1.2-1v-2.2c0-.8-.4-.8-1.2-.8h-5.7zm14.6 15c.5 0 .7-.1.9-.4.3-.4.8-.8 1.1-.8.4 0 2.4 1.3 2.4 2 0 .2-.2.4-.2.5-.4.5-.5.6-.6 1.2-.1 1 0 7.4 0 8.3 0 1.1 0 1.6-.4 2-.5.6-1.3.9-1.7.9-.9 0-.9-.8-.9-1.4 0-1-.5-1-1.3-1h-5c-.9 0-1.1.2-1.2.9-.2 1.2-.8 1.9-1.8 1.9-.5 0-.9-.2-.9-1.4 0-.3 0-1.4.1-1.7.1-2.1.2-3.3.2-5 0-.2 0-4-.1-5.5 0-.2-.1-1-.1-1.2 0-.3.2-.4.4-.4.4 0 2.5 1 3 1h6.1zm-5.8 1.1c-1 0-1 .1-1 1.3v2c.1.6.4.6 1 .6h5.6c.6 0 .9 0 1-.6v-2.3c0-1-.3-1-1-1h-5.6zm0 4.9c-.8 0-1.1 0-1.1.8v2.8c0 .8.4.8 1.1.8h5.5c.9 0 1.1 0 1.1-1v-2.8c-.1-.6-.3-.6-1.1-.6h-5.5zm15.4-22.2c.4 0 .5 0 .8-.3.5-.5.6-.6.9-.6.3 0 2.6 1.3 2.6 2 0 .2-.2.4-.4.6-.6.6-.6.7-.6 2.1 0 3.7.1 21.8.1 26 0 1.6-.2 2.6-1.6 3.3-.8.4-1.7.6-1.9.6-.4 0-.7-.4-1.1-1.1-.2-.4-.5-.8-1.1-1.2-.3-.2-2-.6-2-1 0-.2 1.5-.3 1.9-.3 2.6-.1 3-.3 3.1-1.4 0-.4.1-10.4.1-16.2 0-1.2-.6-1.2-1.6-1.2H382c-.9 0-1 .2-1.2.8-.1.9-1.1 1.3-1.8 1.3-.2 0-.8 0-1-.8v-8.7c0-.6-.2-3.6-.2-4.2 0-.2.1-.7.4-.7.5 0 1.3.4 1.9.6.5.2.6.2 1 .2h6.9zm-.3 5c.7 0 1.1 0 1.1-.9V279c-.1-.6-.5-.6-1.1-.6h-5.9c-.7 0-1.1 0-1.1.9v2.4c.1.6.5.6 1.1.6h5.9zm0 5.4c.8 0 1.1 0 1.1-.8v-2.6c0-.8-.3-.8-1.1-.8h-5.8c-.8 0-1.2 0-1.2.8v2.6c0 .9.3.9 1.2.9h5.8z"/></g></g><g><g><path d="M334.6 358.2c0 2.3.2 2.5 2 2.6v.6h-6.1v-.6c1.8-.1 1.9-.3 1.9-2.6v-11.8c0-2.3-.1-2.5-1.9-2.6v-.6h6.9c4.6 0 6.7 1.4 6.7 4.5 0 1.1-.3 2.1-.9 2.8-.8 1-2.3 1.6-4.2 1.8v.2c.9.2 1.4.4 2 .9.8.7 1.3 1.4 2.1 3.3 1.2 2.8 1.4 3.1 1.9 3.6.4.3.7.5 1.3.5v.6h-3.9c-1-2.7-2-5.3-2.7-6.5-.6-1.1-1.1-1.6-1.8-1.8-.5-.2-1.2-.3-1.8-.3h-1.5v5.4zm2.1-6.2c1.5 0 2.7-.3 3.5-.8 1-.7 1.5-1.8 1.5-3.4 0-2.6-1.6-3.9-4.8-3.9h-2.3v8h2.1zm15.4-1.9c1.1-1.1 2.6-1.7 4.4-1.7 3.7 0 6.1 2.6 6.1 6.5 0 4.2-2.4 6.8-6.2 6.8-3.6 0-6-2.6-6-6.5-.2-2 .5-4 1.7-5.1zm4.2 11c2.5 0 3.8-2.1 3.8-6s-1.4-6.2-3.9-6.2c-2.4 0-3.7 2.1-3.7 6 .1 3.9 1.4 6.2 3.8 6.2zm12.8-11c1.1-1.1 2.6-1.7 4.4-1.7 3.7 0 6.1 2.6 6.1 6.5 0 4.2-2.4 6.8-6.2 6.8-3.6 0-6-2.6-6-6.5-.1-2 .6-4 1.7-5.1zm4.3 11c2.5 0 3.8-2.1 3.8-6s-1.4-6.2-3.9-6.2c-2.4 0-3.7 2.1-3.7 6s1.4 6.2 3.8 6.2zm14.5-10c.9-1.8 2.3-2.7 4.2-2.7 1.9 0 3 1 3.4 2.9 1.1-2 2.4-2.9 4.3-2.9 1.2 0 2.2.4 2.8 1.2.6.7.8 1.6.8 3.3v5.4c0 2.3.1 2.5 1.8 2.6v.6h-5.7v-.6c1.7 0 1.8-.3 1.8-2.6v-5c0-1.7-.1-2.4-.5-3-.4-.6-.9-.9-1.9-.9-.9 0-1.7.5-2.3 1.5-.7.9-1 1.8-1 3v4.4c0 2.3.1 2.5 1.8 2.6v.6h-5.7v-.6c1.7 0 1.8-.3 1.8-2.6V353c0-2.4-.8-3.6-2.3-3.6-1 0-1.8.5-2.5 1.4-.6.8-.9 1.6-.9 2.7v4.8c0 2.4.1 2.5 1.8 2.6v.6H384v-.6c1.7 0 1.8-.2 1.8-2.6v-6.7c0-1.9-.3-2.3-1.7-2.3v-.6l3.8-.3v2.7zm21.8 6.3h.8c.1 1.2.3 1.8.7 2.3.7.9 1.6 1.4 2.7 1.4 1.7 0 2.7-.9 2.7-2.4 0-.6-.2-1.1-.6-1.4-.5-.4-.5-.4-2.8-1.4-2.7-1.2-3.5-2.1-3.5-3.8 0-.9.3-1.7.7-2.3.7-.9 1.9-1.4 3.1-1.4.6 0 1 .1 2.3.3h.5c.3 0 .7 0 1.2-.2l-.1 4h-.8c0-2.2-1.1-3.6-3-3.6-1.6 0-2.6.9-2.6 2.2 0 .6.2 1 .7 1.4.5.3 1 .6 2.6 1.3 1.7.7 2.3 1.1 2.9 1.7.5.6.8 1.4.8 2.4 0 2.3-1.5 3.8-3.9 3.8-.7 0-1 0-2.5-.3-.4 0-.6-.1-.9-.1-.3 0-.6 0-1.1.1l.1-4z" fill="#76544b"/></g></g><g><g><path class="st0" d="M252.8 27.4c.1-2 .1-10.5.1-16.5 0-5.8 0-8.1-.1-9.9 1.1.5 1.4.7 2.3 1.4h3l1.2-1.2c.8.7 1 .9 1.8 1.6.2.2.3.3.3.4 0 .2-.3.3-1 .5-.5 1.3-2.1 4.5-3.4 6.8 1.4 1.5 1.9 2 2.4 2.9.6 1 1 2.6 1 3.9 0 1.5-.5 3-1.1 3.7-.6.6-1.2.8-2.5 1-.1-1.4-.5-1.9-1.8-2.2v2c0 .8 0 1.5.1 5.5-.1.3-.2.4-.5.5-.4.1-.8.1-1.1.1-.6 0-.7-.1-.7-.5zm2-8.2c1.2.3 2 .4 2.4.4.5 0 .7-.2.9-.6.3-.7.4-1.5.4-2.4 0-2.2-.7-4-2.4-5.9 1-3.1 1.7-5.7 2.2-7.6h-3.5v16.1zm20.8-3.5l.1 8.9c0 1.8-.4 2.1-4 3 0-1-.3-1.4-1-1.7-.5-.3-1.2-.4-3.7-.8v-.5c.9.1 2.9.1 5.9.3.5 0 .6-.1.6-.5V3.9h-9.3c-.5 0-1 0-2.1.2l-.3-1.1c.9.2 1.7.2 2.4.2h10c.8-.9 1-1.1 1.8-2 1.2.9 1.6 1.2 2.8 2.3.1.1.1.2.1.2 0 .1-.1.2-.3.2h-3.1v11.8zM264 19.8c0 .3-.1.4-.4.4-.2 0-.9.1-1.1.1-.3 0-.5-.1-.5-.4.1-3.3.1-3.6.1-5 0-4.7 0-6.1-.1-7.4 1 .5 1.3.6 2.1 1.3h3.8c.5-.5.6-.7 1.1-1.2.7.5.9.7 1.6 1.3.2.2.3.3.3.4 0 .2-.2.4-.9.7 0 4 0 4 .1 8.9 0 .2-.1.3-.2.4-.2.1-.8.2-1.2.2-.3 0-.5-.1-.5-.3v-1.4H264v2zm0-2.8h4.1V9.5H264V17zm-7 39.5c2-.3 2.3-.4 3.4-.6V45.2c0-1 0-1.2-.1-1.9 1.3.2 2.6.4 3 .5.2.1.3.1.3.3 0 .3-.2.4-1.3.7v3.7h1.8c.8-.9 1-1.1 1.7-2 1 .9 1.3 1.2 2.3 2.2.1.1.1.2.1.3 0 .1-.1.2-.3.2h-5.6v6.3c2.9-.6 4.1-.9 6.6-1.7l.2.4c-2.4 1.1-3.9 1.7-8.6 3.2-2.2.7-3 .9-7.3 2-.2 1-.4 1.3-.7 1.3-.3 0-.3 0-1.3-3.5 1.3-.1 1.9-.1 3.7-.4V48c0-1.3 0-1.5-.1-2.4 2.7.3 3.2.4 3.2.7 0 .3-.2.4-1.2.7v9.5zm17.2-15.2c.8-.9 1-1.2 1.7-2 1.2 1 1.5 1.3 2.6 2.3.1.1.1.1.1.2s-.1.2-.3.2h-8.1c.2 3.2.5 5.2 1.2 7.4.6 2 1.5 3.9 2.3 5.2.5.8 1.1 1.4 2.2 2.5.5-1 .6-1.2 1-2.3L278 52l.4.1-.8 4.7c0 .1 0 .2-.1.4 0 .2-.1.4-.1.6 0 .3.1.5.5 1 .3.3.4.6.4.8 0 .5-.4.9-.8.9-1.4 0-3.4-1.6-4.9-3.9-2.5-3.7-3.8-8.2-4.3-14.5h-14.1c-.9 0-1.7.1-2.4.2l-.2-1.1c.8.2 1.5.3 2.6.3h14.1c-.1-1.3-.1-2.3-.2-3.7-.1-2-.1-2.7-.2-3.8.6.1 1.1.2 1.4.2 1.7.2 2 .3 2 .5s-.2.3-1.1.6v2c0 1.3 0 2.9.1 4.3h3.9zm-20-4.4c.7.1 1.2.2 2.3.2h5.6c.8-.9 1-1.2 1.8-2 1.1.9 1.4 1.2 2.4 2.3.1.1.1.2.1.3 0 .1-.1.2-.3.2h-9.6c-.9 0-1.5 0-2.2.1l-.1-1.1zm17-1.8c1.4.6 2.5 1.2 3.5 2 .5.4.6.8.6 1.2 0 .8-.5 1.6-1 1.6-.2 0-.3-.1-.8-1-.2-.5-1-1.7-1.4-2.4-.3-.5-.5-.7-1.1-1.2l.2-.2zM254 87.8c0 2.3 0 4 .1 5.7-.1.4-.3.5-1 .5h-.5c-.4 0-.5-.1-.6-.5.1-3.1.2-10 .2-14.5 0-3.5 0-7.1-.2-12.2 1 .5 1.3.7 2.2 1.3h3.5c.5-.5.6-.7 1.1-1.2.8.6 1.1.8 1.8 1.5.1.1.2.2.2.3 0 .3-.1.3-1.1.6-1.8 3.7-2.7 5.4-3.5 6.8 1.3 1.5 2 2.6 2.6 4.1.3.8.5 1.7.5 2.8 0 1.4-.5 2.6-1.3 3.4-.5.5-1 .7-1.9.9-.4-1.4-.7-1.6-2-1.9v2.4zm0-2.9c1.1.1 1.7.1 2 .1.6 0 .8-.1 1-.4.2-.4.4-1.5.4-2.3 0-2.6-.5-4.1-2.3-6.1 1.1-2.6 2-5 2.4-7.3H254v16zm9.9-2.9v8c1.9-.3 3.1-.6 5.8-1.3l.2.4c-3.2 1.4-5 2-9.4 3.4-.1.9-.2 1.3-.5 1.3s-.4-.4-1.1-3c.8-.1 1-.1 2-.3.3 0 .3 0 1.1-.2V82h-.2c-.8 0-1.2 0-2 .1l-.3-1c.5.1.5.1 2.3.2h12.8c.7-.8.9-1.1 1.7-1.8 1 .9 1.3 1.2 2.3 2.1.1.1.1.1.1.2s-.2.2-.3.2h-11c.7 1.9 1.5 3.2 3.1 4.7 1.9-1.8 2.3-2.2 3.7-4.3.5.3.9.5 1.2.7 1.2.7 1.4.9 1.4 1.1 0 .1-.2.2-.3.2h-.1c-.6-.1-1-.1-1-.1-1.7 1.3-2.3 1.6-4.5 2.7 2.3 1.9 4.4 2.9 8 3.5v.5c-1.4.3-1.9.8-2.3 2.2-1.8-.9-2.6-1.4-4.1-2.7-2.8-2.5-4.4-4.7-5.3-7.5-.1-.3-.2-.5-.3-1h-3zm-.5-2.8c-.1.4-.4.5-1.4.5-.4 0-.5-.2-.5-.5.1-3.6.1-5.3.1-7.7 0-2 0-2.6-.1-4.1 1 .5 1.2.7 2.1 1.3h10c.5-.6.7-.8 1.3-1.3.8.5 1 .7 1.6 1.3.2.1.3.3.3.4 0 .1-.1.2-.2.3-.1.1-.2.2-.8.4l.2 8.8c0 .5-.3.6-1.8.6-.2 0-.3-.1-.3-.3v-.7h-10.6v1zm4.3-9.8h-4.4v3.5h4.4v-3.5zm0 4.2h-4.4v4h4.4v-4zm6.2-.7v-3.5h-4.4v3.5h4.4zm-4.4 4.7h4.4v-4h-4.4v4zm-14.4 46.1v2c0 .4-.2.5-1.1.6h-.7c-.3 0-.5-.1-.5-.4.1-3.8.2-6.4.2-11 0-4.3 0-6.8-.1-8.8 2.9.4 3.2.5 3.2.8 0 .2-.2.4-1.1.7V123h8.2v-19c0-.9-.1-2.7-.1-3.5 2.8.3 2.9.4 3.3.5.2.1.3.2.3.3 0 .2-.2.3-1.3.7v21h8.7v-13.8c0-1.1-.1-2-.2-3.1.7.1 1.2.1 1.6.2 1.5.2 2 .3 2 .6s-.3.5-1.2.8l-.1 8.7c0 1.7 0 3.1.1 9.4 0 .4-.2.5-1.1.6h-.6c-.3 0-.5-.1-.5-.4v-2.4h-19zm-3.8 34.4c2.4-2.2 4.2-4 5.5-5.6.9-1.2 1.5-2 1.7-2.5.6.2 1 .4 1.3.5 1.6.7 1.8.7 1.8 1 0 .2-.3.4-.7.4h-1c-.6.8-1.4 1.7-3.1 3-1.9 1.6-3.2 2.4-5.3 3.6l-.2-.4zm1.2-21.4c4.9-.5 7.7-1 12.9-2.4 3.6-.9 5.2-1.4 6.4-2.1.5.4.8.7 1.1.8 1.1.8 1.4 1.2 1.4 1.5 0 .1-.2.2-.3.2-.2 0-.6-.1-1.4-.4-2.6.7-4.4 1.1-8.2 1.7 1.4.6 1.8.8 1.8 1.1 0 .2-.3.3-.6.3-.2 0-.4 0-.8-.1-2.6 2.4-2.7 2.5-4.3 3.6 1.1.7 1.6 1.3 1.6 2 0 1-.3 1.9-.7 1.9-.2 0-.3-.1-.8-.9-1.1-1.7-2.6-3.2-4.7-4.7l.3-.3c1.4.5 2.4.9 3.8 1.7 1.2-1.2 2-2.3 3.2-4.4-4.8.7-7.1.9-10.6.9l-.1-.4zm11 11.6c-1.7.2-3.2.3-4.1.4-3.1.3-3.7.4-5.2.5-.1.2-.1.3-.2.4-.2.8-.3.9-.6.9-.4 0-.5-.4-1-3.5 1 .1 1.5.1 2.4.1.5 0 1.7 0 3.4-.1.7 0 1.8-.1 3.1-.1 2.6-2.3 3.2-2.9 5.2-5.1 2.1-2.2 2.5-2.8 3.6-4.3 2.5 1.7 2.8 1.9 2.8 2.1 0 .2-.2.3-.5.3-.1 0-.8-.1-1.2-.2-2.4 2.4-4.9 4.5-8.6 7.1 4.1-.1 5.4-.1 10.6-.5-.8-1-1.4-1.5-2.7-2.6l.3-.3c2.6 1.4 3.7 2.2 5.5 3.7.9.8 1.1 1.1 1.1 2 0 1-.4 1.8-.8 1.8-.2 0-.4-.2-.8-.8-.8-1.4-1.3-2.1-2-3-.4.1-.7.1-.9.2-1.2.2-1.2.2-2.8.4-2.2.3-3.8.5-4.6.5v6.5c0 1.2 0 3.1.1 4.5-.1.4-.3.5-1.3.5h-.3c-.5 0-.6-.1-.7-.4 0-.8 0-1.6.1-2.5v-8.5zm4.8 1.9c1.9.8 4.8 2.6 6.4 4.1.6.5.8 1 .8 1.9 0 1-.4 1.8-.8 1.8-.2 0-.4-.1-.6-.4-1.4-2.2-3.8-4.9-6.2-7l.4-.4zm-14 20.8c1.4 1.1 2.1 1.4 3.8 1.4 1 0 1.8-.1 3.2-.4.7-1.3 1.1-2.4 1.1-3.1 0-.8-.6-1.3-2.1-1.7.5-.3.8-.3 1.4-.3.7 0 1.6.2 2.3.5.8.3 1.1.6 1.1 1 0 .2-.1.4-.5.9-.3.4-.6.9-.9 1.2-.5.9-.5.9-.8 1.2 2.5-.7 3.3-1.1 4.3-1.9.2-.1.4-.2.6-.2 1.2 0 2 .4 2 1 0 .4-.4.7-1.3 1-2.7.9-4.1 1.2-6.5 1.7-.5.7-.9 1.3-1.6 2.3-.8 1.3-1.1 1.6-1.6 2.4 1.7-.9 2.7-1.2 3.9-1.2 1.8 0 3.1 1.2 3.4 3 .5-.2.5-.2 2.9-1.5 3-1.5 3.7-2 3.7-2.5s-.5-1.1-1.4-1.4c.3-.1.5-.2.7-.2 1.3 0 3.4 1.8 3.4 3 0 .5-.2.8-1.1.9-1.8.4-5.7 1.9-8 3.1v2.4c0 1.4-.1 2.3-.2 2.6-.2.3-.5.6-.8.6-.6 0-1-.4-1-.9v-.5c.1-.9.2-1.9.2-3.2-1.9 1-2.7 1.6-3.5 2.4-1 1-1.5 1.9-1.5 2.8 0 1.6 1.7 2.4 5 2.4 2.1 0 4.2-.3 6-.8.2-.1.4-.1.6-.1.9 0 2.1.8 2.1 1.5 0 .4-.3.7-.9.8-1.2.2-3.5.4-5.4.4-2.8 0-4.9-.3-6.1-.9-1.5-.7-2.2-1.7-2.2-3.2 0-1.4.7-2.7 2.2-4.1.8-.8 1.7-1.4 3.7-2.7 0-1.3-.1-1.7-.4-2.4-.3-.5-.9-.9-1.5-.9-2 0-4.4 1.6-6.5 4.4-.6.8-.8 1-1.1 1-.5 0-.8-.6-.8-1.6 0-.6 0-.7.9-1.4 2.1-1.7 3.5-3.2 5.6-6.5-1 .1-1.4.2-2 .2-2 0-3.1-.5-4.5-2.3l.1-.2zm-3.2 40.5c1.3.2 2 .2 3.9.2h17.7c.8-1.1 1.1-1.5 2.1-2.6 1.5 1.2 2 1.6 3.5 2.9.1.1.1.2.1.2 0 .1-.1.2-.3.2H255c-1.8 0-2.3 0-3.7.2l-.2-1.1zm10.7 23.9c.6-.8.8-1 1.4-1.8 1 .9 1.3 1.1 2.2 2l.2.2c0 .1-.2.2-.3.2h-9.4v6.4c0 .4 0 .6.2.6.3.1 1.2.2 2.5.2 1.6 0 2.7 0 3-.1.3-.1.5-.1.6-.1.5 0 1.3.9 1.3 1.4 0 .5-.8.5-4.7.5-2.4 0-3.5-.1-4.1-.4-.6-.2-.7-.6-.7-1.9V236h-.7c-.7 0-1.1 0-2 .1l-.2-1.1c1 .2 1.5.3 2.2.3h3.8v-2c0-.4 0-.8-.1-1.8 3 .3 3.4.4 3.4.7 0 .2-.3.4-1.2.7v2.3h2.6zm3.6 17.1h5.8c.7-.8.9-1.1 1.6-1.8.8.7 1.6 1.4 2.4 2.2l.1.1c0 .1-.2.2-.3.2h-9.6v3.8h8.3c.8-.9 1-1.2 1.8-2 1.2 1 1.6 1.3 2.7 2.3l.2.2c0 .1-.2.2-.4.2h-23.8c-.8 0-1.4 0-2.6.2l-.2-1.1c.8.2 1.8.3 2.9.3h9.1v-3.8h-6.2c-1.1 0-1.5 0-2.7.2l-.2-1.1c.8.2 1.7.3 2.9.3h6.3v-3.4H256c-1.1 0-1.5 0-2.6.1l-.2-1.1c.9.2 1.7.3 2.8.3h17.3l1.5-1.8c1.1.8 1.4 1.1 2.4 2 .1.1.1.1.1.2s-.2.2-.4.2h-11.4v3.3zm2.2-10.9c-.5 1.4-1.1 2.3-2 3.4-1 1.1-1.7 1.8-3.3 2.7l-.3-.3c1.5-1.2 2.4-2.4 3.3-4.4 1-2.3 1.9-7.2 1.9-10.7 1.1.5 1.4.7 2.3 1.3h5.3c.5-.6.7-.8 1.2-1.3.8.6 1 .8 1.7 1.3.2.2.3.3.3.5s-.2.4-1 .8c-.5 4.2-1.1 8.1-1.7 9.8-.5 1.5-1.2 2-3.4 2.4-.3-.7-.6-1-1.1-1.3-.4-.2-.4-.2-2.4-.6v-.4c2.2.2 3.4.3 4 .3 1 0 1.1-.1 1.7-3.3h-6.5zm.9-3.8c-.3 1.5-.4 2.1-.7 3.1h6.4c.2-1.3.3-1.6.5-3.1h-6.2zm6.2-.7c.2-1.1.2-1.6.3-3h-6c-.2 1.5-.2 1.8-.4 3h6.1zm-14.7 54c3.5-2.4 5-4.3 5.7-7.5-.7.4-1.2.6-1.9.6-2.1 0-3.7-1.9-3.7-4.3 0-2.6 1.7-4.6 3.9-4.6.6 0 .9.1 1.7.5v-3.7c-2.3.2-5.1.8-7.6 1.5-.8.2-1.3.5-2 .8-.2.1-.5.2-.7.2-.5 0-1.2-.4-1.9-1.1-.7-.7-1.2-1.7-1.2-2.2 0-.1.1-.2.2-.4.8 1 1.7 1.5 2.9 1.5.6 0 1.3-.1 2.6-.3 3.5-.6 4.6-.7 7.7-1.1 0-1.8-.1-2.7-.3-3.3-.3-.8-1.1-1.3-2.6-1.5.4-.5.6-.5 1.4-.5 1 0 2 .2 2.9.4.7.2 1.1.6 1.1 1.1 0 .2 0 .3-.3.8-.3.6-.5 1.5-.7 2.9.8-.1.8-.1 2-.2 2.9-.2 3.2-.3 4-.5.8-.3.9-.3 1.1-.3.6 0 1.8.5 2.6 1.1.4.3.5.5.5.8 0 .3-.2.5-.7.5-.2 0-.3 0-1.6-.2-1.6-.2-2.9-.3-4.6-.3-1.1 0-2 0-3.2.1-.1 1.1-.2 3-.2 4.1v1c.8 1.5 1 2.5 1 4 0 2.9-1.2 5.7-3.2 7.6-1.1 1.1-2.6 2-4.5 2.9l-.4-.4zm3.8-15c-1.4 0-2.4 1.4-2.4 3.2 0 1.9 1 3.3 2.4 3.3 1.3 0 1.9-1 1.9-2.8.1-2.5-.6-3.7-1.9-3.7zm3.3 25.8c-1.2.4-4 1.5-6.1 2.4-.6.3-1 .4-1.2.4-.5 0-1.1-.4-1.7-1.3-.5-.8-.8-1.6-.8-2.2 0-.3.1-.5.3-.8.5 1.4 1.3 2.2 2.3 2.2.8 0 3.6-.7 5.7-1.3 1.2-.4 1.2-.4 1.9-.9.1-.1.3-.1.4-.1.4 0 .9.3 1.6 1.1.7.7.9 1 .9 1.4 0 .2-.2.4-.5.6-.9.5-1.2.7-2.5 2-1.9 1.9-3 3-4.4 4.5-2.9 3.1-2.9 3.1-3.5 3.7l.1.1c3.2-2 5.6-2.9 8.2-2.9 3.8 0 6.4 2.3 6.4 5.6 0 4.3-4 7.5-9.4 7.5-2.9 0-4.8-1.2-4.8-3 0-1.5 1.4-2.6 3.2-2.6 1.5 0 2.8.5 3.8 1.5.5.5.9 1 1.3 1.9 2.3-1 3.6-3.1 3.6-5.6 0-1.7-.7-3-1.9-3.7-.6-.4-1.8-.6-3-.6-2.9 0-7.1 2.4-9.6 5.6-.5.6-.7.8-1 .8-.5 0-1-1.1-1-2 0-.4.2-.7.6-1.1 1.1-.9 1.6-1.4 4.2-4.2 3.7-4.1 4.8-5.4 7.2-8.5.2-.3.2-.3.3-.5l-.1-.1h-.1s-.1 0-.2.1h-.2zm-4.6 17.2c-1.1 0-1.9.6-1.9 1.5 0 1.1 1.3 1.8 3.4 1.8.8 0 1.2-.1 2.1-.3-.6-1.8-1.9-3-3.6-3zm-44-310.7c.5-.6.6-.8 1.1-1.4 1 .8 1.3 1 2.2 1.8.3.2.4.4.4.5 0 .2-.4.3-1.8.4-1.5 1.9-2.6 2.9-4.5 4.3 1.6.8 2.9 1.3 4.7 1.8 2.6.8 4.6 1.1 7.5 1.2v.5c-1.2.2-1.6.5-2.3 2-1.9-.4-2.7-.7-4.8-1.5.7.7.7.7 1.3 1.2.2.2.3.3.3.4 0 0-.1.1-.1.2-.1 0-.2.1-.3.2-.1 0-.2.1-.3.2v3.9c0 1.7 0 1.7.1 3.2v.2c0 .2-.1.3-.3.4-.3.1-.8.1-1.2.1-.5 0-.5-.1-.5-.5v-1.3h-11.3v1.1c0 .5-.3.7-1.2.7-.7 0-.9-.1-.9-.5v-2.7c0-.8 0-.8.1-2.7v-3.2c-2.2.8-3.4 1.2-5.6 1.6l-.2-.4c4.6-1.5 8.9-3.7 12.5-6.2-1.3-1-2.7-2.4-3.6-3.5-.7.8-1.5 1.5-2.5 2.2-2.1 1.7-3.5 2.5-5.3 3.2l-.2-.3c2.8-2.2 4.1-3.3 5.6-5 1.7-1.8 2.6-3.3 3.2-4.8 2.9.6 3.2.7 3.2.9 0 .3-.4.5-1.6.7-.4.5-.5.7-.8 1.1h7.1zm-5.1-3.8V2.5c0-.7 0-1.1-.1-2 2.4.2 2.8.3 3.1.4.2.1.4.2.4.4 0 .3-.4.5-1.3.7v2.6h8.4c.6-.7.8-.9 1.4-1.7l2.7 2c.2.2.3.3.3.4 0 .1-.2.2-.3.2l-1.8.3c-1.9 2.1-2 2.2-2.9 2.9l-.3-.1c.6-1.4.7-2 1.1-3.3H205c-.2 1.5-.5 2.6-.9 3.4-.4.7-1.3 1.4-1.8 1.4-.2 0-.5-.2-.7-.5-.2-.2-.2-.8-.2-1.3 0-.4 0-.4.7-.9.4-.3 1.1-1.1 1.4-1.7.6-1.1.8-1.9 1-3.2h.5c0 .5.1.8.1 1.1s0 .5-.1 1h8.4zm6.3 14.4c.5-.4.5-.4 1.2-1-2.9-1.1-4.4-1.9-6.3-3.1-2 1.3-4 2.3-6.7 3.5.3.2.4.3.7.6h11.1zm-11.1 6.6H220v-5.9h-11.3v5.9zm2.3-16.5c-.3.4-.4.5-.7.8.8 1 2.3 2.1 4.2 3.2 1.6-1.3 2.6-2.3 4-4.1h-7.5zm10.4 44.3c.7-.8.9-1.1 1.7-2 1.2 1 1.6 1.3 2.7 2.3.1.1.1.2.1.3 0 .1-.1.2-.3.2h-10v5.1h8.1c.8-.9 1-1.2 1.9-2.1 1.3.9 1.7 1.2 2.9 2.3.2.1.2.2.2.3s-.1.2-.2.2H204c-.6 0-2.1.1-2.6.2l-.3-1.2c2.3.3 2.3.3 2.9.3h9.5v-5.1h-7c-.7 0-1.2 0-2.5.2l-.3-1.2c.9.2 2.3.3 2.9.3h6.9v-1.1c0-.9 0-1.6-.2-3 3.3.5 3.5.5 3.5.8 0 .2-.2.3-1.3.7v2.6h5.8zM213.5 37v-1.4c0-1.1 0-1.4-.1-2.2 2.9.3 3.5.4 3.5.8 0 .1-.1.2-.2.3-.2.1-.5.2-1.2.4V37h8.3c.6-.7.6-.7 1.4-1.6 1.2.8 1.6 1.1 2.7 2 .2.1.2.2.2.3 0 .1-.1.1-.1.2-.1.1-.4.1-.8.2s-.7.1-1 .2l-.5.5c-.9.9-1.1 1-1.9 1.7l-.3-.2c.4-1.2.5-1.6.6-2.6h-19.3c-.2 1.4-.5 2.3-1 3.2-.4.8-1.2 1.4-1.6 1.4s-1.1-1.1-1.1-1.8c0-.3.1-.5.4-.7 1.2-.9 1.5-1.2 1.9-1.9.5-1 .8-1.8 1-2.9h.5v.7c0 .5 0 .7-.1 1.3h8.7zm-6.1 5.1c-.8 0-1.3 0-2.4.2l-.3-1.2c.6.1.6.1 2.7.3h13.3c.6-.8.8-1 1.5-1.8 1.1.8 1.4 1.1 2.6 2.1.1.1.2.1.2.2s-.1.2-.2.2h-11c-2.6 3.5-2.6 3.5-4.2 5.1 3.4-.1 5.4-.2 11.3-.8-1.1-1.2-1.8-1.9-3.2-3.1l.2-.3c1.4.6 2 .9 3.9 2.2 1.4.9 2.4 1.7 2.9 2.2.3.4.4.7.4 1.2 0 1-.4 1.9-.8 1.9-.2 0-.2 0-1.7-1.9-.8-1-.9-1.1-1.2-1.6-3.5.6-5.9 1-6.6 1.1-3 .4-7.4.9-9.7 1.1-.1.9-.2 1.3-.5 1.3-.4 0-.7-.8-1.1-3.3.6.1 1.1.1 1.7.1h.8c.3 0 .4 0 2.7-.1 1.4-2.3 1.6-2.8 2.5-5.1h-3.8zm-3.1 29.8c1.4 1.1 2.1 1.4 3.8 1.4 1 0 1.8-.1 3.2-.4.7-1.3 1.1-2.4 1.1-3.1 0-.8-.6-1.3-2.1-1.7.5-.3.8-.3 1.4-.3.7 0 1.6.2 2.3.5.8.3 1.1.6 1.1 1 0 .2-.1.4-.5.9-.3.4-.6.9-.9 1.2-.5.9-.5.9-.8 1.2 2.5-.7 3.3-1.1 4.3-1.9.2-.1.4-.2.6-.2 1.2 0 2 .4 2 1 0 .4-.4.7-1.3 1-2.7.9-4.1 1.2-6.5 1.7-.5.7-.9 1.3-1.6 2.3-.8 1.3-1.1 1.6-1.6 2.4 1.7-.9 2.7-1.2 3.9-1.2 1.8 0 3.1 1.2 3.4 3 .5-.2.5-.2 2.9-1.5 3-1.5 3.7-2 3.7-2.5s-.5-1.1-1.4-1.4c.3-.1.5-.2.7-.2 1.3 0 3.4 1.8 3.4 3 0 .5-.2.8-1.1.9-1.8.4-5.7 1.9-8 3.1v2.4c0 1.4-.1 2.3-.2 2.6-.2.3-.5.6-.8.6-.6 0-1-.4-1-.9v-.5c.1-.9.2-1.9.2-3.2-1.9 1-2.7 1.6-3.5 2.4-1 1-1.5 1.9-1.5 2.8 0 1.6 1.7 2.4 5 2.4 2.1 0 4.2-.3 6-.8.2-.1.4-.1.6-.1.9 0 2.1.8 2.1 1.5 0 .4-.3.7-.9.8-1.2.2-3.5.4-5.4.4-2.8 0-4.9-.3-6.1-.9-1.5-.7-2.2-1.7-2.2-3.2 0-1.4.7-2.7 2.2-4.1.8-.8 1.7-1.4 3.7-2.7 0-1.3-.1-1.7-.4-2.4-.3-.5-.9-.9-1.5-.9-2 0-4.4 1.6-6.5 4.4-.6.8-.8 1-1.1 1-.5 0-.8-.6-.8-1.6 0-.6 0-.7.9-1.4 2.1-1.7 3.5-3.2 5.6-6.5-1 .1-1.4.2-2 .2-2 0-3.1-.5-4.5-2.3l.1-.2zm4.8 41.8c-.5 1.9-1.4 5.2-1.7 6.6-.3 1.3-.4 1.8-.4 2.6 0 1-.1 1.1-.2 1.3-.2.2-.3.3-.6.3-.5 0-.9-.4-1.3-1.4-.6-1.5-1-3.8-1-6 0-2.8.3-5.3 1.4-10 .4-1.9.5-2.2.5-2.7 0-.9-.2-1.6-.9-2.6.7 0 1.3.4 2.1 1.5.7.9 1.1 1.7 1.1 2.3 0 .3 0 .3-.5 1.3-1.4 3-2.3 6.6-2.3 9.8 0 1.5.1 2.5.5 3.7l1.3-3 1.6-3.9.4.2zm3-5.4c1.4.9 2.4 1.2 3.9 1.2 1.1 0 2.2-.2 3.4-.4v-1.3c0-3.4 0-3.8-.4-4.2-.4-.4-1-.6-2-.7.4-.4.7-.5 1.4-.5s1.5.1 2 .3c.9.3 1.3.6 1.3 1.1 0 .2 0 .2-.3.9-.3.9-.5 2-.6 4 1.4-.4 2.3-.8 2.8-1.2.3-.3.4-.3.7-.3.4 0 1.1.2 1.4.4.2.1.4.3.4.5 0 .7-2.2 1.6-5.3 2.2 0 4 .1 5.6.4 8.2 3.5.9 5 2.1 5 3.8 0 .6-.3 1.1-.6 1.1-.2 0-.5-.2-1.1-.8-1.3-1.4-2.1-1.9-3.2-2.4v.7c0 2.2-1.8 3.5-4.8 3.5-2.6 0-4.4-1.3-4.4-3.1 0-2.1 2.2-3.4 5.6-3.4.6 0 1 0 1.8.1v-.5l-.1-3.2v-3.8c-.9.2-1.8.2-2.6.2-2.2 0-3.5-.5-5-2.1l.3-.3zm4.6 10.9c-2.4 0-3.8.8-3.8 2.1 0 1.1 1.2 1.8 2.9 1.8s2.8-.5 3.3-1.4c.3-.5.4-1 .4-2.1-.8-.3-1.6-.4-2.8-.4zm6.9 33.5c-1.1 1.4-1.9 2.3-3.1 3.3-2.4 1.9-5 3-7.5 3-2.3 0-4.1-.9-5-2.6-.6-1-.8-2.5-.8-5.1 0-1.7.1-4.5.2-7.2.2-3.3.2-4.1.2-5.2 0-2.6-.3-3.1-2.4-4 .3-.2.5-.3.8-.3.7 0 1.8.3 2.7.7 1.1.5 1.7 1.1 1.7 1.8 0 .2 0 .4-.3 1.1-.6 1.8-1.6 10.9-1.6 14.4 0 1.8.4 2.9 1.2 3.6.7.5 1.6.8 2.7.8 2 0 4.6-.7 6.8-1.9 1.4-.8 2.3-1.4 3.8-2.7l.6.3zm-6.8-15.8c1.1.6 1.9 1.2 2.7 1.9 1.1 1 1.5 1.7 1.5 2.4s-.4 1.3-.9 1.3c-.4 0-.4 0-1.4-2-.5-1.1-1.5-2.4-2.3-3.2l.4-.4zm3-1.7c1.1.5 2 1 2.9 1.7 1.1.9 1.5 1.5 1.5 2.3 0 .7-.3 1.2-.8 1.2-.3 0-.5-.2-.7-.6-1.1-1.9-1.6-2.7-3.3-4.3l.4-.3zm-13.6 34.4c1.2.9 1.9 1.7 2.3 2.5.3.5.6 1.7.9 3.2 2.1-1.1 3.6-1.6 6.3-1.9.4-1.5.6-2.6.6-3.5 0-.8-.3-1-1.4-1h-.6l-.1-.3c.8-.4 1.4-.5 1.9-.5 1.1 0 2.4 1 2.4 1.8 0 .5-.5 2.3-.9 3.5 5 .2 8.4 3.4 8.4 7.9 0 3.3-1.9 6.2-5.5 8-1.8 1-3.5 1.4-5.9 1.7l-.1-.4c2.6-.8 4.2-1.7 5.8-3 2.2-1.9 3.3-4.3 3.3-6.9 0-2.3-.9-4.2-2.6-5.4-1.1-.8-2.1-1.1-3.8-1.2-1.2 3.3-3.2 6.9-5 9.4.4.6.6.8 1.1 1.5.9 1.1.9 1.2.9 1.6 0 .4-.3.7-.7.7-.7 0-1.6-.8-2.6-2.2-.5.6-1.1 1.3-2.3 2.2-1 .8-1.7 1.1-2.4 1.1s-1-.4-1.3-1.5c-.3-1-.4-1.2-.9-2-.5-.7-.7-1.2-.7-1.8 0-2.4 1.7-4.9 4.7-7-.5-3.4-.9-4.4-2.3-6.1l.5-.4zm-.1 10.4c-.7 1.1-1 2.4-1 3.5 0 1.4.8 2.9 1.6 2.9.7 0 2.2-1.1 3.6-2.6-.8-2-1.2-3.3-1.9-6.5-1.2 1.1-1.7 1.7-2.3 2.7zm5.4 2.3c1.7-2.4 3-5.1 3.9-8-2.6.4-4 .9-5.8 2.2 1 3.4 1.2 4.2 1.9 5.8zm9.8 16.9c2.3.8 4.6 2 5.9 2.9 1.2.9 1.6 1.6 1.6 2.6s-.5 2-1.1 2c-.1 0-.3-.1-.4-.2-.2-.2-.2-.2-1.5-2.2-1-1.5-2.6-3.2-4.6-4.8l.1-.3zM150.7 5.9c1.2.2 1.8.3 3.2.3h5.5c.5-.6 1-1.1 1.5-1.7 1.1.8 1.5 1.1 2.6 2 .1.1.1.2.1.3 0 .1-.1.2-.3.2H154c-1.4 0-1.9 0-2.9.2l-.4-1.3zm1.2-3.9c.9.2 1.7.3 2.5.3h3.8c.6-.8.8-1 1.4-1.7 1.1.8 1.4 1.1 2.4 2 .1.1.1.2.1.2 0 .1-.1.2-.3.2h-7.5c-.6 0-1.1 0-2.3.2l-.1-1.2zm.3 11.7c1.1.2 1.7.3 2.6.3h2.8c.6-.8.8-1 1.5-1.7 1 .8 1.3 1.1 2.3 1.9.1.1.2.3.2.3 0 .1-.1.2-.2.2h-6.6c-1 0-1.4 0-2.3.2l-.3-1.2zm0-3.9c1.1.2 1.7.3 2.5.3h3.2c.5-.6 1-1.2 1.5-1.7 1 .8 1.4 1.1 2.3 2 .1.1.1.2.1.3 0 .1-.1.2-.3.2h-6.8c-1 0-1.4 0-2.3.2l-.2-1.3zm2 17.7c0 .2-.1.3-.3.4-.2.1-.7.1-1 .1-.5 0-.6-.1-.7-.4.1-3.3.1-4.1.1-5.3 0-1.6 0-3.9-.1-5.3 1 .6 1.3.8 2.2 1.4h4.1c.4-.4.8-.8 1.1-1.2.8.5 1 .7 1.6 1.2.2.2.4.4.4.5 0 .2-.1.3-1 .8v1.5c0 .8.1 3.9.1 4.7 0 .2-.1.3-.2.4-.2.1-.9.2-1.4.2-.4 0-.5-.1-.5-.4v-.5h-4.5v1.9zm0-2.7h4.5v-5.9h-4.5v5.9zm24.7.7c-.6.1-.8.2-1.3.6-.5.5-.7.8-1 1.6-3-1.3-5.2-2.8-7.2-4.8-2.8 2.5-5.7 4-9.9 5.2l-.2-.4c3.5-1.5 6.2-3.3 8.9-6-1.7-2.2-2.7-4.2-3.4-7.3h-.6c-.7 0-.9.1-1.5.2l-.2-1.2c.9.2 1.7.3 2.8.3h7.4c.5-.6.7-.8 1.2-1.3 1 .7 1.3.9 2.2 1.6.2.2.3.3.3.4 0 .2-.4.4-1.5.7-1.7 3.4-2.7 4.9-4.3 6.7 2.3 1.8 4.5 2.6 8.3 3.3v.4zm-17.4-12.4c2.7-2.7 3.4-5 3.4-10.1 0-.8 0-1.1-.1-2.1 1.1.6 1.4.8 2.3 1.5h4c.5-.6.7-.8 1.2-1.4.8.6 1 .8 1.7 1.4.3.3.3.4.3.5 0 .2-.2.4-1.1.8v5.5c0 .5.1.5 1.6.5 1 0 1.3-.1 1.5-.4.2-.4.3-.7 1.3-4.4h.4l-.3 3.9v.1c0 .5 0 .5.6.8.2.1.4.4.4.6 0 .8-.8 1.1-4.1 1.1-1.9 0-2.5-.1-2.9-.3-.4-.2-.5-.6-.5-1.4V3h-4.3c-.2 3.7-.5 5.1-1.5 6.8-.9 1.5-1.8 2.4-3.7 3.6l-.2-.3zm4.2 1.2c.6 2.5 1.8 4.4 3.7 6.3 1.6-1.8 2.4-3.4 3.5-6.3h-7.2zm-8.3 30c.2.2.6.4 1 .4.7 0 1.3-.2 5.2-1.4 2.3-.7 2.4-.8 2.8-1.1.3-.2.4-.2.5-.2.8 0 2.5 1.7 2.5 2.5 0 .4-.1.5-.9.8-.5.2-.8.4-1.7 1.2-1 .8-4.2 3.9-6 5.9 1.4-.8 2.4-1.1 3.4-1.1.8 0 1.4.3 2 .8.7.6.9 1.1 1.4 3.1.4 1.7.9 2.1 3 2.1.6 0 1.3-.1 1.9-.1.4-.1.4-.1 1.1-.3.2-.1.3-.1.4-.1.3 0 .9.3 1.4.7.5.4.8.7.8 1.1 0 .7-.9.9-3.5.9-2.3 0-3.7-.3-4.8-1-.9-.5-1.4-1.2-1.7-2.3-.1-.5-.1-.5-.4-2.3-.2-1.1-.8-1.7-1.8-1.7-1.4 0-3.2 1.1-5 3-.9.9-1.6 1.7-3.1 3.7-.3.4-.5.6-.7.6-.5 0-1.1-1.1-1.1-2 0-.4.1-.6.5-.8 1.7-1.2 2.3-1.8 4.4-3.8 2.2-2.2 5.8-6.1 7.4-8.1.5-.7.6-.9.6-1 0-.1-.1-.2-.3-.2-1 0-4.2 1.4-7.1 3-.6.3-.9.5-1.2.5-.5 0-1-.4-1.4-1.2-.3-.6-.5-1.4-.5-1.9 0-.4.1-.7.5-1.1-.1.7.1 1.1.4 1.4zm3.8-10c1.5 1.2 2.3 1.6 3.9 1.9.8.2 1.1.2 2.2.3.5 0 .8.2 1.3.6.5.5.7 1 .7 1.4 0 .3-.3.6-.6.6h-.9c-.5 0-.5 0-2.5.2-.2 0-1.8.3-4.7.8l-.1-.4c2.3-.8 4.7-1.5 5.4-1.7-2.6-.9-3.7-1.6-4.9-3.4l.2-.3zM159 80.7c-.1.3-.5 2.2-1.4 5.6-.4 1.8-.5 2.3-.5 3.2 0 .9 0 1.1-.1 1.3-.1.3-.4.5-.7.5-.5 0-1-.4-1.3-1.2-.7-1.6-1.1-4-1.1-6.4 0-.9.1-2 .2-3.2.2-1.7.2-1.7 1.1-5.7.3-1.4.4-2.2.4-2.8 0-1-.2-1.7-.8-2.8.7 0 1.2.4 2 1.5.8.9 1.1 1.7 1.1 2.4 0 .5 0 .6-.6 1.8-.6 1.3-1.3 3.4-1.6 4.8-.3 1.1-.4 2.4-.4 3.7 0 1.7.2 2.7.6 4 .5-1 .8-1.7 1.1-2.6l1.6-4.2.4.1zm3.8 1.5c-.1.6-.1.9-.1 1.3 0 3.3 1.9 4.7 6.5 4.7.9 0 1.7-.1 2.6-.2.6-.1.6-.1 1.6-.5.2-.1.3-.1.5-.1.8 0 1.9 1 1.9 1.8 0 .4-.2.6-.7.8-.6.2-2.1.3-3.8.3-3.8 0-6.4-.6-7.8-1.8-1.1-1-1.6-2.3-1.6-3.9 0-.8.1-1.4.4-2.4h.5zm-.1-9.6c1.1.6 1.7.8 2.8.8 1.9 0 4.8-.7 6-1.4.4-.2.5-.2.7-.2.2 0 .6.2 1.1.4.6.4.9.7.9 1.1 0 .4-.2.6-.8.7-2 .3-3.1.6-4.3 1.1-.9.4-2.7 1.4-3.9 2.1l-.3-.3c1.4-1.1 2.4-2 2.9-2.3-.6 0-1 .1-1.2.1-1.7 0-2.8-.4-4.1-1.7l.2-.4zm-4.7 49.6c2.2 1.4 4.6 1.8 9.7 1.8 3.5 0 7-.2 10.6-.5v.4c-.9.6-1.2 1.2-1.2 2.1-2 .1-3 .1-5 .1-7.5 0-10-.3-12.5-1.4-2.9-1.3-4.8-3.5-5.9-6.8-.8 3.8-1.6 5.6-3.3 8.2l-.4-.2c1.2-2.8 1.6-4.3 2-7.7.3-2 .5-4.1.5-5.4v-.6c2.5.4 2.9.5 2.9.8 0 .2-.2.3-.9.6-.2 1.6-.3 2.1-.5 3.2.6 1.9 1.1 2.8 2.1 4v-10.5h-2.8c-.7 0-1.4.1-2 .1l-.2-1.1c.8.2 1.4.3 2.3.3h2.8v-4.4h-2.6c-.8 0-1.2 0-1.7.2l-.2-1.1c.6.1 1.1.2 2 .2h2.6v-2.1c0-.9-.1-1.4-.2-2.6.6.1 1 .1 1.3.1 1.6.1 2 .2 2 .5 0 .2-.4.4-1.3.7v3.3h1l1.4-1.6c.7.8.9 1.1 1.7 1.9.1.1.1.2.1.2 0 .1-.1.1-.3.1h-4v4.4h1.3c.6-.8.8-1.1 1.4-2 .9.9 1.1 1.2 1.9 2.1.1.1.1.2.1.3 0 .1-.2.2-.4.2H158v5.2h1.1l1.4-1.8c.8.8 1.1 1.1 1.7 1.9.1.1.2.2.2.3 0 .1-.2.2-.3.2H158v6.4zm11.4-15.9h5.1c.5-.6.7-.8 1.2-1.4l1.7 1.4c.2.2.3.3.3.4 0 .2-.1.3-1.3.8-.4 2.8-.8 4.2-1.8 6.7.8 1.1 1.3 1.8 2 3.2.4.8.5 1 .5 1.6 0 .9-.7 2.3-1.2 2.3-.2 0-.3-.2-.5-.7-.3-1.1-1.2-3.7-1.7-4.8-1.1 2.2-2.1 3.4-4.1 5.3l-.4-.3c1.7-2.2 2.7-4.1 3.6-6.7-1-2-1.5-2.9-2.7-4.6l.3-.1c1.1 1.1 1.5 1.6 2.9 3.3.6-1.9.8-3.1 1-5.8h-5.1v15.8c0 .2-.1.3-.2.3-.2.1-1 .2-1.3.2-.2 0-.3-.1-.3-.4v-4.9c-1.5.7-3.3 1.5-5.2 2.3-.1.8-.2 1.2-.5 1.2-.2 0-.2-.1-.3-.4-.3-.8-.5-1.5-.7-2.4h.4c.3 0 .4 0 1.7-.3v-16c-1.1 0-1.6 0-2.3.2l-.3-1.2c1 .2 1.5.3 2.5.3h10.6c.8-.9.8-.9 1.8-2 1.1.9 1.5 1.2 2.6 2.2.1.2.2.2.2.3 0 .1-.2.2-.3.2h-8.4v4zm-4.6-3.9v5h2.9v-5h-2.9zm0 5.7v4.3h2.9v-4.3h-2.9zm0 5v5c.3-.1.5-.1.7-.1.9-.2.9-.2 2.2-.5v-4.3h-2.9zm8.8 25.5c.5-.7.6-.8 1.1-1.4l2.1 1.4c.2.2.3.3.3.4 0 .2-.2.3-1.1.9v17c-.1.8-.4 1.2-1.1 1.7-.6.4-1.1.5-2.9.8-.4-1.7-.4-1.7-4.5-2.4v-.4c1.3.1 1.3.1 3.2.1 1.3.1 1.3.1 2.5.1.5 0 .6-.2.6-.6v-16.9h-18.6v19.3c-.1.5-.4.6-1.5.6-.5 0-.6-.1-.7-.4.1-4.3.1-4.3.1-12.5 0-7.3 0-7.3-.2-9.2 1.2.6 1.6.8 2.7 1.4h4.4c1.1-2.6 1.6-4 2.1-6.2.6.2 1.1.3 1.4.4 2.1.6 2.3.7 2.3.9 0 .3-.2.4-1.5.6-1.5 2-2 2.8-3.4 4.2h12.7zm-5.9 4.9c.4-.5.5-.7 1-1.1.8.5 1.1.7 1.8 1.2.2.2.2.3.2.3 0 .1-.3.4-.8.8 0 4.2 0 6.8.1 8-.1.4-.4.6-1.5.6-.4 0-.6-.1-.6-.3v-1.4H161v1.5c0 .5-.3.6-1.4.6-.4 0-.6-.1-.6-.5.1-1.3.1-2.1.1-8.3 0-.8 0-1.4-.1-2.6 1.1.5 1.4.6 2.4 1.1h6.3zm-6.7 7.4h6.9v-6.7H161v6.7zm-6.8 20.1c1.4 1.1 2.1 1.4 3.8 1.4 1 0 1.8-.1 3.2-.4.7-1.3 1.1-2.4 1.1-3.1 0-.8-.6-1.3-2.1-1.7.5-.3.8-.3 1.4-.3.7 0 1.6.2 2.3.5.8.3 1.1.6 1.1 1 0 .2-.1.4-.5.9-.3.4-.6.9-.9 1.2-.5.9-.5.9-.8 1.2 2.5-.7 3.3-1.1 4.3-1.9.2-.1.4-.2.6-.2 1.2 0 2 .4 2 1 0 .4-.4.7-1.3 1-2.7.9-4.1 1.2-6.5 1.7-.5.7-.9 1.3-1.6 2.3-.8 1.3-1.1 1.6-1.6 2.4 1.7-.9 2.7-1.2 3.9-1.2 1.8 0 3.1 1.2 3.4 3 .5-.2.5-.2 2.9-1.5 3-1.5 3.7-2 3.7-2.5s-.5-1.1-1.4-1.4c.3-.1.5-.2.7-.2 1.3 0 3.4 1.8 3.4 3 0 .5-.2.8-1.1.9-1.8.4-5.7 1.9-8 3.1v2.4c0 1.4-.1 2.3-.2 2.6-.2.3-.5.6-.8.6-.6 0-1-.4-1-.9v-.5c.1-.9.2-1.9.2-3.2-1.9 1-2.7 1.6-3.5 2.4-1 1-1.5 1.9-1.5 2.8 0 1.6 1.7 2.4 5 2.4 2.1 0 4.2-.3 6-.8.2-.1.4-.1.6-.1.9 0 2.1.8 2.1 1.5 0 .4-.3.7-.9.8-1.2.2-3.5.4-5.4.4-2.8 0-4.9-.3-6.1-.9-1.5-.7-2.2-1.7-2.2-3.2 0-1.4.7-2.7 2.2-4.1.8-.8 1.7-1.4 3.7-2.7 0-1.3-.1-1.7-.4-2.4-.3-.5-.9-.9-1.5-.9-2 0-4.4 1.6-6.5 4.4-.6.8-.8 1-1.1 1-.5 0-.8-.6-.8-1.6 0-.6 0-.7.9-1.4 2.1-1.7 3.5-3.2 5.6-6.5-1 .1-1.4.2-2 .2-2 0-3.1-.5-4.5-2.3l.1-.2zm-4.2 44.7h1.7c.5 0 .6-.1.8-.4.2-.2.5-1 1.2-3.1.7-1.8.8-2 2.3-5.8.7-1.7.7-1.7 1.1-2.9l.3.1-3.2 11.6c-.4 1.4-.4 1.4-.4 1.7 0 .3 0 .4.7 3 .2.9.3 1.4.3 1.8 0 .8-.2 1.3-.7 1.8-.4.4-.8.6-1.3.6s-.7-.3-.7-.8c0-.3 0-.6.3-2.7.1-.5.1-1.1.1-1.6 0-2-.5-2.6-2.5-3v-.3zm1.2-15.5c1.4.8 2.3 1.4 3.1 2.1.9.7 1.1 1.1 1.1 1.8 0 .8-.5 1.7-1.1 1.7-.3 0-.5-.2-.7-.8-.5-1.5-1.2-2.6-2.8-4.6l.4-.2zm11.1 11.9c-.2 2.3-.2 2.4-.4 3.7h1.1c.6-.7.6-.7 1.4-1.7.9.8 1.2 1 2 1.9.1.1.1.2.1.2 0 .1-.1.2-.3.2h-4.5c-.2.8-.2 1.2-.5 1.8.8.3 1.1.5 1.6.8 1.2.8 1.7 1.3 1.7 2 0 .8-.5 1.6-.9 1.6-.3 0-.3 0-1.4-2.3-.3-.7-.6-1.1-1.1-1.6-.5 1.2-1 2.2-1.9 3.2-1.3 1.7-2.6 2.6-4.7 3.7l-.2-.3c1.9-1.5 3.1-2.8 4.2-4.7.7-1.2 1.1-2.3 1.4-4.1h-2.6c-1.2 0-1.4 0-2 .2l-.2-1.1c.7.2 1.3.2 2.2.2h2.7c.2-1.3.3-2.1.3-3.7h-1.6c-.7 1.1-1.1 1.8-2.3 3.2l-.3-.2c1.1-1.8 1.6-3.5 2.2-6.3.5.1.9.2 1.2.3 1.2.3 1.4.4 1.4.6 0 .2-.2.3-1.1.5-.5.8-.5.8-.7 1.2h3.8c.6-.7.8-.9 1.4-1.5.9.7 1.1 1 2 1.8.1.1.1.2.1.2 0 .1-.1.2-.2.2h-3.9zm-2.3-8.3c.6-.3 1-.6 1.8-1.2 1.4-1.1 1.9-1.5 2.6-2.4.5.3.8.5 1.1.6 1.1.6 1.2.7 1.2.9 0 .2-.2.3-1.2.3-2.3 1.2-3.9 1.8-5.4 2.2v1.7c0 .6 0 .6 2.6.6 1.6 0 1.8 0 2-.4.2-.4.4-1 .9-2.9l.3.1v2.8c0 .2 0 .2.5.5.2.1.4.4.4.6 0 .3-.2.6-.7.7-.5.1-1.5.2-3.6.2-3.8 0-4-.1-4.1-1.4V199c2.7.3 3.1.4 3.1.7 0 .2-.2.4-1.3.7v3.4zm12.7 18.5c1.1.4 1.9.5 3.7.5h2.6v.4c-.9.4-1.2.8-1.4 2-5.4-.1-7.7-1.7-9.6-6.5-.6 1.7-1.2 2.7-2.1 3.9-1.1 1.4-2 2.3-3.6 3.3l-.2-.3c1.7-1.7 2.8-3.2 3.6-5 .9-2 1.6-5.1 1.6-7.5v-.7c2.4.4 2.7.5 2.7.7 0 .2-.2.4-.9.6-.3 2-.5 2.9-.9 4.3.9 1.9 1.6 2.8 2.7 3.6v-11.9h-2.7c-.8 0-1.3 0-2 .2l-.2-1.1c.6.2 1.1.2 2.2.2h7.1c.5-.6.6-.8 1.1-1.3.8.6 1.1.8 1.9 1.4.2.2.3.3.3.4 0 .2-.2.3-1.4.6-.8.9-.8.9-2.9 2.6l-.2-.2c.8-1.3 1-1.7 1.4-2.9h-2.9v5.6h1.5c.7-.8.9-1.1 1.6-1.8 1 .8 1.3 1.1 2.2 2 .1.1.2.2.2.3 0 .1-.1.2-.3.2h-5.1v6.4zm1.6-21.7c.6-.6.8-.8 1.2-1.3.8.5 1.1.7 2 1.4.3.2.4.3.4.5 0 .3-.3.4-1.4.7-1.5 1.6-2 2-3.9 3.5.8.6 1 .9 1 1.5 0 .8-.5 1.7-1 1.7-.2 0-.4-.2-.6-.6-.7-1.5-1.9-3-3.8-4.8l.3-.2c2 1 2.7 1.4 3.7 2.1 1.1-1.4 1.4-2 2.2-3.6h-5c-1.2 0-1.6 0-2.1.2l-.2-1.1c.9.2 1.4.2 2.3.2h4.9zm-13.5 32c1 1.4 1.8 2 3.8 2.6.6.2 1.5.4 2.2.6.5.1.9.3 1.2.8.5.5.7 1 .7 1.3 0 .4-.3.6-.7.6-.1 0-.2 0-.6-.1-.5-.1-.8-.1-1.5-.1-1.5 0-3.8.3-5.7.8-.8.2-1.2.3-1.4.5-.2.2-.3.5-.3.8 0 .2.1.5.2.9.2.5.2.7.2 1 0 .2 0 .4-.1 1-.2 1.6-.4 4.1-.5 6.1 3.6-2.4 7.1-3.7 9.8-3.7 3.4 0 5.7 2 5.7 4.7 0 2.8-2.2 5.1-5.9 6.4-2 .7-4 1.1-6.8 1.2l-.1-.5c3.5-.6 5.6-1.3 7.5-2.7 2.1-1.5 3-3 3-4.9 0-2-1.4-3.3-3.6-3.3-2.1 0-4.8 1.2-7.2 3.3-.8.7-1.2 1.1-1.7 1.9-.3.5-.5.6-.8.6-.5 0-.8-.3-1.3-1-.4-.6-.6-1.2-.6-1.5 0 0 .1-.3.1-.5.1-.5.2-.7.3-1.8.1-.6.2-1.4.4-2.5.4-2.3.5-3.3.6-4 0-1.1.1-1.3.5-1.7.4-.4 1.3-.8 3.1-1.4 2.6-.8 2.6-.8 3.5-1.1-1.2-.5-2-1-2.7-1.7-.6-.6-1-1.1-1.5-2.4l.2-.2zm13.9 51.8c-2.9 3.9-6.8 6.2-10.5 6.2-2.3 0-4.1-.9-5-2.6-.6-1.1-.8-2.5-.8-5.1 0-1.7.1-4.5.2-7.2.2-3.2.2-4.1.2-5.2 0-2.6-.3-3.1-2.4-4 .3-.2.5-.3.8-.3.7 0 1.8.3 2.7.7 1.1.5 1.7 1.1 1.7 1.8 0 .2 0 .4-.3 1.1-.6 1.8-1.6 10.9-1.6 14.4 0 1.8.4 2.9 1.2 3.6.7.5 1.6.8 2.7.8 2 0 4.6-.7 6.8-1.9 1.4-.7 2.3-1.4 3.8-2.7l.5.4zm-22 20.9c1.2 1.3 2 1.7 3.3 1.7 1.2 0 2.4-.2 3.8-.6.6-2 1-4.1 1-5.1 0-.9-.5-1.3-2.1-1.9.4-.2.5-.3.9-.3.7 0 1.7.2 2.6.6.9.3 1.4.8 1.4 1.2 0 .2 0 .2-.4.7-.4.6-1.1 2.2-1.8 4.3 1.7-.6 2.8-1.2 3.5-1.8.5-.4.6-.5.8-.5.4 0 1.1.2 1.6.3.3.1.5.3.5.5 0 .5-.5.9-1.7 1.5-1.4.6-3.4 1.3-5.3 1.7-.4 1-.4 1-1.3 3.8-.6 1.8-.6 1.8-2.3 6.7-1.2 3.6-1.6 4.3-2.2 4.3-.3 0-.5-.2-.7-.6-.2-.5-.4-1.2-.4-1.7s0-.6.7-1.5c1.5-2.2 2.7-4.8 4.7-10.7-1.1.2-2 .3-2.9.3-1.8 0-3-.8-4.1-2.7l.4-.2zm12 10.3v.9c0 1.7.8 3 2.3 3.6.8.4 2 .6 3.2.6 1.2 0 1.9-.1 2.9-.4.2-.1.4-.1.5-.1.3 0 1 .3 1.5.7.4.3.5.6.5.8 0 .7-1.2 1-3.5 1s-4.2-.3-5.6-1c-1.6-.8-2.6-2.3-2.6-4.4 0-.7.1-1.2.3-1.9l.5.2zm.8-5.5c2.2-1.3 4.6-2 7-2 .6 0 1.4.2 1.9.5.3.2.5.5.5.8 0 .5-.3.7-1.1.7-1.1.1-1.5.2-2.3.6-.6.3-.6.3-1.7 1-.6.4-.6.4-1.1.6l-.2-.3 1.4-1.4c.3-.2.5-.5 1.5-1.4-2 0-3.6.3-5.7 1.1l-.2-.2zm-57.9-289v.8c0 .2-.1.3-.3.4-.1.1-.8.1-1.2.1-.4 0-.6-.1-.6-.4v-.1c.1-2.6.1-4.6.1-6.4 0-2.9 0-5.1-.1-6 1.1.5 1.4.7 2.4 1.4h12.5c.4-.6.5-.7.9-1.3.9.5 1.1.7 1.9 1.3.2.2.3.3.3.4 0 .2-.5.5-1.1.8v2.1c0 .9.1 6.1.1 7.5 0 .3-.1.3-.3.4-.2.1-1 .1-1.3.1-.3 0-.4-.1-.4-.4V21h-3v4c0 .5.1.6.7.7h5.3c1 0 1.2-.2 1.5-.7.4-1 1.2-3.1 1.8-4.7l.4.1-.3 4.1v.5c0 .2.1.4.4.5.8.3 1 .5 1 .9 0 .2-.2.5-.6.6-.4.2-.7.2-1.6.2-.3 0-3.9.1-4.5.1-3.7 0-4.4 0-5-.2-.7-.3-.9-.6-1-1.4v-4.6h-2.7c-.6 1.7-1.1 2.6-2.2 3.5-2.1 1.9-5.2 2.9-10.2 3.2l-.1-.4c5.9-1 9.3-3 10.5-6.3h-3.3zm16.1-17.8c.5-.7.6-.9 1.2-1.5 1.2.7 1.6.9 2.7 1.7.3.2.4.3.4.5 0 .3-.3.4-2 .6-.7.6-.8.8-1.9 1.6.6.4.9.6 1.7 1.3l.2.2c0 .1-.1.2-.3.2h-7.1v1.5c0 .3-.1.4-.3.4-.2.1-.8.2-1.2.2-.4 0-.5-.1-.5-.3V7.9h-5.1v1.8c0 .3-.4.4-1.2.4-.5 0-.7-.1-.7-.4V7.9H106c-.5 0-.9 0-2 .1l-.1-1c1.2.2 1.9.3 2.5.3h3.2v-.5c0-.8 0-1.6-.1-2.2 2.6.4 2.6.4 2.9.5.1 0 .2.2.2.2 0 .2-.2.3-1.2.5v1.4h5.1c0-1.1-.1-1.6-.1-2.5 2.7.3 3.1.4 3.1.7 0 .2-.2.3-1.1.5v1.3h3.2c.6-.7.8-1 1.4-1.7l.6.4c0-.2.2-.9.3-2h-19.6c-.4 2.4-1.5 4.4-2.3 4.4-.5 0-1.1-1.1-1.1-1.9 0-.3.1-.4.8-.9 1.3-.9 2.1-2.5 2.3-4.2h.5v.8c0 .3 0 .6-.1 1.1h8.6V1.8c0-.8 0-.9-.1-1.5 1.3.1 2.7.4 3.2.5.3.1.4.2.4.3 0 .3-.4.4-1.4.7v1.5h8.6zm-3.2 10.6v-2.3h-12.9v2.3h12.9zm-12.9.7V17h12.9v-2.4h-12.9zm0 3.1v2.7h12.9v-2.7h-12.9zm-3.4 22.1c1.4 1 2.4 1.3 4 1.3 1.4 0 3.6-.4 4.9-.9-.5-1-2-2.9-2.6-3.3-.2-.3-1.4-.6-2.3-.6.2-.5.4-.6 1.2-.8.5-.1.8-.1 1.4-.1 1.1 0 1.8.1 2 .4.3.2.3.3.4 1.2.1.7.1.8 1.2 3 2-.7 3.3-1.4 4-2.1.2-.2.5-.3.9-.3 1.2 0 1.8.3 1.8.8 0 .6-1.1 1.1-6 2.7.2.3.3.5.4.6.4.7 1 1.7 1.8 2.9 2.4-.9 3.1-1.2 3.7-1.7-.6-.6-.8-.8-1.6-1.4l.2-.3c1.1.6 1.9.8 2.5.8l.5-.1h.2c.5 0 .8.3.8.8 0 .7-1.7 1.6-5.8 3.1.8 1.3 1 1.7 1.4 2.3.5.8.8 1.4.9 1.6l.5.8c.4.6.5 1 .5 1.6 0 1.2-.4 2-1 2-.3 0-.4-.1-.8-.5-1.5-1.2-4.3-2.1-7-2.1-1.4 0-2.7.3-3.8.8-1.2.6-1.8 1.4-1.8 2.4 0 1.9 2 2.9 5.7 2.9 1.5 0 2.3-.1 3.8-.4.2 0 .3-.1.4-.1.9 0 2 .8 2 1.6 0 .3-.2.4-.5.6-.6.2-2.4.4-4.1.4-2.3 0-4.4-.3-5.8-.9-1.8-.8-2.9-2.2-2.9-3.8 0-2.7 3.2-4.5 7.9-4.5 1.8 0 3.5.2 5.6.7-.3-1-1.2-3.2-2.3-5.1-2 .7-4.6 1.2-6.4 1.2-1.3 0-2.3-.3-3.1-.9-.6-.5-.9-.8-1.4-1.8l.4-.3c1 1.3 2 1.8 3.5 1.8 1.7 0 3.9-.4 6.4-1.2-.5-1-1.6-2.9-2.1-3.6-2 .6-4 1-5.6 1-1.7 0-3.1-.7-4.4-2.2l.4-.3zm17.2-5c1.1.6 1.9 1.2 2.7 1.9 1.1 1 1.5 1.7 1.5 2.4s-.4 1.3-.9 1.3c-.4 0-.4 0-1.3-2-.5-1-1.5-2.4-2.3-3.2l.3-.4zm3.1-1.8c1.1.5 2 1 2.9 1.7 1.1.9 1.5 1.5 1.5 2.3 0 .7-.3 1.2-.8 1.2-.3 0-.5-.2-.7-.6-1.1-1.9-1.6-2.6-3.3-4.3l.4-.3zm-10.3 58.1c3.2-1 5.3-2.2 7-4.2 1.8-2 2.7-4.5 2.7-7.2 0-2.9-1.2-5.2-3.4-6.6-1.3-.9-3.3-1.4-5.2-1.4-.4 0-.6 0-1.1.1.7 1.1.9 1.6.9 2.5 0 2.3-1.7 6.7-4 10.4-1.9 3-3.4 4.5-4.5 4.5-.5 0-1-.2-1.3-.6-.3-.4-.3-.5-.8-1.9-.3-.8-.5-1.1-1.3-2.8-.5-1-.7-1.8-.7-2.7 0-1.9 1-4.1 2.7-5.9 2.4-2.6 6.4-4.2 10.3-4.2 3 0 5.8 1 7.7 2.8 1.9 1.8 2.9 4.1 2.9 7.1 0 3.8-2.2 7.1-6 9.1-1.7.9-3.3 1.4-5.9 1.9v-.9zm-9.9-9.3c0 1.4.5 2.9 1.2 4 .4.5.8.9 1.1.9.7 0 2.1-1.6 3.6-4 2.2-3.5 3.8-7.4 3.8-9.3 0-.5-.1-.8-.4-1.5-5.2.9-9.3 5.3-9.3 9.9zm11.3 42.8h7.3c.8-1.1 1-1.4 1.9-2.3l2.9 2.6c.1.1.2.2.2.3 0 .1-.1.2-.2.2h-23.1c-1.1 0-1.8.1-3.2.3l-.3-1.3c1.4.2 2.9.3 3.7.3h8.7v-7.8h-7.1c-.5 0-.9.1-2.3.3l-.2-1.2c.9.1 2.2.2 2.8.2h14.4c.7-1 1-1.3 1.7-2.2 1.3 1.1 1.7 1.4 2.9 2.5.1.1.1.2.1.2 0 .1-.1.2-.2.2h-9.8v7.7zm-3-19.9c-.1 1.5-.1 1.8-.3 2.6-1.1 4.2-4.7 6.7-10.7 7.3l-.3-.5c3.6-.6 6.1-1.9 7.6-4.1 1-1.5 1.4-2.8 1.6-5.3H105c-.4 2.8-1.4 4.4-2.6 4.4-.2 0-.4-.1-.6-.5-.2-.4-.5-.9-.5-1.2 0-.4.1-.6.8-1 1.4-1 2.3-2.6 2.6-4.6h.5c0 1 0 1.4-.1 2.1h8.2v-2.3c0-1.2 0-1.4-.2-2.2 2.9.3 3 .3 3.4.4.2.1.4.2.4.3 0 .3-.4.5-1.5.8v2.9h8.1c.5-.7.7-.9 1.3-1.6 1.2.8 1.5 1.1 2.6 2 .2.2.3.3.3.4 0 .1-.1.1-.1.2-.1.1-.4.2-.8.2-.8.2-1.2.2-1.4.3-1 1-1.6 1.6-3 2.7l-.2-.2c.6-1.1.7-1.2 1.4-3.3h-5.2v5.6c0 .5.1.6.5.7.2 0 2.2.1 3.3.1 1.1 0 2.3-.1 2.6-.2.3-.1.3-.1.8-1.1.3-.8.6-1.4 1.1-3h.5l-.2 3.1v.4c0 .3.2.4.5.5.6.2.8.4.8.8s-.3.7-.8.8c-.6.1-2.5.3-4.4.3-2.3 0-4.7-.1-5.3-.1-.9-.1-1.3-.5-1.3-1.6v-6.3h-3.9zm-8.5 37.5v17.4c0 .2-.1.3-.3.4-.2.1-1 .1-1.4.1-.3 0-.4-.1-.4-.3.1-2.6.1-7.3.1-14.9 0-7.8 0-10.5-.1-12.2l2.1 1.4h6.2c.5-.6.7-.8 1.2-1.4.7.6.9.8 1.6 1.4.2.2.3.3.3.4 0 .2-.2.4-.9.7v3.3c0 1.6 0 2.6.1 4.4 0 .2-.1.3-.2.4-.1.1-.8.1-1.5.1-.2 0-.3-.1-.4-.3v-.9h-6.4zm6.4-7.4h-6.4v2.9h6.4v-2.9zm0 3.6h-6.4v3.1h6.4v-3.1zm0 18.6c0 .2-.1.2-.3.3-.2.1-.9.2-1.2.2-.3 0-.4-.1-.4-.3 0-2.5.1-3.8.1-5.1 0-3.5 0-6.3-.1-7.5 1 .5 1.3.7 2.3 1.3h7c.6-.5.8-.7 1.3-1.2.6.5.8.7 1.5 1.3.3.2.3.3.3.4 0 .2-.1.3-1 .7v3.3c0 2 0 3.2.1 5.5 0 .3-.1.3-.3.4-.2.1-.8.1-1.3.1-.3 0-.4-.1-.4-.3V155h-7.6v2zm7.6-10.5h-7.6v3.4h7.6v-3.4zm-7.6 4.1v3.9h7.6v-3.9h-7.6zm7.6-8.4v.8c-.1.4-.3.4-1.1.4s-.8-.1-.8-.4c.1-1.9.1-2.8.1-4.5 0-4.3 0-4.6-.1-5.7 1 .5 1.3.7 2.2 1.3h6.3c.5-.6.7-.8 1.2-1.4.8.6 1.1.8 1.8 1.4.2.2.3.3.3.4 0 .2-.1.3-.9.9v22.2c-.1 1.4-.6 1.8-3.2 2.3-.3-.7-.5-1-1.1-1.4-.3-.2-.8-.3-1.6-.5-1.1-.2-1.6-.3-1.7-.3v-.5c2.4.2 3 .2 4.9.2.5 0 .5-.1.5-.4v-15h-6.8zm6.8-7.4h-6.8v2.9h6.8v-2.9zm0 3.6h-6.8v3.1h6.8v-3.1zm3.8 31.6c0 2.1-1.7 3.9-3.9 3.9s-3.9-1.7-3.9-3.9c0-2.1 1.7-3.9 3.9-3.9s3.9 1.7 3.9 3.9zm-6.8 0c0 1.6 1.3 2.9 2.9 2.9 1.6 0 2.9-1.3 2.9-2.9 0-1.6-1.3-2.9-2.9-2.9-1.6 0-2.9 1.3-2.9 2.9zM68 3.7c.5-.6.7-.8 1.3-1.4 1 .7 1.3.9 2.2 1.6.2.1.2.2.2.3 0 .3-.5.5-1.7.7-3.2 4.4-5.6 6.9-9.3 9.2-3 1.9-5.6 3-9.4 3.9l-.1-.4c4-1.6 6.7-3.1 9.7-5.4 3.1-2.4 5-4.6 7-7.8h-6.5c-.9 1-1.7 1.8-2.8 2.7 1.2.5 2.1 1 2.8 1.4.5.3.7.7.7 1.2 0 .6-.5 1.5-.9 1.5-.2 0-.3-.1-.5-.4-.1-.3-.7-1.3-1-1.8-.4-.7-.8-1.1-1.4-1.6-2.1 1.7-3.8 2.7-6.4 3.8l-.2-.3c2.8-1.8 4.9-3.6 6.9-5.9 1.6-1.8 2.5-3.3 3.2-5 1.1.3 2.6.8 3 1 .2.1.2.2.2.2 0 .1-.1.2-.1.2-.1.1-.2.1-.5.2-.4.1-.4.1-.8.3-.7.8-.9 1.1-1.6 1.8h6zm-1.2 10.6c-1 1-1.7 1.6-2.7 2.4 1.4.8 2.3 1.3 2.5 1.5.8.6 1.1 1 1.1 1.7s-.5 1.7-.9 1.7c-.2 0-.2-.1-.4-.4-.2-.4-.8-1.6-1.2-2.3-.4-.7-.8-1.2-1.4-1.8-2.6 1.9-4.9 3.1-8.3 4.4l-.2-.4c5.9-3.3 10.5-7.3 12.5-11.1 2.2.6 2.9.8 2.9 1.1 0 .3-.4.5-1.4.7-.8.9-1 1.1-1.7 1.9H74l1.4-1.4c1 .7 1.3.9 2.2 1.6.1.1.2.1.2.2 0 .2 0 .2-1.6.8-1.6 2.6-2.8 4.1-4.8 5.9-3.2 2.8-6.7 4.7-11.2 5.9-2 .5-3.7.8-6.8 1.3l-.2-.5c5-1.2 8.9-2.6 11.9-4.3 2.6-1.5 5-3.5 6.8-5.8.7-.9 1.1-1.5 2-3h-7.1zm-9.3 25.4c.6-.8.8-1 1.5-1.8 1 .9 1.3 1.1 2.2 2 .1.1.1.2.1.3 0 .1-.1.2-.3.2h-4.1v2.2c.4.3.4.3 1.6 1.1.9.6 1.4 1.3 1.4 1.9 0 .7-.6 1.7-1 1.7-.2 0-.4-.2-.5-.6-.4-1.4-.9-2.6-1.5-3.5v17.4c-.1.4-.4.5-1.6.5-.3 0-.5-.1-.5-.4v-.1c.2-4.7.2-4.7.2-6.5v-2.3c0-1.7 0-2.9.1-3.5l.3-4.4c-.8 2.6-1.3 3.8-2.3 5.8-.9 1.9-1.5 2.7-2.8 4.3l-.3-.2c1.6-3.1 2.6-5.4 3.4-8 .5-1.7.5-1.7 1.3-5.2H53c-.9 0-1.6.1-2.2.2l-.2-1.2c.7.1 1.5.2 2.4.2h2v-3.4c0-1.3 0-1.8-.2-3 2.9.5 3.2.5 3.2.8 0 .2-.3.4-1.1.7v4.9h.6zm11.4 2.9h3.7c.6-.8.8-1 1.4-1.7 1.1.8 1.4 1.1 2.4 2 .1.1.2.2.2.3 0 .1-.1.2-.3.2h-7.4v3.3h5.5c.7-.9.9-1.1 1.7-1.9 1.2.9 1.5 1.2 2.6 2.2.1.1.2.2.2.3 0 .1-.1.1-.3.1H69c.8 2.3 1.3 3.2 2.5 4.7 1.1-1.1 2-2.3 2.9-4.1 2.1 1.2 2.9 1.8 2.9 2 0 .2-.2.3-.4.3h-.3c-.2 0-.4 0-.8-.1-1.6 1.1-2.1 1.4-4 2.3 1.9 2.1 3.9 3.5 6.9 4.7v.4c-1.2.3-1.4.4-2.2 1.9-2.2-1.5-3.2-2.6-4.9-5-1.2-1.8-1.9-3.2-2.7-5.6v3.8c.1 1.3.1 2.3.1 3.1 0 1.2.1 1.4.1 2.6 0 1-.2 1.5-.8 1.9-.4.3-1 .5-2.6.7-.3-.9-.5-1.2-1.2-1.5-.6-.3-1.5-.5-2.9-.7v-.5c1.8.1 1.9.1 4.9.1h.1c.3 0 .4-.1.4-.5v-4.4c-2.6 1.7-4.1 2.5-6.8 3.9-.1 1-.2 1.2-.4 1.2-.3 0-.5-.5-1.4-2.9 2.8-.5 5.9-1.5 8.7-2.8v-5.7H63c-1.5 0-2 .1-2.7.3l-.3-1.1c.8.2 1.6.3 2.9.3H67v-3.3h-3.7c-1.1 0-1.8.1-2.4.2l-.2-1.2c.6.2 1.8.3 2.6.3H67v-3.3h-3.5c-.9 0-1.5.1-2.3.2l-.2-1.3c1 .2 1.7.3 2.6.3h5.6c1.3-1.8 2-3.1 2.7-5.2 2.3 1.1 2.9 1.4 2.9 1.7 0 .3-.2.3-1.4.4-1.4 1.4-2 2-3.5 3.1H74c.6-.9.8-1.1 1.4-1.9 1.1.9 1.5 1.2 2.6 2.2 0 .1.1.1.1.2s-.1.2-.2.2H69v3.3zm-8.1 5.5c.9.5 1.8 1 2.7 1.6.9.6 1.2 1 1.2 1.7 0 .9-.6 1.9-1.1 1.9-.2 0-.4-.2-.6-.7-.9-2.2-1.3-2.9-2.5-4.2l.3-.3zm2.1-14.5c1.1.6 2 1.1 2.8 1.8.8.6 1 .9 1 1.4 0 .9-.5 1.7-1.1 1.7-.3 0-.4-.1-.8-1.2-.5-1.3-1-2.1-2.1-3.4l.2-.3zm-9.7 39.2c1.4 1.4 2.3 1.7 3.8 1.7.8 0 1.6-.1 2.7-.4.8-2 1.1-3.2 1.1-4.3 0-1-.5-1.6-1.9-2.3.3-.2.5-.2.7-.2.6 0 1.5.3 2.4.7 1 .5 1.4.8 1.4 1.3 0 .2-.1.4-.3.8-.1.2-.8 1.5-1.8 3.7 2.2-.8 2.5-.9 3.3-1.7.3-.1.4-.1.7-.1 1.2 0 2 .4 2 .9 0 .8-1.9 1.5-6.6 2.6-.3.6-.8 1.8-1.6 3.6-.9 2.1-3.2 7.1-3.5 7.6-.5.8-.7 1.1-1.1 1.1-.5 0-.9-.9-.9-2.1 0-.6.1-.8.3-1.1.7-.7 1-1.2 1.4-1.8 1.5-2.2 2.6-4.2 3.8-7.1-.7.1-.9.1-1.4.1-1.1 0-1.9-.2-2.6-.6-.9-.5-1.6-1.2-2.2-2.2l.3-.2zm15.9 1.7c2.1.2 3.8.7 5.1 1.7 1.2.8 1.9 1.7 1.9 2.3 0 .5-.3.9-.8.9-.2 0-.4-.1-.7-.2-.8-.5-1.4-.6-2.9-.6-2.4 0-3.2.7-3.2 2.7 0 .8.2 2.1.6 5.2 1.8.5 3.4 1.3 4.3 2 .8.6 1.2 1.4 1.2 2.4 0 .6-.2 1-.6 1-.3 0-.4-.1-1.1-.8-1.1-1.2-2.1-1.9-3.6-2.6v.6c0 1.2-.2 1.9-.8 2.6-.8.8-2.2 1.3-3.9 1.3-2.7 0-4.6-1.3-4.6-3.2 0-2.1 2.3-3.6 5.6-3.6.7 0 1 0 1.8.2-.1-2.4-.1-2.6-.1-3 0-2.5.2-3.4 1.1-4.3.6-.6 1.4-1.1 2.9-1.4.5-.1.5-.2 1.6-.4-.8-.9-1.7-1.4-3.9-2.1l.1-.7zm-1.6 13.2c-.9-.3-1.6-.4-2.6-.4-2.6 0-4.1.9-4.1 2.3 0 1.1 1.1 1.8 3 1.8 2.4 0 3.7-1 3.7-2.9v-.8zm-9.6 34.5c2.2 1.4 4.6 1.8 9.7 1.8 3.5 0 7-.2 10.6-.5v.4c-.9.6-1.2 1.2-1.2 2.1-2 .1-3 .1-5 .1-7.5 0-10-.3-12.5-1.4-2.9-1.3-4.8-3.5-5.9-6.8-.8 3.8-1.6 5.6-3.3 8.2l-.4-.2c1.2-2.8 1.6-4.3 2-7.7.3-2 .5-4.1.5-5.4v-.6c2.5.4 2.9.5 2.9.8 0 .2-.2.3-.9.6-.2 1.6-.3 2.1-.5 3.2.6 1.9 1.1 2.8 2.1 4v-10.5h-2.8c-.7 0-1.4.1-2 .1l-.2-1.1c.8.2 1.4.3 2.3.3h2.8v-4.4h-2.6c-.8 0-1.2 0-1.7.2l-.2-1.1c.6.1 1.1.2 2 .2h2.6v-2.1c0-.9-.1-1.4-.2-2.6.6.1 1 .1 1.3.1 1.6.1 2 .2 2 .5 0 .2-.4.4-1.3.7v3.3h1l1.4-1.6c.7.8.9 1.1 1.7 1.9.1.1.1.2.1.2 0 .1-.1.1-.3.1H58v4.4h1.3c.6-.8.8-1.1 1.4-2 .9.9 1.1 1.2 1.9 2.1.1.1.1.2.1.3 0 .1-.2.2-.4.2H58v5.2h1l1.4-1.8c.8.8 1.1 1.1 1.7 1.9.1.1.2.2.2.3 0 .1-.2.2-.3.2h-4.1v6.4zm11.4-15.9h5.1c.5-.6.7-.8 1.2-1.4l1.7 1.4c.2.2.3.3.3.4 0 .2-.1.3-1.3.8-.4 2.8-.8 4.2-1.8 6.7.8 1.1 1.3 1.8 2 3.2.4.8.5 1 .5 1.6 0 .9-.7 2.3-1.2 2.3-.2 0-.3-.2-.5-.7-.3-1.1-1.2-3.7-1.7-4.8-1.1 2.2-2.1 3.4-4.1 5.3l-.4-.3c1.7-2.2 2.7-4.1 3.6-6.7-1-2-1.5-2.9-2.7-4.6l.3-.1c1.1 1.1 1.5 1.6 2.9 3.3.6-1.9.8-3.1 1-5.8h-5.1v15.8c0 .2-.1.3-.2.3-.2.1-1 .2-1.3.2-.2 0-.3-.1-.3-.4v-4.9c-1.5.7-3.3 1.5-5.2 2.3-.1.8-.2 1.2-.5 1.2-.2 0-.2-.1-.3-.4-.3-.8-.5-1.5-.7-2.4h.4c.3 0 .4 0 1.7-.3v-16c-1.1 0-1.6 0-2.3.2l-.3-1.2c1 .2 1.5.3 2.5.3h10.6c.8-.9.8-.9 1.8-2 1.1.9 1.5 1.2 2.6 2.2.1.2.2.2.2.3 0 .1-.2.2-.3.2h-8.4v4zm-4.6-3.9v5h2.9v-5h-2.9zm0 5.7v4.3h2.9v-4.3h-2.9zm0 5v5c.3-.1.5-.1.7-.1.9-.2.9-.2 2.2-.5v-4.3h-2.9zm-5.8 33.6c-.1.3-.5 2.2-1.4 5.6-.4 1.8-.5 2.3-.5 3.2 0 .9 0 1.1-.1 1.3-.1.3-.4.5-.7.5-.5 0-1-.4-1.3-1.2-.7-1.6-1.1-4-1.1-6.4 0-.9.1-2 .2-3.2.2-1.7.2-1.7 1.1-5.7.3-1.4.4-2.2.4-2.8 0-1-.2-1.7-.8-2.8.7 0 1.2.4 2 1.5.8.9 1.1 1.7 1.1 2.4 0 .5 0 .6-.6 1.8-.6 1.3-1.3 3.4-1.6 4.8-.3 1.1-.4 2.4-.4 3.7 0 1.7.2 2.7.6 4 .5-1 .8-1.7 1.1-2.6l1.6-4.2.4.1zm3.8 1.5c-.1.6-.1.9-.1 1.3 0 3.3 1.9 4.7 6.5 4.7.9 0 1.7-.1 2.6-.2.6-.1.6-.1 1.6-.5.2-.1.3-.1.5-.1.8 0 1.9 1 1.9 1.8 0 .4-.2.6-.7.8-.6.2-2.1.3-3.8.3-3.8 0-6.4-.6-7.8-1.8-1.1-1-1.6-2.3-1.6-3.9 0-.8.1-1.4.4-2.4h.5zm-.1-9.5c1.1.6 1.7.8 2.8.8 1.9 0 4.8-.7 6-1.4.4-.2.5-.2.7-.2.2 0 .6.2 1.1.4.6.4.9.7.9 1.1 0 .4-.2.6-.8.7-2 .3-3.1.6-4.3 1.1-.9.4-2.7 1.4-3.9 2.1l-.3-.3c1.4-1.1 2.4-2 2.9-2.3-.6 0-1 .1-1.2.1-1.7 0-2.8-.4-4.1-1.7l.2-.4zm10 31.3c.5-.7.6-.9 1.1-1.5.9.6 1.2.8 2 1.4.2.2.4.3.4.4 0 .2-.2.4-1.1.9-.1 1-.1 1-.4 6.1-.2 2.3-.6 4.9-1 6.2-.2.8-.8 1.5-1.4 1.8-.5.2-1 .3-2.2.4 0-1.2-.4-1.4-2.8-2l.1-.5c1.5.2 2.6.3 3.3.3.8 0 1-.3 1.2-1.3.6-2.9.9-6.8 1-11.7H58c-1.8 3.2-3.8 5.4-6.8 8l-.4-.4c2.3-2.6 4-5.3 5.5-8.6.7-1.4 1.1-2.5 1.5-4.2 2.9.7 3.5.9 3.5 1.1 0 .2-.4.4-1.6.6-.6 1.3-.8 1.7-1.4 2.7h14.3zm-7.9 5.8h-6.4c-.6 0-1 0-2 .1l-.2-1c.8.1 1.4.2 2.3.2h6c.5-.6.6-.8 1.1-1.3.8.6 1.1.8 1.8 1.3.2.2.3.3.3.4 0 .2-.2.4-.9.7v6.2c0 .3-.1.5-.3.6-.2.1-.9.2-1.3.2-.3 0-.5-.2-.5-.5v-.8h-7.7v7.2c0 .5.2.6.7.7.8.1 3.6.1 7.6.1H72c1.4 0 2.2-.1 2.5-.3.2-.2.5-.7.7-1.3.3-.9.3-.9 1.5-5l.5.1-.5 5.2c0 .3-.1.6-.1.6 0 .3.1.4.4.4.7.2 1.1.5 1.1 1 0 .4-.4.8-.8.9-.8.2-3 .3-9.9.3-7.7 0-10.1-.1-11.1-.3-1-.2-1.3-.8-1.4-2.1l.1-3.7v-5.6c1 .5 1.3.6 2.3 1.1h7.4v-5.4zm-9.8 28.8c1.6 1.3 2.6 1.6 4.8 1.6 1.3 0 2.5-.1 4.3-.4-.1-4.6-.3-5-2.6-5.3.4-.4.7-.5 1.5-.5s1.8.1 2.5.4c.7.2 1 .5 1 1 0 .2 0 .2-.4 1-.3.6-.5 1.6-.5 3.2 3-.6 4.6-1.1 5.6-1.8.1-.1.3-.1.4-.1.4 0 1.2.3 1.6.5.3.2.5.4.5.7 0 .4-.5.7-2.3 1.1-2 .5-3.9.8-5.7 1v4.6c1.2-.2 2.4-.5 3.4-.8.8-.3.9-.4 1.5-.8.1-.1.3-.1.5-.1.4 0 1.2.2 1.5.4.2.1.4.3.4.6 0 .5-.4.8-2.3 1.3-1.5.4-3.5.8-4.9.9.1 1.2.1 1.7.1 2.7.1 1.1.1 1.6.2 2.3 2.8.5 5.4 1.5 6.6 2.6.6.5.9 1.2.9 2 0 .6-.3 1.1-.7 1.1-.3 0-.4-.1-1.2-.8-.5-.5-1.7-1.4-2.5-1.9-1-.6-1.8-.9-3-1.3.1.7.1 1 .1 1.3 0 1.2-.3 2-1 2.5-.8.7-2.4 1.1-4 1.1-3 0-5.1-1.3-5.1-3.2 0-2.1 2.8-3.6 6.8-3.6h1.5v-4.8c-1.2.1-1.8.1-2.2.1-2 0-3.3-.2-4-.7-.9-.5-1.4-1.4-1.4-2.3 0-.2 0-.5.1-.8h.5c0 .9.2 1.4.6 1.7.5.4 1.8.7 3.5.7.8 0 1.6-.1 2.9-.2v-2.1l-.1-2.2v-.4c-1.7.2-2.9.2-3.9.2-2.9 0-4.1-.6-5.6-2.6l.1.1zm6.7 14.7c-1.2 0-2.3.2-3.3.6-1.1.4-1.6 1-1.6 1.8 0 1.1 1.2 1.7 3.3 1.7 1.5 0 2.7-.4 3.4-1.1.4-.4.6-.8.7-1.6 0-.2.1-.9.1-1.1v-.1c-1.3-.1-1.8-.2-2.6-.2zM57.8 243c0-.5 0-.5.1-1.3.1-.6.1-.6.1-1.1-.9.6-2.5 1.7-3 2.1-.6.4-.8.5-1 .5-.8 0-2.2-1.8-2.2-2.7 0-.1 0-.3.1-.5.7 1 1.3 1.4 2 1.4.6 0 2.6-.8 4.3-1.8.2-1.3.2-2.1.2-3.2 0-1.7-.3-2.3-1.7-3.3.2-.1.2-.1.4-.1.5 0 1.1.3 1.9.8 1 .7 1.6 1.4 1.6 2 0 .3 0 .3-.3 1.2-.2.6-.4 1.5-.5 2.4.7.7.9.9.9 1.2 0 .2 0 .2-.4.9s-.7 1.2-1 2c-.1.5-.1.6-.1 1.1 2.9-2.8 3.9-3.7 5.2-4.6 2.1-1.5 3.5-2.1 4.8-2.1.9 0 1.8.4 2.4 1.1.6.7.8 1.5.8 2.6s0 1.4-.6 4.4c-.4 2-.5 3.7-.5 4.9 0 1.2.2 1.8.8 2.2.4.3 1 .4 1.5.4 1.5 0 3.6-.8 5.6-2.1l.2.4c-2.2 2.2-4.5 3.5-6.6 3.5-2.3 0-3.5-1.5-3.5-4.2 0-1.1.3-3 .8-5.3.7-3.2.8-3.6.8-4.7 0-1.5-.7-2.3-1.8-2.3-1.3 0-2.9.9-5.3 3-1.6 1.4-3 2.9-4.6 4.7v1.6c0 1.6.1 3.1.3 5.4.1.7.1 1 .1 1.4 0 1.7-.6 3.1-1.3 3.1-.3 0-.6-.2-.7-.8-.1-.3-.4-1.2-.5-1.4-.3-.6-1.3-1.8-2.6-3.3-.6 1.4-.7 1.6-1 1.6-.3 0-.5-.2-.7-.7-.2-.5-.3-1.2-.3-1.7 0-.4 0-.4.5-.9s1-1.1 2-2.7l2.8-5.1zm-1.9 5.6c-.7 1.3-1 2-1.6 3.2 1.8 1.5 2.3 1.9 3.2 2.4.1-1.1.1-1.1.1-5.6 0-1.5 0-2.2.1-3.4-.4.9-.4.9-1.8 3.4zm15.3 16.6c2.3.8 4.6 2 5.9 2.9 1.2.9 1.6 1.6 1.6 2.6s-.5 2-1.1 2c-.1 0-.3-.1-.4-.2-.2-.2-.2-.2-1.5-2.2-1-1.5-2.6-3.2-4.6-4.8l.1-.3zM0 14.9c3.8-2.7 5.9-4.7 8.4-7.7 1.4-1.7 2.9-3.7 3.7-5 .3-.5.4-.7.7-1.4 1.4.2 2.8.5 3.2.7.2.1.3.1.3.3 0 .2-.3.4-1.3.5.8 1.3 1.4 2 2.7 3.3 2.1 2.1 4.4 3.8 6.9 5.2 1.5.8 2.3 1.1 3.8 1.5v.5c-1.3.3-1.7.7-2.3 2.1-1.5-.8-2.2-1.3-3.6-2.6-2.3-2-4.4-4.2-5.7-6-.7-1-1.3-1.9-2.4-3.6-2.9 3.8-4.7 5.9-7.1 8-2.4 2-4.3 3.3-7 4.7l-.3-.5zm3.9.7c1.3.2 1.7.2 2.9.2h12.9c.5-.6.7-.8 1.2-1.4.8.6 1.1.8 1.9 1.4.2.2.3.3.3.4 0 .2-.2.4-1.2.8-.5.9-.5.9-2.6 5.3-.7 1.4-1.4 2.7-2.8 5-.2.2-.3.3-.5.3-.5 0-1.7-.1-1.8-.2l-.2-.2c0-.1 0-.2.1-.3 2-3.1 3.9-6.4 5.6-10.3H6.5c-.9 0-1.4 0-2.3.2l-.3-1.2zm3.8-4.7c.7.2 1.4.2 2.5.2h6.2c.6-.8.8-1 1.4-1.7 1.1.9 1.4 1.2 2.5 2.1l.2.2c0 .1 0 .1-.3.1H9.9c-.9 0-1.2 0-2 .1l-.2-1zm5.6 26v-1.5c0-.7 0-1.1-.1-2 2.7.3 2.8.4 3.1.5.2.1.3.2.3.3 0 .3-.3.4-1.4.6v2.1h8.6c.5-.8.5-.8 1.1-1.6 1.3.9 1.7 1.1 2.9 2.1.2.2.2.3.2.3 0 .3-.5.5-1.9.7-1.7 1.9-1.8 2-2.6 2.8l-.1-.2c.3-1.1.4-1.2.8-3.4H4.6c-.1 1-.3 1.9-.5 2.7-.5 1.3-1.4 2.3-2.1 2.3-.3 0-.5-.2-.6-.5-.3-.5-.4-1.1-.4-1.5 0-.5.1-.5.6-.8.5-.3 1.2-1.1 1.6-1.7.5-.9.8-1.8 1-3.3h.5c0 .6.1 1.1.1 1.7v.4h8.5zM7.5 60.1c0 .3-.1.4-.3.5-.2.1-.9.1-1.3.1-.3 0-.5-.1-.5-.4.1-2.6.1-3.2.1-8.3 0-4.2 0-5-.1-6.8v-1.6c1.1.5 1.4.7 2.5 1.3h5.4v-4.1c0-.4 0-.6-.1-2.5 2.7.3 3.3.4 3.3.7 0 .3-.3.5-1.3.8v5h5.5c.4-.5.6-.7 1.1-1.3.8.6 1 .8 1.7 1.3.2.2.3.3.3.4 0 .2-.2.3-1 .9v11.6c-.1 1.1-.3 1.5-1.1 1.9-.7.4-1.4.5-2.7.7-.2-.8-.5-1.1-1-1.4-.3-.2-1-.4-1.8-.5l-1-.2c-.3-.1-.6-.1-.9-.2v-.4c2.8.2 3.2.2 5.6.4h.2c.5 0 .6-.1.6-.5v-4.1H7.5v6.7zm-.6-21c1.2.6 2.2 1.2 3.1 2 .8.6.9.9.9 1.5 0 .5-.2 1.2-.4 1.6-.1.2-.3.3-.5.3-.3 0-.5-.2-.7-.7-.6-1.6-1.3-2.8-2.6-4.3l.2-.4zm14.2 9.8v-3.2H7.5v3.2h13.6zm-13.6.7V53h13.6v-3.5H7.5zm9.8-5c1.7-2.6 2.5-4.2 2.8-5.5 2.9 1.1 2.9 1.1 2.9 1.4 0 .2-.3.4-1.3.5-1.4 1.5-2.1 2.3-3.9 3.8l-.5-.2zm3.8 22.5c2.3.8 4.6 2 5.9 2.9 1.2.9 1.6 1.6 1.6 2.6s-.5 2-1.1 2c-.1 0-.3-.1-.4-.2-.2-.2-.2-.2-1.5-2.2-1-1.5-2.6-3.2-4.6-4.8l.1-.3zM4.8 123.7v2c0 .4-.2.5-1.1.6H3c-.3 0-.5-.1-.5-.4.1-3.8.2-6.4.2-11 0-4.3 0-6.8-.1-8.8 2.9.4 3.2.5 3.2.8 0 .2-.2.4-1.1.7V123H13v-19c0-.9-.1-2.7-.1-3.5 2.8.3 2.9.4 3.3.5.2.1.3.2.3.3 0 .2-.2.3-1.3.7v21h8.7v-13.8c0-1.1-.1-2-.2-3.1.7.1 1.2.1 1.6.2 1.5.2 2 .3 2 .6s-.3.5-1.2.8l-.1 8.7c0 1.7 0 3.1.1 9.4 0 .4-.2.5-1.1.6h-.6c-.3 0-.5-.1-.5-.4v-2.4H4.8zM.5 139.9c2.1.8 2.7 1.1 3.4 1.5 1 .6 1.3 1 1.3 1.8s-.5 1.7-1 1.7c-.2 0-.4-.2-.6-.7-.6-1.2-1.8-2.7-3.2-3.9l.1-.4zm.2 10.8c1.1.3 1.6.4 1.8.4.3 0 .5-.2 1.2-1.9C5.2 145.9 6.8 142 8 139l.5.2-3.9 12.2c-.2.4-.3 1.1-.3 1.3 0 .3 0 .3.3 1.2.3 1 .6 2.3.6 3.1 0 .6-.2 1.3-.6 1.7-.4.5-1.1.8-1.7.8-.4 0-.6-.3-.6-.8 0-.1 0-.1.3-2.4.1-.9.2-1.5.2-1.9 0-1-.2-1.9-.5-2.3-.2-.3-.3-.4-1.9-1l.3-.4zm2-17.5c1.8.6 2.6 1 3.6 1.6 1 .6 1.3 1 1.3 1.7 0 .9-.5 1.8-.9 1.8-.2 0-.4-.2-.7-.6-.8-1.4-1.8-2.5-3.5-4l.2-.5zm7.4 23.3c-.1.3-.3.4-.8.4-.9 0-1.2-.1-1.2-.4v-.2c1-3.9 1.3-5.2 2-8.6H8.8c-.6 0-1.2.1-1.9.2l-.2-1.1c.8.2 1.4.2 2.2.2h1.3c.5-2.7.9-5.3 1.1-7.2-1.1 1.6-1.9 2.5-3.6 4.1l-.3-.3c2.4-3.4 4.2-7.2 5-10.8 2.6.6 3.2.8 3.2 1.1 0 .2-.2.3-1.4.6-.5 1.1-.7 1.5-1.1 2.2H23c.8-1 1.1-1.2 1.8-2 1.2 1 1.6 1.3 2.8 2.3.1.1.1.2.1.2 0 .1-.1.1-.3.1H12.9c-.5.9-.8 1.4-1.3 2.1.8.5 1 .6 1.7 1.2h9.6c.5-.5.6-.7 1.1-1.1.7.6 1 .7 1.7 1.3.2.2.3.3.3.4 0 .2-.2.3-1 .8-.2 1.8-.2 1.8-.5 4.9h.4c.6-.9.8-1.2 1.5-2l2.3 2.3c.1.1.1.2.1.2 0 .1-.1.2-.2.2h-4.1c-.4 4.4-.5 4.7-.7 6.2h.4c.7-.9.9-1.1 1.6-2l2.3 2.3c0 .1.1.1.1.2s-.1.1-.2.1h-4.2c-.4 2.3-.7 3.3-1.1 3.8-.7.9-1.4 1.2-3.3 1.5 0-.8-.2-1.2-.9-1.5-.5-.3-1.3-.5-3.5-1v-.4c2.5.2 4.4.3 4.9.3.9 0 1.1-.1 1.2-.4.2-.4.4-.9.6-2.4H10.5l-.4 2.2zm5-2.5c.3-1.6.3-1.6 1.1-6.2H12c-.1.4-.1.4-.2 1.1-.2 1-.5 2.6-1.1 5.2h4.4zm1.2-6.9c.3-2.1.4-2.4.6-5.6h-3.8c-.3 1.7-.3 1.7-.9 5.6h4.1zm1.7.7c-.4 2.9-.4 2.9-1 6.2h4.6c.5-2.6.5-2.7.8-6.2H18zm4.4-.7c.2-2.9.4-4.7.5-5.6h-4.1c-.3 3-.4 3.2-.7 5.6h4.3zm-8.3 43.1c3.2-1 5.3-2.2 7-4.2 1.8-2 2.7-4.5 2.7-7.2 0-2.9-1.2-5.2-3.4-6.6-1.3-.9-3.3-1.4-5.2-1.4-.4 0-.6 0-1.1.1.7 1.1.9 1.6.9 2.5 0 2.3-1.7 6.7-4 10.4-1.9 3-3.4 4.5-4.5 4.5-.5 0-1-.2-1.3-.6-.3-.4-.3-.5-.8-1.9-.3-.8-.5-1.1-1.3-2.8-.5-1-.7-1.8-.7-2.7 0-1.9 1-4.1 2.7-5.9 2.4-2.6 6.4-4.2 10.3-4.2 3 0 5.8 1 7.7 2.8 1.9 1.8 2.9 4.1 2.9 7.1 0 3.8-2.2 7.1-6 9.1-1.7.9-3.3 1.4-5.9 1.9v-.9zm-9.9-9.4c0 1.4.5 2.9 1.2 4 .4.5.8.9 1.1.9.7 0 2.1-1.6 3.6-4 2.2-3.5 3.8-7.4 3.8-9.3 0-.5-.1-.8-.4-1.5-5.2 1-9.3 5.3-9.3 9.9zm16.9 37.7c.7-.8.9-1.1 1.7-2 1.2 1 1.6 1.3 2.7 2.3.1.1.1.2.1.3 0 .1-.1.2-.3.2h-10v5.1h8.1c.8-.9 1-1.2 1.9-2.1 1.3.9 1.7 1.2 2.9 2.3.2.1.2.2.2.3s-.1.2-.2.2H3.8c-.6 0-2.1.1-2.6.2L.9 224c2.3.3 2.3.3 2.9.3h9.5v-5.1h-7c-.7 0-1.2 0-2.5.2l-.3-1.2c.9.2 2.3.3 2.9.3h6.9v-1.1c0-.9 0-1.6-.2-3 3.3.5 3.5.5 3.5.8 0 .2-.2.3-1.3.7v2.6h5.8zm-7.9-16.4v-1.4c0-1.1 0-1.4-.1-2.2 2.9.3 3.5.4 3.5.8 0 .1-.1.2-.2.3-.2.1-.5.2-1.2.4v2.2h8.3c.6-.7.6-.7 1.4-1.6 1.2.8 1.6 1.1 2.7 2 .2.1.2.2.2.3 0 .1-.1.1-.1.2-.1.1-.4.1-.8.2s-.7.1-1 .2l-.5.5c-.9.9-1.1 1-1.9 1.7l-.3-.2c.4-1.2.5-1.6.6-2.6H4.7c-.2 1.4-.5 2.3-1 3.2-.4.8-1.2 1.4-1.6 1.4S1 206.3 1 205.6c0-.3.1-.5.4-.7 1.2-.9 1.5-1.2 1.9-1.9.5-1 .8-1.8 1-2.9h.5v.7c0 .5 0 .7-.1 1.3h8.5zm-6.1 5.1c-.8 0-1.3 0-2.4.2l-.3-1.2c.6.1.6.1 2.7.3h13.3c.6-.8.8-1 1.5-1.8 1.1.8 1.4 1.1 2.6 2.1.1.1.2.1.2.2s-.1.2-.2.2h-11c-2.6 3.5-2.6 3.5-4.2 5.1 3.4-.1 5.4-.2 11.3-.8-1.1-1.2-1.8-1.9-3.2-3.1l.2-.3c1.4.6 2 .9 3.9 2.2 1.4.9 2.4 1.7 2.9 2.2.3.4.4.7.4 1.2 0 1-.4 1.9-.8 1.9-.2 0-.2 0-1.7-1.9-.8-1-.9-1.1-1.2-1.6-3.5.6-5.9 1-6.6 1.1-3 .4-7.4.9-9.7 1.1-.1.9-.2 1.3-.5 1.3-.4 0-.7-.8-1.1-3.3.6.1 1.1.1 1.7.1h.8c.3 0 .4 0 2.7-.1 1.4-2.3 1.6-2.8 2.5-5.1H7.1zm1.7 38.6c-.1.3-.5 2.2-1.4 5.6-.4 1.8-.5 2.3-.5 3.2 0 .9 0 1.1-.1 1.3-.1.3-.4.5-.7.5-.5 0-1-.4-1.3-1.2-.7-1.6-1.1-4-1.1-6.4 0-.9.1-2 .2-3.2.2-1.7.2-1.7 1.1-5.7.3-1.4.4-2.2.4-2.8 0-1-.2-1.7-.8-2.8.7 0 1.2.4 2 1.5.8.9 1.1 1.7 1.1 2.4 0 .5 0 .6-.6 1.8-.6 1.3-1.3 3.4-1.6 4.8-.3 1.1-.4 2.4-.4 3.7 0 1.7.2 2.7.6 4 .5-1 .8-1.7 1.1-2.6l1.6-4.2.4.1zm3.8 1.5c-.1.6-.1.9-.1 1.3 0 3.3 1.9 4.7 6.5 4.7.9 0 1.7-.1 2.6-.2.6-.1.6-.1 1.6-.5.2-.1.3-.1.5-.1.8 0 1.9 1 1.9 1.8 0 .4-.2.6-.7.8-.6.2-2.1.3-3.8.3-3.8 0-6.4-.6-7.8-1.8-1.1-1-1.6-2.3-1.6-3.9 0-.8.1-1.4.4-2.4h.5zm0-9.6c1.1.6 1.7.8 2.8.8 1.9 0 4.8-.7 6-1.4.4-.2.5-.2.7-.2.2 0 .6.2 1.1.4.6.4.9.7.9 1.1 0 .4-.2.6-.8.7-2 .3-3.1.6-4.3 1.1-.9.4-2.7 1.4-3.9 2.1l-.3-.3c1.4-1.1 2.4-2 2.9-2.3-.6 0-1 .1-1.2.1-1.7 0-2.8-.4-4.1-1.7l.2-.4zm9.9 31.4c.5-.7.6-.9 1.1-1.5.9.6 1.2.8 2 1.4.2.2.4.3.4.4 0 .2-.2.4-1.1.9-.1 1-.1 1-.4 6.1-.2 2.3-.6 4.9-1 6.2-.2.8-.8 1.5-1.4 1.8-.5.2-1 .3-2.2.4 0-1.2-.4-1.4-2.8-2l.1-.5c1.5.2 2.6.3 3.3.3.8 0 1-.3 1.2-1.3.6-2.9.9-6.8 1-11.7H7.9c-1.8 3.2-3.8 5.4-6.8 8l-.4-.4c2.3-2.6 4-5.3 5.5-8.6.7-1.4 1.1-2.5 1.5-4.2 2.9.7 3.5.9 3.5 1.1 0 .2-.4.4-1.6.6-.6 1.3-.8 1.7-1.4 2.7h14.3zm-7.8 5.8H8.2c-.6 0-1 0-2 .1l-.2-1c.8.1 1.4.2 2.3.2h6c.5-.6.6-.8 1.1-1.3.8.6 1.1.8 1.8 1.3.2.2.3.3.3.4 0 .2-.2.4-.9.7v6.2c0 .3-.1.5-.3.6-.2.1-.9.2-1.3.2-.3 0-.5-.2-.5-.5v-.8H7v7.2c0 .5.2.6.7.7.8.1 3.6.1 7.6.1h6.8c1.4 0 2.2-.1 2.5-.3.2-.2.5-.7.7-1.3.3-.9.3-.9 1.5-5l.5.1-.5 5.2c0 .3-.1.6-.1.6 0 .3.1.4.4.4.7.2 1.1.5 1.1 1 0 .4-.4.8-.8.9-.8.2-3 .3-9.9.3-7.7 0-10.1-.1-11.1-.3-1-.2-1.3-.8-1.4-2.1l.1-3.7v-5.6c1 .5 1.3.6 2.3 1.1h7.4v-5.4zm-9.9 28.7c1.6 1.3 2.6 1.6 4.8 1.6 1.3 0 2.5-.1 4.3-.4-.1-4.6-.3-5-2.6-5.3.4-.4.7-.5 1.5-.5s1.8.1 2.5.4c.7.2 1 .5 1 1 0 .2 0 .2-.4 1-.3.6-.5 1.6-.5 3.2 3-.6 4.6-1.1 5.6-1.8.1-.1.3-.1.4-.1.4 0 1.2.3 1.6.5.3.2.5.4.5.7 0 .4-.5.7-2.3 1.1-2 .5-3.9.8-5.7 1v4.6c1.2-.2 2.4-.5 3.4-.8.8-.3.9-.4 1.5-.8.1-.1.3-.1.5-.1.4 0 1.2.2 1.5.4.2.1.4.3.4.6 0 .5-.4.8-2.3 1.3-1.5.4-3.5.8-4.9.9.1 1.2.1 1.7.1 2.7.1 1.1.1 1.6.2 2.3 2.8.5 5.4 1.5 6.6 2.6.6.5.9 1.2.9 2 0 .6-.3 1.1-.7 1.1-.3 0-.4-.1-1.2-.8-.5-.5-1.7-1.4-2.5-1.9-1-.6-1.8-.9-3-1.3.1.7.1 1 .1 1.3 0 1.2-.3 2-1 2.5-.8.7-2.4 1.1-4 1.1-3 0-5.1-1.3-5.1-3.2 0-2.1 2.8-3.6 6.8-3.6h1.5v-4.8c-1.2.1-1.8.1-2.2.1-2 0-3.3-.2-4-.7-.9-.5-1.4-1.4-1.4-2.3 0-.2 0-.5.1-.8h.5c0 .9.2 1.4.6 1.7.5.4 1.8.7 3.5.7.8 0 1.6-.1 2.9-.2v-2.1l-.1-2.2v-.4c-1.7.2-2.9.2-3.9.2-2.9 0-4.1-.6-5.6-2.6l.1.1zm6.7 14.8c-1.2 0-2.3.2-3.3.6-1.1.4-1.6 1-1.6 1.8 0 1.1 1.2 1.7 3.3 1.7 1.5 0 2.7-.4 3.4-1.1.4-.4.6-.8.7-1.6 0-.2.1-.9.1-1.1v-.1c-1.2-.2-1.8-.2-2.6-.2zm-3.8 23.7c0-.5 0-.5.1-1.3.1-.6.1-.6.1-1.1-.9.6-2.5 1.7-3 2.1-.6.4-.8.5-1 .5-.8 0-2.2-1.8-2.2-2.7 0-.1 0-.3.1-.5.7 1 1.3 1.4 2 1.4.6 0 2.6-.8 4.3-1.8.2-1.3.2-2.1.2-3.2 0-1.7-.3-2.3-1.7-3.3.2-.1.2-.1.4-.1.5 0 1.1.3 1.9.8 1 .7 1.6 1.4 1.6 2 0 .3 0 .3-.3 1.2-.2.6-.4 1.5-.5 2.4.7.7.9.9.9 1.2 0 .2 0 .2-.4.9s-.7 1.2-1 2c-.1.5-.1.6-.1 1.1 2.9-2.8 3.9-3.7 5.2-4.6 2.1-1.5 3.5-2.1 4.8-2.1.9 0 1.8.4 2.4 1.1.6.7.8 1.5.8 2.6s0 1.4-.6 4.4c-.4 2-.5 3.7-.5 4.9 0 1.2.2 1.8.8 2.2.4.3 1 .4 1.5.4 1.5 0 3.6-.8 5.6-2.1l.2.4c-2.2 2.2-4.5 3.5-6.6 3.5-2.3 0-3.5-1.5-3.5-4.2 0-1.1.3-3 .8-5.3.7-3.2.8-3.6.8-4.7 0-1.5-.7-2.3-1.8-2.3-1.3 0-2.9.9-5.3 3-1.6 1.4-3 2.9-4.6 4.7v1.6c0 1.6.1 3.1.3 5.4.1.7.1 1 .1 1.4 0 1.7-.6 3.1-1.3 3.1-.3 0-.6-.2-.7-.8-.1-.3-.4-1.2-.5-1.4-.3-.6-1.3-1.8-2.6-3.3-.6 1.4-.7 1.6-1 1.6-.3 0-.5-.2-.7-.7-.2-.5-.3-1.2-.3-1.7 0-.4 0-.4.5-.9s1-1.1 2-2.7l2.8-5.1zm-1.8 5.6c-.7 1.3-1 2-1.6 3.2 1.8 1.5 2.3 1.9 3.2 2.4.1-1.1.1-1.1.1-5.6 0-1.5 0-2.2.1-3.4-.4.9-.5.9-1.8 3.4zm10.9 20.2c-1.2.4-4 1.5-6.1 2.4-.6.3-1 .4-1.2.4-.5 0-1.1-.4-1.7-1.3-.5-.8-.8-1.6-.8-2.2 0-.3.1-.5.3-.8.5 1.4 1.3 2.2 2.3 2.2.8 0 3.6-.7 5.7-1.3 1.2-.4 1.2-.4 1.9-.9.1-.1.3-.1.4-.1.4 0 .9.3 1.6 1.1.7.7.9 1 .9 1.4 0 .2-.2.4-.5.6-.9.5-1.2.7-2.5 2-1.9 1.9-3 3-4.4 4.5-2.9 3.1-2.9 3.1-3.5 3.7l.1.1c3.2-2 5.6-2.9 8.2-2.9 3.8 0 6.4 2.3 6.4 5.6 0 4.3-4 7.5-9.4 7.5-2.9 0-4.8-1.2-4.8-3 0-1.5 1.4-2.6 3.2-2.6 1.5 0 2.8.5 3.8 1.5.5.5.9 1 1.3 1.9 2.3-1 3.6-3.1 3.6-5.6 0-1.7-.7-3-1.9-3.7-.6-.4-1.8-.6-3-.6-2.9 0-7.1 2.4-9.6 5.6-.5.6-.7.8-1 .8-.5 0-1-1.1-1-2 0-.4.2-.7.6-1.1 1.1-.9 1.6-1.4 4.2-4.2 3.7-4.1 4.8-5.4 7.2-8.5.2-.3.2-.3.3-.5l-.1-.1h-.1s-.1 0-.2.1h-.2zm-4.6 17.3c-1.1 0-1.9.6-1.9 1.5 0 1.1 1.3 1.8 3.4 1.8.8 0 1.2-.1 2.1-.3-.5-1.9-1.9-3-3.6-3zm16.4 15.9c0 2.1-1.7 3.9-3.9 3.9s-3.9-1.7-3.9-3.9c0-2.1 1.7-3.9 3.9-3.9 2.1.1 3.9 1.8 3.9 3.9zm-6.8 0c0 1.6 1.3 2.9 2.9 2.9 1.6 0 2.9-1.3 2.9-2.9 0-1.6-1.3-2.9-2.9-2.9-1.6 0-2.9 1.3-2.9 2.9z"/></g></g></svg>