<svg version="1.1" id="レイヤー_1" xmlns="http://www.w3.org/2000/svg" x="0" y="0" width="395" height="405" viewBox="0 0 395 405" xml:space="preserve"><style type="text/css">.st0{fill:#fff}</style><g><g><path class="st0" d="M331.3 34.3c-.8 0-1.2 0-1.3 1-.1.6-.3 1.8-2 1.8-1.2 0-1.3-1-1.3-1.6 0-.5.2-3.1.2-3.7.2-4.9.2-8.4.2-11.5V5c0-.3-.2-1.8-.2-2.2 0-.3 0-.5.4-.5.9 0 2.5.8 3 1.1.6.4 1 .4 1.7.4h22.1c.6 0 1.1-.1 1.4-.4.8-.8.9-1 1.2-1 .4 0 3.4 2.1 3.4 2.8 0 .4 0 .4-1 1-.5.4-.6.5-.7 2-.1 1.5-.1 18.4-.1 22.3 0 .6.1 3.4.1 4 0 .6 0 2.6-2.1 2.6-1.1 0-1.1-.6-1.2-1.8 0-1-.8-1-1.2-1h-22.6zm0-29.4c-1.1 0-1.3.3-1.3 1.3v25.1c0 1.4 0 1.9 1.3 1.9h22.8c1.4 0 1.4-.6 1.4-1.5.2-3.4.2-5.5.2-25.1 0-1.2 0-1.8-1.3-1.8h-6.2c-.6 0-1.1 0-1.3.7V22c0 1.4 0 2 2.4 2 1.5 0 1.7-.1 2.3-1.2.2-.4.9-2.6 1-2.6.2 0 .2.1.2.4.3 1.2.4 1.5.8 2.3.1.2.9 1.3.9 1.6 0 .4-.3 1-.7 1.3-.6.6-1.6 1-4.5 1-3.6 0-5.2-.8-5.3-3.3V6.9c0-1.7 0-2.2-1.2-2.2H341c-1.2 0-1.3.5-1.3 1.4-.2 7.4-.3 13.5-4.6 18.8-1.7 2.1-3.6 3.4-4.1 3.4-.1 0-.2 0-.2-.1 0-.2.7-.8.9-.9 5-5.9 5-13 5-19.3 0-2.9 0-3.2-1.2-3.2h-4.2zm.8 50c-3.5 0-4.7.1-5.1.1-.1 0-.7.1-.8.1s-.2-.1-.4-.2l-.8-.9c-.1-.1-.2-.2-.2-.3 0 0 0-.1.1-.1.3 0 1.5.1 1.8.1 2 .1 3.6.2 5.5.2h8.3c.9 0 1-.4 1-1.4 0-.9-.1-1.4-.8-1.4-.7 0-3.6.2-4.2.2-1.2.1-2 .1-7.1.1-.3 0-1.3 0-1.3-.2 0 0 12.2-1.7 14.5-2.2 1.3-.3 6.5-1.3 7-1.7.6-.4.6-.4.8-.4.2 0 4.3 2.3 4.3 3 0 .5-.7.5-1 .5-2.4 0-4.7.2-7 .4-.7.1-1.6.2-2 .2-.5.2-.5.6-.5 1.6 0 1.3.2 1.4 1.1 1.4h8c1.8 0 2 0 2.5-.7 1.1-1.3 1.3-1.5 1.6-1.5.2 0 3.7 2.2 3.7 2.6 0 .6-.8.6-2.1.6h-13c-.4 0-.6 0-.6.3 0 1.2 9.3 5.9 14.8 6.9 1 .2 1.1.2 1.1.4s-.1.2-.6.3c-.8.2-2 .5-2.8 1.5-.3.4-.4.6-.8.6-1.4 0-7.9-4.5-10.6-7-.4-.3-2-2.2-2.2-2.2-.3 0-.3.2-.3.8 0 .9.2 5.7.2 5.8 0 1.2-1 1.8-1.8 1.8-.6 0-1.2-.2-1.2-1.6 0-.2.2-3.5.2-3.9 0-1.8 0-2-.4-2-.1 0-.8.5-.8.6-6.1 5.1-12.1 6.9-13 7.2-.2 0-.5.2-.8.2-.2 0-.5.1-.5 0s1.1-.8 1.4-1c2.5-1.6 10.8-7.2 10.8-8.4 0-.4-.4-.4-.7-.4h-5.3zm13.5 18.9c-.8 0-1.2.4-1.2.8V80c0 1.5-.1 3.3-3.2 3.3-.8 0-.9-.2-1.1-.6-.5-1.2-.6-1.4-1.5-2-.1 0-1-.5-1-.6s.1-.2.3-.2c.2 0 2.1.3 2.5.3 1 0 1.3-.3 1.3-1v-3c0-2.2 0-2.5-1.1-2.5h-8c-.8 0-3.6 0-5 .1-.1 0-.7.1-.8.1-.2 0-.2-.1-.4-.2l-.8-.9c-.2-.2-.2-.2-.2-.3 0-.1.1-.1.2-.1.2 0 1.5.1 1.8.1 1.2.1 3.2.2 5.5.2h7.8c.3 0 1.1 0 1.1-1 0-.2-.2-1.5-.2-1.8 0-.6.4-.6.7-.6.3 0 1.8.3 2.2.3.8 0 3.8-2.2 3.8-3.2 0-.4-.4-.4-.7-.4H337c-1 0-3.9 0-5 .1-.2 0-.8.1-.9.1-.1 0-.2-.1-.3-.2l-.8-.9c-.1-.1-.2-.2-.2-.3 0-.1.1-.1.2-.1.3 0 1.4.1 1.7.1 1.2 0 3.2.2 5.5.2H348c.7 0 1.3 0 1.7-.4.2-.2 1-1.3 1.3-1.3.4 0 3 1.8 3 2.8 0 .4-.2.5-1.6.8-.6.2-3.2 1.6-4.8 2.4-.8.4-3 1.6-3 2.4 0 .9.9.9 1.2.9h6.8c1 0 1.7 0 2-.1.4-.2 1.7-2 2.2-2 .4 0 3.2 2.1 3.2 2.7 0 .5-.5.5-1.6.5h-12.8zm-10.4 28.5c-.8 0-1.5 0-1.5 1.1 0 .4 0 5.6.1 5.8.1.2.3.3.6.3.8 0 6.1-2.1 6.4-2.1.1 0 .2 0 .2.1 0 .4-4.6 2.8-5.6 3.2-.8.4-1.5.8-1.7 1.9v11.8c0 1.1 0 2-.7 3-.8 1.2-2.2 1.5-2.4 1.5-.5 0-.7-.4-1.5-1.4-.3-.4-2.2-1.9-2.2-1.9 0-.2 1.1-.2 1.8-.2 2 0 2.3 0 2.3-1.2.1-3.3.1-6.6.1-9.9 0-.5-.3-.8-.7-.8-.9.4-2.3 1.2-3 1.5-.4.4-.7.8-1 .8-.4 0-1.9-3-1.9-3.5 0-.2.1-.4.3-.4.2 0 .8.1 1 .1 1.1 0 4-.9 4.5-1.1.1 0 .6-.3.7-.8.1-.3.1-4.2.1-6.3 0-.6 0-1.4-1-1.4-.8 0-2.7 0-3.6.1-.1 0-.7.1-.8.1-.2 0-.2-.2-.4-.3l-.8-.9c-.1-.1-.2-.2-.2-.3s.1-.1.2-.1c.8 0 4.7.3 5.6.3 1 0 1-.5 1-2.8 0-1 0-3.9-.2-4.7 0-.2-.3-.8-.3-1 0-.2.3-.3.6-.3.8 0 3.6.7 3.6 1.5 0 .2-.8 1-.9 1.2-.1.3-.2 4.4-.2 5.2 0 .7.5.9.9.9.3 0 .6 0 1-.5 1-1.4 1.1-1.5 1.5-1.5.8 0 2.8 2.2 2.8 2.6 0 .5-.9.6-2.2.6h-2.5zm19.6 4.3c-.5 0-1.2 0-1.3.9 0 .1-.1 4.8-.1 6.1 0 .9.1 7.8.2 10.6 0 .4.2 2.2.2 2.7 0 1.5-1.7 2-2.4 2-1.1 0-1.1-.8-1.1-1 0-.3.2-2 .2-2.4.2-4.1.2-5.5.2-17.8 0-1.2-.8-1.2-1.3-1.2h-3.7c-.8 0-1.3.2-1.3 1.1-.1 2.3-.2 5.9-.4 8.1-.9 8.9-6.4 11.9-6.9 11.9-.1 0-.2-.1-.2-.2s1.4-1.9 1.7-2.2c2.9-4.4 3.2-10.4 3.2-18.5 0-4-.1-6-.2-7.6 0-.5-.4-2.9-.4-3.4 0-.4.3-.4.6-.4.8 0 1.6.4 2.3.7.2.1.6.3.9.3.2 0 6.7-1.8 8.7-3.2.2-.1.8-.7 1-.7.1 0 2.5 1.4 3.5 1.9.7.4 1.1.6 1.1 1.1 0 .6-1.1.7-1.5.7-.2 0-1.6-.1-1.8-.1-.5 0-2.6.2-3.3.3-1.3.1-3.1.2-6 .4-2 .1-2.2.1-2.2 1.6 0 .9-.1 5.2-.1 6.1 0 1.2.9 1.2 1.4 1.2h6.5c1.8 0 2 0 2.7-1 .8-1.2 1.2-1.7 1.7-1.7s4 2.7 4 3.2c0 .6-.8.6-2.1.6h-3.8zm-10.5 41.7c-1 .8-2.7 3.1-2.7 3.5 0 .6 1 .6 1.3.6 1.6 0 4.8-.4 6-.7.3 0 1.6-.6 1.9-.6.9 0 3.2 2.4 3.2 3 0 .4-.5.6-.5.6-1.5.4-1.7.4-2.2 1-1.4 1.4-3.4 3.6-4.8 4.9-1.4 1.3-1.5 1.4-1.5 1.8 0 .2.1.3.5.7 1.1 1 2.3 2.4 2.3 4 0 .4-.1 1.6-1.4 1.6-.7 0-.9-.2-1.6-1.4-1.8-3.2-4.5-6.1-6.6-7.6-.1-.1-1-.8-1-.9 0-.1.1-.2.2-.2.2 0 2.8 1 4.9 2.3.2.1 1.4.8 1.6.8.4 0 .6 0 2.4-2.7 1.1-1.6 2.9-4.5 2.9-5 0-.2-.1-.3-.7-.3-.8 0-5.1.6-6.1.6-.2 0-.5 0-.8-.2-.1 0-.9-.4-1-.4-.3 0-.5.3-1 .9-1.8 2.2-3.9 4.1-5.6 5.5-1.4 1.1-5 3.6-5.8 3.6-.1 0-.2-.1-.2-.2s1.6-1.4 1.7-1.5c5-4.2 11.7-13.8 11.7-15.8 0-.3-.1-.6-.5-1-.2-.2-1.4-.8-1.4-1.1 0-.4 1.2-.4 1.5-.4 2.1 0 4.6 2.8 4.6 3.2-.1.5-.3.6-1.3 1.4zm-1.4 42.2c0 .1.1.3.1.4.2 1.3.4 2.6.4 4.3 0 2.7-.6 6.4-4.1 11.7-3.2 4.9-5.2 5.8-6.8 5.8-2.6 0-5-4.1-5-9 0-2.1.4-6.2 4.4-10.2 5.1-5.2 10.4-5.2 12.8-5.2 3.6 0 5.3.7 6.4 1.3 4.3 2.1 7 6.4 7 11.6 0 5.2-3 11.6-10.1 14.1-3.4 1.2-6 1.5-6.6 1.5-.2 0-.4 0-.4-.3 0-.1.1-.2 1.1-.6 4.2-1.6 12.8-5.1 12.8-15 0-1.6-.2-11.1-11.1-11.1-.9.2-.9.5-.9.7zm-13 12.3c0 2.6 1 6.2 3.5 6.2 1.2 0 2.1-.5 4.9-4.6 2.1-3.2 3.9-7.7 3.9-11.6 0-2.4-.2-2.6-.7-2.6-3.8-.1-11.6 5.1-11.6 12.6zm-6.1 52.9c.9 0 2.6-.1 3.1-.5 1.2-1.1 5.8-12.5 6.2-12.5.1 0 .2.1.2.2 0 .7-3.7 11.7-3.7 14 0 .4 0 2 .8 3.9.6 1.4.7 1.9.7 2.7 0 1.6-1.1 2.1-1.8 2.1-1.8 0-1.8-1.4-1.8-3.1 0-4.3-1-5.4-2.7-6.2-.2-.1-1.1-.2-1.2-.4-.1 0-.1-.2.2-.2zm6.8-13.1c0 .6-.3 1.6-1.4 1.6-.8 0-.9-.2-1.8-1.5-1.6-2.2-2-2.6-2.4-3-.4-.3-.5-.4-.5-.6 0 0 0-.1.1-.1.4-.4 6 .8 6 3.6zm-3-12.2c1.8 0 6 1.1 6 3.9 0 .9-.7 1.6-1.4 1.6-.8 0-1.3-.8-1.8-1.8-.1-.2-1.5-2.8-2.8-3.4-.2 0-.3-.1-.2-.2-.1-.1 0-.1.2-.1zm15.4 26.9c0-.1 0-.2.2-.2.4 0 3.1 3 3.1 5 0 1-.6 1.8-1.5 1.8-.7 0-1-.4-1-.9-.1-.8-.1-1.3-.7-1.3-.2 0-3.8 1-4.4 1.2-.6.2-3.6.6-4.1 1-.1.1-.8.6-.8.6-.6 0-1.6-2.7-1.6-3.3 0-.2.1-.7.3-.7.1 0 .6.3.7.3.9.2 1.6.2 3.2.2 1.2 0 1.2 0 4.1-5.9 1.2-2.4 3.4-7.6 3.4-8.6 0-.8.2-.8.3-.8.3 0 3.4 1.4 3.4 1.9 0 .2-.1.3-.7.6-.2.1-.4.2-.6.6-4 6.8-4.4 7.5-7 11-.2.2-.2.4-.2.6 0 .4.4.4.6.4.9 0 1.8-.1 2.6-.2.9-.1 1-.1 1.2-.4.1-.3-.5-2.7-.5-2.9zm11.2-19.3c.5 0 .8 0 1.4-.7 1.1-1.3 1.2-1.5 1.6-1.5.3 0 3.8 2.1 3.8 2.6 0 .6-.8.6-2.2.6h-18.7c-3.5 0-4.7.1-5.1.1-.1 0-.7.1-.8.1-.1 0-.2-.1-.4-.2l-.8-.9c-.2-.2-.2-.2-.2-.3 0-.1 0-.1.1-.1.3 0 1.5.1 1.8.1 2 .1 3.6.2 5.5.2h7.8c.5 0 1-.1 1.4-1.1 1-2.2 1.6-6.4 1.6-7.4 0-.2 0-.3.3-.3.2 0 2.3 1.1 2.6 1.3 1.4.7 1.5.8 1.5 1 0 .6-1.2.6-1.6 1-.5.6-2.4 3.4-2.8 3.9-.4.5-.6.8-.6 1.1 0 .4.4.4.6.4h3.2zm-16 16.5c-.8 0-1.1-.9-1.5-2.2-.2-.5-.4-1.2-1.8-3.8l-.4-.7c0-.1.1-.1.2-.1.2 0 1.9 1 2.3 1 .5 0 .7-.4 1-1 .4-1 1.6-3.7 1.6-6.3v-.7c0-.2.2-.2.3-.2.2 0 1.6.8 2 1 1.6.8 1.6.8 1.6 1.2 0 .3-1.1 1-1.3 1.2-1 1.3-2.3 3.5-3.3 4.8-.5.6-.6.7-.6 1 0 .2.2.5.5.9.9 1.2.9 1.7.9 2.6.1.3-.6 1.3-1.5 1.3zm5.7-19c0 1.3-.9 2.1-1.7 2.1-.9 0-1.1-.8-1.5-2.3-.4-1.8-1.2-3.4-2.4-4.8-.1-.1-.5-.6-.4-.6.3-.3 6 2 6 5.6zm13.2 23.9c0-.5-.6-2-.9-2.6-.1-.1-.4-.6-.4-.7h.1c.6 0 4.9 4.3 4.9 6.4 0 1.4-1 2.3-2.1 2.3-1 0-1.1-1.2-1.2-2.3 0-.4-.1-1-.8-1-.3 0-7 2.1-7.1 2.1-.2.1-.9.8-1.1.8-.3 0-.5-.6-.8-1.3-.2-.3-1-2-1-2v-.3c0-.2 0-.3.2-.3.1 0 .8.3.9.3.4.1.5.1.8.1 1.4 0 1.4-.1 2.4-1.9 1.6-2.9 4.7-8.5 5.2-11.2.1-.4.1-.5.3-.5.1 0 2.3 1.3 2.6 1.4.6.4.9.6.9.9 0 .4-.1.4-1.2.9-.4.2-5.8 7.6-6 7.9-1.2 1.5-1.3 1.6-1.3 1.8 0 .3.2.4.4.4.3 0 2.5-.3 3.1-.4 1.2-.2 1.4-.2 1.6-.5.5-.1.5-.2.5-.3zm-3.9-19.1s3.6 1.2 3.6 1.7c0 .3-.1.3-.7.6-.2.1-.4.2-.5.5-.1.2-1.4 2.8-3.9 6.8-.2.3-.4.6-.4 1 0 .2 0 .3.4.7.8.9 1 1.4 1 1.8 0 .7-.4 1.5-1.3 1.5-.8 0-.9-.2-1.7-2.2-.4-1.1-1.1-2.1-1.4-2.6-.1-.1-.3-.4-.4-.6 0-.1.1-.1.2-.1.3 0 1.8.8 2.1.8.3 0 .4-.1.8-1 .9-2.2 2.2-6.5 2.2-8.3-.2-.6-.2-.6 0-.6zM330.3 300c-.8 0-1.2.3-1.2 1.1 0 1.6 0 3.1-1.7 3.1-1.4 0-1.4-.8-1.4-1.3 0-.2 0-1.4.2-3.8.2-2.5.4-9.6.4-10.6 0-.2-.2-6.1-.2-6.4 0-.3-.3-1.8-.3-2.1 0-.2.2-.4.5-.4.2 0 1.7.6 1.9.8.8.4 1.2.5 2 .5h2.4c.9 0 1.1-.2 1.4-.6.4-.5.7-.9.9-.9.2 0 1.5 1.2 1.7 1.4.6.6.8.7.8 1 0 .2-.2.4-.3.5-.6.4-.7.4-.8.6-.3.5-.4 7.3-.4 8.3 0 .7.2 6.8.2 7.3 0 1.8 0 3.2-2 3.2-1 0-1-.4-1-1 0-.4-.3-.6-.9-.6h-2.2zm.1-18.1c-.4 0-1.1 0-1.2.9-.2 2-.2 12.2-.2 15 0 .7.3 1.1 1.2 1.1h2.2c.4 0 1.1 0 1.2-.9.2-2.4.3-12.3.3-15 0-.5-.1-1.1-1.2-1.1h-2.3zm18.7 10.2c-.4 0-.8.2-.8.6 0 .9 4.3 8.2 11.6 11.6.2.1 1.7.5 1.7.8 0 .1-.3.2-.5.2-.8.1-1.2.2-1.8.5-.3.2-1.9 1.1-2 1.1-.2 0-5.4-3-8.8-11-.3-.7-.3-.8-.5-.8-.3 0-.3.2-.3.8 0 .4.3 11.6.3 13 0 .5 0 2.5-1.8 2.5-1.1 0-1.2-.7-1.2-1.3 0-1.2.4-6.8.4-8.1v-5.8c0-.2-.2-.4-.4-.4s-.3.1-.4.2c-1.3 1.8-2.8 3.4-4.6 5-4.1 3.7-9.2 6.2-9.6 6.2 0 0-.1 0-.1-.1s4-3.5 4.8-4.1c5.6-4.9 8.8-10 8.8-10.5s-.2-.5-1.4-.5c-.2 0-2.6 0-3.7.1-.1 0-.7.1-.8.1-.2 0-.2-.1-.4-.3l-.8-.9c-.2-.2-.2-.2-.2-.3s.1-.1.2-.1c.2 0 1.5.1 1.8.2 1.6 0 3.4.1 4.9.1h.8c.3 0 .9 0 1.1-.6v-4.7c0-.4 0-1.2-1-1.2-1.3 0-3.2 0-4.4.1-.1 0-.7.1-.8.1-.2 0-.2-.1-.4-.2l-.8-.9c-.2-.2-.2-.2-.2-.3s.1-.1.2-.1c.2 0 1.2.1 1.4.1.6 0 4 .2 4.6.2s1.3 0 1.3-1.2c0-1.1-.1-3.9-.2-5.2 0-.2-.3-1.4-.3-1.7 0-.2.1-.4.4-.4.1 0 3.8.6 3.8 1.2 0 .2-.8.8-.9.9-.2.3-.2.5-.2 1.5 0 .5-.1 3.1-.1 3.7 0 .5.1 1.1 1.2 1.1h2.2c1.6 0 2.1 0 2.5-.7.8-1.2.8-1.4 1.2-1.4.3 0 3 2.1 3 2.6s-.8.5-2.1.5H349c-.3 0-1 0-1.2.7-.1.3-.1 4.1-.1 4.8 0 1.1.8 1.1 1.2 1.1h4.6c1.9 0 2.2 0 2.8-1 .6-1.1.8-1.4 1.2-1.4.3 0 3.2 2.5 3.2 2.9 0 .5-.8.5-2.1.5h-9.5z"/></g></g><g><g><path d="M309 346.2c-.2-1.6-.6-2.5-1.2-3.4-1-1.3-2.5-2-4.2-2-1.8 0-3.5.9-4.4 2.4-1 1.5-1.5 3.7-1.5 6.1 0 5.2 2.5 8.7 6.3 8.7 2.8 0 5-1.7 6-4.5l.7.3c-.5 1.5-1.2 2.5-2 3.3-1.3 1.2-3.2 1.9-5.4 1.9s-4.3-.9-5.7-2.5c-1.5-1.7-2.3-4-2.3-6.7 0-3.5 1.3-6.5 3.5-8.1 1.3-1 3-1.5 4.7-1.5 1 0 2.1.2 3.2.6 1.2.4 1.4.4 1.8.4.3 0 .5 0 1.3-.3v5.5h-.8zm15.4 12.6c-.1-.6-.1-1.4-.1-2.6-1 1.7-2.6 2.7-4.4 2.7-1.6 0-2.8-.8-3.3-2.1-.2-.7-.3-1.7-.3-3.9v-4.1c0-1.3-.1-1.8-.4-2.1-.2-.1-.4-.2-.8-.2h-.5v-.5l3.9-.3c-.1 2.3-.1 2.9-.1 4.7v2.2c0 2.5 0 3.2.3 4.1.3.9 1 1.4 2 1.4 1.4 0 2.6-.9 3.2-2.4.4-.9.5-1.4.5-3v-3.9c0-1.3-.1-1.8-.4-2-.2-.2-.4-.2-.8-.3h-.5v-.5l3.9-.3c-.1 1.9-.1 3.5-.1 4.7v4.7c0 2.5.2 3 1.5 3h.2v.6l-3.8.1zm11.7-13.1c-.1 1.5-.1 3.6-.1 4.7v5.1c0 2.3.1 2.5 1.8 2.6v.6h-5.7v-.7c1.7-.1 1.8-.3 1.8-2.6v-6.7c0-1.3-.1-1.8-.4-2.1-.2-.2-.6-.2-1.5-.2v-.4l4.1-.3zm-1.2-5.3c.8 0 1.4.6 1.4 1.4 0 .8-.6 1.4-1.4 1.4-.8 0-1.4-.6-1.4-1.4-.1-.8.6-1.4 1.4-1.4zm7.6 14.2h.8c.1 1.2.3 1.8.7 2.3.6.9 1.6 1.4 2.7 1.4 1.7 0 2.7-.9 2.7-2.4 0-.6-.2-1.1-.6-1.5-.4-.4-.5-.4-2.8-1.4-2.7-1.2-3.5-2.1-3.5-3.8 0-.9.2-1.7.7-2.3.7-.9 1.8-1.4 3.1-1.4.7 0 1 .1 2.3.3h.5c.3 0 .7 0 1.2-.2l-.1 4h-.8c-.1-2.2-1.2-3.6-3-3.6-1.5 0-2.5.9-2.5 2.2 0 .6.2 1 .7 1.4.5.3 1 .6 2.6 1.3 1.7.7 2.3 1.1 2.9 1.7.5.6.8 1.4.8 2.4 0 2.3-1.5 3.8-3.9 3.8-.7 0-1 0-2.5-.3-.3 0-.7-.1-.9-.1-.3 0-.6 0-1.1.1v-3.9zm17.1-8.9c-.1 1.5-.1 3.6-.1 4.7v5.1c0 2.3.1 2.5 1.8 2.6v.6h-5.7v-.7c1.7-.1 1.8-.3 1.8-2.6v-6.7c0-1.3-.1-1.8-.4-2.1-.2-.2-.6-.2-1.5-.2v-.4l4.1-.3zm-1.2-5.3c.8 0 1.4.6 1.4 1.4 0 .8-.6 1.4-1.4 1.4-.8 0-1.4-.6-1.4-1.4-.1-.8.6-1.4 1.4-1.4zm10.8 7.9c1.1-1.9 2.3-2.7 4.4-2.7 1.6 0 2.6.5 3.3 1.6.5.7.7 1.6.7 3.1v5.2c0 2.4.1 2.5 1.8 2.6v.6h-5.7v-.7c.8 0 1.3-.1 1.5-.4.2-.2.2-.4.2-.8 0-.3.1-1.2.1-1.4v-5c0-1.3-.1-2.1-.4-2.7-.4-.9-1.2-1.3-2.2-1.3-1.2 0-2.1.6-2.8 1.7-.5.8-.9 2-.9 3.1v4.3c0 2.4.1 2.5 1.8 2.6v.6h-5.7v-.7c1.7-.1 1.8-.3 1.8-2.6v-6.7c0-1.9-.3-2.3-1.7-2.3v-.4l3.8-.3v2.6zm16.8 3.2c0 1.7.2 2.7.6 3.8.7 1.9 1.9 2.8 3.7 2.8 1.8 0 3.1-.9 4.1-2.8l.6.3c-1.1 2.3-2.8 3.4-5.3 3.4-3.6 0-6-2.7-6-6.5 0-4.1 2.4-6.8 5.9-6.8 2.3 0 4 1.2 4.8 3.2.2.7.4 1.3.4 2.8H386zm6.6-.6c0-1.3-.2-2.1-.5-2.8-.6-1.2-1.4-1.9-2.6-1.9-1.2 0-2.2.7-2.9 2-.4.7-.5 1.4-.7 2.7h6.7z" fill="#76544b"/></g></g><g><g><path class="st0" d="M220.4 5.1c.5-.7.7-.9 1.3-1.5.8.7 1.1.8 1.8 1.5.2.2.3.3.3.5s-.2.4-1 .8v5.5c0 10.4 0 10.8.2 15.6 0 .3-.1.4-.3.4-.2.1-1.2.2-1.6.2-.2 0-.3-.1-.3-.4v-2.2h-14v2c0 .2-.1.3-.3.4-.1 0-1 .1-1.3.1-.4 0-.6-.1-.6-.4v-.1c.1-3.6.1-8.3.1-11.6 0-7.3 0-10.8-.1-12.5 1.1.7 1.5.9 2.6 1.7h3.3c.7-1.6 1.2-3.4 1.5-5.1 3.4.9 3.5.9 3.5 1.2 0 .2-.3.4-1.4.6-.3.4-.6.7-.7.9-1.1 1.4-1.4 1.8-2 2.4h9zm.4 6.2V5.8h-14v5.5h14zm-14 .7v5.9h14V12h-14zm0 6.6v6.2h14v-6.2h-14zm7.2 23.5c-1.4 1.2-1.9 1.7-2.8 2.3 1.7 1.4 2.2 1.9 2.9 2.9 1.5 2.3 2.1 4.4 2.1 7.7 0 2.6-.3 3.7-1.2 4.7-.7.8-1.3 1-3.3 1.4-.2-1.5-.6-1.7-4.4-2.6V58c1.4.2 4.2.4 5.2.4 1.2 0 1.3 0 1.5-.7.3-1 .4-2.2.4-3.6 0-.9 0-1.6-.1-2.6-1.7 1.5-2.4 2-4 3.1-2 1.3-4.4 2.6-6.5 3.4-1 .4-1.7.7-3.3 1.1l-.2-.4c3.5-1.5 6.3-3.2 9.4-5.6 1.6-1.3 2.3-1.9 4.1-3.8-.3-.9-.4-1.3-.7-1.9-2.2 1.7-2.8 2.2-4.3 3.1-1.4.9-3.2 1.8-4.8 2.4-.9.4-1.7.6-3.3 1.1l-.2-.4c3.2-1.4 5.2-2.6 7.8-4.4 1.5-1.1 2.4-1.8 3.8-3.2l-1.3-1.3c-1.1.8-2 1.3-3.2 1.9-2.4 1.3-3.9 1.8-6.3 2.5l-.2-.4c3.1-1.4 5.2-2.6 7.5-4.2 1.1-.8 1.8-1.4 3-2.5h-4.3c-.9 0-1.5 0-2.6.2l-.4-1.2c1 .2 2.2.3 3.3.3h11.8c.6-.8.8-1.1 1.5-1.8 1.2.9 1.5 1.2 2.7 2.1.1.1.1.2.1.2 0 .1-.1.2-.3.2h-7.2c.6 2.5 1.2 4.1 2.3 6.3 2.4-2.2 3.1-2.9 4.3-4.7 1.1.5 2.4 1.3 2.8 1.6.1.1.2.2.2.3 0 .2-.4.3-.9.3h-.9c-2.3 1.6-3.1 2-5.2 3.1 1 1.9 2.2 3.4 3.7 4.8 1.6 1.5 3.6 2.9 5.2 3.5l-.2.4c-.4-.1-.5-.1-.7-.1-.8 0-1.3.4-2 1.4-1.6-1.2-2.7-2.3-4.2-4.3-1.8-2.4-2.8-4.7-4.2-9.2-.4-1.4-.5-1.8-.8-3.3H214zm-1.3-5v-1.5c0-.8 0-1.1-.1-1.8.7.1 1.2.1 1.6.1 1.2.1 1.9.2 1.9.5 0 .2-.5.5-1.3.6v2h8.7c.5-.6.6-.8 1.2-1.4 1.2.8 1.6 1.1 2.7 2.1.1.1.2.2.2.3 0 .1-.1.1-.2.2-.1 0-.4.1-.7.2-.4.1-.8.1-1.1.2-1 .8-1.4 1-2.6 2l-.4-.2c.5-.9.6-1.2 1.1-2.6h-19.9c-.1 1.7-.5 2.7-1.1 3.6-.4.6-.9 1-1.3 1-.5 0-1.1-1-1.1-1.8 0-.2.1-.4.6-.8.8-.7 1.2-1.2 1.7-2.2.4-.8.5-1.2.8-2.5h.4v2h8.9zm-2 53.4c2.5-.3 3.9-.5 6.1-1l.1.4c-3 1.1-3 1.1-11.3 3.2-.1.2-.1.4-.1.5-.1.5-.2.7-.4.7-.1 0-.3-.2-.4-.4-.1-.1-.2-.6-.3-1.1l-.2-.8c0-.3-.1-.6-.2-.9 1.3 0 2.7-.1 4.7-.4v-2.9c-3.1 1.4-5.4 2.3-8.6 2.9l-.2-.5c3.7-1.2 7.7-3.2 10.6-5.3H203c-.3 0-1.3.1-2.2.2l-.3-1.2c.5.2.5.2 1.3.2.4 0 .4 0 1.2.1h10v-1c0-.6-.1-1.1-.2-1.6 2.9.1 3.4.2 3.4.5 0 .2-.3.4-1.3.7v1.4h8.1c.7-.9.8-1.1 1.5-2 1.2.8 1.6 1.1 2.7 2 .2.2.2.3.2.4 0 .2-.2.3-.4.3h-12c.9 1.5 1.9 2.5 3.4 3.6 1.6-1.3 2.1-1.8 3.1-3.2.4.1.9.4 1.9.8.6.3.8.4.8.6 0 .2-.1.3-.4.3h-.1c-.3 0-.5 0-.9-.1-1 .6-1.6.9-3.9 2 2.2 1.3 4.9 2 9 2.3v.5c-1.1.2-1.6.7-1.9 1.9-2.1-.3-3.5-.9-5.5-2.2-2.8-1.7-4.3-3.4-6.2-6.5h-.7c-1.3 1-1.8 1.3-2.9 1.9v3.7zm-3.2-20.3c0-2.2 0-2.4-.1-3 .6.1 1.1.1 1.4.2 1.4.2 1.6.2 1.6.5 0 .2 0 .2-1.1.8v1.5h2.4c.5-.7.7-.9 1.3-1.6.9.8 1.2 1 2.2 1.9l.1.1c0 .2-.2.3-.5.3h-5.5v2.3h3.7c.5-.7.7-.9 1.2-1.5.9.7 1.2 1 2.1 1.9.1.1.1.1.1.2s-.2.2-.4.2h-6.7v2.2h3.2c.4-.5.5-.6.9-1.1.6.3 1.2.7 1.8 1.1.1.1.1.1.1.2 0 .2-.2.4-.9.8v3c-.2.8-.5 1-2.5 1.5-.1-.7-.1-1-.5-1.2 0 0-.5-.2-1.4-.5v-.3c.2 0 .9.1 2.2.1.3 0 .4-.1.4-.5v-2.5h-3.4c0 4 0 4 .1 5.5 0 .2-.1.3-.2.4-.1.1-1 .2-1.3.2-.2 0-.3-.1-.4-.5.1-2.6.1-3.5.1-5.5h-3.1v5.3c0 .1 0 .2-.1.3-.1.1-.8.2-1.3.2-.3 0-.4-.1-.4-.3.1-.6.1-2.4.1-5.2 0-.2 0-.5-.1-2 1 .4 1.3.6 2.2 1.1h2.8v-2.2h-4.7c-.6 0-1.5.1-2 .2l-.3-1.1c.8.1 1.9.2 2.3.2h4.7v-2.3h-3.8c-.7.8-1.1 1.1-2.1 2l-.3-.2c1.1-1.7 2.1-3.8 2.4-5.3 2.1.5 2.7.8 2.7 1 0 .2-.2.3-1.3.5-.3.5-.5.8-.9 1.3h3.2zm13.2-1.1c0 .2-.2.3-1.2.7V71c0 1.3.1 6.9.1 8 0 .2-.1.3-.2.3-.2 0-1.3.2-1.5.2-.2 0-.3-.1-.3-.2v-.1c.1-1.8.1-2.6.1-4.3 0-3.8 0-5.8-.1-6.5 2.3.1 3.1.3 3.1.7zm-1.6 11.2c.7.1.7.1 2.2.1 1 0 1 0 1.5.1.4 0 .4-.1.4-.6v-9.5c0-.7 0-2.4-.1-3.2 3 .4 3.4.5 3.4.8 0 .2-.4.5-1.3.9v11.9c-.1.9-.3 1.2-1.2 1.6-.4.2-.8.3-1.9.6-.1-.7-.3-1-.8-1.4-.2-.2-.6-.3-1.4-.4l-.5-.1c-.1 0-.3-.1-.4-.1v-.7zm3.3 30.8c.9-1 1.2-1.4 2.1-2.3 1.4 1 1.8 1.4 3 2.5.1.2.2.2.2.3 0 .1-.1.2-.3.2h-12.3c1.3 2 2.1 3 3.4 4.2 1.5 1.5 3.4 2.8 5.4 3.8 1.1.6 2 .9 4 1.5v.4c-.8.2-1.2.3-1.6.8-.3.4-.5.7-.7 1.4-3.3-2-4.8-3.2-6.8-5.6-1.5-1.8-2.5-3.3-4-6l.1 4.7c0 4.3.1 6.8.2 9.5 0 .2 0 .3-.1.4-.2.1-.8.2-1.6.2-.4 0-.5-.2-.6-.5.1-2.3.1-2.3.1-9.3v-4.1c-2.2 3.2-3.7 4.9-6.1 6.9-2.2 1.9-3.6 2.8-6.3 4.1l-.2-.4c4.2-3.2 5.4-4.3 7.7-7.1 1.4-1.7 2.3-3 3.5-5H203c-.6 0-1.1.1-1.9.2l-.2-1.2c.8.2 1.3.3 2.2.3h9.6v-7.5c0-1.1-.1-1.9-.2-3.5 3.1.4 3.5.4 3.5.8 0 .2-.3.4-1.2.6v9.6h7.6zm-18.1-9.1c1.3.9 2.4 1.8 3.6 3 1 1 1.4 1.7 1.4 2.3 0 1-.7 2.3-1.2 2.3-.3 0-.5-.2-.7-.9-1-2.7-1.9-4.4-3.4-6.3l.3-.4zm12 8.1c1.5-2.1 2-2.9 3.1-4.9 1.1-2 1.3-2.4 1.7-3.5 2.5 1.1 3.2 1.5 3.2 1.8 0 .2-.3.3-1.1.3h-.4c-3 3.5-4.5 5-6.3 6.4l-.2-.1zm-2.3 23.6c3.1 1.5 4.3 2.7 4.3 4.4 0 .7-.3 1.1-.9 1.1-.2 0-.2 0-.9-.3-.8-.3-1.9-.5-3.3-.7-2-.2-4-.4-4.6-.4-.7 0-1.1.3-1.1.8 0 .4.6 1.9 2 4.7 1.6-.9 3.5-1.8 5.2-2.4 2.2-.8 3.9-1.2 5.8-1.2 3.6 0 6.2 2 6.2 4.7 0 1.2-.6 2.5-1.5 3.4-1.1 1.1-2.7 1.6-4.8 1.6-2.4 0-4.9-.8-6.8-2.3l.2-.5c1.6.8 3.5 1.3 5.2 1.3 2 0 3.6-.6 4.5-1.6.6-.7 1-1.6 1-2.6 0-2.1-1.6-3.2-4.3-3.2-1.6 0-3.1.4-5.7 1.7-1.4.7-2.8 1.4-4.4 2.4 1.4 2.9 2.3 4.9 3.4 7.5 1.2 3 1.5 3.9 1.5 4.9 0 1.3-.6 2.3-1.4 2.3-.1 0-.3-.1-.5-.3-.2-.2-.3-.5-.4-1.3-.6-3.8-1.8-7.8-3.7-12.4-1.7 1.1-2.7 1.9-3.1 2.1-.4.3-.6.4-.8.6-.4.3-.7.4-1 .4-1.3 0-3.2-1.9-3.2-3.3 0-.1 0-.3.1-.5.7 1 1.4 1.6 2.1 1.6.8 0 2.6-.8 5.2-2.3-.7-1.7-1.5-2.9-2.1-3.7-.5-.7-.6-.9-.6-1.3 0-1 1.2-2 2.2-2 .4 0 .4 0 .9.1.2.1.4.1.8.1h4.6c1.7 0 2-.1 2-.4 0-.6-1.1-1.8-2.4-2.8l.3-.2zm-12.3 54.6c1.9-1.2 3.7-2.6 5.7-4.6 3-2.9 5.2-5.5 7.3-8.8-3.6.6-5.7 1.1-7.4 1.7-.5.2-.7.2-1 .2-.7 0-1.5-.6-2.3-1.6-.5-.7-.9-1.4-.9-1.7 0-.1 0-.2.1-.4 1 1.1 1.9 1.6 3.1 1.6 1.2 0 6.3-.6 9.4-1.2 0-2.6-.2-4-.4-4.5-.3-.6-1.2-1.2-2.3-1.4.2-.3.4-.3 1-.3.9 0 2.4.4 3.3.8.7.3.9.6.9 1.1 0 .2 0 .4-.2.7-.4.9-.6 2-.6 3.4 2.5-.4 3.3-.5 4.5-1.1.3-.1.4-.2.6-.2.9 0 2.6 1.1 2.6 1.7 0 .4-.3.5-1 .5H223c-.7 0-1.3-.1-1.6-.1-1 0-1.9.1-4.1.3v.9c0 2.6.2 6 .5 9.7.1 1.5.2 2.6.2 3.2 0 1.6-.8 3.2-1.6 3.2-.4 0-.7-.2-.8-.6-.2-.6-.5-1-1.1-1.4-.7-.6-.7-.6-4.2-2.5l.2-.4c2.7.8 4.1 1.2 5.5 1.6 0-.6.1-2.1.1-3.7v-2.8c-.1-2-.1-3.3-.1-4v-1.3c-1.3 2-2.4 3.3-4.7 5.6-3.2 3.1-6.8 5.6-9.5 6.7l-.1-.3zm5 14c.7 0 2 .4 2.8.9.5.3.8.7.8 1.1 0 .1-.1.4-.1.7-.1.7-.3 3-.3 5.2v3.3c0 1 0 1.3-.1 1.6-.1.4-.3.7-.6.7-.4 0-.8-.4-1.1-1-.3-.6-.5-1.3-.5-1.7 0-.2 0-.3.1-.7.3-.8.4-2.5.4-4.9 0-2.2-.1-2.9-.6-3.6-.4-.6-.6-.8-1.8-1.3.5-.3.6-.3 1-.3zm3.2 22.7c3-2 4.7-3.7 6.1-6 1.7-2.9 2.1-5.4 2.1-12.5 0-3-.1-4-.6-4.5-.4-.5-1.1-.8-2.2-1.1.4-.4.7-.4 1.2-.4.7 0 2.1.4 3.1.8.7.4 1.1.8 1.1 1.2 0 .2 0 .2-.2.7-.2.7-.4 2.7-.5 6.4-.1 4.4-.3 5.7-1 7.5-1.3 3.5-4.5 6.5-8.9 8.3l-.2-.4zm-7.3 16.9c2.5.5 4.3 1.1 5.2 1.8.8.5 1.1 1.1 1.1 2 0 .8-.4 1.4-.8 1.4-.3 0-.5-.1-.9-.7-1.5-1.9-2.9-3.1-4.8-4.1l.2-.4zm23.1-.7c-.7 1.1-2.3 3-4.5 5.1-3.3 3.2-6.6 5.7-11.4 8.7-1.6 1-2 1.3-2.3 1.7-.2.2-.5.3-.7.3-.6 0-1.3-.6-2.1-1.8-.5-.8-.9-1.7-.9-2.3 0-.3.1-.5.3-.7.6 1.1 1.4 1.9 2.2 1.9.7 0 2.6-1 5.8-2.9 5.5-3.4 10-6.8 13.3-10.2l.3.2zm-19.8-4.6c4.8 1.1 6.3 2.1 6.3 3.8 0 .8-.4 1.5-.8 1.5-.3 0-.3 0-1.6-1.6-1.2-1.4-2.7-2.6-4.1-3.3l.2-.4zm12.8-2.6c1.1.6 1.9 1.2 2.7 1.8 1.1 1 1.5 1.7 1.5 2.4s-.4 1.3-.9 1.3c-.4 0-.4 0-1.3-2-.5-1.1-1.5-2.4-2.3-3.2l.3-.3zm3.1-1.7c1.1.5 2 1 2.9 1.7 1.1.9 1.5 1.5 1.5 2.3 0 .7-.3 1.2-.7 1.2-.3 0-.5-.1-.7-.6-1.1-1.9-1.6-2.6-3.3-4.3l.3-.3zm-15 58.8c2.1-2 3.5-3.9 4.6-6.4 1.1-2.4 1.7-5.2 1.9-8.8-2.7.3-5.1.9-6.9 1.7-.5.2-.7.2-1 .2-.6 0-1.2-.4-2-1.2-.6-.7-1-1.4-1-1.9 0-.1 0-.2.1-.5.9 1.1 1.7 1.5 2.7 1.5.8 0 1 0 5.2-.7 1-.1 1.8-.3 2.9-.4v-2.3c0-2.6-.1-3.3-.8-3.9-.4-.4-1-.6-2-.8.4-.4.6-.4 1.2-.4 1.1 0 2.8.4 3.7.9.6.3.8.5.8 1 0 .2 0 .3-.2.6-.4.8-.6 2.6-.7 4.8.5-.1 2.2-.2 4-.4 1.1-.1 1.8-.2 2.4-.5.2-.1.4-.2.6-.2.5 0 .9.1 1.4.4 1.1.5 1.6 1 1.6 1.4 0 .3-.3.6-.6.6h-.4c-1.6-.3-3.4-.5-5.3-.5-1.1 0-1.7 0-3.8.2-.4 4.9-1.2 7.6-2.8 10.4-1.3 2.1-3.1 3.9-5.5 5.5l-.1-.3zm-5.1 30.8c1.6-1.5 2.8-3.3 4-5.7 1.1-2.4 2.1-6.1 2.1-8.1 0-1.2-.5-1.8-2-2.3.3-.2.5-.3.8-.3.7 0 1.4.2 2.2.8 1.1.7 1.6 1.2 1.6 1.7 0 .2-.1.5-.4 1.4 0 .1 0 .1-.3 1.1-1 3.2-1.2 3.9-2 5.5-1.4 2.9-3.1 4.8-5.7 6.4l-.3-.5zm25.6-12c-.9 1.6-1.7 2.6-3.3 4.2-1.7 1.9-4.5 4.3-6.4 5.5-.6.4-1.4 1.1-1.7 1.4-.2.2-.4.3-.6.3-.7 0-1.8-1.6-1.8-2.5 0-.1.1-.4.2-.9.2-.7.3-3.4.3-8.1 0-6.8-.1-7.2-2.3-7.7.3-.4.5-.4 1-.4.7 0 1.6.3 2.6.9.9.5 1.2 1 1.2 1.4 0 .2 0 .3-.2.8-.1.4-.3 1.4-.4 2.9-.1 1.3-.4 7.9-.4 9 0 .4 0 .7.1 1.4 3.5-1.4 7.9-4.7 11.3-8.5l.4.3zm-11.5 33.5v-5.8h-3.4c-.6 0-1 0-1.3.1-.4 0-.5 0-.9.1l-.2-1.1c.8.2 1.5.3 2.5.3h3.4v-3.2c0-1.4 0-1.7-.1-2.7.6.1 1.1.1 1.4.1 1.5.1 1.9.2 1.9.5s-.3.4-1.2.6v4.7h3.8c.7-.9.9-1.1 1.6-1.9 1.1.8 1.5 1.1 2.5 2.1.1.1.1.2.1.3 0 .1-.1.2-.3.2h-7.7v5.8h4.6c.8-1 .8-1 1.7-2 1.2 1 1.5 1.3 2.6 2.2.1.1.1.2.1.3 0 .1-.1.2-.3.2h-8.5c.2.5.5 1 1.2 2 1.4 2.3 3 3.8 5.2 5.3 1.3.8 2.2 1.3 3.9 1.8l-.1.4c-1 .2-1.6.8-2.1 1.9-2.5-1.6-3.7-2.8-5.2-5-1.3-1.9-2.2-3.5-3.1-5.9v5.2c0 5.2 0 5.2.1 8-.1.3-.1.4-.4.4-.3.1-.7.2-1.2.2-.4 0-.5-.1-.5-.4v-.1c.1-3.9.1-6.6.1-8v-4c-1.9 2.9-3.4 4.7-6 6.8-2 1.7-3.4 2.6-5.8 3.8l-.4-.4c2.5-1.6 4.7-3.5 6.8-5.8 1.8-2 2.7-3.4 4.3-6.4H209v4.7c0 .5-.3.6-1.4.6-.3 0-.4-.1-.4-.4v-1.4h-3.8v2.6c0 .4-.3.5-1.1.6h-.3c-.4 0-.5-.1-.6-.4.1-2.7.1-7.2.1-10.1 0-2.6 0-4.8-.1-6.5 1.1.5 1.4.7 2.4 1.3h3.3c.5-.5.6-.7 1.1-1.3.8.5 1 .7 1.8 1.2.2.2.3.3.3.5 0 .1-.1.2-.1.2 0 .1-.4.3-1 .7v7h6.6zm-12.4 3.5h3.8v-11.2h-3.8v11.2zm0 36.6c0 .3-.1.4-.3.4-.2.1-.7.2-1 .2-.5 0-.6-.1-.7-.4.1-4.6.1-6.9.1-9.9 0-3.9 0-6.1-.1-7.4 1 .5 1.3.6 2.2 1.3h2.3c.5-.6.6-.8 1.1-1.3.7.6 1 .7 1.7 1.3.2.2.3.3.3.4 0 .1-.1.2-.2.3-.1.1-.2.2-.4.3-.1 0-.2.1-.4.2 0 8 0 10.2.1 13.2 0 .4-.2.5-.9.5h-.7c-.2 0-.4-.1-.4-.4v-1.4h-2.8v2.7zm0-3.3h2.8v-11.7h-2.8v11.7zm20.3-10.7c.5-.5.7-.7 1.2-1.1.7.5 1 .6 1.6 1.1.2.2.3.3.3.5s-.2.3-.8.6c0 2.4 0 4.6.1 8 0 .4-.3.5-1 .6h-.4c-.3 0-.4-.1-.5-.3v-.4H212v.4c0 .4-.3.5-1 .5h-.4c-.4 0-.5-.1-.5-.4v-2l.1-3.2c0-2.3 0-4.4-.1-5.5.9.5 1.2.7 2 1.4h7.2c1.2-2.1 2-3.8 2.6-5.4 2.8.9 3.1 1 3.1 1.3 0 .1-.1.2-.1.2s-.4.1-1.1.2c-.4.5-.7.8-.9 1-1.5 1.6-1.6 1.7-2.8 2.7h3.6zm-1.6 11.2c.4-.5.5-.7 1-1.2.7.5.9.7 1.6 1.2.2.2.3.3.3.4 0 .2-.2.5-.7.8v1.7c0 2.2.1 5.8.1 7.1 0 .4-.4.6-1.4.6-.5 0-.6-.1-.6-.4v-1.2h-8.6v1.1c-.1.5-.4.6-1.4.6-.4 0-.5-.1-.5-.5.1-3 .1-4.7.1-5.1 0-1.6-.1-5-.1-6.2 1 .5 1.2.7 2.1 1.2h8.1zm-5.3-7.1v-3.3h-4.9v3.3h4.9zm0 .7h-4.9v3.4h4.9v-3.4zm-4.4-10.1c1.6.8 2.2 1.2 2.9 1.8.8.7 1 1 1 1.5 0 .8-.6 1.8-1 1.8-.3 0-.4-.1-.8-1.1-.7-1.7-1.1-2.2-2.3-3.8l.2-.2zm1.1 21.2v3.5h8.6v-3.5h-8.6zm8.6-.7v-3.3h-8.6v3.3h8.6zm2-14.5h-5.5v3.3h5.5v-3.3zm-5.5 4.1v3.4h5.5v-3.4h-5.5zm2.1 23.2c2.3.8 4.6 2 5.8 2.9 1.2.9 1.6 1.6 1.6 2.6s-.5 2-1.1 2c-.1 0-.3-.1-.4-.2-.2-.2-.2-.2-1.5-2.2-1-1.5-2.6-3.2-4.6-4.8l.2-.3zm-64-371.1c4.7-4 7.3-7 9.9-11.5 1.9-3.4 3.6-7 3.6-8 0-.3-.1-.4-.6-.4-.6 0-3.4.5-5.5 1-2.2.5-4.2 1.1-5.5 1.7-.5.2-.8.3-1.1.3-.6 0-1.4-.6-2.1-1.6-.5-.7-.8-1.4-.8-1.9 0-.2 0-.3.2-.6.5 1.1 1.5 1.7 2.8 1.7 1 0 3.4-.4 8.5-1.2 2.6-.5 2.8-.5 3.5-.8.4-.2.4-.2.6-.2.5 0 1.3.5 2.2 1.4.6.6.9 1.1.9 1.4 0 .3-.1.4-.4.8-.4.4-.5.6-1 1.7-2.4 4.9-5.5 9.2-8.7 12.2-1.9 1.7-3.7 3-6.2 4.5l-.3-.5zm-5 31.3c1.6-1.5 2.8-3.3 4-5.7 1.1-2.4 2.1-6.1 2.1-8.1 0-1.2-.5-1.8-2-2.3.3-.2.5-.3.8-.3.7 0 1.4.2 2.2.8 1.1.7 1.6 1.2 1.6 1.7 0 .2-.1.5-.4 1.4 0 .1 0 .1-.3 1.1-1 3.2-1.2 3.9-2 5.5-1.4 2.9-3.1 4.8-5.7 6.4l-.3-.5zm25.6-12c-.9 1.6-1.7 2.6-3.3 4.2-1.7 1.9-4.5 4.3-6.4 5.5-.6.4-1.4 1.1-1.7 1.4-.2.2-.4.3-.6.3-.7 0-1.8-1.6-1.8-2.5 0-.1.1-.4.2-.9.2-.7.3-3.4.3-8.1 0-6.8-.1-7.2-2.3-7.7.3-.4.5-.4 1-.4.7 0 1.6.3 2.6.9.9.5 1.2 1 1.2 1.4 0 .2 0 .3-.2.8-.1.4-.3 1.4-.4 2.9-.1 1.3-.4 7.9-.4 9 0 .4 0 .7.1 1.4 3.5-1.4 7.9-4.7 11.3-8.5l.4.3zM163 73.4c0-2.2-.1-2.8-.5-3.3s-.9-.8-1.6-1c.2-.3.6-.4 1-.4.6 0 1.7.3 2.7.9 1 .5 1.3.8 1.3 1.3 0 .3-.1.4-.4.9-.3.5-.4 1.8-.4 13.2 0 6.3-.2 7.4-1.2 7.4-.3 0-.5-.2-.6-.6-.2-.5-.3-1.5-.3-3.7V73.4zm-9.2 32.6c1.8 1 3.6 2.3 4.6 3.4.5.7.7 1.1.7 1.6 0 .9-.7 2-1.2 2-.2 0-.4-.2-.6-.8-1.1-2.5-2.2-4.3-3.7-6l.2-.2zm3.7 19.3c2.3-1.6 3.8-2.9 5.7-5 3.1-3.4 5.8-7.7 7.4-11.7.4-1 .6-1.6.6-2.1 0-.8-.5-1.4-1.9-1.9.3-.2.4-.3.8-.3.8 0 2 .4 3.1 1.2.8.5 1.1 1 1.1 1.5 0 .3-.1.4-.4.8-.2.3-.2.3-1.5 2.6-2.2 4-2.9 5.1-4.8 7.4-3 3.7-6 6.2-9.7 8l-.4-.5zm2.9-20.8c3.2 1.7 4.9 3.3 4.9 4.6 0 1.1-.5 2.2-1.1 2.2-.4 0-.4-.1-1-1.7-.7-1.7-1.6-3.3-3-4.8l.2-.3zm-7.6 34.6c1.4 1.4 2.3 1.7 3.8 1.7.8 0 1.6-.1 2.7-.4.7-2 1.1-3.2 1.1-4.3 0-1-.5-1.6-1.9-2.3.3-.2.5-.2.7-.2.6 0 1.5.3 2.4.7 1 .5 1.4.8 1.4 1.3 0 .2-.1.4-.3.8-.1.2-.7 1.5-1.8 3.7 2.2-.8 2.5-.9 3.3-1.7.2-.2.3-.2.6-.2 1.2 0 2 .4 2 .9 0 .8-1.9 1.5-6.6 2.6-.3.6-.8 1.8-1.6 3.6-.9 2.1-3.2 7.1-3.5 7.6-.5.8-.7 1.1-1.1 1.1-.5 0-.9-.9-.9-2.1 0-.6.1-.8.3-1.1.7-.7 1-1.2 1.4-1.8 1.5-2.2 2.5-4.2 3.7-7.1-.7.1-.9.1-1.4.1-1.1 0-1.9-.2-2.6-.6-.9-.5-1.6-1.2-2.2-2.2l.5-.1zm15.9 1.6c2.1.2 3.7.7 5.1 1.7 1.2.8 1.9 1.7 1.9 2.3 0 .5-.3.9-.8.9-.2 0-.4-.1-.7-.2-.8-.5-1.4-.6-2.9-.6-2.4 0-3.1.7-3.1 2.7 0 .8.1 2.1.6 5.2 1.8.5 3.4 1.3 4.3 2 .8.6 1.2 1.4 1.2 2.4 0 .6-.2 1-.6 1-.3 0-.4-.1-1-.8-1.1-1.2-2.1-1.9-3.6-2.6v.6c0 1.2-.2 1.9-.8 2.6-.8.8-2.2 1.3-3.9 1.3-2.7 0-4.6-1.3-4.6-3.2 0-2.1 2.3-3.6 5.6-3.6.7 0 1 0 1.8.2-.1-2.4-.1-2.6-.1-3 0-2.5.2-3.4 1-4.3.6-.6 1.4-1.1 2.8-1.4.5-.1.5-.2 1.6-.4-.8-.9-1.7-1.4-3.9-2.1l.1-.7zm-1.6 13.2c-.9-.3-1.6-.4-2.6-.4-2.5 0-4.1.9-4.1 2.3 0 1.1 1.1 1.8 3 1.8 2.4 0 3.7-1 3.7-2.9v-.8zm-8.2 13.5c.9 0 2.3.3 3 .6.6.2.8.5.8 1v.1c0 .2 0 .2-.2.8-.4 1-.7 3.6-.7 6.1 0 1.8.2 2.2 1.2 2.2.6 0 1.3-.2 4-1.5.5-.3.9-.4 1.2-.4.7 0 1.4.6 1.4 1.3 0 .4-.2.7-.6.9-.2.1-.6.2-2 .6-3.6 1-5.6 1.9-7.5 3.4-1.6 1.3-2.3 2.4-2.3 3.8 0 2.2 1.7 3.3 5 3.3 1.9 0 4.8-.4 7-.9.3-.1.4-.1.6-.1.8 0 1.6.8 1.6 1.5 0 .6-.3.8-1.3 1-1 .2-4 .4-5.8.4-2.2 0-3.8-.2-5.1-.7-2-.8-3.3-2.5-3.3-4.5 0-1.7 1-3.4 2.9-5 .9-.8 1.9-1.4 3.7-2.4h-.1c-.5 0-.8-.1-1.3-.5-.7-.6-1-1.7-1.1-5.9-.1-2.6-.1-3-.4-3.5-.4-.6-.9-.9-2.2-1.1.6-.4.9-.5 1.5-.5zm10.7 1.5c1.1.6 1.9 1.2 2.7 1.9 1.1 1 1.5 1.7 1.5 2.4s-.4 1.3-.9 1.3c-.4 0-.4 0-1.3-2-.5-1.1-1.5-2.4-2.3-3.2l.3-.4zm3.1-1.7c1.1.5 1.9 1 2.8 1.7 1.2.9 1.6 1.5 1.6 2.3 0 .7-.3 1.2-.7 1.2-.3 0-.4-.2-.7-.6-1-1.9-1.6-2.7-3.3-4.3l.3-.3zM123.5 5.6c.5-.7.7-.9 1.2-1.6.9.7 1.2.9 2 1.6.2.2.3.3.3.4 0 .2-.3.5-1.1.9-.4 8.5-.4 8.8-.8 11.8-.5 4.2-1.1 6.7-2.1 7.8-.7.8-1.6 1.2-4 1.5-.2-.9-.5-1.2-1-1.5-.3-.1-1-.3-1.9-.4l-1.2-.2c-.4-.1-.8-.1-1.2-.2v-.5c2.6.2 5.5.3 6.3.3 1 0 1.4-.3 1.8-1.2 1-2.3 1.7-8.9 1.9-18h-16.6c-2.3 3.6-4 5.6-6.7 7.9l-.4-.3c2.4-2.8 4.2-5.5 5.8-8.9.7-1.5 1.1-2.6 1.6-4.4 2.8.6 3.4.8 3.4 1.1 0 .3-.3.4-1.6.7-.7 1.5-1 2.1-1.7 3.2h16zm-8 4.8c.4-.5.6-.7 1-1.3.7.5 1 .7 1.6 1.3.2.2.3.3.3.4 0 .2-.2.4-.8.8v1.6c0 1.2.1 7.7.1 8.9 0 .2-.1.3-.3.4-.2.1-.9.2-1.2.2-.4 0-.5-.1-.6-.4v-1.1h-7.9v2.1c0 .5-.3.6-1.4.6-.5 0-.6-.1-.7-.4.1-2.6.1-5.6.1-10.3 0-.9 0-2.3-.1-4 1.1.5 1.4.7 2.3 1.3h7.6zm.2 4.9v-4.1h-7.9v4.1h7.9zm-7.9.6v4.6h7.9v-4.6h-7.9zm5.9 42.4c3.2-1 5.3-2.2 7-4.2 1.8-2 2.7-4.5 2.7-7.2 0-2.9-1.2-5.2-3.4-6.6-1.3-.9-3.3-1.4-5.2-1.4-.4 0-.6 0-1 .1.7 1.1.9 1.6.9 2.5 0 2.3-1.7 6.7-4 10.4-1.9 3-3.4 4.5-4.5 4.5-.5 0-1-.2-1.3-.6-.3-.4-.3-.5-.8-1.9-.3-.8-.4-1.1-1.3-2.8-.5-1-.7-1.8-.7-2.7 0-1.9 1-4.1 2.7-5.9 2.4-2.6 6.4-4.2 10.3-4.2 3 0 5.8 1 7.7 2.8 1.9 1.8 2.9 4.1 2.9 7.1 0 3.8-2.2 7.1-6 9.1-1.7.9-3.3 1.4-5.8 1.9l-.2-.9zm-9.8-9.4c0 1.4.5 2.9 1.2 4 .4.5.8.9 1.1.9.7 0 2.1-1.6 3.6-4 2.2-3.5 3.8-7.4 3.8-9.3 0-.5-.1-.8-.4-1.5-5.3 1-9.3 5.3-9.3 9.9zm2.8 27.5c.6-.8.8-1.1 1.4-1.8 1.1 1.1 1.1 1.1 2.2 2 .1.1.2.2.2.3 0 .1-.1.2-.3.2h-4.3v9.6c1.4-.5 2.2-.8 4.5-1.7l.2.4c-1.6 1.1-2.2 1.4-4.2 2.5-2.4 1.2-2.5 1.3-4.3 2.3-.1.3-.1.5-.1.7-.1.5-.2.7-.4.7-.3 0-.3 0-1.2-3.2 1-.2 1-.2 3.6-1.1V77.1h-1.7c-.7 0-1.3.1-1.9.2l-.2-1.1c.6.2 1.3.2 2.1.2h1.7v-4.9c0-.9 0-1.3-.2-3.9 2.9.3 3.4.5 3.4.8 0 .2-.3.4-1.3.6v7.4h.8zm10.2-.3c0-7.2 0-7.2-.2-9 2.8.4 2.8.4 3.1.6.1 0 .2.2.2.2 0 .2-.1.3-1.3.7v6.8l4.2-1.6c.3-.7.5-.9.8-1.6 1 .5 1.3.7 2.2 1.2.3.2.3.3.3.4 0 .2-.4.5-1 1-.2 5.4-.4 7.9-.7 9.6-.2.8-.5 1.4-1.1 1.7-.4.3-.9.4-1.9.6-.1-1.3-.6-1.7-2.4-2v-.5c1.1.1 1.9.2 2.5.2.9 0 1-.2 1.2-1.9.3-2.2.4-4.2.4-8.1l-4.6 1.7v5.1c0 2.8 0 3.9.1 6.9 0 .4-.4.5-1.5.5-.4 0-.6-.1-.6-.4.1-5.6.1-6.7.1-9.1v-2.4l-3.7 1.4v12.2c0 .4 0 .5.2.6.3.1 1.7.2 4.1.2 1.7 0 4.9-.1 5.5-.1 1.1-.1 1.2-.1 1.6-.9.5-1.1 1.2-3.3 1.9-5.9l.5.1-.5 5.3-.1.5c0 .3.1.3.7.6.2.1.4.3.4.6 0 .6-.7 1.1-1.8 1.3-.9.1-.9.1-4.9.2h-3.8c-5.1 0-5.6-.2-5.7-2l.1-6.7v-5.5l-1.1.4c-.8.3-1.2.5-1.8.9l-.6-.9c.8-.2 1-.2 2.2-.7l1.3-.5v-3.9c0-1.7 0-2.3-.1-3.8 3 .4 3.2.5 3.2.8 0 .2-.3.4-1.2.7v5.5l3.8-1zm5.2 27.4c.7-.9 1-1.1 1.6-2l2.8 2.1c.2.1.2.2.2.3 0 .1-.2.2-.4.2h-7.8c2.6 1 2.7 1.1 2.7 1.4 0 .2 0 .2-1.4.5-.7.8-1.7 1.8-3 3h5.7c.8-1 1.1-1.3 1.9-2.2 1.3 1 1.6 1.3 2.8 2.4.1.1.1.2.1.3 0 .1-.2.3-.4.3h-22.4c-.1 5.3-.3 7.4-.9 9.5-.7 2.9-2.1 5.5-4 7.7l-.4-.3c.9-1.5 1.3-2.4 1.9-4.3.9-3.2 1.2-6.2 1.2-12.4 0-1.1 0-1.5-.1-2.6 1.2.7 1.5.9 2.5 1.6h5.5c-.2-.1-.3-.2-.4-.5-.5-1.7-1.2-2.9-2.3-4.1l.3-.2c2.3 1.1 3.6 2.2 3.6 3 0 .3-.1.7-.4 1.2-.2.4-.3.5-.6.6h5.5c.9-1.3 1.6-3 2.2-4.9H105c-.7 0-1.7.1-2.7.2l-.3-1.2c1.3.2 2.2.3 3 .3h8v-1.5c0-.8 0-1.3-.1-2.3 3.3.3 3.4.4 3.4.7 0 .3-.3.5-1.2.8v2.3h7zm-7.7 11.5v-2.2c0-.8 0-1.2-.1-2.3 2.6.3 3.2.4 3.2.7 0 .2-.2.3-1.2.7v3h4.6l1.6-1.9c1.2.8 1.6 1.1 2.7 2 .1.1.2.2.2.3 0 .1-.2.2-.4.2h-8.7v4.1h4c.7-.9.9-1.2 1.6-2 1.1.9 1.5 1.2 2.7 2.3.1.1.1.2.1.2 0 .1-.1.2-.3.2h-8.2v4.9h6.2c.9-1 1.2-1.3 2-2.2 1.3 1 1.7 1.3 3.1 2.4.1.1.1.2.1.3 0 .1-.1.2-.4.2h-21.4c-.4 0-1.1.1-2.1.2l-.2-1.1c.6.1 1.7.3 2.3.3h8.3v-4.9h-4.5c-.5 0-1.3.1-2.3.2l-.3-1.2c.6.2 2 .3 2.6.3h4.5v-4.1h-5.6c-1.4 2.1-2.3 3.2-3.9 4.5l-.3-.2c1.6-2.3 2.3-3.6 3.1-5.7.7-1.7.9-2.3 1.1-3.4.6.2 1.1.4 1.4.5 1.1.3 1.4.5 1.4.8 0 .2-.1.3-1.3.5-.5 1-.7 1.4-1.3 2.3h5.7zm-1.2 35.3c.7 1.6 1.9 2.8 3.7 4.1 2.8-2.1 4.5-3.7 5.4-5.2 1.9 1 2.6 1.5 2.6 1.8 0 .2-.2.3-.6.3-.1 0-.4 0-.8-.1-2.8 2-3.1 2.1-6.1 3.5 2.6 1.7 5.6 2.6 10 3v.3c-1.5.4-1.8.8-2.1 2.2-2.4-.7-3.9-1.3-5.9-2.4-2.7-1.5-4.9-3.7-6.1-6-.2-.5-.3-.7-.7-1.6h-4.2v6.3c3.1-.5 4.3-.8 6.7-1.4l.1.3c-2.9 1.4-5 2.2-11 4.1-.1.8-.2 1.1-.5 1.1-.1 0-.3-.1-.4-.3-.1-.2-.2-.6-.4-1.2-.3-.9-.5-1.5-.5-1.7 1.3-.2 2.1-.2 3.9-.5v-14.8c-2.3 1.6-3.8 2.5-6.2 3.6l-.2-.5c5.4-3.4 10.7-8.6 12.7-12.6.7.2 1.2.3 1.5.4 1.4.3 1.7.4 1.7.8 0 .3-.2.3-1.2.4 1 1.5 1.9 2.4 3.6 3.8 3.3 2.5 6.3 3.9 9.9 4.5v.4c-1 .2-1.5.6-2 2-2.2-1-3.1-1.5-4.6-2.5l-.2.1.1 7.7c0 .3-.1.4-.2.5-.2.1-1.2.4-1.5.4-.1 0-.2-.1-.3-.4v-.4h-6.2zm6-8.4c.4-.3.5-.5.7-.7-1-.8-1.8-1.6-2.8-2.7-1.4-1.5-2-2.4-2.9-3.9-2.4 3.1-4.1 4.8-6.7 6.7.3.2.4.3.7.5h4.5v-1.5c0-.5-.1-1.1-.2-2.1 2 .1 2.5.2 2.9.4.2.1.3.2.3.3 0 .2-.3.4-1 .7v2.2h4.5zm.2 3.6v-2.9h-10.9v2.9h10.9zm-11 4.2h10.9v-3.5h-10.9v3.5zm0 23c.6-.8.8-1 1.4-1.8 1 .9 1.3 1.1 2.2 2 .1.1.1.2.1.3 0 .1-.1.2-.3.2h-4v2.7c1.6.7 2.4 1.2 3.4 1.8.8.5 1.1.9 1.1 1.5 0 1-.3 1.8-.7 1.8-.2 0-.4-.1-.8-.9-.8-1.3-1.8-2.5-2.9-3.6v6.8c0 4.7 0 5.2.1 9.2 0 .2-.1.4-.2.4-.1.1-1 .2-1.6.2-.2 0-.3-.1-.3-.3v-.1c0-1.4.1-2.6.1-3.3.1-2.9.1-2.9.1-7.8l.2-5.3c-2 5-3.1 6.8-6.2 10.3l-.3-.3c1.5-2.4 2.4-4 3.6-6.8 1.1-2.5 1.4-3.5 2.2-6.3h-3c-.4 0-.9 0-1.6.2l-.2-1.1c.7.2 1.1.2 1.7.2h3.4v-3.8c0-.8 0-1.5-.1-3 .6.1 1.1.2 1.4.2 1.9.2 2.2.3 2.2.6s-.2.4-1.6.8v5.2h.6zm14.1 11.6c0 1.4.1 2.5.1 3.3 0 1.2 0 1.2.1 2.3 0 1-.1 1.4-.4 1.9-.5.6-1.3 1-3 1.3-.2-.7-.3-1-.7-1.2-.3-.1-1-.4-1.7-.5 0 0-.4-.1-1.3-.2l-1.4-.2v-.5c2.5.1 2.9.1 6 .2.4 0 .5-.1.5-.5l-.1-11.6v-2.9c-1.6 2.9-2.7 4.5-4.9 6.9-2.2 2.3-3.6 3.5-6.1 5.3l-.3-.4c3.4-3.1 4.9-4.8 7.2-8.2 1.5-2.2 2.1-3.5 3.2-5.8h-5c-.4 0-1.1.1-1.7.2l-.2-1.1c.7.2 1.2.2 1.9.2h5.7V169c0-1.4 0-1.8-.2-2.9.6.1 1 .1 1.3.1 1.7.2 2.3.3 2.3.6s-.3.5-1.5.8l.1 5.1h1.3c.7-.9.9-1.2 1.6-2.1 1.2 1 1.6 1.3 2.7 2.3.1.1.1.2.1.2 0 .1-.1.2-.3.2h-5.4l.1 11zm-18.9 19.9c1.4 1.1 2.1 1.4 3.7 1.4 1 0 1.8-.1 3.2-.4.7-1.3 1-2.4 1-3.1 0-.8-.6-1.3-2.1-1.7.5-.3.8-.3 1.3-.3.7 0 1.6.2 2.3.5.7.3 1.1.6 1.1 1 0 .2-.1.4-.5.9-.3.4-.6.9-.9 1.2-.5.9-.5.9-.7 1.2 2.5-.7 3.3-1.1 4.3-1.9.2-.1.4-.2.6-.2 1.2 0 2 .4 2 1 0 .4-.4.7-1.3 1-2.7.9-4.1 1.2-6.5 1.7-.5.7-.9 1.3-1.6 2.3-.8 1.3-1 1.6-1.6 2.4 1.7-.9 2.7-1.2 3.9-1.2 1.8 0 3.1 1.2 3.4 3 .5-.2.5-.2 2.9-1.5 3-1.5 3.7-2 3.7-2.5s-.5-1.1-1.4-1.4c.3-.1.5-.2.7-.2 1.3 0 3.4 1.8 3.4 3 0 .5-.2.8-1.1.9-1.8.4-5.7 1.9-8 3.1v2.4c0 1.4-.1 2.3-.2 2.6-.1.3-.5.6-.8.6-.6 0-1-.4-1-.9v-.5c.1-.9.2-1.9.2-3.2-1.9 1-2.7 1.6-3.5 2.4-1 1-1.5 1.9-1.5 2.8 0 1.6 1.6 2.4 5 2.4 2.1 0 4.2-.3 6-.8.2-.1.4-.1.6-.1.9 0 2.1.8 2.1 1.5 0 .4-.3.7-.9.8-1.2.2-3.5.4-5.4.4-2.8 0-4.9-.3-6.1-.9-1.5-.7-2.2-1.7-2.2-3.2 0-1.4.7-2.7 2.2-4.1.8-.8 1.7-1.4 3.7-2.7 0-1.3-.1-1.7-.4-2.4-.3-.5-.9-.9-1.5-.9-2 0-4.3 1.6-6.5 4.4-.6.8-.8 1-1.1 1-.5 0-.8-.6-.8-1.6 0-.6 0-.7.9-1.4 2.1-1.7 3.4-3.2 5.6-6.5-1 .1-1.4.2-2 .2-2 0-3.1-.5-4.5-2.3l.3-.2zm-3.9 42.1c1.6-2.3 2.8-4.6 4-7.6 1.2-3.1 1.8-5.1 1.9-7.1 3.1.7 3.6.9 3.6 1.2 0 .3-.4.5-1.3.6-1.3 3.4-2.2 5.2-3.7 7.7 1.7.2 2.2.3 2.2.6 0 .2-.3.4-.9.6v11.2c0 .9 0 .9.1 5 0 .4-.4.5-1.4.5-.7 0-.7 0-.7-.5.1-4.4.1-6.3.1-8.3v-8c-1.5 2.2-1.9 2.8-3.4 4.3l-.5-.2zm12.5 2.3v.1c0 .8.8 1.8 2.3 3.2.7-1.4 1.1-2.9 1.3-4.9h-5v.8c0 .4-.3.5-1.5.5-.4 0-.5-.1-.5-.4.1-1.7.1-3.3.1-6.2 0-1.2 0-1.6-.1-2.8 1 .5 1.3.7 2.4 1.4h4.8v-3.4h-4.4c-1.8 0-2.5 0-3.6.2l-.2-1.2c1.3.2 2.3.3 3.8.3h4.4v-1.4c0-1.2 0-1.7-.1-2.9 2.7.4 2.8.4 3.2.5.1.1.2.2.2.3 0 .2-.4.4-1.1.7-.1 1.4-.1 1.7-.1 2.8h5.3c.6-.7 1.1-1.4 1.6-2 1.3.9 1.6 1.1 2.8 2.1.1.2.2.3.2.4 0 .1-.1.2-.4.2H118l-.1 3.4h4.9c.4-.5.7-.9 1-1.4.9.6 1.1.8 1.9 1.4.3.2.4.3.4.4 0 .2-.2.5-1 .9 0 4.1 0 4.1.1 7 0 .5-.3.6-1.5.6-.5 0-.6-.1-.6-.4V247h-5.3c-.4 2.6-.9 4.1-2 5.9 3.1 2.1 6.6 3 11.8 3v.3c-1.2.5-1.6.9-2.1 2.4-2.5-.3-4.4-.9-6.6-2.1-1.4-.8-2.6-1.6-3.8-2.6-2.1 2.3-4.2 3.5-8.5 5l-.2-.4c3.9-2 6-3.5 7.5-5.7-.8-.9-1-1.2-2.2-3-.3-.4-.4-.5-.6-.7l1.1-.5zm-1.4-7.6v5.3h5c.1-2 .1-2.5.2-5.3h-5.2zm7.3 0c-.1 3.7-.1 3.7-.2 5.3h5.2V241h-5zm-3.9 44.2c3.7-.8 6.2-1.8 8.3-3.6 1.6-1.4 2.5-3.1 2.5-4.9 0-2.6-1.8-4.4-4.5-4.4-2.9 0-6.8 1.6-10 4.1-.6.4-.8.6-1.2.6-1.1 0-2.9-2.2-2.9-3.5 0-.2.1-.3.2-.6.5 1.1 1.1 1.7 1.9 1.7.4 0 1.1-.2 2.6-.8 2.7-1.1 5.1-1.9 6.8-2.2.7-.1 1.4-.2 2.3-.2 3.9 0 6.7 2.4 6.7 5.8 0 2.1-1.3 4.3-3.2 5.6-2.4 1.7-5 2.5-9.5 3v-.6zm-12 20.3c1.2 1.3 2 1.7 3.3 1.7 1.2 0 2.4-.2 3.8-.6.6-2 1-4.1 1-5.1 0-.9-.5-1.3-2.1-1.9.4-.2.5-.3.9-.3.7 0 1.7.2 2.6.6.9.3 1.3.8 1.3 1.2 0 .2 0 .2-.4.7-.4.6-1.1 2.2-1.8 4.3 1.7-.6 2.8-1.2 3.5-1.8.5-.4.6-.5.8-.5.4 0 1.1.2 1.6.3.3.1.5.3.5.5 0 .5-.5.9-1.7 1.5-1.3.6-3.4 1.3-5.2 1.7-.4 1-.4 1-1.3 3.8-.6 1.8-.6 1.8-2.2 6.7-1.2 3.6-1.6 4.3-2.2 4.3-.3 0-.5-.2-.7-.6-.2-.5-.4-1.2-.4-1.7s0-.6.7-1.5c1.5-2.2 2.7-4.8 4.7-10.7-1.1.2-2 .3-2.9.3-1.8 0-3-.8-4.1-2.7l.3-.2zm11.9 10.3v.9c0 1.7.8 3 2.3 3.6.8.4 2 .6 3.2.6 1.2 0 1.9-.1 2.9-.4.2-.1.4-.1.5-.1.3 0 1 .3 1.5.7.4.3.5.6.5.8 0 .7-1.2 1-3.5 1s-4.2-.3-5.5-1c-1.6-.8-2.6-2.3-2.6-4.4 0-.7.1-1.2.3-1.9l.4.2zm.8-5.5c2.2-1.3 4.6-2 7-2 .6 0 1.4.2 1.9.5.3.2.5.5.5.8 0 .5-.3.7-1.1.7-1.1.1-1.5.2-2.3.6-.6.3-.6.3-1.6 1-.6.4-.6.4-1 .6l-.2-.3 1.4-1.4c.3-.2.5-.5 1.5-1.4-2 0-3.6.3-5.7 1.1l-.4-.2zm-58.5-294c-.1.7-.1.9-.1 1.4 0 3.6 2.2 5.3 7.1 5.3 2.4 0 4.9-.4 6.6-1.1.2-.1.4-.1.5-.1.4 0 1.1.3 1.6.6.4.3.7.7.7 1.1 0 .5-.3.8-1 .9-1.4.4-4.3.6-7 .6-3.4 0-5.5-.4-7-1.4-1.5-1-2.5-2.9-2.5-4.7 0-.7.1-1.5.5-2.5l.6-.1zm.9-11.9c1.5 1 2.6 1.3 4.6 1.3 2 0 4.5-.4 6.2-.9.2-.1.5-.1.5-.1.8 0 1.8.9 1.8 1.6 0 .5-.2.6-2.2 1.1-1.2.2-1.4.4-4.4 1.5-.7.3-.7.3-2.5 1-.6.2-.6.3-1.2.5l-.2-.4c1.1-.7 1.6-1 2.4-1.4 2-1.1 2-1.1 2.5-1.4-.7.1-1.7.1-2.2.1-1.1 0-2.5-.3-3.4-.8-.8-.5-1.3-.9-2.2-1.8l.3-.3zm-5.4 37.3c1.2 1.3 2 1.7 3.3 1.7 1.2 0 2.4-.2 3.8-.6.6-2 1-4.1 1-5.1 0-.9-.4-1.3-2.1-1.9.4-.2.5-.3.9-.3.7 0 1.7.2 2.6.6.9.3 1.3.8 1.3 1.2 0 .2 0 .2-.4.7-.4.6-1.1 2.3-1.8 4.3 1.5-.5 2.8-1.2 3.5-1.8.5-.4.6-.5.8-.5.4 0 1.1.2 1.6.3.3.1.5.3.5.5 0 .5-.5.9-1.7 1.4-1.3.6-3.4 1.3-5.2 1.8-.2.6-.4 1.1-.4 1.1-1 3-2 6.1-3.1 9.4-1.2 3.6-1.6 4.3-2.2 4.3-.3 0-.5-.2-.7-.6-.2-.5-.4-1.2-.4-1.7s0-.6.7-1.5c1.4-2 2.8-5.1 4.7-10.7-1.1.2-2 .3-2.9.3-1.8 0-3-.8-4.1-2.7l.3-.2zm12 10.4v.9c0 1.7.8 3 2.3 3.6.8.4 2 .6 3.2.6 1.2 0 1.9-.1 2.9-.4.2-.1.4-.1.5-.1.3 0 1 .3 1.5.7.4.3.5.6.5.8 0 .7-1.2 1-3.5 1s-4.2-.3-5.5-1c-1.6-.8-2.5-2.3-2.5-4.4 0-.7.1-1.2.3-1.9l.3.2zm.8-5.6c2.2-1.3 4.6-2 7-2 .6 0 1.4.2 1.9.5.3.2.5.5.5.8 0 .5-.3.7-1.1.7-1.1 0-1.4.1-2.3.6-.4.2-.8.4-1 .6l-1.1.7c-.1.1-.3.2-.6.4l-.2-.3.5-.5 1-.9c.2-.2.7-.6 1.5-1.4h-.2c-1.6 0-3.7.4-5.5 1.1l-.4-.3zm5.2-10.8c1.1.6 1.9 1.2 2.7 1.9 1.1 1 1.5 1.7 1.5 2.4s-.4 1.3-.9 1.3c-.4 0-.4 0-1.3-2-.5-1.1-1.5-2.4-2.3-3.2l.3-.4zM73 34c1.1.5 2 1 2.9 1.7 1.1.9 1.5 1.5 1.5 2.3 0 .7-.3 1.2-.7 1.2-.3 0-.5-.2-.7-.6-1.1-1.9-1.6-2.7-3.3-4.3l.3-.3zm-8 57.1c5.4-1.9 8.3-5.1 8.3-9.1 0-2.9-1.9-5-4.6-5-2.7 0-6.1 1.6-9.3 4.2 0 2.4.2 5.7.3 6.9.3.8.3.9.3 1.2 0 1-.2 2-.6 2.8-.2.4-.4.6-.7.6-.2 0-.5-.1-.6-.4 0-.1 0-.1-.3-.8-.3-.8-.4-1.1-1-1.8-.8-1-1.3-1.5-2.3-2.3-.1.3-.2.5-.3.6-.4.8-.6 1.1-.9 1.1-.4 0-.9-1.1-.9-2.1 0-.4.1-.6.6-1.1.5-.5.8-.9 1.3-1.5.9-1.1 3.7-5.1 4.4-6.3.1-1.1.1-1.8.1-2.2-1.3.8-1.3.8-2.9 1.9-.6.4-.9.6-1.2.6-.5 0-1.1-.4-1.6-1s-.7-1.3-.7-1.7c0-.1.1-.3.1-.5.5 1 1.1 1.4 1.8 1.4.6 0 2.8-.9 4.6-1.9.1-.6.1-2.3.1-3 0-1.9-.2-2.3-1.8-3.5.2-.1.3-.2.4-.2.6 0 1.6.5 2.5 1.1.7.5 1.1 1 1.1 1.4 0 .2 0 .2-.4 1.2-.3.8-.5 1.5-.6 2.5.7.6 1.1 1.1 1.1 1.4 0 .2 0 .2-.5.8-.3.4-.6.9-1.1 2-.1.4-.1.5-.1 1 1.7-1 2.2-1.2 3.1-1.6 2.1-1.1 4.2-1.6 6.1-1.6 3.9 0 6.8 2.6 6.8 6.2 0 3-1.7 5.5-4.9 7.3-1.7.9-3.3 1.4-5.5 1.8l-.2-.4zm-8.6-7.2c-1.5 2.5-1.5 2.5-1.7 2.9 1.3 1 1.4 1 3.6 2.4 0-1.9.1-6.4.2-8.9-1.8 3.1-1.8 3.2-2.1 3.6zm4.3 43c2.1-1.3 3.4-2.5 4.8-4.2 2.1-2.8 3.1-6.2 3.1-10.1 0-2.6-.5-5.1-1.1-6.2-.5-.9-1.3-1.3-2.1-1.3-1.5 0-2.9 1.3-4 3.8-.9 2-1.4 4.4-1.4 6.5 0 .5 0 .8.1 1.9v.6c0 .6-.3.9-.8.9-1.1 0-1.9-2.4-1.9-6.2 0-2.5.2-4.1 1-8 .2-1.2.3-1.8.3-2.2 0-1-.4-1.5-1.6-2.1.2-.1.4-.2.5-.2.6 0 1.6.4 2.4 1 .8.6 1.2 1.1 1.2 1.7 0 .4-.1.6-.4 1.1-1.1 1.9-2.2 6.2-2.2 8.9v1.1h.1c.9-3.8 2-6.3 3.5-7.9 1.1-1.2 2.3-1.8 3.7-1.8 2.9 0 4.9 3.5 4.9 8.6 0 3.9-1.1 7.1-3.3 9.8-1.8 2.2-3.8 3.6-6.6 4.7l-.2-.4zm3 30.4c3.2-1 5.3-2.2 7-4.2 1.8-2 2.7-4.5 2.7-7.2 0-2.9-1.2-5.2-3.4-6.6-1.3-.9-3.3-1.4-5.2-1.4-.4 0-.6 0-1 .1.7 1.1.9 1.6.9 2.5 0 2.3-1.7 6.7-4 10.4-1.9 3-3.4 4.5-4.5 4.5-.5 0-1-.2-1.3-.6-.3-.4-.3-.5-.8-1.9-.3-.8-.4-1.1-1.3-2.8-.5-1-.7-1.8-.7-2.7 0-1.9 1-4.1 2.7-5.9 2.4-2.6 6.4-4.2 10.3-4.2 3 0 5.8 1 7.7 2.8 1.9 1.8 2.9 4.1 2.9 7.1 0 3.8-2.2 7.1-6 9.1-1.7.9-3.3 1.4-5.8 1.9l-.2-.9zm-9.8-9.3c0 1.4.5 2.9 1.2 4 .4.5.8.9 1.1.9.7 0 2.1-1.6 3.6-4 2.2-3.5 3.8-7.4 3.8-9.3 0-.5-.1-.8-.4-1.5-5.3.9-9.3 5.3-9.3 9.9zm3.9 31c1.2.5 1.7.8 2.5 1.3.7.4 1.2.8 1.4 1.1.2.2.2.4.2.9 0 .9-.4 1.7-.7 1.7-.2 0-.4-.2-.6-.6-.8-1.8-1.6-2.9-2.8-3.9 0 .8.1 5.2.1 13.3-.1.2-.1.3-.4.4-.4.1-.9.2-1.2.2-.4 0-.6-.1-.6-.5.2-2.5.2-2.5.2-7.9l.2-5.6c-1.1 2.7-1.8 4-3 6.1-1 1.6-1.5 2.3-2.7 3.6l-.3-.2c1.7-2.8 2.4-4.1 3.6-7.2.8-2 1.1-2.8 1.5-4.5H52c-.3 0-.9.1-1.3.2l-.1-1.1c.4.2 1.1.3 1.4.3h4v-6.5c0-1.2-.1-2.1-.3-4 2.9.3 3.4.4 3.4.7 0 .3-.3.5-1.3.7v9.1h1.8c.5-.8.7-1.1 1.3-1.8 1 .8 1.3 1.1 2.2 2 .1.1.1.2.1.2 0 .1-.1.2-.4.2h-5v1.8zm-6.4-10.6c.8.8 1.2 1.4 2.1 2.8.6.9.8 1.4.8 1.9 0 .9-.6 1.9-1.1 1.9-.2 0-.3-.1-.4-.4 0-.1 0-.1-.3-1.6-.2-1.2-.7-3-1.3-4.4l.2-.2zm7.3 6.5c.7-1.8.9-2.3 1.3-4.1.4-1.7.5-1.9.6-2.7 2.2.6 2.8.8 2.8 1.1 0 .2-.3.3-1 .4-.5 1-.6 1.3-1.6 2.9-.8 1.3-1.1 1.7-1.8 2.5l-.3-.1zm15.8 8.1c.6-1 .7-1.3 1.3-2.3 1.2.6 1.6.8 2.6 1.5.3.2.5.4.5.5 0 .1-.1.3-.3.3l-4.8.9v2.9c0 .8 0 2.1.1 3.8v2.1c0 .2-.1.3-.2.4-.1.1-.9.2-1.5.2-.4 0-.5-.1-.5-.4v-8.6l-8.4 1.6c-.4.1-1.1.3-1.5.5l-.4-1.1h.3c.3 0 1.1-.1 1.4-.1l8.5-1.7v-6.3c0-6.2-.1-9.6-.2-11.3 2.7.3 3.5.5 3.5.8 0 .3-.3.4-1.3.7v5.9c0 1.8 0 6.5.1 9.8l.8-.1zm-10.8-6.5c2.3.8 3.9 1.6 4.6 2.2.4.3.5.6.5 1.3 0 .9-.3 1.7-.7 1.7-.3 0-.5-.2-.9-.9-.8-1.3-1.7-2.3-3.6-4.1l.1-.2zm1-7.6c1.9.8 2.8 1.3 3.7 1.9.8.6 1 1 1 2.1 0 1-.3 1.6-.7 1.6-.3 0-.4-.1-.9-1.1-.8-1.5-1.5-2.4-3.3-4.2l.2-.3zm-8.4 40.8h.6c.6-.7.8-1 1.4-1.7.9.8 1.2 1.1 2 2 .1.1.1.1.1.2s-.1.2-.3.2h-3.8v7.4c2.1-1 2.9-1.4 4.6-2.3l.2.4c-2.5 2-5.9 4.2-9 5.9-.1 1-.2 1.3-.4 1.3-.3 0-.6-.6-1.6-2.9 1.5-.5 2.5-.8 4.1-1.5v-8.3h-1.8c-.5 0-.9 0-1.8.1l-.2-1.1c.7.2 1.5.2 2 .2h1.7v-7.4h-1.7c-.8 0-1.2 0-2 .2l-.2-1.1c.8.2 1.2.2 2.2.2h4.2c.7-.7.8-1 1.5-1.7 1 .8 1.2 1.1 2.2 2 .1.1.1.2.1.3 0 .1-.1.2-.3.2H56v7.4zm12.8 8.1H73c.7-.8.9-1.1 1.6-1.8 1.1.9 1.4 1.2 2.5 2.1.1.1.1.1.1.2s-.1.2-.4.2h-7.6v5.5h5c.7-.9 1-1.2 1.7-2 1.1 1 1.5 1.3 2.5 2.3.1.1.1.2.1.2 0 .2-.1.2-.4.2H60.3c-.5 0-1 0-2.4.1l-.2-1.1c.9.2 1.7.3 2.6.3h6.9v-5.5H63c-.5 0-.8 0-2.3.1l-.2-1.1c1 .2 1.2.2 2.5.2h4.3v-4.9H63v1.4c-.1.4-.2.5-.9.5-1 0-1.2-.1-1.2-.5.1-2.7.2-5.2.2-9.5 0-3.3 0-3.8-.2-5.2 1 .6 1.3.8 2.2 1.4h10.4c.5-.6.6-.8 1.2-1.4.8.6 1.1.8 1.8 1.4.2.2.3.3.3.4 0 .1-.1.2-.1.3-.1 0-.4.3-1 .7v3.3c0 3.5 0 5.6.2 8.2 0 .3-.1.4-.3.5-.1.1-1 .2-1.4.2-.3 0-.3-.1-.4-.4v-1.2h-4.7v4.9zm-1.8-16.2H63v5h4.3v-5zm0 5.7H63v4.9h4.3v-4.9zm6.5-.7v-5h-4.7v5h4.7zm-4.7 5.6h4.7v-4.9h-4.7v4.9zm-9.5 21.1c.9 0 2.3.3 3 .6.6.2.8.5.8 1v.1c0 .2 0 .2-.2.8-.4 1-.7 3.6-.7 6.1 0 1.8.2 2.2 1.2 2.2.6 0 1.3-.2 4-1.5.5-.3.9-.4 1.2-.4.7 0 1.4.6 1.4 1.3 0 .4-.2.7-.6.9-.2.1-.6.2-2 .6-3.6 1-5.6 1.9-7.5 3.4-1.6 1.3-2.3 2.4-2.3 3.8 0 2.2 1.7 3.3 5 3.3 1.9 0 4.8-.4 7-.9.3-.1.4-.1.6-.1.8 0 1.6.7 1.6 1.5 0 .5-.3.8-1.3 1-1 .2-4 .4-5.8.4-2.2 0-3.8-.2-5.1-.7-2-.8-3.3-2.5-3.3-4.4 0-1.7 1-3.4 2.9-5 .9-.8 1.9-1.4 3.7-2.4-.7 0-.9-.1-1.4-.4-.4-.3-.7-1-.9-2.3-.1-.7-.1-1.4-.2-3.6-.1-2.6-.1-3-.4-3.5-.3-.6-.9-.9-2.2-1.1.6-.6.9-.7 1.5-.7zm0 33c.9 0 2.3.3 3 .6.6.2.8.5.8 1v.1c0 .2 0 .2-.2.8-.4 1-.7 3.6-.7 6.1 0 1.8.2 2.2 1.2 2.2.6 0 1.3-.2 4-1.5.5-.3.9-.4 1.2-.4.7 0 1.4.6 1.4 1.3 0 .4-.2.7-.6.9-.2.1-.6.2-2 .6-3.6 1-5.6 1.9-7.5 3.4-1.6 1.3-2.3 2.4-2.3 3.8 0 2.2 1.7 3.3 5 3.3 1.9 0 4.8-.4 7-.9.3-.1.4-.1.6-.1.8 0 1.6.7 1.6 1.5 0 .5-.3.8-1.3 1-1 .2-4 .4-5.8.4-2.2 0-3.8-.2-5.1-.7-2-.8-3.3-2.5-3.3-4.4 0-1.7 1-3.4 2.9-5 .9-.8 1.9-1.4 3.7-2.4-.7 0-.9-.1-1.4-.4-.4-.3-.7-1-.9-2.3-.1-.7-.1-1.4-.2-3.6-.1-2.6-.1-3-.4-3.5-.3-.6-.9-.9-2.2-1.1.6-.6.9-.7 1.5-.7zm-4.2 36.9c.7 1.1 1.2 1.6 2.1 2.2 1 .7 1.9 1 3.5 1.3.8-4.2.9-4.6.9-5.3 0-1-.4-1.7-1.6-2.5.2-.1.3-.1.5-.1.5 0 1.3.3 2.2.9 1 .7 1.6 1.5 1.6 2.2 0 .3-.1.5-.4.9-.5.7-.8 1.5-1.6 4.2.6.2.9.3 1.2.7.2.3.4.7.4 1 0 .4-.4.6-1 .6-.3 0-.7-.1-1.2-.2-.6 2-1 3.8-1.2 5.6.7.1 1.2.2 1.5.2h.5c.8 0 1.8.9 1.8 1.6 0 .4-.4.7-1 .7-.8 0-2.1-.2-3.2-.5-.1.7-.1 1.1-.1 1.5 0 3.1 1.7 4.8 4.7 4.8 2 0 3.8-.8 4.7-2 .7-.9 1-1.9 1-3.1 0-2.5-1.7-5.3-4.5-7.5l.3-.4c4.4 2.7 6.3 5.2 6.3 8.3 0 3.6-3.1 6.4-7.3 6.4-1.6 0-3.1-.4-4.1-1.2-1.6-1.2-2.3-3-2.3-5.6 0-.4 0-.8.1-1.5-1.2-.5-1.8-.9-2.4-1.5-.8-.8-1.3-2-1.3-3 0-.7.3-1.4.9-2.1.7-.7 1.5-1.1 2.9-1.6-1.2-.4-2-1-2.9-1.9-.6-.7-1-1.3-1.6-2.6l.6-.5zm1.8 6.7c-.4.5-.7.9-.7 1.5 0 1.3 1 2.2 3.1 2.8.1-1.5.4-3.2.9-5.5-1.7.1-2.6.4-3.3 1.2zm1.3 35.1c-.1.3-.5 2.2-1.3 5.6-.4 1.8-.5 2.3-.5 3.2 0 .9 0 1.1-.1 1.3-.1.3-.4.5-.7.5-.5 0-1-.4-1.3-1.2-.7-1.6-1-4-1-6.4 0-.9.1-2 .2-3.2.2-1.7.2-1.7 1-5.7.3-1.4.4-2.2.4-2.8 0-1-.2-1.7-.8-2.8.7 0 1.2.4 2 1.5.7.9 1.1 1.7 1.1 2.4 0 .5 0 .6-.6 1.8-.6 1.3-1.3 3.4-1.6 4.8-.3 1.1-.4 2.4-.4 3.7 0 1.7.1 2.7.6 4 .5-1 .7-1.7 1.1-2.6l1.6-4.2.3.1zm3.7 1.5c-.1.6-.1.9-.1 1.3 0 3.3 1.9 4.7 6.5 4.7.9 0 1.7-.1 2.6-.2.6-.1.6-.1 1.6-.5.2-.1.3-.1.4-.1.8 0 1.9 1 1.9 1.8 0 .4-.2.6-.7.8-.6.2-2.1.3-3.7.3-3.7 0-6.4-.6-7.8-1.8-1.1-1-1.6-2.3-1.6-3.9 0-.8.1-1.4.4-2.4h.5zm0-9.5c1.1.6 1.7.8 2.8.8 1.9 0 4.8-.7 6-1.4.4-.2.5-.2.7-.2.2 0 .6.2 1 .4.6.4.9.7.9 1.1 0 .4-.2.6-.8.7-2 .3-3.1.6-4.3 1.1-.9.4-2.7 1.4-3.9 2.1l-.3-.3c1.3-1.1 2.4-2 2.8-2.3-.6 0-1 .1-1.2.1-1.7 0-2.8-.4-4.1-1.7l.4-.4zM.3 8c3.4 1.1 4.6 1.9 4.6 3 0 .9-.5 1.8-.9 1.8-.2 0-.4-.1-.6-.5-.8-1.4-1.8-2.6-3.3-3.9L.3 8zm23.5 1.8c.7-.9 1-1.1 1.7-1.9 1.1.8 1.4 1.1 2.5 2.1.1.1.1.2.1.3 0 .1-.1.2-.3.2h-10v3h6l1.1-1.1c.8.5 1 .7 1.7 1.2.2.2.2.3.2.4 0 .2-.1.3-1 .8v6.4c0 1.1 0 2.4.1 4.6 0 .6-.1.9-.3 1.1-.4.5-1 .7-2.8 1.1-.1-.7-.2-1-.7-1.4-.5-.3-.8-.4-3.4-.8v-.4c3.3.1 3.3.1 4.6.1.5 0 .6-.1.6-.5V14.1h-6.1V22H20v-3.8c0-.8 0-1.2-.1-2 2.7.3 2.9.4 2.9.7 0 .2-.2.3-1.1.6 0 4.7 0 4.7.1 5.9 0 .2-.1.3-.2.3-.2.1-.8.1-1.2.1-.3 0-.4-.1-.4-.3v-.8h-6.1V24c0 .4-.2.5-.9.5h-.5c-.3 0-.5-.1-.5-.3.1-1.4.1-2 .1-3.7 0-2.6 0-3.4-.1-4.4 2.7.3 2.9.3 2.9.6 0 .2-.2.3-1.1.6V22H16v-7.8h-5.7v13.3c0 .5-.3.6-1.6.6-.3 0-.4-.1-.4-.3v-.1c0-1.5.1-9.1.1-12.3 0-1 0-2.1-.1-3.2.9.5 1.3.7 2.3 1.3H16v-3H7.5l-2.8 9.1c-.1.4-.3 1.1-.3 1.4 0 .2 0 .2.4 1.5.3 1.1.5 2 .5 2.7 0 .8-.3 1.5-1 2-.4.3-.8.5-1.2.5-.4 0-.5-.2-.5-.7 0-.1 0-.4.1-1 .1-1.2.2-2.7.2-3.6 0-.9-.2-1.6-.5-1.9-.3-.3-.6-.5-2-1l.1-.4c.2-.1.4-.1.5 0 .6.1 1 .2 1.2.2.4 0 .5-.1.8-.8 1-1.7 3.9-8.6 5-11.7l.5.2-.8 2.8h5V5.9H11c-1.1 0-1.6 0-2.5.2l-.2-1.2c1.1.2 1.9.3 2.9.3h1.5V3.1c0-.2 0-.6-.1-1.2 0-.2 0-.6-.1-1.1.6.1 1 .1 1.3.2 1.8.2 2.2.3 2.2.6 0 .2-.2.3-1.4.7v2.9h4.7V2.9c0-.5 0-.9-.1-2.1.6.1 1 .2 1.3.2 1.6.2 1.9.3 1.9.6 0 .2-.3.4-1.3.6v3h1.7c.7-.8.9-1.1 1.6-1.8 1.1.8 1.4 1.1 2.5 2 .1.2.1.2.1.3 0 .1-.1.2-.3.2h-5.6v3.9h2.7zM2.2 1.5C5.4 2.6 7 3.6 7 4.7c0 .9-.5 1.8-.9 1.8-.2 0-.4-.1-.6-.5-.8-1.5-2-2.8-3.6-4.2l.3-.3zm17.1 4.4h-4.7v3.9h4.7V5.9zM3.1 40c1.3 1.4 2.1 1.7 4 1.7.7 0 1.3-.1 2.1-.2.1-.5.1-.5.4-2.2.2-.9.4-2.1.4-2.5 0-1-.7-1.4-2.2-1.6.5-.4.9-.6 1.5-.6.9 0 2 .3 2.8.7.6.3.9.7.9 1.1 0 .3-.1.4-.4.9-.5.6-1.1 1.9-1.8 4 2.3-.4 4.4-1.2 5.3-2 .2-.2.3-.3.6-.3.4 0 1 .1 1.4.3.5.2.7.4.7.7 0 .5-.5.9-1.7 1.3-1.9.8-4.1 1.2-6.7 1.5-.8 3-1.2 6-1.3 8.3 3.3-1.7 6.5-2.7 9-2.7 3.4 0 5.6 1.7 5.6 4.4 0 2.4-1.7 4.4-4.8 5.7-2.4 1-5.2 1.4-8.8 1.4v-.4c3.1-.5 3.5-.6 4.7-1 4.3-1.3 6.6-3.5 6.6-6.2 0-1.8-1.2-2.9-3.3-2.9-2.1 0-4.4.9-6.7 2.6-.9.7-1.3 1.1-1.7 1.8-.2.2-.4.4-.7.4-.8 0-1.8-1.3-1.8-2.3 0-.5 1-5.8 1.7-8.9H7.6c-2.4 0-3.7-.7-5-2.7l.5-.3zm-.9 34.3c1.2 1.3 2 1.7 3.3 1.7 1.2 0 2.4-.2 3.8-.6.6-2 1-4.1 1-5.1 0-.9-.5-1.3-2.1-1.9.4-.2.5-.3.9-.3.7 0 1.7.2 2.6.6.9.3 1.3.8 1.3 1.2 0 .2 0 .2-.4.7-.4.6-1.1 2.2-1.8 4.3 1.7-.6 2.8-1.2 3.5-1.8.5-.4.6-.5.8-.5.4 0 1.1.2 1.6.3.3.1.5.3.5.5 0 .5-.5.9-1.7 1.5-1.3.6-3.4 1.3-5.2 1.7-.4 1-.4 1-1.3 3.8-.6 1.8-.6 1.8-2.2 6.7-1.2 3.6-1.6 4.3-2.2 4.3-.3 0-.5-.2-.7-.6-.2-.5-.4-1.2-.4-1.7s0-.6.7-1.5c1.5-2.2 2.7-4.8 4.7-10.7-1.1.2-2 .3-2.9.3-1.8 0-3-.8-4.1-2.7l.3-.2zm11.9 10.4v.9c0 1.7.8 3 2.3 3.6.8.4 2 .6 3.2.6 1.2 0 1.9-.1 2.9-.4.2-.1.4-.1.5-.1.3 0 1 .3 1.5.7.4.3.5.6.5.8 0 .7-1.2 1-3.5 1s-4.2-.3-5.5-1c-1.6-.8-2.6-2.3-2.6-4.4 0-.7.1-1.2.3-1.9l.4.2zm.8-5.6c2.2-1.3 4.6-2 7-2 .6 0 1.4.2 1.9.5.3.2.5.5.5.8 0 .5-.3.7-1.1.7-1.1.1-1.5.2-2.3.6-.6.3-.6.3-1.6 1-.6.4-.6.4-1 .6l-.2-.3 1.4-1.4c.3-.2.5-.5 1.5-1.4-2 0-3.6.3-5.7 1.1l-.4-.2zm-4.2 47.8c2.1-1.3 3.4-2.5 4.8-4.2 2.1-2.8 3.1-6.2 3.1-10.1 0-2.6-.5-5.1-1.1-6.2-.5-.9-1.3-1.3-2.1-1.3-1.5 0-2.9 1.3-4 3.8-.9 2-1.4 4.4-1.4 6.5 0 .5 0 .8.1 1.9v.6c0 .6-.3.9-.8.9-1.1 0-1.9-2.4-1.9-6.2 0-2.5.2-4.1 1-8 .2-1.2.3-1.8.3-2.2 0-1-.4-1.5-1.6-2.1.2-.1.4-.2.5-.2.6 0 1.6.4 2.4 1 .8.6 1.2 1.1 1.2 1.7 0 .4-.1.6-.4 1.1-1.1 1.9-2.2 6.2-2.2 8.9v1.1h.1c.9-3.8 2-6.3 3.5-7.9 1.1-1.2 2.3-1.8 3.7-1.8 2.9 0 4.9 3.5 4.9 8.6 0 3.9-1.1 7.1-3.3 9.8-1.8 2.2-3.8 3.6-6.6 4.7l-.2-.4zm-8.5 13.5c1.2 1.3 2 1.7 3.3 1.7 1.2 0 2.4-.2 3.8-.6.6-2 1-4.1 1-5.1 0-.9-.5-1.3-2.1-1.9.4-.2.5-.3.9-.3.7 0 1.7.2 2.6.6.9.3 1.3.8 1.3 1.2 0 .2 0 .2-.4.7-.4.6-1.1 2.2-1.8 4.3 1.7-.6 2.8-1.2 3.5-1.8.5-.4.6-.5.8-.5.4 0 1.1.2 1.6.3.3.1.5.3.5.5 0 .5-.5.9-1.7 1.5-1.3.6-3.4 1.3-5.2 1.7-.4 1-.4 1-1.3 3.8-.6 1.8-.6 1.8-2.2 6.7-1.2 3.6-1.6 4.3-2.2 4.3-.3 0-.5-.2-.7-.6-.2-.5-.4-1.2-.4-1.7s0-.6.7-1.5c1.5-2.2 2.7-4.8 4.7-10.7-1.1.2-2 .3-2.9.3-1.8 0-3-.8-4.1-2.7l.3-.2zm11.9 10.3v.9c0 1.7.8 3 2.3 3.6.8.4 2 .6 3.2.6 1.2 0 1.9-.1 2.9-.4.2-.1.4-.1.5-.1.3 0 1 .3 1.5.7.4.3.5.6.5.8 0 .7-1.2 1-3.5 1s-4.2-.3-5.5-1c-1.6-.8-2.6-2.3-2.6-4.4 0-.7.1-1.2.3-1.9l.4.2zm.8-5.5c2.2-1.3 4.6-2 7-2 .6 0 1.4.2 1.9.5.3.2.5.5.5.8 0 .5-.3.7-1.1.7-1.1.1-1.5.2-2.3.6-.6.3-.6.3-1.6 1-.6.4-.6.4-1 .6l-.2-.3 1.4-1.4c.3-.2.5-.5 1.5-1.4-2 0-3.6.3-5.7 1.1l-.4-.2zM3.5 175v18c0 .4-.3.5-1.6.5-.4 0-.5-.1-.5-.4.1-3.9.2-8.2.2-19.5 0-3.3 0-5.2-.1-7.7 1.1.5 1.4.7 2.4 1.3h5.9c.5-.6.6-.8 1.1-1.4.8.5 1 .7 1.7 1.3.2.2.3.3.3.4 0 .2-.2.4-1 .8v1.5c0 1.1 0 1.9.1 6.4 0 .2-.1.3-.3.4-.1.1-.8.1-1.2.1-.4 0-.5-.1-.5-.4V175H3.5zm6.5-7.2H3.5v2.8H10v-2.8zm0 3.5H3.5v3H10v-3zm7.7 12.4h1.6c.6-.8.8-1 1.4-1.7 1 .9 1.3 1.2 2.3 2.1 0 .1.1.1.1.2s-.1.1-.2.1h-5.2v1.5c0 2.3 0 3.1.1 5.9v.1c0 .3-.4.5-1.5.5-.3 0-.5-.1-.5-.4v-.1c0-.9 0-2.9.1-5.9v-1.7h-4.2c-.3 2.5-.7 3.7-1.8 5.1-1.2 1.5-2.5 2.4-4.7 3.4l-.3-.4c2.1-1.3 3.4-2.6 4.2-4.4.5-1 .6-1.7.8-3.7H7.8c-1 0-1.7.1-2.4.2l-.3-1.1c.8.2 1.5.2 2.7.2h2.1c.1-1.1.1-2 .1-2.9v-1.5H8.3c-1.1 0-1.4 0-2.2.1l-.3-1.1c.8.2 1.4.3 2.5.3h10.1c.6-.8.8-1 1.4-1.7 1 .9 1.4 1.2 2.4 2.1.1.1.1.1.1.2s-.1.2-.2.2h-4.3v4.4zm-5.9-4.4v1.4c0 1.1 0 1.8-.1 3h4.2v-4.4h-4.1zm5.9-4.3v1c0 .2-.1.3-.3.4-.2 0-.8.1-1.2.1-.4 0-.5-.1-.5-.4.1-2.2.1-2.8.1-5.1 0-3.1 0-3.8-.1-5.2 1 .5 1.3.7 2.2 1.3h6c.5-.6.7-.8 1.2-1.5.7.5 1 .7 1.7 1.2.3.2.4.3.4.5s-.1.3-.8.8v14l.1 9c-.1.8-.3 1.1-1 1.6-.6.3-1.2.5-2.5.7-.2-1.4-.6-1.7-3.5-2.1v-.5c3 .1 3 .1 3.6.1h1c.3 0 .3-.1.3-.7V175h-6.7zm6.5-7.2h-6.5v2.8h6.5v-2.8zm0 3.5h-6.5v3h6.5v-3zm-13.8 33.5c.7-.8.9-1.1 1.6-1.9 1.1.9 1.3 1.1 2.2 2.1.1.1.2.2.2.3 0 .1-.1.2-.3.2H6.2c-.1 1.8-.1 3.2-.2 4.3h3.7c.5-.5.6-.7 1.1-1.2.7.5.9.6 1.5 1.1.2.2.3.3.3.4 0 .2-.2.4-.8.8-.3 6-1 11-1.8 12.5-.6 1.1-1.4 1.6-3.4 1.7-.1-1.4-.5-1.7-2.8-2.2l.1-.4c2.2.2 2.2.2 2.8.3.3 0 .5.1.7.1.7 0 .9-.4 1.3-2 .6-2.5 1-6.5 1-10.5H6c-.2 2.7-.4 4.4-.9 6.4-.5 2.3-1.5 4.6-2.7 6.5-.6.8-1 1.4-1.9 2.3l-.5-.3c1.5-2.3 2.3-4.1 3-6.8.9-3.4 1.2-7.2 1.3-13.1H3c-.4 0-1.2.1-2.3.2l-.3-1.1c.7.1 2 .2 2.6.2h2.8v-3.4c0-.9 0-1.4-.1-2.3.6.1 1.1.2 1.4.2 1.6.2 1.8.3 1.8.6 0 .2-.3.5-1.1.7v4.1h2.6zm14.3 1.8c-.4 4.7-1.5 8.2-3.8 11.7 2.2 2.5 4.3 3.8 7.6 5l-.1.4c-1.3.1-1.9.6-2.4 1.9-2.6-1.6-4.3-3.2-6.1-5.9-1.3 1.5-2.7 2.8-4.6 3.9-2 1.2-3.4 1.8-6 2.5l-.2-.4c2.4-1.1 3.7-1.8 5.5-3.1 1.9-1.4 3.2-2.8 4.4-4.5-1.4-2.6-2.7-6.2-3.1-8.7-.9 1.8-1.6 2.8-3 4.5l-.3-.2c1.6-3 2.6-5.8 3.6-10 .5-2.1.7-3.3.8-4.7 2.9.7 3.3.8 3.3 1.1 0 .2-.2.3-1.2.5-1 3.2-1.2 3.8-1.7 5.3h6.3c.6-.7 1.2-1.5 1.8-2.2 1.2 1.1 1.5 1.4 2.7 2.4.1.1.2.2.2.3 0 .1-.2.2-.3.2h-3.4zm-7.7 0c-.3.8-.4 1.1-.7 1.8.8 3.5 1.9 6.1 3.4 8.4 1.7-3 2.6-6.3 2.8-10.2H17zm1.4 29.4c.2 2.8.7 5 1.6 7.1 1.1-1.8 1.7-3.2 2.1-4.9 2.8.8 2.8.8 2.8 1.1 0 .3-.1.3-1.3.4-1.3 2.5-1.8 3.4-2.9 4.9 1 1.7 1.9 2.5 3.8 3.5 1.2-2.6 1.3-2.8 2-4.8l.4.1-.7 3.9c0 .1 0 .2-.1.4 0 .2-.1.4-.1.6 0 .3.1.5.4.8.3.2.4.5.4.7 0 .5-.4.9-1 .9-.8 0-2.1-.6-3.4-1.5-1.1-.8-2-1.7-2.9-3.1-1.6 1.7-2.9 2.8-5.6 4.2l-.3-.3c2.2-1.6 3.4-2.8 5.1-5.1-1.3-2.3-1.8-4.1-2.3-8.6H5.5c-.1 5.8-.2 6.9-.7 9-.4 1.6-1.2 3.3-2.1 4.8-.5.8-.9 1.2-1.8 2.3l-.3-.3c1.2-2.1 1.8-3.6 2.3-5.8.5-2.1.6-4.2.6-9.3 0-1.3 0-1.6-.2-2.7 1.1.5 1.4.7 2.4 1.4h10.9c-.1-.6-.1-.8-.1-1.1-.1-1.4-.2-1.7-.3-2.6 2.4.2 3 .3 3 .6 0 .2-.1.3-1 .6 0 1.2.1 1.5.1 2.5h4.8c.6-.7.6-.7 1.4-1.7 1 .8 1.3 1.1 2.2 1.9.1.1.1.2.1.2 0 .1-.2.3-.3.3h-8.1zM5.5 251.3v.7c0 1.5-.7 3.6-1.5 4.7-.7.9-1.3 1.4-1.8 1.4-.4 0-.8-.8-.8-1.8 0-.6.1-.8.9-1.1.7-.3 1.5-1.1 2.1-2 .4-.6.5-1.1.7-2h.4zm7.4-12.4c.6-.8.7-1 1.3-1.7.9.8 1.2 1.1 2.1 1.9.1.1.1.2.1.2 0 .1-.1.2-.3.2H8.4c-.7 0-1.1 0-2 .2l-.1-1.1c.5.2.5.2 1.2.2.7.1.9.1.9.1h4.5zm-4.1 9.3c0 .5-.2.5-1.6.5-.2 0-.3-.1-.4-.3.1-1.3.1-1.7.1-2.7 0-3.3 0-3.7-.1-4.9 1 .5 1.3.7 2.2 1.3h4c.5-.6.6-.8 1.1-1.3.7.5.8.7 1.5 1.3.2.2.2.3.2.4 0 .2-.1.3-.8.7l.1 4.1c0 .5-.3.6-1.5.6-.3 0-.4-.1-.4-.3v-.6H8.8v1.2zm-.8 4.1c0-.8 0-1.1-.1-1.9 2.8.3 3.2.4 3.2.7 0 .2-.2.3-1.1.6v3.9c0 .4 0 .5.1.6.1.1.3.1 1.2.2.5 0 2.3.1 2.7.1.3 0 3.4-.1 3.9-.1.8 0 .9-.1 1.3-.9.4-.9.7-1.7 1.3-3.8h.4l-.4 3.7v.4c0 .3 0 .3.7.5.3.1.5.4.5.7 0 .5-.4.9-1 1-.8.1-4.5.3-7.5.3-3.4 0-4.1-.1-4.7-.4-.6-.3-.7-.6-.8-1.4v-4.2zm.8-6h4.5v-3.5H8.8v3.5zm3.5 3.8c1.3.3 2.4.6 3.9 1.3.9.4 1.3.9 1.3 1.6 0 .7-.3 1.2-.6 1.2s-.3 0-1.2-1.1c-.4-.5-1.2-1.2-2-1.8-.4-.3-.8-.5-1.6-.9l.2-.3zm7.6-18.3c1 .2 1.9.4 2.5.7.7.3.9.6.9 1.1 0 .3-.1.7-.3 1-.1.2-.2.3-.4.3s-.2 0-.5-.5c0-.1 0-.1-.8-1-.4-.5-.8-.8-1.6-1.4l.2-.2zm2.4 19.3c1.4.8 2.2 1.4 3.4 2.4 1.2 1 1.6 1.5 1.6 2.1 0 .4-.3 1.4-.5 1.7-.2.3-.4.4-.5.4-.1 0-.3-.1-.4-.2-.2-.2-.2-.2-.7-1.3-.8-1.8-1.6-3.1-3.2-4.8l.3-.3zM8.5 279c-.1.3-.5 2.2-1.3 5.6-.4 1.8-.5 2.3-.5 3.2 0 .9 0 1.1-.1 1.3-.1.3-.4.5-.7.5-.5 0-1-.4-1.3-1.2-.7-1.6-1-4-1-6.4 0-.9.1-2 .2-3.2.2-1.7.2-1.7 1-5.7.3-1.4.4-2.2.4-2.8 0-1-.2-1.7-.8-2.8.7 0 1.2.4 2 1.5.7.9 1.1 1.7 1.1 2.4 0 .5 0 .6-.6 1.8-.6 1.3-1.3 3.4-1.6 4.8-.3 1.1-.4 2.4-.4 3.7 0 1.7.1 2.7.6 4 .5-1 .7-1.7 1.1-2.6l1.6-4.2.3.1zm3.7 1.5c-.1.6-.1.9-.1 1.3 0 3.3 1.9 4.7 6.5 4.7.9 0 1.7-.1 2.6-.2.6-.1.6-.1 1.6-.5.2-.1.3-.1.4-.1.8 0 1.9 1 1.9 1.8 0 .4-.2.6-.7.8-.6.2-2.1.3-3.7.3-3.7 0-6.4-.6-7.8-1.8-1.1-1-1.6-2.3-1.6-3.9 0-.8.1-1.4.4-2.4h.5zm0-9.5c1.1.6 1.7.8 2.8.8 1.9 0 4.8-.7 6-1.4.4-.2.5-.2.7-.2.2 0 .6.2 1 .4.6.4.9.7.9 1.1 0 .4-.2.6-.8.7-2 .3-3.1.6-4.3 1.1-.9.4-2.7 1.4-3.9 2.1l-.3-.3c1.3-1.1 2.4-2 2.8-2.3-.6 0-1 .1-1.2.1-1.7 0-2.8-.4-4.1-1.7l.4-.4zM.6 305c1.5.5 2.5 1 3.4 1.5.8.5 1 .9 1 1.5 0 1-.3 1.7-.7 1.7-.3 0-.4-.1-1-1-.7-1.2-1.5-2.1-3-3.4l.3-.3zm.3 10.9c.8.2 1.5.3 1.7.3.4 0 .5-.2 1.2-1.6l4.9-10.8.5.1-4.4 12.2c-.2.6-.3 1.1-.3 1.4 0 .4.1.7.4 1.8.3 1.1.4 2.1.4 2.8 0 .6-.2 1.3-.5 1.6-.4.5-1.2.9-1.7.9-.3 0-.5-.3-.5-.8 0-.2.1-.7.1-1.3.3-1.6.3-2.3.3-3.4 0-.8-.1-1.3-.4-1.8-.3-.5-.7-.8-1.8-1.3l.1-.1zm1.6-17.4c1.7.7 2.6 1.1 3.7 1.7.7.4 1 .8 1 1.4 0 .8-.5 1.7-.9 1.7-.2 0-.5-.2-.7-.7-1-1.5-1.9-2.6-3.3-3.9l.2-.2zm25.2 23.8c-1.2.4-1.4.7-1.9 2.3-2.2-.5-3.3-.9-5-1.7-1.5-.7-2.5-1.2-3.6-2-3.3 2.3-5.9 3.2-10.9 4.1l-.1-.5c3.9-1.1 6.9-2.6 9.7-4.7-1.8-1.6-2.8-3-4-5.4h-.3c-.5 0-1.2.1-2.2.2l-.2-1.1c1 .2 1.6.2 2.4.2H21c.4-.5.6-.7 1-1.2.8.6 1.1.8 1.8 1.5.3.2.4.4.4.5 0 .3-.3.4-1.2.4-1.9 2.5-3 3.7-4.6 5 2.6 1.3 5 1.8 9.2 2v.4zm-3.3-11.9c.6-.6.8-.8 1.4-1.3.9.7 1.1.9 1.9 1.6.3.2.4.4.4.5 0 .3-.4.4-1.5.5-1.2 1.1-1.5 1.4-2.5 2.1l-.3-.3c.5-1.1.6-1.4.8-2.5H9.3c0 1.4-.2 2.2-.5 3-.3.9-1 1.5-1.5 1.5s-.9-.9-.9-1.8c0-.4.1-.5.6-.8 1-.8 1.5-1.9 1.9-4h.5v1.3h15zm-12-6.3c-.7 0-1.5.1-2.3.2l-.1-1.1c.9.2 1.5.2 2.5.2H22v-2.8h-9.9c-1 0-1.6 0-2.4.2l-.1-1.1c1 .2 1.5.3 2.5.3h9.6c.5-.6.7-.8 1.2-1.4.8.5 1 .7 1.8 1.2.3.2.4.4.4.5 0 .2-.1.3-1.1.8v3.3c0 1.3 0 2.3.1 4.3 0 .2 0 .2-.2.3-.3.1-.9.2-1.5.2-.3 0-.4-.1-.4-.4v-.9h-9.6c-1 0-1.6 0-2.6.1l-.2-1c1 .2 1.5.2 2.8.2H22V304h-9.6zm.2 10.4c1.2 2 2.4 3.3 4.4 4.6 1.7-1.4 2.6-2.5 4-4.6h-8.4zm3.8 20.6c-1.2.4-4 1.5-6.1 2.4-.6.3-1 .4-1.2.4-.5 0-1.1-.4-1.7-1.3-.5-.8-.8-1.6-.8-2.2 0-.3.1-.5.3-.8.5 1.4 1.3 2.2 2.2 2.2.8 0 3.6-.7 5.7-1.3 1.2-.4 1.2-.4 1.9-.9.1-.1.3-.1.4-.1.4 0 .9.3 1.6 1.1.7.7.9 1 .9 1.4 0 .2-.2.4-.5.6-.9.5-1.2.7-2.5 2-1.9 1.9-3 3-4.4 4.5-2.9 3.1-2.9 3.1-3.5 3.7l.1.1c3.2-2 5.6-2.9 8.2-2.9 3.8 0 6.4 2.3 6.4 5.6 0 4.3-4 7.5-9.4 7.5-2.9 0-4.8-1.2-4.8-3 0-1.5 1.4-2.6 3.2-2.6 1.5 0 2.8.5 3.8 1.5.5.5.9 1 1.3 1.9 2.3-1 3.6-3.1 3.6-5.6 0-1.7-.7-3-1.9-3.7-.6-.4-1.8-.6-3-.6-2.9 0-7 2.4-9.5 5.6-.5.6-.7.8-1 .8-.5 0-1-1.1-1-2 0-.4.2-.7.6-1.1 1.1-.9 1.6-1.4 4.2-4.2 3.7-4.1 4.8-5.4 7.2-8.5.2-.3.2-.3.3-.5l-.1-.1h-.1s-.1 0-.1.1h-.3zm-4.6 17.3c-1.1 0-1.9.6-1.9 1.5 0 1.1 1.3 1.8 3.4 1.8.8 0 1.2-.1 2.1-.3-.5-1.9-1.9-3-3.6-3zm16.4 15.9c0 2.1-1.7 3.9-3.9 3.9s-3.9-1.7-3.9-3.9c0-2.1 1.7-3.9 3.9-3.9 2.2.1 3.9 1.8 3.9 3.9zm-6.8 0c0 1.6 1.3 2.9 2.9 2.9 1.6 0 2.9-1.3 2.9-2.9 0-1.6-1.3-2.9-2.9-2.9-1.6 0-2.9 1.3-2.9 2.9z"/></g></g></svg>