<svg version="1.1" id="レイヤー_1" xmlns="http://www.w3.org/2000/svg" x="0" y="0" width="407" height="456" viewBox="0 0 407 456" xml:space="preserve"><style type="text/css">.st0{fill:#fff}</style><g><g><path class="st0" d="M323.8 5.4c.5 0 1 0 1.6-.6.9-.9 1-1 1.2-1 .4 0 2.2 1.7 2.2 2.2 0 .4-.8 1.7-.9 2-.2 1.4-.2 4.4-.2 5.1 0 2.1.2 11.3.2 13.1 0 .6 0 1.7-.7 2.4-.5.5-1.4.9-1.7.9-.7 0-.8-.9-.8-1.2 0-1 0-1.2-1.1-1.2h-2.3c-.9 0-1.1.6-1.1 1.1v2c-.1 1-1.4 2.4-2 2.4-1.1 0-1.1-.9-1.1-1.3s.2-2.9.2-3.5c.1-4.2.2-7.1.2-18.3 0-.8-.1-4.6-.1-5.3 0-.2 0-.4.2-.4.3 0 1 .4 1.8.9 1 .6 1.4.7 2.2.7h2.2zm0 20.7c.4 0 1 0 1.2-.5.1-.3.1-3.5.1-4.3 0-1.4 0-4-.1-4.3-.1-.2-.4-.5-.9-.5h-2.7c-1 0-1 .3-1 3.6 0 1.1 0 5.2.2 5.5.1.4.6.5 1 .5h2.2zm-2.3-19.6c-.3 0-.6 0-.8.3-.3.4-.3 6.1-.3 7 0 .9 0 1.6 1.1 1.6h2.4c.2 0 .8 0 1.1-.5.2-.4.2-4.6.2-5.4 0-2.9 0-3.1-1.2-3.1h-2.5zm22.8 7.9c1.9 0 2.1 0 2.7-1 .3-.4 1-1.6 1.6-1.6.2 0 1.3.9 1.6 1.1 1.9 1.6 2 1.6 2 2 0 .6-.8.6-2.2.6h-15c-1.9 0-3.5 0-4.3.1-.2 0-.8.1-.9.1-.1 0-.2-.1-.3-.2l-.8-.9c-.2-.2-.2-.2-.2-.3s0-.1.1-.1c.3 0 1.6.1 1.8.1 1.4.1 3.4.2 4.7.2h1.6c1.2 0 1.2-.8 1.2-1.3V9.4c0-1-.7-1-1.1-1-1.3 0-3.3 0-4.5.1-.1 0-.7.1-.8.1-.2 0-.2-.1-.4-.3l-.8-.9-.2-.2c0-.1.1-.1.2-.1.3 0 1.5.1 1.8.2 1.4 0 3.2.1 4.6.1.4 0 1.2 0 1.2-1 0-1.8-.1-3.3-.2-4.4 0-.2-.2-1-.2-1.1 0-.2.2-.3.3-.3 0 0 4.2 1.2 4.2 1.7 0 .2-.9.9-1 1-.3.3-.3 1.2-.3 1.6 0 2.4 0 2.5 1.7 2.5 1.6 0 2.2 0 2.8-.7 1.1-1.6 1.1-1.6 1.4-1.6.5 0 3.5 2.6 3.5 2.9 0 .4-.2.4-2 .4H342c-1.1 0-1.1.6-1.1 1.6 0 3.3 0 3.6.1 3.9.2.5.8.5 1 .5h2.3zm1.5 8c-1.2 0-1.4.4-1.4 1.4 0 1.6.2 8.4.2 9.8 0 3.1-3.3 3.2-3.8 3.2-.4 0-.6 0-.6-.5 0-1 0-1.6-1.7-2.2-.4-.1-2.2-.6-2.5-.7-.2-.1-.6-.3-.6-.5s.2-.3.6-.3c.2 0 3.8.4 4.5.4.7 0 .9-.1 1-.6.1-.3.1-.8.1-4.9 0-5.1 0-5.2-1.4-5.2h-3.3c-.9 0-3.6 0-5 .1-.1 0-.7.1-.8.1-.2 0-.2-.1-.4-.3l-.8-.9-.2-.2c0-.1.1-.1.2-.1.3 0 1.5.1 1.8.2 1.8.1 3.6.1 5.5.1h3.1c1.2 0 1.2-.7 1.2-1.4 0-.5-.2-3.2-.2-3.3 0-.3.1-.5.3-.5.2 0 4 1.1 4 1.9 0 .2-1 1-1.1 1.2-.1.2-.2.4-.2 1.2 0 .7.4.8.8.8.5 0 .6-.2 1.6-1.5.4-.5.8-1 1.2-1 .2 0 .4.1 1.6 1.1 1.9 1.5 2 1.6 2 2 0 .6-.8.6-2.1.6h-3.6zm-8.9 8.5c-.9 0-1.1-.4-2-1.9-1.1-1.8-2.9-3.1-3.6-3.5-.2-.1-1.4-1-1.4-1.1 0-.2.2-.2.3-.2.8 0 8 1.4 8 5.3.1.4-.4 1.4-1.3 1.4zm-15.7 36.4c0-1.2 1.1-2.5 3.8-5.6 1.8-2.1 3.4-5.4 3.4-6 0-.2-.3-.3-.4-.3-.4 0-2 .3-2.4.3-1.5 0-3.6-2-3.6-3.5 0-.1 0-.3.2-.3s1.3.6 1.5.8c.5.2 1.6.7 2.6.7 3.3 0 3.3-1.1 3.3-1.9 0-.2 0-.9-.3-1.4-.1-.2-1-.9-1-1.2 0-.3 1-.6 1.8-.6 1 0 2 .4 2 1.2 0 .5.2.6 1.8.7.3 0 1.8.2 1.8 1 0 1.3-2.9 2.4-4.8 3.2-.6.2-.6.3-1.5 2.4-1 2.2-1.1 2.5-2.2 4.3-.2.4-.3.5-.3.6 0 .1 0 .2.2.2.1 0 .9-.3 1.2-.4.4-.2 1-.3 1.6-.3.5 0 2.4.1 3.4 2.4.3.7.3.8.4.8.1 0 1.4-1.8 1.6-2.2 1.3-1.8 3.9-5.5 7.4-5.5 2.2 0 3.8 1.9 3.8 3.6 0 1.9-3.2 3.2-5.6 4.3-1 .4-5.5 2.2-6.2 2.7-.6.4-.7.8-.7 1.7 0 .4.1 2 .1 2.4 0 .6 0 2.9-1.5 2.9-1.1 0-1.2-1.3-1.2-2 0-.4.1-2.3.1-2.4 0-.2 0-.5-.3-.5s-3.9 2.5-3.9 4.8c0 2.8 4 2.8 5.2 2.8 1 0 1.8-.1 2.6-.2.6-.1 3.1-.7 3.6-.7.8 0 2 .4 2 1.4 0 2.5-6.2 2.6-7.2 2.6-5.1 0-7.7-2.1-7.7-5.2 0-2.6 1.5-3.8 5.3-6.9.4-.3.6-.8.6-1.4 0-1.8-.3-4-1.9-4-1.5 0-3.9 1.8-4.9 4.2-.4 1-.9 2-2.2 2-.7-.2-1.5-.4-1.5-1.5zm10.2-15.1c.1 0 2-.5 2-1s-1-.6-1.4-.6c-.6 0-.7 1.1-.7 1.3 0 .2 0 .3.1.3zm3.7 13c0 .1 0 .2.2.2.1 0 8-3.2 8-5.8 0-1-.9-1.2-1.4-1.2-3.4-.1-6.8 6.1-6.8 6.8zm-20.2 40.2c-.2-.2-.2-.2-.2-.3 0 0 .1-.1.2-.1.2 0 1.2.1 1.4.1 1.5.1 4.2.2 5.8.2 1 0 1.2-.4 1.2-1.6v-3.9c-.2-.6-1-.6-1.4-.6-.6 0-3.1.2-3.6.2-.2 0-.2-.1-.4-.3l-.8-.9c-.1-.2-.1-.2-.1-.3 0-.1.1-.1.2-.1.8 0 4.3.3 5 .3 1.2 0 1.2-.6 1.2-1.3 0-1.7-.1-3-.2-3.4 0-.2-.3-1-.3-1.2 0-.5.4-.5.6-.5.4 0 2.7.8 3 .9.2.1.6.4.6.7 0 .2-.2.4-.8.9-.4.4-.4.7-.4 1.8 0 1.4 0 2.2 1.4 2.2.8 0 1-.1 1.4-.6.8-1 .8-1.1 1.1-1.1.6 0 2.4 1.6 2.4 2.2 0 .6-.8.6-2.2.6h-2.8c-1.4 0-1.4.5-1.4 1.7 0 4.1 0 4.4 1.4 4.4 1.6 0 1.8 0 2.1-.3.2-.2 1.2-1.4 1.5-1.4.6 0 2.3 1.7 2.3 2.1 0 .6-.8.6-2.1.6h-5.1c-.2 0-.4 0-.4.3s.5.5.8.6c1 .3 1.1.4 1.1.8 0 .2-.1.3-.9.6-.7.3-.7 2-.7 2.8 0 2.1 0 2.6 1.2 2.6 1.1 0 1.4-.1 1.6-.3.2-.2 1.2-1.6 1.5-1.6.6 0 2.4 1.8 2.4 2.3 0 .6-.8.6-2.2.6h-3c-1.4 0-1.5.3-1.5 1.6 0 5 0 5.2.6 5.7 1.1 1 7.5 1.7 15.3 1.7 4.6 0 7.2-.1 9.7-.8.2 0 1.3-.4 1.5-.4.1 0 .2.1.2.2 0 .2-1.6 1.4-1.8 1.7-.4.4-.5.6-1 1.8-.2.5-.6.5-1 .5-5 0-16.8-.3-21.4-1.5-3.4-.9-5.9-3.2-8.1-6.8-.2-.4-.5-.7-.7-.7-.3 0-.5.6-.5.7-1.5 3.9-3.4 7-3.6 7-.1 0-.2 0-.2-.1s.2-.6.2-.7c.8-2.8 3-11 3-13.2 0-.2-.1-.9-.1-1 0-.4.4-.5.5-.5.1 0 3.4.7 3.4 1.4 0 .2-1 .8-1 1-.2.3-1.3 3-1.3 3.7 0 1.4 2.7 4.2 3.4 4.2.5 0 .5-.8.5-1.1 0-8 0-10.6-.1-12.1-.1-1-.5-1.2-1.3-1.2-2 0-4 .1-5.4.2h-.6c-.2 0-.2-.1-.4-.2l-.7-.8zm27.8-9.9c-1 0-1.1.3-1.4 1.8-1 6-4.6 8.4-6.6 9.6-.4.2-1.4.8-1.6.8-.1 0-.2-.1-.2-.2s1.5-1.5 1.8-1.8c3.9-4.2 4.1-8.4 4.1-9.3 0-.7-.3-1-1-1-.8 0-1.9 0-2.7.1-.2 0-.7.1-.8.1-.2 0-.2-.1-.4-.2l-.8-.9c-.1-.2-.2-.2-.2-.3 0-.1.1-.1.2-.1.3 0 1.5.1 1.8.1 2 .1 3.6.2 5.5.2h5.1c.4 0 1 0 1.3-.6.4-.6.5-.7.7-.7.2 0 3.1 1 3.1 1.8 0 .3-.2.5-.9 1.1-.2.2-.2.5-.2.9 0 2.4-.3 11.5-4.5 11.5-.5 0-.6-.2-.9-.9-.5-1.1-1.7-1.2-2.1-1.2-.8-.1-.8-.1-.8-.3 0-.1.1-.3.4-.3 2.8 0 3.5 0 4.1-1.2.6-1.2 1.2-5.1 1.2-7.4 0-1.3-.3-1.5-1.2-1.5h-3zm-4.6 24.7c-.8 0-1.1.2-1.2.9-.2.9-1.1 1.3-1.8 1.3-.6 0-.9-.4-.9-1 0-.2.1-1.4.2-1.6.1-1.4.1-1.9.1-4 0-1.5 0-3.7-.1-5.2 0-.2-.2-1.1-.2-1.3 0-.3.2-.5.4-.5.3 0 1.8 1 2.1 1.2.7.4 1.3.4 1.8.4h7.1c.4 0 1 0 1.4-.3.2-.2.8-1 1-1 .3 0 2.8 1.4 2.8 2.2 0 .3-.2.6-.7.8-.5.3-.5.5-.5 2.3 0 .9.1 5.6.1 5.8 0 .9 0 2.1-1.8 2.1-1 0-1.1-.7-1.2-1.1-.1-.9-.6-1-1.2-1h-7.4zm0-8.7c-1.2 0-1.2.4-1.2 2.7 0 .4 0 4.2.1 4.5.2.5.8.5 1.1.5h7.5c1.2 0 1.2-.4 1.2-2.6 0-.4 0-4.3-.1-4.6-.2-.5-.8-.5-1.1-.5h-7.5zm-3.8 37.4c.6-.2 1.2-.3 1.7-.3 1.6 0 2.8 1 2.8 2.2 0 1.4-1.5 2.8-4.6 5.7-.4.4-3 2.8-3 3.1 0 .2.2.2.4.2.1 0 .8-.1.9-.1 1.5 0 2.9 1.3 2.9 2.9 0 .4-.2 2.2-.2 2.6s.1 2.2 2.3 2.2c1.1 0 6-1.1 7-1.1 1.1 0 2.1.6 2.1 1.5 0 2.2-3.3 2.5-7.6 2.5-4.8 0-5.4-2.5-5.5-5.3-.1-3.2-.1-3.6-1.3-3.6-.8 0-3.4.7-5.6 4.8-1.1 2-1.8 3.2-3.1 3.2-1 0-1.4-.9-1.4-1.4 0-1.1 0-1.5 6.6-8.7 3.4-3.8 6.6-7.2 6.6-8.4 0-.4-.2-.7-.7-.7-.6 0-1.7.8-2.2 1.3-.9.8-2.1 1.6-3.2 1.6-2.3 0-3.4-2.9-3.4-3.3 0-.2.1-.3.3-.3.1 0 1 .3 1.1.3.6.2 1.1.3 2 .3 1.1.3 1.5.2 5.1-1.2zm-4.2-9.4c.6.2 3.4.7 3.9.8 1.3.4 2.5 1.3 2.5 2.4 0 .3-.2 1.1-1.1 1.1-2.8 0-2.9 0-3.8.4-.3.1-1.4.7-1.6.7-.1 0-.2-.1-.2-.2 0-.3 1.8-2.1 1.8-2.6 0-.2-.6-.6-1.5-1.2-1.2-.8-1.4-1.3-1.4-1.5 0-.1.1-.2.2-.2s1 .3 1.2.3zm-9.3 53.3c1.7 0 2.3-.2 7.8-1.7 3.6-1 12.7-3.6 15.3-3.6 1.4 0 3.2.6 3.2 1.9 0 1-1 1.5-1.6 1.5-.5 0-2.8-.4-3.3-.4-5.1 0-10.7 4.7-10.7 15 0 6.7 2.5 7.2 4.9 7.2.6 0 3.5-.2 3.8-.2 1.2 0 2 .5 2 1.5 0 2.1-4.4 2.1-4.6 2.1-8.2 0-8.2-6.7-8.2-8.6 0-1.8 0-10.2 5.8-15.4.2-.1 1-.8 1-.8 0-.1-.2-.1-.2-.1-2.3 0-10.6 3.6-11.9 4.3-.6.3-1 .5-1.4.5-2 0-3.9-2.7-3.4-3.2.1-.4 1.3 0 1.5 0zm21.7 42.8c1.8 0 2 0 2.6-.7 1.1-1.3 1.2-1.5 1.6-1.5.2 0 3.8 2.1 3.8 2.6 0 .6-.8.6-2.2.6H336c-1 0-1 .8-1 2 0 1.7 0 2.4 1 2.4h1.9c1.6 0 1.9 0 2.3-.3.3-.2 1.5-1.8 1.9-1.8.4 0 3.5 2 3.5 2.5 0 .7-.9.7-2.2.7h-7.3c-1.1 0-1.1.9-1.1 1.6 0 1.5 0 2.3 1.1 2.3h7.4c1.8 0 2 0 2.6-.7 1.1-1.3 1.2-1.5 1.6-1.5.3 0 3.8 2.2 3.8 2.7 0 .6-.8.6-2.2.6h-26.6c-3.5 0-4.6.1-5 .1-.2 0-.7.1-.8.1-.2 0-.2-.1-.4-.2l-.8-1c-.1-.2-.2-.2-.2-.2 0-.1 0-.1.2-.1.3 0 1.5.1 1.8.2 2 .1 3.6.1 5.5.1h8.5c1 0 1-.7 1-2.4 0-.7 0-1.6-1-1.6h-4.2c-3.5 0-4.6.1-5 .1-.1 0-.7.1-.8.1-.2 0-.2-.1-.4-.3l-.8-.9c-.2-.2-.2-.2-.2-.3 0 0 0-.1.1-.1.3 0 1.5.1 1.8.1 2 .1 3.6.2 5.5.2h3.9c1 0 1-.6 1-2.3 0-1.3 0-2.2-1.1-2.2H324c-3.5 0-4.7.1-5.1.1-.1 0-.7.1-.8.1-.1 0-.2-.1-.4-.3l-.8-.9c-.2-.2-.2-.2-.2-.3 0-.1 0-.1.1-.1.3 0 1.5.1 1.8.1 2 .1 3.6.2 5.5.2h11c1.4 0 3.2-3.4 3.2-5.8 0-.9 0-1.2.4-1.2.2 0 2.4.9 2.8 1 .8.3 1.4.6 1.4 1.2 0 .5-.5.5-.8.6-.8.1-1 .3-2.8 1.9-.3.2-1.6 1.3-1.9 1.6-.2.2-.4.3-.4.5 0 .3.3.3.8.3h4.7zm-19.1 18.7c-3.5 0-4.6.1-5.1.1-.1 0-.7.1-.8.1-.1 0-.2-.1-.4-.3l-.8-.9c-.2-.2-.2-.2-.2-.3 0 0 0-.1.1-.1.3 0 1.5.1 1.8.1 2 .1 3.6.2 5.5.2h7.1c1 0 1-.7 1-1.8 0-1.4-.1-1.9-.2-2.3-.2-.8-.2-.8-.2-1 0-.3.4-.3.6-.3.5 0 3.6.3 3.6 1.2 0 .2-.5 1.2-.5 1.4 0 .3-.2 2-.2 2.1 0 .4 0 .7.9.7h6.2c2 0 2 0 2.9-.9.3-.4.9-1 1.3-1 .6 0 3.7 2.2 3.7 2.5 0 .5-1 .5-2.1.5h-11.3c-.5 0-.7 0-.7.3 0 .6 6.2 6.5 15.7 6.5h1.2c.1 0 .2 0 .2.1s-1.4.7-1.6.9c-.8.5-2.3 1.6-2.8 2.3-.1.2-.3.5-.5.5s-6-1.8-10.2-6.4c-1.7-1.8-2.2-2.6-2.5-3-.1-.2-.3-.4-.5-.4s-.2.1-.5.8c-2.6 7.1-11.2 7.9-14.1 7.9-2.4 0-4.6-.4-4.6-.6 0 0 1.8-.2 2-.2 10.7-1.1 13.9-6.4 13.9-8 0-.6-.3-.6-.9-.6h-7zm6.1-19c-.6 0-.8-.3-2.2-2.7-.2-.3-1-1.7-2.7-3.1 0-.1-.2-.2-.2-.4 0 0 .1-.1.2-.1 0 0 1.4.3 3 1 2.1.9 3.4 1.6 3.4 3.5 0 .8-.4 1.8-1.5 1.8zm4.6 42.9s.5 9.6 5.8 18.3c.7 1.1 5.2 8.4 11.3 10 .1 0 .4.1.4.3 0 .2-.1.2-1.4.5-1.4.3-2.4.9-2.8 1.2-.8.6-.9.7-1 .7-.2 0-5.2-3.2-9.1-11.6-.7-1.6-3.3-7.1-3.8-15.5 0-.4 0-.5-.2-.5s-.2.2-.4 1.6c-.1 1.3-1.2 10.6-5.1 17.1-4.3 7.1-11.3 9.5-11.6 9.5-.1 0-.2 0-.2-.2 0-.1.2-.3.5-.5 2.3-1.6 6.8-5.1 9.5-10.3 4.6-8.7 4.6-20.1 4.6-20.6 0-1.2 0-1.6-.2-2.4 0-.1-.2-.7-.2-.8 0-.2.2-.3.3-.3.2 0 2 .6 2.3.6 1.9.5 2.7.8 2.7 1.5 0 .4-.3.6-.7.6-.3 0-.5.1-.6.2 0 .2-.1.4-.1.6zm-.6 48.3c0 .1.1.3.1.4.2 1.3.4 2.6.4 4.3 0 2.7-.6 6.4-4.1 11.7-3.2 4.9-5.2 5.8-6.8 5.8-2.6 0-5-4.1-5-9 0-2.1.4-6.2 4.4-10.2 5.1-5.2 10.4-5.2 12.7-5.2 3.6 0 5.3.7 6.4 1.3 4.3 2.1 7 6.4 7 11.6 0 5.2-3 11.6-10.1 14.1-3.4 1.2-6 1.5-6.6 1.5-.2 0-.4 0-.4-.3 0-.1.1-.2 1.1-.6 4.2-1.6 12.8-5.1 12.8-15 0-1.6-.2-11.1-11.1-11.1-.7.1-.8.4-.8.7zm-12.9 12.3c0 2.6 1 6.2 3.5 6.2 1.2 0 2.1-.5 4.9-4.6 2.1-3.2 3.9-7.7 3.9-11.6 0-2.4-.2-2.6-.7-2.6-3.9-.2-11.6 5-11.6 12.6zm.1 40.8c0 .9-.5 2-1.5 2-.8 0-.9-.2-1.8-2.3-.7-1.8-1.9-3-2.1-3.2 0 0-.5-.5-.5-.6 0-.1.1-.2.2-.2.2 0 1.8.5 2.8 1 1.4.6 2.9 1.8 2.9 3.3zm3.5-3.6c0-.1.1-.3.3-.3.1 0 .1.1.1.2 0 .3-.3 3.3-2 8.6-1.5 4.7-1.7 5.9-1.7 7.5 0 1 .1 1.6.2 2.1.8 3.4.8 3.4.8 4.2 0 1.5-1 2.4-2.1 2.4-1 0-1.7-.5-1.7-1.8 0-.6.4-3.3.4-3.9 0-2.2-1.2-3.5-2.4-4.1-.2-.1-1.1-.4-1.1-.6 0-.2.2-.2.3-.2 1.5 0 2.6-.2 3.2-1.1.9-1.1 1.2-2.1 4.8-11.1.2-.2.8-1.7.9-1.9zm-.8-5.2c0 1.4-1 2-1.5 2-.8 0-1-.6-1.7-2.3-.4-1-1.6-3-2.2-3.8-.2-.2-.4-.4-.4-.6 0-.1.1-.1.2-.1s2 .6 3.3 1.4c.9.5 2.3 1.6 2.3 3.4zm21.9 16.6c-1 0-1.5.4-1.8 1.2-2.6 8-7.1 11.2-13.7 12.5-.1 0-.7.1-.7 0s2.9-1.6 3.4-1.9c6-3 8.1-9.9 8.1-10.9 0-.6-.5-1-1.1-1h-.8c-.4 0-.7 0-1.2.4-.3.3-1.2 2.2-1.5 2.6-3.3 5.3-9.3 6.7-9.3 6.7-.1 0-.1 0-.1-.1s2.3-1.8 2.8-2.1c4-3.4 5.2-6.4 5.2-6.8 0-.6-.5-.7-.9-.7h-1.2c-.7 0-1 0-1.4.3-.5.2-2.2 2-2.6 2.4-1.4 1.2-4.7 3.5-5.6 3.5 0 0-.1 0-.1-.1s2.7-2.6 3.2-3.1c2.3-2.5 5.1-6.6 5.1-7.3 0-.3-.2-.7-.6-.7-1.2 0-2.8 0-3.8.1-.1 0-1.1.1-1.2.1-.1 0-.2-.1-.4-.3l-.8-.9-.2-.2c0-.1.1-.1.1-.1.2 0 1.5.1 1.8.2 1.2 0 3.2.1 5.5.1h12.8c1.1 0 1.7 0 2-.1.4-.2 1.8-2.2 2.2-2.2.4 0 3.2 2.2 3.2 2.8 0 .6-.5.6-1.6.6h-13.3c-1.6 0-2.1 0-3.2 1.8-.1.2-1.1 1.7-1.1 1.7 0 .5.4.5.7.5h12.4c.5 0 .9-.1 1.3-.4.2-.2.9-1.1 1.2-1.1.5 0 3.1 1.7 3.1 2.5 0 .3-.3.5-.9 1-.3.2-.4.4-.4 1.2 0 2.6-.2 12.3-6.5 12.3-.3 0-.7 0-1-.4-.1-.2-.4-1.2-.5-1.5-.2-.5-2.4-2.8-2.4-2.8 0-.1.1-.1.2-.1.2 0 1 .4 1.2.4 2.7.7 3 .7 3.5.7.7 0 1-.3 1.3-.8.5-.8 1.5-4.1 1.5-7.8 0-1.4 0-2-1.2-2h-.7zm-3.2-20c1 0 1.4-.6 1.5-.7.2-.3.4-.6.8-.6.6 0 3.3 1.4 3.3 2.2 0 .3-.1.4-.8.9-.4.3-.5.6-.5 2.2 0 .8.1 4.6.1 5.5 0 2.2-1.6 2.4-2 2.4-.7 0-.8-.2-1.1-.9-.2-.5-.8-.5-1.1-.5h-8.5c-.4 0-1 0-1.2.6-.4.8-.7 1.5-2.1 1.5-.8 0-1-.5-1-1.4 0-.8.1-4.6.1-5.4 0-2.1 0-2.4-.2-5.2 0-.2-.2-1.2-.2-1.4 0-.3.3-.3.6-.3.6 0 1 .2 2.4.8.8.4 1.4.4 1.8.4h8.1zm-8.6 1c-1.2 0-1.2.8-1.2 1.8s0 1.8 1.2 1.8h9c1.2 0 1.2-.8 1.2-1.8s0-1.8-1.2-1.8h-9zm0 4.8c-1.2 0-1.2.7-1.2 1.6 0 1.5 0 2.1 1.2 2.1h8.7c1.3 0 1.3-.8 1.3-2.6 0-1-.9-1-1.2-1h-8.8z"/></g></g><g><g><path d="M266.7 447.5c0 2.3.2 2.5 1.9 2.6v.6h-6.1v-.7c1.8-.1 1.9-.2 1.9-2.6v-11.8c0-2.3-.1-2.5-1.9-2.5v-.6h6.1v.6c-1.8.1-1.9.2-1.9 2.5v5h9.4v-5c0-2.3-.1-2.5-1.9-2.5v-.6h6.1v.6c-1.8.1-1.9.2-1.9 2.5v11.8c0 2.3.1 2.5 1.9 2.6v.6h-6.1v-.6c1.8-.1 1.9-.3 1.9-2.6v-6h-9.4v6.1zm20.2-8.2c1-1.1 2.6-1.7 4.3-1.7 3.6 0 6 2.6 6 6.5 0 4.2-2.4 6.8-6.2 6.8-3.6 0-6-2.6-6-6.4.1-2.1.7-4 1.9-5.2zm4.3 11.1c2.4 0 3.8-2.1 3.8-6s-1.4-6.1-3.8-6.1-3.7 2.1-3.7 5.9c-.1 3.9 1.3 6.2 3.7 6.2zm14.4-3.3c0 1.5.1 2.1.3 2.5.2.3.6.5 1.2.5.5 0 1-.1 1.6-.4l.2.6c-.8.4-1.6.6-2.5.6-1.2 0-2.1-.4-2.6-1.2-.3-.5-.3-1-.3-2.9v-8.1h-1.6v-.6c1.5-.1 2.2-1.1 2.6-3.4l1.1-.3c0 1.1-.1 2-.1 3.7h3v.7h-3v8.3zm18.5-.4h.8c.1 1.2.3 1.8.7 2.3.6.9 1.6 1.3 2.7 1.3 1.7 0 2.7-.9 2.7-2.3 0-.6-.2-1.1-.6-1.4-.4-.4-.5-.4-2.8-1.4-2.7-1.2-3.5-2.1-3.5-3.8 0-.9.2-1.7.7-2.3.7-.9 1.8-1.4 3.1-1.4.6 0 1 .1 2.3.3h.5c.3 0 .7 0 1.2-.2l-.1 3.9h-.8c0-2.2-1.1-3.5-3-3.5-1.5 0-2.5.9-2.5 2.2 0 .6.2 1 .7 1.3.5.3.9.6 2.6 1.3 1.7.7 2.3 1.1 2.9 1.7.5.6.8 1.4.8 2.4 0 2.3-1.5 3.8-3.9 3.8-.7 0-1 0-2.5-.3-.3 0-.6-.1-.9-.1-.3 0-.6 0-1.1.1v-3.9zm16.5-6.8c.9-1.5 2.3-2.2 4.1-2.2 3.2 0 5.1 2.4 5.1 6.3 0 1.9-.5 3.7-1.4 5-.9 1.2-2.4 1.9-4.1 1.9-1.5 0-2.3-.4-3.7-1.6v3.6c0 2.3.1 2.5 1.9 2.6v.6h-5.8v-.6c1.7-.1 1.8-.2 1.8-2.6v-12.1c0-1.9-.3-2.2-1.7-2.2v-.6l3.7-.3v2.2zm3.5 10.3c2.3 0 3.4-2 3.4-5.9 0-3.9-1-5.9-3.2-5.9-1.1 0-2.2.6-2.8 1.6-.6 1.1-1 2.5-1 4.4 0 3.8 1.2 5.8 3.6 5.8zm14.2-12.5c.1 1.2.1 1.6.1 2.1v.8c.8-1.9 2.2-3 3.6-3 1.1 0 1.9.7 1.9 1.5 0 .6-.5 1-1.3 1-.5 0-.8-.1-.9-.6-.2-.5-.3-.7-.7-.7-.6 0-1.3.5-1.9 1.5-.5.8-.7 1.8-.7 3.2v3.9c0 2.3.1 2.5 1.8 2.6v.6h-5.7v-.6c1.7 0 1.8-.3 1.8-2.6v-6.7c0-1.9-.3-2.2-1.7-2.2v-.5l3.7-.3zm13 0c-.1 1.5-.1 3.6-.1 4.7v5.1c0 2.3.1 2.5 1.8 2.6v.6h-5.7v-.6c1.7 0 1.8-.3 1.8-2.6v-6.7c0-1.2-.1-1.8-.4-2-.2-.2-.6-.2-1.5-.2v-.6l4.1-.3zm-1.2-5.3c.8 0 1.4.6 1.4 1.4 0 .8-.6 1.4-1.4 1.4-.8 0-1.4-.6-1.4-1.4-.1-.7.6-1.4 1.4-1.4zm10.8 7.9c1.1-1.9 2.3-2.6 4.4-2.6 1.6 0 2.6.5 3.3 1.5.5.7.6 1.6.6 3.1v5.2c0 2.3.1 2.5 1.8 2.6v.6h-5.7v-.6c.8 0 1.3-.1 1.5-.4.2-.2.2-.4.2-.8 0-.3.1-1.2.1-1.4v-5c0-1.3-.1-2.1-.4-2.7-.4-.9-1.1-1.3-2.2-1.3-1.2 0-2.1.5-2.8 1.7-.5.8-.9 2-.9 3v4.3c0 2.3.1 2.5 1.8 2.6v.6h-5.7v-.6c1.7 0 1.8-.3 1.8-2.6v-6.7c0-1.9-.3-2.2-1.7-2.2v-.6l3.8-.3v2.6zm23.4-1.4c1 1 1.4 2.1 1.4 3.3 0 2.6-1.9 4.4-4.9 4.4-.7 0-1.3-.1-2.2-.3-.9.5-1.3.9-1.3 1.5 0 .9.6 1.3 2.7 1.3h1.8c1.7 0 2.5.1 3.2.3 1.4.4 2.1 1.3 2.1 2.7 0 1.2-.7 2.5-1.9 3.1-1.1.6-2.5.9-4.4.9-1.7 0-2.9-.3-3.9-.8-.9-.5-1.4-1.3-1.4-2.4 0-1 .2-1.3 1.7-2.3-1.1-.5-1.6-1.2-1.6-2.2 0-.7.2-1 1.2-1.7l1-.6c-.7-.5-1-.7-1.2-1.1-.5-.6-.8-1.6-.8-2.6 0-1.7.7-3.2 1.9-3.9.8-.5 1.9-.8 3.1-.8.5 0 1 .1 1.7.2.8.1 1 .1 1.6.1.6 0 1.4 0 2.7-.1v1h-2.5zm-7.2 13.7c0 1.8 1.3 2.8 3.9 2.8 2.7 0 4.3-1.1 4.3-2.8 0-1-.6-1.6-1.9-1.8-.5-.1-1.2-.1-2.8-.1h-2.4c-.7.2-1.1.8-1.1 1.9zm1.4-7.8c.4.8 1.3 1.2 2.3 1.2 1.8 0 2.8-1.3 2.8-3.8 0-2.6-.9-4-2.8-4s-2.8 1.3-2.8 3.8c-.1 1.1.1 2.1.5 2.8z" fill="#76544b"/></g></g><g><g><path class="st0" d="M180.6 26.3c3.7-.5 6.1-1.1 9-2.6 1.7-.8 2.8-1.6 4.1-3-2.6-1.1-3.4-1.3-6.1-2-.4.6-.6 1-1.2 1.9-.2.2-.3.2-.4.2h-.1c-.3-.1-.6-.1-.7-.1-.8-.1-.9-.1-.9-.4 1.7-2.6 2.5-3.8 4.3-7.3h-6c-.4 0-1.4.1-2.3.2l-.3-1.3c1.3.3 1.9.4 2.6.4h6.4c1.2-2.5 1.9-4.2 2.6-6.4 2.9.8 2.9.8 3.1.9.1.1.2.2.2.3 0 .3-.2.4-1.6.6-.8 2-1.2 2.8-2.1 4.6H203c.7-1 1-1.3 1.7-2.2 1.3 1.1 1.7 1.4 3 2.6.1.1.1.1.1.2s-.1.2-.3.2h-7c-.8 2.6-1.2 3.6-2.1 5.1-.5.8-1 1.4-1.6 2.2 2.9 1 5.5 2.1 7 3 .9.6 1.2 1.1 1.2 2.2 0 .6-.2 1.2-.4 1.2s-.2 0-1-.6c-.9-.7-3.8-2.6-5.1-3.4-.9-.5-1.4-.8-2.7-1.3-1.4 1.4-2.8 2.4-5 3.3-3.2 1.4-5.7 1.9-9.9 2l-.3-.5zM192.7 4V2.3c0-1.2 0-1.4-.1-2.3 2.6.3 3.4.5 3.4.8 0 .2-.4.4-1.2.7V4h8.7c.5-.7.7-.9 1.3-1.7 1.3.9 1.7 1.2 2.9 2.3.1.2.2.2.2.3 0 .2-.3.3-1.9.5-1.7 1.4-2.1 1.8-3.8 3.1l-.3-.2c1.3-2.6 1.3-2.6 1.8-3.7h-19.8c-.2 1.5-.5 2.5-1 3.4-.4.9-1.4 1.8-1.8 1.8-.5 0-1.1-1.1-1.1-2 0-.4.1-.6.6-.8.6-.4 1.3-1 1.7-1.7.5-.7.5-.8 1.3-3.7h.4c0 1.2 0 1.6-.1 2.3h8.8zm-2 9c-.9 1.8-1.9 3.8-2.7 5.2.7.1.7.1 2.3.5 1.4.3 2.5.5 4.3 1.1 1.7-2.1 2.7-4 3.5-6.7h-7.4zm-10.9 32.3c.8.1 1.9.2 2.3.2h2c.4-.5.6-.7 1-1.3.9.6 1.1.8 1.9 1.4.1.1.1.2.1.3 0 .2 0 .2-1 .8v7.2c.7 1.3 1.1 1.9 1.8 2.3 1.1.7 3.2 1 7 1 3.2 0 10.2-.3 13-.5l-.1.5c-.7.1-1 .3-1.3.7-.3.3-.4.7-.4 1v.3h-10c-4.9 0-7.3-.6-9-2.2-.7-.7-1.2-1.4-1.9-3.1-2.2 2.8-2.8 3.5-3.4 4.3v.8c0 .5-.1.8-.4.8-.1 0-.2-.1-.3-.2-.2-.3-.5-.8-.7-1.3-.2-.4-.4-.9-.7-1.7l2.2-1.1c.7-.4 1.3-.8 2.2-1.5v-7.8H182c-.3 0-1.3.1-1.9.2l-.3-1.1zm1.4-11.4c1.6 1 2.9 1.9 3.9 2.9.6.5.9 1.2.9 1.9 0 .9-.6 2-1 2-.2 0-.4-.1-.6-.4-.1-.1-.1-.3-.4-1-.4-1.3-1.9-3.8-3.2-5.3l.4-.1zM197.9 48h3.6c.6-.8.8-1 1.6-1.8 1 .9 1.3 1.2 2.2 2.1l.1.1c0 .1-.1.3-.3.3h-7.2v3.2h5.2c.7-.8 1-1.1 1.9-2 1.1.9 1.4 1.2 2.5 2.2 0 .1.1.1.1.2s-.2.2-.4.2H198v3.3c0 .3-.1.4-.3.5-.1.1-1 .1-1.5.1-.2 0-.3-.1-.3-.4v-3.5H190c-1 0-1.4 0-2.2.2l-.4-1c.9.1 2.4.2 2.6.2h5.9v-3.2h-4.2c-1 .1-1.5.2-1.7.2l-.4-1.2c.3.1 1 .1 2.1.3h4.2v-3h-5.6c-1 .1-1.6.1-1.7.1l-.3-1.1c.3.1.5.1.6.1.7.1.9.1 1.4.1h3.1c-.3-.2-.4-.3-.6-1.5-.1-.7-.6-1.8-.9-2.3l.2-.2h-2.7c-.5 0-.6 0-1.6.1l-.3-1c1.1.1 1.3.2 1.9.2h6.5v-2.9h-5.2c-.7 0-.7 0-1.8.1l-.4-1c.6.1 1.8.2 2.2.2h5.2v-.5c0-.7 0-.7-.1-1.2 0-.6 0-.7-.1-1.2.6.1 1.1.2 1.4.2 1.5.2 1.7.3 1.7.6s-.2.4-1 .5V36h3.6c.7-.8 1-1 1.7-1.9 1.1.9 1.4 1.2 2.5 2.1.1.1.2.2.2.3 0 .1-.1.2-.4.2h-7.6v2.9h4.9c.7-.8.7-.8 1.8-1.9l2.5 2.2.2.2c0 .1-.1.2-.3.2h-6.7c2.1.7 2.5.9 2.5 1.1 0 .2 0 .2-1.3.3-.5.7-1.6 1.7-2.7 2.6h3.5c.5-.6 1.1-1.2 1.6-1.8 1.1.9 1.4 1.2 2.5 2.1.1.1.1.2.1.2 0 .1-.1.2-.4.2h-8.2v3zm-5.6-7.7c.1.1.2.1.3.2.4.3.6.5.7.6 1 .9 1.3 1.2 1.3 1.7s-.5 1.3-.8 1.5h4.3c1-1.6 1.6-2.7 1.9-4h-7.7zm2.2 34.6c.5 2.5 1.6 4.8 3.2 7.3 1.5 2.3 3.7 4.4 6.2 5.9 1.4.9 2.3 1.3 4.4 2l-.1.4c-1.3.1-1.7.4-2.5 2-2.8-1.8-4.2-3.1-6-5.3-2.9-3.5-5-8-5.7-12.5h-.1c-.6 4.3-2 7.8-4.3 10.7-1.6 2.1-3.8 4-6.3 5.5-1 .6-1.7 1-3.4 1.7l-.3-.5c4.1-2.4 6.3-4.4 8.4-7.4 2-2.9 3.3-6.4 3.7-10h-8.4c-.9 0-1.3 0-2.7.2l-.2-1.2c1.2.2 1.9.3 3.1.3h8.3c.1-1.8.3-4.5.3-6.2 0-.8 0-1-.1-1.9 3.2.3 3.2.3 3.5.4.2.1.3.2.3.4 0 .3-.3.5-1.4.9-.2 3.1-.3 4.4-.5 6.4h8.8c.7-1 1-1.3 1.8-2.4 1.4 1 1.8 1.3 3 2.4.1.1.1.3.1.4 0 .1-.2.2-.4.2h-12.7zm-3.3 10c1.7.8 3.1 1.6 4.4 2.6.7.6 1 1 1 1.8 0 .5-.2 1.1-.5 1.6-.1.3-.3.4-.5.4-.3 0-.3 0-.9-1-.9-1.6-.9-1.7-1.8-2.8-.8-1.1-1.1-1.5-2-2.3l.3-.3zm2.1 28.8c.9 2.3 1.6 3.4 3.5 5.3 1.6-.9 2.1-1.2 3.8-2.7 1.6-1.4 1.6-1.4 2.2-2.2 2.4 1.2 2.9 1.4 2.9 1.7 0 .2-.2.4-.6.4h-1c-.3.2-.3.2-2.1 1.2-.6.4-.6.4-3.7 1.8-.2.1-.3.1-.9.4.8.7 1.5 1.2 2.9 1.8 2.2 1 4.2 1.6 7 2l-.1.4c-1.5.4-1.6.6-2.4 2.2-3.1-1.2-4.4-1.9-6-3-2.5-1.8-4.4-4.2-5.5-7.1-.2-.6-.4-1-.7-2h-5.1v8.3c3.4-.7 4.6-1 7.2-1.8l.1.4c-1.9 1-3.5 1.6-6.4 2.6-3.5 1.2-3.9 1.3-5.2 1.8-.1.2-.1.4-.1.5-.1.6-.2.8-.4.8-.3 0-.7-.9-1.3-3.3 1.3-.1 1.3-.1 4.1-.6v-16c0-1.8 0-3.7-.1-4.7 1.1.6 1.4.8 2.4 1.4h4.9v-1.7c-.1-1.3-.1-2-.2-2.2 2.7.2 3.6.4 3.6.8 0 .3-.3.4-1.3.8v2.4h5c.4-.6.6-.8 1.1-1.4.9.6 1.1.8 2 1.6.2.1.2.2.2.3 0 .2-.3.5-1.1 1v9.3c0 .6 0 .6-1.7.7-.2 0-.3-.1-.3-.4v-.5h-6.7zm6.7-5.8v-4.1h-12.5v4.1H200zm-12.5.7v4.5H200v-4.5h-12.5zm-3.2 47.4v2c0 .4-.2.5-1.1.6h-.7c-.3 0-.4-.1-.4-.4.1-3.8.1-6.4.1-11 0-4.3 0-6.8-.1-8.8 2.9.4 3.2.5 3.2.8 0 .2-.2.4-1.1.7v15.5h8.2v-19c0-.9-.1-2.7-.1-3.5 2.8.3 2.9.4 3.3.5.2.1.3.2.3.3 0 .2-.2.3-1.3.7v21h8.7v-13.8c0-1.1-.1-2-.2-3.1.7.1 1.2.1 1.6.2 1.5.2 2 .3 2 .6s-.3.5-1.2.8l-.1 8.7c0 1.7 0 3.1.1 9.4 0 .4-.2.5-1.1.6h-.6c-.3 0-.4-.1-.4-.4V156h-19.1zm3.9 19.4c-2.1.7-3.1 1.1-3.9 1.6-.4.3-.6.3-.9.3-.3 0-.9-.4-1.3-.9-.5-.7-1-1.7-1-2.3 0-.1.1-.4.2-.7.6 1.3 1.2 1.6 2.3 1.6.7 0 2.7-.4 5.1-1 .7-1.7 1.2-3.9 1.2-4.9 0-.9-.6-1.4-2.3-2 .4-.2.5-.3.9-.3s1.2.2 2 .4c1.3.4 2.1.9 2.1 1.6 0 .2-.1.4-.4.9-.4.6-1 2-1.9 4.1 1.3-.3 1.9-.4 2.6-.4 2.6 0 3.8 1.5 3.8 4.7 0 3.8-1.5 8.8-3.3 10.8-.7.8-1.9 1.3-2.9 1.3-.5 0-.7-.2-.8-.7-.1-.8-.1-.9-3.3-3.5l.3-.4c2.3 1.3 4 2.1 4.6 2.1.7 0 1.2-.6 1.9-2.5 1-2.5 1.8-5.8 1.8-8.1 0-2-.5-2.7-2.1-2.7-.9 0-1.4.1-3.1.6-.4 1-.4 1-1.7 4.1-.1.3-.7 1.7-1.8 4.2-1.2 2.8-2.2 5-2.7 5.8-.2.4-.4.6-.7.6-.5 0-.9-.8-.9-2.1 0-.8.1-1 .7-1.7s1.3-1.9 2.2-3.5c1.1-2.2 1.1-2.2 2.4-5l.9-2zm11.7-1.9c2.3.7 4.2 1.9 5.5 3.6 1.1 1.5 1.7 2.9 1.7 4.3 0 1-.4 1.6-1.2 1.6-.2 0-.4 0-.7-.2-.5-.3-.7-.3-1.2-.3-1 0-1.2 0-3.7.3l-.1-.4c3-.9 3.7-1.1 4.6-1.5-.1-1-.4-1.9-.9-2.9-1-1.8-2.1-3-4.1-4l.1-.5zm-9.8 25.4c1 1.4 1.8 2 3.8 2.6.6.2 1.5.4 2.2.6.5.1.9.3 1.2.8.4.5.7 1 .7 1.3 0 .4-.3.6-.7.6-.1 0-.2 0-.6-.1-.5-.1-.8-.1-1.5-.1-1.5 0-3.8.3-5.7.8-.8.2-1.2.3-1.4.5-.2.2-.3.5-.3.8 0 .2.1.5.2.9.2.5.2.7.2 1 0 .2 0 .4-.1 1-.2 1.6-.4 4.1-.5 6.1 3.6-2.4 7-3.7 9.8-3.7 3.4 0 5.7 1.9 5.7 4.7 0 2.8-2.2 5.1-5.9 6.4-2 .7-4 1-6.8 1.2l-.1-.5c3.5-.6 5.5-1.3 7.5-2.7 2.1-1.5 3-3 3-4.9 0-2-1.4-3.3-3.6-3.3-2.1 0-4.8 1.2-7.2 3.3-.8.7-1.2 1.1-1.6 1.9-.3.5-.5.6-.8.6-.4 0-.8-.3-1.3-1-.4-.6-.6-1.2-.6-1.5 0 0 .1-.3.1-.5.1-.5.2-.7.3-1.8.1-.6.2-1.4.4-2.5.4-2.3.5-3.3.6-4 0-1 .1-1.3.5-1.7.4-.4 1.3-.8 3.1-1.4 2.6-.8 2.6-.8 3.5-1.1-1.2-.5-2-1-2.7-1.7-.6-.6-1-1.1-1.5-2.4l.1-.2zm-9.8 39c3.7 1.6 4.8 2.3 4.8 3.4 0 .8-.5 1.8-1 1.8-.2 0-.4-.2-.6-.6-.4-.8-.6-1-1.3-2-.9-1.2-1.2-1.4-2.1-2.2l.2-.4zm.4 11c1.1.3 1.5.4 1.8.4.3 0 .5-.3 1.1-1.6.3-.8.9-2.1 1.7-3.9.9-1.9 1.3-2.9 3.1-6.9l.5.3-4.2 12.2c-.1.4-.3 1.3-.3 1.4 0 .5.1.8.5 2.3.2.7.3 1.5.3 2.2 0 1.3-.8 2.3-1.9 2.3-.5 0-.8-.3-.8-.8 0-.3 0-.4.3-2 .2-.8.2-1.5.2-2.1 0-1.8-.4-2.4-2.4-3.4l.1-.4zm1.8-17.3c1.4.5 2.5 1.1 3.6 1.7.8.5 1.2 1 1.2 1.5 0 .8-.5 1.8-1 1.8-.2 0-.3-.1-1-1.1-.9-1.5-1.3-1.9-3-3.7l.2-.2zm15.6 15.1c-.2 1.4-.3 1.8-.5 2.7h6.2c.4-.4.8-.9 1.2-1.3.7.5.9.7 1.6 1.3.2.2.2.3.2.4 0 .2-.2.3-.8.8-.7 6.4-.9 6.8-4.6 7.4-.1-1-.3-1.4-1.1-1.6-.8-.3-1.9-.5-3.4-.6v-.5c2.4.2 4.2.4 5.2.4.5 0 .9-.2 1.1-.5.3-.5.5-1.7.8-4.9h-6.8c-.7 1.9-1.7 3.4-3.1 4.6-1.9 1.7-4 2.4-8.7 3.4l-.1-.6c5.5-1.3 8.5-3.5 10-7.4h-6.1c-.7 0-1.4.1-2.1.2l-.2-1.1c.9.2 1.3.2 2.3.2h6.3c.2-.8.3-1.2.5-2.7h-4.9v.6c0 .3-.3.4-1.5.4-.3 0-.4-.1-.4-.4.1-3 .1-3.3.1-4.2 0-2.6 0-4.8-.1-6 .9.5 1.1.7 2 1.3h6.6l-.4-.4c-1.2-1.3-2-2-4.2-3.2l.1-.3c2.3.6 3.7 1 5 1.6 1.6-1.4 1.9-1.6 3.1-2.9h-10c-1.1 0-1.6 0-2.5.2l-.2-1c.9.2 1.7.2 2.8.2h10.3c.6-.6.7-.7 1.3-1.2 1 .7 1.3.9 2.2 1.5.3.2.4.4.4.4s-.1.2-.2.2c-.2.1-.2.1-1.7.2-1.9 1.3-2.6 1.7-4.9 2.8.2.3.2.4.2.7 0 .5-.2.9-.5 1.2h4.9c.5-.6.5-.6 1-1.3.8.6.8.6 1.6 1.1.2.2.3.3.3.4 0 .2-.1.3-.9.9v7.5c0 .2-.1.3-.2.4-.2.1-.9.2-1.3.2-.3 0-.4-.1-.4-.3v-.7h-5.5zm-1.9-7.5h-5v2.9h5v-2.9zm-5 3.6v3.2h5v-3.2h-5zm12.5-.6v-2.9H198v2.9h5.7zm-5.6 3.9h5.7v-3.2h-5.7v3.2zm-13.9 23.8c1.4 1 2.4 1.4 4 1.4 1.4 0 3.6-.4 4.9-.9-.7-1.3-1.9-2.9-2.6-3.4-.4-.3-1.2-.5-2.3-.6.2-.5.4-.6 1.2-.8.5-.1.8-.1 1.4-.1 1 0 1.8.1 2 .4.3.2.3.3.4 1.2 0 .6 0 .6 1.2 3 2.8-1 3.5-1.4 4.3-2.2.2-.2.5-.3 1-.3 1.2 0 1.8.3 1.8.8 0 .4-.4.7-1.9 1.3-.5.2-1.9.7-4.4 1.5.3.5.3.5.7 1.1.2.3.7 1.1 1.5 2.5 2.4-.9 2.9-1.2 3.7-1.7-.6-.7-.8-.8-1.6-1.4l.2-.3c1.1.6 1.9.8 2.5.8l.5-.1h.2c.5 0 .8.3.8.8 0 .7-1.7 1.6-5.8 3.1.9 1.6 1.1 1.9 1.3 2.3l1.4 2.4c.4.6.5 1 .5 1.6 0 1.2-.4 2-1 2-.3 0-.4-.1-.8-.5-1.5-1.2-4.3-2.1-7-2.1-1.4 0-2.7.3-3.7.8-1.2.6-1.8 1.4-1.8 2.4 0 1.9 2 2.9 5.7 2.9 1.5 0 2.3-.1 3.8-.4.1 0 .3-.1.4-.1.9 0 2 .8 2 1.6 0 .2-.1.5-.4.6-.6.2-2.4.4-4.1.4-2.3 0-4.4-.3-5.8-.9-1.8-.8-2.9-2.2-2.9-3.8 0-2.7 3.2-4.5 7.9-4.5 1.8 0 3.4.2 5.6.7-.3-1.2-1.1-3-2.2-5.1-2 .7-4.6 1.1-6.4 1.1-1.3 0-2.2-.3-3.1-.9-.6-.4-.9-.8-1.4-1.8l.4-.3c1 1.3 1.9 1.8 3.5 1.8 1.7 0 3.9-.4 6.4-1.1-.6-1.2-1.4-2.5-2.1-3.6-2 .6-4 1-5.6 1-1.6 0-3.1-.7-4.4-2.2l.1-.4zm8.4 30.9c0-1.5 0-1.6-.1-3.6 3.1.3 3.5.4 3.5.8 0 .3-.3.4-1.2.7v9.6h7.3V303c0-.7 0-.9-.1-2.2 0-.6 0-.6-.1-1.2 2.9.4 3.3.5 3.3.8 0 .2-.2.4-1 .7-.1 3.8-.1 3.8-.1 4.7 0 1.1 0 2.2.1 4.4 0 .4-.1.5-.3.5-.2 0-.9.1-1.3.1s-.5-.1-.5-.5v-1.1h-7.3v12.3h8.6V316c0-1.1-.1-2.3-.1-3.1 2.9.4 3.3.4 3.3.8 0 .3-.3.5-1 .7v1.8c0 1.9 0 4.3.1 7.7 0 .3-.1.4-.4.4-.4.1-.8.1-1.2.1-.6 0-.7-.1-.7-.4v-2h-19.1v1.7c0 .3-.1.4-.4.5-.3 0-.8.1-1.1.1-.5 0-.7-.1-.7-.5v-.1c.1-2.5.2-3.6.2-6 0-2.2 0-3.4-.1-5 3.4.5 3.4.5 3.4.8 0 .3-.1.3-1.2.7v7.1h8.3V309h-7v1.1c0 .3-.1.4-.3.5-.2.1-.9.1-1.3.1s-.5-.1-.5-.5l.1-4.4c0-3.5 0-5.5-.1-6.3 2.1.2 3.1.3 3.4.5.1 0 .1.2.1.3 0 .3 0 .3-1.3.8v7.3h7v-7.6zm3.6 33.4c-1.2.4-4 1.5-6.1 2.4-.6.3-1 .4-1.2.4-.5 0-1.1-.4-1.7-1.3-.5-.8-.8-1.6-.8-2.2 0-.3.1-.5.3-.8.4 1.4 1.3 2.2 2.2 2.2.8 0 3.6-.7 5.7-1.3 1.2-.4 1.2-.4 1.9-.9.1-.1.3-.1.4-.1.4 0 .9.3 1.6 1 .7.7.9 1 .9 1.3 0 .2-.2.4-.5.6-.9.5-1.2.7-2.5 2-1.9 1.9-3 3-4.4 4.5-2.9 3.1-2.9 3.1-3.5 3.7l.1.1c3.2-2 5.6-2.8 8.2-2.8 3.8 0 6.4 2.3 6.4 5.6 0 4.3-4 7.5-9.4 7.5-2.9 0-4.8-1.2-4.8-3 0-1.5 1.4-2.6 3.2-2.6 1.5 0 2.8.5 3.8 1.5.5.5.9 1 1.3 1.9 2.3-1 3.6-3.1 3.6-5.6 0-1.7-.7-3-1.9-3.7-.6-.4-1.8-.6-3-.6-2.9 0-7 2.4-9.5 5.6-.5.6-.7.8-1 .8-.4 0-1-1.1-1-2 0-.4.2-.7.6-1 1.1-.9 1.6-1.3 4.2-4.2 3.7-4.1 4.8-5.4 7.2-8.5.2-.3.2-.3.3-.5l-.1-.1h-.1s-.1 0-.1.1h-.3zm-4.6 17.2c-1.1 0-1.9.6-1.9 1.5 0 1.1 1.3 1.8 3.4 1.8.8 0 1.2-.1 2.1-.3-.5-1.8-1.9-3-3.6-3zM146.7 11.7V4.5h-14.9V3.2H148v8.5h-1.3zM134.6 36c1.2 1.9 2.2 2.8 4 3.8 2.5 1.4 4.8 2 9.3 2.3v.4c-1.2.4-1.7.9-2.1 2.2-2.8-.6-4.4-1.2-6.4-2.4-2.4-1.5-4-3.3-5.5-6.1-.6 1.8-1.5 3.2-2.8 4.5-2.5 2.3-5.9 3.7-10.8 4.3l-.1-.4c3.3-.8 6-1.9 8.1-3.7 1.7-1.5 2.8-2.9 3.4-4.9h-7.6c-1 0-1.5 0-2.9.2l-.3-1.2c1 .2 2.4.3 3.2.3h7.9c.2-1 .3-1.6.3-2.3 0-.2 0-.5-.1-.9 2.8.4 3.3.6 3.3.9 0 .3-.3.5-1 .5-.1.9-.1 1.2-.3 1.8h8.5c.7-.8.9-1.1 1.6-1.9 1.2.8 1.5 1.1 2.6 2.1.1.1.2.3.2.3 0 .1-.1.2-.1.2h-12.4zm.9-13.7c.8-1.1 2.1-3.4 2.5-4.6 2.6.8 3.2 1 3.2 1.3 0 .3-.4.4-1.5.5-1 1-2.3 2.1-3.4 2.8h5.8c.7-.8.9-1.1 1.7-1.8 1.1.9 1.4 1.1 2.5 2.1.1.1.1.2.1.3 0 .1-.2.2-.4.2h-11.7v3.7h5.9c.7-.8.9-1.1 1.6-1.8 1.1.9 1.4 1.1 2.5 2l.2.2c0 .1-.2.2-.4.2h-9.7V31h8.6c.5-.6 1-1.2 1.6-1.8 1.1.8 1.5 1.1 2.5 2 .2.1.2.2.2.3 0 .1-.2.2-.4.2h-23.5l-1.6.1c-.6 0-.6 0-1.2.1l-.2-1.2c1.1.2 1.9.3 3.1.3h8.9v-3.6h-5.7c-1.3 0-1.8 0-2.6.2l-.2-1.1c.9.2 1.8.3 2.8.3h5.7V23h-7.5c-2.1.1-2.1.1-2.8.1L122 22c.7.2 2.1.3 2.8.3h4.8c-.1-.2-.1-.2-.4-.9-.4-1.1-1.3-2.3-2.3-3.4l.3-.3c1.2.5 2 1 2.8 1.6.7.6 1 .9 1 1.5 0 .5-.2 1-.6 1.5h5.1zm-15.2 55c2.8-1.9 4.2-3.3 5.7-5.3 2.7-3.6 4.5-7.6 5.4-12.2.4-2.3.7-4.5.7-6.4 0-.6 0-.9-.1-1.7 3.3.4 3.6.5 3.6.8 0 .2-.1.3-1.3.8v.9c0 4.4 1.6 9.5 4.2 13.2 1.6 2.3 3.7 4.3 6.1 5.8 1.1.7 1.8 1 3.4 1.7v.4h-.2c-.7 0-1.2.2-1.5.6-.3.3-.4.6-.9 1.5-3-1.9-5.3-4.2-7.2-7.3-1.4-2.2-2.7-5.4-3.5-8.4-.4-1.3-.5-2.3-.7-4.4-.9 5.6-2.3 9.4-4.8 13-2.3 3.3-4.8 5.3-8.8 7.4l-.1-.4zm13.3 31.2c3.2-1 5.3-2.2 7-4.2 1.8-2 2.7-4.5 2.7-7.2 0-2.9-1.2-5.2-3.4-6.6-1.3-.9-3.3-1.4-5.2-1.4-.4 0-.6 0-1 .1.7 1 .9 1.6.9 2.5 0 2.3-1.7 6.7-4 10.4-1.9 3-3.4 4.5-4.5 4.5-.5 0-1-.2-1.3-.6-.3-.4-.3-.5-.8-1.9-.3-.8-.4-1.1-1.3-2.8-.5-1-.7-1.8-.7-2.7 0-1.9 1-4.1 2.7-5.9 2.4-2.6 6.4-4.2 10.3-4.2 3 0 5.8 1 7.7 2.8 1.9 1.8 2.9 4.1 2.9 7 0 3.8-2.2 7.1-6 9.1-1.7.9-3.3 1.4-5.8 1.9l-.2-.8zm-9.9-9.3c0 1.4.4 2.9 1.2 4 .4.5.8.9 1.1.9.7 0 2.1-1.6 3.6-4 2.2-3.5 3.8-7.4 3.8-9.3 0-.5-.1-.8-.4-1.5-5.2.9-9.3 5.2-9.3 9.9zm-3.5 24.9c3.5 1.3 4.6 2.1 4.6 3.3 0 .9-.5 1.8-1 1.8-.3 0-.4-.2-.7-.7-.7-1.5-1.6-2.7-3.1-4.1l.2-.3zm.3 11c.8.1 1.5.3 1.7.3.5 0 .6-.2 1.9-2.9 1-2 1.4-3.1 2.8-6.3 1.1-2.5 1.1-2.5 1.5-3.4l.4.2-4.3 12.8c-.4.9-.4 1-.4 1.3 0 .6.1 1 .6 2.6.2.7.3 1.1.3 1.7 0 .7-.2 1.3-.6 1.8-.4.5-1 .8-1.6.8-.4 0-.7-.2-.7-.7 0-.4 0-.4.2-1.8.1-.9.2-2 .2-2.8 0-1-.1-1.5-.5-2-.3-.4-.7-.6-1.8-1l.3-.6zm1.7-17.5c1.8.6 2.9 1.2 3.9 2 .6.5.9.9.9 1.4 0 .9-.4 1.8-.9 1.8-.3 0-.5-.2-.9-.9-.9-1.6-1.5-2.4-3.1-4l.1-.3zm20.2 16.3c-1.5 2.5-2.1 3.4-3.4 4.7-1.2 1.2-3.1 2.7-4.9 3.7-1 .5-1.7.9-3.5 1.5l-.2-.4c3.1-1.9 4.7-3.1 6.7-5.3 1.4-1.5 2.1-2.4 3.2-4.3h-2.9c-1.4 1.8-1.9 2.3-2.9 3.4-2.3 2.2-4 3.3-7.2 4.7l-.2-.4c3.3-2.1 4.9-3.5 6.6-5.6.6-.7.7-1 1.5-2.2h-2.9c-2.1 2.4-3.6 3.5-6.7 5.1l-.2-.4c2.6-1.9 4-3.4 5.7-5.8.5-.8.8-1.2 1.4-2.4h-3.7c-.4 0-1 .1-1.4.2l-.2-1.1c.7.2 1.1.3 1.6.3h14.8c.7-.8.9-1.1 1.6-1.8 1.1.8 1.4 1.1 2.5 2 .1.1.1.2.1.3 0 .1-.1.2-.3.2h-12.8c-.8 1.4-1.1 1.9-1.8 2.8H144c.4-.5.6-.7 1.1-1.2.7.6 1 .8 1.6 1.3.2.2.3.3.3.4 0 .2-.2.3-1 .7-.4 3.9-1 6.3-1.6 7.7-.6 1.2-1.6 1.8-3.5 2-.2-.9-.3-1.2-.8-1.5-.7-.4-1.5-.7-2.7-1l.1-.4c.8.1.8.1 2.3.3.3.1 1.7.1 2 .1.6 0 .9-.2 1.2-1.1.5-1.3.9-4 1.1-6.8h-1.7zm-9.7-5.7c0 .4-.2.5-1.3.5-.5 0-.7-.1-.7-.4v-.1c.1-4.1.1-4.1.1-6.2 0-3.2 0-3.4-.1-4.7.9.5 1.2.7 2.1 1.3h8.3c.5-.5.6-.7 1.1-1.2.7.5.9.7 1.6 1.2.2.2.3.3.3.4 0 .2-.1.3-.9.8 0 5 0 6 .1 8.1 0 .2-.1.3-.2.4-.2.1-.9.2-1.3.2s-.5-.1-.5-.5v-.8h-8.7v1zm8.7-8.8h-8.7v3.3h8.7v-3.3zm-8.7 4v3.3h8.7v-3.3h-8.7zM121 150.7v7.2h14.9v1.3h-16.2v-8.5h1.3zm8.4 33.7c.9 0 2.3.3 3 .6.6.2.8.5.8 1v.1c0 .2 0 .2-.2.8-.4 1-.7 3.6-.7 6.1 0 1.8.2 2.2 1.2 2.2.6 0 1.3-.2 4-1.5.5-.3.9-.4 1.2-.4.7 0 1.4.6 1.4 1.3 0 .4-.2.7-.6.9-.2.1-.6.2-2 .6-3.6 1-5.6 1.9-7.5 3.4-1.6 1.3-2.3 2.4-2.3 3.8 0 2.2 1.7 3.3 5 3.3 1.9 0 4.8-.4 7-.9.3-.1.4-.1.6-.1.8 0 1.6.7 1.6 1.5 0 .5-.3.8-1.3 1-1 .2-4 .4-5.8.4-2.2 0-3.8-.2-5.1-.7-2-.8-3.3-2.5-3.3-4.4 0-1.7 1-3.4 2.9-5 .9-.8 1.9-1.4 3.7-2.4-.7 0-.9-.1-1.4-.4-.4-.3-.7-1-.9-2.3-.1-.7-.1-1.4-.2-3.6-.1-2.6-.1-3-.4-3.4-.3-.6-.9-.9-2.2-1.1.7-.7.9-.8 1.5-.8zm14.6 51.3c-2.9 3.9-6.8 6.2-10.5 6.2-2.3 0-4-.9-5-2.6-.6-1-.8-2.5-.8-5.1 0-1.7.1-4.5.2-7.2.2-3.2.2-4.1.2-5.2 0-2.6-.3-3.1-2.4-4 .3-.2.5-.3.8-.3.7 0 1.8.3 2.7.7 1.1.5 1.7 1.1 1.7 1.8 0 .2 0 .4-.3 1.1-.6 1.8-1.6 10.9-1.6 14.4 0 1.8.4 2.9 1.2 3.6.7.5 1.6.8 2.7.8 2 0 4.6-.7 6.8-1.9 1.4-.7 2.2-1.3 3.8-2.7l.5.4zm-21 20.4c.4.4.7.5 1.3.5.8 0 1.6-.1 8.3-1.8 1.3-.3 2.9-.7 4.9-1 2.3-.5 3.1-.7 4-1 .6-.2.8-.2 1-.2.4 0 1 .3 1.6.6.6.4.9.7.9 1.1 0 .5-.4.8-.9.8h-.5c-.4-.1-.5-.1-.8-.1-5.1 0-10.1 4.9-10.1 9.9 0 2.8 1.4 4.8 4 5.9 1 .4 2.2.7 3.1.7.6 0 .8.1 1.3.5.5.5.9 1.1.9 1.4 0 .5-.4.8-1.1.8-1.7 0-4.4-1-6.1-2.2-2.3-1.6-3.5-3.9-3.5-6.7 0-2.4 1.2-5.1 3.3-7.3 1.2-1.3 2.4-2.1 4.9-3.4-2.7.4-5.2 1-8.6 2.1-1.9.6-3.8 1.4-4.8 1.9-.6.4-.8.4-1.2.4-.7 0-1.6-.7-2.3-1.8-.5-.7-.8-1.5-.8-2 0-.2.1-.4.3-.8.2.9.4 1.3.9 1.7zM69.3 6.2c-.1 3.9-.1 4.3-.3 6.7h2c.7-.8.9-1.1 1.6-1.9 1.1.9 1.4 1.2 2.4 2.1.1.1.1.2.1.2 0 .1-.1.2-.3.2H69c-.1 1.4-.3 2.2-.6 3.4l.6.3c2.4 1.3 4.3 2.6 5 3.4.4.4.5.9.5 1.4 0 1.1-.4 2-.9 2-.2 0-.3-.1-.5-.5-.8-1.6-1.5-2.6-2.7-3.9-.9-1.1-1.7-1.8-2.2-2.3-.5 1.7-1.2 3-2.1 4.4-1.4 2-3 3.3-5.5 4.6l-.3-.4c2.3-1.7 3.7-3.3 4.8-5.6 1-2 1.5-4.1 1.8-6.9h-4.3c-.6 0-1 0-1.9.1l-.3-1c1 .2 1.5.2 2.5.2h4c.2-2.4.2-3 .2-6.7h-2.5c-1.4 3-2 3.8-3.6 5.3l-.3-.3c1.5-2.1 2.5-4.1 3.5-7.2.5-1.5.7-2.4 1-3.7 2.7.5 3.3.7 3.3 1 0 .3-.3.4-1.3.5-.7 1.6-1 2.4-1.9 3.9H71c.6-.8.8-1.1 1.5-1.9 1.1.9 1.4 1.2 2.4 2.1 0 .2.1.3.1.3 0 .1-.1.2-.2.2h-5.5zm14.5-1.1c.4-.6.6-.8 1.1-1.4.8.6 1 .8 1.7 1.4.2.1.3.3.3.4 0 .2-.2.3-.9.8v10.4c0 .1.1 4.7.1 7.8-.1.5-.4.6-1.5.6-.5 0-.6-.1-.6-.4v-1.5h-6v2c-.1.4-.3.5-1.3.5-.6 0-.7-.1-.8-.4.1-3.2.1-5.4.1-10.2 0-7.8 0-10.3-.1-11.4 1.1.6 1.4.8 2.4 1.4h5.5zM78 22.4h6V5.8h-6v16.6zm-7.8 11.4c1 1.4 1.8 2 3.8 2.6.6.2 1.5.4 2.2.6.5.1.9.3 1.2.8.4.5.7 1 .7 1.3 0 .4-.3.6-.7.6-.1 0-.2 0-.6-.1-.5-.1-.8-.1-1.5-.1-1.5 0-3.8.3-5.7.8-.8.2-1.2.3-1.4.5-.2.2-.3.5-.3.8 0 .2.1.5.2.9.2.5.2.7.2 1 0 .2 0 .4-.1 1-.2 1.6-.4 4.1-.5 6.1 3.6-2.4 7-3.7 9.8-3.7 3.4 0 5.7 1.9 5.7 4.7 0 2.8-2.2 5.1-5.9 6.4-2 .7-4 1-6.8 1.2l-.1-.5c3.5-.6 5.5-1.3 7.5-2.7 2.1-1.5 3-3 3-4.9 0-2-1.4-3.3-3.6-3.3-2.1 0-4.8 1.2-7.2 3.3-.8.7-1.2 1.1-1.6 1.9-.3.5-.5.6-.8.6-.4 0-.8-.3-1.3-1-.4-.6-.6-1.2-.6-1.5 0 0 .1-.3.1-.5.1-.5.2-.7.3-1.8.1-.6.2-1.4.4-2.5.4-2.3.5-3.3.6-4 0-1 .1-1.3.5-1.7.4-.4 1.3-.8 3.1-1.4 2.6-.8 2.6-.8 3.5-1.1-1.2-.5-2-1-2.7-1.7-.6-.6-1-1.1-1.5-2.4l.1-.2zm-2.9 43.5c0-.5 0-.5.1-1.3.1-.6.1-.6.1-1-.9.6-2.5 1.7-3 2.1-.6.4-.7.5-1 .5-.8 0-2.2-1.8-2.2-2.7 0-.1 0-.3.1-.5.7 1 1.3 1.4 1.9 1.4.6 0 2.5-.8 4.3-1.8.1-1.3.2-2.1.2-3.2 0-1.7-.3-2.3-1.7-3.3.2-.1.2-.1.4-.1.5 0 1.1.3 1.9.8 1 .7 1.6 1.4 1.6 2 0 .3 0 .3-.3 1.2-.2.6-.4 1.5-.5 2.4.7.7.9.9.9 1.2 0 .2 0 .2-.4.9s-.7 1.2-1 2c-.1.5-.1.6-.1 1.1 2.9-2.8 3.9-3.7 5.2-4.6 2.1-1.5 3.5-2.1 4.8-2.1.9 0 1.8.4 2.4 1.1.6.7.8 1.5.8 2.6s0 1.4-.6 4.4c-.4 2-.5 3.7-.5 4.9 0 1.2.2 1.8.7 2.2.4.3 1 .4 1.5.4 1.5 0 3.6-.8 5.6-2.1l.2.4c-2.2 2.2-4.5 3.5-6.6 3.5-2.3 0-3.5-1.5-3.5-4.2 0-1.1.3-3 .7-5.3.7-3.2.7-3.6.7-4.7 0-1.5-.7-2.3-1.8-2.3-1.3 0-2.8.9-5.2 3-1.6 1.4-3 2.8-4.6 4.7v1.6c0 1.6.1 3.1.3 5.4.1.7.1 1 .1 1.4 0 1.7-.6 3.1-1.3 3.1-.3 0-.6-.2-.7-.8-.1-.3-.4-1.2-.5-1.4-.3-.6-1.3-1.8-2.6-3.3-.6 1.4-.7 1.6-1 1.6-.3 0-.5-.2-.7-.7-.2-.5-.3-1.2-.3-1.7 0-.4 0-.4.5-.9s1-1.1 1.9-2.7l3.2-5.2zm-1.9 5.6c-.7 1.3-1 2-1.6 3.2 1.8 1.5 2.3 1.9 3.2 2.4.1-1.1.1-1.1.1-5.6 0-1.5 0-2.2.1-3.4-.4.9-.4.9-1.8 3.4zm11 20.3c-1.2.4-4 1.5-6.1 2.4-.6.3-1 .4-1.2.4-.5 0-1.1-.4-1.7-1.3-.5-.8-.8-1.6-.8-2.2 0-.3.1-.5.3-.8.4 1.4 1.3 2.2 2.2 2.2.8 0 3.6-.7 5.7-1.3 1.2-.4 1.2-.4 1.9-.9.1-.1.3-.1.4-.1.4 0 .9.3 1.6 1 .7.7.9 1 .9 1.3 0 .2-.2.4-.5.6-.9.5-1.2.7-2.5 2-1.9 1.9-3 3-4.4 4.5-2.9 3.1-2.9 3.1-3.5 3.7l.1.1c3.2-2 5.6-2.8 8.2-2.8 3.8 0 6.4 2.3 6.4 5.6 0 4.3-4 7.5-9.4 7.5-2.9 0-4.8-1.2-4.8-3 0-1.5 1.4-2.6 3.2-2.6 1.5 0 2.8.5 3.8 1.5.5.5.9 1 1.3 1.9 2.3-1 3.6-3.1 3.6-5.6 0-1.7-.7-3-1.9-3.7-.6-.4-1.8-.6-3-.6-2.9 0-7 2.4-9.5 5.6-.5.6-.7.8-1 .8-.4 0-1-1.1-1-2 0-.4.2-.7.6-1 1.1-.9 1.6-1.3 4.2-4.2 3.7-4.1 4.8-5.4 7.2-8.5.2-.3.2-.3.3-.5l-.1-.1h-.1s-.1 0-.1.1h-.3zm-4.7 17.2c-1.1 0-1.9.6-1.9 1.5 0 1.1 1.3 1.8 3.4 1.8.8 0 1.2-.1 2.1-.3-.5-1.9-1.9-3-3.6-3zm11.3 19c.8-1 1-1.4 1.8-2.3 1.4 1 1.8 1.4 3 2.5.1.1.1.2.1.3 0 .1-.1.2-.3.2H74.9v7h5.5c.6-.7.8-.9 1.3-1.5.9.6 1.1.8 1.9 1.4.2.1.3.3.3.4 0 .2-.2.4-1.1.9v4.6c0 2.6 0 4.1.1 5.8 0 .3-.4.4-1.6.4-.5 0-.7 0-.7-.3v-1.9H66.9v1.9c0 .4-.4.5-1.6.5-.5 0-.7-.1-.7-.3.1-2.1.1-3.1.1-8.2 0-2.3 0-2.5-.1-5.3 1.2.6 1.5.8 2.6 1.6h5.5v-7h-9.1c-1.4 0-1.9 0-2.7.2l-.2-1.2c.8.2 1.5.3 2.8.3h9.1v-3.8c0-1.7 0-2.3-.1-3.7.7.1 1.3.1 1.6.1 1.7.2 2.1.2 2.1.6 0 .3-.3.4-1.4.8v5.9H83zm-16.1 16.8h13.8v-8.4H66.9v8.4zm6.8 33.3c3.2-1 5.3-2.2 7-4.2 1.8-2 2.7-4.5 2.7-7.2 0-2.9-1.2-5.2-3.4-6.6-1.3-.9-3.3-1.4-5.2-1.4-.4 0-.6 0-1 .1.7 1 .9 1.6.9 2.5 0 2.3-1.7 6.7-4 10.4-1.9 3-3.4 4.5-4.5 4.5-.5 0-1-.2-1.3-.6-.3-.4-.3-.5-.8-1.9-.3-.8-.4-1.1-1.3-2.8-.5-1-.7-1.8-.7-2.7 0-1.9 1-4.1 2.7-5.9 2.4-2.6 6.4-4.2 10.3-4.2 3 0 5.8 1 7.7 2.8 1.9 1.8 2.9 4.1 2.9 7 0 3.8-2.2 7.1-6 9.1-1.7.9-3.3 1.4-5.8 1.9l-.2-.8zm-9.9-9.3c0 1.4.4 2.9 1.2 4 .4.5.8.9 1.1.9.7 0 2.1-1.6 3.6-4 2.2-3.5 3.8-7.4 3.8-9.3 0-.5-.1-.8-.4-1.5-5.2.9-9.3 5.3-9.3 9.9zm-3.5 24.9c3.5 1.3 4.6 2.1 4.6 3.3 0 .9-.5 1.8-1 1.8-.3 0-.4-.2-.7-.7-.7-1.5-1.6-2.7-3.1-4.1l.2-.3zm.2 11c.8.1 1.5.3 1.7.3.5 0 .6-.2 1.9-2.9 1-2 1.4-3.1 2.8-6.3 1.1-2.5 1.1-2.5 1.5-3.4l.4.2-4.3 12.8c-.4.9-.4 1-.4 1.3 0 .6.1 1 .6 2.6.2.7.3 1.1.3 1.7 0 .7-.2 1.3-.6 1.8-.4.5-1 .8-1.6.8-.4 0-.7-.2-.7-.7 0-.4 0-.4.2-1.8.1-.9.2-2 .2-2.8 0-1-.1-1.5-.5-2-.3-.4-.7-.6-1.8-1l.3-.6zm1.7-17.4c1.8.6 2.9 1.2 3.9 2 .6.5.9.9.9 1.4 0 .9-.4 1.8-.9 1.8-.3 0-.5-.2-.9-.9-.9-1.6-1.5-2.4-3.1-4l.1-.3zm20.2 16.2c-1.5 2.5-2.1 3.4-3.4 4.7-1.2 1.2-3.1 2.7-4.9 3.7-1 .5-1.7.9-3.5 1.5l-.2-.4c3.1-1.9 4.7-3.1 6.7-5.3 1.4-1.5 2.1-2.4 3.2-4.3h-2.9c-1.4 1.8-1.9 2.3-2.9 3.4-2.3 2.2-4 3.3-7.2 4.7l-.2-.4c3.3-2.1 4.9-3.5 6.6-5.6.6-.7.7-1 1.5-2.2h-2.9c-2.1 2.4-3.6 3.5-6.7 5.1l-.2-.4c2.6-1.9 4-3.4 5.7-5.8.5-.8.8-1.2 1.4-2.4h-3.7c-.4 0-1 .1-1.4.2l-.2-1.1c.7.2 1.1.3 1.6.3h14.8c.7-.8.9-1.1 1.6-1.8 1.1.8 1.4 1.1 2.5 2 .1.1.1.2.1.3 0 .1-.1.2-.3.2H74.6c-.8 1.4-1.1 1.9-1.8 2.8h11.1c.4-.5.6-.7 1.1-1.2.7.6 1 .8 1.6 1.3.2.2.3.3.3.4 0 .2-.2.3-1 .7-.4 3.9-1 6.3-1.6 7.7-.6 1.2-1.6 1.8-3.5 2-.2-.9-.3-1.2-.8-1.5-.7-.4-1.5-.7-2.7-1l.1-.4c.8.1.8.1 2.3.3.3.1 1.7.1 2 .1.6 0 .9-.2 1.2-1.1.5-1.3.9-4 1.1-6.8h-1.6zm-9.7-5.7c0 .4-.2.5-1.3.5-.5 0-.7-.1-.7-.4v-.1c.1-4.1.1-4.1.1-6.2 0-3.2 0-3.4-.1-4.7.9.5 1.2.7 2.1 1.3h8.3c.5-.5.6-.7 1.1-1.2.7.5.9.7 1.6 1.2.2.2.3.3.3.4 0 .2-.1.3-.9.8 0 5 0 6 .1 8.1 0 .2-.1.3-.2.4-.2.1-.9.2-1.3.2s-.5-.1-.5-.5v-.8h-8.7v1zm8.7-8.7h-8.7v3.3h8.7v-3.3zm-8.7 3.9v3.3h8.7v-3.3h-8.7zm15.4 30.9c0 2.1-1.7 3.9-3.9 3.9s-3.9-1.7-3.9-3.9c0-2.1 1.7-3.9 3.9-3.9 2.2.1 3.9 1.8 3.9 3.9zm-6.8 0c0 1.6 1.3 2.9 2.9 2.9 1.6 0 2.9-1.3 2.9-2.9 0-1.6-1.3-2.9-2.9-2.9-1.6 0-2.9 1.3-2.9 2.9zM.3 7.3c3.4 1.1 4.6 1.9 4.6 3 0 .9-.4 1.8-.9 1.8-.2 0-.4-.1-.6-.5C2.6 10.2 1.6 9 .1 7.7l.2-.4zM23.7 9c.7-.9 1-1.1 1.7-1.9 1.1.9 1.5 1.1 2.6 2.1.1.1.1.2.1.3 0 .1-.1.2-.3.2h-10v3h6c.4-.4.7-.7 1-1.1.8.5 1 .7 1.7 1.2.2.2.2.3.2.4 0 .2-.1.3-1 .8v6.4c0 1.1 0 2.4.1 4.6 0 .6-.1.9-.3 1.1-.4.5-1 .7-2.8 1.1-.1-.7-.2-1-.7-1.4-.4-.3-.8-.4-3.4-.8v-.4c3.3.1 3.3.1 4.6.1.5 0 .6-.1.6-.5V13.4h-6.1v7.8H20v-3.8c0-.8 0-1.2-.1-2 2.7.3 2.9.4 2.9.7 0 .2-.2.3-1 .6 0 4.7 0 4.7.1 5.9 0 .2-.1.3-.2.3-.3.1-.9.1-1.3.1-.3 0-.4 0-.4-.3v-.8h-6.1v1.3c0 .4-.2.5-.9.5h-.5c-.3 0-.4-.1-.4-.3.1-1.4.1-2 .1-3.7 0-2.6 0-3.4-.1-4.4 2.7.3 2.9.3 2.9.6 0 .2-.2.3-1.1.6v4.6H16v-7.8h-5.7v13.3c0 .5-.3.6-1.6.6-.3 0-.4-.1-.4-.3v-.1c0-1.5.1-9.1.1-12.3 0-1 0-2.1-.1-3.2.9.5 1.3.7 2.3 1.3H16v-3H7.5l-2.8 9.1c-.1.4-.3 1.1-.3 1.4 0 .2 0 .2.4 1.5.3 1.1.4 2 .4 2.7 0 .8-.3 1.5-1 2-.4.3-.8.5-1.2.5-.4 0-.5-.2-.5-.7 0-.1 0-.4.1-1 .1-1.2.2-2.7.2-3.6 0-.9-.2-1.6-.5-1.9-.3-.3-.6-.5-2-1l.1-.4c.3.1.5.1.6.1.6.1 1 .2 1.2.2.4 0 .4-.1.8-.8C4 16 6.9 9.1 8 6l.5.2L7.7 9h5V5.1H11c-1.1 0-1.6 0-2.5.2l-.2-1.2c1.1.2 1.9.3 2.9.3h1.5V2.3c0-.2 0-.6-.1-1.2 0-.2 0-.6-.1-1.1.6.1 1 .1 1.3.2 1.8.3 2.2.3 2.2.6 0 .2-.2.3-1.4.7v2.9h4.7V2.2c0-.5 0-.9-.1-2.1.6.1 1.1.2 1.4.2 1.6.2 1.9.3 1.9.6 0 .2-.3.4-1.3.6v3h1.7c.7-.8.9-1.1 1.6-1.8 1.1.8 1.4 1.1 2.5 2 .1.2.1.2.1.3 0 .1-.1.2-.3.2h-5.6V9h2.5zM2.2.8C5.4 1.9 7 2.9 7 4c0 .9-.4 1.8-.9 1.8-.2 0-.4-.2-.6-.5-.8-1.5-2-2.8-3.6-4.2l.3-.3zm17 4.3h-4.7V9h4.7V5.1zM3.1 39.3c1.3 1.3 2.1 1.7 4 1.7.7 0 1.3-.1 2.1-.2.1-.5.1-.5.4-2.2.2-.9.4-2.1.4-2.5 0-1-.7-1.4-2.2-1.6.6-.4.9-.5 1.5-.5.9 0 2 .3 2.8.7.6.3.9.7.9 1.1 0 .3-.1.4-.4.9-.5.6-1 1.9-1.8 4 2.3-.4 4.4-1.2 5.3-2 .2-.2.3-.3.6-.3.4 0 1 .1 1.4.3.4.2.7.4.7.7 0 .5-.5.9-1.7 1.3-1.9.8-4.1 1.2-6.7 1.5-.8 3-1.2 6-1.3 8.3 3.3-1.7 6.5-2.7 9-2.7 3.4 0 5.6 1.7 5.6 4.4 0 2.4-1.7 4.4-4.8 5.7-2.4 1-5.2 1.4-8.7 1.4v-.4c3.1-.5 3.5-.6 4.7-1 4.3-1.3 6.6-3.5 6.6-6.2 0-1.8-1.2-2.9-3.3-2.9-2.1 0-4.4.9-6.7 2.6-.9.7-1.3 1.1-1.7 1.8-.1.2-.4.4-.7.4-.8 0-1.8-1.3-1.8-2.3 0-.5 1-5.8 1.7-8.9-.6.1-.9.1-1.3.1-2.4 0-3.7-.7-5-2.7l.4-.5zm-.9 34.2c1.2 1.3 2 1.6 3.3 1.6 1.2 0 2.4-.2 3.8-.6.6-2 1-4.1 1-5.1 0-.9-.4-1.3-2.1-1.9.4-.2.5-.3.9-.3.7 0 1.7.2 2.6.6.9.3 1.3.8 1.3 1.2 0 .2 0 .2-.4.7-.4.6-1 2.2-1.8 4.3 1.7-.6 2.8-1.2 3.5-1.8.5-.4.6-.5.8-.5.4 0 1.1.2 1.6.3.3.1.5.3.5.5 0 .5-.5.9-1.7 1.5-1.3.6-3.4 1.3-5.2 1.7-.4 1-.4 1-1.3 3.8-.6 1.8-.6 1.8-2.2 6.7-1.2 3.6-1.6 4.3-2.2 4.3-.3 0-.5-.2-.7-.6-.2-.5-.4-1.2-.4-1.7s0-.6.7-1.5c1.5-2.2 2.7-4.8 4.7-10.7-1.1.2-2 .3-2.9.3-1.8 0-3-.8-4.1-2.7l.3-.1zm11.9 10.4v.9c0 1.7.8 3 2.3 3.6.8.4 2 .6 3.2.6 1.2 0 1.9-.1 2.9-.4.2-.1.4-.1.5-.1.3 0 1 .3 1.5.7.4.3.5.6.5.8 0 .7-1.2 1-3.5 1s-4.2-.3-5.5-1c-1.6-.8-2.5-2.3-2.5-4.4 0-.7.1-1.2.3-1.9l.3.2zm.8-5.6c2.2-1.3 4.6-2 7-2 .6 0 1.4.2 1.9.5.3.2.5.5.5.8 0 .5-.3.7-1.1.7-1.1.1-1.5.2-2.3.6-.6.3-.6.3-1.6 1-.6.4-.6.4-1 .6l-.2-.3c.4-.4.4-.4 1.4-1.3.3-.2.5-.5 1.5-1.4-2 0-3.6.3-5.7 1.1l-.4-.3zM10.7 126c2.1-1.3 3.4-2.5 4.8-4.2 2.1-2.8 3.1-6.2 3.1-10.1 0-2.6-.4-5.1-1.1-6.2-.5-.9-1.3-1.3-2.1-1.3-1.5 0-2.9 1.3-4 3.8-.9 2-1.4 4.4-1.4 6.5 0 .5 0 .8.1 1.9v.6c0 .6-.3.9-.8.9-1.1 0-1.9-2.4-1.9-6.2 0-2.5.2-4.1 1-8 .2-1.2.3-1.8.3-2.2 0-1-.4-1.5-1.6-2.1.2-.1.4-.2.5-.2.6 0 1.6.4 2.4 1 .8.6 1.2 1.1 1.2 1.7 0 .4-.1.6-.4 1.1-1.1 1.9-2.2 6.2-2.2 8.9v1.1h.1c.9-3.8 2-6.3 3.5-7.9 1.1-1.2 2.3-1.8 3.7-1.8 2.9 0 4.9 3.5 4.9 8.6 0 3.9-1.1 7.1-3.3 9.8-1.8 2.2-3.8 3.6-6.6 4.7l-.2-.4zm-8.5 13.5c1.2 1.3 2 1.6 3.3 1.6 1.2 0 2.4-.2 3.8-.6.6-2 1-4.1 1-5.1 0-.9-.4-1.3-2.1-1.9.4-.2.5-.3.9-.3.7 0 1.7.2 2.6.6.9.3 1.3.8 1.3 1.2 0 .2 0 .2-.4.7-.4.6-1 2.2-1.8 4.3 1.7-.6 2.8-1.2 3.5-1.8.5-.4.6-.5.8-.5.4 0 1.1.2 1.6.3.3.1.5.3.5.5 0 .5-.5.9-1.7 1.5-1.3.6-3.4 1.3-5.2 1.7-.4 1-.4 1-1.3 3.8-.6 1.8-.6 1.8-2.2 6.7-1.2 3.6-1.6 4.3-2.2 4.3-.3 0-.5-.2-.7-.6-.2-.5-.4-1.2-.4-1.7s0-.6.7-1.5c1.5-2.2 2.7-4.8 4.7-10.7-1.1.2-2 .3-2.9.3-1.8 0-3-.8-4.1-2.7l.3-.1zm11.9 10.4v.9c0 1.7.8 3 2.3 3.6.8.4 2 .6 3.2.6 1.2 0 1.9-.1 2.9-.4.2-.1.4-.1.5-.1.3 0 1 .3 1.5.7.4.3.5.6.5.8 0 .7-1.2 1-3.5 1s-4.2-.3-5.5-1c-1.6-.8-2.5-2.3-2.5-4.4 0-.7.1-1.2.3-1.9l.3.2zm.8-5.6c2.2-1.3 4.6-2 7-2 .6 0 1.4.2 1.9.5.3.2.5.5.5.8 0 .5-.3.7-1.1.7-1.1.1-1.5.2-2.3.6-.6.3-.6.3-1.6 1-.6.4-.6.4-1 .6l-.2-.3c.4-.4.4-.4 1.4-1.3.3-.2.5-.5 1.5-1.4-2 0-3.6.3-5.7 1.1l-.4-.3zM3.5 174.1V192c0 .4-.3.5-1.6.5-.4 0-.5-.1-.5-.4.1-3.9.2-8.2.2-19.5 0-3.3 0-5.2-.1-7.7 1 .5 1.4.7 2.4 1.3h5.9c.5-.6.6-.8 1.1-1.4.8.5 1 .7 1.7 1.3.2.2.3.3.3.4 0 .2-.2.4-1 .8v1.5c0 1.1 0 1.9.1 6.4 0 .2-.1.3-.3.4-.1.1-.8.1-1.2.1s-.5-.1-.5-.4v-1.2H3.5zm6.5-7.2H3.5v2.8H10v-2.8zm0 3.6H3.5v3H10v-3zm7.7 12.3h1.6c.6-.8.8-1 1.4-1.7 1 .9 1.3 1.2 2.3 2.1 0 .1.1.1.1.2s-.1.1-.2.1h-5.2v1.5c0 2.3 0 3.1.1 5.9v.1c0 .3-.4.5-1.5.5-.3 0-.5-.1-.5-.4v-.1c0-.9 0-2.9.1-5.9v-1.6h-4.2c-.3 2.5-.7 3.7-1.8 5.1-1.2 1.5-2.5 2.4-4.7 3.4l-.3-.4c2.1-1.3 3.4-2.6 4.2-4.4.5-1 .6-1.7.8-3.7H7.8c-1 0-1.7.1-2.4.2l-.3-1.1c.8.2 1.5.2 2.7.2h2.1c.1-1 .1-2 .1-2.8v-1.5H8.3c-1 0-1.4 0-2.2.1l-.3-1.1c.8.2 1.4.3 2.5.3h10.1c.6-.8.8-1 1.4-1.7 1 .9 1.4 1.2 2.4 2.1.1.1.1.1.1.2s-.1.2-.2.2h-4.3v4.2zm-5.9-4.4v1.4c0 1.1 0 1.8-.1 3h4.2v-4.4h-4.1zm5.9-4.3v1c0 .2-.1.3-.3.4-.2 0-.8.1-1.2.1-.4 0-.5-.1-.5-.4.1-2.2.1-2.8.1-5.1 0-3.1 0-3.8-.1-5.2 1 .5 1.3.7 2.2 1.3h6c.5-.6.7-.8 1.2-1.5.7.5 1 .7 1.7 1.2.3.2.4.3.4.5s-.1.3-.8.8v14l.1 9c-.1.8-.3 1.1-1 1.6-.6.3-1.2.5-2.5.7-.2-1.4-.6-1.6-3.5-2.1v-.5c3 .1 3 .1 3.6.1h1c.3 0 .3-.1.3-.7v-15.2h-6.7zm6.5-7.2h-6.5v2.8h6.5v-2.8zm0 3.6h-6.5v3h6.5v-3zm-13.8 33.4c.7-.8.9-1.1 1.6-1.9 1 .9 1.3 1.1 2.2 2.1.1.1.2.2.2.3 0 .1-.1.2-.3.2H6.2c-.1 1.8-.1 3.2-.2 4.3h3.7c.5-.5.6-.7 1.1-1.2.7.5.9.6 1.5 1.1.2.2.3.3.3.4 0 .2-.2.4-.8.8-.3 6-1 11-1.8 12.5-.6 1.1-1.4 1.6-3.4 1.7-.1-1.3-.5-1.6-2.8-2.2l.1-.4c2.2.2 2.2.2 2.8.3.3 0 .5.1.7.1.7 0 .9-.4 1.3-2 .6-2.5 1-6.5 1-10.5H6c-.2 2.7-.4 4.4-.9 6.4-.5 2.3-1.5 4.6-2.7 6.5-.6.8-1 1.3-1.9 2.3l-.5-.3c1.5-2.3 2.3-4.1 3-6.8.9-3.4 1.2-7.2 1.3-13.1H3c-.4 0-1.2.1-2.3.2l-.3-1.1c.7.1 2 .2 2.6.2h2.8v-3.4c0-.9 0-1.3-.1-2.3.6.1 1.1.2 1.4.2 1.6.2 1.8.3 1.8.6 0 .2-.3.5-1.1.7v4.1h2.6zm14.3 1.8c-.4 4.7-1.5 8.2-3.8 11.7 2.2 2.5 4.3 3.8 7.6 5l-.1.4c-1.3.1-1.9.6-2.4 1.9-2.6-1.6-4.3-3.2-6.1-5.9-1.3 1.5-2.7 2.8-4.6 3.9-2 1.2-3.4 1.8-6 2.5l-.3-.4c2.4-1.1 3.7-1.8 5.5-3.1 1.9-1.4 3.2-2.8 4.4-4.5-1.4-2.6-2.7-6.2-3.1-8.7-.9 1.8-1.6 2.8-3 4.5l-.3-.2c1.6-3 2.6-5.8 3.6-10 .5-2.1.7-3.3.8-4.7 2.9.7 3.3.8 3.3 1.1 0 .2-.2.3-1.2.5-1 3.1-1.2 3.8-1.7 5.3h6.3c.6-.7 1.2-1.5 1.8-2.2 1.2 1 1.5 1.4 2.7 2.4.1.1.2.2.2.3 0 .1-.2.2-.3.2h-3.3zm-7.7 0c-.3.8-.4 1.1-.7 1.8.8 3.5 1.9 6.1 3.4 8.4 1.7-3 2.6-6.3 2.8-10.2H17zm1.4 29.4c.2 2.8.7 5 1.6 7.1 1.1-1.8 1.7-3.2 2.1-4.9 2.8.8 2.8.8 2.8 1.1 0 .3-.1.3-1.3.4-1.3 2.5-1.8 3.4-2.9 4.9 1 1.7 1.9 2.5 3.8 3.4 1.2-2.5 1.3-2.8 2-4.8l.4.1-.7 3.9c0 .1 0 .2-.1.4 0 .2-.1.4-.1.6 0 .3.1.5.4.8.3.2.4.5.4.7 0 .5-.4.9-1 .9-.8 0-2.1-.6-3.4-1.5-1.1-.8-2-1.7-2.9-3.1-1.6 1.7-2.9 2.8-5.6 4.2l-.3-.3c2.2-1.6 3.4-2.8 5.1-5.1-1.3-2.3-1.8-4.1-2.3-8.6H5.5c-.1 5.8-.2 6.9-.7 9-.4 1.6-1.2 3.3-2.1 4.8-.5.8-.9 1.2-1.8 2.3l-.3-.3c1.2-2.1 1.8-3.6 2.3-5.8.5-2.1.6-4.2.6-9.3 0-1.3 0-1.6-.2-2.7 1.1.5 1.4.7 2.4 1.4h10.8c-.1-.6-.1-.8-.1-1.1-.1-1.4-.2-1.7-.3-2.6 2.4.2 3 .3 3 .6 0 .2-.1.3-1 .6 0 1.2.1 1.5.1 2.5H23c.6-.7.6-.7 1.4-1.7 1 .8 1.3 1.1 2.2 1.9.1.1.1.2.1.2 0 .1-.2.3-.3.3h-8zM5.5 250.4v.7c0 1.5-.7 3.6-1.5 4.7-.7.9-1.3 1.4-1.8 1.4-.4 0-.8-.8-.8-1.8 0-.6.1-.8.9-1 .7-.3 1.5-1.1 2.1-2 .4-.6.5-1.1.7-2h.4zm7.4-12.4c.6-.8.7-1 1.3-1.7.9.8 1.2 1.1 2.1 1.9.1.1.1.2.1.2 0 .1-.1.2-.3.2H8.4c-.7 0-1.1 0-2 .2l-.1-1.1c.5.2.5.2 1.2.2.7.1.9.1.9.1h4.5zm-4.1 9.3c0 .5-.2.5-1.6.5-.2 0-.3-.1-.4-.3.1-1.3.1-1.7.1-2.7 0-3.3 0-3.7-.1-4.9 1 .5 1.3.7 2.2 1.3h4c.5-.6.6-.8 1.1-1.3.7.5.8.7 1.5 1.3.2.2.2.3.2.4 0 .2-.1.3-.8.7l.1 4.1c0 .5-.3.6-1.5.6-.3 0-.4-.1-.4-.3v-.6H8.8v1.2zm-.8 4.1c0-.8 0-1.1-.1-1.9 2.8.3 3.2.4 3.2.7 0 .2-.2.3-1.1.6v3.9c0 .4 0 .5.1.6.1.1.3.1 1.2.2.5 0 2.3.1 2.7.1.3 0 3.4-.1 3.9-.1.8 0 .9-.1 1.3-.9.4-.9.7-1.7 1.3-3.8h.4l-.4 3.7v.4c0 .3 0 .3.7.5.3.1.5.4.5.7 0 .5-.4.9-1 1-.8.1-4.5.3-7.5.3-3.4 0-4.1-.1-4.7-.4-.6-.3-.7-.6-.8-1.4v-4.2zm.8-6h4.5v-3.5H8.8v3.5zm3.5 3.8c1.3.3 2.4.6 3.9 1.3.9.4 1.3.9 1.3 1.6 0 .7-.3 1.2-.6 1.2s-.3 0-1.2-1c-.4-.5-1.2-1.2-2-1.8-.4-.3-.8-.5-1.6-.9l.2-.4zm7.5-18.3c1 .2 1.9.4 2.5.7.7.3.9.6.9 1 0 .3-.1.7-.3 1-.1.2-.2.3-.4.3s-.2 0-.5-.5c0-.1 0-.1-.8-1-.4-.5-.8-.8-1.6-1.4l.2-.1zm2.5 19.3c1.4.8 2.2 1.4 3.4 2.4 1.2 1 1.6 1.5 1.6 2.1 0 .4-.3 1.4-.5 1.7-.2.3-.4.4-.5.4-.1 0-.3-.1-.4-.2-.2-.2-.2-.2-.7-1.3-.8-1.8-1.6-3.1-3.2-4.8l.3-.3zM8.5 278.1c-.1.3-.5 2.2-1.3 5.6-.4 1.8-.5 2.3-.5 3.2 0 .9 0 1.1-.1 1.3-.1.3-.4.5-.7.5-.5 0-1-.4-1.3-1.2-.7-1.6-1-4-1-6.4 0-.9.1-2 .2-3.2.2-1.7.2-1.7 1-5.7.3-1.4.4-2.2.4-2.8 0-1-.2-1.7-.8-2.8.7 0 1.2.4 2 1.5.7.9 1.1 1.7 1.1 2.4 0 .5 0 .6-.6 1.8-.6 1.3-1.3 3.4-1.6 4.8-.3 1.1-.4 2.4-.4 3.7 0 1.7.1 2.7.6 4 .5-1 .7-1.6 1.1-2.5l1.6-4.2h.3zm3.7 1.5c-.1.6-.1.9-.1 1.3 0 3.3 1.9 4.7 6.5 4.7.9 0 1.7-.1 2.5-.2.6-.1.6-.1 1.6-.5.2-.1.3-.1.4-.1.8 0 1.9 1 1.9 1.8 0 .4-.2.6-.7.8-.6.2-2.1.3-3.7.3-3.7 0-6.4-.6-7.8-1.8-1.1-1-1.6-2.3-1.6-3.9 0-.8.1-1.4.4-2.4h.6zm0-9.6c1 .6 1.7.8 2.8.8 1.9 0 4.8-.7 6-1.4.4-.2.4-.2.7-.2.2 0 .6.2 1 .4.6.4.9.7.9 1.1 0 .4-.2.6-.8.7-2 .3-3.1.6-4.3 1.1-.9.4-2.7 1.3-3.9 2.1l-.3-.3c1.3-1.1 2.4-2 2.8-2.3-.6 0-1 .1-1.2.1-1.7 0-2.8-.4-4.1-1.7l.4-.4zM.6 304.1c1.5.5 2.5 1 3.4 1.5.8.5 1.1.9 1.1 1.5 0 1-.3 1.7-.7 1.7-.3 0-.4-.1-1-1-.7-1.2-1.5-2.1-3-3.4l.2-.3zm.3 10.8c.8.2 1.5.3 1.7.3.4 0 .5-.2 1.2-1.6l4.9-10.8.5.1-4.4 12.2c-.2.6-.3 1.1-.3 1.4 0 .4.1.7.4 1.8.3 1.1.4 2.1.4 2.8 0 .6-.2 1.3-.5 1.6-.4.5-1.2.9-1.7.9-.3 0-.5-.3-.5-.8 0-.2.1-.7.1-1.3.3-1.6.3-2.3.3-3.4 0-.8-.1-1.3-.4-1.8-.3-.5-.7-.8-1.8-1.3l.1-.1zm1.6-17.3c1.7.7 2.6 1.1 3.7 1.7.7.4 1 .8 1 1.4 0 .8-.5 1.7-.9 1.7-.2 0-.4-.2-.7-.7-1-1.5-1.9-2.5-3.3-3.9l.2-.2zm25.2 23.8c-1.2.4-1.4.7-1.9 2.2-2.2-.5-3.3-.9-5-1.7-1.5-.7-2.5-1.2-3.6-2-3.3 2.3-5.9 3.2-10.8 4.1l-.1-.5c3.9-1.1 6.9-2.5 9.7-4.7-1.8-1.6-2.8-3-4-5.4h-.3c-.5 0-1.2.1-2.2.2l-.2-1.1c1 .2 1.6.2 2.4.2H21c.4-.5.6-.7 1-1.2.8.6 1 .8 1.8 1.5.3.2.4.4.4.5 0 .3-.3.4-1.2.4-1.9 2.5-3 3.7-4.6 5 2.6 1.3 5 1.8 9.2 2v.5zm-3.4-12c.6-.6.8-.8 1.4-1.3.9.7 1.1.9 1.9 1.6.3.2.4.4.4.5 0 .3-.4.4-1.5.5-1.2 1.1-1.5 1.4-2.5 2.1l-.3-.3c.4-1.1.6-1.4.8-2.5H9.3c0 1.4-.2 2.2-.5 3-.3.9-1 1.5-1.5 1.5-.4 0-.9-.9-.9-1.8 0-.4.1-.5.6-.8 1-.8 1.5-1.9 1.9-4h.5v1.3h14.9zm-11.9-6.3c-.7 0-1.5.1-2.3.2l-.1-1.1c.9.2 1.5.2 2.5.2H22v-2.8h-9.9c-1 0-1.6 0-2.4.2l-.1-1.1c1 .2 1.5.3 2.5.3h9.6c.5-.6.7-.8 1.2-1.3.8.5 1 .7 1.8 1.2.3.2.4.4.4.5 0 .2-.1.3-1 .8v3.3c0 1.3 0 2.3.1 4.3 0 .2 0 .2-.2.3-.3.1-.9.2-1.5.2-.3 0-.4-.1-.4-.4v-.9h-9.6c-1 0-1.6 0-2.6.1l-.2-1c1 .2 1.5.2 2.8.2H22v-3.1h-9.6zm.2 10.4c1.2 2 2.4 3.3 4.4 4.6 1.6-1.4 2.6-2.5 4-4.6h-8.4zm3.8 20.7c-1.2.4-4 1.5-6.1 2.4-.6.3-1 .4-1.2.4-.5 0-1.1-.4-1.7-1.3-.5-.8-.8-1.6-.8-2.2 0-.3.1-.5.3-.8.4 1.4 1.3 2.2 2.2 2.2.8 0 3.6-.7 5.7-1.3 1.2-.4 1.2-.4 1.9-.9.1-.1.3-.1.4-.1.4 0 .9.3 1.6 1 .7.7.9 1 .9 1.3 0 .2-.2.4-.5.6-.9.5-1.2.7-2.5 2-1.9 1.9-3 3-4.4 4.5-2.9 3.1-2.9 3.1-3.5 3.7l.1.1c3.2-2 5.6-2.8 8.2-2.8 3.8 0 6.4 2.3 6.4 5.6 0 4.3-4 7.5-9.4 7.5-2.9 0-4.8-1.2-4.8-3 0-1.5 1.4-2.6 3.2-2.6 1.5 0 2.8.5 3.8 1.5.5.5.9 1 1.3 1.9 2.3-1 3.6-3.1 3.6-5.6 0-1.7-.7-3-1.9-3.7-.6-.4-1.8-.6-3-.6-2.9 0-7 2.4-9.5 5.6-.5.6-.7.8-1 .8-.4 0-1-1.1-1-2 0-.4.2-.7.6-1 1.1-.9 1.6-1.3 4.2-4.2 3.7-4.1 4.8-5.4 7.2-8.5.2-.3.2-.3.3-.5l-.1-.1h-.1s-.1 0-.1.1h-.3zm-4.6 17.2c-1.1 0-1.9.6-1.9 1.5 0 1.1 1.3 1.8 3.4 1.8.8 0 1.2-.1 2.1-.3-.5-1.8-1.9-3-3.6-3zm16.3 16c0 2.1-1.7 3.9-3.9 3.9s-3.9-1.7-3.9-3.9c0-2.1 1.7-3.9 3.9-3.9s3.9 1.7 3.9 3.9zm-6.7 0c0 1.6 1.3 2.9 2.9 2.9 1.6 0 2.9-1.3 2.9-2.9 0-1.6-1.3-2.9-2.9-2.9-1.6 0-2.9 1.2-2.9 2.9z"/></g></g></svg>