<svg xmlns="http://www.w3.org/2000/svg" width="149.8" height="172.04" viewBox="0 0 149.8 172.04"><defs><style>.cls-2{fill:#685945}</style></defs><g id="レイヤー_2" data-name="レイヤー 2"><g id="ご予約特典"><g opacity=".5"><path class="cls-2" d="M48.44 60.66c-.3 1-.63 1.92-.94 2.88-.23.71-.48 1.42-.7 2.14 1-3.07 2-6.14 3-9.18-.46 1.38-.93 2.77-1.36 4.16zm-3.2 9.51c.39-1.33.73-2.34 1-3.11s-.24.85-1 3.11z"/><path class="cls-2" d="M40.13 90.13c.46-1 1.72-3.43 3.26-6.31-.12.85 8.72-17.49 8.53-17.61C53 66.88 79.78 10.52 72 9.37c0-.1-.12-.2-.18-.3-.31-.17-1.08-.47-1.54-.69.08.14-.53.11-2.42-.28-.07 0-.41-.09-.57-.14C57 3.81 40.83 64.43 42.12 63.93c0 0-1.62 11.22-1.92 19.09-.02 3.89-.02 6.09-.07 7.11zm1.15-6.58c0-.35.15-.68.23-1 1-3.45 5.71-19.48 10.63-33.94 2.35-6.93 4.39-11.9 7-18.4.11-.3.24-.61.36-.91.34-.84.68-1.68 1-2.52.63-1.53 1.21-3.09 1.71-4.28.35-.9.36-1.08.72-1.93a22.22 22.22 0 011.3-3.22.68.68 0 010-.32c.07-.13.22-.49.29-.65.12-.33.29-.83.41-1.11.51-1.36 1.24-2.86 1.85-4.18a.29.29 0 000 .13l.11-.25c0 .23 0 .2.22-.32 0 .1-.07.32 0 .23.21-.39.61-1.26.65-1.33s0 .53.09.55 0 .1 0 .14-.1.31-.16.47a.78.78 0 010 .14c-.19.53-.41 1.06-.6 1.6s-.48 1.07-.73 1.61c-.1.22-.09.15-.1.08s0-.06 0 .06-.16.34-.23.51a.33.33 0 010-.1c-.17.38-.33.94-.45 1.16s-.23.52-.4.91c-.63 1.36-1 2-1.62 3.64s-1.62 3.7-2.17 5.32c-.66 1.37-1 2.51-1.77 4.35l-1 2.58c-.51 1.58-.76 1.94-1.4 3.73-.45 1.22-.54 1.54-1 2.6-.14.31-.27.85-.34 1-.52 1.31-.5 1-.52 1.45 0 .12-.81 1.66-1 2.24-.25.83-.7 1.88-1.09 3l-.13.47-.51 1.42c-.57 1.65-1 3-1.47 4.53-.63 1.89-4.45 13.3-4.92 14.49a2.85 2.85 0 01.11-.39c.13-.46.29-.91.43-1.37-.06.16-.11.31-.16.47a366.41 366.41 0 015.77-17.33c-.5 1.35-1.58 4.41-2.07 5.83-1.35 3.92-2.65 7.86-3.86 11.83-.27.9-.55 1.8-.82 2.7-.36 1.12-.88 2.66-1.39 4.27-1.07 3.66-2.42 8.4-2.97 10.04zM133 20.48c-.44-.22.57.25 2.07 1.1-.93-.49-1.61-.85-2.07-1.1z"/><path class="cls-2" d="M132.68 23.29a137.38 137.38 0 0112.83 5.26c2.39 1.37 3.71 2.16 4.29 2.53l-4.37-3.74c.55.21-12.4-9.1-12.49-8.87.53.65-51.83-25.09-52.48-16.83a2.75 2.75 0 00-.11.41 2.54 2.54 0 00-.26 1.64 2 2 0 00-.63 1.57 1.82 1.82 0 01-.15.23c-2.46 6.31 53.57 17.81 53.37 17.8zm-50-19.57l.16-.05a5.39 5.39 0 00.56.08h.17l1.87.31 1.85.41c.25.07.17.07.1.08s-.08 0 .06 0l.58.13h-.13c.43.09 1 .19 1.31.25s.58.13 1 .24c1.52.37 2.22.61 4 1S98 7.28 99.62 7.64c1.37.47 2.47.73 4.21 1.27l2.41.7c1.43.38 1.77.55 3.35 1 1 .36 1.33.41 2.24.76l.85.27c1.11.39.83.38 1.21.41.1 0 1.39.62 1.85.79.67.22 1.52.57 2.37.89.17 0 .33.12.36.11l1.11.45c1.26.5 2.29.86 3.4 1.31 1.4.52 9.42 4.37 10.2 4.83a2.06 2.06 0 00-.26-.12l-.93-.46a1.41 1.41 0 01.32.17c-1-.46-1.94-.9-2.92-1.35l3.15 1.5c.61.3 1.2.62 1.81.92.79.47 1.89 1.09 3 1.74l-.12-.07c2.41 1.38 5.4 3.23 6.43 4l-.64-.38c-2.17-1.64-12.7-7.73-23.32-11.73-5.45-2.02-9.7-3.65-15.63-5.42l-.86-.23-2.43-.71c-1.52-.44-3.08-.83-4.31-1.15-.94-.24-1.13-.22-2-.47A25.73 25.73 0 0191 5.82a.82.82 0 01-.34 0l-.72-.17-1.25-.22c-1.53-.3-3.26-.71-4.82-1H84l-.29-.06c.26 0 .23 0-.39-.13h.27c-.46-.13-1.51-.34-1.58-.36s.65-.09.65-.16z"/><path class="cls-2" d="M128.53 18.2c.67.32 1.33.65 2 1 .48.26 1 .48 1.46.73-2.09-1-4.23-2-6.4-3 .99.38 1.97.83 2.94 1.27zM11.3 39c.74-.75 1.31-1.31 1.74-1.73zm12.94-11.51c-1.64 1.3-3.23 2.64-4.79 4l1-.9c.9-.77 2.89-2.39 3.79-3.1zm-9.08 7.94c-.43.38-.83.79-1.26 1.16l1.63-1.5z"/><path class="cls-2" d="M3.21 49.18c-.53.25 11.24-10.25 11.39-10-.79-1 52.33-26.39 46.48-31.34a5.22 5.22 0 00-.24-.54 6.71 6.71 0 01-.59-1.57 5.54 5.54 0 01-1.49-.89l-.49-.07c-4-6-47.73 30.79-46.68 31.87 0 0-5.65 7-9.08 12.3L0 52.92c.7-.86 1.85-2.21 3.21-3.74zM11.3 39l-.91.93c-2.08 2.19-5.18 5.79-6.18 7 .16-.23.33-.44.5-.66A83.82 83.82 0 0110.36 40c.33-.35.64-.67.91-.93a160 160 0 0113-11.83 141.37 141.37 0 0113.69-9.86l.77-.49c.7-.46 1.43-.89 2.14-1.36l3.81-2.3c.82-.48 1-.6 1.75-1a24.72 24.72 0 013.07-1.72c.09-.07 0-.09.24-.23a5.7 5.7 0 00.65-.33c.36-.2.73-.39 1.07-.61q2.19-1.06 4.38-2.1a.48.48 0 01-.11.09l.27-.2c-.22.12-.17.14.39-.13-.08.07-.29.21-.19.16.45-.16 1.41-.6 1.49-.62s-.44.36-.38.43a.54.54 0 00-.09.12c-.16.08-.32.15-.48.25l-.12.1c-.55.27-1.1.55-1.64.84s-1.13.53-1.7.81c-.24.1-.18.06-.13 0s0 0-.08 0l-.52.26.07-.08c-.39.2-.92.51-1.15.62s-.53.27-.92.47c-1.39.68-2.07 1-3.59 1.87s-3.48 1.92-4.85 2.83c-1.28.66-2.2 1.33-3.76 2.31l-2.09 1.43c-1.21.89-1.55 1-2.93 2-.92.67-1.13.87-2 1.42-.23.17-.59.48-.72.56-1 .7-.78.47-1.05.79-.07.08-1.29.8-1.69 1.12-.56.46-1.32 1-2.06 1.58l-.3.26c-.31.26-.64.51-1 .76-1.09.89-1.93 1.67-2.89 2.47-1.2 1-8.12 7.15-8.76 7.79l.24-.24c.26-.24.52-.5.77-.76-.08.09-.18.16-.27.25.61-.59 1.24-1.17 1.86-1.76L13.41 37c-.5.51-1 1-1.5 1.51-.69.65-1.63 1.56-2.57 2.56.74-.82 1.39-1.49 1.96-2.07zm95.48 15.14c.47.87.92 1.74 1.38 2.61l1 2q-2.18-4.17-4.48-8.3c.72 1.2 1.41 2.44 2.1 3.69zm4.34 8.77c-.6-1.21-1.07-2.13-1.42-2.83s.41.76 1.42 2.83zm-10.48-19.38c.29.49.57 1 .86 1.49z"/><path class="cls-2" d="M104.84 61s6.47 9 11 14.85c2.31 2.73 3.54 4.32 4.08 5.09-.28-1.11-.86-3.85-1.61-7.11.44.67-5.46-18.31-5.65-18.27 1-.27-27.09-52.72-33.24-49.56L79 5.84c-.38 0-1.19.26-1.72.35.19.06-.26.35-2 1.09a3.8 3.8 0 01-.55.21c-12.01 2.9 29.56 54.79 30.11 53.51zM77.44 9.52c-.21-.38-.78-1.17-.8-1.24s.49.36.58.32.11.06.17.07.21.27.32.4a.71.71 0 00.14.1c.36.47.71.94 1.09 1.4s.65 1 1 1.47c.12.21 0 .17 0 .12s-.06-.06 0 .06.21.31.32.47a.26.26 0 01-.1-.07c.24.35.65.81.77 1l.57.82c.83 1.27 1.21 1.88 2.24 3.34s2.27 3.38 3.34 4.78c.79 1.3 1.53 2.28 2.64 3.94 0 0 1.49 2.13 1.62 2.29 1 1.38 1.17 1.75 2.25 3.34.73 1.07.94 1.35 1.54 2.32.18.29.53.73.62.87.74 1.2.46 1 .85 1.29.09.1.82 1.61 1.15 2.12.5.71 1 1.71 1.65 2.67.11.18.25.36.28.4.27.42.53.84.78 1.27.89 1.48 1.68 2.66 2.48 4 1 1.68 6.6 12.12 7 13.22l-.2-.39c-.23-.4-.43-.82-.64-1.24a3.42 3.42 0 00.21.43q-2.55-4.81-5.24-9.55c1.84 3.27 3.62 6.58 5.36 9.89.42.82.84 1.63 1.25 2.45.53 1.11 1.25 2.65 2 4.26-.61-1.28-1.13-2.36-1.6-3.28 1.55 3.13 4.89 10.24 5.73 12.37-.16-.29-.31-.59-.46-.89a275.94 275.94 0 00-16.12-30.87c-3.84-6.2-6.68-10.75-10.63-16.59-.18-.27-.38-.54-.56-.82-.53-.75-1-1.52-1.55-2.26-1-1.39-1.92-2.77-2.68-3.85-.58-.8-.73-.94-1.27-1.7a21.63 21.63 0 01-2.07-2.88c-.1-.07-.12 0-.29-.22s-.29-.45-.41-.6-.56-.7-.75-1c-.92-1.18-1.82-2.59-2.65-3.8 0 0 .1.05.13.09s-.07-.12-.15-.23c.17.18.18.14-.16-.33.12.16.31.33.25.24z"/></g><path d="M108.8 38.73c.36 0 1.48-.11 2.66-.25.42-.06 2.24-.34 2.6-.34 1 0 1.82.7 1.82 1.32 0 1.51-4.76 1.65-6.33 1.65-3.75 0-8.67-.81-8.67-5 0-.9.3-1.29.39-1.29s.11.06.31.7c.64 2.21 3.36 3.14 5.51 3.14zm-4.31-15.31a22 22 0 004.51-.51 6 6 0 011.4-.22 2.94 2.94 0 012.6 1.9c0 .42-.2.51-2.07.93a8.33 8.33 0 00-3.31 1.84c-.22.2-.25.23-.36.23a.09.09 0 01-.08-.09c0-.22 1.23-1.7 1.23-2s-.09-.2-1-.22c-3.28-.06-5.3-1.52-5.3-1.91 0-.08.14-.11.2-.11s.17 0 .9.14a9.85 9.85 0 001.28.02zm11.87 3.52a2.32 2.32 0 011.2 1.6c0 .53-.33 1.09-.78 1.09s-.56-.11-1.51-1.15a7.68 7.68 0 00-2-1.54c-.14-.11-.44-.3-.44-.42s.22-.25.47-.25a5.06 5.06 0 013.06.67zm4.14-.67c0 .31-.22.84-.72.84s-.93-.42-1.46-1a6.86 6.86 0 00-2.44-1.57c-.3-.11-.36-.23-.36-.31s.56-.34 1-.34c2.53-.03 3.98 1.26 3.98 2.38zm-12.01 34.64c.65 0 .93 0 .93-.34 0 0-.65-1.48-3.67-3.92-.76-.61-.84-.67-.84-.78s.11-.09.14-.09a21.08 21.08 0 012.66.82c.42.14 2.52 1 2.6 1 .25 0 .37 0 1.29-1.12a11.43 11.43 0 001.6-2.48c0-.31-.34-.31-.68-.31h-8.12c-.67 0-2.54 0-3.52.09h-.59c-.11 0-.17 0-.25-.16L99.5 53c-.14-.14-.14-.14-.14-.19s.06-.06.12-.06 1 .08 1.23.08c.81.06 2.24.12 3.83.12h8.29c.87 0 1.18 0 1.4-.26.42-.5.67-.78.9-.78.45 0 2.8 1.4 2.8 1.88 0 .28-.11.3-1.18.53-.61.11-1.06.39-5 3.05-.81.53-.87.56-.87.81a.66.66 0 00.17.39 1.69 1.69 0 01.31 1 1.19 1.19 0 01-.14.53c-.17.28-.23.36-.23.56s.26.28.53.28h5c1.23 0 1.32-.06 1.43-.14.53-.42.7-.56.89-.56.37 0 2.75 2 2.75 2.55 0 .36-.37.44-.53.44s-1-.16-1.21-.16c-.75 0-1 .14-2.88 1.48a11.25 11.25 0 01-1.29.87.2.2 0 01-.2-.2s2-2.71 2-3.22c0-.31-.22-.33-.84-.33H111c-.59 0-1.1 0-1.1.78 0 1.06.14 9.66.14 9.88a4.82 4.82 0 01-.72 3.06 2.69 2.69 0 01-1.74 1c-.42 0-.56-.22-1.09-1a3.25 3.25 0 00-1.32-1.07c-.28-.14-1.68-.58-1.68-.84 0-.11.23-.16.34-.16s.61.08.72.08a13.71 13.71 0 001.54.08c1.21 0 1.63 0 1.8-.61s.14-4.37.14-5.29c0-.73-.09-4.2-.09-5 0-.39 0-.89-.84-.89h-6.3c-.67 0-2.54 0-3.52.08l-.59.06c-.11 0-.14-.06-.25-.17l-.58-.66c-.14-.14-.14-.14-.14-.19s.09-.06.12-.06 1 .09 1.23.09c.81.05 2.24.11 3.83.11zm-7.7 39.09c0 .17-.47.61-.56.73-.47.67-2.38 3.69-2.85 4.25-.2.25-.79.9-1 .9s-.11 0-.11-.11.84-2 1-2.44a17 17 0 001-3.64c0-.81 0-.9.25-.9a5.93 5.93 0 011.1.37c.38.14 1.17.5 1.17.84zm5.94-3.25c-.06-.25-.11-.42-.39-.42s-1.57.28-1.88.31c-.76.11-.76.33-.76 1.4v8.71a1.47 1.47 0 01-1.43 1.54c-.61 0-.61-.48-.61-.68 0-.36.14-2.07.14-2.46 0-2 .14-5.49.14-7.5 0-.37-.06-.68-.56-.68a18.2 18.2 0 00-3.28.42 4.15 4.15 0 01-.81.42c-.5 0-.67-2.24-.67-2.38s0-.42.25-.42c0 0 .7.2.76.23a9.33 9.33 0 002.8.39c.89 0 1-.08 1.26-.5a32.72 32.72 0 003.38-7.84c.14-.68.14-.73.37-.73s2.71 1 2.71 1.62c0 .25-.19.34-.42.37a1.61 1.61 0 00-1 .58 70.41 70.41 0 00-4.34 6.39.18.18 0 00.08.14h2c.42 0 1.32-.06 1.62-.09.14 0 .26 0 .26-.25a14.69 14.69 0 00-.79-2 .1.1 0 01.11-.11c.45 0 3.08 1.51 3.08 3.53 0 .61-.36 1.12-.86 1.12s-.99-.22-1.16-1.14zm-6.11-3.67c-.39 0-.61-.17-.92-.89a12 12 0 00-1.88-3c-.28-.34-.31-.36-.31-.45s.06-.17.23-.17c.34 0 1.82.7 2 .7.36 0 1.34-3.47 1.7-5.71.09-.45.14-.45.26-.45s2.52 1 2.52 1.29c0 .17-.7.62-.82.73a32.45 32.45 0 00-2.8 4.59.7.7 0 00.26.53 3 3 0 01.7 1.63c.02.53-.29 1.17-.94 1.17zm8.1 10.36a1.38 1.38 0 01-1.15 1.43c-.56 0-.62-.22-1-2.18a7.61 7.61 0 00-.89-2.41 1.91 1.91 0 01-.17-.51.13.13 0 01.14-.14 4.8 4.8 0 011.59 1.12 4.72 4.72 0 011.48 2.66zM111.49 90c-.62 0-.81.08-1 .42-.64 1-2.21 3.44-2.71 3.44a.18.18 0 01-.2-.19c0-.06 1-2 1.2-2.44 1.18-2.52 2.41-6.33 2.41-7.84V83c0-.05 0-.17.12-.17s3.05.9 3.05 1.46c0 .28-.34.44-.76.64s-2.21 4.12-2.21 4.14c0 .17.22.17.48.17h5.12c.76 0 .78 0 1.09-.25.5-.48.56-.53.76-.53s2.21 1 2.21 1.59c0 .2-.08.23-.7.73-.23.17-.23 1.37-.23 2.1 0 5.15-.81 11.26-2.37 13.69a4.21 4.21 0 01-3 1.77c-.36 0-.45-.23-.7-.9a4.06 4.06 0 00-1.54-1.76c-.39-.25-.45-.28-.45-.42a.1.1 0 01.12-.11s.75.25.89.28a7.61 7.61 0 001.77.42c1.2 0 1.81-1.18 2.15-2.52A40.21 40.21 0 00118.15 93a25.23 25.23 0 00-.08-2.61c-.17-.36-.53-.36-.84-.36zm3.05 9c0 1.07-.67 1.79-1.34 1.79s-.79-.33-1.12-2.15a13.24 13.24 0 00-.84-2.77c-.2-.42-.23-.51-.23-.59s0-.17.09-.17a6.56 6.56 0 012.21 1.51 3.4 3.4 0 011.23 2.45zm-10.7 23.26c-.42 0-.75.14-.81.56v4.11c0 .42 0 .67.28.67s2.52-.92 2.72-.92c0 0 .11 0 .11.06a12.87 12.87 0 01-2.1 1.51 1.61 1.61 0 00-1 1.85c0 1 .09 5.18.09 6 0 .45 0 3-.06 3.25a1.52 1.52 0 01-1.4 1c-.45 0-.64-.14-.64-.67 0-1.45.22-7.81.22-9.1 0-.11 0-.36-.25-.36a14 14 0 00-2.52 1.54c-.22.42-.25.47-.39.47-.45 0-1.63-2.12-1.63-2.26s.14-.23.59-.26a12.63 12.63 0 004-1.48 1 1 0 00.2-.7v-4.48c0-.31 0-.78-.79-.78h-1.71c-.62 0-.67.14-1.07.95a7.59 7.59 0 01-1.34 2.18v-.08c0-.2.62-2.61.7-3.11a25.18 25.18 0 00.48-4.26c0-.11-.06-.61-.06-.72s0-.28.25-.28 2.13.5 2.13 1a8.57 8.57 0 01-.59 1.12c0 .11-.64 2-.64 2.18s.2.31.39.31h1.49c.5 0 .78-.22.78-.73 0-1 0-2.85-.08-4 0-.28-.15-1.52-.15-1.8 0-.11 0-.25.23-.25s2.55.51 2.55 1c0 .2 0 .25-.45.67-.2.23-.2.37-.25 1.71v2.74c0 .2 0 .59.39.59a.92.92 0 00.73-.42c.62-.89.67-1 .9-1s1.87 1.35 1.87 1.74-.47.45-1.51.45zm10.62-2.44c-.82 0-.82.48-.82 1.09 0 3.56 0 3.61.79 3.61h2.38a3.74 3.74 0 001.37-.11c.25-.11.92-1.4 1.2-1.4s2.3 1.51 2.3 1.91-.17.33-1.51.33h-10.42c-.81 0-1.9 0-2.94.06-.19 0-1 .08-1.15.08s-.11 0-.3-.22l-.51-.59c-.14-.14-.14-.17-.14-.2s.06 0 .11 0c.2 0 1.07.08 1.23.08 1.8.09 2.89.11 3.84.11H111c.7 0 .78-.39.78-.92v-3.25a.68.68 0 00-.79-.53h-2.29c-.28 0-1.46.11-1.68.11s-.12-.06-.31-.25l-.51-.56c-.11-.11-.14-.17-.14-.2s.06-.08.12-.08 1 .08 1.12.08c.33 0 2.35.11 3.44.11.56 0 1 0 1-.81 0-.47 0-1.57-.06-2 0-.2-.14-1.15-.14-1.26s0-.28.2-.28 1.79.44 2.24.61c0 0 .3.14.3.28s-.58.67-.64.81a12.68 12.68 0 00-.08 1.8c0 .42 0 .86.81.86h1.2A4 4 0 00117 119c.23-.11.79-1.29 1-1.29s2 1.32 2 1.74-.56.39-1.49.39zm2.54 10.44c-.73 0-.81.26-.81 2.08 0 .84.08 4.59.08 5.34 0 2.55-2 2.55-2.27 2.55-.53 0-.59-.19-.73-.7s-.61-.89-1.23-1.15-.78-.33-.78-.44.22-.12.3-.12l1.8.06c.56 0 1.12 0 1.12-1.26 0-.84-.09-5.07-.09-5.24 0-.61 0-1.12-.78-1.12h-3.28c-.81 0-1.87 0-2.94.06l-1.14.08c-.12 0-.12 0-.28-.19l-.56-.62a.38.38 0 01-.12-.17s.06-.08.12-.08 1.09.08 1.26.08c1.79.09 2.85.12 3.8.12h3.11c.79 0 .79-.54.79-.87s-.12-2.07-.12-2.41c0-.08 0-.22.26-.22s1.79.28 1.87.3c.28.06.51.14.51.4s-.45.61-.51.72a4 4 0 00-.11 1.29c0 .79.5.79 1.06.79s.7-.23 1-.62.5-.76.75-.76 2.07 1.32 2.07 1.71-.56.39-1.48.39zm-9.1 1.88c.39 0 2.88.64 2.88 2.58 0 1-.47 1.54-1.09 1.54s-.53-.17-1-1.71a6.81 6.81 0 00-.95-2.05c0-.05-.11-.19-.06-.28s.08-.08.17-.08zm-1.76 35c0 .36-.28.39-1 .42 0 0-3 1.79-3.64 2.1a19.84 19.84 0 01-5.77 2.18s.65-.44 1.29-.86c1.79-1.18 5.71-3.76 6.47-5.49a.32.32 0 01.28-.2 4 4 0 011.32.73c.46.34 1.05.76 1.05 1.12zm8.37-15.71a1.07 1.07 0 001.07-.53c.22-.25.36-.31.47-.31.37 0 2.21 1.26 2.21 1.65a.43.43 0 01-.25.34 1.24 1.24 0 00-.64.92c-.09.62-.09 2.78-.09 8.71 0 1.12 0 1.23.37 1.23s.56-.36.64-.47c.79-1 .87-1.15 1.15-1.15s2.46 1.65 2.46 2.07-.14.34-1.37.34h-19.4c-.67 0-2.55 0-3.53.08l-.59.06c-.11 0-.17-.06-.25-.17l-.53-.64c-.14-.14-.14-.14-.14-.2s0-.06.11-.06c.45 0 2.66.17 3.16.17.82 0 .82-.61.82-.92 0-2.49-.06-9.16-.31-10.89 0-.17-.25-1-.25-1.24s.14-.22.22-.22a7.55 7.55 0 011.62.73 3.35 3.35 0 001.91.5h1.14c.82 0 .87-.36.87-1a8.34 8.34 0 00-.19-2.32c0-.17-.37-.84-.37-1s.2-.22.31-.22 2.88.64 2.88 1.17c0 .14-.5.62-.58.76a4 4 0 00-.23 1.85c0 .73.45.78.9.78h1.34c.62 0 .84-.19.84-.92a13 13 0 00-.11-2.27 9.51 9.51 0 01-.17-1c0-.25.14-.28.34-.28s2.69.42 2.69 1c0 .19-.67.81-.73 1a4.23 4.23 0 00-.14 1.57c0 .73.36.84.89.84zm-11.56.73c-.93 0-.93.06-.93 2.6 0 2 0 2.24.93 2.24h1.54c.33 0 .89 0 .89-.7v-3.75c-.14-.39-.59-.39-.84-.39zm1.56 11.34c.87 0 .87-.25.87-1.93v-3.42c-.14-.39-.53-.39-.82-.39h-1.59c-.9 0-.9.22-.9 2.35 0 .48 0 2.72.09 3 .14.42.53.42.81.42zm4.91-6.5c.28 0 .67 0 .81-.36a16.94 16.94 0 000-2c.06-1.88 0-2.08-.16-2.27a1 1 0 00-.7-.17h-1.35c-.28 0-.67 0-.81.39-.06.14-.06 1.77-.06 2 0 1.84 0 2.07.17 2.24a1.06 1.06 0 00.7.16zm0 6.5a.86.86 0 00.67-.17c.19-.17.22-.42.22-2.71 0-.31 0-2.36-.08-2.52-.14-.34-.51-.34-.81-.34h-1.35a1 1 0 00-.67.14c-.2.2-.2.45-.2 2.72 0 .3 0 2.38.06 2.52.17.36.5.36.81.36zm10 7.42c0 .42-.17 1.12-.79 1.12-.36 0-.75-.17-1.79-1.4a59.36 59.36 0 00-4.59-4.31 2.33 2.33 0 01-.39-.37c0-.05 0-.08.11-.08a18.8 18.8 0 012.91 1c1.67.6 4.59 1.8 4.59 4.04zM114.57 157c.89 0 .89-.22.89-2.21 0-2.41 0-2.63-.89-2.63H113a.92.92 0 00-.67.22c-.2.2-.2.4-.2 2.22 0 2.29 0 2.4.87 2.4zm-1.52.76a1 1 0 00-.75.22c-.14.17-.14.42-.14 2.64 0 .3 0 2.32.06 2.46.14.42.58.42.83.42h1.43c.23 0 .73 0 .84-.42s.09-3.56.09-4.09c0-.87 0-1.23-.87-1.23zm25.56-132.18c0 .17 0 .18-.61.26-.13 0-.18.09-.61.81a18.75 18.75 0 01-4.39 5.27 3.36 3.36 0 01-1.19.67s-.11 0-.11-.07.76-.78.88-.92a19.42 19.42 0 004-7c.11-.51.2-.51.27-.51s.12.06.18.08 1.58 1.07 1.58 1.41zm6 13.44c0-.15-.43-1.17-.52-1.37s-.18-.29-.34-.29-3.75.79-4.45.92-4.7.86-5 1c-.09 0-.47.41-.56.41s-.24-.16-.4-.54a13.93 13.93 0 01-.54-1.35c0-.1.09-.12.22-.12 1 0 2.79 0 3.09-.31.53-.52 1.86-5.42 1.88-5.45a6.23 6.23 0 00.21-1.34c0-.18 0-.3.2-.3s1.89.75 1.89 1.1-.16.25-.47.32-.36.07-1.64 2.81c-.19.45-1.31 2.61-1.31 2.74s.22.23.34.23c.61 0 4.92-.36 5.17-.38 1.12-.11 1.24-.11 1.24-.29 0-.37-1.67-2.45-1.67-2.66 0 0 0-.06.05-.06.58 0 4.14 3.19 4.14 4.76a1.14 1.14 0 01-.74 1.15c-.4 0-.52-.25-.76-1zm-5.23-14.26a.26.26 0 01-.06-.13c.14 0 1.17.17 1.38.17s.44-.09.71-.4c.5-.58.57-.65.68-.65s1.33 1 1.33 1.26-.16.22-.66.22c-.15 0-.42 0-.42.29 0 .93 1.53 4.08 5.21 6.06.41.22.45.26.45.33s-.18.12-.31.12a2.16 2.16 0 00-1.21.27c-.09.06-.36.47-.45.47-.52 0-3.83-3.92-4.21-6.88-.07-.55-.09-.66-.43-.66a11.3 11.3 0 00-1.24 0l-.42.06-.09-.11zM140 48.1c.31 0 .38-.05.38-.21s-.29-2.06-.34-2.34-.25-1.12-.25-1.32h.12a7.47 7.47 0 011.26.2c.47.09.7.16.7.39s0 .13-.18.31-.19.29-.19 1.11c0 1.91.16 1.91.61 1.91h2.09c.82 0 .91 0 1.15-.3.56-.76.61-.83.79-.83s1.73 1 1.73 1.35-.32.27-.95.27h-4.78c-.3 0-.41 0-.41.29a23.76 23.76 0 00.72 3.18c1.12 3.48 3.08 5.75 3.62 5.75.25 0 .56-.52.79-1 .09-.16.43-1 .52-1s.06.09.06.13-.24 2-.24 2.37a1.37 1.37 0 00.2.74.93.93 0 01.18.5c0 .38-.25.45-.47.45-1.58 0-5.34-3.83-6.5-10.73-.1-.66-.14-.77-.59-.77h-7.13a2.76 2.76 0 01-.4.06c-.05 0-.09-.06-.14-.13l-.36-.41c-.07-.07-.07-.09-.07-.11s0-.05.07-.05.68.05.79.07c.83 0 1.62.05 2.47.05zm-2.43 4.74c-.13 0-.43 0-.5.3s-.11 2.07-.11 3.17 0 1.28.3 1.28 4.34-.92 4.38-.92.09 0 .09.06a23.44 23.44 0 01-4.83 2 22.11 22.11 0 00-3.29 1.12c-.11 0-.49.5-.6.5s-.7-1.89-.7-1.94.06-.09.62-.15a21.07 21.07 0 002.48-.36.35.35 0 00.16-.25v-4.32c0-.43-.34-.43-.52-.43a15.2 15.2 0 00-1.64 0h-.25c-.08 0-.11-.06-.17-.13l-.34-.41c-.07-.08-.09-.09-.09-.13s0 0 .07 0 .69.06.8.08h3.89a3.13 3.13 0 00.86 0c.2-.09.74-1 .92-1a3.14 3.14 0 011.31 1.24c0 .24-.36.24-1 .24zm5.38-8.46c.26 0 2.74.61 2.74 1.65a.66.66 0 01-.74.74c-.2 0-.23-.05-.61-.59a8.77 8.77 0 00-1.39-1.61c-.05 0-.12-.1-.1-.14s.05-.05.08-.05zm-10.03 26.48c.27 0 1.32.16 1.55.16s1.93-.11 2.25-.11.54-.07.54-.5a4.79 4.79 0 00-.39-2c-.06-.08-.35-.38-.35-.45s.54-.18.63-.18c.42 0 1.62.84 1.62 1.2 0 .13-.3.65-.32.76a1.65 1.65 0 00-.07.65c0 .27.18.38.43.38.47 0 1.6-.08 2.05-.11s.4-.34.4-.52a21 21 0 00-.13-2.94c0-.16-.56-.88-.56-.92s.2-.18.42-.18a4.13 4.13 0 011.44.54c.18.09.45.22.45.43a3.25 3.25 0 01-.31.65 7.42 7.42 0 00-.18 2c0 .58 0 .76.44.76a5.85 5.85 0 001.22-.2 2.12 2.12 0 01.9-.24c.9 0 2.49.31 2.49 1.19a.53.53 0 01-.58.52c-.22 0-1.19-.21-1.39-.25-.61-.09-2.41-.12-2.45-.12-.54 0-.54.12-.59 1.17a9.06 9.06 0 01-1.91 5.79 5.86 5.86 0 01-1.87 1.66.1.1 0 01-.11-.1s.9-1.17 1-1.41a10.59 10.59 0 001.79-6.49c0-.58-.29-.58-.54-.58a11.45 11.45 0 00-2.14.18c-.24.13-.24.2-.24 1 0 .4.11 2.14.11 2.49 0 .86-.09 1.19-.34 1.19-.43 0-1-1.14-1-1.45s.16-1.9.16-2.08c0-.87-.11-1-.42-1a15.24 15.24 0 00-2.3.44 5 5 0 01-.63.19c-.22 0-1.78-.79-1.78-1.49 0-.11.07-.16.12-.16a4.29 4.29 0 01.59.13zm7.53 20.71c.7.44.77.51.77.67s-.19.61-.21.72a17.43 17.43 0 00-.11 3.19v2.16c0 .21.13 1.26.13 1.49s0 .79-.43.79-1.12-.77-1.12-1.26c0-.18.18-1 .2-1.15.11-1 .18-2.36.18-3.31 0-.65 0-2.54-.47-2.54-.09 0-.16.07-.31.22A19.55 19.55 0 01134 96a.09.09 0 01-.09-.1.16.16 0 01.06-.13c.46-.41 1-.83 1.26-1.08 4.24-3.64 5.65-6.7 5.65-7.2a1.06 1.06 0 00-.14-.51 1.75 1.75 0 01-.13-.28.18.18 0 01.18-.15c.27 0 2.09.76 2.09 1.44a.45.45 0 01-.16.36 5.26 5.26 0 00-1.23 1.48c-.3.43-.88 1.08-1.22 1.51a.28.28 0 00.18.23zM138 107.14c.65 0 1.95.58 1.95 1.15a4.75 4.75 0 01-.22.76 23.31 23.31 0 00-.16 2.5c0 .4.07.45.59.58 1.1.25 3.89 1.57 3.89 2.92a.61.61 0 01-.64.63c-.45 0-.51-.08-1.71-1.64-.51-.67-1.35-1.51-1.91-1.51-.18 0-.26 0-.26 1.33 0 1.91 0 2.86.09 4.48v.92c0 .45 0 1.64-.52 1.64s-1-1.23-1-1.69c0-.08.07-.45.07-.53a36.28 36.28 0 00.16-4.17c0-5.15 0-5.73-.21-6.31a2.15 2.15 0 00-.61-.82v-.08c-.03-.16.49-.16.49-.16z" fill="#fff"/></g></g></svg>