<svg version="1.1" id="レイヤー_1" xmlns="http://www.w3.org/2000/svg" x="0" y="0" viewBox="0 0 191.6 400.8" xml:space="preserve"><g><g><path d="M172.7 141.8c.5 0 1.4.2 1.8.3.4.1.5.3.5.6 0 .1 0 .1-.1.5-.2.6-.4 2.1-.4 3.6 0 1.1.1 1.3.7 1.3.4 0 .8-.1 2.4-.9.3-.2.5-.2.7-.2.4 0 .9.4.9.8 0 .2-.1.4-.4.5-.1.1-.4.1-1.2.4-2.2.6-3.4 1.2-4.5 2-1 .8-1.4 1.5-1.4 2.3 0 1.3 1 2 3 2 1.1 0 2.9-.2 4.2-.5.2 0 .3-.1.4-.1.5 0 1 .5 1 .9 0 .3-.2.5-.8.6-.6.1-2.4.2-3.5.2-1.3 0-2.3-.1-3.1-.4-1.2-.5-2-1.5-2-2.7 0-1 .6-2 1.8-3 .5-.5 1.1-.8 2.2-1.4h-.1c-.3 0-.5-.1-.8-.3-.5-.4-.6-1-.6-3.5 0-1.5-.1-1.8-.2-2.1-.2-.4-.6-.5-1.3-.7.3-.1.4-.2.8-.2zm6.4.9c.7.4 1.2.7 1.6 1.1.6.6.9 1 .9 1.4s-.3.8-.6.8c-.2 0-.2 0-.8-1.2-.3-.6-.9-1.4-1.4-1.9l.3-.2zm1.9-1c.6.3 1.2.6 1.7 1 .7.5.9.9.9 1.4 0 .4-.2.7-.5.7-.2 0-.3-.1-.4-.3-.6-1.1-1-1.6-2-2.6l.3-.2zm-12 23.8c.9.8 1.4 1 2.3 1 .5 0 1-.1 1.6-.2.5-1.2.6-1.9.6-2.6 0-.6-.3-1-1.2-1.4.2-.1.3-.1.4-.1.4 0 .9.2 1.4.4.6.3.8.5.8.8 0 .1 0 .3-.2.5-.1.1-.5.9-1.1 2.2 1.3-.5 1.5-.6 2-1 .1-.1.2-.1.4-.1.7 0 1.2.2 1.2.5 0 .5-1.1.9-4 1.6-.2.4-.5 1.1-1 2.2-.5 1.2-1.9 4.3-2.1 4.6-.3.5-.4.6-.6.6-.3 0-.6-.6-.6-1.3 0-.4 0-.5.2-.6.4-.4.6-.7.9-1.1.9-1.3 1.5-2.5 2.3-4.2-.4.1-.6.1-.8.1-.6 0-1.1-.1-1.6-.4-.5-.3-1-.7-1.3-1.3l.4-.2zm9.6 1c1.2.1 2.3.4 3.1 1 .7.5 1.1 1 1.1 1.4 0 .3-.2.5-.5.5-.1 0-.3 0-.4-.1-.5-.3-.8-.4-1.8-.4-1.4 0-1.9.4-1.9 1.6 0 .5.1 1.3.4 3.1 1.1.3 2 .8 2.6 1.2.5.4.7.8.7 1.4 0 .4-.1.6-.4.6-.2 0-.3-.1-.6-.5-.6-.7-1.2-1.1-2.2-1.6v.3c0 .7-.1 1.1-.5 1.5-.5.5-1.3.8-2.3.8-1.6 0-2.7-.8-2.7-1.9 0-1.3 1.4-2.1 3.4-2.1.4 0 .6 0 1.1.1-.1-1.4-.1-1.6-.1-1.8 0-1.5.1-2 .6-2.6.4-.4.9-.6 1.7-.8.3-.1.3-.1 1-.2-.5-.5-1-.8-2.3-1.2v-.3zm-1 7.9c-.6-.2-1-.2-1.5-.2-1.5 0-2.5.5-2.5 1.4 0 .7.7 1.1 1.8 1.1 1.5 0 2.2-.6 2.2-1.7v-.6zm-9 12.8c.7.8 1.2 1 2 1 .7 0 1.5-.1 2.3-.3.4-1.2.6-2.4.6-3 0-.6-.3-.8-1.3-1.1.2-.1.3-.2.6-.2.4 0 1 .1 1.5.3.5.2.8.4.8.7 0 .1 0 .1-.2.4-.2.3-.6 1.3-1.1 2.6 1-.4 1.7-.7 2.1-1.1.3-.3.4-.3.5-.3.2 0 .7.1 1 .2.2.1.3.2.3.3 0 .3-.3.5-1 .9-.8.4-2 .8-3.2 1-.2.6-.2.6-.8 2.3-.4 1.1-.4 1.1-1.4 4-.7 2.1-1 2.6-1.3 2.6-.2 0-.3-.1-.4-.4-.1-.3-.3-.7-.3-1 0-.3 0-.3.4-.9.9-1.3 1.6-2.9 2.8-6.4-.7.1-1.2.2-1.7.2-1.1 0-1.8-.5-2.5-1.6l.3-.2zm7.2 6.2v.6c0 1 .5 1.8 1.4 2.2.5.2 1.2.3 1.9.3s1.2-.1 1.7-.3c.1-.1.2-.1.3-.1.2 0 .6.2.9.4.2.2.3.3.3.5 0 .4-.7.6-2.1.6-1.4 0-2.5-.2-3.3-.6-1-.5-1.5-1.4-1.5-2.6 0-.4 0-.7.2-1.1l.2.1zm.5-3.4c1.3-.8 2.8-1.2 4.2-1.2.4 0 .8.1 1.1.3.2.1.3.3.3.5 0 .3-.2.4-.7.4-.7 0-.9.1-1.4.4-.4.2-.4.2-1 .6l-.6.4-.1-.2c.2-.2.2-.2.9-.8.2-.1.3-.3.9-.8-1.2 0-2.1.2-3.4.7l-.2-.3zm-7.3 17.9c.3.2.5.3.8.3.5 0 1-.1 5-1.1.6-.2 1.7-.4 2.9-.6 1.3-.3 1.9-.4 2.4-.6.4-.1.5-.1.6-.1.2 0 .6.2 1 .4s.5.5.5.7c0 .3-.2.5-.6.5h-.8c-3.1 0-6 2.9-6 6 0 1.6.8 2.9 2.4 3.5.6.3 1.3.4 1.8.4.4 0 .5.1.8.3.3.3.5.6.5.9 0 .3-.3.5-.6.5-1 0-2.7-.6-3.7-1.3-1.4-1-2.1-2.4-2.1-4 0-1.5.7-3.1 2-4.4.7-.8 1.4-1.3 2.9-2.1-2.2.3-6.4 1.5-8 2.4-.4.2-.5.3-.7.3-.4 0-1-.4-1.4-1.1-.3-.4-.5-.9-.5-1.2 0-.1 0-.3.2-.5.2.3.3.5.6.8zm10.7 1.6c.7.4 1.2.7 1.6 1.1.6.6.9 1 .9 1.4 0 .4-.3.8-.6.8-.2 0-.2 0-.8-1.2-.3-.6-.9-1.4-1.4-1.9l.3-.2zm1.9-1.1c.6.3 1.2.6 1.7 1 .7.5.9.9.9 1.4 0 .4-.2.7-.5.7-.2 0-.3-.1-.4-.3-.6-1.1-1-1.6-2-2.6l.3-.2zm-11 19.1c.4.6.7 1 1.2 1.3.6.4 1.2.6 2.1.8.5-2.5.6-2.8.6-3.2 0-.6-.3-1-1-1.5.1-.1.2-.1.3-.1.3 0 .8.2 1.3.6.6.4.9.9.9 1.3 0 .2-.1.3-.2.5-.3.4-.5.9-1 2.5.4.1.5.2.7.4.1.2.3.4.3.6 0 .2-.2.4-.6.4-.2 0-.4 0-.7-.1-.4 1.2-.6 2.3-.7 3.3.4.1.7.1.9.1h.3c.5 0 1.1.6 1.1 1 0 .3-.2.4-.6.4-.5 0-1.3-.1-1.9-.3 0 .4-.1.6-.1.9 0 1.8 1 2.9 2.8 2.9 1.2 0 2.3-.5 2.8-1.2.4-.5.6-1.2.6-1.8 0-1.5-1-3.2-2.7-4.5l.2-.2c2.7 1.6 3.8 3.1 3.8 5 0 2.2-1.9 3.8-4.4 3.8-.9 0-1.8-.3-2.4-.7-.9-.7-1.4-1.8-1.4-3.3v-.9c-.7-.3-1.1-.5-1.4-.9-.5-.5-.8-1.2-.8-1.8 0-.4.2-.9.6-1.2.4-.4.9-.7 1.7-1-.7-.3-1.2-.6-1.7-1.1-.4-.4-.6-.8-.9-1.6l.3-.4zm1.1 4.1c-.3.3-.4.6-.4.9 0 .8.6 1.3 1.9 1.7.1-.9.3-1.9.5-3.3-1.1 0-1.6.2-2 .7zm-3.9 29.5c2.2-.3 3.7-.7 5.4-1.5 1-.5 1.7-1 2.5-1.8-1.5-.6-2-.8-3.7-1.2-.2.4-.4.6-.7 1.1-.1.1-.2.1-.3.1-.2 0-.3-.1-.5-.1-.5 0-.5-.1-.6-.3 1-1.6 1.5-2.3 2.6-4.4H169c-.3 0-.8.1-1.4.1l-.2-.8c.8.2 1.1.2 1.6.2h3.8c.7-1.5 1.2-2.5 1.5-3.9l1.8.5c.1.1.1.1.1.2 0 .2-.1.2-.9.4-.5 1.2-.7 1.7-1.3 2.8h7.1c.4-.6.6-.8 1-1.3.8.6 1 .9 1.8 1.6l.1.1c0 .1-.1.1-.2.1h-4.2c-.5 1.6-.7 2.1-1.3 3.1-.3.5-.6.9-1 1.3 1.8.6 3.3 1.3 4.2 1.8.6.3.7.6.7 1.4 0 .4-.1.7-.3.7-.1 0-.1 0-.6-.4s-2.3-1.6-3.1-2c-.5-.3-.8-.4-1.6-.8-.8.9-1.7 1.4-3 2-1.9.8-3.4 1.1-6 1.2l.2-.2zm7.3-13.4v-2.3c1.6.2 2 .3 2 .5 0 .1-.2.3-.7.4v1.5h5.3c.3-.4.4-.6.8-1 .8.6 1 .7 1.7 1.4.1.1.1.1.1.2s-.2.2-1.2.3c-1 .9-1.3 1.1-2.3 1.9l-.2-.1c.8-1.5.8-1.5 1.1-2.2h-11.9c-.1.9-.3 1.5-.6 2.1-.3.5-.8 1.1-1.1 1.1-.3 0-.6-.7-.6-1.2 0-.2.1-.3.3-.5.4-.2.8-.6 1-1 .3-.4.3-.5.8-2.2h.2c0 .7 0 1-.1 1.4h5.4zm-1.2 5.4c-.5 1.1-1.2 2.3-1.6 3.1.4.1.4.1 1.4.3.8.2 1.5.3 2.6.6 1-1.3 1.6-2.4 2.1-4h-4.5zm-3.5 19.5v.9c0 1.8-.4 3.6-1 4.7-.4.7-.8 1.1-1.1 1.1s-.5-.6-.5-1.3c0-.3.1-.4.5-.8.5-.5 1-1.3 1.3-2.2.3-.8.4-1.4.5-2.6h.3zm1.9-.1c0-.8 0-1.7-.1-2.5 1.9.3 2.2.3 2.2.5s0 .2-.8.5v9.4c0 .3.1.3.7.4h2.5c1.5 0 1.8-.1 2-.4.2-.4.5-1.3 1.1-4.1h.2l-.2 3.9v.1c0 .2.1.3.4.3.4.1.5.2.5.5s-.3.5-.8.6c-.4.1-2.1.2-3.3.2-2.9 0-3.5 0-3.8-.1-.4-.1-.6-.4-.6-.9.1-1.8.1-1.9.1-2.6v-5.8zm.5-5.8c2.1.5 3.1.9 4.3 1.6.3.2.4.3.5.5.1.2.1.6.1.8 0 .5-.2.8-.4.8-.1 0-.2-.1-.5-.4-1.1-1.2-2.6-2.3-4.2-3.1l.2-.2zm7.7 5.8c2.1 2 3.2 3.6 3.2 4.6 0 .3-.1.8-.4 1.3-.2.3-.3.5-.5.5s-.3-.2-.4-.7c-.5-2.3-1.1-3.8-2.2-5.6l.3-.1zm-4.9 29.3c1.9-.6 3.2-1.3 4.2-2.5 1.1-1.2 1.6-2.7 1.6-4.3 0-1.7-.7-3.1-2-4-.8-.5-2-.8-3.1-.8h-.6c.4.6.6 1 .6 1.5 0 1.4-1 4-2.4 6.2-1.1 1.8-2 2.7-2.7 2.7-.3 0-.6-.1-.8-.4-.2-.2-.2-.3-.5-1.2-.2-.5-.3-.7-.8-1.7-.3-.6-.4-1.1-.4-1.6 0-1.1.6-2.5 1.6-3.6 1.5-1.5 3.8-2.5 6.2-2.5 1.8 0 3.5.6 4.6 1.7s1.7 2.5 1.7 4.2c0 2.3-1.3 4.2-3.6 5.5-1 .6-2 .8-3.5 1.1l-.1-.3zm-5.9-5.6c0 .9.3 1.7.7 2.4.3.3.5.5.7.5.4 0 1.3-1 2.1-2.4 1.3-2.1 2.3-4.4 2.3-5.6 0-.3-.1-.4-.3-.9-3.1.6-5.5 3.2-5.5 6zm-44.2-142.7c1.8-1.4 3.3-3.2 4.4-5 .6-1 .7-1.4.7-1.8 0-.3-.2-.6-.9-1 .2-.1.3-.1.4-.1.3 0 1 .3 1.5.6.6.4.9.7.9 1 0 .2 0 .2-.4.5-.2.1-.2.2-.6.7-1.5 2-2.1 2.6-3.8 3.9-.8.6-1.4 1-2.1 1.3l-.1-.1zm9.7-7.9c1.9 1.1 3.6 2.6 4.7 4.2.6.8.8 1.3.8 1.9 0 .8-.3 1.3-.7 1.3-.3 0-.3-.1-.6-.8-.9-2.4-2.4-4.6-4.4-6.4l.2-.2zm2.2-2.6c.7.4 1.2.7 1.6 1.1.6.6.9 1 .9 1.4s-.3.8-.6.8c-.2 0-.2 0-.8-1.2-.3-.6-.9-1.4-1.4-1.9l.3-.2zm1.8-1.1c.6.3 1.2.6 1.7 1 .7.5.9.9.9 1.4 0 .4-.2.7-.5.7-.2 0-.3-.1-.4-.3-.6-1.1-1-1.6-2-2.6l.3-.2zm-9.8 21.9c.4 0 1.2.3 1.7.6.3.2.5.4.5.6 0 .1 0 .2-.1.4-.1.4-.2 1.8-.2 3.1v2c0 .6 0 .8-.1 1 0 .3-.2.4-.4.4s-.5-.2-.7-.6c-.2-.4-.3-.8-.3-1 0-.1 0-.2.1-.4.2-.5.2-1.5.2-2.9 0-1.3-.1-1.7-.3-2.2-.2-.4-.4-.5-1.1-.8.4-.2.4-.2.7-.2zm1.9 13.6c1.8-1.2 2.8-2.2 3.6-3.6 1-1.7 1.3-3.3 1.3-7.5 0-1.8-.1-2.4-.3-2.7-.2-.3-.6-.5-1.3-.6.3-.2.4-.3.7-.3.4 0 1.3.2 1.8.5.5.2.6.5.6.7 0 .1 0 .1-.1.4-.1.4-.2 1.6-.3 3.9-.1 2.6-.2 3.4-.6 4.5-.8 2.1-2.7 3.9-5.4 5v-.3zm-2.3 20.7c1.3-1.1 2.5-2.7 3.3-4.5.6-1.4 1.1-3.1 1.1-3.9 0-.5-.3-.8-1.1-1.2.1-.1.2-.2.4-.2s.9.2 1.4.5c.5.3.6.4.8.6.8-.5 2.4-1.8 3.2-2.6.4-.4.6-.6.6-.7 0-.2-.2-.3-1.1-.3-1.2 0-4.3.5-6.2 1-.7.2-1.3.4-1.8.6-.1.1-.3.1-.4.1-.4 0-1-.5-1.4-1.2-.2-.3-.3-.8-.3-1 0-.1 0-.3.1-.4.3.7.9 1.1 1.8 1.1.6 0 1 0 4.3-.5.2 0 .6-.1 1.2-.1 2.8-.3 2.9-.4 3.3-.5.1 0 .1-.1.2-.1.2 0 .5.2 1 .5.8.6 1.3 1.2 1.3 1.5 0 .3-.1.3-.6.5-.3.1-.5.2-.9.4-1.5.8-2.3 1.3-4.2 2.2-.1.3-.1.3-.3.8-.8 2.5-1.5 3.9-2.6 5.2-.9 1-1.8 1.8-2.8 2.4l-.3-.2zm.4 20.8c2.8-2.4 4.4-4.2 5.9-6.9 1.2-2 2.1-4.2 2.1-4.8 0-.2-.1-.2-.4-.2-.3 0-2 .3-3.3.6-1.4.3-2.5.7-3.3 1-.3.1-.5.2-.7.2-.4 0-.8-.4-1.3-1-.3-.4-.5-.8-.5-1.1 0-.1 0-.2.1-.4.3.7.9 1 1.7 1 .6 0 2.1-.2 5.1-.7 1.6-.3 1.7-.3 2.1-.5.2-.1.2-.1.4-.1.3 0 .8.3 1.3.8.4.4.6.6.6.9 0 .2 0 .3-.3.5-.2.3-.3.4-.6 1-1.5 2.9-3.3 5.5-5.2 7.3-1.1 1-2.2 1.8-3.7 2.7v-.3zm0 7.6c.4 0 1.2.3 1.7.6.3.2.5.4.5.6 0 .1 0 .2-.1.4-.1.4-.2 1.8-.2 3.1v2c0 .6 0 .8-.1 1 0 .3-.2.4-.4.4s-.5-.2-.7-.6c-.2-.4-.3-.8-.3-1 0-.1 0-.2.1-.4.2-.5.2-1.5.2-2.9 0-1.3-.1-1.7-.3-2.2-.2-.4-.4-.5-1.1-.8.4-.2.4-.2.7-.2zm1.9 13.6c1.8-1.2 2.8-2.2 3.6-3.6 1-1.7 1.3-3.3 1.3-7.5 0-1.8-.1-2.4-.3-2.7-.2-.3-.6-.5-1.3-.6.3-.2.4-.3.7-.3.4 0 1.3.2 1.8.5.5.2.6.4.6.7 0 .1 0 .1-.1.4-.1.4-.2 1.6-.3 3.9-.1 2.6-.2 3.4-.6 4.5-.8 2.1-2.7 3.9-5.4 5v-.3zm1.9 9.1c0-1.3-.1-1.7-.3-2-.2-.3-.5-.5-1-.6.1-.2.3-.2.6-.2.4 0 1 .2 1.6.5.6.3.8.5.8.8 0 .2 0 .3-.3.6-.2.3-.2 1.1-.2 7.9 0 3.8-.1 4.4-.7 4.4-.2 0-.3-.1-.4-.4-.1-.3-.2-.9-.2-2.2l.1-8.8zm2.9 21.6c.3-.4.4-.5.7-.8.6.5.8.6 1.3 1.1.2.1.2.2.2.3 0 .1-.2.2-1.1.2-.9 1.1-1.5 1.7-2.7 2.6 1 .5 1.8.8 2.8 1.1 1.6.5 2.8.6 4.5.7v.3c-.7.1-.9.3-1.4 1.2-1.1-.3-1.6-.4-2.9-.9.4.4.4.4.8.7.1.1.2.2.2.3 0 0 0 .1-.1.1 0 0-.1.1-.2.1 0 0-.1.1-.2.1v4.4c0 .1-.1.2-.2.2-.2.1-.5.1-.7.1-.3 0-.3-.1-.3-.3v-.7H130v.6c0 .3-.2.4-.7.4-.4 0-.5-.1-.5-.3v-5c-1.3.5-2 .7-3.4 1l-.1-.3c2.7-.9 5.4-2.2 7.5-3.7-.8-.6-1.6-1.5-2.2-2.1-.4.5-.9.9-1.5 1.3-1.3 1-2.1 1.5-3.2 1.9l-.1-.2c1.7-1.3 2.5-2 3.4-3 1-1.1 1.6-2 1.9-2.9 1.8.4 1.9.4 1.9.6 0 .2-.3.3-.9.4-.2.3-.3.4-.5.6h4.5zm-3.1-2.2v-1.2c0-.4 0-.7-.1-1.2 1.5.1 1.7.2 1.9.2.1.1.2.1.2.2 0 .2-.2.3-.8.4v1.5h5c.4-.4.5-.6.8-1l1.6 1.2.2.2c0 .1-.1.1-.2.1 0 0-.4.1-1.1.2-1.1 1.3-1.2 1.3-1.7 1.8l-.2-.1c.3-.9.4-1.2.6-2h-11.5c-.1.9-.3 1.5-.5 2-.2.4-.8.8-1.1.8-.1 0-.3-.1-.4-.3-.1-.1-.1-.5-.1-.8 0-.2 0-.3.4-.5.3-.2.6-.6.8-1 .3-.6.5-1.1.6-1.9h.3v1.2h5.3zm3.8 8.6c.3-.3.3-.3.7-.6-1.7-.7-2.6-1.1-3.8-1.9-1.2.8-2.4 1.4-4 2.1.2.1.2.2.4.4h6.7zm-6.6 4h6.8v-3.5h-6.8v3.5zm1.3-9.9c-.2.2-.2.3-.4.5.5.6 1.4 1.3 2.5 1.9 1-.8 1.5-1.3 2.4-2.4h-4.5zm6.3 27.6c.4-.5.6-.7 1-1.2.7.6.9.8 1.6 1.4.1.1.1.1.1.2s-.1.1-.2.1h-6v3.1h4.8c.5-.5.6-.7 1.1-1.2.8.6 1 .7 1.7 1.4.1.1.1.1.1.2s-.1.1-.1.1h-14.6c-.3 0-1.2.1-1.5.1l-.2-.7c1.4.2 1.4.2 1.7.2h5.7v-3.1h-4.2c-.4 0-.7 0-1.5.1l-.2-.7c.5.1 1.4.2 1.7.2h4.2v-.7c0-.5 0-.9-.1-1.8 2 .3 2.1.3 2.1.5 0 .1-.1.2-.8.4v1.6h3.6zm-4.7-9.8v-.8c0-.7 0-.8-.1-1.3 1.7.2 2.1.3 2.1.5 0 .1-.1.1-.1.2-.1 0-.3.1-.7.2v1.3h5c.4-.4.4-.4.8-.9.7.5 1 .6 1.6 1.2.1.1.1.1.1.2 0 0 0 .1-.1.1s-.2.1-.5.1c-.2 0-.4.1-.6.1l-.3.3c-.6.5-.6.6-1.1 1l-.2-.1c.2-.7.3-1 .4-1.5h-11.6c-.1.9-.3 1.4-.6 1.9s-.7.8-1 .8c-.3 0-.6-.7-.6-1.1 0-.2.1-.3.3-.4.7-.5.9-.7 1.1-1.2.3-.6.5-1.1.6-1.7h.3v1.2h5.2zm-3.7 3.1c-.5 0-.8 0-1.4.1l-.2-.7c.3 0 .3 0 1.6.2h8c.4-.5.5-.6.9-1.1.6.5.9.7 1.6 1.3l.1.1c0 .1-.1.1-.1.1h-6.6c-1.6 2.1-1.6 2.1-2.5 3.1 2-.1 3.2-.1 6.8-.5l-1.9-1.9.1-.2c.8.3 1.2.5 2.4 1.3.8.5 1.5 1 1.7 1.3.2.2.3.4.3.7 0 .6-.2 1.1-.5 1.1-.1 0-.1 0-1-1.2-.5-.6-.5-.7-.7-1-2.1.3-3.5.6-4 .6-1.8.3-4.4.6-5.8.6 0 .6-.1.8-.3.8-.3 0-.4-.5-.7-2 .4 0 .6.1 1 .1h2.1c.8-1.4 1-1.7 1.5-3.1h-2.4z" fill="#200701"/></g></g><g><rect width="55" height="400.8" fill="#210100"/><line x1="27.7" y1="0" x2="27.7" y2="30" fill="none" stroke="#76544b" stroke-miterlimit="10"/></g><g><path d="M15.1 73.9c2.7-2.2 5.2-4.9 6.9-7.8.9-1.5 1.1-2.2 1.1-2.8 0-.4-.4-.9-1.4-1.6.3-.1.4-.1.6-.1.5 0 1.5.4 2.3 1 1 .6 1.4 1.1 1.4 1.5 0 .3-.1.3-.6.8-.3.2-.4.4-.9 1.1-2.3 3.1-3.3 4.1-5.9 6.1-1.3 1-2.1 1.5-3.3 2l-.2-.2zm15-12.3c2.9 1.7 5.6 4.1 7.4 6.5.9 1.2 1.2 2 1.2 3 0 1.2-.4 2.1-1.1 2.1-.4 0-.5-.2-.9-1.3-1.4-3.8-3.8-7.2-6.9-9.9l.3-.4zm3.5-4c1 .6 1.8 1.1 2.5 1.7 1 .9 1.4 1.6 1.4 2.2s-.4 1.2-.9 1.2c-.4 0-.4 0-1.3-1.8-.5-1-1.4-2.2-2.1-2.9l.4-.4zm2.8-1.6c1 .4 1.8 1 2.7 1.6 1.1.8 1.5 1.4 1.5 2.2 0 .7-.3 1.1-.7 1.1-.3 0-.4-.1-.6-.5-1-1.8-1.5-2.5-3.1-4l.2-.4zM21.1 93.9c.7 0 1.9.4 2.6.9.5.3.7.6.7 1 0 .1-.1.4-.1.6-.1.6-.3 2.8-.3 4.8v3.1c0 .9 0 1.2-.1 1.5-.1.4-.3.6-.6.6-.4 0-.7-.3-1.1-1-.3-.6-.5-1.2-.5-1.6 0-.2 0-.3.1-.6.3-.8.4-2.4.4-4.6 0-2-.1-2.7-.5-3.4-.3-.6-.6-.7-1.7-1.2.6-.1.7-.1 1.1-.1zm3 21.2c2.8-1.9 4.4-3.5 5.7-5.6 1.6-2.7 2-5.1 2-11.7 0-2.8-.1-3.7-.5-4.2-.4-.4-1-.8-2-1 .4-.3.6-.4 1.1-.4.7 0 2 .4 2.9.8.7.3 1 .7 1 1.1 0 .2 0 .2-.2.7-.2.7-.4 2.5-.5 6-.1 4.1-.3 5.3-.9 7-1.2 3.2-4.2 6-8.3 7.7l-.3-.4zm-3.6 36c2.1-1.7 3.8-4.2 5.1-7.1.9-2.1 1.7-4.9 1.7-6.1 0-.8-.5-1.3-1.7-1.8.2-.2.4-.3.6-.3.4 0 1.3.4 2.2.8.7.4 1 .6 1.2 1 1.3-.8 3.8-2.8 5-4 .6-.6.9-.9.9-1.1 0-.3-.3-.4-1.7-.4-1.8 0-6.6.8-9.7 1.5-1.1.3-2 .6-2.9 1-.2.1-.4.1-.6.1-.6 0-1.6-.8-2.2-1.9-.3-.5-.5-1.2-.5-1.5 0-.2.1-.4.2-.6.5 1.1 1.4 1.7 2.8 1.7 1 0 1.5-.1 6.7-.7.3 0 .9-.1 1.9-.2 4.3-.5 4.6-.6 5.2-.8.2-.1.2-.1.4-.1.3 0 .8.3 1.5.8 1.2.9 2 1.9 2 2.4 0 .4-.2.5-1 .8-.4.1-.8.3-1.4.6-2.3 1.3-3.6 2-6.6 3.4-.2.5-.2.5-.4 1.3-1.3 3.8-2.4 6-4 8-1.4 1.6-2.8 2.8-4.3 3.8l-.4-.6zm.6 36.3c4.4-3.8 6.8-6.6 9.2-10.7 1.8-3.1 3.3-6.5 3.3-7.5 0-.3-.1-.4-.6-.4s-3.1.5-5.2 1-3.9 1-5.1 1.6c-.4.2-.8.3-1 .3-.6 0-1.3-.6-2-1.5-.5-.6-.7-1.3-.7-1.7 0-.2 0-.3.2-.6.4 1.1 1.4 1.6 2.6 1.6.9 0 3.2-.3 8-1.1 2.5-.4 2.7-.5 3.2-.8.3-.2.3-.2.6-.2.4 0 1.2.5 2 1.3.6.6.9 1 .9 1.3 0 .3-.1.4-.4.8-.4.4-.5.6-1 1.5-2.3 4.6-5.1 8.5-8.1 11.3-1.8 1.6-3.4 2.8-5.8 4.2l-.1-.4zm0 15.7c.7 0 1.9.4 2.6.9.5.3.7.6.7 1 0 .1-.1.4-.1.6-.1.6-.3 2.8-.3 4.8v3.1c0 .9 0 1.2-.1 1.5-.1.4-.3.6-.6.6-.4 0-.7-.3-1.1-1-.3-.6-.5-1.2-.5-1.6 0-.2 0-.3.1-.6.3-.8.4-2.4.4-4.6 0-2-.1-2.7-.5-3.4-.3-.6-.6-.7-1.7-1.2.6-.1.7-.1 1.1-.1zm3 21.2c2.8-1.9 4.4-3.5 5.7-5.6 1.6-2.7 2-5.1 2-11.7 0-2.8-.1-3.7-.5-4.2-.4-.4-1-.8-2-1 .4-.3.6-.4 1.1-.4.7 0 2 .4 2.9.8.7.3 1 .7 1 1.1 0 .2 0 .2-.2.7-.2.7-.4 2.5-.5 6-.1 4.1-.3 5.3-.9 7-1.2 3.2-4.2 6-8.3 7.7l-.3-.4zm2.9 18.2c0-2-.1-2.6-.4-3.1-.3-.4-.8-.7-1.5-1 .2-.3.5-.4.9-.4.6 0 1.6.3 2.5.8.9.5 1.2.8 1.2 1.2 0 .3-.1.4-.4.9-.3.4-.3 1.7-.3 12.3 0 5.9-.2 6.9-1.1 6.9-.3 0-.4-.2-.6-.6-.2-.4-.3-1.4-.3-3.5v-13.5zm-4.2 38.2h1.3c.6-.8.8-1 1.4-1.8 1 .8 1.2 1.1 2.2 2 .1.1.2.2.2.3 0 .1-.1.2-.3.2h-4.8v2.6c1.3.6 2.1 1.1 3 1.7 1.2.9 1.5 1.3 1.5 2.1 0 1-.3 1.8-.7 1.8-.2 0-.3-.1-.5-.5-1-2.1-1.9-3.3-3.4-4.5v12.9c0 .2-.1.3-.2.3s-1.1.1-1.5.1c-.2 0-.3-.1-.3-.3 0-1.4.1-1.7.1-3.1.2-3.5.2-4 .2-5.5l.2-4.9c-1.7 3.7-2.9 5.3-5.8 8.5l-.3-.2c1.8-2.6 2.6-3.9 3.6-5.9.8-1.7.8-1.7 2.1-5.1h-3.4c-.5 0-1.1.1-1.7.2l-.2-1.1c.8.2 1.2.3 2.2.3H21v-4.3c-2 .4-2.8.6-4.8.8l-.2-.4c2.7-.7 4.1-1.2 6.2-2.1 1.9-.8 2.6-1.1 3.5-1.8 2.4 1.7 2.4 1.7 2.4 1.8 0 .2-.2.3-.5.3-.1 0-.5-.1-1-.1-1.6.6-2.2.7-3.8 1.1v4.6zm7.7 15.9v.1c0 .3-.3.4-.9.4H29c-.3 0-.4-.1-.4-.4.1-2.8.1-3.9.1-7.3 0-9.3 0-11.8-.1-13.6 1 .6 1.2.8 2.2 1.4H37c.5-.6.7-.7 1.2-1.3.7.5.9.7 1.6 1.3.2.2.3.3.3.4 0 .2-.3.4-.9.8v5.8c0 6.4 0 8.3.2 12.2 0 .4-.3.5-1.2.5h-.6c-.2 0-.3-.1-.3-.3v-1.9h-6.8v1.9zm0-2.5h6.8v-16.2h-6.8v16.2zm-14.9 21.6c1.5.6 2.3 1 3.1 1.5 1 .6 1.2 1 1.2 1.6 0 .8-.4 1.7-.8 1.7-.3 0-.4-.2-1-1.2-1.1-1.7-1.5-2.3-2.7-3.4l.2-.2zm.1 10.1c1.1.2 1.6.3 1.8.3.2 0 .5-.3.7-.6l2.3-4.6c.1-.3.8-1.7 1.7-3.8.1-.3.4-.8.6-1.4l.4.2-3.6 10.2c-.2.7-.3 1.3-.3 1.7 0 .5 0 .6.5 2 .2.7.3 1.4.3 1.9 0 .6-.2 1.2-.5 1.6-.4.4-1 .7-1.4.7-.4 0-.6-.3-.6-.7 0-.1 0-.3.1-.8.1-1.1.2-2.4.2-3.3 0-1.3-.1-1.7-.4-2.1-.3-.3-.3-.3-1.8-.9v-.4zm1.7-16.2c1.4.5 2.6 1.1 3.5 1.7.8.5 1 .8 1 1.4 0 .9-.5 1.7-.9 1.7-.2 0-.3-.1-.5-.4-.9-1.4-1.8-2.5-3.3-4.1l.2-.3zm14 10.4H35c.7-.8.9-1.1 1.6-1.8 1 .8 1.3 1.1 2.3 2 .1.1.1.2.1.2 0 .1-.1.2-.3.2h-7.4v5.2h4.9c.7-.8 1-1.1 1.7-1.9 1.1.9 1.4 1.2 2.5 2.2.1.1.1.2.1.2 0 .1-.1.2-.3.2h-9v.9c0 2 .1 4 .2 6.6 0 .2-.1.3-.3.3-.2.1-1 .2-1.5.2-.4 0-.5-.1-.5-.4.1-1.8.1-4.5.1-6.8v-.8H24c-1 0-1.9.1-2.4.2l-.2-1.1c.7.2 1.5.3 2.7.3h5.2v-5.2h-3.6c-.8 0-1.5.1-2.2.2l-.2-1.1c.6.1 1.5.2 2.4.2h3.6v-4.5h-4.4c-.6 0-1.2.1-1.7.1l-.2-1c.7.2 1.3.2 2 .2h2.4c-.2-.2-.2-.2-.4-1.1-.4-1.3-.8-2.2-2-4l.3-.3c.4.3.7.5.9.6 1.3.9 1.5 1 2.1 1.7.4.5.6.8.6 1.1 0 .6-.4 1.6-.9 1.9h3.8c.8-1.4 1.7-3.4 2.3-5.4 3.1 1.1 3.1 1.1 3.1 1.3 0 .2-.2.3-1.4.4-1.9 2.2-2.2 2.6-3.4 3.7h3.2c.8-.9 1-1.1 1.8-2 1.1.9 1.4 1.2 2.4 2.2.1.1.1.2.1.2 0 .1-.1.2-.3.2h-8.3v4.7zm2.8 44c.6-.8.9-1 1.6-1.9 1.1.9 1.5 1.2 2.5 2.1.1.1.1.2.1.3 0 .1-.1.2-.3.2h-9.4v4.8h7.5c.7-.8 1-1.1 1.8-1.9 1.2.9 1.5 1.1 2.7 2.1.1.1.2.2.2.3s-.1.2-.2.2H18c-.5 0-1.9.1-2.4.2l-.3-1.1c2.1.3 2.2.3 2.7.3h8.8v-4.8h-6.5c-.6 0-1.1 0-2.3.1l-.3-1.1c.8.2 2.1.3 2.7.3h6.5V363c0-.8 0-1.5-.1-2.8 3.1.4 3.3.5 3.3.8 0 .2-.2.3-1.2.6v2.5h5.3zm-7.4-15.3v-1.3c0-1.1 0-1.3-.1-2 2.7.3 3.3.4 3.3.7 0 .1-.1.2-.2.3-.1.1-.5.2-1.1.3v2h7.8c.6-.7.6-.7 1.3-1.5 1.1.8 1.5 1 2.5 1.8.1.1.2.2.2.3 0 .1-.1.1-.1.2-.1.1-.4.1-.7.2-.4.1-.7.1-.9.1l-.5.5c-.9.8-1 1-1.8 1.5l-.3-.2c.3-1.1.4-1.5.6-2.4h-18c-.2 1.3-.4 2.2-.9 3-.4.7-1.1 1.3-1.5 1.3s-1-1-1-1.7c0-.3.1-.4.4-.6 1.1-.8 1.4-1.1 1.8-1.8.5-.9.8-1.7.9-2.7h.5v.6c0 .4 0 .7-.1 1.2h7.9zm-5.6 4.8c-.8 0-1.2 0-2.2.2l-.3-1.1c.5.1.5.1 2.5.3h12.4c.6-.8.8-1 1.4-1.7 1 .8 1.3 1.1 2.4 2 .1.1.1.1.1.2s-.1.1-.2.1H27.1c-2.5 3.3-2.5 3.3-3.9 4.8 3.1-.1 5-.2 10.5-.7-1.1-1.1-1.7-1.8-3-2.9l.2-.3c1.3.5 1.8.8 3.7 2 1.3.8 2.3 1.6 2.7 2.1.3.3.4.7.4 1.1 0 1-.3 1.7-.7 1.7-.2 0-.2 0-1.5-1.8-.7-1-.8-1.1-1.1-1.5-3.2.5-5.5.9-6.2 1-2.8.4-6.9.9-9 1-.1.9-.2 1.2-.5 1.2-.4 0-.6-.8-1.1-3.1.6.1 1 .1 1.5.1h.8c.3 0 .3 0 2.5-.1 1.3-2.2 1.5-2.6 2.4-4.8h-3.6z" fill="#fff"/></g></svg>