<svg version="1.1" id="レイヤー_1" xmlns="http://www.w3.org/2000/svg" x="0" y="0" viewBox="0 0 118 459.9" xml:space="preserve"><g><path d="M82.6 120.7c.3-2.3.9-3.9 2.1-5.5 1.1-1.6 2.3-2.7 5.9-5.6 1.1-.9 1.7-1.5 2.1-2.2.4-.7.6-1.5.6-2.4 0-2.4-1.5-3.9-3.8-3.9-1.7 0-2.9.8-3.3 2.2-.2.6-.2 1-.3 2-.1 1-.4 1.2-1.3 1.2-1 0-1.4-.3-1.4-1.1 0-2.9 2.8-5 6.6-5 2.4 0 4.3.8 5.4 2.1.6.8.9 1.7.9 3 0 2.3-1 3.8-4.1 5.7-3.5 2.2-4.3 2.7-5.5 3.9-1.2 1.2-1.8 2.1-2.3 3.6h8.1c2 0 2.7-.6 3.3-3l.8.2-.8 4.9h-13zm5.6 38.5c2-1.6 3.1-3.2 3.1-4.6 0-1.4-.9-3.5-2.6-6.4-1.9-3.1-2.4-4.1-2.7-5.2-.2-.6-.3-1.2-.3-1.8 0-1.5.5-2.5 1.8-3.9 1-1 1.9-1.7 3-2.2l.4.6c-1.5 1.1-2.2 1.8-2.7 2.6-.4.6-.6 1.4-.6 2 0 1.3.6 2.8 2.5 6 1.8 3.1 2.7 4.8 2.9 5.9.1.4.1.8.1 1.3 0 2.2-1.5 4.3-4.4 6.3l-.5-.6zm2.1 23.9c1.4.1 2.2.3 3.1.8 1.6.8 2.5 2.4 2.5 4.3 0 3.4-2.8 5.7-6.9 5.7-3.6 0-6.4-1.7-6.4-4.1 0-.9.5-1.3 1.6-1.3.8 0 1.1.3 1.2 1.1.1 1.4.2 1.9.7 2.5.6.7 1.5 1 2.8 1 2.8 0 4.4-1.8 4.4-5 0-2-.7-3.4-1.9-4.1-.8-.4-2-.7-3.2-.7H87v-.9h1.2c1.1 0 2.2-.3 3.1-.8 1-.7 1.6-2 1.6-3.6 0-1.1-.3-2.1-.7-2.8-.6-1-1.5-1.4-2.9-1.4-2.1 0-3.2 1.1-3.3 3.3-.1 1.1-.3 1.3-1.3 1.3s-1.5-.3-1.5-1.1c0-2.4 2.8-4.4 6.1-4.4 3.6 0 6.2 2.1 6.2 4.9 0 1.6-.9 3-2.3 3.8-.8.4-1.5.7-2.8.9v.6zm4.4 27.9c.4-.5.6-.7 1.1-1.2.9.7 1.2 1 2.1 1.7.1.1.2.3.2.3 0 .2-.3.3-1.5.6-3.9 4.9-6 7-9.6 9.6h10.7c.4-.5.5-.7 1-1.2.9.5 1.1.7 2 1.3.1.1.2.2.2.3 0 .2-.2.3-1.2.8 0 5.8 0 5.8.1 9-.1.3-.3.4-1.1.4H98c-.3 0-.3-.1-.4-.3v-1.1h-11v1.1c-.1.3-.3.4-1 .4H85c-.3 0-.4-.1-.5-.3.1-4.8.1-5.5.2-9.1-2.7 1.7-4.8 2.6-8 3.6l-.1-.4c4.3-2.1 7.2-3.9 10.1-6.5 2-1.7 4.1-3.8 5.7-5.8.7-.8 1.1-1.5 1.9-2.8H87c-1 1.1-1.5 1.7-2.6 2.7.3.2.3.2 1.9 1.2.4.3.9.7 1.2 1.1.2.2.3.4.3.7 0 .3-.2 1-.3 1.3-.1.2-.4.5-.6.5-.3 0-.4-.2-.6-.8-.4-1.4-1.2-2.6-2.2-3.7-2.2 2.1-3.9 3.3-6.5 4.6l-.2-.4c2.7-1.9 4.5-3.7 6.9-6.6 1.7-2.2 2.6-3.6 3.3-5.2.6.2 1.1.4 1.5.5 1.5.5 1.8.6 1.8.8 0 .2-.6.4-1.5.4-.7 1-1 1.4-1.6 2.2h6.9zm-8 19.6h11v-8h-11v8zM83 249.5c.6-.8.8-1 1.4-1.7.9.8 1.2 1.1 2 1.9.1.1.1.2.1.3s-.1.1-.3.1h-3.8v2c.4.3.4.3 1.5 1 .8.6 1.3 1.2 1.3 1.8 0 .7-.5 1.5-.9 1.5-.2 0-.3-.2-.4-.6-.3-1.3-.8-2.4-1.4-3.2v16.2c-.1.4-.3.4-1.5.4-.3 0-.4-.1-.4-.3v-.1c.1-4.3.1-4.4.1-6v-2.2c0-1.6 0-2.7.1-3.3l.3-4.1c-.8 2.4-1.2 3.6-2.1 5.4-.9 1.7-1.4 2.5-2.6 4l-.3-.2c1.5-2.9 2.4-5.1 3.2-7.4.5-1.6.5-1.6 1.2-4.9H79c-.8 0-1.5.1-2 .2l-.2-1.1c.7.1 1.4.2 2.2.2h1.9v-3.2c0-1.2 0-1.7-.2-2.8 2.7.4 3 .5 3 .8 0 .2-.3.4-1 .6v4.6h.3zm10.6 2.7H97c.6-.8.8-1 1.3-1.6 1 .8 1.3 1 2.2 1.9.1.1.1.2.1.3s-.1.1-.3.1h-6.9v3.1h5.1c.7-.8.9-1.1 1.6-1.8 1.1.8 1.4 1.1 2.5 2 .1.1.1.2.1.3 0 .1-.1.1-.3.1h-8.9c.8 2.1 1.2 3 2.4 4.4 1.1-1.1 1.8-2.1 2.7-3.9 1.9 1.1 2.7 1.7 2.7 1.9 0 .1-.2.3-.4.3h-.3c-.1 0-.4 0-.7-.1-1.5 1-2 1.3-3.7 2.2 1.7 2 3.7 3.2 6.4 4.4v.3c-1.1.3-1.3.4-2.1 1.8-2-1.4-3-2.4-4.6-4.7-1.1-1.7-1.8-3-2.5-5.2v3.6c.1 1.2.1 2.2.1 2.9 0 1.1.1 1.3.1 2.4 0 .9-.2 1.4-.7 1.8-.4.3-.9.5-2.4.7-.3-.8-.5-1.1-1.1-1.4-.6-.3-1.4-.4-2.7-.6v-.4c1.7.1 1.8.1 4.6.1h.1c.3 0 .3-.1.3-.4v-4.1c-2.5 1.6-3.8 2.3-6.4 3.6-.1.9-.2 1.1-.4 1.1-.3 0-.5-.5-1.3-2.7 2.6-.5 5.5-1.4 8.1-2.6v-5.3h-3.8c-1.4 0-1.9.1-2.5.3l-.2-1.1c.7.2 1.5.3 2.7.3h3.8v-3.1h-3.5c-1 0-1.7.1-2.2.2l-.2-1.1c.6.2 1.7.3 2.4.3h3.5v-3.1h-3.2c-.9 0-1.4.1-2.2.2l-.2-1.1c.9.2 1.6.3 2.4.3h5.2c1.2-1.7 1.8-2.9 2.5-4.8 2.2 1 2.7 1.3 2.7 1.5 0 .3-.2.3-1.3.4-1.3 1.3-1.9 1.9-3.3 2.9h3.8c.6-.8.7-1 1.3-1.7 1.1.8 1.4 1.1 2.4 2 0 .1.1.1.1.2s-.1.2-.2.2h-8.3v2.7zm-7.5 5.1c.9.4 1.7.9 2.5 1.5s1.1 1 1.1 1.5c0 .9-.5 1.8-1 1.8-.2 0-.4-.2-.6-.6-.8-2.1-1.2-2.7-2.3-3.9l.3-.3zm2-13.5c1 .6 1.8 1.1 2.6 1.7.7.5.9.8.9 1.3 0 .8-.5 1.6-1 1.6-.3 0-.3-.1-.8-1.1-.5-1.2-.9-1.9-2-3.2l.3-.3zm9.8 41.9c.4-.6.6-.8 1-1.3.9.6 1.1.8 1.9 1.3.2.2.3.3.3.4 0 .2-.2.3-1 .8v15.8c-.1.8-.3 1.1-1.1 1.6-.5.3-1.1.5-2.7.8-.3-1.6-.3-1.6-4.2-2.3v-.4c1.2.1 1.2.1 3 .1 1.2.1 1.2.1 2.3.1.4 0 .6-.2.6-.5v-15.7H80.8v18c-.1.4-.4.6-1.4.6-.4 0-.6-.1-.6-.3.1-4 .1-4 .1-11.7 0-6.8 0-6.8-.1-8.6 1.1.5 1.5.7 2.5 1.3h4.1c1-2.4 1.5-3.7 2-5.8.6.2 1.1.3 1.3.4 2 .6 2.1.6 2.1.9 0 .3-.2.3-1.4.6-1.4 1.9-1.9 2.6-3.2 3.9h11.7zm-5.5 4.6c.4-.5.5-.6.9-1.1.8.5 1 .6 1.7 1.1.2.2.2.3.2.3 0 .1-.3.4-.7.8 0 3.9 0 6.4.1 7.4-.1.4-.4.5-1.4.5-.4 0-.5-.1-.6-.3v-1.3h-6.4v1.4c0 .4-.3.5-1.3.5-.4 0-.5-.1-.5-.4.1-1.2.1-2 .1-7.7 0-.8 0-1.3-.1-2.4 1 .4 1.3.6 2.2 1.1h5.8zm-6.2 6.9h6.4V291h-6.4v6.2zm-1.3 31.5c-1.2 5-1.7 7.5-1.7 8.5v.7c0 .9-.2 1.3-.7 1.3-.4 0-.8-.4-1.2-1-.9-1.7-1.3-4.2-1.3-7.3 0-2.1.1-3.4.6-6.4.4-2 .4-2.8.4-3.5 0-.9-.3-1.7-1-2.7.6 0 1.2.4 1.8 1.1.8.9 1.2 1.7 1.2 2.2 0 .4 0 .5-.4 1.5-1 2.7-1.5 5.3-1.5 7.8 0 2.1.2 3.4.7 4.4.3-.8 2-5.4 2.5-6.9l.6.3zm2.3-4.6c1.3.9 1.9 1.1 3.2 1.1 1.1 0 2.8-.2 4-.6v-1c0-2.3-.1-3.4-.3-3.9-.3-.6-1.1-1-2.4-1.3.4-.4.6-.4 1.5-.4 2 0 3.4.6 3.4 1.4 0 .1-.1.4-.1.7-.3 1-.3 1.4-.4 4 1.5-.5 1.8-.6 2.5-1.2.2-.1.3-.2.6-.2.9 0 1.7.4 1.7.8 0 .3-.2.5-1 .9-.9.4-1.8.7-3.8 1.2v4.1c0 4.4-.8 6.7-2.9 8.9-1.2 1.3-2.5 2.2-4.3 3.1l-.2-.4c2-1.6 3-2.7 3.9-4.3 1.3-2.3 1.8-4.8 1.8-9.6V326c-1.3.3-2.2.4-3.2.4-1.9 0-3.1-.6-4.4-2l.4-.3zM14.6 142.3c1.1 1 2.1 1.4 3.3 1.4.8 0 1.5-.1 2.8-.4v-2.6c0-2.9-.3-3.5-2.3-3.9.4-.3.6-.4 1.2-.4 1 0 2.1.3 2.9.7.4.2.6.6.6.9 0 .2 0 .2-.3.7-.4.8-.7 2.1-.9 4.2 1.5-.5 2.2-.9 3.1-1.6.2-.2.5-.3.7-.3.3 0 .7.1 1.1.3.3.1.5.4.5.6 0 .4-.3.6-1.3 1.1-1.3.6-2.6 1-4.1 1.4 0 .4 0 .4-.1 1.4 0 .8-.1 2-.1 3.7 3.1-1.1 5.2-1.5 7.4-1.5 3.8 0 6.2 1.8 6.2 4.8 0 2.7-2.1 4.9-4.8 4.9-2.6 0-4.4-1.7-5.4-5l.4-.1c.7 1.3 1.1 1.9 1.7 2.4.8.7 1.7 1.1 2.7 1.1 2 0 3.5-1.6 3.5-3.8 0-2.2-1.5-3.3-4.1-3.3-2.2 0-4.9.7-7.6 2v4.9c0 .7-.1 1.2-.4 1.7-.3.6-.9 1-1.3 1s-.4 0-2.1-1.5c-.6-.5-1.4-1-1.9-1.3-.6-.3-.9-.7-.9-1.2 0-.4.3-1 .8-1.6 1-1.1 2-1.7 4.5-2.9 0-.4 0-.8.1-1.3.1-1.3.1-1.3.1-4-.9.1-1.5.2-2.2.2-1.8 0-3-.6-4.2-2.3l.4-.4zm3 11.3c-.6.6-.8 1-.8 1.3 0 .3.4.6 1.1.9.6.3 1.4.4 1.7.4.3 0 .5-.2.5-.7.1-2.5.2-3.9.2-4.1-1.3.9-2 1.5-2.7 2.2zm12.5-14.1c1.7.1 3 .4 4.1 1 1.2.7 2 1.6 2 2.5 0 .5-.3.8-.8.8-.1 0-.2 0-.4-.1-.4-.1-.5-.1-.6-.1-.4 0-1.1.1-3.4.8l-.2-.3c1.7-.9 2.7-1.5 3.1-1.8-.4-.8-.9-1.2-1.8-1.7-.6-.3-1-.5-1.9-.7l-.1-.4zm-5.2 42.8c.6-.8.8-1 1.4-1.8 1 .8 1.3 1.1 2.2 2 .1.1.1.2.1.3 0 .1-.1.2-.3.2H14.8c-.8 0-1 0-2 .1l-.2-1c.9.2 1.5.2 2.2.2h6.4c1-2.4 1.7-4.4 2-6.2 2.7.7 2.9.8 2.9 1.1s-.4.4-1.3.4c-1.1 1.9-2 3.3-3.1 4.7h3.2zm-.5-7.5c.7-.7.9-1 1.5-1.7 1 .8 1.2 1.1 2.1 1.9.1.1.2.2.2.3 0 .1-.1.2-.3.2h-12c-1 0-1.4 0-2.2.1l-.2-1c.8.1 1.6.2 2.4.2h3.6v-1.7c0-.7 0-1.1-.1-2.1 2.6.2 3 .3 3 .6s-.3.4-1 .6v2.5h3zm-7.3 20.7c0 .4-.3.5-1.4.5-.5 0-.6-.1-.6-.4.1-2.3.1-4.3.1-7.3 0-1 0-1-.1-3.5.9.6 1.2.7 2.1 1.3h6.5c.4-.5.5-.7.9-1.2.7.5 1 .7 1.7 1.2.2.1.2.3.2.4 0 .2-.2.4-.8.6v8.1c0 .4-.3.5-1.4.5-.5 0-.6-.1-.6-.3V194H17v1.5zm-1.6-19.4c2.2 1.7 3.3 2.9 3.3 3.8 0 .7-.8 1.9-1.3 1.9-.1 0-.3-.1-.3-.4-.4-2.2-.9-3.5-2-5l.3-.3zm1.6 17.3h6.7v-6.6h-6.7v6.6zm13.6-2.1v4.8c0 .2-.1.3-.2.4-.2.1-.8.2-1.3.2-.4 0-.5-.1-.6-.4.1-4.4.2-12.2.2-18.1 0-3.4 0-4.3-.1-6.3.9.5 1.2.7 2.1 1.2h4.3l1-1.4c.9.7 1.1.9 2 1.5.2.2.3.3.3.4 0 .3-.3.4-1 .5-1.2 2.5-2.1 4.1-4.3 7.3 1.6 1.1 2.3 1.8 3.1 2.9 1.1 1.4 1.5 2.7 1.5 4.4 0 1.6-.4 2.7-1.1 3.4-.6.6-1.2.9-2.7 1.2-.1-1.1-.6-1.6-2.7-2.1v-.4c.5.1 1 .1 1.3.1 1.1.1 1.7.1 1.9.1.5 0 .8-.1.9-.3.3-.3.4-1.1.4-2.4 0-1.5-.2-2.4-.8-3.4-.6-1.2-1.2-1.9-2.7-3.4 1.3-3.1 2-5 2.7-7.9h-4.5v17.7zm-4.5 26.1c-1.2 2-2.1 3.1-3.2 4.2 2.9-.1 4.7-.2 8.7-.5-1-.8-1.5-1.2-2.7-2l.2-.3c2.6 1 4.2 1.7 5.3 2.5.6.4.9 1 .9 1.7s-.3 1.3-.6 1.3c-.2 0-.3 0-.9-1-.3-.4-.7-.9-1.5-1.6-4.5.9-8.2 1.4-12.3 1.8-.1.9-.2 1.1-.5 1.1s-.3 0-.9-3c.7.1 1 .1 1.7.1h2c.8-1.4 1.4-2.9 1.7-4.2h-6.3c-.1 3.4-.4 5.2-1.1 7.6-.6 2.1-1.4 4.3-2.2 5.6-.4.7-.6 1-1.4 2l-.4-.3c.9-1.5 1.1-2.2 1.6-3.8.7-2.5 1.2-5.9 1.3-9.2.1-1.9.1-3.9.1-6.5 0-2.5 0-3.8-.1-5.5 1.1.6 1.5.8 2.5 1.5h15.6c.5-.6.6-.8 1.1-1.4.8.5 1 .7 1.7 1.2.1.1.2.2.2.3 0 .1-.1.2-.1.3-.1.1-.2.1-.3.2-.1.1-.2.2-.4.3v1.7c0 1.1 0 1.3.1 3.2-.1.2-.1.2-.3.3-.4.1-.9.1-1.3.1-.3 0-.3 0-.4-.2v-.8H18l-.1 2.9H34c.8-.7 1-.9 1.8-1.6.9.8 1.2 1 2.2 1.9.1.1.1.1.1.2s-.1.2-.3.2H26.2zm-.6 7.6c0-.5 0-.9-.1-1.7 1.6.1 2.8.3 3.1.4.1 0 .1.1.1.3 0 .3-.3.4-1.1.7v2h5c.7-.8.9-1 1.7-1.8 1.1.9 1.4 1.1 2.5 2.1v.1c0 .1-.1.2-.2.2h-9v3.9h6.2c.8-.8 1-1.1 1.8-2 1.2.9 1.5 1.2 2.7 2.2.1.1.2.2.2.3 0 .1-.1.2-.4.2H18.7c-.6 0-1.7.1-3 .1l-.3-1.1c1.1.2 2.2.3 3.1.3h7.1v-3.9h-5c-.5 0-2.1.1-2.6.2l-.2-1.1c.7.2 1.6.3 2.8.3h4.9V225zm8.2-15.5h-16c0 .1 0 1.3-.1 3.8h16v-3.8zm-18.8 41c.4.4.7.5 1.3.5.8 0 1.5-.1 7.8-1.7 1-.3 2.6-.6 4.5-1 2-.4 2.9-.6 3.8-.9.6-.2.8-.2 1-.2.3 0 1 .3 1.5.6.6.3.8.7.8 1.1 0 .4-.3.7-.9.7h-.5c-.3-.1-.5-.1-.8-.1-4.8 0-9.4 4.6-9.4 9.4 0 2.5 1.3 4.5 3.7 5.5.9.4 2 .6 2.8.7.6 0 .8.1 1.2.4.5.5.8 1 .8 1.3 0 .4-.4.8-1 .8-1.6 0-4.1-.9-5.7-2-2.1-1.5-3.2-3.7-3.2-6.3 0-2.3 1.1-4.8 3.1-6.8 1.1-1.2 2.2-2 4.6-3.2-3.5.4-9.9 2.3-12.5 3.8-.6.3-.8.4-1.1.4-.7 0-1.5-.6-2.2-1.7-.4-.7-.7-1.4-.7-1.9 0-.2.1-.4.3-.8.1.7.4 1.1.8 1.4zm16.6 2.6c1 .6 1.8 1.1 2.5 1.7 1 .9 1.4 1.6 1.4 2.2s-.4 1.2-.9 1.2c-.4 0-.4 0-1.2-1.8-.5-1-1.4-2.2-2.2-3l.4-.3zm2.9-1.7c1 .4 1.8 1 2.7 1.6 1.1.8 1.4 1.4 1.4 2.2 0 .7-.3 1.1-.7 1.1-.3 0-.4-.1-.6-.5-1-1.8-1.5-2.5-3.1-4l.3-.4zm-17 34.5c0-2.1 0-2.8-.1-4.6 1 .6 1.3.8 2.2 1.4h11.7c.5-.6.6-.7 1.1-1.3.8.5 1 .7 1.8 1.3.2.2.3.3.3.4 0 .2-.3.4-1 .8v8.9c0 2.2.1 6 .2 11.6v.1c0 .1-.1.3-.2.3-.2.1-1 .2-1.5.2-.4 0-.5 0-.5-.2v-2h-12v1.9c0 .1 0 .2-.1.3-.2.1-1 .3-1.7.3-.3 0-.4-.1-.4-.4.1-2.5.1-2.9.1-8.9l.1-10.1zm14.1-2.6H19.5v8.8h12.2v-8.8zm-12.1 9.5v9.3h12.2v-9.3H19.5zm-4.2 30.3c0 .8.1 1.3.1 1.8 0 2.5-.3 4-.8 5.2-.3.6-.7 1-1 1-.4 0-1-.9-1-1.7 0-.4.1-.6.6-1.1.7-.7 1-1.2 1.3-2.5.3-1.1.4-1.6.5-2.6h.3zM13 341.5c1.8-2.5 2.6-4.1 3.2-6.9.6-2.4.8-5.2.8-9.9 0-4.3-.1-6.5-.2-8 2.5.3 3.3.6 3.3.9 0 .3-.1.3-1.2.8v6c0 2.1-.2 5.4-.4 7.3-.3 2.6-1.1 4.7-2.4 6.9-.8 1.2-1.3 1.8-2.9 3.2l-.2-.3zm16.9-7.1v7.3c0 .2 0 .3-.1.4-.2.1-.7.2-1.4.2-.3 0-.4-.1-.4-.3v-9.7h-3.8v7.6c0 .4-.3.5-1.3.5-.4 0-.5-.1-.5-.3v-3.3c0-3.1 0-5.2-.1-6.4.9.5 1.1.6 1.9 1.2H28v-3.3h-6.3c-.1 1.3-.2 1.9-.6 2.7-.3.6-.7 1.1-1 1.1-.4 0-.8-.7-.8-1.5 0-.3.1-.4.4-.8.3-.3.8-.9 1.1-1.5.2-.5.4-1.1.5-2h.5v1.3h13.6c.5-.5.6-.7 1.2-1.2.9.7 1.1.9 2 1.6.2.2.3.3.3.4 0 .2-.1.2-1.3.6-.4.4-.4.4-1.2 1.1-.6.5-.6.5-.8.8.4.3.6.4 1.1.8.2.1.3.2.3.3 0 .1-.3.4-1 .8v5.4c0 .8-.3 1.2-1 1.5-.4.2-.9.3-1.9.5-.1-.6-.2-.9-.6-1.2-.3-.3-.7-.4-1.8-.6v-.4c2 .2 2 .2 3.1.2.3 0 .3-.1.3-.4v-5.5H30v2.1zm3.2-15.9c.5-.5.6-.7 1.1-1.2.7.5.9.6 1.6 1.2.1.1.2.2.2.3 0 .2-.3.4-.9.8v2.2c0 .5 0 1 .1 3.9 0 .2-.1.3-.2.4-.1.1-1 .1-1.3.1-.3 0-.3-.1-.3-.3v-.7h-9.3c-.6 0-.9 0-1.5.2l-.2-1.1c1.1.3 1.3.3 1.8.3h9.1V322h-8.7c-.5 0-.8 0-1.6.1l-.2-1.1c.9.2 1.3.3 2 .3h8.5v-2.4h-9.2c-.6 0-.9 0-1.7.2l-.2-1.1c1 .2 1.3.3 2 .3h8.9zm.6 13.1c.3-.5.4-.6.8-1.1l.4.3c.3-.9.5-1.5.6-2.4h-5.7v3.3h3.9zm-11.3 46.7c2-1.2 3.2-2.3 4.5-3.9 2-2.6 2.9-5.8 2.9-9.4 0-2.4-.4-4.7-1-5.8-.5-.8-1.2-1.2-2-1.2-1.4 0-2.7 1.2-3.7 3.5-.8 1.8-1.3 4.1-1.3 6 0 .5 0 .8.1 1.7v.6c0 .5-.3.8-.7.8-1.1 0-1.8-2.3-1.8-5.7 0-2.3.2-3.8.9-7.5.2-1.1.3-1.7.3-2 0-.9-.4-1.4-1.5-2 .2-.1.4-.1.5-.1.6 0 1.5.4 2.2.9.8.6 1.1 1 1.1 1.6 0 .4-.1.5-.4 1.1-1.1 1.8-2 5.7-2 8.3v1h.1c.8-3.6 1.9-5.9 3.2-7.3 1-1.1 2.2-1.7 3.4-1.7 2.7 0 4.6 3.3 4.6 8 0 3.6-1 6.7-3.1 9.2-1.7 2-3.5 3.4-6.2 4.4l-.1-.5zM20 389.9c1.2.3 1.6.6 1.6.9 0 .3-.3.4-1.2.4-.2.4-.4.9-.5 1.1-1.8 3.8-2 4.2-3 5.9 1.6.1 1.9.2 1.9.4s-.3.3-.8.5v5.9c0 6.4 0 6.4.1 9.3-.1.3-.4.4-1.2.4h-.4c-.4 0-.5-.1-.5-.3v-.1c.1-1.7.1-1.7.2-9.5v-5.5c-1.2 1.7-2.1 2.9-3.6 4.3l-.4-.3c1.7-2.4 3.1-4.7 4.4-8 1.1-2.6 1.7-4.3 1.9-5.9l1.5.5zm7.1 2.2c0-.8 0-1.3-.1-2.5.7.1 1.2.1 1.5.2 1.2.1 1.8.3 1.8.6 0 .2-.4.4-1.2.6v5.3h4.6c.7-.9.9-1.2 1.7-2.1 1.2 1 1.6 1.3 2.7 2.4.1.1.1.1.1.2s-.1.2-.3.2h-8.6c.6 1.8 1.3 3 2.4 4.5 1.3 1.8 2.9 3.3 4.5 4.5.8.5 1.3.8 2.6 1.4l-.1.4c-1 .1-1.6.6-2.2 1.7-1.9-1.6-3.2-3.1-4.6-5.1-1.1-1.7-1.7-3.1-2.8-6.2l.1 5.7v6.4c0 2 0 2 .1 4.3 0 .3-.1.4-.4.4-.2.1-1 .1-1.3.1-.4 0-.5-.1-.5-.4.1-4 .1-5.7.2-10.8l.1-5.7c-1.3 3.2-2.5 5.3-4.3 7.5-1.4 1.8-2.6 2.9-4.6 4.3l-.3-.4c2.2-2 3.6-3.8 5.4-7.2 1.1-2.1 1.7-3.2 2.4-5.3h-4.6c-.9 0-1.4 0-2.5.2l-.2-1.1c1 .2 1.4.3 2.7.3H27v-4.4zm-6.7 40.1h2.5c.6-.7.8-.9 1.3-1.5.9.8 1.1 1 1.9 1.8 0 .1.1.1.1.2s-.1.2-.3.2h-5.5v3h2.1c.4-.4.5-.6 1-1 .6.4.8.6 1.4 1.1.2.2.3.3.3.4 0 .2-.2.3-.8.6 0 3.2 0 3.3.1 4.6 0 .4-.1.4-1.3.5-.3 0-.3-.1-.3-.3v-.5h-6.2v.8c0 .1-.1.2-.1.3-.1.1-.9.2-1.3.2-.2 0-.3-.1-.3-.2.1-1.7.1-2.1.1-4.4 0-1.5 0-1.9-.1-3.1 1 .4 1.3.6 2.2 1.1h1.7v-3h-3.3c-1.1 0-1.6 0-2.3.2l-.1-1.1c.8.2 1.4.3 2.6.3h3.1v-2.9c-1.6.3-2.7.4-5.1.6l-.1-.4c2.5-.6 4-1 6-1.8 1.8-.6 2.4-1 3.2-1.5 1.8 1 2.4 1.4 2.4 1.6 0 .2-.2.3-.5.3-.4 0-.8 0-1.2-.1-1.5.5-2 .6-3 .9v3.1zm-2.7 11.3c-.1 2.5-.7 4.4-1.6 5.5-.5.6-1.3 1.2-1.7 1.2-.5 0-.9-.7-.9-1.6 0-.5.1-.6.8-.9.7-.3 1.3-.8 1.8-1.5.6-.8.9-1.4 1.2-2.8l.4.1zm-1.2-2.9h6.2v-4.1h-6.2v4.1zm3.5 4.6c0-1.4 0-1.6-.1-2.5 2.4.3 3.1.5 3.1.7s-.3.4-1.1.6v4.3c0 .4.1.5.3.5.3.1 2 .1 4.1.1 3.1 0 3.3 0 3.6-.4.3-.4.8-1.6 1.6-4.1l.3.1-.3 3.4v.3c0 .3 0 .4.6.6.3.1.5.4.5.6 0 .5-.3.8-1 .9-.5.1-2.4.2-5.4.2-4.3 0-5.2-.1-5.7-.4-.1-.1-.3-.3-.3-.6v-4.3zm4-2.6c1.6.7 2.7 1.3 3.4 1.8.6.4.8.8.8 1.3 0 .8-.4 1.5-.8 1.5-.3 0-.3-.1-.8-.8-.5-.9-1.5-2.1-2.9-3.4l.3-.4zM34.5 429c.4-.5.6-.6 1.1-1.1.7.5.9.6 1.5 1.1.2.2.3.3.3.4 0 .2-.2.4-.9.7v7.4c0 1.5 0 2.4.1 4.7v.1c0 .1 0 .2-.1.3-.1.1-.9.2-1.4.2-.2 0-.3-.1-.3-.3v-1.3h-6.4v1c0 .3-.2.4-.9.5h-.6c-.3 0-.4-.1-.4-.3.1-2.6.1-4.1.1-5.6 0-6.4 0-7.5-.1-8.9.9.5 1.2.6 2 1.1h1.3c.5-1.4.7-2 .9-3.1 2.6.7 2.9.8 2.9 1 0 .2-.4.4-1.2.4l-.6.6c-.7.6-.8.8-1.3 1.1h4zm.3 3.7v-3.1h-6.4v3.1h6.4zm-6.5.6v3h6.4v-3h-6.4zm0 3.7v3.6h6.4V437h-6.4zm4.7 6.4c1.2.7 2.3 1.5 3.6 2.7.8.7 1 1.1 1 1.8 0 1.1-.5 2-1 2-.4 0-.4-.1-.8-1.1-.6-1.6-1.3-2.8-3.1-5.2l.3-.2z" fill="#200701"/></g><line x1="89.5" y1="6.5" x2="89.5" y2="66.5" fill="none" stroke="#76544b" stroke-miterlimit="10"/></svg>