<svg version="1.1" id="レイヤー_1" xmlns="http://www.w3.org/2000/svg" x="0" y="0" viewBox="0 0 191.6 347.7" xml:space="preserve"><g><g><path d="M168.6 157c0-1.2.1-6.3.1-9.9 0-3.5 0-4.9-.1-5.9.6.3.8.4 1.4.8h1.8l.7-.7c.5.4.6.5 1.1 1 .1.1.2.2.2.3 0 .1-.2.2-.6.3-.3.8-1.3 2.7-2.1 4.1.9.9 1.1 1.2 1.4 1.7.3.6.6 1.6.6 2.4 0 .9-.3 1.8-.7 2.2-.4.4-.7.5-1.5.6 0-.8-.3-1.1-1.1-1.3v4.5c0 .2-.1.3-.3.3-.2 0-.5.1-.6.1-.2-.2-.3-.3-.3-.5zm1.2-4.9c.7.2 1.2.2 1.5.2.3 0 .4-.1.5-.4.2-.4.3-.9.3-1.4 0-1.3-.4-2.4-1.4-3.5.6-1.9 1-3.4 1.3-4.5h-2.1v9.6zm12.5-2.1v5.3c0 1.1-.2 1.3-2.4 1.8 0-.6-.2-.8-.6-1-.3-.2-.7-.2-2.2-.4v-.3c.5 0 1.7.1 3.5.2.3 0 .3-.1.3-.3V143h-5.6c-.3 0-.6 0-1.2.1l-.2-.6c.6.1 1 .1 1.4.1h6c.5-.5.6-.7 1.1-1.2.7.5 1 .7 1.7 1.4 0 .1.1.1.1.1 0 .1-.1.1-.2.1h-1.9v7zm-7 2.4c0 .2-.1.2-.2.3-.1 0-.5.1-.6.1-.2 0-.3-.1-.3-.2.1-2 .1-2.2.1-3 0-2.8 0-3.6-.1-4.4.6.3.8.4 1.3.8h2.3c.3-.3.4-.4.6-.7.4.3.5.4.9.8.1.1.2.2.2.3 0 .1-.1.2-.5.4v5.3c0 .1 0 .2-.1.3-.1 0-.5.1-.7.1-.2 0-.3 0-.3-.2v-.8h-2.5v.9zm0-1.6h2.5v-4.5h-2.5v4.5zm-4.2 24.7c1.2-.2 1.4-.3 2.1-.4v-7.5c.8.1 1.6.2 1.8.3.1 0 .2.1.2.2 0 .2-.1.2-.8.4v2.2h1.1c.5-.5.6-.7 1-1.2.6.5.8.7 1.4 1.3.1.1.1.1.1.2s-.1.1-.2.1h-3.4v3.8c1.7-.4 2.5-.6 4-1l.1.2c-1.4.7-2.3 1-5.2 1.9-1.3.4-1.8.5-4.4 1.2-.1.6-.2.8-.4.8s-.2 0-.8-2.1c.8 0 1.1-.1 2.2-.3v-6.7c1.6.2 1.9.3 1.9.4 0 .2-.1.2-.7.4v5.8zm10.3-9.1c.4-.5.6-.7 1-1.2.7.6.9.8 1.6 1.4l.1.1c0 .1-.1.1-.2.1H179c.1 1.9.3 3.1.7 4.4.4 1.2.9 2.3 1.4 3.1.3.4.6.8 1.3 1.5.3-.6.4-.7.6-1.4l.6-1.7h.2l-.5 2.8v.5c0 .2.1.3.3.6.2.2.2.3.2.5 0 .3-.2.5-.5.5-.8 0-2-1-3-2.3-1.5-2.2-2.3-4.9-2.6-8.7h-8.4c-.5 0-1 0-1.4.1l-.1-.7c.5.1.9.2 1.5.2h8.4c-.1-.8-.1-1.4-.1-2.2 0-1.2-.1-1.6-.1-2.3.4.1.6.1.8.1 1 .1 1.2.2 1.2.3s-.1.2-.6.4v1.2c0 .8 0 1.7.1 2.6h2.4zm-12-2.7c.4.1.7.1 1.4.1h3.4c.5-.5.6-.7 1.1-1.2.6.6.8.7 1.4 1.3.1.1.1.1.1.2s-.1.1-.2.1h-5.8c-.5 0-.9 0-1.3.1l-.1-.6zm10.2-1c.9.3 1.5.7 2.1 1.2.3.2.4.5.4.7 0 .5-.3 1-.6 1-.1 0-.2-.1-.5-.6-.1-.3-.6-1-.9-1.5-.2-.3-.3-.4-.6-.7l.1-.1zm-10.3 32.6c0 1.4 0 2.4.1 3.4 0 .2-.2.3-.6.3h-.2c-.2 0-.3-.1-.3-.3.1-1.9.1-6 .1-8.7 0-2.1 0-4.2-.1-7.3.6.3.8.4 1.3.8h2.1c.3-.3.3-.4.6-.7.5.4.6.5 1.1.9.1.1.1.1.1.2 0 .2 0 .2-.6.3-1.1 2.2-1.6 3.2-2.1 4.1.8.9 1.2 1.6 1.6 2.5.2.5.3 1 .3 1.7 0 .8-.3 1.6-.8 2.1-.3.3-.6.4-1.1.5-.3-.8-.4-.9-1.2-1.1v1.3zm0-1.7c.6.1 1 .1 1.2.1.4 0 .5 0 .6-.2.1-.2.3-.9.3-1.4 0-1.6-.3-2.4-1.4-3.7.7-1.5 1.2-3 1.5-4.4h-2.2v9.6zm5.9-1.7v4.8c1.1-.2 1.8-.3 3.5-.8l.1.3c-1.9.8-3 1.2-5.6 2-.1.6-.1.8-.3.8s-.3-.2-.7-1.8c.5-.1.6-.1 1.2-.2.2 0 .2 0 .6-.1v-5c-.5 0-.7 0-1.2.1l-.2-.6c.3.1.3.1 1.4.1h7.7c.4-.5.6-.6 1-1.1.6.5.8.7 1.4 1.3 0 .1.1.1.1.1 0 .1-.1.1-.2.1h-6.6c.4 1.2.9 1.9 1.9 2.8 1.2-1.1 1.4-1.3 2.2-2.6.3.2.5.3.7.4.7.4.9.5.9.6 0 .1-.1.1-.2.1-.4-.1-.6-.1-.6-.1-1 .8-1.4 1-2.7 1.6 1.4 1.2 2.6 1.7 4.8 2.1v.3c-.8.2-1.1.5-1.4 1.3-1.1-.5-1.5-.8-2.4-1.6-1.7-1.5-2.6-2.8-3.2-4.5-.1-.2-.1-.3-.2-.6h-2zm-.3-1.7c-.1.3-.3.3-.8.3-.2 0-.3-.1-.3-.3 0-2.2.1-3.2.1-4.6 0-1.2 0-1.6-.1-2.5.6.3.7.4 1.3.8h6c.3-.4.4-.5.8-.8.5.3.6.4 1 .8.1.1.2.2.2.3 0 0-.1.1-.1.2-.1.1-.1.1-.5.3 0 2.7 0 2.7.1 5.3 0 .3-.2.3-1.1.3-.1 0-.2-.1-.2-.2v-.4H175v.5zm2.6-5.9h-2.6v2.1h2.6v-2.1zm0 2.6h-2.6v2.4h2.6v-2.4zm3.8-.5v-2.1h-2.7v2.1h2.7zm-2.7 2.8h2.7v-2.4h-2.7v2.4zM170 218v1.2c0 .3-.1.3-.7.3h-.3c-.2 0-.3-.1-.3-.3.1-2.3.1-3.9.1-6.6 0-2.6 0-4.1-.1-5.3 1.7.3 1.9.3 1.9.5 0 .1-.1.2-.6.4v9.3h4.9v-11.4c0-.5 0-1.6-.1-2.1 1.7.2 1.8.2 2 .3.1.1.2.1.2.2s-.1.2-.8.4v12.6h5.2v-8.3c0-.6 0-1.2-.1-1.9.4.1.7.1.9.1.9.1 1.2.2 1.2.4s-.2.3-.7.5v5.2c0 1 0 1.9.1 5.7 0 .3-.1.3-.7.3h-.3c-.2 0-.3-.1-.3-.3V218H170zm-2.3 21.7c1.4-1.3 2.5-2.4 3.3-3.3.5-.7.9-1.2 1-1.5.3.1.6.2.8.3 1 .4 1.1.4 1.1.6 0 .1-.2.2-.4.2h-.6c-.3.5-.8 1-1.8 1.8-1.1.9-1.9 1.5-3.2 2.2l-.2-.3zm.7-12.9c2.9-.3 4.6-.6 7.7-1.4 2.2-.5 3.1-.8 3.8-1.3.3.2.5.4.6.5.7.5.9.7.9.9 0 .1-.1.1-.2.1s-.4-.1-.8-.2c-1.5.4-2.6.7-4.9 1 .8.3 1.1.5 1.1.7 0 .1-.2.2-.4.2-.1 0-.2 0-.5-.1-1.6 1.5-1.6 1.5-2.6 2.2.7.4 1 .8 1 1.2 0 .6-.2 1.1-.4 1.1-.1 0-.2-.1-.5-.5-.6-1-1.5-1.9-2.8-2.8l.2-.2c.8.3 1.4.6 2.3 1 .7-.7 1.2-1.4 1.9-2.7-2.9.4-4.2.5-6.4.5v-.2zm6.6 7c-1 .1-1.9.2-2.4.2-1.9.2-2.2.2-3.1.3-.1.1-.1.2-.1.3-.1.5-.2.6-.4.6s-.3-.2-.6-2.1c.6 0 .9.1 1.5.1h2c.4 0 1.1 0 1.9-.1 1.5-1.4 1.9-1.7 3.1-3.1 1.2-1.3 1.5-1.7 2.1-2.6 1.5 1 1.7 1.1 1.7 1.3 0 .1-.1.2-.3.2-.1 0-.5-.1-.7-.1-1.5 1.5-3 2.7-5.2 4.3 2.5-.1 3.3-.1 6.3-.3-.5-.6-.8-.9-1.6-1.6l.2-.2c1.6.9 2.2 1.3 3.3 2.2.5.5.6.7.6 1.2 0 .6-.2 1.1-.5 1.1-.1 0-.3-.1-.5-.5-.5-.8-.8-1.3-1.2-1.8-.2 0-.4.1-.5.1-.7.1-.7.1-1.7.2-1.3.2-2.3.3-2.8.3v3.9c0 .7 0 1.9.1 2.7 0 .2-.2.3-.8.3h-.2c-.3 0-.4-.1-.4-.3v-6.6zm2.9 1.1c1.2.5 2.9 1.6 3.9 2.4.4.3.5.6.5 1.2s-.2 1.1-.5 1.1c-.1 0-.2-.1-.3-.3-.8-1.3-2.3-3-3.7-4.2l.1-.2zm-8.4 13.6c.9.7 1.3.8 2.3.8.6 0 1.1-.1 1.9-.2.4-.8.6-1.4.6-1.8 0-.5-.3-.8-1.3-1 .3-.2.5-.2.8-.2.4 0 .9.1 1.4.3.5.2.6.4.6.6 0 .1-.1.3-.3.5-.2.2-.4.5-.5.7-.3.5-.3.5-.5.7 1.5-.4 2-.6 2.6-1.2.1-.1.2-.1.3-.1.7 0 1.2.3 1.2.6 0 .2-.2.4-.8.6-1.6.5-2.5.7-3.9 1-.3.5-.5.8-1 1.4-.5.8-.6 1-1 1.4 1-.5 1.6-.7 2.3-.7 1.1 0 1.9.7 2 1.8.3-.1.3-.1 1.8-.9 1.8-.9 2.2-1.2 2.2-1.5 0-.3-.3-.6-.8-.8.2-.1.3-.1.4-.1.8 0 2 1.1 2 1.8 0 .3-.1.5-.6.6-1.1.3-3.4 1.2-4.8 1.9v1.5c0 .8-.1 1.4-.1 1.5-.1.2-.3.3-.5.3-.3 0-.6-.2-.6-.5v-.3c.1-.5.1-1.1.1-1.9-1.1.6-1.6 1-2.1 1.4-.6.6-.9 1.1-.9 1.7 0 1 1 1.4 3 1.4 1.3 0 2.5-.2 3.6-.5.1 0 .3-.1.3-.1.6 0 1.3.5 1.3.9 0 .2-.2.4-.6.5-.7.1-2.1.3-3.2.3-1.7 0-2.9-.2-3.7-.5-.9-.4-1.3-1-1.3-1.9 0-.8.4-1.6 1.3-2.5.5-.4 1-.9 2.2-1.6 0-.8-.1-1-.3-1.4-.2-.3-.5-.5-.9-.5-1.2 0-2.6 1-3.9 2.6-.3.5-.5.6-.7.6-.3 0-.5-.4-.5-1 0-.4 0-.4.5-.8 1.3-1 2.1-1.9 3.3-3.9-.6.1-.8.1-1.2.1-1.2 0-1.9-.3-2.7-1.4l.7-.2zm-1.9 25.4c.8.1 1.2.1 2.4.1h10.6c.5-.7.7-.9 1.2-1.5.9.7 1.2 1 2.1 1.7l.1.1c0 .1-.1.1-.2.1H170c-1.1 0-1.4 0-2.2.1l-.2-.6zm6.4 15.4c.4-.4.5-.6.8-1.1.6.5.8.7 1.3 1.2l.1.1c0 .1-.1.1-.2.1h-5.6v3.8c0 .3 0 .3.1.4.2.1.7.1 1.5.1 1 0 1.6 0 1.8-.1.2-.1.3-.1.3-.1.3 0 .8.5.8.8 0 .3-.5.3-2.8.3-1.4 0-2.1-.1-2.4-.2-.3-.1-.4-.4-.4-1.1v-4h-.4c-.4 0-.6 0-1.2.1l-.1-.7c.6.1.9.2 1.3.2h2.3v-1.2c0-.3 0-.5-.1-1.1 1.8.2 2 .3 2 .4 0 .1-.2.2-.7.4v1.4h1.6zm2.2 10.2h3.5c.4-.5.5-.6 1-1.1.5.4 1 .8 1.4 1.3.1 0 .1.1.1.1 0 .1-.1.1-.2.1h-5.8v2.3h5c.5-.5.6-.7 1.1-1.2.7.6 1 .8 1.6 1.4l.1.1c0 .1-.1.1-.2.1h-14.3c-.5 0-.8 0-1.6.1l-.1-.7c.5.1 1.1.2 1.7.2h5.5v-2.3h-3.7c-.6 0-.9 0-1.6.1l-.1-.7c.5.1 1 .2 1.7.2h3.8v-2.1h-4.5c-.6 0-.9 0-1.5.1l-.1-.7c.5.1 1 .2 1.7.2h10.4c.3-.4.6-.7.9-1.1.6.5.8.7 1.5 1.2 0 .1.1.1.1.1 0 .1-.1.1-.2.1h-6.8v2.2zm1.2-6.5c-.3.8-.6 1.4-1.2 2-.6.7-1 1.1-2 1.6l-.2-.2c.9-.7 1.4-1.4 2-2.6.6-1.4 1.1-4.3 1.1-6.4.6.3.8.4 1.4.8h3.2c.3-.4.4-.5.7-.8.5.3.6.5 1 .8.1.1.2.2.2.3 0 .1-.1.2-.6.5-.3 2.5-.7 4.9-1 5.9-.3.9-.7 1.2-2 1.4-.2-.4-.3-.6-.6-.8-.2-.1-.2-.1-1.4-.4v-.3c1.3.1 2.1.2 2.4.2.6 0 .6-.1 1-2h-4zm.6-2.3c-.2.9-.3 1.2-.4 1.8h3.8c.1-.8.2-.9.3-1.8H178zm3.7-.4c.1-.7.1-.9.2-1.8h-3.6c-.1.9-.1 1.1-.3 1.8h3.7zm-8.8 33.5c2.1-1.4 3-2.6 3.4-4.5-.4.3-.7.4-1.2.4-1.3 0-2.2-1.1-2.2-2.6 0-1.6 1-2.8 2.3-2.8.3 0 .5.1 1 .3v-2.3c-1.4.1-3.1.5-4.5.9-.5.1-.8.3-1.2.5-.1 0-.3.1-.4.1-.3 0-.7-.3-1.2-.7-.4-.4-.7-1-.7-1.3 0 0 0-.1.1-.2.5.6 1 .9 1.7.9.4 0 .8 0 1.5-.2 2.1-.3 2.8-.4 4.6-.6 0-1.1-.1-1.6-.2-2-.2-.5-.6-.8-1.5-.9.2-.3.3-.3.8-.3.6 0 1.2.1 1.7.3.4.1.7.4.7.6 0 .1 0 .2-.2.5-.2.4-.3.9-.4 1.7.5-.1.5-.1 1.2-.1 1.7-.1 1.9-.2 2.4-.3.5-.2.5-.2.7-.2.4 0 1.1.3 1.5.7.2.2.3.3.3.5s-.1.3-.4.3c-.1 0-.2 0-1-.1-.9-.1-1.7-.2-2.8-.2-.7 0-1.2 0-1.9.1-.1.7-.1 1.8-.1 2.4v.6c.4.9.6 1.5.6 2.4 0 1.8-.7 3.4-1.9 4.6-.7.6-1.6 1.2-2.7 1.7v-.2zm2.3-9.1c-.8 0-1.4.8-1.4 1.9 0 1.1.6 2 1.5 2 .8 0 1.2-.6 1.2-1.7-.1-1.4-.5-2.2-1.3-2.2zm2 16.6c-.7.2-2.4.9-3.6 1.4-.4.2-.6.2-.7.2-.3 0-.7-.3-1-.8-.3-.5-.5-1-.5-1.3 0-.2 0-.3.2-.5.3.8.8 1.3 1.4 1.3.5 0 2.2-.4 3.4-.8.7-.2.7-.2 1.1-.6.1-.1.2-.1.3-.1.2 0 .5.2 1 .6.4.4.5.6.5.8 0 .1-.1.2-.3.3-.5.3-.7.4-1.5 1.2-1.1 1.1-1.8 1.8-2.6 2.7-1.7 1.9-1.7 1.9-2.1 2.2 1.9-1.2 3.4-1.7 4.9-1.7 2.3 0 3.9 1.4 3.9 3.4 0 2.6-2.4 4.5-5.7 4.5-1.8 0-2.9-.7-2.9-1.8 0-.9.8-1.5 1.9-1.5.9 0 1.7.3 2.3.9.3.3.5.6.8 1.1 1.4-.6 2.2-1.8 2.2-3.4 0-1-.4-1.8-1.1-2.2-.4-.2-1.1-.4-1.8-.4-1.8 0-4.2 1.4-5.7 3.3-.3.4-.4.5-.6.5-.3 0-.6-.6-.6-1.2 0-.2.1-.4.4-.6.7-.5 1-.8 2.5-2.5 2.2-2.5 2.9-3.3 4.3-5.1.1-.2.1-.2.2-.3h-.2c-.3.3-.3.4-.4.4zm-2.8 10.3c-.7 0-1.1.4-1.1.9 0 .7.8 1.1 2.1 1.1.5 0 .7 0 1.3-.2-.5-1.1-1.3-1.8-2.3-1.8zm-48.9-184.9c.6-2.6.9-4.2.9-5.9.3.1.6.1.7.2.8.2.9.2.9.4 0 .1-.1.2-.6.3-.5 2.5-.9 3.6-1.7 5.2l-.2-.2zm3-7.4c-1 .2-1.2.2-2 .3-.1.5-.2.7-.3.7-.2 0-.3-.2-.5-1.6h1.8c1-1.4 1.1-1.6 1.5-2.5.6-1.2 1.2-2.4 1.4-3.2.4.1.6.3.8.3.8.3.9.4.9.5 0 .2-.2.2-.8.3-1.1 1.8-1.8 2.8-3.4 4.6 1.7-.1 1.9-.1 2.8-.2-.2-.5-.3-.8-.7-1.5l.1-.1c.5.4.7.6 1.1 1.1.5.6.7.9.7 1.2 0 .3-.1.8-.3 1-.1.1-.2.2-.3.2-.2 0-.3-.1-.4-.6 0-.2-.1-.5-.2-.9-.6.2-.7.2-1.3.3v8.2c0 .2-.2.3-1 .3-.2 0-.2-.1-.3-.2.1-2.8.1-2.8.1-4.5v-3.7zm-2.6-5.8c.6.4.8.5 1.3.8.7-1.5 1.1-2.5 1.3-3.5 1.7.6 1.7.6 1.7.8 0 .2-.2.2-.8.3-1.2 1.7-1.3 1.8-2 2.6.8.6 1 .8 1 1.3s-.3 1-.5 1c-.1 0-.2-.1-.2-.3-.6-1.2-.9-1.8-1.9-2.8l.1-.2zm4.5 7.3c1.2 1.5 1.7 2.4 1.7 3 0 .2-.1.5-.2.9-.1.3-.3.5-.5.5s-.2-.1-.3-.6c-.1-1.1-.5-2.3-1-3.5l.3-.3zm9-4.4c.3-.4.4-.5.7-.9.5.4.6.5 1.1.9l.2.2c0 .1-.1.2-.6.4v4.8c0 .1 0 .2-.1.3-.1 0-.5.1-.8.1-.1 0-.2-.1-.2-.2v-.8h-5.5v4.2c0 .4 0 .5.2.6.2 0 .9.1 1.8.1 2.9 0 3.9 0 4.2-.1.3-.1.3-.1 1.2-3.5h.2l-.2 2.8v.2c0 .2 0 .3.3.3.2.1.4.2.4.4 0 .4-.5.7-1.2.8-.5.1-3 .1-4.7.1-3 0-3.3-.1-3.3-1.2v-9.3c-.5.7-.7.9-1.2 1.5l-.2-.2c.7-1.1 1.2-2.2 1.8-3.5.6-1.4.9-2.4 1-3.3.4.1.7.2.9.2.7.2 1 .3 1 .4 0 .1-.2.2-.7.3-.2.5-.3.7-.5 1.1h2.4c.3-.4.4-.5.7-.8.5.4.7.5 1.1.9.1.1.2.2.2.3 0 .1-.2.2-.6.3-.9 1.4-1.2 1.7-2.1 2.7h2.5zm-3.1 0c.6-1.3.8-1.7 1.2-3h-2.6c-.5.9-.8 1.4-1.5 2.5.3.1.4.2.7.5h2.2zm0 .4h-2.2v3.9h2.2v-3.9zm1.1 3.9h2.3v-3.9h-2.3v3.9zm1.8 18c.5-.6.6-.7 1.1-1.2l1.6 1.4c.1.1.1.1.1.2s-.1.1-.2.1h-14.4c-.9 0-1.2 0-1.7.1l-.1-.7c.5.1.9.1 1.9.1h5.5V167h-3.8v.5c0 .2-.2.3-.9.3-.2 0-.3 0-.3-.2 0-1 .1-1.9.1-3.5v-2.2c.6.4.8.5 1.5.9h8.6c.5-.5.5-.5.9-.8.4.3.5.4 1 .8l.2.2c0 .1-.1.2-.6.5 0 2.6 0 2.7.1 3.9v.1c0 .2-.3.3-1.1.3-.2 0-.2-.1-.2-.2v-.6h-4v1.7h4.7zm-13.5 8.8c1.5-.8 2.1-1.3 2.9-2 .6-.5.9-.8 1.3-1.4 1.7.7 1.7.7 1.7.8 0 .2-.2.2-.9.2-1.5 1.2-2.6 1.7-4.8 2.7l-.2-.3zm8.7-2.7v1.8c0 .4 0 .5-.2.7-.3.4-.5.5-1.8.7-.1-.5-.2-.7-.4-.8-.1-.1-.4-.2-.8-.3l-.5-.1c-.2-.1-.4-.1-.6-.1v-.2c1.4.1 1.8.2 2.7.2.3 0 .3-.1.3-.3v-3.1h-3.6v.4c0 .1 0 .2-.1.2s-.5.1-.7.1c-.3 0-.3-.1-.3-.2v-4l1.3.8h7.7c.4-.5.4-.5.6-.8.5.4.6.5 1 .8.1.1.2.1.2.2s0 .1-.5.5v.6c0 .6 0 1 .1 1.8 0 .2-.3.3-.9.3-.2 0-.3-.1-.3-.2v-.5h-3.2v1.5zm3.7-11.7h-9v1.5h9v-1.5zm-9 1.9v1.6h9V165h-9zm.6 7.9h8v-2h-8v2zm6 1.5c.3.1.5.1.6.2 1.8.5 3.2 1 3.6 1.4.3.3.5.7.5 1.3 0 .3-.1.5-.3.5-.2 0-.2 0-.6-.4-1.5-1.4-2.3-1.9-4-2.8l.2-.2zm-2.2 23c1.9-.6 3.2-1.3 4.2-2.5 1.1-1.2 1.6-2.7 1.6-4.3 0-1.7-.7-3.1-2-4-.8-.5-2-.8-3.1-.8h-.6c.4.6.6 1 .6 1.5 0 1.4-1 4-2.4 6.2-1.1 1.8-2 2.7-2.7 2.7-.3 0-.6-.1-.8-.4-.2-.2-.2-.3-.5-1.2-.2-.5-.3-.7-.8-1.7-.3-.6-.4-1.1-.4-1.6 0-1.1.6-2.5 1.6-3.6 1.5-1.5 3.8-2.5 6.2-2.5 1.8 0 3.5.6 4.6 1.7s1.7 2.5 1.7 4.2c0 2.3-1.3 4.2-3.6 5.5-1 .6-2 .8-3.5 1.1l-.1-.3zm-5.9-5.6c0 .9.3 1.7.7 2.4.3.3.5.5.7.5.4 0 1.3-1 2.1-2.4 1.3-2.1 2.3-4.4 2.3-5.6 0-.3-.1-.4-.3-.9-3 .6-5.5 3.2-5.5 6zm8.5 16.4c.3-.4.4-.5.7-.8.6.5.8.6 1.3 1.1.2.1.2.2.2.3 0 .1-.2.2-1.1.2-.9 1.1-1.5 1.7-2.7 2.6 1 .5 1.8.8 2.8 1.1 1.6.5 2.8.6 4.5.7v.3c-.7.1-.9.3-1.4 1.2-1.1-.3-1.6-.4-2.9-.9.4.4.4.4.8.7.1.1.2.2.2.3 0 0 0 .1-.1.1 0 0-.1.1-.2.1 0 0-.1.1-.2.1v4.4c0 .1-.1.2-.2.2-.2.1-.5.1-.7.1-.3 0-.3-.1-.3-.3v-.7H130v.6c0 .3-.2.4-.7.4-.4 0-.5-.1-.5-.3v-5c-1.3.5-2 .7-3.4 1l-.1-.3c2.7-.9 5.4-2.2 7.5-3.7-.8-.6-1.6-1.5-2.2-2.1-.4.5-.9.9-1.5 1.3-1.3 1-2.1 1.5-3.2 1.9l-.1-.2c1.7-1.3 2.5-2 3.4-3 1-1.1 1.6-2 1.9-2.9 1.8.4 1.9.4 1.9.6 0 .2-.3.3-.9.4-.2.3-.3.4-.5.6h4.5zm-3.1-2.3v-1.2c0-.4 0-.7-.1-1.2 1.5.1 1.7.2 1.9.2.1.1.2.1.2.2 0 .2-.2.3-.8.4v1.5h5c.4-.4.5-.6.8-1l1.6 1.2.2.2c0 .1-.1.1-.2.1 0 0-.4.1-1.1.2-1.1 1.3-1.2 1.3-1.7 1.8l-.2-.1c.3-.9.4-1.2.6-2h-11.5c-.1.9-.3 1.5-.5 2-.2.4-.8.8-1.1.8-.1 0-.3-.1-.4-.3-.1-.1-.1-.5-.1-.8 0-.2 0-.3.4-.5.3-.2.6-.6.8-1 .3-.6.5-1.1.6-1.9h.3v1.2h5.3zm3.8 8.7c.3-.3.3-.3.7-.6-1.7-.7-2.6-1.1-3.8-1.9-1.2.8-2.4 1.4-4 2.1.2.1.2.2.4.4h6.7zm-6.7 3.9h6.8V215h-6.8v3.5zm1.4-9.9c-.2.2-.2.3-.4.5.5.6 1.4 1.3 2.5 1.9 1-.8 1.5-1.4 2.4-2.4h-4.5zm6.2 27.7c.4-.5.6-.7 1-1.2.7.6.9.8 1.6 1.4.1.1.1.1.1.2s-.1.1-.2.1h-6v3.1h4.8c.5-.5.6-.7 1.1-1.2.8.6 1 .7 1.7 1.4.1.1.1.1.1.2s-.1.1-.1.1h-14.6c-.3 0-1.2.1-1.5.1l-.2-.7c1.4.2 1.4.2 1.7.2h5.7v-3.1h-4.2c-.4 0-.7 0-1.5.1l-.2-.7c.5.1 1.4.2 1.7.2h4.2v-.7c0-.5 0-.9-.1-1.8 2 .3 2.1.3 2.1.5 0 .1-.1.2-.8.4v1.6h3.6zm-4.7-9.8v-.8c0-.7 0-.8-.1-1.3 1.7.2 2.1.3 2.1.5 0 .1-.1.1-.1.2-.1 0-.3.1-.7.2v1.3h5c.4-.4.4-.4.8-.9.7.5 1 .6 1.6 1.2.1.1.1.1.1.2 0 0 0 .1-.1.1s-.2.1-.5.1c-.2 0-.4.1-.6.1l-.3.3c-.6.5-.6.6-1.1 1l-.2-.1c.2-.7.3-1 .4-1.5h-11.6c-.1.9-.3 1.4-.6 1.9s-.7.8-1 .8c-.3 0-.6-.7-.6-1.1 0-.2.1-.3.3-.4.7-.5.9-.7 1.1-1.2.3-.6.5-1.1.6-1.7h.3v1.2h5.2zm-3.6 3c-.5 0-.8 0-1.4.1l-.2-.7c.3 0 .3 0 1.6.2h8c.4-.5.5-.6.9-1.1.6.5.9.7 1.6 1.3l.1.1c0 .1-.1.1-.1.1h-6.6c-1.6 2.1-1.6 2.1-2.5 3.1 2-.1 3.2-.1 6.8-.5l-1.9-1.9.1-.2c.8.3 1.2.5 2.4 1.3.8.5 1.5 1 1.7 1.3.2.2.3.4.3.7 0 .6-.2 1.1-.5 1.1-.1 0-.1 0-1-1.2-.5-.6-.5-.7-.7-1-2.1.3-3.5.6-4 .6-1.8.3-4.4.6-5.8.6 0 .6-.1.8-.3.8-.3 0-.4-.5-.7-2 .4 0 .6.1 1 .1h2.1c.8-1.4 1-1.7 1.5-3.1h-2.4z" fill="#200701"/></g></g><g><rect x="0" width="55" height="230" fill="#210100"/><line x1="27.6" y1="0" x2="27.6" y2="30" fill="none" stroke="#76544b" stroke-miterlimit="10"/></g><g><path d="M15.2 65.3c1.2.2 1.8.2 3.7.2h16.5c.8-1.1 1.1-1.4 1.9-2.4 1.4 1.1 1.9 1.5 3.2 2.7.1.1.1.1.1.2s-.1.2-.3.2H18.9c-1.7 0-2.2 0-3.5.2l-.2-1.1zM22 105c0 2.5 0 4 .1 4.5 0 .4-.3.5-1.2.5-.4 0-.5-.1-.5-.4.1-2.9.2-3.8.2-4.6v-2.6c-.6.1-.8.2-1.6.3-.1 2.4-.3 3.8-.6 5.3-.6 3.1-1.5 4.7-3.4 6.8l-.3-.3c1.4-2.2 2-4.1 2.4-7.5.2-1.3.3-2.2.3-4.1-.4.1-.6.1-1.2.2-.1.7-.2 1.1-.4 1.1-.3 0-.4-.5-.9-2.6.9 0 .9 0 2.6-.2v-4.2c0-2.6 0-3.8-.1-5.3 1 .5 1.3.6 2.2 1.2h.7c.4-1.4.6-2.4.7-3.6 2.6.6 2.7.6 2.7.9s-.3.4-1.2.6c-.3.4-.3.4-1 1.3-.4.5-.4.5-.6.9h2.6c.4-.4.5-.6.9-1 .6.4.8.6 1.4 1 .2.2.3.2.3.4s0 .2-.8.7v6.2c.5-.1.8-.1 1.4-.3v.4c-.7.3-1 .4-1.4.5v11.2c-.1.8-.3 1.1-1 1.5-.5.3-1 .4-1.8.5-.4-1.3-.6-1.4-3.4-2v-.4c.8 0 .8 0 2.1.1.9.1.9.1 1.9.1h.2c.2 0 .3-.1.3-.4v-10.4c-1 .3-1.1.3-1.7.4v3.3zm-2.8-11.1c0 3.9-.1 5.5-.1 7.5 1.8-.2 2.8-.3 4.6-.6v-6.9h-4.5zm.8 1.3c1.6 1 2.7 2.3 2.7 3.1 0 .6-.5 1.7-.9 1.7-.2 0-.3-.2-.5-.8-.3-1.3-.6-1.9-1.6-3.7l.3-.3zm21.2 17.6c-1 .2-1.6.7-2 1.8-2.6-1.1-4.5-2.4-6.4-4.4-2.6 2.5-4.7 3.7-8.1 4.7l-.1-.3c3.1-1.5 5.5-3.3 7.3-5.5-1.5-2-2.2-3.8-2.9-6.6-.4 0-.5.1-.9.1l-.2-.9c-.6.7-.9 1-1.8 1.6l-.3-.3c1.1-1.2 1.7-2 2.2-3.4.8-1.8 1-3.7 1-6.7 0-.8 0-1.4-.1-2.5 1 .4 1.3.6 2.1 1.1h3.1c.3-.5.5-.7.9-1.1.6.5.8.6 1.5 1.1.3.2.3.3.3.4 0 .1-.2.3-.9.7v4.9c0 .4.1.5.8.5.9 0 1 0 1.1-.4.2-.5.4-1.5 1.1-4.6h.4l-.1 4.1v.2c0 .5 0 .6.3.7.5.1.8.3.8.7 0 .3-.3.6-.6.7-.5.1-1.1.2-3.2.2-2 0-2.4-.2-2.4-1.4v-6h-3.4c-.2 3.6-.4 5-1.2 6.6-.5 1.1-1 1.9-1.8 2.8h.2c.6.1 1 .2 1.7.2h5.5c.5-.6.6-.7 1.2-1.3.8.6.8.6 1.5 1.2.2.2.3.3.3.4 0 .2-.1.3-1 .7-1 2.7-1.9 4.3-3.6 6.2 2 1.7 4.1 2.7 7.4 3.3l.3.5zm-11.7-10.3c.6 2.1 1.5 3.7 3.2 5.5 1.2-1.7 1.8-3 2.7-5.5h-5.9zm-6.8 31.6H24c.6-.8.8-1 1.4-1.8 1 .8 1.2 1.1 2.2 2 .1.1.2.2.2.3 0 .1-.1.2-.3.2h-4.8v2.6c1.3.6 2.1 1.1 3 1.7 1.2.9 1.5 1.3 1.5 2.1 0 1-.3 1.8-.7 1.8-.2 0-.3-.1-.5-.5-1-2.1-1.9-3.3-3.4-4.5v12.9c0 .2-.1.3-.2.3s-1.1.1-1.5.1c-.2 0-.3-.1-.3-.3 0-1.4.1-1.7.1-3.1.1-3.7.1-4.2.1-5.7l.2-4.9c-1.7 3.7-2.9 5.3-5.8 8.5l-.3-.2c1.8-2.6 2.6-3.9 3.6-5.9.8-1.7.8-1.7 2.1-5.1h-3.4c-.5 0-1.1.1-1.7.2l-.2-1.1c.8.2 1.2.3 2.2.3h3.3v-4.3c-2 .4-2.8.6-4.8.8l-.2-.4c2.7-.7 4.1-1.2 6.2-2.1 1.9-.8 2.6-1.1 3.5-1.8 2.5 1.8 2.5 1.8 2.5 2 0 .2-.2.3-.5.3-.1 0-.5-.1-1-.1-1.6.6-2.2.7-3.8 1.1v4.6zm7.7 15.9v.1c0 .3-.3.4-.9.4h-.6c-.3 0-.4-.1-.4-.4.1-2.8.1-3.9.1-7.3 0-9.3 0-11.8-.1-13.6 1 .6 1.2.8 2.2 1.4H37c.5-.6.7-.7 1.2-1.3.7.5.9.7 1.6 1.3.2.2.3.3.3.4 0 .2-.3.4-.9.8v5.8c0 6.4 0 8.3.2 12.2 0 .4-.3.5-1.2.5h-.6c-.2 0-.3-.1-.3-.3v-1.9h-6.8v1.9zm0-2.5h6.8v-16.2h-6.8v16.2zm3.7 33.5c.6-.8.9-1 1.6-1.9 1.1.9 1.5 1.2 2.5 2.1.1.1.1.2.1.3 0 .1-.1.2-.3.2h-9.4v4.8h7.5c.7-.8 1-1.1 1.8-1.9 1.2.9 1.5 1.1 2.7 2.1.1.1.2.2.2.3s-.1.2-.2.2H18c-.5 0-1.9.1-2.4.2l-.3-1.1c2.1.3 2.2.3 2.7.3h8.8v-4.8h-6.5c-.6 0-1.1 0-2.3.1l-.3-1.1c.8.2 2.1.3 2.7.3h6.5V180c0-.8 0-1.5-.1-2.8 3.1.4 3.3.5 3.3.8 0 .2-.2.3-1.2.6v2.5h5.2zm-7.3-15.3v-1.3c0-1.1 0-1.3-.1-2 2.7.3 3.3.4 3.3.7 0 .1-.1.2-.2.3-.1.1-.5.2-1.1.3v2h7.8c.6-.7.6-.7 1.3-1.5 1.1.8 1.5 1 2.5 1.8.1.1.2.2.2.3 0 .1-.1.1-.1.2-.1.1-.4.1-.7.2-.4.1-.7.1-.9.1l-.5.5c-.9.8-1 1-1.8 1.5l-.3-.2c.3-1.1.4-1.5.6-2.4h-18c-.2 1.3-.4 2.2-.9 3-.4.7-1.1 1.3-1.5 1.3s-1-1-1-1.7c0-.3.1-.4.4-.6 1.1-.8 1.4-1.1 1.8-1.8.5-.9.8-1.7.9-2.7h.5v.6c0 .4 0 .7-.1 1.2h7.9zm-5.7 4.8c-.8 0-1.2 0-2.2.2l-.3-1.1c.5.1.5.1 2.5.3h12.4c.6-.8.8-1 1.4-1.7 1 .8 1.3 1.1 2.4 2 .1.1.1.1.1.2s-.1.1-.2.1H27.1c-2.5 3.3-2.5 3.3-3.9 4.8 3.1-.1 5-.2 10.5-.7-1.1-1.1-1.7-1.8-3-2.9l.2-.3c1.3.5 1.8.8 3.7 2 1.3.8 2.3 1.6 2.7 2.1.3.3.4.7.4 1.1 0 1-.3 1.7-.7 1.7-.2 0-.2 0-1.5-1.8-.7-1-.8-1.1-1.1-1.5-3.2.5-5.5.9-6.2 1-2.8.4-6.9.9-9 1-.1.9-.2 1.2-.5 1.2-.4 0-.6-.8-1.1-3.1.6.1 1 .1 1.5.1h.8c.3 0 .3 0 2.5-.1 1.3-2.2 1.5-2.6 2.4-4.8h-3.7z" fill="#fff"/></g></svg>