<?xml version="1.0" encoding="utf-8"?>
<!-- Generator: Adobe Illustrator 25.2.3, SVG Export Plug-In . SVG Version: 6.00 Build 0)  -->
<svg version="1.1" id="レイヤー_1" xmlns="http://www.w3.org/2000/svg" xmlns:xlink="http://www.w3.org/1999/xlink" x="0px"
	 y="0px" viewBox="0 0 55 291.8" style="enable-background:new 0 0 55 291.8;" xml:space="preserve">
<style type="text/css">
	.st0{fill:#210100;}
	.st1{fill:none;stroke:#76544B;stroke-miterlimit:10;}
	.st2{fill:#FFFFFF;}
</style>
<g>
	<rect class="st0" width="55" height="291.8"/>
	<line class="st1" x1="27.7" y1="0" x2="27.7" y2="30"/>
</g>
<g>
	<path class="st2" d="M25.3,67.2c-2.7,1.8-4.7,3-8.6,4.9c-0.1,1-0.2,1.3-0.4,1.3s-0.4-0.5-1.3-3.1c1.2-0.2,2-0.4,4.1-1.1
		c2.9-1,4.1-1.4,6-2.3L25.3,67.2z M16.5,56.9c1.8,0.7,3.4,1.5,4.4,2.3c0.6,0.5,0.8,0.9,0.8,1.7c0,1-0.3,1.8-0.7,1.8
		c-0.3,0-0.4-0.1-1-1.2c-0.9-1.6-2-2.8-3.7-4.3L16.5,56.9z M16.8,79.1c3.8-1.4,6.5-3.1,8.4-5.3c2-2.2,3.1-5.6,3.1-9.5
		c0-0.5,0-0.8-0.1-1.6c2.9,0.4,3.4,0.5,3.4,0.8c0,0.2-0.2,0.3-1.2,0.7c0.1,2,0.5,3.5,1.4,5.4c1.7,3.8,4.5,6,8.7,7.1V77
		c-1.2,0.3-1.5,0.7-2.2,2.2C37,78.5,36.3,78,35,76.7c-2.7-2.7-4-5.7-4.8-11c-0.4,3.2-0.7,4.6-1.5,6.1c-1.4,2.5-3.6,4.5-6.6,5.9
		c-1.5,0.7-2.8,1.1-5.1,1.7L16.8,79.1z M26.5,60.9c-1.3,2.4-2.6,4.1-4.7,6l-0.3-0.2c1.5-1.9,2.6-4.1,3.7-6.9
		c0.8-2.2,1.3-3.9,1.5-5.3c2.8,0.8,2.9,0.8,3.2,1c0.1,0.1,0.3,0.2,0.3,0.3c0,0.3-0.3,0.4-1.5,0.4c-0.8,1.9-1.1,2.7-1.8,4h9.5
		c0.6-0.7,0.8-0.9,1.3-1.5c1,0.8,1.3,1.1,2.2,1.9c0.3,0.3,0.4,0.4,0.4,0.5c0,0.3-0.3,0.4-1.7,0.4c-2.4,2.9-2.9,3.4-4.6,4.9l-0.3-0.3
		c1.5-2.6,1.8-3.3,2.6-5.4H26.5z"/>
	<path class="st2" d="M27.7,113.6c3-0.9,5-2,6.6-3.9c1.7-1.9,2.5-4.2,2.5-6.7c0-2.7-1.1-4.9-3.2-6.2c-1.2-0.8-3.1-1.3-4.8-1.3
		c-0.3,0-0.5,0-1,0.1c0.7,1,0.9,1.5,0.9,2.3c0,2.2-1.6,6.3-3.7,9.7c-1.8,2.8-3.1,4.2-4.2,4.2c-0.5,0-0.9-0.2-1.2-0.6
		c-0.3-0.3-0.3-0.4-0.8-1.8c-0.3-0.7-0.4-1.1-1.2-2.6c-0.4-0.9-0.6-1.7-0.6-2.5c0-1.8,1-3.8,2.5-5.5c2.3-2.4,6-3.9,9.6-3.9
		c2.8,0,5.4,0.9,7.2,2.6s2.7,3.9,2.7,6.6c0,3.5-2,6.6-5.6,8.5c-1.6,0.9-3.1,1.3-5.5,1.7L27.7,113.6z M18.4,104.9
		c0,1.3,0.4,2.7,1.1,3.7c0.4,0.5,0.8,0.8,1.1,0.8c0.6,0,2-1.5,3.3-3.7c2.1-3.3,3.6-6.9,3.6-8.7c0-0.4-0.1-0.7-0.4-1.4
		C22.3,96.5,18.4,100.6,18.4,104.9z"/>
	<path class="st2" d="M18.2,136v10.7c0,3.7,0,3.7,0,5.6c0,0.2-0.1,0.3-0.3,0.3c-0.2,0.1-0.9,0.1-1.3,0.1c-0.3,0-0.3-0.1-0.4-0.3
		c0.1-2.4,0.1-6.8,0.1-13.9c0-7.3,0-9.8-0.1-11.4c0.8,0.5,1.1,0.7,2,1.3H24c0.5-0.6,0.7-0.7,1.1-1.3c0.7,0.6,0.9,0.7,1.5,1.3
		c0.2,0.2,0.3,0.3,0.3,0.4c0,0.2-0.2,0.4-0.8,0.7c0,1.3,0,2.1,0,3.1c0,1.5,0,2.4,0.1,4.1c0,0.2-0.1,0.3-0.2,0.4
		c-0.1,0.1-0.8,0.1-1.4,0.1c-0.2,0-0.3-0.1-0.3-0.3V136H18.2z M24.2,129.1h-6v2.7h6V129.1z M24.2,132.5h-6v2.9h6V132.5z M24.2,149.8
		c0,0.2-0.1,0.2-0.3,0.3c-0.2,0.1-0.9,0.1-1.1,0.1c-0.3,0-0.3-0.1-0.4-0.3c0-2.3,0.1-3.6,0.1-4.8c0-3.3,0-5.9-0.1-7
		c0.9,0.5,1.2,0.7,2.1,1.2H31c0.5-0.5,0.7-0.6,1.2-1.1c0.6,0.5,0.8,0.6,1.4,1.2c0.3,0.2,0.3,0.3,0.3,0.4c0,0.2-0.1,0.3-0.9,0.7
		c0,1.5,0,2,0,3.1c0,1.9,0,3,0.1,5.2v0c0,0.3-0.1,0.3-0.3,0.4c-0.2,0.1-0.8,0.1-1.2,0.1c-0.3,0-0.4-0.1-0.4-0.3v-1h-7.1V149.8z
		 M31.2,140.1h-7.1v3.1h7.1V140.1z M24.2,143.9v3.6h7.1v-3.6H24.2z M31.2,136v0.7c-0.1,0.3-0.3,0.4-1,0.4c-0.7,0-0.8-0.1-0.8-0.4
		c0.1-1.8,0.1-2.6,0.1-4.2c0-4,0-4.3-0.1-5.3c0.9,0.5,1.2,0.7,2,1.2h5.9c0.5-0.6,0.7-0.7,1.1-1.3c0.8,0.6,1,0.7,1.7,1.3
		c0.2,0.2,0.3,0.3,0.3,0.4c0,0.2-0.1,0.3-0.9,0.8v13.5c0,4.7,0,4.7,0,7.3c-0.1,1.3-0.6,1.7-3,2.2c-0.3-0.7-0.5-1-1-1.3
		c-0.3-0.2-0.7-0.3-1.5-0.4c-1-0.2-1.5-0.3-1.6-0.3v-0.4c2.3,0.1,2.8,0.2,4.6,0.2c0.4,0,0.5-0.1,0.5-0.4v-14H31.2z M37.6,129.1h-6.3
		v2.7h6.3V129.1z M37.6,132.5h-6.3v2.9h6.3V132.5z"/>
	<path class="st2" d="M15.4,178.2c1.8-2.6,3.2-5.1,4.7-8.6c1.1-2.5,1.5-4,1.9-6.1c1.1,0.3,2.6,0.7,3.1,0.9c0.2,0.1,0.3,0.2,0.3,0.3
		c0,0.3-0.3,0.4-1.4,0.6c-1,2.8-2,4.6-3.8,7.4c2,0.3,2.4,0.4,2.4,0.6c0,0.2-0.1,0.3-0.9,0.6v7.6c0,3.7,0,3.7,0.1,6.9
		c0,0.4-0.3,0.5-1.1,0.6c-0.3,0-0.4,0-0.5,0s-0.1,0-0.1,0c-0.3,0-0.5-0.1-0.5-0.4c0,0,0,0,0-0.1c0.1-3.2,0.1-4.9,0.1-6.9v-8.3
		c-1.8,2.7-2.5,3.6-3.9,5L15.4,178.2z M24.8,172c-0.5,0-1,0-2.2,0.1l-0.2-1c1.2,0.1,1.8,0.2,2.4,0.2H34v-4.7c0-1.4,0-1.8-0.2-3
		c2.5,0.3,3.3,0.5,3.3,0.8c0,0.2-0.4,0.4-1.2,0.7v6.2h0.8c0.7-1,0.9-1.2,1.6-2.1c1.1,0.9,1.5,1.2,2.5,2.2c0.1,0.1,0.1,0.2,0.1,0.3
		c0,0.1-0.2,0.3-0.3,0.3h-4.7v8.1c0,1.8,0,4.6,0.1,6.2c-0.1,0.8-0.2,1.2-0.8,1.6c-0.5,0.4-1,0.5-3,0.9c-0.3-1.4-0.5-1.5-5-2.3l0-0.4
		c0.8,0.1,1.6,0.1,2,0.1c2.4,0.1,2.5,0.1,4,0.2c0.5,0,0.6-0.2,0.6-0.6V172H24.8z M25.1,174.7c1.5,0.9,2.7,1.8,4,3.1
		c1,1,1.3,1.4,1.3,2c0,0.7-0.7,1.9-1.1,1.9c-0.3,0-0.5-0.2-0.7-0.8c-1-2.5-2.1-4.3-3.7-5.9L25.1,174.7z"/>
	<path class="st2" d="M22.8,207.9h1.3c0.6-0.8,0.8-1,1.4-1.8c1,0.8,1.2,1.1,2.2,2c0.1,0.1,0.2,0.2,0.2,0.3c0,0.1-0.1,0.2-0.3,0.2
		h-4.8v2.6c1.3,0.6,2.1,1.1,3,1.7c1.2,0.9,1.5,1.3,1.5,2.1c0,1-0.3,1.8-0.7,1.8c-0.2,0-0.3-0.1-0.5-0.5c-1-2.1-1.9-3.3-3.4-4.5v4.3
		c0,6.7,0,6.7,0,8.6c0,0.2-0.1,0.3-0.2,0.3c-0.1,0-1.1,0.1-1.5,0.1c-0.2,0-0.3-0.1-0.3-0.3c0-1.4,0.1-1.7,0.1-3.1
		c0.1-3.7,0.1-4.2,0.1-5.7l0.2-4.9c-1.7,3.7-2.9,5.3-5.8,8.5l-0.3-0.2c1.8-2.6,2.6-3.9,3.6-5.9c0.8-1.7,0.8-1.7,2.1-5.1h-3.4
		c-0.5,0-1.1,0.1-1.7,0.2l-0.2-1.1c0.8,0.2,1.2,0.3,2.2,0.3h3.3v-4.3c-2,0.4-2.8,0.6-4.8,0.8l-0.2-0.4c2.7-0.7,4.1-1.2,6.2-2.1
		c1.9-0.8,2.6-1.1,3.5-1.8c2.4,1.7,2.4,1.7,2.4,1.8c0,0.2-0.2,0.3-0.5,0.3c-0.1,0-0.5-0.1-1-0.1c-1.6,0.6-2.2,0.7-3.8,1.1V207.9z
		 M30.5,223.8c0,0.1,0,0.1,0,0.1c0,0.3-0.3,0.4-0.9,0.4c-0.3,0-0.4,0-0.5,0c0,0-0.1,0-0.1,0c-0.3,0-0.4-0.1-0.4-0.4
		c0.1-2.8,0.1-3.9,0.1-7.3c0-9.3,0-11.8-0.1-13.6c1,0.6,1.2,0.8,2.2,1.4H37c0.5-0.6,0.7-0.7,1.2-1.3c0.7,0.5,0.9,0.7,1.6,1.3
		c0.2,0.2,0.3,0.3,0.3,0.4c0,0.2-0.3,0.4-0.9,0.8v5.8c0,6.4,0,8.3,0.2,12.2c0,0.4-0.3,0.5-1.2,0.5c-0.3,0-0.4,0-0.6,0h0
		c-0.2,0-0.3-0.1-0.3-0.3c0,0,0,0,0-0.1v-1.8h-6.8V223.8z M30.5,221.3h6.8v-16.2h-6.8V221.3z"/>
	<path class="st2" d="M34.2,254.8c0.6-0.8,0.9-1,1.6-1.9c1.1,0.9,1.5,1.2,2.5,2.1c0.1,0.1,0.1,0.2,0.1,0.3c0,0.1-0.1,0.2-0.3,0.2
		h-9.4v4.8h7.5c0.7-0.8,1-1.1,1.8-1.9c1.2,0.9,1.5,1.1,2.7,2.1c0.1,0.1,0.2,0.2,0.2,0.3s-0.1,0.2-0.2,0.2H18c-0.5,0-1.9,0.1-2.4,0.2
		l-0.3-1.1c2.1,0.3,2.2,0.3,2.7,0.3h8.8v-4.8h-6.5c-0.6,0-1.1,0-2.3,0.1l-0.3-1.1c0.8,0.2,2.1,0.3,2.7,0.3h6.5v-1.1
		c0-0.8,0-1.5-0.1-2.8c3.1,0.4,3.3,0.5,3.3,0.8c0,0.2-0.2,0.3-1.2,0.6v2.5H34.2z M26.8,239.5v-1.3c0-1.1,0-1.3-0.1-2
		c2.7,0.3,3.3,0.4,3.3,0.7c0,0.1-0.1,0.2-0.2,0.3c-0.1,0.1-0.5,0.2-1.1,0.3v2h7.8c0.6-0.7,0.6-0.7,1.3-1.5c1.1,0.8,1.5,1,2.5,1.8
		c0.1,0.1,0.2,0.2,0.2,0.3c0,0.1-0.1,0.1-0.1,0.2c-0.1,0.1-0.4,0.1-0.7,0.2c-0.4,0.1-0.7,0.1-0.9,0.1c-0.2,0.2-0.4,0.4-0.5,0.5
		c-0.9,0.8-1,1-1.8,1.5l-0.3-0.2c0.3-1.1,0.4-1.5,0.6-2.4h-18c-0.2,1.3-0.4,2.2-0.9,3c-0.4,0.7-1.1,1.3-1.5,1.3s-1-1-1-1.7
		c0-0.3,0.1-0.4,0.4-0.6c1.1-0.8,1.4-1.1,1.8-1.8c0.5-0.9,0.8-1.7,0.9-2.7h0.5c0,0.3,0,0.5,0,0.6c0,0.4,0,0.7-0.1,1.2H26.8z
		 M21.2,244.3c-0.8,0-1.2,0-2.2,0.2l-0.3-1.1c0.5,0.1,0.5,0.1,2.5,0.3h12.4c0.6-0.8,0.8-1,1.4-1.7c1,0.8,1.3,1.1,2.4,2
		c0.1,0.1,0.1,0.1,0.1,0.2c0,0.1-0.1,0.1-0.2,0.1H27.1c-2.5,3.3-2.5,3.3-3.9,4.8c3.1-0.1,5-0.2,10.5-0.7c-1.1-1.1-1.7-1.8-3-2.9
		l0.2-0.3c1.3,0.5,1.8,0.8,3.7,2c1.3,0.8,2.3,1.6,2.7,2.1c0.3,0.3,0.4,0.7,0.4,1.1c0,1-0.3,1.7-0.7,1.7c-0.2,0-0.2,0-1.5-1.8
		c-0.7-1-0.8-1.1-1.1-1.5c-3.2,0.5-5.5,0.9-6.2,1c-2.8,0.4-6.9,0.9-9,1c-0.1,0.9-0.2,1.2-0.5,1.2c-0.4,0-0.6-0.8-1.1-3.1
		c0.6,0.1,1,0.1,1.5,0.1c0.2,0,0.4,0,0.8,0c0.3,0,0.3,0,2.5-0.1c1.3-2.2,1.5-2.6,2.4-4.8H21.2z"/>
</g>
</svg>
