<svg version="1.1" id="レイヤー_1" xmlns="http://www.w3.org/2000/svg" x="0" y="0" viewBox="0 0 257.4 514.4" xml:space="preserve"><style type="text/css">.st1{fill:#210100}</style><g><g><path d="M236.2 148h-.2c-.6 0-1.1 0-1.6.1l-.1-.6c.5.1.8.1 1.7.1h12c.5-.5.6-.7 1-1.2.5.5 1 .9 1.5 1.4.1.1.1.1.1.2s-.1.1-.2.1h-8.9v4.7c0 1.7 0 2.7.1 4.2 0 .1-.1.2-.2.2-.1.1-.6.1-.9.1-.1 0-.2-.1-.2-.2.1-1.7.1-2.1.1-2.9-2.4.9-2.4.9-5 1.7-.1.6-.1.7-.3.7-.2 0-.3-.3-.7-1.8.6 0 .8-.1 1.8-.2V148zm1.9-1.4c0 .2-.2.3-.8.3-.4 0-.5 0-.5-.2.1-1.3.1-1.9.1-3.5 0-1.2 0-1.5-.1-2.3.6.3.8.4 1.3.8h8.4c.3-.3.4-.5.7-.8.5.4.6.5 1.1.9.1.1.1.1.1.2s0 .1-.6.5v4c0 .2 0 .2-.1.2-.1.1-.4.1-.8.1-.2 0-.3 0-.3-.2v-.5H238v.5zm-.7 3.1h3.2V148h-3.2v1.7zm0 2.2h3.2v-1.8h-3.2v1.8zm0 2.6c1.5-.3 2.1-.4 3.2-.6v-1.5h-3.2v2.1zm9.3-12.5h-8.6v1.6h8.6V142zm-8.6 2v1.7h8.6V144h-8.6zm9.5 5.6c.3-.3.4-.4.8-.7.5.4.6.5 1.1.9l.2.2c0 .1-.1.2-.8.4-.9 1.7-1.4 2.4-2.1 3.3 1.3.9 2.3 1.3 4.2 1.7v.2c-.4.1-.6.2-.8.4-.3.3-.3.4-.4.8-1.7-.7-2.5-1.3-3.6-2.3-1.1 1-2 1.6-3.7 2.4l-.1-.2c1.3-.8 2.1-1.5 3.3-2.8-1-1.2-1.5-2.1-2.1-3.8h-.2c-.3 0-.6 0-.9.1l-.1-.6c.3.1.6.1 1 .1h4.2zm-4 .4c.5 1.1.6 1.3 1.1 1.9.4.5.7.8 1.2 1.3.8-1.1 1.1-1.7 1.6-3.2h-3.9zm3.2 18.5l1.2-1.4c.8.7 1 .9 1.8 1.6l.1.1c0 .1-.1.1-.2.1h-6.9v7.8h5.2c.5-.7.7-.9 1.2-1.5.8.7 1.1.9 1.9 1.6l.1.1c0 .1-.1.1-.1.1h-14.6c-.6 0-1 0-1.5.1l-.1-.7c.6.1.9.1 1.6.1h5.1v-12.4c0-1 0-1.6-.1-2.2.4.1.8.1 1 .1 1 .1 1.2.2 1.2.3s-.2.2-.7.4v5.6h3.8zm-10.4 26.7v3.4c0 .2-.1.3-.2.3h-.6c-.3 0-.3 0-.3-.2v-9.2c0-5.1 0-5.6-.1-6.8.6.3.8.4 1.3.8h2c.3-.3.3-.4.6-.7.5.4.6.5 1 .9.1.2.2.3.2.3 0 .1-.1.2-.6.4-.7 1.4-1.5 2.9-2.1 3.9.8.8 1 1.1 1.3 1.5.5.7.8 1.7.8 2.6 0 .9-.3 1.8-.8 2.2-.4.3-.7.5-1.4.6-.2-.8-.3-1-1-1.2v1.2zm0-1.4c.6 0 1.1.1 1.3.1.4 0 .5-.1.6-.3.1-.3.2-.9.2-1.5 0-1.5-.4-2.6-1.5-3.7.5-1.1 1-2.8 1.4-4.4h-2.1v9.8zm6.8-7.9c.3-.4.4-.5.8-.9.6.5.7.6 1.3 1.2v.1l-.1.1h-3.3v2.8c1.1-.2 2.1-.5 3.2-.8l.1.2c-1.3.7-2.4 1.2-4.7 2 0 .4-.1.6-.3.6s-.3-.3-.6-1.6c.5 0 .6 0 1.2-.1V183c1.5.2 1.8.3 1.8.4 0 .1-.2.2-.6.3v2.4h1.2zm.2 6.4c.2-.5.5-1.6.7-2.4 1.5.4 1.7.5 1.7.7 0 .1-.2.2-.6.2h-.2c-.4.6-.6.8-1.2 1.5h4c.3-.3.3-.5.6-.8.5.3.6.5 1 .8.2.1.2.2.2.3 0 .1-.2.3-.6.5v5.8c0 .1-.1.2-.2.2 0 0-.7.1-.8.1-.1 0-.2-.1-.2-.2v-1h-5.9v.8c-.1.2-.2.3-.6.3h-.4c-.2 0-.2-.1-.2-.2.1-1.5.1-1.5.1-5.7 0-.7 0-1.1-.1-1.8.6.3.8.5 1.3.8h1.4zm4.5.4H242v2.1h5.9v-2.1zm-5.8 2.5v2.4h5.9v-2.4h-5.9zm4.4-8.6c.4-.3.8-.6 1.5-1.4.7-.7.8-.8 1-1.2 1.1.6 1.5.8 1.5 1 0 .1-.1.2-.3.2s-.3 0-.5-.1c-1.4.9-2.2 1.3-3.2 1.8v1.9c0 .3 0 .3.1.4.1.1.5.1 1.2.1 1 0 1.4 0 1.5-.1.1-.1.2-.2.3-.4.1-.3.1-.6.3-1 .1-.3.2-.7.4-1.3h.2l-.1 2v.3c0 .2 0 .2.2.3.3.1.3.2.3.4 0 .3-.2.5-.5.5-.2.1-1 .1-1.8.1h-1.5c-1.2 0-1.5-.2-1.5-1.1v-5c0-.6 0-.8-.1-1.3 1.6.2 1.9.3 1.9.5 0 .1-.2.2-.7.3v3.1zm-10.6 21.3c.3.2.5.3.8.3.5 0 1-.1 5-1.1.6-.2 1.7-.4 2.9-.6 1.3-.3 1.9-.4 2.4-.6.4-.1.5-.1.6-.1.2 0 .6.2 1 .4s.5.5.5.7c0 .3-.2.5-.6.5h-.8c-3.1 0-6 2.9-6 6 0 1.6.8 2.9 2.4 3.5.6.3 1.3.4 1.8.4.4 0 .5.1.8.3.3.3.5.6.5.9 0 .3-.3.5-.6.5-1 0-2.7-.6-3.7-1.3-1.4-1-2.1-2.4-2.1-4 0-1.5.7-3.1 2-4.4.7-.8 1.4-1.3 2.9-2.1-2.2.3-6.4 1.5-8 2.4-.4.2-.5.3-.7.3-.4 0-1-.4-1.4-1.1-.3-.4-.5-.9-.5-1.2 0-.1 0-.3.2-.5.2.3.3.5.6.8zm10.7 1.6c.7.4 1.2.7 1.6 1.1.6.6.9 1 .9 1.4 0 .4-.3.8-.6.8-.2 0-.2 0-.8-1.2-.3-.6-.9-1.4-1.4-1.9l.3-.2zm1.9-1.1c.6.3 1.2.6 1.7 1 .7.5.9.9.9 1.4 0 .4-.2.7-.5.7-.2 0-.3-.1-.4-.3-.6-1.1-1-1.6-2-2.6l.3-.2zm-54.3-52c0 .3-.2.3-.8.3-.4 0-.5 0-.5-.2.1-2.7.1-4.6.1-7.9 0-4.3 0-6.4-.1-7.4.6.4.8.5 1.4.9h1.6c.3-.3.4-.5.7-.8.4.3.6.4 1 .8l.2.2c0 .1-.1.2-.5.4v12.8c0 .3-.1.3-.8.3-.3 0-.3 0-.3-.2v-.8h-1.8v1.6zm1.9-13.9h-1.8v3.5h1.8v-3.5zm-1.9 4v3.6h1.8v-3.6h-1.8zm0 4v3.9h1.8v-3.9h-1.8zm2.2 6.7c1.9-1.1 2.7-2 3.4-3.4.5-1.1.8-2.1.8-3.7-.6.5-1.3 1-2.2 1.6-.1.7-.1.8-.3.8-.2 0-.2 0-.8-1.9.9-.1 2.2-.5 3.3-1v-4.1c0-2.9 0-3.5-.1-4.2 1.8.2 1.9.3 1.9.4 0 .1-.2.2-.7.4v1.9c0 .7-.1 5-.1 5.5-.1 2.6-.5 4-1.5 5.3-.9 1.1-2 1.9-3.8 2.7l.1-.3zm1.4-13.3c1.3 1 2.2 2 2.2 2.6 0 .5-.4 1.2-.7 1.2-.2 0-.2-.1-.4-.8-.3-1.1-.6-1.8-1.3-2.9l.2-.1zm7 2.8c1.1-1.2 1.8-2.3 2.2-3.2 1.4.6 1.8.8 1.8 1 0 .2-.3.2-.9.2-1.4 1.3-1.9 1.7-3 2.4v1.9c.7.2 1.8.7 2.3.9.4.2.8.5.9.7.1.1.2.5.2.8 0 .5-.2.9-.4.9-.1 0-.2-.1-.4-.3-.7-1-1.5-1.9-2.5-2.6v5.9c0 .5 0 .5.6.5h.8c.9 0 1.1 0 1.2-.3.1-.2.2-.5.8-3.2h.3l-.1 2.7v.1c0 .2 0 .3.2.4.4.2.4.3.4.5 0 .5-.7.7-2.7.7-1.9 0-2.2 0-2.4-.2-.3-.2-.4-.4-.4-1V143c0-.9 0-1.2-.1-1.8 1.9.3 2 .3 2 .5 0 .1-.1.2-.7.4v4.6zm-9.2 17.5c.7.5 1.1 1 1.4 1.5.2.3.4 1 .6 1.9 1.2-.7 2.2-.9 3.8-1.1.2-.9.3-1.6.3-2.1s-.2-.6-.8-.6h-.3l-.1-.2c.5-.2.9-.3 1.2-.3.7 0 1.4.6 1.4 1.1 0 .3-.3 1.4-.5 2.1 3 .1 5 2.1 5 4.8 0 2-1.2 3.7-3.3 4.8-1.1.6-2.1.9-3.5 1l-.1-.3c1.5-.5 2.5-1 3.5-1.8 1.3-1.1 2-2.6 2-4.1 0-1.4-.6-2.5-1.5-3.2-.6-.5-1.3-.6-2.3-.7-.7 2-1.9 4.2-3 5.6.3.4.3.5.6.9.5.6.6.7.6.9 0 .2-.2.4-.4.4-.4 0-1-.5-1.5-1.3-.3.4-.7.8-1.4 1.3-.6.5-1 .6-1.4.6-.4 0-.6-.2-.8-.9-.2-.6-.2-.7-.5-1.2-.3-.4-.4-.7-.4-1.1 0-1.4 1-3 2.8-4.2-.3-2.1-.5-2.6-1.4-3.7v-.1zm-.1 6.2c-.4.7-.6 1.4-.6 2.1 0 .8.5 1.7.9 1.7s1.3-.6 2.2-1.5c-.5-1.2-.7-2-1.1-3.9-.7.6-1 1-1.4 1.6zm3.3 1.3c1-1.4 1.8-3 2.4-4.8-1.5.2-2.4.5-3.5 1.3.5 2.1.7 2.6 1.1 3.5zm1.7 25.7c1.9-.6 3.2-1.3 4.2-2.5 1.1-1.2 1.6-2.7 1.6-4.3 0-1.7-.7-3.1-2-4-.8-.5-2-.8-3.1-.8h-.6c.4.6.6 1 .6 1.5 0 1.4-1 4-2.4 6.2-1.1 1.8-2 2.7-2.7 2.7-.3 0-.6-.1-.8-.4-.2-.2-.2-.3-.5-1.2-.2-.5-.3-.7-.8-1.7-.3-.6-.4-1.1-.4-1.6 0-1.1.6-2.5 1.6-3.6 1.5-1.5 3.8-2.5 6.2-2.5 1.8 0 3.5.6 4.6 1.7 1.2 1.1 1.7 2.5 1.7 4.2 0 2.3-1.3 4.2-3.6 5.5-1 .6-2 .8-3.5 1.1l-.1-.3zm-5.9-5.6c0 .9.3 1.7.7 2.4.3.3.5.5.7.5.4 0 1.3-1 2.1-2.4 1.3-2.1 2.3-4.4 2.3-5.6 0-.3-.1-.4-.3-.9-3.1.6-5.5 3.2-5.5 6zm-2.2 24.3c1.8-1.4 3.3-3.2 4.4-5 .6-1 .7-1.4.7-1.8 0-.3-.2-.6-.9-1 .2-.1.3-.1.4-.1.3 0 1 .3 1.5.6.6.4.9.7.9 1 0 .2 0 .2-.4.5-.2.1-.2.2-.6.7-1.5 2-2.1 2.6-3.8 3.9-.8.6-1.4 1-2.1 1.3l-.1-.1zm9.7-7.9c1.9 1.1 3.6 2.6 4.7 4.2.6.8.8 1.3.8 1.9 0 .8-.3 1.3-.7 1.3-.3 0-.3-.1-.6-.8-.9-2.4-2.4-4.6-4.4-6.4l.2-.2zm2.2-2.6c.7.4 1.2.7 1.6 1.1.6.6.9 1 .9 1.4s-.3.8-.6.8c-.2 0-.2 0-.8-1.2-.3-.6-.9-1.4-1.4-1.9l.3-.2zm1.8-1c.6.3 1.2.6 1.7 1 .7.5.9.9.9 1.4 0 .4-.2.7-.5.7-.2 0-.3-.1-.4-.3-.6-1.1-1-1.6-2-2.6l.3-.2zm-12.7 34.2c1.7-1.1 3.5-2.5 4.8-3.9 1.1-1.1 2.4-2.8 3.4-4.5.6-.9.9-1.5 1.2-2.3-.9.1-1.8.3-3.8.8-.9.2-.9.3-1.5.5-.1 0-.2.1-.3.1-.4 0-.8-.3-1.2-1-.3-.4-.4-.8-.4-1.1 0-.1 0-.2.1-.4.5.9.9 1.2 1.7 1.2.6 0 2.4-.2 3.8-.5 1-.2 1.4-.3 1.7-.5.2-.1.3-.2.4-.2.4 0 1.4.9 1.4 1.3 0 .1-.1.2-.2.3-.4.3-.4.3-1 1.2-.9 1.3-.9 1.3-2.3 3.1 2.5 1.3 4 2.3 4.7 3 .5.5.7 1 .7 1.8 0 .6-.2.9-.5.9-.1 0-.3-.1-.4-.3-.1-.1-.1-.1-.4-.7-.9-1.5-2.4-3.1-4.3-4.4-1.5 1.8-2.6 2.9-4.4 4.1-1.1.8-1.9 1.2-3.2 1.8v-.3zm1.5 22.1c1.7-1.1 2.3-1.6 3.4-2.5 1.3-1.2 2.2-2.1 3-3.3-.3-.1-.4-.1-.8-.7-.8-1.1-1.4-1.8-2.5-2.7-1.3 1.3-2.2 2-3.3 2.7l-.2-.3c1.3-1.1 2.4-2.3 3.5-3.7 1.1-1.5 1.8-2.7 1.8-3.1 0-.4-.3-.7-1.2-1.1.2-.1.3-.1.4-.1.4 0 1.1.2 1.6.5s.7.5.7.8c0 .3-.2.5-.8 1.4.2.1.3.1.5.1.4 0 1-.1 2.4-.4.9-.2 1.1-.3 1.4-.5.1-.1.2-.1.3-.1.2 0 .5.2 1 .6.3.3.5.6.5.7 0 .1-.1.2-.3.4-.2.2-.3.3-.6.8-1.9 3.5-3.7 5.9-6.1 7.9-1.5 1.3-3.1 2.2-4.6 2.9l-.1-.3zm8.6-11.8c-1.5.4-1.5.4-1.7.4-.3.1-.4.1-.6.1-.3 0-.6-.1-1.1-.5-.7.9-1.2 1.5-1.9 2.3 1.3.6 1.3.6 1.7.8.8.4 1.2.8 1.6 1.4.2.3.2.4.2.8 1.3-1.7 2.5-3.9 3.1-5.6-.4.1-.7.1-1.3.3zM193.4 277c2.3-1.2 4.7-3 6.8-5.1 1.8-1.7 2.9-3.2 2.9-3.7 0-.3-.3-.6-1-1 .2-.1.2-.1.4-.1.5 0 1 .2 1.5.5.6.4.9.8.9 1.2 0 .2 0 .2-.7.8-.2.1-.2.1-1.5 1.4-1.3 1.2-1.4 1.3-2.1 1.9.7.5 1 .8 1.1 1 .1.2.1 1 .1 2.6 0 1.3.1 2.4.1 3.4v1c0 .6-.1.9-.4.9-.4 0-1.2-1-1.2-1.5 0-.1 0-.1.1-.5.2-.5.3-2.7.3-4.4 0-.9 0-1.4-.1-1.7-.1-.2-.1-.3-.4-.6-1.3 1-2.6 1.9-3.5 2.5-1 .6-2.3 1.2-3.2 1.6l-.1-.2zm9.2 17.3c2.7 2.3 4.2 4.1 4.2 5.3 0 .7-.4 1.5-.8 1.5-.1 0-.3-.1-.3-.3-.1-.1-.1-.1-.3-.9-.2-.5-.2-.7-.4-1.1-1.4.4-4 .9-6.7 1.4-1.5.3-1.9.4-2.3.6-.2.1-.3.1-.4.1-.3 0-.5-.2-.8-.6-.5-.7-.8-1.3-.8-1.8 0-.2 0-.3.1-.5.5 1 .8 1.2 1.6 1.2h.4c.5-1 1.5-3.4 2.3-5.4.9-2.2 1.2-3.5 1.2-4s-.3-.8-1.1-1.2c.2-.1.3-.1.5-.1.4 0 1 .2 1.6.6.6.4.8.7.8 1 0 .2 0 .2-.3.5-.2.2-.5.8-.8 1.5-1.3 2.6-2.7 5.3-3.7 7 2.4-.2 5.9-.6 8-.9-.3-.6-.5-1.1-1.1-2-.3-.5-.4-.6-1.4-1.9h.5zm-8.2 16.8c.9.7 1.3.8 2.3.8.6 0 1.1-.1 1.9-.2.4-.8.6-1.4.6-1.8 0-.5-.3-.8-1.3-1 .3-.2.5-.2.8-.2.4 0 .9.1 1.4.3.5.2.6.4.6.6 0 .1-.1.3-.3.5-.2.2-.4.5-.5.7-.3.5-.3.5-.5.7 1.5-.4 2-.6 2.6-1.2.1-.1.2-.1.3-.1.7 0 1.2.3 1.2.6 0 .2-.2.4-.8.6-1.6.5-2.5.7-3.9 1-.3.5-.5.8-1 1.4-.5.8-.6 1-1 1.4 1-.5 1.6-.7 2.3-.7 1.1 0 1.9.7 2 1.8.3-.1.3-.1 1.8-.9 1.8-.9 2.2-1.2 2.2-1.5 0-.3-.3-.6-.8-.8.2-.1.3-.1.4-.1.8 0 2 1.1 2 1.8 0 .3-.1.5-.6.6-1.1.3-3.4 1.2-4.8 1.9v1.5c0 .8-.1 1.4-.1 1.5-.1.2-.3.3-.5.3-.3 0-.6-.2-.6-.5v-.3c.1-.5.1-1.1.1-1.9-1.1.6-1.6 1-2.1 1.4-.6.6-.9 1.1-.9 1.7 0 1 1 1.4 3 1.4 1.3 0 2.5-.2 3.6-.5.1 0 .3-.1.3-.1.6 0 1.3.5 1.3.9 0 .2-.2.4-.6.5-.7.1-2.1.3-3.2.3-1.7 0-2.9-.2-3.7-.5-.9-.4-1.3-1-1.3-1.9 0-.8.4-1.6 1.3-2.5.5-.5 1-.9 2.2-1.6 0-.8-.1-1-.3-1.4-.2-.3-.5-.5-.9-.5-1.2 0-2.6 1-3.9 2.6-.3.5-.5.6-.7.6-.3 0-.5-.4-.5-1 0-.4 0-.4.5-.8 1.3-1 2.1-1.9 3.3-3.9-.6.1-.8.1-1.2.1-1.2 0-1.9-.3-2.7-1.4l.7-.2z" fill="#200701"/></g></g><g><rect x="67.9" class="st1" width="55" height="292.8"/><rect x="4.8" y="60" class="st1" width="55" height="449.8"/><line x1="95.6" y1="0" x2="95.6" y2="30" fill="none" stroke="#76544b" stroke-miterlimit="10"/></g><g><path d="M91.8 78.6c2.4-1.5 4.3-3.6 5.4-5.7 1-2.1 1.4-4.5 1.6-9-2.1.1-4.5.4-6.2.8v1c0 .1 0 1.2.1 3.2v1.8c0 1-.3 1.5-.7 1.5-.5 0-1.4-1.4-1.4-2.2 0-.2 0-.3.1-.6s.2-.8.3-1.3c0-.3.1-1.3.1-3-1.5.3-2.5.6-3.6 1.1-.4.2-.8.3-1 .3-.9 0-2.5-1.9-2.5-3 0-.1 0-.1.1-.3.8.9 1.5 1.3 2.3 1.3.3 0 1.1-.1 2-.2.8-.1.8-.1 1.8-.3.6-.1.6-.1.9-.2 0-1.3-.2-3.1-.4-3.8-.2-.5-.5-1-.9-1.3-.1-.1-.3-.2-.8-.4.2-.2.3-.2.6-.2.6 0 1.6.4 2.4.9.7.4 1 .8 1 1.3 0 .2 0 .3-.1.6-.1.4-.3 1.6-.3 2.7 2.4-.3 2.4-.3 6.3-.8V61c0-2.2-.1-3.1-.5-3.6s-1-.8-1.9-1c.4-.2.7-.3 1.1-.3.7 0 1.8.3 2.7.6.6.3 1 .7 1 1.1 0 .1 0 .2-.1.5-.3.8-.5 2.2-.5 4.3 2.2-.2 2.7-.3 3.4-.6.4-.2.5-.2.8-.2.9 0 2.5 1.1 2.5 1.7 0 .3-.3.5-.6.5h-.5c-1.1-.1-2.4-.2-3.3-.2h-2.3c-.2 5.3-.7 7.8-1.9 9.9-1.3 2.2-3.8 4.2-6.4 5.3l-.6-.4zm-5 16.9c2.7.7 4.3 1.3 5.4 2.1.6.4 1 1.1 1 1.9 0 .9-.3 1.6-.8 1.6-.3 0-.4-.1-1.2-1.1-1.4-1.8-2.4-2.7-4.6-4.1l.2-.4zm19.9 1.6c-1.4 2.6-3.1 4.8-5.9 7.5-2.6 2.5-4.3 3.9-7.9 6.4-1.3.9-1.5 1-1.7 1.3-.4.5-.6.7-1 .7-1.1 0-3.3-2.7-3.3-4.1 0-.2 0-.3.1-.6.6.8.6.9 1 1.2.4.4.8.6 1.1.6.5 0 1.3-.4 2.7-1.2 3.1-1.8 4.2-2.6 6.7-4.6 3.4-2.8 5.1-4.5 7.5-7.5l.7.3zm-22.4 52.4c1.5-1.4 2.7-3.1 3.8-5.3 1.1-2.2 1.9-5.7 1.9-7.6 0-1.1-.5-1.7-1.9-2.2.3-.2.4-.3.8-.3.6 0 1.3.2 2.1.7 1 .6 1.5 1.1 1.5 1.5 0 .2-.1.4-.4 1.3 0 .1 0 .1-.3 1-.9 2.9-1.1 3.6-1.9 5.2-1.3 2.7-2.9 4.5-5.3 6l-.3-.3zm23.9-11.2c-.9 1.5-1.6 2.4-3.1 3.9-1.6 1.7-4.2 4-5.9 5.1-.5.4-1.3 1-1.6 1.3-.2.2-.4.3-.6.3-.6 0-1.7-1.5-1.7-2.3 0-.1.1-.3.2-.9.2-.6.3-3.1.3-7.6 0-6.4-.1-6.7-2.2-7.2.3-.3.5-.4.9-.4.7 0 1.5.3 2.5.9.8.5 1.1.9 1.1 1.3 0 .1 0 .3-.2.8-.1.4-.3 1.3-.4 2.7-.1 1.2-.4 7.4-.4 8.4 0 .4 0 .7.1 1.3 3.2-1.3 7.4-4.4 10.6-7.9l.4.3zm-13.3 31.4c0-2-.1-2.6-.4-3.1-.3-.4-.8-.7-1.5-1 .2-.3.5-.4.9-.4.6 0 1.6.3 2.5.8.9.5 1.2.8 1.2 1.2 0 .3-.1.4-.4.9-.3.4-.3 1.7-.3 12.3 0 5.9-.2 6.9-1.1 6.9-.3 0-.4-.2-.6-.6-.2-.4-.3-1.4-.3-3.5v-13.5zm3.9 41.5c4.2 3.5 6.6 6.4 6.6 8.3 0 1.1-.6 2.3-1.2 2.3-.2 0-.4-.1-.5-.4-.1-.2-.1-.2-.4-1.3-.3-.8-.4-1.1-.7-1.8-2.2.6-6.3 1.4-10.4 2.2-2.4.5-3 .6-3.5.9-.3.2-.4.2-.6.2-.4 0-.8-.3-1.3-.9-.8-1.1-1.2-2.1-1.2-2.8 0-.3 0-.4.2-.8.7 1.5 1.3 1.9 2.5 1.9.1 0 .3 0 .7-.1.8-1.6 2.4-5.3 3.6-8.3 1.3-3.5 1.9-5.4 1.9-6.2 0-.7-.5-1.3-1.7-1.8.3-.2.4-.2.8-.2.6 0 1.6.4 2.4.9.9.6 1.3 1.1 1.3 1.5 0 .3 0 .3-.4.8-.3.3-.7 1.2-1.3 2.3-2 4-4.2 8.3-5.8 10.9 3.7-.3 9.2-.9 12.5-1.5-.4-.9-.8-1.7-1.7-3.1-.4-.7-.6-1-2.1-2.9l.3-.1zm7.6 36.5v.7c-.8.1-1.2.2-1.6.4-.3.2-.5.6-.8 1.1-.1.1-.1.1-.7 1.6-.3.8-1.1 2.2-1.7 3.1l1.9 2c1.5 1.5 2.2 1.9 3.4 1.9v.7h-4.3l-2.5-2.8c-2.2 2.2-4.2 3.2-6.9 3.2-1.8 0-3.5-.5-4.6-1.4-1-.8-1.6-2.4-1.6-3.9 0-2.8 1.5-4.6 5.2-6.2-2-2-2.7-3.4-2.7-5 0-2.6 2.3-4.5 5.4-4.5 1.5 0 3 .5 4 1.3.8.7 1.3 1.8 1.3 2.8 0 2.1-1.6 3.6-5.2 5l6 6.3c1-1.6 1.7-3.4 1.7-4.5 0-.8-.5-1-2-1.1v-.7h5.7zm-13.6 1c-.9.4-1.3.7-1.8 1.3-.8 1-1.3 2.4-1.3 3.8 0 2.8 1.8 4.7 4.4 4.7 2.1 0 4-1 5.5-2.8l-6.8-7zm5.4-6.1c0-2-1.3-3.2-3.3-3.2-1.9 0-3.2 1.2-3.2 3.1 0 1.1.4 2 1.4 3.3.3.4 1.2 1.4 1.3 1.4 2.8-1.3 3.8-2.5 3.8-4.6zm-72-127.5c1.8-2.1 3-4 4-6.6.8-2 1.3-4.4 1.3-5.7 0-.7-.2-1-.7-1.4-1.8.2-4.9 1.1-6.2 1.8-.5.2-.6.3-.9.3-.6 0-1.4-.6-2.2-1.6-.3-.4-.6-1-.6-1.2 0-.1 0-.2.1-.5.7 1 1.3 1.3 2.4 1.3.8 0 .9 0 4.8-.7 1.7-.3 4.9-.7 8.6-1 .6-.1 1.6-.3 2.2-.5.4-.1.4-.1.7-.1.4 0 .9.1 1.5.4.8.4 1.3.9 1.3 1.3 0 .3-.3.6-.8.6-.2 0-.3 0-.7-.1-1.1-.2-3-.4-4.5-.4-1.7 0-3.2.1-4.6.3 1.3.7 1.8 1.3 1.8 1.9 0 1.1-.8 3.5-1.8 5.5-1.5 3.2-2.9 4.9-5.5 6.8l-.2-.4zm-.6-21.6c1.2 1.1 2 1.5 3.3 1.5 1.9 0 4.4-.6 5.9-1.4.3-.2.6-.2.8-.2.7 0 1.9.9 1.9 1.5 0 .3-.3.5-1.5.8-1.8.4-4.9.7-6.4.7-2.1 0-3.2-.6-4.5-2.6l.5-.3zm.9 57.7c2.8-2.1 4.5-3.9 6.4-6.2 2.3-2.9 3.9-5.9 4.7-8.5-2.7.2-5.2.6-8.1 1.3-1.8.4-2.3.6-2.9.9-.4.2-.6.3-.8.3-1 0-2.6-2-2.6-3.2 0-.2 0-.3.2-.5.6 1.1 1.4 1.6 2.4 1.6 1.1 0 5.8-.6 9.5-1.2 1.5-.3 1.7-.3 2.3-.6.2-.1.3-.2.4-.2.3 0 .7.3 1.3.8.8.7 1.1 1.2 1.1 1.5 0 .2-.1.4-.4.7-.4.3-.6.5-1 1.5-3 5.7-7.5 10.2-12.2 12.3l-.3-.5zm-.4-21.7c1 1.1 1.8 1.5 3 1.5 1.9 0 5.3-.7 6.3-1.3.2-.1.4-.2.6-.2.8 0 2.2 1 2.2 1.5 0 .3-.3.5-1.1.6-3.3.5-5.6.7-7.1.7-2.1 0-2.9-.5-4.3-2.6l.4-.2zM20.6 186c2.7-1.7 5.5-3.9 7.5-6.1 1.7-1.8 3.7-4.4 5.3-7 .9-1.4 1.4-2.3 1.9-3.6-1.3.1-2.8.4-5.9 1.2-1.3.4-1.5.4-2.4.8-.1.1-.3.1-.5.1-.6 0-1.2-.5-1.8-1.6-.4-.6-.6-1.2-.6-1.7 0-.2.1-.3.2-.6.8 1.5 1.4 1.9 2.6 1.9.9 0 3.8-.4 5.9-.8 1.6-.3 2.1-.5 2.6-.8.3-.2.4-.3.6-.3.6 0 2.2 1.4 2.2 2 0 .2-.1.4-.4.5-.6.4-.6.4-1.6 1.9-1.3 2-1.3 2-3.5 4.9 3.9 2.1 6.2 3.5 7.3 4.7.8.8 1.1 1.6 1.1 2.8 0 .9-.3 1.5-.8 1.5-.2 0-.4-.1-.6-.4-.1-.1-.1-.1-.7-1.1-1.4-2.4-3.8-4.8-6.7-6.9-2.3 2.7-4.1 4.5-6.8 6.3-1.8 1.2-3 1.9-4.9 2.7v-.4zm10.1 15.9h-5.3c-1.2 0-2.5.1-3.2.1l-.2-1c1.2.2 2.2.2 3.4.2h12.2c.7-.8.9-1 1.7-1.8 1.1.9 1.4 1.1 2.5 2 .1.1.1.2.1.3 0 .1-.1.2-.4.2h-9v2h8.7c.5-.5.7-.7 1.2-1.1 1 .7 1.3.9 2.3 1.6.2.2.3.3.3.4 0 .3-.3.4-1.7.6-1.2 1.5-1.2 1.5-1.9 2l-.2-.1c.1-.4.3-1.3.6-2.7h-9.2v2.7c0 .3 0 1.4.1 3.2-.1.4-.3.5-1.2.5-.5 0-.6-.1-.7-.3v-6.3h-8.6c-.1 1.5-.4 2.4-.9 3.2-.4.7-.8 1.1-1.3 1.1-.2 0-.4-.1-.6-.5-.2-.4-.3-.8-.3-1.2 0-.4.1-.4.5-.7.5-.3 1-.9 1.4-1.5.4-.6.6-1.1.8-2.1h.4v1h8.5v-1.8zm-4.4 20.5c2.1-.3 2.6-.4 4.9-.8l.1.4c-2.9 1-6.2 1.9-10.2 2.7-.2.9-.3 1.2-.5 1.2-.1 0-.2-.1-.3-.3-.1-.1-.1-.3-.2-.9-.2-.6-.2-.9-.4-1.7h.5c.2 0 .2 0 1-.1v-3.3c0-1.2 0-1.3-.1-2.1.9.1 2.1.3 2.4.4.2 0 .3.1.3.2 0 .2 0 .2-.9.6v4.1c.6 0 1.2-.1 2-.2v-6.8h-2v.5c-.1.2-.1.2-.3.3-.3 0-.7.1-1 .1-.3 0-.4-.1-.4-.3.1-1.3.1-1.8.1-2.6 0-1.3 0-2.8-.1-3.2.8.4 1 .5 1.8 1h4.9c.4-.4.5-.6.9-1 .6.4.8.5 1.3 1 .1.1.2.3.2.3 0 .2-.1.3-.8.7 0 1.2 0 1.2.1 3.6-.1.1-.1.2-.2.3-.1.1-.8.1-1.2.1-.1 0-.2-.1-.3-.2v-.5h-1.5v2.6h1.5c.5-.6.6-.7 1.1-1.3.8.7 1 .9 1.8 1.6 0 .1.1.1.1.2s-.1.2-.3.2h-4.3v3.2zM21.7 209c.7.1 1.3.2 2 .2h2.9c.5-.5.6-.7 1.1-1.2.8.6 1 .8 1.8 1.5 0 .1.1.1.1.2s-.1.2-.2.2h-5.6c-.7 0-1 0-1.8.1l-.3-1zm.8-2.6c.5.1 1.3.2 2.1.2h2c.5-.5.6-.7 1.1-1.2.7.6.9.8 1.6 1.5.1.1.1.2.1.2 0 .1-.1.2-.2.2h-4.9c-1.1 0-1.1 0-1.7.1l-.1-1zm.1 8.8h5.1v-3h-5.1v3zM34 225c0 .3-.3.4-1.3.4-.4 0-.5-.1-.5-.3.1-2.9.1-2.9.1-3.7v-1.6c-.9.3-1.4.5-2.9 1l-.2-.4c2.9-1.2 4.6-2.3 6.9-4.2-1-.8-1.4-1.3-2.2-2.4-1.2 1.5-2.1 2.3-3.9 3.4l-.3-.3c1.3-1.2 2.1-2.2 3.1-4 .6-1.1.8-1.6 1.1-2.4 2.2.4 2.5.5 2.5.7 0 .1-.1.2-.1.2-.1 0-.3.1-.8.1-.2.4-.3.5-.5.8h4.5c.5-.4.6-.6 1.1-1 .7.6.9.7 1.5 1.3.1.1.2.2.2.3 0 .2-.4.4-1.1.5-1.3 1.4-1.9 1.9-3 2.8 2.2 1.1 4.1 1.6 6.5 1.9v.3c-.8.1-1.2.5-1.5 1.4-1.2-.4-1.7-.6-2.5-1 .6.4.7.5 1.2 1 .1.1.2.2.2.3 0 .1-.1.3-.4.4v1.2c0 .1 0 .7.1 1.7v1.3c-.1.4-.3.5-1.3.5-.3 0-.4-.1-.5-.3v-.8h-6v.9zm-.6-16c.7.1 1.7.2 2.3.2h3c.5-.6.7-.8 1.2-1.3.8.6 1.1.8 2 1.5.1.1.1.2.1.2 0 .1-.1.2-.3.2h-6c-.9 0-1.2 0-2.1.1l-.2-.9zm0-2.6c.6.1 1.3.2 2 .2h2.3l1.2-1.2c.8.6 1 .8 1.7 1.5.1.1.1.1.1.2s-.1.2-.3.2h-5c-1.1 0-1.2 0-1.9.1l-.1-1zm.6 13.2h5.8c.1-.1.1-.2.2-.3.2-.2.2-.3.4-.4-1.3-.6-2.1-1.1-3.2-1.8-1.3 1-2.4 1.6-3.8 2.2l.6.3zm0 3.9h5.9v-3.3H34v3.3zm.6-10.5c-.1.2-.2.3-.3.4.8 1 1.4 1.5 2.5 2.2 1.4-1.2 1.7-1.5 2.5-2.6h-4.7zm-2.2 33.8c.9 2.7 1.6 4.1 2.9 5.8 1.5 1.9 3.8 3.7 6.1 4.9 1.1.5 1.8.8 3.5 1.3l-.1.4c-1.3.2-1.8.6-2.2 1.8-2.2-1.2-3.4-2-4.9-3.5-2.6-2.5-4.6-5.7-5.4-8.7l-.4-1.6c-.6 3.4-1.6 5.9-3.4 8.1-1.6 1.9-3.8 3.6-6.3 4.7-1 .4-1.6.6-3.1 1.1l-.2-.4c3.5-1.6 5.7-3.2 7.5-5.5 1.9-2.4 3.2-5.2 3.6-8.3h-6c-2 .1-3.2.2-3.5.2l-.1-1.1c1.2.2 2.1.3 3.7.3h6.1c.2-1.9.3-3.1.3-4.8v-1.9h-7.6c-1.2 0-2.5.1-3.4.2l-.2-1.1c1.3.2 2.1.3 3.6.3h16.9c.7-1 .9-1.3 1.7-2.2 1.3 1.1 1.7 1.4 3 2.5.1.1.1.2.1.2 0 .1-.1.2-.3.2H32.5c0 3.7-.1 4.2-.3 6.7h6.7c.7-.9 1-1.2 1.7-2 1.2 1 1.6 1.3 2.8 2.3.1.1.1.2.1.2 0 .1-.1.1-.3.1H32.4zm-13.5 51.5c1.7-2.8 2.4-4.6 2.9-7.5.4-2.4.7-5.7.7-10.3 0-4.1-.1-5.9-.2-7.4 1.1.5 1.4.7 2.4 1.3h13.9c.4-.5.5-.7 1-1.2.9.6 1.1.8 1.9 1.4.1.1.1.2.1.2 0 .2-.3.4-1.1.8v3.8c0 4.1.2 7.5.6 9.7.4 2.1.8 3.1 1.9 4.8.5-1.4.7-2.2 1.4-4.7l.4.1-.4 5c0 .4 0 .4-.1.9 0 .2.1.4.4.8.3.4.4.6.4 1 0 .5-.3.8-.8.8-.6 0-1.2-.4-2-1.3-2-2.2-3-4.9-3.4-8.7-.3-2.7-.4-6.4-.4-9.6 0-1 0-1.7.1-3.1H24.4c0 1.5 0 1.5-.1 8 0 4.7-.6 8-2 11.1-.8 1.8-1.5 2.7-3.1 4.5l-.3-.4zm13.5-9.4v4.6c1.8-.3 1.8-.3 3.7-.7-.4-.7-.6-.8-1.6-2.3l.3-.2c1.3.9 2.1 1.5 3 2.4 1 1 1.4 1.5 1.4 2.1 0 .5-.3 1.3-.5 1.7-.1.1-.3.2-.4.2-.3 0-.4-.1-.8-1.1-.3-.7-.4-1.1-1-2.1-2.3.7-7.7 2.3-10.4 3-.1.6-.3 1-.4 1-.3 0-.4-.3-1.2-2.8 1.6-.1 4.7-.5 6.3-.9v-4.9h-3v1.1c0 .2-.1.3-.2.3s-1 .1-1.3.1c-.2 0-.3-.1-.3-.3.1-1 .1-1.7.1-2.8 0-2.7-.1-5.2-.1-6 .9.4 1.2.6 2.1 1.2h2.8v-3.2c-2 .3-3.2.4-5.1.6l-.1-.4c2.2-.4 4.5-1 6.7-1.7 1.6-.5 2.5-.9 3.2-1.5.4.3.8.5 1 .6.8.6 1.3.9 1.3 1.1 0 .1-.2.3-.4.3-.1 0-.1 0-.6-.1-.4-.1-.4-.1-.8-.1-3.1.8-3.1.8-3.6.9v3.5h2.8c.4-.5.5-.6 1-1.1.8.6 1 .7 1.6 1.3.1.1.2.2.2.3 0 .1-.2.3-.9.7 0 .7 0 .7.1 3.1v2.7c0 .2-.1.3-.3.3-.3.1-.7.1-.9.1-.3 0-.4-.1-.5-.3v-.6h-3.2zm-1.7-5.8h-3v5.1h3v-5.1zm4.7 0h-3v5.1h3v-5.1zm-2.5 35.6c-1.4 3-1.8 3.7-2.6 4.9h9.3c.6-.6.7-.8 1.3-1.3.8.6 1 .8 1.6 1.3.2.2.3.3.3.4 0 .2-.2.3-.9.7v1.4c0 1.8.1 5.4.1 7.5 0 .3-.1.4-.4.5-.3.1-.9.2-1.2.2-.3 0-.4-.1-.5-.4v-1.4h-16v1.3c0 .4-.3.6-1.1.6h-.5c-.3 0-.4-.1-.5-.4v-5.6c0-2.6 0-5-.1-6.2 1.1.6 1.4.8 2.4 1.4h5.4c.5-2.1.6-3.1.8-4.9H26v1.1c0 .3-.1.3-.3.4-.2.1-.9.1-1.3.1-.3 0-.4-.1-.5-.4.1-2 .1-3 .1-5.2 0-3.1 0-3.9-.1-5.3 1.1.6 1.4.8 2.4 1.5h11.1c.5-.6.7-.8 1.1-1.3.8.6 1.1.8 1.8 1.4.2.2.2.3.2.3 0 .2-.2.3-1 .8v1.4c0 1.9 0 5 .1 6.2-.1.4-.3.5-1 .5h-.5c-.3 0-.4-.1-.4-.3v-1.3h-4.8zm-9 13.1H40v-7.5H23.9v7.5zm2.2-13.7h11.7v-6.4H26.1v6.4zm-6.8 42.1c1.8-2.6 3.2-5.1 4.7-8.6 1.1-2.5 1.5-4 1.9-6.1 1.1.3 2.6.7 3.1.9.2.1.3.2.3.3 0 .3-.3.4-1.4.6-1 2.8-2 4.6-3.8 7.4 2 .3 2.4.4 2.4.6 0 .2-.1.3-.9.6v7.6c0 3.7 0 3.7.1 6.9 0 .4-.3.5-1.1.6H24c-.3 0-.5-.1-.5-.4v-.1c.1-3.2.1-4.9.1-6.9v-8.3c-1.8 2.7-2.5 3.6-3.9 5l-.4-.1zm9.4-6.2c-.5 0-1 0-2.2.1l-.2-1c1.2.1 1.8.2 2.4.2h9.2v-4.7c0-1.4 0-1.8-.2-3 2.5.3 3.3.5 3.3.8 0 .2-.4.4-1.2.7v6.2h.8c.7-1 .9-1.2 1.6-2.1 1.1.9 1.5 1.2 2.5 2.2.1.1.1.2.1.3 0 .1-.2.3-.3.3h-4.7v8.1c0 1.8 0 4.6.1 6.2-.1.8-.2 1.2-.8 1.6-.5.4-1 .5-3 .9-.3-1.4-.5-1.5-5-2.3v-.4c.8.1 1.6.1 2 .1 2.4.1 2.5.1 4 .2.5 0 .6-.2.6-.6V354h-9zm.3 2.7c1.5.9 2.7 1.8 4 3.1 1 1 1.3 1.4 1.3 2 0 .7-.7 1.9-1.1 1.9-.3 0-.5-.2-.7-.8-1-2.5-2.1-4.3-3.7-5.9l.2-.3zm-2.3 33.2H28c.6-.8.8-1 1.4-1.8 1 .8 1.2 1.1 2.2 2 .1.1.2.2.2.3 0 .1-.1.2-.3.2h-4.8v2.6c1.3.6 2.1 1.1 3 1.7 1.2.9 1.5 1.3 1.5 2.1 0 1-.3 1.8-.7 1.8-.2 0-.3-.1-.5-.5-1-2.1-1.9-3.3-3.4-4.5v12.9c0 .2-.1.3-.2.3s-1.1.1-1.5.1c-.2 0-.3-.1-.3-.3 0-1.4.1-1.7.1-3.1.1-3.7.1-4.2.1-5.7l.2-4.9c-1.7 3.7-2.9 5.3-5.8 8.5l-.3-.2c1.8-2.6 2.6-3.9 3.6-5.9.8-1.7.8-1.7 2.1-5.1h-3.4c-.5 0-1.1.1-1.7.2l-.2-1.1c.8.2 1.2.3 2.2.3h3.3v-4.3c-2 .4-2.8.6-4.8.8l-.2-.4c2.7-.7 4.1-1.2 6.2-2.1 1.9-.8 2.6-1.1 3.5-1.8 2.4 1.7 2.4 1.7 2.4 1.8 0 .2-.2.3-.5.3-.1 0-.5-.1-1-.1-1.6.6-2.2.7-3.8 1.1v4.8zm7.7 15.9v.1c0 .3-.3.4-.9.4h-.6c-.3 0-.4-.1-.4-.4.1-2.8.1-3.9.1-7.3 0-9.3 0-11.8-.1-13.6 1 .6 1.2.8 2.2 1.4h6.4c.5-.6.7-.7 1.2-1.3.7.5.9.7 1.6 1.3.2.2.3.3.3.4 0 .2-.3.4-.9.8v5.8c0 6.4 0 8.3.2 12.2 0 .4-.3.5-1.2.5h-.6c-.2 0-.3-.1-.3-.3v-1.9h-6.8v1.9zm0-2.5h6.8v-16.2h-6.8v16.2zm-14.9 21.6c1.5.6 2.3 1 3.1 1.5 1 .6 1.2 1 1.2 1.6 0 .8-.4 1.7-.8 1.7-.3 0-.4-.2-1-1.2-1.1-1.7-1.5-2.3-2.7-3.4l.2-.2zm.1 10.1c1.1.2 1.6.3 1.8.3.2 0 .5-.3.7-.6l2.3-4.6c.1-.3.8-1.7 1.7-3.8.1-.3.4-.8.6-1.4l.4.2-3.6 10.2c-.2.7-.3 1.3-.3 1.7s0 .6.5 2c.2.7.3 1.4.3 1.9 0 .6-.2 1.2-.5 1.6-.4.4-1 .7-1.4.7-.4 0-.6-.3-.6-.7 0-.1 0-.3.1-.8.1-1.1.2-2.4.2-3.3 0-1.3-.1-1.7-.4-2.1-.3-.3-.3-.3-1.8-.9v-.4zm1.7-16.2c1.4.5 2.6 1.1 3.5 1.7.8.5 1 .8 1 1.4 0 .9-.5 1.7-.9 1.7-.2 0-.3-.1-.5-.4-.9-1.4-1.8-2.5-3.3-4.1l.2-.3zm14 10.4h3.6c.7-.8.9-1.1 1.6-1.8 1 .8 1.3 1.1 2.3 2 .1.1.1.2.1.2 0 .1-.1.2-.3.2h-7.4v5.2h4.9c.7-.8 1-1.1 1.7-1.9 1.1.9 1.4 1.2 2.5 2.2.1.1.1.2.1.2 0 .1-.1.2-.3.2h-9v.9c0 2 .1 4 .2 6.6 0 .2-.1.3-.3.3-.2.1-1 .2-1.5.2-.4 0-.5-.1-.5-.4.1-1.8.1-4.5.1-6.8v-.8h-5.2c-1 0-1.9.1-2.4.2l-.2-1.1c.7.2 1.5.3 2.7.3h5.2v-5.2h-3.6c-.8 0-1.5.1-2.2.2l-.2-1.1c.6.1 1.5.2 2.4.2h3.6v-4.5H29c-.6 0-1.2.1-1.7.1l-.2-1c.7.2 1.3.2 2 .2h2.4c-.2-.2-.2-.2-.4-1.1-.4-1.3-.8-2.2-2-4l.3-.3c.4.3.7.5.9.6 1.3.9 1.5 1 2.1 1.7.4.5.6.8.6 1.1 0 .6-.4 1.6-.9 1.9h3.8c.8-1.4 1.7-3.4 2.3-5.4 3.1 1.1 3.1 1.1 3.1 1.3 0 .2-.2.3-1.4.4-1.9 2.2-2.2 2.6-3.4 3.7h3.2c.8-.9 1-1.1 1.8-2 1.1.9 1.4 1.2 2.4 2.2.1.1.1.2.1.2 0 .1-.1.2-.3.2h-8.3v4.7zm2.8 44c.6-.8.9-1 1.6-1.9 1.1.9 1.5 1.2 2.5 2.1.1.1.1.2.1.3 0 .1-.1.2-.3.2h-9.4v4.8h7.5c.7-.8 1-1.1 1.8-1.9 1.2.9 1.5 1.1 2.7 2.1.1.1.2.2.2.3s-.1.2-.2.2H21.9c-.5 0-1.9.1-2.4.2l-.3-1.1c2.1.3 2.2.3 2.7.3h8.8V474h-6.5c-.6 0-1.1 0-2.3.1l-.3-1.1c.8.2 2.1.3 2.7.3h6.5v-1.1c0-.8 0-1.5-.1-2.8 3.1.4 3.3.5 3.3.8 0 .2-.2.3-1.2.6v2.5h5.3zm-7.4-15.3v-1.3c0-1.1 0-1.3-.1-2 2.7.3 3.3.4 3.3.7 0 .1-.1.2-.2.3-.1.1-.5.2-1.1.3v2h7.8c.6-.7.6-.7 1.3-1.5 1.1.8 1.5 1 2.5 1.8.1.1.2.2.2.3 0 .1-.1.1-.1.2-.1.1-.4.1-.7.2-.4.1-.7.1-.9.1l-.5.5c-.9.8-1 1-1.8 1.5l-.3-.2c.3-1.1.4-1.5.6-2.4h-18c-.2 1.3-.4 2.2-.9 3-.4.7-1.1 1.3-1.5 1.3s-1-1-1-1.7c0-.3.1-.4.4-.6 1.1-.8 1.4-1.1 1.8-1.8.5-.9.8-1.7.9-2.7h.5v.6c0 .4 0 .7-.1 1.2h7.9zm-5.6 4.8c-.8 0-1.2 0-2.2.2l-.3-1.1c.5.1.5.1 2.5.3h12.4c.6-.8.8-1 1.4-1.7 1 .8 1.3 1.1 2.4 2 .1.1.1.1.1.2s-.1.1-.2.1H31c-2.5 3.3-2.5 3.3-3.9 4.8 3.1-.1 5-.2 10.5-.7-1.1-1.1-1.7-1.8-3-2.9l.2-.3c1.3.5 1.8.8 3.7 2 1.3.8 2.3 1.6 2.7 2.1.3.3.4.7.4 1.1 0 1-.3 1.7-.7 1.7-.2 0-.2 0-1.5-1.8-.7-1-.8-1.1-1.1-1.5-3.2.5-5.5.9-6.2 1-2.8.4-6.9.9-9 1-.1.9-.2 1.2-.5 1.2-.4 0-.6-.8-1.1-3.1.6.1 1 .1 1.5.1h.8c.3 0 .3 0 2.5-.1 1.3-2.2 1.5-2.6 2.4-4.8h-3.6z" fill="#fff"/></g></svg>