<svg version="1.1" id="レイヤー_1" xmlns="http://www.w3.org/2000/svg" x="0" y="0" viewBox="0 0 191.6 329.3" xml:space="preserve"><g><g><path d="M167.8 154c.8.1 1.1.2 1.9.2h11.1c.5-.7.7-.9 1.2-1.5.9.7 1.1 1 2 1.7.1.1.1.1.1.2s-.1.1-.1.1h-14.3c-.8 0-1.2 0-1.8.1l-.1-.8zm1.8-10.1c.6.1 1.3.2 1.8.2h7.7c.5-.7.7-.9 1.2-1.5.8.7 1 .9 1.8 1.6 0 .1.1.1.1.1 0 .1-.1.1-.3.1h-10.5c-.6 0-1.1 0-1.7.1l-.1-.6zm0 23.6V178c0 .1-.1.2-.2.2s-.6.1-.9.1c-.2 0-.2 0-.2-.2.1-1.5.1-4.4.1-8.9 0-4.7 0-6.3-.1-7.3.5.3.7.4 1.3.8h3.7c.3-.4.4-.5.7-.8.4.4.6.5 1 .8l.2.2c0 .1-.1.2-.5.5v2c0 .9 0 1.5.1 2.6 0 .1 0 .2-.1.2s-.5.1-.9.1c-.1 0-.2-.1-.2-.2v-.5h-4zm3.8-4.5h-3.8v1.8h3.8V163zm0 2.2h-3.8v1.8h3.8v-1.8zm0 11.2c0 .1 0 .1-.2.2-.1 0-.6.1-.7.1-.2 0-.2-.1-.2-.2v-3.1c0-2.1 0-3.8-.1-4.5.6.3.8.4 1.4.8h4.2c.3-.3.5-.4.8-.7.4.3.5.4.9.8.2.1.2.2.2.3 0 .1-.1.2-.6.4v2c0 1.2 0 1.9.1 3.3 0 .2 0 .2-.2.3-.1 0-.5.1-.8.1-.2 0-.2 0-.3-.2v-.6h-4.5v1zm4.6-6.3h-4.5v2h4.5v-2zm-4.6 2.4v2.3h4.5v-2.3h-4.5zm4.6-5v.5c0 .2-.2.3-.7.3-.5 0-.5 0-.5-.2 0-1.1.1-1.7.1-2.7 0-2.6 0-2.7-.1-3.4.6.3.8.4 1.3.8h3.8c.3-.4.4-.5.7-.8.5.4.6.5 1.1.8.1.1.2.2.2.3 0 .1-.1.2-.6.5V177c-.1.8-.4 1.1-1.9 1.4-.2-.4-.3-.6-.6-.8-.2-.1-.5-.2-1-.3-.6-.1-1-.2-1-.2v-.3c1.5.1 1.8.1 2.9.1.3 0 .3-.1.3-.3v-9h-4zm4-4.5h-4v1.8h4.1V163zm0 2.2h-4v1.8h4.1v-1.8zm-11.6 25.9c-.9.2-1.2.3-2 .4-.1.1-.1.3-.1.3-.1.2-.1.3-.2.3s-.1-.1-.2-.3c-.1-.2-.1-.2-.3-1.4h1.8c1.1-1.7 2.3-4 2.8-5.5.3.2.6.3.8.4.9.4.9.4.9.5 0 .1-.1.2-.8.2-1 1.6-2.2 3.3-3.1 4.3 1.2 0 1.8-.1 2.8-.1-.2-.7-.3-1-.6-1.6l.2-.1c.6.5.8.7 1 1 .2.3.4.7.4.9 0 .3-.4.9-.6.9-.1 0-.1-.1-.2-.2 0-.1 0-.1-.1-.3 0-.1 0-.2-.1-.3-.2 0-.2 0-.4.1s-.3.1-.7.2v8c0 .2-.1.2-.2.3-.1 0-.6.1-.8.1-.2 0-.2-.1-.2-.2v-2.2c0-.6 0-.6.1-2v-3.7zm-2.7-5.8c.6.3.8.5 1.3.8.7-1.5 1.2-2.6 1.4-3.5.7.2 1.5.5 1.7.6.1.1.2.1.2.2s-.2.2-.8.3c-.8 1.2-1.1 1.5-2.2 2.7.1.1.1.1.2.1.5.4.7.7.7 1.1 0 .5-.3 1-.5 1-.1 0-.2-.1-.5-.8-.4-.8-.8-1.4-1.6-2.4l.1-.1zm-.1 13c.3-1 .4-1.5.5-2.6.2-1.3.3-2.4.3-2.7v-.4c.3.1.6.1.7.2.3.1.6.1.6.1.2 0 .3.1.3.2s-.2.3-.6.4c-.6 2.6-.9 3.5-1.7 5l-.1-.2zm4.6-5.9c.5.6.9 1.2 1.3 1.9.2.4.3.6.3.9 0 .5-.6 1.3-.9 1.3-.2 0-.2-.1-.2-.6-.1-1.1-.4-2.2-.8-3.4l.3-.1zm.2 6.5c1.5-.8 2.2-1.4 2.8-2.5.5-.9.7-1.5.8-3 .1-.6.1-1.3.1-1.6v-.7c1.5.2 1.8.2 1.8.4 0 .1-.2.2-.6.4-.1 1.7-.2 2.2-.4 3-.5 1.9-2 3.4-4.4 4.2l-.1-.2zm2.6-9c0 .6-.1 1.1-.2 1.5-.2.7-.6 1.2-.9 1.2-.3 0-.6-.5-.6-.9 0-.2 0-.2.2-.3.3-.2.6-.6.8-1 .2-.3.2-.6.4-1.7h.3c.1.4.1.6.1.9h6.8l.8-.8c.6.4.7.6 1.3 1 .1.1.2.2.2.3 0 0 0 .1-.1.1-.1.1-.2.1-.4.1-.1 0-.3 0-.6.1l-.9.9-.7.7-.2-.1c.4-1 .5-1.2.6-1.9H175zm6.1-5l1.1-1.1c.6.6.8.7 1.5 1.3 0 .1.1.1.1.1 0 .1-.1.1-.2.1h-5v2.1h1.8c.4-.5.5-.6 1-1.1.6.5.8.7 1.4 1.2.1.1.1.1.1.2s-.1.1-.1.1h-7.2c-.8 0-.9 0-1.7.1l-.1-.7c.6.1 1 .2 1.6.2h2v-2.1h-2.3c-.5 0-.9 0-1.5.1l-.1-.7c.5.1.9.2 1.6.2h2.3v-.7c0-.4 0-.7-.1-1.5 1.8.3 2 .3 2 .5 0 .1-.2.3-.7.4v1.3h2.5zm-2.3 8c0-1.2 0-1.2-.1-1.8 1.5.1 1.8.2 1.8.4 0 .1-.1.2-.6.4v5.3c0 .3 0 .3.3.3h.8c.9 0 1.1-.1 1.2-.3.1-.2.2-.5.3-.9.1-.3.2-.6.2-.9.1-.4.2-.9.4-1.6h.2l-.1 3v.1c0 .2 0 .2.3.3.3.1.4.2.4.4 0 .3-.2.5-.6.6-.2 0-.2 0-2 .1h-1.7c-.7 0-.9-.3-.9-1v-4.4zm-8.7 14.2c.8.6 1.4.8 2.4.8.8 0 2.2-.2 3-.5-.4-.8-1.1-1.7-1.5-2-.2-.2-.7-.3-1.4-.4.1-.3.2-.4.7-.5.3-.1.5-.1.8-.1.6 0 1.1.1 1.2.2s.2.2.2.7c0 .4 0 .4.7 1.8 1.7-.6 2.1-.8 2.6-1.3.1-.1.3-.2.6-.2.7 0 1.1.2 1.1.5s-.2.4-1.2.8c-.3.1-1.2.4-2.6.9.2.3.2.3.4.7.1.2.4.7.9 1.5 1.4-.6 1.8-.7 2.2-1-.4-.4-.5-.5-.9-.8l.1-.2c.7.3 1.2.5 1.5.5h.4c.3 0 .5.2.5.5 0 .4-1 1-3.5 1.9.6 1 .6 1.1.8 1.4l.8 1.4c.2.3.3.6.3 1 0 .7-.2 1.2-.6 1.2-.2 0-.2 0-.5-.3-.9-.7-2.6-1.2-4.2-1.2-.8 0-1.6.2-2.3.5-.7.4-1.1.8-1.1 1.5 0 1.1 1.2 1.7 3.4 1.7.9 0 1.4-.1 2.3-.3h.2c.5 0 1.2.5 1.2 1 0 .1-.1.3-.3.3-.3.1-1.4.3-2.5.3-1.4 0-2.6-.2-3.5-.5-1.1-.5-1.7-1.3-1.7-2.3 0-1.6 1.9-2.7 4.8-2.7 1.1 0 2.1.1 3.4.4-.2-.7-.7-1.8-1.4-3.1-1.2.4-2.7.7-3.8.7-.8 0-1.4-.2-1.9-.5-.4-.3-.6-.5-.9-1.1l.2-.2c.6.8 1.2 1.1 2.1 1.1 1 0 2.4-.2 3.9-.7-.4-.7-.8-1.5-1.3-2.2-1.2.4-2.4.6-3.3.6-1 0-1.8-.4-2.6-1.3l.3-.5zm-35.8-60.7c.5 1.9 1.2 3.3 2.1 4.6 1 1.4 2.3 2.6 3.8 3.5.8.5 1.2.7 2.4 1v.3c-1 .1-1.3.3-1.6 1.2-1.5-.9-2.1-1.5-3.1-2.5-1.2-1.4-2.3-3.1-2.9-4.7-.3-.9-.6-1.7-.9-3-.3 2.6-1.1 4.6-2.6 6.4-.9 1.1-2.2 2.2-3.6 3-.7.4-1.2.6-2.3 1.1l-.1-.3c1.6-.9 2.4-1.5 3.3-2.3 2.4-2.2 3.8-5 4.1-8.2h-5.2c-.7 0-1.1 0-1.7.1l-.1-.7c.7.1 1.1.1 1.9.1h5.2c.1-1.1.1-2.4.1-3.5 0-.5 0-.7-.1-1.2 2.1.2 2.2.2 2.2.4s-.2.3-.8.5c-.1 2.1-.1 2.8-.2 3.9h5.1c.4-.6.6-.8 1-1.4.8.6 1 .8 1.8 1.5.1.1.1.1.1.2s-.1.2-.2.2h-7.7zm-8.6 31.2c1.7-1.2 2.5-2 3.4-3.2 1.6-2.1 2.7-4.6 3.3-7.3.3-1.4.4-2.7.4-3.9 0-.4 0-.6-.1-1 2 .3 2.2.3 2.2.5 0 .1-.1.2-.8.5v.6c0 2.6 1 5.7 2.5 7.9 1 1.4 2.2 2.6 3.7 3.5.7.4 1.1.6 2.1 1v.2h-.1c-.4 0-.7.1-.9.4-.2.2-.3.4-.5.9-1.8-1.2-3.2-2.5-4.3-4.4-.8-1.3-1.6-3.2-2.1-5-.2-.8-.3-1.3-.4-2.6-.5 3.3-1.4 5.6-2.9 7.8-1.4 2-2.9 3.2-5.3 4.4l-.2-.3zm7.6 15.2c-.4 1.4-.7 2-1.4 2.9.6.2.8.3.9.5.2.2.3.5.3.8 0 .3-.1.6-.2.6s-.2-.1-.4-.2c-.4-.4-.6-.6-1.2-1-.6.6-1.2 1-1.9 1.5-1 .5-1.9.8-3.5 1.1l-.1-.2c2.3-.8 3.5-1.5 4.7-2.8-.7-.4-1.1-.6-2.1-1-.1.1-.2.3-.3.6-.1.3-.2.3-.7.3-.4 0-.5-.1-.5-.1v-.1c.4-.7.5-.8.8-1.3.5-.8.6-1.1.8-1.5h-.9c-.8 0-1.1 0-1.8.1l-.1-.7c.6.1 1.2.2 1.9.2h1.1c.4-.8.5-1.1.7-1.6 1.3.3 1.5.4 1.5.5 0 .2-.1.2-.6.3-.2.4-.3.5-.5.8h2.7c.3-.4.4-.6.8-1 .6.5.8.6 1.4 1.2l.1.1c0 .1-.1.1-.1.1h-1.4zm-2.2-5.1c.1 0 .1 0 .9.3.8.2 1.5.5 1.6.7.2.2.3.6.3.9 0 .3-.1.5-.3.5-.2 0-.2 0-.6-.6-.6-.7-1.2-1.2-1.8-1.5v2.3c0 .2-.1.2-.6.3h-.2c-.2 0-.3-.1-.3-.2v-.1c0-.9.1-1.4.1-1.9v-.7c-.7.8-1.1 1.3-1.9 1.9-1 .8-1.4 1.1-2.3 1.6l-.1-.2c1.1-.9 1.8-1.5 2.7-2.7.5-.6.6-.8 1-1.4h-2c-.4 0-.8 0-1.6.1l-.1-.6c.8.1 1.1.1 1.7.1h2.6v-1.8c0-.5 0-1.3-.1-1.8 1.6.2 1.8.2 1.8.4 0 0 0 .1-.1.1s-.2.1-.3.1c-.1 0-.2.1-.3.1v2.8h1.9c.3-.4.4-.5.7-1 .6.5.8.6 1.3 1.1.1.1.1.1.1.2s-.1.1-.2.1h-3.9v.9zm-4.1-4.4c1.5 1 2 1.5 2 2 0 .3-.4.9-.6.9-.1 0-.3-.2-.4-.6-.2-.7-.6-1.5-1.2-2.2l.2-.1zm2.6 9.5c-.2.3-.5.9-1 1.8 1.2.4 1.7.5 2.3.7.6-.8.8-1.3 1.2-2.5h-2.5zm2.1 6c2.1-1 3.1-1.7 4.1-2.9.4-.5.8-.9 1.1-1.5-.9-1.6-1.2-2.8-1.6-5.1-.5.8-.8 1.2-1.5 2.2l-.2-.2c1.1-2.3 1.7-3.7 2.2-5.7.4-1.4.5-2.3.6-2.9 1.9.5 2 .5 2 .7 0 .1-.2.2-.8.3-.3 1-.6 1.8-1.2 3.4h3.4c.5-.5.6-.6 1-1.1.7.6.7.6 1.5 1.3l.1.1c0 .1 0 .1-.1.1h-1.9c-.2 1.4-.3 2.1-.6 3.1-.4 1.5-1 2.7-1.7 3.8 1.1 1.3 2.4 2.2 4.4 3.2v.2c-.9 0-1.2.2-1.5.9-1.4-1-2.5-2.1-3.5-3.5-.5.6-1 1.1-1.6 1.5-1.2.9-2.2 1.5-4.2 2.2v-.1zm.1-12.7c.6-1.2 1-2.1 1.2-2.9.3.1.6.2.8.3.6.2.9.4.9.5 0 .1 0 .1-.1.1 0 0-.1 0-.3.1h-.3c-.2.2-.2.2-.9 1-.5.6-.5.6-1 1.1l-.3-.2zm4.4 1.5c-.2.5-.3.7-.6 1.2.5 2.1.9 3.3 1.8 4.7.9-1.8 1.4-3.5 1.7-5.9h-2.9zm-9.1 20.3c.3.2.5.3.8.3.5 0 1-.1 5-1.1.6-.2 1.7-.4 2.9-.6 1.3-.3 1.9-.4 2.4-.6.4-.1.5-.1.6-.1.2 0 .6.2 1 .4s.5.4.5.7c0 .3-.2.5-.6.5h-.8c-3.1 0-6 2.9-6 6 0 1.6.8 2.9 2.4 3.5.6.3 1.3.4 1.8.4.4 0 .5.1.8.3.3.3.5.6.5.9 0 .3-.3.5-.6.5-1 0-2.7-.6-3.7-1.3-1.4-1-2.1-2.4-2.1-4 0-1.5.7-3.1 2-4.4.7-.8 1.4-1.3 2.9-2.1-2.2.3-6.4 1.5-8 2.4-.4.2-.5.3-.7.3-.4 0-1-.4-1.4-1.1-.3-.4-.5-.9-.5-1.2 0-.1 0-.3.2-.5.2.3.3.5.6.8zm10.7 1.6c.7.4 1.2.7 1.6 1.1.6.6.9 1 .9 1.4 0 .4-.3.8-.6.8-.2 0-.2 0-.8-1.2-.3-.6-.9-1.4-1.4-1.9l.3-.2zm1.9-1.1c.6.3 1.2.6 1.7 1 .7.5.9.9.9 1.4 0 .4-.2.7-.5.7-.2 0-.3-.1-.4-.3-.6-1.1-1-1.6-2-2.6l.3-.2zm-11 19.1c.4.6.7 1 1.2 1.3.6.4 1.2.6 2.1.8.5-2.5.6-2.8.6-3.2 0-.6-.3-1-1-1.5.1-.1.2-.1.3-.1.3 0 .8.2 1.3.6.6.4.9.9.9 1.3 0 .2-.1.3-.2.5-.3.4-.5.9-1 2.5.4.1.5.2.7.4.1.2.3.4.3.6 0 .2-.2.4-.6.4-.2 0-.4 0-.7-.1-.4 1.2-.6 2.3-.7 3.3.4.1.7.1.9.1h.3c.5 0 1.1.6 1.1 1 0 .3-.2.4-.6.4-.5 0-1.3-.1-1.9-.3 0 .4-.1.6-.1.9 0 1.8 1 2.9 2.8 2.9 1.2 0 2.3-.5 2.8-1.2.4-.5.6-1.2.6-1.8 0-1.5-1-3.2-2.7-4.5l.2-.2c2.7 1.6 3.8 3.1 3.8 5 0 2.2-1.9 3.8-4.4 3.8-.9 0-1.8-.3-2.4-.7-.9-.7-1.4-1.8-1.4-3.3v-.9c-.7-.3-1.1-.5-1.4-.9-.5-.5-.8-1.2-.8-1.8 0-.4.2-.9.6-1.2.4-.4.9-.7 1.7-1-.7-.3-1.2-.6-1.7-1.1-.4-.4-.6-.8-.9-1.6l.3-.4zm1 4.1c-.3.3-.4.6-.4.9 0 .8.6 1.3 1.9 1.7.1-.9.3-1.9.5-3.3-1 0-1.5.2-2 .7zm9.4 16.4c.5-.6.6-.8 1.1-1.4.8.6 1 .8 1.8 1.5v.1c0 .1-.1.1-.2.1h-13c0 4-.2 5.9-.7 8.1-.4 1.9-1.2 3.5-2.5 5.1l-.2-.2c.7-1.3 1.1-2.4 1.5-4 .4-1.9.6-4.1.6-8.4 0-.9 0-1.3-.1-2.1.7.4.9.6 1.5 1h4.6v-1.3c0-.7 0-.9-.1-1.5 1.9.2 2.2.3 2.2.5s-.3.3-.8.4v1.9h4.3zm-2.7 5.7c.8.7 1.2 1.1 2.3 2.4 1.9 2.1 2.3 2.8 2.3 3.5 0 .4-.2 1-.4 1.3-.1.2-.3.3-.5.3-.1 0-.2-.1-.3-.2 0-.1 0-.1-.1-.5-.1-.3-.3-1-.6-1.6-2.4.7-5.5 1.3-9.4 1.8-.1.6-.1.7-.3.7-.2 0-.2 0-.8-2.2h1.9c.6-1.2 1.1-2.4 1.9-4.5.4-1.2.9-2.8 1.2-4 .1-.5.2-.7.2-1.2 1.6.3 2.1.5 2.1.7 0 .2-.2.3-.9.3-1 2.8-2.4 5.8-4.1 8.6 2.6-.1 2.6-.1 4.5-.3 1.7-.1 2.4-.3 3.4-.4-.6-1.5-1.7-3.2-2.7-4.6l.3-.1zm-9.8 23.4c1.5-1.3 3-3 4.4-5 1-1.5 1.7-2.7 1.7-3.2 0-.3-.3-.7-.8-1 .2-.1.3-.1.5-.1.4 0 .8.2 1.6.7.4.3.5.4.5.6 0 .3 0 .3-.4.7-.1.1-.1.1-.4.5-.3.4-.4.6-.8 1.1h.5c.3 0 2.4-.2 3.4-.3.3 0 .3-.1.6-.3.2-.1.4-.2.5-.2.3 0 1.3 1 1.3 1.4 0 .1-.1.2-.2.3 0 0-.2.1-.6.2-1.4 2.1-2.4 3.2-4 4.8l.3.2c1.5 1 2 1.6 2 2.4 0 .6-.2 1-.5 1-.2 0-.4-.1-.6-.5-1.2-1.8-2.8-3.3-4.8-4.6l.1-.2c1.5.6 2 .9 3 1.5 1.5-1.9 2.4-3.4 3.3-5.2-.7.1-1.4.2-1.7.3-.6.1-1 .2-1.3.2-.2.1-.4.1-.6.1-.2 0-.5-.1-1-.5-1.6 2.2-3.8 4.3-5.7 5.4l-.3-.3zm-.7 25.7c2.2-.3 3.7-.7 5.4-1.5 1-.5 1.7-1 2.5-1.8-1.5-.6-2-.8-3.7-1.2-.2.4-.4.6-.7 1.1-.1.1-.2.1-.3.1-.2 0-.3-.1-.5-.1-.5 0-.5-.1-.6-.3 1-1.6 1.5-2.3 2.6-4.4H127c-.3 0-.8.1-1.4.1l-.2-.8c.8.2 1.1.2 1.6.2h3.8c.7-1.5 1.2-2.5 1.5-3.9l1.8.5c.1.1.1.1.1.2 0 .2-.1.2-.9.4-.5 1.2-.7 1.7-1.3 2.8h7.1c.4-.6.6-.8 1-1.3.8.6 1 .9 1.8 1.6l.1.1c0 .1-.1.1-.2.1h-4.2c-.5 1.6-.7 2.1-1.3 3.1-.3.5-.6.9-1 1.3 1.8.6 3.3 1.3 4.2 1.8.6.3.7.6.7 1.4 0 .4-.1.7-.3.7-.1 0-.1 0-.6-.4s-2.3-1.6-3.1-2c-.5-.3-.8-.4-1.6-.8-.8.9-1.7 1.4-3 2-1.9.8-3.4 1.1-6 1.2l.3-.2zm7.3-13.3v-2.3c1.6.2 2 .3 2 .5 0 .1-.2.3-.7.4v1.5h5.3c.3-.4.4-.6.8-1 .8.6 1 .7 1.7 1.4.1.1.1.1.1.2s-.2.2-1.2.3c-1 .9-1.3 1.1-2.3 1.9l-.2-.1c.8-1.5.8-1.5 1.1-2.2h-11.9c-.1.9-.3 1.5-.6 2.1-.3.5-.8 1.1-1.1 1.1-.3 0-.6-.7-.6-1.2 0-.2.1-.3.3-.5.4-.2.8-.6 1-1 .3-.4.3-.5.8-2.2h.2c0 .7 0 1-.1 1.4h5.4zm-1.2 5.4c-.5 1.1-1.2 2.3-1.6 3.1.4.1.4.1 1.4.3.8.2 1.5.3 2.6.6 1-1.3 1.6-2.4 2.1-4H132zm-3.5 19.5v.9c0 1.8-.4 3.6-1 4.7-.4.7-.8 1.1-1.1 1.1s-.5-.6-.5-1.3c0-.3.1-.4.5-.8.5-.5 1-1.3 1.3-2.2.3-.8.4-1.4.5-2.6h.3zm1.9-.2c0-.8 0-1.7-.1-2.5 1.9.3 2.2.3 2.2.5s0 .2-.8.5v9.4c0 .3.1.3.7.4h2.5c1.5 0 1.8-.1 2-.4.2-.4.5-1.3 1.1-4.1h.2l-.2 4v.1c0 .2.1.3.4.3.4.1.5.2.5.5s-.3.5-.8.6c-.4.1-2.1.2-3.3.2-2.9 0-3.5 0-3.8-.1-.4-.1-.6-.4-.6-.9.1-1.8.1-1.9.1-2.6v-5.9zm.5-5.8c2.1.5 3.1.9 4.3 1.6.3.2.4.3.5.5.1.2.1.6.1.8 0 .5-.2.8-.4.8-.1 0-.2-.1-.5-.4-1.1-1.2-2.6-2.3-4.2-3.1l.2-.2zm7.7 5.8c2.1 2 3.2 3.6 3.2 4.6 0 .3-.1.8-.4 1.3-.2.3-.3.5-.5.5s-.3-.2-.4-.7c-.5-2.3-1.1-3.8-2.2-5.6l.3-.1z" fill="#200701"/></g></g><g><rect x=".1" width="55" height="291.8" fill="#210100"/><line x1="27.7" y1="0" x2="27.7" y2="30" fill="none" stroke="#76544b" stroke-miterlimit="10"/></g><g><path d="M25.4 67.2c-2.7 1.8-4.7 3-8.6 4.9-.1 1-.2 1.3-.4 1.3s-.4-.5-1.3-3.1c1.2-.2 2-.4 4.1-1.1 2.9-1 4.1-1.4 6-2.3l.2.3zm-8.9-10.3c1.8.7 3.4 1.5 4.4 2.3.6.5.8.9.8 1.7 0 1-.3 1.8-.7 1.8-.3 0-.4-.1-1-1.2-.9-1.6-2-2.8-3.7-4.3l.2-.3zm.4 22.2c3.8-1.4 6.5-3.1 8.4-5.3 2-2.2 3.1-5.6 3.1-9.5 0-.5 0-.8-.1-1.6 2.9.4 3.4.5 3.4.8 0 .2-.2.3-1.2.7.1 2 .5 3.5 1.4 5.4 1.7 3.8 4.5 6 8.7 7.1v.3c-1.2.3-1.5.7-2.2 2.2-1.4-.7-2-1.2-3.4-2.5-2.7-2.7-4-5.7-4.8-11-.4 3.2-.7 4.6-1.5 6.1-1.4 2.5-3.6 4.5-6.6 5.9-1.5.7-2.8 1.1-5.1 1.7l-.1-.3zm9.7-18.2c-1.3 2.4-2.6 4.1-4.7 6l-.3-.2c1.5-1.9 2.6-4.1 3.7-6.9.8-2.2 1.3-3.9 1.5-5.3 2.8.8 2.9.8 3.2 1 .1.1.3.2.3.3 0 .3-.3.4-1.5.4-.8 1.9-1.1 2.7-1.8 4h9.5c.6-.7.8-.9 1.3-1.5 1 .8 1.3 1.1 2.2 1.9.3.3.4.4.4.5 0 .3-.3.4-1.7.4-2.4 2.9-2.9 3.4-4.6 4.9l-.3-.3c1.5-2.6 1.8-3.3 2.6-5.4h-9.8zm1.1 52.7c3-.9 5-2 6.6-3.9 1.7-1.9 2.5-4.2 2.5-6.7 0-2.7-1.1-4.9-3.2-6.2-1.2-.8-3.1-1.3-4.8-1.3-.3 0-.5 0-1 .1.7 1 .9 1.5.9 2.3 0 2.2-1.6 6.3-3.7 9.7-1.8 2.8-3.1 4.2-4.2 4.2-.5 0-.9-.2-1.2-.6-.3-.3-.3-.4-.8-1.8-.3-.7-.4-1.1-1.2-2.6-.4-.9-.6-1.7-.6-2.5 0-1.8 1-3.8 2.5-5.5 2.3-2.4 6-3.9 9.6-3.9 2.8 0 5.4.9 7.2 2.6s2.7 3.9 2.7 6.6c0 3.5-2 6.6-5.6 8.5-1.6.9-3.1 1.3-5.5 1.7l-.2-.7zm-9.2-8.7c0 1.3.4 2.7 1.1 3.7.4.5.8.8 1.1.8.6 0 2-1.5 3.3-3.7 2.1-3.3 3.6-6.9 3.6-8.7 0-.4-.1-.7-.4-1.4-4.9.9-8.7 5-8.7 9.3zm-.2 31.1v16.3c0 .2-.1.3-.3.3-.2.1-.9.1-1.3.1-.3 0-.3-.1-.4-.3.1-2.4.1-6.8.1-13.9 0-7.3 0-9.8-.1-11.4.8.5 1.1.7 2 1.3H24c.5-.6.7-.7 1.1-1.3.7.6.9.7 1.5 1.3.2.2.3.3.3.4 0 .2-.2.4-.8.7v3.1c0 1.5 0 2.4.1 4.1 0 .2-.1.3-.2.4-.1.1-.8.1-1.4.1-.2 0-.3-.1-.3-.3v-.9h-6zm6-6.9h-6v2.7h6v-2.7zm0 3.4h-6v2.9h6v-2.9zm0 17.3c0 .2-.1.2-.3.3-.2.1-.9.1-1.1.1-.3 0-.3-.1-.4-.3 0-2.3.1-3.6.1-4.8 0-3.3 0-5.9-.1-7 .9.5 1.2.7 2.1 1.2h6.6c.5-.5.7-.6 1.2-1.1.6.5.8.6 1.4 1.2.3.2.3.3.3.4 0 .2-.1.3-.9.7v3.1c0 1.9 0 3 .1 5.2 0 .3-.1.3-.3.4-.2.1-.8.1-1.2.1-.3 0-.4-.1-.4-.3v-1h-7.1v1.8zm7-9.7h-7.1v3.1h7.1v-3.1zm-7 3.8v3.6h7.1v-3.6h-7.1zm7-7.9v.7c-.1.3-.3.4-1 .4s-.8-.1-.8-.4c.1-1.8.1-2.6.1-4.2 0-4 0-4.3-.1-5.3.9.5 1.2.7 2 1.2h5.9c.5-.6.7-.7 1.1-1.3.8.6 1 .7 1.7 1.3.2.2.3.3.3.4 0 .2-.1.3-.9.8v20.8c-.1 1.3-.6 1.7-3 2.2-.3-.7-.5-1-1-1.3-.3-.2-.7-.3-1.5-.4-1-.2-1.5-.3-1.6-.3v-.4c2.3.1 2.8.2 4.6.2.4 0 .5-.1.5-.4v-14h-6.3zm6.3-6.9h-6.3v2.7h6.3v-2.7zm0 3.4h-6.3v2.9h6.3v-2.9zm-22.1 45.7c1.8-2.6 3.2-5.1 4.7-8.6 1.1-2.5 1.5-4 1.9-6.1 1.1.3 2.6.7 3.1.9.2.1.3.2.3.3 0 .3-.3.4-1.4.6-1 2.8-2 4.6-3.8 7.4 2 .3 2.4.4 2.4.6 0 .2-.1.3-.9.6v7.6c0 3.7 0 3.7.1 6.9 0 .4-.3.5-1.1.6h-.6c-.3 0-.5-.1-.5-.4v-.1c.1-3.2.1-4.9.1-6.9v-8.3c-1.8 2.7-2.5 3.6-3.9 5l-.4-.1zm9.4-6.2c-.5 0-1 0-2.2.1l-.2-1c1.2.1 1.8.2 2.4.2h9.2v-4.7c0-1.4 0-1.8-.2-3 2.5.3 3.3.5 3.3.8 0 .2-.4.4-1.2.7v6.2h.8c.7-1 .9-1.2 1.6-2.1 1.1.9 1.5 1.2 2.5 2.2.1.1.1.2.1.3 0 .1-.2.3-.3.3H36v8.1c0 1.8 0 4.6.1 6.2-.1.8-.2 1.2-.8 1.6-.5.4-1 .5-3 .9-.3-1.4-.5-1.5-5-2.3v-.4c.8.1 1.6.1 2 .1 2.4.1 2.5.1 4 .2.5 0 .6-.2.6-.6V172h-9zm.3 2.7c1.5.9 2.7 1.8 4 3.1 1 1 1.3 1.4 1.3 2 0 .7-.7 1.9-1.1 1.9-.3 0-.5-.2-.7-.8-1-2.5-2.1-4.3-3.7-5.9l.2-.3zm-2.3 33.2h1.3c.6-.8.8-1 1.4-1.8 1 .8 1.2 1.1 2.2 2 .1.1.2.2.2.3 0 .1-.1.2-.3.2h-4.8v2.6c1.3.6 2.1 1.1 3 1.7 1.2.9 1.5 1.3 1.5 2.1 0 1-.3 1.8-.7 1.8-.2 0-.3-.1-.5-.5-1-2.1-1.9-3.3-3.4-4.5v12.9c0 .2-.1.3-.2.3s-1.1.1-1.5.1c-.2 0-.3-.1-.3-.3 0-1.4.1-1.7.1-3.1.1-3.7.1-4.2.1-5.7l.2-4.9c-1.7 3.7-2.9 5.3-5.8 8.5l-.3-.2c1.8-2.6 2.6-3.9 3.6-5.9.8-1.7.8-1.7 2.1-5.1h-3.4c-.5 0-1.1.1-1.7.2l-.2-1.1c.8.2 1.2.3 2.2.3H21v-4.3c-2 .4-2.8.6-4.8.8l-.2-.4c2.7-.7 4.1-1.2 6.2-2.1 1.9-.8 2.6-1.1 3.5-1.8 2.4 1.7 2.4 1.7 2.4 1.8 0 .2-.2.3-.5.3-.1 0-.5-.1-1-.1-1.6.6-2.2.7-3.8 1.1v4.8zm7.6 15.9v.1c0 .3-.3.4-.9.4H29c-.3 0-.4-.1-.4-.4.1-2.8.1-3.9.1-7.3 0-9.3 0-11.8-.1-13.6 1 .6 1.2.8 2.2 1.4h6.4c.5-.6.7-.7 1.2-1.3.7.5.9.7 1.6 1.3.2.2.3.3.3.4 0 .2-.3.4-.9.8v5.8c0 6.4 0 8.3.2 12.2 0 .4-.3.5-1.2.5h-.6c-.2 0-.3-.1-.3-.3v-1.9h-6.8v1.9zm0-2.5h6.8v-16.2h-6.8v16.2zm3.7 33.5c.6-.8.9-1 1.6-1.9 1.1.9 1.5 1.2 2.5 2.1.1.1.1.2.1.3 0 .1-.1.2-.3.2h-9.4v4.8h7.5c.7-.8 1-1.1 1.8-1.9 1.2.9 1.5 1.1 2.7 2.1.1.1.2.2.2.3s-.1.2-.2.2H18.1c-.5 0-1.9.1-2.4.2l-.3-1.1c2.1.3 2.2.3 2.7.3h8.8v-4.8h-6.5c-.6 0-1.1 0-2.3.1l-.3-1.1c.8.2 2.1.3 2.7.3H27v-1.1c0-.8 0-1.5-.1-2.8 3.1.4 3.3.5 3.3.8 0 .2-.2.3-1.2.6v2.5h5.2zm-7.3-15.3v-1.3c0-1.1 0-1.3-.1-2 2.7.3 3.3.4 3.3.7 0 .1-.1.2-.2.3-.1.1-.5.2-1.1.3v2h7.8c.6-.7.6-.7 1.3-1.5 1.1.8 1.5 1 2.5 1.8.1.1.2.2.2.3 0 .1-.1.1-.1.2-.1.1-.4.1-.7.2-.4.1-.7.1-.9.1l-.5.5c-.9.8-1 1-1.8 1.5l-.3-.2c.3-1.1.4-1.5.6-2.4h-18c-.2 1.3-.4 2.2-.9 3-.4.7-1.1 1.3-1.5 1.3s-1-1-1-1.7c0-.3.1-.4.4-.6 1.1-.8 1.4-1.1 1.8-1.8.5-.9.8-1.7.9-2.7h.4v.6c0 .4 0 .7-.1 1.2h8zm-5.7 4.8c-.8 0-1.2 0-2.2.2l-.3-1.1c.5.1.5.1 2.5.3h12.4c.6-.8.8-1 1.4-1.7 1 .8 1.3 1.1 2.4 2 .1.1.1.1.1.2s-.1.1-.2.1H27.2c-2.5 3.3-2.5 3.3-3.9 4.8 3.1-.1 5-.2 10.5-.7-1.1-1.1-1.7-1.8-3-2.9l.2-.3c1.3.5 1.8.8 3.7 2 1.3.8 2.3 1.6 2.7 2.1.3.3.4.7.4 1.1 0 1-.3 1.7-.7 1.7-.2 0-.2 0-1.5-1.8-.7-1-.8-1.1-1.1-1.5-3.2.5-5.5.9-6.2 1-2.8.4-6.9.9-9 1-.1.9-.2 1.2-.5 1.2-.4 0-.6-.8-1.1-3.1.6.1 1 .1 1.5.1h.8c.3 0 .3 0 2.5-.1 1.3-2.2 1.5-2.6 2.4-4.8h-3.7z" fill="#fff"/></g></svg>