<?xml version="1.0" encoding="utf-8"?>
<!-- Generator: Adobe Illustrator 25.2.3, SVG Export Plug-In . SVG Version: 6.00 Build 0)  -->
<svg version="1.1" id="レイヤー_1" xmlns="http://www.w3.org/2000/svg" xmlns:xlink="http://www.w3.org/1999/xlink" x="0px"
	 y="0px" viewBox="0 0 55 400.8" style="enable-background:new 0 0 55 400.8;" xml:space="preserve">
<style type="text/css">
	.st0{fill:#210100;}
	.st1{fill:none;stroke:#76544B;stroke-miterlimit:10;}
	.st2{fill:#FFFFFF;}
</style>
<g>
	<rect class="st0" width="55" height="400.8"/>
	<line class="st1" x1="27.7" y1="0" x2="27.7" y2="30"/>
</g>
<g>
	<path class="st2" d="M15.1,73.9c2.7-2.2,5.2-4.9,6.9-7.8c0.9-1.5,1.1-2.2,1.1-2.8c0-0.4-0.4-0.9-1.4-1.6c0.3-0.1,0.4-0.1,0.6-0.1
		c0.5,0,1.5,0.4,2.3,1c1,0.6,1.4,1.1,1.4,1.5c0,0.3-0.1,0.3-0.6,0.8c-0.3,0.2-0.4,0.4-0.9,1.1c-2.3,3.1-3.3,4.1-5.9,6.1
		c-1.3,1-2.1,1.5-3.3,2L15.1,73.9z M30.1,61.6c2.9,1.7,5.6,4.1,7.4,6.5c0.9,1.2,1.2,2,1.2,3c0,1.2-0.4,2.1-1.1,2.1
		c-0.4,0-0.5-0.2-0.9-1.3c-1.4-3.8-3.8-7.2-6.9-9.9L30.1,61.6z M33.6,57.6c1,0.6,1.8,1.1,2.5,1.7c1,0.9,1.4,1.6,1.4,2.2
		s-0.4,1.2-0.9,1.2c-0.4,0-0.4,0-1.3-1.8c-0.5-1-1.4-2.2-2.1-2.9L33.6,57.6z M36.4,56c1,0.4,1.8,1,2.7,1.6c1.1,0.8,1.5,1.4,1.5,2.2
		c0,0.7-0.3,1.1-0.7,1.1c-0.3,0-0.4-0.1-0.6-0.5c-1-1.8-1.5-2.5-3.1-4L36.4,56z"/>
	<path class="st2" d="M21.1,93.9c0.7,0,1.9,0.4,2.6,0.9c0.5,0.3,0.7,0.6,0.7,1c0,0.1-0.1,0.4-0.1,0.6c-0.1,0.6-0.3,2.8-0.3,4.8
		c0,0.4,0,1,0,2.1c0,0.4,0,0.6,0,1c0,0.9,0,1.2-0.1,1.5c-0.1,0.4-0.3,0.6-0.6,0.6c-0.4,0-0.7-0.3-1.1-1c-0.3-0.6-0.5-1.2-0.5-1.6
		c0-0.2,0-0.3,0.1-0.6c0.3-0.8,0.4-2.4,0.4-4.6c0-2-0.1-2.7-0.5-3.4c-0.3-0.6-0.6-0.7-1.7-1.2C20.6,93.9,20.7,93.9,21.1,93.9z
		 M24.1,115.1c2.8-1.9,4.4-3.5,5.7-5.6c1.6-2.7,2-5.1,2-11.7c0-2.8-0.1-3.7-0.5-4.2c-0.4-0.4-1-0.8-2-1c0.4-0.3,0.6-0.4,1.1-0.4
		c0.7,0,2,0.4,2.9,0.8c0.7,0.3,1,0.7,1,1.1c0,0.2,0,0.2-0.2,0.7c-0.2,0.7-0.4,2.5-0.5,6c-0.1,4.1-0.3,5.3-0.9,7
		c-1.2,3.2-4.2,6-8.3,7.7L24.1,115.1z"/>
	<path class="st2" d="M20.5,151.1c2.1-1.7,3.8-4.2,5.1-7.1c0.9-2.1,1.7-4.9,1.7-6.1c0-0.8-0.5-1.3-1.7-1.8c0.2-0.2,0.4-0.3,0.6-0.3
		c0.4,0,1.3,0.4,2.2,0.8c0.7,0.4,1,0.6,1.2,1c1.3-0.8,3.8-2.8,5-4c0.6-0.6,0.9-0.9,0.9-1.1c0-0.3-0.3-0.4-1.7-0.4
		c-1.8,0-6.6,0.8-9.7,1.5c-1.1,0.3-2,0.6-2.9,1c-0.2,0.1-0.4,0.1-0.6,0.1c-0.6,0-1.6-0.8-2.2-1.9c-0.3-0.5-0.5-1.2-0.5-1.5
		c0-0.2,0.1-0.4,0.2-0.6c0.5,1.1,1.4,1.7,2.8,1.7c1,0,1.5-0.1,6.7-0.7c0.3,0,0.9-0.1,1.9-0.2c4.3-0.5,4.6-0.6,5.2-0.8
		c0.2-0.1,0.2-0.1,0.4-0.1c0.3,0,0.8,0.3,1.5,0.8c1.2,0.9,2,1.9,2,2.4c0,0.4-0.2,0.5-1,0.8c-0.4,0.1-0.8,0.3-1.4,0.6
		c-2.3,1.3-3.6,2-6.6,3.4c-0.2,0.5-0.2,0.5-0.4,1.3c-1.3,3.8-2.4,6-4,8c-1.4,1.6-2.8,2.8-4.3,3.8L20.5,151.1z"/>
	<path class="st2" d="M21.1,187.4c4.4-3.8,6.8-6.6,9.2-10.7c1.8-3.1,3.3-6.5,3.3-7.5c0-0.3-0.1-0.4-0.6-0.4c-0.5,0-3.1,0.5-5.2,1
		c-2.1,0.5-3.9,1-5.1,1.6c-0.4,0.2-0.8,0.3-1,0.3c-0.6,0-1.3-0.6-2-1.5c-0.5-0.6-0.7-1.3-0.7-1.7c0-0.2,0-0.3,0.2-0.6
		c0.4,1.1,1.4,1.6,2.6,1.6c0.9,0,3.2-0.3,8-1.1c2.5-0.4,2.7-0.5,3.2-0.8c0.3-0.2,0.3-0.2,0.6-0.2c0.4,0,1.2,0.5,2,1.3
		c0.6,0.6,0.9,1,0.9,1.3c0,0.3-0.1,0.4-0.4,0.8c-0.4,0.4-0.5,0.6-1,1.5c-2.3,4.6-5.1,8.5-8.1,11.3c-1.8,1.6-3.4,2.8-5.8,4.2
		L21.1,187.4z"/>
	<path class="st2" d="M21.1,203.1c0.7,0,1.9,0.4,2.6,0.9c0.5,0.3,0.7,0.6,0.7,1c0,0.1-0.1,0.4-0.1,0.6c-0.1,0.6-0.3,2.8-0.3,4.8
		c0,0.4,0,1,0,2.1c0,0.4,0,0.6,0,1c0,0.9,0,1.2-0.1,1.5c-0.1,0.4-0.3,0.6-0.6,0.6c-0.4,0-0.7-0.3-1.1-1c-0.3-0.6-0.5-1.2-0.5-1.6
		c0-0.2,0-0.3,0.1-0.6c0.3-0.8,0.4-2.4,0.4-4.6c0-2-0.1-2.7-0.5-3.4c-0.3-0.6-0.6-0.7-1.7-1.2C20.6,203.1,20.7,203.1,21.1,203.1z
		 M24.1,224.3c2.8-1.9,4.4-3.5,5.7-5.6c1.6-2.7,2-5.1,2-11.7c0-2.8-0.1-3.7-0.5-4.2c-0.4-0.4-1-0.8-2-1c0.4-0.3,0.6-0.4,1.1-0.4
		c0.7,0,2,0.4,2.9,0.8c0.7,0.3,1,0.7,1,1.1c0,0.2,0,0.2-0.2,0.7c-0.2,0.7-0.4,2.5-0.5,6c-0.1,4.1-0.3,5.3-0.9,7
		c-1.2,3.2-4.2,6-8.3,7.7L24.1,224.3z"/>
	<path class="st2" d="M27,242.5c0-2-0.1-2.6-0.4-3.1c-0.3-0.4-0.8-0.7-1.5-1c0.2-0.3,0.5-0.4,0.9-0.4c0.6,0,1.6,0.3,2.5,0.8
		c0.9,0.5,1.2,0.8,1.2,1.2c0,0.3-0.1,0.4-0.4,0.9c-0.3,0.4-0.3,1.7-0.3,12.3c0,5.9-0.2,6.9-1.1,6.9c-0.3,0-0.4-0.2-0.6-0.6
		c-0.2-0.4-0.3-1.4-0.3-3.5L27,242.5z"/>
	<path class="st2" d="M22.8,280.7h1.3c0.6-0.8,0.8-1,1.4-1.8c1,0.8,1.2,1.1,2.2,2c0.1,0.1,0.2,0.2,0.2,0.3c0,0.1-0.1,0.2-0.3,0.2
		h-4.8v2.6c1.3,0.6,2.1,1.1,3,1.7c1.2,0.9,1.5,1.3,1.5,2.1c0,1-0.3,1.8-0.7,1.8c-0.2,0-0.3-0.1-0.5-0.5c-1-2.1-1.9-3.3-3.4-4.5v4.3
		c0,6.7,0,6.7,0,8.6c0,0.2-0.1,0.3-0.2,0.3c-0.1,0-1.1,0.1-1.5,0.1c-0.2,0-0.3-0.1-0.3-0.3c0-1.4,0.1-1.7,0.1-3.1
		C21,291,21,290.5,21,289l0.2-4.9c-1.7,3.7-2.9,5.3-5.8,8.5l-0.3-0.2c1.8-2.6,2.6-3.9,3.6-5.9c0.8-1.7,0.8-1.7,2.1-5.1h-3.4
		c-0.5,0-1.1,0.1-1.7,0.2l-0.2-1.1c0.8,0.2,1.2,0.3,2.2,0.3h3.3v-4.3c-2,0.4-2.8,0.6-4.8,0.8l-0.2-0.4c2.7-0.7,4.1-1.2,6.2-2.1
		c1.9-0.8,2.6-1.1,3.5-1.8c2.4,1.7,2.4,1.7,2.4,1.8c0,0.2-0.2,0.3-0.5,0.3c-0.1,0-0.5-0.1-1-0.1c-1.6,0.6-2.2,0.7-3.8,1.1V280.7z
		 M30.5,296.6c0,0.1,0,0.1,0,0.1c0,0.3-0.3,0.4-0.9,0.4c-0.3,0-0.4,0-0.5,0c0,0-0.1,0-0.1,0c-0.3,0-0.4-0.1-0.4-0.4
		c0.1-2.8,0.1-3.9,0.1-7.3c0-9.3,0-11.8-0.1-13.6c1,0.6,1.2,0.8,2.2,1.4H37c0.5-0.6,0.7-0.7,1.2-1.3c0.7,0.5,0.9,0.7,1.6,1.3
		c0.2,0.2,0.3,0.3,0.3,0.4c0,0.2-0.3,0.4-0.9,0.8v5.8c0,6.4,0,8.3,0.2,12.2c0,0.4-0.3,0.5-1.2,0.5c-0.3,0-0.4,0-0.6,0h0
		c-0.2,0-0.3-0.1-0.3-0.3c0,0,0,0,0-0.1v-1.8h-6.8V296.6z M30.5,294.1h6.8v-16.2h-6.8V294.1z"/>
	<path class="st2" d="M15.6,315.7c1.5,0.6,2.3,1,3.1,1.5c1,0.6,1.2,1,1.2,1.6c0,0.8-0.4,1.7-0.8,1.7c-0.3,0-0.4-0.2-1-1.2
		c-1.1-1.7-1.5-2.3-2.7-3.4L15.6,315.7z M15.7,325.8c1.1,0.2,1.6,0.3,1.8,0.3c0.2,0,0.5-0.3,0.7-0.6c0.4-0.8,1.2-2.4,2.3-4.6
		c0.1-0.3,0.8-1.7,1.7-3.8c0.1-0.3,0.4-0.8,0.6-1.4l0.4,0.2l-3.6,10.2c-0.2,0.7-0.3,1.3-0.3,1.7c0,0.5,0,0.6,0.5,2
		c0.2,0.7,0.3,1.4,0.3,1.9c0,0.6-0.2,1.2-0.5,1.6c-0.4,0.4-1,0.7-1.4,0.7c-0.4,0-0.6-0.3-0.6-0.7c0-0.1,0-0.3,0.1-0.8
		c0.1-1.1,0.2-2.4,0.2-3.3c0-1.3-0.1-1.7-0.4-2.1c-0.3-0.3-0.3-0.3-1.8-0.9L15.7,325.8z M17.4,309.6c1.4,0.5,2.6,1.1,3.5,1.7
		c0.8,0.5,1,0.8,1,1.4c0,0.9-0.5,1.7-0.9,1.7c-0.2,0-0.3-0.1-0.5-0.4c-0.9-1.4-1.8-2.5-3.3-4.1L17.4,309.6z M31.4,320H35
		c0.7-0.8,0.9-1.1,1.6-1.8c1,0.8,1.3,1.1,2.3,2c0.1,0.1,0.1,0.2,0.1,0.2c0,0.1-0.1,0.2-0.3,0.2h-7.4v5.2h4.9c0.7-0.8,1-1.1,1.7-1.9
		c1.1,0.9,1.4,1.2,2.5,2.2c0.1,0.1,0.1,0.2,0.1,0.2c0,0.1-0.1,0.2-0.3,0.2h-9v0.9c0,2,0.1,4,0.2,6.6c0,0.2-0.1,0.3-0.3,0.3
		c-0.2,0.1-1,0.2-1.5,0.2c-0.4,0-0.5-0.1-0.5-0.4c0.1-1.8,0.1-4.5,0.1-6.8v-0.8h-5.2c-1,0-1.9,0.1-2.4,0.2l-0.2-1.1
		c0.7,0.2,1.5,0.3,2.7,0.3h5.2v-5.2h-3.6c-0.8,0-1.5,0.1-2.2,0.2l-0.2-1.1c0.6,0.1,1.5,0.2,2.4,0.2h3.6v-4.5h-4.4
		c-0.6,0-1.2,0.1-1.7,0.1l-0.2-1c0.7,0.2,1.3,0.2,2,0.2h2.4c-0.2-0.2-0.2-0.2-0.4-1.1c-0.4-1.3-0.8-2.2-2-4l0.3-0.3
		c0.4,0.3,0.7,0.5,0.9,0.6c1.3,0.9,1.5,1,2.1,1.7c0.4,0.5,0.6,0.8,0.6,1.1c0,0.6-0.4,1.6-0.9,1.9h3.8c0.8-1.4,1.7-3.4,2.3-5.4
		c3.1,1.1,3.1,1.1,3.1,1.3c0,0.2-0.2,0.3-1.4,0.4c-1.9,2.2-2.2,2.6-3.4,3.7h3.2c0.8-0.9,1-1.1,1.8-2c1.1,0.9,1.4,1.2,2.4,2.2
		c0.1,0.1,0.1,0.2,0.1,0.2c0,0.1-0.1,0.2-0.3,0.2h-8.3V320z"/>
	<path class="st2" d="M34.2,364c0.6-0.8,0.9-1,1.6-1.9c1.1,0.9,1.5,1.2,2.5,2.1c0.1,0.1,0.1,0.2,0.1,0.3c0,0.1-0.1,0.2-0.3,0.2h-9.4
		v4.8h7.5c0.7-0.8,1-1.1,1.8-1.9c1.2,0.9,1.5,1.1,2.7,2.1c0.1,0.1,0.2,0.2,0.2,0.3s-0.1,0.2-0.2,0.2H18c-0.5,0-1.9,0.1-2.4,0.2
		l-0.3-1.1c2.1,0.3,2.2,0.3,2.7,0.3h8.8v-4.8h-6.5c-0.6,0-1.1,0-2.3,0.1l-0.3-1.1c0.8,0.2,2.1,0.3,2.7,0.3h6.5v-1.1
		c0-0.8,0-1.5-0.1-2.8c3.1,0.4,3.3,0.5,3.3,0.8c0,0.2-0.2,0.3-1.2,0.6v2.5H34.2z M26.8,348.7v-1.3c0-1.1,0-1.3-0.1-2
		c2.7,0.3,3.3,0.4,3.3,0.7c0,0.1-0.1,0.2-0.2,0.3c-0.1,0.1-0.5,0.2-1.1,0.3v2h7.8c0.6-0.7,0.6-0.7,1.3-1.5c1.1,0.8,1.5,1,2.5,1.8
		c0.1,0.1,0.2,0.2,0.2,0.3c0,0.1-0.1,0.1-0.1,0.2c-0.1,0.1-0.4,0.1-0.7,0.2c-0.4,0.1-0.7,0.1-0.9,0.1c-0.2,0.2-0.4,0.4-0.5,0.5
		c-0.9,0.8-1,1-1.8,1.5l-0.3-0.2c0.3-1.1,0.4-1.5,0.6-2.4h-18c-0.2,1.3-0.4,2.2-0.9,3c-0.4,0.7-1.1,1.3-1.5,1.3s-1-1-1-1.7
		c0-0.3,0.1-0.4,0.4-0.6c1.1-0.8,1.4-1.1,1.8-1.8c0.5-0.9,0.8-1.7,0.9-2.7h0.5c0,0.3,0,0.5,0,0.6c0,0.4,0,0.7-0.1,1.2H26.8z
		 M21.2,353.5c-0.8,0-1.2,0-2.2,0.2l-0.3-1.1c0.5,0.1,0.5,0.1,2.5,0.3h12.4c0.6-0.8,0.8-1,1.4-1.7c1,0.8,1.3,1.1,2.4,2
		c0.1,0.1,0.1,0.1,0.1,0.2c0,0.1-0.1,0.1-0.2,0.1H27.1c-2.5,3.3-2.5,3.3-3.9,4.8c3.1-0.1,5-0.2,10.5-0.7c-1.1-1.1-1.7-1.8-3-2.9
		l0.2-0.3c1.3,0.5,1.8,0.8,3.7,2c1.3,0.8,2.3,1.6,2.7,2.1c0.3,0.3,0.4,0.7,0.4,1.1c0,1-0.3,1.7-0.7,1.7c-0.2,0-0.2,0-1.5-1.8
		c-0.7-1-0.8-1.1-1.1-1.5c-3.2,0.5-5.5,0.9-6.2,1c-2.8,0.4-6.9,0.9-9,1c-0.1,0.9-0.2,1.2-0.5,1.2c-0.4,0-0.6-0.8-1.1-3.1
		c0.6,0.1,1,0.1,1.5,0.1c0.2,0,0.4,0,0.8,0c0.3,0,0.3,0,2.5-0.1c1.3-2.2,1.5-2.6,2.4-4.8H21.2z"/>
</g>
</svg>
