<?xml version="1.0" encoding="utf-8"?>
<!-- Generator: Adobe Illustrator 25.2.3, SVG Export Plug-In . SVG Version: 6.00 Build 0)  -->
<svg version="1.1" id="レイヤー_1" xmlns="http://www.w3.org/2000/svg" xmlns:xlink="http://www.w3.org/1999/xlink" x="0px"
	 y="0px" viewBox="0 0 55 230" style="enable-background:new 0 0 55 230;" xml:space="preserve">
<style type="text/css">
	.st0{fill:#210100;}
	.st1{fill:none;stroke:#76544B;stroke-miterlimit:10;}
	.st2{fill:#FFFFFF;}
</style>
<g>
	<rect class="st0" width="55" height="230"/>
	<line class="st1" x1="27.7" y1="0" x2="27.7" y2="30"/>
</g>
<g>
	<path class="st2" d="M15.3,65.3c1.2,0.2,1.8,0.2,3.7,0.2h16.5c0.8-1.1,1.1-1.4,1.9-2.4c1.4,1.1,1.9,1.5,3.2,2.7
		c0.1,0.1,0.1,0.1,0.1,0.2c0,0.1-0.1,0.2-0.3,0.2H18.9c-1.7,0-2.2,0-3.5,0.2L15.3,65.3z"/>
	<path class="st2" d="M22.1,105c0,2.5,0,4,0.1,4.5c0,0.4-0.3,0.5-1.2,0.5c-0.4,0-0.5-0.1-0.5-0.4c0.1-2.9,0.2-3.8,0.2-4.6v-2.6
		c-0.6,0.1-0.8,0.2-1.6,0.3c-0.1,2.4-0.3,3.8-0.6,5.3c-0.6,3.1-1.5,4.7-3.4,6.8l-0.3-0.3c1.4-2.2,2-4.1,2.4-7.5
		c0.2-1.3,0.3-2.2,0.3-4.1c-0.4,0.1-0.6,0.1-1.2,0.2c-0.1,0.7-0.2,1.1-0.4,1.1c-0.3,0-0.4-0.5-0.9-2.6c0.9,0,0.9,0,2.6-0.2
		c0-1.2,0-2.5,0-4.2c0-2.6,0-3.8-0.1-5.3c1,0.5,1.3,0.6,2.2,1.2h0.7c0.4-1.4,0.6-2.4,0.7-3.6c2.6,0.6,2.7,0.6,2.7,0.9
		s-0.3,0.4-1.2,0.6c-0.3,0.4-0.3,0.4-1,1.3c-0.4,0.5-0.4,0.5-0.6,0.9h2.6c0.4-0.4,0.5-0.6,0.9-1c0.6,0.4,0.8,0.6,1.4,1
		c0.2,0.2,0.3,0.2,0.3,0.4c0,0.2,0,0.2-0.8,0.7v6.2c0.5-0.1,0.8-0.1,1.4-0.3v0.4c-0.7,0.3-1,0.4-1.4,0.5v6c0,3.5,0,3.6,0,5.2
		c-0.1,0.8-0.3,1.1-1,1.5c-0.5,0.3-1,0.4-1.8,0.5c-0.4-1.3-0.6-1.4-3.4-2v-0.4c0.8,0,0.8,0,2.1,0.1c0.9,0.1,0.9,0.1,1.9,0.1
		c0.1,0,0.1,0,0.1,0c0,0,0.1,0,0.1,0c0.2,0,0.3-0.1,0.3-0.4v-10.4c-1,0.3-1.1,0.3-1.7,0.4V105z M19.2,93.9c0,3.9-0.1,5.5-0.1,7.5
		c1.8-0.2,2.8-0.3,4.6-0.6v-6.9H19.2z M20.1,95.2c1.6,1,2.7,2.3,2.7,3.1c0,0.6-0.5,1.7-0.9,1.7c-0.2,0-0.3-0.2-0.5-0.8
		c-0.3-1.3-0.6-1.9-1.6-3.7L20.1,95.2z M41.2,112.8c-1,0.2-1.6,0.7-2,1.8c-2.6-1.1-4.5-2.4-6.4-4.4c-2.6,2.5-4.7,3.7-8.1,4.7
		l-0.1-0.3c3.1-1.5,5.5-3.3,7.3-5.5c-1.5-2-2.2-3.8-2.9-6.6c-0.4,0-0.5,0.1-0.9,0.1l-0.2-0.9c-0.6,0.7-0.9,1-1.8,1.6l-0.3-0.3
		c1.1-1.2,1.7-2,2.2-3.4c0.8-1.8,1-3.7,1-6.7c0-0.8,0-1.4-0.1-2.5c1,0.4,1.3,0.6,2.1,1.1h3.1c0.3-0.5,0.5-0.7,0.9-1.1
		c0.6,0.5,0.8,0.6,1.5,1.1c0.3,0.2,0.3,0.3,0.3,0.4c0,0.1-0.2,0.3-0.9,0.7v4.9c0,0.4,0.1,0.5,0.8,0.5c0.9,0,1,0,1.1-0.4
		c0.2-0.5,0.4-1.5,1.1-4.6l0.4,0l-0.1,4.1c0,0.1,0,0.1,0,0.2c0,0.5,0,0.6,0.3,0.7c0.5,0.1,0.8,0.3,0.8,0.7c0,0.3-0.3,0.6-0.6,0.7
		c-0.5,0.1-1.1,0.2-3.2,0.2c-2,0-2.4-0.2-2.4-1.4c0-1,0-1,0-3.1v-2.9H31c-0.2,3.6-0.4,5-1.2,6.6c-0.5,1.1-1,1.9-1.8,2.8
		c0.1,0,0.2,0,0.2,0c0.6,0.1,1,0.2,1.7,0.2h5.5c0.5-0.6,0.6-0.7,1.2-1.3c0.8,0.6,0.8,0.6,1.5,1.2c0.2,0.2,0.3,0.3,0.3,0.4
		c0,0.2-0.1,0.3-1,0.7c-1,2.7-1.9,4.3-3.6,6.2c2,1.7,4.1,2.7,7.4,3.3L41.2,112.8z M29.6,102.5c0.6,2.1,1.5,3.7,3.2,5.5
		c1.2-1.7,1.8-3,2.7-5.5h-5.6H29.6z"/>
	<path class="st2" d="M22.8,134.1h1.3c0.6-0.8,0.8-1,1.4-1.8c1,0.8,1.2,1.1,2.2,2c0.1,0.1,0.2,0.2,0.2,0.3c0,0.1-0.1,0.2-0.3,0.2
		h-4.8v2.6c1.3,0.6,2.1,1.1,3,1.7c1.2,0.9,1.5,1.3,1.5,2.1c0,1-0.3,1.8-0.7,1.8c-0.2,0-0.3-0.1-0.5-0.5c-1-2.1-1.9-3.3-3.4-4.5v4.3
		c0,6.7,0,6.7,0,8.6c0,0.2-0.1,0.3-0.2,0.3c-0.1,0-1.1,0.1-1.5,0.1c-0.2,0-0.3-0.1-0.3-0.3c0-1.4,0.1-1.7,0.1-3.1
		c0.1-3.7,0.1-4.2,0.1-5.7l0.2-4.9c-1.7,3.7-2.9,5.3-5.8,8.5l-0.3-0.2c1.8-2.6,2.6-3.9,3.6-5.9c0.8-1.7,0.8-1.7,2.1-5.1h-3.4
		c-0.5,0-1.1,0.1-1.7,0.2l-0.2-1.1c0.8,0.2,1.2,0.3,2.2,0.3h3.3v-4.3c-2,0.4-2.8,0.6-4.8,0.8l-0.2-0.4c2.7-0.7,4.1-1.2,6.2-2.1
		c1.9-0.8,2.6-1.1,3.5-1.8C28,128,28,128,28,128.2c0,0.2-0.2,0.3-0.5,0.3c-0.1,0-0.5-0.1-1-0.1c-1.6,0.6-2.2,0.7-3.8,1.1V134.1z
		 M30.5,150c0,0.1,0,0.1,0,0.1c0,0.3-0.3,0.4-0.9,0.4c-0.3,0-0.4,0-0.5,0c0,0-0.1,0-0.1,0c-0.3,0-0.4-0.1-0.4-0.4
		c0.1-2.8,0.1-3.9,0.1-7.3c0-9.3,0-11.8-0.1-13.6c1,0.6,1.2,0.8,2.2,1.4H37c0.5-0.6,0.7-0.7,1.2-1.3c0.7,0.5,0.9,0.7,1.6,1.3
		c0.2,0.2,0.3,0.3,0.3,0.4c0,0.2-0.3,0.4-0.9,0.8v5.8c0,6.4,0,8.3,0.2,12.2c0,0.4-0.3,0.5-1.2,0.5c-0.3,0-0.4,0-0.6,0h0
		c-0.2,0-0.3-0.1-0.3-0.3c0,0,0,0,0-0.1v-1.8h-6.8V150z M30.5,147.5h6.8v-16.2h-6.8V147.5z"/>
	<path class="st2" d="M34.2,181c0.6-0.8,0.9-1,1.6-1.9c1.1,0.9,1.5,1.2,2.5,2.1c0.1,0.1,0.1,0.2,0.1,0.3c0,0.1-0.1,0.2-0.3,0.2h-9.4
		v4.8h7.5c0.7-0.8,1-1.1,1.8-1.9c1.2,0.9,1.5,1.1,2.7,2.1c0.1,0.1,0.2,0.2,0.2,0.3s-0.1,0.2-0.2,0.2H18c-0.5,0-1.9,0.1-2.4,0.2
		l-0.3-1.1c2.1,0.3,2.2,0.3,2.7,0.3h8.8v-4.8h-6.5c-0.6,0-1.1,0-2.3,0.1l-0.3-1.1c0.8,0.2,2.1,0.3,2.7,0.3h6.5v-1.1
		c0-0.8,0-1.5-0.1-2.8c3.1,0.4,3.3,0.5,3.3,0.8c0,0.2-0.2,0.3-1.2,0.6v2.5H34.2z M26.8,165.7v-1.3c0-1.1,0-1.3-0.1-2
		c2.7,0.3,3.3,0.4,3.3,0.7c0,0.1-0.1,0.2-0.2,0.3c-0.1,0.1-0.5,0.2-1.1,0.3v2h7.8c0.6-0.7,0.6-0.7,1.3-1.5c1.1,0.8,1.5,1,2.5,1.8
		c0.1,0.1,0.2,0.2,0.2,0.3c0,0.1-0.1,0.1-0.1,0.2c-0.1,0.1-0.4,0.1-0.7,0.2c-0.4,0.1-0.7,0.1-0.9,0.1c-0.2,0.2-0.4,0.4-0.5,0.5
		c-0.9,0.8-1,1-1.8,1.5l-0.3-0.2c0.3-1.1,0.4-1.5,0.6-2.4h-18c-0.2,1.3-0.4,2.2-0.9,3c-0.4,0.7-1.1,1.3-1.5,1.3s-1-1-1-1.7
		c0-0.3,0.1-0.4,0.4-0.6c1.1-0.8,1.4-1.1,1.8-1.8c0.5-0.9,0.8-1.7,0.9-2.7h0.5c0,0.3,0,0.5,0,0.6c0,0.4,0,0.7-0.1,1.2H26.8z
		 M21.2,170.5c-0.8,0-1.2,0-2.2,0.2l-0.3-1.1c0.5,0.1,0.5,0.1,2.5,0.3h12.4c0.6-0.8,0.8-1,1.4-1.7c1,0.8,1.3,1.1,2.4,2
		c0.1,0.1,0.1,0.1,0.1,0.2c0,0.1-0.1,0.1-0.2,0.1H27.1c-2.5,3.3-2.5,3.3-3.9,4.8c3.1-0.1,5-0.2,10.5-0.7c-1.1-1.1-1.7-1.8-3-2.9
		l0.2-0.3c1.3,0.5,1.8,0.8,3.7,2c1.3,0.8,2.3,1.6,2.7,2.1c0.3,0.3,0.4,0.7,0.4,1.1c0,1-0.3,1.7-0.7,1.7c-0.2,0-0.2,0-1.5-1.8
		c-0.7-1-0.8-1.1-1.1-1.5c-3.2,0.5-5.5,0.9-6.2,1c-2.8,0.4-6.9,0.9-9,1c-0.1,0.9-0.2,1.2-0.5,1.2c-0.4,0-0.6-0.8-1.1-3.1
		c0.6,0.1,1,0.1,1.5,0.1c0.2,0,0.4,0,0.8,0c0.3,0,0.3,0,2.5-0.1c1.3-2.2,1.5-2.6,2.4-4.8H21.2z"/>
</g>
</svg>
