<svg version="1.1" id="レイヤー_1" xmlns="http://www.w3.org/2000/svg" x="0" y="0" viewBox="0 0 201 375.9" xml:space="preserve"><g><g><path d="M175.8 156.1h-.2c-.6 0-1.1 0-1.6.1l-.1-.6c.5.1.8.1 1.7.1h12c.5-.5.6-.7 1-1.2.5.5 1 .9 1.5 1.3.1.1.1.1.1.2s-.1.1-.2.1h-8.9v4.7c0 1.7 0 2.7.1 4.2 0 .1-.1.2-.2.2-.1.1-.6.1-.9.1-.1 0-.2-.1-.2-.2.1-1.7.1-2.1.1-2.9-2.4.9-2.4.9-5 1.7-.1.6-.1.7-.3.7-.2 0-.3-.3-.7-1.8.6 0 .8-.1 1.8-.2v-6.5zm1.8-1.4c0 .2-.2.3-.8.3-.4 0-.5 0-.5-.2.1-1.3.1-1.9.1-3.5 0-1.2 0-1.5-.1-2.3.6.3.8.4 1.3.8h8.4c.3-.3.4-.5.7-.8.5.4.6.5 1.1.9.1.1.1.1.1.2s0 .1-.6.5v4c0 .2 0 .2-.1.2-.1.1-.4.1-.8.1-.2 0-.3 0-.3-.2v-.5h-8.6v.5zm-.7 3.1h3.2v-1.7h-3.2v1.7zm0 2.2h3.2v-1.8h-3.2v1.8zm0 2.6c1.5-.3 2.1-.4 3.2-.6v-1.5h-3.2v2.1zm9.3-12.5h-8.6v1.6h8.6v-1.6zm-8.6 2v1.7h8.6v-1.7h-8.6zm9.5 5.6c.3-.3.4-.4.8-.7.5.4.6.5 1.1.9l.2.2c0 .1-.1.2-.8.4-.9 1.7-1.4 2.4-2.1 3.3 1.3.9 2.3 1.3 4.2 1.7v.2c-.4.1-.6.2-.8.4-.3.3-.3.4-.4.8-1.7-.7-2.5-1.3-3.6-2.3-1.1 1-2 1.6-3.7 2.4l-.1-.2c1.3-.8 2.1-1.5 3.3-2.8-1-1.2-1.5-2.1-2.1-3.8h-.2c-.3 0-.6 0-.9.1l-.1-.6c.3.1.6.1 1 .1h4.2zm-4 .4c.5 1.1.6 1.3 1.1 1.9.4.5.7.8 1.2 1.3.8-1.1 1.1-1.7 1.6-3.2h-3.9zm3.2 18.5l1.2-1.4c.8.7 1 .9 1.8 1.6l.1.1c0 .1-.1.1-.2.1h-6.9v7.8h5.2c.5-.7.7-.9 1.2-1.5.8.7 1.1.9 1.9 1.6l.1.1c0 .1-.1.1-.1.1H176c-.6 0-1 0-1.5.1l-.1-.7c.6.1.9.1 1.6.1h5.1v-12.4c0-1 0-1.6-.1-2.2.4.1.8.1 1 .1 1 .1 1.2.2 1.2.3 0 .1-.2.2-.7.4v5.6h3.8zm-10.4 26.7v3.4c0 .2-.1.3-.2.3h-.6c-.3 0-.3 0-.3-.2v-9.2c0-5.1 0-5.6-.1-6.8.6.3.8.4 1.3.8h2c.3-.3.3-.4.6-.7.5.4.6.5 1 .9.1.2.2.3.2.3 0 .1-.1.2-.6.4-.7 1.4-1.5 2.9-2.1 3.9.8.8 1 1.1 1.3 1.5.5.7.8 1.7.8 2.6 0 .9-.3 1.8-.8 2.2-.4.3-.7.5-1.4.6-.2-.8-.3-1-1-1.2v1.2zm0-1.4c.6 0 1.1.1 1.3.1.4 0 .5-.1.6-.3.1-.3.2-.9.2-1.5 0-1.5-.4-2.6-1.5-3.7.5-1.1 1-2.8 1.4-4.4h-2.1v9.8zm6.8-7.9c.3-.4.4-.5.8-.9.6.5.7.6 1.3 1.2v.1l-.1.1h-3.3v2.8c1.1-.2 2.1-.5 3.2-.8l.1.2c-1.3.7-2.4 1.2-4.7 2 0 .4-.1.6-.3.6s-.3-.3-.6-1.6c.5 0 .6 0 1.2-.1v-6.5c1.5.2 1.8.3 1.8.4 0 .1-.2.2-.6.3v2.4h1.2zm.2 6.4c.2-.5.5-1.6.7-2.4 1.5.4 1.7.5 1.7.7 0 .1-.2.2-.6.2h-.2c-.4.6-.6.8-1.2 1.5h4c.3-.3.3-.5.6-.8.5.3.6.5 1 .8.2.1.2.2.2.3 0 .1-.2.3-.6.5v5.8c0 .1-.1.2-.2.2 0 0-.7.1-.8.1-.1 0-.2-.1-.2-.2v-1h-5.9v.8c-.1.2-.2.3-.6.3h-.4c-.2 0-.2-.1-.2-.2.1-1.5.1-1.5.1-5.7 0-.7 0-1.1-.1-1.8.6.3.8.5 1.3.8h1.4zm4.5.4h-5.9v2.1h5.9v-2.1zm-5.8 2.5v2.4h5.9v-2.4h-5.9zm4.5-8.6c.4-.3.8-.6 1.5-1.4.7-.7.8-.8 1-1.2 1.1.6 1.5.8 1.5 1 0 .1-.1.2-.3.2s-.3 0-.5-.1c-1.4.9-2.2 1.3-3.2 1.8v1.9c0 .3 0 .3.1.4.1.1.5.1 1.2.1 1 0 1.4 0 1.5-.1.1-.1.2-.2.3-.4.1-.3.1-.6.3-1 .1-.3.2-.7.4-1.3h.2l-.1 2v.3c0 .2 0 .2.2.3.3.1.3.2.3.4 0 .3-.2.5-.5.5-.2.1-1 .1-1.8.1h-1.5c-1.2 0-1.5-.2-1.5-1.1V192c0-.6 0-.8-.1-1.3 1.6.2 1.9.3 1.9.5 0 .1-.2.2-.7.3v3.2zm-4.1 31.6c1.9-.6 3.2-1.3 4.2-2.5 1.1-1.2 1.6-2.7 1.6-4.3 0-1.7-.7-3.1-2-4-.8-.5-2-.8-3.1-.8h-.6c.4.6.6 1 .6 1.5 0 1.4-1 4-2.4 6.2-1.1 1.8-2 2.7-2.7 2.7-.3 0-.6-.1-.8-.4-.2-.2-.2-.3-.5-1.2-.2-.5-.3-.7-.8-1.7-.3-.6-.4-1.1-.4-1.6 0-1.1.6-2.5 1.6-3.6 1.5-1.5 3.8-2.5 6.2-2.5 1.8 0 3.5.6 4.6 1.7 1.2 1.1 1.7 2.5 1.7 4.2 0 2.3-1.3 4.2-3.6 5.5-1 .6-2 .8-3.5 1.1l-.1-.3zm-5.9-5.6c0 .9.3 1.7.7 2.4.3.3.5.5.7.5.4 0 1.3-1 2.1-2.4 1.3-2.1 2.3-4.4 2.3-5.6 0-.3-.1-.5-.3-.9-3.1.7-5.5 3.3-5.5 6zm10.6 21.6c1.2.6 1.5.8 1.5.9s-.3.2-.9.3c-1.3.8-1.6.9-2.8 1.4.7.5 1.3.8 2.1 1.2 1.4.6 2.3.8 3.9.9v.2c-.8.2-1 .5-1.3 1.3-1.4-.4-2.2-.8-3.3-1.5-1.9-1.3-3-2.6-3.9-4.7h-1.8v4.4c1.7-.1 2.6-.2 4-.5v.2c-1.9.7-2.7.9-7 1.8-.1.5-.2.6-.3.6-.2 0-.2-.2-.7-2h.5c.3 0 1.5-.1 2.3-.2v-4.5h-2.5c-.2 1.2-.4 2.2-.8 3.2-.5 1.3-.9 2.1-1.9 3.2l-.2-.2c.7-1.2 1-2 1.2-3.3.5-2.4.6-4.4.6-11.4 0-.6 0-.8-.1-1.5.7.4.9.5 1.6.9h10.2c.3-.3.4-.5.6-.8.5.3.7.4 1.2.8.1.1.1.2.1.2 0 .1-.1.3-.6.6 0 1.1 0 1.1.1 2.7 0 .1-.1.2-.2.2-.2.1-.5.1-.8.1-.2 0-.3-.1-.3-.3v-.5h-10.5v1.4c0 1.8-.1 2.7-.3 4.1h3.4v-2.6h-1c-.6 0-1 0-1.7.1l-.1-.7c.7.1 1 .2 1.7.2h1v-.7c0-.6 0-.8-.1-1.3 1.6.1 1.9.2 1.9.4 0 .1-.1.1-.6.4v1.2h2.8v-.8c0-.5 0-.7-.1-1.2 1.6.2 1.9.2 1.9.4 0 .1-.1.2-.6.4v1.2h1.4c.4-.5.5-.6.8-1.1.7.5 1 .7 1.7 1.3 0 .1.1.1.1.1 0 .1-.1.1-.2.1h-3.8v2.6h2.1c.4-.5.5-.7.9-1.2.8.5 1 .7 1.8 1.3.1.1.1.1.1.2s-.1.1-.2.1h-2.9zm.6-8.5h-10.4v2.3h10.5v-2.3zm-6.1 8.1h2.8v-2.6h-2.8v2.6zm1.3.4c.4 1 .8 1.6 1.8 2.3 1.3-.9 1.7-1.3 2.4-2.3h-4.2zm-2 13.3c.4-.5.5-.6.8-1.1.6.5.8.7 1.3 1.2l.1.1c0 .1-.1.1-.2.1h-5.6v3.8c0 .3 0 .3.1.4.2.1.7.1 1.5.1 1 0 1.6 0 1.8-.1.2-.1.3-.1.3-.1.3 0 .8.5.8.8 0 .3-.5.3-2.8.3-1.4 0-2.1-.1-2.4-.2-.3-.1-.4-.4-.4-1.1v-4h-.4c-.4 0-.6 0-1.2.1l-.1-.7c.6.1.9.2 1.3.2h2.3v-1.2c0-.3 0-.5-.1-1.1 1.8.2 2 .3 2 .4 0 .1-.2.2-.7.4v1.4h1.6zm2.1 10.3h3.5c.4-.5.5-.6 1-1.1.5.4 1 .8 1.4 1.3.1 0 .1.1.1.1 0 .1-.1.1-.2.1h-5.8v2.3h5c.5-.5.6-.7 1.1-1.2.7.6 1 .8 1.6 1.4l.1.1c0 .1-.1.1-.2.1h-14.3c-.5 0-.8 0-1.6.1l-.1-.7c.5.1 1.1.2 1.7.2h5.5v-2.3h-3.7c-.6 0-.9 0-1.6.1l-.1-.7c.5.1 1 .2 1.7.2h3.8v-2.1H177c-.6 0-.9 0-1.5.1l-.1-.7c.5.1 1 .2 1.7.2h10.4c.3-.4.6-.7.9-1.1.6.5.8.7 1.5 1.2 0 .1.1.1.1.1 0 .1-.1.1-.2.1H183v2.2zm1.3-6.6c-.3.8-.6 1.4-1.2 2-.6.7-1 1.1-2 1.6l-.2-.2c.9-.7 1.4-1.4 2-2.6.6-1.4 1.1-4.3 1.1-6.4.6.3.8.4 1.4.8h3.2c.3-.4.4-.5.7-.8.5.3.6.5 1 .8.1.1.2.2.2.3 0 .1-.1.2-.6.5-.3 2.5-.7 4.9-1 5.9-.3.9-.7 1.2-2 1.4-.2-.4-.3-.6-.6-.8-.2-.1-.2-.1-1.4-.4v-.3c1.3.1 2.1.2 2.4.2.6 0 .6-.1 1-2h-4zm.6-2.2c-.2.9-.3 1.2-.4 1.8h3.8c.1-.8.2-.9.3-1.8h-3.7zm3.7-.5c.1-.7.1-.9.2-1.8h-3.6c-.1.9-.1 1.1-.3 1.8h3.7zm-2 29.6c.4-.5.6-.7 1-1.2.7.6.9.8 1.6 1.4.1.1.1.1.1.2s-.1.1-.2.1h-6v3.1h4.8c.5-.5.6-.7 1.1-1.2.8.6 1 .7 1.7 1.3.1.1.1.1.1.2s-.1.1-.1.1h-14.6c-.3 0-1.2.1-1.5.1l-.2-.7c1.4.2 1.4.2 1.7.2h5.7v-3.1h-4.2c-.4 0-.7 0-1.5.1l-.2-.7c.5.1 1.4.2 1.7.2h4.2v-.7c0-.5 0-.9-.1-1.8 2 .3 2.1.3 2.1.5 0 .1-.1.2-.8.4v1.6h3.6zm-4.7-9.9v-.8c0-.7 0-.8-.1-1.3 1.7.2 2.1.3 2.1.5 0 .1-.1.1-.1.2-.1 0-.3.1-.7.2v1.3h5c.4-.4.4-.4.8-.9.7.5 1 .6 1.6 1.2.1.1.1.1.1.2 0 0 0 .1-.1.1s-.2.1-.5.1c-.2 0-.4.1-.6.1l-.3.3c-.6.5-.6.6-1.1 1l-.2-.1c.2-.7.3-1 .4-1.5h-11.6c-.1.9-.3 1.4-.6 1.9s-.7.8-1 .8c-.3 0-.6-.7-.6-1.1 0-.2.1-.3.3-.4.7-.5.9-.7 1.1-1.2.3-.6.5-1.1.6-1.7h.3v1.2h5.2zm-3.7 3.1c-.5 0-.8 0-1.4.1l-.2-.7c.3 0 .3 0 1.6.2h8c.4-.5.5-.6.9-1.1.6.5.9.7 1.6 1.3l.1.1c0 .1-.1.1-.1.1h-6.6c-1.6 2.1-1.6 2.1-2.5 3.1 2-.1 3.2-.1 6.8-.5l-1.9-1.9.1-.2c.8.3 1.2.5 2.4 1.3.8.5 1.5 1 1.7 1.3.2.2.3.4.3.7 0 .6-.2 1.1-.5 1.1-.1 0-.1 0-1-1.2-.5-.6-.5-.7-.7-1-2.1.3-3.5.6-4 .6-1.8.3-4.4.6-5.8.6 0 .6-.1.8-.3.8-.3 0-.4-.5-.7-2 .4 0 .6.1 1 .1h2.1c.8-1.4 1-1.7 1.5-3.1h-2.4zm-40.4-114.5c2.1-1.4 3-2.6 3.4-4.5-.4.3-.7.4-1.2.4-1.3 0-2.2-1.1-2.2-2.6 0-1.6 1-2.8 2.3-2.8.3 0 .5.1 1 .3v-2.3c-1.4.1-3.1.5-4.5.9-.5.1-.8.3-1.2.5-.1 0-.3.1-.4.1-.3 0-.7-.3-1.2-.7-.4-.4-.7-1-.7-1.3 0 0 0-.1.1-.2.5.6 1 .9 1.7.9.4 0 .8 0 1.5-.2 2.1-.3 2.8-.4 4.6-.6 0-1.1-.1-1.6-.2-2-.2-.5-.6-.8-1.5-.9.2-.3.3-.3.8-.3.6 0 1.2.1 1.7.3.4.1.7.4.7.6 0 .1 0 .2-.2.5-.2.4-.3.9-.4 1.7.5-.1.5-.1 1.2-.1 1.7-.1 1.9-.2 2.4-.3.5-.2.5-.2.7-.2.4 0 1.1.3 1.5.7.2.2.3.3.3.5s-.1.3-.4.3c-.1 0-.2 0-1-.1-.9-.1-1.7-.2-2.8-.2-.7 0-1.2 0-1.9.1-.1.7-.1 1.8-.1 2.4v.6c.4.9.6 1.5.6 2.4 0 1.8-.7 3.4-1.9 4.6-.7.6-1.6 1.2-2.7 1.7v-.2zm2.3-9.1c-.8 0-1.4.8-1.4 1.9 0 1.1.6 2 1.5 2 .8 0 1.2-.6 1.2-1.7-.2-1.5-.5-2.2-1.3-2.2zm-6.2 22.9c.4 0 .4 0 2.2-1.8 1.4-1.4 2.1-1.9 2.8-1.9.8 0 1.3.4 3.1 2 2.4 2.2 4 3.3 5.3 3.9.4.1.5.3.7.7.2.3.3.8.3 1.1 0 .2-.2.4-.4.4-.3 0-.9-.3-1.6-.8-1.2-.8-2.9-2.4-4.8-4.4-1.6-1.7-2.2-2.1-2.8-2.1-.5 0-1 .4-1.9 1.7-.5.7-.6.8-1 1.6-.3.5-.3.5-.3.6-.2.4-.2.4-.3.5-.1.1-.3.1-.4.1-.8 0-2.2-1.3-2.2-2.1l.1-.3c.4.4.9.8 1.2.8zm9.2-5.9c.7.4 1.2.7 1.6 1.1.6.6.9 1 .9 1.4 0 .4-.3.8-.6.8-.2 0-.2 0-.8-1.2-.3-.6-.9-1.4-1.4-1.9l.3-.2zm1.8-1.1c.6.3 1.2.6 1.7 1 .7.5.9.9.9 1.4 0 .4-.2.7-.5.7-.2 0-.3-.1-.4-.3-.6-1.1-1-1.6-2-2.6l.3-.2zM133.6 195c.3.2.5.3.8.3.5 0 1-.1 5-1.1.8-.2 1.7-.4 2.9-.6 1.4-.3 1.9-.4 2.4-.6.4-.1.5-.1.6-.1.2 0 .6.2 1 .4s.5.4.5.7c0 .3-.2.5-.6.5h-.8c-3.1 0-6 2.9-6 6 0 1.7.8 2.9 2.4 3.5.6.3 1.3.4 1.8.4.4 0 .5.1.8.3.3.3.5.6.5.9 0 .3-.3.5-.7.5-1 0-2.6-.6-3.7-1.3-1.4-1-2.1-2.4-2.1-4 0-1.5.7-3.1 2-4.4.7-.8 1.4-1.3 2.9-2.1-1.6.2-3.1.6-5.2 1.2-1.1.4-2.3.8-2.9 1.2-.4.2-.5.3-.7.3-.4 0-1-.4-1.4-1.1-.3-.4-.5-.9-.5-1.2 0-.1 0-.3.2-.5.4.3.5.5.8.8zm2.1 23.7c0 .2-.3.3-.9.3-.3 0-.4 0-.4-.2 0-1 .1-2.9.1-3.9v-3.2c.6.4.8.5 1.4 1h8.6c.4-.4.5-.5.8-.9.5.4.6.5 1.1.9.1.1.2.2.2.3 0 .1-.1.1-.6.5v5.1c-.1.3-.3.4-.9.4-.3 0-.4-.1-.4-.2v-.4h-1.5v2.1h1.7c.5-.5.6-.7 1.1-1.2.7.5.9.7 1.6 1.2.1.1.1.2.1.2 0 .1-.1.1-.2.1h-4.4v2.3h2.4c.5-.6.6-.7 1.2-1.3.7.6.9.7 1.6 1.4.1.1.1.2.1.2 0 .1-.1.1-.2.1h-14c-1 0-1.2 0-1.8.1l-.1-.7c.6.1.9.2 1.9.2h3v-2.3h-2.5c-.7 0-.9 0-1.5.1l-.1-.6c.6.1 1 .1 1.7.1h2.4v-2.1h-1.5v.4zm-3.3 9.1c1.5-.7 2.5-1.3 3.6-2.1.7-.5 1-.8 1.4-1.3 1.4.5 1.7.7 1.7.8 0 .1-.2.2-.4.2h-.5c-1.9 1.4-3.2 2-5.8 2.7v-.3zm7.1-14.7h-3.9v2.2h3.9v-2.2zm0 2.6h-3.9v2.2h3.9v-2.2zm-1.1 4.7h3.7v-2.1h-3.7v2.1zm0 .4v2.3h3.7v-2.3h-3.7zm6.3-5.5v-2.2h-4v2.2h4zm-4 2.6h4v-2.2h-4v2.2zm1.1 6.6c2.8.6 4.1 1.1 4.7 1.5.4.3.6.8.6 1.4 0 .4-.1.7-.3.7-.1 0-.2-.1-.4-.3-.9-.9-2.6-2.1-4.7-3l.1-.3zm-8.3 11.8c.9.8 1.4 1 2.3 1 .5 0 1-.1 1.6-.2.5-1.2.6-1.9.6-2.6 0-.6-.3-1-1.2-1.4.2-.1.3-.1.4-.1.4 0 .9.2 1.4.4.6.3.8.5.8.8 0 .1 0 .3-.2.5-.1.1-.5.9-1.1 2.2 1.3-.5 1.5-.6 2-1 .1-.1.2-.1.4-.1.7 0 1.2.2 1.2.5 0 .5-1.1.9-4 1.6-.2.4-.5 1.1-1 2.2-.5 1.2-1.9 4.3-2.1 4.6-.3.5-.4.6-.6.6-.3 0-.6-.6-.6-1.3 0-.4 0-.5.2-.6.4-.4.6-.7.9-1.1.9-1.3 1.5-2.5 2.3-4.2-.4.1-.6.1-.8.1-.6 0-1.1-.1-1.6-.4-.5-.3-1-.7-1.3-1.3l.4-.2zm9.5 1c1.2.1 2.3.4 3.1 1 .7.5 1.1 1 1.1 1.4 0 .3-.2.5-.5.5-.1 0-.3 0-.4-.1-.5-.3-.8-.4-1.8-.4-1.4 0-1.9.4-1.9 1.6 0 .5.1 1.3.4 3.1 1.1.3 2 .8 2.6 1.2.5.4.7.8.7 1.4 0 .4-.1.6-.4.6-.2 0-.3-.1-.6-.5-.6-.7-1.2-1.1-2.2-1.6v.3c0 .7-.1 1.1-.5 1.5-.5.5-1.3.8-2.3.8-1.6 0-2.7-.8-2.7-1.9 0-1.3 1.4-2.1 3.4-2.1.4 0 .6 0 1.1.1-.1-1.4-.1-1.6-.1-1.8 0-1.5.1-2 .6-2.6.4-.4.9-.6 1.7-.8.3-.1.3-.1 1-.2-.5-.5-1-.8-2.3-1.2v-.3zm-1 7.8c-.6-.2-1-.2-1.5-.2-1.5 0-2.5.5-2.5 1.4 0 .7.7 1.1 1.8 1.1 1.5 0 2.2-.6 2.2-1.7v-.6zm-.4 10.8c-.7.2-2.4.9-3.6 1.4-.4.2-.6.2-.7.2-.3 0-.7-.3-1-.8-.3-.5-.5-1-.5-1.3 0-.2 0-.3.2-.5.3.8.8 1.3 1.4 1.3.5 0 2.2-.4 3.4-.8.7-.2.7-.2 1.1-.6.1-.1.2-.1.3-.1.2 0 .5.2 1 .6.4.4.5.6.5.8 0 .1-.1.2-.3.3-.5.3-.7.4-1.5 1.2-1.1 1.1-1.8 1.8-2.6 2.7-1.7 1.9-1.7 1.9-2.1 2.2 1.9-1.2 3.4-1.7 4.9-1.7 2.3 0 3.9 1.4 3.9 3.4 0 2.6-2.4 4.5-5.7 4.5-1.8 0-2.9-.7-2.9-1.8 0-.9.8-1.5 1.9-1.5.9 0 1.7.3 2.3.9.3.3.5.6.8 1.1 1.4-.6 2.2-1.8 2.2-3.4 0-1-.4-1.8-1.1-2.2-.4-.2-1.1-.4-1.8-.4-1.8 0-4.2 1.4-5.7 3.3-.3.4-.4.5-.6.5-.3 0-.6-.6-.6-1.2 0-.2.1-.4.4-.6.7-.5 1-.8 2.5-2.5 2.2-2.5 2.9-3.3 4.3-5.1.1-.2.1-.2.2-.3h-.2c-.2.3-.2.3-.4.4zm-2.7 10.3c-.7 0-1.1.4-1.1.9 0 .7.8 1.1 2.1 1.1.5 0 .7 0 1.3-.2-.5-1.1-1.3-1.8-2.3-1.8zm-7 23.6c1.4-1.3 2.4-2.8 3.4-4.9.5-1 1-2.3 1.2-3.2.1-.2.1-.3.1-.7 1.9.6 2.1.7 2.1.8 0 .2-.3.3-.9.3-.9 2.2-1.5 3.3-2.5 4.6-1 1.4-1.9 2.2-3.4 3.2v-.1zm13.5-11.1c.4-.6.6-.8 1-1.4.9.6 1.1.8 1.9 1.5l.1.1c0 .1-.1.1-.2.1h-13.7c-1.3 0-1.5 0-2.4.1l-.1-.7c.9.2 1.5.2 2.5.2h4.8V276c0-.9 0-1.1-.1-1.6 1 .1 1.9.3 2 .3.1 0 .1.1.1.2 0 0-.1.1-.1.2-.1.1-.2.2-.6.3v3.2h4.8zm-3.8 2.6c1.2.9 1.9 1.6 3.3 3.1 1.2 1.3 2 2.3 2.3 3 .1.3.2.5.2.8 0 .8-.3 1.6-.6 1.6-.1 0-.2-.1-.3-.4-.4-.9-1.2-2.4-2.1-3.9-1.1-1.8-1.8-2.8-2.9-4l.1-.2zm-1.8 21.1c.4-.5.5-.7.9-1.1.6.5.8.7 1.4 1.3.1.1.1.1.1.2s-.1.1-.2.1h-8.7c-.5 0-.6 0-1.3.1l-.1-.6c.6.1.9.1 1.4.1h4.1c.6-1.5 1.1-2.8 1.3-4 1.7.5 1.9.5 1.9.7s-.3.3-.8.3c-.7 1.2-1.3 2.1-2 3h2zm-.3-4.8c.4-.5.6-.6 1-1.1.6.5.8.7 1.3 1.2.1.1.1.1.1.2s-.1.1-.2.1H134c-.6 0-.9 0-1.4.1l-.1-.6c.5.1 1 .1 1.5.1h2.3v-1.1c0-.5 0-.7-.1-1.3 1.7.1 1.9.2 1.9.4s-.2.3-.7.4v1.6h2.1zm-4.7 13.3c0 .3-.2.3-.9.3-.3 0-.4 0-.4-.2.1-1.5.1-2.8.1-4.7 0-.6 0-.6-.1-2.3.6.4.8.5 1.3.9h4.2c.3-.3.3-.5.6-.8.5.3.6.5 1.1.8.1.1.1.2.1.2 0 .1-.1.2-.5.4v5.2c0 .2-.2.3-.9.3-.3 0-.4 0-.4-.2v-.8h-4.3v.9zm-1.1-12.5c1.4 1.1 2.1 1.9 2.1 2.4s-.5 1.2-.8 1.2c-.1 0-.2-.1-.2-.3-.3-1.4-.6-2.2-1.3-3.2l.2-.1zm1.1 11.2h4.3v-4.2h-4.3v4.2zm8.7-1.4v3.1c0 .1 0 .2-.1.2-.1.1-.5.1-.8.1-.3 0-.3 0-.4-.2.1-2.8.1-7.8.1-11.6 0-2.2 0-2.8-.1-4 .6.3.8.4 1.4.8h2.8c.3-.5.3-.5.6-.9.6.4.7.6 1.3 1 .1.1.2.2.2.3 0 .2-.2.3-.6.3-.8 1.6-1.4 2.6-2.8 4.7 1 .7 1.5 1.2 2 1.9.7.9 1 1.7 1 2.8 0 1-.2 1.7-.7 2.2-.4.4-.8.6-1.7.8-.1-.7-.4-1-1.7-1.4v-.3c.3 0 .6.1.8.1.7.1 1.1.1 1.2.1.3 0 .5-.1.6-.2.2-.2.3-.7.3-1.5 0-1-.1-1.6-.5-2.2-.4-.8-.8-1.2-1.7-2.2.9-2 1.3-3.2 1.8-5.1h-2.9v11.2zm-2.9 14.3c-.8 1.3-1.4 2-2.1 2.7 1.9-.1 3-.1 5.6-.3-.6-.5-.9-.8-1.7-1.3l.1-.2c1.7.6 2.7 1.1 3.4 1.6.4.3.6.6.6 1.1s-.2.8-.4.8c-.1 0-.2 0-.6-.6-.2-.3-.5-.6-1-1-2.9.6-5.3.9-7.9 1.2-.1.6-.1.7-.3.7-.2 0-.2 0-.6-1.9.5 0 .6.1 1.1.1h1.3c.5-.9.9-1.8 1.1-2.7h-4c-.1 2.2-.3 3.3-.7 4.9-.4 1.4-.9 2.8-1.4 3.6-.3.5-.4.6-.9 1.3l-.3-.2c.6-1 .7-1.4 1-2.4.5-1.6.8-3.8.8-5.9.1-1.2.1-2.5.1-4.2 0-1.6 0-2.4-.1-3.5.7.4 1 .5 1.6 1h10c.3-.4.4-.5.7-.9.5.3.6.5 1.1.8.1.1.1.1.1.2 0 0-.1.1-.1.2s-.1.1-.2.1-.1.1-.3.2v3.1l-.2.2c-.3.1-.6.1-.8.1-.2 0-.2 0-.3-.1v-.5H135v1.8h10.4c.5-.5.6-.6 1.1-1 .6.5.8.7 1.4 1.2.1 0 .1.1.1.1 0 .1-.1.1-.2.1h-7.2zm-.4 4.9c0-.3 0-.6-.1-1.1 1 .1 1.8.2 2 .3.1 0 .1.1.1.2 0 .2-.2.3-.7.4v1.3h3.2c.5-.5.6-.7 1.1-1.2.7.6.9.7 1.6 1.4v.1c0 .1-.1.1-.1.1h-5.8v2.5h4c.5-.5.7-.7 1.1-1.3.8.6 1 .8 1.7 1.4.1.1.1.1.1.2s-.1.1-.2.1h-12.4c-.4 0-1.1 0-1.9.1l-.2-.7c.7.1 1.4.2 2 .2h4.5v-2.5H137c-.3 0-1.4.1-1.7.1l-.1-.7c.5.1 1 .2 1.8.2h3.2v-1.1zm5.3-10h-10.3v2.4h10.3v-2.4z" fill="#200701"/></g></g><g><rect x="6.4" y="8.1" width="55" height="362.8" fill="#210100"/><line x1="34.1" y1="8.1" x2="34.1" y2="38.1" fill="none" stroke="#76544b" stroke-miterlimit="10"/></g><g><path d="M29.2 70.4h1.3c.6-.8.8-1 1.4-1.8 1 .8 1.2 1.1 2.2 2 .1.1.2.2.2.3 0 .1-.1.2-.3.2h-4.8v2.6c1.3.6 2.1 1.1 3 1.7 1.2.9 1.5 1.3 1.5 2.1 0 1-.3 1.8-.7 1.8-.2 0-.3-.1-.5-.5-1-2.1-1.9-3.3-3.4-4.5v12.9c0 .2-.1.3-.2.3s-1.1.1-1.5.1c-.2 0-.3-.1-.3-.3 0-1.4.1-1.7.1-3.1.1-3.7.1-4.2.1-5.7l.2-4.9c-1.7 3.7-2.9 5.3-5.8 8.5l-.3-.2C23.2 79.3 24 78 25 76c.8-1.7.8-1.7 2.1-5.1h-3.4c-.5 0-1.1.1-1.7.2l-.2-1.1c.8.2 1.2.3 2.2.3h3.3V66c-2 .4-2.8.6-4.8.8l-.2-.4c2.7-.7 4.1-1.2 6.2-2.1 1.9-.8 2.6-1.1 3.5-1.8 2.4 1.7 2.4 1.7 2.4 1.8 0 .2-.2.3-.5.3-.1 0-.5-.1-1-.1-1.6.6-2.2.7-3.8 1.1v4.8zm7.7 15.9v.1c0 .3-.3.4-.9.4h-.6c-.3 0-.4-.1-.4-.4.1-2.8.1-3.9.1-7.3 0-9.3 0-11.8-.1-13.6 1 .6 1.2.8 2.2 1.4h6.4c.5-.6.7-.7 1.2-1.3.7.5.9.7 1.6 1.3.2.2.3.3.3.4 0 .2-.3.4-.9.8v5.8c0 6.4 0 8.3.2 12.2 0 .4-.3.5-1.2.5h-.6c-.2 0-.3-.1-.3-.3v-1.9h-6.8v1.9zm0-2.5h6.8V67.6h-6.8v16.2zm-15.5 40.6c1.7-2.8 2.4-4.6 2.9-7.5.4-2.4.7-5.7.7-10.3 0-4.1-.1-5.9-.2-7.4 1.1.5 1.4.7 2.4 1.3h13.9c.4-.5.5-.7 1-1.2.9.6 1.1.8 1.9 1.4.1.1.1.2.1.2 0 .2-.3.4-1.1.8v3.8c0 4.1.2 7.5.6 9.7.4 2.1.8 3.1 1.9 4.8.5-1.4.7-2.2 1.4-4.7l.4.1-.4 5c0 .4 0 .4-.1.9 0 .2.1.4.4.8.3.4.4.6.4 1 0 .5-.3.8-.8.8-.6 0-1.2-.4-2-1.3-2-2.2-3-4.9-3.4-8.7-.3-2.7-.4-6.4-.4-9.6 0-1 0-1.7.1-3.1H26.9c0 1.5 0 1.5-.1 8 0 4.7-.6 8-2 11.1-.8 1.8-1.5 2.7-3.1 4.5l-.3-.4zm13.5-9.4v4.6c1.8-.3 1.8-.3 3.7-.7-.4-.7-.6-.8-1.6-2.3l.3-.2c1.3.9 2.1 1.5 3 2.4 1 1 1.4 1.5 1.4 2.1 0 .5-.3 1.3-.5 1.7-.1.1-.3.2-.4.2-.3 0-.4-.1-.8-1.1-.3-.7-.4-1.1-1-2.1-2.3.7-7.7 2.3-10.4 3-.1.6-.3 1-.4 1-.3 0-.4-.3-1.2-2.8 1.6-.1 4.7-.5 6.3-.9V115h-3v1.1c0 .2-.1.3-.2.3s-1 .1-1.3.1c-.2 0-.3-.1-.3-.3.1-1 .1-1.7.1-2.8 0-2.7-.1-5.2-.1-6 .9.4 1.2.6 2.1 1.2h2.8v-3.2c-2 .3-3.2.4-5.1.6l-.1-.4c2.2-.4 4.5-1 6.7-1.7 1.6-.5 2.5-.9 3.2-1.5.4.3.8.5 1 .6.8.6 1.3.9 1.3 1.1 0 .1-.2.3-.4.3-.1 0-.1 0-.6-.1-.4-.1-.4-.1-.8-.1-3.1.8-3.1.8-3.6.9v3.5h2.8c.4-.5.5-.6 1-1.1.8.6 1 .7 1.6 1.3.1.1.2.2.2.3 0 .1-.2.3-.9.7 0 .7 0 .7.1 3.1v2.7c0 .2-.1.3-.3.3-.3.1-.7.1-.9.1-.3 0-.4-.1-.5-.3v-.7h-3.2zm-1.7-5.8h-3v5.1h3v-5.1zm4.7 0h-3v5.1h3v-5.1zm-12.1 30.6c1.2 1 2 1.3 3.1 1.3 1.7 0 4.1-.4 6.3-1.1 1.6-.5 2.2-.7 3-1.2.2-.1.4-.2.6-.2.9 0 2.2.8 2.2 1.3 0 .4-.6.6-2 1-3.4.7-5.7 1.1-7.3 1.2 1.4.7 1.8 1.1 1.8 1.8 0 .2 0 .2-.1.8-.1.5-.3 1.4-.3 2.4 1.5-.2 6.1-.9 6.6-1 .8-.1 1.4-.3 1.8-.5.2-.1.4-.1.6-.1.4 0 1.2.3 1.8.6.6.3.9.8.9 1.1s-.3.5-.9.5h-.3c-.5 0-1.8-.1-2.6-.1-2.5 0-4.2.1-8 .6-.1 1.7-.1 2.4-.1 3.1 0 2 .1 2.7.4 3.2.3.6 1 .9 2.3.9 1.9 0 3.7-.3 4.9-.7.1 0 .2-.1.3-.1.3 0 .9.2 1.3.6s.7.6.7 1-.3.6-.8.7c-.9.2-2.6.3-3.9.3-3.6 0-5.2-.5-5.9-1.9-.5-.9-.7-1.9-.8-3.9v-3.1c-2.1.3-4.2.8-5.2 1.2-.3.2-.5.2-.7.2-.4 0-.8-.2-1.3-.6-.7-.6-1.4-1.7-1.4-2.3 0-.2.1-.3.2-.5.7 1.1 1.5 1.5 2.5 1.5.8 0 2.2-.1 5.8-.7v-.9c0-3.2-.1-3.7-.7-4.3H30c-1.5 0-2.6-.3-3.4-1-.4-.3-.6-.6-1.2-1.3l.4.2zm-1.2 56.3c4-2.5 7.4-5.6 9.9-9-.4-.1-.6-.2-1.2-1.1-1.1-1.7-2.2-2.9-3.9-4.2-1.7 1.7-3.5 3.2-5.2 4.2l-.3-.4c2-1.7 3.7-3.5 5.4-5.8 1.8-2.4 2.8-4.1 2.8-4.9 0-.6-.5-1.1-1.8-1.7.3-.1.4-.1.6-.1.6 0 1.7.3 2.5.8.8.4 1.1.8 1.1 1.2 0 .4-.3.8-1.3 2.2.3.1.5.1.8.1.6 0 1.6-.2 3.7-.6 1.4-.3 1.7-.4 2.2-.8.1-.1.3-.1.4-.1.6.1 2.2 1.7 2.2 2.3 0 .2-.1.3-.4.6-.3.3-.5.5-.9 1.3-2.8 5.2-5.8 9-9.4 12-2.4 2-5.1 3.7-7.2 4.5v-.5zm10.8-17.6c-.5.2-.6.2-.9.2-.5 0-1-.2-1.7-.8-1 1.3-1.9 2.4-3 3.5 2.5 1.1 3.3 1.5 4.3 2.4.8.9 1.1 1.5 1.2 2.3 1.8-2.4 4.1-6.5 4.8-8.7-1 .1-2.6.5-4.7 1.1zm6-6.3c1 .6 1.8 1.1 2.4 1.7 1 .9 1.4 1.6 1.4 2.2s-.3 1.2-.8 1.2c-.4 0-.4 0-1.3-1.8-.5-1-1.4-2.2-2.1-2.9l.4-.4zm2.7-1.6c1 .5 1.8 1 2.7 1.6 1.1.8 1.4 1.4 1.4 2.2 0 .7-.3 1.1-.7 1.1-.3 0-.4-.1-.6-.6-1-1.8-1.5-2.5-3.1-4l.3-.3zm-18.8 42.2c2.7.7 4.3 1.3 5.4 2.1.6.4 1 1.1 1 1.9 0 .9-.3 1.6-.8 1.6-.3 0-.4-.1-1.2-1.1-1.4-1.8-2.4-2.7-4.6-4.1l.2-.4zm19.9 1.6c-1.4 2.6-3.1 4.8-5.9 7.5-2.6 2.5-4.3 3.9-7.9 6.4-1.3.9-1.5 1-1.7 1.3-.4.5-.6.7-1 .7-1.1 0-3.3-2.7-3.3-4.1 0-.2 0-.3.1-.6.6.8.6.9 1 1.2.4.4.8.6 1.1.6.5 0 1.3-.4 2.7-1.2 3.1-1.8 4.2-2.6 6.7-4.6 3.4-2.8 5.1-4.5 7.5-7.5l.7.3zm-22.4 52.4c1.5-1.4 2.7-3.1 3.8-5.3 1.1-2.2 1.9-5.7 1.9-7.6 0-1.1-.5-1.7-1.9-2.2.3-.2.4-.3.8-.3.6 0 1.3.2 2.1.7 1 .6 1.5 1.1 1.5 1.5 0 .2-.1.4-.4 1.3 0 .1 0 .1-.3 1-.9 2.9-1.1 3.6-1.9 5.2-1.3 2.7-2.9 4.5-5.3 6l-.3-.3zm23.9-11.2c-.9 1.5-1.6 2.4-3.1 3.9-1.6 1.7-4.2 4-5.9 5.1-.5.4-1.3 1-1.6 1.3-.2.2-.4.3-.6.3-.6 0-1.7-1.5-1.7-2.3 0-.1.1-.3.2-.9.2-.6.3-3.1.3-7.6 0-6.4-.1-6.7-2.2-7.2.3-.3.5-.4.9-.4.7 0 1.5.3 2.5.9.8.5 1.1.9 1.1 1.3 0 .1 0 .3-.2.8-.1.4-.3 1.3-.4 2.7-.1 1.2-.4 7.4-.4 8.4 0 .4 0 .7.1 1.3 3.2-1.3 7.4-4.4 10.6-7.9l.4.3zM33.4 287c0-2-.1-2.6-.4-3.1-.3-.4-.8-.7-1.5-1 .2-.3.5-.4.9-.4.6 0 1.6.3 2.5.8.9.5 1.2.8 1.2 1.2 0 .3-.1.4-.4.9-.3.4-.3 1.7-.3 12.3 0 5.9-.2 6.9-1.1 6.9-.3 0-.4-.2-.6-.6-.2-.4-.3-1.4-.3-3.5V287zm3.9 41.5c4.2 3.5 6.6 6.4 6.6 8.3 0 1.1-.6 2.3-1.2 2.3-.2 0-.4-.1-.5-.4-.1-.2-.1-.2-.4-1.3-.3-.8-.4-1.1-.7-1.8-2.2.6-6.3 1.4-10.4 2.2-2.4.5-3 .6-3.5.9-.3.2-.4.2-.6.2-.4 0-.8-.3-1.3-.9-.8-1.1-1.2-2.1-1.2-2.8 0-.3 0-.4.2-.8.7 1.5 1.3 1.9 2.5 1.9.1 0 .3 0 .7-.1.8-1.6 2.4-5.3 3.6-8.3 1.3-3.5 1.9-5.4 1.9-6.2 0-.7-.5-1.3-1.7-1.8.3-.2.4-.2.8-.2.6 0 1.6.4 2.4.9.9.6 1.3 1.1 1.3 1.5 0 .3 0 .3-.4.8-.3.3-.7 1.2-1.3 2.3-2 4-4.2 8.3-5.8 10.9 3.7-.3 9.2-.9 12.5-1.5-.4-.9-.8-1.7-1.7-3.1-.4-.7-.6-1-2.1-2.9l.3-.1z" fill="#fff"/></g></svg>