<?xml version="1.0" encoding="utf-8"?>
<!-- Generator: Adobe Illustrator 25.2.3, SVG Export Plug-In . SVG Version: 6.00 Build 0)  -->
<svg version="1.1" id="レイヤー_1" xmlns="http://www.w3.org/2000/svg" xmlns:xlink="http://www.w3.org/1999/xlink" x="0px"
	 y="0px" viewBox="0 0 118.1 509.8" style="enable-background:new 0 0 118.1 509.8;" xml:space="preserve">
<style type="text/css">
	.st0{fill:#210100;}
	.st1{fill:none;stroke:#76544B;stroke-miterlimit:10;}
	.st2{fill:#FFFFFF;}
</style>
<g>
	<rect x="63.1" class="st0" width="55" height="292.8"/>
	<rect y="60" class="st0" width="55" height="449.8"/>
	<line class="st1" x1="90.8" y1="0" x2="90.8" y2="30"/>
</g>
<g>
	<path class="st2" d="M87.1,78.6c2.4-1.5,4.3-3.6,5.4-5.7c1-2.1,1.4-4.5,1.6-9c-2.1,0.1-4.5,0.4-6.2,0.8c0,0.3,0,0.3,0,1
		c0,0.1,0,1.2,0.1,3.2c0,0.1,0,0.5,0,1.1c0,0.3,0,0.5,0,0.7c0,1-0.3,1.5-0.7,1.5c-0.5,0-1.4-1.4-1.4-2.2c0-0.2,0-0.3,0.1-0.6
		c0.1-0.3,0.2-0.8,0.3-1.3c0-0.3,0.1-1.3,0.1-3c-1.5,0.3-2.5,0.6-3.6,1.1c-0.4,0.2-0.8,0.3-1,0.3c-0.9,0-2.5-1.9-2.5-3
		c0-0.1,0-0.1,0.1-0.3c0.8,0.9,1.5,1.3,2.3,1.3c0.3,0,1.1-0.1,2-0.2c0.8-0.1,0.8-0.1,1.8-0.3c0.6-0.1,0.6-0.1,0.9-0.2
		c0-1.3-0.2-3.1-0.4-3.8c-0.2-0.5-0.5-1-0.9-1.3c-0.1-0.1-0.3-0.2-0.8-0.4c0.2-0.2,0.3-0.2,0.6-0.2c0.6,0,1.6,0.4,2.4,0.9
		c0.7,0.4,1,0.8,1,1.3c0,0.2,0,0.3-0.1,0.6c-0.1,0.4-0.3,1.6-0.3,2.7c2.4-0.3,2.4-0.3,6.3-0.8c0-0.7,0-0.8,0-1.8
		c0-2.2-0.1-3.1-0.5-3.6c-0.4-0.5-1-0.8-1.9-1c0.4-0.2,0.7-0.3,1.1-0.3c0.7,0,1.8,0.3,2.7,0.6c0.6,0.3,1,0.7,1,1.1
		c0,0.1,0,0.2-0.1,0.5c-0.3,0.8-0.5,2.2-0.5,4.3c2.2-0.2,2.7-0.3,3.4-0.6c0.4-0.2,0.5-0.2,0.8-0.2c0.9,0,2.5,1.1,2.5,1.7
		c0,0.3-0.3,0.5-0.6,0.5c-0.1,0-0.3,0-0.5,0c-1.1-0.1-2.4-0.2-3.3-0.2c0,0-0.3,0-1,0c-0.9,0-0.9,0-1.3,0c-0.2,5.3-0.7,7.8-1.9,9.9
		c-1.3,2.2-3.8,4.2-6.4,5.3L87.1,78.6z"/>
	<path class="st2" d="M82.1,95.5c2.7,0.7,4.3,1.3,5.4,2.1c0.6,0.4,1,1.1,1,1.9c0,0.9-0.3,1.6-0.8,1.6c-0.3,0-0.4-0.1-1.2-1.1
		c-1.4-1.8-2.4-2.7-4.6-4.1L82.1,95.5z M102,97.1c-1.4,2.6-3.1,4.8-5.9,7.5c-2.6,2.5-4.3,3.9-7.9,6.4c-1.3,0.9-1.5,1-1.7,1.3
		c-0.4,0.5-0.6,0.7-1,0.7c-1.1,0-3.3-2.7-3.3-4.1c0-0.2,0-0.3,0.1-0.6c0.6,0.8,0.6,0.9,1,1.2c0.4,0.4,0.8,0.6,1.1,0.6
		c0.5,0,1.3-0.4,2.7-1.2c3.1-1.8,4.2-2.6,6.7-4.6c3.4-2.8,5.1-4.5,7.5-7.5L102,97.1z"/>
	<path class="st2" d="M79.5,149.5c1.5-1.4,2.7-3.1,3.8-5.3c1.1-2.2,1.9-5.7,1.9-7.6c0-1.1-0.5-1.7-1.9-2.2c0.3-0.2,0.4-0.3,0.8-0.3
		c0.6,0,1.3,0.2,2.1,0.7c1,0.6,1.5,1.1,1.5,1.5c0,0.2-0.1,0.4-0.4,1.3c0,0.1,0,0.1-0.3,1c-0.9,2.9-1.1,3.6-1.9,5.2
		c-1.3,2.7-2.9,4.5-5.3,6L79.5,149.5z M103.4,138.3c-0.9,1.5-1.6,2.4-3.1,3.9c-1.6,1.7-4.2,4-5.9,5.1c-0.5,0.4-1.3,1-1.6,1.3
		c-0.2,0.2-0.4,0.3-0.6,0.3c-0.6,0-1.7-1.5-1.7-2.3c0-0.1,0.1-0.3,0.2-0.9c0.2-0.6,0.3-3.1,0.3-7.6c0-6.4-0.1-6.7-2.2-7.2
		c0.3-0.3,0.5-0.4,0.9-0.4c0.7,0,1.5,0.3,2.5,0.9c0.8,0.5,1.1,0.9,1.1,1.3c0,0.1,0,0.3-0.2,0.8c-0.1,0.4-0.3,1.3-0.4,2.7
		c-0.1,1.2-0.4,7.4-0.4,8.4c0,0.4,0,0.7,0.1,1.3c3.2-1.3,7.4-4.4,10.6-7.9L103.4,138.3z"/>
	<path class="st2" d="M90.1,169.7c0-2-0.1-2.6-0.4-3.1c-0.3-0.4-0.8-0.7-1.5-1c0.2-0.3,0.5-0.4,0.9-0.4c0.6,0,1.6,0.3,2.5,0.8
		c0.9,0.5,1.2,0.8,1.2,1.2c0,0.3-0.1,0.4-0.4,0.9c-0.3,0.4-0.3,1.7-0.3,12.3c0,5.9-0.2,6.9-1.1,6.9c-0.3,0-0.4-0.2-0.6-0.6
		c-0.2-0.4-0.3-1.4-0.3-3.5L90.1,169.7z"/>
	<path class="st2" d="M94,211.2c4.2,3.5,6.6,6.4,6.6,8.3c0,1.1-0.6,2.3-1.2,2.3c-0.2,0-0.4-0.1-0.5-0.4c-0.1-0.2-0.1-0.2-0.4-1.3
		c-0.3-0.8-0.4-1.1-0.7-1.8c-2.2,0.6-6.3,1.4-10.4,2.2c-2.4,0.5-3,0.6-3.5,0.9c-0.3,0.2-0.4,0.2-0.6,0.2c-0.4,0-0.8-0.3-1.3-0.9
		c-0.8-1.1-1.2-2.1-1.2-2.8c0-0.3,0-0.4,0.2-0.8c0.7,1.5,1.3,1.9,2.5,1.9c0.1,0,0.3,0,0.7-0.1c0.8-1.6,2.4-5.3,3.6-8.3
		c1.3-3.5,1.9-5.4,1.9-6.2c0-0.7-0.5-1.3-1.7-1.8c0.3-0.2,0.4-0.2,0.8-0.2c0.6,0,1.6,0.4,2.4,0.9c0.9,0.6,1.3,1.1,1.3,1.5
		c0,0.3,0,0.3-0.4,0.8c-0.3,0.3-0.7,1.2-1.3,2.3c-2,4-4.2,8.3-5.8,10.9c3.7-0.3,9.2-0.9,12.5-1.5c-0.4-0.9-0.8-1.7-1.7-3.1
		c-0.4-0.7-0.6-1-2.1-2.9L94,211.2z"/>
	<path class="st2" d="M101.6,247.7v0.7c-0.8,0.1-1.2,0.2-1.6,0.4c-0.3,0.2-0.5,0.6-0.8,1.1c-0.1,0.1-0.1,0.1-0.7,1.6
		c-0.3,0.8-1.1,2.2-1.7,3.1l1.9,2c1.5,1.5,2.2,1.9,3.4,1.9v0.7h-4.3l-2.5-2.8c-2.2,2.2-4.2,3.2-6.9,3.2c-1.8,0-3.5-0.5-4.6-1.4
		c-1-0.8-1.6-2.4-1.6-3.9c0-2.8,1.5-4.6,5.2-6.2c-2-2-2.7-3.4-2.7-5c0-2.6,2.3-4.5,5.4-4.5c1.5,0,3,0.5,4,1.3
		c0.8,0.7,1.3,1.8,1.3,2.8c0,2.1-1.6,3.6-5.2,5l6,6.3c1-1.6,1.7-3.4,1.7-4.5c0-0.8-0.5-1-2-1.1v-0.7H101.6z M88,248.7
		c-0.9,0.4-1.3,0.7-1.8,1.3c-0.8,1-1.3,2.4-1.3,3.8c0,2.8,1.8,4.7,4.4,4.7c2.1,0,4-1,5.5-2.8L88,248.7z M93.5,242.6
		c0-2-1.3-3.2-3.3-3.2c-1.9,0-3.2,1.2-3.2,3.1c0,1.1,0.4,2,1.4,3.3c0.3,0.4,1.2,1.4,1.3,1.4C92.4,245.9,93.5,244.7,93.5,242.6z"/>
	<path class="st2" d="M21.4,115.1c1.8-2.1,3-4,4-6.6c0.8-2,1.3-4.4,1.3-5.7c0-0.7-0.2-1-0.7-1.4c-1.8,0.2-4.9,1.1-6.2,1.8
		c-0.5,0.2-0.6,0.3-0.9,0.3c-0.6,0-1.4-0.6-2.2-1.6c-0.3-0.4-0.6-1-0.6-1.2c0-0.1,0-0.2,0.1-0.5c0.7,1,1.3,1.3,2.4,1.3
		c0.8,0,0.9,0,4.8-0.7c1.7-0.3,4.9-0.7,8.6-1c0.6-0.1,1.6-0.3,2.2-0.5c0.4-0.1,0.4-0.1,0.7-0.1c0.4,0,0.9,0.1,1.5,0.4
		c0.8,0.4,1.3,0.9,1.3,1.3c0,0.3-0.3,0.6-0.8,0.6c-0.2,0-0.3,0-0.7-0.1c-1.1-0.2-3-0.4-4.5-0.4c-1.7,0-3.2,0.1-4.6,0.3
		c1.3,0.7,1.8,1.3,1.8,1.9c0,1.1-0.8,3.5-1.8,5.5c-1.5,3.2-2.9,4.9-5.5,6.8L21.4,115.1z M20.9,93.5c1.2,1.1,2,1.5,3.3,1.5
		c1.9,0,4.4-0.6,5.9-1.4c0.3-0.2,0.6-0.2,0.8-0.2c0.7,0,1.9,0.9,1.9,1.5c0,0.3-0.3,0.5-1.5,0.8c-1.8,0.4-4.9,0.7-6.4,0.7
		c-2.1,0-3.2-0.6-4.5-2.6L20.9,93.5z"/>
	<path class="st2" d="M21.7,151.2c2.8-2.1,4.5-3.9,6.4-6.2c2.3-2.9,3.9-5.9,4.7-8.5c-2.7,0.2-5.2,0.6-8.1,1.3
		c-1.8,0.4-2.3,0.6-2.9,0.9c-0.4,0.2-0.6,0.3-0.8,0.3c-1,0-2.6-2-2.6-3.2c0-0.2,0-0.3,0.2-0.5c0.6,1.1,1.4,1.6,2.4,1.6
		c1.1,0,5.8-0.6,9.5-1.2c1.5-0.3,1.7-0.3,2.3-0.6c0.2-0.1,0.3-0.2,0.4-0.2c0.3,0,0.7,0.3,1.3,0.8c0.8,0.7,1.1,1.2,1.1,1.5
		c0,0.2-0.1,0.4-0.4,0.7c-0.4,0.3-0.6,0.5-1,1.5c-3,5.7-7.5,10.2-12.2,12.3L21.7,151.2z M21.3,129.5c1,1.1,1.8,1.5,3,1.5
		c1.9,0,5.3-0.7,6.3-1.3c0.2-0.1,0.4-0.2,0.6-0.2c0.8,0,2.2,1,2.2,1.5c0,0.3-0.3,0.5-1.1,0.6c-3.3,0.5-5.6,0.7-7.1,0.7
		c-2.1,0-2.9-0.5-4.3-2.6L21.3,129.5z"/>
	<path class="st2" d="M15.8,186c2.7-1.7,5.5-3.9,7.5-6.1c1.7-1.8,3.7-4.4,5.3-7c0.9-1.4,1.4-2.3,1.9-3.6c-1.3,0.1-2.8,0.4-5.9,1.2
		c-1.3,0.4-1.5,0.4-2.4,0.8c-0.1,0.1-0.3,0.1-0.5,0.1c-0.6,0-1.2-0.5-1.8-1.6c-0.4-0.6-0.6-1.2-0.6-1.7c0-0.2,0.1-0.3,0.2-0.6
		c0.8,1.5,1.4,1.9,2.6,1.9c0.9,0,3.8-0.4,5.9-0.8c1.6-0.3,2.1-0.5,2.6-0.8c0.3-0.2,0.4-0.3,0.6-0.3c0.6,0,2.2,1.4,2.2,2
		c0,0.2-0.1,0.4-0.4,0.5c-0.6,0.4-0.6,0.4-1.6,1.9c-1.3,2-1.3,2-3.5,4.9c3.9,2.1,6.2,3.5,7.3,4.7c0.8,0.8,1.1,1.6,1.1,2.8
		c0,0.9-0.3,1.5-0.8,1.5c-0.2,0-0.4-0.1-0.6-0.4c-0.1-0.1-0.1-0.1-0.7-1.1c-1.4-2.4-3.8-4.8-6.7-6.9c-2.3,2.7-4.1,4.5-6.8,6.3
		c-1.8,1.2-3,1.9-4.9,2.7L15.8,186z"/>
	<path class="st2" d="M25.9,201.9h-5.3c-1.2,0-2.5,0.1-3.2,0.1l-0.2-1c1.2,0.2,2.2,0.2,3.4,0.2h12.2c0.7-0.8,0.9-1,1.7-1.8
		c1.1,0.9,1.4,1.1,2.5,2c0.1,0.1,0.1,0.2,0.1,0.3c0,0.1-0.1,0.2-0.4,0.2h-9v2h8.7c0.5-0.5,0.7-0.7,1.2-1.1c1,0.7,1.3,0.9,2.3,1.6
		c0.2,0.2,0.3,0.3,0.3,0.4c0,0.3-0.3,0.4-1.7,0.6c-1.2,1.5-1.2,1.5-1.9,2l-0.2-0.1c0.1-0.4,0.3-1.3,0.6-2.7h-9.2v2.7
		c0,0.3,0,1.4,0.1,3.2c-0.1,0.4-0.3,0.5-1.2,0.5c-0.5,0-0.6-0.1-0.7-0.3c0-0.5,0-0.5,0-1.3c0-0.8,0-1,0-1.9v-3.1h-8.6
		c-0.1,1.5-0.4,2.4-0.9,3.2c-0.4,0.7-0.8,1.1-1.3,1.1c-0.2,0-0.4-0.1-0.6-0.5c-0.2-0.4-0.3-0.8-0.3-1.2c0-0.4,0.1-0.4,0.5-0.7
		c0.5-0.3,1-0.9,1.4-1.5c0.4-0.6,0.6-1.1,0.8-2.1h0.4c0,0.5,0,0.6,0,1h8.5V201.9z M21.5,222.4c2.1-0.3,2.6-0.4,4.9-0.8l0.1,0.4
		c-2.9,1-6.2,1.9-10.2,2.7c-0.2,0.9-0.3,1.2-0.5,1.2c-0.1,0-0.2-0.1-0.3-0.3c-0.1-0.1-0.1-0.3-0.2-0.9c-0.2-0.6-0.2-0.9-0.4-1.7
		c0.2,0,0.4,0,0.5,0c0.2,0,0.2,0,1-0.1v-3.3c0-1.2,0-1.3-0.1-2.1c0.9,0.1,2.1,0.3,2.4,0.4c0.2,0,0.3,0.1,0.3,0.2
		c0,0.2,0,0.2-0.9,0.6v4.1c0.6,0,1.2-0.1,2-0.2v-6.8h-2v0.5c-0.1,0.2-0.1,0.2-0.3,0.3c-0.3,0-0.7,0.1-1,0.1c-0.3,0-0.4-0.1-0.4-0.3
		c0.1-1.3,0.1-1.8,0.1-2.6c0-1.3,0-2.8-0.1-3.2c0.8,0.4,1,0.5,1.8,1h4.9c0.4-0.4,0.5-0.6,0.9-1c0.6,0.4,0.8,0.5,1.3,1
		c0.1,0.1,0.2,0.3,0.2,0.3c0,0.2-0.1,0.3-0.8,0.7c0,1.2,0,1.2,0.1,3.6c-0.1,0.1-0.1,0.2-0.2,0.3c-0.1,0.1-0.8,0.1-1.2,0.1
		c-0.1,0-0.2-0.1-0.3-0.2v-0.5h-1.5v2.6H23c0.5-0.6,0.6-0.7,1.1-1.3c0.8,0.7,1,0.9,1.8,1.6c0,0.1,0.1,0.1,0.1,0.2
		c0,0.1-0.1,0.2-0.3,0.2h-4.3V222.4z M17,209c0.7,0.1,1.3,0.2,2,0.2h2.9c0.5-0.5,0.6-0.7,1.1-1.2c0.8,0.6,1,0.8,1.8,1.5
		c0,0.1,0.1,0.1,0.1,0.2c0,0.1-0.1,0.2-0.2,0.2H19c-0.7,0-1,0-1.8,0.1L17,209z M17.8,206.4c0.5,0.1,1.3,0.2,2.1,0.2h2
		c0.5-0.5,0.6-0.7,1.1-1.2c0.7,0.6,0.9,0.8,1.6,1.5c0.1,0.1,0.1,0.2,0.1,0.2c0,0.1-0.1,0.2-0.2,0.2h-4.9c-1.1,0-1.1,0-1.7,0.1
		L17.8,206.4z M17.9,215.2H23v-3h-5.1V215.2z M29.3,225c0,0.3-0.3,0.4-1.3,0.4c-0.4,0-0.5-0.1-0.5-0.3c0.1-2.9,0.1-2.9,0.1-3.7
		c0-0.6,0-1.1,0-1.6c-0.9,0.3-1.4,0.5-2.9,1l-0.2-0.4c2.9-1.2,4.6-2.3,6.9-4.2c-1-0.8-1.4-1.3-2.2-2.4c-1.2,1.5-2.1,2.3-3.9,3.4
		l-0.3-0.3c1.3-1.2,2.1-2.2,3.1-4c0.6-1.1,0.8-1.6,1.1-2.4c2.2,0.4,2.5,0.5,2.5,0.7c0,0.1-0.1,0.2-0.1,0.2c-0.1,0-0.3,0.1-0.8,0.1
		c-0.2,0.4-0.3,0.5-0.5,0.8h4.5c0.5-0.4,0.6-0.6,1.1-1c0.7,0.6,0.9,0.7,1.5,1.3c0.1,0.1,0.2,0.2,0.2,0.3c0,0.2-0.4,0.4-1.1,0.5
		c-1.3,1.4-1.9,1.9-3,2.8c2.2,1.1,4.1,1.6,6.5,1.9l0,0.3c-0.8,0.1-1.2,0.5-1.5,1.4c-1.2-0.4-1.7-0.6-2.5-1c0.6,0.4,0.7,0.5,1.2,1
		c0.1,0.1,0.2,0.2,0.2,0.3c0,0.1-0.1,0.3-0.4,0.4c0,0.4,0,0.7,0,0.9c0,0.1,0,0.2,0,0.3c0,0.1,0,0.7,0.1,1.7c0,0.3,0,0.7,0,1.3
		c-0.1,0.4-0.3,0.5-1.3,0.5c-0.3,0-0.4-0.1-0.5-0.3v-0.8h-5.9V225z M28.6,209c0.7,0.1,1.7,0.2,2.3,0.2h3c0.5-0.6,0.7-0.8,1.2-1.3
		c0.8,0.6,1.1,0.8,2,1.5c0.1,0.1,0.1,0.2,0.1,0.2c0,0.1-0.1,0.2-0.3,0.2h-6c-0.9,0-1.2,0-2.1,0.1L28.6,209z M28.6,206.4
		c0.6,0.1,1.3,0.2,2,0.2h2.3c0.5-0.5,0.7-0.7,1.2-1.2c0.8,0.6,1,0.8,1.7,1.5c0.1,0.1,0.1,0.1,0.1,0.2c0,0.1-0.1,0.2-0.3,0.2h-5
		c-1.1,0-1.2,0-1.9,0.1L28.6,206.4z M29.3,219.6H35c0.1-0.1,0.1-0.2,0.2-0.3c0.2-0.2,0.2-0.3,0.4-0.4c-1.3-0.6-2.1-1.1-3.2-1.8
		c-1.3,1-2.4,1.6-3.8,2.2L29.3,219.6z M29.3,223.5h5.9v-3.3h-5.9V223.5z M29.8,213c-0.1,0.2-0.2,0.3-0.3,0.4c0.8,1,1.4,1.5,2.5,2.2
		c1.4-1.2,1.7-1.5,2.5-2.6H29.8z"/>
	<path class="st2" d="M27.6,246.8c0.9,2.7,1.6,4.1,2.9,5.8c1.5,1.9,3.8,3.7,6.1,4.9c1.1,0.5,1.8,0.8,3.5,1.3l-0.1,0.4
		c-1.3,0.2-1.8,0.6-2.2,1.8c-2.2-1.2-3.4-2-4.9-3.5c-2.6-2.5-4.6-5.7-5.4-8.7c-0.1-0.4-0.2-0.8-0.4-1.6c-0.6,3.4-1.6,5.9-3.4,8.1
		c-1.6,1.9-3.8,3.6-6.3,4.7c-1,0.4-1.6,0.6-3.1,1.1l-0.2-0.4c3.5-1.6,5.7-3.2,7.5-5.5c1.9-2.4,3.2-5.2,3.6-8.3h-6
		c-2,0.1-3.2,0.2-3.5,0.2l-0.1-1.1c1.2,0.2,2.1,0.3,3.7,0.3h6.1c0.2-1.9,0.3-3.1,0.3-4.8v-1.9h-7.6c-1.2,0-2.5,0.1-3.4,0.2l-0.2-1.1
		c1.3,0.2,2.1,0.3,3.6,0.3H35c0.7-1,0.9-1.3,1.7-2.2c1.3,1.1,1.7,1.4,3,2.5c0.1,0.1,0.1,0.2,0.1,0.2c0,0.1-0.1,0.2-0.3,0.2H27.7
		c0,3.7-0.1,4.2-0.3,6.7h6.7c0.7-0.9,1-1.2,1.7-2c1.2,1,1.6,1.3,2.8,2.3c0.1,0.1,0.1,0.2,0.1,0.2c0,0.1-0.1,0.1-0.3,0.1H27.6z"/>
	<path class="st2" d="M14.2,298.3c1.7-2.8,2.4-4.6,2.9-7.5c0.4-2.4,0.7-5.7,0.7-10.3c0-4.1-0.1-5.9-0.2-7.4c1.1,0.5,1.4,0.7,2.4,1.3
		h13.9c0.4-0.5,0.5-0.7,1-1.2c0.9,0.6,1.1,0.8,1.9,1.4c0.1,0.1,0.1,0.2,0.1,0.2c0,0.2-0.3,0.4-1.1,0.8c0,2.6,0,2.9,0,3.8
		c0,4.1,0.2,7.5,0.6,9.7c0.4,2.1,0.8,3.1,1.9,4.8c0.5-1.4,0.7-2.2,1.4-4.7l0.4,0.1l-0.4,5c0,0.4,0,0.4-0.1,0.9
		c0,0.2,0.1,0.4,0.4,0.8c0.3,0.4,0.4,0.6,0.4,1c0,0.5-0.3,0.8-0.8,0.8c-0.6,0-1.2-0.4-2-1.3c-2-2.2-3-4.9-3.4-8.7
		c-0.3-2.7-0.4-6.4-0.4-9.6c0-1,0-1.7,0.1-3.1H19.6c0,1.5,0,1.5-0.1,8c0,4.7-0.6,8-2,11.1c-0.8,1.8-1.5,2.7-3.1,4.5L14.2,298.3z
		 M27.6,288.9v4.6c1.8-0.3,1.8-0.3,3.7-0.7c-0.4-0.7-0.6-0.8-1.6-2.3l0.3-0.2c1.3,0.9,2.1,1.5,3,2.4c1,1,1.4,1.5,1.4,2.1
		c0,0.5-0.3,1.3-0.5,1.7c-0.1,0.1-0.3,0.2-0.4,0.2c-0.3,0-0.4-0.1-0.8-1.1c-0.3-0.7-0.4-1.1-1-2.1c-2.3,0.7-7.7,2.3-10.4,3
		c-0.1,0.6-0.3,1-0.4,1c-0.3,0-0.4-0.3-1.2-2.8c1.6-0.1,4.7-0.5,6.3-0.9v-4.9h-3v1.1c0,0.2-0.1,0.3-0.2,0.3c-0.1,0-1,0.1-1.3,0.1
		c-0.2,0-0.3-0.1-0.3-0.3c0.1-1,0.1-1.7,0.1-2.8c0-2.7-0.1-5.2-0.1-6c0.9,0.4,1.2,0.6,2.1,1.2h2.8v-3.2c-2,0.3-3.2,0.4-5.1,0.6
		l-0.1-0.4c2.2-0.4,4.5-1,6.7-1.7c1.6-0.5,2.5-0.9,3.2-1.5c0.4,0.3,0.8,0.5,1,0.6c0.8,0.6,1.3,0.9,1.3,1.1c0,0.1-0.2,0.3-0.4,0.3
		c-0.1,0-0.1,0-0.6-0.1c-0.4-0.1-0.4-0.1-0.8-0.1c-3.1,0.8-3.1,0.8-3.6,0.9v3.5h2.8c0.4-0.5,0.5-0.6,1-1.1c0.8,0.6,1,0.7,1.6,1.3
		c0.1,0.1,0.2,0.2,0.2,0.3c0,0.1-0.2,0.3-0.9,0.7c0,0.7,0,0.7,0.1,3.1c0,1.7,0,1.7,0,2.7c0,0.2-0.1,0.3-0.3,0.3
		c-0.3,0.1-0.7,0.1-0.9,0.1c-0.3,0-0.4-0.1-0.5-0.3v-0.6H27.6z M25.9,283.1h-3v5.1h3V283.1z M30.7,283.1h-3v5.1h3V283.1z"/>
	<path class="st2" d="M28.2,318.7c-1.4,3-1.8,3.7-2.6,4.9h9.3c0.6-0.6,0.7-0.8,1.3-1.3c0.8,0.6,1,0.8,1.6,1.3
		c0.2,0.2,0.3,0.3,0.3,0.4c0,0.2-0.2,0.3-0.9,0.7c0,0.6,0,1,0,1.4c0,1.8,0.1,5.4,0.1,7.5c0,0.3-0.1,0.4-0.4,0.5
		c-0.3,0.1-0.9,0.2-1.2,0.2c-0.3,0-0.4-0.1-0.5-0.4v-1.4H19.1v1.3c0,0.4-0.3,0.6-1.1,0.6c-0.2,0-0.3,0-0.4,0c0,0-0.1,0-0.1,0
		c-0.3,0-0.4-0.1-0.5-0.4v-1c0-0.6,0-0.6,0-2.2l0-2.4c0-2.6,0-5-0.1-6.2c1.1,0.6,1.4,0.8,2.4,1.4h5.4c0.5-2.1,0.6-3.1,0.8-4.9h-4.3
		v1.1c0,0.3-0.1,0.3-0.3,0.4c-0.2,0.1-0.9,0.1-1.3,0.1c-0.3,0-0.4-0.1-0.5-0.4c0.1-2,0.1-3,0.1-5.2c0-3.1,0-3.9-0.1-5.3
		c1.1,0.6,1.4,0.8,2.4,1.5h11.1c0.5-0.6,0.7-0.8,1.1-1.3c0.8,0.6,1.1,0.8,1.8,1.4c0.2,0.2,0.2,0.3,0.2,0.3c0,0.2-0.2,0.3-1,0.8
		c0,0.6,0,1,0,1.4c0,1.9,0,5,0.1,6.2c-0.1,0.4-0.3,0.5-1,0.5c-0.2,0-0.4,0-0.4,0c-0.1,0-0.1,0-0.1,0c-0.3,0-0.4-0.1-0.4-0.3v-1.3
		H28.2z M19.1,331.8h16.1v-7.5H19.1V331.8z M21.3,318.1h11.7v-6.4H21.3V318.1z"/>
	<path class="st2" d="M14.6,360.2c1.8-2.6,3.2-5.1,4.7-8.6c1.1-2.5,1.5-4,1.9-6.1c1.1,0.3,2.6,0.7,3.1,0.9c0.2,0.1,0.3,0.2,0.3,0.3
		c0,0.3-0.3,0.4-1.4,0.6c-1,2.8-2,4.6-3.8,7.4c2,0.3,2.4,0.4,2.4,0.6c0,0.2-0.1,0.3-0.9,0.6v7.6c0,3.7,0,3.7,0.1,6.9
		c0,0.4-0.3,0.5-1.1,0.6c-0.3,0-0.4,0-0.5,0s-0.1,0-0.1,0c-0.3,0-0.5-0.1-0.5-0.4c0,0,0,0,0-0.1c0.1-3.2,0.1-4.9,0.1-6.9v-8.3
		c-1.8,2.7-2.5,3.6-3.9,5L14.6,360.2z M23.9,354c-0.5,0-1,0-2.2,0.1l-0.2-1c1.2,0.1,1.8,0.2,2.4,0.2h9.2v-4.7c0-1.4,0-1.8-0.2-3
		c2.5,0.3,3.3,0.5,3.3,0.8c0,0.2-0.4,0.4-1.2,0.7v6.2h0.8c0.7-1,0.9-1.2,1.6-2.1c1.1,0.9,1.5,1.2,2.5,2.2c0.1,0.1,0.1,0.2,0.1,0.3
		c0,0.1-0.2,0.3-0.3,0.3H35v8.1c0,1.8,0,4.6,0.1,6.2c-0.1,0.8-0.2,1.2-0.8,1.6c-0.5,0.4-1,0.5-3,0.9c-0.3-1.4-0.5-1.5-5-2.3l0-0.4
		c0.8,0.1,1.6,0.1,2,0.1c2.4,0.1,2.5,0.1,4,0.2c0.5,0,0.6-0.2,0.6-0.6V354H23.9z M24.3,356.7c1.5,0.9,2.7,1.8,4,3.1
		c1,1,1.3,1.4,1.3,2c0,0.7-0.7,1.9-1.1,1.9c-0.3,0-0.5-0.2-0.7-0.8c-1-2.5-2.1-4.3-3.7-5.9L24.3,356.7z"/>
	<path class="st2" d="M21.9,389.9h1.3c0.6-0.8,0.8-1,1.4-1.8c1,0.8,1.2,1.1,2.2,2c0.1,0.1,0.2,0.2,0.2,0.3c0,0.1-0.1,0.2-0.3,0.2
		h-4.8v2.6c1.3,0.6,2.1,1.1,3,1.7c1.2,0.9,1.5,1.3,1.5,2.1c0,1-0.3,1.8-0.7,1.8c-0.2,0-0.3-0.1-0.5-0.5c-1-2.1-1.9-3.3-3.4-4.5v4.3
		c0,6.7,0,6.7,0,8.6c0,0.2-0.1,0.3-0.2,0.3c-0.1,0-1.1,0.1-1.5,0.1c-0.2,0-0.3-0.1-0.3-0.3c0-1.4,0.1-1.7,0.1-3.1
		c0.1-3.7,0.1-4.2,0.1-5.7l0.2-4.9c-1.7,3.7-2.9,5.3-5.8,8.5l-0.3-0.2c1.8-2.6,2.6-3.9,3.6-5.9c0.8-1.7,0.8-1.7,2.1-5.1h-3.4
		c-0.5,0-1.1,0.1-1.7,0.2l-0.2-1.1c0.8,0.2,1.2,0.3,2.2,0.3H20v-4.3c-2,0.4-2.8,0.6-4.8,0.8l-0.2-0.4c2.7-0.7,4.1-1.2,6.2-2.1
		c1.9-0.8,2.6-1.1,3.5-1.8c2.4,1.7,2.4,1.7,2.4,1.8c0,0.2-0.2,0.3-0.5,0.3c-0.1,0-0.5-0.1-1-0.1c-1.6,0.6-2.2,0.7-3.8,1.1V389.9z
		 M29.6,405.8c0,0.1,0,0.1,0,0.1c0,0.3-0.3,0.4-0.9,0.4c-0.3,0-0.4,0-0.5,0c0,0-0.1,0-0.1,0c-0.3,0-0.4-0.1-0.4-0.4
		c0.1-2.8,0.1-3.9,0.1-7.3c0-9.3,0-11.8-0.1-13.6c1,0.6,1.2,0.8,2.2,1.4h6.4c0.5-0.6,0.7-0.7,1.2-1.3c0.7,0.5,0.9,0.7,1.6,1.3
		c0.2,0.2,0.3,0.3,0.3,0.4c0,0.2-0.3,0.4-0.9,0.8v5.8c0,6.4,0,8.3,0.2,12.2c0,0.4-0.3,0.5-1.2,0.5c-0.3,0-0.4,0-0.6,0h0
		c-0.2,0-0.3-0.1-0.3-0.3c0,0,0,0,0-0.1v-1.8h-6.8V405.8z M29.6,403.3h6.8v-16.2h-6.8V403.3z"/>
	<path class="st2" d="M14.8,424.9c1.5,0.6,2.3,1,3.1,1.5c1,0.6,1.2,1,1.2,1.6c0,0.8-0.4,1.7-0.8,1.7c-0.3,0-0.4-0.2-1-1.2
		c-1.1-1.7-1.5-2.3-2.7-3.4L14.8,424.9z M14.8,435c1.1,0.2,1.6,0.3,1.8,0.3c0.2,0,0.5-0.3,0.7-0.6c0.4-0.8,1.2-2.4,2.3-4.6
		c0.1-0.3,0.8-1.7,1.7-3.8c0.1-0.3,0.4-0.8,0.6-1.4l0.4,0.2l-3.6,10.2c-0.2,0.7-0.3,1.3-0.3,1.7s0,0.6,0.5,2
		c0.2,0.7,0.3,1.4,0.3,1.9c0,0.6-0.2,1.2-0.5,1.6c-0.4,0.4-1,0.7-1.4,0.7c-0.4,0-0.6-0.3-0.6-0.7c0-0.1,0-0.3,0.1-0.8
		c0.1-1.1,0.2-2.4,0.2-3.3c0-1.3-0.1-1.7-0.4-2.1c-0.3-0.3-0.3-0.3-1.8-0.9L14.8,435z M16.5,418.8c1.4,0.5,2.6,1.1,3.5,1.7
		c0.8,0.5,1,0.8,1,1.4c0,0.9-0.5,1.7-0.9,1.7c-0.2,0-0.3-0.1-0.5-0.4c-0.9-1.4-1.8-2.5-3.3-4.1L16.5,418.8z M30.5,429.2h3.6
		c0.7-0.8,0.9-1.1,1.6-1.8c1,0.8,1.3,1.1,2.3,2c0.1,0.1,0.1,0.2,0.1,0.2c0,0.1-0.1,0.2-0.3,0.2h-7.4v5.2h4.9c0.7-0.8,1-1.1,1.7-1.9
		c1.1,0.9,1.4,1.2,2.5,2.2c0.1,0.1,0.1,0.2,0.1,0.2c0,0.1-0.1,0.2-0.3,0.2h-9v0.9c0,2,0.1,4,0.2,6.6c0,0.2-0.1,0.3-0.3,0.3
		c-0.2,0.1-1,0.2-1.5,0.2c-0.4,0-0.5-0.1-0.5-0.4c0.1-1.8,0.1-4.5,0.1-6.8v-0.8h-5.2c-1,0-1.9,0.1-2.4,0.2l-0.2-1.1
		c0.7,0.2,1.5,0.3,2.7,0.3h5.2v-5.2h-3.6c-0.8,0-1.5,0.1-2.2,0.2l-0.2-1.1c0.6,0.1,1.5,0.2,2.4,0.2h3.6v-4.5h-4.4
		c-0.6,0-1.2,0.1-1.7,0.1l-0.2-1c0.7,0.2,1.3,0.2,2,0.2h2.4c-0.2-0.2-0.2-0.2-0.4-1.1c-0.4-1.3-0.8-2.2-2-4l0.3-0.3
		c0.4,0.3,0.7,0.5,0.9,0.6c1.3,0.9,1.5,1,2.1,1.7c0.4,0.5,0.6,0.8,0.6,1.1c0,0.6-0.4,1.6-0.9,1.9H31c0.8-1.4,1.7-3.4,2.3-5.4
		c3.1,1.1,3.1,1.1,3.1,1.3c0,0.2-0.2,0.3-1.4,0.4c-1.9,2.2-2.2,2.6-3.4,3.7h3.2c0.8-0.9,1-1.1,1.8-2c1.1,0.9,1.4,1.2,2.4,2.2
		c0.1,0.1,0.1,0.2,0.1,0.2c0,0.1-0.1,0.2-0.3,0.2h-8.3V429.2z"/>
	<path class="st2" d="M33.3,473.2c0.6-0.8,0.9-1,1.6-1.9c1.1,0.9,1.5,1.2,2.5,2.1c0.1,0.1,0.1,0.2,0.1,0.3c0,0.1-0.1,0.2-0.3,0.2
		h-9.4v4.8h7.5c0.7-0.8,1-1.1,1.8-1.9c1.2,0.9,1.5,1.1,2.7,2.1c0.1,0.1,0.2,0.2,0.2,0.3s-0.1,0.2-0.2,0.2H17.2
		c-0.5,0-1.9,0.1-2.4,0.2l-0.3-1.1c2.1,0.3,2.2,0.3,2.7,0.3H26v-4.8h-6.5c-0.6,0-1.1,0-2.3,0.1l-0.3-1.1c0.8,0.2,2.1,0.3,2.7,0.3H26
		v-1.1c0-0.8,0-1.5-0.1-2.8c3.1,0.4,3.3,0.5,3.3,0.8c0,0.2-0.2,0.3-1.2,0.6v2.5H33.3z M26,457.9v-1.3c0-1.1,0-1.3-0.1-2
		c2.7,0.3,3.3,0.4,3.3,0.7c0,0.1-0.1,0.2-0.2,0.3c-0.1,0.1-0.5,0.2-1.1,0.3v2h7.8c0.6-0.7,0.6-0.7,1.3-1.5c1.1,0.8,1.5,1,2.5,1.8
		c0.1,0.1,0.2,0.2,0.2,0.3c0,0.1-0.1,0.1-0.1,0.2c-0.1,0.1-0.4,0.1-0.7,0.2c-0.4,0.1-0.7,0.1-0.9,0.1c-0.2,0.2-0.4,0.4-0.5,0.5
		c-0.9,0.8-1,1-1.8,1.5l-0.3-0.2c0.3-1.1,0.4-1.5,0.6-2.4H18c-0.2,1.3-0.4,2.2-0.9,3c-0.4,0.7-1.1,1.3-1.5,1.3s-1-1-1-1.7
		c0-0.3,0.1-0.4,0.4-0.6c1.1-0.8,1.4-1.1,1.8-1.8c0.5-0.9,0.8-1.7,0.9-2.7h0.5c0,0.3,0,0.5,0,0.6c0,0.4,0,0.7-0.1,1.2H26z
		 M20.3,462.7c-0.8,0-1.2,0-2.2,0.2l-0.3-1.1c0.5,0.1,0.5,0.1,2.5,0.3h12.4c0.6-0.8,0.8-1,1.4-1.7c1,0.8,1.3,1.1,2.4,2
		c0.1,0.1,0.1,0.1,0.1,0.2c0,0.1-0.1,0.1-0.2,0.1H26.3c-2.5,3.3-2.5,3.3-3.9,4.8c3.1-0.1,5-0.2,10.5-0.7c-1.1-1.1-1.7-1.8-3-2.9
		l0.2-0.3c1.3,0.5,1.8,0.8,3.7,2c1.3,0.8,2.3,1.6,2.7,2.1c0.3,0.3,0.4,0.7,0.4,1.1c0,1-0.3,1.7-0.7,1.7c-0.2,0-0.2,0-1.5-1.8
		c-0.7-1-0.8-1.1-1.1-1.5c-3.2,0.5-5.5,0.9-6.2,1c-2.8,0.4-6.9,0.9-9,1c-0.1,0.9-0.2,1.2-0.5,1.2c-0.4,0-0.6-0.8-1.1-3.1
		c0.6,0.1,1,0.1,1.5,0.1c0.2,0,0.4,0,0.8,0c0.3,0,0.3,0,2.5-0.1c1.3-2.2,1.5-2.6,2.4-4.8H20.3z"/>
</g>
</svg>
