<svg version="1.1" id="レイヤー_1" xmlns="http://www.w3.org/2000/svg" x="0" y="0" viewBox="0 0 196 328.8" xml:space="preserve"><g><g><path d="M173.8 146.1h-.2c-.6 0-1.1 0-1.6.1l-.1-.6c.5.1.8.1 1.7.1h12c.5-.5.6-.7 1-1.2.5.5 1 .9 1.5 1.4.1.1.1.1.1.2s-.1.1-.2.1h-8.9v4.7c0 1.7 0 2.7.1 4.2 0 .1-.1.2-.2.2-.1.1-.6.1-.9.1-.1 0-.2-.1-.2-.2.1-1.7.1-2.1.1-2.9-2.4.9-2.4.9-5 1.7-.1.6-.1.7-.3.7-.2 0-.3-.3-.7-1.8.6 0 .8-.1 1.8-.2v-6.6zm1.8-1.5c0 .1 0 .1 0 0 0 .2-.2.3-.8.3-.4 0-.5 0-.5-.2.1-1.3.1-1.9.1-3.5 0-1.2 0-1.5-.1-2.3.6.3.8.4 1.3.8h8.4c.3-.3.4-.5.7-.8.5.4.6.5 1.1.9.1.1.1.1.1.2s0 .1-.6.5v4c0 .2 0 .2-.1.2-.1.1-.4.1-.8.1-.2 0-.3 0-.3-.2v-.5h-8.6v.5zm-.7 3.2h3.2v-1.7h-3.2v1.7zm0 2.2h3.2v-1.8h-3.2v1.8zm0 2.6c1.5-.3 2.1-.4 3.2-.6v-1.5h-3.2v2.1zm9.3-12.5h-8.6v1.6h8.6v-1.6zm-8.6 2v1.7h8.6v-1.7h-8.6zm9.5 5.6c.3-.3.4-.4.8-.7.5.4.6.5 1.1.9l.2.2c0 .1-.1.2-.8.4-.9 1.7-1.4 2.4-2.1 3.3 1.3.9 2.3 1.3 4.2 1.7v.2c-.4.1-.6.2-.8.4-.3.3-.3.4-.4.8-1.7-.7-2.5-1.3-3.6-2.3-1.1 1-2 1.6-3.7 2.4l-.1-.2c1.3-.8 2.1-1.5 3.3-2.8-1-1.2-1.5-2.1-2.1-3.8h-.2c-.3 0-.6 0-.9.1l-.1-.6c.3.1.6.1 1 .1h4.2zm-4 .4c.5 1.1.6 1.3 1.1 1.9.4.5.7.8 1.2 1.3.8-1.1 1.1-1.7 1.6-3.2h-3.9zm3.2 18.5l1.2-1.4c.8.7 1 .9 1.8 1.6l.1.1c0 .1-.1.1-.2.1h-6.9v7.8h5.2c.5-.7.7-.9 1.2-1.5.8.7 1.1.9 1.9 1.6l.1.1c0 .1-.1.1-.1.1H174c-.6 0-1 0-1.5.1l-.1-.7c.6.1.9.1 1.6.1h5.1v-12.4c0-1 0-1.6-.1-2.2.4.1.8.1 1 .1 1 .1 1.2.2 1.2.3s-.2.2-.7.4v5.6h3.8zm-10.4 26.7v3.4c0 .2-.1.3-.2.3h-.6c-.3 0-.3 0-.3-.2v-9.2c0-5.1 0-5.6-.1-6.8.6.3.8.4 1.3.8h2c.3-.3.3-.4.6-.7.5.4.6.5 1 .9.1.2.2.3.2.3 0 .1-.1.2-.6.4-.7 1.4-1.5 2.9-2.1 3.9.8.8 1 1.1 1.3 1.5.5.7.8 1.7.8 2.6 0 .9-.3 1.8-.8 2.2-.4.3-.7.5-1.4.6-.2-.8-.3-1-1-1.2v1.2zm0-1.5c.6 0 1.1.1 1.3.1.4 0 .5-.1.6-.3.1-.3.2-.9.2-1.5 0-1.5-.4-2.6-1.5-3.7.5-1.1 1-2.8 1.4-4.4h-2.1v9.8zm6.8-7.8c.3-.4.4-.5.8-.9.6.5.7.6 1.3 1.2v.1l-.1.1h-3.3v2.8c1.1-.2 2.1-.5 3.2-.8l.1.2c-1.3.7-2.4 1.2-4.7 2 0 .4-.1.6-.3.6s-.3-.3-.6-1.6c.5 0 .6 0 1.2-.1v-6.5c1.5.2 1.8.3 1.8.4 0 .1-.2.2-.6.3v2.4h1.2zm.2 6.4c.2-.5.5-1.6.7-2.4 1.5.4 1.7.5 1.7.7 0 .1-.2.2-.6.2h-.2c-.4.6-.6.8-1.2 1.5h4c.3-.3.3-.5.6-.8.5.3.6.5 1 .8.2.1.2.2.2.3 0 .1-.2.3-.6.5v5.8c0 .1-.1.2-.2.2 0 0-.7.1-.8.1-.1 0-.2-.1-.2-.2v-1h-5.9v.8c-.1.2-.2.3-.6.3h-.4c-.2 0-.2-.1-.2-.2.1-1.5.1-1.5.1-5.7 0-.7 0-1.1-.1-1.8.6.3.8.5 1.3.8h1.4zm4.5.4h-5.9v2.1h5.9v-2.1zm-5.8 2.5v2.4h5.9v-2.4h-5.9zm4.5-8.6c.4-.3.8-.6 1.5-1.4.7-.7.8-.8 1-1.2 1.1.6 1.5.8 1.5 1 0 .1-.1.2-.3.2s-.3 0-.5-.1c-1.4.9-2.2 1.3-3.2 1.8v1.9c0 .3 0 .3.1.4.1.1.5.1 1.2.1 1 0 1.4 0 1.5-.1.1-.1.2-.2.3-.4.1-.3.1-.6.3-1 .1-.3.2-.7.4-1.3h.2l-.1 2v.3c0 .2 0 .2.2.3.3.1.3.2.3.4 0 .3-.2.5-.5.5-.2.1-1 .1-1.8.1h-1.5c-1.2 0-1.5-.2-1.5-1.1V182c0-.6 0-.8-.1-1.3 1.6.2 1.9.3 1.9.5 0 .1-.2.2-.7.3v3.2zm-40.4-44.1c.5-.6.6-.7 1.1-1.3.8.6 1 .8 1.7 1.4l.1.1c0 .1-.1.1-.2.1h-7.3c.2.1.2.1.9.4.2.1.3.2.3.3 0 .1-.1.2-.7.2 1.7 1.2 3.9 1.7 6.9 1.9v.2c-.7.3-.9.5-1.1 1.2-1.8-.5-2.5-.8-3.5-1.3-.9-.5-1.6-1-2.6-1.8-2 1.7-3.2 2.4-5.9 3.5l-.1-.2c1.6-.8 2.9-1.7 4.3-3.1l1.1-1.1h-5.4c0 2.7 0 4.2-.1 4.6-.1 2.6-.5 4.8-1.4 6.7-.5 1.1-1 1.8-2 2.9l-.2-.1c1.2-1.9 1.7-3.2 2-5.1.2-.8.2-1.4.3-2.8-.6.6-.8.9-1.7 1.6v.5c0 .2-.1.3-.2.3-.2 0-.3-.3-.9-1.7.4-.1.7-.2 1.6-.5.4-.2.5-.2 1.2-.6.1-1.1.1-2.4.1-4.3 0-1.8 0-2-.1-2.8.6.3.8.4 1.4.9h4.8v-.7c0-.4 0-.6-.1-1 1.9.1 2.1.2 2.1.4 0 .1-.1.2-.7.4v1h4.3zm-13.9 1.1c.5.4.9.8 1.4 1.4.4.5.6.9.6 1.2 0 .3-.1.8-.3 1-.1.1-.2.2-.3.2-.2 0-.3-.2-.4-.6-.2-.9-.8-2.4-1.2-3.1l.2-.1zm5.3 9.9c-.1.7-.3 1.5-.7 2.2-.3.6-.9 1.1-1.3 1.1-.3 0-.5-.4-.5-.8 0-.3.1-.5.5-.6.5-.2 1-.5 1.2-.8.2-.3.3-.5.5-1.1h.3zm.5-2.6v2l-.2.2h-.6c-.3 0-.3 0-.3-.2.1-1.1.1-1.8.1-3.4 0-.9 0-.9-.1-2.3.5.2.7.3 1.2.6h2.7c.3-.3.3-.3.5-.6.4.3.5.3.9.6l.1.1c0 .1-.2.3-.4.4v3.8c0 .3-.1.5-.5.6-.2.1-.3.1-.9.3-.2-.6-.5-.8-1.4-.9v-.2c1.1.1 1.1.1 1.6.1.1 0 .1 0 .1-.1v-1h-2.8zm3-1.8v-1h-2.9v1h2.9zm-3 .4v1.1h2.9v-1.1h-2.9zm.7 5v-1.2c1.7.2 1.8.2 1.8.4 0 .1 0 .1-.6.3v1.5c0 .1 0 .2.1.3.2.1.6.1 1.1.1.8 0 2.5 0 2.6-.1.3 0 .4-.1.5-.4.3-.6.5-1.2.6-1.7l.3.1-.1 1.5v.1c0 .2.1.3.4.4.4.1.5.2.5.4 0 .3-.2.4-.7.5-.6.1-1.5.2-3.2.2-3.3 0-3.4-.1-3.4-1.3v-1.1zm.4-8.4c.5.1.8.1 1.5.1h1.8c.4-.4.5-.5.8-.9.6.4.8.6 1.3 1.1 0 .1.1.1.1.1 0 .1-.1.1-.2.1h-3.9c-.6 0-.6 0-1.4.1v-.6zm2 7.1c.6.1 1.3.4 1.8.7.3.2.5.5.5.7 0 .4-.3.9-.5.9-.1 0-.2-.1-.3-.3-.4-.6-.9-1.3-1.6-1.9l.1-.1zm3.9-5.2c0 .1-.2.2-.5.3v2.8c0 .1-.1.2-.2.2s-.4.1-.6.1c-.2 0-.2 0-.3-.2.1-.7.1-.8.1-2.1 0-.8 0-1-.1-1.4 1.4.1 1.6.2 1.6.3zm1.2.6c0-.1 0-.5-.1-1.2 1.9.2 1.9.2 1.9.4 0 .1 0 .1-.7.4v3.8c0 .5-.1.6-.6.8-.4.2-.7.3-1.2.3-.1-.5-.2-.7-.5-.8-.2-.1-.3-.1-1-.2v-.2c.3 0 .3 0 1 .1.5.1.5.1.9.1.1 0 .1-.1.1-.2v-3.3zm-.4 4.9c.8.3 1.8.9 2.4 1.2.3.3.5.5.5 1s-.2 1-.5 1c-.2 0-.2 0-.5-.5-.5-.9-1.1-1.6-2-2.5l.1-.2zm.9 20.1c-1.7 2.3-4.1 3.7-6.3 3.7-1.4 0-2.4-.6-3-1.5-.4-.6-.5-1.5-.5-3 0-1 .1-2.7.1-4.3.1-1.9.1-2.4.1-3.1 0-1.5-.2-1.9-1.5-2.4.2-.1.3-.2.5-.2.4 0 1.1.2 1.6.4.7.3 1 .7 1 1.1 0 .1 0 .2-.2.6-.3 1.1-.9 6.5-.9 8.6 0 1.1.2 1.7.7 2.2.4.3 1 .5 1.6.5 1.2 0 2.7-.4 4.1-1.2.8-.4 1.4-.8 2.3-1.6l.4.2zm-6.3 23.7c1.9-.6 3.2-1.3 4.2-2.5 1.1-1.2 1.6-2.7 1.6-4.3 0-1.7-.7-3.1-2-4-.8-.5-2-.8-3.1-.8h-.6c.4.6.6 1 .6 1.5 0 1.4-1 4-2.4 6.2-1.1 1.8-2 2.7-2.7 2.7-.3 0-.6-.1-.8-.4-.2-.2-.2-.3-.5-1.2-.2-.5-.3-.7-.8-1.7-.3-.6-.4-1.1-.4-1.6 0-1.1.6-2.5 1.6-3.6 1.5-1.5 3.8-2.5 6.2-2.5 1.8 0 3.5.6 4.6 1.7 1.2 1.1 1.7 2.5 1.7 4.2 0 2.3-1.3 4.2-3.6 5.5-1 .6-2 .8-3.5 1.1l-.1-.3zm-5.9-5.6c0 .9.3 1.7.7 2.4.3.3.5.5.7.5.4 0 1.3-1 2.1-2.4 1.3-2.1 2.3-4.4 2.3-5.6 0-.3-.1-.4-.3-.9-3.1.7-5.5 3.3-5.5 6zm1.7 13.9c.4 0 1.2.3 1.7.6.3.2.5.4.5.6 0 .1 0 .2-.1.4-.1.4-.2 1.8-.2 3.1v2c0 .6 0 .8-.1 1 0 .3-.2.4-.4.4s-.5-.2-.7-.6c-.2-.4-.3-.8-.3-1 0-.1 0-.2.1-.4.2-.5.2-1.5.2-2.9 0-1.3-.1-1.7-.3-2.2-.2-.4-.4-.5-1.1-.8.4-.2.4-.2.7-.2zm1.9 13.6c1.8-1.2 2.8-2.2 3.6-3.6 1-1.7 1.3-3.3 1.3-7.5 0-1.8-.1-2.4-.3-2.7-.2-.3-.6-.5-1.3-.6.3-.2.4-.3.7-.3.4 0 1.3.2 1.8.5.5.2.6.4.6.7 0 .1 0 .1-.1.4-.1.4-.2 1.6-.3 3.9-.1 2.6-.2 3.4-.6 4.5-.8 2.1-2.7 3.9-5.4 5v-.3zm-3.6 8.4c1.4.8 2.6 1.7 3.2 2.4.4.5.5.8.5 1.2 0 .7-.3 1.4-.6 1.4-.2 0-.3-.1-.4-.4-.9-2.1-1.7-3.3-2.9-4.5l.2-.1zm2 12.6c2.3-2 4.1-4.2 5.6-6.9 1.1-1.9 1.9-4.1 1.9-4.9 0-.3-.1-.5-.3-.6-.2-.3-.4-.3-.9-.5.2-.2.3-.2.5-.2.5 0 1.1.2 1.7.6.5.3.7.6.7.9 0 .1 0 .2-.2.4-.1.2-.3.6-.9 1.7-1.5 3.1-2.8 5.1-4.6 6.8-1.2 1.2-2.4 2.1-3.6 2.9l.1-.2zm8.5-15.5c.7.4 1.2.7 1.6 1.1.6.6.9 1 .9 1.4 0 .4-.3.8-.6.8-.2 0-.2 0-.8-1.2-.3-.6-.9-1.4-1.4-1.9l.3-.2zm1.9-1c.6.3 1.2.6 1.7 1 .7.5.9.9.9 1.4 0 .4-.2.7-.5.7-.2 0-.3-.1-.4-.3-.6-1.1-1-1.6-2-2.6l.3-.2zm-6.9 25.5c0-1.3-.1-1.7-.3-2-.2-.3-.5-.5-1-.6.1-.2.3-.2.6-.2.4 0 1 .2 1.6.5.6.3.8.5.8.8 0 .2 0 .3-.3.6-.2.3-.2 1.1-.2 7.9 0 3.8-.1 4.4-.7 4.4-.2 0-.3-.1-.4-.4-.1-.3-.2-.9-.2-2.2l.1-8.8zm-2.4 17.8c.4 0 .8.1 1.3.3.8.3 1.2.6 1.2 1 0 .1 0 .1-.1.4-.2.5-.3 1.8-.3 3.9 1.4.1 3.1.6 4.2 1 .8.4 1.1.7 1.1 1.4 0 .5-.2.8-.4.8s-.2 0-.7-.4c-1.2-1.1-2.6-1.9-4.2-2.3v7.9c0 .3 0 .5-.1.6-.1.1-.2.2-.3.2-.4 0-1.2-1-1.2-1.6 0-.2 0-.3.1-.5.3-.9.4-3.2.4-7.8 0-1.3-.1-2.6-.1-3.1-.1-.8-.5-1.3-1.4-1.6.3-.2.4-.2.5-.2zm3.6 35h4.4c.5-.6.6-.8 1.1-1.4l1.8 1.5c.1.1.1.1.1.2s-.1.1-.1.1h-13.8c-.7 0-1.1 0-1.9.2l-.2-.8c.8.1 1.7.2 2.2.2h5.2v-4.7h-4.3c-.3 0-.5 0-1.4.2l-.1-.7c.6.1 1.3.1 1.7.1h8.6c.4-.6.6-.8 1-1.3.8.6 1 .8 1.8 1.5l.1.1c0 .1-.1.1-.1.1H139v4.7zm-1.8-11.9c-.1.9-.1 1.1-.2 1.6-.6 2.5-2.8 4-6.4 4.4l-.2-.3c2.1-.4 3.6-1.2 4.6-2.4.6-.9.9-1.7 1-3.2h-3.3c-.3 1.7-.8 2.7-1.5 2.7-.1 0-.3-.1-.4-.3-.1-.2-.3-.6-.3-.7 0-.3.1-.3.5-.6.8-.6 1.4-1.5 1.6-2.8h.3c0 .6 0 .8-.1 1.3h4.9v-1.4c0-.7 0-.8-.1-1.3 1.7.2 1.8.2 2 .2.1.1.2.1.2.2 0 .2-.2.3-.9.5v1.7h4.9c.3-.4.4-.6.8-1 .7.5.9.6 1.5 1.2.1.1.2.2.2.3 0 0 0 .1-.1.1-.1.1-.3.1-.5.1-.5.1-.7.1-.8.2-.6.6-1 .9-1.8 1.6l-.1-.1c.3-.6.4-.7.8-2h-3.1v3.3c0 .3 0 .3.3.4.1 0 1.3.1 2 .1s1.4-.1 1.6-.1c.2-.1.2-.1.5-.7.2-.5.3-.9.6-1.8h.3l-.1 1.9v.3c0 .2.1.3.3.3.3.1.5.2.5.5 0 .2-.2.4-.5.5-.4.1-1.5.2-2.6.2-1.4 0-2.8 0-3.2-.1-.6-.1-.8-.3-.8-.9v-3.8H137zm-5.1 23.5v10.5c0 .1-.1.2-.2.2s-.6.1-.9.1c-.2 0-.2 0-.2-.2.1-1.5.1-4.4.1-8.9 0-4.7 0-6.3-.1-7.3.5.3.7.5 1.3.8h3.7c.3-.4.4-.5.7-.8.4.4.6.5 1 .8l.2.2c0 .1-.1.2-.5.5v2c0 .9 0 1.5.1 2.6 0 .1 0 .2-.1.2s-.5.1-.9.1c-.1 0-.2-.1-.2-.2v-.5h-4zm3.9-4.4H132v1.8h3.8v-1.8zm0 2.2H132v1.8h3.8v-1.8zm0 11.1c0 .1 0 .1-.2.2-.1 0-.6.1-.7.1-.2 0-.2-.1-.2-.2v-3.1c0-2.1 0-3.8-.1-4.5.6.3.8.4 1.4.8h4.2c.3-.3.5-.4.8-.7.4.3.5.4.9.8.2.1.2.2.2.3 0 .1-.1.2-.6.4v2c0 1.2 0 1.9.1 3.3 0 .2 0 .2-.2.3-.1 0-.5.1-.8.1-.2 0-.2 0-.3-.2v-.6h-4.5v1zm4.5-6.3h-4.5v2h4.5v-2zm-4.5 2.5v2.3h4.5v-2.3h-4.5zm4.5-5.1v.5c0 .2-.2.3-.7.3-.5 0-.5 0-.5-.2 0-1.1.1-1.7.1-2.7 0-2.6 0-2.7-.1-3.4.6.3.8.4 1.3.8h3.8c.3-.4.4-.5.7-.8.5.4.6.5 1.1.8.1.1.2.2.2.3 0 .1-.1.2-.6.5v13.4c-.1.8-.4 1.1-1.9 1.4-.2-.4-.3-.6-.6-.8-.2-.1-.5-.2-1-.3-.6-.1-1-.2-1-.2v-.3c1.5.1 1.8.1 2.9.1.3 0 .3-.1.3-.3v-9h-4zm4.1-4.4h-4.1v1.8h4.1v-1.8zm0 2.2h-4.1v1.8h4.1v-1.8z" fill="#200701"/></g></g><g><rect x="4.4" y="-1.9" width="55" height="291.8" fill="#210100"/><line x1="32.1" y1="-1.9" x2="32.1" y2="28.1" fill="none" stroke="#76544b" stroke-miterlimit="10"/></g><g><path d="M26.7 76.7c1.8-2.1 3-4 4-6.6.8-2 1.3-4.4 1.3-5.7 0-.7-.2-1-.7-1.4-1.8.2-4.9 1.1-6.2 1.8-.5.2-.6.3-.9.3-.6 0-1.4-.6-2.2-1.6-.3-.4-.6-1-.6-1.2 0-.1 0-.2.1-.5.7 1 1.3 1.3 2.4 1.3.8 0 .9 0 4.8-.7 1.7-.3 4.9-.7 8.6-1 .6-.1 1.6-.3 2.2-.5.4-.1.4-.1.7-.1.4 0 .9.1 1.5.4.8.4 1.3.9 1.3 1.3 0 .3-.3.6-.8.6-.2 0-.3 0-.7-.1-1.1-.2-3-.4-4.5-.4-1.7 0-3.2.1-4.6.3 1.3.7 1.8 1.3 1.8 1.9 0 1.1-.8 3.5-1.8 5.5-1.5 3.2-2.9 4.9-5.5 6.8l-.2-.4zm-.6-21.6c1.2 1.1 2 1.5 3.3 1.5 1.9 0 4.4-.6 5.9-1.4.3-.2.6-.2.8-.2.7 0 1.9.9 1.9 1.5 0 .3-.3.5-1.5.8-1.8.4-4.9.7-6.4.7-2.1 0-3.2-.6-4.5-2.6l.5-.3zm.9 57.8c2.8-2.1 4.5-3.9 6.4-6.2 2.3-2.9 3.9-5.9 4.7-8.5-2.7.2-5.2.6-8.1 1.3-1.8.4-2.3.6-2.9.9-.4.2-.6.3-.8.3-1 0-2.6-2-2.6-3.2 0-.2 0-.3.2-.5.6 1.1 1.4 1.6 2.4 1.6 1.1 0 5.8-.6 9.5-1.2 1.5-.3 1.7-.3 2.3-.6.2-.1.3-.2.4-.2.3 0 .7.3 1.3.8.8.7 1.1 1.2 1.1 1.5 0 .2-.1.4-.4.7-.4.3-.6.5-1 1.5-3 5.7-7.5 10.2-12.2 12.3l-.3-.5zm-.4-21.7c1 1.1 1.8 1.5 3 1.5 1.9 0 5.3-.7 6.3-1.3.2-.1.4-.2.6-.2.8 0 2.2 1 2.2 1.5 0 .3-.3.5-1.1.6-3.3.5-5.6.7-7.1.7-2.1 0-2.9-.5-4.3-2.6l.4-.2zm-5.5 56.4c2.7-1.7 5.5-3.9 7.5-6.1 1.7-1.8 3.7-4.4 5.3-7 .9-1.4 1.4-2.3 1.9-3.6-1.3.1-2.8.4-5.9 1.2-1.3.4-1.5.4-2.4.8-.1.1-.3.1-.5.1-.6 0-1.2-.5-1.8-1.6-.4-.6-.6-1.2-.6-1.7 0-.2.1-.3.2-.6.8 1.5 1.4 1.9 2.6 1.9.9 0 3.8-.4 5.9-.8 1.6-.3 2.1-.5 2.6-.8.3-.2.4-.3.6-.3.6 0 2.2 1.4 2.2 2 0 .2-.1.4-.4.5-.6.4-.6.4-1.6 1.9-1.3 2-1.3 2-3.5 4.9 3.9 2.1 6.2 3.5 7.3 4.7.8.8 1.1 1.6 1.1 2.8 0 .9-.3 1.5-.8 1.5-.2 0-.4-.1-.6-.4-.1-.1-.1-.1-.7-1.1-1.4-2.4-3.8-4.8-6.7-6.9-2.3 2.7-4.1 4.5-6.8 6.3-1.8 1.2-3 1.9-4.9 2.7v-.4zm-1.3 28.7c1.8-2.6 3.2-5.1 4.7-8.6 1.1-2.5 1.5-4 1.9-6.1 1.1.3 2.6.7 3.1.9.2.1.3.2.3.3 0 .3-.3.4-1.4.6-1 2.8-2 4.6-3.8 7.4 2 .3 2.4.4 2.4.6 0 .2-.1.3-.9.6v7.6c0 3.7 0 3.7.1 6.9 0 .4-.3.5-1.1.6h-.6c-.3 0-.5-.1-.5-.4v-.1c.1-3.2.1-4.9.1-6.9v-8.3c-1.8 2.7-2.5 3.6-3.9 5l-.4-.1zm9.4-6.2c-.5 0-1 0-2.2.1l-.2-1c1.2.1 1.8.2 2.4.2h9.2v-4.7c0-1.4 0-1.8-.2-3 2.5.3 3.3.5 3.3.8 0 .2-.4.4-1.2.7v6.2h.8c.7-1 .9-1.2 1.6-2.1 1.1.9 1.5 1.2 2.5 2.2.1.1.1.2.1.3 0 .1-.2.3-.3.3h-4.7v8.1c0 1.8 0 4.6.1 6.2-.1.8-.2 1.2-.8 1.6-.5.4-1 .5-3 .9-.3-1.4-.5-1.5-5-2.3v-.4c.8.1 1.6.1 2 .1 2.4.1 2.5.1 4 .2.5 0 .6-.2.6-.6v-13.8h-9zm.4 2.7c1.5.9 2.7 1.8 4 3.1 1 1 1.3 1.4 1.3 2 0 .7-.7 1.9-1.1 1.9-.3 0-.5-.2-.7-.8-1-2.5-2.1-4.3-3.7-5.9l.2-.3zM27.2 206h1.3c.6-.8.8-1 1.4-1.8 1 .8 1.2 1.1 2.2 2 .1.1.2.2.2.3 0 .1-.1.2-.3.2h-4.8v2.6c1.3.6 2.1 1.1 3 1.7 1.2.9 1.5 1.3 1.5 2.1 0 1-.3 1.8-.7 1.8-.2 0-.3-.1-.5-.5-1-2.1-1.9-3.3-3.4-4.5v12.9c0 .2-.1.3-.2.3s-1.1.1-1.5.1c-.2 0-.3-.1-.3-.3 0-1.4.1-1.7.1-3.1.1-3.7.1-4.2.1-5.7l.2-4.9c-1.7 3.7-2.9 5.3-5.8 8.5l-.3-.2c1.8-2.6 2.6-3.9 3.6-5.9.8-1.7.8-1.7 2.1-5.1h-3.4c-.5 0-1.1.1-1.7.2l-.2-1.1c.8.2 1.2.3 2.2.3h3.3v-4.3c-2 .4-2.8.6-4.8.8l-.2-.4c2.7-.7 4.1-1.2 6.2-2.1 1.9-.8 2.6-1.1 3.5-1.8 2.4 1.7 2.4 1.7 2.4 1.8 0 .2-.2.3-.5.3-.1 0-.5-.1-1-.1-1.6.6-2.2.7-3.8 1.1v4.8zm7.7 15.8v.1c0 .3-.3.4-.9.4h-.6c-.3 0-.4-.1-.4-.4.1-2.8.1-3.9.1-7.3 0-9.3 0-11.8-.1-13.6 1 .6 1.2.8 2.2 1.4h6.4c.5-.6.7-.7 1.2-1.3.7.5.9.7 1.6 1.3.2.2.3.3.3.4 0 .2-.3.4-.9.8v5.8c0 6.4 0 8.3.2 12.2 0 .4-.3.5-1.2.5h-.6c-.2 0-.3-.1-.3-.3V220h-6.8v1.8zm0-2.4h6.8v-16.2h-6.8v16.2zm3.7 33.5c.6-.8.9-1 1.6-1.9 1.1.9 1.5 1.2 2.5 2.1.1.1.1.2.1.3 0 .1-.1.2-.3.2h-9.4v4.8h7.5c.7-.8 1-1.1 1.8-1.9 1.2.9 1.5 1.1 2.7 2.1.1.1.2.2.2.3s-.1.2-.2.2H22.4c-.5 0-1.9.1-2.4.2l-.3-1.1c2.1.3 2.2.3 2.7.3h8.8v-4.8h-6.5c-.6 0-1.1 0-2.3.1l-.3-1.1c.8.2 2.1.3 2.7.3h6.5v-1.1c0-.8 0-1.5-.1-2.8 3.1.4 3.3.5 3.3.8 0 .2-.2.3-1.2.6v2.5h5.3zm-7.3-15.3v-1.3c0-1.1 0-1.3-.1-2 2.7.3 3.3.4 3.3.7 0 .1-.1.2-.2.3-.1.1-.5.2-1.1.3v2H41c.6-.7.6-.7 1.3-1.5 1.1.8 1.5 1 2.5 1.8.1.1.2.2.2.3 0 .1-.1.1-.1.2-.1.1-.4.1-.7.2-.4.1-.7.1-.9.1l-.5.5c-.9.8-1 1-1.8 1.5l-.3-.2c.3-1.1.4-1.5.6-2.4h-18c-.2 1.3-.4 2.2-.9 3-.4.7-1.1 1.3-1.5 1.3s-1-1-1-1.7c0-.3.1-.4.4-.6 1.1-.8 1.4-1.1 1.8-1.8.5-.9.8-1.7.9-2.7h.5v.6c0 .4 0 .7-.1 1.2h7.9zm-5.7 4.8c-.8 0-1.2 0-2.2.2l-.3-1.1c.5.1.5.1 2.5.3H38c.6-.8.8-1 1.4-1.7 1 .8 1.3 1.1 2.4 2 .1.1.1.1.1.2s-.1.1-.2.1H31.5c-2.5 3.3-2.5 3.3-3.9 4.8 3.1-.1 5-.2 10.5-.7-1.1-1.1-1.7-1.8-3-2.9l.2-.3c1.3.5 1.8.8 3.7 2 1.3.8 2.3 1.6 2.7 2.1.3.3.4.7.4 1.1 0 1-.3 1.7-.7 1.7-.2 0-.2 0-1.5-1.8-.7-1-.8-1.1-1.1-1.5-3.2.5-5.5.9-6.2 1-2.8.4-6.9.9-9 1-.1.9-.2 1.2-.5 1.2-.4 0-.6-.8-1.1-3.1.6.1 1 .1 1.5.1h.8c.3 0 .3 0 2.5-.1 1.3-2.2 1.5-2.6 2.4-4.8h-3.6z" fill="#fff"/></g></svg>