<svg version="1.1" baseProfile="tiny" id="レイヤー_1" xmlns="http://www.w3.org/2000/svg" x="0" y="0" width="196.323" height="39.183" viewBox="0 0 196.323 39.183" xml:space="preserve"><metadata><?xpacket begin="﻿" id="W5M0MpCehiHzreSzNTczkc9d"?><x:xmpmeta xmlns:x="adobe:ns:meta/" x:xmptk="Adobe XMP Core 5.3-c011 66.145661, 2012/02/06-14:56:27"><rdf:RDF xmlns:rdf="http://www.w3.org/1999/02/22-rdf-syntax-ns#"><rdf:Description xmlns:dc="http://purl.org/dc/elements/1.1/"><dc:format>image/svg+xml</dc:format><dc:title><rdf:Alt><rdf:li xml:lang="x-default">Web</rdf:li></rdf:Alt></dc:title></rdf:Description><rdf:Description xmlns:xmp="http://ns.adobe.com/xap/1.0/" xmlns:xmpGImg="http://ns.adobe.com/xap/1.0/g/img/"><xmp:CreatorTool>Adobe Illustrator CS6 (Windows)</xmp:CreatorTool><xmp:CreateDate>2017-07-12T14:54:38+09:00</xmp:CreateDate><xmp:ModifyDate>2017-07-12T14:54:38+09:00</xmp:ModifyDate><xmp:MetadataDate>2017-07-12T14:54:38+09:00</xmp:MetadataDate><xmp:Thumbnails><rdf:Alt><rdf:li rdf:parseType="Resource"><xmpGImg:width>256</xmpGImg:width><xmpGImg:height>52</xmpGImg:height><xmpGImg:format>JPEG</xmpGImg:format><xmpGImg:image>/9j/4AAQSkZJRgABAgEASABIAAD/7QAsUGhvdG9zaG9wIDMuMAA4QklNA+0AAAAAABAASAAAAAEA AQBIAAAAAQAB/+4ADkFkb2JlAGTAAAAAAf/bAIQABgQEBAUEBgUFBgkGBQYJCwgGBggLDAoKCwoK DBAMDAwMDAwQDA4PEA8ODBMTFBQTExwbGxscHx8fHx8fHx8fHwEHBwcNDA0YEBAYGhURFRofHx8f Hx8fHx8fHx8fHx8fHx8fHx8fHx8fHx8fHx8fHx8fHx8fHx8fHx8fHx8fHx8f/8AAEQgANAEAAwER AAIRAQMRAf/EAaIAAAAHAQEBAQEAAAAAAAAAAAQFAwIGAQAHCAkKCwEAAgIDAQEBAQEAAAAAAAAA AQACAwQFBgcICQoLEAACAQMDAgQCBgcDBAIGAnMBAgMRBAAFIRIxQVEGE2EicYEUMpGhBxWxQiPB UtHhMxZi8CRygvElQzRTkqKyY3PCNUQnk6OzNhdUZHTD0uIIJoMJChgZhJRFRqS0VtNVKBry4/PE 1OT0ZXWFlaW1xdXl9WZ2hpamtsbW5vY3R1dnd4eXp7fH1+f3OEhYaHiImKi4yNjo+Ck5SVlpeYmZ qbnJ2en5KjpKWmp6ipqqusra6voRAAICAQIDBQUEBQYECAMDbQEAAhEDBCESMUEFURNhIgZxgZEy obHwFMHR4SNCFVJicvEzJDRDghaSUyWiY7LCB3PSNeJEgxdUkwgJChgZJjZFGidkdFU38qOzwygp 0+PzhJSktMTU5PRldYWVpbXF1eX1RlZmdoaWprbG1ub2R1dnd4eXp7fH1+f3OEhYaHiImKi4yNjo +DlJWWl5iZmpucnZ6fkqOkpaanqKmqq6ytrq+v/aAAwDAQACEQMRAD8A61+aH5meUo/Iurm010Wm uwRlbSyhuWtdQjuweKB4AyTUVzV1ZeJXrtlGXKOE77uRixS4htsmPkD8x7XUdGA1E3Yg062gF35p 1CBbGwu524xsYWkMZ+KRqCqD9VTjyWN/mxyYqO3yZ3BPBPCk0EiywyDlHIhDKwPcEbHLmlcWUEAk AsaKPE0r/DFXn35keYPMGkeZvKlvo+qpa/pW7aO+tLpIWtfqcC+pPMzlVlRlBAFJADUDKckiCKLd iiCDY5M5u7mb6g89gIridkrapJJwikYiqr6ih6BvEKfllpLUBvuw/wDL7zJ5p1q/vJbuFjoh9VUN 0kcN7ZX0EvpzWUyx0jlSh5RyoOmzb5XjkT7m3JEAebNLtrlbWZrRFluljYwRyMURpADxVmAYqCep octLUGJP+YWg33kePWzq8Pl572GT0XvGh9SGeFmjkj9OVlWRkkRlp3yrxAY3dNnhkSqrUvyk8/L5 v8n6feX13ZtrrRsb+ztZFLpxkZFd4gxZC6gNQ+OOHJxR81zY+GXkzfLWpKfMvmjRvLeni+1SYokj rDbwxq0k08z7JFDEgLO7dgBkZSERuyjAyOzHJPPHnBtV06wi8twWb6rHPLYpqd+YZmFsEZ1kjtre 7WNislR8Z6EGhpkOOV8mzw41dpjovnhbnXP8O61YSaLr7Rma2tpHWaC6iX7T2s68RJw/aUqrD+Wm GM96OxYyx7WNwygkAVPTLGt8++Z9bn80+e7LXbLUbqysY7mTRfJt3Zeg8b30RElzdXKSuqtbVXgQ N2UVA8cOUuKV/AOZGPDGviU+t/P+vazfW2gahd6bZzzaJcLeXL3AGn3k9y6KstnIob1fSiQsQDtz Ydq5PxCdj3MTjAFi+ar5X1DzTpGpeWfI2g3+iXkVjbNc61N67ySTQBglUG7CR2LN8NQKDltsWJII iKRMAgyNvX8yXGdiqW+ZIdal0S6GiTrb6siiSzZ1DRtJGQ4ikB/Yk48GI3AOxrkZXW3NlGr35PI/ Pfnd/NXkDyTrNp9Z0xtQ8yWdnf28ckkMiEC4hni9SMoxUkHcfgcx8k+KIPm5OPHwyI8mY63rnmvU fzAs/L/li7jtNO0iE3Pme9miWdKygG3tRyKt6hUFzRhRTWvY2SkTKh05tUYgRs9eTPcuaXl2secr LV/NWq2dhqZgtNFjjt55Y9SWwVrkNI1woDpIJPSUxhmXoTQ9solOyd+Xm5EYUBtz8mJW/mrUr3zn YQ2WvXL+XrvSnveZ1ZFQyC5EAY3DwrwPI8PTK1rlXGTLntXe2GAEeW99ys2tppnm5dS8tRT+ZPNb XEOm3tiusm4DQNG8tHX0ki4IqsQ5PFH671GHiqVjc+9eG40dh7ntd+Wm0W4MsZiaS2cyQsQWUtGa qSpIqOmxzKPJxBzfPGi6zcTfk9Je3GvKdTGmXZUSeY7qO55xrIIwLL0yvKijinP4ttxXMOMvRz6d 7myj6+XXuZBqF5c2+k/lHy1KSBL7TpjfXE+ozWIk56fFPxlu1EjqvqgFRQ7gLkidosAN57fZ5rYb 6Z/zj8k2VtrBuLSZdQe4htNbuNUjYxWzOgk9RYgm69KHljfrG/22teg7fZT3bMtxHm13Jp3nL81L ext44p9O8l/6XqV0FBL6lIGS3tw9P90Lykah+1QHplBqU/6reLjC/wCd9yf+ddUvE1Ly95ftblrL /EF1PBcXkaxvIkMFpLcMsYlV4wztGqVZTsTTemTmdwO9hAbE9yj5D/LWw8l3OpHTdSvbix1FllNh ctG0UU1WLyRhEjC8+QqAO3yo48fDyTkymXNOfNXlq28xaQ2nzXVzYyB1ltr+xlMNzBKnR4pB0NCV PsSMlOPEKYQlwm3m/wCW/kTypqvmHXfMEts2r6bbSfonSrnVXa/edrYn63d8p/UH7yU+mpQAcVPi cox4wSTzb8uQgAckR+X8fli48p+brfWBbxeVo/MWoxWCTMscEUAZAnomq+n++LmPhQg9N8OOqN8r RkviFc6CJ/JHzbe6vH5h0Wa5k1O00C99DTdZlDB7m1lLmISM4UvJGqfE3cEfMnBO7HcueFUe9kP5 k+adS0LSrG30hFbWtcvodK015F5RxST1rO69xGilqePtXJ5JkDbmWvFAE78g8hs9CW01XzD+WFrA bjzLrGoh7rzC8SeuNFuYkmupml40rUvHxFByfx64wjRMOp6+TkmVgT6Dp5s9/OjQtM0r8vTrmmqu nat5WW3fRL+L4ZIgkiQiDkAS0bo3Dgdj3y7NECNjmGrBImVHkXoOiX8mo6LYahJH6Ul5bQzvFQji 0sYcrQ+FcuibFtEhRpha2J1H87pptSo8eiaPDLocDbqrXcskdxcKP5/3Xpk+FMqq8m/QNt1j26lR 8n33+MfzE1TzVCeegaFE2i6JJ1Wad2WS9uE9vhSNSNiMEDxSJ6DZMxwxA6ndCfnbcLDq35fm0/47 R8xW4tAv2jbkFbkePE8kDdqdcGfnHvtOAbS7qelahYWuo2M9jdoZLW5QxzxhmTkjbMpZCrUI2O+X kW0A0+etMi8pWlz+YVrdXnl3TpItUvY7Kz1O2he49NYgEFsWuICi12UKh3+7MMUOLlzc08R4efJd 5fjmiX8kxYWMN3O1rrTi0kcQRyM1spcs/CSh3LfZNTjH+D4ol/Hfk9A0e21KH84xqGrWFlpAvNBN nYww3cMrTSw3Zmk4IVglJCOCaRkUH2u2XAHjs7bNMiOChvu9Ly9odiqVX2i31xePcwa3fWSsqr9W gFo0Qp3Ant5mqe/xZEx82Ql5PJLjSLvzHr/m/R7vVbmTRPJElpqOi+nFZQ01L6vJO7v6VrGH4yM1 V6b1Na5jkcRIvaLk8XCAa3knXkfyjJ5v/LG2k1bWr9U8xxvd6vFaiztxNLM5MhLx24lo3EKRz+z8 P2dslCHFDc82GSfDPYcnoflrRIND0W20u3u7i9t7ZeEE13IJZeA+ypcKtQo2Htl0Y0KaZSs2xzzH oclvfcNIjvLOC6ElxcDTbLTpY2uXf95LI1ypf1ZKivY8chKPd+hnGXf+liFr5M1y18x2eoI+rTQ2 mlSaaLu4t7OW7LvdCcMQxMLjiONWXl9O+ViBu9+TaZiq25pl5XudV07z/IdcuNRsbK8jW00r6+2m QW15IoLsot4FSRJVZjxK15j7VKKMMSRLf9DGYBjt+l6Vqf8Axzbv/jDJ/wAROXnk0Dm8Y8ianq97 +Suj+WfLkCTare2c8d5e3K/6DZW8s0oeSdyGVnKE8IhU/tMOPXGxkmAAcrIAMhJ5Mb8v627Xfl7y p5Z1S0tL3SjKG13WEgn+qhSIZ49OmkmkFx6wj48YOK8P5d+NcZcgD+PJnKPMkfL9L0LziSfzw/LY lg5MGrEuoop/0NtwKtt9OXT/ALyPxaYf3cvg9SzIcdhsvlMeVPKmtp5Ril/SN/cS38rjhLcNJPIp mMQkohdIq+krbVArWprVwcIPC28fERxPMtU8t615i81aFD5YufNdpcWU0lxfa3rgnFta/uSo9OG5 CRtKxahWNQKHwNRQYmRFcXxbxIRBvh+D1zyJJ50/REtt5wjiOq2lw8CXtvxEd3AoBjuAi/YLciCt BuOmZOPir1ONk4b9PJd+YFr5nu/J2p2nlhlTXLlFhtZGYIEEkipK/I9CsRZh3r03xyA8O3NcZAkL 5MTvtG/MTyZoFhoHke0t9XsDb/U4jMUtpbKf097otXhLG0lZGUry5HqQQBWRKIqO7YJRkblsyr8v PKSeUvJ2m6CHEs1tGWuphUiS4lYySsCd6c2NK9ssxw4Y015J8UiWR0H39cmwSTzh5aPmDSBbQ3TW GoWs0d5pmoIoc291AaxycG2ddyrKeqkjITjYZwlwljGmflTpmiarb+bJtR1LUvM9sZZL+/VgXvVl Th6DQAFBEtAURacadfCAxAG+rM5SRw7UoeYPKvmf8wry1ttftv0H5Ns5luJNMaRJb6/dN0Wcws8U MX+SHZvkaUEoGfPaKYzEOW8npCqqqFUAKBQAbAAZe0MO/MT8uT5vFnJbavcaHe2wlglu7QfHNZ3A Amt3oybNwBFagHscqyY+LrTbjycPS0xisl8peXbLSfLWiy30Nqno21rDJDEFpuXmkmdPtNuzKGYk 9MlXCKAY3xGyUk0HyFq115tXzp5wuIZ9YgjaHSNMtSzWlhE+xKs4VpJmB+J+IHgOlIxxm+KXNnLI OHhjyZte3SWlnPdOjyJbxvKyRjk7BFLEKvcmmwywlqAt4h5JPnHW7Lzb+h9CurSx80alNqOnazez LYpHFMq+k/p8Z5Jvs1KcCjjYmhzFhxG6HNyp8IqzyCjeQ6m3mH8q7TzToEAuLY6/bTaRaQxGCRII FSOSOBuMaqQokA6dx2GJu42O9IqpUe5OLux0VPzq8lCz0BdIUW2pOyNbwQ83WEcWAiLVK+J6ZIgc Y2rmxBPhne+T2PMlxXYqx/zV5qk0pPqWl2UmreYbhOVlpsQIFGJUS3Ev2IYQQas5FaUWpyE51y3L OEL57BJtA8j3+g+RNatTIl/5m1lLy81G5UcVmv7lG+Fa0pGpoq9PHauRjConvLKWQGQ7gwvyX+Zh 8s/lrYaPJ5d1x9e060aEW36Nn4GdeXEFyAAvKle/tlUMvDGqNts8XFO7Fe96R+Wv1oeQPL6XltPa XsdjDHdwXaNHMJo1CSl1f4hycFhXscvxfSGnL9RYX5w1by7pGv6npun/AJcza/qpj+uvdwWMU9u0 1zzdTLIQWXnIG5bVO/XKpkA0I22wBIBMqCS+Q/LlzY+XmtLv8vr7UdYuS8t5qV8umRqssnUQJcSO I446/AqpTxGQxxofTv8ABlklZ+rb4pp5d0cweZbPy/508j6TNFfLK+ka3BZWzgNEpkMF0qRmOOXg pPJeKtTYV6SiN6kAxlLa4yL1TV5Ei0m9lc0RIJWY9aAISemZB5OOOb5+g8vy3v8AzjxoV0r3143q W8Y02CRhD6bagVl/cx8FkLKTvLyp7Zh8N4w5vFWU/jonv5l+XZNV8ky6XYeXNfedJLVbKOcxTQxL 9YjDlY45pmX91yFVTbvQZPLG41RYYpVKyQl+laX5M0787vKGkeU9OnsP0cup3GrW88dwrxm4syI3 LT1PBui0NPvyIERkAHmkmRxky8nv+ZjhuxV2KuxV2KuxV2KuxV2KuxV2KuxV2KuxV2KuxVwAAoOm KrWhiaVJWRTLGCI5CAWUNTkAeorQVxVvivINQcgCAe9D1/VireKuxV2KuxV2KuxV2KuxV2KuIBFD 0xVbHHHHGscahI0ACooAAA6AAYquxVoKoYsAAxoCe5p0xVvFUo0HzANZm1B7eCmm2k7Wltelq/WJ YSUuCiU2SOQcA1fiIbagBMYytlKNKHmPzlpOgfo6S9NbO/uzZNdq8QjgkVHctMXdaIoifmRXjTfB KYCYwJTyKWOWNJYnEkUgDI6kFWUioII2IIybBA+YNattD0W91i6jkltbCJp7hYQrOIk3dgGZAeK1 Y79BtU7YJSoWyjGzShqnmrSNM0aDV7lpPqlz6Ytwsbeo7TDlGoRuJDt0CmhLfCAWIBBmALUQJNI1 dVsG0pdVEw/R7QC6E5DAeiU586Ech8O/TDe1oo3SHm8w6ZDrNhpDs31rU4ZZ7JlUtFIsHEyDmtQC A4O+DiF0nhNWmWSYpNqfnHyxpl0bS81GJLtft2y1klX4S45pGGZaopbcdAT2yJmAyECUx0/UtP1K 0S80+5iu7WT7E8LrIhpsaMpI2wgg8kEEc0Hq3mXR9KlWC7uALqSNpo7ZFeSQohALFUDFV5EDkdsB kAkRJW+V/M2neZNIh1SwEiRy8g0Ey8JY2R2jZXUE/tIdwaHscYyEhaziYmijtQvFsrC4vHjeVLaN 5Wjj482CKWIXkVWu3cjCTSALKlomsWetaPZatZc/ql/ClxB6iGN+Ei8lqrbjY4xNi1lGjSNwoSPS vOGlahrOo6NR7XUNOuPqrQ3BjUzN6Sz8oODvzX0nVj+0oPxAZATBNMzAgWnmTYOxVI9c87+U9AkM etanDpz05KLkmPmKV/dlgA/+xr4ZCUwOZZxxyPIJnpupWOp2FvqFhMJ7O6RZYJlrRkYVB3oR9OSB vdiRRoqOu6odK0q41D0vX+rhW9AMEZ6sF4oW+Hma/AppyagqK1xkaFrEWaWeXtcGtaYl+LC803mS Pquowm3uFp3aMlqV+eCMrCZRo0mWSYsd8s+cf05d3NodKvbNrWtbySMNZTcSBW2uVNJQa1Hwj5bZ CM76M5QrqyLJsEps/M2n3XmPUPL6pKmoadFDPKWUem0U4PBldSw6qw4txbbpTfIiQumRiatNskxS q+8yWNlr+m6JPHMLnVkmazlVQ0RNuoeRWIJZCFNasvHtWu2RMqNMhGwT3JrkmLTMqqWYgKBUk7AA Yqk/lLzVYeZ9JOqWMcsdt60sCtKBSQwuUMkTKWV42I+Fgd8jCfELZTgYmiu1/wAwDRZdPkuYa6bd zra3N7yp9XkmIW3Z1p/dvIeBbl8JK7UJIZSpYxtJvyh4D8t9CjAKywwGG6VvtC5ikZLgN139ZWrk cP0hnm+spFd6b5Qn88anr2u6Rb21lpzLYWZntVeS+1CRFnmuEjCs8rRxIiRkKT9vIER4iSGQMuEA FG/lxLpGuXt35m0/WpZZ5Xntr/RomhS1j4TusLvbBPUSTggIZm5MDv4YcdHcFGWxsQhvzF0/SdS8 1aTodxqt1B+mOB1PThdtDaNZWzEsWjBX47iRlgADfECTSq4MgBIF804yQCa5JY1nquteU9eOgQz6 mItanHl1WnSS2MNsIUkSb6zKFmt3uIpdjyp9paUBAokGu/ZlYEhfduzX8wdbv9J8pSXkRS1aSS2g u7twJY7SG4mSKe4KkUcRI5O4p3O1csySoNWONyea/l75e8uXWi6hrnmLnb2eg2p06yv5muIrj6vH +9GpJLKElT1o/T9LjsoWi0qRlOOIqz0/Ft+SRuh1/FPSvI975ivPy80m81ActdmsEkb1xwLSlKxt Ko6Fti2XQJMRfNoyACRrkxD8vGttcudGh02KRNN8uo17rl1KhV7jX7mExSxyEgc5IRLK0pFQGKAd Mrx71XT72zJtd9fuTvyBcRXvm3znqGmAHy/PdWqW00f9zNewwlL2WOmzVPpozDqynJ49ySOTHIKi AeaU/mNonmCCb/FGo6mn6I0hxG0Fkstrcvp13KguhcTxyKxEVEfjHxqE6gnI5InmTsGWKQ5AblH2 nkzWH17Q549I0nQrHSJnuZ73TJme4ulaJ4xCB9XgpG5cNJzdq0HXrhEDY2ApiZijuTaz814NOnuN KsJdVurC61h/qUsUd29tbGyDhrmacAr9hGMafEKvIqmo2xy1sL5pw3ua5IO0s57i183WPlQXH1fT 7uG10M2tzxWG/gtQ0zhppApjWR1SSPcMQwINTgA50knlbMtVa0byY1z5tUWyQ2iXWqiGV09KWFRK /pSxMjgpIvwsrA5Yfp3ah9XpYT5W8naWmmWQt7p9D8665by6m1+VS6vRBJIGMBmuhLIwgSaOM0cG oBblvWqMBXdIts5m++Iem6daSWdjBayXUt7JCgRru44GWQj9p/TWNa/JRl4FNBNojChIDe+WtTvp l1KO2F9o87osN00bNFUKyTKr/Z5pQq1K079chYPPozojl1Tex1Cwv4PrFjcxXcFSvqwOsicl6jkp IqMkCCxII5pZ5i8rRa5PaPLqN9ZwW/Nbi1s5zBHcxuVJjm4jnSsY3RlNKitDglG2UZ0k3kMiPzD5 tsLKo0KwvLeCxj5M0cc31VGuo4+RPEK7KSo25E5DHzPcyycgerJdd0p9V0qexS8uNPkl4mO9tHEc 0bI4dSpIYdV+IEUIqDscskLDXE0bYd+jLfQvPvljTdJlnlnuoL6bXJZpnmlnt4olVJrksfib6w6B DTarBaDbKqqQAbbuJJZlrutafoej3mr6hJ6VlZRNNM3eij7KjuzHZR3OWykALLVGJJoMJ8karqWm 6jBH5ksI7HVvOBuNSE3r+pIHgVCLWVGjj4ejbFVTizfZYmhyqBIO/VuyAEbcosx0HXrbW4bm6sxz sIrh7e1uwapcCIBZJI6fsCXkgPfjUbUyyMrapRp49qEOgrp3mvWYtVvNRl0yB9I8rfWr6WS4+tOx iMsHxIeLXfpwqw6mEsSTvmMaom/c5IuwK970m2tfNFv52iliilOhT2jpqrzTIYjdpwMU1tFyd05A ujiig9abVN4B4vJoJHD5ovz5YX995angs42uaPFJd2Eb+m91bJIGntlfsZYwV7V+zUA1w5ASEYyA UX5W1zRdb0K01DRSBp7L6ccPD02hMfwNC8f7DRkcSvbDGQIsInEg0Uk/N7ify312OhaaaAQ2qr9o 3Msipb8ff1mWmRzfSWeH6gmHlr9DfpbXv0R6vo/Wh9d6fVfr1D9Y9Gvxc/s+tT4eX+XzwxqzTGV0 La86/wCF/qVp+nvrFPrA+ofUfrn1v1+Df3P1D/Sa+ny5ce1a7YzrqsL6fj5oXyb/AMq59SL/AAv9 V+s/VB/c1+sfVvVP99z/AHtfV5f3nxcq++CHD0TPi6o3zB/grhqX6c+pV/R/+5P1+Hqfo/k/2/2/ S58qf5XTfDLh6ojxbUjfLv6B/Qdl/h/0P0N6Q+o/VePo+n24cdvn79cMarbkiV3vzTB+HBvUpwoe fLpTvWuSYpH5h/wl9dsP8Qely9RfqH1zl9W9evwU5/6P61fsV+P+XISrqzjxdE9ybBK9e/w9+iZv 0z6X6K5f6V6lfR6/F61Ph41+1z+HxyMqrdlG725ozTv0f9Qg/Rvo/UOC/Vfq/H0fTp8Pp8Ph406U wiuiDd7oPzT+hP8ADOq/p2n6F+qT/pKvL/ef0z6v2PirxrTjv4b4J1RvkmF2K5o6y+rfU4PqlPqv pp6HHp6fEcaV9sIQUFqX+HPri/pL6r9b+qXPH1+HP6nWP619r/dX93z7dK4DXVIvoo+T/wDCf+Hr X/Cf1X9B0b6t9S4+lWp5/Z/a5V5V3r1xhVbclnxX6uaL139C/oi7/Tfofon0z9d+tcfR9Pvz5fDT 54ZVW/JEbvbmknnz/lXX1C2/xp9R+rcz9S+uceXOnxej+39n7XDt1yGThr1M8fFfpTLyj/hr/Dll /hn0v0Fxb6j9Xr6XHm3LjXf7dclCq25MZ3e/NN8kxYp5s/5VX9cj/wAXfoL67w/dfpb6n6vD/J+s fFTK58H8VNkOP+G028s/4V/Ra/4Y+o/orkeH6M9H6vz25U9D4K+OSjVbMZXe/NH33P6lccPU5+m/ H0OPq14mnp8/h5/y8tq9cJQEs8of4b/QNv8A4c4four8ePLn6nM+r6vqfvPV9Svqep8XKvLfBCq2 TO73TnJMUg0T/D/+INX9Hn+n6r9e+s19f6vU+h6Vdvq/Xhw+GteXx8shGrPezldDuTDXP0L+jX/T Xo/o7nF6n1inpc/VX0uVdv73jT3yUqrdjG72Sbz/AP8AKvP0db/43+pfUvV/0X67T+84mvD9r7Ne VO3XIZOGvUzx8V+lkGn/AFD6hb/o70vqHpJ9U+r8fR9LiOHp8Ph4celNqZMV0YG73Y1cf8qv+u6B 636L+s+rL/hyvpf33P8AefV/2efqeG/L/KyHo25eTP178/NluWNbsVSLyp/hXnrX+HuFP0nP+lvT 5cf0hwj9f7W1fs8uO3KveuQhW9d7Od7X3KXmf9E/pjy/+lvW+r/Wz9Tpw+q/XuP+j+v+3y+16P7P Pr8XDGVWLWN0af/Z</xmpGImg:image></rdf:li></rdf:Alt></xmp:Thumbnails></rdf:Description><rdf:Description xmlns:xmpMM="http://ns.adobe.com/xap/1.0/mm/" xmlns:stRef="http://ns.adobe.com/xap/1.0/sType/ResourceRef#" xmlns:stEvt="http://ns.adobe.com/xap/1.0/sType/ResourceEvent#"><xmpMM:RenditionClass>proof:pdf</xmpMM:RenditionClass><xmpMM:OriginalDocumentID>uuid:65E6390686CF11DBA6E2D887CEACB407</xmpMM:OriginalDocumentID><xmpMM:DocumentID>xmp.did:C9A56297C666E71188338B517F3ADCD9</xmpMM:DocumentID><xmpMM:InstanceID>xmp.iid:C9A56297C666E71188338B517F3ADCD9</xmpMM:InstanceID><xmpMM:DerivedFrom rdf:parseType="Resource"><stRef:instanceID>uuid:c5b5eddb-66da-6741-a40d-cc810f9d042d</stRef:instanceID><stRef:documentID>xmp.did:FB05051EC465E111835FF2FC000FBA2B</stRef:documentID><stRef:originalDocumentID>uuid:65E6390686CF11DBA6E2D887CEACB407</stRef:originalDocumentID><stRef:renditionClass>proof:pdf</stRef:renditionClass></xmpMM:DerivedFrom><xmpMM:History><rdf:Seq><rdf:li rdf:parseType="Resource"><stEvt:action>saved</stEvt:action><stEvt:instanceID>xmp.iid:C9A56297C666E71188338B517F3ADCD9</stEvt:instanceID><stEvt:when>2017-07-12T14:54:38+09:00</stEvt:when><stEvt:softwareAgent>Adobe Illustrator CS6 (Windows)</stEvt:softwareAgent><stEvt:changed>/</stEvt:changed></rdf:li></rdf:Seq></xmpMM:History></rdf:Description><rdf:Description xmlns:illustrator="http://ns.adobe.com/illustrator/1.0/"><illustrator:StartupProfile>Web</illustrator:StartupProfile></rdf:Description><rdf:Description xmlns:xmpTPg="http://ns.adobe.com/xap/1.0/t/pg/" xmlns:stDim="http://ns.adobe.com/xap/1.0/sType/Dimensions#" xmlns:xmpG="http://ns.adobe.com/xap/1.0/g/"><xmpTPg:NPages>1</xmpTPg:NPages><xmpTPg:HasVisibleTransparency>False</xmpTPg:HasVisibleTransparency><xmpTPg:HasVisibleOverprint>False</xmpTPg:HasVisibleOverprint><xmpTPg:MaxPageSize rdf:parseType="Resource"><stDim:w>196.323242</stDim:w><stDim:h>39.182617</stDim:h><stDim:unit>Pixels</stDim:unit></xmpTPg:MaxPageSize><xmpTPg:PlateNames><rdf:Seq><rdf:li>Cyan</rdf:li><rdf:li>Magenta</rdf:li><rdf:li>Yellow</rdf:li><rdf:li>Black</rdf:li></rdf:Seq></xmpTPg:PlateNames><xmpTPg:SwatchGroups><rdf:Seq><rdf:li rdf:parseType="Resource"><xmpG:groupName>初期設定のスウォッチグループ</xmpG:groupName><xmpG:groupType>0</xmpG:groupType><xmpG:Colorants><rdf:Seq><rdf:li rdf:parseType="Resource"><xmpG:swatchName>ホワイト</xmpG:swatchName><xmpG:mode>RGB</xmpG:mode><xmpG:type>PROCESS</xmpG:type><xmpG:red>255</xmpG:red><xmpG:green>255</xmpG:green><xmpG:blue>255</xmpG:blue></rdf:li><rdf:li rdf:parseType="Resource"><xmpG:swatchName>ブラック</xmpG:swatchName><xmpG:mode>RGB</xmpG:mode><xmpG:type>PROCESS</xmpG:type><xmpG:red>0</xmpG:red><xmpG:green>0</xmpG:green><xmpG:blue>0</xmpG:blue></rdf:li><rdf:li rdf:parseType="Resource"><xmpG:swatchName>RGB レッド</xmpG:swatchName><xmpG:mode>RGB</xmpG:mode><xmpG:type>PROCESS</xmpG:type><xmpG:red>255</xmpG:red><xmpG:green>0</xmpG:green><xmpG:blue>0</xmpG:blue></rdf:li><rdf:li rdf:parseType="Resource"><xmpG:swatchName>RGB イエロー</xmpG:swatchName><xmpG:mode>RGB</xmpG:mode><xmpG:type>PROCESS</xmpG:type><xmpG:red>255</xmpG:red><xmpG:green>255</xmpG:green><xmpG:blue>0</xmpG:blue></rdf:li><rdf:li rdf:parseType="Resource"><xmpG:swatchName>RGB グリーン</xmpG:swatchName><xmpG:mode>RGB</xmpG:mode><xmpG:type>PROCESS</xmpG:type><xmpG:red>0</xmpG:red><xmpG:green>255</xmpG:green><xmpG:blue>0</xmpG:blue></rdf:li><rdf:li rdf:parseType="Resource"><xmpG:swatchName>RGB シアン</xmpG:swatchName><xmpG:mode>RGB</xmpG:mode><xmpG:type>PROCESS</xmpG:type><xmpG:red>0</xmpG:red><xmpG:green>255</xmpG:green><xmpG:blue>255</xmpG:blue></rdf:li><rdf:li rdf:parseType="Resource"><xmpG:swatchName>RGB ブルー</xmpG:swatchName><xmpG:mode>RGB</xmpG:mode><xmpG:type>PROCESS</xmpG:type><xmpG:red>0</xmpG:red><xmpG:green>0</xmpG:green><xmpG:blue>255</xmpG:blue></rdf:li><rdf:li rdf:parseType="Resource"><xmpG:swatchName>RGB マゼンタ</xmpG:swatchName><xmpG:mode>RGB</xmpG:mode><xmpG:type>PROCESS</xmpG:type><xmpG:red>255</xmpG:red><xmpG:green>0</xmpG:green><xmpG:blue>255</xmpG:blue></rdf:li><rdf:li rdf:parseType="Resource"><xmpG:swatchName>R=193 G=39 B=45</xmpG:swatchName><xmpG:mode>RGB</xmpG:mode><xmpG:type>PROCESS</xmpG:type><xmpG:red>193</xmpG:red><xmpG:green>39</xmpG:green><xmpG:blue>45</xmpG:blue></rdf:li><rdf:li rdf:parseType="Resource"><xmpG:swatchName>R=237 G=28 B=36</xmpG:swatchName><xmpG:mode>RGB</xmpG:mode><xmpG:type>PROCESS</xmpG:type><xmpG:red>237</xmpG:red><xmpG:green>28</xmpG:green><xmpG:blue>36</xmpG:blue></rdf:li><rdf:li rdf:parseType="Resource"><xmpG:swatchName>R=241 G=90 B=36</xmpG:swatchName><xmpG:mode>RGB</xmpG:mode><xmpG:type>PROCESS</xmpG:type><xmpG:red>241</xmpG:red><xmpG:green>90</xmpG:green><xmpG:blue>36</xmpG:blue></rdf:li><rdf:li rdf:parseType="Resource"><xmpG:swatchName>R=247 G=147 B=30</xmpG:swatchName><xmpG:mode>RGB</xmpG:mode><xmpG:type>PROCESS</xmpG:type><xmpG:red>247</xmpG:red><xmpG:green>147</xmpG:green><xmpG:blue>30</xmpG:blue></rdf:li><rdf:li rdf:parseType="Resource"><xmpG:swatchName>R=251 G=176 B=59</xmpG:swatchName><xmpG:mode>RGB</xmpG:mode><xmpG:type>PROCESS</xmpG:type><xmpG:red>251</xmpG:red><xmpG:green>176</xmpG:green><xmpG:blue>59</xmpG:blue></rdf:li><rdf:li rdf:parseType="Resource"><xmpG:swatchName>R=252 G=238 B=33</xmpG:swatchName><xmpG:mode>RGB</xmpG:mode><xmpG:type>PROCESS</xmpG:type><xmpG:red>252</xmpG:red><xmpG:green>238</xmpG:green><xmpG:blue>33</xmpG:blue></rdf:li><rdf:li rdf:parseType="Resource"><xmpG:swatchName>R=217 G=224 B=33</xmpG:swatchName><xmpG:mode>RGB</xmpG:mode><xmpG:type>PROCESS</xmpG:type><xmpG:red>217</xmpG:red><xmpG:green>224</xmpG:green><xmpG:blue>33</xmpG:blue></rdf:li><rdf:li rdf:parseType="Resource"><xmpG:swatchName>R=140 G=198 B=63</xmpG:swatchName><xmpG:mode>RGB</xmpG:mode><xmpG:type>PROCESS</xmpG:type><xmpG:red>140</xmpG:red><xmpG:green>198</xmpG:green><xmpG:blue>63</xmpG:blue></rdf:li><rdf:li rdf:parseType="Resource"><xmpG:swatchName>R=57 G=181 B=74</xmpG:swatchName><xmpG:mode>RGB</xmpG:mode><xmpG:type>PROCESS</xmpG:type><xmpG:red>57</xmpG:red><xmpG:green>181</xmpG:green><xmpG:blue>74</xmpG:blue></rdf:li><rdf:li rdf:parseType="Resource"><xmpG:swatchName>R=0 G=146 B=69</xmpG:swatchName><xmpG:mode>RGB</xmpG:mode><xmpG:type>PROCESS</xmpG:type><xmpG:red>0</xmpG:red><xmpG:green>146</xmpG:green><xmpG:blue>69</xmpG:blue></rdf:li><rdf:li rdf:parseType="Resource"><xmpG:swatchName>R=0 G=104 B=55</xmpG:swatchName><xmpG:mode>RGB</xmpG:mode><xmpG:type>PROCESS</xmpG:type><xmpG:red>0</xmpG:red><xmpG:green>104</xmpG:green><xmpG:blue>55</xmpG:blue></rdf:li><rdf:li rdf:parseType="Resource"><xmpG:swatchName>R=34 G=181 B=115</xmpG:swatchName><xmpG:mode>RGB</xmpG:mode><xmpG:type>PROCESS</xmpG:type><xmpG:red>34</xmpG:red><xmpG:green>181</xmpG:green><xmpG:blue>115</xmpG:blue></rdf:li><rdf:li rdf:parseType="Resource"><xmpG:swatchName>R=0 G=169 B=157</xmpG:swatchName><xmpG:mode>RGB</xmpG:mode><xmpG:type>PROCESS</xmpG:type><xmpG:red>0</xmpG:red><xmpG:green>169</xmpG:green><xmpG:blue>157</xmpG:blue></rdf:li><rdf:li rdf:parseType="Resource"><xmpG:swatchName>R=41 G=171 B=226</xmpG:swatchName><xmpG:mode>RGB</xmpG:mode><xmpG:type>PROCESS</xmpG:type><xmpG:red>41</xmpG:red><xmpG:green>171</xmpG:green><xmpG:blue>226</xmpG:blue></rdf:li><rdf:li rdf:parseType="Resource"><xmpG:swatchName>R=0 G=113 B=188</xmpG:swatchName><xmpG:mode>RGB</xmpG:mode><xmpG:type>PROCESS</xmpG:type><xmpG:red>0</xmpG:red><xmpG:green>113</xmpG:green><xmpG:blue>188</xmpG:blue></rdf:li><rdf:li rdf:parseType="Resource"><xmpG:swatchName>R=46 G=49 B=146</xmpG:swatchName><xmpG:mode>RGB</xmpG:mode><xmpG:type>PROCESS</xmpG:type><xmpG:red>46</xmpG:red><xmpG:green>49</xmpG:green><xmpG:blue>146</xmpG:blue></rdf:li><rdf:li rdf:parseType="Resource"><xmpG:swatchName>R=27 G=20 B=100</xmpG:swatchName><xmpG:mode>RGB</xmpG:mode><xmpG:type>PROCESS</xmpG:type><xmpG:red>27</xmpG:red><xmpG:green>20</xmpG:green><xmpG:blue>100</xmpG:blue></rdf:li><rdf:li rdf:parseType="Resource"><xmpG:swatchName>R=102 G=45 B=145</xmpG:swatchName><xmpG:mode>RGB</xmpG:mode><xmpG:type>PROCESS</xmpG:type><xmpG:red>102</xmpG:red><xmpG:green>45</xmpG:green><xmpG:blue>145</xmpG:blue></rdf:li><rdf:li rdf:parseType="Resource"><xmpG:swatchName>R=147 G=39 B=143</xmpG:swatchName><xmpG:mode>RGB</xmpG:mode><xmpG:type>PROCESS</xmpG:type><xmpG:red>147</xmpG:red><xmpG:green>39</xmpG:green><xmpG:blue>143</xmpG:blue></rdf:li><rdf:li rdf:parseType="Resource"><xmpG:swatchName>R=158 G=0 B=93</xmpG:swatchName><xmpG:mode>RGB</xmpG:mode><xmpG:type>PROCESS</xmpG:type><xmpG:red>158</xmpG:red><xmpG:green>0</xmpG:green><xmpG:blue>93</xmpG:blue></rdf:li><rdf:li rdf:parseType="Resource"><xmpG:swatchName>R=212 G=20 B=90</xmpG:swatchName><xmpG:mode>RGB</xmpG:mode><xmpG:type>PROCESS</xmpG:type><xmpG:red>212</xmpG:red><xmpG:green>20</xmpG:green><xmpG:blue>90</xmpG:blue></rdf:li><rdf:li rdf:parseType="Resource"><xmpG:swatchName>R=237 G=30 B=121</xmpG:swatchName><xmpG:mode>RGB</xmpG:mode><xmpG:type>PROCESS</xmpG:type><xmpG:red>237</xmpG:red><xmpG:green>30</xmpG:green><xmpG:blue>121</xmpG:blue></rdf:li><rdf:li rdf:parseType="Resource"><xmpG:swatchName>R=199 G=178 B=153</xmpG:swatchName><xmpG:mode>RGB</xmpG:mode><xmpG:type>PROCESS</xmpG:type><xmpG:red>199</xmpG:red><xmpG:green>178</xmpG:green><xmpG:blue>153</xmpG:blue></rdf:li><rdf:li rdf:parseType="Resource"><xmpG:swatchName>R=153 G=134 B=117</xmpG:swatchName><xmpG:mode>RGB</xmpG:mode><xmpG:type>PROCESS</xmpG:type><xmpG:red>153</xmpG:red><xmpG:green>134</xmpG:green><xmpG:blue>117</xmpG:blue></rdf:li><rdf:li rdf:parseType="Resource"><xmpG:swatchName>R=115 G=99 B=87</xmpG:swatchName><xmpG:mode>RGB</xmpG:mode><xmpG:type>PROCESS</xmpG:type><xmpG:red>115</xmpG:red><xmpG:green>99</xmpG:green><xmpG:blue>87</xmpG:blue></rdf:li><rdf:li rdf:parseType="Resource"><xmpG:swatchName>R=83 G=71 B=65</xmpG:swatchName><xmpG:mode>RGB</xmpG:mode><xmpG:type>PROCESS</xmpG:type><xmpG:red>83</xmpG:red><xmpG:green>71</xmpG:green><xmpG:blue>65</xmpG:blue></rdf:li><rdf:li rdf:parseType="Resource"><xmpG:swatchName>R=198 G=156 B=109</xmpG:swatchName><xmpG:mode>RGB</xmpG:mode><xmpG:type>PROCESS</xmpG:type><xmpG:red>198</xmpG:red><xmpG:green>156</xmpG:green><xmpG:blue>109</xmpG:blue></rdf:li><rdf:li rdf:parseType="Resource"><xmpG:swatchName>R=166 G=124 B=82</xmpG:swatchName><xmpG:mode>RGB</xmpG:mode><xmpG:type>PROCESS</xmpG:type><xmpG:red>166</xmpG:red><xmpG:green>124</xmpG:green><xmpG:blue>82</xmpG:blue></rdf:li><rdf:li rdf:parseType="Resource"><xmpG:swatchName>R=140 G=98 B=57</xmpG:swatchName><xmpG:mode>RGB</xmpG:mode><xmpG:type>PROCESS</xmpG:type><xmpG:red>140</xmpG:red><xmpG:green>98</xmpG:green><xmpG:blue>57</xmpG:blue></rdf:li><rdf:li rdf:parseType="Resource"><xmpG:swatchName>R=117 G=76 B=36</xmpG:swatchName><xmpG:mode>RGB</xmpG:mode><xmpG:type>PROCESS</xmpG:type><xmpG:red>117</xmpG:red><xmpG:green>76</xmpG:green><xmpG:blue>36</xmpG:blue></rdf:li><rdf:li rdf:parseType="Resource"><xmpG:swatchName>R=96 G=56 B=19</xmpG:swatchName><xmpG:mode>RGB</xmpG:mode><xmpG:type>PROCESS</xmpG:type><xmpG:red>96</xmpG:red><xmpG:green>56</xmpG:green><xmpG:blue>19</xmpG:blue></rdf:li><rdf:li rdf:parseType="Resource"><xmpG:swatchName>R=66 G=33 B=11</xmpG:swatchName><xmpG:mode>RGB</xmpG:mode><xmpG:type>PROCESS</xmpG:type><xmpG:red>66</xmpG:red><xmpG:green>33</xmpG:green><xmpG:blue>11</xmpG:blue></rdf:li></rdf:Seq></xmpG:Colorants></rdf:li><rdf:li rdf:parseType="Resource"><xmpG:groupName>グレー</xmpG:groupName><xmpG:groupType>1</xmpG:groupType><xmpG:Colorants><rdf:Seq><rdf:li rdf:parseType="Resource"><xmpG:swatchName>R=0 G=0 B=0</xmpG:swatchName><xmpG:mode>RGB</xmpG:mode><xmpG:type>PROCESS</xmpG:type><xmpG:red>0</xmpG:red><xmpG:green>0</xmpG:green><xmpG:blue>0</xmpG:blue></rdf:li><rdf:li rdf:parseType="Resource"><xmpG:swatchName>R=26 G=26 B=26</xmpG:swatchName><xmpG:mode>RGB</xmpG:mode><xmpG:type>PROCESS</xmpG:type><xmpG:red>26</xmpG:red><xmpG:green>26</xmpG:green><xmpG:blue>26</xmpG:blue></rdf:li><rdf:li rdf:parseType="Resource"><xmpG:swatchName>R=51 G=51 B=51</xmpG:swatchName><xmpG:mode>RGB</xmpG:mode><xmpG:type>PROCESS</xmpG:type><xmpG:red>51</xmpG:red><xmpG:green>51</xmpG:green><xmpG:blue>51</xmpG:blue></rdf:li><rdf:li rdf:parseType="Resource"><xmpG:swatchName>R=77 G=77 B=77</xmpG:swatchName><xmpG:mode>RGB</xmpG:mode><xmpG:type>PROCESS</xmpG:type><xmpG:red>77</xmpG:red><xmpG:green>77</xmpG:green><xmpG:blue>77</xmpG:blue></rdf:li><rdf:li rdf:parseType="Resource"><xmpG:swatchName>R=102 G=102 B=102</xmpG:swatchName><xmpG:mode>RGB</xmpG:mode><xmpG:type>PROCESS</xmpG:type><xmpG:red>102</xmpG:red><xmpG:green>102</xmpG:green><xmpG:blue>102</xmpG:blue></rdf:li><rdf:li rdf:parseType="Resource"><xmpG:swatchName>R=128 G=128 B=128</xmpG:swatchName><xmpG:mode>RGB</xmpG:mode><xmpG:type>PROCESS</xmpG:type><xmpG:red>128</xmpG:red><xmpG:green>128</xmpG:green><xmpG:blue>128</xmpG:blue></rdf:li><rdf:li rdf:parseType="Resource"><xmpG:swatchName>R=153 G=153 B=153</xmpG:swatchName><xmpG:mode>RGB</xmpG:mode><xmpG:type>PROCESS</xmpG:type><xmpG:red>153</xmpG:red><xmpG:green>153</xmpG:green><xmpG:blue>153</xmpG:blue></rdf:li><rdf:li rdf:parseType="Resource"><xmpG:swatchName>R=179 G=179 B=179</xmpG:swatchName><xmpG:mode>RGB</xmpG:mode><xmpG:type>PROCESS</xmpG:type><xmpG:red>179</xmpG:red><xmpG:green>179</xmpG:green><xmpG:blue>179</xmpG:blue></rdf:li><rdf:li rdf:parseType="Resource"><xmpG:swatchName>R=204 G=204 B=204</xmpG:swatchName><xmpG:mode>RGB</xmpG:mode><xmpG:type>PROCESS</xmpG:type><xmpG:red>204</xmpG:red><xmpG:green>204</xmpG:green><xmpG:blue>204</xmpG:blue></rdf:li><rdf:li rdf:parseType="Resource"><xmpG:swatchName>R=230 G=230 B=230</xmpG:swatchName><xmpG:mode>RGB</xmpG:mode><xmpG:type>PROCESS</xmpG:type><xmpG:red>230</xmpG:red><xmpG:green>230</xmpG:green><xmpG:blue>230</xmpG:blue></rdf:li><rdf:li rdf:parseType="Resource"><xmpG:swatchName>R=242 G=242 B=242</xmpG:swatchName><xmpG:mode>RGB</xmpG:mode><xmpG:type>PROCESS</xmpG:type><xmpG:red>242</xmpG:red><xmpG:green>242</xmpG:green><xmpG:blue>242</xmpG:blue></rdf:li></rdf:Seq></xmpG:Colorants></rdf:li><rdf:li rdf:parseType="Resource"><xmpG:groupName>Web カラーグループ</xmpG:groupName><xmpG:groupType>1</xmpG:groupType><xmpG:Colorants><rdf:Seq><rdf:li rdf:parseType="Resource"><xmpG:swatchName>R=63 G=169 B=245</xmpG:swatchName><xmpG:mode>RGB</xmpG:mode><xmpG:type>PROCESS</xmpG:type><xmpG:red>63</xmpG:red><xmpG:green>169</xmpG:green><xmpG:blue>245</xmpG:blue></rdf:li><rdf:li rdf:parseType="Resource"><xmpG:swatchName>R=122 G=201 B=67</xmpG:swatchName><xmpG:mode>RGB</xmpG:mode><xmpG:type>PROCESS</xmpG:type><xmpG:red>122</xmpG:red><xmpG:green>201</xmpG:green><xmpG:blue>67</xmpG:blue></rdf:li><rdf:li rdf:parseType="Resource"><xmpG:swatchName>R=255 G=147 B=30</xmpG:swatchName><xmpG:mode>RGB</xmpG:mode><xmpG:type>PROCESS</xmpG:type><xmpG:red>255</xmpG:red><xmpG:green>147</xmpG:green><xmpG:blue>30</xmpG:blue></rdf:li><rdf:li rdf:parseType="Resource"><xmpG:swatchName>R=255 G=29 B=37</xmpG:swatchName><xmpG:mode>RGB</xmpG:mode><xmpG:type>PROCESS</xmpG:type><xmpG:red>255</xmpG:red><xmpG:green>29</xmpG:green><xmpG:blue>37</xmpG:blue></rdf:li><rdf:li rdf:parseType="Resource"><xmpG:swatchName>R=255 G=123 B=172</xmpG:swatchName><xmpG:mode>RGB</xmpG:mode><xmpG:type>PROCESS</xmpG:type><xmpG:red>255</xmpG:red><xmpG:green>123</xmpG:green><xmpG:blue>172</xmpG:blue></rdf:li><rdf:li rdf:parseType="Resource"><xmpG:swatchName>R=189 G=204 B=212</xmpG:swatchName><xmpG:mode>RGB</xmpG:mode><xmpG:type>PROCESS</xmpG:type><xmpG:red>189</xmpG:red><xmpG:green>204</xmpG:green><xmpG:blue>212</xmpG:blue></rdf:li></rdf:Seq></xmpG:Colorants></rdf:li></rdf:Seq></xmpTPg:SwatchGroups></rdf:Description><rdf:Description xmlns:pdf="http://ns.adobe.com/pdf/1.3/"><pdf:Producer>Adobe PDF library 10.01</pdf:Producer></rdf:Description></rdf:RDF></x:xmpmeta><?xpacket end="w"?></metadata><g fill="#4A1F00"><path d="M.321 4.381c.96.9 1.521 1.16 2.521 1.16.52 0 1.06-.08 1.82-.24.5-1.3.72-2.14.72-2.84 0-.66-.32-1.061-1.28-1.541.22-.12.32-.14.48-.14.4 0 1.021.18 1.601.46.68.34.94.561.94.84 0 .16-.04.28-.2.521-.08.16-.5.98-1.22 2.461 1.48-.521 1.66-.62 2.22-1.101.16-.14.22-.16.42-.16.78 0 1.36.26 1.36.601 0 .52-1.24 1.02-4.421 1.76-.18.4-.52 1.221-1.06 2.421-.6 1.38-2.141 4.741-2.32 5.081-.3.54-.48.72-.72.72-.34 0-.62-.62-.62-1.42 0-.4.04-.521.22-.721.44-.479.68-.779.96-1.2.98-1.46 1.7-2.82 2.5-4.7-.44.06-.62.079-.94.079-.72 0-1.26-.119-1.76-.42-.6-.34-1.06-.82-1.46-1.46l.239-.161zm10.582 1.12c1.38.12 2.501.48 3.421 1.101.78.5 1.26 1.1 1.26 1.561 0 .34-.2.58-.52.58-.16 0-.28-.04-.46-.16-.56-.34-.94-.42-1.96-.42-1.601 0-2.101.439-2.101 1.82 0 .54.1 1.4.4 3.44 1.221.36 2.261.84 2.841 1.301.54.42.8.939.8 1.58 0 .399-.16.68-.4.68-.2 0-.28-.06-.7-.52-.72-.78-1.38-1.261-2.42-1.761v.38c0 .801-.16 1.261-.56 1.7-.54.54-1.48.86-2.601.86-1.8 0-3.041-.86-3.041-2.12 0-1.4 1.521-2.381 3.741-2.381.46 0 .68.021 1.2.101-.06-1.581-.06-1.74-.06-1.98 0-1.641.16-2.261.7-2.861.4-.42.96-.7 1.9-.939.3-.08.34-.101 1.081-.261-.541-.58-1.161-.899-2.581-1.38l.06-.321zm-1.08 8.762a5.586 5.586 0 00-1.72-.239c-1.701 0-2.741.58-2.741 1.52 0 .74.76 1.181 2 1.181 1.62 0 2.46-.66 2.46-1.921v-.541zm17.379-7.022c-1.4.46-2.041.721-2.601 1.041-.3.18-.42.22-.58.22-.22 0-.62-.26-.88-.601-.36-.46-.66-1.16-.66-1.52 0-.101.04-.24.12-.44.42.82.78 1.101 1.521 1.101.44 0 1.92-.301 3.401-.7.46-1.141.82-2.601.82-3.281 0-.62-.4-.98-1.54-1.34.24-.181.36-.221.58-.221.3 0 .82.101 1.36.261.9.26 1.4.64 1.4 1.06 0 .141-.04.221-.28.58-.26.381-.7 1.32-1.28 2.701.88-.181 1.24-.221 1.74-.221 1.721 0 2.541 1.021 2.541 3.121 0 2.561-1.02 5.881-2.18 7.161-.5.521-1.28.9-1.92.9-.34 0-.5-.14-.54-.46-.06-.561-.1-.6-2.221-2.341l.18-.239c1.52.859 2.681 1.359 3.101 1.359.44 0 .78-.42 1.3-1.68.7-1.641 1.18-3.841 1.18-5.361 0-.84-.18-1.38-.54-1.62-.2-.141-.46-.2-.9-.2-.56 0-.94.08-2.08.4-.28.7-.28.7-1.161 2.72-.1.261-.5 1.181-1.18 2.801-.8 1.881-1.46 3.321-1.78 3.881-.14.261-.3.38-.48.38-.36 0-.58-.52-.58-1.38 0-.5.06-.66.46-1.12.38-.42.92-1.28 1.48-2.36.76-1.461.76-1.461 1.6-3.301l.599-1.301zm7.802-1.28c1.561.46 2.781 1.261 3.661 2.4.76.98 1.141 1.94 1.141 2.821 0 .7-.3 1.1-.8 1.1-.16 0-.24-.02-.46-.14-.34-.2-.44-.22-.82-.22-.7 0-.8 0-2.5.18l-.08-.26c2.101-.641 2.42-.761 3.061-1.021-.08-.68-.26-1.26-.62-1.92-.64-1.24-1.42-2.001-2.741-2.661l.158-.279zm.86-3.08c.62.22 1.38.62 2.041 1.06.72.48.96.82.96 1.341 0 .54-.22.96-.48.96-.2 0-.32-.14-.6-.66-.38-.74-1.3-1.82-2.081-2.46l.16-.241zm1.66-1.32a9.1 9.1 0 012 .86c.72.399 1.06.8 1.06 1.24 0 .54-.18.96-.4.96-.16 0-.3-.14-.58-.54-.54-.841-1.12-1.421-2.241-2.301l.161-.219zm11.058 1.32c.78.58 1.26 1.1 1.541 1.64.18.36.4 1.101.62 2.101 1.38-.74 2.4-1.04 4.181-1.26.26-.98.38-1.761.38-2.341 0-.5-.22-.66-.94-.66h-.38l-.06-.22c.54-.24.96-.34 1.28-.34.76 0 1.58.64 1.58 1.22 0 .36-.3 1.5-.6 2.32 3.321.141 5.601 2.281 5.601 5.281 0 2.221-1.28 4.121-3.641 5.361-1.22.641-2.34.96-3.921 1.16l-.08-.28c1.721-.52 2.821-1.1 3.881-2 1.44-1.261 2.201-2.841 2.201-4.581 0-1.54-.62-2.82-1.72-3.601-.72-.5-1.42-.721-2.501-.78-.82 2.221-2.1 4.621-3.36 6.241.28.42.38.561.72 1 .58.721.62.801.62 1.04 0 .24-.22.44-.48.44-.46 0-1.08-.54-1.72-1.46-.3.42-.76.86-1.54 1.48-.66.5-1.121.72-1.601.72-.46 0-.68-.26-.88-1.021-.18-.64-.26-.82-.6-1.3-.34-.46-.46-.801-.46-1.221 0-1.58 1.14-3.28 3.141-4.661-.36-2.28-.58-2.92-1.521-4.08l.259-.198zm-.081 6.881c-.44.74-.68 1.601-.68 2.361 0 .899.56 1.92 1.041 1.92.46 0 1.46-.7 2.42-1.721-.56-1.3-.82-2.22-1.24-4.32-.78.68-1.16 1.1-1.541 1.76zm3.622 1.52a18.86 18.86 0 002.62-5.321c-1.72.261-2.64.601-3.861 1.44.6 2.341.76 2.841 1.241 3.881zm25.08 5.281c2.16-.64 3.541-1.46 4.681-2.78 1.18-1.341 1.781-2.98 1.781-4.821 0-1.94-.78-3.48-2.261-4.421-.88-.58-2.201-.92-3.461-.92-.24 0-.38 0-.7.04.48.7.62 1.08.62 1.66 0 1.561-1.121 4.48-2.641 6.921-1.26 2.001-2.241 2.981-2.981 2.981-.34 0-.66-.16-.88-.421-.18-.239-.22-.319-.56-1.28-.18-.52-.3-.76-.88-1.88-.32-.641-.46-1.181-.46-1.82 0-1.261.68-2.741 1.8-3.961 1.62-1.721 4.261-2.801 6.881-2.801 2.021 0 3.881.66 5.161 1.841 1.28 1.18 1.92 2.761 1.92 4.701 0 2.5-1.46 4.721-3.981 6.061-1.16.62-2.2.94-3.901 1.24l-.138-.34zm-6.581-6.221c0 .961.3 1.94.8 2.641.28.36.54.58.76.58.44 0 1.4-1.08 2.381-2.641 1.48-2.36 2.541-4.94 2.541-6.181 0-.3-.06-.5-.28-1-3.482.62-6.202 3.521-6.202 6.601zm24.94-5.401c0-.46-.02-.66-.08-1.16 1.42.159 1.641.199 1.86.3.08.04.16.12.16.18 0 .12 0 .12-.68.36v1.561h1c.32-.36.42-.48.76-.841.4.32.541.421.94.721.2.16.261.24.261.34s-.16.22-.561.44v.76c0 .2 0 .2.02 2.101.02 1.12.02 1.12.04 2.9 0 .141-.04.2-.18.22-.16.061-.56.101-.8.101s-.3-.04-.34-.18v-.62h-3.601v3.92c1.82-.359 1.82-.359 3.661-.88-.54-.86-.82-1.22-1.5-1.88l.14-.181c1.861 1.12 2.281 1.4 2.861 2.021.32.32.44.58.44.9 0 .68-.32 1.32-.66 1.32-.18 0-.24-.08-.42-.521-.18-.399-.36-.78-.64-1.26-1.02.479-3.741 1.561-5.601 2.2-.06.561-.14.721-.3.721-.1 0-.2-.08-.28-.24-.04-.08-.12-.28-.24-.641-.2-.52-.2-.54-.4-1.06.66-.061.82-.08 1.68-.24V5.801c-.82.921-1.18 1.241-2.021 1.861l-.2-.261c1.34-1.521 1.78-2.141 2.66-3.7.92-1.641 1.34-2.521 1.681-3.581 1.66.44 2.12.62 2.12.82 0 .14-.16.2-.82.3l-.1.18c.96.24 1.64.501 2.26.801.72.359.9.6.9 1.18 0 .601-.199 1.001-.5 1.001-.12 0-.2-.061-.36-.261-.84-1.06-1.78-1.94-2.541-2.36a33.4 33.4 0 01-2.88 3.801c.4.181.56.28 1.06.601h1.2V4.941zm2.4 3.781v-2.08h-3.601v2.08h3.601zm-3.601.46v2.48h3.601v-2.48h-3.601zm9.603-6.301v-1.24c0-.54-.021-.82-.101-1.44 1.501.16 1.78.22 2.001.34.08.04.12.101.12.14-.021.16-.2.261-.801.461v1.74h2.241c.359-.5.479-.641.84-1.101.66.5.86.66 1.4 1.181.18.22.22.279.22.34 0 .18-.22.26-.92.3-.74.62-.98.78-1.7 1.24l-.24-.18c.26-.42.34-.54.64-1.32h-5.921c-.08.68-.16 1-.4 1.62.7.36.801.42 1.36.801h3.741c.28-.36.38-.461.68-.82.521.319.681.42 1.141.78.14.1.18.159.18.26 0 .14-.1.24-.54.52v1.061c0 .5 0 .681.04 2.74-.02.301-.16.341-1.021.341-.18 0-.22-.021-.279-.16v-.48h-4.062v2.28h4.481c.28-.439.38-.56.68-.96.54.36.721.46 1.2.801.181.159.261.26.261.34 0 .12-.141.24-.58.56v1.381c0 1 .02 1.92.06 3.66 0 .141-.04.221-.12.24-.18.08-.58.141-1.021.141-.22 0-.279-.061-.279-.24v-1.2h-4.682v1.3c-.02.16-.08.2-.199.24-.2.04-.521.08-.78.08-.221 0-.301-.04-.301-.2v-.12c.021-2.9.061-8.922.061-10.642 0-.381 0-.44-.021-1.161-.02-.56-.02-1.04-.04-1.439-.16.34-.279.479-.54.66-.12.079-.3.159-.359.159-.28 0-.501-.54-.501-1.22 0-.24.04-.3.26-.4.281-.14.48-.34.721-.78.36-.64.5-1.22.54-2.141h.38c.021.28.021.501.021.641 0 .3 0 .521-.04.9h2.179zm2.681 6.661v-3.32h-4.062v3.32h4.062zm.62 7.002v-3.801h-4.682v3.801h4.682zm32.119-8.843c.601-.739.801-.96 1.381-1.66.92.761 1.18.98 2.061 1.78.04.08.08.16.08.181 0 .1-.101.16-.24.16h-6.701v7.861c0 .48.02.48 2.08.48 2.08 0 2.2-.021 2.44-.4.18-.32.62-1.74 1.2-3.901l.3.021-.26 3.32-.04.36c0 .2.12.32.42.44.301.12.42.26.42.52 0 .32-.239.54-.68.681-.4.1-1.601.16-3.36.16-2.48 0-3.041-.04-3.421-.261-.32-.18-.44-.5-.48-1.16 0-1.22 0-1.22.021-3.62V8.162h-2.521c-.061 1.18-.101 1.52-.221 2.26-.479 2.661-1.5 4.541-3.261 5.962-.939.76-1.8 1.22-3.36 1.82l-.16-.32c1.42-.76 2.221-1.36 3.161-2.381 1.56-1.72 2.2-3.681 2.4-7.341h-4.682c-.3 0-.62.02-1.14.1l-.141-.78c1.041.181 1.461.22 2.261.22h5.882V2.78c0-1.24-.021-1.48-.12-2.28 2.101.22 2.46.3 2.46.54 0 .181-.26.32-.9.44v6.221h5.121zM127.441 1.48c.98.84 1.881 1.681 2.48 2.38.5.581.74 1.061.74 1.48 0 .681-.479 1.501-.86 1.501-.22 0-.3-.141-.46-.74-.399-1.48-1.12-2.961-2.181-4.421l.281-.2zm8.363 5.721c1.34-2.14 2.34-4.16 2.801-5.661 2.14.78 2.26.841 2.26 1.04 0 .221-.38.341-1.06.341-2.561 3.301-2.561 3.301-3.721 4.501l-.28-.221zm20.138-5.4h-4.141c-.74 0-.801 0-1.86.1l-.141-.76c.66.159 1.141.199 2.041.199h9.122c.52-.58.68-.76 1.18-1.34.841.62 1.101.82 1.94 1.54.04.061.061.101.061.141 0 .06-.08.12-.16.12h-6.682v1.68h6.201c.32-.359.42-.479.78-.82.761.541.98.7 1.7 1.28.12.08.16.141.16.221 0 .2-.2.26-1.26.28-.24.26-.24.26-.82.84-.42.42-.42.42-.721.74l-.22-.101c.34-1.08.4-1.24.601-1.98h-6.422v2.361c0 .26 0 1.28.021 3.04-.021.141-.061.2-.141.221-.1.04-.62.079-.98.079-.159 0-.239-.06-.279-.22.02-1.04.02-1.18.02-1.62V3.94h-5.821c-.2 1.721-.92 3.102-1.62 3.102-.3 0-.62-.541-.62-1.081 0-.22.1-.399.38-.6.86-.601 1.221-1.24 1.62-2.781h.301v.501c0 .08 0 .199-.021.399h5.781V1.801zm.121 11.221c-1.04 1.301-1.9 2.201-2.86 3.061 4.2-.119 5.401-.159 7.981-.34-.58-.52-1.04-.88-2.221-1.72l.141-.221c1.32.48 3.16 1.36 4.04 1.94.7.44.921.801.921 1.521 0 .54-.16.92-.4.92-.12 0-.22-.06-.36-.26-.439-.54-1.38-1.521-1.74-1.82-1.3.28-2.061.4-3.681.64-2.561.36-3.021.4-7.701.78-.181.58-.301.841-.44.841-.08 0-.16-.08-.22-.221-.061-.12-.12-.439-.181-.859-.1-.581-.16-.98-.22-1.241.5 0 .5 0 1.4.04.28.021.62.021 1.061.021h.979c.62-1.021 1-1.761 1.601-3.081h-3.86c-.641 0-1.581.061-2.121.12l-.12-.78c.801.16 1.541.221 2.36.221h12.143c.44-.58.58-.74 1.061-1.28.98.72.98.72 1.841 1.34.06.08.08.141.08.18 0 .08-.12.2-.2.2h-9.284zm-6.482-5.121c.601.101.86.12 1.381.12h1.979c.4-.46.521-.58.961-1 .58.46.74.601 1.28 1.12.06.08.1.16.1.22 0 .061-.08.12-.18.12h-4.141c-.421 0-.681.021-1.241.061l-.139-.641zm.481 2.361c.78.101 1.32.141 2.44.141h8.201c.341-.4.7-.82 1.061-1.24.76.58.98.76 1.7 1.4.04.06.08.12.08.14 0 .08-.1.16-.2.16h-10.842c-1.74.04-1.74.04-2.32.1l-.12-.701zm.12-4.58c.34.06.8.1 1.18.1h1.62c.36-.48.48-.601.9-1.021.54.48.721.641 1.261 1.16.06.08.08.141.08.181 0 .06-.08.14-.16.14h-3.661c-.439 0-.64 0-1.1.04l-.12-.6zm7.84-.021c.74.12.74.12 1.121.12h1.5l.92-1.04c.561.52.74.68 1.32 1.24.021.04.04.08.04.1 0 .08-.1.16-.2.16h-3.58c-.061 0-.4.021-1.041.04l-.08-.62zm0 2.24c.36.08.681.12 1.181.12h2.141c.4-.479.54-.62.96-1.08.62.48.82.66 1.44 1.24.04.061.06.12.06.18 0 .061-.079.12-.159.12h-4.441c-.28 0-.521.021-1.08.08l-.102-.66zm24.242.421c.359-.32.479-.421.86-.721.46.4.6.54 1.08.98.1.12.14.18.14.24 0 .14-.02.14-.92.3-1.04.98-1.561 1.4-2.541 2.061 1.881.8 3.021 1.08 5.781 1.38v.221c-.56.159-.74.319-1.1 1.08-2.261-.601-3.981-1.32-5.382-2.221-1 .58-1.92 1.04-3.12 1.54.14.12.22.181.439.34h4.962c.199-.14.239-.18.42-.319.439.2.58.26 1.02.479.16.12.24.181.24.221 0 .08-.18.26-.42.38-.02.5-.02.74-.02.94 0 0 0 .399.02 1.2v.78c.021.04.021.06.021.1 0 .16-.36.26-.94.26-.16 0-.221-.06-.221-.18v-.5h-5.081v.72c0 .16-.04.221-.14.261-.12.04-.54.079-.8.079-.181 0-.221-.039-.261-.18.021-.54.061-2.82.061-3.24v-1.061c-.92.36-1.44.521-2.621.84l-.12-.319c2.301-.841 3.881-1.641 5.762-2.901-.94-.7-1.301-1.04-1.881-1.74-1.18 1.16-2.12 1.82-3.721 2.621l-.16-.221c2.061-1.54 3.461-3.12 4.521-5.081-.32.04-.44.061-.561.061-.239 0-.3-.04-.319-.16v-.46h-4.281v8.642c.02 1.32.02 2.501.02 3.541-.02.22-.159.28-.779.3-.141.02-.24.02-.28.02h-.061c-.2 0-.319-.079-.319-.22v-.1c.079-3.541.079-4.461.079-6.742 0-7.761-.02-10.262-.079-11.202.699.32.899.44 1.58.801h4.001c.319-.36.439-.48.78-.801.52.34.66.44 1.12.801.16.12.2.18.2.22 0 .1-.24.3-.681.54v1.08c0 .66 0 1.061.04 3.381 0 .16-.02.18-.16.24 1.62.42 1.62.42 1.62.56 0 .16-.26.24-.939.28-.301.42-.421.561-.681.881h3.822zm-5.001-6.721h-4.281v1.7h4.281v-1.7zm0 2.16h-4.281v1.881h4.281V3.761zm.239 10.222v2.44h5.081v-2.44h-5.081zm.54-5.201c-.119.14-.18.199-.34.359.7.66 1.221 1.021 2.221 1.561.9-.66 1.36-1.04 2.24-1.92h-4.121zm4.422-2.68v.581c0 .14-.16.2-.7.24-.141 0-.24.02-.28.02h-.061c-.18 0-.239-.06-.26-.2.04-1.08.06-3 .06-4.341 0-.28-.02-.98-.06-2.061.641.301.82.42 1.4.801h4.361c.359-.36.46-.461.84-.801.48.32.62.44 1.08.801.16.14.22.22.22.26 0 .08-.18.26-.58.54v12.202c0 .021.021 1.4.04 2.821 0 .479-.06.68-.24.86-.279.26-.96.5-2.02.7-.04-.581-.16-.86-.48-1.081-.24-.159-.24-.159-1.58-.34v-.3c1.88.06 1.88.06 2.721.08.18-.021.18-.021.18-.181V6.102h-4.641zm4.64-4.501h-4.641v1.7h4.641v-1.7zm0 2.16h-4.641v1.881h4.641V3.761zM2.962 27.717c-.563.756-.875 1.224-1.199 1.823-.6 1.104-.875 2.339-.875 3.826s.288 2.71.875 3.813c.324.6.636 1.067 1.199 1.823l-.18.18c-.647-.516-1.056-.959-1.487-1.619A7.455 7.455 0 010 33.378a7.549 7.549 0 012.783-5.841l.179.18zm4.254 2.663c.576.54.912.695 1.511.695.312 0 .636-.048 1.091-.144.3-.779.432-1.283.432-1.703 0-.396-.192-.636-.768-.924a.518.518 0 01.288-.084c.24 0 .611.108.959.276.408.203.563.336.563.504 0 .096-.024.167-.12.312-.048.096-.3.588-.732 1.475.888-.312.996-.371 1.332-.659.096-.084.132-.096.252-.096.468 0 .815.155.815.359 0 .312-.744.611-2.65 1.056-.108.24-.312.731-.636 1.451-.36.827-1.283 2.843-1.392 3.046-.18.324-.288.432-.432.432-.204 0-.372-.371-.372-.851 0-.24.024-.313.132-.433a5.38 5.38 0 00.576-.719c.588-.876 1.02-1.691 1.499-2.819a3.574 3.574 0 01-.563.049c-.432 0-.756-.072-1.056-.252-.36-.204-.636-.492-.875-.876l.146-.095zm6.345.672c.827.071 1.499.287 2.051.659.468.3.755.66.755.936 0 .204-.12.348-.312.348a.447.447 0 01-.276-.096c-.336-.204-.564-.252-1.176-.252-.959 0-1.259.264-1.259 1.092 0 .323.06.839.24 2.063.731.216 1.355.504 1.703.779.324.252.479.563.479.947 0 .24-.096.408-.24.408-.12 0-.168-.036-.42-.312-.432-.468-.828-.756-1.451-1.056v.228c0 .48-.096.756-.336 1.02-.324.324-.887.516-1.559.516-1.079 0-1.823-.516-1.823-1.271 0-.84.911-1.428 2.243-1.428.276 0 .408.012.72.06-.036-.947-.036-1.043-.036-1.187 0-.983.096-1.355.42-1.716.24-.252.576-.419 1.139-.563.18-.048.204-.06.647-.155-.324-.349-.695-.54-1.547-.828l.038-.192zm-.648 5.253a3.347 3.347 0 00-1.031-.145c-1.02 0-1.643.349-1.643.912 0 .443.456.707 1.199.707.972 0 1.475-.396 1.475-1.151v-.323zm10.43-4.21c-.84.276-1.224.432-1.56.624-.18.107-.251.132-.348.132-.132 0-.372-.156-.528-.36-.216-.275-.396-.695-.396-.911 0-.06.024-.144.072-.264.252.491.468.659.912.659.264 0 1.151-.18 2.039-.42.276-.684.492-1.559.492-1.967 0-.371-.24-.587-.924-.804.144-.107.216-.132.348-.132.18 0 .492.061.815.156.54.156.839.384.839.636 0 .084-.024.132-.168.348-.156.228-.419.792-.768 1.619.528-.107.744-.132 1.043-.132 1.032 0 1.523.611 1.523 1.871 0 1.535-.612 3.526-1.308 4.294-.3.312-.768.539-1.151.539-.204 0-.3-.084-.324-.275-.036-.336-.06-.36-1.331-1.403l.108-.145c.912.517 1.607.816 1.859.816.264 0 .468-.252.78-1.008.419-.983.708-2.303.708-3.214 0-.504-.108-.828-.324-.972-.12-.084-.276-.12-.54-.12-.335 0-.563.048-1.247.24-.168.419-.168.419-.696 1.631-.06.155-.3.707-.708 1.679-.48 1.128-.875 1.991-1.067 2.327-.084.155-.18.228-.288.228-.216 0-.348-.312-.348-.827 0-.3.036-.396.276-.672.228-.252.552-.768.888-1.415.456-.876.456-.876.959-1.979l.363-.779zm4.677-.768c.936.276 1.667.756 2.195 1.439.456.588.684 1.163.684 1.69 0 .42-.18.66-.48.66-.096 0-.144-.012-.276-.084-.204-.12-.264-.132-.492-.132-.419 0-.479 0-1.499.107l-.048-.155c1.259-.384 1.451-.456 1.835-.612a3.016 3.016 0 00-.372-1.151c-.384-.743-.851-1.199-1.643-1.595l.096-.167zm.516-1.847c.372.132.828.371 1.223.636.432.287.576.491.576.804 0 .323-.132.575-.288.575-.12 0-.192-.084-.36-.396-.228-.444-.78-1.092-1.247-1.476l.096-.143zm.995-.792c.408.12.803.288 1.199.516.432.24.636.48.636.744 0 .323-.108.575-.24.575-.096 0-.18-.084-.348-.323-.324-.504-.671-.852-1.343-1.38l.096-.132zm6.64.792c.468.348.756.659.924.983.108.216.24.659.372 1.259.828-.443 1.439-.623 2.507-.755.156-.588.228-1.056.228-1.403 0-.3-.132-.396-.563-.396h-.228l-.036-.132c.324-.144.576-.203.768-.203.456 0 .948.384.948.731 0 .216-.18.899-.36 1.391 1.991.084 3.358 1.367 3.358 3.167 0 1.331-.768 2.471-2.183 3.214-.731.384-1.403.575-2.351.695l-.048-.168c1.031-.312 1.691-.659 2.327-1.199.863-.755 1.319-1.703 1.319-2.746 0-.924-.372-1.691-1.032-2.159-.432-.3-.852-.432-1.499-.468-.492 1.331-1.259 2.771-2.015 3.742.168.252.228.336.432.6.348.432.372.479.372.624 0 .144-.132.264-.288.264-.276 0-.648-.324-1.032-.876-.18.252-.456.516-.923.888-.396.3-.671.432-.959.432-.276 0-.408-.155-.528-.611-.108-.384-.156-.492-.36-.779-.204-.276-.276-.48-.276-.732 0-.947.684-1.967 1.883-2.794-.216-1.367-.348-1.751-.912-2.446l.155-.123zm-.048 4.126a2.856 2.856 0 00-.408 1.415c0 .539.336 1.151.624 1.151.276 0 .875-.42 1.451-1.031-.336-.78-.492-1.332-.744-2.591-.467.408-.695.66-.923 1.056zm2.171.912a11.325 11.325 0 001.571-3.19c-1.032.156-1.583.36-2.315.863.36 1.403.456 1.703.744 2.327zm15.048 3.166c1.295-.384 2.123-.875 2.806-1.667.708-.804 1.067-1.787 1.067-2.891 0-1.163-.467-2.087-1.355-2.65-.528-.348-1.319-.552-2.075-.552-.144 0-.228 0-.42.024.288.42.372.647.372.995 0 .936-.671 2.687-1.583 4.149-.755 1.2-1.343 1.787-1.787 1.787a.693.693 0 01-.527-.252c-.108-.144-.132-.191-.336-.768-.108-.312-.18-.455-.528-1.127-.192-.384-.276-.708-.276-1.092 0-.755.408-1.643 1.08-2.374.971-1.032 2.554-1.68 4.125-1.68 1.211 0 2.327.396 3.094 1.104.768.708 1.151 1.655 1.151 2.818 0 1.499-.875 2.831-2.387 3.634-.695.372-1.319.564-2.338.744l-.083-.202zm-3.946-3.73c0 .575.18 1.163.479 1.583.168.216.324.348.456.348.264 0 .839-.647 1.427-1.583.887-1.415 1.523-2.963 1.523-3.706 0-.18-.036-.3-.168-.6-2.086.372-3.717 2.11-3.717 3.958zm17.985-5.697c1.248.6 1.739 1.092 1.739 1.739 0 .288-.132.456-.36.456-.072 0-.096-.013-.372-.12-.324-.12-.78-.216-1.308-.276-.815-.096-1.583-.155-1.859-.155s-.456.132-.456.335c0 .168.252.768.792 1.871.66-.359 1.415-.707 2.099-.971.875-.336 1.571-.48 2.303-.48 1.451 0 2.483.78 2.483 1.896 0 .468-.24 1.007-.612 1.367-.432.42-1.091.647-1.907.647-.972 0-1.979-.336-2.723-.899l.084-.18a4.911 4.911 0 002.099.504c.804 0 1.439-.229 1.799-.648.252-.287.384-.647.384-1.031 0-.827-.624-1.295-1.727-1.295-.648 0-1.235.168-2.267.659-.563.276-1.115.576-1.775.972a37.528 37.528 0 011.343 2.986c.468 1.188.588 1.571.588 1.967 0 .516-.228.899-.552.899-.06 0-.132-.048-.192-.12-.072-.084-.108-.203-.156-.527-.228-1.499-.72-3.13-1.487-4.941-.684.456-1.091.744-1.235.84-.18.132-.228.168-.324.24-.156.132-.264.18-.42.18-.528 0-1.271-.768-1.271-1.308 0-.048.012-.107.048-.204.275.408.563.624.839.624.336 0 1.055-.324 2.099-.924-.3-.671-.587-1.175-.827-1.475-.215-.289-.25-.362-.25-.517 0-.396.468-.816.899-.816.144 0 .156 0 .372.061.072.023.144.023.312.036.048 0 .42 0 .959.012.3.012.54.012.899.012.696 0 .792-.023.792-.155 0-.24-.419-.708-.971-1.104l.119-.157zm11.678 3.778c-.839.287-1.247.443-1.559.623-.18.108-.252.132-.348.132-.132 0-.372-.155-.528-.359-.216-.276-.396-.695-.396-.911 0-.061.024-.145.072-.265.252.504.468.66.912.66.264 0 1.091-.168 2.039-.42.276-.695.492-1.547.492-1.967 0-.372-.228-.576-.923-.804.144-.096.216-.12.36-.12.18 0 .479.061.804.156.54.156.839.372.839.624 0 .096-.024.144-.168.348-.168.252-.42.791-.768 1.631.528-.12.755-.144 1.043-.144 1.031 0 1.523.611 1.523 1.87 0 1.535-.611 3.526-1.307 4.306-.3.324-.768.54-1.151.54-.204 0-.3-.084-.324-.275-.036-.336-.06-.36-1.332-1.403l.108-.156c.923.527 1.607.827 1.859.827.276 0 .468-.251.779-1.007.42-.983.708-2.314.708-3.227 0-.804-.216-1.091-.852-1.091-.359 0-.575.048-1.259.251-.167.408-.167.408-.695 1.632-.048.12-.288.684-.708 1.679-.48 1.128-.875 1.991-1.067 2.327-.084.155-.18.228-.288.228-.216 0-.348-.312-.348-.827 0-.313.036-.396.276-.672.24-.264.54-.768.887-1.415.456-.888.456-.888.959-1.991l.361-.78zm4.677-.767c.935.275 1.667.755 2.194 1.438.456.588.684 1.164.684 1.703 0 .408-.18.648-.48.648a.461.461 0 01-.276-.084c-.192-.108-.264-.12-.492-.12-.42 0-.479 0-1.499.107l-.048-.168c1.211-.371 1.463-.455 1.835-.611a3.078 3.078 0 00-.372-1.151c-.384-.731-.852-1.188-1.643-1.595l.097-.167zm6.736-.372c.492.504.803.659 1.319.659.468 0 .972-.071 1.523-.228.24-.779.408-1.619.408-2.026 0-.372-.18-.528-.852-.756.156-.084.216-.108.372-.108.276 0 .671.084 1.031.229.36.132.54.3.54.479 0 .084 0 .084-.144.288-.156.228-.42.863-.72 1.715.671-.24 1.104-.468 1.391-.731.192-.181.24-.204.336-.204.156 0 .444.06.636.132.132.048.192.12.192.216 0 .204-.192.36-.696.588-.54.239-1.343.504-2.099.695-.144.408-.144.408-.503 1.523-.24.72-.24.72-.899 2.675-.48 1.427-.636 1.727-.888 1.727-.12 0-.204-.072-.276-.24a1.786 1.786 0 01-.168-.695c0-.191.012-.228.264-.588.6-.875 1.067-1.919 1.883-4.293-.456.084-.804.12-1.151.12-.731 0-1.199-.313-1.643-1.08l.144-.097zm4.785 4.137c-.012.18-.012.324-.012.372 0 .684.324 1.199.912 1.451.324.144.816.228 1.283.228.492 0 .768-.036 1.151-.18a.538.538 0 01.204-.048c.132 0 .408.132.612.287.144.12.216.229.216.336 0 .265-.468.396-1.416.396-.923 0-1.691-.132-2.219-.384-.647-.313-1.019-.936-1.019-1.739 0-.264.024-.468.108-.756l.18.037zm.324-2.219c.864-.516 1.847-.804 2.783-.804.252 0 .563.084.755.216.12.072.191.204.191.336 0 .192-.107.264-.455.276-.444.023-.588.06-.924.239-.24.132-.251.132-.659.408-.228.144-.228.144-.42.252l-.072-.107c.144-.144.144-.144.576-.54.108-.096.216-.191.587-.563-.792 0-1.427.132-2.291.444l-.071-.157zm16.43 1.284c-.023.264-.035.372-.035.54 0 1.427.899 2.099 2.83 2.099.947 0 1.943-.168 2.65-.432a.46.46 0 01.204-.048c.18 0 .456.107.659.239.168.132.265.276.265.42 0 .18-.132.312-.384.372-.552.144-1.728.239-2.795.239-1.343 0-2.194-.167-2.794-.575-.601-.384-.996-1.14-.996-1.895 0-.288.061-.612.192-1.008l.204.049zm.372-4.738c.612.408 1.031.527 1.835.527.792 0 1.799-.144 2.495-.359.084-.024.18-.048.216-.048.312 0 .72.359.72.623 0 .204-.072.24-.876.42-.468.096-.575.145-1.751.588-.288.108-.288.108-.983.408-.24.096-.24.107-.468.191l-.084-.18c.372-.216.563-.336.876-.504.815-.443.815-.443 1.007-.563-.264.023-.684.036-.899.036-.443 0-.995-.132-1.367-.324-.312-.168-.504-.336-.84-.695l.119-.12zm15.767 9.379c.708-.576 1.176-1.067 1.583-1.728.624-1.02 1.02-2.41 1.02-3.646 0-1.188-.432-1.919-1.14-1.919-.636 0-1.475.516-2.303 1.415-.228.228-.3.276-.491.276-.252 0-.54-.192-.792-.54-.204-.276-.323-.588-.323-.804 0-.156.048-.264.191-.443.108.527.348.827.66.827.168 0 .479-.132 1.103-.468 1.02-.552 1.416-.684 2.027-.684.552 0 1.14.312 1.487.804.288.42.456 1.043.456 1.763 0 1.415-.54 2.818-1.487 3.874-.588.647-1.199 1.104-1.883 1.403l-.108-.13zm-.659-10.902c.587.492 1.402.768 2.242.768h.276c.239 0 .407.084.647.288.168.144.252.288.252.408 0 .167-.168.264-.492.264-.504.012-.504.012-2.986.731l-.06-.168c.899-.408 1.727-.779 2.026-.888-.983-.204-1.571-.575-2.026-1.308l.121-.095zm14.579 10.902c.708-.576 1.176-1.067 1.583-1.728.624-1.02 1.02-2.41 1.02-3.646 0-1.188-.432-1.919-1.14-1.919-.636 0-1.475.516-2.303 1.415-.228.228-.3.276-.491.276-.252 0-.54-.192-.792-.54-.204-.276-.323-.588-.323-.804 0-.156.048-.264.191-.443.108.527.348.827.66.827.168 0 .479-.132 1.103-.468 1.02-.552 1.416-.684 2.027-.684.552 0 1.14.312 1.487.804.288.42.456 1.043.456 1.763 0 1.415-.54 2.818-1.487 3.874-.588.647-1.199 1.104-1.883 1.403l-.108-.13zm-.659-10.902c.587.492 1.402.768 2.242.768h.276c.239 0 .407.084.647.288.168.144.252.288.252.408 0 .167-.168.264-.492.264-.504.012-.504.012-2.986.731l-.06-.168c.899-.408 1.727-.779 2.026-.888-.983-.204-1.571-.575-2.026-1.308l.121-.095zm20.468 5.985c-.252 1.091-.624 1.931-1.175 2.674-.66.888-1.571 1.428-2.399 1.428-.371 0-.768-.132-1.031-.348-.336-.276-.443-.636-.527-1.619-.072-.768-.12-1.056-.216-1.296-.132-.384-.42-.575-.815-.575-1.032 0-2.111 1.199-2.795 3.106-.216.611-.252.671-.432.671-.12 0-.24-.119-.324-.323-.084-.229-.155-.516-.155-.66 0-.144.035-.228.168-.407.491-.672 1.259-2.039 2.398-4.294.756-1.476 1.104-2.339 1.104-2.698 0-.384-.192-.588-.815-.888.132-.072.228-.108.335-.108.276 0 .756.204 1.224.54.3.204.408.348.408.527 0 .168-.024.217-.216.456-.168.204-.564.84-1.067 1.703-.181.3-.468.804-.888 1.512a50.723 50.723 0 00-.972 1.679h.024c.779-.804 1.438-1.176 2.074-1.176.6 0 1.08.288 1.355.804.168.324.204.504.384 1.619.108.647.359.936.815.936 1.199 0 2.591-1.379 3.347-3.311l.191.048zm6.616-1.787c-.84.287-1.247.443-1.56.623-.18.108-.252.132-.348.132-.132 0-.372-.155-.527-.359-.216-.276-.396-.695-.396-.911 0-.061.024-.145.072-.265.252.504.468.66.912.66.264 0 1.091-.168 2.038-.42.276-.695.492-1.547.492-1.967 0-.372-.228-.576-.924-.804.145-.096.216-.12.36-.12.18 0 .479.061.803.156.54.156.84.372.84.624 0 .096-.023.144-.168.348-.168.252-.42.791-.768 1.631.528-.12.756-.144 1.044-.144 1.031 0 1.522.611 1.522 1.87 0 1.535-.611 3.526-1.307 4.306-.3.324-.768.54-1.151.54-.204 0-.3-.084-.324-.275-.036-.336-.06-.36-1.331-1.403l.107-.156c.924.527 1.607.827 1.859.827.276 0 .468-.251.779-1.007.42-.983.708-2.314.708-3.227 0-.804-.216-1.091-.852-1.091-.359 0-.576.048-1.26.251-.167.408-.167.408-.695 1.632-.048.12-.288.684-.707 1.679-.48 1.128-.876 1.991-1.067 2.327-.084.155-.181.228-.288.228-.216 0-.348-.312-.348-.827 0-.313.035-.396.275-.672.24-.264.54-.768.888-1.415.456-.888.456-.888.959-1.991l.363-.78zm4.678-.767c.935.275 1.667.755 2.194 1.438.456.588.684 1.164.684 1.703 0 .408-.18.648-.479.648a.461.461 0 01-.276-.084c-.191-.108-.264-.12-.491-.12-.42 0-.479 0-1.499.107l-.049-.168c1.212-.371 1.464-.455 1.836-.611a3.096 3.096 0 00-.372-1.151c-.384-.731-.852-1.188-1.644-1.595l.096-.167zm11.389-3.059c.336 0 .996.312 1.331.636.192.191.265.312.265.479 0 .156-.061.228-.696.744-.647.539-1.822 1.643-2.206 2.074-.42.468-.576.744-.576.972 0 .168.12.384.359.624.168.18.168.18.84.791 1.308 1.212 1.919 1.883 2.207 2.447.132.251.18.468.18.791 0 .456-.156.72-.407.72-.156 0-.204-.06-.408-.492a11.25 11.25 0 00-1.008-1.69c-.443-.636-.503-.708-1.751-2.171-.323-.396-.455-.684-.455-1.008 0-.384.191-.707.923-1.606 1.451-1.764 1.812-2.268 1.812-2.555 0-.204-.156-.384-.66-.708a.543.543 0 01.25-.048zm8.798 10.794c1.583-2.11 2.075-3.454 2.075-5.637 0-2.195-.492-3.538-2.075-5.649l.18-.18c1.764 1.415 2.783 3.55 2.783 5.805s-1.032 4.426-2.783 5.841l-.18-.18z"/></g></svg>