<svg version="1.1" baseProfile="tiny" id="レイヤー_1" xmlns="http://www.w3.org/2000/svg" x="0" y="0" width="520.412" height="20.727" viewBox="0 0 520.412 20.727" xml:space="preserve"><metadata><?xpacket begin="﻿" id="W5M0MpCehiHzreSzNTczkc9d"?><x:xmpmeta xmlns:x="adobe:ns:meta/" x:xmptk="Adobe XMP Core 5.3-c011 66.145661, 2012/02/06-14:56:27"><rdf:RDF xmlns:rdf="http://www.w3.org/1999/02/22-rdf-syntax-ns#"><rdf:Description xmlns:dc="http://purl.org/dc/elements/1.1/"><dc:format>image/svg+xml</dc:format><dc:title><rdf:Alt><rdf:li xml:lang="x-default">Web</rdf:li></rdf:Alt></dc:title></rdf:Description><rdf:Description xmlns:xmp="http://ns.adobe.com/xap/1.0/" xmlns:xmpGImg="http://ns.adobe.com/xap/1.0/g/img/"><xmp:CreatorTool>Adobe Illustrator CS6 (Windows)</xmp:CreatorTool><xmp:CreateDate>2017-07-12T13:50:47+09:00</xmp:CreateDate><xmp:ModifyDate>2017-07-12T13:50:47+09:00</xmp:ModifyDate><xmp:MetadataDate>2017-07-12T13:50:47+09:00</xmp:MetadataDate><xmp:Thumbnails><rdf:Alt><rdf:li rdf:parseType="Resource"><xmpGImg:width>256</xmpGImg:width><xmpGImg:height>12</xmpGImg:height><xmpGImg:format>JPEG</xmpGImg:format><xmpGImg:image>/9j/4AAQSkZJRgABAgEASABIAAD/7QAsUGhvdG9zaG9wIDMuMAA4QklNA+0AAAAAABAASAAAAAEA AQBIAAAAAQAB/+4ADkFkb2JlAGTAAAAAAf/bAIQABgQEBAUEBgUFBgkGBQYJCwgGBggLDAoKCwoK DBAMDAwMDAwQDA4PEA8ODBMTFBQTExwbGxscHx8fHx8fHx8fHwEHBwcNDA0YEBAYGhURFRofHx8f Hx8fHx8fHx8fHx8fHx8fHx8fHx8fHx8fHx8fHx8fHx8fHx8fHx8fHx8fHx8f/8AAEQgADAEAAwER AAIRAQMRAf/EAaIAAAAHAQEBAQEAAAAAAAAAAAQFAwIGAQAHCAkKCwEAAgIDAQEBAQEAAAAAAAAA AQACAwQFBgcICQoLEAACAQMDAgQCBgcDBAIGAnMBAgMRBAAFIRIxQVEGE2EicYEUMpGhBxWxQiPB UtHhMxZi8CRygvElQzRTkqKyY3PCNUQnk6OzNhdUZHTD0uIIJoMJChgZhJRFRqS0VtNVKBry4/PE 1OT0ZXWFlaW1xdXl9WZ2hpamtsbW5vY3R1dnd4eXp7fH1+f3OEhYaHiImKi4yNjo+Ck5SVlpeYmZ qbnJ2en5KjpKWmp6ipqqusra6voRAAICAQIDBQUEBQYECAMDbQEAAhEDBCESMUEFURNhIgZxgZEy obHwFMHR4SNCFVJicvEzJDRDghaSUyWiY7LCB3PSNeJEgxdUkwgJChgZJjZFGidkdFU38qOzwygp 0+PzhJSktMTU5PRldYWVpbXF1eX1RlZmdoaWprbG1ub2R1dnd4eXp7fH1+f3OEhYaHiImKi4yNjo +DlJWWl5iZmpucnZ6fkqOkpaanqKmqq6ytrq+v/aAAwDAQACEQMRAD8Alb6pqVzqV+sUkskTJPbW jQSG3iMs1xKiSLHOLl4wZYZTxBXj+zQZh2bcyhT13y9frdeQ9PuoRKBJp8YSqs8tfTC1pH6jE132 qcyYn0uNIep5J5Y1e7l1nRoLT63c6o81g+o3Sz3Q+vRRLLG7BrkQpIiCFn+Mjkp+DlvmPE7hyZjY vQvzOTU57jy7aWRmUSX5kd0UNCGt4XuFLgJM7vSJvTQIy8viYHiAbst7NOKt2JfldqOt32taTaT3 ZaKOK+umSRrliFtXhiMaqHtovjN8Gq8JI4EU+IEV4iSQ2ZQACy7zlr+pjzBB5fsL17K7uI7c2UMK oZLh7iWRZZCzq/GG0igMj8aEkqCdwGsnI3TXCIqymnlLVLq41LX9LkuJL630i7jggvpVUOxeBJZI mZFRHMTPTkBXeh3FTKB3I7mMxsD3pmL/AFkiv6LI9jPHX8K4bPcxod7Ul1qJ0OWe8t/ql5xcNBb+ peEblV4+kIZGJFD8NKeO1cbNLQt88abrlzqOt2t9c6lPeoJLWfSIAl5fXQaX12tzJBLOsWy0Z1jl O6r9r4swxKy5pjQp7N+Zusyaf5ZhniNzDf3LOttJBI0PpmK2lvZmlCtuBBayClHNegzJymg4uKNl i/kuVbTzjBplzaanb27nlZW09w/GK8lW5uJppFpbclljQinF/i60rkIfVW7ZPeN7Ml/MC51WfUdN 0SNITp12RdyqfrTzTfU3DvDwtoZeMfNoSxJ+IclyeQm6a8YFEpj5K1fVtQfV476ZLiKyuzBBKIZb eVSyCVopElVeXprInF6DkOoqKtKBJtEwBTJsm1vGdRu9RXSPMWvobr9LQzatYw6msl3yjtrfU7kR RoRbPCqoABtKOgqdhTGJNE9d/vcoAWB02+56B+ZV1Pb+StTMFwlq8sRh9VywciQcSkPBZG9VweMf wmhNaGlDbkPpLTiHqDzPylD5ksta0nVdR1CRbCD07BPRikkKvMWYWotxK5e2CII/UVWpIpYfCpfK YWCCW+dEEB6V5z1ttMv/AC6DPJBDPfSCdYQXeVFs5/3fDo3xESGvZNhWmXTlVNEI2CjfLUV8onlu tfGtifi8CpHbxxxR1biVMI5PyBFWZqGmwXDH32iXup5b5+u9Qj8zeYEsp5ElieW4KRxyPSOHRAS5 ZZowFWZov2NmINf2TRkJs/jo5GMCh+OrMvymN0bfzD9aEgmXUoUKyqUIH6Lsm+wZJ+PIsW+3vWu3 QW4uv46BqzdPd+kpL5l1PXz+YVlpdpq/p3JNwIEjuLGJxDL6TcXWQTMStTxD2pNOjMSTkJE8VWyi Bw3X4/Hmz/zXq50fy7famJI42to+amZGlUnkAE4IyMzOTxUA9SMumaFtMBZphXknWfNFlpXlD9O3 0C2+oWTyTxtUhYYoFkSWW5lZmMpLrUV4gEj4qcsqhIgC23JEEmmRfmJNqR8um00y7jt7nVZE06Bm R5HLXZ9MPCySRFWiUtLy32U5PJdbMMdXv0RXlOTXfq31e9aG8sIUAs9XWfnNc1NatAIlEYUHjvIz VG9ftEwtE6TGe81NJ5Eh08yxKQElMqLyqoJIU1IoTTfJWWNBuwutTla4+v2aWcUbD6u6zCUunGrF wFQIQ1RSp23r2CCVIHR8+WWu6pPqeuyWt24mkUzyPHqF/bvzQafEp2qspCMV3rQVoaU5YYkbP47n NMRQ/He9i12DUNM/L2+iiia1uYI3ZINPlknYr6pcos0qo6eolVaQ04VLDoMyZWIuLGjJ5tZXN/LJ H6l1LHJe3GmWGp6hHPdxXs9xK1u6AkXXorEEuCh4jlueO/xGgH9DeQPvZav/ACp361J6frev6x5+ n+k/7715unHb++9Xp35ZZ6PxbX6/xTIdL/wT/glfqPqf4Wo1OX1vj6fqfHX1P3vpcq8q/BxrX4a5 McPD5MDxcXmls/8Ayq70tY+v8Pq9bL659d9f0uNG+pfVfV+HjXn6fod60wejdl69qTfzl/g39GWH +JPT/Rf1lfq/Ovoc/Qlp6nH4fT9LnXl8NOuSnw1uxhxXso6H/gX/ABDF+huP136jJ9S+r+r9S+qe pD6/1Xj/AKJ/eej6npb141wR4b2WXFW7IL39HfF9Z4er6MvT+99Hb1eHH95T7NePt7ZM0wFrNF/Q v6Ni/Qv1f9G/F6H1Ph6P2jy4+n8P2q198Y1Wyyu90bhQ7FXnGg/8qtpov6N+ucuOm/o/1P0hx4em /wBQ5+r+748OfCu3WmUR4Nq/S3y4978+5lXmz/DHHTv8QcfQ9ef6t6lfS5/o+69b1abcPqnr15bf TTLJ11a4X0/G6VW//Kuf8XWH1D0v0xST6v8AUuX1fl6T/wB76P7j1PS9Thz+KnLI+ni25svVw78k y8w/4e/TGl/pH61+kPTuvqH1T61y9P8AdevX6r8VPsdclKrFsY3RpV8rfoH09R/RHrf72N9f+s+v 6n1n0o61+s/vP7vh7YYV0Wd9U7yTBgV5/wAqz/Qeq+vz+o/Wb/8ASFPrHL1/rcv1ulP+L+dKbeG2 Ungotw47DKvMX6H/AEen6Xr9S+s2vT1OPq/WE9Hn6f7Hq8eXL4afa2rlkqrdrjd7JAf+VafWVr6H 1n6xB6X97z9b9JTeh6ff/e71ePHanL9jIen8e9n6/wAe79TJ739F/WrD656X1n12/RvqU5+v6EnL 0q78/Q9StP2eWWGmsWlnl/8AwJ9euv8AD36L+v0/039H/V/WpX/dvo/F1/myMeHpTKXF1tJ7v/lX 3+IPMHr/AFn9K8Yv076X17j6X1dOHP0f3fp+lSvata71yJ4bLIcVDuTnyp/h3/cp+hfW5fXF/SP1 j6xz+sfVLfj/AL0/HT6t6NKbZKFb0xne1pFqf/Kp/wBJal+l/q/rcZvrn171fq1ax+v6Xrf6P6nL hz9L460rvkTwXuzHHQpmd99R+py/X/S+p8f3/r8fS4/5fP4afPLD5tQ8kusv8KfoPRvq/wBV/RHC 3/QfqceFPS/0f0fU35en9mnxUwCqHck3Z70be/ov6xYfXfS+seuf0b6tOX1j0Ja+lX9v0PU6fs8s JpAtKdF/wP8A4gv/AND/AFP9NUb9IfVuPqf3h9Tnx2r6v2u/LrvkY8N7c2UuKt+TIcmwcaUNeneu KsT1D/Bn6M8zfWOf1P63D+m/S9Wvr/VbT0vT9P4v7j0P7v8AXXKzw0WwcVhkWq/U/wBF3n12v1P0 JPrNK19LgedKb/Zr0yZ5MBzYPD/yrPhFx+uel+k9P4f8dD0Pr/8Ao31Plx/cV/uftbeOVen7W31/ Z5P/2Q==</xmpGImg:image></rdf:li></rdf:Alt></xmp:Thumbnails></rdf:Description><rdf:Description xmlns:xmpMM="http://ns.adobe.com/xap/1.0/mm/" xmlns:stRef="http://ns.adobe.com/xap/1.0/sType/ResourceRef#" xmlns:stEvt="http://ns.adobe.com/xap/1.0/sType/ResourceEvent#"><xmpMM:RenditionClass>proof:pdf</xmpMM:RenditionClass><xmpMM:OriginalDocumentID>uuid:65E6390686CF11DBA6E2D887CEACB407</xmpMM:OriginalDocumentID><xmpMM:DocumentID>xmp.did:5D02F40DBD66E71188338B517F3ADCD9</xmpMM:DocumentID><xmpMM:InstanceID>xmp.iid:5D02F40DBD66E71188338B517F3ADCD9</xmpMM:InstanceID><xmpMM:DerivedFrom rdf:parseType="Resource"><stRef:instanceID>uuid:c5b5eddb-66da-6741-a40d-cc810f9d042d</stRef:instanceID><stRef:documentID>xmp.did:FB05051EC465E111835FF2FC000FBA2B</stRef:documentID><stRef:originalDocumentID>uuid:65E6390686CF11DBA6E2D887CEACB407</stRef:originalDocumentID><stRef:renditionClass>proof:pdf</stRef:renditionClass></xmpMM:DerivedFrom><xmpMM:History><rdf:Seq><rdf:li rdf:parseType="Resource"><stEvt:action>saved</stEvt:action><stEvt:instanceID>xmp.iid:5D02F40DBD66E71188338B517F3ADCD9</stEvt:instanceID><stEvt:when>2017-07-12T13:50:47+09:00</stEvt:when><stEvt:softwareAgent>Adobe Illustrator CS6 (Windows)</stEvt:softwareAgent><stEvt:changed>/</stEvt:changed></rdf:li></rdf:Seq></xmpMM:History></rdf:Description><rdf:Description xmlns:illustrator="http://ns.adobe.com/illustrator/1.0/"><illustrator:StartupProfile>Web</illustrator:StartupProfile></rdf:Description><rdf:Description xmlns:xmpTPg="http://ns.adobe.com/xap/1.0/t/pg/" xmlns:stDim="http://ns.adobe.com/xap/1.0/sType/Dimensions#" xmlns:xmpG="http://ns.adobe.com/xap/1.0/g/"><xmpTPg:NPages>1</xmpTPg:NPages><xmpTPg:HasVisibleTransparency>False</xmpTPg:HasVisibleTransparency><xmpTPg:HasVisibleOverprint>False</xmpTPg:HasVisibleOverprint><xmpTPg:MaxPageSize rdf:parseType="Resource"><stDim:w>520.412109</stDim:w><stDim:h>20.727051</stDim:h><stDim:unit>Pixels</stDim:unit></xmpTPg:MaxPageSize><xmpTPg:PlateNames><rdf:Seq><rdf:li>Cyan</rdf:li><rdf:li>Magenta</rdf:li><rdf:li>Yellow</rdf:li><rdf:li>Black</rdf:li></rdf:Seq></xmpTPg:PlateNames><xmpTPg:SwatchGroups><rdf:Seq><rdf:li rdf:parseType="Resource"><xmpG:groupName>初期設定のスウォッチグループ</xmpG:groupName><xmpG:groupType>0</xmpG:groupType><xmpG:Colorants><rdf:Seq><rdf:li rdf:parseType="Resource"><xmpG:swatchName>ホワイト</xmpG:swatchName><xmpG:mode>RGB</xmpG:mode><xmpG:type>PROCESS</xmpG:type><xmpG:red>255</xmpG:red><xmpG:green>255</xmpG:green><xmpG:blue>255</xmpG:blue></rdf:li><rdf:li rdf:parseType="Resource"><xmpG:swatchName>ブラック</xmpG:swatchName><xmpG:mode>RGB</xmpG:mode><xmpG:type>PROCESS</xmpG:type><xmpG:red>0</xmpG:red><xmpG:green>0</xmpG:green><xmpG:blue>0</xmpG:blue></rdf:li><rdf:li rdf:parseType="Resource"><xmpG:swatchName>RGB レッド</xmpG:swatchName><xmpG:mode>RGB</xmpG:mode><xmpG:type>PROCESS</xmpG:type><xmpG:red>255</xmpG:red><xmpG:green>0</xmpG:green><xmpG:blue>0</xmpG:blue></rdf:li><rdf:li rdf:parseType="Resource"><xmpG:swatchName>RGB イエロー</xmpG:swatchName><xmpG:mode>RGB</xmpG:mode><xmpG:type>PROCESS</xmpG:type><xmpG:red>255</xmpG:red><xmpG:green>255</xmpG:green><xmpG:blue>0</xmpG:blue></rdf:li><rdf:li rdf:parseType="Resource"><xmpG:swatchName>RGB グリーン</xmpG:swatchName><xmpG:mode>RGB</xmpG:mode><xmpG:type>PROCESS</xmpG:type><xmpG:red>0</xmpG:red><xmpG:green>255</xmpG:green><xmpG:blue>0</xmpG:blue></rdf:li><rdf:li rdf:parseType="Resource"><xmpG:swatchName>RGB シアン</xmpG:swatchName><xmpG:mode>RGB</xmpG:mode><xmpG:type>PROCESS</xmpG:type><xmpG:red>0</xmpG:red><xmpG:green>255</xmpG:green><xmpG:blue>255</xmpG:blue></rdf:li><rdf:li rdf:parseType="Resource"><xmpG:swatchName>RGB ブルー</xmpG:swatchName><xmpG:mode>RGB</xmpG:mode><xmpG:type>PROCESS</xmpG:type><xmpG:red>0</xmpG:red><xmpG:green>0</xmpG:green><xmpG:blue>255</xmpG:blue></rdf:li><rdf:li rdf:parseType="Resource"><xmpG:swatchName>RGB マゼンタ</xmpG:swatchName><xmpG:mode>RGB</xmpG:mode><xmpG:type>PROCESS</xmpG:type><xmpG:red>255</xmpG:red><xmpG:green>0</xmpG:green><xmpG:blue>255</xmpG:blue></rdf:li><rdf:li rdf:parseType="Resource"><xmpG:swatchName>R=193 G=39 B=45</xmpG:swatchName><xmpG:mode>RGB</xmpG:mode><xmpG:type>PROCESS</xmpG:type><xmpG:red>193</xmpG:red><xmpG:green>39</xmpG:green><xmpG:blue>45</xmpG:blue></rdf:li><rdf:li rdf:parseType="Resource"><xmpG:swatchName>R=237 G=28 B=36</xmpG:swatchName><xmpG:mode>RGB</xmpG:mode><xmpG:type>PROCESS</xmpG:type><xmpG:red>237</xmpG:red><xmpG:green>28</xmpG:green><xmpG:blue>36</xmpG:blue></rdf:li><rdf:li rdf:parseType="Resource"><xmpG:swatchName>R=241 G=90 B=36</xmpG:swatchName><xmpG:mode>RGB</xmpG:mode><xmpG:type>PROCESS</xmpG:type><xmpG:red>241</xmpG:red><xmpG:green>90</xmpG:green><xmpG:blue>36</xmpG:blue></rdf:li><rdf:li rdf:parseType="Resource"><xmpG:swatchName>R=247 G=147 B=30</xmpG:swatchName><xmpG:mode>RGB</xmpG:mode><xmpG:type>PROCESS</xmpG:type><xmpG:red>247</xmpG:red><xmpG:green>147</xmpG:green><xmpG:blue>30</xmpG:blue></rdf:li><rdf:li rdf:parseType="Resource"><xmpG:swatchName>R=251 G=176 B=59</xmpG:swatchName><xmpG:mode>RGB</xmpG:mode><xmpG:type>PROCESS</xmpG:type><xmpG:red>251</xmpG:red><xmpG:green>176</xmpG:green><xmpG:blue>59</xmpG:blue></rdf:li><rdf:li rdf:parseType="Resource"><xmpG:swatchName>R=252 G=238 B=33</xmpG:swatchName><xmpG:mode>RGB</xmpG:mode><xmpG:type>PROCESS</xmpG:type><xmpG:red>252</xmpG:red><xmpG:green>238</xmpG:green><xmpG:blue>33</xmpG:blue></rdf:li><rdf:li rdf:parseType="Resource"><xmpG:swatchName>R=217 G=224 B=33</xmpG:swatchName><xmpG:mode>RGB</xmpG:mode><xmpG:type>PROCESS</xmpG:type><xmpG:red>217</xmpG:red><xmpG:green>224</xmpG:green><xmpG:blue>33</xmpG:blue></rdf:li><rdf:li rdf:parseType="Resource"><xmpG:swatchName>R=140 G=198 B=63</xmpG:swatchName><xmpG:mode>RGB</xmpG:mode><xmpG:type>PROCESS</xmpG:type><xmpG:red>140</xmpG:red><xmpG:green>198</xmpG:green><xmpG:blue>63</xmpG:blue></rdf:li><rdf:li rdf:parseType="Resource"><xmpG:swatchName>R=57 G=181 B=74</xmpG:swatchName><xmpG:mode>RGB</xmpG:mode><xmpG:type>PROCESS</xmpG:type><xmpG:red>57</xmpG:red><xmpG:green>181</xmpG:green><xmpG:blue>74</xmpG:blue></rdf:li><rdf:li rdf:parseType="Resource"><xmpG:swatchName>R=0 G=146 B=69</xmpG:swatchName><xmpG:mode>RGB</xmpG:mode><xmpG:type>PROCESS</xmpG:type><xmpG:red>0</xmpG:red><xmpG:green>146</xmpG:green><xmpG:blue>69</xmpG:blue></rdf:li><rdf:li rdf:parseType="Resource"><xmpG:swatchName>R=0 G=104 B=55</xmpG:swatchName><xmpG:mode>RGB</xmpG:mode><xmpG:type>PROCESS</xmpG:type><xmpG:red>0</xmpG:red><xmpG:green>104</xmpG:green><xmpG:blue>55</xmpG:blue></rdf:li><rdf:li rdf:parseType="Resource"><xmpG:swatchName>R=34 G=181 B=115</xmpG:swatchName><xmpG:mode>RGB</xmpG:mode><xmpG:type>PROCESS</xmpG:type><xmpG:red>34</xmpG:red><xmpG:green>181</xmpG:green><xmpG:blue>115</xmpG:blue></rdf:li><rdf:li rdf:parseType="Resource"><xmpG:swatchName>R=0 G=169 B=157</xmpG:swatchName><xmpG:mode>RGB</xmpG:mode><xmpG:type>PROCESS</xmpG:type><xmpG:red>0</xmpG:red><xmpG:green>169</xmpG:green><xmpG:blue>157</xmpG:blue></rdf:li><rdf:li rdf:parseType="Resource"><xmpG:swatchName>R=41 G=171 B=226</xmpG:swatchName><xmpG:mode>RGB</xmpG:mode><xmpG:type>PROCESS</xmpG:type><xmpG:red>41</xmpG:red><xmpG:green>171</xmpG:green><xmpG:blue>226</xmpG:blue></rdf:li><rdf:li rdf:parseType="Resource"><xmpG:swatchName>R=0 G=113 B=188</xmpG:swatchName><xmpG:mode>RGB</xmpG:mode><xmpG:type>PROCESS</xmpG:type><xmpG:red>0</xmpG:red><xmpG:green>113</xmpG:green><xmpG:blue>188</xmpG:blue></rdf:li><rdf:li rdf:parseType="Resource"><xmpG:swatchName>R=46 G=49 B=146</xmpG:swatchName><xmpG:mode>RGB</xmpG:mode><xmpG:type>PROCESS</xmpG:type><xmpG:red>46</xmpG:red><xmpG:green>49</xmpG:green><xmpG:blue>146</xmpG:blue></rdf:li><rdf:li rdf:parseType="Resource"><xmpG:swatchName>R=27 G=20 B=100</xmpG:swatchName><xmpG:mode>RGB</xmpG:mode><xmpG:type>PROCESS</xmpG:type><xmpG:red>27</xmpG:red><xmpG:green>20</xmpG:green><xmpG:blue>100</xmpG:blue></rdf:li><rdf:li rdf:parseType="Resource"><xmpG:swatchName>R=102 G=45 B=145</xmpG:swatchName><xmpG:mode>RGB</xmpG:mode><xmpG:type>PROCESS</xmpG:type><xmpG:red>102</xmpG:red><xmpG:green>45</xmpG:green><xmpG:blue>145</xmpG:blue></rdf:li><rdf:li rdf:parseType="Resource"><xmpG:swatchName>R=147 G=39 B=143</xmpG:swatchName><xmpG:mode>RGB</xmpG:mode><xmpG:type>PROCESS</xmpG:type><xmpG:red>147</xmpG:red><xmpG:green>39</xmpG:green><xmpG:blue>143</xmpG:blue></rdf:li><rdf:li rdf:parseType="Resource"><xmpG:swatchName>R=158 G=0 B=93</xmpG:swatchName><xmpG:mode>RGB</xmpG:mode><xmpG:type>PROCESS</xmpG:type><xmpG:red>158</xmpG:red><xmpG:green>0</xmpG:green><xmpG:blue>93</xmpG:blue></rdf:li><rdf:li rdf:parseType="Resource"><xmpG:swatchName>R=212 G=20 B=90</xmpG:swatchName><xmpG:mode>RGB</xmpG:mode><xmpG:type>PROCESS</xmpG:type><xmpG:red>212</xmpG:red><xmpG:green>20</xmpG:green><xmpG:blue>90</xmpG:blue></rdf:li><rdf:li rdf:parseType="Resource"><xmpG:swatchName>R=237 G=30 B=121</xmpG:swatchName><xmpG:mode>RGB</xmpG:mode><xmpG:type>PROCESS</xmpG:type><xmpG:red>237</xmpG:red><xmpG:green>30</xmpG:green><xmpG:blue>121</xmpG:blue></rdf:li><rdf:li rdf:parseType="Resource"><xmpG:swatchName>R=199 G=178 B=153</xmpG:swatchName><xmpG:mode>RGB</xmpG:mode><xmpG:type>PROCESS</xmpG:type><xmpG:red>199</xmpG:red><xmpG:green>178</xmpG:green><xmpG:blue>153</xmpG:blue></rdf:li><rdf:li rdf:parseType="Resource"><xmpG:swatchName>R=153 G=134 B=117</xmpG:swatchName><xmpG:mode>RGB</xmpG:mode><xmpG:type>PROCESS</xmpG:type><xmpG:red>153</xmpG:red><xmpG:green>134</xmpG:green><xmpG:blue>117</xmpG:blue></rdf:li><rdf:li rdf:parseType="Resource"><xmpG:swatchName>R=115 G=99 B=87</xmpG:swatchName><xmpG:mode>RGB</xmpG:mode><xmpG:type>PROCESS</xmpG:type><xmpG:red>115</xmpG:red><xmpG:green>99</xmpG:green><xmpG:blue>87</xmpG:blue></rdf:li><rdf:li rdf:parseType="Resource"><xmpG:swatchName>R=83 G=71 B=65</xmpG:swatchName><xmpG:mode>RGB</xmpG:mode><xmpG:type>PROCESS</xmpG:type><xmpG:red>83</xmpG:red><xmpG:green>71</xmpG:green><xmpG:blue>65</xmpG:blue></rdf:li><rdf:li rdf:parseType="Resource"><xmpG:swatchName>R=198 G=156 B=109</xmpG:swatchName><xmpG:mode>RGB</xmpG:mode><xmpG:type>PROCESS</xmpG:type><xmpG:red>198</xmpG:red><xmpG:green>156</xmpG:green><xmpG:blue>109</xmpG:blue></rdf:li><rdf:li rdf:parseType="Resource"><xmpG:swatchName>R=166 G=124 B=82</xmpG:swatchName><xmpG:mode>RGB</xmpG:mode><xmpG:type>PROCESS</xmpG:type><xmpG:red>166</xmpG:red><xmpG:green>124</xmpG:green><xmpG:blue>82</xmpG:blue></rdf:li><rdf:li rdf:parseType="Resource"><xmpG:swatchName>R=140 G=98 B=57</xmpG:swatchName><xmpG:mode>RGB</xmpG:mode><xmpG:type>PROCESS</xmpG:type><xmpG:red>140</xmpG:red><xmpG:green>98</xmpG:green><xmpG:blue>57</xmpG:blue></rdf:li><rdf:li rdf:parseType="Resource"><xmpG:swatchName>R=117 G=76 B=36</xmpG:swatchName><xmpG:mode>RGB</xmpG:mode><xmpG:type>PROCESS</xmpG:type><xmpG:red>117</xmpG:red><xmpG:green>76</xmpG:green><xmpG:blue>36</xmpG:blue></rdf:li><rdf:li rdf:parseType="Resource"><xmpG:swatchName>R=96 G=56 B=19</xmpG:swatchName><xmpG:mode>RGB</xmpG:mode><xmpG:type>PROCESS</xmpG:type><xmpG:red>96</xmpG:red><xmpG:green>56</xmpG:green><xmpG:blue>19</xmpG:blue></rdf:li><rdf:li rdf:parseType="Resource"><xmpG:swatchName>R=66 G=33 B=11</xmpG:swatchName><xmpG:mode>RGB</xmpG:mode><xmpG:type>PROCESS</xmpG:type><xmpG:red>66</xmpG:red><xmpG:green>33</xmpG:green><xmpG:blue>11</xmpG:blue></rdf:li></rdf:Seq></xmpG:Colorants></rdf:li><rdf:li rdf:parseType="Resource"><xmpG:groupName>グレー</xmpG:groupName><xmpG:groupType>1</xmpG:groupType><xmpG:Colorants><rdf:Seq><rdf:li rdf:parseType="Resource"><xmpG:swatchName>R=0 G=0 B=0</xmpG:swatchName><xmpG:mode>RGB</xmpG:mode><xmpG:type>PROCESS</xmpG:type><xmpG:red>0</xmpG:red><xmpG:green>0</xmpG:green><xmpG:blue>0</xmpG:blue></rdf:li><rdf:li rdf:parseType="Resource"><xmpG:swatchName>R=26 G=26 B=26</xmpG:swatchName><xmpG:mode>RGB</xmpG:mode><xmpG:type>PROCESS</xmpG:type><xmpG:red>26</xmpG:red><xmpG:green>26</xmpG:green><xmpG:blue>26</xmpG:blue></rdf:li><rdf:li rdf:parseType="Resource"><xmpG:swatchName>R=51 G=51 B=51</xmpG:swatchName><xmpG:mode>RGB</xmpG:mode><xmpG:type>PROCESS</xmpG:type><xmpG:red>51</xmpG:red><xmpG:green>51</xmpG:green><xmpG:blue>51</xmpG:blue></rdf:li><rdf:li rdf:parseType="Resource"><xmpG:swatchName>R=77 G=77 B=77</xmpG:swatchName><xmpG:mode>RGB</xmpG:mode><xmpG:type>PROCESS</xmpG:type><xmpG:red>77</xmpG:red><xmpG:green>77</xmpG:green><xmpG:blue>77</xmpG:blue></rdf:li><rdf:li rdf:parseType="Resource"><xmpG:swatchName>R=102 G=102 B=102</xmpG:swatchName><xmpG:mode>RGB</xmpG:mode><xmpG:type>PROCESS</xmpG:type><xmpG:red>102</xmpG:red><xmpG:green>102</xmpG:green><xmpG:blue>102</xmpG:blue></rdf:li><rdf:li rdf:parseType="Resource"><xmpG:swatchName>R=128 G=128 B=128</xmpG:swatchName><xmpG:mode>RGB</xmpG:mode><xmpG:type>PROCESS</xmpG:type><xmpG:red>128</xmpG:red><xmpG:green>128</xmpG:green><xmpG:blue>128</xmpG:blue></rdf:li><rdf:li rdf:parseType="Resource"><xmpG:swatchName>R=153 G=153 B=153</xmpG:swatchName><xmpG:mode>RGB</xmpG:mode><xmpG:type>PROCESS</xmpG:type><xmpG:red>153</xmpG:red><xmpG:green>153</xmpG:green><xmpG:blue>153</xmpG:blue></rdf:li><rdf:li rdf:parseType="Resource"><xmpG:swatchName>R=179 G=179 B=179</xmpG:swatchName><xmpG:mode>RGB</xmpG:mode><xmpG:type>PROCESS</xmpG:type><xmpG:red>179</xmpG:red><xmpG:green>179</xmpG:green><xmpG:blue>179</xmpG:blue></rdf:li><rdf:li rdf:parseType="Resource"><xmpG:swatchName>R=204 G=204 B=204</xmpG:swatchName><xmpG:mode>RGB</xmpG:mode><xmpG:type>PROCESS</xmpG:type><xmpG:red>204</xmpG:red><xmpG:green>204</xmpG:green><xmpG:blue>204</xmpG:blue></rdf:li><rdf:li rdf:parseType="Resource"><xmpG:swatchName>R=230 G=230 B=230</xmpG:swatchName><xmpG:mode>RGB</xmpG:mode><xmpG:type>PROCESS</xmpG:type><xmpG:red>230</xmpG:red><xmpG:green>230</xmpG:green><xmpG:blue>230</xmpG:blue></rdf:li><rdf:li rdf:parseType="Resource"><xmpG:swatchName>R=242 G=242 B=242</xmpG:swatchName><xmpG:mode>RGB</xmpG:mode><xmpG:type>PROCESS</xmpG:type><xmpG:red>242</xmpG:red><xmpG:green>242</xmpG:green><xmpG:blue>242</xmpG:blue></rdf:li></rdf:Seq></xmpG:Colorants></rdf:li><rdf:li rdf:parseType="Resource"><xmpG:groupName>Web カラーグループ</xmpG:groupName><xmpG:groupType>1</xmpG:groupType><xmpG:Colorants><rdf:Seq><rdf:li rdf:parseType="Resource"><xmpG:swatchName>R=63 G=169 B=245</xmpG:swatchName><xmpG:mode>RGB</xmpG:mode><xmpG:type>PROCESS</xmpG:type><xmpG:red>63</xmpG:red><xmpG:green>169</xmpG:green><xmpG:blue>245</xmpG:blue></rdf:li><rdf:li rdf:parseType="Resource"><xmpG:swatchName>R=122 G=201 B=67</xmpG:swatchName><xmpG:mode>RGB</xmpG:mode><xmpG:type>PROCESS</xmpG:type><xmpG:red>122</xmpG:red><xmpG:green>201</xmpG:green><xmpG:blue>67</xmpG:blue></rdf:li><rdf:li rdf:parseType="Resource"><xmpG:swatchName>R=255 G=147 B=30</xmpG:swatchName><xmpG:mode>RGB</xmpG:mode><xmpG:type>PROCESS</xmpG:type><xmpG:red>255</xmpG:red><xmpG:green>147</xmpG:green><xmpG:blue>30</xmpG:blue></rdf:li><rdf:li rdf:parseType="Resource"><xmpG:swatchName>R=255 G=29 B=37</xmpG:swatchName><xmpG:mode>RGB</xmpG:mode><xmpG:type>PROCESS</xmpG:type><xmpG:red>255</xmpG:red><xmpG:green>29</xmpG:green><xmpG:blue>37</xmpG:blue></rdf:li><rdf:li rdf:parseType="Resource"><xmpG:swatchName>R=255 G=123 B=172</xmpG:swatchName><xmpG:mode>RGB</xmpG:mode><xmpG:type>PROCESS</xmpG:type><xmpG:red>255</xmpG:red><xmpG:green>123</xmpG:green><xmpG:blue>172</xmpG:blue></rdf:li><rdf:li rdf:parseType="Resource"><xmpG:swatchName>R=189 G=204 B=212</xmpG:swatchName><xmpG:mode>RGB</xmpG:mode><xmpG:type>PROCESS</xmpG:type><xmpG:red>189</xmpG:red><xmpG:green>204</xmpG:green><xmpG:blue>212</xmpG:blue></rdf:li></rdf:Seq></xmpG:Colorants></rdf:li></rdf:Seq></xmpTPg:SwatchGroups></rdf:Description><rdf:Description xmlns:pdf="http://ns.adobe.com/pdf/1.3/"><pdf:Producer>Adobe PDF library 10.01</pdf:Producer></rdf:Description></rdf:RDF></x:xmpmeta><?xpacket end="w"?></metadata><g fill="#4A1F00"><path d="M.154 5.611c2.64.946 3.234 1.364 3.234 2.289 0 .616-.374 1.32-.704 1.32-.177 0-.221-.044-.595-.748-.196-.375-.703-1.123-1.143-1.673-.264-.352-.462-.55-.946-.968l.154-.22zM.22 13.73c.154.021.286.044.353.044.506.066.616.089.726.089.462 0 .639-.199 1.122-1.167.396-.813 1.738-3.586 1.959-4.048 1.254-2.729 1.254-2.729 1.672-3.542l.308.176-3.015 8.448c-.265.704-.265.727-.265 1.012 0 .221.022.33.242 1.232.286 1.078.33 1.431.33 2.223 0 .704-.242 1.254-.704 1.563-.308.22-.748.373-.99.373-.264 0-.439-.197-.439-.483 0-.22 0-.242.285-1.54.154-.771.242-1.452.242-2.112 0-.595-.109-.968-.418-1.255-.22-.242-.418-.33-1.474-.682l.066-.331zM1.563 1.012c1.144.396 2.486 1.034 2.926 1.386.374.286.484.506.484.924 0 .33-.11.682-.33 1.034-.088.154-.198.22-.352.22-.177 0-.309-.11-.463-.374a11.31 11.31 0 00-2.442-2.97l.177-.22zm4.532 11.64c0-.88-.021-1.276-.088-2.112.814.33 1.056.462 1.849.902h8.823c.396-.44.506-.55.901-.946.595.374.771.506 1.32.946.154.132.221.22.221.33 0 .132-.066.198-.771.616v6.645h.088c.418-.594.572-.77 1.013-1.364.615.66.792.858 1.319 1.54a.272.272 0 01.089.198c0 .066-.11.132-.242.132H5.522c-.286 0-.968.045-1.32.088l-.088-.726c.484.065 1.122.132 1.408.132h.572v-6.381zM8.89 9.549v.044c0 .286-.242.374-1.101.374-.22 0-.33-.088-.33-.242v-.066c0-1.056 0-1.056.044-2.531 0-.858.022-1.936.044-3.256 0-.836-.044-2.09-.132-2.97.792.374 1.012.528 1.716 1.035h6.337L16.37.99c.528.396.704.528 1.166.924.177.154.242.242.242.352 0 .132-.154.242-.726.506v3.85l.021 1.65v1.21c0 .264-.154.352-.704.374-.22 0-.352.022-.374.022h-.044c-.22 0-.33-.088-.33-.264V9H8.89v.549zm.857 2.399H7.503v7.085h2.244v-7.085zm5.875-9.506H8.89v2.663h6.732V2.442zM8.89 5.611v2.882h6.732V5.611H8.89zm4.532 6.337h-2.376v7.085h2.376v-7.085zm3.476 7.085v-7.085H14.72v7.085h2.178zm12.758-6.843c.682.132.946.153 2.156.153h3.433c.396-.418.506-.549.902-.945.571.462.726.594 1.254 1.057.154.176.22.264.22.329 0 .177-.132.242-.813.396-1.145 1.892-2.289 3.169-4.049 4.466-1.343.99-2.442 1.563-4.181 2.223l-.132-.264c1.782-.99 2.904-1.848 4.202-3.146 1.276-1.276 1.958-2.223 2.597-3.608h-3.521c-.946 0-1.298.022-1.893.11l-.175-.771zM39.8 9.66c.154.968.286 1.32.704 2.156a10.39 10.39 0 001.298 1.893c1.584-1.123 3.278-2.662 4.049-3.631 1.738 1.034 2.002 1.21 2.002 1.364 0 .132-.176.241-.396.241a9.53 9.53 0 01-.792-.065c-1.167.771-3.081 1.738-4.621 2.376a11.047 11.047 0 002.354 1.871c1.584.945 2.816 1.408 4.906 1.781v.287c-.527.132-.726.22-1.078.527-.33.286-.439.463-.594.946-1.254-.462-1.826-.771-2.971-1.628-1.782-1.342-2.729-2.398-3.851-4.357-.638-1.078-.88-1.627-1.231-2.816.065 1.408.153 3.235.176 4.136v2.949c.021.242.021.638.021 1.122-.021 1.056-.418 1.364-2.552 1.914-.221-1.122-.727-1.386-2.883-1.584v-.353c1.694.066 2.2.088 3.631.088.242 0 .308-.065.308-.242V9.66h-4.488v.726c0 .308-.154.352-1.145.352-.22 0-.286-.044-.308-.198.044-1.694.065-3.433.065-5.743 0-1.298-.021-1.98-.065-3.059.792.418 1.034.55 1.804 1.034h3.301a9.308 9.308 0 00.572-2.64c1.958.462 2.002.462 2.2.572.176.066.264.154.264.242 0 .198-.264.286-1.1.396-.484.594-.704.814-1.387 1.43h5.567l.901-1.034c.595.44.771.572 1.364 1.034.177.154.242.264.242.352 0 .198-.132.286-.836.572v2.31c0 1.694 0 2.201.044 3.785 0 .22-.044.308-.22.374-.132.044-.639.11-.969.11-.197 0-.285-.044-.285-.198V9.66H39.8zm4.005-3.675V3.279H33.793v2.706h10.012zm-10.012.506v2.662h10.012V6.491H33.793zm25.718 4.357c-.771.792-1.255 1.21-2.421 2.09l-.242-.22c1.211-1.254 1.959-2.245 3.037-4.115.792-1.408 1.122-2.134 1.43-3.279 1.893.616 2.311.792 2.311 1.034 0 .198-.33.308-.814.308h-.197c-.66 1.232-1.122 1.892-2.112 3.081.374.044.901.176.968.22.044 0 .088.066.088.132 0 .132-.11.198-.594.44v4.774c.021 1.123.021 2.002.021 2.641 0 .946.022 1.1.066 2.244l-.022.022.044.11c0 .109-.704.308-1.122.308-.33 0-.418-.065-.439-.33v-9.46zm-2.443-4.335c1.21-1.188 1.914-2.112 2.86-3.653.682-1.1.902-1.54 1.166-2.354 2.179.836 2.42.946 2.42 1.166 0 .176-.33.308-.704.308-.065 0-.176 0-.308-.022-1.893 2.376-3.036 3.455-5.192 4.841l-.242-.286zm7.019 6.425c-.528 0-.88.044-1.584.198l-.242-.881c.572.133 1.013.177 1.826.177h2.047v-1.386c0-.969 0-1.079-.089-1.739 1.783.11 1.871.11 2.068.198.133.044.221.11.221.176 0 .198-.242.374-.683.528v2.223h1.408c.374-.462.727-.925 1.101-1.386.792.637 1.012.857 1.76 1.605.044.066.066.109.066.154 0 .066-.088.132-.242.132h-4.093v3.257c1.738-.33 2.53-.506 4.269-.969v.309c-4.114 1.584-4.114 1.584-8.669 2.882-.11.792-.154.946-.352.946-.265 0-.551-.682-.99-2.354.924 0 1.628-.088 4.225-.528v-3.542h-2.047zm5.039-4.599c.462-.594.616-.77 1.1-1.32.771.594.99.792 1.694 1.452.088.11.133.198.133.264 0 .088-.045.11-.353.11h-7.768c-.462 0-.792.044-1.43.176l-.22-.858c.571.11 1.144.176 1.649.176h2.201V4.995h-1.738c-.44 0-.683.044-1.232.154l-.242-.836c.638.132.946.176 1.364.176h1.849v-1.65c0-.418-.022-.77-.11-1.672 1.98.132 2.486.242 2.486.484 0 .176-.22.308-.858.528V4.49h1.585c.439-.506.571-.66 1.012-1.144.726.55.946.726 1.65 1.342a.422.422 0 01.109.176c0 .11-.065.132-.352.132H67.65v3.345h1.476zm5.94 6.623l.022 3.762c0 .902-.506 1.277-2.465 1.717-.132-1.078-.638-1.342-3.103-1.584v-.44c1.959.198 2.377.22 3.741.265.198 0 .264-.045.264-.198v-.11l-.043-10.673h-.616c-.572 0-.77.022-1.276.11l-.132-.814c.484.154.924.198 1.496.198h1.738c.66-.771.66-.771 1.255-1.475.836.704 1.078.924 1.826 1.672a.376.376 0 01.065.154c0 .088-.109.154-.242.154h-2.574l.044 7.262zM71.26 2.707c.44.066 1.255.132 1.805.132h1.276c.462-.572.616-.748 1.122-1.32.77.616.99.814 1.76 1.475.066.088.11.154.11.198 0 .11-.088.154-.33.154h-4.07c-.572 0-.836.022-1.452.154l-.221-.793zm24.529 15.798c2.376-.705 3.895-1.607 5.148-3.059 1.299-1.475 1.959-3.279 1.959-5.303 0-2.134-.858-3.829-2.486-4.863-.969-.638-2.421-1.012-3.807-1.012-.265 0-.418 0-.771.044.528.771.683 1.188.683 1.827 0 1.716-1.232 4.929-2.904 7.612-1.387 2.201-2.465 3.279-3.279 3.279-.374 0-.726-.176-.968-.463-.198-.264-.242-.352-.616-1.408-.198-.571-.33-.836-.968-2.068-.353-.703-.506-1.297-.506-2.002 0-1.386.748-3.014 1.979-4.356 1.782-1.892 4.687-3.08 7.569-3.08 2.223 0 4.269.726 5.677 2.024 1.408 1.298 2.112 3.037 2.112 5.171 0 2.75-1.606 5.193-4.379 6.667-1.275.682-2.42 1.033-4.29 1.363l-.153-.373zm-7.239-6.843c0 1.057.33 2.135.881 2.904.308.396.594.639.836.639.483 0 1.54-1.188 2.618-2.904 1.628-2.597 2.794-5.435 2.794-6.799 0-.33-.065-.55-.308-1.1-3.828.681-6.821 3.871-6.821 7.26zm26.092-1.739c.946.154 1.431.176 2.883.176h13.004c.616-.836.836-1.078 1.518-1.87a46.024 46.024 0 012.553 2.112c.044.044.066.11.066.132 0 .066-.088.132-.242.132h-16.898c-1.32 0-1.717.022-2.729.154l-.155-.836zm39.271-2.552c1.034 1.012 1.738 1.584 2.772 2.2 1.915 1.145 3.741 1.739 6.976 2.245v.264c-.814.286-1.101.594-1.343 1.475-1.166-.396-1.605-.572-2.442-.946l-.418.396c.022 5.59.022 5.59.088 7.328-.021.131-.044.176-.176.22s-.704.11-1.1.11c-.177 0-.242-.045-.265-.177v-1.034h-9.813v.814c0 .154-.044.22-.153.242-.133.066-.66.109-1.013.109-.242 0-.33-.065-.33-.22v-.044c.066-1.937.088-3.807.088-5.875 0-.792 0-.792-.044-2.112-1.078.595-1.782.902-3.477 1.519l-.132-.286c1.98-1.056 3.322-1.98 5.039-3.389 1.232-1.012 1.87-1.65 2.948-2.838h-5.765c-.639 0-.99.022-1.452.11l-.177-.814a6.816 6.816 0 001.694.198h6.888V3.081c-2.135.176-4.027.286-5.392.286-.329 0-1.012-.022-1.892-.044l-.088-.374c2.992-.176 5.303-.44 7.723-.858 1.65-.286 3.652-.726 4.863-1.056.483-.154.77-.242 1.452-.528.418.308.748.55.945.682.595.396.881.66.881.792 0 .11-.154.22-.309.22-.132 0-.22-.022-.924-.176-2.354.484-3.828.704-5.94.924v3.917h1.892c1.013-1.563 1.717-2.971 1.98-3.939 1.232.396 2.046.704 2.179.814.044.022.044.044.065.11 0 .044 0 .044.022.066l-.177.176c-.065.066-.22.088-.682.132-.484.462-.484.462-1.188 1.122-.396.374-.396.374-1.122 1.078-.264.242-.264.242-.483.44h3.564c.594-.704.77-.924 1.319-1.563.858.748 1.123.99 1.959 1.782.044.044.088.11.088.154 0 .066-.11.132-.198.132h-8.93zm-6.381-3.894c1.805 1.32 2.156 1.672 2.156 2.178 0 .198-.088.462-.197.704-.198.33-.374.484-.616.484-.221 0-.33-.132-.418-.484a9.37 9.37 0 00-1.101-2.729l.176-.153zm4.776 4.554c-1.585 1.65-2.553 2.442-4.753 3.851.264.153.396.22.748.461h9.682c.242-.197.418-.352.527-.461-1.826-1.079-3.08-2.157-4.862-4.137v1.1c0 .88 0 1.1.022 2.354-.022.153-.044.198-.154.242-.132.065-.639.132-.946.132-.198 0-.264-.044-.286-.198.022-1.386.022-2.244.022-2.53v-.814zm0 4.819h-4.115v2.618h4.115V12.85zm-4.116 3.124v2.971h4.115v-2.971h-4.115zm9.792-.506V12.85h-4.313v2.618h4.313zm-4.312 3.477h4.313v-2.971h-4.313v2.971zm34.585-16.019c.594-.704.77-.924 1.364-1.672a28.316 28.316 0 012.31 1.826c.066.066.11.132.11.176 0 .11-.088.176-.22.176h-17.603c-.595 0-1.585.066-2.091.154l-.198-.924c.704.132 1.782.264 2.245.264h6.711V1.672c0-.352-.022-.66-.133-1.32 2.245.242 2.553.308 2.553.594 0 .154-.176.264-.858.506v1.474h5.81zm.264 8.098c.264-.286.55-.616.858-.968.726.484.946.638 1.54 1.1.132.132.176.176.176.264 0 .154-.021.176-.814.594v3.564c.022.727.045 1.387.045 2.025.021.99.021 1.056.044 1.628-.022.571-.221.792-.881 1.034-.374.154-.813.264-1.738.418-.065-.572-.241-.836-.682-1.057-.353-.197-.836-.285-2.135-.418v-.396c1.585.088 2.311.132 3.587.132.176-.021.22-.109.22-.374v-7.04h-14.082v4.489c0 1.649 0 2.111.044 4.355-.044.133-.088.177-.264.199a7.418 7.418 0 01-1.034.088c-.242 0-.308-.045-.353-.199.066-2.64.066-2.926.066-3.564 0-4.048-.021-5.303-.066-6.931.881.418 1.145.55 1.915 1.057h13.554zm-2.927-5.765c.309-.374.396-.506.748-.88.639.418.837.55 1.408.968.133.11.154.154.154.22 0 .132-.021.154-.726.616v.946c0 .484 0 .814.044 2.597 0 .176-.044.22-.221.286-.132.044-.682.088-.99.088-.22 0-.308-.066-.308-.242v-.749h-7.943v.638c0 .22-.286.33-.946.33-.483 0-.571-.044-.571-.242v-.066c.044-1.166.065-1.694.065-2.794s-.021-1.716-.065-2.574c.813.33 1.033.462 1.737.858h7.614zm-1.166 8.141c.309-.374.396-.484.748-.836.616.396.792.527 1.32.969.088.088.11.131.11.176 0 .109 0 .109-.616.572v2.464c.021.396.021.792.021 1.144-.021.265-.33.353-1.166.353-.198 0-.264-.044-.286-.153v-.749h-5.721v1.101c-.044.197-.22.264-.748.285-.154 0-.264.022-.33.022h-.044c-.242 0-.352-.088-.352-.286l.021-3.189c0-1.189-.021-1.98-.065-2.729.77.352 1.012.461 1.738.857h5.37zm-6.667-4.796h7.943V5.765h-7.943v2.839zm1.078 8.229h5.721v-2.927h-5.721v2.927zm22.638-8.802c.594.044.88.044 1.254.044.198 0 .792 0 2.662-.044.814-1.584.902-1.76 1.585-3.278.968-2.223 1.298-3.081 1.496-4.005 2.2.638 2.552.77 2.552.99s-.153.286-.968.396c-1.628 2.619-2.244 3.542-3.982 5.875 3.124-.066 6.711-.242 9.967-.528-.857-1.1-1.672-1.936-3.058-3.19l.176-.242c1.672.924 2.641 1.584 4.158 2.772 1.496 1.188 1.629 1.364 1.629 2.156 0 .946-.242 1.628-.595 1.628-.176 0-.308-.11-.483-.396-.639-1.056-.969-1.562-1.453-2.244-5.391.77-9.571 1.276-13.752 1.65-.264.682-.352.836-.506.836-.065 0-.154-.088-.22-.22a4.913 4.913 0 01-.198-.792l-.264-1.408zm13.509 4.224c.374-.483.506-.615.902-1.056.66.44.836.595 1.452 1.056.176.133.242.221.242.287 0 .153-.133.241-.748.638v1.672c0 2.223.021 3.653.109 5.171 0 .154-.021.221-.109.264-.11.066-.727.133-1.364.133-.133 0-.177-.045-.198-.176v-1.057h-9.813v1.057c0 .131-.044.176-.176.197-.11.044-.704.088-1.057.088-.242 0-.352-.066-.352-.242v-.043c.044-1.65.065-4.027.065-6.293 0-.814-.021-1.65-.065-2.751.792.418 1.034.572 1.782 1.056h9.33zm-9.527 6.426h9.813v-5.92h-9.813v5.92zm52.163-14.94c.396-.506.506-.66.945-1.1.616.484.793.616 1.343 1.078.154.154.22.242.22.352 0 .154-.176.308-.726.572v4.005c0 7.635 0 7.92.153 11.419-.021.198-.065.265-.22.308-.154.066-.858.154-1.21.154-.176 0-.242-.066-.242-.264v-1.606h-10.254v1.473c0 .154-.065.242-.22.287-.11.021-.748.065-.99.065-.308 0-.418-.065-.418-.264v-.044c.066-2.662.11-6.117.11-8.494 0-5.368-.022-7.92-.088-9.197.836.506 1.1.682 1.914 1.254h2.398a14.028 14.028 0 001.078-3.741c2.53.66 2.596.682 2.596.902 0 .176-.197.264-1.012.44-.242.286-.418.528-.528.66-.813 1.056-1.012 1.298-1.474 1.738h6.625zm.264 4.554V4.247h-10.254v4.049h10.254zm-10.254.506v4.29h10.254v-4.29h-10.254zm0 4.797v4.555h10.254v-4.555h-10.254zm35.928-7.151c.176-1.144.242-2.31.242-3.872 0-.727-.022-1.167-.066-1.937 2.223.22 2.486.286 2.486.55 0 .176-.22.286-.968.528-.022 2.244-.088 3.322-.286 4.73h3.366c.484-.572.616-.748 1.101-1.298.726.66.945.88 1.672 1.584.044.044.066.088.066.132 0 .066-.066.088-.177.088h-5.853c.396 1.364.814 2.178 1.672 3.234 1.255 1.541 2.619 2.443 4.753 3.103v.242c-.858.197-1.144.461-1.518 1.496-1.761-1.101-2.772-2.135-3.763-3.873-.683-1.166-1.145-2.354-1.496-3.785-.463 1.98-1.232 3.542-2.354 4.796-.748.814-1.87 1.673-3.015 2.311-.506.286-.88.463-1.738.771l-.132-.22c1.716-.99 2.97-2.047 4.004-3.411.99-1.32 1.563-2.662 1.937-4.665h-2.948a18.067 18.067 0 01-3.345 5.126c-1.65 1.783-3.322 3.037-5.435 4.07l-.198-.22c1.98-1.386 3.564-2.904 4.951-4.708 1.584-2.091 2.53-4.071 3.345-6.998h-3.631c-.242.418-.462.792-.727 1.21.551.176.902.308 1.496.594.925.396 1.211.726 1.211 1.32 0 .528-.221.968-.484.968-.132 0-.242-.088-.396-.352-.638-1.056-1.034-1.541-1.936-2.354a21.671 21.671 0 01-1.54 2.112c2.002.902 2.574 1.364 2.574 2.068 0 .572-.286 1.144-.572 1.144-.176 0-.309-.132-.484-.572-.374-.924-.902-1.672-1.694-2.442-.704.836-1.1 1.21-2.09 1.98l-.176-.22a24.923 24.923 0 003.256-5.105c.66-1.452 1.166-2.948 1.364-4.114 2.311.748 2.376.77 2.376.99 0 .176-.22.264-1.033.396a37.3 37.3 0 01-.881 1.871h3.367c.352-.374.352-.374.77-.858.528.374.704.484 1.21.858.242.22.309.286.309.352 0 .132 0 .132-.88.726-.242.814-.33 1.1-.528 1.65h2.816zm-8.318 8.582v.33c0 1.848-.462 3.277-1.342 4.268-.419.463-.858.727-1.188.727-.353 0-.66-.594-.66-1.299 0-.352.088-.439.506-.615.462-.176.99-.66 1.431-1.232.483-.66.704-1.166.968-2.2l.285.021zm3.124.439c1.145 1.166 1.805 2.223 1.805 2.883 0 .748-.682 1.628-1.254 1.628-.221 0-.33-.154-.33-.483v-.353c.021-.22.021-.396.021-.507 0-.945-.109-1.65-.506-3.059l.264-.109zm4.335-.439c.814.682 1.166 1.033 1.849 1.804.506.595.704.99.704 1.364 0 .792-.551 1.717-1.013 1.717-.22 0-.33-.177-.396-.551-.265-1.563-.507-2.288-1.387-4.137l.243-.197zm3.278-12.895c.792.264 1.166.44 1.738.748.683.396.946.726.946 1.188 0 .594-.33 1.342-.572 1.342-.176 0-.264-.11-.483-.572-.396-.748-.881-1.452-1.782-2.486l.153-.22zm1.013 12.674c1.166.814 2.134 1.563 2.86 2.267.594.55.902 1.078.902 1.519 0 .66-.44 1.539-.793 1.539-.153 0-.286-.153-.483-.594-.616-1.386-1.606-3.014-2.707-4.51l.221-.221zm19.051-3.96c-.044.199-.374 1.584-.99 4.136-.309 1.299-.374 1.65-.374 2.332 0 .639-.022.814-.066.947a.54.54 0 01-.528.373c-.374 0-.704-.308-.946-.901-.483-1.145-.77-2.927-.77-4.687 0-.66.065-1.475.176-2.354.154-1.276.154-1.276.771-4.159.22-1.034.308-1.584.308-2.046 0-.726-.176-1.276-.616-2.068.484.022.881.308 1.475 1.078.55.682.814 1.254.814 1.738 0 .352-.022.44-.463 1.32-.439.924-.968 2.464-1.188 3.499-.198.836-.286 1.782-.286 2.728 0 1.21.109 1.98.418 2.905.374-.771.55-1.211.792-1.871l1.166-3.08.307.11zm2.772 1.1c-.045.44-.066.638-.066.925 0 2.42 1.386 3.41 4.797 3.41.638 0 1.276-.045 1.87-.154.462-.066.462-.066 1.166-.352.132-.045.242-.066.33-.066.572 0 1.387.77 1.387 1.298 0 .265-.177.44-.484.55-.462.154-1.519.242-2.751.242-2.75 0-4.708-.462-5.698-1.342-.792-.727-1.188-1.65-1.188-2.86 0-.55.066-1.034.265-1.738l.372.087zm-.044-6.997c.771.462 1.255.594 2.047.594 1.364 0 3.498-.484 4.423-.99.286-.154.33-.176.483-.176.177 0 .463.11.771.308.462.264.682.528.682.814s-.153.418-.615.506c-1.453.22-2.267.418-3.125.77-.682.286-1.958.99-2.838 1.563l-.221-.22c.99-.836 1.738-1.452 2.091-1.716-.462.022-.704.044-.902.044-1.232 0-2.046-.33-2.992-1.232l.196-.265zm21.119 6.117c0-1.43 0-2.311.022-4.005V5.127c0-1.144 0-1.32-.066-2.927-.021-.814-.021-.814-.044-1.408.792.44 1.057.572 1.87 1.123h14.082c.353-.44.463-.572.837-1.012.66.44.857.594 1.408 1.012.153.154.22.242.22.33 0 .154-.066.198-.814.704v1.342l-.021 3.542c0 .198.044 7.526.044 8.12.021 1.98.021 2.135.109 3.961-.021.197-.065.264-.197.33-.154.065-.616.131-1.013.131-.33 0-.396-.043-.418-.264v-.99h-14.522v.881c-.044.242-.109.308-.308.352-.22.044-.572.088-.836.088-.33 0-.418-.066-.44-.286.066-2.31.088-3.19.088-6.271v-2.817zm1.496 7.547h14.522V2.42h-14.522v16.195zm8.889-11.508c0-3.08 0-3.08-.065-3.828.418.044.748.088.968.11 1.254.154 1.386.176 1.386.396 0 .198-.132.286-.857.506 0 .748 0 .748-.022 2.816h.704c.462-.594.616-.77 1.078-1.364.771.638.99.836 1.694 1.475a.55.55 0 01.11.242c0 .11-.088.154-.286.154h-3.301v4.466h.814c.483-.638.638-.836 1.144-1.452.837.66 1.078.88 1.782 1.628.044.066.066.11.066.154 0 .088-.11.176-.242.176h-3.564c.022 2.619.022 2.751.044 4.665-.044.308-.242.396-.77.418-.221 0-.353 0-.396.022h-.066c-.176 0-.285-.088-.285-.221v-.065c.044-1.738.044-1.738.044-4.819h-3.653c-.241 1.101-.638 2.003-1.254 2.861-.704 1.012-1.43 1.628-2.86 2.508l-.264-.286c1.122-.88 1.738-1.649 2.332-2.86a7.925 7.925 0 00.704-2.223h-.727c-1.1 0-1.43.022-2.2.11l-.132-.771c.683.088 1.563.154 2.332.154h.793c.132-1.276.132-1.276.132-4.466h-.925c-.945 0-1.254.022-2.046.132l-.11-.792c.837.132 1.122.154 2.156.154h.925v-1.65c0-.968-.022-1.32-.088-2.134 2.288.286 2.486.33 2.486.572 0 .198-.11.242-.946.462l-.022 2.75h3.387zm-3.388.506v1.078c0 1.738-.044 2.266-.197 3.388h3.564l.021-3.168V7.613h-3.388zm23.428-2.772c1.167.968 1.871 1.188 3.543 1.188.946 0 1.805-.066 3.146-.264-.088-3.367-.242-3.675-1.914-3.917.308-.308.483-.352 1.1-.352s1.343.11 1.849.286c.528.176.748.396.748.726 0 .132 0 .132-.286.748-.198.418-.33 1.188-.396 2.333 2.178-.418 3.366-.792 4.092-1.298a.625.625 0 01.265-.088c.264 0 .901.198 1.144.374.242.154.374.33.374.528 0 .308-.352.484-1.716.814-1.496.352-2.883.616-4.203.77-.021.572-.021.902-.021 1.408 0 .594 0 1.034.021 2.002a18.294 18.294 0 002.509-.594c.572-.198.682-.264 1.101-.55a.528.528 0 01.33-.088c.308 0 .857.154 1.122.33a.453.453 0 01.264.418c0 .396-.308.572-1.694.946-1.1.286-2.53.55-3.586.638.044.858.044 1.21.065 1.98.044.836.066 1.166.132 1.716 2.024.375 3.961 1.123 4.841 1.893.418.374.639.88.639 1.452 0 .462-.198.771-.484.771-.22 0-.309-.066-.88-.617-.374-.352-1.211-.989-1.849-1.363a7.879 7.879 0 00-2.2-.924c.044.483.065.703.065.968 0 .858-.241 1.431-.748 1.849-.615.506-1.76.813-2.948.813-2.2 0-3.719-.968-3.719-2.354 0-1.563 2.047-2.662 4.974-2.662.352 0 .571 0 1.1.021-.021-1.056-.021-1.209-.021-1.518v-1.915c-.881.043-1.299.065-1.629.065-1.43 0-2.398-.153-2.926-.484-.639-.374-.99-.99-.99-1.672 0-.154.021-.374.044-.616l.33.022c.021.682.132.99.462 1.254.352.308 1.298.484 2.574.484.616 0 1.145-.044 2.135-.154V8.669l-.045-1.606v-.264c-1.21.11-2.09.154-2.838.154-2.091 0-2.992-.418-4.093-1.892l.217-.22zm4.885 10.826c-.857 0-1.716.153-2.398.418-.792.308-1.188.748-1.188 1.32 0 .792.902 1.254 2.398 1.254 1.078 0 1.98-.286 2.508-.792.286-.264.418-.594.484-1.145.021-.154.044-.66.044-.836v-.066c-.858-.11-1.253-.153-1.848-.153zm25.828-6.822c.021-.352.021-.352.044-.924.044-.44.044-.44.066-.771-.66.44-1.826 1.232-2.223 1.519-.418.286-.55.352-.748.352-.572 0-1.628-1.298-1.628-2.002 0-.044.021-.22.065-.374.484.704.969 1.056 1.431 1.056.439 0 1.87-.594 3.168-1.32.11-.924.154-1.54.154-2.332 0-1.276-.198-1.65-1.254-2.442.132-.088.176-.11.286-.11.352 0 .836.22 1.408.594.704.484 1.144 1.034 1.144 1.452 0 .242 0 .242-.22.902-.154.418-.309 1.122-.396 1.738.484.506.639.682.639.858 0 .132-.022.176-.309.638-.264.484-.483.902-.704 1.43-.044.374-.044.462-.044.814 2.156-2.046 2.883-2.684 3.829-3.366 1.54-1.1 2.574-1.563 3.542-1.563a2.27 2.27 0 011.738.792c.418.484.594 1.078.594 1.936 0 .836-.021.99-.439 3.257-.265 1.43-.396 2.706-.396 3.608 0 .88.154 1.342.551 1.628.308.221.704.33 1.122.33 1.1 0 2.64-.572 4.092-1.563l.177.265c-1.585 1.628-3.301 2.53-4.863 2.53-1.672 0-2.574-1.078-2.574-3.08 0-.793.198-2.201.55-3.917.507-2.354.551-2.663.551-3.477 0-1.078-.484-1.694-1.343-1.694-.946 0-2.09.66-3.851 2.222-1.144 1.012-2.178 2.09-3.344 3.477-.022.527-.022.814-.022 1.145 0 1.188.066 2.244.22 3.938.066.528.066.705.066 1.035 0 1.254-.418 2.287-.946 2.287-.242 0-.418-.176-.528-.594a18.18 18.18 0 00-.374-1.056c-.241-.44-.945-1.343-1.936-2.398-.44 1.056-.528 1.188-.748 1.188-.198 0-.374-.176-.507-.506-.132-.353-.242-.881-.242-1.211 0-.264.022-.309.375-.66.352-.33.704-.814 1.43-1.958l2.397-3.673zm-1.341 4.115a55.697 55.697 0 00-1.167 2.332c1.299 1.078 1.694 1.387 2.333 1.782.044-.837.044-.837.065-4.114 0-1.078.022-1.585.088-2.487-.308.639-.33.639-1.319 2.487zm26.135-6.909c.901.924 1.474 1.21 2.42 1.21.858 0 1.782-.132 2.794-.418.44-1.43.749-2.971.749-3.719 0-.682-.33-.968-1.563-1.386.286-.154.396-.198.682-.198.506 0 1.232.154 1.893.418.66.242.99.55.99.88 0 .154 0 .154-.265.528-.285.418-.77 1.584-1.319 3.146 1.231-.44 2.023-.858 2.552-1.342.353-.33.44-.374.616-.374.286 0 .814.11 1.166.242.242.088.353.22.353.396 0 .374-.353.66-1.276 1.078-.99.44-2.465.924-3.851 1.276-.264.748-.264.748-.924 2.794-.44 1.32-.44 1.32-1.65 4.906-.88 2.619-1.166 3.169-1.628 3.169-.221 0-.375-.132-.507-.44a3.29 3.29 0 01-.308-1.275c0-.353.021-.418.484-1.078 1.1-1.606 1.958-3.521 3.454-7.877-.836.154-1.475.22-2.112.22-1.342 0-2.2-.572-3.015-1.98l.265-.176zm8.78 7.591c-.022.33-.022.594-.022.682 0 1.254.594 2.201 1.672 2.662.595.265 1.496.419 2.354.419.902 0 1.408-.066 2.112-.33a.992.992 0 01.374-.089c.242 0 .748.242 1.122.529.265.22.396.418.396.615 0 .484-.858.727-2.597.727-1.694 0-3.103-.242-4.07-.704-1.188-.572-1.87-1.716-1.87-3.19a4.5 4.5 0 01.198-1.387l.331.066zm.593-4.071c1.584-.946 3.389-1.474 5.104-1.474.462 0 1.034.154 1.387.396a.73.73 0 01.352.616c0 .352-.198.484-.836.506-.814.044-1.078.11-1.694.44-.44.242-.462.242-1.21.748-.418.264-.418.264-.771.461l-.132-.197c.264-.264.264-.264 1.056-.99.198-.176.396-.352 1.079-1.034-1.453 0-2.619.242-4.203.814l-.132-.286zm17.973.352c.946.154 1.43.176 2.882.176h13.004c.616-.836.837-1.078 1.519-1.87a46.395 46.395 0 012.553 2.112c.044.044.065.11.065.132 0 .066-.088.132-.242.132H446.05c-1.32 0-1.716.022-2.729.154l-.153-.836zm34.299 3.323c0 1.32 0 1.32.021 2.465h2.311c.44-.572.595-.748 1.078-1.276.704.595.925.792 1.606 1.474.066.089.088.154.088.199 0 .065-.065.109-.176.109h-4.907c.044 2.904.044 2.904.089 4.049-.022.264-.198.309-.969.309-.396 0-.484-.022-.506-.199.044-.726.066-2.111.088-4.158h-2.729c-.902 0-1.54.044-1.98.133l-.088-.814c.551.132 1.166.176 2.068.176h2.729c.022-.616.022-1.43.022-2.465h-2.091v.881c0 .22-.198.285-.946.285-.286 0-.374-.043-.396-.176.088-2.486.088-2.86.088-3.85 0-1.606-.044-4.511-.088-5.281.748.374.968.506 1.65.924h1.804v-2.18h-2.772c-.924 0-1.21.044-1.672.198l-.132-.88c.483.11 1.078.176 1.804.176h2.772c0-1.782 0-1.893-.088-2.927.462.088.836.132 1.056.154 1.013.132 1.211.198 1.211.418s-.265.352-.925.462c0 .968-.021 1.232-.021 1.893h1.76c.484-.572.639-.748 1.145-1.276.66.638.858.836 1.496 1.496.066.066.11.154.11.176 0 .066-.066.11-.11.11h-4.4v2.178h2.068c.22-.286.462-.55.704-.836.506.352.66.462 1.122.836.154.132.22.22.22.286 0 .132-.154.286-.66.594v2.948c0 1.144 0 1.144.088 4.005 0 .131-.021.176-.109.197-.11.044-.595.109-.814.109-.308 0-.462-.088-.462-.241v-.682h-2.157zm-1.233-3.983V6.535h-2.112v2.728h2.112zm-.021.507h-2.091v2.97h2.091V9.77zm3.41-3.235h-2.179v2.728h2.179V6.535zm0 3.235h-2.179l.022 2.97h2.156V9.77zm7.173-.705h2.112c.639-.66.836-.858 1.475-1.474.77.726 1.012.946 1.76 1.672.088.088.11.154.11.22 0 .044-.044.088-.132.088h-5.325v5.325c0 .375.066 3.543.11 5.259-.022.308-.176.374-1.057.396h-.198c-.285 0-.396-.089-.396-.286.021-.946.021-.946.044-2.619.044-1.451.044-1.518.044-2.75V9.571H483.1c-.639 0-1.254.066-1.628.176l-.154-.836c.462.11 1.034.154 1.782.154h2.244V2.729h-1.914c-.836 0-1.166.022-1.563.132l-.11-.792c.419.11.881.154 1.673.154h5.061c.55-.638.727-.836 1.298-1.452a34.57 34.57 0 011.871 1.716c.044.044.065.11.065.132 0 .066-.088.11-.198.11h-4.73v6.336zm16.542 1.629c-1.034 1.298-1.893 2.156-3.278 3.3l-.242-.242c1.431-1.562 2.267-2.75 3.521-5.104.968-1.826 1.386-2.772 1.65-3.829.813.22 1.804.528 2.068.638.088.044.264.198.264.242l-.065.132c-.045.088-.221.154-.484.198-.11.022-.286.044-.506.088-1.034 1.87-1.585 2.772-2.333 3.784l.66.11c.969.154 1.145.22 1.145.44 0 .088-.066.176-.132.22l-.396.132c-.065.022-.198.088-.352.154v5.171c.021 1.057.044 1.914.044 2.596 0 .463.021.925.021 1.408 0 .221-.065.309-.242.375-.153.044-.682.109-.99.109-.308 0-.439-.088-.439-.285v-.088c.044-1.035.088-3.764.088-4.666v-4.883zm6.007-7.569v-1.54c0-.528 0-.748-.044-1.342 2.376.22 2.685.286 2.685.55 0 .22-.088.264-1.057.594v1.738h6.359c.396-.506.528-.66.968-1.188.836.528 1.101.726 1.893 1.342.198.176.264.242.264.33 0 .088-.065.176-.153.22-.198.088-.221.11-1.343.264-.242.22-.418.396-.528.528-.616.616-.682.704-.924.88.616.44 1.166.814 1.65 1.144.088.088.132.132.132.198 0 .044-.066.088-.132.088h-5.017c-.176.264-.176.264-.462.704a32.884 32.884 0 01-1.694 2.442h4.269l.813-.99c.616.396.814.506 1.387.99.176.132.242.22.242.308 0 .11-.132.22-.792.638v1.694c0 2.354.044 6.117.088 7.217-.022.352-.242.439-1.188.439-.308 0-.418-.088-.418-.352v-.792h-6.689v.88c-.021.309-.22.418-.857.44h-.286c-.309 0-.44-.11-.44-.33.066-4.532.088-5.919.088-7.394s0-1.826-.088-3.74c.528.33 1.057.66 1.606.99h1.694c.506-1.628.638-2.134.77-3.146h-3.344c-.418 0-.748.022-1.452.132l-.198-.836c.638.11 1.32.198 1.76.198h7.02c.374-.616.506-.792.946-1.342l.264.176c.242-.968.242-1.012.33-1.628h-14.522c-.109.946-.264 1.584-.506 2.267-.308.792-.968 1.496-1.452 1.496-.352 0-.682-.704-.682-1.452 0-.286.153-.506.571-.77.484-.33.837-.704 1.145-1.232.353-.594.484-1.144.594-2.354h.419c.021.396.021.462.021.77 0 .264 0 .44-.044.77h6.334zm6.997 7.458h-6.689v3.498h6.689v-3.498zm-6.69 4.005v4.136h6.689v-4.136h-6.689z"/></g></svg>