<svg version="1.1" baseProfile="tiny" id="レイヤー_1" xmlns="http://www.w3.org/2000/svg" x="0" y="0" width="1100" height="66" viewBox="0 0 1100 66" xml:space="preserve"><metadata><?xpacket begin="﻿" id="W5M0MpCehiHzreSzNTczkc9d"?><x:xmpmeta xmlns:x="adobe:ns:meta/" x:xmptk="Adobe XMP Core 5.3-c011 66.145661, 2012/02/06-14:56:27"><rdf:RDF xmlns:rdf="http://www.w3.org/1999/02/22-rdf-syntax-ns#"><rdf:Description xmlns:dc="http://purl.org/dc/elements/1.1/"><dc:format>image/svg+xml</dc:format><dc:title><rdf:Alt><rdf:li xml:lang="x-default">Web</rdf:li></rdf:Alt></dc:title></rdf:Description><rdf:Description xmlns:xmp="http://ns.adobe.com/xap/1.0/" xmlns:xmpGImg="http://ns.adobe.com/xap/1.0/g/img/"><xmp:CreatorTool>Adobe Illustrator CS6 (Windows)</xmp:CreatorTool><xmp:CreateDate>2017-07-12T14:00:15+09:00</xmp:CreateDate><xmp:ModifyDate>2017-07-12T14:00:15+09:00</xmp:ModifyDate><xmp:MetadataDate>2017-07-12T14:00:15+09:00</xmp:MetadataDate><xmp:Thumbnails><rdf:Alt><rdf:li rdf:parseType="Resource"><xmpGImg:width>256</xmpGImg:width><xmpGImg:height>16</xmpGImg:height><xmpGImg:format>JPEG</xmpGImg:format><xmpGImg:image>/9j/4AAQSkZJRgABAgEASABIAAD/7QAsUGhvdG9zaG9wIDMuMAA4QklNA+0AAAAAABAASAAAAAEA AQBIAAAAAQAB/+4ADkFkb2JlAGTAAAAAAf/bAIQABgQEBAUEBgUFBgkGBQYJCwgGBggLDAoKCwoK DBAMDAwMDAwQDA4PEA8ODBMTFBQTExwbGxscHx8fHx8fHx8fHwEHBwcNDA0YEBAYGhURFRofHx8f Hx8fHx8fHx8fHx8fHx8fHx8fHx8fHx8fHx8fHx8fHx8fHx8fHx8fHx8fHx8f/8AAEQgAEAEAAwER AAIRAQMRAf/EAaIAAAAHAQEBAQEAAAAAAAAAAAQFAwIGAQAHCAkKCwEAAgIDAQEBAQEAAAAAAAAA AQACAwQFBgcICQoLEAACAQMDAgQCBgcDBAIGAnMBAgMRBAAFIRIxQVEGE2EicYEUMpGhBxWxQiPB UtHhMxZi8CRygvElQzRTkqKyY3PCNUQnk6OzNhdUZHTD0uIIJoMJChgZhJRFRqS0VtNVKBry4/PE 1OT0ZXWFlaW1xdXl9WZ2hpamtsbW5vY3R1dnd4eXp7fH1+f3OEhYaHiImKi4yNjo+Ck5SVlpeYmZ qbnJ2en5KjpKWmp6ipqqusra6voRAAICAQIDBQUEBQYECAMDbQEAAhEDBCESMUEFURNhIgZxgZEy obHwFMHR4SNCFVJicvEzJDRDghaSUyWiY7LCB3PSNeJEgxdUkwgJChgZJjZFGidkdFU38qOzwygp 0+PzhJSktMTU5PRldYWVpbXF1eX1RlZmdoaWprbG1ub2R1dnd4eXp7fH1+f3OEhYaHiImKi4yNjo +DlJWWl5iZmpucnZ6fkqOkpaanqKmqq6ytrq+v/aAAwDAQACEQMRAD8A9K6ZpmljS7RmtIP7iMk+ mn8g9sCSWM235k/lNcizMN7aldQmltrNjayqJJoVjaRAWiAqBPH161oN8FhlwyV7fz3+V9xqFlp0 V1a/XtRma3s7drd0eSRByIo0YpsRQnY9sNhHCWQajZabbwJMIIYSk0B9UIi8f3yb8qCmKAiv0npv /LXD/wAjF/rjYWi79J6b/wAtcP8AyMX+uNhaLv0npv8Ay1w/8jF/rjYWi79J6b/y1w/8jF/rjYWi 79J6b/y1w/8AIxf642Fou/Sem/8ALXD/AMjF/rjYWi79J6b/AMtcP/Ixf642Fou/Sem/8tcP/Ixf 642Fou/Sem/8tcP/ACMX+uNhaLv0npv/AC1w/wDIxf642Fopf5h1K6/Qt1+gru0/S3D/AEP15F9L nUfa36UrgkdtubKI335Mei1Hz/yQS3mmcCbb1GSRCRxRvrJFeP2n4026V6doXLyZ1HzS+zvvzdNs rXWoaELgS3heMOeJj9JTZgEV/wB28vU/yem++RBn5JIh5sv8t6leDRLUa/d2h1jifrht5FMXLkac Ps7cadstidt+bXIb7cky/Sem/wDLXD/yMX+uGwxou/Sem/8ALXD/AMjF/rjYWi79J6b/AMtcP/Ix f642Fou/Sem/8tcP/Ixf642Fou/Sem/8tcP/ACMX+uNhaLv0npv/AC1w/wDIxf642Fou/Sem/wDL XD/yMX+uNhaLv0npv/LXD/yMX+uNhaLv0npv/LXD/wAjF/rjYWi79J6b/wAtcP8AyMX+uNhaL4C/ PR0k/NzzS6MHRr1irKag/CvcZTLm5mP6QnHmr8stT8rWvlLTZY9KvNQ8zQ3EKzFiRFNNOsaMZxJ6 TemhTi1KKWaoOxwkUxErtMtV8gWuifmdD5YZ/Lsg1F5YreV2muFikuIEiSJ7eKaR425uHgEnVjUm nRrdRKxbzTzd5bHl3Wn01dRtdUVUSQXVlIJY6OK8WIrxdf2lrtkSGYNv0U03UtNXTbVHuoVZYY1Z WkUEEKAQQTl7hEJLbeTfyvtvTNvpulxtFO13EyiLklw/HlKrVqHb01qR1oMaCeIomPQPIEd1Ddrb WBuraT1re4YxtIklS3JXYlgeTE/PfGgtlMr+7066gSBJoZ2eaD90GVyQJkJ+EE12GKAif0Zpv/LJ D/yLX+mNBbLv0Zpv/LJD/wAi1/pjQWy79Gab/wAskP8AyLX+mNBbLv0Zpv8AyyQ/8i1/pjQWy79G ab/yyQ/8i1/pjQWy79Gab/yyQ/8AItf6Y0Fsu/Rmm/8ALJD/AMi1/pjQWy79Gab/AMskP/Itf6Y0 Fsu/Rmm/8skP/Itf6Y0Fsu/Rmm/8skP/ACLX+mNBbKH1HSo30+6Swt7eO+aJxaySRrwWUqfTLfC2 waldjgI2SDvuw6by5+Zh0e3WK60hdSEUYuCbYMPU9asjK/pqp/cigHpjcnwFa+GVdGzihfVM7nQv NoklMDaa0TQkIGhXmsxMW6/BQLQS05cqVFeXaRiUCUfNP7DS41sbdb+3tZL4RoLp4YgsbS8RzKK1 SF5dK5IBgT3K/wCjNN/5ZIf+Ra/0w0EWXfozTf8Alkh/5Fr/AExoLZd+jNN/5ZIf+Ra/0xoLZd+j NN/5ZIf+Ra/0xoLZd+jNN/5ZIf8AkWv9MaC2XfozTf8Alkh/5Fr/AExoLZd+jNN/5ZIf+Ra/0xoL Zd+jNN/5ZIf+Ra/0xoLZd+jNN/5ZIf8AkWv9MaC2XfozTf8Alkh/5Fr/AExoLZfDf5z+SvNs/wCa vmO50/QL+a0a8LQSw2c0kTLxXdSqFSMqkN3KhIUiL2H8yfMuhXUOsaWbbUJEjtBNJpGoxzfUoJEl igiFpC9rGivSg9INxWnKnEF3XYFTk8vefbLzFD5osEl/TdhRfVt9P1yNrt4oWV52d4FYNcD4Cax1 LVITc40VsVTE9c8ref8AV9Xu9Tl8q31tLeSGV4LawuUiVm68VZWPXfc4KLIEDq//2Q==</xmpGImg:image></rdf:li></rdf:Alt></xmp:Thumbnails></rdf:Description><rdf:Description xmlns:xmpMM="http://ns.adobe.com/xap/1.0/mm/" xmlns:stRef="http://ns.adobe.com/xap/1.0/sType/ResourceRef#" xmlns:stEvt="http://ns.adobe.com/xap/1.0/sType/ResourceEvent#"><xmpMM:RenditionClass>proof:pdf</xmpMM:RenditionClass><xmpMM:OriginalDocumentID>uuid:65E6390686CF11DBA6E2D887CEACB407</xmpMM:OriginalDocumentID><xmpMM:DocumentID>xmp.did:6402F40DBD66E71188338B517F3ADCD9</xmpMM:DocumentID><xmpMM:InstanceID>xmp.iid:6402F40DBD66E71188338B517F3ADCD9</xmpMM:InstanceID><xmpMM:DerivedFrom rdf:parseType="Resource"><stRef:instanceID>uuid:c5b5eddb-66da-6741-a40d-cc810f9d042d</stRef:instanceID><stRef:documentID>xmp.did:FB05051EC465E111835FF2FC000FBA2B</stRef:documentID><stRef:originalDocumentID>uuid:65E6390686CF11DBA6E2D887CEACB407</stRef:originalDocumentID><stRef:renditionClass>proof:pdf</stRef:renditionClass></xmpMM:DerivedFrom><xmpMM:History><rdf:Seq><rdf:li rdf:parseType="Resource"><stEvt:action>saved</stEvt:action><stEvt:instanceID>xmp.iid:6402F40DBD66E71188338B517F3ADCD9</stEvt:instanceID><stEvt:when>2017-07-12T14:00:15+09:00</stEvt:when><stEvt:softwareAgent>Adobe Illustrator CS6 (Windows)</stEvt:softwareAgent><stEvt:changed>/</stEvt:changed></rdf:li></rdf:Seq></xmpMM:History></rdf:Description><rdf:Description xmlns:illustrator="http://ns.adobe.com/illustrator/1.0/"><illustrator:StartupProfile>Web</illustrator:StartupProfile></rdf:Description><rdf:Description xmlns:xmpTPg="http://ns.adobe.com/xap/1.0/t/pg/" xmlns:stDim="http://ns.adobe.com/xap/1.0/sType/Dimensions#" xmlns:xmpG="http://ns.adobe.com/xap/1.0/g/"><xmpTPg:NPages>1</xmpTPg:NPages><xmpTPg:HasVisibleTransparency>False</xmpTPg:HasVisibleTransparency><xmpTPg:HasVisibleOverprint>False</xmpTPg:HasVisibleOverprint><xmpTPg:MaxPageSize rdf:parseType="Resource"><stDim:w>1100.000000</stDim:w><stDim:h>66.000000</stDim:h><stDim:unit>Pixels</stDim:unit></xmpTPg:MaxPageSize><xmpTPg:PlateNames><rdf:Seq><rdf:li>Cyan</rdf:li><rdf:li>Magenta</rdf:li><rdf:li>Yellow</rdf:li><rdf:li>Black</rdf:li></rdf:Seq></xmpTPg:PlateNames><xmpTPg:SwatchGroups><rdf:Seq><rdf:li rdf:parseType="Resource"><xmpG:groupName>初期設定のスウォッチグループ</xmpG:groupName><xmpG:groupType>0</xmpG:groupType><xmpG:Colorants><rdf:Seq><rdf:li rdf:parseType="Resource"><xmpG:swatchName>ホワイト</xmpG:swatchName><xmpG:mode>RGB</xmpG:mode><xmpG:type>PROCESS</xmpG:type><xmpG:red>255</xmpG:red><xmpG:green>255</xmpG:green><xmpG:blue>255</xmpG:blue></rdf:li><rdf:li rdf:parseType="Resource"><xmpG:swatchName>ブラック</xmpG:swatchName><xmpG:mode>RGB</xmpG:mode><xmpG:type>PROCESS</xmpG:type><xmpG:red>0</xmpG:red><xmpG:green>0</xmpG:green><xmpG:blue>0</xmpG:blue></rdf:li><rdf:li rdf:parseType="Resource"><xmpG:swatchName>RGB レッド</xmpG:swatchName><xmpG:mode>RGB</xmpG:mode><xmpG:type>PROCESS</xmpG:type><xmpG:red>255</xmpG:red><xmpG:green>0</xmpG:green><xmpG:blue>0</xmpG:blue></rdf:li><rdf:li rdf:parseType="Resource"><xmpG:swatchName>RGB イエロー</xmpG:swatchName><xmpG:mode>RGB</xmpG:mode><xmpG:type>PROCESS</xmpG:type><xmpG:red>255</xmpG:red><xmpG:green>255</xmpG:green><xmpG:blue>0</xmpG:blue></rdf:li><rdf:li rdf:parseType="Resource"><xmpG:swatchName>RGB グリーン</xmpG:swatchName><xmpG:mode>RGB</xmpG:mode><xmpG:type>PROCESS</xmpG:type><xmpG:red>0</xmpG:red><xmpG:green>255</xmpG:green><xmpG:blue>0</xmpG:blue></rdf:li><rdf:li rdf:parseType="Resource"><xmpG:swatchName>RGB シアン</xmpG:swatchName><xmpG:mode>RGB</xmpG:mode><xmpG:type>PROCESS</xmpG:type><xmpG:red>0</xmpG:red><xmpG:green>255</xmpG:green><xmpG:blue>255</xmpG:blue></rdf:li><rdf:li rdf:parseType="Resource"><xmpG:swatchName>RGB ブルー</xmpG:swatchName><xmpG:mode>RGB</xmpG:mode><xmpG:type>PROCESS</xmpG:type><xmpG:red>0</xmpG:red><xmpG:green>0</xmpG:green><xmpG:blue>255</xmpG:blue></rdf:li><rdf:li rdf:parseType="Resource"><xmpG:swatchName>RGB マゼンタ</xmpG:swatchName><xmpG:mode>RGB</xmpG:mode><xmpG:type>PROCESS</xmpG:type><xmpG:red>255</xmpG:red><xmpG:green>0</xmpG:green><xmpG:blue>255</xmpG:blue></rdf:li><rdf:li rdf:parseType="Resource"><xmpG:swatchName>R=193 G=39 B=45</xmpG:swatchName><xmpG:mode>RGB</xmpG:mode><xmpG:type>PROCESS</xmpG:type><xmpG:red>193</xmpG:red><xmpG:green>39</xmpG:green><xmpG:blue>45</xmpG:blue></rdf:li><rdf:li rdf:parseType="Resource"><xmpG:swatchName>R=237 G=28 B=36</xmpG:swatchName><xmpG:mode>RGB</xmpG:mode><xmpG:type>PROCESS</xmpG:type><xmpG:red>237</xmpG:red><xmpG:green>28</xmpG:green><xmpG:blue>36</xmpG:blue></rdf:li><rdf:li rdf:parseType="Resource"><xmpG:swatchName>R=241 G=90 B=36</xmpG:swatchName><xmpG:mode>RGB</xmpG:mode><xmpG:type>PROCESS</xmpG:type><xmpG:red>241</xmpG:red><xmpG:green>90</xmpG:green><xmpG:blue>36</xmpG:blue></rdf:li><rdf:li rdf:parseType="Resource"><xmpG:swatchName>R=247 G=147 B=30</xmpG:swatchName><xmpG:mode>RGB</xmpG:mode><xmpG:type>PROCESS</xmpG:type><xmpG:red>247</xmpG:red><xmpG:green>147</xmpG:green><xmpG:blue>30</xmpG:blue></rdf:li><rdf:li rdf:parseType="Resource"><xmpG:swatchName>R=251 G=176 B=59</xmpG:swatchName><xmpG:mode>RGB</xmpG:mode><xmpG:type>PROCESS</xmpG:type><xmpG:red>251</xmpG:red><xmpG:green>176</xmpG:green><xmpG:blue>59</xmpG:blue></rdf:li><rdf:li rdf:parseType="Resource"><xmpG:swatchName>R=252 G=238 B=33</xmpG:swatchName><xmpG:mode>RGB</xmpG:mode><xmpG:type>PROCESS</xmpG:type><xmpG:red>252</xmpG:red><xmpG:green>238</xmpG:green><xmpG:blue>33</xmpG:blue></rdf:li><rdf:li rdf:parseType="Resource"><xmpG:swatchName>R=217 G=224 B=33</xmpG:swatchName><xmpG:mode>RGB</xmpG:mode><xmpG:type>PROCESS</xmpG:type><xmpG:red>217</xmpG:red><xmpG:green>224</xmpG:green><xmpG:blue>33</xmpG:blue></rdf:li><rdf:li rdf:parseType="Resource"><xmpG:swatchName>R=140 G=198 B=63</xmpG:swatchName><xmpG:mode>RGB</xmpG:mode><xmpG:type>PROCESS</xmpG:type><xmpG:red>140</xmpG:red><xmpG:green>198</xmpG:green><xmpG:blue>63</xmpG:blue></rdf:li><rdf:li rdf:parseType="Resource"><xmpG:swatchName>R=57 G=181 B=74</xmpG:swatchName><xmpG:mode>RGB</xmpG:mode><xmpG:type>PROCESS</xmpG:type><xmpG:red>57</xmpG:red><xmpG:green>181</xmpG:green><xmpG:blue>74</xmpG:blue></rdf:li><rdf:li rdf:parseType="Resource"><xmpG:swatchName>R=0 G=146 B=69</xmpG:swatchName><xmpG:mode>RGB</xmpG:mode><xmpG:type>PROCESS</xmpG:type><xmpG:red>0</xmpG:red><xmpG:green>146</xmpG:green><xmpG:blue>69</xmpG:blue></rdf:li><rdf:li rdf:parseType="Resource"><xmpG:swatchName>R=0 G=104 B=55</xmpG:swatchName><xmpG:mode>RGB</xmpG:mode><xmpG:type>PROCESS</xmpG:type><xmpG:red>0</xmpG:red><xmpG:green>104</xmpG:green><xmpG:blue>55</xmpG:blue></rdf:li><rdf:li rdf:parseType="Resource"><xmpG:swatchName>R=34 G=181 B=115</xmpG:swatchName><xmpG:mode>RGB</xmpG:mode><xmpG:type>PROCESS</xmpG:type><xmpG:red>34</xmpG:red><xmpG:green>181</xmpG:green><xmpG:blue>115</xmpG:blue></rdf:li><rdf:li rdf:parseType="Resource"><xmpG:swatchName>R=0 G=169 B=157</xmpG:swatchName><xmpG:mode>RGB</xmpG:mode><xmpG:type>PROCESS</xmpG:type><xmpG:red>0</xmpG:red><xmpG:green>169</xmpG:green><xmpG:blue>157</xmpG:blue></rdf:li><rdf:li rdf:parseType="Resource"><xmpG:swatchName>R=41 G=171 B=226</xmpG:swatchName><xmpG:mode>RGB</xmpG:mode><xmpG:type>PROCESS</xmpG:type><xmpG:red>41</xmpG:red><xmpG:green>171</xmpG:green><xmpG:blue>226</xmpG:blue></rdf:li><rdf:li rdf:parseType="Resource"><xmpG:swatchName>R=0 G=113 B=188</xmpG:swatchName><xmpG:mode>RGB</xmpG:mode><xmpG:type>PROCESS</xmpG:type><xmpG:red>0</xmpG:red><xmpG:green>113</xmpG:green><xmpG:blue>188</xmpG:blue></rdf:li><rdf:li rdf:parseType="Resource"><xmpG:swatchName>R=46 G=49 B=146</xmpG:swatchName><xmpG:mode>RGB</xmpG:mode><xmpG:type>PROCESS</xmpG:type><xmpG:red>46</xmpG:red><xmpG:green>49</xmpG:green><xmpG:blue>146</xmpG:blue></rdf:li><rdf:li rdf:parseType="Resource"><xmpG:swatchName>R=27 G=20 B=100</xmpG:swatchName><xmpG:mode>RGB</xmpG:mode><xmpG:type>PROCESS</xmpG:type><xmpG:red>27</xmpG:red><xmpG:green>20</xmpG:green><xmpG:blue>100</xmpG:blue></rdf:li><rdf:li rdf:parseType="Resource"><xmpG:swatchName>R=102 G=45 B=145</xmpG:swatchName><xmpG:mode>RGB</xmpG:mode><xmpG:type>PROCESS</xmpG:type><xmpG:red>102</xmpG:red><xmpG:green>45</xmpG:green><xmpG:blue>145</xmpG:blue></rdf:li><rdf:li rdf:parseType="Resource"><xmpG:swatchName>R=147 G=39 B=143</xmpG:swatchName><xmpG:mode>RGB</xmpG:mode><xmpG:type>PROCESS</xmpG:type><xmpG:red>147</xmpG:red><xmpG:green>39</xmpG:green><xmpG:blue>143</xmpG:blue></rdf:li><rdf:li rdf:parseType="Resource"><xmpG:swatchName>R=158 G=0 B=93</xmpG:swatchName><xmpG:mode>RGB</xmpG:mode><xmpG:type>PROCESS</xmpG:type><xmpG:red>158</xmpG:red><xmpG:green>0</xmpG:green><xmpG:blue>93</xmpG:blue></rdf:li><rdf:li rdf:parseType="Resource"><xmpG:swatchName>R=212 G=20 B=90</xmpG:swatchName><xmpG:mode>RGB</xmpG:mode><xmpG:type>PROCESS</xmpG:type><xmpG:red>212</xmpG:red><xmpG:green>20</xmpG:green><xmpG:blue>90</xmpG:blue></rdf:li><rdf:li rdf:parseType="Resource"><xmpG:swatchName>R=237 G=30 B=121</xmpG:swatchName><xmpG:mode>RGB</xmpG:mode><xmpG:type>PROCESS</xmpG:type><xmpG:red>237</xmpG:red><xmpG:green>30</xmpG:green><xmpG:blue>121</xmpG:blue></rdf:li><rdf:li rdf:parseType="Resource"><xmpG:swatchName>R=199 G=178 B=153</xmpG:swatchName><xmpG:mode>RGB</xmpG:mode><xmpG:type>PROCESS</xmpG:type><xmpG:red>199</xmpG:red><xmpG:green>178</xmpG:green><xmpG:blue>153</xmpG:blue></rdf:li><rdf:li rdf:parseType="Resource"><xmpG:swatchName>R=153 G=134 B=117</xmpG:swatchName><xmpG:mode>RGB</xmpG:mode><xmpG:type>PROCESS</xmpG:type><xmpG:red>153</xmpG:red><xmpG:green>134</xmpG:green><xmpG:blue>117</xmpG:blue></rdf:li><rdf:li rdf:parseType="Resource"><xmpG:swatchName>R=115 G=99 B=87</xmpG:swatchName><xmpG:mode>RGB</xmpG:mode><xmpG:type>PROCESS</xmpG:type><xmpG:red>115</xmpG:red><xmpG:green>99</xmpG:green><xmpG:blue>87</xmpG:blue></rdf:li><rdf:li rdf:parseType="Resource"><xmpG:swatchName>R=83 G=71 B=65</xmpG:swatchName><xmpG:mode>RGB</xmpG:mode><xmpG:type>PROCESS</xmpG:type><xmpG:red>83</xmpG:red><xmpG:green>71</xmpG:green><xmpG:blue>65</xmpG:blue></rdf:li><rdf:li rdf:parseType="Resource"><xmpG:swatchName>R=198 G=156 B=109</xmpG:swatchName><xmpG:mode>RGB</xmpG:mode><xmpG:type>PROCESS</xmpG:type><xmpG:red>198</xmpG:red><xmpG:green>156</xmpG:green><xmpG:blue>109</xmpG:blue></rdf:li><rdf:li rdf:parseType="Resource"><xmpG:swatchName>R=166 G=124 B=82</xmpG:swatchName><xmpG:mode>RGB</xmpG:mode><xmpG:type>PROCESS</xmpG:type><xmpG:red>166</xmpG:red><xmpG:green>124</xmpG:green><xmpG:blue>82</xmpG:blue></rdf:li><rdf:li rdf:parseType="Resource"><xmpG:swatchName>R=140 G=98 B=57</xmpG:swatchName><xmpG:mode>RGB</xmpG:mode><xmpG:type>PROCESS</xmpG:type><xmpG:red>140</xmpG:red><xmpG:green>98</xmpG:green><xmpG:blue>57</xmpG:blue></rdf:li><rdf:li rdf:parseType="Resource"><xmpG:swatchName>R=117 G=76 B=36</xmpG:swatchName><xmpG:mode>RGB</xmpG:mode><xmpG:type>PROCESS</xmpG:type><xmpG:red>117</xmpG:red><xmpG:green>76</xmpG:green><xmpG:blue>36</xmpG:blue></rdf:li><rdf:li rdf:parseType="Resource"><xmpG:swatchName>R=96 G=56 B=19</xmpG:swatchName><xmpG:mode>RGB</xmpG:mode><xmpG:type>PROCESS</xmpG:type><xmpG:red>96</xmpG:red><xmpG:green>56</xmpG:green><xmpG:blue>19</xmpG:blue></rdf:li><rdf:li rdf:parseType="Resource"><xmpG:swatchName>R=66 G=33 B=11</xmpG:swatchName><xmpG:mode>RGB</xmpG:mode><xmpG:type>PROCESS</xmpG:type><xmpG:red>66</xmpG:red><xmpG:green>33</xmpG:green><xmpG:blue>11</xmpG:blue></rdf:li></rdf:Seq></xmpG:Colorants></rdf:li><rdf:li rdf:parseType="Resource"><xmpG:groupName>グレー</xmpG:groupName><xmpG:groupType>1</xmpG:groupType><xmpG:Colorants><rdf:Seq><rdf:li rdf:parseType="Resource"><xmpG:swatchName>R=0 G=0 B=0</xmpG:swatchName><xmpG:mode>RGB</xmpG:mode><xmpG:type>PROCESS</xmpG:type><xmpG:red>0</xmpG:red><xmpG:green>0</xmpG:green><xmpG:blue>0</xmpG:blue></rdf:li><rdf:li rdf:parseType="Resource"><xmpG:swatchName>R=26 G=26 B=26</xmpG:swatchName><xmpG:mode>RGB</xmpG:mode><xmpG:type>PROCESS</xmpG:type><xmpG:red>26</xmpG:red><xmpG:green>26</xmpG:green><xmpG:blue>26</xmpG:blue></rdf:li><rdf:li rdf:parseType="Resource"><xmpG:swatchName>R=51 G=51 B=51</xmpG:swatchName><xmpG:mode>RGB</xmpG:mode><xmpG:type>PROCESS</xmpG:type><xmpG:red>51</xmpG:red><xmpG:green>51</xmpG:green><xmpG:blue>51</xmpG:blue></rdf:li><rdf:li rdf:parseType="Resource"><xmpG:swatchName>R=77 G=77 B=77</xmpG:swatchName><xmpG:mode>RGB</xmpG:mode><xmpG:type>PROCESS</xmpG:type><xmpG:red>77</xmpG:red><xmpG:green>77</xmpG:green><xmpG:blue>77</xmpG:blue></rdf:li><rdf:li rdf:parseType="Resource"><xmpG:swatchName>R=102 G=102 B=102</xmpG:swatchName><xmpG:mode>RGB</xmpG:mode><xmpG:type>PROCESS</xmpG:type><xmpG:red>102</xmpG:red><xmpG:green>102</xmpG:green><xmpG:blue>102</xmpG:blue></rdf:li><rdf:li rdf:parseType="Resource"><xmpG:swatchName>R=128 G=128 B=128</xmpG:swatchName><xmpG:mode>RGB</xmpG:mode><xmpG:type>PROCESS</xmpG:type><xmpG:red>128</xmpG:red><xmpG:green>128</xmpG:green><xmpG:blue>128</xmpG:blue></rdf:li><rdf:li rdf:parseType="Resource"><xmpG:swatchName>R=153 G=153 B=153</xmpG:swatchName><xmpG:mode>RGB</xmpG:mode><xmpG:type>PROCESS</xmpG:type><xmpG:red>153</xmpG:red><xmpG:green>153</xmpG:green><xmpG:blue>153</xmpG:blue></rdf:li><rdf:li rdf:parseType="Resource"><xmpG:swatchName>R=179 G=179 B=179</xmpG:swatchName><xmpG:mode>RGB</xmpG:mode><xmpG:type>PROCESS</xmpG:type><xmpG:red>179</xmpG:red><xmpG:green>179</xmpG:green><xmpG:blue>179</xmpG:blue></rdf:li><rdf:li rdf:parseType="Resource"><xmpG:swatchName>R=204 G=204 B=204</xmpG:swatchName><xmpG:mode>RGB</xmpG:mode><xmpG:type>PROCESS</xmpG:type><xmpG:red>204</xmpG:red><xmpG:green>204</xmpG:green><xmpG:blue>204</xmpG:blue></rdf:li><rdf:li rdf:parseType="Resource"><xmpG:swatchName>R=230 G=230 B=230</xmpG:swatchName><xmpG:mode>RGB</xmpG:mode><xmpG:type>PROCESS</xmpG:type><xmpG:red>230</xmpG:red><xmpG:green>230</xmpG:green><xmpG:blue>230</xmpG:blue></rdf:li><rdf:li rdf:parseType="Resource"><xmpG:swatchName>R=242 G=242 B=242</xmpG:swatchName><xmpG:mode>RGB</xmpG:mode><xmpG:type>PROCESS</xmpG:type><xmpG:red>242</xmpG:red><xmpG:green>242</xmpG:green><xmpG:blue>242</xmpG:blue></rdf:li></rdf:Seq></xmpG:Colorants></rdf:li><rdf:li rdf:parseType="Resource"><xmpG:groupName>Web カラーグループ</xmpG:groupName><xmpG:groupType>1</xmpG:groupType><xmpG:Colorants><rdf:Seq><rdf:li rdf:parseType="Resource"><xmpG:swatchName>R=63 G=169 B=245</xmpG:swatchName><xmpG:mode>RGB</xmpG:mode><xmpG:type>PROCESS</xmpG:type><xmpG:red>63</xmpG:red><xmpG:green>169</xmpG:green><xmpG:blue>245</xmpG:blue></rdf:li><rdf:li rdf:parseType="Resource"><xmpG:swatchName>R=122 G=201 B=67</xmpG:swatchName><xmpG:mode>RGB</xmpG:mode><xmpG:type>PROCESS</xmpG:type><xmpG:red>122</xmpG:red><xmpG:green>201</xmpG:green><xmpG:blue>67</xmpG:blue></rdf:li><rdf:li rdf:parseType="Resource"><xmpG:swatchName>R=255 G=147 B=30</xmpG:swatchName><xmpG:mode>RGB</xmpG:mode><xmpG:type>PROCESS</xmpG:type><xmpG:red>255</xmpG:red><xmpG:green>147</xmpG:green><xmpG:blue>30</xmpG:blue></rdf:li><rdf:li rdf:parseType="Resource"><xmpG:swatchName>R=255 G=29 B=37</xmpG:swatchName><xmpG:mode>RGB</xmpG:mode><xmpG:type>PROCESS</xmpG:type><xmpG:red>255</xmpG:red><xmpG:green>29</xmpG:green><xmpG:blue>37</xmpG:blue></rdf:li><rdf:li rdf:parseType="Resource"><xmpG:swatchName>R=255 G=123 B=172</xmpG:swatchName><xmpG:mode>RGB</xmpG:mode><xmpG:type>PROCESS</xmpG:type><xmpG:red>255</xmpG:red><xmpG:green>123</xmpG:green><xmpG:blue>172</xmpG:blue></rdf:li><rdf:li rdf:parseType="Resource"><xmpG:swatchName>R=189 G=204 B=212</xmpG:swatchName><xmpG:mode>RGB</xmpG:mode><xmpG:type>PROCESS</xmpG:type><xmpG:red>189</xmpG:red><xmpG:green>204</xmpG:green><xmpG:blue>212</xmpG:blue></rdf:li></rdf:Seq></xmpG:Colorants></rdf:li></rdf:Seq></xmpTPg:SwatchGroups></rdf:Description><rdf:Description xmlns:pdf="http://ns.adobe.com/pdf/1.3/"><pdf:Producer>Adobe PDF library 10.01</pdf:Producer></rdf:Description></rdf:RDF></x:xmpmeta><?xpacket end="w"?></metadata><line fill="none" stroke="#4A1F00" stroke-width="2" stroke-miterlimit="10" x1="98.25" y1="34" x2="986.25" y2="34"/><rect x=".5" y=".5" fill="#FFF" stroke="#210701" stroke-miterlimit="10" width="130" height="65"/><g fill="#210701"><path d="M36.74 29.552c-1.32 0-1.755.03-1.905.045-.045 0-.27.03-.315.03-.06 0-.075-.03-.135-.09l-.285-.345c-.06-.061-.06-.075-.06-.105 0-.015.015-.03.045-.03.255 0 1.38.091 1.605.091.45 0 .615 0 .615-.466 0-.149-.09-1.545-.105-1.694-.015-.09-.09-.48-.09-.555 0-.091.105-.105.15-.105.075 0 1.335.285 1.335.54 0 .03-.21.285-.225.314-.135.165-.165.45-.165.646 0 1.2 0 1.335.465 1.335h.405c.285 0 .3-.03.54-.315.12-.135.21-.239.315-.239.24 0 .915.84.915 1.05 0 .12-.045.135-.36.225-.165.045-.75.795-1.08 1.2-.33.42-.675.84-1.02 1.245-.06.075-.135.149-.135.3 0 .12.045.12.525.195.69.09 1.245.614 1.245 1.17 0 .345-.24.63-.465.63-.225 0-.33-.12-.555-.615-.105-.255-.39-.795-.63-.795-.15 0-.15.045-.15.525 0 .854.09 4.619.09 5.385 0 .255-.06.765-.66.765-.465 0-.465-.285-.465-.51 0-.136.075-1.141.09-1.351.015-.42.09-2.97.09-3.27 0-.18 0-.975-.015-1.065-.03-.09-.06-.149-.15-.149-.045 0-.39.3-.405.3-1.125.96-1.995 1.32-2.085 1.32-.03 0-.015-.061.09-.15 1.905-1.71 3-3.015 4.14-4.859.15-.24.21-.36.21-.45 0-.135-.15-.15-.315-.15H36.74zm8.31-2.25c.66 0 .735 0 .9-.239.225-.315.36-.405.465-.405.24 0 1.065.765 1.065.854 0 .15-.195.195-.795.195H41.96c-1.095 0-1.515 0-1.89.03-.06 0-.27.045-.315.045-.06 0-.09-.045-.135-.105l-.285-.345c-.06-.06-.075-.075-.075-.09 0-.03.03-.045.06-.045.105 0 .57.06.66.06.735.03 1.35.045 2.055.045h3.015zm-3.96 11.49c-.15 0-.285 0-.375.27-.105.315-.225.69-.675.69-.405 0-.405-.271-.405-.525 0-.555.045-3.33.045-3.96 0-.21-.045-1.215-.045-1.439 0-.075 0-.271.18-.271.09 0 .36.165.525.271.195.104.345.18.705.18h4.05c.285 0 .405-.03.51-.21.18-.271.24-.36.36-.36.03 0 1.125.465 1.125.811 0 .09-.045.104-.315.359-.135.105-.135.99-.135 1.275 0 .39.105 2.28.105 2.715 0 .33 0 1.05-.72 1.05-.42 0-.435-.165-.465-.479-.03-.375-.255-.375-.45-.375h-4.02zm3.36-9.585c.33 0 .435-.105.51-.21.18-.255.225-.33.33-.33.09 0 1.11.495 1.11.75 0 .09-.03.105-.315.33-.15.12-.15.33-.15.479 0 .21.06 1.755.06 2.085 0 .36-.39.615-.72.615-.255 0-.3-.104-.405-.359-.105-.256-.3-.256-.435-.256H41.93c-.285 0-.375.105-.48.195-.345.345-.405.405-.645.405-.3 0-.42-.12-.42-.42 0-.03.075-1.71.075-2.04 0-.42-.015-.795-.03-1.17 0-.075-.06-.42-.06-.495s.06-.09.12-.09c.09 0 .405.18.6.3.33.195.465.21.84.21h2.52zm-2.28 7.02c.465 0 .465-.21.465-.915s0-.915-.465-.915h-.99c-.465 0-.465.21-.465.915s0 .915.465.915h.99zm.045 2.174c.435 0 .435-.104.435-.93 0-.72 0-.854-.435-.854H41.15c-.435 0-.435.104-.435.93 0 .72 0 .854.435.854h1.065zm-.285-8.804c-.45 0-.45.24-.45 1.096 0 1.109 0 1.229.45 1.229h2.52c.465 0 .465-.225.465-1.095 0-1.11 0-1.23-.465-1.23h-2.52zm3.18 8.804c.495 0 .495-.149.495-.885 0-.765 0-.899-.495-.899h-1.035c-.495 0-.495.149-.495.885 0 .765 0 .899.495.899h1.035zm.015-2.174c.48 0 .48-.12.48-1.229 0-.42-.06-.601-.48-.601h-1.05c-.42 0-.48.165-.48.601 0 1.109 0 1.229.48 1.229h1.05zm9.48 2.009c.465 0 .465-.12.465-1.185 0-.09-.03-1.065-.045-1.155-.03-.255-.09-.404-.09-.51 0-.135.06-.18.18-.18.105 0 .615.135.72.165.36.09.51.12.51.255 0 .045-.03.104-.135.21-.135.135-.135.75-.135 1.02 0 1.306 0 1.38.495 1.38h1.755c.375 0 .51 0 .51-1.229 0-.255-.03-.63-.045-.84-.015-.195-.06-.42-.06-.51 0-.105.015-.136.105-.136.045 0 .72.165 1.065.24.09.015.21.09.21.18 0 .045-.09.181-.12.226-.06.09-.06.225-.06.314 0 .255.03 1.561.03 1.86 0 .72-.78.734-.885.734-.18 0-.21-.045-.42-.345-.045-.075-.135-.09-.375-.09h-5.595c-.435 0-.45.135-.465.585-.015.42-.72.525-.78.525-.27 0-.3-.165-.3-.346 0-.165.03-1.274.03-1.5 0-.3.03-1.095-.045-1.604-.045-.27-.09-.51-.09-.585 0-.09.09-.09.12-.09.09 0 .195.03 1.155.33.09.029.165.135.165.21 0 .06-.18.3-.195.375-.06.285-.06.39-.075 1.08 0 .435.015.614.465.614h1.935zm-.585-3.269c-.18 0-.3 0-.375.15-.15.255-.195.359-.6.359-.42 0-.51-.18-.51-.51 0-.045.015-.18.015-.24.045-1.02.045-1.064.045-2.145 0-1.396 0-2.94-.075-4.32 0-.06-.03-.359-.03-.42 0-.045.015-.135.09-.135.12 0 .39.105.735.255.21.09.3.12.51.12.33 0 .36 0 .48-.09.24-.18.675-.78.915-1.17.255-.436.285-.495.36-.495.195 0 .915.3.975.33.6.255.66.27.66.39 0 .135-.135.135-.48.135-.51 0-1.695.735-1.695.825 0 .075.06.075.225.075h4.5c.15 0 .33 0 .525-.225.285-.33.315-.36.435-.36.24 0 1.11.48 1.11.675 0 .075-.3.315-.345.391-.075.104-.09.255-.09.479 0 .33.075 1.995.075 2.37 0 .165 0 .78-.765.78-.255 0-.3-.105-.405-.36-.045-.12-.15-.165-.375-.165h-5.895c-.405 0-.42.135-.42.63 0 .54 0 .66.42.66h7.094c.585 0 .72 0 .885-.135.135-.105.63-.795.81-.795.15 0 1.05.914 1.05 1.125 0 .21-.075.21-.78.21H54.05c-.375 0-.435.135-.435.42 0 .689.03.795.45.795h8.055c.24 0 .39-.061.57-.33.18-.24.24-.346.345-.346.03 0 1.065.436 1.065.735 0 .135-.06.195-.285.345-.12.075-.195.181-.225.525-.15 2.31-.18 2.609-.54 3.255-.39.72-1.47 1.095-1.56 1.095-.12 0-.21-.09-.315-.225-.285-.42-.39-.495-.615-.675-.06-.061-.48-.301-.48-.375 0-.075.045-.075.09-.075.165 0 .945.104 1.125.104.825 0 .975-.465 1.095-1.47.06-.54.135-1.5.135-1.74 0-.435-.27-.435-.525-.435h-7.98zm-.045-6.495c-.375 0-.375.181-.375.54 0 .42 0 .585.375.585h5.97c.375 0 .375-.18.375-.51 0-.465 0-.615-.375-.615h-5.97zm.015 1.515c-.39 0-.39.255-.39.555 0 .585 0 .735.435.735h5.879c.39 0 .39-.24.39-.57 0-.51 0-.72-.375-.72H53.99zm22.83 4.5c.15 0 .33 0 .645-.375.39-.48.495-.511.615-.511.225 0 1.395.84 1.395 1.065 0 .149-.135.21-.39.21h-4.17c-.39 0-.39.314-.39.93 0 .255 0 2.46.015 2.61.03.3.36.3.375.3h3.24c.33 0 .435-.15.615-.45.39-.6.435-.66.57-.66.18 0 1.365 1.095 1.365 1.32 0 .165-.15.18-.375.18H69.695c-.465 0-1.47 0-1.995.045-.06 0-.27.03-.315.03-.06 0-.09-.03-.135-.09l-.3-.345c-.045-.061-.06-.075-.06-.091 0-.029.015-.045.06-.045.075 0 .465.045.54.045.45.03 1.62.061 2.175.061h3.36c.39 0 .39-.33.39-.48.015-.42.045-2.25.045-2.625 0-.435 0-.734-.39-.734h-2.04c-.375 0-1.365.015-1.89.045-.06 0-.285.045-.33.045-.03 0-.105-.075-.12-.09l-.3-.36c-.06-.06-.06-.075-.06-.09 0-.03.015-.045.06-.045.105 0 .555.06.66.06.645.03 1.26.046 2.055.046h5.715zm-7.215-5.64c-.345 0-.375.016-.48.511-.12.614-.54 1.185-1.11 1.185-.345 0-.54-.195-.54-.39 0-.165.465-.84.54-.99.18-.345.285-.96.3-1.365 0-.06.015-.255.09-.255.09 0 .3.315.525.646.15.239.285.27.54.27h3.495c.405 0 .405-.285.405-1.005 0-.3-.03-.705-.075-.87-.015-.045-.135-.225-.135-.27 0-.03.015-.12.195-.12.3 0 1.5.225 1.5.465 0 .075-.285.375-.315.45-.12.239-.12.75-.12.915 0 .135 0 .435.375.435h3.255c.375 0 .495-.165.615-.435.09-.181.18-.36.27-.36.12 0 1.11.675 1.335.825.375.255.375.375.375.45 0 .3-.12.284-1.365.314-.375 0-.735.225-.885.315-.075.045-.54.345-.585.345s-.06-.045-.06-.075c0-.06.48-.72.48-.885 0-.105-.105-.105-.285-.105H76.01c-.39 0-.39.315-.39.466 0 .435.015 1.709.105 2.084.105.391.33.436 1.635.436 1.455 0 1.604 0 2.01-.63.075-.135.45-.855.525-.855.09 0 .09.061.075.45 0 .3 0 .54.255.735.21.165.225.18.225.285 0 .314-.405.72-.9.854-.51.15-1.125.15-2.16.15-2.31 0-2.64 0-2.64-1.365 0-.555 0-1.755-.03-2.25-.015-.21-.15-.36-.39-.36h-1.41c-.24 0-.345 0-.345.091 0 .045.24.194.375.27.33.21.33.255.33.33 0 .149-.12.21-.45.36-.12.06-.81 1.05-.975 1.244-.9 1.08-1.74 1.59-2.73 2.011-.72.314-1.245.449-1.455.449-.015 0-.075 0-.075-.06 0-.03.18-.105.225-.135 2.115-.9 3.9-3.195 3.9-4.26 0-.226-.09-.301-.435-.301h-1.68zm16.02 8.355c.195.479.57 1.47.57 1.904 0 .36-.315.766-.765.766-.645 0-.675-.391-.735-1.815-.03-.57-.09-1.86-1.335-2.34-.06-.03-.27-.105-.27-.135 0-.061.03-.09.09-.09.09 0 .51.045.6.045.51 0 .645-.045 1.68-2.4.42-.93.945-2.489 1.335-3.435.045-.09.075-.18.135-.18.015 0 .06.015.06.09 0 .314-.87 3.51-1.23 4.47-.18.495-.495 1.35-.495 1.77 0 .344.045.585.36 1.35zm-.705-5.056c-.225 0-.36-.074-.585-.6-.165-.36-.48-.81-.765-1.08-.045-.045-.315-.255-.315-.3 0-.06.195-.06.24-.06.42 0 1.8.255 1.965 1.364.045.317-.18.676-.54.676zm1.17-3.269c-.285 0-.315-.045-.735-.854-.27-.525-.585-.915-.975-1.215-.09-.061-.105-.105-.105-.12 0-.061.135-.061.195-.061.42 0 2.145.495 2.145 1.53 0 .39-.225.72-.525.72zm.87 2.325c-.045-.061-.075-.09-.075-.12s.03-.03.06-.03c.105 0 .57.045.66.045.225.016 1.35.061 1.56.061.39 0 .465-.181.48-.42 0-.165.03-1.38.03-1.5 0-.42-.195-.48-.45-.48-.195 0-1.26.075-1.395.075-.045 0-.09-.045-.135-.09l-.285-.345c-.06-.075-.06-.091-.06-.105 0-.03.015-.03.045-.03.3 0 1.575.091 1.83.091.375 0 .42-.195.42-.646 0-.27-.03-.81-.075-.945-.015-.06-.15-.255-.15-.314 0-.105.105-.135.18-.135.15 0 1.02.21 1.17.255.18.045.405.104.405.3 0 .135-.06.18-.33.314-.165.075-.165.436-.165.556 0 .33.03.63.39.63h1.065c.39 0 .39-.315.39-.48 0-.135-.015-.51-.03-.795 0-.09-.06-.495-.06-.569 0-.105.045-.181.165-.181.045 0 .96.21 1.23.315.15.06.27.12.27.27 0 .12-.045.15-.435.45-.06.045-.105.105-.105.48 0 .194 0 .51.39.51h.615c.18 0 .27-.15.345-.3.285-.54.315-.601.39-.601.18 0 1.125.78 1.125 1.065 0 .21-.255.225-.375.225h-2.1c-.39 0-.39.315-.39.48 0 .255-.015 1.455 0 1.56.015.345.36.36.375.36h1.29c.18 0 .24-.165.465-.57.12-.225.165-.3.3-.3.18 0 1.185.78 1.185 1.064 0 .165-.24.195-.39.195H93.86c-.045 0-.345 0-.345.195 0 .39 1.515 2.234 3.705 3.135.345.135.375.165.375.24 0 .06-.36.165-.555.255-.33.149-.63.345-.735.495-.09.104-.12.135-.15.135-.135 0-1.635-1.141-2.805-3.72-.21-.48-.33-.735-.795-.735h-2.31c-.03 0-.075 0-.075.045s.405.405.405.51c0 .091-.42.226-.465.285-.165.195-.375.525-.525.72-.36.45-1.23 1.516-2.43 2.266-.12.074-.465.285-.57.285-.015 0-.045 0-.045-.046 0-.074.03-.104.33-.375.585-.555 1.56-1.814 1.965-2.579.03-.061.36-.66.36-.886 0-.225-.18-.225-.315-.225-.24 0-1.29.075-1.5.075-.045 0-.075-.03-.135-.09l-.285-.33zm3.705 5.025c-.405 0-.54 0-.54.601 0 1.109 0 1.229.075 1.425.165.404.69.435 1.485.435.975 0 2.565 0 2.88-.375.24-.285.48-.96.63-1.425.045-.15.105-.285.15-.285.075 0 .075.061.105.33.015.09.075.81.3 1.05s.255.271.255.391c0 .194-.315.824-1.035 1.05-.78.239-2.31.239-2.7.239-3.12 0-3.12-.135-3.12-2.43 0-.87 0-1.335-.06-1.62-.015-.074-.12-.345-.12-.404 0-.03.015-.075.09-.075.405 0 1.11.435 1.17.479.3.21.36.226.795.226h1.56c.42 0 .42-.18.42-.99 0-.465 0-.75-.39-.75h-.51c-.99 0-1.47.016-1.89.045-.06 0-.27.03-.315.03-.06 0-.09-.03-.135-.09l-.285-.345c-.045-.046-.075-.075-.075-.105 0-.015.03-.03.06-.03.105 0 .555.045.66.045.735.045 1.35.061 2.055.061h.585c.165 0 .24 0 .375-.15.12-.135.15-.165.24-.165.135 0 .945.646.945.84 0 .12-.06.181-.33.375-.075.061-.075.21-.075.271 0 .12.06 1.155.06 1.38 0 .705-.645.705-.69.705-.27 0-.285-.165-.3-.375 0-.15-.075-.36-.405-.36h-1.92zm.345-7.47c-.225 0-.345.165-.36.391 0 .165-.015 1.364-.015 1.59 0 .12 0 .42.39.42h1.125c.405 0 .405-.105.405-1.95 0-.12 0-.45-.36-.45H91.01z"/></g><g fill="#4A1F00"><g><path d="M514.813 18.341c.468.662.988 1.131 1.846 1.676 1.209.754 2.34 1.184 3.705 1.365v.143c-.507.156-.715.377-.845.938-.715-.234-.988-.377-1.625-.781-1.469-.936-2.314-1.754-3.289-3.197v1.43c0 .545.026 1.846.065 2.77 0 .104-.026.129-.117.156-.065.025-.572.064-.702.064s-.182-.053-.195-.17c.013-.324.052-1.248.091-2.756v-1.066c-.832.924-1.56 1.547-2.678 2.289-.884.572-1.547.896-2.756 1.365l-.104-.182c1.352-.678 2.08-1.184 3.263-2.236.793-.715 1.092-1.041 1.677-1.807h-2.21v.338c-.013.104-.039.129-.117.154a3.044 3.044 0 01-.546.066c-.156 0-.234-.053-.234-.143 0-.014 0-.053.013-.092.052-.949.065-1.768.065-3.354 0-.547-.026-1.002-.078-1.586.455.193.585.26.988.52h2.717V12.88H509.6a7.94 7.94 0 00-1.118.078l-.104-.533c.663.117 1.027.156 1.391.156h3.978v-.078c0-.818-.013-.975-.104-1.586 1.209.143 1.469.195 1.469.338 0 .09-.104.168-.507.338v.988h3.367c.351-.416.468-.533.819-.924.546.43.728.572 1.274 1.027.039.039.052.078.052.104 0 .053-.052.092-.117.092h-5.395v1.365h2.756c.221-.234.299-.313.52-.52.351.221.455.299.741.52.104.064.143.117.143.182 0 .104-.104.182-.468.338 0 2.119.013 2.301.039 3.848 0 .105-.026.156-.117.182a5.684 5.684 0 01-.611.053c-.117 0-.156-.039-.156-.168v-.338h-2.639zm-1.066-3.797h-2.808v1.586h2.808v-1.586zm0 1.885h-2.808v1.611h2.808v-1.611zm3.705-1.885h-2.847v1.586h2.847v-1.586zm0 1.885h-2.847v1.611h2.847v-1.611zm8.228 3.068c-1.443.961-1.521 1.014-2.171 1.391.013.092.013.156.013.195 0 .299-.065.48-.195.48-.065 0-.143-.051-.195-.143a5.58 5.58 0 01-.312-.662c-.052-.145-.156-.377-.286-.678 1.378-.402 1.963-.609 3.848-1.391v-3.678h-2.418c-.13 0-.494.025-1.105.076l-.065-.531c.377.104.793.154 1.17.154h2.418c0-2.99 0-2.99-.065-3.678 1.196.078 1.56.156 1.56.338 0 .104-.052.143-.572.324-.013 1.313-.013 1.313-.013 2.184 0 .846.013 3.783.039 8.451v.039c0 .156-.104.207-.494.221-.104 0-.195.014-.247.014h-.065c-.13 0-.195-.053-.195-.17v-.064l.039-3.328-.689.456zm4.421-3.381c.338-.234.702-.572 1.365-1.273.702-.74 1.001-1.092 1.404-1.664.325.182.351.207.962.559.325.195.351.221.351.299 0 .105-.13.182-.312.182-.104 0-.247-.012-.403-.037-2.184 1.611-2.288 1.689-3.367 2.223v4.758c0 .299.065.324 1.131.324 1.521 0 1.521 0 1.625-.182.065-.129.156-.416.273-.857.052-.195.143-.547.26-1.041.065-.221.182-.715.286-1.117h.208l-.091 2.561c-.013.064-.013.131-.013.156 0 .182.065.26.234.324.299.117.403.209.403.404 0 .117-.117.299-.247.363-.156.078-.299.104-.689.143-.416.027-1.066.053-1.482.053-.819 0-1.755-.014-2.015-.039-.312-.025-.546-.143-.65-.313-.091-.129-.13-.271-.143-.584.013-1.041.013-1.041.013-2.613v-5.81c0-1.027 0-1.197-.078-1.912 1.43.143 1.638.182 1.638.352 0 .129-.117.195-.663.35v4.391zm15.47-3.289c.234-.299.299-.389.559-.65.364.287.468.365.793.639.091.09.13.143.13.207 0 .092-.104.182-.429.338v2.367c0 4.51 0 4.68.091 6.746-.013.117-.039.156-.13.182-.091.039-.507.092-.715.092-.104 0-.143-.039-.143-.156v-.949h-6.058v.871c0 .092-.039.143-.13.17a6.615 6.615 0 01-.585.039c-.182 0-.247-.039-.247-.156v-.027c.039-1.572.065-3.613.065-5.018 0-3.172-.013-4.68-.052-5.434.494.299.65.402 1.131.74h1.417a8.252 8.252 0 00.637-2.209c1.495.389 1.534.402 1.534.533 0 .104-.117.154-.598.26-.143.168-.247.311-.312.389-.481.625-.598.768-.871 1.027h3.913zm.156 2.692v-2.393h-6.058v2.393h6.058zm-6.059.298v2.535h6.058v-2.535h-6.058zm0 2.834v2.691h6.058v-2.691h-6.058zm12.155.039c.026-.766.052-1.898.052-2.859 0-.365 0-.365-.052-1.521.416.221.546.287.949.508h1.469v-1.041h-2.093c-.26 0-.469.014-.896.064l-.092-.455c.299.053.754.092.988.092h2.093v-1.066c-.962.143-1.755.221-2.808.287l-.026-.182a27.037 27.037 0 003.185-.717c1.08-.299 1.639-.52 2.146-.805.325.168.663.363.871.48.261.156.272.17.272.234s-.09.117-.233.117c-.065 0-.194-.014-.546-.039a25 25 0 01-2.094.48v1.209h1.535c.246-.299.324-.377.598-.662.441.338.585.441 1.001.779.039.039.065.078.065.104 0 .053-.065.078-.17.078h-3.029v1.041h1.521c.195-.221.26-.287.455-.508.273.209.364.287.637.508.104.09.144.129.144.168 0 .064-.013.078-.339.313-.012 1.43-.012 1.43-.012 1.82 0 .338.012.701.025 1.377 0 .184-.143.248-.559.248-.156 0-.248-.053-.248-.156v-.195h-1.625v1.287h1.248c.273-.285.365-.377.611-.65.416.326.547.43.949.754.039.053.053.078.053.105 0 .051-.053.09-.117.09h-2.744v1.041c.963-.105 1.482-.17 2.51-.313l.025.156a54.474 54.474 0 01-2.938.715c-2.275.455-2.275.455-2.743.559-.091.352-.144.469-.233.469-.131 0-.234-.287-.482-1.287a47.457 47.457 0 003.094-.221v-1.119h-2.106a3.96 3.96 0 00-.74.064l-.092-.441c.313.053.533.078.897.078h2.041v-1.287h-1.56v.248c0 .117-.026.154-.131.182-.064.025-.338.051-.494.051-.182 0-.233-.039-.233-.154v-.028zm2.418-3.574h-1.56v1.313h1.56v-1.313zm0 1.612h-1.56v1.365h1.56v-1.365zm2.392-1.612h-1.625v1.313h1.625v-1.313zm0 1.612h-1.625v1.365h1.625v-1.365zm5.07-2.301c.209-.234.273-.299.481-.533.338.221.429.299.728.533.104.092.131.131.131.195s-.092.143-.391.402c-.117 3.172-.299 5.148-.572 6.176-.168.637-.312.885-.662 1.092-.287.182-.547.273-1.119.363-.182-.467-.194-.506-.377-.598-.233-.129-.545-.221-1.234-.352v-.182c.702.053 1.625.105 1.872.105.377 0 .546-.092.624-.34.338-1 .546-3.289.611-6.564h-1.482c-.13 2.105-.416 3.627-.91 4.732-.455 1.039-1.195 1.924-2.171 2.6-.481.352-.819.52-1.573.807l-.104-.156c1.105-.611 1.742-1.145 2.365-1.977.988-1.352 1.404-2.938 1.574-6.006h-.689c-.234 0-.43.014-.832.078l-.131-.469a6.81 6.81 0 001.054.092h.61c.039-.701.053-1.262.053-1.781 0-.637-.014-.871-.053-1.43.988.064 1.431.143 1.431.273v.012c-.013.117-.078.156-.532.365-.027 1.248-.027 1.547-.078 2.561h1.376zm10.011 4.068v1.471h3.705c.364-.443.481-.572.858-1.002.545.455.701.611 1.209 1.117a.159.159 0 01.052.117c0 .027-.052.066-.104.066h-5.707c.026 1.781.026 1.781.039 2.391 0 .105-.025.145-.091.17a6.574 6.574 0 01-.728.053c-.131 0-.17-.027-.17-.131.014-.441.039-1.273.053-2.482h-3.9c-.559 0-.975.039-1.273.104l-.066-.52c.416.09.768.117 1.34.117h3.9c0-.561 0-.561.013-1.471h-2.626v.482c0 .182-.117.207-.729.207-.156 0-.221-.039-.221-.156.053-1.014.064-1.52.064-2.678 0-1.262-.012-1.832-.064-2.625.43.246.572.311.975.57h2.601v-1.377h-3.913c-.416 0-.715.025-.963.104l-.051-.506c.312.076.572.104 1.014.104h3.913c-.013-1.066-.013-1.066-.078-1.691.3.027.533.039.677.053.649.039.818.092.818.221 0 .117-.117.182-.533.299-.013.572-.013.664-.013 1.119h3.511a11.5 11.5 0 01.754-.91c.545.441.715.572 1.221 1.039.053.053.066.078.066.105 0 .039-.039.064-.117.064h-5.435v1.377h2.704c.221-.246.285-.324.533-.57.338.232.441.311.806.57.091.078.13.117.13.17 0 .104-.104.182-.52.377v.779c0 1.275.013 2.225.064 3.16 0 .09-.013.129-.052.156-.078.051-.338.09-.702.09-.13 0-.169-.025-.182-.117v-.416h-2.782zm-.871-2.873v-1.025h-2.626v1.586h2.626v-.561zm0 .859h-2.626v1.715h2.626v-1.715zm3.653-1.884h-2.782v1.586h2.782v-1.586zm0 1.884h-2.782v1.715h2.782v-1.715zm5.174-.234a6.82 6.82 0 001 .104h.858c.208-.234.272-.313.494-.533.377.26.494.338.806.598.065.053.092.092.092.131a.155.155 0 01-.039.092c-.039.039-.092.09-.17.143a6.614 6.614 0 00-.221.182v3.146c.247.572.469.857.846 1.027.649.299 1.65.416 3.496.416 1.184 0 3.225-.105 5.148-.248v.117c-.338.143-.48.26-.584.43a5.118 5.118 0 00-.195.533c-1.209.012-2.289.025-4.018.025-2.393 0-3.275-.195-4.135-.896-.416-.338-.637-.689-.922-1.471-.391.6-.729 1.041-1.457 1.898-.064.547-.09.611-.195.611-.051 0-.104-.039-.155-.104-.026-.039-.078-.143-.272-.572-.131-.273-.17-.352-.326-.65.793-.389 1.326-.701 1.873-1.092V16.65h-.924a5.94 5.94 0 00-.871.078l-.129-.481zm.494-5.006c.571.326 1.026.65 1.819 1.326.364.299.468.48.468.781 0 .402-.285.947-.494.947-.156 0-.221-.104-.52-.844-.286-.703-.78-1.443-1.404-2.107l.131-.103zm7.475 1.781c.363-.715.65-1.508.768-2.158.896.248 1.352.377 1.377.377.092.039.131.092.131.156 0 .117-.078.143-.625.248-.428.545-.728.844-1.352 1.377h1.885c.26-.363.352-.48.664-.885.506.391.662.521 1.17.938.078.064.117.117.117.156 0 .064-.039.09-.17.09h-3.796c-.494.625-.649.807-1.17 1.301h2.457c.233-.221.299-.299.56-.547.338.26.441.352.754.611.078.078.117.117.117.143 0 .066-.209.221-.391.299v2.588c0 .662 0 .768.064 2.834-.013.117-.039.156-.104.195a1.4 1.4 0 01-.559.104c-.195 0-.248-.039-.248-.182v-.26h-4.172v.26c-.027.104-.053.143-.117.17a6.55 6.55 0 01-.586.051c-.104 0-.168-.064-.168-.156v-.064c.025-1.209.039-1.834.039-2.535 0-1.91-.027-3.354-.066-4.068.482.221.625.299 1.041.559h1.092c.182-.52.26-.768.391-1.301h-2.73c-.26 0-.729.039-.988.078l-.143-.455c.285.039.285.039.572.053.143 0 .143 0 .559.025h1.846c-.091-.064-.117-.117-.182-.338-.26-.91-.403-1.209-.793-1.717l.156-.104c.506.326.818.559 1.144.857.247.209.325.365.325.6 0 .26-.117.506-.325.701h1.456zm1.65 3.329v-1.43h-4.172v1.43h4.172zm-4.172.298v1.547h4.172v-1.547h-4.172zm0 1.846v1.613h4.172v-1.613h-4.172z"/></g><g><path d="M517.53 52.001v1.469h3.705c.364-.441.481-.572.858-1 .546.455.702.609 1.209 1.117a.159.159 0 01.052.117c0 .025-.052.064-.104.064h-5.708c.026 1.781.026 1.781.039 2.393 0 .104-.026.143-.091.168a6.574 6.574 0 01-.728.053c-.13 0-.169-.025-.169-.129.013-.443.039-1.275.052-2.484h-3.9c-.559 0-.975.039-1.274.104l-.065-.52c.416.092.767.117 1.339.117h3.9c0-.559 0-.559.013-1.469h-2.626v.48c0 .182-.117.209-.728.209-.156 0-.221-.039-.221-.156.052-1.014.065-1.521.065-2.678 0-1.262-.013-1.834-.065-2.627.429.248.572.313.975.572h2.6v-1.379h-3.913c-.416 0-.715.027-.962.105l-.052-.508c.312.078.572.104 1.014.104h3.913c-.013-1.066-.013-1.066-.078-1.689.299.025.533.039.676.053.65.039.819.09.819.221 0 .117-.117.182-.533.299-.013.572-.013.662-.013 1.117h3.51c.313-.402.403-.52.754-.91.546.443.715.572 1.222 1.041.052.051.065.078.065.104 0 .039-.039.064-.117.064h-5.434v1.379h2.704c.221-.248.286-.324.533-.572.338.234.442.313.806.572.091.078.13.117.13.168 0 .105-.104.184-.52.379v.779c0 1.273.013 2.223.065 3.158 0 .092-.013.131-.052.156-.078.053-.338.092-.702.092-.13 0-.169-.025-.182-.117v-.416h-2.781zm-.871-2.873v-1.027h-2.626v1.586h2.626v-.559zm0 .857h-2.626v1.717h2.626v-1.717zm3.653-1.884h-2.782v1.586h2.782v-1.586zm0 1.884h-2.782v1.717h2.782v-1.717zm6.33-2.418c.182.17.325.221.585.221.364 0 .689-.064 3.602-.766.546-.145 1.248-.287 2.106-.455.988-.209 1.365-.299 1.755-.43.26-.078.351-.104.455-.104.156 0 .442.117.702.271.26.17.377.313.377.494 0 .195-.156.326-.403.326-.052 0-.143 0-.234-.014-.169-.025-.234-.025-.364-.025-2.223 0-4.368 2.119-4.368 4.303 0 1.195.598 2.094 1.716 2.574.442.182.936.299 1.326.313.26 0 .364.039.546.207.247.234.39.469.39.625 0 .207-.195.363-.468.363-.754 0-1.924-.416-2.652-.936-.988-.703-1.508-1.717-1.508-2.912 0-1.053.52-2.223 1.417-3.172.52-.572 1.027-.924 2.119-1.496-1.183.17-2.249.43-3.731.91-.819.26-1.664.611-2.08.832-.26.156-.351.182-.52.182-.312 0-.702-.299-1.001-.766-.208-.313-.338-.664-.338-.871 0-.105.026-.182.143-.352.116.327.22.497.428.678zm7.502.743c.481.207.962.467 1.3.715.351.271.507.506.507.805 0 .365-.143.637-.325.637-.117 0-.143-.037-.39-.492-.26-.482-.702-1.041-1.209-1.51l.117-.155zm1.248-.534c.546.156.923.311 1.287.52.403.234.572.48.572.832s-.13.623-.312.623c-.091 0-.169-.064-.26-.271-.286-.586-.728-1.08-1.378-1.561l.091-.143zm4.341 7.93c.52-1.34.767-2.549.871-4.16 1.157.285 1.196.299 1.196.416s-.117.182-.403.246c-.403 1.457-.663 2.119-1.43 3.59l-.234-.092zm.247-9.295c.52.221.676.311 1.066.559.559-.975.897-1.834 1.066-2.6.312.104.572.195.728.246.611.195.728.248.728.365 0 .104-.091.143-.637.193-.312.455-.416.572-1.261 1.51-.065.076-.065.076-.39.441.312.221.377.273.507.391.117.129.221.338.221.467 0 .156-.091.469-.182.598-.065.092-.13.145-.208.145-.091 0-.143-.066-.247-.287a13.013 13.013 0 00-.455-.768c-.26-.389-.481-.648-1.014-1.117l.078-.143zm2.159 4.043c-.455.09-.546.117-1.521.26-.039.338-.13.494-.234.494-.143 0-.195-.143-.416-1.248h.364c.143 0 .39-.014.975-.025.39-.482.611-.781 1.092-1.6.715-1.197.949-1.664 1.222-2.418.26.09.533.182.663.234.52.182.65.26.65.35 0 .131-.156.195-.585.209a24.558 24.558 0 01-2.665 3.197c.546-.025.923-.051 2.262-.195-.182-.402-.273-.559-.585-1.014l.143-.129c.507.428.923.832 1.209 1.195.208.234.312.455.312.637 0 .338-.247.703-.468.703-.117 0-.169-.078-.273-.482a8.118 8.118 0 00-.221-.623c-.026.014-.416.104-1.144.273v2.717l.026 3.041v.078c0 .131-.195.195-.637.195-.13 0-.182-.039-.195-.143.026-1.82.026-2.041.026-3.172v-2.534zm1.443.91c.923 1.131 1.365 1.91 1.365 2.379 0 .455-.299.988-.559.988-.091 0-.143-.039-.182-.131-.026-.078-.026-.078-.104-.701-.117-.832-.325-1.574-.689-2.445l.169-.09zm6.63-4.316c.26-.273.338-.352.624-.586.325.248.43.326.715.586.104.09.143.156.143.207 0 .105-.129.209-.416.326-.143 3.717-.155 3.912-.298 4.953-.13.988-.351 1.963-.559 2.561-.273.742-.767 1.027-1.859 1.105-.078-.43-.182-.586-.52-.742-.247-.115-.585-.193-1.612-.402l.013-.195c1.521.145 2.171.195 2.626.195.273 0 .364-.064.507-.377.429-.936.728-3.719.728-6.785v-.547h-3.874c-.481.91-.78 1.352-1.456 2.211l-.156-.117c.585-1.066.923-1.898 1.287-3.186.208-.729.312-1.197.403-1.885 1.222.311 1.443.389 1.443.52 0 .104-.143.168-.52.221a30.02 30.02 0 01-.845 1.938h3.626zm-3.965 1.976c.676.506 1.183.949 1.69 1.508.416.467.533.676.533.988 0 .428-.286.975-.52.975-.091 0-.156-.092-.221-.287-.338-1.053-.858-2.027-1.625-3.027l.143-.157zm12.076-2.378c-.61 0-.832.104-1.079.531-.13.248-.246.572-.363 1.105l-.404-.025.365-2.6h5.928v.766c-.768 1.094-1.43 2.342-1.977 3.705-.338.832-.61 1.691-.793 2.457-.156.678-.195 1.027-.246 1.898-.014.482-.195.625-.807.625-.416 0-.611-.143-.611-.443 0-1.17 1.69-4.836 3.692-8.02h-3.705zm7.722.259c.482-.91 1.418-1.443 2.523-1.443 1.092 0 2.027.533 2.508 1.443.482.883.742 2.08.742 3.367s-.26 2.469-.742 3.367c-.48.91-1.416 1.441-2.508 1.441-1.105 0-2.041-.545-2.523-1.441-.48-.898-.74-2.094-.74-3.367 0-1.287.259-2.457.74-3.367zm2.523 7.838c1.391 0 2.002-1.365 2.002-4.471 0-3.107-.611-4.473-2.002-4.473-1.392 0-2.002 1.377-2.002 4.484 0 3.095.611 4.46 2.002 4.46zm7.982-4.367c1.274-1.131 1.911-1.846 2.679-3.043.649-.988 1.014-1.729 1.338-2.768.273.104.508.182.65.221.663.234.78.285.78.377 0 .117-.144.168-.624.234-.78 1.43-1.326 2.209-2.172 3.094-.767.818-1.416 1.338-2.535 2.041l-.116-.156zm5.72-.441c-.195 1.441-.48 2.391-.988 3.314-.532.949-1.364 1.742-2.561 2.404-.48.26-.807.404-1.508.65l-.092-.182c1.795-.988 2.848-2.055 3.498-3.51.351-.793.507-1.418.676-2.678h-1.65a7.16 7.16 0 00-1.041.09l-.091-.494c.468.078.716.104 1.118.104h5.538c.233-.221.312-.285.546-.492a6.4 6.4 0 01.807.57c.104.092.143.145.143.195 0 .105-.091.17-.455.352-.13 2.742-.363 4.445-.689 5.123-.26.545-.728.715-2.262.754-.025-.352-.13-.521-.416-.664-.221-.104-.52-.182-1.547-.363l.014-.234c1.91.221 2.457.273 2.898.273.507 0 .65-.209.818-1.223.144-.91.248-2.34.287-3.99h-3.043zm1.612-5.319a.82.82 0 00.052.326c.221.688 1.145 1.871 1.989 2.535.897.715 1.677 1.117 2.938 1.508l.013.168c-.532.131-.741.313-1.053.896-1.104-.727-1.769-1.285-2.47-2.092-.625-.729-.924-1.209-1.574-2.535-.155-.313-.246-.455-.416-.598l.521-.208z"/></g></g><rect x="970" y=".5" fill="#210701" width="130" height="65"/><g><g><g fill="#FFF"><path d="M1008.121 8.101c.107.018.276.054.429.054.16 0 .731-.045.973-.144.054-.125.295-.723.34-.865.062-.179.143-.429.143-.616 0-.099-.027-.125-.045-.134l.009-.045c.571.027.571.401.571.429a.75.75 0 01-.106.348c-.286.482-.331.554-.456.795.179-.054.304-.099.429-.17.063-.035.205-.116.241-.116.16 0 .438.17.438.331 0 .214-1.018.384-1.304.437-.268.625-.304.688-.803 1.554-.402.688-.465.794-.661.794-.125 0-.169-.071-.169-.259 0-.223.08-.33.321-.643.143-.179.615-.83.865-1.374-.08.018-.196.026-.339.026-.313 0-.643-.071-.884-.357l.008-.045zm3.535 1.061c-.116.188-.161.259-.161.571 0 .232.009.554.036.821.009.152.063.59.063.696.803.215 1.223.42 1.223.804 0 .116-.071.232-.179.232-.063 0-.098-.019-.366-.188-.348-.224-.393-.25-.705-.366-.026.16-.063.446-.214.651-.161.215-.509.393-.856.393-.34 0-1.054-.231-1.054-.893 0-.776.794-.776 1.16-.776.321 0 .455.026.58.054a10.33 10.33 0 01-.098-1.276c0-.446.143-.768.544-.759l.027.036zm-1.392 2.285c-.125 0-.545 0-.545.357 0 .304.42.482.741.482.625 0 .66-.456.669-.705-.16-.044-.446-.134-.865-.134zm1.91-3.275c.357.009.526.026.759.143.321.151.5.429.5.696 0 .25-.17.276-.215.276-.098 0-.196-.053-.321-.134-.125-.071-.473-.098-.58-.106l-.063-.045c.349-.125.393-.143.393-.276 0-.116-.115-.349-.49-.527l.017-.027zm7.659.669a.988.988 0 00.42.081 3.78 3.78 0 001.143-.241c.151-.411.481-1.401.526-1.759l.071-.018c.214.071.438.294.438.464 0 .071-.018.134-.099.286-.16.303-.419.776-.473.893.313-.071.464-.071.526-.071.768 0 .901.509.901.803 0 .545-.249 1.625-.526 2.294-.285.67-.509.821-.813.821-.24 0-.276-.143-.276-.179 0-.026.026-.151.026-.178 0-.116-.026-.179-.276-.777l.036-.018c.259.179.438.313.571.313.384 0 .794-1.678.794-2.365 0-.161 0-.464-.438-.464-.214 0-.526.08-.669.16-.232.526-.59 1.231-.911 1.848-.205.393-.384.75-.553.75-.134 0-.161-.232-.161-.349 0-.143.09-.259.321-.606.357-.518.411-.589.776-1.419-.098.063-.598.268-.74.268-.438 0-.59-.366-.651-.5l.037-.037zm4.213-.607c.331.044.741.205 1.071.356.715.331.955.875.955 1.259 0 .286-.205.375-.276.375-.089 0-.161-.071-.276-.179-.099-.098-.277-.276-.652-.321l.01-.054c.16-.035.33-.08.33-.259 0-.401-.901-.973-1.196-1.16l.034-.017zm.366-1.17c.482.099 1.17.232 1.17.643 0 .099-.036.188-.152.188-.063 0-.089-.026-.366-.259-.205-.169-.481-.401-.643-.49l-.009-.082zm.599-.463c.151 0 .589.099.768.151.188.063.375.269.375.456 0 .115-.09.151-.17.151a.273.273 0 01-.134-.036c-.063-.026-.339-.303-.411-.356-.063-.054-.384-.268-.455-.321l.027-.045zm10.836 5.614c1.125-.499 1.526-1.41 1.526-2.106 0-.955-.804-1.535-1.946-1.455-.509 1.232-.813 1.616-.928 1.759.143.151.188.179.49.339a.378.378 0 01.206.321c0 .116-.063.313-.215.313-.231 0-.554-.321-.768-.58-.429.571-1.188 1.054-1.384 1.054-.063 0-.098-.027-.106-.054-.045-.071-.125-.223-.152-.259-.241-.268-.294-.33-.294-.554 0-.188.071-1.098 1.169-1.839-.348-.99-.455-1.285-.58-1.481l.026-.054c.643.196.777.848.875 1.33.339-.259.857-.438 1.285-.535.125-.349.232-.857.232-1.063 0-.063 0-.313-.116-.464l-.009-.054c.349.08.705.313.705.714 0 .196-.188.607-.285.776.063-.009.16-.018.294-.018 1.143 0 2.071.75 2.071 1.928 0 1.089-.857 1.884-2.115 2.044l.019-.062zm-3.124-1.517c0 .384.268.518.365.518.099 0 .375-.071.911-.724-.232-.419-.313-.643-.465-1.08-.526.438-.811.983-.811 1.286zm2.222-1.964c-.5.089-.974.348-1.099.455.045.285.215.679.42.938.322-.527.634-1.232.679-1.393zm12.747 3.437c.482-.277 1.714-.974 1.714-2.553 0-1.411-1.018-1.696-1.785-1.696-.357 0-.607.071-.795.134.161.107.455.295.455.643 0 .286-.49 1.205-.66 1.518-.188.357-.759 1.401-1.276 1.401-.205 0-.276-.125-.366-.304-.304-.571-.438-.839-.438-1.214 0-1.044 1.357-2.481 3.178-2.481 1.58 0 2.304.946 2.304 2.143 0 .544-.161 2.062-2.304 2.437l-.027-.028zm-2.338-2.874c-.063.08-.107.106-.339.285-.071.054-.205.151-.205.384 0 .304.401.91.634.91.419 0 1.32-1.865 1.32-2.428a1.92 1.92 0 00-.044-.356c-.625.231-1.045.785-1.366 1.205zm11.015-.777l.063-.063.438-.606.384-.634c.026-.054.25-.482.268-.67-.063-.08-.063-.106-.054-.169.072-.072.107-.081.135-.081.035 0 .063.019.249.152.054.035.304.134.349.178a.098.098 0 01.026.063c0 .045-.018.081-.044.152.063.089.25.089.356.089.429 0 .625.268.679.34.089.125.099.125.285.231.01.009.197.205.215.304.089 0 .625-.196.705-.268.179-.17.214-.384.214-.67 0-.089-.018-.366-.035-.393-.054-.08-.277-.41-.33-.473a.174.174 0 01-.054-.071c.018-.019.035-.036.054-.036.044 0 .231.036.268.036.179 0 .205.009.429.106.035.009.24.045.249.08.01.036.081.197.081.232 0 .151-.152.759-.215 1.009l.696-.125c.099-.018.607-.125.634-.125.188 0 .643.401.759.509a.44.44 0 01.019.116c0 .17-.054.179-.563.241-.063.009-.304.143-.349.16-.071-.018-.071-.035-.08-.071.125-.116.214-.384.214-.42 0-.124-.116-.187-.205-.187-.571 0-1.223.169-1.285.214-.036.018-.152.151-.188.16a.313.313 0 01-.063.019c-.027 0-.134-.063-.152-.063-.044 0-.562.196-.606.196-.018 0-.107-.009-.125-.009s-.026.009-.054.026v.224a2.074 2.074 0 00-.045.205c0 .026.01.116 0 .134 0 .018-.026.099-.026.107 0 .071 0 .125-.018.188a.437.437 0 01-.054.071c-.09.231-.125.33-.304.294l-.045-.214c0-.214 0-.232.072-.438.062-.179.106-.688.106-.776 0-.027 0-.196-.071-.321h-.035c-.019.026-.232.089-.26.089-.178 0-.401-.25-.499-.356-.197-.161-.224-.17-.446-.269h-.09c-.098.09-.455.768-.473.813.035 0 .438.143.455.152.035.026.098.071.098.134 0 .223 0 .446-.196.446-.063 0-.071-.009-.106-.161-.01-.018-.179-.268-.215-.321-.035-.063-.063-.098-.089-.143-.045.035-.063.054-.179.276a21.2 21.2 0 01-.563.643c-.089.071-.813.625-.919.652-.027.009-.054.018-.071.026-.099.089-.144.107-.527.276-.035.019-.08.045-.125.036.215-.151.616-.518.625-.526l.633-.72zm.616 1.651c.026-.803.009-.856-.116-1.098a1.606 1.606 0 00-.188-.08l-.009-.036.116-.009c.098-.045.116-.045.276-.054.241-.009 1.375-.509 1.473-.509.17 0 .402.25.402.357 0 .026-.081.125-.09.143-.151.384-.169.429-.231.839l-.072.196c0 .009-.044.215-.053.224-.045.063-.072.071-.349.16-.214.072-.509.269-.731.295a.316.316 0 01-.144.054c-.063.179-.063.232-.044.357-.01.018-.063.535-.063.571 0 .035 0 .106-.01.143.019.009.063.054.099.054.063 0 .491-.269.58-.321.009-.01.34-.269.366-.295-.026-.036-.143-.232-.17-.268-.026-.045-.169-.206-.188-.25.188.018.259.018.59.125.134.151.205.259.178.535-.08.071-.098.071-.115.071-.054 0-.135-.054-.206-.098-.106.08-.464.563-.553.643-.036.035-.741.714-.795.75-.063.035-.107.063-.151.063-.009 0-.071 0-.071-.019-.081-.259-.09-.285-.188-.348a.24.24 0 01-.045-.161c.045-.053.276-.285.304-.348.089-.152.16-.75.16-.768l.038-.918zm.518-1.16c-.161.018-.161.054-.161.349a1.398 1.398 0 00-.044.249c0 .036.026.054.044.054a.796.796 0 00.17-.054c.214-.16.232-.178.313-.178.026 0 .17 0 .17.08 0 .098-.099.125-.224.16-.026.01-.231.099-.276.107a1.369 1.369 0 01-.196.045.527.527 0 00-.027.116c0 .009 0 .018.009.151 0 .018-.035.241-.035.295 0 .035 0 .071.054.071.018 0 .669-.313.794-.366s.125-.054.125-.134c0-.027.08-.679.09-.785.009-.036.018-.269.018-.304a.284.284 0 00-.036-.116c-.109.001-.734.224-.788.26zm2.384-.036c.053-.009.33.036.393.036.018 0 .063-.018.071-.018l.625-.232a3.57 3.57 0 00.348-.134c.045-.009.224-.071.268-.071.224 0 .259.026.313.063.196.143.224.16.277.231-.019.045-.027.054-.009.099-.036.054-.402.545-.402.598V9.6c.116.027.232.125.232.215 0 .089-.071.115-.152.125-.071.018-.41.053-.481.071l-.696.179-.259.106c0 .116.018.536.026.67l.09.009.776-.179c.179-.045.455-.188.643-.188.08 0 .455.152.589.277a5.007 5.007 0 01-.205.481c-.018.045-.08.232-.098.268.062.09.384.456.384.545v.026c-.099.045-.116.054-.188.054-.099 0-.5-.054-.59-.054-.143 0-1.455.161-1.455.331 0 .196-.169 1.106-.294 1.106-.134 0-.215-.58-.215-.607 0-.044-.018-.223-.018-.259 0-.188.232-1.526.232-1.82 0-.045.018-.349.018-.411 0-.044-.026-.294-.026-.356 0-.054.026-.394.026-.465 0-.151-.018-.268-.125-.401a.313.313 0 01-.089-.17.355.355 0 00-.036-.098l.027-.08zm1.544 2.946c.223-.054.25-.063.276-.143.116-.295.116-.519.116-.607 0-.08-.009-.107-.026-.196l-.349.045-.804.214c-.196.054-.205.063-.249.099 0 .071-.01.384-.01.446v.125a.424.424 0 00-.026.125c0 .018.009.063.045.143l1.027-.251zm-.705-2.785c-.125.036-.268.071-.268.241 0 .035-.019.196-.019.231 0 .019.019.135.019.152a1.087 1.087 0 00-.036.188c0 .018.009.026.026.054.116-.027.786-.188.849-.259.08-.09.188-.536.188-.634 0-.045 0-.09-.019-.17l-.74.197z"/></g><g><path fill-rule="evenodd" fill="#FFF" d="M1020.98 40.097c-.154-.957-.3-1.94-.209-2.856a2.777 2.777 0 00-.224-.046c-.667-.113.358-2.902-.929-2.796-.206 1.093.463 2.218-.028 3.294-2.213-2.957-1.215 1.15-.4 1.076-.355.032-.414.01-.627-.158a.588.588 0 00-.468.24c.193.4.564 1.46-.162 1.423.061.201.007.462.12.673-.22.406-.421.999-.606 1.424-.497 1.135-.979 1.687-2.143 2.082h-.724v.146h-.29v.144h-.578v.146c0 .311-2.585-1.454-2.76-1.573-.535-.364-1.188-.497-1.466-1.15l-.233-.053c-.15-.36-.974-.986-1.33-.986a39.178 39.178 0 01-.145-.29l-.869-.289-.145-.289-.434-.146v-.145c-.641-.404-1.395-.441-1.882-1.013-.163-.124-.022.019-.145-.146l1.592-1.446.145-.29h.29l.145-.289h.289l.145-.29h.29c.447-.253.851-.604 1.447-.724v-.289c.621-.137 1.047-.545 1.592-.724.638-.209 1 .14 1.447-.29.449-.26 1.014-1.055 1.116-1.564.143-.699-.537-.885-.537-1.33v-.289c-.063-.091-.191-.112-.29-.289-.836-.166-1.738-.307-2.895-.289.105-.418.155-.48.579-.579v-.29h.289c.136-.553.982-1.536 1.447-1.736h.579v-.145h.29v-.146h.289l.145-.289c.022-.046.895-.344 1.043-.481.272-.253.486-.711.621-1.055.48-1.229-.399-1.285-.795-2.082h-.435v-.145c-1.102-.37-3.88.921-3.629-1.012.103-.795.196-1.599.549-2.297.578-1.147.779-2.254-.039-3.331-.732-.964-2.104-1.624-3.183-.72-.315.268-.45.707-.589 1.081-.076.206-.436 2.077-.635 2.081h-.146l-.145 1.158c-.225.725-.444 1.67-.435 2.605-.481.289-.965.578-1.446.868-.185.066-.869-.145-.869-.145v.145l-.289.145.435.579h.289v.145c.213.198.192.072.289.434h.146v.29l-.435.145-.435.579h-.434l-.29-.435c-.331-.229-.626-.274-.868-.579h-.145v-.578h-.145v-.579l.289-.145v-.29l-.434.146v-.146c-.601-.119-1.337.027-1.593.29-1.114.646-1.67 3.417-1.157 5.21v.868l.289.145c0 .248.249.845.471.999.237.166.799.371 1.072.471.676.246 1.27.487 1.942.116.432-.238.705-1.007 1.146-1.151l.434-.145c.097-.145.192-.29.29-.435l1.013-.868.145-.579c.211-.387.532-.73.724-1.157l.868.144c-.139.522-.668 1.017-1.002 1.424-.134.164-1.169 1.12-1.169 1.182v1.593l1.014.867v.146h.434v.145h.145l-.145.579c-.288.039-.433-.015-.579.145v.289h-.145v.145c-.461 0-1.5.811-1.926 1.142-.398.308-.229.927-.82 1.037-.2 1.373-1.397 2.032-2.601 2.406-.603.187-.989.567-1.563.784.114.158.225.227.128.416-.011-.008-.309-.185-.309-.141v.431l-1.014.145v.145h-.145c.002.771.084 1.336.289 1.882.939.199 1.371.6 2.605.578.269-.308.668-.334 1.013-.578l.868-1.014h.29l.289-.434h.146v-.29l1.302-.145v.145h.29v.146h.434v.145h.29v.145h.289c-.036 0 .96.615 1.055.667.533.291.984.719 1.468 1.08.463.346.814.821 1.292 1.15.084.059 1.159.865 1.106.865h.289v.145h.289c.049.097.098.192.146.29l.579.145.145.29h.289c.617.347 2.374 1.226 3.618.867v-.145c0 .222 3.017-.905 3.259-1.017.626-.291 1.181-.435 1.678-1.004.229-.263.723-1.453.997-1.453v-.434h.145l.146-.578h.145c-.01 0 .173-2.758-.115-3.016-.028.339.015.751-.14.975zm-15.806-5.776c.167-.28.2-.344.578-.434v.289c-.342.094-.271.041-.434.289h-.289c.123-.161-.019-.021.145-.144zm28.8-15.774h.724v.145h.435v.145h.579v.146h1.736v.145h1.736v.145h.289v.145l.436-.145v-.289h.434c0-1.725-.471-2.04-2.16-2.279-.171-.024-2.615-.233-2.615-.182v-.145h-2.316c-.326.105-.591.412-.868.579.01 1.202.713 1.3 1.59 1.59zm41.626 5.111c-.559-.831-1.439-1.377-2.307-1.84-2.139-1.144-4.779-1.92-7.205-2.046-.747-.038-1.743-.102-2.515.057-.891.182-1.556.453-2.479.495-.303.014-1.755-.074-1.906.269-.238.561-1.22 1.12-1.688 1.573-.652.632-1.841 1.372-2.107 2.17l-.434.145v1.013c.023.052 1.201.966 1.302 1.014h.435v.145h.289v.145l.869.145v.145h1.157l.289-.434.724-.579.146-.435.579-.434.145-.434h.289l.29-.435c.571-.36 1.75-.314 2.356-.439 2.564-.53 4.742-1.929 7.349-.545.706.375 1.613 1.004 1.851 1.797.183.607.093 1.841-.813 1.663.204.114.227.229.527.301-.745.988-1.992 1.515-2.33.039-.565.082-2.135-.189-2.021.668a22.948 22.948 0 01-1.65-1.744c-.287-.341-.321-.762-.764-.839-.058.162-.218.26-.289.366-.053-.148-.109-.176-.16-.278-.015-.03-.346.788-.363.841-.121-.186-.256-.482-.263-.73-.218.17-.446.376-.641.574-.063-.487.048-.977.051-1.463-.875.689-.818 1.79-1.146 2.763-.367 1.088-.849 2.025-.894 3.205-.039 1.03.179 1.432.934 2.034.518.412 1.092.751.512 1.547-.613.842-1.81.268-2.662.32-.805.049-1.805.282-2.576.519-1.629.498-1.787 1.665-.824 3.056.481.695 1.264.865 1.965 1.286.643.386 1.168.901 1.73 1.391 1.34.201 2.009-.208 2.805-1.06.422-.449 1.105-2.316 1.487-2.361-.043.843-.658 3.346.078 3.984.464.402 1.601.039 1.825-.498.077-.187-.109-.691-.11-.903-.001-.558.178-1.095.271-1.64.133-.771.124-1.382-.151-2.116-.619-1.006-1.513-.884-1.267-2.177.205-1.077.206-1.502-.316-2.427-.375-.663-.938-1.079-.833-1.921.087-.698.341-2.08.819-2.635.361.371.01.656.201.993.119.209.367.278.531.442.596.593 1.202.857 2 1.031.758.165 1.443.593 2.188.742.963.195 2.29-.282 3.062-.85.329-.243.786-.361 1.098-.635a1.23 1.23 0 00.095-.096c.368-.415.159-.683.668-1.022.232-.329.276-.625.579-.868.434-.353-.534-2.627-.782-2.994zm-17.746 12.834h-.29v-.289h.146l.145-.29h.289l.145-.289c.162-.142.28-.108.435-.289h.145c-.186.687-.691.671-1.015 1.157zm4.775.724h-.289c-.093.435-.29.78-.579 1.014-.164.162.001.062-.289.145-.257-.309-.843-.638-1.303-.724v-.146l-.724.146v.145h-.146l.146.435-.435-.146c.071-.557.178-.402.289-.868.575-.168.377-.271.724-.578v-.146c.543-.345 1.85-.303 2.751-.289l-.145 1.012zm3.039-10.999h-.145v-.289h.145v.289zm.869 1.737h-.145v-.289h.145v.289zm1.158-.434c-.433-.05-.398-.013-.58-.289h.435c.124.163-.02.022.146.145v.144zm-33.431-6.658c.298-.158.255-.242.724-.289v-.29l-.724.146v.433zm13.024 4.631c-.575-.107-2.435-.417-2.749-.723-.445-.3-.079-.156-.29-.579h-.145v-.29c-.049-.078-.199-.109-.289-.289-1.046-.185-2.393-.032-3.474.145l-.869-.145v.145c0-.022-2.07.195-2.214.117-.342-.185-.699-1.235-.891-1.629-.212-.434-.585-1.083-1.036-1.183-.073.112-.08.21-.081.341l-.232-.063c-.196.404.27.869.3 1.384.02.328.021 1.271-.18 1.546-.123.17-1.027.389-1.021.354-.068.358-.141.53-.145 1.013-.394-.109-.329-.033-.435-.434h-.434c-.489 0-1.614 2.152-1.332 2.609-.247.396-.417.964-.795 1.178-.264-.823-.007-2.32.435-3.076.531-.894 2.246-1.465 2.575-2.324.184-.478-.211-.693-.361-1.11-.166-.464-.088-.616-.088-1.039v-.435c-.101.047-1.147.708-1.157.724v.29c-.444.052-.458.098-.724.289v.145h-.434c-.504 0-2.289 2.598-2.577 3.042-.156.24-.995 2.458-1.041 2.458h-.146v.289l-.289.145-.145.58h-.146c-.417 1.127.867 3.131 1.303 3.473.967.975 3.691-.525 4.053-1.158.616.073.649.309 1.157.435.126.446.349.541.579.868h.145v.435h-.289c-.071.521-.192.789-.435 1.157l-.289.145v.29h-.145c-.314.747-.175 1.93.289 2.315.043.035-.035.277-.05.322a.353.353 0 01-.214.021c.097.364.352.776.614 1.075.106.122.354.059.455.155.188.178.463.765.689 1.034.421.499.794 1.063 1.328 1.453.274.2.683.511 1.054.422.16-.039.775-.697.609-.72.601.083.505.302 1.014.435.294.076-.572-1.113-.574-1.116-.271-.343-.503-.738-.802-1.058-.339-.361-.944-.67-1.304-1.021-.713-.697-1.662-1.365-1.662-2.305.947-.207 1.602-.847 2.171-1.447l.289-.145v-.289l.434-.29v-.289l.579-.435v-.868h-.434c.024-1.28.44-1.742.434-3.039.628.146 1.255.289 1.882.434v.146h.724v.145c0 .25 3.219.173 3.551.07.892-.278 2.416-.947 2.672-1.951h.29v-.437c.269-.122.378-.223.724-.29v-.724a25.963 25.963 0 01-.289-.145c-.053-.109-.086-.446-.142-.578zm-11.867 4.197h-.579v-.145c-.299-.289-.31-.836-.289-1.447.304-.248.547-.801.724-1.158l.29-.145c.123.163-.021.022.145.145-.098.916-.194 1.834-.291 2.75zm8.828-3.473c-.087.29.02.125-.145.29v.145h-.724v.145c-.425.164-.433-.027-.724.289-1.902.03-3.242.024-3.907-1.157h-.29l-.145.289h.145v.146l-.434.289V28.1c-.182-.197-.303-1.694-.29-2.171.579-.097 1.158-.192 1.736-.29v-.145c.384-.125 1.933-.309 2.461-.145v.145h.435v.145h.724v.146l1.013.145v.145h.289c-.122.16.02.02-.144.142zm1.447 2.171h-.145l.29-.434h.145l-.29.434zm.724-.579h-.145v-.289h.145v.289zm25.472-.869h.145v-.145h-.289l-.146.289c.289.059.184-.074.29-.144zm-52.825 9.552h.434c.004-.501-.065-1.492-.289-1.736-.124-.163.02-.022-.145-.145l-.145.145v.144h.145v1.592zm1.303-1.446v.145h.145v-.435h-.29c.088.289-.02.125.145.29zm-2.026 0V34.9h-.289c.164.163-.002.063.289.146zm-.145.578h.289v-.289h-.289v.289zm52.531 5.066c-.774-.273-1.346-1.077-2.272-.999.242.269.639.415.81.676-.188-.069-.485-.023-.681-.082.04.369.463.509.811.716-.061.143-.015.389-.083.533.458.146.874.335 1.257.639-.362.89-1.529 1.371-2.276 1.799-1.138.651-2.027 1.094-3.35 1.204v.145h-.58c-.038.021-.245.335-.434.435v.144l-.578-.29v-.145l-1.158-.146c-.477-.218-.379-.496-1.158-.579v.29c.289.087.125-.021.29.145h.145v.435h.289l-.145.434c.545.061.767.307 1.158.435h1.157l.146.289h.288v.146h.146c0-.435.911.033.952.005.775-.543 2.334-.874 3.245-.874V45.9l1.302-.435v-.145l.435-.145.145-.289h.289l.869-1.013.289-.146v-.289h.145v-.29h.146c-.003-1.264-.333-2.01-1.599-2.458zm-29.809 3.908h-.435v-.146h-.435v-.145l-1.013-.145v-.145h-.289v-.145l-.869-.146-.145-.289h-.289v-.145c-.508-.203-.916.048-1.303-.29H1036c.093.363.075.238.289.435v.145h.29l.145.29.434.145v.145l-.868-.289v.434l.435-.145c.046.094.289.289.289.289.104.249-.13.246-.145.289.1.298.249.348.579.435.087.289-.021.125.145.29v.145h.435l.145.29h.435v.144h.434v.146l1.013.145v.145c.676-.015.877-.044 1.303-.289v-.146h.29V45.9c.257-.206.345-.334.724-.435v-.29h.724v-.145l-2.171-.29v-.142zm-3.329.433s-.044.022-.29-.29c.039.036.396.15.29.29z"/></g></g><g><g fill="#FFF"><path d="M1011.378 59.809v-.231c.319-.022.505-.049.557-.077a.235.235 0 00.087-.092c.045-.108.101-.392.166-.849.038-.211.151-.859.339-1.944.191-.987.288-1.582.288-1.785 0-.096-.03-.162-.091-.199s-.27-.06-.628-.067l.03-.224c.533.028.883.043 1.05.043.226 0 .563-.015 1.011-.043l-.022.224c-.308.011-.495.028-.562.054a.2.2 0 00-.089.062.444.444 0 00-.067.154c-.017.067-.081.424-.192 1.07a62.739 62.739 0 01-.199 1.115c.291-.215.568-.447.83-.698.263-.251.686-.677 1.269-1.275.209-.217.325-.351.349-.403.023-.052.034-.152.034-.302.058-.002.261.008.611.031.237-.021.378-.031.422-.031v.224c-.177 0-.3.016-.367.046-.068.031-.197.137-.387.316l-2.114 1.982 1.721 2.113c.154.188.272.322.354.401.052.049.104.083.158.103s.169.037.347.052v.231a2.943 2.943 0 00-.443-.042l-.624.042c-.167-.24-.359-.496-.575-.77a34.19 34.19 0 00-.994-1.207c-.343-.397-.546-.63-.609-.699a59.05 59.05 0 00-.303 1.812 3.804 3.804 0 00-.054.433c0 .069.021.115.062.139.06.033.271.055.634.062l-.02.231a17.136 17.136 0 00-1.036-.031c-.335-.003-.648.008-.943.029zm7.608-1.103c0-.316.033-.612.1-.889.067-.276.159-.516.277-.719s.264-.383.436-.538.366-.28.581-.374c.216-.094.424-.141.624-.141.185 0 .361.041.527.122.167.08.297.206.39.377.092.171.139.406.139.704 0 .396-.079.791-.235 1.188-.126.313-.27.567-.432.761-.161.194-.37.36-.625.497a1.6 1.6 0 01-.765.207c-.309 0-.555-.1-.739-.299-.186-.199-.278-.498-.278-.896zm.609-.054c0 .247.027.435.081.563a.604.604 0 00.245.293.733.733 0 00.392.101.729.729 0 00.434-.131c.123-.088.243-.248.363-.482.119-.233.206-.51.261-.827a5.14 5.14 0 00.081-.854c0-.321-.06-.566-.178-.734-.118-.169-.293-.253-.525-.253-.37 0-.655.221-.854.663s-.3.995-.3 1.661zm5.485-1.736l-.076-.153c.235-.178.545-.372.929-.586.159-.087.281-.131.365-.131.049 0 .089.019.121.056a.229.229 0 01.048.152c0 .06-.021.174-.062.344-.359 1.462-.539 2.322-.539 2.579 0 .06.012.103.035.129a.11.11 0 00.088.041c.049 0 .111-.02.188-.058.198-.101.42-.271.664-.511.245-.24.469-.516.673-.826.122-.185.229-.41.322-.678.092-.267.184-.628.273-1.082.051-.01.185-.051.402-.123l.058.058-.136.697c-.065.364-.145.761-.238 1.189s-.157.73-.19.905c-.013.087-.02.172-.02.254 0 .064.012.11.034.139.023.028.053.043.089.043s.084-.017.145-.051a6.08 6.08 0 00.471-.339l.085.146c-.436.352-.745.579-.927.682-.133.074-.237.112-.312.112-.049 0-.093-.024-.133-.071a.312.312 0 01-.06-.202c0-.052.006-.116.018-.193.022-.12.076-.357.16-.712l.156-.678-.024-.012c-.277.375-.442.595-.497.658a5.85 5.85 0 01-.697.68 3.286 3.286 0 01-.747.483.52.52 0 01-.199.051c-.076 0-.143-.036-.199-.106-.058-.07-.086-.181-.086-.33 0-.2.051-.502.15-.905.146-.597.252-1.068.316-1.415.041-.224.062-.372.062-.443 0-.041-.01-.072-.027-.093s-.042-.031-.073-.031c-.085 0-.288.11-.61.331zm6.903 2.958l-.044-.065c.117-.544.261-1.193.429-1.948.127-.555.189-.918.189-1.09 0-.057-.01-.096-.028-.118a.108.108 0 00-.083-.032.396.396 0 00-.104.015 1.764 1.764 0 00-.256.118l-.327.198-.054-.154.358-.266c.139-.098.284-.188.438-.273.152-.085.265-.137.337-.158a.33.33 0 01.115-.019c.054 0 .097.017.127.05.039.049.058.11.058.185 0 .049-.005.109-.015.182-.021.112-.069.324-.146.635l-.174.713.027.008c.224-.365.481-.688.773-.969.293-.281.6-.495.921-.642.231-.104.403-.157.516-.157.069 0 .126.021.168.065s.063.106.063.188c0 .178-.089.609-.267 1.296-.238.915-.358 1.453-.358 1.615 0 .052.01.088.029.11a.1.1 0 00.075.032.475.475 0 00.187-.065c.178-.1.342-.208.491-.323l.066.154a7.43 7.43 0 01-.539.404c-.25.159-.435.262-.554.308a.389.389 0 01-.154.031.222.222 0 01-.172-.071c-.042-.048-.063-.12-.063-.218 0-.077.011-.173.031-.286.038-.195.135-.592.289-1.191.188-.725.283-1.168.283-1.33 0-.077-.013-.13-.039-.16a.136.136 0 00-.107-.044.652.652 0 00-.308.101 2.558 2.558 0 00-.616.486c-.213.22-.39.453-.531.701a4.208 4.208 0 00-.373.957c-.038.146-.097.448-.176.905-.165.029-.326.07-.482.122zm6.373.004l-.065-.05c.164-.647.27-1.071.316-1.271.161-.716.331-1.548.508-2.495.121-.536.202-.941.241-1.213a.76.76 0 00.014-.116.17.17 0 00-.032-.111.167.167 0 00-.099-.05 5.712 5.712 0 00-.529-.012l.033-.15c.374-.062.628-.11.763-.146.134-.035.286-.091.455-.165l.101.089c-.062.241-.114.459-.158.654l-.367 1.764a50.912 50.912 0 01-.313 1.379c.151-.216.358-.479.621-.79.262-.311.499-.553.713-.728.213-.175.394-.292.543-.353s.271-.09.366-.09c.069 0 .159.019.27.058l-.131.543a1.15 1.15 0 00-.323-.054 1.09 1.09 0 00-.403.078 1.876 1.876 0 00-.464.296 4.492 4.492 0 00-.443.408c.144.435.302.857.474 1.267.172.41.298.654.378.731a.207.207 0 00.135.058.277.277 0 00.085-.016 1.65 1.65 0 00.181-.085l.278-.165.062.146c-.396.29-.655.468-.778.535a.484.484 0 01-.217.077.157.157 0 01-.08-.023c-.049-.033-.107-.11-.176-.231s-.179-.373-.333-.756a37.027 37.027 0 01-.397-1.096c-.18.218-.291.363-.333.435a1.294 1.294 0 00-.11.243 4.461 4.461 0 00-.135.558l-.124.709-.527.138zm8.866-.886l.042.166-.545.446a2.38 2.38 0 01-.411.266.203.203 0 01-.095.027c-.043 0-.086-.024-.127-.073s-.062-.109-.062-.182c0-.272.083-.726.25-1.36l-.021-.012c-.2.272-.357.473-.472.602a5.175 5.175 0 01-.633.62 2.611 2.611 0 01-.585.378.37.37 0 01-.144.031c-.071 0-.129-.034-.172-.101-.071-.107-.107-.29-.107-.548 0-.328.062-.714.184-1.156.122-.441.268-.826.436-1.152.084-.164.204-.305.359-.42.255-.19.484-.323.689-.397a1.39 1.39 0 01.462-.073 1.842 1.842 0 01.714.138l.253-.146.084.069a44.548 44.548 0 00-.434 1.612c-.098.303-.165.53-.201.682-.062.239-.11.467-.146.683a.902.902 0 00-.008.104c0 .051.01.091.03.119a.097.097 0 00.073.027.381.381 0 00.16-.05c.066-.033.208-.133.427-.3zm-.567-2.419c-.1-.046-.203-.08-.313-.102s-.224-.033-.344-.033c-.232 0-.408.038-.528.112-.056.033-.117.118-.184.254a5.515 5.515 0 00-.353.913c-.154.523-.231.984-.231 1.382 0 .069.006.121.018.154s.03.059.054.075a.12.12 0 00.068.025c.051 0 .128-.033.232-.101.205-.136.421-.331.647-.585.227-.255.413-.543.561-.867.148-.321.272-.731.373-1.227zm3.435 3.305l-.065-.05c.164-.647.27-1.071.316-1.271.161-.716.331-1.548.508-2.495.121-.536.202-.941.241-1.213a.76.76 0 00.014-.116.17.17 0 00-.032-.111.167.167 0 00-.099-.05 5.712 5.712 0 00-.529-.012l.033-.15c.374-.062.628-.11.763-.146.134-.035.286-.091.455-.165l.101.089c-.062.241-.114.459-.158.654l-.367 1.764a50.912 50.912 0 01-.313 1.379c.151-.216.358-.479.621-.79.262-.311.499-.553.713-.728.213-.175.394-.292.543-.353s.271-.09.366-.09c.069 0 .159.019.27.058l-.131.543a1.15 1.15 0 00-.323-.054 1.09 1.09 0 00-.403.078 1.876 1.876 0 00-.464.296 4.492 4.492 0 00-.443.408c.144.435.302.857.474 1.267.172.41.298.654.378.731a.207.207 0 00.135.058.277.277 0 00.085-.016 1.65 1.65 0 00.181-.085l.278-.165.062.146c-.396.29-.655.468-.778.535a.484.484 0 01-.217.077.157.157 0 01-.08-.023c-.049-.033-.107-.11-.176-.231s-.179-.373-.333-.756a37.027 37.027 0 01-.397-1.096c-.18.218-.291.363-.333.435a1.294 1.294 0 00-.11.243 4.461 4.461 0 00-.135.558l-.124.709-.527.138zm6.097-2.962l-.076-.153c.235-.178.545-.372.929-.586.159-.087.281-.131.365-.131.049 0 .089.019.121.056a.229.229 0 01.048.152c0 .06-.021.174-.062.344-.359 1.462-.539 2.322-.539 2.579 0 .06.012.103.035.129a.11.11 0 00.088.041c.049 0 .111-.02.188-.058.198-.101.42-.271.664-.511.245-.24.469-.516.673-.826.122-.185.229-.41.322-.678.092-.267.184-.628.273-1.082.051-.01.185-.051.402-.123l.058.058-.136.697c-.065.364-.145.761-.238 1.189s-.157.73-.19.905c-.013.087-.02.172-.02.254 0 .064.012.11.034.139.023.028.053.043.089.043s.084-.017.145-.051a6.08 6.08 0 00.471-.339l.085.146c-.436.352-.745.579-.927.682-.133.074-.237.112-.312.112-.049 0-.093-.024-.133-.071a.312.312 0 01-.06-.202c0-.052.006-.116.018-.193.022-.12.076-.357.16-.712l.156-.678-.024-.012c-.277.375-.442.595-.497.658a5.85 5.85 0 01-.697.68 3.286 3.286 0 01-.747.483.52.52 0 01-.199.051c-.076 0-.143-.036-.199-.106-.058-.07-.086-.181-.086-.33 0-.2.051-.502.15-.905.146-.597.252-1.068.316-1.415.041-.224.062-.372.062-.443 0-.041-.01-.072-.027-.093s-.042-.031-.073-.031c-.085 0-.288.11-.61.331z"/></g></g></g></svg>