<svg version="1.1" baseProfile="tiny" id="レイヤー_1" xmlns="http://www.w3.org/2000/svg" x="0" y="0" width="150.571" height="44.508" viewBox="0 0 150.571 44.508" xml:space="preserve"><metadata><?xpacket begin="﻿" id="W5M0MpCehiHzreSzNTczkc9d"?><x:xmpmeta xmlns:x="adobe:ns:meta/" x:xmptk="Adobe XMP Core 5.3-c011 66.145661, 2012/02/06-14:56:27"><rdf:RDF xmlns:rdf="http://www.w3.org/1999/02/22-rdf-syntax-ns#"><rdf:Description xmlns:dc="http://purl.org/dc/elements/1.1/"><dc:format>image/svg+xml</dc:format><dc:title><rdf:Alt><rdf:li xml:lang="x-default">Web</rdf:li></rdf:Alt></dc:title></rdf:Description><rdf:Description xmlns:xmp="http://ns.adobe.com/xap/1.0/" xmlns:xmpGImg="http://ns.adobe.com/xap/1.0/g/img/"><xmp:CreatorTool>Adobe Illustrator CS6 (Windows)</xmp:CreatorTool><xmp:CreateDate>2017-07-12T14:10:33+09:00</xmp:CreateDate><xmp:ModifyDate>2017-07-12T14:10:33+09:00</xmp:ModifyDate><xmp:MetadataDate>2017-07-12T14:10:33+09:00</xmp:MetadataDate><xmp:Thumbnails><rdf:Alt><rdf:li rdf:parseType="Resource"><xmpGImg:width>256</xmpGImg:width><xmpGImg:height>76</xmpGImg:height><xmpGImg:format>JPEG</xmpGImg:format><xmpGImg:image>/9j/4AAQSkZJRgABAgEASABIAAD/7QAsUGhvdG9zaG9wIDMuMAA4QklNA+0AAAAAABAASAAAAAEA AQBIAAAAAQAB/+4ADkFkb2JlAGTAAAAAAf/bAIQABgQEBAUEBgUFBgkGBQYJCwgGBggLDAoKCwoK DBAMDAwMDAwQDA4PEA8ODBMTFBQTExwbGxscHx8fHx8fHx8fHwEHBwcNDA0YEBAYGhURFRofHx8f Hx8fHx8fHx8fHx8fHx8fHx8fHx8fHx8fHx8fHx8fHx8fHx8fHx8fHx8fHx8f/8AAEQgATAEAAwER AAIRAQMRAf/EAaIAAAAHAQEBAQEAAAAAAAAAAAQFAwIGAQAHCAkKCwEAAgIDAQEBAQEAAAAAAAAA AQACAwQFBgcICQoLEAACAQMDAgQCBgcDBAIGAnMBAgMRBAAFIRIxQVEGE2EicYEUMpGhBxWxQiPB UtHhMxZi8CRygvElQzRTkqKyY3PCNUQnk6OzNhdUZHTD0uIIJoMJChgZhJRFRqS0VtNVKBry4/PE 1OT0ZXWFlaW1xdXl9WZ2hpamtsbW5vY3R1dnd4eXp7fH1+f3OEhYaHiImKi4yNjo+Ck5SVlpeYmZ qbnJ2en5KjpKWmp6ipqqusra6voRAAICAQIDBQUEBQYECAMDbQEAAhEDBCESMUEFURNhIgZxgZEy obHwFMHR4SNCFVJicvEzJDRDghaSUyWiY7LCB3PSNeJEgxdUkwgJChgZJjZFGidkdFU38qOzwygp 0+PzhJSktMTU5PRldYWVpbXF1eX1RlZmdoaWprbG1ub2R1dnd4eXp7fH1+f3OEhYaHiImKi4yNjo +DlJWWl5iZmpucnZ6fkqOkpaanqKmqq6ytrq+v/aAAwDAQACEQMRAD8A6d+YH5ieY/yy82Wl9rBO q+QNdm9Iy8QLnTLkipUMoHqwsAXVW+L7QB+EBok02RiJDzemazplvrWjXOnvPLDFeRFVurWRopUJ 3SSKRCCGU0YH+GSYA080/Kj8wPNCWXm/S/PpUS+R5RHPrZX0xcwBZH9RwPh5COINUdQy1FesYnvZ ziNq6sd/LPU9a0y8/wAd/mB5qudCsfNeoTHQvK91J/oxin5NGZFlVzEBVSpUoBReTHnTAO8spDoB ye+Agio3BybSg9ZsLi/0u5s7a8l064mQrDfQcTJE/VXUMCpoeoIoemKQ83/LD82tV1PzVqX5f+cL RLXzho4Ym5twRbXkKcaSop3RmR1enQg126ZES6M5w2sckt0z8zPzN846j5s8s+V9MsLK90HVLnTn 8wXUzejFAs0kcTC1CyO83GLx4V3PhgslJiBRLHfy+F1+X/5qar5Yu7vXvNGt3NsNSupLaW3NpcGY JzkktbhkZJI22DrOeQO4pgGxZS3Fs7ufzsMH5k6N5Jl8salDNq0PrGaX0TJEGdkSQxRPKDEPScux cFQOhyXFvTDg2u3puSa1O5M628pt1V7gIxhRyVUvT4QxANBXFWM/lr+YOl+e/LEWtWUZt5Vdre/s XPJ7e5jpzjLUHLZgQabg/RgBtlKNFlWFigrjXNFt9Qg0241C2h1G5qbaykmjWaSnXhGSGb6Bimkb ih2KuxV2KuxV2KuxVDanqVnpmnXOo3rMlpaRtNcOqPIVjQVZuEYZzQb7DFQG9O1Gw1Kxg1DT7iO6 srpBLb3ETB0dGFQysMVIRGKuxV2KuxVaJYzI0YcGRAGdARyAavEke/E0xVcSACSaAbknFWJ67+bP 5aaCWTVPMthDKn24EmWaYU8Youcg+7AZBkIE9GEH/nK/8pDrMOnQzX08UziMaktsVtlLGgLCRknp 8osjxhn4MnofnvR/J2reWbm384LB+gUaOa5kuZPRjQxuCjGWqcfi2671p3yRYRJB2SzzLpP5Va3q FvJrz6dcX0FuBbiW5VHFvIQ6kKsi1RuoNPliaUEjk8T/ADd8v/lrb/mD+XWmaQLRNLv76Qa7FBPy hkhEtvwWY82XjTmPlXISAsN0CaLNfPmn/wDON/ljRl1TV9NsL6P1Ught7Z/rM5aQ/EVT1OiqCzGv QeNBhNMImReqeU77y7e+XNPn8tzRz6IYUWxaFiyiJRRU+L4gV6FW3HQ5INZu900klij4+o6pzYIn IgVY9AK98KGMraeQE/Md7wPbL55l04QtH6tLhrEScq+lWh+JftU5UHhg2tlvXk85/wCcfP8AlO/z b/8AAhl/6iLrIx5lnk5B1n/61tff+A8v/Eo8f4l/gd5k/wDWtvKv/gPS/wDEr3E/Uo+gvbsm1JN5 01v9A+UNa1qtG06xuLlPd4omZB9LADAUxFlgv/ONfkw+Wfys0+SYH69rZOqXNewnVRCu/wDxSqE+ 5OCA2Z5ZWVH8w/ygvdVmEHlG91DQTqLvLqVxb6jPDp0XxBmf6gj/AL2WQsSAnBa1ZjXZkxWM+9b5 T/5xk/LnQr611S7N5rOs20iXAvbud1/fxkMHCRcOjCoDFveuIgFOUl63kmt2KvDtY/5ym0fRpJdG v/LWp/4wt5TbS6OqoI2mBopSarMySChQiMk16HrkONtGK+uyY6TpX57ed0W88w6snkTRpaFNI0uN X1F0O/724l5+i1D+zv4oMdypMRy3T1PyL8ltEfrl3rN/eH/pYXOrXxnrWvKqSolf9hh4WPiFiVr5 g8z/AJY/mjo3k/VtWuNe8oeaT6WjXWoP6l5aXPIIIjMd5F5Oi7/zClKGouiyoSF9XuGTammVWUqw DKwoQdwQcVeG/wDOJEV+nkrXFklc6dFrE0NhbtUiMJHG0nAn9li428Qe5OQg3Zub3PJtLEPzBvPO 2j2f+IfLhj1CDT4y+peXpkANxAlWd7aZR6iTqvRW5K1OleoLKNHYpr5N83aN5v8ALdl5g0eT1LK9 TkFbZ43Bo8bjsyMCD+G2INokKNJ1hQ8u/NT8v/zD1HWbfzF+Xeupo2svCtjqkM5pBPbozPE5/dzD nE0jdU6HYilDEg9GyEhyKWaX/wA49PqCLP8AmL5r1TzVMaM9gbiWCwU9SojVuZHuCnywcPek5O4U g/KHkLyt5xvLi40bTLbRvy6spWtrMWMYhu9YlgbjLNNdL+++qq6lFUPV6VY02xAtTIj3vXdL8r+W 9Jto7bTNKtLK3ioY44II4wCO/wAIG/vkqaySXjX5/flj5D0H8ndcvtI0eGzu7UWa28qGQlA17BGa BmI3ViMjICm3HMmT0P8ALzyf5VTyH5aP6JtJHGlWg9WWGOSSjxCRgXcM27uzdepyQGzCUjZeQyeX 5fzG/OK+1rydBp8GheS4Ba2dxPbCTT73UalnjdY+HJaSEF1J4hVYfaFYVZbL4Y79XoPkbzn5D1/V Z/LOseX7Ty/50smKXeh3MEJ5kDlztpQoWZCvxCm9N6U3yQIYSiRv0emWlnZ2cIgtII7eEEkRRIqK CevwqAMk1oXW/L2ha9aJZ63p9vqVpHIsy291Gs0fqICFbg4K1AY40kEh4Tp3lzynpf8AzlRPFBp1 lp2n6fogvII4Yo7eCKb4EMoVAiBuLnfK69TaSeBK/wAp/wAzPLPlzz3+ZUUn1jU7/WNfmk0fT9Mh a6mulWe4JaIp+740cHkzgU3xidymcSQE30jWbpf+cmL3VdYsJdNkHlwPNYpyvJo19SMLUWyvybjQ sEDU8TSuHqgj0fFbF5s0DzV/zlR5evtAuvrtraaJPbXUgjkj9OZDdlkZZFRgR6q9u+N3JaIhu+hc m0vNv+cjrp7X8lfM0qdWit4jQ02mu4Yj+D5GXJsxfUE68r6u935u1rR7KSmh+Wrax09IwFIa7dGl lPID/dcJhWg7k4QxI2TXyV5jHmbylpOviIQfpO2jufQDc+BkFePLatOmIKJCjSdYUOxV2KoOXRdH l1KLVJbG3k1OBTHDfNEhnRD1VZSOag+AOKbRmKHYq+cfNuqf8rJ/5yK8saRoTG40ryRMLzUb+P4o lmilSaVeXSheCOL/AFq9hlZ3LeBwxPm+jssaHYq8Y/JPVdK8qaB5+sNUlW0Tyzrt/PeE0FLWRVeG QLttII24Dv2yEdm2Yshm35W3Orar5efzPqvOO58yTHULezZiVtrJlCWcKj7IPoKruQN2Y5IMJ86R nm78xvKPlL4Nau2juDF662sEM1xKY+RUNwhR+KlhSrUGJNKIkvIP+cR9VN3H52gs4pIdBTUo7nS4 pBTgLj1QyUFQGWOKLlQ5GDZmHJ9CZNpdirEPzfvr2x/K7zTdWVRcpptwEZdioZCrOD4qpLYJcmUO YV/ytisYvy28rJY8fqv6KsyhXoS0ClifcsST74jks+ZZRhYvB/Nfnm2/OeW8/LbydBK+kSGJ/MHm aeN0it47eZZlSGJuLtJJJEFHPj32pVhAm9m4R4dyhT5wju7K2/Lvzd5ji8iJo9tFYavBR47q/jij EXO3vZQsEVvMq1BXk5G22N9F4eo3ekeXfOH5K+W9Ht9H0TzJoFjp1svGKCPULQfNmJkqzN1Zm3J6 4QQwMZF55+cH/KpPNeraLr+n+dNHsPMehXUEpvFu0cS2scgkaPlCXJdPtRkd6r3qBKizhxDantHl vzV5e8zWLX+g30eoWSuYjcRcuHNQCQCQK0r2yQLUQRzSv8x/zF0LyB5eOuayk8sDSCCGK2j5u8rK zKtTxRNlO7MMSaTGJJeJ3ek61rEt7+a/nHR5LXy/5hsJdIvdItVae6sdKmiHo6hJWhkKyKCwVQVU 86bUyHm23XpDOvyv1f8A5x/8p6BBD5f8waLDM0SJeahPcQ211cOAOTyC4ZZVBb4uHRe2SFBhMSJ3 Y7Z655ah/wCchdT86XHmjQ/8OPpC2ltcLqlizmQCKqekspk+0jH7ODrbKjw1TM7Lz/8AkRY+YrrV dO1TTX8wavxS4uLMNc3U/wBlVjHorI5rwX4V606YbDHhlT0rJNbFPzX8t3PmX8uPMOi2ql7u6s3+ qxjq80VJYk/2ToBgkNmUDRYt/wA41aVqll+WaXOrw3EWr6pfXV7ffW1dJmkL+kGYOA26RLTBDkyy ndLG8m/nR5DnuLf8vLjTdZ8qyzPPZ6FqnJJbP1XLvFBIrRgx8mNOT7fy9SRRHJPFE8+aV6j5n/5y 8ugiWnlDS9PAZS0iz2sjGh3B9S8ZeJHWi18DjckgQ73uGky6lNpdpLqkEdrqUkKNeW0T+rHHKVBd Fei8gG2rTJtRReKHYql2u6lqWn2Ym0/SZ9YuGYILa3kt4iAQfjd7mWFQo/yat7YlIDzrXPLf5z+e I3sdS1Cz8leXpqrcWunO17qUsZFGje4IiiQN/wAV/TUdY0SzBiPNmPkL8u/K3kXRv0V5ftfRiYh7 m4kPOedwKc5XoKnwAAA7AYQKYykTzZLhYuxV4L+fv5FeZPMt5ca95Ln9O91KKK31/STL6Ed4sDBo ZakhC6cV2fbYEb9YSj3N2PIBsXullAlvZwW6RrEkMaRrEn2UCqAFX2FKDJtKtiqnBbW0HP0Iki9R zJJwULyc9WanUmnXFVTFXYqoahYWmoWFzYXkYms7uJ4LmFujxyqUdT7FTTFQ+d4dQ/Nj8jDNpY0m Tzf+XqO0mnXMRYXFpGzFijsiycKVqeScCfsstSMr3Df6Z+Req/lP+buhfmTpt5d6Za3FlNp8iRXd vchdjICyMjoSrA8T4EeHSsoytrnAxZNoPlfQtA+vjSbVbUaldyX94FqQ9xNTm+/SvHoNsIDEm1nm Pyf5W8y262+v6Va6nGn939ZiWRkJ6lGI5L/sTiQokRyYgf8AnHf8mCa/4Yg/5G3P/VXBwhl4ku93 /Qu35Mf9SxB/yOuf+quPCF8SXezjQ9D0nQdJttI0i2W0060Upb26ElUUksd2JPUk7nJMSbW6/wCX 9I1/TJNM1a3W6spGjkaJqj44nEiMCNwVZQcSFBpMMUMK1r8lfyq1m6e61DyzZPcSHlJLEptyzHqz egY+RPcnBwhmJkdUu/6F2/Jj/qWIP+R1z/1VwcIXxJd6Y+XvyX/LDy7rFvrOjaDFZ6nacjb3KyTM V5oY2oHkZd1cjphEQpmSzXCwdirsVdirsVdirsVdirsVdirsVdirsVdirsVdirsVdirsVdirsVWx xRR8vTRU5sXfiAKsepNO+KrsVdirsVdirsVdirsVdirsVdirsVdirsVdirsVdirsVdirsVdirsVd irsVdirsVdirsVdirsVdirsVdirsVdirsVdirsVdirsVdirsVdirsVdirsVdirsVdirsVdirsVdi rsVdirsVdirsVdirsVdirsVdirsVdirsVdirsVdirsVdirsVdirsVdirsVdirsVdirFfPfnibyoN NkOlvfW+pXcVgsySpH6c85pGHVgTxNDuOmV5J8PRsx4+K91K6/MF9K13TNI8w6TNp36Zm+radfpJ HcWzzn7MTspWRGb9mqb/AH4nJRAI5pGOwSDyZfljU7FXYq7FXYq7FXYq7FXYq7FXYq7FXYq7FXYq 7FXYq7FXYq7FXYq7FXYq7FXYq7FXYq7FXYq7FXmn58CdtA8vCB1jnPmLTRE7qXRX5PxLIGQsAeoD CviMoz8h7w36fmfcUs8/rq+k+Y/Kmtec54dY0ODU4obSLTonsFtr6UH0rmaGSS8adU4GlJU4+DVp kclggy3FssdEER2NJ4xnj/PeG3W8uBaS+Xpbp7N55XgaYXaRckidiiHh/KP45P8AynwYf5P4qX5e z3/+OvzDshdTTxWd1Zixjup5p1i9S3ZyFMjOyqWPQY4/qknJXDFjPk7XXfzF5f0LzKNW0DzpazyP dm6muJbLVgIpA4jb1DCwLESKOPFKcV8MrhLcA2Jfe2TjsSKMfue25lOI7FXYq7FXYq7FXYq7FXYq 7FXYq7FXYq7FXYq7FXYq7FXYq7FXYq7FXYq7FXYq7FXYq8s/PT636Xlvl6v1H9L2no+j6Vfr3Jvq /q+pv6fWvHMfP097kYOvuS/zP6n+J/Lv/KyfrX6K+vx/of6v9X/Rv6Qp+6+tcf3/AI8a/D1r8NcE uY4mUOR4OaM/MX69/wArQ8u/4Y9b/F31Gf1q+l9U/RvqfF63qb19T7PDfDk+sVzY4/oN/Slf5c/W v8U/mF6H17j6cX6V+veh6/136sa+nw+H7fqUp+7px47ZHHzkyy8ou8t/p39H+Rf8V1/w/wDXbb/D 3P0fr/r/AFV/qX1rh8Hp8K/Y/eVpz25Yxuo3y6LKrlw8+r2vMpxXYq7FXYq7FXYq7FXYq7FXYq7F XYq7FX//2Q==</xmpGImg:image></rdf:li></rdf:Alt></xmp:Thumbnails></rdf:Description><rdf:Description xmlns:xmpMM="http://ns.adobe.com/xap/1.0/mm/" xmlns:stRef="http://ns.adobe.com/xap/1.0/sType/ResourceRef#" xmlns:stEvt="http://ns.adobe.com/xap/1.0/sType/ResourceEvent#"><xmpMM:RenditionClass>proof:pdf</xmpMM:RenditionClass><xmpMM:OriginalDocumentID>uuid:65E6390686CF11DBA6E2D887CEACB407</xmpMM:OriginalDocumentID><xmpMM:DocumentID>xmp.did:6502F40DBD66E71188338B517F3ADCD9</xmpMM:DocumentID><xmpMM:InstanceID>xmp.iid:6502F40DBD66E71188338B517F3ADCD9</xmpMM:InstanceID><xmpMM:DerivedFrom rdf:parseType="Resource"><stRef:instanceID>uuid:c5b5eddb-66da-6741-a40d-cc810f9d042d</stRef:instanceID><stRef:documentID>xmp.did:FB05051EC465E111835FF2FC000FBA2B</stRef:documentID><stRef:originalDocumentID>uuid:65E6390686CF11DBA6E2D887CEACB407</stRef:originalDocumentID><stRef:renditionClass>proof:pdf</stRef:renditionClass></xmpMM:DerivedFrom><xmpMM:History><rdf:Seq><rdf:li rdf:parseType="Resource"><stEvt:action>saved</stEvt:action><stEvt:instanceID>xmp.iid:6502F40DBD66E71188338B517F3ADCD9</stEvt:instanceID><stEvt:when>2017-07-12T14:10:33+09:00</stEvt:when><stEvt:softwareAgent>Adobe Illustrator CS6 (Windows)</stEvt:softwareAgent><stEvt:changed>/</stEvt:changed></rdf:li></rdf:Seq></xmpMM:History></rdf:Description><rdf:Description xmlns:illustrator="http://ns.adobe.com/illustrator/1.0/"><illustrator:StartupProfile>Web</illustrator:StartupProfile></rdf:Description><rdf:Description xmlns:xmpTPg="http://ns.adobe.com/xap/1.0/t/pg/" xmlns:stDim="http://ns.adobe.com/xap/1.0/sType/Dimensions#" xmlns:xmpG="http://ns.adobe.com/xap/1.0/g/"><xmpTPg:NPages>1</xmpTPg:NPages><xmpTPg:HasVisibleTransparency>False</xmpTPg:HasVisibleTransparency><xmpTPg:HasVisibleOverprint>False</xmpTPg:HasVisibleOverprint><xmpTPg:MaxPageSize rdf:parseType="Resource"><stDim:w>150.571289</stDim:w><stDim:h>44.507813</stDim:h><stDim:unit>Pixels</stDim:unit></xmpTPg:MaxPageSize><xmpTPg:PlateNames><rdf:Seq><rdf:li>Cyan</rdf:li><rdf:li>Magenta</rdf:li><rdf:li>Yellow</rdf:li><rdf:li>Black</rdf:li></rdf:Seq></xmpTPg:PlateNames><xmpTPg:SwatchGroups><rdf:Seq><rdf:li rdf:parseType="Resource"><xmpG:groupName>初期設定のスウォッチグループ</xmpG:groupName><xmpG:groupType>0</xmpG:groupType><xmpG:Colorants><rdf:Seq><rdf:li rdf:parseType="Resource"><xmpG:swatchName>ホワイト</xmpG:swatchName><xmpG:mode>RGB</xmpG:mode><xmpG:type>PROCESS</xmpG:type><xmpG:red>255</xmpG:red><xmpG:green>255</xmpG:green><xmpG:blue>255</xmpG:blue></rdf:li><rdf:li rdf:parseType="Resource"><xmpG:swatchName>ブラック</xmpG:swatchName><xmpG:mode>RGB</xmpG:mode><xmpG:type>PROCESS</xmpG:type><xmpG:red>0</xmpG:red><xmpG:green>0</xmpG:green><xmpG:blue>0</xmpG:blue></rdf:li><rdf:li rdf:parseType="Resource"><xmpG:swatchName>RGB レッド</xmpG:swatchName><xmpG:mode>RGB</xmpG:mode><xmpG:type>PROCESS</xmpG:type><xmpG:red>255</xmpG:red><xmpG:green>0</xmpG:green><xmpG:blue>0</xmpG:blue></rdf:li><rdf:li rdf:parseType="Resource"><xmpG:swatchName>RGB イエロー</xmpG:swatchName><xmpG:mode>RGB</xmpG:mode><xmpG:type>PROCESS</xmpG:type><xmpG:red>255</xmpG:red><xmpG:green>255</xmpG:green><xmpG:blue>0</xmpG:blue></rdf:li><rdf:li rdf:parseType="Resource"><xmpG:swatchName>RGB グリーン</xmpG:swatchName><xmpG:mode>RGB</xmpG:mode><xmpG:type>PROCESS</xmpG:type><xmpG:red>0</xmpG:red><xmpG:green>255</xmpG:green><xmpG:blue>0</xmpG:blue></rdf:li><rdf:li rdf:parseType="Resource"><xmpG:swatchName>RGB シアン</xmpG:swatchName><xmpG:mode>RGB</xmpG:mode><xmpG:type>PROCESS</xmpG:type><xmpG:red>0</xmpG:red><xmpG:green>255</xmpG:green><xmpG:blue>255</xmpG:blue></rdf:li><rdf:li rdf:parseType="Resource"><xmpG:swatchName>RGB ブルー</xmpG:swatchName><xmpG:mode>RGB</xmpG:mode><xmpG:type>PROCESS</xmpG:type><xmpG:red>0</xmpG:red><xmpG:green>0</xmpG:green><xmpG:blue>255</xmpG:blue></rdf:li><rdf:li rdf:parseType="Resource"><xmpG:swatchName>RGB マゼンタ</xmpG:swatchName><xmpG:mode>RGB</xmpG:mode><xmpG:type>PROCESS</xmpG:type><xmpG:red>255</xmpG:red><xmpG:green>0</xmpG:green><xmpG:blue>255</xmpG:blue></rdf:li><rdf:li rdf:parseType="Resource"><xmpG:swatchName>R=193 G=39 B=45</xmpG:swatchName><xmpG:mode>RGB</xmpG:mode><xmpG:type>PROCESS</xmpG:type><xmpG:red>193</xmpG:red><xmpG:green>39</xmpG:green><xmpG:blue>45</xmpG:blue></rdf:li><rdf:li rdf:parseType="Resource"><xmpG:swatchName>R=237 G=28 B=36</xmpG:swatchName><xmpG:mode>RGB</xmpG:mode><xmpG:type>PROCESS</xmpG:type><xmpG:red>237</xmpG:red><xmpG:green>28</xmpG:green><xmpG:blue>36</xmpG:blue></rdf:li><rdf:li rdf:parseType="Resource"><xmpG:swatchName>R=241 G=90 B=36</xmpG:swatchName><xmpG:mode>RGB</xmpG:mode><xmpG:type>PROCESS</xmpG:type><xmpG:red>241</xmpG:red><xmpG:green>90</xmpG:green><xmpG:blue>36</xmpG:blue></rdf:li><rdf:li rdf:parseType="Resource"><xmpG:swatchName>R=247 G=147 B=30</xmpG:swatchName><xmpG:mode>RGB</xmpG:mode><xmpG:type>PROCESS</xmpG:type><xmpG:red>247</xmpG:red><xmpG:green>147</xmpG:green><xmpG:blue>30</xmpG:blue></rdf:li><rdf:li rdf:parseType="Resource"><xmpG:swatchName>R=251 G=176 B=59</xmpG:swatchName><xmpG:mode>RGB</xmpG:mode><xmpG:type>PROCESS</xmpG:type><xmpG:red>251</xmpG:red><xmpG:green>176</xmpG:green><xmpG:blue>59</xmpG:blue></rdf:li><rdf:li rdf:parseType="Resource"><xmpG:swatchName>R=252 G=238 B=33</xmpG:swatchName><xmpG:mode>RGB</xmpG:mode><xmpG:type>PROCESS</xmpG:type><xmpG:red>252</xmpG:red><xmpG:green>238</xmpG:green><xmpG:blue>33</xmpG:blue></rdf:li><rdf:li rdf:parseType="Resource"><xmpG:swatchName>R=217 G=224 B=33</xmpG:swatchName><xmpG:mode>RGB</xmpG:mode><xmpG:type>PROCESS</xmpG:type><xmpG:red>217</xmpG:red><xmpG:green>224</xmpG:green><xmpG:blue>33</xmpG:blue></rdf:li><rdf:li rdf:parseType="Resource"><xmpG:swatchName>R=140 G=198 B=63</xmpG:swatchName><xmpG:mode>RGB</xmpG:mode><xmpG:type>PROCESS</xmpG:type><xmpG:red>140</xmpG:red><xmpG:green>198</xmpG:green><xmpG:blue>63</xmpG:blue></rdf:li><rdf:li rdf:parseType="Resource"><xmpG:swatchName>R=57 G=181 B=74</xmpG:swatchName><xmpG:mode>RGB</xmpG:mode><xmpG:type>PROCESS</xmpG:type><xmpG:red>57</xmpG:red><xmpG:green>181</xmpG:green><xmpG:blue>74</xmpG:blue></rdf:li><rdf:li rdf:parseType="Resource"><xmpG:swatchName>R=0 G=146 B=69</xmpG:swatchName><xmpG:mode>RGB</xmpG:mode><xmpG:type>PROCESS</xmpG:type><xmpG:red>0</xmpG:red><xmpG:green>146</xmpG:green><xmpG:blue>69</xmpG:blue></rdf:li><rdf:li rdf:parseType="Resource"><xmpG:swatchName>R=0 G=104 B=55</xmpG:swatchName><xmpG:mode>RGB</xmpG:mode><xmpG:type>PROCESS</xmpG:type><xmpG:red>0</xmpG:red><xmpG:green>104</xmpG:green><xmpG:blue>55</xmpG:blue></rdf:li><rdf:li rdf:parseType="Resource"><xmpG:swatchName>R=34 G=181 B=115</xmpG:swatchName><xmpG:mode>RGB</xmpG:mode><xmpG:type>PROCESS</xmpG:type><xmpG:red>34</xmpG:red><xmpG:green>181</xmpG:green><xmpG:blue>115</xmpG:blue></rdf:li><rdf:li rdf:parseType="Resource"><xmpG:swatchName>R=0 G=169 B=157</xmpG:swatchName><xmpG:mode>RGB</xmpG:mode><xmpG:type>PROCESS</xmpG:type><xmpG:red>0</xmpG:red><xmpG:green>169</xmpG:green><xmpG:blue>157</xmpG:blue></rdf:li><rdf:li rdf:parseType="Resource"><xmpG:swatchName>R=41 G=171 B=226</xmpG:swatchName><xmpG:mode>RGB</xmpG:mode><xmpG:type>PROCESS</xmpG:type><xmpG:red>41</xmpG:red><xmpG:green>171</xmpG:green><xmpG:blue>226</xmpG:blue></rdf:li><rdf:li rdf:parseType="Resource"><xmpG:swatchName>R=0 G=113 B=188</xmpG:swatchName><xmpG:mode>RGB</xmpG:mode><xmpG:type>PROCESS</xmpG:type><xmpG:red>0</xmpG:red><xmpG:green>113</xmpG:green><xmpG:blue>188</xmpG:blue></rdf:li><rdf:li rdf:parseType="Resource"><xmpG:swatchName>R=46 G=49 B=146</xmpG:swatchName><xmpG:mode>RGB</xmpG:mode><xmpG:type>PROCESS</xmpG:type><xmpG:red>46</xmpG:red><xmpG:green>49</xmpG:green><xmpG:blue>146</xmpG:blue></rdf:li><rdf:li rdf:parseType="Resource"><xmpG:swatchName>R=27 G=20 B=100</xmpG:swatchName><xmpG:mode>RGB</xmpG:mode><xmpG:type>PROCESS</xmpG:type><xmpG:red>27</xmpG:red><xmpG:green>20</xmpG:green><xmpG:blue>100</xmpG:blue></rdf:li><rdf:li rdf:parseType="Resource"><xmpG:swatchName>R=102 G=45 B=145</xmpG:swatchName><xmpG:mode>RGB</xmpG:mode><xmpG:type>PROCESS</xmpG:type><xmpG:red>102</xmpG:red><xmpG:green>45</xmpG:green><xmpG:blue>145</xmpG:blue></rdf:li><rdf:li rdf:parseType="Resource"><xmpG:swatchName>R=147 G=39 B=143</xmpG:swatchName><xmpG:mode>RGB</xmpG:mode><xmpG:type>PROCESS</xmpG:type><xmpG:red>147</xmpG:red><xmpG:green>39</xmpG:green><xmpG:blue>143</xmpG:blue></rdf:li><rdf:li rdf:parseType="Resource"><xmpG:swatchName>R=158 G=0 B=93</xmpG:swatchName><xmpG:mode>RGB</xmpG:mode><xmpG:type>PROCESS</xmpG:type><xmpG:red>158</xmpG:red><xmpG:green>0</xmpG:green><xmpG:blue>93</xmpG:blue></rdf:li><rdf:li rdf:parseType="Resource"><xmpG:swatchName>R=212 G=20 B=90</xmpG:swatchName><xmpG:mode>RGB</xmpG:mode><xmpG:type>PROCESS</xmpG:type><xmpG:red>212</xmpG:red><xmpG:green>20</xmpG:green><xmpG:blue>90</xmpG:blue></rdf:li><rdf:li rdf:parseType="Resource"><xmpG:swatchName>R=237 G=30 B=121</xmpG:swatchName><xmpG:mode>RGB</xmpG:mode><xmpG:type>PROCESS</xmpG:type><xmpG:red>237</xmpG:red><xmpG:green>30</xmpG:green><xmpG:blue>121</xmpG:blue></rdf:li><rdf:li rdf:parseType="Resource"><xmpG:swatchName>R=199 G=178 B=153</xmpG:swatchName><xmpG:mode>RGB</xmpG:mode><xmpG:type>PROCESS</xmpG:type><xmpG:red>199</xmpG:red><xmpG:green>178</xmpG:green><xmpG:blue>153</xmpG:blue></rdf:li><rdf:li rdf:parseType="Resource"><xmpG:swatchName>R=153 G=134 B=117</xmpG:swatchName><xmpG:mode>RGB</xmpG:mode><xmpG:type>PROCESS</xmpG:type><xmpG:red>153</xmpG:red><xmpG:green>134</xmpG:green><xmpG:blue>117</xmpG:blue></rdf:li><rdf:li rdf:parseType="Resource"><xmpG:swatchName>R=115 G=99 B=87</xmpG:swatchName><xmpG:mode>RGB</xmpG:mode><xmpG:type>PROCESS</xmpG:type><xmpG:red>115</xmpG:red><xmpG:green>99</xmpG:green><xmpG:blue>87</xmpG:blue></rdf:li><rdf:li rdf:parseType="Resource"><xmpG:swatchName>R=83 G=71 B=65</xmpG:swatchName><xmpG:mode>RGB</xmpG:mode><xmpG:type>PROCESS</xmpG:type><xmpG:red>83</xmpG:red><xmpG:green>71</xmpG:green><xmpG:blue>65</xmpG:blue></rdf:li><rdf:li rdf:parseType="Resource"><xmpG:swatchName>R=198 G=156 B=109</xmpG:swatchName><xmpG:mode>RGB</xmpG:mode><xmpG:type>PROCESS</xmpG:type><xmpG:red>198</xmpG:red><xmpG:green>156</xmpG:green><xmpG:blue>109</xmpG:blue></rdf:li><rdf:li rdf:parseType="Resource"><xmpG:swatchName>R=166 G=124 B=82</xmpG:swatchName><xmpG:mode>RGB</xmpG:mode><xmpG:type>PROCESS</xmpG:type><xmpG:red>166</xmpG:red><xmpG:green>124</xmpG:green><xmpG:blue>82</xmpG:blue></rdf:li><rdf:li rdf:parseType="Resource"><xmpG:swatchName>R=140 G=98 B=57</xmpG:swatchName><xmpG:mode>RGB</xmpG:mode><xmpG:type>PROCESS</xmpG:type><xmpG:red>140</xmpG:red><xmpG:green>98</xmpG:green><xmpG:blue>57</xmpG:blue></rdf:li><rdf:li rdf:parseType="Resource"><xmpG:swatchName>R=117 G=76 B=36</xmpG:swatchName><xmpG:mode>RGB</xmpG:mode><xmpG:type>PROCESS</xmpG:type><xmpG:red>117</xmpG:red><xmpG:green>76</xmpG:green><xmpG:blue>36</xmpG:blue></rdf:li><rdf:li rdf:parseType="Resource"><xmpG:swatchName>R=96 G=56 B=19</xmpG:swatchName><xmpG:mode>RGB</xmpG:mode><xmpG:type>PROCESS</xmpG:type><xmpG:red>96</xmpG:red><xmpG:green>56</xmpG:green><xmpG:blue>19</xmpG:blue></rdf:li><rdf:li rdf:parseType="Resource"><xmpG:swatchName>R=66 G=33 B=11</xmpG:swatchName><xmpG:mode>RGB</xmpG:mode><xmpG:type>PROCESS</xmpG:type><xmpG:red>66</xmpG:red><xmpG:green>33</xmpG:green><xmpG:blue>11</xmpG:blue></rdf:li></rdf:Seq></xmpG:Colorants></rdf:li><rdf:li rdf:parseType="Resource"><xmpG:groupName>グレー</xmpG:groupName><xmpG:groupType>1</xmpG:groupType><xmpG:Colorants><rdf:Seq><rdf:li rdf:parseType="Resource"><xmpG:swatchName>R=0 G=0 B=0</xmpG:swatchName><xmpG:mode>RGB</xmpG:mode><xmpG:type>PROCESS</xmpG:type><xmpG:red>0</xmpG:red><xmpG:green>0</xmpG:green><xmpG:blue>0</xmpG:blue></rdf:li><rdf:li rdf:parseType="Resource"><xmpG:swatchName>R=26 G=26 B=26</xmpG:swatchName><xmpG:mode>RGB</xmpG:mode><xmpG:type>PROCESS</xmpG:type><xmpG:red>26</xmpG:red><xmpG:green>26</xmpG:green><xmpG:blue>26</xmpG:blue></rdf:li><rdf:li rdf:parseType="Resource"><xmpG:swatchName>R=51 G=51 B=51</xmpG:swatchName><xmpG:mode>RGB</xmpG:mode><xmpG:type>PROCESS</xmpG:type><xmpG:red>51</xmpG:red><xmpG:green>51</xmpG:green><xmpG:blue>51</xmpG:blue></rdf:li><rdf:li rdf:parseType="Resource"><xmpG:swatchName>R=77 G=77 B=77</xmpG:swatchName><xmpG:mode>RGB</xmpG:mode><xmpG:type>PROCESS</xmpG:type><xmpG:red>77</xmpG:red><xmpG:green>77</xmpG:green><xmpG:blue>77</xmpG:blue></rdf:li><rdf:li rdf:parseType="Resource"><xmpG:swatchName>R=102 G=102 B=102</xmpG:swatchName><xmpG:mode>RGB</xmpG:mode><xmpG:type>PROCESS</xmpG:type><xmpG:red>102</xmpG:red><xmpG:green>102</xmpG:green><xmpG:blue>102</xmpG:blue></rdf:li><rdf:li rdf:parseType="Resource"><xmpG:swatchName>R=128 G=128 B=128</xmpG:swatchName><xmpG:mode>RGB</xmpG:mode><xmpG:type>PROCESS</xmpG:type><xmpG:red>128</xmpG:red><xmpG:green>128</xmpG:green><xmpG:blue>128</xmpG:blue></rdf:li><rdf:li rdf:parseType="Resource"><xmpG:swatchName>R=153 G=153 B=153</xmpG:swatchName><xmpG:mode>RGB</xmpG:mode><xmpG:type>PROCESS</xmpG:type><xmpG:red>153</xmpG:red><xmpG:green>153</xmpG:green><xmpG:blue>153</xmpG:blue></rdf:li><rdf:li rdf:parseType="Resource"><xmpG:swatchName>R=179 G=179 B=179</xmpG:swatchName><xmpG:mode>RGB</xmpG:mode><xmpG:type>PROCESS</xmpG:type><xmpG:red>179</xmpG:red><xmpG:green>179</xmpG:green><xmpG:blue>179</xmpG:blue></rdf:li><rdf:li rdf:parseType="Resource"><xmpG:swatchName>R=204 G=204 B=204</xmpG:swatchName><xmpG:mode>RGB</xmpG:mode><xmpG:type>PROCESS</xmpG:type><xmpG:red>204</xmpG:red><xmpG:green>204</xmpG:green><xmpG:blue>204</xmpG:blue></rdf:li><rdf:li rdf:parseType="Resource"><xmpG:swatchName>R=230 G=230 B=230</xmpG:swatchName><xmpG:mode>RGB</xmpG:mode><xmpG:type>PROCESS</xmpG:type><xmpG:red>230</xmpG:red><xmpG:green>230</xmpG:green><xmpG:blue>230</xmpG:blue></rdf:li><rdf:li rdf:parseType="Resource"><xmpG:swatchName>R=242 G=242 B=242</xmpG:swatchName><xmpG:mode>RGB</xmpG:mode><xmpG:type>PROCESS</xmpG:type><xmpG:red>242</xmpG:red><xmpG:green>242</xmpG:green><xmpG:blue>242</xmpG:blue></rdf:li></rdf:Seq></xmpG:Colorants></rdf:li><rdf:li rdf:parseType="Resource"><xmpG:groupName>Web カラーグループ</xmpG:groupName><xmpG:groupType>1</xmpG:groupType><xmpG:Colorants><rdf:Seq><rdf:li rdf:parseType="Resource"><xmpG:swatchName>R=63 G=169 B=245</xmpG:swatchName><xmpG:mode>RGB</xmpG:mode><xmpG:type>PROCESS</xmpG:type><xmpG:red>63</xmpG:red><xmpG:green>169</xmpG:green><xmpG:blue>245</xmpG:blue></rdf:li><rdf:li rdf:parseType="Resource"><xmpG:swatchName>R=122 G=201 B=67</xmpG:swatchName><xmpG:mode>RGB</xmpG:mode><xmpG:type>PROCESS</xmpG:type><xmpG:red>122</xmpG:red><xmpG:green>201</xmpG:green><xmpG:blue>67</xmpG:blue></rdf:li><rdf:li rdf:parseType="Resource"><xmpG:swatchName>R=255 G=147 B=30</xmpG:swatchName><xmpG:mode>RGB</xmpG:mode><xmpG:type>PROCESS</xmpG:type><xmpG:red>255</xmpG:red><xmpG:green>147</xmpG:green><xmpG:blue>30</xmpG:blue></rdf:li><rdf:li rdf:parseType="Resource"><xmpG:swatchName>R=255 G=29 B=37</xmpG:swatchName><xmpG:mode>RGB</xmpG:mode><xmpG:type>PROCESS</xmpG:type><xmpG:red>255</xmpG:red><xmpG:green>29</xmpG:green><xmpG:blue>37</xmpG:blue></rdf:li><rdf:li rdf:parseType="Resource"><xmpG:swatchName>R=255 G=123 B=172</xmpG:swatchName><xmpG:mode>RGB</xmpG:mode><xmpG:type>PROCESS</xmpG:type><xmpG:red>255</xmpG:red><xmpG:green>123</xmpG:green><xmpG:blue>172</xmpG:blue></rdf:li><rdf:li rdf:parseType="Resource"><xmpG:swatchName>R=189 G=204 B=212</xmpG:swatchName><xmpG:mode>RGB</xmpG:mode><xmpG:type>PROCESS</xmpG:type><xmpG:red>189</xmpG:red><xmpG:green>204</xmpG:green><xmpG:blue>212</xmpG:blue></rdf:li></rdf:Seq></xmpG:Colorants></rdf:li></rdf:Seq></xmpTPg:SwatchGroups></rdf:Description><rdf:Description xmlns:pdf="http://ns.adobe.com/pdf/1.3/"><pdf:Producer>Adobe PDF library 10.01</pdf:Producer></rdf:Description></rdf:RDF></x:xmpmeta><?xpacket end="w"?></metadata><g fill="#210701"><path d="M0 9.462c.353.11 1.057.198 1.519.198h1.937c.286-.44.374-.551.704-.946.66.396.836.528 1.43.968.11.066.176.133.176.221 0 .153-.22.396-.704.791v5.281c.353.836.748 1.254 1.497 1.606 1.144.55 2.244.726 4.62.726 1.563 0 3.961-.043 4.995-.109 3.784-.198 3.784-.198 4.555-.221v.242c-.727.309-1.101.814-1.188 1.629h-.66c-8.493 0-8.516 0-10.1-.287-1.496-.285-2.75-1.033-3.542-2.178-.265-.374-.484-.77-.858-1.518-1.166 1.672-1.87 2.508-2.86 3.454v.462c0 .242-.088.396-.22.396-.221 0-.44-.375-1.299-2.201 1.122-.418 2.707-1.32 3.564-2.046v-5.765H1.519c-.462 0-.727.044-1.343.176L0 9.462zM.99.946c1.013.528 2.135 1.298 3.169 2.157.483.396.616.682.616 1.231 0 .902-.375 1.628-.793 1.628-.22 0-.352-.154-.527-.615-.77-1.826-1.452-2.882-2.684-4.181L.99.946zM13.4 5.501c-.066 2.486-.088 2.948-.176 3.653h3.674c.462-.66.616-.881 1.145-1.585.902.771 1.188 1.013 2.09 1.804.044.066.066.111.066.154 0 .088-.11.133-.309.133h-6.755a7.127 7.127 0 01-.286 1.144c.946.484 3.257 2.003 4.313 2.794 1.144.881 1.319 1.145 1.319 1.915 0 .99-.176 1.431-.55 1.431-.242 0-.352-.11-.66-.639-.109-.198-.946-1.364-1.276-1.805-.945-1.232-2.2-2.464-3.3-3.256-.462 1.232-1.057 2.135-1.98 3.059-1.32 1.298-2.574 2.046-4.511 2.641l-.154-.242c2.068-1.123 3.367-2.289 4.401-3.917.571-.925.901-1.849 1.144-3.124H7.812c-.771.065-1.233.109-1.387.131l-.197-.814c.374.065 1.342.177 1.584.177h3.851c.132-.969.176-2.047.176-3.653H8.472c-.353 0-1.188.089-1.519.132l-.198-.837c.462.088 1.387.198 1.717.198h4.753c.989-1.826 1.649-3.433 1.892-4.599 2.377.77 2.509.836 2.509 1.1 0 .221-.309.33-1.034.33h-.066c-1.518 1.914-2.046 2.531-2.772 3.169h2.663c.418-.638.55-.813 1.034-1.431.836.617 1.1.814 1.936 1.563.11.088.177.176.177.242s-.089.132-.177.132H13.4zM8.714.418c2.332 1.496 2.992 2.091 2.992 2.773 0 .813-.353 1.496-.748 1.496-.132 0-.265-.088-.353-.221-.088-.109-.088-.109-.462-1.012-.484-1.21-.902-1.87-1.694-2.794l.265-.242zm17.818 8.867c.44.088 1.166.177 1.364.177h1.76c.33-.396.44-.528.858-.946.616.462.792.616 1.298 1.034.11.11.154.176.154.265 0 .131 0 .131-.77.571v5.522c.352.925.726 1.343 1.672 1.805.902.462 2.179.616 4.841.616 2.971 0 5.127-.11 9.263-.44v.286c-.924.374-1.1.572-1.231 1.563-1.717.044-2.354.065-3.631.065-5.303 0-5.699 0-6.799-.176-1.364-.197-2.883-.945-3.652-1.805-.353-.396-.595-.857-.99-1.914-1.519 1.849-1.717 2.068-2.772 3.191v.418c.021.088.021.197.021.242 0 .197-.088.33-.176.33-.198 0-.374-.287-1.342-2.289 1.254-.594 1.826-.924 3.322-1.893v-5.94h-1.826a6.95 6.95 0 00-1.122.088l-.242-.77zM27.544.881c3.081 1.98 3.829 2.662 3.829 3.477 0 .33-.132.77-.353 1.188-.153.286-.308.418-.483.418-.089 0-.198-.065-.286-.176-.132-.176-.132-.176-.484-.924-.528-1.188-1.452-2.574-2.464-3.719l.241-.264zm7.548 12.387c.22-.065.22-.065.901-.307.683-.221 1.276-.463 2.729-1.035l.132.33c-1.804 1.188-2.618 1.672-5.456 3.191-.044.682-.088.879-.242.879-.176 0-.265-.131-.683-1.144-.109-.265-.109-.265-.462-1.101.484-.109.55-.132 1.078-.242.265-.065.265-.065.551-.131V5.743c0-2.772 0-2.772-.066-4.005.771.463 1.012.616 1.65 1.101 1.561-.902 2.574-1.716 3.608-2.839.44.287.792.506 1.012.639.683.374 1.013.66 1.013.836 0 .154-.176.264-.374.264-.177 0-.353-.043-.704-.197-1.145.594-3.059 1.363-4.687 1.869v9.857zm9.043-10.143c.352-.44.352-.44.748-.902.704.484.902.639 1.431 1.145.132.176.132.176.132.22 0 .11-.265.308-.792.572v6.799l.021 2.046v.528c0 .55-.176.814-.748 1.101-.308.176-.616.242-1.386.373-.11-.791-.154-.879-.44-1.056-.374-.22-.88-.374-1.65-.55v-.309c1.254.088 1.496.11 2.465.154.197 0 .264-.109.264-.352V3.631h-3.543v7.02c0 2.244.022 3.63.066 6.446-.044.22-.088.286-.242.33-.088.022-.813.088-1.012.088-.221 0-.33-.065-.374-.264.109-5.062.109-5.062.109-12.739 0-.705-.044-1.365-.109-2.289.792.374 1.034.484 1.76.902h3.3zm14.936 7.525c-.044.197-.374 1.584-.99 4.137-.309 1.297-.374 1.649-.374 2.332 0 .638-.022.814-.066.945a.542.542 0 01-.528.375c-.374 0-.704-.309-.945-.902-.484-1.145-.771-2.927-.771-4.688 0-.66.066-1.474.176-2.354.154-1.276.154-1.276.771-4.158.22-1.035.308-1.585.308-2.047 0-.727-.176-1.276-.616-2.068.484.021.881.309 1.475 1.078.55.682.814 1.254.814 1.738 0 .352-.022.439-.463 1.32-.439.924-.968 2.465-1.188 3.498-.198.836-.286 1.783-.286 2.729 0 1.211.109 1.98.418 2.904.374-.77.55-1.21.792-1.87l1.166-3.08.307.111zm2.773 1.1c-.044.439-.066.639-.066.924 0 2.421 1.387 3.41 4.797 3.41.638 0 1.276-.043 1.87-.153.462-.065.462-.065 1.166-.353.133-.043.242-.065.33-.065.572 0 1.387.771 1.387 1.298 0 .264-.176.44-.484.551-.462.153-1.519.242-2.75.242-2.751 0-4.709-.463-5.699-1.343-.792-.726-1.188-1.65-1.188-2.86 0-.551.066-1.034.265-1.738l.372.087zM61.8 4.753c.77.462 1.254.595 2.046.595 1.364 0 3.499-.484 4.423-.99.286-.154.33-.176.484-.176.176 0 .462.109.77.308.462.264.683.528.683.813 0 .287-.154.418-.616.506-1.452.221-2.267.418-3.125.771-.682.286-1.958.99-2.838 1.563l-.22-.22c.989-.836 1.738-1.453 2.09-1.717-.462.021-.704.044-.902.044-1.232 0-2.046-.329-2.992-1.231l.197-.266zm25.784 12.542c2.024-.506 3.477-1.057 4.862-1.848 2.574-1.453 4.049-3.609 4.049-5.92 0-2.199-1.628-3.696-4.026-3.696-2.574 0-5.941 1.408-8.846 3.675-.352.286-.572.374-.836.374-1.034 0-2.641-1.54-2.641-2.53 0-.154.044-.286.177-.551.22.463.352.617.615.814.33.242.595.352.902.352.572 0 1.408-.241 2.663-.791 3.476-1.519 5.765-2.113 8.053-2.113 3.345 0 5.633 1.959 5.633 4.842 0 2.729-1.849 5.082-5.061 6.446-1.673.704-3.278 1.078-5.435 1.276l-.109-.33zM114.93 9.99c-1.606 3.696-2.068 4.994-2.068 5.875 0 .176 0 .176.132.748.022.109.044.242.044.352 0 .309-.22.55-.484.55-.616 0-1.738-.858-2.42-1.87-.748-1.078-1.276-2.641-1.496-4.4-.132-.969-.154-1.519-.154-3.873-.021-2.046-.176-2.553-1.122-3.784h.198c.352 0 .99.418 1.65 1.078.66.638.99 1.232.99 1.738 0 .132-.022.308-.066.572-.264 1.342-.396 2.376-.396 3.278 0 1.188.177 2.288.507 3.19s.594 1.298 1.144 1.716c.242-.352.242-.352.727-1.166.704-1.188.704-1.188 1.848-3.102.353-.572.353-.572.639-1.057l.327.155zm4.686-3.982c2.772.615 4.973 3.542 4.973 6.578 0 1.057-.44 1.738-1.101 1.738-.22 0-.352-.044-.66-.242-.285-.197-.704-.264-1.649-.264-.507 0-.925 0-1.673.044l-.065-.33c1.782-.483 2.772-.771 2.97-.836.44-.154.507-.242.507-.66 0-.813-.309-2.091-.683-2.882-.594-1.277-1.475-2.201-2.729-2.883l.11-.263zm14.738-.485c.309.285.551.374.99.374.616 0 1.166-.11 6.095-1.298a93.352 93.352 0 013.564-.771c1.673-.33 2.311-.484 2.971-.704.44-.133.594-.176.771-.176.264 0 .748.197 1.188.461.44.287.639.529.639.837 0 .33-.265.55-.683.55-.088 0-.241 0-.396-.021-.286-.045-.396-.045-.616-.045-3.763 0-7.394 3.587-7.394 7.283 0 2.025 1.013 3.521 2.905 4.335.726.308 1.605.507 2.244.528.439 0 .594.066.924.352.396.396.66.793.66 1.057 0 .374-.33.615-.814.615-1.254 0-3.234-.703-4.467-1.584-1.672-1.188-2.552-2.882-2.552-4.928 0-1.783.88-3.741 2.398-5.369.88-.969 1.76-1.563 3.586-2.508-2.002.285-3.807.703-6.314 1.518-1.387.439-2.816 1.034-3.521 1.408-.44.264-.594.309-.88.309-.528 0-1.188-.507-1.694-1.299-.353-.527-.572-1.122-.572-1.475 0-.176.044-.308.242-.572.199.53.375.815.726 1.123z"/></g><g fill="#4A1F00"><path d="M68.074 44.063c.408 0 .647-.06.756-.18.132-.144.132-.156.155-1.056V37.18c-.023-.768-.023-.78-.06-.889-.084-.251-.3-.348-.852-.348v-.287h3.274c.936 0 1.739.132 2.206.348.696.336 1.032.875 1.032 1.667 0 1.14-.731 1.774-2.243 1.967v.084c.588.024.96.108 1.379.324.816.419 1.2 1.043 1.2 1.954 0 1.104-.528 1.787-1.607 2.135-.456.133-1.212.217-2.027.217h-3.214v-.289zm3.191-4.557c1.439 0 2.183-.611 2.183-1.787 0-1.151-.743-1.703-2.291-1.703h-1.104v3.49h1.212zm-.048 4.486c.875 0 1.499-.156 1.883-.492.384-.313.6-.888.6-1.596 0-.815-.312-1.402-.888-1.715-.348-.18-.936-.287-1.595-.287h-1.164v4.09h1.164zm9.982.444a9.742 9.742 0 01-.061-1.236c-.468.816-1.247 1.296-2.135 1.296-.768 0-1.354-.372-1.595-1.007-.12-.324-.168-.816-.168-1.859v-1.98c0-.624-.048-.876-.18-.984-.072-.072-.18-.096-.408-.107h-.216v-.264l1.859-.12c-.061 1.115-.072 1.403-.072 2.23v1.044c0 1.211.024 1.535.168 1.955.144.443.479.671.972.671.659 0 1.247-.432 1.559-1.163.181-.408.216-.672.216-1.415V39.65c0-.637-.035-.864-.18-.973-.071-.071-.191-.107-.407-.119h-.216v-.264l1.858-.12c-.036.899-.06 1.69-.06 2.23v2.267c0 1.199.107 1.416.731 1.416h.084v.264l-1.749.085zm3.375-1.979h.372c.048.563.132.851.336 1.115.312.432.755.646 1.307.646.815 0 1.308-.419 1.308-1.127 0-.275-.108-.539-.288-.695-.216-.18-.252-.191-1.343-.672-1.296-.563-1.691-.995-1.691-1.811 0-.42.12-.828.324-1.104.323-.432.887-.684 1.486-.684.313 0 .468.023 1.116.144.096.013.18.024.252.024.144 0 .335-.024.575-.084l-.06 1.895h-.396c-.023-1.067-.552-1.703-1.427-1.703-.744 0-1.224.42-1.224 1.067 0 .276.108.492.324.647.228.168.456.288 1.247.624.804.336 1.104.516 1.379.815.252.275.396.672.396 1.14 0 1.104-.731 1.812-1.859 1.812-.336 0-.491-.024-1.199-.145a3.294 3.294 0 00-.443-.036c-.133 0-.3.013-.54.048l.048-1.916z"/></g></svg>