<svg version="1.1" baseProfile="tiny" id="レイヤー_1" xmlns="http://www.w3.org/2000/svg" x="0" y="0" width="219.352" height="30" viewBox="0 0 219.352 30" xml:space="preserve"><metadata><?xpacket begin="﻿" id="W5M0MpCehiHzreSzNTczkc9d"?><x:xmpmeta xmlns:x="adobe:ns:meta/" x:xmptk="Adobe XMP Core 5.3-c011 66.145661, 2012/02/06-14:56:27"><rdf:RDF xmlns:rdf="http://www.w3.org/1999/02/22-rdf-syntax-ns#"><rdf:Description xmlns:dc="http://purl.org/dc/elements/1.1/"><dc:format>image/svg+xml</dc:format><dc:title><rdf:Alt><rdf:li xml:lang="x-default">Web</rdf:li></rdf:Alt></dc:title></rdf:Description><rdf:Description xmlns:xmp="http://ns.adobe.com/xap/1.0/" xmlns:xmpGImg="http://ns.adobe.com/xap/1.0/g/img/"><xmp:CreatorTool>Adobe Illustrator CS6 (Windows)</xmp:CreatorTool><xmp:CreateDate>2017-07-12T13:57:31+09:00</xmp:CreateDate><xmp:ModifyDate>2017-07-12T13:57:32+09:00</xmp:ModifyDate><xmp:MetadataDate>2017-07-12T13:57:32+09:00</xmp:MetadataDate><xmp:Thumbnails><rdf:Alt><rdf:li rdf:parseType="Resource"><xmpGImg:width>256</xmpGImg:width><xmpGImg:height>36</xmpGImg:height><xmpGImg:format>JPEG</xmpGImg:format><xmpGImg:image>/9j/4AAQSkZJRgABAgEASABIAAD/7QAsUGhvdG9zaG9wIDMuMAA4QklNA+0AAAAAABAASAAAAAEA AQBIAAAAAQAB/+4ADkFkb2JlAGTAAAAAAf/bAIQABgQEBAUEBgUFBgkGBQYJCwgGBggLDAoKCwoK DBAMDAwMDAwQDA4PEA8ODBMTFBQTExwbGxscHx8fHx8fHx8fHwEHBwcNDA0YEBAYGhURFRofHx8f Hx8fHx8fHx8fHx8fHx8fHx8fHx8fHx8fHx8fHx8fHx8fHx8fHx8fHx8fHx8f/8AAEQgAJAEAAwER AAIRAQMRAf/EAaIAAAAHAQEBAQEAAAAAAAAAAAQFAwIGAQAHCAkKCwEAAgIDAQEBAQEAAAAAAAAA AQACAwQFBgcICQoLEAACAQMDAgQCBgcDBAIGAnMBAgMRBAAFIRIxQVEGE2EicYEUMpGhBxWxQiPB UtHhMxZi8CRygvElQzRTkqKyY3PCNUQnk6OzNhdUZHTD0uIIJoMJChgZhJRFRqS0VtNVKBry4/PE 1OT0ZXWFlaW1xdXl9WZ2hpamtsbW5vY3R1dnd4eXp7fH1+f3OEhYaHiImKi4yNjo+Ck5SVlpeYmZ qbnJ2en5KjpKWmp6ipqqusra6voRAAICAQIDBQUEBQYECAMDbQEAAhEDBCESMUEFURNhIgZxgZEy obHwFMHR4SNCFVJicvEzJDRDghaSUyWiY7LCB3PSNeJEgxdUkwgJChgZJjZFGidkdFU38qOzwygp 0+PzhJSktMTU5PRldYWVpbXF1eX1RlZmdoaWprbG1ub2R1dnd4eXp7fH1+f3OEhYaHiImKi4yNjo +DlJWWl5iZmpucnZ6fkqOkpaanqKmqq6ytrq+v/aAAwDAQACEQMRAD8A7B+SX/HL1L/jOn/EM03Y 30S97k6nmHpOblxnYqo3d9ZWUQlvLiO2iZgiyTOsalm6KCxAqcBNJAtVVlZQykFSKgjcEHChvFXY q7FUl8pebtH81aV+lNJMptPUeLlNE8R5xmjgBhvRtqjvkYTEhYZzgYmimsV3azSzRQzJJLbMI7iN GDNG5UOFcA1UlWDUPY5K2FKuKpfqHmHQtNu7W01C/gs7m9bhaRTyLGZXJoFTkRyYnoBvgMgObIRJ 5JhhYuxV2KuxVLdW8yaFpBh/Sd4lok8ogSaSoiEpAKo8tOEbMGHEORXtkTIDmyESeSZZJil2u+Yt C0Cxa+1q/gsLVQf3k7hKkdlB3ZvZQTkZSA5soxJ5NaD5l0HX9Mt9T0e9jvLK6qIJUJFSv2l4sFYM vdSKjGMgRYWUSDRW/wCKNC/xH/hv61/ua9AXX1ThJX0SSOfPjw6j+bHiF11XgNX0TNmCqWNaKKmg JO3gBuckxSCz/MPyHeWsV1B5h04wzKHQtcxI1D4o7Kyn2IrkBkierM45Doqnzz5KAqfMGm0/5jIP +a8PHHvXw5dxReg+YdE8waampaNeR31jIWVZ4jUclNGUg0II8DjGQIsIlEg0UwyTF2KuxV2KuxVJ 283aCvmlfKxnf9OPb/XFthDMy+hUr6hlCGJRyWnxMN9u+R4xddWXAavonGSYvNvyS/45epf8Z0/4 hmm7G+iXvcnU8w9JzcuM7FXnX5pebtLi8peZdH1TS78TPYXaWxFnNPby/uWKSrcRJLFGFNGJkKlO pHfKcsxRBDfigeIEF35R33mWTQ9O0xtAk0ny7Y6bBDbaheTJ9bnnCLydbdQ/GM1JBY/R2DhJqq2X MBd3ZtEeVNT/ADEHnK903ULaa/8AKfBmstcvIobS5WVKAxtFGU9RDX4W9FPuxgZcVHkiYjw2ObNb +xt7+zls7nn6Ew4yenJJC9Ou0kTI6/QctItqBp5p5al1DW7/AF+zsrGRotC1KbTRLL5g1eAusdCh 9NRcAfCwB+Lr2GURs35HvLfKgB5juDGvyn0/Vo/yybUYbT1oreS/kqNc1Ozr6U0hI9GCMx9uvL4u p3yGIHgv9JbMxHHX6AzX8nNI0a48u2vnGLS007WddhMl+8NzczrLVyeb+u7/ABMV5b1IrTkd8twg VxVuWnNI3w3sGc6pBqE9hLHp10tnekAwXDxiZFZWBo8ZK8lanFqEGh2IO+Wm+jUKvd4pr91rnnbz bDoGp+ZdD0u38uXsc0M0UXM3GphWCwxw3U9JTArVbYgMaENQgYsiZGiRs5UQIRsA7/czS71fRfyr 0ZLjzFrmpax+krtVlur2dJpIy43aKAtGVhTusKsRXpTLSRjG5tqAOQ7ABn8ckckayRsHjcBkYGoI IqCDlzSpX9obuzlt1nltmkWi3EDBZEPUMpIYVB7EEHuCMBCQaeYX+j/nnqGpvZ6V5lSw0iItHJqV 5YWqXEhBpyhjjMvMf5TLF7djlBGQnY7N4ljA3G6b3H5UJqLafLrWqNqFyLWWx8xusIgTVYGRhCZo 0YhZIG4sjirCnXpSRxXzPv8ANiM1ch7vJm0kK22mtDbwvKsMJSGCN+DsFSiorsy8WNKBiw+eW9Gr q8O81ReXbf8AMzyXZjyxejWJp5rq4hvpra8uJ4RA6oDLLeXA+GQVHNwNtt8xZ1xDbdy4XwHfb8eS a+cbnW9V8x+Qo/MmhJpbJr0ggtzNDdRyQrEWib4K8WWg5AjruPaUySY2OrGAAEqPRPrH/wBaC1P/ AMBuD/qLOSH94fcwP90Pe9Gd1RGdyFRQSzHoANycvaHi35LyXQ/JnTAmg/XE9K+pd87ccv8ASp96 Owf4emYuH6OTlZ/7w7oj8pZbsfk/pQTy/wDWk+q3FLvnbDl+9l3o7B9sOL6BsjN9Z3Tr/nHRVH5O 6AQACxvCx8T9dmH8Mlp/oDHU/WWS+efOMfljTIZIrZr/AFbUJ0stI01CFae5k+ypY/ZRftOx6DLJ z4R5teOHEfJiHmaz802kegtrfmG6m1jWNWtLMadpb/UrSOGRy1yE9Olw4jgVzzeTrTYZXIEVZ3Jb YkG6GwCM8132u/l5DFr6ahcav5VSaOLWbG+YTXFtHM4jW4tp6CRgjMvJJC1exGGZMN+YRACe3IvR UdXRXQhkYAqw6EHcHLmhJf0Z5qDyEa5EUZ3aNTZKSqFiVSolFeK7V75Cj3s7Hc8x8lX0+u+b9d82 ah5hs9P1bS57vyvbRvEiJLY286TpMY5JQ3NnYioNNqZRA3Iknyb5ioiIG3Nk09vdeZdahttN8/rH qGhuLmez06KGjCVQF9dC8nqJxalOm/jTLPqO0uTXfCN481H8kv8Ajl6l/wAZ0/4hms7G+iXvZ6nm HpOblxnYq8u/OP8AMGG20XzD5W0uwl1TVDpNw+qMhEcFjbTwsnqTSN+2VbkkYFW9sozZNiB3ORhx 7gnvTHSNI8z3gt9P1TzjNZ3ps47lNP0e1traNYa8AVku4rx5ApFGowpUVAqKkAnYliSBuB81byt5 j1qHz9q/kvVL4autpZw6jZ6i0cUU6pK/BoLhYQkRYbMpVF26jDCR4jE7rOI4RIbMzvb+xsbdrm+u IrW2QgPPO6xoCxoKsxA3JplhNNQFvH/Lej2ttrnmu71HTfL2oRalrE93YXGo31v6hgcLx4hIbzip p0YqfbMeI3N1zcmUthRPJj/5ZWelXP5aSQtpPl2e7le/SO4vbqOK6BaWQJ8LWsn2f2P3nTwyGIDh 5BnlJ4+ZZ/8Ak55l0CHRLHyMb+CTzHologvrWJ1kWpJY+lKpKS8OQ58CePfLcMhXD1DTmib4uhZl 5r0rVNW8v3mm6XqLaTe3SrHHqMa8niUuvqFBVfiKcgDXatctmCRQaoEA2d3k3nTR7PS/IvmPyZ5M 0qBrPSLIy+YdVulMkjzNF6yxpxHKa6ZeLlyeMYIp2Ax5iomMRy5uTCVyEpHnyZl5O/LHytHZ2Gt6 raPrHmC4t4ZZ9Q1ZzeTK7IG4p6nwRhCaLwUZZDEOZ3LVPKeQ2DPcuaUm8weYo9IvtDglCrDq9/8A UXnc0VCbaaWPev2nkiVF+eRlKq82UY3fknOSYuxVSvLu2s7Sa7upFhtrdGlnlbZVRByZj8gMBNJA t4X5g8qnWfOnlfXfMkLw3PmTUp4obRi0ctpp8FnJ9UiqCGjm5H1mpuHan7OYsoXIE9XLjOokDoE2 1rQvOOnXn5d2urTvrt1Ya7MrahGjs/1MgrDJctQ/GIzVmP3n7RlKMhw3vuxjKJ4q22TuxI/6GD1M V3PluAgfK7yQ/vD7mB/uh72aeatRh0zyxq2ozGkVnZ3E7/KOJmp9NMtmaBLVAWQHnf5b+U/Nmnfl VpUCa39Siawa4Fl9UicoLnlPxLseVf3m+U44EQG7dlmDM7IX8pdK8yzfk/pU1rrv1a1a1uClr9Ui k4gSy1HNjU1wYgeAbpzEcZ2Tv/nHX/yTnl//AKPP+o6fJaf6Ax1P1lFfmUbPSdd8qecdRbjpWhXV xDfyGpEKajD6CTlQDUJKEX25YcmxEj0Ri3BiOZS3yZcy+ffPE3ndkYeWtEWXT/KvMFfXlk+G7vQp oQCB6a+3gQcEDxy4ug5Mpjgjw9Tza/P3VTceV4/JemqLrzF5nmhtrOzU1dYllWSSdx+zGvp0LH59 jjqDtwjmV0434jyD0jTrMWWn2tmG5i2hjhDnv6aha/hlwFBoJspf5w8zWXljy1qGuXhHpWUTOiE0 Mkp2iiHu7kKPngnLhFphHiNMd/KPya2ieQ9Og1a2RtXuvUvdRMiKXE1y5kKtUdUUhT7jIYYVHfm2 Zp3LbklP5ZW1vP8AmZ+Y+qxwoFF5Z6fC4RRx+qwFZVUgbVPHl40GRxD1SLLKfREK/wCSX/HL1L/j On/EM1vY30S96dTzD0nNy4zsVYZ55/K7SPNazOLy60i7u1SDUbmxcp9atlqPRuIz8EgoTxZhVfls ap4hLybceUx80z8zeSNG8w2lpDcvcWlxp55afqFlM0F1ASArenKK7MFHIEEH6BkpQBYxyGKj5N/L 7QvKjXk9m9ze6lqLB7/Vb+X17uYr9kPJRRQeAAxhjEUzyGTJJYYpozHMiyRmhKOAwNDUbHwIybWo fozTf+WSH/kWv9MFBNliH5UeSLvy55KttL1y3tX1JJbiWYxASJ++maRQGZQdg2V4ocMaLZmycUrD MorKyicPFbxxuOjKig/eBllNdq2FDDtX8j68dWvNT8seZZtBk1Fllv7VraG9tpJkjWISrHLxaNii KG4vRqDKjA3YNNoyCqItD+XvJn5g2WvRalrXnqXV7VAwk05dPt7WJwVIAPBnpQ0NQK/fjGEgbMrW U4kUI0znLWpL9f8AL+j+YNKn0nV7ZbuwuABJE1RuDVWVlIZWU7hgajIyiCKLKMiDYYPL+SNo6tEn nLzXDbEcVtU1Q+kq/wAoDxsafM5V4HnL5tvj+UfkyDyH+XeieSrW6t9LnvLj67IstxLezGZi6gio ACIK13IWp79Bk8eMR5MMmQy5soIBFD0yxrYj518qanrXmHylf2jRCDRL9ru89RirGMxFBwABqa/L K5wJIPc2QmACO9k2oQXc9q8VpdGznNOFwEWTjQ/yvUHJlgGB+UPIXm+z/MTU/N3mXU7W+eSy/Ren i1jMTNb+ssweZCOKt8FKKxyqGOQkZEt08kTERAZF5z8t3XmW2tdHkdI9DlmWXWRU+rNFCyulugpQ LK4/eNX7IoB8VROceLbo1wlw79U+mgSS2e3+yjoY/h2oCKbZNgwmPyDr+h+Rbfy95U1v0Z7KBoIT fRRPBIXkZ3aTinqKaOQOLU6bZV4ZEaBbvEBlcgmv5beUH8n+SdL8uyXAupbFJPVnUcVZ5pXmbiDv QNIQMljhwxAY5Z8UiU/vLKzvrWS0vYI7q1mXjNbzIskbr4MjAqR88kRbAGlCfTFGl/o7TZTpSIqx wSWkcQMKKRtEkiPEPhFBVCB4Y1tQW97O6W6B5H0HRb+fVIkku9ZuhxudWvHM906/yB22RNvsIFX2 yMYAb9WUshIron+TYMVfyheaxrsGreZp47i306T1NI0WCptYpBstxMzhWnmA+xVVVOwJ+LK+CzZb OOhQX+adA84XNvNN5a8yTadfsQYre4htZ7TcgMDygacUH2aP17YyjLoVhKPUKf5b+SJfKOiXFtd3 v6S1XUbubUdVv+Aj9W5uCORCitBRR+vatMccOELlycR8kv8Aym/Qn6Ov/wBFfWfT9ZfV+teny5cd uPp9s13ZfBwy4L59Wee7Fs7zatDsVdirsVdirsVdirsVdirsVdirsVdirsVdirsVdirsVdirsVdi rsVdirsVdirsVdirsVdirsVdir//2Q==</xmpGImg:image></rdf:li></rdf:Alt></xmp:Thumbnails></rdf:Description><rdf:Description xmlns:xmpMM="http://ns.adobe.com/xap/1.0/mm/" xmlns:stRef="http://ns.adobe.com/xap/1.0/sType/ResourceRef#" xmlns:stEvt="http://ns.adobe.com/xap/1.0/sType/ResourceEvent#"><xmpMM:RenditionClass>proof:pdf</xmpMM:RenditionClass><xmpMM:OriginalDocumentID>uuid:65E6390686CF11DBA6E2D887CEACB407</xmpMM:OriginalDocumentID><xmpMM:DocumentID>xmp.did:5F02F40DBD66E71188338B517F3ADCD9</xmpMM:DocumentID><xmpMM:InstanceID>xmp.iid:5F02F40DBD66E71188338B517F3ADCD9</xmpMM:InstanceID><xmpMM:DerivedFrom rdf:parseType="Resource"><stRef:instanceID>uuid:c5b5eddb-66da-6741-a40d-cc810f9d042d</stRef:instanceID><stRef:documentID>xmp.did:FB05051EC465E111835FF2FC000FBA2B</stRef:documentID><stRef:originalDocumentID>uuid:65E6390686CF11DBA6E2D887CEACB407</stRef:originalDocumentID><stRef:renditionClass>proof:pdf</stRef:renditionClass></xmpMM:DerivedFrom><xmpMM:History><rdf:Seq><rdf:li rdf:parseType="Resource"><stEvt:action>saved</stEvt:action><stEvt:instanceID>xmp.iid:5F02F40DBD66E71188338B517F3ADCD9</stEvt:instanceID><stEvt:when>2017-07-12T13:57:32+09:00</stEvt:when><stEvt:softwareAgent>Adobe Illustrator CS6 (Windows)</stEvt:softwareAgent><stEvt:changed>/</stEvt:changed></rdf:li></rdf:Seq></xmpMM:History></rdf:Description><rdf:Description xmlns:illustrator="http://ns.adobe.com/illustrator/1.0/"><illustrator:StartupProfile>Web</illustrator:StartupProfile></rdf:Description><rdf:Description xmlns:xmpTPg="http://ns.adobe.com/xap/1.0/t/pg/" xmlns:stDim="http://ns.adobe.com/xap/1.0/sType/Dimensions#" xmlns:xmpG="http://ns.adobe.com/xap/1.0/g/"><xmpTPg:NPages>1</xmpTPg:NPages><xmpTPg:HasVisibleTransparency>False</xmpTPg:HasVisibleTransparency><xmpTPg:HasVisibleOverprint>False</xmpTPg:HasVisibleOverprint><xmpTPg:MaxPageSize rdf:parseType="Resource"><stDim:w>219.351563</stDim:w><stDim:h>29.999512</stDim:h><stDim:unit>Pixels</stDim:unit></xmpTPg:MaxPageSize><xmpTPg:PlateNames><rdf:Seq><rdf:li>Cyan</rdf:li><rdf:li>Magenta</rdf:li><rdf:li>Yellow</rdf:li><rdf:li>Black</rdf:li></rdf:Seq></xmpTPg:PlateNames><xmpTPg:SwatchGroups><rdf:Seq><rdf:li rdf:parseType="Resource"><xmpG:groupName>初期設定のスウォッチグループ</xmpG:groupName><xmpG:groupType>0</xmpG:groupType><xmpG:Colorants><rdf:Seq><rdf:li rdf:parseType="Resource"><xmpG:swatchName>ホワイト</xmpG:swatchName><xmpG:mode>RGB</xmpG:mode><xmpG:type>PROCESS</xmpG:type><xmpG:red>255</xmpG:red><xmpG:green>255</xmpG:green><xmpG:blue>255</xmpG:blue></rdf:li><rdf:li rdf:parseType="Resource"><xmpG:swatchName>ブラック</xmpG:swatchName><xmpG:mode>RGB</xmpG:mode><xmpG:type>PROCESS</xmpG:type><xmpG:red>0</xmpG:red><xmpG:green>0</xmpG:green><xmpG:blue>0</xmpG:blue></rdf:li><rdf:li rdf:parseType="Resource"><xmpG:swatchName>RGB レッド</xmpG:swatchName><xmpG:mode>RGB</xmpG:mode><xmpG:type>PROCESS</xmpG:type><xmpG:red>255</xmpG:red><xmpG:green>0</xmpG:green><xmpG:blue>0</xmpG:blue></rdf:li><rdf:li rdf:parseType="Resource"><xmpG:swatchName>RGB イエロー</xmpG:swatchName><xmpG:mode>RGB</xmpG:mode><xmpG:type>PROCESS</xmpG:type><xmpG:red>255</xmpG:red><xmpG:green>255</xmpG:green><xmpG:blue>0</xmpG:blue></rdf:li><rdf:li rdf:parseType="Resource"><xmpG:swatchName>RGB グリーン</xmpG:swatchName><xmpG:mode>RGB</xmpG:mode><xmpG:type>PROCESS</xmpG:type><xmpG:red>0</xmpG:red><xmpG:green>255</xmpG:green><xmpG:blue>0</xmpG:blue></rdf:li><rdf:li rdf:parseType="Resource"><xmpG:swatchName>RGB シアン</xmpG:swatchName><xmpG:mode>RGB</xmpG:mode><xmpG:type>PROCESS</xmpG:type><xmpG:red>0</xmpG:red><xmpG:green>255</xmpG:green><xmpG:blue>255</xmpG:blue></rdf:li><rdf:li rdf:parseType="Resource"><xmpG:swatchName>RGB ブルー</xmpG:swatchName><xmpG:mode>RGB</xmpG:mode><xmpG:type>PROCESS</xmpG:type><xmpG:red>0</xmpG:red><xmpG:green>0</xmpG:green><xmpG:blue>255</xmpG:blue></rdf:li><rdf:li rdf:parseType="Resource"><xmpG:swatchName>RGB マゼンタ</xmpG:swatchName><xmpG:mode>RGB</xmpG:mode><xmpG:type>PROCESS</xmpG:type><xmpG:red>255</xmpG:red><xmpG:green>0</xmpG:green><xmpG:blue>255</xmpG:blue></rdf:li><rdf:li rdf:parseType="Resource"><xmpG:swatchName>R=193 G=39 B=45</xmpG:swatchName><xmpG:mode>RGB</xmpG:mode><xmpG:type>PROCESS</xmpG:type><xmpG:red>193</xmpG:red><xmpG:green>39</xmpG:green><xmpG:blue>45</xmpG:blue></rdf:li><rdf:li rdf:parseType="Resource"><xmpG:swatchName>R=237 G=28 B=36</xmpG:swatchName><xmpG:mode>RGB</xmpG:mode><xmpG:type>PROCESS</xmpG:type><xmpG:red>237</xmpG:red><xmpG:green>28</xmpG:green><xmpG:blue>36</xmpG:blue></rdf:li><rdf:li rdf:parseType="Resource"><xmpG:swatchName>R=241 G=90 B=36</xmpG:swatchName><xmpG:mode>RGB</xmpG:mode><xmpG:type>PROCESS</xmpG:type><xmpG:red>241</xmpG:red><xmpG:green>90</xmpG:green><xmpG:blue>36</xmpG:blue></rdf:li><rdf:li rdf:parseType="Resource"><xmpG:swatchName>R=247 G=147 B=30</xmpG:swatchName><xmpG:mode>RGB</xmpG:mode><xmpG:type>PROCESS</xmpG:type><xmpG:red>247</xmpG:red><xmpG:green>147</xmpG:green><xmpG:blue>30</xmpG:blue></rdf:li><rdf:li rdf:parseType="Resource"><xmpG:swatchName>R=251 G=176 B=59</xmpG:swatchName><xmpG:mode>RGB</xmpG:mode><xmpG:type>PROCESS</xmpG:type><xmpG:red>251</xmpG:red><xmpG:green>176</xmpG:green><xmpG:blue>59</xmpG:blue></rdf:li><rdf:li rdf:parseType="Resource"><xmpG:swatchName>R=252 G=238 B=33</xmpG:swatchName><xmpG:mode>RGB</xmpG:mode><xmpG:type>PROCESS</xmpG:type><xmpG:red>252</xmpG:red><xmpG:green>238</xmpG:green><xmpG:blue>33</xmpG:blue></rdf:li><rdf:li rdf:parseType="Resource"><xmpG:swatchName>R=217 G=224 B=33</xmpG:swatchName><xmpG:mode>RGB</xmpG:mode><xmpG:type>PROCESS</xmpG:type><xmpG:red>217</xmpG:red><xmpG:green>224</xmpG:green><xmpG:blue>33</xmpG:blue></rdf:li><rdf:li rdf:parseType="Resource"><xmpG:swatchName>R=140 G=198 B=63</xmpG:swatchName><xmpG:mode>RGB</xmpG:mode><xmpG:type>PROCESS</xmpG:type><xmpG:red>140</xmpG:red><xmpG:green>198</xmpG:green><xmpG:blue>63</xmpG:blue></rdf:li><rdf:li rdf:parseType="Resource"><xmpG:swatchName>R=57 G=181 B=74</xmpG:swatchName><xmpG:mode>RGB</xmpG:mode><xmpG:type>PROCESS</xmpG:type><xmpG:red>57</xmpG:red><xmpG:green>181</xmpG:green><xmpG:blue>74</xmpG:blue></rdf:li><rdf:li rdf:parseType="Resource"><xmpG:swatchName>R=0 G=146 B=69</xmpG:swatchName><xmpG:mode>RGB</xmpG:mode><xmpG:type>PROCESS</xmpG:type><xmpG:red>0</xmpG:red><xmpG:green>146</xmpG:green><xmpG:blue>69</xmpG:blue></rdf:li><rdf:li rdf:parseType="Resource"><xmpG:swatchName>R=0 G=104 B=55</xmpG:swatchName><xmpG:mode>RGB</xmpG:mode><xmpG:type>PROCESS</xmpG:type><xmpG:red>0</xmpG:red><xmpG:green>104</xmpG:green><xmpG:blue>55</xmpG:blue></rdf:li><rdf:li rdf:parseType="Resource"><xmpG:swatchName>R=34 G=181 B=115</xmpG:swatchName><xmpG:mode>RGB</xmpG:mode><xmpG:type>PROCESS</xmpG:type><xmpG:red>34</xmpG:red><xmpG:green>181</xmpG:green><xmpG:blue>115</xmpG:blue></rdf:li><rdf:li rdf:parseType="Resource"><xmpG:swatchName>R=0 G=169 B=157</xmpG:swatchName><xmpG:mode>RGB</xmpG:mode><xmpG:type>PROCESS</xmpG:type><xmpG:red>0</xmpG:red><xmpG:green>169</xmpG:green><xmpG:blue>157</xmpG:blue></rdf:li><rdf:li rdf:parseType="Resource"><xmpG:swatchName>R=41 G=171 B=226</xmpG:swatchName><xmpG:mode>RGB</xmpG:mode><xmpG:type>PROCESS</xmpG:type><xmpG:red>41</xmpG:red><xmpG:green>171</xmpG:green><xmpG:blue>226</xmpG:blue></rdf:li><rdf:li rdf:parseType="Resource"><xmpG:swatchName>R=0 G=113 B=188</xmpG:swatchName><xmpG:mode>RGB</xmpG:mode><xmpG:type>PROCESS</xmpG:type><xmpG:red>0</xmpG:red><xmpG:green>113</xmpG:green><xmpG:blue>188</xmpG:blue></rdf:li><rdf:li rdf:parseType="Resource"><xmpG:swatchName>R=46 G=49 B=146</xmpG:swatchName><xmpG:mode>RGB</xmpG:mode><xmpG:type>PROCESS</xmpG:type><xmpG:red>46</xmpG:red><xmpG:green>49</xmpG:green><xmpG:blue>146</xmpG:blue></rdf:li><rdf:li rdf:parseType="Resource"><xmpG:swatchName>R=27 G=20 B=100</xmpG:swatchName><xmpG:mode>RGB</xmpG:mode><xmpG:type>PROCESS</xmpG:type><xmpG:red>27</xmpG:red><xmpG:green>20</xmpG:green><xmpG:blue>100</xmpG:blue></rdf:li><rdf:li rdf:parseType="Resource"><xmpG:swatchName>R=102 G=45 B=145</xmpG:swatchName><xmpG:mode>RGB</xmpG:mode><xmpG:type>PROCESS</xmpG:type><xmpG:red>102</xmpG:red><xmpG:green>45</xmpG:green><xmpG:blue>145</xmpG:blue></rdf:li><rdf:li rdf:parseType="Resource"><xmpG:swatchName>R=147 G=39 B=143</xmpG:swatchName><xmpG:mode>RGB</xmpG:mode><xmpG:type>PROCESS</xmpG:type><xmpG:red>147</xmpG:red><xmpG:green>39</xmpG:green><xmpG:blue>143</xmpG:blue></rdf:li><rdf:li rdf:parseType="Resource"><xmpG:swatchName>R=158 G=0 B=93</xmpG:swatchName><xmpG:mode>RGB</xmpG:mode><xmpG:type>PROCESS</xmpG:type><xmpG:red>158</xmpG:red><xmpG:green>0</xmpG:green><xmpG:blue>93</xmpG:blue></rdf:li><rdf:li rdf:parseType="Resource"><xmpG:swatchName>R=212 G=20 B=90</xmpG:swatchName><xmpG:mode>RGB</xmpG:mode><xmpG:type>PROCESS</xmpG:type><xmpG:red>212</xmpG:red><xmpG:green>20</xmpG:green><xmpG:blue>90</xmpG:blue></rdf:li><rdf:li rdf:parseType="Resource"><xmpG:swatchName>R=237 G=30 B=121</xmpG:swatchName><xmpG:mode>RGB</xmpG:mode><xmpG:type>PROCESS</xmpG:type><xmpG:red>237</xmpG:red><xmpG:green>30</xmpG:green><xmpG:blue>121</xmpG:blue></rdf:li><rdf:li rdf:parseType="Resource"><xmpG:swatchName>R=199 G=178 B=153</xmpG:swatchName><xmpG:mode>RGB</xmpG:mode><xmpG:type>PROCESS</xmpG:type><xmpG:red>199</xmpG:red><xmpG:green>178</xmpG:green><xmpG:blue>153</xmpG:blue></rdf:li><rdf:li rdf:parseType="Resource"><xmpG:swatchName>R=153 G=134 B=117</xmpG:swatchName><xmpG:mode>RGB</xmpG:mode><xmpG:type>PROCESS</xmpG:type><xmpG:red>153</xmpG:red><xmpG:green>134</xmpG:green><xmpG:blue>117</xmpG:blue></rdf:li><rdf:li rdf:parseType="Resource"><xmpG:swatchName>R=115 G=99 B=87</xmpG:swatchName><xmpG:mode>RGB</xmpG:mode><xmpG:type>PROCESS</xmpG:type><xmpG:red>115</xmpG:red><xmpG:green>99</xmpG:green><xmpG:blue>87</xmpG:blue></rdf:li><rdf:li rdf:parseType="Resource"><xmpG:swatchName>R=83 G=71 B=65</xmpG:swatchName><xmpG:mode>RGB</xmpG:mode><xmpG:type>PROCESS</xmpG:type><xmpG:red>83</xmpG:red><xmpG:green>71</xmpG:green><xmpG:blue>65</xmpG:blue></rdf:li><rdf:li rdf:parseType="Resource"><xmpG:swatchName>R=198 G=156 B=109</xmpG:swatchName><xmpG:mode>RGB</xmpG:mode><xmpG:type>PROCESS</xmpG:type><xmpG:red>198</xmpG:red><xmpG:green>156</xmpG:green><xmpG:blue>109</xmpG:blue></rdf:li><rdf:li rdf:parseType="Resource"><xmpG:swatchName>R=166 G=124 B=82</xmpG:swatchName><xmpG:mode>RGB</xmpG:mode><xmpG:type>PROCESS</xmpG:type><xmpG:red>166</xmpG:red><xmpG:green>124</xmpG:green><xmpG:blue>82</xmpG:blue></rdf:li><rdf:li rdf:parseType="Resource"><xmpG:swatchName>R=140 G=98 B=57</xmpG:swatchName><xmpG:mode>RGB</xmpG:mode><xmpG:type>PROCESS</xmpG:type><xmpG:red>140</xmpG:red><xmpG:green>98</xmpG:green><xmpG:blue>57</xmpG:blue></rdf:li><rdf:li rdf:parseType="Resource"><xmpG:swatchName>R=117 G=76 B=36</xmpG:swatchName><xmpG:mode>RGB</xmpG:mode><xmpG:type>PROCESS</xmpG:type><xmpG:red>117</xmpG:red><xmpG:green>76</xmpG:green><xmpG:blue>36</xmpG:blue></rdf:li><rdf:li rdf:parseType="Resource"><xmpG:swatchName>R=96 G=56 B=19</xmpG:swatchName><xmpG:mode>RGB</xmpG:mode><xmpG:type>PROCESS</xmpG:type><xmpG:red>96</xmpG:red><xmpG:green>56</xmpG:green><xmpG:blue>19</xmpG:blue></rdf:li><rdf:li rdf:parseType="Resource"><xmpG:swatchName>R=66 G=33 B=11</xmpG:swatchName><xmpG:mode>RGB</xmpG:mode><xmpG:type>PROCESS</xmpG:type><xmpG:red>66</xmpG:red><xmpG:green>33</xmpG:green><xmpG:blue>11</xmpG:blue></rdf:li></rdf:Seq></xmpG:Colorants></rdf:li><rdf:li rdf:parseType="Resource"><xmpG:groupName>グレー</xmpG:groupName><xmpG:groupType>1</xmpG:groupType><xmpG:Colorants><rdf:Seq><rdf:li rdf:parseType="Resource"><xmpG:swatchName>R=0 G=0 B=0</xmpG:swatchName><xmpG:mode>RGB</xmpG:mode><xmpG:type>PROCESS</xmpG:type><xmpG:red>0</xmpG:red><xmpG:green>0</xmpG:green><xmpG:blue>0</xmpG:blue></rdf:li><rdf:li rdf:parseType="Resource"><xmpG:swatchName>R=26 G=26 B=26</xmpG:swatchName><xmpG:mode>RGB</xmpG:mode><xmpG:type>PROCESS</xmpG:type><xmpG:red>26</xmpG:red><xmpG:green>26</xmpG:green><xmpG:blue>26</xmpG:blue></rdf:li><rdf:li rdf:parseType="Resource"><xmpG:swatchName>R=51 G=51 B=51</xmpG:swatchName><xmpG:mode>RGB</xmpG:mode><xmpG:type>PROCESS</xmpG:type><xmpG:red>51</xmpG:red><xmpG:green>51</xmpG:green><xmpG:blue>51</xmpG:blue></rdf:li><rdf:li rdf:parseType="Resource"><xmpG:swatchName>R=77 G=77 B=77</xmpG:swatchName><xmpG:mode>RGB</xmpG:mode><xmpG:type>PROCESS</xmpG:type><xmpG:red>77</xmpG:red><xmpG:green>77</xmpG:green><xmpG:blue>77</xmpG:blue></rdf:li><rdf:li rdf:parseType="Resource"><xmpG:swatchName>R=102 G=102 B=102</xmpG:swatchName><xmpG:mode>RGB</xmpG:mode><xmpG:type>PROCESS</xmpG:type><xmpG:red>102</xmpG:red><xmpG:green>102</xmpG:green><xmpG:blue>102</xmpG:blue></rdf:li><rdf:li rdf:parseType="Resource"><xmpG:swatchName>R=128 G=128 B=128</xmpG:swatchName><xmpG:mode>RGB</xmpG:mode><xmpG:type>PROCESS</xmpG:type><xmpG:red>128</xmpG:red><xmpG:green>128</xmpG:green><xmpG:blue>128</xmpG:blue></rdf:li><rdf:li rdf:parseType="Resource"><xmpG:swatchName>R=153 G=153 B=153</xmpG:swatchName><xmpG:mode>RGB</xmpG:mode><xmpG:type>PROCESS</xmpG:type><xmpG:red>153</xmpG:red><xmpG:green>153</xmpG:green><xmpG:blue>153</xmpG:blue></rdf:li><rdf:li rdf:parseType="Resource"><xmpG:swatchName>R=179 G=179 B=179</xmpG:swatchName><xmpG:mode>RGB</xmpG:mode><xmpG:type>PROCESS</xmpG:type><xmpG:red>179</xmpG:red><xmpG:green>179</xmpG:green><xmpG:blue>179</xmpG:blue></rdf:li><rdf:li rdf:parseType="Resource"><xmpG:swatchName>R=204 G=204 B=204</xmpG:swatchName><xmpG:mode>RGB</xmpG:mode><xmpG:type>PROCESS</xmpG:type><xmpG:red>204</xmpG:red><xmpG:green>204</xmpG:green><xmpG:blue>204</xmpG:blue></rdf:li><rdf:li rdf:parseType="Resource"><xmpG:swatchName>R=230 G=230 B=230</xmpG:swatchName><xmpG:mode>RGB</xmpG:mode><xmpG:type>PROCESS</xmpG:type><xmpG:red>230</xmpG:red><xmpG:green>230</xmpG:green><xmpG:blue>230</xmpG:blue></rdf:li><rdf:li rdf:parseType="Resource"><xmpG:swatchName>R=242 G=242 B=242</xmpG:swatchName><xmpG:mode>RGB</xmpG:mode><xmpG:type>PROCESS</xmpG:type><xmpG:red>242</xmpG:red><xmpG:green>242</xmpG:green><xmpG:blue>242</xmpG:blue></rdf:li></rdf:Seq></xmpG:Colorants></rdf:li><rdf:li rdf:parseType="Resource"><xmpG:groupName>Web カラーグループ</xmpG:groupName><xmpG:groupType>1</xmpG:groupType><xmpG:Colorants><rdf:Seq><rdf:li rdf:parseType="Resource"><xmpG:swatchName>R=63 G=169 B=245</xmpG:swatchName><xmpG:mode>RGB</xmpG:mode><xmpG:type>PROCESS</xmpG:type><xmpG:red>63</xmpG:red><xmpG:green>169</xmpG:green><xmpG:blue>245</xmpG:blue></rdf:li><rdf:li rdf:parseType="Resource"><xmpG:swatchName>R=122 G=201 B=67</xmpG:swatchName><xmpG:mode>RGB</xmpG:mode><xmpG:type>PROCESS</xmpG:type><xmpG:red>122</xmpG:red><xmpG:green>201</xmpG:green><xmpG:blue>67</xmpG:blue></rdf:li><rdf:li rdf:parseType="Resource"><xmpG:swatchName>R=255 G=147 B=30</xmpG:swatchName><xmpG:mode>RGB</xmpG:mode><xmpG:type>PROCESS</xmpG:type><xmpG:red>255</xmpG:red><xmpG:green>147</xmpG:green><xmpG:blue>30</xmpG:blue></rdf:li><rdf:li rdf:parseType="Resource"><xmpG:swatchName>R=255 G=29 B=37</xmpG:swatchName><xmpG:mode>RGB</xmpG:mode><xmpG:type>PROCESS</xmpG:type><xmpG:red>255</xmpG:red><xmpG:green>29</xmpG:green><xmpG:blue>37</xmpG:blue></rdf:li><rdf:li rdf:parseType="Resource"><xmpG:swatchName>R=255 G=123 B=172</xmpG:swatchName><xmpG:mode>RGB</xmpG:mode><xmpG:type>PROCESS</xmpG:type><xmpG:red>255</xmpG:red><xmpG:green>123</xmpG:green><xmpG:blue>172</xmpG:blue></rdf:li><rdf:li rdf:parseType="Resource"><xmpG:swatchName>R=189 G=204 B=212</xmpG:swatchName><xmpG:mode>RGB</xmpG:mode><xmpG:type>PROCESS</xmpG:type><xmpG:red>189</xmpG:red><xmpG:green>204</xmpG:green><xmpG:blue>212</xmpG:blue></rdf:li></rdf:Seq></xmpG:Colorants></rdf:li></rdf:Seq></xmpTPg:SwatchGroups></rdf:Description><rdf:Description xmlns:pdf="http://ns.adobe.com/pdf/1.3/"><pdf:Producer>Adobe PDF library 10.01</pdf:Producer></rdf:Description></rdf:RDF></x:xmpmeta><?xpacket end="w"?></metadata><g fill="#4A1F00"><path d="M21.943 10.915c.88.792 1.65 1.122 2.618 1.122.616 0 1.188-.066 2.201-.286.022-.638.022-1.628.022-2.024 0-2.311-.264-2.772-1.782-3.037.308-.242.484-.308.946-.308.748 0 1.672.22 2.267.55.286.154.484.462.484.704 0 .132 0 .132-.242.572-.352.638-.572 1.672-.682 3.278 1.166-.396 1.694-.682 2.398-1.276.176-.132.396-.22.528-.22.198 0 .572.088.836.198.22.088.374.286.374.484 0 .308-.198.484-.99.858-.99.462-2.024.814-3.212 1.078-.022.308-.022.308-.066 1.1-.022.594-.066 1.562-.088 2.882 2.464-.88 4.048-1.209 5.831-1.209 3.015 0 4.907 1.43 4.907 3.762 0 2.156-1.65 3.828-3.762 3.828-2.024 0-3.477-1.342-4.247-3.895l.33-.109c.528 1.012.858 1.475 1.32 1.914.616.572 1.298.836 2.09.836 1.606 0 2.75-1.254 2.75-3.014 0-1.695-1.144-2.619-3.256-2.619-1.738 0-3.829.55-5.963 1.583 0 2.333 0 2.333.022 2.993.022.418.022.659.022.836 0 .528-.088.946-.286 1.298-.264.506-.682.814-1.056.814-.308 0-.308 0-1.65-1.188-.462-.375-1.1-.814-1.474-.99-.484-.221-.726-.551-.726-.925 0-.353.22-.792.66-1.231.814-.837 1.563-1.32 3.499-2.268.022-.308.022-.638.044-1.056.044-.99.044-.99.11-3.168-.682.11-1.188.154-1.716.154-1.408 0-2.354-.506-3.279-1.804l.218-.217zm2.421 8.911c-.44.463-.66.814-.66 1.057 0 .221.286.462.88.682.484.199 1.079.353 1.364.353.264 0 .374-.153.396-.55.11-1.98.154-3.059.154-3.19-1.034.636-1.584 1.054-2.134 1.648zm9.813-11.133c1.343.066 2.332.307 3.235.792.968.528 1.54 1.254 1.54 1.936 0 .396-.264.638-.66.638-.044 0-.154 0-.33-.044-.308-.044-.396-.044-.462-.044-.33 0-.858.11-2.707.594l-.132-.22c1.32-.682 2.09-1.144 2.398-1.408-.352-.616-.704-.968-1.386-1.364-.44-.242-.792-.374-1.518-.573l.022-.307zm22.418 8.976v2.487h6.271c.616-.748.814-.968 1.452-1.693.924.77 1.188 1.033 2.046 1.893a.265.265 0 01.088.197c0 .044-.088.11-.176.11h-9.659c.044 3.015.044 3.015.066 4.048 0 .177-.044.242-.154.287-.132.021-.814.088-1.232.088-.22 0-.286-.045-.286-.221.022-.748.066-2.156.088-4.202h-6.601c-.946 0-1.65.065-2.156.176l-.11-.88c.704.154 1.298.197 2.267.197H55.1c0-.945 0-.945.022-2.486h-4.445v.814c0 .309-.198.352-1.232.352-.264 0-.375-.065-.375-.264.088-1.716.11-2.574.11-4.532 0-2.134-.022-3.103-.11-4.445.727.418.968.528 1.65.968h4.401V8.23h-6.623c-.704 0-1.21.044-1.628.176l-.088-.858c.528.132.968.176 1.716.176h6.623c-.022-1.804-.022-1.804-.132-2.86.506.044.902.066 1.145.088 1.1.066 1.386.154 1.386.374 0 .198-.198.308-.902.506-.022.968-.022 1.123-.022 1.893h5.941c.528-.682.682-.88 1.276-1.541.924.749 1.21.968 2.068 1.76.088.088.11.132.11.176 0 .066-.066.11-.198.11h-9.197v2.333h4.577c.374-.418.484-.55.902-.968.572.396.749.528 1.364.968.154.132.22.198.22.286 0 .176-.176.308-.88.638v1.32c0 2.156.022 3.763.11 5.347 0 .154-.022.221-.088.264-.132.088-.572.154-1.188.154-.22 0-.286-.044-.308-.197v-.705h-4.71zm-1.474-4.862v-1.738h-4.445v2.685h4.445v-.947zm0 1.452h-4.445v2.904h4.445v-2.904zm6.182-3.19h-4.708v2.685h4.708v-2.685zm0 3.19h-4.708v2.904h4.708v-2.904zm12.671-5.478c1.056.836 1.562 1.034 2.75 1.034.704 0 1.342-.088 2.354-.286.484-.946.77-1.76.77-2.244 0-.594-.418-.946-1.562-1.232.374-.198.572-.242.99-.242.506 0 1.144.132 1.716.374.55.22.792.462.792.727 0 .154-.088.308-.352.638-.198.264-.462.66-.638.902-.396.638-.396.638-.55.858 1.848-.528 2.442-.792 3.168-1.408a.617.617 0 01.418-.154c.858 0 1.474.308 1.474.726 0 .264-.286.484-.946.704-1.958.638-3.014.902-4.796 1.254-.396.55-.66.946-1.167 1.716-.594.924-.77 1.167-1.188 1.76 1.232-.638 2.002-.88 2.838-.88 1.298 0 2.266.88 2.464 2.2.374-.176.374-.176 2.156-1.078 2.178-1.1 2.707-1.452 2.707-1.848 0-.374-.374-.77-1.012-1.034.242-.11.352-.132.506-.132.968 0 2.486 1.342 2.486 2.222 0 .396-.176.55-.792.682-1.32.308-4.181 1.408-5.897 2.267.022.703.022.836.022 1.781 0 .99-.066 1.673-.176 1.893a.698.698 0 01-.616.418c-.418 0-.704-.285-.704-.66 0-.109 0-.22.022-.373.088-.639.132-1.387.154-2.355-1.364.748-2.002 1.189-2.575 1.738-.726.705-1.078 1.387-1.078 2.047 0 1.188 1.21 1.76 3.675 1.76 1.54 0 3.081-.22 4.422-.615.154-.045.308-.066.418-.066.682 0 1.54.616 1.54 1.1 0 .287-.242.507-.682.595-.902.176-2.574.308-3.938.308-2.068 0-3.586-.22-4.467-.638-1.122-.528-1.628-1.255-1.628-2.333 0-1.033.506-1.979 1.584-3.014.572-.551 1.276-1.057 2.729-1.958-.022-.924-.088-1.276-.308-1.738-.198-.396-.638-.66-1.122-.66-1.452 0-3.19 1.167-4.775 3.191-.418.572-.594.703-.814.703-.352 0-.594-.461-.594-1.166 0-.461.022-.483.638-.99 1.562-1.232 2.53-2.376 4.093-4.73-.727.11-1.012.132-1.475.132-1.496 0-2.266-.396-3.278-1.694l.244-.202zm26.972 7.987c-.044.483-.066.682-.066.989 0 2.619 1.65 3.852 5.192 3.852 1.738 0 3.565-.309 4.863-.793a.852.852 0 01.374-.088c.33 0 .837.198 1.211.44.309.242.484.506.484.771 0 .33-.242.572-.705.682-1.012.264-3.168.439-5.126.439-2.464 0-4.027-.308-5.127-1.056-1.1-.704-1.826-2.091-1.826-3.454 0-.551.11-1.123.352-1.871l.374.089zm.682-8.691c1.122.748 1.892.968 3.366.968 1.452 0 3.301-.264 4.577-.66.154-.044.33-.088.396-.088.572 0 1.32.66 1.32 1.145 0 .374-.132.462-1.606.77-.858.176-1.056.264-3.212 1.078-.528.22-.528.22-1.805.748-.44.198-.44.198-.858.352l-.154-.33c.682-.396 1.034-.616 1.606-.924 1.496-.814 1.496-.814 1.848-1.034-.484.044-1.254.066-1.65.066-.814 0-1.827-.242-2.508-.594-.572-.308-.924-.594-1.541-1.276l.221-.221zm9.923-1.474c2.135.858 3.322 1.826 3.322 2.728 0 .572-.264 1.101-.571 1.101-.154 0-.286-.132-.44-.44-.638-1.276-1.342-2.2-2.441-3.168l.13-.221zm1.98-1.321c1.211.374 2.047.77 2.707 1.254.484.375.66.66.66 1.167 0 .66-.198 1.144-.484 1.144-.176 0-.309-.154-.506-.528-.572-1.034-1.364-1.937-2.509-2.816l.132-.221zm15.201 5.963h1.693c.44-.638.572-.814 1.035-1.386.77.682 1.012.88 1.76 1.584.066.066.088.132.088.176 0 .066-.109.132-.242.132h-4.334v2.156c1.386.616 1.958.924 2.706 1.453.748.528.99.836.99 1.364 0 .792-.286 1.408-.66 1.408-.154 0-.242-.088-.353-.33-.373-.836-.99-1.805-1.562-2.42-.308-.352-.528-.55-1.122-.99v3.323c0 2.552 0 2.618.109 6.931 0 .132-.044.198-.154.22-.153.066-.791.133-1.166.133-.176 0-.22-.045-.242-.221.066-2.948.066-2.948.088-7.063l.111-4.291c-1.497 3.19-2.575 4.841-4.709 7.15l-.242-.197c1.32-1.98 2.002-3.19 2.926-5.171.639-1.364.858-1.936 1.299-3.455h-2.553c-.396 0-.748.022-1.21.11l-.132-.771c.638.11 1.034.154 1.563.154h2.859V7.769c-1.826.396-2.464.506-4.114.682l-.088-.33a34.938 34.938 0 004.973-1.694c1.255-.506 1.673-.726 2.464-1.276 1.255.814 1.85 1.298 1.85 1.475 0 .088-.111.176-.265.176-.088 0-.55-.088-.925-.176-1.1.418-1.451.528-2.441.792v3.827zm7.856-3.983c0 .154-.111.22-.814.506.021 8.956.021 8.956.088 11.86 0 .109-.045.154-.133.197-.176.066-.791.133-1.209.133-.177 0-.242-.045-.242-.221.021-1.539.021-1.539.021-2.046 0-8.009-.021-9.659-.109-11.001 2.265.309 2.398.352 2.398.572zm2.992.397c-.022-.726-.045-1.254-.088-2.376 1.892.286 2.068.308 2.244.374.176.043.264.131.264.241 0 .176-.154.264-.88.55V18.33c0 .198.044 1.761.11 4.643 0 .595-.11.859-.529 1.188-.483.374-.989.55-2.002.727-.088-.595-.22-.837-.594-1.078-.221-.132-.792-.308-1.452-.44l-.792-.132-.66-.132.021-.375c.99.066.99.066 2.398.133.969.021.969.021 1.65.066.309 0 .374-.066.374-.353v-.065l-.064-14.853zm12.582 8.844a14.46 14.46 0 01-1.387 4.555c-.836 1.672-1.693 2.751-3.124 3.917l-.242-.22c1.452-1.783 2.267-3.521 2.816-5.875.396-1.694.506-2.75.572-5.875.022-1.034.065-4.049.065-4.929a29.17 29.17 0 00-.109-2.838c.792.462 1.033.616 1.76 1.122h11.771a13.4 13.4 0 01.902-1.034c.616.44.793.572 1.387 1.034.176.132.264.22.264.308 0 .154-.132.242-.814.66V17.56c0 1.914 0 2.772.045 5.589-.066.55-.199.748-.683 1.012-.396.22-.902.374-1.937.55-.308-1.298-.484-1.408-2.926-1.716v-.33c.813.044.813.044 2.09.11.792.044.792.044 1.43.066h.176c.22 0 .264-.066.264-.309v-6.029h-5.435v2.002c.021 1.431.021 1.431.021 2.641.022 1.057.022 1.057.045 1.893-.022.33-.221.44-.881.463h-.307c-.308 0-.44-.111-.44-.353.022-1.343.045-3.763.045-4.644v-2.002h-5.368zm5.369-5.038h-5.149c-.022 2.068-.044 3.213-.153 4.533h5.303v-4.533zm0-4.599h-5.149c.022.462.022.858.022 1.056 0 .176 0 .682-.022 1.364v1.672h5.149V6.866zm6.952 4.093V6.866h-5.435v4.093h5.435zm0 5.039v-4.533h-5.435v4.533h5.435zm18.964 6.843c2.376-.705 3.895-1.607 5.148-3.059 1.298-1.475 1.958-3.279 1.958-5.303 0-2.134-.858-3.829-2.486-4.863-.968-.638-2.421-1.012-3.807-1.012-.265 0-.418 0-.771.044.528.771.683 1.188.683 1.827 0 1.716-1.232 4.929-2.904 7.612-1.386 2.201-2.464 3.279-3.278 3.279-.375 0-.727-.176-.969-.463-.197-.264-.242-.352-.615-1.408-.199-.571-.33-.836-.969-2.068-.352-.703-.506-1.297-.506-2.001 0-1.386.748-3.015 1.98-4.357 1.781-1.892 4.687-3.08 7.568-3.08 2.223 0 4.27.726 5.678 2.024 1.408 1.298 2.111 3.037 2.111 5.171 0 2.75-1.605 5.193-4.379 6.667-1.275.682-2.42 1.033-4.29 1.363l-.152-.373zm-7.24-6.843c0 1.057.33 2.135.881 2.904.309.396.594.639.836.639.484 0 1.54-1.188 2.618-2.904 1.628-2.597 2.794-5.435 2.794-6.799 0-.33-.065-.55-.307-1.1-3.829.681-6.822 3.871-6.822 7.26zm39.537-6.733c.572-.748.748-.968 1.32-1.694a57.26 57.26 0 012.156 1.827c.088.088.131.154.131.22 0 .088-.109.154-.264.154h-10.891c-.022 1.562-.089 2.354-.265 3.608h6.227c.353-.484.462-.616.837-1.056.615.462.813.616 1.408 1.056.22.198.285.286.285.352 0 .132 0 .132-.77.66-.33 4.203-.793 7.019-1.364 8.338-.55 1.232-1.056 1.497-3.366 1.805-.133-1.232-.375-1.342-4.049-2.023v-.309c2.023.198 4.269.374 5.082.374.463 0 .617-.065.793-.286.572-.814 1.144-4.555 1.298-8.405h-6.469c-.396 2.156-.88 3.608-1.694 5.062a12.967 12.967 0 01-4.467 4.664c-.704.418-1.145.66-2.223 1.1l-.176-.373c2.178-1.255 3.498-2.465 4.665-4.225 1.782-2.686 2.552-5.743 2.64-10.342h-4.973c-.55 0-.726.022-1.936.154l-.221-.88c.265.044.463.066.594.088.925.11 1.145.132 1.585.132h6.601V6.69c0-.44-.043-.814-.132-1.584 2.024.198 2.597.33 2.597.594 0 .132-.154.22-.946.506v3.058h5.987z"/></g><line fill="none" stroke="#9B8628" stroke-width="3" stroke-miterlimit="10" x1="1.5" y1="0" x2="1.5" y2="30"/></svg>