<svg version="1.1" baseProfile="tiny" id="レイヤー_1" xmlns="http://www.w3.org/2000/svg" x="0" y="0" width="244.872" height="30" viewBox="0 0 244.872 30" xml:space="preserve"><metadata><?xpacket begin="﻿" id="W5M0MpCehiHzreSzNTczkc9d"?><x:xmpmeta xmlns:x="adobe:ns:meta/" x:xmptk="Adobe XMP Core 5.3-c011 66.145661, 2012/02/06-14:56:27"><rdf:RDF xmlns:rdf="http://www.w3.org/1999/02/22-rdf-syntax-ns#"><rdf:Description xmlns:dc="http://purl.org/dc/elements/1.1/"><dc:format>image/svg+xml</dc:format><dc:title><rdf:Alt><rdf:li xml:lang="x-default">Web</rdf:li></rdf:Alt></dc:title></rdf:Description><rdf:Description xmlns:xmp="http://ns.adobe.com/xap/1.0/" xmlns:xmpGImg="http://ns.adobe.com/xap/1.0/g/img/"><xmp:CreatorTool>Adobe Illustrator CS6 (Windows)</xmp:CreatorTool><xmp:CreateDate>2017-07-12T13:59:46+09:00</xmp:CreateDate><xmp:ModifyDate>2017-07-12T13:59:46+09:00</xmp:ModifyDate><xmp:MetadataDate>2017-07-12T13:59:46+09:00</xmp:MetadataDate><xmp:Thumbnails><rdf:Alt><rdf:li rdf:parseType="Resource"><xmpGImg:width>256</xmpGImg:width><xmpGImg:height>32</xmpGImg:height><xmpGImg:format>JPEG</xmpGImg:format><xmpGImg:image>/9j/4AAQSkZJRgABAgEASABIAAD/7QAsUGhvdG9zaG9wIDMuMAA4QklNA+0AAAAAABAASAAAAAEA AQBIAAAAAQAB/+4ADkFkb2JlAGTAAAAAAf/bAIQABgQEBAUEBgUFBgkGBQYJCwgGBggLDAoKCwoK DBAMDAwMDAwQDA4PEA8ODBMTFBQTExwbGxscHx8fHx8fHx8fHwEHBwcNDA0YEBAYGhURFRofHx8f Hx8fHx8fHx8fHx8fHx8fHx8fHx8fHx8fHx8fHx8fHx8fHx8fHx8fHx8fHx8f/8AAEQgAIAEAAwER AAIRAQMRAf/EAaIAAAAHAQEBAQEAAAAAAAAAAAQFAwIGAQAHCAkKCwEAAgIDAQEBAQEAAAAAAAAA AQACAwQFBgcICQoLEAACAQMDAgQCBgcDBAIGAnMBAgMRBAAFIRIxQVEGE2EicYEUMpGhBxWxQiPB UtHhMxZi8CRygvElQzRTkqKyY3PCNUQnk6OzNhdUZHTD0uIIJoMJChgZhJRFRqS0VtNVKBry4/PE 1OT0ZXWFlaW1xdXl9WZ2hpamtsbW5vY3R1dnd4eXp7fH1+f3OEhYaHiImKi4yNjo+Ck5SVlpeYmZ qbnJ2en5KjpKWmp6ipqqusra6voRAAICAQIDBQUEBQYECAMDbQEAAhEDBCESMUEFURNhIgZxgZEy obHwFMHR4SNCFVJicvEzJDRDghaSUyWiY7LCB3PSNeJEgxdUkwgJChgZJjZFGidkdFU38qOzwygp 0+PzhJSktMTU5PRldYWVpbXF1eX1RlZmdoaWprbG1ub2R1dnd4eXp7fH1+f3OEhYaHiImKi4yNjo +DlJWWl5iZmpucnZ6fkqOkpaanqKmqq6ytrq+v/aAAwDAQACEQMRAD8A7L+Sn/HAvv8AmK/5lpmo 7G/uz73I1PMPRM27jqd1cJbW01w6u6Qo0jJEjSSEKKkIiAszGmyqKnEqAkM3n/y5BH6lx9egQKJC ZdN1GOikgVPO3FNyBv3yHiD8As/DP4IQbfmp5QTUzYyy3MAWwk1SS6uLW4ggW1iYKXLTIjblvhIW hO1eRAI8WNp8KVWyizvLS9tIbu0mS4tbhFkgnjYMjowqrKw2IIyYNsCKSbzJ530bQNR0rTLpZ7jU NYlaKztLSIzy8Y15SSsi/EI0H2iK/LrSMpgEDvZRxkgnuXReevKMsYkj1SBkboQT8vDHxI96+HLu VPLfm3RvMS3h01pT9SmMEwmieIkgkK6cwOSPSqsMMZiXJEoGPNb5r812Xlu2sZ7m3num1G9g021h thGXM9ySsdfVeJAtRueWM58KYQ4kHrv5i6Bo9zqVtMlzcy6Vp7apd/VYTKiwqXHAyVEayH0morst cjLIAmOMmvNfpfn7RNS1Sy0uCO5+u3tmL4oIvVSCNiQqXEsJljiclGoGbtStaDCMgJpBxkC2SZNg lfmPzPonluwGo61cG0seaxtc+lLJGjOeK+o0avwUsacmoK7VyMpCIssoxMjQTNWVlDKQVIqCNwQc kxbxV2KrLieG3gkuJ3EcMKtJLIxoqqoqzE+AAxVKdI836Dqup3OmWlxyvraNZzCRtJbuaR3ELiqS xP2ZGO+xodsiJgmmRgQLTDUNT07TbV7zUbqGztI93uLiRYo1+bOQMJIHNABPJj2ifmd5Q1qS+axu ZDY6fGZZtVlhlisWRKeoUuZFWM8Kjlv7ioyEcsSzlikEdf8AnTQLOXRY/WN0uvzehpktoPXjkPHn y5x1HDjvy6YTMCvNAgTfknmTYMXsPzL8nX2mDU4LyT6nR2eVre4Cp6RKycm4FRwKmu9MrGWJFthx SBp19+Znk6z0eTV5LyR9Pji9cTx29wytGRVWRuHEhq7GtMTliBajFImmQ2F9a39jb31o/qWt1Gs0 EhVl5I4DKeLAMKg9CMmDbAilfCh2KuxV2KpNrPmvT9J1nRtHninlvNdklishCgZQYEEkhkJZeKqh 5VoemRlMAgd7KMCQT3JzUff0yTF53+Sn/HAvv+Yr/mWmajsb+7PvcjU8w9EzbuOlnmTULiw0mWe3 Zo5qqqSJZ3OoFSxpX6tafvX28KDxORkaDKIsvnLzHcaPdaZ+ZF5rL6jqmsxCC103VLvT72IxRFEk 9JlEKRWimVjRZAtfetThSqpXzc2N3GuSa/mPqelaxeaZqGhxXkMvlO1hh1mOXT5FRILvi1rJ9Wuo 1EqQzxK7IUBZfiT7PJZZCDRHRjiBFg9Xs/5d+ZV8y+VLbWUaN4Z5bhIGiX0wYoJ3hRihJKl1jD8T 0rTMrHLiFuNkjwmnnut3N7a/mXBo/l3UILzz1dRvea1qN0sfGKxhQvDpttExYRCUkE0PMD42Y5TI +qh9X42boj0Wfp/G7O9c83a/omhXmtX2hKtrYQPcXCJeI0gRByYAenxJ+nLZTIF00xgCatf5X1zz dq91HfXem2lr5bvbSG40+RLhpLsPIoekqcFShDbcTtTvXZjKR9yzjEdd3nn/ADkPcT2995Tggu76 SW81a3mXT7Z4kCrauq+pCxj5JKZJ0Cszca9sp1B5e9u0w5+5hmo6Nc3umanqOh6Vrt15YntriSGW 8ZY2mu7rT3gOoSFGSSRFogI4nnydmPRTWRYJANfsbRKiASL/AG8kboAurvzJpupWujvFp9q2n6q2 lSXCwNcyX0UVidQh4lOS1VWQHY/Hy3aimPO6RLYEX+O59IMAylTWhFDQkH7xma4LwnzI8Ova7daH J5h1vVfJvl6l1q8trBBPwuYiHihW6jg5v9XALyc3ZzsKFgWGJLc1Z4Q5cdhdASKcr5w8l+Tobe08 hQS+Z9W1eeG71G2t5Li+u5YJV3uJZmMgjfiwIEnGvt1yXHGP07kseCUvq2AeuqaqDQiorQ9RmS4y WeYtEi1bT2j/AHi3UNZLOWG4ls5Fl4kAevDV1Vq0b4WFP2TkZRsMoyosL8u/lNrFtqlvq+vecNY1 C5tZRNb2Md1ItogB+w4fk03gzfDyHbKo4jdkltlmFUAGV+XPJPl3y7JcSaXaiJ7iaaYMQCYluWV5 IYTQFIS6B+A2rlkYAcmuUzLmxz822Gn6DqGuS6Zpt7FbWRghkuYy14Jp2MSJCwR9maRaDxyGbYWz w7mrLAfKt/r95+SV2trqOmyaHY+WtQt7/To+b3qTG3ldHdtghpT4SKEGtelKYEnH5U3TAGTrdsku QBJ+ToHT4f8AulnLD/B+OjAfx/jq9azIcZ4n5GtvMB/Ie7ltb2yisHtdZZoXs5HmIE9yGrMtzGtT TY+ntt1pmLAHw/m5eQjxPk7XbfzIP+cc43e/s2sP8P2ZFuLOUTen6EXFfWN0V5AdW9P6MZX4XwRG vF+L2PTP+Obaf8YY/wDiIzJHJxjzYXPeav5w83anolpeS6d5Y0Fo4NUntWMVze3ciCRrdJl+OKKJ GXmyUYk0BplVmRroG2hGIPUpX5J8peVfMH+ItQhszDYNqclvo2oQTTJc8LWGK3kmiuVf1OLXEcjL 8VD36mohAGz5spzIoeSd/lrr+q3M2veW9YuDe6l5ZvBa/pAgK1xbTJ6ltJJxAX1OHwvTwr3yWOR3 B6MMsRsR1ZJqOhR310Lhr29gpGI/Rt7h4ozQk8iq/tb0rkzG2AlTyeZbWX83NUtr+XWr+18s29sd NNp9auZLe5v4SZmLwhmHOHajfRmP/GeezkfwCq3Ti3XyX5s81jy/P/iAajo0ceqQyXcl5bJE5Yor CrIwcA7cl3BND1yY4ZGt9mJ4oi9t0d+Sn/HAvv8AmK/5lpmv7G/uz711PMPRM27jqN7e2ljZz3t5 KsFpbRtLPM5oqIg5MxPgAMBNJAt4f5k068X8kPPGv3sLW1z5mvG1SO3kHGSK2e4hjtkcbfF6SBj/ AK2Ysh+7J73Kif3kR3IT82/L8+n+YdM8zyCJtFv7G3hnF6jy6empWoYWzXqIQRG8UrRo/wCw25wZ o0QeicMrBHV7B5G1u317y2upWiRxWM1xdx2foCimKG5khWQbf7s9PnX3zJhKxbjZI0aYlb6Hpejf nNo1pp8IiV9Evpp3JLyyyvcxcpZpGJeR27sxrlfCBMV3NnETA33p5+bl3ar+W/meFpoxN+jrgemW HKpjNNq1yWY+kscI9QTfyP8A8oV5f/7Ztn/yYTJw+kMcn1H3sJ/M3RjHruja5eSK0s2u6Fp+mRry PpwLdrPKW2oHllrXtxRO+2VZY7g+YbcUtiPIsbn0W0j83a7rENlbzeRbG7tdKvY7q5lhijVVIvrm BjIF/cSOqOpB5UIFCMr4dyf4WfF6QP4mGeW7Xy3bXk0HmJI10fQ7SWbQrK6hljutchkuH+qyL64X hRQqIEoankdq5XEDryH2tsienM/Y+pgnKII6gVWjKCSOm4B2OZ7r3l/mLS9I08w/l7p19F5X0H9G yXK0mFvLezSO0awCd6txBHOcg825KK0rmPIAekbByIkn1Hc2m/5Z3PlLQfL+jeVItT0r9PJaoLu0 sp4WeSdEAleiEM5qD8RFTk8RAAG1scokSZUaZ3lrSxDzV5uPlXX4L7WPVTytc2pikvYo5JktrtJO QacRhmVJUagelAV365XOfCd+TbCHENuaWaj+f35TWMYc66lyzU4xW0U0rGv+qlB9JyJ1EB1SNPM9 Ge2l1Bd2sN1AS0FxGssTFWQlHAZSVYBhsehFcuBaiKY55p0C41fUIZr3iNG0iN7y3gBqZ77i6xu4 7Jbr8Sju7A/sCtco2fIM4SoeZYJ5D/L+y1f8qbXULL9xruqeWbnRQ7OUt3E4b0nnVVYkxtsG3opO x2pVjx3C+tU3ZMlTrpdovXxFpur/AJU6c08VxPY3P1SYwOGXmtgYSw6Hjy8RhlsYhjHcSL0Lzbrs WgeWdT1iQ/7xW7yRrSpeWlIkA7l5Cqj3OXTlQtphGyA86sfyt0TRPydkgv7Our22j3Ety/qSDjcN C8rDirBfgdqdN6ZSMQEN+dN5ykz25WkGtaB5NX/nH5LyNYv0qNBs5XIncuJXhjJrHzpua7UyEox8 PzpnGUvE8re26HN6+i6fNTj6ttC/GtacowaVzKjycSXN515q0X8wrXWtX0fylaxppfm90ubrXGcL +jpTEtvdsI/tO0kUUbRkftE/RTOMrIHVvhKNAy6faySXWPKXkHQbPQrUtNPZwLFp2i2o9e+nIFBx hSrEuxqzkBampOTsQFMOGUzaE/Kvytrel2+r675iUReYPMt2b29tUYOtvGBxgt+Q2YxqdyPl2rgx RIsnmU5Zg0ByDJ/MXmHTPL+kzanqMhWCIUSNRyklkbZIYk6vJI3wqo6nJykALLXGJJoMQ8gJbaBb 32o+ar2107zR5num1K7sZ7iJXhjeqW1uvIqWEUa8a/zVyvHtueZbMm+w5BD+QLiDWPzQ8965bSJP Yxfo/TLS5jIZWaGFnuArDwdx0ODGbnIpyCoRCK/Jq2uINCvVnieJjdVCupUkemvjmB2REjGbHVOo O7P82zjoe/06x1CAQXsK3EAdJfSfdC0bBkLL0ajAGh74CLSDSlrOjaZrWmT6Xqlut1YXICz271Cs FYMK8SD1UYyiCKKxkQbCvPY2VxZtZXEEc1m6elJbyKHjZKU4srVBFOxxpbQ2iaDo2haeunaPZx2N kjM628I4qGc8mP0nGMQBQWUiTZWv5e0d/MEXmF7eusQ2zWUd1zfaB39Rk4cuH2hWvGvvg4Rd9U8R quiC8zeQ/J/mhEXXtKgvjG6yJIwKSclFB+8jKuVp1Umh8MEscZcwmOSUeRTuGGGCGOCFFjhiUJFG gCqqqKKoA6ADJsEBrnl3SdcjtI9ShMyWN1FfWvGR4ylxASYnrGyn4SenTIyiDzZRkRyUU8n+WEFm P0bAyacoWxideccNCTzjjaqLISxq4HI9zjwBeM97Xmbyd5Z80W0Vvr2nx30cDiSBm5JJGw7pIhV1 rTeh3xlAS5rGZjyTnJMUHqmi6Nq8At9VsLfULcGohuokmQHx4yBhgMQeaRIjkgdO8keS9Mu0vNN0 DTbK7jr6dxbWkEUi12NHRFYYBCI5BkckjzJTrJMHYqox2VnG/qRwRpJ/OqKDv7gYKTathQsmhSaG SGSpSRSjgEg0YUO43xVCaFomnaFo9ppGmxmKwsoxFbxlmchRvuzEk4IxAFBMpEmylY/LzyUvmWDz KmkW8etWyFIbqNfTpUEFiiFUZ6NTkylvfI+HG7rdl4kqq9k3v9KsNQa2N5F6wtJluYEYniJUB4OV Bo3GtVr0O/UDJEWxBIRMsUcsbxSoJIpAVdGAKspFCCDsQRhQknmDyJ5P8w2sFrrGk291BbOrwIV4 cSgKqAUKnjQ049PbISxxPMM45JR5FPERERURQqKAFUCgAGwAAybBvFVojjV2dVAd6c2AFTTpU+2K rsVQM+iaVcapBqlxbrNfWycLWWQlxECSS0SMSiO1aF1AYjYmmDhF2niNUq6npen6pYT6fqNul1ZX KGOeCQVVlYUIxIB2KgkGwh9B8u6H5f09dO0WyisLJWL+jCvEFjSrN3ZjTqcEYgCgmUiTZf/Z</xmpGImg:image></rdf:li></rdf:Alt></xmp:Thumbnails></rdf:Description><rdf:Description xmlns:xmpMM="http://ns.adobe.com/xap/1.0/mm/" xmlns:stRef="http://ns.adobe.com/xap/1.0/sType/ResourceRef#" xmlns:stEvt="http://ns.adobe.com/xap/1.0/sType/ResourceEvent#"><xmpMM:RenditionClass>proof:pdf</xmpMM:RenditionClass><xmpMM:OriginalDocumentID>uuid:65E6390686CF11DBA6E2D887CEACB407</xmpMM:OriginalDocumentID><xmpMM:DocumentID>xmp.did:6302F40DBD66E71188338B517F3ADCD9</xmpMM:DocumentID><xmpMM:InstanceID>xmp.iid:6302F40DBD66E71188338B517F3ADCD9</xmpMM:InstanceID><xmpMM:DerivedFrom rdf:parseType="Resource"><stRef:instanceID>uuid:c5b5eddb-66da-6741-a40d-cc810f9d042d</stRef:instanceID><stRef:documentID>xmp.did:FB05051EC465E111835FF2FC000FBA2B</stRef:documentID><stRef:originalDocumentID>uuid:65E6390686CF11DBA6E2D887CEACB407</stRef:originalDocumentID><stRef:renditionClass>proof:pdf</stRef:renditionClass></xmpMM:DerivedFrom><xmpMM:History><rdf:Seq><rdf:li rdf:parseType="Resource"><stEvt:action>saved</stEvt:action><stEvt:instanceID>xmp.iid:6302F40DBD66E71188338B517F3ADCD9</stEvt:instanceID><stEvt:when>2017-07-12T13:59:46+09:00</stEvt:when><stEvt:softwareAgent>Adobe Illustrator CS6 (Windows)</stEvt:softwareAgent><stEvt:changed>/</stEvt:changed></rdf:li></rdf:Seq></xmpMM:History></rdf:Description><rdf:Description xmlns:illustrator="http://ns.adobe.com/illustrator/1.0/"><illustrator:StartupProfile>Web</illustrator:StartupProfile></rdf:Description><rdf:Description xmlns:xmpTPg="http://ns.adobe.com/xap/1.0/t/pg/" xmlns:stDim="http://ns.adobe.com/xap/1.0/sType/Dimensions#" xmlns:xmpG="http://ns.adobe.com/xap/1.0/g/"><xmpTPg:NPages>1</xmpTPg:NPages><xmpTPg:HasVisibleTransparency>False</xmpTPg:HasVisibleTransparency><xmpTPg:HasVisibleOverprint>False</xmpTPg:HasVisibleOverprint><xmpTPg:MaxPageSize rdf:parseType="Resource"><stDim:w>244.872070</stDim:w><stDim:h>30.000000</stDim:h><stDim:unit>Pixels</stDim:unit></xmpTPg:MaxPageSize><xmpTPg:PlateNames><rdf:Seq><rdf:li>Cyan</rdf:li><rdf:li>Magenta</rdf:li><rdf:li>Yellow</rdf:li><rdf:li>Black</rdf:li></rdf:Seq></xmpTPg:PlateNames><xmpTPg:SwatchGroups><rdf:Seq><rdf:li rdf:parseType="Resource"><xmpG:groupName>初期設定のスウォッチグループ</xmpG:groupName><xmpG:groupType>0</xmpG:groupType><xmpG:Colorants><rdf:Seq><rdf:li rdf:parseType="Resource"><xmpG:swatchName>ホワイト</xmpG:swatchName><xmpG:mode>RGB</xmpG:mode><xmpG:type>PROCESS</xmpG:type><xmpG:red>255</xmpG:red><xmpG:green>255</xmpG:green><xmpG:blue>255</xmpG:blue></rdf:li><rdf:li rdf:parseType="Resource"><xmpG:swatchName>ブラック</xmpG:swatchName><xmpG:mode>RGB</xmpG:mode><xmpG:type>PROCESS</xmpG:type><xmpG:red>0</xmpG:red><xmpG:green>0</xmpG:green><xmpG:blue>0</xmpG:blue></rdf:li><rdf:li rdf:parseType="Resource"><xmpG:swatchName>RGB レッド</xmpG:swatchName><xmpG:mode>RGB</xmpG:mode><xmpG:type>PROCESS</xmpG:type><xmpG:red>255</xmpG:red><xmpG:green>0</xmpG:green><xmpG:blue>0</xmpG:blue></rdf:li><rdf:li rdf:parseType="Resource"><xmpG:swatchName>RGB イエロー</xmpG:swatchName><xmpG:mode>RGB</xmpG:mode><xmpG:type>PROCESS</xmpG:type><xmpG:red>255</xmpG:red><xmpG:green>255</xmpG:green><xmpG:blue>0</xmpG:blue></rdf:li><rdf:li rdf:parseType="Resource"><xmpG:swatchName>RGB グリーン</xmpG:swatchName><xmpG:mode>RGB</xmpG:mode><xmpG:type>PROCESS</xmpG:type><xmpG:red>0</xmpG:red><xmpG:green>255</xmpG:green><xmpG:blue>0</xmpG:blue></rdf:li><rdf:li rdf:parseType="Resource"><xmpG:swatchName>RGB シアン</xmpG:swatchName><xmpG:mode>RGB</xmpG:mode><xmpG:type>PROCESS</xmpG:type><xmpG:red>0</xmpG:red><xmpG:green>255</xmpG:green><xmpG:blue>255</xmpG:blue></rdf:li><rdf:li rdf:parseType="Resource"><xmpG:swatchName>RGB ブルー</xmpG:swatchName><xmpG:mode>RGB</xmpG:mode><xmpG:type>PROCESS</xmpG:type><xmpG:red>0</xmpG:red><xmpG:green>0</xmpG:green><xmpG:blue>255</xmpG:blue></rdf:li><rdf:li rdf:parseType="Resource"><xmpG:swatchName>RGB マゼンタ</xmpG:swatchName><xmpG:mode>RGB</xmpG:mode><xmpG:type>PROCESS</xmpG:type><xmpG:red>255</xmpG:red><xmpG:green>0</xmpG:green><xmpG:blue>255</xmpG:blue></rdf:li><rdf:li rdf:parseType="Resource"><xmpG:swatchName>R=193 G=39 B=45</xmpG:swatchName><xmpG:mode>RGB</xmpG:mode><xmpG:type>PROCESS</xmpG:type><xmpG:red>193</xmpG:red><xmpG:green>39</xmpG:green><xmpG:blue>45</xmpG:blue></rdf:li><rdf:li rdf:parseType="Resource"><xmpG:swatchName>R=237 G=28 B=36</xmpG:swatchName><xmpG:mode>RGB</xmpG:mode><xmpG:type>PROCESS</xmpG:type><xmpG:red>237</xmpG:red><xmpG:green>28</xmpG:green><xmpG:blue>36</xmpG:blue></rdf:li><rdf:li rdf:parseType="Resource"><xmpG:swatchName>R=241 G=90 B=36</xmpG:swatchName><xmpG:mode>RGB</xmpG:mode><xmpG:type>PROCESS</xmpG:type><xmpG:red>241</xmpG:red><xmpG:green>90</xmpG:green><xmpG:blue>36</xmpG:blue></rdf:li><rdf:li rdf:parseType="Resource"><xmpG:swatchName>R=247 G=147 B=30</xmpG:swatchName><xmpG:mode>RGB</xmpG:mode><xmpG:type>PROCESS</xmpG:type><xmpG:red>247</xmpG:red><xmpG:green>147</xmpG:green><xmpG:blue>30</xmpG:blue></rdf:li><rdf:li rdf:parseType="Resource"><xmpG:swatchName>R=251 G=176 B=59</xmpG:swatchName><xmpG:mode>RGB</xmpG:mode><xmpG:type>PROCESS</xmpG:type><xmpG:red>251</xmpG:red><xmpG:green>176</xmpG:green><xmpG:blue>59</xmpG:blue></rdf:li><rdf:li rdf:parseType="Resource"><xmpG:swatchName>R=252 G=238 B=33</xmpG:swatchName><xmpG:mode>RGB</xmpG:mode><xmpG:type>PROCESS</xmpG:type><xmpG:red>252</xmpG:red><xmpG:green>238</xmpG:green><xmpG:blue>33</xmpG:blue></rdf:li><rdf:li rdf:parseType="Resource"><xmpG:swatchName>R=217 G=224 B=33</xmpG:swatchName><xmpG:mode>RGB</xmpG:mode><xmpG:type>PROCESS</xmpG:type><xmpG:red>217</xmpG:red><xmpG:green>224</xmpG:green><xmpG:blue>33</xmpG:blue></rdf:li><rdf:li rdf:parseType="Resource"><xmpG:swatchName>R=140 G=198 B=63</xmpG:swatchName><xmpG:mode>RGB</xmpG:mode><xmpG:type>PROCESS</xmpG:type><xmpG:red>140</xmpG:red><xmpG:green>198</xmpG:green><xmpG:blue>63</xmpG:blue></rdf:li><rdf:li rdf:parseType="Resource"><xmpG:swatchName>R=57 G=181 B=74</xmpG:swatchName><xmpG:mode>RGB</xmpG:mode><xmpG:type>PROCESS</xmpG:type><xmpG:red>57</xmpG:red><xmpG:green>181</xmpG:green><xmpG:blue>74</xmpG:blue></rdf:li><rdf:li rdf:parseType="Resource"><xmpG:swatchName>R=0 G=146 B=69</xmpG:swatchName><xmpG:mode>RGB</xmpG:mode><xmpG:type>PROCESS</xmpG:type><xmpG:red>0</xmpG:red><xmpG:green>146</xmpG:green><xmpG:blue>69</xmpG:blue></rdf:li><rdf:li rdf:parseType="Resource"><xmpG:swatchName>R=0 G=104 B=55</xmpG:swatchName><xmpG:mode>RGB</xmpG:mode><xmpG:type>PROCESS</xmpG:type><xmpG:red>0</xmpG:red><xmpG:green>104</xmpG:green><xmpG:blue>55</xmpG:blue></rdf:li><rdf:li rdf:parseType="Resource"><xmpG:swatchName>R=34 G=181 B=115</xmpG:swatchName><xmpG:mode>RGB</xmpG:mode><xmpG:type>PROCESS</xmpG:type><xmpG:red>34</xmpG:red><xmpG:green>181</xmpG:green><xmpG:blue>115</xmpG:blue></rdf:li><rdf:li rdf:parseType="Resource"><xmpG:swatchName>R=0 G=169 B=157</xmpG:swatchName><xmpG:mode>RGB</xmpG:mode><xmpG:type>PROCESS</xmpG:type><xmpG:red>0</xmpG:red><xmpG:green>169</xmpG:green><xmpG:blue>157</xmpG:blue></rdf:li><rdf:li rdf:parseType="Resource"><xmpG:swatchName>R=41 G=171 B=226</xmpG:swatchName><xmpG:mode>RGB</xmpG:mode><xmpG:type>PROCESS</xmpG:type><xmpG:red>41</xmpG:red><xmpG:green>171</xmpG:green><xmpG:blue>226</xmpG:blue></rdf:li><rdf:li rdf:parseType="Resource"><xmpG:swatchName>R=0 G=113 B=188</xmpG:swatchName><xmpG:mode>RGB</xmpG:mode><xmpG:type>PROCESS</xmpG:type><xmpG:red>0</xmpG:red><xmpG:green>113</xmpG:green><xmpG:blue>188</xmpG:blue></rdf:li><rdf:li rdf:parseType="Resource"><xmpG:swatchName>R=46 G=49 B=146</xmpG:swatchName><xmpG:mode>RGB</xmpG:mode><xmpG:type>PROCESS</xmpG:type><xmpG:red>46</xmpG:red><xmpG:green>49</xmpG:green><xmpG:blue>146</xmpG:blue></rdf:li><rdf:li rdf:parseType="Resource"><xmpG:swatchName>R=27 G=20 B=100</xmpG:swatchName><xmpG:mode>RGB</xmpG:mode><xmpG:type>PROCESS</xmpG:type><xmpG:red>27</xmpG:red><xmpG:green>20</xmpG:green><xmpG:blue>100</xmpG:blue></rdf:li><rdf:li rdf:parseType="Resource"><xmpG:swatchName>R=102 G=45 B=145</xmpG:swatchName><xmpG:mode>RGB</xmpG:mode><xmpG:type>PROCESS</xmpG:type><xmpG:red>102</xmpG:red><xmpG:green>45</xmpG:green><xmpG:blue>145</xmpG:blue></rdf:li><rdf:li rdf:parseType="Resource"><xmpG:swatchName>R=147 G=39 B=143</xmpG:swatchName><xmpG:mode>RGB</xmpG:mode><xmpG:type>PROCESS</xmpG:type><xmpG:red>147</xmpG:red><xmpG:green>39</xmpG:green><xmpG:blue>143</xmpG:blue></rdf:li><rdf:li rdf:parseType="Resource"><xmpG:swatchName>R=158 G=0 B=93</xmpG:swatchName><xmpG:mode>RGB</xmpG:mode><xmpG:type>PROCESS</xmpG:type><xmpG:red>158</xmpG:red><xmpG:green>0</xmpG:green><xmpG:blue>93</xmpG:blue></rdf:li><rdf:li rdf:parseType="Resource"><xmpG:swatchName>R=212 G=20 B=90</xmpG:swatchName><xmpG:mode>RGB</xmpG:mode><xmpG:type>PROCESS</xmpG:type><xmpG:red>212</xmpG:red><xmpG:green>20</xmpG:green><xmpG:blue>90</xmpG:blue></rdf:li><rdf:li rdf:parseType="Resource"><xmpG:swatchName>R=237 G=30 B=121</xmpG:swatchName><xmpG:mode>RGB</xmpG:mode><xmpG:type>PROCESS</xmpG:type><xmpG:red>237</xmpG:red><xmpG:green>30</xmpG:green><xmpG:blue>121</xmpG:blue></rdf:li><rdf:li rdf:parseType="Resource"><xmpG:swatchName>R=199 G=178 B=153</xmpG:swatchName><xmpG:mode>RGB</xmpG:mode><xmpG:type>PROCESS</xmpG:type><xmpG:red>199</xmpG:red><xmpG:green>178</xmpG:green><xmpG:blue>153</xmpG:blue></rdf:li><rdf:li rdf:parseType="Resource"><xmpG:swatchName>R=153 G=134 B=117</xmpG:swatchName><xmpG:mode>RGB</xmpG:mode><xmpG:type>PROCESS</xmpG:type><xmpG:red>153</xmpG:red><xmpG:green>134</xmpG:green><xmpG:blue>117</xmpG:blue></rdf:li><rdf:li rdf:parseType="Resource"><xmpG:swatchName>R=115 G=99 B=87</xmpG:swatchName><xmpG:mode>RGB</xmpG:mode><xmpG:type>PROCESS</xmpG:type><xmpG:red>115</xmpG:red><xmpG:green>99</xmpG:green><xmpG:blue>87</xmpG:blue></rdf:li><rdf:li rdf:parseType="Resource"><xmpG:swatchName>R=83 G=71 B=65</xmpG:swatchName><xmpG:mode>RGB</xmpG:mode><xmpG:type>PROCESS</xmpG:type><xmpG:red>83</xmpG:red><xmpG:green>71</xmpG:green><xmpG:blue>65</xmpG:blue></rdf:li><rdf:li rdf:parseType="Resource"><xmpG:swatchName>R=198 G=156 B=109</xmpG:swatchName><xmpG:mode>RGB</xmpG:mode><xmpG:type>PROCESS</xmpG:type><xmpG:red>198</xmpG:red><xmpG:green>156</xmpG:green><xmpG:blue>109</xmpG:blue></rdf:li><rdf:li rdf:parseType="Resource"><xmpG:swatchName>R=166 G=124 B=82</xmpG:swatchName><xmpG:mode>RGB</xmpG:mode><xmpG:type>PROCESS</xmpG:type><xmpG:red>166</xmpG:red><xmpG:green>124</xmpG:green><xmpG:blue>82</xmpG:blue></rdf:li><rdf:li rdf:parseType="Resource"><xmpG:swatchName>R=140 G=98 B=57</xmpG:swatchName><xmpG:mode>RGB</xmpG:mode><xmpG:type>PROCESS</xmpG:type><xmpG:red>140</xmpG:red><xmpG:green>98</xmpG:green><xmpG:blue>57</xmpG:blue></rdf:li><rdf:li rdf:parseType="Resource"><xmpG:swatchName>R=117 G=76 B=36</xmpG:swatchName><xmpG:mode>RGB</xmpG:mode><xmpG:type>PROCESS</xmpG:type><xmpG:red>117</xmpG:red><xmpG:green>76</xmpG:green><xmpG:blue>36</xmpG:blue></rdf:li><rdf:li rdf:parseType="Resource"><xmpG:swatchName>R=96 G=56 B=19</xmpG:swatchName><xmpG:mode>RGB</xmpG:mode><xmpG:type>PROCESS</xmpG:type><xmpG:red>96</xmpG:red><xmpG:green>56</xmpG:green><xmpG:blue>19</xmpG:blue></rdf:li><rdf:li rdf:parseType="Resource"><xmpG:swatchName>R=66 G=33 B=11</xmpG:swatchName><xmpG:mode>RGB</xmpG:mode><xmpG:type>PROCESS</xmpG:type><xmpG:red>66</xmpG:red><xmpG:green>33</xmpG:green><xmpG:blue>11</xmpG:blue></rdf:li></rdf:Seq></xmpG:Colorants></rdf:li><rdf:li rdf:parseType="Resource"><xmpG:groupName>グレー</xmpG:groupName><xmpG:groupType>1</xmpG:groupType><xmpG:Colorants><rdf:Seq><rdf:li rdf:parseType="Resource"><xmpG:swatchName>R=0 G=0 B=0</xmpG:swatchName><xmpG:mode>RGB</xmpG:mode><xmpG:type>PROCESS</xmpG:type><xmpG:red>0</xmpG:red><xmpG:green>0</xmpG:green><xmpG:blue>0</xmpG:blue></rdf:li><rdf:li rdf:parseType="Resource"><xmpG:swatchName>R=26 G=26 B=26</xmpG:swatchName><xmpG:mode>RGB</xmpG:mode><xmpG:type>PROCESS</xmpG:type><xmpG:red>26</xmpG:red><xmpG:green>26</xmpG:green><xmpG:blue>26</xmpG:blue></rdf:li><rdf:li rdf:parseType="Resource"><xmpG:swatchName>R=51 G=51 B=51</xmpG:swatchName><xmpG:mode>RGB</xmpG:mode><xmpG:type>PROCESS</xmpG:type><xmpG:red>51</xmpG:red><xmpG:green>51</xmpG:green><xmpG:blue>51</xmpG:blue></rdf:li><rdf:li rdf:parseType="Resource"><xmpG:swatchName>R=77 G=77 B=77</xmpG:swatchName><xmpG:mode>RGB</xmpG:mode><xmpG:type>PROCESS</xmpG:type><xmpG:red>77</xmpG:red><xmpG:green>77</xmpG:green><xmpG:blue>77</xmpG:blue></rdf:li><rdf:li rdf:parseType="Resource"><xmpG:swatchName>R=102 G=102 B=102</xmpG:swatchName><xmpG:mode>RGB</xmpG:mode><xmpG:type>PROCESS</xmpG:type><xmpG:red>102</xmpG:red><xmpG:green>102</xmpG:green><xmpG:blue>102</xmpG:blue></rdf:li><rdf:li rdf:parseType="Resource"><xmpG:swatchName>R=128 G=128 B=128</xmpG:swatchName><xmpG:mode>RGB</xmpG:mode><xmpG:type>PROCESS</xmpG:type><xmpG:red>128</xmpG:red><xmpG:green>128</xmpG:green><xmpG:blue>128</xmpG:blue></rdf:li><rdf:li rdf:parseType="Resource"><xmpG:swatchName>R=153 G=153 B=153</xmpG:swatchName><xmpG:mode>RGB</xmpG:mode><xmpG:type>PROCESS</xmpG:type><xmpG:red>153</xmpG:red><xmpG:green>153</xmpG:green><xmpG:blue>153</xmpG:blue></rdf:li><rdf:li rdf:parseType="Resource"><xmpG:swatchName>R=179 G=179 B=179</xmpG:swatchName><xmpG:mode>RGB</xmpG:mode><xmpG:type>PROCESS</xmpG:type><xmpG:red>179</xmpG:red><xmpG:green>179</xmpG:green><xmpG:blue>179</xmpG:blue></rdf:li><rdf:li rdf:parseType="Resource"><xmpG:swatchName>R=204 G=204 B=204</xmpG:swatchName><xmpG:mode>RGB</xmpG:mode><xmpG:type>PROCESS</xmpG:type><xmpG:red>204</xmpG:red><xmpG:green>204</xmpG:green><xmpG:blue>204</xmpG:blue></rdf:li><rdf:li rdf:parseType="Resource"><xmpG:swatchName>R=230 G=230 B=230</xmpG:swatchName><xmpG:mode>RGB</xmpG:mode><xmpG:type>PROCESS</xmpG:type><xmpG:red>230</xmpG:red><xmpG:green>230</xmpG:green><xmpG:blue>230</xmpG:blue></rdf:li><rdf:li rdf:parseType="Resource"><xmpG:swatchName>R=242 G=242 B=242</xmpG:swatchName><xmpG:mode>RGB</xmpG:mode><xmpG:type>PROCESS</xmpG:type><xmpG:red>242</xmpG:red><xmpG:green>242</xmpG:green><xmpG:blue>242</xmpG:blue></rdf:li></rdf:Seq></xmpG:Colorants></rdf:li><rdf:li rdf:parseType="Resource"><xmpG:groupName>Web カラーグループ</xmpG:groupName><xmpG:groupType>1</xmpG:groupType><xmpG:Colorants><rdf:Seq><rdf:li rdf:parseType="Resource"><xmpG:swatchName>R=63 G=169 B=245</xmpG:swatchName><xmpG:mode>RGB</xmpG:mode><xmpG:type>PROCESS</xmpG:type><xmpG:red>63</xmpG:red><xmpG:green>169</xmpG:green><xmpG:blue>245</xmpG:blue></rdf:li><rdf:li rdf:parseType="Resource"><xmpG:swatchName>R=122 G=201 B=67</xmpG:swatchName><xmpG:mode>RGB</xmpG:mode><xmpG:type>PROCESS</xmpG:type><xmpG:red>122</xmpG:red><xmpG:green>201</xmpG:green><xmpG:blue>67</xmpG:blue></rdf:li><rdf:li rdf:parseType="Resource"><xmpG:swatchName>R=255 G=147 B=30</xmpG:swatchName><xmpG:mode>RGB</xmpG:mode><xmpG:type>PROCESS</xmpG:type><xmpG:red>255</xmpG:red><xmpG:green>147</xmpG:green><xmpG:blue>30</xmpG:blue></rdf:li><rdf:li rdf:parseType="Resource"><xmpG:swatchName>R=255 G=29 B=37</xmpG:swatchName><xmpG:mode>RGB</xmpG:mode><xmpG:type>PROCESS</xmpG:type><xmpG:red>255</xmpG:red><xmpG:green>29</xmpG:green><xmpG:blue>37</xmpG:blue></rdf:li><rdf:li rdf:parseType="Resource"><xmpG:swatchName>R=255 G=123 B=172</xmpG:swatchName><xmpG:mode>RGB</xmpG:mode><xmpG:type>PROCESS</xmpG:type><xmpG:red>255</xmpG:red><xmpG:green>123</xmpG:green><xmpG:blue>172</xmpG:blue></rdf:li><rdf:li rdf:parseType="Resource"><xmpG:swatchName>R=189 G=204 B=212</xmpG:swatchName><xmpG:mode>RGB</xmpG:mode><xmpG:type>PROCESS</xmpG:type><xmpG:red>189</xmpG:red><xmpG:green>204</xmpG:green><xmpG:blue>212</xmpG:blue></rdf:li></rdf:Seq></xmpG:Colorants></rdf:li></rdf:Seq></xmpTPg:SwatchGroups></rdf:Description><rdf:Description xmlns:pdf="http://ns.adobe.com/pdf/1.3/"><pdf:Producer>Adobe PDF library 10.01</pdf:Producer></rdf:Description></rdf:RDF></x:xmpmeta><?xpacket end="w"?></metadata><g fill="#4A1F00"><path d="M22.56 14.127c-.66 0-1.078.044-1.694.154l-.154-.858c.814.154 1.21.198 1.871.198h2.156c.022-.66.022-1.32.022-3.345-1.32.616-2.222.946-3.741 1.343l-.088-.265c2.729-1.231 4.665-2.596 5.919-4.114.616.418.616.418 1.518 1.145.154.109.198.153.198.241 0 .133-.154.221-.33.221-.154 0-.242-.022-.748-.11-.462.353-.682.484-1.232.792 0 3.433 0 3.433-.044 4.093h2.971v-2.773c0-1.937-.044-2.662-.132-3.675.462.044.858.088 1.1.11 1.056.088 1.43.198 1.43.396 0 .22-.286.396-.902.571v5.37h2.09l.462-.506.418-.462c.572.396.726.527 1.232.924.132.132.198.198.198.264 0 .154-.154.286-.77.66.044 1.21.11 1.805.286 2.685.836-.726 1.562-1.54 2.046-2.332 1.166.857 1.628 1.276 1.628 1.408 0 .109-.154.22-.286.22-.132 0-.22-.021-.726-.176-.99.484-1.65.77-2.486 1.1 1.453.286 2.553.66 3.19 1.101.33.242.484.506.484.836 0 .572-.198 1.101-.418 1.101-.132 0-.286-.132-.528-.462-.77-1.034-1.826-1.937-2.816-2.421.242.88.462 1.431.902 2.091.77 1.188 1.562 1.87 3.014 2.64.506-1.254.77-1.958 1.563-4.246l.22.088-.506 4.158c-.022.11-.022.198-.022.242 0 .154.044.242.33.484.242.198.374.439.374.682 0 .374-.286.616-.704.616-1.034 0-2.794-.924-4.027-2.134-1.936-1.915-2.618-3.829-2.948-8.054h-2.222v4.049c0 2.179.044 3.608.132 5.984-.044.286-.33.375-1.21.375-.374 0-.484-.089-.484-.33v-.089c.066-2.178.066-2.178.066-9.989H26.17a48.723 48.723 0 01-.176 2.377c-.352 2.332-1.21 4.202-2.684 5.853-.682.748-1.254 1.254-2.398 2.112l-.242-.242c1.826-2.002 2.707-3.389 3.323-5.259.462-1.43.638-2.618.704-4.841H22.56zM33.671 5.92c.396-.396.506-.55.924-.99.528.44.704.572 1.21.969.132.132.176.197.176.264 0 .132-.176.242-.792.572.022 1.012.066 1.496.22 2.288 1.056-.968 1.958-2.09 2.42-2.971.33.242.572.44.748.572.594.462.902.748.902.88 0 .11-.132.198-.264.198a5.39 5.39 0 01-.792-.11c-1.21.881-1.958 1.299-2.904 1.717 2.222.418 3.19.902 3.19 1.65 0 .462-.242 1.012-.462 1.012-.11 0-.242-.109-.462-.396-.814-1.057-1.43-1.606-2.244-2.047.176.639.352 1.057.638 1.584.682 1.276 1.32 1.937 2.575 2.619.242-.551.242-.551.638-1.541.286-.77.528-1.342.704-1.782l.22.089-.462 3.234v.264c0 .154.044.242.198.418.242.286.352.462.352.66 0 .33-.286.572-.682.572-.902 0-2.398-.902-3.454-2.091-1.012-1.1-1.672-2.442-2.046-4.114-.198-.858-.286-1.54-.352-3.015H24.1c-.638 0-1.21.044-1.782.154l-.176-.879c.814.176 1.254.22 1.958.22h9.571zm15.662 8.911c-1.474 1.452-2.024 1.87-3.388 2.707l-.198-.286c1.386-1.188 2.311-2.267 3.675-4.269.968-1.387 1.43-2.245 1.892-3.389.484.198.836.352 1.056.439.946.374 1.144.484 1.144.66 0 .198-.286.309-.836.309-.022 0-.088 0-.154-.022-.968 1.364-1.518 2.068-2.442 3.081 1.188.264 1.453.352 1.453.55 0 .154-.088.198-.704.396v3.763c0 1.166 0 1.166.022 4.049v1.606c-.022.176-.066.198-.264.242-.308.044-.66.088-.902.088-.374 0-.484-.044-.484-.198v-.11c.044-.571.088-2.354.132-5.347v-4.269zm-3.124-3.763c1.145-1.034 2.09-2.09 3.235-3.652.616-.813 1.012-1.452 1.606-2.53 1.188.506 1.804.814 2.002.968a.625.625 0 01.11.221c0 .132-.22.242-.462.242-.132 0-.308-.022-.506-.022-1.848 2.223-3.564 3.74-5.765 5.039l-.22-.266zm8.647 1.585c-.616 0-1.034.044-1.937.153l-.176-.88c.946.198 1.254.22 2.112.22h8.185c.572-.704.748-.901 1.32-1.562.88.726 1.122.968 1.936 1.76.066.088.088.132.088.154 0 .088-.11.154-.198.154h-4.4v4.4c0 1.98 0 3.08.044 5.853v.198c0 .484-.198.771-.704 1.078-.462.264-.968.418-2.046.616-.044-.704-.22-.968-.748-1.21-.22-.088-.572-.177-1.21-.265l-1.474-.22v-.372c1.694.11 2.354.154 4.181.198.308-.022.374-.066.374-.309v-9.967h-5.347zm-1.144-6.249c.77.153 1.364.22 2.2.22h5.787c.506-.66.66-.858 1.188-1.475.88.66 1.144.881 2.024 1.65.044.066.066.11.066.154 0 .088-.132.176-.264.176h-8.801c-.792 0-1.188.022-2.046.154l-.154-.879zM75.8 9.551c.396-.484.528-.639.902-1.122.594.571.77.748 1.342 1.342a.383.383 0 01.066.154c0 .088-.11.132-.264.132h-2.398v1.694c1.078.814 1.21.924 1.518 1.32.396.462.55.792.55 1.1 0 .528-.396 1.211-.682 1.211-.154 0-.22-.11-.286-.375-.198-1.144-.44-1.76-1.1-2.948l.022 6.755v3.697c0 .241 0 1.056.022 2.068-.066.241-.154.285-.748.308-.176 0-.308 0-.374.022h-.044c-.176 0-.264-.089-.286-.265.022-.396.088-3.301.22-8.691l.066-3.059c-1.012 3.411-1.541 4.621-3.168 7.107l-.286-.176c.902-1.937 1.408-3.389 2.112-5.941.462-1.584.616-2.31.836-3.828h-1.1c-.572 0-.814.021-1.298.154l-.132-.858c.418.132.814.198 1.43.198h1.32V7.152c0-.792-.022-1.32-.11-2.332.506.044.924.088 1.166.109 1.144.088 1.276.132 1.276.33 0 .176-.132.242-.946.484V9.55h.374zm4.708 6.953c-.022.77-.022.968-.066 1.43 2.046.924 2.641 1.452 2.641 2.244 0 .683-.242 1.276-.528 1.276-.176 0-.242-.088-.572-.836-.396-.902-.88-1.606-1.584-2.376-.176 1.254-.462 2.134-1.012 3.102-.726 1.299-1.496 2.157-2.97 3.279l-.22-.221c1.43-1.605 2.156-2.926 2.596-4.752.242-.99.33-1.65.352-3.146h-.595c-.77 0-1.122.044-1.628.176l-.198-.902c.616.176 1.034.22 1.826.22h5.457c-.088-.418-.154-.682-.22-1.078-.396-2.2-.462-2.992-.572-7.942 0-.837-.022-1.232-.066-2.135 1.034.11 1.958.242 2.222.33.154.044.22.11.22.22 0 .177-.132.242-.99.462-.022 2.201-.022 2.201-.022 2.795 0 3.146.198 5.391.682 7.349h3.895a35.21 35.21 0 011.1-1.254c.726.616.968.814 1.672 1.431.066.065.11.132.11.176 0 .088-.154.154-.308.154h-6.337c.308 1.1.682 1.936 1.276 2.882.77-.836 1.188-1.408 1.694-2.311 1.76.814 2.024.969 2.024 1.123 0 .132-.154.22-.374.22a18.1 18.1 0 01-.858-.066c-.77.969-1.122 1.364-1.804 2.024.814.968 1.364 1.475 2.574 2.288.682-1.122.814-1.408 1.804-3.498l.264.065-.703 3.167c-.022.154-.088.572-.088.682 0 .154.066.286.264.551.176.198.242.352.242.527 0 .396-.242.616-.616.616-1.122 0-3.146-1.518-4.708-3.564-2.002 1.629-3.63 2.421-6.711 3.257l-.11-.33c2.398-.902 4.225-2.024 6.205-3.828-.814-1.276-1.21-2.179-1.628-3.807h-3.632zm-2.926-9.109c.55.33.704.418 1.1.704.484-.837.814-1.673 1.21-2.971 1.892.814 1.98.858 1.98 1.034a.185.185 0 01-.088.154c-.066.044-.352.065-.858.109-1.21 1.276-1.21 1.276-1.893 1.937.044.022.088.066.11.088.55.396.682.595.682.99 0 .638-.308 1.276-.594 1.276-.11 0-.198-.088-.286-.33-.506-1.298-.726-1.717-1.54-2.839l.177-.152zm4.687 1.759c-.792 1.188-2.046 2.662-3.168 3.675 1.65-.11 1.65-.11 2.685-.242-.176-.55-.264-.748-.55-1.386l.22-.154c1.056.99 1.518 1.672 1.518 2.244 0 .484-.374 1.122-.66 1.122-.132 0-.198-.132-.242-.374a7.822 7.822 0 00-.198-1.078c-1.034.396-1.166.418-3.278 1.013-.022.132-.044.22-.066.285-.044.265-.132.396-.242.396-.154 0-.154 0-.682-1.761h.286c.088 0 .33 0 .55-.021 1.408-1.805 2.245-3.213 2.927-4.995 1.276.595 1.782.902 1.782 1.057 0 .176-.198.22-.77.22h-.112zm3.08-1.958c.55.374.704.506 1.078.814.616-.969.99-1.738 1.452-2.949.44.221.77.396.99.507.836.418 1.078.571 1.078.748 0 .132-.154.197-.462.197-.022 0-.44-.021-.682-.021-.418.33-.418.33-1.518 1.342-.088.066-.176.132-.55.44.374.352.506.638.506 1.056 0 .507-.308 1.078-.572 1.078-.132 0-.242-.132-.33-.439-.264-.99-.572-1.628-1.166-2.553l.176-.22zm3.983 3.433c1.386 1.056 1.958 1.738 1.958 2.266 0 .484-.396 1.167-.66 1.167-.154 0-.242-.133-.33-.463-.044-.264-.132-.506-.33-1.122-.99.221-1.21.265-3.917.748-.066.572-.154.771-.33.771-.066 0-.132-.066-.176-.198 0 0-.132-.527-.374-1.562h.352c.066 0 .066 0 .748-.022.55-.66.902-1.166 1.276-1.716.616-.969 1.342-2.223 1.606-2.772.418.197.77.352.99.439.946.396 1.078.484 1.078.639 0 .176-.286.242-1.034.242-1.167 1.275-2.333 2.397-3.279 3.146.396-.021.727-.021.924-.021.99-.044 1.012-.044 1.958-.11-.22-.483-.308-.66-.638-1.276l.178-.156zm-2.707 2.948c1.32.352 1.892.726 1.892 1.232 0 .197-.154.638-.264.792a.264.264 0 01-.198.109c-.11 0-.22-.088-.374-.396a6.628 6.628 0 00-1.254-1.54l.198-.197zM99.494 8.78c1.056.836 1.562 1.034 2.75 1.034.704 0 1.342-.088 2.354-.286.484-.946.77-1.76.77-2.244 0-.594-.418-.946-1.562-1.232.374-.198.572-.242.99-.242.506 0 1.144.133 1.716.374.55.221.792.463.792.727 0 .154-.088.308-.352.638-.198.265-.462.66-.638.902-.396.639-.396.639-.55.858 1.848-.528 2.442-.792 3.168-1.408a.617.617 0 01.418-.154c.858 0 1.474.309 1.474.727 0 .264-.286.483-.946.704-1.958.638-3.014.901-4.796 1.254-.396.55-.66.946-1.167 1.716-.594.925-.77 1.167-1.188 1.761 1.232-.638 2.002-.88 2.838-.88 1.298 0 2.266.88 2.464 2.2.374-.176.374-.176 2.156-1.078 2.178-1.101 2.707-1.452 2.707-1.849 0-.374-.374-.77-1.012-1.034.242-.109.352-.132.506-.132.968 0 2.486 1.342 2.486 2.223 0 .396-.176.55-.792.682-1.32.309-4.181 1.408-5.897 2.267.022.704.022.836.022 1.782 0 .99-.066 1.672-.176 1.893a.7.7 0 01-.616.418c-.418 0-.704-.286-.704-.66 0-.11 0-.221.022-.374.088-.639.132-1.387.154-2.354-1.364.748-2.002 1.188-2.575 1.738-.726.704-1.078 1.386-1.078 2.046 0 1.188 1.21 1.761 3.675 1.761 1.54 0 3.081-.221 4.422-.616.154-.044.308-.066.418-.066.682 0 1.54.616 1.54 1.101 0 .286-.242.506-.682.594-.902.176-2.574.309-3.938.309-2.068 0-3.586-.221-4.467-.639-1.122-.528-1.628-1.254-1.628-2.332 0-1.034.506-1.98 1.584-3.015.572-.55 1.276-1.056 2.729-1.958-.022-.925-.088-1.276-.308-1.738-.198-.396-.638-.66-1.122-.66-1.452 0-3.19 1.166-4.775 3.19-.418.572-.594.704-.814.704-.352 0-.594-.462-.594-1.166 0-.462.022-.484.638-.99 1.562-1.232 2.53-2.377 4.093-4.73-.726.109-1.012.132-1.475.132-1.496 0-2.266-.396-3.278-1.694l.244-.204zm26.972 7.988c-.044.484-.065.682-.065.99 0 2.618 1.649 3.851 5.191 3.851 1.738 0 3.565-.309 4.863-.792a.841.841 0 01.374-.088c.33 0 .837.197 1.21.439.309.242.484.506.484.771 0 .33-.242.572-.704.682-1.013.265-3.169.44-5.126.44-2.465 0-4.027-.309-5.127-1.057-1.101-.704-1.826-2.09-1.826-3.454 0-.55.109-1.122.352-1.87l.374.088zm.682-8.692c1.121.748 1.892.969 3.365.969 1.453 0 3.301-.265 4.577-.66.154-.044.33-.089.396-.089.571 0 1.319.66 1.319 1.145 0 .374-.131.462-1.605.771-.858.176-1.057.264-3.213 1.078-.527.22-.527.22-1.805.748-.439.198-.439.198-.857.352l-.154-.33c.683-.396 1.034-.616 1.606-.924 1.496-.814 1.496-.814 1.849-1.034-.484.044-1.254.066-1.65.066-.814 0-1.826-.242-2.508-.595-.572-.308-.925-.594-1.541-1.276l.221-.221zm9.923-1.473c2.134.857 3.322 1.826 3.322 2.728 0 .572-.264 1.101-.571 1.101-.154 0-.287-.132-.44-.44-.638-1.275-1.343-2.2-2.442-3.168l.131-.221zm1.981-1.321c1.21.374 2.046.77 2.706 1.254.484.374.66.66.66 1.166 0 .66-.197 1.145-.484 1.145-.176 0-.308-.154-.506-.528-.572-1.034-1.364-1.937-2.508-2.816l.132-.221zm15.2 5.963h1.694c.44-.639.572-.814 1.034-1.387.77.683 1.012.88 1.76 1.584.066.066.088.133.088.177 0 .065-.109.132-.241.132h-4.335v2.156c1.387.616 1.959.924 2.707 1.452s.99.836.99 1.364c0 .792-.287 1.408-.66 1.408-.154 0-.242-.088-.353-.33-.374-.836-.99-1.805-1.563-2.42-.308-.353-.528-.551-1.122-.99v3.322c0 2.552 0 2.618.11 6.931 0 .132-.044.198-.154.22-.153.066-.792.133-1.166.133-.177 0-.22-.044-.242-.221.065-2.948.065-2.948.088-7.063l.11-4.291c-1.496 3.19-2.574 4.841-4.709 7.151l-.242-.198c1.32-1.98 2.002-3.19 2.927-5.171.638-1.364.858-1.936 1.298-3.454h-2.553a5.94 5.94 0 00-1.209.11l-.133-.771c.639.11 1.035.154 1.563.154h2.86V7.769c-1.826.396-2.464.506-4.114.682l-.088-.33a35.023 35.023 0 004.973-1.694c1.254-.506 1.672-.726 2.464-1.276 1.255.814 1.849 1.299 1.849 1.475 0 .088-.11.176-.264.176-.088 0-.551-.088-.925-.176-1.101.418-1.452.528-2.442.792v3.827zm7.855-3.983c0 .154-.11.221-.814.507.021 8.955.021 8.955.088 11.859 0 .11-.044.154-.132.198-.176.065-.792.132-1.21.132-.176 0-.242-.044-.242-.22.021-1.54.021-1.54.021-2.047 0-8.009-.021-9.659-.109-11.001 2.266.308 2.398.352 2.398.572zm2.993.396c-.021-.726-.044-1.254-.088-2.376 1.893.286 2.068.308 2.244.374.176.044.264.132.264.242 0 .176-.153.264-.88.55V18.33c0 .197.044 1.76.11 4.643 0 .594-.11.858-.528 1.188-.483.375-.99.551-2.002.727-.089-.594-.22-.836-.595-1.078-.22-.132-.791-.308-1.451-.44l-.793-.132-.66-.132.022-.374c.99.066.99.066 2.398.132.968.022.968.022 1.649.066.309 0 .375-.066.375-.353v-.065L165.1 7.658zm12.582 8.846a14.425 14.425 0 01-1.387 4.555c-.836 1.672-1.693 2.75-3.123 3.916l-.242-.22c1.451-1.782 2.266-3.521 2.816-5.875.396-1.694.506-2.75.571-5.875.022-1.034.066-4.049.066-4.929 0-1.144-.022-1.804-.11-2.838.793.462 1.034.615 1.76 1.122h11.772c.374-.462.483-.595.901-1.034.617.439.793.572 1.387 1.034.176.132.264.22.264.308 0 .154-.131.242-.813.66V17.56c0 1.914 0 2.772.044 5.589-.066.55-.198.748-.682 1.012-.396.221-.902.375-1.938.551-.307-1.299-.483-1.408-2.926-1.717v-.33c.814.044.814.044 2.09.11.793.044.793.044 1.431.066h.176c.219 0 .264-.066.264-.309v-6.028h-5.436v2.002c.022 1.43.022 1.43.022 2.641.022 1.056.022 1.056.044 1.892-.021.33-.22.44-.88.463h-.307c-.309 0-.44-.11-.44-.353.022-1.342.044-3.763.044-4.643v-2.002h-5.368zm5.369-5.039h-5.148c-.022 2.068-.045 3.213-.154 4.532h5.303v-4.532zm0-4.599h-5.148c.021.462.021.858.021 1.056 0 .177 0 .683-.021 1.364v1.673h5.148V6.866zm6.953 4.093V6.866h-5.436v4.093h5.436zm0 5.038v-4.532h-5.436v4.532h5.436zm18.963 6.844c2.376-.704 3.895-1.606 5.148-3.059 1.299-1.475 1.959-3.278 1.959-5.303 0-2.135-.858-3.829-2.486-4.863-.969-.638-2.421-1.012-3.807-1.012-.265 0-.418 0-.771.044.528.771.683 1.188.683 1.826 0 1.716-1.232 4.929-2.904 7.613-1.387 2.2-2.465 3.278-3.279 3.278-.374 0-.727-.176-.968-.462-.198-.265-.242-.353-.616-1.408-.198-.572-.33-.836-.969-2.068-.352-.704-.506-1.298-.506-2.002 0-1.387.748-3.015 1.98-4.357 1.782-1.892 4.687-3.08 7.569-3.08 2.222 0 4.269.727 5.677 2.024s2.112 3.036 2.112 5.171c0 2.75-1.606 5.192-4.379 6.667-1.276.682-2.42 1.034-4.29 1.364l-.153-.373zm-7.239-6.844c0 1.057.33 2.135.88 2.905.309.396.594.638.836.638.484 0 1.541-1.188 2.619-2.904 1.628-2.597 2.794-5.435 2.794-6.799 0-.33-.065-.551-.308-1.101-3.828.683-6.821 3.873-6.821 7.261zm39.536-6.732c.572-.748.748-.969 1.32-1.694a57.373 57.373 0 012.156 1.826c.088.088.132.154.132.22 0 .088-.11.154-.264.154h-10.892c-.022 1.563-.088 2.354-.264 3.608h6.227c.352-.484.462-.616.836-1.056.616.462.814.616 1.408 1.056.22.198.286.286.286.353 0 .132 0 .132-.771.66-.33 4.202-.792 7.019-1.363 8.339-.551 1.232-1.057 1.496-3.367 1.805-.132-1.232-.374-1.343-4.049-2.024v-.309c2.024.198 4.27.374 5.083.374.462 0 .616-.065.792-.286.572-.813 1.145-4.555 1.299-8.405h-6.469c-.396 2.156-.881 3.609-1.695 5.062a12.95 12.95 0 01-4.467 4.664c-.703.418-1.144.66-2.222 1.101l-.177-.374c2.179-1.255 3.499-2.465 4.665-4.225 1.782-2.685 2.553-5.743 2.641-10.342h-4.973c-.55 0-.726.022-1.937.154l-.22-.88c.264.044.462.065.594.088.925.109 1.145.132 1.585.132h6.601V6.69c0-.44-.044-.814-.132-1.585 2.023.198 2.596.33 2.596.595 0 .132-.154.22-.945.506v3.059h5.986z"/></g><line fill="none" stroke="#9B8628" stroke-width="3" stroke-miterlimit="10" x1="1.5" y1="0" x2="1.5" y2="30"/></svg>