<svg version="1.1" id="レイヤー_1" xmlns="http://www.w3.org/2000/svg" x="0" y="0" viewBox="0 0 92.8 383.9" xml:space="preserve"><style type="text/css">.st0{fill:#210100}.st2{fill:#fff}</style><g><rect x="37.8" class="st0" width="55" height="149"/><rect y="66.7" class="st0" width="55" height="317"/><line x1="65.4" y1="0" x2="65.4" y2="30" fill="none" stroke="#76544b" stroke-miterlimit="10"/><g><g><path class="st2" d="M67.9 54.8c-.2 0-.4 0-.4.2 0 .5 2.6 3.7 6.6 4 1.2.1 1.3.1 1.3.2s-.1.1-.3.2c-.7.2-.9.3-1.3.5-.2.1-1 .8-1.1.8-.4 0-2.2-1.3-2.5-1.3-.2 0-.3.1-.3.3v1.8c0 1.2.1 2 .1 2.4 0 .3.1.4.1.5 0 .4 0 .6-.3.9-.3.3-.6.5-.9.5-.1 0-.5 0-.7-.5-.1-.4-.4-.4-.7-.4H62c-.2 0-.5 0-.6.3-.4.7-1 .7-1.1.7-.6 0-.6-.6-.6-.9 0-.2.1-1.1.1-1.4 0-.7.1-1.5.1-2.2 0-.3 0-3-.1-3.7s-.1-.9-.1-1c0-.1 0-.2.1-.2s.2.1 1.4.7c.7.4 1.1.4 1.6.4h5.1c.1 0 .4 0 .4-.2 0-.1-.1-.3-.1-.4-.4-.7-.5-.9-.8-1.5-.4-.8-.4-.9-.9-.9h-5.6c-.4 0-.6.1-.7.4-.7 2.1-1.8 3.8-3.5 5-.7.5-1.7 1-2.1 1-.1 0-.1-.1-.1-.1 0-.1.6-.4.7-.4 1.6-1 3.4-3.9 3.4-8.3 0-.4 0-1.2-.1-1.6 0-.1-.2-.4-.2-.5 0-.2.2-.2.4-.2s.5.1 1.2.4c.5.2.9.2 1.2.2h7.6c.4 0 .7 0 1-.4.2-.4.3-.5.5-.5s.3 0 1.1.5.9.5.9.8c0 .1-.1.2-.4.4-.4.2-.5.3-.5.5 0 .4.1 2.1.1 2.6s-.4 1.2-1.2 1.2c-.5 0-.6-.3-.7-.6-.1-.2-.3-.3-.6-.3h-1zm2 12.3c.7 0 .9 0 1.1-.2.2-.2.9-1 1.1-1 .1 0 2.3 1.1 2.3 1.4 0 .3-.4.3-1.2.3H58.9c-1.9 0-2.6 0-2.8.1h-.5c-.1 0-.1 0-.2-.1l-.4-.4V67h.1c.2 0 .8.1 1 .1 1.1 0 2 .1 3 .1h10.8zm-8.9-16c-.2 0-.5 0-.6.3 0 0-.2 2.2-.2 2.3 0 .3.1.5.6.5H69c.6 0 .6 0 .6-1.8 0-1.1 0-1.3-.6-1.3h-8zm6.5 9.7c.7 0 .7-.2.7-1.8 0-.6-.4-.6-.7-.6H62c-.7 0-.7.2-.7 1.7 0 .7.4.7.7.7h5.5zm-5.6.6c-.7 0-.7.3-.7.8 0 2.1 0 2.1.7 2.1h5.5c.7 0 .7-.1.7-2.2 0-.5 0-.8-.7-.8h-5.5zM58 75.8c-.6 0-.6.4-.6.6 0 .2-.2 6.8-.2 7.4 0 .2.1 5.3.1 7.2 0 .2.1 1.1.1 1.3 0 .7 0 1.1-.4 1.5-.2.2-.6.4-.8.4-.5 0-.6-.5-.6-.7 0-.4.2-1.8.2-2.2 0-.4.1-2.3.1-2.4V76.7c0-.2-.2-1.7-.2-1.8 0-.1 0-.3.3-.3.2 0 1.2.5 1.4.6s.4.1.7.1h1.7c.3 0 .5 0 .7-.3.2-.3.2-.4.4-.4.1 0 1.7.7 1.7 1.1 0 .2-.1.2-.4.5-.3.2-.3.3-1.7 2.6-.5.9-.6 1.1-.9 1.5-.1.1-.4.6-.4.6 0 .2.3.4.5.5 1.3.8 2.1 2 2.4 2.8.2.5.4 1 .4 2.2 0 3.1-1.8 3.8-2.2 3.8-.4 0-.5-.2-.7-.6-.1-.2-.2-.6-.8-1.2 0 0-.2-.2-.2-.3 0-.1.1-.1.2-.1h.6c.8 0 1.6 0 1.6-1.7 0-1.5-.2-3.5-1.7-4.8-.5-.4-.6-.6-.6-.9 0-.4 1.5-4.2 1.5-4.7 0-.1-.1-.4-.5-.4H58zm12.8-.1c.2 0 .4 0 .6-.3.3-.4.3-.4.5-.4s1.6 1.1 1.7 1.2v.1c0 .1-.2.2-.5.5-.2.1-.2.3-.2.5v6.1c0 .3 0 1.3-1.1 1.3-.4 0-.4-.3-.4-.7 0-.3-.4-.3-.5-.3h-2.1c-.3 0-.5 0-.5.5 0 .8 1.5 4.2 1.9 4.2.3 0 2-2 2.3-2.6.2-.4.2-.5.3-.5.1 0 1.7.9 1.7 1.3 0 .3-.2.3-.7.4-.3.1-2.5 1.3-3 1.5-.4.2-.4.2-.4.4 0 .1 1 1.8 3.3 3.1.3.2 1.7.8 1.7.9 0 .2-.8.2-.9.3-.4.1-1 .4-1.2.6-.3.3-.4.4-.5.4-.2 0-1.2-1-2.4-2.7-.5-.7-.5-.8-.8-.8-.4 0-6.8 2.6-6.8 2.6-.2.1-.7.9-.9.9-.4 0-1.2-2.3-1.2-2.4 0-.2.1-.2.2-.2s.7.1.9.1c.1 0 2.3-.1 2.4-.6.1-.3.1-3.2.1-3.9 0-3.4 0-8.4-.1-10.8 0-.2-.1-.9-.1-1s-.2-.4-.1-.4c.2 0 .8.4 1.1.5.2.1.5.3.9.3h4.8zm0 7.2c.6 0 .6-.3.6-1.5 0-1.4 0-1.6-.7-1.6H66c-.4 0-.7.1-.7.7 0 1.7 0 1.9.1 2.1.1.3.4.3.6.3h4.8zm-4.9-6.6c-.5 0-.5.5-.5.7v1.8c.1.5.5.5.6.5h4.8c.6 0 .7-.3.7-.9 0-1.9 0-2.1-.6-2.1h-5zm.1 7.2c-.6 0-.6.4-.6.6 0 .9.1 5.2.1 6.2 0 .2 0 .4.3.4.1 0 2.2-.4 2.6-.5.8-.2.9-.2.9-.5 0-.1-.4-.9-.4-1-.6-1.5-.9-2.8-1.1-4.2-.1-1-.1-1.1-.7-1.1H66zm-4.5 23.9c-1.9 0-2.6 0-2.8.1h-.5c-.1 0-.1 0-.2-.1l-.4-.5c-.1-.1-.1-.1-.1-.2h.1c.2 0 .8.1 1 .1 1.1 0 2 .1 3 .1h6c.9 0 1.2 0 1.4-.4.5-.8.6-.9.8-.9.4 0 1.9 1.1 1.9 1.5 0 .3-.4.3-1.2.3h-4.2c-.6 0-.6.2-.6 2 0 1.7 0 1.9.6 1.9h1.5c.9 0 1.1 0 1.4-.4.4-.6.5-.7.7-.7.3 0 1.6 1.1 1.6 1.4 0 .1-.1.2-.3.3h-4.7c-.7 0-.7.1-.7 1.5 0 .7 0 3.2.1 3.3.1.2.3.2.5.2s1.3.1 2.4.1c2.4 0 5.2-.5 5.9-.7.1 0 .6-.2.7-.2 0 0 .1 0 .1.1s-1.3 1.1-1.6 1.3c-.1.1-.3.8-.4.9-.2.3-1 .3-1.3.3-8.8 0-9.9-1.3-11.3-2.9-.5-.6-.8-1.2-.9-1.6 0-.1-.1-.2-.2-.2s-.1.1-.3.4c-2 3.3-4 3.8-4.1 3.8-.1 0-.1 0-.1-.1 0 0 .3-.4.4-.4 2.6-2.8 3.7-6.2 3.8-7.7.1-1 .1-1.1.2-1.1s1.9.5 1.9.8c0 .1-.4.5-.5.6-.2.3-.5 1.8-.6 2.2 0 0-.4 1.1-.4 1.2 0 1.1 2.8 3 4 3 .3 0 .3-.3.3-.5v-7.9c0-.5 0-.9-.7-.9h-2.2zm-3.3-4c-.3 0-.4 0-.5.4-.4 1.3-1.1 1.8-1.6 1.8-.4 0-.7-.2-.7-.6 0-.3.1-.4.6-1 .4-.5.9-1.3 1.1-2 .1-.3.1-.4.2-.4.2 0 .3.4.5.8.1.3.2.4.5.4h5.2c.5 0 .6-.3.6-.7 0-.4 0-1.3-.1-1.7 0-.2-.2-1-.2-1.2 0-.1.1-.1.1-.1s1.5.3 2.2.5c.1 0 .2.1.2.2s-.5.5-.6.6c-.1.2-.1 1.2-.1 1.4 0 .8.2.9.7.9h4.3c.6 0 .7 0 1-.3.3-.2.5-.5.8-.5.2 0 2 1.1 2 1.7 0 .4-.5.4-.6.4-.2 0-.9-.1-1.1-.1-.7 0-1.1.2-1.3.3-.1.1-.5.3-.6.3 0 0-.1 0-.1-.1 0-.2.5-1 .5-1.2 0-.2-.1-.2-.4-.2H58.2z"/></g></g><g><g><path class="st2" d="M19.6 106c-.4 0-.7.2-.7.6 0 .9 0 1.7-.9 1.7-.8 0-.8-.4-.8-.7 0-.1 0-.8.1-2.1.1-1.4.2-5.3.2-5.8 0-.1-.1-3.3-.1-3.5 0-.2-.2-1-.2-1.1 0-.1.1-.2.3-.2.1 0 .9.4 1.1.4.4.2.6.3 1.1.3H21c.5 0 .6-.1.7-.3.2-.3.4-.5.5-.5s.8.6.9.7c.4.3.4.4.4.6 0 .1-.1.2-.2.3-.3.2-.4.2-.4.3-.2.3-.2 4-.2 4.6 0 .4.1 3.7.1 4 0 1 0 1.7-1.1 1.7-.5 0-.5-.2-.5-.5 0-.2-.2-.4-.5-.4h-1.1zm0-10c-.2 0-.6 0-.7.5-.1 1.1-.1 6.7-.1 8.3 0 .4.2.6.7.6h1.2c.2 0 .6 0 .7-.5.1-1.3.2-6.8.2-8.3 0-.3-.1-.6-.7-.6h-1.3zm10.4 5.6c-.2 0-.4.1-.4.4 0 .5 2.4 4.5 6.4 6.4.1.1.9.3.9.4 0 .1-.2.1-.3.1-.4 0-.7.1-1 .3-.2.1-1 .6-1.1.6-.1 0-3-1.7-4.9-6.1-.2-.4-.2-.4-.3-.4-.2 0-.2.1-.2.4 0 .2.2 6.4.2 7.2 0 .3 0 1.4-1 1.4-.6 0-.6-.4-.6-.7 0-.6.2-3.7.2-4.4V104c0-.1-.1-.2-.2-.2s-.2.1-.2.1c-.7 1-1.5 1.9-2.5 2.8-2.3 2-5.1 3.4-5.3 3.4h-.1c0-.1 2.2-1.9 2.6-2.3 3.1-2.7 4.8-5.5 4.8-5.8 0-.3-.1-.3-.8-.3-.1 0-1.5 0-2 .1-.1 0-.4.1-.5.1-.1 0-.1-.1-.2-.2l-.4-.5c-.1-.1-.1-.1-.1-.2s0 0 .1 0 .8.1 1 .1c.9 0 1.8.1 2.7.1h.4c.2 0 .5 0 .6-.4v-2.6c0-.2 0-.7-.6-.7-.7 0-1.8 0-2.4.1h-.5c-.1 0-.1 0-.2-.1l-.4-.5c-.1-.1-.1-.1-.1-.2h.1c.1 0 .7.1.8.1.3 0 2.2.1 2.6.1s.7 0 .7-.7c0-.6-.1-2.1-.1-2.8 0-.1-.2-.8-.2-.9 0-.1.1-.2.2-.2s2.1.3 2.1.7c0 .1-.4.4-.5.5-.1.2-.1.3-.1.8v2c0 .3 0 .6.7.6h1.2c.9 0 1.2 0 1.4-.4.4-.7.5-.7.7-.7.2 0 1.6 1.2 1.6 1.4 0 .3-.4.3-1.2.3h-3.7c-.2 0-.5 0-.6.4v2.6c0 .6.4.6.7.6h2.6c1.1 0 1.2 0 1.5-.6.4-.6.4-.8.6-.8.2 0 1.8 1.4 1.8 1.6 0 .3-.4.3-1.2.3H30zm-1.9 23.3c-.4 0-.7.1-.9.6-.7 1.6-1.5 2.5-1.8 2.8 0 0-.1.1-.1.2 0 .2.2.2.3.2h6.3c.4 0 .8-.1 1.2-.5.2-.2.4-.4.5-.4.1 0 1.7.8 1.7 1.2 0 .3-.2.4-.5.6-.2.2-.2.3-.2 1.7 0 .7.2 4.6.2 4.7 0 .8-.9 1.1-1.2 1.1-.6 0-.6-.3-.6-1 0-.6-.4-.6-.7-.6H20.8c-.7 0-.7.4-.7.6 0 1.1-1.1 1.1-1.3 1.1-.4 0-.5-.2-.5-.5 0-.2.1-1 .1-1.1.1-1 .1-3.3.1-3.8 0-1.4 0-2-.1-2.9 0-.1-.2-.7-.2-.8 0-.2.1-.2.2-.2.2 0 .5.1 1.1.4 1.3.6 1.7.6 2 .6h2.4c.2 0 .5 0 .7-.4.5-.8.8-2.7.8-2.9 0-.6-.5-.6-.7-.6h-1.8c-.1 0-.5 0-.7.4-.2.4-.4.8-1.1.8-.5 0-.5-.4-.5-.5 0-.5.2-2.8.2-3.3 0-1.3-.2-3.1-.2-3.5 0-.1-.2-.7-.2-.9 0-.1 0-.1.2-.1.1 0 .3.1 1.4.7.7.4 1.1.4 1.4.4H30c.7 0 1-.4 1.1-.4.4-.4.4-.5.5-.5.1 0 1.6.8 1.6 1.1 0 .2-.1.3-.3.4-.4.3-.4.3-.4.7 0 .4.1 3 .1 3.6 0 .2.1 1 .1 1.2 0 .9-.9 1.1-1.2 1.1-.5 0-.5-.3-.6-.7 0-.2-.2-.4-.5-.4h-2.3zm4.1 9.9c.5 0 .7-.4.7-.6v-4.3c0-.6-.3-.7-.7-.7H20.8c-.2 0-.4 0-.6.2-.1.2-.1 3.1-.1 3.5 0 1.7 0 1.9.7 1.9h11.4zm-2.1-10.5c.7 0 .7-.2.7-1.8v-2.8c-.1-.5-.5-.5-.7-.5H23c-.2 0-.6 0-.7.4v2c0 .2 0 2.3.2 2.5.2.2.4.2.6.2h7zm-3.8 24.5c0 .7-1.7 1.4-2.2 1.6-.3.1-.3.2-.4 1v2.4c0 .1 0 .4.2.4.1 0 1.9-.7 2.2-.9 2.2-.8 3.2-.9 3.7-.9 1.6 0 3.4 1.3 3.4 3.3 0 2.9-3.1 4.2-4.9 4.2-1.3 0-2.3-.6-2.3-1.8 0-1 .9-1.7 1.1-1.7.1 0 .1.1.1.1 0 .1 0 .1-.1.2s-.2.3-.2.6c0 1.1 1.2 1.1 1.4 1.1 1.5 0 3.3-1 3.3-2.7 0-1.6-1.2-2.4-2.1-2.4-.6 0-2 .3-4.6 1.6-1.2.7-1.4.7-1.4 1.1 0 .2.1 1.2.1 1.5 0 1-.3 2.5-1.1 2.5-.6 0-.8-.5-1-.8-.7-1.4-.8-1.4-1.1-1.4-.2 0-.4.1-.5.1-.1.1-.7.4-.8.4-.2 0-1.4-.7-1.4-1.4 0-.4.2-.9.6-.9.1 0 .8.1.9.1.6 0 1-.1 2.3-.7 1.1-.6 1.3-.6 1.3-1.2v-2.8c0-.2-.1-.5-.3-.5-.3 0-.9.2-1 .2-1.1.4-1.2.4-1.6.4-.7 0-1.6-1.5-1.6-1.7 0-.1.1-.2.2-.2s.3.1.4.1c.4.1.7.1 1 .1.8 0 2.7-.5 2.8-.7.1-.2.2-2.2.2-2.4 0-.7-.1-1.1-.7-1.8 0 0-.3-.3-.3-.4 0-.2.4-.2.5-.2 1.5 0 2.3 1.1 2.3 1.5 0 .2-.4 1-.5 1.1 0 .2-.2 1-.2 1.4 0 .1 0 .2.2.2s.8-.2.8-.5l-.1-.3s0-.1.1-.1c.2.2 1.3.5 1.3 1.2zm-5 8.4c0 .3.6 1 .9 1 .3 0 .6-.6.6-1.7 0-.1 0-.3-.1-.4 0 .1-1.4.8-1.4 1.1zm14.4-6.8c0 .5-.3 1.1-.7 1.1h-.7c-.1 0-.6.2-.7.2 0 0-.1 0-.1-.1l.1-.2c0-.1.1-.2.1-.4 0-.9-1.1-1.2-1.8-1.2-.4 0-.6.1-.9.2-.1 0-.2.1-.2.1-.1 0-.1 0-.1-.1 0-.2.9-1.4 2.4-1.4 1.6-.1 2.6.8 2.6 1.8zm-11.5 19.1c.2.7.2.9.7 1 1 .1 1.4.2 1.4.8 0 .5-.5.9-1.2 1.2-.2.1-1.3.4-1.5.5-.3.2-.4 1.6-.4 1.8 0 .2.1.3.2.5.5.6.7.9.7 1.8 0 1.7-1 2.6-1.2 2.8-.2.2-.3.2-.3.5 0 .2.2 1.1.2 1.3 0 .1 0 .5-.5.7-.4.2-.5.2-.5.5 0 1.1 1.3 1.6 3.7 1.6 4 0 4.5-1.1 4.6-4.9 0-1.9.1-5.8 2.5-5.8 1.4 0 2.8 2.6 2.8 3.8 0 .7-.5 1-.7 1-.2 0-.9-.5-1.1-.6-.2-.1-1.4-.3-1.4-.5s.8-.3.9-.4c.3-.2.4-.4.4-.8 0-.9-.6-2-1.3-2-1.3 0-1.5 1.9-1.5 4.3 0 .7.1 1.9.2 2.6 0 .3.4 1.9.4 2.3 0 2.3-4.4 2.4-5.6 2.4-4.3 0-4.6-1.9-4.6-2.5 0-.2.2-1.1.2-1.3 0-.3 0-.3-.5-.8-.5-.6-1.3-2.2-1.3-3.5 0-.3 0-2 1.8-2.8.1 0 .7-.2.8-.2.2 0 .2-1.2.2-1.3 0-.3-.1-.3-.2-.3-.2 0-1.3.3-1.6.3-.7 0-1.7-1-1.7-1.8 0-.1 0-.3.2-.3s1 .2 1.2.3c.4.1.8.1 1.3.1 1 0 1.2 0 1.2-.8 0-.4-.1-.9-.4-1.5-.1-.1-.5-.7-.5-.8 0-.3.5-.2.7-.2.6.1 1.6.4 1.7 1zm-2.4 6.7c-.5 0-1.2.6-1.2 1.8 0 .8.4 1.6 1 1.6.3 0 .4-.3.4-.5.1-.3.3-1.8.3-2.2 0-.5-.2-.7-.5-.7zm2.1-5c0 .2 0 .2.2.2 0 0 .7-.2.7-.4s-.2-.4-.5-.4h-.2c-.2.2-.2.5-.2.6zm-4.5 27.4c1.5 0 4.4-.5 6-.7 1.1-.2 1.3-.2 1.3-.8 0-1.1-.1-2.4-.3-3 0-.1-.4-.5-.4-.6 0-.2.3-.2.5-.2 1 0 1.8.4 1.8 1.1 0 .1-.1.6-.1.7 0 .5.6.8 1.9 1.4.5.2 1.1.4 1.9.4.2 0 1.1-.1 1.3-.1.3 0 1.3.1 1.3.9 0 .6-.4.8-1.2.8-.5 0-2.5-.2-2.9-.2-.5 0-2 0-2.4.2-.3.1-.4.4-.4 2.4 0 .6 0 .8.3 1.4.4.9.6 1.7.6 3 0 4.3-3.3 7-4 7 0 0-.1 0-.1-.1 0 0 .9-1.1 1.1-1.3.6-.9 1.2-2.3 1.2-3.2 0-.1 0-.3-.2-.3h-.5c-1.2 0-2.2-1.1-2.2-2.9 0-.3 0-2.7 2.1-3 .6-.1.6-.2.6-1.3 0-1.2 0-1.3-.4-1.3-.2 0-2.5.4-3.9.9-.4.1-2 .9-2.4.9-.5 0-2.3-.9-2.3-1.8 0-.1 0-.2.1-.2.3-.2 1.4-.1 1.7-.1zm6.5 3.6c-.5 0-1.3.9-1.3 2 0 1.2.9 1.8 1.4 1.8.9 0 .9-1.3.9-1.7 0-.8-.2-1.4-.3-1.5 0-.1-.2-.6-.7-.6zM28 197c0 .4.1.4.4.4.1 0 1.5 0 1.5-.4 0-.2-1.5-1.2-1.7-1.2-.2.1-.2.6-.2 1.2zm-4.8 24.1c1.3-.5 1.4-.5 1.7-.5.5 0 .7.5.7.6 0 .5-.4.6-1.2.9-1.5.5-4.2 6-4.2 8.7 0 .9.5 3.6 3.4 3.6 2.2 0 3.8-1.4 4.4-2.4 1.5-2.5 1.5-7.2 1.5-7.9 0-.9 0-1.5-.3-2.4-.3-1-.3-1.1-.3-1.3 0-.6.5-.8.7-.8.7 0 .8.4 1.2 2.6.2 1 .8 3.2 2.8 4.5 1.2.8 1.4 1.1 1.4 1.5 0 .5-.4.9-.8.9-1 0-2-1.7-2.6-2.8-.2-.4-1.3-2.5-1.4-2.5-.1 0-.1.2-.1.3 0 2.6 0 4.8-.6 7.2-.9 3.6-4 4.9-6.1 4.9-2.7 0-4.7-2-4.7-4.6 0-2.3 1-4.5 2.1-6.4.1-.2 1.2-2.2 1.2-2.2 0-.1-.1-.1-.2-.1-.2 0-1.1.5-1.3.5-.8 0-1.2-1.5-1.2-1.5 0-.1 0-.2.1-.2s.9.1 1 .1c.3-.1 1.6-.3 2.8-.7zm11.5.3c0 .3-.3.8-.7.8-.4 0-.5-.2-1.1-1.1-.3-.5-.6-.7-1.4-1.5-.1-.1-.3-.2-.3-.3 0-.1.2-.2.4-.2 1.4.1 3.1 1.3 3.1 2.3zm1.8-2c0 .2-.2.6-.6.6-.5 0-.7-.3-1.1-.8-.3-.4-1.2-1-1.9-1.3-.2-.1-.3-.2-.3-.2 0-.2.4-.3.8-.3 1.7.1 3.1 1 3.1 2zm-14.1 29.9c-.1-.2-.2-.2-.2-.3 0-.1.1-.1.2-.1 1.2 0 2.8 1.3 2.8 1.9 0 .2-.1.3-.4.5-.3.2-.5.4-.9 1-2.7 3.8-6.4 5.2-6.7 5.2-.1 0-.2-.1-.2-.2s.1-.2.6-.6c3.4-2.8 4.9-5.9 4.9-6.6.1-.5 0-.6-.1-.8zm6.3-.2c.1 0 1.1.4 2.2 1.1 1.6 1.1 3.5 3.1 3.5 4.6 0 .3-.2 1.3-1.1 1.3-.8 0-1.2-.8-1.5-1.9-.5-1.5-.9-2.4-2.3-3.9-.2-.2-1-.9-1-1 0-.1.1-.2.2-.2zm6-.4c0 .4-.3.9-.6.9s-.5-.1-1.2-1c-.3-.4-.5-.5-1.5-1.3-.2-.2-.3-.2-.3-.3 0-.1.2-.2.4-.2 2.5-.1 3.2 1.4 3.2 1.9zm2-2.2c0 .3-.2.6-.5.6-.5 0-.7-.3-1.1-.8-.4-.4-1.3-.9-2-1.2-.2-.1-.3-.2-.3-.2 0-.2.6-.3.8-.3 2.6 0 3.1 1.5 3.1 1.9zm-9.5 29.1c.9.5.9.6.9.8 0 .1-.2.7-.3.9-.1.4-.1.9-.1 3.9 0 .6 0 1.8.1 2.6 0 .3.2 1.5.2 1.8 0 .2 0 1-.5 1-.6 0-1.4-.9-1.4-1.5 0-.2.2-1.2.2-1.4.1-1.2.2-2.9.2-4 0-.8 0-3.1-.6-3.1-.1 0-.2.1-.4.3-2.2 2.1-5.9 4.2-6.2 4.2-.1 0-.1 0-.1-.1s0-.1.1-.2c.6-.5 1.2-1 1.5-1.3 5.2-4.4 6.9-8.2 6.9-8.8 0-.2-.1-.4-.2-.6 0 0-.2-.3-.2-.4 0-.1.1-.2.2-.2.3 0 2.6.9 2.6 1.8 0 .2-.1.4-.2.4-.6.5-.7.6-1.5 1.8-.4.5-1.1 1.3-1.5 1.8l.3.3zm2.3 35.2c0 .4-.2.8-.5.8-1 0-1.3-1.9-1.5-2.8-.1-.6-.6-2.9-.7-3.5-.1-.4-.2-.7-.6-.7-.1 0-2.7.6-3.8 1-.2.1-1.1.6-1.3.6-.3 0-2.5-1-2.5-1.6 0-.2.2-.2.3-.2.2 0 1.1.1 1.3.1 1.7 0 3-.3 5.3-.7.6-.1.7-.2.7-.6 0-.4-.2-1-.5-2.2-.1-.6-.2-.8-.6-.8-.5 0-3 .8-3 .8-.5 0-2-.8-2-1.2 0-.2.2-.2.4-.2.5 0 2.1-.1 3.4-.4.8-.2 1.1-.3 1.1-.7 0-.1-.3-2.2-1.3-3-.2-.1-1-.7-1-.8 0-.1.7-.4 1.1-.4.4 0 2 .5 2 .9 0 .3.1 1.6.1 1.8.2 1.4.4 1.4.7 1.4.2 0 1.6-.5 1.9-.6.9-.4 1.1-.5 1.4-.5.7 0 1.3.5 1.3.8 0 .4-.4.5-2 .8-1.8.4-2 .4-2.2.5-.4.1-.4.3-.4.6 0 .4.3 1.5.4 2 .2.7.3.9.7.9.4 0 2.3-.6 2.8-.8.7-.3 1.2-.5 2.2-.5 1.2 0 1.7.6 1.7 1 0 .7-.9.7-1.7.7-1.3 0-3.3.5-4 .6-.9.2-1 .3-1 .7.2.7 1.8 5.2 1.8 6.2zm-3.1 21.6c-.6.4-1.7 1.3-2.2 1.8-.4.5-.5.5-.8.5-1.2 0-2.8-1.4-2.8-2.3 0-.2 0-1.2.2-1.2.1 0 .6.4.7.4.3.2 1 .5 1.5.5 1.1 0 6.9-3.9 10.6-7.5l1-1 .1.1c0 .3-2.6 4.4-8.3 8.7zm-1.8-7.3c-.6 0-.8-.4-1.5-1.5s-1.4-1.5-2-1.8c-.1 0-.2-.1-.2-.2s.2-.2.5-.2c2.4 0 4.2 1.3 4.2 2.6-.1.7-.5 1.1-1 1.1zm-.5 21c0-.2.3-.2.5-.2 1.5 0 2 1.1 2 1.2 0 .3-.2.6-.7 1.1-.1.2-.2.2-.2.4s.3.2.4.2c.2 0 1.8-.2 3.3-.9.3-.1.8-.4 1-.4.2 0 .3.1 1.2.6.1.1.7.4.8.4.2.2.4.4.4.5 0 .3-.2.4-.9.8-.2.2-.3.3-1.1 1.5-1.1 1.8-3.5 5.4-7.9 8.3-2.4 1.6-4.2 2.1-4.4 2.1-.1 0-.2-.1-.2-.2s.1-.1.7-.5c6.7-3.7 10.9-11.2 10.9-11.9 0-.2-.2-.2-.2-.2s-3.1.7-3.6.7c-.1 0-.7-.1-.9-.1-.4 0-.5 0-1.4 1.1-1.3 1.5-1.9 2.1-3 2.9-.9.7-1.8 1.2-2.1 1.2-.1 0-.2-.1-.2-.1 0-.2 1.5-1.4 1.7-1.7 1.8-1.8 3.9-4.8 3.7-6.1.3-.1.2-.6.2-.7zm10.4.8c0 .4-.3.9-.6.9s-.5-.1-1.2-.9c-.4-.5-.7-.7-1.6-1.3-.1-.1-.3-.2-.3-.3s.2-.2.4-.2c2.8-.1 3.3 1.5 3.3 1.8zm.5-3.3c.9.5.9 1 .9 1.3 0 .3-.2.6-.5.6-.5 0-.7-.2-1.2-.7-.4-.4-1.3-.9-2-1.1-.2-.1-.3-.2-.3-.2 0-.2.6-.3.8-.3.8-.1 1.5-.1 2.3.4z"/></g></g></g></svg>