<svg version="1.1" id="レイヤー_1" xmlns="http://www.w3.org/2000/svg" x="0" y="0" viewBox="0 0 114 438" xml:space="preserve"><g><path d="M83.1 130.1c.6-.8.8-1 1.4-1.7.9.8 1.2 1.1 2 1.9.1.1.1.2.1.3s-.1.1-.3.1h-3.8v2c.4.3.4.3 1.5 1 .8.6 1.3 1.2 1.3 1.8 0 .7-.5 1.5-.9 1.5-.2 0-.3-.2-.4-.6-.3-1.3-.8-2.4-1.4-3.2v16.2c-.1.4-.3.4-1.5.4-.3 0-.4-.1-.4-.3v-.1c.1-4.3.1-4.4.1-6v-2.2c0-1.6 0-2.7.1-3.3l.3-4.1c-.8 2.4-1.2 3.6-2.1 5.4-.9 1.7-1.4 2.5-2.6 4l-.3-.2c1.5-2.9 2.4-5.1 3.2-7.4.5-1.6.5-1.6 1.2-4.9h-1.5c-.8 0-1.5.1-2 .2l-.2-1.1c.7.1 1.4.2 2.2.2H81v-3c0-1.2 0-1.7-.2-2.8 2.7.4 3 .5 3 .8 0 .2-.3.4-1 .6v4.6h.3zm10.6 2.7h3.4c.6-.8.8-1 1.3-1.6 1 .8 1.3 1 2.2 1.9.1.1.1.2.1.3s-.1.1-.3.1h-6.9v3.1h5.1c.7-.8.9-1.1 1.6-1.8 1.1.8 1.4 1.1 2.5 2 .1.1.1.2.1.3 0 .1-.1.1-.3.1h-8.9c.8 2.1 1.2 3 2.4 4.4 1.1-1.1 1.8-2.1 2.7-3.9 1.9 1.1 2.7 1.7 2.7 1.9 0 .1-.2.3-.4.3h-.3c-.1 0-.4 0-.7-.1-1.5 1-2 1.3-3.7 2.2 1.7 2 3.7 3.2 6.4 4.4v.3c-1.1.3-1.3.4-2.1 1.8-2-1.4-3-2.4-4.6-4.7-1.1-1.7-1.8-3-2.5-5.2v3.6c.1 1.2.1 2.2.1 2.9 0 1.1.1 1.3.1 2.4 0 .9-.2 1.4-.7 1.8-.4.3-.9.5-2.4.7-.3-.8-.5-1.1-1.1-1.4-.6-.3-1.4-.4-2.7-.6v-.4c1.7.1 1.8.1 4.6.1h.1c.3 0 .3-.1.3-.4v-4.1c-2.5 1.6-3.8 2.3-6.4 3.6-.1.9-.2 1.1-.4 1.1-.3 0-.5-.5-1.3-2.7 2.6-.5 5.5-1.4 8.1-2.6v-5.3H88c-1.4 0-1.9.1-2.5.3l-.2-1.1c.7.2 1.5.3 2.7.3h3.8v-3.1h-3.5c-1 0-1.7.1-2.2.2l-.2-1.1c.6.2 1.7.3 2.4.3h3.5V130h-3.2c-.9 0-1.4.1-2.2.2l-.2-1.1c.9.2 1.6.3 2.4.3h5.2c1.2-1.7 1.8-2.9 2.5-4.8 2.2 1 2.7 1.3 2.7 1.5 0 .3-.2.3-1.3.4-1.3 1.3-1.9 1.9-3.3 2.9h3.8c.6-.8.7-1 1.3-1.7 1.1.8 1.4 1.1 2.4 2 0 .1.1.1.1.2s-.1.2-.2.2h-8.3v2.7zm-7.5 5.1c.9.4 1.7.9 2.5 1.5s1.1 1 1.1 1.5c0 .9-.5 1.8-1 1.8-.2 0-.4-.2-.6-.6-.8-2.1-1.2-2.7-2.3-3.9l.3-.3zm1.9-13.5c1 .6 1.8 1.1 2.6 1.7.7.5.9.8.9 1.3 0 .8-.5 1.6-1 1.6-.3 0-.3-.1-.8-1.1-.5-1.2-.9-1.9-2-3.2l.3-.3zm-9.9 53.4c2.4-2.1 4.7-4.7 6.8-7.7 1.6-2.4 2.6-4.2 2.6-5 0-.5-.5-1.1-1.3-1.6.3-.1.5-.2.8-.2.6 0 1.3.3 2.5 1.1.6.4.8.6.8 1s0 .4-.7 1.1c-.2.2-.2.2-.6.7-.4.6-.6.9-1.3 1.7h.7c.5 0 3.7-.3 5.3-.5.4 0 .5-.1.9-.4.3-.2.6-.4.8-.4.5 0 2 1.6 2 2.2 0 .1-.1.3-.3.4-.1.1-.4.2-.9.4-2.2 3.2-3.8 5-6.2 7.4l.4.3c2.4 1.6 3.1 2.5 3.1 3.8 0 .9-.3 1.5-.8 1.5-.3 0-.6-.2-.9-.8-1.8-2.8-4.4-5.2-7.5-7.1l.2-.4c2.3.9 3.1 1.3 4.7 2.3 2.3-3 3.8-5.3 5.1-8.1-1.1.2-2.1.4-2.6.4-.9.2-1.6.3-2 .4-.4.1-.7.1-.9.1-.4 0-.8-.2-1.5-.7-2.5 3.4-5.9 6.6-8.9 8.5l-.3-.4zm.9 25.2c1.3 1.3 2.1 1.6 3.5 1.6.7 0 1.5-.1 2.5-.3.7-1.8 1-3 1-4 0-.9-.4-1.5-1.8-2.2.3-.2.4-.2.7-.2.6 0 1.4.3 2.2.6 1 .5 1.3.8 1.3 1.2 0 .2-.1.4-.3.7l-1.7 3.4c2.1-.7 2.3-.9 3.1-1.5.2-.2.3-.2.6-.2 1.1 0 1.9.4 1.9.8 0 .7-1.7 1.4-6.2 2.5-.3.6-.7 1.7-1.5 3.4-.8 1.9-3 6.6-3.2 7.1-.4.8-.7 1-1 1-.5 0-.9-.9-.9-2 0-.6.1-.7.3-1 .6-.7 1-1.1 1.3-1.7 1.4-2 2.4-3.9 3.5-6.6-.6.1-.9.1-1.3.1-1 0-1.8-.2-2.5-.6-.8-.5-1.5-1.1-2-2l.5-.1zm14.8 1.6c1.9.2 3.5.7 4.8 1.5 1.1.7 1.8 1.5 1.8 2.2 0 .5-.3.8-.7.8-.2 0-.4-.1-.6-.2-.8-.5-1.3-.6-2.7-.6-2.2 0-2.9.6-2.9 2.5 0 .8.1 2 .6 4.8 1.7.5 3.2 1.2 4 1.8.8.6 1.1 1.3 1.1 2.2 0 .6-.2 1-.6 1-.3 0-.4-.1-1-.7-1-1.1-1.9-1.8-3.4-2.5v.5c0 1.1-.2 1.8-.8 2.4-.8.8-2.1 1.2-3.6 1.2-2.5 0-4.3-1.2-4.3-3 0-2 2.1-3.3 5.2-3.3.6 0 1 0 1.7.1-.1-2.2-.1-2.4-.1-2.8 0-2.3.2-3.2 1-4 .6-.6 1.3-1 2.7-1.3.4-.1.5-.1 1.5-.4-.8-.8-1.6-1.3-3.6-1.9l-.1-.3zm-1.5 12.3c-.9-.3-1.5-.3-2.4-.3-2.4 0-3.8.8-3.8 2.1 0 1 1.1 1.7 2.8 1.7 2.3 0 3.4-.9 3.4-2.7v-.8zM82 248.4c-.3 2.1-.9 4-1.8 5.8-1.1 2.1-2.2 3.5-4 5l-.3-.3c1.8-2.3 2.9-4.5 3.6-7.5.5-2.2.6-3.5.7-7.5 0-1.3.1-5.2.1-6.3 0-1.5 0-2.3-.1-3.6 1 .6 1.3.8 2.2 1.4h15c.5-.6.6-.8 1.1-1.3.8.6 1 .7 1.8 1.3.2.2.3.3.3.4 0 .2-.2.3-1 .8v13c0 2.4 0 3.5.1 7.1-.1.7-.3 1-.9 1.3-.5.3-1.1.5-2.5.7-.4-1.7-.6-1.8-3.7-2.2v-.4c1 .1 1 .1 2.7.1 1 .1 1 .1 1.8.1h.2c.3 0 .3-.1.3-.4v-7.7h-6.9v5.9c0 1.3 0 1.3.1 2.4 0 .4-.3.6-1.1.6h-.4c-.4 0-.6-.1-.6-.4 0-1.7.1-4.8.1-5.9v-2.5H82zm6.8-6.4h-6.6c0 2.6-.1 4.1-.2 5.8h6.7V242zm0-5.9h-6.6v5.1h6.6v-5.1zm8.8 5.3v-5.2h-6.9v5.2h6.9zm0 6.4V242h-6.9v5.8h6.9zm-21 33.7c.8.1 1.9.2 2.4.2h1.3c.5-.5.6-.7 1.1-1.3.7.5.9.7 1.6 1.3.2.2.2.2.2.3 0 .2-.3.4-.8.8v6.8c.4 1.2 1 1.8 2 2.3 1.4.7 3.4 1 6.4 1 2.3 0 8.8-.3 11.8-.4v.3c-1.1.4-1.5 1-1.6 2.1-9 0-10.4 0-12.2-.2-2.5-.2-4.2-.9-5.5-2.2-.9-.8-1.2-1.4-1.6-3-1.1 1.5-2.8 3.7-3.4 4.4v.7c0 .4-.1.7-.4.7-.1 0-.2-.1-.3-.3-.3-.6-.9-1.8-1.3-2.9 1.4-.6 2.9-1.5 4.2-2.5v-7.3H79c-1 0-1.3 0-2.1.2l-.3-1zm.8-10.8c2 1 3.6 2 4.6 3 .4.4.6.8.6 1.1 0 .4-.2 1.3-.4 1.7-.2.4-.4.6-.6.6s-.4-.1-.6-.5c-1.3-2.5-2.5-4.1-4-5.5l.4-.4zm5.8 8.5c2.4-1.6 4-3.1 5.9-5.2 1.3-1.6 2-2.6 3-4.5.9.2.9.2 2.3.7.3.1.5.3.5.4 0 .3-.2.3-1.3.4.8 1.2 1.1 1.7 2 2.4 1.4 1.2 3.1 2.2 4.7 2.8.8.3 1.4.4 2.7.6v.4c-.5.1-.7.3-1 .7-.3.4-.4.6-.6 1.2-1.8-.7-3.3-1.7-4.8-3.1-1.2-1.2-2.1-2.3-3.5-4.5-2.7 3.8-5.3 5.9-9.7 8l-.2-.3zm.6 11c2-2.4 3.2-4.1 4-6.4 2.4.6 2.9.8 2.9 1 0 .2-.3.3-1.3.4-1.9 2.4-3.1 3.6-5.3 5.2l-.3-.2zm10-8.2h3.9c.6-.8.8-1.1 1.5-1.8 1 .9 1.4 1.2 2.4 2.2l.1.1c0 .1-.1.1-.3.1h-7.7v7.3c0 .7-.2 1-.6 1.3-.4.3-1.1.5-2.2.6-.1-.6-.2-.8-.6-1.2-.3-.2-.8-.4-1.6-.5l-.6-.1-.4-.1v-.3c1 .1 2.9.2 3.6.2h.3c.3 0 .3-.1.3-.4v-6.8h-5.2c-.8 0-1.1 0-2 .1l-.4-1c1.6.2 1.8.2 2.3.2H92v-3.6h-2.4c-.1 0-.4 0-.8.1-.1 0-.4 0-.7.1l-.3-1c.7.1 1.3.2 1.8.2h4.6c.6-.6.8-.8 1.3-1.5.9.7 1.2.9 2.2 1.7.1.1.1.1.1.2s-.1.2-.3.2h-3.8v3.7zm2 2.1c1.3.7 2.8 1.7 3.9 2.5.8.7 1.1 1.1 1.1 1.7 0 1.1-.4 2.1-.9 2.1-.3 0-.3 0-.8-1.1-1-2-1.9-3.2-3.5-4.9l.2-.3zm-16.7 29c.4.4.7.5 1.3.5.8 0 1.5-.1 7.8-1.7 1-.3 2.6-.6 4.5-1 2-.4 2.9-.6 3.8-.9.6-.2.8-.2 1-.2.3 0 1 .3 1.5.6.6.3.8.7.8 1.1 0 .4-.3.7-.9.7h-.5c-.3-.1-.5-.1-.8-.1-4.8 0-9.4 4.6-9.4 9.4 0 2.5 1.3 4.5 3.7 5.5.9.4 2 .6 2.8.7.6 0 .8.1 1.2.4.5.5.8 1 .8 1.3 0 .4-.4.8-1 .8-1.6 0-4.1-.9-5.7-2-2.1-1.5-3.2-3.7-3.2-6.3 0-2.3 1.1-4.8 3.1-6.8 1.1-1.2 2.2-2 4.6-3.2-3.5.4-9.9 2.3-12.5 3.8-.6.3-.8.4-1.1.4-.7 0-1.5-.6-2.2-1.7-.4-.7-.7-1.4-.7-1.9 0-.2.1-.4.3-.8.1.7.3 1.1.8 1.4zm16.6 2.6c1 .6 1.8 1.1 2.5 1.7 1 .9 1.4 1.6 1.4 2.2s-.4 1.2-.9 1.2c-.4 0-.4 0-1.2-1.8-.5-1-1.4-2.2-2.2-3l.4-.3zm2.9-1.7c1 .4 1.8 1 2.7 1.6 1.1.8 1.4 1.4 1.4 2.2 0 .7-.3 1.1-.7 1.1-.3 0-.4-.1-.6-.5-1-1.8-1.5-2.5-3.1-4l.3-.4zm-80.9-65.3c-.1.6-.1.9-.1 1.3 0 3.3 2.1 4.9 6.6 4.9 2.2 0 4.5-.4 6.2-1 .1-.1.3-.1.5-.1.4 0 1.1.2 1.5.6.4.3.6.6.6 1s-.3.7-.9.9c-1.3.3-4 .6-6.5.6-3.1 0-5.1-.4-6.5-1.3-1.4-.9-2.3-2.7-2.3-4.4 0-.7.1-1.4.4-2.4l.5-.1zm.9-11c1.4 1 2.4 1.2 4.3 1.2 1.8 0 4.2-.3 5.8-.8.2-.1.4-.1.5-.1.7 0 1.7.8 1.7 1.5 0 .5-.2.6-2 1-1.5.3-3 .9-7.5 2.8l-.2-.4c.8-.5 1.3-.8 2-1.2l1.8-1 .5-.3c-.6.1-1.6.1-2.1.1-1 0-2.3-.3-3.2-.8-.7-.4-1.2-.8-2-1.6l.4-.4zm12.8-2.5c1 .6 1.8 1.1 2.5 1.7 1 .9 1.4 1.6 1.4 2.2s-.4 1.2-.9 1.2c-.4 0-.4 0-1.3-1.8-.5-1-1.4-2.2-2.1-3l.4-.3zm2.9-1.6c1 .4 1.8 1 2.7 1.6 1.1.8 1.5 1.4 1.5 2.2 0 .7-.3 1.1-.7 1.1-.3 0-.4-.1-.6-.5-1-1.8-1.5-2.5-3.1-4l.2-.4zm-13.7 44.5h2.2c.6-.8.7-1 1.3-1.8 1 .9 1.3 1.1 2.2 2 .1.1.1.2.1.2 0 .1-.1.2-.3.2h-5.5v2.7c1.8.8 2.5 1.2 3.4 1.8 1 .7 1.3 1.1 1.3 1.7 0 1-.4 1.8-.8 1.8-.2 0-.3-.1-.4-.4-.5-1.1-1.3-2.3-2-3.1-.4-.4-.7-.7-1.4-1.3v4.2c0 3.2 0 3.3.1 8.8 0 .2-.1.3-.2.3-.2.1-1 .2-1.5.2-.2 0-.3-.1-.3-.3.1-3.8.1-3.8.1-9l.1-5.5c-1.9 4.1-3.3 6.2-6 9.1l-.3-.3c1.7-2.5 2.5-4.1 3.7-6.6.8-1.7 1.1-2.5 1.7-4.4h-3.2c-.5 0-1 0-1.5.1l-.2-1c.8.1 1.3.2 2 .2h3.6v-4.4c-2.3.5-3.1.6-5.2.9l-.1-.4c2.2-.6 4.1-1.2 6.3-2.2 1.6-.6 2.1-.9 3.1-1.6 1.6 1 2.4 1.7 2.4 1.9 0 .1-.1.2-.3.2-.1 0-.7-.1-1.2-.2-1.4.5-1.8.7-3.1 1v5.2zm10-5c0 .2-.1.3-1 .6 0 11.4 0 11.4.1 15.1 0 .1-.1.2-.2.3-.2.1-1 .2-1.5.2-.2 0-.3-.1-.3-.3v-2.6c0-10.2 0-12.3-.1-14 2.9.3 3 .4 3 .7zm3.8.5c0-.9-.1-1.6-.1-3 2.4.4 2.6.4 2.9.5.2.1.3.2.3.3 0 .2-.2.3-1.1.7v15.1c0 .3.1 2.2.1 5.9 0 .8-.1 1.1-.7 1.5-.6.5-1.3.7-2.5.9-.1-.8-.3-1.1-.8-1.4-.3-.2-1-.4-1.8-.6l-1-.2-.8-.2v-.5c1.3.1 1.3.1 3.1.2 1.2 0 1.2 0 2.1.1.4 0 .5-.1.5-.4v-.1l-.2-18.8zM18 321.2c-.3 2.1-.9 4-1.8 5.8-1.1 2.1-2.2 3.5-4 5l-.3-.3c1.8-2.3 2.9-4.5 3.6-7.5.5-2.2.6-3.5.7-7.5 0-1.3.1-5.2.1-6.3 0-1.5 0-2.3-.1-3.6 1 .6 1.3.8 2.2 1.4h15c.5-.6.6-.8 1.1-1.3.8.6 1 .7 1.8 1.3.2.2.3.3.3.4 0 .2-.2.3-1 .8v13c0 2.4 0 3.5.1 7.1-.1.7-.3 1-.9 1.3-.5.3-1.1.5-2.5.7-.4-1.7-.6-1.8-3.7-2.2v-.4c1 .1 1 .1 2.7.1 1 .1 1 .1 1.8.1h.2c.3 0 .3-.1.3-.4V321h-6.9v5.9c0 1.3 0 1.3.1 2.4 0 .4-.3.6-1.1.6h-.4c-.4 0-.6-.1-.6-.4 0-1.7.1-4.8.1-5.9v-2.5H18zm6.8-6.4h-6.6c0 2.6-.1 4.1-.2 5.8h6.7v-5.8zm0-5.9h-6.6v5.1h6.6v-5.1zm8.8 5.3V309h-6.9v5.2h6.9zm0 6.4v-5.8h-6.9v5.8h6.9zm1.1 35.8c0 4.8 0 4.8.1 9.2 0 .9-.2 1.3-.9 1.7-.6.4-1.4.6-3.3.9-.1-.8-.3-1.1-.8-1.5-.6-.4-1.2-.5-3.6-.8v-.4c2.9.1 4.1.2 5.2.2h.8c.4-.1.5-.1.5-.5v-19.7H16.6c-.8 0-2.7.1-3.4.2l-.2-1.1c1.1.2 2.1.3 3.6.3h18c.7-.9.9-1.2 1.7-2.1 1.2 1 1.5 1.3 2.7 2.3.1.1.1.2.1.2 0 .1-.2.2-.4.2h-3.9v10.9zM19 361.8c0 .4-.2.5-1 .5h-.5c-.3 0-.4-.1-.5-.4.1-1.9.1-6.7.1-9.5 0-.3 0-1.6-.1-4 1.1.6 1.4.8 2.4 1.5h5.9c.5-.6.6-.8 1.2-1.3.8.6 1 .7 1.7 1.3.2.2.3.3.3.4 0 .1-.1.3-.9.7v1.8c0 2.7.1 5.6.1 8 0 .2-.1.3-.3.4-.2.1-1 .1-1.3.1-.3 0-.4-.1-.4-.4v-1.7H19v2.6zm0-3.2h6.7v-8H19v8zm2.4 23.2c1.1.8 2.2 1.8 2.9 2.5.6.7.8 1.1.8 1.8 0 1-.5 2.1-.9 2.1-.3 0-.4-.2-.6-1-.1-.4-.3-.8-.5-1.5-1.5.4-2.5.6-4.6.9-2.9.4-3.2.5-4.2.7-.1.9-.2 1.1-.6 1.1-.2 0-.4-.2-.4-.6 0-.2-.1-.5-.2-1-.1-.3-.1-.7-.2-1.3 1.2.1 1.6.1 2.7.1.9-1.7 1.7-4.2 2-6.2 2.4.4 3.3.7 3.3 1 0 .3-.4.4-1.4.6-1.3 2.1-1.4 2.3-3.1 4.5 3.5-.1 4.5-.1 6.4-.3-.4-1-.8-1.6-1.7-2.9l.3-.5zm-4.7 15.6v6.4c0 .3-.1.3-.3.4-.3.1-.8.1-1.2.1-.4 0-.5-.1-.5-.4v-.1c.1-2 .1-8.3.1-12.7 0-.6 0-1.3-.1-3.1 1 .4 1.3.6 2.1 1.1h5c.4-.5.6-.6 1-1.1.6.4.8.5 1.3 1 .3.2.4.3.4.5s0 .2-.7.7v11.9c-.1.8-.2 1.1-.7 1.5-.3.3-.8.4-2.2.7-.1-.6-.3-1-.6-1.2-.3-.2-.6-.3-2-.6v-.4c.8.1.8.1 1.9.1h1.4c.4 0 .4-.1.4-.4v-4.4h-5.3zm5.4-4.5v-3.1h-5.5v3.1h5.5zm-5.4.7v3.2h5.5v-3.2h-5.5zm11.5-8.5c2-1 4.9-3.4 6.1-5.1 1.8 1.4 2.4 1.8 2.4 2 0 .2-.2.3-.4.3s-.5-.1-1-.2c-1.8 1.3-3.7 2.3-7 3.6v2.5c0 .4.1.5.2.6.3.1 1.2.2 3.1.2 1.4 0 2.7 0 2.9-.1.3-.1.3-.1.6-1 .1-.3.3-.8.6-1.8.1-.4.3-.9.6-1.7h.3l-.2 3.4v.3c0 .4.1.5.4.6.7.2.9.4.9.8s-.4.8-1 .9c-.5.1-.5.1-3.6.2H31c-2.5 0-3.4-.1-3.9-.3-.5-.2-.7-.6-.7-1.4v-7.6c0-.5 0-.6-.1-2 2.3.3 2.9.4 2.9.7 0 .3-.4.5-1 .7v4.4zm0 12.6c1.1-.6 2-1.2 3-2 1.7-1.4 2.7-2.3 3.3-3.2.9.6 1.8 1.3 2.3 1.8.1.1.1.2.1.3 0 .2-.2.3-.4.3s-.4-.1-.9-.2c-2.3 1.5-4.5 2.7-7.4 3.8v3c0 .3.1.5.2.6.2.1 1.4.2 3.2.2 2.4 0 2.9-.1 3.2-.4.3-.3.4-.6 1.7-4.5l.4.1-.3 3.2v.7c0 .6 0 .6.8.7.3.1.5.3.5.6s-.3.7-.8.9c-.8.3-2.3.4-5.4.4-3.2 0-4-.1-4.6-.4-.4-.3-.6-.8-.6-1.5v-7.9c0-.5 0-.7-.1-2.2 1.3.1 2.4.3 2.7.4.1 0 .2.1.2.2 0 .2-.2.4-1 .8v4.3z" fill="#200701"/></g><line x1="89.5" y1="32.7" x2="89.5" y2="92.7" fill="none" stroke="#76544b" stroke-miterlimit="10"/></svg>