<svg version="1.1" id="レイヤー_1" xmlns="http://www.w3.org/2000/svg" x="0" y="0" viewBox="0 0 410 138.7" xml:space="preserve"><style type="text/css">.st0{fill:#8d8017}</style><g><g><g><path class="st0" d="M97.7 76.8l-1.8-1.4c-.9-.7-2.3-.7-3.1.1-.4.3-.7.6-.8.9h-.3c-1-.2-3.6-2.5-4.2-3.1-.7-.6-3.7-4-3-4.5.2-.2.5-.5.9-.8.8-.9.8-2.2.1-3.1l-1.4-1.8c-.1-.1-.2-.3-.4-.4-.1-.1-.1-.1-.2-.1-.2-.1-.5-.2-.7-.3h-.3c-.3 0-.6 0-.9.1-.8.2-1.4.7-1.7 1.5-.4.9-.7 2.2-.6 3.3v.2c.4 1.8 3.1 5.8 5.2 8.1l.1.1c0 .1.1.1.1.2l.7.7c2.2 2.1 6.4 5 8.3 5.4h.2c1.1.1 2.4-.3 3.3-.6.7-.3 1.3-.9 1.5-1.7.1-1.3-.3-2.2-1-2.8z"/></g><g><g><path class="st0" d="M113.9 58.8c2.3 0 4.2.9 5.8 2.7 1.9 2.2 2.9 5.6 2.9 10 0 4.2-.8 7.3-2.5 9.5s-3.7 3.3-6 3.3-4.1-.9-5.7-2.7c-1.9-2.3-2.8-5.6-2.8-10 0-4.1.9-7.4 2.7-9.9 1.4-1.9 3.3-2.9 5.6-2.9zm.1 1.3c-1.6 0-2.8.7-3.7 2.2-.9 1.5-1.3 4.6-1.3 9.3 0 4.6.5 7.7 1.4 9.2s2.1 2.3 3.6 2.3 2.7-.7 3.5-2.1c1-1.7 1.5-4.8 1.5-9.3 0-4.6-.5-7.7-1.4-9.3-.8-1.5-2-2.3-3.6-2.3zM129.7 80c-.5.7 2.1 1 8 1 .9 0 1.5-.2 1.9-.7.4-.5.8-1.7 1.3-3.8h1.2l-.6 7.4h-15.9v-1l5.2-5.9c2.9-3.1 4.6-5.1 5.2-5.9.8-1.1 1.4-2.3 1.8-3.3.4-1.1.6-2 .6-2.9 0-1.5-.4-2.6-1.2-3.4-.8-.8-1.9-1.2-3.3-1.2-1.6 0-2.9.4-3.9 1.2-1 .8-1.5 1.6-1.5 2.4 0 .3.1.5.2.7.1.2.4.3.9.4 1.2.3 1.8 1 1.8 2.1 0 .6-.2 1.1-.6 1.5-.4.4-.9.6-1.5.6-.7 0-1.4-.3-1.9-1s-.8-1.5-.8-2.6c0-1.2.3-2.3.9-3.3.6-1 1.6-1.8 2.8-2.4s2.6-.9 4-.9 2.8.3 4 .9c1.2.6 2.1 1.4 2.8 2.4.6 1 .9 2.1.9 3.3 0 .8-.2 1.6-.5 2.5-.3.8-.8 1.6-1.3 2.4-1 1.3-2.1 2.3-3.1 3.2l-4.7 3.9c-1.3.9-2.2 1.7-2.7 2.4zM158 59.3h1.2v16.8h4.1v1.5h-4.1v3.8c0 .3.1.6.4.8.4.3.8.4 1.3.4h1.5v1.3h-9.8v-1.3h1.8c.6 0 1.1-.1 1.4-.4.3-.3.4-.6.4-1.1v-3.5h-10v-1.7L158 59.3zm-1.9 4.8l-8.6 12h8.6v-12zm21 6.7c1.7.4 3 1.1 4 2.1 1.2 1.2 1.8 2.7 1.8 4.5 0 2-.7 3.7-2.2 4.9-1.6 1.4-3.8 2.1-6.4 2.1-1.6 0-2.9-.3-4.1-.8-1.1-.5-2-1.2-2.6-2.1-.6-.9-.9-1.9-.9-3 0-.9.2-1.6.7-2.1.4-.5 1-.8 1.6-.8.6 0 1.1.2 1.5.6s.5.9.5 1.6c0 .4-.1.8-.3 1.1-.2.3-.5.6-1 .8-.5.3-.8.5-.8.8 0 .4.2.8.5 1.2s.9.8 1.6 1.1c.7.3 1.6.4 2.7.4 1.9 0 3.2-.5 4.1-1.4.9-.9 1.3-2.4 1.3-4.4 0-2.1-.4-3.6-1.1-4.5-.8-.9-1.9-1.3-3.4-1.3-.4 0-.9 0-1.5.1-.5.1-.8.1-1 .1-.4 0-.6-.1-.8-.2-.2-.1-.3-.3-.3-.6 0-.2.1-.4.3-.6.2-.1.5-.2.9-.2h1.9c1.5 0 2.6-.4 3.4-1.1.8-.8 1.1-2 1.1-3.6 0-2-.4-3.4-1.1-4.2-.7-.8-1.8-1.2-3.2-1.2-1.3 0-2.4.2-3.1.7-.8.5-1.2.9-1.2 1.3 0 .3.2.6.7 1 .6.6 1 1.2 1 1.8 0 .5-.2.9-.5 1.2-.4.3-.8.5-1.4.5-.6 0-1.1-.2-1.4-.7-.4-.4-.6-1.1-.6-1.9 0-1.3.4-2.4 1.3-3.3 1.3-1.4 3.1-2.1 5.5-2.1 2.2 0 4 .6 5.3 1.8s2 2.7 2 4.4c0 1.3-.4 2.4-1.1 3.3-.7 1.2-1.9 2-3.7 2.7zm9.9.3h7.2v2.7H187v-2.7zm15.3 8.9c-.5.7 2.1 1 8 1 .9 0 1.5-.2 1.9-.7.4-.5.8-1.7 1.3-3.8h1.2l-.6 7.4h-15.9v-1l5.2-5.9c2.9-3.1 4.6-5.1 5.2-5.9.8-1.1 1.4-2.3 1.8-3.3.4-1.1.6-2 .6-2.9 0-1.5-.4-2.6-1.2-3.4-.8-.8-1.9-1.2-3.3-1.2-1.6 0-2.9.4-3.9 1.2-1 .8-1.5 1.6-1.5 2.4 0 .3.1.5.2.7.1.2.4.3.9.4 1.2.3 1.8 1 1.8 2.1 0 .6-.2 1.1-.6 1.5-.4.4-.9.6-1.5.6-.7 0-1.4-.3-1.9-1s-.8-1.5-.8-2.6c0-1.2.3-2.3.9-3.3.6-1 1.6-1.8 2.8-2.4s2.6-.9 4-.9 2.8.3 4 .9c1.2.6 2.1 1.4 2.8 2.4.6 1 .9 2.1.9 3.3 0 .8-.2 1.6-.5 2.5-.3.8-.8 1.6-1.3 2.4-1 1.3-2.1 2.3-3.1 3.2l-4.7 3.9c-1.2.9-2.1 1.7-2.7 2.4zm28.3-20.7h1.2v16.8h4.1v1.5h-4.1v3.8c0 .3.1.6.4.8.4.3.8.4 1.3.4h1.5v1.3h-9.8v-1.3h1.8c.6 0 1.1-.1 1.4-.4.3-.3.4-.6.4-1.1v-3.5h-10v-1.7l11.8-16.6zm-1.8 4.8l-8.6 12h8.6v-12zm10.6 7h7.2v2.7h-7.2v-2.7zm15.4 8.9c-.5.7 2.1 1 8 1 .9 0 1.5-.2 1.9-.7.4-.5.8-1.7 1.3-3.8h1.2l-.6 7.4h-15.9v-1l5.2-5.9c2.9-3.1 4.6-5.1 5.2-5.9.8-1.1 1.4-2.3 1.8-3.3.4-1.1.6-2 .6-2.9 0-1.5-.4-2.6-1.2-3.4-.8-.8-1.9-1.2-3.3-1.2-1.6 0-2.9.4-3.9 1.2-1 .8-1.5 1.6-1.5 2.4 0 .3.1.5.2.7.1.2.4.3.9.4 1.2.3 1.8 1 1.8 2.1 0 .6-.2 1.1-.6 1.5-.4.4-.9.6-1.5.6-.7 0-1.4-.3-1.9-1s-.8-1.5-.8-2.6c0-1.2.3-2.3.9-3.3.6-1 1.6-1.8 2.8-2.4s2.6-.9 4-.9 2.8.3 4 .9c1.2.6 2.1 1.4 2.8 2.4.6 1 .9 2.1.9 3.3 0 .8-.2 1.6-.5 2.5-.3.8-.8 1.6-1.3 2.4-1 1.3-2.1 2.3-3.1 3.2l-4.7 3.9c-1.3.9-2.2 1.7-2.7 2.4zm26.8-20.7v22.1c0 .3.1.6.4.8.3.2.8.4 1.3.4h3.4v1.3h-12.8v-1.3h2.9c.6 0 1.1-.1 1.4-.4.3-.3.4-.7.4-1.2V64.2c0-.3-.1-.6-.4-.9-.3-.2-.6-.4-1-.4h-3.9v-1.2c1.8-.2 3.3-.6 4.5-.9 1.1-.4 2.2-.9 3-1.6h.8zm18-.5c2.3 0 4.2.9 5.8 2.7 1.9 2.2 2.9 5.6 2.9 10 0 4.2-.8 7.3-2.5 9.5s-3.7 3.3-6 3.3-4.1-.9-5.7-2.7c-1.9-2.3-2.8-5.6-2.8-10 0-4.1.9-7.4 2.7-9.9 1.3-1.9 3.2-2.9 5.6-2.9zm.1 1.3c-1.6 0-2.8.7-3.7 2.2-.9 1.5-1.3 4.6-1.3 9.3 0 4.6.5 7.7 1.4 9.2s2.1 2.3 3.6 2.3 2.7-.7 3.5-2.1c1-1.7 1.5-4.8 1.5-9.3 0-4.6-.5-7.7-1.4-9.3-.9-1.5-2.1-2.3-3.6-2.3zm22.3-.8v22.1c0 .3.1.6.4.8.3.2.8.4 1.3.4h3.4v1.3h-12.8v-1.3h2.9c.6 0 1.1-.1 1.4-.4.3-.3.4-.7.4-1.2V64.2c0-.3-.1-.6-.4-.9-.3-.2-.6-.4-1-.4h-3.9v-1.2c1.8-.2 3.3-.6 4.5-.9 1.1-.4 2.2-.9 3-1.6h.8z"/></g></g></g><g><g><path d="M103 97.2h5.1c-1 1-1.5 1.8-2 2.7-1 1.7-1.5 3.9-1.5 5.9 0 2 .6 4.1 1.5 5.9.5.9 1 1.6 2 2.7H103V97.2zm17.7 5.4c.8-1.2 1.2-2.2 1.6-3.4 1.9.6 1.9.6 1.9.8s-.2.2-.8.3c-.7.9-1.4 1.7-2.2 2.3h2.8l.8-.9c.6.5.8.6 1.5 1.2.1.1.2.2.2.3 0 0 0 .1-.1.1-.1.1-.1.1-1.1.2l-.4.4c-.8.8-.9 1-1.4 1.4l-.2-.1c.3-.7.4-1 .8-2.1h-11.9c-.1 1-.3 1.6-.7 2.2-.3.4-.6.7-.8.7-.1 0-.3-.1-.4-.4-.1-.3-.2-.6-.2-.8 0-.2.1-.3.3-.5.3-.2.8-.8 1.1-1.3.2-.5.3-.8.3-1.6h.3v1.3h2.5c-.1-.1-.1-.2-.2-.4-.1-.4-.3-1-.6-1.5-.1-.3-.2-.4-.4-.6-.7.1-1.2.1-2.4.1v-.3c3.6-.4 6-.8 8.4-1.3 1.8-.5 2.9-.8 3.9-1.3 1.6 1 1.6 1 1.6 1.2 0 .1-.1.2-.3.2h-.3c-.1 0-.3 0-.6-.1-2 .6-3.8 1-6.5 1.3.3.2 1.1.9 1.4 1.2.3.3.4.5.4.6 0 .1-.1.4-.2.7-.1.1-.1.2-.2.3h2.1zm5.6 9.4c-.8.2-1.2.5-1.5 1.3-1.4-.3-2.1-.6-3.4-1.2-1.2-.6-2.2-1.1-3.1-1.7-2.2 1.6-4.8 2.6-8.1 3.3l-.1-.3c3-1 5.1-2 7.3-3.7-1.4-1.2-2.2-2.4-2.8-4h-.6c-.5 0-.8 0-1.5.1l-.1-.6c.8.1 1 .1 1.6.1h7.1c.3-.3.4-.4.7-.8.6.5.8.6 1.5 1.2.1.1.1.1.1.3l-.1.1c-.1.1-.2.1-1 .3-1.2 1.6-2 2.5-3.3 3.5 1.9 1 4.3 1.7 7.2 2v.1zm-7.9-9.4c-.1-.1-.2-.2-.2-.4-.3-.8-.8-1.9-1.1-2.3-1.2.1-2 .2-3 .2.3.2 1 .8 1.2 1 .3.3.4.5.4.6 0 .3-.2.7-.4.9h3.1zm-3.2 3.1c.3.7.5 1.1 1.1 1.8.6.6 1.2 1.2 1.9 1.8 1.3-1.1 2-2 3-3.5h-6zm13 1.2c1.2-1.7 2.1-3.3 3-5.5.7-1.6 1-2.6 1.2-3.9.7.2 1.7.5 2 .6.1.1.2.1.2.2 0 .2-.2.3-.9.4-.7 1.8-1.3 2.9-2.4 4.8 1.3.2 1.5.3 1.5.4 0 .1-.1.2-.6.4v9.3c0 .2-.2.3-.7.4h-.3c-.2 0-.3-.1-.3-.2.1-2.1.1-3.2.1-4.4v-5.3c-1.2 1.7-1.6 2.3-2.5 3.2l-.3-.4zm6.1-3.9c-.3 0-.7 0-1.4.1l-.1-.6c.8.1 1.2.1 1.6.1h5.9v-3c0-.9 0-1.2-.1-1.9 1.6.2 2.1.3 2.1.5 0 .1-.2.3-.8.5v4h.5c.4-.6.6-.8 1-1.3.7.6.9.8 1.6 1.4.1.1.1.1.1.2s-.1.2-.2.2h-3v5.2c0 1.2 0 2.9.1 4 0 .5-.1.8-.5 1-.3.2-.6.3-1.9.6-.2-.9-.3-.9-3.2-1.5v-.3c.5 0 1 .1 1.3.1 1.5.1 1.6.1 2.6.1.3 0 .4-.1.4-.4v-9h-6zm.2 1.7c1 .6 1.7 1.2 2.6 2 .6.6.8.9.8 1.3 0 .5-.5 1.2-.7 1.2-.2 0-.3-.1-.5-.5-.6-1.6-1.4-2.7-2.4-3.8l.2-.2zm13.3 6.6c0 .2-.1.3-.6.3h-.4c-.2 0-.2-.1-.3-.2 0-2.3.1-4.5.1-8.4 0-2 0-2.9-.1-4.6.6.3.7.5 1.3.9h2.2c.3-.3.4-.5.7-.8.4.3.5.5 1 .8.1.1.2.2.2.3 0 .1-.2.3-.6.5v10.6c0 .1-.1.2-.1.2-.1 0-.6.1-.8.1-.1 0-.2-.1-.2-.2v-1h-2.4v1.5zm2.5-11.6h-2.4v4.4h2.4v-4.4zm-2.5 4.8v4.8h2.4v-4.8h-2.4zm12 1.8h.4c.4-.5.6-.6 1-1.1.6.5.8.7 1.3 1.2.1.1.1.1.1.2s-.1.1-.2.1h-2.6v5.1c0 .8-.1 1-.2 1.2-.3.3-.6.5-1.7.7-.1-.5-.2-.7-.5-.9-.3-.2-.6-.3-1.9-.5v-.3c1.3.1 1.7.1 2.9.1.2 0 .3-.1.3-.3v-5.3h-4.8c-1 0-1.1 0-1.7.1l-.2-.7c.6.1 1 .2 1.9.2h4.8v-2.4h-5.1c-.9 0-1.2 0-1.7.1l-.1-.7c.6.1.8.1 1.8.1h2.3v-2.9h-2.2c-.7 0-1 0-1.4.1l-.1-.7c.5.1.9.2 1.5.2h2.2v-1.3c0-.3 0-.6-.1-1.4 1.7.2 2.1.3 2.1.4 0 .1-.2.3-.8.4v1.9h2.1l1-1.2c.6.6.8.7 1.4 1.3.1.1.1.1.1.2s-.1.1-.2.1H157v2.9h3l1-1.2c.7.6.9.8 1.6 1.3l.1.1c0 .1-.1.1-.2.1h-2.7v2.8zm-6.4 1.2c.7.3 1.4.6 2.1 1.2.5.4.8.7.8 1.1 0 .6-.3 1.2-.5 1.2-.1 0-.3-.1-.4-.5-.4-1-1.1-1.8-2.1-2.8l.1-.2zm12.6-4.3v10.5c0 .1-.1.2-.2.2s-.6.1-.9.1c-.2 0-.2 0-.2-.2.1-1.5.1-4.4.1-8.9 0-4.7 0-6.3-.1-7.3.5.3.7.5 1.3.8h3.7c.3-.4.4-.5.7-.8.4.4.6.5 1 .8l.2.2c0 .1-.1.2-.5.5v2c0 .9 0 1.5.1 2.6 0 .1 0 .2-.1.2s-.5.1-.9.1c-.1 0-.2-.1-.2-.2v-.5h-4zm3.9-4.4H166v1.8h3.8v-1.8zm0 2.1H166v1.8h3.8v-1.8zm0 11.2c0 .1 0 .1-.2.2-.1 0-.6.1-.7.1-.2 0-.2-.1-.2-.2v-3.1c0-2.1 0-3.8-.1-4.5.6.3.8.4 1.4.8h4.2c.3-.3.5-.4.8-.7.4.3.5.4.9.8.2.1.2.2.2.3 0 .1-.1.2-.6.4v2c0 1.2 0 1.9.1 3.3 0 .2 0 .2-.2.3-.1 0-.5.1-.8.1-.2 0-.2 0-.3-.2v-.7h-4.5v1.1zm4.5-6.3h-4.5v2h4.5v-2zm-4.5 2.4v2.3h4.5v-2.3h-4.5zm4.5-5v.5c0 .2-.2.3-.7.3-.5 0-.5 0-.5-.2 0-1.1.1-1.7.1-2.7 0-2.6 0-2.7-.1-3.4.6.3.8.4 1.3.8h3.8c.3-.4.4-.5.7-.8.5.4.6.5 1.1.8.1.1.2.2.2.3 0 .1-.1.2-.6.5v13.4c-.1.8-.4 1.1-1.9 1.4-.2-.4-.3-.6-.6-.8-.2-.1-.5-.2-1-.3-.6-.1-1-.2-1-.2v-.3c1.5.1 1.8.1 2.9.1.3 0 .3-.1.3-.3v-9h-4zm4.1-4.4h-4.1v1.8h4.1v-1.8zm0 2.1h-4.1v1.8h4.1v-1.8zm3.9 13.3c1-1 1.5-1.8 2-2.7 1-1.7 1.5-3.9 1.5-5.9 0-2-.6-4.1-1.5-5.9-.5-.9-1-1.6-2-2.7h5.1v17h-5.1zm23.6-5.5c0 2.2-1.7 3.5-4.5 3.5-2.7 0-4.4-1.3-4.4-3.3 0-1 .5-2 1.4-2.6.4-.3.9-.6 1.7-.9-.8-.4-1.2-.7-1.6-1-.7-.6-1-1.2-1-2.2 0-.8.3-1.6.7-2.1.7-.8 1.9-1.3 3.3-1.3s2.6.5 3.3 1.5c.3.5.5 1 .5 1.7 0 .9-.3 1.5-1 2.1-.5.4-1 .6-1.6.8 2.1 1 3.2 2.2 3.2 3.8zm-6.5-2.3c-.7.6-1 1.4-1 2.3 0 1.8 1.3 3 3.1 3 1.7 0 2.9-1.1 2.9-2.7 0-.9-.4-1.5-1.3-2.1-.3-.3-.9-.5-1.7-.9-.2-.1-.7-.3-.7-.3-.6.2-.9.4-1.3.7zm4.7-4.3c0-1.7-1-2.8-2.7-2.8-1.5 0-2.5.9-2.5 2.4 0 1 .4 1.5 1.5 2.2.2.1.2.1 1.3.6.1.1.3.1.5.3 1.3-.6 1.9-1.4 1.9-2.7zm6.7 1.8c0 .7-.5 1.3-1.3 1.3-.7 0-1.3-.5-1.3-1.3 0-.7.5-1.3 1.3-1.3s1.3.5 1.3 1.3zm0 7c0 .7-.5 1.3-1.3 1.3-.7 0-1.3-.6-1.3-1.3s.5-1.3 1.3-1.3 1.3.6 1.3 1.3zm3.4-10c.7-1.3 2-2 3.5-2s2.8.7 3.5 2c.7 1.2 1 2.9 1 4.7 0 1.8-.4 3.4-1 4.7-.7 1.3-2 2-3.5 2s-2.8-.8-3.5-2c-.7-1.2-1-2.9-1-4.7 0-1.8.3-3.4 1-4.7zm3.5 10.9c1.9 0 2.8-1.9 2.8-6.2 0-4.3-.8-6.2-2.8-6.2-1.9 0-2.8 1.9-2.8 6.2 0 4.3.9 6.2 2.8 6.2zm7.1-10.9c.7-1.3 2-2 3.5-2s2.8.7 3.5 2c.7 1.2 1 2.9 1 4.7 0 1.8-.4 3.4-1 4.7-.7 1.3-2 2-3.5 2s-2.8-.8-3.5-2c-.7-1.2-1-2.9-1-4.7-.1-1.8.3-3.4 1-4.7zm3.5 10.9c1.9 0 2.8-1.9 2.8-6.2 0-4.3-.8-6.2-2.8-6.2-1.9 0-2.8 1.9-2.8 6.2 0 4.3.8 6.2 2.8 6.2zm10.8-5.6c1.4-1.9 2.7-2.8 4.2-2.8 1 0 1.9.4 4.6 1.9 2.1 1.2 3 1.6 3.9 1.6.4 0 1-.2 1.5-.5s.9-.8 1.5-1.6l.4.3c-.4.8-.9 1.4-1.7 2.1-.8.7-1.4 1-2.3 1-.4 0-.8-.1-1.2-.2-.7-.2-1.3-.5-3.4-1.7-1.9-1.1-3.2-1.7-4.2-1.7-.8 0-1.9.7-2.9 2l-.4-.4zm24.3 5.2c.8-.1 1-.1 1.2-.2.4-.2.5-.6.5-1.9v-7.6c0-1.6 0-1.6-.2-1.7s-.4-.2-.8-.2h-.7v-.5c1.4-.1 2.5-.3 3.4-.5-.1 1.4-.1 3-.1 5.1v5.3c0 1.2.1 1.6.3 1.8.2.2.3.2 1.3.3v.5h-4.9v-.4zm12.6-4.1c-1.2 0-2.2-.4-2.9-1.1-.6-.7-1-1.8-1-2.9 0-2.6 1.8-4.4 4.3-4.4 2.9 0 4.4 2.1 4.4 6 0 2.6-.6 4.8-1.6 5.9-.8.9-1.8 1.4-3.1 1.4-1.9 0-3.5-1-3.5-2.1 0-.6.4-.9 1-.9s.8.2.8.7c.1 1.3.6 1.9 1.7 1.9 1.2 0 2.1-.8 2.6-2.5.3-.9.4-2.2.4-3.4-1 1-1.9 1.4-3.1 1.4zm2.4-6.6c-.5-.9-1.2-1.3-2.1-1.3-.8 0-1.6.4-2 1.2-.4.7-.6 1.7-.6 2.7 0 2.2 1 3.6 2.5 3.6.7 0 1.4-.3 1.9-.8.6-.6.9-1.3.9-2.4.1-1.2-.2-2.2-.6-3zm7.4 3.2c0 .7-.5 1.3-1.3 1.3-.7 0-1.3-.5-1.3-1.3 0-.7.5-1.3 1.3-1.3s1.3.5 1.3 1.3zm0 7c0 .7-.5 1.3-1.3 1.3-.7 0-1.3-.6-1.3-1.3s.5-1.3 1.3-1.3 1.3.6 1.3 1.3zm3.4-10c.7-1.3 2-2 3.5-2s2.8.7 3.5 2c.7 1.2 1 2.9 1 4.7 0 1.8-.4 3.4-1 4.7-.7 1.3-2 2-3.5 2s-2.8-.8-3.5-2c-.7-1.2-1-2.9-1-4.7-.1-1.8.3-3.4 1-4.7zm3.5 10.9c1.9 0 2.8-1.9 2.8-6.2 0-4.3-.8-6.2-2.8-6.2-1.9 0-2.8 1.9-2.8 6.2 0 4.3.8 6.2 2.8 6.2zm7.1-10.9c.7-1.3 2-2 3.5-2s2.8.7 3.5 2c.7 1.2 1 2.9 1 4.7 0 1.8-.4 3.4-1 4.7-.7 1.3-2 2-3.5 2s-2.8-.8-3.5-2c-.7-1.2-1-2.9-1-4.7-.1-1.8.3-3.4 1-4.7zm3.5 10.9c1.9 0 2.8-1.9 2.8-6.2 0-4.3-.8-6.2-2.8-6.2-1.9 0-2.8 1.9-2.8 6.2 0 4.3.8 6.2 2.8 6.2z" fill="#200701"/></g></g><line x1="4.4" y1="133.8" x2="404.4" y2="133.8" fill="none" stroke="#aa942c" stroke-miterlimit="10"/><polygon class="st0" points="393.7,37.3 404.4,18.7 393.7,0 15.2,0 4.4,18.7 15.2,37.3"/><g><g><path d="M112.8 23.9c.2 0 1-.1 1.7-.2.3 0 1.4-.2 1.7-.2.6 0 1.2.5 1.2.8 0 1-3.1 1.1-4.1 1.1-2.4 0-5.6-.5-5.6-3.2 0-.6.2-.8.3-.8.1 0 .1 0 .2.5.4 1.4 2.2 2 3.5 2 .1-.1.9 0 1.1 0zM110 14c1.4 0 2.7-.3 2.9-.3.6-.1.8-.1.9-.1.8 0 1.7.8 1.7 1.2 0 .3-.1.3-1.3.6-.9.2-1.5.7-2.1 1.2-.1.1-.2.1-.2.1s-.1 0-.1-.1.8-1.1.8-1.3c0-.1-.1-.1-.6-.1-2.1 0-3.4-1-3.4-1.2 0-.1.1-.1.1-.1.1 0 .1 0 .6.1h.7zm7.6 2.3c.5.3.8.8.8 1 0 .3-.2.7-.5.7-.2 0-.4-.1-1-.7-.4-.4-.5-.5-1.3-1-.1-.1-.3-.2-.3-.3 0-.1.1-.2.3-.2.8 0 1.4 0 2 .5zm2.7-.5c0 .2-.1.5-.5.5s-.6-.3-.9-.7c-.2-.3-1-.8-1.6-1-.2-.1-.2-.1-.2-.2s.4-.2.7-.2c1.6.1 2.5.9 2.5 1.6zm12.8 1.8c.4 0 .6 0 .6-.2 0 0-.4-1-2.4-2.5-.5-.4-.5-.4-.5-.5 0-.1.1-.1.1-.1.1 0 1 .3 1.7.5.3.1 1.6.6 1.7.6.2 0 .2 0 .8-.7.2-.3 1-1.4 1-1.6 0-.2-.2-.2-.4-.2h-5.2c-.4 0-1.6 0-2.3.1h-.4c-.1 0-.1 0-.2-.1l-.3-.4-.1-.1h.1c.1 0 .7.1.8.1.5 0 1.4.1 2.5.1h5.3c.6 0 .8 0 .9-.2.3-.3.4-.5.6-.5.3 0 1.8.9 1.8 1.2 0 .2-.1.2-.8.3-.4.1-.7.3-3.2 2-.5.3-.6.4-.6.5 0 .1 0 .1.1.3.1.2.2.4.2.6 0 .1 0 .2-.1.3-.1.2-.1.2-.1.4s.2.2.3.2h3.2c.8 0 .8 0 .9-.1.3-.3.5-.4.6-.4.2 0 1.8 1.3 1.8 1.6 0 .2-.2.3-.3.3s-.6-.1-.8-.1c-.5 0-.6.1-1.9 1-.2.1-.8.6-.8.6l-.1-.1s1.3-1.7 1.3-2.1c0-.2-.1-.2-.5-.2h-3.6c-.4 0-.7 0-.7.5 0 .7.1 6.2.1 6.4 0 .6 0 1.5-.5 2-.4.5-.9.6-1.1.6-.3 0-.4-.1-.7-.7-.1-.2-.4-.5-.8-.7-.2-.1-1.1-.4-1.1-.5 0-.1.1-.1.2-.1s.4.1.5.1c.3 0 .7.1 1 .1.8 0 1 0 1.2-.4.1-.4.1-2.8.1-3.4 0-.5-.1-2.7-.1-3.2 0-.3 0-.6-.5-.6h-4.1c-.4 0-1.6 0-2.3.1h-.4c-.1 0-.1 0-.2-.1l-.3-.4-.1-.1h.1c.1 0 .7.1.8.1.5 0 1.4.1 2.5.1h4.7zm15.6 4.6c0 .1-.3.4-.4.5-.3.4-1.5 2.4-1.8 2.7-.1.2-.5.6-.6.6-.1 0-.1 0-.1-.1 0 0 .5-1.3.6-1.6.3-.9.6-1.8.7-2.3 0-.5 0-.6.2-.6.1 0 .6.2.7.2.2.2.7.4.7.6zm3.8-2.1c0-.2-.1-.3-.3-.3-.2 0-1 .2-1.2.2-.5.1-.5.2-.5.9v5.6c0 .9-.8 1-.9 1-.4 0-.4-.3-.4-.4 0-.2.1-1.3.1-1.6 0-1.3.1-3.5.1-4.8 0-.2 0-.4-.4-.4-.3 0-1.7.1-2.1.3-.1 0-.4.3-.5.3-.3 0-.4-1.4-.4-1.5 0-.1 0-.3.2-.3l.5.1c.4.1 1 .3 1.8.3.6 0 .6-.1.8-.3.9-1.5 2-3.9 2.2-5 .1-.4.1-.5.2-.5s1.7.7 1.7 1c0 .2-.1.2-.3.2-.2 0-.3.1-.6.4-.5.5-2.8 4-2.8 4.1 0 .1 0 .1.1.1h1.3c.3 0 .8 0 1-.1.1 0 .2 0 .2-.2s-.5-1.2-.5-1.3c0-.1.1-.1.1-.1.3 0 2 1 2 2.3 0 .4-.2.7-.6.7-.5 0-.7-.1-.8-.7zm-3.9-2.4c-.3 0-.4-.1-.6-.6-.1-.2-.5-1-1.2-1.9-.2-.2-.2-.2-.2-.3s0-.1.1-.1c.2 0 1.2.5 1.3.5.2 0 .9-2.2 1.1-3.7.1-.3.1-.3.2-.3s1.6.6 1.6.8c0 .1-.5.4-.5.5-.2.2-1.8 2.7-1.8 3 0 .2.1.3.2.3.2.2.5.7.5 1-.1.4-.3.8-.7.8zm5.2 6.7c0 .5-.4.9-.7.9-.4 0-.4-.1-.7-1.4-.2-.7-.2-.8-.6-1.5 0-.1-.1-.3-.1-.3 0-.1.1-.1.1-.1.2 0 .7.4 1 .7.5.5 1 1.2 1 1.7zm1.7-8.6c-.4 0-.5.1-.7.3-.4.6-1.4 2.2-1.7 2.2-.1 0-.1-.1-.1-.1s.7-1.3.8-1.6c.8-1.6 1.5-4.1 1.5-5v-.3c0-.1 0-.1.1-.1s2 .6 2 .9c0 .2-.2.3-.5.4-.3.1-1.4 2.6-1.4 2.7 0 .1.1.1.3.1h3.3c.5 0 .5 0 .7-.2.3-.3.4-.3.5-.3.2 0 1.4.7 1.4 1 0 .1-.1.1-.5.5-.1.1-.1.9-.1 1.4 0 3.3-.5 7.2-1.5 8.8-.5.7-1.5 1.1-1.9 1.1-.2 0-.3-.1-.5-.6s-.6-.8-1-1.1c-.3-.2-.3-.2-.3-.3 0-.1.1-.1.1-.1s.5.2.6.2c.5.1.8.3 1.1.3.8 0 1.2-.8 1.4-1.6.6-2.2.8-4.4.8-6.7 0-.3 0-1.6-.1-1.7-.1-.2-.3-.2-.5-.2h-3.8zm2 5.8c0 .7-.4 1.2-.9 1.2s-.5-.2-.7-1.4c-.2-.9-.5-1.6-.5-1.8-.1-.3-.1-.3-.1-.4 0-.1 0-.1.1-.1.3 0 1.1.7 1.4 1 .4.5.7 1 .7 1.5zm15.7-2.2c0-.6.5-1.2 1.2-1.2.6 0 1.2.5 1.2 1.2s-.6 1.2-1.2 1.2c-.7 0-1.2-.5-1.2-1.2zm21.5-2.9c0 .6-1.4 1.1-1.8 1.3-.3.1-.3.2-.3.8v1.9c0 .1 0 .3.2.3.1 0 1.5-.6 1.8-.7 1.8-.7 2.6-.7 3.1-.7 1.3 0 2.8 1 2.8 2.7 0 2.4-2.5 3.5-4 3.5-1 0-1.9-.5-1.9-1.5 0-.8.7-1.4.9-1.4.1 0 .1.1.1.1 0 .1 0 .1-.1.1-.1.1-.2.2-.2.5 0 .9 1 .9 1.2.9 1.2 0 2.7-.8 2.7-2.2 0-1.3-1-2-1.7-2-.5 0-1.6.2-3.7 1.4-1 .5-1.1.6-1.1.9 0 .2.1 1 .1 1.2 0 .8-.3 2-.9 2-.5 0-.7-.4-.8-.7-.6-1.1-.7-1.1-.9-1.1-.2 0-.3.1-.5.1-.1.1-.6.4-.7.4-.2 0-1.1-.5-1.1-1.1 0-.3.2-.7.5-.7.1 0 .6.1.7.1.5 0 .8-.1 1.9-.6.9-.5 1-.5 1-1v-2.3c0-.1-.1-.4-.3-.4-.2 0-.7.1-.8.2-.9.3-1 .3-1.3.3-.6 0-1.3-1.2-1.3-1.4 0-.1.1-.1.1-.1.1 0 .3.1.3.1.3.1.6.1.8.1.6 0 2.2-.4 2.3-.5.1-.1.2-1.8.2-2 0-.6-.1-.9-.6-1.4l-.3-.3c0-.2.3-.2.4-.2 1.2 0 1.9.9 1.9 1.2 0 .2-.3.8-.4.9 0 .1-.2.8-.2 1.2 0 .1 0 .2.1.2s.6-.2.6-.5c0 0-.1-.2-.1-.3 0 0 0-.1.1-.1.3-.1 1.2.2 1.2.8zm-4.1 6.9c0 .3.5.8.8.8.3 0 .5-.5.5-1.4 0-.1 0-.3-.1-.3 0 0-1.2.6-1.2.9zm11.8-5.6c0 .4-.2.9-.6.9h-.6c-.1 0-.5.1-.5.1s-.1 0-.1-.1l.1-.1c0-.1.1-.2.1-.3 0-.7-.9-1-1.5-1-.3 0-.5.1-.7.2-.1 0-.1.1-.2.1s-.1 0-.1-.1.8-1.1 1.9-1.1c1.4-.2 2.2.5 2.2 1.4zm10.2-5.4c.2 0 .3 0 .5-.2.3-.3.4-.4.6-.4.3 0 1.2.8 1.2 1.1 0 .1-.4.3-.4.3-.1.1-.1.2-.1.8 0 .5.1 2.7.1 3 0 .2 0 1.2-.8 1.2-.4 0-.5-.3-.5-.5-.1-.3-.3-.3-.6-.3h-2.2c-.6 0-.6.1-.6 1.2 0 1 0 5.1.1 6.4 0 .2.1 1.1.1 1.3 0 .9-.6 1.2-1 1.2-.3 0-.5-.2-.5-.6v-.3c.2-6.1.2-6.8.2-12.4 0-.3-.1-2-.1-2.2 0-.1 0-.2.1-.2.2 0 .5.1 1 .4.3.1.3.1.5.1h2.4zm-2.5.4c-.3 0-.5 0-.5.4v1c0 .4.2.4.5.4h2.4c.2 0 .4 0 .5-.3v-1c0-.4-.1-.5-.5-.5h-2.4zm0 2.3c-.3 0-.5 0-.5.4v1.2c.1.3.2.3.5.3h2.4c.3 0 .5 0 .5-.4v-1.2c0-.3-.2-.3-.5-.3h-2.4zm6.6 5.2c.2 0 .3 0 .4-.2.3-.3.3-.4.5-.4s1.1.6 1.1 1c0 .1-.1.2-.3.4-.1.1-.1.2-.1.3V24c0 .5 0 .7-.2.8-.2.2-.5.5-.8.5-.3 0-.4-.3-.4-.5 0-.4-.3-.4-.6-.4H214c-.5 0-.5.1-.6.6-.1.7-.8.9-.9.9-.3 0-.4-.3-.4-.7v-.8c0-.8.1-1.3.1-2v-2c0-.1-.1-.5-.1-.6 0-.1 0-.1.1-.1s.2 0 1.1.4c.3.1.4.2.6.2h2.8zm-.2 3.5c.3 0 .5 0 .6-.2.1-.1.1-1 .1-1.2 0-.2 0-1.4-.1-1.5-.1-.2-.3-.2-.6-.2h-2.3c-.5 0-.6.1-.6.6v2.2c0 .3.3.3.6.3h2.3zm4.2-11.4c.2 0 .3 0 .4-.2.4-.4.4-.5.5-.5.1 0 1.2.6 1.2.9 0 .1-.1.2-.2.3-.3.2-.3.4-.3.7v11.5c0 .6 0 1.3-.5 1.7-.3.3-.9.6-1.1.6-.1 0-.2-.1-.2-.2 0-.3-.1-.5-.3-.7-.2-.2-1.1-.6-1.1-.7 0-.1.1-.1.2-.1h1.1c.7 0 .7-.1.7-1.5v-6.4c0-.5-.2-.5-.6-.5h-2.3c-.3 0-.5 0-.5.3-.2.6-.7.6-.8.6-.1 0-.4 0-.5-.6v-3.5c0-.3-.1-1.6-.1-1.9 0-.1 0-.3.2-.3s.5.1.9.3c.2.1.3.1.5.1h2.8zm0 2.2c.4 0 .5 0 .5-.5V13c-.1-.2-.2-.2-.5-.2h-2.5c-.4 0-.5 0-.5.5v1.1c.1.2.2.2.5.2h2.5zm0 2.3c.4 0 .5 0 .5-.4v-1.1c0-.4-.1-.4-.5-.4h-2.5c-.4 0-.5 0-.5.4v1.1c0 .4.1.4.5.4h2.5zm11.2-.6c0 .1 0 .2-.2.7-.3.7-.4 1.4-.4 2.3 0 1.8.9 3.1 1.5 3.1.3 0 .4-.1.9-1 .1-.2.4-.6.6-.6.1 0 .1.1.1.1s0 .3-.1.4c-.2.8-.2 1-.2 1.4 0 .3.1.5.1.7.1.2.1.5.1.6 0 .4-.4.6-.7.6-1.2 0-3.4-1.9-3.4-5.3 0-.5.3-2.7.3-3.2 0-.4-.1-.8-.1-1-.1-.5-.1-.5-.1-.6 0-.1.1-.1.1-.1.7 0 1.5 1.5 1.5 1.9zm8.8.5c.9.7 1.6 2 1.6 3.4 0 .3 0 1.2-.9 1.2s-.9-1-.9-1.2c0-1.5 0-2.2-1-3.2-.1-.1-.9-.7-.9-.8 0-.1.1-.1.2-.1s1.1 0 1.9.7zm16.6-5c0 .2 0 .2-.2.3-.1 0-.1.1-.1.1 0 .1 1.2 2.3 2.8 3.8 1.3 1.1 2.7 2.1 4.5 2.8.6.2.6.2.6.3 0 .2-.1.2-.6.3-.4.1-.9.2-1.1.5l-.2.2c-.1 0-.9-.3-2.6-2-1.9-1.9-2.6-3-3.4-4.8-.1-.2-.4-.8-.5-.8-.1 0-.1.1-.5.6-3 4.3-7.1 7-7.6 7-.1 0-.1-.1-.1-.1 0-.1 1.7-1.6 2.1-2 2.5-2.5 3.9-4.9 4.4-6 .1-.2.4-1.1.4-1.2.1 0 2 .8 2.1 1zm1.6 9.4c.1 0 .3 0 .4-.1.1-.1.6-.6.7-.6.1 0 1.2.8 1.2 1.1 0 .2-.1.2-.2.4-.2.2-.2 1-.2 1.2 0 .6.1 3.1.1 3.6s-.9.7-1.2.7c-.4 0-.4-.3-.4-.5 0-.8 0-1-.5-1h-5.4c-.2 0-.5 0-.5.5s0 .5-.1.7c-.1.1-.6.4-1 .4-.5 0-.5-.4-.5-.5 0-.1.2-3.4.2-4.1v-1.7c0-.1-.1-.5-.1-.6 0-.1 0-.2.2-.2.1 0 .9.4 1.1.5.2.1.5.1.7.1h5.5zm-2.6-2.9c.6 0 .9 0 1.1-.2.1-.1.7-.9.9-.9s1.6 1.2 1.6 1.3c0 .2-.4.2-1 .2h-3.4c-1.3 0-1.8 0-2.3.1h-.4c-.1 0-.1 0-.2-.1l-.3-.4-.1-.1h.1c.1 0 .7.1.8.1.9.1 1.6.1 2.5.1h.7zm2.5 7.3c.5 0 .5-.3.5-.6v-2.9c0-.2 0-.6-.5-.6h-5.5c-.5 0-.6.3-.6.6V25c0 .2 0 .6.5.6h5.6zm16.5-9.8c.5.3.5.6.5.7 0 .3-.1.6-.3.9-.1.1-.1.3-.1.3 0 .1 0 .1.1.1s.4-.2.5-.3c1.8-.9 2.8-1 3.6-1 2.8 0 4.1 1.9 4.1 3.8 0 4.3-5.8 5.7-6.2 5.7h-.1c0-.1 1.1-.7 1.3-.8.9-.6 3.5-2.6 3.5-5.3 0-2.1-1.5-2.8-2.7-2.8-2 0-4 1.1-4.7 1.9-.2.3-.3.6-.3 1.8 0 .4 0 2.7.1 3.6 0 .1.1.7.1.8 0 .6-.5 1-.8 1-.5 0-.6-.6-.6-1.7 0-.4-.1-2.1-.6-2.1-.1 0-.3.5-.5.7-.3.5-.6 1.3-1.3 1.3-.2 0-.4-.1-.4-.5 0-.3.1-.5.5-1.2.2-.3.9-1.6.9-1.7 0-.3-.4-1-.7-1.4-.6-.7-.6-.8-.6-1.1 0-.6.5-.7 1.2-.8.3-.1.4-.1 1.6-1.2.1-.1.4-.4.5-.4.1-.2.2-1 .2-1.5 0-1.6-.4-2.2-.7-2.5-.3-.4-.3-.4-.3-.5 0-.1.4-.2.6-.2.5 0 1.7.7 1.7 1.3 0 .3-.2 1.4-.3 1.6 0 .3-.1.8-.1 1 0 .3 0 .4.3.5zm-2.2 2.2c-.2.3-.4.6-.8.6-.6 0-.8.1-.8.3 0 .3.6 1.4.8 1.4.1 0 .2-.1.4-.4 1.1-1.6 1.1-1.7 1.1-2.3 0-.1 0-.2-.1-.3 0 0-.3.2-.6.7zm-.1 3.7c0 .2.4.7.5.7.2 0 .2-1 .2-1.8 0-.1 0-.1-.1-.1s-.6 1-.6 1.2zm27.9-6.5c-.1 1.2-.1 1.3-.1 1.4 0 .1.1.1.2.1s.7-.1.8-.1c.4 0 .6-.1.6-.3 0-.1 0-.1-.4-.4l-.1-.1c0-.1.1-.1.1-.1.2 0 1 .2 1.3.3 1.1.3 1.4.6 1.4 1 0 .5-.5.6-.9.6s-1.9-.2-2.3-.2c-1 0-1.1 0-1.2 1-.3 2.7-1.3 3.6-2 3.6-.6 0-.7-.2-.8-.7-.1-.3-.2-.6-.3-.8 0-.1-.2-.3-.2-.4h.1c.2 0 1 .3 1.2.3.3 0 .5-.2.6-.5.3-.6.5-1.9.5-2.1 0-.1 0-.2-.3-.2-.4 0-3.6.7-3.9 1.1-.1.2-.1.4-.2.7 0 .6-.1 2.2-.1 2.3 0 1.7.3 2.5 2.8 2.5.4 0 1 0 1.6-.1.1 0 .6-.1.9-.1.5 0 1 .4 1 .8 0 .8-1.6.8-2.1.8-5.1 0-5.1-1.4-5.1-4.9 0-1.5 0-1.7-.3-1.7s-1.5.6-1.8.6c-.4 0-1.9-.3-1.9-1.3 0-.2.1-.3.2-.3.2 0 .9.1 1.1.1 1.1 0 2-.1 2.3-.3.3-.1.3-.3.3-.9 0-1-.1-1.4-.3-1.9-.1-.1-.4-.8-.4-.8 0-.2.3-.3.5-.3.4 0 1.5.5 1.5 1.1 0 .1 0 .3-.1.6 0 0-.1.6-.1 1.4 0 .4 0 .5.2.5.1 0 2.4-.5 2.9-.6 1.1-.2 1.2-.2 1.3-.6.1-.4.1-1.2.1-1.5 0-.5-.1-.9-.2-1.2 0 0-.3-.6-.3-.7 0-.2.3-.2.4-.2 1.1 0 1.5.9 1.5 1.3.2.2 0 1 0 1.2z" fill="#fff"/></g></g></g></svg>