<svg version="1.1" id="レイヤー_1" xmlns="http://www.w3.org/2000/svg" x="0" y="0" viewBox="0 0 114 438" xml:space="preserve"><g><g><path d="M80.4 124.9c-.6 0-1.5.1-2.1.1l-.1-1c.7.2 1.4.2 2.2.2h1.8V120h-3.6c-.8 0-1.6.1-2.2.1l-.2-1c1.1.2 1.5.2 2.4.2h3.5v-4h-1.5c-1.1 0-1.6 0-2.3.1l-.2-1c.9.2 1.5.2 2.7.2H97c.7-.7.9-1 1.6-1.7 1.1.9 1.4 1.1 2.4 2 .1.1.1.1.1.2s-.1.1-.2.1h-5v4h2.5c.7-.8 1-1.1 1.7-1.8 1.2.9 1.5 1.2 2.6 2.2 0 .1.1.1.1.2s-.1.1-.3.1h-6.6v4.3h1.2c.7-.8.9-1 1.6-1.7 1 .9 1.3 1.1 2.3 2 .1.1.1.1.1.2s-.1.2-.3.2h-11v3.1h7.4l1.8-1.8c1.1.9 1.5 1.2 2.6 2.1.1.1.1.1.1.2s-.1.1-.3.1H89.8v4.3c0 .3-.2.3-1 .4H88c-.2 0-.2-.1-.3-.2 0-1.1.1-3.2.1-4.2v-.3h-8.1c-1.1 0-1.5 0-2.4.2l-.2-1c1 .2 1.5.2 2.7.2h8v-3.1h-7.4zm11.5-14.3v-1.2c0-.8 0-1-.1-1.6 2.8.3 3 .3 3 .6 0 .2-.2.3-1.1.6v1.7h4c.8-.8 1-1 1.7-1.8 1.1.9 1.5 1.1 2.5 2 .1.1.2.2.2.3 0 .1-.1.1-.3.1h-8.1v2.1c0 .2 0 .3-.2.3-.1 0-.9.1-1.4.1-.2 0-.3-.1-.3-.3.1-1.1.1-1.6.1-2.2h-5.6v2.1c0 .2-.1.2-.2.3-.2.1-.9.1-1.4.1-.2 0-.2-.1-.3-.2.1-1.1.1-1.4.1-2.2h-4.8c-.8 0-1.2 0-2.4.2l-.2-1c1 .2 1.4.2 2.5.2h4.9v-.5c0-1 0-1.5-.1-2.4.6.1 1.1.1 1.4.2 1.3.1 1.6.2 1.6.4s-.2.3-1.1.6v1.7h5.6zm-7.9 4.7v4h4v-4h-4zm0 4.7v4.3h4V120h-4zm5.8-.6h4.3v-4h-4.3v4zm0 4.9h4.3V120h-4.3v4.3zm-.6 20.7c2.9 1.4 4.1 2.5 4.1 4.1 0 .7-.3 1.1-.8 1.1-.2 0-.2 0-.9-.3-.8-.3-1.8-.5-3.1-.6-1.9-.2-3.7-.4-4.3-.4s-1.1.3-1.1.8c0 .4.6 1.8 1.8 4.4 1.5-.8 3.3-1.7 4.9-2.3 2-.8 3.7-1.1 5.4-1.1 3.4 0 5.8 1.8 5.8 4.4 0 1.1-.6 2.4-1.4 3.2-1 1-2.5 1.5-4.5 1.5-2.3 0-4.6-.8-6.4-2.1l.2-.4c1.5.7 3.3 1.2 4.9 1.2 1.9 0 3.4-.5 4.2-1.5.6-.7.9-1.5.9-2.4 0-1.9-1.5-3-4-3-1.5 0-2.9.4-5.3 1.5-1.3.6-2.6 1.3-4.1 2.3 1.3 2.7 2.2 4.6 3.1 7 1.1 2.8 1.4 3.7 1.4 4.6 0 1.2-.5 2.1-1.3 2.1-.1 0-.3-.1-.4-.3-.2-.2-.3-.5-.4-1.2-.5-3.5-1.7-7.3-3.5-11.5-1.6 1.1-2.5 1.7-2.9 2-.4.3-.5.4-.8.6-.4.3-.6.4-1 .4-1.2 0-3-1.8-3-3.1 0-.1 0-.3.1-.5.6 1 1.3 1.5 2 1.5.8 0 2.5-.8 4.9-2.2-.7-1.6-1.4-2.7-1.9-3.4-.5-.7-.6-.8-.6-1.2 0-.9 1.1-1.9 2.1-1.9.3 0 .4 0 .9.1.2.1.3.1.7.1h4.3c1.6 0 1.8-.1 1.8-.4 0-.6-1-1.7-2.3-2.6l.5-.5zM84 190.2c-2 .7-2.9 1-3.6 1.5-.4.3-.6.3-.8.3-.3 0-.9-.4-1.2-.8-.5-.6-.9-1.6-.9-2.1 0-.1.1-.3.2-.6.6 1.2 1.1 1.5 2.1 1.5.6 0 2.5-.4 4.8-1 .6-1.6 1.1-3.6 1.1-4.6 0-.9-.5-1.3-2.2-1.9.3-.2.5-.3.8-.3.4 0 1.1.1 1.9.4 1.3.4 2 .9 2 1.5 0 .2-.1.3-.4.8-.4.6-1 1.8-1.8 3.8 1.2-.3 1.8-.3 2.4-.3 2.4 0 3.6 1.4 3.6 4.4 0 3.6-1.4 8.2-3.1 10.1-.7.8-1.8 1.3-2.7 1.3-.5 0-.7-.2-.8-.6-.1-.8-.1-.8-3.1-3.3l.3-.4c2.2 1.2 3.8 1.9 4.3 1.9.6 0 1.1-.6 1.8-2.4 1-2.3 1.7-5.4 1.7-7.5 0-1.9-.5-2.5-2-2.5-.8 0-1.3.1-2.9.6-.4 1-.4 1-1.6 3.8-.1.3-.7 1.6-1.7 3.9-1.1 2.6-2 4.6-2.5 5.4-.2.4-.4.5-.7.5-.5 0-.8-.7-.8-1.9 0-.7.1-.9.6-1.6.6-.6 1.3-1.8 2.1-3.3 1.1-2.1 1.1-2.1 2.2-4.6l.9-2zm10.9-1.8c2.2.6 3.9 1.8 5.1 3.4 1.1 1.4 1.6 2.7 1.6 4 0 1-.4 1.5-1.1 1.5-.2 0-.4 0-.6-.2-.4-.3-.6-.3-1.1-.3-1 0-1.1 0-3.5.3l-.1-.4c2.8-.9 3.4-1.1 4.3-1.4-.1-1-.4-1.7-.9-2.7-.9-1.7-2-2.8-3.8-3.7l.1-.5zm-16.2 34.3c1.3 1.3 2.1 1.6 3.5 1.6.7 0 1.5-.1 2.5-.3.7-1.8 1-3 1-4 0-.9-.4-1.5-1.8-2.2.3-.2.4-.2.7-.2.6 0 1.4.3 2.2.6 1 .5 1.3.8 1.3 1.2 0 .2-.1.4-.3.7l-1.7 3.4c2.1-.7 2.3-.9 3.1-1.5.2-.2.3-.2.6-.2 1.1 0 1.9.4 1.9.8 0 .7-1.7 1.4-6.2 2.5-.3.6-.7 1.7-1.5 3.4-.8 1.9-3 6.6-3.2 7.1-.4.8-.7 1-1 1-.5 0-.9-.9-.9-2 0-.6.1-.7.3-1 .6-.7 1-1.1 1.3-1.7 1.4-2 2.4-3.9 3.5-6.6-.6.1-.9.1-1.3.1-1 0-1.8-.2-2.5-.6-.8-.5-1.5-1.1-2-2l.5-.1zm14.9 1.6c1.9.2 3.5.7 4.8 1.5 1.1.7 1.8 1.5 1.8 2.2 0 .5-.3.8-.7.8-.2 0-.4-.1-.6-.2-.8-.5-1.3-.6-2.7-.6-2.2 0-2.9.6-2.9 2.5 0 .8.1 2 .6 4.8 1.7.5 3.2 1.2 4 1.8.8.6 1.1 1.3 1.1 2.2 0 .6-.2 1-.6 1-.3 0-.4-.1-1-.7-1-1.1-1.9-1.8-3.4-2.5v.5c0 1.1-.2 1.8-.8 2.4-.8.8-2.1 1.2-3.6 1.2-2.5 0-4.3-1.2-4.3-3 0-2 2.1-3.3 5.2-3.3.6 0 1 0 1.7.1-.1-2.2-.1-2.4-.1-2.8 0-2.3.2-3.2 1-4 .6-.6 1.3-1 2.7-1.3.4-.1.5-.1 1.5-.4-.8-.8-1.6-1.3-3.6-1.9l-.1-.3zM92 236.6c-.9-.3-1.5-.3-2.4-.3-2.4 0-3.8.8-3.8 2.1 0 1 1.1 1.7 2.8 1.7 2.3 0 3.4-.9 3.4-2.7v-.8zm-2.8 30.3c-.7 1.2-.8 1.3-1.9 2.8h10.5c.8-.9.8-.9 1.7-1.9l2.5 2.2c.1.1.1.2.1.3 0 .1-.1.2-.3.2h-6.9c-.9 1.7-1.7 2.6-3 3.9 3.9.8 5.3 1.2 6 1.8.7.5 1.3 1.7 1.3 2.4 0 .2-.2.4-.5.4s-.4-.1-.8-.4c-1.5-1.1-4.1-2.3-7.2-3.2-1.1.8-2.2 1.4-3.3 1.8-2.7 1-6.3 1.7-9 1.7-.3 0-.8 0-1.5-.1l-.1-.4c5.4-.6 9.1-1.6 12.1-3.5-1.9-.4-2.9-.6-4.8-.9l-1 1.1c-.2.2-.3.2-.5.2-.7 0-1.5-.3-1.5-.5 0-.1.1-.2.1-.3 1.8-1.9 2.5-2.7 3.6-3.9H79c-.8 0-1.3 0-2.2.1l-.3-1.2c.9.3 2 .4 2.7.4h6.1c.7-1 1.2-1.7 1.9-2.8H84v.7c0 .4-.2.5-.9.5h-.4c-.4 0-.5-.1-.5-.4.1-2.2.1-3.2.1-4.2v-4.9c.9.5 1.2.7 2 1.3h10.1c.3-.5.4-.6.8-1.1.8.4 1 .6 1.7 1.1.2.2.3.3.3.4 0 .1-.1.2-.3.4l-.1.1c-.1.1-.3.3-.5.4v2.8c0 1.1 0 1.8.1 3.3 0 .4-.1.5-1.4.6-.3 0-.5-.1-.5-.4v-.6h-5.3zm-.9-10v-1.7c0-.6 0-1-.1-1.9.7.1 1.2.2 1.6.2 1.4.2 1.8.3 1.8.6 0 .2-.3.4-1.3.7v2.1H98l1.4-1.4c1 .8 1.3 1.1 2.3 2 .2.2.3.3.3.4 0 .2-.4.3-1.8.4-.5.4-.5.4-1.3 1.1-.6.5-.6.5-1 .8l-.3-.1c.4-1.4.4-1.5.6-2.5H80.1c-.4 2.6-1.5 4.5-2.5 4.5-.4 0-.8-.6-.9-1.3 0-.3-.1-.4-.1-.4 0-.1.1-.2.2-.3.1-.1.1-.1.6-.4.4-.3 1.1-1.1 1.4-1.6.5-1 .7-1.7.9-2.8h.5v1.9h8.1zm6.1 3.7H83.9v2.4h10.5v-2.4zm-10.5 3v2.6h10.5v-2.6H83.9zm2.9 6.7c-1.1 1.4-1.5 2-2.3 2.9 2.4.2 3.2.3 5.5.7 1.2-1 1.7-1.7 2.8-3.5h-6zM84 302.8c-.1.3-.5 2-1.3 5.3-.4 1.7-.5 2.1-.5 3 0 .8 0 1-.1 1.2-.1.3-.4.5-.7.5-.5 0-.9-.4-1.2-1.1-.6-1.5-1-3.7-1-6 0-.8.1-1.9.2-3 .2-1.6.2-1.6 1-5.3.3-1.3.4-2 .4-2.6 0-.9-.2-1.6-.8-2.6.6 0 1.1.4 1.9 1.4.7.9 1 1.6 1 2.2 0 .4 0 .6-.6 1.7-.6 1.2-1.2 3.1-1.5 4.5-.3 1.1-.4 2.3-.4 3.5 0 1.5.1 2.5.5 3.7.5-1 .7-1.5 1-2.4l1.5-3.9.6-.1zm3.5 1.4c-.1.6-.1.8-.1 1.2 0 3.1 1.8 4.3 6.1 4.3.8 0 1.6-.1 2.4-.2.6-.1.6-.1 1.5-.4.2-.1.3-.1.4-.1.7 0 1.8 1 1.8 1.7 0 .3-.2.6-.6.7-.6.2-1.9.3-3.5.3-3.5 0-6-.6-7.3-1.7-1-.9-1.5-2.1-1.5-3.6 0-.7.1-1.3.3-2.2h.5zm0-8.9c1 .6 1.6.8 2.6.8 1.7 0 4.5-.6 5.6-1.3.4-.2.4-.2.6-.2.2 0 .6.1 1 .4.6.3.9.7.9 1s-.2.5-.8.6c-1.8.3-2.9.5-4 1-.9.4-2.5 1.3-3.6 2l-.3-.3c1.3-1.1 2.2-1.8 2.7-2.2-.6 0-.9.1-1.1.1-1.6 0-2.6-.4-3.8-1.6l.2-.3zM14.3 151.8c1.1 1 2.1 1.4 3.3 1.4.8 0 1.5-.1 2.8-.4v-2.6c0-2.9-.3-3.5-2.3-3.9.4-.3.6-.4 1.2-.4 1 0 2.1.3 2.9.7.4.2.6.6.6.9 0 .2 0 .2-.3.7-.4.8-.7 2.1-.9 4.2 1.5-.5 2.2-.9 3.1-1.6.2-.2.5-.3.7-.3.3 0 .7.1 1.1.3.3.1.5.4.5.6 0 .4-.3.6-1.3 1.1-1.3.6-2.6 1-4.1 1.4 0 .4 0 .4-.1 1.4 0 .8-.1 2-.1 3.7 3.1-1.1 5.2-1.5 7.4-1.5 3.8 0 6.2 1.8 6.2 4.8 0 2.7-2.1 4.9-4.8 4.9-2.6 0-4.4-1.7-5.4-5l.4-.1c.7 1.3 1.1 1.9 1.7 2.4.8.7 1.7 1.1 2.7 1.1 2 0 3.5-1.6 3.5-3.8 0-2.2-1.5-3.3-4.1-3.3-2.2 0-4.9.7-7.6 2v4.9c0 .7-.1 1.2-.4 1.7-.3.6-.9 1-1.3 1s-.4 0-2.1-1.5c-.6-.5-1.4-1-1.9-1.3-.6-.3-.9-.7-.9-1.2 0-.4.3-1 .8-1.6 1-1.1 2-1.7 4.5-2.9 0-.4 0-.8.1-1.3.1-1.3.1-1.3.1-4-.9.1-1.5.2-2.2.2-1.8 0-3-.6-4.2-2.3l.4-.4zm3.1 11.3c-.6.6-.8 1-.8 1.3 0 .3.4.6 1.1.9.6.3 1.4.4 1.7.4.3 0 .5-.2.5-.7.1-2.5.2-3.9.2-4.1-1.3 1-2 1.5-2.7 2.2zM29.8 149c1.7.1 3 .4 4.1 1 1.2.7 2 1.6 2 2.5 0 .5-.3.8-.8.8-.1 0-.2 0-.4-.1-.4-.1-.5-.1-.6-.1-.4 0-1.1.1-3.4.8l-.2-.3c1.7-.9 2.7-1.5 3.1-1.8-.4-.8-.9-1.2-1.8-1.7-.6-.3-1-.5-1.9-.7l-.1-.4zm-12.4 46.7c-.1.6-.1.9-.1 1.3 0 3.3 2.1 4.9 6.6 4.9 2.2 0 4.5-.4 6.2-1 .1-.1.3-.1.5-.1.4 0 1.1.2 1.5.6.4.3.6.6.6 1s-.3.7-.9.9c-1.3.3-4 .6-6.5.6-3.1 0-5.1-.4-6.5-1.3-1.4-.9-2.3-2.7-2.3-4.4 0-.7.1-1.4.4-2.4l.5-.1zm.8-11.1c1.4 1 2.4 1.2 4.3 1.2 1.8 0 4.2-.3 5.8-.8.2-.1.4-.1.5-.1.7 0 1.7.8 1.7 1.5 0 .5-.2.6-2 1-1.5.3-3 .9-7.5 2.8l-.2-.4c.8-.5 1.3-.8 2-1.2l1.8-1 .5-.3c-.6.1-1.6.1-2.1.1-1 0-2.3-.3-3.2-.8-.7-.4-1.2-.8-2-1.6l.4-.4zm12.8-2.5c1 .6 1.8 1.1 2.5 1.7 1 .9 1.4 1.6 1.4 2.2s-.4 1.2-.9 1.2c-.4 0-.4 0-1.3-1.8-.5-1-1.4-2.2-2.1-3l.4-.3zm2.9-1.6c1 .4 1.8 1 2.7 1.6 1.1.8 1.5 1.4 1.5 2.2 0 .7-.3 1.1-.7 1.1-.3 0-.4-.1-.6-.5-1-1.8-1.5-2.5-3.1-4l.2-.4zm-14.5 40.1c.3.2.6.3 1.1.3s2.3-.4 4.3-1c1.1-.3 1.8-.5 2.2-.7.2-.1.2-.1.6-.4.1-.1.3-.2.5-.2.8 0 2.5 1.8 2.5 2.6 0 .3-.1.4-.7.6-.4.2-1.6 1.1-3.7 2.8-2.1 1.8-5.3 4.2-8.1 6.3 3.1-1.2 5.2-1.9 10.9-3.5 1.1-.3 2-.6 2.6-.8.7-.3.9-.3 1.1-.3.4 0 1 .3 1.5.7.4.3.5.5.5.8 0 .3-.2.5-.6.5-.2.1-.3.1-1.8.1-1.5.1-3.6.6-5 1.4-2.4 1.3-3.8 3.2-3.8 5.2 0 1.6 1 2.9 2.8 3.5.7.3 1.2.3 2.5.3h.5c.2 0 .4-.1.4-.1.6 0 1.7 1 1.7 1.6 0 .5-.4.8-1.4.8-4.5 0-7.6-2.4-7.6-5.6 0-1.4.6-2.8 1.7-4 .9-1 1.6-1.5 3.2-2.4-3.2.9-8.3 3-10 4.1-.4.3-.5.3-.7.3-.6 0-1.6-.9-1.6-1.5 0-.4.2-.6.8-.7 1.5-.4 4-2.4 7.9-6.1 3.1-2.9 4.5-4.5 4.5-4.9 0-.2-.2-.4-.4-.4-.3 0-.6.1-3.1 1.1-1.6.6-2.6 1.1-3.4 1.6-.4.2-.6.3-.8.3-.6 0-1.2-.6-1.7-1.5-.3-.6-.5-1.2-.5-1.6 0-.1 0-.3.2-.5.1.6.4.9.9 1.3zM20 263c-2 .7-2.9 1-3.6 1.5-.4.3-.6.3-.8.3-.3 0-.9-.4-1.2-.8-.5-.6-.9-1.6-.9-2.1 0-.1.1-.3.2-.6.6 1.2 1.1 1.5 2.1 1.5.6 0 2.5-.4 4.8-1 .6-1.6 1.1-3.6 1.1-4.6 0-.9-.5-1.3-2.2-1.9.3-.2.5-.3.8-.3.4 0 1.1.1 1.9.4 1.3.4 2 .9 2 1.5 0 .2-.1.3-.4.8-.4.6-1 1.8-1.8 3.8 1.2-.3 1.8-.3 2.4-.3 2.4 0 3.6 1.4 3.6 4.4 0 3.6-1.4 8.2-3.1 10.1-.7.8-1.8 1.3-2.7 1.3-.5 0-.7-.2-.8-.6-.1-.8-.1-.8-3.1-3.3l.3-.4c2.2 1.2 3.8 1.9 4.3 1.9.6 0 1.1-.6 1.8-2.4 1-2.3 1.7-5.4 1.7-7.5 0-1.9-.5-2.5-2-2.5-.8 0-1.3.1-2.9.6-.4 1-.4 1-1.6 3.8-.1.3-.7 1.6-1.7 3.9-1.1 2.6-2 4.6-2.5 5.4-.2.4-.4.5-.7.5-.5 0-.8-.7-.8-1.9 0-.7.1-.9.6-1.6.6-.6 1.3-1.8 2.1-3.3 1.1-2.1 1.1-2.1 2.2-4.6l.9-2zm10.9-1.8c2.2.6 3.9 1.8 5.1 3.4 1.1 1.4 1.6 2.7 1.6 4 0 1-.4 1.5-1.1 1.5-.2 0-.4 0-.6-.2-.4-.3-.6-.3-1.1-.3-1 0-1.1 0-3.5.3l-.1-.4c2.8-.9 3.4-1.1 4.3-1.4-.1-1-.4-1.7-.9-2.7-.9-1.7-2-2.8-3.8-3.7l.1-.5zm-16.2 34.3c1.3 1.3 2.1 1.6 3.5 1.6.7 0 1.5-.1 2.5-.3.7-1.8 1-3 1-4 0-.9-.4-1.5-1.8-2.2.3-.2.4-.2.7-.2.6 0 1.4.3 2.2.6 1 .5 1.3.8 1.3 1.2 0 .2-.1.4-.3.7l-1.7 3.4c2.1-.7 2.3-.9 3.1-1.5.2-.2.3-.2.6-.2 1.1 0 1.9.4 1.9.8 0 .7-1.7 1.4-6.2 2.5-.3.6-.7 1.7-1.5 3.4-.8 1.9-3 6.6-3.2 7.1-.4.8-.7 1-1 1-.5 0-.9-.9-.9-2 0-.6.1-.7.3-1 .6-.7 1-1.1 1.3-1.7 1.4-2 2.4-3.9 3.5-6.6-.6.1-.9.1-1.3.1-1 0-1.8-.2-2.5-.6-.8-.5-1.5-1.1-2-2l.5-.1zm14.9 1.6c1.9.2 3.5.7 4.8 1.5 1.1.7 1.8 1.5 1.8 2.2 0 .5-.3.8-.7.8-.2 0-.4-.1-.6-.2-.8-.5-1.3-.6-2.7-.6-2.2 0-2.9.6-2.9 2.5 0 .8.1 2 .6 4.8 1.7.5 3.2 1.2 4 1.8.8.6 1.1 1.3 1.1 2.2 0 .6-.2 1-.6 1-.3 0-.4-.1-1-.7-1-1.1-1.9-1.8-3.4-2.5v.5c0 1.1-.2 1.8-.8 2.4-.8.8-2.1 1.2-3.6 1.2-2.5 0-4.3-1.2-4.3-3 0-2 2.1-3.3 5.2-3.3.6 0 1 0 1.7.1-.1-2.2-.1-2.4-.1-2.8 0-2.3.2-3.2 1-4 .6-.6 1.3-1 2.7-1.3.4-.1.5-.1 1.5-.4-.8-.8-1.6-1.3-3.6-1.9l-.1-.3zM28 309.4c-.9-.3-1.5-.3-2.4-.3-2.4 0-3.8.8-3.8 2.1 0 1 1.1 1.7 2.8 1.7 2.3 0 3.4-.9 3.4-2.7v-.8zm-.7 22.4c-.1-1-.1-1.5-.1-2.4-.1-1.9-.1-2.3-.2-3.2 2.7.2 3.2.3 3.2.6 0 .2-.3.4-1.1.6v1.3c0 1 0 2.2.1 3.2h4.3c.7-.9.9-1.2 1.7-2 1.1.9 1.5 1.2 2.5 2.2.1.1.1.2.1.3 0 .1-.2.2-.3.2h-8.3c.2 2.9.4 4.8.8 6.6.5 2.2 1.4 4.3 2.5 6 .6 1.1 1.3 1.7 2.7 3.1 1.4-2.9 1.5-3.1 2.4-5.2l.3.1-1 4.9c-.2.8-.2.8-.2.9 0 .3.1.4.5.8.3.3.4.6.4.8 0 .4-.3.8-.8.8-.6 0-1.4-.3-2.2-.8-2-1.3-3.8-3.7-5-6.7-1.3-3-1.9-5.9-2.3-11.1H15.9c-1.3 0-2 .1-2.9.2l-.2-1.2c1.1.3 1.5.3 3.1.3h11.4zm-5.9 13.6c4.2-1.1 4.6-1.3 6.5-2l.2.3c-1.7 1-2.8 1.5-6.5 3-2.4 1-3.9 1.5-6.6 2.3-.1 1.2-.2 1.4-.5 1.4s-.3-.1-1.4-3.3c2.5-.3 4.4-.7 6.4-1.3V338h-3.1c-.6 0-1.4.1-2 .2l-.2-1.1c.7.2 1.4.3 2.2.3h6.8c.6-.9.8-1.1 1.6-1.9 1.1.8 1.4 1.1 2.4 2.1.1.1.1.2.1.3 0 .1-.1.2-.3.2h-5.5v7.3zm9.2-18.4c.3.1.5.2.6.2 1.4.5 1.7.6 2.3 1 .5.3.6.6.6 1.2 0 .7-.4 1.3-.8 1.3-.2 0-.2 0-.4-.3-.1-.1-.2-.3-.3-.5-.1-.1-.3-.4-.7-1-.2-.3-.5-.6-1.5-1.6l.2-.3zm4.4 52.9c.6-.8.8-1 1.4-1.8 1 .8 1.3 1.1 2.2 2 .1.1.1.2.1.2 0 .1-.2.3-.3.3H14.6c-.6 0-1.6.1-2.2.1l-.2-1c.9.2 1.4.3 2.4.3h1.2v-11c0-1.3 0-1.8-.1-3.2 1.1.6 1.4.8 2.4 1.5h3.2v-2.5c0-.7 0-1.1-.1-2.1 2.7.4 3.1.4 3.1.8 0 .3-.1.3-1.2.7v3.1H27v-2.2c0-.2 0-.7-.1-1.5v-.8c2.5.4 2.9.5 2.9.8 0 .3-.1.3-1.1.6v3.1h3.8c.5-.6.6-.8 1.1-1.3.8.6 1.1.8 1.8 1.5.2.2.3.3.3.4 0 .2-.3.4-1.2.8v11.4h.5zm-22.4 7.6c2.2-1.1 3.6-2 5.5-3.6 1.4-1.2 1.9-1.7 2.5-2.6 2.5.9 2.8 1 2.8 1.3 0 .2-.4.4-.9.4h-.6c-3.5 2.7-5.3 3.7-9.1 4.8l-.2-.3zm8.8-19.8h-3.7v5.1h3.7v-5.1zm0 5.8h-3.7v6.4h3.7v-6.4zm5.6-5.8h-3.8v5.1H27v-5.1zm0 5.8h-3.8v6.4H27v-6.4zm.6 7.9c2 .6 3 1 4.9 1.8 2 .9 2.6 1.2 2.9 1.7.2.3.4.9.4 1.5s-.3 1.2-.6 1.2c-.2 0-.5-.2-.9-.6-.6-.7-1.3-1.3-2.7-2.4-1.8-1.5-2.5-1.9-4.2-2.8l.2-.4zm5.1-13.7h-4v5.1h4v-5.1zm0 5.8h-4v6.4h4v-6.4zM20 412c-.1.3-.5 2-1.3 5.3-.4 1.7-.5 2.1-.5 3 0 .8 0 1-.1 1.2-.1.3-.4.5-.7.5-.5 0-.9-.4-1.2-1.1-.6-1.5-1-3.7-1-6 0-.8.1-1.9.2-3 .2-1.6.2-1.6 1-5.3.3-1.3.4-2 .4-2.6 0-.9-.2-1.6-.8-2.6.6 0 1.1.4 1.9 1.4.7.9 1 1.6 1 2.2 0 .4 0 .6-.6 1.7-.6 1.2-1.2 3.1-1.5 4.5-.3 1.1-.4 2.3-.4 3.5 0 1.5.1 2.5.5 3.7.5-1 .7-1.5 1-2.4l1.5-3.9.6-.1zm3.5 1.4c-.1.6-.1.8-.1 1.2 0 3.1 1.8 4.3 6.1 4.3.8 0 1.6-.1 2.4-.2.6-.1.6-.1 1.5-.4.2-.1.3-.1.4-.1.7 0 1.8 1 1.8 1.7 0 .3-.2.6-.6.7-.6.2-1.9.3-3.5.3-3.5 0-6-.6-7.3-1.7-1-.9-1.5-2.1-1.5-3.6 0-.7.1-1.3.3-2.2h.5zm0-8.9c1 .6 1.6.8 2.6.8 1.7 0 4.5-.6 5.6-1.3.4-.2.4-.2.6-.2.2 0 .6.1 1 .4.6.3.9.7.9 1s-.2.5-.8.6c-1.8.3-2.9.5-4 1-.9.4-2.5 1.3-3.6 2l-.3-.3c1.3-1.1 2.2-1.8 2.7-2.2-.6 0-.9.1-1.1.1-1.6 0-2.6-.4-3.8-1.6l.2-.3z" fill="#200701"/></g></g><line x1="89.2" y1="15.1" x2="89.2" y2="75.1" fill="none" stroke="#76544b" stroke-miterlimit="10"/></svg>