<svg version="1.1" id="レイヤー_1" xmlns="http://www.w3.org/2000/svg" x="0" y="0" viewBox="0 0 92.8 239.9" xml:space="preserve"><style type="text/css">.st0{fill:#210100}.st2{fill:#fff}</style><g><rect x="37.8" class="st0" width="55" height="149"/><rect y="66.7" class="st0" width="55" height="173.2"/><line x1="65.4" y1="0" x2="65.4" y2="30" fill="none" stroke="#76544b" stroke-miterlimit="10"/><g><g><path class="st2" d="M61.5 66.6c-.1 0-.6 0-.6.5 0 .6-.1 1.2-1.1 1.2-.7 0-.8-.4-.8-.8 0-.1.1-4.5.1-5.3 0-2.4 0-7.6-.2-9.9 0-.2-.1-1.1-.1-1.3 0-.1 0-.2.1-.2s.2 0 1 .5c.6.3.7.3 1.1.3h6.7c.5 0 .6 0 .8-.2.3-.5.4-.6.6-.6.3 0 1.9 1 1.9 1.4 0 .2-.1.2-.5.6-.3.2-.4.4-.4 1.4v4.7c0 1.3.2 6.8.2 8 0 .8-.5 1.2-1.1 1.2-.1 0-.6 0-.7-.8 0-.4 0-.5-.5-.5h-6.5zm6.6-8c.6 0 .6-.4.6-.7 0-.3-.1-5.4-.1-5.5-.1-.3-.4-.3-.5-.3h-6.8c-.3 0-.5.2-.5.3v5.3c0 .4 0 .8.6.8h6.7zm0 7.4c.2 0 .6 0 .6-.5V60c0-.5 0-.8-.6-.8h-6.7c-.6 0-.6.3-.6.8 0 .7.1 4.3.1 5.1 0 .7.1 1 .7 1h6.5zM56.4 78.1c.3.7.7 1.7.7 4.5 0 .4 0 4.3-1.3 4.3-.7 0-.8-.9-.8-1.1 0-.2.4-1.3.6-1.9.5-1.5.5-3.8.5-4.5v-1.7c.1.1.2.2.3.4zm2.6-3.8c.1 0 1.5.4 1.9.5.2 0 .4.1.4.3 0 .2-.2.4-.4.5-.3.3-.3.4-.3 1.7 0 .8.1 4.6.1 5.3 0 3.5-.2 7.1-2.8 9.9-.4.4-1.4 1.3-1.6 1.3 0 0-.1 0-.1-.1.2-.3.6-.9.8-1.1 1.7-2.6 2.3-5.1 2.3-9.7 0-1.5 0-7.1-.4-8-.1-.2-.1-.4-.1-.5.1-.1.1-.1.2-.1zm12.7 8.6c.4 0 .5 0 .8-.3l.4-.4c.1 0 1.7 1.3 1.7 1.7 0 .2-.1.4-.6.4h-.8c-.4 0-.6 0-.9.3-.1.1-.3.3-.4.3v-.1c0-.2.2-.8.2-1 0-.3-.2-.3-.4-.3h-3.4c-.1 0-.2 0-.2.1s.2.2.3.2c.7.3.7.3.7.4 0 .1-.4.5-.5.5-.1.2-.2.2-.2.4 0 .6.5.6.7.6h1.2c.2 0 .4 0 .6-.1.1-.1.4-.4.5-.4.2 0 1.8.8 1.8 1.2 0 .2-.1.2-.5.5-.1.1-.2.2-.2.4v2.3c0 1.4 0 2-.7 2.7-.3.3-.8.5-1 .5-.3 0-.3-.1-.7-.8-.2-.3-.6-.7-.9-.9-.2-.1-.2-.2-.2-.2h.1c.2 0 1 .1 1.2.1.6 0 .9-.2.9-1.8 0 0-.1-2.3-.1-2.4-.1-.3-.5-.3-.6-.3h-1.1c-.7 0-.7.3-.7.7 0 1.3 0 3 .1 4.3 0 .3.1 1.5.1 1.8 0 .7-1 .9-1.2.9-.4 0-.5-.4-.5-.5 0-.8.1-4.5.1-5.3v-1.7c-.1-.3-.5-.3-.7-.3h-1.1c-.7 0-.7.4-.7.7 0 .7.1 4 .1 4.7 0 .6-.5.9-1 .9-.6 0-.6-.5-.6-.7 0-.8.1-4.4.1-5.2 0-.2-.1-1.3-.1-1.5 0-.1 0-.2.2-.2s.8.5 1 .5c.3.1.4.2.9.2h1.3c.4 0 .7-.1.7-.7 0-1.4 0-1.5-.7-1.5h-2.6c-.5 0-.5.1-.7.9-.2.7-.8 1.1-1.2 1.1s-.7-.4-.7-.7c0-.4.2-.5.6-.9.4-.4.7-.9.9-1.6 0-.1.1-.4.2-.4s.2.4.3.7c.1.4.3.4.6.4h7.6zm-1.4-7.2c.2 0 .3 0 .5-.1.1-.1.4-.5.6-.5.2 0 1.6 1 1.6 1.1 0 .1 0 .1-.4.5-.2.2-.2.3-.2 1.5 0 .4.1 2.5.1 3 0 .6-.4 1-1 1-.4 0-.5-.2-.6-.6-.1-.3-.3-.3-.6-.3h-6.7c-.1 0-.6.1-.6.1-.1 0-.1 0-.2-.2l-.4-.5-.1-.1s0-.1.1-.1.8.1.9.1c.6 0 1.8.1 3 .1h4c.5 0 .7-.1.7-.6 0-1.1 0-1.3-.6-1.3h-3.8c-2 0-2.5 0-2.8.1h-.5c-.1 0-.1 0-.2-.2l-.4-.5-.1-.1h.1c.1 0 .8.1 1 .1.6 0 1.8.1 3 .1h3.7c.6 0 .6-.2.6-1.3 0-.4-.2-.6-.6-.6h-6.7c-.1 0-.6.1-.6.1-.1 0-.1 0-.2-.2l-.4-.5-.1-.1h.1c.1 0 .8.1 1 .1.7 0 2.5.1 3 .1h3.8zM65.7 104c-1.9 0-3.6 3.1-3.6 5.4 0 .7.1 1.1.3 1.6.2.4.2.6.2.8 0 .7-.6.8-.8.8-1 0-1.5-1.8-1.5-3.6 0-1.1.2-2.3.4-3.5.3-1.8.3-2.3.3-2.8 0-.8-.1-1.1-.3-1.4 0-.1-.4-.5-.4-.6s.3-.2.6-.2c1 0 1.7.9 1.7 1.5 0 .3-.4 1.4-.5 1.6 0 .2-.5 2.2-.5 2.7 0 .1 0 .3.2.3.1 0 .2-.3.4-.5.2-.5 1.7-3.3 4-3.3 1.4 0 2.8.7 2.8 5.3 0 3.1-.6 6.6-4.8 9.1-.9.5-1.5.7-1.6.7 0 0-.1 0-.1-.1s0-.1.5-.5c3.6-2.7 4.3-5.3 4.3-9.8.2-2-.2-3.5-1.6-3.5z"/></g></g><g><g><path class="st2" d="M26.3 98.6c0 .7-1.7 1.4-2.2 1.6-.3.1-.3.2-.4 1v2.4c0 .1 0 .4.2.4.1 0 1.9-.7 2.2-.9 2.2-.8 3.2-.9 3.7-.9 1.6 0 3.4 1.3 3.4 3.3 0 2.9-3.1 4.2-4.9 4.2-1.3 0-2.3-.6-2.3-1.8 0-1 .9-1.7 1.1-1.7.1 0 .1.1.1.1 0 .1 0 .1-.1.2s-.2.3-.2.6c0 1.1 1.2 1.1 1.4 1.1 1.5 0 3.3-1 3.3-2.7 0-1.6-1.2-2.4-2.1-2.4-.6 0-2 .3-4.6 1.7-1.2.7-1.4.7-1.4 1.1 0 .2.1 1.2.1 1.5 0 1-.3 2.5-1.1 2.5-.6 0-.8-.5-1-.8-.7-1.4-.8-1.4-1.1-1.4-.2 0-.4.1-.5.1-.1.1-.7.4-.8.4-.2 0-1.4-.7-1.4-1.4 0-.4.2-.9.6-.9.1 0 .8.1.9.1.6 0 1-.1 2.3-.7 1.1-.6 1.3-.6 1.3-1.2v-2.8c0-.2-.1-.5-.3-.5-.3 0-.9.2-1 .2-1.1.4-1.2.4-1.6.4-.7 0-1.6-1.5-1.6-1.7 0-.1.1-.2.2-.2s.3.1.4.1c.4.1.7.1 1 .1.8 0 2.7-.5 2.8-.7.1-.2.2-2.2.2-2.4 0-.7-.1-1.1-.7-1.8 0 0-.3-.3-.3-.4 0-.2.4-.2.5-.2 1.5 0 2.3 1.1 2.3 1.5 0 .2-.4 1-.5 1.1 0 .2-.2 1-.2 1.4 0 .1 0 .2.2.2s.8-.2.8-.6l-.1-.3s0-.1.1-.1c.2.3 1.3.6 1.3 1.2zm-5 8.5c0 .3.6 1 .9 1 .3 0 .6-.6.6-1.7 0-.1 0-.3-.1-.4 0 .1-1.4.8-1.4 1.1zm14.4-6.9c0 .5-.3 1.1-.7 1.1h-.7c-.1 0-.6.2-.7.2 0 0-.1 0-.1-.1l.1-.2c0-.1.1-.2.1-.4 0-.9-1.1-1.2-1.8-1.2-.4 0-.6.1-.9.2-.1 0-.2.1-.2.1-.1 0-.1 0-.1-.1 0-.2.9-1.4 2.4-1.4 1.6-.1 2.6.8 2.6 1.8zm-16.2 27.2c0-.3 0-.5-.2-.5-.1 0-2.3 1.9-2.8 1.9 0 0-.1 0-.1-.1 0 0 1-1.1 1.4-1.5.7-.8 1.7-1.9 2.8-4.2.3-.6.3-.7.5-.7s1.7 1 1.7 1.3c0 .1-.6.4-.7.5-.5.4-1.4 1.5-1.4 1.7 0 .2.1.2.3.3.3.2.5.2.5.4 0 .1-.3.4-.3.5v2.8c0 .8 0 4.7.1 5.8v.8c0 .3 0 1-1.1 1-.5 0-.6-.2-.6-.6 0-.1.1-.6.1-.7 0-.7.2-2.9.2-5.4-.4-1.9-.4-2.1-.4-3.3zm1.1-10.1c.2 0 1.7 1 1.7 1.3 0 .1-.6.5-.7.5-.9.7-2.4 1.8-2.8 2.1-.3.2-1.8 1.2-2 1.2-.1 0-.1 0-.1-.1s1.3-1.4 1.5-1.6c1.6-1.9 1.9-2.3 2-2.6.2-.6.2-.7.3-.7 0 0 0-.1.1-.1zm5 13.3c-1.9 0-2.6 0-2.7.1h-.5c-.1 0-.1 0-.2-.1l-.4-.5c-.1-.1-.1-.1-.1-.2s0 0 .1 0c.2 0 .8.1.9.1 1 0 1.9.1 3 .1h4.9c.4 0 .7-.2.7-.6 0-.1 0-.8-.1-1 0-.2-.2-.9-.2-1 0-.1.1-.2.1-.2.1 0 .9.3 1.1.4.5.2.9.3.9.5 0 .1-.4.4-.4.4-.1.1-.1.4-.1.6 0 .6.1.9.6.9.8 0 .9 0 1.1-.4.2-.3.4-.8.6-.8.2 0 1.7 1.3 1.7 1.5 0 .3-.4.3-1.2.3h-1.7c-.7 0-1.1 0-1.1.6s.1 4.1.1 4.2c0 1.6-1.6 1.9-1.7 1.9-.2 0-.3-.1-.5-.3-.5-.6-.7-.8-1.7-1.2-.4-.2-.4-.2-.4-.3 0-.1.2-.1.2-.1s1.3.1 1.6.1c1.1 0 1.1-.2 1.1-1.8v-2.6c0-.2-.2-.4-.6-.4h-5.1zm6.1-4.2c1 0 1.1 0 1.4-.4.6-.7.7-.8.9-.8.1 0 2 1.2 2 1.5 0 .3-.4.3-1.1.3H23.5c-.1 0-.4.1-.5.1s-.1-.1-.2-.2l-.4-.5-.1-.1s0-.1.1-.1c.2 0 .8.1.9.1 1 0 1.9.1 2.9.1h5.5zm-.4-8c.1 0 .4 0 .7-.1.1 0 .5-.4.7-.4.4 0 1.4.8 1.4 1.1 0 .1-.3.3-.4.4-.2.2-.2.8-.2 1.2 0 .3.1 3.1.1 3.5 0 .5-.4 1.3-1.3 1.3-.4 0-.4-.2-.4-.5 0-.4-.2-.4-.7-.4H27c-.5 0-.6 0-.7.4-.1.4-.2.9-.8.9-.8 0-.8-.5-.8-.7v-1.9c0-.6-.1-3.6-.1-4.3 0-.1-.1-.6-.1-.8 0-.1 0-.3.2-.3.1 0 1 .4 1.2.4.4.2.6.2 1.1.2h4.3zm-3.8 15.9c0 .5-.4 1.1-.9 1.1-.3 0-.5-.2-.6-.8-.2-.8-.6-1.8-.8-2.1l-.3-.6c0-.1.2-.1.2-.1.3 0 2.4.8 2.4 2.5zm3.9-13.2c.7 0 .7-.4.7-.6 0-1.4 0-1.5-.7-1.5H27c-.6 0-.7.3-.7.6 0 1.4 0 1.6.7 1.6h4.4zm-.1 2.8c.7 0 .7-.4.7-.6v-1.1c0-.4-.4-.4-.6-.4H27c-.7 0-.7.3-.7 1 0 .9 0 1.2.7 1.2h4.3zm-8.9 25c-.1-.2-.2-.2-.2-.3 0-.1.1-.1.2-.1 1.2 0 2.8 1.3 2.8 1.9 0 .2-.1.3-.4.5-.3.2-.5.4-.9 1-2.7 3.8-6.4 5.2-6.7 5.2-.1 0-.2-.1-.2-.2s.1-.2.6-.6c3.4-2.8 4.9-5.9 4.9-6.6.1-.4 0-.6-.1-.8zm6.3-.1c.1 0 1.1.4 2.2 1.1 1.6 1.1 3.5 3.1 3.5 4.6 0 .3-.2 1.3-1.1 1.3-.8 0-1.2-.8-1.5-1.9-.5-1.5-.8-2.3-2.3-3.9-.2-.2-1-.9-1-1 0-.1.1-.2.2-.2zm6.9-1.7c0 1.2-1 2.2-2.1 2.2-1 0-2.1-.8-2.1-2.1 0-1.1.8-2.1 2.1-2.1 1.6-.1 2.1 1.3 2.1 2zm-3.5.1c0 .9.8 1.3 1.4 1.3.9 0 1.3-.8 1.3-1.4 0-.8-.8-1.4-1.4-1.4-.4.1-1.3.5-1.3 1.5zM26 176.8c0 .6-.5.8-.7.8-.5 0-.7-.5-.8-1-.2-.6-.7-1.5-1.3-2.2-.1-.2-.2-.2-.2-.3 0-.1.1-.2.3-.2.5 0 2.7 1.1 2.7 2.9zm6.8-4.5l-.1-.2c0-.1.1-.2.2-.2.2 0 1.2.6 1.3.7.6.3.9.8.9 1.2 0 .2-.1.2-.4.4-.2.1-1 1.6-1.1 1.9-3.4 5.6-8.8 7.8-9 7.8l-.1-.1c0-.1 1-.8 1.2-.9 4.6-3.6 7.3-7.7 7.3-9.6-.1-.4-.1-.8-.2-1zm-3.5 2.1c0 .6-.3 1.1-.7 1.1-.5 0-.6-.6-.7-.9-.1-.7-.2-.9-.8-2.1 0-.1-.2-.4-.2-.5 0-.1.1-.1.2-.1 1 .2 2.2 1.2 2.2 2.5zm-4.4 21c0-.2.3-.2.5-.2 1.5 0 2 1.1 2 1.2 0 .3-.2.5-.7 1.1-.1.2-.2.2-.2.4s.3.2.4.2c.2 0 1.8-.2 3.3-.9.3-.1.8-.4 1-.4.2 0 .3.1 1.2.6.1.1.7.4.8.4.2.2.4.4.4.5 0 .3-.2.4-.9.8-.2.2-.3.3-1.1 1.5-1.1 1.8-3.5 5.4-7.9 8.3-2.4 1.6-4.2 2.1-4.4 2.1-.1 0-.2-.1-.2-.2s.1-.1.7-.5c6.7-3.7 10.9-11.2 10.9-11.9 0-.2-.2-.2-.2-.2s-3.1.7-3.6.7c-.1 0-.7-.1-.9-.1-.4 0-.5 0-1.4 1.1-1.3 1.5-1.9 2.1-3 2.9-.9.7-1.8 1.2-2.1 1.2-.1 0-.2-.1-.2-.1 0-.2 1.5-1.4 1.7-1.7 1.8-1.8 3.9-4.8 3.7-6.1.3-.1.2-.6.2-.7z"/></g></g></g></svg>