<svg version="1.1" id="レイヤー_1" xmlns="http://www.w3.org/2000/svg" xmlns:xlink="http://www.w3.org/1999/xlink" x="0" y="0" viewBox="0 0 89.8 89.8" xml:space="preserve"><style type="text/css">.st3{fill:#fff}</style><pattern x="-639.5" y="-338.5" width="1024.1" height="726.9" patternUnits="userSpaceOnUse" id="新規パターンスウォッチ_15" viewBox="1 -727.9 1024.1 726.9" overflow="visible"><g><rect x="1" y="-727.9" width="1024.1" height="726.9" fill="none"/><image width="2950" height="2094" id="SB005_2_" xlink:href="E7990A2954506413.png" transform="translate(1 -727.91) scale(.3471)" overflow="visible"/></g></pattern><g><g><g><circle cx="44.9" cy="44.9" r="44.9" fill="#a7912d"/></g><g><defs><circle id="SVGID_4_" cx="44.9" cy="44.9" r="44.9"/></defs><clipPath id="SVGID_1_"><use xlink:href="#SVGID_4_" overflow="visible"/></clipPath><pattern id="SVGID_2_" xlink:href="#譁ｰ隕上ヱ繧ｿ繝ｼ繝ｳ繧ｹ繧ｦ繧ｩ繝メ_15" patternTransform="matrix(.0527 0 0 .0974 -6748.796 -9541.57)"/><rect x="-8.7" y="-6.7" width="105.4" height="105.5" opacity=".6" clip-path="url(#SVGID_1_)" fill="url(#SVGID_2_)"/></g></g><g><path class="st3" d="M31.4 52.8c-.2 1.4-.1 2.1.2 2.4.2.2.5.3 1.7.3l-.1.9h-7.4l.1-.9c1.4 0 1.6-.1 2-.3.4-.3.7-1 .9-2.4l.3-2.1H18.6l.2-1.4L32 34.9h2l-2 14.4h3.2l-.2 1.3h-3.2l-.4 2.2zm-.5-15.2L20.2 49.4h9.1l1.6-11.8z"/></g><g><g><path class="st3" d="M46.5 52.6V58c0 .3-.1.4-.3.4-.1 0-.7.1-1 .1-.4 0-.5-.1-.5-.4.1-5.1.1-5.1.1-14.3 0-7.9 0-8.7-.1-10.6.9.5 1.2.7 2 1.3h3.1c.4-.5.5-.6 1-1.1.7.6.9.8 1.5 1.3.2.3.3.4.3.5 0 .2-.2.3-1 .6-1 2.2-2.4 4.6-3.3 6 1.2 1.2 1.6 1.7 2 2.4.7 1.1 1.2 2.7 1.2 4.1 0 1.5-.5 2.8-1.3 3.4-.6.5-1.1.8-2.1.9-.3-1.3-.5-1.6-1.6-1.8v1.8zm0-2.3c1 .1 1.7.1 2.1.1.6 0 .8-.1 1-.5.2-.5.4-1.4.4-2.3 0-2.4-.7-4-2.3-5.7.7-1.7 1.6-4.3 2.2-6.8h-3.2v15.2zm10.4-12.2c.5-.7.7-.8 1.2-1.5.9.7 1.1 1 2 1.8 0 .1.1.1.1.1 0 .1-.1.2-.2.1h-5.1V43c1.8-.4 3.2-.8 5-1.3l.2.4c-2.1 1.1-3.8 1.8-7.3 3.1 0 .6-.1.9-.4.9s-.4-.4-1-2.5c.8 0 .9 0 1.8-.2V33.2c2.3.3 2.8.4 2.8.7 0 .2-.3.4-1 .5v3.7h1.9zm.4 9.9c.3-.7.8-2.4 1.1-3.7 2.3.6 2.7.8 2.7 1.1 0 .2-.3.4-.9.4h-.3c-.6.9-1 1.3-1.9 2.3h6.2c.4-.5.5-.7 1-1.2.8.5 1 .7 1.6 1.2.3.2.3.3.3.4 0 .2-.3.4-.9.7-.1 2.1-.1 3.1-.1 4.3 0 1.2 0 2.3.1 4.9 0 .2-.1.3-.3.4-.1 0-1.1.1-1.3.1-.2 0-.3-.1-.3-.3V57h-9.1v1.2c-.1.3-.3.4-.9.4-.3 0-.5 0-.6.1h-.1c-.3 0-.4-.1-.4-.4.1-2.3.1-2.3.1-8.8 0-1.1 0-1.7-.1-2.8 1 .5 1.2.7 2 1.3h2.1zm7.1.6h-9.1v3.3h9.1v-3.3zm-9.1 4v3.7h9.1v-3.7h-9.1zm6.9-13.4c.6-.5 1.2-1 2.4-2.2 1.1-1.1 1.2-1.2 1.6-1.9 1.7.9 2.4 1.3 2.4 1.6 0 .1-.2.3-.5.3s-.5 0-.8-.1c-2.2 1.4-3.4 2.1-5 2.9v2.9c0 .4 0 .5.1.6.2.1.8.2 1.8.2 1.5 0 2.2-.1 2.4-.2.1-.1.3-.3.4-.6.1-.4.2-.9.4-1.5.1-.4.3-1.1.6-2l.4.1-.4 3v.4c0 .3 0 .3.3.4.4.2.5.3.5.6 0 .4-.3.7-.8.8-.3.1-1.5.1-2.8.1H63c-1.9 0-2.4-.3-2.4-1.8V35c0-1 0-1.2-.1-2 2.5.3 2.9.4 2.9.7 0 .2-.3.3-1.1.5v5z"/></g></g></g></svg>