<svg version="1.1" id="レイヤー_1" xmlns="http://www.w3.org/2000/svg" x="0" y="0" viewBox="0 0 92 436.8" xml:space="preserve"><g><g><path d="M71.6 111.8v.7c0 .2-.1.3-.3.4-.1.1-.8.1-1.1.1-.4 0-.5-.1-.5-.4v-.1c.1-2.4.1-4.3.1-6 0-2.7 0-4.8-.1-5.6 1 .5 1.3.7 2.2 1.3h11.6c.4-.5.5-.7.9-1.2.8.5 1 .6 1.8 1.2.2.2.3.3.3.4 0 .1-.4.5-1 .8v1.9c0 .9.1 5.7.1 7 0 .3-.1.3-.3.4-.2.1-1 .1-1.2.1s-.4-.1-.4-.4v-.7h-2.8v3.7c0 .5.1.6.7.6h4.9c.9 0 1.1-.1 1.4-.6.4-.9 1.1-2.9 1.7-4.4l.3.1-.3 3.8v.4c0 .2.1.3.4.4.7.3.9.5.9.8 0 .2-.2.4-.5.6-.4.2-.6.2-1.5.2-.3 0-3.7.1-4.2.1-3.5 0-4.1 0-4.6-.2-.7-.3-.9-.5-.9-1.3v-4.3h-2.5c-.6 1.6-1.1 2.4-2 3.3-2 1.8-4.8 2.7-9.5 3l-.1-.4c5.5-.9 8.7-2.8 9.7-5.9h-3.2zm15-16.6c.4-.6.6-.8 1.1-1.4 1.1.7 1.5.9 2.5 1.6.3.2.4.3.4.5 0 .3-.3.4-1.8.6-.6.6-.8.7-1.7 1.5.6.4.8.6 1.6 1.2.1.1.1.1.1.2s-.1.2-.3.2h-6.6v1.4c0 .3-.1.4-.3.4-.2.1-.8.1-1.1.1-.4 0-.5-.1-.5-.3v-1.7h-4.8v1.6c0 .3-.4.4-1.1.4-.4 0-.6-.1-.6-.3v-1.7h-3.4c-.4 0-.9 0-1.8.1l-.2-1c1.1.2 1.7.3 2.3.3h3v-.4c0-.8 0-1.5-.1-2 2.5.3 2.5.3 2.7.4.1 0 .2.1.2.2 0 .2-.2.3-1.1.5v1.3H80c0-1-.1-1.5-.1-2.3 2.5.3 2.9.4 2.9.7 0 .2-.2.3-1.1.5V99h3c.6-.7.7-.9 1.3-1.5l.6.4c0-.2.1-.8.3-1.9H68.6c-.4 2.2-1.4 4.1-2.2 4.1-.4 0-1-1-1-1.8 0-.3.1-.4.7-.9 1.2-.9 2-2.3 2.2-3.9h.4v.8c0 .3 0 .6-.1 1h8v-1.4c0-.8 0-.9-.1-1.4 1.2.1 2.5.4 2.9.5.3.1.4.2.4.3 0 .3-.4.4-1.3.6v1.4h8.1zm-2.9 9.9v-2.2H71.6v2.2h12.1zm-12.1.6v2.2h12.1v-2.2H71.6zm0 2.9v2.5h12.1v-2.5H71.6zm-3.2 26.2c1.3.9 2.2 1.2 3.7 1.2 1.3 0 3.4-.4 4.6-.8-.5-1-1.8-2.7-2.4-3.1-.2-.3-1.3-.5-2.2-.6.2-.5.4-.6 1.1-.8.4-.1.8-.1 1.3-.1 1 0 1.7.1 1.9.4s.3.3.3 1.1c.1.7.1.8 1.1 2.8 1.9-.7 3.1-1.3 3.7-2 .2-.2.4-.3.9-.3 1.1 0 1.7.3 1.7.7 0 .6-1 1-5.6 2.5.2.3.3.5.3.6.4.6 1 1.6 1.7 2.7 2.2-.9 2.9-1.1 3.5-1.6-.6-.6-.8-.8-1.5-1.3l.2-.3c1.1.6 1.8.8 2.4.8l.5-.1h.2c.4 0 .8.3.8.7 0 .6-1.6 1.5-5.4 2.9.7 1.2.9 1.6 1.3 2.2.4.8.7 1.3.9 1.5l.4.7c.3.5.5 1 .5 1.5 0 1.1-.4 1.8-.9 1.8-.3 0-.3-.1-.8-.4-1.4-1.1-4-1.9-6.5-1.9-1.3 0-2.5.3-3.5.8-1.1.6-1.7 1.3-1.7 2.3 0 1.7 1.8 2.7 5.3 2.7 1.4 0 2.2-.1 3.5-.4.1 0 .3-.1.3-.1.8 0 1.8.8 1.8 1.5 0 .3-.1.4-.4.5-.5.2-2.2.4-3.8.4-2.2 0-4.1-.3-5.4-.8-1.7-.8-2.7-2.1-2.7-3.5 0-2.5 3-4.2 7.4-4.2 1.7 0 3.2.2 5.3.6-.3-.9-1.1-3-2.1-4.8-1.9.7-4.3 1.1-6 1.1-1.2 0-2.1-.3-2.9-.8-.6-.4-.9-.8-1.3-1.7l.3-.3c.9 1.2 1.8 1.7 3.3 1.7 1.6 0 3.6-.4 6-1.1-.5-.9-1.5-2.7-2-3.4-1.9.6-3.7.9-5.2.9s-2.9-.7-4.1-2l.2-.2zm16.1-4.7c1 .6 1.8 1.1 2.5 1.7 1 .9 1.4 1.6 1.4 2.2 0 .7-.4 1.2-.9 1.2-.4 0-.4 0-1.2-1.8-.5-1-1.4-2.2-2.2-2.9l.4-.4zm2.9-1.6c1 .5 1.8 1 2.7 1.6 1.1.8 1.4 1.4 1.4 2.2 0 .7-.3 1.1-.7 1.1-.3 0-.4-.1-.6-.6-1-1.8-1.5-2.5-3.1-4l.3-.3zm-9.6 59.8c3-.9 5-2 6.6-3.9 1.7-1.9 2.5-4.2 2.5-6.7 0-2.7-1.1-4.9-3.2-6.2-1.2-.8-3.1-1.3-4.8-1.3-.3 0-.5 0-1 .1.7 1 .9 1.5.9 2.3 0 2.2-1.6 6.3-3.7 9.7-1.8 2.8-3.1 4.2-4.2 4.2-.5 0-.9-.2-1.2-.6-.3-.3-.3-.4-.8-1.8-.3-.7-.4-1.1-1.2-2.6-.4-.9-.6-1.7-.6-2.5 0-1.8 1-3.8 2.5-5.5 2.3-2.4 6-3.9 9.6-3.9 2.8 0 5.4.9 7.2 2.6 1.8 1.7 2.7 3.9 2.7 6.6 0 3.5-2 6.6-5.6 8.5-1.6.9-3.1 1.3-5.5 1.7l-.2-.7zm-9.2-8.7c0 1.3.4 2.7 1.1 3.7.4.5.8.8 1.1.8.6 0 2-1.5 3.3-3.7 2.1-3.3 3.6-6.9 3.6-8.7 0-.4-.1-.7-.4-1.4-4.9.9-8.7 5-8.7 9.3zm-.8 25.9c.9 1 1.3 1.3 2.4 1.3 1.7 0 3.8-.7 5.3-1.8.1-.1.3-.1.4-.1.6 0 1.6.8 1.6 1.3 0 .3-.1.3-.9.8-1.1.6-2.5 1.7-3.6 3.1-2 2.5-3.1 5.3-3.1 8 0 3.8 2.1 6.1 5.4 6.1 2.5 0 4.8-1.4 6.1-3.8.9-1.8 1.4-4.1 1.4-7.1 0-2.9-.3-5.3-.9-7.6-.1-.3-.1-.6-.1-.7 0-.3.2-.5.5-.5.4 0 1 .3 1.3.7.3.3.4.4.4 1 .1 1.3 1.1 4.2 2.2 6.4.8 1.6 1.5 2.6 2.2 3.4.5.5.8 1.4.8 2.3 0 .6-.3 1.1-.6 1.1-.6 0-1.4-1-2.5-3.2-1.1-2.4-1.9-4.4-3-8H83c.6 4 .6 5 .6 7 0 3.7-.8 6.4-2.5 8.3-1.3 1.5-3.4 2.4-5.5 2.4-4.2 0-6.9-3.1-6.9-7.9 0-1.8.4-3.8 1.1-5.5.7-1.7 1.4-2.9 2.9-4.8-1 .2-1.6.3-2.2.3-1.6 0-2.5-.7-3.3-2.2l.6-.3zm6.1 34c.8 0 2.2.3 2.8.5.6.2.8.5.8.9v.1c0 .2 0 .2-.2.7-.3 1-.6 3.4-.6 5.7 0 1.7.2 2.1 1.1 2.1.6 0 1.2-.2 3.8-1.4.5-.3.8-.3 1.1-.3.7 0 1.3.6 1.3 1.2 0 .4-.2.7-.6.8-.2.1-.6.2-1.9.6-3.4 1-5.2 1.8-7 3.1-1.5 1.2-2.2 2.3-2.2 3.6 0 2 1.6 3.1 4.7 3.1 1.7 0 4.5-.3 6.5-.8.3-.1.4-.1.6-.1.7 0 1.5.7 1.5 1.4 0 .5-.3.8-1.2.9-.9.2-3.7.4-5.4.4-2 0-3.6-.2-4.8-.6-1.9-.7-3.1-2.3-3.1-4.1 0-1.6.9-3.2 2.7-4.7.8-.7 1.8-1.3 3.4-2.2-.6 0-.9-.1-1.3-.4-.4-.3-.7-.9-.8-2.1-.1-.7-.1-1.3-.2-3.4-.1-2.4-.1-2.8-.3-3.2-.3-.5-.8-.8-2-1 .5-.7.7-.8 1.3-.8zm0 36.4c.8 0 2.2.3 2.8.5.6.2.8.5.8.9v.1c0 .2 0 .2-.2.7-.3 1-.6 3.4-.6 5.7 0 1.7.2 2.1 1.1 2.1.6 0 1.2-.2 3.8-1.4.5-.3.8-.3 1.1-.3.7 0 1.3.6 1.3 1.2 0 .4-.2.7-.6.8-.2.1-.6.2-1.9.6-3.4 1-5.2 1.8-7 3.1-1.5 1.2-2.2 2.3-2.2 3.6 0 2 1.6 3.1 4.7 3.1 1.7 0 4.5-.3 6.5-.8.3-.1.4-.1.6-.1.7 0 1.5.7 1.5 1.4 0 .5-.3.8-1.2.9-.9.2-3.7.4-5.4.4-2 0-3.6-.2-4.8-.6-1.9-.7-3.1-2.3-3.1-4.1 0-1.6.9-3.2 2.7-4.7.8-.7 1.8-1.3 3.4-2.2-.6 0-.9-.1-1.3-.4-.4-.3-.7-.9-.8-2.1-.1-.7-.1-1.3-.2-3.4-.1-2.4-.1-2.8-.3-3.2-.3-.5-.8-.8-2-1 .5-.7.7-.8 1.3-.8zm-4.8 40.7c1.3 1 2.2 1.3 3.7 1.3 1.3 0 3.4-.4 4.6-.8-.6-1.2-1.8-2.7-2.4-3.1-.4-.3-1.1-.5-2.2-.6.2-.5.4-.6 1.1-.7.4-.1.8-.1 1.3-.1 1 0 1.7.1 1.9.4s.3.3.3 1.1c0 .6 0 .6 1.1 2.8 2.6-1 3.2-1.3 4-2.1.2-.2.5-.3.9-.3 1.1 0 1.7.3 1.7.7 0 .4-.4.6-1.8 1.2-.4.2-1.8.7-4.1 1.4l.6 1c.2.3.6 1.1 1.4 2.3 2.2-.9 2.7-1.1 3.5-1.5-.6-.6-.8-.8-1.5-1.3l.2-.3c1.1.5 1.8.8 2.4.8l.5-.1h.2c.4 0 .8.3.8.7 0 .7-1.6 1.5-5.4 2.9.9 1.5 1 1.7 1.3 2.2.6 1.1.6 1.1 1.3 2.2.3.5.5 1 .5 1.5 0 1.1-.4 1.8-.9 1.8-.3 0-.3-.1-.8-.4-1.4-1.1-4-1.9-6.5-1.9-1.3 0-2.5.3-3.5.8-1.1.6-1.7 1.3-1.7 2.3 0 1.7 1.8 2.7 5.3 2.7 1.4 0 2.2-.1 3.5-.4.1 0 .3-.1.3-.1.8 0 1.8.8 1.8 1.5 0 .2-.1.4-.4.5-.5.2-2.2.4-3.8.4-2.2 0-4.1-.3-5.4-.8-1.7-.8-2.7-2.1-2.7-3.5 0-2.5 3-4.2 7.4-4.2 1.7 0 3.2.2 5.3.6-.3-1.1-1.1-2.8-2.1-4.8-1.9.6-4.3 1.1-6 1.1-1.2 0-2.1-.3-2.9-.8-.6-.4-.9-.8-1.3-1.7l.3-.3c.9 1.2 1.8 1.7 3.3 1.7 1.6 0 3.7-.4 6-1.1-.6-1.1-1.3-2.4-2-3.4-1.9.6-3.7.9-5.2.9s-2.9-.7-4.1-2l.2-.5zM22.3 113.4c.8-.9 1-1.2 1.7-2.1 1.3 1 1.7 1.3 2.9 2.3.1.1.1.2.1.2 0 .1-.1.2-.3.2H4.4c-.8 0-2 .1-2.7.2l-.3-1.2c.9.2 2.3.3 2.9.3h8.5v-1.6c0-.4 0-.8-.2-1.7 2.9.3 3.2.4 3.2.8 0 .2-.2.3-1.1.6v1.9h7.6zm.3 10.3c.3-.4.7-.8 1.1-1.2.9.6 1.2.8 2 1.4.2.2.2.2.2.3 0 .2 0 .2-1 .8v4.5c0 .9.1 1.8.1 2.6 0 1.3 0 1.3.1 2.1 0 .7-.3 1-1.1 1.3-.5.2-1 .3-2.2.5-.1-.7-.3-1.1-.9-1.3-.4-.3-1.1-.4-2.7-.5v-.5c2 .1 2.9.2 4.6.2.2 0 .3-.1.3-.5v-9H5v5.7c0 2.1 0 2.7.1 5.5-.1.2-.1.2-.3.3-.3.1-.9.1-1.3.1-.3 0-.4-.1-.4-.3-.1-3.3-.1-3.7-.1-4.5 0-5.2 0-6.7-.1-8.8 1.1.5 1.5.7 2.4 1.3h17.3zm-3.7-7.3c.4-.5.5-.6 1-1.1.8.5 1.1.7 1.8 1.2.2.1.2.2.2.3 0 .2 0 .2-.9.8v1.2c0 .6 0 1 .1 3.3 0 .2-.1.3-.3.4-.2.1-.9.1-1.3.1-.3 0-.4-.1-.4-.3v-1H8.9v.8c0 .3-.4.4-1.2.4-.6 0-.7-.1-.7-.3v-.1c.1-1.5.1-2.2.1-3.6s0-2.2-.1-3.3c1 .4 1.3.6 2.2 1.1h9.7zm-1.5 10.4c.4-.5.5-.6 1-1.1.8.5 1 .7 1.7 1.2.1.1.1.2.1.2 0 .1 0 .1-.8.7v4.6c0 .3-.4.4-1.5.4-.3 0-.3-.1-.4-.2v-1h-7.3v1.4c-.1.3-.3.3-1 .4h-.5c-.3 0-.4-.1-.4-.4v-4.1c0-1.5 0-2.5-.1-3.5 1 .4 1.3.6 2.2 1.1h7zm-8.5-6.1H19V117H8.9v3.7zm1.4 10.4h7.3v-3.7h-7.3v3.7zm-7.6 25.2c.8.1 1.1.1 1.6.1.3 0 1 0 3.4-.1 1-2 1.1-2.2 2-4.2 1.2-2.8 1.7-3.9 1.9-5.1 2.8.8 3.2 1 3.2 1.3 0 .3-.2.4-1.2.5-2.1 3.3-2.9 4.5-5.1 7.5 4-.1 8.5-.3 12.7-.7-1.1-1.4-2.1-2.5-3.9-4.1l.2-.3c2.1 1.2 3.4 2 5.3 3.5s2.1 1.7 2.1 2.7c0 1.2-.3 2.1-.8 2.1-.2 0-.4-.1-.6-.5-.8-1.3-1.2-2-1.8-2.9-6.9 1-12.2 1.6-17.5 2.1-.3.9-.4 1.1-.6 1.1-.1 0-.2-.1-.3-.3-.1-.1-.2-.5-.3-1l-.3-1.7zm17.2 5.4c.5-.6.6-.8 1.1-1.3.8.6 1.1.8 1.8 1.3.2.2.3.3.3.4 0 .2-.2.3-1 .8v2.1c0 2.8 0 4.6.1 6.6 0 .2 0 .3-.1.3-.1.1-.9.2-1.7.2-.2 0-.2-.1-.3-.2v-1.3H7.8v1.3c0 .2-.1.2-.2.3-.1.1-.9.1-1.3.1-.3 0-.4-.1-.4-.3v-.1c.1-2.1.1-5.1.1-8 0-1 0-2.1-.1-3.5 1 .5 1.3.7 2.3 1.3h11.7zm-12.1 8.2h12.5v-7.5H7.8v7.5zm6 36.2c3-.9 5-2 6.6-3.9 1.7-1.9 2.5-4.2 2.5-6.7 0-2.7-1.1-4.9-3.2-6.2-1.2-.8-3.1-1.3-4.8-1.3-.3 0-.5 0-1 .1.7 1 .9 1.5.9 2.3 0 2.2-1.6 6.3-3.7 9.7-1.8 2.8-3.1 4.2-4.2 4.2-.5 0-.9-.2-1.2-.6-.3-.3-.3-.4-.8-1.8-.3-.7-.4-1.1-1.2-2.6-.4-.9-.6-1.7-.6-2.5 0-1.8 1-3.8 2.5-5.5 2.3-2.4 6-3.9 9.6-3.9 2.8 0 5.4.9 7.2 2.6 1.8 1.7 2.7 3.9 2.7 6.6 0 3.5-2 6.6-5.6 8.5-1.6.9-3.1 1.3-5.5 1.7l-.2-.7zm-9.2-8.8c0 1.3.4 2.7 1.1 3.7.4.5.8.8 1.1.8.6 0 2-1.5 3.3-3.7 2.1-3.3 3.6-6.9 3.6-8.7 0-.4-.1-.7-.4-1.4-4.9 1-8.7 5-8.7 9.3zm6.2 25.8c.5-.6.7-.8 1.3-1.3.8.7 1 .9 1.8 1.7.1.1.1.2.1.2 0 .1-.1.1-.3.1H8.6v2.4h1.9c.5-.6.7-.8 1.2-1.3.8.7 1 .9 1.7 1.6.1.1.1.2.1.2 0 .1-.1.1-.3.1H8.6v2.6h2.2l1.3-1.3c.9.7 1.1.9 1.9 1.6.1.1.1.2.1.3 0 .1-.1.1-.3.1H3.2c-.8 0-1.1 0-1.6.1l-.2-1c.7.1 1 .2 1.8.2h3.6v-2.6H4.1c-.6 0-.8 0-1.4.1l-.2-1c.5.2.9.2 1.6.2h2.7v-2.4H3.2c-.4 0-.8 0-1.2.1l-.2-1c.6.2 1.1.3 1.4.3h3.5v-.4c0-1.3 0-1.9-.1-3.1 2.9.4 3.1.5 3.1.7s-.3.4-1.3.7v2.2h2.4zM5 238.8v5.7c0 .2-.1.3-.2.3-.2.1-.9.1-1.3.1-.3 0-.4-.1-.4-.3.1-4.5.2-7.2.2-11.4v-2.5c.9.5 1.2.6 2.2 1.1h5c.4-.4.6-.5 1-.9.6.4.8.6 1.4 1.1.2.1.3.3.3.4 0 .2-.1.3-.7.6v6.6c0 .2 0 .4.1 2.6v.6c0 1.2-.4 1.5-2.8 1.9-.1-.6-.2-.9-.5-1.1-.3-.3-.6-.4-2.3-.7v-.4c.8 0 .8 0 2.1.1.8.1.8.1 1.3.1.2 0 .3 0 .3-.2v-3.8H5zm5.5-6.1H5v2.4h5.5v-2.4zm0 3H5v2.5h5.5v-2.5zm9.3 1.7c.1 2.6.1 4.3.1 4.9v.5c0 1.3-.5 1.7-2.7 2.1-.1-1.3-.1-1.3-3.7-2.2v-.3c2.9.3 2.9.3 4.2.3.3 0 .4-.1.4-.3v-5.3h-2.9c-.6 0-1.1 0-1.5.1l-.2-1c.6.1 1 .2 1.7.2H18v-3.9h-3.2c-.7 0-.9 0-1.3.1l-.2-.9c.6.1.8.1 1.5.1H18V228h-1.9c-.8 0-1 0-1.5.1l-.2-.9c.6.1 1.1.2 1.7.2h3.1c1-1.8 1.2-2.3 1.8-3.9h-3.6c-1.1 1.5-2.2 2.7-4 4.5l-.3-.3c2-2.6 3.5-5.5 4.4-8.3.5.2.9.3 1.1.4 1.3.4 1.5.5 1.5.7 0 .2-.3.3-1.2.4-.5.9-.7 1.1-1.1 1.8H21c.4-.5.5-.7 1-1.2 1 .6 1.2.8 2.1 1.5.2.1.3.3.3.3 0 .3-.3.3-1.4.5-.4.5-.8.9-1 1.2-1 1.3-1.2 1.5-2 2.2h3c.4-.4.5-.6 1-1 .6.4.8.6 1.4 1 .2.2.3.3.3.4 0 .2-.2.4-.9.7v3.3h.3c.5-.6.6-.9 1.1-1.5.6.8.8 1 1.4 1.8 0 .1.1.1.1.2s-.1.1-.2.1h-2.6c0 4.1 0 4.5.1 6.1 0 .2 0 .3-.1.3-.1.1-.7.1-1.2.1-.4 0-.6-.1-.6-.3v-1.7h-3.3v.7zm3.2-5.5v-3.8h-3.3v3.8H23zm0 4.6v-3.9h-3.3v3.9H23zM8.8 265.7c-2 .7-2.9 1-3.6 1.5-.4.3-.6.3-.8.3-.3 0-.9-.4-1.2-.8-.5-.6-.9-1.6-.9-2.1 0-.1.1-.3.2-.6.6 1.2 1.1 1.5 2.1 1.5.6 0 2.5-.4 4.8-1 .6-1.6 1.1-3.6 1.1-4.6 0-.9-.5-1.3-2.2-1.9.3-.2.5-.3.8-.3.4 0 1.1.1 1.9.4 1.3.4 2 .9 2 1.5 0 .2-.1.3-.4.8-.4.6-1 1.8-1.8 3.8 1.2-.3 1.8-.3 2.4-.3 2.4 0 3.6 1.4 3.6 4.4 0 3.6-1.4 8.2-3.1 10.1-.7.8-1.8 1.3-2.7 1.3-.5 0-.7-.2-.8-.6-.1-.8-.1-.8-3.1-3.3l.3-.4c2.2 1.2 3.8 1.9 4.3 1.9.6 0 1.1-.6 1.8-2.4 1-2.3 1.7-5.4 1.7-7.5 0-1.9-.5-2.5-2-2.5-.8 0-1.3.1-2.9.6-.4 1-.4 1-1.6 3.8-.2 0-.7 1.3-1.7 3.7-1.1 2.6-2 4.6-2.5 5.4-.2.4-.4.5-.7.5-.5 0-.8-.7-.8-1.9 0-.7.1-.9.6-1.6.6-.6 1.3-1.8 2.1-3.3 1.1-2.1 1.1-2.1 2.2-4.6l.9-1.8zm10.9-1.8c2.2.6 3.9 1.8 5.1 3.4 1.1 1.4 1.6 2.7 1.6 4 0 1-.4 1.5-1.1 1.5-.2 0-.4 0-.6-.2-.4-.3-.6-.3-1.1-.3-1 0-1.1 0-3.5.3l-.1-.4c2.8-.9 3.4-1.1 4.3-1.4-.1-1-.4-1.7-.9-2.7-.9-1.7-2-2.8-3.8-3.7l.1-.5zM3.6 298.2c1.3 1.3 2.1 1.6 3.5 1.6.7 0 1.5-.1 2.5-.3.7-1.8 1-3 1-4 0-.9-.4-1.5-1.8-2.2.3-.2.4-.2.7-.2.6 0 1.4.3 2.2.6 1 .5 1.3.8 1.3 1.2 0 .2-.1.4-.3.7L11 299c2.1-.7 2.3-.9 3.1-1.5.2-.2.3-.2.6-.2 1.1 0 1.9.4 1.9.8 0 .7-1.7 1.4-6.2 2.5-.3.6-.7 1.7-1.5 3.4-.8 1.9-3 6.6-3.2 7.1-.4.8-.7 1-1 1-.5 0-.9-.9-.9-2 0-.6.1-.7.3-1 .6-.7 1-1.1 1.3-1.7 1.4-2 2.4-3.9 3.5-6.6-.6.1-.9.1-1.3.1-1 0-1.8-.2-2.5-.6-.8-.5-1.5-1.1-2-2l.5-.1zm14.8 1.6c1.9.2 3.5.7 4.8 1.5 1.1.7 1.8 1.5 1.8 2.2 0 .5-.3.8-.7.8-.2 0-.4-.1-.6-.2-.8-.5-1.3-.6-2.7-.6-2.2 0-2.9.6-2.9 2.5 0 .8.1 2 .6 4.8 1.7.5 3.2 1.2 4 1.8.8.6 1.1 1.3 1.1 2.2 0 .6-.2 1-.6 1-.3 0-.4-.1-1-.7-1-1.1-1.9-1.8-3.4-2.5v.5c0 1.1-.2 1.8-.8 2.4-.8.8-2.1 1.2-3.6 1.2-2.5 0-4.3-1.2-4.3-3 0-2 2.1-3.3 5.2-3.3.6 0 1 0 1.7.1-.1-2.2-.1-2.4-.1-2.8 0-2.3.2-3.2 1-4 .6-.6 1.3-1 2.7-1.3.4-.1.5-.1 1.5-.4-.8-.8-1.6-1.3-3.6-1.9l-.1-.3zM16.9 312c-.9-.3-1.5-.3-2.4-.3-2.4 0-3.8.8-3.8 2.1 0 1 1.1 1.7 2.8 1.7 2.3 0 3.4-.9 3.4-2.7v-.8zM1.4 340.7c1.2.2 1.8.2 3.7.2h16.5c.8-1.1 1.1-1.4 1.9-2.4 1.4 1.1 1.9 1.5 3.2 2.7.1.1.1.1.1.2s-.1.2-.3.2H5c-1.7 0-2.2 0-3.5.2l-.1-1.1zm7.2 40.7v3.1h2.9c.6-.7.8-1 1.4-1.6.9.8 1.2 1 2 1.9.1.1.1.2.1.3 0 .1-.1.1-.2.1H8.7c.1 3.7.1 3.7.1 5.2 0 .3-.3.4-1.2.4-.5 0-.6 0-.6-.3.1-.9.1-2.7.1-5.3H3.5c-1.1 0-2 .1-2.5.2l-.1-1c.7.2 1.5.2 2.6.2H7v-3.1H4.4v1.1c0 .3-.3.4-1.2.4-.4 0-.5-.1-.5-.2.1-3.2.1-3.6.1-4.9 0-2-.1-5.7-.1-6.7 1 .5 1.2.6 2.1 1.2h2.3v-2.8H3.5c-1.2 0-1.5.1-2.1.3l-.2-1.1c.6.1 1.4.2 2.3.2H7c0-2.3 0-2.4-.1-3.7.6.1 1.1.2 1.3.2 1.3.2 1.5.3 1.5.5 0 .3-.3.4-1.2.6v2.4h2.2c.6-.7.8-1 1.5-1.6l1.9 1.9c.1.1.1.2.1.2 0 .1-.1.1-.1.1H8.6v2.8h2.6c.3-.4.6-.7.9-1.1.6.4.8.6 1.4 1.1.2.2.3.3.3.4 0 .2-.2.4-.8.8v3.8c0 1.5 0 1.5.1 5.1 0 .2 0 .2-.1.3-.1.1-.8.1-1 .1-.4 0-.6-.1-.6-.3v-.9H8.6zm-1.5-5.1v-3.5H4.4v3.5h2.7zm-.1.6H4.4v3.8H7v-3.8zm4.4-4.1H8.6v3.5h2.8v-3.5zm0 4.1H8.6v3.8h2.7v-3.8zm9.1-.9h2.7l1.9-1.9c1 .9 1.3 1.2 2.2 2.1.1.1.1.2.1.3 0 .1-.1.1-.2.1h-6.8v6.8c0 .5.1 4.5.1 6.7 0 .4-.2.5-1.3.5h-.3c-.4 0-.5-.1-.5-.4 0-1.2 0-1.2.1-3.3.1-1.8.1-1.9.1-3.5v-6.8h-2.9c-.8 0-1.6.1-2.1.2l-.2-1.1c.6.1 1.3.2 2.3.2h2.9V368h-2.4c-1.1 0-1.5 0-2 .2l-.1-1c.5.1 1.1.2 2.1.2h6.4c.7-.8.9-1.1 1.7-1.8 1.1.9 1.4 1.2 2.4 2.2.1.1.1.1.1.2s-.1.1-.3.1h-6v7.9zM7 408.2c0-.6 0-.9-.1-1.6 2 .2 2.3.3 2.6.4.1.1.2.2.2.3 0 .2 0 .2-1 .5v2.2h1.4c.4-.5.6-.7 1.1-1.2.6.4.8.6 1.3 1 .3.2.4.3.4.5 0 .1-.2.3-.8.6v4c0 1.6 0 1.6.1 4.1 0 .2-.1.3-.3.3-.2.1-.8.1-1.1.1s-.4-.1-.5-.3v-.9h-5v5.5c2.5-.5 2.5-.5 5.1-1.2-.8-1.2-1.1-1.7-2.1-2.6l.2-.3c2.6 1.6 3.2 2 4 2.8.4.4.6.8.6 1.3 0 1-.4 1.8-.9 1.8-.3 0-.3-.1-.6-.7s-.5-1.1-.9-1.8c-1.4.7-5.2 2.2-7.8 3.1-.1.8-.2 1-.4 1-.1 0-.3-.1-.4-.3-.1-.1-.2-.4-.3-.9-.3-.7-.3-.8-.6-1.5.9-.1 1.1-.1 2.4-.3v-14.7c-1.1 1.3-1.7 1.7-2.8 2.6l-.3-.4c1.9-2.1 2.5-3 3.7-5.2 1.3-2.3 1.9-3.5 2.4-5 2.3.6 3 .9 3 1.1 0 .2-.2.3-1.1.4l-.1.3c1.3.3 2.3.7 3.2 1.1 1 .5 1.3.8 1.3 1.7 0 .8-.3 1.4-.7 1.4-.2 0-.3-.1-.5-.4-1.2-1.5-2.5-2.7-3.6-3.3-1.2 1.8-2.4 3.4-4 5.3.6.3.8.4 1.5.8H7v-1.6zm3.4 5.3v-2.9h-5v2.9h5zm-5.1.6v3.5h5v-3.5h-5zm13.5-8.8v-1.7c0-.8 0-1.1-.1-2 2.1.2 2.5.3 2.8.5.1.1.2.1.2.2 0 .2-.3.4-1.1.6v2.4h3.1c.5-.7.7-.9 1.2-1.5.9.7 1.2.9 2 1.7.3.3.3.4.3.5 0 .3-.3.4-1.3.4-1 .9-1.4 1.1-2.4 1.7l-.3-.3c.4-.6.5-.8.9-1.8h-8.3c-.1 1-.2 1.4-.6 2.3 1 .5 1.1.6 1.9 1.1h5.2c.4-.5.5-.6 1-1.1.7.4 1 .6 1.6 1.1.2.1.3.2.3.4s-.1.3-.8.7v1.5c0 .7 0 1 .1 3.8 0 .4-.2.5-1.4.5-.3 0-.3 0-.4-.2v-.7H17v3.2h6.3c.4-.6.5-.8 1-1.3.8.5 1 .6 1.7 1.1.3.2.4.4.4.5 0 .2-.2.3-.8.8v1.9c0 1.4 0 2.7.1 5.1 0 .2-.1.3-.2.3-.3.1-.8.2-1.4.2-.3 0-.4-.1-.4-.3v-1.7h-6.6v1.8c0 .2-.1.3-.3.3-.3.1-.7.1-1.1.1-.3 0-.4-.1-.4-.3v-.2c0-4.1.1-12.5.1-14.9v-1.6c0-.8 0-1.5-.1-2-.2.5-.4.7-.8.9-.2.1-.4.2-.5.2-.4 0-.7-.8-.7-1.7 0-.3.1-.4.4-.6.4-.2.7-.5 1-1.1.5-.9.7-1.7.8-3h.5v.9c0 .4 0 .7-.1 1.3h2.9zm3.7 9.3V410h-5.7v4.6h5.7zm.9 9.8v-5.3h-6.6v5.3h6.6z" fill="#200701"/></g></g><line x1="78" y1="0" x2="78" y2="60" fill="none" stroke="#76544b" stroke-miterlimit="10"/></svg>