<svg version="1.1" id="レイヤー_1" xmlns="http://www.w3.org/2000/svg" x="0" y="0" viewBox="0 0 55 179" xml:space="preserve"><g><rect width="55" height="179" fill="#210100"/><line x1="27.7" y1="0" x2="27.7" y2="30" fill="none" stroke="#76544b" stroke-miterlimit="10"/><g><g><path d="M25.9 56.8c.2.1 1.2.6 1.4.6.5 0 1.1-1.5 1.4-2.2.4-.9.8-2.2.8-2.6 0-.2-.1-.4-.2-.5-.1-.1-.1-.2-.1-.3 0-.1.1-.2.2-.2.2 0 .9.2 1.5.7.7.5.9 1.4.9 1.6 0 .2-.1.2-.5.4-.2.1-.3.2-.9 1.3-.4.7-.8 1.5-1.3 2.2-.1.2-.2.4-.2.5 0 .2.2.4.4.6 1.9 1.7 2.2 2.9 2.2 3.4 0 .6-.5.7-.7.7-.8 0-1.1-.6-1.9-1.9-.2-.4-.6-1.1-.9-1.1-.2 0-.4.2-.5.3-4 5-8.4 6.9-8.6 6.9-.1 0-.2 0-.2-.1s.4-.4.7-.6c3.7-2.9 5.2-4.6 5.8-5.4.5-.7 1.6-2 1.6-2.4 0-.5-2-1.7-2.9-2.1-.4-.2-.5-.2-.5-.4 0-.1 0-.2.2-.2.3.1 1.2.3 2.3.8zm-3.7 30.6c2.6 0 4.8-.3 6.2-.5.6-.1 3.1-.6 3.6-.6.6 0 3.3.4 3.3 1.5 0 .5-.9.6-1.2.6-.2 0-.7-.1-1.2-.2-.7-.1-1.5-.2-2.5-.2-1.8 0-6.5.5-7.7.7-.3 0-1.9.4-1.9.4-.3 0-1.2-.5-1.5-.8-.4-.4-.7-1.4-.7-1.5 0-.2.1-.2.2-.2h.2c1.5.7 1.7.8 3.2.8zm1.3-7.1c.7 0 3.9-.4 4.7-.6.3 0 1.7-.3 1.9-.3 1 0 2 .5 2 1.1 0 .5-.8.6-3.2.7-.9 0-5.1.6-5.3.6-.6 0-1.1-.5-1.2-.7-.1-.1-.6-.7-.6-.8 0-.1.2-.1.3-.1s1.2.1 1.4.1zm2 25.7c1.1 0 4.2-.8 4.5-.9.1 0 .6-.3.7-.3.6 0 1.7.9 1.7 1.2 0 .2-.5.7-.5.8-.4.9-.7 3.6-.7 4.2 0 .2 0 .3.3.3s2.1-.4 2.5-.4c.9 0 2.3.7 2.3 1.5 0 .2-.1.5-.5.5-.2 0-.5-.1-1.2-.3-.5-.1-1.3-.2-2.2-.2-2.8 0-6.6.4-8.3.9-.2 0-.7.3-.9.3s-1.8-.8-1.8-2c0-.1.1-.2.2-.2s.4.1.6.2c.4.1.9.2 1.5.2s5.6-.4 5.9-.5c.2-.1.3-.4.4-.8 0-.4.5-3.9.5-3.9 0-.3-.2-.3-.3-.3-.2 0-3 .7-3.6.9-.1 0-.7.3-.8.3-.5 0-1.3-1-1.3-1.5 0-.1.1-.2.2-.2s.6.2.8.2zm2.7 21.6c0 .2-.3.9-.3 1.1-.1.6-.2 3.9-.2 4.7v5.4c0 .5.1 1.6.1 2.1 0 .6-.2 2-.8 2-.3 0-.8-.8-.8-2.1 0-.5.1-2.6.1-3 0-1.4.1-5.5.1-6.5 0-1.4 0-3.1-.5-4-.1-.2-.3-.4-.5-.6 0 0-.1-.1-.1-.2 0-.2.5-.5.8-.5.1 0 2.1.7 2.1 1.6z" fill="#fff"/></g></g></g></svg>