<svg version="1.1" id="レイヤー_1" xmlns="http://www.w3.org/2000/svg" xmlns:xlink="http://www.w3.org/1999/xlink" x="0" y="0" viewBox="0 0 80 80" xml:space="preserve"><pattern x="-644.3" y="-343.5" width="1024.1" height="726.9" patternUnits="userSpaceOnUse" id="新規パターンスウォッチ_14" viewBox="1 -727.9 1024.1 726.9" overflow="visible"><g><rect x="1" y="-727.9" width="1024.1" height="726.9" fill="none"/><image width="2950" height="2094" id="SB005_1_" xlink:href="6D384EC0259735B5.png" transform="translate(1 -727.91) scale(.3471)" overflow="visible"/></g></pattern><g><g><circle cx="40" cy="40" r="40" fill="#a7912d"/></g><g><defs><circle id="SVGID_4_" cx="40" cy="40" r="40"/></defs><clipPath id="SVGID_1_"><use xlink:href="#SVGID_4_" overflow="visible"/></clipPath><pattern id="SVGID_2_" xlink:href="#譁ｰ隕上ヱ繧ｿ繝ｼ繝ｳ繧ｹ繧ｦ繧ｩ繝メ_14" patternTransform="matrix(.04695 0 0 .08679 -6537.815 -9064.87)"/><rect x="-7.8" y="-6" width="93.9" height="94" opacity=".6" clip-path="url(#SVGID_1_)" fill="url(#SVGID_2_)"/></g><g><path d="M50.5 20.1c.8-1.1 1.6-2.4 2.2-3.7.2-.4.3-.7.3-.8 0-.1-.1-.1-.1-.1-.3 0-.8.3-2.3 1.1-2 1.1-2.3 1.2-3 1.6.1.8.1 1.1.2 1.6.3 1.8.5 2.6.8 3 .3.4 1 .5 2.1.3 1.2-.2 2.4-.6 3.2-1 .2-.1.3-.1.3-.2.2 0 .4 0 .7.2.4.2.6.4.6.7 0 .2-.1.4-.3.5-.6.3-1.6.5-2.9.7-2.5.4-3.8.2-4.4-.7-.5-.6-.8-1.7-1.3-4.6-.1.1-.1.1-.8.5-.1.1-.3.2-.6.4-.2.1-.3.2-.5.4-.2.1-.2.2-.5.3s-.4.3-.5.3c-.4.1-.9-.2-1.4-.7-.4-.3-.6-.7-.7-1v-.2c.7.6 1.1.7 1.6.7.4-.1 2.1-.8 3.4-1.5-.5-3.4-.6-3.5-.8-3.9-.2-.5-.7-.7-1.5-.8.1-.2.3-.3.6-.3.6-.1 1.4 0 2.1.2.4.1.6.3.6.6 0 .1 0 .1-.1.4-.1.5-.1 1.7 0 3.3 2-1 3.1-1.6 3.6-1.9.9-.5.9-.5 1.2-.8.2-.2.3-.2.4-.2.3-.1.9.2 1.5.6.4.3.6.5.7.7 0 .2 0 .3-.4.6-.2.1-.6.5-1.6 1.7-.7.8-1.3 1.3-2.3 2.3l-.1-.3zm-2 10.7c1.9.8 2.7 1.4 2.8 2.1.1.5-.1 1.1-.4 1.1-.2 0-.3-.1-.5-.4-.7-1.1-1-1.5-2.1-2.6l.2-.2zm3.1-1.2c.7.2 1.2.4 1.7.8.5.3.8.6.8 1 .1.5-.1 1.1-.4 1.2-.2 0-.3-.1-.5-.5-.5-1-1-1.7-1.7-2.3l.1-.2zm-.1 10c1.1-1.1 1.6-1.7 2.3-2.8C55 35 56 32.9 56.5 31c.2-.6.2-.9.2-1.2-.1-.4-.3-.6-1.1-.8.2-.1.2-.2.4-.2.4-.1 1 .1 1.6.3.5.2.8.4.8.7 0 .2 0 .2-.2.5-.1.1-.3.6-.5 1.1-.9 2.4-1.2 2.8-1.9 4.1-1.2 1.9-2.5 3.4-4 4.4l-.3-.3zm-1.3 3.9c.4-.1.8 0 1.4.1.8.2 1.3.5 1.3.8v.4c-.1.5 0 1.9.3 3.9 1.4-.1 3.2.1 4.3.4.9.3 1.2.6 1.3 1.2.1.5 0 .8-.3.9-.2 0-.2 0-.7-.3-1.3-.9-2.8-1.4-4.5-1.7.2 1.1.3 1.7.4 2.2.1.5.1.7.2 1.1.1.8.2 1.1.2 1.5.1.5.1.5.3 2 .1.4.1.7.2.9.1.3.1.5 0 .6 0 .1-.2.2-.3.2-.4.1-1.3-.8-1.4-1.4v-.5c.1-.9-.1-3.2-.8-7.8-.2-1.3-.4-2.6-.6-3-.2-.8-.7-1.2-1.6-1.4 0 0 .1-.1.3-.1zM20 15.4c1.6.4 2.7.8 4.6 1.7.6-1.4 1.1-2.8 1.4-3.9.1-.5.1-.7.1-1-.1-.4-.4-.7-1.1-1 .1-.1.2-.1.3-.2.3 0 .9.1 1.4.3.8.3 1.3.7 1.4 1.1 0 .2 0 .3-.2.6-.3.4-.4.7-.8 1.5-.6 1.5-.6 1.5-1.4 3.1 2.1 1.2 2.5 1.5 2.7 2.5.1.6 0 1-.3 1-.2 0-.2 0-.8-.6-.7-.7-1.3-1.3-2.1-1.9-1.3 2.3-1.9 3.1-3.1 4.6-1.1 1.2-1.8 1.9-3.4 3l-.3-.2c1.3-1.3 2-2.1 2.9-3.4 1.1-1.4 1.6-2.3 2.8-4.6-1.5-1-2.6-1.6-4.3-2.3l.2-.3zm1.8 22.9c.3 0 .7-.1 1.5-.4 2.6-.7 4.1-1 6.3-1.5 1.7-.3 1.8-.3 2.4-.6.2-.1.4-.1.5-.1.6-.1 1.8.7 1.9 1.1 0 .2-.1.4-.4.5h-.9c-1.3-.1-2.7 0-4.2.2-2 .3-5.1 1.3-6.3 2-.3.2-.3.2-.5.2-.4.1-1-.2-1.6-.8-.4-.4-.6-.8-.7-1.1 0-.1 0-.1.1-.4.6.9 1 1 1.9.9zm-.3-7.8c.9.7 1.4.8 2.3.7 1.5-.2 3.9-1.1 4.7-1.7.1-.1.2-.1.3-.1.2 0 .7.1 1.1.3.3.2.4.3.4.5 0 .3-.2.4-1.1.7-2.3.7-3.8 1.1-4.8 1.2-1.3.2-2-.1-3.2-1.3l.3-.3zM28.2 47c.6-.1 1.6-.4 2.5-.7.4-.2.5-.2.7-.4l.2-.2c.1-.1.1-.1.3-.1.2 0 .6.2 1 .5.3.3.4.4.4.6 0 .1 0 .2-.1.3-.1.2-.1.5-.2 1.3-.1 1.1-.2 2.7-.3 3.2.2 0 .2 0 .7-.1 1.3-.3 1.4-.3 1.8-.5.2-.1.2-.1.3-.1.1 0 .5.1.8.2.5.2.8.5.8.7 0 .2-.1.4-.4.4h-1c-.5 0-1.2 0-2.2.2-1.7.3-3 .6-4.5 1.3-.7.3-1.1.5-1.5.7-.2.2-.3.2-.4.2-.3 0-.7-.1-1.1-.4-.4-.3-.7-.8-.8-1.1v-.3c.5.5.9.7 1.5.6.2 0 .6-.2 1.2-.3 1.1-.3 2-.6 2.6-.8.7-.2.7-.2 1.1-.3.1-1.5 0-4.4 0-5 0-.1 0-.1-.1-.1-.2 0-1.5.5-2.1.8-.5.2-.6.3-1 .5-.1.1-.3.1-.4.2-.3 0-.7-.2-1-.6-.3-.3-.4-.7-.5-.9 0-.1 0-.2.1-.4.6.4 1.1.7 1.6.6zm2 15.1c-.2-1.3-.3-1.6-.6-1.9-.3-.2-.6-.4-1.1-.5.1-.2.3-.3.5-.3.4-.1 1 0 1.7.3.6.2.8.4.9.6 0 .2 0 .3-.2.6-.1.3-.1 1.1 1 7.9.6 3.8.5 4.4 0 4.5-.2 0-.3-.1-.4-.3-.2-.3-.3-.8-.5-2.2l-1.3-8.7z" fill="#fff"/></g></g></svg>