<svg version="1.1" id="レイヤー_1" xmlns="http://www.w3.org/2000/svg" x="0" y="0" viewBox="0 0 20.6 133.8" xml:space="preserve"><g><g><path d="M3.5 10.5c-1 1.3-1.9 2.2-3.3 3.3l-.2-.3c1.4-1.6 2.3-2.8 3.5-5.1 1-1.8 1.4-2.8 1.6-3.8.9.2 1.9.5 2.1.6.1 0 .3.2.3.2l-.1.1c0 .1-.2.2-.5.2-.1 0-.3 0-.5.1-1 1.9-1.6 2.8-2.3 3.8.5.1.5.1.7.1 1 .2 1.1.2 1.1.4 0 .1-.1.2-.1.2-.1 0-.2.1-.4.1-.1 0-.2.1-.4.2v9.2c0 .2-.1.3-.2.4-.2 0-.7.1-1 .1-.3 0-.4-.1-.4-.3v-.1c0-1 .1-3.8.1-4.7v-4.7zm6-7.6V0c2.4.2 2.7.3 2.7.5s-.1.3-1.1.6v1.7h6.4c.4-.5.5-.7 1-1.2.8.5 1.1.7 1.9 1.3.2.2.3.2.3.3 0 .1-.1.2-.2.2-.2.1-.2.1-1.3.3l-.5.5c-.7.8-.8.9-1.1 1.1.6.4 1.2.8 1.6 1.1.1.1.1.1.1.2l-.1.1h-5c-.1.3-.1.3-.4.7-.6 1-1 1.5-1.7 2.4h4.3l.8-1c.6.4.8.5 1.4 1 .2.1.2.2.2.3 0 .1-.1.2-.8.6v1.7c0 2.4 0 6.1.1 7.2 0 .4-.2.4-1.2.4-.3 0-.4-.1-.4-.4V19H9.8v.9c0 .3-.2.4-.9.4h-.2c-.3 0-.4-.1-.4-.3.1-4.5.1-5.9.1-7.4s0-1.8-.1-3.7c.5.3 1.1.7 1.6 1h1.7c.5-1.6.6-2.1.8-3.1H9c-.4 0-.7 0-1.5.1L7.3 6c.7.1 1.3.2 1.8.2h7c.4-.6.5-.8.9-1.3l.3.1c.2-1 .2-1 .3-1.6H3.1c-.1.9-.2 1.6-.5 2.3-.3.8-1 1.5-1.5 1.5-.4 0-.7-.7-.7-1.5 0-.3.2-.5.6-.8.5-.3.8-.7 1.1-1.2.4-.6.5-1.1.6-2.4h.4v1.6h6.4zm7 7.4H9.8v3.5h6.7v-3.5zm-6.7 4v4.1h6.7v-4.1H9.8zM.7 34.1c1.2.5 1.8.7 2.4 1.2.8.4.9.7.9 1.1 0 .7-.4 1.4-.7 1.4-.2 0-.4-.1-.6-.5-.9-1.6-1.3-2-2.3-3l.3-.2zM.9 42h.4c.4.1.6.1.7.1.3 0 .5-.1.7-.5.2-.3.6-1.2 1.8-3.8 1.6-3.5 1.6-3.5 2-4.3l.3.1-2.9 8.6c-.2.7-.2.8-.2 1 0 .2 0 .4.2.9.4 1.3.5 1.7.5 2.2 0 1.1-.8 2.1-1.7 2.1-.3 0-.5-.3-.5-.6 0-.2.1-.6.2-1 .2-.6.3-1.6.3-2.4 0-.4-.1-.8-.2-1.1-.2-.5-.5-.7-1.6-1.1V42zM2 29.4c.9.4 1.6.6 2.4 1.1.8.5 1 .7 1 1.3 0 .3-.1.8-.3 1.1-.1.1-.2.2-.3.2-.2 0-.3-.1-.5-.4-.6-1.1-1.3-1.9-2.5-3.1l.2-.2zM17.1 33c.4-.5.5-.6.9-1 .6.4.8.6 1.4 1 .2.2.2.2.2.3 0 .1-.2.3-.7.7v14.2c0 .2 0 .2-.2.2s-.8.1-1.2.1c-.2 0-.3-.1-.3-.2v-1.5H9v1.4c0 .2-.1.2-.2.3-.2 0-.8.1-1.1.1-.2 0-.3-.1-.3-.3.1-2.2.1-5 .1-12 0-2 0-3-.1-4.2.8.4 1 .5 1.8 1h1.6c.6-1.7 1-3 1.1-4.1 2.5.6 2.6.7 2.6.9 0 .2-.3.3-1.1.4-.9 1.3-1.4 1.9-2.1 2.8h5.8zm.1 6.4v-5.8H9v5.8h8.2zm-8.2.5v6.4h8.2v-6.4H9zM5.2 76.3c3.5-2.9 5.3-5.1 7.3-8.4 1.4-2.5 2.6-5.1 2.6-5.9 0-.2-.1-.3-.4-.3-.4 0-2.5.4-4.1.7-1.6.4-3.1.8-4 1.2-.3.2-.6.2-.8.2-.4 0-1-.4-1.6-1.2-.4-.5-.6-1-.6-1.4 0-.2 0-.2.2-.5.4.8 1.1 1.3 2.1 1.3.7 0 2.5-.3 6.2-.9 1.9-.3 2.1-.4 2.6-.6.3-.2.3-.2.4-.2.3 0 .9.4 1.6 1 .5.5.7.8.7 1.1 0 .2 0 .3-.3.6s-.4.4-.7 1.2c-1.8 3.6-4 6.7-6.4 8.9-1.4 1.3-2.7 2.2-4.5 3.3l-.3-.1zM3.1 90.5c.6 0 1.2.2 2.5 1 .8 0 3.5-.3 6.9-.6 1.9-.2 2.2-.3 2.6-.4.2-.1.3-.1.4-.1.3 0 .7.3 1.1.7.5.5.7.8.7 1.1 0 .2 0 .2-.2.4-.2.3-.3.5-.5 1.2s-.3 1.2-.9 3.7c-.4 1.7-.4 1.7-.6 2.3.7.3 1.1.7 1.1 1.1 0 .3-.2.5-.4.5s-.2 0-1.1-.2c-.5-.1-1.9-.1-3.1-.1-1.7 0-3.1.1-5.1.3v.8c0 .6-.1.8-.5.8s-.7-.3-1-1c-.2-.4-.3-.8-.3-1 0-.1 0-.2.1-.4 0-.2.1-.9.1-1.8 0-2.6-.3-5.6-.7-6.6-.3-.7-.7-1.2-1.5-1.6.1-.1.2-.1.4-.1zm3.3 9.8c1.6-.1 6-.4 7.3-.5.5-2.3 1.1-6.1 1.4-8.1h-.6c-.4 0-1.6.1-4.3.3-2.4.2-3.1.3-4.3.5 0 2.2.3 5.9.5 7.8zm-1.7 33.2c1.6-1.3 3-3.3 4-5.5.7-1.7 1.3-3.8 1.3-4.8 0-.6-.4-1-1.3-1.4.1-.2.3-.2.5-.2.3 0 1.1.3 1.7.6.6.3.8.5.9.8 1-.6 3-2.2 3.9-3.1.5-.5.7-.7.7-.9 0-.3-.3-.3-1.3-.3-1.5 0-5.2.6-7.6 1.2-.8.2-1.6.5-2.2.8-.1.1-.4.1-.5.1-.5 0-1.3-.7-1.8-1.5-.2-.4-.4-.9-.4-1.2 0-.2 0-.3.2-.5.4.9 1.1 1.3 2.2 1.3.8 0 1.2 0 5.3-.6.2 0 .7-.1 1.5-.2 3.4-.4 3.6-.4 4-.7.1 0 .2-.1.3-.1.2 0 .6.2 1.2.6.9.7 1.6 1.5 1.6 1.8 0 .3-.1.4-.8.6-.4.1-.6.2-1.1.5-1.8 1-2.8 1.5-5.2 2.7-.1.4-.2.4-.3 1-1 3-1.8 4.7-3.2 6.3-1.1 1.3-2.2 2.2-3.4 2.9l-.2-.2z" fill="#200701"/></g></g></svg>