<svg version="1.1" id="レイヤー_1" xmlns="http://www.w3.org/2000/svg" x="0" y="0" viewBox="0 0 92.8 416.9" xml:space="preserve"><g><g><path d="M42.4 93.9c.8 0 2.2.3 2.8.5.6.2.8.5.8.9v.1c0 .2 0 .2-.2.7-.3 1-.6 3.4-.6 5.7 0 1.7.2 2.1 1.1 2.1.6 0 1.2-.2 3.8-1.4.5-.3.8-.3 1.1-.3.7 0 1.3.6 1.3 1.2 0 .4-.2.7-.6.8-.2.1-.6.2-1.9.6-3.4 1-5.2 1.8-7 3.1-1.5 1.2-2.2 2.3-2.2 3.6 0 2 1.6 3.1 4.7 3.1 1.7 0 4.5-.3 6.5-.8.3-.1.4-.1.6-.1.7 0 1.5.7 1.5 1.4 0 .5-.3.8-1.2.9s-3.7.4-5.4.4c-2 0-3.6-.2-4.8-.6-1.9-.7-3.1-2.3-3.1-4.1 0-1.6.9-3.2 2.7-4.7.8-.7 1.8-1.3 3.4-2.2-.6 0-.9-.1-1.3-.4-.4-.3-.7-.9-.8-2.1-.1-.7-.1-1.3-.2-3.4-.1-2.4-.1-2.8-.3-3.2-.3-.5-.8-.8-2-1 .6-.7.8-.8 1.3-.8zm4.4 54.1c3.5-.7 5.8-1.7 7.8-3.4 1.5-1.3 2.4-2.9 2.4-4.5 0-2.4-1.7-4.1-4.2-4.1-2.7 0-6.3 1.5-9.3 3.8-.5.4-.8.5-1.1.5-1 0-2.7-2-2.7-3.3 0-.2.1-.3.2-.6.4 1 1.1 1.5 1.7 1.5.4 0 1-.2 2.5-.8 2.5-1 4.8-1.7 6.4-2 .7-.1 1.3-.2 2.2-.2 3.7 0 6.2 2.2 6.2 5.4 0 2-1.2 4-3 5.3-2.2 1.5-4.7 2.3-8.9 2.8l-.2-.4zm-10.4 24.1c.4.4.7.5 1.3.5.8 0 1.5-.1 7.8-1.7 1.2-.3 2.7-.6 4.5-1 2.1-.4 2.9-.6 3.8-.9.6-.2.8-.2 1-.2.3 0 1 .3 1.5.6.6.4.8.7.8 1.1 0 .4-.3.7-.9.7h-.5c-.4-.1-.5-.1-.8-.1-4.8 0-9.4 4.6-9.4 9.3 0 2.6 1.3 4.5 3.7 5.5.9.4 2 .6 2.9.7.6 0 .8.1 1.2.4.5.5.8 1 .8 1.3 0 .5-.4.8-1 .8-1.6 0-4.1-.9-5.7-2-2.1-1.5-3.2-3.7-3.2-6.3 0-2.3 1.1-4.8 3.1-6.8 1.1-1.2 2.2-2 4.6-3.2-2.5.4-4.8.9-8 1.9-1.8.6-3.6 1.3-4.5 1.8-.6.3-.8.4-1.1.4-.7 0-1.5-.6-2.2-1.7-.4-.7-.7-1.4-.7-1.9 0-.2.1-.4.3-.7.1.7.3 1.1.7 1.5zm-.7 37.5c1.1 1 2.1 1.4 3.3 1.4.8 0 1.5-.1 2.8-.4V208c0-2.9-.3-3.5-2.3-3.9.4-.3.6-.4 1.2-.4 1 0 2.1.3 2.9.7.4.2.6.6.6.9 0 .2 0 .2-.3.7-.4.8-.7 2.1-.9 4.2 1.5-.5 2.2-.9 3.1-1.6.2-.2.5-.3.7-.3.3 0 .7.1 1.1.3.3.1.5.4.5.6 0 .4-.3.6-1.3 1.1-1.3.6-2.6 1-4.1 1.4 0 .4 0 .4-.1 1.4 0 .8-.1 2-.1 3.7 3.1-1.1 5.2-1.5 7.4-1.5 3.8 0 6.2 1.8 6.2 4.8 0 2.7-2.1 4.9-4.8 4.9-2.6 0-4.4-1.7-5.4-5l.4-.1c.7 1.3 1.1 1.9 1.7 2.4.8.7 1.7 1.1 2.7 1.1 2 0 3.5-1.6 3.5-3.8 0-2.2-1.5-3.3-4.1-3.3-2.2 0-4.9.7-7.6 2v4.9c0 .7-.1 1.2-.4 1.7-.3.6-.9 1-1.3 1s-.4 0-2.1-1.5c-.6-.5-1.4-1-1.9-1.3-.6-.3-.9-.7-.9-1.2 0-.4.3-1 .8-1.6 1-1.1 2-1.7 4.5-2.9 0-.4 0-.8.1-1.3.1-1.3.1-1.3.1-4-.9.1-1.5.2-2.2.2-1.8 0-3-.6-4.2-2.3l.4-.4zm3 11.3c-.6.6-.8 1-.8 1.3 0 .3.4.6 1.1.9.6.3 1.4.4 1.7.4.3 0 .5-.2.5-.7.1-2.5.2-3.9.2-4.1-1.3.9-2 1.4-2.7 2.2zm12.5-14.2c1.7.1 3 .4 4.1 1 1.2.7 2 1.6 2 2.5 0 .5-.3.8-.8.8-.1 0-.2 0-.4-.1-.4-.1-.5-.1-.6-.1-.4 0-1.1.1-3.4.8l-.2-.3c1.7-.9 2.7-1.5 3.1-1.8-.4-.8-.9-1.2-1.8-1.7-.6-.3-1-.5-1.9-.7l-.1-.4zm-13.6 37.1c1.3 1 2.2 1.3 3.7 1.3 1.3 0 3.4-.4 4.6-.8-.6-1.2-1.8-2.7-2.4-3.1-.4-.3-1.1-.5-2.2-.6.2-.5.4-.6 1.1-.7.4-.1.8-.1 1.3-.1 1 0 1.7.1 1.9.4.3.2.3.3.3 1.1 0 .6 0 .6 1.1 2.8 2.6-1 3.2-1.3 4-2.1.2-.2.5-.3.9-.3 1.1 0 1.7.3 1.7.7 0 .4-.4.6-1.8 1.2-.4.2-1.8.7-4.1 1.4l.6 1c.2.3.6 1.1 1.4 2.3 2.2-.9 2.7-1.1 3.5-1.5-.6-.6-.8-.8-1.5-1.3l.3-.5c1.1.5 1.8.8 2.4.8l.5-.1h.2c.4 0 .8.3.8.7 0 .7-1.6 1.5-5.4 2.9.9 1.5 1 1.7 1.3 2.2.6 1.1.6 1.1 1.3 2.2.3.5.5 1 .5 1.5 0 1.1-.4 1.8-.9 1.8-.3 0-.3-.1-.8-.4-1.4-1.1-4-1.9-6.5-1.9-1.3 0-2.5.3-3.5.8-1.1.6-1.7 1.3-1.7 2.3 0 1.7 1.8 2.7 5.3 2.7 1.4 0 2.2-.1 3.5-.4.1 0 .3-.1.3-.1.8 0 1.8.8 1.8 1.5 0 .2-.1.4-.4.5-.5.2-2.2.4-3.8.4-2.2 0-4.1-.3-5.4-.8-1.7-.8-2.7-2.1-2.7-3.5 0-2.5 3-4.2 7.4-4.2 1.7 0 3.2.2 5.3.6-.3-1.1-1.1-2.8-2.1-4.8-1.9.6-4.3 1.1-6 1.1-1.2 0-2.1-.3-2.9-.8-.6-.4-.9-.8-1.3-1.7l.3-.3c.9 1.2 1.8 1.7 3.3 1.7 1.6 0 3.7-.4 6-1.1-.6-1.1-1.3-2.4-2-3.4-1.9.6-3.7.9-5.2.9s-2.9-.7-4.1-2l.1-.3zm8.7 53.7c3-.9 5-2 6.6-3.9 1.7-1.9 2.5-4.2 2.5-6.7 0-2.7-1.1-4.9-3.2-6.2-1.2-.8-3.1-1.3-4.8-1.3-.3 0-.5 0-1 .1.7 1 .9 1.5.9 2.3 0 2.2-1.6 6.3-3.7 9.7-1.8 2.8-3.1 4.2-4.2 4.2-.5 0-.9-.2-1.2-.6-.3-.3-.3-.4-.8-1.8-.3-.7-.4-1.1-1.2-2.6-.4-.9-.6-1.7-.6-2.5 0-1.8 1-3.8 2.5-5.5 2.3-2.4 6-3.9 9.6-3.9 2.8 0 5.4.9 7.2 2.6 1.8 1.7 2.7 3.9 2.7 6.6 0 3.5-2 6.6-5.6 8.5-1.6.9-3.1 1.3-5.5 1.7l-.2-.7zm-9.2-8.7c0 1.3.4 2.7 1.1 3.7.4.5.8.8 1.1.8.6 0 2-1.5 3.3-3.7 2.1-3.3 3.6-6.9 3.6-8.7 0-.4-.1-.7-.4-1.4-4.9.9-8.7 5-8.7 9.3zm18.1 24.7c.7-.9 1-1.1 1.7-2 1.2.9 1.6 1.2 2.7 2.2l.2.2c0 .1-.1.2-.3.2H48.2c.3.1.3.1 1.5.6.3.1.5.3.5.4 0 .2-.2.3-1.1.3 2.7 1.8 6.1 2.7 10.8 2.9v.3c-1.1.4-1.4.8-1.7 1.9-2.8-.8-3.9-1.2-5.4-2-1.3-.8-2.5-1.5-4.1-2.8-3.1 2.7-5 3.8-9.1 5.4l-.2-.4c2.5-1.3 4.5-2.6 6.7-4.8l1.7-1.7h-8.4c0 4.2-.1 6.6-.1 7.2-.1 4-.8 7.5-2.2 10.5-.8 1.7-1.5 2.8-3.1 4.5l-.3-.2c1.8-2.9 2.6-4.9 3.1-7.9.3-1.3.3-2.2.5-4.3-.9 1-1.3 1.4-2.6 2.5v.7c0 .3-.1.5-.3.5-.3 0-.5-.5-1.4-2.7.7-.1 1.1-.3 2.5-.8l1.8-.9c.1-1.7.1-3.7.1-6.6 0-2.9 0-3.1-.1-4.4 1 .5 1.3.7 2.2 1.3h7.4v-1.1c0-.7 0-1-.1-1.6 2.9.2 3.2.3 3.2.6 0 .2-.2.3-1.1.6v1.5h6.3zm-21.7 1.9c.8.6 1.3 1.2 2.2 2.2.7.8 1 1.4 1 1.9 0 .4-.2 1.2-.4 1.5-.2.2-.3.3-.5.3-.3 0-.5-.3-.6-1-.3-1.4-1.2-3.8-1.8-4.8l.1-.1zm8.4 15.3c-.1 1.1-.5 2.4-1.1 3.4-.5.9-1.4 1.7-2 1.7-.4 0-.7-.6-.7-1.3 0-.5.1-.7.8-.9.7-.3 1.5-.8 1.8-1.2.4-.4.5-.8.7-1.7h.5zm.7-4v3.1c-.1.2-.1.2-.4.3-.3 0-.7.1-.9.1-.4 0-.5-.1-.5-.3.1-1.8.1-2.8.1-5.3 0-1.4 0-1.4-.1-3.6.8.4 1.1.5 1.8.9H47c.5-.5.5-.5.8-.9.6.4.8.5 1.4.9.1.1.1.1.1.2 0 .2-.3.4-.7.6v6c0 .5-.2.7-.7 1-.3.1-.5.2-1.4.4-.3-1-.7-1.3-2.1-1.4v-.3c1.7.1 1.7.1 2.5.1.2 0 .2-.1.2-.2v-1.4h-4.5zm4.6-2.9v-1.5h-4.6v1.5h4.6zm-4.6.6v1.7h4.6v-1.7h-4.6zm1 7.8c0-1.2 0-1.2-.1-1.8 2.6.3 2.7.3 2.7.6 0 .2 0 .2-.9.5v2.4c0 .2.1.4.2.4.3.1.9.1 1.8.1 1.2 0 3.8-.1 4.1-.1.4-.1.6-.2.8-.7.4-1 .7-1.8 1-2.6l.4.1-.1 2.3v.1c0 .3.2.5.6.6.6.1.8.3.8.6 0 .4-.3.6-1.1.8-.9.2-2.4.3-4.9.3-5.1 0-5.3-.1-5.3-2v-1.6zm.6-13.1c.8.2 1.2.2 2.3.2h2.9c.6-.6.8-.8 1.3-1.4.9.7 1.2.9 2 1.7.1.1.1.1.1.2s-.1.2-.3.2h-6c-.9 0-.9 0-2.1.2l-.2-1.1zm3.2 11.1c.9.2 2 .6 2.8 1.1.4.3.7.7.7 1.1 0 .6-.4 1.4-.8 1.4-.2 0-.3-.1-.5-.4-.6-1-1.5-2.1-2.4-2.9l.2-.3zm6-8c0 .2-.3.4-.8.4 0 2.7 0 3 .1 4.4-.1.2-.1.3-.3.3-.1.1-.7.1-1 .1-.3 0-.4-.1-.4-.3.1-1 .1-1.2.1-3.3 0-1.2 0-1.5-.1-2.1 2.2.2 2.4.2 2.4.5zm2 .9c0-.1 0-.8-.1-1.9 3 .3 3 .3 3 .6 0 .2 0 .2-1.1.6v6c0 .7-.2.9-.9 1.3-.6.3-1.1.4-1.8.5-.1-.8-.3-1.1-.7-1.3-.3-.1-.5-.1-1.6-.3v-.4c.4 0 .4 0 1.5.1.8.1.8.1 1.5.1.1 0 .2-.1.2-.4v-4.9zm-.7 7.6c1.2.5 2.9 1.3 3.7 1.9.5.4.8.8.8 1.5 0 .8-.4 1.5-.8 1.5-.3 0-.3-.1-.7-.8-.8-1.4-1.7-2.5-3.2-3.9l.2-.2zm1.4 35.1c-2.7 3.6-6.4 5.8-9.8 5.8-2.1 0-3.8-.9-4.6-2.4-.6-1-.8-2.4-.8-4.7 0-1.5.1-4.2.2-6.7.2-3 .2-3.8.2-4.8 0-2.4-.3-2.9-2.3-3.7.3-.2.5-.3.8-.3.6 0 1.7.3 2.5.6 1.1.5 1.6 1.1 1.6 1.7 0 .2 0 .4-.3 1-.5 1.7-1.5 10.2-1.5 13.4 0 1.7.3 2.7 1.1 3.4.6.5 1.5.8 2.5.8 1.9 0 4.3-.7 6.4-1.8 1.3-.7 2.1-1.3 3.6-2.5l.4.2zm-19.2 23c1.3 1.1 2 1.3 3.5 1.3.9 0 1.7-.1 3-.4.6-1.2 1-2.2 1-2.9 0-.8-.5-1.2-2-1.6.5-.3.7-.3 1.3-.3.6 0 1.5.2 2.2.5.7.3 1 .6 1 .9 0 .2-.1.4-.4.8-.3.3-.6.8-.8 1.1-.5.8-.5.8-.7 1.1 2.4-.7 3.1-1 4-1.8.2-.1.3-.2.5-.2 1.1 0 1.9.4 1.9.9 0 .3-.4.6-1.2.9-2.5.8-3.8 1.1-6.1 1.6-.5.7-.8 1.2-1.5 2.2-.8 1.2-1 1.5-1.5 2.2 1.6-.8 2.5-1.1 3.6-1.1 1.7 0 2.9 1.1 3.1 2.8.5-.2.5-.2 2.7-1.4 2.8-1.4 3.4-1.8 3.4-2.4 0-.5-.5-1-1.3-1.3.3-.1.4-.2.6-.2 1.2 0 3.2 1.7 3.2 2.8 0 .5-.2.7-1 .9-1.7.4-5.3 1.8-7.5 2.9v2.3c0 1.3-.1 2.1-.2 2.4-.1.3-.4.5-.8.5-.5 0-.9-.4-.9-.8v-.5c.1-.8.2-1.8.2-3-1.7 1-2.5 1.5-3.3 2.2-.9.9-1.4 1.8-1.4 2.6 0 1.5 1.5 2.2 4.7 2.2 2 0 3.9-.3 5.6-.8.2-.1.4-.1.5-.1.9 0 2 .8 2 1.4 0 .4-.3.6-.9.8-1.1.2-3.3.4-5 .4-2.6 0-4.6-.3-5.7-.8-1.4-.7-2.1-1.6-2.1-3 0-1.3.6-2.5 2-3.8.7-.7 1.6-1.3 3.5-2.5 0-1.2-.1-1.6-.4-2.2-.3-.5-.8-.8-1.4-.8-1.8 0-4.1 1.5-6.1 4.1-.5.7-.8.9-1 .9-.4 0-.8-.6-.8-1.5 0-.6 0-.6.8-1.3 2-1.6 3.2-3 5.2-6-.9.1-1.3.2-1.9.2-1.9 0-2.9-.5-4.2-2.2h.6z" fill="#200701"/></g></g><line x1="46.6" y1="0" x2="46.6" y2="60" fill="none" stroke="#76544b" stroke-miterlimit="10"/></svg>