<svg version="1.1" id="レイヤー_1" xmlns="http://www.w3.org/2000/svg" x="0" y="0" viewBox="0 0 92.8 289.9" xml:space="preserve"><style type="text/css">.st0{fill:#210100}.st2{fill:#fff}</style><g><rect x="37.8" class="st0" width="55" height="119"/><rect y="46.7" class="st0" width="55" height="243.2"/><line x1="65.4" y1="0" x2="65.4" y2="30" fill="none" stroke="#76544b" stroke-miterlimit="10"/><g><g><path class="st2" d="M70 53.2c.9 0 1 0 1.2-.2.2-.2 1-1.2 1.2-1.2.2 0 2.2 1.4 2.2 1.7s-.4.3-1.2.3H56.1c-.1 0-.4.1-.5.1-.1 0-.1-.1-.2-.2l-.4-.5-.1-.1s0-.1.1-.1c.2 0 .8.1 1 .1 1 0 2 .1 3 .1h4.5c.6 0 .7-.3.7-.8 0-.3 0-2-.1-2.2 0-.2-.3-.8-.3-.9 0-.1.2-.2.3-.2.1 0 2.4.3 2.4.9 0 .2-.2.4-.4.5-.3.2-.3.4-.3.6v1.3c0 .7.3.7.7.7H70zm-7.6 2c-.4.2-1.8 2.6-2.1 3-.3.3-.4.5-.4.6 0 0 .1.1.4.2.3.1.5.2.5.3 0 .1-.4.4-.5.5-.1.2-.1 3.1-.1 4.7v2.1c0 .2.1 1 .1 1.1 0 .7-.5 1.1-1 1.1-.4 0-.7-.2-.7-.8 0-.2.1-1.5.1-1.8.1-2 .1-3.9.1-5.9 0-.1 0-.5-.3-.5-.2 0-.4.2-.6.4-.2.1-2.7 2.2-2.7 1.9 0 0 1-1.3 1.1-1.4.2-.3 3.6-4.4 4.2-6.5.1-.3.1-.5.3-.5.2 0 1.6.9 1.7 1.1.3.3.2.3-.1.4zm7.9 1.5c.4 0 .6 0 .8-.1.2-.1.6-.5.7-.5.2 0 1.6.9 1.6 1.2 0 .1-.1.2-.4.2-.3.1-.5.3-1 1.2-.7 1.3-2 3.4-3 4.4-.1.1-.4.4-.4.7 0 .2.2.4.4.5 2.1 1.8 4.8 2.3 5.7 2.5.4.1.5.1.5.2l-.2.2c-.8.3-1.1.5-1.4.8-.2.2-.5.7-.7.7-.1 0-2.7-1.1-4.8-3.4-.2-.2-.4-.3-.5-.3s-.4.1-.6.4c-3.2 3-5 3.4-5 3.4 0-.1.1-.2.2-.2 1.5-1.3 1.9-1.7 3.7-3.7.8-.8.9-.9.9-1.3 0-.2 0-.3-.2-.7-.3-.6-.7-1.7-.9-2.3-.2-.6-.2-.6-.3-.6s-.9.9-1 1.1c-1.2 1.3-2.9 2.3-2.9 2.2 0 0 1.3-1.5 1.5-1.8 1.8-2.3 3.3-5.6 3.4-6.7 0-.4 0-.5.2-.5s1.8.8 1.8 1c0 .1-.2.4-.4.5-.2.2-.4.6-.4.8 0 .2.2.2.4.2h2.3zm-3 .5c-.5 0-.7.1-.9.5-.2.3-.8 1.2-.8 1.5 0 .6 1.2 3.3 1.8 3.3.4 0 1.3-1.5 1.8-2.4.8-1.3 1.3-2.5 1.3-2.7 0-.3-.2-.3-.5-.3h-2.7zm-.7.8c.7 0 2.1 1 2.1 2.1 0 .5-.4 1-.9 1s-.5-.4-.6-1c-.1-.7-.2-1.3-.6-1.9l-.1-.1c0-.1.1-.1.1-.1zm-1.8 19.9v.2c.1.7.2 1.4.2 2.4 0 1.5-.3 3.5-2.3 6.4-1.8 2.7-2.9 3.2-3.8 3.2-1.5 0-2.8-2.3-2.8-5 0-1.2.2-3.4 2.4-5.6 2.8-2.9 5.7-2.9 7-2.9 2 0 2.9.4 3.5.7 2.4 1.2 3.8 3.5 3.8 6.4 0 2.9-1.7 6.4-5.5 7.7-1.9.7-3.3.8-3.7.8-.1 0-.2 0-.2-.2 0-.1 0-.1.6-.3 2.3-.9 7.1-2.8 7.1-8.3 0-.9-.1-6.1-6.1-6.1-.2.3-.2.5-.2.6zm-7.2 6.8c0 1.4.6 3.4 1.9 3.4.6 0 1.2-.3 2.7-2.6 1.2-1.8 2.2-4.2 2.2-6.4 0-1.3-.1-1.4-.4-1.4-2.1 0-6.4 2.8-6.4 7z"/></g></g><g><g><path class="st2" d="M22.3 89.9c6.9-3.7 8.7-8.4 8.7-8.9 0-.3-.2-.4-.5-.4-.7 0-6.3 1-7.2 1.3-.2 0-.9.4-1 .4-.9 0-2.5-1.9-2.5-2.5 0-.1.1-.1.1-.1.1 0 .3.2.4.2.4.2 1.3.4 2.2.4 1.8 0 6.2-.6 7-.7l1.5-.1c.1 0 .5-.2.6-.2.4 0 1.9 1.3 1.9 1.8 0 .3-.1.4-.6.8-.4.3-.6.6-1.2 1.6-1.7 2.6-3.1 4.3-6.2 5.9-2 1-3.7 1.4-3.9 1.4-.2 0-.2-.1-.2-.2v-.1c.1-.2.7-.5.9-.6zm.5-14.4c.4.1.9.1 1.2.1 1 0 2.5 0 3.5-.2.3-.1 1.8-.4 2.2-.4.4 0 1.3.2 1.3.8 0 .7-.8.7-2 .9-.4 0-5.1.5-5.2.5-1.2 0-1.8-1.5-1.8-1.7 0-.1 0-.2.1-.2 0 0 .6.2.7.2zm4.9 25.1c0 .2-.3.9-.3 1.1-.1.6-.2 3.9-.2 4.7v5.4c0 .5.1 1.6.1 2.1 0 .6-.2 2-.8 2-.3 0-.8-.8-.8-2.1 0-.5.1-2.6.1-3 0-1.4.1-5.5.1-6.5 0-1.4 0-3.1-.5-4-.1-.2-.3-.4-.5-.6 0 0-.1-.1-.1-.2 0-.2.5-.5.8-.5.2 0 2.1.7 2.1 1.6zm-2.3 29.5c.2.1 1.2.6 1.4.6.5 0 1.1-1.5 1.4-2.2.4-.9.8-2.2.8-2.6 0-.2-.1-.4-.2-.5-.1-.1-.1-.2-.1-.3 0-.1.1-.2.2-.2.2 0 .9.2 1.5.7.7.5.9 1.4.9 1.6 0 .2-.1.2-.5.4-.2.1-.3.2-.9 1.3-.4.7-.8 1.5-1.3 2.2-.1.2-.2.4-.2.5 0 .2.2.4.4.6 1.9 1.7 2.2 2.9 2.2 3.4 0 .6-.5.7-.7.7-.8 0-1.1-.6-1.9-1.9-.2-.4-.6-1.1-.9-1.1-.2 0-.4.2-.5.3-4 5-8.4 6.9-8.6 6.9-.1 0-.2 0-.2-.1s.4-.4.7-.6c3.7-2.9 5.2-4.6 5.8-5.4.5-.7 1.6-2 1.6-2.4 0-.5-2-1.7-2.9-2.1-.4-.2-.5-.2-.5-.4 0-.1 0-.2.2-.2.3.1 1.3.3 2.3.8zm1 31.8c-.6.4-1.7 1.3-2.2 1.8-.4.5-.5.5-.8.5-1.2 0-2.8-1.4-2.8-2.3 0-.2 0-1.2.2-1.2.1 0 .6.4.7.4.3.2 1 .5 1.5.5 1.1 0 6.9-3.9 10.6-7.5l1-1 .1.1c0 .3-2.6 4.5-8.3 8.7zm-1.8-7.3c-.6 0-.8-.4-1.5-1.5s-1.4-1.5-2-1.8c-.1 0-.2-.1-.2-.2s.2-.2.5-.2c2.4 0 4.2 1.3 4.2 2.6-.1.7-.5 1.1-1 1.1zm-2.1 24.2c2 0 6.7-.4 7.2-.7.8-.5.9-.6 1.1-.6.4 0 2.6 1.4 2.6 2 0 .2-.1.3-.7.8-.4.3-.5.6-1.2 3.7 0 .2-.4 1.2-.4 1.3 0 .3.2.3.5.4.5.1 1.4.4 1.4.9 0 .6-1 .6-1.2.6-.5 0-3-.2-3.5-.2-1.4 0-5.5.5-5.9.5-.1 0-.7.3-.8.3-.4 0-1.7-1-1.7-1.8 0-.1.1-.2.2-.2s.6.1.7.1c.5.1.9.1 1.1.1 1.5 0 7.3-.4 7.6-.6.3-.1.4-.4.5-1.5.3-1.9.5-3.9.5-4.3 0-.4-.1-.5-.3-.5-.7 0-6.1.9-7 1.1-.2 0-1 .4-1.1.4-.5 0-2-1.3-2-1.8 0-.2.2-.2.3-.2-.2.1 1.7.2 2.1.2zm5.2 22.1c0 .2-.3.9-.3 1.1-.1.6-.2 3.9-.2 4.7v5.4c0 .5.1 1.6.1 2.1 0 .6-.2 2-.8 2-.3 0-.8-.8-.8-2.1 0-.5.1-2.6.1-3 0-1.4.1-5.5.1-6.5 0-1.4 0-3.1-.5-4-.1-.2-.3-.4-.5-.6 0 0-.1-.1-.1-.2 0-.2.5-.5.8-.5.2 0 2.1.7 2.1 1.6zm-2.4 30.9c-.4 0-1.7.2-2.1.3-.5.1-2.9.6-3 .6-.5 0-.6-.1-1.7-1.2-.6-.6-.6-.6-.6-.8 0 0 0-.2.2-.2.1 0 .7.2.9.2.6.2 1 .2 1.7.2 1.1 0 4.9-.4 5.4-.6.3-.1.3-.3.4-.8.1-.6.1-1.6.1-2.2 0-1.3-.1-1.9-.4-2.3-.1-.1-.4-.6-.4-.7 0-.2.7-.2.9-.2.7 0 2.1 1.2 2.1 1.6 0 .2-.3.7-.4.8-.2.4-.4 2.5-.4 2.8 0 .4.1.6.6.6.4 0 2-.2 2.5-.4 1.1-.4 1.4-.5 1.8-.5.6 0 2.2.4 2.2 1.4 0 .7-1.2.7-1.5.7-.3 0-1.7-.1-2-.1-.2 0-3.1.2-3.5.3-.2.1-.4.3-.5.9-1 4-1.5 6.1-3.9 8.4-.8.7-1.5 1.2-1.6 1.2-.1 0-.1-.1-.1-.1 0-.1.7-.9 1.1-1.5 1.7-2.3 2.2-4.2 2.5-5.4.4-1.5.5-2.5.5-2.6-.3-.3-.5-.4-.8-.4zm2.4 19.3c0 .2-.3.9-.3 1.1-.1.6-.2 3.9-.2 4.7v5.4c0 .5.1 1.6.1 2.1 0 .6-.2 2-.8 2-.3 0-.8-.8-.8-2.1 0-.5.1-2.6.1-3 0-1.4.1-5.5.1-6.5 0-1.4 0-3.1-.5-4-.1-.2-.3-.4-.5-.6 0 0-.1-.1-.1-.2 0-.2.5-.5.8-.5.2 0 2.1.7 2.1 1.6z"/></g></g></g></svg>