<svg version="1.1" id="レイヤー_1" xmlns="http://www.w3.org/2000/svg" x="0" y="0" viewBox="0 0 114 438" xml:space="preserve"><g><path d="M82.5 129.4c.3-2.3.9-3.9 2.1-5.5 1.1-1.6 2.3-2.7 5.9-5.6 1.1-.9 1.7-1.5 2.1-2.2.4-.7.6-1.5.6-2.4 0-2.4-1.5-3.9-3.8-3.9-1.7 0-2.9.8-3.3 2.2-.2.6-.2 1-.3 2-.1 1-.4 1.2-1.3 1.2-1 0-1.4-.3-1.4-1.1 0-2.9 2.8-5 6.6-5 2.4 0 4.3.8 5.4 2.1.6.8.9 1.7.9 3 0 2.3-1 3.8-4.1 5.7-3.5 2.2-4.3 2.7-5.5 3.9-1.2 1.2-1.8 2.1-2.3 3.6h8.1c2 0 2.7-.6 3.3-3l.8.2-.8 4.9h-13zm-5.9 38.5c2.6-1.8 3.9-3.1 5.3-5 2.5-3.3 4.2-7.1 5.1-11.4.4-2.1.6-4.2.6-6 0-.6 0-.9-.1-1.6 3.1.4 3.4.5 3.4.8 0 .2-.1.3-1.2.7v.9c0 4.1 1.5 8.9 3.9 12.3 1.5 2.2 3.5 4 5.7 5.4 1.1.7 1.7 1 3.2 1.5v.3h-.2c-.6 0-1.1.2-1.4.6-.3.3-.4.6-.8 1.4-2.8-1.8-4.9-3.9-6.7-6.8-1.3-2.1-2.5-5-3.2-7.8-.3-1.2-.5-2.1-.7-4.1-.8 5.2-2.1 8.8-4.5 12.1-2.2 3.1-4.5 5-8.2 6.9l-.2-.2zm12.5 34.7c3-.9 5-2 6.6-3.9 1.7-1.9 2.5-4.2 2.5-6.7 0-2.7-1.1-4.9-3.2-6.2-1.2-.8-3.1-1.3-4.8-1.3-.3 0-.5 0-1 .1.7 1 .9 1.5.9 2.3 0 2.2-1.6 6.3-3.7 9.7-1.8 2.8-3.1 4.2-4.2 4.2-.5 0-.9-.2-1.2-.6-.3-.3-.3-.4-.8-1.8-.3-.7-.4-1.1-1.2-2.6-.4-.9-.6-1.7-.6-2.5 0-1.8 1-3.8 2.5-5.5 2.3-2.4 6-3.9 9.6-3.9 2.8 0 5.4.9 7.2 2.6 1.8 1.7 2.7 3.9 2.7 6.6 0 3.5-2 6.6-5.6 8.5-1.6.9-3.1 1.3-5.5 1.7l-.2-.7zm-9.2-8.7c0 1.3.4 2.7 1.1 3.7.4.5.8.8 1.1.8.6 0 2-1.5 3.3-3.7 2.1-3.3 3.6-6.9 3.6-8.7 0-.4-.1-.7-.4-1.4-4.9.9-8.7 4.9-8.7 9.3zm1.2 38v.6c0 1.3-.3 3-.7 4.1-.6 1.6-1.8 3-2.5 3-.5 0-.8-.7-.8-1.7 0-.5.1-.6.6-.9.7-.3 1.5-1.2 2-1.8.5-.8.8-1.6 1.1-3.2h.3zm1.1-2c0 .2-.1.4-.1.4-.2.1-.6.3-1.2.3-.5 0-.6-.1-.6-.4.1-4.2.1-6.7.1-10.9 0-1.4 0-1.7-.1-2.9 1 .6 1.3.8 2.3 1.5h13.3c.6-.7.8-.9 1.3-1.5.7.6 1.3 1 1.8 1.4.2.2.3.3.3.4 0 .2-.3.4-1.2 1v6.6c0 2.3 0 2.7.1 4.2 0 .5-.3.6-1.5.6-.4 0-.5-.1-.5-.4v-1.3h-14v1zm6-11.5h-6v4.6h6v-4.6zm0 5.2h-6v4.6h6v-4.6zm-4.4 9.8c0-1.5 0-1.7-.1-2.6 2.7.3 3.3.4 3.3.8 0 .2-.2.3-1.2.6v6c0 .3 0 .3.1.4.2.1 1 .2 3.2.2 1.3 0 3.4-.1 3.8-.1.6-.1.8-.3 1.1-1 .4-1 1-2.8 1.4-4.6h.4l-.4 4.8v.2c0 .1.1.2.6.3.4.1.7.4.7.7 0 .4-.3.8-.9 1-.4.1-.9.2-1.8.3-1.1.1-3.3.1-3.8.1-3.7 0-5-.1-5.5-.2-.6-.3-.8-.5-.9-1.1v-5.8zm3.8-3.3c1.7.8 2.5 1.3 3.6 2.2.7.6 1 1 1 1.7s-.5 1.5-.9 1.5c-.3 0-.4-.2-.8-.9-1.1-2-1.5-2.7-3.1-4.3l.2-.2zm8.5-7.1v-4.6H90v4.6h6.1zm-6.1 5.2h6.1v-4.6H90v4.6zm6.8 3.3c1.8 1.3 2.9 2.4 4.1 4.1.4.5.6 1 .6 1.3 0 .4-.3 1.2-.6 1.7-.2.3-.4.5-.6.5-.3 0-.4-.2-.7-1.3-.2-.8-.8-2.2-1.5-3.6-.4-.8-.7-1.3-1.5-2.5l.2-.2zM88 264.8c-2 4.7-2.6 6.4-2.6 7.5 0 .2 0 .2.2 1 0 .1.1.3.1.4 0 .4-.3.7-.6.7-.8 0-2.2-1.1-3.1-2.4-1-1.4-1.6-3.4-1.9-5.6-.2-1.2-.2-1.9-.2-4.9 0-2.6-.2-3.2-1.4-4.8h.3c.4 0 1.3.5 2.1 1.4.8.8 1.3 1.6 1.3 2.2 0 .2 0 .4-.1.7-.3 1.7-.5 3-.5 4.2 0 1.5.2 2.9.6 4.1s.8 1.7 1.5 2.2c.3-.4.3-.4.9-1.5.9-1.5.9-1.5 2.4-3.9.4-.7.4-.7.8-1.3h.2zm6-5.1c3.5.8 6.3 4.5 6.3 8.4 0 1.3-.6 2.2-1.4 2.2-.3 0-.4-.1-.8-.3-.4-.3-.9-.3-2.1-.3-.6 0-1.2 0-2.1.1l-.1-.4c2.3-.6 3.5-1 3.8-1.1.6-.2.6-.3.6-.8 0-1-.4-2.7-.9-3.7-.8-1.6-1.9-2.8-3.5-3.7l.2-.4zm-14.3 34.2c1.3 1.1 2 1.3 3.5 1.3.9 0 1.7-.1 3-.4.6-1.2 1-2.2 1-2.9 0-.8-.5-1.2-2-1.6.5-.3.7-.3 1.3-.3.6 0 1.5.2 2.2.5.7.3 1 .6 1 .9 0 .2-.1.4-.4.8-.3.3-.6.8-.8 1.1-.5.8-.5.8-.7 1.1 2.4-.7 3.1-1 4-1.8.2-.1.3-.2.5-.2 1.1 0 1.9.4 1.9.9 0 .3-.4.6-1.2.9-2.5.8-3.8 1.1-6.1 1.6-.5.7-.8 1.2-1.5 2.2-.8 1.2-1 1.5-1.5 2.2 1.6-.8 2.5-1.1 3.6-1.1 1.7 0 2.9 1.1 3.1 2.8.5-.2.5-.2 2.7-1.4 2.8-1.4 3.4-1.8 3.4-2.4 0-.5-.5-1-1.3-1.3.3-.1.4-.2.6-.2 1.2 0 3.2 1.7 3.2 2.8 0 .5-.2.7-1 .9-1.7.4-5.3 1.8-7.5 2.9v2.3c0 1.3-.1 2.1-.2 2.4-.1.3-.4.5-.8.5-.5 0-.9-.4-.9-.8v-.5c.1-.8.2-1.8.2-3-1.7 1-2.5 1.5-3.3 2.2-.9.9-1.4 1.8-1.4 2.6 0 1.5 1.5 2.2 4.7 2.2 2 0 3.9-.3 5.6-.8.2-.1.4-.1.5-.1.9 0 2 .8 2 1.4 0 .4-.3.6-.9.8-1.1.2-3.3.4-5 .4-2.6 0-4.6-.3-5.7-.8-1.4-.7-2.1-1.6-2.1-3 0-1.3.6-2.5 2-3.8.7-.7 1.6-1.3 3.5-2.5 0-1.2-.1-1.6-.4-2.2-.3-.5-.8-.8-1.4-.8-1.8 0-4.1 1.5-6.1 4.1-.5.7-.8.9-1 .9-.4 0-.8-.6-.8-1.5 0-.6 0-.6.8-1.3 2-1.6 3.2-3 5.2-6-.9.1-1.3.2-1.9.2-1.9 0-2.9-.5-4.2-2.2h.6zM15.3 190.7H15c-.9 0-1.7.1-2.5.2l-.2-1c.8.1 1.3.2 2.7.2h18.6c.7-.8.9-1.1 1.6-1.9l2.4 2.1c.2.1.2.2.2.3s-.1.2-.3.2H23.8v7.3c0 2.7 0 4.3.1 6.6 0 .2-.1.3-.3.3-.2.1-1 .2-1.4.2-.2 0-.3-.1-.3-.3v-.1c.1-2.6.1-3.3.1-4.5-3.7 1.3-3.7 1.3-7.8 2.7-.2 1-.2 1.1-.5 1.1s-.5-.5-1.1-2.8c1-.1 1.3-.1 2.7-.3v-10.3zm3-2.2s0 .1 0 0c0 .3-.3.4-1.2.4-.6 0-.7-.1-.7-.3v-.1c.1-2 .1-2.9.1-5.5 0-1.9 0-2.3-.1-3.5.9.5 1.2.7 2 1.2h13c.4-.5.6-.7 1-1.2.8.6 1 .8 1.7 1.4.1.1.2.2.2.3 0 .2 0 .2-.9.8 0 3.7 0 4.9.1 6.2 0 .3-.1.3-.2.4-.2.1-.6.1-1.3.1-.4 0-.4-.1-.4-.3v-.7H18.3v.8zm-1.2 4.9h5v-2.7h-5v2.7zm0 3.4h5V194h-5v2.8zm0 4c2.4-.4 3.3-.6 5-1v-2.3h-5v3.3zm14.5-19.4H18.3v2.5h13.3v-2.5zm-13.3 3.2v2.6h13.3v-2.6H18.3zm14.7 8.7c.5-.5.7-.6 1.2-1.1.7.6.9.8 1.7 1.4.2.2.3.3.3.4 0 .2-.1.3-1.3.7-1.5 2.7-2.2 3.8-3.3 5.1 2 1.4 3.6 2 6.5 2.6v.4c-.6.1-.9.3-1.2.6-.4.4-.5.6-.7 1.2-2.6-1.1-3.9-2-5.6-3.6-1.7 1.6-3.1 2.5-5.8 3.8l-.2-.3c2-1.2 3.3-2.3 5.2-4.4-1.6-1.9-2.4-3.3-3.3-5.9h-.3c-.4 0-.9.1-1.4.1l-.2-.9c.5.1.9.1 1.6.1H33zm-6.2.6c.8 1.7 1 2.1 1.7 3 .6.7 1.1 1.3 1.9 2 1.3-1.7 1.8-2.7 2.5-4.9h-6.1zm6.7 25.2c.8-.9 1-1.2 1.7-2.1 1.3 1 1.7 1.3 2.9 2.3.1.1.1.2.1.2 0 .1-.1.2-.3.2H15.7c-.8 0-2 .1-2.7.2l-.3-1.2c.9.2 2.3.3 2.9.3h8.5v-1.6c0-.4 0-.8-.2-1.7 2.9.3 3.2.4 3.2.8 0 .2-.2.3-1.1.6v1.9h7.5zm.4 10.3c.3-.4.7-.8 1.1-1.2.9.6 1.2.8 2 1.4.2.2.2.2.2.3 0 .2 0 .2-1 .8v4.5c0 .9.1 1.8.1 2.6 0 1.3 0 1.3.1 2.1 0 .7-.3 1-1.1 1.3-.5.2-1 .3-2.2.5-.1-.7-.3-1.1-.9-1.3-.4-.3-1.1-.4-2.7-.5v-.5c2 .1 2.9.2 4.6.2.2 0 .3-.1.3-.5v-9H16.2v5.7c0 2.1 0 2.7.1 5.5-.1.2-.1.2-.3.3-.3.1-.9.1-1.3.1-.3 0-.4-.1-.4-.3.1-3.4.1-3.7.1-4.5 0-5.2 0-6.7-.1-8.8 1.1.5 1.5.7 2.4 1.3h17.2zm-3.7-7.3c.4-.5.5-.6 1-1.1.8.5 1.1.7 1.8 1.2.2.1.2.2.2.3 0 .2 0 .2-.9.8v1.2c0 .6 0 1 .1 3.3 0 .2-.1.3-.3.4-.2.1-.9.1-1.3.1-.3 0-.4-.1-.4-.3v-1H20.2v.8c0 .3-.4.4-1.2.4-.6 0-.7-.1-.7-.3v-.1c.1-1.5.1-2.2.1-3.6s0-2.2-.1-3.3c1 .4 1.3.6 2.2 1.1h9.7zm-1.5 10.4c.4-.5.5-.6 1-1.1.8.5 1 .7 1.7 1.2.1.1.1.2.1.2 0 .1 0 .1-.8.7v4.6c0 .3-.4.4-1.5.4-.3 0-.3-.1-.4-.2v-1h-7.3v1.4c-.1.3-.3.3-1 .4H20c-.3 0-.4-.1-.4-.4v-4.1c0-1.5 0-2.5-.1-3.5 1 .4 1.3.6 2.2 1.1h7zm-8.5-6.1h10.1v-3.6H20.2v3.6zm1.4 10.4h7.3v-3.7h-7.3v3.7zm-6.7 21.5c1.3 1.3 2.1 1.6 3.5 1.6.7 0 1.5-.1 2.5-.3.7-1.8 1-3 1-4 0-.9-.4-1.5-1.8-2.2.3-.2.4-.2.7-.2.6 0 1.4.3 2.2.6 1 .5 1.3.8 1.3 1.2 0 .2-.1.4-.3.7l-1.7 3.4c2.1-.7 2.3-.9 3.1-1.5.2-.2.3-.2.6-.2 1.1 0 1.9.4 1.9.8 0 .7-1.7 1.4-6.2 2.5-.3.6-.7 1.7-1.5 3.4-.8 1.9-3 6.6-3.2 7.1-.4.8-.7 1-1 1-.5 0-.9-.9-.9-2 0-.6.1-.7.3-1 .6-.7 1-1.1 1.3-1.7 1.4-2 2.4-3.9 3.5-6.6-.6.1-.9.1-1.3.1-1 0-1.8-.2-2.5-.6-.8-.5-1.5-1.1-2-2l.5-.1zm14.8 1.6c1.9.2 3.5.7 4.8 1.5 1.1.7 1.8 1.5 1.8 2.2 0 .5-.3.8-.7.8-.2 0-.4-.1-.6-.2-.8-.5-1.3-.6-2.7-.6-2.2 0-2.9.6-2.9 2.5 0 .8.1 2 .6 4.8 1.7.5 3.2 1.2 4 1.8.8.6 1.1 1.3 1.1 2.2 0 .6-.2 1-.6 1-.3 0-.4-.1-1-.7-1-1.1-1.9-1.8-3.4-2.5v.5c0 1.1-.2 1.8-.8 2.4-.8.8-2.1 1.2-3.6 1.2-2.5 0-4.3-1.2-4.3-3 0-2 2.1-3.3 5.2-3.3.6 0 1 0 1.7.1-.1-2.2-.1-2.4-.1-2.8 0-2.3.2-3.2 1-4 .6-.6 1.3-1 2.7-1.3.4-.1.5-.1 1.5-.4-.8-.8-1.6-1.3-3.6-1.9l-.1-.3zm-1.5 12.2c-.9-.3-1.5-.3-2.4-.3-2.4 0-3.8.8-3.8 2.1 0 1 1.1 1.7 2.8 1.7 2.3 0 3.4-.9 3.4-2.7v-.8zm-13.9 40.1c4.1-3.1 7.3-7.6 9.5-13.7-1.9.3-3.8.8-4.6 1.1-.4.2-.5.2-.7.2-.6 0-1.3-.5-1.9-1.3-.4-.5-.6-1.2-.6-1.6 0-.1 0-.3.1-.4.6 1 1.3 1.5 2.4 1.5.8 0 2.9-.3 5.7-.7.6-2.2 1-3.8 1-4.6 0-.9-.5-1.5-1.9-2 .3-.2.5-.2.8-.2.9 0 2 .4 3 1 .6.4.8.7.8 1.1 0 .2 0 .3-.3.7-.3.5-.6 1.2-1.3 3.8 1-.1 3-.4 3.3-.5 1.4-.2 1.4-.2 1.8-.4.2-.1.3-.2.6-.2.4 0 .7.2 1.5.8.6.6 1 1 1 1.3 0 .2-.1.3-.3.7-.3.5-.3.5-1 3.9-1.1 5.3-1.7 7.2-2.9 8.3-.7.6-1.6 1-2.4 1-.3 0-.6-.3-.7-.6-.2-.6-.4-.8-1.1-1.2-.3-.2-1.3-.7-2.8-1.6l.2-.4c2.4.8 4.5 1.4 5.1 1.4.4 0 .7-.3 1-1 .7-1.6 1.4-3.9 1.9-7.1.2-1.3.4-2.5.4-3.1 0-.7-.2-.9-.8-.9-.7 0-3.6.4-5.2.8-1.8 5-3.4 7.9-6.2 10.6-1.5 1.5-3.3 2.9-5 3.7l-.4-.4zm2 37.3c2.7-1.7 3.6-2.5 5.2-3.9 2-1.8 3.4-3.3 4.7-5.1-.4-.1-.6-.2-1.2-1.1-1.2-1.8-2.1-2.8-3.9-4.2-2 2-3.5 3.2-5.2 4.2l-.3-.4c2-1.7 3.7-3.5 5.4-5.8 1.8-2.4 2.8-4.1 2.8-4.9 0-.6-.5-1.1-1.8-1.7.3-.1.4-.1.6-.1.6 0 1.7.3 2.5.8.8.4 1.1.8 1.1 1.2 0 .4-.3.8-1.3 2.2.3.1.5.1.8.1.6 0 1.6-.2 3.7-.6 1.5-.3 1.7-.4 2.2-.8.1-.1.3-.1.4-.1.4 0 .8.3 1.6 1 .5.4.8.9.8 1.1 0 .2-.1.3-.4.6-.3.3-.4.4-.9 1.3-2.9 5.4-5.8 9.2-9.5 12.2-2.4 2-4.8 3.5-7.2 4.5l-.1-.5zm13.4-18.3c-2.3.6-2.3.6-2.6.7-.5.2-.6.2-.9.2-.5 0-1-.2-1.7-.8-1.1 1.4-1.8 2.3-3 3.5 2.1.9 2.1.9 2.7 1.3 1.2.7 1.9 1.3 2.4 2.2.3.4.3.7.4 1.3 2-2.7 3.8-6 4.8-8.7-.7-.1-1.2 0-2.1.3zM17 369.1c2.3-.6 5-1.7 7-2.7 1.1-.6 2.4-1.3 3-1.8.2-.2.3-.3.3-.5 0-.3-.4-.7-1.2-1.1.2-.1.3-.2.5-.2 1.2 0 3.5 1.4 3.5 2.2 0 .3-.1.4-1.2 1-.7.3-2.2 1-4.1 1.7 1.5.6 2.4 1.3 2.4 1.8 0 .1 0 .3-.1.7 0 .3-.1 1-.2 1.9 4.6-.4 4.9-.5 5.5-.7.2-.1.4-.1.7-.1 1.1 0 2.8 1 2.8 1.7 0 .3-.3.6-.6.6-.2 0-.2 0-.9-.1-1.3-.2-2.3-.3-4.1-.3-.1 0-1.2 0-3.5.1-.4 3.4-1.2 6-2.6 8.4-1.2 2-2.8 3.7-4.6 4.9l-.3-.3c3.3-3.2 5.2-7.4 5.6-12.8-2.9.4-5.8 1.1-7.4 1.8-.3.1-.5.2-.7.2-1.1 0-2.7-1.8-2.7-2.9 0-.1 0-.2.1-.3.8 1 1.3 1.3 2.4 1.3.5 0 1.2-.1 3.6-.4 1.8-.3 3.2-.5 4.7-.7.1-.8.1-1.1.1-1.7 0-1.6-.2-2.2-1.1-2.6-2.5.9-4.6 1.4-6.9 1.7v-.8zm-2.2 35.7c.4.4.7.5 1.3.5.8 0 1.5-.1 7.8-1.7 1-.3 2.6-.6 4.5-1 2-.4 2.9-.6 3.8-.9.6-.2.8-.2 1-.2.3 0 1 .3 1.5.6.6.3.8.7.8 1.1 0 .4-.3.7-.9.7h-.5c-.3-.1-.5-.1-.8-.1-4.8 0-9.4 4.6-9.4 9.4 0 2.5 1.3 4.5 3.7 5.5.9.4 2 .6 2.8.7.6 0 .8.1 1.2.4.5.5.8 1 .8 1.3 0 .4-.4.8-1 .8-1.6 0-4.1-.9-5.7-2-2.1-1.5-3.2-3.7-3.2-6.3 0-2.3 1.1-4.8 3.1-6.8 1.1-1.2 2.2-2 4.6-3.2-3.5.4-9.9 2.3-12.5 3.8-.6.3-.8.4-1.1.4-.7 0-1.5-.6-2.2-1.7-.4-.7-.7-1.4-.7-1.9 0-.2.1-.4.3-.8.2.7.4 1 .8 1.4zm16.7 2.6c1 .6 1.8 1.1 2.5 1.7 1 .9 1.4 1.6 1.4 2.2s-.4 1.2-.9 1.2c-.4 0-.4 0-1.2-1.8-.5-1-1.4-2.2-2.2-3l.4-.3zm2.9-1.7c1 .4 1.8 1 2.7 1.6 1.1.8 1.4 1.4 1.4 2.2 0 .7-.3 1.1-.7 1.1-.3 0-.4-.1-.6-.5-1-1.8-1.5-2.5-3.1-4l.3-.4z" fill="#200701"/></g><line x1="89.3" y1="15.1" x2="89.3" y2="75.1" fill="none" stroke="#76544b" stroke-miterlimit="10"/></svg>