<svg version="1.1" id="レイヤー_1" xmlns="http://www.w3.org/2000/svg" x="0" y="0" viewBox="0 0 112.2 416.5" xml:space="preserve"><g><path d="M85.4 108v3.1h8c.8-1 1-1.2 1.8-2.2 1.2 1 1.5 1.3 2.6 2.4.1.1.1.2.1.3 0 .1-.1.1-.2.1H85.4c.1 3.8.1 3.8.1 5.2 0 .2-.1.3-.2.4-.2 0-1 .1-1.6.1-.3 0-.4-.1-.4-.3 0-1 .1-2.7.1-5.3H75c-1.2 0-2.1.1-2.7.2l-.1-1.1c.9.2 1.7.3 2.9.3h8.4V108h-5.7v1c0 .4-.3.4-1.6.4-.3 0-.5-.1-.5-.3.1-2.2.1-3.3.1-5.8 0-2.7 0-3.9-.1-5.7.9.5 1.2.7 2.1 1.2h5.6v-3H75c-.9 0-1.5.1-2.1.2l-.1-1.1c.7.2 1.2.2 2.2.2h8.4c0-2.3 0-2.3-.2-3.6.6.1 1.1.1 1.5.1 1.4.1 1.8.2 1.8.5s-.3.4-1.1.6v2.4H93c.7-.9.9-1.1 1.6-2 1.2 1 1.5 1.2 2.6 2.2.1.1.1.2.1.2 0 .1-.1.1-.3.1H85.4v3h5.8c.5-.5.6-.7 1.1-1.2.7.5 1 .7 1.7 1.2.2.2.3.3.3.4 0 .2-.2.4-1.1.8v1.7c0 2.7 0 4.8.1 6.8 0 .2 0 .3-.1.3-.2.1-.7.2-1.5.2-.3 0-.4-.1-.4-.3v-.5h-5.9zm-1.9-6.1v-2.2h-5.7v3.4h5.7v-1.2zm0 1.8h-5.7v3.7h5.7v-3.7zm7.9-4.1h-6v3.4h6v-3.4zm0 4.1h-6v3.7h6v-3.7zm2.6 35.7l1.6-1.7c1 .9 1.3 1.1 2.2 2 .1.1.1.1.1.2s-.1.1-.3.1h-3v11.1c-.1 1.8-.5 2.3-3 2.7-.3-1.4-.9-1.7-3.8-2v-.4c2.7.1 2.9.1 4.5.1.3 0 .4-.1.4-.4V140h-12c.1.3.1.4.1.6 0 .9-.4 1.8-.9 1.8-.2 0-.3-.1-.6-1-.3-1.1-.8-2.1-1.7-3.3 0 3.2.1 12.7.1 15.1 0 .4-.2.4-1.3.4-.4 0-.5-.1-.6-.3.1-3.9.1-3.9.1-5.2v-5.7l.1-4.1c-1.3 4.1-2.3 6-4.5 8.8l-.3-.3c1.4-2.5 2.2-4.3 3.2-7.4.7-2 .9-2.8 1.3-4.8h-1.6c-.8 0-1.2 0-2 .1l-.1-1c.8.2 1.3.2 2.2.2h1.7V131c0-1.7 0-2-.1-2.9 2.5.3 2.5.3 2.8.4.2.1.3.2.3.3 0 .3-.3.4-1.2.7v4.7h.8c.6-.7.7-.9 1.3-1.6.9.8 1.1 1 2 1.8.1.1.1.1.1.2s-.1.2-.3.2h-3.9v2.7c2 1.3 2 1.4 2.5 1.9H94zm-10.6-6.9c-1.4 0-1.7 0-2.4.2l-.2-1.1c.7.2 1.4.3 2.6.3h3.4c.1-.8.2-1.4.2-2.3 0-.4 0-.8-.1-1.5 2.9.4 3.1.4 3.1.7 0 .2-.3.4-1.2.6-.1 1.3-.1 1.7-.3 2.5h4L94 130c1.1.9 1.5 1.2 2.6 2.2.1.1.1.1.1.2s-.1.2-.3.2h-8c-.1.5-.2.7-.4 1.3 1.5.4 3.8 1.1 4.8 1.6 1.3.5 1.8 1.1 1.8 2.2 0 .6-.2 1-.4 1s-.3-.1-.6-.4c-1.5-1.3-2.7-2.2-5.8-3.9-.5 1-1.1 1.6-2.1 2.4-1.3 1-2.4 1.6-4.6 2.3l-.2-.4c2.1-1 3.1-1.8 4.1-3 .8-.9 1.2-1.8 1.5-2.9h-3.1zm4.5 10.4c.4-.5.6-.7 1.1-1.1.6.5.8.6 1.4 1 .2.2.3.3.3.4 0 .2-.2.4-.7.6v5.3c0 .2 0 .2-.2.3-.2.1-.8.1-1.3.1-.3 0-.4-.1-.4-.3v-1h-4.5v1.8c0 .2 0 .2-.2.3-.1.1-.8.1-1.2.1-.3 0-.4-.1-.4-.3.1-2.7.1-2.9.1-3.8 0-2.4 0-3.6-.1-4.5.9.5 1.2.6 2.1 1.1h4zm-4.2 4.6h4.5v-4h-4.5v4zm6.1 19.1c.6-.7.7-.9 1.3-1.5 1.1.8 1.5 1 2.5 1.8.3.3.5.4.5.5 0 .1-.1.2-.2.3-.2.1-.2.1-1.8.3-.5.4-.9.7-1.2.9-2.7 2.1-3.2 2.4-4.9 3.5h.2c.4.1.6.2.6.4s-.1.3-1.1.8v2.9h7.1c.8-1 1.1-1.3 2-2.2 1.3 1 1.6 1.3 2.8 2.4.1.1.1.2.1.3 0 .1-.1.3-.3.3H85.7v10.5c0 1-.3 1.4-1.2 1.9-.4.3-.9.4-2.3.8-.4-1.1-.6-1.5-1.3-1.7-.6-.3-1.3-.4-4.2-.7l.1-.5 6.4.3c.4 0 .4-.1.4-.6v-9.9h-8.8c-1 0-1.7 0-2.8.1l-.3-1c1.3.2 1.8.3 3.1.3h8.8v-.5c0-2.7 0-2.7-.2-4.1.9.1 1.3.3 1.8.4 1.7-1.6 3.4-3.4 4.5-5H77.3c-1 0-1.9.1-2.6.1l-.3-1.1c1 .2 2 .3 3.1.3h12.3zm-15.6 41.1c.4.4.7.5 1.3.5.8 0 1.5-.1 7.8-1.7 1-.3 2.6-.6 4.5-1 2-.4 2.9-.6 3.8-.9.6-.2.8-.2 1-.2.3 0 1 .3 1.5.6.6.3.8.7.8 1.1 0 .4-.3.7-.9.7h-.5c-.3-.1-.5-.1-.8-.1-4.8 0-9.4 4.6-9.4 9.4 0 2.5 1.3 4.5 3.7 5.5.9.4 2 .6 2.8.7.6 0 .8.1 1.2.4.5.5.8 1 .8 1.3 0 .4-.4.8-1 .8-1.6 0-4.1-.9-5.7-2-2.1-1.5-3.2-3.7-3.2-6.3 0-2.3 1.1-4.8 3.1-6.8 1.1-1.2 2.2-2 4.6-3.2-3.5.4-9.9 2.3-12.5 3.8-.6.3-.8.4-1.1.4-.7 0-1.5-.6-2.2-1.7-.4-.7-.7-1.4-.7-1.9 0-.2.1-.4.3-.8.1.6.3 1 .8 1.4zm16.6 2.5c1 .6 1.8 1.1 2.5 1.7 1 .9 1.4 1.6 1.4 2.2s-.4 1.2-.9 1.2c-.4 0-.4 0-1.2-1.8-.5-1-1.4-2.2-2.2-3l.4-.3zm2.9-1.6c1 .4 1.8 1 2.7 1.6 1.1.8 1.4 1.4 1.4 2.2 0 .7-.3 1.1-.7 1.1-.3 0-.4-.1-.6-.5-1-1.8-1.5-2.5-3.1-4l.3-.4zm-20 36.4c1.1 1 2.1 1.4 3.3 1.4.8 0 1.5-.1 2.8-.4v-2.6c0-2.9-.3-3.5-2.3-3.9.4-.3.6-.4 1.2-.4 1 0 2.1.3 2.9.7.4.2.6.6.6.9 0 .2 0 .2-.3.7-.4.8-.7 2.1-.9 4.2 1.5-.5 2.2-.9 3.1-1.6.2-.2.5-.3.7-.3.3 0 .7.1 1.1.3.3.1.5.4.5.6 0 .4-.3.6-1.3 1.1-1.3.6-2.6 1-4.1 1.4 0 .4 0 .4-.1 1.4 0 .8-.1 2-.1 3.7 3.1-1.1 5.2-1.5 7.4-1.5 3.8 0 6.2 1.8 6.2 4.8 0 2.7-2.1 4.9-4.8 4.9-2.6 0-4.4-1.7-5.4-5l.4-.1c.7 1.3 1.1 1.9 1.7 2.4.8.7 1.7 1.1 2.7 1.1 2 0 3.5-1.6 3.5-3.8 0-2.2-1.5-3.3-4.1-3.3-2.2 0-4.9.7-7.6 2v4.9c0 .7-.1 1.2-.4 1.7-.3.6-.9 1-1.3 1s-.4 0-2.1-1.5c-.6-.5-1.4-1-1.9-1.3-.6-.3-.9-.7-.9-1.2 0-.4.3-1 .8-1.6 1-1.1 2-1.7 4.5-2.9 0-.4 0-.8.1-1.3.1-1.3.1-1.3.1-4-.9.1-1.5.2-2.2.2-1.8 0-3-.6-4.2-2.3l.4-.4zm3.1 11.4c-.6.6-.8 1-.8 1.3 0 .3.4.6 1.1.9.6.3 1.4.4 1.7.4.3 0 .5-.2.5-.7.1-2.5.2-3.9.2-4.1-1.3.9-2 1.4-2.7 2.2zm12.5-14.2c1.7.1 3 .4 4.1 1 1.2.7 2 1.6 2 2.5 0 .5-.3.8-.8.8-.1 0-.2 0-.4-.1-.4-.1-.5-.1-.6-.1-.4 0-1.1.1-3.4.8l-.2-.3c1.7-.9 2.7-1.5 3.1-1.8-.4-.8-.9-1.2-1.8-1.7-.6-.3-1-.5-1.9-.7l-.1-.4zm-17.5 42.9c.5.1 1.7.2 2 .2h2c.4-.5.5-.6.9-1.1.8.5 1 .6 1.8 1.1.1.1.2.2.2.3 0 .2-.2.4-.9.9v7c.5 1 .9 1.5 1.9 2.1 1.3.8 2.9 1.1 5.6 1.1 3.5 0 9.1-.3 12.9-.6v.4c-1.2.4-1.5.7-1.8 2-1.7.1-3.9.1-7.1.1-3.4 0-4.8-.1-6.2-.3-2.3-.4-3.6-1.1-4.7-2.5-.4-.6-.8-1.1-1.4-2.4-.7 1.1-2.2 3.1-3.3 4.2.1.3.1.5.1.6 0 .3-.2.6-.4.6s-.8-.9-1.7-2.9c.7-.3 1.1-.5 2.3-1.2 1.2-.7 1.5-.9 2-1.4V286h-2.1c-.6 0-.9 0-1.8.1l-.3-1zm1.1-10.9c1.6 1 2.4 1.5 3.8 2.7.8.7 1.1 1.2 1.1 1.8 0 .3-.3 1.2-.5 1.7-.2.4-.4.6-.6.6-.2 0-.3-.1-.5-.5-.7-2-1.9-4-3.6-5.9l.3-.4zm9.8 2.9c0-.1 0-1.1-.1-3.3 1 .5 1.3.7 2.2 1.3H92c.4-.5.5-.7 1-1.2.6.4 1.2.8 1.7 1.1.1.1.2.2.2.3 0 .2-.3.4-.9.9v7h.4c.3-.5.5-.7.9-1.2.8.5 1.1.6 1.8 1.2.1.1.1.2.1.3 0 .2-.1.3-.9 1v8.8c-.1.7-.2 1-.8 1.3-.5.3-1.1.4-2.2.5-.1-.7-.2-.9-.4-1.1-.3-.2-.3-.2-2.1-.6v-.4c1.3.1 1.7.1 3.2.2.3 0 .4-.1.4-.5V284H82.2v8.4c0 .2 0 .2.1 2 0 .3-.2.4-1.1.4-.1 0-.3 0-.5.1h-.1c-.3 0-.4-.1-.4-.5v-1l.1-3.5c0-6.2 0-6.3-.1-7.7 1 .5 1.2.6 2.1 1.2h.4v-6.3zm4.5 2.2c0-.3 0-.7-.1-1.9 1 .5 1.2.7 2.2 1.3h2.9v-2.9h-7.8v7.5h2.9v-4zm3 6.9c.4-.4.5-.6.9-1 .7.4.9.6 1.6 1.1.1.1.2.2.2.3 0 .1-.1.2-.7.7v.6c0 .9 0 1.9.1 3.7v.1c0 .1-.1.3-.2.3-.2.1-.8.2-1.1.2-.3 0-.4-.1-.4-.4v-.6h-4.3v1.6c0 .1 0 .3-.1.3-.1.1-.8.2-1.3.2-.2 0-.3-.1-.4-.3.1-1.1.1-1.4.1-2.6 0-1.8 0-4.7-.1-5.2.9.4 1.2.5 2 1.1h3.7zm-4.1 4.3h4.3v-3.7h-4.3v3.7zm6.1-7.2v-4h-3.3v4h3.3zm-15.4 42c-.1.6-.1.9-.1 1.3 0 3.3 2.1 4.9 6.6 4.9 2.2 0 4.5-.4 6.2-1 .1-.1.3-.1.5-.1.4 0 1.1.2 1.5.6.4.3.6.6.6 1s-.3.7-.9.9c-1.3.3-4 .6-6.5.6-3.1 0-5.1-.4-6.5-1.3-1.4-.9-2.3-2.7-2.3-4.4 0-.7.1-1.4.4-2.4l.5-.1zm.9-11.1c1.4 1 2.4 1.2 4.3 1.2 1.8 0 4.2-.3 5.8-.8.2-.1.4-.1.5-.1.7 0 1.7.8 1.7 1.5 0 .5-.2.6-2 1-1.5.3-3 .9-7.5 2.8l-.2-.4c.8-.5 1.3-.8 2-1.2l1.8-1 .5-.3c-.6.1-1.6.1-2.1.1-1 0-2.3-.3-3.2-.8-.7-.4-1.2-.8-2-1.6l.4-.4zm12.8-2.4c1 .6 1.8 1.1 2.5 1.7 1 .9 1.4 1.6 1.4 2.2s-.4 1.2-.9 1.2c-.4 0-.4 0-1.3-1.8-.5-1-1.4-2.2-2.1-3l.4-.3zm2.9-1.7c1 .4 1.8 1 2.7 1.6 1.1.8 1.5 1.4 1.5 2.2 0 .7-.3 1.1-.7 1.1-.3 0-.4-.1-.6-.5-1-1.8-1.5-2.5-3.1-4l.2-.4zm.7 54.8c-2.7 3.6-6.4 5.8-9.8 5.8-2.1 0-3.8-.9-4.6-2.4-.6-1-.8-2.4-.8-4.7 0-1.5.1-4.2.2-6.7.2-3 .2-3.8.2-4.8 0-2.4-.3-2.9-2.3-3.7.3-.2.5-.3.8-.3.6 0 1.7.3 2.5.6 1.1.5 1.6 1.1 1.6 1.7 0 .2 0 .4-.3 1-.5 1.7-1.5 10.2-1.5 13.4 0 1.7.3 2.7 1.1 3.4.6.5 1.5.8 2.5.8 1.9 0 4.3-.7 6.4-1.8 1.3-.7 2.1-1.3 3.6-2.5l.4.2zM19.4 213.2c-2 4.7-2.6 6.4-2.6 7.5 0 .2 0 .2.2 1 0 .1.1.3.1.4 0 .4-.3.7-.6.7-.8 0-2.2-1.1-3.1-2.4-1-1.4-1.6-3.4-1.9-5.6-.2-1.2-.2-1.9-.2-4.9 0-2.6-.2-3.2-1.4-4.8h.3c.4 0 1.3.5 2.1 1.4.8.8 1.3 1.6 1.3 2.2 0 .2 0 .4-.1.7-.3 1.7-.5 3-.5 4.2 0 1.5.2 2.9.6 4.1s.8 1.7 1.5 2.2c.3-.4.3-.4.9-1.5.9-1.5.9-1.5 2.4-3.9.4-.7.4-.7.8-1.3h.2zm5.9-5c3.5.8 6.3 4.5 6.3 8.4 0 1.3-.6 2.2-1.4 2.2-.3 0-.4-.1-.8-.3-.4-.3-.9-.3-2.1-.3-.6 0-1.2 0-2.1.1l-.1-.4c2.3-.6 3.5-1 3.8-1.1.6-.2.6-.3.6-.8 0-1-.4-2.7-.9-3.7-.8-1.6-1.9-2.8-3.5-3.7l.2-.4zM9.6 244.4c1.1 1.2 1.9 1.5 3.1 1.5 1.1 0 2.3-.2 3.6-.5.6-1.8 1-3.8 1-4.7 0-.9-.4-1.2-2-1.8.4-.2.5-.3.9-.3.6 0 1.6.2 2.4.5.8.3 1.3.7 1.3 1.1 0 .2 0 .2-.3.7-.4.5-1 2-1.7 4 1.6-.6 2.6-1.1 3.2-1.7.4-.4.6-.5.8-.5.4 0 1 .1 1.5.3.3.1.4.3.4.5 0 .5-.4.8-1.6 1.4-1.3.6-3.1 1.2-4.9 1.6-.3 1-.3 1-1.2 3.6-.6 1.7-.6 1.7-2.1 6.2-1.1 3.3-1.5 4-2.1 4-.3 0-.5-.2-.6-.6-.2-.4-.4-1.1-.4-1.6 0-.4 0-.5.6-1.4 1.4-2 2.5-4.5 4.4-10-1.1.2-1.9.3-2.7.3-1.7 0-2.8-.7-3.8-2.5l.2-.1zm11.2 9.6v.9c0 1.6.8 2.8 2.1 3.4.8.3 1.9.5 3 .5s1.8-.1 2.7-.4c.2-.1.4-.1.5-.1.3 0 1 .3 1.4.7.3.3.5.5.5.8 0 .6-1.1.9-3.3.9-2.2 0-3.9-.3-5.2-.9-1.5-.7-2.4-2.2-2.4-4.1 0-.6.1-1.1.3-1.8l.4.1zm.7-5.1c2-1.2 4.3-1.9 6.5-1.9.6 0 1.3.2 1.8.5.3.2.4.5.4.8 0 .4-.3.6-1.1.6-1 .1-1.4.1-2.2.6-.6.3-.6.3-1.5 1l-1 .6-.2-.3 1.3-1.3c.3-.2.5-.4 1.4-1.3-1.8 0-3.3.3-5.3 1l-.1-.3zM9.4 281.2c1.1 1.2 1.9 1.5 3.1 1.5 1.1 0 2.3-.2 3.6-.5.6-1.8 1-3.8 1-4.8 0-.8-.4-1.2-2-1.7.4-.2.5-.3.9-.3.6 0 1.6.2 2.4.5.8.3 1.3.7 1.3 1.1 0 .2 0 .2-.3.7-.4.5-1 2.2-1.7 4 1.4-.5 2.6-1.1 3.2-1.7.4-.4.6-.5.8-.5.4 0 1 .1 1.5.3.3.1.4.3.4.5 0 .5-.4.8-1.6 1.3-1.3.6-3.1 1.2-4.9 1.7-.2.6-.3 1-.4 1.1-.9 2.8-1.9 5.7-2.9 8.7-1.1 3.3-1.5 4-2.1 4-.3 0-.5-.2-.6-.6-.2-.4-.4-1.1-.4-1.6 0-.4 0-.5.6-1.4 1.3-1.8 2.6-4.8 4.4-10-1.1.2-1.9.3-2.7.3-1.7 0-2.8-.7-3.8-2.5l.2-.1zm11.1 9.6v.9c0 1.6.8 2.8 2.1 3.4.8.3 1.9.5 3 .5s1.8-.1 2.7-.4c.2-.1.4-.1.5-.1.3 0 1 .3 1.4.7.3.3.5.5.5.8 0 .6-1.1.9-3.3.9-2.2 0-3.9-.3-5.2-.9-1.5-.7-2.4-2.2-2.4-4.1 0-.6.1-1.1.3-1.8l.4.1zm.8-5.2c2-1.2 4.3-1.9 6.5-1.9.6 0 1.3.2 1.8.5.3.2.4.5.4.8 0 .5-.3.6-1.1.7-1 0-1.3.1-2.2.6-.4.2-.7.4-.9.5l-1 .7c-.1.1-.3.2-.6.3l-.2-.3.4-.4.9-.8c.2-.2.6-.6 1.4-1.3h-.2c-1.5 0-3.4.4-5.1 1l-.1-.4zm4.9-10c1 .6 1.8 1.1 2.5 1.7 1 .9 1.4 1.6 1.4 2.2 0 .7-.4 1.2-.9 1.2-.4 0-.4 0-1.2-1.8-.5-1-1.4-2.2-2.2-2.9l.4-.4zm2.9-1.7c1 .4 1.8 1 2.7 1.6 1.1.8 1.4 1.4 1.4 2.2 0 .7-.3 1.1-.7 1.1-.3 0-.4-.1-.6-.5-1-1.8-1.5-2.5-3.1-4l.3-.4zm-13 48.3c-1.2 5-1.7 7.5-1.7 8.5v.7c0 .9-.2 1.3-.7 1.3-.4 0-.8-.4-1.2-1-.9-1.7-1.3-4.2-1.3-7.3 0-2.1.1-3.4.6-6.4.4-2 .4-2.8.4-3.5 0-.9-.3-1.7-1-2.7.6 0 1.2.4 1.8 1.1.8.9 1.2 1.7 1.2 2.2 0 .4 0 .5-.4 1.5-1 2.7-1.5 5.3-1.5 7.8 0 2.1.2 3.4.7 4.4.3-.8 2-5.4 2.5-6.9l.6.3zm2.2-4.6c1.3.9 1.9 1.1 3.2 1.1 1.1 0 2.8-.2 4-.6v-1c0-2.3-.1-3.4-.3-3.9-.3-.6-1.1-1-2.4-1.3.4-.4.6-.4 1.5-.4 2 0 3.4.6 3.4 1.4 0 .1-.1.4-.1.7-.3 1-.3 1.4-.4 4 1.5-.5 1.8-.6 2.5-1.2.2-.1.3-.2.6-.2.9 0 1.7.4 1.7.8 0 .3-.2.5-1 .9-.9.4-1.8.7-3.8 1.2v4.1c0 4.4-.8 6.7-2.9 8.9-1.2 1.3-2.5 2.2-4.3 3.1l-.2-.4c2-1.6 3-2.7 3.9-4.3 1.3-2.3 1.8-4.8 1.8-9.6v-1.4c-1.3.3-2.2.4-3.2.4-1.9 0-3.1-.6-4.4-2l.4-.3zM11.8 352c1.5 1.2 2.4 1.5 4.5 1.5 1.2 0 2.3-.1 4-.3-.1-4.3-.3-4.7-2.4-5 .4-.4.6-.4 1.4-.4s1.7.1 2.4.4c.7.2 1 .5 1 .9 0 .2 0 .2-.4 1-.3.5-.4 1.5-.5 3 2.8-.5 4.3-1 5.2-1.7.1-.1.3-.1.3-.1.3 0 1.1.3 1.5.5.3.2.5.4.5.7 0 .4-.4.6-2.2 1-1.9.4-3.7.8-5.3 1v4.3c1.1-.2 2.2-.4 3.2-.8.7-.3.9-.3 1.4-.7.1-.1.3-.1.4-.1.4 0 1.1.2 1.4.4.2.1.3.3.3.5 0 .5-.4.7-2.2 1.2-1.4.4-3.2.7-4.6.8.1 1.1.1 1.5.1 2.5.1 1.1.1 1.5.2 2.2 2.6.5 5 1.4 6.2 2.4.5.5.8 1.1.8 1.8 0 .6-.3 1-.6 1s-.4-.1-1.1-.8c-.5-.4-1.5-1.3-2.4-1.7-1-.6-1.7-.9-2.8-1.2.1.6.1.9.1 1.2 0 1.1-.3 1.8-1 2.4-.8.6-2.2 1-3.8 1-2.8 0-4.7-1.2-4.7-3 0-2 2.6-3.4 6.3-3.4h1.4v-4.3c-1.1.1-1.7.1-2.1.1-1.8 0-3.1-.2-3.7-.6-.8-.5-1.3-1.3-1.3-2.1 0-.2 0-.5.1-.8h.4c0 .9.2 1.3.6 1.6.4.4 1.7.6 3.3.6.8 0 1.5-.1 2.7-.2v-1.9l-.1-2v-.3c-1.5.1-2.7.2-3.6.2-2.7 0-3.8-.5-5.2-2.4l.3-.4zm6.2 13.8c-1.1 0-2.2.2-3.1.5-1 .4-1.5 1-1.5 1.7 0 1 1.1 1.6 3.1 1.6 1.4 0 2.5-.4 3.2-1 .4-.3.5-.8.6-1.5 0-.2.1-.8.1-1.1v-.1c-1.2 0-1.7-.1-2.4-.1zm-1.7 41.8c3.2-2.2 4.6-4 5.3-7-.6.4-1.1.6-1.8.6-2 0-3.4-1.7-3.4-4 0-2.5 1.5-4.3 3.6-4.3.5 0 .8.1 1.6.5v-3.5c-2.2.2-4.8.7-7.1 1.4-.7.2-1.2.4-1.8.8-.2.1-.5.1-.6.1-.5 0-1.1-.4-1.8-1.1-.6-.7-1.1-1.6-1.1-2 0-.1.1-.2.1-.3.7 1 1.6 1.4 2.7 1.4.6 0 1.2-.1 2.4-.3 3.3-.5 4.3-.7 7.2-1 0-1.7-.1-2.5-.3-3.1-.3-.8-1-1.2-2.4-1.4.3-.4.5-.5 1.3-.5 1 0 1.9.1 2.7.4.7.2 1.1.6 1.1 1 0 .2 0 .3-.3.8-.3.6-.5 1.4-.6 2.7.7-.1.7-.1 1.8-.2 2.7-.2 3-.3 3.7-.5.7-.3.8-.3 1-.3.6 0 1.7.5 2.4 1 .3.3.4.4.4.8 0 .3-.2.5-.6.5-.2 0-.3 0-1.5-.2-1.5-.2-2.7-.3-4.3-.3-1 0-1.8 0-3 .1-.1 1.1-.2 2.8-.2 3.8v1c.7 1.4.9 2.3.9 3.7 0 2.7-1.1 5.3-3 7.1-1.1 1-2.4 1.9-4.2 2.7l-.2-.4zm3.6-14.1c-1.3 0-2.2 1.3-2.2 3 0 1.8 1 3.1 2.3 3.1 1.2 0 1.8-.9 1.8-2.6-.1-2.4-.7-3.5-1.9-3.5z" fill="#200701"/></g><line x1="84.6" y1="0" x2="84.6" y2="60" fill="none" stroke="#76544b" stroke-miterlimit="10"/></svg>