<svg version="1.1" id="レイヤー_1" xmlns="http://www.w3.org/2000/svg" x="0" y="0" viewBox="0 0 55 275" xml:space="preserve"><g><rect width="55" height="275" fill="#210100"/><line x1="27.7" y1="0" x2="27.7" y2="30" fill="none" stroke="#76544b" stroke-miterlimit="10"/><g><g><path d="M16.9 50.7c0-.1-.1-.1-.1-.2h.1c.2 0 .8.1 1 .1 1.1.1 2 .1 3 .1H26c.3 0 .4 0 .7-.5.4-.5.4-.5.6-.5.3 0 1.6 1.1 1.6 1.3 0 .3-.5.3-1.2.3h-1.1c-.6 0-.7.3-.7.7 0 1.3-.1 6.8-.1 7.9v5.6c0 .3.1 1.6.1 1.8 0 .3 0 1.6-1.1 1.6-.6 0-.6-.4-.6-.7 0-.2.1-.9.1-1.1 0-.8.1-1.6.1-2.7 0-1.6 0-1.8-.5-1.8s-4.3 1.5-5 1.9c-.2.1-.9.9-1.1.9-.3 0-1.1-1.9-1.1-2.2 0-.2.1-.2.9-.2 1.7 0 1.9-.5 2-.8.1-.4.1-7.3.1-8.2v-2.2c0-.2 0-.7-.6-.7-.2 0-1.3.1-1.5.1-.1 0-.1 0-.2-.1l-.5-.4zm4.7 8.4c-.6 0-.6.4-.6 1.1 0 2 0 2.4.7 2.4.3 0 1.7-.2 2.2-.5.4-.2.5-.4.5-2.2 0-.5 0-.9-.7-.9h-2.1zm.1-7.8c-.7 0-.7.1-.7 2.1 0 .9 0 1.2.6 1.2H24c.6 0 .6-.1.6-2 0-1-.1-1.3-.7-1.3h-2.2zm2.1 7.2c.7 0 .7-.1.7-2 0-1 0-1.3-.6-1.3h-2.3c-.6 0-.6 0-.6 2.6 0 .7.2.8.6.8h2.2zm3.5-6.6c-.1-.1-.1-.1-.1-.2s0 0 .1 0c.2 0 .8.1 1 .1 1.8.1 2.4.1 3 .1h1.8c.3 0 .7 0 1.1-.6.2-.2.2-.2.4-.2s1.8.8 1.8 1.2c0 .2 0 .2-.3.4-.4.3-.6 1.2-.8 1.7-1 3.6-1.3 4.4-2.2 6.2-.2.5-.3.7-.3 1 0 .7 1.5 2.8 3.5 4.2.2.2 1.3.9 1.3.9 0 .1-1.1.2-1.4.3-.2.1-.5.2-.7.5-.1.1-.2.2-.3.2-.5 0-2.3-2.9-2.9-3.8-.2-.4-.4-.6-.6-.6-.2 0-.2.1-.7.7-2.7 3.4-4.5 4.1-4.6 4.1-.1 0-.2-.1-.2-.2s1.3-1.3 1.5-1.5c.3-.3 3-3.5 3-4.7 0-.4-1.1-3.4-1.3-4.1-.2-1.1-.4-2.8-.6-3.9-.2-.9-.4-1.1-.7-1.1h-.4c-.1 0-.1-.1-.2-.2l-.2-.5zm4 .5c-1.7 0-1.8 0-1.8.7 0 1.5 1.7 6.6 2.3 6.6.5 0 2.1-5.3 2.1-6.7 0-.7-.6-.7-1-.7h-1.6zM27.9 79c-1.9 0-3.6 3.1-3.6 5.4 0 .7.1 1.1.3 1.6.2.4.2.6.2.8 0 .7-.6.8-.8.8-1 0-1.5-1.8-1.5-3.6 0-1.1.2-2.3.4-3.5.3-1.8.3-2.3.3-2.8 0-.8-.1-1.1-.3-1.4 0-.1-.4-.5-.4-.6s.3-.2.6-.2c1 0 1.7.9 1.7 1.5 0 .3-.4 1.4-.5 1.6 0 .2-.5 2.2-.5 2.7 0 .1 0 .3.2.3.1 0 .2-.3.4-.6.2-.5 1.7-3.3 4-3.3 1.4 0 2.8.7 2.8 5.3 0 3.1-.6 6.6-4.8 9.1-.9.5-1.5.7-1.6.7 0 0-.1 0-.1-.1s0-.1.5-.5c3.6-2.7 4.3-5.3 4.3-9.8.2-2-.2-3.4-1.6-3.4zm-7.8 31.3c-.3 0-1.1.2-1.6.4-.1 0-.5.4-.6.4s-.2-.1-.2-.2c-.1-.1-.7-1.7-.7-1.8 0-.2.1-.2.2-.2s.5.1.6.1c.4.1.9.1 1.3.1.7 0 1-.2 1.4-.8.9-1.3 2.4-3.7 2.6-4 .1-.2.4-1.3.5-1.3.2 0 1.9 1.1 1.9 1.4 0 .2-.5.4-.7.4-.6.2-.7.3-1.9 1.8-1.6 1.9-1.8 2.1-1.8 2.2 0 .2.2.2.4.2s1.2-.1 1.5-.1c1-.1 1.1-.1 1.1-.3 0-.3-.3-.8-.4-1l-.2-.3c0-.1 0-.1.1-.1.4 0 2.9 1.7 2.9 3.4 0 .7-.6 1-1 1-.5 0-.7-.5-.7-.8-.2-1.1-.2-1.3-.4-1.3s-1.5.3-1.7.3c-.7.2-.7.4-.7 1.2v7.2c0 .9-.9 1.2-1.3 1.2s-.4-.5-.4-.7c0-.7.1-5.2.1-6.2v-1.9c.1-.2-.1-.3-.3-.3zm0 2.3c0 .2-.5.8-.6.9-.1.3-.6 1.4-.7 1.7-.7 1.7-1.5 2.6-1.6 2.6-.1 0-.1 0-.1-.1s.2-.5.2-.7c.3-1.2.7-3.4.7-4.5 0-.7 0-.8.2-.8h.2c.7.3 1.7.6 1.7.9zm3.1-12c0 .1-.1.2-.6.5-.1.1-2.4 3.3-2.4 3.5 0 .1.1.2.5.7.2.3.3.7.3 1 0 .7-.5 1-.8 1-.7 0-1-.9-1.1-1.2-.3-.7-.7-1.4-1.3-2-.1 0-.5-.4-.5-.5s.2-.1.2-.1c.3 0 .6.1 1.1.3.2.1.8.4.9.4.5 0 1.2-3 1.4-4.1.1-.7.2-.8.4-.7.1.1 1.9.7 1.9 1.2zm2.4 14.3c0 .5-.4 1-.9 1-.4 0-.5-.2-.6-.7-.3-1-.8-2-1.3-2.8 0-.1-.4-.6-.4-.7s0-.1.1-.1.2 0 .4.2c1.9 1.2 2.7 2.2 2.7 3.1zm-2.1 2.7c-.1-.1-.1-.1-.1-.2s.1 0 .1 0c.4 0 2.6.2 3.1.2.4 0 .4-.2.5-.4.1-1.2.2-10.3.2-12.2 0-.9 0-3.4-.1-4.1 0-.1-.1-.7-.1-.8 0-.1 0-.1.1-.1.2 0 .8.4 1 .5.5.3.6.3 1.1.3h3.3c.4 0 .5-.1.6-.3.4-.5.4-.6.6-.6.1 0 1.7.7 1.7 1.2 0 .2-.1.2-.4.6-.2.2-.2.9-.2 1.6v13.8c0 .2 0 .4.1.4.2 0 .8-1 1-1 .3 0 1.4 1.2 1.4 1.6 0 .3-.1.3-.9.3H27c-.7 0-1.7 0-2.4.1h-.5c-.1 0-.1 0-.2-.1l-.4-.8zm9.2-5.7c.7 0 .7-.4.7-.9v-4c0-.2 0-.5-.6-.5h-3.4c-.2 0-.4 0-.5.2-.1.2-.1 2-.1 2.4 0 .4 0 2.4.1 2.6.1.2.4.2.5.2h3.3zm0 5.7c.6 0 .6-.1.6-2.4 0-.4 0-2.4-.1-2.5-.2-.2-.4-.2-.6-.2h-3.4c-.1 0-.4 0-.6.2-.1.1-.1 2.1-.1 2.4 0 .4 0 2.1.1 2.2.1.2.4.2.6.2h3.5zm0-11.7c.6 0 .6-.4.6-.7v-3.6c-.1-.3-.2-.4-.6-.4h-3.3c-.6 0-.7.3-.7.7v3.5c0 .3.2.5.6.5h3.4zm-6.2 21.8c-.3 0-1.2.8-1.6 1.1-.3.3-1.1 1-1.7 1-.8 0-1.4-1.6-1.4-1.6 0-.1 0-.2.2-.2.1 0 .6.1.7.1.7 0 1 0 2.3-.9 1.1-.7 1.8-.7 2.1-.7 1.5 0 1.8 1 1.8 1.3 0 .5-.2.7-1.3 1.8-1.6 1.5-3.2 4.4-3.2 4.5 0 .1.2.1.2.1h1.8c1.4.1 3 .5 4.2.9.2.1.3.1.4.1.3 0 .4-1.8.4-2 0-.2-.1-1.1-.1-1.2 0-.1.2-.1.2-.1.1 0 2 .4 2 1.2 0 .2-.4.7-.5.9 0 0-.3 1.8-.3 1.9 0 .3.1.4.5.5.9.5 2.9 1.5 2.9 2.6 0 .6-.5.8-.8.8-.4 0-.7-.2-2.2-1.5 0 0-.7-.6-.9-.6-.2 0-.2.2-.3.3-.6 1.1-1.7 2.7-4.3 4.1-1.2.6-2.2.9-2.4.9 0 0-.2 0-.2-.1l.4-.3c2.2-1.5 3.3-2.4 4.5-4.4.3-.5.7-1 .7-1.3 0-.2 0-.3-1.2-.9-1.5-.7-2.9-1-4-1-1.4 0-1.4.1-1.8.9-1.9 4-2.3 4.8-3.7 4.8-1.1 0-1.5-1.2-1.5-1.8 0-1.9 2-3.5 4.3-4.4.3-.1.3-.1.6-.4.5-.8 3.3-5 3.4-5.2.1-.2.3-.8.3-1-.3 0-.4-.2-.5-.2zm-7.4 10.6c0 .4.2.6.6.6 1.2 0 2.6-3.2 2.6-3.3 0-.1 0-.1-.1-.1-.8 0-3.1 1.5-3.1 2.8zm2.6 24.5c.4 0 .6-.4 1.1-1.7.1-.4.2-.5.3-.5s.1.2.1.3c0 .2-.5 2.8-.5 3.3 0 .4.3 1 .4 1.1.2.3.3.7.3 1 0 .4-.4.7-.7.7-1.4 0-2.4-3.7-2.4-5.9 0-1.4.2-2 .9-4.8.4-1.3.4-1.9.4-2.3 0-.7-.1-1.3-.2-1.6 0-.1-.1-.3-.1-.4s.1-.1.2-.1c1 0 1.9 2 1.9 2.8 0 .2 0 .3-.4 1-.2.5-1.7 3.7-1.7 5.7-.2.7 0 1.4.4 1.4zm12.8 2.2c0 .9-.7 1.1-3.7 1.1-2.2 0-3-.5-3.4-1-.1-.1-.7-.7-.7-1.1 0 0 0-.2.1-.2s.4.3.5.3c.6.3 1.5.4 2.4.4.6 0 1.4 0 1.9-.1.3 0 1.8-.2 1.9-.2.8 0 1 .5 1 .8zm-1.1-10.7c0 1.1-2.4 1.1-2.7 1.1-2.5 0-3.8-1.3-3.8-1.6 0 0 0-.1.2-.1.1 0 .3.1.6.2.5.1 1.1.1 1.5.1 1.1 0 2.1-.2 2.4-.3.7-.2.7-.3.9-.2.4-.1.9.3.9.8zM18 182.1c0-.2.1-.4.3-.4.2 0 1.1.3 1.3.3.6 0 .8-.1 3.5-1.2 1.1-.4 4.1-1.7 6.2-1.7 3.2 0 5.6 2.5 5.6 5.4 0 4-4.1 6.4-8.8 6.4-.2 0-.5 0-.5-.3 0-.2.1-.2.9-.3 5.4-.8 6.8-4.6 6.8-6.6 0-2.6-2.1-3.7-3.6-3.7-2.1 0-5.2 1.7-7.2 3-1.1.8-1.4.9-2 .9-1.3 0-2.5-1.2-2.5-1.8zm4.1 23.8c0 .2 0 .2-.3.9-.3.9-.5 1.7-.5 2.8 0 2.2 1.1 3.8 1.8 3.8.4 0 .5-.1 1.1-1.2.1-.2.5-.7.7-.7.1 0 .1.1.1.2s0 .4-.1.4c-.2 1-.3 1.2-.3 1.7 0 .4.1.7.1.9.1.2.2.6.2.7 0 .4-.5.7-.8.7-1.4 0-4.2-2.3-4.2-6.5 0-.6.3-3.3.3-3.9 0-.4-.1-1-.2-1.3-.2-.5-.2-.6-.2-.7 0-.1.1-.1.1-.1 1.2-.1 2.2 1.7 2.2 2.3zm10.7.5c1.1.9 2 2.5 2 4.2 0 .4 0 1.5-1.1 1.5s-1.1-1.2-1.1-1.5c0-1.8 0-2.8-1.2-3.9-.2-.2-1.1-.9-1.1-1 0-.1.1-.1.2-.1.1-.1 1.4 0 2.3.8zM20 230.1c.9 0 1.3-.1 4.3-.9 2-.6 7-2 8.4-2 .8 0 1.8.3 1.8 1.1 0 .6-.6.8-.9.8-.3 0-1.5-.2-1.8-.2-2.8 0-5.9 2.6-5.9 8.2 0 3.7 1.4 3.9 2.7 3.9.3 0 1.9-.1 2.1-.1.7 0 1.1.3 1.1.8 0 1.2-2.4 1.2-2.6 1.2-4.5 0-4.5-3.7-4.5-4.7s0-5.6 3.2-8.5c.1-.1.5-.4.5-.5s-.1 0-.1 0c-1.3 0-5.8 2-6.5 2.4-.3.2-.5.3-.8.3-1.1 0-2.1-1.5-1.9-1.8.1-.2.8 0 .9 0z" fill="#fff"/></g></g></g></svg>