<?xml version="1.0" encoding="utf-8"?>
<!-- Generator: Adobe Illustrator 25.2.3, SVG Export Plug-In . SVG Version: 6.00 Build 0)  -->
<svg version="1.1" id="レイヤー_1" xmlns="http://www.w3.org/2000/svg" xmlns:xlink="http://www.w3.org/1999/xlink" x="0px"
	 y="0px" viewBox="0 0 88.2 369.7" style="enable-background:new 0 0 88.2 369.7;" xml:space="preserve">
<style type="text/css">
	.st0{fill:#200701;}
	.st1{fill:none;stroke:#76544B;stroke-miterlimit:10;}
</style>
<g>
	<g>
		<path class="st0" d="M83.1,103.1c0.8-1,1.1-1.3,1.9-2.3c1.3,1.1,1.7,1.4,2.9,2.5c0.1,0.1,0.1,0.2,0.1,0.3c0,0.1-0.1,0.2-0.3,0.2
			h-9.4v11c0,0.7,0,0.7,2.9,0.7c2.9,0,3.1,0,3.4-0.6c0.3-0.4,0.9-2.4,1.7-5.5l0.4,0l-0.4,4.6c-0.1,0.5-0.1,0.5-0.1,0.5
			c0,0.3,0.2,0.4,0.6,0.6c0.4,0.2,0.6,0.4,0.6,0.7c0,0.4-0.3,0.8-1,1c-0.6,0.1-2.2,0.2-4.7,0.2c-3.5,0-4.3-0.1-4.8-0.4
			c-0.4-0.3-0.6-0.7-0.7-1.6c0-1.7,0-1.7,0-5.1v-6.3h-3.5c-0.1,1.7-0.1,2.1-0.3,3.2c-0.7,3.7-2.1,6.4-4.6,8.3
			c-1.3,1.1-2.5,1.7-4.7,2.5l-0.2-0.4c2-1.1,3.1-1.9,4.4-3.3c2.2-2.4,3.1-5.2,3.4-10.3h-6.6c-0.4,0-0.9,0-1.6,0.1l-0.2-1.1
			c1.5,0.3,2,0.3,3.2,0.3h8.2v-6.9c0-1.7,0-2.1-0.2-3.2c2.9,0.3,3.4,0.4,3.4,0.8c0,0.3-0.4,0.4-1.3,0.6v8.7H83.1z M66.4,94.4
			c1.4,1.2,2.6,2.4,3.5,3.3c0.7,0.8,1,1.5,1,2.1c0,1-0.7,2.1-1.2,2.1c-0.3,0-0.4-0.2-0.6-1c-0.6-2.1-1.6-4.1-3.1-6.2L66.4,94.4z
			 M78.1,102.4c1.9-3,3.3-5.8,3.9-7.9c3,1.1,3.2,1.2,3.2,1.5c0,0.3-0.5,0.5-1.5,0.5c-3.6,4.6-3.6,4.6-5.2,6.3L78.1,102.4z"/>
		<path class="st0" d="M73.8,131.3H68c-1,0-1.1,0-2.6,0.1l-0.2-1.1c0.9,0.2,1.6,0.3,2.9,0.3h12.8c0.7-0.8,1-1.1,1.7-1.9
			c1.2,0.9,1.5,1.1,2.7,2.2c0.1,0.1,0.1,0.1,0.1,0.2c0,0.1-0.1,0.2-0.2,0.2h-9.4v2.4h8.7c0.4-0.5,0.6-0.7,1.1-1.1
			c1.1,0.8,1.4,1,2.4,1.8c0.2,0.1,0.2,0.2,0.2,0.3c0,0.3-0.3,0.4-1.8,0.4c-0.3,0.4-0.3,0.4-1.1,1.2c-0.6,0.6-0.6,0.6-1,1l-0.3-0.1
			c0.5-1.5,0.6-1.7,0.8-2.8h-9v3.3c0,0.4,0,1.8,0,4.3c0,0.2-0.1,0.3-0.2,0.3c-0.1,0.1-0.9,0.1-1.4,0.1c-0.2,0-0.3-0.1-0.4-0.3
			c0-1.5,0-1.7,0-2.3v-5.4h-8.1c-0.3,2.4-1.3,4.3-2.3,4.3c-0.4,0-0.9-0.8-0.9-1.5c0-0.3,0.1-0.6,0.5-0.8c1.2-0.8,1.7-1.7,2.3-3.9
			h0.4c0,0.3,0,0.5,0,0.7c0,0.1,0,0.3,0,0.6h8.1V131.3z M73.9,147c-1.5,1.8-2.7,3.1-4,4.3c5.9-0.2,7.6-0.2,11.2-0.5
			c-0.8-0.7-1.5-1.2-3.1-2.4l0.2-0.3c1.8,0.7,4.4,1.9,5.7,2.7c1,0.6,1.3,1.1,1.3,2.1c0,0.8-0.2,1.3-0.6,1.3c-0.2,0-0.3-0.1-0.5-0.4
			c-0.6-0.8-1.9-2.1-2.4-2.5c-1.8,0.4-2.9,0.6-5.2,0.9c-3.6,0.5-4.2,0.6-10.8,1.1c-0.3,0.8-0.4,1.2-0.6,1.2c-0.1,0-0.2-0.1-0.3-0.3
			c-0.1-0.2-0.2-0.6-0.3-1.2c-0.1-0.8-0.2-1.4-0.3-1.7c0.7,0,0.7,0,2,0.1c0.4,0,0.9,0,1.5,0c0.3,0,0.6,0,1.4,0
			c0.9-1.4,1.4-2.5,2.2-4.3h-5.4c-0.9,0-2.2,0.1-3,0.2l-0.2-1.1c1.1,0.2,2.2,0.3,3.3,0.3h17c0.6-0.8,0.8-1,1.5-1.8
			c1.4,1,1.4,1,2.6,1.9c0.1,0.1,0.1,0.2,0.1,0.3c0,0.1-0.2,0.3-0.3,0.3H73.9z M64.9,139.8c0.8,0.1,1.2,0.2,1.9,0.2h2.8
			c0.6-0.6,0.7-0.8,1.3-1.4c0.8,0.6,1,0.8,1.8,1.6c0.1,0.1,0.1,0.2,0.1,0.3s-0.1,0.2-0.3,0.2h-5.8c-0.6,0-1,0-1.7,0.1L64.9,139.8z
			 M65.5,143.1c1.1,0.1,1.8,0.2,3.4,0.2h11.5c0.5-0.6,1-1.1,1.5-1.7c1.1,0.8,1.4,1.1,2.4,2c0.1,0.1,0.1,0.2,0.1,0.2
			c0,0.1-0.1,0.2-0.3,0.2H69c-2.4,0.1-2.4,0.1-3.2,0.1L65.5,143.1z M65.7,136.7c0.5,0.1,1.1,0.1,1.7,0.1h2.3
			c0.5-0.7,0.7-0.8,1.3-1.4c0.8,0.7,1,0.9,1.8,1.6c0.1,0.1,0.1,0.2,0.1,0.3c0,0.1-0.1,0.2-0.2,0.2h-5.1c-0.6,0-0.9,0-1.5,0.1
			L65.7,136.7z M76.7,136.7c1,0.2,1,0.2,1.6,0.2h2.1l1.3-1.5c0.8,0.7,1,1,1.8,1.7c0,0.1,0.1,0.1,0.1,0.1c0,0.1-0.1,0.2-0.3,0.2h-5
			c-0.1,0-0.6,0-1.5,0.1L76.7,136.7z M76.7,139.8c0.5,0.1,1,0.2,1.7,0.2h3c0.6-0.7,0.8-0.9,1.3-1.5c0.9,0.7,1.1,0.9,2,1.7
			c0.1,0.1,0.1,0.2,0.1,0.3s-0.1,0.2-0.2,0.2h-6.2c-0.4,0-0.7,0-1.5,0.1L76.7,139.8z"/>
		<path class="st0" d="M78.1,176.8c0.5-0.4,0.7-0.6,1.2-1c0.6,0.6,0.8,0.8,1.5,1.4c0.1,0.2,0.2,0.3,0.2,0.3c0,0.2,0,0.2-1.3,0.4
			c-1.5,1.4-2.2,2-3.6,2.9c2.6,1.1,4.2,1.5,8.1,1.9v0.3c-0.8,0.2-1,0.4-1.5,1.5c-3.2-0.8-5.6-1.8-7.5-3.1c-1.4,0.8-2.7,1.5-4.4,2.2
			c0.2,0.2,0.3,0.3,0.6,0.5h6.9c0.3-0.2,0.3-0.3,0.6-0.4c0.6,0.3,0.8,0.4,1.4,0.7c0.2,0.2,0.3,0.3,0.3,0.3c0,0.1-0.3,0.4-0.6,0.5
			c0,0.7,0,1,0,1.3c0,0,0,0.6,0,1.7c0,0.3,0,0.6,0,1.1c0,0.1,0,0.1,0,0.1c0,0.2-0.5,0.4-1.3,0.4c-0.2,0-0.3-0.1-0.3-0.3v-0.7h-7.1v1
			c0,0.2-0.1,0.3-0.2,0.4c-0.2,0.1-0.8,0.1-1.1,0.1c-0.3,0-0.3-0.1-0.4-0.3c0-0.8,0.1-3.9,0.1-4.5V184c-1.3,0.5-2,0.7-3.7,1.2
			l-0.2-0.4c3.2-1.2,5.4-2.3,8.1-4.1c-1.3-1-1.8-1.5-2.6-2.4c-1.7,1.6-3,2.5-5.2,3.7l-0.2-0.3c2.9-2.2,4.8-4.4,6.3-7.1
			c-0.4,0.1-0.6,0.1-0.8,0.1c-0.3,0-0.4-0.1-0.4-0.2v-0.6h-6v12.1c0,1.8,0,3.5,0,5c0,0.3-0.2,0.4-1.1,0.4c-0.2,0-0.3,0-0.4,0
			c0,0-0.1,0-0.1,0c-0.3,0-0.4-0.1-0.4-0.3c0,0,0-0.1,0-0.1c0.1-5,0.1-6.2,0.1-9.4c0-10.9,0-14.4-0.1-15.7c1,0.4,1.3,0.6,2.2,1.1H71
			c0.4-0.5,0.6-0.7,1.1-1.1c0.7,0.5,0.9,0.6,1.6,1.1c0.2,0.2,0.3,0.3,0.3,0.3c0,0.1-0.3,0.4-1,0.8c0,0.7,0,1.2,0,1.5
			c0,0.9,0,1.5,0.1,4.7c0,0.2,0,0.3-0.2,0.3c2.3,0.6,2.3,0.6,2.3,0.8c0,0.2-0.4,0.3-1.3,0.4c-0.4,0.6-0.6,0.8-1,1.2H78.1z
			 M71.1,167.4h-6v2.4h6V167.4z M71.1,170.4h-6v2.6h6V170.4z M71.5,184.7v3.4h7.1v-3.4H71.5z M72.2,177.4c-0.2,0.2-0.3,0.3-0.5,0.5
			c1,0.9,1.7,1.4,3.1,2.2c1.3-0.9,1.9-1.5,3.1-2.7H72.2z M78.4,173.7v0.7c0,0,0,0.1,0,0.1c0,0.2-0.2,0.3-1,0.3c-0.2,0-0.3,0-0.4,0
			c0,0-0.1,0-0.1,0c-0.3,0-0.3-0.1-0.4-0.3c0.1-1.5,0.1-4.2,0.1-6.1c0-0.4,0-1.4-0.1-2.9c0.9,0.4,1.1,0.6,2,1.1h6.1
			c0.5-0.5,0.6-0.6,1.2-1.1c0.7,0.4,0.9,0.6,1.5,1.1c0.2,0.2,0.3,0.3,0.3,0.4c0,0.1-0.3,0.4-0.8,0.8v17.1c0,0,0,2,0.1,3.9
			c0,0.7-0.1,1-0.3,1.2c-0.4,0.4-1.3,0.7-2.8,1c-0.1-0.8-0.2-1.2-0.7-1.5c-0.3-0.2-0.3-0.2-2.2-0.5v-0.4c2.6,0.1,2.6,0.1,3.8,0.1
			c0.3,0,0.3,0,0.3-0.3v-14.8H78.4z M84.9,167.4h-6.5v2.4h6.5V167.4z M84.9,170.4h-6.5v2.6h6.5V170.4z"/>
		<path class="st0" d="M64.6,208.6c0.4,0.4,0.7,0.5,1.3,0.5c0.8,0,1.5-0.1,7.8-1.7c1-0.3,2.6-0.6,4.5-1c2-0.4,2.9-0.6,3.8-0.9
			c0.6-0.2,0.8-0.2,1-0.2c0.3,0,1,0.3,1.5,0.6s0.8,0.7,0.8,1.1c0,0.4-0.3,0.7-0.9,0.7c-0.1,0-0.3,0-0.5,0c-0.3-0.1-0.5-0.1-0.8-0.1
			c-4.8,0-9.4,4.6-9.4,9.4c0,2.5,1.3,4.5,3.7,5.5c0.9,0.4,2,0.6,2.8,0.7c0.6,0,0.8,0.1,1.2,0.4c0.5,0.5,0.8,1,0.8,1.3
			c0,0.4-0.4,0.8-1,0.8c-1.6,0-4.1-0.9-5.7-2c-2.1-1.5-3.2-3.7-3.2-6.3c0-2.3,1.1-4.8,3.1-6.8c1.1-1.2,2.2-2,4.6-3.2
			c-3.5,0.4-9.9,2.3-12.5,3.8c-0.6,0.3-0.8,0.4-1.1,0.4c-0.7,0-1.5-0.6-2.2-1.7c-0.4-0.7-0.7-1.4-0.7-1.9c0-0.2,0.1-0.4,0.3-0.8
			C63.9,207.8,64.1,208.2,64.6,208.6z M81.2,211.1c1,0.6,1.8,1.1,2.5,1.7c1,0.9,1.4,1.6,1.4,2.2s-0.4,1.2-0.9,1.2
			c-0.4,0-0.4,0-1.2-1.8c-0.5-1-1.4-2.2-2.2-3L81.2,211.1z M84.1,209.5c1,0.4,1.8,1,2.7,1.6c1.1,0.8,1.4,1.4,1.4,2.2
			c0,0.7-0.3,1.1-0.7,1.1c-0.3,0-0.4-0.1-0.6-0.5c-1-1.8-1.5-2.5-3.1-4L84.1,209.5z"/>
		<path class="st0" d="M6.4,152.8c2.5-1.9,4.3-3.8,6.2-6.7c2.3-3.6,3.9-7.8,4.4-11.5c-1.5,0-2.9,0.1-5.7,0.5c-0.7,0.1-3.5,0.6-4,0.7
			c-0.4,0.1-0.4,0.1-0.6,0.1c-0.4,0-0.9-0.2-1.5-0.6c0,0.9,0.1,1.7,0.2,4.4c0.1,1.6,0.1,2.5,0.1,2.6c0,0.8-0.2,1.2-0.6,1.2
			c-0.8,0-1.8-1.4-1.8-2.5c0-0.2,0-0.2,0.1-0.8c0.1-0.5,0.2-1.3,0.2-1.9c0-1.6-0.3-3-0.7-3.7c-0.4-0.6-0.7-0.9-1.5-1.3
			C1.5,133,1.7,133,2,133c0.8,0,2,0.6,3,1.5c0.4,0,0.6,0,0.8,0c0.8,0,7.5-0.8,9.4-1.1c1-0.2,1.2-0.2,1.8-0.5
			c0.2-0.1,0.4-0.2,0.5-0.2c0.3,0,0.8,0.3,1.4,0.8c0.7,0.6,1.1,1.1,1.1,1.4c0,0.2-0.1,0.3-0.3,0.6c-0.3,0.4-0.4,0.4-0.8,1.8
			c-1.3,3.7-2.2,5.6-3.8,8c-2.4,3.6-5.2,6.2-8.5,7.9L6.4,152.8z"/>
		<path class="st0" d="M10.1,171.6c0-2-0.1-2.6-0.4-3.1c-0.3-0.4-0.8-0.7-1.5-1c0.2-0.3,0.5-0.4,0.9-0.4c0.6,0,1.6,0.3,2.5,0.8
			c0.9,0.5,1.2,0.8,1.2,1.2c0,0.3-0.1,0.4-0.4,0.9c-0.3,0.4-0.3,1.7-0.3,12.3c0,5.9-0.2,6.9-1.1,6.9c-0.3,0-0.4-0.2-0.6-0.6
			c-0.2-0.4-0.3-1.4-0.3-3.5L10.1,171.6z"/>
		<path class="st0" d="M0,216.6c1.8-2.1,3.2-4.1,4.4-6.4c1.2-2.4,2-4.2,2-4.9c0-0.8-0.6-1.3-1.8-1.8c0.3-0.1,0.4-0.2,0.7-0.2
			c0.7,0,1.6,0.3,2.5,0.8c0.8,0.5,1.3,0.9,1.3,1.3c0,0.3,0,0.3-0.6,1.1c-0.1,0.1-0.2,0.4-0.5,0.8c-0.4,0.8-1.2,2.1-1.7,2.8
			c0.4,0.4,1,0.6,1.7,0.6c1.3,0,3.7-0.4,6.2-0.9c2.3-0.6,3.2-0.8,4.2-1.4c0.1-0.1,0.3-0.1,0.5-0.1c0.3,0,1,0.3,1.6,0.6
			c0.7,0.4,0.9,0.6,0.9,1c0,0.3-0.2,0.4-0.5,0.5c-0.2,0.1-0.3,0.1-1.5,0.2c-0.2,0-2.5,0.3-3.4,0.5c-2.2,0.3-2.2,0.3-2.9,0.4
			c1.2,0.7,1.7,1.3,1.7,1.8c0,0.4-0.3,1.6-0.8,2.7c-1.8,4.8-4.7,8.5-8.7,10.9l-0.3-0.3c2.1-1.8,3.8-4.2,5.3-7
			c1.5-2.7,2.2-5.2,2.2-6.8c0-0.5-0.2-0.8-0.8-1.3c-0.2,0-0.4,0.1-0.5,0.1c-1.3,0.1-2,0.2-2.9,0.2c-1.2,0-1.6-0.1-2.6-1
			c-2,2.9-3.8,4.8-5.8,6.1L0,216.6z"/>
		<path class="st0" d="M10.1,244.4c0-2-0.1-2.6-0.4-3.1c-0.3-0.4-0.8-0.7-1.5-1c0.2-0.3,0.5-0.4,0.9-0.4c0.6,0,1.6,0.3,2.5,0.8
			c0.9,0.5,1.2,0.8,1.2,1.2c0,0.3-0.1,0.4-0.4,0.9c-0.3,0.4-0.3,1.7-0.3,12.3c0,5.9-0.2,6.9-1.1,6.9c-0.3,0-0.4-0.2-0.6-0.6
			c-0.2-0.4-0.3-1.4-0.3-3.5L10.1,244.4z"/>
		<path class="st0" d="M0.5,283.5c2.3,0.4,4,1,4.9,1.7c0.8,0.5,1.1,1,1.1,1.8c0,0.7-0.4,1.3-0.8,1.3c-0.3,0-0.4-0.1-0.9-0.6
			c-1.4-1.8-2.7-2.8-4.5-3.8L0.5,283.5z M22.2,282.9c-1.5,2.2-2.9,3.8-5.9,6.6c-2.3,2.2-5.4,4.3-9.7,6.9c-0.8,0.4-1,0.6-1.3,1
			c-0.2,0.2-0.4,0.3-0.6,0.3c-0.6,0-1.2-0.5-2-1.7c-0.5-0.8-0.9-1.7-0.9-2.2c0-0.3,0.1-0.4,0.2-0.7c0.6,1.2,1.3,1.8,2.1,1.8
			c0.8,0,2.8-1,5.5-2.5c4.3-2.5,9.1-6.3,12.3-9.7L22.2,282.9z M3.6,278.5c4.5,1.1,5.9,1.9,5.9,3.6c0,0.8-0.3,1.4-0.8,1.4
			c-0.3,0-0.3,0-1.5-1.5c-1.1-1.3-2.4-2.3-3.8-3.1L3.6,278.5z"/>
		<path class="st0" d="M10.6,317.5c1.2,0,3.6-0.2,6.7-0.5c1.2-0.1,1.2-0.1,1.6-0.4c0.1-0.1,0.3-0.1,0.4-0.1c0.3,0,0.8,0.3,1.4,1
			c0.4,0.4,0.6,0.8,0.6,1.1c0,0.1,0,0.2-0.1,0.4c-0.3,0.3-0.3,0.4-0.3,0.9c-0.1,0.7-0.1,0.7-0.3,2.1c-0.2,1-0.4,3-0.9,5.9
			c0.7,0.4,1.1,0.8,1.1,1.2c0,0.3-0.2,0.5-0.5,0.5c-0.1,0-0.3,0-0.6,0c-0.4-0.1-0.9-0.1-1.7-0.1c-2.6,0-5.8,0.4-7.1,0.9
			c-0.4,0.1-0.4,0.1-0.6,0.1c-0.6,0-1.3-0.6-2-1.5c-0.3-0.4-0.4-0.8-0.4-1.1c0-0.1,0-0.2,0.1-0.4c0.8,1,1.4,1.3,2.2,1.3
			c0.3,0,0.3,0,1.4-0.1c1.2-0.2,4-0.4,6.4-0.7c0.1-0.8,0.3-2.5,0.6-4.7c-2.8,0.2-6.4,0.7-7.5,1.1c-0.1,0.1-0.4,0.1-0.6,0.1
			c-0.6,0-1.9-1.5-1.9-2.3c0-0.1,0-0.2,0.1-0.4c0.5,0.8,1,1.1,1.8,1.1c0.5,0,1.2-0.1,2.5-0.2c2.5-0.3,2.7-0.3,5.6-0.5
			c0.1-1.2,0.3-3.4,0.3-4c-4.1,0.3-7.1,0.7-8,1c-0.4,0.1-0.4,0.1-0.6,0.1c-0.4,0-0.8-0.2-1.2-0.7c-0.5-0.6-0.8-1.2-0.8-1.7
			c0-0.1,0-0.3,0.1-0.6C9,317.3,9.4,317.5,10.6,317.5z"/>
		<path class="st0" d="M2,352.2c2.7,0.7,4.3,1.3,5.4,2.1c0.6,0.4,1,1.1,1,1.9c0,0.9-0.3,1.6-0.8,1.6c-0.3,0-0.4-0.1-1.2-1.1
			c-1.4-1.8-2.4-2.7-4.6-4.1L2,352.2z M22,353.8c-1.4,2.6-3.1,4.8-5.9,7.5c-2.6,2.5-4.3,3.9-7.9,6.4c-1.3,0.9-1.5,1-1.7,1.3
			c-0.4,0.5-0.6,0.7-1,0.7c-1.1,0-3.3-2.7-3.3-4.1c0-0.2,0-0.3,0.1-0.6c0.6,0.8,0.6,0.9,1,1.2c0.4,0.4,0.8,0.6,1.1,0.6
			c0.5,0,1.3-0.4,2.7-1.2c3.1-1.8,4.2-2.6,6.7-4.6c3.4-2.8,5.1-4.5,7.5-7.5L22,353.8z"/>
	</g>
</g>
<line class="st1" x1="75" y1="0" x2="75" y2="60"/>
</svg>
