<?xml version="1.0" encoding="utf-8"?>
<!-- Generator: Adobe Illustrator 25.2.3, SVG Export Plug-In . SVG Version: 6.00 Build 0)  -->
<svg version="1.1" id="レイヤー_1" xmlns="http://www.w3.org/2000/svg" xmlns:xlink="http://www.w3.org/1999/xlink" x="0px"
	 y="0px" viewBox="0 0 110 110" style="enable-background:new 0 0 110 110;" xml:space="preserve">
<style type="text/css">
	.st0{fill:none;}
	.st1{fill:#A7912D;}
	.st2{opacity:0.6;clip-path:url(#SVGID_1_);fill:url(#SVGID_2_);}
	.st3{fill:#FFFFFF;}
</style>
<pattern  x="-629.3" y="-327.5" width="1024.1" height="726.9" patternUnits="userSpaceOnUse" id="新規パターンスウォッチ_15" viewBox="1 -727.9 1024.1 726.9" style="overflow:visible;">
	<g>
		<rect x="1" y="-727.9" class="st0" width="1024.1" height="726.9"/>
		
			<image style="overflow:visible;" width="2950" height="2094" id="SB005_2_" xlink:href="8A3F3740AB26B102.png"  transform="matrix(0.3471 0 0 0.3471 1 -727.9108)">
		</image>
	</g>
</pattern>
<g>
	<g>
		<g>
			<circle class="st1" cx="55" cy="55" r="55"/>
		</g>
		<g>
			<defs>
				<circle id="SVGID_4_" cx="55" cy="55" r="55"/>
			</defs>
			<clipPath id="SVGID_1_">
				<use xlink:href="#SVGID_4_"  style="overflow:visible;"/>
			</clipPath>
			
				<pattern  id="SVGID_2_" xlink:href="#譁ｰ隕上ヱ繧ｿ繝ｼ繝ｳ繧ｹ繧ｦ繧ｩ繝メ_15" patternTransform="matrix(6.456025e-02 0 0 0.1193 -7320.521 -9619.917)">
			</pattern>
			<rect x="-10.7" y="-8.3" class="st2" width="129.1" height="129.2"/>
		</g>
	</g>
	<g>
		<g>
			<path class="st3" d="M48.1,38.8h2.1c0.6-0.6,0.8-0.8,1.4-1.4c0.9,0.7,1.2,0.9,2,1.6c0.1,0.1,0.1,0.1,0.1,0.1
				c0,0.1-0.1,0.2-0.1,0.2h-5.5V41c0,1.5,0,1.5,0,2.1c-0.1,0.9-0.5,1.2-2.4,1.5c-0.2-0.6-0.4-0.8-0.8-1c-0.2-0.1-0.4-0.1-1.2-0.3
				c-0.6-0.1-0.6-0.1-1-0.2v-0.3l1.3,0.1c0.9,0,1.5,0.1,1.8,0.1c0.1,0,0.4,0,0.7,0c0.1,0,0.2-0.1,0.2-0.3v-3.5h-9.9
				c-0.5,0-1.1,0-2.5,0.1l-0.1-0.7c1,0.1,1.8,0.1,2.7,0.1h9.9v-2.1h-8.2v0.7c0,0.2-0.1,0.3-0.7,0.3c-0.2,0-0.3,0-0.3,0
				c0,0-0.1,0-0.1,0c-0.2,0-0.3-0.1-0.4-0.2c0.1-1.2,0.1-2.2,0.1-4.4c0-1.7,0-2.4-0.1-3.7c0.7,0.3,0.9,0.5,1.7,0.9h4.2v-2h-5.4
				c-0.9,0-2,0-2.7,0.1l-0.2-0.8c0.9,0.1,1.7,0.2,3,0.2h5.3v-0.7c0-0.4,0-1.2-0.1-1.8c2.3,0.3,2.4,0.3,2.4,0.6
				c0,0.2-0.1,0.2-0.9,0.5v1.3h5.6c0.5-0.6,0.7-0.8,1.2-1.3c0.9,0.6,1.2,0.8,2,1.5c0.1,0.1,0.1,0.1,0.1,0.2c0,0.1-0.1,0.2-0.1,0.2
				h-8.9v2h4.5c0.4-0.4,0.5-0.5,0.9-0.9c0.6,0.4,0.8,0.6,1.3,1.1c0.1,0.1,0.1,0.1,0.1,0.2c0,0.1-0.1,0.2-0.7,0.6c0,2.4,0,5.3,0,5.9
				c-0.1,0.3-0.3,0.4-1.1,0.4c-0.3,0-0.4,0-0.4-0.2v-0.7h-0.8V38.8z M38.7,39.7c1.6,0.9,1.8,1,2.4,1.4c0.8,0.6,0.9,0.8,0.9,1.2
				c0,0.5-0.4,1.3-0.7,1.3c-0.2,0-0.2-0.1-0.5-0.6c-0.5-1.1-1.2-2.1-2.3-3.2L38.7,39.7z M42.8,30.8h-4.3v2.3h4.3V30.8z M42.8,33.6
				h-4.3v2.6h4.3V33.6z M48.9,30.8h-4.7v2.3h4.7V30.8z M48.9,33.6h-4.7v2.6h4.7V33.6z"/>
			<path class="st3" d="M61.3,36.6c-0.2,1.6-0.7,3-1.3,4.3c-0.8,1.6-1.6,2.6-3,3.7l-0.2-0.2c1.4-1.7,2.2-3.4,2.7-5.6
				c0.4-1.6,0.5-2.6,0.5-5.6c0-1,0.1-3.9,0.1-4.7c0-1.1,0-1.7-0.1-2.7c0.8,0.4,1,0.6,1.7,1.1h11.2c0.4-0.4,0.5-0.6,0.9-1
				c0.6,0.4,0.8,0.5,1.3,1c0.2,0.1,0.3,0.2,0.3,0.3c0,0.1-0.1,0.2-0.8,0.6v9.8c0,1.8,0,2.6,0,5.3c-0.1,0.5-0.2,0.7-0.7,1
				c-0.4,0.2-0.9,0.4-1.8,0.5c-0.3-1.2-0.5-1.3-2.8-1.6v-0.3c0.8,0,0.8,0,2,0.1c0.8,0,0.8,0,1.4,0.1c0,0,0.1,0,0.1,0
				c0,0,0.1,0,0.1,0c0.2,0,0.3-0.1,0.3-0.3v-5.8h-5.2v1.9c0,1.4,0,1.4,0,2.5c0,1,0,1,0,1.8c0,0.3-0.2,0.4-0.8,0.4
				c-0.1,0-0.2,0-0.2,0c0,0,0,0-0.1,0c-0.3,0-0.4-0.1-0.4-0.3c0-1.3,0-3.6,0-4.4v-1.9H61.3z M66.4,31.8h-4.9c0,2,0,3.1-0.1,4.3h5.1
				V31.8z M66.4,27.5h-4.9c0,0.4,0,0.8,0,1c0,0.2,0,0.7,0,1.3c0,0.4,0,0.9,0,1.6h4.9V27.5z M73,31.4v-3.9h-5.2v3.9H73z M73,36.2
				v-4.3h-5.2v4.3H73z"/>
			<path class="st3" d="M15.9,64.3c1.2-1.1,2-2.3,2.8-4c0.8-1.7,1.4-4.2,1.4-5.7c0-0.8-0.4-1.2-1.4-1.6c0.2-0.1,0.3-0.2,0.6-0.2
				c0.5,0,1,0.2,1.6,0.5c0.8,0.5,1.1,0.8,1.1,1.2c0,0.2,0,0.3-0.3,1c0,0.1,0,0.1-0.2,0.7c-0.7,2.2-0.9,2.7-1.4,3.9
				c-1,2-2.2,3.3-4,4.5L15.9,64.3z M33.8,55.9c-0.7,1.1-1.2,1.8-2.3,3c-1.2,1.3-3.1,3-4.5,3.8c-0.4,0.3-1,0.8-1.2,0.9
				c-0.2,0.2-0.3,0.2-0.4,0.2c-0.5,0-1.3-1.1-1.3-1.7c0,0,0-0.3,0.1-0.7c0.1-0.5,0.2-2.4,0.2-5.7c0-4.8-0.1-5-1.6-5.4
				c0.2-0.3,0.4-0.3,0.7-0.3c0.5,0,1.2,0.2,1.8,0.7c0.6,0.4,0.9,0.7,0.9,1c0,0.1,0,0.2-0.2,0.6c-0.1,0.3-0.2,1-0.3,2.1
				c-0.1,0.9-0.3,5.5-0.3,6.3c0,0.3,0,0.5,0,1c2.4-0.9,5.5-3.3,7.9-5.9L33.8,55.9z"/>
			<path class="st3" d="M38.9,56c0.5,0.4,0.9,0.5,2,0.5c0.2,0,0.2,0,2.6-0.1c0.8,0,7.5-0.1,8.2-0.1c1.9,0,2.4,0,2.7,0.2
				c0.2,0.1,0.3,0.2,0.3,0.4c0,0.3-0.2,0.5-0.5,0.6c-0.6,0.2-1.1,0.2-5,0.3c-2,0-6.8,0.1-7.5,0.2c-1,0.1-1.2,0.1-1.5,0.3
				c-0.1,0-0.2,0.1-0.3,0.1c-0.3,0-0.7-0.2-1-0.7c-0.4-0.5-0.8-1.4-0.8-1.9c0-0.3,0-0.3,0.2-0.5C38.5,55.7,38.6,55.8,38.9,56z"/>
			<path class="st3" d="M58.9,65.7c2-1.3,2.7-1.8,3.9-2.9c1.5-1.4,2.5-2.5,3.5-3.8c-0.3-0.1-0.5-0.2-0.9-0.8
				c-0.9-1.3-1.6-2.1-2.9-3.1c-1.5,1.5-2.6,2.4-3.9,3.1l-0.2-0.3c1.5-1.3,2.8-2.6,4.1-4.3c1.3-1.8,2.1-3.1,2.1-3.7
				c0-0.5-0.4-0.8-1.3-1.3c0.2-0.1,0.3-0.1,0.5-0.1c0.4,0,1.2,0.3,1.9,0.6c0.6,0.3,0.9,0.6,0.9,0.9c0,0.3-0.2,0.6-1,1.6
				c0.3,0.1,0.4,0.1,0.6,0.1c0.5,0,1.2-0.1,2.8-0.5c1.1-0.2,1.3-0.3,1.7-0.6c0.1-0.1,0.2-0.1,0.3-0.1c0.3,0,0.6,0.2,1.2,0.7
				c0.4,0.3,0.6,0.7,0.6,0.9c0,0.1-0.1,0.3-0.3,0.4c-0.3,0.2-0.3,0.3-0.7,1c-2.2,4-4.4,6.9-7.1,9.2c-1.8,1.5-3.6,2.6-5.4,3.4
				L58.9,65.7z M69,52c-1.7,0.4-1.7,0.4-1.9,0.5c-0.4,0.1-0.5,0.1-0.7,0.1c-0.4,0-0.7-0.2-1.3-0.6c-0.8,1.1-1.3,1.7-2.2,2.6
				c1.6,0.7,1.6,0.7,2,0.9c0.9,0.5,1.4,1,1.8,1.6c0.2,0.3,0.2,0.5,0.3,0.9c1.5-2,2.9-4.5,3.6-6.6C70.1,51.7,69.7,51.8,69,52z"/>
			<path class="st3" d="M78.8,56c0.5,0.4,0.9,0.5,2,0.5c0.2,0,0.2,0,2.6-0.1c0.8,0,7.5-0.1,8.2-0.1c1.9,0,2.4,0,2.7,0.2
				c0.2,0.1,0.3,0.2,0.3,0.4c0,0.3-0.2,0.5-0.5,0.6c-0.6,0.2-1.1,0.2-5,0.3c-2,0-6.8,0.1-7.5,0.2c-1,0.1-1.2,0.1-1.5,0.3
				c-0.1,0-0.2,0.1-0.3,0.1c-0.3,0-0.7-0.2-1-0.7c-0.4-0.5-0.8-1.4-0.8-1.9c0-0.3,0-0.3,0.2-0.5C78.4,55.7,78.5,55.8,78.8,56z"/>
			<path class="st3" d="M46.6,86.3c0,0.1,0.1,0.3,0.2,0.3c0.2,0.1,0.8,0.1,1.5,0.1c0.1,0,0.4,0,0.6,0c0.7,0,1.1,0,1.3,0
				c0.7,0,0.9-0.1,1-0.4c0.2-0.6,0.8-3,0.9-4l0.3,0v3.7c0,0.2,0,0.4,0.1,0.5c0,0.1,0,0.1,0.4,0.1c0.3,0,0.4,0.3,0.4,0.5
				c0,0.6-0.8,0.8-3.4,0.8c-0.2,0-0.5,0-0.8,0c-0.8,0-1.4,0-1.8,0c-0.1,0-0.2,0-0.3,0c-0.9,0-1.4-0.1-1.7-0.4
				c-0.3-0.3-0.3-0.5-0.3-2.1v-5.8h-2.9c0,1.1-0.1,1.5-0.2,2.1c-0.5,2.2-1.8,4.1-3.7,5.3c-1,0.6-2,0.9-3.9,1.4l-0.1-0.3
				c2-0.7,2.8-1.2,3.8-2.1c1.4-1.3,2.2-2.9,2.5-4.9c0-0.4,0.1-0.6,0.1-1.4h-3.8c-0.7,0-1.5,0.1-2,0.2l-0.2-0.9
				c1,0.1,1.8,0.2,2.2,0.2h12.7c0.5-0.6,0.7-0.8,1.3-1.4c0.8,0.7,1.1,0.9,2,1.7c0.1,0,0.1,0.1,0.1,0.1c0,0,0,0.1-0.1,0.1h-6.2V86.3z
				 M42.9,72.4v-1.3c0-0.9,0-1-0.1-1.5C44,69.8,45,70,45.2,70c0.1,0,0.1,0.1,0.1,0.1c0,0.1,0,0.1-0.9,0.5v1.8h6.2
				c0.3-0.4,0.4-0.5,0.8-1c0.9,0.5,1.1,0.7,1.9,1.2c0.1,0.1,0.2,0.2,0.2,0.3c0,0.1-0.1,0.1-0.1,0.2c-0.1,0.1-0.3,0.1-0.6,0.2
				c-0.1,0-0.3,0.1-0.6,0.1c-1.2,1.2-1.2,1.2-2,1.8l-0.3-0.1c0.4-0.9,0.5-1.3,0.8-2.1H37.1c-0.1,0.9-0.3,1.6-0.7,2.4
				c-0.3,0.5-0.7,0.9-1,0.9c-0.3,0-0.8-0.8-0.8-1.3c0-0.3,0.1-0.4,0.5-0.7c0.8-0.5,1.4-1.6,1.7-3.3h0.3c0,0.4,0,0.5,0,0.8
				c0,0.3,0,0.4,0,0.7H42.9z M37.7,75.7c0.9,0.1,1.4,0.2,1.7,0.2H47l1-1.4c0.8,0.6,1,0.8,1.8,1.5C50,76,50,76.1,50,76.2
				c0,0.1-0.1,0.1-0.2,0.1H39.4c-1.2,0.1-1.2,0.1-1.5,0.1L37.7,75.7z"/>
			<path class="st3" d="M56.9,79.9c1.2-1.8,2.1-3.4,2.9-5.4c0.8-2,1.2-3.6,1.3-4.9c2.1,0.5,2.2,0.6,2.2,0.8c0,0.2-0.2,0.3-0.8,0.3
				c-1,2.6-1.5,3.9-2.5,5.5c1,0.1,1.3,0.2,1.3,0.4c0,0.1-0.1,0.3-0.5,0.4v4.2l0,6.9c0,0,0,0.1,0,0.1c0,0.3-0.3,0.4-1,0.4
				c-0.4,0-0.4,0-0.4-0.3c0.1-1.6,0.1-2.2,0.1-3.8v-7.3c-0.8,1.3-1.2,1.8-2.3,3L56.9,79.9z M61.1,87.9c1.4-3.1,1.8-5.3,1.8-10.5
				c0-2,0-2.1-0.1-3.1c0.8,0.3,1,0.5,1.7,0.9h9.3c0.5-0.6,0.7-0.8,1.2-1.3c0.8,0.7,1,0.9,1.6,1.5c0.1,0.1,0.1,0.1,0.1,0.2
				c0,0.1-0.1,0.1-0.2,0.1H64.3c0,3.6-0.1,5.1-0.5,7.1c-0.4,2-1.1,3.5-2.4,5.3L61.1,87.9z M70.5,72.2c0-0.3,0-0.3,0-1.2
				c0-0.4,0-0.7,0-1.2c1.8,0.2,2.1,0.3,2.1,0.5c0,0.2-0.3,0.3-0.8,0.4c0,0.8,0,0.9,0,1.5h1.7l1-1.3c0.8,0.6,1,0.8,1.7,1.5
				c0.1,0.1,0.1,0.1,0.1,0.2c0,0.1-0.1,0.1-0.3,0.1h-4.2c0,0.9,0,0.9,0,1.7c0,0,0,0.1,0,0.1c0,0.2-0.3,0.3-1,0.3
				c-0.3,0-0.4-0.1-0.4-0.3c0-1,0-1.2,0-1.8h-2.8c0,0.9,0,1.4,0,1.7c0,0,0,0.1,0,0.1c0,0.2-0.3,0.3-1,0.3c-0.3,0-0.4-0.1-0.4-0.2
				c0,0,0,0,0,0c0-1,0-1.2,0-1.8h-1.8c-0.8,0-1.1,0-1.6,0.1L62.7,72c0.6,0.1,1.3,0.2,1.8,0.2h1.8c0-1.3,0-1.7-0.1-2.4
				c1.5,0.3,1.8,0.3,1.9,0.4c0.2,0.1,0.3,0.1,0.3,0.2c0,0.2-0.2,0.3-0.8,0.4c0,0.8,0,0.8,0,1.4H70.5z M70.7,83.8
				c0.1,3.7,0.1,3.7,0.1,4c0,0.1,0,0.2-0.1,0.2c-0.1,0.1-0.5,0.1-0.9,0.1c-0.3,0-0.4-0.1-0.4-0.3c0-0.6,0-1.9,0-4.1h-2.8V88
				c0,0.3-0.2,0.4-1,0.4c-0.3,0-0.4-0.1-0.4-0.3c0-0.7,0-0.7,0.1-3.3c0-0.2,0-0.4,0-0.8c0-5.2,0-6.2-0.1-7.3
				c0.7,0.3,0.9,0.4,1.6,0.8h6.7c0.3-0.3,0.4-0.4,0.7-0.8c0.6,0.4,0.8,0.5,1.3,0.9c0.1,0.1,0.2,0.2,0.2,0.3c0,0.1-0.1,0.2-0.6,0.5
				v4.9c0,3,0,3,0.1,3.8c0,0.4,0,0.6-0.2,0.8c-0.3,0.3-0.6,0.4-1.7,0.6c-0.1-0.6-0.2-0.7-0.5-0.9c-0.3-0.1-0.7-0.3-1.3-0.4l0-0.3
				c1.5,0.1,1.5,0.1,2.1,0.1c0.2,0,0.2,0,0.2-0.3v-3H70.7z M69.4,78h-2.8v2.4h2.8V78z M69.4,80.8h-2.8v2.5h2.8V80.8z M73.6,80.4V78
				h-2.9v2.4H73.6z M70.7,83.3h2.9v-2.5h-2.9V83.3z"/>
		</g>
	</g>
</g>
</svg>
