<svg version="1.1" baseProfile="tiny" id="レイヤー_1" xmlns="http://www.w3.org/2000/svg" x="0" y="0" width="62.881" height="275.112" viewBox="0 0 62.881 275.112" xml:space="preserve"><metadata><?xpacket begin="﻿" id="W5M0MpCehiHzreSzNTczkc9d"?><x:xmpmeta xmlns:x="adobe:ns:meta/" x:xmptk="Adobe XMP Core 5.3-c011 66.145661, 2012/02/06-14:56:27"><rdf:RDF xmlns:rdf="http://www.w3.org/1999/02/22-rdf-syntax-ns#"><rdf:Description xmlns:dc="http://purl.org/dc/elements/1.1/"><dc:format>image/svg+xml</dc:format><dc:title><rdf:Alt><rdf:li xml:lang="x-default">Web</rdf:li></rdf:Alt></dc:title></rdf:Description><rdf:Description xmlns:xmp="http://ns.adobe.com/xap/1.0/" xmlns:xmpGImg="http://ns.adobe.com/xap/1.0/g/img/"><xmp:CreatorTool>Adobe Illustrator CS6 (Windows)</xmp:CreatorTool><xmp:CreateDate>2017-07-11T11:00:55+09:00</xmp:CreateDate><xmp:ModifyDate>2017-07-11T11:00:55+09:00</xmp:ModifyDate><xmp:MetadataDate>2017-07-11T11:00:55+09:00</xmp:MetadataDate><xmp:Thumbnails><rdf:Alt><rdf:li rdf:parseType="Resource"><xmpGImg:width>60</xmpGImg:width><xmpGImg:height>256</xmpGImg:height><xmpGImg:format>JPEG</xmpGImg:format><xmpGImg:image>/9j/4AAQSkZJRgABAgEASABIAAD/7QAsUGhvdG9zaG9wIDMuMAA4QklNA+0AAAAAABAASAAAAAEA AQBIAAAAAQAB/+4ADkFkb2JlAGTAAAAAAf/bAIQABgQEBAUEBgUFBgkGBQYJCwgGBggLDAoKCwoK DBAMDAwMDAwQDA4PEA8ODBMTFBQTExwbGxscHx8fHx8fHx8fHwEHBwcNDA0YEBAYGhURFRofHx8f Hx8fHx8fHx8fHx8fHx8fHx8fHx8fHx8fHx8fHx8fHx8fHx8fHx8fHx8fHx8f/8AAEQgBAAA8AwER AAIRAQMRAf/EAaIAAAAHAQEBAQEAAAAAAAAAAAQFAwIGAQAHCAkKCwEAAgIDAQEBAQEAAAAAAAAA AQACAwQFBgcICQoLEAACAQMDAgQCBgcDBAIGAnMBAgMRBAAFIRIxQVEGE2EicYEUMpGhBxWxQiPB UtHhMxZi8CRygvElQzRTkqKyY3PCNUQnk6OzNhdUZHTD0uIIJoMJChgZhJRFRqS0VtNVKBry4/PE 1OT0ZXWFlaW1xdXl9WZ2hpamtsbW5vY3R1dnd4eXp7fH1+f3OEhYaHiImKi4yNjo+Ck5SVlpeYmZ qbnJ2en5KjpKWmp6ipqqusra6voRAAICAQIDBQUEBQYECAMDbQEAAhEDBCESMUEFURNhIgZxgZEy obHwFMHR4SNCFVJicvEzJDRDghaSUyWiY7LCB3PSNeJEgxdUkwgJChgZJjZFGidkdFU38qOzwygp 0+PzhJSktMTU5PRldYWVpbXF1eX1RlZmdoaWprbG1ub2R1dnd4eXp7fH1+f3OEhYaHiImKi4yNjo +DlJWWl5iZmpucnZ6fkqOkpaanqKmqq6ytrq+v/aAAwDAQACEQMRAD8A9RX97b2Njc31w3C3tYnm mY9kjUsx+4YCaSBbzv8A5x5lJ/LS0gljEd7FLJJd0FCxu6XkLnxrb3EdPbbKdP8AS3an63peXtDs VWzSGOJ5FRpSilhGlOTECvFeRUVPucVYh5s8y6hH5U1mWXy5qEcKWFy8jyyaeEVRCxJel0zAAdfh J9srnI0dm2ERY3+9Ivyx1vULT8rNETRfLV3evFYKIzHJYQQy3KgiSpa5DrWYMGZk5dyK5DFI8AoM 8sQZmz97NP0xr/8Ahf8ASX6Am/TfpV/QXr23P1q8eP1j1PR4V+Llyrx/Z5fDltmrrdq4RdXsx38x 7i414x+QdJZjd6sFOt3KdLPTOX71mPT1JwPTjXvuegyGQ36QzxCvUen3qHm25m8hapbeZ7K0aXyu 1vFp/mC1gUs9vHBUW14i7lhGrGOT/Jp4YJngN9OqYDjFdejNdF13Rtc0+PUdIvIr6ylFUnhYMOla Gm6sO6ncd8tjIEWGmUSDRR2FDsVef/mRdXHmNh+X+iuWutR4f4gu491sdPJ5P6hGwlnUcI0O5FT0 3ynIeL0huxDh9R+Clc67a/lz5hFnqK/VvJWtSBtPvv8AdVhelaSwS9eMU3H1Vc9GLV23CZcB3+kp EeMbfUGf/XrL6n9d+sRfU+Hq/Wea+l6dK8+dePGneuW200o6Zo+m6XE8VjAIhK5lnclnklkbq8sj lnkb/KYk4gAKZEot0SRGjkUOjgq6MKgg7EEHChA6LoOi6HZCx0eyhsLMO0gggUIvJ2LMaD3P8OmC MQOSZSJ5o/ChTuIVngkhZnRZVKF42KOAwpVXUhlPgRioQ2k6LpWkWpttNtktomYyScalpJG+1JI7 VZ3buzEk4BEDkkyJ5r9U0rTdW0+fTtSto7uxuV4T28qhkYe4Ph1B7YkAiioJBsJT/gDyd/hb/Cv6 Kg/QPDh9S47V/n5V5+pXf1K8q71rkfDjVVsy8SV3e6B1/wA/JpfnfSPLMccDfXLeW81G6uLgW621 ujKkbCqtzZ25ALt069cEslSATHHcSUm8lfmjpz+T7zXvNOs2kfo3d2vFeKskEM7RRgRoWdywUEUG 9cjDKOGyWc8R4qAeg2N9Z39nDe2U6XNpcIJIJ4mDo6MKhlYbEZaDbSRSthQ7FXnNr+Yz2OneZb3W dSsomstbm0zTIbomFPTSREQMYUlkavM/FwNKVO1TlIyUDfe3nFZFdyKm/MLW2k81wWumWZfyzaRX LXH115I5TPbPcoAq26nZVH7QrXY4fEO+3JHhjbfmjf8AGGrf8qp/xj9Vg/SP6G/S31Xm/o1+r/WO Nac/s9vHav7WHjPBxeSOAcfD5rrDT9W0jV9Uv/0Y2qX+qOjz38c0MaiOMFYbZEkYMqQqev7TFm2r QIBBJpBIIAthv5Yar5wg/L6RdC0NLy7/AEjfGNrm5jih3vZDIGoWeoFQNuvtlWIy4dg25RHi3L1u 2eeS2ieeL0J3RWlhDB+DkVZeQpyodq5khxiqYqpXdpb3ltJbXKCSCUcZENaEH5YCLSDTxby/5q8q +UrvzBp8EMMWvHzOyR2kVszTJp8s8AlkpGhKxrb+oy9sxozEbHW3KlAyo9OFG29wW/Lv8xvO0lUT zGt7LprOKM1nBbG0s2YNv8fHkB4EUwj6ZS72J+qMe5mn6Mm/5VN+jOP779A/VuFD9r6nwpxpXr2p lteivJqv135pitl51UU/S+nuKmhfTpuVCdq8b1Rt8sNS7/x80XHu+39iS+XfJHmjy/ocuj6dr1qs UklxMty+nu0ySXUjSsy/6Xw+Fn+Hkh965GMCBQLKWQE2QyLy1pmr6ZpENlq2qHWLuGo+vvEsLun7 PNVZgWH83f575OIIG5thIgnYUmmSYuxVj3mLy1eeYJfqN9dCHy6aG6sYAwmvPGOeWo4Q9mRBVx1Y CqmEo37mcZcPvSbzn+XmteYbePR4Nfaz8sTlF1LS/q0BJgikR0htpIlhaJaJx+LltkZ4ydr2ZwyC O9bs54rx40HGlOPanhlrS3iqlDdWsxIhmSUjchGDU+442tKuKuxV2KpP5p816X5Y05NS1UTLYNNH BLcRRmURGU8UaQL8XEtRagHcjIzmIiyyhAyNBOMkxdirzS5nsvMGo+ZdZ80zFfJ/leeSzh0piRBN JbxLJcXF1GP76pfhFG3w9+JJByg7kk8g3jYAD6is0TyPY3n5bw3tzZR6Rr0kd1qdne2yrBc2TXUs t1AiyIFYLEkioU+zQUIxjC49xWWSpd4ZX+XHmO68yeRtF1u7ULd3tsrXFBxBkUlHYDsGZSRlmOXF EFryx4ZEMjybB2KvLPNHlu58xedLbynF5g1L9EWy/pjV7dGtybdhIDZRx3DQtOC8waQB3airt+zx x5RuVXs5EJcMeKhfJHXlt5m0gfoP8vq3E+j+nNfpq9y0sM31kl+AkkEtwZSFrs6Ite/TJEEbR6IB B3l17mf+rc/UvW9D/SvT5/VeY/vONfT59Ou1ctaWEa7+Va6v5oa9l1N4/LV5NDe6v5eWMend3tso SOR5K/YKqnNONGKD6KpYrPl3NsctDlv3ozzhYebvMkFx5esIho+k3QMOo6zNJG8727bOlnDEz0Mi 7c5SvEfsnJTEpbcgiBjHc7lk2j6TY6PpVppVhH6VlYwpBbx9aJGoUVPc7bnvkwKFBrkbNlF4UOxV hV95cn8s2GtajoAuZ9S1vUBealdIiXV1HExCkW8TlVcQpsiGtKk0b7OVGPDZHVtEuKgejEfLlt+a kHmbV/MWnLcX+mXEllBPZ65bwWV9dQxBhLJB6IgjjMIk+Hmnx7+AyuInZI+1tkYUAfsex5kuKp/W Lc3BtvVT6wEEhh5DmEJIDcetKilcbWmxNCZWhEimZAGaMEcgp6EjrQ0xVfirsVdirTMqqWYgKBUk 7AAYq3irsVeA3k9/fa3rvmSZtRtdRtrmWx8xQWcELmz0uC0eSOK0vOExSerKZGR0BZj2VWzENkk/ P3OYKAA+XvVNK+uQ65b6np+p6tNql/a2l9rs7WtvPKmkTwSi1jilaCV0mi9JRJWgkNX69Ec7F/sU 8qIH7Xqf5aSWc3krTbuxuNQuLK7j9e2bVnWS7VHOysy9RtVdzt3pl+L6XHy/UWT5Y1uxVjP5najF p35d+ZLuUgBdOuUSvQvJE0cY+l2AyGU1EtmIXIe9Q/KdRF+XmiWbQLa3GnwfUby3VQvG4tWMM3ID 9ppELk96174MX0hc31FluWNb551LUtLhn/MUS3el+rdapNBHbz2y3V8Ulto0M0FLiJykdeR4RuRQ kAn4cwyR6uXNzQD6efJkWh61oOh6pqNzdahE2mp5W0aCPUEDmF/huVVgQKhW4/tU+/JxkAf80MJR JH+cWc/lOrL+WflcMCp/RtsaHbrGCMtxfSGnN9Z97K8sa3Yq8+81KfO3mG28q2n73QNKuY7vzTdD eN5IGEkGnA9GZnAeUD7KgbgmmUz9Rrp1/U3Q9AvqeX61LzJr0v5feaJdZvInk8ma+6HUp4wXNhfq giEzKN/SnRFDU6MK9TQspcBv+EpjHjFfxBmf+KPLf6F/Tn6Utf0Nx5/pD1k9CnT+8rx67UyziFXe zVwG6rdbovlPy1oglGk6ZbWRnZnneKNQ8hdizc3pybc9z7YxgByCymTzLrLyr5fsryW7tbKOGSa1 hsHjWoi+rWxcxRiL7AC+o3QYiACmZKagACg6ZJi7FVssSyxPE9eMilW4sVahFDRlIYH3BxVR0/Tr DTrSOzsIEtrWKvCGNQqipqTt3J3J7nABSSSea+7tLW8tpbW7hS4tZ1Mc0Eqh0dGFCrK1QQR2OEi1 BpBf4b0D9CfoL9Hwfof0/R+oemvpenSnHjTI8IquieI3fVIb/wAx+aB+YreXNPhtHsTo6aiHuTIj iX608LgMgfbjw2K/TkTI8VDuZiI4bPeg/wAwPNXnjyx5TvNbS2013tmt0VTJO4rPcRwfZ4R/78/m wZJyiL2TjhGUq3Z2vLiOVA1PiA3FfbLWlvFXYqwz8wvPT6D5Xttd0a5sLlJ7u3tojcPW3lE8gRqX CSKsXBeTlyGAC9O+VZMlCw248dmiyDy75m0TzHp36S0a4N1YmR4luPTkjVmjNG4eoqc1r+0tVPjk 4yEhYYSiYmimeSYvM/MUFtcfnDGk+kyawF8vchbwtAGSt6RzPrywLTtscol9fK9m+P0c63ST83dP sIvIGoSReVbnTZFmsuN7I1mVSt9CNxFdSv8AF9nZT1yOYDh5M8JPFzez5kuK7FXYq8ym8peS9V/N lIbbRrEnQ7Z9Q1mZbeM87y+PC2jk2py9NZZjUdeLdco4ImfLk38chDnzTqfycdd1Gw1u28z6pDpP Bbm2tLK4NvFKr0eNWVAqGEJQBeHM/tMclwWbs0x46FULZnlrUxC/8landfmG3meDVZNPtjpCaZwt lhaYuly85J+sRTpwo46b1yswPFd9G0THDVdUL55/L/W/MPli60mHzFdSSTvbuEvEsxAfRuI5jz+r 20cvSPbiw3pXbBPGSKtOPIIm6ZzlrS7FXYqk+heVdK0S91e9sxI1zrd0b29klbmeZUKEXYURafCO 1TkYwAvzZSmTXkxt/wAqngYR6N5q1rR9OV+cWm288TwxfFy4Q+rHI6p/kciO3TbIeF3Ehs8XvALO 6HjTka0py2r8/DLWlQ1C8SysZ7x0eSO3RpXSOhYqoq1ORUdPfATSQLQfl/zPomv2NteaZciVLqFb mKJgY5vRckK7RPRwpI2JFD2wRkDyTKBHNNMkxdirsVSTzb5u0zytp8eo6pHObF5kgkngQS+m0h4o WQH1CGY0+BWyE5iIss4QMjQTvJsHYq8o/MS1XzD5o/wz5fhvJNQPpS+ap4L65sbOOzZfhjn4ExvL cRjhtGzcOxoKY+QWaHxcjGeEWfgl/lvXdOh0y4t/yx8n18wRztZ3t4OLWKfVZeJWTUpirXEbIgKr GSeJH2TgjIV6Bv8AjqylE36zt+Oj2O3adreJrhFjnKKZo0YuquR8QViF5AHvQZkuKVTFXYq8s/MH y19Z8xaDpdz5kv7XSLy7udUuIGkteNv9Rj9QSRTywtKoWeWOgd2Va7AbUx8kdwL2cjHLYmt078k3 X5c6VPJZaNrgv7/VJOcl1dXj3Ut3KgI+CWQlHIA6R/dk4GI5FhMSPMM4y1qYx5/02/vdFSKysn1C BrqKTVtOgkSGW7tEB5xB5CimpCclZhyUFa75XkFhsxkAsa8oavPolw+l6V5K12G01LUJru5nulso Yrc3L1PARzMvpRgAKOyjvkIGtgCzmL3JD0zL2h2KuxVjHnPyh5T1mbTtV17T31B9HkZ7SCOOScMZ aDi8MYbmvJVb4hQUqdq5XOAO56NkJyGw6pB5h0/zL501HRrGHSn0Ty5pV/b6jcX16YluZmtG5RxW 0EbSNGCervx9h4xkDIjagziREHeyXo2XNCjeXtnZW7XN5PHbWyUDzTOsaLyIVasxAFWIAwE0kC1p 1HT1vI7JrqEXsyGWK2Mi+q8Y6uqV5FduoGNhaKIwodirsVdirsVdirx/8wLOLUru08tQsGGuzGa0 vm12+eILYyR3berAVeJPUC8U48uJ3FKDMbIL27/NycZrfu8kiS6S61nSPN8MDKurev5btLOTX9QE qTrcSuZ5pwnqrDW0YcVYjcGlekb3Eu/bmzrYx7t+Qen/AJWxaXB5UjtbCW0ka3mljvUsL251C2S4 VqSCOS7JlUGnLh03qK15G/FVOPlu92XZY1uxVg351aYL78udVZEP1q0Edxb3CfDJAY5ULyxvsVKx 8qkdsqzC4luwGpBPdH86eUdW1SbRtJ1a3v7+0iEs8UEnrcY6hKmQclJBIB+KvjkhME0CwlCQFkJ5 k2DyvW9BsbrzLY6lCsVsmkvcrDaDyxqMySCdfT/eyIyLJxpVWUAZjyjvf6C5EZbV3/0gw7yloUeq +T9Hk5xwSabql7fRen5bv7syMlzdRiOSVHVHT97Xh+zQKd1OVwjcR7+5tnKpH3d4evflyJz5WtZL u2a31A1W89WwXS5XdTQM9urSJWndW4ntToMjHy/AcbLz/BZPljW7FWB+f7vS59e0zQ/Meofovyxd wTSzs0ptor24R0VLSS4qnFeDM5j5AyfIEGnIRYB5N2MGiRzTLy75j/LK3uofL3lzUNKW4cN6On6f JASfTBLfDCacgASa75KMo8hTGUZ8zbKssa3YqgdE0TTdE01NO02Mw2kbyyKhZnPKeVppDViTvJIx wRiAKCZSJNlHYUOxV2KqV1aWt3A0F1DHcQP9uKVQ6H5qwIxISDSD0/y55e06X1tP0u0s5Tt6lvBF E3h1RQciIgcgkyJ5lMckxSLXfNSaXq+m6RFZTXuoaos72yIY44+NsoaQGSVkXlRtlFTSp6DISnRp nGFglimhfmnKvmXWdM8yJDp9na8JbKb1YJpUDk8obgWstyq8ONQzcNuo7muOXcgtksWwIeiWt1bX dvHc2syXFtMoeGeJg6OrCoZWWoIPiMvBaCKVMVU7q4W3tpbhkeRYUZykSmSRgorREWrM3gBucSoe YXP5i6tpHmHWrXUU1DhqrU8owSWi8UWCy9W5lcBUl4JN9rmTQUOwqcxzkIJv4OQMYIFdOaZP5p88 n8tG83q2mrIdFOriD0ZyA31X6xw3l+jJccuHi25MeCPHw782R/pbWP8AA36Xpb/pf9G/W+NH+r+v 6HqUpXnw5e9cnZ4b6sKHFXS2EfmP5E86azp1/c3esrdWOjK19omnQQ+hNcSRoxdLqeMhvjiZ4R6P AHlU0yrJjkRz5NuLJEHlzTfR9U8xp5ctJfJnl3S5tGvIUn0ox3Rs1jjmHJfXtxA4DID8XCQ8jX7O SBNekCmMgL9RNp1+XXlW48reT7DRbqdbm7h9SW6mjqIzNPK00gjBC0RWei7Dbtk8cOGNMck+KVsk ybWo3lw1vaTTpDJcPEjOtvEAZJCBUInIqtT0FSBgKQ8atYfPeseevM013aWskxEOhSKjs0ml2d/a i4WaFiVSUo0wM4pViBxYKMxhxGR+Xuck8IiPn70q0iPzVfwWfkgeZJz5dvLrUfK0My21nSS10/SS pkT9yX4m4Rh/eV4inKvxZEWfTe3L7GRoeqt9j9r2f0tL/wAK/UvrY+o/V/0f9b260+rV8K89vnmV tTi72nJAIoemSYpD5G8pxeU/LVtoUNw1zDavO0UjDjRZpnlCBamgQPx65CEOEUzyT4jafZNg7FXY qwo+TPMn6a8yXNvqsdhbeYriCSWeBC11FBBaR23CIv8AAkjcCeZDcey1O1XAbO/Nt4xQ25LNc/L6 8ht/LQ8nTWumSeWJJXs4LuKSaF1nheFw/B0fkRIzFq1J3xlj5cPRY5OfF1a/wH5g/wCVX/4R/TEP 6V4cP0r9Xbj/AH/q19P1K8qbV5dd6Y+GeDhtPiDj4q2ZTr+vafoOlT6rqJkSxthyuZY43lMad3ZU DNxXuQNsnKQAstcYkmgjLa4gubeK5t3EsE6LJFIu6sjjkrD2IOSBYkKmKuxV2KoHW9SfTNLn1Bbd rpbYepJCjojmMH4yplKJVVqaFhXxwSNC0xFmks8mefPL3nC0mutGaZo7cqsvrQyRbtWnFmHB/sn7 DHIwyCXJlPGY82Q5Ng8o852Xn7V9Vg8k32pWB0rXLiWTnbW7terpduwmdp2dvQQhmjgFI258q7bj MeYkTw9/3ORAxA4q3H3p9pWo+YJpfNWiQ6yrXWgz24stTu4YaUmtUn9K5SFYI2QFqFowpp3qMmCd xfJgQNjXNNfy985web/LUWqpEILhJJLW+t1YSLHcQNxkCuNmU7Mp8CMljnxC0ZIcJpkmTa3YqxHz fYefL7UoLLR/0b+g7pIxd3F7GZpbWWKRnaWKE/BKXUoEDbKy175XMSJ25NkDEDe7Q2matrOk/mDB 5Tu9QfVrK80uTUIbm5SFbmOaGZY3UmBIYzG4eo+CoI606AEiVeSSAY8XLdm+WtTAJfLXniy17X/N lo9pf6tO0drpWnTFliOmQgMIRL8JhleVmcn4lJA+inhkCT1buKJAj0/SmHknybPZaJfDzLHbX2q6 3fS6nqkfES26yuVEUSeou6wpGgWo6iuShChv1ROdnbkGUWOn2Fhbi2sbaK0twWYQwIsaBnPJjxUA VJNTkwKaySeavhQ7FVk00cEMk0p4xxKXdqE0VRUmg3xVh3lTRtRvvNmp+dtUhe0a6t007RbGVeM0 VhG/qM8yndXnl+Pgd1FA2+wqgCSZFtnICIiGaZa1OxV2KuxV2KuxV2KuxV2KsOtL/V5/za1C0glY 6JZaNbG9iYkoL2a4kMJRTsp9FG5Eddq9BlQJ4/Km0gcHnaEubn85LrUpbKxg0ezsrdlDavcLcP6+ /IiG2DBl+GgYs9OvEnriTO+iQIV1Z4K0Fdz3I2y1pdirsVdirsVdirzO3TWpPze1/T4FNtAbNNTi uiTxkma2SytwQOqofXZvfj4ZRvxkN5rgBRcX5qx6bp8UGuaDrkWsQRql1BFYS3CvKoo7RTx8oZEL DZuWHxaG4No8KzsRTOtPvY76xt72JJI47mNJUSZGikUOoYB43AZWFdwctBtqIpXwodirsVdirsVf /9k=</xmpGImg:image></rdf:li></rdf:Alt></xmp:Thumbnails></rdf:Description><rdf:Description xmlns:xmpMM="http://ns.adobe.com/xap/1.0/mm/" xmlns:stRef="http://ns.adobe.com/xap/1.0/sType/ResourceRef#" xmlns:stEvt="http://ns.adobe.com/xap/1.0/sType/ResourceEvent#"><xmpMM:RenditionClass>proof:pdf</xmpMM:RenditionClass><xmpMM:OriginalDocumentID>uuid:65E6390686CF11DBA6E2D887CEACB407</xmpMM:OriginalDocumentID><xmpMM:DocumentID>xmp.did:74CAAD1FDC65E711A588CAE2881F51E6</xmpMM:DocumentID><xmpMM:InstanceID>xmp.iid:74CAAD1FDC65E711A588CAE2881F51E6</xmpMM:InstanceID><xmpMM:DerivedFrom rdf:parseType="Resource"><stRef:instanceID>uuid:c5b5eddb-66da-6741-a40d-cc810f9d042d</stRef:instanceID><stRef:documentID>xmp.did:FB05051EC465E111835FF2FC000FBA2B</stRef:documentID><stRef:originalDocumentID>uuid:65E6390686CF11DBA6E2D887CEACB407</stRef:originalDocumentID><stRef:renditionClass>proof:pdf</stRef:renditionClass></xmpMM:DerivedFrom><xmpMM:History><rdf:Seq><rdf:li rdf:parseType="Resource"><stEvt:action>saved</stEvt:action><stEvt:instanceID>xmp.iid:74CAAD1FDC65E711A588CAE2881F51E6</stEvt:instanceID><stEvt:when>2017-07-11T11:00:55+09:00</stEvt:when><stEvt:softwareAgent>Adobe Illustrator CS6 (Windows)</stEvt:softwareAgent><stEvt:changed>/</stEvt:changed></rdf:li></rdf:Seq></xmpMM:History></rdf:Description><rdf:Description xmlns:illustrator="http://ns.adobe.com/illustrator/1.0/"><illustrator:StartupProfile>Web</illustrator:StartupProfile></rdf:Description><rdf:Description xmlns:xmpTPg="http://ns.adobe.com/xap/1.0/t/pg/" xmlns:stDim="http://ns.adobe.com/xap/1.0/sType/Dimensions#" xmlns:xmpG="http://ns.adobe.com/xap/1.0/g/"><xmpTPg:NPages>1</xmpTPg:NPages><xmpTPg:HasVisibleTransparency>False</xmpTPg:HasVisibleTransparency><xmpTPg:HasVisibleOverprint>False</xmpTPg:HasVisibleOverprint><xmpTPg:MaxPageSize rdf:parseType="Resource"><stDim:w>62.880859</stDim:w><stDim:h>275.112305</stDim:h><stDim:unit>Pixels</stDim:unit></xmpTPg:MaxPageSize><xmpTPg:PlateNames><rdf:Seq><rdf:li>Cyan</rdf:li><rdf:li>Magenta</rdf:li><rdf:li>Yellow</rdf:li><rdf:li>Black</rdf:li></rdf:Seq></xmpTPg:PlateNames><xmpTPg:SwatchGroups><rdf:Seq><rdf:li rdf:parseType="Resource"><xmpG:groupName>初期設定のスウォッチグループ</xmpG:groupName><xmpG:groupType>0</xmpG:groupType><xmpG:Colorants><rdf:Seq><rdf:li rdf:parseType="Resource"><xmpG:swatchName>ホワイト</xmpG:swatchName><xmpG:mode>RGB</xmpG:mode><xmpG:type>PROCESS</xmpG:type><xmpG:red>255</xmpG:red><xmpG:green>255</xmpG:green><xmpG:blue>255</xmpG:blue></rdf:li><rdf:li rdf:parseType="Resource"><xmpG:swatchName>ブラック</xmpG:swatchName><xmpG:mode>RGB</xmpG:mode><xmpG:type>PROCESS</xmpG:type><xmpG:red>0</xmpG:red><xmpG:green>0</xmpG:green><xmpG:blue>0</xmpG:blue></rdf:li><rdf:li rdf:parseType="Resource"><xmpG:swatchName>RGB レッド</xmpG:swatchName><xmpG:mode>RGB</xmpG:mode><xmpG:type>PROCESS</xmpG:type><xmpG:red>255</xmpG:red><xmpG:green>0</xmpG:green><xmpG:blue>0</xmpG:blue></rdf:li><rdf:li rdf:parseType="Resource"><xmpG:swatchName>RGB イエロー</xmpG:swatchName><xmpG:mode>RGB</xmpG:mode><xmpG:type>PROCESS</xmpG:type><xmpG:red>255</xmpG:red><xmpG:green>255</xmpG:green><xmpG:blue>0</xmpG:blue></rdf:li><rdf:li rdf:parseType="Resource"><xmpG:swatchName>RGB グリーン</xmpG:swatchName><xmpG:mode>RGB</xmpG:mode><xmpG:type>PROCESS</xmpG:type><xmpG:red>0</xmpG:red><xmpG:green>255</xmpG:green><xmpG:blue>0</xmpG:blue></rdf:li><rdf:li rdf:parseType="Resource"><xmpG:swatchName>RGB シアン</xmpG:swatchName><xmpG:mode>RGB</xmpG:mode><xmpG:type>PROCESS</xmpG:type><xmpG:red>0</xmpG:red><xmpG:green>255</xmpG:green><xmpG:blue>255</xmpG:blue></rdf:li><rdf:li rdf:parseType="Resource"><xmpG:swatchName>RGB ブルー</xmpG:swatchName><xmpG:mode>RGB</xmpG:mode><xmpG:type>PROCESS</xmpG:type><xmpG:red>0</xmpG:red><xmpG:green>0</xmpG:green><xmpG:blue>255</xmpG:blue></rdf:li><rdf:li rdf:parseType="Resource"><xmpG:swatchName>RGB マゼンタ</xmpG:swatchName><xmpG:mode>RGB</xmpG:mode><xmpG:type>PROCESS</xmpG:type><xmpG:red>255</xmpG:red><xmpG:green>0</xmpG:green><xmpG:blue>255</xmpG:blue></rdf:li><rdf:li rdf:parseType="Resource"><xmpG:swatchName>R=193 G=39 B=45</xmpG:swatchName><xmpG:mode>RGB</xmpG:mode><xmpG:type>PROCESS</xmpG:type><xmpG:red>193</xmpG:red><xmpG:green>39</xmpG:green><xmpG:blue>45</xmpG:blue></rdf:li><rdf:li rdf:parseType="Resource"><xmpG:swatchName>R=237 G=28 B=36</xmpG:swatchName><xmpG:mode>RGB</xmpG:mode><xmpG:type>PROCESS</xmpG:type><xmpG:red>237</xmpG:red><xmpG:green>28</xmpG:green><xmpG:blue>36</xmpG:blue></rdf:li><rdf:li rdf:parseType="Resource"><xmpG:swatchName>R=241 G=90 B=36</xmpG:swatchName><xmpG:mode>RGB</xmpG:mode><xmpG:type>PROCESS</xmpG:type><xmpG:red>241</xmpG:red><xmpG:green>90</xmpG:green><xmpG:blue>36</xmpG:blue></rdf:li><rdf:li rdf:parseType="Resource"><xmpG:swatchName>R=247 G=147 B=30</xmpG:swatchName><xmpG:mode>RGB</xmpG:mode><xmpG:type>PROCESS</xmpG:type><xmpG:red>247</xmpG:red><xmpG:green>147</xmpG:green><xmpG:blue>30</xmpG:blue></rdf:li><rdf:li rdf:parseType="Resource"><xmpG:swatchName>R=251 G=176 B=59</xmpG:swatchName><xmpG:mode>RGB</xmpG:mode><xmpG:type>PROCESS</xmpG:type><xmpG:red>251</xmpG:red><xmpG:green>176</xmpG:green><xmpG:blue>59</xmpG:blue></rdf:li><rdf:li rdf:parseType="Resource"><xmpG:swatchName>R=252 G=238 B=33</xmpG:swatchName><xmpG:mode>RGB</xmpG:mode><xmpG:type>PROCESS</xmpG:type><xmpG:red>252</xmpG:red><xmpG:green>238</xmpG:green><xmpG:blue>33</xmpG:blue></rdf:li><rdf:li rdf:parseType="Resource"><xmpG:swatchName>R=217 G=224 B=33</xmpG:swatchName><xmpG:mode>RGB</xmpG:mode><xmpG:type>PROCESS</xmpG:type><xmpG:red>217</xmpG:red><xmpG:green>224</xmpG:green><xmpG:blue>33</xmpG:blue></rdf:li><rdf:li rdf:parseType="Resource"><xmpG:swatchName>R=140 G=198 B=63</xmpG:swatchName><xmpG:mode>RGB</xmpG:mode><xmpG:type>PROCESS</xmpG:type><xmpG:red>140</xmpG:red><xmpG:green>198</xmpG:green><xmpG:blue>63</xmpG:blue></rdf:li><rdf:li rdf:parseType="Resource"><xmpG:swatchName>R=57 G=181 B=74</xmpG:swatchName><xmpG:mode>RGB</xmpG:mode><xmpG:type>PROCESS</xmpG:type><xmpG:red>57</xmpG:red><xmpG:green>181</xmpG:green><xmpG:blue>74</xmpG:blue></rdf:li><rdf:li rdf:parseType="Resource"><xmpG:swatchName>R=0 G=146 B=69</xmpG:swatchName><xmpG:mode>RGB</xmpG:mode><xmpG:type>PROCESS</xmpG:type><xmpG:red>0</xmpG:red><xmpG:green>146</xmpG:green><xmpG:blue>69</xmpG:blue></rdf:li><rdf:li rdf:parseType="Resource"><xmpG:swatchName>R=0 G=104 B=55</xmpG:swatchName><xmpG:mode>RGB</xmpG:mode><xmpG:type>PROCESS</xmpG:type><xmpG:red>0</xmpG:red><xmpG:green>104</xmpG:green><xmpG:blue>55</xmpG:blue></rdf:li><rdf:li rdf:parseType="Resource"><xmpG:swatchName>R=34 G=181 B=115</xmpG:swatchName><xmpG:mode>RGB</xmpG:mode><xmpG:type>PROCESS</xmpG:type><xmpG:red>34</xmpG:red><xmpG:green>181</xmpG:green><xmpG:blue>115</xmpG:blue></rdf:li><rdf:li rdf:parseType="Resource"><xmpG:swatchName>R=0 G=169 B=157</xmpG:swatchName><xmpG:mode>RGB</xmpG:mode><xmpG:type>PROCESS</xmpG:type><xmpG:red>0</xmpG:red><xmpG:green>169</xmpG:green><xmpG:blue>157</xmpG:blue></rdf:li><rdf:li rdf:parseType="Resource"><xmpG:swatchName>R=41 G=171 B=226</xmpG:swatchName><xmpG:mode>RGB</xmpG:mode><xmpG:type>PROCESS</xmpG:type><xmpG:red>41</xmpG:red><xmpG:green>171</xmpG:green><xmpG:blue>226</xmpG:blue></rdf:li><rdf:li rdf:parseType="Resource"><xmpG:swatchName>R=0 G=113 B=188</xmpG:swatchName><xmpG:mode>RGB</xmpG:mode><xmpG:type>PROCESS</xmpG:type><xmpG:red>0</xmpG:red><xmpG:green>113</xmpG:green><xmpG:blue>188</xmpG:blue></rdf:li><rdf:li rdf:parseType="Resource"><xmpG:swatchName>R=46 G=49 B=146</xmpG:swatchName><xmpG:mode>RGB</xmpG:mode><xmpG:type>PROCESS</xmpG:type><xmpG:red>46</xmpG:red><xmpG:green>49</xmpG:green><xmpG:blue>146</xmpG:blue></rdf:li><rdf:li rdf:parseType="Resource"><xmpG:swatchName>R=27 G=20 B=100</xmpG:swatchName><xmpG:mode>RGB</xmpG:mode><xmpG:type>PROCESS</xmpG:type><xmpG:red>27</xmpG:red><xmpG:green>20</xmpG:green><xmpG:blue>100</xmpG:blue></rdf:li><rdf:li rdf:parseType="Resource"><xmpG:swatchName>R=102 G=45 B=145</xmpG:swatchName><xmpG:mode>RGB</xmpG:mode><xmpG:type>PROCESS</xmpG:type><xmpG:red>102</xmpG:red><xmpG:green>45</xmpG:green><xmpG:blue>145</xmpG:blue></rdf:li><rdf:li rdf:parseType="Resource"><xmpG:swatchName>R=147 G=39 B=143</xmpG:swatchName><xmpG:mode>RGB</xmpG:mode><xmpG:type>PROCESS</xmpG:type><xmpG:red>147</xmpG:red><xmpG:green>39</xmpG:green><xmpG:blue>143</xmpG:blue></rdf:li><rdf:li rdf:parseType="Resource"><xmpG:swatchName>R=158 G=0 B=93</xmpG:swatchName><xmpG:mode>RGB</xmpG:mode><xmpG:type>PROCESS</xmpG:type><xmpG:red>158</xmpG:red><xmpG:green>0</xmpG:green><xmpG:blue>93</xmpG:blue></rdf:li><rdf:li rdf:parseType="Resource"><xmpG:swatchName>R=212 G=20 B=90</xmpG:swatchName><xmpG:mode>RGB</xmpG:mode><xmpG:type>PROCESS</xmpG:type><xmpG:red>212</xmpG:red><xmpG:green>20</xmpG:green><xmpG:blue>90</xmpG:blue></rdf:li><rdf:li rdf:parseType="Resource"><xmpG:swatchName>R=237 G=30 B=121</xmpG:swatchName><xmpG:mode>RGB</xmpG:mode><xmpG:type>PROCESS</xmpG:type><xmpG:red>237</xmpG:red><xmpG:green>30</xmpG:green><xmpG:blue>121</xmpG:blue></rdf:li><rdf:li rdf:parseType="Resource"><xmpG:swatchName>R=199 G=178 B=153</xmpG:swatchName><xmpG:mode>RGB</xmpG:mode><xmpG:type>PROCESS</xmpG:type><xmpG:red>199</xmpG:red><xmpG:green>178</xmpG:green><xmpG:blue>153</xmpG:blue></rdf:li><rdf:li rdf:parseType="Resource"><xmpG:swatchName>R=153 G=134 B=117</xmpG:swatchName><xmpG:mode>RGB</xmpG:mode><xmpG:type>PROCESS</xmpG:type><xmpG:red>153</xmpG:red><xmpG:green>134</xmpG:green><xmpG:blue>117</xmpG:blue></rdf:li><rdf:li rdf:parseType="Resource"><xmpG:swatchName>R=115 G=99 B=87</xmpG:swatchName><xmpG:mode>RGB</xmpG:mode><xmpG:type>PROCESS</xmpG:type><xmpG:red>115</xmpG:red><xmpG:green>99</xmpG:green><xmpG:blue>87</xmpG:blue></rdf:li><rdf:li rdf:parseType="Resource"><xmpG:swatchName>R=83 G=71 B=65</xmpG:swatchName><xmpG:mode>RGB</xmpG:mode><xmpG:type>PROCESS</xmpG:type><xmpG:red>83</xmpG:red><xmpG:green>71</xmpG:green><xmpG:blue>65</xmpG:blue></rdf:li><rdf:li rdf:parseType="Resource"><xmpG:swatchName>R=198 G=156 B=109</xmpG:swatchName><xmpG:mode>RGB</xmpG:mode><xmpG:type>PROCESS</xmpG:type><xmpG:red>198</xmpG:red><xmpG:green>156</xmpG:green><xmpG:blue>109</xmpG:blue></rdf:li><rdf:li rdf:parseType="Resource"><xmpG:swatchName>R=166 G=124 B=82</xmpG:swatchName><xmpG:mode>RGB</xmpG:mode><xmpG:type>PROCESS</xmpG:type><xmpG:red>166</xmpG:red><xmpG:green>124</xmpG:green><xmpG:blue>82</xmpG:blue></rdf:li><rdf:li rdf:parseType="Resource"><xmpG:swatchName>R=140 G=98 B=57</xmpG:swatchName><xmpG:mode>RGB</xmpG:mode><xmpG:type>PROCESS</xmpG:type><xmpG:red>140</xmpG:red><xmpG:green>98</xmpG:green><xmpG:blue>57</xmpG:blue></rdf:li><rdf:li rdf:parseType="Resource"><xmpG:swatchName>R=117 G=76 B=36</xmpG:swatchName><xmpG:mode>RGB</xmpG:mode><xmpG:type>PROCESS</xmpG:type><xmpG:red>117</xmpG:red><xmpG:green>76</xmpG:green><xmpG:blue>36</xmpG:blue></rdf:li><rdf:li rdf:parseType="Resource"><xmpG:swatchName>R=96 G=56 B=19</xmpG:swatchName><xmpG:mode>RGB</xmpG:mode><xmpG:type>PROCESS</xmpG:type><xmpG:red>96</xmpG:red><xmpG:green>56</xmpG:green><xmpG:blue>19</xmpG:blue></rdf:li><rdf:li rdf:parseType="Resource"><xmpG:swatchName>R=66 G=33 B=11</xmpG:swatchName><xmpG:mode>RGB</xmpG:mode><xmpG:type>PROCESS</xmpG:type><xmpG:red>66</xmpG:red><xmpG:green>33</xmpG:green><xmpG:blue>11</xmpG:blue></rdf:li></rdf:Seq></xmpG:Colorants></rdf:li><rdf:li rdf:parseType="Resource"><xmpG:groupName>グレー</xmpG:groupName><xmpG:groupType>1</xmpG:groupType><xmpG:Colorants><rdf:Seq><rdf:li rdf:parseType="Resource"><xmpG:swatchName>R=0 G=0 B=0</xmpG:swatchName><xmpG:mode>RGB</xmpG:mode><xmpG:type>PROCESS</xmpG:type><xmpG:red>0</xmpG:red><xmpG:green>0</xmpG:green><xmpG:blue>0</xmpG:blue></rdf:li><rdf:li rdf:parseType="Resource"><xmpG:swatchName>R=26 G=26 B=26</xmpG:swatchName><xmpG:mode>RGB</xmpG:mode><xmpG:type>PROCESS</xmpG:type><xmpG:red>26</xmpG:red><xmpG:green>26</xmpG:green><xmpG:blue>26</xmpG:blue></rdf:li><rdf:li rdf:parseType="Resource"><xmpG:swatchName>R=51 G=51 B=51</xmpG:swatchName><xmpG:mode>RGB</xmpG:mode><xmpG:type>PROCESS</xmpG:type><xmpG:red>51</xmpG:red><xmpG:green>51</xmpG:green><xmpG:blue>51</xmpG:blue></rdf:li><rdf:li rdf:parseType="Resource"><xmpG:swatchName>R=77 G=77 B=77</xmpG:swatchName><xmpG:mode>RGB</xmpG:mode><xmpG:type>PROCESS</xmpG:type><xmpG:red>77</xmpG:red><xmpG:green>77</xmpG:green><xmpG:blue>77</xmpG:blue></rdf:li><rdf:li rdf:parseType="Resource"><xmpG:swatchName>R=102 G=102 B=102</xmpG:swatchName><xmpG:mode>RGB</xmpG:mode><xmpG:type>PROCESS</xmpG:type><xmpG:red>102</xmpG:red><xmpG:green>102</xmpG:green><xmpG:blue>102</xmpG:blue></rdf:li><rdf:li rdf:parseType="Resource"><xmpG:swatchName>R=128 G=128 B=128</xmpG:swatchName><xmpG:mode>RGB</xmpG:mode><xmpG:type>PROCESS</xmpG:type><xmpG:red>128</xmpG:red><xmpG:green>128</xmpG:green><xmpG:blue>128</xmpG:blue></rdf:li><rdf:li rdf:parseType="Resource"><xmpG:swatchName>R=153 G=153 B=153</xmpG:swatchName><xmpG:mode>RGB</xmpG:mode><xmpG:type>PROCESS</xmpG:type><xmpG:red>153</xmpG:red><xmpG:green>153</xmpG:green><xmpG:blue>153</xmpG:blue></rdf:li><rdf:li rdf:parseType="Resource"><xmpG:swatchName>R=179 G=179 B=179</xmpG:swatchName><xmpG:mode>RGB</xmpG:mode><xmpG:type>PROCESS</xmpG:type><xmpG:red>179</xmpG:red><xmpG:green>179</xmpG:green><xmpG:blue>179</xmpG:blue></rdf:li><rdf:li rdf:parseType="Resource"><xmpG:swatchName>R=204 G=204 B=204</xmpG:swatchName><xmpG:mode>RGB</xmpG:mode><xmpG:type>PROCESS</xmpG:type><xmpG:red>204</xmpG:red><xmpG:green>204</xmpG:green><xmpG:blue>204</xmpG:blue></rdf:li><rdf:li rdf:parseType="Resource"><xmpG:swatchName>R=230 G=230 B=230</xmpG:swatchName><xmpG:mode>RGB</xmpG:mode><xmpG:type>PROCESS</xmpG:type><xmpG:red>230</xmpG:red><xmpG:green>230</xmpG:green><xmpG:blue>230</xmpG:blue></rdf:li><rdf:li rdf:parseType="Resource"><xmpG:swatchName>R=242 G=242 B=242</xmpG:swatchName><xmpG:mode>RGB</xmpG:mode><xmpG:type>PROCESS</xmpG:type><xmpG:red>242</xmpG:red><xmpG:green>242</xmpG:green><xmpG:blue>242</xmpG:blue></rdf:li></rdf:Seq></xmpG:Colorants></rdf:li><rdf:li rdf:parseType="Resource"><xmpG:groupName>Web カラーグループ</xmpG:groupName><xmpG:groupType>1</xmpG:groupType><xmpG:Colorants><rdf:Seq><rdf:li rdf:parseType="Resource"><xmpG:swatchName>R=63 G=169 B=245</xmpG:swatchName><xmpG:mode>RGB</xmpG:mode><xmpG:type>PROCESS</xmpG:type><xmpG:red>63</xmpG:red><xmpG:green>169</xmpG:green><xmpG:blue>245</xmpG:blue></rdf:li><rdf:li rdf:parseType="Resource"><xmpG:swatchName>R=122 G=201 B=67</xmpG:swatchName><xmpG:mode>RGB</xmpG:mode><xmpG:type>PROCESS</xmpG:type><xmpG:red>122</xmpG:red><xmpG:green>201</xmpG:green><xmpG:blue>67</xmpG:blue></rdf:li><rdf:li rdf:parseType="Resource"><xmpG:swatchName>R=255 G=147 B=30</xmpG:swatchName><xmpG:mode>RGB</xmpG:mode><xmpG:type>PROCESS</xmpG:type><xmpG:red>255</xmpG:red><xmpG:green>147</xmpG:green><xmpG:blue>30</xmpG:blue></rdf:li><rdf:li rdf:parseType="Resource"><xmpG:swatchName>R=255 G=29 B=37</xmpG:swatchName><xmpG:mode>RGB</xmpG:mode><xmpG:type>PROCESS</xmpG:type><xmpG:red>255</xmpG:red><xmpG:green>29</xmpG:green><xmpG:blue>37</xmpG:blue></rdf:li><rdf:li rdf:parseType="Resource"><xmpG:swatchName>R=255 G=123 B=172</xmpG:swatchName><xmpG:mode>RGB</xmpG:mode><xmpG:type>PROCESS</xmpG:type><xmpG:red>255</xmpG:red><xmpG:green>123</xmpG:green><xmpG:blue>172</xmpG:blue></rdf:li><rdf:li rdf:parseType="Resource"><xmpG:swatchName>R=189 G=204 B=212</xmpG:swatchName><xmpG:mode>RGB</xmpG:mode><xmpG:type>PROCESS</xmpG:type><xmpG:red>189</xmpG:red><xmpG:green>204</xmpG:green><xmpG:blue>212</xmpG:blue></rdf:li></rdf:Seq></xmpG:Colorants></rdf:li></rdf:Seq></xmpTPg:SwatchGroups></rdf:Description><rdf:Description xmlns:pdf="http://ns.adobe.com/pdf/1.3/"><pdf:Producer>Adobe PDF library 10.01</pdf:Producer></rdf:Description></rdf:RDF></x:xmpmeta><?xpacket end="w"?></metadata><g fill="#4A1F00"><path d="M52.759 6.359c.66 2.333 1.408 3.982 2.597 5.676a15.515 15.515 0 004.643 4.313c.946.572 1.496.814 2.883 1.232l-.044.309c-1.232.153-1.54.396-2.003 1.474-1.826-1.144-2.618-1.804-3.762-3.102-1.497-1.673-2.772-3.741-3.543-5.765-.418-1.056-.727-2.134-1.078-3.719-.352 3.125-1.386 5.655-3.124 7.767-1.145 1.387-2.729 2.685-4.445 3.675-.836.483-1.43.748-2.86 1.298l-.176-.308c1.98-1.122 2.927-1.782 4.07-2.794 2.948-2.64 4.665-6.073 5.017-10.055h-6.381c-.901 0-1.298.022-2.046.154l-.132-.836c.901.154 1.364.176 2.266.176h6.315c.11-1.298.176-2.992.176-4.334 0-.594-.021-.836-.11-1.518 2.553.243 2.729.264 2.729.528 0 .22-.286.396-.946.616-.088 2.552-.132 3.411-.241 4.708h6.183c.528-.77.704-1.012 1.276-1.738a24.789 24.789 0 012.178 1.848c.088.088.133.154.133.197 0 .111-.11.199-.242.199h-9.333zm-3.872 27.588c.374-.726.484-.946.902-1.628.946.506 1.231.682 2.156 1.298.065.066.109.132.109.177 0 .065-.088.131-.197.153l-5.963 1.056v6.337c0 .286.088.396.286.396.527 0 2.508-.374 2.794-.528.176-.088.22-.154.374-.726.088-.33.132-.572.286-1.342.22-1.056.22-1.056.44-2.024h.22l.044 2.993c0 .374 0 .418.088.55.088.109.088.109.484.264.176.066.286.242.286.462 0 .396-.33.616-1.32.879-1.145.286-3.785.727-4.356.727-.683 0-1.101-.484-1.101-1.254v-6.469l-1.122.198a6.633 6.633 0 00-1.408.396l-.33-.814h.353a9.83 9.83 0 001.386-.11l1.122-.198v-4.4c0-.682 0-1.078-.044-1.915 2.267.308 2.442.352 2.442.572 0 .154-.022.154-.924.528v4.951l2.993-.529zm6.777-3.322c-.177 4.643-.484 6.623-1.453 9.087-.968 2.465-2.332 4.313-4.466 5.963-1.299 1.013-2.289 1.563-3.938 2.223l-.154-.308c2.09-1.211 3.564-2.442 4.95-4.138 1.959-2.42 2.883-4.994 3.345-9.417.11-1.21.154-1.892.176-3.41h-2.618c-.572 0-.924.022-1.672.154l-.176-.792c.615.088 1.254.132 1.848.132h7.789c.309-.44.418-.572.748-.991.683.418.881.55 1.519.991.154.109.242.198.242.264 0 .131-.198.33-.727.682-.088 4.885-.22 7.283-.572 10.275-.396 3.168-.857 4.775-1.562 5.457-.484.462-.99.639-2.486.793-.154-.749-.33-1.013-.814-1.254-.528-.243-1.254-.396-2.729-.572l.022-.374c3.763.308 4.07.33 4.532.33.309 0 .418-.088.616-.528.462-1.012.968-3.851 1.21-6.909.176-2.288.242-4.313.265-7.657h-3.895zM44.002 61.381c1.057.99 1.672 1.276 2.772 1.276.572 0 1.166-.088 2.002-.264.551-1.431.792-2.354.792-3.125 0-.726-.352-1.167-1.408-1.694.242-.132.353-.154.528-.154.44 0 1.122.199 1.761.506.748.374 1.034.617 1.034.924 0 .176-.044.308-.221.572-.088.176-.55 1.078-1.342 2.707 1.628-.573 1.826-.683 2.442-1.211.176-.154.242-.176.462-.176.858 0 1.496.286 1.496.66 0 .572-1.364 1.123-4.862 1.936-.198.44-.572 1.342-1.166 2.663-.66 1.518-2.354 5.215-2.553 5.589-.33.594-.528.792-.792.792-.374 0-.683-.682-.683-1.563 0-.44.044-.572.242-.792.484-.528.748-.858 1.057-1.32 1.078-1.606 1.87-3.102 2.75-5.17-.484.066-.682.088-1.034.088-.792 0-1.386-.132-1.937-.462-.66-.374-1.166-.902-1.605-1.606l.265-.176zm11.64 1.232c1.519.132 2.75.528 3.763 1.21.858.55 1.386 1.21 1.386 1.716 0 .374-.22.638-.571.638-.177 0-.309-.044-.507-.176-.616-.374-1.034-.462-2.156-.462-1.76 0-2.311.484-2.311 2.002 0 .594.11 1.541.44 3.785 1.342.396 2.486.924 3.125 1.43.594.462.88 1.035.88 1.738 0 .44-.176.748-.44.748-.22 0-.308-.066-.77-.572-.793-.858-1.519-1.386-2.663-1.936v.418c0 .88-.176 1.387-.616 1.87-.594.594-1.628.946-2.86.946-1.979 0-3.344-.946-3.344-2.333 0-1.54 1.672-2.618 4.114-2.618.506 0 .748.022 1.32.11-.066-1.738-.066-1.914-.066-2.178 0-1.805.176-2.486.771-3.147.439-.462 1.056-.77 2.09-1.034.33-.088.374-.11 1.188-.286-.594-.638-1.276-.99-2.839-1.518l.066-.351zm-1.189 9.638a6.117 6.117 0 00-1.892-.265c-1.87 0-3.015.638-3.015 1.672 0 .814.836 1.298 2.2 1.298 1.782 0 2.706-.726 2.706-2.112v-.593zm-12.211 32.472c2.023-1.43 3.08-2.42 4.202-3.895 2.002-2.618 3.322-5.566 3.982-8.933.33-1.651.506-3.323.506-4.709 0-.44-.021-.682-.065-1.276 2.398.308 2.662.374 2.662.594 0 .176-.088.22-.946.572-.021.309-.021.484-.021.682 0 3.212 1.21 6.997 3.103 9.704a15.507 15.507 0 004.466 4.247c.837.528 1.32.77 2.509 1.21l-.022.264h-.153c-.506 0-.858.133-1.122.44-.221.242-.33.441-.639 1.101-2.222-1.408-3.872-3.103-5.259-5.325-1.012-1.628-1.958-3.96-2.552-6.139-.265-.968-.374-1.65-.528-3.19-.639 4.093-1.672 6.887-3.521 9.527-1.694 2.398-3.499 3.917-6.425 5.413l-.177-.287zm1.276 14.803c.902.924 1.475 1.21 2.421 1.21.857 0 1.782-.132 2.794-.418.44-1.43.748-2.971.748-3.719 0-.682-.33-.968-1.562-1.386.285-.154.396-.198.682-.198.506 0 1.232.154 1.893.418.66.242.99.55.99.88 0 .155 0 .155-.265.528-.286.418-.77 1.584-1.32 3.146 1.232-.44 2.024-.858 2.553-1.342.352-.33.44-.374.616-.374.286 0 .814.11 1.166.242.242.088.353.22.353.396 0 .375-.353.66-1.276 1.079-.99.44-2.465.924-3.851 1.275-.265.749-.265.749-.925 2.795-.439 1.32-.439 1.32-1.649 4.907-.881 2.619-1.167 3.169-1.629 3.169-.22 0-.374-.132-.506-.44a3.291 3.291 0 01-.308-1.276c0-.352.021-.418.483-1.078 1.101-1.606 1.959-3.521 3.455-7.877-.836.154-1.475.219-2.112.219-1.343 0-2.2-.571-3.015-1.98l.264-.176zm8.779 7.592c-.021.331-.021.594-.021.683 0 1.253.594 2.2 1.672 2.662.594.264 1.496.418 2.354.418.902 0 1.408-.066 2.112-.33a.987.987 0 01.374-.088c.242 0 .748.242 1.122.529.264.22.396.417.396.616 0 .484-.858.726-2.597.726-1.694 0-3.103-.242-4.07-.704-1.188-.572-1.87-1.716-1.87-3.19 0-.485.044-.858.197-1.386l.331.064zm.595-4.071c1.584-.945 3.388-1.474 5.104-1.474.462 0 1.034.155 1.386.396a.73.73 0 01.353.616c0 .352-.198.484-.836.506-.814.044-1.078.11-1.694.44-.44.242-.462.242-1.21.748-.419.265-.419.265-.771.462l-.132-.197c.264-.265.264-.265 1.056-.991.198-.176.396-.352 1.078-1.034-1.452 0-2.618.242-4.202.813l-.132-.285zM44.2 147.225c.99.99 1.518 1.21 2.948 1.21.528 0 .99-.045 1.563-.132.065-.329.065-.329.33-1.584.132-.638.286-1.563.286-1.827 0-.703-.507-1.056-1.65-1.144.396-.33.638-.418 1.1-.418.66 0 1.496.198 2.068.483.418.199.66.484.66.771 0 .198-.044.286-.33.66-.352.44-.77 1.364-1.342 2.927 1.716-.286 3.212-.858 3.895-1.452.176-.177.242-.198.418-.198.286 0 .704.088 1.034.198.33.132.484.286.484.506 0 .353-.353.638-1.232.968-1.408.551-2.992.902-4.929 1.123-.572 2.222-.902 4.379-.946 6.051 2.398-1.276 4.797-2.003 6.623-2.003 2.486 0 4.137 1.276 4.137 3.19 0 1.76-1.255 3.234-3.521 4.158-1.761.705-3.807 1.057-6.425 1.035l-.022-.309c2.311-.396 2.597-.439 3.433-.704 3.124-.946 4.818-2.552 4.818-4.577 0-1.342-.88-2.111-2.42-2.111-1.519 0-3.234.66-4.885 1.893-.66.506-.968.836-1.276 1.342a.572.572 0 01-.484.285c-.571 0-1.298-.968-1.298-1.716 0-.374.727-4.246 1.232-6.513a8.218 8.218 0 01-.924.066c-1.783 0-2.751-.527-3.653-2.003l.308-.175zm4.753 24.991c.659 0 1.693.198 2.222.419.44.175.616.396.616.704v.043c0 .176-.021.176-.176.572-.265.748-.484 2.641-.484 4.467 0 1.299.176 1.629.858 1.629.462 0 .946-.177 2.948-1.123.396-.197.638-.264.902-.264.528 0 1.056.462 1.056.924 0 .286-.153.528-.462.66-.154.066-.462.176-1.474.463-2.663.748-4.115 1.408-5.501 2.464-1.188.924-1.717 1.782-1.717 2.817 0 1.584 1.255 2.398 3.697 2.398 1.363 0 3.521-.266 5.104-.639.22-.045.308-.066.439-.066.572 0 1.188.55 1.188 1.078 0 .396-.242.594-.946.727-.704.131-2.904.285-4.225.285-1.606 0-2.816-.176-3.74-.506-1.475-.55-2.398-1.805-2.398-3.256 0-1.276.704-2.486 2.156-3.697.66-.572 1.387-1.057 2.685-1.76-.484 0-.683-.066-1.057-.33-.33-.242-.527-.727-.638-1.672-.066-.529-.088-1.013-.154-2.664-.065-1.869-.088-2.199-.264-2.529-.242-.418-.66-.638-1.584-.792.333-.286.509-.352.949-.352zm-2.354 37.072c1.056.462 1.32.572 1.914.88 1.342.704 1.716 1.056 1.716 1.65 0 .704-.308 1.408-.594 1.408-.132 0-.198-.066-.44-.44-1.034-1.563-1.87-2.553-2.596-3.08v5.369l.044 4.467c-.022.264-.265.33-1.101.33-.33 0-.418-.045-.462-.199.066-1.342.11-2.729.11-4.686v-4.247c-.969.901-1.694 1.431-3.301 2.42l-.242-.308c1.849-1.541 2.641-2.332 3.696-3.719 1.255-1.627 1.98-2.838 2.641-4.467H43.43c-.528 0-.858.023-1.386.11l-.154-.837a5.32 5.32 0 001.54.221h1.738v-2.685c0-.506-.044-.901-.154-1.672 2.156.286 2.465.374 2.465.616 0 .154-.22.285-.88.506v3.234h1.386c.418-.418.528-.55.902-.969.572.441.748.572 1.276 1.014.176.153.264.264.264.352 0 .197-.264.352-.946.55-.857 1.584-1.562 2.618-2.882 4.159v.023zm8.449-.088c-.154 2.111-.396 3.389-.858 4.62a9.225 9.225 0 01-3.719 4.511c-.792.507-1.518.859-2.772 1.32l-.153-.352c2.706-1.519 4.004-2.816 4.973-4.93.66-1.474 1.034-3.3 1.056-5.17h-.99v1.057c-.044.264-.264.329-1.056.329-.396 0-.507-.044-.507-.22 0-1.145 0-1.145.066-4.158.022-.242.022-.375.022-.484 0-3.279-.022-4.137-.11-5.061.792.418 1.034.55 1.782 1.033h6.139l.946-.99c.616.418.792.551 1.364.99.176.177.264.287.264.353 0 .177-.264.374-.836.66-.021.66-.021 1.078-.021 1.497v1.32l.065 4.334c0 .308-.22.373-1.166.373-.33 0-.418-.043-.418-.219v-.813h-1.232v8.559c0 .506.044.528 1.057.528 1.078 0 1.298-.065 1.43-.483.154-.44.154-.44.946-4.269h.309v3.851c0 .637 0 .637.462.836.153.043.308.264.308.484 0 .659-.704.813-3.564.813-1.386 0-1.893-.11-2.179-.484-.197-.264-.197-.264-.197-1.276V209.2h-1.411zm-2.465-.506h6.535v-6.491h-6.535v6.491zm-1.87 39.622c1.298-1.056 2.156-1.958 2.904-3.169 1.145-1.869 1.87-4.422 1.87-6.688 0-2.18-.792-3.521-2.09-3.521-1.166 0-2.706.946-4.225 2.597-.418.418-.55.506-.902.506-.462 0-.99-.353-1.452-.99-.374-.506-.594-1.077-.594-1.474 0-.287.088-.484.352-.814.198.968.639 1.518 1.21 1.518.309 0 .881-.242 2.024-.857 1.87-1.013 2.597-1.254 3.719-1.254 1.012 0 2.09.572 2.729 1.474.528.771.836 1.915.836 3.234 0 2.597-.99 5.171-2.729 7.107-1.078 1.188-2.2 2.024-3.454 2.574l-.198-.243zm-1.21-20.001c1.078.902 2.574 1.408 4.114 1.408h.506c.44 0 .748.154 1.188.528.308.265.462.528.462.748 0 .308-.308.483-.902.483-.924.023-.924.023-5.479 1.344l-.109-.309c1.649-.748 3.168-1.431 3.718-1.629-1.804-.373-2.882-1.056-3.718-2.398l.22-.175zM.242 18.923c2.023-1.43 3.08-2.42 4.202-3.895 2.002-2.618 3.322-5.566 3.982-8.933.33-1.65.506-3.322.506-4.708 0-.44-.021-.682-.065-1.276 2.398.308 2.662.374 2.662.594 0 .176-.088.22-.946.572-.021.308-.021.484-.021.682 0 3.212 1.21 6.997 3.103 9.704a15.507 15.507 0 004.466 4.247c.837.528 1.32.77 2.509 1.21l-.022.264h-.153c-.506 0-.858.132-1.122.44-.221.242-.33.44-.639 1.101-2.222-1.408-3.872-3.103-5.259-5.325-1.012-1.627-1.958-3.96-2.552-6.138-.265-.969-.374-1.65-.528-3.191-.639 4.093-1.672 6.887-3.521 9.527-1.694 2.398-3.499 3.917-6.425 5.413l-.177-.288zm9.153 14.958v-3.146c0-.858-.044-1.563-.132-2.222 1.98.154 2.574.264 2.574.506 0 .176-.176.286-.901.638v4.225h4.202c.506-.726.66-.946 1.21-1.65 1.013.77 1.32 1.012 2.267 1.848.066.089.11.132.11.176 0 .088-.088.132-.265.132h-7.524v5.171h3.784a25.4 25.4 0 011.188-1.628c.946.748 1.232.99 2.178 1.804.066.066.11.133.11.177 0 .087-.11.153-.308.153h-6.953v6.205h5.236a20.56 20.56 0 001.387-1.716A60.893 60.893 0 0120 46.469a.288.288 0 01.109.154c0 .088-.132.154-.264.154H2.706c-.88 0-1.386.044-2.135.154l-.22-.858c.836.154 1.32.198 2.332.198h6.711v-6.205H4.708c-.66 0-1.298.044-1.76.132l-.176-.814c.945.154 1.298.176 1.936.176h4.687v-5.171H4.532c-1.166 1.98-2.134 3.234-3.696 4.797l-.265-.22c1.408-1.936 2.267-3.586 3.213-6.073.528-1.386.748-2.156.924-3.125 2.091.66 2.509.836 2.509 1.056 0 .198-.242.286-.99.352a31.014 31.014 0 01-1.386 2.707h4.554zm.616 40.9c2.377-.704 3.895-1.606 5.149-3.058 1.298-1.475 1.958-3.279 1.958-5.303 0-2.135-.858-3.829-2.486-4.863-.968-.638-2.421-1.012-3.807-1.012-.264 0-.418 0-.771.044.528.771.683 1.188.683 1.827 0 1.717-1.232 4.929-2.904 7.613-1.387 2.2-2.465 3.279-3.278 3.279-.374 0-.727-.176-.969-.462-.198-.263-.242-.352-.616-1.408-.197-.572-.33-.836-.968-2.068-.352-.704-.506-1.298-.506-2.001 0-1.387.748-3.015 1.98-4.357 1.782-1.892 4.687-3.08 7.568-3.08 2.223 0 4.269.726 5.677 2.024 1.408 1.299 2.112 3.037 2.112 5.171 0 2.75-1.605 5.193-4.378 6.667-1.276.682-2.421 1.034-4.291 1.364l-.153-.377zm-7.239-6.843c0 1.056.33 2.135.88 2.905.308.396.594.638.836.638.484 0 1.54-1.188 2.618-2.904 1.629-2.596 2.795-5.435 2.795-6.799 0-.33-.066-.55-.309-1.1-3.827.681-6.82 3.872-6.82 7.26zm4.401 20.239c.55-.572.704-.726 1.232-1.298.748.638.968.858 1.605 1.562.066.044.089.11.089.154s-.066.087-.154.087H5.148a6.96 6.96 0 011.475 1.166c.241.243.308.418.308.705 0 .638-.44 1.276-.902 1.276-.198 0-.264-.11-.374-.66-.22-1.1-.418-1.672-.902-2.487H3.521c-.925 1.365-1.826 2.333-3.257 3.521L0 91.961c1.188-1.518 1.782-2.442 2.464-3.873.55-1.144.792-1.76 1.034-2.662 2.442.792 2.465.792 2.465.99 0 .22-.374.33-1.276.396a32 32 0 01-.814 1.364h3.3zM1.87 93.502c0-.748-.022-1.254-.088-2.267a12.95 12.95 0 011.716.99h4.203c.374-.396.483-.506.813-.902.528.352.683.462 1.21.902.133.11.198.177.198.264 0 .11-.109.22-.616.572v3.763c0 .594.022 1.232.044 2.442 0 .265-.22.353-1.012.353-.374 0-.44-.022-.44-.221v-.704H3.3v3.961c1.694-.286 1.694-.286 4.291-.836-.528-.748-.858-1.122-1.672-1.914l.22-.242c1.386.814 2.332 1.453 3.015 2.068.616.55.792.858.792 1.364 0 .682-.33 1.365-.66 1.365-.198 0-.309-.132-.572-.705-.396-.836-.462-.969-.88-1.606-1.496.726-4.995 2.002-6.205 2.289-.044.594-.11.792-.308.792-.177 0-.286-.242-.99-2.156.66-.044.792-.044 1.54-.176v-9.396zm6.028 1.628v-2.398H3.3v2.398h4.598zm-4.598.506v2.552h4.599v-2.552H3.3zm13.422-7.459c.595-.66.771-.88 1.343-1.497.88.748 1.144.99 1.98 1.782.065.066.088.088.088.132 0 .044-.066.087-.132.087h-6.359c1.563.903 1.937 1.299 1.937 1.915 0 .616-.374 1.232-.771 1.232-.22 0-.33-.154-.462-.638-.242-.901-.506-1.518-1.101-2.509H11.64c-.748 1.013-1.343 1.651-2.289 2.443l-.264-.198c1.254-1.716 2.2-3.674 2.597-5.435 2.311.638 2.332.638 2.332.858 0 .198-.33.309-1.122.374-.396.704-.55.968-.88 1.453h4.708zm-3.63 16.876c0 .308-.198.375-1.034.375-.418 0-.484-.044-.484-.286.066-5.897.066-7.195.066-9.681 0-2.575 0-3.037-.088-4.247.704.44.924.572 1.672 1.012h3.652c.353-.418.484-.55.88-.968.396.308.837.616 1.299.968.153.11.197.198.197.286 0 .176-.176.33-.748.66v5.039c0 .682 0 .682.022 1.937v1.628c-.044.638-.176.902-.66 1.188-.418.264-.88.418-1.65.593-.109-.593-.264-.835-.616-1.034-.242-.153-.462-.22-1.518-.418l.021-.33c1.431.044 1.431.044 1.606.044.22 0 .572 0 1.012-.022.265-.022.309-.066.309-.352v-8.713h-3.938v12.321zm-7.988 28.468c-.044.176-.11.242-.242.264a7.3 7.3 0 01-1.056.088c-.221 0-.33-.066-.419-.264.11-3.917.133-6.534.133-10.825 0-3.697-.022-5.699-.133-8.141.881.506 1.167.66 2.024 1.254h9.594c.44-.44.44-.44.99-1.034.572.44.748.594 1.298 1.034.154.132.221.22.221.286 0 .154-.133.265-.704.661 0 13.202 0 13.202.132 16.568-.044.198-.088.264-.198.33-.088.066-.66.11-1.145.11-.197 0-.264-.066-.33-.265v-1.496H5.104v1.43zm10.166-17.119H5.104v4.577H15.27v-4.577zm-10.166 5.083v4.533H15.27v-4.533H5.104zm0 5.061v5.039H15.27v-5.039H5.104zm-2.486 19.975c1.056.836 1.563 1.035 2.75 1.035.704 0 1.343-.089 2.354-.287.484-.945.771-1.76.771-2.244 0-.594-.418-.946-1.563-1.232.374-.197.572-.242.99-.242.506 0 1.145.133 1.716.375.551.22.792.462.792.726 0 .154-.088.308-.352.638-.198.265-.462.66-.638.902-.396.639-.396.639-.551.858 1.849-.528 2.442-.792 3.169-1.409a.62.62 0 01.418-.152c.858 0 1.474.308 1.474.726 0 .265-.285.483-.945.704-1.959.639-3.015.902-4.797 1.254-.396.551-.66.946-1.166 1.717-.595.924-.771 1.166-1.188 1.76 1.232-.638 2.002-.88 2.839-.88 1.298 0 2.266.88 2.464 2.2.374-.176.374-.176 2.156-1.078 2.179-1.1 2.706-1.452 2.706-1.848 0-.374-.374-.771-1.012-1.035.242-.109.352-.131.506-.131.969 0 2.486 1.342 2.486 2.222 0 .396-.176.55-.792.683-1.32.308-4.181 1.408-5.896 2.266.021.704.021.836.021 1.782 0 .99-.065 1.673-.176 1.893-.11.241-.353.419-.616.419-.418 0-.704-.287-.704-.661 0-.109 0-.22.022-.374.088-.639.132-1.386.153-2.354-1.364.748-2.002 1.188-2.574 1.738-.726.704-1.078 1.386-1.078 2.047 0 1.188 1.21 1.76 3.675 1.76 1.54 0 3.08-.22 4.423-.616.153-.044.308-.066.418-.066.682 0 1.54.617 1.54 1.101 0 .286-.242.507-.682.595-.902.176-2.575.308-3.939.308-2.068 0-3.586-.22-4.466-.638-1.123-.529-1.629-1.254-1.629-2.333 0-1.034.506-1.979 1.585-3.015.571-.55 1.275-1.055 2.728-1.957-.021-.925-.088-1.277-.308-1.739-.198-.396-.638-.659-1.122-.659-1.452 0-3.19 1.166-4.774 3.189-.419.572-.595.704-.814.704-.353 0-.594-.462-.594-1.166 0-.462.021-.483.638-.99 1.563-1.231 2.53-2.376 4.093-4.73-.727.11-1.013.132-1.475.132-1.496 0-2.267-.396-3.278-1.694l.242-.204zm.704 38.215c-.506 0-1.145.044-1.65.11l-.11-.792c.551.132 1.078.176 1.761.176h1.386v-3.345H1.87c-.616 0-1.254.044-1.694.11l-.132-.792c.836.154 1.166.176 1.892.176h2.772v-3.168H3.542c-.836 0-1.254.021-1.826.088l-.132-.771c.682.132 1.166.177 2.09.177h12.652c.55-.572.726-.771 1.276-1.343.836.682 1.1.88 1.914 1.606.044.065.065.109.065.154 0 .066-.065.088-.176.088h-3.938v3.168h1.98c.572-.66.748-.836 1.342-1.452.925.726 1.188.946 2.047 1.716.021.045.044.11.044.133 0 .065-.066.109-.198.109h-5.215v3.345h.968c.528-.595.705-.771 1.255-1.364.813.682 1.056.902 1.826 1.563.044.043.088.109.088.176s-.11.132-.198.132h-8.691v2.442h5.787c.616-.616.792-.814 1.431-1.43.901.703 1.166.924 2.024 1.672.044.044.088.109.088.154 0 .064-.088.109-.198.109h-9.132v.221c0 1.716 0 2.002.022 3.168 0 .221-.132.265-.771.309-.286 0-.483.021-.527.021h-.066c-.132 0-.176-.044-.198-.176.022-.836.066-2.553.066-3.322v-.221H2.882c-.836 0-1.166.023-1.848.133l-.154-.793c.748.133 1.145.154 2.112.154h6.249v-2.442H3.322zm8.999-11.288v-.968a7.47 7.47 0 00-.088-1.276c2.223.242 2.354.265 2.354.484 0 .154-.154.242-.88.462v1.298h3.168c.594-.615.771-.813 1.364-1.408.902.684 1.145.902 1.958 1.585.088.11.133.153.133.22 0 .065-.066.111-.221.111h-6.402v1.648c0 .133-.022.199-.133.242-.109.022-.726.066-1.122.066-.153 0-.22-.044-.22-.198.066-.901.066-1.254.088-1.759H7.942v1.627c0 .132-.044.176-.176.221-.154.043-.726.088-1.1.088-.133 0-.177-.045-.198-.177.044-.901.065-1.122.065-1.759H2.729c-.616 0-.946.021-1.849.152l-.154-.813c.748.132 1.101.153 1.958.153h3.873v-.396c0-.792-.022-1.21-.088-1.87.462.066.836.109 1.078.132 1.056.11 1.276.177 1.276.353s-.177.264-.881.483v1.298h4.379zm-6.226 3.764v3.168h3.146v-3.168H6.095zm0 3.674v3.345h3.146v-3.345H6.095zm4.62-.506h3.345v-3.168h-3.345v3.168zm0 3.85h3.345v-3.345h-3.345v3.345zm-.484 16.257c2.288 1.1 3.19 2.002 3.19 3.189 0 .529-.242.836-.66.836-.132 0-.176-.021-.683-.22-.594-.22-1.43-.396-2.398-.506-1.496-.176-2.904-.286-3.41-.286s-.836.242-.836.616c0 .308.462 1.409 1.452 3.433a33.712 33.712 0 013.851-1.782c1.606-.616 2.882-.88 4.225-.88 2.662 0 4.555 1.43 4.555 3.477 0 .857-.44 1.848-1.122 2.508-.792.77-2.003 1.188-3.499 1.188-1.782 0-3.63-.616-4.994-1.649l.153-.331c1.145.572 2.575.924 3.851.924 1.475 0 2.641-.418 3.301-1.188a2.838 2.838 0 00.704-1.891c0-1.52-1.145-2.377-3.168-2.377-1.188 0-2.267.309-4.159 1.209a42.613 42.613 0 00-3.256 1.783c1.056 2.135 1.716 3.608 2.464 5.479.858 2.178 1.078 2.883 1.078 3.609 0 .945-.418 1.649-1.012 1.649-.11 0-.242-.087-.353-.22-.132-.154-.198-.375-.286-.968-.418-2.751-1.32-5.743-2.729-9.065-1.254.836-2.002 1.363-2.266 1.539l-.595.44c-.286.242-.483.33-.77.33-.969 0-2.333-1.408-2.333-2.397 0-.089.022-.199.089-.375.506.748 1.034 1.145 1.54 1.145.616 0 1.936-.594 3.851-1.694-.551-1.232-1.078-2.155-1.519-2.706-.396-.528-.462-.66-.462-.946 0-.726.858-1.497 1.65-1.497.264 0 .286 0 .682.111.132.043.265.043.572.066.088 0 .771 0 1.761.021.55.021.989.021 1.649.021 1.276 0 1.452-.043 1.452-.286 0-.44-.77-1.298-1.782-2.024l.222-.285zm-4.115 35.53c-1.54.529-2.288.814-2.86 1.145-.33.198-.462.242-.638.242-.242 0-.683-.286-.968-.66-.396-.506-.727-1.275-.727-1.672 0-.11.044-.264.132-.484.462.924.858 1.211 1.673 1.211.483 0 2.002-.309 3.74-.771.506-1.276.902-2.839.902-3.608 0-.683-.418-1.057-1.694-1.475.264-.176.396-.221.66-.221.33 0 .88.111 1.474.287.99.285 1.54.682 1.54 1.144 0 .177-.044.265-.308.638-.308.463-.771 1.452-1.408 2.993.968-.22 1.386-.265 1.914-.265 1.893 0 2.795 1.123 2.795 3.434 0 2.816-1.122 6.469-2.398 7.898-.551.594-1.408.99-2.112.99-.374 0-.55-.154-.595-.506-.065-.616-.109-.66-2.442-2.574l.198-.286c1.694.968 2.948 1.518 3.411 1.518.506 0 .857-.462 1.43-1.848.771-1.805 1.298-4.247 1.298-5.919 0-1.474-.396-2.002-1.562-2.002-.66 0-1.057.088-2.311.462-.308.748-.308.748-1.276 2.992-.088.22-.528 1.254-1.298 3.081-.88 2.067-1.606 3.652-1.958 4.268-.154.287-.33.418-.528.418-.396 0-.639-.572-.639-1.518 0-.572.066-.727.507-1.232.439-.484.99-1.408 1.628-2.596.836-1.629.836-1.629 1.76-3.653l.66-1.431zm8.582-1.409c1.716.507 3.058 1.387 4.026 2.641.836 1.078 1.254 2.135 1.254 3.125 0 .748-.33 1.188-.88 1.188-.176 0-.286-.021-.506-.153-.353-.198-.484-.22-.902-.22-.771 0-.88 0-2.751.198l-.088-.309c2.223-.683 2.685-.837 3.367-1.122-.089-.748-.286-1.363-.683-2.112-.704-1.342-1.563-2.179-3.015-2.927l.178-.309zm-8.559 32.715c-.044.199-.374 1.585-.99 4.137-.308 1.299-.374 1.65-.374 2.332 0 .639-.022.814-.066.947a.54.54 0 01-.527.373c-.374 0-.704-.308-.946-.901-.484-1.145-.771-2.927-.771-4.687 0-.66.066-1.475.176-2.354.154-1.276.154-1.276.771-4.159.22-1.033.308-1.584.308-2.046 0-.726-.176-1.276-.615-2.068.483.022.88.308 1.474 1.078.55.683.814 1.255.814 1.738 0 .353-.022.44-.462 1.32-.44.924-.969 2.464-1.188 3.499-.198.836-.286 1.781-.286 2.729 0 1.21.11 1.979.418 2.904.374-.771.55-1.211.792-1.871l1.166-3.08.306.109zm2.772 1.102c-.044.439-.066.637-.066.924 0 2.42 1.387 3.41 4.797 3.41.638 0 1.276-.045 1.87-.154.462-.066.462-.066 1.166-.352.133-.045.242-.066.33-.066.572 0 1.387.77 1.387 1.298 0 .265-.176.44-.484.551-.462.153-1.519.241-2.75.241-2.751 0-4.709-.462-5.699-1.342-.792-.727-1.188-1.65-1.188-2.859 0-.551.066-1.035.265-1.739l.372.088zm-.044-6.998c.77.463 1.254.594 2.046.594 1.364 0 3.499-.483 4.423-.99.286-.153.33-.175.484-.175.176 0 .462.109.77.308.462.264.683.527.683.814 0 .285-.154.418-.616.506-1.452.22-2.267.418-3.125.77-.682.287-1.958.99-2.838 1.563l-.22-.221c.989-.836 1.737-1.451 2.09-1.716-.462.022-.704.044-.902.044-1.232 0-2.046-.33-2.992-1.232l.197-.265z"/></g></svg>