<svg version="1.1" baseProfile="tiny" id="レイヤー_1" xmlns="http://www.w3.org/2000/svg" x="0" y="0" width="118.177" height="23.126" viewBox="0 0 118.177 23.126" xml:space="preserve"><metadata><?xpacket begin="﻿" id="W5M0MpCehiHzreSzNTczkc9d"?><x:xmpmeta xmlns:x="adobe:ns:meta/" x:xmptk="Adobe XMP Core 5.3-c011 66.145661, 2012/02/06-14:56:27"><rdf:RDF xmlns:rdf="http://www.w3.org/1999/02/22-rdf-syntax-ns#"><rdf:Description xmlns:dc="http://purl.org/dc/elements/1.1/"><dc:format>image/svg+xml</dc:format><dc:title><rdf:Alt><rdf:li xml:lang="x-default">Web</rdf:li></rdf:Alt></dc:title></rdf:Description><rdf:Description xmlns:xmp="http://ns.adobe.com/xap/1.0/" xmlns:xmpGImg="http://ns.adobe.com/xap/1.0/g/img/"><xmp:CreatorTool>Adobe Illustrator CS6 (Windows)</xmp:CreatorTool><xmp:CreateDate>2017-07-11T15:57:01+09:00</xmp:CreateDate><xmp:ModifyDate>2017-07-11T15:57:02+09:00</xmp:ModifyDate><xmp:MetadataDate>2017-07-11T15:57:02+09:00</xmp:MetadataDate><xmp:Thumbnails><rdf:Alt><rdf:li rdf:parseType="Resource"><xmpGImg:width>256</xmpGImg:width><xmpGImg:height>52</xmpGImg:height><xmpGImg:format>JPEG</xmpGImg:format><xmpGImg:image>/9j/4AAQSkZJRgABAgEASABIAAD/7QAsUGhvdG9zaG9wIDMuMAA4QklNA+0AAAAAABAASAAAAAEA AQBIAAAAAQAB/+4ADkFkb2JlAGTAAAAAAf/bAIQABgQEBAUEBgUFBgkGBQYJCwgGBggLDAoKCwoK DBAMDAwMDAwQDA4PEA8ODBMTFBQTExwbGxscHx8fHx8fHx8fHwEHBwcNDA0YEBAYGhURFRofHx8f Hx8fHx8fHx8fHx8fHx8fHx8fHx8fHx8fHx8fHx8fHx8fHx8fHx8fHx8fHx8f/8AAEQgANAEAAwER AAIRAQMRAf/EAaIAAAAHAQEBAQEAAAAAAAAAAAQFAwIGAQAHCAkKCwEAAgIDAQEBAQEAAAAAAAAA AQACAwQFBgcICQoLEAACAQMDAgQCBgcDBAIGAnMBAgMRBAAFIRIxQVEGE2EicYEUMpGhBxWxQiPB UtHhMxZi8CRygvElQzRTkqKyY3PCNUQnk6OzNhdUZHTD0uIIJoMJChgZhJRFRqS0VtNVKBry4/PE 1OT0ZXWFlaW1xdXl9WZ2hpamtsbW5vY3R1dnd4eXp7fH1+f3OEhYaHiImKi4yNjo+Ck5SVlpeYmZ qbnJ2en5KjpKWmp6ipqqusra6voRAAICAQIDBQUEBQYECAMDbQEAAhEDBCESMUEFURNhIgZxgZEy obHwFMHR4SNCFVJicvEzJDRDghaSUyWiY7LCB3PSNeJEgxdUkwgJChgZJjZFGidkdFU38qOzwygp 0+PzhJSktMTU5PRldYWVpbXF1eX1RlZmdoaWprbG1ub2R1dnd4eXp7fH1+f3OEhYaHiImKi4yNjo +DlJWWl5iZmpucnZ6fkqOkpaanqKmqq6ytrq+v/aAAwDAQACEQMRAD8A7v50ufzbg1K3Hk6z0a80 6SP9+dSeeKWOVSe8bUZWFKUWoNa4DbKPD1Soap+f9BXQvLpPci+ugK/8icG6ai3+lPz+/wCrD5e/ 6Trr/qjjutRYN+ZP58fmb+XkljFr2h6K82oK7ww2l5PK4WMgFnVkQqpLUU96HwwGRDOOMS5Ml8te evzj8zaLba1oml+W7zTroExTLfXQ3BoysphqrKdiDhBLExiO9hHnT8s/+ckfM3nGz80JqGmaVdaY OOlw2d3MI4Aft/aiPMyft8tmGxFNsiQWcZRAp775X/xJ+gLH/Eothrojpf8A1Jna3LgkVQuqNutC RTY1AqN8mGk1eyaYUOxV2KuxV2KrZZY4o3llcRxRgs7sQFVQKkknoBirzDytrmp/mZ5kk1m2mltP y+0S44aYkZaN9WvIWqZ5SOLfVoXHwJ0ZvtdOIiN2wjhHm9RyTW7FXk//ADkT+amr/l75e0i60R4f 0re34X0LhPUSS1iiZpgQCpHxtGKgg75GRpsxw4izb8v/ADBrnmHylYaxrelfoa+vIxKbL1PV+BhV H6KV5j4uB3HffCCxkKLIsLF2KoddS05tQfTluoTqEcYnksxIpmWJiVWQx15BSwoGpTFaRGKuxVKv L3mny/5ignn0a9jvFtZntrpF5LJDNGaNHLG4V0YU6MBgBSQQ8X/Lz80fzN1T88PMPkmea1vdD067 vpXknjCTwWcNxwjWJ4vTDH97GvxqfnkQTdNsoDht6fYfmp5Nu/POo+SDd/V9f09kVYZqKtxziWU+ g9SGZOdGU0bY0BG+SvemvgNWnej+Z/LutPOmk6na38tqxjuoreVJHidTxKyIpLIajowxtBBDxXz1 +bn5maD+ett5O0dLS903Vfqa2lpeRFRGJhxkkE0fF6BlZjXl7DtkTI22xgDG3vorTfrk2l2KsI/M fTvNFpHH5t8pySSaxpMZ+taMzMbfUbNTzeAx9FmXdopFHKtV3BwFnEjkU78lecdF84eW7PX9HkL2 l0u8bUEkUi7PFIorR0Ox+8bEYg2xlGjSeYUOxV41+b3/ADkn5Z8mJPpeiGPWvMoqvpI3K1tn6fv3 U7sD/utTXxK5CU6bYYiXhP5VeUJvze836z5l88ahd3NlpcaXWo+hFJJJODXjbx+irFFCofgjXkRs o7iAF826cuEUH1F5G89/lDJbRaJ5T1PTrVISUh0pKWcob9r/AEeURSFq/a+GteuWghx5Rl1ZzhYO xV2KuxV2KuxV2KvHf+cj/MmpDSdH8haJJw1nzpdLYlxWqWnJVlJp0DF1U/5PLISPRtxDr3PUfLmg ad5e0Gw0PTU9Oy06BLeAdyEFOTeLMfiY9zkwGsmymOKHYq+NfzyuNY/MTU/M3nCwcr5P8krDp9lc MKpc3EtzHFL6XY1aUuW3+FU/mGVS3crH6aHUp/qNx+aGn/kTZ/mJ/jvVDfzGNjYFY/SEUs/oIA1C /L9vl36U74d6tiK4qpU81z/mfon5L6P5/i8+6nLfX4t5LiyYR+kFuhVQjAcgU7k1r7Ym6tRRlVLv Pc/5leWvyf8AL/nmHz5qlxfautnJPaOIliUXtuZwEIXl8FKVJ39sTdWsaMqpkvkn8hG1220P8xNQ 846yPNOp2drqD30LQoyGaBGEY5pJVVQ8KHYjtTbCI9WMslbVs9/UEKASWIFCxpU++1Bk2lvFXzv5 n07zJ5R/5yc0fUPLdvM2m+blh/TMEat6DUYxXLuF+GsSKs/LxJ8TWs7FvBBhv0Qf5az2Oi/85D/m hqt69Lewtbu4mlAPwxtcQzOAK7n4dvHEcyst4hmf5QflH9W1S9/MHzfarJ5x1q5kvYbaX4hp8czF ljUHpLxajH9kfCKb1MY9WM59ByVvPf5KXuo/mRoPnvynex6RqdtdQnXF+JBcW6MC7jgG5SNHWNlY UcUqRTcmO9ojPaiwj8zIDH/zll5KcmomtbVwPCktyn/GmRP1M4/QX0lljQ7FXYq8M0KYfl1/zkBe eWUHpeWfPcf6Q0+PpHBqChvUVa7DmyMKD+ZB2yA2LcfVG+5nnmr84vI/l65fT/rUmr64uy6JpMZv Lwt/KUjqqH/XYZIyDAQJedavb/8AOQn5nk2scC/l95Ul2k9Zy2oSx135BOMo2/Y/djsScjuWY4Y+ ZUdf/wCcd/y+8lflV5mvFtzq2tw6ZcOup3gBKOsZIaGIfBHQjY7t/lYmIAUZCSEL/wA4W/8AKMeY /wDmNh/5NYMac/N6V+Z35H+SfP8AbySXtuLHW+NINZtlAmBA+ESrssy+zb+BGSMQWuOQh83yecvz o/IzzKuh6jdNqOkD4ra3uWeazuIAacraRvjiI7qpFD1U7Vrshv4YzD6u/Lzz5pHnryra+YdLDRxT 1jnt5PtwzJtJGxGxp2PcUOWg248o0aZJhYuxV2KuxV2KvArpzrv/ADl7bQynlF5Z0nlHGTUBpIS1 aeNb0H6BkP4m7lB77k2l2KsB/OTzHb6X5bisLq7u9MtdZl+qXOp2drLdSRQkVkjj9INwmmWqRswo Nz1AGRkWcBu8p/Nnz3+Wcf5F6h5R8rw3Vmv+iw2VpJp95br+7u4pnd5polSrBGJLPyZsjIimyETx WWKeY/zH8t3f/OMOmeWI/rX6XAghZTbTiAGC55lvrDIISGVduLE12wE7MhE8dt+fPzI8rah/zjd5 e8tW8lx+mI1s4nhktZ4462wIcrOyCFxttxcnEnZYxPFat+Z/5keUNU/5x48seXLaS4fWILfTYzHJ a3EUavaW4jlKzSIsTjrTgx64k7LCJ4iWY6f/AM5CWOhflT5VtvLGk3eva3bWNnZ3dv8AVrmOCH6t CscxM3p8XPJKLwJ8T0oTxbMPDsm3sP5fee7LzpoK6rb2V3p0qt6V1ZXsLxPHKACVDMAsi77Mv00O 2TBtrlGiySVWeN1VzGzAhZFoSpI6gMCNvcYWLyvV9M/PTStH1HUZPOWktFp8M1whl03jyjhQvWV1 eiEhd+KmmR3bAY9z5z/Kvz15rvfPmt69Prtpob6wFOqatd2X1m0SV5VMAZVokPxr8LuwUd96ZWDu 3ziKp735E/J38xvL/my48xzeexqdvrDeprNubduNyjLRWjIl4xuin92yj4RtTjtkxEtMpgiqQmjf mp5r8m/mpH+XHneQ6pYalJGvl3XyipcMlw3CBZxGFR/j/dFgoPIVNQdm6NFTAEWEl/NP/wBau8hf 8wVt/wBRN5gP1MofQX0ZljQ7FXYq8D/5ywDaXbeS/N8IIudF1hVSRevxqJ6du9rkJt2HqHutrY2N orLaW8Vurnk4iRUBPieIFTk2l5Tdf85K+TtM866r5U1yyu7O6064a3guYEN3HMAKg8Ix6qsa/ZCt 88jxtnhGrSj8yPz0/KjX/Kes+V5NYutNvNRtmgV5tPuwULUK8kKK1DgMgyjjkDbGPyZ88fld+VOg Xdlqmu3VxdarOLkudMvIIwiIEUR+onJ/Et+HciJATOJkWf6l/wA5P/llb6JcapZPfX6xAiFUs7iO OSX9mP1pEEa1PWp+/pkuMMBiKVab5l/Ln/nIjyrcaDeQy6ZrtkouRCeLzWzVC+tBLQLJGSwVwQD4 gfCcFiSSDA29G/LL8vNM8geU4PL1hM90Ekee4u5AFaWaQ/E3EEhRQBQPAeO+SAphKVm2V4WLsVdi rsVdirwHS4xZf85h6u0xp+lNIRratN+NtAppv/y7tkP4m4/Q9+ybS7FXYq8v/wCcmwP+VIeZPb6l T/pPt8jPk2YvqecebgB/zhxpgAoPRsjt4m7ByJ+lmPrb/M3/ANZJ8t/8YNL/AOI4n6Vj9ZVvzjji b/nFTymz/ajtNEaPenxfVAv/ABFjjL6Vh9Zey/ldLDH+WXk1XdUMmjacsYJALN9TRqL4mgJyY5NU +ZZXhYuxV5J/zkt5mu9P8hp5c0sNLrnm24TS7KCP7bRsQZ6ezArGf9fIzOzZiG99zyz/AJxx8jWs HnP8wPJeupHfQRWv6PvlA+B+MxVitdxQ7qeoO+QiGzLLYEMu/wCcddQ84aF5z8z/AJZar613o/l8 PLp13KD+6X1lWNA1Pszxyeoq9qGnXJR7mOQAgF6p5x8rfl9e6to/mPzQLeK80KX1tMvLm4+rqjhl cE1dFfi6qwDVockQGuJPIPnb82PzL8ot/wA5EeVvMmnXg1fS9HtraG8lsKTVkE9wxWIghZCFmU/C fbrlcju3wieEh6X+X3nn89dZ89Xb6n5VktfJd7OTb/pBVsriygUBUIDfHKzAVZCp+I7Mq5IE21yj EDnu9qybU7FXgn/OYbmfyNoOlxDldXmsxGFB1PC3mSgHzmXIT5N2Hm97ybS+XtDVT/zmffkgEqZi pPY/o0Db6DlY+pyD/doT/nIyOM/85E+SwVBDwaXzFB8X+5Kcb+O2CXNcf0llP/OZwH+BdDPf9Kf9 i8uSycmODmnUkMB/5xNCMg4f4aV+IFBz9IOG2/y98f4Ufx/FIP8AnDC0tV8n69eCJBdSagsLz0HM xxwIyoW60DOxp74MbLPzfRGWNDsVdirsVdirsVeEfnvA3lT8yPI/5nopFnZ3A0vWpAPsQS86MaV/ 3XNN9yjIS2Nt2PcEPdkdXUOhDIwBVgagg9CDk2lvFUs8y6frOoaJdWui6o2japIo+q6isMVx6bgg /FFMrIynoe/gQcBSHkuvfl357892GteUtQ/MuO5trOaCHV7VNDgiPPhHdxDmtwDT4kb4T1FMiQT1 bBIDemOSflHrF1ZH8nrj8ywtvawx30GlS6PEry25kZ1aGY3PN1SVWqA1R/q4OHpbLj/ipFec/wAk /Mtp+XEejeYfzIYeT9GETGJdFQmONGCIztHceqyRcqnc0G/bEx25ojMXsN0XffkV5q83eRdI0F/z Kh1DyraRwNpgg0mDi0cEfpwETR3PJwqGn2vnvh4bHNfEAN1ukl3+T+p67rmn+T7j81ZI9X8nwQjS dNGmfVZIYUiT0p4ClzH61FUD1AWK0oSMHD5p463rm+iNCs9UstHtLTVb8anqEEYS51ARC39Zl25m IM4UnvQ9csDSUdih5n5a8uTeafzEufzD1eNhp+mh9O8nWjgikSkrPflT3nYsIqj7FD/KciBZtsJo UwD8hJWf8+fzS5tV/rl0BXrxS/kUfcKDIx5lnk+kPRpvyn17UL6eXWfP+v3Nm7lobKzkh04BCdkk e2RS+38vHJcLXxjuRmn/AJI/ldZzi5fQYdQu6Dlc6m0moSMR3JumlH3DDwhTkLxr81dO07Tv+cn/ ACBBYWkFrAYdPJhiiREqb24SvECleIAB9h4ZA/U2wPoL6eyxx3Yq7FXg/n+M+ef+chvKvliD97p3 k+M6vq7DdVlZkkSN+xrwhG/ZjkDuW6O0Se9mL/8AORP5OR3M1rP5g+r3Ns5jnhntL2F0dSQysskC moI3GHiDDw5PnzQ/zO8mJ/zk5dec5b0xeW53mSO+eOSlDZ+irFApkCs67fD33pkAd28xPBSj+d35 j+T9e/Ony15h0e++uaPpUVgt3dJHIBWC9lnk4q6qzUSQduuMjusIkRIZH/zlD+afkHzd5T0mw8ua smo3UF/680aRypxjELpyJkRB9phjMgscUCDujNQ/OH8u3/5xvj8rpqwfzAdIhsf0eIpuYnXirAsU CUHEmvKmHiFKIHitj/5B/nR5S/L38utfj1GR59akvTPp+lxq9ZqwIq1l4lEXmnxEmo8DgjKgnJAy L6I/Kf8ANzy9+Y+ivd6eGttStAg1PTZN3hZ68SrUAdG4niw+kA5OMraZwMWc5Jg7FXYq7FXYqlHm 3yvpXmny5f6BqsfqWV/EY5KfaRuqSJ/lIwDL7jARaQaNsH/J/XdW0oy/lr5renmLQIx+jbo7JqGm A8YZ4iepjHwOOo2rvyoInozmOoen5Jref/nh+ZN3+X3kWTWrK1F1f3E6WVnzr6UcsqO4llA3KqIz t3NBkZGgzxx4ixL/AJxa0bzMPLmtebPMTStfeab0XSNMKNJHGppNTagkaRuI6cQKbUwQZZSLoMb/ AOcgrjUtN/PL8u9U0lXOpMYoEVOsi/WuLRbdnSZlb2OCXMMsf0l9D6tptvqmlXumXI5W19BLbTqR WqTIUYU+TZY0gvn7/nD3UtfjsfM/lq/V/qWj3MZg51pFPIZFniFfeINx7Gp75XBuzAbFZ/zl1oN5 p/8Ah3z/AKRI9rqenXH1KW7hPGRa1mt3qOyMrj/ZUxmOq4T0e5eRtavNc8l6FrN7GIbzUbC2uriM AqBJLErtxB6KSaj2yYaZCinmFDsVfLv/ADjM8t1+dPny+4N6cgui7HcBpb8MqlvE8T92Vw5uRl+k PqLLHHdir5a/O2WSX/nKPyKgX+5fR0HGtSv6Rkck/wDBHK5fU5EPoL6lyxx3Yqxzz950tPKPl+TU Xia7v5mFtpOmxVMt3eS7RQRqKk1O5oNlqcBNMoxspB+Tn5eXvlfSr3VtecXHnHzHMb7XbgEEI7ks luhG3GLkem1a02pgiKTOV8uTO4fqPry+j6X1jb1+HHn7c6b/AH5Jgr4q7FXYq7FXYq7FXYq7FXYq 7FXYq7FWNeb/APBv17Qv05T9K/XU/QPo+p9b9f8Ab9L0P3vp8K+t+xwrz2wFkLZLhYobUP0d9Vb9 I+j9UqvP6xx9OtRxrz+H7VKYqESKUFOnanSmKqUv1T1ofV9P1/i9Dnx51p8XCu/zpiqriqnD9WrJ 6HCvM+rwp9vavKn7XzxVDaz+hf0dL+mvq36N+H1vrnp+hXkOPL1fg+1Sle+KQi4/T9NfTp6dBw40 pSm1KdsULsVdiqXaR/hz1b39D/U/V9dv0j9T9Ll9YqeXr+nv6levLfFJtMcUOxVJrv8AwZ/iez+u fo7/ABT6Lfo/1vQ/SHoVPL0eX77068q8duuBO9eSc4UOxVjd9/g3/HWn/X+P+KPqkn6H9f1OPo8j 6/1Xl+59Wn95w+PhSvw4OrLemSYWL//Z</xmpGImg:image></rdf:li></rdf:Alt></xmp:Thumbnails></rdf:Description><rdf:Description xmlns:xmpMM="http://ns.adobe.com/xap/1.0/mm/" xmlns:stRef="http://ns.adobe.com/xap/1.0/sType/ResourceRef#" xmlns:stEvt="http://ns.adobe.com/xap/1.0/sType/ResourceEvent#"><xmpMM:RenditionClass>proof:pdf</xmpMM:RenditionClass><xmpMM:OriginalDocumentID>uuid:65E6390686CF11DBA6E2D887CEACB407</xmpMM:OriginalDocumentID><xmpMM:DocumentID>xmp.did:8C07AA7AFA65E711A588CAE2881F51E6</xmpMM:DocumentID><xmpMM:InstanceID>xmp.iid:8C07AA7AFA65E711A588CAE2881F51E6</xmpMM:InstanceID><xmpMM:DerivedFrom rdf:parseType="Resource"><stRef:instanceID>uuid:c5b5eddb-66da-6741-a40d-cc810f9d042d</stRef:instanceID><stRef:documentID>xmp.did:FB05051EC465E111835FF2FC000FBA2B</stRef:documentID><stRef:originalDocumentID>uuid:65E6390686CF11DBA6E2D887CEACB407</stRef:originalDocumentID><stRef:renditionClass>proof:pdf</stRef:renditionClass></xmpMM:DerivedFrom><xmpMM:History><rdf:Seq><rdf:li rdf:parseType="Resource"><stEvt:action>saved</stEvt:action><stEvt:instanceID>xmp.iid:8C07AA7AFA65E711A588CAE2881F51E6</stEvt:instanceID><stEvt:when>2017-07-11T15:57:02+09:00</stEvt:when><stEvt:softwareAgent>Adobe Illustrator CS6 (Windows)</stEvt:softwareAgent><stEvt:changed>/</stEvt:changed></rdf:li></rdf:Seq></xmpMM:History></rdf:Description><rdf:Description xmlns:illustrator="http://ns.adobe.com/illustrator/1.0/"><illustrator:StartupProfile>Web</illustrator:StartupProfile></rdf:Description><rdf:Description xmlns:xmpTPg="http://ns.adobe.com/xap/1.0/t/pg/" xmlns:stDim="http://ns.adobe.com/xap/1.0/sType/Dimensions#" xmlns:xmpG="http://ns.adobe.com/xap/1.0/g/"><xmpTPg:NPages>1</xmpTPg:NPages><xmpTPg:HasVisibleTransparency>False</xmpTPg:HasVisibleTransparency><xmpTPg:HasVisibleOverprint>False</xmpTPg:HasVisibleOverprint><xmpTPg:MaxPageSize rdf:parseType="Resource"><stDim:w>118.176758</stDim:w><stDim:h>23.125977</stDim:h><stDim:unit>Pixels</stDim:unit></xmpTPg:MaxPageSize><xmpTPg:PlateNames><rdf:Seq><rdf:li>Cyan</rdf:li><rdf:li>Magenta</rdf:li><rdf:li>Yellow</rdf:li><rdf:li>Black</rdf:li></rdf:Seq></xmpTPg:PlateNames><xmpTPg:SwatchGroups><rdf:Seq><rdf:li rdf:parseType="Resource"><xmpG:groupName>初期設定のスウォッチグループ</xmpG:groupName><xmpG:groupType>0</xmpG:groupType><xmpG:Colorants><rdf:Seq><rdf:li rdf:parseType="Resource"><xmpG:swatchName>ホワイト</xmpG:swatchName><xmpG:mode>RGB</xmpG:mode><xmpG:type>PROCESS</xmpG:type><xmpG:red>255</xmpG:red><xmpG:green>255</xmpG:green><xmpG:blue>255</xmpG:blue></rdf:li><rdf:li rdf:parseType="Resource"><xmpG:swatchName>ブラック</xmpG:swatchName><xmpG:mode>RGB</xmpG:mode><xmpG:type>PROCESS</xmpG:type><xmpG:red>0</xmpG:red><xmpG:green>0</xmpG:green><xmpG:blue>0</xmpG:blue></rdf:li><rdf:li rdf:parseType="Resource"><xmpG:swatchName>RGB レッド</xmpG:swatchName><xmpG:mode>RGB</xmpG:mode><xmpG:type>PROCESS</xmpG:type><xmpG:red>255</xmpG:red><xmpG:green>0</xmpG:green><xmpG:blue>0</xmpG:blue></rdf:li><rdf:li rdf:parseType="Resource"><xmpG:swatchName>RGB イエロー</xmpG:swatchName><xmpG:mode>RGB</xmpG:mode><xmpG:type>PROCESS</xmpG:type><xmpG:red>255</xmpG:red><xmpG:green>255</xmpG:green><xmpG:blue>0</xmpG:blue></rdf:li><rdf:li rdf:parseType="Resource"><xmpG:swatchName>RGB グリーン</xmpG:swatchName><xmpG:mode>RGB</xmpG:mode><xmpG:type>PROCESS</xmpG:type><xmpG:red>0</xmpG:red><xmpG:green>255</xmpG:green><xmpG:blue>0</xmpG:blue></rdf:li><rdf:li rdf:parseType="Resource"><xmpG:swatchName>RGB シアン</xmpG:swatchName><xmpG:mode>RGB</xmpG:mode><xmpG:type>PROCESS</xmpG:type><xmpG:red>0</xmpG:red><xmpG:green>255</xmpG:green><xmpG:blue>255</xmpG:blue></rdf:li><rdf:li rdf:parseType="Resource"><xmpG:swatchName>RGB ブルー</xmpG:swatchName><xmpG:mode>RGB</xmpG:mode><xmpG:type>PROCESS</xmpG:type><xmpG:red>0</xmpG:red><xmpG:green>0</xmpG:green><xmpG:blue>255</xmpG:blue></rdf:li><rdf:li rdf:parseType="Resource"><xmpG:swatchName>RGB マゼンタ</xmpG:swatchName><xmpG:mode>RGB</xmpG:mode><xmpG:type>PROCESS</xmpG:type><xmpG:red>255</xmpG:red><xmpG:green>0</xmpG:green><xmpG:blue>255</xmpG:blue></rdf:li><rdf:li rdf:parseType="Resource"><xmpG:swatchName>R=193 G=39 B=45</xmpG:swatchName><xmpG:mode>RGB</xmpG:mode><xmpG:type>PROCESS</xmpG:type><xmpG:red>193</xmpG:red><xmpG:green>39</xmpG:green><xmpG:blue>45</xmpG:blue></rdf:li><rdf:li rdf:parseType="Resource"><xmpG:swatchName>R=237 G=28 B=36</xmpG:swatchName><xmpG:mode>RGB</xmpG:mode><xmpG:type>PROCESS</xmpG:type><xmpG:red>237</xmpG:red><xmpG:green>28</xmpG:green><xmpG:blue>36</xmpG:blue></rdf:li><rdf:li rdf:parseType="Resource"><xmpG:swatchName>R=241 G=90 B=36</xmpG:swatchName><xmpG:mode>RGB</xmpG:mode><xmpG:type>PROCESS</xmpG:type><xmpG:red>241</xmpG:red><xmpG:green>90</xmpG:green><xmpG:blue>36</xmpG:blue></rdf:li><rdf:li rdf:parseType="Resource"><xmpG:swatchName>R=247 G=147 B=30</xmpG:swatchName><xmpG:mode>RGB</xmpG:mode><xmpG:type>PROCESS</xmpG:type><xmpG:red>247</xmpG:red><xmpG:green>147</xmpG:green><xmpG:blue>30</xmpG:blue></rdf:li><rdf:li rdf:parseType="Resource"><xmpG:swatchName>R=251 G=176 B=59</xmpG:swatchName><xmpG:mode>RGB</xmpG:mode><xmpG:type>PROCESS</xmpG:type><xmpG:red>251</xmpG:red><xmpG:green>176</xmpG:green><xmpG:blue>59</xmpG:blue></rdf:li><rdf:li rdf:parseType="Resource"><xmpG:swatchName>R=252 G=238 B=33</xmpG:swatchName><xmpG:mode>RGB</xmpG:mode><xmpG:type>PROCESS</xmpG:type><xmpG:red>252</xmpG:red><xmpG:green>238</xmpG:green><xmpG:blue>33</xmpG:blue></rdf:li><rdf:li rdf:parseType="Resource"><xmpG:swatchName>R=217 G=224 B=33</xmpG:swatchName><xmpG:mode>RGB</xmpG:mode><xmpG:type>PROCESS</xmpG:type><xmpG:red>217</xmpG:red><xmpG:green>224</xmpG:green><xmpG:blue>33</xmpG:blue></rdf:li><rdf:li rdf:parseType="Resource"><xmpG:swatchName>R=140 G=198 B=63</xmpG:swatchName><xmpG:mode>RGB</xmpG:mode><xmpG:type>PROCESS</xmpG:type><xmpG:red>140</xmpG:red><xmpG:green>198</xmpG:green><xmpG:blue>63</xmpG:blue></rdf:li><rdf:li rdf:parseType="Resource"><xmpG:swatchName>R=57 G=181 B=74</xmpG:swatchName><xmpG:mode>RGB</xmpG:mode><xmpG:type>PROCESS</xmpG:type><xmpG:red>57</xmpG:red><xmpG:green>181</xmpG:green><xmpG:blue>74</xmpG:blue></rdf:li><rdf:li rdf:parseType="Resource"><xmpG:swatchName>R=0 G=146 B=69</xmpG:swatchName><xmpG:mode>RGB</xmpG:mode><xmpG:type>PROCESS</xmpG:type><xmpG:red>0</xmpG:red><xmpG:green>146</xmpG:green><xmpG:blue>69</xmpG:blue></rdf:li><rdf:li rdf:parseType="Resource"><xmpG:swatchName>R=0 G=104 B=55</xmpG:swatchName><xmpG:mode>RGB</xmpG:mode><xmpG:type>PROCESS</xmpG:type><xmpG:red>0</xmpG:red><xmpG:green>104</xmpG:green><xmpG:blue>55</xmpG:blue></rdf:li><rdf:li rdf:parseType="Resource"><xmpG:swatchName>R=34 G=181 B=115</xmpG:swatchName><xmpG:mode>RGB</xmpG:mode><xmpG:type>PROCESS</xmpG:type><xmpG:red>34</xmpG:red><xmpG:green>181</xmpG:green><xmpG:blue>115</xmpG:blue></rdf:li><rdf:li rdf:parseType="Resource"><xmpG:swatchName>R=0 G=169 B=157</xmpG:swatchName><xmpG:mode>RGB</xmpG:mode><xmpG:type>PROCESS</xmpG:type><xmpG:red>0</xmpG:red><xmpG:green>169</xmpG:green><xmpG:blue>157</xmpG:blue></rdf:li><rdf:li rdf:parseType="Resource"><xmpG:swatchName>R=41 G=171 B=226</xmpG:swatchName><xmpG:mode>RGB</xmpG:mode><xmpG:type>PROCESS</xmpG:type><xmpG:red>41</xmpG:red><xmpG:green>171</xmpG:green><xmpG:blue>226</xmpG:blue></rdf:li><rdf:li rdf:parseType="Resource"><xmpG:swatchName>R=0 G=113 B=188</xmpG:swatchName><xmpG:mode>RGB</xmpG:mode><xmpG:type>PROCESS</xmpG:type><xmpG:red>0</xmpG:red><xmpG:green>113</xmpG:green><xmpG:blue>188</xmpG:blue></rdf:li><rdf:li rdf:parseType="Resource"><xmpG:swatchName>R=46 G=49 B=146</xmpG:swatchName><xmpG:mode>RGB</xmpG:mode><xmpG:type>PROCESS</xmpG:type><xmpG:red>46</xmpG:red><xmpG:green>49</xmpG:green><xmpG:blue>146</xmpG:blue></rdf:li><rdf:li rdf:parseType="Resource"><xmpG:swatchName>R=27 G=20 B=100</xmpG:swatchName><xmpG:mode>RGB</xmpG:mode><xmpG:type>PROCESS</xmpG:type><xmpG:red>27</xmpG:red><xmpG:green>20</xmpG:green><xmpG:blue>100</xmpG:blue></rdf:li><rdf:li rdf:parseType="Resource"><xmpG:swatchName>R=102 G=45 B=145</xmpG:swatchName><xmpG:mode>RGB</xmpG:mode><xmpG:type>PROCESS</xmpG:type><xmpG:red>102</xmpG:red><xmpG:green>45</xmpG:green><xmpG:blue>145</xmpG:blue></rdf:li><rdf:li rdf:parseType="Resource"><xmpG:swatchName>R=147 G=39 B=143</xmpG:swatchName><xmpG:mode>RGB</xmpG:mode><xmpG:type>PROCESS</xmpG:type><xmpG:red>147</xmpG:red><xmpG:green>39</xmpG:green><xmpG:blue>143</xmpG:blue></rdf:li><rdf:li rdf:parseType="Resource"><xmpG:swatchName>R=158 G=0 B=93</xmpG:swatchName><xmpG:mode>RGB</xmpG:mode><xmpG:type>PROCESS</xmpG:type><xmpG:red>158</xmpG:red><xmpG:green>0</xmpG:green><xmpG:blue>93</xmpG:blue></rdf:li><rdf:li rdf:parseType="Resource"><xmpG:swatchName>R=212 G=20 B=90</xmpG:swatchName><xmpG:mode>RGB</xmpG:mode><xmpG:type>PROCESS</xmpG:type><xmpG:red>212</xmpG:red><xmpG:green>20</xmpG:green><xmpG:blue>90</xmpG:blue></rdf:li><rdf:li rdf:parseType="Resource"><xmpG:swatchName>R=237 G=30 B=121</xmpG:swatchName><xmpG:mode>RGB</xmpG:mode><xmpG:type>PROCESS</xmpG:type><xmpG:red>237</xmpG:red><xmpG:green>30</xmpG:green><xmpG:blue>121</xmpG:blue></rdf:li><rdf:li rdf:parseType="Resource"><xmpG:swatchName>R=199 G=178 B=153</xmpG:swatchName><xmpG:mode>RGB</xmpG:mode><xmpG:type>PROCESS</xmpG:type><xmpG:red>199</xmpG:red><xmpG:green>178</xmpG:green><xmpG:blue>153</xmpG:blue></rdf:li><rdf:li rdf:parseType="Resource"><xmpG:swatchName>R=153 G=134 B=117</xmpG:swatchName><xmpG:mode>RGB</xmpG:mode><xmpG:type>PROCESS</xmpG:type><xmpG:red>153</xmpG:red><xmpG:green>134</xmpG:green><xmpG:blue>117</xmpG:blue></rdf:li><rdf:li rdf:parseType="Resource"><xmpG:swatchName>R=115 G=99 B=87</xmpG:swatchName><xmpG:mode>RGB</xmpG:mode><xmpG:type>PROCESS</xmpG:type><xmpG:red>115</xmpG:red><xmpG:green>99</xmpG:green><xmpG:blue>87</xmpG:blue></rdf:li><rdf:li rdf:parseType="Resource"><xmpG:swatchName>R=83 G=71 B=65</xmpG:swatchName><xmpG:mode>RGB</xmpG:mode><xmpG:type>PROCESS</xmpG:type><xmpG:red>83</xmpG:red><xmpG:green>71</xmpG:green><xmpG:blue>65</xmpG:blue></rdf:li><rdf:li rdf:parseType="Resource"><xmpG:swatchName>R=198 G=156 B=109</xmpG:swatchName><xmpG:mode>RGB</xmpG:mode><xmpG:type>PROCESS</xmpG:type><xmpG:red>198</xmpG:red><xmpG:green>156</xmpG:green><xmpG:blue>109</xmpG:blue></rdf:li><rdf:li rdf:parseType="Resource"><xmpG:swatchName>R=166 G=124 B=82</xmpG:swatchName><xmpG:mode>RGB</xmpG:mode><xmpG:type>PROCESS</xmpG:type><xmpG:red>166</xmpG:red><xmpG:green>124</xmpG:green><xmpG:blue>82</xmpG:blue></rdf:li><rdf:li rdf:parseType="Resource"><xmpG:swatchName>R=140 G=98 B=57</xmpG:swatchName><xmpG:mode>RGB</xmpG:mode><xmpG:type>PROCESS</xmpG:type><xmpG:red>140</xmpG:red><xmpG:green>98</xmpG:green><xmpG:blue>57</xmpG:blue></rdf:li><rdf:li rdf:parseType="Resource"><xmpG:swatchName>R=117 G=76 B=36</xmpG:swatchName><xmpG:mode>RGB</xmpG:mode><xmpG:type>PROCESS</xmpG:type><xmpG:red>117</xmpG:red><xmpG:green>76</xmpG:green><xmpG:blue>36</xmpG:blue></rdf:li><rdf:li rdf:parseType="Resource"><xmpG:swatchName>R=96 G=56 B=19</xmpG:swatchName><xmpG:mode>RGB</xmpG:mode><xmpG:type>PROCESS</xmpG:type><xmpG:red>96</xmpG:red><xmpG:green>56</xmpG:green><xmpG:blue>19</xmpG:blue></rdf:li><rdf:li rdf:parseType="Resource"><xmpG:swatchName>R=66 G=33 B=11</xmpG:swatchName><xmpG:mode>RGB</xmpG:mode><xmpG:type>PROCESS</xmpG:type><xmpG:red>66</xmpG:red><xmpG:green>33</xmpG:green><xmpG:blue>11</xmpG:blue></rdf:li></rdf:Seq></xmpG:Colorants></rdf:li><rdf:li rdf:parseType="Resource"><xmpG:groupName>グレー</xmpG:groupName><xmpG:groupType>1</xmpG:groupType><xmpG:Colorants><rdf:Seq><rdf:li rdf:parseType="Resource"><xmpG:swatchName>R=0 G=0 B=0</xmpG:swatchName><xmpG:mode>RGB</xmpG:mode><xmpG:type>PROCESS</xmpG:type><xmpG:red>0</xmpG:red><xmpG:green>0</xmpG:green><xmpG:blue>0</xmpG:blue></rdf:li><rdf:li rdf:parseType="Resource"><xmpG:swatchName>R=26 G=26 B=26</xmpG:swatchName><xmpG:mode>RGB</xmpG:mode><xmpG:type>PROCESS</xmpG:type><xmpG:red>26</xmpG:red><xmpG:green>26</xmpG:green><xmpG:blue>26</xmpG:blue></rdf:li><rdf:li rdf:parseType="Resource"><xmpG:swatchName>R=51 G=51 B=51</xmpG:swatchName><xmpG:mode>RGB</xmpG:mode><xmpG:type>PROCESS</xmpG:type><xmpG:red>51</xmpG:red><xmpG:green>51</xmpG:green><xmpG:blue>51</xmpG:blue></rdf:li><rdf:li rdf:parseType="Resource"><xmpG:swatchName>R=77 G=77 B=77</xmpG:swatchName><xmpG:mode>RGB</xmpG:mode><xmpG:type>PROCESS</xmpG:type><xmpG:red>77</xmpG:red><xmpG:green>77</xmpG:green><xmpG:blue>77</xmpG:blue></rdf:li><rdf:li rdf:parseType="Resource"><xmpG:swatchName>R=102 G=102 B=102</xmpG:swatchName><xmpG:mode>RGB</xmpG:mode><xmpG:type>PROCESS</xmpG:type><xmpG:red>102</xmpG:red><xmpG:green>102</xmpG:green><xmpG:blue>102</xmpG:blue></rdf:li><rdf:li rdf:parseType="Resource"><xmpG:swatchName>R=128 G=128 B=128</xmpG:swatchName><xmpG:mode>RGB</xmpG:mode><xmpG:type>PROCESS</xmpG:type><xmpG:red>128</xmpG:red><xmpG:green>128</xmpG:green><xmpG:blue>128</xmpG:blue></rdf:li><rdf:li rdf:parseType="Resource"><xmpG:swatchName>R=153 G=153 B=153</xmpG:swatchName><xmpG:mode>RGB</xmpG:mode><xmpG:type>PROCESS</xmpG:type><xmpG:red>153</xmpG:red><xmpG:green>153</xmpG:green><xmpG:blue>153</xmpG:blue></rdf:li><rdf:li rdf:parseType="Resource"><xmpG:swatchName>R=179 G=179 B=179</xmpG:swatchName><xmpG:mode>RGB</xmpG:mode><xmpG:type>PROCESS</xmpG:type><xmpG:red>179</xmpG:red><xmpG:green>179</xmpG:green><xmpG:blue>179</xmpG:blue></rdf:li><rdf:li rdf:parseType="Resource"><xmpG:swatchName>R=204 G=204 B=204</xmpG:swatchName><xmpG:mode>RGB</xmpG:mode><xmpG:type>PROCESS</xmpG:type><xmpG:red>204</xmpG:red><xmpG:green>204</xmpG:green><xmpG:blue>204</xmpG:blue></rdf:li><rdf:li rdf:parseType="Resource"><xmpG:swatchName>R=230 G=230 B=230</xmpG:swatchName><xmpG:mode>RGB</xmpG:mode><xmpG:type>PROCESS</xmpG:type><xmpG:red>230</xmpG:red><xmpG:green>230</xmpG:green><xmpG:blue>230</xmpG:blue></rdf:li><rdf:li rdf:parseType="Resource"><xmpG:swatchName>R=242 G=242 B=242</xmpG:swatchName><xmpG:mode>RGB</xmpG:mode><xmpG:type>PROCESS</xmpG:type><xmpG:red>242</xmpG:red><xmpG:green>242</xmpG:green><xmpG:blue>242</xmpG:blue></rdf:li></rdf:Seq></xmpG:Colorants></rdf:li><rdf:li rdf:parseType="Resource"><xmpG:groupName>Web カラーグループ</xmpG:groupName><xmpG:groupType>1</xmpG:groupType><xmpG:Colorants><rdf:Seq><rdf:li rdf:parseType="Resource"><xmpG:swatchName>R=63 G=169 B=245</xmpG:swatchName><xmpG:mode>RGB</xmpG:mode><xmpG:type>PROCESS</xmpG:type><xmpG:red>63</xmpG:red><xmpG:green>169</xmpG:green><xmpG:blue>245</xmpG:blue></rdf:li><rdf:li rdf:parseType="Resource"><xmpG:swatchName>R=122 G=201 B=67</xmpG:swatchName><xmpG:mode>RGB</xmpG:mode><xmpG:type>PROCESS</xmpG:type><xmpG:red>122</xmpG:red><xmpG:green>201</xmpG:green><xmpG:blue>67</xmpG:blue></rdf:li><rdf:li rdf:parseType="Resource"><xmpG:swatchName>R=255 G=147 B=30</xmpG:swatchName><xmpG:mode>RGB</xmpG:mode><xmpG:type>PROCESS</xmpG:type><xmpG:red>255</xmpG:red><xmpG:green>147</xmpG:green><xmpG:blue>30</xmpG:blue></rdf:li><rdf:li rdf:parseType="Resource"><xmpG:swatchName>R=255 G=29 B=37</xmpG:swatchName><xmpG:mode>RGB</xmpG:mode><xmpG:type>PROCESS</xmpG:type><xmpG:red>255</xmpG:red><xmpG:green>29</xmpG:green><xmpG:blue>37</xmpG:blue></rdf:li><rdf:li rdf:parseType="Resource"><xmpG:swatchName>R=255 G=123 B=172</xmpG:swatchName><xmpG:mode>RGB</xmpG:mode><xmpG:type>PROCESS</xmpG:type><xmpG:red>255</xmpG:red><xmpG:green>123</xmpG:green><xmpG:blue>172</xmpG:blue></rdf:li><rdf:li rdf:parseType="Resource"><xmpG:swatchName>R=189 G=204 B=212</xmpG:swatchName><xmpG:mode>RGB</xmpG:mode><xmpG:type>PROCESS</xmpG:type><xmpG:red>189</xmpG:red><xmpG:green>204</xmpG:green><xmpG:blue>212</xmpG:blue></rdf:li></rdf:Seq></xmpG:Colorants></rdf:li></rdf:Seq></xmpTPg:SwatchGroups></rdf:Description><rdf:Description xmlns:pdf="http://ns.adobe.com/pdf/1.3/"><pdf:Producer>Adobe PDF library 10.01</pdf:Producer></rdf:Description></rdf:RDF></x:xmpmeta><?xpacket end="w"?></metadata><g fill="#210701"><path d="M4.681 22.127c-.624 0-2.392 0-3.276.052a3.797 3.797 0 01-.572.078c-.077 0-.13-.052-.207-.182l-.521-.598C0 21.347 0 21.347 0 21.321c0-.053.053-.053.104-.053.494 0 3.017.156 3.588.156.208 0 .624 0 .78-.363.078-.183.078-3.068.078-3.537 0-2.027-.026-2.6-.078-3.172 0-.156-.104-.91-.104-1.092s.052-.234.207-.234c.156 0 .65.234 1.353.547.182.078.702.26 1.17.26h10.011c.26 0 .441-.026.624-.131.13-.077.598-.779.78-.779.077 0 2.184 1.092 2.184 1.664 0 .156-.676.65-.754.806-.078.183-.078.65-.078 4.837 0 .779 0 1.195.702 1.195.364 0 .572-.078.858-.416.52-.676.571-.754.806-.754.312 0 1.872 1.404 1.872 1.561 0 .312-.546.312-1.378.312H4.681zM5.955 2.34c-2.288 0-3.043.052-3.303.078-.078 0-.468.052-.546.052s-.13-.052-.233-.156l-.494-.598c-.104-.13-.104-.13-.104-.182 0-.052.026-.052.078-.052.182 0 .988.078 1.144.078 1.274.052 2.366.104 3.589.104h11.882c1.145 0 1.353 0 1.664-.442C20.385.13 20.489 0 20.749 0c.391 0 1.639 1.3 1.898 1.508.052.052.364.286.364.468 0 .364-.521.364-1.404.364h-6.448c-.26 0-.416 0-.416.208 0 .156.078.182.702.546.416.234.468.286.468.494 0 .312-.182.364-.806.598-.313.104-2.288 1.638-2.288 1.794 0 .078.052.104.104.156.104.078.234.208.234.39 0 .208-.104.312-.286.468-.286.286-.286.468-.286 2.106 0 .468.078 2.47.078 2.886 0 1.04-1.145 1.144-1.3 1.144-.702 0-.91-.312-.91-.728 0-.338.104-1.82.104-2.132 0-.338 0-2.106-.025-2.288-.026-.104-.078-.26-.286-.26-.104 0-.754.338-.937.442-4.939 2.652-8.632 3.12-8.814 3.12-.13 0-.285-.052-.285-.156 0-.104.857-.39 1.117-.494C5.825 9.022 13.21 3.978 13.21 2.652c0-.312-.286-.312-.494-.312H5.955zm1.117 12.194c-.676 0-.754.391-.754.755v5.382c0 .313.053.754.754.754h.937c.572 0 .78-.234.78-.754v-5.382c0-.442-.13-.755-.754-.755h-.963zm4.421 0c-.442 0-.78.104-.78.755v5.408c0 .702.416.728.78.728h1.092c.442 0 .78-.078.78-.754v-5.408c0-.729-.469-.729-.78-.729h-1.092zm3.068-8.008c1.223 0 8.814 1.898 8.814 4.68 0 .676-.441 1.508-1.04 1.508-.571 0-.702-.182-2.08-1.846-.286-.338-1.819-2.132-5.538-3.874-.208-.104-.441-.208-.441-.286s.078-.182.285-.182zm1.457 8.008c-.183 0-.572 0-.702.416-.053.156-.053 4.681-.053 5.279 0 .806 0 1.195.78 1.195h1.04c.234.026.624 0 .754-.416.052-.156.052-.182.052-5.277 0-.832 0-1.197-.806-1.197h-1.065zm34.072 7.031c.192.216 1.176 1.271 1.176 1.416a.16.16 0 01-.168.145c-.239 0-5.784-3.984-5.784-11.425S50.859.276 51.098.276c.12 0 .168.096.168.144 0 .144-.983 1.2-1.176 1.416a15.721 15.721 0 00-3.456 9.865c0 5.232 2.496 8.664 3.456 9.864zm7.295-11.353c-.097-.12-.097-.12-.097-.168s.049-.048.072-.048c.12 0 .744.072.864.072 1.032.072 2.064.096 3.097.096.336 0 .647-.144.647-.648 0-.936 0-2.52-.023-3.48 0-.576-.072-.576-.168-.576-.12 0-.168.072-.648.72-1.464 1.944-3.048 3.288-3.192 3.288-.072 0-.096-.072-.096-.096 0-.048 1.032-1.512 1.2-1.8 1.032-1.752 2.352-4.513 2.448-5.641.048-.768.048-.864.216-.864.24 0 2.328.72 2.328 1.152 0 .168-.72.672-.864.816-.168.192-.647.984-.647 1.176 0 .288.264.288.672.288h10.2c1.08 0 1.2 0 1.44-.384.336-.527.528-.815.792-.815.313 0 2.04 1.272 2.04 1.536 0 .312-.552.312-1.128.312h-1.536c-.191 0-.552 0-.696.312-.096.216-.096 2.208-.096 2.64 0 .336 0 1.776.12 1.896.144.168.24.168 1.08.168.408 0 .552-.072.888-.672.12-.216.36-.576.696-.576.216 0 2.088 1.249 2.088 1.536 0 .336-.479.336-1.296.336h-2.832c-.336 0-.648 0-.72.384-.024.096-.024 2.28-.024 2.592 0 1.944 0 2.137.576 2.137.432 0 .552 0 .816-.36.647-.841.72-.937.912-.937.384 0 1.848 1.465 1.848 1.68 0 .24-.552.24-1.056.24H61.104c-.552 0-1.271.024-1.824.072-.071 0-.407.049-.479.049s-.12-.049-.192-.145l-.432-.553c-.096-.119-.096-.119-.096-.168 0-.047.048-.047.071-.047.12 0 .696.047.816.071 1.296.097 1.632.097 2.088.097.336 0 .528 0 .721-.168.144-.145.191-.168.191-2.473 0-2.232 0-2.472-.672-2.472-.792 0-1.992 0-2.736.072-.072 0-.432.048-.504.048s-.12-.048-.216-.144l-.455-.551zm1.176 12.098c-.528 0-.816-.48-.816-.912 0-.456.169-.792 1.104-1.561.769-.648 1.056-1.128 1.2-1.68.192-.721.216-.792.36-.792.336 0 .359 1.344.359 1.608.001 2.352-1.463 3.337-2.207 3.337zm5.568-11.521c-.696 0-.696.168-.696 1.608 0 .408-.023 2.833.049 3.12.071.385.359.385.672.385h.647c.265 0 .505 0 .624-.24.097-.217.097-3.457.097-3.985 0-.744-.097-.888-.696-.888h-.697zm.12-5.641c-.384 0-.647 0-.744.384-.072.312-.072 2.112-.072 2.568 0 1.848 0 2.064.793 2.064h.527c.336 0 .576 0 .696-.288.072-.192.072-1.512.072-1.848 0-.384 0-2.376-.072-2.592-.12-.288-.384-.288-.72-.288h-.48zm1.92 15.65c0 .983-.479 1.463-1.031 1.463-.576 0-.721-.432-.721-1.127 0-1.32 0-1.969-.216-2.904-.024-.145-.24-.769-.24-.889 0-.048 0-.119.097-.119.287 0 .84.623 1.104.936.407.527 1.007 1.511 1.007 2.64zm2.16-4.897c.337 0 .624 0 .696-.385.072-.359.072-2.184.072-2.664 0-.36 0-1.584-.072-1.8-.096-.264-.384-.264-.672-.264h-.624c-.744 0-.744.12-.744 1.224 0 .552 0 3.36.096 3.624.097.265.385.265.673.265h.575zm.049-5.736c.72 0 .72-.192.72-1.776 0-.336-.048-2.664-.072-2.832-.072-.408-.384-.408-.696-.408h-.575c-.265 0-.576 0-.673.288-.071.24-.071 2.88-.071 3.384 0 1.176 0 1.344.72 1.344h.647zm3.672 10.801c0 .983-.552 1.271-.96 1.271-.288 0-.601-.096-.744-1.032-.192-1.272-.336-2.136-.769-3.097-.023-.047-.264-.551-.264-.6 0-.048.048-.096.096-.096.337 0 .912.48 1.225.744.479.457 1.416 1.537 1.416 2.81zm-.744-15.818c-.264 0-.624 0-.696.336-.071.288-.071 3.313-.071 3.816 0 .648 0 .864.744.864h.72c.696 0 .744-.216.744-.816 0-.336 0-3.744-.12-3.984-.096-.216-.433-.216-.648-.216h-.673zm-.024 5.641c-.553 0-.721.096-.721.696v3.816c0 .601.36.601.744.601h.696c.264 0 .576 0 .672-.289.072-.168.072-1.896.072-2.256 0-.384 0-2.112-.072-2.28-.096-.288-.408-.288-.672-.288h-.719zm6.792 10.248c0 .337-.072 1.368-.96 1.368-.576 0-.648-.24-.96-1.368-.216-.743-.744-2.16-1.128-2.904-.12-.216-.313-.575-.313-.696 0-.047.048-.071.072-.071.264 0 .984.504 1.2.672 1.585 1.176 2.089 2.159 2.089 2.999zM91.368 9.276c-.144 0-.72.024-.72.408 0 .096.096.192.192.24 1.368.72 3.744 2.448 3.744 3.745 0 .336-.192 1.008-.864 1.008-.456 0-.552-.288-.84-1.2-.576-1.8-2.064-3.168-2.16-3.168-.12 0-.12.072-.12.528 0 .576.048 3.384.048 4.008.024.912.096 5.328.096 6.336 0 1.105-1.032 1.273-1.151 1.273-.288 0-.673-.217-.673-.744 0-.529.192-3.121.217-3.697.023-.312.144-4.607.144-4.824 0-.145-.048-.264-.216-.264-.12 0-.168.072-.528.768-.984 1.801-3.096 4.656-3.408 4.656-.048 0-.072-.023-.072-.072 0-.047.336-.647.408-.768 2.641-5.088 3.097-7.537 3.097-7.705a.52.52 0 00-.553-.528c-.432 0-1.752.072-2.16.096-.048 0-.288.024-.336.024-.096 0-.144-.048-.216-.144L84.84 8.7c-.12-.12-.12-.12-.12-.168s.048-.048.097-.048c.119 0 .72.072.863.072.456.024 2.641.096 2.952.096.576 0 .721-.216.721-.696 0-1.368-.048-3.816-.097-5.088-.023-.264-.168-1.488-.168-1.752 0-.12.049-.264.192-.264.048 0 2.376.456 2.376.888 0 .12-.048.144-.239.336-.192.144-.385.36-.528.984 0 .048-.216 4.705-.216 4.945 0 .648.456.648.84.648.264 0 .792 0 .984-.168.144-.144.815-1.128 1.056-1.128.12 0 1.872 1.272 1.872 1.608 0 .312-.264.312-.912.312h-3.145zM87.12 7.212c-.48 0-.552-.384-.768-1.44-.24-1.104-.792-1.992-1.152-2.592-.024-.048-.072-.12-.072-.192 0-.096.096-.144.168-.144.408 0 2.784 1.68 2.784 3.216 0 .888-.72 1.152-.96 1.152zm4.609.408c-.024 0-.048 0-.048-.072s.456-1.032.552-1.224c.456-1.056 1.032-2.856 1.08-3.865 0-.072.024-.216.145-.216.191 0 1.92 1.176 1.92 1.44 0 .144-.145.24-.216.288-.145.072-.528.264-.744.48-.073.073-2.401 3.169-2.689 3.169zm4.992 8.041c-1.032.216-2.304.504-2.952.695-.096.024-.432.145-.528.145-.071 0-.119-.023-.191-.096l-.576-.457c-.12-.096-.12-.096-.12-.144s.048-.048.648-.12a65.52 65.52 0 003.72-.648l3.744-.791c.744-.168.744-.816.744-.864 0-4.417-.119-8.857-.239-10.417-.024-.264-.217-1.512-.217-1.776 0-.12.072-.216.192-.216.145 0 2.473.408 2.473.816 0 .144-.456.576-.528.672a3.68 3.68 0 00-.24.816c0 .096-.024 3.84-.024 4.512 0 1.08 0 4.656.024 5.473 0 .216.216.408.456.408.096 0 .456-.072.576-.288.144-.24.6-1.417.84-1.417.072 0 2.064.936 2.064 1.32 0 .36-.72.528-.84.553l-2.4.48c-.408.071-.648.359-.648.768 0 1.008.24 5.736.24 6.24 0 .84-.768 1.225-1.224 1.225-.408 0-.696-.313-.696-.793 0-.215.072-1.248.072-1.463.023-.984.096-3.697.096-4.369 0-.576 0-1.176-.696-1.032l-3.77.768zm1.728-3.624c-.504 0-.576-.288-.744-.84-.12-.432-.984-2.016-1.632-2.664-.12-.12-.24-.216-.24-.312 0-.072.096-.096.144-.096.385 0 3.265 1.224 3.265 2.928-.001.96-.673.984-.793.984zm.216-6.025c-.456 0-.72-.528-.912-.888-.384-.744-.624-.96-1.416-1.704-.12-.12-.144-.144-.144-.216 0-.072.048-.072.168-.072.071 0 2.976.456 2.976 1.968 0 .096 0 .912-.672.912zM113.4 1.835c-.192-.216-1.176-1.272-1.176-1.416 0-.048.048-.144.168-.144.24 0 5.784 3.984 5.784 11.425s-5.544 11.425-5.784 11.425a.16.16 0 01-.168-.145c0-.145.983-1.2 1.176-1.416.96-1.2 3.456-4.633 3.456-9.865 0-5.231-2.496-8.663-3.456-9.864z"/></g></svg>