<svg version="1.1" id="レイヤー_1" xmlns="http://www.w3.org/2000/svg" x="0" y="0" width="181" height="401" viewBox="0 0 181 401" xml:space="preserve"><style type="text/css">.st3{fill:#210701}</style><g><g><rect x=".5" y=".5" width="180" height="400" fill="#fff"/><rect x=".5" y=".5" width="180" height="400" fill="none" stroke="#210701" stroke-miterlimit="10"/><rect x="3.5" y="3.5" width="174" height="394" fill="none" stroke="#210701" stroke-width=".5" stroke-miterlimit="10"/></g><g><path class="st3" d="M50.2 49c-.8 1.2-1.4 1.7-2.3 2.3 0 0-.2.1-.3.1 0 0 .4-.4.4-.5.9-1.2 1.7-2.6 1.7-3.9 0-.3 0-.4.1-.4 0 0 1 .4 1.2.5.2.1.3.1.3.2s-.5.4-.5.5l-.6 1.2zm8.3-3.8c.5 0 .6 0 .8-.1.1-.1.5-.9.7-.9.1 0 1.5 1 1.5 1.2 0 .2-.3.2-.8.2h-3.3c-.1 0-.3 0-.4.1-.1.1-.1.2-.1 1.1 0 .7.1 3.9.1 4.5 0 .5 0 .9-.6 1.4-.4.3-.6.3-.7.3-.1 0-.2-.1-.4-.3-.3-.3-.4-.4-1.4-.9l-.2-.1c0-.1.1-.1.1-.1.2 0 .9.1 1.1.1.2 0 .6 0 .8-.1.2-.1.2-.3.2-1.9 0-1.1 0-3.7-.1-3.9-.1-.2-.3-.2-.4-.2h-.9c-.5 0-.5.2-.5.4-.1 3.9-1.2 5.9-4.3 6.9-.1 0-.7.2-.8.2 0 0-.1 0-.1-.1.2-.1.4-.2.5-.3 3-1.7 3.5-4 3.5-6.6 0-.5 0-.6-.4-.6h-4.1s-.1 0-.1-.1l-.3-.3-.1-.1h.7c.7 0 1.4.1 2.1.1h3c.5 0 .5-.1.5-1.4v-1.4c-.1-.2-.2-.2-.4-.2h-4s-.1 0-.1-.1l-.3-.3-.1-.1c.1 0 .6.1.7.1h3.9c.1 0 .4 0 .4-.4 0-.5 0-1.1-.1-1.5 0-.1-.1-.4-.1-.5 0-.1.1-.1.2-.1s1.7.2 1.7.5c0 .1-.1.2-.3.4-.1.1-.1.2-.1.9 0 .6 0 .8.5.8h1c.4 0 .7 0 .9-.2.1-.1.5-.8.7-.8.1 0 1.5.9 1.5 1.1 0 .2-.3.2-.8.2h-3.2c-.1 0-.3 0-.4.2v2.2c0 .3 0 .6.4.6h2.4zm2.2 5.6c-.3 0-.4-.1-.6-.8-.7-2-1.5-2.6-1.8-2.8L58 47c.1 0 .4.1.4.1 1.6.5 2.9 1.8 2.9 2.7.1.4-.1 1-.6 1zm-6.4 7.1c.1.3.5.7 1 .8.6.1.9.2.9.6 0 .9-1.4 1.2-2.4 1.4-.3 0-.3.1-.4.3-.4 1.9-.4 2.2-.4 2.8 0 .2 0 .7.2.7.1 0 .2-.1.3-.2.7-.5 1.7-1 2.8-1 1.9 0 2.6 1.6 2.6 2.7 0 2.5-2.7 3.1-3.9 3.3-.6.1-1.1.1-1.2.1 0 0-.2 0-.2-.1 0 0 .6-.2.7-.3 3-.9 3.5-2.1 3.5-3.1 0-1.8-1.4-1.9-1.7-1.9-1.4 0-2.6 1.1-2.8 1.7-.2.8-.3.9-.6.9-.6 0-.7-1.3-.7-1.4 0-.7.8-4 .8-4.4 0-.1 0-.1-.3-.2-1.9-.2-2.1-1.3-2.1-1.4 0 0 0-.1.1-.1s.4.2.5.3c.6.3 1.5.3 1.8.3.2 0 .2 0 .3-.1.1-.2.3-1 .3-1.4 0-.3-.1-.8-.3-1l-.2-.2c0-.1.4-.2.4-.2.1.1.8.3 1 1.1zm-.5 1.7c0 .1.1.1.1.1.2 0 1-.2 1-.5s-.6-.8-.7-.8c-.1.1-.4 1.2-.4 1.2zM51.3 80c.6 0 1.8-.7 1.8-.8 0-.1-.1-.2-.2-.4-.8-1.1-.9-1.2-.9-1.5 0-.3.5-.8 1.8-.8.2 0 1.3.1 1.5.1s.3-.1.3-.3c0-.1-.1-.3-.1-.4 0-.1.1-.1.1-.1.2 0 .9.6.9 1.2 0 .1-.1.3-.1.3v.1h.2c.4-.1.9-.2 1.4-.2 1.2 0 2.3 1 2.3 2.2 0 .8-.6 1.9-2.1 1.9-1.3 0-2.3-1.1-2.3-1.2 0 0 0-.1.1-.1 0 0 .1 0 .4.1.6.2.9.3 1.2.3.6 0 1.6-.3 1.6-1.3 0-.6-.5-1.4-1.5-1.4s-1.8.5-3.7 1.7l-.1.1.4.7c.7 1.2 1.7 3.1 1.7 4.1 0 .5-.3.8-.6.8-.1 0-.6 0-.6-.8 0-1.2 0-1.3-.4-2.3-.4-1-1-2.2-1.1-2.2-.1 0-.1 0-.2.1-.3.2-1.4.9-1.8.9-.2 0-.9-.6-.9-.8 0-.1.1-.1.2-.1.4.1.7.1.7.1zm2.3-3.1c-.7 0-.7.6-.7.6 0 .2.1.3.5 1 .2.3.2.4.3.4.1 0 1.2-.7 1.4-.8 0 0 .6-.3.6-.4-.2-.1-1.6-.8-2.1-.8zm1.5 16.3c0 .2-.1.3-.8 1.1-1.2 1.4-1.6 1.8-2 2.5-.1.1-.3.6-.3.6s0 .1.1.1c.2-.1.5-.3.6-.4 1-.6 1.6-.7 1.9-.7 1.8 0 2 2 2 2.6 0 .2-.1 1.2-.1 1.4 0 1.1.9 1.1 1.1 1.1.8 0 1.6-.6 2.3-1.4.1-.1.3-.4.3-.4v.1c0 .3-.4 1-.7 1.4-.8.9-1.9 1.5-2.8 1.5-.8 0-1.3-.8-1.3-1.6 0-.3.2-1.9.2-2.2 0-.8-.3-2-1.4-2-.3 0-2.8.3-3.3 4.1 0 .2-.1 1-.1 1.1 0 .1-.1.5-.5.5-.2 0-.7-.1-.7-1.1 0-.4 0-.5.4-1.4.1-.3.6-1.5.7-1.7.5-1.1.7-1.4 2.2-3.8.1-.1.7-1.3.8-1.6.1-.1.1-.4.1-.6 0-.1-.1-.6-.1-.7 0 0 0-.1.1-.1.5.1 1.3 1.1 1.3 1.6zm-.5 17v.2c.1.5.1 1 .1 1.6 0 1-.2 2.4-1.5 4.4-1.2 1.8-2 2.2-2.6 2.2-1 0-1.9-1.5-1.9-3.4 0-.8.2-2.3 1.7-3.8 1.9-1.9 3.9-1.9 4.8-1.9 1.4 0 2 .3 2.4.5 1.6.8 2.6 2.4 2.6 4.4 0 2-1.1 4.4-3.8 5.3-1.3.5-2.3.6-2.5.6-.1 0-.1 0-.1-.1 0 0 0-.1.4-.2 1.6-.6 4.8-1.9 4.8-5.6 0-.6-.1-4.2-4.2-4.2-.1-.2-.2-.1-.2 0zm-4.8 4.6c0 1 .4 2.3 1.3 2.3.4 0 .8-.2 1.8-1.7.8-1.2 1.5-2.9 1.5-4.4 0-.9-.1-1-.3-1-1.4.1-4.3 2-4.3 4.8zm3.5 15.5c.1 0 .2 0 .3-.1 0 0 .2-.3.3-.3 0 0 1 .4 1 .7 0 .1-.1.2-.2.2-.3.2-.3.2-.3.5-.2 1-.3 1.6-.5 2.4 0 .2-.4 1.1-.4 1.2 0 .5 1.5 1.7 4.3 1.7 1.5 0 2.5-.2 3.6-.6l.3-.1-.1.1c-.5.4-.7.6-.9 1.1 0 .1-.1.5-.2.6h-.9c-3 0-4.2-.2-5.7-1.2-.2-.1-.9-.8-1-.8-.1 0-.8.8-.9.9-.8.8-1.4 1.1-1.7 1.1v-.1s.3-.3.4-.3c.8-.6 1.7-2 1.7-2.4 0-.1-.1-.2-.1-.4-.5-.8-1.1-2.5-1.1-2.9v-.1s.1.1.2.3c.3.9 1 2.1 1.2 2.1.3 0 .7-3.1.7-3.2 0-.3-.2-.3-.3-.3h-.6c-.1 0-.2 0-.3.2-.1.2-.2.4-.5.4-.2 0-.5-.1-.5-.4 0-.2.3-1 .4-1.1.2-.6.8-2.7.8-3.2 0-.2-.1-.2-.3-.2s-.9.1-1 .1c-.1 0-.2-.3-.3-.3-.2 0-1.2 2.1-1.2 2.2 0 .2 0 .2.4.4.1.1.4.2.4.4 0 .1-.1.1-.2.2-.3.2-.3.4-.3.8v5.8c0 .2.1 1.5.1 1.7 0 .2 0 .4-.2.5-.2.2-.5.3-.7.3-.3 0-.3-.1-.3-.3 0-.1.1-.6.1-.7.1-1.3.1-3.9.1-5.3v-2.1c0-.1 0-.3-.1-.3 0 0-.2.3-.3.4-.5.8-1.1 1.4-1.2 1.4 0-.1.2-.3.2-.4.1-.2.9-1.9 1.3-3 .8-2.3.9-2.5.9-3 0-.1 0-.2.1-.2s1.3.6 1.3.9c0 0 0 .1-.1.1l-.1.1c0 .1 1.1.1 1.2.1.2 0 .2 0 .3-.2.2-.3.3-.3.3-.3s.7.4.8.4c.1.1.3.2.3.4 0 .1 0 .1-.1.1-.4.2-.4.2-.5.4 0 .1-.9 3.3-.9 3.3 0 .2.1.2.2.2h.8zm7.2-1.9c-.3 0-.4.1-.4.4v.7c0 .2.1.8.1 1 0 .3-.3.6-.7.6-.3 0-.4-.2-.4-.3 0-.2-.2-.2-.4-.2h-.8c-.2 0-.4 0-.4.4 0 1.3 0 1.4.5 1.4.4 0 .5 0 .7-.3.2-.3.3-.4.4-.4.1 0 1.1.7 1.1.8 0 .2-.3.2-.8.2H58c-.3 0-.4.1-.4.4 0 1 0 1.1.4 1.1h.6c.6 0 .8 0 .9-.2.2-.4.2-.5.4-.5s1.3.8 1.3 1c0 .2-.3.2-.8.2H58c-.2 0-.4 0-.4.4v.6c0 .7-.7.7-.8.7-.4 0-.4-.2-.4-.5 0-.1.1-.7.1-.9 0-.3-.2-.3-.3-.3h-1.5c-.1 0-.1 0-.1-.1l-.3-.3-.1-.1h.1c.3 0 1.6.1 1.9.1.4 0 .4-.1.4-.7s0-.8-.3-.8c-.1 0-.8.1-.9.1 0 0-.1 0-.1-.1l-.3-.3-.1-.1c.2 0 1.1.1 1.3.1.4 0 .4-.2.4-.4v-.9c0-.3-.2-.3-.3-.3-.1 0-.8.1-.9.1 0 0-.1 0-.1-.1l-.3-.3-.1-.1c.1 0 1.1.1 1.3.1.3 0 .3-.1.3-1.2 0-.3 0-.5-.4-.5h-1.9c-.1 0-.1 0-.1-.1l-.3-.3-.1-.1h.7c.5 0 1.2.1 1.7.1.4 0 .4 0 .4-1.1 0-.2 0-.4-.3-.4-.2 0-1.1.1-1.2.1 0 0-.1 0-.1-.1l-.3-.3-.1-.1c.3 0 1.5.1 1.8.1.1 0 .3 0 .3-.3 0-.1 0-.3-.1-.6 0-.1-.1-.4-.1-.4 0-.1.1-.1.1-.1s.9.2 1 .2c.3.1.6.1.6.3 0 .1 0 .1-.3.4-.1.1-.1.2-.1.3 0 .2.1.2.2.2h1c.2 0 .3 0 .4-.2.1-.1.2-.2.3-.2 0 0 .7.3.8.4.1.1.3.2.3.3 0 .1-.4.4-.4.5v.3c0 .1 0 .6.1.6 0 0 .2-.1.2-.2.1-.1.1-.1.3-.1.2 0 .9.5.9.6 0 .2-.3.2-.8.2h-.5zm-1.8-.4c.4 0 .4-.1.4-.9 0-.4 0-.6-.4-.6h-.9c-.4 0-.4.1-.4.8 0 .4 0 .6.4.6h.9zm.1 2.1c.3 0 .4-.1.4-.4 0-1.1 0-1.3-.4-1.3h-.9c-.4 0-.4.1-.4.7 0 .9 0 1 .4 1h.9zm-.4 13.4c.6 0 .7 0 .9-.2.1-.1.5-.6.7-.6.1 0 1.3.8 1.3 1 0 .2-.1.2-.8.2h-9.8c-.6 0-.6.2-.6.9 0 6.3-.6 7.6-.9 8.4-.5 1.2-1.1 2-1.2 2 0 0-.1 0-.1-.1 0 0 .3-.7.3-.8.7-1.9.9-4 .9-8 0-.6 0-2.2-.1-2.8 0-.1-.1-.3-.1-.4 0-.1.2-.1.2-.1.2 0 .9.4 1 .4.2.1.3.1.6.1h3c.3 0 .5 0 .5-.5 0-.3 0-.6-.1-.7 0 0-.1-.2-.1-.3 0-.1.1-.1.2-.1s.7.1.9.1c.1 0 .5.1.5.3 0 .1 0 .1-.3.3-.1 0-.1.2-.1.3 0 .5.3.5.6.5h2.6zm-2.4 5.6c-.4 0-.5.2-.5.5v3.7c0 .9-.1 1.1-.3 1.4-.3.4-.9.8-1.2.8-.1 0-.2 0-.3-.1-.4-.5-.5-.6-.7-.8 0 0-.3-.1-.3-.2s.1-.1.5-.1c1.1 0 1.2-.1 1.3-.4.1-.2.1-1.4.1-1.7 0-.1 0-.4-.2-.4s-3 2.1-3.1 2.4c-.1.2-.1.3-.2.3-.2 0-.9-1.3-.9-1.3 0-.1.1-.1.4-.1.8 0 3.6-1.5 3.8-1.7.1-.2.1-.3.1-1.7 0-.4-.1-.5-.5-.5h-2.7c-.1 0-.1 0-.1-.1l-.3-.3-.1-.1h.8c.4 0 1.2.1 2.1.1h.3c.2 0 .5 0 .5-.5 0-.6 0-.8-.5-.8h-3.3s-.1 0-.1-.1l-.3-.3-.1-.1h.7c.4 0 1.6.1 2.1.1h1c.5 0 .5-.2.5-.7 0-.2 0-.5-.3-.5h-2.6c-.1 0-.1 0-.2-.1l-.3-.3-.1-.1h.7c.4 0 1.2.1 2.1.1.4 0 .5 0 .5-.6v-.5s-.1-.2-.1-.3c0-.1.1-.1.2-.1.2 0 1.4.2 1.4.4 0 .1-.2.3-.2.4-.1.1-.1.3-.1.3 0 .4.2.4.5.4h1.7c.2 0 .3 0 .4-.1 0 0 .3-.3.4-.3.1 0 1 .6 1 .8 0 .1 0 .1-.3.3-.2.1-.2.2-.2.5 0 .2 0 .4.3.4s.3-.1.8-.7c0 0 .1-.1.2-.1s1.1.7 1.1 1c0 .2-.1.2-.8.2h-1.2c-.4 0-.5.2-.5.4v1c0 .8-.6.8-.7.8-.3 0-.3-.1-.4-.3-.1-.3-.3-.3-.4-.3H56zm-3.5 2.6c-.4 0-.5-.2-.9-.8-.1-.2-.4-.6-.6-.7 0 0-.2-.1-.2-.2s.1 0 .1 0c.6 0 2 .2 2 1.2.1.2-.1.5-.4.5zm3.5-5.9c-.5 0-.5.2-.5.6 0 .4 0 .6.5.6h1.5c.5 0 .5-.2.5-.6 0-.4 0-.6-.5-.6H56zm0 1.6c-.5 0-.5.2-.5.7 0 .4.1.5.5.5h1.5c.5 0 .5-.2.5-.7 0-.4-.1-.6-.5-.6H56zm4 3.4c-.2 0-.5.1-.7.2-1.6.7-1.6.8-1.6.9 0 .3 1.3 1.2 2.5 1.7.1.1.9.3.9.4 0 0-.1.1-.2.1-.4 0-.7.2-.9.3-.2.1-.7.5-.8.5h-.1c-.3-.2-1.1-.9-1.3-1.2-.3-.3-.8-1.2-1.1-1.7-.2-.4-.9-1.7-.9-1.9.1 0 1.2 1.8 1.6 1.8.2 0 1.1-1 1.3-1.4 0-.1.2-.5.3-.5.1 0 .7.5.8.5.4.3.4.3.4.5.1-.3-.1-.2-.2-.2zm-7.4 16.1c.4-.4.6-.6.6-.8 0 0-.1-.4-.1-.5-.2-.6-.3-.9-.3-1.8 0-.3.1-2.1.1-2.5 0-.8-.2-1-.5-1.2l-.4-.4c0-.1.4-.1.4-.1.9 0 1.6.7 1.6 1.1 0 .1-.2.8-.2 1-.1.4-.1 1.1-.1 2 0 .6 0 1.8.4 1.8.2 0 .3-.1 1.1-.6.2-.1 1.1-.7 1.5-.7.3 0 .6.3.6.6 0 .4-.6.7-1.2.9-3.6 1.4-4.1 2.5-4.1 3.5s.9 1.4 2.1 1.4c.8 0 1.3-.1 1.8-.3.7-.2.8-.2 1.1-.2.5 0 1 .3 1 .7 0 .8-3.1.8-3.9.8-.7 0-2.9 0-2.9-2.4.3-.3.4-1.4 1.4-2.3zm-2.2 15.9c-.3 0-.4.1-.4.4-.1 1.6-.3 2.8-.6 3.9-.4 1.3-1.2 2.5-1.5 2.5 0 0-.1 0-.1-.1s0-.1.1-.2c.5-.9.7-2 .8-2.5.2-1.4.3-2.9.3-4.3 0-1.2-.1-2.4-.1-2.7 0-.1-.1-.7-.1-.8v-.1c.1 0 1 .5 1.2.5.1 0 .4.1.6.1H54c.1 0 .3 0 .3-.2 0 0-.3-2.3-.3-2.4l-.1-.5c0-.1 0-.1.2-.1 0 0 1.4.1 1.4.4 0 .1-.2.3-.2.3-.1.1-.1.2-.1.4 0 .3.2 1.8.2 1.9 0 0 .1.2.4.2h2.6c.6 0 .7 0 .8-.1.1-.1.5-.9.7-.9.2 0 1.4 1 1.4 1.2 0 .2-.3.2-.8.2h-4.8c-.2 0-.3 0-.3.2 0 .8 1 4.6 1.3 4.6.1 0 1.2-2.3 1.4-3.2 0-.2.1-.5.2-.5s.1 0 .7.4c.5.3.6.3.6.5 0 .1 0 .1-.1.2 0 0-.3.2-.3.3-.1.1-1.1 2-1.3 2.3-.1.2-.5.9-.5 1 0 .2 1.9 2.3 2.5 2.3.2 0 .5-.4.8-1 .1-.1.4-.7.5-.7s0 .1 0 .1c0 .1-.2 1.3-.2 1.6 0 .1 0 .2.1.4.2.4.2.5.2.6 0 .4-.4.5-.5.5-.9 0-2.4-1.2-3.7-2.6-.3-.3-.3-.4-.4-.4-.1 0-.7.6-.8.8-1.4 1.3-3 2-3.2 2h-.1s1.4-1.1 1.6-1.4c1-.9 1.9-2 1.9-2.2 0-.1 0-.1-.1-.2-.7-1.5-1.1-3.1-1.4-4.7-.1-.9-.2-1-.6-1h-3.4c-.1 0-.4 0-.4.3v1.8c0 .2 0 .4.4.4h1.1c.1 0 .3 0 .4-.1.1 0 .3-.4.5-.4.1 0 .9.7.9.8 0 .1-.3.3-.3.4 0 .1-.1 2.1-.1 2.2 0 1.6-.3 3.3-1.6 3.3-.1 0-.2 0-.2-.1-.1-.2-.2-.4-.3-.5-.1-.1-.9-.5-.9-.6l.1-.1c.2 0 1.1.1 1.2.1.3 0 .6-.1.7-1.1 0-.4.1-.9.1-3.1 0-.2 0-.5-.4-.5h-1.4zm8.3-4.7c0 .3-.1.6-.5.6-.2 0-.3-.2-.4-.5-.1-.3-.6-1-.8-1.3-.1-.1-.1-.1 0-.2 0 0 1.7.3 1.7 1.4zm-.3 21.7c.5 0 .8 0 1.1-.2.1-.1.5-.6.6-.6.1 0 1.3.9 1.3 1.1 0 .2-.4.2-.8.2h-5.9c-.1 0-.2.1-.2.2 0 .3 1.3 2.2 1.6 2.2.2 0 1.6-1.2 1.8-1.8.1-.3.2-.4.3-.4.1 0 1.4.8 1.4 1 0 .2-.1.2-.6.2-.4 0-1.5.7-2.1 1-.4.2-.4.3-.4.3 0 .2 1.9 2 4.6 2.4.2 0 .3.1.3.1s-.1.1-.3.2c-.4.2-.6.4-1 .6l-.3.2c-.1 0-1.8-.7-3-2-.5-.5-.5-.5-.7-.5-.1 0-1.2.4-1.8.6-.7.2-4.3 1.4-4.5 1.5-.1 0-.3.3-.3.3h-.1c-.2 0-.2-.1-.6-.7 0-.1-.3-.4-.3-.5 0-.1-.1-.2-.1-.2 0-.2.2-.2.4-.2.8 0 1 0 1.6-.1.3 0 .3-.2.3-.5v-3.4c0-.5-.1-.6-.5-.6-.3 0-1.2 0-1.5.1h-.2c-.1 0-.1 0-.1-.1l-.3-.3-.1-.1h.1c.3 0 1.9.1 2.3.1.5 0 .5-.2.5-.6v-3.9c0-.3-.1-1.5-.1-1.6 0 0 0-.1.1-.1s.8.3 1 .4c.4.2.6.2.8.2h4.1c.7 0 .7 0 1-.3.4-.5.5-.6.6-.6.1 0 1.4.8 1.4 1 0 .2-.3.2-.8.2h-6.4c-.5 0-.5.1-.5.6 0 .7 0 .8.4.8H56c.6 0 .7 0 .8-.1.1-.1.5-.6.6-.6.2 0 1.2.8 1.2.9 0 .2-.4.2-.8.2h-5.3c-.4 0-.4.3-.4.6 0 .8 0 1 .5 1h3.5c.6 0 .7 0 .8-.1.1-.1.5-.6.6-.6.2 0 1.2.8 1.2.9 0 .2-.4.2-.8.2h-5.4c-.4 0-.5.2-.5.6 0 .7 0 .9.4.9h6zm-6.3.4c-.1 0-.4 0-.4.3v3.6c0 .2 0 .4.2.4s2.4-.5 3-.7c.6-.2.7-.2.7-.4 0 0 0-.1-.3-.4-.4-.6-.8-1.6-1-2.1-.3-.6-.3-.7-.6-.7h-1.6zM50 218.3c0-.4.4-.9 1.4-2.1.7-.8 1.3-2 1.3-2.2 0-.1-.1-.1-.2-.1s-.8.1-.9.1c-.6 0-1.3-.7-1.3-1.3 0 0 0-.1.1-.1s.5.2.6.3c.2.1.6.3 1 .3 1.2 0 1.2-.4 1.2-.7 0-.1 0-.3-.1-.5 0-.1-.4-.3-.4-.4 0-.1.4-.2.7-.2.4 0 .7.1.8.5 0 .2.1.2.7.3.1 0 .7.1.7.4 0 .5-1.1.9-1.8 1.2-.2.1-.2.1-.6.9-.4.8-.4.9-.8 1.6-.1.1-.1.2-.1.2s0 .1.1.1.3-.1.5-.2.4-.1.6-.1c.2 0 .9 0 1.3.9.1.3.1.3.2.3 0 0 .5-.7.6-.8.5-.7 1.5-2.1 2.8-2.1.8 0 1.4.7 1.4 1.3 0 .7-1.2 1.2-2.1 1.6-.4.2-2.1.8-2.3 1-.2.2-.3.3-.3.6v.9c0 .2 0 1.1-.6 1.1-.4 0-.5-.5-.5-.8v-.9c0-.1 0-.2-.1-.2s-1.5.9-1.5 1.8c0 1 1.5 1 1.9 1 .4 0 .7 0 1-.1.2 0 1.2-.3 1.4-.3.3 0 .7.2.7.5 0 .9-2.3 1-2.7 1-1.9 0-2.9-.8-2.9-2 0-1 .6-1.4 2-2.6.1-.1.2-.3.2-.5 0-.7-.1-1.5-.7-1.5s-1.5.7-1.8 1.6c-.2.4-.3.7-.8.7-.4 0-.7-.1-.7-.5zm3.9-5.7s.8-.2.8-.4-.4-.2-.5-.2c-.2 0-.3.4-.3.5s-.1.1 0 .1zm1.3 4.9c.1.1 3.1-1.1 3.1-2.1 0-.4-.3-.4-.5-.4-1.3-.1-2.6 2.2-2.6 2.5zm-2.4 13.1c.2 0 .4 0 .5-.1.2-.3.2-.3.3-.3.1 0 1 .6 1 .8 0 .1-.1.2-.2.3-.2.1-.2.2-.2.5 0 .5.1 2.7.1 2.9 0 .2 0 .9-.6.9-.1 0-.3 0-.4-.1-.1-.2-.1-.3-.3-.3-.3 0-.3.2-.3.3 0 .3.1 3.9.1 4.3 0 .8-.7 1.2-1.3 1.2-.1 0-.3-.2-.3-.3-.2-.3-.3-.4-.4-.4-.1 0-.5-.3-.5-.3 0-.1.1-.1.2-.1h.9c.4 0 .6 0 .6-.9 0-.2-.1-3-.1-3.1 0-.5 0-.7-.3-.7-.2 0-.2.1-.3.2-.1.1-.2.3-.6.3-.3 0-.4-.1-.4-.3v-4c0-.1-.1-.8-.1-.9 0-.1 0-.2.1-.2s.7.3.8.3c.3 0 .3-.2.3-.3 0-.5.1-.9.1-1 0-.4-.2-.4-.4-.4h-1c-.2 0-.4 0-.4.4v3.1c0 2.1-.1 4.9-1.1 7.5-.1.3-.4 1-.6 1 0-.1.1-.6.2-.7.7-3 .7-5.4.7-6.3 0-.8-.1-5.1-.3-5.7l-.1-.3s0-.1.1-.1.2.1.8.5c.3.2.4.2.7.2h2.1c.6 0 .7 0 .8-.1.1-.1.4-.6.5-.6.1 0 .9.7.9.9 0 .2-.3.2-.8.2H53c-.3 0-.4 0-.7.7-.1.1-.3.8-.3.9 0 .2.1.2.2.2h.6zm-1.3 6.4c0 .1-.4.3-.4.4-.6 1-.7 1.1-1 1.3-.2.2-.8.9-1 .9 0-.1.6-1.1.7-1.3.1-.2.4-.8.5-1.5.1-.4.1-.4.2-.4s.4.1.6.3c.2 0 .4.1.4.3zm1.3-4.3c.5 0 .5-.2.5-.7 0-.9 0-1-.5-1h-1.1c-.5 0-.5.2-.5.7 0 .9 0 1 .5 1h1.1zm-1.1.4c-.2 0-.4.1-.4.3v.9c0 .3.1.5.4.5h1c.4 0 .5-.1.5-1.1 0-.3-.1-.5-.4-.5h-1.1zm2.7 5.9c-.2 0-.3-.1-.4-.7-.1-.6-.2-.7-.5-1.5-.1-.1-.1-.3-.2-.4v-.1s1.5.7 1.6 1.8c.1.5-.2.9-.5.9zm3.7.4c0 .1-.1.2-.2.2-.3 0-.4 0-1.3.4-.1 0-2.5.8-2.9.8h-.1c0-.1 1.3-.8 1.6-.9.7-.4 1.3-.8 1.5-1.2 0-.1.1-.2.2-.2s.1 0 .6.3c.6.4.6.4.6.6zm.9-8.8c.4 0 .4 0 .5-.2.1-.1.3-.3.4-.3 0 0 1 .6 1 .8 0 .1-.1.1-.1.1-.3.2-.3.2-.4.4-.1.2-.1 1.9-.1 2.3v2.2c0 .3.1 1.5.1 1.8 0 .2 0 .8-.6.8-.3 0-.3-.1-.5-.4-.1-.2-.3-.2-.4-.2h-2.2c-.3 0-.3.1-.4.4-.1.3-.4.4-.7.4-.2 0-.3-.1-.3-.4v-.6c.1-1.6.1-4.1.1-5.9 0-.4 0-.9-.1-1.3 0-.1-.1-.4-.1-.5 0-.1.1-.2.2-.2.2 0 .9.5 1.1.5.1 0 .1-.1.2-.3 0-.1.1-.9.1-1 0-.2-.1-.4-.3-.4-.2 0-1.2.1-1.3.1 0 0-.1 0-.1-.1l-.3-.3-.1-.1c.1 0 .6 0 .7.1h3.3c.7 0 .8 0 .9-.3.4-.5.4-.5.5-.5.2 0 1.1.8 1.1 1 0 .2-.3.2-.8.2h-2c-.4 0-.5 0-.7.5 0 .1-.5.9-.5 1 0 .2.2.2.4.2H59zm0 2.3c.4 0 .4-.3.4-.6v-.8c0-.3 0-.6-.4-.6h-2.2c-.4 0-.4.3-.4.5 0 1.4 0 1.4.4 1.4H59zm0 2.4c.4 0 .4-.2.4-.5v-1.1c0-.3-.3-.3-.4-.3h-2.2c-.4 0-.4.3-.4.5 0 1.4 0 1.4.4 1.4H59zm0 2.3c.4 0 .4-.1.4-1.5 0-.1 0-.4-.4-.4h-2.2c-.4 0-.4.3-.4.5 0 1.3 0 1.4.4 1.4H59zm1.8 3.4c-.3 0-.5-.3-1-.9-.2-.2-.5-.7-1-1.1l-.3-.3h.1c.2 0 1 .3 1.2.4.7.3 1.3.6 1.4 1.3.1.2-.1.6-.4.6zm-9.5 7.8c0 .1 0 .2-.2.6-.2.6-.4 1.1-.4 1.9 0 1.5.8 2.6 1.2 2.6.3 0 .3-.1.8-.8.1-.1.3-.5.5-.5l.1.1v.3c-.2.7-.2.8-.2 1.1 0 .3 0 .5.1.6 0 .2.1.4.1.5 0 .3-.3.5-.6.5-1 0-2.8-1.6-2.8-4.4 0-.4.2-2.3.2-2.7 0-.3-.1-.7-.1-.9-.1-.4-.1-.4-.1-.5l.1-.1c.6.1 1.3 1.3 1.3 1.7zm7.3.3c.8.6 1.3 1.7 1.3 2.9 0 .3 0 1-.8 1-.7 0-.7-.8-.7-1 0-1.2 0-1.9-.8-2.7-.1-.1-.7-.6-.7-.7l.1-.1c.1.1 1 .1 1.6.6zm-4 13.2l-.1-.2c0-.1.3-.1.4-.1.4 0 1.2.4 1.2.7 0 .1-.3.7-.4.8-.1.2-.2.8-.2 1 0 0 0 .1.1.1 0 0 .1 0 .4-.1.1 0 .3-.1.5-.1.1 0 .4 0 .4.3 0 .6-1 .9-1.4 1-.1 0-.1 0-.2.3 0 0-.1.8-.1 1.5 0 .3 0 .4.2.4s1.2-.3 1.2-.8c0 0-.1-.2-.1-.3s0 0 .1 0 .4.1.5.1c.6 0 1 .1 1 .4 0 .5-1.7 1.2-2.4 1.4-.5.2-.5.2-.5.3 0 .3.2 2 .2 2.2.1.5.1.6.4.7 1.2.5 2.1 1.3 2.1 2 0 .4-.3.6-.5.6s-.3-.1-.8-.7c-.3-.4-.9-.8-1-.8-.1 0-.1.1-.2.2-.3.7-1.3 1.5-2.5 1.5-1.4 0-1.9-1-1.9-1.6 0-.9.9-1.6 2.7-1.6h.8c.2 0 .2 0 .2-.6v-1.7c0-.1 0-.2-.1-.2-.2 0-1.1.1-1.3.1-.3 0-1.4 0-2.1-.6-.2-.2-.4-.6-.4-.7v-.1c.1 0 .5.2.6.2.7.2 1.3.3 1.8.3.4 0 1.4 0 1.5-.3l.1-2c0-.1-.1-.1-.3-.1-1.1-.1-2-.8-2-1.4 0 0 0-.1.1-.1l.4.2c.7.4 1.2.4 1.5.4.3 0 .5-.1.5-.2s.1-1 .1-1.3c-.2-.5-.4-.9-.5-1.1zm-1.5 9.7s-1.6 0-1.6.9c0 .6.8.8 1.2.8.5 0 1.1-.2 1.5-.6.3-.2.4-.6.3-.7-.1-.4-1.1-.4-1.4-.4zm-3.3 10.8c1 0 3-.3 4.1-.5.8-.1.9-.1.9-.5 0-.7-.1-1.6-.2-2 0-.1-.3-.3-.3-.4 0-.1.2-.1.3-.1.7 0 1.2.3 1.2.8 0 .1-.1.4-.1.5 0 .3.4.6 1.3.9.4.1.8.3 1.3.3.2 0 .8-.1.9-.1.2 0 .9.1.9.6 0 .4-.3.5-.8.5-.3 0-1.7-.1-2-.1-.4 0-1.3 0-1.6.1-.2.1-.2.3-.2 1.6 0 .4 0 .5.2 1 .3.6.4 1.1.4 2 0 2.9-2.3 4.8-2.7 4.8 0 0-.1 0-.1-.1 0 0 .6-.8.7-.9.4-.6.8-1.6.8-2.2 0 0 0-.2-.2-.2h-.3c-.8 0-1.5-.8-1.5-2 0-.2 0-1.8 1.5-2.1.4-.1.4-.1.4-.9s0-.9-.3-.9c-.1 0-1.7.3-2.7.6-.3.1-1.3.6-1.6.6-.3 0-1.6-.6-1.6-1.2 0-.1 0-.1.1-.1.3-.1 1 0 1.2 0zm4.4 2.5c-.4 0-.9.6-.9 1.4 0 .8.6 1.2 1 1.2.6 0 .6-.9.6-1.1 0-.5-.1-.9-.2-1 0-.2-.2-.5-.5-.5zm1.4-3.6c0 .2.1.3.3.3.1 0 1 0 1-.3 0-.1-1-.8-1.1-.8-.1.1-.2.4-.2.8z"/></g><g><g><path class="st3" d="M126.1 44.4c0 .9-2 1.6-2.6 1.9-.4.1-.4.2-.4 1.1-.1.6-.1 2.7-.1 2.8 0 .2 0 .5.2.5.1 0 2.2-.9 2.6-1 2.6-1 3.7-1 4.4-1 1.9 0 4 1.5 4 3.9 0 3.4-3.6 5-5.7 5-1.5 0-2.7-.8-2.7-2.1 0-1.2 1.1-2.1 1.3-2.1.1 0 .1.1.1.1 0 .1-.1.1-.1.2-.1.1-.2.3-.2.7 0 1.2 1.4 1.2 1.7 1.2 1.7 0 3.9-1.1 3.9-3.2 0-1.8-1.4-2.9-2.5-2.9-.7 0-2.3.3-5.4 2-1.5.8-1.6.9-1.6 1.3 0 .3.1 1.5.1 1.7 0 1.2-.4 2.9-1.3 2.9-.7 0-1-.5-1.2-1-.8-1.6-1-1.6-1.3-1.6-.2 0-.5.1-.7.2-.2.1-.8.5-1 .5-.3 0-1.6-.8-1.6-1.6 0-.5.3-1 .8-1 .2 0 .9.1 1.1.1.7 0 1.2-.1 2.7-.9 1.3-.7 1.5-.7 1.5-1.5 0-.6 0-2.8-.1-3.3 0-.2-.1-.6-.4-.6-.3 0-1 .2-1.2.2-1.3.4-1.5.5-1.8.5-.9 0-1.9-1.8-1.9-2 0-.1.1-.2.2-.2s.4.1.5.1c.5.1.9.1 1.2.1.9 0 3.1-.6 3.3-.8.1-.2.3-2.5.3-2.8 0-.8-.1-1.3-.9-2.1l-.4-.4c0-.2.4-.3.6-.3 1.7 0 2.7 1.3 2.7 1.8 0 .2-.5 1.2-.5 1.4 0 .2-.3 1.2-.3 1.7 0 .1.1.3.2.3.2 0 .9-.3.9-.6 0-.1-.1-.3-.1-.4l.1-.1c.4.1 1.6.5 1.6 1.3zm-5.9 9.9c0 .4.7 1.2 1.1 1.2.4 0 .7-.7.7-2 0-.1 0-.4-.1-.4 0 0-1.7.9-1.7 1.2zm17.1-8.1c0 .5-.3 1.2-.9 1.2-.2 0-.8-.1-.9-.1-.1 0-.7.2-.8.2-.1 0-.1 0-.1-.1s.1-.2.1-.2c.1-.2.1-.3.1-.5 0-1-1.3-1.4-2.2-1.4-.4 0-.6.1-1 .3-.1.1-.2.1-.3.1-.1 0-.1 0-.1-.1 0-.2 1.1-1.6 2.8-1.6 2.1 0 3.3 1 3.3 2.2zm-13 28.1c.2 0 .8 0 .8-.8 0-1.1 0-1.4-.2-2 0-.1-.2-.6-.2-.7 0-.2.3-.2.4-.2.5 0 2.5.6 2.5 1.1 0 .2-.4.7-.5.8-.1.1-.1.3-.1.7 0 .7 0 1.1.8 1.1h.9c.2 0 .6 0 1-.3.1-.1.6-.6.8-.6.2 0 1.8.9 1.8 1.3 0 .2-.6.7-.7.8-.2.3-.2.8-.2 1.5s.1 3.6.1 4.2c0 1-.5 2-1.5 2-.6 0-.6-.3-.6-.8 0-.3-.3-.3-.7-.3h-2.2c-.1 0-.3 0-.3.2 0 .4 2.6 2.7 2.9 2.7.3 0 2.7-1.7 3.5-2.5.1-.1.2-.2.4-.2.1 0 1.8 1.6 1.8 1.8 0 .2-.4.2-.6.3-.9.1-4.2.9-4.2 1.2 0 .4 3.8 2.1 6.4 2.4.8.1 1 .1 1 .3 0 .1-.3.2-.4.3-.9.3-1.4.8-1.6 1.1-.3.3-.3.4-.5.4-.4 0-4-1.9-5.9-3.3-.4-.3-.5-.4-.7-.4-.3 0-3.7 1.2-4.4 1.5-.6.2-4.9 1.6-5.1 1.7-.1.1-.6.5-.8.5-.2 0-.3-.1-.8-1.1-.1-.2-.6-1-.6-1.1 0-.2.3-.2.5-.2.9 0 1.2-.1 2.4-.3.7-.1.7-.8.7-1.3 0-.9.1-6.9.1-8.2 0-.6 0-4.1-.4-4.1-.1 0-4.3 2.4-5.2 2.4-.1 0-.3-.1-.3-.1 0-.2.4-.3.5-.4 1-.5 7.2-4.6 9.5-8.8.1-.1.3-.7.4-.8 0-.1.1-.1.2-.1s2.5 1 2.5 1.4c0 .1-.2.2-.2.3 0 .2 2.2 2.3 4.3 3.4 2.2 1.2 5.7 2.2 6.4 2.3.1 0 .3.1.3.2s-.2.2-.4.3c-.6.3-.8.5-1.5 1.1-.3.3-.3.3-.4.3-.6 0-5.6-2.6-8.6-6.5-.5-.6-.5-.7-.7-.7-.3 0-.3 0-1.1.8-.2.2-2.3 2.2-3.8 3.4-.2.2-.9.7-.9.8 0 .1 1 1.1 2 1.1h1.4zm4.5 7.2c.7 0 .8-.1.8-2.1 0-.5 0-1-.8-1h-6c-.8 0-.8.3-.8 2 0 .6 0 1.1.8 1.1h6zm.1-3.7c.4 0 .8-.2.8-.7v-1.4c0-.7-.6-.7-.8-.7h-6c-.8 0-.8.2-.8 2.1 0 .7.6.7.8.7h6zm-6 4.4c-.4 0-.7.1-.8.5V86c0 .4 0 .8.6.8.4 0 3.8-.8 4.6-1 .1 0 .5-.1.5-.3 0-.1-.3-.4-.4-.5-.2-.2-1.1-1.3-1.7-2.4-.3-.5-.4-.5-.9-.5h-1.9zm-2.3 21.3c0 .2-.1.3-.3 1-.4 1-.6 2-.6 3.4 0 2.6 1.4 4.5 2.2 4.5.4 0 .5-.1 1.3-1.4.2-.3.6-.9.8-.9.1 0 .1.1.1.2s-.1.4-.1.5c-.3 1.2-.3 1.4-.3 2 0 .4.1.8.2 1 .1.3.2.7.2.9 0 .5-.5.8-1 .8-1.7 0-4.9-2.7-4.9-7.7 0-.7.4-3.9.4-4.6 0-.5-.1-1.2-.2-1.5-.2-.6-.2-.7-.2-.9 0-.1.1-.1.2-.1 1 0 2.2 2.1 2.2 2.8zm12.7.6a6.6 6.6 0 012.3 5c0 .5-.1 1.7-1.3 1.7-1.3 0-1.3-1.4-1.3-1.7 0-2.2 0-3.3-1.4-4.6-.2-.2-1.2-1-1.2-1.2 0-.1.1-.1.2-.1.1-.1 1.6 0 2.7.9zm-14 27.6c-2.3 0-3 .1-3.3.1-.1 0-.4.1-.5.1-.1 0-.2-.1-.2-.2l-.5-.6c-.1-.1-.1-.1-.1-.2s.1-.1.1-.1c.2 0 2.4.2 2.9.2.3 0 .6-.1.7-.3.1-.3.2-2.2.2-2.4 0-.6-.1-1.3-.4-1.9 0-.1-.1-.2-.1-.3 0-.2.2-.3.4-.3s2.4.4 2.4.8c0 .2-.1.3-.3.4-.2.2-.3.3-.3.7 0 2.7 0 2.9.1 3.1.2.3.5.3 1 .3.2 0 .4 0 .8-.5.3-.4.5-.6.7-.6.2 0 1.7 1.1 1.7 1.5 0 .2-.1.2-.6.4s-.6.3-1.6 1.7c-.2.2-.6.9-1.3 1.7-.3.4-.3.4-.3.5 0 .1.2.5.2.6 0 .1-.4.6-.4.7 0 .2-.1.4-.1 1.2 0 .1 0 .4.2.4.5 0 2.5-2.7 2.8-3.4.1-.3.2-.3.3-.3.3 0 1.4 1.2 1.4 1.4s-.2.3-.6.4c-.2.1-.5.2-2.5 1.6-.5.3-.5.4-.5.5 0 .1.2.2.5.3.6.2 2.4 1 2.4 2.5 0 .5-.4.9-.9.9-.4 0-.5-.1-.9-.8-.1-.2-1.5-2.3-2.1-2.3-.2 0-.3.1-.3.4 0 1-.1 5.4-.1 6.2 0 .3.1 1.6.1 1.8 0 .5 0 1.4-1.2 1.4-.5 0-.7-.1-.7-.9 0-.6.2-5.1.2-5.8 0-1.1.1-2.9.1-4.1 0-.1 0-.4-.3-.4-.1 0-.6.4-.9.6-1 .7-3.1 1.8-3.3 1.8 0 0-.1 0-.1-.1s.3-.4.5-.5c1.3-1.1 3.3-2.9 5.8-6.3.7-1 .8-1.1.8-1.4 0-.3-.3-.3-.6-.3h-1.3zm14.9-3.3c.3 0 .5-.1.7-.3.4-.7.5-.8.7-.8.1 0 2 1.2 2 1.7 0 .1-.5.7-.5.8-.2.4-.2.8-.3 2.5-.1 2.2-.2 8.3-1.2 12.9-.6 2.7-1.8 3.8-3 3.8-.7 0-.9-.3-1-.7-.1-.4-.3-.9-1-1.4-.1-.1-.8-.3-.8-.5 0-.1.1-.1.2-.1s.3.1.5.1c1.1.2 1.5.3 1.9.3.7 0 1.3 0 2-4.9.3-2.4.7-5.2.7-11.9 0-.6-.2-.8-.8-.8h-2.9c-.9 0-1 .2-1 1.5-.1 4.2-.2 8.2-1.6 11.9-1.7 4.7-5.5 6.2-5.7 6.2 0 0-.1 0-.1-.1s1.6-1.8 1.9-2.2c1.2-1.6 3.6-4.7 3.7-13.3 0-.5-.1-2.8-.1-3.3s-.1-.8-.9-.8c-.3 0-1.8.1-2 .1-.1 0-.2-.1-.2-.2l-.5-.6c-.1-.1-.1-.1-.1-.2s.1-.1.1-.1c.2 0 1 .1 1.1.1.8 0 2.1.1 3.6.1h4.6zm-8.7 48.5c-.4 0-.5 0-.5-.1s.1-.1.8-.3c3.4-1.1 8.2-3.4 8.2-8.1 0-4.1-3.9-5.3-5-5.3-.4 0-.4.2-1.1 1.7-.8 1.8-1.2 2.5-2 3.7-.1.2-.1.3-.1.4 0 .3.2.4.4.5.9.5 1.2.7 1.2 1.3 0 .7-.5.8-1 .8-.6 0-.9-.1-1.5-.4-.4-.2-.4-.2-.5-.2-.3 0-.3.1-.8.5-2.1 2.2-3.8 2.9-4.5 2.9-1.7 0-2-2.7-2-3.7 0-2.7 1.6-4.8 2.7-5.9.2-.2.3-.4.3-.7 0-.2-1-3.4-1.2-3.7-.1-.2-.5-1.1-.5-1.2 0 0 0-.1.1-.1.8 0 2 .9 2.1 1.4.3 1.7.6 2.4.7 2.6.1.2.3.3.5.3s1.1-.5 1.2-.5c1.5-.6 2.8-.8 4.1-.9.2 0 .5-.1.7-.3.2-.3.4-1.4.4-1.9 0-.1 0-1-.5-2.2 0-.1-.1-.1-.1-.1 0-.1.2-.1.3-.1 1.2 0 2.6 1 2.6 1.6 0 .1-.9 2.2-.9 2.7 0 .4.3.5.5.5 3.6.6 6.2 3.2 6.2 6.7-.4 5.3-6.2 8.1-10.8 8.1zm-2.9-7.6c-.8-.9-1.5-2.1-1.8-3-.1-.4-.2-.6-.5-.6s-2.1 1.8-2.1 4.4c0 1.4.5 2.3 1.1 2.3 1 0 3.4-2.1 3.4-2.7.1-.2 0-.3-.1-.4zm3.9-6.4c-1.7 0-3.1.5-4 1-.4.3-.7.4-.7.8s1.5 3.3 2.2 3.3c.3 0 .4-.1.9-.9 1.4-2.3 1.9-3.7 1.9-3.8.1-.4-.2-.4-.3-.4zm-.1 26.5c0 .1.1.2.1.3.1.8.3 1.7.3 2.8 0 1.7-.4 4.2-2.7 7.6-2.1 3.2-3.4 3.8-4.4 3.8-1.7 0-3.3-2.7-3.3-5.9 0-1.4.3-4 2.9-6.6 3.3-3.4 6.8-3.4 8.3-3.4 2.4 0 3.5.5 4.2.8 2.8 1.4 4.5 4.2 4.5 7.6 0 3.4-2 7.5-6.6 9.2-2.2.8-3.9 1-4.3 1-.1 0-.3 0-.3-.2 0-.1.1-.1.7-.4 2.7-1.1 8.3-3.3 8.3-9.8 0-1-.1-7.2-7.2-7.2-.5 0-.5.2-.5.4zm-8.5 8c0 1.7.7 4 2.3 4 .8 0 1.4-.3 3.2-3 1.4-2.1 2.5-5 2.5-7.6 0-1.6-.1-1.7-.4-1.7-2.5 0-7.6 3.4-7.6 8.3zm8.2 24.8c0 .9-2 1.6-2.6 1.9-.4.1-.4.2-.4 1.1-.1.6-.1 2.7-.1 2.8 0 .2 0 .5.2.5.1 0 2.2-.9 2.6-1 2.6-1 3.7-1 4.4-1 1.9 0 4 1.5 4 3.9 0 3.4-3.6 5-5.7 5-1.5 0-2.7-.8-2.7-2.1 0-1.2 1.1-2.1 1.3-2.1.1 0 .1.1.1.1 0 .1-.1.1-.1.2-.1.1-.2.3-.2.7 0 1.2 1.4 1.2 1.7 1.2 1.7 0 3.9-1.1 3.9-3.2 0-1.8-1.4-2.9-2.5-2.9-.7 0-2.3.3-5.4 2-1.5.8-1.6.9-1.6 1.3 0 .3.1 1.5.1 1.7 0 1.2-.4 2.9-1.3 2.9-.7 0-1-.5-1.2-1-.8-1.6-1-1.6-1.3-1.6-.2 0-.5.1-.7.2-.2.1-.8.5-1 .5-.3 0-1.6-.8-1.6-1.6 0-.5.3-1 .8-1 .2 0 .9.1 1.1.1.7 0 1.2-.1 2.7-.9 1.3-.7 1.5-.7 1.5-1.5 0-.6 0-2.8-.1-3.3 0-.2-.1-.6-.4-.6-.3 0-1 .2-1.2.2-1.3.4-1.5.5-1.8.5-.9 0-1.9-1.8-1.9-2 0-.1.1-.2.2-.2s.4.1.5.1c.5.1.9.1 1.2.1.9 0 3.1-.6 3.3-.8.1-.2.3-2.5.3-2.8 0-.8-.1-1.3-.9-2.1l-.4-.4c0-.2.4-.3.6-.3 1.7 0 2.7 1.3 2.7 1.8 0 .2-.5 1.2-.5 1.4 0 .2-.3 1.2-.3 1.7 0 .1.1.3.2.3.2 0 .9-.3.9-.6 0-.1-.1-.3-.1-.4l.1-.1c.4.1 1.6.5 1.6 1.3zm-5.9 10c0 .4.7 1.2 1.1 1.2.4 0 .7-.7.7-2 0-.1 0-.4-.1-.4 0 0-1.7.8-1.7 1.2zm17.1-8.1c0 .5-.3 1.2-.9 1.2-.2 0-.8-.1-.9-.1-.1 0-.7.2-.8.2-.1 0-.1 0-.1-.1s.1-.2.1-.2c.1-.2.1-.3.1-.5 0-1-1.3-1.4-2.2-1.4-.4 0-.6.1-1 .3-.1.1-.2.1-.3.1-.1 0-.1 0-.1-.1 0-.2 1.1-1.6 2.8-1.6 2.1-.1 3.3 1 3.3 2.2zm-18 25.8c-.6 0-2.4 0-3.3.1-.1 0-.5.1-.5.1-.1 0-.1-.1-.2-.2l-.5-.6c-.1-.1-.1-.1-.1-.2s0-.1.1-.1c.5 0 2.5.2 2.9.2.8 0 .8-.3.8-1.7 0-.2-.1-1.7-.1-2.1 0-.2-.2-.8-.2-.9 0-.2.2-.2.3-.2.2 0 2.3.5 2.3 1 0 .2-.1.2-.4.5-.2.2-.3.5-.3 1.6v1c0 .2 0 .8.6.8.5 0 .6 0 .8-.2.4-.4.8-.7.9-.7.2 0 1.5 1.2 1.5 1.6 0 .4-.3.5-.8.7-.4.2-2 2-2.7 2.9-.5.6-.6.8-.6 1.3s0 .6.8.8c2.3.7 3.3 1.9 3.3 2.9 0 .5-.3 1-.8 1s-.5-.1-1.2-1.3c0-.1-1.3-2.2-1.8-2.2-.3 0-.3.1-.3 2.1 0 1.3.1 7 .1 8.2 0 .4-.1 1.4-1.1 1.4-.8 0-.8-.5-.8-.9 0-.2.2-2 .2-2.4 0-1 .1-2.8.1-4.8v-2.9c0-.2 0-.5-.2-.5-.1 0-3.1 2.7-3.5 2.7-.2 0 .4-.6.5-.8 4.2-4.7 5.8-7.5 5.8-7.9s-.4-.3-.6-.3h-1zm10.3 7c0 .2-.5.6-.5.8-.1.2-.6 2.9-.8 3.4-1.6 5.2-6.6 6.2-6.7 6.2-.1 0-.2 0-.2-.1s.7-.5.8-.5c3.4-2.1 4.2-4.3 4.6-5.6.3-1.1.5-3.2.5-4.1 0-.2-.2-.9-.2-1 0-.2.2-.2.2-.2.2 0 1 .4 1.2.4.8.4 1.1.6 1.1.7zm-1.8-1.9c-.2 0-.4 0-.6.4-.2.6-.5 1.2-1.4 1.2-.6 0-.6-.4-.6-.7 0-.2.1-.9.1-1 .1-1.1.1-3.8.1-4.5 0-1.5-.1-3.1-.2-3.8 0-.1-.1-.6-.1-.8 0-.3.2-.3.3-.3.2 0 .3.1 1.4.7.5.3.6.3 1.2.3h5.8c.4 0 .6 0 .8-.3.4-.7.5-.8.8-.8.3 0 1.9 1.3 1.9 1.7 0 .2-.1.3-.2.4-.5.3-.5.4-.6.6v2.5c0 .6.1 3.6.1 4.3 0 .5 0 1.4-1.3 1.4-.5 0-.5-.2-.6-.6-.1-.4-.4-.4-.7-.4-.6 0-1 0-1 .7-.1.4 0 1.9 0 7.7 0 1.5.1 2.1 1.6 2.1s2.1-.5 2.5-2.9c0-.2.2-1.3.4-1.3.1 0 .1.4.1.5 0 .4.1 1.5.3 2 .1.2.8 1.2.8 1.5 0 .2-.3.9-1 1.3-.3.2-1 .5-3 .5-3.2 0-3.3-1.5-3.3-3.2 0-1.2.1-6.9.1-8.2 0-.2 0-.8-.7-.8h-3zm.2-7.9c-.6 0-.9.1-.9.9v5.5c0 .8.4.9 1 .9h5.6c.8 0 1-.3 1-1V248c0-.8-.4-.9-.9-.9H128zm-7.4 34.2c0 .2-.1.3-.3 1-.4 1-.6 2-.6 3.4 0 2.6 1.4 4.5 2.2 4.5.4 0 .5-.1 1.3-1.4.2-.3.6-.9.8-.9.1 0 .1.1.1.2s-.1.4-.1.5c-.3 1.2-.3 1.4-.3 2 0 .4.1.8.2 1 .1.3.2.7.2.9 0 .5-.5.8-1 .8-1.7 0-4.9-2.7-4.9-7.7 0-.7.4-3.9.4-4.6 0-.5-.1-1.2-.2-1.5-.2-.6-.2-.7-.2-.9 0-.1.1-.1.2-.1 1 0 2.2 2.1 2.2 2.8zm12.7.6a6.6 6.6 0 012.3 5c0 .5-.1 1.7-1.3 1.7-1.3 0-1.3-1.4-1.3-1.7 0-2.2 0-3.3-1.4-4.6-.2-.2-1.2-1-1.2-1.2 0-.1.1-.1.2-.1.1-.1 1.6 0 2.7.9z"/></g><g><path d="M109.3 45.7c0 .1 0 .3-.2.3s-.2-.2-.2-.5c0-.2 0-.6-.6-.6-.1 0-.3 0-.3.1-.5.1-3.7 1.1-4.6 1.4-.5.2-.6.2-.6.3 0 .1.1.1.1.1.2.1 4.7 1.3 5.1 1.4.1 0 .3.1.4.1.5 0 .6-.6.6-.8 0-.5 0-.5.2-.5s.2.2.2.3v2.6c0 .1 0 .3-.2.3s-.2-.1-.2-.5c-.1-.8-.6-.9-1.8-1.3-1.7-.5-4.5-1.2-6.2-1.7-.4-.1-.5-.1-.5-.3s.1-.2.8-.4c.8-.2 4.5-1.3 5.3-1.6.5-.2.6-.2.6-.2 0-.1-.1-.1-.3-.2-1.5-.5-3.8-1.2-5.3-1.7-.5-.2-1-.3-1-.5 0-.1.2-.2.3-.2.5-.1 3.1-.8 3.7-1 4.5-1.2 4.5-1.3 4.5-2.1 0-.2 0-.4.2-.4.1 0 .2.1.2.3v3.1c0 .1 0 .4-.2.4s-.2-.1-.2-.5c0-.3-.1-.7-.6-.7-.1 0-.2 0-.5.1-.7.2-4 1.1-4.7 1.3 0 0-.4.1-.4.2s.2.2.2.2c.5.2 4.4 1.5 5 1.5.3 0 .6-.1.8-.4.1-.2.1-.4.1-.6 0-.2 0-.4.2-.4s.2.2.2.3v2.8zm-5.6 8.1c0-.2 0-.4-.4-.4-1.5 0-2.5 1.1-2.5 2.1 0 .6.3 1.2.7 1.5.1.1.5.4.5.5 0 .1-.1.1-.2.1-.3 0-1.5-.9-1.5-2.6 0-1.8 1.3-2.8 3.1-2.8 2 0 3 1.3 3 2.7 0 2-2 2.5-2.5 2.5-.2 0-.3-.1-.3-.4v-3.2zm.4 2.3c0 .3.1.4.3.4.5 0 1.7-.5 1.7-1.5 0-1.2-1.5-1.6-1.8-1.6s-.3.2-.3.3v2.4zm.8 8.5h-2.8c-.6 0-1.1 0-1.1.5 0 .1.1.3.1.4l.1.1s0 .1-.1.1c-.2 0-.7-.5-.7-1.1 0-.4.3-.7.5-.8.1 0 .2-.1.2-.2s-.1-.2-.2-.3c-.4-.5-.6-1.1-.6-1.7 0-.8.4-1.6 1.3-1.6 1.4 0 2 2.2 2.2 2.9.2.8.2.8.9.8 1 0 1.4-.6 1.4-1.2 0-.8-.6-1-.7-1-.4-.1-.8-.2-.8-.7 0-.3.3-.6.6-.6.7 0 1.3 1.2 1.3 2.3 0 1-.4 2.1-1.6 2.1zm-3.3-1c.1.1.2.1 1.6.1.2 0 .4 0 .4-.3 0-.5-.8-2.4-1.9-2.4-.3 0-.9.2-.9 1.1.1.5.4 1.3.8 1.5zm-1 7.7c0-.2.2-.2.2-.2.2 0 .2.2.2.2 0 .3 0 .5.3.6.2.1.4.1 2.3.1 1.1 0 1.6 0 2-.3.4-.3.4-.7.4-.8 0-.4-.2-.9-.5-1.3-.4-.4-.6-.4-1.9-.4h-2c-.4.1-.5.3-.5.6 0 .1 0 .3-.2.3 0 0-.2 0-.2-.3v-2.4c0-.3.2-.3.2-.3.2 0 .2.2.2.3 0 .3.2.5.4.6.3.1 1.9.1 2.3.1 1.9 0 2.2 0 2.2-.6v-.4c0-.1 0-.1.1-.1s.1.1.2.5c0 .2.3 1.3.3 1.3 0 .1 0 .1-.5.1-.2 0-.3 0-.3.1s.3.4.4.5c.3.5.4 1 .4 1.4 0 .9-.5 1.3-.8 1.4-.5.2-.7.2-2.5.2-.4 0-1.6 0-1.8.1-.1 0-.3.2-.4.6 0 .2 0 .4-.2.4s-.2-.2-.2-.3v-2zm0 4.7c0-.1 0-.3.2-.3s.2.2.2.4.1.4.3.5c.2.1 2 .1 2.4.1.3 0 1.7 0 1.9-.1.1-.1.2-.2.2-.4v-.4c0-.1 0-.1.1-.1s.1.1.3.6c0 .2.3 1 .3 1.1 0 .1-.1.1-.2.1h-3.9c-.9 0-1.4 0-1.4.6 0 .3 0 .4-.2.4s-.2-.2-.2-.3V76zm8.3.4c.4 0 .7.3.7.7 0 .4-.3.7-.7.7s-.7-.3-.7-.7c0-.4.3-.7.7-.7zm-8.3 7.9c0-.2.2-.2.2-.2.2 0 .2.2.2.2 0 .3 0 .5.3.6.2.1.4.1 2.3.1 1.1 0 1.6 0 2-.3.4-.3.4-.7.4-.8 0-.4-.2-.9-.5-1.3-.4-.4-.6-.4-1.9-.4h-2c-.4.1-.5.3-.5.6 0 .1 0 .3-.2.3 0 0-.2 0-.2-.3v-2.4c0-.3.2-.3.2-.3.2 0 .2.2.2.3 0 .3.2.5.4.6.3.1 1.9.1 2.3.1 1.9 0 2.2 0 2.2-.6v-.4c0-.1 0-.1.1-.1s.1.1.2.5c0 .2.3 1.3.3 1.3 0 .1 0 .1-.5.1-.2 0-.3 0-.3.1s.3.4.4.5c.3.5.4 1 .4 1.4 0 .9-.5 1.3-.8 1.4-.5.2-.7.2-2.5.2-.4 0-1.6 0-1.8.1-.1 0-.3.2-.4.6 0 .2 0 .4-.2.4s-.2-.2-.2-.3v-2zm5.7 8.8c0 .1-.3.5-.3.6 0 .1.1.2.3.4.2.2.3.5.3.8 0 .4-.3.7-.7.7-.3 0-.6-.2-.6-.5s.2-.5.4-.6c.1-.1.1-.1.1-.2s0-.3-.2-.3c-.1 0-.3.2-.4.2-.2.1-.5.2-.8.2-1.1 0-2.1-1.2-2.1-2.5 0-.1.1-.7.1-.9 0-.3-.3-.6-.5-.6-.1 0-.2.1-.3.2-.1.2-.1.2-.1 1.4 0 .8-.1 2.9-1.4 2.9-1.5 0-1.5-2.9-1.5-3.3 0-1 .1-2.8 1.1-2.8.6 0 .9.7 1 1.1 0 .1.1.2.1.2s.2-.3.2-.4c.1-.2.3-.3.5-.3.4 0 .7.3.9.8.1.2.1.3.2.3s.2-.2.2-.3c.1-.2.7-.9 1.6-.9 1.2 0 2.1 1.2 2.1 2.4 0 .8-.2 1.2-.2 1.4zM99 91.9c0 .8.2 2 1 2 .6 0 .8-.5.8-2.6 0-.4 0-.6-.2-.9 0-.1-.3-.4-.7-.4-.9 0-.9 1.6-.9 1.9zm3.6.1c0 1.4 1.6 1.4 1.8 1.4.7 0 1.7-.3 1.7-1.4 0-.8-.6-1.3-1.8-1.3-.8-.1-1.7.3-1.7 1.3zm6.8 17.7s-1.9.8-2 .8c-.1 0-.2-.1-.2-.2s0-.1.4-.4c1.4-1.1 1.6-2.2 1.6-2.8 0-2-2.3-3-4.4-3-2.8 0-3.9 1.7-3.9 3.3 0 .9.4 1.9 1.7 2.8.5.3.5.3.5.4s-.1.2-.2.2-.7-.3-1.2-.7c-1.2-1.1-1.3-2.4-1.3-3 0-2.7 2.1-4 4.4-4 2.8 0 4.8 1.9 4.8 4 0 .3 0 .7-.1 1.1 0 .1-.2.7-.2.8 0 .1 0 .3.1.3.2.2.2.2.2.3 0 0-.1.1-.2.1zm-5.7 4.8c0-.2 0-.4-.4-.4-1.5 0-2.5 1.1-2.5 2.1 0 .6.3 1.2.7 1.5.1.1.5.4.5.5 0 .1-.1.1-.2.1-.3 0-1.5-.9-1.5-2.6 0-1.8 1.3-2.8 3.1-2.8 2 0 3 1.3 3 2.7 0 2-2 2.5-2.5 2.5-.2 0-.3-.1-.3-.4v-3.2zm.4 2.3c0 .3.1.4.3.4.5 0 1.7-.5 1.7-1.5 0-1.2-1.5-1.6-1.8-1.6s-.3.2-.3.3v2.4zm-3.5 4c0-.1 0-.3.2-.3s.2.1.2.5c0 .2 0 .4.3.6.2.1.3.1 2 .1.4 0 2.1 0 2.3-.1.1 0 .2-.2.2-.4 0-.1-.1-.5-.1-.6 0-.1.1-.1.1-.1.1 0 .1.1.3.6 0 .2.4 1.3.4 1.4v.1h-.5c-.6 0-.7 0-.7.1s0 .1.2.3c.1.1 1 .9 1 1.8 0 .5-.3.8-.7.8-.4 0-.6-.3-.6-.6s.1-.4.3-.5c.1-.1.2-.2.2-.4 0-.3-.4-.8-.8-1.1-.5-.3-.8-.4-2.6-.4-1.1 0-1.3 0-1.3.9 0 .1 0 .3-.2.3s-.2-.2-.2-.3v-2.7zm3.1 8.3c0-.2 0-.4-.4-.4-1.5 0-2.5 1.1-2.5 2.1 0 .6.3 1.2.7 1.5.1.1.5.4.5.5 0 .1-.1.1-.2.1-.3 0-1.5-.9-1.5-2.6 0-1.8 1.3-2.8 3.1-2.8 2 0 3 1.3 3 2.7 0 2-2 2.5-2.5 2.5-.2 0-.3-.1-.3-.4v-3.2zm.4 2.4c0 .3.1.4.3.4.5 0 1.7-.5 1.7-1.5 0-1.2-1.5-1.6-1.8-1.6s-.3.2-.3.3v2.4zm-3.5 11.4c0-.2.1-.2.2-.2.2 0 .2.2.2.3 0 .7.3.7 2 .7s1.8 0 2.2-.1c.4-.1.8-.4.8-1 0-.7-.6-1.6-1-1.7-.2-.1-1.9-.1-2.2-.1-1.2 0-1.3 0-1.5.1s-.3.3-.3.5c0 .4 0 .5-.2.5s-.2-.2-.2-.3V139c0-.1 0-.3.2-.3.1 0 .1 0 .2.1v.5c.1.5.3.5 2 .5 1.6 0 1.9 0 2.3-.2.3-.1.6-.4.6-1s-.3-1.1-.6-1.4c-.3-.3-.3-.3-2.4-.3-1.7 0-2 0-2 .7 0 .2 0 .4-.2.4s-.2-.2-.2-.3v-2.4c0-.1 0-.3.2-.3s.2.2.2.4c0 .3.2.5.3.6.3.1 2 .1 2.4.1.3 0 1.6 0 1.8-.1.1 0 .3-.2.3-.5v-.4s0-.1.1-.1.1 0 .3.6c.1.3.3 1.1.3 1.2 0 .1-.1.1-.3.1-.3 0-.4 0-.4.1s.2.3.2.4c.2.3.5.9.5 1.6 0 1-.5 1.3-.8 1.4 0 0-.2.1-.2.2s0 .1.2.3c.3.4.8 1 .8 1.9 0 .9-.4 1.3-.9 1.5-.5.2-.7.2-2.7.2-1.4 0-1.8 0-1.8.7 0 .1 0 .3-.2.3-.1 0-.2-.1-.2-.2v-2.4zm5.9 7.5c0 1.6-1.3 2.8-3.1 2.8-1.7 0-3.1-1.2-3.1-2.8s1.3-2.8 3.1-2.8c1.7 0 3.1 1.1 3.1 2.8zm-5.8 0c0 1.1 1.3 1.7 2.7 1.7 1.5 0 2.7-.7 2.7-1.7s-1.1-1.7-2.7-1.7c-1.4-.1-2.7.6-2.7 1.7zm-.1 8.7c0-.2.2-.2.2-.2.2 0 .2.2.2.2 0 .3 0 .5.3.6.2.1.4.1 2.3.1 1.1 0 1.6 0 2-.3.4-.3.4-.7.4-.8 0-.4-.2-.9-.5-1.3-.4-.4-.6-.4-1.9-.4h-2c-.4.1-.5.3-.5.6 0 .1 0 .3-.2.3 0 0-.2 0-.2-.3v-2.4c0-.3.2-.3.2-.3.2 0 .2.2.2.3 0 .3.2.5.4.6.3.1 1.9.1 2.3.1 1.9 0 2.2 0 2.2-.6v-.4c0-.1 0-.1.1-.1s.1.1.2.5c0 .2.3 1.3.3 1.3 0 .1 0 .1-.5.1-.2 0-.3 0-.3.1s.3.4.4.5c.3.5.4 1 .4 1.4 0 .9-.5 1.3-.8 1.4-.5.2-.7.2-2.5.2-.4 0-1.6 0-1.8.1-.1 0-.3.2-.4.6 0 .2 0 .4-.2.4s-.2-.2-.2-.3v-2zm5.7 7.1c0 .2-.1.3-.2.3-.2 0-.2-.2-.2-.3 0-.5-.3-.6-.4-.6-.3 0-2.6 1.2-3.1 1.4-.2.1-.2.2-.2.2 0 .1.1.2.2.2.2.1 1.9.8 2.4 1 .4.2.4.2.6.2.5 0 .5-.7.5-.9 0-.1.1-.2.2-.2.2 0 .2.2.2.3v2.2c0 .1 0 .3-.2.3s-.2-.2-.2-.3c0-.6-.7-.9-.9-1-.2-.1-3.8-1.6-3.9-1.7-1.5-.6-2.5-1-2.5-2.4 0-.8.5-.9.7-.9.3 0 .6.3.6.6s-.2.5-.3.7c-.1.1-.2.2-.2.4 0 .7 1 1 1.3 1 .1 0 .3 0 .4-.1.3-.1 3.6-1.7 3.9-1.8.3-.1.7-.4.8-.8.1-.4.1-.5.2-.5.2 0 .2.2.2.3v2.4z" fill="#4a1f00"/></g></g></g></svg>