<svg version="1.1" baseProfile="tiny" id="レイヤー_1" xmlns="http://www.w3.org/2000/svg" x="0" y="0" width="112.658" height="23.61" viewBox="0 0 112.658 23.61" xml:space="preserve"><metadata><?xpacket begin="﻿" id="W5M0MpCehiHzreSzNTczkc9d"?><x:xmpmeta xmlns:x="adobe:ns:meta/" x:xmptk="Adobe XMP Core 5.3-c011 66.145661, 2012/02/06-14:56:27"><rdf:RDF xmlns:rdf="http://www.w3.org/1999/02/22-rdf-syntax-ns#"><rdf:Description xmlns:dc="http://purl.org/dc/elements/1.1/"><dc:format>image/svg+xml</dc:format><dc:title><rdf:Alt><rdf:li xml:lang="x-default">Web</rdf:li></rdf:Alt></dc:title></rdf:Description><rdf:Description xmlns:xmp="http://ns.adobe.com/xap/1.0/" xmlns:xmpGImg="http://ns.adobe.com/xap/1.0/g/img/"><xmp:CreatorTool>Adobe Illustrator CS6 (Windows)</xmp:CreatorTool><xmp:CreateDate>2017-07-11T15:58:09+09:00</xmp:CreateDate><xmp:ModifyDate>2017-07-11T15:58:09+09:00</xmp:ModifyDate><xmp:MetadataDate>2017-07-11T15:58:09+09:00</xmp:MetadataDate><xmp:Thumbnails><rdf:Alt><rdf:li rdf:parseType="Resource"><xmpGImg:width>256</xmpGImg:width><xmpGImg:height>56</xmpGImg:height><xmpGImg:format>JPEG</xmpGImg:format><xmpGImg:image>/9j/4AAQSkZJRgABAgEASABIAAD/7QAsUGhvdG9zaG9wIDMuMAA4QklNA+0AAAAAABAASAAAAAEA AQBIAAAAAQAB/+4ADkFkb2JlAGTAAAAAAf/bAIQABgQEBAUEBgUFBgkGBQYJCwgGBggLDAoKCwoK DBAMDAwMDAwQDA4PEA8ODBMTFBQTExwbGxscHx8fHx8fHx8fHwEHBwcNDA0YEBAYGhURFRofHx8f Hx8fHx8fHx8fHx8fHx8fHx8fHx8fHx8fHx8fHx8fHx8fHx8fHx8fHx8fHx8f/8AAEQgAOAEAAwER AAIRAQMRAf/EAaIAAAAHAQEBAQEAAAAAAAAAAAQFAwIGAQAHCAkKCwEAAgIDAQEBAQEAAAAAAAAA AQACAwQFBgcICQoLEAACAQMDAgQCBgcDBAIGAnMBAgMRBAAFIRIxQVEGE2EicYEUMpGhBxWxQiPB UtHhMxZi8CRygvElQzRTkqKyY3PCNUQnk6OzNhdUZHTD0uIIJoMJChgZhJRFRqS0VtNVKBry4/PE 1OT0ZXWFlaW1xdXl9WZ2hpamtsbW5vY3R1dnd4eXp7fH1+f3OEhYaHiImKi4yNjo+Ck5SVlpeYmZ qbnJ2en5KjpKWmp6ipqqusra6voRAAICAQIDBQUEBQYECAMDbQEAAhEDBCESMUEFURNhIgZxgZEy obHwFMHR4SNCFVJicvEzJDRDghaSUyWiY7LCB3PSNeJEgxdUkwgJChgZJjZFGidkdFU38qOzwygp 0+PzhJSktMTU5PRldYWVpbXF1eX1RlZmdoaWprbG1ub2R1dnd4eXp7fH1+f3OEhYaHiImKi4yNjo +DlJWWl5iZmpucnZ6fkqOkpaanqKmqq6ytrq+v/aAAwDAQACEQMRAD8APvzQ/M78z/Lv572Xl3y3 cwz2urRWcdvpd8oa1Mk7NFzLLSWP4gSSrfQcrJNt8IgxsvRfU/5yK/5Z/KH/ACO1P/qlkt2v0+bE PzX8w/8AOQ+heQ9T1SVvL1lbQKguLrS5Lx7xEkkWPlD9YRIwavueoHTfBImmcBElkf8Azjx+Yfm3 zz5Lk1HzFaxrJazfVoNSjIX63wWrs0IFEZSRUr8LE7AUwxNsckQDs9Ettf0K61GfTLbUbWfUrU0u bKOaN54jQH95GrF12PcZK2FPI/8AnLeF2/KqO4jbhJZ6nbTI4JDAlJY6qR3/AHmQnybMPNOP+ca7 XUx+VWm6jqOq3eqXGptLcD63K0ogRZGhWKIuSwWkfLr1Jww5Iy83qWSa0Nqdtd3OnXNvZ3bWF3LE 6W96iJI0MhFFkCSBkbid6MKHFQ+c7b/nInzz5D85y+U/zPs4ryCBwv6Zs4/SlaJz8FyI1pHLGw3o qqw3G5HHK+Ijm3+GCLD6Rtbm3uraG6tpBLbzossMqmqsjjkrA+BByxoSHz35MtfNugSabJcTWF4h 9bTdTtnaOe1uVUhJUZCp/aoy13H34CLZRlReA/lp/wA5CebfLnnFvIf5kN9a9G6Nh+ljT1oZQ3BT KwoJYmNPj+1Q1qcgJdC3Sxgiw+oMscd2KuxVZPI0UMkixtKyKWESU5MQK8V5FRU9qnFWOeRPzE8s ed9NkvNEmf1LZ/SvrC4X0rq2k3+CaIk8TsdwSDvvscANspRIfNFjY+ZLn/nKnUtE0zWrzSIZ9Tmu rtoJGTlCkZuWQp9hg4+EclI3rvlf8TftwPbfzG/PfQvIPnjSvL+s27Gwv7X6xc30RLPblpWjjZog Ksh4Nypv4A9MmZUWqOMkWyHWvzZ8haHqOn2WsamLAarAtzp17NHItpNG/wDLc8fSBAIJ5MKAjxw8 QYiBKT/n4xvPyX8w3Gn3NKW8F1b3UD9ViuIpeSOvZlXqMEuScf1MM/5xJm826l5W1PWda1y71CyN z9SsLG5kMwj9FFd5A78nFfUChQQNjt0oIM81W96ybS7FXnnmD819Y0XzBcaOfInmDUkiYelqOnW4 uLWWMqGDLLVFB7FT0O2RMmYhY5sU/wChrfKtxqD6PpvlnzBc+YCWig0trWBZWmUE8HVZ5JFpT4vg NPDBxsvBPegPy7/Mj89bvWbnTPOHlS/Sy1aR1stSgtTB+j2l+FA3IcWhQkHk1WHX4umIJTKMehSD 8kvzp/O/zf8AWtLtbTTNZfTolkmvr9ntHAdiqBmgDKxPE/7rB8TgjIlM4RCc/mR+fn5pfl5d2Vtr /lvSib9HktpLa6mkUiMgODVUYEch2wmRCI4xLky7VPMP/OQsGiXN7H5e0GOaK3aYR/W7iWRSqciO HBFZh4c6V74bLECLzj/nGr80vzc82ebbux1O4XV9BiVrjUrq4VUe2aXl6QhaNR9txtGRTiDSlMjA ks8sIgKH5uyJH/zlZ5MZzQFtLUH3a6kUD7zjL6kw+gvqPLHHecf85FED8l/M5JoPRhG/vcxDIy5M 8f1BKv8AnFdEX8mdLKgAvcXbOR3P1hxU/QBjDknL9Tx/zBodrf8A/OYo0+6ZjC1/a3JKEo1Y7CO5 Vag1pyUA07ZA/U2g+h69/wA5VwCT8m9QcmhhurRwPGswT/jfJT5NeL6k4/5x2/8AJMeWP+ME3/UT LhjyY5PqL0bJMEHb61o9xey2NvfW817ASs9rHKjSoR1DoCWX6RimmDfm9+SXl78yobJ7y4fTtTsS Vh1CFFdjCxq0TqxHJa7rv8J+ZrGUbZQmYoGH8x5vJ8kHlCPyJ5nvbPRYorC0v7G0S8hlhhRY4ZBK rxr8UagtWhB2Ixuk8N72Eb/yuW4/8t/5v/7h0P8A2U48SODzD58886/+Vfnr81rbVBp/me31X1I4 NR0G3061e5uJ7U8aA/W+cbhE4MODfZ7ZAkEt8QQOj6Bk/OW8CMY/y983NJT4VbT4VBPuRcNT7snx NHB5h5X5H8//AJ/aZ571DVNf8qazfeXNYuDJPpot5HazTpGbXkFA9NKKV2D9T8W+RBNtsoxrYvpz LHHdir5h1nR/MPlL/nK6xuPLttL9R8yPFPexRK3pNbzn071np8PwOpmPg1Mr5ScgEGG6p5aijf8A 5zI1t36wxSup9/qUa7/QxxH1IP0Mu8o/l3b+efzH1L80PMVus2k+oLfynp06Bkkt7ceml66NX4ZC C8QPjy/lwgWbYmVCg9C/M38v9M89+UL3Qb0Kssi87C7ZamC5X+7kHfrs1OqkjJEWwjKjbzs+QNX8 l/8AONXmLy7rd5Hf3VvZX0wMLO0MatV0SMusbUBHLdepORqgz4rnbv8AnEH/AMlRN/21Ln/k3DjD kubm9uybU7FXYq+W/LcKQ/8AOZmoolaFrl9/F7DmfxbKx9TkH+7fUmWOO+OP+ca/zA8peS/M/mmP Xbh7OC8WMWrRwT3ArBK4K8bdJWG0g3IplUDTlZYkgUof85TfmF5T84ap5f8A8PXUl2tjBcfWWe3n t6GV04gC4SJj/dnoKYzNriiRze76r/zkb+U7eX7ueHU55JHtXaKA2N8vJmjPFPUMHpipNK8qe+T4 g0jFK3n3/OFCKNO82OAOZmsgWpuQFmoK+1TkcbPP0TX84/yL83eevzd0vVrVltfLwtreG91FZVWa L0ZJHf00Px8+LDgaUr1wyjZRDIBFg35VR+c/NH5r6z5Qu/NPmF9F0p7zndRavdRTRxW0phi7ujFn ZARQbVPbIx3LOdCN09R/MX/nHvUNZ8pXdjo/mzXrzUGMbQ2ms6pLcWMnCQEiVCrdB8Smn2gMkYtc clHkzf8AJ7yLe+R/y+03y7fXEdze2/qyXMkNfTDzStIVQsASF5UqQK+AyURQYTlZt4TqX/rayf8A Ge3/AO6OmV/xNw/u3qH/ADlN/wCSY1b/AIz2f/USmTnya8X1Jp/zjt/5Jjyx/wAYJv8AqJlxjyRk +ovRskweO/n7+SsPm/TH8xaBGbbzlpqepBJAeDXSR7+kxFP3g/3W3jt06QlG23HOtjySD8i/za81 yflxfzeZUm1G/sdRt9J0aW4qkt1cXTLGlu8hBZmic1diCQvWtMYy2TkgL2fQOTaXYq+SPIMSP/zm BqbMKmO/1ZkPgTDMv6mOVD6nJl9D63y1xnYq7FUJq8eqSaXdJpM0UGptE31Oa4QyRLLT4DIqlSVr 1ocUh5n+kP8AnJe3tZ7y8tvJ6w28byPGH1FXIReWzVkTt3pkd2fo83zZ5G/MrzXqn5x3PmaA6Na6 rrqyW9wNVMkWmrHIioFZgzOK+mqjc1PzysHdvlEcNPZb78sP+clrvzpbebk8x6Fa3lrGILaxtpbx bJbfq0PoG3bkj9TyJPTfZaSotXFCqT380PzE/Mj8tb/TPMV9HBrPlTUVit9V06JQrWN2EHP6tcBI 3eOQhinrA9KfDUYSSEQiJbdWUecfMGi+bfyO8w63pUxm02+0O+ngenFgY7eQlHG9GR04sPbCTYYx FSYj/wA4g/8AkqJv+2pc/wDJuHBDkyzc3t2TanYqwDzP+d/kbyx5hn0HWje299AiS1WzmljdJBVW jaMPyHUV8QR1yJkGYxki3zZpn5q+WbX/AJySvvO8iXL6LI9wkQiiLTt/onoJ+6bgw5MvQ9K75Xe9 t5geCnrn5Xf85KXHmfzZLoevaJNp0d/cFdDuIYpZAFJokVzsfi/4sHw+IUb5MTa54qFhhf8Azhb+ 91rzZPIA0xgtayEfF8ckpbf3IFcGNln6Kv8AzmwsH1nygygfWCmoCQ9+ANvwr9JbHIuDq+jvNkUA 8o6zEyKIBp9ypQgcOHosKU6Upky0Dm+f/wDnChl/RvmxajkJrIkd6FZqfqyGNuz9H0uSAKnYDLGh 8Z/849a35zT8wPMuteV/LY8xrdI4uw92tksK3E5ljYyyq4Jf0yOPGp9qHKo83KyAULL138y/ze/O Hyx5Su9Um8jQaSoKxLqbapDfLA8jBVY26RRs25oN6V6+GSMiGqMIk802/wCccfzE84edfJ0tx5kt GL2Uggt9ZoqLeDfl8Ap8cWwZgOJr4g4Ym0ZYgHZ5dqX/AK2sn/Ge3/7o6ZD+JsH929Q/5ym/8kxq 3/Gez/6iUyc+TXi+pNP+cdv/ACTHlj/jBN/1Ey4x5IyfUXo2SYOxV5FqesDzb/zkBpXlyBuel+Sb WXVdQAPwPfzoIYVNO8KzBl9yw7ZHmWwCo33s287/AJk+UvJEdpN5luJbO1vWaOK6W3nniDqK8XaF JOJI3APXenQ4SaYxiTyYxH/zkv8Aki7hV8ygE/zWd8o+9oAMHGGXhS7nzh5R/Mnyppv/ADkdeecb m4ceXru+vjHeCNqiO5V0jlaMgOF+IE7cgO3bKwd28xPDT6B8zf8AOT/5UaZo93caZqw1bU0iY2dh FDcL6svRVaR41RFruxLVp0BO2WGYaBiko/kT+f1t+YKNo+rwrZ+aLdGlZIVYW9xEp+3HUsUZa/Ej H3B6gCMrTkx8L2LJtTsVeZf85Gecl8sflXqrRycL7Vh+jLMA0NbgESkU3HGEOa+NMjI7NmONl87f 843eUo5/zP1Xy15ksaxz6Pcw31jN14yNC1DQ/CwBB8QffK4Dduynaw9F/Lrz1r/5bfmk/wCUvmK4 k1DQJ50h8vX05rLCk4rary/aR6iMr+y/TbbJA0aYSiJDiD3Tzz5Q0/zh5T1Ly5fsY7fUIuHrKAzR upDxyAHqUdQcmRbTE0bYXc+Q7LyF+QPmTy5bXT3kdvo+qu91KAhd5oJWNFBIUb0Argqgz4rkC8l/ Jj83PL/kD8iNRupZ4bnXE1OZbHRzIBNI8scQVmQfEIwASzUptTrTIxlQbJwJk9x/Kb83ND/MfR5b zT7aezu7Qql/azIxSN2FRwnA9NwfobxUZKMrapw4WdZJg7FXyn5Rjjb/AJzH1IsoJW4vmWoGx+ps Kj33yofU5B+h9T3kskNpPLGOUkcbOimpqVUkCgy1x3x3/wA4x/lrrnmKTWtTh1vVfLlnAkVul1pr +ibh2ZmZCzBgwj4Cu3fKoByssqQn/OT/AJL1DyzquhfW/Meo+YRdwT+m2pyCR4fTZKhGFBRufh2w TC4pW9x1v8hvMtz5du7C2/MTzBNNLbPCsF1OrW0lUKmORFCtwf7J+Lp45Ph82oZBfJC/84y/lP5s 8g2evy+ZI4re41V7VYLeORZSEthKS7MhK/EZ6AV7YwjS5Zg8non5peYU8u/l15i1gtwe2sZhA3/F 8q+lCPpldckTswgLLzH/AJw/8syad+Xl5rUyFX1u8ZoSR9qC2HpKf+RnqZGA2bMx3R//ADltfi1/ KN4CafXtQtbce/HnP/zJxnyRhHqZL/zj7pX6M/J3yzAV4tNbNdt4n61K84J/2Mgwx5Mch9ReIwtP ff8AOZzyRq8vo3ZEhCn4Uh070yTtsBxpXIfxNv8Ak3q//OU3/kmNW/4z2f8A1Epk58mvF9SYf843 zLN+Snll1BAEdym/jHeTIfxXGHJcv1F6VkmthH5mfm15U8iaNez3l9bya1FDzstGEq/WZZHqIqxA 81jLDd6UpXvgMqZxgS8z/wCcQ7O7vtK81ecNQczajrWo+lNO4+JjEvrSMP8AWe53p4e2RgzzdA+g mRWpyANDUVFaEd8m0t4q+R/y/ggP/OXuqAxqQl/qroKDZvTl+Ie++VD6nJl9D64y1xnYq7FXYq8Q 1XRW/NP85k9cep5J8gt6UoO8d1qzEPJEOzLHRA/hxp+3kOZbQeGPmWLfls6t/wA5a+cCpDD0bwVB ruHgBH0EYB9TKX0BmHny11W7/My01Sx/LCfXNc0ZVGm67NqEdrZGMFmjc15IzRu7EK3xDr4YTz5M Y8uafC0/5yB1cAT3+g+WIW72sM+pXKg+PrNFCae334d0ekMY/Mr8odYn/L/zHqHmHzzrWr3Flp9x eJaq0NpYu9tE0yiS1iTiwJj/AJtsBjsmM99gxn/nEzyD5L1nyVqGtaxotpqWpRarJbRT3cSz8I47 eCRQqSBkFGlY1ArggGWaRBfSVraWtpAsFrDHbwJ9iKJQiD5KoAyxoVcVQd7rOj2AY319b2oX7Rnl SOm1d+RHbfFNPjq1/MTy3oP/ADkzqnmt5H1DSDc3SRSaeFnaUywGJPS+JVfk5oCDlV7uTwkwp9H6 F5s/M3zCTqkPlpNC0GJHlitdSflql7xUlI0hBSO05tsWlLU8O+TBLQQB1QVn+dupTFvW/LnzbEF2 qLBD8Q8OcsdR7jHi8k8HmHz/AP8AOU3nOXzLq2gB9A1XQltLefiNXgW3eUyulfTVHlBC8Nzy79Mh Mt2KNPXvPf5xfmXf+Xki8h+Rtes9SueJfUL+xXjFGQDWGNWmDs3SrgADtXpIyPRqjAXuWc/lT5z8 2+ZdGcea/Ll1oGsWnBZ2miaO3uOVfjg5nmPs/EprTxOSBYziByee/wDOQN3qnnbzLon5SeXmrPcy JqHmG4UVW2tk/u/U7UAJkIPU8KfayMt9mePYcRe0eXdK0rRtFtNF0viLPS4ktI0UhiojUD46ftHq cmGom3zV/wA5febLfVtV0HyTpUgur63la4vYYyGKzzUitojQ7PQuSp7Mvjlcz0b8Ird9L+XdJTRv L+maQhBTTrSC0UjYEQRrGKf8DlgaCbKNWCBZWmWNRM4o8gADEDxPXtih5J/zlXcRRfk3qEbtRri6 tI4h4sJhJT/gUJyE+Tbi+pHf84y/+SQ8t/8AR7/1H3GGHJGX6i9QyTW8h/5yh8oaXrP5W6hqslur aponp3Nlchf3ioZVSZOQ34FGJI6VAPbIzGzbiNFj/wDzhtq0c/kDVtM29ax1JpTT+S4hTjX/AGUT YMfJOYbvfsm0uxV8kfl1NFL/AM5d6q8bBlN/q6gjoSscoP4jKh9Tky+h9b5a4zynWv8AnI/yJo35 jP5Nvy8cUXGK41oMptorlt/Sk7hVqAz/ALLbEChIjxi2wYiRb1VWVlDKQysKgjcEHJNay5jklt5Y 45TBI6MqTKAWRiKBgGBUkddxiqA8teXNK8uaNb6RpcZjtbcH4mPKSSRjykllfq0kjEszdzgASTb5 l/Km6Mn/ADlj5oMdVVrjV4nHj6c1P+JJXKx9TfP6A+rctcd2KsO/OQkflT5tIND+i7obe8RGCXJl DmHl/wDzhlMT5C1uHlUJqpcJ4c7eIV+nh+GRx8mzPzfQOTaXYq+dvzF/5xfufNv5qXOtW16mmeX9 QiS5v5QPUm+t14SJFHUfbChyzGgJOx6ZWYWW+OWg9T8hfk3+X/keNG0bTUfUFFG1W6pNdsSKGkhH wV7iMKPbJiIDXKZLNsLB2Kvlr/nNhoDc+T0Uj6wE1AyDvwJtuFfaobK8jkYOr6jiljljSWJxJFIA yOpBVlIqCCOoOWOOwPRPzu8i6v5+v/JNtdcdSsz6cE7FfQuZVH72KFwd3jO1D13pWmR4hdMzAgWm /kr8v9H8q/XbqJ5L/W9VkM+r6zc0NxcyEk0PEBUjWtERRQD78IFIlK2F/nX+R585Qx6t5Xkh0fzd G6iW+5vbpcwEcWSdoVZiyinFqHb4enQSjbKGSufJi/5Q/wDOLTeWfMMHmPzbfwalf2Tiaxs7Xm0K zg1WaSSVUZyp3UcRvvgjBlPLYoPoPJtKV+ZPLWkeY9LfTNVjke2YhwYZZIJFcAgMkkTI4Ir44CEg 0+ZPN/8Aziz5+1DzibHTNVe48pkrJBqGp3JlkgDD94npA8ndf2SFUHapGVmBb45RXm+l/J3lbT/K nlfTfLunlmtNNhEKO/2napZ3am1XcljTxywCmiRs2nGFDHvzC8sTeafJOs+XoJlt59StXhhmcEor ndOVN+PIb0wEWGUTRt59+Rv5Ez+R/L2v6f5lntdTk8w+nDeWsHN7b6vEsiheUixsxf1m5fCO2RjG meTJZ2R0P/ONH5WRRhPq98wH2a390KDsAFdRQYeAI8Uo3/lQP5fUpXVKdKfpS+pT/kbjwhHiFAQ/ 84w/lBDOtxDp1zHOh5JKl7dK4bxDCStceAJ8WSOf/nH/APLyRCj/AKTdGFGVtUviCPcGXHhCPEKX H/nFr8mSSTpU5J3JN5c/8148AT4snpeh6Lp+h6PZ6RpqNHYWMSwW0bu8hVEFAOchZj9JyTAm0dih 2KvC/wAsPyM8zeXfzg13znq11bmwuJbxrCOF2eWX65LzDSBlUIFViDvXl7b5AR3bpZAY090ybS7F WNfmX5f1LzF5B13Q9MZUv9QtJIbcyMVQsw+yzAGgbpgI2ZRNFhf/ADjn+Vuv/l/5Xv4NeaIahqVy Jzbwt6giRECKGcbFia1pt03wRFMskwTs9ZyTW7FXYq4gEEEVB2IOKvL0/wCcbPylSeSWPTbiNZZW maCK9uooqs1eISORKKPsinbI8AbPFkiv+hefyj/6s8//AHEdS/7KceEI8SSjN/zjb+TE7Bp9AeVg KAvf6gxA+m4x4AnxZKkf/OOv5PxoEj0SVEXZVXUdSAHyAuceEI8SSlB/zjX+S0E0c8Hl9opomDxS pf6grKymqsrC4qCD0OPAE+LJ/9k=</xmpGImg:image></rdf:li></rdf:Alt></xmp:Thumbnails></rdf:Description><rdf:Description xmlns:xmpMM="http://ns.adobe.com/xap/1.0/mm/" xmlns:stRef="http://ns.adobe.com/xap/1.0/sType/ResourceRef#" xmlns:stEvt="http://ns.adobe.com/xap/1.0/sType/ResourceEvent#"><xmpMM:RenditionClass>proof:pdf</xmpMM:RenditionClass><xmpMM:OriginalDocumentID>uuid:65E6390686CF11DBA6E2D887CEACB407</xmpMM:OriginalDocumentID><xmpMM:DocumentID>xmp.did:8D07AA7AFA65E711A588CAE2881F51E6</xmpMM:DocumentID><xmpMM:InstanceID>xmp.iid:8D07AA7AFA65E711A588CAE2881F51E6</xmpMM:InstanceID><xmpMM:DerivedFrom rdf:parseType="Resource"><stRef:instanceID>uuid:c5b5eddb-66da-6741-a40d-cc810f9d042d</stRef:instanceID><stRef:documentID>xmp.did:FB05051EC465E111835FF2FC000FBA2B</stRef:documentID><stRef:originalDocumentID>uuid:65E6390686CF11DBA6E2D887CEACB407</stRef:originalDocumentID><stRef:renditionClass>proof:pdf</stRef:renditionClass></xmpMM:DerivedFrom><xmpMM:History><rdf:Seq><rdf:li rdf:parseType="Resource"><stEvt:action>saved</stEvt:action><stEvt:instanceID>xmp.iid:8D07AA7AFA65E711A588CAE2881F51E6</stEvt:instanceID><stEvt:when>2017-07-11T15:58:09+09:00</stEvt:when><stEvt:softwareAgent>Adobe Illustrator CS6 (Windows)</stEvt:softwareAgent><stEvt:changed>/</stEvt:changed></rdf:li></rdf:Seq></xmpMM:History></rdf:Description><rdf:Description xmlns:illustrator="http://ns.adobe.com/illustrator/1.0/"><illustrator:StartupProfile>Web</illustrator:StartupProfile></rdf:Description><rdf:Description xmlns:xmpTPg="http://ns.adobe.com/xap/1.0/t/pg/" xmlns:stDim="http://ns.adobe.com/xap/1.0/sType/Dimensions#" xmlns:xmpG="http://ns.adobe.com/xap/1.0/g/"><xmpTPg:NPages>1</xmpTPg:NPages><xmpTPg:HasVisibleTransparency>False</xmpTPg:HasVisibleTransparency><xmpTPg:HasVisibleOverprint>False</xmpTPg:HasVisibleOverprint><xmpTPg:MaxPageSize rdf:parseType="Resource"><stDim:w>112.658203</stDim:w><stDim:h>23.609863</stDim:h><stDim:unit>Pixels</stDim:unit></xmpTPg:MaxPageSize><xmpTPg:PlateNames><rdf:Seq><rdf:li>Cyan</rdf:li><rdf:li>Magenta</rdf:li><rdf:li>Yellow</rdf:li><rdf:li>Black</rdf:li></rdf:Seq></xmpTPg:PlateNames><xmpTPg:SwatchGroups><rdf:Seq><rdf:li rdf:parseType="Resource"><xmpG:groupName>初期設定のスウォッチグループ</xmpG:groupName><xmpG:groupType>0</xmpG:groupType><xmpG:Colorants><rdf:Seq><rdf:li rdf:parseType="Resource"><xmpG:swatchName>ホワイト</xmpG:swatchName><xmpG:mode>RGB</xmpG:mode><xmpG:type>PROCESS</xmpG:type><xmpG:red>255</xmpG:red><xmpG:green>255</xmpG:green><xmpG:blue>255</xmpG:blue></rdf:li><rdf:li rdf:parseType="Resource"><xmpG:swatchName>ブラック</xmpG:swatchName><xmpG:mode>RGB</xmpG:mode><xmpG:type>PROCESS</xmpG:type><xmpG:red>0</xmpG:red><xmpG:green>0</xmpG:green><xmpG:blue>0</xmpG:blue></rdf:li><rdf:li rdf:parseType="Resource"><xmpG:swatchName>RGB レッド</xmpG:swatchName><xmpG:mode>RGB</xmpG:mode><xmpG:type>PROCESS</xmpG:type><xmpG:red>255</xmpG:red><xmpG:green>0</xmpG:green><xmpG:blue>0</xmpG:blue></rdf:li><rdf:li rdf:parseType="Resource"><xmpG:swatchName>RGB イエロー</xmpG:swatchName><xmpG:mode>RGB</xmpG:mode><xmpG:type>PROCESS</xmpG:type><xmpG:red>255</xmpG:red><xmpG:green>255</xmpG:green><xmpG:blue>0</xmpG:blue></rdf:li><rdf:li rdf:parseType="Resource"><xmpG:swatchName>RGB グリーン</xmpG:swatchName><xmpG:mode>RGB</xmpG:mode><xmpG:type>PROCESS</xmpG:type><xmpG:red>0</xmpG:red><xmpG:green>255</xmpG:green><xmpG:blue>0</xmpG:blue></rdf:li><rdf:li rdf:parseType="Resource"><xmpG:swatchName>RGB シアン</xmpG:swatchName><xmpG:mode>RGB</xmpG:mode><xmpG:type>PROCESS</xmpG:type><xmpG:red>0</xmpG:red><xmpG:green>255</xmpG:green><xmpG:blue>255</xmpG:blue></rdf:li><rdf:li rdf:parseType="Resource"><xmpG:swatchName>RGB ブルー</xmpG:swatchName><xmpG:mode>RGB</xmpG:mode><xmpG:type>PROCESS</xmpG:type><xmpG:red>0</xmpG:red><xmpG:green>0</xmpG:green><xmpG:blue>255</xmpG:blue></rdf:li><rdf:li rdf:parseType="Resource"><xmpG:swatchName>RGB マゼンタ</xmpG:swatchName><xmpG:mode>RGB</xmpG:mode><xmpG:type>PROCESS</xmpG:type><xmpG:red>255</xmpG:red><xmpG:green>0</xmpG:green><xmpG:blue>255</xmpG:blue></rdf:li><rdf:li rdf:parseType="Resource"><xmpG:swatchName>R=193 G=39 B=45</xmpG:swatchName><xmpG:mode>RGB</xmpG:mode><xmpG:type>PROCESS</xmpG:type><xmpG:red>193</xmpG:red><xmpG:green>39</xmpG:green><xmpG:blue>45</xmpG:blue></rdf:li><rdf:li rdf:parseType="Resource"><xmpG:swatchName>R=237 G=28 B=36</xmpG:swatchName><xmpG:mode>RGB</xmpG:mode><xmpG:type>PROCESS</xmpG:type><xmpG:red>237</xmpG:red><xmpG:green>28</xmpG:green><xmpG:blue>36</xmpG:blue></rdf:li><rdf:li rdf:parseType="Resource"><xmpG:swatchName>R=241 G=90 B=36</xmpG:swatchName><xmpG:mode>RGB</xmpG:mode><xmpG:type>PROCESS</xmpG:type><xmpG:red>241</xmpG:red><xmpG:green>90</xmpG:green><xmpG:blue>36</xmpG:blue></rdf:li><rdf:li rdf:parseType="Resource"><xmpG:swatchName>R=247 G=147 B=30</xmpG:swatchName><xmpG:mode>RGB</xmpG:mode><xmpG:type>PROCESS</xmpG:type><xmpG:red>247</xmpG:red><xmpG:green>147</xmpG:green><xmpG:blue>30</xmpG:blue></rdf:li><rdf:li rdf:parseType="Resource"><xmpG:swatchName>R=251 G=176 B=59</xmpG:swatchName><xmpG:mode>RGB</xmpG:mode><xmpG:type>PROCESS</xmpG:type><xmpG:red>251</xmpG:red><xmpG:green>176</xmpG:green><xmpG:blue>59</xmpG:blue></rdf:li><rdf:li rdf:parseType="Resource"><xmpG:swatchName>R=252 G=238 B=33</xmpG:swatchName><xmpG:mode>RGB</xmpG:mode><xmpG:type>PROCESS</xmpG:type><xmpG:red>252</xmpG:red><xmpG:green>238</xmpG:green><xmpG:blue>33</xmpG:blue></rdf:li><rdf:li rdf:parseType="Resource"><xmpG:swatchName>R=217 G=224 B=33</xmpG:swatchName><xmpG:mode>RGB</xmpG:mode><xmpG:type>PROCESS</xmpG:type><xmpG:red>217</xmpG:red><xmpG:green>224</xmpG:green><xmpG:blue>33</xmpG:blue></rdf:li><rdf:li rdf:parseType="Resource"><xmpG:swatchName>R=140 G=198 B=63</xmpG:swatchName><xmpG:mode>RGB</xmpG:mode><xmpG:type>PROCESS</xmpG:type><xmpG:red>140</xmpG:red><xmpG:green>198</xmpG:green><xmpG:blue>63</xmpG:blue></rdf:li><rdf:li rdf:parseType="Resource"><xmpG:swatchName>R=57 G=181 B=74</xmpG:swatchName><xmpG:mode>RGB</xmpG:mode><xmpG:type>PROCESS</xmpG:type><xmpG:red>57</xmpG:red><xmpG:green>181</xmpG:green><xmpG:blue>74</xmpG:blue></rdf:li><rdf:li rdf:parseType="Resource"><xmpG:swatchName>R=0 G=146 B=69</xmpG:swatchName><xmpG:mode>RGB</xmpG:mode><xmpG:type>PROCESS</xmpG:type><xmpG:red>0</xmpG:red><xmpG:green>146</xmpG:green><xmpG:blue>69</xmpG:blue></rdf:li><rdf:li rdf:parseType="Resource"><xmpG:swatchName>R=0 G=104 B=55</xmpG:swatchName><xmpG:mode>RGB</xmpG:mode><xmpG:type>PROCESS</xmpG:type><xmpG:red>0</xmpG:red><xmpG:green>104</xmpG:green><xmpG:blue>55</xmpG:blue></rdf:li><rdf:li rdf:parseType="Resource"><xmpG:swatchName>R=34 G=181 B=115</xmpG:swatchName><xmpG:mode>RGB</xmpG:mode><xmpG:type>PROCESS</xmpG:type><xmpG:red>34</xmpG:red><xmpG:green>181</xmpG:green><xmpG:blue>115</xmpG:blue></rdf:li><rdf:li rdf:parseType="Resource"><xmpG:swatchName>R=0 G=169 B=157</xmpG:swatchName><xmpG:mode>RGB</xmpG:mode><xmpG:type>PROCESS</xmpG:type><xmpG:red>0</xmpG:red><xmpG:green>169</xmpG:green><xmpG:blue>157</xmpG:blue></rdf:li><rdf:li rdf:parseType="Resource"><xmpG:swatchName>R=41 G=171 B=226</xmpG:swatchName><xmpG:mode>RGB</xmpG:mode><xmpG:type>PROCESS</xmpG:type><xmpG:red>41</xmpG:red><xmpG:green>171</xmpG:green><xmpG:blue>226</xmpG:blue></rdf:li><rdf:li rdf:parseType="Resource"><xmpG:swatchName>R=0 G=113 B=188</xmpG:swatchName><xmpG:mode>RGB</xmpG:mode><xmpG:type>PROCESS</xmpG:type><xmpG:red>0</xmpG:red><xmpG:green>113</xmpG:green><xmpG:blue>188</xmpG:blue></rdf:li><rdf:li rdf:parseType="Resource"><xmpG:swatchName>R=46 G=49 B=146</xmpG:swatchName><xmpG:mode>RGB</xmpG:mode><xmpG:type>PROCESS</xmpG:type><xmpG:red>46</xmpG:red><xmpG:green>49</xmpG:green><xmpG:blue>146</xmpG:blue></rdf:li><rdf:li rdf:parseType="Resource"><xmpG:swatchName>R=27 G=20 B=100</xmpG:swatchName><xmpG:mode>RGB</xmpG:mode><xmpG:type>PROCESS</xmpG:type><xmpG:red>27</xmpG:red><xmpG:green>20</xmpG:green><xmpG:blue>100</xmpG:blue></rdf:li><rdf:li rdf:parseType="Resource"><xmpG:swatchName>R=102 G=45 B=145</xmpG:swatchName><xmpG:mode>RGB</xmpG:mode><xmpG:type>PROCESS</xmpG:type><xmpG:red>102</xmpG:red><xmpG:green>45</xmpG:green><xmpG:blue>145</xmpG:blue></rdf:li><rdf:li rdf:parseType="Resource"><xmpG:swatchName>R=147 G=39 B=143</xmpG:swatchName><xmpG:mode>RGB</xmpG:mode><xmpG:type>PROCESS</xmpG:type><xmpG:red>147</xmpG:red><xmpG:green>39</xmpG:green><xmpG:blue>143</xmpG:blue></rdf:li><rdf:li rdf:parseType="Resource"><xmpG:swatchName>R=158 G=0 B=93</xmpG:swatchName><xmpG:mode>RGB</xmpG:mode><xmpG:type>PROCESS</xmpG:type><xmpG:red>158</xmpG:red><xmpG:green>0</xmpG:green><xmpG:blue>93</xmpG:blue></rdf:li><rdf:li rdf:parseType="Resource"><xmpG:swatchName>R=212 G=20 B=90</xmpG:swatchName><xmpG:mode>RGB</xmpG:mode><xmpG:type>PROCESS</xmpG:type><xmpG:red>212</xmpG:red><xmpG:green>20</xmpG:green><xmpG:blue>90</xmpG:blue></rdf:li><rdf:li rdf:parseType="Resource"><xmpG:swatchName>R=237 G=30 B=121</xmpG:swatchName><xmpG:mode>RGB</xmpG:mode><xmpG:type>PROCESS</xmpG:type><xmpG:red>237</xmpG:red><xmpG:green>30</xmpG:green><xmpG:blue>121</xmpG:blue></rdf:li><rdf:li rdf:parseType="Resource"><xmpG:swatchName>R=199 G=178 B=153</xmpG:swatchName><xmpG:mode>RGB</xmpG:mode><xmpG:type>PROCESS</xmpG:type><xmpG:red>199</xmpG:red><xmpG:green>178</xmpG:green><xmpG:blue>153</xmpG:blue></rdf:li><rdf:li rdf:parseType="Resource"><xmpG:swatchName>R=153 G=134 B=117</xmpG:swatchName><xmpG:mode>RGB</xmpG:mode><xmpG:type>PROCESS</xmpG:type><xmpG:red>153</xmpG:red><xmpG:green>134</xmpG:green><xmpG:blue>117</xmpG:blue></rdf:li><rdf:li rdf:parseType="Resource"><xmpG:swatchName>R=115 G=99 B=87</xmpG:swatchName><xmpG:mode>RGB</xmpG:mode><xmpG:type>PROCESS</xmpG:type><xmpG:red>115</xmpG:red><xmpG:green>99</xmpG:green><xmpG:blue>87</xmpG:blue></rdf:li><rdf:li rdf:parseType="Resource"><xmpG:swatchName>R=83 G=71 B=65</xmpG:swatchName><xmpG:mode>RGB</xmpG:mode><xmpG:type>PROCESS</xmpG:type><xmpG:red>83</xmpG:red><xmpG:green>71</xmpG:green><xmpG:blue>65</xmpG:blue></rdf:li><rdf:li rdf:parseType="Resource"><xmpG:swatchName>R=198 G=156 B=109</xmpG:swatchName><xmpG:mode>RGB</xmpG:mode><xmpG:type>PROCESS</xmpG:type><xmpG:red>198</xmpG:red><xmpG:green>156</xmpG:green><xmpG:blue>109</xmpG:blue></rdf:li><rdf:li rdf:parseType="Resource"><xmpG:swatchName>R=166 G=124 B=82</xmpG:swatchName><xmpG:mode>RGB</xmpG:mode><xmpG:type>PROCESS</xmpG:type><xmpG:red>166</xmpG:red><xmpG:green>124</xmpG:green><xmpG:blue>82</xmpG:blue></rdf:li><rdf:li rdf:parseType="Resource"><xmpG:swatchName>R=140 G=98 B=57</xmpG:swatchName><xmpG:mode>RGB</xmpG:mode><xmpG:type>PROCESS</xmpG:type><xmpG:red>140</xmpG:red><xmpG:green>98</xmpG:green><xmpG:blue>57</xmpG:blue></rdf:li><rdf:li rdf:parseType="Resource"><xmpG:swatchName>R=117 G=76 B=36</xmpG:swatchName><xmpG:mode>RGB</xmpG:mode><xmpG:type>PROCESS</xmpG:type><xmpG:red>117</xmpG:red><xmpG:green>76</xmpG:green><xmpG:blue>36</xmpG:blue></rdf:li><rdf:li rdf:parseType="Resource"><xmpG:swatchName>R=96 G=56 B=19</xmpG:swatchName><xmpG:mode>RGB</xmpG:mode><xmpG:type>PROCESS</xmpG:type><xmpG:red>96</xmpG:red><xmpG:green>56</xmpG:green><xmpG:blue>19</xmpG:blue></rdf:li><rdf:li rdf:parseType="Resource"><xmpG:swatchName>R=66 G=33 B=11</xmpG:swatchName><xmpG:mode>RGB</xmpG:mode><xmpG:type>PROCESS</xmpG:type><xmpG:red>66</xmpG:red><xmpG:green>33</xmpG:green><xmpG:blue>11</xmpG:blue></rdf:li></rdf:Seq></xmpG:Colorants></rdf:li><rdf:li rdf:parseType="Resource"><xmpG:groupName>グレー</xmpG:groupName><xmpG:groupType>1</xmpG:groupType><xmpG:Colorants><rdf:Seq><rdf:li rdf:parseType="Resource"><xmpG:swatchName>R=0 G=0 B=0</xmpG:swatchName><xmpG:mode>RGB</xmpG:mode><xmpG:type>PROCESS</xmpG:type><xmpG:red>0</xmpG:red><xmpG:green>0</xmpG:green><xmpG:blue>0</xmpG:blue></rdf:li><rdf:li rdf:parseType="Resource"><xmpG:swatchName>R=26 G=26 B=26</xmpG:swatchName><xmpG:mode>RGB</xmpG:mode><xmpG:type>PROCESS</xmpG:type><xmpG:red>26</xmpG:red><xmpG:green>26</xmpG:green><xmpG:blue>26</xmpG:blue></rdf:li><rdf:li rdf:parseType="Resource"><xmpG:swatchName>R=51 G=51 B=51</xmpG:swatchName><xmpG:mode>RGB</xmpG:mode><xmpG:type>PROCESS</xmpG:type><xmpG:red>51</xmpG:red><xmpG:green>51</xmpG:green><xmpG:blue>51</xmpG:blue></rdf:li><rdf:li rdf:parseType="Resource"><xmpG:swatchName>R=77 G=77 B=77</xmpG:swatchName><xmpG:mode>RGB</xmpG:mode><xmpG:type>PROCESS</xmpG:type><xmpG:red>77</xmpG:red><xmpG:green>77</xmpG:green><xmpG:blue>77</xmpG:blue></rdf:li><rdf:li rdf:parseType="Resource"><xmpG:swatchName>R=102 G=102 B=102</xmpG:swatchName><xmpG:mode>RGB</xmpG:mode><xmpG:type>PROCESS</xmpG:type><xmpG:red>102</xmpG:red><xmpG:green>102</xmpG:green><xmpG:blue>102</xmpG:blue></rdf:li><rdf:li rdf:parseType="Resource"><xmpG:swatchName>R=128 G=128 B=128</xmpG:swatchName><xmpG:mode>RGB</xmpG:mode><xmpG:type>PROCESS</xmpG:type><xmpG:red>128</xmpG:red><xmpG:green>128</xmpG:green><xmpG:blue>128</xmpG:blue></rdf:li><rdf:li rdf:parseType="Resource"><xmpG:swatchName>R=153 G=153 B=153</xmpG:swatchName><xmpG:mode>RGB</xmpG:mode><xmpG:type>PROCESS</xmpG:type><xmpG:red>153</xmpG:red><xmpG:green>153</xmpG:green><xmpG:blue>153</xmpG:blue></rdf:li><rdf:li rdf:parseType="Resource"><xmpG:swatchName>R=179 G=179 B=179</xmpG:swatchName><xmpG:mode>RGB</xmpG:mode><xmpG:type>PROCESS</xmpG:type><xmpG:red>179</xmpG:red><xmpG:green>179</xmpG:green><xmpG:blue>179</xmpG:blue></rdf:li><rdf:li rdf:parseType="Resource"><xmpG:swatchName>R=204 G=204 B=204</xmpG:swatchName><xmpG:mode>RGB</xmpG:mode><xmpG:type>PROCESS</xmpG:type><xmpG:red>204</xmpG:red><xmpG:green>204</xmpG:green><xmpG:blue>204</xmpG:blue></rdf:li><rdf:li rdf:parseType="Resource"><xmpG:swatchName>R=230 G=230 B=230</xmpG:swatchName><xmpG:mode>RGB</xmpG:mode><xmpG:type>PROCESS</xmpG:type><xmpG:red>230</xmpG:red><xmpG:green>230</xmpG:green><xmpG:blue>230</xmpG:blue></rdf:li><rdf:li rdf:parseType="Resource"><xmpG:swatchName>R=242 G=242 B=242</xmpG:swatchName><xmpG:mode>RGB</xmpG:mode><xmpG:type>PROCESS</xmpG:type><xmpG:red>242</xmpG:red><xmpG:green>242</xmpG:green><xmpG:blue>242</xmpG:blue></rdf:li></rdf:Seq></xmpG:Colorants></rdf:li><rdf:li rdf:parseType="Resource"><xmpG:groupName>Web カラーグループ</xmpG:groupName><xmpG:groupType>1</xmpG:groupType><xmpG:Colorants><rdf:Seq><rdf:li rdf:parseType="Resource"><xmpG:swatchName>R=63 G=169 B=245</xmpG:swatchName><xmpG:mode>RGB</xmpG:mode><xmpG:type>PROCESS</xmpG:type><xmpG:red>63</xmpG:red><xmpG:green>169</xmpG:green><xmpG:blue>245</xmpG:blue></rdf:li><rdf:li rdf:parseType="Resource"><xmpG:swatchName>R=122 G=201 B=67</xmpG:swatchName><xmpG:mode>RGB</xmpG:mode><xmpG:type>PROCESS</xmpG:type><xmpG:red>122</xmpG:red><xmpG:green>201</xmpG:green><xmpG:blue>67</xmpG:blue></rdf:li><rdf:li rdf:parseType="Resource"><xmpG:swatchName>R=255 G=147 B=30</xmpG:swatchName><xmpG:mode>RGB</xmpG:mode><xmpG:type>PROCESS</xmpG:type><xmpG:red>255</xmpG:red><xmpG:green>147</xmpG:green><xmpG:blue>30</xmpG:blue></rdf:li><rdf:li rdf:parseType="Resource"><xmpG:swatchName>R=255 G=29 B=37</xmpG:swatchName><xmpG:mode>RGB</xmpG:mode><xmpG:type>PROCESS</xmpG:type><xmpG:red>255</xmpG:red><xmpG:green>29</xmpG:green><xmpG:blue>37</xmpG:blue></rdf:li><rdf:li rdf:parseType="Resource"><xmpG:swatchName>R=255 G=123 B=172</xmpG:swatchName><xmpG:mode>RGB</xmpG:mode><xmpG:type>PROCESS</xmpG:type><xmpG:red>255</xmpG:red><xmpG:green>123</xmpG:green><xmpG:blue>172</xmpG:blue></rdf:li><rdf:li rdf:parseType="Resource"><xmpG:swatchName>R=189 G=204 B=212</xmpG:swatchName><xmpG:mode>RGB</xmpG:mode><xmpG:type>PROCESS</xmpG:type><xmpG:red>189</xmpG:red><xmpG:green>204</xmpG:green><xmpG:blue>212</xmpG:blue></rdf:li></rdf:Seq></xmpG:Colorants></rdf:li></rdf:Seq></xmpTPg:SwatchGroups></rdf:Description><rdf:Description xmlns:pdf="http://ns.adobe.com/pdf/1.3/"><pdf:Producer>Adobe PDF library 10.01</pdf:Producer></rdf:Description></rdf:RDF></x:xmpmeta><?xpacket end="w"?></metadata><g fill="#210701"><path d="M8.996 1.483c.234 0 .494 0 .702-.234.233-.286.52-.598.649-.598.286 0 1.872 1.04 1.872 1.378 0 .052 0 .13-.052.208-.052.104-.441.52-.494.65-.13.286-.13.624-.13 3.666 0 1.742 0 1.769-.156 2.054-.155.26-.52.702-1.092.702-.442 0-.494-.26-.598-.624-.103-.441-.467-.468-.753-.468H5.122c-.052 0-.234 0-.234.078 0 .052.156.104.208.104.91.26 1.014.286 1.014.52 0 .182-.104.312-.416.702-.13.156-.13.442-.13.728 0 .208-.077 1.196-.077 1.404 0 .624.52.624.832.624H8.97c.468 0 .624 0 1.04-.39.624-.598.702-.65.858-.65.208 0 1.508 1.145 1.508 1.534a.316.316 0 01-.13.26c-.078.053-.572.416-.624.442-.104.13-.624 3.927-.754 4.654-.442 2.496-.91 5.097-4.29 5.097-.208 0-.416 0-.676-.547-.286-.546-.442-.857-1.196-1.3-.104-.052-.494-.26-.494-.338 0-.052.052-.13.182-.13.078 0 .572.13.677.156.468.104 1.144.207 1.533.207 1.847 0 2.236-1.793 2.444-2.678.313-1.378.624-4.212.624-4.836 0-.598-.234-.78-.806-.78H6.084c-.26 0-.624 0-.78.338-.052.156-.233 1.145-.26 1.378-1.17 5.668-4.759 7.853-4.862 7.853-.13.001-.182-.104-.182-.207 0-.078.233-.363.285-.441.91-1.093 1.717-2.652 2.263-4.108 1.3-3.433 1.352-7.878 1.352-8.736 0-.858-.052-.937-.338-.937-.233 0-.441.104-.52.364-.104.364-.261.988-1.17.988-.494 0-.65-.286-.65-.858 0-.52.078-3.068.078-3.64 0-.624-.052-2.132-.13-3.276 0-.13-.053-.702-.053-.806 0-.208 0-.364.131-.364.26 0 .884.338.962.364.806.442.884.494 1.481.494h5.305zm.025 6.059c.286 0 .677 0 .755-.52.052-.312.052-2.964.052-3.51 0-1.014 0-1.352-.78-1.352H3.744c-.807 0-.807.338-.807 1.482 0 .546 0 3.25.104 3.536.104.364.52.364.728.364h5.252zm8.347-3.511c0 .13-.052.182-.364.546-.155.208-.233.338-.233.832v11.024c0 .598-.026 1.248-1.353 1.248-.598 0-.598-.338-.598-.572 0-.182.052-.91.078-1.066.13-1.82.13-3.978.13-5.07 0-2.314-.052-6.136-.104-6.786 0-.13-.078-.702-.078-.832 0-.052 0-.182.053-.234.103-.078 2.469.468 2.469.91zm4.29-3.64c.729.182.91.286.91.546 0 .26-.286.468-.364.521-.363.312-.39.312-.39 2.08 0 1.118.078 5.98.078 6.968 0 .884-.026 4.784 0 5.591 0 .572.052 3.042.052 3.535 0 1.769-.052 2.367-.858 3.146-.806.754-1.664.832-1.846.832-.416 0-.416-.104-.572-.65-.13-.52-1.403-.961-2.027-1.195-.156-.053-.338-.156-.338-.313 0-.104.182-.104.285-.104.234 0 1.898.078 2.263.078.857 0 1.118-.286 1.248-.885.104-.545.13-8.138.13-9.152 0-5.252-.208-9.724-.26-10.375a7.502 7.502 0 01-.104-.754c0-.052.026-.208.078-.26.078-.025 1.482.339 1.715.391zm11.596 9.101c0 .468-.313 1.014-.832 1.014-.416 0-.494-.104-1.248-1.17-.416-.624-1.145-1.43-2.003-2.184-.052-.052-.363-.26-.363-.312 0-.078.077-.078.182-.078.805-.001 4.264.571 4.264 2.73zm1.819-.624c0 .182-.546 1.872-.649 2.21-1.196 4.187-1.586 5.564-1.586 7.046 0 .625.025.729.363 2.366.104.494.183 1.015.183 1.3 0 1.066-.78 1.509-1.301 1.509-1.04 0-1.04-1.066-1.04-1.482 0-1.742 0-3.067-1.014-3.926-.104-.078-.754-.468-.754-.521 0-.13.26-.13.338-.13 1.222 0 1.326 0 4.108-6.058.233-.494.987-2.158 1.144-2.366.053-.078.13-.104.156-.078.052.026.052.077.052.13zm.521-4.889c0 .806-.572 1.144-.937 1.144-.571 0-.806-.39-1.664-1.742-.702-1.066-1.04-1.404-1.612-2.002-.155-.156-.26-.26-.26-.364s.078-.13.208-.13c.572 0 4.265.989 4.265 3.094zm5.954 10.011c-.468 0-2.08 0-3.146.052-.104 0-.676.078-.702.078-.052 0-.13-.078-.155-.13l-.572-.649c-.104-.104-.104-.131-.104-.156 0-.053.053-.053.104-.053.182 0 .988.078 1.144.078 1.664.078 2.679.104 3.563.104h.494c.676 0 .676-.572.676-.858 0-2.704 0-4.55-.025-5.148 0-.338-.053-.832-.677-.832h-1.819c-1.717 0-2.444.026-2.757.026-.155.026-.884.104-1.04.104-.078 0-.13-.026-.156-.078l-.626-.702c-.104-.104-.104-.13-.104-.156 0-.052.052-.078.104-.078.182 0 .987.078 1.144.104a67.24 67.24 0 003.536.078h7.54c1.274 0 1.431-.208 1.664-.676.546-1.04.572-1.17.832-1.17.364 0 2.341 1.846 2.341 2.21 0 .338-.131.338-1.353.338h-5.876c-.26 0-.599.026-.729.312-.078.208-.104 2.444-.104 3.016 0 .364.025 2.86.025 2.912.053.338.234.599.65.599h1.456c1.378 0 1.534 0 1.95-.624.546-.832.598-.91.832-.91.39 0 2.054 1.689 2.054 1.924 0 .286-.155.286-1.378.286H45.42c-.676 0-.676.599-.676.754 0 .937-.026 5.019-.026 5.851 0 .285 0 .754.702.754h2.912c1.118 0 1.43 0 1.924-.962.338-.677.494-.884.754-.884.521 0 2.444 2.002 2.444 2.184 0 .364-.546.364-1.378.364h-12.74c-.729 0-1.794 0-2.73.026-.182.025-.91.104-1.066.104-.104 0-.13-.026-.207-.13l-.572-.65c-.104-.104-.104-.13-.104-.155 0-.053.052-.078.104-.078.182 0 .988.078 1.17.104 1.43.052 2.444.078 3.536.078h2.522c.779 0 .857-.13.857-2.809v-3.874c0-.13-.025-.676-.676-.676h-.622zM45.63 3.927c0 .884-.702 1.274-1.222 1.274-.65 0-.729-.182-1.353-1.769-.156-.364-.572-1.43-1.534-2.444-.598-.624-.649-.702-.649-.78 0-.052.025-.104.077-.104.105-.025 4.681 1.379 4.681 3.823zM66.404 9.18c-.156 0-.78.026-.78.442 0 .104.104.208.208.26 1.482.78 4.057 2.652 4.057 4.057 0 .363-.208 1.092-.937 1.092-.494 0-.598-.313-.91-1.3-.624-1.95-2.235-3.433-2.34-3.433-.13 0-.13.078-.13.572 0 .624.052 3.666.052 4.342.026.988.104 5.772.104 6.865 0 1.195-1.118 1.377-1.248 1.377-.313 0-.729-.233-.729-.806 0-.571.208-3.38.234-4.004.025-.338.156-4.992.156-5.227 0-.155-.053-.286-.234-.286-.13 0-.182.078-.572.832-1.066 1.95-3.354 5.045-3.692 5.045-.052 0-.077-.026-.077-.078 0-.053.363-.702.441-.832 2.86-5.513 3.354-8.165 3.354-8.347a.564.564 0 00-.599-.572c-.468 0-1.897.078-2.34.104-.052 0-.312.026-.364.026-.104 0-.155-.052-.233-.156l-.494-.598c-.13-.13-.13-.13-.13-.182s.052-.052.104-.052c.13 0 .78.078.937.078.494.026 2.859.104 3.198.104.624 0 .779-.234.779-.754 0-1.482-.052-4.134-.104-5.512-.026-.286-.183-1.612-.183-1.898 0-.13.053-.286.209-.286.052 0 2.573.494 2.573.962 0 .13-.052.156-.26.364-.208.156-.416.39-.572 1.066 0 .052-.233 5.096-.233 5.356 0 .702.494.702.91.702.285 0 .857 0 1.065-.182.158-.155.886-1.221 1.147-1.221.13 0 2.028 1.378 2.028 1.742 0 .338-.286.338-.988.338h-3.407zm-4.602-2.237c-.52 0-.598-.416-.832-1.56-.26-1.196-.857-2.158-1.248-2.808-.025-.052-.078-.13-.078-.208 0-.104.104-.156.183-.156.441 0 3.016 1.82 3.016 3.484-.001.963-.78 1.248-1.041 1.248zm4.992.442c-.025 0-.052 0-.052-.078s.494-1.118.598-1.326c.494-1.144 1.118-3.094 1.17-4.186 0-.078.026-.234.156-.234.208 0 2.08 1.274 2.08 1.561 0 .156-.156.26-.233.312-.156.078-.572.286-.807.521-.078.076-2.6 3.43-2.912 3.43zm5.408 8.711c-1.118.233-2.496.546-3.198.754-.104.025-.468.156-.571.156-.078 0-.13-.026-.208-.104l-.624-.494c-.13-.104-.13-.104-.13-.155 0-.053.052-.053.701-.131a72.573 72.573 0 004.03-.701l4.057-.858c.806-.183.806-.884.806-.937 0-4.784-.13-9.594-.26-11.284-.026-.286-.234-1.638-.234-1.924 0-.13.078-.234.208-.234.156 0 2.679.442 2.679.884 0 .156-.494.624-.572.728-.13.286-.234.702-.26.884 0 .104-.026 4.16-.026 4.888 0 1.17 0 5.044.026 5.928 0 .234.233.442.494.442.104 0 .493-.078.623-.313.156-.26.65-1.533.91-1.533.078 0 2.236 1.014 2.236 1.43 0 .39-.78.572-.91.598l-2.6.52c-.442.078-.702.391-.702.832 0 1.093.26 6.215.26 6.761 0 .91-.832 1.326-1.326 1.326-.441 0-.754-.338-.754-.858 0-.233.078-1.352.078-1.586.026-1.066.104-4.004.104-4.732 0-.623 0-1.273-.755-1.117l-4.082.83zm1.872-3.927c-.546 0-.624-.312-.806-.91-.13-.468-1.066-2.184-1.769-2.886-.13-.13-.26-.234-.26-.338 0-.078.104-.104.156-.104.416 0 3.536 1.326 3.536 3.172.002 1.04-.727 1.066-.857 1.066zm.235-6.525c-.494 0-.78-.572-.988-.962-.416-.806-.676-1.04-1.534-1.846-.13-.13-.155-.156-.155-.234 0-.078.052-.078.182-.078.078 0 3.224.494 3.224 2.132-.002.103-.002.988-.729.988zm20.487 4.731c-.78 0-.806.026-.806 2.887 0 .155.025 2.625.025 3.041.026.131.052.261.234.261.468 0 3.328-1.222 3.64-1.222.052 0 .078.025.078.052 0 .676-7.254 3.848-7.696 4.187-.104.104-.494.598-.598.598-.313 0-1.04-2.002-1.04-2.34 0-.234.104-.234 1.196-.313 2.47-.156 2.47-.441 2.47-1.3v-4.94c0-.598-.052-.91-.806-.91-.625 0-1.118.026-1.301.052-.104 0-.572.078-.649.078-.104 0-.13-.052-.208-.182l-.442-.598c-.078-.104-.078-.13-.078-.182 0-.026.026-.052.078-.052.13 0 2.185.182 2.601.182.832 0 .832-.338.832-1.742 0-.676 0-4.186-.078-4.576s-.416-.442-.78-.442c-.313 0-2.054.13-2.054.13-.104 0-.156-.026-.234-.156l-.443-.598c-.052-.104-.104-.13-.104-.182 0-.052.025-.052.078-.052.182 0 .909.078 1.065.078 1.092.052 2.133.104 3.198.104h.494c.988 0 1.092 0 1.3-.182.183-.208.91-1.222 1.17-1.222.156 0 2.185 1.404 2.185 1.716 0 .364-.468.364-1.248.364H94.77c-.182 0-.546 0-.676.364-.078.234-.078 2.652-.078 3.146v2.782c0 .13 0 .468.364.468.233 0 .442-.13.598-.286.156-.156.807-1.118 1.015-1.118.155 0 2.054 1.404 2.054 1.716 0 .39-.442.39-1.17.39h-2.081zM107.9 1.587c.494 0 .78-.052 1.144-.364.364-.312.65-.572.755-.572.182 0 2.002.78 2.002 1.326 0 .208-.131.286-.547.546-.39.234-.416.52-.441.806-.026.312-.078 2.704-.078 3.9 0 .728.078 3.952.078 4.602 0 .858-.468 1.248-1.223 1.248-.441 0-.468-.078-.806-.832-.156-.364-.468-.364-.78-.364h-1.689c-.78 0-.78.208-.78 1.976 0 .338 0 2.054.078 2.236.104.233.312.233.91.233.754 0 .91-.052 1.04-.182.182-.183.936-1.222 1.17-1.222.156 0 2.21 1.403 2.21 1.716 0 .364-.468.364-1.274.364h-3.354c-.78 0-.78.338-.78 1.716 0 1.768 0 1.976.026 2.132.078.391.441.468.754.468h1.742c1.17 0 1.222 0 1.716-.728.546-.832.624-.937.832-.937.416 0 2.054 1.742 2.054 2.054 0 .287-.13.287-1.195.287H99.216c-.649 0-1.846 0-2.782.052-.078.026-.649.077-.702.077-.077 0-.13-.051-.208-.155l-.441-.599c-.053-.052-.104-.129-.104-.182 0-.025.026-.052.078-.052.156 0 .91.078 1.04.078 1.742.104 2.548.104 3.225.104h3.744c.806 0 .806-.39.806-1.846 0-2.314 0-2.47-.832-2.47h-.624c-1.17 0-2.34.025-2.964.078-.078 0-.416.051-.494.051s-.13-.051-.208-.155l-.468-.599c-.078-.129-.104-.129-.104-.182 0-.025.052-.052.104-.052.155 0 .884.078 1.04.078 1.56.077 2.392.104 3.224.104h.494c.806 0 .806-.208.806-2.132 0-1.639 0-1.846-.078-2.028-.155-.286-.546-.286-.779-.286h-1.69c-.598 0-.78 0-.884.546-.13.857-.26 1.586-1.43 1.586-.364 0-.494-.156-.494-.702 0-.261.104-1.404.104-1.638.026-.728.13-5.46.13-5.772 0-2.132-.13-3.562-.182-4.082-.026-.156-.13-.832-.13-.962 0-.078 0-.156.104-.156.13 0 1.248.572 1.482.65.468.182.832.234 1.586.234h6.315zm-4.836 9.621c.806 0 .806-.26.806-2.626 0-1.378 0-1.69-.806-1.69h-1.872c-.807 0-.807.104-.807 2.574 0 1.43 0 1.742.807 1.742h1.872zm0-4.993c.779 0 .779-.234.779-2.262 0-1.404 0-1.664-.779-1.664h-1.872c-.78 0-.78.26-.78 1.69 0 2.132 0 2.236.78 2.236h1.872zm3.329-3.925c-.858 0-.858.052-.858 2.236 0 1.456 0 1.69.858 1.69h1.794c.857 0 .857-.208.857-1.976s0-1.95-.857-1.95h-1.794zm0 4.602c-.858 0-.858.286-.858 1.846 0 2.34 0 2.47.858 2.47h1.664c.832 0 .91-.13.91-2.652 0-1.352 0-1.664-.858-1.664h-1.716z"/></g></svg>