<svg version="1.1" baseProfile="tiny" id="レイヤー_1" xmlns="http://www.w3.org/2000/svg" x="0" y="0" width="181" height="401" viewBox="0 0 181 401" xml:space="preserve"><metadata><?xpacket begin="﻿" id="W5M0MpCehiHzreSzNTczkc9d"?><x:xmpmeta xmlns:x="adobe:ns:meta/" x:xmptk="Adobe XMP Core 5.3-c011 66.145661, 2012/02/06-14:56:27"><rdf:RDF xmlns:rdf="http://www.w3.org/1999/02/22-rdf-syntax-ns#"><rdf:Description xmlns:dc="http://purl.org/dc/elements/1.1/"><dc:format>image/svg+xml</dc:format><dc:title><rdf:Alt><rdf:li xml:lang="x-default">Web</rdf:li></rdf:Alt></dc:title></rdf:Description><rdf:Description xmlns:xmp="http://ns.adobe.com/xap/1.0/" xmlns:xmpGImg="http://ns.adobe.com/xap/1.0/g/img/"><xmp:CreatorTool>Adobe Illustrator CS6 (Windows)</xmp:CreatorTool><xmp:CreateDate>2017-07-11T16:24:52+09:00</xmp:CreateDate><xmp:ModifyDate>2017-07-11T16:24:52+09:00</xmp:ModifyDate><xmp:MetadataDate>2017-07-11T16:24:52+09:00</xmp:MetadataDate><xmp:Thumbnails><rdf:Alt><rdf:li rdf:parseType="Resource"><xmpGImg:width>116</xmpGImg:width><xmpGImg:height>256</xmpGImg:height><xmpGImg:format>JPEG</xmpGImg:format><xmpGImg:image>/9j/4AAQSkZJRgABAgEASABIAAD/7QAsUGhvdG9zaG9wIDMuMAA4QklNA+0AAAAAABAASAAAAAEA AQBIAAAAAQAB/+4ADkFkb2JlAGTAAAAAAf/bAIQABgQEBAUEBgUFBgkGBQYJCwgGBggLDAoKCwoK DBAMDAwMDAwQDA4PEA8ODBMTFBQTExwbGxscHx8fHx8fHx8fHwEHBwcNDA0YEBAYGhURFRofHx8f Hx8fHx8fHx8fHx8fHx8fHx8fHx8fHx8fHx8fHx8fHx8fHx8fHx8fHx8fHx8f/8AAEQgBAAB0AwER AAIRAQMRAf/EAaIAAAAHAQEBAQEAAAAAAAAAAAQFAwIGAQAHCAkKCwEAAgIDAQEBAQEAAAAAAAAA AQACAwQFBgcICQoLEAACAQMDAgQCBgcDBAIGAnMBAgMRBAAFIRIxQVEGE2EicYEUMpGhBxWxQiPB UtHhMxZi8CRygvElQzRTkqKyY3PCNUQnk6OzNhdUZHTD0uIIJoMJChgZhJRFRqS0VtNVKBry4/PE 1OT0ZXWFlaW1xdXl9WZ2hpamtsbW5vY3R1dnd4eXp7fH1+f3OEhYaHiImKi4yNjo+Ck5SVlpeYmZ qbnJ2en5KjpKWmp6ipqqusra6voRAAICAQIDBQUEBQYECAMDbQEAAhEDBCESMUEFURNhIgZxgZEy obHwFMHR4SNCFVJicvEzJDRDghaSUyWiY7LCB3PSNeJEgxdUkwgJChgZJjZFGidkdFU38qOzwygp 0+PzhJSktMTU5PRldYWVpbXF1eX1RlZmdoaWprbG1ub2R1dnd4eXp7fH1+f3OEhYaHiImKi4yNjo +DlJWWl5iZmpucnZ6fkqOkpaanqKmqq6ytrq+v/aAAwDAQACEQMRAD8A7D5C8heU73ynpU02lWRc 2VlU/UrJiS1lC7Es8LMxZmJJJyIDOUjbIP8AlWnkz/q02X/SDYf9k+GkcRd/yrTyZ/1abL/pBsP+ yfGl4i7/AJVp5M/6tNl/0g2H/ZPjS8Rd/wAq08mf9Wmy/wCkGw/7J8aXiLv+VaeTP+rTZf8ASDYf 9k+NLxF3/KtPJn/Vpsv+kGw/7J8aXiLv+VaeTP8Aq02X/SDYf9k+NLxF3/KtPJn/AFabL/pBsP8A snxpeIu/5Vp5M/6tNl/0g2H/AGT40vEXf8q08mf9Wmy/6QbD/snxpeIu/wCVaeTP+rTZf9INh/2T 40vEXf8AKtPJn/Vpsv8ApBsP+yfGl4i7/lWnkz/q02X/AEg2H/ZPjS8RYJ/hrQP8e/o79G2f1On9 x9VtvT5ev6PP0vT9Lnw25cMjW7OzTO/y0/5QzSf+YKx/6gLfJBhLmyjCxdirsVdirsVdirsVdirs VdirsVdirsVeX/8AlT/8/wDlryPVs6Mo/LT/AJQzSf8AmCsf+oC3whjLmyjCxdirsVdirsVdirsV dirRZRSpAqaCvc4q3irsVdirsVeX/wDlT/8AP/lryPVs6Mo/LT/lDNJ/5grH/qAt8IYy5sowsXYq snadYXNuiSTAfAkjGNSfdgrkf8CcVed+VPNPmG987eYrIxwCF7uM2TTXk8sLw2kMUF8tkphVawz1 ElOPxncHrkQd2ZAp6PkmDsVdirBvJGn+cop7eSZl03y+samLRbi5/SNysZhVEX1+KslJFLV9WQEb UXtVAS+DdkMfikPnDQEu/NvMXCi9F7a+leGKza6gDlWVoX/Q126mLohef/WdcmQxidvx+tKNdtdP 816NA3lryjeRvb+YLe3k1FTbCMLY6kqXEnw3HrBeMbb+nt8t8B3SNuZe3ZNqdirsVeX/APlT/wDP /lryPVs6Mo/LT/lDNJ/5grH/AKgLfCGMubKMLF2KoDX7izttFvZ72T0rWKF3lf1mttgK09ZCrJU7 VBxKQ81tvNvlvVLXy9av5UMNtby6bNphDG3+q/Xpfq0csPJIZiAxbdV4uvQnI2zo971nJNbsVdir zv8AKWx0q0F2LSGeK6ex043HrWdvYq8dJzC6x25arGrcizHtlOIBvzEn7Um8w+UPzC1Tzprk9gtx a6adT0a4s7x9WuoIjBbpCbz0bKLlE1eBVufGp6VOWEFgJCl9vN+a/l2w17R9C8ofW57nU9Tu9K1h r6yS1CX13JPFI8LyLN+7WXdePUY7r6T1esRmQxqZAFkIHNVJYA03AJC1H0ZJrXYq7FXl/wD5U/8A z/5a8j1bOjKPy0/5QzSf+YKx/wCoC3whjLmyjCxdiqyeFJoZIX+xIpRqeDChxV5n5d/LK4tr2F4d dTU9PgvLYXQnYz3EMekFmtbOOVCifBO5aSsYP7NMiA2GT0/JNbsVdirBPy2giiFxDp1zZ3FnD6Al urDSf0faTkJMjCCYOUnIcKSy8lUDj1barH5fc3ZfP71X8xPzGg8uWz2GmhLvzHMi+jA7Bbe1WVvT S6vpSQsMAcj7Rqx2WvawlhGNoPyr+aukc4tF8zalbw6yGaGHUuLW9jfshoWt3loqvuOUTGvdeSFW IBUw7noQIIBBqDuCMkwdirsVeX/+VP8A8/8AlryPVs6Mo/LT/lDNJ/5grH/qAt8IYy5sowsXYqtk 5em3FQ7UPFSaAmnQmhxV5f5M0qPSvNlv5fttJvtOtNNR728vrS3+r6ddandiQyqzr8UsSRsViVvh Tio/kyIbJHa3qWSa3Yq7FWEfl3F5mOoavd6/p9naXN1FZSJPZxCH1C6SSPG49aYyeg8hQSlV5GvU AUqx3ZttyVQpKvNHm/yfBr36DTTonm/S1tZajcrcGwjS5v7Oe6EkkkQHqNwtgGBNfiHfbJkoETVs Y0W98p6ZeapfeaLeXULq/ntluvLjMuowaRaLO1rbzsjyzCVWuPi9VRzo4IRQTgZG+j3MAAAAUA2A GTaXYq7FXl//AJU//P8A5a8j1bOjKPy0/wCUM0n/AJgrH/qAt8IYy5sowsXYqsn9f0X+r8PWp8Hq V4196b4q8107zv5u/wAV3tldCI6fdazHpemTiFpIAYLYSXSIyvHJyJimFWDBWXw2yNthiKem5Jrd irsVYF+V9vpazahNYeXZ/LoNvZQPBIpET+h6w+BmjjdnRmZXLHccWp8VWpxV3U3ZSeptOPNP/KuI FjsfNSaUkWpytcJDqaW4inmgVVLn1hwaREYCp3plpprF9EL5Vufyls9VbTvKbaHb6ncxGR7fShaJ LJFGdywtwOQXEUp4urL8LF2KuxV5f/5U/wDz/wCWvI9Wzoyj8tP+UM0n/mCsf+oC3whjLmyjCxdi qyeL1YZIubR+opXmhoy1FKqexHbFWP6Z5W8rLf2l7p0jSLo3q29vax3DyW8Nw3ITStHyYfWWEzh3 b4jyNdzXBTIksjwsXYq7FWAflNNW1uIJNVv9UnjtrN+V/Z3VkqRyeqU9P62WeUswfk4YinEA0GU4 ve3ZvcofmDLqUf5l/l82nW8V1dV1cLFPM1vHT6otSZFjnYU9kOWHmwjyKlaSazN+etkdWsra1dPL F4YPq1w90DW/tgSTJBbFSPkceqf4fi9LyTW7FXYq8v8A/Kn/AOf/AC15Hq2dGUflp/yhmk/8wVj/ ANQFvhDGXNlGFi7FVK6tbe7tZbW4QSW86NHLGejI4ow28QcVSOPyPo1pqFjfaPz0V7NUheCw4RQX FuleMFxCVZHVangwAdaniwqaimXEyHCxdiqldxTTWs0UE7W00iMsdwgVmjYigcK4ZSVO9CKYlISD y3b+a01zVp9e9BlkitkspLRFSHgklwSoLFpy4V1L8/hqfg75CN2bZSIoU15n8lHXde0LWE1S50y4 0I3TQtarCzObuIRMG9dJkoFHQofoyRCBKgp2XkT0POEHmm61m+1G9t7GXTo4rkWqII5pUlJpbQ29 d4+9caXi2plOFi7FXYq8v/8AKn/5/wDLXkerZ0ZR+Wn/AChmk/8AMFY/9QFvhDGXNlGFi7FUDrtx qVvoeo3Glwi51OG2mksbdthJOsZMSH/WcAYlIeZ+X/0ydU0yWE6jDq17qa3EtjdyySywaQtoscp1 JQ7wxvNIhkiQ0Ks6hAKNkQzL1rJNbsVdirDdC1/zI8+iz6ldWU0OuNLH+j7e3ljltJIoZJXUymST n6TRelJyRPi8PsmqMjtfVtlEb10Sn83PPOsaKunaboFrqUmtTX9iUa2teVrLDLcLFJBJdSoYEMik qKsCGp0ycixhG+bIfNHneTQIrKQaJf6qLiWOG8XTRDO9o0pAX1Y/UWQip6opG25G1SSgRtk+Fi7F XYq8v/8AKn/5/wDLXkerZ0ZR+Wn/AChmk/8AMFY/9QFvhDGXNlGFi7FUm86azdaH5P13WrRUe60v T7q9gjlBMbPbwtKquFKmhK0NDgKYiy8n0L86/O2q+YbDTRo6G0l1CO2ub2JJEUR+uYnDA+uEYpNG 1OZ/u5N6H4Y8TYYAB7jk2p2KuxV53+WV/Mksn1vX7nXI9VjtpLAyxXLBZFgZ7mTnJDEsSSN9lK0A AH2jTKcR87b8o8qpT/MDyD5480eYtMQa6ieTFvLee/0eKM28/CAcy31qMmV+TpQKpSnKu/HLCCWu MgB5qPljyHr9v5y03UJdH0ny9puhJeRLLpTkyakLr4YxKgji4RoAHYSM7GQA++ICTIU9OyTW7FXY q8v/APKn/wCf/LXkerZ0ZR+Wn/KGaT/zBWP/AFAW+EMZc2UYWLsVQWuaRa6zo97pF2WFpqEEltch CAxilUpIoJDU5KSP1YpBp5xoH5c/lpdeaItQ0XV5HvNGm+HSUliHoNZXl0GV4WjEwQTTugJ68Rue piAGZkaeqZJrdirsVedflveLa6hdWtx5juNdfUUtpLZZVupeDrDI083ORFjijmkRuCrRBxoN8pxn fnbflG3KlfVfzQXTvP1t5fmtLlLC9gaCyuZLC9jE2qCYqLeOdkEToYgXLgcQBy5UO1l7tYhtaF/5 Wnrw8jaH5tOg2/1bWprCMW4vmMka38yRK29uFNOY25Y3svALp6RkmDsVdiry/wD8qf8A5/8ALXke rZ0ZR+Wn/KGaT/zBWP8A1AW+EMZc2UYWLsVdirD/AC95MOl+Z3vYkMdjax6iIXkZWluJ9Yvlvrh2 4/sRekkaF/iO9elWADIy2ZhhYuxV2KsK/Lzy9caLcX0U2iwaWZbWyb1ba9ur6JyDOGhQ3Kr6SQ/s xR/CofrvlWONdG3JK+rG9T0jzbcfnZFepqlvxsdNSVLOeKsMNhcXbQ3HoPu6XJjjD+r0J+Ajhk+q ARwsO8iaRZSvYabrmsXjeTdMs7zW9JhluXVDZ6TqirZTzUNHX0E5ngFWhBAGxyIZyPzfRQIIqNwc saHYq7FXl/8A5U//AD/5a8j1bOjKPy0/5QzSf+YKx/6gLfCGMubKMLF2KpL50jvZfK2oxWT3UdzJ FwSSwr9aUMwDNBQr+8CkldxvgKY83z7+X3mX8xLfWNF+rXnr2t8uk2l01wiTNFaC6CPEroI0V2+s SmoViePHmTE5WAJb5APpzLHHdirsVYF+WejRaI81jBa6q8MltBImoaj9TSL0w0hjjiht2WRKl3ej pzFfjI2ynFGu9uyyvuZHqnk7y7ql/PfX9sZp7m2jsrj97KqSW0UjyiJ40ZUZS0jcgR8Q2NRltNQk UH5o/LXyP5pa0bXdKju2sUaK1KvLDxiegaP9y8fJDT7LVGJAKRIjkySKKKGJIokCRRqEjRRQKqig AA7AYWK7FXYq8v8A/Kn/AOf/AC15Hq2dGUflp/yhmk/8wVj/ANQFvhDGXNlGFi7FXEgAkmgG5JxV h/l2Py9qkfl/UbTyqILd7RL+w1L0rNY7VpYQgQfvBcBzFRarFSlNxgDI33swwsXYq7FXnf5VLc3E U4vdNvNOex9D0Vnm1MhW4zxm2/05/wB96KPVmQemxYECqg5Ti/HNvy+/7kyudduLX81VsLi9FvpL aF9YaGVwsb3H15YkdOWwZQ/Fqdea17Zb1aq2RXmjW/MOk+YvLgs7dr7SNVujp+pQpEzvblo3kjuh Ip+FAU4ycwRSlKHqlQAQyjCxdirsVeX/APlT/wDP/lryPVs6Mo/LT/lDNJ/5grH/AKgLfCGMubKM LF2KtOFKkOAUIIYHpTvXFUi0jyhb6QunQ6fqF7DYabF6EenmSN4JEAKr6nONnqoPVWHTeuCkk2n2 FDsVdirFfI3k698urObq9junngtYFjhS5VE+rK4Jrc3N2xLGTtxG3Su+VwhwtmSfEifNfkHyz5pu dKutXty93otyl5p9zG5jkR0dX48l6ozRryX2GTItiJEMhwsXYq7FXYq8v/8AKn/5/wDLXkerZ0ZR +Wn/AChmk/8AMFY/9QFvhDGXNlGFi7FVO6gE9tNATxEqMnLrTkKVxVivlfy75iTQPLUWr3AsNU0E mG4jsneS3ureOJ7ZUfmfiWRfTm+IVVhTAAyJFll2Fi7FXYqw23Hnb/EunHWppBa/WJvSg0qJDYGP 6vNw+uyysbivQiiqnPiN+uVDivdtPDWyfeYm8ypYF/L4tHvVqTFfCX02WnZoviB+jf2ywtYrqw6x 83/mnaW+l2mueWbaXXNQkZ2WxmlFmkCgs0TTssyR3KICaOwjf9l+Xw4LLKh3vRckwdirsVeX/wDl T/8AP/lryPVs6Mo/LT/lDNJ/5grH/qAt8IYy5sowsXYqtlLrG7IAzgEqGPFSabVYBqD3pirzfyT5 881apO/q6fFfW11fJLE1rcrMLXT7h54o3L+lAHXna+qvUmN/ZQYgtkoh6Vkmt2KuxV59+UmkpY21 5JFcXFxbXcNrLazXFuts0sTGZknf97NJLNLy/eSOErRaKKHKcIpuzG0883al520y4srzy/pEeu2I WVNR05Z47W6DMUMU0Mk37pgoV1ZCVJ5Ag7ZabawB1XeVPMHmrVpJW1jyxLoFuqgwPPd29xI7V3Bj gLcPpbEFSAOrI8LF2KuxV5f/AOVP/wA/+WvI9Wzoyj8tP+UM0n/mCsf+oC3whjLmyjCxdiqncm2F tKbooLYIxnMtOHCnxc+W3GnWuKsI03z/AOUeSjy1ZwXUl3qy6TOLJ7VOTRxlRcVV6SIsMPw9+KkD 7ORtmYnqzvJMHYq7FWG/l9pMuj2wSe3061S/t7WSA2FvBbBpeEjSQL6MknrLCoBVj4k1ParGKbch tX/5WVoEmsajpFpFd3d5psv1adre3eWMziMSPGjr9poww5j9nLLYcJSy0/NT6loWl3XmrRNR0nVL +VLaSyhtZ7lVnfkeKui/GBGhc0HQHrgtPB3M+yTB2KuxV5f/AOVP/wA/+WvI9Wzoyj8tP+UM0n/m Csf+oC3whjLmyjCxdiqydZHhkWJgkjKQjsvMBiNiVqtQPCuKsU8t/l3ZaVKJb6cao8JhayeSFY2i eIzSvM3ElWlknu5pCwCgVAC/DUgBkZMuwsXYq7FXln5PWnlCe7vJ7GwlTUrG3sQk15babA4t54pH hlhWxRTGZkdiwk+LjxrmPhEfxTkZjL8Wk3m20vrn8w/M1xrENnOmieVLnUvL1mYxPDbyXEk8LTSL IOEk0i2w5fDQKeG9CzWnmwHIe9L9I0Ww0288nXtrYWVze+ZNYt7i7e90SWH6urWktyVs5JSIYDF6 VIxEA1fiPL4qqSeb3zJtLsVdiry//wAqf/n/AMteR6tnRlH5af8AKGaT/wAwVj/1AW+EMZc2UYWL sVWyIskbIxIVwVJUlTQimzKQQfcYq820HyZYx+cLuSFbu31XTr4TxX9/bXF96tibaOP07fULv1FR pHZ+fCUvuwKgcSsQGwy2el5JrdirsVY/5X0LXtJnuF1LVjqtvJBbLC7xQwMJo/UE7cIY0FHBjoSz HanbeEYkcyznIHkKQ2p+U/Les63rckl6/wCktR0ddEv4IJkEkNo7TOHVaFkkb6w1GbbYUGSpAJCA svInkdtT0y0tNRu5r/ylLDOli2qXNyYm+rtFF61vNLKqho5arRV9jxqC0E8R+bOMLB2KuxV5f/5U /wDz/wCWvI9Wzoyj8tP+UM0n/mCsf+oC3whjLmyjCxdirsVSTydq97q+jy313w5G/wBRhg9NSo+r 219NBBWpPxGKNS3vgCZCk7wodirsVdiryjzlfazpHmDWryS1tTrR0i9/w3rtqSlxHYxxNcXAuoGM qP8AVpo4hG5XiWkUUFXyJbI7hjkOp2WieWotb0LzvaXPmnzFfaXNqQVdPlnuZLy5ghmTgAZAkcTt xRacQPGpwMqs7jZ71k2l2KuxV5f/AOVP/wA/+WvI9Wzoyj8tP+UM0n/mCsf+oC3whjLmyjCxdirs VYta6F5L0LzJBweSDVNTa6uLG0mubmS3Dlg101vBI7W8Ts09TwUMeRptXBTKyQynCxdirsVdirzD V/IXmAeYPP8AqNpEb1de0AWmivcXLO0d0UuBJaxiVj6UTu0bmlEG1O9I02CQoL/MHl/8yNQ8i6d5 fTTdMint5dJMs8d/LIVFldW8rusb2kS7CEkjn06cjQFINKCLt6Zkmt2KuxV5f/5U/wDz/wCWvI9W zoyj8tP+UM0n/mCsf+oC3whjLmyjCxdirsVY3deW9cn87WmvjVYl06ytpLaHSzahm/0hkad/X9QM GPopxoNtxTxFbsr2pkmFi7FXYq7FXnP5nfmFqflu2uruyhY2dhDMl6zGCryTRUtmtj6hkMiXJVGR o9wSewrElnCNpF5L/MvzVaxWP+JmjuLRTa6TezSz6dbTxX5Ws883O4hqGkkVEjjjJZAJK1PEgFlK I6PY8m1OxV2KvL//ACp/+f8Ay15Hq2dGUflp/wAoZpP/ADBWP/UBb4QxlzZRhYuxV2KsA8sabcab +ZespbXKXsF9bNda1IkIjEF36qCzi5hnqz27yM6npRWoA+RHNmTsz/JMHYq7FXYq8g/Nzy+GWTXr qO0hu7WXj5V0iO3hnl1DVHVkie89Rf3i71WNT8CgyMaiiQkG2B6MY8veTZ/M/nnzBqXlvzBp7S6N Fptt9dg0+0n0y6ldJHuopIoxGshjonCRX5LXjy8ABZSZUN30JCsiwosrK0gUB2RSilgNyqktxHtU 5Y0rsVdiry//AMqf/n/y15Hq2dGUflp/yhmk/wDMFY/9QFvhDGXNlGFi7FVsj8I2fiW4gnioqTQV oB44qwby7+aOnX1y8F5Zz2X1jUmsdOZ4TGZUZpY0kdGbmrevbSxsKVBHIgLUiILMwZ3kmDsVdirs VWNBA0yTtGpmjBVJSAWVWpyAbqAeIriqy2srO1MptoI4DPIZpzGipzkb7TvxA5Mabk74qrYq7FXY q8v/APKn/wCf/LXkerZ0ZR+Wn/KGaT/zBWP/AFAW+EMZc2UYWLsVWyxiSN4ySocFSykqwqKVBG4O KpT5d8paL5fEq6YkqLKkMNJZpZuMdupEaJ6jNxFXdzTqzMT1wAJJtOMKHYq7FXYq7FXYq7FXYq7F Xl//AJU//P8A5a8j1bOjKPy0/wCUM0n/AJgrH/qAt8IYy5sowsXYq7FXYq7FXYq7FXYq7FXYq7FX Yq7FXl//AJU//P8A5a8j1bOjKPy0/wCUM0n/AJgrH/qAt8IYy5sowsXYq7FXYq7FXYq7FXYq7FXY q7FXYq7FXl//AJU//P8A5a8j1bOjKPy0/wCUM0n/AJgrH/qAt8IYy5sowsXYq7FXYq7FXYq7FXYq 7FXYq7FXYq7FXl//AJU//P8A5a8j1bOiI8heffKdl5T0qGbVbIOLKyqPrtkpBWyhRgVeZWUqykEE YgolE2yD/lZfkz/q7WX/AEnWH/ZRhtHCXf8AKy/Jn/V2sv8ApOsP+yjG14S7/lZfkz/q7WX/AEnW H/ZRja8Jd/ysvyZ/1drL/pOsP+yjG14S7/lZfkz/AKu1l/0nWH/ZRja8Jd/ysvyZ/wBXay/6TrD/ ALKMbXhLv+Vl+TP+rtZf9J1h/wBlGNrwl3/Ky/Jn/V2sv+k6w/7KMbXhLv8AlZfkz/q7WX/SdYf9 lGNrwl3/ACsvyZ/1drL/AKTrD/soxteEu/5WX5M/6u1l/wBJ1h/2UY2vCXf8rL8mf9Xay/6TrD/s oxteEu/5WX5M/wCrtZf9J1h/2UY2vCWCf4l0D/Hv6R/SVn9Tp/f/AFq29Pl6/rcPV9T0ufDfjzyN 7s6NP//Z</xmpGImg:image></rdf:li></rdf:Alt></xmp:Thumbnails></rdf:Description><rdf:Description xmlns:xmpMM="http://ns.adobe.com/xap/1.0/mm/" xmlns:stRef="http://ns.adobe.com/xap/1.0/sType/ResourceRef#" xmlns:stEvt="http://ns.adobe.com/xap/1.0/sType/ResourceEvent#"><xmpMM:RenditionClass>proof:pdf</xmpMM:RenditionClass><xmpMM:OriginalDocumentID>uuid:65E6390686CF11DBA6E2D887CEACB407</xmpMM:OriginalDocumentID><xmpMM:DocumentID>xmp.did:9007AA7AFA65E711A588CAE2881F51E6</xmpMM:DocumentID><xmpMM:InstanceID>xmp.iid:9007AA7AFA65E711A588CAE2881F51E6</xmpMM:InstanceID><xmpMM:DerivedFrom rdf:parseType="Resource"><stRef:instanceID>uuid:c5b5eddb-66da-6741-a40d-cc810f9d042d</stRef:instanceID><stRef:documentID>xmp.did:FB05051EC465E111835FF2FC000FBA2B</stRef:documentID><stRef:originalDocumentID>uuid:65E6390686CF11DBA6E2D887CEACB407</stRef:originalDocumentID><stRef:renditionClass>proof:pdf</stRef:renditionClass></xmpMM:DerivedFrom><xmpMM:History><rdf:Seq><rdf:li rdf:parseType="Resource"><stEvt:action>saved</stEvt:action><stEvt:instanceID>xmp.iid:9007AA7AFA65E711A588CAE2881F51E6</stEvt:instanceID><stEvt:when>2017-07-11T16:24:52+09:00</stEvt:when><stEvt:softwareAgent>Adobe Illustrator CS6 (Windows)</stEvt:softwareAgent><stEvt:changed>/</stEvt:changed></rdf:li></rdf:Seq></xmpMM:History></rdf:Description><rdf:Description xmlns:illustrator="http://ns.adobe.com/illustrator/1.0/"><illustrator:StartupProfile>Web</illustrator:StartupProfile></rdf:Description><rdf:Description xmlns:xmpTPg="http://ns.adobe.com/xap/1.0/t/pg/" xmlns:stDim="http://ns.adobe.com/xap/1.0/sType/Dimensions#" xmlns:xmpG="http://ns.adobe.com/xap/1.0/g/"><xmpTPg:NPages>1</xmpTPg:NPages><xmpTPg:HasVisibleTransparency>False</xmpTPg:HasVisibleTransparency><xmpTPg:HasVisibleOverprint>False</xmpTPg:HasVisibleOverprint><xmpTPg:MaxPageSize rdf:parseType="Resource"><stDim:w>181.000000</stDim:w><stDim:h>400.999512</stDim:h><stDim:unit>Pixels</stDim:unit></xmpTPg:MaxPageSize><xmpTPg:PlateNames><rdf:Seq><rdf:li>Cyan</rdf:li><rdf:li>Magenta</rdf:li><rdf:li>Yellow</rdf:li><rdf:li>Black</rdf:li></rdf:Seq></xmpTPg:PlateNames><xmpTPg:SwatchGroups><rdf:Seq><rdf:li rdf:parseType="Resource"><xmpG:groupName>初期設定のスウォッチグループ</xmpG:groupName><xmpG:groupType>0</xmpG:groupType><xmpG:Colorants><rdf:Seq><rdf:li rdf:parseType="Resource"><xmpG:swatchName>ホワイト</xmpG:swatchName><xmpG:mode>RGB</xmpG:mode><xmpG:type>PROCESS</xmpG:type><xmpG:red>255</xmpG:red><xmpG:green>255</xmpG:green><xmpG:blue>255</xmpG:blue></rdf:li><rdf:li rdf:parseType="Resource"><xmpG:swatchName>ブラック</xmpG:swatchName><xmpG:mode>RGB</xmpG:mode><xmpG:type>PROCESS</xmpG:type><xmpG:red>0</xmpG:red><xmpG:green>0</xmpG:green><xmpG:blue>0</xmpG:blue></rdf:li><rdf:li rdf:parseType="Resource"><xmpG:swatchName>RGB レッド</xmpG:swatchName><xmpG:mode>RGB</xmpG:mode><xmpG:type>PROCESS</xmpG:type><xmpG:red>255</xmpG:red><xmpG:green>0</xmpG:green><xmpG:blue>0</xmpG:blue></rdf:li><rdf:li rdf:parseType="Resource"><xmpG:swatchName>RGB イエロー</xmpG:swatchName><xmpG:mode>RGB</xmpG:mode><xmpG:type>PROCESS</xmpG:type><xmpG:red>255</xmpG:red><xmpG:green>255</xmpG:green><xmpG:blue>0</xmpG:blue></rdf:li><rdf:li rdf:parseType="Resource"><xmpG:swatchName>RGB グリーン</xmpG:swatchName><xmpG:mode>RGB</xmpG:mode><xmpG:type>PROCESS</xmpG:type><xmpG:red>0</xmpG:red><xmpG:green>255</xmpG:green><xmpG:blue>0</xmpG:blue></rdf:li><rdf:li rdf:parseType="Resource"><xmpG:swatchName>RGB シアン</xmpG:swatchName><xmpG:mode>RGB</xmpG:mode><xmpG:type>PROCESS</xmpG:type><xmpG:red>0</xmpG:red><xmpG:green>255</xmpG:green><xmpG:blue>255</xmpG:blue></rdf:li><rdf:li rdf:parseType="Resource"><xmpG:swatchName>RGB ブルー</xmpG:swatchName><xmpG:mode>RGB</xmpG:mode><xmpG:type>PROCESS</xmpG:type><xmpG:red>0</xmpG:red><xmpG:green>0</xmpG:green><xmpG:blue>255</xmpG:blue></rdf:li><rdf:li rdf:parseType="Resource"><xmpG:swatchName>RGB マゼンタ</xmpG:swatchName><xmpG:mode>RGB</xmpG:mode><xmpG:type>PROCESS</xmpG:type><xmpG:red>255</xmpG:red><xmpG:green>0</xmpG:green><xmpG:blue>255</xmpG:blue></rdf:li><rdf:li rdf:parseType="Resource"><xmpG:swatchName>R=193 G=39 B=45</xmpG:swatchName><xmpG:mode>RGB</xmpG:mode><xmpG:type>PROCESS</xmpG:type><xmpG:red>193</xmpG:red><xmpG:green>39</xmpG:green><xmpG:blue>45</xmpG:blue></rdf:li><rdf:li rdf:parseType="Resource"><xmpG:swatchName>R=237 G=28 B=36</xmpG:swatchName><xmpG:mode>RGB</xmpG:mode><xmpG:type>PROCESS</xmpG:type><xmpG:red>237</xmpG:red><xmpG:green>28</xmpG:green><xmpG:blue>36</xmpG:blue></rdf:li><rdf:li rdf:parseType="Resource"><xmpG:swatchName>R=241 G=90 B=36</xmpG:swatchName><xmpG:mode>RGB</xmpG:mode><xmpG:type>PROCESS</xmpG:type><xmpG:red>241</xmpG:red><xmpG:green>90</xmpG:green><xmpG:blue>36</xmpG:blue></rdf:li><rdf:li rdf:parseType="Resource"><xmpG:swatchName>R=247 G=147 B=30</xmpG:swatchName><xmpG:mode>RGB</xmpG:mode><xmpG:type>PROCESS</xmpG:type><xmpG:red>247</xmpG:red><xmpG:green>147</xmpG:green><xmpG:blue>30</xmpG:blue></rdf:li><rdf:li rdf:parseType="Resource"><xmpG:swatchName>R=251 G=176 B=59</xmpG:swatchName><xmpG:mode>RGB</xmpG:mode><xmpG:type>PROCESS</xmpG:type><xmpG:red>251</xmpG:red><xmpG:green>176</xmpG:green><xmpG:blue>59</xmpG:blue></rdf:li><rdf:li rdf:parseType="Resource"><xmpG:swatchName>R=252 G=238 B=33</xmpG:swatchName><xmpG:mode>RGB</xmpG:mode><xmpG:type>PROCESS</xmpG:type><xmpG:red>252</xmpG:red><xmpG:green>238</xmpG:green><xmpG:blue>33</xmpG:blue></rdf:li><rdf:li rdf:parseType="Resource"><xmpG:swatchName>R=217 G=224 B=33</xmpG:swatchName><xmpG:mode>RGB</xmpG:mode><xmpG:type>PROCESS</xmpG:type><xmpG:red>217</xmpG:red><xmpG:green>224</xmpG:green><xmpG:blue>33</xmpG:blue></rdf:li><rdf:li rdf:parseType="Resource"><xmpG:swatchName>R=140 G=198 B=63</xmpG:swatchName><xmpG:mode>RGB</xmpG:mode><xmpG:type>PROCESS</xmpG:type><xmpG:red>140</xmpG:red><xmpG:green>198</xmpG:green><xmpG:blue>63</xmpG:blue></rdf:li><rdf:li rdf:parseType="Resource"><xmpG:swatchName>R=57 G=181 B=74</xmpG:swatchName><xmpG:mode>RGB</xmpG:mode><xmpG:type>PROCESS</xmpG:type><xmpG:red>57</xmpG:red><xmpG:green>181</xmpG:green><xmpG:blue>74</xmpG:blue></rdf:li><rdf:li rdf:parseType="Resource"><xmpG:swatchName>R=0 G=146 B=69</xmpG:swatchName><xmpG:mode>RGB</xmpG:mode><xmpG:type>PROCESS</xmpG:type><xmpG:red>0</xmpG:red><xmpG:green>146</xmpG:green><xmpG:blue>69</xmpG:blue></rdf:li><rdf:li rdf:parseType="Resource"><xmpG:swatchName>R=0 G=104 B=55</xmpG:swatchName><xmpG:mode>RGB</xmpG:mode><xmpG:type>PROCESS</xmpG:type><xmpG:red>0</xmpG:red><xmpG:green>104</xmpG:green><xmpG:blue>55</xmpG:blue></rdf:li><rdf:li rdf:parseType="Resource"><xmpG:swatchName>R=34 G=181 B=115</xmpG:swatchName><xmpG:mode>RGB</xmpG:mode><xmpG:type>PROCESS</xmpG:type><xmpG:red>34</xmpG:red><xmpG:green>181</xmpG:green><xmpG:blue>115</xmpG:blue></rdf:li><rdf:li rdf:parseType="Resource"><xmpG:swatchName>R=0 G=169 B=157</xmpG:swatchName><xmpG:mode>RGB</xmpG:mode><xmpG:type>PROCESS</xmpG:type><xmpG:red>0</xmpG:red><xmpG:green>169</xmpG:green><xmpG:blue>157</xmpG:blue></rdf:li><rdf:li rdf:parseType="Resource"><xmpG:swatchName>R=41 G=171 B=226</xmpG:swatchName><xmpG:mode>RGB</xmpG:mode><xmpG:type>PROCESS</xmpG:type><xmpG:red>41</xmpG:red><xmpG:green>171</xmpG:green><xmpG:blue>226</xmpG:blue></rdf:li><rdf:li rdf:parseType="Resource"><xmpG:swatchName>R=0 G=113 B=188</xmpG:swatchName><xmpG:mode>RGB</xmpG:mode><xmpG:type>PROCESS</xmpG:type><xmpG:red>0</xmpG:red><xmpG:green>113</xmpG:green><xmpG:blue>188</xmpG:blue></rdf:li><rdf:li rdf:parseType="Resource"><xmpG:swatchName>R=46 G=49 B=146</xmpG:swatchName><xmpG:mode>RGB</xmpG:mode><xmpG:type>PROCESS</xmpG:type><xmpG:red>46</xmpG:red><xmpG:green>49</xmpG:green><xmpG:blue>146</xmpG:blue></rdf:li><rdf:li rdf:parseType="Resource"><xmpG:swatchName>R=27 G=20 B=100</xmpG:swatchName><xmpG:mode>RGB</xmpG:mode><xmpG:type>PROCESS</xmpG:type><xmpG:red>27</xmpG:red><xmpG:green>20</xmpG:green><xmpG:blue>100</xmpG:blue></rdf:li><rdf:li rdf:parseType="Resource"><xmpG:swatchName>R=102 G=45 B=145</xmpG:swatchName><xmpG:mode>RGB</xmpG:mode><xmpG:type>PROCESS</xmpG:type><xmpG:red>102</xmpG:red><xmpG:green>45</xmpG:green><xmpG:blue>145</xmpG:blue></rdf:li><rdf:li rdf:parseType="Resource"><xmpG:swatchName>R=147 G=39 B=143</xmpG:swatchName><xmpG:mode>RGB</xmpG:mode><xmpG:type>PROCESS</xmpG:type><xmpG:red>147</xmpG:red><xmpG:green>39</xmpG:green><xmpG:blue>143</xmpG:blue></rdf:li><rdf:li rdf:parseType="Resource"><xmpG:swatchName>R=158 G=0 B=93</xmpG:swatchName><xmpG:mode>RGB</xmpG:mode><xmpG:type>PROCESS</xmpG:type><xmpG:red>158</xmpG:red><xmpG:green>0</xmpG:green><xmpG:blue>93</xmpG:blue></rdf:li><rdf:li rdf:parseType="Resource"><xmpG:swatchName>R=212 G=20 B=90</xmpG:swatchName><xmpG:mode>RGB</xmpG:mode><xmpG:type>PROCESS</xmpG:type><xmpG:red>212</xmpG:red><xmpG:green>20</xmpG:green><xmpG:blue>90</xmpG:blue></rdf:li><rdf:li rdf:parseType="Resource"><xmpG:swatchName>R=237 G=30 B=121</xmpG:swatchName><xmpG:mode>RGB</xmpG:mode><xmpG:type>PROCESS</xmpG:type><xmpG:red>237</xmpG:red><xmpG:green>30</xmpG:green><xmpG:blue>121</xmpG:blue></rdf:li><rdf:li rdf:parseType="Resource"><xmpG:swatchName>R=199 G=178 B=153</xmpG:swatchName><xmpG:mode>RGB</xmpG:mode><xmpG:type>PROCESS</xmpG:type><xmpG:red>199</xmpG:red><xmpG:green>178</xmpG:green><xmpG:blue>153</xmpG:blue></rdf:li><rdf:li rdf:parseType="Resource"><xmpG:swatchName>R=153 G=134 B=117</xmpG:swatchName><xmpG:mode>RGB</xmpG:mode><xmpG:type>PROCESS</xmpG:type><xmpG:red>153</xmpG:red><xmpG:green>134</xmpG:green><xmpG:blue>117</xmpG:blue></rdf:li><rdf:li rdf:parseType="Resource"><xmpG:swatchName>R=115 G=99 B=87</xmpG:swatchName><xmpG:mode>RGB</xmpG:mode><xmpG:type>PROCESS</xmpG:type><xmpG:red>115</xmpG:red><xmpG:green>99</xmpG:green><xmpG:blue>87</xmpG:blue></rdf:li><rdf:li rdf:parseType="Resource"><xmpG:swatchName>R=83 G=71 B=65</xmpG:swatchName><xmpG:mode>RGB</xmpG:mode><xmpG:type>PROCESS</xmpG:type><xmpG:red>83</xmpG:red><xmpG:green>71</xmpG:green><xmpG:blue>65</xmpG:blue></rdf:li><rdf:li rdf:parseType="Resource"><xmpG:swatchName>R=198 G=156 B=109</xmpG:swatchName><xmpG:mode>RGB</xmpG:mode><xmpG:type>PROCESS</xmpG:type><xmpG:red>198</xmpG:red><xmpG:green>156</xmpG:green><xmpG:blue>109</xmpG:blue></rdf:li><rdf:li rdf:parseType="Resource"><xmpG:swatchName>R=166 G=124 B=82</xmpG:swatchName><xmpG:mode>RGB</xmpG:mode><xmpG:type>PROCESS</xmpG:type><xmpG:red>166</xmpG:red><xmpG:green>124</xmpG:green><xmpG:blue>82</xmpG:blue></rdf:li><rdf:li rdf:parseType="Resource"><xmpG:swatchName>R=140 G=98 B=57</xmpG:swatchName><xmpG:mode>RGB</xmpG:mode><xmpG:type>PROCESS</xmpG:type><xmpG:red>140</xmpG:red><xmpG:green>98</xmpG:green><xmpG:blue>57</xmpG:blue></rdf:li><rdf:li rdf:parseType="Resource"><xmpG:swatchName>R=117 G=76 B=36</xmpG:swatchName><xmpG:mode>RGB</xmpG:mode><xmpG:type>PROCESS</xmpG:type><xmpG:red>117</xmpG:red><xmpG:green>76</xmpG:green><xmpG:blue>36</xmpG:blue></rdf:li><rdf:li rdf:parseType="Resource"><xmpG:swatchName>R=96 G=56 B=19</xmpG:swatchName><xmpG:mode>RGB</xmpG:mode><xmpG:type>PROCESS</xmpG:type><xmpG:red>96</xmpG:red><xmpG:green>56</xmpG:green><xmpG:blue>19</xmpG:blue></rdf:li><rdf:li rdf:parseType="Resource"><xmpG:swatchName>R=66 G=33 B=11</xmpG:swatchName><xmpG:mode>RGB</xmpG:mode><xmpG:type>PROCESS</xmpG:type><xmpG:red>66</xmpG:red><xmpG:green>33</xmpG:green><xmpG:blue>11</xmpG:blue></rdf:li></rdf:Seq></xmpG:Colorants></rdf:li><rdf:li rdf:parseType="Resource"><xmpG:groupName>グレー</xmpG:groupName><xmpG:groupType>1</xmpG:groupType><xmpG:Colorants><rdf:Seq><rdf:li rdf:parseType="Resource"><xmpG:swatchName>R=0 G=0 B=0</xmpG:swatchName><xmpG:mode>RGB</xmpG:mode><xmpG:type>PROCESS</xmpG:type><xmpG:red>0</xmpG:red><xmpG:green>0</xmpG:green><xmpG:blue>0</xmpG:blue></rdf:li><rdf:li rdf:parseType="Resource"><xmpG:swatchName>R=26 G=26 B=26</xmpG:swatchName><xmpG:mode>RGB</xmpG:mode><xmpG:type>PROCESS</xmpG:type><xmpG:red>26</xmpG:red><xmpG:green>26</xmpG:green><xmpG:blue>26</xmpG:blue></rdf:li><rdf:li rdf:parseType="Resource"><xmpG:swatchName>R=51 G=51 B=51</xmpG:swatchName><xmpG:mode>RGB</xmpG:mode><xmpG:type>PROCESS</xmpG:type><xmpG:red>51</xmpG:red><xmpG:green>51</xmpG:green><xmpG:blue>51</xmpG:blue></rdf:li><rdf:li rdf:parseType="Resource"><xmpG:swatchName>R=77 G=77 B=77</xmpG:swatchName><xmpG:mode>RGB</xmpG:mode><xmpG:type>PROCESS</xmpG:type><xmpG:red>77</xmpG:red><xmpG:green>77</xmpG:green><xmpG:blue>77</xmpG:blue></rdf:li><rdf:li rdf:parseType="Resource"><xmpG:swatchName>R=102 G=102 B=102</xmpG:swatchName><xmpG:mode>RGB</xmpG:mode><xmpG:type>PROCESS</xmpG:type><xmpG:red>102</xmpG:red><xmpG:green>102</xmpG:green><xmpG:blue>102</xmpG:blue></rdf:li><rdf:li rdf:parseType="Resource"><xmpG:swatchName>R=128 G=128 B=128</xmpG:swatchName><xmpG:mode>RGB</xmpG:mode><xmpG:type>PROCESS</xmpG:type><xmpG:red>128</xmpG:red><xmpG:green>128</xmpG:green><xmpG:blue>128</xmpG:blue></rdf:li><rdf:li rdf:parseType="Resource"><xmpG:swatchName>R=153 G=153 B=153</xmpG:swatchName><xmpG:mode>RGB</xmpG:mode><xmpG:type>PROCESS</xmpG:type><xmpG:red>153</xmpG:red><xmpG:green>153</xmpG:green><xmpG:blue>153</xmpG:blue></rdf:li><rdf:li rdf:parseType="Resource"><xmpG:swatchName>R=179 G=179 B=179</xmpG:swatchName><xmpG:mode>RGB</xmpG:mode><xmpG:type>PROCESS</xmpG:type><xmpG:red>179</xmpG:red><xmpG:green>179</xmpG:green><xmpG:blue>179</xmpG:blue></rdf:li><rdf:li rdf:parseType="Resource"><xmpG:swatchName>R=204 G=204 B=204</xmpG:swatchName><xmpG:mode>RGB</xmpG:mode><xmpG:type>PROCESS</xmpG:type><xmpG:red>204</xmpG:red><xmpG:green>204</xmpG:green><xmpG:blue>204</xmpG:blue></rdf:li><rdf:li rdf:parseType="Resource"><xmpG:swatchName>R=230 G=230 B=230</xmpG:swatchName><xmpG:mode>RGB</xmpG:mode><xmpG:type>PROCESS</xmpG:type><xmpG:red>230</xmpG:red><xmpG:green>230</xmpG:green><xmpG:blue>230</xmpG:blue></rdf:li><rdf:li rdf:parseType="Resource"><xmpG:swatchName>R=242 G=242 B=242</xmpG:swatchName><xmpG:mode>RGB</xmpG:mode><xmpG:type>PROCESS</xmpG:type><xmpG:red>242</xmpG:red><xmpG:green>242</xmpG:green><xmpG:blue>242</xmpG:blue></rdf:li></rdf:Seq></xmpG:Colorants></rdf:li><rdf:li rdf:parseType="Resource"><xmpG:groupName>Web カラーグループ</xmpG:groupName><xmpG:groupType>1</xmpG:groupType><xmpG:Colorants><rdf:Seq><rdf:li rdf:parseType="Resource"><xmpG:swatchName>R=63 G=169 B=245</xmpG:swatchName><xmpG:mode>RGB</xmpG:mode><xmpG:type>PROCESS</xmpG:type><xmpG:red>63</xmpG:red><xmpG:green>169</xmpG:green><xmpG:blue>245</xmpG:blue></rdf:li><rdf:li rdf:parseType="Resource"><xmpG:swatchName>R=122 G=201 B=67</xmpG:swatchName><xmpG:mode>RGB</xmpG:mode><xmpG:type>PROCESS</xmpG:type><xmpG:red>122</xmpG:red><xmpG:green>201</xmpG:green><xmpG:blue>67</xmpG:blue></rdf:li><rdf:li rdf:parseType="Resource"><xmpG:swatchName>R=255 G=147 B=30</xmpG:swatchName><xmpG:mode>RGB</xmpG:mode><xmpG:type>PROCESS</xmpG:type><xmpG:red>255</xmpG:red><xmpG:green>147</xmpG:green><xmpG:blue>30</xmpG:blue></rdf:li><rdf:li rdf:parseType="Resource"><xmpG:swatchName>R=255 G=29 B=37</xmpG:swatchName><xmpG:mode>RGB</xmpG:mode><xmpG:type>PROCESS</xmpG:type><xmpG:red>255</xmpG:red><xmpG:green>29</xmpG:green><xmpG:blue>37</xmpG:blue></rdf:li><rdf:li rdf:parseType="Resource"><xmpG:swatchName>R=255 G=123 B=172</xmpG:swatchName><xmpG:mode>RGB</xmpG:mode><xmpG:type>PROCESS</xmpG:type><xmpG:red>255</xmpG:red><xmpG:green>123</xmpG:green><xmpG:blue>172</xmpG:blue></rdf:li><rdf:li rdf:parseType="Resource"><xmpG:swatchName>R=189 G=204 B=212</xmpG:swatchName><xmpG:mode>RGB</xmpG:mode><xmpG:type>PROCESS</xmpG:type><xmpG:red>189</xmpG:red><xmpG:green>204</xmpG:green><xmpG:blue>212</xmpG:blue></rdf:li></rdf:Seq></xmpG:Colorants></rdf:li></rdf:Seq></xmpTPg:SwatchGroups></rdf:Description><rdf:Description xmlns:pdf="http://ns.adobe.com/pdf/1.3/"><pdf:Producer>Adobe PDF library 10.01</pdf:Producer></rdf:Description></rdf:RDF></x:xmpmeta><?xpacket end="w"?></metadata><g><g><rect x=".5" y=".5" fill="#FFF" width="180" height="400"/><rect x=".5" y=".5" fill="none" stroke="#210701" stroke-miterlimit="10" width="180" height="400"/><rect x="3.5" y="3.5" fill="none" stroke="#210701" stroke-width=".5" stroke-miterlimit="10" width="174" height="394"/></g><g fill="#210701"><path d="M50.582 44.476c-1.32 0-1.74.03-1.89.045-.06 0-.27.03-.315.03-.06 0-.09-.03-.135-.09l-.285-.345c-.06-.075-.075-.075-.075-.105s.03-.03.06-.03c.105 0 .57.045.66.045.735.03 1.35.06 2.055.06h2.595c.465 0 .51 0 .51-2.115 0-.36 0-1.155-.09-2.07a6.686 6.686 0 01-.06-.51c0-.075 0-.12.09-.12.24 0 1.365.285 1.56.345.195.045.33.12.33.27 0 .12-.075.21-.24.345-.285.24-.285.315-.315 1.02-.015.39-.12 2.13-.12 2.49 0 .345.27.345.51.345h2.595c.69 0 .765 0 .96-.255.48-.615.54-.675.72-.675.33 0 1.53.96 1.53 1.11 0 .21-.3.21-.795.21h-4.785c-.33 0-.435 0-.435.24 0 .915 1.95 5.37 6.195 7.035.405.165.405.165.405.225 0 .105-.075.12-.3.135-.465.03-.855.075-1.35.285-.075.045-.405.27-.495.27-.27 0-1.605-1.2-2.4-2.34-1.095-1.56-1.89-3.255-2.34-5.085-.015-.09-.075-.3-.105-.3-.045 0-.045.045-.105.36-.3 1.68-.855 4.8-4.725 6.96-1.11.63-2.115.81-2.235.81-.03 0-.09-.015-.09-.06 0-.075.33-.225.48-.3 1.05-.495 4.185-2.325 5.22-6.39.165-.675.24-1.47.24-1.515 0-.33-.165-.33-.405-.33h-2.625zm1.05 16.02c.54-.18.69-.225.78-.585.165-.615.18-.675.39-.675.06 0 1.545.33 1.545.57 0 .18-.075.21-.705.42l-2.4.825c-.375.135-.375.39-.375 1.665 0 .435 0 2.55.135 2.805.09.18.33.24.84.24.87 0 1.02-.12 1.155-.435.105-.225.285-1.545.405-1.545.06 0 .06.045.105.405.045.435.105.735.285.96.27.315.285.345.285.465 0 .21-.105 1.185-2.49 1.185-1.695 0-1.695-.36-1.695-2.88v-2.01c-.015-.12-.06-.27-.24-.27-.225 0-1.38.495-1.5.555-.045 0-.105-.015-.135-.045l-.375-.24c-.09-.06-.105-.06-.105-.09s.27-.09.45-.135c.09-.03 1.29-.375 1.5-.465.375-.165.39-.285.39-.75 0-.885-.03-1.86-.06-2.385-.015-.24-.12-1.23-.12-1.44 0-.06 0-.09.06-.09s.915.15 1.275.27c.105.045.24.135.24.285 0 .105-.03.12-.225.33-.075.075-.105.12-.105.195-.03.165-.045 1.035-.045 1.29 0 .345.015 1.065.015 1.44 0 .09-.03.3.18.3a.358.358 0 00.135-.03l.405-.135zm5.55-2.505c-.39 0-.45.135-.45.66 0 4.77-.705 7.919-2.88 9.765-1.29 1.095-2.685 1.29-2.73 1.29-.09 0-.12-.06-.12-.105 0-.06.555-.3.66-.36 1.665-.975 4.005-2.775 4.005-9.645 0-1.515 0-1.605-.45-1.605h-.315c-.765 0-1.2.015-1.515.03a2.65 2.65 0 01-.315.045c-.06 0-.09-.045-.135-.105l-.285-.345c-.03-.03-.075-.075-.075-.09 0-.03.03-.045.06-.045.105 0 .555.045.66.06.735.03 1.35.045 2.055.045h3.39c.345 0 .405-.03.57-.315.195-.345.21-.375.33-.375.015 0 .57.345.66.405.585.36.645.405.645.555 0 .105-.03.135-.33.39-.165.15-.165.33-.165.81 0 5.31-.03 7.695-.78 9.12-.195.375-.78 1.485-2.49 1.485-.27 0-.285-.075-.285-.27-.015-.45-.135-.525-.84-1.05-.36-.255-.39-.285-.39-.36 0-.03.03-.06.075-.06.06 0 .555.18.66.21.63.165.915.18 1.08.18.465 0 1.29-.015 1.62-1.59.285-1.41.33-3.405.33-5.43 0-.615 0-2.61-.075-3.015-.06-.285-.33-.285-.495-.285h-1.68zm-4.636 17.475c0-.225-.075-.45-.21-.66-.045-.075-.285-.36-.285-.42 0-.18.315-.315.615-.315.6 0 .84.33 1.08.66.075.105.225.165.675.285.285.075.855.24.855.66 0 .57-.84.84-2.055 1.2-.135.045-.15.09-.285.615-.18.75-1.47 5.82-2.85 5.82-.405 0-.465-.27-.465-.42 0-.21.045-.285.495-.93 1.635-2.4 2.07-4.814 2.07-4.89 0-.135-.105-.15-.33-.165-1.77-.15-1.77-1.2-1.77-1.215 0-.06.015-.18.105-.18.06 0 .105.015.405.195.165.105.585.315 1.155.315.03 0 .555 0 .66-.09.106-.09.135-.33.135-.465zm4.32 9.389c-.195 1.305-1.335 1.635-2.115 1.635-1.425 0-2.265-.99-2.265-1.74 0-.975 1.065-1.485 2.415-1.485.12 0 .675.03.78.03.135 0 .21-.015.21-.165 0-.225-.06-1.23-.06-1.44 0-1.65.09-2.445 1.35-3.165.93-.54 1.035-.585 1.035-.975 0-.33-.33-.675-.42-.765-.135-.12-.195-.18-.195-.24 0-.045.045-.075.105-.075.105 0 .57.135.885.255a1.61 1.61 0 011.095 1.53c0 .57-.405.78-.705.78-.015 0-.195 0-.345-.06-.57-.21-.63-.24-.81-.24-.36 0-.854.21-1.095.45-.345.33-.36.87-.36 1.245s.15 2.7.6 3.015c.135.105.84.345.975.42.315.165 1.185.645 1.185 1.2 0 .255-.105.525-.405.525-.15 0-.24-.045-.465-.24-.405-.36-1.095-.825-1.305-.735-.06.031-.06.091-.09.24zM54.707 84c-.345 0-1.695 0-1.695.795 0 .36.45.81 1.35.81 1.455 0 1.665-1.14 1.575-1.38-.076-.225-.885-.225-1.23-.225zm-.405-8.579c0-.105-.525-.375-.615-.375-.255 0-.36.615-.36.66 0 .03.015.075.03.09.044.045.945-.15.945-.375zm-3.81 18.719c-.345 0-1.38 0-1.905.03-.045.015-.27.045-.315.045-.045 0-.075-.045-.135-.105l-.285-.345c-.06-.06-.06-.075-.06-.09 0-.03.015-.045.045-.045.105 0 .57.045.675.06.675.03 1.35.045 2.055.045h2.939c.435 0 .435-.195.435-1.05 0-.54-.015-.975-.075-1.38-.015-.09-.105-.45-.105-.525 0-.09.105-.09.165-.09.06 0 1.59.315 1.59.66 0 .15-.03.165-.285.405-.195.165-.21.555-.21.795 0 1.125.09 1.185.48 1.185h2.985c.555 0 .705 0 .9-.225.09-.135.48-.84.63-.84.225 0 1.425 1.035 1.425 1.245 0 .225-.285.225-.795.225h-6.735c-.165 0-.225 0-.225.06 0 .105.06.105.645.195.225.03.66.12.66.33 0 .12-.42.495-.465.6-.15.3-.24 1.02-.24 1.095 0 .3.315.3.375.3h3.315c.27 0 .39 0 .63-.225.09-.09.3-.3.345-.3.075 0 1.305.75 1.305.96 0 .12-.39.465-.435.555-.165.3-.36 1.8-.42 2.1-.465 2.145-.93 2.94-1.395 3.48-.54.645-1.425.99-1.725.99-.18 0-.18-.105-.18-.24 0-.645-.78-1.125-1.245-1.365-.345-.18-.39-.195-.39-.24 0-.03.015-.12.15-.12.075 0 .135.015.615.165.615.18 1.08.195 1.185.195.63 0 1.32-.375 1.8-2.354.18-.75.39-2.085.39-2.805 0-.39-.255-.39-.48-.39h-3.525c-.42 0-.45.075-.63.854-1.17 4.875-4.995 5.805-5.19 5.805-.045 0-.135 0-.135-.045 0-.06.18-.165.36-.255.555-.3 2.34-1.665 3.225-3.615.84-1.86 1.095-4.125 1.095-4.74 0-.99-.255-.99-.555-.99h-2.279zm4.65 18.856c1.815 1.815 3.3 2.475 4.2 2.88.705.33 1.32.66 1.32 1.095 0 .09-.135.57-.555.57-.135 0-1.485-.045-3.72-2.19-.36-.345-1.965-1.965-2.294-2.28-.345-.33-.6-.525-.84-.525-.495 0-.63.135-1.86 1.335-.105.105-1.2 1.14-1.23 1.155a.415.415 0 01-.24.075c-.57 0-1.455-.705-1.455-.96 0-.06.03-.075.285-.105.69-.06 1.785-.63 2.445-1.155 1.26-1.005 1.56-1.11 2.07-1.11.389-.001.883.224 1.874 1.215zm-.496 14.339c0 .045.03.105.03.165.06.48.15.96.15 1.62 0 1.005-.225 2.4-1.545 4.395-1.2 1.83-1.965 2.19-2.565 2.19-.99 0-1.875-1.545-1.875-3.375 0-.795.165-2.31 1.665-3.825 1.905-1.95 3.915-1.95 4.785-1.95 1.365 0 1.995.27 2.415.48 1.62.795 2.61 2.4 2.61 4.365 0 1.95-1.125 4.35-3.78 5.28-1.275.45-2.265.555-2.49.555-.06 0-.15-.015-.15-.105 0-.045.03-.06.405-.21 1.56-.615 4.814-1.905 4.814-5.64 0-.585-.06-4.155-4.155-4.155-.298 0-.314.121-.314.21zm-4.875 4.605c0 .975.39 2.31 1.305 2.31.435 0 .795-.18 1.83-1.74.795-1.215 1.47-2.88 1.47-4.365 0-.9-.06-.975-.255-.975-1.424 0-4.35 1.935-4.35 4.77zm.436 19.563c-.225 0-.51 0-.51.465 0 .12.06.165.165.24.78.51.81.54.81.63 0 .105-.165.21-.24.24-.3.12-.3.12-.495.315-1.08 1.125-2.205 1.71-2.205 1.59 0-.06.78-1.035.93-1.245.54-.765.72-1.275.72-1.41 0-.15-.06-.15-.33-.15-.39 0-.39-.255-.39-.6 0-.645.09-3.825.09-4.544 0-1.095-.03-2.1-.12-3.18-.015-.135-.135-.81-.135-.975 0-.045 0-.18.12-.18.165 0 .405.12.945.39.255.135.51.135.66.135h.84c.195 0 .375 0 .615-.285.18-.225.255-.285.345-.285.09 0 .225.09.3.15.105.09.225.195.3.24.33.21.42.27.42.42 0 .075-.27.315-.285.39-.03.105-.03.93-.03.99 0 .105-.03 3.104-.03 3.405 0 .45.03 2.655.03 3.15 0 .36 0 .795-.78.795-.3 0-.315-.18-.345-.375-.03-.315-.315-.315-.45-.315h-.945zm-.075-7.89c-.45 0-.45.045-.45 1.425 0 .675 0 .855.45.855h1.125c.45 0 .45-.135.45-1.35 0-.72 0-.93-.45-.93h-1.125zm.03 2.67c-.45 0-.45.225-.45.795 0 1.29 0 1.455.465 1.455h1.08c.465 0 .465-.105.465-1.38 0-.675 0-.87-.45-.87h-1.11zm.045 2.64c-.465 0-.465.225-.465.78 0 1.245.015 1.41.48 1.41h.99c.45 0 .465-.15.465-1.38 0-.585 0-.81-.45-.81h-1.02zm1.965 3.72c.69.48 1.155.975 1.155 1.53 0 .285-.12.645-.465.645-.36 0-.405-.105-.75-1.05a8.242 8.242 0 00-.645-1.32c-.015-.015-.075-.135-.045-.18.075-.09.66.315.75.375zm3.075-3.51c-.27 0-.375.03-.45.315-.075.27-.615.48-.78.48-.3 0-.3-.33-.3-.42 0-.315.06-1.905.06-2.265 0-.555 0-1.05-.075-1.65-.015-.135-.135-.855-.135-.96 0-.06 0-.18.12-.18.33 0 .54.15.885.375.165.12.645.135.855.135h3.465c.255 0 .465 0 .615-.105.09-.075.435-.525.555-.525.06 0 1.065.555 1.065.765 0 .03-.255.285-.315.345-.12.12-.195.225-.21.42-.045.375.015 2.31.015 2.745 0 .375 0 .915-.69.915-.195 0-.24-.045-.345-.195-.135-.195-.285-.195-.405-.195h-3.93zm1.335-5.19c0 .345-.285.66-.615.66-.255 0-.3-.075-.525-.795a4.953 4.953 0 00-.795-1.485c-.105-.15-.105-.255-.075-.27.09-.09 2.01.885 2.01 1.89zm1.71 6.63c.195 0 .48 0 .675-.24.18-.225.195-.255.315-.255.18 0 1.155.615 1.155.81 0 .075-.255.3-.3.36-.09.15-.09.315-.09.6 0 .375.03.9.03 1.08.015.225.12 1.305.12 1.545 0 .42-.24.735-.705.735-.24 0-.3-.075-.375-.195-.12-.21-.3-.21-.435-.21h-2.4c-.15 0-.33.03-.405.195-.165.345-.495.525-.78.525-.27 0-.315-.225-.315-.555 0-.255.045-1.485.045-1.77 0-.975-.015-1.395-.06-2.085 0-.135-.09-.735-.09-.87 0-.06 0-.195.12-.195.24 0 .45.12.84.345.33.18.705.18.93.18h1.725zm-3.076-5.205c-.465 0-.465.255-.465.705 0 .48 0 .75.465.75h1.005c.405 0 .45-.195.45-.72s-.045-.735-.45-.735h-1.005zm.015 1.845c-.45 0-.45.27-.45.585 0 .69 0 .93.48.93h.945c.465 0 .465-.255.465-.885 0-.345 0-.63-.45-.63h-.99zm1.05 3.765c-.45 0-.45.255-.45.735 0 .51 0 .765.45.765h2.325c.45 0 .45-.255.45-.735 0-.525 0-.765-.45-.765h-2.325zm.015 1.905c-.45 0-.45.27-.45.6 0 .705 0 .93.465.93h2.295c.45 0 .45-.255.45-.75 0-.54 0-.78-.45-.78h-2.31zm1.71-5.67c-.45 0-.45.27-.45.645 0 .645 0 .87.465.87h1.11c.465 0 .465-.21.465-.945 0-.285 0-.57-.45-.57h-1.14zm.015-1.845c-.45 0-.45.255-.45.705 0 .48 0 .75.45.75h1.08c.465 0 .465-.27.465-.72 0-.48 0-.735-.465-.735h-1.08zm2.595-2.865c0 .09-.045.12-.255.18-.315.105-2.205 1.995-2.61 1.995-.03 0-.03-.015-.03-.03 0-.03 1.005-1.545 1.155-1.86.135-.255.165-.42.165-.615 0-.255.015-.39.045-.42.045-.045 1.53.555 1.53.75zm-5.324 19.753c-1.275 0-2.475 2.1-2.475 3.69 0 .48.075.75.195 1.11.105.285.135.405.135.57 0 .495-.405.54-.54.54-.69 0-1.02-1.245-1.02-2.43 0-.765.12-1.56.27-2.385.21-1.23.225-1.56.225-1.92 0-.525-.09-.75-.195-.93-.03-.06-.255-.36-.255-.39s.18-.105.405-.105c.69 0 1.155.6 1.155 1.005 0 .18-.27.945-.315 1.11-.03.12-.33 1.485-.33 1.86 0 .045 0 .21.12.21.075 0 .165-.18.27-.375.165-.33 1.185-2.22 2.76-2.22.93 0 1.935.495 1.935 3.645 0 2.115-.42 4.515-3.27 6.209-.6.36-1.02.495-1.08.495-.03 0-.06-.015-.06-.045 0-.045.03-.075.375-.33 2.46-1.86 2.91-3.6 2.91-6.66-.001-1.649-.3-2.654-1.215-2.654zm-5.805 17.789c-.33 0-.345.06-.51.54-.135.39-.855 2.34-1.125 2.34-.06 0-.075-.075-.075-.12.015-.09.3-1.32.39-1.77.135-.735.36-2.415.36-3.3 0-.075-.06-.45-.06-.525s.015-.12.105-.12c.045 0 1.5.495 1.5.795 0 .105-.39.435-.435.51-.135.18-.3.99-.3 1.065 0 .195.195.195.315.195h.645c.405 0 .405-.315.405-.48 0-.78 0-1.815-.03-2.235 0-.12-.105-.63-.105-.75 0-.105.12-.105.165-.105.165 0 1.455.405 1.455.675 0 .09-.3.39-.33.465-.06.165-.135.405-.135 2.13 0 .075 0 .285.24.285.135 0 .21-.045.27-.105.105-.105.525-.69.66-.69.09 0 1.245.81 1.245.99 0 .21-.27.21-.72.21h-1.26c-.45 0-.45.015-.45 2.04 0 .765 0 .84.18.84.195 0 .48-.18.66-.3.48-.315.525-.345.57-.345.06 0 .075.045.075.09 0 .18-.78.765-.855.825-.54.405-.615.465-.615.87 0 .75.045 4.08.045 4.755 0 .33-.045.48-.24.615-.18.105-.495.285-.69.285-.225 0-.285-.18-.285-.405 0-.3.075-1.56.09-1.815.015-.6.03-1.935.03-2.43 0-.345 0-.48-.15-.48-.135 0-1.53.855-1.604.96-.21.285-.27.375-.39.375-.255 0-.81-1.26-.81-1.395 0-.045.27-.105.315-.12.09-.015.99-.24 2.205-.705.345-.135.45-.21.45-.6 0-.315.015-2.22.015-2.55.015-.42-.15-.51-.465-.51h-.751zm9.51-.27c.585 0 .645 0 .855-.255.105-.135.3-.345.42-.345.135 0 1.11.75 1.11.96 0 .12-.375.45-.42.54-.06.105-.075.18-.12.78-.315 3.795-.585 5.1-.84 6.195-.42 1.785-1.155 2.04-1.845 2.04-.36 0-.36-.045-.36-.135 0-.375 0-.705-.66-1.11l-.435-.21c-.075-.045-.105-.105-.105-.135 0-.075.09-.075.12-.075.06 0 .33.075.405.09.57.15.99.165 1.08.165.465 0 .72-.015 1.095-2.25.15-.855.525-4.5.525-5.505 0-.36-.165-.36-.405-.36-.3 0-.315.105-.525 1.08-.465 2.175-1.065 4.8-3.48 6.81-1.02.84-2.07 1.29-2.13 1.29-.015 0-.09-.015-.09-.075 0-.045.27-.255.45-.39 2.655-1.995 3.6-4.38 4.08-7.125.075-.45.18-1.23.18-1.32 0-.12-.03-.27-.255-.27-.435 0-.435.06-.555.6-.645 2.79-1.89 4.41-3.33 5.685-.48.435-1.245 1.02-1.47 1.02-.03 0-.105 0-.105-.06.09-.09.78-.78 1.035-1.065 2.31-2.505 2.85-5.61 2.85-5.85 0-.33-.135-.33-.42-.33-.33 0-.39.105-.87.99-.9 1.665-1.875 2.715-2.13 2.715-.045 0-.075-.015-.075-.06 0-.03.675-1.08.795-1.275.885-1.455 1.935-4.905 1.98-6.09.015-.3 0-.345.09-.345.105 0 1.5.255 1.5.585 0 .12-.42.405-.48.495-.165.42-.765 2.01-.915 2.415 0 .135.165.18.27.18h3.18zm-7.965 22.53c.255 0 .39-.239.72-1.17.09-.255.135-.375.21-.375.075 0 .075.15.075.18 0 .165-.345 1.92-.345 2.28 0 .255.21.705.24.779.105.211.18.466.18.66 0 .301-.24.51-.495.51-.93 0-1.62-2.549-1.62-3.989 0-.96.12-1.395.63-3.27.255-.915.255-1.29.255-1.56 0-.48-.09-.885-.15-1.065-.015-.045-.09-.225-.09-.27s.06-.075.12-.075c.69 0 1.32 1.365 1.32 1.905 0 .165 0 .18-.285.69-.165.315-1.155 2.52-1.155 3.87 0 .45.15.9.39.9zm8.714 1.5c0 .585-.45.765-2.55.765-1.47 0-2.025-.375-2.34-.675-.075-.075-.465-.465-.465-.75 0-.03 0-.149.075-.149.06 0 .3.18.36.209.435.226 1.05.256 1.605.256.39 0 .93 0 1.305-.045.21-.016 1.26-.12 1.32-.12.57-.001.69.329.69.509zm-.704-7.305c0 .735-1.665.735-1.845.735-1.695 0-2.625-.915-2.625-1.11 0-.03.015-.075.105-.075.045 0 .225.06.42.105.345.075.75.09 1.02.09.735 0 1.44-.15 1.65-.225.45-.165.495-.18.645-.165.269.045.63.3.63.645zm-7.74 18.076c0 .119-.03.165-.18.6-.21.585-.36 1.141-.36 1.936 0 1.515.78 2.609 1.245 2.609.255 0 .315-.074.765-.824.09-.15.345-.511.465-.511.045 0 .075.06.075.12s-.03.255-.045.3c-.165.69-.195.825-.195 1.14 0 .256.045.451.09.601.045.165.12.42.12.495 0 .3-.315.465-.57.465-.96 0-2.85-1.575-2.85-4.439 0-.42.21-2.266.21-2.655 0-.3-.06-.705-.105-.87-.105-.375-.12-.42-.12-.51 0-.045.06-.061.09-.061.689-.002 1.365 1.198 1.365 1.604zm7.32.344c.765.615 1.335 1.681 1.335 2.865 0 .284-.03.989-.75.989-.735 0-.735-.81-.735-1.004 0-1.246 0-1.875-.795-2.67-.12-.121-.72-.586-.72-.676 0-.045.06-.074.135-.074.014.001.885.046 1.53.57zm-9.45 17.46c0-.06.06-.119.135-.119.045 0 .825.209.99.209.435 0 2.49-.435 2.52-.449.255-.18.27-1.695.27-1.771 0-.39-.03-.84-.375-1.274-.225-.271-.255-.301-.255-.346 0-.104.18-.119.24-.119 1.005 0 1.59.569 1.59.959 0 .03-.57 1.936-.57 2.221 0 .09.06.135.165.135.075 0 .765-.075.885-.075 1.125 0 1.995.54 1.995 1.92 0 1.185-.42 3.765-1.29 4.815-.42.494-1.02.914-1.53.914-.57 0-.72-.555-.885-1.035-.03-.074-.195-.465-.195-.494 0-.045.03-.075.075-.075.06 0 .33.09.375.104.3.061.6.105.765.105.435 0 .99-.21 1.425-1.83.165-.6.465-1.814.465-2.609 0-1.051-.6-1.125-1.035-1.125-.48 0-1.335.225-1.44.359-.06.075-.075.135-.225.646-.6 2.04-2.055 5.729-3.27 5.729-.33 0-.48-.21-.48-.48 0-.314.105-.435 1.005-1.424.405-.451 1.035-1.141 1.845-3.391.06-.15.21-.6.21-.705 0-.045-.015-.119-.105-.119-.33 0-1.725.6-2.025.6-.585 0-1.275-.946-1.275-1.276zm10.469 3.12c-.15 0-.84-.405-1.02-.45-.075-.029-.48-.06-.48-.105 0-.09.495-.344.585-.42.555-.42.615-.465.615-.869 0-.256-.105-1.23-1.215-1.725-.12-.061-.36-.166-.36-.226 0-.09.06-.09.105-.09 1.92 0 2.625 1.89 2.625 2.655 0 .181-.225 1.23-.855 1.23zm-10.649 14.161c0-.06.06-.12.135-.12.045 0 .825.21.99.21.435 0 2.49-.435 2.52-.45.255-.18.27-1.694.27-1.77 0-.391-.03-.84-.375-1.275-.225-.27-.255-.299-.255-.345 0-.104.18-.12.24-.12 1.005 0 1.59.57 1.59.961 0 .014-.57 1.934-.57 2.219 0 .09.06.136.165.136.075 0 .765-.075.885-.075 1.125 0 1.995.54 1.995 1.92 0 1.186-.42 3.765-1.29 4.814-.42.495-1.02.915-1.53.915-.555 0-.705-.524-.885-1.034-.03-.105-.195-.451-.195-.496s.03-.074.075-.074c.06 0 .33.09.375.105.315.074.615.104.765.104.435 0 .99-.21 1.425-1.83.165-.601.465-1.815.465-2.61 0-1.049-.6-1.125-1.035-1.125-.48 0-1.335.226-1.44.36-.06.075-.075.136-.225.646-.6 2.039-2.055 5.729-3.27 5.729-.33 0-.48-.21-.48-.479 0-.315.105-.436 1.005-1.426.405-.449 1.035-1.14 1.845-3.39.06-.149.21-.601.21-.705 0-.045-.015-.12-.105-.12-.33 0-1.725.6-2.025.6-.585-.001-1.275-.945-1.275-1.275zm10.409 3.179c-.165 0-.855-.39-1.02-.45-.105-.029-.48-.045-.48-.104 0-.09.495-.345.585-.42.555-.42.615-.466.615-.87 0-.255-.105-1.23-1.215-1.725-.12-.061-.36-.165-.36-.225 0-.091.06-.091.105-.091 1.92 0 2.61 1.89 2.625 2.655 0 .181-.225 1.23-.855 1.23zm.69-5.024c0 .255-.18.585-.435.585-.21 0-.33-.091-.795-.646-.3-.359-.45-.465-1.065-.885-.075-.045-.225-.165-.225-.225 0-.045.12-.135.255-.135 1.92.001 2.265 1.126 2.265 1.306zm1.2-1.26c0 .18-.12.435-.375.435-.33 0-.495-.194-.795-.54-.24-.255-.84-.615-1.335-.795-.15-.045-.195-.105-.195-.15 0-.119.36-.209.54-.209 1.86-.001 2.16.974 2.16 1.259zm-11.579 18.749c.63 0 .855-.06 2.91-.646 1.335-.374 4.77-1.35 5.76-1.35.54 0 1.215.211 1.215.721 0 .39-.39.555-.615.555-.195 0-1.05-.165-1.215-.165-1.905 0-4.035 1.755-4.035 5.625 0 2.52.945 2.685 1.83 2.685.225 0 1.29-.09 1.425-.09.465 0 .735.195.735.555 0 .795-1.65.795-1.74.795-3.06 0-3.06-2.505-3.06-3.209 0-.66.015-3.84 2.175-5.775.06-.045.375-.285.375-.314 0-.031-.06-.031-.09-.031-.87 0-3.975 1.32-4.47 1.605-.195.105-.345.195-.51.195-.75 0-1.47-1.005-1.275-1.215.06-.076.495.059.585.059zm9.584 3.316c0 .345-.285.615-.525.615-.27 0-.405-.285-.645-.871-.165-.42-.27-.555-.75-1.17-.045-.06-.15-.209-.15-.27 0-.075.165-.09.3-.061 1.275.346 1.77 1.276 1.77 1.757zm1.815-.721c0 .391-.24.555-.435.555-.36 0-.525-.435-.675-.795-.135-.33-.585-.869-.99-1.199-.075-.061-.135-.12-.135-.195 0-.09.165-.09.21-.09.12 0 .285.045.375.075.885.284 1.65.929 1.65 1.649zm-7.679 13.275c0 .15-.255.721-.285.84-.21.766-.63 4.08-.63 5.34 0 1.516.285 2.865 2.295 2.865.735 0 1.815-.15 3.15-.78.225-.104 1.365-.735 1.425-.735s.075.045.075.076c0 .164-2.22 2.579-5.04 2.579-1.95 0-2.88-1.124-2.88-4.14 0-.93.03-1.23.345-4.17.06-.494.195-1.725.195-2.145 0-.27-.045-.525-.135-.735-.015-.045-.165-.39-.165-.405 0-.104.12-.149.21-.149.779 0 1.44 1.215 1.44 1.559zm4.605 17.521c0 .104-.165.555-.18.659-.06.33-.105.705-.105.826 0 .119 0 .135.105.135.135 0 .345-.061.48-.105.135-.029.675-.3.795-.3.33 0 .795.345.795.569 0 .181-.24.511-1.305.511-.075 0-.795 0-.84.015-.06.03-.06.195-.06.285 0 .24.15 3.24.21 3.375.06.105.12.135.69.375.825.359 1.53.66 1.53 1.08 0 .345-.27.51-.465.51s-.3-.045-1.125-.57c-.06-.045-.465-.3-.645-.3-.105 0-.12.03-.27.345-.42.915-1.32 1.08-1.875 1.08-1.08 0-2.085-.705-2.085-1.439 0-.78 1.14-1.32 2.55-1.32.09 0 .525.045.615.045.15 0 .195-.015.195-.255 0-.556-.12-3.015-.12-3.524 0-2.115-.06-2.205-.18-2.416-.03-.059-.255-.344-.255-.42 0-.074.09-.09.15-.09 1.004-.002 1.395.824 1.395.929zm-2.19 6.434c-.735 0-1.545.195-1.545.6 0 .271.48.57 1.215.57.945 0 1.47-.585 1.47-.885-.001-.179-.675-.285-1.14-.285zm1.86 14.79c0 4.665-4.77 6.271-5.175 6.271-.015 0-.045 0-.045-.031 0-.045.585-.449.66-.494 2.04-1.44 3.45-3.405 3.45-5.82 0-.479-.09-2.145-1.515-2.145-.855 0-1.68.48-2.01.885-.405.495-.45.555-.69.555-.645 0-1.38-.944-1.38-1.14 0-.075.09-.12.15-.12.105 0 .585.105.69.105.345 0 .45-.045 1.38-.45.84-.36 1.23-.524 1.98-.524 1.289-.001 2.505.899 2.505 2.908zm-3.735-6.014c.27.045.51.045.69.045.72 0 .885 0 1.185.135.615.256.705.6.705.735 0 .375-.405.465-.69.465-.12 0-.645-.06-.75-.06-.495 0-.84.18-1.815.72-.075.045-.465.271-.495.271-.03 0-.06-.016-.06-.061 0-.061 1.035-1.186 1.035-1.471 0-.09-.03-.119-.315-.254-.45-.226-1.08-.66-1.08-.735s.12-.075.15-.075c.045 0 1.215.255 1.44.285zm-4.8 21.074c0-.059.06-.119.135-.119.045 0 .825.21.99.21.435 0 2.49-.435 2.52-.45.255-.18.27-1.695.27-1.77 0-.391-.03-.84-.375-1.275-.225-.27-.255-.3-.255-.345 0-.104.18-.12.24-.12 1.005 0 1.59.57 1.59.96 0 .03-.57 1.935-.57 2.22 0 .09.06.135.165.135.075 0 .765-.074.885-.074 1.125 0 1.995.539 1.995 1.92 0 1.185-.42 3.765-1.29 4.814-.42.495-1.02.915-1.53.915-.57 0-.72-.556-.885-1.035-.03-.075-.195-.465-.195-.495 0-.045.03-.074.075-.074.06 0 .33.09.375.104.3.06.6.104.765.104.435 0 .99-.209 1.425-1.83.165-.6.465-1.814.465-2.609 0-1.05-.6-1.125-1.035-1.125-.48 0-1.335.225-1.44.36-.06.075-.075.135-.225.645-.6 2.04-2.055 5.729-3.27 5.729-.33 0-.48-.209-.48-.479 0-.315.105-.435 1.005-1.425.405-.45 1.035-1.141 1.845-3.391.06-.149.21-.6.21-.704 0-.046-.015-.12-.105-.12-.33 0-1.725.6-2.025.6-.585-.001-1.275-.946-1.275-1.276zm10.469 3.121c-.15 0-.84-.405-1.02-.451-.075-.029-.48-.059-.48-.104 0-.09.495-.345.585-.42.555-.42.615-.465.615-.87 0-.255-.105-1.229-1.215-1.725-.12-.061-.36-.165-.36-.225 0-.09.06-.09.105-.09 1.92 0 2.625 1.889 2.625 2.654 0 .18-.225 1.231-.855 1.231z"/></g><g><g fill="#210701"><path d="M122.054 41.396c.286 0 .312 0 .52-.208.937-.858 1.04-.962 1.223-.962.338 0 1.586 1.248 1.586 1.534 0 .312-.338.312-.91.312h-6.526c-.546 0-1.404 0-2.132.052a3.944 3.944 0 01-.546.078c-.053 0-.104-.052-.156-.156l-.338-.598c-.078-.13-.078-.13-.078-.182 0-.026.025-.052.052-.052s.546.078.65.078a46.1 46.1 0 002.651.104h4.004zm-.859 10.66c.234 0 .416 0 .546-.052.156-.078.78-.806.962-.806.183 0 1.612.78 1.612 1.196 0 .052-.286.494-.338.546-.13.208-.156.416-.156.702 0 .546.104 3.276.104 3.9 0 .806-.546 1.196-1.301 1.196-.416 0-.416-.208-.416-.52 0-.624-.39-.624-.832-.624h-2.392c-.78 0-.78.312-.78 1.352 0 .52 0 1.222-1.222 1.222-.702 0-.729-.468-.729-.78 0-.676.104-4.004.104-4.758 0-1.066 0-1.534-.078-2.132-.026-.13-.13-.832-.13-.988 0-.104.052-.26.208-.26s1.222.546 1.404.624c.416.208.598.182.91.182h2.524zm-.311-7.358c.155 0 .312 0 .441-.104.183-.13.78-.988.988-.988.286 0 1.586 1.248 1.586 1.482 0 .286-.416.286-1.092.286h-3.25c-.468 0-1.431 0-2.132.052-.078.026-.442.078-.521.078s-.104-.078-.156-.156l-.364-.598c-.077-.13-.077-.13-.077-.182 0-.026.025-.052.077-.052.104 0 .547.078.65.078.65.052 1.95.104 2.601.104h1.249zm.077 3.536c.261 0 .416 0 .702-.39.286-.416.442-.546.65-.546.442 0 1.638.988 1.638 1.3s-.416.312-1.04.312h-3.25c-1.716 0-2.21.078-2.288.078-.052 0-.338.052-.39.052s-.078-.026-.156-.156l-.338-.598c-.078-.13-.078-.13-.078-.182 0-.026.026-.052.052-.052s.547.078.65.078c.729.052 1.898.104 2.626.104h1.222zm-.363-9.88c.286 0 .416 0 .702-.39.441-.624.52-.702.728-.702.364 0 1.69 1.04 1.69 1.43 0 .338-.364.338-.91.338h-2.938c-.649 0-1.508 0-2.132.052-.078 0-.442.078-.521.078-.077 0-.13-.078-.182-.156l-.338-.598c-.078-.13-.078-.13-.078-.182 0-.026.026-.052.078-.052 0 0 .546.078.65.078.649.078 1.949.104 2.6.104h.651zm-1.743 14.404c-.598 0-.754.104-.754 1.066 0 3.068.13 3.068.857 3.068h2.393c.286 0 .806 0 .806-.676 0-.286 0-2.938-.052-3.094-.156-.364-.52-.364-.729-.364h-2.521zm14.093-14.222c1.065 0 1.17 0 1.325-.13.572-.494.729-.65 1.015-.65.26 0 1.897.754 1.897 1.352 0 .13-.52.546-.598.676-.182.234-.182.468-.182 2.6 0 .598.104 3.458.104 4.108 0 .442 0 1.586-1.118 1.586-.676 0-.754-.26-.884-.884-.104-.494-.468-.52-.754-.52h-4.368c-.728 0-.78.364-.78.858-.025 2.704-.052 5.382-.052 8.086 0 .962.104 1.326.416 1.56.442.312 2.418.416 3.172.416.208 0 2.834 0 3.458-.52.364-.286.78-1.846.988-2.6.156-.546.182-.65.313-.65.104 0 .182.416.233.624.13.65.338 1.664.65 1.976.468.468.546.546.546.806 0 .442-.572.962-.91 1.196-.572.416-1.612.936-4.628.936-4.914 0-5.721-.754-5.876-1.976-.053-.442-.053-8.008-.053-9.204 0-.39.026-.598-.052-1.638 0-.182-.13-1.04-.13-1.248 0-.078 0-.364.286-.364.338 0 1.3.521 2.002.91.234.13.416.156.806.156h4.005c.493 0 .624-.104.728-.364.13-.312.13-2.912.13-3.562 0-2.756-.078-2.834-.806-2.834h-3.666c-.624 0-2.366 0-3.276.078-.078 0-.468.052-.546.052s-.13-.052-.234-.182l-.494-.598c-.104-.13-.104-.13-.104-.156 0-.052.052-.052.078-.052.156 0 .962.078 1.144.078.754.026 2.106.078 3.563.078h2.652zm-6.734 30.42c-3.25 4.083-10.271 7.541-11.129 7.541-.104 0-.13-.052-.13-.104s.988-.728 1.17-.884c4.811-3.667 8.814-7.307 9.022-8.736.026-.234.104-.338.208-.338.078 0 1.326.65 1.561.754.754.39.832.416.832.65 0 .13-.053.234-.234.338-.208.104-.26.182-.26.26 0 .416 4.316 4.394 9.282 6.11.312.104 2.028.52 2.028.572 0 .026-.78.286-.91.338-.754.312-.937.494-1.326.884a.516.516 0 01-.338.156c-.234 0-3.381-1.222-5.851-3.692-1.481-1.482-2.678-3.068-3.016-3.667-.078-.156-.234-.442-.442-.494-.181-.026-.364.182-.467.312zm-8.425 13.313c.546.78.65 1.977.65 2.886 0 2.704-1.196 3.51-2.055 3.51-.546 0-.936-.416-.936-.832 0-.39.13-.546.676-1.248.937-1.144 1.456-2.964 1.456-3.952 0-.078-.078-.494-.025-.546.052 0 .131.026.234.182zm10.946-5.564c.937 0 1.145 0 1.404-.364.26-.364.313-.442.494-.442.208 0 2.08 1.04 2.08 1.508 0 .182-.078.234-.806.494-.624.234-1.17 1.3-1.586 2.132-.469.962-.858 1.716-1.664 1.716-.364 0-1.118-.208-1.118-.729 0-.52 1.897-2.756 1.897-3.354 0-.286-.233-.286-.441-.286h-4.498c-.729 0-2.522.026-3.276.078-.078 0-.468.052-.546.052-.104 0-.156-.052-.234-.156l-.52-.598c-.104-.13-.104-.13-.104-.182 0-.052.052-.052.104-.052.155 0 .962.078 1.144.078.728.026 2.392.104 3.563.104h4.107zm-5.408 6.058c0 .208-.052.26-.624.702-.26.208-.338.39-.338.91 0 .286 0 2.08.026 2.21.13.962 1.118.962 2.34.962 5.044 0 5.46-.754 5.98-1.664.312-.546.52-1.092.598-1.352 0-.052.052-.208.183-.208.13 0 .13.208.13.312 0 .078 0 1.898.571 2.392.339.286.364.312.364.494 0 1.742-5.252 1.742-6.162 1.742-4.758 0-5.746-.234-5.746-3.38v-3.38c0-.078-.078-.468-.078-.546 0-.286.183-.39.468-.338.521.104 2.288.598 2.288 1.144zm2.419-8.372c-.572 0-1.534 0-2.314.052-.052 0-.546.078-.572.078-.052 0-.104-.078-.156-.182l-.39-.598c-.078-.104-.078-.13-.078-.182 0-.026.026-.052.078-.052.026 0 .572.078.702.078.728.078 2.105.104 2.808.104 1.093 0 1.223 0 1.456-.468.104-.208.416-.729.702-.729.442 0 1.716 1.248 1.716 1.586 0 .312-.441.312-1.039.312h-2.913zm.858 7.8c1.716.884 1.898 1.456 1.898 2.08 0 .65-.391 1.066-.937 1.066-.598 0-.806-.416-1.403-1.664-.313-.65-1.066-1.508-1.404-1.898-.078-.078-.078-.156-.053-.182 0-.026.963.13 1.899.598zm10.53 4.16c0 .78-.364 1.352-.987 1.352-.572 0-.677-.338-1.066-1.534-.234-.676-.676-1.612-1.924-3.068-.131-.156-.286-.364-.234-.416.025-.026 4.211 1.014 4.211 3.666zm-14.613 30.368c-.156 0-.702 0-.754.546-.052.676-.104 1.404-1.248 1.404-.858 0-.91-.521-.91-.962 0-.104.156-5.304.156-6.292 0-2.834 0-9.022-.208-11.648-.026-.234-.156-1.326-.156-1.56 0-.13.026-.208.156-.208.104 0 .233.052 1.222.546.729.338.858.364 1.3.364h7.957c.546 0 .754 0 .936-.26.39-.546.494-.676.754-.676.364 0 2.263 1.222 2.263 1.612 0 .182-.131.286-.572.676-.338.26-.468.442-.468 1.69 0 2.782.025 3.25.052 5.538.025 1.482.208 8.061.208 9.412 0 .91-.599 1.43-1.3 1.43-.078 0-.754 0-.832-.988-.026-.442-.026-.624-.547-.624h-8.009zm7.801-9.439c.754 0 .754-.494.754-.832 0-.312-.078-6.37-.131-6.5-.155-.338-.493-.338-.649-.338h-8.034c-.364 0-.572.234-.599.39-.052.208-.052 5.85-.052 6.318 0 .494.026.962.729.962h7.982zm-.026 8.737c.233 0 .702 0 .754-.546.026-.156.026-5.928.026-6.526 0-.546-.053-.988-.754-.988h-7.957c-.676 0-.754.39-.754.91 0 .858.078 5.044.078 5.98 0 .832.078 1.17.78 1.17h7.827zm-4.16 17.263c0 .858-1.977 1.638-2.601 1.898-.363.13-.39.234-.441 1.144-.053.572-.053 2.678-.053 2.808 0 .156 0 .468.234.468.078 0 2.21-.884 2.626-1.04 2.574-.962 3.744-1.04 4.421-1.04 1.897 0 4.004 1.482 4.004 3.926 0 3.433-3.614 4.992-5.746 4.992-1.482 0-2.679-.754-2.679-2.106 0-1.222 1.066-2.054 1.3-2.054.078 0 .131.078.131.13 0 .078-.053.13-.104.208a1.076 1.076 0 00-.233.702c0 1.248 1.43 1.248 1.689 1.248 1.716 0 3.9-1.144 3.9-3.224 0-1.846-1.378-2.86-2.496-2.86-.729 0-2.34.338-5.383 1.95-1.455.78-1.611.858-1.611 1.3 0 .286.078 1.456.078 1.716 0 1.196-.391 2.912-1.326 2.912-.702 0-.988-.546-1.196-.962-.832-1.612-.962-1.612-1.3-1.612-.234 0-.494.104-.65.156-.156.078-.806.521-.988.521-.285 0-1.611-.78-1.611-1.638 0-.468.285-1.014.754-1.014.156 0 .91.13 1.065.13.702 0 1.171-.13 2.704-.884 1.326-.65 1.482-.728 1.482-1.456 0-.598-.026-2.808-.052-3.25 0-.182-.078-.572-.364-.572-.313 0-1.04.182-1.196.234-1.326.442-1.456.494-1.846.494-.884 0-1.872-1.794-1.872-1.976 0-.13.104-.182.208-.182.078 0 .39.104.468.104.468.078.858.13 1.196.13.936 0 3.146-.624 3.302-.78.13-.182.26-2.548.26-2.834 0-.806-.13-1.326-.857-2.08-.052-.052-.364-.364-.364-.416 0-.234.416-.286.572-.286 1.742 0 2.678 1.274 2.678 1.768 0 .234-.494 1.17-.546 1.352-.025.182-.26 1.222-.26 1.69 0 .104.052.286.208.286.182 0 .91-.286.91-.65 0-.052-.13-.312-.13-.364 0-.026.052-.078.104-.104.363-.053 1.611.311 1.611 1.117zm-5.929 9.959c0 .39.702 1.222 1.093 1.222.363 0 .728-.729.728-2.002 0-.104 0-.364-.078-.416-.079-.001-1.743.832-1.743 1.196zm17.083-8.087c0 .546-.312 1.248-.858 1.248-.155 0-.754-.052-.884-.052-.13.026-.676.182-.78.182-.052 0-.13-.026-.13-.13 0-.052.078-.182.078-.208.052-.156.104-.286.104-.468 0-1.04-1.301-1.404-2.185-1.404-.416 0-.649.104-1.014.26a.585.585 0 01-.261.078c-.077 0-.104-.026-.104-.104 0-.182 1.092-1.638 2.809-1.638 2.003 0 3.225 1.04 3.225 2.236zm-17.967 25.792c-.598 0-2.392 0-3.302.078-.078 0-.469.052-.546.052-.078 0-.13-.052-.234-.156l-.494-.598c-.104-.13-.104-.13-.104-.182 0-.052.025-.052.077-.052.469 0 2.471.156 2.887.156.78 0 .78-.26.78-1.664 0-.182-.053-1.742-.13-2.132-.026-.156-.183-.806-.183-.936 0-.182.208-.182.286-.182.208 0 2.314.546 2.314 1.04 0 .182-.053.208-.442.52-.208.208-.26.468-.26 1.638 0 .156.025.806.025.962 0 .208 0 .78.624.78.469 0 .572-.026.754-.182.416-.364.755-.676.858-.676.234 0 1.534 1.222 1.534 1.586 0 .364-.338.468-.78.65-.416.156-2.002 2.028-2.704 2.886-.494.598-.598.832-.598 1.3 0 .546 0 .598.754.832 2.34.728 3.276 1.872 3.276 2.938 0 .468-.261 1.04-.807 1.04-.468 0-.546-.13-1.222-1.274-.026-.052-1.326-2.236-1.768-2.236-.261 0-.286.078-.286 2.132 0 1.3.104 7.046.104 8.216 0 .442-.078 1.352-1.144 1.352-.807 0-.807-.494-.807-.884 0-.234.156-2.002.183-2.366.025-.962.104-2.782.104-4.836v-2.938c0-.156-.026-.52-.208-.52-.104 0-3.12 2.704-3.536 2.704-.208 0 .364-.65.521-.832 4.238-4.732 5.771-7.541 5.771-7.878s-.39-.338-.598-.338h-.699zm10.244 7.073c0 .156-.468.624-.546.754-.078.156-.649 2.86-.806 3.38-1.586 5.226-6.604 6.24-6.708 6.24-.053 0-.234 0-.234-.078 0-.052.676-.468.806-.546 3.381-2.106 4.213-4.291 4.603-5.616.313-1.066.546-3.198.546-4.056 0-.156-.182-.884-.182-1.014 0-.156.182-.156.233-.156.208 0 1.015.364 1.196.442.859.338 1.092.493 1.092.65zm-1.741-1.951c-.209 0-.416 0-.572.364-.234.572-.494 1.17-1.431 1.17-.598 0-.598-.442-.598-.676 0-.156.052-.858.078-1.014.052-1.118.104-3.822.104-4.524 0-1.482-.077-3.12-.182-3.822-.026-.104-.13-.624-.13-.754 0-.286.182-.338.312-.338.183 0 .313.052 1.353.702.52.312.624.312 1.17.312h5.772c.416 0 .571-.026.754-.338.416-.702.494-.832.806-.832.338 0 1.898 1.3 1.898 1.664 0 .182-.13.312-.234.364-.468.338-.52.364-.572.598v2.496c0 .598.053 3.588.053 4.264 0 .468 0 1.43-1.274 1.43-.494 0-.546-.208-.649-.624-.131-.442-.416-.442-.729-.442-.624 0-.988 0-1.04.676-.052.442-.026 1.95-.026 7.748 0 1.482.104 2.106 1.561 2.106 1.534 0 2.132-.468 2.548-2.938.026-.208.234-1.3.364-1.3.104 0 .104.39.13.52 0 .442.104 1.534.312 1.976.104.234.832 1.248.832 1.534 0 .182-.338.858-1.014 1.274-.338.208-.962.546-3.042.546-3.198 0-3.302-1.534-3.302-3.198 0-1.222.104-6.942.104-8.19 0-.182 0-.754-.702-.754h-2.654zm.13-7.904c-.599 0-.937.13-.937.91v5.46c0 .754.364.858.962.858h5.643c.806 0 .962-.26.962-1.014 0-.052 0-5.304-.026-5.356 0-.754-.363-.858-.936-.858h-5.668zm-7.358 34.242c0 .208-.053.286-.313 1.04-.363 1.014-.624 1.977-.624 3.354 0 2.626 1.353 4.524 2.158 4.524.442 0 .546-.13 1.326-1.43.156-.26.598-.884.806-.884.078 0 .131.104.131.208s-.053.442-.078.52c-.286 1.196-.338 1.431-.338 1.976 0 .442.077.781.155 1.041.078.285.208.728.208.857 0 .52-.546.807-.988.807-1.664 0-4.939-2.73-4.939-7.697 0-.728.363-3.926.363-4.602 0-.52-.104-1.222-.182-1.508-.182-.65-.208-.728-.208-.884 0-.078.104-.104.156-.104 1.197.001 2.367 2.081 2.367 2.782zm12.688.598c1.326 1.066 2.313 2.912 2.313 4.966 0 .494-.052 1.716-1.3 1.716-1.274 0-1.274-1.404-1.274-1.742 0-2.158 0-3.25-1.378-4.628-.208-.208-1.248-1.014-1.248-1.17 0-.078.104-.13.234-.13.027.001 1.535.079 2.653.988zm-6.942 39.884c.338 0 1.378-.104 2.47-.234.391-.051 2.08-.311 2.418-.311.885 0 1.69.649 1.69 1.221 0 1.404-4.42 1.535-5.876 1.535-3.484 0-8.061-.754-8.061-4.629 0-.832.286-1.195.364-1.195.104 0 .104.051.286.649.598 2.054 3.12 2.912 5.122 2.912.157 0 1.327.052 1.587.052zm-4.004-14.222c1.976 0 3.848-.39 4.186-.467.937-.209 1.145-.209 1.301-.209 1.222 0 2.418 1.223 2.418 1.768 0 .391-.183.469-1.925.859-1.3.312-2.184 1.014-3.067 1.715-.208.183-.234.209-.338.209-.053 0-.078-.053-.078-.078 0-.209 1.144-1.586 1.144-1.898 0-.182-.078-.182-.884-.208-3.042-.052-4.914-1.403-4.914-1.769 0-.078.13-.104.182-.104.078 0 .156.025.832.131.441.051.882.051 1.143.051zm11.024 3.277c.754.493 1.118 1.092 1.118 1.481 0 .493-.313 1.015-.729 1.015-.338 0-.52-.105-1.404-1.066-.52-.572-.728-.703-1.897-1.43-.13-.105-.416-.287-.416-.391 0-.078.208-.234.441-.234 1.093 0 1.925 0 2.887.625zm3.848-.625c0 .286-.208.78-.676.78-.546 0-.858-.39-1.353-.962-.338-.416-1.403-1.145-2.262-1.456-.286-.104-.338-.208-.338-.286 0-.182.52-.313.962-.313 2.315.001 3.667 1.198 3.667 2.237zm-17.654 34.763c-.104.155-.104 1.3-.104 1.586 0 1.065.13 5.824.13 6.786v1.508c0 .104.053.703.053.832 0 .521-.494 1.066-1.171 1.066-.754 0-.857-.363-.857-.807 0-.207.025-.467.052-.883.078-1.353.156-2.912.156-4.967 0-.65.026-2.704-.026-4.29 0-.364-.025-.599-.233-.599-.313 0-3.146 2.522-3.458 2.522-.026 0-.131 0-.131-.077 0-.027 1.534-1.691 1.769-1.977 1.872-2.236 4.082-5.408 4.264-6.656.026-.286.053-.391.208-.391.183 0 .599.287.807.442.649.442 1.352.937 1.352 1.274 0 .312-.182.39-.676.572-.26.104-.313.104-1.482 1.508-.13.156-.806.961-.806 1.039 0 .131.026.156.416.338a.454.454 0 01.26.494c-.029.134-.445.575-.523.68zm13.91-8.632c.494 0 .702-.053.91-.365.338-.494.39-.545.572-.545.13 0 .286.025.39.104.468.338 1.145.91 1.586 1.248.702.546.754.624.754.885 0 .363-.285.52-.676.52-.208 0-1.352-.131-1.612-.131-.39 0-1.17.261-1.508.443a4.96 4.96 0 00-.468.26c-.026 0-.052-.053-.052-.078.312-.521.624-1.066.624-1.274 0-.364-.442-.364-.729-.364h-14.534c-.468 0-.546 0-.832.91-.261.807-1.196 2.211-1.977 2.211-.468 0-1.04-.287-1.04-1.119 0-.52.208-.728.469-1.014.832-.885 1.325-1.404 1.638-2.184.078-.156.312-.963.338-.963.104 0 .442.416.624.963.156.441.286.494.676.494h5.98c.806 0 .806-.469.806-.807 0-.441-.025-1.508-.052-1.872 0-.104-.156-.521-.156-.624 0-.156.131-.234.286-.234.13 0 1.769.364 2.002.416.208.026.521.156.521.494 0 .209-.052.26-.521.729-.182.182-.233.313-.233 1.145 0 .571.208.754.884.754h5.33zm-1.742 4.627c-.468 0-.598 0-1.014.443-.806.883-1.066 1.17-2.263 2.209-.285.234-.468.391-.468.494 0 .156.208.156.286.156h4.368c.338 0 .624-.025.832-.338.313-.469.364-.547.599-.547.104 0 .857.572 1.3.91.624.494.676.547.676.677 0 .233-.182.364-.364.442-.312.182-.468.312-.546.52s-.078 5.122-.078 5.746c0 .313 0 2.133.078 2.756.026.104.104.65.104.78 0 .755-.624 1.248-1.431 1.248-.624 0-.649-.806-.676-1.222-.026-.547-.521-.547-.702-.547h-5.643c-.623 0-.676.183-.779.832-.104.65-.729 1.041-1.223 1.041-.779 0-.779-.598-.779-.78 0-.208 0-.286.052-1.015.078-.988.182-2.392.182-4.836 0-1.871 0-4.732-.155-5.746-.026-.13-.131-.676-.131-.807 0-.077.078-.129.156-.129.13 0 .26.078 1.456.728.494.286.65.286.884.286.469 0 .494-.078.858-.624.442-.649 1.118-2.08 1.118-2.313 0-.365-.234-.365-.442-.365h-.416c-.494 0-1.846 0-2.886.053-.104 0-.729.078-.78.078-.078 0-.13-.053-.233-.156l-.494-.598c-.104-.131-.104-.156-.104-.182 0-.053.052-.053.078-.053.182 0 .962.078 1.144.078.755.025 2.106.104 3.589.104h4.368c.754 0 .857 0 1.248-.494.52-.623.754-.832.988-.832.39 0 2.054 1.248 2.054 1.639 0 .363-.494.363-1.378.363h-3.433zm-4.914 3.978c-.832 0-.832.209-.832 1.924 0 1.847 0 2.055.832 2.055h5.772c.832 0 .832-.208.832-2.002 0-1.768 0-1.977-.832-1.977h-5.772zm-.104 4.655c-.494 0-.702.234-.702.702v2.704c0 .52 0 .988.728.988h5.954c.494 0 .702-.234.702-.702v-2.679c0-.52 0-1.014-.702-1.014h-5.98zm-7.385 22.906c0 .52-.286 1.117-.962 1.117-.416 0-.65-.182-.988-.883-.936-1.873-2.574-3.225-2.729-3.355-.078-.051-.364-.26-.364-.311 0-.105.182-.105.234-.105.754 0 2.054.443 2.808.885 1.871 1.039 2.001 2.236 2.001 2.652zm3.536-2.237c.052 0 .078.025.078.078 0 .156-2.626 6.708-2.938 7.385-1.118 2.34-1.195 2.651-1.195 3.406 0 .571.13 1.143.286 1.637.468 1.561.52 1.717.52 2.055 0 .91-.572 1.508-1.274 1.508-1.273 0-1.273-1.611-1.273-2.626 0-2.444-.156-3.146-1.898-3.796-.156-.078-.494-.182-.494-.26 0-.104.078-.156.156-.156 1.404 0 1.794 0 2.522-.832 1.846-2.184 3.146-4.446 4.628-7.021.726-1.274.779-1.378.882-1.378zm-1.898-3.796c0 .625-.39 1.275-1.014 1.275-.572 0-.754-.313-1.014-.988-.391-1.066-1.456-2.471-2.133-3.121-.26-.233-.285-.26-.285-.363 0-.025.025-.053.052-.053.728 0 2.47.807 2.886 1.066.599.391 1.508 1.248 1.508 2.184zm5.929 17.759c-.494 0-.728.182-.754.623-.052.494-.13 1.482-1.456 1.482-.598 0-.729-.313-.729-.936 0-.338.131-1.95.156-2.34.078-2.185.13-3.199.13-10.011 0-2.729 0-3.017-.104-3.9-.026-.208-.208-1.092-.208-1.3 0-.156.078-.208.182-.208.313 0 .91.338 1.223.521.571.338.832.494 1.248.494.39 0 .571-.261.701-.494.65-1.145 1.82-3.797 1.82-5.02 0-.077 0-.285.313-.285.285 0 2.834.807 2.834 1.561 0 .182-.156.26-.364.338-.806.312-.858.312-1.248.754-1.144 1.273-1.664 1.846-2.574 2.678-.078.053-.233.208-.233.286 0 .183.182.183.26.183h5.72c.442 0 .702-.209.807-.339.546-.571.598-.624.779-.624.261 0 2.055.963 2.055 1.561 0 .207-.078.26-.416.494-.416.285-.416.467-.416 2.158 0 7.02 0 7.8.104 10.01.026.363.156 2.496.156 2.652 0 .468 0 1.664-1.378 1.664-.807 0-.807-.91-.807-1.404 0-.286-.285-.598-.728-.598h-7.073zm-.13-14.898c-.754 0-.754.39-.754 1.664 0 .494 0 4.289.052 4.445.104.391.494.442.702.442h7.307c.546 0 .754-.312.754-.754 0-4.654 0-5.226-.053-5.356-.104-.363-.441-.441-.701-.441h-7.307zm0 7.228c-.468 0-.754.233-.754.701 0 .572 0 5.721.052 5.85.156.416.521.416.702.416h7.307c.441 0 .728-.207.728-.676 0-.883.026-4.732.026-5.59 0-.701-.521-.701-.754-.701h-7.307zm1.82 22.463c-.261 0-.599 0-.599.26 0 .286 1.066 1.689 1.742 2.314.521.494.729.494 1.248.494h1.353c1.17 0 1.326 0 1.664-.442.936-1.196 1.065-1.326 1.3-1.326.494 0 2.652 1.638 2.652 2.106 0 .363-.521.363-1.378.363h-4.811c-.286 0-.521 0-.521.182 0 .521 4.29 3.459 7.15 4.135.13.025.521.104.521.208 0 .026-.26.13-.313.13-.676.26-1.456.676-1.872 1.145-.286.313-.312.338-.468.338-.52 0-4.395-2.756-6.318-5.278-.624-.806-.676-.858-1.43-.858h-4.057c-.26 0-.649 0-.936.234-.208.182-1.274 1.586-1.508 1.872-3.563 4.29-7.177 5.642-7.385 5.642-.026 0-.026-.025-.026-.051 0-.053 1.378-1.145 1.612-1.353 3.094-2.729 5.2-5.642 5.2-6.007 0-.338-.26-.338-.468-.338h-1.248c-.754 0-2.028 0-3.068.053-.078 0-.702.078-.754.078-.104 0-.156-.078-.234-.183l-.494-.599c-.104-.104-.13-.129-.13-.155 0-.052.053-.078.104-.078.156 0 .962.078 1.144.104.755.025 2.08.078 3.563.078h1.586c.468 0 .702-.053.988-.469.156-.234 1.014-1.742 1.014-2.21 0-.39-.312-.39-.624-.39h-1.95c-.754 0-2.027 0-3.067.052-.104 0-.702.078-.754.078-.104 0-.156-.052-.234-.183l-.521-.572c-.077-.129-.104-.155-.104-.182 0-.052.052-.052.104-.052.156 0 .937.078 1.118.078.754.026 2.106.104 3.588.104h2.003c.936 0 1.195 0 1.794-3.484.182-1.041.182-1.145.182-2.133 0-.233.182-.416.391-.416.26 0 2.573.625 2.573 1.248 0 .183-.104.26-.52.494s-1.222 3.381-1.353 3.875c0 .416.234.416.547.416h4.628c.598 0 1.065 0 1.248-.131.26-.129 1.092-1.56 1.43-1.56.286 0 2.548 1.612 2.548 2.028 0 .129-.104.234-.285.285-.209.053-.572.053-1.196.053h-6.369zm-1.976 7.878c-.702 0-.702.078-.857 1.118-.183 1.145-.832 5.538-5.305 7.072-.26.104-1.092.391-1.638.391-.053 0-.104 0-.104-.053 0-.052.832-.52.988-.624 4.368-2.86 4.368-6.578 4.368-7.099 0-.207 0-.779-.572-.779-.182 0-1.144.104-1.3.104-.104 0-.156-.052-.234-.182l-.52-.598c-.078-.104-.104-.131-.104-.156 0-.053.026-.053.104-.053.182 0 .988.078 1.144.078 1.196.053 2.341.104 3.563.104h2.574c.26 0 .416-.026.649-.208.156-.104.65-.702.807-.702.233 0 1.924 1.326 1.924 1.716 0 .182-.078.234-.494.494-.234.156-.234.313-.286 1.717-.182 4.654-1.222 5.563-1.768 6.058-.286.233-.807.571-1.145.571s-.468-.155-.884-.754c-.52-.728-1.145-1.014-2.002-1.403-.052-.026-.416-.208-.416-.261 0-.051.052-.129.234-.129.233 0 1.819.156 2.157.156 1.274 0 1.509-.703 1.717-1.587.26-1.222.441-3.095.441-4.265 0-.728-.468-.728-.806-.728h-2.235zm-4.134-10.322c0 .521-.286 1.015-.91 1.015-.78 0-.988-.625-1.3-1.717-.208-.701-.494-1.17-.963-1.742-.077-.078-.468-.441-.468-.494 0-.052.078-.052.156-.052.312 0 1.196.312 1.456.442 1.248.598 2.029 1.638 2.029 2.548zm5.59 5.513c.26 0 .572 0 .572-.26 0-.053-.832-1.82-.988-2.186-.233-.545-.364-.623-.962-.623-.65 0-.78 0-1.118.234-.233.129-1.222 2.443-1.222 2.496 0 .338.286.338.468.338h3.25zm4.576-7.047c0 .208-.104.26-.624.416-.286.104-3.563 2.627-4.03 2.627-.052 0 .104-.261.156-.365.338-.545 1.976-2.938 2.185-3.457.052-.104.13-.754.233-.754.156 0 .702.233 1.196.571.702.468.884.727.884.962z"/></g><g fill="#4A1F00"><path d="M100.599 44.54c0-.141.036-.308.192-.308.191 0 .191.205.191.513 0 .243.216.524.527.524.265 0 1.092-.333 1.403-.474.672-.281.756-.319.756-.742v-2.778c0-.474-.12-.524-.659-.729-.324-.115-1.284-.461-1.56-.461-.468 0-.468.409-.468.717 0 .153-.024.295-.191.295-.192 0-.192-.192-.192-.295v-2.458c0-.103.012-.269.18-.269.204 0 .204.141.204.436 0 .345.072.652.479.973.372.294 3.19 1.241 4.042 1.523.479.166 2.83.985 3.37 1.152.42.128.695.204.695 1.113 0 .154-.084.23-.191.282-.18.115-.804.332-1.079.422-2.603.896-2.891.974-5.109 1.779-2.039.73-2.207.819-2.207 1.55 0 .166-.072.294-.204.294-.18 0-.18-.205-.18-.294V44.54zm3.465-.602c0 .141.061.32.192.32.252 0 3.586-1.217 4.233-1.447.204-.076.312-.103.312-.191 0-.077-.035-.09-.432-.23-.972-.358-4.018-1.357-4.126-1.357-.18 0-.18.192-.18.358v2.547zm-3.465 9.612c0-.23.168-.23.192-.23.167 0 .191.166.191.23.036.333.048.461.252.614.191.128.396.128 2.326.128 1.14 0 1.584 0 1.968-.269.407-.281.443-.691.443-.845 0-.41-.204-.947-.54-1.306-.371-.385-.552-.385-1.931-.385-.312 0-1.775 0-1.991.039-.384.076-.516.294-.527.627-.012.128-.012.346-.191.346-.024 0-.192 0-.192-.256v-2.382c0-.256.168-.256.18-.256.204 0 .204.154.204.346 0 .32.191.513.359.576.276.103 1.871.103 2.291.103 1.943 0 2.243-.013 2.243-.576 0-.051-.048-.32-.048-.371s.012-.128.107-.128.108.051.204.512c.048.205.348 1.28.348 1.318 0 .129-.048.129-.527.129-.168 0-.264 0-.264.089 0 .09.312.448.359.525.312.512.432.96.432 1.434 0 .922-.468 1.306-.804 1.434-.468.18-.672.18-2.53.18-.36 0-1.595 0-1.812.09-.084.025-.348.153-.359.576 0 .204-.012.358-.204.358-.18 0-.18-.154-.18-.257V53.55zm0 8.397c0-.23.168-.23.192-.23.167 0 .191.166.191.23.036.333.048.461.252.614.191.128.396.128 2.326.128 1.14 0 1.584 0 1.968-.269.407-.281.443-.691.443-.845 0-.41-.204-.947-.54-1.306-.371-.385-.552-.385-1.931-.385-.312 0-1.775 0-1.991.039-.384.076-.516.294-.527.627-.012.128-.012.346-.191.346-.024 0-.192 0-.192-.256v-2.382c0-.256.168-.256.18-.256.204 0 .204.154.204.346 0 .32.191.513.359.576.276.103 1.871.103 2.291.103 1.943 0 2.243-.013 2.243-.576 0-.051-.048-.32-.048-.371s.012-.128.107-.128.108.051.204.512c.048.205.348 1.28.348 1.318 0 .129-.048.129-.527.129-.168 0-.264 0-.264.089 0 .09.312.448.359.525.312.512.432.96.432 1.434 0 .922-.468 1.306-.804 1.434-.468.18-.672.18-2.53.18-.36 0-1.595 0-1.812.09-.084.025-.348.153-.359.576 0 .204-.012.358-.204.358-.18 0-.18-.154-.18-.257v-2.393zm0 4.697c0-.115 0-.294.192-.294.18 0 .191.153.203.396 0 .167.072.397.336.513.204.102 1.955.102 2.387.102.336 0 1.728-.013 1.896-.076.144-.064.203-.205.203-.358 0-.064-.036-.384-.036-.397 0-.051.024-.115.108-.115s.108.064.276.641c.048.166.323.96.323 1.063 0 .128-.107.128-.228.128-.54 0-3.238-.013-3.851-.013-.875 0-1.379 0-1.415.589-.012.256-.023.409-.203.409-.192 0-.192-.217-.192-.307v-2.281zm8.275.41c.384 0 .695.333.684.742 0 .41-.3.743-.684.743s-.695-.333-.695-.743c0-.421.311-.742.695-.742zM106.26 77.36c0 .128 0 .319-.192.319-.18 0-.191-.166-.204-.307-.012-.154-.132-.513-.875-.845-.456-.205-2.734-1.14-3.238-1.345-1.308-.551-1.379-.602-1.379-.768 0-.154.252-.282.312-.32.527-.27 1.451-.704 2.171-1.05 2.71-1.28 2.926-1.383 3.01-1.831.036-.23.061-.333.204-.333.192 0 .192.192.192.333v2.062c0 .128 0 .319-.192.319-.191 0-.191-.191-.191-.307 0-.397-.276-.461-.372-.461s-.168.038-.216.051c-.24.115-2.639 1.28-3.13 1.511-.24.115-.36.167-.36.256 0 .064.096.129.144.154.072.038 2.111.896 2.315.985.888.371.995.41 1.151.41.468 0 .468-.346.468-.615 0-.102 0-.294.191-.294.192 0 .192.192.192.308v1.768zm-2.519 3.813c0-.166 0-.409-.384-.409-1.464 0-2.471 1.063-2.471 2.125 0 .589.323 1.152.672 1.549.06.077.467.372.467.487 0 .063-.06.128-.155.128-.264 0-1.499-.896-1.499-2.586 0-1.793 1.331-2.804 3.07-2.804 1.99 0 3.046 1.318 3.046 2.714 0 1.984-1.967 2.548-2.471 2.548-.216 0-.275-.129-.275-.385v-3.367zm.396 2.357c0 .281.06.422.348.422.456 0 1.68-.461 1.68-1.536 0-1.19-1.5-1.562-1.764-1.562s-.264.218-.264.333v2.343zm-3.538 3.954c0-.09 0-.333.192-.333.191 0 .191.128.191.486 0 .153.012.423.264.589.168.115.313.141 1.991.141.384 0 2.135 0 2.339-.076.132-.039.228-.192.228-.397 0-.089-.107-.524-.107-.614 0-.077.06-.128.119-.128.097 0 .108.063.276.627.048.18.396 1.345.396 1.408 0 .039-.012.052-.036.064h-.527c-.636 0-.708 0-.708.128 0 .064.024.09.24.269.132.103 1.031.871 1.031 1.806 0 .474-.275.755-.684.755a.638.638 0 01-.636-.64c0-.27.132-.397.252-.5.072-.076.204-.191.204-.371 0-.319-.36-.845-.779-1.088-.517-.308-.792-.358-2.567-.358-1.091 0-1.295.038-1.295.935 0 .103-.036.269-.191.269-.192 0-.192-.23-.192-.333v-2.639zm5.661 9.677c-.036.103-.061.153-.061.243 0 .166.072.281.168.371.084.09.12.128.12.18 0 .076-.06.103-.156.141-.275.115-1.583.691-1.715.691-.06 0-.12-.025-.12-.115 0-.128.049-.153.48-.461.228-.153 1.188-1.075 1.188-1.895 0-.474-.313-1.102-.972-1.102-.492 0-.768.346-1.188 1.639-.492 1.485-.936 2.24-1.896 2.24-.803 0-1.738-.602-1.738-1.958 0-.346.035-.486.191-1.037a.857.857 0 00.036-.243c0-.18-.048-.308-.072-.384-.096-.244-.155-.397-.155-.461 0-.115.096-.154.252-.218.275-.115 1.475-.615 1.631-.615.072 0 .204.026.204.154 0 .153-.145.243-.48.448-.911.563-1.283 1.767-1.283 2.355 0 .627.504 1.113 1.092 1.113.552 0 .827-.371 1.308-1.856.443-1.344.863-2.022 1.786-2.022.912 0 1.607.717 1.607 1.69 0 .436-.059.615-.227 1.102zm-1.404 8.767c-.408.014-2.363-.013-2.807-.013-.563 0-1.067 0-1.067.513 0 .128.072.333.132.409.012.013.072.09.072.103 0 .025-.013.064-.072.064-.216 0-.743-.525-.743-1.076 0-.409.287-.742.539-.845.084-.025.192-.063.192-.179 0-.077-.084-.192-.168-.308a2.99 2.99 0 01-.563-1.689c0-.769.384-1.626 1.271-1.626 1.428 0 2.039 2.15 2.243 2.893.216.769.24.846.863.846 1.031 0 1.416-.615 1.416-1.204 0-.845-.564-.985-.732-1.023-.359-.09-.791-.18-.791-.679 0-.333.252-.602.588-.602.707 0 1.259 1.241 1.259 2.316-.001 1.012-.432 2.075-1.632 2.1zm-3.214-.998c.145.063.192.09 1.607.09.24 0 .444 0 .444-.27 0-.461-.804-2.381-1.932-2.381-.323 0-.875.218-.875 1.101.001.436.36 1.28.756 1.46zm-1.043 4.16c0-.09 0-.333.192-.333.191 0 .191.128.191.486 0 .153.012.423.264.589.168.115.313.141 1.991.141.384 0 2.135 0 2.339-.076.132-.039.228-.192.228-.397 0-.089-.107-.524-.107-.614 0-.077.06-.128.119-.128.097 0 .108.064.276.627.048.18.396 1.345.396 1.408 0 .039-.012.052-.036.064h-.527c-.636 0-.708 0-.708.128 0 .064.024.09.24.269.132.103 1.031.871 1.031 1.806 0 .474-.275.755-.684.755a.638.638 0 01-.636-.64c0-.27.132-.397.252-.5.072-.076.204-.191.204-.371 0-.319-.36-.845-.779-1.088-.517-.308-.792-.358-2.567-.358-1.091 0-1.295.038-1.295.935 0 .103-.036.269-.191.269-.192 0-.192-.23-.192-.333v-2.639zm5.661 9.228c0 .243-.12.269-.18.269-.181 0-.204-.217-.204-.345-.024-.513-.3-.576-.42-.576-.264 0-2.614 1.151-3.106 1.369-.156.064-.228.154-.228.218 0 .077.144.153.228.205.216.115 1.919.832 2.435 1.05.384.166.432.179.6.179.492 0 .492-.652.492-.896 0-.128.071-.23.191-.23.192 0 .192.166.192.307v2.228c0 .09 0 .282-.192.282-.191 0-.191-.18-.191-.32 0-.614-.696-.935-.899-1.024-.192-.089-3.778-1.612-3.874-1.664-1.476-.602-2.471-1.012-2.471-2.42 0-.819.527-.883.672-.883.348 0 .611.269.611.589 0 .346-.18.524-.336.679-.12.115-.168.204-.168.358 0 .652 1.031.985 1.331.985.12 0 .265-.038.384-.076.349-.129 3.61-1.652 3.91-1.806.288-.141.743-.436.815-.832.084-.409.084-.486.229-.486.18 0 .18.205.18.307v2.533zm3.166 18.293c-.012 0-1.895.832-2.027.832-.132 0-.216-.128-.216-.243s.036-.141.384-.409c1.439-1.088 1.607-2.228 1.607-2.766 0-2.01-2.303-3.047-4.378-3.047-2.782 0-3.873 1.741-3.873 3.265 0 .896.359 1.921 1.703 2.766.468.294.479.294.479.396s-.084.192-.192.192c-.107 0-.731-.32-1.211-.729-1.247-1.076-1.331-2.433-1.331-3.009 0-2.701 2.051-4.021 4.401-4.021 2.807 0 4.797 1.856 4.797 4.021 0 .32-.048.691-.144 1.088-.036.09-.191.691-.191.769 0 .103.035.256.119.346.192.204.216.23.216.332 0 .076-.071.179-.143.217zm-5.685 4.799c0-.167 0-.41-.384-.41-1.464 0-2.471 1.063-2.471 2.125 0 .589.323 1.152.672 1.549.06.077.467.372.467.487 0 .063-.06.128-.155.128-.264 0-1.499-.896-1.499-2.586 0-1.793 1.331-2.804 3.07-2.804 1.99 0 3.046 1.318 3.046 2.714 0 1.984-1.967 2.548-2.471 2.548-.216 0-.275-.129-.275-.385v-3.366zm.396 2.355c0 .281.06.422.348.422.456 0 1.68-.461 1.68-1.536 0-1.19-1.5-1.562-1.764-1.562s-.264.218-.264.333v2.343zm-3.538 3.725c0-.077 0-.308.18-.308.204 0 .204.205.204.371 0 .18.06.487.443.603.252.076 4.51.076 5.157.076.349 0 1.871 0 2.1-.076.071-.026.203-.115.203-.359 0-.051-.036-.346-.036-.422 0-.077.049-.115.097-.115.107 0 .228.422.288.627.023.09.335 1.165.335 1.178 0 .077-.035.077-.275.077-.947 0-5.565-.025-6.608-.025-1.271 0-1.667 0-1.703.665-.012.282-.012.41-.204.41-.18 0-.18-.167-.18-.32v-2.382zm3.142 6.195c0-.166 0-.409-.384-.409-1.464 0-2.471 1.063-2.471 2.125 0 .589.323 1.152.672 1.549.06.077.467.372.467.487 0 .063-.06.128-.155.128-.264 0-1.499-.896-1.499-2.586 0-1.793 1.331-2.804 3.07-2.804 1.99 0 3.046 1.318 3.046 2.714 0 1.984-1.967 2.548-2.471 2.548-.216 0-.275-.129-.275-.385v-3.367zm.396 2.357c0 .281.06.422.348.422.456 0 1.68-.461 1.68-1.536 0-1.19-1.5-1.562-1.764-1.562s-.264.218-.264.333v2.343zm-3.491 5.017c-.264-.23-.275-.256-.275-.308 0-.09.144-.09.18-.09.204 0 1.175.014 1.391.014.696 0 6.333 0 6.465-.026.432-.076.516-.422.516-.652 0-.039-.023-.243-.023-.282 0-.102.048-.141.096-.141.084 0 .107.052.228.513.12.46.348 1.318.348 1.382a.12.12 0 01-.06.103c-.036.025-.12.025-2.039.025h-1.271c-.071.014-.216.039-.216.167 0 .077.204.524.216.537.229.5.288.935.288 1.191 0 1.216-1.091 2.458-2.95 2.458-1.691 0-3.166-1.076-3.166-2.51 0-.589.264-1.178.491-1.498.084-.115.168-.23.168-.384s-.11-.243-.387-.499zm4.894.947c-.384-.396-.66-.41-2.375-.41-.695 0-1.211-.013-1.619.23-.504.295-.659.896-.659 1.28 0 1.102 1.115 1.767 2.519 1.767 1.427 0 2.566-.665 2.566-1.767a1.7 1.7 0 00-.432-1.1zm-4.941 6.387c0-.09 0-.333.192-.333.191 0 .191.128.191.486 0 .153.012.423.264.589.168.115.313.141 1.991.141.384 0 2.135 0 2.339-.076.132-.039.228-.192.228-.397 0-.089-.107-.524-.107-.614 0-.077.06-.128.119-.128.097 0 .108.064.276.627.048.18.396 1.345.396 1.408 0 .039-.012.052-.036.064h-.527c-.636 0-.708 0-.708.128 0 .064.024.09.24.269.132.103 1.031.871 1.031 1.806 0 .474-.275.755-.684.755a.638.638 0 01-.636-.64c0-.27.132-.397.252-.5.072-.076.204-.191.204-.371 0-.319-.36-.845-.779-1.088-.517-.308-.792-.358-2.567-.358-1.091 0-1.295.038-1.295.935 0 .103-.036.269-.191.269-.192 0-.192-.23-.192-.333v-2.639zm4.257 11.482c-.408.014-2.363-.013-2.807-.013-.563 0-1.067 0-1.067.513 0 .128.072.333.132.409.012.013.072.09.072.103 0 .025-.013.064-.072.064-.216 0-.743-.525-.743-1.076 0-.409.287-.742.539-.845.084-.025.192-.063.192-.179 0-.077-.084-.192-.168-.308a2.99 2.99 0 01-.563-1.689c0-.769.384-1.626 1.271-1.626 1.428 0 2.039 2.15 2.243 2.893.216.769.24.846.863.846 1.031 0 1.416-.615 1.416-1.204 0-.845-.564-.985-.732-1.023-.359-.09-.791-.18-.791-.679 0-.333.252-.602.588-.602.707 0 1.259 1.241 1.259 2.316-.001 1.012-.432 2.074-1.632 2.1zm-3.214-.999c.145.063.192.09 1.607.09.24 0 .444 0 .444-.27 0-.461-.804-2.381-1.932-2.381-.323 0-.875.218-.875 1.101.001.436.36 1.281.756 1.46zm4.234 4.148c0-.142 0-.346.191-.346.156 0 .168.063.216.435.024.205.264 1.28 1.799 1.28.108 0 .276 0 .276.167 0 .205-.18.205-.252.205h-1.547c-.108 0-.3.038-.3.319v1.357c0 .128-.024.358-.192.358-.071 0-.191-.077-.191-.346v-1.37c0-.038-.013-.23-.156-.294-.132-.052-1.476-.052-1.715-.052-.36 0-2.279 0-2.446.039-.672.166-.672.755-.672.883 0 .27.096.576.3.858.048.076.323.371.323.46 0 .052-.048.077-.096.077-.216 0-1.043-.794-1.043-1.869 0-1.344.947-1.344 2.158-1.344.036 0 2.639.025 3.047 0 .06 0 .3-.013.3-.32v-.497zm-5.277 5.861c0-.115 0-.294.192-.294.18 0 .191.153.203.396 0 .167.072.397.336.513.204.103 1.955.103 2.387.103.336 0 1.728-.014 1.896-.077.144-.064.203-.205.203-.358 0-.064-.036-.385-.036-.397 0-.051.024-.115.108-.115s.108.064.276.641c.048.166.323.96.323 1.063 0 .128-.107.128-.228.128-.54 0-3.238-.013-3.851-.013-.875 0-1.379 0-1.415.589-.012.256-.023.409-.203.409-.192 0-.192-.217-.192-.307v-2.281zm8.275.41c.384 0 .695.333.684.742 0 .41-.3.743-.684.743s-.695-.333-.695-.743c0-.421.311-.742.695-.742zm-2.387 6.874c0 1.639-1.331 2.83-3.059 2.83-1.727 0-3.058-1.191-3.058-2.83s1.343-2.829 3.058-2.829c1.704 0 3.059 1.165 3.059 2.829zm-5.793 0c0 1.076 1.296 1.741 2.734 1.741 1.464 0 2.735-.679 2.735-1.741 0-.973-1.116-1.741-2.735-1.741-1.414 0-2.734.654-2.734 1.741zm-.095 8.693c0-.23.168-.23.192-.23.167 0 .191.166.191.23.036.333.048.461.252.614.191.128.396.128 2.326.128 1.14 0 1.584 0 1.968-.269.407-.281.443-.691.443-.845 0-.41-.204-.947-.54-1.306-.371-.385-.552-.385-1.931-.385-.312 0-1.775 0-1.991.039-.384.076-.516.294-.527.627-.012.128-.012.346-.191.346-.024 0-.192 0-.192-.256v-2.382c0-.256.168-.256.18-.256.204 0 .204.154.204.346 0 .32.191.513.359.576.276.103 1.871.103 2.291.103 1.943 0 2.243-.013 2.243-.576 0-.051-.048-.32-.048-.371s.012-.128.107-.128.108.051.204.512c.048.205.348 1.28.348 1.319 0 .128-.048.128-.527.128-.168 0-.264 0-.264.089 0 .09.312.448.359.525.312.512.432.96.432 1.434 0 .922-.468 1.306-.804 1.434-.468.18-.672.18-2.53.18-.36 0-1.595 0-1.812.09-.084.025-.348.153-.359.576 0 .204-.012.358-.204.358-.18 0-.18-.154-.18-.257v-2.393zm8.743 13.453c0 .141 0 .333-.204.333-.191 0-.191-.192-.191-.397 0-.204-.013-.832-.504-.832-.144 0-.3.038-.432.09-1.499.512-3.526 1.268-5.277 1.92-.288.103-.432.167-.432.282 0 .076.132.153.168.166.023.013 1.727.666 1.883.729 3.49 1.332 3.874 1.485 4.126 1.485.468 0 .468-.537.468-1.063 0-.064 0-.269.191-.269.204 0 .204.191.204.346v2.483c0 .141 0 .333-.204.333-.191 0-.191-.192-.191-.308 0-.832-.756-1.127-1.583-1.446-1.751-.666-4.558-1.729-6.321-2.395-.6-.23-.671-.256-.671-.409 0-.154.048-.167.503-.333 1.943-.729 5.062-1.844 7.005-2.561.888-.32 1.067-.589 1.067-1.242 0-.128.06-.243.191-.243.204 0 .204.192.204.295v3.036zm-2.855 10.47c0 1.639-1.331 2.83-3.059 2.83-1.727 0-3.058-1.191-3.058-2.83s1.343-2.829 3.058-2.829c1.704 0 3.059 1.165 3.059 2.829zm-5.793 0c0 1.076 1.296 1.741 2.734 1.741 1.464 0 2.735-.679 2.735-1.741 0-.973-1.116-1.741-2.735-1.741-1.414-.001-2.734.653-2.734 1.741zm-.095 9.729c0-.141.096-.243.24-.243.275-.013.359-.013.359-.115 0-.077-.24-.333-.275-.397-.108-.166-.552-.793-.552-1.562 0-.371.119-1.729 1.858-1.817.252-.014 1.476.013 1.751.013.288 0 1.583 0 1.739-.064.132-.051.156-.192.156-.32 0-.051-.024-.319-.024-.384 0-.09.061-.128.108-.128.096 0 .107.051.228.512.108.385.3 1.14.3 1.165a.114.114 0 01-.096.115c-.012 0-3.118.013-3.466.013-.708 0-1.02 0-1.332.128-.491.205-.707.666-.707 1.114 0 .551.432 1.357.875 1.588.3.166 2.135.179 2.555.179 1.188 0 1.56 0 1.56-.486 0-.064-.036-.371-.036-.436 0-.128.072-.153.096-.153.132 0 .156.09.348.935.048.218.204.845.204.896 0 .051-.048.102-.096.115-.096.025-2.039 0-2.423 0-.312 0-1.847.025-2.194.025-.252 0-.78 0-.78.64 0 .154 0 .346-.203.346-.084 0-.192-.063-.192-.218v-1.461zm-.228 6.439c0-1.19.707-2.663 2.926-2.663 1.848 0 3.19 1.114 3.19 2.958 0 1.023-.479 1.984-1.14 1.984-.407 0-.623-.333-.623-.691 0-.525.42-.576.72-.602.72-.077.72-.807.72-.871 0-.922-1.104-1.702-2.675-1.702-1.644 0-2.603.87-2.603 1.945 0 .614.323 1.293.815 1.716.144.115.204.166.204.269 0 .052-.036.128-.145.128-.19-.001-1.389-.883-1.389-2.471zm.228 5.055c0-.103 0-.346.192-.346.191 0 .191.204.191.319.012.436.3.551.359.576.24.09.756.09 5.397.09.359 0 1.703 0 1.919-.076a.507.507 0 00.288-.487c0-.051-.048-.319-.048-.371 0-.063.048-.128.119-.128.084 0 .108.077.145.23.048.18.407 1.536.407 1.601 0 .051-.035.115-.132.115-.084.013-2.746 0-3.262 0-.252 0-.408 0-.408.141 0 .09.276.448.324.524.12.192.396.718.396 1.383 0 .884-.407 1.318-.875 1.473-.468.153-.517.153-2.627.153-.359 0-1.439 0-1.655.09-.072.025-.348.166-.348.576 0 .243 0 .486-.204.486-.168 0-.18-.23-.18-.384v-2.458c0-.115 0-.346.192-.346.071 0 .144.051.167.141.024.077.036.524.072.614.144.397.312.397 2.039.397 1.523 0 2.075 0 2.459-.27.396-.269.443-.679.443-.845 0-.627-.468-1.434-.96-1.601-.228-.076-.251-.089-2.542-.089-1.02 0-1.487 0-1.487.665 0 .18 0 .385-.204.385-.18 0-.18-.23-.18-.372v-2.186zm3.142 9.781c0-.167 0-.41-.384-.41-1.464 0-2.471 1.063-2.471 2.125 0 .589.323 1.152.672 1.549.06.077.467.372.467.487 0 .063-.06.128-.155.128-.264 0-1.499-.896-1.499-2.586 0-1.793 1.331-2.804 3.07-2.804 1.99 0 3.046 1.318 3.046 2.714 0 1.984-1.967 2.548-2.471 2.548-.216 0-.275-.129-.275-.385v-3.366zm.396 2.355c0 .281.06.422.348.422.456 0 1.68-.461 1.68-1.536 0-1.19-1.5-1.562-1.764-1.562s-.264.218-.264.333v2.343zm-3.538 3.955c0-.09 0-.333.192-.333.191 0 .191.128.191.486 0 .153.012.423.264.589.168.115.313.141 1.991.141.384 0 2.135 0 2.339-.076.132-.039.228-.192.228-.397 0-.089-.107-.524-.107-.614 0-.077.06-.128.119-.128.097 0 .108.063.276.627.048.18.396 1.345.396 1.408 0 .039-.012.052-.036.064h-.527c-.636 0-.708 0-.708.128 0 .064.024.09.24.269.132.103 1.031.871 1.031 1.806 0 .474-.275.755-.684.755a.638.638 0 01-.636-.64c0-.27.132-.397.252-.5.072-.076.204-.191.204-.371 0-.319-.36-.845-.779-1.088-.517-.308-.792-.358-2.567-.358-1.091 0-1.295.038-1.295.935 0 .103-.036.269-.191.269-.192 0-.192-.23-.192-.333v-2.639z"/></g></g></g></svg>