<svg version="1.1" baseProfile="tiny" id="レイヤー_1" xmlns="http://www.w3.org/2000/svg" x="0" y="0" width="181" height="401" viewBox="0 0 181 401" xml:space="preserve"><metadata><?xpacket begin="﻿" id="W5M0MpCehiHzreSzNTczkc9d"?><x:xmpmeta xmlns:x="adobe:ns:meta/" x:xmptk="Adobe XMP Core 5.3-c011 66.145661, 2012/02/06-14:56:27"><rdf:RDF xmlns:rdf="http://www.w3.org/1999/02/22-rdf-syntax-ns#"><rdf:Description xmlns:dc="http://purl.org/dc/elements/1.1/"><dc:format>image/svg+xml</dc:format><dc:title><rdf:Alt><rdf:li xml:lang="x-default">Web</rdf:li></rdf:Alt></dc:title></rdf:Description><rdf:Description xmlns:xmp="http://ns.adobe.com/xap/1.0/" xmlns:xmpGImg="http://ns.adobe.com/xap/1.0/g/img/"><xmp:CreatorTool>Adobe Illustrator CS6 (Windows)</xmp:CreatorTool><xmp:CreateDate>2017-07-11T14:07:19+09:00</xmp:CreateDate><xmp:ModifyDate>2017-07-11T14:07:20+09:00</xmp:ModifyDate><xmp:MetadataDate>2017-07-11T14:07:20+09:00</xmp:MetadataDate><xmp:Thumbnails><rdf:Alt><rdf:li rdf:parseType="Resource"><xmpGImg:width>116</xmpGImg:width><xmpGImg:height>256</xmpGImg:height><xmpGImg:format>JPEG</xmpGImg:format><xmpGImg:image>/9j/4AAQSkZJRgABAgEASABIAAD/7QAsUGhvdG9zaG9wIDMuMAA4QklNA+0AAAAAABAASAAAAAEA AQBIAAAAAQAB/+4ADkFkb2JlAGTAAAAAAf/bAIQABgQEBAUEBgUFBgkGBQYJCwgGBggLDAoKCwoK DBAMDAwMDAwQDA4PEA8ODBMTFBQTExwbGxscHx8fHx8fHx8fHwEHBwcNDA0YEBAYGhURFRofHx8f Hx8fHx8fHx8fHx8fHx8fHx8fHx8fHx8fHx8fHx8fHx8fHx8fHx8fHx8fHx8f/8AAEQgBAAB0AwER AAIRAQMRAf/EAaIAAAAHAQEBAQEAAAAAAAAAAAQFAwIGAQAHCAkKCwEAAgIDAQEBAQEAAAAAAAAA AQACAwQFBgcICQoLEAACAQMDAgQCBgcDBAIGAnMBAgMRBAAFIRIxQVEGE2EicYEUMpGhBxWxQiPB UtHhMxZi8CRygvElQzRTkqKyY3PCNUQnk6OzNhdUZHTD0uIIJoMJChgZhJRFRqS0VtNVKBry4/PE 1OT0ZXWFlaW1xdXl9WZ2hpamtsbW5vY3R1dnd4eXp7fH1+f3OEhYaHiImKi4yNjo+Ck5SVlpeYmZ qbnJ2en5KjpKWmp6ipqqusra6voRAAICAQIDBQUEBQYECAMDbQEAAhEDBCESMUEFURNhIgZxgZEy obHwFMHR4SNCFVJicvEzJDRDghaSUyWiY7LCB3PSNeJEgxdUkwgJChgZJjZFGidkdFU38qOzwygp 0+PzhJSktMTU5PRldYWVpbXF1eX1RlZmdoaWprbG1ub2R1dnd4eXp7fH1+f3OEhYaHiImKi4yNjo +DlJWWl5iZmpucnZ6fkqOkpaanqKmqq6ytrq+v/aAAwDAQACEQMRAD8A7D5C8heU73ynpU02lWRc 2VlU/UrJiS1lC7Es8LMxZmJJJyIDOUjbIP8AlWnkz/q02X/SDYf9k+GkcRd/yrTyZ/1abL/pBsP+ yfGl4i7/AJVp5M/6tNl/0g2H/ZPjS8Rd/wAq08mf9Wmy/wCkGw/7J8aXiLv+VaeTP+rTZf8ASDYf 9k+NLxF3/KtPJn/Vpsv+kGw/7J8aXiLv+VaeTP8Aq02X/SDYf9k+NLxF3/KtPJn/AFabL/pBsP8A snxpeIu/5Vp5M/6tNl/0g2H/AGT40vEXf8q08mf9Wmy/6QbD/snxpeIu/wCVaeTP+rTZf9INh/2T 40vEXf8AKtPJn/Vpsv8ApBsP+yfGl4i7/lWnkz/q02X/AEg2H/ZPjS8RYJ/hrQP8e/o79G2f1On9 x9VtvT5ev6PP0vT9Lnw25cMjW7OzTO/y0/5QzSf+YKx/6gLfJBhLmyjCxdirsVdirsVdirsVdirs VdirsVdirsVeX/8AlT/8/wDlryPVs6Mo/LT/AJQzSf8AmCsf+oC3whjLmyjCxdirsVdirsVdirsV dirsVaLqGCEjmQSFruQKVNPaoxVvFXYq7FXl/wD5U/8Az/5a8j1bOjKPy0/5QzSf+YKx/wCoC3wh jLmyjCxdiqyeR44XkSJpmUVESFQzHwHNkX7yMVeIfl35l83Ta/5dtdY/St7c3Fl9ca1WeN4vQuwr RXdxwZVEaJyAV2JLbKCwGQBbZAU9yybU7FXYq86/LXRfLVzY6VcW2o3l9qWhoodze6pJZyEwy2om igvX9IxyLzKmNeINQrEDKccRt5e9vyyO/n7mKfnLrWkX3n3yXZW9xG1xaSasl6kg4CNRboDzMsci 8S6im1CaU7ZOXNjAbFryjqHlDSfNKa3qtxZzc7ZE0ZrX0rucPI/GV4o7a0WbgUlXk4kK0O4GxxCm yHuIIIBHQ7jJtTsVdiry/wD8qf8A5/8ALXkerZ0ZR+Wn/KGaT/zBWP8A1AW+EMZc2UYWLsVQ2qQW dxpt3Bep6lnJC63CVIJjKnkAVII28DXFQxrTdB/LNYdAk07TbG0W4pdaA0MItncmITHgVCMS0XxM jfaAJINDgoMiSy7CxdirsVee/lJYyW0d850lNNjnhs3EiRX8QZyJS8KLfnkscPIcFjAReRplOEeT dmPn+PghfMdj+ZOp/mXpeo6Votnb6f5ehvYIdSv7z93dDUEg+JIYY3lUxGGhVqV/mGWG7YiqSnS/ JPmzyd5vi1htGt/OEVy7R2l5bObWfR0ndjJDbQXc00X1b94aemyuASD8NBgqkmQI7nsWTanYq7FX l/8A5U//AD/5a8j1bOjKPy0/5QzSf+YKx/6gLfCGMubKMLF2KrZI0kjaNxyRwVZT3BFCMVY75a8t aBYaZaaEt4dZfy5ccoJLyVbi5tZGRmhVyN1ZLe4CpUV4EHvXAAyJPNkmFi7FULq1k99pV5ZJIYXu YJIVlFQVMiFQ1VIO1exwEWEg0WCflHdQyzatFZ+YLjXdOhjsxC14t2JlkKy+pLyuqh4pgF9Mx0Wi 9K1Z6sJ5723Zhy2pT/Nj8wfM/ljQ9Zl02wQSW1vzs9Q430tHYAKWC2ElrXmacWuPmRXLJFhCIK6y /MLzizaNaS6GhlupYYb67kj1mKNQy0eQl9KjijJb7PJ+NTSoG+No4Q9HyTB2KuxV5f8A+VP/AM/+ WvI9Wzoyj8tP+UM0n/mCsf8AqAt8IYy5sowsXYqp3VzBa28lxO3CGJS7tQmgHsKk/IYq888vT6xo nma41jVbK5Wx87XAfhHG8rWM8A9C0FyiBmT6xaJHzP2Y3Ti3WuRDM7j3PR8kwdirsVYj5Ksb221f WGutGt9H9SO0WJLdC4eOH1YY63dQsvGNF4xhF9MH/KyuA3O1NkzsN7YL+Z/k++1/XU8u6XDpt3Pd yjVNUT6nMrxWkD+qiTz/AFsIWu5oxEoCJyHNqgKcJCYSrdj2leWJ/Nv5gaagNla6bPoaajcaTfaT KE5Q6iYmSS1lvJOE3wsvqhvs9AdiBVlkTQfRCqqqFUBVUUAGwAGWNDeKuxV5f/5U/wDz/wCWvI9W zoyj8tP+UM0n/mCsf+oC3whjLmyjCxdiqG1S5uLXTbq5toDdXMMTvBbL1kdVJVBT+Y7YqHnvkrzL 5vbXbnS9Xvvr0kL2UMxGnXkYDNac5nDCGNYRK4LAy0XsOuRBbJAU9LyTW7FVO4uLe2gkuLiVIbeF TJNNIwRERRVmZjQAAdScVAYZ5P0ZLLWHsxpum2EdlbW031a2nknvIZHE0cSys3UCNpFBPWpIJyqA ots5WOrK2XSNKhurxxBYwu5nvLluESlzQGSVzQV6CrHLWtJfLVj+Xkut6nrvlv8AR0+r3wQape2M kcsjeHP02bjyIqenI7mpwCkm+RZNhYuxV2KvL/8Ayp/+f/LXkerZ0ZR+Wn/KGaT/AMwVj/1AW+EM Zc2UYWLsVU7mATwPCXeMOKc42KOPcMOmKsI8tJ5V1bULu/srzVLe5nvBCxu5Z7RryXThRhHG/pu6 R0KOAo6EMMiGZsM7yTB2KtOiOjI6hkYEMpFQQdiCDiqR+XvK2g6HfahJpAEIuxH9YtFKsqOrSuX/ AJ6yGY15NTYUpkIxA5M5TJG7BPNHmnRYfOPmC41spfXHlqOyh8seXyVYz319GXWWOE7yTSOwiRv2 FViKVbCSkDZZ5l0aPy3Zflm0fpp5str7StGe5hAElxamIRX0T8ac4REhk32UgHE9FBu+563kmt2K uxV5f/5U/wDz/wCWvI9Wzoyj8tP+UM0n/mCsf+oC3whjLmyjCxdirTlQjFzxUA8mrSg7mvbFXm35 fflpaaD5o1PU7q1sJ2eSSTQbuO4luLiG0kPEARzRj02kFWllEjtI7MSabZEBslKw9KyTW7FXYq83 8h2nlW8k0yXy0+ny3miu6a5f26SLcXEUsMqRMzsiNL9Yk4zMzsy8lNCxAbKMYBqujfkJF31ZldeU /Ldzr0HmGfTbeTXbWMw22pPGrTRoa7Kx8ORp8z45dTTZqkFpvkbT7bXR5g1C6udY1uNGitbu9ZCt skn21toYljii5DYsF5kbFjjSTLoyPCxdirsVeX/+VP8A8/8AlryPVs6Mo/LT/lDNJ/5grH/qAt8I Yy5sowsXYqx78xXSPyD5ikeX0VTTrpi/Lh9mFjxLdg32TTffbfAeTKPN4D5F0+4bzFpM0Sh5frlo sUcIW6Bs454l9OR4wUEcUfOWNz/ksGNRWAbpHZ9P5Y47sVdirzr8sL21vZJJNKuNLf0o7aHWPqcF 6hZIrdorYQSXTKDEOPwMqlSK9zXKcRvlTflFc7Wfm5551jRV07TdAtdSk1qa/sSjW1rytZYZbhYp IJLqVDAhkUlRVgQ1OmWSLXCN82Q+aPO8mgRWUg0S/wBVFxLHDeLpohne0aUgL6sfqLIRU9UUjbcj apJQI2yfCxdirsVeX/8AlT/8/wDlryPVs6Mo/LT/AJQzSf8AmCsf+oC3whjLmyjCxdiq2SKOWNo5 UDxsKMjAEEe4OKvL/J/n3zLq8vkme9S1X/EFvzvmjhiV6fUXuQsbJeXDqPUAPxRDbrxO2RBbJRAt 6lkmt2KuxV51+XD6xNqNxIuiR6HbrFaJqJms7qCWVooZIkt4Xmfiy23BPjUMhDUXxynHd8qb8tVz tZ+YHkHzx5o8xaYg11E8mLeW89/o8UZt5+EA5lvrUZMr8nSgVSlOVd+OWEEtcZADzUfLHkPX7fzl puoS6PpPl7TdCS8iWXSnJk1IXXwxiVBHFwjQAOwkZ2MgB98QEmQp6dkmt2KuxV5f/wCVP/z/AOWv I9Wzoyj8tP8AlDNJ/wCYKx/6gLfCGMubKMLF2KuxV595Y8seTtPn8rWlj5iF3NpNsH0m0Z7ESTwG 1e3WSkMUUrj0yx5V7b5EBmSd3oOSYOxV2KsB/KvUvK2oi8uPLtzfS2qWtnBLBe3D3YheJpwFEjzX HFypHNFIAHE98pxEHk3ZQRzdqv5oLp3n628vzWlylhewNBZXMlhexibVBMVFvHOyCJ0MQLlwOIA5 cqHay92AhtaF/wCVp68PI2h+bToNv9W1qawjFuL5jJGt/MkStvbhTTmNuWN7LwC6ekZJg7FXYq8v /wDKn/5/8teR6tnRlH5af8oZpP8AzBWP/UBb4QxlzZRhYuxVp1LIyhihYEBlpUV7itRirF/K2lea NF07Q9Ikt7CaysLSO1u70TSpOPSTgBFF6Lq4bipq0o+k74AyJBZThYuxV2KsN8nXtzPcRTy3mqvB LbwxJYXWmmytopWWWRuANvG6oixcVq5AqqlmZlyqB9/ybZj3fNjGp6R5tuPzsivU1S342OmpKlnP FWGGwuLtobj0H3dLkxxh/V6E/ARwyfVAI4WHeRNIspXsNN1zWLxvJumWd5rekwy3Lqhs9J1RVsp5 qGjr6CczwCrQggDY5EM5H5vooEEVG4OWNDsVdiry/wD8qf8A5/8ALXkerZ0ZR+Wn/KGaT/zBWP8A 1AW+EMZc2UYWLsVSvzVJ6flvU5frBtPTtpH+tCRoTFxUn1A6q5HGlfsmvTAUjm8L8kz6wsnl25v0 ubb9J6hDenT55Z5riZ0CwmUxQiOeX04wC3L9ytTJI7tSJYBuk+iMsaHYq7FXnX5Q2Qs11CL6zczm SGznAurSe0dkl9YrPIZ5ZzLPLv6rrQfCBTbKcIpvzG2V6p5O8u6pfz31/bGae5to7K4/eyqkltFI 8oieNGVGUtI3IEfENjUZbTSJFB+aPy18j+aWtG13So7trFGitSryw8YnoGj/AHLx8kNPstUYkApE iOTJIoooYkiiQJFGoSNFFAqqKAADsBhYrsVdiry//wAqf/n/AMteR6tnRlH5af8AKGaT/wAwVj/1 AW+EMZc2UYWLsVWyxRSrwlRZEqrcWAIqpDKaHuGAIxVhnkzX9JuvNXmHRrHSrGwbSWjhlurWeJ5Z 2Sq8ZIkRHHpJwqSWALca8lYAAs5DZmuFg7FXYqluieWvLuhRPFoumWumpLx9UWsMcPPgKKXKAFiK 9WyMYgcgylInmWP3Ou3Fr+aq2Fxei30ltC+sNDK4WN7j68sSOnLYMofi1OvNa9sPVa2RXmjW/MOk +YvLgs7dr7SNVujp+pQpEzvblo3kjuhIp+FAU4ycwRSlKHqlQAQyjCxdirsVeX/+VP8A8/8AlryP Vs6Mo/LT/lDNJ/5grH/qAt8IYy5sowsXYqpXV1a2drNd3cqW9rbo0s88rBEjjQFmd2NAqqBUk4q8 20HTfy+sPOS30HmmN102tppekSSW0cMEuoBOaxTcEluDMVU0Mj/GSWq5yIpsJNcnp2Sa3Yq7FXYq x7zX5B8s+abnSrrV7cvd6LcpeafcxuY5EdHV+PJeqM0a8l9hgItkJEMhwsXYq7FXYq8v/wDKn/5/ 8teR6tnRlH5af8oZpP8AzBWP/UBb4QxlzZRhYuxVCavB6+mXMXpxS8oz+7uIjPE1N6NEvxP06DFI eGfll5S8zWXnsXUmm3NmkLXf1K9v4JWgME9xG8yIqJGwkKREo8zR05cVSQDlkAN22RFPfsm0uxV2 KuxV2KuxV2KuxV2KvL//ACp/+f8Ay15Hq2dGUflp/wAoZpP/ADBWP/UBb4QxlzZRhYuxVJfPF9dW HkvX760mNtd2mm3c9vcKAxjkjgdkcKwIPFhWhGApjzeR+UfN/m+//MB7C5127/RT3VFnmtj6N1WS trHBwiT0eUFpcc9kViN6mtYg7tpAp7tk2l2KuxV2KuxV2KuxV2KuxV5f/wCVP/z/AOWvI9Wzoyj8 tP8AlDNJ/wCYKx/6gLfCGMubKMLF2KqdxbW9zC0FxGssL05xuKqaGtCD1G2KpPb+SPKtvqMGowaf Gl3bBRA4L8U4CQKQnLhyHryb0r8WCk8RTzCh2KuxV2KuxV2KuxV2KuxV5f8A+VP/AM/+WvI9Wzoy j8tP+UM0n/mCsf8AqAt8IYy5sowsXYq7FXYq7FXYq7FXYq7FXYq7FXYq7FXl/wD5U/8Az/5a8j1b OjKPy0/5QzSf+YKx/wCoC3whjLmyjCxdirsVdirsVdirsVdirsVdirsVdirsVeX/APlT/wDP/lry PVs6Mo/LT/lDNJ/5grH/AKgLfCGMubKMLF2KuxV2KuxV2KuxV2KuxV2KuxV2KuxV5f8A+VP/AM/+ WvI9Wzoyj8tP+UM0n/mCsf8AqAt8IYy5sowsXYq7FXYq7FXYq7FXYq7FXYq7FXYq7FXl/wD5U/8A z/5a8j1bOjKPy0/5QzSf+YKx/wCoC3whjLmyjCxdirsVdirsVdirsVdirsVdirsVdirsVeX/APlT /wDP/lryPVs6Mo/LT/lDNJ/5grH/AKgLfCGMubKMLF2KuxV2KuxV2KuxV2KuxV2KuxV2KuxV5f8A +VP/AM/+WvI9Wzoyj8tP+UM0n/mCsf8AqAt8IYy5sowsXYq7FXYq7FXYq7FXYq7FXYq7FXYq7FXl /wD5U/8Az/5a8j1bOjKPy0/5QzSf+YKx/wCoC3whjLmyjCxdirsVdirsVdirsVdirsVdirsVdirs VeX/APlT/wDP/lryPVs6Mo/LT/lDNJ/5grH/AKgLfCGMubKMLF2KuxV2KuxV2KuxV2KuxV2KuxV2 KuxV5f8A+VP/AM/+WvI9Wzoyj8tP+UM0n/mCsf8AqAt8IYy5sowsXYq7FXYq7FXYq7FXYq7FXYq7 FXYq7FXl/wD5U/8Az/5a8j1bOjKPy0/5QzSf+YKx/wCoC3whjLmyjCxdirsVdirsVdirsVdirsVd irsVdirsVeX/APlT/wDP/lryPVs6IjyF598p2XlPSoZtVsg4srKo+u2SkFbKFGBV5lZSrKQQRiCi UTbIP+Vl+TP+rtZf9J1h/wBlGG0cJd/ysvyZ/wBXay/6TrD/ALKMbXhLv+Vl+TP+rtZf9J1h/wBl GNrwl3/Ky/Jn/V2sv+k6w/7KMbXhLv8AlZfkz/q7WX/SdYf9lGNrwl3/ACsvyZ/1drL/AKTrD/so xteEu/5WX5M/6u1l/wBJ1h/2UY2vCXf8rL8mf9Xay/6TrD/soxteEu/5WX5M/wCrtZf9J1h/2UY2 vCXf8rL8mf8AV2sv+k6w/wCyjG14S7/lZfkz/q7WX/SdYf8AZRja8Jd/ysvyZ/1drL/pOsP+yjG1 4S7/AJWX5M/6u1l/0nWH/ZRja8JYJ/iXQP8AHv6R/SVn9Tp/f/Wrb0+Xr+tw9X1PS58N+PPI3uzo 0//Z</xmpGImg:image></rdf:li></rdf:Alt></xmp:Thumbnails></rdf:Description><rdf:Description xmlns:xmpMM="http://ns.adobe.com/xap/1.0/mm/" xmlns:stRef="http://ns.adobe.com/xap/1.0/sType/ResourceRef#" xmlns:stEvt="http://ns.adobe.com/xap/1.0/sType/ResourceEvent#"><xmpMM:RenditionClass>proof:pdf</xmpMM:RenditionClass><xmpMM:OriginalDocumentID>uuid:65E6390686CF11DBA6E2D887CEACB407</xmpMM:OriginalDocumentID><xmpMM:DocumentID>xmp.did:7ACAAD1FDC65E711A588CAE2881F51E6</xmpMM:DocumentID><xmpMM:InstanceID>xmp.iid:7ACAAD1FDC65E711A588CAE2881F51E6</xmpMM:InstanceID><xmpMM:DerivedFrom rdf:parseType="Resource"><stRef:instanceID>uuid:c5b5eddb-66da-6741-a40d-cc810f9d042d</stRef:instanceID><stRef:documentID>xmp.did:FB05051EC465E111835FF2FC000FBA2B</stRef:documentID><stRef:originalDocumentID>uuid:65E6390686CF11DBA6E2D887CEACB407</stRef:originalDocumentID><stRef:renditionClass>proof:pdf</stRef:renditionClass></xmpMM:DerivedFrom><xmpMM:History><rdf:Seq><rdf:li rdf:parseType="Resource"><stEvt:action>saved</stEvt:action><stEvt:instanceID>xmp.iid:7ACAAD1FDC65E711A588CAE2881F51E6</stEvt:instanceID><stEvt:when>2017-07-11T14:07:20+09:00</stEvt:when><stEvt:softwareAgent>Adobe Illustrator CS6 (Windows)</stEvt:softwareAgent><stEvt:changed>/</stEvt:changed></rdf:li></rdf:Seq></xmpMM:History></rdf:Description><rdf:Description xmlns:illustrator="http://ns.adobe.com/illustrator/1.0/"><illustrator:StartupProfile>Web</illustrator:StartupProfile></rdf:Description><rdf:Description xmlns:xmpTPg="http://ns.adobe.com/xap/1.0/t/pg/" xmlns:stDim="http://ns.adobe.com/xap/1.0/sType/Dimensions#" xmlns:xmpG="http://ns.adobe.com/xap/1.0/g/"><xmpTPg:NPages>1</xmpTPg:NPages><xmpTPg:HasVisibleTransparency>False</xmpTPg:HasVisibleTransparency><xmpTPg:HasVisibleOverprint>False</xmpTPg:HasVisibleOverprint><xmpTPg:MaxPageSize rdf:parseType="Resource"><stDim:w>181.000000</stDim:w><stDim:h>401.000000</stDim:h><stDim:unit>Pixels</stDim:unit></xmpTPg:MaxPageSize><xmpTPg:PlateNames><rdf:Seq><rdf:li>Cyan</rdf:li><rdf:li>Magenta</rdf:li><rdf:li>Yellow</rdf:li><rdf:li>Black</rdf:li></rdf:Seq></xmpTPg:PlateNames><xmpTPg:SwatchGroups><rdf:Seq><rdf:li rdf:parseType="Resource"><xmpG:groupName>初期設定のスウォッチグループ</xmpG:groupName><xmpG:groupType>0</xmpG:groupType><xmpG:Colorants><rdf:Seq><rdf:li rdf:parseType="Resource"><xmpG:swatchName>ホワイト</xmpG:swatchName><xmpG:mode>RGB</xmpG:mode><xmpG:type>PROCESS</xmpG:type><xmpG:red>255</xmpG:red><xmpG:green>255</xmpG:green><xmpG:blue>255</xmpG:blue></rdf:li><rdf:li rdf:parseType="Resource"><xmpG:swatchName>ブラック</xmpG:swatchName><xmpG:mode>RGB</xmpG:mode><xmpG:type>PROCESS</xmpG:type><xmpG:red>0</xmpG:red><xmpG:green>0</xmpG:green><xmpG:blue>0</xmpG:blue></rdf:li><rdf:li rdf:parseType="Resource"><xmpG:swatchName>RGB レッド</xmpG:swatchName><xmpG:mode>RGB</xmpG:mode><xmpG:type>PROCESS</xmpG:type><xmpG:red>255</xmpG:red><xmpG:green>0</xmpG:green><xmpG:blue>0</xmpG:blue></rdf:li><rdf:li rdf:parseType="Resource"><xmpG:swatchName>RGB イエロー</xmpG:swatchName><xmpG:mode>RGB</xmpG:mode><xmpG:type>PROCESS</xmpG:type><xmpG:red>255</xmpG:red><xmpG:green>255</xmpG:green><xmpG:blue>0</xmpG:blue></rdf:li><rdf:li rdf:parseType="Resource"><xmpG:swatchName>RGB グリーン</xmpG:swatchName><xmpG:mode>RGB</xmpG:mode><xmpG:type>PROCESS</xmpG:type><xmpG:red>0</xmpG:red><xmpG:green>255</xmpG:green><xmpG:blue>0</xmpG:blue></rdf:li><rdf:li rdf:parseType="Resource"><xmpG:swatchName>RGB シアン</xmpG:swatchName><xmpG:mode>RGB</xmpG:mode><xmpG:type>PROCESS</xmpG:type><xmpG:red>0</xmpG:red><xmpG:green>255</xmpG:green><xmpG:blue>255</xmpG:blue></rdf:li><rdf:li rdf:parseType="Resource"><xmpG:swatchName>RGB ブルー</xmpG:swatchName><xmpG:mode>RGB</xmpG:mode><xmpG:type>PROCESS</xmpG:type><xmpG:red>0</xmpG:red><xmpG:green>0</xmpG:green><xmpG:blue>255</xmpG:blue></rdf:li><rdf:li rdf:parseType="Resource"><xmpG:swatchName>RGB マゼンタ</xmpG:swatchName><xmpG:mode>RGB</xmpG:mode><xmpG:type>PROCESS</xmpG:type><xmpG:red>255</xmpG:red><xmpG:green>0</xmpG:green><xmpG:blue>255</xmpG:blue></rdf:li><rdf:li rdf:parseType="Resource"><xmpG:swatchName>R=193 G=39 B=45</xmpG:swatchName><xmpG:mode>RGB</xmpG:mode><xmpG:type>PROCESS</xmpG:type><xmpG:red>193</xmpG:red><xmpG:green>39</xmpG:green><xmpG:blue>45</xmpG:blue></rdf:li><rdf:li rdf:parseType="Resource"><xmpG:swatchName>R=237 G=28 B=36</xmpG:swatchName><xmpG:mode>RGB</xmpG:mode><xmpG:type>PROCESS</xmpG:type><xmpG:red>237</xmpG:red><xmpG:green>28</xmpG:green><xmpG:blue>36</xmpG:blue></rdf:li><rdf:li rdf:parseType="Resource"><xmpG:swatchName>R=241 G=90 B=36</xmpG:swatchName><xmpG:mode>RGB</xmpG:mode><xmpG:type>PROCESS</xmpG:type><xmpG:red>241</xmpG:red><xmpG:green>90</xmpG:green><xmpG:blue>36</xmpG:blue></rdf:li><rdf:li rdf:parseType="Resource"><xmpG:swatchName>R=247 G=147 B=30</xmpG:swatchName><xmpG:mode>RGB</xmpG:mode><xmpG:type>PROCESS</xmpG:type><xmpG:red>247</xmpG:red><xmpG:green>147</xmpG:green><xmpG:blue>30</xmpG:blue></rdf:li><rdf:li rdf:parseType="Resource"><xmpG:swatchName>R=251 G=176 B=59</xmpG:swatchName><xmpG:mode>RGB</xmpG:mode><xmpG:type>PROCESS</xmpG:type><xmpG:red>251</xmpG:red><xmpG:green>176</xmpG:green><xmpG:blue>59</xmpG:blue></rdf:li><rdf:li rdf:parseType="Resource"><xmpG:swatchName>R=252 G=238 B=33</xmpG:swatchName><xmpG:mode>RGB</xmpG:mode><xmpG:type>PROCESS</xmpG:type><xmpG:red>252</xmpG:red><xmpG:green>238</xmpG:green><xmpG:blue>33</xmpG:blue></rdf:li><rdf:li rdf:parseType="Resource"><xmpG:swatchName>R=217 G=224 B=33</xmpG:swatchName><xmpG:mode>RGB</xmpG:mode><xmpG:type>PROCESS</xmpG:type><xmpG:red>217</xmpG:red><xmpG:green>224</xmpG:green><xmpG:blue>33</xmpG:blue></rdf:li><rdf:li rdf:parseType="Resource"><xmpG:swatchName>R=140 G=198 B=63</xmpG:swatchName><xmpG:mode>RGB</xmpG:mode><xmpG:type>PROCESS</xmpG:type><xmpG:red>140</xmpG:red><xmpG:green>198</xmpG:green><xmpG:blue>63</xmpG:blue></rdf:li><rdf:li rdf:parseType="Resource"><xmpG:swatchName>R=57 G=181 B=74</xmpG:swatchName><xmpG:mode>RGB</xmpG:mode><xmpG:type>PROCESS</xmpG:type><xmpG:red>57</xmpG:red><xmpG:green>181</xmpG:green><xmpG:blue>74</xmpG:blue></rdf:li><rdf:li rdf:parseType="Resource"><xmpG:swatchName>R=0 G=146 B=69</xmpG:swatchName><xmpG:mode>RGB</xmpG:mode><xmpG:type>PROCESS</xmpG:type><xmpG:red>0</xmpG:red><xmpG:green>146</xmpG:green><xmpG:blue>69</xmpG:blue></rdf:li><rdf:li rdf:parseType="Resource"><xmpG:swatchName>R=0 G=104 B=55</xmpG:swatchName><xmpG:mode>RGB</xmpG:mode><xmpG:type>PROCESS</xmpG:type><xmpG:red>0</xmpG:red><xmpG:green>104</xmpG:green><xmpG:blue>55</xmpG:blue></rdf:li><rdf:li rdf:parseType="Resource"><xmpG:swatchName>R=34 G=181 B=115</xmpG:swatchName><xmpG:mode>RGB</xmpG:mode><xmpG:type>PROCESS</xmpG:type><xmpG:red>34</xmpG:red><xmpG:green>181</xmpG:green><xmpG:blue>115</xmpG:blue></rdf:li><rdf:li rdf:parseType="Resource"><xmpG:swatchName>R=0 G=169 B=157</xmpG:swatchName><xmpG:mode>RGB</xmpG:mode><xmpG:type>PROCESS</xmpG:type><xmpG:red>0</xmpG:red><xmpG:green>169</xmpG:green><xmpG:blue>157</xmpG:blue></rdf:li><rdf:li rdf:parseType="Resource"><xmpG:swatchName>R=41 G=171 B=226</xmpG:swatchName><xmpG:mode>RGB</xmpG:mode><xmpG:type>PROCESS</xmpG:type><xmpG:red>41</xmpG:red><xmpG:green>171</xmpG:green><xmpG:blue>226</xmpG:blue></rdf:li><rdf:li rdf:parseType="Resource"><xmpG:swatchName>R=0 G=113 B=188</xmpG:swatchName><xmpG:mode>RGB</xmpG:mode><xmpG:type>PROCESS</xmpG:type><xmpG:red>0</xmpG:red><xmpG:green>113</xmpG:green><xmpG:blue>188</xmpG:blue></rdf:li><rdf:li rdf:parseType="Resource"><xmpG:swatchName>R=46 G=49 B=146</xmpG:swatchName><xmpG:mode>RGB</xmpG:mode><xmpG:type>PROCESS</xmpG:type><xmpG:red>46</xmpG:red><xmpG:green>49</xmpG:green><xmpG:blue>146</xmpG:blue></rdf:li><rdf:li rdf:parseType="Resource"><xmpG:swatchName>R=27 G=20 B=100</xmpG:swatchName><xmpG:mode>RGB</xmpG:mode><xmpG:type>PROCESS</xmpG:type><xmpG:red>27</xmpG:red><xmpG:green>20</xmpG:green><xmpG:blue>100</xmpG:blue></rdf:li><rdf:li rdf:parseType="Resource"><xmpG:swatchName>R=102 G=45 B=145</xmpG:swatchName><xmpG:mode>RGB</xmpG:mode><xmpG:type>PROCESS</xmpG:type><xmpG:red>102</xmpG:red><xmpG:green>45</xmpG:green><xmpG:blue>145</xmpG:blue></rdf:li><rdf:li rdf:parseType="Resource"><xmpG:swatchName>R=147 G=39 B=143</xmpG:swatchName><xmpG:mode>RGB</xmpG:mode><xmpG:type>PROCESS</xmpG:type><xmpG:red>147</xmpG:red><xmpG:green>39</xmpG:green><xmpG:blue>143</xmpG:blue></rdf:li><rdf:li rdf:parseType="Resource"><xmpG:swatchName>R=158 G=0 B=93</xmpG:swatchName><xmpG:mode>RGB</xmpG:mode><xmpG:type>PROCESS</xmpG:type><xmpG:red>158</xmpG:red><xmpG:green>0</xmpG:green><xmpG:blue>93</xmpG:blue></rdf:li><rdf:li rdf:parseType="Resource"><xmpG:swatchName>R=212 G=20 B=90</xmpG:swatchName><xmpG:mode>RGB</xmpG:mode><xmpG:type>PROCESS</xmpG:type><xmpG:red>212</xmpG:red><xmpG:green>20</xmpG:green><xmpG:blue>90</xmpG:blue></rdf:li><rdf:li rdf:parseType="Resource"><xmpG:swatchName>R=237 G=30 B=121</xmpG:swatchName><xmpG:mode>RGB</xmpG:mode><xmpG:type>PROCESS</xmpG:type><xmpG:red>237</xmpG:red><xmpG:green>30</xmpG:green><xmpG:blue>121</xmpG:blue></rdf:li><rdf:li rdf:parseType="Resource"><xmpG:swatchName>R=199 G=178 B=153</xmpG:swatchName><xmpG:mode>RGB</xmpG:mode><xmpG:type>PROCESS</xmpG:type><xmpG:red>199</xmpG:red><xmpG:green>178</xmpG:green><xmpG:blue>153</xmpG:blue></rdf:li><rdf:li rdf:parseType="Resource"><xmpG:swatchName>R=153 G=134 B=117</xmpG:swatchName><xmpG:mode>RGB</xmpG:mode><xmpG:type>PROCESS</xmpG:type><xmpG:red>153</xmpG:red><xmpG:green>134</xmpG:green><xmpG:blue>117</xmpG:blue></rdf:li><rdf:li rdf:parseType="Resource"><xmpG:swatchName>R=115 G=99 B=87</xmpG:swatchName><xmpG:mode>RGB</xmpG:mode><xmpG:type>PROCESS</xmpG:type><xmpG:red>115</xmpG:red><xmpG:green>99</xmpG:green><xmpG:blue>87</xmpG:blue></rdf:li><rdf:li rdf:parseType="Resource"><xmpG:swatchName>R=83 G=71 B=65</xmpG:swatchName><xmpG:mode>RGB</xmpG:mode><xmpG:type>PROCESS</xmpG:type><xmpG:red>83</xmpG:red><xmpG:green>71</xmpG:green><xmpG:blue>65</xmpG:blue></rdf:li><rdf:li rdf:parseType="Resource"><xmpG:swatchName>R=198 G=156 B=109</xmpG:swatchName><xmpG:mode>RGB</xmpG:mode><xmpG:type>PROCESS</xmpG:type><xmpG:red>198</xmpG:red><xmpG:green>156</xmpG:green><xmpG:blue>109</xmpG:blue></rdf:li><rdf:li rdf:parseType="Resource"><xmpG:swatchName>R=166 G=124 B=82</xmpG:swatchName><xmpG:mode>RGB</xmpG:mode><xmpG:type>PROCESS</xmpG:type><xmpG:red>166</xmpG:red><xmpG:green>124</xmpG:green><xmpG:blue>82</xmpG:blue></rdf:li><rdf:li rdf:parseType="Resource"><xmpG:swatchName>R=140 G=98 B=57</xmpG:swatchName><xmpG:mode>RGB</xmpG:mode><xmpG:type>PROCESS</xmpG:type><xmpG:red>140</xmpG:red><xmpG:green>98</xmpG:green><xmpG:blue>57</xmpG:blue></rdf:li><rdf:li rdf:parseType="Resource"><xmpG:swatchName>R=117 G=76 B=36</xmpG:swatchName><xmpG:mode>RGB</xmpG:mode><xmpG:type>PROCESS</xmpG:type><xmpG:red>117</xmpG:red><xmpG:green>76</xmpG:green><xmpG:blue>36</xmpG:blue></rdf:li><rdf:li rdf:parseType="Resource"><xmpG:swatchName>R=96 G=56 B=19</xmpG:swatchName><xmpG:mode>RGB</xmpG:mode><xmpG:type>PROCESS</xmpG:type><xmpG:red>96</xmpG:red><xmpG:green>56</xmpG:green><xmpG:blue>19</xmpG:blue></rdf:li><rdf:li rdf:parseType="Resource"><xmpG:swatchName>R=66 G=33 B=11</xmpG:swatchName><xmpG:mode>RGB</xmpG:mode><xmpG:type>PROCESS</xmpG:type><xmpG:red>66</xmpG:red><xmpG:green>33</xmpG:green><xmpG:blue>11</xmpG:blue></rdf:li></rdf:Seq></xmpG:Colorants></rdf:li><rdf:li rdf:parseType="Resource"><xmpG:groupName>グレー</xmpG:groupName><xmpG:groupType>1</xmpG:groupType><xmpG:Colorants><rdf:Seq><rdf:li rdf:parseType="Resource"><xmpG:swatchName>R=0 G=0 B=0</xmpG:swatchName><xmpG:mode>RGB</xmpG:mode><xmpG:type>PROCESS</xmpG:type><xmpG:red>0</xmpG:red><xmpG:green>0</xmpG:green><xmpG:blue>0</xmpG:blue></rdf:li><rdf:li rdf:parseType="Resource"><xmpG:swatchName>R=26 G=26 B=26</xmpG:swatchName><xmpG:mode>RGB</xmpG:mode><xmpG:type>PROCESS</xmpG:type><xmpG:red>26</xmpG:red><xmpG:green>26</xmpG:green><xmpG:blue>26</xmpG:blue></rdf:li><rdf:li rdf:parseType="Resource"><xmpG:swatchName>R=51 G=51 B=51</xmpG:swatchName><xmpG:mode>RGB</xmpG:mode><xmpG:type>PROCESS</xmpG:type><xmpG:red>51</xmpG:red><xmpG:green>51</xmpG:green><xmpG:blue>51</xmpG:blue></rdf:li><rdf:li rdf:parseType="Resource"><xmpG:swatchName>R=77 G=77 B=77</xmpG:swatchName><xmpG:mode>RGB</xmpG:mode><xmpG:type>PROCESS</xmpG:type><xmpG:red>77</xmpG:red><xmpG:green>77</xmpG:green><xmpG:blue>77</xmpG:blue></rdf:li><rdf:li rdf:parseType="Resource"><xmpG:swatchName>R=102 G=102 B=102</xmpG:swatchName><xmpG:mode>RGB</xmpG:mode><xmpG:type>PROCESS</xmpG:type><xmpG:red>102</xmpG:red><xmpG:green>102</xmpG:green><xmpG:blue>102</xmpG:blue></rdf:li><rdf:li rdf:parseType="Resource"><xmpG:swatchName>R=128 G=128 B=128</xmpG:swatchName><xmpG:mode>RGB</xmpG:mode><xmpG:type>PROCESS</xmpG:type><xmpG:red>128</xmpG:red><xmpG:green>128</xmpG:green><xmpG:blue>128</xmpG:blue></rdf:li><rdf:li rdf:parseType="Resource"><xmpG:swatchName>R=153 G=153 B=153</xmpG:swatchName><xmpG:mode>RGB</xmpG:mode><xmpG:type>PROCESS</xmpG:type><xmpG:red>153</xmpG:red><xmpG:green>153</xmpG:green><xmpG:blue>153</xmpG:blue></rdf:li><rdf:li rdf:parseType="Resource"><xmpG:swatchName>R=179 G=179 B=179</xmpG:swatchName><xmpG:mode>RGB</xmpG:mode><xmpG:type>PROCESS</xmpG:type><xmpG:red>179</xmpG:red><xmpG:green>179</xmpG:green><xmpG:blue>179</xmpG:blue></rdf:li><rdf:li rdf:parseType="Resource"><xmpG:swatchName>R=204 G=204 B=204</xmpG:swatchName><xmpG:mode>RGB</xmpG:mode><xmpG:type>PROCESS</xmpG:type><xmpG:red>204</xmpG:red><xmpG:green>204</xmpG:green><xmpG:blue>204</xmpG:blue></rdf:li><rdf:li rdf:parseType="Resource"><xmpG:swatchName>R=230 G=230 B=230</xmpG:swatchName><xmpG:mode>RGB</xmpG:mode><xmpG:type>PROCESS</xmpG:type><xmpG:red>230</xmpG:red><xmpG:green>230</xmpG:green><xmpG:blue>230</xmpG:blue></rdf:li><rdf:li rdf:parseType="Resource"><xmpG:swatchName>R=242 G=242 B=242</xmpG:swatchName><xmpG:mode>RGB</xmpG:mode><xmpG:type>PROCESS</xmpG:type><xmpG:red>242</xmpG:red><xmpG:green>242</xmpG:green><xmpG:blue>242</xmpG:blue></rdf:li></rdf:Seq></xmpG:Colorants></rdf:li><rdf:li rdf:parseType="Resource"><xmpG:groupName>Web カラーグループ</xmpG:groupName><xmpG:groupType>1</xmpG:groupType><xmpG:Colorants><rdf:Seq><rdf:li rdf:parseType="Resource"><xmpG:swatchName>R=63 G=169 B=245</xmpG:swatchName><xmpG:mode>RGB</xmpG:mode><xmpG:type>PROCESS</xmpG:type><xmpG:red>63</xmpG:red><xmpG:green>169</xmpG:green><xmpG:blue>245</xmpG:blue></rdf:li><rdf:li rdf:parseType="Resource"><xmpG:swatchName>R=122 G=201 B=67</xmpG:swatchName><xmpG:mode>RGB</xmpG:mode><xmpG:type>PROCESS</xmpG:type><xmpG:red>122</xmpG:red><xmpG:green>201</xmpG:green><xmpG:blue>67</xmpG:blue></rdf:li><rdf:li rdf:parseType="Resource"><xmpG:swatchName>R=255 G=147 B=30</xmpG:swatchName><xmpG:mode>RGB</xmpG:mode><xmpG:type>PROCESS</xmpG:type><xmpG:red>255</xmpG:red><xmpG:green>147</xmpG:green><xmpG:blue>30</xmpG:blue></rdf:li><rdf:li rdf:parseType="Resource"><xmpG:swatchName>R=255 G=29 B=37</xmpG:swatchName><xmpG:mode>RGB</xmpG:mode><xmpG:type>PROCESS</xmpG:type><xmpG:red>255</xmpG:red><xmpG:green>29</xmpG:green><xmpG:blue>37</xmpG:blue></rdf:li><rdf:li rdf:parseType="Resource"><xmpG:swatchName>R=255 G=123 B=172</xmpG:swatchName><xmpG:mode>RGB</xmpG:mode><xmpG:type>PROCESS</xmpG:type><xmpG:red>255</xmpG:red><xmpG:green>123</xmpG:green><xmpG:blue>172</xmpG:blue></rdf:li><rdf:li rdf:parseType="Resource"><xmpG:swatchName>R=189 G=204 B=212</xmpG:swatchName><xmpG:mode>RGB</xmpG:mode><xmpG:type>PROCESS</xmpG:type><xmpG:red>189</xmpG:red><xmpG:green>204</xmpG:green><xmpG:blue>212</xmpG:blue></rdf:li></rdf:Seq></xmpG:Colorants></rdf:li></rdf:Seq></xmpTPg:SwatchGroups></rdf:Description><rdf:Description xmlns:pdf="http://ns.adobe.com/pdf/1.3/"><pdf:Producer>Adobe PDF library 10.01</pdf:Producer></rdf:Description></rdf:RDF></x:xmpmeta><?xpacket end="w"?></metadata><g><g><rect x=".5" y=".5" fill="#FFF" width="180" height="400"/><rect x=".5" y=".5" fill="none" stroke="#210701" stroke-miterlimit="10" width="180" height="400"/><rect x="3.5" y="3.5" fill="none" stroke="#210701" stroke-width=".5" stroke-miterlimit="10" width="174" height="394"/></g><g fill="#210701"><path d="M58.366 45.931c.494 0 .795 0 1.064-.21.12-.09.51-.645.645-.645.15 0 1.261.9 1.261 1.065 0 .18-.36.18-.81.18h-5.865c-.135 0-.24.06-.24.18 0 .255 1.26 2.235 1.561 2.235.194 0 1.56-1.23 1.77-1.8.105-.255.165-.405.255-.405.104 0 1.351.795 1.425.96v.045c0 .149-.061.149-.585.21-.42.045-1.515.689-2.069 1.035-.391.24-.436.255-.436.345 0 .18 1.936 1.965 4.561 2.37.225.03.27.06.27.12s-.105.12-.255.18c-.36.165-.646.375-.99.63-.045.03-.255.226-.3.226-.12 0-1.785-.721-3.016-1.951-.465-.465-.51-.525-.674-.525-.09 0-1.17.36-1.756.57-.705.24-4.274 1.395-4.5 1.53-.06.045-.284.285-.344.33-.031.015-.061.015-.091.015-.165 0-.21-.075-.569-.735-.045-.075-.256-.42-.285-.495a.664.664 0 01-.075-.225c0-.18.226-.18.39-.18.795 0 .975 0 1.635-.105.256-.045.256-.165.256-.51 0-.555-.016-2.94-.016-3.435 0-.54-.09-.615-.525-.615-.344 0-1.154.045-1.455.06-.045 0-.18.015-.209.015-.061 0-.09-.029-.135-.09l-.301-.345c-.06-.06-.06-.075-.06-.105 0-.015.015-.03.06-.03.301 0 1.905.105 2.266.105.51 0 .539-.15.539-.585 0-2.955 0-3.285-.029-3.854-.016-.255-.15-1.545-.15-1.605 0-.044 0-.12.105-.12.119 0 .824.3.99.375.435.195.629.195.84.195h4.064c.66 0 .734 0 .96-.255.42-.495.465-.555.601-.555.09 0 1.395.81 1.395.99 0 .225-.301.225-.795.225h-6.436c-.465 0-.51.135-.51.555 0 .66 0 .825.436.825h3.465c.63 0 .705 0 .824-.104.105-.09.496-.601.615-.601.225 0 1.23.78 1.23.915 0 .18-.36.18-.795.18h-5.34c-.436 0-.436.27-.436.57 0 .779 0 .96.465.96h3.48c.615 0 .675 0 .81-.12.091-.09.495-.585.615-.585.226 0 1.229.78 1.229.915 0 .18-.359.18-.779.18h-5.355c-.42 0-.465.195-.465.555 0 .735 0 .945.45.945h6.119zm-6.285.39c-.15 0-.359 0-.42.285-.016.075-.016.915-.016 1.125 0 .75 0 1.799.031 2.549 0 .21.014.36.239.36.195 0 2.415-.524 2.955-.69.63-.18.705-.21.705-.375 0-.03-.03-.075-.255-.436-.375-.63-.825-1.62-1.051-2.13-.27-.615-.299-.69-.6-.69h-1.588zm-.779 14.355c0 .12-.031.166-.181.6-.21.584-.36 1.14-.36 1.935 0 1.516.78 2.61 1.246 2.61.254 0 .314-.075.764-.825.091-.15.346-.51.466-.51.045 0 .075.06.075.12s-.03.254-.045.3c-.166.689-.195.825-.195 1.14 0 .255.045.45.09.6.045.165.12.42.12.495 0 .301-.315.465-.57.465-.96 0-2.85-1.575-2.85-4.44 0-.42.21-2.265.21-2.655 0-.3-.061-.705-.105-.87-.104-.375-.119-.419-.119-.509 0-.046.06-.061.09-.061.688 0 1.364 1.2 1.364 1.605zm7.319.345c.765.616 1.335 1.681 1.335 2.865 0 .285-.03.99-.75.99-.735 0-.735-.81-.735-1.005 0-1.245 0-1.875-.795-2.67-.12-.12-.72-.585-.72-.675 0-.045.061-.075.135-.075.015 0 .885.045 1.53.57zm-3.75 14.01s.181 3.601 2.175 6.87c.255.405 1.95 3.149 4.26 3.75.045.015.15.044.15.104 0 .075-.045.075-.525.18-.525.12-.885.345-1.035.45-.285.21-.33.255-.375.255-.06 0-1.965-1.185-3.42-4.365-.27-.6-1.229-2.655-1.439-5.805-.016-.165-.016-.18-.075-.18-.09 0-.09.06-.149.6-.045.48-.436 3.975-1.92 6.419-1.605 2.671-4.23 3.57-4.365 3.57-.045 0-.09-.015-.09-.075 0-.045.074-.105.195-.18.869-.585 2.549-1.92 3.555-3.855 1.709-3.254 1.709-7.544 1.709-7.709 0-.436 0-.6-.06-.915a2.124 2.124 0 01-.06-.3c0-.075.074-.12.119-.12.09 0 .735.21.871.24.719.195 1.02.285 1.02.555 0 .165-.12.21-.255.24-.12.015-.195.03-.24.09-.031.046-.046.091-.046.181zm-1.215 18.9c.465 0 .465-.18.465-.93 0-1.035-.06-1.484-.09-1.755-.015-.075-.12-.405-.12-.479 0-.075.061-.105.165-.105s1.62.149 1.62.524c0 .09-.315.375-.36.45-.104.225-.135 1.41-.135 1.725 0 .391.015.57.479.57h1.936c.689 0 .765 0 .959-.255.451-.615.496-.675.631-.675.164 0 1.365 1.005 1.365 1.14 0 .195-.346.195-.795.195h-4.11c-.165 0-.375 0-.45.255-.029.12-.029 2.46-.029 2.895 0 .465.029.645.494.645h1.485c.705 0 .78 0 .96-.255.465-.615.51-.675.645-.675.166 0 1.365 1.005 1.365 1.14 0 .195-.345.195-.811.195h-3.629c-.436 0-.48.149-.48.51 0 .45.016 3.675.03 3.75.06.225.239.255.479.255h2.745c.69 0 .765 0 .96-.255.45-.615.495-.69.631-.69.164 0 1.364 1.005 1.364 1.14 0 .195-.345.195-.795.195h-9.96c-1.32 0-1.754.03-1.89.045-.06 0-.271.03-.33.03-.045 0-.075-.03-.12-.09l-.3-.345c-.06-.075-.06-.075-.06-.105s.015-.03.06-.03c.09 0 .556.045.66.045.735.03 1.35.06 2.055.06h2.864c.271 0 .496 0 .496-.54v-3.615c0-.18-.09-.359-.436-.359h-1.755c-1.319 0-1.755.029-1.89.029-.061.016-.27.046-.314.046-.061 0-.091-.046-.136-.105l-.3-.345c-.045-.06-.061-.075-.061-.089 0-.03.016-.045.061-.045.105 0 .555.045.66.06.734.03 1.35.045 2.055.045h1.665c.45 0 .45-.225.45-.465v-2.94c-.03-.284-.166-.39-.436-.39h-2.475c-.465 0-.495.045-.87.675-.825 1.38-1.845 2.61-2.085 2.61-.061 0-.074-.044-.074-.09 0-.03.239-.48.375-.72 1.649-3.045 1.934-4.979 1.979-5.28.031-.285.061-.315.091-.315s1.47.585 1.47.841c0 .119-.48.449-.54.539-.09.12-.479 1.005-.479 1.14 0 .195.18.195.375.195h2.221zm-3.63 21.735c0-.45.42-.93 1.439-2.115.676-.78 1.275-2.025 1.275-2.235 0-.089-.105-.105-.165-.105-.149 0-.765.12-.899.12-.57 0-1.336-.735-1.336-1.32 0-.045 0-.105.09-.105s.48.239.57.285c.18.089.585.27.99.27 1.23 0 1.23-.404 1.23-.705a1.2 1.2 0 00-.121-.524c-.045-.075-.359-.345-.359-.436 0-.12.391-.239.66-.239.359 0 .734.135.765.464.015.195.075.226.675.271.105 0 .676.075.676.39 0 .495-1.096.915-1.785 1.185-.226.09-.24.12-.57.885-.359.825-.42.945-.811 1.62-.074.135-.104.18-.104.24 0 .029.015.06.06.06s.33-.105.465-.165a1.41 1.41 0 01.586-.12c.195 0 .885.03 1.274.915.104.255.12.285.15.285.045 0 .54-.69.614-.81.496-.69 1.471-2.055 2.775-2.055.825 0 1.41.705 1.41 1.335 0 .705-1.186 1.2-2.115 1.605-.375.166-2.07.84-2.34 1.005-.24.15-.255.315-.255.63 0 .135.03.765.03.9 0 .24 0 1.095-.555 1.095-.406 0-.466-.495-.466-.765 0-.15.046-.87.046-.885 0-.06 0-.18-.105-.18-.12 0-1.455.93-1.455 1.785 0 1.035 1.5 1.035 1.936 1.035.375 0 .659-.03.959-.09.211-.03 1.17-.27 1.365-.27.314 0 .734.15.734.51 0 .93-2.324.99-2.684.99-1.906 0-2.91-.78-2.91-1.965 0-.959.569-1.44 1.979-2.58.149-.12.226-.3.226-.525 0-.675-.121-1.515-.721-1.515-.57 0-1.455.69-1.845 1.59-.165.375-.33.735-.81.735-.282-.001-.568-.091-.568-.496zm3.825-5.67c.03 0 .75-.195.75-.36 0-.195-.375-.225-.51-.225-.21 0-.27.42-.27.48s0 .105.03.105zm1.365 4.86c0 .03.016.075.061.075s3-1.199 3-2.19c0-.375-.33-.45-.525-.45-1.246 0-2.536 2.325-2.536 2.565zm-3.72 12.225c-.165 0-.284 0-.284.075 0 .06.059.12.225.239 1.154.826 1.274.931 1.274 1.38 0 .285-.21.63-.524.63a.601.601 0 01-.555-.315c-.046-.09-.166-.614-.195-.72-.465-1.29-.825-1.29-.975-1.29-.406 0-.436.03-.691.36-.449.555-1.664 2.04-1.979 2.04-.016 0-.046 0-.046-.046 0-.089.091-.209.104-.24.181-.254.375-.584.436-.69.66-1.17 1.29-2.414 1.471-3.33.074-.36.074-.406.164-.406.075 0 1.41.346 1.41.646 0 .09-.42.346-.48.42-.119.135-.479.675-.479.75 0 .09.075.09.285.09h1.425c.615 0 .66 0 .93-.315.271-.301.391-.45.541-.45.149 0 1.109.734 1.109.96 0 .18-.21.21-.975.21h-2.191zm1.14 2.58c.135 0 .315-.016.436-.075.074-.045.435-.33.525-.33.254 0 .854.511.854.69 0 .06-.21.315-.24.39-.06.135-.06.435-.06 3.195 0 .915-.6.915-.646.915-.3 0-.345-.165-.39-.3-.061-.164-.18-.164-.436-.164h-1.904c-.24 0-.57 0-.57.375v1.695c0 .255 0 .57.346.57.104 0 .944-.225 1.08-.27 1.109-.33 1.229-.36 1.229-.48 0-.21-.765-1.02-.765-1.035 0-.03.015-.075.074-.075.27 0 2.325 1.05 2.325 2.385 0 .225-.149.585-.556.585-.344 0-.494-.24-.659-.795-.149-.494-.165-.555-.3-.555-.105 0-2.67 1.095-3.436 1.5-.149.075-.885.585-.93.585-.27 0-.72-1.125-.72-1.26 0-.03.63-.089.704-.105.406-.06.57-.104.615-.27.09-.271.076-4.365.076-5.205 0-.345-.091-2.175-.091-2.385 0-.06 0-.105.06-.105.09 0 .166.03.78.345.165.075.36.18.705.18h1.894zm-.045 1.935c.301 0 .48 0 .555-.194.045-.091.045-.675.045-.885 0-.466-.225-.466-.6-.466h-1.785c-.299 0-.465 0-.555.195-.045.09-.045.675-.045.885 0 .465.225.465.6.465h1.785zm-1.754.39c-.631 0-.631.105-.631.975 0 .585.09.615.631.615h1.694c.63 0 .63-.061.63-.811 0-.689 0-.78-.63-.78h-1.694zm5.609-4.92c-.405 0-.51 0-.735.285-.976 1.2-1.71 1.709-1.784 1.709-.031 0-.046-.029-.046-.044 0-.045.226-.405.255-.466.916-1.665 1.471-2.819 1.575-3.375.06-.345.06-.39.149-.39.076 0 .811.195 1.156.3.254.09.42.136.42.3 0 .134-.091.165-.391.255-.314.105-.705.87-.705.916 0 .12.061.12.256.12h1.889c.705 0 .78 0 .961-.255.359-.51.39-.57.569-.57.181 0 1.32.781 1.32 1.005 0 .21-.3.21-.795.21h-2.386c-.194 0-.254 0-.254.06 0 .075.074.15.225.27.585.48.975.96.975 1.366 0 .359-.255.72-.63.72-.165 0-.375-.135-.42-.3-.03-.135-.135-.615-.165-.735-.314-1.38-.66-1.38-.885-1.38h-.554zm2.52 2.625c.27 0 .346 0 .48-.18.285-.375.314-.42.435-.42.21 0 1.035.57 1.035.78 0 .075-.285.345-.33.405-.181.27-.181.63-.181 3.84 0 1.274-.015 1.665-.254 2.069-.271.45-.976.66-1.035.66-.061 0-.09-.015-.135-.075-.045-.06-.226-.36-.271-.42-.12-.135-.854-.69-.96-.765 0-.045.029-.06.09-.06.105 0 .6.03.721.03.764 0 .809-.345.84-.614.029-.375.104-1.681.104-4.186 0-.57-.03-.66-.614-.66h-1.396c-.3 0-.54 0-.585.285-.03.15-.03 1.86-.03 2.16 0 .705.03 4.185.03 4.965 0 .3 0 .405-.225.615-.195.195-.436.286-.601.286-.285 0-.345-.181-.345-.42 0-.03 0-.135.015-.285.045-.975.149-5.46.149-6.644 0-.256-.029-1.44-.029-1.65 0-.165 0-.33.15-.33.135 0 .584.284.765.405.33.194.42.21.72.21h1.457zm-6.959 24.675c-.406 0-.451.21-.496.524-.06.375-.765.465-.944.465-.33 0-.345-.21-.345-.39 0-.33.074-1.965.09-2.34.029-1.695.029-3.015.029-7.53 0-.735 0-1.185-.029-1.799-.016-.15-.12-.841-.12-1.005 0-.06.015-.15.09-.15.149 0 .42.166 1.035.51.374.226.735.226 1.02.226h4.604c.51 0 .631-.075.826-.316.344-.389.375-.449.465-.449.119 0 1.26.811 1.26 1.021 0 .09-.045.165-.226.33-.284.285-.3.315-.3 2.145 0 .21.03 6.48.045 6.871 0 .284.061 1.649.061 1.965 0 .419 0 .524-.256.675a1.56 1.56 0 01-.75.254c-.314 0-.314-.225-.314-.54 0-.33-.12-.465-.45-.465h-5.295zm-.016-11.085c-.375 0-.465.15-.465.42v2.16c0 .255.015.495.465.495h5.369c.211 0 .406-.045.451-.285.014-.075.014-2.04.014-2.295 0-.256 0-.495-.465-.495h-5.369zm5.355 6.855c.3 0 .479-.06.479-.435 0-.391.031-2.085.031-2.431 0-.329-.016-.524-.48-.524h-5.369c-.451 0-.48.195-.48.495 0 .345 0 2.52.015 2.595.03.3.3.3.466.3h5.338zm-.031 3.84c.465 0 .48-.195.48-.585 0-.39.029-2.19.016-2.489-.031-.315-.211-.375-.48-.375h-5.324c-.406 0-.48.15-.48.54 0 .36 0 2.55.015 2.64.06.24.255.27.466.27h5.307zm-6.284 14.13c.255 0 .39-.24.72-1.17.09-.254.135-.375.21-.375s.075.15.075.181c0 .165-.346 1.92-.346 2.279 0 .255.211.706.24.78.105.21.181.466.181.66 0 .3-.24.51-.495.51-.93 0-1.62-2.55-1.62-3.989 0-.961.12-1.396.63-3.27.256-.915.256-1.29.256-1.56 0-.479-.091-.885-.15-1.065-.016-.045-.09-.225-.09-.27s.06-.075.119-.075c.69 0 1.32 1.365 1.32 1.905 0 .164 0 .18-.285.69-.164.314-1.154 2.519-1.154 3.869 0 .45.149.9.389.9zm8.714 1.5c0 .585-.449.765-2.549.765-1.471 0-2.025-.375-2.34-.675-.075-.075-.465-.464-.465-.75 0-.03 0-.15.074-.15.061 0 .301.181.36.21.435.226 1.05.255 1.604.255.391 0 .93 0 1.305-.045.211-.015 1.261-.12 1.32-.12.572 0 .691.33.691.51zm-.704-7.304c0 .734-1.665.734-1.845.734-1.695 0-2.625-.915-2.625-1.11 0-.03.015-.075.105-.075.045 0 .225.06.42.105.344.075.75.09 1.02.09.734 0 1.439-.15 1.65-.225.449-.165.494-.18.645-.165.27.045.63.3.63.646zm-6.69 20.864c-.164 0-.42 0-.42.195 0 .075.016.15.51.42.871.465 1.471.78 1.471 1.56 0 .33-.24.675-.525.675-.195 0-.225-.075-.539-.765-.076-.15-.586-1.275-.84-1.275-.076 0-.091.12-.091.165 0 .36.06 2.115.06 2.52 0 .315.045 1.89.045 2.235 0 .195 0 .84-.614.84-.33 0-.479-.12-.479-.54 0-.075.045-.825.045-.944.06-.976.074-2.101.074-3.075 0-.391 0-.42-.09-.42s-.119.045-.345.57c-.72 1.635-2.399 3.494-2.851 3.494-.015 0-.045-.015-.045-.045 0-.045.391-.57.465-.675 1.531-2.22 2.25-4.5 2.25-4.68 0-.255-.239-.255-.33-.255-.27 0-1.125 0-1.5.03-.045.015-.27.045-.329.045-.046 0-.075-.045-.12-.105l-.301-.345c-.059-.075-.059-.075-.059-.09 0-.03.029-.044.059-.044.076 0 .451.044.541.044.3.015 1.395.06 1.875.06.75 0 .765 0 .765-.645 0-.135 0-.661-.045-1.155a2.764 2.764 0 01-.075-.375c0-.12.135-.15.21-.15.255 0 1.351.42 1.351.676 0 .089-.36.375-.42.449-.105.12-.105.511-.105.705 0 .255.015.495.48.495.569 0 .614-.029.854-.359.329-.451.375-.511.45-.511.119 0 1.244.81 1.244 1.065 0 .21-.299.21-.795.21h-1.831zm2.94-6.12c0 .15-.181.165-.285.165-.675 0-.96 0-1.515.06-.645.061-3.495.391-4.08.45-.27.03-1.005.075-1.23.075-.074 0-.164 0-.164-.06 0-.105.074-.12.779-.27 2.115-.435 3.24-.675 4.455-1.199.105-.045.585-.301.689-.301.121 0 .166.045.69.45.586.465.661.525.661.63zm-6.585 2.431a2.938 2.938 0 00-.24-.871c-.045-.06-.225-.39-.225-.45 0-.015.016-.03.03-.03.345 0 1.59.555 1.59 1.89 0 .33-.104.765-.511.765-.479 0-.524-.27-.644-1.304zm2.325-.181c-.06-.6-.12-.96-.255-1.23a1.35 1.35 0 01-.105-.27c0-.015.03-.029.045-.029.271 0 1.455.704 1.455 1.71 0 .494-.359.809-.675.809-.36-.001-.36-.105-.465-.99zm4.2-.72c0 .104-.48.225-.555.27-.346.195-1.576 1.561-1.936 1.561-.03 0-.045-.03-.045-.046 0-.09 1.005-1.875 1.064-2.265.016-.06.045-.285.061-.329 0-.046.045-.075.09-.075.225 0 .615.165.84.299.36.21.481.51.481.585zm6.285 6.81c0 .18-.075.195-.72.36-.225.06-1.846 1.2-2.189 1.411-1.951 1.139-3.195 1.544-4.516 1.979-.48.15-.795.211-.854.211-.046 0-.104 0-.104-.061 0-.075.074-.12.719-.45 3.735-1.905 5.325-3.345 6.12-4.259.075-.075.285-.495.375-.495.181 0 .3.135.39.24s.465.57.555.66c.044.059.224.269.224.404zm-.736-8.07c0 .135-.029.15-.494.27-.135.03-1.11.99-1.32 1.17-3.015 2.655-4.35 3.09-4.439 3.09-.016 0-.03-.015-.03-.045 0-.06 1.455-1.275 1.726-1.53 1.199-1.169 2.999-3.225 3.044-3.839.015-.165.015-.3.165-.3.105 0 .165.061.375.225.256.21.66.525.705.57.104.074.268.224.268.389zm.301 4.17c0 .15-.061.15-.615.225-.12.015-.21.105-.346.21-1.694 1.455-5.084 3.12-5.579 3.12-.015 0-.03-.016-.03-.03 0-.104.961-.75 1.141-.87 2.399-1.604 3.914-3.36 4.004-3.645.045-.18.076-.271.211-.271.06 0 .164.045.225.12.57.556.63.615.75.735.194.181.239.301.239.406zm-3.375 20.775c0-1.23-1.035-2.279-2.535-2.279-1.98 0-3.255 2.055-3.525 2.52-.299.51-.449.795-.854.795-.36 0-.435-.3-.435-.42 0-.375.119-.705 1.185-1.95.976-1.141 1.125-1.335 3.39-4.515.495-.705.705-1.02.705-1.185 0-.105-.105-.21-.285-.21-.555 0-1.439.75-1.694.96-.601.495-.81.54-1.065.54-.705 0-1.17-.96-1.17-1.035 0-.046.045-.046.36-.046.795 0 1.905-.359 2.325-.54.93-.404 1.035-.449 1.365-.449.6 0 1.574.375 1.574 1.035 0 .435-.345.675-1.064 1.17-1.08.765-2.4 2.819-2.4 3.074 0 .045.045.105.09.105.09-.03.285-.105.375-.135.48-.18.9-.24 1.32-.24 1.92 0 3.375 1.425 3.375 3.12 0 1.904-1.846 3.239-3.75 3.239-1.485 0-2.551-.795-2.551-1.545 0-.54.631-1.215 1.486-1.215.704 0 1.289.42 1.709.96.211.27.301.405.51.405.508.001 1.559-.914 1.559-2.159zm-3.855 1.35c-.359 0-.629.284-.629.524 0 .39.645.705 1.289.705.15 0 .256-.105.256-.27 0-.36-.361-.959-.916-.959zm4.291 15.704c-.046 0-.166 0-.166.105 0 .045.12.24.12.285 0 .09-.075.164-.284.225-.181.061-.256.12-.871.75-.149.165-1.004.885-1.004 1.005 0 .091.045.105.885.375 1.274.39 1.92.631 1.92 1.261 0 .375-.315.539-.57.539-.51 0-2.67-1.484-3.24-1.484-.195 0-1.125.435-1.334.51-2.146.795-3.15.779-4.455.779-.045 0-.09-.014-.09-.045 0-.044 2.01-.539 2.385-.645.93-.255 2.43-.795 2.43-1.095 0-.104-.061-.136-.615-.345-.18-.075-.811-.33-.93-.33-.075 0-.12 0-.195.06-.21.195-.3.271-.525.271-.344 0-.614-.256-.614-.405 0-.24 1.274-1.38 1.274-1.649 0-.166-.119-.166-.209-.166h-1.336c-.359 0-1.365 0-1.89.045-.045 0-.271.03-.315.03-.06 0-.09-.03-.135-.09l-.285-.345c-.029-.03-.074-.075-.074-.105 0-.029.029-.029.06-.029.091 0 .556.045.66.045.42.015 1.2.06 2.055.06h1.56c.406 0 .496-.135.69-.42.165-.226.72-1.005.72-1.17 0-.15-.15-.15-.225-.15h-.975c-.271 0-.315.091-.36.195-.149.39-.646.479-.765.479-.346 0-.36-.284-.36-.494 0-.105.03-.615.06-.931.016-.3.016-1.47.016-1.829 0-.256-.016-.541-.03-.721 0-.09-.09-.51-.09-.6 0-.075.075-.075.12-.075.061 0 .645.225.84.3.24.09.359.105.585.105h3.915c.285 0 .375 0 .585-.225.18-.195.255-.271.329-.271.076 0 .871.585 1.006.689a.26.26 0 01.074.195c0 .105-.029.136-.285.33-.164.136-.194.255-.194.63 0 .314.149 1.905.149 1.98 0 .435-.479.63-.764.63-.301 0-.361-.12-.466-.3-.045-.091-.225-.091-.3-.091h-1.845c-.06 0-.165 0-.165.091 0 .045.015.06.195.24.149.135.254.225.254.329 0 .12-.014.12-.42.21-.119.016-.539.585-.539.721 0 .149.119.149.225.149h4.275c.629 0 .705 0 .84-.12.104-.105.569-.81.75-.81.149 0 1.244.975 1.244 1.11 0 .209-.3.209-.795.209h-2.506zm-8.086-7.019c-.33 0-.33.061-.33.721 0 .419-.209 1.334-.93 1.334-.209 0-.675-.119-.675-.51 0-.225.06-.284.525-.945.255-.345.375-.944.375-1.185 0-.045-.06-.255-.06-.3 0-.075.045-.09.074-.09.135 0 .24.15.436.39.119.165.345.195.51.195h3.734c.375 0 .391-.165.391-.511a6.28 6.28 0 00-.03-.51c-.015-.089-.136-.524-.136-.615 0-.074.061-.074.091-.074.12 0 .69.135.81.15.465.089.689.149.689.314 0 .105-.029.12-.27.359-.09.105-.104.301-.104.451 0 .27.03.435.374.435h3.466c.18 0 .39 0 .524-.104.061-.031.301-.33.375-.33.09 0 1.44.854 1.44 1.185 0 .271-.255.345-.45.345-.12 0-.705-.105-.84-.105-.285 0-.6.181-.825.315-.03.016-.315.21-.36.21-.015 0-.015-.029-.015-.045 0-.135.345-.705.345-.84 0-.24-.194-.24-.33-.24h-8.804zm6.48 2.91c.375 0 .404-.135.404-.479 0-.615 0-.721-.42-.721h-3.885c-.404 0-.42.136-.42.601 0 .45 0 .6.42.6h3.901zm-3.885.391c-.436 0-.436.135-.436.63 0 .404 0 .554.436.554h3.899c.421 0 .421-.135.421-.629 0-.405 0-.555-.421-.555h-3.899zm1.47 3.718c-.36 0-.511.045-.705.301-.104.135-.854 1.125-.854 1.185 0 .12.119.149.209.181.315.074 1.59.389 1.771.389.226 0 .375 0 1.274-.959.195-.195.721-.78.721-.945 0-.15-.105-.15-.21-.15h-2.206zm4.215 9.721c.705 0 .78 0 .93-.226.375-.554.405-.614.525-.614.135 0 1.364.87 1.364 1.035 0 .21-.299.21-.81.21h-9.944c-.375 0-.375.271-.375.6 0 5.686-.016 6.78-.795 8.43-.405.855-1.125 1.785-1.275 1.785-.015 0-.029-.015-.029-.045s.194-.435.225-.511c.54-1.334.885-2.534.885-6.974 0-.556 0-1.98-.15-3.465-.015-.105-.104-.57-.104-.675 0-.076.015-.121.104-.121s.391.166.99.465c.18.09.42.105.525.105h3.225c.12 0 .391-.06.391-.375 0-.104-.016-.39-.076-.66-.014-.074-.149-.39-.149-.465 0-.06.03-.105.12-.105.045 0 1.47.376 1.515.391.06.029.136.09.136.18 0 .091-.076.15-.195.256-.105.074-.195.149-.195.39 0 .39.359.39.391.39h2.771zm-4.08 6.66c.39 0 .39-.24.39-.886 0-.794 0-.869-.6-.869-.285 0-.314.104-.375.359-.074.256-.555.435-.705.435-.255 0-.3-.329-.3-.435 0-.225.075-1.185.075-1.395 0-.735-.03-.93-.45-.93-.315 0-.87.029-1.155.044-.045.016-.18.03-.209.03-.061 0-.09-.03-.136-.09l-.3-.345c-.045-.075-.061-.075-.061-.105 0-.029.016-.029.061-.029.27 0 1.484.09 1.74.09.164 0 .435 0 .435-.42 0-.27-.045-.675-.075-.854-.015-.075-.119-.421-.119-.466 0-.061.06-.074.135-.074.029 0 1.365.239 1.365.465 0 .06-.016.089-.181.285-.09.104-.135.165-.135.435 0 .329 0 .645.39.645h2.13c.39 0 .39-.315.39-.569 0-.24-.029-.615-.045-.69-.015-.075-.164-.404-.164-.479 0-.045.045-.076.135-.076.06 0 1.02.226 1.215.286.09.015.24.089.24.194 0 .091-.226.315-.346.421-.074.074-.074.374-.074.449 0 .149 0 .465.39.465h.345c.689 0 .78 0 .885-.194.36-.646.405-.72.555-.72.166 0 1.201.824 1.201 1.034 0 .271-.24.271-.826.271h-2.174c-.391 0-.391.285-.391.435 0 .195.061 1.05.061 1.23 0 .81-.69.81-.735.81-.33 0-.36-.15-.39-.36-.03-.119-.09-.149-.285-.149h-.723c-.09 0-.284 0-.284.135s.329.18.465.194c.12 0 .405.03.405.211 0 .119-.03.135-.256.314-.119.105-.135.285-.135.39 0 .136 0 .511.391.511h1.965c.3 0 .404-.105.51-.225.045-.061.24-.36.3-.36.045 0 1.261.749 1.261.945 0 .119-.046.149-.406.42-.104.089-.104.165-.104.839 0 .315.03 1.771 0 2.055-.149 1.365-1.425 1.396-1.575 1.396-.104 0-.435-.405-.51-.48-.135-.119-.855-.659-.855-.689 0-.045.031-.06.105-.06.15 0 .825.045.975.045.076 0 .631-.016.735-.12.091-.104.091-.78.091-1.005 0-.33 0-1.92-.061-2.146-.061-.18-.285-.225-.36-.225h-2.085c-.39 0-.39.165-.39 1.41 0 .465.09 2.774.09 2.954 0 .15 0 .601-.51.601-.63 0-.63-.601-.63-.75 0-.181.06-1.47.06-1.755v-1.995c0-.135 0-.465-.375-.465h-1.694c-.271 0-.36.181-.375.345-.016.135-.016 1.605-.016 1.86 0 .12 0 1.545-.015 1.59-.06.435-.511.555-.69.555-.27 0-.39-.21-.39-.479 0-.256.045-1.38.045-1.62 0-.854 0-2.34-.015-2.565 0-.06-.03-.329-.03-.375 0-.135.015-.21.12-.21.165 0 .465.165.975.421.075.045.27.09.375.09h1.709zm-.21-3.719c-.39 0-.39.314-.39.569 0 .735 0 .99.405.99h2.084c.391 0 .391-.255.391-.885 0-.39 0-.675-.375-.675h-2.115z"/></g><g><g fill="#210701"><path d="M132.844 48.287c.858 0 1.378 0 1.846-.364.209-.156.885-1.118 1.118-1.118.261 0 2.185 1.56 2.185 1.846 0 .312-.624.312-1.404.312h-10.166c-.234 0-.416.104-.416.312 0 .442 2.184 3.874 2.704 3.874.338 0 2.704-2.132 3.067-3.12.183-.442.286-.702.442-.702.183 0 2.34 1.378 2.47 1.664v.078c0 .26-.104.26-1.014.364-.728.078-2.626 1.196-3.588 1.794-.676.416-.754.442-.754.598 0 .312 3.354 3.407 7.904 4.108.39.052.468.104.468.208s-.182.208-.442.313c-.624.286-1.117.649-1.716 1.092-.078.052-.442.39-.52.39-.208 0-3.095-1.248-5.227-3.38-.806-.806-.884-.91-1.17-.91-.156 0-2.028.624-3.042.988-1.223.416-7.41 2.418-7.801 2.652-.104.078-.494.494-.598.572-.052.025-.104.025-.156.025-.286 0-.364-.13-.988-1.273-.078-.13-.441-.729-.494-.858-.052-.104-.13-.286-.13-.391 0-.312.391-.312.677-.312 1.378 0 1.689 0 2.834-.182.441-.078.441-.286.441-.883 0-.963-.025-5.097-.025-5.955 0-.936-.156-1.066-.91-1.066-.598 0-2.002.079-2.522.104-.078 0-.312.026-.364.026-.104 0-.155-.052-.233-.156l-.521-.598c-.104-.104-.104-.129-.104-.182 0-.026.025-.052.104-.052.521 0 3.303.182 3.927.182.884 0 .936-.26.936-1.014 0-5.122 0-5.694-.052-6.682-.026-.442-.26-2.678-.26-2.782 0-.079 0-.208.182-.208.208 0 1.43.52 1.716.649.755.338 1.093.338 1.456.338h7.047c1.144 0 1.273 0 1.664-.442.728-.857.806-.961 1.04-.961.155 0 2.418 1.403 2.418 1.716 0 .39-.521.39-1.378.39H122.34c-.807 0-.885.234-.885.962 0 1.145 0 1.431.754 1.431h6.007c1.092 0 1.222 0 1.43-.183.183-.156.858-1.04 1.066-1.04.39 0 2.132 1.353 2.132 1.586 0 .312-.624.312-1.378.312h-9.257c-.754 0-.754.468-.754.988 0 1.352 0 1.664.807 1.664h6.032c1.065 0 1.17 0 1.403-.208.156-.156.858-1.014 1.066-1.014.391 0 2.132 1.353 2.132 1.587 0 .312-.624.312-1.352.312h-9.282c-.729 0-.807.338-.807.962 0 1.274 0 1.638.78 1.638h10.61zm-10.895.675c-.26 0-.624 0-.728.495-.026.129-.026 1.586-.026 1.95 0 1.3 0 3.121.052 4.42 0 .365.026.624.416.624.339 0 4.187-.91 5.122-1.196 1.093-.312 1.223-.364 1.223-.65 0-.052-.052-.13-.442-.754-.649-1.092-1.43-2.808-1.819-3.692-.469-1.066-.521-1.196-1.041-1.196h-2.757zm-2.236 32.162c-.598 0-2.392 0-3.302.078-.078 0-.468.052-.546.052s-.13-.052-.234-.156l-.494-.599c-.104-.13-.104-.13-.104-.182s.026-.052.078-.052c.182 0 .988.078 1.17.078 1.17.052 2.34.104 3.563.104h.832c.441 0 .91-.156 1.065-.546.104-.26.702-2.158.702-2.418 0-.624-.52-.624-.754-.624h-2.496c-.598 0-2.393 0-3.302.052a4.125 4.125 0 01-.546.078c-.078 0-.131-.053-.234-.182l-.494-.599c-.104-.104-.104-.13-.104-.156 0-.052.025-.078.077-.078.183 0 .988.104 1.171.104 1.222.078 2.054.078 3.562.078h2.756c.261 0 .702 0 .807-.416 0-.026.26-1.456.26-1.586 0-.677-.546-.677-.78-.677h-.936c-.599 0-2.393 0-3.303.079-.078 0-.468.051-.546.051s-.13-.051-.233-.156l-.494-.598c-.104-.104-.104-.129-.104-.182 0-.026.026-.052.078-.052.183 0 .988.078 1.17.078 1.17.052 2.341.104 3.563.104h1.014c.183 0 .677 0 .78-.442 0 0 .13-1.3.13-1.378 0-.676-.494-.676-.754-.676h-2.288c-.598 0-2.366 0-3.276.052a4.325 4.325 0 01-.571.078c-.078 0-.131-.078-.209-.182l-.52-.598c-.104-.104-.104-.13-.104-.183 0-.025.052-.052.104-.052.182 0 .988.078 1.145.104 1.195.052 2.34.078 3.562.078h2.263c.779 0 .806-.234.806-1.638 0-.364 0-1.014-.156-1.274-.156-.234-.182-.26-.182-.312 0-.13.13-.156.208-.156.104 0 3.016.572 3.016.962 0 .182-.104.261-.416.469-.363.233-.52.91-.52 1.326 0 .624.649.624.779.624h5.98c.624 0 .702 0 .832-.026.286-.104 1.092-1.379 1.274-1.379.156 0 2.444 1.379 2.444 1.847 0 .208-.208.208-.677.234-.286.025-.416.025-1.611.025h-8.45c-.313 0-.702 0-.832.521-.026.104-.183 1.222-.183 1.378 0 .442.39.598.78.598h5.46c.65 0 .729 0 .858-.052.286-.078 1.092-1.352 1.248-1.352.182 0 2.47 1.352 2.47 1.846 0 .208-.208.233-.676.233h-9.568c-.364 0-.729 0-.832.495-.026.208-.26 1.43-.26 1.585 0 .599.571.599.806.599h7.696c1.17 0 1.274 0 1.638-.416.729-.884.832-.962 1.066-.962.156 0 2.418 1.378 2.418 1.716 0 .364-.52.364-1.378.364h-11.778c-.364 0-.702 0-.807.52-.13.442-.909 2.601-.909 2.704 0 .338.233.364.338.364h6.24c.208 0 .754-.026.754-.676 0-.26-.13-1.742-.234-1.977-.025-.078-.208-.363-.208-.416 0-.078.053-.104.156-.104.156 0 1.3.26 1.534.285.494.079 1.481.287 1.481.729 0 .183-.025.208-.39.442-.364.208-.39.338-.39.546 0 .728 0 1.196.494 1.196.363 0 .728-.442.754-.468.728-.858.806-.962 1.04-.962.182 0 2.444 1.404 2.444 1.716 0 .364-.521.364-1.404.364h-2.626c-.599 0-.755.338-.755.729 0 .78.053 4.238.053 4.94 0 .857 0 3.38-3.12 3.38-.313 0-.364-.078-.729-.78-.364-.65-.728-.91-1.196-1.144-.052-.026-.468-.261-.468-.287 0-.104.183-.104.234-.104.182 0 2.028.13 2.392.13.338 0 .702-.026.858-.416.104-.312.104-3.38.104-4.029 0-2.314 0-2.419-.78-2.419h-6.215c-.26 0-.806 0-1.222.858-2.496 5.174-6.969 7.41-7.332 7.41-.104 0-.104-.078-.104-.13 0-.078.261-.312.442-.442 2.158-1.768 4.212-4.368 5.33-6.838.104-.234.182-.39.182-.468 0-.234-.182-.391-.441-.391h-.884zm4.369 1.17c.13 0 3.978 1.196 3.978 3.458 0 .753-.649 1.3-1.118 1.3-.546 0-.702-.416-1.014-1.378-.364-1.066-1.274-2.6-1.716-3.042-.053-.026-.234-.208-.208-.286.025-.026.025-.052.078-.052zm2.314 18.174c0 .078.052.182.052.286.104.832.261 1.664.261 2.808 0 1.742-.391 4.16-2.679 7.618-2.08 3.172-3.406 3.797-4.446 3.797-1.716 0-3.25-2.679-3.25-5.851 0-1.378.286-4.004 2.887-6.63 3.302-3.381 6.786-3.381 8.294-3.381 2.366 0 3.458.468 4.187.832 2.808 1.379 4.523 4.16 4.523 7.566 0 3.38-1.95 7.541-6.552 9.152-2.21.78-3.926.962-4.316.962-.104 0-.26-.026-.26-.182 0-.078.052-.104.702-.364 2.704-1.065 8.346-3.302 8.346-9.776 0-1.014-.104-7.202-7.202-7.202-.521.001-.547.209-.547.365zm-8.451 7.982c0 1.689.676 4.004 2.262 4.004.754 0 1.379-.312 3.173-3.017 1.378-2.105 2.548-4.992 2.548-7.565 0-1.561-.104-1.69-.442-1.69-2.47 0-7.541 3.354-7.541 8.268zm8.191 24.83c0 .858-1.977 1.638-2.601 1.898-.363.13-.39.234-.441 1.144-.053.572-.053 2.679-.053 2.808 0 .156 0 .468.234.468.078 0 2.21-.884 2.626-1.04 2.574-.962 3.744-1.04 4.421-1.04 1.897 0 4.004 1.482 4.004 3.926 0 3.433-3.614 4.992-5.746 4.992-1.482 0-2.679-.754-2.679-2.105 0-1.223 1.066-2.055 1.3-2.055.078 0 .131.078.131.13 0 .078-.053.13-.104.208a1.076 1.076 0 00-.233.702c0 1.248 1.43 1.248 1.689 1.248 1.716 0 3.9-1.144 3.9-3.224 0-1.846-1.378-2.86-2.496-2.86-.729 0-2.34.338-5.383 1.95-1.455.779-1.611.858-1.611 1.3 0 .286.078 1.456.078 1.717 0 1.195-.391 2.912-1.326 2.912-.702 0-.988-.547-1.196-.963-.832-1.612-.962-1.612-1.3-1.612-.234 0-.494.104-.65.156-.156.078-.806.521-.988.521-.285 0-1.611-.78-1.611-1.638 0-.468.285-1.014.754-1.014.156 0 .91.13 1.065.13.702 0 1.171-.13 2.704-.884 1.326-.65 1.482-.728 1.482-1.456 0-.598-.026-2.808-.052-3.25 0-.182-.078-.572-.364-.572-.313 0-1.04.183-1.196.234-1.326.442-1.456.495-1.846.495-.884 0-1.872-1.795-1.872-1.977 0-.13.104-.182.208-.182.078 0 .39.104.468.104.468.078.858.13 1.196.13.936 0 3.146-.624 3.302-.78.13-.182.26-2.548.26-2.834 0-.806-.13-1.326-.857-2.08-.052-.052-.364-.364-.364-.416 0-.234.416-.286.572-.286 1.742 0 2.678 1.273 2.678 1.768 0 .233-.494 1.17-.546 1.352-.025.182-.26 1.222-.26 1.69 0 .104.052.286.208.286.182 0 .91-.286.91-.65 0-.052-.13-.312-.13-.364 0-.026.052-.078.104-.104.363-.053 1.611.312 1.611 1.117zm-5.929 9.959c0 .39.702 1.222 1.093 1.222.363 0 .728-.729.728-2.002 0-.104 0-.364-.078-.416-.079 0-1.743.832-1.743 1.196zm17.083-8.087c0 .546-.312 1.248-.858 1.248-.155 0-.754-.052-.884-.052-.13.026-.676.182-.78.182-.052 0-.13-.025-.13-.13 0-.052.078-.182.078-.208.052-.156.104-.286.104-.468 0-1.04-1.301-1.404-2.185-1.404-.416 0-.649.104-1.014.26a.585.585 0 01-.261.078c-.077 0-.104-.026-.104-.104 0-.182 1.092-1.638 2.809-1.638 2.003 0 3.225 1.04 3.225 2.236zm-17.967 25.792c-.598 0-2.392 0-3.302.078-.078 0-.469.052-.546.052-.078 0-.13-.052-.234-.156l-.494-.598c-.104-.13-.104-.13-.104-.182 0-.052.025-.052.077-.052.469 0 2.471.156 2.887.156.78 0 .78-.26.78-1.664 0-.182-.053-1.742-.13-2.132-.026-.156-.183-.806-.183-.936 0-.182.208-.182.286-.182.208 0 2.314.546 2.314 1.04 0 .182-.053.208-.442.521-.208.208-.26.468-.26 1.638 0 .156.025.806.025.962 0 .208 0 .78.624.78.469 0 .572-.026.754-.182.416-.364.755-.676.858-.676.234 0 1.534 1.222 1.534 1.586 0 .364-.338.468-.78.65-.416.156-2.002 2.028-2.704 2.886-.494.598-.598.832-.598 1.301 0 .545 0 .598.754.832 2.34.728 3.276 1.872 3.276 2.938 0 .469-.261 1.04-.807 1.04-.468 0-.546-.13-1.222-1.274-.026-.052-1.326-2.236-1.768-2.236-.261 0-.286.077-.286 2.132 0 1.3.104 7.046.104 8.217 0 .441-.078 1.352-1.144 1.352-.807 0-.807-.494-.807-.884 0-.234.156-2.002.183-2.366.025-.962.104-2.782.104-4.836v-2.938c0-.156-.026-.52-.208-.52-.104 0-3.12 2.704-3.536 2.704-.208 0 .364-.65.521-.832 4.238-4.732 5.771-7.541 5.771-7.878s-.39-.338-.598-.338h-.699zm10.244 7.073c0 .156-.468.624-.546.754-.078.156-.649 2.86-.806 3.381-1.586 5.226-6.604 6.24-6.708 6.24-.053 0-.234 0-.234-.079 0-.052.676-.468.806-.545 3.381-2.106 4.213-4.291 4.603-5.616.313-1.066.546-3.199.546-4.057 0-.156-.182-.885-.182-1.014 0-.156.182-.156.233-.156.208 0 1.015.364 1.196.442.859.338 1.092.493 1.092.65zm-1.741-1.951c-.209 0-.416 0-.572.364-.234.571-.494 1.17-1.431 1.17-.598 0-.598-.442-.598-.676 0-.156.052-.858.078-1.014.052-1.118.104-3.822.104-4.524 0-1.482-.077-3.12-.182-3.822-.026-.104-.13-.624-.13-.755 0-.285.182-.337.312-.337.183 0 .313.052 1.353.702.52.312.624.312 1.17.312h5.772c.416 0 .571-.026.754-.338.416-.702.494-.832.806-.832.338 0 1.898 1.3 1.898 1.664 0 .182-.13.312-.234.364-.468.338-.52.364-.572.598v2.496c0 .598.053 3.588.053 4.264 0 .468 0 1.43-1.274 1.43-.494 0-.546-.208-.649-.624-.131-.442-.416-.442-.729-.442-.624 0-.988 0-1.04.676-.052.442-.026 1.95-.026 7.748 0 1.482.104 2.106 1.561 2.106 1.534 0 2.132-.468 2.548-2.938.026-.208.234-1.299.364-1.299.104 0 .104.39.13.52 0 .442.104 1.534.312 1.976.104.234.832 1.248.832 1.534 0 .183-.338.858-1.014 1.274-.338.208-.962.546-3.042.546-3.198 0-3.302-1.534-3.302-3.198 0-1.222.104-6.942.104-8.19 0-.182 0-.754-.702-.754h-2.654zm.13-7.904c-.599 0-.937.13-.937.91v5.46c0 .754.364.858.962.858h5.643c.806 0 .962-.26.962-1.014 0-.053 0-5.305-.026-5.356 0-.754-.363-.858-.936-.858h-5.668zm-7.358 34.242c0 .208-.053.286-.313 1.04-.363 1.015-.624 1.977-.624 3.354 0 2.626 1.353 4.524 2.158 4.524.442 0 .546-.13 1.326-1.43.156-.26.598-.884.806-.884.078 0 .131.104.131.208s-.053.442-.078.52c-.286 1.196-.338 1.43-.338 1.976 0 .442.077.78.155 1.04.078.286.208.729.208.858 0 .52-.546.806-.988.806-1.664 0-4.939-2.73-4.939-7.696 0-.728.363-3.927.363-4.602 0-.52-.104-1.222-.182-1.508-.182-.649-.208-.728-.208-.884 0-.078.104-.104.156-.104 1.197.001 2.367 2.081 2.367 2.782zm12.688.598c1.326 1.066 2.313 2.913 2.313 4.967 0 .494-.052 1.716-1.3 1.716-1.274 0-1.274-1.404-1.274-1.741 0-2.159 0-3.251-1.378-4.629-.208-.208-1.248-1.014-1.248-1.17 0-.078.104-.13.234-.13.027 0 1.535.078 2.653.987z"/></g><g fill="#4A1F00"><path d="M100.982 41.607c0 .807.24 2.253 1.631 3.227.336.243.372.269.372.358 0 .076-.036.191-.18.191-.072 0-1.247-.486-1.439-.563-.756-.319-.768-.371-.768-1.203v-5.364c0-.191 0-.371.192-.371.191 0 .191.141.191.461 0 .308.036.857.624.973.203.039 2.962.039 3.31.039.48 0 3.202 0 3.418-.039.612-.115.612-.678.612-1.151 0-.09 0-.282.191-.282.204 0 .204.18.204.371v3.175c0 .205 0 .385-.204.385-.191 0-.191-.141-.191-.461 0-.269-.024-.858-.612-.973-.216-.039-2.771-.039-3.334-.039-3.19 0-3.202 0-3.394.039-.564.114-.624.64-.624.883v.344zm5.505 8.563c0 1.639-1.331 2.83-3.059 2.83-1.727 0-3.058-1.191-3.058-2.83s1.343-2.829 3.058-2.829c1.704 0 3.059 1.165 3.059 2.829zm-5.793 0c0 1.076 1.296 1.741 2.734 1.741 1.464 0 2.735-.679 2.735-1.741 0-.973-1.116-1.741-2.735-1.741-1.414 0-2.734.653-2.734 1.741zm-.095 8.691c0-.23.168-.23.192-.23.167 0 .191.166.191.23.036.333.048.461.252.614.191.128.396.128 2.326.128 1.14 0 1.584 0 1.968-.269.407-.281.443-.691.443-.845 0-.41-.204-.947-.54-1.306-.371-.385-.552-.385-1.931-.385-.312 0-1.775 0-1.991.039-.384.076-.516.294-.527.627-.012.128-.012.346-.191.346-.024 0-.192 0-.192-.256v-2.382c0-.256.168-.256.18-.256.204 0 .204.154.204.346 0 .32.191.513.359.576.276.103 1.871.103 2.291.103 1.943 0 2.243-.013 2.243-.576 0-.051-.048-.32-.048-.371s.012-.128.107-.128.108.051.204.512c.048.205.348 1.28.348 1.319 0 .128-.048.128-.527.128-.168 0-.264 0-.264.089 0 .09.312.448.359.525.312.512.432.96.432 1.434 0 .922-.468 1.306-.804 1.434-.468.18-.672.18-2.53.18-.36 0-1.595 0-1.812.09-.084.025-.348.153-.359.576 0 .204-.012.358-.204.358-.18 0-.18-.154-.18-.257v-2.393zm5.661 8.782c-.036.09-.288.5-.288.602 0 .064.132.243.252.41.191.243.264.538.264.768 0 .448-.348.743-.659.743-.265 0-.564-.218-.564-.525 0-.333.229-.474.42-.602.108-.063.12-.128.12-.179 0-.103-.036-.27-.191-.27-.061 0-.349.18-.42.218-.23.115-.494.192-.794.192-1.14 0-2.087-1.152-2.087-2.458 0-.115.096-.717.096-.857 0-.308-.335-.603-.479-.603-.144 0-.216.115-.252.205-.06.167-.084.243-.119 1.421-.024.832-.072 2.944-1.428 2.944-1.499 0-1.499-2.944-1.499-3.315 0-.973.107-2.791 1.079-2.791.624 0 .899.704 1.008 1.114.023.076.072.243.132.243s.156-.333.191-.397c.12-.204.265-.332.504-.332.42 0 .66.332.863.78.072.154.133.295.181.295s.191-.192.239-.269c.145-.205.696-.858 1.571-.858 1.163 0 2.087 1.178 2.087 2.433 0 .55-.168.947-.227 1.088zm-7.305-1.114c0 .807.204 2.048 1.008 2.048.576 0 .828-.474.828-2.573 0-.371 0-.589-.192-.922-.036-.063-.264-.447-.743-.447-.865 0-.901 1.561-.901 1.894zm3.683.026c0 1.357 1.583 1.357 1.799 1.357.743 0 1.728-.308 1.728-1.357 0-.769-.576-1.345-1.764-1.345-.9 0-1.763.372-1.763 1.345zm1.103 6.938c0-.167 0-.41-.384-.41-1.464 0-2.471 1.063-2.471 2.125 0 .589.323 1.152.672 1.549.06.077.467.372.467.487 0 .063-.06.128-.155.128-.264 0-1.499-.896-1.499-2.586 0-1.793 1.331-2.804 3.07-2.804 1.99 0 3.046 1.318 3.046 2.714 0 1.984-1.967 2.548-2.471 2.548-.216 0-.275-.129-.275-.385v-3.366zm.396 2.356c0 .281.06.422.348.422.456 0 1.68-.461 1.68-1.536 0-1.19-1.5-1.562-1.764-1.562s-.264.218-.264.333v2.343zm2.123 9.908c0 .128 0 .319-.192.319-.18 0-.191-.166-.204-.307-.012-.154-.132-.513-.875-.845-.456-.205-2.734-1.14-3.238-1.345-1.308-.551-1.379-.602-1.379-.769 0-.153.252-.281.312-.319.527-.27 1.451-.704 2.171-1.05 2.71-1.28 2.926-1.383 3.01-1.831.036-.23.061-.333.204-.333.192 0 .192.192.192.333v2.062c0 .128 0 .32-.192.32-.191 0-.191-.192-.191-.308 0-.397-.276-.461-.372-.461s-.168.038-.216.051c-.24.115-2.639 1.28-3.13 1.511-.24.115-.36.167-.36.256 0 .064.096.129.144.154.072.038 2.111.896 2.315.985.888.371.995.41 1.151.41.468 0 .468-.346.468-.615 0-.102 0-.294.191-.294.192 0 .192.192.192.308v1.768zm-5.661 2.276c0-.115 0-.294.192-.294.18 0 .191.153.203.396 0 .167.072.397.336.513.204.103 1.955.103 2.387.103.336 0 1.728-.014 1.896-.077.144-.064.203-.205.203-.358 0-.064-.036-.385-.036-.397 0-.051.024-.115.108-.115s.108.064.276.641c.048.166.323.96.323 1.063 0 .128-.107.128-.228.128-.54 0-3.238-.013-3.851-.013-.875 0-1.379 0-1.415.589-.012.256-.023.409-.203.409-.192 0-.192-.217-.192-.307v-2.281zm8.275.41c.384 0 .695.333.684.742 0 .41-.3.743-.684.743s-.695-.333-.695-.743c0-.421.311-.742.695-.742zm-2.998 4.34c0-.142 0-.346.191-.346.156 0 .168.063.216.435.024.205.264 1.28 1.799 1.28.108 0 .276 0 .276.167 0 .205-.18.205-.252.205h-1.547c-.108 0-.3.038-.3.319V96.2c0 .128-.024.358-.192.358-.071 0-.191-.077-.191-.346v-1.37c0-.038-.013-.23-.156-.294-.132-.052-1.476-.052-1.715-.052-.36 0-2.279 0-2.446.039-.672.166-.672.755-.672.883 0 .27.096.576.3.858.048.076.323.371.323.46 0 .052-.048.077-.096.077-.216 0-1.043-.794-1.043-1.869 0-1.344.947-1.344 2.158-1.344.036 0 2.639.025 3.047 0 .06 0 .3-.013.3-.32v-.497zm.384 8.295c0 .243-.12.269-.18.269-.181 0-.204-.217-.204-.346-.024-.512-.3-.575-.42-.575-.264 0-2.614 1.151-3.106 1.369-.156.064-.228.154-.228.218 0 .077.144.153.228.205.216.115 1.919.832 2.435 1.05.384.166.432.179.6.179.492 0 .492-.652.492-.896 0-.128.071-.23.191-.23.192 0 .192.166.192.307v2.228c0 .09 0 .282-.192.282-.191 0-.191-.18-.191-.32 0-.614-.696-.935-.899-1.024-.192-.089-3.778-1.612-3.874-1.664-1.476-.602-2.471-1.012-2.471-2.42 0-.819.527-.883.672-.883.348 0 .611.269.611.589 0 .346-.18.524-.336.679-.12.115-.168.204-.168.358 0 .652 1.031.985 1.331.985.12 0 .265-.038.384-.076.349-.129 3.61-1.652 3.91-1.806.288-.141.743-.436.815-.832.084-.409.084-.486.229-.486.18 0 .18.205.18.308v2.532zm3.166 18.292c-.012 0-1.895.832-2.027.832-.132 0-.216-.128-.216-.243s.036-.141.384-.409c1.439-1.088 1.607-2.228 1.607-2.766 0-2.01-2.303-3.047-4.378-3.047-2.782 0-3.873 1.741-3.873 3.265 0 .896.359 1.921 1.703 2.766.468.294.479.294.479.396s-.084.192-.192.192c-.107 0-.731-.32-1.211-.729-1.247-1.076-1.331-2.433-1.331-3.009 0-2.701 2.051-4.021 4.401-4.021 2.807 0 4.797 1.856 4.797 4.021 0 .32-.048.691-.144 1.088-.036.09-.191.691-.191.769 0 .103.035.256.119.346.192.204.216.23.216.332 0 .076-.071.179-.143.217zm-5.685 4.799c0-.166 0-.409-.384-.409-1.464 0-2.471 1.063-2.471 2.125 0 .589.323 1.152.672 1.549.06.077.467.372.467.487 0 .063-.06.128-.155.128-.264 0-1.499-.896-1.499-2.586 0-1.793 1.331-2.804 3.07-2.804 1.99 0 3.046 1.318 3.046 2.714 0 1.984-1.967 2.548-2.471 2.548-.216 0-.275-.129-.275-.385v-3.367zm.396 2.356c0 .281.06.422.348.422.456 0 1.68-.461 1.68-1.536 0-1.19-1.5-1.562-1.764-1.562s-.264.218-.264.333v2.343zm-3.538 3.725c0-.077 0-.308.18-.308.204 0 .204.205.204.371 0 .18.06.487.443.603.252.076 4.51.076 5.157.076.349 0 1.871 0 2.1-.076.071-.026.203-.115.203-.359 0-.051-.036-.345-.036-.422s.049-.115.097-.115c.107 0 .228.422.288.627.023.09.335 1.165.335 1.178 0 .077-.035.077-.275.077-.947 0-5.565-.025-6.608-.025-1.271 0-1.667 0-1.703.665-.012.282-.012.41-.204.41-.18 0-.18-.167-.18-.32v-2.382zm3.142 6.194c0-.166 0-.409-.384-.409-1.464 0-2.471 1.063-2.471 2.125 0 .589.323 1.152.672 1.549.06.077.467.372.467.487 0 .063-.06.128-.155.128-.264 0-1.499-.896-1.499-2.586 0-1.793 1.331-2.804 3.07-2.804 1.99 0 3.046 1.318 3.046 2.714 0 1.984-1.967 2.548-2.471 2.548-.216 0-.275-.129-.275-.385v-3.367zm.396 2.357c0 .281.06.422.348.422.456 0 1.68-.461 1.68-1.536 0-1.19-1.5-1.562-1.764-1.562s-.264.218-.264.333v2.343zm-3.491 5.017c-.264-.23-.275-.256-.275-.308 0-.09.144-.09.18-.09.204 0 1.175.014 1.391.014.696 0 6.333 0 6.465-.026.432-.076.516-.422.516-.652 0-.039-.023-.243-.023-.282 0-.102.048-.141.096-.141.084 0 .107.052.228.513.12.46.348 1.318.348 1.382a.12.12 0 01-.06.103c-.036.025-.12.025-2.039.025h-1.271c-.071.014-.216.039-.216.167 0 .077.204.524.216.537.229.5.288.935.288 1.191 0 1.216-1.091 2.458-2.95 2.458-1.691 0-3.166-1.076-3.166-2.51 0-.589.264-1.178.491-1.498.084-.115.168-.23.168-.384s-.11-.243-.387-.499zm4.894.948c-.384-.396-.66-.41-2.375-.41-.695 0-1.211-.013-1.619.23-.504.295-.659.896-.659 1.28 0 1.102 1.115 1.767 2.519 1.767 1.427 0 2.566-.665 2.566-1.767 0-.384-.168-.819-.432-1.1zm-4.941 6.387c0-.09 0-.333.192-.333.191 0 .191.128.191.486 0 .153.012.423.264.589.168.115.313.141 1.991.141.384 0 2.135 0 2.339-.076.132-.039.228-.192.228-.397 0-.089-.107-.524-.107-.614 0-.077.06-.128.119-.128.097 0 .108.063.276.627.048.18.396 1.345.396 1.408 0 .039-.012.052-.036.064h-.527c-.636 0-.708 0-.708.128 0 .064.024.09.24.269.132.103 1.031.871 1.031 1.806 0 .474-.275.755-.684.755a.638.638 0 01-.636-.64c0-.27.132-.397.252-.5.072-.076.204-.191.204-.371 0-.319-.36-.845-.779-1.088-.517-.308-.792-.358-2.567-.358-1.091 0-1.295.038-1.295.935 0 .103-.036.269-.191.269-.192 0-.192-.23-.192-.333v-2.639zm4.257 11.482c-.408.014-2.363-.013-2.807-.013-.563 0-1.067 0-1.067.513 0 .128.072.333.132.409.012.013.072.09.072.103 0 .025-.013.064-.072.064-.216 0-.743-.525-.743-1.076 0-.409.287-.742.539-.845.084-.025.192-.063.192-.179 0-.077-.084-.192-.168-.308a2.99 2.99 0 01-.563-1.689c0-.769.384-1.626 1.271-1.626 1.428 0 2.039 2.15 2.243 2.893.216.769.24.846.863.846 1.031 0 1.416-.615 1.416-1.204 0-.845-.564-.985-.732-1.023-.359-.09-.791-.18-.791-.679 0-.333.252-.602.588-.602.707 0 1.259 1.241 1.259 2.316-.001 1.012-.432 2.074-1.632 2.1zm-3.214-.998c.145.063.192.09 1.607.09.24 0 .444 0 .444-.27 0-.461-.804-2.381-1.932-2.381-.323 0-.875.218-.875 1.101.001.435.36 1.28.756 1.46zm4.234 4.146c0-.142 0-.346.191-.346.156 0 .168.063.216.435.024.205.264 1.28 1.799 1.28.108 0 .276 0 .276.167 0 .205-.18.205-.252.205h-1.547c-.108 0-.3.038-.3.319v1.357c0 .128-.024.358-.192.358-.071 0-.191-.077-.191-.346v-1.37c0-.038-.013-.23-.156-.294-.132-.052-1.476-.052-1.715-.052-.36 0-2.279 0-2.446.039-.672.166-.672.755-.672.883 0 .27.096.576.3.858.048.076.323.371.323.46 0 .052-.048.077-.096.077-.216 0-1.043-.794-1.043-1.869 0-1.344.947-1.344 2.158-1.344.036 0 2.639.025 3.047 0 .06 0 .3-.013.3-.32v-.497zm-5.277 5.863c0-.115 0-.294.192-.294.18 0 .191.153.203.396 0 .167.072.397.336.513.204.102 1.955.102 2.387.102.336 0 1.728-.013 1.896-.076.144-.064.203-.205.203-.358 0-.064-.036-.384-.036-.397 0-.051.024-.115.108-.115s.108.064.276.641c.048.166.323.96.323 1.063 0 .128-.107.128-.228.128-.54 0-3.238-.013-3.851-.013-.875 0-1.379 0-1.415.589-.012.256-.023.409-.203.409-.192 0-.192-.217-.192-.307v-2.281zm8.275.41c.384 0 .695.333.684.742 0 .41-.3.743-.684.743s-.695-.333-.695-.743c0-.422.311-.742.695-.742zm-2.387 6.874c0 1.639-1.331 2.83-3.059 2.83-1.727 0-3.058-1.191-3.058-2.83s1.343-2.829 3.058-2.829c1.704 0 3.059 1.165 3.059 2.829zm-5.793 0c0 1.076 1.296 1.741 2.734 1.741 1.464 0 2.735-.679 2.735-1.741 0-.973-1.116-1.741-2.735-1.741-1.414-.001-2.734.653-2.734 1.741zm-.095 8.691c0-.23.168-.23.192-.23.167 0 .191.166.191.23.036.333.048.461.252.614.191.128.396.128 2.326.128 1.14 0 1.584 0 1.968-.269.407-.281.443-.691.443-.845 0-.41-.204-.947-.54-1.306-.371-.385-.552-.385-1.931-.385-.312 0-1.775 0-1.991.039-.384.076-.516.294-.527.627-.012.128-.012.346-.191.346-.024 0-.192 0-.192-.256v-2.382c0-.256.168-.256.18-.256.204 0 .204.154.204.346 0 .32.191.513.359.576.276.103 1.871.103 2.291.103 1.943 0 2.243-.013 2.243-.576 0-.051-.048-.32-.048-.371s.012-.128.107-.128.108.051.204.512c.048.205.348 1.28.348 1.319 0 .128-.048.128-.527.128-.168 0-.264 0-.264.089 0 .09.312.448.359.525.312.512.432.96.432 1.434 0 .922-.468 1.306-.804 1.434-.468.18-.672.18-2.53.18-.36 0-1.595 0-1.812.09-.084.025-.348.153-.359.576 0 .204-.012.358-.204.358-.18 0-.18-.154-.18-.257v-2.393z"/></g></g></g></svg>