<svg version="1.1" baseProfile="tiny" id="レイヤー_1" xmlns="http://www.w3.org/2000/svg" x="0" y="0" width="166.921" height="40.726" viewBox="0 0 166.921 40.726" xml:space="preserve"><metadata><?xpacket begin="﻿" id="W5M0MpCehiHzreSzNTczkc9d"?><x:xmpmeta xmlns:x="adobe:ns:meta/" x:xmptk="Adobe XMP Core 5.3-c011 66.145661, 2012/02/06-14:56:27"><rdf:RDF xmlns:rdf="http://www.w3.org/1999/02/22-rdf-syntax-ns#"><rdf:Description xmlns:dc="http://purl.org/dc/elements/1.1/"><dc:format>image/svg+xml</dc:format><dc:title><rdf:Alt><rdf:li xml:lang="x-default">Web</rdf:li></rdf:Alt></dc:title></rdf:Description><rdf:Description xmlns:xmp="http://ns.adobe.com/xap/1.0/" xmlns:xmpGImg="http://ns.adobe.com/xap/1.0/g/img/"><xmp:CreatorTool>Adobe Illustrator CS6 (Windows)</xmp:CreatorTool><xmp:CreateDate>2017-07-11T15:53:46+09:00</xmp:CreateDate><xmp:ModifyDate>2017-07-11T15:53:46+09:00</xmp:ModifyDate><xmp:MetadataDate>2017-07-11T15:53:46+09:00</xmp:MetadataDate><xmp:Thumbnails><rdf:Alt><rdf:li rdf:parseType="Resource"><xmpGImg:width>256</xmpGImg:width><xmpGImg:height>64</xmpGImg:height><xmpGImg:format>JPEG</xmpGImg:format><xmpGImg:image>/9j/4AAQSkZJRgABAgEASABIAAD/7QAsUGhvdG9zaG9wIDMuMAA4QklNA+0AAAAAABAASAAAAAEA AQBIAAAAAQAB/+4ADkFkb2JlAGTAAAAAAf/bAIQABgQEBAUEBgUFBgkGBQYJCwgGBggLDAoKCwoK DBAMDAwMDAwQDA4PEA8ODBMTFBQTExwbGxscHx8fHx8fHx8fHwEHBwcNDA0YEBAYGhURFRofHx8f Hx8fHx8fHx8fHx8fHx8fHx8fHx8fHx8fHx8fHx8fHx8fHx8fHx8fHx8fHx8f/8AAEQgAQAEAAwER AAIRAQMRAf/EAaIAAAAHAQEBAQEAAAAAAAAAAAQFAwIGAQAHCAkKCwEAAgIDAQEBAQEAAAAAAAAA AQACAwQFBgcICQoLEAACAQMDAgQCBgcDBAIGAnMBAgMRBAAFIRIxQVEGE2EicYEUMpGhBxWxQiPB UtHhMxZi8CRygvElQzRTkqKyY3PCNUQnk6OzNhdUZHTD0uIIJoMJChgZhJRFRqS0VtNVKBry4/PE 1OT0ZXWFlaW1xdXl9WZ2hpamtsbW5vY3R1dnd4eXp7fH1+f3OEhYaHiImKi4yNjo+Ck5SVlpeYmZ qbnJ2en5KjpKWmp6ipqqusra6voRAAICAQIDBQUEBQYECAMDbQEAAhEDBCESMUEFURNhIgZxgZEy obHwFMHR4SNCFVJicvEzJDRDghaSUyWiY7LCB3PSNeJEgxdUkwgJChgZJjZFGidkdFU38qOzwygp 0+PzhJSktMTU5PRldYWVpbXF1eX1RlZmdoaWprbG1ub2R1dnd4eXp7fH1+f3OEhYaHiImKi4yNjo +DlJWWl5iZmpucnZ6fkqOkpaanqKmqq6ytrq+v/aAAwDAQACEQMRAD8A9U4q8V/5yQ85fmB5PXy5 qvlXU/q8V1dNZXVg8MEsUsjAPESXQyCoVlPFvClD1hMkNuKIPN7Pb+v6Ef1jh9Y4L63p14c6fFxr vSvSuTal+KuxV2KuxV2KuxV2KuxVpmCqWY0UCpPsMVQNhr+jalpR1XTLyLUdP4swuLN1nVuAqwUx lqt7dcbTSXeTfP8A5Q852L3vlvUo7+KIgTooZJYy3QSRyBXWtDSo37YAbTKJHNkGFi7FXYq7FXg/ /OP/AOa/nDzR5u8y6BqjtrGk2EsstlrYSOMxp6xSKJ+ARWEijkm3LY9R0hGVt2SAABe8ZNpdirsV dirsVdirsVdirsVdirxz/nJPyOt95Sm86aVLNY+aPLSCe2vraR4nNsGHrIShH2VYuD12p0OQmG3F Lekz0j88/wAvtM8gaBqnmDzDb/pC5062kubZH+sXRn9JRKGijBevqchVgBXDxCkHGb2Zt5O846B5 w0GHXNBnNxp85ZFdkaNg6Hi6srgGoOEG2EokHd5bfeXf+coovMN3Z6T5n0+XQFcNY6hqENuJfSbo jpDbsxdOhJHxda+Eak2XCuTAPz48n/m5b6N5eufNHnCHVkm1iG2tLe3s4rVba4mRzHKJI1R34iM9 RtkZAs8co9A9K1L8lPzH1KEx3f5rasAwowgt1tgdqbiCaPbJcJ72AmO5kP5W+Q/PflBru013zfJ5 n0p0X6ilzC4nikBPI+q8szcOO3Ak+1O5AIYzkDyD0DJMGNecvzI8m+TJLBPMt/8Ao9dS9UWkrRSy RkwhS4Zo1cIf3gpy64CaZRiTySWX8/PyeiQu3mm0IHZPUc/8CqE4OIJ8OXchJv8AnJH8lIQC/maM g7DhbXkn/EIWx4wnwpdyCm/5yj/JaNiE1qWYAV5JZ3YHy+ONTjxhfCkzLyH+YvlTz1pcupeXLo3E MEno3CSI0Ukb8QwDK4HUHYiowg2xlEjmyXCxaZlVSzEKqipJ2AAxV84f84l6XPPq/nPzJatJDoFz dm2sLUE+kzc2mLFenKON0AP+Ucrg35jyCP8A+cV9DtrDVfzBkQASRar9RUL9lY7d5iAvz5/hhgjK eT0jzz+YUlhqtr5Q8srHfedNU/uYD8UVjB+3eXdDsiKaqnVzsMJLCMep5MysLaS1sbe2kne5khjS N7mWnqSMqgF3pQcmO5pkmCvirzP88PzAutB0SPy35fVrrzp5lrZ6PZw7yIsnwSXB6cQgrxJ/a36K 1IyLZjje55PO9D/K386/yw8m6w+h+Y9HgsrWJ9TmX6r6k8rwwcpUMkkfQcKJUnx+GpGRAIZmcZFC flppX5xfm55UudY1P8wb/R7YTyWkMVraRRCXgikvztntSVq3EinY79cRZWRjE8nrn5T/AJd+avJV ve2ms+bbjzLaSlPqMVxGymALXlxZ5J3+Ko+HlQU98lEU1zkD0Z/kmDHfOP5heUvJkdnN5kvvqEF8 7RW8xilkQui8irNEj8duleuAmmUYk8kjl/Pv8nooy7eabMqOoX1HO+32VQnBxBPhy7kHN/zkh+Sk Khn8zRkE0+C2vJD9yQsceMJ8KXcgpv8AnKL8lY34prckopXmlndgfL44lP4Y8YXwpMv8g/mX5Q8+ WFxeeXLtrhLR1juopI3ikjZxVeSsBswGxFRhBtjKJHNlGFig9Y05tS02eyW7uLFplot5aOI54zWo ZGIYV+YIxSC8fuv+cbtR1mG5g81fmDrus28nP6vbep6cKE/3Zkjdp1crsTQLXIcDZ4tcgxb8htF/ KDSvJF5decLXSItc0rUrqw1C61QwuxeIgr6az1p8JoOK7kHvgjVMshlezM5P+covyY06+j0u1uZ2 tEIjF1a2rC1jFd6A8H4j/JQ+2HjDHwpIPy/+eGpfmD+aNj5e8lwPF5X04yXWuatMlHnijUhERWH7 tHkKjf42/wAmhqiVnZTj4RZQH/OVvmTTl0fy7pVte276nb67bXM1osiNPF6UDlS8YNVFJ1PxDuMZ lOEPWPP/AJKh82aG1ol1Npuq29ZtI1a2d4pra5A+FwyEEoejr3HvQiRFtcZU80/IP84PM2ua1qXk LzpH/wA7NookpeBQplWCQRSpKBReaswoy7MPcVaMZdGeSAG4e4ZNqSTzh5K8s+cNHbSPMVil9ZFh IiksjpIvR45EKujfI7jY7YCLTGRHJINP/Iz8orCNY4PKtg6rShuIzctt4tOZGP0nBwhkcku9Nofy 0/LiBi0HlXR4mIoSlhaqSPojw0EcR71b/AHkT/qW9L/6Qrf/AJoxoI4j3pnpukaTpcBt9MsoLG3Z i7Q20SQoWIoWKoFFdsKkovFDy789vN2pW2ixeSvLMbXfm/zUrWtrbx7tDav8E9zIR9hQpKhjTuf2 TkZHo2Yx1PIMp/LPyNaeR/JWm+XLdhK9qnK7uAKercSHnK/jTkaLXooAwgUxlKzb5g/Lzzz+aOj6 75n8g+UtFX/EWrarPcNd3IJax+IpK8ikGOijiQzbezVAysE8nIlEGiX0d+Vv5XWXkmwnuLm5fVfN GqES63rc5LSzSHfgparCNT07nqfAWAU0TnbOcLB2KsY0H8v9H0vzDqHma4d9S8x6iSsmpXNC0MFf gtrdQOMUSLtQbt1YnAAyMtqYT/zkX5ruovLkHkXQ1Nz5o84OLK2tUPxLbM1JpH/lVh8FT2LH9k4J Hoyxjez0Z/5C8pWnlDyfpXly1IdNOgWOSUCgklYl5pKducjM1PfCBTCRs2n2FDsVSfzX5R8uebNH k0fzBZJfafIwf0nLKVdfsujoVdGFTup9uhwEWkEjkxvTfyI/KHToBDB5WspFFPiuVa5c0/ypzI2D hDI5Jd6cQ/ln+XEDF4PKmjxORQsmn2qmnhUR4aCOI96t/gDyJ/1Lel/9IVv/AM0Y0EcR70y0zRdG 0qJ4tLsLewikPJ47WJIVY9KkIFBOFSbRmKHn35paJ+cF36N7+XvmKHT2ijMdxpV1b27pK1SRKk0k UrK9DTifh2HvWJvozgY9WLaf+UX5xa1Cr+dfzIvYOY/e2OiBbYUPUeuiwjp1HpUwcJ6lkZxHIMK8 g/lD5E0v89PMXlHzBanXI1s4tS0OfUGLMysVMwkVeKSvykIqR+yTTfAIi2cpnhsPoew8m+UNOVF0 /Q9PtBGQ0YgtYY+JHQjio3ydNBkUVpmg6HpTXL6Xp1rYPeSGa7a1hjhM0hrV5CgXm2/U74aUl5F+ d35DX3nnzboGvaPLbWktuyw61JMWVmgjkV43QKrc3UcxQkV+HfISjbZjyUKe15NqSW08leVbTzPd +aLbTYotfvoxDdagteboOIoRXiP7takCppgpPEapOsKHYq7FXYq7FXYq7FULFpOlw6jPqcVpEmo3 KLHcXgRRM6J9hGenIqvYVpim0VihRSxso7uW8jt40u51VJrhUUSOqV4KzgcmC1NK9MVVsVdirsVS bzbrWq6TpDTaPpUus6rMwhsbKKioZWBIaaVqLFEtKszH2G5GApAtiv5dfljdaTql15v823Sax551 IUnu1B9C0iIoLa0VvsoBsWpU/fUAMpT6Dk9DyTB2KuxV2KuxV2KuxV2KuxV2KuxV4r+Zvl3zDafn r5A84aPZy3NvMf0RqbwqSscbM9XlpsF9K4dqn+T5ZAjdtiRwkPasm1OxV2KuxV2KuxV2KuxV2Kux V2KuxV2KuxV2KuxV2KuxV2KuxV2KuxV2KuxV2KuxV2KuxV2KuxV2KuxV2KuxV2KuxV2KuxV2KuxV 2KuxV2KuxV2KuxV2KuxV2KuxV2KuxV2KuxV2KuxV2KuxV2KuxV2KuxV2KuxV2KvIXk8paH+d2pPq l2LOE6Zb3tsk9xKIvrUk7rI6ozlKlVG1KZjbDJv3OT6jjFd6L/Lay8tXf5jeb9Q0mdrq0s/qKWBW eWSCIz27Gf01LFauw3r07U3w4wOIkIykiIBZJafmZpFzNaH6hfw6df37aXZ6pNFGkEl0pZQoT1Pr AVnjZQzRAVG5GWDKGBxFC2sKp+cmqxK8npXHl+1mkQyyECRrueMsgLfB8Maj4adMA+s+5T9A97X5 Mo0fk2SFpWn9HU9SiWV2LFlS9lVTVix6Dxxw/T8SnP8AV8AyXzH5k07y/Yx3V76jtcTx2lnawrzm nuJjSOGJSVBZqHqQANyQMnKQDXGJKC0/zvYXMettc2V7psnl8c9RhuoQW4GIzB4mgaeOWqCtEYnx G4wCfPyScZ281LRfP1jqeo2FhLp19ps2q2r3umG9jiVZ4Y+PPj6UspRlWRWKyBTQ4I5LNJljoWxH RfM9j5R1Pzd61ve30M/mGK0tLe3/ANJmMtxZQyBVWWQO1Wr0rT5ZXGXCT72yUeID3M21TzlZabDp YubO6/SWsSGHT9HRYmu3dVLvX956ShEHJ2aSgHfLTOq82oQu/JF6B5istaS6EUcttd2Extr+xuAq zQShQ4D8GkQhkZWVkYqQdjhjK0SjSaZJi7FXYq7FXYq7FXYq7FXYq7FXYq7FXYq7FXYq7FXYq7FX Yq7FXYq8801NeX84NU1SXQ7yPSLnT4NOhv2MBQyQTM5cqJS4Rg+x4126ZSL4ya2bjXABe67ygfMK /mR5pvrzRL2z0rWFshY3U31fiGs4XjlMgSV3HMsOGx96YwviO3NZ1wDfcMQnsPzD1G10TVNW0PU7 7zDp+uQ3upp68EdnDbwzMoisYPWVX/dup5lamh5PldSNEg3bbcRYBFUzW3GuD817/VX0W7XSzo0N jDeVgKvNDNLcsABLy39bgNvtDw3y3fjuujUa4Kvqu/J2w1jTvKcljq2nT6bdJe3cwjnMR5JczvMh UxPINlehr3xwggbrmIJ2XfmdoutXTeXda0m2a/l8v6nHe3GnRsqvNblGjkMXMqpkQNVQSK745YnY joUYpDcHqEbeeYPNt75f1q60fQpbW9t7dv0OmoNGklxcBT/ulS3FAacebgsewG5JkSDQQIxBFlhW h6X5o/xp5R1qfRtWn9O2u7fW9U1GeHmJrqONuSWwlKwwxvGwoiL12B25VRB4gaLbIjhIsJPqflHz bLr/AJi84afoN/b+ZLPVbe98uF5oTFcW/pLa3MLxibgoljQl2+1QqO1MiYGzIDe9mQnGhEnat2S+ fND1XXL7yf5sk0C6uYdMNzHq/l/1EF2kd2ip6kfCUI7RtHWgf4hTp2syRJo0wxyAuN/FlXkfTbG1 GoT2Pl99Ct7qRCDcMDdXLICpklQNKUUdE5Py67DvOA8qa8h87ZRljW7FXYq7FXYq7FXYq7FXYq7F XYq7FXYq7FXYq7FXYq7FXYq7FXYq/wD/2Q==</xmpGImg:image></rdf:li></rdf:Alt></xmp:Thumbnails></rdf:Description><rdf:Description xmlns:xmpMM="http://ns.adobe.com/xap/1.0/mm/" xmlns:stRef="http://ns.adobe.com/xap/1.0/sType/ResourceRef#" xmlns:stEvt="http://ns.adobe.com/xap/1.0/sType/ResourceEvent#"><xmpMM:RenditionClass>proof:pdf</xmpMM:RenditionClass><xmpMM:OriginalDocumentID>uuid:65E6390686CF11DBA6E2D887CEACB407</xmpMM:OriginalDocumentID><xmpMM:DocumentID>xmp.did:8907AA7AFA65E711A588CAE2881F51E6</xmpMM:DocumentID><xmpMM:InstanceID>xmp.iid:8907AA7AFA65E711A588CAE2881F51E6</xmpMM:InstanceID><xmpMM:DerivedFrom rdf:parseType="Resource"><stRef:instanceID>uuid:c5b5eddb-66da-6741-a40d-cc810f9d042d</stRef:instanceID><stRef:documentID>xmp.did:FB05051EC465E111835FF2FC000FBA2B</stRef:documentID><stRef:originalDocumentID>uuid:65E6390686CF11DBA6E2D887CEACB407</stRef:originalDocumentID><stRef:renditionClass>proof:pdf</stRef:renditionClass></xmpMM:DerivedFrom><xmpMM:History><rdf:Seq><rdf:li rdf:parseType="Resource"><stEvt:action>saved</stEvt:action><stEvt:instanceID>xmp.iid:8907AA7AFA65E711A588CAE2881F51E6</stEvt:instanceID><stEvt:when>2017-07-11T15:53:46+09:00</stEvt:when><stEvt:softwareAgent>Adobe Illustrator CS6 (Windows)</stEvt:softwareAgent><stEvt:changed>/</stEvt:changed></rdf:li></rdf:Seq></xmpMM:History></rdf:Description><rdf:Description xmlns:illustrator="http://ns.adobe.com/illustrator/1.0/"><illustrator:StartupProfile>Web</illustrator:StartupProfile></rdf:Description><rdf:Description xmlns:xmpTPg="http://ns.adobe.com/xap/1.0/t/pg/" xmlns:stDim="http://ns.adobe.com/xap/1.0/sType/Dimensions#" xmlns:xmpG="http://ns.adobe.com/xap/1.0/g/"><xmpTPg:NPages>1</xmpTPg:NPages><xmpTPg:HasVisibleTransparency>False</xmpTPg:HasVisibleTransparency><xmpTPg:HasVisibleOverprint>False</xmpTPg:HasVisibleOverprint><xmpTPg:MaxPageSize rdf:parseType="Resource"><stDim:w>166.920898</stDim:w><stDim:h>40.726074</stDim:h><stDim:unit>Pixels</stDim:unit></xmpTPg:MaxPageSize><xmpTPg:PlateNames><rdf:Seq><rdf:li>Cyan</rdf:li><rdf:li>Magenta</rdf:li><rdf:li>Yellow</rdf:li><rdf:li>Black</rdf:li></rdf:Seq></xmpTPg:PlateNames><xmpTPg:SwatchGroups><rdf:Seq><rdf:li rdf:parseType="Resource"><xmpG:groupName>初期設定のスウォッチグループ</xmpG:groupName><xmpG:groupType>0</xmpG:groupType><xmpG:Colorants><rdf:Seq><rdf:li rdf:parseType="Resource"><xmpG:swatchName>ホワイト</xmpG:swatchName><xmpG:mode>RGB</xmpG:mode><xmpG:type>PROCESS</xmpG:type><xmpG:red>255</xmpG:red><xmpG:green>255</xmpG:green><xmpG:blue>255</xmpG:blue></rdf:li><rdf:li rdf:parseType="Resource"><xmpG:swatchName>ブラック</xmpG:swatchName><xmpG:mode>RGB</xmpG:mode><xmpG:type>PROCESS</xmpG:type><xmpG:red>0</xmpG:red><xmpG:green>0</xmpG:green><xmpG:blue>0</xmpG:blue></rdf:li><rdf:li rdf:parseType="Resource"><xmpG:swatchName>RGB レッド</xmpG:swatchName><xmpG:mode>RGB</xmpG:mode><xmpG:type>PROCESS</xmpG:type><xmpG:red>255</xmpG:red><xmpG:green>0</xmpG:green><xmpG:blue>0</xmpG:blue></rdf:li><rdf:li rdf:parseType="Resource"><xmpG:swatchName>RGB イエロー</xmpG:swatchName><xmpG:mode>RGB</xmpG:mode><xmpG:type>PROCESS</xmpG:type><xmpG:red>255</xmpG:red><xmpG:green>255</xmpG:green><xmpG:blue>0</xmpG:blue></rdf:li><rdf:li rdf:parseType="Resource"><xmpG:swatchName>RGB グリーン</xmpG:swatchName><xmpG:mode>RGB</xmpG:mode><xmpG:type>PROCESS</xmpG:type><xmpG:red>0</xmpG:red><xmpG:green>255</xmpG:green><xmpG:blue>0</xmpG:blue></rdf:li><rdf:li rdf:parseType="Resource"><xmpG:swatchName>RGB シアン</xmpG:swatchName><xmpG:mode>RGB</xmpG:mode><xmpG:type>PROCESS</xmpG:type><xmpG:red>0</xmpG:red><xmpG:green>255</xmpG:green><xmpG:blue>255</xmpG:blue></rdf:li><rdf:li rdf:parseType="Resource"><xmpG:swatchName>RGB ブルー</xmpG:swatchName><xmpG:mode>RGB</xmpG:mode><xmpG:type>PROCESS</xmpG:type><xmpG:red>0</xmpG:red><xmpG:green>0</xmpG:green><xmpG:blue>255</xmpG:blue></rdf:li><rdf:li rdf:parseType="Resource"><xmpG:swatchName>RGB マゼンタ</xmpG:swatchName><xmpG:mode>RGB</xmpG:mode><xmpG:type>PROCESS</xmpG:type><xmpG:red>255</xmpG:red><xmpG:green>0</xmpG:green><xmpG:blue>255</xmpG:blue></rdf:li><rdf:li rdf:parseType="Resource"><xmpG:swatchName>R=193 G=39 B=45</xmpG:swatchName><xmpG:mode>RGB</xmpG:mode><xmpG:type>PROCESS</xmpG:type><xmpG:red>193</xmpG:red><xmpG:green>39</xmpG:green><xmpG:blue>45</xmpG:blue></rdf:li><rdf:li rdf:parseType="Resource"><xmpG:swatchName>R=237 G=28 B=36</xmpG:swatchName><xmpG:mode>RGB</xmpG:mode><xmpG:type>PROCESS</xmpG:type><xmpG:red>237</xmpG:red><xmpG:green>28</xmpG:green><xmpG:blue>36</xmpG:blue></rdf:li><rdf:li rdf:parseType="Resource"><xmpG:swatchName>R=241 G=90 B=36</xmpG:swatchName><xmpG:mode>RGB</xmpG:mode><xmpG:type>PROCESS</xmpG:type><xmpG:red>241</xmpG:red><xmpG:green>90</xmpG:green><xmpG:blue>36</xmpG:blue></rdf:li><rdf:li rdf:parseType="Resource"><xmpG:swatchName>R=247 G=147 B=30</xmpG:swatchName><xmpG:mode>RGB</xmpG:mode><xmpG:type>PROCESS</xmpG:type><xmpG:red>247</xmpG:red><xmpG:green>147</xmpG:green><xmpG:blue>30</xmpG:blue></rdf:li><rdf:li rdf:parseType="Resource"><xmpG:swatchName>R=251 G=176 B=59</xmpG:swatchName><xmpG:mode>RGB</xmpG:mode><xmpG:type>PROCESS</xmpG:type><xmpG:red>251</xmpG:red><xmpG:green>176</xmpG:green><xmpG:blue>59</xmpG:blue></rdf:li><rdf:li rdf:parseType="Resource"><xmpG:swatchName>R=252 G=238 B=33</xmpG:swatchName><xmpG:mode>RGB</xmpG:mode><xmpG:type>PROCESS</xmpG:type><xmpG:red>252</xmpG:red><xmpG:green>238</xmpG:green><xmpG:blue>33</xmpG:blue></rdf:li><rdf:li rdf:parseType="Resource"><xmpG:swatchName>R=217 G=224 B=33</xmpG:swatchName><xmpG:mode>RGB</xmpG:mode><xmpG:type>PROCESS</xmpG:type><xmpG:red>217</xmpG:red><xmpG:green>224</xmpG:green><xmpG:blue>33</xmpG:blue></rdf:li><rdf:li rdf:parseType="Resource"><xmpG:swatchName>R=140 G=198 B=63</xmpG:swatchName><xmpG:mode>RGB</xmpG:mode><xmpG:type>PROCESS</xmpG:type><xmpG:red>140</xmpG:red><xmpG:green>198</xmpG:green><xmpG:blue>63</xmpG:blue></rdf:li><rdf:li rdf:parseType="Resource"><xmpG:swatchName>R=57 G=181 B=74</xmpG:swatchName><xmpG:mode>RGB</xmpG:mode><xmpG:type>PROCESS</xmpG:type><xmpG:red>57</xmpG:red><xmpG:green>181</xmpG:green><xmpG:blue>74</xmpG:blue></rdf:li><rdf:li rdf:parseType="Resource"><xmpG:swatchName>R=0 G=146 B=69</xmpG:swatchName><xmpG:mode>RGB</xmpG:mode><xmpG:type>PROCESS</xmpG:type><xmpG:red>0</xmpG:red><xmpG:green>146</xmpG:green><xmpG:blue>69</xmpG:blue></rdf:li><rdf:li rdf:parseType="Resource"><xmpG:swatchName>R=0 G=104 B=55</xmpG:swatchName><xmpG:mode>RGB</xmpG:mode><xmpG:type>PROCESS</xmpG:type><xmpG:red>0</xmpG:red><xmpG:green>104</xmpG:green><xmpG:blue>55</xmpG:blue></rdf:li><rdf:li rdf:parseType="Resource"><xmpG:swatchName>R=34 G=181 B=115</xmpG:swatchName><xmpG:mode>RGB</xmpG:mode><xmpG:type>PROCESS</xmpG:type><xmpG:red>34</xmpG:red><xmpG:green>181</xmpG:green><xmpG:blue>115</xmpG:blue></rdf:li><rdf:li rdf:parseType="Resource"><xmpG:swatchName>R=0 G=169 B=157</xmpG:swatchName><xmpG:mode>RGB</xmpG:mode><xmpG:type>PROCESS</xmpG:type><xmpG:red>0</xmpG:red><xmpG:green>169</xmpG:green><xmpG:blue>157</xmpG:blue></rdf:li><rdf:li rdf:parseType="Resource"><xmpG:swatchName>R=41 G=171 B=226</xmpG:swatchName><xmpG:mode>RGB</xmpG:mode><xmpG:type>PROCESS</xmpG:type><xmpG:red>41</xmpG:red><xmpG:green>171</xmpG:green><xmpG:blue>226</xmpG:blue></rdf:li><rdf:li rdf:parseType="Resource"><xmpG:swatchName>R=0 G=113 B=188</xmpG:swatchName><xmpG:mode>RGB</xmpG:mode><xmpG:type>PROCESS</xmpG:type><xmpG:red>0</xmpG:red><xmpG:green>113</xmpG:green><xmpG:blue>188</xmpG:blue></rdf:li><rdf:li rdf:parseType="Resource"><xmpG:swatchName>R=46 G=49 B=146</xmpG:swatchName><xmpG:mode>RGB</xmpG:mode><xmpG:type>PROCESS</xmpG:type><xmpG:red>46</xmpG:red><xmpG:green>49</xmpG:green><xmpG:blue>146</xmpG:blue></rdf:li><rdf:li rdf:parseType="Resource"><xmpG:swatchName>R=27 G=20 B=100</xmpG:swatchName><xmpG:mode>RGB</xmpG:mode><xmpG:type>PROCESS</xmpG:type><xmpG:red>27</xmpG:red><xmpG:green>20</xmpG:green><xmpG:blue>100</xmpG:blue></rdf:li><rdf:li rdf:parseType="Resource"><xmpG:swatchName>R=102 G=45 B=145</xmpG:swatchName><xmpG:mode>RGB</xmpG:mode><xmpG:type>PROCESS</xmpG:type><xmpG:red>102</xmpG:red><xmpG:green>45</xmpG:green><xmpG:blue>145</xmpG:blue></rdf:li><rdf:li rdf:parseType="Resource"><xmpG:swatchName>R=147 G=39 B=143</xmpG:swatchName><xmpG:mode>RGB</xmpG:mode><xmpG:type>PROCESS</xmpG:type><xmpG:red>147</xmpG:red><xmpG:green>39</xmpG:green><xmpG:blue>143</xmpG:blue></rdf:li><rdf:li rdf:parseType="Resource"><xmpG:swatchName>R=158 G=0 B=93</xmpG:swatchName><xmpG:mode>RGB</xmpG:mode><xmpG:type>PROCESS</xmpG:type><xmpG:red>158</xmpG:red><xmpG:green>0</xmpG:green><xmpG:blue>93</xmpG:blue></rdf:li><rdf:li rdf:parseType="Resource"><xmpG:swatchName>R=212 G=20 B=90</xmpG:swatchName><xmpG:mode>RGB</xmpG:mode><xmpG:type>PROCESS</xmpG:type><xmpG:red>212</xmpG:red><xmpG:green>20</xmpG:green><xmpG:blue>90</xmpG:blue></rdf:li><rdf:li rdf:parseType="Resource"><xmpG:swatchName>R=237 G=30 B=121</xmpG:swatchName><xmpG:mode>RGB</xmpG:mode><xmpG:type>PROCESS</xmpG:type><xmpG:red>237</xmpG:red><xmpG:green>30</xmpG:green><xmpG:blue>121</xmpG:blue></rdf:li><rdf:li rdf:parseType="Resource"><xmpG:swatchName>R=199 G=178 B=153</xmpG:swatchName><xmpG:mode>RGB</xmpG:mode><xmpG:type>PROCESS</xmpG:type><xmpG:red>199</xmpG:red><xmpG:green>178</xmpG:green><xmpG:blue>153</xmpG:blue></rdf:li><rdf:li rdf:parseType="Resource"><xmpG:swatchName>R=153 G=134 B=117</xmpG:swatchName><xmpG:mode>RGB</xmpG:mode><xmpG:type>PROCESS</xmpG:type><xmpG:red>153</xmpG:red><xmpG:green>134</xmpG:green><xmpG:blue>117</xmpG:blue></rdf:li><rdf:li rdf:parseType="Resource"><xmpG:swatchName>R=115 G=99 B=87</xmpG:swatchName><xmpG:mode>RGB</xmpG:mode><xmpG:type>PROCESS</xmpG:type><xmpG:red>115</xmpG:red><xmpG:green>99</xmpG:green><xmpG:blue>87</xmpG:blue></rdf:li><rdf:li rdf:parseType="Resource"><xmpG:swatchName>R=83 G=71 B=65</xmpG:swatchName><xmpG:mode>RGB</xmpG:mode><xmpG:type>PROCESS</xmpG:type><xmpG:red>83</xmpG:red><xmpG:green>71</xmpG:green><xmpG:blue>65</xmpG:blue></rdf:li><rdf:li rdf:parseType="Resource"><xmpG:swatchName>R=198 G=156 B=109</xmpG:swatchName><xmpG:mode>RGB</xmpG:mode><xmpG:type>PROCESS</xmpG:type><xmpG:red>198</xmpG:red><xmpG:green>156</xmpG:green><xmpG:blue>109</xmpG:blue></rdf:li><rdf:li rdf:parseType="Resource"><xmpG:swatchName>R=166 G=124 B=82</xmpG:swatchName><xmpG:mode>RGB</xmpG:mode><xmpG:type>PROCESS</xmpG:type><xmpG:red>166</xmpG:red><xmpG:green>124</xmpG:green><xmpG:blue>82</xmpG:blue></rdf:li><rdf:li rdf:parseType="Resource"><xmpG:swatchName>R=140 G=98 B=57</xmpG:swatchName><xmpG:mode>RGB</xmpG:mode><xmpG:type>PROCESS</xmpG:type><xmpG:red>140</xmpG:red><xmpG:green>98</xmpG:green><xmpG:blue>57</xmpG:blue></rdf:li><rdf:li rdf:parseType="Resource"><xmpG:swatchName>R=117 G=76 B=36</xmpG:swatchName><xmpG:mode>RGB</xmpG:mode><xmpG:type>PROCESS</xmpG:type><xmpG:red>117</xmpG:red><xmpG:green>76</xmpG:green><xmpG:blue>36</xmpG:blue></rdf:li><rdf:li rdf:parseType="Resource"><xmpG:swatchName>R=96 G=56 B=19</xmpG:swatchName><xmpG:mode>RGB</xmpG:mode><xmpG:type>PROCESS</xmpG:type><xmpG:red>96</xmpG:red><xmpG:green>56</xmpG:green><xmpG:blue>19</xmpG:blue></rdf:li><rdf:li rdf:parseType="Resource"><xmpG:swatchName>R=66 G=33 B=11</xmpG:swatchName><xmpG:mode>RGB</xmpG:mode><xmpG:type>PROCESS</xmpG:type><xmpG:red>66</xmpG:red><xmpG:green>33</xmpG:green><xmpG:blue>11</xmpG:blue></rdf:li></rdf:Seq></xmpG:Colorants></rdf:li><rdf:li rdf:parseType="Resource"><xmpG:groupName>グレー</xmpG:groupName><xmpG:groupType>1</xmpG:groupType><xmpG:Colorants><rdf:Seq><rdf:li rdf:parseType="Resource"><xmpG:swatchName>R=0 G=0 B=0</xmpG:swatchName><xmpG:mode>RGB</xmpG:mode><xmpG:type>PROCESS</xmpG:type><xmpG:red>0</xmpG:red><xmpG:green>0</xmpG:green><xmpG:blue>0</xmpG:blue></rdf:li><rdf:li rdf:parseType="Resource"><xmpG:swatchName>R=26 G=26 B=26</xmpG:swatchName><xmpG:mode>RGB</xmpG:mode><xmpG:type>PROCESS</xmpG:type><xmpG:red>26</xmpG:red><xmpG:green>26</xmpG:green><xmpG:blue>26</xmpG:blue></rdf:li><rdf:li rdf:parseType="Resource"><xmpG:swatchName>R=51 G=51 B=51</xmpG:swatchName><xmpG:mode>RGB</xmpG:mode><xmpG:type>PROCESS</xmpG:type><xmpG:red>51</xmpG:red><xmpG:green>51</xmpG:green><xmpG:blue>51</xmpG:blue></rdf:li><rdf:li rdf:parseType="Resource"><xmpG:swatchName>R=77 G=77 B=77</xmpG:swatchName><xmpG:mode>RGB</xmpG:mode><xmpG:type>PROCESS</xmpG:type><xmpG:red>77</xmpG:red><xmpG:green>77</xmpG:green><xmpG:blue>77</xmpG:blue></rdf:li><rdf:li rdf:parseType="Resource"><xmpG:swatchName>R=102 G=102 B=102</xmpG:swatchName><xmpG:mode>RGB</xmpG:mode><xmpG:type>PROCESS</xmpG:type><xmpG:red>102</xmpG:red><xmpG:green>102</xmpG:green><xmpG:blue>102</xmpG:blue></rdf:li><rdf:li rdf:parseType="Resource"><xmpG:swatchName>R=128 G=128 B=128</xmpG:swatchName><xmpG:mode>RGB</xmpG:mode><xmpG:type>PROCESS</xmpG:type><xmpG:red>128</xmpG:red><xmpG:green>128</xmpG:green><xmpG:blue>128</xmpG:blue></rdf:li><rdf:li rdf:parseType="Resource"><xmpG:swatchName>R=153 G=153 B=153</xmpG:swatchName><xmpG:mode>RGB</xmpG:mode><xmpG:type>PROCESS</xmpG:type><xmpG:red>153</xmpG:red><xmpG:green>153</xmpG:green><xmpG:blue>153</xmpG:blue></rdf:li><rdf:li rdf:parseType="Resource"><xmpG:swatchName>R=179 G=179 B=179</xmpG:swatchName><xmpG:mode>RGB</xmpG:mode><xmpG:type>PROCESS</xmpG:type><xmpG:red>179</xmpG:red><xmpG:green>179</xmpG:green><xmpG:blue>179</xmpG:blue></rdf:li><rdf:li rdf:parseType="Resource"><xmpG:swatchName>R=204 G=204 B=204</xmpG:swatchName><xmpG:mode>RGB</xmpG:mode><xmpG:type>PROCESS</xmpG:type><xmpG:red>204</xmpG:red><xmpG:green>204</xmpG:green><xmpG:blue>204</xmpG:blue></rdf:li><rdf:li rdf:parseType="Resource"><xmpG:swatchName>R=230 G=230 B=230</xmpG:swatchName><xmpG:mode>RGB</xmpG:mode><xmpG:type>PROCESS</xmpG:type><xmpG:red>230</xmpG:red><xmpG:green>230</xmpG:green><xmpG:blue>230</xmpG:blue></rdf:li><rdf:li rdf:parseType="Resource"><xmpG:swatchName>R=242 G=242 B=242</xmpG:swatchName><xmpG:mode>RGB</xmpG:mode><xmpG:type>PROCESS</xmpG:type><xmpG:red>242</xmpG:red><xmpG:green>242</xmpG:green><xmpG:blue>242</xmpG:blue></rdf:li></rdf:Seq></xmpG:Colorants></rdf:li><rdf:li rdf:parseType="Resource"><xmpG:groupName>Web カラーグループ</xmpG:groupName><xmpG:groupType>1</xmpG:groupType><xmpG:Colorants><rdf:Seq><rdf:li rdf:parseType="Resource"><xmpG:swatchName>R=63 G=169 B=245</xmpG:swatchName><xmpG:mode>RGB</xmpG:mode><xmpG:type>PROCESS</xmpG:type><xmpG:red>63</xmpG:red><xmpG:green>169</xmpG:green><xmpG:blue>245</xmpG:blue></rdf:li><rdf:li rdf:parseType="Resource"><xmpG:swatchName>R=122 G=201 B=67</xmpG:swatchName><xmpG:mode>RGB</xmpG:mode><xmpG:type>PROCESS</xmpG:type><xmpG:red>122</xmpG:red><xmpG:green>201</xmpG:green><xmpG:blue>67</xmpG:blue></rdf:li><rdf:li rdf:parseType="Resource"><xmpG:swatchName>R=255 G=147 B=30</xmpG:swatchName><xmpG:mode>RGB</xmpG:mode><xmpG:type>PROCESS</xmpG:type><xmpG:red>255</xmpG:red><xmpG:green>147</xmpG:green><xmpG:blue>30</xmpG:blue></rdf:li><rdf:li rdf:parseType="Resource"><xmpG:swatchName>R=255 G=29 B=37</xmpG:swatchName><xmpG:mode>RGB</xmpG:mode><xmpG:type>PROCESS</xmpG:type><xmpG:red>255</xmpG:red><xmpG:green>29</xmpG:green><xmpG:blue>37</xmpG:blue></rdf:li><rdf:li rdf:parseType="Resource"><xmpG:swatchName>R=255 G=123 B=172</xmpG:swatchName><xmpG:mode>RGB</xmpG:mode><xmpG:type>PROCESS</xmpG:type><xmpG:red>255</xmpG:red><xmpG:green>123</xmpG:green><xmpG:blue>172</xmpG:blue></rdf:li><rdf:li rdf:parseType="Resource"><xmpG:swatchName>R=189 G=204 B=212</xmpG:swatchName><xmpG:mode>RGB</xmpG:mode><xmpG:type>PROCESS</xmpG:type><xmpG:red>189</xmpG:red><xmpG:green>204</xmpG:green><xmpG:blue>212</xmpG:blue></rdf:li></rdf:Seq></xmpG:Colorants></rdf:li></rdf:Seq></xmpTPg:SwatchGroups></rdf:Description><rdf:Description xmlns:pdf="http://ns.adobe.com/pdf/1.3/"><pdf:Producer>Adobe PDF library 10.01</pdf:Producer></rdf:Description></rdf:RDF></x:xmpmeta><?xpacket end="w"?></metadata><g><g fill="#210701"><path d="M0 15.21c0-.494.234-.754.988-1.222 1.014-.624 2.34-1.82 2.548-2.002.13-.13.416-.39.521-.39.104 0 .13.234.13.312 0 1.222-1.223 4.368-2.938 4.368a1.27 1.27 0 01-.494-.104C.416 16.068 0 15.73 0 15.21zm10.192 1.716c0 .39 0 2.106-1.378 2.106-.572 0-.624-.156-1.17-1.664-.313-.832-.442-1.04-.962-1.846-.104-.182-.156-.234-.156-.312s.052-.104.104-.104c.183 0 1.04.338 1.223.338.338 0 .468-.286.52-.702.13-1.222.13-3.822.13-5.227C8.502 8.268 8.45 7.8 7.748 7.8c-.156 0-3.275.442-4.81.832-.156.052-.885.286-1.04.286-.572 0-1.872-1.769-1.872-2.288 0-.13.025-.234.182-.234.104 0 .156.026.494.156.598.26 1.924.26 2.313.26.599 0 3.406-.156 4.187-.182.988-.052 1.248-.234 1.248-1.092s-.156-2.574-.546-3.328c-.051-.13-.494-.546-.494-.676 0-.077.286-.26.884-.26 1.794 0 2.444 1.144 2.444 1.352 0 .156-.416.728-.468.858-.234.468-.234 1.742-.234 2.002 0 .806.338.937 1.015.937.832 0 2.08-.208 2.521-.26.338-.052 1.717-.39 2.002-.39.78 0 1.664.39 2.522.884.286.182.65.39.65.832 0 .494-.572.52-.677.52-.39 0-2.08-.286-2.443-.338-.988-.104-2.887-.13-3.095-.13-2.235 0-2.47 0-2.47 1.482.002 1.247.131 6.786.131 7.903zm6.267-1.872c-.442-1.092-1.248-2.444-2.106-3.198-.39-.364-1.04-.962-1.04-1.092s.13-.13.182-.13c1.379 0 5.564 2.522 5.564 4.706 0 .598-.312 1.456-1.17 1.43-.729.001-.962-.598-1.43-1.716zM46.723 8.97c.155 0 .441-.026.571-.026 1.587 0 1.82.962 1.82 1.144 0 .728-1.065.806-2.158.806-.598 0-3.198-.052-3.718-.052-3.588 0-9.543.338-10.166.468-.313.052-1.717.468-2.028.468-1.118 0-2.314-1.612-2.314-2.496 0-.156.078-.312.208-.312s.754.286.884.312c.442.13 1.509.234 3.173.234.857 0 9.931-.338 13.728-.546zm17.133 2.522c-1.56 3.38-4.29 4.94-4.811 4.94-.104 0-.13-.078-.13-.13 0-.208.832-1.118 1.04-1.378 2.86-3.926 3.146-6.76 3.146-7.618 0-.676-.026-.962-.442-2.236-.052-.182-.104-.338-.104-.468 0-.078.025-.13.13-.13.182 0 2.938.884 2.938 2.21.002.078-1.324 3.822-1.767 4.81zm4.212 2.419c0-.13.13-.806.156-.937.078-.494.104-2.548.104-3.198 0-3.172-.312-4.238-.493-4.888-.053-.13-.339-.806-.339-.936 0-.104.104-.13.156-.13.13 0 2.86.468 2.86 1.82 0 .312-.364 1.664-.416 1.95-.104.702-.208 3.848-.208 4.706 0 .338.026.858.494.858.78 0 3.172-1.716 5.668-4.238.442-.442 2.652-2.782 2.756-2.782.053 0 .104.052.104.104 0 .208-1.508 3.432-6.059 7.436-1.352 1.17-1.612 1.43-1.794 1.664-.441.494-.676.676-.857.702-.754.13-2.132-1.404-2.132-2.131zM96.512 2.392c.416.468.832.91.832 1.118 0 .156-.077.26-.468.676-.624.624-1.456 1.95-1.456 2.184 0 .312.338.494 1.196.494 1.43 0 4.654-.39 5.824-.624.338-.078 1.794-.572 2.106-.572.13 0 2.574.416 2.574 1.56 0 .39-.416.702-.858.702-.286 0-1.431-.182-1.664-.208-.546-.052-1.222-.13-1.872-.13-.26 0-2.002.026-2.002.39 0 .156.468.729.468.884 0 .13-.39.676-.442.78-.13.313-.571 1.664-.701 1.924-2.471 5.98-7.437 8.424-7.982 8.424-.053 0-.156 0-.156-.156 0-.104.025-.156.364-.442 1.43-1.274 3.198-2.938 4.523-4.94 1.223-1.898 1.898-3.952 1.898-5.019 0-.546-.13-1.456-.937-1.456-.26 0-.701.078-1.014.13-.156.026-.91.286-1.066.286-.207 0-.416-.208-.493-.312-.339-.338-.364-.364-.469-.364-.208 0-.338.234-.441.364-1.872 2.86-4.706 4.628-5.097 4.628-.104 0-.13-.104-.13-.156 0-.078 2.47-3.068 2.912-3.64 2.236-3.017 2.496-5.331 2.496-5.902 0-.39-.052-.832-.182-1.222-.026-.052-.183-.364-.183-.416 0-.182.313-.182.364-.182.964.001 1.224.287 2.056 1.197zm39.131 6.578c.155 0 .441-.026.571-.026 1.587 0 1.82.962 1.82 1.144 0 .728-1.065.806-2.158.806-.598 0-3.198-.052-3.718-.052-3.588 0-9.543.338-10.166.468-.313.052-1.717.468-2.028.468-1.118 0-2.314-1.612-2.314-2.496 0-.156.078-.312.208-.312s.754.286.884.312c.442.13 1.509.234 3.173.234.856 0 9.931-.338 13.728-.546zm25.324 10.452c0 .494-.182.988-.572.988-1.144 0-1.56-2.262-1.768-3.354-.131-.65-.702-3.484-.807-4.083-.104-.468-.233-.806-.702-.806-.104 0-3.198.728-4.472 1.144-.26.078-1.326.676-1.586.676-.391 0-2.99-1.144-2.99-1.924 0-.208.182-.26.312-.26.234 0 1.326.104 1.561.104 1.976 0 3.536-.312 6.318-.884.676-.13.857-.234.857-.676 0-.416-.208-1.17-.571-2.6-.156-.65-.286-.91-.677-.91-.598 0-3.536.988-3.588.988-.624 0-2.366-.936-2.366-1.404 0-.182.286-.182.521-.182.649 0 2.521-.13 4.004-.442.91-.208 1.326-.364 1.326-.858 0-.104-.338-2.574-1.482-3.562-.182-.156-1.196-.832-1.196-.936 0-.156.78-.442 1.353-.442.521 0 2.34.572 2.418 1.092.052.365.104 1.872.156 2.184.233 1.69.52 1.69.884 1.69.26 0 1.898-.546 2.262-.702 1.118-.494 1.248-.546 1.612-.546.832 0 1.561.546 1.561.962 0 .52-.521.624-2.418.988-2.106.416-2.341.468-2.626.572-.442.13-.494.364-.494.65 0 .442.338 1.82.468 2.34.233.884.338 1.118.806 1.118.469 0 2.704-.702 3.328-.988.858-.39 1.431-.65 2.574-.65 1.378 0 1.95.702 1.95 1.144 0 .78-1.066.806-2.002.806-1.482.026-3.927.572-4.681.754-1.092.234-1.144.39-1.144.884-.001.677 1.871 5.982 1.871 7.125z"/></g><g fill="#4A1F00"><path d="M6.411 35.832c.324 0 .324-.071.324-1.654 0-1.739 0-2.039-1.115-2.039-.096 0-.313 0-.313-.204 0-.18.217-.18.324-.18H8.69c.084 0 .313 0 .313.192 0 .203-.156.203-.528.203-.36 0-.647.204-.731.443-.096.252-.108.289-.108 4.63 0 .456 0 2.159.097 2.435.168.456.659.456.887.456.18 0 .385 0 .385.192 0 .191-.229.191-.313.191h-3.06c-.119 0-.324 0-.324-.18 0-.191.217-.191.349-.191.323 0 .659-.049.839-.24.24-.24.24-.252.24-2.447 0-1.115 0-1.211-.324-1.211H3.186c-.072 0-.228.035-.276.144-.047.132-.047 1.319-.047 1.548 0 1.967 0 2.207 1.127 2.207.084 0 .3 0 .3.203 0 .168-.216.168-.324.168H.907c-.072 0-.313 0-.313-.191 0-.192.156-.192.527-.192.168 0 .684-.071.78-.612.049-.289.049-3.203.049-4.738 0-.432 0-1.896-.084-2.159-.156-.456-.66-.456-.887-.456-.18 0-.384 0-.384-.203 0-.192.229-.192.313-.192h3.058c.12 0 .324 0 .324.18 0 .204-.204.204-.349.204-1.078 0-1.078.359-1.078 1.895 0 .217 0 1.535.047 1.644.061.155.252.155.276.155h3.225zm8.413.408c.013.408-.012 2.363-.012 2.807 0 .563 0 1.067.479 1.067.12 0 .313-.071.384-.132a.506.506 0 01.097-.072c.023 0 .06.012.06.072 0 .216-.491.744-1.008.744-.384 0-.695-.289-.792-.541-.023-.084-.06-.191-.168-.191-.071 0-.18.084-.287.168-.468.359-1.056.564-1.583.564-.72 0-1.523-.385-1.523-1.271 0-1.428 2.015-2.039 2.71-2.243.721-.216.792-.239.792-.864 0-1.031-.575-1.414-1.127-1.414-.792 0-.924.563-.96.73-.084.36-.168.792-.635.792a.568.568 0 01-.564-.587c0-.708 1.164-1.26 2.171-1.26.948 0 1.942.432 1.966 1.631zm-.935 3.215c.06-.145.084-.192.084-1.607 0-.24 0-.443-.251-.443-.433 0-2.231.803-2.231 1.93 0 .324.204.876 1.031.876.408-.002 1.2-.361 1.367-.756zm3.087 1.043c-.072 0-.289 0-.289-.18 0-.204.192-.204.349-.204.167 0 .456-.06.563-.444.072-.252.072-4.509.072-5.156 0-.348 0-1.871-.072-2.1-.023-.071-.107-.203-.336-.203-.048 0-.324.035-.396.035-.072 0-.108-.047-.108-.096 0-.107.396-.228.588-.287.084-.024 1.092-.336 1.104-.336.072 0 .072.035.072.275 0 .947-.024 5.564-.024 6.608 0 1.271 0 1.667.624 1.703.264.013.383.013.383.204 0 .18-.155.18-.299.18h-2.231zm3.707 0c-.072 0-.288 0-.288-.18 0-.204.192-.204.348-.204.168 0 .456-.06.563-.444.072-.252.072-4.509.072-5.156 0-.348 0-1.871-.072-2.1-.023-.071-.107-.203-.336-.203-.047 0-.323.035-.395.035-.072 0-.108-.047-.108-.096 0-.107.396-.228.587-.287.084-.024 1.092-.336 1.104-.336.072 0 .072.035.072.275 0 .947-.023 5.564-.023 6.608 0 1.271 0 1.667.623 1.703.264.013.384.013.384.204 0 .18-.155.18-.3.18h-2.231zm10.966.228c-1.115 0-2.494-.708-2.494-2.928 0-1.846 1.043-3.189 2.77-3.189.96 0 1.859.479 1.859 1.139 0 .408-.313.624-.648.624-.491 0-.539-.419-.563-.72-.072-.719-.756-.719-.816-.719-.863 0-1.595 1.104-1.595 2.674 0 1.644.815 2.603 1.823 2.603.575 0 1.211-.323 1.607-.815.107-.144.155-.203.251-.203.048 0 .12.035.12.143.001.191-.827 1.391-2.314 1.391zm8.387-4.486c.012.408-.012 2.363-.012 2.807 0 .563 0 1.067.479 1.067.12 0 .312-.071.384-.132a.5.5 0 01.096-.072c.024 0 .061.012.061.072 0 .216-.492.744-1.008.744-.384 0-.695-.289-.791-.541-.024-.084-.061-.191-.168-.191-.072 0-.18.084-.288.168-.468.359-1.056.564-1.583.564-.72 0-1.523-.385-1.523-1.271 0-1.428 2.016-2.039 2.711-2.243.719-.216.791-.239.791-.864 0-1.031-.576-1.414-1.127-1.414-.792 0-.924.563-.959.73-.084.36-.168.792-.637.792a.567.567 0 01-.563-.587c0-.708 1.163-1.26 2.171-1.26.947 0 1.943.432 1.966 1.631zm-.935 3.215c.061-.145.084-.192.084-1.607 0-.24 0-.443-.252-.443-.432 0-2.23.803-2.23 1.93 0 .324.204.876 1.031.876.408-.002 1.199-.361 1.367-.756zm6.541 1.043c-.108 0-.324 0-.324-.191 0-.18.191-.192.287-.192.084-.013.469-.036.469-.372a.464.464 0 00-.024-.132c-.036-.108-.768-1.331-.911-1.571-.301-.516-.385-.635-.516-.635-.192 0-.624.491-.684.563-.181.217-.205.349-.205 1.188 0 .408 0 .936.612.96.12 0 .288 0 .288.192 0 .191-.18.191-.301.191h-2.051c-.131 0-.311 0-.311-.204 0-.18.155-.18.311-.18.373-.013.528-.252.576-.516.036-.192.048-4.786.048-5.517 0-1.859 0-1.907-.804-1.907-.048 0-.119-.024-.119-.097 0-.107.047-.119.551-.252.18-.047 1.031-.299 1.092-.299.12 0 .12.048.12.467v5.121c0 .072 0 .276.108.276.144 0 1.139-.995 1.33-1.187.408-.408.457-.444.457-.612 0-.06-.061-.336-.504-.372-.24-.023-.336-.035-.336-.191 0-.192.203-.192.336-.192h2.482c.168 0 .408 0 .408.192 0 .191-.252.191-.408.191-.684 0-1.151.372-1.355.527-.324.252-.84.684-.84.948 0 .132.084.288.156.407.107.192.875 1.476 1.319 2.207.168.275.6.72.947.779.312.061.384.072.384.217 0 .131-.132.191-.275.191h-2.313zm5.316-3.143c-.156 0-.385 0-.385.385 0 1.463.996 2.47 1.991 2.47.552 0 1.079-.323 1.451-.671.072-.061.349-.469.456-.469.061 0 .119.061.119.156 0 .264-.839 1.5-2.422 1.5-1.68 0-2.627-1.332-2.627-3.07 0-1.992 1.236-3.047 2.543-3.047 1.859 0 2.387 1.967 2.387 2.471 0 .216-.12.275-.359.275h-3.154zm2.206-.396c.265 0 .396-.06.396-.348 0-.456-.432-1.679-1.438-1.679-1.116 0-1.464 1.498-1.464 1.763 0 .264.204.264.313.264h2.193z"/></g></g></svg>