<svg version="1.1" baseProfile="tiny" id="レイヤー_1" xmlns="http://www.w3.org/2000/svg" x="0" y="0" width="291.441" height="22.851" viewBox="0 0 291.441 22.851" xml:space="preserve"><metadata><?xpacket begin="﻿" id="W5M0MpCehiHzreSzNTczkc9d"?><x:xmpmeta xmlns:x="adobe:ns:meta/" x:xmptk="Adobe XMP Core 5.3-c011 66.145661, 2012/02/06-14:56:27"><rdf:RDF xmlns:rdf="http://www.w3.org/1999/02/22-rdf-syntax-ns#"><rdf:Description xmlns:dc="http://purl.org/dc/elements/1.1/"><dc:format>image/svg+xml</dc:format><dc:title><rdf:Alt><rdf:li xml:lang="x-default">Web</rdf:li></rdf:Alt></dc:title></rdf:Description><rdf:Description xmlns:xmp="http://ns.adobe.com/xap/1.0/" xmlns:xmpGImg="http://ns.adobe.com/xap/1.0/g/img/"><xmp:CreatorTool>Adobe Illustrator CS6 (Windows)</xmp:CreatorTool><xmp:CreateDate>2017-07-11T15:58:40+09:00</xmp:CreateDate><xmp:ModifyDate>2017-07-11T15:58:40+09:00</xmp:ModifyDate><xmp:MetadataDate>2017-07-11T15:58:40+09:00</xmp:MetadataDate><xmp:Thumbnails><rdf:Alt><rdf:li rdf:parseType="Resource"><xmpGImg:width>256</xmpGImg:width><xmpGImg:height>20</xmpGImg:height><xmpGImg:format>JPEG</xmpGImg:format><xmpGImg:image>/9j/4AAQSkZJRgABAgEASABIAAD/7QAsUGhvdG9zaG9wIDMuMAA4QklNA+0AAAAAABAASAAAAAEA AQBIAAAAAQAB/+4ADkFkb2JlAGTAAAAAAf/bAIQABgQEBAUEBgUFBgkGBQYJCwgGBggLDAoKCwoK DBAMDAwMDAwQDA4PEA8ODBMTFBQTExwbGxscHx8fHx8fHx8fHwEHBwcNDA0YEBAYGhURFRofHx8f Hx8fHx8fHx8fHx8fHx8fHx8fHx8fHx8fHx8fHx8fHx8fHx8fHx8fHx8fHx8f/8AAEQgAFAEAAwER AAIRAQMRAf/EAaIAAAAHAQEBAQEAAAAAAAAAAAQFAwIGAQAHCAkKCwEAAgIDAQEBAQEAAAAAAAAA AQACAwQFBgcICQoLEAACAQMDAgQCBgcDBAIGAnMBAgMRBAAFIRIxQVEGE2EicYEUMpGhBxWxQiPB UtHhMxZi8CRygvElQzRTkqKyY3PCNUQnk6OzNhdUZHTD0uIIJoMJChgZhJRFRqS0VtNVKBry4/PE 1OT0ZXWFlaW1xdXl9WZ2hpamtsbW5vY3R1dnd4eXp7fH1+f3OEhYaHiImKi4yNjo+Ck5SVlpeYmZ qbnJ2en5KjpKWmp6ipqqusra6voRAAICAQIDBQUEBQYECAMDbQEAAhEDBCESMUEFURNhIgZxgZEy obHwFMHR4SNCFVJicvEzJDRDghaSUyWiY7LCB3PSNeJEgxdUkwgJChgZJjZFGidkdFU38qOzwygp 0+PzhJSktMTU5PRldYWVpbXF1eX1RlZmdoaWprbG1ub2R1dnd4eXp7fH1+f3OEhYaHiImKi4yNjo +DlJWWl5iZmpucnZ6fkqOkpaanqKmqq6ytrq+v/aAAwDAQACEQMRAD8Akn5g+Zfzd1H8wPLtrofl aaw8zaLDeXJEd5BPZ3VvOY4QXdjEPQ5rUiRVfw4tuIEm26IjXN77pr376davqEccOoNDGbyKFi8a TFQZFRiAWUNUA0ybSURirHvMX5geUfLty1tq+oC3nSAXcsaxTTGO3LmMSy+iknpoXHEM1BXASyES Vvlf8xfJfmezs7jSNXtpnvkLwWjSotz8JIYGAnmCpU12/DEFTEhkeFihdV1Sw0rTbrU9QmW3sbKJ 57mduiRxqWZtvYYqAxT8qL/zpqehXereZo/q0ep3s93otjICLm3sJm5Qxzk/tAHYU2H3ARZzq9ma 4WCB1y51a10q4uNJsl1LUIgGgsXmFuJaMOSiVlZVbjXjyFK9SBvikPDfJfmD81tW/ODWtW0ny9LY 6DcXVtY+YbS/uI/Rge1gVZnQoWLXFGXj6Q4lftVqGWAJttkAIvoDJtLsVYV5h/OX8u9AE51HVCot rk2czxwTyRidHCSx+qqekWi5VdQ1R4V2wGQZiBLJtM8waDqrSLpepWt+0NPVFrPHMUr05cGalad8 NsSCEfihiX5o+Zp9B8oXZsFkm13UgdP0K1gNJpL24UrFw/4x7yMeyqcBLKAsp15Zj16Ly9psfmCW KbW0t411GaAcY2nCjmVHz8KDwA6YQg1eyZ4oUL+C5nsp4bW5NncuhWG6VFkMbkfC3BwVah7HFXmd hP8A85CwecYrK4XRtS8tQSRC81ExS2ckkb0Mnop6kx5opr0412r1yO7Z6aep5JrdirsVYV+XtxJ5 ja6863RJS9lnttBhaoEGmwy+mrBenO5eL1XbuvBei4B3s5bbMZ/5yL8y63ZeT7jTfL7SpfIialql 3BI0D2thbyhuQmTdJJ5UEcYHUB+ynBIpxjfdDWv5p/mC2vDQI7DSjNHrD6AJnluiDLFZm79UkgsV Krx8a4LKeAc2V/lT5p80+aNDh17Wn0+K21SFLrTrCzEgmhjJKETNIx51K7EKMMTbGYA2Yl/zkD5r 1TS9K1axt9Us47C50mQyWxuY4L+2vI5ka3lhAZZXE4YrxA241r1qJFljCI8qecNU1Se+h0Tznpd5 cJqsVvpuj3bLMTYQRiN1a4RvVkmuI1+sKwLUYENvzCEFTHyT78lxdrouvx3VxLcSQeYdWgUyyySh EhuTGqR+oTxQBdlFBjFjNGfmBPJ5de086WpKpZSwWuvRCvGbTZpfTZ2Xpztnl9VG7LzHRsJWO+zG 9Vs/zIufzo1OPRRBp2mzaPZR/p65ha4EUUc0zNHbxhkRpnkc15mgVakHbBvaRXCmXljzJ5r0/wDM +88ia/qEetxSaUus6fqSQJbzRoJ/q7wTxxHh9r4lag/og70ggVYejZJg8Y/NPyt54n1G8833d1BZ 6HokTRz22jvcRajf6QZUluY7ieqhPSjVmVUBqeXxLyyBBbYEcneYfIWu6tpNl5d8p6Boem+W2urS +0/zPaTlZ4beKRJ0kSARB/XZF4+p6p5A9q7JCiVbl7Pk2p5X+aJl82+c9A/LS2uXt7WVTrvmOWEj 1BZ2kgWCIVDL+9uKVr0oDkTvs2Q2FrnsrXyz+c3lvTdGnmittb03UP0rZz3M06ym1MbwTD13lYzc mcFupWu5x6rziXouma1pmqG6/R863KWcxtp5Y94xMgBdFfoxTlRqdDUdQQJMCEbih4z+XWkfm1ej zBHJdw+VrEa3qUqy/VfrV5dyyzsxceu3orAgKqhVTyp265AW2yMfeyz8pfN2t6/p2tWWuvDcat5d 1W50i5vrZPTiufQ4lZglTwYh6Mo6HDEsZimbXP1n6tL9V4C54N6BlqU50+Hnx34160yTB4VeeRtX s/NVpd+e5bOfSvNt5Ip0CyNwmjw62Yla0kuo3YG69f6uQ1VA9ShoSa5Cu9u4ttujJ9I8o+dLv8xt F1+90XTPLWnaDbXVrN+jrgzvfrcIESMhYbbhDGyiRVcVB/A1uxJFU9SyTW8isNPi/Mb80dZ1K7uZ j5a8nE6Np9rbyvCJr6RQ188jxFXoo4xcQ3xDrtUGPMtl8I96N/LfUrXR/Nf5iaG1+y+XtAu7S4tP rkzOLVLq0EtwokmYlYlkU8RWg3xHVZCwC9I03ULbUdPttQtSzWt3Gs0DMrIWjcclbiwDCoNaEVyT WQlPmfztoPli40xNbnFla6pM1tFfykLbxzBC6rLIdk5hTQnbbATSRElVn87eTIEWSfXtOiRvsu93 AoPyJfG14SnCsrKGUhlYVBG4IOFDeKtMKqRUiopUdRirCfyWcr+Wmi2MiiO70mOTTL2HoUuLGVre VWHY8o6/TXBHkznzY9+fGhadqmgahYW+hXOo+Y9TtPS02eBeSGSNuYU/Gq8lClvsnbBIJxnd5db+ V9Ll8xwanL5Xv5dC1DzK15ZgdJrI2DrHFGPWHJ/XBbgprxU9hTI02Xtz6PRPyC0jSbGytdPuPK8u n+ZdFskt9S1mZIi3rSEu9tzV3kWiOjgMAKH5VMWGQ+al/wA5PG81PyVe6PZsI7awgGrazckbCONj HaW4J/bmnPL2VD4irPkuLmnCeWNXkhv/AC3qGi3Wu6NYapFe+W7i7nhtUtkh4SxRi4WaS6YRSclQ +l9j4SewNIvqhfySi87T3Ou3l5dWVppK67rK3mjxRtPKbt7pmdhdExcVjfZf3Z5LvQE7MbWdMm/O li35aa1Yxr6l3q0aaZZQ9S9xeyrbxKo7nlJX6K4ZckQ5p35u/wAVfok/4a9L69y/eerTn6fE/wBz z/d+pz4/3nw0r3piWIrqwz8pf8KfpzXK/pL/AB7+7/xB+nvT+v8Ap/7r9L0f9H+rV+x6Hw0pXtgi znfwenZJrS7zH9W/w9qn1rl9W+qT+vwpy4ek3Ljy2rTpXEpHNJPyl+pf8qz8s/UPrP1L9HwfV/rv H1+HAceXD4aU+zT9mmCPJM+ZZZhYsXg/wP8A8rKuvS4f43/RMXr/AN5y/RvrtxpX91/e/ap8X2a7 UwbWy3ryYj+dv/KlPrmh/wDKxOf12sv6L9D616vCq+ry+q/Fwrx6/R3wSrqyhxdGfeUP8Lf4bsP8 K/Vv0B6f+gfUuPo8KmtOPflXlXflWu+EMDd7pxhQwf8AMf8Axv6P+4n63+huA+u/oT6v+lqVb1PR +t/uqcePHh8fWnbAbZxpW/KT/Av+C7f/AAXy/RXqSev63P6z9ar+/wDrXqfH61ftV9qfDTGNInd7 sywsWC/nJ+h/8KWn6V+sej+l9L9H6nx9f1frkfHhz79em+RkzhzZ1kmDsVYr+X3+Bfq+uf4Q4+j+ mLv9McfVp+k/g+sf3n+xpw+GnTAKZSvq8980/wDQt/8AytW4/wAR+l/ivlB9d9f6z9S9Xgvo+vT/ AEXlw4/b+GvX4siatmOKtuT2wUoKdO1OlMm1JV5o/wAL/oO5/wAUfU/0Jx/0r9Ien9Xp25er8PXp gKRfR4jH/wBCcfXxx/RfrctuX1z0a+/L9zT8Mj6W31vetL/Rv6MtP0X6X6M9GP6j9W4+j6HAel6X D4eHCnGm1Mm0lE4q7FWH6H9X/wAf65+hf+OfxT/EPT0f0pwT0/Rp/u36tx+sdv7v9rng6sjyS7Vf 0Z/yu3Q/0j+kPrX6Juf0FX0/0b63P/SuNP3n1j0eNa7ccHVI+lj1x/gr/lWUNf0l+i/8Tn9H+n6f 1r61+mmp9Wp8PpcuXHjvwr+1g6Mt7+DJdM/w7/yurWfqP1v9M/oa2/THDj9Q/vT6HqftfWfT+z24 YerE3wqn53/ob/lVmvfpr6x+ivTh+t/U+Hr8PrEf936nwV+eGXJcfNnOFgwD8m/0R+i/Mf6O+tcv 8Sar9f8ArvDn9Z9f4+PD9njx671rkYs59PcmGt+h/j3RP01/xz+L/wCH/wDfP6T4P6nrf8WfV6+h 2/vP2uOHqgcn/9k=</xmpGImg:image></rdf:li></rdf:Alt></xmp:Thumbnails></rdf:Description><rdf:Description xmlns:xmpMM="http://ns.adobe.com/xap/1.0/mm/" xmlns:stRef="http://ns.adobe.com/xap/1.0/sType/ResourceRef#" xmlns:stEvt="http://ns.adobe.com/xap/1.0/sType/ResourceEvent#"><xmpMM:RenditionClass>proof:pdf</xmpMM:RenditionClass><xmpMM:OriginalDocumentID>uuid:65E6390686CF11DBA6E2D887CEACB407</xmpMM:OriginalDocumentID><xmpMM:DocumentID>xmp.did:8E07AA7AFA65E711A588CAE2881F51E6</xmpMM:DocumentID><xmpMM:InstanceID>xmp.iid:8E07AA7AFA65E711A588CAE2881F51E6</xmpMM:InstanceID><xmpMM:DerivedFrom rdf:parseType="Resource"><stRef:instanceID>uuid:c5b5eddb-66da-6741-a40d-cc810f9d042d</stRef:instanceID><stRef:documentID>xmp.did:FB05051EC465E111835FF2FC000FBA2B</stRef:documentID><stRef:originalDocumentID>uuid:65E6390686CF11DBA6E2D887CEACB407</stRef:originalDocumentID><stRef:renditionClass>proof:pdf</stRef:renditionClass></xmpMM:DerivedFrom><xmpMM:History><rdf:Seq><rdf:li rdf:parseType="Resource"><stEvt:action>saved</stEvt:action><stEvt:instanceID>xmp.iid:8E07AA7AFA65E711A588CAE2881F51E6</stEvt:instanceID><stEvt:when>2017-07-11T15:58:40+09:00</stEvt:when><stEvt:softwareAgent>Adobe Illustrator CS6 (Windows)</stEvt:softwareAgent><stEvt:changed>/</stEvt:changed></rdf:li></rdf:Seq></xmpMM:History></rdf:Description><rdf:Description xmlns:illustrator="http://ns.adobe.com/illustrator/1.0/"><illustrator:StartupProfile>Web</illustrator:StartupProfile></rdf:Description><rdf:Description xmlns:xmpTPg="http://ns.adobe.com/xap/1.0/t/pg/" xmlns:stDim="http://ns.adobe.com/xap/1.0/sType/Dimensions#" xmlns:xmpG="http://ns.adobe.com/xap/1.0/g/"><xmpTPg:NPages>1</xmpTPg:NPages><xmpTPg:HasVisibleTransparency>False</xmpTPg:HasVisibleTransparency><xmpTPg:HasVisibleOverprint>False</xmpTPg:HasVisibleOverprint><xmpTPg:MaxPageSize rdf:parseType="Resource"><stDim:w>291.441406</stDim:w><stDim:h>22.850586</stDim:h><stDim:unit>Pixels</stDim:unit></xmpTPg:MaxPageSize><xmpTPg:PlateNames><rdf:Seq><rdf:li>Cyan</rdf:li><rdf:li>Magenta</rdf:li><rdf:li>Yellow</rdf:li><rdf:li>Black</rdf:li></rdf:Seq></xmpTPg:PlateNames><xmpTPg:SwatchGroups><rdf:Seq><rdf:li rdf:parseType="Resource"><xmpG:groupName>初期設定のスウォッチグループ</xmpG:groupName><xmpG:groupType>0</xmpG:groupType><xmpG:Colorants><rdf:Seq><rdf:li rdf:parseType="Resource"><xmpG:swatchName>ホワイト</xmpG:swatchName><xmpG:mode>RGB</xmpG:mode><xmpG:type>PROCESS</xmpG:type><xmpG:red>255</xmpG:red><xmpG:green>255</xmpG:green><xmpG:blue>255</xmpG:blue></rdf:li><rdf:li rdf:parseType="Resource"><xmpG:swatchName>ブラック</xmpG:swatchName><xmpG:mode>RGB</xmpG:mode><xmpG:type>PROCESS</xmpG:type><xmpG:red>0</xmpG:red><xmpG:green>0</xmpG:green><xmpG:blue>0</xmpG:blue></rdf:li><rdf:li rdf:parseType="Resource"><xmpG:swatchName>RGB レッド</xmpG:swatchName><xmpG:mode>RGB</xmpG:mode><xmpG:type>PROCESS</xmpG:type><xmpG:red>255</xmpG:red><xmpG:green>0</xmpG:green><xmpG:blue>0</xmpG:blue></rdf:li><rdf:li rdf:parseType="Resource"><xmpG:swatchName>RGB イエロー</xmpG:swatchName><xmpG:mode>RGB</xmpG:mode><xmpG:type>PROCESS</xmpG:type><xmpG:red>255</xmpG:red><xmpG:green>255</xmpG:green><xmpG:blue>0</xmpG:blue></rdf:li><rdf:li rdf:parseType="Resource"><xmpG:swatchName>RGB グリーン</xmpG:swatchName><xmpG:mode>RGB</xmpG:mode><xmpG:type>PROCESS</xmpG:type><xmpG:red>0</xmpG:red><xmpG:green>255</xmpG:green><xmpG:blue>0</xmpG:blue></rdf:li><rdf:li rdf:parseType="Resource"><xmpG:swatchName>RGB シアン</xmpG:swatchName><xmpG:mode>RGB</xmpG:mode><xmpG:type>PROCESS</xmpG:type><xmpG:red>0</xmpG:red><xmpG:green>255</xmpG:green><xmpG:blue>255</xmpG:blue></rdf:li><rdf:li rdf:parseType="Resource"><xmpG:swatchName>RGB ブルー</xmpG:swatchName><xmpG:mode>RGB</xmpG:mode><xmpG:type>PROCESS</xmpG:type><xmpG:red>0</xmpG:red><xmpG:green>0</xmpG:green><xmpG:blue>255</xmpG:blue></rdf:li><rdf:li rdf:parseType="Resource"><xmpG:swatchName>RGB マゼンタ</xmpG:swatchName><xmpG:mode>RGB</xmpG:mode><xmpG:type>PROCESS</xmpG:type><xmpG:red>255</xmpG:red><xmpG:green>0</xmpG:green><xmpG:blue>255</xmpG:blue></rdf:li><rdf:li rdf:parseType="Resource"><xmpG:swatchName>R=193 G=39 B=45</xmpG:swatchName><xmpG:mode>RGB</xmpG:mode><xmpG:type>PROCESS</xmpG:type><xmpG:red>193</xmpG:red><xmpG:green>39</xmpG:green><xmpG:blue>45</xmpG:blue></rdf:li><rdf:li rdf:parseType="Resource"><xmpG:swatchName>R=237 G=28 B=36</xmpG:swatchName><xmpG:mode>RGB</xmpG:mode><xmpG:type>PROCESS</xmpG:type><xmpG:red>237</xmpG:red><xmpG:green>28</xmpG:green><xmpG:blue>36</xmpG:blue></rdf:li><rdf:li rdf:parseType="Resource"><xmpG:swatchName>R=241 G=90 B=36</xmpG:swatchName><xmpG:mode>RGB</xmpG:mode><xmpG:type>PROCESS</xmpG:type><xmpG:red>241</xmpG:red><xmpG:green>90</xmpG:green><xmpG:blue>36</xmpG:blue></rdf:li><rdf:li rdf:parseType="Resource"><xmpG:swatchName>R=247 G=147 B=30</xmpG:swatchName><xmpG:mode>RGB</xmpG:mode><xmpG:type>PROCESS</xmpG:type><xmpG:red>247</xmpG:red><xmpG:green>147</xmpG:green><xmpG:blue>30</xmpG:blue></rdf:li><rdf:li rdf:parseType="Resource"><xmpG:swatchName>R=251 G=176 B=59</xmpG:swatchName><xmpG:mode>RGB</xmpG:mode><xmpG:type>PROCESS</xmpG:type><xmpG:red>251</xmpG:red><xmpG:green>176</xmpG:green><xmpG:blue>59</xmpG:blue></rdf:li><rdf:li rdf:parseType="Resource"><xmpG:swatchName>R=252 G=238 B=33</xmpG:swatchName><xmpG:mode>RGB</xmpG:mode><xmpG:type>PROCESS</xmpG:type><xmpG:red>252</xmpG:red><xmpG:green>238</xmpG:green><xmpG:blue>33</xmpG:blue></rdf:li><rdf:li rdf:parseType="Resource"><xmpG:swatchName>R=217 G=224 B=33</xmpG:swatchName><xmpG:mode>RGB</xmpG:mode><xmpG:type>PROCESS</xmpG:type><xmpG:red>217</xmpG:red><xmpG:green>224</xmpG:green><xmpG:blue>33</xmpG:blue></rdf:li><rdf:li rdf:parseType="Resource"><xmpG:swatchName>R=140 G=198 B=63</xmpG:swatchName><xmpG:mode>RGB</xmpG:mode><xmpG:type>PROCESS</xmpG:type><xmpG:red>140</xmpG:red><xmpG:green>198</xmpG:green><xmpG:blue>63</xmpG:blue></rdf:li><rdf:li rdf:parseType="Resource"><xmpG:swatchName>R=57 G=181 B=74</xmpG:swatchName><xmpG:mode>RGB</xmpG:mode><xmpG:type>PROCESS</xmpG:type><xmpG:red>57</xmpG:red><xmpG:green>181</xmpG:green><xmpG:blue>74</xmpG:blue></rdf:li><rdf:li rdf:parseType="Resource"><xmpG:swatchName>R=0 G=146 B=69</xmpG:swatchName><xmpG:mode>RGB</xmpG:mode><xmpG:type>PROCESS</xmpG:type><xmpG:red>0</xmpG:red><xmpG:green>146</xmpG:green><xmpG:blue>69</xmpG:blue></rdf:li><rdf:li rdf:parseType="Resource"><xmpG:swatchName>R=0 G=104 B=55</xmpG:swatchName><xmpG:mode>RGB</xmpG:mode><xmpG:type>PROCESS</xmpG:type><xmpG:red>0</xmpG:red><xmpG:green>104</xmpG:green><xmpG:blue>55</xmpG:blue></rdf:li><rdf:li rdf:parseType="Resource"><xmpG:swatchName>R=34 G=181 B=115</xmpG:swatchName><xmpG:mode>RGB</xmpG:mode><xmpG:type>PROCESS</xmpG:type><xmpG:red>34</xmpG:red><xmpG:green>181</xmpG:green><xmpG:blue>115</xmpG:blue></rdf:li><rdf:li rdf:parseType="Resource"><xmpG:swatchName>R=0 G=169 B=157</xmpG:swatchName><xmpG:mode>RGB</xmpG:mode><xmpG:type>PROCESS</xmpG:type><xmpG:red>0</xmpG:red><xmpG:green>169</xmpG:green><xmpG:blue>157</xmpG:blue></rdf:li><rdf:li rdf:parseType="Resource"><xmpG:swatchName>R=41 G=171 B=226</xmpG:swatchName><xmpG:mode>RGB</xmpG:mode><xmpG:type>PROCESS</xmpG:type><xmpG:red>41</xmpG:red><xmpG:green>171</xmpG:green><xmpG:blue>226</xmpG:blue></rdf:li><rdf:li rdf:parseType="Resource"><xmpG:swatchName>R=0 G=113 B=188</xmpG:swatchName><xmpG:mode>RGB</xmpG:mode><xmpG:type>PROCESS</xmpG:type><xmpG:red>0</xmpG:red><xmpG:green>113</xmpG:green><xmpG:blue>188</xmpG:blue></rdf:li><rdf:li rdf:parseType="Resource"><xmpG:swatchName>R=46 G=49 B=146</xmpG:swatchName><xmpG:mode>RGB</xmpG:mode><xmpG:type>PROCESS</xmpG:type><xmpG:red>46</xmpG:red><xmpG:green>49</xmpG:green><xmpG:blue>146</xmpG:blue></rdf:li><rdf:li rdf:parseType="Resource"><xmpG:swatchName>R=27 G=20 B=100</xmpG:swatchName><xmpG:mode>RGB</xmpG:mode><xmpG:type>PROCESS</xmpG:type><xmpG:red>27</xmpG:red><xmpG:green>20</xmpG:green><xmpG:blue>100</xmpG:blue></rdf:li><rdf:li rdf:parseType="Resource"><xmpG:swatchName>R=102 G=45 B=145</xmpG:swatchName><xmpG:mode>RGB</xmpG:mode><xmpG:type>PROCESS</xmpG:type><xmpG:red>102</xmpG:red><xmpG:green>45</xmpG:green><xmpG:blue>145</xmpG:blue></rdf:li><rdf:li rdf:parseType="Resource"><xmpG:swatchName>R=147 G=39 B=143</xmpG:swatchName><xmpG:mode>RGB</xmpG:mode><xmpG:type>PROCESS</xmpG:type><xmpG:red>147</xmpG:red><xmpG:green>39</xmpG:green><xmpG:blue>143</xmpG:blue></rdf:li><rdf:li rdf:parseType="Resource"><xmpG:swatchName>R=158 G=0 B=93</xmpG:swatchName><xmpG:mode>RGB</xmpG:mode><xmpG:type>PROCESS</xmpG:type><xmpG:red>158</xmpG:red><xmpG:green>0</xmpG:green><xmpG:blue>93</xmpG:blue></rdf:li><rdf:li rdf:parseType="Resource"><xmpG:swatchName>R=212 G=20 B=90</xmpG:swatchName><xmpG:mode>RGB</xmpG:mode><xmpG:type>PROCESS</xmpG:type><xmpG:red>212</xmpG:red><xmpG:green>20</xmpG:green><xmpG:blue>90</xmpG:blue></rdf:li><rdf:li rdf:parseType="Resource"><xmpG:swatchName>R=237 G=30 B=121</xmpG:swatchName><xmpG:mode>RGB</xmpG:mode><xmpG:type>PROCESS</xmpG:type><xmpG:red>237</xmpG:red><xmpG:green>30</xmpG:green><xmpG:blue>121</xmpG:blue></rdf:li><rdf:li rdf:parseType="Resource"><xmpG:swatchName>R=199 G=178 B=153</xmpG:swatchName><xmpG:mode>RGB</xmpG:mode><xmpG:type>PROCESS</xmpG:type><xmpG:red>199</xmpG:red><xmpG:green>178</xmpG:green><xmpG:blue>153</xmpG:blue></rdf:li><rdf:li rdf:parseType="Resource"><xmpG:swatchName>R=153 G=134 B=117</xmpG:swatchName><xmpG:mode>RGB</xmpG:mode><xmpG:type>PROCESS</xmpG:type><xmpG:red>153</xmpG:red><xmpG:green>134</xmpG:green><xmpG:blue>117</xmpG:blue></rdf:li><rdf:li rdf:parseType="Resource"><xmpG:swatchName>R=115 G=99 B=87</xmpG:swatchName><xmpG:mode>RGB</xmpG:mode><xmpG:type>PROCESS</xmpG:type><xmpG:red>115</xmpG:red><xmpG:green>99</xmpG:green><xmpG:blue>87</xmpG:blue></rdf:li><rdf:li rdf:parseType="Resource"><xmpG:swatchName>R=83 G=71 B=65</xmpG:swatchName><xmpG:mode>RGB</xmpG:mode><xmpG:type>PROCESS</xmpG:type><xmpG:red>83</xmpG:red><xmpG:green>71</xmpG:green><xmpG:blue>65</xmpG:blue></rdf:li><rdf:li rdf:parseType="Resource"><xmpG:swatchName>R=198 G=156 B=109</xmpG:swatchName><xmpG:mode>RGB</xmpG:mode><xmpG:type>PROCESS</xmpG:type><xmpG:red>198</xmpG:red><xmpG:green>156</xmpG:green><xmpG:blue>109</xmpG:blue></rdf:li><rdf:li rdf:parseType="Resource"><xmpG:swatchName>R=166 G=124 B=82</xmpG:swatchName><xmpG:mode>RGB</xmpG:mode><xmpG:type>PROCESS</xmpG:type><xmpG:red>166</xmpG:red><xmpG:green>124</xmpG:green><xmpG:blue>82</xmpG:blue></rdf:li><rdf:li rdf:parseType="Resource"><xmpG:swatchName>R=140 G=98 B=57</xmpG:swatchName><xmpG:mode>RGB</xmpG:mode><xmpG:type>PROCESS</xmpG:type><xmpG:red>140</xmpG:red><xmpG:green>98</xmpG:green><xmpG:blue>57</xmpG:blue></rdf:li><rdf:li rdf:parseType="Resource"><xmpG:swatchName>R=117 G=76 B=36</xmpG:swatchName><xmpG:mode>RGB</xmpG:mode><xmpG:type>PROCESS</xmpG:type><xmpG:red>117</xmpG:red><xmpG:green>76</xmpG:green><xmpG:blue>36</xmpG:blue></rdf:li><rdf:li rdf:parseType="Resource"><xmpG:swatchName>R=96 G=56 B=19</xmpG:swatchName><xmpG:mode>RGB</xmpG:mode><xmpG:type>PROCESS</xmpG:type><xmpG:red>96</xmpG:red><xmpG:green>56</xmpG:green><xmpG:blue>19</xmpG:blue></rdf:li><rdf:li rdf:parseType="Resource"><xmpG:swatchName>R=66 G=33 B=11</xmpG:swatchName><xmpG:mode>RGB</xmpG:mode><xmpG:type>PROCESS</xmpG:type><xmpG:red>66</xmpG:red><xmpG:green>33</xmpG:green><xmpG:blue>11</xmpG:blue></rdf:li></rdf:Seq></xmpG:Colorants></rdf:li><rdf:li rdf:parseType="Resource"><xmpG:groupName>グレー</xmpG:groupName><xmpG:groupType>1</xmpG:groupType><xmpG:Colorants><rdf:Seq><rdf:li rdf:parseType="Resource"><xmpG:swatchName>R=0 G=0 B=0</xmpG:swatchName><xmpG:mode>RGB</xmpG:mode><xmpG:type>PROCESS</xmpG:type><xmpG:red>0</xmpG:red><xmpG:green>0</xmpG:green><xmpG:blue>0</xmpG:blue></rdf:li><rdf:li rdf:parseType="Resource"><xmpG:swatchName>R=26 G=26 B=26</xmpG:swatchName><xmpG:mode>RGB</xmpG:mode><xmpG:type>PROCESS</xmpG:type><xmpG:red>26</xmpG:red><xmpG:green>26</xmpG:green><xmpG:blue>26</xmpG:blue></rdf:li><rdf:li rdf:parseType="Resource"><xmpG:swatchName>R=51 G=51 B=51</xmpG:swatchName><xmpG:mode>RGB</xmpG:mode><xmpG:type>PROCESS</xmpG:type><xmpG:red>51</xmpG:red><xmpG:green>51</xmpG:green><xmpG:blue>51</xmpG:blue></rdf:li><rdf:li rdf:parseType="Resource"><xmpG:swatchName>R=77 G=77 B=77</xmpG:swatchName><xmpG:mode>RGB</xmpG:mode><xmpG:type>PROCESS</xmpG:type><xmpG:red>77</xmpG:red><xmpG:green>77</xmpG:green><xmpG:blue>77</xmpG:blue></rdf:li><rdf:li rdf:parseType="Resource"><xmpG:swatchName>R=102 G=102 B=102</xmpG:swatchName><xmpG:mode>RGB</xmpG:mode><xmpG:type>PROCESS</xmpG:type><xmpG:red>102</xmpG:red><xmpG:green>102</xmpG:green><xmpG:blue>102</xmpG:blue></rdf:li><rdf:li rdf:parseType="Resource"><xmpG:swatchName>R=128 G=128 B=128</xmpG:swatchName><xmpG:mode>RGB</xmpG:mode><xmpG:type>PROCESS</xmpG:type><xmpG:red>128</xmpG:red><xmpG:green>128</xmpG:green><xmpG:blue>128</xmpG:blue></rdf:li><rdf:li rdf:parseType="Resource"><xmpG:swatchName>R=153 G=153 B=153</xmpG:swatchName><xmpG:mode>RGB</xmpG:mode><xmpG:type>PROCESS</xmpG:type><xmpG:red>153</xmpG:red><xmpG:green>153</xmpG:green><xmpG:blue>153</xmpG:blue></rdf:li><rdf:li rdf:parseType="Resource"><xmpG:swatchName>R=179 G=179 B=179</xmpG:swatchName><xmpG:mode>RGB</xmpG:mode><xmpG:type>PROCESS</xmpG:type><xmpG:red>179</xmpG:red><xmpG:green>179</xmpG:green><xmpG:blue>179</xmpG:blue></rdf:li><rdf:li rdf:parseType="Resource"><xmpG:swatchName>R=204 G=204 B=204</xmpG:swatchName><xmpG:mode>RGB</xmpG:mode><xmpG:type>PROCESS</xmpG:type><xmpG:red>204</xmpG:red><xmpG:green>204</xmpG:green><xmpG:blue>204</xmpG:blue></rdf:li><rdf:li rdf:parseType="Resource"><xmpG:swatchName>R=230 G=230 B=230</xmpG:swatchName><xmpG:mode>RGB</xmpG:mode><xmpG:type>PROCESS</xmpG:type><xmpG:red>230</xmpG:red><xmpG:green>230</xmpG:green><xmpG:blue>230</xmpG:blue></rdf:li><rdf:li rdf:parseType="Resource"><xmpG:swatchName>R=242 G=242 B=242</xmpG:swatchName><xmpG:mode>RGB</xmpG:mode><xmpG:type>PROCESS</xmpG:type><xmpG:red>242</xmpG:red><xmpG:green>242</xmpG:green><xmpG:blue>242</xmpG:blue></rdf:li></rdf:Seq></xmpG:Colorants></rdf:li><rdf:li rdf:parseType="Resource"><xmpG:groupName>Web カラーグループ</xmpG:groupName><xmpG:groupType>1</xmpG:groupType><xmpG:Colorants><rdf:Seq><rdf:li rdf:parseType="Resource"><xmpG:swatchName>R=63 G=169 B=245</xmpG:swatchName><xmpG:mode>RGB</xmpG:mode><xmpG:type>PROCESS</xmpG:type><xmpG:red>63</xmpG:red><xmpG:green>169</xmpG:green><xmpG:blue>245</xmpG:blue></rdf:li><rdf:li rdf:parseType="Resource"><xmpG:swatchName>R=122 G=201 B=67</xmpG:swatchName><xmpG:mode>RGB</xmpG:mode><xmpG:type>PROCESS</xmpG:type><xmpG:red>122</xmpG:red><xmpG:green>201</xmpG:green><xmpG:blue>67</xmpG:blue></rdf:li><rdf:li rdf:parseType="Resource"><xmpG:swatchName>R=255 G=147 B=30</xmpG:swatchName><xmpG:mode>RGB</xmpG:mode><xmpG:type>PROCESS</xmpG:type><xmpG:red>255</xmpG:red><xmpG:green>147</xmpG:green><xmpG:blue>30</xmpG:blue></rdf:li><rdf:li rdf:parseType="Resource"><xmpG:swatchName>R=255 G=29 B=37</xmpG:swatchName><xmpG:mode>RGB</xmpG:mode><xmpG:type>PROCESS</xmpG:type><xmpG:red>255</xmpG:red><xmpG:green>29</xmpG:green><xmpG:blue>37</xmpG:blue></rdf:li><rdf:li rdf:parseType="Resource"><xmpG:swatchName>R=255 G=123 B=172</xmpG:swatchName><xmpG:mode>RGB</xmpG:mode><xmpG:type>PROCESS</xmpG:type><xmpG:red>255</xmpG:red><xmpG:green>123</xmpG:green><xmpG:blue>172</xmpG:blue></rdf:li><rdf:li rdf:parseType="Resource"><xmpG:swatchName>R=189 G=204 B=212</xmpG:swatchName><xmpG:mode>RGB</xmpG:mode><xmpG:type>PROCESS</xmpG:type><xmpG:red>189</xmpG:red><xmpG:green>204</xmpG:green><xmpG:blue>212</xmpG:blue></rdf:li></rdf:Seq></xmpG:Colorants></rdf:li></rdf:Seq></xmpTPg:SwatchGroups></rdf:Description><rdf:Description xmlns:pdf="http://ns.adobe.com/pdf/1.3/"><pdf:Producer>Adobe PDF library 10.01</pdf:Producer></rdf:Description></rdf:RDF></x:xmpmeta><?xpacket end="w"?></metadata><g><g fill="#210701"><path d="M6.865 2.169c.13.442.857 1.248 1.689 1.43 1.092.26 1.612.39 1.612 1.092 0 1.482-2.393 2.158-4.108 2.444-.52.078-.572.208-.65.546-.676 3.224-.779 3.666-.754 4.785 0 .338 0 1.195.313 1.195.156 0 .364-.156.546-.285 1.196-.885 2.912-1.664 4.862-1.664 3.276 0 4.446 2.729 4.446 4.602 0 4.395-4.732 5.434-6.813 5.772-.988.155-1.898.182-2.08.182-.078 0-.39 0-.39-.13 0-.078 1.014-.391 1.222-.441 5.174-1.509 6.084-3.667 6.084-5.383 0-3.172-2.444-3.354-2.912-3.354-2.47 0-4.498 1.924-4.836 2.963-.416 1.326-.442 1.482-.988 1.482-1.065 0-1.273-2.262-1.273-2.496 0-1.222 1.352-6.89 1.352-7.618 0-.208-.052-.208-.494-.26C.391 6.641 0 4.743 0 4.613c0-.078.053-.182.131-.182.13 0 .754.416.91.468 1.014.52 2.651.52 3.094.52.312 0 .416-.052.52-.208.208-.39.521-1.742.521-2.392 0-.572-.208-1.326-.572-1.742-.208-.234-.286-.313-.286-.39 0-.208.65-.312.78-.312.233 0 1.403.364 1.767 1.794zm-.78 3.042c0 .156.155.182.26.182.39 0 1.769-.39 1.769-.91 0-.494-1.066-1.326-1.223-1.326-.338 0-.806 2.002-.806 2.054zm23.321 8.009c1.222 0 3.198-1.17 3.198-1.353 0-.13-.104-.312-.338-.65-1.404-1.898-1.534-2.106-1.534-2.6 0-.52.91-1.404 3.068-1.404.441 0 2.313.234 2.703.234.364 0 .494-.182.494-.52 0-.104-.155-.598-.155-.702 0-.156.155-.208.233-.208.364 0 1.561.962 1.561 2.054 0 .104-.104.546-.104.598 0 .052 0 .104.052.104.078 0 .521-.156.599-.182.624-.156 1.378-.312 2.028-.312 2.132 0 4.029 1.794 4.029 3.771 0 1.352-.962 3.275-3.64 3.275-2.288 0-3.9-1.846-3.9-2.027 0-.053.052-.131.183-.131.078 0 .155.026.857.286.546.208 1.248.442 2.055.442 1.04 0 2.704-.52 2.704-2.21 0-1.17-.832-2.418-2.549-2.418-1.716 0-3.146.91-6.37 2.99-.078.053-.208.156-.208.261 0 .077 1.04 1.846 1.223 2.21 1.065 1.924 2.418 4.576 2.418 6.137 0 .883-.546 1.299-1.015 1.299-.155 0-.936-.077-.936-1.299 0-2.029-.078-2.236-.702-3.979-.624-1.717-1.716-3.771-1.924-3.771-.078 0-.884.572-1.015.65-.078.052-1.742 1.118-2.418 1.118-.39 0-1.508-1.118-1.508-1.431 0-.155.13-.26.26-.26s.339.028.651.028zm3.979-5.331c-1.145 0-1.145.962-1.145 1.04 0 .364.078.494.884 1.768.364.572.416.624.546.624.104 0 1.639-.91 1.925-1.092.233-.13 1.508-.832 1.508-.91 0-.026-2.861-1.43-3.718-1.43zm34.217-3.848c0 .416-.156.572-1.431 1.976-2.158 2.366-2.782 3.12-3.432 4.342-.104.182-.521.962-.521 1.092 0 .078.026.104.104.104.286-.208.779-.494 1.014-.65 1.69-1.118 2.834-1.144 3.328-1.144 3.198 0 3.38 3.458 3.38 4.498 0 .391-.156 2.106-.156 2.471 0 1.898 1.587 1.898 1.898 1.898 1.43 0 2.782-1.066 4.03-2.366.104-.104.442-.624.521-.624.052 0 .077.052.077.13 0 .442-.624 1.716-1.222 2.418-1.378 1.586-3.38 2.548-4.914 2.548-1.456 0-2.314-1.3-2.314-2.73 0-.598.416-3.328.416-3.873 0-1.457-.52-3.511-2.443-3.511-.442 0-4.811.494-5.747 7.15-.052.312-.155 1.69-.233 1.95-.053.182-.208.857-.858.857-.312 0-1.222-.26-1.222-1.949 0-.754.078-.91.728-2.418.208-.469 1.04-2.522 1.223-2.912.909-1.925 1.222-2.393 3.874-6.604.13-.234 1.222-2.314 1.43-2.782.104-.234.234-.624.234-1.04 0-.156-.183-1.092-.183-1.196 0-.078.053-.156.183-.156.883-.001 2.236 1.741 2.236 2.521zm28.183-1.872c.13.442.857 1.248 1.689 1.43 1.092.26 1.612.39 1.612 1.092 0 1.482-2.393 2.158-4.108 2.444-.52.078-.572.208-.65.546-.676 3.224-.779 3.666-.754 4.785 0 .338 0 1.195.313 1.195.156 0 .364-.156.546-.285 1.196-.885 2.912-1.664 4.862-1.664 3.276 0 4.446 2.729 4.446 4.602 0 4.395-4.732 5.434-6.813 5.772-.988.155-1.898.182-2.08.182-.078 0-.39 0-.39-.13 0-.078 1.014-.391 1.222-.441 5.174-1.509 6.084-3.667 6.084-5.383 0-3.172-2.444-3.354-2.912-3.354-2.47 0-4.498 1.924-4.836 2.963-.416 1.326-.442 1.482-.988 1.482-1.065 0-1.273-2.262-1.273-2.496 0-1.222 1.352-6.89 1.352-7.618 0-.208-.052-.208-.494-.26-3.302-.39-3.692-2.288-3.692-2.418 0-.078.053-.182.131-.182.13 0 .754.416.91.468 1.014.52 2.651.52 3.094.52.312 0 .416-.052.52-.208.208-.39.521-1.742.521-2.392 0-.572-.208-1.326-.572-1.742-.208-.234-.286-.313-.286-.39 0-.208.65-.312.78-.312.232 0 1.402.364 1.766 1.794zm-.78 3.042c0 .156.155.182.26.182.39 0 1.769-.39 1.769-.91 0-.494-1.066-1.326-1.223-1.326-.338 0-.806 2.002-.806 2.054zm23.321 8.009c1.222 0 3.198-1.17 3.198-1.353 0-.13-.104-.312-.338-.65-1.404-1.898-1.534-2.106-1.534-2.6 0-.52.91-1.404 3.068-1.404.441 0 2.313.234 2.703.234.364 0 .494-.182.494-.52 0-.104-.155-.598-.155-.702 0-.156.155-.208.233-.208.364 0 1.561.962 1.561 2.054 0 .104-.104.546-.104.598 0 .052 0 .104.052.104.078 0 .521-.156.599-.182.624-.156 1.378-.312 2.028-.312 2.132 0 4.029 1.794 4.029 3.771 0 1.352-.962 3.275-3.64 3.275-2.288 0-3.9-1.846-3.9-2.027 0-.053.052-.131.183-.131.078 0 .155.026.857.286.546.208 1.248.442 2.055.442 1.04 0 2.704-.52 2.704-2.21 0-1.17-.832-2.418-2.549-2.418-1.716 0-3.146.91-6.37 2.99-.078.053-.208.156-.208.261 0 .077 1.04 1.846 1.223 2.21 1.065 1.924 2.418 4.576 2.418 6.137 0 .883-.546 1.299-1.015 1.299-.155 0-.936-.077-.936-1.299 0-2.029-.078-2.236-.702-3.979-.624-1.717-1.716-3.771-1.924-3.771-.078 0-.884.572-1.015.65-.078.052-1.742 1.118-2.418 1.118-.39 0-1.508-1.118-1.508-1.431 0-.155.13-.26.26-.26s.339.028.651.028zm3.979-5.331c-1.145 0-1.145.962-1.145 1.04 0 .364.078.494.884 1.768.364.572.416.624.546.624.104 0 1.639-.91 1.925-1.092.233-.13 1.508-.832 1.508-.91-.001-.026-2.861-1.43-3.718-1.43zm34.216-3.848c0 .416-.156.572-1.431 1.976-2.158 2.366-2.782 3.12-3.432 4.342-.104.182-.521.962-.521 1.092 0 .078.026.104.104.104.286-.208.779-.494 1.014-.65 1.69-1.118 2.834-1.144 3.328-1.144 3.198 0 3.38 3.458 3.38 4.498 0 .391-.156 2.106-.156 2.471 0 1.898 1.587 1.898 1.898 1.898 1.43 0 2.782-1.066 4.03-2.366.104-.104.442-.624.521-.624.052 0 .077.052.077.13 0 .442-.624 1.716-1.222 2.418-1.378 1.586-3.38 2.548-4.914 2.548-1.456 0-2.314-1.3-2.314-2.73 0-.598.416-3.328.416-3.873 0-1.457-.52-3.511-2.443-3.511-.442 0-4.811.494-5.747 7.15-.052.312-.155 1.69-.233 1.95-.053.182-.208.857-.858.857-.312 0-1.222-.26-1.222-1.949 0-.754.078-.91.728-2.418.208-.469 1.04-2.522 1.223-2.912.909-1.925 1.222-2.393 3.874-6.604.13-.234 1.222-2.314 1.43-2.782.104-.234.234-.624.234-1.04 0-.156-.183-1.092-.183-1.196 0-.078.053-.156.183-.156.884-.001 2.236 1.741 2.236 2.521zm29.068 13.807c.78 0 4.731-.546 4.862-.546 1.014 0 1.716.701 1.716 1.222 0 1.404-4.42 1.534-5.851 1.534-2.574 0-8.061-.468-8.061-4.551 0-.987.286-1.273.339-1.273.182 0 .363.832.416.962.728 1.82 3.146 2.601 4.992 2.601.183-.001 1.326.051 1.587.051zm.078-14.535c.312 0 1.768-.052 2.054-.052 1.716 0 2.548 1.69 2.548 2.08 0 .468-.233.468-2.028.598-1.325.078-2.287.676-3.275 1.248-.26.156-.26.13-.364.13-.026 0-.078 0-.078-.052 0-.234 1.431-1.456 1.431-1.768 0-.156-.078-.182-.832-.312-3.381-.624-4.576-2.262-4.576-2.522 0-.078.077-.078.13-.078.155 0 .728.234.857.26 1.168.338 2.651.468 4.133.468zm37.687 17.977c.192.216 1.176 1.271 1.176 1.416a.16.16 0 01-.168.145c-.239 0-5.784-3.984-5.784-11.425S224.123 0 224.362 0c.12 0 .168.096.168.144 0 .144-.983 1.2-1.176 1.416a15.721 15.721 0 00-3.456 9.865c0 5.232 2.497 8.665 3.456 9.865zm7.295-11.353c-.097-.12-.097-.12-.097-.168s.049-.048.072-.048c.12 0 .744.072.864.072 1.032.072 2.064.096 3.097.096.336 0 .647-.144.647-.648 0-.936 0-2.52-.023-3.48 0-.576-.072-.576-.168-.576-.12 0-.168.072-.648.72-1.464 1.944-3.048 3.288-3.192 3.288-.072 0-.096-.072-.096-.096 0-.048 1.032-1.512 1.2-1.8 1.032-1.752 2.352-4.513 2.448-5.641.048-.768.048-.864.216-.864.24 0 2.328.72 2.328 1.152 0 .168-.72.672-.864.816-.168.192-.647.984-.647 1.176 0 .288.264.288.672.288h10.2c1.08 0 1.2 0 1.44-.384.336-.528.528-.816.792-.816.313 0 2.04 1.272 2.04 1.536 0 .312-.552.312-1.128.312h-1.536c-.191 0-.552 0-.696.312-.096.216-.096 2.208-.096 2.64 0 .336 0 1.776.12 1.896.144.168.24.168 1.08.168.408 0 .552-.072.888-.672.12-.216.36-.576.696-.576.216 0 2.088 1.249 2.088 1.536 0 .336-.479.336-1.296.336h-2.832c-.336 0-.648 0-.72.384-.024.096-.024 2.28-.024 2.592 0 1.944 0 2.137.576 2.137.432 0 .552 0 .816-.36.647-.841.72-.937.912-.937.384 0 1.848 1.465 1.848 1.68 0 .24-.552.24-1.056.24h-16.202c-.552 0-1.271.024-1.824.072-.071 0-.407.049-.479.049s-.12-.049-.192-.145l-.432-.553c-.096-.119-.096-.119-.096-.168 0-.047.048-.047.071-.047.12 0 .696.047.816.071 1.296.097 1.632.097 2.088.097.336 0 .528 0 .721-.168.144-.145.191-.168.191-2.473 0-2.232 0-2.472-.672-2.472-.792 0-1.992 0-2.736.072-.072 0-.432.048-.504.048s-.12-.048-.216-.144l-.455-.55zm1.176 12.097c-.528 0-.816-.48-.816-.912 0-.456.169-.792 1.104-1.561.769-.648 1.057-1.128 1.2-1.68.192-.721.216-.792.36-.792.336 0 .359 1.344.359 1.608.001 2.353-1.463 3.337-2.207 3.337zm5.569-11.521c-.696 0-.696.168-.696 1.608 0 .408-.023 2.833.049 3.12.071.385.359.385.672.385h.647c.265 0 .505 0 .624-.24.097-.217.097-3.457.097-3.985 0-.744-.097-.888-.696-.888h-.697zm.12-5.64c-.384 0-.647 0-.744.384-.072.312-.072 2.112-.072 2.568 0 1.848 0 2.064.793 2.064h.527c.336 0 .576 0 .696-.288.072-.192.072-1.512.072-1.848 0-.384 0-2.376-.072-2.592-.12-.288-.384-.288-.72-.288h-.48zm1.92 15.649c0 .983-.479 1.463-1.031 1.463-.576 0-.721-.432-.721-1.127 0-1.32 0-1.969-.216-2.904-.024-.145-.24-.769-.24-.889 0-.048 0-.119.097-.119.287 0 .84.623 1.104.936.407.527 1.007 1.512 1.007 2.64zm2.16-4.896c.337 0 .624 0 .696-.385.072-.359.072-2.184.072-2.664 0-.359 0-1.584-.072-1.8-.096-.264-.384-.264-.672-.264h-.624c-.744 0-.744.12-.744 1.224 0 .552 0 3.36.096 3.624.097.265.385.265.673.265h.575zm.049-5.737c.72 0 .72-.192.72-1.776 0-.336-.048-2.664-.072-2.832-.072-.408-.384-.408-.696-.408h-.575c-.265 0-.576 0-.673.288-.071.24-.071 2.88-.071 3.384 0 1.176 0 1.344.72 1.344h.647zm3.671 10.801c0 .983-.552 1.271-.96 1.271-.288 0-.601-.096-.744-1.032-.192-1.272-.336-2.136-.769-3.097-.023-.047-.264-.551-.264-.6 0-.048.048-.096.096-.096.337 0 .912.48 1.225.744.48.458 1.416 1.538 1.416 2.81zm-.744-15.817c-.264 0-.624 0-.696.336-.071.288-.071 3.313-.071 3.816 0 .648 0 .864.744.864h.72c.696 0 .744-.216.744-.816 0-.336 0-3.744-.12-3.984-.096-.216-.432-.216-.648-.216h-.673zm-.023 5.64c-.553 0-.721.096-.721.696v3.816c0 .601.36.601.744.601h.696c.264 0 .576 0 .672-.289.072-.168.072-1.896.072-2.256 0-.384 0-2.112-.072-2.28-.096-.288-.408-.288-.672-.288h-.719zm6.792 10.249c0 .337-.072 1.368-.96 1.368-.576 0-.648-.24-.96-1.368-.216-.743-.744-2.16-1.128-2.904-.12-.216-.313-.575-.313-.696 0-.047.048-.071.072-.071.264 0 .984.504 1.2.672 1.585 1.175 2.089 2.159 2.089 2.999zm13.294-11.761c-.144 0-.72.024-.72.408 0 .096.096.192.192.24 1.368.72 3.744 2.448 3.744 3.745 0 .336-.192 1.008-.864 1.008-.456 0-.552-.288-.84-1.2-.576-1.8-2.064-3.168-2.16-3.168-.12 0-.12.072-.12.528 0 .576.048 3.384.048 4.008.024.912.096 5.328.096 6.336 0 1.105-1.032 1.273-1.151 1.273-.288 0-.673-.217-.673-.744 0-.529.192-3.121.217-3.697.023-.312.144-4.607.144-4.824 0-.145-.048-.264-.216-.264-.12 0-.168.072-.528.768-.984 1.801-3.096 4.656-3.408 4.656-.048 0-.072-.023-.072-.072 0-.047.336-.647.408-.768 2.641-5.088 3.097-7.537 3.097-7.705a.52.52 0 00-.553-.528c-.432 0-1.752.072-2.16.096-.048 0-.288.024-.336.024-.096 0-.144-.048-.216-.144l-.456-.552c-.12-.12-.12-.12-.12-.168s.048-.048.097-.048c.119 0 .72.072.863.072.456.024 2.641.096 2.952.096.576 0 .721-.216.721-.696 0-1.368-.048-3.816-.097-5.088-.023-.264-.168-1.488-.168-1.752 0-.12.049-.264.192-.264.048 0 2.376.456 2.376.888 0 .12-.048.144-.239.336-.192.144-.385.36-.528.984 0 .048-.216 4.705-.216 4.945 0 .648.456.648.84.648.264 0 .792 0 .984-.168.144-.144.815-1.128 1.056-1.128.12 0 1.872 1.272 1.872 1.608 0 .312-.264.312-.912.312h-3.146zm-4.248-2.064c-.48 0-.552-.384-.768-1.44-.24-1.104-.793-1.992-1.152-2.592-.024-.048-.072-.12-.072-.192 0-.096.096-.144.168-.144.408 0 2.784 1.68 2.784 3.216 0 .888-.72 1.152-.96 1.152zm4.608.408c-.024 0-.048 0-.048-.072s.456-1.032.552-1.224c.456-1.056 1.032-2.856 1.08-3.865 0-.072.024-.216.145-.216.191 0 1.92 1.176 1.92 1.44 0 .144-.145.24-.216.288-.145.072-.528.264-.744.48-.073.073-2.401 3.169-2.689 3.169zm4.992 8.041c-1.032.216-2.304.504-2.952.695-.096.024-.432.145-.528.145-.071 0-.119-.023-.191-.096l-.576-.457c-.12-.096-.12-.096-.12-.144s.048-.048.648-.12a65.52 65.52 0 003.72-.648l3.744-.791c.744-.168.744-.816.744-.864 0-4.417-.12-8.857-.239-10.417-.024-.264-.217-1.512-.217-1.776 0-.12.072-.216.192-.216.144 0 2.473.408 2.473.816 0 .144-.456.576-.528.672a3.68 3.68 0 00-.24.816c0 .096-.023 3.84-.023 4.512 0 1.08 0 4.656.023 5.473 0 .216.216.408.456.408.096 0 .456-.072.576-.288.144-.24.6-1.417.84-1.417.072 0 2.064.937 2.064 1.32 0 .36-.72.528-.84.553l-2.4.48c-.408.071-.648.359-.648.768 0 1.008.24 5.736.24 6.24 0 .84-.768 1.225-1.224 1.225-.408 0-.696-.313-.696-.793 0-.215.071-1.248.071-1.463.024-.984.097-3.697.097-4.369 0-.576 0-1.176-.696-1.032l-3.77.768zm1.729-3.625c-.504 0-.576-.288-.744-.84-.12-.432-.984-2.016-1.632-2.664-.12-.12-.24-.216-.24-.312 0-.072.096-.096.144-.096.385 0 3.265 1.224 3.265 2.928-.001.96-.673.984-.793.984zm.216-6.024c-.456 0-.72-.528-.912-.888-.384-.744-.624-.96-1.416-1.704-.12-.12-.144-.144-.144-.216 0-.072.048-.072.168-.072.071 0 2.976.456 2.976 1.968 0 .095 0 .912-.672.912zm14.735-4.177c-.192-.216-1.176-1.272-1.176-1.416 0-.048.048-.144.168-.144.24 0 5.784 3.984 5.784 11.425s-5.544 11.425-5.784 11.425a.16.16 0 01-.168-.145c0-.145.983-1.2 1.176-1.416.96-1.2 3.456-4.633 3.456-9.865a15.72 15.72 0 00-3.456-9.864z"/></g></g></svg>