<svg version="1.1" baseProfile="tiny" id="レイヤー_1" xmlns="http://www.w3.org/2000/svg" x="0" y="0" width="181" height="401" viewBox="0 0 181 401" xml:space="preserve"><metadata><?xpacket begin="﻿" id="W5M0MpCehiHzreSzNTczkc9d"?><x:xmpmeta xmlns:x="adobe:ns:meta/" x:xmptk="Adobe XMP Core 5.3-c011 66.145661, 2012/02/06-14:56:27"><rdf:RDF xmlns:rdf="http://www.w3.org/1999/02/22-rdf-syntax-ns#"><rdf:Description xmlns:dc="http://purl.org/dc/elements/1.1/"><dc:format>image/svg+xml</dc:format><dc:title><rdf:Alt><rdf:li xml:lang="x-default">Web</rdf:li></rdf:Alt></dc:title></rdf:Description><rdf:Description xmlns:xmp="http://ns.adobe.com/xap/1.0/" xmlns:xmpGImg="http://ns.adobe.com/xap/1.0/g/img/"><xmp:CreatorTool>Adobe Illustrator CS6 (Windows)</xmp:CreatorTool><xmp:CreateDate>2017-07-11T14:29:30+09:00</xmp:CreateDate><xmp:ModifyDate>2017-07-11T14:29:30+09:00</xmp:ModifyDate><xmp:MetadataDate>2017-07-11T14:29:30+09:00</xmp:MetadataDate><xmp:Thumbnails><rdf:Alt><rdf:li rdf:parseType="Resource"><xmpGImg:width>116</xmpGImg:width><xmpGImg:height>256</xmpGImg:height><xmpGImg:format>JPEG</xmpGImg:format><xmpGImg:image>/9j/4AAQSkZJRgABAgEASABIAAD/7QAsUGhvdG9zaG9wIDMuMAA4QklNA+0AAAAAABAASAAAAAEA AQBIAAAAAQAB/+4ADkFkb2JlAGTAAAAAAf/bAIQABgQEBAUEBgUFBgkGBQYJCwgGBggLDAoKCwoK DBAMDAwMDAwQDA4PEA8ODBMTFBQTExwbGxscHx8fHx8fHx8fHwEHBwcNDA0YEBAYGhURFRofHx8f Hx8fHx8fHx8fHx8fHx8fHx8fHx8fHx8fHx8fHx8fHx8fHx8fHx8fHx8fHx8f/8AAEQgBAAB0AwER AAIRAQMRAf/EAaIAAAAHAQEBAQEAAAAAAAAAAAQFAwIGAQAHCAkKCwEAAgIDAQEBAQEAAAAAAAAA AQACAwQFBgcICQoLEAACAQMDAgQCBgcDBAIGAnMBAgMRBAAFIRIxQVEGE2EicYEUMpGhBxWxQiPB UtHhMxZi8CRygvElQzRTkqKyY3PCNUQnk6OzNhdUZHTD0uIIJoMJChgZhJRFRqS0VtNVKBry4/PE 1OT0ZXWFlaW1xdXl9WZ2hpamtsbW5vY3R1dnd4eXp7fH1+f3OEhYaHiImKi4yNjo+Ck5SVlpeYmZ qbnJ2en5KjpKWmp6ipqqusra6voRAAICAQIDBQUEBQYECAMDbQEAAhEDBCESMUEFURNhIgZxgZEy obHwFMHR4SNCFVJicvEzJDRDghaSUyWiY7LCB3PSNeJEgxdUkwgJChgZJjZFGidkdFU38qOzwygp 0+PzhJSktMTU5PRldYWVpbXF1eX1RlZmdoaWprbG1ub2R1dnd4eXp7fH1+f3OEhYaHiImKi4yNjo +DlJWWl5iZmpucnZ6fkqOkpaanqKmqq6ytrq+v/aAAwDAQACEQMRAD8A7D5C8heU73ynpU02lWRc 2VlU/UrJiS1lC7Es8LMxZmJJJyIDOUjbIP8AlWnkz/q02X/SDYf9k+GkcRd/yrTyZ/1abL/pBsP+ yfGl4i7/AJVp5M/6tNl/0g2H/ZPjS8Rd/wAq08mf9Wmy/wCkGw/7J8aXiLv+VaeTP+rTZf8ASDYf 9k+NLxF3/KtPJn/Vpsv+kGw/7J8aXiLv+VaeTP8Aq02X/SDYf9k+NLxF3/KtPJn/AFabL/pBsP8A snxpeIu/5Vp5M/6tNl/0g2H/AGT40vEXf8q08mf9Wmy/6QbD/snxpeIu/wCVaeTP+rTZf9INh/2T 40vEXf8AKtPJn/Vpsv8ApBsP+yfGl4i7/lWnkz/q02X/AEg2H/ZPjS8RYJ/hrQP8e/o79G2f1On9 x9VtvT5ev6PP0vT9Lnw25cMjW7OzTO/y0/5QzSf+YKx/6gLfJBhLmyjCxdirsVdirsVdirsVdirs VdirsVdirsVeX/8AlT/8/wDlryPVs6Mo/LT/AJQzSf8AmCsf+oC3whjLmyjCxdirsVdirsVdirsV diq0yxiQRFwJWBZUqORVSASB4DkMVaW4gadoFkQzood4gw5qrVCkr1ANDTFV+KuxV2KvL/8Ayp/+ f/LXkerZ0ZR+Wn/KGaT/AMwVj/1AW+EMZc2UYWLsVS3zL+lRoF+dJPHUxC/1RgqNSSnw7SSQp97j EpHN4D+Wuv8AnXVPMfl6x1HU9VuVWKOaQw38LCT0QDJIQ7Ik0ZMo5huTcB8I5fFlYLdICn0hljQ7 FXYq8q0iTzYfzB039NNe/VDdzrZrqLNFJ/vHcEBI7ANp0vwj7TvzA7VzHF8W/wCP0OQeHh2/H6WM +avOkdn+dLMmtWzwW6QWst5FB9ZudNhLutzaJDQrzlmeNnnofTUKGBHW0ndiI+lMZtM19vzAvNWW 480i1udOsLJNRt7HT47kyR3k0kiuXtVUQxq6M3wcmBI+KgXHqixXR7UOnj75NqdirsVeX/8AlT/8 /wDlryPVs6Mo/LT/AJQzSf8AmCsf+oC3whjLmyjCxdiqldNCtrM04rCEYyjrVQDy/DFWH6D5W/LK ym8v6hpdrHDLPH63l92eepVrZv7tZW+19XdvhIrxqexoAAzJLNcLB2KuxVgH5UzXMv6Tkk8yP5gh dbR4zIZG4SFHE80ZkjiHozSq3p8KpRdjWuU4uu9t2bptSW6t5C8zXP5jQavFfXNvHdpqLi6gkLQ2 ARtNFrGsbMoP1n6m7Sqo+LkymoFcsrdiJCmNWHkHzcfy20iybQ7oa9Ff20k8jak8brbx6kJWPD1O A/0daBRuB03FMFbMuIW92ybS7FXYq8v/APKn/wCf/LXkerZ0ZR+Wn/KGaT/zBWP/AFAW+EMZc2UY WLsVWyRpJG0bjkjgqynuCKEYqx/y55V0XTtHsNI+svrA0Kdns572RbieCQBxGpbs0UM3prtXjgAZ EsiwsXYq7FXkf5XXOgz32nCXS7u2vVt4W0mT1dXuYo4/RnHpTPdIluGhiJAYfCTJRPfHxEd33uTl Brn9yY+YPzWs9M/MU6C2pQW9nHp/FoZYJXd9UnmZLaIMvHjVYmY12Ipv3y4y3ahDa2LeW/zk8+a1 rOkwXVqthBdadaauLO20u4uJruGZ+E4jeW5hVY4wVb1FDdRsehAkWRgA90ybS7FXYq8v/wDKn/5/ 8teR6tnRlH5af8oZpP8AzBWP/UBb4QxlzZRhYuxVxrQ069q9K4q8i/KjQNfs/MurQXN1Lp9lpl5c E6fBpj2cN9LKAGuJLmRGSSJWYrbRxvURqhY9sjENkyKeu5JrdirsVee/lbexapCZFS5CWsFnMly+ pX96kryRzqyMLpIVBQNVlVSCSp6qpynEb/tbsor+wMF832d5qX5vnQtTlOlR6zeQz2OpwSK8kcVn pl1BZRtQMsby3U080ayfa4Edcmeaj6bYRa6f+l/JPkiK5jlSW5vbHSIdXhuLn1oLa6k+pSJbPJcS qkTxbcPR4MOoyLPkS+sx08ffLXGdirsVeX/+VP8A8/8AlryPVs6Mo/LT/lDNJ/5grH/qAt8IYy5s owsXYqhdUuJ7bTrieBGkmjQtFGkZmZmHRRGGj5En/KHuQMVDzLy/5v8AzCvvNX6OYRSziaJ/Menx Qqy6RFzMcUQkaeMSNconqtQsVB5KGFKxBLYYinq+Sa3YqhdVt7m50u7t7WUw3M0MiQTAlSrspCsG AJWh79sB5JHNIfJmkeb9LnvrfXdTOrWhjtmsrpyvqerxdbhSqpHxUUj47mu7dSRkICQ5lnMxPIUv vdU8raTqZgnsbj6zdXUTzXgsLqWETyALHLJeek0KhAQvIyUQfDt0ybGiUgmuPyi0i109JtD/AEfb Wl1bLp8smiXsKR3JlVbcrK1soVvVIoS3XBsn1F6JkmDsVdiry/8A8qf/AJ/8teR6tnRlH5af8oZp P/MFY/8AUBb4QxlzZRhYuxVTuYnmgeJJnt3cUE0fEuvuvNXWvzU4qwLy5oXkHUr+LVNLlnsdZgu7 qG4eO/cXV6bK5eGT63wlc3MZaMsnqV4rSnEbZEUzJL0HJMHYq7FWD+SvOOuarcQWjWsmq6aUB/xO tvJYQyKIVcSehPu/OQlf3RIrvQDpVCZP622cAPLyYz5s/wAGr5zexkuNKhUX9p+k9Pml0qFnkuSj kyQzWE9zI0vqAn96OVftL2mVF0iLLT/Onn7QHS+1GxtbSw8xOPqy2Ugn9HSNT2T1hccORWD/AHz/ AFx5osAvVsk1uxV2KvL/APyp/wDn/wAteR6tnRlH5af8oZpP/MFY/wDUBb4QxlzZRhYuxVQv7Zrq xubZWCNPE8Ydl5qC6lalaryG/SoxVgXlL8q5dA0by7occ9uthoV3Lfy3Ucf+k3Uxkm9EMaKqfu5R 6jfEW+yKLuYgMzO3omSYOxV2KsD/ACs1DVb2G5a+1mHVFS2sljhivbW+aFgsvN2a1t7UL6m1OXIn id8qxEnq3ZQByCzU/wAqDqvmPV9UvdbuUstRvtMv49Mt44FjB0tY+IlkdJJW5vGT8DLQeOT4WAns hb78qvNEtprOl2HnKbT9D1q7u7ua0jsoTPGt/K808UdzzDAFpGo3GoxpPGO56PGpSNULFyoALtSp oOpoAKn5ZJrXYq7FXl//AJU//P8A5a8j1bOjKPy0/wCUM0n/AJgrH/qAt8IYy5sowsXYq7FWD/l3 5k0t4rnRZLppNdGp6tLd2VJZHgD6hcSoJNiIk9Nl9MsQGFKdcALOQZxhYOxV2KsI8gafPpjmCWwn hvnt7KK9FzeWtxLFFHHOYyyQBBx9QFQ3GrlieinKsYptyG0v/MzXvMk8Umh6Wsmk2FwfQvNbkpHP ICQJINOV9vUKE/vpKKP2ObdJksYgJD5P8+atoN7J5Zt9Il1fS7DjwsbO4F3qun28jUhM6yemLiJ6 1DK3KMbNyHFiAWRje72RCWUMVKkgEqaVHsaEjJtTeKuxV5f/AOVP/wA/+WvI9Wzoyj8tP+UM0n/m Csf+oC3whjLmyjCxdirsVQ1+upFYTYPErLMhuFnViHgrSRVKkcXoaqaEVFCN6hVE4q7FXYq87/Ki /wBFu77XTpljc6eCLSeSG7a3mkZbpZJ4pXnjMlwzyRyAlJ3YoONOtMpxEb035gRVofzj5l/MGy1e S4t9Mvx5esdVtLdxptvHd3VzZPZTvcyrFR34rcvCtV32PvlhJYRASXyVe+cka/fQ9Cun1SW5ivdY 1nXLKTTG1RTM0JhCyNyikhtSjIVX0+QYBADgCZU9mybU7FXYq8v/APKn/wCf/LXkerZ0ZR+Wn/KG aT/zBWP/AFAW+EMZc2UYWLsVdiqS6b508sanrE2jWN+k2pQLI7wBXXksMnoytG7KEkEcvwPwJ4ts d8FpMSnWFDsVdirCvy7vI7mW99DzHceYIEtrLe7hjgkikYSszcY7e2/vE4H4izilGpTKsZ87bcg8 qTHzL5wk0bXdE0aDTZNQudc+teh6ckcfA2kayNy9QqKFWPft77WEsBGwoWfnm7k86W/lW80S4s7i 5sZdRS5MsEsaxwypE3II5Iq0gH8O+Nrw7WyvCxdirsVeX/8AlT/8/wDlryPVs6Mo/LT/AJQzSf8A mCsf+oC3whjLmyjCxdirsVYN5U0DV4fNl1qN/okOn20SXcGmPDcIY4oJ7kTMEt41/vLlx6s8jN1C qAdzkQGZOzOckwdirsVYX+Wi6oLSVtRsdPsZXgt3RLAQB3WQyzepIsBdVUmT4PiIJ5MPtUFWK+rb lrolP5kR+p+ZH5fINRk0oltWpdxehzH+iL8I+sJNH8XTdflkzzRHkVDT0Fv+etksmtS6u0vlm8VG n+q1Qi/tm4r9VigXcAn4h2x6qfp+L1HJNbsVdiry/wD8qf8A5/8ALXkerZ0ZR+Wn/KGaT/zBWP8A 1AW+EMZc2UYWLsVcSAKnYDFXnXk3zJ/zuGrSXsxTTfNk/wBZ8sPIxCSixjWzmSPkaD1UhS4jA+2r Mw6ZEFnIbe56LkmDsVUrp7lLWZ7WNZrlUYwxOxjRnA+FWcK/EE9+JxKhhvkJNJi13W7fTvLw8upB BZRG3KLDJKqSXSrI0ca+lQ0PF1duQ60oMqx1ZoU25LoWbZNqnlzQdWubS51OwgvZrAyGzadBJ6Zl AVyoao3Ay2msEhbaeV/LdnqK6naaXa22oLE1ut1DDHHJ6TsGZOSgGhZQcFLZTPCh2KuxV5f/AOVP /wA/+WvI9Wzoyj8tP+UM0n/mCsf+oC3whjLmyjCxdiqhfxW81lPHcW4u4GjYSWpVXEi03Ti3wty6 UOKsMHnTTdS1S10/UvL5srGK9jt7efVTbgi9EQmhFvBGbj41V13YoVr7GkbZ8LOskwdirsVdirsV dirsVdirsVeX/wDlT/8AP/lryPVs6Mo/LT/lDNJ/5grH/qAt8IYy5sowsXYq4kAVOwGKsW8sSaLc 6xqV/pOtvfWl4YbprHjEYEkuoEaOaKX01kb1IkqB6hG5+gBkWU4WLsVdirsVdirsVdirsVdiry// AMqf/n/y15Hq2dGUflp/yhmk/wDMFY/9QFvhDGXNlGFi7FUDrkEVxo97bTNKkU8LxSNAsjyBZBxP FYv3ld/2d/AjriUh5v5e0COx823d1+i4YrAXFk1j9W0GSHlxg9E8Xk5GBYWo1djtttsYgMydnq2S a3Yq7FXYq7FXYq7FXYq7FXl//lT/APP/AJa8j1bOjKPy0/5QzSf+YKx/6gLfCGMubKMLF2KuxV5p 5H82eZrj8wNV0O+ngvNIlF1dWMqF2eB7adYZoBIFaN1Dy03cEFWXiAKCIO7ZICnpeSa3Yq7FXYq7 FXYq7FXYq7FXl/8A5U//AD/5a8j1bOjKPy0/5QzSf+YKx/6gLfCGMubKMLF2KuxViPk250Bdf8xa bpGhT6W1rcB9RuyIhbz3EpaQ+n6UstGowkKlVNHBIFdwGUrpl2Fi7FXYq7FXYq7FXYq7FXYq8v8A /Kn/AOf/AC15Hq2dGUflp/yhmk/8wVj/ANQFvhDGXNlGFi7FXYq848r+QLTTPP1xqNtrVtKtgssU lhFCiX7SXyrM36QuRIWnqUMqckG5NNlpkQN2Zls9HyTB2KuxV2KuxV2KuxV2KuxV5f8A+VP/AM/+ WvI9Wzoyj8tP+UM0n/mCsf8AqAt8IYy5sowsXYqhNWtpLnTLq3j/ALyWJlQUrUkdKFowa9KFgMUh 415U8jaqPPFxKLd4jpt9Ab64NpaoJSY4542JjvS0RigPo/uQQ3Is6t9nIAbthls9wybU7FXYq7FX Yq7FXYq7FXYq8v8A/Kn/AOf/AC15Hq2dGUflp/yhmk/8wVj/ANQFvhDGXNlGFi7FUBr11JaaNeXE UywSxxMY5XR5QG6Ckcfxua/ZVdydhiUh4x5S/NTzVqWoaDZ6hqYQ3U9lFdNGLWJnSWIP8cE0ZnR5 TJAHCgger8DU4tkAW0wD3bJtLsVdirsVdirsVdirsVdiry//AMqf/n/y15Hq2dGUflp/yhmk/wDM FY/9QFvhDGXNlGFi7FVk8KTQyQv9iRSjU8GFDirzDyv5G/KjVNXj1mys7kappt1FbWd5eNPbvJJp cMEHGKNzGJFj+poH+CoZWrTfIgBsMpPUsk1uxV2KuxV2KuxV2KuxV2KvL/8Ayp/+f/LXkerZ0ZR+ Wn/KGaT/AMwVj/1AW+EMZc2UYWLsVcRUUxV5v5C/K628veZtT1S+srOaT13/AEHei6muJoLd6AJ6 M8QEcsgBeaUSu0jsxO22RAZynYekZJg7FXYq7FXYq7FXYq7FXYq8v/8AKn/5/wDLXkerZ0ZR+Wn/ AChmk/8AMFY/9QFvhDGXNlGFi7FUm85PYp5V1R794Es1t3MzXQYxcadG4tG1T0XiwNaU3wFMeb5n 8uX0tz+ZmkXN3/uO538dxdxte26P9baK2kcFLoM4Ku0qemz1ABjU+opOVjm5B5PrHLXGdirsVdir sVdirsVdirsVeX/+VP8A8/8AlryPVs6Mo/LT/lDNJ/5grH/qAt8IYy5sowsXYq4gEUIqPA4qxTyl 5r0XzRqGqNBDCWsplNlKyH1ZrbeNLkc0HwPPDKI2RiCqg7YAbZEUyvCxdirsVdirsVdirsVdirsV eX/+VP8A8/8AlryPVs6Mo/LT/lDNJ/5grH/qAt8IYy5sowsXYqpXUUU1rNFMxWKRGSRgxQhWBBIY UK7d8VYPp9x+Wh1OxvdPvpGudIceW0tbd7nis1ozIkFxboByMR5spkWlKv0HIR2Zm2e5Jg7FXYq7 FXYq7FXYq7FXYq8v/wDKn/5/8teR6tnRlH5af8oZpP8AzBWP/UBb4QxlzZRhYuxVRvBIbOcRwrcS em/C3cgLIeJojEggBunTFWA+UPKd5od5pNnc+X0/0SEMdc0+5WCITzoZLpZrQNDVfXLcKK44kdKZ EBmTb0TJMHYq7FXYq7FXYq7FXYq7FXl//lT/APP/AJa8j1bOjKPy0/5QzSf+YKx/6gLfCGMubKML F2KuxV5H5E1bV7i88kSXF48hv7W7e9/3I3Fy0zJCCpmt5AI0IJrsTQ5ENkhzeuZJrdirsVdirsVd irsVdirsVeX/APlT/wDP/lryPVs6Mo/LT/lDNJ/5grH/AKgLfCGMubKMLF2KuxVB2ui6PaGI2ljb 25gBWExRInBW6heIHEH2xTaMxQ7FXYq7FXYq7FXYq7FXYq8v/wDKn/5/8teR6tnREeQvPvlOy8p6 VDNqtkHFlZVH12yUgrZQowKvMrKVZSCCMQUSibZB/wArL8mf9Xay/wCk6w/7KMNo4S7/AJWX5M/6 u1l/0nWH/ZRja8Jd/wArL8mf9Xay/wCk6w/7KMbXhLv+Vl+TP+rtZf8ASdYf9lGNrwl3/Ky/Jn/V 2sv+k6w/7KMbXhLv+Vl+TP8Aq7WX/SdYf9lGNrwl3/Ky/Jn/AFdrL/pOsP8AsoxteEu/5WX5M/6u 1l/0nWH/AGUY2vCXf8rL8mf9Xay/6TrD/soxteEu/wCVl+TP+rtZf9J1h/2UY2vCXf8AKy/Jn/V2 sv8ApOsP+yjG14S7/lZfkz/q7WX/AEnWH/ZRja8Jd/ysvyZ/1drL/pOsP+yjG14SwT/Eugf49/SP 6Ss/qdP7/wCtW3p8vX9bh6vqelz4b8eeRvdnRp//2Q==</xmpGImg:image></rdf:li></rdf:Alt></xmp:Thumbnails></rdf:Description><rdf:Description xmlns:xmpMM="http://ns.adobe.com/xap/1.0/mm/" xmlns:stRef="http://ns.adobe.com/xap/1.0/sType/ResourceRef#" xmlns:stEvt="http://ns.adobe.com/xap/1.0/sType/ResourceEvent#"><xmpMM:RenditionClass>proof:pdf</xmpMM:RenditionClass><xmpMM:OriginalDocumentID>uuid:65E6390686CF11DBA6E2D887CEACB407</xmpMM:OriginalDocumentID><xmpMM:DocumentID>xmp.did:7CCAAD1FDC65E711A588CAE2881F51E6</xmpMM:DocumentID><xmpMM:InstanceID>xmp.iid:7CCAAD1FDC65E711A588CAE2881F51E6</xmpMM:InstanceID><xmpMM:DerivedFrom rdf:parseType="Resource"><stRef:instanceID>uuid:c5b5eddb-66da-6741-a40d-cc810f9d042d</stRef:instanceID><stRef:documentID>xmp.did:FB05051EC465E111835FF2FC000FBA2B</stRef:documentID><stRef:originalDocumentID>uuid:65E6390686CF11DBA6E2D887CEACB407</stRef:originalDocumentID><stRef:renditionClass>proof:pdf</stRef:renditionClass></xmpMM:DerivedFrom><xmpMM:History><rdf:Seq><rdf:li rdf:parseType="Resource"><stEvt:action>saved</stEvt:action><stEvt:instanceID>xmp.iid:7CCAAD1FDC65E711A588CAE2881F51E6</stEvt:instanceID><stEvt:when>2017-07-11T14:29:30+09:00</stEvt:when><stEvt:softwareAgent>Adobe Illustrator CS6 (Windows)</stEvt:softwareAgent><stEvt:changed>/</stEvt:changed></rdf:li></rdf:Seq></xmpMM:History></rdf:Description><rdf:Description xmlns:illustrator="http://ns.adobe.com/illustrator/1.0/"><illustrator:StartupProfile>Web</illustrator:StartupProfile></rdf:Description><rdf:Description xmlns:xmpTPg="http://ns.adobe.com/xap/1.0/t/pg/" xmlns:stDim="http://ns.adobe.com/xap/1.0/sType/Dimensions#" xmlns:xmpG="http://ns.adobe.com/xap/1.0/g/"><xmpTPg:NPages>1</xmpTPg:NPages><xmpTPg:HasVisibleTransparency>False</xmpTPg:HasVisibleTransparency><xmpTPg:HasVisibleOverprint>False</xmpTPg:HasVisibleOverprint><xmpTPg:MaxPageSize rdf:parseType="Resource"><stDim:w>181.000000</stDim:w><stDim:h>401.000000</stDim:h><stDim:unit>Pixels</stDim:unit></xmpTPg:MaxPageSize><xmpTPg:PlateNames><rdf:Seq><rdf:li>Cyan</rdf:li><rdf:li>Magenta</rdf:li><rdf:li>Yellow</rdf:li><rdf:li>Black</rdf:li></rdf:Seq></xmpTPg:PlateNames><xmpTPg:SwatchGroups><rdf:Seq><rdf:li rdf:parseType="Resource"><xmpG:groupName>初期設定のスウォッチグループ</xmpG:groupName><xmpG:groupType>0</xmpG:groupType><xmpG:Colorants><rdf:Seq><rdf:li rdf:parseType="Resource"><xmpG:swatchName>ホワイト</xmpG:swatchName><xmpG:mode>RGB</xmpG:mode><xmpG:type>PROCESS</xmpG:type><xmpG:red>255</xmpG:red><xmpG:green>255</xmpG:green><xmpG:blue>255</xmpG:blue></rdf:li><rdf:li rdf:parseType="Resource"><xmpG:swatchName>ブラック</xmpG:swatchName><xmpG:mode>RGB</xmpG:mode><xmpG:type>PROCESS</xmpG:type><xmpG:red>0</xmpG:red><xmpG:green>0</xmpG:green><xmpG:blue>0</xmpG:blue></rdf:li><rdf:li rdf:parseType="Resource"><xmpG:swatchName>RGB レッド</xmpG:swatchName><xmpG:mode>RGB</xmpG:mode><xmpG:type>PROCESS</xmpG:type><xmpG:red>255</xmpG:red><xmpG:green>0</xmpG:green><xmpG:blue>0</xmpG:blue></rdf:li><rdf:li rdf:parseType="Resource"><xmpG:swatchName>RGB イエロー</xmpG:swatchName><xmpG:mode>RGB</xmpG:mode><xmpG:type>PROCESS</xmpG:type><xmpG:red>255</xmpG:red><xmpG:green>255</xmpG:green><xmpG:blue>0</xmpG:blue></rdf:li><rdf:li rdf:parseType="Resource"><xmpG:swatchName>RGB グリーン</xmpG:swatchName><xmpG:mode>RGB</xmpG:mode><xmpG:type>PROCESS</xmpG:type><xmpG:red>0</xmpG:red><xmpG:green>255</xmpG:green><xmpG:blue>0</xmpG:blue></rdf:li><rdf:li rdf:parseType="Resource"><xmpG:swatchName>RGB シアン</xmpG:swatchName><xmpG:mode>RGB</xmpG:mode><xmpG:type>PROCESS</xmpG:type><xmpG:red>0</xmpG:red><xmpG:green>255</xmpG:green><xmpG:blue>255</xmpG:blue></rdf:li><rdf:li rdf:parseType="Resource"><xmpG:swatchName>RGB ブルー</xmpG:swatchName><xmpG:mode>RGB</xmpG:mode><xmpG:type>PROCESS</xmpG:type><xmpG:red>0</xmpG:red><xmpG:green>0</xmpG:green><xmpG:blue>255</xmpG:blue></rdf:li><rdf:li rdf:parseType="Resource"><xmpG:swatchName>RGB マゼンタ</xmpG:swatchName><xmpG:mode>RGB</xmpG:mode><xmpG:type>PROCESS</xmpG:type><xmpG:red>255</xmpG:red><xmpG:green>0</xmpG:green><xmpG:blue>255</xmpG:blue></rdf:li><rdf:li rdf:parseType="Resource"><xmpG:swatchName>R=193 G=39 B=45</xmpG:swatchName><xmpG:mode>RGB</xmpG:mode><xmpG:type>PROCESS</xmpG:type><xmpG:red>193</xmpG:red><xmpG:green>39</xmpG:green><xmpG:blue>45</xmpG:blue></rdf:li><rdf:li rdf:parseType="Resource"><xmpG:swatchName>R=237 G=28 B=36</xmpG:swatchName><xmpG:mode>RGB</xmpG:mode><xmpG:type>PROCESS</xmpG:type><xmpG:red>237</xmpG:red><xmpG:green>28</xmpG:green><xmpG:blue>36</xmpG:blue></rdf:li><rdf:li rdf:parseType="Resource"><xmpG:swatchName>R=241 G=90 B=36</xmpG:swatchName><xmpG:mode>RGB</xmpG:mode><xmpG:type>PROCESS</xmpG:type><xmpG:red>241</xmpG:red><xmpG:green>90</xmpG:green><xmpG:blue>36</xmpG:blue></rdf:li><rdf:li rdf:parseType="Resource"><xmpG:swatchName>R=247 G=147 B=30</xmpG:swatchName><xmpG:mode>RGB</xmpG:mode><xmpG:type>PROCESS</xmpG:type><xmpG:red>247</xmpG:red><xmpG:green>147</xmpG:green><xmpG:blue>30</xmpG:blue></rdf:li><rdf:li rdf:parseType="Resource"><xmpG:swatchName>R=251 G=176 B=59</xmpG:swatchName><xmpG:mode>RGB</xmpG:mode><xmpG:type>PROCESS</xmpG:type><xmpG:red>251</xmpG:red><xmpG:green>176</xmpG:green><xmpG:blue>59</xmpG:blue></rdf:li><rdf:li rdf:parseType="Resource"><xmpG:swatchName>R=252 G=238 B=33</xmpG:swatchName><xmpG:mode>RGB</xmpG:mode><xmpG:type>PROCESS</xmpG:type><xmpG:red>252</xmpG:red><xmpG:green>238</xmpG:green><xmpG:blue>33</xmpG:blue></rdf:li><rdf:li rdf:parseType="Resource"><xmpG:swatchName>R=217 G=224 B=33</xmpG:swatchName><xmpG:mode>RGB</xmpG:mode><xmpG:type>PROCESS</xmpG:type><xmpG:red>217</xmpG:red><xmpG:green>224</xmpG:green><xmpG:blue>33</xmpG:blue></rdf:li><rdf:li rdf:parseType="Resource"><xmpG:swatchName>R=140 G=198 B=63</xmpG:swatchName><xmpG:mode>RGB</xmpG:mode><xmpG:type>PROCESS</xmpG:type><xmpG:red>140</xmpG:red><xmpG:green>198</xmpG:green><xmpG:blue>63</xmpG:blue></rdf:li><rdf:li rdf:parseType="Resource"><xmpG:swatchName>R=57 G=181 B=74</xmpG:swatchName><xmpG:mode>RGB</xmpG:mode><xmpG:type>PROCESS</xmpG:type><xmpG:red>57</xmpG:red><xmpG:green>181</xmpG:green><xmpG:blue>74</xmpG:blue></rdf:li><rdf:li rdf:parseType="Resource"><xmpG:swatchName>R=0 G=146 B=69</xmpG:swatchName><xmpG:mode>RGB</xmpG:mode><xmpG:type>PROCESS</xmpG:type><xmpG:red>0</xmpG:red><xmpG:green>146</xmpG:green><xmpG:blue>69</xmpG:blue></rdf:li><rdf:li rdf:parseType="Resource"><xmpG:swatchName>R=0 G=104 B=55</xmpG:swatchName><xmpG:mode>RGB</xmpG:mode><xmpG:type>PROCESS</xmpG:type><xmpG:red>0</xmpG:red><xmpG:green>104</xmpG:green><xmpG:blue>55</xmpG:blue></rdf:li><rdf:li rdf:parseType="Resource"><xmpG:swatchName>R=34 G=181 B=115</xmpG:swatchName><xmpG:mode>RGB</xmpG:mode><xmpG:type>PROCESS</xmpG:type><xmpG:red>34</xmpG:red><xmpG:green>181</xmpG:green><xmpG:blue>115</xmpG:blue></rdf:li><rdf:li rdf:parseType="Resource"><xmpG:swatchName>R=0 G=169 B=157</xmpG:swatchName><xmpG:mode>RGB</xmpG:mode><xmpG:type>PROCESS</xmpG:type><xmpG:red>0</xmpG:red><xmpG:green>169</xmpG:green><xmpG:blue>157</xmpG:blue></rdf:li><rdf:li rdf:parseType="Resource"><xmpG:swatchName>R=41 G=171 B=226</xmpG:swatchName><xmpG:mode>RGB</xmpG:mode><xmpG:type>PROCESS</xmpG:type><xmpG:red>41</xmpG:red><xmpG:green>171</xmpG:green><xmpG:blue>226</xmpG:blue></rdf:li><rdf:li rdf:parseType="Resource"><xmpG:swatchName>R=0 G=113 B=188</xmpG:swatchName><xmpG:mode>RGB</xmpG:mode><xmpG:type>PROCESS</xmpG:type><xmpG:red>0</xmpG:red><xmpG:green>113</xmpG:green><xmpG:blue>188</xmpG:blue></rdf:li><rdf:li rdf:parseType="Resource"><xmpG:swatchName>R=46 G=49 B=146</xmpG:swatchName><xmpG:mode>RGB</xmpG:mode><xmpG:type>PROCESS</xmpG:type><xmpG:red>46</xmpG:red><xmpG:green>49</xmpG:green><xmpG:blue>146</xmpG:blue></rdf:li><rdf:li rdf:parseType="Resource"><xmpG:swatchName>R=27 G=20 B=100</xmpG:swatchName><xmpG:mode>RGB</xmpG:mode><xmpG:type>PROCESS</xmpG:type><xmpG:red>27</xmpG:red><xmpG:green>20</xmpG:green><xmpG:blue>100</xmpG:blue></rdf:li><rdf:li rdf:parseType="Resource"><xmpG:swatchName>R=102 G=45 B=145</xmpG:swatchName><xmpG:mode>RGB</xmpG:mode><xmpG:type>PROCESS</xmpG:type><xmpG:red>102</xmpG:red><xmpG:green>45</xmpG:green><xmpG:blue>145</xmpG:blue></rdf:li><rdf:li rdf:parseType="Resource"><xmpG:swatchName>R=147 G=39 B=143</xmpG:swatchName><xmpG:mode>RGB</xmpG:mode><xmpG:type>PROCESS</xmpG:type><xmpG:red>147</xmpG:red><xmpG:green>39</xmpG:green><xmpG:blue>143</xmpG:blue></rdf:li><rdf:li rdf:parseType="Resource"><xmpG:swatchName>R=158 G=0 B=93</xmpG:swatchName><xmpG:mode>RGB</xmpG:mode><xmpG:type>PROCESS</xmpG:type><xmpG:red>158</xmpG:red><xmpG:green>0</xmpG:green><xmpG:blue>93</xmpG:blue></rdf:li><rdf:li rdf:parseType="Resource"><xmpG:swatchName>R=212 G=20 B=90</xmpG:swatchName><xmpG:mode>RGB</xmpG:mode><xmpG:type>PROCESS</xmpG:type><xmpG:red>212</xmpG:red><xmpG:green>20</xmpG:green><xmpG:blue>90</xmpG:blue></rdf:li><rdf:li rdf:parseType="Resource"><xmpG:swatchName>R=237 G=30 B=121</xmpG:swatchName><xmpG:mode>RGB</xmpG:mode><xmpG:type>PROCESS</xmpG:type><xmpG:red>237</xmpG:red><xmpG:green>30</xmpG:green><xmpG:blue>121</xmpG:blue></rdf:li><rdf:li rdf:parseType="Resource"><xmpG:swatchName>R=199 G=178 B=153</xmpG:swatchName><xmpG:mode>RGB</xmpG:mode><xmpG:type>PROCESS</xmpG:type><xmpG:red>199</xmpG:red><xmpG:green>178</xmpG:green><xmpG:blue>153</xmpG:blue></rdf:li><rdf:li rdf:parseType="Resource"><xmpG:swatchName>R=153 G=134 B=117</xmpG:swatchName><xmpG:mode>RGB</xmpG:mode><xmpG:type>PROCESS</xmpG:type><xmpG:red>153</xmpG:red><xmpG:green>134</xmpG:green><xmpG:blue>117</xmpG:blue></rdf:li><rdf:li rdf:parseType="Resource"><xmpG:swatchName>R=115 G=99 B=87</xmpG:swatchName><xmpG:mode>RGB</xmpG:mode><xmpG:type>PROCESS</xmpG:type><xmpG:red>115</xmpG:red><xmpG:green>99</xmpG:green><xmpG:blue>87</xmpG:blue></rdf:li><rdf:li rdf:parseType="Resource"><xmpG:swatchName>R=83 G=71 B=65</xmpG:swatchName><xmpG:mode>RGB</xmpG:mode><xmpG:type>PROCESS</xmpG:type><xmpG:red>83</xmpG:red><xmpG:green>71</xmpG:green><xmpG:blue>65</xmpG:blue></rdf:li><rdf:li rdf:parseType="Resource"><xmpG:swatchName>R=198 G=156 B=109</xmpG:swatchName><xmpG:mode>RGB</xmpG:mode><xmpG:type>PROCESS</xmpG:type><xmpG:red>198</xmpG:red><xmpG:green>156</xmpG:green><xmpG:blue>109</xmpG:blue></rdf:li><rdf:li rdf:parseType="Resource"><xmpG:swatchName>R=166 G=124 B=82</xmpG:swatchName><xmpG:mode>RGB</xmpG:mode><xmpG:type>PROCESS</xmpG:type><xmpG:red>166</xmpG:red><xmpG:green>124</xmpG:green><xmpG:blue>82</xmpG:blue></rdf:li><rdf:li rdf:parseType="Resource"><xmpG:swatchName>R=140 G=98 B=57</xmpG:swatchName><xmpG:mode>RGB</xmpG:mode><xmpG:type>PROCESS</xmpG:type><xmpG:red>140</xmpG:red><xmpG:green>98</xmpG:green><xmpG:blue>57</xmpG:blue></rdf:li><rdf:li rdf:parseType="Resource"><xmpG:swatchName>R=117 G=76 B=36</xmpG:swatchName><xmpG:mode>RGB</xmpG:mode><xmpG:type>PROCESS</xmpG:type><xmpG:red>117</xmpG:red><xmpG:green>76</xmpG:green><xmpG:blue>36</xmpG:blue></rdf:li><rdf:li rdf:parseType="Resource"><xmpG:swatchName>R=96 G=56 B=19</xmpG:swatchName><xmpG:mode>RGB</xmpG:mode><xmpG:type>PROCESS</xmpG:type><xmpG:red>96</xmpG:red><xmpG:green>56</xmpG:green><xmpG:blue>19</xmpG:blue></rdf:li><rdf:li rdf:parseType="Resource"><xmpG:swatchName>R=66 G=33 B=11</xmpG:swatchName><xmpG:mode>RGB</xmpG:mode><xmpG:type>PROCESS</xmpG:type><xmpG:red>66</xmpG:red><xmpG:green>33</xmpG:green><xmpG:blue>11</xmpG:blue></rdf:li></rdf:Seq></xmpG:Colorants></rdf:li><rdf:li rdf:parseType="Resource"><xmpG:groupName>グレー</xmpG:groupName><xmpG:groupType>1</xmpG:groupType><xmpG:Colorants><rdf:Seq><rdf:li rdf:parseType="Resource"><xmpG:swatchName>R=0 G=0 B=0</xmpG:swatchName><xmpG:mode>RGB</xmpG:mode><xmpG:type>PROCESS</xmpG:type><xmpG:red>0</xmpG:red><xmpG:green>0</xmpG:green><xmpG:blue>0</xmpG:blue></rdf:li><rdf:li rdf:parseType="Resource"><xmpG:swatchName>R=26 G=26 B=26</xmpG:swatchName><xmpG:mode>RGB</xmpG:mode><xmpG:type>PROCESS</xmpG:type><xmpG:red>26</xmpG:red><xmpG:green>26</xmpG:green><xmpG:blue>26</xmpG:blue></rdf:li><rdf:li rdf:parseType="Resource"><xmpG:swatchName>R=51 G=51 B=51</xmpG:swatchName><xmpG:mode>RGB</xmpG:mode><xmpG:type>PROCESS</xmpG:type><xmpG:red>51</xmpG:red><xmpG:green>51</xmpG:green><xmpG:blue>51</xmpG:blue></rdf:li><rdf:li rdf:parseType="Resource"><xmpG:swatchName>R=77 G=77 B=77</xmpG:swatchName><xmpG:mode>RGB</xmpG:mode><xmpG:type>PROCESS</xmpG:type><xmpG:red>77</xmpG:red><xmpG:green>77</xmpG:green><xmpG:blue>77</xmpG:blue></rdf:li><rdf:li rdf:parseType="Resource"><xmpG:swatchName>R=102 G=102 B=102</xmpG:swatchName><xmpG:mode>RGB</xmpG:mode><xmpG:type>PROCESS</xmpG:type><xmpG:red>102</xmpG:red><xmpG:green>102</xmpG:green><xmpG:blue>102</xmpG:blue></rdf:li><rdf:li rdf:parseType="Resource"><xmpG:swatchName>R=128 G=128 B=128</xmpG:swatchName><xmpG:mode>RGB</xmpG:mode><xmpG:type>PROCESS</xmpG:type><xmpG:red>128</xmpG:red><xmpG:green>128</xmpG:green><xmpG:blue>128</xmpG:blue></rdf:li><rdf:li rdf:parseType="Resource"><xmpG:swatchName>R=153 G=153 B=153</xmpG:swatchName><xmpG:mode>RGB</xmpG:mode><xmpG:type>PROCESS</xmpG:type><xmpG:red>153</xmpG:red><xmpG:green>153</xmpG:green><xmpG:blue>153</xmpG:blue></rdf:li><rdf:li rdf:parseType="Resource"><xmpG:swatchName>R=179 G=179 B=179</xmpG:swatchName><xmpG:mode>RGB</xmpG:mode><xmpG:type>PROCESS</xmpG:type><xmpG:red>179</xmpG:red><xmpG:green>179</xmpG:green><xmpG:blue>179</xmpG:blue></rdf:li><rdf:li rdf:parseType="Resource"><xmpG:swatchName>R=204 G=204 B=204</xmpG:swatchName><xmpG:mode>RGB</xmpG:mode><xmpG:type>PROCESS</xmpG:type><xmpG:red>204</xmpG:red><xmpG:green>204</xmpG:green><xmpG:blue>204</xmpG:blue></rdf:li><rdf:li rdf:parseType="Resource"><xmpG:swatchName>R=230 G=230 B=230</xmpG:swatchName><xmpG:mode>RGB</xmpG:mode><xmpG:type>PROCESS</xmpG:type><xmpG:red>230</xmpG:red><xmpG:green>230</xmpG:green><xmpG:blue>230</xmpG:blue></rdf:li><rdf:li rdf:parseType="Resource"><xmpG:swatchName>R=242 G=242 B=242</xmpG:swatchName><xmpG:mode>RGB</xmpG:mode><xmpG:type>PROCESS</xmpG:type><xmpG:red>242</xmpG:red><xmpG:green>242</xmpG:green><xmpG:blue>242</xmpG:blue></rdf:li></rdf:Seq></xmpG:Colorants></rdf:li><rdf:li rdf:parseType="Resource"><xmpG:groupName>Web カラーグループ</xmpG:groupName><xmpG:groupType>1</xmpG:groupType><xmpG:Colorants><rdf:Seq><rdf:li rdf:parseType="Resource"><xmpG:swatchName>R=63 G=169 B=245</xmpG:swatchName><xmpG:mode>RGB</xmpG:mode><xmpG:type>PROCESS</xmpG:type><xmpG:red>63</xmpG:red><xmpG:green>169</xmpG:green><xmpG:blue>245</xmpG:blue></rdf:li><rdf:li rdf:parseType="Resource"><xmpG:swatchName>R=122 G=201 B=67</xmpG:swatchName><xmpG:mode>RGB</xmpG:mode><xmpG:type>PROCESS</xmpG:type><xmpG:red>122</xmpG:red><xmpG:green>201</xmpG:green><xmpG:blue>67</xmpG:blue></rdf:li><rdf:li rdf:parseType="Resource"><xmpG:swatchName>R=255 G=147 B=30</xmpG:swatchName><xmpG:mode>RGB</xmpG:mode><xmpG:type>PROCESS</xmpG:type><xmpG:red>255</xmpG:red><xmpG:green>147</xmpG:green><xmpG:blue>30</xmpG:blue></rdf:li><rdf:li rdf:parseType="Resource"><xmpG:swatchName>R=255 G=29 B=37</xmpG:swatchName><xmpG:mode>RGB</xmpG:mode><xmpG:type>PROCESS</xmpG:type><xmpG:red>255</xmpG:red><xmpG:green>29</xmpG:green><xmpG:blue>37</xmpG:blue></rdf:li><rdf:li rdf:parseType="Resource"><xmpG:swatchName>R=255 G=123 B=172</xmpG:swatchName><xmpG:mode>RGB</xmpG:mode><xmpG:type>PROCESS</xmpG:type><xmpG:red>255</xmpG:red><xmpG:green>123</xmpG:green><xmpG:blue>172</xmpG:blue></rdf:li><rdf:li rdf:parseType="Resource"><xmpG:swatchName>R=189 G=204 B=212</xmpG:swatchName><xmpG:mode>RGB</xmpG:mode><xmpG:type>PROCESS</xmpG:type><xmpG:red>189</xmpG:red><xmpG:green>204</xmpG:green><xmpG:blue>212</xmpG:blue></rdf:li></rdf:Seq></xmpG:Colorants></rdf:li></rdf:Seq></xmpTPg:SwatchGroups></rdf:Description><rdf:Description xmlns:pdf="http://ns.adobe.com/pdf/1.3/"><pdf:Producer>Adobe PDF library 10.01</pdf:Producer></rdf:Description></rdf:RDF></x:xmpmeta><?xpacket end="w"?></metadata><g><g><rect x=".5" y=".5" fill="#FFF" width="180" height="400"/><rect x=".5" y=".5" fill="none" stroke="#210701" stroke-miterlimit="10" width="180" height="400"/><rect x="3.5" y="3.5" fill="none" stroke="#210701" stroke-width=".5" stroke-miterlimit="10" width="174" height="394"/></g><g fill="#210701"><path d="M48.257 40.831c-.06-.06-.075-.075-.075-.104 0-.016.03-.03.06-.03.27 0 1.455.105 1.695.105.615 0 .72 0 .72-.406a2.59 2.59 0 00-.03-.39c-.015-.105-.09-.465-.09-.54 0-.15.15-.165.225-.165.03 0 1.215.21 1.215.449 0 .045-.18.255-.225.315-.075.09-.105.195-.105.36 0 .18.03.375.33.375.66 0 .735 0 .93-.301.135-.225.18-.255.27-.255.18 0 .96.54.96.72 0 .225-.36.225-.84.225h-1.26c-.435 0-.435.165-.435.75 0 .255 0 .42.24.42.12 0 1.29-.255 1.335-.255s.06.015.06.045c0 .135-.825.42-1.275.569-.285.105-.36.166-.36.646 0 .435 0 1.604-.045 1.755-.135.495-.96.855-1.155.855-.135 0-.165-.046-.21-.21-.105-.42-.6-.765-.75-.855-.03-.015-.15-.09-.15-.105 0-.045.045-.045.06-.045.135 0 .675.03.78.03.585 0 .585 0 .585-1.29 0-.135 0-.285-.18-.285-.075 0-1.23.39-1.32.436-.09.044-.39.33-.48.33-.105 0-.135-.06-.36-.555-.105-.239-.3-.66-.3-.69 0-.06.045-.09.075-.09.045 0 .195.06.225.06.09.03.27.06.48.06.09 0 1.575-.15 1.695-.225.15-.075.15-.239.15-.465 0-.75-.03-.885-.45-.885-.48 0-.735.015-1.08.03-.075.016-.42.045-.495.045-.06 0-.09-.03-.135-.09l-.285-.344zm10.169 5.415c.645 0 .795 0 .975-.255.3-.419.345-.48.45-.48.135 0 1.41.78 1.41.96 0 .165-.075.165-.795.165h-9.629c-1.32 0-1.755.03-1.89.045-.06 0-.27.03-.315.03-.06 0-.09-.03-.135-.09l-.3-.345c-.045-.06-.06-.075-.06-.105 0-.015.015-.03.06-.03.105 0 .555.045.66.045.735.044 1.35.06 2.055.06h7.514zm-.795 3.975c.195 0 .39 0 .525-.18.12-.15.15-.195.255-.195.09 0 1.275.615 1.275.855 0 .105-.12.18-.225.24-.18.105-.21.195-.21.36 0 .09.06.525.06.615 0 .81-.735.81-.78.81-.27 0-.315-.18-.33-.345-.06-.27-.3-.27-.435-.27h-6.24c-.165 0-.36 0-.42.179-.075.27-.165.585-.735.585-.405 0-.405-.12-.405-1.11 0-.24-.03-1.305-.075-1.5-.015-.06-.165-.36-.165-.435 0-.044.045-.06.09-.06.165 0 .63.21.855.315.165.09.345.135.825.135h6.135zm-1.319-2.534c.66 0 .72 0 .93-.226.075-.09.21-.24.315-.24.135 0 .96.601.96.69 0 .166-.36.166-.795.166h-4.665c-1.305 0-1.74.03-1.89.044-.045 0-.27.031-.315.031-.06 0-.09-.031-.135-.09l-.285-.345c-.06-.075-.075-.075-.075-.104 0-.016.03-.03.06-.03.105 0 .57.045.66.045.735.045 1.35.061 2.055.061h3.18zm0 1.304c.6 0 .72-.015.825-.105.075-.06.39-.405.48-.405.09 0 1.005.525 1.005.72 0 .195-.315.195-.795.195h-4.635c-1.32 0-1.755.03-1.905.03-.045.015-.27.045-.315.045s-.075-.045-.135-.105l-.285-.345c-.06-.06-.06-.075-.06-.09 0-.029.015-.045.045-.045.105 0 .57.06.66.06.735.03 1.365.045 2.07.045h3.045zm-4.785 1.62c-.36 0-.48 0-.48.479 0 .615.075.615.48.615h6.225c.405 0 .48-.015.48-.54s-.075-.554-.48-.554h-6.225zm3.45-5.55c.39 0 .495 0 .645-.09.09-.06.36-.42.45-.42.12 0 1.11.601 1.11.735 0 .09-.135.165-.33.165h-3.18c-.375 0-.615 0-1.095.045-.045 0-.27.03-.315.03-.06 0-.09-.03-.135-.089l-.285-.346c-.06-.075-.06-.075-.06-.105 0-.015.015-.03.045-.03.075 0 .39.03.465.045.9.06 1.005.06 1.455.06h1.23zm3.96-2.82c-.435 0-.45.255-.45.465 0 .33.06 1.95.06 2.325 0 .42-.375.645-.72.645-.045 0-.36 0-.36-.449 0-.21.075-1.23.075-1.456 0-1.53-.03-1.53-.48-1.53h-.975c-.39 0-.495.03-.6.33-.81 2.145-2.67 2.145-2.715 2.145-.015 0-.045 0-.045-.029.225-.15.54-.315.66-.391.63-.45 1.395-1.215 1.395-3.06 0-.255-.015-.465-.03-.645-.015-.075-.09-.435-.09-.51 0-.075.03-.135.195-.135.12 0 .39.045.66.165.345.165.375.18.51.18s2.025-.3 2.775-.69c.06-.045.36-.285.435-.285.105 0 1.29.795 1.29.93 0 .12-.285.15-.6.165-1.71.105-1.845.105-3.63.105-.45 0-.585 0-.585 1.065 0 .27.12.27.42.27h2.79c.555 0 .675-.015.795-.165.075-.075.39-.601.51-.601.105 0 1.11.69 1.11.945 0 .21-.09.21-.81.21h-1.59zm-7.635 18.435c0 .12-.03.165-.18.6-.21.585-.36 1.14-.36 1.935 0 1.516.78 2.61 1.245 2.61.255 0 .315-.075.765-.825.09-.15.345-.51.465-.51.045 0 .075.06.075.12s-.03.255-.045.3c-.165.69-.195.825-.195 1.14 0 .255.045.45.09.6.045.165.12.42.12.495 0 .3-.315.465-.57.465-.96 0-2.85-1.575-2.85-4.44 0-.42.21-2.265.21-2.654 0-.301-.06-.706-.105-.871-.105-.375-.12-.42-.12-.51 0-.045.06-.06.09-.06.689 0 1.365 1.2 1.365 1.605zm7.32.345c.765.615 1.335 1.68 1.335 2.865 0 .285-.03.99-.75.99-.735 0-.735-.81-.735-1.005 0-1.245 0-1.875-.795-2.67-.12-.12-.72-.585-.72-.675 0-.045.06-.075.135-.075.014 0 .885.045 1.53.57zm-8.595 20.445c0-.45.42-.93 1.44-2.115.675-.78 1.275-2.025 1.275-2.235 0-.09-.105-.104-.165-.104-.15 0-.765.12-.9.12-.57 0-1.335-.735-1.335-1.32 0-.045 0-.105.09-.105s.48.24.57.285c.18.09.585.271.99.271 1.23 0 1.23-.405 1.23-.706 0-.089-.015-.329-.12-.524-.045-.075-.36-.345-.36-.436 0-.119.39-.239.66-.239.36 0 .735.135.765.465.015.195.075.225.675.27.105 0 .675.075.675.39 0 .495-1.095.915-1.785 1.185-.225.09-.24.12-.57.886-.36.824-.42.944-.81 1.62-.075.134-.105.18-.105.24 0 .03.015.06.06.06s.33-.104.465-.165c.165-.075.36-.119.585-.119.195 0 .885.03 1.275.915.105.255.12.285.15.285.045 0 .54-.69.615-.81.495-.69 1.47-2.055 2.775-2.055.825 0 1.41.706 1.41 1.335 0 .705-1.185 1.2-2.115 1.605-.375.165-2.07.841-2.34 1.005-.24.15-.255.315-.255.63 0 .135.03.766.03.9 0 .24 0 1.095-.555 1.095-.405 0-.465-.495-.465-.765 0-.15.045-.87.045-.885 0-.06 0-.179-.105-.179-.12 0-1.455.929-1.455 1.784 0 1.035 1.5 1.035 1.935 1.035.375 0 .66-.03.96-.09.21-.03 1.17-.27 1.365-.27.315 0 .735.15.735.51 0 .93-2.325.99-2.685.99-1.905 0-2.91-.78-2.91-1.965 0-.96.57-1.44 1.98-2.58.15-.121.225-.3.225-.525 0-.675-.12-1.515-.72-1.515-.57 0-1.455.69-1.845 1.59-.165.375-.33.734-.81.734-.285-.003-.57-.093-.57-.498zm3.825-5.67c.03 0 .75-.195.75-.36 0-.195-.375-.225-.51-.225-.21 0-.27.42-.27.48s0 .105.03.105zm1.364 4.86c0 .03.015.075.06.075s3-1.2 3-2.19c0-.375-.33-.45-.525-.45-1.245 0-2.535 2.325-2.535 2.565zm-2.429 14.295c-.24.06-.315.135-1.02.75-1.68 1.47-3.54 2.28-3.78 2.28-.045 0-.105 0-.105-.06 0-.105.06-.15.6-.54 1.275-.9 2.355-2.025 2.85-2.685.09-.12.405-.78.54-.78.15 0 1.29.675 1.29.78 0 .15-.136.195-.375.255zm-4.785 9.239c0-.09.225-.18.39-.225 1.875-.525 5.475-3.075 5.475-3.66 0-.12-.285-.57-.45-.84-.765-1.215-1.515-3.33-1.515-3.45 0-.06.03-.09.075-.09.09 0 .21.21.39.555.765 1.44 1.89 3.015 2.145 3.015.375 0 1.38-2.16 1.575-3.166.09-.495.12-.584.21-.584.045 0 .66.285.765.33.405.195.63.314.63.495 0 .149-.075.209-.375.435-.21.165-.27.27-.72 1.125-.285.525-.585 1.05-.975 1.605-.27.39-.3.435-.3.525 0 .3 1.17.99 1.695 1.29 1.215.675 2.7 1.215 4.064 1.365.255.03.375.045.375.15 0 .075-.09.12-.225.135-.315.03-.765.255-1.035.54-.315.33-.345.375-.42.375-.285 0-2.4-.63-4.425-2.34-.6-.495-.66-.54-.765-.54-.12 0-.18.045-.705.48-1.365 1.14-2.52 1.695-5.115 2.46-.255.075-.51.12-.615.104-.029-.013-.149-.028-.149-.089zm10.169-11.234c.675 0 .765 0 1.02-.375.045-.06.42-.555.585-.555.18 0 1.53.915 1.53 1.095 0 .225-.27.225-.795.225h-9.765c-1.035 0-1.605.016-1.905.045-.045 0-.27.03-.315.03s-.075-.03-.135-.09l-.285-.345c-.06-.06-.06-.075-.06-.09 0-.03.015-.045.045-.045.105 0 .57.06.66.06.63.03 1.365.045 2.07.045h2.73c.45 0 .45-.225.45-.96 0-.345-.03-.855-.06-1.02 0-.046-.09-.271-.09-.315 0-.075.075-.09.12-.09.06 0 .6.104 1.275.27.135.03.405.105.405.315 0 .09-.18.255-.33.375-.09.075-.135.165-.135.855 0 .54.165.57.495.57h2.49zm2.31 3.84a.635.635 0 01-.57.645c-.315 0-.525-.285-.99-.915a7.33 7.33 0 00-2.19-1.935c-.225-.12-.555-.3-.555-.36s.135-.075.18-.075c.06 0 .135 0 .21.015 2.205.39 3.915 1.545 3.915 2.625zm-7.214 14.76c.39.24.39.48.39.585 0 .255-.09.465-.21.72-.045.089-.105.21-.105.285 0 .045.03.075.06.075.075 0 .36-.195.435-.225 1.485-.75 2.295-.87 3.03-.87 2.34 0 3.405 1.561 3.405 3.15 0 3.6-4.8 4.77-5.145 4.77-.03 0-.06 0-.06-.03 0-.045.945-.57 1.11-.689.75-.511 2.925-2.161 2.925-4.396 0-1.71-1.245-2.325-2.265-2.325-1.65 0-3.36.9-3.93 1.545-.195.225-.285.479-.285 1.5 0 .33.015 2.234.075 3.029.015.12.075.615.075.705 0 .48-.435.87-.66.87-.42 0-.465-.54-.525-1.455-.03-.315-.12-1.74-.48-1.74-.075 0-.27.375-.39.615-.225.436-.54 1.05-1.08 1.05-.18 0-.36-.12-.36-.42 0-.255.075-.39.45-1.02.15-.271.75-1.305.75-1.456 0-.27-.315-.825-.585-1.155-.48-.6-.525-.66-.525-.93 0-.51.405-.57 1.02-.66.255-.045.345-.06 1.35-.99.075-.075.375-.315.39-.36.075-.15.135-.81.135-1.275 0-1.335-.345-1.83-.6-2.115-.255-.3-.285-.33-.285-.39 0-.12.36-.194.51-.194.405 0 1.425.614 1.425 1.109 0 .225-.195 1.17-.225 1.365-.03.241-.075.705-.075.87 0 .287.014.302.255.452zm-1.86 1.785c-.135.21-.3.495-.645.525-.48.03-.63.045-.63.24 0 .21.54 1.17.705 1.17.09 0 .135-.075.3-.315.93-1.365.93-1.395.93-1.935 0-.12 0-.195-.06-.21-.09-.015-.345.09-.6.525zm-.045 3.12c0 .195.3.585.435.585.18 0 .18-.81.18-1.5 0-.06-.03-.09-.075-.09-.12 0-.54.825-.54 1.005zm2.07 10.815c0 .15-.255.72-.285.84-.21.765-.63 4.08-.63 5.34 0 1.515.285 2.865 2.295 2.865.735 0 1.815-.15 3.15-.781.225-.105 1.365-.735 1.425-.735s.075.045.075.075c0 .165-2.22 2.58-5.04 2.58-1.95 0-2.88-1.125-2.88-4.14 0-.93.03-1.23.345-4.17.06-.495.195-1.725.195-2.146 0-.27-.045-.525-.135-.735-.015-.044-.165-.39-.165-.405 0-.104.12-.15.21-.15.779.002 1.44 1.217 1.44 1.562zm7.169 17.776c-.3 0-.36-.105-.855-1.005-.3-.525-.69-1.05-1.575-1.605-.045-.03-.21-.12-.21-.18 0-.045.045-.105.165-.105.525 0 3.075.78 3.075 2.189 0 .36-.3.706-.6.706zm-9.089 26.369c-.315 0-.375-.075-.375-.225 0-.09.105-.3.165-.405.735-1.47 2.1-2.865 3.9-4.71.765-.795 1.545-1.68 1.545-2.925 0-1.335-.99-2.49-2.205-2.49-1.23 0-2.265 1.26-2.265 2.1 0 .18.075.345.24.45.36.21.615.39.615.795 0 .435-.315.839-.84.839-.84 0-1.005-.915-1.005-1.44 0-1.605 1.32-3.195 3.48-3.195 2.115 0 3.345 1.411 3.345 2.911 0 .614-.225 1.229-.585 1.784-.405.63-.795.96-2.97 2.805-.51.436-2.175 2.04-2.175 2.4 0 .165.225.165.39.165h3.45c.3 0 .765 0 1.305-.885.12-.18.225-.36.33-.36s.15.075.15.18c0 .06-.24.99-.315 1.29-.21.855-.42.915-1.185.915h-4.995zm3.36 6.21s.18 3.6 2.175 6.87c.255.405 1.95 3.149 4.26 3.75.045.015.15.044.15.104 0 .075-.045.075-.525.181a2.971 2.971 0 00-1.035.449c-.285.21-.33.255-.375.255-.06 0-1.965-1.185-3.42-4.365-.27-.6-1.23-2.655-1.44-5.804-.015-.166-.015-.18-.075-.18-.09 0-.09.06-.15.6-.045.48-.435 3.975-1.92 6.42-1.605 2.67-4.23 3.57-4.365 3.57-.045 0-.09-.015-.09-.075 0-.045.075-.105.195-.18.87-.585 2.55-1.92 3.555-3.855 1.71-3.255 1.71-7.544 1.71-7.709 0-.435 0-.6-.06-.915a2.124 2.124 0 01-.06-.3c0-.075.075-.12.12-.12.09 0 .735.21.87.24.72.195 1.02.285 1.02.555 0 .165-.12.21-.255.24-.12.015-.195.03-.24.09-.03.044-.045.089-.045.179zm-5.16 19.275c.63 0 .855-.06 2.91-.645 1.335-.375 4.77-1.35 5.76-1.35.54 0 1.215.21 1.215.72 0 .39-.39.556-.615.556-.195 0-1.05-.166-1.215-.166-1.905 0-4.035 1.755-4.035 5.625 0 2.52.945 2.686 1.83 2.686.225 0 1.29-.09 1.425-.09.465 0 .735.194.735.555 0 .795-1.65.795-1.74.795-3.06 0-3.06-2.505-3.06-3.21 0-.66.015-3.84 2.175-5.775.06-.045.375-.285.375-.315s-.06-.03-.09-.03c-.87 0-3.975 1.32-4.47 1.605-.195.105-.345.195-.51.195-.75 0-1.47-1.005-1.275-1.215.06-.076.495.059.585.059zm9.584 3.315c0 .345-.285.615-.525.615-.27 0-.405-.285-.645-.87-.165-.42-.27-.555-.75-1.17-.045-.06-.15-.21-.15-.27 0-.075.165-.089.3-.06 1.275.345 1.77 1.275 1.77 1.755zm1.815-.72c0 .39-.24.555-.435.555-.36 0-.525-.435-.675-.795-.135-.33-.585-.87-.99-1.2-.075-.06-.135-.12-.135-.195 0-.09.165-.09.21-.09.12 0 .285.045.375.075.885.285 1.65.93 1.65 1.65zm-7.454 14.13c.465 0 .465-.18.465-.93 0-1.035-.06-1.485-.09-1.755-.015-.075-.12-.405-.12-.48 0-.074.06-.104.165-.104s1.62.15 1.62.524c0 .091-.315.376-.36.45-.105.226-.135 1.41-.135 1.726 0 .39.015.569.48.569h1.935c.69 0 .765 0 .96-.255.45-.614.495-.675.63-.675.165 0 1.365 1.005 1.365 1.14 0 .195-.345.195-.795.195h-4.11c-.165 0-.375 0-.45.255-.03.12-.03 2.46-.03 2.896 0 .465.03.645.495.645h1.485c.705 0 .78 0 .96-.255.465-.615.51-.675.645-.675.165 0 1.365 1.004 1.365 1.14 0 .194-.345.194-.81.194h-3.63c-.435 0-.48.15-.48.511 0 .45.015 3.675.03 3.75.06.225.24.255.48.255h2.745c.69 0 .765 0 .96-.255.45-.615.495-.69.63-.69.165 0 1.365 1.005 1.365 1.141 0 .194-.345.194-.795.194h-9.959c-1.32 0-1.755.03-1.89.045-.06 0-.27.03-.33.03-.045 0-.075-.03-.12-.09l-.3-.346c-.06-.074-.06-.074-.06-.104s.015-.03.06-.03c.09 0 .555.045.66.045.735.03 1.35.061 2.055.061h2.865c.27 0 .495 0 .495-.54v-3.615c0-.18-.09-.36-.435-.36h-1.755c-1.32 0-1.755.03-1.89.03-.06.015-.27.046-.315.046-.06 0-.09-.046-.135-.105l-.3-.345c-.045-.061-.06-.075-.06-.091 0-.029.015-.044.06-.044.105 0 .555.044.66.06a49.7 49.7 0 002.055.045h1.665c.45 0 .45-.225.45-.465v-2.94c-.03-.284-.165-.39-.435-.39h-2.475c-.465 0-.495.045-.87.675-.825 1.38-1.845 2.61-2.085 2.61-.06 0-.075-.045-.075-.09 0-.031.24-.48.375-.721 1.65-3.045 1.935-4.979 1.979-5.279.03-.285.06-.315.09-.315s1.47.585 1.47.841c0 .119-.48.449-.54.539-.09.12-.48 1.006-.48 1.141 0 .194.18.194.375.194h2.22zm.06 15.046c.255.914.675 1.544.78 1.544.06 0 .315-.06.585-.239.3-.18.345-.211.525-.211.3 0 .51.195.51.45 0 .24-.195.585-.645.735-.045.015-.36.135-.36.18.105.18.78 1.26.915 1.26.06 0 .54-.164.54-.419 0-.061-.195-.271-.195-.331 0-.119.15-.134.21-.149.54-.045.84-.075.93-.075.495 0 .885.24.885.66 0 .21-.03.555-1.32 1.02-.39.135-.435.166-.435.226 0 .075.015.104.48.84.735 1.14.96 1.8.96 2.354 0 .615-.48 1.035-.87 1.035-.375 0-.48-.074-1.455-.75a2.415 2.415 0 00-1.455-.449c-1.35 0-1.98.87-1.98 1.545 0 1.109 1.32 1.185 1.71 1.185.24 0 1.245-.104 1.455-.104.18 0 .705.06.705.539 0 .855-1.575.855-1.755.855-.435 0-2.955 0-2.955-2.1 0-.871.645-2.355 2.91-2.355.555 0 .84.061 1.44.18.42.09.555.09.66.09.225 0 .39-.074.39-.314 0-.3-.225-.975-.675-1.845-.225-.436-.24-.479-.375-.479-.09 0-.66.164-.78.194a7.177 7.177 0 01-1.8.225c-.9 0-1.515-.12-1.98-.569-.24-.24-.36-.525-.36-.646 0-.104.075-.149.135-.149.075 0 .405.239.48.27.495.225 1.05.301 1.575.301 1.185 0 2.325-.391 2.325-.48s-.84-1.41-1.02-1.41c-.03 0-.825.135-.975.135-1.17 0-2.055-.81-2.055-1.095 0-.045.03-.12.12-.12.06 0 .345.12.39.135.495.166.675.211 1.035.211.36 0 .885-.075.885-.181 0-.045-.81-1.229-1.53-1.59-.435-.21-.495-.226-.495-.33 0-.149.285-.405.585-.405.33-.005 1.215.176 1.35.626zm3.99 24.885c0-1.23-1.035-2.28-2.535-2.28-1.98 0-3.255 2.055-3.525 2.52-.3.511-.45.795-.855.795-.36 0-.435-.3-.435-.42 0-.375.12-.705 1.185-1.949.975-1.141 1.125-1.335 3.39-4.515.495-.705.705-1.021.705-1.186 0-.105-.105-.21-.285-.21-.555 0-1.44.75-1.695.96-.6.495-.81.54-1.065.54-.705 0-1.17-.96-1.17-1.035 0-.045.045-.045.36-.045.795 0 1.905-.359 2.325-.54.93-.404 1.035-.45 1.365-.45.6 0 1.575.375 1.575 1.035 0 .435-.345.675-1.065 1.17-1.08.765-2.4 2.819-2.4 3.075 0 .045.045.105.09.105.09-.031.285-.105.375-.136.48-.181.9-.239 1.32-.239 1.92 0 3.375 1.424 3.375 3.119 0 1.904-1.845 3.24-3.75 3.24-1.485 0-2.55-.795-2.55-1.545 0-.541.63-1.215 1.485-1.215.705 0 1.29.42 1.71.959.21.271.3.405.51.405.509.001 1.56-.914 1.56-2.158zm-3.855 1.349c-.36 0-.63.285-.63.525 0 .39.645.705 1.29.705.15 0 .255-.105.255-.271 0-.359-.36-.959-.915-.959zm3.569 8.85c.675 0 .75 0 .945-.27.15-.225.39-.555.57-.555.255 0 1.275.899 1.275 1.049 0 .181-.3.181-.795.181h-3.885c-.39 0-.39.3-.39.479 0 1.216 0 1.351.39 1.351h3.3c.63 0 .705 0 .825-.105.12-.104.63-.645.765-.645.24 0 .975.75.975.96 0 .18-.09.18-.81.18h-9.945c-.465 0-1.005.016-1.575.03-.105 0-.525.045-.63.045-.045 0-.075-.03-.135-.104l-.3-.346c-.06-.061-.06-.074-.06-.09 0-.03.03-.03.075-.03.12 0 .705.06.81.06.36.016 1.215.046 1.89.046h3.015c.375 0 .375-.315.375-.511 0-1.035 0-1.319-.405-1.319h-1.92c-.51 0-1.2 0-1.59.015-.09 0-.51.061-.585.061-.075 0-.12-.03-.18-.105l-.3-.345a.305.305 0 01-.06-.091c0-.029.045-.045.06-.045.105 0 .585.061.675.061.42.016 1.185.045 2.04.045h1.83c.375 0 .375-.3.375-.42 0-.314 0-.75-.045-1.05-.015-.104-.135-.585-.135-.675 0-.104.06-.135.18-.135s1.515.404 1.53.404c.09.045.18.12.18.21 0 .15-.12.21-.345.33-.27.136-.27.345-.27.945 0 .225.135.39.39.39h1.89zm-5.684 8.219c-.525 0-1.23 0-1.59.016-.075 0-.42.06-.57.06-.06 0-.09-.03-.165-.12l-.3-.345c-.045-.045-.045-.061-.045-.075 0-.03.03-.045.045-.045.12 0 .6.06.69.06.735.03 1.26.046 2.04.046h1.815c.39 0 .39-.315.39-.556 0-.21.03-1.14.015-1.335-.03-.315-.345-.33-.375-.33h-2.715c-.45 0-1.005 0-1.575.03-.105 0-.525.045-.615.045-.06 0-.105-.061-.165-.12l-.285-.33c-.06-.06-.06-.06-.06-.09 0-.029.03-.029.045-.029.12 0 .6.044.705.044.84.045 1.395.061 2.025.061h4.484c.36 0 .6 0 1.215-1.77.03-.09.045-.195.075-.541.015-.119.045-.164.165-.164.075 0 1.32.479 1.32.765 0 .24-.27.315-.495.375-.27.06-1.365 1.095-1.365 1.23 0 .044.045.104.18.104h1.71c.645 0 .765 0 .945-.255.36-.525.42-.585.585-.585.27 0 1.17.824 1.17 1.035 0 .149-.15.194-.795.194h-4.71c-.39 0-.39.091-.39 1.681 0 .254 0 .54.405.54h1.95c.615 0 .675 0 .795-.091.135-.105.66-.765.81-.765.165 0 1.08.855 1.08 1.034 0 .181-.09.226-.795.226h-3.855c-.39 0-.39.315-.39.495 0 .3.03 1.605.03 1.859 0 .465-.045.661-.48.855-.09.045-.27.12-.42.12-.3 0-.3-.24-.3-.36 0-.404.06-2.175.06-2.535 0-.089 0-.435-.39-.435h-1.904zm1.335-3.749c0 .479-.345.6-.54.6-.465 0-.525-.24-.705-.93-.045-.181-.33-1.021-.555-1.17-.015-.016-.105-.076-.06-.12.105-.15 1.86.63 1.86 1.62zm-2.551 13.74c-1.32 0-1.755.03-1.905.046-.045 0-.27.029-.315.029-.06 0-.075-.029-.135-.09l-.285-.345c-.06-.061-.06-.075-.06-.105 0-.015.015-.029.045-.029.255 0 1.38.089 1.605.089.45 0 .615 0 .615-.465 0-.149-.09-1.545-.105-1.694-.015-.091-.09-.479-.09-.556 0-.089.105-.104.15-.104.075 0 1.335.285 1.335.54 0 .029-.21.285-.225.314-.135.166-.165.451-.165.646 0 1.2 0 1.335.465 1.335h.405c.285 0 .3-.03.54-.314.12-.136.21-.24.315-.24.24 0 .915.84.915 1.05 0 .12-.045.135-.36.225-.165.045-.75.795-1.08 1.2-.33.42-.675.84-1.02 1.245-.06.075-.135.149-.135.3 0 .12.045.12.525.195.69.09 1.245.615 1.245 1.17 0 .345-.24.629-.465.629-.225 0-.33-.119-.555-.614-.105-.255-.39-.795-.63-.795-.15 0-.15.045-.15.524 0 .855.09 4.62.09 5.385 0 .256-.06.766-.66.766-.465 0-.465-.285-.465-.51 0-.135.075-1.141.09-1.35.015-.421.09-2.971.09-3.271 0-.18 0-.976-.015-1.064-.03-.091-.06-.15-.15-.15-.045 0-.39.3-.405.3-1.125.96-1.995 1.32-2.085 1.32-.03 0-.015-.061.09-.15 1.905-1.71 3-3.015 4.14-4.859.15-.24.21-.36.21-.45 0-.136-.15-.15-.315-.15h-1.095zm8.311-2.25c.66 0 .735 0 .9-.239.225-.315.36-.405.465-.405.24 0 1.065.765 1.065.854 0 .15-.195.195-.795.195h-4.725c-1.095 0-1.515 0-1.89.03-.06 0-.27.045-.315.045-.06 0-.09-.045-.135-.105l-.285-.345c-.06-.061-.075-.074-.075-.09 0-.03.03-.045.06-.045.105 0 .57.061.66.061.735.029 1.35.044 2.055.044h3.015zm-3.96 11.49c-.15 0-.285 0-.375.27-.105.315-.225.69-.675.69-.405 0-.405-.271-.405-.525 0-.555.045-3.33.045-3.96 0-.21-.045-1.215-.045-1.439 0-.075 0-.271.18-.271.09 0 .36.165.525.271.195.104.345.18.705.18h4.05c.285 0 .405-.03.51-.21.18-.27.24-.359.36-.359.03 0 1.125.465 1.125.81 0 .09-.045.104-.315.36-.135.104-.135.989-.135 1.274 0 .39.105 2.28.105 2.715 0 .33 0 1.05-.72 1.05-.42 0-.435-.165-.465-.48-.03-.374-.255-.374-.45-.374h-4.02zm3.359-9.585c.33 0 .435-.105.51-.21.18-.255.225-.33.33-.33.09 0 1.11.495 1.11.75 0 .09-.03.104-.315.33-.15.12-.15.33-.15.479 0 .211.06 1.756.06 2.086 0 .359-.39.614-.72.614-.255 0-.3-.104-.405-.36-.105-.254-.3-.254-.435-.254h-2.505c-.285 0-.375.104-.48.194-.345.345-.405.405-.645.405-.3 0-.42-.12-.42-.42 0-.03.075-1.711.075-2.04 0-.42-.015-.795-.03-1.17 0-.075-.06-.421-.06-.495 0-.075.06-.09.12-.09.09 0 .405.18.6.3.33.195.465.21.84.21h2.52zm-2.279 7.02c.465 0 .465-.21.465-.914 0-.705 0-.916-.465-.916h-.99c-.465 0-.465.211-.465.916 0 .704 0 .914.465.914h.99zm.045 2.175c.435 0 .435-.105.435-.931 0-.72 0-.854-.435-.854h-1.065c-.435 0-.435.104-.435.93 0 .72 0 .855.435.855h1.065zm-.286-8.804c-.45 0-.45.239-.45 1.095 0 1.109 0 1.229.45 1.229h2.52c.465 0 .465-.225.465-1.095 0-1.11 0-1.229-.465-1.229h-2.52zm3.181 8.804c.495 0 .495-.15.495-.886 0-.765 0-.899-.495-.899h-1.035c-.495 0-.495.149-.495.885 0 .765 0 .9.495.9h1.035zm.014-2.175c.48 0 .48-.119.48-1.23 0-.419-.06-.6-.48-.6h-1.05c-.42 0-.48.166-.48.6 0 1.111 0 1.23.48 1.23h1.05zm-8.879 15.12c0-.45.42-.93 1.44-2.114.675-.78 1.275-2.025 1.275-2.235 0-.09-.105-.104-.165-.104-.15 0-.765.119-.9.119-.57 0-1.335-.734-1.335-1.319 0-.046 0-.105.09-.105s.48.24.57.285c.18.09.585.271.99.271 1.23 0 1.23-.405 1.23-.705 0-.09-.015-.33-.12-.525-.045-.074-.36-.345-.36-.436 0-.119.39-.239.66-.239.36 0 .735.135.765.465.015.194.075.225.675.271.105 0 .675.074.675.39 0 .495-1.095.915-1.785 1.185-.225.09-.24.12-.57.885-.36.825-.42.945-.81 1.62-.075.136-.105.181-.105.24 0 .03.015.06.06.06s.33-.104.465-.164c.165-.076.36-.121.585-.121.195 0 .885.031 1.275.916.105.254.12.285.15.285.045 0 .54-.69.615-.811.495-.689 1.47-2.055 2.775-2.055.825 0 1.41.705 1.41 1.334 0 .706-1.185 1.201-2.115 1.605-.375.165-2.07.84-2.34 1.005-.24.15-.255.315-.255.63 0 .135.03.766.03.9 0 .24 0 1.095-.555 1.095-.405 0-.465-.495-.465-.765 0-.15.045-.87.045-.885 0-.061 0-.18-.105-.18-.12 0-1.455.93-1.455 1.784 0 1.035 1.5 1.035 1.935 1.035.375 0 .66-.03.96-.091.21-.029 1.17-.27 1.365-.27.315 0 .735.15.735.51 0 .931-2.325.99-2.685.99-1.905 0-2.91-.779-2.91-1.965 0-.96.57-1.439 1.98-2.579.15-.12.225-.301.225-.526 0-.674-.12-1.514-.72-1.514-.57 0-1.455.689-1.845 1.59-.165.375-.33.734-.81.734-.285-.001-.57-.091-.57-.496zm3.825-5.67c.03 0 .75-.194.75-.359 0-.195-.375-.225-.51-.225-.21 0-.27.419-.27.479s0 .105.03.105zm1.364 4.86c0 .029.015.074.06.074s3-1.199 3-2.189c0-.375-.33-.449-.525-.449-1.245 0-2.535 2.324-2.535 2.564zm-7.544 16.08c-.06-.06-.06-.09-.06-.105 0-.029.03-.029.045-.029.27 0 1.545.09 1.845.09.27 0 .375-.12.51-.285.33-.36.375-.404.435-.404.075 0 .975.524.975.794 0 .03-.015.075-.045.091-.045.045-.315.225-.36.27-.105.075-.105.255-.105 1.905 0 1.829 0 1.965.39 2.489.645.87 1.485 1.125 4.275 1.125 2.265 0 3.57-.09 4.74-.255.195-.03 1.2-.225 1.215-.225.03 0 .075 0 .075.045 0 .03-.225.255-.27.3-.105.12-.27.375-.345.54-.255.569-.27.615-.45.675-.165.045-1.71.061-1.965.061-1.365 0-3.675-.076-4.635-.195-.645-.075-1.755-.225-2.64-1.471-.105-.135-.54-.914-.615-.914-.12 0-1.305 1.455-1.53 1.904-.24.51-.27.57-.42.57-.12 0-.54-.51-.645-.6-.15-.12-.36-.315-.36-.45 0-.091.09-.104.195-.12.39-.075 1.965-.885 2.055-1.545v-3.33c0-.345-.015-.57-.45-.57-.03 0-.735.016-1.125.045-.045 0-.27.03-.315.03s-.075-.03-.135-.104l-.285-.332zm2.76-2.355c-.315 0-.375-.104-.9-1.064-.12-.225-.6-.915-1.455-1.725-.21-.211-.24-.24-.24-.301 0-.045.045-.074.12-.074.06 0 .72.18 1.5.584.75.391 1.44.976 1.44 2.086-.001.284-.21.494-.465.494zm1.095 5.099c-.06-.074-.06-.074-.06-.09 0-.029.015-.045.045-.045.075 0 .405.045.495.045.15.016 1.26.061 1.604.061.555 0 .555-.045.555-.75 0-.436 0-.645-.465-.645-.165 0-1.065.06-1.155.06-.06 0-.09-.03-.135-.09l-.255-.345c-.045-.075-.06-.075-.06-.105s.03-.03.045-.03c.225 0 1.335.091 1.59.091.36 0 .405-.181.405-.436 0-.12 0-.359-.045-.54-.015-.045-.12-.345-.12-.36 0-.029.03-.029.09-.029.24 0 1.155.105 1.155.449 0 .061-.165.33-.18.405-.015.06-.015.12-.015.21 0 .315.195.315.315.315h1.095c.39 0 .465-.136.465-.45 0-.15-.06-.855-.06-1.005 0-.09.12-.09.18-.09.18 0 1.035.18 1.035.36 0 .09-.21.435-.225.51-.03.135-.03.24-.03.3 0 .27.045.375.315.375.42 0 .51-.045.66-.255.375-.525.42-.585.555-.585.285 0 .945.915.945.989 0 .24-.375.24-.69.24h-1.32c-.225 0-.465.061-.465.405 0 .915 0 1.005.465 1.005h.495c.615 0 .675 0 .87-.255.375-.525.42-.585.555-.585.285 0 .945.915.945.99 0 .254-.36.254-.69.254h-6.54c-.405 0-1.05 0-1.605.031-.045 0-.36.045-.39.045-.045 0-.075-.045-.12-.105l-.254-.345zm1.74-5.954c-.285 0-.345.135-.345.375 0 .405.03.75.12.899.105.211.21.211 1.17.211.465 0 .84 0 1.08-.405.06-.091.285-.556.345-.556.015 0 .075.061.09.12.03.075.09.421.105.495.015.061.195.33.195.391 0 .225-.345.555-.69.689-.375.15-1.005.15-1.785.15-1.35 0-1.38-.51-1.38-1.86 0-.225-.015-.54-.045-.75 0-.045-.075-.255-.075-.315 0-.104.18-.119.225-.119.195 0 .315.045.6.18.21.09.315.105.42.105h.63c.255 0 .435-.061.435-.436 0-.93 0-1.035-.51-1.035-.36 0-1.065.016-1.485.046-.045 0-.27.029-.315.029-.06 0-.075-.029-.135-.09l-.285-.345c-.075-.075-.075-.075-.075-.105s.045-.03.06-.03c.075 0 .45.046.54.046.195.015 1.41.06 1.68.06s.39-.015.495-.194c.09-.136.18-.286.33-.286.06 0 .855.511.855.631 0 .06-.015.075-.18.21-.135.119-.135.3-.135.525 0 .149.03.93.03 1.109 0 .555-.45.6-.555.6-.195 0-.27-.09-.375-.225-.09-.12-.24-.12-.36-.12h-.675zm2.114 7.185c0 .105-.03.105-.39.285-.195.09-1.05.645-1.245.734-.315.166-.825.375-1.185.375-.045 0-.135-.015-.135-.09 0-.06.735-.584.87-.704.33-.315.69-.78.795-1.05.12-.271.15-.271.21-.271.045 0 .09.03.135.045.195.105.945.511.945.676zm.045-2.67c-.405 0-.405.285-.405.6 0 .69 0 .811.51.811h.9c.465 0 .51-.12.51-.57 0-.66 0-.84-.435-.84h-1.08zm2.37-4.395c-.315 0-.435.03-.435.404 0 .75 0 .931 1.035.931.765 0 1.695 0 1.875-.436.045-.119.195-.72.27-.72.06 0 .285.57.345.66.045.075.33.375.33.465 0 .226-.3.465-.585.63-.285.15-.6.255-1.635.255-2.415 0-2.415-.135-2.415-1.5 0-.18-.12-1.08-.12-1.14 0-.104.165-.135.255-.135.03 0 .54.12.6.135.225.06.345.06.465.06h.87c.33 0 .465-.09.465-.435 0-.12 0-.765-.03-.9-.045-.165-.195-.255-.375-.255-.9 0-1.485.016-1.56.03-.045 0-.405.045-.435.045-.06 0-.075-.029-.135-.09l-.285-.345c-.075-.075-.075-.075-.075-.105s.045-.03.06-.03c.09 0 .57.046.675.046s1.275.06 1.815.06c.21 0 .27-.06.345-.165.12-.165.165-.24.315-.24.06 0 .84.495.84.615 0 .06-.03.075-.195.24-.075.061-.12.165-.12.39 0 .18.03 1.08.03 1.29 0 .556-.555.57-.6.57-.21 0-.255-.061-.345-.21-.06-.12-.255-.12-.33-.12h-.915zm1.53 8.13c0 .225-.195.45-.405.45-.24 0-.375-.121-.6-.315-.51-.435-1.38-1.185-1.56-1.319-.09-.076-.255-.181-.255-.226s.06-.075.12-.075c.12 0 .15 0 .405.045 1.156.179 2.295.465 2.295 1.44zm-4.215 8.49c0 .239-.09.33-.825 1.14-1.245 1.365-1.605 1.801-1.98 2.505-.06.104-.3.556-.3.63 0 .045.015.061.06.061.165-.12.45-.285.585-.375.975-.645 1.635-.66 1.92-.66 1.845 0 1.95 1.995 1.95 2.595 0 .226-.09 1.215-.09 1.425 0 1.096.915 1.096 1.095 1.096.825 0 1.605-.615 2.325-1.365.06-.061.255-.36.3-.36.03 0 .045.03.045.075 0 .255-.36.99-.705 1.396-.795.915-1.95 1.47-2.835 1.47-.84 0-1.335-.75-1.335-1.575 0-.345.24-1.92.24-2.235 0-.84-.3-2.024-1.41-2.024-.255 0-2.775.284-3.314 4.124-.03.181-.09.976-.135 1.126-.03.104-.12.495-.495.495-.18 0-.705-.15-.705-1.125 0-.436.045-.525.42-1.396.12-.271.6-1.455.705-1.68.525-1.11.705-1.38 2.235-3.811.075-.134.705-1.334.825-1.604.06-.135.135-.359.135-.6 0-.09-.105-.63-.105-.69 0-.045.03-.09.105-.09.51-.003 1.289 1.002 1.289 1.452zm-5.264 24.945c1.545-2.925 1.98-5.505 1.98-5.52 0-.15-.06-.15-.54-.15-.315 0-.84-.015-1.335-.27-.48-.24-.78-.66-.78-.811 0-.045.045-.061.06-.061.06 0 .285.121.345.136.225.075.84.165 1.335.165.225 0 .945-.03 1.065-.135.12-.105.165-1.125.165-1.23 0-.119 0-.63-.18-.93-.06-.075-.42-.45-.42-.555 0-.15.285-.346.675-.346.675 0 1.2.615 1.2.795 0 .075-.165.376-.165.45 0 .285 1.2.54 1.35.54.06 0 .39-.029.465-.029.12 0 .495 0 .495.465 0 .84-1.275 1.274-2.265 1.545-.51.135-.57.149-.63.42-.765 3.27-.78 3.285-1.095 4.26-1.035 3.119-1.575 3.119-1.86 3.119-.36 0-.405-.494-.405-.659 0-.18.075-.33.54-1.199zm3.165-6.856c.075 0 1.215-.404 1.215-.6 0-.15-.81-.479-.975-.479-.09 0-.135.03-.165.18-.06.3-.06.345-.135.705-.015.104-.031.194.06.194zm1.139 6.361c.315 1.305 1.935 1.59 3.075 1.59.255 0 1.395-.104 1.635-.104.51 0 1.2.254 1.2.75 0 .42-.555.51-1.83.51-2.43 0-4.455-.615-4.455-2.506 0-.344.09-.659.21-.659.06-.001.151.374.165.419zm3.315-5.22c1.425 0 2.505.42 2.505 1.08 0 .359-.315.359-.435.359-.135 0-.72-.045-.84-.045-.27 0-.495 0-1.11.24-.375.135-.525.195-.63.195-.03 0-.075 0-.075-.045 0-.105.78-.676.78-.84 0-.226-1.065-.24-1.29-.24-.33 0-.735.015-1.08.06a6.74 6.74 0 01-.495.06c-.045 0-.12 0-.135-.029-.104-.195 1.2-.795 2.805-.795zm2.445-1.665c0 .24-.21.569-.465.569-.21 0-.33-.104-.765-.689-.255-.345-.39-.449-1.02-.93-.06-.045-.21-.18-.21-.24s.135-.12.27-.12c1.335 0 2.19.87 2.19 1.41zm1.545-.989c0 .194-.135.449-.39.449-.33 0-.51-.285-.75-.63-.195-.285-.765-.72-1.245-.944-.15-.076-.18-.136-.18-.181 0-.135.345-.135.57-.135.51 0 1.995.435 1.995 1.441zm-9.044 26.969c-.09 0-.405 0-.435.314-.03.39-.06.81-.72.81-.495 0-.525-.3-.525-.555 0-.061.09-3.061.09-3.63 0-1.635 0-5.205-.12-6.72-.015-.135-.09-.766-.09-.9 0-.074.015-.119.09-.119.06 0 .135.029.705.314.42.195.495.21.75.21h4.59c.315 0 .435 0 .54-.149.225-.315.285-.391.435-.391.21 0 1.305.705 1.305.931 0 .104-.075.165-.33.39-.195.15-.27.255-.27.975 0 1.605.015 1.875.03 3.195.015.854.12 4.649.12 5.43 0 .525-.345.824-.75.824-.045 0-.435 0-.48-.569-.015-.255-.015-.359-.315-.359h-4.62zm4.5-5.445c.435 0 .435-.285.435-.479 0-.181-.045-3.675-.075-3.75-.09-.195-.285-.195-.375-.195h-4.635c-.21 0-.33.135-.345.225-.03.12-.03 3.375-.03 3.646 0 .284.015.555.42.555h4.605zm-.016 5.04c.135 0 .405 0 .435-.315.015-.09.015-3.42.015-3.765 0-.314-.03-.57-.435-.57h-4.59c-.39 0-.435.225-.435.525 0 .495.045 2.91.045 3.449 0 .48.045.676.45.676h4.515z"/></g><g><g fill="#210701"><path d="M123.718 50.028c-.391 0-.572-.364-.65-.572-.312-.754-.338-.832-.468-.832-.208 0-1.353.234-1.508.364-.208.156-.208.391-.208 2.47 0 1.43.025 2.834.052 4.238 0 .52.104 2.705.104 3.172 0 .416 0 1.456-1.273 1.456-.442 0-.65-.13-.65-.729 0-.182.078-1.014.078-1.222.052-2.47.078-3.38.078-5.746 0-.286-.026-2.601-.052-2.704-.026-.26-.156-.416-.469-.416-.26 0-2.105.364-2.21.39-.156.052-.832.442-.988.442-.285 0-.779-1.769-.779-1.82 0-.078.052-.13.13-.13.104 0 .676.078.806.078.729 0 .91-.052 1.223-.338.182-.208 2.99-3.354 4.523-6.5.208-.442.261-.494.364-.494.183 0 1.977.884 1.977 1.352a.349.349 0 01-.286.364c-.521.156-.65.182-1.404 1.014-2.47 2.652-2.756 2.938-3.952 4.004-.26.234-.286.39-.286.416 0 .13.182.13.313.13.338 0 4.186-.312 4.186-.624 0-.13-.078-.338-.728-1.145-.104-.104-.416-.416-.416-.468 0-.078.052-.104.155-.104.572 0 3.251 1.17 3.251 2.834 0 .494-.208.858-.65 1.066a.63.63 0 01-.263.054zm-5.071 2.601c0 .13-.521.598-.599.702-.285.416-2.313 4.992-2.938 4.992-.052 0-.078-.052-.078-.104 0-.13.702-2.47.806-2.859.234-.911.546-2.471.546-3.381 0-.468 0-.52.131-.52.104 0 .884.312 1.014.364.365.182 1.118.546 1.118.806zm-.337-9.933c.468.312.936.91.936 1.508 0 .468-.364.988-.91.988-.312 0-.779-.208-.987-.624-.547-1.17-.65-1.404-1.196-1.95-.104-.104-.65-.494-.65-.65s.313-.156.416-.156c.13 0 .78.13.91.13.313 0 .364-.078.78-.754.702-1.118 1.273-2.496 1.326-3.354.025-.39.078-.988.182-.988.468 0 2.21.754 2.21 1.326 0 .13-.441.468-.754.702-.208.156-1.612 1.924-2.132 2.626-.442.598-.468.65-.468.832-.001.131.076.208.337.364zm6.395 12.429c0 .286-.025 1.118-.754 1.118-.571 0-.649-.468-.857-1.482-.104-.416-.832-2.6-.832-2.678 0-.104.052-.156.156-.156.207 0 1.014.624 1.508 1.222.416.52.779 1.092.779 1.976zm-.416-13.651c-.052-.078-.104-.13-.104-.156 0-.052.052-.078.078-.078.182 0 .962.078 1.144.104 2.106.078 2.809.078 3.979.078.312 0 .728-.078.728-.702 0-.494-.155-2.938-.155-3.484 0-.313.104-.391.312-.391.026 0 2.393.339 2.393.858 0 .13-.469.494-.546.598-.208.286-.286.39-.286 2.08 0 .546 0 1.04.728 1.04h.937c.546 0 .676 0 .91-.208.182-.156 1.014-1.248 1.3-1.248.312 0 2.418 1.248 2.418 1.794 0 .364-.521.364-1.404.364h-4.03c-.676 0-.806.26-.806.78 0 .599 0 2.938.078 3.433.052.39.182.624.649.624 1.353 0 1.482 0 1.769-.442.572-.884.624-.962.91-.962.338 0 2.132 1.326 2.132 1.716 0 .364-.52.364-1.404.364h-6.084c-.624 0-2.366 0-3.276.078-.077 0-.468.052-.546.052-.104 0-.156-.052-.233-.156l-.494-.598c-.052-.078-.13-.13-.13-.182 0-.052.078-.052.104-.052.156 0 .937.078 1.118.078.806.026 2.314.104 3.068.104.702 0 .702-.546.702-1.69 0-3.146-.104-3.146-.807-3.146h-.572c-.623 0-2.392 0-3.275.052a4.34 4.34 0 01-.572.078c-.078 0-.13-.078-.208-.182l-.525-.598zm9.309 10.01c.469 0 .572 0 .78-.078.156-.078.754-.78.937-.78.39 0 1.871.91 1.871 1.248 0 .208-.207.468-.363.624-.234.26-.26.286-.26.91 0 .754.155 4.524.155 5.356 0 .988-.806 1.118-1.352 1.118-.624 0-.624-.468-.624-1.014 0-.598-.208-.598-.676-.598h-5.617c-.546 0-.571.364-.571.702-.026.442-.078 1.378-1.378 1.378-.599 0-.599-.13-.599-1.378 0-2.938 0-4.004-.155-6.942 0-.156-.104-.936-.104-1.118 0-.13 0-.286.13-.286.286 0 1.456.624 1.742.754.26.104.468.104.988.104h5.096zm-5.174.703c-.729 0-.754.442-.754.885 0 2.288.025 3.64.025 3.77 0 .494.286.729.78.729h5.538c.78 0 .78-.261.78-1.665 0-.286-.078-3.042-.104-3.172-.077-.546-.546-.546-.754-.546h-5.511zm-7.696 21.19c.364 0 .702-.208.884-.521.286-.546.391-.624.546-.624.156 0 1.769 1.145 1.769 1.43 0 .13-.053.156-.521.39-.39.208-.416.338-.571 1.482-.469 3.718-.625 4.785-1.274 6.812-.13.442-.521 1.066-.521 1.534 0 .13.026.39.261.572 1.248 1.066 1.741 2.184 1.741 3.068 0 .598-.39 1.144-.857 1.144-.286 0-.521-.208-.807-.962-.338-.858-1.014-2.002-1.273-2.002-.156 0-.286.156-.338.26-1.508 2.34-4.42 4.16-4.706 4.16-.053 0-.104 0-.104-.052s.104-.156.156-.208c2.262-2.054 3.979-4.966 3.979-5.564 0-.338-1.353-1.742-1.534-1.742-.104 0-.13.052-.183.26-.182.858-.546 1.404-1.378 1.404-.312 0-.728-.13-.728-.572 0-.208.649-2.132.754-2.522.962-3.641 1.404-6.396 1.404-6.553 0-.208-.104-.494-.469-.494-.13 0-.988.104-1.065.104-.078 0-.13-.052-.234-.182l-.494-.572c-.052-.078-.104-.156-.104-.182 0-.052.052-.052.077-.052.286 0 1.639.104 1.925.104s.649-.208.728-.598c.729-4.108.729-4.94.729-5.928 0-.208.052-.313.233-.313.104 0 1.093.416 1.248.494 1.145.494 1.248.52 1.248.754 0 .182-.155.313-.286.416-.598.494-.676.521-.754.91-.052.13-.806 3.666-.806 3.796 0 .364.286.546.65.546h.675zm-1.067.676c-.52 0-.571.156-.702.78-.078.416-1.326 6.76-1.326 6.838 0 .312.078.364.91.91.702.442.78.494.91.494.338 0 .391-.156.807-1.56.52-1.716 1.065-6.708 1.065-6.812 0-.416-.312-.65-.754-.65h-.91zm13.131-1.326c-.468 0-.599.312-.599.442 0 .753 2.211 4.212 3.303 4.212.441 0 1.04-.962 1.326-1.456.468-.754.52-.832.598-.832.052 0 .052.182.052.234 0 .312-.104 1.846-.104 2.184 0 .286 0 .494.156.702.338.468.39.572.39.78 0 .182-.182.78-.962.78-.702 0-2.964-.832-4.498-2.626a.692.692 0 00-.521-.234c-.078 0-.182.052-1.04.416-.832.364-5.174 2.106-5.356 2.236-.182.131-.832 1.066-1.092 1.066-.338 0-1.195-2.444-1.195-2.548s.077-.104.13-.104c.104 0 .779.104.909.104.339 0 .78 0 .78-.598 0-.702.052-4.186.052-4.966 0-.91 0-3.328-.207-4.134-.026-.104-.261-.728-.261-.858 0-.104.078-.104.104-.104.182 0 1.273.598 2.027 1.014a1.5 1.5 0 00.78.208c.754 0 5.148-1.145 5.98-1.561.13-.078.624-.494.754-.494.078 0 1.326.884 1.586 1.066.494.312.546.364.546.52 0 .182-.182.208-.312.26-.26.104-2.756.286-3.172.312-1.093.104-1.509.131-1.509.729 0 .13.261 1.846.286 1.95.026.13.208.598.988.598h.754c1.118 0 1.248 0 1.561-.546.208-.39.363-.676.676-.676.233 0 2.028 1.17 2.028 1.586 0 .338-.131.338-1.379.338h-3.559zm.649 8.06c.572 0 .78-.286.807-.338.234-.337.312-.468.52-.468s1.847 1.014 1.847 1.274c0 .104-.026.156-.364.598-.156.234-.234.338-.234.832 0 .885.183 5.2.183 6.162 0 .833-1.093 1.145-1.456 1.145-.546 0-.599-.806-.624-1.17-.052-.468-.494-.468-.677-.468h-5.252c-.286 0-.546.104-.598.39-.078.468-.208 1.248-1.326 1.248-.624 0-.624-.234-.624-1.04 0-.416.104-4.056.104-4.836 0-.78-.053-2.262-.104-3.068 0-.104-.078-.702-.078-.858 0-.077 0-.182.104-.182.338 0 1.976.65 2.027.65.416.13.754.13.988.13h4.757zm-3.821-8.763c.416 0 .468-.338.468-.494 0-.234-.208-1.482-.234-1.768-.052-.52-.416-.728-.676-.728-.234 0-1.404.104-1.664.104-.754.026-.754.391-.754 1.482 0 1.066 0 1.404.78 1.404h2.08zm-2.08.703c-.494 0-.729.208-.755.702 0 .468-.025 3.198-.025 3.822 0 .13.13.39.39.39.13 0 3.38-.78 3.874-.91.547-.13.702-.156.702-.39 0-.078-.052-.156-.078-.208a8.287 8.287 0 01-1.04-2.236c-.312-1.014-.338-1.17-.832-1.17h-2.236zm5.954 11.44c.754 0 .754-.234.754-2.054 0-.468-.338-.65-.78-.65h-5.278c-.779 0-.779.52-.779.754 0 1.586.025 1.95.806 1.95h5.277zm-.078 3.51c.806 0 .806-.208.806-2.028 0-.546-.182-.806-.754-.806h-5.226c-.156 0-.755 0-.755.676 0 1.95 0 2.158.807 2.158h5.122zm-11.362 12.999c.286 0 .312 0 .52-.208.937-.858 1.04-.962 1.223-.962.338 0 1.586 1.248 1.586 1.534 0 .312-.338.312-.91.312h-6.526c-.546 0-1.404 0-2.132.052a3.944 3.944 0 01-.546.078c-.053 0-.104-.052-.156-.155l-.338-.599c-.078-.13-.078-.13-.078-.182 0-.026.025-.051.052-.051s.546.077.65.077a46.1 46.1 0 002.651.104h4.004zm-.859 10.66c.234 0 .416 0 .546-.052.156-.078.78-.806.962-.806.183 0 1.612.779 1.612 1.195 0 .053-.286.494-.338.546-.13.208-.156.416-.156.702 0 .546.104 3.276.104 3.9 0 .806-.546 1.196-1.301 1.196-.416 0-.416-.208-.416-.521 0-.624-.39-.624-.832-.624h-2.392c-.78 0-.78.313-.78 1.353 0 .52 0 1.222-1.222 1.222-.702 0-.729-.468-.729-.78 0-.676.104-4.004.104-4.758 0-1.066 0-1.534-.078-2.132-.026-.13-.13-.832-.13-.988 0-.104.052-.26.208-.26s1.222.546 1.404.624c.416.208.598.182.91.182h2.524zm-.311-7.358c.155 0 .312 0 .441-.104.183-.129.78-.988.988-.988.286 0 1.586 1.248 1.586 1.482 0 .286-.416.286-1.092.286h-3.25c-.468 0-1.431 0-2.132.052-.078.026-.442.079-.521.079s-.104-.079-.156-.156l-.364-.598c-.077-.13-.077-.13-.077-.182 0-.026.025-.052.077-.052.104 0 .547.078.65.078.65.052 1.95.104 2.601.104h1.249zm.077 3.536c.261 0 .416 0 .702-.39.286-.416.442-.546.65-.546.442 0 1.638.988 1.638 1.3s-.416.312-1.04.312h-3.25c-1.716 0-2.21.078-2.288.078-.052 0-.338.052-.39.052s-.078-.026-.156-.156l-.338-.598c-.078-.13-.078-.13-.078-.182 0-.026.026-.052.052-.052s.547.078.65.078c.729.052 1.898.104 2.626.104h1.222zm-.363-9.881c.286 0 .416 0 .702-.39.441-.624.52-.702.728-.702.364 0 1.69 1.04 1.69 1.43 0 .338-.364.338-.91.338h-2.938c-.649 0-1.508 0-2.132.052-.078 0-.442.078-.521.078-.077 0-.13-.078-.182-.156l-.338-.598c-.078-.13-.078-.13-.078-.182 0-.026.026-.052.078-.052 0 0 .546.078.65.078.649.078 1.949.104 2.6.104h.651zm-1.743 14.405c-.598 0-.754.104-.754 1.066 0 3.067.13 3.067.857 3.067h2.393c.286 0 .806 0 .806-.676 0-.286 0-2.938-.052-3.094-.156-.364-.52-.364-.729-.364h-2.521zm14.093-14.223c1.065 0 1.17 0 1.325-.13.572-.494.729-.65 1.015-.65.26 0 1.897.754 1.897 1.353 0 .13-.52.546-.598.676-.182.234-.182.468-.182 2.6 0 .598.104 3.458.104 4.108 0 .442 0 1.586-1.118 1.586-.676 0-.754-.26-.884-.884-.104-.494-.468-.52-.754-.52h-4.368c-.728 0-.78.364-.78.857-.025 2.704-.052 5.382-.052 8.086 0 .962.104 1.326.416 1.56.442.313 2.418.416 3.172.416.208 0 2.834 0 3.458-.52.364-.286.78-1.847.988-2.601.156-.546.182-.649.313-.649.104 0 .182.416.233.624.13.649.338 1.664.65 1.976.468.468.546.546.546.806 0 .442-.572.962-.91 1.196-.572.416-1.612.937-4.628.937-4.914 0-5.721-.755-5.876-1.977-.053-.442-.053-8.008-.053-9.204 0-.39.026-.598-.052-1.638 0-.182-.13-1.04-.13-1.248 0-.079 0-.364.286-.364.338 0 1.3.52 2.002.91.234.13.416.156.806.156h4.005c.493 0 .624-.104.728-.364.13-.312.13-2.912.13-3.562 0-2.756-.078-2.834-.806-2.834h-3.666c-.624 0-2.366 0-3.276.078-.078 0-.468.052-.546.052s-.13-.052-.234-.182l-.494-.598c-.104-.13-.104-.13-.104-.156 0-.052.052-.052.078-.052.156 0 .962.078 1.144.078.754.026 2.106.078 3.563.078h2.652zm-6.734 30.421c-3.25 4.082-10.271 7.54-11.129 7.54-.104 0-.13-.052-.13-.104s.988-.728 1.17-.884c4.811-3.666 8.814-7.306 9.022-8.736.026-.234.104-.338.208-.338.078 0 1.326.65 1.561.754.754.39.832.416.832.65 0 .13-.053.234-.234.338-.208.104-.26.182-.26.26 0 .416 4.316 4.395 9.282 6.11.312.104 2.028.52 2.028.572 0 .026-.78.286-.91.338-.754.312-.937.494-1.326.884a.516.516 0 01-.338.156c-.234 0-3.381-1.222-5.851-3.692-1.481-1.481-2.678-3.068-3.016-3.666-.078-.156-.234-.441-.442-.494-.181-.026-.364.182-.467.312zm-8.425 13.313c.546.78.65 1.976.65 2.886 0 2.704-1.196 3.511-2.055 3.511-.546 0-.936-.416-.936-.833 0-.39.13-.546.676-1.248.937-1.144 1.456-2.964 1.456-3.952 0-.078-.078-.494-.025-.546.052 0 .131.026.234.182zm10.946-5.565c.937 0 1.145 0 1.404-.364.26-.364.313-.442.494-.442.208 0 2.08 1.04 2.08 1.508 0 .182-.078.234-.806.494-.624.234-1.17 1.3-1.586 2.132-.469.962-.858 1.716-1.664 1.716-.364 0-1.118-.208-1.118-.728 0-.521 1.897-2.756 1.897-3.354 0-.286-.233-.286-.441-.286h-4.498c-.729 0-2.522.026-3.276.078-.078 0-.468.052-.546.052-.104 0-.156-.052-.234-.156l-.52-.598c-.104-.13-.104-.13-.104-.182 0-.052.052-.052.104-.052.155 0 .962.078 1.144.078.728.026 2.392.104 3.563.104h4.107zm-5.408 6.059c0 .208-.052.26-.624.702-.26.208-.338.39-.338.91 0 .286 0 2.081.026 2.21.13.962 1.118.962 2.34.962 5.044 0 5.46-.754 5.98-1.664a7.16 7.16 0 00.598-1.352c0-.052.052-.208.183-.208.13 0 .13.208.13.312 0 .078 0 1.898.571 2.392.339.286.364.312.364.494 0 1.742-5.252 1.742-6.162 1.742-4.758 0-5.746-.234-5.746-3.38v-3.38c0-.078-.078-.468-.078-.546 0-.286.183-.39.468-.338.521.104 2.288.598 2.288 1.144zm2.419-8.372c-.572 0-1.534 0-2.314.051-.052 0-.546.078-.572.078-.052 0-.104-.078-.156-.182l-.39-.598c-.078-.104-.078-.13-.078-.182 0-.026.026-.052.078-.052.026 0 .572.078.702.078.728.078 2.105.104 2.808.104 1.093 0 1.223 0 1.456-.468.104-.208.416-.728.702-.728.442 0 1.716 1.248 1.716 1.586 0 .313-.441.313-1.039.313h-2.913zm.858 7.8c1.716.884 1.898 1.456 1.898 2.08 0 .65-.391 1.066-.937 1.066-.598 0-.806-.416-1.403-1.664-.313-.65-1.066-1.508-1.404-1.898-.078-.078-.078-.156-.053-.182 0-.026.963.13 1.899.598zm10.53 4.16c0 .78-.364 1.352-.987 1.352-.572 0-.677-.338-1.066-1.534-.234-.676-.676-1.612-1.924-3.068-.131-.156-.286-.364-.234-.416.025-.027 4.211 1.014 4.211 3.666zm-14.613 30.368c-.156 0-.702 0-.754.546-.052.676-.104 1.404-1.248 1.404-.858 0-.91-.521-.91-.962 0-.104.156-5.305.156-6.292 0-2.835 0-9.023-.208-11.649-.026-.234-.156-1.326-.156-1.56 0-.13.026-.208.156-.208.104 0 .233.052 1.222.546.729.338.858.364 1.3.364h7.957c.546 0 .754 0 .936-.26.39-.546.494-.676.754-.676.364 0 2.263 1.222 2.263 1.612 0 .182-.131.286-.572.676-.338.26-.468.442-.468 1.69 0 2.782.025 3.25.052 5.538.025 1.482.208 8.061.208 9.412 0 .91-.599 1.431-1.3 1.431-.078 0-.754 0-.832-.988-.026-.442-.026-.624-.547-.624h-8.009zm7.801-9.438c.754 0 .754-.494.754-.832 0-.312-.078-6.37-.131-6.5-.155-.338-.493-.338-.649-.338h-8.034c-.364 0-.572.234-.599.39-.052.208-.052 5.85-.052 6.318 0 .494.026.962.729.962h7.982zm-.026 8.736c.233 0 .702 0 .754-.546.026-.156.026-5.928.026-6.526 0-.546-.053-.988-.754-.988h-7.957c-.676 0-.754.391-.754.91 0 .858.078 5.044.078 5.98 0 .832.078 1.17.78 1.17h7.827z"/></g><g fill="#4A1F00"><path d="M109.342 45.717c0 .077 0 .295-.204.295-.155 0-.168-.154-.191-.5-.013-.204-.036-.64-.576-.64-.12 0-.252.025-.348.051-.491.103-3.682 1.076-4.629 1.37-.54.166-.601.18-.601.281 0 .077.072.115.12.129.24.102 4.666 1.293 5.073 1.395.108.026.264.052.384.052.528 0 .563-.602.576-.781.036-.486.036-.537.204-.537.167 0 .191.166.191.281v2.611c0 .128 0 .346-.191.346-.168 0-.168-.051-.204-.524-.061-.794-.552-.922-1.835-1.268-1.728-.461-4.485-1.216-6.213-1.677-.359-.09-.527-.142-.527-.295s.084-.179.791-.396c.756-.23 4.462-1.332 5.289-1.588.492-.153.552-.166.552-.243 0-.063-.144-.103-.3-.153-1.487-.461-3.838-1.242-5.325-1.703-.504-.153-1.007-.319-1.007-.486 0-.103.168-.192.336-.23.527-.141 3.13-.845 3.718-.998 4.521-1.191 4.521-1.255 4.521-2.087 0-.18 0-.436.216-.436.132 0 .18.128.18.269v3.086c0 .089 0 .358-.204.358-.191 0-.191-.141-.191-.538 0-.333-.097-.679-.552-.679-.084 0-.204 0-.479.077-.672.192-3.971 1.101-4.714 1.306-.036.013-.42.115-.42.243 0 .077.168.154.229.18.491.205 4.401 1.498 4.953 1.498.252 0 .636-.128.839-.41.145-.205.145-.436.145-.64 0-.18.012-.397.216-.397.18 0 .18.218.18.27v3.108zm-5.601 8.038c0-.167 0-.41-.384-.41-1.464 0-2.471 1.063-2.471 2.125 0 .589.323 1.152.672 1.549.06.077.467.372.467.487 0 .063-.06.128-.155.128-.264 0-1.499-.896-1.499-2.586 0-1.793 1.331-2.804 3.07-2.804 1.99 0 3.046 1.318 3.046 2.714 0 1.984-1.967 2.548-2.471 2.548-.216 0-.275-.129-.275-.385v-3.366zm.396 2.355c0 .281.06.422.348.422.456 0 1.68-.461 1.68-1.536 0-1.19-1.5-1.562-1.764-1.562s-.264.218-.264.333v2.343zm-3.538 8.46c0-.115.036-.23.168-.243.156-.025.228-.038.228-.115 0-.076-.264-.358-.3-.435a2.431 2.431 0 01-.323-1.242c0-1.844 1.619-2.51 3.07-2.51 2.29 0 3.046 1.588 3.046 2.663 0 .141-.012.371-.096.679-.036.115-.336.64-.336.781 0 .153.18.166.288.166.144 0 .899.013 1.067.013.527 0 1.403 0 1.403-.807 0-.063-.036-.346-.036-.371 0-.051.036-.128.096-.128.108 0 .12.064.276.589.048.167.419 1.421.419 1.498 0 .025 0 .063-.06.103-.048.038-.804.038-.936.038-.888 0-5.229-.025-6.213-.025-.636 0-1.354 0-1.379.729 0 .218-.012.448-.216.448-.036 0-.168-.038-.168-.205V64.57zm1.331-.306c.264.051 1.523.051 2.279.051.671 0 .947 0 1.295-.294.252-.205.468-.525.468-1.012 0-.999-.972-1.907-2.65-1.907-1.247 0-2.435.537-2.435 1.715 0 .435.216 1.292 1.043 1.447zm-1.331 8.704c0-.115.036-.23.168-.243.156-.025.228-.038.228-.115 0-.076-.264-.358-.3-.435a2.431 2.431 0 01-.323-1.242c0-1.844 1.619-2.51 3.07-2.51 2.29 0 3.046 1.588 3.046 2.663 0 .141-.012.371-.096.679-.036.115-.336.64-.336.781 0 .153.18.166.288.166.144 0 .899.013 1.067.013.527 0 1.403 0 1.403-.807 0-.063-.036-.346-.036-.371 0-.051.036-.128.096-.128.108 0 .12.064.276.589.048.167.419 1.421.419 1.498 0 .025 0 .063-.06.103-.048.038-.804.038-.936.038-.888 0-5.229-.025-6.213-.025-.636 0-1.354 0-1.379.729 0 .218-.012.448-.216.448-.036 0-.168-.038-.168-.205v-1.626zm1.331-.307c.264.051 1.523.051 2.279.051.671 0 .947 0 1.295-.294.252-.205.468-.525.468-1.012 0-.999-.972-1.907-2.65-1.907-1.247 0-2.435.537-2.435 1.715 0 .435.216 1.293 1.043 1.447zm-1.331 4.031c0-.115 0-.294.192-.294.18 0 .191.153.203.396 0 .167.072.397.336.513.204.102 1.955.102 2.387.102.336 0 1.728-.013 1.896-.076.144-.064.203-.205.203-.358 0-.064-.036-.384-.036-.397 0-.051.024-.115.108-.115s.108.064.276.641c.048.166.323.96.323 1.063 0 .128-.107.128-.228.128-.54 0-3.238-.013-3.851-.013-.875 0-1.379 0-1.415.589-.012.256-.023.409-.203.409-.192 0-.192-.217-.192-.307v-2.281zm8.275.411c.384 0 .695.333.684.742 0 .41-.3.743-.684.743s-.695-.333-.695-.743c0-.422.311-.742.695-.742zm-8.275 7.885c0-.23.168-.23.192-.23.167 0 .191.166.191.23.036.333.048.461.252.614.191.128.396.128 2.326.128 1.14 0 1.584 0 1.968-.269.407-.281.443-.691.443-.845 0-.41-.204-.947-.54-1.306-.371-.385-.552-.385-1.931-.385-.312 0-1.775 0-1.991.039-.384.076-.516.294-.527.627-.012.128-.012.346-.191.346-.024 0-.192 0-.192-.256v-2.382c0-.256.168-.256.18-.256.204 0 .204.154.204.346 0 .32.191.513.359.576.276.103 1.871.103 2.291.103 1.943 0 2.243-.013 2.243-.576 0-.051-.048-.32-.048-.371s.012-.128.107-.128.108.051.204.512c.048.205.348 1.28.348 1.319 0 .128-.048.128-.527.128-.168 0-.264 0-.264.089 0 .09.312.448.359.525.312.512.432.96.432 1.434 0 .922-.468 1.306-.804 1.434-.468.18-.672.18-2.53.18-.36 0-1.595 0-1.812.09-.084.025-.348.153-.359.576 0 .204-.012.358-.204.358-.18 0-.18-.154-.18-.257v-2.393zm5.661 8.781c-.036.09-.288.5-.288.602 0 .064.132.243.252.41.191.243.264.537.264.768 0 .448-.348.743-.659.743-.265 0-.564-.218-.564-.525 0-.333.229-.474.42-.602.108-.063.12-.128.12-.179 0-.103-.036-.27-.191-.27-.061 0-.349.18-.42.218a1.744 1.744 0 01-.792.192c-1.14 0-2.087-1.152-2.087-2.458 0-.115.096-.717.096-.857 0-.308-.335-.603-.479-.603-.144 0-.216.115-.252.205-.06.167-.084.243-.119 1.421-.024.832-.072 2.944-1.428 2.944-1.499 0-1.499-2.944-1.499-3.315 0-.973.107-2.791 1.079-2.791.624 0 .899.704 1.008 1.114.023.076.072.243.132.243s.156-.333.191-.397c.12-.204.265-.332.504-.332.42 0 .66.332.863.78.072.154.133.295.181.295s.191-.192.239-.269c.145-.205.696-.858 1.571-.858 1.163 0 2.087 1.178 2.087 2.433-.002.55-.17.947-.229 1.088zm-7.305-1.114c0 .807.204 2.048 1.008 2.048.576 0 .828-.474.828-2.573 0-.371 0-.589-.192-.922-.036-.063-.264-.447-.743-.447-.865 0-.901 1.561-.901 1.894zm3.683.026c0 1.357 1.583 1.357 1.799 1.357.743 0 1.728-.308 1.728-1.357 0-.769-.576-1.345-1.764-1.345-.9 0-1.763.372-1.763 1.345zm-2.039 17.345c0-.141.036-.308.192-.308.191 0 .191.205.191.513 0 .243.216.524.527.524.265 0 1.092-.333 1.403-.474.672-.281.756-.319.756-.742v-2.778c0-.474-.12-.524-.659-.729-.324-.115-1.284-.461-1.56-.461-.468 0-.468.41-.468.717 0 .153-.024.295-.191.295-.192 0-.192-.192-.192-.295v-2.458c0-.103.012-.269.18-.269.204 0 .204.141.204.436 0 .346.072.652.479.973.372.294 3.19 1.241 4.042 1.523.479.166 2.83.985 3.37 1.152.42.128.695.204.695 1.113 0 .154-.084.23-.191.282-.18.115-.804.332-1.079.422-2.603.896-2.891.974-5.109 1.779-2.039.73-2.207.819-2.207 1.55 0 .166-.072.294-.204.294-.18 0-.18-.205-.18-.294v-2.765zm3.465-.601c0 .141.061.32.192.32.252 0 3.586-1.217 4.233-1.447.204-.076.312-.103.312-.191 0-.077-.035-.09-.432-.23-.972-.358-4.018-1.357-4.126-1.357-.18 0-.18.192-.18.358v2.547zm-3.465 9.612c0-.23.168-.23.192-.23.167 0 .191.166.191.23.036.333.048.461.252.614.191.128.396.128 2.326.128 1.14 0 1.584 0 1.968-.269.407-.281.443-.691.443-.845 0-.41-.204-.947-.54-1.306-.371-.385-.552-.385-1.931-.385-.312 0-1.775 0-1.991.039-.384.076-.516.294-.527.627-.012.128-.012.346-.191.346-.024 0-.192 0-.192-.256v-2.382c0-.256.168-.256.18-.256.204 0 .204.154.204.346 0 .32.191.513.359.576.276.103 1.871.103 2.291.103 1.943 0 2.243-.013 2.243-.576 0-.051-.048-.32-.048-.371s.012-.128.107-.128.108.051.204.512c.048.205.348 1.28.348 1.319 0 .128-.048.128-.527.128-.168 0-.264 0-.264.089 0 .09.312.448.359.525.312.512.432.96.432 1.434 0 .922-.468 1.306-.804 1.434-.468.18-.672.18-2.53.18-.36 0-1.595 0-1.812.09-.084.025-.348.153-.359.576 0 .204-.012.358-.204.358-.18 0-.18-.154-.18-.257v-2.393zm0 8.397c0-.23.168-.23.192-.23.167 0 .191.166.191.23.036.333.048.461.252.614.191.128.396.128 2.326.128 1.14 0 1.584 0 1.968-.269.407-.281.443-.691.443-.845 0-.41-.204-.947-.54-1.306-.371-.385-.552-.385-1.931-.385-.312 0-1.775 0-1.991.039-.384.076-.516.294-.527.627-.012.128-.012.346-.191.346-.024 0-.192 0-.192-.256v-2.382c0-.256.168-.256.18-.256.204 0 .204.154.204.346 0 .32.191.513.359.576.276.103 1.871.103 2.291.103 1.943 0 2.243-.013 2.243-.576 0-.051-.048-.32-.048-.371s.012-.128.107-.128.108.051.204.512c.048.205.348 1.28.348 1.319 0 .128-.048.128-.527.128-.168 0-.264 0-.264.089 0 .09.312.448.359.525.312.512.432.96.432 1.434 0 .922-.468 1.306-.804 1.434-.468.18-.672.18-2.53.18-.36 0-1.595 0-1.812.09-.084.025-.348.153-.359.576 0 .204-.012.358-.204.358-.18 0-.18-.154-.18-.257v-2.393zm0 4.697c0-.115 0-.294.192-.294.18 0 .191.153.203.396 0 .167.072.397.336.513.204.103 1.955.103 2.387.103.336 0 1.728-.014 1.896-.077.144-.064.203-.205.203-.358 0-.064-.036-.385-.036-.397 0-.051.024-.115.108-.115s.108.064.276.641c.048.166.323.96.323 1.063 0 .128-.107.128-.228.128-.54 0-3.238-.013-3.851-.013-.875 0-1.379 0-1.415.589-.012.256-.023.409-.203.409-.192 0-.192-.217-.192-.307v-2.281zm8.275.41c.384 0 .695.333.684.742 0 .41-.3.743-.684.743s-.695-.333-.695-.743c0-.422.311-.742.695-.742zm-2.614 10.306c0 .128 0 .319-.192.319-.18 0-.191-.166-.204-.307-.012-.154-.132-.513-.875-.845-.456-.205-2.734-1.14-3.238-1.345-1.308-.551-1.379-.602-1.379-.769 0-.153.252-.281.312-.319.527-.27 1.451-.704 2.171-1.05 2.71-1.28 2.926-1.383 3.01-1.831.036-.23.061-.333.204-.333.192 0 .192.192.192.333v2.062c0 .128 0 .32-.192.32-.191 0-.191-.192-.191-.308 0-.397-.276-.461-.372-.461s-.168.038-.216.051c-.24.115-2.639 1.28-3.13 1.511-.24.115-.36.167-.36.256 0 .064.096.129.144.154.072.038 2.111.896 2.315.985.888.371.995.41 1.151.41.468 0 .468-.346.468-.615 0-.102 0-.294.191-.294.192 0 .192.192.192.308v1.768zm-2.519 3.812c0-.166 0-.409-.384-.409-1.464 0-2.471 1.063-2.471 2.125 0 .589.323 1.152.672 1.549.06.077.467.372.467.487 0 .063-.06.128-.155.128-.264 0-1.499-.896-1.499-2.586 0-1.793 1.331-2.804 3.07-2.804 1.99 0 3.046 1.318 3.046 2.714 0 1.984-1.967 2.548-2.471 2.548-.216 0-.275-.129-.275-.385v-3.367zm.396 2.357c0 .281.06.422.348.422.456 0 1.68-.461 1.68-1.536 0-1.19-1.5-1.562-1.764-1.562s-.264.218-.264.333v2.343zm-3.538 3.955c0-.09 0-.333.192-.333.191 0 .191.128.191.486 0 .153.012.423.264.589.168.115.313.141 1.991.141.384 0 2.135 0 2.339-.076.132-.039.228-.192.228-.397 0-.089-.107-.524-.107-.614 0-.077.06-.128.119-.128.097 0 .108.064.276.627.048.18.396 1.345.396 1.408 0 .039-.012.052-.036.064h-.527c-.636 0-.708 0-.708.128 0 .064.024.09.24.269.132.103 1.031.871 1.031 1.806 0 .474-.275.755-.684.755a.638.638 0 01-.636-.64c0-.27.132-.397.252-.5.072-.076.204-.191.204-.371 0-.319-.36-.845-.779-1.088-.517-.308-.792-.358-2.567-.358-1.091 0-1.295.038-1.295.935 0 .103-.036.269-.191.269-.192 0-.192-.23-.192-.333v-2.639zm5.661 9.676c-.036.103-.061.153-.061.243 0 .166.072.281.168.371.084.09.12.128.12.18 0 .076-.06.103-.156.141-.275.115-1.583.691-1.715.691-.06 0-.12-.025-.12-.115 0-.128.049-.153.48-.461.228-.153 1.188-1.075 1.188-1.895 0-.474-.313-1.102-.972-1.102-.492 0-.768.346-1.188 1.639-.492 1.485-.936 2.241-1.896 2.241-.803 0-1.738-.603-1.738-1.959 0-.346.035-.486.191-1.037a.857.857 0 00.036-.243c0-.18-.048-.308-.072-.384-.096-.244-.155-.397-.155-.461 0-.115.096-.154.252-.218.275-.115 1.475-.614 1.631-.614.072 0 .204.025.204.153 0 .153-.145.243-.48.448-.911.563-1.283 1.767-1.283 2.355 0 .627.504 1.113 1.092 1.113.552 0 .827-.371 1.308-1.856.443-1.344.863-2.022 1.786-2.022.912 0 1.607.717 1.607 1.69 0 .436-.059.616-.227 1.102zm-1.404 8.768c-.408.014-2.363-.013-2.807-.013-.563 0-1.067 0-1.067.513 0 .128.072.333.132.409.012.013.072.09.072.103 0 .025-.013.064-.072.064-.216 0-.743-.525-.743-1.076 0-.409.287-.742.539-.845.084-.025.192-.063.192-.179 0-.077-.084-.192-.168-.308a2.99 2.99 0 01-.563-1.689c0-.769.384-1.626 1.271-1.626 1.428 0 2.039 2.15 2.243 2.893.216.769.24.846.863.846 1.031 0 1.416-.615 1.416-1.204 0-.845-.564-.985-.732-1.023-.359-.09-.791-.18-.791-.679 0-.333.252-.602.588-.602.707 0 1.259 1.241 1.259 2.316-.001 1.012-.432 2.075-1.632 2.1zm-3.214-.998c.145.063.192.09 1.607.09.24 0 .444 0 .444-.27 0-.461-.804-2.381-1.932-2.381-.323 0-.875.218-.875 1.101.001.436.36 1.28.756 1.46zm-1.043 4.159c0-.09 0-.333.192-.333.191 0 .191.128.191.486 0 .153.012.423.264.589.168.115.313.141 1.991.141.384 0 2.135 0 2.339-.076.132-.039.228-.192.228-.397 0-.089-.107-.524-.107-.614 0-.077.06-.128.119-.128.097 0 .108.064.276.627.048.18.396 1.345.396 1.408 0 .039-.012.052-.036.064h-.527c-.636 0-.708 0-.708.128 0 .064.024.09.24.269.132.103 1.031.871 1.031 1.806 0 .474-.275.755-.684.755a.638.638 0 01-.636-.64c0-.27.132-.397.252-.5.072-.076.204-.191.204-.371 0-.319-.36-.845-.779-1.088-.517-.308-.792-.358-2.567-.358-1.091 0-1.295.038-1.295.935 0 .103-.036.269-.191.269-.192 0-.192-.23-.192-.333v-2.639zm5.661 9.229c0 .243-.12.269-.18.269-.181 0-.204-.217-.204-.346-.024-.512-.3-.575-.42-.575-.264 0-2.614 1.151-3.106 1.369-.156.064-.228.154-.228.218 0 .077.144.153.228.205.216.115 1.919.832 2.435 1.05.384.166.432.179.6.179.492 0 .492-.652.492-.896 0-.128.071-.23.191-.23.192 0 .192.166.192.307v2.228c0 .09 0 .282-.192.282-.191 0-.191-.18-.191-.32 0-.614-.696-.935-.899-1.024-.192-.089-3.778-1.612-3.874-1.664-1.476-.602-2.471-1.012-2.471-2.42 0-.819.527-.883.672-.883.348 0 .611.269.611.589 0 .346-.18.524-.336.679-.12.115-.168.204-.168.358 0 .652 1.031.985 1.331.985.12 0 .265-.038.384-.076.349-.129 3.61-1.652 3.91-1.806.288-.141.743-.436.815-.832.084-.409.084-.486.229-.486.18 0 .18.205.18.308v2.532z"/></g></g></g></svg>