<svg version="1.1" baseProfile="tiny" id="レイヤー_1" xmlns="http://www.w3.org/2000/svg" x="0" y="0" width="200.526" height="22.851" viewBox="0 0 200.526 22.851" xml:space="preserve"><metadata><?xpacket begin="﻿" id="W5M0MpCehiHzreSzNTczkc9d"?><x:xmpmeta xmlns:x="adobe:ns:meta/" x:xmptk="Adobe XMP Core 5.3-c011 66.145661, 2012/02/06-14:56:27"><rdf:RDF xmlns:rdf="http://www.w3.org/1999/02/22-rdf-syntax-ns#"><rdf:Description xmlns:dc="http://purl.org/dc/elements/1.1/"><dc:format>image/svg+xml</dc:format><dc:title><rdf:Alt><rdf:li xml:lang="x-default">Web</rdf:li></rdf:Alt></dc:title></rdf:Description><rdf:Description xmlns:xmp="http://ns.adobe.com/xap/1.0/" xmlns:xmpGImg="http://ns.adobe.com/xap/1.0/g/img/"><xmp:CreatorTool>Adobe Illustrator CS6 (Windows)</xmp:CreatorTool><xmp:CreateDate>2017-07-11T15:55:54+09:00</xmp:CreateDate><xmp:ModifyDate>2017-07-11T15:55:55+09:00</xmp:ModifyDate><xmp:MetadataDate>2017-07-11T15:55:55+09:00</xmp:MetadataDate><xmp:Thumbnails><rdf:Alt><rdf:li rdf:parseType="Resource"><xmpGImg:width>256</xmpGImg:width><xmpGImg:height>32</xmpGImg:height><xmpGImg:format>JPEG</xmpGImg:format><xmpGImg:image>/9j/4AAQSkZJRgABAgEASABIAAD/7QAsUGhvdG9zaG9wIDMuMAA4QklNA+0AAAAAABAASAAAAAEA AQBIAAAAAQAB/+4ADkFkb2JlAGTAAAAAAf/bAIQABgQEBAUEBgUFBgkGBQYJCwgGBggLDAoKCwoK DBAMDAwMDAwQDA4PEA8ODBMTFBQTExwbGxscHx8fHx8fHx8fHwEHBwcNDA0YEBAYGhURFRofHx8f Hx8fHx8fHx8fHx8fHx8fHx8fHx8fHx8fHx8fHx8fHx8fHx8fHx8fHx8fHx8f/8AAEQgAIAEAAwER AAIRAQMRAf/EAaIAAAAHAQEBAQEAAAAAAAAAAAQFAwIGAQAHCAkKCwEAAgIDAQEBAQEAAAAAAAAA AQACAwQFBgcICQoLEAACAQMDAgQCBgcDBAIGAnMBAgMRBAAFIRIxQVEGE2EicYEUMpGhBxWxQiPB UtHhMxZi8CRygvElQzRTkqKyY3PCNUQnk6OzNhdUZHTD0uIIJoMJChgZhJRFRqS0VtNVKBry4/PE 1OT0ZXWFlaW1xdXl9WZ2hpamtsbW5vY3R1dnd4eXp7fH1+f3OEhYaHiImKi4yNjo+Ck5SVlpeYmZ qbnJ2en5KjpKWmp6ipqqusra6voRAAICAQIDBQUEBQYECAMDbQEAAhEDBCESMUEFURNhIgZxgZEy obHwFMHR4SNCFVJicvEzJDRDghaSUyWiY7LCB3PSNeJEgxdUkwgJChgZJjZFGidkdFU38qOzwygp 0+PzhJSktMTU5PRldYWVpbXF1eX1RlZmdoaWprbG1ub2R1dnd4eXp7fH1+f3OEhYaHiImKi4yNjo +DlJWWl5iZmpucnZ6fkqOkpaanqKmqq6ytrq+v/aAAwDAQACEQMRAD8A9AWX5p/lteWjXcPmfTBb xsUkeW6hhKspIIZZGRl6bVG+Cwy4D3JNqf8AzkD+TmnV9fzPayEdrZZbqvTp6CSDvg4gkY5dyc+Q fzM8n+fLCa88u3nrfV3KXNtIPTnj3IVmjO/FwKqf4ggEG0SiRzZThYuxVp3SNGd2CIgLMzGgAG5J JxV4r+TX5pedPOfn/wAzwRKuoeQ7S4m/R+qSIsUkRMn7mJCgX1FZKtRl5KtKt2MImy2zgAB3va8m 1OxVJvN3mC68v6JNqtvpN1rP1f4prSy9P1hGASzqsjJz40+yvxeAwEpAtK/y6/NHyj+YOmS33l+d y1sVW8s7hRHcQl6leagstG4mhViPfEG0ygY82W4WLsVdirsVdirz1r2Tzv57vdHRj/hPyq8a6oo2 W+1RgJFt3I+1DbLRpE/acgNVRvHmWfIeZehZJgx3UfOttYanNYTaTq8ph4/6VbWE9xA/JQ3wSQhw eu/vgtkIvG/zO8/3P/K4PIRsY9esLN2dNRt0t7y2N3H6ilY1gorThd+YCnY/dAndsjH0l6O/5p6k fM9jplv5N12TR7iq3OsvZyRLDIzBU/dOodo+7ttTsDvkrYcG3Nn+SYOxV2KuxV2KuPTx9sVfP/5g /m9o/wCY35e/ofyUb4XWr3cFrqUzWd0Tp9uriWSSZrdJlNQgXijMSCcgZWG6MOE7vQ/K3m/yzoXl +x0mfVNW1aa0jEcmoXun6i88p7sx+r/QK1NOpJ3wgsCCSq2/50/l5P5stvKo1CSHV7tQbeO5tri2 Vnc0SKs6R/G/7O1D0rWgw8QXgNWzjCwefC8l8keebHSWanlHzTJImnIfs2OqAGUwIe0N0vJkT9lw QKA5HkWfMebzv8rfIfkTWPzZ/NCPU9HtNS/R+pQSWi3KJNHH9Yad5lWNhw+2u+3tkQBZZzkREPX9 TsvJnkzy9qGtwaRY2FtpdtJcsLa3hh2hTkFXgo3PEAe9MnyaxZLzj/nFfyYdO8m3Hmy+iUav5ome 450oVtVYiNQOwd+T7dQV8MjAM8st6e25NqdirwT83fO/mbz0dU8hflwhngtYpP8AFGvAlbaNEQlr NJVDcnkpxbj1+z05EQkb2DdCIG5Zd/zjcbdvyc0GWDT49PWRZuaxkt6zxzNE078hXlIY60qdum1B hhyY5fqem5JrdirsVY95X/L/AMpeVr7Vb7QtPSzudZmFxfspYhmFSFUEkIoZmbiu1TgApkZE82Me Y/zJu9V8wt5I8gtHd6+P+OvrJX1bPSodwzuRtJP2jj6cvtdCMBPQJEaFlnWh6Pa6PpVvpts0kkUA NZpmLyyO7F5JZHP2nkdi7HuTkmJNo7FDsVdirzL/AJxzDT/lbaaxNQ3uu3l/qV84PLlNNdyKST48 Y1yMeTZk5vSpmkWF2iQSShSY4yeIZgNhyoaVPfJNbC/8bed/rJtf8FyfWgglMH6T0/1PTJ4h+POv GopXBZZ8I73jfmjzd5n84fmHZeZdN8rTRxflhLcN5itprq3VtyS4iatGKrA5FK1yBNn3NgiAKvm9 L038z/Pvmjygut+U/Jjv9fhkOmXF3fWiRhwzRh5I+QfirKTx2r4jrkrJYGAB3LMPI195xvPL0L+b 9Ni0zXEJjuIreVZopOIH71eJbhy/kqaeOEMZVezIMLFIPP3nKx8meUdR8zX0MlxbaeqFoIac3aWR YUA5EAfHIKnsMBNMoxs0s/L/AM62HnbylY+ZbGCW2t70PSCcAOrRSNEwqNmHJDQj+zEG1lGjTIsL F2KvAv8AnGLzX5R0ryNqenX2r2On3MWsXTfVrieKBhGyxhGCuy1X4SKjwyEDs3ZQSXr/APj/AMif 9TJpf/Sbb/8ANeSsNXCe55BqOsaHrX/OWHlibTLy21GCDQpI3lt5EmRJV+uPx5IWHIK6n6cj/E2g VAvfcm0vNP8AnIqJk/Ky/wBVhoL3RLmy1KxkO3CaC6jHIEd+DsMjLk2Y+bJ/LnkDQfL/AJk8w+YN PVxe+ZJYpr5WIKq0SsP3e1QHZy7VPU/LCAxMiRTz/wDNG4u/zF8zwfldochGl20kV5521GM/DDAj B4rQHvLIwrTtQeDUid9mcPSLevWVla2NnBZWkSw2lrGkNvCmypHGoVFHsFFMm1K2KpR5n8vtr+m/ o1tQudPtJW/002TCOaaKhrD6pBaNWNORSjU2qK4CEg0h/wBDaD5W8nXllpFlFYaZZWkzrbwqFFFj JZiT9pjTdmNT3OPJbJLFv+cc3R/yX8slCGAhnWo8VupQR9BGCPJlk+ovSMkwdirBPze/Mq8/L3Q7 PXE0eTVrBroQaj6b+mYI3RuMnKj9XAXcU7VBIyMjTOEeJ5bb+fPzQ/O65l0vyjC/lPyUh9LU9cf4 7mQEfFFGy8RyI6pGdv2noaGNktnCIc9y9s8jeQ/LfknQotG0K29KFfinuHoZ55O8szgDkx+4dAAN smBTVKRJ3ZDhYuxV2KuxV5l+RaHRtJ1vyNMOFz5U1O4hhjOxayvHa6tZqeEgkb7sjHubMm+/e9MZ lVSzEKqipJ2AAyTW8Y8saPb+cPzS1P8ANbUj6XlrRIPqHliaUlEmS35Ge9qSP3IdpOBOxrX9nIDc 22k0OFKvy0hk1D8uvzS86GMxweaZ9VubAMCC1rFDKI23/wAp2X6MRyKZcwEV+Vvlu98zf8456B+j rqTTfMVnFetoupWzmJ4poryYKrEH4o5fTCyK1VI7VAogWFmakzH8i/zB1fzx5FXUtZt/q+r2N1Lp 98QvprJLCqN6ip+zUSAMP5gflhibDDJGi9CyTBTuba2ureS3uYknt5VKSwyKHRlPUMrVBGKutra2 tbeO3tokgt4lCRQxqERVHQKq0AGKqmKuxV4Z/wA4nWenXn5cX17LaQtPcavctI7IrN/dxEKWIrtX bIQ5N2bm9p/RWl/8scH/ACLT+mTabeK63aWdt/zlr5ZFtDHCJNAkeURqqcn/ANMXk3ECp4qB8gMh /E3D6C90ybS8y/PZP0zouj+RYDzvPNmpW8DxDdls7SRbq6m/1Y1iWvzyMu5sx7b9z0e8t2ubSe3W aS2aaNoxcQkCWMsKc0LBgGXqKg5JrQHlrytoXlrTRp2jWwt7cu0srEs8ssrmryzSuWeR2PVmJOAB JNprhQ7FXYqhtU0211TTLvTbsFrS+gktrhVYoxjmQo4DLQqeLdRioKS/l35KtvJPlCx8s2t1JeW9 gZjFPKqq5E07z0IXbb1KYAKZSlZtkeFi7FVs0MM0TwzIssUgKyRuAysp2IIOxBxVSsrGxsLZLWxt 4rW1j2jggRY41qa/CqgAb4qr4q7FXYq7FXYqxfX/ACpdN5jsvNWhOkOtW6fVL+GQlYb6xLcjDIQG 4yRt8cT02NVPwtsCGQO1Fkd3aW15bS2t1Gs1tOpjmhcVV0YUZWHcEdRhYsN82eSNb82KdEvr6PSv Jq0SfT9O5G5vIl+zFLMyxrbxbAGONST/AD02wEWzEq96H8//AJZX+s+Vho/lTWpvLXo231KG0gp9 Re3oVMUsNCRVSRyQ18a4CFjKjunP5a+S4/JPkjS/LCXJvP0ejh7krw5yTSvNIQtTRechoK9MIFBE pWbZIkccY4ooQEkkKABUmpO2FiuxV2KuxV2KtMCVIU0YjY9aHFXkn5Vf84+6P5Q0Caz1a5l1DUbi 4aaS5tLm8s4+HEKicIZYwaUJqRXfIiNNk8llmn/KtfKf++73/uJ6j/2UYaY8RYra/kjbad+cFh56 0q7MFhb2bwXdjM89zNLO8ckXMTTO5VeDptX9n3wcO9svE9NPUsk1sX0HyrdjzHe+atdeObWbhDaa fBES0NlYq3IRRkhS0kpo8z03NFHwruAGRO1P/9k=</xmpGImg:image></rdf:li></rdf:Alt></xmp:Thumbnails></rdf:Description><rdf:Description xmlns:xmpMM="http://ns.adobe.com/xap/1.0/mm/" xmlns:stRef="http://ns.adobe.com/xap/1.0/sType/ResourceRef#" xmlns:stEvt="http://ns.adobe.com/xap/1.0/sType/ResourceEvent#"><xmpMM:RenditionClass>proof:pdf</xmpMM:RenditionClass><xmpMM:OriginalDocumentID>uuid:65E6390686CF11DBA6E2D887CEACB407</xmpMM:OriginalDocumentID><xmpMM:DocumentID>xmp.did:8B07AA7AFA65E711A588CAE2881F51E6</xmpMM:DocumentID><xmpMM:InstanceID>xmp.iid:8B07AA7AFA65E711A588CAE2881F51E6</xmpMM:InstanceID><xmpMM:DerivedFrom rdf:parseType="Resource"><stRef:instanceID>uuid:c5b5eddb-66da-6741-a40d-cc810f9d042d</stRef:instanceID><stRef:documentID>xmp.did:FB05051EC465E111835FF2FC000FBA2B</stRef:documentID><stRef:originalDocumentID>uuid:65E6390686CF11DBA6E2D887CEACB407</stRef:originalDocumentID><stRef:renditionClass>proof:pdf</stRef:renditionClass></xmpMM:DerivedFrom><xmpMM:History><rdf:Seq><rdf:li rdf:parseType="Resource"><stEvt:action>saved</stEvt:action><stEvt:instanceID>xmp.iid:8B07AA7AFA65E711A588CAE2881F51E6</stEvt:instanceID><stEvt:when>2017-07-11T15:55:55+09:00</stEvt:when><stEvt:softwareAgent>Adobe Illustrator CS6 (Windows)</stEvt:softwareAgent><stEvt:changed>/</stEvt:changed></rdf:li></rdf:Seq></xmpMM:History></rdf:Description><rdf:Description xmlns:illustrator="http://ns.adobe.com/illustrator/1.0/"><illustrator:StartupProfile>Web</illustrator:StartupProfile></rdf:Description><rdf:Description xmlns:xmpTPg="http://ns.adobe.com/xap/1.0/t/pg/" xmlns:stDim="http://ns.adobe.com/xap/1.0/sType/Dimensions#" xmlns:xmpG="http://ns.adobe.com/xap/1.0/g/"><xmpTPg:NPages>1</xmpTPg:NPages><xmpTPg:HasVisibleTransparency>False</xmpTPg:HasVisibleTransparency><xmpTPg:HasVisibleOverprint>False</xmpTPg:HasVisibleOverprint><xmpTPg:MaxPageSize rdf:parseType="Resource"><stDim:w>200.526367</stDim:w><stDim:h>22.850586</stDim:h><stDim:unit>Pixels</stDim:unit></xmpTPg:MaxPageSize><xmpTPg:PlateNames><rdf:Seq><rdf:li>Cyan</rdf:li><rdf:li>Magenta</rdf:li><rdf:li>Yellow</rdf:li><rdf:li>Black</rdf:li></rdf:Seq></xmpTPg:PlateNames><xmpTPg:SwatchGroups><rdf:Seq><rdf:li rdf:parseType="Resource"><xmpG:groupName>初期設定のスウォッチグループ</xmpG:groupName><xmpG:groupType>0</xmpG:groupType><xmpG:Colorants><rdf:Seq><rdf:li rdf:parseType="Resource"><xmpG:swatchName>ホワイト</xmpG:swatchName><xmpG:mode>RGB</xmpG:mode><xmpG:type>PROCESS</xmpG:type><xmpG:red>255</xmpG:red><xmpG:green>255</xmpG:green><xmpG:blue>255</xmpG:blue></rdf:li><rdf:li rdf:parseType="Resource"><xmpG:swatchName>ブラック</xmpG:swatchName><xmpG:mode>RGB</xmpG:mode><xmpG:type>PROCESS</xmpG:type><xmpG:red>0</xmpG:red><xmpG:green>0</xmpG:green><xmpG:blue>0</xmpG:blue></rdf:li><rdf:li rdf:parseType="Resource"><xmpG:swatchName>RGB レッド</xmpG:swatchName><xmpG:mode>RGB</xmpG:mode><xmpG:type>PROCESS</xmpG:type><xmpG:red>255</xmpG:red><xmpG:green>0</xmpG:green><xmpG:blue>0</xmpG:blue></rdf:li><rdf:li rdf:parseType="Resource"><xmpG:swatchName>RGB イエロー</xmpG:swatchName><xmpG:mode>RGB</xmpG:mode><xmpG:type>PROCESS</xmpG:type><xmpG:red>255</xmpG:red><xmpG:green>255</xmpG:green><xmpG:blue>0</xmpG:blue></rdf:li><rdf:li rdf:parseType="Resource"><xmpG:swatchName>RGB グリーン</xmpG:swatchName><xmpG:mode>RGB</xmpG:mode><xmpG:type>PROCESS</xmpG:type><xmpG:red>0</xmpG:red><xmpG:green>255</xmpG:green><xmpG:blue>0</xmpG:blue></rdf:li><rdf:li rdf:parseType="Resource"><xmpG:swatchName>RGB シアン</xmpG:swatchName><xmpG:mode>RGB</xmpG:mode><xmpG:type>PROCESS</xmpG:type><xmpG:red>0</xmpG:red><xmpG:green>255</xmpG:green><xmpG:blue>255</xmpG:blue></rdf:li><rdf:li rdf:parseType="Resource"><xmpG:swatchName>RGB ブルー</xmpG:swatchName><xmpG:mode>RGB</xmpG:mode><xmpG:type>PROCESS</xmpG:type><xmpG:red>0</xmpG:red><xmpG:green>0</xmpG:green><xmpG:blue>255</xmpG:blue></rdf:li><rdf:li rdf:parseType="Resource"><xmpG:swatchName>RGB マゼンタ</xmpG:swatchName><xmpG:mode>RGB</xmpG:mode><xmpG:type>PROCESS</xmpG:type><xmpG:red>255</xmpG:red><xmpG:green>0</xmpG:green><xmpG:blue>255</xmpG:blue></rdf:li><rdf:li rdf:parseType="Resource"><xmpG:swatchName>R=193 G=39 B=45</xmpG:swatchName><xmpG:mode>RGB</xmpG:mode><xmpG:type>PROCESS</xmpG:type><xmpG:red>193</xmpG:red><xmpG:green>39</xmpG:green><xmpG:blue>45</xmpG:blue></rdf:li><rdf:li rdf:parseType="Resource"><xmpG:swatchName>R=237 G=28 B=36</xmpG:swatchName><xmpG:mode>RGB</xmpG:mode><xmpG:type>PROCESS</xmpG:type><xmpG:red>237</xmpG:red><xmpG:green>28</xmpG:green><xmpG:blue>36</xmpG:blue></rdf:li><rdf:li rdf:parseType="Resource"><xmpG:swatchName>R=241 G=90 B=36</xmpG:swatchName><xmpG:mode>RGB</xmpG:mode><xmpG:type>PROCESS</xmpG:type><xmpG:red>241</xmpG:red><xmpG:green>90</xmpG:green><xmpG:blue>36</xmpG:blue></rdf:li><rdf:li rdf:parseType="Resource"><xmpG:swatchName>R=247 G=147 B=30</xmpG:swatchName><xmpG:mode>RGB</xmpG:mode><xmpG:type>PROCESS</xmpG:type><xmpG:red>247</xmpG:red><xmpG:green>147</xmpG:green><xmpG:blue>30</xmpG:blue></rdf:li><rdf:li rdf:parseType="Resource"><xmpG:swatchName>R=251 G=176 B=59</xmpG:swatchName><xmpG:mode>RGB</xmpG:mode><xmpG:type>PROCESS</xmpG:type><xmpG:red>251</xmpG:red><xmpG:green>176</xmpG:green><xmpG:blue>59</xmpG:blue></rdf:li><rdf:li rdf:parseType="Resource"><xmpG:swatchName>R=252 G=238 B=33</xmpG:swatchName><xmpG:mode>RGB</xmpG:mode><xmpG:type>PROCESS</xmpG:type><xmpG:red>252</xmpG:red><xmpG:green>238</xmpG:green><xmpG:blue>33</xmpG:blue></rdf:li><rdf:li rdf:parseType="Resource"><xmpG:swatchName>R=217 G=224 B=33</xmpG:swatchName><xmpG:mode>RGB</xmpG:mode><xmpG:type>PROCESS</xmpG:type><xmpG:red>217</xmpG:red><xmpG:green>224</xmpG:green><xmpG:blue>33</xmpG:blue></rdf:li><rdf:li rdf:parseType="Resource"><xmpG:swatchName>R=140 G=198 B=63</xmpG:swatchName><xmpG:mode>RGB</xmpG:mode><xmpG:type>PROCESS</xmpG:type><xmpG:red>140</xmpG:red><xmpG:green>198</xmpG:green><xmpG:blue>63</xmpG:blue></rdf:li><rdf:li rdf:parseType="Resource"><xmpG:swatchName>R=57 G=181 B=74</xmpG:swatchName><xmpG:mode>RGB</xmpG:mode><xmpG:type>PROCESS</xmpG:type><xmpG:red>57</xmpG:red><xmpG:green>181</xmpG:green><xmpG:blue>74</xmpG:blue></rdf:li><rdf:li rdf:parseType="Resource"><xmpG:swatchName>R=0 G=146 B=69</xmpG:swatchName><xmpG:mode>RGB</xmpG:mode><xmpG:type>PROCESS</xmpG:type><xmpG:red>0</xmpG:red><xmpG:green>146</xmpG:green><xmpG:blue>69</xmpG:blue></rdf:li><rdf:li rdf:parseType="Resource"><xmpG:swatchName>R=0 G=104 B=55</xmpG:swatchName><xmpG:mode>RGB</xmpG:mode><xmpG:type>PROCESS</xmpG:type><xmpG:red>0</xmpG:red><xmpG:green>104</xmpG:green><xmpG:blue>55</xmpG:blue></rdf:li><rdf:li rdf:parseType="Resource"><xmpG:swatchName>R=34 G=181 B=115</xmpG:swatchName><xmpG:mode>RGB</xmpG:mode><xmpG:type>PROCESS</xmpG:type><xmpG:red>34</xmpG:red><xmpG:green>181</xmpG:green><xmpG:blue>115</xmpG:blue></rdf:li><rdf:li rdf:parseType="Resource"><xmpG:swatchName>R=0 G=169 B=157</xmpG:swatchName><xmpG:mode>RGB</xmpG:mode><xmpG:type>PROCESS</xmpG:type><xmpG:red>0</xmpG:red><xmpG:green>169</xmpG:green><xmpG:blue>157</xmpG:blue></rdf:li><rdf:li rdf:parseType="Resource"><xmpG:swatchName>R=41 G=171 B=226</xmpG:swatchName><xmpG:mode>RGB</xmpG:mode><xmpG:type>PROCESS</xmpG:type><xmpG:red>41</xmpG:red><xmpG:green>171</xmpG:green><xmpG:blue>226</xmpG:blue></rdf:li><rdf:li rdf:parseType="Resource"><xmpG:swatchName>R=0 G=113 B=188</xmpG:swatchName><xmpG:mode>RGB</xmpG:mode><xmpG:type>PROCESS</xmpG:type><xmpG:red>0</xmpG:red><xmpG:green>113</xmpG:green><xmpG:blue>188</xmpG:blue></rdf:li><rdf:li rdf:parseType="Resource"><xmpG:swatchName>R=46 G=49 B=146</xmpG:swatchName><xmpG:mode>RGB</xmpG:mode><xmpG:type>PROCESS</xmpG:type><xmpG:red>46</xmpG:red><xmpG:green>49</xmpG:green><xmpG:blue>146</xmpG:blue></rdf:li><rdf:li rdf:parseType="Resource"><xmpG:swatchName>R=27 G=20 B=100</xmpG:swatchName><xmpG:mode>RGB</xmpG:mode><xmpG:type>PROCESS</xmpG:type><xmpG:red>27</xmpG:red><xmpG:green>20</xmpG:green><xmpG:blue>100</xmpG:blue></rdf:li><rdf:li rdf:parseType="Resource"><xmpG:swatchName>R=102 G=45 B=145</xmpG:swatchName><xmpG:mode>RGB</xmpG:mode><xmpG:type>PROCESS</xmpG:type><xmpG:red>102</xmpG:red><xmpG:green>45</xmpG:green><xmpG:blue>145</xmpG:blue></rdf:li><rdf:li rdf:parseType="Resource"><xmpG:swatchName>R=147 G=39 B=143</xmpG:swatchName><xmpG:mode>RGB</xmpG:mode><xmpG:type>PROCESS</xmpG:type><xmpG:red>147</xmpG:red><xmpG:green>39</xmpG:green><xmpG:blue>143</xmpG:blue></rdf:li><rdf:li rdf:parseType="Resource"><xmpG:swatchName>R=158 G=0 B=93</xmpG:swatchName><xmpG:mode>RGB</xmpG:mode><xmpG:type>PROCESS</xmpG:type><xmpG:red>158</xmpG:red><xmpG:green>0</xmpG:green><xmpG:blue>93</xmpG:blue></rdf:li><rdf:li rdf:parseType="Resource"><xmpG:swatchName>R=212 G=20 B=90</xmpG:swatchName><xmpG:mode>RGB</xmpG:mode><xmpG:type>PROCESS</xmpG:type><xmpG:red>212</xmpG:red><xmpG:green>20</xmpG:green><xmpG:blue>90</xmpG:blue></rdf:li><rdf:li rdf:parseType="Resource"><xmpG:swatchName>R=237 G=30 B=121</xmpG:swatchName><xmpG:mode>RGB</xmpG:mode><xmpG:type>PROCESS</xmpG:type><xmpG:red>237</xmpG:red><xmpG:green>30</xmpG:green><xmpG:blue>121</xmpG:blue></rdf:li><rdf:li rdf:parseType="Resource"><xmpG:swatchName>R=199 G=178 B=153</xmpG:swatchName><xmpG:mode>RGB</xmpG:mode><xmpG:type>PROCESS</xmpG:type><xmpG:red>199</xmpG:red><xmpG:green>178</xmpG:green><xmpG:blue>153</xmpG:blue></rdf:li><rdf:li rdf:parseType="Resource"><xmpG:swatchName>R=153 G=134 B=117</xmpG:swatchName><xmpG:mode>RGB</xmpG:mode><xmpG:type>PROCESS</xmpG:type><xmpG:red>153</xmpG:red><xmpG:green>134</xmpG:green><xmpG:blue>117</xmpG:blue></rdf:li><rdf:li rdf:parseType="Resource"><xmpG:swatchName>R=115 G=99 B=87</xmpG:swatchName><xmpG:mode>RGB</xmpG:mode><xmpG:type>PROCESS</xmpG:type><xmpG:red>115</xmpG:red><xmpG:green>99</xmpG:green><xmpG:blue>87</xmpG:blue></rdf:li><rdf:li rdf:parseType="Resource"><xmpG:swatchName>R=83 G=71 B=65</xmpG:swatchName><xmpG:mode>RGB</xmpG:mode><xmpG:type>PROCESS</xmpG:type><xmpG:red>83</xmpG:red><xmpG:green>71</xmpG:green><xmpG:blue>65</xmpG:blue></rdf:li><rdf:li rdf:parseType="Resource"><xmpG:swatchName>R=198 G=156 B=109</xmpG:swatchName><xmpG:mode>RGB</xmpG:mode><xmpG:type>PROCESS</xmpG:type><xmpG:red>198</xmpG:red><xmpG:green>156</xmpG:green><xmpG:blue>109</xmpG:blue></rdf:li><rdf:li rdf:parseType="Resource"><xmpG:swatchName>R=166 G=124 B=82</xmpG:swatchName><xmpG:mode>RGB</xmpG:mode><xmpG:type>PROCESS</xmpG:type><xmpG:red>166</xmpG:red><xmpG:green>124</xmpG:green><xmpG:blue>82</xmpG:blue></rdf:li><rdf:li rdf:parseType="Resource"><xmpG:swatchName>R=140 G=98 B=57</xmpG:swatchName><xmpG:mode>RGB</xmpG:mode><xmpG:type>PROCESS</xmpG:type><xmpG:red>140</xmpG:red><xmpG:green>98</xmpG:green><xmpG:blue>57</xmpG:blue></rdf:li><rdf:li rdf:parseType="Resource"><xmpG:swatchName>R=117 G=76 B=36</xmpG:swatchName><xmpG:mode>RGB</xmpG:mode><xmpG:type>PROCESS</xmpG:type><xmpG:red>117</xmpG:red><xmpG:green>76</xmpG:green><xmpG:blue>36</xmpG:blue></rdf:li><rdf:li rdf:parseType="Resource"><xmpG:swatchName>R=96 G=56 B=19</xmpG:swatchName><xmpG:mode>RGB</xmpG:mode><xmpG:type>PROCESS</xmpG:type><xmpG:red>96</xmpG:red><xmpG:green>56</xmpG:green><xmpG:blue>19</xmpG:blue></rdf:li><rdf:li rdf:parseType="Resource"><xmpG:swatchName>R=66 G=33 B=11</xmpG:swatchName><xmpG:mode>RGB</xmpG:mode><xmpG:type>PROCESS</xmpG:type><xmpG:red>66</xmpG:red><xmpG:green>33</xmpG:green><xmpG:blue>11</xmpG:blue></rdf:li></rdf:Seq></xmpG:Colorants></rdf:li><rdf:li rdf:parseType="Resource"><xmpG:groupName>グレー</xmpG:groupName><xmpG:groupType>1</xmpG:groupType><xmpG:Colorants><rdf:Seq><rdf:li rdf:parseType="Resource"><xmpG:swatchName>R=0 G=0 B=0</xmpG:swatchName><xmpG:mode>RGB</xmpG:mode><xmpG:type>PROCESS</xmpG:type><xmpG:red>0</xmpG:red><xmpG:green>0</xmpG:green><xmpG:blue>0</xmpG:blue></rdf:li><rdf:li rdf:parseType="Resource"><xmpG:swatchName>R=26 G=26 B=26</xmpG:swatchName><xmpG:mode>RGB</xmpG:mode><xmpG:type>PROCESS</xmpG:type><xmpG:red>26</xmpG:red><xmpG:green>26</xmpG:green><xmpG:blue>26</xmpG:blue></rdf:li><rdf:li rdf:parseType="Resource"><xmpG:swatchName>R=51 G=51 B=51</xmpG:swatchName><xmpG:mode>RGB</xmpG:mode><xmpG:type>PROCESS</xmpG:type><xmpG:red>51</xmpG:red><xmpG:green>51</xmpG:green><xmpG:blue>51</xmpG:blue></rdf:li><rdf:li rdf:parseType="Resource"><xmpG:swatchName>R=77 G=77 B=77</xmpG:swatchName><xmpG:mode>RGB</xmpG:mode><xmpG:type>PROCESS</xmpG:type><xmpG:red>77</xmpG:red><xmpG:green>77</xmpG:green><xmpG:blue>77</xmpG:blue></rdf:li><rdf:li rdf:parseType="Resource"><xmpG:swatchName>R=102 G=102 B=102</xmpG:swatchName><xmpG:mode>RGB</xmpG:mode><xmpG:type>PROCESS</xmpG:type><xmpG:red>102</xmpG:red><xmpG:green>102</xmpG:green><xmpG:blue>102</xmpG:blue></rdf:li><rdf:li rdf:parseType="Resource"><xmpG:swatchName>R=128 G=128 B=128</xmpG:swatchName><xmpG:mode>RGB</xmpG:mode><xmpG:type>PROCESS</xmpG:type><xmpG:red>128</xmpG:red><xmpG:green>128</xmpG:green><xmpG:blue>128</xmpG:blue></rdf:li><rdf:li rdf:parseType="Resource"><xmpG:swatchName>R=153 G=153 B=153</xmpG:swatchName><xmpG:mode>RGB</xmpG:mode><xmpG:type>PROCESS</xmpG:type><xmpG:red>153</xmpG:red><xmpG:green>153</xmpG:green><xmpG:blue>153</xmpG:blue></rdf:li><rdf:li rdf:parseType="Resource"><xmpG:swatchName>R=179 G=179 B=179</xmpG:swatchName><xmpG:mode>RGB</xmpG:mode><xmpG:type>PROCESS</xmpG:type><xmpG:red>179</xmpG:red><xmpG:green>179</xmpG:green><xmpG:blue>179</xmpG:blue></rdf:li><rdf:li rdf:parseType="Resource"><xmpG:swatchName>R=204 G=204 B=204</xmpG:swatchName><xmpG:mode>RGB</xmpG:mode><xmpG:type>PROCESS</xmpG:type><xmpG:red>204</xmpG:red><xmpG:green>204</xmpG:green><xmpG:blue>204</xmpG:blue></rdf:li><rdf:li rdf:parseType="Resource"><xmpG:swatchName>R=230 G=230 B=230</xmpG:swatchName><xmpG:mode>RGB</xmpG:mode><xmpG:type>PROCESS</xmpG:type><xmpG:red>230</xmpG:red><xmpG:green>230</xmpG:green><xmpG:blue>230</xmpG:blue></rdf:li><rdf:li rdf:parseType="Resource"><xmpG:swatchName>R=242 G=242 B=242</xmpG:swatchName><xmpG:mode>RGB</xmpG:mode><xmpG:type>PROCESS</xmpG:type><xmpG:red>242</xmpG:red><xmpG:green>242</xmpG:green><xmpG:blue>242</xmpG:blue></rdf:li></rdf:Seq></xmpG:Colorants></rdf:li><rdf:li rdf:parseType="Resource"><xmpG:groupName>Web カラーグループ</xmpG:groupName><xmpG:groupType>1</xmpG:groupType><xmpG:Colorants><rdf:Seq><rdf:li rdf:parseType="Resource"><xmpG:swatchName>R=63 G=169 B=245</xmpG:swatchName><xmpG:mode>RGB</xmpG:mode><xmpG:type>PROCESS</xmpG:type><xmpG:red>63</xmpG:red><xmpG:green>169</xmpG:green><xmpG:blue>245</xmpG:blue></rdf:li><rdf:li rdf:parseType="Resource"><xmpG:swatchName>R=122 G=201 B=67</xmpG:swatchName><xmpG:mode>RGB</xmpG:mode><xmpG:type>PROCESS</xmpG:type><xmpG:red>122</xmpG:red><xmpG:green>201</xmpG:green><xmpG:blue>67</xmpG:blue></rdf:li><rdf:li rdf:parseType="Resource"><xmpG:swatchName>R=255 G=147 B=30</xmpG:swatchName><xmpG:mode>RGB</xmpG:mode><xmpG:type>PROCESS</xmpG:type><xmpG:red>255</xmpG:red><xmpG:green>147</xmpG:green><xmpG:blue>30</xmpG:blue></rdf:li><rdf:li rdf:parseType="Resource"><xmpG:swatchName>R=255 G=29 B=37</xmpG:swatchName><xmpG:mode>RGB</xmpG:mode><xmpG:type>PROCESS</xmpG:type><xmpG:red>255</xmpG:red><xmpG:green>29</xmpG:green><xmpG:blue>37</xmpG:blue></rdf:li><rdf:li rdf:parseType="Resource"><xmpG:swatchName>R=255 G=123 B=172</xmpG:swatchName><xmpG:mode>RGB</xmpG:mode><xmpG:type>PROCESS</xmpG:type><xmpG:red>255</xmpG:red><xmpG:green>123</xmpG:green><xmpG:blue>172</xmpG:blue></rdf:li><rdf:li rdf:parseType="Resource"><xmpG:swatchName>R=189 G=204 B=212</xmpG:swatchName><xmpG:mode>RGB</xmpG:mode><xmpG:type>PROCESS</xmpG:type><xmpG:red>189</xmpG:red><xmpG:green>204</xmpG:green><xmpG:blue>212</xmpG:blue></rdf:li></rdf:Seq></xmpG:Colorants></rdf:li></rdf:Seq></xmpTPg:SwatchGroups></rdf:Description><rdf:Description xmlns:pdf="http://ns.adobe.com/pdf/1.3/"><pdf:Producer>Adobe PDF library 10.01</pdf:Producer></rdf:Description></rdf:RDF></x:xmpmeta><?xpacket end="w"?></metadata><g fill="#210701"><path d="M12.662 6.173c-.364 0-6.969.806-8.658 1.066-1.092.156-1.092.286-1.092 1.872 0 .624.285 3.433.285 4.004 0 .338 0 1.925-.676 1.925-.598 0-1.481-1.431-1.481-2.367 0-.286.025-.39.182-1.169.078-.391.078-.963.078-1.171 0-1.456-.26-3.12-.832-4.134C.416 6.095 0 5.575 0 5.445c0-.182.52-.39.936-.39.391 0 .572.104 1.353.572.182.13.39.26 1.378.26.779 0 8.372-.962 9.048-1.248.156-.052.702-.52.832-.52.338 0 2.548 1.716 2.548 2.262 0 .234-.676 1.04-.779 1.248-.286.624-1.456 3.536-1.717 4.134-.884 1.976-2.912 6.136-6.838 8.632-.39.234-1.014.598-1.17.598-.104 0-.156-.078-.156-.155 0-.104.494-.599.78-.884 1.353-1.379 4.004-4.213 5.616-8.555.729-1.924 1.3-4.316 1.3-4.706-.001-.286-.001-.52-.469-.52zm25.609 2.652c1.014.624 1.118.728 1.118.962 0 .156-.286.884-.312 1.04-.104.468-.156 1.014-.156 4.603 0 .702.025 2.106.078 3.12.025.312.182 1.82.182 2.158 0 .26 0 1.144-.624 1.144-.728 0-1.612-1.118-1.612-1.819 0-.261.26-1.404.286-1.664a49.6 49.6 0 00.26-4.785c0-.936 0-3.666-.676-3.666-.13 0-.233.104-.442.313-2.548 2.443-6.916 4.966-7.384 4.966-.078 0-.13-.052-.13-.155 0-.078.025-.131.078-.183.676-.599 1.404-1.196 1.82-1.56 6.136-5.253 8.164-9.673 8.164-10.401 0-.26-.078-.494-.208-.728-.026-.052-.183-.364-.183-.416 0-.104.131-.208.261-.208.39 0 3.016 1.092 3.016 2.08 0 .26-.13.442-.233.52-.702.572-.807.728-1.769 2.132-.442.624-1.274 1.56-1.769 2.184.001.155.079.259.235.363zM66.898 16.6c-.676.494-2.002 1.481-2.549 2.132-.493.598-.546.65-.936.65-1.404 0-3.328-1.664-3.328-2.704 0-.183.026-1.378.26-1.378.104 0 .676.441.78.494.338.207 1.196.598 1.769.598 1.273 0 8.164-4.603 12.48-8.866.416-.416 1.144-1.145 1.195-1.145.053 0 .13.078.13.13.001.234-3.041 5.096-9.801 10.089zm-2.132-8.555c-.701 0-.962-.416-1.819-1.716-.884-1.326-1.639-1.716-2.366-2.132-.104-.052-.234-.13-.234-.234s.208-.234.572-.234c2.782 0 4.966 1.482 4.966 3.016-.001.78-.443 1.3-1.119 1.3zm40.313 13.245c.192.216 1.176 1.271 1.176 1.416a.16.16 0 01-.168.145c-.239 0-5.784-3.984-5.784-11.425S105.848 0 106.087 0c.12 0 .168.096.168.144 0 .144-.983 1.2-1.176 1.416a15.721 15.721 0 00-3.456 9.865c0 5.232 2.496 8.665 3.456 9.865zm10.847-5.328c-1.319 1.992-2.28 2.783-3.624 3.6-.072.049-.384.24-.432.24-.024 0-.048-.023-.048-.072 0-.048.575-.695.672-.816 1.464-1.871 2.664-4.104 2.76-6.216.024-.456.024-.624.24-.624.072 0 1.68.695 1.992.816.264.119.408.168.408.336 0 .191-.744.72-.84.84-.072.095-.936 1.607-1.128 1.896zm13.273-6.001c.744 0 1.032-.024 1.248-.24.192-.216.84-1.464 1.104-1.464.144 0 2.424 1.608 2.424 1.992 0 .336-.456.336-1.296.336h-5.257c-.191 0-.432 0-.6.168-.168.144-.168.288-.168 1.752 0 1.129.144 6.169.144 7.201 0 .84 0 1.416-.96 2.232-.528.432-.984.432-1.152.432-.239 0-.336-.096-.672-.504-.432-.504-.6-.624-2.208-1.465-.264-.144-.288-.144-.288-.215 0-.097.096-.097.145-.097.264 0 1.487.097 1.728.097.288 0 1.008 0 1.248-.121.288-.144.288-.432.288-2.976 0-1.824-.048-5.857-.144-6.193-.097-.312-.456-.312-.624-.312h-1.44c-.6 0-.696.24-.72.672-.192 6.289-1.921 9.433-6.841 11.065-.192.071-1.128.336-1.225.336-.071 0-.096-.048-.096-.097.288-.144.672-.336.84-.432 4.801-2.736 5.545-6.385 5.545-10.513 0-.72 0-1.032-.672-1.032h-3.001c-2.111 0-2.808.048-3.048.072-.072 0-.432.048-.504.048s-.145-.048-.216-.144l-.456-.552c-.097-.12-.097-.12-.097-.168 0-.048.024-.048.072-.048.168 0 .912.072 1.056.072 1.177.048 2.185.096 3.313.096h4.776c.721 0 .721-.24.721-2.28 0-2.064 0-2.064-.072-2.232-.12-.264-.384-.264-.624-.264h-2.929c-2.112 0-2.808.048-3.048.048-.072.024-.432.072-.504.072s-.145-.072-.216-.168l-.456-.552c-.049-.072-.097-.12-.097-.144 0-.048.024-.072.072-.072.168 0 .912.096 1.056.096 1.177.048 2.185.072 3.313.072h2.809c.192 0 .648 0 .648-.6 0-.864 0-1.68-.097-2.472-.023-.12-.24-.672-.24-.792 0-.168.168-.192.265-.192.191 0 2.664.312 2.664.864 0 .24-.145.312-.528.6-.216.144-.216.264-.216 1.392 0 1.008.024 1.2.744 1.2h1.608c.6 0 1.056 0 1.392-.264.192-.144.84-1.248 1.057-1.248.144 0 2.376 1.464 2.376 1.824 0 .336-.456.336-1.272.336h-5.16c-.216 0-.552 0-.672.312-.072.192-.072 3.192-.072 3.48 0 .504 0 .984.696.984h4.536zm3.601 9.001c-.528 0-.624-.217-.96-1.2-1.152-3.24-2.4-4.177-2.904-4.536-.072-.049-.433-.289-.433-.336 0-.024.024-.049.072-.049.096 0 .576.145.672.168 2.496.816 4.585 2.881 4.585 4.369 0 .6-.24 1.584-1.032 1.584zm16.03-7.537c0-.864.696-1.584 1.584-1.584.864 0 1.584.696 1.584 1.584 0 .912-.744 1.583-1.584 1.583a1.581 1.581 0 01-1.584-1.583zm23.184 8.617c-.479 0-.695.191-.695.768 0 .816-.288 1.488-1.272 1.488-.84 0-.864-.504-.864-.984 0-.287.096-1.752.096-2.063.049-.937.145-3.024.145-8.569 0-.744 0-4.729-.048-5.161-.024-.192-.192-1.008-.192-1.2 0-.24.24-.264.384-.264.336 0 .48.096 1.776.768.408.216.552.216.984.216.288 0 .456-.12.6-.36.168-.288 1.297-3.121 1.32-3.937.024-.36.024-.624.384-.624.504 0 2.425.96 2.425 1.44a.437.437 0 01-.265.384c-.479.216-.552.216-.936.6-.216.192-1.152 1.296-1.368 1.536-.504.576-.576.624-.576.744 0 .216.192.216.264.216h9.361a1 1 0 00.792-.336c.384-.504.432-.552.576-.552.191 0 2.184 1.104 2.184 1.632 0 .144-.12.264-.239.336-.505.336-.576.36-.648.552-.048.216-.048 8.761-.048 9.24 0 2.353 0 3.025.048 4.057 0 .168.048 1.008.048 1.2 0 1.009-.768 1.152-1.248 1.152-.888 0-.888-.528-.888-1.608 0-.672-.385-.672-.744-.672h-11.356zm-.048-14.377c-.647 0-.72.432-.72.744v4.824c0 .432.191.72.72.72h11.593c.624 0 .696-.408.696-.72V6.409c0-.432-.168-.744-.696-.744h-11.593zm.048 6.936c-.768 0-.768.385-.768.865 0 .815.023 4.488.023 5.256 0 .217 0 .672.769.672h11.377c.768 0 .768-.455.768-.695 0-.865.072-4.969.072-5.4 0-.24 0-.697-.768-.697h-11.473zM195.75 1.56c-.192-.216-1.176-1.272-1.176-1.416 0-.048.048-.144.168-.144.24 0 5.784 3.984 5.784 11.425s-5.544 11.425-5.784 11.425a.16.16 0 01-.168-.145c0-.145.983-1.2 1.176-1.416.96-1.2 3.456-4.633 3.456-9.865a15.72 15.72 0 00-3.456-9.864z"/></g></svg>