<svg version="1.1" baseProfile="tiny" id="レイヤー_1" xmlns="http://www.w3.org/2000/svg" x="0" y="0" width="54.002" height="44.207" viewBox="0 0 54.002 44.207" xml:space="preserve"><metadata><?xpacket begin="﻿" id="W5M0MpCehiHzreSzNTczkc9d"?><x:xmpmeta xmlns:x="adobe:ns:meta/" x:xmptk="Adobe XMP Core 5.3-c011 66.145661, 2012/02/06-14:56:27"><rdf:RDF xmlns:rdf="http://www.w3.org/1999/02/22-rdf-syntax-ns#"><rdf:Description xmlns:dc="http://purl.org/dc/elements/1.1/"><dc:format>image/svg+xml</dc:format><dc:title><rdf:Alt><rdf:li xml:lang="x-default">Web</rdf:li></rdf:Alt></dc:title></rdf:Description><rdf:Description xmlns:xmp="http://ns.adobe.com/xap/1.0/" xmlns:xmpGImg="http://ns.adobe.com/xap/1.0/g/img/"><xmp:CreatorTool>Adobe Illustrator CS6 (Windows)</xmp:CreatorTool><xmp:CreateDate>2017-07-11T15:54:47+09:00</xmp:CreateDate><xmp:ModifyDate>2017-07-11T15:54:47+09:00</xmp:ModifyDate><xmp:MetadataDate>2017-07-11T15:54:47+09:00</xmp:MetadataDate><xmp:Thumbnails><rdf:Alt><rdf:li rdf:parseType="Resource"><xmpGImg:width>256</xmpGImg:width><xmpGImg:height>212</xmpGImg:height><xmpGImg:format>JPEG</xmpGImg:format><xmpGImg:image>/9j/4AAQSkZJRgABAgEASABIAAD/7QAsUGhvdG9zaG9wIDMuMAA4QklNA+0AAAAAABAASAAAAAEA AQBIAAAAAQAB/+4ADkFkb2JlAGTAAAAAAf/bAIQABgQEBAUEBgUFBgkGBQYJCwgGBggLDAoKCwoK DBAMDAwMDAwQDA4PEA8ODBMTFBQTExwbGxscHx8fHx8fHx8fHwEHBwcNDA0YEBAYGhURFRofHx8f Hx8fHx8fHx8fHx8fHx8fHx8fHx8fHx8fHx8fHx8fHx8fHx8fHx8fHx8fHx8f/8AAEQgA1AEAAwER AAIRAQMRAf/EAaIAAAAHAQEBAQEAAAAAAAAAAAQFAwIGAQAHCAkKCwEAAgIDAQEBAQEAAAAAAAAA AQACAwQFBgcICQoLEAACAQMDAgQCBgcDBAIGAnMBAgMRBAAFIRIxQVEGE2EicYEUMpGhBxWxQiPB UtHhMxZi8CRygvElQzRTkqKyY3PCNUQnk6OzNhdUZHTD0uIIJoMJChgZhJRFRqS0VtNVKBry4/PE 1OT0ZXWFlaW1xdXl9WZ2hpamtsbW5vY3R1dnd4eXp7fH1+f3OEhYaHiImKi4yNjo+Ck5SVlpeYmZ qbnJ2en5KjpKWmp6ipqqusra6voRAAICAQIDBQUEBQYECAMDbQEAAhEDBCESMUEFURNhIgZxgZEy obHwFMHR4SNCFVJicvEzJDRDghaSUyWiY7LCB3PSNeJEgxdUkwgJChgZJjZFGidkdFU38qOzwygp 0+PzhJSktMTU5PRldYWVpbXF1eX1RlZmdoaWprbG1ub2R1dnd4eXp7fH1+f3OEhYaHiImKi4yNjo +DlJWWl5iZmpucnZ6fkqOkpaanqKmqq6ytrq+v/aAAwDAQACEQMRAD8A9U4q7FXYq7FXwh/zkFBe aB+dfmB7C5lt3nkhu45opGRwZ4EkYclIOzlqZTLm5mPeLOv+cbPNn52+YPM8cEWrTX/lexZP0y+p N66rG1aRxSPyl9UgHiFag/a2wwJYZREB9a5a4zsVfNn/ADmhpjDSvLOtxyMklvcz2pCsQP3qLIre xX0Tv75Xkb8B5vD/ACb+cP5uaNfW9roet3t48rrFBpsxa9SRmNBGkUvqULHb4KHICRbZQiX3b5Sv ddvfLOm3ev2i2GtT26Pf2aGqxykfEo3anyqadMuDiGr2TbCh2KuxV2KuxV2KuxV2KuxV2KuxV2Ko TV7Se80m9tLeVree4gliinQlWjd0Kq6kUIKk1qMUh+clj5286abc+vZa7qFpcBiWeK6mRixO/Kjb 171zHtzeEPrH/nGL8xfzL842eoDzKq3uj2QEdtrLqsczXFR+4IQKsgCHkWpUbVry2tgSXHyxA5Pd cm0uxV2KqdzdW1rbyXN1MkFvEC0s0rBEVR1LM1ABiq2zvbO9tkurKeO6tpRWOeF1kjYeKspIOKq2 KsYtvzQ/LW5IEHmvSHY1+D69bB9jQ/CX5fhgsMuA9yYxeb/KcsYki1uwkjbo63ULA026hsbRwlEw 63osyc4dQtpE6ckmjYfeDhtaXnVtKAJN7AANyTKn9cUU+H/+cnNb0rV/zavptMuo7yCC3t7d54WD xmREq6qykg8eVD77ZTPm5eIVF6d/zhtr+i2uk+YdNur2G3vnuYJ4oJZFRnjKFKoGI5UI3p028clj LXmD6S/Sul/8tkH/ACMT+uWNFO/Sul/8tkH/ACMT+uK0+dv+cx/MWhXHlrRNJtr6GfURfG5e2ikV 3SJYXTk4UnjVnFK9foyuZb8I3eN/8453+iWH5v6HdazPDbWsf1gRz3LBI1ma3kWOrNRQSzUWvene mRjzbcn0vuxdX0llDLewMrCoIlQgg/Tlzh0luv8AnryfoGnz3+rava20FuhkcNKhcgVoEQEs7GlA FFScBKREl8c+dv8AnJX8wdW85nWdA1GfR9LtGKadpqMDG0QP2rqI8o5XfqeQIXovjlRmXKjiAG73 P8n/APnJzQfN0sGi+ZEj0bzDIVjgkBP1S6c7ARs1TE5PRHJr2Yk0ycZ20zxEcnuGTanYq7FXYqwd fzu/Kf6w9u/mazgnjd45Ip2aBleMlWVhKqcSCO+DiDPw5dyMh/Nv8rZlLJ5u0cAGnx31vGfud1OP EEcB7kVD+Y/5eTqWg80aRKoNCUv7ZgD9EmNheE9yp/j/AMif9TJpf/Sbb/8ANeNhHCe53+P/ACJ/ 1Mml/wDSbb/8142F4T3KN5+Zf5d2drJdXHmbS0hiUs5F5AxoPBVYsx8ABU42E8J7n51ajNDNqF1N BX0ZJpHi5fa4sxK1p3plDmh9qf8AOPfnn8vbT8qNE0/9N2FleWqSC+tLm4hgmWZpndmZHZWIblVW 8MtiRTi5Iniej/4/8if9TJpf/Sbb/wDNeSsNfCe53+P/ACJ/1Mml/wDSbb/8142F4T3LZfzE/L+J DJL5m0mONertfWwArt1L42E8J7nyr/zk1+dNv5s1GLyz5cvPW8uWJEl3cREiO6ue1D+1HF+z2LVP ZTlc5W5GKFbl5r+X35o+cfIepC70K8KwMQbrT5avbTD/AC469f8AKWjDxyINM5QB5vtz8pvzY0L8 xtAa/sFNtqFqVTU9Oc1aGRgeJDbckfieLfqIy6MrcWcDEsJ8+f8AOKnlDzT5oudet9Qn0g3pMl5a W8cbxtOftSpWnHn1Yb1O+RMLZRykCkr/AOhMfIn/AFe9U++3/wCqWPhhPjlER/8AOGn5ahAJNV1l n/aZZrVQfkDbN+vHwwvjFs/84a/llQ01TWgexM9of+xXHwwvjF83/nJ+XKfl954n0CC5a7szDFc2 c8gAkMUoIo4Xbkrqw269crkKLfCXELZR/wA4/wD5I6X+ZLatcatqE9nZaWYEEVqE9WR5uZrzkV1U KI/5TWvtuYxtjkycL2n/AKE1/LD/AKumt/8AI+0/7Jcn4YavGLv+hNfyw/6umt/8j7T/ALJcfDC+ MXkH/OQP5D6P+XNlpmp6Lf3N1ZX0z20sN56bSJIE5qQ8axAggNtx2yEo02Y8nEwj8ovy+Xz954tP L0l2bK2kSSe5uFUM4jiXkQgO3JjQb9Ou/TBEWWc5ULfSq/8AOGv5ZcRy1TWi1NyJ7QCvy+qnLPDD R4xb/wChNfyw/wCrprf/ACPtP+yXHwwvjF3/AEJr+WH/AFdNb/5H2n/ZLj4YXxiuj/5w4/K9JFc6 jrThSDwa4tQDTseNsp+448AXxi9zt4I7eCOCOvpxIqJyJY0UUFWYkk+5ybSvxV2KuxV5P59/5xp/ L7zn5kk1+7kvNOu7kf6alg8UaTSDYSsJIpaOR9qnXr1qTEwBbI5SBSUJ/wA4gflSqhTcaqxAALG4 iqfc0hAwcAT4xV4P+cSPyjjUh01CYk15PdUI9vgRBjwBfGkqf9Cm/lB/yz3v/SU39MeAL40nf9Cm /lB/yz3v/SU39MeAL40lG7/5xH/KaaBo4RqFtIQeMyXIYg022dGU/djwBfGk+Ntc0x9K1rUNLdxI 9hczWrSDYMYZChNPfjlTlA2+oPyo/wCcYfIGs+RNI1zXZLy6v9Ut1unWKYRRIsvxIqqq8tlpWrdc sjAU488pB2Zf/wBCm/lB/wAs97/0lN/TDwBj40nf9Cm/lB/yz3v/AElN/THgC+NJ3/Qpv5Qf8s97 /wBJTf0x4AvjSd/0Kb+UH/LPe/8ASU39MeAL40nf9Cm/lB/yz3v/AElN/THgC+NJmf5e/lN5L8gC 8Pl22kilv+AupppXlZlj5cF+LYAcz0GSEaYSmTzZjhYuxV2KuxV8Zf8AOYkAj/NOyetfW0e3cjwp cXCU/wCEyqfNysPJnX/OFUEy6L5pnKEQyXNqiSdiyRyFgPkHX78ONhn6PpPLGh2Kvmv/AJzVuguj +VbTastxdygd/wB0kS7f8jcryN+Dq81/5xPE3/K4bT005ILO69Zv5U9Pr/wXEfTkYc2zN9L7ey5x HYq7FXYq7FXYq7FXYq7FVskkccbSSMEjQFndiAAAKkknoBiqF0zWtH1WJpdLvre/iQ8XktpUmUHw JQsBikhGYodirsVfm357dJPPHmJ0IZG1O8ZWHQg3DkHMc83OjyfeX5Nf+So8p/8AbLtf+TYy+PJw 58yzLCxdiqQaj5/8k6ZrkehajrllZ6vIoZLOeZI3o32a8iAC3YHc9sFhIieafggio3BwodirsVdi rsVdir4+/wCci/zR81aT+b9xF5a1y8sF0y1t7eaK3nf0DKQZm5RV9NtpQCCDuMqkd3JxwBjuk+j/ AJteWPPmt6VZ/m3oceqSqVtLfX7JpbW4RXfZZ4oGRJE5tX4ACvYHuOK+aTAj6X2N5c8taD5b0mLS dCsotP0+GvCCIbVPVmY1ZmPdmJJy4BxiSeaYyiUxOIiol4n0y4JUNTaoBBIr74ofJun/APOXvnrR r+fTvM2h2WoS2crwTm3aS0kDxsVcEn10NCP5BlXGXJOEHkzfTvNX5Tf85DSRaDqmm39lq+lRSXlu eaqVjdkSb0pULqwrw5B0HamSsSYEShu9G/Ln8nPI35ftcTaBbSG9ul9Oe+uZPVmMYPL0waKqrUAn iorQVrQZIRAYSmZc2b4WDsVdirsVdirsVdirsVdiqVebdLOreVNa0oAk39jc2oArX99C0fbf9rtg KQaL84tD1/W9B1CPUdGvptPvovsXFu7RtTwNOqnuDscotziLfRvlLzH/AM5e+YtBtdX0xoZdPuVr bXFzHp8LyoDTnwYI1DTY8d+uWAyaCIApz/1md/y5f9y3H1I/doe//wChzvqU/wDvPTg1fq/6N9Wl N/T/AMrwpv4Y+pf3b5UlMhkcy1MhJ58q8uVd6175W5D6H/K6L/nKiPyXYf4V9MeXWUtpouzY8vTL E1T1v3vAmtOX0bZMcTTPgvdln/WZ3/Ll/wBy3D6mP7tZKP8AnNAxOFNmGKmhT9Gcq07ctq/PH1L+ 7fL3mNtcbX9ROvtK2ti4kXUjcGsvrqxEgf3DDKy5A5bPoT/nErzn+Yd1rcnl9/W1DyjBCxkmmqy2 UgFYljkPQOdvTr7ilDWcCWjNEc+r6sy1x3Yq7FXYqk3nLzTp/lTyvqXmHUD/AKNp0LSlK0Lv0jjX /KkchR7nATSYizT85Nb1i+1rWL3V7+T1b2/nkubh/F5WLNTwG+wyhzgKfXn/ADj3+QWj6Fodn5l8 z2CXXmS8C3NrDcLzWyjI5RARsKCb9pmIqp2FCDW2MXGyZL2D3jJtLsVfnn+dVolr+bPmyJejalcT beMz+qfxfKJc3Nh9IfT/APziX5d0my/LCPWYYFGp6rcT/W7ogeoUhkMUcYaleC8K08STlkBs4+Y7 vbcm1OxV4r+e/wCf0v5e61o2laTDBf3jk3WsW0hIK2p+FIw6/YeQ1YGhpxG1DkJSptx4+J6N5A/M Dy3560CPWtCn5xE8Li3egmglHWOVQTQ+HYjcZIG2EokHdkmFi7FXYq7FXYq7FXYq/MjVbf6tql5b 8OHozyR8P5eDkU+imY7nh+hv5UJGn5X+UAgAU6Np7EDxa2Qt+Jy+PJwp8yyrCxdir82PO0Kwec9f gUkrFqN2gJ6kLO4zHLnR5Pv78qlVfyw8oBQAP0Lp5oNtzaxk/jl45OHPmWU4WLsVfnt+eEkT/m55 raIUUahKp2p8S0Vv+GByiXNzcf0h9Wf84rRRJ+TWmMihWluLt5CBQswnZanxPFQMthycbL9T13JN bsVdirsVfI3/ADlr+aC6rrMPkfTJeVjpLibVXU7SXhFFi27Qqxr/AJR8VyqZ6OThh1fPKOyOroaM pDKfAjcZBufe/wCQf5ia1578hx6nrNoYb+2la0kuwvGK69NR++QdjvxcDbkDTwF0TYcPJGi9IyTB 2Kvz6/Pf/wAm/wCav+Y1v+IrlEubm4/pD61/5xl/8kh5b/6Pf+o+4y2HJxsv1F6hkmt5v+dH50aN +XOjUHC88x3iH9G6bXp29aam6xKfpY7DuRGUqZwhxPhTXNb1TXdXu9X1W4a61C9kMtxO5qWY/qAG wHQDbKXMAplH5R+dvN3lLzfbXvlyGe+eZljvdKgVpBdQ13jKKG+L+RqVB+nDE0xnEEbv0KQllDFS pIBKmlR7GhIy9wm8VdirsVdirsVdir80vNX/ACk+sf8AMbc/8nWzHLnDk++PyUnjm/KXyo8Z5KNN gQn/ACo14MPoZTl8eTiT+os1wsHYq/NbzlcfWfN+uXG377ULqTbcfFMx2+/McudHk+/fyknSf8rf KLpWg0exQ18Y7dEPT3XL48nDnzLLMLF2Kvzs/N6ZZvzT83OoIA1e9TfxjnZD+K5RLm5sOQfWn/OK c/qfk5YJxp6N1dpWta1mL1/4fLIcnHy/U9fybU7FXYq8/wDzt/M+3/L/AMlT6hGytrV5W20e3bfl MRvIV/kiB5H3oO+RkaZwhZfF/lX8vvNHnSz8x+YVYix0W0utS1PUrjk3qSxxNP6St+3LIRU77Dc9 gagLcoyA2YdgZP0u8saZYaX5d03TrCBbaztraKOGBBQKAg/HuSdyeuXhwSd0zwodir4E/wCchwB+ c/mcAUHrxHb3t4jlEubmY/pD6r/5xl/8kh5b/wCj3/qPuMthycfL9RSX86f+ckNE8mJPovl5o9U8 0bpJQ87azPQ+sVPxSD/fYO37VOhEp0mGK+b5Z0fyr+ZX5neYLi9s7S61nULqTle6lJ8MKsf9+TNx iSi/ZWvTZRldEuQSIh9Fflt/ziNoelSxaj50ul1m7SjLpkHJLNWG/wAbni83yoo8QcmINEs18nv1 hpunadbrbafaw2dsgASC3jWJAB0AVAAMsabRGKuxV2KuxV2KuxVpmVVLMQqqKknYADFX5jX9013f XF01eVxK8p5bmrsW3+/Mdz3u/wCT8v8Azk0/ku3XyUEPlpJJRZNdfU6V5t6oi9f95xEnL2rWnfJx vo0z4L3Zv/1md/y5f9y3D6mP7thn5ifmh/zk15JS2t/Mt9BY/pRJRayQRWMjERcRJQxq5Qj1F3P0 YCSGUYQPJ8/EkkkmpO5JyDc9l/K7z/8An8HtPIvlO4XnDb/WrSzu47VWS2lRZ1ZZLgAlGSUOoqdj ttkgTya5xjzL0/8A6zO/5cv+5bkvU1/u1G7P/OaC20pAtSQp/uv0YZOn7Ndq4+pf3b5XvpLyS9uJ L0u168rtctLXmZSxLl678uVa5W5D7R/5xHeVvykUOvFU1G5WI0+0tENf+CJGWw5OLm+p7Tk2p2Ko fUdRsdN0+51C/mW2srSN5rmdzRUjjHJmPyAxUB8b3Vt5o/5yF/NWWW0Elp5ZsCIluGX4LSyDGhIr QzzULca9f8ldqvqLlbQD6R80eVdE8qfkl5k0LRYBb6fZ6FqKovVmY2khaR2/adzuTkyKDQDcgX5+ 5S5j9QcyHAdirsVfAn/ORP8A5OfzP/xnh/6hosolzczH9ITr8rtW/PTzJ5WPkTyS7Q6LBK7XOoJS D0VnJZo2ujuqluTcU+M1PUbYRfIImIg2Xs35ff8AOJHlHR2ivvNlwdfv1oxtFrFZK3XcV9SWn+UQ D3XJiDVLMTye52Gn2GnWcVlp9tFaWcA4w20CLHGi+CooAGTabRGKuxV2KuxV2KuxV2KuxVZPCk0M kL/YkUo1PBhQ4q+SYf8AnDDzgdXKTa7p6aP6h43CCd7kx12JhMaR8qf8W5V4bk+OH1L5X8uab5a8 vafoOmqVstOhWCHkas3Ebux/mZqsfc5YA45Nm1XXtd0rQNGu9Z1a4W106xjMtzO/QKOwHUsx2VRu TsN8JKgW+APzZ/MnUfzB833GtXAaKyT9xplmT/c2yklQaVHNq8nPifCmUSNuZCPCGGYGT6R/Mvyp rGjeQvy5/NbywTBqekaPpcGpSxipCfVYxBMw6FfiMT16hlHTJkbAtETZMS9z/KH829E/MXy+t3bs tvrNsqrqum1+KKQj7aAklonP2W+g75OMrapw4Sz3JMHhnm7/AJxM8oeYfNd3rqatd6fDqEz3N7Yx JG4MkjcpDE7fYDMSaFW3PhtkDBuGYgU9e8reWNG8r6BZ6Do0PoadYpwhQnkxJJZnZj1Z2JZj45IC momzaa4UOxV4T+Z0nmT81/M0n5eeV5Ta+V9LlX/FuugVjMyGotI9x6jRkbqD9rrQLvA77N0KiLL1 ryX5L8v+TfL9voWhW4gs4BV3NDJLIR8Usrbcnam5+gUAAyQFNUpElb+YAB8h+ZAdwdLvf+od8TyW PMPzcyhzn6g5kOA7FXYq+BP+cif/ACc/mf8A4zw/9Q0WUS5uZj+kPpv/AJxStYIPydsZY14vdXV3 LMfFxKYgf+BjUZZDk0ZvqewZNqdirsVdiqnFdW0ss0UUySS27BLiNWDNGzKHCuBupKsG37GuKqmK uxV2KuxV2KuxV2Kqd1dW1pbS3V1KkFtAjSTTSMFREUVZmY7AAdTir4i/P/8APK48/ap+itId4fKd i9YENVa6lFR68i9l/wB9qeg3O5oKZSty8eOvemf5Cf8AOO83nPj5h8zpLbeWFr9VgUmOW9YbfC3V YgerDc9F7kGMbRkyVsHln5g6Zp+lefPMel6bEYLCw1O8tbWEsXKRwzvGq8m+I0C99/HIHm2ROz7v /L3T9P1b8n/LOnX0SXVjeaBY29zC26ujWaI6nLxycORqRfIPnLy95v8AyQ/MxZ9IuZI41Jn0i+Ir Hc2rH4opQKBuP2JF/wBkKVU5URRcqJEw+qPyf/O/y3+YmnrErLY+Y4EBvdKdtzQbywE/bj/Fe/Ym yMrcaeMxekZJg7FXYq7FVO3tba2jMdtCkMbM0hSNQgLuxZ2oKbsxJJ7nFVTFWNfmdK8X5a+bJYzx kj0bUGQ9aEWshHXAeTKHMPzjyhzX6g5kOA7FXYq+B/8AnIyN4/zp8zK4oTLAwHs1rEwP0g5RLm5m L6Q+nv8AnFn/AMkxpP8AxnvP+ol8thycfL9T1rJNbsVdiq2WWOGJ5ZWCRxqXdzsAqipJxV4R/wA4 zeepvNnmL8wr2dyTd38F9bo3VYZRLFGv+wjhjXIQN23ZY0A95ybS7FXYq7FXYq7FVG9vbOws5r29 mS2tLZGluLiVgiIiCrMzHYADFXxj+fv/ADkDc+dpn0Dy88lv5UhYeq5qkl66moZx1WJT9lD1+029 AtMpW5WPHW55p5+Q3/ONVzrD23mjzpbtBpA4zWGkSCj3Q6q8wO6RdCF6v/q/aMYd6MmWtg+tYIIY IY4II1ihiUJFEgCqqqKKqqNgAOgy1xn5yfmROZ/zE80zkcTLq9+/HrTlcyGmY55udHkH3V+S0iP+ U/lNkPIDTLdSR4qgUj6CMvjycOf1FW/NH8ttG/MDytNouoUiuFrLp18Fq9vOBRXHSqno613HvQhI tYS4S+Dde0HzZ5B82PY3gl0zW9NkEkFxExQ7H4JoZFpVW7MP11yg7OYCCH0P+U//ADlpbSpDpH5g L6MwokWuwp+7bsPrMS/ZP+Wgp4qOuWRn3tE8Pc+kdP1Gw1GzivdPuYruznXnDcQOskbqe6spIOWN BCIxV2KuxV2KsU/NqZIfyt83O9aHR79NvF7Z0H4tglyZQ5h+dOUOa/UHMhwHYq7FXwd/zk1/5O/z J/0Zf9QFvlM+bmYvpD6K/wCcStSiuvykjtlYF9PvrmB17jmVnHfwlycOTRmHqez5NqdirsVeUf8A OSf5g2/lX8uL2yimC6xryNY2UQPxiOQUuJadQFjJFf5mGRmaDZijZeEf84heYrbTfzIutMuZRGus 2LxW4O3K4hdZUWv/ABjEmQgd27MNn2dlriuxV2KuxV2KpV5n806B5X0afWNdvI7HT4B8Ush3ZiKh EUVZ3amyqKnATSQCeT47/Mz82/O35xa7H5a8sWNwujGStppMIrNcFTtNdFTxAHWleCdyeuVGRLkx gI7l6/8Akz/zjDpXlloNd83iLU9eSklvYj47S1bqCaj97IvifhU9ASA2TjBrnlvYPesm0uxV+avm +V5fNmtyyHlJJf3TOelS0zE9Mxy50eT7q/IGZZvyd8rOoIAtCm/jHK6H8Vy6PJxMn1F6BkmDBPza /KPQPzG0L6pe0tdVtgW0zVFXk8LHqrDbnG37S19xvkZRtnCZi+GvPHkPzN5J1uTR9ftDbzrUwTCp hnj7SQvSjKfvHQ0O2UkU5cZA8l3k78xfOvk259fy5q09iGPKW3BDwSHp+8hcNG23crXEGllEHm90 8qf85najEEh81aDHcgbPeac5ieg7+hLzVj8pFywZGk4O5615c/5yT/KLXWjiTVm0+6lIVLa+hkib kxoBzUPF1/y8kJhrOKQeoZJrdirDfzl/8lR5s/7Zd1/ybOCXJlDmH55RxvJIsaDk7kKqjuTsBlDm v0/zIcB2KuxV8c/85eeTdQsPPcXmhYWbTNYgije4AJVbm3X0zGx6AmNVZa9d/DKpjdysMtqeb/lt +bPnD8vL2e40GaNoLvj9bsblDJBLwrxJAKMrCp3VhkRKmcoCXN6xH/zmj5rCASeXbBn/AGmWWZQf kCW/XkvEa/AC7/odLzP/ANS5Zf8AI6XHxF8AJXqn/OY35j3MbR2GnaZYcq0l9OWaRfCheTh96Y8Z SMIeOeZ/NfmLzTq0mra/fy6hfyAKZZSKKo3CIigKiiv2VAGQJtsAA5O8q6f5j1DzDYW/luKaXW/W R7EW/wDeLKjBlcN+zxIqWOw6nEKSK3fpFpgv1020Gosj6gIYxeNEKRmbiPUKA/s8q0zIcEonFXYq 7FXnf5gfnRonlq6bQ9ItZvMvm9hSLQtPVpXQkVBuGQP6Y9t29qb5EyZxhfueW/8AKjvzW/NDWYdc /M/VBpGnISbfRLUq8kUZIPCNQXii5Dq7F3/mGR4SebZ4gjye6eSvy+8o+StN+oeXdPjtI2p68/25 5SO8srVdvlWg7AZMCmqUiebIsLF2KuxV+Y+puH1K7cHkGmkIYGtaud65jueH3b/zjbOZvyT8tORx ol0lP+Md5Mlfp45dDk4mX6i9LyTW7FUj84+SfLPnHRpNI8wWSXlo3xRk/DJE9NpIpB8SMPb5Go2w EWmMiOT5H/ND/nFzzh5YaXUPLgfzBogq3GJf9NhX/iyFf7wD+aP5lVyowpyYZQebCvyv/KTzN+YH mD9G2MbWtlbt/uT1KVCY7dQdwR8PKQ/spWp9hUgCNs5zAD7X8g/lJ5F8jWkUei6dGb5VpLqs6rJd yE/aJlIqoP8AKlF9suEQHElMlmWFi7FWD/nfDcTflL5qjt0Z5TYSHigJPFaM3T/JBrglyZ4/qD4U 8j+Wdc8x+Z9P0zRrSS7u5JoyVQEqiBxykkboiKOrHKAHLkaD9I8yHBdirsVQmraPpWsafNp2q2kV 9Y3A4zW06CRGHuG/A4pBp4/r3/OJH5V6lI0tib7R3Y1EdrOJIqk/y3CzN9zDIGAbBmLFrj/nCrSG LfVvNVxGKfD6loklD4mksdRg8Nl4/kg/+hJf+/z/AO5Z/wBnePhp8fyRNr/zhRpq0+tebJpd/i9K yWKo9uU0tMfDR4/kybRv+cQfyvsnD38+o6oRSscsyRRmntCkb/8AD4eAMTmL1Tyt5F8oeVLY2/l3 SbfTUYUd4k/euP8AiyVuUj/7JjkgKazInmnuFDsVdirsVQ1jpemWAkFhaQWgmYyTCCNI+bkklm4A VNT1OK2icVdirsVdirsVfmcvl/WpNbbQobKabV1ma2NjGjPMZkYqyBAOVQRmPTn2/QD8n/KN75R/ LXQvL99T67aQu90qkMFluJXndKjY8GlK1Hhl8RQcKZs2zHCxdirsVdirSoi14qF5Hk1BSpPc4q3i rsVdiriARQ7g4qoWtjY2istpbxW6ueTiJFQE+J4gVOKq+KuxV2KuxV2KuxV2KuxV2KuxV2KuxV2K uxV2KuxV2KuxV2KuxVSSztI7h7lII1uJQBLMqqHYDoGYCpxVVxV2KuxV2KuxV2KuxV2KuxV2KuxV 2KuxV2KuxV2KuxV2KuxV2KuxV2KuxV2KuxV2KuxV2KuxV2KuxV2KuxV2KuxV2KuxV2KuxV2KuxV2 KuxV2KuxV2KuxV2KuxV2KuxV2KuxV2KuxV2KuxV2KuxV2KuxV2KuxV2KuxV2KuxV2KuxV2KuxV2K uxV2KuxV2KuxV2KuxV2KuxV2KuxV2KuxV2KuxV2KuxV2KuxV2KuxV2KuxV2KuxV2KuxV2KuxV2Ku xV2KuxV2KuxV2KuxV2KuxV2KuxV2KuxV2KuxV2KuxV2KuxV2KuxV2KuxV2KuxV2KuxV2KuxV2Kux V2KuxV2KofUNQsdOspr6/uI7Wzt15z3ErBERR3ZjsMBNc0gXyY3/AMra/LL/AKmjTf8ApJj/AK5D xYd7PwZ9xd/ytr8sv+po03/pJj/rj4sO9fBn3FfB+an5azyCOPzPpnNuga6iWv0swGPix7wvhT7i yW3uLe5hSe3lSaGQVSWNgysPEMKg5ZbXSpirsVdirsVdirsVdirsVdirsVdirsVdirsVdirsVdir sVdirsVdirsVdirsVdirsVdiqncW1vcwSW9zEk9vKpSWGRQ6Mp2IZWqCDiQoLwb/AJya8heVrPyV BrmmaVbWN/b3kUUk1rGkHKGVXBDqgUN8QWh6j5ZianGBGwHM0uQmVEpn/wA46/l/5Sl/Lay1m+0m 0vtQ1OS4eS4uYUmdUineFUUyBuK/uq0GHT4xw3THU5JcdW9C1b8rvy61W1a2vPLlgUYU9SK3jhlX /VliCOv0HLjiiejSMsh1fNOu3XmL8jvzMez0W8ln0SYR3aWMzExz2spKlZFHw+orIyiQCu1e5GYU icUtuTnRAyw35vrizuoruzgu4a+lcRpLHUUPF1DCo+RzYA264ilbCh2KuxV2KuxV2KuxV2KuxV2K uxV2KuxV2KuxV2KuxV2KuxV2KuxVIvPXmY+V/KGq6+IlnfT4DLHC7cFdyQqKW36swyGSXDElnjjx SATXTrwXun2t4F4C5hjmCE14+ooalfauSBsMSKKIwodirsVdiryb/nJ//wAlVP8A8xlt/wASOY+q +hydL9aY/wDOOpH/ACpzy/7fXK/9J0+HT/QGOp+svR3dERndgqKCWYmgAG5JJy9ofJn5kJN+bn5y x6d5YH1mys4YrF9RQEwrDFI8k1wzdOCvMyr/ADUFOozX5P3k6DscX7uFl9X2drFaWkFrDUQ28axR gmp4ooUVPyGZ4DrybQmv+YNG8v6VPqus3aWdhbiss0le+wVQKszHsoFTglIAWUxiZGg8/wBL/OXX PMUMt75S8k6hq2lRFgL6ae3slkK9fSWUtz/2JrlQzE8hbccIj9UqKaeS/wA5PLPmXVpdBnhuNE8x wEq+kaigjlYqKsIyCQ1BvQ0PelN8MMwka5FjPCYi+YZ4TQEnt4b/AKsuaXj/AJt/5ya8m6FObW20 /UL+4pVS8JtIitaVBnCydv8AfeY09TEOTDSyL2DMlxnlvnP/AJyG8n+WZZLdrHUbydJHhDLbNBCZ IzR19W49OtPFVbKJ6iMXIhppS7mdeT/McXmXyxpuvRQNbJqMImEDMGKV2K8gBXcZbCXELaZx4TSb TTQwwvNM6xQxKXkkchVVVFSzE7AAZJi8d1f/AJyY8vDWf0T5X0a98zXPIrytQVVyOvpALJI/z4Ae FcxjqRdAW5Q0pqyaTfR/z68tvcLZeatPvvJ9/IOUUerQSRxOO/CUqOn+WqjJDOOuzCWnPT1J/wCQ vzN0DzxPq66IsrWulSxxfWpF4rMJFJDop+ICqH7W+Tx5RK6Y5MRhV9U380eatJ8s6b+kNT9cwF/T RbaCW4dnILAcYlamyndqD3yUpiIssIQMjQYZ+Xf556F58803WiaTp9zBFbWj3gu7kopYJLHGV9NC 9K+rWvL6Mqx5xM0G3JgMBZZz5g8waboGlyalqJlFtGQp9GGSdyzGigJErtufamWykALLVGJJoPO9 D/5yF8u6553svKmn6XfJNdSvDJcXapB6bRxs/wDdVdz9inxcTlMdQDKgG6WmIjZL1XMhx0k83ec/ LnlLSm1TXbxbW2B4xr9qSV/5IkHxM3y6dTtkZzERZZwgZGgwvTvze81axYHV9E8galeaIRyiupLi 3glkj/mjt2JeTbpwrXKhmJFiOzacIBoyFsj8h/mb5Y86RTjTHkg1CzPG+0u7X0rqEg8TySpqOW1V J8DQ5PHlEuTXkxGPNk15ci1s57kxyTCCN5DDCpeV+CluKIPtMaUA7nJksAHy9+ff5zalr2mR+XLL SL7R9KuWEtzNqMJgmuREQyokZqBGr0YmpJNOnfBz5iRVU5+nwAG7svTvLf55aH/h7TFTy/5gmCWs KerBp7SRsVQKSjq1GFR1y+OcVyLRLAbO4eoaZqEOo6fb30KSxxXMayIk8bwygMK0eOQKyn5jLwbD jkUaROFDsVdiryb/AJyf/wDJVT/8xlt/xI5j6r6HJ0v1sT/JD8sdW1P8vLHVYvOGsaVBfSTvFYaf MI4YxHM8J2YP8TGMsaUyvBiJjdlsz5QJVQLJvM35A6lrdg1rL581uZWH91eyfWICe3KJTCDk5acn +ItcdQAfpDCtB89eYPyV1aLyp5r0a0k0Wejw6vpsQjlmQHj6rH4RMV6MrAMPE7VrjkOI0Rs2yxjK LB3fRmnajY6lYW+oWEy3FndRrLbzoaq6OKqRmYDe7hEUaL5i/O3Wb7zx+cOm+RIJWTTLO5gsyF3H rT8TPOR3MaNx36cT45g5zxT4XPwR4IGT6d03TrLTbC30+xhW3s7WNYbeFBRVRBRQMzgKFOATZt4H /wA5VeWltE0Xztp9bfUre4WznuIvhcmhlt5KjvGY2FfceAzE1UeUg5mklziXrf5YebG82eRNI12W gubmHhdgbD14WMUpA7BnQsPY5kYp8UQXGyw4ZEPEP+cvwP0n5ZNNzDdgn5PFmLrOYcvR8i+mMznA eNf85WRRv+Wts7LVotTgZD4ExTKfwOY2q+n4uVpPr+DMvyaieL8rfLKt1NjG30PVh+ByzD9Aas31 lgn/ADlR5xutJ8p2OgWchjl1yR/rTKd/q1uFLptuObyL8wCMq1U6Fd7dpIXK+5Pv+cevIth5d8gW Opekp1XXIkvbq4oOXpSDlBGD2URkGn8xOT08OGN97DU5DKVdAyn8zPL2n695F1qxvYEmpaTS2xYC sc8cbNFIhP2SrD+HTJ5YgxLXikRIF5B/ziB/xzvM/wDxmtP+Iy5j6PkXJ1nMPobMxwnzN+QKqn58 +cFUBVWDUQqjYADUYdhmDp/7w/jq5+o/ux8PufTOZzgPmzVYIov+cubQxrx9V4pHA6cjp1CfppmE f778dznD+5/He+k8zXBfJXn7XrTzx+fdvpOs3kdv5b0u++oUncRwrHbtW5qxIUGaSMry/wBXwzX5 JcWSjydjjjwY7HN9MR+dPI0Uaxx67piRoAqIt3bhQoFAAA+wGZvHHvDg8Eu4vn782/M2h+Vfzh0T zn5Zv7e6a5jVtZgs5UkV1VvTk5+mSKyxbCv7S8uuYmaQjMSDmYYmUDEvp1HV0V0IZGAKsOhB3BzO cB88/wDOX4H6P8sGm4muwD81izD1nIObo+Ze7+Xo3j0DTI3HF0tIFYeBEag5lx5BxJcymGFi7FXY q7FXkn/OULov5WShjQve2yqPE1Y0+4HMfVfQ5Ol+tNP+cdf/ACTnl/8A6PP+o6fDp/oDHU/WXo+X tDxT/nLCys5Py/sLuRR9at9SjS3k25Ulhk5oPY8AT/q5i6selytIfV8EZ/zize31x+WDRXJJitNQ uIbOvaEpHKQPb1JHw6U+hGrHreVWf+g/85UN9cXjz1mXiG/5eEb0Tv4+opGUDbL8XIO+H4PrTNg6 55D/AM5Szwxflfwk+1PqFvHF0+0Fd/8AiKHMbVfQ5Ok+tEf84ywSx/lPZu6lVmurp4j4qJClf+CQ jDpvoRqvree/85f/APHS8sf8Ybv/AIlFlOs5hv0fIvpS1mM9tDMRxMqK/HrTkK0zODgF47/zldMs f5a2qkEmXVIEHsRDO3/GuY2r+n4uVpPr+DM/yZleT8rPLLOakWMaj5JVR+AyzD9Aas31l4//AM5f 2831nyxc8f3JS8j5eDAwmh+g5j6wcnJ0Z5vdfIE0c/kXy7NE3KN9Msyp/wCeCZlY/pHucTJ9R96M 8y/8o5qv/MHcf8mmwy5FEeYeF/8AOIH/ABzvM/8AxmtP+Iy5i6PkXL1nMPobMxwnzP8AkH/5Pvzj /wAYdS/7qMOYOn/vD8fvc/Uf3Y+H3PpjM5wHzTq1xX/nLuASEKsUsEanpXlpqkV9+T0zBJ/ffjuc 4D9z+O99LZnOC+OPKOh6LqP/ADkLdaR5itVns5tU1KOS2kJCGQes0YbiRUcwKeO2a2EQclHvLs5y IxWO4PpL/lSv5Vf9S1Z/8C3/ADVmb4MO5wfHn3uH5LflWCCPLVnt4qx/WcfBh3L48+9miqqqFUAK BQAbAAZa1Pnr/nL/AP453lj/AIzXf/EYsw9ZyDm6PmXvGgzNNoWnTMAGktYXYDpVo1O2ZceThy5o 7Ch2KuxVRvb20sbSa8vJkt7S3QyTzyEKiIoqWYnoBgJpIFvm/wD5yJ/NzyV5l8q22g+X739I3Bu0 uZ5USRI40jR1pykVeTMXHTMLUZoyFBzdNhlE2Uy/If8AOjyLovkC20DX9QGnXmnSTCMSRyMskc0r TBlaNXGzSEEHJYM0RGijUYJGVhn95/zkH+UdtA0v6dWcj7MUMFwzsfAfuwPvIGXHUQ72kaefc8n8 2t5+/PHXLK20jSp9J8n2Tlor69QojFqB5mPSRguyoladzvUY8+LKdhs5EOHENzcn0J5O8qaZ5T8t 2Wg6aD9Ws04+o1OcjsSzyPTuzEnMyEBEUHCnMyNl4x/zkR+W2tjWbP8AMPyzC017ZGJ9RiiXlIrW xDQ3IUbsFChX8AAelaYuoxm+IOVpsorhL07yN+a3lHzXoEOpRahb2tyIwb+xmlRJIJAPjBDEEpX7 LdCMvhljIW0ZMUomnjP5saxe/m75z0/yf5MH13StLYve6mlTbCST4WlL9PTjUUU/tEnjXbMbKfEl wxcrDHw48Uub6G8s6BY+XvL+n6JYg/VdPgSCNj1biPidqftO1WPuczIxoU4UpcRt43/zlb5Q1DU/ L+l+YLKJpl0d5kvlQFisE4Q+qafso0VD/reGY2qgSAe5ydJMAkd7JPIv59fl9qPlWzm1TVodM1K3 gSO+tLglGEiKAxj2+NWO68d/pyzHniRuWGTTyB2Dy3/nIHzzf+c/LtneaNptwvkyxvAo1mdDELq6 eNwhijaj+miqw5EfaNDQ9cfUT4ht9LkafGInf6npX/OP/wCYnlTU/J2j+WYbwR69Y27Ry2EgKuwj YnnGSOLjia7Gv3Zfp8gMQOrRqMZEieiffnT+Xr+ePJU2n2tBqto4u9NLGgaVAQYyewkRivhWhPTJ 5sfFGmGDJwSvo8z/ACN/OXTNA0o+SfOsr6VeaXI8dnPdKyqELEmCU0qjIxNC23HbtvRgzADhk358 JJ4o7sv/ADI/PLyLbeWNSstG1FNY1i8tZoLW3sayhTJGV9R5FHALHXkd65ZkzxrbcteLBKxewYl/ ziB/xzvM/wDxmtP+Iy5Xo+RbNZzD6GzMcJ8r/XX/ACm/P+/1HWIpF0PV5LhluUVmBtbyQS8lp9v0 ZAA467fLMC/DyWeRdhXiY6HMPadV/PT8t7O0SSy1MaxeT0W003Tlae5ldvsoEA+En/KpmSc8R5uK MEj0p843vmHU9F/PiHzH5xsm0yYXsN5d2qfvDDBLGvpiq/bMcTLypvUHau2YRkRkuTnCIOOovrvy 95j0PzFpkeqaLeJfWEpKrNHUDkpoVIYBlI8CM2MZCQsOtlExNF86f85C/l1r2hebF/MPy8r/AFZ5 Iri6khFWtbuGlJSAPsPwDcunKteozD1GMg8Qc3T5AY8Jej+Q/wDnIryLr2mQ/pm9j0TWEQC6guKp CzgfE8UpqvEnorHkPfrl2PURI32LRk00gdtw7XPzcm8yXR8s/lkranq01Eutc9NhY2EbbNKzuBzc D7IpSv8AMfhxlm4toc1jh4d58nqFjby29lb28szXMsMaRyXElOcjKoBdqbVYipy8NBeE/wDOXOm3 U3lzQtQjQtbWl1LFOwFeJnRShPgP3RGYurGwLl6M7kMs8rfnn+Wg8l6ddXWsRW1xBaxRXGnsGa5W WOMKyLGq8n+IbMBQ5ZDPHh5tc8E+LkznyrrV/rejpqd3pkuki4dmtrO5I+segDSN5kA/du4+LhU0 8cthKxbTOIBq7TfJMXYq4gEUPTFUN+jNN/5ZIf8AkWv9MFBNl36M03/lkh/5Fr/TGgtlcun2CMGW 2iVlNVYIoII7jbGgtlXwodirsVYxqn5Yfl5ql2bu/wDLthNcseTzegis58XKheX+yys4ono2DLIc inWk6Jo+j2otNJsYNPtQa+hbRJElfEqgAr75MRA5MDInmjcKGmVXUqwDKwoyncEHscVYsfyq/LY3 314+WtO+sV5V+rx8K1rX06cK+9Mr8KPc2eLPvZMbe3MIgMSGAAKIuI4AL0HHptTLKa7WxWdpC3OG CON6U5IiqafMDBSbVsKEj8weRfJ3mKRZdb0a0v5kHFZ5olMoA7eoKPT2rkJY4nmGccko8ix3zDD+ W3kryprn1SDTNJkFjOjwxCGKeUtGQkZp+8cuSAAa5CXDEHkzjxyI5l5P/wA4m+YNFsI/MdlfXsFp cTNaywpPIkfNFEqsU5EV4kivzGY+kkBbkauJNPpYEEVHTM5wUBrWgaHrlp9U1iwt9Qtq8hFcxrKo PivIGh9xglEHmmMiOSB0DyH5M8vSmbRdFtLGcggzxRKJaHqPUIL09q5GOOI5BlLJKXMpvLZ2kzc5 oI5HpTk6Kxp8yMlTG1SOKOJAkaBEHRVAAFd+gwobZVZSrAFSKEHcEHFWKXf5T/lpd3X1qfy1p7TE 8mZYEQE+LKgVT9Iys4ono2DNMdWRaZpOlaVaraaZZwWNqu6wW0aRRg/6qBRkwAOTAknmisKFC+sL HULSWyv7eO7s5xxmt50WSN160ZGBBwEWkGuSQ6R+WvkDSLz67pvl+xtrsNySdYVLofFCwPD/AGNM iMURyDM5ZHmWS5NrdirsVdirsVdirsVdirsVdirsVdirsVdirsVdirsVdirsVeSef/8AoXX/ABNc f4u+pfp/in1v/ejn9kcPU+r/AA8uNPtfFSnamY+Tw79XNycfi16eTHR/0KPUU+p/T9f/AI5D9yz/ AH34p7npX6N/Rdn+i/T/AEZ6Ef1H0Kel6HAel6fHbhwpxp2zKFVs4hu90VhQ7FXYq7FXYq7FXYq7 FXYq7FXYq7FX/9k=</xmpGImg:image></rdf:li></rdf:Alt></xmp:Thumbnails></rdf:Description><rdf:Description xmlns:xmpMM="http://ns.adobe.com/xap/1.0/mm/" xmlns:stRef="http://ns.adobe.com/xap/1.0/sType/ResourceRef#" xmlns:stEvt="http://ns.adobe.com/xap/1.0/sType/ResourceEvent#"><xmpMM:RenditionClass>proof:pdf</xmpMM:RenditionClass><xmpMM:OriginalDocumentID>uuid:65E6390686CF11DBA6E2D887CEACB407</xmpMM:OriginalDocumentID><xmpMM:DocumentID>xmp.did:8A07AA7AFA65E711A588CAE2881F51E6</xmpMM:DocumentID><xmpMM:InstanceID>xmp.iid:8A07AA7AFA65E711A588CAE2881F51E6</xmpMM:InstanceID><xmpMM:DerivedFrom rdf:parseType="Resource"><stRef:instanceID>uuid:c5b5eddb-66da-6741-a40d-cc810f9d042d</stRef:instanceID><stRef:documentID>xmp.did:FB05051EC465E111835FF2FC000FBA2B</stRef:documentID><stRef:originalDocumentID>uuid:65E6390686CF11DBA6E2D887CEACB407</stRef:originalDocumentID><stRef:renditionClass>proof:pdf</stRef:renditionClass></xmpMM:DerivedFrom><xmpMM:History><rdf:Seq><rdf:li rdf:parseType="Resource"><stEvt:action>saved</stEvt:action><stEvt:instanceID>xmp.iid:8A07AA7AFA65E711A588CAE2881F51E6</stEvt:instanceID><stEvt:when>2017-07-11T15:54:47+09:00</stEvt:when><stEvt:softwareAgent>Adobe Illustrator CS6 (Windows)</stEvt:softwareAgent><stEvt:changed>/</stEvt:changed></rdf:li></rdf:Seq></xmpMM:History></rdf:Description><rdf:Description xmlns:illustrator="http://ns.adobe.com/illustrator/1.0/"><illustrator:StartupProfile>Web</illustrator:StartupProfile></rdf:Description><rdf:Description xmlns:xmpTPg="http://ns.adobe.com/xap/1.0/t/pg/" xmlns:stDim="http://ns.adobe.com/xap/1.0/sType/Dimensions#" xmlns:xmpG="http://ns.adobe.com/xap/1.0/g/"><xmpTPg:NPages>1</xmpTPg:NPages><xmpTPg:HasVisibleTransparency>False</xmpTPg:HasVisibleTransparency><xmpTPg:HasVisibleOverprint>False</xmpTPg:HasVisibleOverprint><xmpTPg:MaxPageSize rdf:parseType="Resource"><stDim:w>54.001953</stDim:w><stDim:h>44.206543</stDim:h><stDim:unit>Pixels</stDim:unit></xmpTPg:MaxPageSize><xmpTPg:PlateNames><rdf:Seq><rdf:li>Cyan</rdf:li><rdf:li>Magenta</rdf:li><rdf:li>Yellow</rdf:li><rdf:li>Black</rdf:li></rdf:Seq></xmpTPg:PlateNames><xmpTPg:SwatchGroups><rdf:Seq><rdf:li rdf:parseType="Resource"><xmpG:groupName>初期設定のスウォッチグループ</xmpG:groupName><xmpG:groupType>0</xmpG:groupType><xmpG:Colorants><rdf:Seq><rdf:li rdf:parseType="Resource"><xmpG:swatchName>ホワイト</xmpG:swatchName><xmpG:mode>RGB</xmpG:mode><xmpG:type>PROCESS</xmpG:type><xmpG:red>255</xmpG:red><xmpG:green>255</xmpG:green><xmpG:blue>255</xmpG:blue></rdf:li><rdf:li rdf:parseType="Resource"><xmpG:swatchName>ブラック</xmpG:swatchName><xmpG:mode>RGB</xmpG:mode><xmpG:type>PROCESS</xmpG:type><xmpG:red>0</xmpG:red><xmpG:green>0</xmpG:green><xmpG:blue>0</xmpG:blue></rdf:li><rdf:li rdf:parseType="Resource"><xmpG:swatchName>RGB レッド</xmpG:swatchName><xmpG:mode>RGB</xmpG:mode><xmpG:type>PROCESS</xmpG:type><xmpG:red>255</xmpG:red><xmpG:green>0</xmpG:green><xmpG:blue>0</xmpG:blue></rdf:li><rdf:li rdf:parseType="Resource"><xmpG:swatchName>RGB イエロー</xmpG:swatchName><xmpG:mode>RGB</xmpG:mode><xmpG:type>PROCESS</xmpG:type><xmpG:red>255</xmpG:red><xmpG:green>255</xmpG:green><xmpG:blue>0</xmpG:blue></rdf:li><rdf:li rdf:parseType="Resource"><xmpG:swatchName>RGB グリーン</xmpG:swatchName><xmpG:mode>RGB</xmpG:mode><xmpG:type>PROCESS</xmpG:type><xmpG:red>0</xmpG:red><xmpG:green>255</xmpG:green><xmpG:blue>0</xmpG:blue></rdf:li><rdf:li rdf:parseType="Resource"><xmpG:swatchName>RGB シアン</xmpG:swatchName><xmpG:mode>RGB</xmpG:mode><xmpG:type>PROCESS</xmpG:type><xmpG:red>0</xmpG:red><xmpG:green>255</xmpG:green><xmpG:blue>255</xmpG:blue></rdf:li><rdf:li rdf:parseType="Resource"><xmpG:swatchName>RGB ブルー</xmpG:swatchName><xmpG:mode>RGB</xmpG:mode><xmpG:type>PROCESS</xmpG:type><xmpG:red>0</xmpG:red><xmpG:green>0</xmpG:green><xmpG:blue>255</xmpG:blue></rdf:li><rdf:li rdf:parseType="Resource"><xmpG:swatchName>RGB マゼンタ</xmpG:swatchName><xmpG:mode>RGB</xmpG:mode><xmpG:type>PROCESS</xmpG:type><xmpG:red>255</xmpG:red><xmpG:green>0</xmpG:green><xmpG:blue>255</xmpG:blue></rdf:li><rdf:li rdf:parseType="Resource"><xmpG:swatchName>R=193 G=39 B=45</xmpG:swatchName><xmpG:mode>RGB</xmpG:mode><xmpG:type>PROCESS</xmpG:type><xmpG:red>193</xmpG:red><xmpG:green>39</xmpG:green><xmpG:blue>45</xmpG:blue></rdf:li><rdf:li rdf:parseType="Resource"><xmpG:swatchName>R=237 G=28 B=36</xmpG:swatchName><xmpG:mode>RGB</xmpG:mode><xmpG:type>PROCESS</xmpG:type><xmpG:red>237</xmpG:red><xmpG:green>28</xmpG:green><xmpG:blue>36</xmpG:blue></rdf:li><rdf:li rdf:parseType="Resource"><xmpG:swatchName>R=241 G=90 B=36</xmpG:swatchName><xmpG:mode>RGB</xmpG:mode><xmpG:type>PROCESS</xmpG:type><xmpG:red>241</xmpG:red><xmpG:green>90</xmpG:green><xmpG:blue>36</xmpG:blue></rdf:li><rdf:li rdf:parseType="Resource"><xmpG:swatchName>R=247 G=147 B=30</xmpG:swatchName><xmpG:mode>RGB</xmpG:mode><xmpG:type>PROCESS</xmpG:type><xmpG:red>247</xmpG:red><xmpG:green>147</xmpG:green><xmpG:blue>30</xmpG:blue></rdf:li><rdf:li rdf:parseType="Resource"><xmpG:swatchName>R=251 G=176 B=59</xmpG:swatchName><xmpG:mode>RGB</xmpG:mode><xmpG:type>PROCESS</xmpG:type><xmpG:red>251</xmpG:red><xmpG:green>176</xmpG:green><xmpG:blue>59</xmpG:blue></rdf:li><rdf:li rdf:parseType="Resource"><xmpG:swatchName>R=252 G=238 B=33</xmpG:swatchName><xmpG:mode>RGB</xmpG:mode><xmpG:type>PROCESS</xmpG:type><xmpG:red>252</xmpG:red><xmpG:green>238</xmpG:green><xmpG:blue>33</xmpG:blue></rdf:li><rdf:li rdf:parseType="Resource"><xmpG:swatchName>R=217 G=224 B=33</xmpG:swatchName><xmpG:mode>RGB</xmpG:mode><xmpG:type>PROCESS</xmpG:type><xmpG:red>217</xmpG:red><xmpG:green>224</xmpG:green><xmpG:blue>33</xmpG:blue></rdf:li><rdf:li rdf:parseType="Resource"><xmpG:swatchName>R=140 G=198 B=63</xmpG:swatchName><xmpG:mode>RGB</xmpG:mode><xmpG:type>PROCESS</xmpG:type><xmpG:red>140</xmpG:red><xmpG:green>198</xmpG:green><xmpG:blue>63</xmpG:blue></rdf:li><rdf:li rdf:parseType="Resource"><xmpG:swatchName>R=57 G=181 B=74</xmpG:swatchName><xmpG:mode>RGB</xmpG:mode><xmpG:type>PROCESS</xmpG:type><xmpG:red>57</xmpG:red><xmpG:green>181</xmpG:green><xmpG:blue>74</xmpG:blue></rdf:li><rdf:li rdf:parseType="Resource"><xmpG:swatchName>R=0 G=146 B=69</xmpG:swatchName><xmpG:mode>RGB</xmpG:mode><xmpG:type>PROCESS</xmpG:type><xmpG:red>0</xmpG:red><xmpG:green>146</xmpG:green><xmpG:blue>69</xmpG:blue></rdf:li><rdf:li rdf:parseType="Resource"><xmpG:swatchName>R=0 G=104 B=55</xmpG:swatchName><xmpG:mode>RGB</xmpG:mode><xmpG:type>PROCESS</xmpG:type><xmpG:red>0</xmpG:red><xmpG:green>104</xmpG:green><xmpG:blue>55</xmpG:blue></rdf:li><rdf:li rdf:parseType="Resource"><xmpG:swatchName>R=34 G=181 B=115</xmpG:swatchName><xmpG:mode>RGB</xmpG:mode><xmpG:type>PROCESS</xmpG:type><xmpG:red>34</xmpG:red><xmpG:green>181</xmpG:green><xmpG:blue>115</xmpG:blue></rdf:li><rdf:li rdf:parseType="Resource"><xmpG:swatchName>R=0 G=169 B=157</xmpG:swatchName><xmpG:mode>RGB</xmpG:mode><xmpG:type>PROCESS</xmpG:type><xmpG:red>0</xmpG:red><xmpG:green>169</xmpG:green><xmpG:blue>157</xmpG:blue></rdf:li><rdf:li rdf:parseType="Resource"><xmpG:swatchName>R=41 G=171 B=226</xmpG:swatchName><xmpG:mode>RGB</xmpG:mode><xmpG:type>PROCESS</xmpG:type><xmpG:red>41</xmpG:red><xmpG:green>171</xmpG:green><xmpG:blue>226</xmpG:blue></rdf:li><rdf:li rdf:parseType="Resource"><xmpG:swatchName>R=0 G=113 B=188</xmpG:swatchName><xmpG:mode>RGB</xmpG:mode><xmpG:type>PROCESS</xmpG:type><xmpG:red>0</xmpG:red><xmpG:green>113</xmpG:green><xmpG:blue>188</xmpG:blue></rdf:li><rdf:li rdf:parseType="Resource"><xmpG:swatchName>R=46 G=49 B=146</xmpG:swatchName><xmpG:mode>RGB</xmpG:mode><xmpG:type>PROCESS</xmpG:type><xmpG:red>46</xmpG:red><xmpG:green>49</xmpG:green><xmpG:blue>146</xmpG:blue></rdf:li><rdf:li rdf:parseType="Resource"><xmpG:swatchName>R=27 G=20 B=100</xmpG:swatchName><xmpG:mode>RGB</xmpG:mode><xmpG:type>PROCESS</xmpG:type><xmpG:red>27</xmpG:red><xmpG:green>20</xmpG:green><xmpG:blue>100</xmpG:blue></rdf:li><rdf:li rdf:parseType="Resource"><xmpG:swatchName>R=102 G=45 B=145</xmpG:swatchName><xmpG:mode>RGB</xmpG:mode><xmpG:type>PROCESS</xmpG:type><xmpG:red>102</xmpG:red><xmpG:green>45</xmpG:green><xmpG:blue>145</xmpG:blue></rdf:li><rdf:li rdf:parseType="Resource"><xmpG:swatchName>R=147 G=39 B=143</xmpG:swatchName><xmpG:mode>RGB</xmpG:mode><xmpG:type>PROCESS</xmpG:type><xmpG:red>147</xmpG:red><xmpG:green>39</xmpG:green><xmpG:blue>143</xmpG:blue></rdf:li><rdf:li rdf:parseType="Resource"><xmpG:swatchName>R=158 G=0 B=93</xmpG:swatchName><xmpG:mode>RGB</xmpG:mode><xmpG:type>PROCESS</xmpG:type><xmpG:red>158</xmpG:red><xmpG:green>0</xmpG:green><xmpG:blue>93</xmpG:blue></rdf:li><rdf:li rdf:parseType="Resource"><xmpG:swatchName>R=212 G=20 B=90</xmpG:swatchName><xmpG:mode>RGB</xmpG:mode><xmpG:type>PROCESS</xmpG:type><xmpG:red>212</xmpG:red><xmpG:green>20</xmpG:green><xmpG:blue>90</xmpG:blue></rdf:li><rdf:li rdf:parseType="Resource"><xmpG:swatchName>R=237 G=30 B=121</xmpG:swatchName><xmpG:mode>RGB</xmpG:mode><xmpG:type>PROCESS</xmpG:type><xmpG:red>237</xmpG:red><xmpG:green>30</xmpG:green><xmpG:blue>121</xmpG:blue></rdf:li><rdf:li rdf:parseType="Resource"><xmpG:swatchName>R=199 G=178 B=153</xmpG:swatchName><xmpG:mode>RGB</xmpG:mode><xmpG:type>PROCESS</xmpG:type><xmpG:red>199</xmpG:red><xmpG:green>178</xmpG:green><xmpG:blue>153</xmpG:blue></rdf:li><rdf:li rdf:parseType="Resource"><xmpG:swatchName>R=153 G=134 B=117</xmpG:swatchName><xmpG:mode>RGB</xmpG:mode><xmpG:type>PROCESS</xmpG:type><xmpG:red>153</xmpG:red><xmpG:green>134</xmpG:green><xmpG:blue>117</xmpG:blue></rdf:li><rdf:li rdf:parseType="Resource"><xmpG:swatchName>R=115 G=99 B=87</xmpG:swatchName><xmpG:mode>RGB</xmpG:mode><xmpG:type>PROCESS</xmpG:type><xmpG:red>115</xmpG:red><xmpG:green>99</xmpG:green><xmpG:blue>87</xmpG:blue></rdf:li><rdf:li rdf:parseType="Resource"><xmpG:swatchName>R=83 G=71 B=65</xmpG:swatchName><xmpG:mode>RGB</xmpG:mode><xmpG:type>PROCESS</xmpG:type><xmpG:red>83</xmpG:red><xmpG:green>71</xmpG:green><xmpG:blue>65</xmpG:blue></rdf:li><rdf:li rdf:parseType="Resource"><xmpG:swatchName>R=198 G=156 B=109</xmpG:swatchName><xmpG:mode>RGB</xmpG:mode><xmpG:type>PROCESS</xmpG:type><xmpG:red>198</xmpG:red><xmpG:green>156</xmpG:green><xmpG:blue>109</xmpG:blue></rdf:li><rdf:li rdf:parseType="Resource"><xmpG:swatchName>R=166 G=124 B=82</xmpG:swatchName><xmpG:mode>RGB</xmpG:mode><xmpG:type>PROCESS</xmpG:type><xmpG:red>166</xmpG:red><xmpG:green>124</xmpG:green><xmpG:blue>82</xmpG:blue></rdf:li><rdf:li rdf:parseType="Resource"><xmpG:swatchName>R=140 G=98 B=57</xmpG:swatchName><xmpG:mode>RGB</xmpG:mode><xmpG:type>PROCESS</xmpG:type><xmpG:red>140</xmpG:red><xmpG:green>98</xmpG:green><xmpG:blue>57</xmpG:blue></rdf:li><rdf:li rdf:parseType="Resource"><xmpG:swatchName>R=117 G=76 B=36</xmpG:swatchName><xmpG:mode>RGB</xmpG:mode><xmpG:type>PROCESS</xmpG:type><xmpG:red>117</xmpG:red><xmpG:green>76</xmpG:green><xmpG:blue>36</xmpG:blue></rdf:li><rdf:li rdf:parseType="Resource"><xmpG:swatchName>R=96 G=56 B=19</xmpG:swatchName><xmpG:mode>RGB</xmpG:mode><xmpG:type>PROCESS</xmpG:type><xmpG:red>96</xmpG:red><xmpG:green>56</xmpG:green><xmpG:blue>19</xmpG:blue></rdf:li><rdf:li rdf:parseType="Resource"><xmpG:swatchName>R=66 G=33 B=11</xmpG:swatchName><xmpG:mode>RGB</xmpG:mode><xmpG:type>PROCESS</xmpG:type><xmpG:red>66</xmpG:red><xmpG:green>33</xmpG:green><xmpG:blue>11</xmpG:blue></rdf:li></rdf:Seq></xmpG:Colorants></rdf:li><rdf:li rdf:parseType="Resource"><xmpG:groupName>グレー</xmpG:groupName><xmpG:groupType>1</xmpG:groupType><xmpG:Colorants><rdf:Seq><rdf:li rdf:parseType="Resource"><xmpG:swatchName>R=0 G=0 B=0</xmpG:swatchName><xmpG:mode>RGB</xmpG:mode><xmpG:type>PROCESS</xmpG:type><xmpG:red>0</xmpG:red><xmpG:green>0</xmpG:green><xmpG:blue>0</xmpG:blue></rdf:li><rdf:li rdf:parseType="Resource"><xmpG:swatchName>R=26 G=26 B=26</xmpG:swatchName><xmpG:mode>RGB</xmpG:mode><xmpG:type>PROCESS</xmpG:type><xmpG:red>26</xmpG:red><xmpG:green>26</xmpG:green><xmpG:blue>26</xmpG:blue></rdf:li><rdf:li rdf:parseType="Resource"><xmpG:swatchName>R=51 G=51 B=51</xmpG:swatchName><xmpG:mode>RGB</xmpG:mode><xmpG:type>PROCESS</xmpG:type><xmpG:red>51</xmpG:red><xmpG:green>51</xmpG:green><xmpG:blue>51</xmpG:blue></rdf:li><rdf:li rdf:parseType="Resource"><xmpG:swatchName>R=77 G=77 B=77</xmpG:swatchName><xmpG:mode>RGB</xmpG:mode><xmpG:type>PROCESS</xmpG:type><xmpG:red>77</xmpG:red><xmpG:green>77</xmpG:green><xmpG:blue>77</xmpG:blue></rdf:li><rdf:li rdf:parseType="Resource"><xmpG:swatchName>R=102 G=102 B=102</xmpG:swatchName><xmpG:mode>RGB</xmpG:mode><xmpG:type>PROCESS</xmpG:type><xmpG:red>102</xmpG:red><xmpG:green>102</xmpG:green><xmpG:blue>102</xmpG:blue></rdf:li><rdf:li rdf:parseType="Resource"><xmpG:swatchName>R=128 G=128 B=128</xmpG:swatchName><xmpG:mode>RGB</xmpG:mode><xmpG:type>PROCESS</xmpG:type><xmpG:red>128</xmpG:red><xmpG:green>128</xmpG:green><xmpG:blue>128</xmpG:blue></rdf:li><rdf:li rdf:parseType="Resource"><xmpG:swatchName>R=153 G=153 B=153</xmpG:swatchName><xmpG:mode>RGB</xmpG:mode><xmpG:type>PROCESS</xmpG:type><xmpG:red>153</xmpG:red><xmpG:green>153</xmpG:green><xmpG:blue>153</xmpG:blue></rdf:li><rdf:li rdf:parseType="Resource"><xmpG:swatchName>R=179 G=179 B=179</xmpG:swatchName><xmpG:mode>RGB</xmpG:mode><xmpG:type>PROCESS</xmpG:type><xmpG:red>179</xmpG:red><xmpG:green>179</xmpG:green><xmpG:blue>179</xmpG:blue></rdf:li><rdf:li rdf:parseType="Resource"><xmpG:swatchName>R=204 G=204 B=204</xmpG:swatchName><xmpG:mode>RGB</xmpG:mode><xmpG:type>PROCESS</xmpG:type><xmpG:red>204</xmpG:red><xmpG:green>204</xmpG:green><xmpG:blue>204</xmpG:blue></rdf:li><rdf:li rdf:parseType="Resource"><xmpG:swatchName>R=230 G=230 B=230</xmpG:swatchName><xmpG:mode>RGB</xmpG:mode><xmpG:type>PROCESS</xmpG:type><xmpG:red>230</xmpG:red><xmpG:green>230</xmpG:green><xmpG:blue>230</xmpG:blue></rdf:li><rdf:li rdf:parseType="Resource"><xmpG:swatchName>R=242 G=242 B=242</xmpG:swatchName><xmpG:mode>RGB</xmpG:mode><xmpG:type>PROCESS</xmpG:type><xmpG:red>242</xmpG:red><xmpG:green>242</xmpG:green><xmpG:blue>242</xmpG:blue></rdf:li></rdf:Seq></xmpG:Colorants></rdf:li><rdf:li rdf:parseType="Resource"><xmpG:groupName>Web カラーグループ</xmpG:groupName><xmpG:groupType>1</xmpG:groupType><xmpG:Colorants><rdf:Seq><rdf:li rdf:parseType="Resource"><xmpG:swatchName>R=63 G=169 B=245</xmpG:swatchName><xmpG:mode>RGB</xmpG:mode><xmpG:type>PROCESS</xmpG:type><xmpG:red>63</xmpG:red><xmpG:green>169</xmpG:green><xmpG:blue>245</xmpG:blue></rdf:li><rdf:li rdf:parseType="Resource"><xmpG:swatchName>R=122 G=201 B=67</xmpG:swatchName><xmpG:mode>RGB</xmpG:mode><xmpG:type>PROCESS</xmpG:type><xmpG:red>122</xmpG:red><xmpG:green>201</xmpG:green><xmpG:blue>67</xmpG:blue></rdf:li><rdf:li rdf:parseType="Resource"><xmpG:swatchName>R=255 G=147 B=30</xmpG:swatchName><xmpG:mode>RGB</xmpG:mode><xmpG:type>PROCESS</xmpG:type><xmpG:red>255</xmpG:red><xmpG:green>147</xmpG:green><xmpG:blue>30</xmpG:blue></rdf:li><rdf:li rdf:parseType="Resource"><xmpG:swatchName>R=255 G=29 B=37</xmpG:swatchName><xmpG:mode>RGB</xmpG:mode><xmpG:type>PROCESS</xmpG:type><xmpG:red>255</xmpG:red><xmpG:green>29</xmpG:green><xmpG:blue>37</xmpG:blue></rdf:li><rdf:li rdf:parseType="Resource"><xmpG:swatchName>R=255 G=123 B=172</xmpG:swatchName><xmpG:mode>RGB</xmpG:mode><xmpG:type>PROCESS</xmpG:type><xmpG:red>255</xmpG:red><xmpG:green>123</xmpG:green><xmpG:blue>172</xmpG:blue></rdf:li><rdf:li rdf:parseType="Resource"><xmpG:swatchName>R=189 G=204 B=212</xmpG:swatchName><xmpG:mode>RGB</xmpG:mode><xmpG:type>PROCESS</xmpG:type><xmpG:red>189</xmpG:red><xmpG:green>204</xmpG:green><xmpG:blue>212</xmpG:blue></rdf:li></rdf:Seq></xmpG:Colorants></rdf:li></rdf:Seq></xmpTPg:SwatchGroups></rdf:Description><rdf:Description xmlns:pdf="http://ns.adobe.com/pdf/1.3/"><pdf:Producer>Adobe PDF library 10.01</pdf:Producer></rdf:Description></rdf:RDF></x:xmpmeta><?xpacket end="w"?></metadata><g><g fill="#210701"><path d="M4.68 4.004c-2.262 0-3.016.052-3.276.078-.077 0-.468.052-.546.052-.104 0-.156-.052-.233-.156L.13 3.38C.078 3.302 0 3.25 0 3.198c0-.026.052-.052.104-.052.182 0 .988.078 1.145.078 1.273.078 2.34.104 3.562.104h1.664c.572 0 .832-.104.832-.832 0-.806-.052-1.196-.104-1.586-.027-.104-.157-.572-.157-.676 0-.078.078-.234.311-.234.104 0 2.496.364 2.496.754 0 .13-.052.182-.468.546-.233.182-.26.286-.26.936 0 1.066.208 1.092.988 1.092h3.64c.78 0 .78-.468.78-.858 0-.312 0-1.17-.052-1.56-.026-.13-.208-.624-.208-.728 0-.13.104-.182.26-.182.13 0 2.652.416 2.652.962 0 .234-.13.312-.494.546-.338.208-.338 1.04-.338 1.17 0 .65.571.65.806.65h1.43c1.145 0 1.274 0 1.664-.442.729-.858.807-.962 1.041-.962.155 0 2.418 1.404 2.418 1.716 0 .364-.521.364-1.379.364h-5.199c-.313 0-.832.078-.832.754 0 .208.052 1.066.052 1.222 0 .39 0 1.326-1.093 1.326-.884 0-.884-.338-.884-.546 0-.156.13-1.56.13-1.846 0-.572-.052-.91-.754-.91H10.14c-.546 0-.962.026-.962.78 0 .26.026 1.326 0 1.534-.078.728-.858.884-1.092.884-.702 0-.702-.468-.702-.858 0-2.106 0-2.34-.884-2.34H4.68zm-1.118 9.907C2.184 15.419.495 17.005.26 17.005c-.052 0-.078-.052-.078-.104 0-.078 1.145-1.586 1.326-1.846.572-.832 4.16-5.98 4.16-7.696 0-.364 0-.442.182-.442.104 0 2.496.676 2.496 1.3 0 .312-.26.416-.598.546-.286.104-1.092 1.352-1.092 1.534 0 .156.052.208.624.78.182.182.182.182.182.286 0 .182-.624.728-.676.884-.052.234-.052 4.394-.052 4.914 0 .806-.026 5.408-.078 5.772-.078.416-.729.754-1.248.754-.442 0-.624-.182-.624-.572 0-1.04.13-5.59.13-6.526 0-1.04-.026-2.418-.026-3.484 0-.364 0-.468-.208-.416-.13.025-.936 1.04-1.118 1.222zm10.348-.469c0 .286.078.676.364.676.494 0 4.914-3.354 5.252-4.888.052-.208.104-.234.182-.234.156 0 2.236 1.898 2.236 2.262 0 .39-.13.416-1.274.598-.416.078-.962.494-1.325.676-.78.39-4.889 2.314-4.992 2.392-.391.313-.416.78-.416 2.08 0 3.979 0 4.03 3.198 4.03 4.004 0 4.107-.39 5.018-3.458.026-.078.26-.91.338-.91s.104.156.156.546c.052.416.286 2.418.442 2.704.104.182.676.858.676 1.04 0 .91-1.872 1.795-5.746 1.795-5.746 0-5.746-.989-5.772-3.641-.026-1.508-.052-8.165-.104-9.517-.026-1.014-.234-1.69-.313-1.898-.026-.052-.104-.156-.104-.234 0-.13.13-.156.207-.156.078 0 2.314.52 2.393.572.104.052.26.13.26.286 0 .208-.078.26-.416.546a.642.642 0 00-.208.416c-.052.416-.052 2.366-.052 2.912v1.405zM36.607 13c-.286 0-.676 0-.78.416-.13.442-.312 1.118-1.43 1.118-.546 0-.676-.39-.676-.832 0-.182.104-1.014.104-1.17.026-.234.052-.702.052-1.378 0-1.898-.077-2.548-.155-3.224-.026-.156-.156-.78-.156-.936 0-.286.156-.39.364-.39.39 0 .884.234 1.195.39.131.078.469.26.91.26h3.822c.832 0 .832-.338.832-1.976 0-1.118 0-1.378-.91-1.378H35.1c-1.898 0-2.809.052-3.276.078-.078 0-.468.052-.546.052-.104 0-.156-.052-.234-.156l-.494-.598c-.104-.13-.13-.13-.13-.182 0-.026.053-.052.104-.052.182 0 .988.078 1.144.078 1.274.052 2.341.104 3.563.104h4.576c.338 0 .806 0 .806-.702 0-.338-.052-.962-.104-1.378-.026-.104-.13-.65-.13-.754 0-.13.13-.286.52-.286.91 0 2.314.494 2.314.91 0 .13-.468.52-.521.624-.13.208-.208.65-.208.91 0 .676.469.676.807.676h4.602c1.171 0 1.301 0 1.639-.52.52-.832.728-1.144 1.17-1.144s2.496 1.404 2.496 1.898c0 .442-.416.442-1.404.442H43.29c-.884 0-.884.208-.884 1.95 0 1.118 0 1.404.857 1.404h3.51c.183 0 .494 0 .755-.312.441-.468.468-.494.676-.494.156 0 1.924.754 1.924 1.3 0 .234-.026.26-.52.624-.234.208-.234.312-.234 1.222 0 .546.104 2.912.104 3.38 0 .962-.65 1.274-1.196 1.274-.65 0-.78-.442-.832-.65-.13-.519-.312-.598-.806-.598h-3.146c-.13 0-.286 0-.286.182 0 .442 3.692 4.758 7.931 6.11 1.508.468 1.976.572 2.703.702.131.026.156.052.156.104 0 .13-.624.26-.728.286-.729.312-.884.468-1.82 1.378-.208.208-.234.208-.338.208-.234 0-3.146-1.326-5.668-4.29-1.145-1.352-2.21-2.834-2.887-4.472 0-.052-.025-.104-.078-.104-.104 0-.104.156-.104.182v2.548c0 .988.208 5.616.208 6.318 0 1.378-1.274 1.534-1.404 1.534-.624 0-.65-.65-.65-.962 0-1.092.234-5.876.234-6.838 0-.13 0-.338-.234-.338-.155 0-.312.104-.416.208-1.716 1.742-4.29 4.187-7.644 5.668-.468.208-1.482.65-1.898.65-.026 0-.078 0-.078-.026 0-.052.364-.26.442-.312 4.55-2.704 8.762-7.853 8.762-8.477 0-.26-.285-.26-.416-.26h-2.678zm3.199-.675c.858 0 .858-.182.858-2.444 0-1.742 0-1.95-.858-1.95h-3.328c-.832 0-.832.39-.832 1.118 0 3.276.104 3.276.91 3.276h3.25zm6.89 0c.155 0 .624 0 .754-.416.078-.26.13-2.626.13-2.86 0-.754 0-1.118-.807-1.118h-3.588c-.806 0-.806.312-.806 1.43 0 2.886 0 2.964.832 2.964h3.485z"/></g><g fill="#4A1F00"><path d="M7.183 33.497c1.343 0 3.046.444 3.046 1.931 0 .936-.696 1.655-1.452 1.943-.072.023-.288.107-.288.168 0 .06.504.168.6.203 1.032.408 1.643 1.248 1.643 2.088 0 1.139-1.02 2.41-3.262 2.41H3.453c-.18 0-.36 0-.36-.191 0-.192.18-.192.372-.192.396 0 .924 0 1.032-.624.048-.239.072-3.621.072-4.09 0-.527.012-2.482-.108-2.807-.156-.443-.72-.443-.839-.443-.396 0-.528 0-.528-.203 0-.192.12-.192.468-.192h3.621zm-1.404 4.305c-.084 0-.228.048-.276.156-.048.107-.048 1.811-.048 2.086 0 1.308 0 1.812.875 1.812h1.043c1.295 0 2.219-.731 2.219-1.991 0-1.055-.72-2.063-2.183-2.063h-1.63zm1.296-.384c1.127 0 2.039-.6 2.039-1.823 0-1.163-.803-1.703-1.931-1.703h-.852c-.864 0-.864.54-.864 1.584 0 .6 0 1.679.036 1.787.048.107.204.155.276.155h1.296zm7.668-1.067c1.535 0 2.65 1.331 2.65 3.059 0 1.727-1.115 3.059-2.65 3.059s-2.651-1.344-2.651-3.059c0-1.703 1.092-3.059 2.651-3.059zm0 5.793c1.007 0 1.631-1.295 1.631-2.734 0-1.463-.636-2.734-1.631-2.734-.912 0-1.631 1.115-1.631 2.734 0 1.415.612 2.734 1.631 2.734zm8.519.096c-.132 0-.228-.096-.228-.24-.012-.275-.012-.359-.108-.359-.072 0-.312.24-.372.275-.156.108-.743.553-1.463.553-.348 0-1.619-.121-1.703-1.859-.012-.252.012-1.476.012-1.752 0-.287 0-1.582-.06-1.738-.048-.132-.18-.156-.3-.156-.048 0-.3.024-.36.024-.084 0-.12-.06-.12-.108 0-.096.048-.107.48-.228.36-.108 1.067-.3 1.091-.3a.11.11 0 01.108.096c0 .012.012 3.119.012 3.467 0 .707 0 1.02.12 1.33.192.492.624.708 1.043.708.516 0 1.271-.432 1.487-.876.156-.299.168-2.135.168-2.554 0-1.188 0-1.56-.456-1.56-.06 0-.348.036-.408.036-.12 0-.144-.071-.144-.096 0-.132.084-.156.875-.349.204-.047.792-.203.84-.203s.096.048.108.096c.024.096 0 2.039 0 2.423 0 .312.024 1.847.024 2.194 0 .252 0 .779.6.779.144 0 .324 0 .324.205 0 .084-.06.191-.204.191h-1.366zm6.108 1.967c-.132 0-.3 0-.3-.203 0-.192.12-.192.491-.192.6 0 .721-.288.721-.948 0-.73 0-.814-.168-.814-.084 0-.108.012-.313.119-.264.145-.768.301-1.295.301-1.5 0-2.399-1.596-2.399-3.167 0-1.858 1.139-2.95 2.387-2.95.312 0 .671.072 1.031.252.107.048.588.336.707.336.204 0 .42-.229.527-.372.156-.192.181-.216.252-.216.121 0 .121.061.121.264 0 .779-.013 4.642-.013 5.518 0 1.57 0 1.679.911 1.679.133 0 .24.06.24.192 0 .203-.18.203-.3.203h-2.6zm.779-2.819c.145-.24.133-.455.133-2.015 0-1.343 0-1.667-.229-1.955-.216-.276-.756-.552-1.235-.552-1.104 0-1.703 1.151-1.703 2.555 0 1.559.72 2.53 1.644 2.53.263.001 1.079-.024 1.39-.563zm7.657.852c-.133 0-.229-.096-.229-.24-.012-.275-.012-.359-.107-.359-.072 0-.313.24-.372.275-.155.108-.743.553-1.463.553-.348 0-1.619-.121-1.703-1.859-.013-.252.012-1.476.012-1.752 0-.287 0-1.582-.06-1.738-.049-.132-.18-.156-.3-.156-.048 0-.3.024-.36.024-.084 0-.119-.06-.119-.108 0-.096.047-.107.479-.228.359-.108 1.067-.3 1.091-.3a.11.11 0 01.108.096c0 .012.012 3.119.012 3.467 0 .707 0 1.02.12 1.33.191.492.623.708 1.043.708.516 0 1.271-.432 1.488-.876.155-.299.168-2.135.168-2.554 0-1.188 0-1.56-.457-1.56-.06 0-.348.036-.407.036-.12 0-.144-.071-.144-.096 0-.132.084-.156.875-.349.204-.047.792-.203.84-.203s.096.048.107.096c.024.096 0 2.039 0 2.423 0 .312.024 1.847.024 2.194 0 .252 0 .779.6.779.144 0 .323 0 .323.205a.19.19 0 01-.203.191h-1.366zm4.273-3.143c-.156 0-.384 0-.384.385 0 1.463.995 2.47 1.991 2.47.551 0 1.079-.323 1.451-.671.072-.061.348-.469.455-.469.061 0 .12.061.12.156 0 .264-.839 1.5-2.423 1.5-1.679 0-2.626-1.332-2.626-3.07 0-1.992 1.235-3.047 2.542-3.047 1.859 0 2.387 1.967 2.387 2.471 0 .216-.119.275-.359.275h-3.154zm2.207-.395c.264 0 .396-.06.396-.348 0-.456-.432-1.679-1.438-1.679-1.116 0-1.464 1.498-1.464 1.763 0 .264.204.264.312.264h2.194zm3.098-1.74c-.132 0-.324 0-.324-.191 0-.156.061-.168.408-.217.191-.023 1.199-.264 1.199-1.799 0-.107 0-.275.156-.275.191 0 .191.18.191.252v1.547c0 .108.036.3.301.3h1.271c.12 0 .336.024.336.192 0 .072-.071.191-.323.191h-1.283c-.037 0-.217.012-.276.156-.048.132-.048 1.475-.048 1.715 0 .359 0 2.279.035 2.447.156.671.708.671.828.671.252 0 .539-.096.804-.3.071-.048.348-.324.432-.324.048 0 .071.049.071.097 0 .216-.742 1.044-1.75 1.044-1.26 0-1.26-.948-1.26-2.16 0-.035.023-2.638 0-3.045 0-.061-.012-.301-.3-.301h-.468z"/></g></g></svg>