<?xml version="1.0" encoding="utf-8"?>
<!-- Generator: Adobe Illustrator 25.2.3, SVG Export Plug-In . SVG Version: 6.00 Build 0)  -->
<svg version="1.1" id="レイヤー_1" xmlns="http://www.w3.org/2000/svg" xmlns:xlink="http://www.w3.org/1999/xlink" x="0px"
	 y="0px" viewBox="0 0 223.3 419" style="enable-background:new 0 0 223.3 419;" xml:space="preserve">
<style type="text/css">
	.st0{fill:#200701;}
	.st1{fill:none;stroke:#76544B;stroke-miterlimit:10;}
	.st2{fill:#231815;}
</style>
<g>
	<path class="st0" d="M200.7,124.7c0-1.2,0-1.5-0.1-2.5c3,0.4,3,0.4,3,0.7c0,0.2-0.2,0.3-1.1,0.6v1.2h1.5c0.7-0.8,0.9-1,1.6-1.8
		c1.1,0.9,1.4,1.1,2.4,2c0.1,0.1,0.1,0.2,0.1,0.2c0,0.1-0.1,0.2-0.2,0.2h-5.4v4.2c0,0.3,0,0.5,0.1,3.2c0,0.1,0,0.1,0,0.2
		c0,0.6-0.1,0.9-0.5,1.2c-0.6,0.4-1.3,0.6-3,0.9c-0.3-0.7-0.4-1-0.8-1.3c-0.3-0.2-0.8-0.3-1.4-0.4c-0.2,0-0.2,0-2-0.2v-0.5
		c2.5,0.2,3.4,0.2,5.5,0.2c0.3,0,0.4-0.1,0.4-0.5l-0.1-7h-8.6c-0.8,1.5-1.6,2.6-2.7,3.9c-1.9,2.2-3.3,3.4-5.8,4.9l-0.2-0.4
		c2.4-2,3.8-3.5,5.4-5.9c0.6-0.8,1-1.6,1.5-2.5h-4.1c-1.1,0-1.7,0.1-2.5,0.2l-0.2-1.1c0.8,0.2,1.6,0.3,2.8,0.3h4.4
		c0.6-1.2,0.8-1.9,1.3-3.2h-6.2c-0.9,0-1.6,0.1-2.1,0.2l-0.2-1.1c0.8,0.2,1.5,0.3,2.5,0.3h6.3c0.3-1.1,0.5-1.9,0.7-3.2h-4.5
		c-1.4,0-1.9,0-2.6,0.1l-0.2-1c0.8,0.2,1.5,0.3,2.9,0.3h4.6c0.2-1.2,0.3-1.7,0.4-3.1h-7.1c-1,0-1.5,0.1-2.1,0.2l-0.2-1.1
		c0.8,0.2,1.5,0.3,2.3,0.3h7.2c0.1-1.1,0.1-2.1,0.1-2.9c0-0.2,0-0.5,0-0.8c2.9,0.3,3.2,0.4,3.2,0.7c0,0.3-0.3,0.4-1.2,0.7
		c-0.1,1.2-0.1,1.6-0.1,2.4h8c0.7-0.9,0.9-1.1,1.7-1.8c1.1,0.9,1.5,1.1,2.6,2.1c0.1,0.1,0.1,0.2,0.1,0.3s-0.1,0.2-0.3,0.2h-12.1
		c-0.1,1.2-0.2,1.8-0.4,3.1h7.1c0.7-0.8,0.9-1.1,1.6-1.8c1.1,0.9,1.5,1.1,2.5,2c0.1,0.1,0.2,0.2,0.2,0.3c0,0.1-0.1,0.2-0.3,0.2
		h-11.3c-0.3,1.3-0.4,2-0.8,3.2h9.9c0.8-0.8,1-1.1,1.8-1.8c1.1,0.9,1.4,1.1,2.4,2.1c0.1,0.1,0.1,0.2,0.1,0.2c0,0.1-0.1,0.1-0.2,0.1
		h-14.2c-0.4,1.1-0.7,2.1-1.3,3.2H200.7z M192.5,126.4c3.5,1.6,4.6,2.4,4.6,3.3c0,0.8-0.5,1.7-0.9,1.7c-0.3,0-0.3-0.1-0.8-0.9
		c-0.7-1.3-1.6-2.4-3.1-3.8L192.5,126.4z"/>
	<path class="st0" d="M194.5,161.2c0-0.8,0-1.1-0.1-1.9c2.7,0.3,2.8,0.4,2.8,0.6c0,0.2-0.2,0.3-0.9,0.6v1.6h7.6
		c0.8-0.8,1-1.1,1.7-1.8c1.1,0.9,1.5,1.1,2.6,2.1c0.1,0.1,0.1,0.2,0.1,0.3c0,0.1-0.1,0.2-0.3,0.2h-11.3c1.1,1.2,2.5,2.2,4.3,3
		c2.3,1.1,4.2,1.5,7.5,1.7v0.4c-0.9,0.4-1.3,1-1.7,2.2c-3.2-1-5.1-1.8-7.2-3.5c-1.2-1-2.1-1.8-3.4-3.4l0,3.9c0,2,0,2,0.1,4.1
		c0,0.3-0.4,0.4-1.6,0.4c-0.2,0-0.3-0.1-0.3-0.3c0-0.4,0-1.8,0.1-4.1l0-3.3c-1.8,1.7-3.1,2.7-5.6,4.1c-2,1.1-3.3,1.7-5.7,2.4
		l-0.2-0.3c3.3-1.7,4.9-2.7,6.9-4.2c1.3-1,2-1.7,3.1-2.9h-7c-0.8,0-1.3,0-2.1,0.2l-0.2-1c0.8,0.1,1.4,0.2,2.2,0.2h8.4V161.2z
		 M190.8,155.2c-1.8,1.4-3.2,2.4-5.4,3.7c0,1-0.1,1.3-0.4,1.3c-0.2,0-0.6-0.6-1.5-2.7c1.7-0.4,4.8-1.6,7.1-2.6L190.8,155.2z
		 M184.6,147.6c1.5,0.6,2.6,1.2,3.8,2c0.9,0.6,1.2,1,1.2,1.6c0,0.4-0.1,1-0.3,1.4c-0.1,0.3-0.3,0.5-0.5,0.5c-0.2,0-0.3-0.1-0.5-0.4
		c-1.1-1.9-2.1-3.1-3.9-4.7L184.6,147.6z M197.7,149.3c0.4-0.5,0.6-0.7,1-1.1c0.7,0.4,0.9,0.6,1.6,1.1c0.2,0.1,0.3,0.3,0.3,0.3
		c0,0.1-0.2,0.3-0.8,0.7c0,5.4,0,6.1,0.1,8.7c0,0.2-0.1,0.3-0.2,0.3c-0.2,0.1-0.9,0.1-1.3,0.1c-0.3,0-0.4-0.1-0.4-0.4v-1.1h-5v1.3
		c0,0.1,0,0.2-0.2,0.3c-0.2,0.1-0.8,0.1-1.2,0.1c-0.3,0-0.4-0.1-0.4-0.4c0.1-1.7,0.1-2.5,0.1-4.8c0-3.9,0-4.6-0.1-6.3
		c0.9,0.4,1.2,0.6,2.1,1.1h0.8c0.3-1.4,0.4-2.3,0.4-3.6c3,0.6,3.1,0.6,3.1,0.9c0,0.2-0.3,0.3-1.3,0.5c-0.8,1.2-1,1.5-1.6,2.2H197.7z
		 M197.9,153.4V150h-5v3.4H197.9z M192.9,154v3.4h5V154H192.9z M205.8,148.1c1.1,0.6,1.6,0.8,1.6,1.1c0,0.3-0.3,0.4-1.6,0.4
		c-1.7,1.6-3.1,2.7-5.1,4.1l-0.4-0.3c2.1-2.4,3.3-4.1,4.2-5.9L205.8,148.1z M200.9,154.8c2.8,0.8,4.3,1.3,5.3,1.9
		c0.6,0.3,0.8,0.8,0.8,1.6c0,0.8-0.2,1.3-0.4,1.3c-0.2,0-0.3-0.1-1-0.8c-1-1-2.8-2.4-4.9-3.7L200.9,154.8z"/>
	<path class="st0" d="M204.9,194.8c0.4-0.4,0.8-0.9,1.3-1.4c0.9,0.6,1.1,0.8,2,1.6c0.3,0.3,0.3,0.4,0.3,0.5c0,0.2-0.2,0.3-1.6,0.6
		c-0.7,0.8-0.8,0.8-2,2l-0.3-0.2c0.3-0.9,0.4-1.2,0.6-2.5h-19.4c-0.1,1.2-0.3,1.9-0.7,2.7c-0.5,1-0.9,1.5-1.3,1.5
		c-0.6,0-1.1-0.8-1.1-1.7c0-0.3,0.1-0.4,0.6-0.7c0.3-0.2,1-1,1.3-1.4c0.4-0.6,0.6-1.2,0.8-2.4h0.4c0,0.4,0,0.4,0,0.7
		c0,0.2,0,0.4,0,0.7H204.9z M203.9,185.2c0.7-0.9,0.9-1.1,1.6-2c1.1,0.9,1.5,1.2,2.6,2.2c0.1,0.1,0.2,0.2,0.2,0.3s-0.1,0.2-0.2,0.2
		h-22.3c-1.6,0.1-2.4,0.2-2.5,0.2l-0.3-1.1c0.7,0.1,2,0.3,2.7,0.3h8.7v-1.5c0-0.3,0-0.3-0.1-1.7c2.6,0.3,3.1,0.4,3.1,0.7
		c0,0.2-0.3,0.4-1.1,0.6v1.8H203.9z M196.8,202.4c0,2,0,2,0,2.3c0,0.2,0,0.4,0,0.7c0,0.9-0.2,1.3-0.7,1.6c-0.5,0.3-1.2,0.5-2.6,0.7
		c-0.2-0.7-0.4-1-0.8-1.3c-0.3-0.2-0.8-0.4-1.5-0.5c-0.1,0-0.5-0.1-1.5-0.2l0-0.5c2.5,0.2,2.9,0.2,4.5,0.3c0.4,0,0.5-0.1,0.5-0.4
		v-6.1h-5.7c-0.4,0-1.6,0.1-2.4,0.3l-0.3-1.1c0.7,0.1,0.7,0.1,2.7,0.3h11.5c0.6-0.8,0.7-1,1.3-1.7c1,0.8,1.4,1,2.4,1.9
		c0.1,0.1,0.1,0.2,0.1,0.3c0,0.1-0.1,0.2-0.3,0.2h-7.4V202.4z M201.2,187.9c0.4-0.5,0.6-0.6,1-1.1c0.6,0.5,0.8,0.6,1.4,1.1
		c0.3,0.2,0.3,0.3,0.3,0.4c0,0.2-0.2,0.4-0.9,0.7c0,2.2,0,2.4,0.1,4c0,0.2-0.1,0.3-0.2,0.3c-0.2,0.1-0.7,0.1-1.1,0.1
		c-0.4,0-0.5-0.1-0.5-0.3v-0.6h-11.6v0.8c0,0,0,0.1,0,0.1c0,0.3-0.2,0.3-1,0.4c-0.2,0-0.3,0-0.3,0c0,0-0.1,0-0.1,0
		c-0.3,0-0.4-0.1-0.4-0.3c0,0,0,0,0-0.1c0.1-2,0.1-2.6,0.1-4.1c0-0.9,0-1.5-0.1-2.5c1,0.5,1,0.5,2.1,1.1H201.2z M189.7,191.9h11.6
		v-3.4h-11.6V191.9z"/>
</g>
<line class="st1" x1="195.5" y1="17.6" x2="195.5" y2="77.6"/>
<g>
	<g>
		<path class="st2" d="M120.9,117.5c2.3-1.6,3.5-2.8,5-4.6c0.8-1,1.7-2.2,2.2-3c0.2-0.3,0.3-0.4,0.4-0.9c0.9,0.2,1.7,0.3,1.9,0.4
			c0.1,0,0.2,0.1,0.2,0.2c0,0.1-0.2,0.2-0.8,0.3c0.5,0.8,0.8,1.2,1.6,2c1.3,1.3,2.6,2.3,4.2,3.1c0.9,0.5,1.4,0.7,2.3,0.9v0.3
			c-0.8,0.2-1,0.4-1.4,1.3c-0.9-0.5-1.3-0.8-2.2-1.5c-1.4-1.2-2.6-2.5-3.4-3.6c-0.4-0.6-0.8-1.1-1.4-2.2c-1.7,2.3-2.8,3.5-4.3,4.8
			c-1.4,1.2-2.6,2-4.2,2.8L120.9,117.5z M123.3,118c0.8,0.1,1,0.1,1.7,0.1h7.7c0.3-0.4,0.4-0.5,0.7-0.8c0.5,0.4,0.6,0.5,1.1,0.8
			c0.1,0.1,0.2,0.2,0.2,0.3c0,0.1-0.1,0.3-0.7,0.5c-0.3,0.5-0.3,0.5-1.5,3.2c-0.4,0.8-0.9,1.6-1.7,3c-0.1,0.1-0.2,0.2-0.3,0.2
			c-0.3,0-1-0.1-1.1-0.1c-0.1,0-0.1-0.1-0.1-0.1c0,0,0-0.1,0.1-0.2c1.2-1.8,2.3-3.8,3.4-6.2h-7.9c-0.6,0-0.8,0-1.4,0.1L123.3,118z
			 M125.5,115.1c0.4,0.1,0.8,0.1,1.5,0.1h3.7c0.4-0.5,0.5-0.6,0.9-1c0.6,0.5,0.8,0.7,1.5,1.3c0.1,0.1,0.1,0.1,0.1,0.1
			c0,0.1,0,0.1-0.2,0.1h-6.2c-0.6,0-0.7,0-1.2,0.1L125.5,115.1z"/>
		<path class="st2" d="M126.2,135c-1.3,0.4-1.9,0.7-2.3,0.9c-0.3,0.2-0.4,0.2-0.5,0.2c-0.2,0-0.6-0.2-0.8-0.5
			c-0.3-0.4-0.6-1-0.6-1.4c0-0.1,0-0.2,0.1-0.4c0.4,0.8,0.7,1,1.4,1c0.4,0,1.6-0.3,3.1-0.6c0.4-1,0.7-2.3,0.7-3
			c0-0.6-0.3-0.9-1.4-1.2c0.2-0.1,0.3-0.2,0.5-0.2c0.3,0,0.7,0.1,1.2,0.2c0.8,0.2,1.3,0.6,1.3,0.9c0,0.1,0,0.2-0.3,0.5
			c-0.3,0.4-0.6,1.2-1.2,2.4c0.8-0.2,1.1-0.2,1.6-0.2c1.5,0,2.3,0.9,2.3,2.8c0,2.3-0.9,5.3-2,6.5c-0.5,0.5-1.2,0.8-1.7,0.8
			c-0.3,0-0.5-0.1-0.5-0.4c-0.1-0.5-0.1-0.5-2-2.1l0.2-0.2c1.4,0.8,2.4,1.2,2.8,1.2c0.4,0,0.7-0.4,1.2-1.5c0.6-1.5,1.1-3.5,1.1-4.8
			c0-1.2-0.3-1.6-1.3-1.6c-0.5,0-0.9,0.1-1.9,0.4c-0.3,0.6-0.3,0.6-1,2.4c-0.1,0.2-0.4,1-1.1,2.5c-0.7,1.7-1.3,3-1.6,3.5
			c-0.1,0.2-0.3,0.3-0.4,0.3c-0.3,0-0.5-0.5-0.5-1.2c0-0.5,0.1-0.6,0.4-1c0.4-0.4,0.8-1.2,1.3-2.1c0.7-1.3,0.7-1.3,1.4-3L126.2,135z
			 M133.2,133.8c1.4,0.4,2.5,1.1,3.3,2.2c0.7,0.9,1,1.7,1,2.6c0,0.6-0.3,1-0.7,1c-0.1,0-0.2,0-0.4-0.1c-0.3-0.2-0.4-0.2-0.7-0.2
			c-0.6,0-0.7,0-2.3,0.2l-0.1-0.3c1.8-0.6,2.2-0.7,2.8-0.9c-0.1-0.6-0.2-1.1-0.6-1.7c-0.6-1.1-1.3-1.8-2.5-2.4L133.2,133.8z"/>
		<path class="st2" d="M127.3,149.1c0.6,0.9,1.1,1.2,2.3,1.6c0.3,0.1,0.9,0.3,1.3,0.3c0.3,0.1,0.5,0.2,0.7,0.5
			c0.3,0.3,0.4,0.6,0.4,0.8s-0.2,0.4-0.4,0.4c-0.1,0-0.1,0-0.4-0.1c-0.3,0-0.5-0.1-0.9-0.1c-0.9,0-2.3,0.2-3.4,0.5
			c-0.5,0.1-0.7,0.2-0.8,0.3c-0.1,0.1-0.2,0.3-0.2,0.5c0,0.1,0,0.3,0.1,0.5c0.1,0.3,0.1,0.4,0.1,0.6c0,0.1,0,0.3-0.1,0.6
			c-0.1,1-0.3,2.4-0.3,3.7c2.2-1.5,4.2-2.2,5.9-2.2c2,0,3.4,1.2,3.4,2.8c0,1.7-1.3,3.1-3.5,3.8c-1.2,0.4-2.4,0.6-4.1,0.7l-0.1-0.3
			c2.1-0.3,3.3-0.8,4.5-1.6c1.2-0.9,1.8-1.8,1.8-2.9c0-1.2-0.9-2-2.2-2c-1.3,0-2.9,0.7-4.3,2c-0.5,0.4-0.7,0.7-1,1.1
			c-0.2,0.3-0.3,0.4-0.5,0.4c-0.3,0-0.5-0.2-0.8-0.6c-0.2-0.4-0.4-0.7-0.4-0.9c0,0,0-0.2,0.1-0.3c0.1-0.3,0.1-0.4,0.2-1.1
			c0-0.4,0.1-0.9,0.2-1.5c0.3-1.4,0.3-2,0.3-2.4c0-0.6,0.1-0.8,0.3-1c0.3-0.3,0.8-0.5,1.9-0.8c1.5-0.4,1.5-0.4,2.1-0.7
			c-0.7-0.3-1.2-0.6-1.6-1c-0.4-0.4-0.6-0.7-0.9-1.4L127.3,149.1z"/>
		<path class="st2" d="M122.5,173.3c0.7,0.6,1.4,0.9,2.1,0.9c0.5,0,1-0.1,1.8-0.2c0-0.5,0-1.3,0-1.7c0-1.9-0.2-2.3-1.5-2.5
			c0.3-0.2,0.4-0.3,0.8-0.3c0.6,0,1.4,0.2,1.9,0.4c0.2,0.1,0.4,0.4,0.4,0.6c0,0.1,0,0.1-0.2,0.5c-0.3,0.5-0.5,1.4-0.6,2.7
			c1-0.3,1.4-0.6,2-1c0.1-0.1,0.3-0.2,0.4-0.2c0.2,0,0.5,0.1,0.7,0.2c0.2,0.1,0.3,0.2,0.3,0.4c0,0.3-0.2,0.4-0.8,0.7
			c-0.8,0.4-1.7,0.7-2.6,0.9c0,0.3,0,0.3-0.1,0.9c0,0.5-0.1,1.3-0.1,2.4c2-0.7,3.3-1,4.8-1c2.5,0,4,1.2,4,3.1c0,1.8-1.3,3.1-3.1,3.1
			c-1.7,0-2.8-1.1-3.5-3.2l0.3-0.1c0.4,0.8,0.7,1.2,1.1,1.6c0.5,0.5,1.1,0.7,1.7,0.7c1.3,0,2.2-1,2.2-2.5c0-1.4-0.9-2.1-2.7-2.1
			c-1.4,0-3.1,0.5-4.9,1.3c0,1.9,0,1.9,0,2.4c0,0.3,0,0.5,0,0.7c0,0.4-0.1,0.8-0.2,1.1c-0.2,0.4-0.6,0.7-0.9,0.7c-0.3,0-0.3,0-1.4-1
			c-0.4-0.3-0.9-0.7-1.2-0.8c-0.4-0.2-0.6-0.5-0.6-0.8c0-0.3,0.2-0.6,0.5-1c0.7-0.7,1.3-1.1,2.9-1.9c0-0.3,0-0.5,0-0.9
			c0-0.8,0-0.8,0.1-2.6c-0.6,0.1-1,0.1-1.4,0.1c-1.2,0-1.9-0.4-2.7-1.5L122.5,173.3z M124.5,180.6c-0.4,0.4-0.5,0.7-0.5,0.9
			c0,0.2,0.2,0.4,0.7,0.6c0.4,0.2,0.9,0.3,1.1,0.3c0.2,0,0.3-0.1,0.3-0.4c0.1-1.6,0.1-2.5,0.1-2.6
			C125.4,179.7,124.9,180.1,124.5,180.6z M132.5,171.5c1.1,0.1,1.9,0.3,2.6,0.6c0.8,0.4,1.3,1,1.3,1.6c0,0.3-0.2,0.5-0.5,0.5
			c0,0-0.1,0-0.3,0c-0.3,0-0.3,0-0.4,0c-0.3,0-0.7,0.1-2.2,0.5l-0.1-0.2c1.1-0.6,1.7-0.9,2-1.2c-0.3-0.5-0.6-0.8-1.1-1.1
			c-0.4-0.2-0.6-0.3-1.2-0.5L132.5,171.5z"/>
		<path class="st2" d="M128,189.1c0.4,0,0.9,0.1,1.4,0.2c0.6,0.2,0.9,0.4,0.9,0.8c0,0.1,0,0.1-0.1,0.5c-0.2,0.6-0.4,1.7-0.4,2.6
			c0,0.1,0,0.2,0,0.3c0.2,0.2,0.3,0.2,0.5,0.2c0.7,0,2.1-0.5,2.7-1.1c0.2-0.1,0.3-0.2,0.4-0.2c0.2,0,0.5,0.1,0.8,0.2
			c0.3,0.2,0.4,0.3,0.4,0.4c0,0.3-0.2,0.4-1.1,0.7c-1,0.4-1.8,0.6-2.5,0.6c-0.5,0-0.8-0.1-1.2-0.5c0,0.3,0,0.6,0,0.8
			c0,1.4,0.1,3.5,0.2,4.7c1.4,0.2,2.7,0.7,3.8,1.3c0.8,0.4,1.1,0.9,1.1,1.5c0,0.4-0.1,0.7-0.4,0.7c-0.1,0-0.2-0.1-0.4-0.2
			c-1.5-1.3-2.4-1.8-4.1-2.3c0,0.8,0,0.8,0,1.2c0,0.9-0.4,1.5-1.3,1.8c-0.4,0.2-1.2,0.3-1.8,0.3c-1.9,0-3.1-0.8-3.1-2
			c0-0.9,0.6-1.5,1.7-2c0.7-0.3,1.7-0.4,2.6-0.4c0.1,0,0.4,0,0.7,0c-0.1-7.2-0.1-7.2-0.3-8.4c-0.1-1-0.4-1.3-1.6-1.5
			C127.4,189.2,127.6,189.1,128,189.1z M127.6,200.2c-1.9,0-3.2,0.6-3.2,1.5c0,0.7,0.7,1.1,2,1.1c1,0,1.9-0.3,2.3-0.7
			c0.2-0.3,0.3-0.7,0.3-1.9C128.4,200.2,128.2,200.2,127.6,200.2z"/>
		<path class="st2" d="M125.8,210.3c0.2,0.1,0.4,0.2,0.7,0.2s1.5-0.3,2.8-0.6c0.7-0.2,1.2-0.3,1.4-0.5c0.1-0.1,0.1-0.1,0.4-0.3
			c0.1-0.1,0.2-0.1,0.3-0.1c0.5,0,1.6,1.2,1.6,1.7c0,0.2-0.1,0.3-0.5,0.4c-0.3,0.1-1,0.7-2.4,1.8c-1.4,1.1-3.4,2.7-5.2,4.1
			c2-0.8,3.4-1.2,7-2.3c0.7-0.2,1.3-0.4,1.7-0.5c0.5-0.2,0.6-0.2,0.7-0.2c0.2,0,0.6,0.2,0.9,0.4c0.2,0.2,0.3,0.3,0.3,0.5
			c0,0.2-0.1,0.3-0.4,0.3c-0.1,0-0.2,0-1.2,0.1c-1,0-2.3,0.4-3.2,0.9c-1.5,0.8-2.4,2.1-2.4,3.3c0,1,0.7,1.9,1.8,2.2
			c0.5,0.2,0.8,0.2,1.6,0.2c0.1,0,0.3,0,0.3,0c0.1,0,0.3,0,0.3,0c0.4,0,1.1,0.6,1.1,1c0,0.3-0.3,0.5-0.9,0.5c-2.9,0-4.9-1.5-4.9-3.6
			c0-0.9,0.4-1.8,1.1-2.6c0.6-0.6,1-1,2-1.5c-2.1,0.6-5.4,1.9-6.4,2.6c-0.3,0.2-0.3,0.2-0.5,0.2c-0.4,0-1-0.6-1-1
			c0-0.3,0.1-0.4,0.5-0.5c0.9-0.3,2.6-1.5,5.1-3.9c2-1.9,2.9-2.9,2.9-3.2c0-0.1-0.1-0.2-0.3-0.2c-0.2,0-0.4,0.1-2,0.7
			c-1,0.4-1.7,0.7-2.2,1c-0.3,0.1-0.4,0.2-0.5,0.2c-0.4,0-0.8-0.4-1.1-1c-0.2-0.4-0.3-0.8-0.3-1c0-0.1,0-0.2,0.1-0.3
			C125.3,209.8,125.5,210.1,125.8,210.3z"/>
		<path class="st2" d="M127.1,241.9c0.8-0.1,1-0.1,1.2-0.2c0.4-0.2,0.5-0.6,0.5-1.9v-7.6c0-1.6,0-1.6-0.2-1.7
			c-0.1-0.1-0.4-0.2-0.8-0.2h-0.7V230c1.4-0.1,2.5-0.3,3.4-0.5c-0.1,1.4-0.1,3-0.1,5.1v5.3c0,1.2,0.1,1.6,0.3,1.8
			c0.2,0.2,0.3,0.2,1.3,0.3v0.5h-4.9V241.9z"/>
		<path class="st2" d="M126.7,255.4c0.9-0.9,1.9-1.3,3.2-1.3c2.4,0,4,1.6,4,4c0,2.5-1.8,4.2-4.6,4.2c-2.1,0-3.9-1.1-3.9-2.3
			c0-0.5,0.3-0.8,1-0.8c0.6,0,0.7,0.1,0.8,0.7c0.1,1.2,0.9,1.9,2.2,1.9c1.7,0,2.8-1.4,2.8-3.6c0-1-0.2-1.9-0.6-2.6s-1.2-1-2-1
			c-1.3,0-2.5,0.8-3,2.1l-0.6-0.1l0.6-7.4h6.8l-0.3,1.4h-6L126.7,255.4z"/>
		<path class="st2" d="M126,270.9c0.7-1.3,2-2,3.5-2c1.5,0,2.8,0.7,3.5,2c0.7,1.2,1,2.9,1,4.7s-0.4,3.4-1,4.7c-0.7,1.3-2,2-3.5,2
			c-1.5,0-2.8-0.8-3.5-2c-0.7-1.2-1-2.9-1-4.7C125,273.8,125.3,272.2,126,270.9z M129.5,281.8c1.9,0,2.8-1.9,2.8-6.2
			s-0.8-6.2-2.8-6.2c-1.9,0-2.8,1.9-2.8,6.2C126.7,279.9,127.6,281.8,129.5,281.8z"/>
		<path class="st2" d="M130.9,293.6h2.7c0.5-0.5,0.6-0.6,1.1-1.2c0.7,0.5,0.9,0.7,1.5,1.3c0.1,0.1,0.1,0.1,0.1,0.1
			c0,0.1-0.1,0.1-0.2,0.1h-5.2v4.1h3.8c0.5-0.6,0.6-0.7,1.2-1.3c0.8,0.6,1,0.8,1.7,1.3c0.1,0.1,0.1,0.1,0.1,0.2
			c0,0.1-0.1,0.2-0.2,0.2h-6.5v2.3c0,0.5,0,0.6,0.1,2.5c0,0.3-0.2,0.4-0.9,0.4c-0.4,0-0.5-0.1-0.5-0.3c0-0.6,0.1-2,0.1-2.6v-2.3H123
			c-0.5,0-1.3,0-1.7,0.1l-0.1-0.6c0.7,0.1,1.2,0.1,1.8,0.1h1.5v-3.5c0-1.1,0-1.2-0.1-1.9c0.7,0.4,1,0.5,1.6,0.9h3.5v-3.3h-4.1
			c-1,1.5-2.2,2.9-3.7,4l-0.2-0.2c0.6-0.7,1-1.1,1.6-2.1c1.2-1.9,2-3.5,2.4-5c2,0.6,2.1,0.7,2.1,0.8c0,0.1-0.1,0.2-0.1,0.2
			c-0.1,0.1-0.1,0.1-0.8,0.2c-0.3,0.4-0.3,0.4-1.1,1.6h8.4c0.5-0.5,0.6-0.7,1.1-1.2c0.7,0.6,0.9,0.7,1.7,1.3
			c0.1,0.1,0.1,0.1,0.1,0.1c0,0.1-0.1,0.1-0.2,0.1h-6V293.6z M125.9,294v4.1h3.7V294H125.9z"/>
		<path class="st2" d="M135.1,310c0.5-0.6,0.6-0.8,1.2-1.3c0.7,0.6,0.9,0.8,1.6,1.5c0.1,0.1,0.1,0.1,0.1,0.1c0,0.1,0,0.1-0.1,0.1
			h-14.1c-1.2,0-1.4,0-2.1,0.1l-0.1-0.7c0.8,0.1,1.1,0.1,2.3,0.1h6.8c0.3-0.5,0.5-0.8,0.8-1.3c0.5-0.9,0.7-1.5,0.7-1.9
			c1.3,0.4,2,0.7,2,0.8s-0.2,0.2-0.9,0.3c-0.9,1-1.4,1.5-2.1,2H135.1z M124.1,318v0.3c0,0.3,0,0.8,0,1.7c0,1,0,1.2,0,2.6
			c0,0.2-0.1,0.2-0.2,0.3c-0.2,0-0.6,0.1-0.8,0.1c-0.2,0-0.2-0.1-0.3-0.2c0-1.3,0.1-4.9,0.1-7.8c0-1.7,0-2.4-0.1-3.5
			c0.6,0.3,0.8,0.4,1.5,0.8h3.3c0.3-0.3,0.4-0.5,0.6-0.8c0.5,0.4,0.7,0.5,1.2,0.9c0.1,0.1,0.1,0.1,0.1,0.2c0,0.1-0.1,0.2-0.6,0.4
			v4.1c0,0.1,0,3,0.1,4.4c0,0,0,0.1,0,0.1c0,0.7-0.3,0.9-2,1.4c-0.1-0.9-0.4-1.1-1.9-1.4l0-0.2c0.3,0,0.6,0,0.8,0.1
			c1,0.1,1.1,0.1,1.7,0.1c0,0,0.1,0,0.1,0c0.1,0,0.1,0,0.1-0.2V318H124.1z M127.7,312.6h-3.6v2.2h3.6V312.6z M127.7,315.2h-3.6v2.4
			h3.6V315.2z M125.4,306.8c1.7,0.9,2.3,1.4,2.3,2c0,0.5-0.3,1.1-0.6,1.1c-0.2,0-0.2-0.1-0.4-0.4c-0.3-0.7-0.9-1.7-1.5-2.4
			L125.4,306.8z M132.9,312.4c0,0.1-0.2,0.3-0.6,0.4c0,0.7,0,1.1,0,1.4c0,1.8,0,4.5,0,5.3c0,0.2-0.1,0.3-0.6,0.3c-0.2,0-0.3,0-0.4,0
			c0,0,0,0-0.1,0c-0.1,0-0.2-0.1-0.2-0.2c0-2,0.1-3.4,0.1-5.7c0-0.5,0-1.1-0.1-2C132.4,312.2,132.9,312.3,132.9,312.4z M134.9,313.5
			c0-0.9,0-1.5-0.1-2.1c1.4,0.2,2,0.3,2,0.5s-0.2,0.3-0.7,0.4v3.9c0,3.9,0,3.9,0.1,5.3c0,0.5-0.2,0.7-0.6,1
			c-0.4,0.2-0.7,0.3-1.5,0.5c-0.3-1.1-0.3-1.1-2.7-1.5v-0.3c0.3,0,0.6,0,0.7,0c1.7,0.1,1.9,0.1,2.7,0.1c0.1,0,0.1-0.1,0.1-0.2V313.5
			z"/>
		<path class="st2" d="M133.6,327c1.4,0.5,2.8,1.2,3.5,1.7c0.7,0.5,1,0.9,1,1.6c0,0.6-0.3,1.2-0.7,1.2c0,0-0.2-0.1-0.2-0.1
			c-0.1-0.1-0.1-0.1-0.9-1.3c-0.6-0.9-1.6-1.9-2.8-2.9L133.6,327z"/>
		<path class="st2" d="M94,118.7c0,2.7,0,2.7,0.1,6.4c0,0.1,0,0.1-0.1,0.2c-0.1,0.1-0.6,0.1-1,0.1c-0.2,0-0.2,0-0.2-0.2
			c0-2.6,0-2.6,0-4.8v-1.7H88v1c0,0.1,0,0.2-0.1,0.2c-0.1,0-0.6,0.1-0.9,0.1c-0.2,0-0.3-0.1-0.3-0.2c0-2.7,0.1-4.1,0.1-4.3
			c0-1,0-1.7,0-3.1c0.7,0.3,0.9,0.4,1.6,0.8h4.4c0-3.3,0-3.3-0.1-4.1c0.4,0,0.7,0.1,0.9,0.1c1,0.1,1.2,0.1,1.2,0.3
			c0,0.2-0.1,0.2-0.8,0.5v3.2h5c0.3-0.3,0.4-0.5,0.6-0.8c0.5,0.3,0.7,0.4,1.2,0.8c0.1,0.1,0.2,0.2,0.2,0.3c0,0,0,0,0,0
			c0,0.1-0.1,0.2-0.6,0.5c0,0.8,0,1.4,0,1.9c0,1.4,0,2.3,0.1,3.9c0,0.1,0,0.2-0.1,0.2c-0.1,0.1-0.6,0.1-0.9,0.1
			c-0.2,0-0.2-0.1-0.2-0.2v-1H94z M92.7,114.4v-0.9H88v4.8h4.7V114.4z M99.2,113.5H94c0,0.6,0,2.2,0,4.8h5.2V113.5z"/>
		<path class="st2" d="M86.2,144.6c0.1-2.9,0.1-4.1,0.1-5.5c0-0.5,0-3.9,0-8.2c0-1,0-1.2-0.1-2c0.7,0.3,0.9,0.4,1.6,0.8h11.5
			c0.3-0.4,0.4-0.5,0.8-0.8c0.5,0.3,0.6,0.4,1.1,0.8c0.1,0.1,0.2,0.2,0.2,0.3c0,0.2-0.1,0.2-0.7,0.6c0,9.8,0,10.4,0.2,13.8
			c0,0.4-0.2,0.4-1.1,0.4c-0.2,0-0.3-0.1-0.3-0.3v-0.8h-12v0.8c0,0.2-0.1,0.3-0.2,0.3c-0.1,0-0.6,0.1-0.8,0.1
			C86.2,145,86.2,144.9,86.2,144.6L86.2,144.6z M87.5,143.3h12v-13.1h-12V143.3z M93.8,136.2h1.7c0.3-0.5,0.4-0.6,0.8-1
			c0.6,0.5,0.8,0.7,1.4,1.2c0.1,0.1,0.1,0.1,0.1,0.2c0,0.1-0.1,0.1-0.2,0.1h-3.8v4.1h2.4c0.4-0.5,0.5-0.7,0.9-1.2
			c0.6,0.5,0.8,0.7,1.4,1.2c0.1,0.1,0.1,0.2,0.1,0.2c0,0.1-0.1,0.1-0.2,0.1h-8.9c-0.9,0-0.9,0-1.3,0.1l-0.1-0.6
			c0.4,0.1,0.9,0.1,1.4,0.1h3v-4.1h-2.3c-0.6,0-1,0.1-1.2,0.1l-0.1-0.6c0.5,0.1,0.8,0.1,1.3,0.1h2.3v-3.3h-2.7c-0.4,0-0.9,0-1.3,0.1
			l-0.2-0.6c0.5,0.1,0.8,0.1,1.5,0.1h5.9c0.4-0.5,0.5-0.6,0.9-1.1c0.7,0.5,0.8,0.7,1.5,1.2c0.1,0.1,0.1,0.2,0.1,0.2
			c0,0.1-0.1,0.1-0.2,0.1h-4.3V136.2z M94.9,137.3c0.8,0.2,1.5,0.5,1.9,0.7c0.3,0.2,0.5,0.5,0.5,0.8c0,0.5-0.2,0.8-0.4,0.8
			c-0.1,0-0.2-0.1-0.4-0.3c-0.8-1-1.2-1.4-1.9-1.9L94.9,137.3z"/>
		<path class="st2" d="M93.4,163.2c1.9-0.6,3.2-1.3,4.2-2.5c1.1-1.2,1.6-2.7,1.6-4.3c0-1.7-0.7-3.1-2-4c-0.8-0.5-2-0.8-3.1-0.8
			c-0.2,0-0.3,0-0.6,0c0.4,0.6,0.6,1,0.6,1.5c0,1.4-1,4-2.4,6.2c-1.1,1.8-2,2.7-2.7,2.7c-0.3,0-0.6-0.1-0.8-0.4
			c-0.2-0.2-0.2-0.3-0.5-1.2c-0.2-0.5-0.3-0.7-0.8-1.7c-0.3-0.6-0.4-1.1-0.4-1.6c0-1.1,0.6-2.5,1.6-3.6c1.5-1.5,3.8-2.5,6.2-2.5
			c1.8,0,3.5,0.6,4.6,1.7c1.2,1.1,1.7,2.5,1.7,4.2c0,2.2-1.3,4.2-3.6,5.5c-1,0.6-2,0.8-3.5,1.1L93.4,163.2z M87.4,157.6
			c0,0.9,0.3,1.7,0.7,2.4c0.3,0.3,0.5,0.5,0.7,0.5c0.4,0,1.3-1,2.1-2.4c1.3-2.1,2.3-4.4,2.3-5.6c0-0.3-0.1-0.5-0.3-0.9
			C89.9,152.3,87.4,154.9,87.4,157.6z"/>
		<path class="st2" d="M85.2,184.8c1.1-1.8,1.5-3,1.9-4.8c0.3-1.5,0.4-3.7,0.4-6.6c0-2.6,0-3.8-0.1-4.8c0.7,0.3,0.9,0.4,1.6,0.8h9
			c0.3-0.3,0.3-0.4,0.6-0.8c0.6,0.4,0.7,0.5,1.2,0.9c0.1,0.1,0.1,0.1,0.1,0.1c0,0.1-0.2,0.3-0.7,0.5c0,1.7,0,1.9,0,2.4
			c0,2.7,0.1,4.8,0.4,6.2c0.3,1.4,0.5,2,1.2,3.1c0.3-0.9,0.5-1.4,0.9-3l0.3,0.1l-0.3,3.2c0,0.3,0,0.3,0,0.6c0,0.1,0.1,0.2,0.3,0.5
			c0.2,0.3,0.3,0.4,0.3,0.7c0,0.3-0.2,0.5-0.5,0.5c-0.4,0-0.8-0.3-1.3-0.8c-1.3-1.4-1.9-3.2-2.2-5.6c-0.2-1.7-0.3-4.1-0.3-6.2
			c0-0.6,0-1.1,0-2h-9.3c0,1,0,1,0,5.1c0,3-0.4,5.2-1.3,7.1c-0.5,1.2-1,1.8-2,2.9L85.2,184.8z M93.9,178.7v3
			c1.2-0.2,1.2-0.2,2.4-0.5c-0.3-0.4-0.4-0.5-1-1.5l0.2-0.1c0.9,0.6,1.3,0.9,1.9,1.5c0.6,0.6,0.9,1,0.9,1.4c0,0.3-0.2,0.9-0.3,1.1
			c-0.1,0.1-0.2,0.1-0.3,0.1c-0.2,0-0.3-0.1-0.5-0.7c-0.2-0.5-0.3-0.7-0.6-1.4c-1.5,0.5-5,1.5-6.7,1.9c-0.1,0.4-0.2,0.6-0.3,0.6
			c-0.2,0-0.3-0.2-0.8-1.8c1-0.1,3-0.3,4.1-0.6v-3.1h-1.9v0.7c0,0.1,0,0.2-0.1,0.2c-0.1,0-0.6,0.1-0.8,0.1c-0.1,0-0.2-0.1-0.2-0.2
			c0.1-0.6,0.1-1.1,0.1-1.8c0-1.8,0-3.3-0.1-3.9c0.6,0.3,0.8,0.4,1.3,0.8h1.8v-2.1c-1.3,0.2-2.1,0.3-3.3,0.4l-0.1-0.3
			c1.4-0.2,2.9-0.6,4.3-1.1c1-0.3,1.6-0.6,2.1-0.9c0.3,0.2,0.5,0.3,0.6,0.4c0.5,0.4,0.8,0.6,0.8,0.7c0,0.1-0.1,0.2-0.2,0.2
			c0,0,0,0-0.4-0.1c-0.3-0.1-0.3-0.1-0.5-0.1c-2,0.5-2,0.5-2.3,0.6v2.3h1.8c0.3-0.3,0.3-0.4,0.6-0.7c0.5,0.4,0.6,0.5,1,0.8
			c0.1,0.1,0.1,0.1,0.1,0.2c0,0.1-0.1,0.2-0.6,0.5c0,0.5,0,0.5,0,2c0,1.1,0,1.1,0,1.7c0,0.1-0.1,0.2-0.2,0.2c-0.2,0-0.4,0.1-0.6,0.1
			c-0.2,0-0.3,0-0.3-0.2v-0.4H93.9z M92.8,175h-1.9v3.3h1.9V175z M95.8,175h-1.9v3.3h1.9V175z"/>
		<path class="st2" d="M85,192.5c1,0.4,1.4,0.6,2.1,0.9c0.8,0.4,0.9,0.6,0.9,1c0,0.5-0.3,1.1-0.5,1.1c-0.1,0-0.2-0.1-0.4-0.4
			c-0.2-0.3-0.6-0.8-0.9-1.2c-0.4-0.4-0.7-0.7-1.3-1.2L85,192.5z M85.2,199.1c0.2,0,0.3,0.1,0.4,0.1c0.5,0.1,0.7,0.2,0.9,0.2
			c0.2,0,0.3-0.1,0.7-0.9c0.3-0.7,1-2.3,1.6-3.7c0.8-2,0.8-2,1.3-2.9l0.2,0.1l-2.5,7.6c-0.2,0.6-0.2,0.7-0.2,0.8
			c0,0.3,0.1,0.6,0.2,1.3c0.1,0.4,0.2,0.8,0.2,1.2c0,0.5-0.1,0.8-0.3,1.1c-0.3,0.3-0.7,0.5-1,0.5c-0.2,0-0.4-0.2-0.4-0.5
			c0-0.1,0-0.3,0.1-0.6c0.3-1.2,0.4-1.8,0.4-2.4c0-0.5-0.1-0.7-0.3-0.9c-0.3-0.3-0.6-0.4-1.1-0.7L85.2,199.1z M86.1,188.5
			c0.9,0.4,1.7,0.8,2.4,1.2c0.6,0.4,0.7,0.6,0.7,1c0,0.5-0.3,1.1-0.5,1.1c-0.1,0-0.3-0.1-0.5-0.5c-0.2-0.4-0.4-0.7-0.8-1.1
			c-0.6-0.7-0.8-1-1.5-1.5L86.1,188.5z M88.1,204.4c0.9-0.7,1.3-1,1.7-1.5c1.2-1.3,1.6-3,1.6-5.9c0-0.5,0-0.8-0.1-1.4
			c1.7,0.2,1.9,0.3,1.9,0.4c0,0.1,0,0.1-0.6,0.4c-0.1,2-0.1,2.4-0.3,3.2c-0.2,1.4-0.9,2.6-2.1,3.6c-0.6,0.5-1.1,0.8-2,1.3
			L88.1,204.4z M94.9,191c-0.7,1.4-1.1,1.9-1.9,3.1c2.7-0.1,3-0.1,5.2-0.3c-0.9-1-1.1-1.2-1.8-1.8l0.1-0.2c1.2,0.6,2.5,1.4,3.2,1.9
			c0.4,0.3,0.6,0.6,0.6,1c0,0.5-0.3,1.2-0.6,1.2c-0.1,0-0.2-0.1-0.4-0.4c-0.4-0.6-0.6-1-0.9-1.4c-2.3,0.4-2.3,0.4-7.7,1.2
			c0,0.1,0,0.1-0.1,0.2c-0.1,0.3-0.1,0.4-0.2,0.4c-0.2,0-0.2-0.1-0.5-1.8c1.1,0,1.1,0,1.3,0c0.2,0,0.2,0,1.2-0.1
			c0.4-1.1,0.4-1.1,0.9-3.1h-2.3c-0.7,0-0.8,0-1.4,0.1l-0.2-0.7c0.5,0.1,0.9,0.2,1.5,0.2h3v-0.8c0-0.6,0-0.9-0.1-1.6
			c0.4,0.1,0.8,0.1,1,0.1c0.9,0.1,1.1,0.2,1.1,0.3c0,0.1-0.1,0.2-0.8,0.4v1.5h3.3c0.5-0.6,0.6-0.8,1.1-1.3c0.8,0.6,1,0.8,1.7,1.4
			c0.1,0.1,0.1,0.1,0.1,0.2c0,0.1-0.1,0.1-0.2,0.1H94.9z M95.3,198.4c0,1.9,0,2.4,0.1,5.4c0,0.1,0,0.2-0.1,0.2
			c-0.1,0-0.6,0.1-0.8,0.1c-0.2,0-0.2-0.1-0.3-0.2c0-2.5,0.1-3.8,0.1-6.3c0-0.7,0-1.1-0.1-1.9c1.7,0.2,1.8,0.2,1.8,0.4
			c0,0.1-0.1,0.2-0.6,0.4V198.4z M97.2,197.5c0-1,0-1.1-0.1-1.7c1.6,0.1,1.9,0.2,1.9,0.4c0,0.1-0.2,0.3-0.7,0.4v6.1
			c0,0.3,0,0.3,0.2,0.3s0.4,0,0.5,0c0.1,0,0.1,0,0.1,0c0.7,0,0.9-0.1,1-0.2c0.1-0.2,0.3-0.6,1-3.6l0.3,0l-0.3,3.2c0,0.1,0,0.2,0,0.2
			c0,0.2,0,0.2,0.4,0.4c0.2,0.1,0.3,0.2,0.3,0.4c0,0.3-0.3,0.5-0.7,0.6c-0.4,0.1-1.3,0.1-2.1,0.1c-1.6,0-1.9-0.1-1.9-1.1
			c0-1,0-1,0-2.1V197.5z"/>
		<path class="st2" d="M85.4,223.7c1.7-1.2,2.5-2,3.4-3.2c1.6-2.1,2.7-4.6,3.3-7.3c0.3-1.4,0.4-2.7,0.4-3.9c0-0.4,0-0.6-0.1-1
			c2,0.3,2.2,0.3,2.2,0.5c0,0.1-0.1,0.2-0.8,0.5c0,0.3,0,0.4,0,0.6c0,2.6,1,5.7,2.5,7.9c1,1.4,2.2,2.6,3.7,3.5
			c0.7,0.4,1.1,0.6,2.1,1l0,0.2c-0.1,0-0.1,0-0.1,0c-0.4,0-0.7,0.1-0.9,0.4c-0.2,0.2-0.3,0.4-0.5,0.9c-1.8-1.2-3.2-2.5-4.3-4.4
			c-0.8-1.3-1.6-3.2-2.1-5c-0.2-0.8-0.3-1.4-0.4-2.6c-0.5,3.3-1.4,5.6-2.9,7.8c-1.4,2-2.9,3.2-5.3,4.4L85.4,223.7z"/>
		<path class="st2" d="M93.4,242.4c1.9-0.6,3.2-1.3,4.2-2.5c1.1-1.2,1.6-2.7,1.6-4.3c0-1.7-0.7-3.1-2-4c-0.8-0.5-2-0.8-3.1-0.8
			c-0.2,0-0.3,0-0.6,0c0.4,0.6,0.6,1,0.6,1.5c0,1.4-1,4-2.4,6.2c-1.1,1.8-2,2.7-2.7,2.7c-0.3,0-0.6-0.1-0.8-0.4
			c-0.2-0.2-0.2-0.3-0.5-1.2c-0.2-0.5-0.3-0.7-0.8-1.7c-0.3-0.6-0.4-1.1-0.4-1.6c0-1.1,0.6-2.5,1.6-3.6c1.5-1.5,3.8-2.5,6.2-2.5
			c1.8,0,3.5,0.6,4.6,1.7c1.2,1.1,1.7,2.5,1.7,4.2c0,2.2-1.3,4.2-3.6,5.5c-1,0.6-2,0.8-3.5,1.1L93.4,242.4z M87.4,236.8
			c0,0.9,0.3,1.7,0.7,2.4c0.3,0.3,0.5,0.5,0.7,0.5c0.4,0,1.3-1,2.1-2.4c1.3-2.1,2.3-4.4,2.3-5.6c0-0.3-0.1-0.5-0.3-0.9
			C89.9,231.5,87.4,234.1,87.4,236.8z"/>
		<path class="st2" d="M87.5,254.6c0,0.1,0,0.2-0.2,0.2c-0.1,0-0.5,0.1-0.7,0.1c-0.3,0-0.4-0.1-0.4-0.2c0,0,0,0,0,0
			c0.1-1.2,0.1-1.7,0.1-2.9c0-1.9,0-3.1-0.1-3.9c0.7,0.3,0.9,0.4,1.5,0.8h4.3c0.3-0.4,0.3-0.5,0.6-0.8c0.5,0.3,0.6,0.4,1.1,0.8
			c0.1,0.1,0.2,0.2,0.2,0.3c0,0.1,0,0.1-0.1,0.1c0,0-0.2,0.1-0.5,0.3c0,3,0,3.1,0.1,4.8c0,0.1,0,0.2-0.1,0.3c-0.1,0-0.5,0.1-0.8,0.1
			c-0.3,0-0.4-0.1-0.4-0.3v-0.7h-2.4c-0.1,1.1-0.1,1.6-0.3,2.5h2.5c0.3-0.3,0.3-0.4,0.6-0.6c0.4,0.3,0.6,0.5,1,0.9
			c0.1,0.1,0.1,0.2,0.1,0.2c0,0.1,0,0.1-0.5,0.4c-0.3,2.6-0.6,4.4-0.9,5.3c-0.1,0.4-0.4,0.7-0.8,0.9c-0.3,0.2-0.6,0.2-1.3,0.4
			c0-0.8-0.3-1-2-1.4l0.1-0.3c1,0.1,2.1,0.2,2.4,0.2c0.4,0,0.5-0.2,0.7-0.8c0.3-1.2,0.6-3.5,0.6-4.8h-2.6c-0.2,1.2-0.5,2.1-0.9,2.9
			c-0.5,1.2-1.3,2.3-2.3,3.1c-0.4,0.4-0.6,0.6-1.3,1l-0.2-0.2c1.7-1.7,2.6-3.3,3.2-5.7c0.3-1.3,0.4-2.3,0.5-4.1h-1.2V254.6z
			 M87.5,253.2h4.8v-4.1h-4.8V253.2z M96.8,256.5c0,0.6,0,0.8,0.1,2.9c0,0,0,0.1,0,0.1c0,0.2-0.1,0.3-0.6,0.3c-0.1,0-0.2,0-0.3,0
			c0,0-0.1,0-0.1,0c-0.2,0-0.3-0.1-0.3-0.2c0,0,0-0.1,0-0.1c0.1-1.1,0.1-3.3,0.1-5.8c0-2.7,0-4.4-0.1-4.9c1.4,0.1,1.9,0.2,1.9,0.5
			c0,0.1-0.1,0.2-0.7,0.4L96.8,256.5z M99.1,249.1c0-0.6,0-0.8-0.1-1.5c0.4,0.1,0.6,0.1,0.8,0.1c0.9,0.1,1.2,0.2,1.2,0.4
			c0,0.1,0,0.1-0.1,0.1c0,0-0.2,0.1-0.6,0.3v6.8c0.1,5.5,0.1,5.5,0.1,6.8c0,0.1,0,0.1,0,0.2c0,0.1,0,0.1,0,0.1c0,0.6-0.5,0.9-2,1.2
			c-0.2-0.7-0.2-0.7-0.5-0.9c-0.3-0.2-0.9-0.3-1.9-0.6v-0.3c0.4,0,0.7,0.1,0.9,0.1c1.3,0.1,1.3,0.1,2,0.1c0.2,0,0.3-0.1,0.3-0.2
			L99.1,249.1z"/>
		<path class="st2" d="M92.7,273.3c0.4-0.5,0.5-0.6,1-1.2c0.6,0.5,0.8,0.7,1.4,1.2c0.1,0.1,0.1,0.1,0.1,0.2s-0.1,0.1-0.2,0.1
			l-3.3,0.1c0.1,1.2,0.3,1.8,0.5,2.6c0.4,1.2,0.8,1.9,1.5,2.7c0.3-0.5,0.3-0.6,0.6-1.3l0.5-1.2l0.2,0.1l-0.5,2.5
			c-0.1,0.5-0.1,0.5-0.1,0.6c0,0.1,0.1,0.2,0.3,0.5c0.2,0.2,0.3,0.4,0.3,0.6c0,0.3-0.2,0.5-0.5,0.5c-0.5,0-1.1-0.5-1.9-1.6
			c-1.2-1.6-1.7-3.1-2-5.9l-2.9,0.1v4.8c1.3-0.4,2.1-0.6,3.2-1.1l0.1,0.3c-1.2,0.7-3,1.6-4.8,2.5c-0.1,0.6-0.2,0.8-0.3,0.8
			s-0.2-0.2-0.7-1.9c0.6-0.1,0.7-0.1,1.3-0.3v-8.2c0-1.1,0-1.4-0.1-2.3c0.6,0.4,0.8,0.5,1.4,0.9c2.4-0.7,4-1.3,5.3-2.2
			c1.5,1,1.6,1.1,1.6,1.2c0,0.1-0.1,0.2-0.2,0.2c-0.2,0-0.4-0.1-0.7-0.1c-1.2,0.4-1.6,0.5-2.4,0.7c0,0.5,0,0.5,0,0.7
			c0,1,0.1,2.2,0.2,3.5L92.7,273.3z M86,282c0.6,0.1,1,0.2,1.3,0.2h3.3c0.5-0.5,0.6-0.7,1.1-1.2c0.6,0.6,0.8,0.8,1.5,1.4
			c0.1,0.1,0.1,0.1,0.1,0.2c0,0.1-0.1,0.1-0.2,0.1h-5.8c-0.4,0-0.7,0-1.2,0.1L86,282z M90.6,273.4c-0.1-1.3-0.2-2.5-0.2-3.9
			c-0.8,0.2-1.3,0.3-2.6,0.4v3.6L90.6,273.4z M97,280.5c0,0.3,0,0.4,0,3c0,0.1-0.1,0.2-0.2,0.2c-0.1,0-0.6,0.1-0.8,0.1
			c-0.2,0-0.3-0.1-0.3-0.2c0,0,0,0,0-0.1c0.1-3.1,0.1-6.2,0.1-9.3c0-3.6,0-5.7-0.1-6.7c0.6,0.4,0.8,0.5,1.3,0.9h2.8
			c0.4-0.4,0.5-0.5,0.8-0.8c0.5,0.5,0.6,0.6,1.1,1.1c0.1,0.1,0.2,0.2,0.2,0.3c0,0.1-0.2,0.2-0.7,0.4c-0.9,1.8-1.7,3.2-2.7,4.7
			c0.8,0.6,1.2,1,1.7,1.7c0.7,1,1,1.9,1,3.1c0,1-0.3,1.9-0.8,2.3c-0.4,0.4-0.7,0.5-1.5,0.6c0-0.4-0.1-0.6-0.4-0.8
			c-0.2-0.2-0.5-0.3-1.3-0.5l0-0.3c1,0.1,1.8,0.1,2.1,0.1c0.3,0,0.5-0.1,0.6-0.6c0.1-0.3,0.1-0.7,0.1-1.3c0-0.9-0.1-1.5-0.5-2.2
			c-0.4-0.8-0.7-1.3-1.5-2.1c1-2.1,1.4-3.4,1.9-5.3h-3V280.5z"/>
		<path class="st2" d="M87.3,290.3c0.9,0.7,1.3,0.8,2.3,0.8c0.6,0,1.1-0.1,1.9-0.2c0.4-0.8,0.6-1.4,0.6-1.8c0-0.5-0.3-0.8-1.3-1
			c0.3-0.2,0.5-0.2,0.8-0.2c0.4,0,0.9,0.1,1.4,0.3c0.5,0.2,0.6,0.4,0.6,0.6c0,0.1-0.1,0.3-0.3,0.5c-0.2,0.2-0.4,0.5-0.5,0.7
			c-0.3,0.5-0.3,0.5-0.5,0.7c1.5-0.4,2-0.6,2.6-1.2c0.1-0.1,0.2-0.1,0.3-0.1c0.7,0,1.2,0.3,1.2,0.6c0,0.2-0.2,0.4-0.8,0.6
			c-1.6,0.5-2.5,0.7-3.9,1c-0.3,0.4-0.5,0.8-1,1.4c-0.5,0.8-0.6,1-1,1.4c1-0.5,1.6-0.7,2.3-0.7c1.1,0,1.9,0.7,2,1.8
			c0.3-0.1,0.3-0.1,1.8-0.9c1.8-0.9,2.2-1.2,2.2-1.5c0-0.3-0.3-0.6-0.8-0.8c0.2-0.1,0.3-0.1,0.4-0.1c0.8,0,2,1.1,2,1.8
			c0,0.3-0.1,0.4-0.6,0.6c-1.1,0.3-3.4,1.2-4.8,1.9c0,0.6,0,0.7,0,1.5c0,0.8-0.1,1.4-0.1,1.5c-0.1,0.2-0.3,0.3-0.5,0.3
			c-0.3,0-0.6-0.2-0.6-0.5c0-0.1,0-0.2,0-0.3c0.1-0.5,0.1-1.1,0.1-1.9c-1.1,0.6-1.6,1-2.1,1.4c-0.6,0.6-0.9,1.1-0.9,1.7
			c0,1,1,1.4,3,1.4c1.3,0,2.5-0.2,3.6-0.5c0.1,0,0.3-0.1,0.3-0.1c0.6,0,1.3,0.5,1.3,0.9c0,0.2-0.2,0.4-0.6,0.5
			c-0.7,0.1-2.1,0.3-3.2,0.3c-1.7,0-2.9-0.2-3.7-0.5c-0.9-0.4-1.3-1-1.3-1.9c0-0.8,0.4-1.6,1.3-2.5c0.5-0.5,1-0.9,2.2-1.6
			c0-0.8-0.1-1-0.3-1.4c-0.2-0.3-0.5-0.5-0.9-0.5c-1.2,0-2.6,1-3.9,2.6c-0.3,0.5-0.5,0.6-0.7,0.6c-0.3,0-0.5-0.4-0.5-1
			c0-0.4,0-0.4,0.5-0.8c1.3-1,2.1-1.9,3.3-3.9c-0.6,0.1-0.8,0.1-1.2,0.1c-1.2,0-1.9-0.3-2.7-1.4L87.3,290.3z"/>
		<path class="st2" d="M88.9,311.1c0-0.3,0-0.6,0-1.1c1.4,0.1,1.7,0.2,1.7,0.4c0,0.2-0.1,0.2-0.6,0.4v1.3h1c0.2-0.3,0.3-0.4,0.5-0.6
			c0.4,0.3,0.5,0.3,0.8,0.6c0.2,0.1,0.2,0.2,0.2,0.3s-0.1,0.2-0.4,0.4c0,0.4,0,0.6,0,1c0,0.3,0,1.5,0,4c0,0,0,0.1,0,0.1
			c0,0.2-0.2,0.3-1,0.3c-0.1,0-0.2,0-0.2-0.2v-0.5h-3v3.6c1-0.2,1.5-0.3,3-0.8c-0.4-0.7-0.6-1-1.1-1.6l0.2-0.2
			c0.7,0.4,1.2,0.8,1.8,1.4c0.6,0.6,0.8,0.8,0.8,1.2c0,0.3-0.1,0.8-0.3,1c-0.1,0.1-0.2,0.2-0.3,0.2c-0.1,0-0.2-0.1-0.3-0.3
			c-0.1-0.3-0.4-0.9-0.7-1.4c-1.2,0.7-2.6,1.3-4.8,2c0,0.5-0.1,0.7-0.3,0.7c-0.1,0-0.1-0.1-0.2-0.2c0,0-0.2-0.6-0.6-1.6
			c0.8-0.1,0.9-0.1,1.4-0.2l0-8.2l0-1c-0.6,0.6-0.9,0.9-1.7,1.5l-0.2-0.2c1-1.1,1.8-2.2,2.5-3.5c0.4-0.7,0.8-1.5,1-2.1
			c0.1-0.3,0.2-0.4,0.3-0.8c1.4,0.3,1.9,0.5,1.9,0.7c0,0.1-0.3,0.3-0.7,0.3l-0.1,0.2c1.9,0.6,1.9,0.6,2.5,0.9
			c0.6,0.3,0.8,0.6,0.8,1.2c0,0.5-0.1,0.8-0.3,0.8c-0.2,0-0.2-0.1-0.5-0.5c-0.5-0.7-1.3-1.3-2.6-2.2c-1,1.7-1.5,2.3-2.4,3.3
			c0.4,0.2,0.5,0.2,0.9,0.5h0.9V311.1z M90.9,314.5v-2h-3v2H90.9z M87.9,314.9v2.1h3v-2.1H87.9z M99.6,309.6
			c0.4-0.5,0.5-0.7,0.9-1.2c0.6,0.5,0.8,0.7,1.4,1.3c0,0.1,0.1,0.1,0.1,0.1c0,0.1-0.1,0.1-0.2,0.1h-4v2.6h1.8
			c0.2-0.3,0.3-0.4,0.6-0.8c0.5,0.4,0.6,0.5,1.1,0.9c0.1,0.1,0.2,0.2,0.2,0.3s-0.2,0.2-0.5,0.4v3.8c0,1.1,0,2.1,0,2.9
			c0,0.1,0,0.1,0,0.1c0,0.5-0.1,0.8-0.5,1c-0.2,0.2-0.5,0.3-1.2,0.4c0-0.7-0.3-1-1.2-1.2v-0.2c0.3,0,0.7,0,1,0c0.1,0,0.1,0,0.3,0
			c0,0,0.1,0,0.1,0c0.2,0,0.3-0.1,0.3-0.3v-7h-1.9v6.5c0,0.8,0,0.9,0.1,3.6c0,0.1-0.1,0.1-0.2,0.2c-0.4,0.1-0.6,0.1-0.7,0.1
			c-0.2,0-0.3-0.1-0.3-0.2c0,0,0,0,0-0.1c0.1-1.9,0.1-3.4,0.1-5.6V313h-1.7l0,5v1.7c0,0.3,0,0.7,0,1.3c0,0.2-0.1,0.2-0.2,0.3
			c-0.1,0-0.5,0.1-0.7,0.1c-0.2,0-0.3-0.1-0.3-0.2c0,0,0-0.1,0-0.1c0.1-1.6,0.1-2.1,0.1-4.6c0-0.8,0-1.7,0-2.6c0-0.1,0-0.2,0-0.3
			v-1.5c-0.6,1-0.8,1.3-1.4,2l-0.3-0.2c0.8-1.3,1.3-2.5,1.8-4.1c0.4-1.4,0.6-2.4,0.7-3c1.3,0.3,1.9,0.5,1.9,0.7
			c0,0.2-0.2,0.3-0.7,0.3c-0.4,1-0.4,1-0.7,1.8H99.6z M94.9,310c-0.2,0.4-0.4,0.8-1,1.9c0.6,0.3,0.6,0.3,1.2,0.7h1.5V310H94.9z"/>
		<path class="st2" d="M93.7,338.9c2.3-0.5,3.7-1.1,5-2.2c1-0.8,1.5-1.8,1.5-2.9c0-1.6-1.1-2.6-2.7-2.6c-1.7,0-4.1,1-6,2.5
			c-0.3,0.3-0.5,0.3-0.7,0.3c-0.7,0-1.7-1.3-1.7-2.1c0-0.1,0-0.2,0.1-0.4c0.3,0.6,0.7,1,1.1,1c0.2,0,0.7-0.1,1.6-0.5
			c1.6-0.6,3.1-1.1,4.1-1.3c0.4-0.1,0.8-0.1,1.4-0.1c2.4,0,4,1.4,4,3.5c0,1.3-0.8,2.6-1.9,3.4c-1.4,1-3,1.5-5.7,1.8L93.7,338.9z"/>
		<path class="st2" d="M87,350.8c0.3,0.2,0.5,0.3,0.8,0.3c0.5,0,1-0.1,5-1.1c0.8-0.2,1.7-0.4,2.9-0.6c1.4-0.3,1.9-0.4,2.4-0.6
			c0.4-0.1,0.5-0.1,0.6-0.1c0.2,0,0.6,0.2,1,0.4c0.4,0.2,0.5,0.4,0.5,0.7c0,0.3-0.2,0.4-0.6,0.4c-0.1,0-0.2,0-0.3,0
			c-0.2,0-0.3,0-0.5,0c-3.1,0-6,2.9-6,6c0,1.7,0.8,2.9,2.4,3.5c0.6,0.3,1.3,0.4,1.8,0.4c0.4,0,0.5,0.1,0.8,0.3
			c0.3,0.3,0.5,0.6,0.5,0.9c0,0.3-0.3,0.5-0.7,0.5c-1,0-2.6-0.6-3.7-1.3c-1.4-1-2.1-2.4-2.1-4c0-1.5,0.7-3.1,2-4.4
			c0.7-0.8,1.4-1.3,2.9-2.1c-1.6,0.2-3.1,0.6-5.2,1.2c-1.1,0.4-2.3,0.8-2.9,1.2c-0.4,0.2-0.5,0.3-0.7,0.3c-0.4,0-1-0.4-1.4-1.1
			c-0.3-0.4-0.5-0.9-0.5-1.2c0-0.1,0-0.3,0.2-0.5C86.6,350.3,86.7,350.5,87,350.8z"/>
		<path class="st2" d="M87.8,369.9c0.8,0.6,1.4,0.8,2.4,0.8c0.8,0,2.2-0.2,3-0.5c-0.4-0.8-1.1-1.7-1.5-2c-0.2-0.2-0.7-0.3-1.4-0.4
			c0.1-0.3,0.2-0.4,0.7-0.5c0.3-0.1,0.5-0.1,0.8-0.1c0.6,0,1.1,0.1,1.2,0.2c0.2,0.1,0.2,0.2,0.2,0.7c0,0.4,0,0.4,0.7,1.8
			c1.7-0.6,2.1-0.8,2.6-1.3c0.1-0.1,0.3-0.2,0.6-0.2c0.7,0,1.1,0.2,1.1,0.5c0,0.3-0.2,0.4-1.2,0.8c-0.3,0.1-1.2,0.4-2.6,0.9
			c0.2,0.3,0.2,0.3,0.4,0.7c0.1,0.2,0.4,0.7,0.9,1.5c1.4-0.6,1.8-0.7,2.2-1c-0.4-0.4-0.5-0.5-0.9-0.8l0.1-0.2
			c0.7,0.3,1.2,0.5,1.5,0.5c0,0,0,0,0.3,0c0.1,0,0.1,0,0.1,0c0.3,0,0.5,0.2,0.5,0.4c0,0.4-1,1-3.5,1.9c0.6,1,0.6,1.1,0.8,1.4
			c0.4,0.7,0.4,0.7,0.8,1.4c0.2,0.3,0.3,0.6,0.3,1c0,0.7-0.2,1.2-0.6,1.2c-0.2,0-0.2,0-0.5-0.3c-0.9-0.7-2.6-1.2-4.2-1.2
			c-0.8,0-1.6,0.2-2.3,0.5c-0.7,0.4-1.1,0.8-1.1,1.5c0,1.1,1.2,1.7,3.4,1.7c0.9,0,1.4-0.1,2.3-0.3c0.1,0,0.2,0,0.2,0
			c0.5,0,1.2,0.5,1.2,1c0,0.1-0.1,0.3-0.3,0.3c-0.3,0.1-1.4,0.3-2.5,0.3c-1.4,0-2.6-0.2-3.5-0.5c-1.1-0.5-1.7-1.3-1.7-2.3
			c0-1.6,1.9-2.7,4.8-2.7c1.1,0,2.1,0.1,3.4,0.4c-0.2-0.7-0.7-1.8-1.3-3.1c-1.2,0.4-2.7,0.7-3.8,0.7c-0.8,0-1.3-0.2-1.9-0.5
			c-0.4-0.3-0.6-0.5-0.9-1.1l0.2-0.2c0.6,0.8,1.2,1.1,2.1,1.1c1,0,2.4-0.2,3.9-0.7c-0.4-0.7-0.8-1.5-1.3-2.2
			c-1.2,0.4-2.4,0.6-3.3,0.6c-1,0-1.8-0.4-2.6-1.3L87.8,369.9z"/>
		<path class="st2" d="M86.4,390.6c0.7,0.8,1.2,1,2,1c0.7,0,1.5-0.1,2.3-0.3c0.4-1.2,0.6-2.4,0.6-3c0-0.6-0.3-0.8-1.3-1.1
			c0.2-0.1,0.3-0.2,0.6-0.2c0.4,0,1,0.1,1.5,0.3c0.5,0.2,0.8,0.5,0.8,0.7c0,0.1,0,0.1-0.2,0.4c-0.2,0.3-0.6,1.3-1.1,2.6
			c1-0.4,1.7-0.7,2.1-1.1c0.3-0.3,0.4-0.3,0.5-0.3c0.2,0,0.7,0.1,1,0.2c0.2,0.1,0.3,0.2,0.3,0.3c0,0.3-0.3,0.5-1,0.9
			c-0.8,0.4-2,0.8-3.2,1c-0.2,0.6-0.2,0.6-0.8,2.3c-0.4,1.1-0.4,1.1-1.4,4c-0.7,2.1-1,2.6-1.3,2.6c-0.2,0-0.3-0.1-0.4-0.4
			c-0.1-0.3-0.3-0.7-0.3-1c0-0.3,0-0.3,0.4-0.9c0.9-1.3,1.6-2.9,2.8-6.4c-0.7,0.1-1.2,0.2-1.7,0.2c-1.1,0-1.8-0.5-2.5-1.6
			L86.4,390.6z M93.6,396.9c0,0.3,0,0.5,0,0.6c0,1,0.5,1.8,1.4,2.2c0.5,0.2,1.2,0.3,1.9,0.3c0.7,0,1.2-0.1,1.7-0.3
			c0.1-0.1,0.2-0.1,0.3-0.1c0.2,0,0.6,0.2,0.9,0.4c0.2,0.2,0.3,0.3,0.3,0.5c0,0.4-0.7,0.6-2.1,0.6c-1.4,0-2.5-0.2-3.3-0.6
			c-1-0.5-1.5-1.4-1.5-2.6c0-0.4,0-0.7,0.2-1.1L93.6,396.9z M94.1,393.5c1.3-0.8,2.8-1.2,4.2-1.2c0.4,0,0.8,0.1,1.1,0.3
			c0.2,0.1,0.3,0.3,0.3,0.5c0,0.3-0.2,0.4-0.7,0.4c-0.7,0-0.9,0.1-1.4,0.4c-0.4,0.2-0.4,0.2-1,0.6c-0.3,0.2-0.3,0.2-0.6,0.4
			l-0.1-0.2c0.2-0.2,0.2-0.2,0.9-0.8c0.2-0.1,0.3-0.3,0.9-0.8c-1.2,0-2.1,0.2-3.4,0.7L94.1,393.5z"/>
		<path class="st2" d="M49.1,125c1.2-1.2,1.8-2.1,2.4-3.5c-0.5-0.8-1-1.7-1.3-3c-0.2-0.6-0.3-0.8-0.5-1l0.8-0.2c0,0.1,0,0.2,0,0.3
			c0,0.7,0.6,2.2,1.4,3.3c0.6-1.6,0.9-3,1.1-4.9h-1.7c-0.1,0.1-0.1,0.3-0.2,0.3c-0.1,0.2-0.2,0.3-0.6,0.3c-0.1,0-0.1,0-0.1,0
			c0,0-0.1,0-0.1,0c-0.3,0-0.5-0.1-0.5-0.2c0,0,0,0,0-0.1c1.3-2.6,2-4.1,2.6-5.7h-1.9c-0.3,0-0.6,0-1,0.1l-0.2-0.7
			c0.2,0,0.6,0.1,1.2,0.1h1.9c0.3-0.3,0.4-0.5,0.7-0.8c0.5,0.4,0.7,0.5,1.2,0.9c0.1,0.1,0.1,0.1,0.1,0.1c0,0.1-0.1,0.2-0.8,0.5
			c-0.7,1.8-1.1,2.6-2.1,4.5h1.5c0.3-0.4,0.4-0.5,0.6-0.8c0.5,0.3,0.6,0.5,1.1,0.8c0.1,0.1,0.2,0.2,0.2,0.2c0,0.1-0.2,0.3-0.7,0.5
			c-0.4,2.7-0.6,3.6-1.5,5.4c0.5,0.5,0.8,0.7,1.4,1c1.3,0.7,3,1,5.5,1c1.8,0,3.7-0.1,6.8-0.3v0.2c-0.5,0.1-0.7,0.3-1,0.5
			c-0.2,0.2-0.2,0.4-0.2,0.8c-1.2,0.1-1.9,0.1-3.1,0.1c-3.8,0-5.7-0.3-7.4-1c-0.9-0.4-1.7-1-2.4-1.7c-0.8,1.3-1.5,2.1-2.9,3
			L49.1,125z M64.3,113c0.3-0.5,0.4-0.6,0.7-1.1c0.5,0.5,0.6,0.6,1,1.2c0.1,0.1,0.1,0.2,0.1,0.2c0,0.1-0.1,0.1-0.1,0.1h-1.9
			c0,0.3,0,0.5,0,0.5c0,1.7,0,1.7,0,2.2c0,0.3-0.1,0.3-0.6,0.3c-0.1,0-0.2,0-0.4,0.1c0,0,0,0,0,0c-0.1,0-0.2-0.1-0.2-0.3v-0.4h-2.7
			l0,2.1h2.6c0.4-0.4,0.5-0.6,0.8-1c0.6,0.5,0.8,0.6,1.5,1.2c0,0.1,0.1,0.1,0.1,0.1c0,0.1-0.1,0.1-0.2,0.1h-4.9l0,2h2.9
			c0.4-0.5,0.6-0.7,1-1.2c0.6,0.5,0.8,0.7,1.5,1.3c0,0.1,0.1,0.1,0.1,0.1c0,0.1-0.1,0.2-0.2,0.2h-5.3c0,1.2,0,1.6,0,2.2
			c0,0.1-0.1,0.1-0.1,0.1c-0.1,0-0.6,0.1-0.9,0.1c-0.1,0-0.2,0-0.2-0.1c0-0.4,0-0.4,0-1.9c0-0.1,0-0.1,0-0.5h-3
			c-0.6,0-0.8,0-1.4,0.1l-0.2-0.6c0.8,0.1,0.8,0.1,1.6,0.1h3v-2h-2.6c-0.5,0-0.7,0-1.3,0.1l-0.2-0.7c0.5,0.1,1.1,0.2,1.5,0.2h2.6
			v-2.1h-2.2c-0.6,0-0.8,0-1.3,0.1l-0.2-0.7c0.5,0.1,1.2,0.1,1.5,0.1h2.3v-2h-3c-0.6,0-0.8,0-1.4,0.1l-0.2-0.7
			c0.7,0.1,1.1,0.2,1.6,0.2h3c0-0.3,0-0.3,0-2h-2.4c-0.3,0-0.6,0-1.1,0.1l-0.2-0.7c0.6,0.1,1,0.2,1.3,0.2H59c0-0.7,0-0.7-0.1-1.7
			c0.9,0.1,1.6,0.2,1.7,0.3c0.1,0,0.1,0.1,0.1,0.1c0,0.2-0.1,0.3-0.7,0.4c0,0.3,0,0.6,0,0.9h2.8c0.2-0.3,0.3-0.4,0.6-0.8
			c0.5,0.3,0.6,0.5,1.1,0.8c0.1,0.1,0.1,0.1,0.1,0.2s0,0.1-0.1,0.2c0,0-0.1,0.1-0.2,0.1c-0.1,0.1-0.2,0.1-0.3,0.2c0,0.3,0,0.4,0,0.5
			l0,0.7v0.6H64.3z M62.9,111h-2.8c0,0.9,0,1.5,0,2h2.8V111z M60.2,113.4l0,2h2.7v-2H60.2z"/>
		<path class="st2" d="M49.4,145c1.4-0.7,2.2-1.2,3.5-2.2c0.9-0.7,1.2-1,1.5-1.4c1.6,0.7,1.9,0.8,1.9,1c0,0.1-0.1,0.2-0.3,0.2
			c-0.1,0-0.4,0-0.6-0.1c-2.4,1.6-2.8,1.7-5.9,2.7L49.4,145z M49.5,140.3c0.4,0.1,0.8,0.1,1.1,0.1h12.5c0.5-0.6,0.6-0.8,1.1-1.3
			c0.8,0.6,1,0.8,1.7,1.4c0.1,0.1,0.1,0.2,0.1,0.2c0,0.1-0.1,0.1-0.1,0.1H50.6c-0.5,0-0.9,0.1-1,0.1L49.5,140.3z M54,139.2
			c0,0.2-0.1,0.3-0.7,0.3c-0.1,0-0.3,0-0.3,0c0,0,0,0,0,0c-0.2,0-0.3-0.1-0.3-0.3c0,0,0,0,0-0.1c0.1-4.1,0.1-4.1,0.1-5
			c0-1.4,0-1.4-0.1-5c0.6,0.3,0.8,0.4,1.4,0.8h6.7c0.3-0.4,0.4-0.5,0.7-0.8c0.5,0.3,0.6,0.5,1,0.8c0.1,0.1,0.2,0.2,0.2,0.3
			c0,0.1-0.2,0.3-0.6,0.5c0,3.1,0,6.7,0.1,8.4c0,0,0,0.1,0,0.1c0,0.2-0.1,0.3-0.7,0.3c-0.2,0-0.3,0-0.4,0c0,0,0,0-0.1,0
			c-0.1,0-0.2-0.1-0.2-0.2c0,0,0,0,0-0.1v-0.6h-7V139.2z M60.9,130.4h-7v2.3h7V130.4z M54,133.1v2.3h7v-2.3H54z M54,135.8v2.5h7
			v-2.5H54z M59.1,141.4c1.7,0.5,3.1,1,4.2,1.6c0.7,0.4,0.9,0.7,0.9,1.4c0,0.4-0.1,0.7-0.4,0.7c-0.2,0-0.4-0.2-0.9-0.6
			c-1-1-2.3-1.9-4-2.8L59.1,141.4z"/>
		<path class="st2" d="M57.5,149.1c1.9,0.9,2.6,1.6,2.6,2.6c0,0.4-0.2,0.7-0.5,0.7c-0.1,0-0.1,0-0.6-0.2c-0.5-0.2-1.2-0.3-2-0.4
			c-1.2-0.1-2.4-0.2-2.8-0.2s-0.7,0.2-0.7,0.5c0,0.3,0.4,1.2,1.2,2.8c1-0.5,2.1-1.1,3.2-1.5c1.3-0.5,2.4-0.7,3.5-0.7
			c2.2,0,3.7,1.2,3.7,2.8c0,0.7-0.4,1.5-0.9,2.1c-0.6,0.6-1.6,1-2.9,1c-1.5,0-3-0.5-4.1-1.4l0.1-0.3c0.9,0.5,2.1,0.8,3.2,0.8
			c1.2,0,2.2-0.3,2.7-1c0.4-0.4,0.6-1,0.6-1.5c0-1.2-0.9-1.9-2.6-1.9c-1,0-1.9,0.3-3.4,1c-0.8,0.4-1.7,0.9-2.7,1.5
			c0.9,1.7,1.4,3,2,4.5c0.7,1.8,0.9,2.4,0.9,3c0,0.8-0.3,1.4-0.8,1.4c-0.1,0-0.2-0.1-0.3-0.2c-0.1-0.1-0.2-0.3-0.2-0.8
			c-0.3-2.3-1.1-4.7-2.2-7.4c-1,0.7-1.6,1.1-1.9,1.3c-0.3,0.2-0.3,0.3-0.5,0.4c-0.2,0.2-0.4,0.3-0.6,0.3c-0.8,0-1.9-1.2-1.9-2
			c0-0.1,0-0.2,0.1-0.3c0.4,0.6,0.8,0.9,1.3,0.9c0.5,0,1.6-0.5,3.2-1.4c-0.5-1-0.9-1.8-1.2-2.2c-0.3-0.4-0.4-0.5-0.4-0.8
			c0-0.6,0.7-1.2,1.4-1.2c0.2,0,0.2,0,0.6,0.1c0.1,0,0.2,0,0.5,0.1c0.1,0,0.6,0,1.4,0c0.5,0,0.8,0,1.4,0c1,0,1.2,0,1.2-0.2
			c0-0.4-0.6-1.1-1.5-1.7L57.5,149.1z"/>
		<path class="st2" d="M51.4,174.6v9.8c0,0.2,0,0.2-0.2,0.2c-0.1,0-0.7,0.1-0.9,0.1c-0.2,0-0.2,0-0.2-0.2c0-2.2,0.1-5.1,0.1-9.1
			c0-4.5,0-6.3-0.1-7.1c0.6,0.3,0.8,0.5,1.4,0.8H55c0.3-0.3,0.3-0.4,0.6-0.8c0.5,0.3,0.6,0.5,1.1,0.8c0.1,0.1,0.2,0.2,0.2,0.3
			c0,0.1-0.1,0.2-0.6,0.5c0,2.4,0,2.4,0,2.7c0,0.8,0,0.8,0,2.6c0,0.1,0,0.1-0.1,0.2c-0.3,0.1-0.5,0.1-0.8,0.1c-0.2,0-0.3,0-0.3-0.2
			v-0.8H51.4z M55.1,169.7h-3.7v2h3.7V169.7z M55.1,172.1h-3.7v2.2h3.7V172.1z M59.8,174.6v0.6c0,0.1,0,0.1-0.1,0.2
			c-0.1,0-0.6,0.1-0.9,0.1c-0.2,0-0.3,0-0.3-0.2c0,0,0,0,0,0c0-1.2,0-1.4,0-3.1c0-2.7,0-2.8-0.1-3.7c0.6,0.3,0.8,0.4,1.4,0.8h3.6
			c0.3-0.4,0.4-0.5,0.7-0.8c0.5,0.3,0.6,0.4,1,0.7c0.2,0.1,0.3,0.2,0.3,0.3c0,0.1-0.2,0.3-0.5,0.5v8.4c0,3.4,0,3.4,0.1,4.8
			c0,0.5-0.1,0.7-0.5,1c-0.3,0.2-0.6,0.3-1.7,0.6c-0.1-0.6-0.3-0.8-0.6-1c-0.4-0.2-1.1-0.3-2.3-0.5l0-0.2c2.1,0.1,2.1,0.1,3.6,0.1
			c0.2,0,0.2,0,0.2-0.2v-8.2H59.8z M63.6,169.7h-3.8v2h3.8V169.7z M63.6,172.1h-3.8v2.2h3.8V172.1z"/>
		<path class="st2" d="M53.1,196.9c-0.2,1.7-0.4,2.7-0.8,3.8c-0.6,1.5-1.3,2.5-2.8,3.8l-0.2-0.2c0.7-0.9,1-1.3,1.3-2
			c0.9-2,1.3-4.3,1.3-8.3c0-1.4,0-2-0.1-3c0.8,0.4,1,0.6,1.7,1.1h8.6c0.3-0.4,0.4-0.5,0.8-0.9c0.5,0.4,0.6,0.5,1.1,0.9
			c0.1,0.1,0.2,0.2,0.2,0.3c0,0.1-0.1,0.2-0.6,0.5c0,1.6,0,2.5,0.1,4.9c0,0.1-0.1,0.2-0.3,0.2c-0.3,0.1-0.5,0.1-0.7,0.1
			c-0.3,0-0.3,0-0.4-0.2v-1H53.1z M50,189.2c0.6,0.2,1.1,0.2,1.9,0.2h10.7c0.5-0.6,0.6-0.8,1.1-1.3c0.8,0.6,1,0.8,1.8,1.4
			c0.1,0.1,0.1,0.2,0.1,0.2c0,0.1-0.1,0.1-0.2,0.1H51.3c-0.3,0-0.6,0-1.1,0.1L50,189.2z M62.2,192.6h-9c0,2.4,0,3.1-0.1,3.9h9.1
			V192.6z"/>
		<path class="st2" d="M51.3,211.1c0.9,0.7,1.3,0.8,2.3,0.8c0.6,0,1.1-0.1,1.9-0.2c0.4-0.8,0.6-1.4,0.6-1.8c0-0.5-0.3-0.8-1.3-1
			c0.3-0.2,0.5-0.2,0.8-0.2c0.4,0,0.9,0.1,1.4,0.3c0.5,0.2,0.6,0.4,0.6,0.6c0,0.1-0.1,0.3-0.3,0.5c-0.2,0.2-0.4,0.5-0.5,0.7
			c-0.3,0.5-0.3,0.5-0.5,0.7c1.5-0.4,2-0.6,2.6-1.2c0.1-0.1,0.2-0.1,0.3-0.1c0.7,0,1.2,0.3,1.2,0.6c0,0.2-0.2,0.4-0.8,0.6
			c-1.6,0.5-2.5,0.7-3.9,1c-0.3,0.5-0.5,0.8-1,1.4c-0.5,0.8-0.6,1-1,1.4c1-0.5,1.6-0.7,2.3-0.7c1.1,0,1.9,0.7,2,1.8
			c0.3-0.1,0.3-0.1,1.8-0.9c1.8-0.9,2.2-1.2,2.2-1.5c0-0.3-0.3-0.6-0.8-0.8c0.2-0.1,0.3-0.1,0.4-0.1c0.8,0,2,1.1,2,1.8
			c0,0.3-0.1,0.5-0.6,0.6c-1.1,0.3-3.4,1.2-4.8,1.9c0,0.6,0,0.7,0,1.5c0,0.8-0.1,1.4-0.1,1.5c-0.1,0.2-0.3,0.3-0.5,0.3
			c-0.3,0-0.6-0.2-0.6-0.5c0-0.1,0-0.2,0-0.3c0.1-0.5,0.1-1.1,0.1-1.9c-1.1,0.6-1.6,1-2.1,1.4c-0.6,0.6-0.9,1.1-0.9,1.7
			c0,1,1,1.4,3,1.4c1.3,0,2.5-0.2,3.6-0.5c0.1,0,0.3-0.1,0.3-0.1c0.6,0,1.3,0.5,1.3,0.9c0,0.2-0.2,0.4-0.6,0.5
			c-0.7,0.1-2.1,0.3-3.2,0.3c-1.7,0-2.9-0.2-3.7-0.5c-0.9-0.4-1.3-1-1.3-1.9c0-0.8,0.4-1.6,1.3-2.5c0.5-0.5,1-0.9,2.2-1.6
			c0-0.8-0.1-1-0.3-1.4c-0.2-0.3-0.5-0.5-0.9-0.5c-1.2,0-2.6,1-3.9,2.6c-0.3,0.5-0.5,0.6-0.7,0.6c-0.3,0-0.5-0.4-0.5-1
			c0-0.4,0-0.4,0.5-0.8c1.3-1,2.1-1.9,3.3-3.9c-0.6,0.1-0.8,0.1-1.2,0.1c-1.2,0-1.9-0.3-2.7-1.4L51.3,211.1z"/>
		<path class="st2" d="M53.8,230.1c0.2,0.1,0.4,0.2,0.7,0.2s1.5-0.3,2.8-0.6c0.7-0.2,1.2-0.3,1.4-0.4c0.1-0.1,0.1-0.1,0.4-0.3
			c0.1-0.1,0.2-0.1,0.3-0.1c0.5,0,1.6,1.2,1.6,1.7c0,0.2-0.1,0.3-0.5,0.4c-0.3,0.1-1,0.7-2.4,1.8c-1.4,1.1-3.4,2.7-5.2,4.1
			c2-0.8,3.4-1.2,7-2.3c0.7-0.2,1.3-0.4,1.7-0.5c0.5-0.2,0.6-0.2,0.7-0.2c0.2,0,0.6,0.2,0.9,0.4c0.2,0.2,0.3,0.3,0.3,0.5
			c0,0.2-0.1,0.3-0.4,0.3c-0.1,0-0.2,0-1.2,0.1c-1,0-2.3,0.4-3.2,0.9c-1.5,0.8-2.4,2.1-2.4,3.3c0,1,0.7,1.9,1.8,2.3
			c0.5,0.2,0.8,0.2,1.6,0.2c0.1,0,0.3,0,0.3,0c0.1,0,0.3,0,0.3,0c0.4,0,1.1,0.6,1.1,1c0,0.3-0.3,0.5-0.9,0.5c-2.9,0-4.9-1.5-4.9-3.6
			c0-0.9,0.4-1.8,1.1-2.6c0.6-0.6,1-1,2-1.5c-2.1,0.6-5.4,1.9-6.4,2.6c-0.3,0.2-0.3,0.2-0.5,0.2c-0.4,0-1-0.6-1-1
			c0-0.3,0.1-0.4,0.5-0.5c0.9-0.3,2.6-1.5,5.1-3.9c2-1.9,2.9-2.9,2.9-3.2c0-0.1-0.1-0.2-0.3-0.2c-0.2,0-0.4,0.1-2,0.7
			c-1,0.4-1.7,0.7-2.2,1c-0.3,0.1-0.4,0.2-0.5,0.2c-0.4,0-0.8-0.4-1.1-1c-0.2-0.4-0.3-0.8-0.3-1c0-0.1,0-0.2,0.1-0.3
			C53.3,229.6,53.5,229.9,53.8,230.1z"/>
		<path class="st2" d="M57.4,262.2c1.9-0.6,3.2-1.3,4.2-2.5c1.1-1.2,1.6-2.7,1.6-4.3c0-1.7-0.7-3.1-2-4c-0.8-0.5-2-0.8-3.1-0.8
			c-0.2,0-0.3,0-0.6,0c0.4,0.6,0.6,1,0.6,1.5c0,1.4-1,4-2.4,6.2c-1.1,1.8-2,2.7-2.7,2.7c-0.3,0-0.6-0.1-0.8-0.4
			c-0.2-0.2-0.2-0.3-0.5-1.2c-0.2-0.5-0.3-0.7-0.8-1.7c-0.3-0.6-0.4-1.1-0.4-1.6c0-1.1,0.6-2.5,1.6-3.6c1.5-1.5,3.8-2.5,6.2-2.5
			c1.8,0,3.5,0.6,4.6,1.7c1.2,1.1,1.7,2.5,1.7,4.2c0,2.2-1.3,4.2-3.6,5.5c-1,0.6-2,0.8-3.5,1.1L57.4,262.2z M51.4,256.6
			c0,0.9,0.3,1.7,0.7,2.4c0.3,0.3,0.5,0.5,0.7,0.5c0.4,0,1.3-1,2.1-2.4c1.3-2.1,2.3-4.4,2.3-5.6c0-0.3-0.1-0.5-0.3-0.9
			C53.9,251.3,51.4,253.9,51.4,256.6z"/>
		<path class="st2" d="M51.8,270.9c1,0.8,1.5,1,2.9,1c0.8,0,1.5-0.1,2.6-0.2c-0.1-2.8-0.2-3-1.6-3.2c0.3-0.3,0.4-0.3,0.9-0.3
			c0.5,0,1.1,0.1,1.5,0.2c0.4,0.1,0.6,0.3,0.6,0.6c0,0.1,0,0.1-0.2,0.6c-0.2,0.3-0.3,1-0.3,1.9c1.8-0.3,2.8-0.6,3.3-1.1
			c0.1,0,0.2-0.1,0.2-0.1c0.2,0,0.7,0.2,0.9,0.3c0.2,0.1,0.3,0.3,0.3,0.4c0,0.3-0.3,0.4-1.4,0.7c-1.2,0.3-2.4,0.5-3.4,0.6
			c0,0.5,0,0.7,0,1.2c0,0.5,0,0.8,0,1.6c0.7-0.1,1.4-0.3,2.1-0.5c0.5-0.2,0.6-0.2,0.9-0.5c0.1-0.1,0.2-0.1,0.3-0.1
			c0.3,0,0.7,0.1,0.9,0.3c0.1,0.1,0.2,0.2,0.2,0.3c0,0.3-0.3,0.5-1.4,0.8c-0.9,0.2-2.1,0.5-2.9,0.5c0,0.7,0,1,0.1,1.6
			c0,0.7,0.1,1,0.1,1.4c1.7,0.3,3.2,0.9,4,1.5c0.3,0.3,0.5,0.7,0.5,1.2c0,0.4-0.2,0.6-0.4,0.6c-0.2,0-0.3-0.1-0.7-0.5
			c-0.3-0.3-1-0.8-1.5-1.1c-0.6-0.4-1.1-0.6-1.8-0.8c0,0.4,0.1,0.6,0.1,0.8c0,0.7-0.2,1.2-0.6,1.5c-0.5,0.4-1.4,0.7-2.4,0.7
			c-1.8,0-3-0.8-3-1.9c0-1.3,1.7-2.2,4.1-2.2c0.3,0,0.5,0,0.9,0c0-0.9,0-1,0-1.2c0-0.1,0-0.2,0-0.3c0-0.4,0-0.7,0-0.8
			c0-0.1,0-0.3,0-0.4c-0.7,0-1.1,0.1-1.3,0.1c-1.2,0-2-0.1-2.4-0.4c-0.5-0.3-0.8-0.8-0.8-1.4c0-0.1,0-0.3,0-0.5l0.3,0
			c0,0.6,0.1,0.8,0.4,1c0.3,0.3,1.1,0.4,2.1,0.4c0.5,0,0.9,0,1.7-0.1c0-0.1,0-0.2,0-0.2v-1l0-1.3v-0.2c-1,0.1-1.7,0.1-2.3,0.1
			c-1.7,0-2.4-0.3-3.3-1.5L51.8,270.9z M55.8,279.7c-0.7,0-1.4,0.1-2,0.3c-0.6,0.3-1,0.6-1,1.1c0,0.6,0.7,1,2,1
			c0.9,0,1.6-0.2,2.1-0.6c0.2-0.2,0.3-0.5,0.4-0.9c0-0.1,0-0.5,0-0.7c0,0,0-0.1,0-0.1C56.6,279.8,56.3,279.7,55.8,279.7z"/>
		<path class="st2" d="M51.8,290.7c1,0.8,1.5,1,2.9,1c0.8,0,1.5-0.1,2.6-0.2c-0.1-2.8-0.2-3-1.6-3.2c0.3-0.3,0.4-0.3,0.9-0.3
			c0.5,0,1.1,0.1,1.5,0.2c0.4,0.1,0.6,0.3,0.6,0.6c0,0.1,0,0.1-0.2,0.6c-0.2,0.3-0.3,1-0.3,1.9c1.8-0.3,2.8-0.6,3.3-1.1
			c0.1,0,0.2-0.1,0.2-0.1c0.2,0,0.7,0.2,0.9,0.3c0.2,0.1,0.3,0.3,0.3,0.4c0,0.3-0.3,0.4-1.4,0.7c-1.2,0.3-2.4,0.5-3.4,0.6
			c0,0.5,0,0.7,0,1.2c0,0.5,0,0.8,0,1.6c0.7-0.1,1.4-0.3,2.1-0.5c0.5-0.2,0.6-0.2,0.9-0.5c0.1-0.1,0.2-0.1,0.3-0.1
			c0.3,0,0.7,0.1,0.9,0.3c0.1,0.1,0.2,0.2,0.2,0.3c0,0.3-0.3,0.5-1.4,0.8c-0.9,0.2-2.1,0.5-2.9,0.5c0,0.7,0,1,0.1,1.6
			c0,0.7,0.1,1,0.1,1.4c1.7,0.3,3.2,0.9,4,1.5c0.3,0.3,0.5,0.7,0.5,1.2c0,0.4-0.2,0.6-0.4,0.6c-0.2,0-0.3-0.1-0.7-0.5
			c-0.3-0.3-1-0.8-1.5-1.1c-0.6-0.4-1.1-0.6-1.8-0.8c0,0.4,0.1,0.6,0.1,0.8c0,0.7-0.2,1.2-0.6,1.5c-0.5,0.4-1.4,0.7-2.4,0.7
			c-1.8,0-3-0.8-3-1.9c0-1.3,1.7-2.2,4.1-2.2c0.3,0,0.5,0,0.9,0c0-0.9,0-1,0-1.2c0-0.1,0-0.2,0-0.3c0-0.4,0-0.7,0-0.8
			c0-0.1,0-0.3,0-0.5c-0.7,0-1.1,0.1-1.3,0.1c-1.2,0-2-0.1-2.4-0.4c-0.5-0.3-0.8-0.8-0.8-1.4c0-0.1,0-0.3,0-0.5l0.3,0
			c0,0.6,0.1,0.8,0.4,1c0.3,0.3,1.1,0.4,2.1,0.4c0.5,0,0.9,0,1.7-0.1c0-0.1,0-0.2,0-0.2v-1l0-1.3v-0.2c-1,0.1-1.7,0.1-2.3,0.1
			c-1.7,0-2.4-0.3-3.3-1.5L51.8,290.7z M55.8,299.5c-0.7,0-1.4,0.1-2,0.3c-0.6,0.3-1,0.6-1,1.1c0,0.6,0.7,1,2,1
			c0.9,0,1.6-0.2,2.1-0.6c0.2-0.2,0.3-0.5,0.4-0.9c0-0.1,0-0.5,0-0.7c0,0,0-0.1,0-0.1C56.6,299.6,56.3,299.5,55.8,299.5z"/>
		<path class="st2" d="M53.7,310.9c0.4-0.4,0.5-0.6,0.8-1c0.5,0.5,0.7,0.6,1.2,1.2c0,0.1,0.1,0.1,0.1,0.1c0,0.1-0.1,0.1-0.2,0.1
			h-2.5v3.8c1.2-0.4,1.3-0.4,2-0.7l0.1,0.2c-0.6,0.5-0.7,0.5-2.1,1.3v2.9c0,2.3,0,2.3,0,3.1c0,0.5-0.1,0.8-0.4,1
			c-0.2,0.2-0.5,0.3-1.3,0.5c-0.1-0.5-0.1-0.6-0.4-0.8c-0.3-0.2-0.8-0.3-1.6-0.4v-0.3c1.2,0.1,1.4,0.1,2.3,0.1c0,0,0.1,0,0.1,0
			c0.1,0,0.2-0.1,0.2-0.2v-5.3l-1.5,0.7c-0.1,0.5-0.1,0.7-0.3,0.7c-0.1,0-0.1-0.1-0.2-0.2c0,0-0.2-0.6-0.6-1.6
			c0.8-0.1,1.4-0.3,2.6-0.6v-4.2h-1.3c-0.5,0-0.8,0-1.1,0.1l-0.2-0.7c0.5,0.1,0.8,0.2,1.3,0.2h1.3v-2.1c0-0.9,0-1.3-0.1-2
			c1.9,0.3,2,0.3,2,0.5c0,0.1-0.1,0.2-0.7,0.4v3.2H53.7z M62.9,315.9h0.3c0.5-0.5,0.6-0.7,1.1-1.2c0.7,0.6,0.9,0.7,1.6,1.3
			c0.1,0.1,0.1,0.1,0.1,0.2c0,0.1-0.1,0.1-0.2,0.1h-2.8v2.7c0,0.8,0,1.4,0,1.8c0,0.5,0,0.6,0,1.1c0,0.9-0.2,1-2.1,1.5
			c-0.2-0.8-0.4-0.9-2.8-1.3l0-0.3c1.1,0.1,1.6,0.1,2.5,0.1c0.2,0,0.5,0,0.8,0c0.2,0,0.3-0.1,0.3-0.3v-5.3h-5.4c-0.6,0-1,0-1.5,0.1
			l-0.1-0.7c0.6,0.1,1.1,0.1,1.7,0.1h5.4v-2.4h-5.4c-0.5,0-1.1,0-1.5,0.1l-0.1-0.7c0.5,0.1,1,0.2,1.6,0.2h2.9v-2.9h-1.8
			c-0.6,0-1,0-1.5,0.1l-0.1-0.7c0.5,0.1,1.1,0.1,1.7,0.1h1.8v-1.5c0-0.8,0-0.9,0-1.5c1.6,0.2,2,0.3,2,0.5s-0.2,0.3-0.8,0.4v2.1h2.2
			c0.4-0.6,0.6-0.7,1-1.2c0.7,0.6,0.9,0.8,1.6,1.4c0,0.1,0.1,0.1,0.1,0.1c0,0.1-0.1,0.1-0.2,0.1h-4.7v2.9h2.8c0.4-0.5,0.5-0.7,1-1.2
			c0.7,0.6,0.9,0.8,1.5,1.4c0,0.1,0.1,0.1,0.1,0.1c0,0.1-0.1,0.1-0.2,0.1h-2.5V315.9z M56.2,317c1.6,0.8,1.7,0.9,2.3,1.3
			c0.4,0.3,0.6,0.6,0.6,0.9c0,0.6-0.4,1.4-0.7,1.4c-0.2,0-0.2-0.1-0.5-0.7c-0.4-1-0.7-1.5-1.8-2.7L56.2,317z"/>
		<path class="st2" d="M51,330.5c0.8,0.8,1.2,1,2.4,1c0.4,0,0.8,0,1.3-0.1c0.1-0.3,0.1-0.3,0.3-1.3c0.1-0.5,0.2-1.3,0.2-1.5
			c0-0.6-0.4-0.9-1.4-0.9c0.3-0.3,0.5-0.3,0.9-0.3c0.5,0,1.2,0.2,1.7,0.4c0.3,0.2,0.5,0.4,0.5,0.6c0,0.2,0,0.2-0.3,0.5
			c-0.3,0.4-0.6,1.1-1.1,2.4c1.4-0.2,2.6-0.7,3.2-1.2c0.1-0.1,0.2-0.2,0.3-0.2c0.2,0,0.6,0.1,0.8,0.2c0.3,0.1,0.4,0.2,0.4,0.4
			c0,0.3-0.3,0.5-1,0.8c-1.2,0.4-2.4,0.7-4,0.9c-0.5,1.8-0.7,3.6-0.8,5c2-1,3.9-1.6,5.4-1.6c2,0,3.4,1,3.4,2.6c0,1.4-1,2.6-2.9,3.4
			c-1.4,0.6-3.1,0.9-5.3,0.8l0-0.3c1.9-0.3,2.1-0.4,2.8-0.6c2.6-0.8,3.9-2.1,3.9-3.7c0-1.1-0.7-1.7-2-1.7c-1.2,0-2.6,0.5-4,1.5
			c-0.5,0.4-0.8,0.7-1,1.1c-0.1,0.1-0.2,0.2-0.4,0.2c-0.5,0-1.1-0.8-1.1-1.4c0-0.3,0.6-3.5,1-5.3c-0.3,0-0.5,0.1-0.8,0.1
			c-1.5,0-2.2-0.4-3-1.6L51,330.5z"/>
		<path class="st2" d="M49.2,353.9c0.3,0,0.3,0,0.6,0.1c0.4,0.1,0.5,0.1,0.8,0.1h1.3c0.2-0.3,0.3-0.4,0.6-0.8
			c0.5,0.3,0.7,0.4,1.1,0.8c0.1,0.1,0.2,0.1,0.2,0.2c0,0,0,0.1-0.1,0.1c-0.1,0-0.1,0.1-0.2,0.2c-0.1,0.1-0.2,0.1-0.3,0.2v4.5
			c0.6,1,1,1.2,1.8,1.5c0.8,0.3,1.9,0.4,3.4,0.4c2.3,0,5.8-0.1,7.8-0.3v0.2c-0.7,0.2-1,0.5-1.2,1.2c-1.2,0.1-2.1,0.1-3.5,0.1
			c-3.7,0-5.5-0.2-6.7-0.7c-0.8-0.3-1.3-0.8-1.8-1.7c-0.1-0.2-0.1-0.2-0.4-0.7c-0.4,0.6-0.6,0.9-1,1.4c-0.9,1-0.9,1-1.1,1.2
			c0,0.3,0,0.4,0,0.5c0,0.2-0.1,0.4-0.2,0.4c-0.1,0-0.2-0.1-0.3-0.5c0-0.1-0.1-0.2-0.2-0.3c-0.2-0.4-0.3-0.6-0.6-1.2
			c0.3-0.1,0.3-0.1,1.5-0.7c0.5-0.2,0.8-0.4,1.2-0.7v-4.9h-1.4c-0.2,0-0.5,0-1.1,0.1L49.2,353.9z M49.7,347c1,0.5,2,1.2,2.7,1.9
			c0.4,0.3,0.5,0.6,0.5,1c0,0.5-0.2,0.9-0.5,1.2c-0.1,0.1-0.2,0.1-0.2,0.1c-0.1,0-0.2-0.1-0.4-0.5c-0.5-1.2-1.4-2.6-2.3-3.4
			L49.7,347z M54.9,347.7c0.5,0.1,1.1,0.2,1.5,0.2h2.7c0.2-0.3,0.3-0.4,0.6-0.8c0.4,0.3,0.6,0.4,1,0.8c0.1,0.1,0.1,0.2,0.1,0.2
			c0,0.1,0,0.1-0.8,0.6c0,2.4,0.5,4.2,1.6,6c1,1.6,2.1,2.6,4.1,3.9l-0.1,0.2c-0.1,0-0.1,0-0.2,0c-0.3,0-0.7,0.4-1.2,1.1
			c-2.3-2-3.6-4.1-4.4-7.3c-0.5,1.5-1.2,2.8-2.3,4.1c-1.1,1.4-2.2,2.3-3.8,3.2l-0.2-0.2c1.3-1.1,2.2-2,3.2-3.6
			c1.2-1.9,2.1-3.9,2.5-6.2c0.1-0.6,0.1-0.8,0.1-1.2c0-0.1,0-0.2,0-0.4h-3.1c-0.6,0-0.7,0-1.3,0.1L54.9,347.7z"/>
		<path class="st2" d="M65.1,375.2c-0.4,1.6-0.9,2.9-1.8,4c-1,1.3-2.4,2.1-3.6,2.1c-0.6,0-1.2-0.2-1.5-0.5c-0.5-0.4-0.7-1-0.8-2.4
			c-0.1-1.2-0.2-1.6-0.3-1.9c-0.2-0.6-0.6-0.9-1.2-0.9c-1.5,0-3.2,1.8-4.2,4.7c-0.3,0.9-0.4,1-0.6,1c-0.2,0-0.4-0.2-0.5-0.5
			c-0.1-0.3-0.2-0.8-0.2-1s0.1-0.3,0.3-0.6c0.7-1,1.9-3.1,3.6-6.4c1.1-2.2,1.7-3.5,1.7-4.1c0-0.6-0.3-0.9-1.2-1.3
			c0.2-0.1,0.3-0.2,0.5-0.2c0.4,0,1.1,0.3,1.8,0.8c0.5,0.3,0.6,0.5,0.6,0.8c0,0.3,0,0.3-0.3,0.7c-0.3,0.3-0.8,1.3-1.6,2.6
			c-0.3,0.5-0.7,1.2-1.3,2.3c-0.7,1.2-0.9,1.5-1.5,2.5h0c1.2-1.2,2.2-1.8,3.1-1.8c0.9,0,1.6,0.4,2,1.2c0.3,0.5,0.3,0.8,0.6,2.4
			c0.2,1,0.5,1.4,1.2,1.4c1.8,0,3.9-2.1,5-5L65.1,375.2z"/>
		<path class="st2" d="M50.3,390.9c0.7,0.8,1.2,1,2,1c0.7,0,1.5-0.1,2.3-0.3c0.4-1.2,0.6-2.4,0.6-3.1c0-0.5-0.3-0.8-1.3-1.1
			c0.2-0.1,0.3-0.2,0.6-0.2c0.4,0,1,0.1,1.5,0.3c0.5,0.2,0.8,0.5,0.8,0.7c0,0.1,0,0.1-0.2,0.4c-0.2,0.3-0.7,1.4-1.1,2.6
			c0.9-0.3,1.7-0.7,2.1-1.1c0.3-0.3,0.4-0.3,0.5-0.3c0.2,0,0.7,0.1,1,0.2c0.2,0.1,0.3,0.2,0.3,0.3c0,0.3-0.3,0.5-1,0.9
			c-0.8,0.4-2,0.8-3.2,1.1c-0.1,0.4-0.2,0.6-0.2,0.7c-0.6,1.8-1.2,3.7-1.9,5.6c-0.7,2.1-1,2.6-1.3,2.6c-0.2,0-0.3-0.1-0.4-0.4
			c-0.1-0.3-0.3-0.7-0.3-1c0-0.3,0-0.3,0.4-0.9c0.8-1.2,1.7-3.1,2.8-6.4c-0.7,0.1-1.2,0.2-1.7,0.2c-1.1,0-1.8-0.5-2.5-1.6
			L50.3,390.9z M57.4,397.1c0,0.3,0,0.5,0,0.6c0,1,0.5,1.8,1.4,2.2c0.5,0.2,1.2,0.3,1.9,0.3c0.7,0,1.2-0.1,1.7-0.3
			c0.1-0.1,0.2-0.1,0.3-0.1c0.2,0,0.6,0.2,0.9,0.4c0.2,0.2,0.3,0.3,0.3,0.5c0,0.4-0.7,0.6-2.1,0.6c-1.4,0-2.5-0.2-3.3-0.6
			c-1-0.5-1.5-1.4-1.5-2.6c0-0.4,0-0.7,0.2-1.1L57.4,397.1z M57.9,393.8c1.3-0.8,2.8-1.2,4.2-1.2c0.4,0,0.8,0.1,1.1,0.3
			c0.2,0.1,0.3,0.3,0.3,0.5c0,0.3-0.2,0.4-0.7,0.4c-0.7,0-0.9,0.1-1.4,0.4c-0.3,0.1-0.5,0.3-0.6,0.3l-0.7,0.4c0,0-0.2,0.1-0.4,0.2
			l-0.1-0.2c0.1-0.1,0.2-0.2,0.3-0.3l0.6-0.5c0.1-0.1,0.4-0.4,0.9-0.8c-0.1,0-0.1,0-0.1,0c-1,0-2.2,0.3-3.3,0.7L57.9,393.8z
			 M61.1,387.3c0.7,0.4,1.2,0.7,1.6,1.1c0.6,0.6,0.9,1,0.9,1.4s-0.3,0.8-0.6,0.8c-0.2,0-0.2,0-0.8-1.2c-0.3-0.6-0.9-1.4-1.4-1.9
			L61.1,387.3z M62.9,386.3c0.6,0.3,1.2,0.6,1.7,1c0.7,0.5,0.9,0.9,0.9,1.4c0,0.4-0.2,0.7-0.5,0.7c-0.2,0-0.3-0.1-0.4-0.3
			c-0.6-1.1-1-1.6-2-2.6L62.9,386.3z"/>
		<path class="st2" d="M13.2,125.4c1.1-1.8,1.5-3,1.9-4.8c0.3-1.5,0.4-3.7,0.4-6.6c0-2.6,0-3.8-0.1-4.8c0.7,0.3,0.9,0.4,1.6,0.8h9
			c0.3-0.3,0.3-0.4,0.6-0.8c0.6,0.4,0.7,0.5,1.2,0.9c0.1,0.1,0.1,0.1,0.1,0.1c0,0.1-0.2,0.3-0.7,0.5c0,1.7,0,1.9,0,2.4
			c0,2.7,0.1,4.8,0.4,6.2c0.3,1.4,0.5,2,1.2,3.1c0.3-0.9,0.5-1.4,0.9-3l0.3,0.1l-0.3,3.2c0,0.3,0,0.3,0,0.6c0,0.1,0.1,0.2,0.3,0.5
			c0.2,0.3,0.3,0.4,0.3,0.7c0,0.3-0.2,0.5-0.5,0.5c-0.4,0-0.8-0.3-1.3-0.8c-1.3-1.4-1.9-3.2-2.2-5.6c-0.2-1.7-0.3-4.1-0.3-6.2
			c0-0.6,0-1.1,0-2h-9.3c0,1,0,1,0,5.1c0,3-0.4,5.2-1.3,7.1c-0.5,1.2-1,1.8-2,2.9L13.2,125.4z M21.9,119.3v3
			c1.2-0.2,1.2-0.2,2.4-0.5c-0.3-0.4-0.4-0.5-1-1.5l0.2-0.1c0.9,0.6,1.3,0.9,1.9,1.5c0.6,0.6,0.9,1,0.9,1.3c0,0.3-0.2,0.9-0.3,1.1
			c-0.1,0.1-0.2,0.1-0.3,0.1c-0.2,0-0.3-0.1-0.5-0.7c-0.2-0.5-0.3-0.7-0.6-1.4c-1.5,0.5-5,1.5-6.7,1.9c-0.1,0.4-0.2,0.6-0.3,0.6
			c-0.2,0-0.3-0.2-0.8-1.8c1-0.1,3-0.3,4.1-0.6v-3.1h-1.9v0.7c0,0.1,0,0.2-0.1,0.2c-0.1,0-0.6,0.1-0.8,0.1c-0.1,0-0.2-0.1-0.2-0.2
			c0.1-0.6,0.1-1.1,0.1-1.8c0-1.8,0-3.3-0.1-3.9c0.6,0.3,0.8,0.4,1.3,0.8h1.8v-2.1c-1.3,0.2-2.1,0.3-3.3,0.4l-0.1-0.3
			c1.4-0.2,2.9-0.6,4.3-1.1c1-0.3,1.6-0.6,2.1-0.9c0.3,0.2,0.5,0.3,0.6,0.4c0.5,0.4,0.8,0.6,0.8,0.7c0,0.1-0.1,0.2-0.2,0.2
			c0,0,0,0-0.4-0.1c-0.3-0.1-0.3-0.1-0.5-0.1c-2,0.5-2,0.5-2.3,0.6v2.3h1.8c0.3-0.3,0.3-0.4,0.6-0.7c0.5,0.4,0.6,0.5,1,0.8
			c0.1,0.1,0.1,0.1,0.1,0.2c0,0.1-0.1,0.2-0.6,0.5c0,0.4,0,0.4,0,2c0,1.1,0,1.1,0,1.7c0,0.1-0.1,0.2-0.2,0.2c-0.2,0-0.4,0.1-0.6,0.1
			c-0.2,0-0.3,0-0.3-0.2v-0.4H21.9z M20.8,115.6h-1.9v3.3h1.9V115.6z M23.8,115.6h-1.9v3.3h1.9V115.6z"/>
		<path class="st2" d="M17.8,132.8c0.3-0.5,0.5-0.6,0.8-1.1c0.6,0.5,0.7,0.7,1.3,1.3c0,0.1,0.1,0.1,0.1,0.1c0,0-0.1,0.1-0.1,0.1H17
			v1.6c0.4,0.2,0.7,0.4,1.2,0.7c0.8,0.5,1,0.8,1,1.2c0,0.5-0.3,1.1-0.5,1.1c-0.2,0-0.2-0.1-0.5-0.7c-0.4-0.8-0.8-1.5-1.2-2
			c0,8.3,0,8.3,0,9.8c0,0.2-0.2,0.3-1,0.3c-0.2,0-0.2-0.1-0.2-0.2c0-3.2,0.1-6.4,0.1-7.1l0.1-2.4c-0.7,2.2-1.5,3.9-2.7,5.6l-0.2-0.1
			c1.4-2.8,1.9-4.4,2.7-7.8h-1.3c-0.4,0-0.6,0-1.1,0.1l-0.1-0.6c0.4,0.1,0.7,0.1,1.2,0.1h1.4V131c0-1.3,0-1.6-0.1-2.3
			c1.7,0.1,2.1,0.2,2.1,0.4c0,0.1-0.1,0.2-0.8,0.5v3.2H17.8z M26.4,131.3c0.3-0.4,0.5-0.5,0.8-0.8c0.5,0.5,0.7,0.6,1.2,1.1
			c0.1,0.1,0.2,0.2,0.2,0.3c0,0.2-0.2,0.2-0.9,0.3c-1.1,1.7-1.7,2.5-2.6,3.4c1.6,1.2,3,1.8,5.2,2.1v0.3c-0.7,0.3-0.9,0.5-1.2,1.2
			c-2.1-1-3.4-1.8-4.6-3.1c-1.2,1-2.4,1.9-3.7,2.5c0.3,0.2,0.5,0.3,0.9,0.6h4.8c0.3-0.3,0.3-0.4,0.6-0.6c0.4,0.3,0.5,0.4,0.9,0.6
			c0.2,0.1,0.3,0.2,0.3,0.3c0,0.1-0.1,0.2-0.5,0.4c0,0.6,0,1.1,0,1.5c0,0.7,0,1.2,0.1,3.5c0,0.1,0,0.1-0.1,0.2
			c-0.1,0-0.5,0.1-0.8,0.1c-0.2,0-0.3,0-0.3-0.2v-0.8h-4.9v0.8c0,0.2-0.2,0.3-0.9,0.3c-0.2,0-0.3-0.1-0.3-0.2c0-2.6,0-3.3,0-4
			c0-0.6,0-0.6,0-2.1c-0.6,0.3-1.1,0.5-2.1,0.9l-0.1-0.2c2.2-1.3,2.7-1.6,3.8-2.5c0.6-0.5,1.2-1,1.8-1.7c-0.8-1-1.4-1.9-1.8-3
			c-1,1.5-1.7,2.4-2.8,3.3l-0.2-0.1c0.8-1,1.4-2.1,2.1-3.7c0.5-1.2,0.9-2.3,1.1-3.1c0.4,0.1,0.7,0.2,0.9,0.2
			c0.9,0.3,1.1,0.3,1.1,0.5c0,0.2-0.2,0.3-0.8,0.3c-0.5,1-0.5,1-0.8,1.5H26.4z M21.5,143.7h4.9v-4.1h-4.9V143.7z M22.2,131.8
			c-0.1,0.1-0.1,0.1-0.2,0.3c0.7,1.3,1.2,2,2.1,2.8c0.9-1,1.4-1.7,2.2-3.1H22.2z"/>
		<path class="st2" d="M15.8,151.4c0.7,0.8,1.3,1.1,2.5,1.1c0.3,0,0.6,0,1-0.1c0.1-0.8,0.2-1.7,0.2-2c0-0.6-0.3-0.9-1.2-1.2
			c0.2-0.2,0.3-0.2,0.5-0.2c0.4,0,1.1,0.2,1.6,0.4c0.5,0.2,0.7,0.5,0.7,0.7c0,0.2,0,0.2-0.2,0.5c-0.2,0.3-0.3,0.6-0.6,1.6
			c1.7-0.4,2.8-0.8,3.4-1.3c0.2-0.2,0.3-0.2,0.5-0.2c0.3,0,0.6,0.1,0.8,0.1c0.2,0.1,0.3,0.2,0.3,0.4c0,0.3-0.4,0.5-1.5,1
			c-0.9,0.3-2.3,0.6-3.6,0.8c-0.2,0.8-0.3,1.9-0.3,2.7c1-0.3,1.9-0.5,2.9-0.6c0-0.1,0-0.1,0-0.1c0-0.3-0.1-0.6-0.6-1
			c0.1,0,0.2,0,0.2,0c0.5,0,1,0.5,1.2,1.1c1.6,0.2,2.6,0.5,3.5,1.3c0.8,0.7,1.2,1.6,1.2,2.8c0,2.7-2.8,4.8-7,5.1l-0.1-0.3
			c3.7-0.9,5.7-2.8,5.7-5.3c0-1.1-0.5-2-1.3-2.6c-0.5-0.3-1.1-0.5-2.1-0.6c-0.3,0.9-0.6,1.5-1.1,2.5c-0.6,1-1.2,1.7-1.9,2.3
			c0.2,0.5,0.2,0.5,0.5,0.8c0.1,0.2,0.2,0.4,0.2,0.8c0,0.5-0.2,0.8-0.4,0.8c-0.3,0-0.6-0.5-1-1.6c-1.2,1-2.4,1.7-3.1,1.7
			c-0.4,0-0.6-0.2-0.9-0.8c-0.1-0.3-0.2-0.4-0.3-0.7c-0.3-0.4-0.3-0.7-0.3-1.1c0-0.9,0.6-1.9,1.7-2.8c0.7-0.5,1.4-1,2.4-1.4
			c0-0.3,0-0.3,0.1-1.3c0-0.3,0.1-0.6,0.2-1.6c-0.3,0-0.5,0-0.7,0c-1.4,0-2.3-0.5-3-1.7L15.8,151.4z M16.5,159
			c-0.4,0.6-0.6,1.1-0.6,1.7c0,0.7,0.3,1.1,0.7,1.1c0.6,0,1.7-0.6,2.7-1.5c-0.2-1.2-0.3-1.8-0.3-2.9c0-0.1,0-0.4,0-0.6
			C17.7,157.6,17,158.1,16.5,159z M19.8,157c0,1,0.1,1.9,0.3,2.6c1.4-1.5,2.1-2.4,2.6-3.9c-1,0.1-1.7,0.3-2.8,0.7
			C19.8,156.7,19.8,156.9,19.8,157z"/>
		<path class="st2" d="M20,169.5c0.7,1.2,1.4,1.7,2.9,2.2c0.4,0.1,0.6,0.3,0.8,0.6c0.2,0.3,0.3,0.5,0.3,0.7c0,0.2-0.2,0.4-0.5,0.4
			c-0.1,0-0.2,0-0.6-0.2c-0.2,0-0.5-0.1-0.6-0.1c-0.5,0-1.1,0.2-1.6,0.5c-0.6,0.3-0.9,0.8-0.9,1.2c0,0.7,0.4,1.3,2.1,2.9
			c0.8-0.2,1.3-0.3,1.9-0.3c1.4,0,2.6,0.4,3.5,1c0.9,0.6,1.5,1.6,1.5,2.3c0,0.6-0.3,0.9-0.8,0.9c-0.1,0-0.2,0-0.5-0.1
			c-0.2-0.1-0.4-0.1-0.8-0.1c-0.1,0-0.7,0.1-2,0.1l0-0.2c1.2-0.4,2.2-0.8,2.6-1c-0.1-0.8-0.5-1.3-1.1-1.8c-0.6-0.5-1.6-0.8-2.5-0.8
			c-0.5,0-0.8,0.1-1.5,0.2c1,1,1.3,1.7,1.3,2.5c0,0.6-0.4,1.3-0.9,1.7c-0.4,0.3-1,0.5-1.6,0.5c-1.2,0-2.5-0.6-3.8-1.7
			c-0.4,0.4-0.7,0.8-1.1,1.2c-0.3,0.4-0.4,0.5-0.7,0.5c-0.8,0-1.7-1.4-1.7-2.4c0-0.3,0.1-0.4,0.2-0.6c0.1,0.5,0.2,0.8,0.4,1
			c0.2,0.2,0.4,0.4,0.6,0.4c0.2,0,0.5-0.2,1.7-0.9c1.7-1.1,3.2-1.9,4.4-2.4c-1.1-1.3-1.6-2.2-1.6-3c0-1,0.6-1.7,2.1-2.7
			c-1.2-1-1.5-1.3-2-2.8L20,169.5z M17.7,180.9c1.1,0.7,2.2,1.1,3.2,1.1c1,0,1.6-0.6,1.6-1.5c0-0.6-0.3-1.2-0.9-2.1
			C20,179.1,19,179.7,17.7,180.9z"/>
		<path class="st2" d="M17.5,194.9c0-0.3,0-0.3,0-0.8c0-0.4,0-0.4,0.1-0.6c-0.5,0.4-1.5,1-1.8,1.2c-0.3,0.2-0.5,0.3-0.6,0.3
			c-0.5,0-1.3-1.1-1.3-1.6c0,0,0-0.2,0.1-0.3c0.4,0.6,0.8,0.9,1.2,0.9c0.4,0,1.5-0.5,2.6-1.1c0.1-0.8,0.1-1.3,0.1-1.9
			c0-1-0.2-1.4-1-2c0.1-0.1,0.1-0.1,0.2-0.1c0.3,0,0.7,0.2,1.2,0.5c0.6,0.4,0.9,0.8,0.9,1.2c0,0.2,0,0.2-0.2,0.7
			c-0.1,0.3-0.3,0.9-0.3,1.4c0.4,0.4,0.5,0.6,0.5,0.7c0,0.1,0,0.1-0.3,0.5c-0.2,0.4-0.4,0.7-0.6,1.2c0,0.3,0,0.4,0,0.7
			c1.8-1.7,2.4-2.2,3.1-2.8c1.3-0.9,2.1-1.3,2.9-1.3c0.6,0,1.1,0.2,1.4,0.6c0.3,0.4,0.5,0.9,0.5,1.6c0,0.7,0,0.8-0.4,2.7
			c-0.2,1.2-0.3,2.2-0.3,3c0,0.7,0.1,1.1,0.5,1.3c0.3,0.2,0.6,0.3,0.9,0.3c0.9,0,2.2-0.5,3.3-1.3l0.1,0.2c-1.3,1.3-2.7,2.1-4,2.1
			c-1.4,0-2.1-0.9-2.1-2.5c0-0.6,0.2-1.8,0.5-3.2c0.4-1.9,0.5-2.2,0.5-2.8c0-0.9-0.4-1.4-1.1-1.4c-0.8,0-1.7,0.5-3.2,1.8
			c-0.9,0.8-1.8,1.7-2.7,2.8c0,0.4,0,0.7,0,0.9c0,1,0.1,1.8,0.2,3.2c0.1,0.4,0.1,0.6,0.1,0.8c0,1-0.3,1.9-0.8,1.9
			c-0.2,0-0.3-0.1-0.4-0.5c-0.1-0.2-0.3-0.7-0.3-0.9c-0.2-0.4-0.8-1.1-1.6-2c-0.4,0.9-0.4,1-0.6,1c-0.2,0-0.3-0.1-0.4-0.4
			c-0.1-0.3-0.2-0.7-0.2-1c0-0.2,0-0.3,0.3-0.5c0.3-0.3,0.6-0.7,1.2-1.6L17.5,194.9z M16.4,198.3c-0.4,0.8-0.6,1.2-1,1.9
			c1.1,0.9,1.4,1.1,1.9,1.5c0-0.7,0-0.7,0.1-3.4c0-0.9,0-1.3,0.1-2C17.3,196.8,17.2,196.8,16.4,198.3z"/>
		<path class="st2" d="M23,210.4c-0.7,0.2-2.4,0.9-3.6,1.4c-0.4,0.2-0.6,0.2-0.7,0.2c-0.3,0-0.7-0.3-1-0.8c-0.3-0.5-0.5-1-0.5-1.3
			c0-0.2,0-0.3,0.2-0.5c0.3,0.8,0.8,1.3,1.4,1.3c0.5,0,2.2-0.4,3.4-0.8c0.7-0.2,0.7-0.2,1.1-0.6c0.1-0.1,0.2-0.1,0.3-0.1
			c0.2,0,0.5,0.2,1,0.6c0.4,0.4,0.5,0.6,0.5,0.8c0,0.1-0.1,0.2-0.3,0.3c-0.5,0.3-0.7,0.4-1.5,1.2c-1.1,1.1-1.8,1.8-2.6,2.7
			c-1.7,1.9-1.7,1.9-2.1,2.2l0,0c1.9-1.2,3.4-1.7,4.9-1.7c2.3,0,3.9,1.4,3.9,3.4c0,2.6-2.4,4.5-5.7,4.5c-1.8,0-2.9-0.7-2.9-1.8
			c0-0.9,0.8-1.5,1.9-1.5c0.9,0,1.7,0.3,2.3,0.9c0.3,0.3,0.5,0.6,0.8,1.1c1.4-0.6,2.2-1.8,2.2-3.4c0-1-0.4-1.8-1.1-2.2
			c-0.4-0.2-1.1-0.4-1.8-0.4c-1.8,0-4.2,1.4-5.7,3.3c-0.3,0.4-0.4,0.5-0.6,0.5c-0.3,0-0.6-0.6-0.6-1.2c0-0.2,0.1-0.4,0.4-0.6
			c0.7-0.5,1-0.8,2.5-2.5c2.2-2.5,2.9-3.3,4.3-5.1c0.1-0.2,0.1-0.2,0.2-0.3c0,0,0,0-0.1,0c0,0,0,0,0,0c0,0,0,0-0.1,0
			C23.2,210.4,23.1,210.4,23,210.4L23,210.4z M20.2,220.8c-0.7,0-1.1,0.4-1.1,0.9c0,0.7,0.8,1.1,2.1,1.1c0.5,0,0.7,0,1.3-0.2
			C22,221.5,21.2,220.8,20.2,220.8z"/>
		<path class="st2" d="M13.2,236.7c1.4-2,2-3.4,3-6.1c0.4-1.2,0.5-1.6,0.8-2.8c2,0.6,2,0.6,2,0.7s-0.2,0.2-0.8,0.3
			c-0.5,1.4-1.1,2.8-2.2,4.6c0.9,0.1,1.3,0.2,1.3,0.4c0,0.1-0.1,0.2-0.5,0.4v5.5l0,4c0,0.2,0,0.3-0.1,0.3c-0.1,0.1-0.7,0.1-1.1,0.1
			c-0.1,0-0.2-0.1-0.2-0.2c0.1-1.7,0.1-2.3,0.1-4.2l0.1-5.6c-0.8,1.2-1.2,1.7-2.1,2.6L13.2,236.7z M27.6,230.8
			c0.4-0.4,0.5-0.5,0.8-0.9c0.6,0.5,0.8,0.7,1.4,1.2c0.1,0.1,0.1,0.1,0.1,0.2c0,0.3-0.1,0.3-1.1,0.3c-0.1,0.1-0.8,0.8-2.1,2.1
			l-0.2-0.1c0.6-1.1,0.7-1.4,1.1-2.4h-8c0,0.1,0,0.1,0,0.2c0,0.8-0.3,1.7-0.6,2.1c-0.2,0.3-0.5,0.5-0.6,0.5c-0.2,0-0.5-0.5-0.5-0.9
			c0-0.2,0.1-0.3,0.3-0.6c0.6-0.6,1-1.4,1-2.6h0.4c0,0.1,0,0.2,0,0.2c0,0,0,0.2,0,0.4c0,0.1,0,0.2,0,0.3h3.3v-1.7c0-0.6,0-0.8,0-1.4
			c1.9,0.2,2.1,0.3,2.1,0.5c0,0.1-0.3,0.3-0.7,0.4v2.2H27.6z M19.5,235.2c-0.5,0-0.9,0-1.6,0.1l-0.2-0.8c0.7,0.2,1.3,0.2,1.7,0.2
			h7.6c0.5-0.5,0.6-0.7,1.1-1.2c0.7,0.6,0.9,0.7,1.6,1.4c0.1,0.1,0.1,0.1,0.1,0.2c0,0.1-0.1,0.1-0.2,0.1h-5.3v4.2c0,0.9,0,2.1,0,2.8
			c0,0.8,0,0.9-0.1,1.1c-0.1,0.2-0.4,0.4-0.8,0.5c-0.1,0.1-0.5,0.2-1.1,0.3c-0.1-0.4-0.2-0.6-0.4-0.7c-0.2-0.1-0.6-0.3-1.1-0.4
			c-0.2,0-0.6-0.1-1.4-0.2v-0.3c1.4,0.1,1.8,0.1,3.2,0.2c0.1,0,0.1,0,0.1,0c0.2,0,0.3,0,0.3-0.3v-7.1H19.5z"/>
		<path class="st2" d="M15.8,251.1c1,0.8,1.5,1,2.9,1c0.8,0,1.5-0.1,2.6-0.2c-0.1-2.8-0.2-3-1.6-3.2c0.3-0.3,0.4-0.3,0.9-0.3
			c0.5,0,1.1,0.1,1.5,0.2c0.4,0.1,0.6,0.3,0.6,0.6c0,0.1,0,0.1-0.2,0.6c-0.2,0.3-0.3,1-0.3,1.9c1.8-0.3,2.8-0.6,3.3-1.1
			c0.1,0,0.2-0.1,0.2-0.1c0.2,0,0.7,0.2,0.9,0.3c0.2,0.1,0.3,0.3,0.3,0.4c0,0.3-0.3,0.4-1.4,0.7c-1.2,0.3-2.4,0.5-3.4,0.6
			c0,0.5,0,0.7,0,1.2c0,0.5,0,0.8,0,1.6c0.7-0.1,1.4-0.3,2.1-0.5c0.5-0.2,0.6-0.2,0.9-0.5c0.1-0.1,0.2-0.1,0.3-0.1
			c0.3,0,0.7,0.1,0.9,0.3c0.1,0.1,0.2,0.2,0.2,0.3c0,0.3-0.3,0.5-1.4,0.8c-0.9,0.2-2.1,0.5-2.9,0.5c0,0.7,0,1,0.1,1.6
			c0,0.7,0.1,1,0.1,1.4c1.7,0.3,3.2,0.9,4,1.5c0.3,0.3,0.5,0.7,0.5,1.2c0,0.4-0.2,0.6-0.4,0.6c-0.2,0-0.3-0.1-0.7-0.5
			c-0.3-0.3-1-0.8-1.5-1.1c-0.6-0.4-1.1-0.6-1.8-0.8c0,0.4,0.1,0.6,0.1,0.8c0,0.7-0.2,1.2-0.6,1.5c-0.5,0.4-1.4,0.7-2.4,0.7
			c-1.8,0-3-0.8-3-1.9c0-1.3,1.7-2.2,4.1-2.2c0.3,0,0.5,0,0.9,0c0-0.9,0-1,0-1.2c0-0.1,0-0.2,0-0.3c0-0.4,0-0.7,0-0.8
			c0-0.1,0-0.3,0-0.5c-0.7,0-1.1,0.1-1.3,0.1c-1.2,0-2-0.1-2.4-0.4c-0.5-0.3-0.8-0.8-0.8-1.4c0-0.1,0-0.3,0-0.5l0.3,0
			c0,0.6,0.1,0.8,0.4,1c0.3,0.3,1.1,0.4,2.1,0.4c0.5,0,0.9,0,1.7-0.1c0-0.1,0-0.2,0-0.2v-1l0-1.3v-0.2c-1,0.1-1.7,0.1-2.3,0.1
			c-1.7,0-2.4-0.3-3.3-1.5L15.8,251.1z M19.8,259.9c-0.7,0-1.4,0.1-2,0.3c-0.6,0.3-1,0.6-1,1.1c0,0.6,0.7,1,2,1
			c0.9,0,1.6-0.2,2.1-0.6c0.2-0.2,0.3-0.5,0.4-0.9c0-0.1,0-0.5,0-0.7c0,0,0-0.1,0-0.1C20.6,260,20.3,259.9,19.8,259.9z"/>
		<path class="st2" d="M20.7,275.2c-1.3,3-1.7,4.1-1.7,4.8c0,0.1,0,0.1,0.1,0.6c0,0.1,0,0.2,0,0.3c0,0.3-0.2,0.5-0.4,0.5
			c-0.5,0-1.4-0.7-2-1.5c-0.6-0.9-1-2.2-1.2-3.6c-0.1-0.8-0.1-1.2-0.1-3.2c0-1.7-0.1-2.1-0.9-3.1c0.1,0,0.1,0,0.2,0
			c0.3,0,0.8,0.3,1.4,0.9c0.5,0.5,0.8,1,0.8,1.4c0,0.1,0,0.3-0.1,0.5c-0.2,1.1-0.3,1.9-0.3,2.7c0,1,0.1,1.9,0.4,2.6
			c0.3,0.7,0.5,1.1,0.9,1.4c0.2-0.3,0.2-0.3,0.6-1c0.6-1,0.6-1,1.5-2.5c0.3-0.5,0.3-0.5,0.5-0.9L20.7,275.2z M24.5,272
			c2.3,0.5,4.1,2.9,4.1,5.4c0,0.9-0.4,1.4-0.9,1.4c-0.2,0-0.3,0-0.5-0.2c-0.2-0.2-0.6-0.2-1.4-0.2c-0.4,0-0.8,0-1.4,0l-0.1-0.3
			c1.5-0.4,2.3-0.6,2.4-0.7c0.4-0.1,0.4-0.2,0.4-0.5c0-0.7-0.3-1.7-0.6-2.4c-0.5-1-1.2-1.8-2.2-2.4L24.5,272z"/>
		<path class="st2" d="M30,289.7c0,1.3-1,2.3-2.3,2.3s-2.3-1-2.3-2.3c0-1.3,1-2.3,2.3-2.3C29,287.4,30,288.4,30,289.7z M25.9,289.7
			c0,1,0.8,1.7,1.7,1.7c1,0,1.7-0.8,1.7-1.7s-0.8-1.7-1.7-1.7S25.9,288.8,25.9,289.7z"/>
	</g>
</g>
</svg>
