<?xml version="1.0" encoding="utf-8"?>
<!-- Generator: Adobe Illustrator 25.2.3, SVG Export Plug-In . SVG Version: 6.00 Build 0)  -->
<svg version="1.1" id="レイヤー_1" xmlns="http://www.w3.org/2000/svg" xmlns:xlink="http://www.w3.org/1999/xlink" x="0px"
	 y="0px" viewBox="0 0 114 419" style="enable-background:new 0 0 114 419;" xml:space="preserve">
<style type="text/css">
	.st0{fill:#200701;}
	.st1{fill:none;stroke:#76544B;stroke-miterlimit:10;}
</style>
<g>
	<path class="st0" d="M94.6,106.2c0.5-0.6,0.6-0.8,1.1-1.5c0.9,0.6,1.1,0.8,1.9,1.3c0.3,0.2,0.4,0.4,0.4,0.5c0,0.3-0.3,0.4-1.1,0.8
		v6.9c0,1.1,0,1.7,0.1,5.1c0,0.3-0.1,0.4-0.2,0.5c-0.2,0.1-0.8,0.2-1.4,0.2c-0.4,0-0.5-0.1-0.5-0.3v-1.1H78.2c-1.1,0-1.5,0-2.5,0.2
		l-0.2-1c0.9,0.1,1.5,0.2,2.6,0.2h16.7v-5.5H79.5c-1.2,0-1.6,0-2.5,0.1l-0.2-1c0.9,0.1,1.5,0.2,2.7,0.2h15.4v-4.9H78.2
		c-0.7,0-1.2,0-2.2,0.1l-0.2-1c0.7,0.1,1.8,0.2,2.5,0.2h7.2v-8c0-1.1,0-1.8-0.2-3.2c0.7,0.1,1.2,0.1,1.5,0.2
		c1.5,0.2,1.9,0.3,1.9,0.6c0,0.3-0.4,0.5-1.3,0.6v9.7H94.6z M76.7,96.6c1.5,1.1,3.1,2.6,4.4,4.2c0.5,0.6,0.8,1.4,0.8,1.9
		c0,1-0.7,2.4-1.3,2.4c-0.3,0-0.3-0.1-0.6-1.1c-1.1-3.1-1.6-4.1-3.6-7L76.7,96.6z M94.3,96.3c3.2,1,3.3,1,3.3,1.3
		c0,0.3-0.4,0.4-1.6,0.6c-2.7,3.9-3.5,4.8-5.8,7.3l-0.4-0.2c0.9-1.3,1.3-2.1,3-5.4c0.5-1.1,0.5-1.1,1.1-2.5L94.3,96.3z"/>
	<path class="st0" d="M79.9,140.1c0.6-0.7,0.7-1,1.3-1.7c1,1,1,1,2,1.9c0.1,0.1,0.1,0.2,0.1,0.3c0,0.1-0.1,0.2-0.3,0.2h-4v8.9
		c1.3-0.4,2.1-0.8,4.2-1.6l0.2,0.4c-1.5,1-2.1,1.3-3.9,2.3c-2.2,1.1-2.3,1.2-4,2.1c-0.1,0.3-0.1,0.5-0.1,0.6
		c-0.1,0.4-0.2,0.7-0.4,0.7c-0.3,0-0.3,0-1.1-3c1-0.2,1-0.2,3.4-1v-9.5h-1.6c-0.6,0-1.2,0.1-1.8,0.2l-0.2-1c0.5,0.1,1.2,0.2,2,0.2
		h1.6v-4.6c0-0.9,0-1.2-0.2-3.6c2.7,0.3,3.1,0.4,3.1,0.7c0,0.2-0.3,0.4-1.2,0.6v6.9H79.9z M89.4,139.8c0-6.7,0-6.7-0.1-8.4
		c2.7,0.4,2.7,0.4,2.9,0.5c0.1,0,0.1,0.1,0.1,0.2c0,0.2-0.1,0.3-1.2,0.7v6.4l3.9-1.5c0.3-0.7,0.4-0.9,0.8-1.5c0.9,0.5,1.2,0.7,2,1.1
		c0.3,0.2,0.3,0.3,0.3,0.4c0,0.2-0.3,0.5-0.9,0.9c-0.2,5-0.3,7.4-0.7,9c-0.1,0.7-0.5,1.3-1,1.6c-0.4,0.3-0.8,0.4-1.8,0.6
		c-0.1-1.2-0.6-1.6-2.2-1.9v-0.4c1,0.1,1.8,0.2,2.3,0.2c0.8,0,1-0.2,1.1-1.8c0.3-2,0.3-3.9,0.3-7.6l-4.3,1.6v4.7
		c0,2.6,0,3.6,0.1,6.5c0,0.4-0.4,0.5-1.4,0.5c-0.4,0-0.5-0.1-0.6-0.4c0.1-5.2,0.1-6.2,0.1-8.5v-2.2l-3.4,1.3v11.4
		c0,0.4,0,0.5,0.2,0.6c0.3,0.1,1.6,0.2,3.9,0.2c1.6,0,4.6-0.1,5.2-0.1c1-0.1,1.1-0.1,1.5-0.8c0.4-1.1,1.1-3.1,1.8-5.5l0.4,0.1
		l-0.4,4.9c-0.1,0.4-0.1,0.4-0.1,0.5c0,0.3,0.1,0.3,0.6,0.6c0.2,0.1,0.4,0.3,0.4,0.6c0,0.6-0.6,1.1-1.7,1.2
		c-0.8,0.1-0.8,0.1-4.6,0.2c-2.9,0-3,0-3.6,0c-4.8,0-5.3-0.2-5.3-1.9l0.1-6.2v-5.1l-1,0.4c-0.8,0.3-1.1,0.4-1.7,0.9l-0.6-0.9
		c0.8-0.1,0.9-0.2,2-0.6l1.3-0.4v-3.7c0-1.5,0-2.2-0.1-3.5c2.8,0.4,3,0.4,3,0.7c0,0.2-0.3,0.4-1.1,0.6v5.2L89.4,139.8z"/>
	<path class="st0" d="M94.2,170.8c0.7-0.8,1-1,1.7-1.7c1.1,0.8,1.5,1.1,2.5,2c0.1,0.1,0.1,0.1,0.1,0.2c0,0.1-0.1,0.2-0.2,0.2H87.2
		v2.6h4.9c0.7-0.7,0.9-0.9,1.6-1.5c1,0.7,1.3,1,2.3,1.8c0.1,0.1,0.1,0.2,0.1,0.2c0,0.1-0.1,0.2-0.2,0.2h-8.6v2.7h7.9
		c0.8-0.8,1.1-1.1,1.8-1.9c1.2,0.9,1.5,1.2,2.6,2.1c0.1,0.1,0.1,0.2,0.1,0.3c0,0.1-0.1,0.1-0.3,0.1H87c-1.2,1.1-2.5,2.2-3.7,3.1
		c0.8,0.5,1,0.8,1,1.4c0,0.9-0.3,1.4-0.6,1.4c-0.2,0-0.3-0.1-0.6-0.4c-0.1-0.1-0.1-0.1-1.3-1.4c-0.5-0.6-1.3-1.1-3-2.4l0.2-0.3
		c0.6,0.2,1,0.4,1.3,0.5c1.4,0.5,1.8,0.7,2.5,1c1.1-1.4,1.4-1.9,1.9-2.7h-8.1c-0.8,0-1.7,0.1-2.3,0.2l-0.2-1.1
		c0.7,0.1,1.7,0.2,2.4,0.2h8.8v-2.7h-6.1c-0.7,0-1.5,0.1-2.1,0.2l-0.1-1.1c0.5,0.1,1.6,0.3,2.2,0.3h6.1v-2.6h-7.8
		c-0.8,0-1.9,0.1-2.4,0.2l-0.1-1.1c0.5,0.1,0.5,0.1,2.5,0.3h7.8v-0.4c0-1.2,0-1.8-0.1-3c2.8,0.3,3.2,0.3,3.2,0.6
		c0,0.3-0.1,0.3-1.3,0.8v2H94.2z M74.4,192.3c1.8-1.1,2.8-1.8,4.2-3.2c1.3-1.2,1.7-1.6,2.3-2.4c2.1,0.9,2.6,1.1,2.6,1.3
		c0,0.2-0.3,0.3-0.6,0.3c-0.1,0-0.4,0-0.8-0.1c-3.3,2.5-4.5,3.1-7.6,4.3L74.4,192.3z M85.4,185.7c-6.4,0.4-6.4,0.4-9,0.6
		c-0.2,1-0.3,1.2-0.5,1.2c-0.3,0-0.4-0.5-0.8-3c1.4,0.1,4.6,0.1,6.2,0.1c0.2,0,1.1,0,2.8-0.1c1.8-1.4,1.8-1.4,2.6-2.1
		c1.7-1.4,3.1-2.8,3.9-3.7c2.1,1,2.7,1.4,2.7,1.6c0,0.1-0.2,0.3-0.4,0.3c-0.4,0-0.8-0.1-1.2-0.2c-2.2,1.6-3.7,2.5-6.6,4.1
		c4.8-0.1,4.8-0.1,9.1-0.4c-0.7-0.6-1.1-0.9-2.3-1.7l0.2-0.3c2.2,0.9,4.2,1.8,5.2,2.5c0.6,0.4,0.8,0.8,0.8,1.7
		c0,0.9-0.3,1.5-0.6,1.5c-0.3,0-0.4-0.1-1-1c-0.5-0.8-1-1.4-1.7-2.1c-4.3,0.6-4.3,0.6-7.4,0.9v2.4c0,1.8,0,3.4,0.1,4.9
		c-0.1,0.4-0.4,0.4-1.7,0.4c-0.3,0-0.4-0.1-0.4-0.3c0,0,0-0.1,0-0.1c0-0.6,0-0.6,0.1-1.8c0.1-1.3,0.1-1.7,0.1-3.1V185.7z
		 M89.4,186.7c3.1,0.8,4.5,1.4,6,2.3c0.8,0.5,1.1,1,1.1,2c0,0.8-0.2,1.4-0.5,1.4c-0.2,0-0.3-0.1-0.6-0.4c-2.1-2.2-3.4-3.3-6.1-4.9
		L89.4,186.7z"/>
	<path class="st0" d="M81.4,210.3c0.6-0.7,0.8-1,1.3-1.7c0.9,0.8,1.2,1.1,2.1,1.9c0.1,0.1,0.1,0.2,0.1,0.3c0,0.1-0.1,0.2-0.3,0.2
		h-3.8v2.5c1.5,0.7,2.3,1.1,3.1,1.7c0.8,0.5,1,0.8,1,1.4c0,0.9-0.3,1.7-0.7,1.7c-0.2,0-0.3-0.1-0.8-0.8c-0.8-1.2-1.7-2.4-2.7-3.3
		c0,1.8,0,3.9,0,6.4c0,4.3,0,4.8,0.1,8.5c0,0.2-0.1,0.3-0.2,0.4c-0.1,0.1-0.9,0.1-1.5,0.1c-0.2,0-0.3-0.1-0.3-0.3c0,0,0-0.1,0-0.1
		c0-1.3,0.1-2.4,0.1-3.1c0.1-2.7,0.1-2.7,0.1-7.3l0.2-5c-1.9,4.6-2.9,6.3-5.8,9.6l-0.3-0.3c1.4-2.2,2.2-3.8,3.4-6.4
		c1-2.4,1.3-3.3,2-5.9H76c-0.4,0-0.8,0-1.5,0.1l-0.2-1c0.6,0.1,1.1,0.2,1.6,0.2h3.2v-3.5c0-0.8,0-1.4-0.1-2.8c0.6,0.1,1,0.1,1.3,0.2
		c1.7,0.2,2,0.3,2,0.6c0,0.3-0.2,0.4-1.5,0.7v4.8H81.4z M94.6,221.1c0,1.3,0.1,2.4,0.1,3.1c0,1.1,0,1.1,0.1,2.1c0,1-0.1,1.3-0.4,1.7
		c-0.4,0.6-1.2,0.9-2.8,1.2c-0.1-0.6-0.3-0.9-0.7-1.1c-0.3-0.1-0.9-0.3-1.6-0.5c0,0-0.4-0.1-1.2-0.2l-1.3-0.2l0-0.4
		c2.4,0.1,2.7,0.1,5.6,0.2c0.4,0,0.5-0.1,0.5-0.5l-0.1-10.8l0-2.7c-1.5,2.7-2.5,4.2-4.6,6.5c-2,2.2-3.3,3.3-5.7,5l-0.3-0.3
		c3.2-2.9,4.6-4.5,6.7-7.6c1.4-2.1,2-3.2,3-5.4h-4.6c-0.4,0-1,0.1-1.6,0.2l-0.2-1c0.7,0.1,1.1,0.2,1.7,0.2h5.3v-3.5
		c0-1.3,0-1.7-0.2-2.7c0.6,0.1,1,0.1,1.3,0.1c1.6,0.1,2.2,0.3,2.2,0.6c0,0.3-0.3,0.4-1.4,0.8l0.1,4.8h1.2c0.6-0.9,0.8-1.1,1.5-1.9
		c1.1,0.9,1.5,1.2,2.5,2.2c0.1,0.1,0.1,0.2,0.1,0.2c0,0.1-0.1,0.2-0.3,0.2h-5L94.6,221.1z"/>
	<path class="st0" d="M81.5,253.4c-0.1,0.3-0.5,2-1.3,5.3c-0.4,1.7-0.5,2.1-0.5,3c0,0.8,0,1-0.1,1.2c-0.1,0.3-0.4,0.5-0.7,0.5
		c-0.5,0-0.9-0.4-1.2-1.1c-0.6-1.5-1-3.7-1-6c0-0.8,0.1-1.9,0.2-3c0.2-1.6,0.2-1.6,1-5.3c0.3-1.3,0.4-2,0.4-2.6
		c0-0.9-0.2-1.6-0.8-2.6c0.6,0,1.1,0.4,1.9,1.4c0.7,0.9,1,1.6,1,2.2c0,0.4,0,0.6-0.6,1.7c-0.6,1.2-1.2,3.1-1.5,4.5
		c-0.3,1.1-0.4,2.3-0.4,3.5c0,1.5,0.1,2.5,0.5,3.7c0.5-1,0.7-1.5,1-2.4l1.5-3.9L81.5,253.4z M85,254.8c-0.1,0.6-0.1,0.8-0.1,1.2
		c0,3.1,1.8,4.3,6.1,4.3c0.8,0,1.6-0.1,2.4-0.2c0.6-0.1,0.6-0.1,1.5-0.4c0.2-0.1,0.3-0.1,0.4-0.1c0.7,0,1.8,1,1.8,1.7
		c0,0.3-0.2,0.6-0.6,0.7c-0.6,0.2-1.9,0.3-3.5,0.3c-3.5,0-6-0.6-7.3-1.7c-1-0.9-1.5-2.1-1.5-3.6c0-0.7,0.1-1.3,0.3-2.2L85,254.8z
		 M84.9,245.9c1,0.6,1.6,0.8,2.6,0.8c1.7,0,4.5-0.6,5.6-1.3c0.4-0.2,0.4-0.2,0.6-0.2c0.2,0,0.6,0.1,1,0.4c0.6,0.3,0.9,0.7,0.9,1
		c0,0.4-0.2,0.5-0.8,0.6c-1.8,0.3-2.9,0.5-4,1c-0.9,0.4-2.5,1.3-3.6,2l-0.3-0.3c1.3-1.1,2.2-1.8,2.7-2.2c-0.6,0-0.9,0.1-1.1,0.1
		c-1.6,0-2.6-0.4-3.8-1.6L84.9,245.9z"/>
	<path class="st0" d="M15.6,182c-0.1,0.6-0.1,0.9-0.1,1.3c0,3.3,2.1,4.9,6.6,4.9c2.2,0,4.5-0.4,6.2-1c0.2-0.1,0.3-0.1,0.5-0.1
		c0.4,0,1.1,0.3,1.5,0.6c0.4,0.3,0.6,0.6,0.6,1c0,0.4-0.3,0.7-0.9,0.9c-1.3,0.3-4,0.6-6.5,0.6c-3.1,0-5.1-0.4-6.5-1.3
		c-1.4-0.9-2.3-2.7-2.3-4.4c0-0.7,0.1-1.4,0.4-2.4L15.6,182z M16.4,170.9c1.4,1,2.4,1.2,4.3,1.2c1.8,0,4.2-0.3,5.8-0.8
		c0.2-0.1,0.4-0.1,0.5-0.1c0.7,0,1.7,0.8,1.7,1.5c0,0.5-0.2,0.6-2,1c-1.1,0.2-1.3,0.3-4.1,1.4c-0.7,0.3-0.7,0.3-2.3,1
		c-0.6,0.2-0.6,0.3-1.1,0.4L19,176c0.9-0.5,1.3-0.8,2-1.2c1.9-1,1.9-1,2.4-1.3c-0.6,0.1-1.6,0.1-2.1,0.1c-1,0-2.3-0.3-3.2-0.8
		c-0.7-0.4-1.2-0.8-2-1.6L16.4,170.9z"/>
	<path class="st0" d="M11.4,211.3c1.1,1.2,1.9,1.5,3.1,1.5c1.1,0,2.3-0.2,3.6-0.5c0.6-1.8,1-3.8,1-4.8c0-0.8-0.4-1.2-2-1.7
		c0.4-0.2,0.5-0.3,0.9-0.3c0.6,0,1.6,0.2,2.4,0.5c0.8,0.3,1.3,0.7,1.3,1.1c0,0.2,0,0.2-0.3,0.7c-0.4,0.5-1,2.2-1.7,4
		c1.4-0.5,2.6-1.1,3.2-1.7c0.4-0.4,0.6-0.5,0.8-0.5c0.4,0,1,0.1,1.5,0.3c0.3,0.1,0.4,0.3,0.4,0.5c0,0.5-0.4,0.8-1.6,1.3
		c-1.3,0.6-3.1,1.2-4.9,1.7c-0.2,0.6-0.3,1-0.4,1.1c-0.9,2.8-1.9,5.7-2.9,8.7c-1.1,3.3-1.5,4-2.1,4c-0.3,0-0.5-0.2-0.6-0.6
		c-0.2-0.4-0.4-1.1-0.4-1.6c0-0.4,0-0.5,0.6-1.4c1.3-1.8,2.6-4.8,4.4-10c-1.1,0.2-1.9,0.3-2.7,0.3c-1.7,0-2.8-0.7-3.8-2.5
		L11.4,211.3z M22.5,221c0,0.4,0,0.8,0,0.9c0,1.6,0.8,2.8,2.1,3.4c0.8,0.3,1.9,0.5,3,0.5c1.1,0,1.8-0.1,2.7-0.4
		c0.2-0.1,0.4-0.1,0.5-0.1c0.3,0,1,0.3,1.4,0.7c0.3,0.3,0.5,0.5,0.5,0.8c0,0.6-1.1,0.9-3.3,0.9c-2.2,0-3.9-0.3-5.2-0.9
		c-1.5-0.7-2.4-2.2-2.4-4.1c0-0.6,0.1-1.1,0.3-1.8L22.5,221z M23.3,215.8c2-1.2,4.3-1.9,6.5-1.9c0.6,0,1.3,0.2,1.8,0.5
		c0.3,0.2,0.4,0.5,0.4,0.8c0,0.5-0.3,0.6-1.1,0.7c-1,0-1.3,0.1-2.2,0.6c-0.4,0.2-0.7,0.4-0.9,0.5l-1,0.7c-0.1,0.1-0.3,0.2-0.6,0.3
		l-0.2-0.3c0.2-0.2,0.4-0.4,0.4-0.4l0.9-0.8c0.2-0.2,0.6-0.6,1.4-1.3c-0.1,0-0.2,0-0.2,0c-1.5,0-3.4,0.4-5.1,1L23.3,215.8z
		 M28.2,205.7c1,0.6,1.8,1.1,2.5,1.7c1,0.9,1.4,1.6,1.4,2.2c0,0.7-0.4,1.2-0.9,1.2c-0.4,0-0.4,0-1.2-1.8c-0.5-1-1.4-2.2-2.2-2.9
		L28.2,205.7z M31.1,204.1c1,0.4,1.8,1,2.7,1.6c1.1,0.8,1.4,1.4,1.4,2.2c0,0.7-0.3,1.1-0.7,1.1c-0.3,0-0.4-0.1-0.6-0.5
		c-1-1.8-1.5-2.5-3.1-4L31.1,204.1z"/>
	<path class="st0" d="M23.6,262.9c5-1.8,7.8-4.8,7.8-8.5c0-2.7-1.7-4.6-4.3-4.6c-2.5,0-5.7,1.5-8.7,3.9c0,2.3,0.2,5.3,0.3,6.4
		c0.1,0.7,0.1,0.8,0.1,1.1c0,0.9-0.2,1.9-0.6,2.6c-0.2,0.4-0.4,0.6-0.7,0.6c-0.2,0-0.5-0.1-0.6-0.4c0-0.1,0-0.1-0.3-0.8
		c-0.3-0.8-0.4-1-1-1.7c-0.8-0.9-1.3-1.4-2.1-2.2c-0.1,0.3-0.2,0.4-0.3,0.6c-0.4,0.8-0.6,1-0.8,1c-0.4,0-0.8-1.1-0.8-2
		c0-0.4,0.1-0.6,0.5-1c0.4-0.4,0.8-0.8,1.2-1.4c0.8-1,3.4-4.8,4.1-5.9c0.1-1,0.1-1.7,0.1-2c-1.2,0.7-1.2,0.7-2.7,1.8
		c-0.5,0.4-0.9,0.5-1.1,0.5c-0.5,0-1-0.4-1.5-1c-0.4-0.5-0.7-1.2-0.7-1.5c0-0.1,0.1-0.3,0.1-0.5c0.5,0.9,1.1,1.3,1.7,1.3
		c0.6,0,2.6-0.8,4.3-1.8c0.1-0.5,0.1-2.2,0.1-2.8c0-1.8-0.2-2.2-1.7-3.2c0.2-0.1,0.3-0.1,0.4-0.1c0.6,0,1.5,0.4,2.3,1
		c0.7,0.5,1,0.9,1,1.3c0,0.2,0,0.2-0.3,1.1c-0.3,0.7-0.4,1.4-0.6,2.3c0.7,0.6,1,1,1,1.3c0,0.2,0,0.2-0.5,0.7c-0.3,0.4-0.6,0.9-1,1.8
		c-0.1,0.4-0.1,0.5-0.1,0.9c1.6-0.9,2-1.1,2.9-1.5c2-1,3.9-1.5,5.7-1.5c3.7,0,6.4,2.5,6.4,5.8c0,2.8-1.6,5.1-4.6,6.8
		c-1.6,0.9-3.1,1.3-5.2,1.7L23.6,262.9z M15.5,256.3c-1.4,2.3-1.4,2.3-1.6,2.7c1.3,0.9,1.3,1,3.4,2.2c0-1.8,0.1-6,0.2-8.3
		C15.8,255.8,15.8,255.9,15.5,256.3z"/>
	<path class="st0" d="M22.9,295.6c3.5-0.7,5.8-1.7,7.8-3.4c1.5-1.3,2.4-2.9,2.4-4.5c0-2.4-1.7-4.1-4.2-4.1c-2.7,0-6.3,1.5-9.3,3.8
		c-0.5,0.4-0.8,0.5-1.1,0.5c-1,0-2.7-2-2.7-3.3c0-0.2,0.1-0.3,0.2-0.6c0.4,1,1.1,1.5,1.7,1.5c0.4,0,1-0.2,2.5-0.8
		c2.5-1,4.8-1.7,6.4-2c0.7-0.1,1.3-0.2,2.2-0.2c3.7,0,6.2,2.2,6.2,5.4c0,2-1.2,4-3,5.3c-2.2,1.5-4.7,2.3-8.9,2.8L22.9,295.6z"/>
	<path class="st0" d="M11.6,320.1c1.1,1.2,1.9,1.5,3.1,1.5c1.1,0,2.3-0.2,3.6-0.5c0.6-1.8,1-3.8,1-4.7c0-0.9-0.4-1.2-2-1.8
		c0.4-0.2,0.5-0.3,0.9-0.3c0.6,0,1.6,0.2,2.4,0.5c0.8,0.3,1.3,0.7,1.3,1.1c0,0.2,0,0.2-0.3,0.7c-0.4,0.5-1,2-1.7,4
		c1.6-0.6,2.6-1.1,3.2-1.7c0.4-0.4,0.6-0.5,0.8-0.5c0.4,0,1,0.1,1.5,0.3c0.3,0.1,0.4,0.3,0.4,0.5c0,0.5-0.4,0.8-1.6,1.4
		c-1.3,0.6-3.1,1.2-4.9,1.6c-0.3,1-0.3,1-1.2,3.6c-0.6,1.7-0.6,1.7-2.1,6.2c-1.1,3.3-1.5,4-2.1,4c-0.3,0-0.5-0.2-0.6-0.6
		c-0.2-0.4-0.4-1.1-0.4-1.6c0-0.4,0-0.5,0.6-1.4c1.4-2,2.5-4.5,4.4-10c-1.1,0.2-1.9,0.3-2.7,0.3c-1.7,0-2.8-0.7-3.8-2.5L11.6,320.1z
		 M22.8,329.8c0,0.4,0,0.8,0,0.9c0,1.6,0.8,2.8,2.1,3.4c0.8,0.3,1.9,0.5,3,0.5c1.1,0,1.8-0.1,2.7-0.4c0.2-0.1,0.4-0.1,0.5-0.1
		c0.3,0,1,0.3,1.4,0.7c0.3,0.3,0.5,0.5,0.5,0.8c0,0.6-1.1,0.9-3.3,0.9c-2.2,0-3.9-0.3-5.2-0.9c-1.5-0.7-2.4-2.2-2.4-4.1
		c0-0.6,0.1-1.1,0.3-1.8L22.8,329.8z M23.5,324.6c2-1.2,4.3-1.9,6.5-1.9c0.6,0,1.3,0.2,1.8,0.5c0.3,0.2,0.4,0.5,0.4,0.8
		c0,0.4-0.3,0.6-1.1,0.6c-1,0.1-1.4,0.1-2.2,0.6c-0.6,0.3-0.6,0.3-1.5,1c-0.5,0.3-0.5,0.3-1,0.6l-0.2-0.3c0.3-0.3,0.3-0.3,1.3-1.3
		c0.3-0.2,0.5-0.4,1.4-1.3c-1.8,0-3.3,0.3-5.3,1L23.5,324.6z"/>
	<path class="st0" d="M16.9,361.8c1.1,0.5,1.6,0.8,2.4,1.2c0.6,0.4,1.1,0.8,1.3,1.1c0.2,0.2,0.2,0.4,0.2,0.9c0,0.8-0.3,1.6-0.7,1.6
		c-0.2,0-0.4-0.2-0.5-0.5c-0.8-1.7-1.5-2.7-2.7-3.6c0,0.7,0.1,4.9,0.1,12.4c-0.1,0.2-0.1,0.3-0.4,0.3c-0.4,0.1-0.8,0.1-1.1,0.1
		c-0.4,0-0.6-0.1-0.6-0.5c0.1-2.3,0.1-2.3,0.2-7.4l0.2-5.2c-1,2.5-1.7,3.8-2.8,5.7c-0.9,1.5-1.4,2.2-2.5,3.4L9.7,371
		c1.6-2.6,2.2-3.9,3.4-6.7c0.8-1.9,1-2.6,1.4-4.2h-3c-0.3,0-0.9,0.1-1.2,0.2l-0.1-1.1c0.4,0.1,1,0.3,1.3,0.3h3.6v-6.1
		c0-1.1-0.1-1.9-0.3-3.7c2.7,0.3,3.1,0.4,3.1,0.7c0,0.3-0.3,0.4-1.2,0.6v8.5h1.7c0.5-0.8,0.7-1,1.3-1.7c0.9,0.8,1.2,1,2,1.9
		c0.1,0.1,0.1,0.2,0.1,0.2c0,0.1-0.1,0.2-0.4,0.2h-4.7V361.8z M10.9,351.9c0.7,0.8,1.1,1.3,1.9,2.6c0.5,0.8,0.7,1.3,0.7,1.7
		c0,0.8-0.6,1.7-1.1,1.7c-0.2,0-0.3-0.1-0.4-0.4c0-0.1,0-0.1-0.3-1.5c-0.2-1.1-0.7-2.8-1.2-4.1L10.9,351.9z M17.7,358
		c0.6-1.7,0.8-2.2,1.2-3.8s0.4-1.7,0.5-2.5c2.1,0.6,2.6,0.8,2.6,1c0,0.2-0.3,0.3-0.9,0.4c-0.5,1-0.6,1.2-1.5,2.7
		c-0.8,1.2-1,1.6-1.7,2.3L17.7,358z M32.4,365.5c0.5-1,0.7-1.2,1.2-2.2c1.1,0.6,1.5,0.8,2.4,1.4c0.3,0.2,0.4,0.4,0.4,0.5
		s-0.1,0.3-0.3,0.3l-4.5,0.9l0,2.7c0,0.8,0,2,0.1,3.6c0,0.9,0,1,0,2c0,0.2-0.1,0.3-0.2,0.3c-0.1,0.1-0.9,0.2-1.4,0.2
		c-0.3,0-0.5-0.1-0.5-0.4c0-1.2,0-5.5,0-8l-7.8,1.5c-0.4,0.1-1,0.3-1.4,0.4l-0.4-1c0.1,0,0.2,0,0.3,0c0.3,0,1-0.1,1.3-0.1l8-1.6
		v-5.9c0-5.8-0.1-9-0.2-10.5c2.5,0.3,3.3,0.4,3.3,0.8c0,0.3-0.3,0.4-1.2,0.7c0,2.4,0,4.3,0,5.5c0,1.7,0,6,0.1,9.1L32.4,365.5z
		 M22.4,359.4c2.2,0.8,3.6,1.5,4.3,2c0.4,0.3,0.4,0.6,0.4,1.2c0,0.8-0.3,1.6-0.7,1.6c-0.3,0-0.5-0.2-0.9-0.8
		c-0.8-1.2-1.6-2.2-3.4-3.8L22.4,359.4z M23.3,352.4c1.7,0.8,2.6,1.2,3.4,1.8c0.8,0.5,1,1,1,2c0,0.9-0.3,1.5-0.7,1.5
		c-0.3,0-0.3-0.1-0.8-1c-0.8-1.4-1.4-2.3-3.1-3.9L23.3,352.4z"/>
	<path class="st0" d="M15.5,396H16c0.6-0.7,0.7-0.9,1.3-1.6c0.9,0.8,1.1,1,1.9,1.8c0.1,0.1,0.1,0.1,0.1,0.2c0,0.1-0.1,0.2-0.3,0.2
		h-3.6v6.9c2-0.9,2.7-1.3,4.3-2.2l0.2,0.4c-2.3,1.9-5.5,3.9-8.4,5.5c-0.1,0.9-0.2,1.2-0.4,1.2c-0.3,0-0.5-0.5-1.5-2.7
		c1.4-0.4,2.3-0.8,3.9-1.4v-7.7H12c-0.4,0-0.8,0-1.7,0.1l-0.2-1c0.7,0.1,1.4,0.2,1.9,0.2h1.6V389H12c-0.8,0-1.1,0-1.8,0.1l-0.2-1
		c0.7,0.2,1.1,0.2,2.1,0.2H16c0.6-0.7,0.8-0.9,1.4-1.6c0.9,0.8,1.1,1,2,1.8c0.1,0.1,0.1,0.2,0.1,0.3c0,0.1-0.1,0.2-0.3,0.2h-3.8V396
		z M27.4,403.5H31c0.6-0.8,0.8-1,1.5-1.7c1,0.8,1.3,1.1,2.3,2c0.1,0.1,0.1,0.1,0.1,0.2c0,0.1-0.1,0.2-0.3,0.2h-7.1v5.2h4.7
		c0.7-0.8,0.9-1.1,1.6-1.9c1.1,0.9,1.4,1.2,2.4,2.1c0.1,0.1,0.1,0.2,0.1,0.2c0,0.1-0.1,0.2-0.3,0.2H19.2c-0.5,0-0.9,0-2.2,0.1
		l-0.2-1c0.8,0.2,1.6,0.3,2.4,0.3h6.5v-5.2h-4c-0.5,0-0.8,0-2.2,0.1l-0.2-1c1,0.2,1.1,0.2,2.4,0.2h4v-4.6h-4v1.3
		c-0.1,0.4-0.2,0.5-0.8,0.5c-0.9,0-1.1-0.1-1.1-0.4c0.1-2.5,0.2-4.8,0.2-8.8c0-3.1,0-3.6-0.2-4.9c1,0.5,1.2,0.7,2.1,1.3h9.7
		c0.4-0.6,0.6-0.8,1.1-1.3c0.8,0.6,1,0.8,1.7,1.3c0.2,0.2,0.3,0.3,0.3,0.4c0,0.1-0.1,0.2-0.1,0.3c-0.1,0-0.4,0.3-0.9,0.6
		c0,1.2,0,2.4,0,3.1c0,3.3,0,5.2,0.2,7.6c0,0.3-0.1,0.4-0.3,0.4c-0.1,0.1-1,0.2-1.3,0.2c-0.3,0-0.3-0.1-0.4-0.4v-1.1h-4.4V403.5z
		 M25.7,388.5h-4v4.6h4V388.5z M25.7,393.8h-4v4.5h4V393.8z M31.8,393.1v-4.6h-4.4v4.6H31.8z M27.4,398.3h4.4v-4.5h-4.4V398.3z"/>
</g>
<line class="st1" x1="86.6" y1="2.9" x2="86.6" y2="62.9"/>
</svg>
