<?xml version="1.0" encoding="utf-8"?>
<!-- Generator: Adobe Illustrator 25.2.3, SVG Export Plug-In . SVG Version: 6.00 Build 0)  -->
<svg version="1.1" id="レイヤー_1" xmlns="http://www.w3.org/2000/svg" xmlns:xlink="http://www.w3.org/1999/xlink" x="0px"
	 y="0px" viewBox="0 0 114 419" style="enable-background:new 0 0 114 419;" xml:space="preserve">
<style type="text/css">
	.st0{fill:#200701;}
	.st1{fill:none;stroke:#76544B;stroke-miterlimit:10;}
</style>
<g>
	<path class="st0" d="M79.9,141.2h0.8c0.4-0.4,0.8-0.9,1.2-1.3c0.8,0.7,1,0.9,1.8,1.5c0.1,0.1,0.2,0.2,0.2,0.3s-0.1,0.2-0.3,0.2
		h-3.6v1.9c2.4,1.7,3.1,2.5,3.1,3.3c0,0.9-0.5,1.8-1,1.8c-0.2,0-0.3-0.2-0.4-0.5c-0.4-1.7-1.1-3.1-1.8-4v6.4c0,5.3,0,5.3,0.1,7.8
		c0,0.2-0.1,0.3-0.2,0.3c-0.2,0.1-0.8,0.1-1.2,0.1c-0.4,0-0.6-0.1-0.6-0.3c0,0,0-0.1,0-0.1c0.1-4.5,0.1-4.5,0.2-7.9l0.1-5.5
		c-1.6,4.3-2.3,5.7-4.1,7.9l-0.3-0.2c1.1-2.2,1.8-3.8,2.7-6.6c0.6-1.8,0.8-2.4,1.2-4.5h-2.3c-0.3,0-0.8,0.1-1.2,0.2l-0.2-1
		c0.5,0.1,1,0.2,1.4,0.2H78v-4.4c-1.5,0.3-2,0.4-3.6,0.6l-0.1-0.3c2.5-0.8,3.2-1.1,4.8-1.9c1.5-0.8,1.8-1,2.5-1.7
		c2.1,1,2.7,1.3,2.7,1.6c0,0.2-0.2,0.3-0.4,0.3c-0.3,0-0.6,0-1-0.1c-1.3,0.6-1.7,0.7-3.1,1.1V141.2z M86,151.3
		c0,0.3-0.4,0.4-1.3,0.4c-0.3,0-0.4-0.1-0.4-0.3c0,0,0,0,0-0.1c0.1-1.9,0.1-2.6,0.1-4.4c0-0.7-0.1-5.3-0.1-6c0.9,0.5,1.1,0.7,2,1.3
		h3.5v-2.6h-5.9c-0.3,0-0.6,0-1,0.2l-0.2-1c0.4,0.2,0.8,0.2,1.2,0.2h5.9v-2.7c-2.7,0.3-3.6,0.4-6,0.4l-0.1-0.4
		c3.5-0.5,5.6-0.9,7.9-1.5c1.9-0.5,2.6-0.8,3.9-1.6c2.4,1.4,2.4,1.5,2.4,1.7c0,0.2-0.2,0.3-0.4,0.3c-0.3,0-0.7-0.1-1.1-0.1
		c-2.3,0.6-3.1,0.8-4.9,1v2.9h4.4c0.6-0.8,0.9-1.1,1.5-1.8c1.1,0.8,1.4,1.1,2.3,2c0.1,0.1,0.2,0.2,0.2,0.3c0,0.1-0.1,0.2-0.3,0.2
		h-8.2v2.6h4c0.4-0.5,0.6-0.7,1-1.1c0.7,0.5,0.9,0.6,1.5,1.1c0.2,0.2,0.3,0.3,0.3,0.4c0,0.2-0.2,0.3-0.9,0.8v2.2c0,2,0,2.9,0.1,5.4
		v0.1c0,0.3-0.3,0.4-1.4,0.4c-0.3,0-0.4-0.1-0.4-0.3v-0.8h-4.2v2.8h3.6c0.6-0.7,0.8-0.9,1.4-1.5c0.9,0.7,1.2,0.9,2.1,1.7
		c0.1,0.1,0.2,0.2,0.2,0.3c0,0.1-0.1,0.2-0.3,0.2h-7v3.2h4.6c0.9-1,0.9-1,1.6-1.9c1.1,0.9,1.4,1.2,2.4,2.1c0.1,0.1,0.2,0.2,0.2,0.3
		c0,0.1-0.1,0.2-0.3,0.2H83.1c-0.4,0-0.9,0.1-1.5,0.2l-0.3-1.1c0.6,0.2,1.1,0.3,1.7,0.3h6.7v-3.2h-5c-0.5,0-0.9,0.1-1.4,0.2
		l-0.3-1.1c0.5,0.2,1,0.3,1.7,0.3h5v-2.8H86V151.3z M89.8,145.9v-2.9H86v2.9H89.8z M89.8,149.8v-3.3H86v3.3H89.8z M95.7,145.9v-2.9
		h-4.2v2.9H95.7z M95.7,149.8v-3.3h-4.2v3.3H95.7z"/>
	<path class="st0" d="M81.5,178.1c1.6,0.4,3.1,1,3.9,1.4c0.7,0.4,1,0.9,1,1.8c0,0.5-0.2,0.9-0.4,0.9c-0.1,0-0.3-0.1-0.5-0.4
		c-1.1-1.3-2.6-2.5-4-3.4c0,2,0,2,0.1,3.3c-0.1,0.3-0.3,0.4-1.3,0.4c-0.3,0-0.4-0.1-0.4-0.4c0-0.5,0-0.5,0.1-1.4
		c0-0.4,0-0.4,0.1-1.3v-0.8c-0.8,1.3-1.3,1.8-2.4,2.9c-1.3,1.1-2,1.7-3.5,2.5l-0.2-0.4c2.5-2.2,3.4-3.2,5.3-6.3h-3
		c-0.6,0-1,0.1-1.5,0.2l-0.2-1.1c0.8,0.2,1.1,0.2,1.7,0.2h3.8v-3.6c0-0.9,0-1.5-0.1-2.6c2.5,0.2,2.7,0.3,2.7,0.6
		c0,0.2-0.2,0.3-1,0.5v5.1H84c0.5-0.7,0.7-0.9,1.2-1.5c0.8,0.7,1.1,0.9,1.8,1.7c0.1,0.1,0.1,0.2,0.1,0.2c0,0.1-0.1,0.2-0.2,0.2h-5.5
		V178.1z M83.5,185.6c0.5-0.5,1-1.1,1.5-1.6c0.9,0.8,1.2,1,2.2,1.8c0.1,0.1,0.1,0.2,0.1,0.3s-0.1,0.2-0.3,0.2h-5.7
		c-0.1,0.6-0.2,0.8-0.3,1.3c1.4,0.4,3.2,1.1,3.8,1.5c0.4,0.2,0.7,0.6,1,0.9c0.1,0.2,0.2,0.4,0.2,0.9c0,0.7-0.2,1.2-0.5,1.2
		c-0.1,0-0.2-0.1-0.4-0.3c-0.7-1-2.3-2.4-4.2-3.7c-0.4,1.5-1,2.4-2.1,3.6c-1.3,1.3-2.3,2-4.1,2.9l-0.3-0.3c1.2-0.8,1.7-1.2,2.6-2.2
		c1.7-1.9,2.3-3.2,2.6-5.7h-2.9c-0.9,0-1.1,0-2,0.2l-0.1-1.1c0.8,0.2,1.2,0.3,2.1,0.3h2.9c0.1-0.7,0.1-1,0.1-1.7c0-0.4,0-0.7,0-1.2
		c2.8,0.2,2.9,0.2,2.9,0.5c0,0.2-0.2,0.3-0.9,0.5c-0.1,1.1-0.1,1.5-0.2,1.9H83.5z M75.8,171.1c0.6,0.6,1.7,1.6,2,2.1
		c0.4,0.4,0.6,0.8,0.6,1.2c0,0.7-0.6,1.5-1.1,1.5c-0.2,0-0.2,0-0.6-1.7c-0.2-0.7-0.8-2-1.3-2.9L75.8,171.1z M82.1,175.9
		c1.1-2,1.5-3,2.2-5c1.5,0.6,2.3,1,2.3,1.3c0,0.2-0.3,0.3-0.9,0.3c0,0-0.1,0-0.2,0c-0.6,0.9-0.8,1.1-1.6,2c-0.1,0.1-0.4,0.4-1,1.1
		c-0.2,0.2-0.3,0.4-0.5,0.6L82.1,175.9z M83.1,194.7c2-0.9,3-1.6,4.6-2.9c0.9-0.8,1.4-1.3,2.1-2.2c1.9,0.9,2.5,1.2,2.5,1.4
		c0,0.2-0.4,0.3-0.8,0.3c-0.1,0-0.3,0-0.5,0c-4.1,2.7-4.5,2.9-7.7,3.8L83.1,194.7z M93.9,172.1c-0.8,1.5-1.1,2-2.2,3.6h4.5
		c0.5-0.5,0.6-0.7,1.1-1.2c0.7,0.5,0.9,0.6,1.5,1.2c0.2,0.2,0.3,0.3,0.3,0.5c0,0.2-0.2,0.4-0.9,0.7v5.2c0,1.3,0,1.3,0,3.3
		c0,1.8,0,2.1,0.1,3.6c0,0.5-0.2,0.5-1.6,0.5c-0.2,0-0.3-0.1-0.3-0.3v-0.7h-6.9v0.7c0,0.2-0.1,0.3-0.2,0.3c-0.1,0-0.8,0.1-1.3,0.1
		c-0.3,0-0.4-0.1-0.4-0.4c0.1-2.8,0.1-3.9,0.1-9.6c0-2.4,0-3.4-0.1-5.2c1,0.4,1.3,0.6,2.2,1.2H91c0.3-1.3,0.4-1.9,0.6-3.6h-2.9
		c-0.7,0-1.3,0.1-1.8,0.2l-0.2-1.1c0.6,0.2,1.2,0.3,2,0.3h7.6c0.7-0.8,0.9-1.1,1.7-1.9c1,0.9,1.3,1.1,2.2,2.1
		c0.1,0.1,0.1,0.2,0.1,0.3s-0.1,0.2-0.3,0.2H93.9z M96.4,176.4h-6.9v3.2h6.9V176.4z M89.5,180.3v3.4h6.9v-3.4H89.5z M89.5,184.3v3.6
		h6.9v-3.6H89.5z M93.9,189.6c2.4,0.8,3.8,1.5,5.1,2.4c0.7,0.4,0.9,0.8,0.9,1.7c0,0.8-0.3,1.4-0.6,1.4c-0.2,0-0.3-0.1-0.5-0.4
		c-1.2-1.7-2.4-2.9-5-4.8L93.9,189.6z"/>
	<path class="st0" d="M80.3,225.1c3.2-1,6.4-2.3,9-3.6l0.1,0.4c-1.6,1.2-3.2,2.1-6,3.6c-1.9,0.9-3.1,1.5-6.4,2.8
		c0,0.3-0.1,0.6-0.1,0.7c0,0.4-0.2,0.6-0.4,0.6c-0.3,0-0.5-0.3-1.4-3.1c1.1-0.2,1.4-0.3,3.2-0.8L78,210.6c0-0.8-0.1-1.5-0.3-2.9
		c0.6,0.1,1.1,0.1,1.4,0.1c1.4,0.1,1.8,0.3,1.8,0.5c0,0.2-0.3,0.4-1.1,0.6L80.3,225.1z M81.3,230.8c4.8-2.2,8-5,9.8-8.6
		c1.5-3,2.5-7.9,2.5-12.9c0-0.7,0-1.2-0.1-2.1c3,0.4,3.4,0.5,3.4,0.8c0,0.3-0.4,0.5-1.2,0.6c-0.3,5.6-0.5,7.7-1.1,10
		c-0.4,1.5-0.9,2.7-1.7,4c1.5,0.9,3.1,2,4.5,3.1c0.9,0.7,1.3,1.3,1.3,2c0,1.1-0.5,2.3-1,2.3c-0.3,0-0.4-0.2-0.7-0.8
		c-1-2.3-2.4-4.3-4.3-6.2c-1.2,2-2.5,3.5-4.3,4.8c-1.9,1.5-3.8,2.3-6.9,3.2L81.3,230.8z M83,210.1c2.1,1.2,3.3,2,4.4,3
		c1.1,1,1.5,1.5,1.5,2.2c0,1.1-0.4,2.2-1,2.2c-0.3,0-0.4-0.1-0.7-0.9c-0.8-1.8-2.6-4.4-4.5-6.2L83,210.1z"/>
	<path class="st0" d="M93.4,252.9l1.8-2.2c1.2,1.1,1.6,1.4,2.8,2.4c0.1,0.1,0.1,0.2,0.1,0.2c0,0.1-0.1,0.2-0.3,0.2H87.1v12.1h8.1
		c0.8-1,1-1.3,1.8-2.3c1.3,1.1,1.7,1.4,2.9,2.5c0.1,0.1,0.1,0.2,0.1,0.2c0,0.1-0.1,0.2-0.2,0.2H77.2c-0.9,0-1.5,0.1-2.3,0.2
		l-0.2-1.1c1,0.2,1.4,0.2,2.5,0.2h7.9v-19.3c0-1.6-0.1-2.5-0.2-3.4c0.7,0.1,1.2,0.2,1.5,0.2c1.5,0.2,1.8,0.3,1.8,0.5
		c0,0.2-0.3,0.4-1,0.6v8.7H93.4z"/>
	<path class="st0" d="M86.8,301.7c3-0.9,5-2,6.6-3.9c1.7-1.9,2.5-4.2,2.5-6.7c0-2.7-1.1-4.9-3.2-6.2c-1.2-0.8-3.1-1.3-4.8-1.3
		c-0.3,0-0.5,0-1,0.1c0.7,1,0.9,1.5,0.9,2.3c0,2.2-1.6,6.3-3.7,9.7c-1.8,2.8-3.1,4.2-4.2,4.2c-0.5,0-0.9-0.2-1.2-0.6
		c-0.3-0.3-0.3-0.4-0.8-1.8c-0.3-0.7-0.4-1.1-1.2-2.6c-0.4-0.9-0.6-1.7-0.6-2.5c0-1.8,1-3.8,2.5-5.5c2.3-2.4,6-3.9,9.6-3.9
		c2.8,0,5.4,0.9,7.2,2.6c1.8,1.7,2.7,3.9,2.7,6.6c0,3.5-2,6.6-5.6,8.5c-1.6,0.9-3.1,1.3-5.5,1.7L86.8,301.7z M77.5,293
		c0,1.3,0.4,2.7,1.1,3.7c0.4,0.5,0.8,0.8,1.1,0.8c0.6,0,2-1.5,3.3-3.7c2.1-3.3,3.6-6.9,3.6-8.7c0-0.4-0.1-0.7-0.4-1.4
		C81.4,284.6,77.5,288.7,77.5,293z"/>
	<path class="st0" d="M18,189.1h2c0.6-0.7,0.8-1,1.3-1.6c0.9,0.8,1.1,1,2,1.8c0.1,0.1,0.1,0.2,0.1,0.3s-0.1,0.1-0.3,0.1H18v0.4
		c0,3.5,0,3.5,0,4.6c0,0.3-0.4,0.4-1.7,0.4c-0.3,0-0.3-0.1-0.3-0.2c0.1-2.3,0.1-3.1,0.1-4.7v-0.5h-3.7c-0.8,0-1.2,0.1-2.1,0.2
		l-0.2-1.1c0.8,0.2,1.3,0.2,2.2,0.2H16v-3.7h-2.6v1.4c0,0.2,0,0.2-0.2,0.3c-0.3,0.1-0.8,0.1-1.2,0.1c-0.3,0-0.3-0.1-0.3-0.3v-0.1
		c0-1,0.1-1.6,0.1-1.8c0-6.8,0-7.4-0.2-8.8c1,0.5,1.3,0.7,2.2,1.3H16v-3.6h-3.7c-0.8,0-1.3,0.1-1.9,0.2l-0.2-1
		c0.8,0.2,1.2,0.2,2.1,0.2H16v-1.1c0-1.4,0-1.7-0.1-2.7c2.8,0.4,3.2,0.4,3.2,0.7c0,0.2-0.3,0.3-1.1,0.6v2.4h2.5
		c0.6-0.8,0.8-1,1.4-1.7c0.9,0.8,1.2,1.1,2,2c0.1,0.1,0.2,0.2,0.2,0.3c0,0.1-0.1,0.1-0.2,0.1h-6v3.6h2.3c0.5-0.6,0.6-0.7,1.1-1.3
		c0.7,0.5,0.9,0.7,1.5,1.3c0.2,0.2,0.3,0.3,0.3,0.4c0,0.1-0.2,0.4-0.8,0.7c0,1,0,1.6,0,2.2c0,2,0,3.1,0.1,5.3c0,0,0,0.1,0,0.1
		c0,0.3-0.6,0.4-1.5,0.4c-0.3,0-0.4-0.1-0.4-0.2v0v-1.1H18V189.1z M20.5,180.9v-2.7h-7.1v2.7H20.5z M13.4,181.5v3.2h7.1v-3.2H13.4z
		 M26.6,184.7c-0.3,2.2-1,4.2-2.1,6c-0.9,1.6-1.9,2.6-4,4.4l-0.3-0.3c2.3-2.5,3.4-4.4,4.1-7c0.6-2.4,0.8-4.7,0.8-11.8
		c0-3.2,0-4.1-0.1-5.6c1,0.5,1.3,0.6,2.2,1.2H32c0.4-0.6,0.6-0.7,1-1.3c0.7,0.5,0.9,0.7,1.5,1.3c0.2,0.2,0.3,0.3,0.3,0.4
		c0,0.1-0.2,0.4-0.8,0.7V187c0,2.6,0,3,0.1,5.5c0,0.8-0.2,1.1-0.7,1.5c-0.6,0.4-1.1,0.6-2.2,0.8c-0.2-0.8-0.4-1-1-1.3
		c-0.6-0.3-1.5-0.6-3.2-0.8l0-0.4c1.9,0.1,2.5,0.1,4.7,0.2c0,0,0.1,0,0.1,0c0.2,0,0.3-0.1,0.3-0.3v-7.4H26.6z M27,178.3
		c0,3-0.1,3.6-0.3,5.7h5.6v-5.7H27z M32.2,177.7v-5.5H27c0,0.7,0,1.3,0,1.7l0,3.8H32.2z"/>
	<path class="st0" d="M22.3,222.4c0.7,1.5,1.8,2.6,3.5,3.9c2.6-1.9,4.2-3.5,5-4.8c1.8,1,2.5,1.4,2.5,1.7c0,0.2-0.2,0.3-0.5,0.3
		c-0.1,0-0.4,0-0.8-0.1c-2.7,1.8-2.9,2-5.7,3.2c2.4,1.6,5.3,2.4,9.4,2.8v0.3c-1.4,0.4-1.7,0.8-2,2c-2.2-0.6-3.6-1.2-5.5-2.3
		c-2.5-1.4-4.5-3.4-5.7-5.6c-0.2-0.4-0.3-0.6-0.6-1.5h-3.9v5.9c2.9-0.5,4.1-0.8,6.3-1.3l0.1,0.3c-2.7,1.3-4.7,2-10.2,3.8
		c-0.1,0.8-0.2,1.1-0.4,1.1c-0.1,0-0.3-0.1-0.4-0.3c-0.1-0.2-0.2-0.6-0.4-1.1c-0.3-0.9-0.4-1.4-0.5-1.6c1.2-0.1,2-0.2,3.6-0.5v-13.8
		c-2.2,1.5-3.6,2.3-5.8,3.4l-0.2-0.4c5.1-3.1,10-8.1,11.9-11.8c0.6,0.1,1.1,0.3,1.4,0.4c1.3,0.3,1.6,0.4,1.6,0.7
		c0,0.3-0.2,0.3-1.1,0.4c1,1.4,1.8,2.3,3.4,3.5c3.1,2.3,5.9,3.6,9.3,4.2v0.4c-1,0.1-1.4,0.5-1.8,1.8c-2.1-0.9-2.9-1.4-4.3-2.3
		l-0.2,0.1l0.1,7.2c0,0.3-0.1,0.4-0.2,0.4c-0.2,0.1-1.1,0.4-1.4,0.4c-0.1,0-0.2-0.1-0.3-0.3v-0.4H22.3z M27.8,214.5
		c0.3-0.3,0.4-0.4,0.7-0.6c-0.9-0.8-1.7-1.5-2.6-2.5c-1.3-1.4-1.9-2.2-2.7-3.6c-2.3,2.9-3.8,4.5-6.3,6.3c0.3,0.2,0.4,0.3,0.6,0.5
		h4.2v-1.4c0-0.5-0.1-1-0.2-2c1.9,0.1,2.4,0.2,2.7,0.4c0.2,0.1,0.3,0.2,0.3,0.3c0,0.2-0.3,0.4-1,0.6v2H27.8z M28,217.9v-2.7H17.8
		v2.7H28z M17.8,221.7H28v-3.2H17.8V221.7z"/>
	<path class="st0" d="M10.2,262c2.7-2.2,5.2-4.9,6.9-7.8c0.9-1.5,1.1-2.2,1.1-2.8c0-0.4-0.4-0.9-1.4-1.6c0.3-0.1,0.4-0.1,0.6-0.1
		c0.5,0,1.5,0.4,2.3,1c1,0.6,1.4,1.1,1.4,1.5c0,0.3-0.1,0.3-0.6,0.8c-0.3,0.2-0.4,0.4-0.9,1.1c-2.3,3.1-3.3,4.1-5.9,6.1
		c-1.3,1-2.1,1.5-3.3,2L10.2,262z M25.2,249.7c2.9,1.7,5.6,4.1,7.4,6.5c0.9,1.2,1.2,2,1.2,3c0,1.2-0.4,2.1-1.1,2.1
		c-0.4,0-0.5-0.2-0.9-1.3c-1.4-3.8-3.8-7.2-6.9-9.9L25.2,249.7z M28.7,245.7c1,0.6,1.8,1.1,2.5,1.7c1,0.9,1.4,1.6,1.4,2.2
		c0,0.7-0.4,1.2-0.9,1.2c-0.4,0-0.4,0-1.3-1.8c-0.5-1-1.4-2.2-2.1-2.9L28.7,245.7z M31.5,244.1c1,0.4,1.8,1,2.7,1.6
		c1.1,0.8,1.5,1.4,1.5,2.2c0,0.7-0.3,1.1-0.7,1.1c-0.3,0-0.4-0.1-0.6-0.5c-1-1.8-1.5-2.5-3.1-4L31.5,244.1z"/>
	<path class="st0" d="M11.7,295.7c3.5-1.9,7.3-4.7,10.5-8c2.8-2.7,4.6-5,4.6-5.8c0-0.5-0.4-1-1.6-1.6c0.3-0.1,0.4-0.1,0.6-0.1
		c0.8,0,1.5,0.3,2.4,0.8c1,0.6,1.5,1.3,1.5,1.8c0,0.3,0,0.3-1.1,1.2c-0.3,0.2-0.3,0.2-2.3,2.1c-2,1.9-2.1,2-3.3,3
		c1.1,0.8,1.6,1.2,1.7,1.6c0.1,0.3,0.2,1.6,0.2,4.1c0,2,0.1,3.8,0.1,5.3c0,0.6,0,1.4,0,1.6c0,1-0.2,1.4-0.6,1.4
		c-0.6,0-1.9-1.5-1.9-2.4c0-0.2,0-0.2,0.2-0.7c0.3-0.7,0.5-4.2,0.5-6.9c0-1.4-0.1-2.2-0.2-2.7c-0.1-0.3-0.2-0.4-0.6-0.9
		c-2,1.6-4,3-5.4,3.8c-1.6,0.9-3.6,1.9-5,2.4L11.7,295.7z"/>
	<path class="st0" d="M13.6,322.9c1,0.7,1.8,1,2.9,1c1.1,0,2.9-0.4,4.8-1.1c-0.6-2.4-1-3.7-1.4-4.3c-0.4-0.6-0.9-0.9-2.3-1
		c0.4-0.4,0.8-0.5,1.6-0.5c0.7,0,1.6,0.1,2.3,0.3c0.7,0.2,1.1,0.5,1.1,1c0,0.1,0,0.2,0,0.3c-0.1,0.4-0.1,0.6-0.1,0.9
		c0,0.8,0.1,1.4,0.3,2.9c2.5-0.9,3.5-1.3,4.2-1.9c0.4-0.3,0.4-0.3,0.7-0.3c0.4,0,0.9,0.1,1.3,0.3c0.4,0.2,0.6,0.4,0.6,0.6
		c0,0.4-0.4,0.6-1.6,1c-3.2,1-3.4,1.1-5,1.6c0.3,1.4,0.6,3,1,4.5c1.5-0.4,3.4-1,4.3-1.3c0.8-0.3,0.9-0.3,1.8-0.8
		c0.3-0.2,0.4-0.2,0.6-0.2c1.1,0,2.5,0.7,2.5,1.2c0,0.2-0.1,0.4-0.3,0.4c-0.3,0.1-0.3,0.1-2,0.3c-1.3,0.1-4.1,0.8-6.6,1.5
		c0.9,3.7,1.6,6.3,2,7.8c0.3,0.9,0.3,1.3,0.3,1.7c0,0.6-0.2,1-0.6,1c-0.7,0-2.1-1.5-2.1-2.3c0,0,0,0,0.1-0.4c0-0.2,0-0.6,0-0.7
		c0-1-0.3-2.6-1.1-6.6c-2.1,0.6-4.6,1.6-5.8,2.3c-0.6,0.3-1,0.5-1.2,0.5c-1,0-3-1.7-3-2.5c0-0.1,0-0.2,0.1-0.3c0.6,0.7,1.4,1,2.1,1
		c0.9,0,1.3-0.1,5.2-1.3c0.3-0.1,0.8-0.3,2.4-0.7c-0.3-1.5-0.8-3.5-1-4.5c-2.9,0.8-3.6,1-4.6,1c-1.3,0-2.6-0.6-3.6-1.7L13.6,322.9z"
		/>
	<path class="st0" d="M14,356.4c2.7,0.7,4.3,1.3,5.4,2.1c0.6,0.4,1,1.1,1,1.9c0,0.9-0.3,1.6-0.8,1.6c-0.3,0-0.4-0.1-1.2-1.1
		c-1.4-1.8-2.4-2.7-4.6-4.1L14,356.4z M33.9,358c-1.4,2.6-3.1,4.8-5.9,7.5c-2.6,2.5-4.3,3.9-7.9,6.4c-1.3,0.9-1.5,1-1.7,1.3
		c-0.4,0.5-0.6,0.7-1,0.7c-1.1,0-3.3-2.7-3.3-4.1c0-0.2,0-0.3,0.1-0.6c0.6,0.8,0.6,0.9,1,1.2c0.4,0.4,0.8,0.6,1.1,0.6
		c0.5,0,1.3-0.4,2.7-1.2c3.1-1.8,4.2-2.6,6.7-4.6c3.4-2.8,5.1-4.5,7.5-7.5L33.9,358z"/>
	<path class="st0" d="M13.5,402.4c2-1.7,3.9-3.9,5.9-6.8c1.1-1.7,1.8-3.2,1.8-3.8c0-0.4-0.1-0.6-0.5-1c-0.3-0.3-0.3-0.3-0.7-0.5
		c-0.3-0.2-0.3-0.2-0.5-0.3c0.3-0.1,0.4-0.1,0.5-0.1c0.6,0,1.5,0.3,2.3,0.8c0.9,0.5,1.3,1,1.3,1.4c0,0.3,0,0.4-1.5,2.5
		c0.4,0.1,0.5,0.1,0.8,0.1c0.5,0,1.9-0.2,3.3-0.6c1.2-0.3,1.6-0.4,2.2-0.8c0.2-0.1,0.3-0.2,0.5-0.2c0.7,0,2.3,1.5,2.3,2.1
		c0,0.2-0.1,0.4-0.4,0.7c-0.5,0.4-0.6,0.7-1.3,2c-2.5,4.8-4.7,7.5-8.3,10.6c-2.4,2-4.8,3.5-6.9,4.4l-0.2-0.4c2.2-1.4,3.9-2.7,6.2-5
		c3.4-3.4,6-7.2,7.6-11.1c0.3-0.6,0.4-1.2,0.4-1.4c0-0.1-0.1-0.2-0.3-0.2c-0.4,0-2.2,0.4-3.6,0.9c-0.5,0.2-0.7,0.2-0.9,0.2
		c-0.6,0-1.2-0.3-1.7-0.8c-2.3,3.2-5,5.8-8.1,7.7L13.5,402.4z M29.9,388.9c1,0.6,1.8,1.1,2.5,1.7c1,0.9,1.4,1.6,1.4,2.2
		s-0.4,1.2-0.9,1.2c-0.4,0-0.4,0-1.2-1.8c-0.5-1-1.4-2.2-2.2-2.9L29.9,388.9z M32.8,387.3c1,0.5,1.8,1,2.7,1.6
		c1.1,0.8,1.4,1.4,1.4,2.2c0,0.7-0.3,1.1-0.7,1.1c-0.3,0-0.4-0.1-0.6-0.6c-1-1.8-1.5-2.5-3.1-4L32.8,387.3z"/>
</g>
<line class="st1" x1="87" y1="5.1" x2="87" y2="65.1"/>
<g>
	<path class="st0" d="M81.3,107.9c1.5,0.1,2.4,0.4,3.4,0.8c1.6,0.9,2.4,2.6,2.1,4.6c-0.5,3.7-3.9,6.1-8.5,6.1c-4,0-6.8-1.8-6.4-4.3
		c0.1-1,0.8-1.4,2-1.4c0.9,0,1.2,0.3,1.1,1.1c-0.1,1.5-0.1,2,0.4,2.7c0.5,0.7,1.6,1.1,2.9,1.1c3.1,0,5.1-2,5.6-5.3
		c0.3-2.1-0.2-3.6-1.5-4.3c-0.8-0.4-2.1-0.7-3.5-0.7h-1.4l0.1-1H79c1.2,0,2.5-0.3,3.5-0.9c1.3-0.7,2.1-2.1,2.3-3.8
		c0.2-1.2,0-2.2-0.4-3c-0.5-1-1.5-1.5-3-1.5c-2.3,0-3.7,1.2-4.2,3.5c-0.2,1.1-0.5,1.4-1.6,1.4c-1.1,0-1.6-0.3-1.5-1.1
		c0.4-2.5,3.7-4.6,7.4-4.6c3.9,0,6.5,2.2,6.1,5.2c-0.2,1.7-1.4,3.1-3.1,4c-0.9,0.4-1.8,0.7-3.2,1L81.3,107.9z"/>
	<path class="st0" d="M92.1,100.7c1.4-2.1,3.8-3.3,6.5-3.3c2.6,0,4.7,1.2,5.5,3.3c0.9,2,1.1,4.8,0.7,7.7c-0.4,2.9-1.4,5.6-2.8,7.7
		c-1.4,2.1-3.8,3.3-6.4,3.3c-2.6,0-4.7-1.2-5.6-3.3c-0.9-2-1.1-4.8-0.7-7.7C89.6,105.5,90.6,102.8,92.1,100.7z M95.6,118.6
		c3.3,0,5.2-3.1,6.2-10.2c1-7.1,0-10.2-3.3-10.2c-3.3,0-5.2,3.1-6.2,10.2C91.2,115.5,92.2,118.6,95.6,118.6z"/>
</g>
</svg>
