<?xml version="1.0" encoding="utf-8"?>
<!-- Generator: Adobe Illustrator 25.2.3, SVG Export Plug-In . SVG Version: 6.00 Build 0)  -->
<svg version="1.1" id="レイヤー_1" xmlns="http://www.w3.org/2000/svg" xmlns:xlink="http://www.w3.org/1999/xlink" x="0px"
	 y="0px" viewBox="0 0 114 419" style="enable-background:new 0 0 114 419;" xml:space="preserve">
<style type="text/css">
	.st0{fill:#200701;}
	.st1{fill:none;stroke:#76544B;stroke-miterlimit:10;}
</style>
<g>
	<g>
		<path class="st0" d="M65.3,198.9c0.8-1,1.1-1.3,1.9-2.3c1.3,1.1,1.7,1.4,2.9,2.5c0.1,0.1,0.1,0.2,0.1,0.3c0,0.1-0.1,0.2-0.3,0.2
			h-9.4v11c0,0.7,0,0.7,2.9,0.7c2.9,0,3.1,0,3.4-0.6c0.3-0.4,0.9-2.4,1.7-5.5l0.4,0l-0.4,4.6c-0.1,0.5-0.1,0.5-0.1,0.5
			c0,0.3,0.2,0.4,0.6,0.6c0.4,0.2,0.6,0.4,0.6,0.7c0,0.4-0.3,0.8-1,1c-0.6,0.1-2.2,0.2-4.7,0.2c-3.5,0-4.3-0.1-4.8-0.4
			c-0.4-0.3-0.6-0.7-0.7-1.6c0-1.7,0-1.7,0-5.1v-6.3h-3.5c-0.1,1.7-0.1,2.1-0.3,3.2c-0.7,3.7-2.1,6.4-4.6,8.3
			c-1.3,1.1-2.5,1.7-4.7,2.5l-0.2-0.4c2-1.1,3.1-1.9,4.4-3.3c2.2-2.4,3.1-5.2,3.4-10.3h-6.6c-0.4,0-0.9,0-1.6,0.1l-0.2-1.1
			c1.5,0.3,2,0.3,3.2,0.3h8.2V192c0-1.7,0-2.1-0.2-3.2c2.9,0.3,3.4,0.4,3.4,0.8c0,0.3-0.4,0.4-1.3,0.6v8.7H65.3z M48.6,190.2
			c1.4,1.2,2.6,2.4,3.5,3.3c0.7,0.8,1,1.5,1,2.1c0,1-0.7,2.1-1.2,2.1c-0.3,0-0.4-0.2-0.6-1c-0.6-2.1-1.6-4.1-3.1-6.2L48.6,190.2z
			 M60.3,198.2c1.9-3,3.3-5.8,3.9-7.9c3,1.1,3.2,1.2,3.2,1.5c0,0.3-0.5,0.5-1.5,0.5c-3.6,4.6-3.6,4.6-5.2,6.3L60.3,198.2z"/>
		<path class="st0" d="M56,227h-5.8c-1,0-1.1,0-2.6,0.1l-0.2-1.1c0.9,0.2,1.6,0.3,2.9,0.3H63c0.7-0.8,1-1.1,1.7-1.9
			c1.2,0.9,1.5,1.1,2.7,2.2c0.1,0.1,0.1,0.1,0.1,0.2c0,0.1-0.1,0.2-0.2,0.2h-9.4v2.4h8.7c0.4-0.5,0.6-0.7,1.1-1.1
			c1.1,0.8,1.4,1,2.4,1.8c0.2,0.1,0.2,0.2,0.2,0.3c0,0.3-0.3,0.4-1.8,0.4c-0.3,0.4-0.3,0.4-1.1,1.2c-0.6,0.6-0.6,0.6-1,1l-0.3-0.1
			c0.5-1.5,0.6-1.7,0.8-2.8h-9v3.3c0,0.4,0,1.8,0,4.3c0,0.2-0.1,0.3-0.2,0.3c-0.1,0.1-0.9,0.1-1.4,0.1c-0.2,0-0.3-0.1-0.4-0.3
			c0-1.5,0-1.7,0-2.3V230h-8.1c-0.3,2.4-1.3,4.3-2.3,4.3c-0.4,0-0.9-0.8-0.9-1.5c0-0.3,0.1-0.6,0.5-0.8c1.2-0.8,1.7-1.7,2.3-3.9h0.4
			c0,0.3,0,0.5,0,0.7c0,0.1,0,0.3,0,0.6H56V227z M56.2,242.7c-1.5,1.8-2.7,3.1-4,4.3c5.9-0.2,7.6-0.2,11.2-0.5
			c-0.8-0.7-1.5-1.2-3.1-2.4l0.2-0.3c1.8,0.7,4.4,1.9,5.7,2.7c1,0.6,1.3,1.1,1.3,2.1c0,0.8-0.2,1.3-0.6,1.3c-0.2,0-0.3-0.1-0.5-0.4
			c-0.6-0.8-1.9-2.1-2.4-2.5c-1.8,0.4-2.9,0.6-5.2,0.9c-3.6,0.5-4.2,0.6-10.8,1.1c-0.3,0.8-0.4,1.2-0.6,1.2c-0.1,0-0.2-0.1-0.3-0.3
			c-0.1-0.2-0.2-0.6-0.3-1.2c-0.1-0.8-0.2-1.4-0.3-1.7c0.7,0,0.7,0,2,0.1c0.4,0,0.9,0,1.5,0c0.3,0,0.6,0,1.4,0
			c0.9-1.4,1.4-2.5,2.2-4.3h-5.4c-0.9,0-2.2,0.1-3,0.2l-0.2-1.1c1.1,0.2,2.2,0.3,3.3,0.3h17c0.6-0.8,0.8-1,1.5-1.8
			c1.4,1,1.4,1,2.6,1.9c0.1,0.1,0.1,0.2,0.1,0.3c0,0.1-0.2,0.3-0.3,0.3H56.2z M47.1,235.6c0.8,0.1,1.2,0.2,1.9,0.2h2.8
			c0.6-0.6,0.7-0.8,1.3-1.4c0.8,0.6,1,0.8,1.8,1.6c0.1,0.1,0.1,0.2,0.1,0.3s-0.1,0.2-0.3,0.2H49c-0.6,0-1,0-1.7,0.1L47.1,235.6z
			 M47.8,238.9c1.1,0.1,1.8,0.2,3.4,0.2h11.5c0.5-0.6,1-1.1,1.5-1.7c1.1,0.8,1.4,1.1,2.4,2c0.1,0.1,0.1,0.2,0.1,0.2
			c0,0.1-0.1,0.2-0.3,0.2H51.2c-2.4,0.1-2.4,0.1-3.2,0.1L47.8,238.9z M47.9,232.5c0.5,0.1,1.1,0.1,1.7,0.1h2.3
			c0.5-0.7,0.7-0.8,1.3-1.4c0.8,0.7,1,0.9,1.8,1.6c0.1,0.1,0.1,0.2,0.1,0.3c0,0.1-0.1,0.2-0.2,0.2h-5.1c-0.6,0-0.9,0-1.5,0.1
			L47.9,232.5z M58.9,232.4c1,0.2,1,0.2,1.6,0.2h2.1l1.3-1.5c0.8,0.7,1,1,1.8,1.7c0,0.1,0.1,0.1,0.1,0.1c0,0.1-0.1,0.2-0.3,0.2h-5
			c-0.1,0-0.6,0-1.5,0.1L58.9,232.4z M58.9,235.6c0.5,0.1,1,0.2,1.7,0.2h3c0.6-0.7,0.8-0.9,1.3-1.5c0.9,0.7,1.1,0.9,2,1.7
			c0.1,0.1,0.1,0.2,0.1,0.3s-0.1,0.2-0.2,0.2h-6.2c-0.4,0-0.7,0-1.5,0.1L58.9,235.6z"/>
		<path class="st0" d="M57,284.1c3-0.9,5-2,6.6-3.9c1.7-1.9,2.5-4.2,2.5-6.7c0-2.7-1.1-4.9-3.2-6.2c-1.2-0.8-3.1-1.3-4.8-1.3
			c-0.3,0-0.5,0-1,0.1c0.7,1,0.9,1.5,0.9,2.3c0,2.2-1.6,6.3-3.7,9.7c-1.8,2.8-3.1,4.2-4.2,4.2c-0.5,0-0.9-0.2-1.2-0.6
			c-0.3-0.3-0.3-0.4-0.8-1.8c-0.3-0.7-0.4-1.1-1.2-2.6c-0.4-0.9-0.6-1.7-0.6-2.5c0-1.8,1-3.8,2.5-5.5c2.3-2.4,6-3.9,9.6-3.9
			c2.8,0,5.4,0.9,7.2,2.6c1.8,1.7,2.7,3.9,2.7,6.6c0,3.5-2,6.6-5.6,8.5c-1.6,0.9-3.1,1.3-5.5,1.7L57,284.1z M47.8,275.4
			c0,1.3,0.4,2.7,1.1,3.7c0.4,0.5,0.8,0.8,1.1,0.8c0.6,0,2-1.5,3.3-3.7c2.1-3.3,3.6-6.9,3.6-8.7c0-0.4-0.1-0.7-0.4-1.4
			C51.6,267,47.8,271.1,47.8,275.4z"/>
		<path class="st0" d="M47.6,306.5v10.7c0,3.7,0,3.7,0,5.6c0,0.2-0.1,0.3-0.3,0.3c-0.2,0.1-0.9,0.1-1.3,0.1c-0.3,0-0.3-0.1-0.4-0.3
			c0.1-2.4,0.1-6.8,0.1-13.9c0-7.3,0-9.8-0.1-11.4c0.8,0.5,1.1,0.7,2,1.3h5.7c0.5-0.6,0.7-0.7,1.1-1.3c0.7,0.6,0.9,0.7,1.5,1.3
			c0.2,0.2,0.3,0.3,0.3,0.4c0,0.2-0.2,0.4-0.8,0.7c0,1.3,0,2.1,0,3.1c0,1.5,0,2.4,0.1,4.1c0,0.2-0.1,0.3-0.2,0.4
			c-0.1,0.1-0.8,0.1-1.4,0.1c-0.2,0-0.3-0.1-0.3-0.3v-0.8H47.6z M53.5,299.6h-6v2.7h6V299.6z M53.5,303h-6v2.9h6V303z M53.5,320.4
			c0,0.2-0.1,0.2-0.3,0.3c-0.2,0.1-0.9,0.1-1.1,0.1c-0.3,0-0.3-0.1-0.4-0.3c0-2.3,0.1-3.6,0.1-4.8c0-3.3,0-5.9-0.1-7
			c0.9,0.5,1.2,0.7,2.1,1.2h6.6c0.5-0.5,0.7-0.6,1.2-1.1c0.6,0.5,0.8,0.6,1.4,1.2c0.3,0.2,0.3,0.3,0.3,0.4c0,0.2-0.1,0.3-0.9,0.7
			c0,1.5,0,2,0,3.1c0,1.9,0,3,0.1,5.2v0c0,0.3-0.1,0.3-0.3,0.4c-0.2,0.1-0.8,0.1-1.2,0.1c-0.3,0-0.4-0.1-0.4-0.3v-1h-7.1V320.4z
			 M60.6,310.6h-7.1v3.1h7.1V310.6z M53.5,314.4v3.6h7.1v-3.6H53.5z M60.6,306.5v0.7c-0.1,0.3-0.3,0.4-1,0.4c-0.7,0-0.8-0.1-0.8-0.4
			c0.1-1.8,0.1-2.6,0.1-4.2c0-4,0-4.3-0.1-5.3c0.9,0.5,1.2,0.7,2,1.2h5.9c0.5-0.6,0.7-0.7,1.1-1.3c0.8,0.6,1,0.7,1.7,1.3
			c0.2,0.2,0.3,0.3,0.3,0.4c0,0.2-0.1,0.3-0.9,0.8v13.5c0,4.7,0,4.7,0,7.3c-0.1,1.3-0.6,1.7-3,2.2c-0.3-0.7-0.5-1-1-1.3
			c-0.3-0.2-0.7-0.3-1.5-0.4c-1-0.2-1.5-0.3-1.6-0.3v-0.4c2.3,0.1,2.8,0.2,4.6,0.2c0.4,0,0.5-0.1,0.5-0.4v-14H60.6z M66.9,299.6
			h-6.3v2.7h6.3V299.6z M66.9,303h-6.3v2.9h6.3V303z"/>
	</g>
</g>
<line class="st1" x1="57.2" y1="95.8" x2="57.2" y2="155.8"/>
</svg>
