<?xml version="1.0" encoding="utf-8"?>
<!-- Generator: Adobe Illustrator 25.2.3, SVG Export Plug-In . SVG Version: 6.00 Build 0)  -->
<svg version="1.1" id="レイヤー_1" xmlns="http://www.w3.org/2000/svg" xmlns:xlink="http://www.w3.org/1999/xlink" x="0px"
	 y="0px" viewBox="0 0 114 419" style="enable-background:new 0 0 114 419;" xml:space="preserve">
<style type="text/css">
	.st0{fill:#200701;}
	.st1{fill:none;stroke:#76544B;stroke-miterlimit:10;}
</style>
<g>
	<g>
		<path class="st0" d="M87.3,106.5h7.3c0.8-0.9,1.1-1.1,1.9-2c1.1,0.9,1.5,1.2,2.5,2.1c0.1,0.1,0.2,0.2,0.2,0.3
			c0,0.1-0.1,0.2-0.3,0.2H87.9c1.2,1.1,1.9,1.7,3,2.2c1.4,0.8,3.4,1.5,5.6,2c1,0.2,1.8,0.4,3.5,0.6l-0.1,0.4
			c-0.9,0.2-1.2,0.5-1.8,1.9c-2.8-0.8-4.4-1.6-6.9-3.3c-1.5-1.1-2.5-2-3.9-3.6v1.6c0,2,0,2,0.1,2.7c0,0,0,0.1,0,0.1
			c0,0.3-0.4,0.5-1.4,0.5c-0.3,0-0.5-0.1-0.5-0.3c0,0,0,0,0-0.1c0.1-0.9,0.1-2.2,0.1-2.7v-1.3c-2,2.2-3.4,3.2-6.1,4.8
			c-1.9,1.1-3.1,1.7-5.4,2.4l-0.1-0.3c4.5-2.4,7.1-4.4,9.7-7.5h-7.3c-0.6,0-1.1,0.1-1.6,0.2l-0.2-1.1c0.6,0.2,1.1,0.3,1.8,0.3h9.2
			v-2.6c-2.6,0.3-5,0.4-6.9,0.4c-0.4,0-1.3,0-2.3-0.1l0-0.4c2.7-0.2,5.7-0.6,9.1-1.2c2.2-0.4,4.6-1,6.2-1.5c0.7-0.3,1.1-0.4,2-0.9
			c2,1.3,2.7,1.8,2.7,2.1c0,0.2-0.2,0.3-0.4,0.3c-0.2,0-0.6-0.1-1.3-0.3c-3.2,0.8-4.5,1.1-7.3,1.5V106.5z M90,113.1
			c0.6-0.4,0.8-0.6,1.5-1c0.8,0.6,1,0.7,1.7,1.3c0.2,0.2,0.3,0.3,0.3,0.4c0,0.3-0.4,0.3-1.3,0.3c-3.1,1.5-3.1,1.5-4.4,2
			c0.4,0.1,0.6,0.1,0.6,0.3c0,0.2-0.3,0.3-1.1,0.5v1H95c0.8-0.9,1-1.1,1.7-2c1.1,0.9,1.5,1.2,2.6,2.2c0.1,0.1,0.2,0.2,0.2,0.3
			s-0.1,0.2-0.3,0.2H87.4v2.1c0,1.5,0,2.5,0,3.2c0,0.1,0,0.1,0,0.2c0,0.6-0.1,0.8-0.5,1.1c-0.5,0.4-1.2,0.5-2.4,0.7
			c-0.1-0.6-0.3-0.9-0.8-1.2c-0.3-0.2-1-0.4-1.8-0.5l-1.1-0.2c-0.3-0.1-0.7-0.1-1-0.2v-0.5c2.5,0.1,3.4,0.1,5.5,0.2
			c0.3,0,0.4-0.1,0.4-0.4v-4.5h-9.4c-0.4,0-1,0.1-1.6,0.2l-0.2-1.1c0.7,0.2,1.1,0.3,1.8,0.3h9.3c0-0.8,0-1.2-0.1-2.2
			c0.8,0.1,1.1,0.2,1.6,0.3c1.5-0.9,1.8-1.2,3.1-2.2h-8.8c-0.4,0-0.8,0.1-1.2,0.2l-0.2-1c0.5,0.1,1,0.2,1.4,0.2H90z"/>
		<path class="st0" d="M82.9,140.1c0.7-0.7,0.9-0.9,1.6-1.7c1,0.8,1.2,1.1,2,2c0.1,0.1,0.1,0.1,0.1,0.2s-0.1,0.1-0.2,0.1h-6.1
			c0.8,0.5,1.4,1,1.9,1.5c0.3,0.3,0.4,0.5,0.4,0.9c0,0.8-0.6,1.6-1.1,1.6c-0.3,0-0.3-0.1-0.5-0.8c-0.3-1.4-0.5-2.1-1.1-3.2h-1.6
			c-1.2,1.7-2.3,3-4.1,4.5l-0.3-0.3c1.5-1.9,2.3-3.1,3.1-4.9c0.7-1.5,1-2.2,1.3-3.4c3.1,1,3.1,1,3.1,1.3c0,0.3-0.5,0.4-1.6,0.5
			c-0.5,0.9-0.7,1.2-1,1.7H82.9z M76.2,146.9c0-1,0-1.6-0.1-2.9c1,0.5,1.3,0.7,2.2,1.3h5.3c0.5-0.5,0.6-0.6,1-1.1
			c0.7,0.4,0.9,0.6,1.5,1.1c0.2,0.1,0.3,0.2,0.3,0.3c0,0.1-0.1,0.3-0.8,0.7c0,0.9,0,1.4,0,1.8v2.9c0,0.8,0,1.6,0.1,3.1
			c0,0.3-0.3,0.4-1.3,0.4c-0.5,0-0.6,0-0.6-0.3v-0.9H78v5c2.2-0.4,2.2-0.4,5.5-1.1c-0.7-1-1.1-1.4-2.1-2.4l0.3-0.3
			c1.8,1,3,1.8,3.8,2.6c0.8,0.7,1,1.1,1,1.7c0,0.9-0.4,1.7-0.8,1.7c-0.3,0-0.4-0.2-0.7-0.9c-0.5-1.1-0.6-1.2-1.1-2
			c-1.9,0.9-6.4,2.5-7.9,2.9c-0.1,0.8-0.1,1-0.4,1c-0.2,0-0.4-0.3-1.3-2.7c0.8-0.1,1-0.1,2-0.2V146.9z M83.8,149v-3.1H78v3.1H83.8z
			 M78,149.6v3.2h5.9v-3.2H78z M95.1,140.1c0.8-0.8,1-1.1,1.7-1.9c1.1,1,1.5,1.3,2.5,2.3c0.1,0.1,0.1,0.1,0.1,0.2s-0.1,0.1-0.2,0.1
			h-8.1c2,1.1,2.5,1.7,2.5,2.4c0,0.8-0.5,1.6-1,1.6c-0.3,0-0.4-0.2-0.6-0.8c-0.3-1.1-0.6-1.9-1.4-3.2h-2c-1,1.3-1.7,2.1-2.9,3.1
			l-0.3-0.3c1.6-2.2,2.8-4.7,3.3-6.9c2.9,0.8,3,0.8,3,1.1c0,0.3-0.4,0.4-1.4,0.5c-0.5,0.9-0.7,1.2-1.1,1.8H95.1z M90.4,161.6
			c0,0.4-0.3,0.5-1.3,0.5c-0.5,0-0.6-0.1-0.6-0.4c0.1-7.5,0.1-9.2,0.1-12.3c0-3.3,0-3.9-0.1-5.4c0.9,0.6,1.2,0.7,2.1,1.3h4.6
			c0.4-0.5,0.6-0.7,1.1-1.2c0.5,0.4,1.1,0.8,1.7,1.2c0.2,0.1,0.3,0.3,0.3,0.4c0,0.2-0.2,0.4-1,0.8v6.4c0,0.9,0,0.9,0,2.5
			c0,0.4,0,1.1,0,2.1c-0.1,0.8-0.2,1.1-0.8,1.5c-0.5,0.3-1.1,0.5-2.1,0.8c-0.1-0.8-0.3-1.1-0.8-1.3c-0.3-0.2-0.6-0.3-1.9-0.5l0-0.4
			c1.8,0.1,1.8,0.1,2,0.1c0.3,0,0.7,0,1.3,0c0.3,0,0.4-0.1,0.4-0.4v-11.1h-5v11.5V161.6z"/>
		<path class="st0" d="M86.5,195.9c3-0.9,5-2,6.6-3.9c1.7-1.9,2.5-4.2,2.5-6.7c0-2.7-1.1-4.9-3.2-6.2c-1.2-0.8-3.1-1.3-4.8-1.3
			c-0.3,0-0.5,0-1,0.1c0.7,1,0.9,1.5,0.9,2.3c0,2.2-1.6,6.3-3.7,9.7c-1.8,2.8-3.1,4.2-4.2,4.2c-0.5,0-0.9-0.2-1.2-0.6
			c-0.3-0.3-0.3-0.4-0.8-1.8c-0.3-0.7-0.4-1.1-1.2-2.6c-0.4-0.9-0.6-1.7-0.6-2.5c0-1.8,1-3.8,2.5-5.5c2.3-2.4,6-3.9,9.6-3.9
			c2.8,0,5.4,0.9,7.2,2.6c1.8,1.7,2.7,3.9,2.7,6.6c0,3.5-2,6.6-5.6,8.5c-1.6,0.9-3.1,1.3-5.5,1.7L86.5,195.9z M77.3,187.1
			c0,1.3,0.4,2.7,1.1,3.7c0.4,0.5,0.8,0.8,1.1,0.8c0.6,0,2-1.5,3.3-3.7c2.1-3.3,3.6-6.9,3.6-8.7c0-0.4-0.1-0.7-0.4-1.4
			C81.1,178.8,77.3,182.8,77.3,187.1z"/>
		<path class="st0" d="M86,225.7c0.7,1.5,1.8,2.6,3.5,3.9c2.6-1.9,4.2-3.5,5-4.8c1.8,1,2.5,1.4,2.5,1.7c0,0.2-0.2,0.3-0.5,0.3
			c-0.1,0-0.4,0-0.8-0.1c-2.7,1.8-2.9,2-5.7,3.2c2.4,1.6,5.3,2.4,9.4,2.8v0.3c-1.4,0.4-1.7,0.8-2,2c-2.2-0.6-3.6-1.2-5.5-2.3
			c-2.5-1.4-4.5-3.4-5.7-5.6c-0.2-0.4-0.3-0.6-0.6-1.5h-3.9v5.9c2.9-0.5,4.1-0.8,6.3-1.3l0.1,0.3c-2.7,1.3-4.7,2-10.2,3.8
			c-0.1,0.8-0.2,1.1-0.4,1.1c-0.1,0-0.3-0.1-0.4-0.3c-0.1-0.2-0.2-0.6-0.4-1.1c-0.3-0.9-0.4-1.4-0.5-1.6c1.2-0.1,2-0.2,3.6-0.5
			v-13.8c-2.2,1.5-3.6,2.3-5.8,3.4l-0.2-0.4c5.1-3.1,10-8.1,11.9-11.8c0.6,0.1,1.1,0.3,1.4,0.4c1.3,0.3,1.6,0.4,1.6,0.7
			c0,0.3-0.2,0.3-1.1,0.4c1,1.4,1.8,2.3,3.4,3.5c3.1,2.3,5.9,3.6,9.3,4.2v0.4c-1,0.1-1.4,0.5-1.8,1.8c-2.1-0.9-2.9-1.4-4.3-2.3
			l-0.2,0.1l0.1,7.2c0,0.3-0.1,0.4-0.2,0.4c-0.2,0.1-1.1,0.4-1.4,0.4c-0.1,0-0.2-0.1-0.3-0.3v-0.4H86z M91.6,217.8
			c0.3-0.3,0.4-0.4,0.7-0.6c-0.9-0.8-1.7-1.5-2.6-2.5c-1.3-1.4-1.9-2.2-2.7-3.6c-2.3,2.9-3.8,4.5-6.3,6.3c0.3,0.2,0.4,0.3,0.6,0.5
			h4.2v-1.4c0-0.5-0.1-1-0.2-2c1.9,0.1,2.4,0.2,2.7,0.4c0.2,0.1,0.3,0.2,0.3,0.3c0,0.2-0.3,0.4-1,0.6v2H91.6z M91.8,221.2v-2.7H81.6
			v2.7H91.8z M81.6,225.1h10.2v-3.2H81.6V225.1z"/>
		<path class="st0" d="M81.6,258.9c-0.1,0.3-0.5,2-1.3,5.3c-0.4,1.7-0.5,2.1-0.5,3c0,0.8,0,1-0.1,1.2c-0.1,0.3-0.4,0.5-0.7,0.5
			c-0.5,0-0.9-0.4-1.2-1.1c-0.6-1.5-1-3.7-1-6c0-0.8,0.1-1.9,0.2-3c0.2-1.6,0.2-1.6,1-5.3c0.3-1.3,0.4-2,0.4-2.6
			c0-0.9-0.2-1.6-0.8-2.6c0.6,0,1.1,0.4,1.9,1.4c0.7,0.9,1,1.6,1,2.2c0,0.4,0,0.6-0.6,1.7c-0.6,1.2-1.2,3.1-1.5,4.5
			c-0.3,1.1-0.4,2.3-0.4,3.5c0,1.5,0.1,2.5,0.5,3.7c0.5-1,0.7-1.5,1-2.4l1.5-3.9L81.6,258.9z M85.1,260.3c-0.1,0.6-0.1,0.8-0.1,1.2
			c0,3.1,1.8,4.3,6.1,4.3c0.8,0,1.6-0.1,2.4-0.2c0.6-0.1,0.6-0.1,1.5-0.4c0.2-0.1,0.3-0.1,0.4-0.1c0.7,0,1.8,1,1.8,1.7
			c0,0.3-0.2,0.6-0.6,0.7c-0.6,0.2-1.9,0.3-3.5,0.3c-3.5,0-6-0.6-7.3-1.7c-1-0.9-1.5-2.1-1.5-3.6c0-0.7,0.1-1.3,0.3-2.2L85.1,260.3z
			 M85.1,251.4c1,0.6,1.6,0.8,2.6,0.8c1.7,0,4.5-0.6,5.6-1.3c0.4-0.2,0.4-0.2,0.6-0.2c0.2,0,0.6,0.1,1,0.4c0.6,0.3,0.9,0.7,0.9,1
			c0,0.4-0.2,0.5-0.8,0.6c-1.8,0.3-2.9,0.5-4,1c-0.9,0.4-2.5,1.3-3.6,2l-0.3-0.3c1.3-1.1,2.2-1.8,2.7-2.2c-0.6,0-0.9,0.1-1.1,0.1
			c-1.6,0-2.6-0.4-3.8-1.6L85.1,251.4z"/>
		<path class="st0" d="M73.7,307.3c2.3-1,3.9-1.9,5.7-3.3c1.3-1,1.8-1.5,2.4-2.2c0.5,0.2,1,0.4,1.2,0.5c1.1,0.4,1.4,0.6,1.4,0.8
			c0,0.2-0.3,0.3-0.6,0.3c-0.2,0-0.5,0-0.8-0.1c-2.8,2-5.6,3.3-9.2,4.2L73.7,307.3z M82,300.2v-14.4c0-0.8,0-1.5-0.1-3
			c0.9,0.5,1.2,0.7,2,1.3h5.6c0.4-0.5,0.6-0.6,1-1.1c0.6,0.5,0.7,0.6,1.3,1.1c0.2,0.2,0.3,0.3,0.3,0.4c0,0.1-0.2,0.3-0.7,0.7v15.1
			h3.8l0.1-4.6h-2c-0.6,0-0.8,0-1.3,0.1l-0.1-1c0.6,0.1,0.9,0.2,1.5,0.2h2l0.1-4.6h-2c-0.5,0-1,0.1-1.4,0.2l-0.2-1
			c0.6,0.1,1,0.2,1.5,0.2h2l0.1-4.5h-2c-0.7,0-0.9,0-1.4,0.1l-0.2-1c0.6,0.2,0.9,0.2,1.5,0.2h1.9c0.4-0.5,0.6-0.6,1-1.1
			c0.7,0.6,0.9,0.7,1.5,1.3c0.2,0.2,0.3,0.3,0.3,0.4c0,0.1,0,0.2-1,0.7L97,300.2H97c0.5-0.7,0.7-0.9,1.2-1.5c0.8,0.8,1.1,1,1.7,1.7
			c0.1,0.1,0.1,0.2,0.1,0.3c0,0.1-0.1,0.2-0.3,0.2H75.8c-0.9,0-1.2,0-1.9,0.2l-0.1-1c0.7,0.1,1,0.2,2,0.2h0.5L76,289.5
			c-0.1-1.7-0.2-3.3-0.3-4.8c0.8,0.4,1.1,0.5,1.8,1c1.3-1,2-1.7,2.6-2.5c0.4,0.3,0.7,0.5,0.9,0.7c0.8,0.6,1,0.8,1,1
			c0,0.1-0.1,0.2-0.3,0.2c-0.1,0-0.3-0.1-0.7-0.2c-1.1,0.5-1.6,0.7-3.3,1.2l0.1,4.1H79c0.4-0.6,0.5-0.8,0.9-1.3
			c0.8,0.7,1,0.9,1.7,1.7c0,0.1,0.1,0.1,0.1,0.2c0,0.1-0.1,0.1-0.2,0.1h-3.7l0.1,4.6H79c0.4-0.6,0.6-0.8,1-1.4
			c0.8,0.7,1,0.9,1.7,1.7c0.1,0.1,0.1,0.1,0.1,0.2c0,0.1-0.2,0.2-0.3,0.2h-3.5l0.1,4.4H82z M89.7,284.7h-6.1v15.5h6.1V284.7z
			 M84.2,287.3c0.5,0.1,0.7,0.2,1.2,0.2h1.5c0.4-0.5,0.5-0.7,1-1.2c0.7,0.6,0.9,0.8,1.5,1.5c0.1,0.1,0.1,0.1,0.1,0.2
			c0,0.1-0.1,0.2-0.2,0.2h-3.8c-0.5,0-0.7,0-1.1,0.1L84.2,287.3z M85.9,298.2c0,0.2-0.3,0.3-1,0.3c-0.2,0-0.3-0.1-0.3-0.2
			c0-1.4,0.1-2.6,0.1-4.1c0-1.7-0.1-3.6-0.1-4.5c0.6,0.3,0.8,0.4,1.3,0.8h1.5c0.3-0.3,0.4-0.4,0.6-0.8c0.4,0.4,0.5,0.5,0.9,0.8
			c0.2,0.2,0.2,0.3,0.2,0.3c0,0.1-0.1,0.2-0.5,0.5c0,5,0,5,0,6.5c0,0.3-0.3,0.4-1.1,0.4c-0.1,0-0.2,0-0.2-0.1v-0.9h-1.5V298.2z
			 M85.9,296.7h1.5v-5.5h-1.5V296.7z M89.1,301.9c3.3,0.8,5.5,1.5,6.9,2.2c0.8,0.4,1.1,0.7,1.3,1.2c0.2,0.5,0.3,1,0.3,1.3
			c0,0.4-0.2,0.7-0.5,0.7c-0.3,0-0.4-0.1-1.3-0.8c-1.6-1.4-3.3-2.4-6.9-4.2L89.1,301.9z"/>
		<path class="st0" d="M95.2,337.3c-1,1.3-1.7,2.1-2.9,3.1c-2.2,1.8-4.7,2.8-7,2.8c-2.1,0-3.8-0.9-4.6-2.4c-0.6-1-0.8-2.4-0.8-4.7
			c0-1.5,0.1-4.2,0.2-6.7c0.2-3.1,0.2-3.8,0.2-4.8c0-2.4-0.3-2.9-2.3-3.7c0.3-0.2,0.5-0.3,0.8-0.3c0.6,0,1.7,0.3,2.5,0.6
			c1.1,0.5,1.6,1.1,1.6,1.7c0,0.2,0,0.4-0.3,1c-0.5,1.7-1.5,10.2-1.5,13.5c0,1.7,0.3,2.7,1.1,3.4c0.6,0.5,1.5,0.8,2.5,0.8
			c1.9,0,4.3-0.7,6.4-1.8c1.3-0.7,2.1-1.3,3.6-2.5L95.2,337.3z M88.8,322.6c1,0.6,1.8,1.1,2.5,1.7c1,0.9,1.4,1.5,1.4,2.2
			c0,0.7-0.4,1.2-0.9,1.2c-0.4,0-0.4,0-1.3-1.8c-0.5-1-1.4-2.2-2.1-2.9L88.8,322.6z M91.6,320.9c1,0.4,1.8,0.9,2.7,1.6
			c1.1,0.8,1.4,1.4,1.4,2.2c0,0.7-0.3,1.1-0.7,1.1c-0.3,0-0.4-0.1-0.6-0.5c-1-1.8-1.5-2.5-3.1-4L91.6,320.9z"/>
		<path class="st0" d="M89,358.9c-1.1,0.3-3.7,1.4-5.7,2.2c-0.6,0.3-0.9,0.4-1.1,0.4c-0.5,0-1.1-0.4-1.6-1.2
			c-0.5-0.8-0.8-1.5-0.8-2.1c0-0.3,0.1-0.4,0.3-0.7c0.4,1.3,1.2,2,2.1,2c0.7,0,3.4-0.6,5.3-1.2c1.1-0.4,1.1-0.4,1.7-0.9
			c0.1-0.1,0.3-0.1,0.4-0.1c0.4,0,0.8,0.3,1.5,1c0.6,0.6,0.8,0.9,0.8,1.3c0,0.2-0.1,0.4-0.5,0.5c-0.8,0.4-1.1,0.6-2.3,1.9
			c-1.8,1.8-2.8,2.8-4.1,4.2c-2.7,2.9-2.7,2.9-3.3,3.5l0.1,0.1c3-1.9,5.3-2.7,7.6-2.7c3.6,0,6,2.1,6,5.2c0,4-3.7,7-8.8,7
			c-2.7,0-4.5-1.1-4.5-2.8c0-1.4,1.3-2.4,3-2.4c1.4,0,2.6,0.5,3.6,1.4c0.5,0.5,0.8,0.9,1.2,1.7c2.1-0.9,3.4-2.9,3.4-5.2
			c0-1.5-0.6-2.8-1.7-3.5c-0.6-0.3-1.7-0.6-2.8-0.6c-2.7,0-6.6,2.2-8.9,5.2c-0.5,0.6-0.7,0.8-1,0.8c-0.4,0-0.9-1-0.9-1.8
			c0-0.3,0.2-0.6,0.6-1c1.1-0.8,1.5-1.3,3.9-3.9c3.4-3.8,4.5-5.1,6.7-7.9c0.2-0.3,0.2-0.3,0.3-0.4c0,0-0.1-0.1-0.1-0.1c0,0,0,0,0,0
			c0,0,0,0-0.1,0c0,0-0.1,0-0.1,0.1L89,358.9z M84.7,374.9c-1.1,0-1.8,0.6-1.8,1.4c0,1,1.2,1.7,3.2,1.7c0.8,0,1.1-0.1,2-0.3
			C87.6,376,86.3,374.9,84.7,374.9z"/>
		<path class="st0" d="M21.5,236.6h-5.8c-1,0-1.1,0-2.6,0.1l-0.2-1.1c0.9,0.2,1.6,0.3,2.9,0.3h12.8c0.7-0.8,1-1.1,1.7-1.9
			c1.2,0.9,1.5,1.1,2.7,2.2c0.1,0.1,0.1,0.1,0.1,0.2c0,0.1-0.1,0.2-0.2,0.2h-9.4v2.4h8.7c0.4-0.5,0.6-0.7,1.1-1.1
			c1.1,0.8,1.4,1,2.4,1.8c0.2,0.1,0.2,0.2,0.2,0.3c0,0.3-0.3,0.4-1.8,0.4c-0.3,0.4-0.3,0.4-1.1,1.2c-0.6,0.6-0.6,0.6-1,1l-0.3-0.1
			c0.5-1.5,0.6-1.7,0.8-2.8h-9v3.3c0,0.4,0,1.8,0,4.3c0,0.2-0.1,0.3-0.2,0.3c-0.1,0.1-0.9,0.1-1.4,0.1c-0.2,0-0.3-0.1-0.4-0.3
			c0-1.5,0-1.7,0-2.3v-5.4h-8.1c-0.3,2.4-1.3,4.3-2.3,4.3c-0.4,0-0.9-0.8-0.9-1.5c0-0.3,0.1-0.6,0.5-0.8c1.2-0.8,1.7-1.7,2.3-3.9
			h0.4c0,0.3,0,0.5,0,0.7c0,0.1,0,0.3,0,0.6h8.1V236.6z M21.7,252.3c-1.5,1.8-2.7,3.1-4,4.3c5.9-0.2,7.6-0.2,11.2-0.5
			c-0.8-0.7-1.5-1.2-3.1-2.4l0.2-0.3c1.8,0.7,4.4,1.9,5.7,2.7c1,0.6,1.3,1.1,1.3,2.1c0,0.8-0.2,1.3-0.6,1.3c-0.2,0-0.3-0.1-0.5-0.4
			c-0.6-0.8-1.9-2.1-2.4-2.5c-1.8,0.4-2.9,0.6-5.2,0.9c-3.6,0.5-4.2,0.6-10.8,1.1c-0.3,0.8-0.4,1.2-0.6,1.2c-0.1,0-0.2-0.1-0.3-0.3
			c-0.1-0.2-0.2-0.6-0.3-1.2c-0.1-0.8-0.2-1.4-0.3-1.7c0.7,0,0.7,0,2,0.1c0.4,0,0.9,0,1.5,0c0.3,0,0.6,0,1.4,0
			c0.9-1.4,1.4-2.5,2.2-4.3h-5.4c-0.9,0-2.2,0.1-3,0.2l-0.2-1.1c1.1,0.2,2.2,0.3,3.3,0.3h17c0.6-0.8,0.8-1,1.5-1.8
			c1.4,1,1.4,1,2.6,1.9c0.1,0.1,0.1,0.2,0.1,0.3c0,0.1-0.2,0.3-0.3,0.3H21.7z M12.6,245.1c0.8,0.1,1.2,0.2,1.9,0.2h2.8
			c0.6-0.6,0.7-0.8,1.3-1.4c0.8,0.6,1,0.8,1.8,1.6c0.1,0.1,0.1,0.2,0.1,0.3s-0.1,0.2-0.3,0.2h-5.8c-0.6,0-1,0-1.7,0.1L12.6,245.1z
			 M13.3,248.4c1.1,0.1,1.8,0.2,3.4,0.2h11.5c0.5-0.6,1-1.1,1.5-1.7c1.1,0.8,1.4,1.1,2.4,2c0.1,0.1,0.1,0.2,0.1,0.2
			c0,0.1-0.1,0.2-0.3,0.2H16.7c-2.4,0.1-2.4,0.1-3.2,0.1L13.3,248.4z M13.4,242c0.5,0.1,1.1,0.1,1.7,0.1h2.3
			c0.5-0.7,0.7-0.8,1.3-1.4c0.8,0.7,1,0.9,1.8,1.6c0.1,0.1,0.1,0.2,0.1,0.3c0,0.1-0.1,0.2-0.2,0.2h-5.1c-0.6,0-0.9,0-1.5,0.1
			L13.4,242z M24.4,242c1,0.2,1,0.2,1.6,0.2h2.1l1.3-1.5c0.8,0.7,1,1,1.8,1.7c0,0.1,0.1,0.1,0.1,0.1c0,0.1-0.1,0.2-0.3,0.2h-5
			c-0.1,0-0.6,0-1.5,0.1L24.4,242z M24.4,245.1c0.5,0.1,1,0.2,1.7,0.2h3c0.6-0.7,0.8-0.9,1.3-1.5c0.9,0.7,1.1,0.9,2,1.7
			c0.1,0.1,0.1,0.2,0.1,0.3s-0.1,0.2-0.2,0.2h-6.2c-0.4,0-0.7,0-1.5,0.1L24.4,245.1z"/>
		<path class="st0" d="M29.2,281.3l1.8-2.2c1.2,1.1,1.6,1.4,2.8,2.4c0.1,0.1,0.1,0.2,0.1,0.2c0,0.1-0.1,0.2-0.3,0.2H22.9V294H31
			c0.8-1,1-1.3,1.8-2.3c1.3,1.1,1.7,1.4,2.9,2.5c0.1,0.1,0.1,0.2,0.1,0.2c0,0.1-0.1,0.2-0.2,0.2H13c-0.9,0-1.5,0.1-2.3,0.2l-0.2-1.1
			c1,0.2,1.4,0.2,2.5,0.2h7.9v-19.3c0-1.6-0.1-2.5-0.2-3.4c0.7,0.1,1.2,0.2,1.5,0.2c1.5,0.2,1.8,0.3,1.8,0.5c0,0.2-0.3,0.4-1,0.6
			v8.7H29.2z"/>
		<path class="st0" d="M22.5,330.1c3-0.9,5-2,6.6-3.9c1.7-1.9,2.5-4.2,2.5-6.7c0-2.7-1.1-4.9-3.2-6.2c-1.2-0.8-3.1-1.3-4.8-1.3
			c-0.3,0-0.5,0-1,0.1c0.7,1,0.9,1.5,0.9,2.3c0,2.2-1.6,6.3-3.7,9.7c-1.8,2.8-3.1,4.2-4.2,4.2c-0.5,0-0.9-0.2-1.2-0.6
			c-0.3-0.3-0.3-0.4-0.8-1.8c-0.3-0.7-0.4-1.1-1.2-2.6c-0.4-0.9-0.6-1.7-0.6-2.5c0-1.8,1-3.8,2.5-5.5c2.3-2.4,6-3.9,9.6-3.9
			c2.8,0,5.4,0.9,7.2,2.6c1.8,1.7,2.7,3.9,2.7,6.6c0,3.5-2,6.6-5.6,8.5c-1.6,0.9-3.1,1.3-5.5,1.7L22.5,330.1z M13.3,321.3
			c0,1.3,0.4,2.7,1.1,3.7c0.4,0.5,0.8,0.8,1.1,0.8c0.6,0,2-1.5,3.3-3.7c2.1-3.3,3.6-6.9,3.6-8.7c0-0.4-0.1-0.7-0.4-1.4
			C17.1,313,13.3,317,13.3,321.3z"/>
		<path class="st0" d="M23.5,362.1h5.7c0.7-0.9,1-1.2,1.7-2.1c1.2,1,1.6,1.3,2.8,2.4c0.1,0.1,0.1,0.1,0.1,0.2c0,0.1-0.1,0.1-0.2,0.1
			H23.5v1.5c0,1.3,0,1.8,0.1,4.4c0,0.3-0.1,0.3-0.3,0.4c-0.2,0.1-0.8,0.1-1.2,0.1c-0.5,0-0.6-0.1-0.6-0.4c0-2.4,0-3.5,0-4.5v-1.5
			h-7.1c-1.1,0-1.7,0-2.5,0.2l-0.1-1c0.6,0.2,1.2,0.2,2.6,0.2h7.1V358h-8.6c-1.3,0-1.8,0-2.4,0.2l-0.1-1c0.7,0.2,0.7,0.2,2.5,0.2
			h11.8c1.8-3.1,2-3.6,2.7-5H16.1c1.9,1.2,3.1,2.4,3.1,3.2c0,0.7-0.6,1.7-1.1,1.7c-0.3,0-0.4-0.2-0.6-0.8c-0.3-1.1-1.1-2.9-1.9-4.1
			h-3c-1.3,0-1.8,0-2.5,0.2l-0.1-1.1c0.8,0.2,1.3,0.3,2.7,0.3h8.9V348h-6.4c-1.2,0-1.9,0.1-2.5,0.2l-0.1-1.1
			c0.8,0.2,1.5,0.3,2.6,0.3h6.4v-1.4c0-0.7,0-1.2-0.1-2.3c2.5,0.3,2.7,0.3,3,0.4c0.2,0.1,0.4,0.2,0.4,0.3c0,0.3-0.3,0.4-1.3,0.7v2.4
			h5.1c0.7-0.9,1-1.1,1.7-2c1.2,0.9,1.5,1.2,2.6,2.2c0.1,0.1,0.1,0.2,0.1,0.2c0,0.1-0.1,0.1-0.3,0.1h-9.3v3.7h7.7
			c0.8-0.9,1-1.2,1.8-2c1.2,1,1.5,1.3,2.6,2.3c0.1,0.1,0.1,0.1,0.1,0.2c0,0.1-0.1,0.1-0.2,0.1h-7.5c0.4,0.2,0.4,0.2,0.6,0.3
			c1.3,0.7,1.5,0.8,1.5,1c0,0.2-0.2,0.3-0.5,0.3c-0.2,0-0.5,0-0.8-0.1c-1.1,1.2-1.5,1.5-3.6,3.5h5.7c0.8-0.9,0.8-0.9,1.8-2
			c1.1,1,1.5,1.3,2.6,2.3c0.1,0.1,0.1,0.2,0.1,0.2c0,0.1-0.1,0.1-0.2,0.1H23.5V362.1z"/>
		<path class="st0" d="M15.4,392.2c0.8,0.3,1.7,0.8,2.5,1.3c0.9,0.5,1.2,0.9,1.2,1.6c0,0.8-0.3,1.5-0.7,1.5c-0.2,0-0.3-0.1-0.4-0.4
			c-0.9-1.7-1.2-2.2-2.6-3.4v6.4c0,2.3,0,4.1,0.1,5.9c-0.1,0.2-0.1,0.2-0.3,0.3c-0.2,0.1-0.8,0.1-1.1,0.1c-0.3,0-0.4-0.1-0.4-0.3
			c0-1,0-1,0-2.7c0-0.6,0-1.8,0.1-3.3v-5.3c-1.2,1.4-2.2,2.3-3.9,3.6l-0.4-0.3c1.8-1.7,3-3.1,4.4-5.3c1.3-1.9,2.1-3.4,3-5.6h-4.7
			c-0.6,0-1.1,0-2.1,0.2l-0.2-1.1c0.7,0.2,1.5,0.3,2.3,0.3h1.5v-3.4c0-0.7,0-1.2-0.2-2.1c1,0.1,2.5,0.3,2.9,0.4
			c0.2,0.1,0.3,0.1,0.3,0.3c0,0.3-0.3,0.4-1.1,0.7v4.1h1.4c0.5-0.6,0.6-0.8,1.2-1.4c0.7,0.6,0.9,0.7,1.5,1.3
			c0.3,0.3,0.4,0.4,0.4,0.5c0,0.2-0.3,0.4-1.2,0.7c-1.3,2.2-2.1,3.6-3.2,5.1V392.2z M19.6,381.5c1,0.2,1.7,0.3,3.1,0.3h8.7l1.7-1.9
			c1.1,0.9,1.4,1.2,2.5,2.2c0.1,0.1,0.1,0.1,0.1,0.2c0,0.1-0.1,0.2-0.3,0.2H22.6c-1,0-1.5,0-2.8,0.2L19.6,381.5z M21.8,405
			c0,0.4-0.1,0.5-1.5,0.5c-0.3,0-0.4-0.1-0.5-0.4c0.1-2.4,0.1-5.2,0.1-8.5c0-1.7,0-2.2-0.1-4c0.9,0.5,1.2,0.7,2.1,1.2h10.2
			c0.4-0.5,0.4-0.5,1-1.2c0.8,0.5,1,0.7,1.7,1.2c0.2,0.2,0.3,0.3,0.3,0.4c0,0.2-0.3,0.4-0.8,0.7c0,0.7,0,0.8,0,1.5
			c0,1.3,0.1,7.2,0.1,8.5c-0.1,0.3-0.4,0.4-1.5,0.4c-0.3,0-0.4-0.1-0.5-0.3v-1.5H21.8V405z M23.1,391.9c-0.1,0.3-0.4,0.4-1.3,0.4
			c-0.4,0-0.6-0.1-0.6-0.4c0.1-2.1,0.1-3.1,0.1-4.7c0-1,0-1-0.1-3c1,0.5,1.2,0.7,2.1,1.2h7.5c0.4-0.5,0.6-0.7,1-1.2
			c0.7,0.5,0.9,0.7,1.5,1.2c0.2,0.1,0.3,0.3,0.3,0.4c0,0.2-0.1,0.3-0.9,0.7c0,0.6,0,1.1,0,1.4s0,1.6,0.1,3.8
			c-0.1,0.2-0.1,0.3-0.3,0.3c-0.3,0.1-0.8,0.1-1.1,0.1c-0.3,0-0.4-0.1-0.4-0.3v-1.1h-8V391.9z M26.1,394.5h-4.3v3.7h4.3V394.5z
			 M21.8,398.9v4.1h4.3v-4.1H21.8z M23.1,390.1h8V386h-8V390.1z M32.4,398.2v-3.7h-4.5v3.7H32.4z M27.9,403h4.5v-4.1h-4.5V403z"/>
	</g>
</g>
<line class="st1" x1="86.7" y1="7.5" x2="86.7" y2="67.5"/>
</svg>
