<?xml version="1.0" encoding="utf-8"?>
<!-- Generator: Adobe Illustrator 25.2.3, SVG Export Plug-In . SVG Version: 6.00 Build 0)  -->
<svg version="1.1" id="レイヤー_1" xmlns="http://www.w3.org/2000/svg" xmlns:xlink="http://www.w3.org/1999/xlink" x="0px"
	 y="0px" viewBox="0 0 114 419" style="enable-background:new 0 0 114 419;" xml:space="preserve">
<style type="text/css">
	.st0{fill:#200701;}
	.st1{fill:none;stroke:#76544B;stroke-miterlimit:10;}
</style>
<g>
	<g>
		<path class="st0" d="M48.7,210.9v1.9c0,0.4-0.2,0.5-1,0.5c-0.3,0-0.4,0-0.5,0c0,0-0.1,0-0.1,0c-0.3,0-0.4-0.1-0.4-0.4
			c0.1-3.6,0.1-6,0.1-10.3c0-4,0-6.3-0.1-8.2c2.7,0.4,3,0.5,3,0.8c0,0.2-0.2,0.4-1,0.6v14.4h7.6v-17.8c0-0.8-0.1-2.5-0.1-3.3
			c2.6,0.3,2.7,0.3,3.1,0.5c0.2,0.1,0.3,0.2,0.3,0.3c0,0.2-0.1,0.3-1.2,0.6l0,19.6h8.1v-12.9c0-1-0.1-1.8-0.2-2.9
			c0.6,0.1,1.1,0.1,1.5,0.2c1.4,0.1,1.9,0.3,1.9,0.6s-0.3,0.4-1.1,0.8l-0.1,8.1c0,1.6,0,2.9,0.1,8.8c0,0.4-0.2,0.5-1,0.5
			c-0.2,0-0.4,0-0.5,0c0,0-0.1,0-0.1,0c-0.3,0-0.4-0.1-0.4-0.4v-2.2H48.7z"/>
		<path class="st0" d="M45.4,232.7c1,0.2,1.5,0.3,2.5,0.3h4.6c0.5-0.6,0.6-0.8,1.1-1.3c0.7,0.6,1,0.8,1.7,1.4
			c0.3,0.2,0.3,0.4,0.3,0.5c0,0.2-0.3,0.4-1.1,0.7c-1.3,3.8-2.4,6-4.1,8.3c-1.6,2.1-3.3,3.6-5.9,5.3l-0.3-0.4
			c2.3-2.1,3.6-3.6,4.9-5.7c1.5-2.4,2.5-4.8,3.4-8.1h-4.6c-1,0-1.6,0.1-2.2,0.2L45.4,232.7z M67.6,231.8c-2,2.2-3.2,3.3-5.8,5.2
			c1,1.7,2.1,3.1,3.4,4.3c1.7,1.6,3.1,2.5,5.5,3.5l0,0.4c-1.4,0.2-1.6,0.4-2.3,1.9c-2-1.4-3.2-2.4-4.7-4.4c-2.3-2.9-3.6-5.8-4.6-10
			c-0.2-1-0.3-1.5-0.8-4l0.1,10.8l0.1,8c0,0.8-0.1,1.1-0.4,1.5c-0.5,0.5-1.3,0.8-3,1.1c-0.1-0.9-0.3-1.2-0.9-1.5
			c-0.6-0.3-1.5-0.6-3.6-0.9l0-0.4c3.4,0.2,3.5,0.2,5.3,0.3c0.4,0,0.5-0.1,0.5-0.5v-17.9c0-1.7,0-2.5-0.1-4.2
			c3.3,0.5,3.3,0.5,3.3,0.8c0,0.3-0.3,0.4-1.3,0.7c0.5,3.8,1.5,7.2,3,10.1c1.1-1.1,1.5-1.7,2.1-2.6c1.2-1.6,1.9-2.9,2.4-4.2
			c2.1,1.1,3,1.6,3,1.8c0,0.3-0.3,0.3-1.1,0.3H67.6z"/>
		<path class="st0" d="M57.3,284.1c3-0.9,5-2,6.6-3.9c1.7-1.9,2.5-4.2,2.5-6.7c0-2.7-1.1-4.9-3.2-6.2c-1.2-0.8-3.1-1.3-4.8-1.3
			c-0.3,0-0.5,0-1,0.1c0.7,1,0.9,1.5,0.9,2.3c0,2.2-1.6,6.3-3.7,9.7c-1.8,2.8-3.1,4.2-4.2,4.2c-0.5,0-0.9-0.2-1.2-0.6
			c-0.3-0.3-0.3-0.4-0.8-1.8c-0.3-0.7-0.4-1.1-1.2-2.6c-0.4-0.9-0.6-1.7-0.6-2.5c0-1.8,1-3.8,2.5-5.5c2.3-2.4,6-3.9,9.6-3.9
			c2.8,0,5.4,0.9,7.2,2.6s2.7,3.9,2.7,6.6c0,3.5-2,6.6-5.6,8.5c-1.6,0.9-3.1,1.3-5.5,1.7L57.3,284.1z M48.1,275.4
			c0,1.3,0.4,2.7,1.1,3.7c0.4,0.5,0.8,0.8,1.1,0.8c0.6,0,2-1.5,3.3-3.7c2.1-3.3,3.6-6.9,3.6-8.7c0-0.4-0.1-0.7-0.4-1.4
			C51.9,267,48.1,271.1,48.1,275.4z"/>
		<path class="st0" d="M47.9,306.5v10.7c0,3.7,0,3.7,0,5.6c0,0.2-0.1,0.3-0.3,0.3c-0.2,0.1-0.9,0.1-1.3,0.1c-0.3,0-0.3-0.1-0.4-0.3
			c0.1-2.4,0.1-6.8,0.1-13.9c0-7.3,0-9.8-0.1-11.4c0.8,0.5,1.1,0.7,2,1.3h5.7c0.5-0.6,0.7-0.7,1.1-1.3c0.7,0.6,0.9,0.7,1.5,1.3
			c0.2,0.2,0.3,0.3,0.3,0.4c0,0.2-0.2,0.4-0.8,0.7c0,1.3,0,2.1,0,3.1c0,1.5,0,2.4,0.1,4.1c0,0.2-0.1,0.3-0.2,0.4
			c-0.1,0.1-0.8,0.1-1.4,0.1c-0.2,0-0.3-0.1-0.3-0.3v-0.8H47.9z M53.8,299.6h-6v2.7h6V299.6z M53.8,303h-6v2.9h6V303z M53.8,320.4
			c0,0.2-0.1,0.2-0.3,0.3c-0.2,0.1-0.9,0.1-1.1,0.1c-0.3,0-0.3-0.1-0.4-0.3c0-2.3,0.1-3.6,0.1-4.8c0-3.3,0-5.9-0.1-7
			c0.9,0.5,1.2,0.7,2.1,1.2h6.6c0.5-0.5,0.7-0.6,1.2-1.1c0.6,0.5,0.8,0.6,1.4,1.2c0.3,0.2,0.3,0.3,0.3,0.4c0,0.2-0.1,0.3-0.9,0.7
			c0,1.5,0,2,0,3.1c0,1.9,0,3,0.1,5.2v0c0,0.3-0.1,0.3-0.3,0.4c-0.2,0.1-0.8,0.1-1.2,0.1c-0.3,0-0.4-0.1-0.4-0.3v-1h-7.1V320.4z
			 M60.9,310.6h-7.1v3.1h7.1V310.6z M53.8,314.4v3.6h7.1v-3.6H53.8z M60.9,306.5v0.7c-0.1,0.3-0.3,0.4-1,0.4c-0.7,0-0.8-0.1-0.8-0.4
			c0.1-1.8,0.1-2.6,0.1-4.2c0-4,0-4.3-0.1-5.3c0.9,0.5,1.2,0.7,2,1.2h5.9c0.5-0.6,0.7-0.7,1.1-1.3c0.8,0.6,1,0.7,1.7,1.3
			c0.2,0.2,0.3,0.3,0.3,0.4c0,0.2-0.1,0.3-0.9,0.8v13.5c0,4.7,0,4.7,0,7.3c-0.1,1.3-0.6,1.7-3,2.2c-0.3-0.7-0.5-1-1-1.3
			c-0.3-0.2-0.7-0.3-1.5-0.4c-1-0.2-1.5-0.3-1.6-0.3v-0.4c2.3,0.1,2.8,0.2,4.6,0.2c0.4,0,0.5-0.1,0.5-0.4v-14H60.9z M67.2,299.6
			h-6.3v2.7h6.3V299.6z M67.2,303h-6.3v2.9h6.3V303z"/>
	</g>
</g>
<line class="st1" x1="57.5" y1="95.8" x2="57.5" y2="155.8"/>
</svg>
