<?xml version="1.0" encoding="utf-8"?>
<!-- Generator: Adobe Illustrator 25.2.3, SVG Export Plug-In . SVG Version: 6.00 Build 0)  -->
<svg version="1.1" id="レイヤー_1" xmlns="http://www.w3.org/2000/svg" xmlns:xlink="http://www.w3.org/1999/xlink" x="0px"
	 y="0px" viewBox="0 0 114 419" style="enable-background:new 0 0 114 419;" xml:space="preserve">
<style type="text/css">
	.st0{fill:#200701;}
	.st1{fill:none;stroke:#76544B;stroke-miterlimit:10;}
</style>
<g>
	<g>
		<path class="st0" d="M82.5,102.7h-1.7c-0.9,0.1-0.9,0.1-1.3,0.1c-0.4,0-0.4,0-0.9,0.1l-0.3-1c1,0.2,1.2,0.2,2.5,0.2h4.9l1.1-1.3
			c0.8,0.6,1.1,0.8,1.9,1.5c0.1,0.1,0.1,0.1,0.1,0.2c0,0.1-0.1,0.2-0.4,0.2h-4.2v2.3h2.2c0.6-0.6,0.7-0.8,1.3-1.3
			c0.8,0.6,1.1,0.9,1.8,1.6c0.1,0.1,0.1,0.2,0.1,0.2c0,0.1-0.1,0.2-0.3,0.2h-2.1v8.5c0,1.1,0,2.7,0,5c0,0.4-0.2,0.4-1.1,0.4
			c-0.1,0-0.1,0-0.2,0c-0.3,0-0.4-0.1-0.4-0.3c0.1-1.9,0.1-2.1,0.1-2.5v-1.7l0-0.4c-2.3,1-4.7,1.7-7.2,2.3c-0.1,1-0.2,1.2-0.4,1.2
			c-0.3,0-0.4-0.4-1-2.7c1,0,1.5,0,2.6-0.2v-9.6h-1.9c-0.1,2.9-0.3,4.5-0.7,6.5c-0.6,2.8-1.5,5-2.9,7.3l-0.4-0.2
			c0.7-1.7,1.1-3.2,1.5-6.2c0.5-3,0.6-5.5,0.6-10.6c0-2,0-3-0.1-4.5c1.1,0.6,1.4,0.7,2.4,1.4h11.9c1.1-1.7,2-3.4,2.4-4.8
			c1.2,0.2,2.5,0.5,2.9,0.7c0.2,0.1,0.3,0.2,0.3,0.3c0,0.3-0.2,0.3-1.3,0.5c-1.2,1.5-1.4,1.7-3.4,3.4h4c0.8-0.8,1-1.1,1.8-1.9
			c1.1,0.9,1.4,1.2,2.5,2.1c0.1,0.1,0.1,0.2,0.1,0.3c0,0.1-0.1,0.2-0.4,0.2H77.9c0,3.7,0,3.7-0.1,5.1h4.7V102.7z M79,94.7
			c1.1,0.5,2,1,2.9,1.7c0.5,0.4,0.7,0.8,0.7,1.2c0,0.8-0.4,1.5-1,1.5c-0.2,0-0.3-0.1-0.5-0.5c-0.5-1.2-1.4-2.5-2.5-3.6L79,94.7z
			 M81.4,105.7v2.5h4.3v-2.5H81.4z M81.4,108.8v2.6h4.3v-2.6H81.4z M81.4,112v3c1.8-0.3,1.9-0.3,4.3-0.9V112H81.4z M85,94.3
			c1.1,0.6,1.9,1.2,2.7,1.9c0.4,0.4,0.7,0.8,0.7,1.1c0,0.3-0.2,0.9-0.5,1.2c-0.2,0.3-0.4,0.4-0.6,0.4c-0.3,0-0.3-0.1-0.6-1
			c-0.3-1-1-2.2-1.9-3.4L85,94.3z M96.8,105.7c-0.7,3.4-1.5,5.5-3,7.9c0.7,0.6,1.1,1,1.7,1.4c1.5,1.1,2.3,1.5,4,2l-0.1,0.4
			c-0.6,0.1-0.7,0.1-1.1,0.6c-0.3,0.4-0.5,0.6-0.8,1.3c-2.1-1.4-3.3-2.5-4.7-4.4c-1.5,2-2.9,3.4-5,4.9l-0.2-0.4
			c1.9-1.8,3.2-3.4,4.5-5.7c-1-1.8-1.8-4.1-2.2-5.9c-1,1.5-1.2,1.8-2.2,2.8l-0.3-0.3c1.3-1.8,1.9-3.1,2.8-5.8
			c0.6-1.7,0.8-2.6,0.9-3.7c2.8,0.6,2.9,0.7,2.9,1c0,0.3-0.4,0.4-1.3,0.4c-0.6,1.4-0.8,2-1.3,2.9h4.5c0.8-0.9,0.8-0.9,1.4-1.6
			c1,0.8,1.3,1,2.3,1.8c0.1,0.1,0.1,0.2,0.1,0.2c0,0.1-0.1,0.2-0.4,0.2H96.8z M91.2,105.7c-0.4,0.6-0.4,0.8-0.8,1.3
			c0.5,2.1,1.1,3.6,2.4,5.3c1-2.2,1.6-4.1,2.1-6.7H91.2z"/>
		<path class="st0" d="M87.8,150.1c-0.1,0-0.3,0-0.4,0c-1.6,1.2-3.2,2-5.2,2.7c1.4,0.4,2.9,0.6,5.7,0.6c3.3,0,6.9-0.1,12.2-0.5v0.4
			c-1,0.2-1.3,0.6-1.7,2c-1.3,0.1-2.3,0.1-3.8,0.1c-5.3,0-7,0-8.2-0.1c-2.4-0.1-3.6-0.5-5-1.3c-1.4-0.8-2.1-1.7-2.9-3.6
			c-0.8,1.5-2,3.2-2.8,4.1c0.1,0.4,0.1,0.7,0.1,0.9c0,0.3-0.2,0.5-0.3,0.5c-0.3,0-0.5-0.4-1.8-2.9c1.2-0.5,2.1-1.1,3.6-2.2v-7.7
			h-1.7c-0.5,0-1.1,0.1-1.6,0.2l-0.4-1.1c0.8,0.2,1.4,0.3,2,0.3h1.6c0.4-0.5,0.6-0.7,1-1.2c0.8,0.5,1,0.7,1.6,1.2
			c0.1,0.1,0.2,0.3,0.2,0.3c0,0.2-0.3,0.4-0.9,0.8v6.7c0.7,1.3,1.3,1.9,2.5,2.4c1-0.7,1.4-1,2.1-1.7c1.1-1,1.7-1.7,2.1-2.4
			c1,0.3,2.5,0.7,2.7,0.8c0.1,0.1,0.2,0.1,0.2,0.2c0,0.1-0.1,0.2-0.1,0.3c-0.1,0.1-0.3,0.1-0.5,0.1L87.8,150.1z M74.8,131.3
			c1.2,0.8,2.2,1.7,3.5,2.8c0.6,0.6,0.8,1,0.8,1.5c0,0.8-0.7,2-1.1,2c-0.3,0-0.5-0.3-1-1.7c-0.5-1.4-1.3-2.8-2.5-4.3L74.8,131.3z
			 M91.7,143.2v-0.8c-0.1-1.5-0.1-1.5-0.2-2c1,0.1,2.1,0.2,2.5,0.4c0.2,0.1,0.3,0.1,0.3,0.3c0,0.2-0.3,0.3-1,0.6v1.5h1.5
			c0.5-0.7,0.7-0.9,1.2-1.6c1,0.8,1.3,1,2.3,1.8c0,0.1,0.1,0.1,0.1,0.2c0,0.1-0.1,0.2-0.4,0.2h-4.8v3.4H96c0.6-0.8,0.8-1,1.3-1.7
			c1,0.8,1.3,1.1,2.3,2c0.1,0.1,0.1,0.2,0.1,0.2c0,0.1-0.1,0.2-0.3,0.2H82.3c-0.3,0-1.2,0.1-1.5,0.2l-0.3-1.1
			c0.9,0.2,1.4,0.3,1.8,0.3h3.4v-3.4h-2.2c-0.6,0-1.1,0-1.6,0.1l-0.2-1c0.7,0.1,1.1,0.2,1.8,0.2h2.2v-0.8c0-0.8-0.1-1.4-0.2-1.9
			c2.3,0.2,2.8,0.3,2.8,0.6c0,0.2-0.1,0.3-0.9,0.6v1.5H91.7z M83,135.8v2c0,0.3,0.1,0.5,0.2,0.6c0.1,0.1,0.8,0.1,2.2,0.1
			c1,0,2.1-0.1,2.3-0.1c0.4-0.1,0.6-0.5,1.3-1.9l0.3,0.1l-0.1,1.2c0,0.1,0,0.2,0,0.2c0,0.1,0,0.1,0.3,0.2c0.2,0.1,0.4,0.4,0.4,0.6
			c0,0.3-0.2,0.6-0.6,0.7c-0.3,0.1-2.3,0.3-3.6,0.3c-3,0-3.7-0.1-4-0.6c-0.2-0.3-0.2-0.3-0.2-3.8c0-0.8,0-0.9-0.1-1.5
			c0.9,0.4,1.1,0.6,2,1.1h3.8v-2.4h-4.4c-0.4,0-0.9,0.1-1.6,0.2l-0.2-1c0.6,0.1,1.3,0.2,1.8,0.2h4.3c0.4-0.4,0.5-0.6,0.9-1
			c0.7,0.4,0.9,0.6,1.5,1c0.1,0.1,0.2,0.2,0.2,0.3c0,0.2-0.3,0.4-0.9,0.8c0,0.7,0,0.7,0,1.5c0,0.6,0,0.6,0,1.2
			c-0.1,0.1-0.1,0.2-0.2,0.2c-0.2,0.1-0.7,0.1-1.1,0.1c-0.2,0-0.3-0.1-0.4-0.3v-0.1H83z M87.4,147.3h4.3v-3.4h-4.3V147.3z
			 M92.5,135.8v2.2c0,0.3,0.2,0.4,0.7,0.4c0.1,0,0.1,0,0.2,0c0.1,0,0.1,0,0.2,0c0.3,0,0.8,0,1.4,0.1c0.1,0,0.1,0,0.1,0
			c0.8,0,1.7-0.1,1.9-0.1c0.3-0.1,0.4-0.3,1.2-1.8l0.3,0.1l-0.1,1c0,0.1,0,0.2,0,0.3c0,0.1,0.1,0.2,0.4,0.4c0.3,0.2,0.4,0.3,0.4,0.6
			c0,0.3-0.3,0.6-0.8,0.8c-0.6,0.2-1.8,0.2-4,0.2c-2.1,0-2.8-0.1-3.1-0.4s-0.3-0.3-0.3-4c0-0.7,0-0.9-0.1-1.4c0.9,0.4,1.1,0.5,2,1.2
			h3.6v-2.4h-4.3c-0.3,0-1.1,0.1-1.5,0.1l-0.3-1c0.5,0.1,1.3,0.2,1.7,0.2h4.2c0.4-0.4,0.5-0.6,0.8-1c0.6,0.4,0.8,0.5,1.4,1
			c0.2,0.1,0.3,0.2,0.3,0.3c0,0.2-0.1,0.2-0.7,0.6c0,0.4,0,0.5,0,0.7v1.5c0,0.1,0,0.3,0,0.6c-0.1,0.3-0.4,0.4-1.3,0.4
			c-0.3,0-0.4-0.1-0.4-0.3v-0.3H92.5z M91.5,148.6c1.4,0.3,4.1,1.1,4.8,1.4c0.6,0.3,1,1,1,1.8c0,0.5-0.1,0.8-0.4,0.8
			c-0.1,0-0.4-0.1-0.6-0.2c-0.3-0.2-0.3-0.2-1.3-1.1c-1.3-1.2-2.3-1.8-3.6-2.4L91.5,148.6z"/>
		<path class="st0" d="M96.4,185.6c-2.7,3.6-6.4,5.8-9.8,5.8c-2.1,0-3.8-0.9-4.6-2.4c-0.6-1-0.8-2.4-0.8-4.7c0-1.5,0.1-4.2,0.2-6.7
			c0.2-3,0.2-3.8,0.2-4.8c0-2.4-0.3-2.9-2.3-3.7c0.3-0.2,0.5-0.3,0.8-0.3c0.6,0,1.7,0.3,2.5,0.6c1.1,0.5,1.6,1.1,1.6,1.7
			c0,0.2,0,0.4-0.3,1c-0.5,1.7-1.5,10.2-1.5,13.4c0,1.7,0.3,2.7,1.1,3.4c0.6,0.5,1.5,0.8,2.5,0.8c1.9,0,4.3-0.7,6.4-1.8
			c1.3-0.7,2.1-1.3,3.6-2.5L96.4,185.6z"/>
		<path class="st0" d="M75.9,210.7c1.1,1.2,1.9,1.5,3.1,1.5c1.1,0,2.3-0.2,3.6-0.5c0.6-1.8,1-3.8,1-4.7c0-0.9-0.4-1.2-2-1.8
			c0.4-0.2,0.5-0.3,0.9-0.3c0.6,0,1.6,0.2,2.4,0.5c0.8,0.3,1.3,0.7,1.3,1.1c0,0.2,0,0.2-0.3,0.7c-0.4,0.5-1,2-1.7,4
			c1.6-0.6,2.6-1.1,3.2-1.7c0.4-0.4,0.6-0.5,0.8-0.5c0.4,0,1,0.1,1.5,0.3c0.3,0.1,0.4,0.3,0.4,0.5c0,0.5-0.4,0.8-1.6,1.4
			c-1.3,0.6-3.1,1.2-4.9,1.6c-0.3,1-0.3,1-1.2,3.6c-0.6,1.7-0.6,1.7-2.1,6.2c-1.1,3.3-1.5,4-2.1,4c-0.3,0-0.5-0.2-0.6-0.6
			c-0.2-0.4-0.4-1.1-0.4-1.6c0-0.4,0-0.5,0.6-1.4c1.4-2,2.5-4.5,4.4-10c-1.1,0.2-1.9,0.3-2.7,0.3c-1.7,0-2.8-0.7-3.8-2.5L75.9,210.7
			z M87,220.3c0,0.4,0,0.8,0,0.9c0,1.6,0.8,2.8,2.1,3.4c0.8,0.3,1.9,0.5,3,0.5c1.1,0,1.8-0.1,2.7-0.4c0.2-0.1,0.4-0.1,0.5-0.1
			c0.3,0,1,0.3,1.4,0.7c0.3,0.3,0.5,0.5,0.5,0.8c0,0.6-1.1,0.9-3.3,0.9c-2.2,0-3.9-0.3-5.2-0.9c-1.5-0.7-2.4-2.2-2.4-4.1
			c0-0.6,0.1-1.1,0.3-1.8L87,220.3z M87.8,215.1c2-1.2,4.3-1.9,6.5-1.9c0.6,0,1.3,0.2,1.8,0.5c0.3,0.2,0.4,0.5,0.4,0.8
			c0,0.4-0.3,0.6-1.1,0.6c-1,0.1-1.4,0.1-2.2,0.6c-0.6,0.3-0.6,0.3-1.5,1c-0.5,0.3-0.5,0.3-1,0.6l-0.2-0.3c0.3-0.3,0.3-0.3,1.3-1.3
			c0.3-0.2,0.5-0.4,1.4-1.3c-1.8,0-3.3,0.3-5.3,1L87.8,215.1z"/>
		<path class="st0" d="M19.3,172.6c0,1.3,0,2.3,0,3.1c0,0.1,0,0.2,0,0.3c0,0.1,0,0.2,0,0.3c0,0.2,0,0.3-0.1,0.4
			c-0.1,0.1-0.6,0.1-1.2,0.1c-0.3,0-0.4-0.1-0.4-0.3c0,0,0,0,0-0.1c0.1-1.1,0.1-1.1,0.1-3.9h-3.6c-0.4,2.6-1.5,4.2-3.8,5.9l-0.3-0.3
			c1.1-1.1,1.7-2.2,2.1-3.8c0.3-1.1,0.4-2.3,0.4-4.2c0-0.7,0-1-0.1-1.8c1,0.5,1.2,0.7,2.1,1.3c1.2-0.3,2.5-0.8,3.9-1.5
			c0.7-0.3,1-0.5,1.6-1c1.8,1.1,2.3,1.5,2.3,1.7c0,0.2-0.2,0.3-0.5,0.3c-0.2,0-0.4,0-0.9-0.1c-2,0.5-4.2,1-6.7,1.3
			c0,0.1,0,0.2,0,0.3c0,0.4,0,0.9,0,1.3h5.7c0.6-0.6,0.7-0.8,1.3-1.4c0.8,0.7,1.1,1,1.9,1.8c0,0,0.1,0.1,0.1,0.1
			c0,0.1-0.1,0.2-0.2,0.2H19.3z M10.6,192.3c3.8-0.9,7.1-2.3,8.5-3.6c2.2,0.6,2.7,0.9,2.7,1.2c0,0.1-0.2,0.3-0.6,0.3H21
			c-0.2,0-0.3,0-0.6,0c-3.1,1.4-5.8,2.2-9.7,2.6L10.6,192.3z M17.1,188.5c0,0.2-0.1,0.3-0.2,0.3c-0.2,0.1-0.8,0.2-1.4,0.2
			c-0.3,0-0.4-0.1-0.5-0.3c0.1-2.3,0.1-4.6,0.1-8.3c0-2,0-2.6-0.1-3.9c1,0.4,1.3,0.6,2.2,1H29c0.3-0.4,0.4-0.6,0.8-1
			c0.7,0.5,1,0.6,1.7,1.1c0.2,0.1,0.3,0.3,0.3,0.3c0,0.2-0.3,0.4-0.9,0.8c0,4.4,0,7.6,0.1,9.7l0,0c0,0.3-0.1,0.3-0.3,0.4
			c-0.3,0.1-0.9,0.1-1.3,0.1c-0.3,0-0.3-0.1-0.4-0.2V188H17.1V188.5z M29,180.6v-2.4H17.1v2.4H29z M17.1,181.2v2.7H29v-2.7H17.1z
			 M17.1,184.5v2.8H29v-2.8H17.1z M25.4,172.6c-0.2,0.8-0.4,1.2-0.8,1.8c-0.8,1.3-1.9,2-3.6,2.7l-0.2-0.3c1.7-1.3,2.2-2,2.6-3.3
			c0.3-1,0.5-2.8,0.5-4.3c0-0.4,0-0.5,0-1c1,0.5,1.3,0.7,2.1,1.3c1.1-0.2,2.8-0.8,4.7-1.6c1-0.4,1.2-0.6,1.7-1
			c1.7,1,2.4,1.5,2.4,1.8c0,0.1-0.1,0.3-0.3,0.3c-0.2,0-0.2,0-1.1-0.2c-2.2,0.6-3.6,0.9-7.7,1.4c0,0.2,0,0.4,0,0.5
			c-0.1,0.7-0.1,0.9-0.2,1.3h6.9c0.6-0.7,0.6-0.7,1.4-1.5c0.9,0.7,1.2,1,2,1.7c0.1,0.1,0.1,0.1,0.1,0.2c0,0.1-0.1,0.2-0.2,0.2h-5.2
			c0,0.4,0,1.5,0,3.1c0,0.1,0,0.2-0.1,0.3c-0.1,0.1-0.8,0.2-1.3,0.2c-0.2,0-0.3-0.1-0.4-0.3c0-0.8,0-0.8,0-2.1c0-0.4,0-0.7,0-0.8
			c0-0.1,0-0.2,0-0.3H25.4z M25.2,188.9c3.8,0.4,6.7,0.9,7.3,1.1c0.8,0.3,1.3,1.2,1.3,2c0,0.4-0.2,0.6-0.6,0.6c-0.3,0-0.3,0-1.1-0.6
			c-0.7-0.4-2.7-1.4-4-1.9c-0.5-0.2-1.1-0.4-3-1L25.2,188.9z"/>
		<path class="st0" d="M22.7,226.5c3-0.9,5-2,6.6-3.9c1.7-1.9,2.5-4.2,2.5-6.7c0-2.7-1.1-4.9-3.2-6.2c-1.2-0.8-3.1-1.3-4.8-1.3
			c-0.3,0-0.5,0-1,0.1c0.7,1,0.9,1.5,0.9,2.3c0,2.2-1.6,6.3-3.7,9.7c-1.8,2.8-3.1,4.2-4.2,4.2c-0.5,0-0.9-0.2-1.2-0.6
			c-0.3-0.3-0.3-0.4-0.8-1.8c-0.3-0.7-0.4-1.1-1.2-2.6c-0.4-0.9-0.6-1.7-0.6-2.5c0-1.8,1-3.8,2.5-5.5c2.3-2.4,6-3.9,9.6-3.9
			c2.8,0,5.4,0.9,7.2,2.6c1.8,1.7,2.7,3.9,2.7,6.6c0,3.5-2,6.6-5.6,8.5c-1.6,0.9-3.1,1.3-5.5,1.7L22.7,226.5z M13.5,217.8
			c0,1.3,0.4,2.7,1.1,3.7c0.4,0.5,0.8,0.8,1.1,0.8c0.6,0,2-1.5,3.3-3.7c2.1-3.3,3.6-6.9,3.6-8.7c0-0.4-0.1-0.7-0.4-1.4
			C17.3,209.4,13.5,213.5,13.5,217.8z"/>
		<path class="st0" d="M22.4,253.8c0.8,2.2,1.5,3.1,3.2,5c1.5-0.8,1.9-1.1,3.6-2.5c1.5-1.3,1.5-1.3,2-2c2.3,1.1,2.7,1.3,2.7,1.6
			c0,0.2-0.2,0.3-0.6,0.3c-0.1,0-0.2,0-0.3,0c-0.1,0-0.3,0-0.6,0c-0.3,0.2-0.3,0.2-2,1.1c-0.6,0.3-0.6,0.3-3.5,1.7
			c-0.1,0.1-0.3,0.1-0.8,0.4c0.7,0.7,1.4,1.1,2.7,1.7c2,0.9,3.9,1.5,6.6,1.9l-0.1,0.3c-1.4,0.4-1.5,0.6-2.2,2
			c-2.9-1.1-4.1-1.8-5.6-2.8c-2.3-1.7-4.1-3.9-5.1-6.6c-0.2-0.5-0.4-0.9-0.7-1.9H17v7.8c3.2-0.6,4.3-0.9,6.7-1.7l0.1,0.4
			c-1.7,0.9-3.3,1.5-6,2.4c-3.3,1.1-3.6,1.2-4.8,1.7c-0.1,0.2-0.1,0.4-0.1,0.5c-0.1,0.5-0.2,0.8-0.4,0.8c-0.3,0-0.6-0.8-1.2-3.1
			c1.3-0.1,1.3-0.1,3.8-0.6V247c0-1.7,0-3.5-0.1-4.4c1,0.5,1.3,0.7,2.3,1.3h4.6v-1.6c-0.1-1.2-0.1-1.9-0.2-2
			c2.5,0.2,3.3,0.4,3.3,0.7c0,0.3-0.3,0.4-1.2,0.7v2.3h4.6c0.4-0.6,0.5-0.8,1-1.3c0.8,0.6,1.1,0.8,1.9,1.5c0.1,0.1,0.2,0.2,0.2,0.3
			c0,0.2-0.3,0.4-1,0.9l0,4.6c0,3.3,0,3.3,0,4.1c0,0.5,0,0.5-1.6,0.6c-0.2,0-0.3-0.1-0.3-0.4v-0.5H22.4z M28.7,248.4v-3.8H17v3.8
			H28.7z M17,249v4.2h11.7V249H17z"/>
		<path class="st0" d="M21.6,288.7c-2,4.7-2.6,6.4-2.6,7.5c0,0.2,0,0.2,0.2,1c0,0.1,0.1,0.3,0.1,0.4c0,0.4-0.3,0.7-0.6,0.7
			c-0.8,0-2.2-1.1-3.1-2.4c-1-1.4-1.6-3.4-1.9-5.6c-0.2-1.2-0.2-1.9-0.2-4.9c0-2.6-0.2-3.2-1.4-4.8c0.1,0,0.1,0,0.3,0
			c0.4,0,1.3,0.5,2.1,1.4c0.8,0.8,1.3,1.6,1.3,2.2c0,0.2,0,0.4-0.1,0.7c-0.3,1.7-0.5,3-0.5,4.2c0,1.5,0.2,2.9,0.6,4.1
			s0.8,1.7,1.5,2.2c0.3-0.4,0.3-0.4,0.9-1.5c0.9-1.5,0.9-1.5,2.4-3.9c0.4-0.7,0.4-0.7,0.8-1.3L21.6,288.7z M27.6,283.7
			c3.5,0.8,6.3,4.5,6.3,8.4c0,1.3-0.6,2.2-1.4,2.2c-0.3,0-0.4-0.1-0.8-0.3c-0.4-0.3-0.9-0.3-2.1-0.3c-0.6,0-1.2,0-2.1,0.1l-0.1-0.4
			c2.3-0.6,3.5-1,3.8-1.1c0.6-0.2,0.6-0.3,0.6-0.8c0-1-0.4-2.7-0.9-3.7c-0.8-1.6-1.9-2.8-3.5-3.7L27.6,283.7z"/>
		<path class="st0" d="M11.5,337.6c0.1-4.5,0.2-6.4,0.2-8.5c0-0.8,0-6.1-0.1-12.7c0-1.5,0-1.9-0.1-3.1c1.1,0.5,1.4,0.6,2.4,1.3h17.9
			c0.5-0.6,0.7-0.7,1.2-1.3c0.8,0.5,1,0.6,1.7,1.2c0.2,0.1,0.3,0.3,0.3,0.4c0,0.3-0.1,0.3-1.1,0.9c0,15.3,0,16.2,0.3,21.5
			c0,0.6-0.3,0.7-1.7,0.7c-0.3,0-0.4-0.1-0.4-0.5v-1.3H13.5v1.3c0,0.3-0.1,0.4-0.3,0.5c-0.1,0.1-0.9,0.1-1.3,0.1
			C11.6,338.1,11.5,337.9,11.5,337.6L11.5,337.6z M13.5,335.5h18.6v-20.4H13.5V335.5z M23.4,324.5H26c0.5-0.7,0.6-1,1.3-1.6
			c1,0.8,1.3,1,2.2,1.8c0.1,0.1,0.2,0.2,0.2,0.3c0,0.1-0.1,0.2-0.3,0.2h-6v6.4h3.8c0.6-0.8,0.8-1,1.4-1.8c1,0.8,1.3,1.1,2.2,1.9
			c0.2,0.2,0.2,0.3,0.2,0.3c0,0.1-0.1,0.2-0.3,0.2H16.9c-1.5,0-1.5,0-2,0.1l-0.2-1c0.6,0.1,1.5,0.2,2.2,0.2h4.6v-6.4h-3.6
			c-1,0.1-1.6,0.1-1.8,0.1l-0.2-1c0.8,0.1,1.3,0.2,2,0.2h3.6v-5.2h-4.3c-0.6,0-1.3,0.1-2,0.1l-0.3-1c0.7,0.2,1.3,0.2,2.3,0.2h9.2
			c0.6-0.8,0.8-1,1.4-1.7c1,0.8,1.3,1,2.3,1.8c0.1,0.1,0.2,0.3,0.2,0.3c0,0.1-0.1,0.2-0.3,0.2h-6.7V324.5z M25,326.1
			c1.3,0.3,2.4,0.7,3,1c0.5,0.3,0.8,0.7,0.8,1.3c0,0.7-0.3,1.2-0.6,1.2c-0.2,0-0.4-0.1-0.6-0.4c-1.3-1.6-1.8-2.1-2.9-2.9L25,326.1z"
			/>
		<path class="st0" d="M30.5,352.7c0.7-0.8,0.9-1.1,1.5-1.8c1.1,0.8,1.5,1.1,2.6,2c0.1,0.1,0.2,0.2,0.2,0.3c0,0.1-0.2,0.2-0.4,0.2
			h-7.3c2.4,1,2.5,1,2.5,1.3c0,0.2,0,0.2-1.3,0.5c-0.6,0.7-1.6,1.7-2.8,2.8H31c0.8-0.9,1-1.2,1.8-2.1c1.2,0.9,1.5,1.2,2.7,2.2
			c0.1,0.1,0.1,0.2,0.1,0.3c0,0.1-0.2,0.3-0.3,0.3H14.3c-0.1,5-0.3,6.9-0.8,8.9c-0.7,2.7-1.9,5.1-3.8,7.2l-0.3-0.3
			c0.9-1.4,1.3-2.3,1.8-4c0.8-3,1.1-5.7,1.1-11.6c0-1,0-1.4-0.1-2.4c1.1,0.6,1.4,0.8,2.4,1.5h5.2c-0.2-0.1-0.3-0.2-0.3-0.4
			c-0.5-1.6-1.1-2.7-2.1-3.8l0.3-0.2c2.1,1,3.3,2,3.3,2.8c0,0.3-0.1,0.6-0.4,1.1c-0.2,0.4-0.3,0.5-0.6,0.6H25c0.8-1.2,1.5-2.8,2-4.5
			H14.5c-0.7,0-1.6,0.1-2.5,0.2l-0.3-1.1c1.2,0.2,2,0.3,2.8,0.3H22v-1.4c0-0.8,0-1.2-0.1-2.1c3.1,0.3,3.2,0.3,3.2,0.6
			c0,0.3-0.3,0.4-1.1,0.8v2.1H30.5z M23.3,363.4v-2c0-0.7,0-1.1-0.1-2.1c2.4,0.3,3,0.4,3,0.7c0,0.2-0.2,0.3-1.1,0.7v2.8h4.3l1.5-1.7
			c1.1,0.8,1.5,1,2.5,1.9c0.1,0.1,0.2,0.2,0.2,0.3c0,0.1-0.2,0.2-0.4,0.2h-8.1v3.8h3.7c0.7-0.8,0.9-1.1,1.5-1.9
			c1.1,0.9,1.4,1.1,2.5,2.1c0.1,0.1,0.1,0.2,0.1,0.2c0,0.1-0.1,0.2-0.3,0.2h-7.6v4.6H31c0.8-0.9,1.1-1.2,1.9-2.1
			c1.2,0.9,1.6,1.2,2.9,2.2c0.1,0.1,0.1,0.2,0.1,0.3c0,0.1-0.1,0.2-0.3,0.2h-20c-0.3,0-1,0.1-1.9,0.2l-0.2-1.1
			c0.6,0.1,1.6,0.3,2.1,0.3h7.7v-4.6h-4.2c-0.5,0-1.2,0.1-2.2,0.2l-0.3-1.1c0.6,0.1,1.8,0.3,2.5,0.3h4.2V364h-5.2
			c-1.3,2-2.2,3-3.6,4.2l-0.3-0.2c1.5-2.1,2.1-3.3,2.9-5.3c0.6-1.5,0.8-2.1,1-3.2c0.6,0.2,1.1,0.3,1.3,0.4c1,0.3,1.3,0.5,1.3,0.7
			s-0.1,0.3-1.2,0.5c-0.5,1-0.7,1.3-1.2,2.2H23.3z"/>
		<path class="st0" d="M22,392.8c0-1,0-1.8,0-2.4c0-2.7,0-3.1-0.1-4.6c2.9,0.4,3.3,0.5,3.3,0.8c0,0.2-0.4,0.4-1.2,0.6l0,5.5h4.9
			c0.8-0.9,1-1.1,1.8-1.9c1.1,0.9,1.5,1.2,2.6,2.2c0.1,0.1,0.1,0.2,0.1,0.2c0,0.1,0,0.1-0.3,0.1h-9.2v1c0,0.4,0,1.2,0,2.5
			c0,0.6,0,1.7,0,2.9H31c0.8-0.9,1.1-1.2,1.9-2.1c1.2,1,1.6,1.3,2.8,2.4c0.1,0.1,0.1,0.1,0.1,0.2c0,0.1-0.1,0.2-0.2,0.2H23.9
			c0.1,4.4,0.1,7.8,0.1,10.1c0,0,0,0.1,0,0.1c0,0.3-0.3,0.4-1.1,0.4c-0.3,0-0.4,0-0.5,0c0,0-0.1,0-0.1,0c-0.3,0-0.5-0.1-0.5-0.3
			c0,0,0-0.1,0-0.1c0.1-3.4,0.1-5.2,0.1-10.2h-8.4c-0.6,0-1.8,0.1-2.8,0.2l-0.2-1.1c1.3,0.2,2,0.3,2.9,0.3H22v-6.5h-6.3
			c-1.3,2.1-2.7,3.8-4.2,5.3l-0.3-0.2c1.4-2,2.3-3.7,3.2-6c0.9-2.3,1.4-4,1.6-5.1c0.6,0.2,1,0.3,1.3,0.4c1.7,0.5,1.9,0.6,1.9,0.8
			c0,0.3-0.4,0.4-1.3,0.5c-1,2-1.3,2.7-1.8,3.6H22z"/>
	</g>
</g>
<line class="st1" x1="86.9" y1="1.8" x2="86.9" y2="61.8"/>
</svg>
