<?xml version="1.0" encoding="utf-8"?>
<!-- Generator: Adobe Illustrator 25.2.3, SVG Export Plug-In . SVG Version: 6.00 Build 0)  -->
<svg version="1.1" id="レイヤー_1" xmlns="http://www.w3.org/2000/svg" xmlns:xlink="http://www.w3.org/1999/xlink" x="0px"
	 y="0px" viewBox="0 0 226.1 433.9" style="enable-background:new 0 0 226.1 433.9;" xml:space="preserve">
<style type="text/css">
	.st0{fill:#200701;}
	.st1{fill:none;stroke:#76544B;stroke-miterlimit:10;}
</style>
<g>
	<path class="st0" d="M219.8,122.9c0.7-0.9,1-1.1,1.7-2c1.2,0.9,1.6,1.2,2.7,2.2c0.1,0.1,0.2,0.2,0.2,0.2c0,0.1-0.1,0.2-0.3,0.2
		h-11.3c0.3,0.1,0.3,0.1,1.5,0.6c0.3,0.1,0.5,0.3,0.5,0.4c0,0.2-0.2,0.3-1.1,0.3c2.7,1.8,6.1,2.7,10.8,2.9v0.3
		c-1.1,0.4-1.4,0.8-1.7,1.9c-2.8-0.8-3.9-1.2-5.4-2c-1.3-0.8-2.5-1.5-4.1-2.8c-3.1,2.7-5,3.8-9.1,5.4l-0.2-0.4
		c2.5-1.3,4.5-2.6,6.7-4.8c0.8-0.8,1.2-1.2,1.7-1.7h-8.4c0,4.2-0.1,6.6-0.1,7.2c-0.1,4-0.8,7.5-2.2,10.5c-0.8,1.7-1.5,2.8-3.1,4.5
		l-0.3-0.2c1.8-2.9,2.6-4.9,3.1-7.9c0.3-1.3,0.3-2.2,0.5-4.3c-0.9,1-1.3,1.4-2.6,2.5c0,0.3,0,0.4,0,0.6c0,0.1,0,0.1,0,0.1
		c0,0.3-0.1,0.5-0.3,0.5c-0.3,0-0.5-0.5-1.4-2.7c0.7-0.1,1.1-0.3,2.5-0.8c0.6-0.3,0.8-0.4,1.8-0.9c0.1-1.7,0.1-3.7,0.1-6.6
		c0-2.9,0-3.1-0.1-4.4c1,0.5,1.3,0.7,2.2,1.3h7.4v-1.1c0-0.7,0-1-0.1-1.6c2.9,0.2,3.2,0.3,3.2,0.6c0,0.2-0.2,0.3-1.1,0.6v1.5H219.8z
		 M198.1,124.8c0.8,0.6,1.3,1.2,2.2,2.2c0.7,0.8,1,1.4,1,1.9c0,0.4-0.2,1.2-0.4,1.5c-0.2,0.2-0.3,0.3-0.5,0.3c-0.3,0-0.5-0.3-0.6-1
		c-0.3-1.4-1.2-3.8-1.8-4.8L198.1,124.8z M206.4,140.1c-0.1,1.1-0.5,2.4-1.1,3.4c-0.5,0.9-1.4,1.7-2,1.7c-0.4,0-0.7-0.6-0.7-1.3
		c0-0.5,0.1-0.7,0.8-0.9c0.7-0.3,1.5-0.8,1.8-1.2c0.4-0.4,0.5-0.8,0.7-1.7L206.4,140.1z M207.2,136.1v3.1c-0.1,0.2-0.1,0.2-0.4,0.3
		c-0.3,0-0.7,0.1-0.9,0.1c-0.4,0-0.5-0.1-0.5-0.3c0.1-1.8,0.1-2.8,0.1-5.3c0-1.4,0-1.4-0.1-3.6c0.8,0.4,1.1,0.5,1.8,0.9h4.3
		c0.5-0.5,0.5-0.5,0.8-0.9c0.6,0.4,0.8,0.5,1.4,0.9c0.1,0.1,0.1,0.1,0.1,0.2c0,0.2-0.3,0.4-0.7,0.6v3.6c0,0.3,0,0.5,0,2.4
		c0,0.5-0.2,0.7-0.7,1c-0.3,0.1-0.5,0.2-1.4,0.4c-0.3-1-0.7-1.3-2.1-1.4v-0.3c1.7,0.1,1.7,0.1,2.5,0.1c0.2,0,0.2-0.1,0.2-0.2v-1.4
		H207.2z M211.7,133.2v-1.5h-4.6v1.5H211.7z M207.2,133.8v1.7h4.6v-1.7H207.2z M208.2,141.7c0-1.2,0-1.2-0.1-1.8
		c2.6,0.3,2.7,0.3,2.7,0.6c0,0.2,0,0.2-0.9,0.5v2.4c0,0.2,0.1,0.4,0.2,0.4c0.3,0.1,0.9,0.1,1.8,0.1c1.2,0,3.8-0.1,4.1-0.1
		c0.4-0.1,0.6-0.2,0.8-0.7c0.4-1,0.7-1.8,1-2.6l0.4,0.1l-0.1,2.3v0.1c0,0.3,0.2,0.5,0.6,0.6c0.6,0.1,0.8,0.3,0.8,0.6
		c0,0.4-0.3,0.6-1.1,0.8c-0.9,0.2-2.4,0.3-4.9,0.3c-5.1,0-5.3-0.1-5.3-2V141.7z M208.8,128.6c0.8,0.2,1.2,0.2,2.3,0.2h2.9
		c0.6-0.6,0.8-0.8,1.3-1.4c0.9,0.7,1.2,0.9,2,1.7c0.1,0.1,0.1,0.1,0.1,0.2c0,0.1-0.1,0.2-0.3,0.2h-6c-0.9,0-0.9,0-2.1,0.2
		L208.8,128.6z M212,139.6c0.9,0.2,2,0.6,2.8,1.1c0.4,0.3,0.7,0.7,0.7,1.1c0,0.6-0.4,1.4-0.8,1.4c-0.2,0-0.3-0.1-0.5-0.4
		c-0.6-1-1.5-2.1-2.4-2.9L212,139.6z M218,131.6c0,0.2-0.3,0.4-0.8,0.4c0,2.7,0,3,0.1,4.4c-0.1,0.2-0.1,0.3-0.3,0.3
		c-0.1,0.1-0.7,0.1-1,0.1c-0.3,0-0.4-0.1-0.4-0.3c0.1-1,0.1-1.2,0.1-3.3c0-1.2,0-1.5-0.1-2.1C217.7,131.3,218,131.3,218,131.6z
		 M220,132.5c0-0.1,0-0.8-0.1-1.9c3,0.3,3,0.3,3,0.6c0,0.2,0,0.2-1.1,0.6v3.9l0,1.3v0.3c0,0.3,0,0.3,0,0.5c0,0.7-0.2,0.9-0.9,1.3
		c-0.6,0.3-1.1,0.4-1.8,0.5c-0.1-0.8-0.3-1.1-0.7-1.3c-0.3-0.1-0.5-0.1-1.6-0.3v-0.4c0.4,0,0.4,0,1.5,0.1c0.8,0.1,0.8,0.1,1.5,0.1
		c0.1,0,0.2-0.1,0.2-0.4V132.5z M219.3,140.1c1.2,0.5,2.9,1.3,3.7,1.9c0.5,0.4,0.8,0.8,0.8,1.5c0,0.8-0.4,1.5-0.8,1.5
		c-0.3,0-0.3-0.1-0.7-0.8c-0.8-1.4-1.7-2.5-3.2-3.9L219.3,140.1z"/>
	<path class="st0" d="M220.6,175.3c-2.7,3.6-6.4,5.8-9.8,5.8c-2.1,0-3.8-0.9-4.6-2.4c-0.6-1-0.8-2.4-0.8-4.7c0-1.5,0.1-4.2,0.2-6.7
		c0.2-3,0.2-3.8,0.2-4.8c0-2.4-0.3-2.9-2.3-3.7c0.3-0.2,0.5-0.3,0.8-0.3c0.6,0,1.7,0.3,2.5,0.6c1.1,0.5,1.6,1.1,1.6,1.7
		c0,0.2,0,0.4-0.3,1c-0.5,1.7-1.5,10.2-1.5,13.4c0,1.7,0.3,2.7,1.1,3.4c0.6,0.5,1.5,0.8,2.5,0.8c1.9,0,4.3-0.7,6.4-1.8
		c1.3-0.7,2.1-1.3,3.6-2.5L220.6,175.3z"/>
	<path class="st0" d="M210.9,216.1c3-0.9,5-2,6.6-3.9c1.7-1.9,2.5-4.2,2.5-6.7c0-2.7-1.1-4.9-3.2-6.2c-1.2-0.8-3.1-1.3-4.8-1.3
		c-0.3,0-0.5,0-1,0.1c0.7,1,0.9,1.5,0.9,2.3c0,2.2-1.6,6.3-3.7,9.7c-1.8,2.8-3.1,4.2-4.2,4.2c-0.5,0-0.9-0.2-1.2-0.6
		c-0.3-0.3-0.3-0.4-0.8-1.8c-0.3-0.7-0.4-1.1-1.2-2.6c-0.4-0.9-0.6-1.7-0.6-2.5c0-1.8,1-3.8,2.5-5.5c2.3-2.4,6-3.9,9.6-3.9
		c2.8,0,5.4,0.9,7.2,2.6c1.8,1.7,2.7,3.9,2.7,6.6c0,3.5-2,6.6-5.6,8.5c-1.6,0.9-3.1,1.3-5.5,1.7L210.9,216.1z M201.7,207.4
		c0,1.3,0.4,2.7,1.1,3.7c0.4,0.5,0.8,0.8,1.1,0.8c0.6,0,2-1.5,3.3-3.7c2.1-3.3,3.6-6.9,3.6-8.7c0-0.4-0.1-0.7-0.4-1.4
		C205.5,199.1,201.7,203.1,201.7,207.4z"/>
	<path class="st0" d="M203.1,235.4c0-2.1,0-2.8-0.1-4.6c1,0.6,1.3,0.8,2.2,1.4H217c0.5-0.6,0.6-0.7,1.1-1.3c0.8,0.5,1,0.7,1.8,1.3
		c0.2,0.2,0.3,0.3,0.3,0.4c0,0.2-0.3,0.4-1,0.8l0,8.9c0,2.2,0.1,6,0.2,11.6c0,0,0,0.1,0,0.1c0,0.1-0.1,0.3-0.2,0.3
		c-0.2,0.1-1,0.2-1.5,0.2c-0.4,0-0.5,0-0.5-0.2c0,0,0-0.1,0-0.1v-1.9h-12.2v1.9c0,0.1,0,0.2-0.1,0.3c-0.2,0.1-1,0.3-1.7,0.3
		c-0.3,0-0.4-0.1-0.4-0.4c0.1-2.5,0.1-2.9,0.1-8.9L203.1,235.4z M217.3,232.8h-12.2v8.8h12.2V232.8z M205.1,242.2v9.3h12.2v-9.3
		H205.1z"/>
	<path class="st0" d="M200.9,272.6c0,0.8,0.1,1.3,0.1,1.8c0,2.5-0.3,4-0.8,5.2c-0.3,0.6-0.7,1-1,1c-0.4,0-1-0.9-1-1.7
		c0-0.4,0.1-0.6,0.6-1.1c0.7-0.7,1-1.2,1.3-2.5c0.3-1.1,0.4-1.6,0.5-2.6H200.9z M198.7,291c1.8-2.5,2.6-4.1,3.2-6.9
		c0.6-2.4,0.8-5.2,0.8-9.9c0-4.3-0.1-6.5-0.2-8c2.5,0.3,3.3,0.6,3.3,0.9c0,0.3-0.1,0.3-1.2,0.8v6c0,2.1-0.2,5.4-0.4,7.3
		c-0.3,2.6-1.1,4.7-2.4,6.9c-0.8,1.2-1.3,1.8-2.9,3.2L198.7,291z M215.6,283.8l0,7.3c0,0.2,0,0.3-0.1,0.4c-0.2,0.1-0.7,0.2-1.4,0.2
		c-0.3,0-0.4-0.1-0.4-0.3c0-0.8,0-0.8,0-2.4c0-1,0-1,0-5.2v-2.1h-3.8v6.3c0,0.1,0,0.7,0,1.3c0,0.4-0.3,0.5-1.3,0.5
		c-0.4,0-0.5-0.1-0.5-0.3c0-1.6,0-2,0-3.3c0-3.1,0-5.2-0.1-6.4c0.9,0.5,1.1,0.6,1.9,1.2h3.8v-3.3h-6.3c-0.1,1.3-0.2,1.9-0.6,2.7
		c-0.3,0.6-0.7,1.1-1,1.1c-0.4,0-0.8-0.7-0.8-1.5c0-0.3,0.1-0.4,0.4-0.8c0.3-0.3,0.8-0.9,1.1-1.5c0.2-0.5,0.4-1.1,0.5-2h0.5
		c0,0.5,0,0.9,0,1.3H221c0.5-0.5,0.6-0.7,1.2-1.2c0.9,0.7,1.1,0.9,2,1.6c0.2,0.2,0.3,0.3,0.3,0.4c0,0.2-0.1,0.2-1.3,0.6
		c-0.4,0.4-0.4,0.4-1.2,1.1c-0.6,0.5-0.6,0.5-0.8,0.8c0.4,0.3,0.6,0.4,1.1,0.8c0.2,0.1,0.3,0.2,0.3,0.3c0,0.1-0.3,0.4-1,0.8v2.7
		c0,0.2,0,0.7,0,1.5c0,0.3,0,0.7,0,1.2c0,0.8-0.3,1.2-1,1.5c-0.4,0.2-0.9,0.3-1.9,0.5c-0.1-0.6-0.2-0.9-0.6-1.2
		c-0.3-0.3-0.7-0.4-1.8-0.6l0-0.4c2,0.2,2,0.2,3.1,0.2c0.3,0,0.3-0.1,0.3-0.4v-5.5h-4.1V283.8z M218.8,268c0.5-0.5,0.6-0.7,1.1-1.2
		c0.7,0.5,0.9,0.6,1.6,1.2c0.1,0.1,0.2,0.2,0.2,0.3c0,0.2-0.3,0.4-0.9,0.8v2.2c0,0.5,0,1,0.1,3.9c0,0.2-0.1,0.3-0.2,0.4
		c-0.1,0.1-1,0.1-1.3,0.1c-0.3,0-0.3-0.1-0.3-0.3v-0.7h-9.3c-0.6,0-0.9,0-1.5,0.2l-0.2-1.1c1.1,0.3,1.3,0.3,1.8,0.3h9.1v-2.6h-8.7
		c-0.5,0-0.8,0-1.6,0.1l-0.2-1.1c0.9,0.2,1.3,0.3,2,0.3h8.5v-2.4h-9.2c-0.6,0-0.9,0-1.7,0.2l-0.2-1.1c1,0.2,1.3,0.3,2,0.3H218.8z
		 M219.4,281.1c0.3-0.5,0.4-0.6,0.8-1.1l0.4,0.3c0.3-0.9,0.5-1.5,0.6-2.4h-5.7v3.3H219.4z"/>
	<path class="st0" d="M208.1,327.7c2-1.2,3.2-2.3,4.5-3.9c2-2.6,2.9-5.8,2.9-9.4c0-2.4-0.4-4.7-1-5.8c-0.5-0.8-1.2-1.2-2-1.2
		c-1.4,0-2.7,1.2-3.7,3.5c-0.8,1.8-1.3,4.1-1.3,6c0,0.5,0,0.8,0.1,1.7c0,0.2,0,0.4,0,0.6c0,0.5-0.3,0.8-0.7,0.8
		c-1.1,0-1.8-2.3-1.8-5.7c0-2.3,0.2-3.8,0.9-7.5c0.2-1.1,0.3-1.7,0.3-2c0-0.9-0.4-1.4-1.5-2c0.2-0.1,0.4-0.1,0.5-0.1
		c0.6,0,1.5,0.4,2.2,0.9c0.8,0.6,1.1,1,1.1,1.6c0,0.4-0.1,0.5-0.4,1.1c-1.1,1.8-2,5.7-2,8.3c0,0.3,0,0.5,0,1h0.1
		c0.8-3.6,1.9-5.9,3.2-7.3c1-1.1,2.2-1.7,3.4-1.7c2.7,0,4.6,3.3,4.6,8c0,3.6-1,6.7-3.1,9.2c-1.7,2-3.5,3.4-6.2,4.4L208.1,327.7z"/>
	<path class="st0" d="M198.4,345.3c3.4,1.2,4.1,1.7,4.1,2.9c0,0.8-0.5,1.7-0.9,1.7c-0.2,0-0.3-0.1-0.8-1c-0.3-0.5-0.9-1.4-1.5-2.1
		c-0.3-0.4-0.6-0.7-1.2-1.2L198.4,345.3z M198.5,355.7c0.2,0,0.4,0.1,0.4,0.1c0.6,0.1,0.8,0.1,0.9,0.1c0.6,0,0.8-0.3,1.4-1.5
		c0.5-1,2.2-4.6,2.5-5.2c1.6-3.5,1.6-3.5,2.1-4.5l0.4,0.2l-3.8,10.8c-0.3,0.9-0.3,0.9-0.3,1.3c0,0.3,0,0.4,0.3,1.6
		c0.4,1.4,0.4,1.8,0.4,2.8c0,0.9-0.3,1.6-0.9,2c-0.4,0.3-1,0.5-1.3,0.5c-0.3,0-0.6-0.3-0.6-0.6c0-0.3,0-0.3,0.4-2
		c0.2-1,0.3-1.8,0.3-2.7c0-0.8-0.1-1.2-0.5-1.6c-0.3-0.3-0.5-0.4-1.9-0.9L198.5,355.7z M200.2,339.5c1.5,0.5,3.2,1.3,3.7,1.8
		c0.5,0.4,0.6,0.6,0.6,1.2c0,0.4-0.1,0.9-0.4,1.3c-0.1,0.2-0.3,0.3-0.4,0.3c-0.2,0-0.4-0.1-0.6-0.5c-0.8-1.4-1.8-2.7-3.1-3.8
		L200.2,339.5z M205.9,354.3c0-1.1,0-1.6-0.1-2.7c1,0.4,1.3,0.6,2.4,1.1h11.2c0.5-0.6,0.6-0.7,1.1-1.2c0.8,0.5,1,0.6,1.7,1.2
		c0.2,0.2,0.3,0.3,0.3,0.4c0,0.2-0.1,0.3-1,0.8v8.5h0.1c0.5-0.8,0.7-1,1.3-1.7c0.8,0.8,1,1.1,1.7,2c0.1,0.1,0.1,0.2,0.1,0.3
		s-0.1,0.2-0.3,0.2h-19.2c-0.4,0-1.2,0.1-1.7,0.1l-0.1-0.9c0.6,0.1,1.4,0.2,1.8,0.2h0.7V354.3z M209.5,350.3
		C209.5,350.4,209.5,350.4,209.5,350.3c0,0.4-0.3,0.5-1.4,0.5c-0.3,0-0.4-0.1-0.4-0.3c0,0,0-0.1,0-0.1c0-1.3,0-1.3,0.1-3.2
		c0-1.1,0-2.5,0.1-4.1c0-1.1-0.1-2.7-0.2-3.8c1,0.5,1.3,0.7,2.2,1.3h8.1l1.1-1.2c0.7,0.5,0.9,0.7,1.5,1.2c0.2,0.2,0.3,0.3,0.3,0.4
		c0,0.2-0.2,0.3-0.9,0.6c0,0.8,0,1.3,0,1.7v3.2l0,2.1v1.5c0,0.3-0.2,0.4-0.9,0.5c-0.3,0-0.4,0-0.5,0s-0.1,0-0.1,0
		c-0.3,0-0.4-0.1-0.4-0.3c0,0,0-0.1,0-0.1v-0.7h-8.6V350.3z M210.6,353.4h-2.9v9h2.9V353.4z M218.1,341.3h-8.6v3.4h8.6V341.3z
		 M209.5,345.3v3.7h8.6v-3.7H209.5z M215.3,353.4h-3v9h3V353.4z M219.7,362.4v-9h-2.8v9H219.7z"/>
	<path class="st0" d="M199.5,390.1c0.9,0.2,1.2,0.2,2.7,0.2h4.4c0.5-0.5,0.6-0.7,1.1-1.2c0.7,0.6,0.9,0.8,1.6,1.3
		c0.2,0.2,0.3,0.3,0.3,0.4c0,0.2-0.2,0.3-1,0.5c-1.5,2.4-2.9,4-5.2,5.7c-1.7,1.3-3.1,2-5.3,2.8l-0.2-0.3c2.3-1.3,3.7-2.4,5.3-4
		c1.6-1.6,2.5-2.8,3.3-4.6h-4.5c-1.2,0-1.7,0-2.4,0.1L199.5,390.1z M212.4,386.9c0.2,1.2,0.4,1.7,0.9,2.7c0.5,0.9,1,1.6,1.7,2.4
		c2-1.4,4.2-3.4,5.2-4.6c2.2,1.3,2.5,1.5,2.5,1.7c0,0.2-0.2,0.3-0.5,0.3c-0.1,0-0.5,0-1-0.1c-1.5,1-3.9,2.2-5.9,3
		c0.9,1,1.8,1.7,3,2.4c2,1.2,3.6,1.8,6.2,2.3v0.4c-0.7,0.2-0.9,0.3-1.4,0.7c-0.4,0.4-0.6,0.6-0.8,1.2c-1.6-0.6-2.3-1-3.8-2.1
		c-2.3-1.7-3.5-3.1-4.9-5.5c-0.8-1.4-1.1-2.1-1.6-3.6c0.1,1.8,0.2,4.1,0.2,5.3c0,0.2,0,0.3,0,0.4v1.7c0,0.3,0,0.8,0,1.7
		c0,0.3,0,0.8,0,1.4c0,1.3-0.5,1.7-3.2,2.4c-0.3-1.4-0.9-1.8-3.7-2v-0.4c2.2,0.1,2.8,0.1,4.6,0.1c0.3,0,0.4-0.1,0.4-0.3v-11.4h-5.7
		v0.9c0,0.4-0.2,0.4-1.5,0.4c-0.3,0-0.4-0.1-0.4-0.3c0.1-2.2,0.1-4.4,0.1-7.3c0-1.7,0-2.5-0.1-3.9c1,0.5,1.3,0.7,2.3,1.3h4.2
		c0.4-1,0.7-2.3,0.7-3.4c2.5,0.6,2.5,0.6,2.8,0.7c0.2,0.1,0.3,0.2,0.3,0.3c0,0.3-0.3,0.4-1.4,0.5c-0.6,0.8-0.9,1-1.8,1.8h7.1
		l1.1-1.3c0.8,0.6,1,0.7,1.7,1.3c0.2,0.2,0.3,0.3,0.3,0.4c0,0.3-0.2,0.4-1.1,0.7v2.9c0,2.2,0,2.8,0.1,4.8c0,0.3-0.1,0.4-0.3,0.5
		c-0.2,0.1-0.8,0.1-1.2,0.1c-0.3,0-0.4-0.1-0.4-0.3v-0.5H212.4z M217.5,382.2v-3.4h-12.7v3.4H217.5z M204.8,382.8v3.4h12.7v-3.4
		H204.8z"/>
</g>
<g>
	<g>
		<path class="st0" d="M130,123.7c0-1.3,0-1.8-0.1-3c0.6,0.4,0.8,0.5,1.4,0.9h7.5c0.3-0.4,0.4-0.5,0.7-0.8c0.5,0.3,0.7,0.5,1.2,0.8
			c0.1,0.1,0.2,0.2,0.2,0.2c0,0.1-0.2,0.3-0.6,0.5l0,5.7c0,1.4,0,3.9,0.1,7.5c0,0,0,0.1,0,0.1c0,0.1-0.1,0.2-0.1,0.2
			c-0.1,0.1-0.6,0.1-1,0.1c-0.3,0-0.3,0-0.3-0.1c0,0,0,0,0,0v-1.2h-7.8v1.2c0,0.1,0,0.1-0.1,0.2c-0.1,0.1-0.6,0.2-1.1,0.2
			c-0.2,0-0.3-0.1-0.3-0.2c0.1-1.6,0.1-1.9,0.1-5.7L130,123.7z M139.1,122h-7.8v5.7h7.8V122z M131.3,128.1v6h7.8v-6H131.3z"/>
		<path class="st0" d="M140.4,144.6c0.5-0.6,0.6-0.8,1-1.3c0.8,0.6,1,0.8,1.8,1.4c0.1,0.1,0.1,0.1,0.1,0.2c0,0.1-0.1,0.1-0.2,0.1
			h-7.3c0.5,1.2,1,2,2.1,3.3c1.3,1.5,2.6,2.7,3.7,3.5c0.6,0.4,1.1,0.7,2.2,1.1v0.2c-0.7,0.1-1.1,0.4-1.5,1.1c-1.6-1.2-2.7-2.3-4-4.1
			c-1.1-1.5-1.8-2.7-2.6-4.7l0,4.1v3.3h1.8c0.4-0.6,0.6-0.7,1-1.2c0.7,0.5,1,0.7,1.6,1.4c0,0.1,0.1,0.1,0.1,0.1
			c0,0.1-0.1,0.1-0.2,0.1h-4.3v0.3c0.1,2.6,0.1,2.7,0.1,3.6c0,0.1-0.1,0.2-0.1,0.2c-0.1,0-0.7,0.1-0.9,0.1c-0.2,0-0.3-0.1-0.3-0.2
			l0-1c0-0.7,0-1.2,0-1.4c0-0.7,0-1.2,0-1.2v-0.2h-2.7c-0.7,0-1,0-1.4,0.1l-0.1-0.7c0.4,0.1,1,0.1,1.4,0.1h2.7v-3.3l0-3.2
			c-0.5,1.2-0.8,1.6-1.6,2.6c-1.1,1.4-2.8,3.1-4.1,4.2c-0.8,0.6-1.2,0.8-2.2,1.4l-0.1-0.2c2.1-1.6,3.4-3,5.1-5.2
			c1.1-1.5,1.6-2.4,2.4-4.1h-5.6c-0.4,0-0.8,0-1.2,0.1l-0.1-0.7c0.3,0.1,1,0.2,1.2,0.2h6.1v-2.1c0-0.8,0-1-0.1-1.7
			c0.4,0.1,0.7,0.1,1,0.1c0.9,0.1,1.1,0.2,1.1,0.4s-0.1,0.2-0.8,0.5v2.8H140.4z"/>
		<path class="st0" d="M140.3,163.7l1-1.3c0.8,0.6,1,0.8,1.8,1.4c0.1,0.1,0.1,0.1,0.1,0.2c0,0.1-0.1,0.1-0.2,0.1h-13.4
			c0,5.4-0.1,6.4-0.4,8.2c-0.3,1.5-0.7,2.8-1.3,3.9c-0.3,0.6-0.6,1-1.2,1.7l-0.2-0.2c1.4-2.6,1.9-5.1,1.9-10.4
			c0-1.9-0.1-3.3-0.1-4.6c0.7,0.4,0.9,0.5,1.5,0.9h4.9v-1c0-0.3,0-0.5-0.1-1.1c1.7,0.2,2.1,0.3,2.1,0.5c0,0.1-0.2,0.3-0.7,0.4v1.2
			H140.3z M135.2,170.5c-0.1,0.1-0.2,0.1-0.6,0.3c-0.5,1.7-1,2.9-2,4.1c0.8,0.7,1.5,1.1,2.6,1.3c1.2,0.3,2.4,0.3,4.6,0.3
			c1.1,0,2.1-0.1,3.7-0.2v0.2c-0.5,0.1-0.6,0.1-0.9,1.2c-1.4,0-1.5,0-2.1,0c-2.8,0-4.3-0.1-5.6-0.6c-1.1-0.4-2-0.9-2.7-1.8
			c-1.1,1.1-2.1,1.8-3.8,2.4l-0.1-0.3c1.5-0.9,2.4-1.7,3.4-2.9c-0.5-0.7-0.5-0.9-1-2.4c-0.1-0.3-0.1-0.3-0.2-0.5l0.7-0.2
			c0,0.1,0,0.2,0,0.3c0,0.6,0.3,1.4,1,2.2c0.8-1.2,1.2-2.4,1.5-3.9H132c-0.1,0.3-0.2,0.4-0.4,0.7c-0.1,0.1-0.1,0.1-0.5,0.1
			c-0.5,0-0.7-0.1-0.7-0.2c0,0,0-0.1,0.1-0.1c0.4-0.6,0.4-0.7,1-1.9c0.6-1.4,0.7-1.5,1-2.4h-1.4c-0.6,0-0.7,0-1.1,0.1l-0.1-0.6
			c0.4,0.1,0.7,0.1,1.2,0.1h1.3c0.3-0.3,0.4-0.5,0.7-0.8c0.5,0.3,0.6,0.5,1.1,0.8c0.1,0.1,0.2,0.2,0.2,0.2c0,0.1-0.1,0.2-0.6,0.4
			c-0.5,1.1-0.5,1.1-1.5,3.2h1.3c0.3-0.3,0.4-0.3,0.6-0.6c0.5,0.4,0.6,0.5,1,0.9l0,0h2.6v-2.8c-1.3,0.3-1.9,0.4-3.5,0.6l-0.1-0.3
			c3.6-0.9,5.6-1.7,6.9-2.8c0.5,0.3,1.2,0.8,1.5,1c0.1,0.1,0.1,0.1,0.1,0.2c0,0.1-0.1,0.2-0.2,0.2c-0.2,0-0.5-0.1-0.8-0.1
			c-1.1,0.5-1.7,0.7-2.8,1v3h1.8c0.5-0.6,0.6-0.8,1-1.3c0.7,0.6,0.9,0.8,1.5,1.4c0.1,0.1,0.1,0.1,0.1,0.2c0,0.1-0.1,0.1-0.2,0.1
			h-4.2v3.7h1.4c0.5-0.6,0.5-0.6,1-1.2c0.7,0.6,0.9,0.7,1.4,1.3c0.1,0.1,0.1,0.1,0.1,0.2c0,0.1-0.1,0.1-0.3,0.1h-6.7
			c-0.6,0-0.9,0-1.4,0.1l-0.1-0.7c0.5,0.1,1,0.2,1.5,0.2h1.9v-3.7H135.2z"/>
		<path class="st0" d="M129,198.7c0,0.2-0.2,0.3-0.9,0.3c-0.2,0-0.3-0.1-0.3-0.2c0.1-1.7,0.1-3.5,0.1-10.8c0-0.8,0-3.3-0.1-5
			c0.6,0.4,0.8,0.5,1.4,0.9H141c0.4-0.4,0.5-0.5,0.8-0.9c0.5,0.4,0.6,0.5,1.1,0.9c0.1,0.1,0.2,0.2,0.2,0.3c0,0.1-0.1,0.2-0.7,0.6
			v3.6c0,0.3,0,6,0,6.6c0,1.8,0,1.9,0.1,3.5c0,0.2-0.1,0.2-0.2,0.3c-0.1,0.1-0.5,0.1-0.7,0.1c-0.3,0-0.4-0.1-0.4-0.2V198H129V198.7z
			 M129,197.6h12.2v-13.4H129V197.6z M135.5,193.3c0.9,0.4,0.9,0.4,1.5,0.6c0.6-0.3,0.8-0.4,1.3-0.8c0.7-0.5,0.9-0.7,1.2-1.1
			c0.6,0.5,1,1,1,1.1c0,0.1-0.1,0.1-0.2,0.1c-0.1,0-0.1,0-0.5-0.1c-0.9,0.5-1.4,0.7-2.5,1c1.1,0.5,1.7,0.9,2.1,1.2
			c0.4,0.3,0.5,0.5,0.5,0.9c0,0.3-0.2,0.6-0.3,0.6c-0.1,0-0.2-0.1-0.5-0.4c-0.7-0.7-2-1.8-2.8-2.3c-0.3-0.2-0.5-0.3-0.9-0.5v0.8
			c0,0.5,0,0.9,0,1.3c0,0.5,0,0.5,0,0.9c0,0,0,0.1,0,0.1c0,0.3-0.2,0.3-0.9,0.3c-0.2,0-0.2-0.1-0.2-0.2c0.1-1,0.1-2.2,0.1-2.4v-1.1
			c-1.7,1.7-2.9,2.5-5,3.3l-0.1-0.3c1.2-0.6,2.2-1.3,3.3-2.3c0.6-0.6,0.9-0.8,1.6-1.8h-1.9v0.4c0,0.2-0.1,0.3-0.5,0.3c0,0,0,0-0.1,0
			c0,0,0,0-0.1,0c-0.1,0-0.2,0-0.2,0h0c-0.1,0-0.2-0.1-0.2-0.3c0.1-0.9,0.1-1.4,0.1-2c0-0.2,0-0.7-0.1-1.7c0.5,0.3,0.7,0.4,1.2,0.7
			h5.1c0.3-0.3,0.4-0.4,0.6-0.6c0.3,0.3,0.5,0.3,0.8,0.6c0.1,0.1,0.2,0.2,0.2,0.2c0,0.1-0.1,0.2-0.5,0.3c0,0.2,0,0.4,0,0.5
			c0,0.3,0,0.5,0,0.6c0,0.3,0,0.5,0,0.9c0,0.3-0.1,0.3-0.5,0.4c-0.1,0-0.2,0-0.3,0c0,0,0,0,0,0c-0.1,0-0.2-0.1-0.2-0.2v-0.2h-2.1
			V193.3z M137.7,186.2c0.4-0.4,0.5-0.6,0.9-1c0.6,0.4,0.8,0.6,1.3,1.1c0.1,0.1,0.1,0.1,0.1,0.2c0,0.1-0.1,0.1-0.2,0.1h-4.3v1.6h3.2
			c0.4-0.5,0.5-0.6,0.9-1c0.6,0.5,0.8,0.6,1.3,1.1c0.1,0.1,0.1,0.1,0.1,0.2c0,0.1-0.1,0.2-0.2,0.2h-9.5c-0.7,0-0.9,0-1.5,0.1
			l-0.1-0.7c0.5,0.1,1,0.2,1.7,0.2h3.2v-1.6h-2.3c-0.6,0-0.8,0-1.5,0.1l-0.1-0.7c0.6,0.1,1.1,0.2,1.8,0.2h2.1V186
			c0-0.4,0-0.7-0.1-1.3c0.7,0.1,1.4,0.1,1.6,0.2c0.1,0,0.2,0.1,0.2,0.2c0,0.2-0.1,0.2-0.6,0.3v0.8H137.7z M132.3,192h5.4v-1.7h-5.4
			V192z"/>
		<path class="st0" d="M129,206.7c0.9,0.7,1.3,0.8,2.3,0.8c0.6,0,1.1-0.1,1.9-0.2c0.4-0.8,0.6-1.4,0.6-1.8c0-0.5-0.3-0.8-1.3-1
			c0.3-0.2,0.5-0.2,0.8-0.2c0.4,0,0.9,0.1,1.4,0.3c0.5,0.2,0.6,0.4,0.6,0.6c0,0.1-0.1,0.3-0.3,0.5c-0.2,0.2-0.4,0.5-0.5,0.7
			c-0.3,0.5-0.3,0.5-0.5,0.7c1.5-0.4,2-0.6,2.6-1.2c0.1-0.1,0.2-0.1,0.3-0.1c0.7,0,1.2,0.3,1.2,0.6c0,0.2-0.2,0.4-0.8,0.6
			c-1.6,0.5-2.5,0.7-3.9,1c-0.3,0.4-0.5,0.8-1,1.4c-0.5,0.8-0.6,1-1,1.4c1-0.5,1.6-0.7,2.3-0.7c1.1,0,1.9,0.7,2,1.8
			c0.3-0.1,0.3-0.1,1.8-0.9c1.8-0.9,2.2-1.2,2.2-1.5c0-0.3-0.3-0.6-0.8-0.8c0.2-0.1,0.3-0.1,0.4-0.1c0.8,0,2,1.1,2,1.8
			c0,0.3-0.1,0.4-0.6,0.6c-1.1,0.3-3.4,1.2-4.8,1.9c0,0.6,0,0.7,0,1.5c0,0.8-0.1,1.4-0.1,1.5c-0.1,0.2-0.3,0.3-0.5,0.3
			c-0.3,0-0.6-0.2-0.6-0.5c0-0.1,0-0.2,0-0.3c0.1-0.5,0.1-1.1,0.1-1.9c-1.1,0.6-1.6,1-2.1,1.4c-0.6,0.6-0.9,1.1-0.9,1.7
			c0,1,1,1.4,3,1.4c1.3,0,2.5-0.2,3.6-0.5c0.1,0,0.3-0.1,0.3-0.1c0.6,0,1.3,0.5,1.3,0.9c0,0.2-0.2,0.4-0.6,0.5
			c-0.7,0.1-2.1,0.3-3.2,0.3c-1.7,0-2.9-0.2-3.7-0.5c-0.9-0.4-1.3-1-1.3-1.9c0-0.8,0.4-1.6,1.3-2.5c0.5-0.5,1-0.9,2.2-1.6
			c0-0.8-0.1-1-0.3-1.4c-0.2-0.3-0.5-0.5-0.9-0.5c-1.2,0-2.6,1-3.9,2.6c-0.3,0.5-0.5,0.6-0.7,0.6c-0.3,0-0.5-0.4-0.5-1
			c0-0.4,0-0.4,0.5-0.8c1.3-1,2.1-1.9,3.3-3.9c-0.6,0.1-0.8,0.1-1.2,0.1c-1.2,0-1.9-0.3-2.7-1.4L129,206.7z"/>
		<path class="st0" d="M128.8,240c0,0.3-0.2,0.3-0.8,0.3c-0.4,0-0.5,0-0.5-0.2c0.1-2.7,0.1-4.6,0.1-7.9c0-4.3,0-6.4-0.1-7.4
			c0.6,0.4,0.8,0.5,1.4,0.9h1.6c0.3-0.3,0.4-0.4,0.7-0.8c0.4,0.3,0.6,0.4,1,0.8c0.1,0.1,0.2,0.2,0.2,0.2c0,0.1-0.1,0.2-0.5,0.4
			l0,5.9c0,4,0,5.4,0,6.9c0,0.3-0.1,0.3-0.8,0.3c-0.3,0-0.3,0-0.3-0.2v-0.8h-1.8V240z M130.6,226h-1.8v3.5h1.8V226z M128.8,230v3.6
			h1.8V230H128.8z M128.8,234v3.9h1.8V234H128.8z M130.9,240.8c1.9-1.1,2.7-2,3.4-3.4c0.5-1.1,0.8-2.1,0.8-3.7
			c-0.6,0.5-1.3,1-2.2,1.6c-0.1,0.7-0.1,0.8-0.3,0.8c-0.2,0-0.2,0-0.8-1.9c0.9-0.1,2.2-0.5,3.3-1c0-1.5,0-2.6,0-4.1
			c0-2.9,0-3.5-0.1-4.2c1.8,0.2,1.9,0.3,1.9,0.4c0,0.1-0.2,0.2-0.7,0.4c0,0.3,0,1.7,0,1.9c0,0.7-0.1,5-0.1,5.5
			c-0.1,2.6-0.5,4-1.5,5.3c-0.9,1.1-2,1.9-3.8,2.7L130.9,240.8z M132.4,227.4c1.3,1,2.2,2,2.2,2.6c0,0.5-0.4,1.2-0.7,1.2
			c-0.2,0-0.2-0.1-0.4-0.8c-0.3-1.1-0.6-1.8-1.3-2.9L132.4,227.4z M139.3,230.2c1.1-1.2,1.8-2.3,2.2-3.2c1.4,0.6,1.8,0.8,1.8,1
			c0,0.2-0.3,0.2-0.9,0.2c-1.4,1.3-1.9,1.7-3,2.4v1.9c0.7,0.2,1.8,0.7,2.3,0.9c0.4,0.2,0.8,0.5,0.9,0.7c0.1,0.1,0.2,0.4,0.2,0.8
			c0,0.5-0.2,0.9-0.4,0.9c-0.1,0-0.2-0.1-0.4-0.3c-0.7-1-1.5-1.9-2.5-2.6v5.9c0,0.5,0,0.5,0.6,0.5c0.1,0,0.3,0,0.6,0
			c0.1,0,0.2,0,0.2,0c0.9,0,1.1,0,1.2-0.3c0.1-0.2,0.2-0.5,0.8-3.2l0.3,0l-0.1,2.7c0,0,0,0.1,0,0.1c0,0.2,0,0.3,0.2,0.4
			c0.4,0.2,0.4,0.3,0.4,0.5c0,0.5-0.7,0.7-2.7,0.7c-1.9,0-2.2,0-2.4-0.2c-0.3-0.2-0.4-0.4-0.4-1c0-1.5,0-1.7,0-2.1v-10.6
			c0-0.9,0-1.2-0.1-1.8c1.9,0.3,2,0.3,2,0.5c0,0.1-0.1,0.2-0.7,0.4V230.2z"/>
		<path class="st0" d="M130.1,247.7c0.7,0.5,1.1,1,1.4,1.5c0.2,0.3,0.4,1,0.6,1.9c1.2-0.7,2.2-0.9,3.8-1.1c0.2-0.9,0.3-1.6,0.3-2.1
			c0-0.5-0.2-0.6-0.8-0.6c-0.1,0-0.2,0-0.3,0l-0.1-0.2c0.5-0.2,0.9-0.3,1.2-0.3c0.7,0,1.4,0.6,1.4,1.1c0,0.3-0.3,1.4-0.5,2.1
			c3,0.1,5,2.1,5,4.8c0,2-1.2,3.7-3.3,4.8c-1.1,0.6-2.1,0.9-3.5,1l-0.1-0.3c1.5-0.5,2.5-1,3.5-1.8c1.3-1.1,2-2.6,2-4.1
			c0-1.4-0.6-2.5-1.5-3.2c-0.6-0.5-1.3-0.6-2.3-0.7c-0.7,2-1.9,4.2-3,5.6c0.3,0.4,0.3,0.5,0.6,0.9c0.5,0.6,0.6,0.7,0.6,0.9
			c0,0.2-0.2,0.4-0.4,0.4c-0.4,0-1-0.5-1.5-1.3c-0.3,0.4-0.7,0.8-1.4,1.3c-0.6,0.5-1,0.6-1.4,0.6c-0.4,0-0.6-0.2-0.8-0.9
			c-0.2-0.6-0.2-0.7-0.5-1.2c-0.3-0.4-0.4-0.7-0.4-1.1c0-1.4,1-3,2.8-4.2c-0.3-2.1-0.5-2.6-1.4-3.7L130.1,247.7z M130.1,253.9
			c-0.4,0.7-0.6,1.4-0.6,2.1c0,0.8,0.5,1.7,0.9,1.7c0.4,0,1.3-0.6,2.2-1.5c-0.5-1.2-0.7-2-1.1-3.9
			C130.7,252.9,130.4,253.3,130.1,253.9z M133.3,255.3c1-1.4,1.8-3,2.4-4.8c-1.5,0.2-2.4,0.5-3.5,1.3
			C132.7,253.9,132.9,254.3,133.3,255.3z"/>
		<path class="st0" d="M128.5,269.9c0.9,0.8,1.4,1,2.3,1c0.5,0,1-0.1,1.6-0.2c0.5-1.2,0.6-1.9,0.6-2.6c0-0.6-0.3-1-1.2-1.4
			c0.2-0.1,0.3-0.1,0.4-0.1c0.4,0,0.9,0.2,1.4,0.4c0.6,0.3,0.8,0.5,0.8,0.8c0,0.1,0,0.3-0.2,0.5c-0.1,0.1-0.5,0.9-1.1,2.2
			c1.3-0.5,1.5-0.6,2-1c0.1-0.1,0.2-0.1,0.4-0.1c0.7,0,1.2,0.2,1.2,0.5c0,0.5-1.1,0.9-4,1.6c-0.2,0.4-0.5,1.1-1,2.2
			c-0.5,1.2-1.9,4.3-2.1,4.6c-0.3,0.5-0.4,0.6-0.6,0.6c-0.3,0-0.6-0.6-0.6-1.3c0-0.4,0-0.5,0.2-0.6c0.4-0.4,0.6-0.7,0.9-1.1
			c0.9-1.3,1.5-2.5,2.3-4.2c-0.4,0.1-0.6,0.1-0.8,0.1c-0.6,0-1.1-0.1-1.6-0.4c-0.5-0.3-1-0.7-1.3-1.3L128.5,269.9z M138,270.9
			c1.2,0.1,2.3,0.4,3.1,1c0.7,0.5,1.1,1,1.1,1.4c0,0.3-0.2,0.5-0.5,0.5c-0.1,0-0.3,0-0.4-0.1c-0.5-0.3-0.8-0.4-1.8-0.4
			c-1.4,0-1.9,0.4-1.9,1.6c0,0.5,0.1,1.3,0.4,3.1c1.1,0.3,2,0.8,2.6,1.2c0.5,0.4,0.7,0.8,0.7,1.4c0,0.4-0.1,0.6-0.4,0.6
			c-0.2,0-0.3-0.1-0.6-0.5c-0.6-0.7-1.2-1.1-2.2-1.6c0,0.1,0,0.3,0,0.3c0,0.7-0.1,1.1-0.5,1.5c-0.5,0.5-1.3,0.8-2.3,0.8
			c-1.6,0-2.7-0.8-2.7-1.9c0-1.3,1.4-2.1,3.4-2.1c0.4,0,0.6,0,1.1,0.1c-0.1-1.4-0.1-1.6-0.1-1.8c0-1.5,0.1-2,0.6-2.6
			c0.4-0.4,0.9-0.6,1.7-0.8c0.3-0.1,0.3-0.1,1-0.2c-0.5-0.5-1-0.8-2.3-1.2L138,270.9z M137,278.8c-0.6-0.2-1-0.2-1.5-0.2
			c-1.5,0-2.5,0.5-2.5,1.4c0,0.7,0.7,1.1,1.8,1.1c1.5,0,2.2-0.6,2.2-1.7V278.8z"/>
		<path class="st0" d="M130.8,299.5c1.4,0.8,2.4,1.2,2.8,1.2c0.4,0,0.7-0.4,1.2-1.5c0.6-1.5,1.1-3.5,1.1-4.8c0-0.8-0.2-1.2-0.5-1.5
			c-0.2-0.1-0.4-0.2-0.8-0.2c-0.5,0-0.8,0.1-1.9,0.4c-0.3,0.6-0.3,0.6-1,2.4c-0.1,0.2-0.5,1.1-1.1,2.5c-0.7,1.7-1.3,3-1.6,3.5
			c-0.1,0.2-0.3,0.3-0.4,0.3c-0.3,0-0.5-0.5-0.5-1.2c0-0.5,0.1-0.6,0.4-1c0.8-1,1.6-2.5,3.3-6.3c-1.2,0.4-2,0.7-2.3,0.9
			c-0.3,0.2-0.4,0.2-0.5,0.2c-0.2,0-0.6-0.2-0.8-0.5c-0.3-0.4-0.6-1-0.6-1.4c0-0.1,0-0.2,0.1-0.4c0.4,0.7,0.7,1,1.4,1
			c0.4,0,1.7-0.3,3.1-0.6c0.4-1,0.7-2.3,0.7-3c0-0.6-0.4-0.9-1.4-1.2c0.2-0.2,0.3-0.2,0.5-0.2c0.3,0,0.7,0.1,1.2,0.2
			c0.8,0.2,1.3,0.6,1.3,1c0,0.1,0,0.2-0.3,0.5c-0.3,0.6-0.6,1.2-1.2,2.4c0.8-0.2,1.1-0.2,1.6-0.2c1.5,0,2.3,0.9,2.3,2.8
			c0,2.3-0.9,5.3-2,6.4c-0.5,0.5-1.2,0.8-1.7,0.8c-0.3,0-0.5-0.1-0.5-0.4c0-0.5-0.1-0.6-2-2.1L130.8,299.5z M138.8,292.2
			c1.4,0.4,2.5,1.1,3.3,2.2c0.7,0.9,1,1.7,1,2.5c0,0.6-0.3,1-0.7,1c-0.1,0-0.2,0-0.4-0.1c-0.3-0.2-0.4-0.2-0.7-0.2
			c-0.6,0-0.7,0-2.3,0.2l-0.1-0.2c1.8-0.5,2.2-0.7,2.8-0.9c-0.2-1.7-1.4-3.4-3-4.1L138.8,292.2z M139.4,288.6
			c0.7,0.4,1.2,0.7,1.6,1.1c0.6,0.6,0.9,1,0.9,1.4s-0.3,0.8-0.6,0.8c-0.2,0-0.2,0-0.8-1.2c-0.3-0.6-0.9-1.4-1.4-1.9L139.4,288.6z
			 M141.3,287.6c0.6,0.3,1.2,0.6,1.7,1c0.7,0.5,0.9,0.9,0.9,1.4c0,0.4-0.2,0.7-0.5,0.7c-0.2,0-0.3-0.1-0.4-0.3c-0.6-1.1-1-1.6-2-2.6
			L141.3,287.6z"/>
		<path class="st0" d="M132.9,308.5c0.6,0.9,1.1,1.2,2.3,1.6c0.3,0.1,0.9,0.3,1.3,0.3c0.3,0.1,0.5,0.2,0.7,0.4
			c0.3,0.3,0.4,0.6,0.4,0.8s-0.2,0.4-0.4,0.4c-0.1,0-0.1,0-0.4-0.1c-0.3,0-0.5-0.1-0.9-0.1c-0.9,0-2.3,0.2-3.4,0.5
			c-0.5,0.1-0.7,0.2-0.8,0.3c-0.1,0.1-0.2,0.3-0.2,0.5c0,0.1,0,0.3,0.1,0.5c0.1,0.3,0.1,0.4,0.1,0.6c0,0.1,0,0.3-0.1,0.6
			c-0.1,1-0.3,2.4-0.3,3.7c2.2-1.5,4.2-2.2,5.9-2.2c2,0,3.4,1.2,3.4,2.8c0,1.7-1.3,3.1-3.5,3.8c-1.2,0.4-2.4,0.6-4.1,0.7l-0.1-0.3
			c2.1-0.3,3.3-0.8,4.5-1.6c1.2-0.9,1.8-1.8,1.8-2.9c0-1.2-0.9-2-2.2-2c-1.3,0-2.9,0.7-4.3,2c-0.5,0.4-0.7,0.7-1,1.1
			c-0.2,0.3-0.3,0.4-0.5,0.4c-0.3,0-0.5-0.2-0.8-0.6c-0.2-0.4-0.4-0.7-0.4-0.9c0,0,0-0.2,0.1-0.3c0.1-0.3,0.1-0.4,0.2-1.1
			c0-0.4,0.1-0.9,0.2-1.5c0.3-1.4,0.3-2,0.3-2.4c0-0.6,0.1-0.8,0.3-1c0.3-0.3,0.8-0.5,1.9-0.8c1.5-0.4,1.5-0.4,2.1-0.7
			c-0.7-0.3-1.2-0.6-1.6-1c-0.4-0.4-0.6-0.7-0.9-1.4L132.9,308.5z"/>
		<path class="st0" d="M139.2,329.1c1.4,0.5,2.8,1.2,3.5,1.7c0.7,0.5,1,0.9,1,1.6c0,0.6-0.3,1.2-0.7,1.2c0,0-0.2-0.1-0.2-0.1
			c-0.1-0.1-0.1-0.1-0.9-1.3c-0.6-0.9-1.6-1.9-2.8-2.9L139.2,329.1z"/>
		<path class="st0" d="M91.1,136c1.4-1.1,1.9-1.8,2.6-3.2c-0.8-0.3-1.5-0.7-2.1-1.4c-0.8-1-1.2-2.4-1.2-4.1c0-0.1,0-0.3,0-0.7
			c-1.4,1.6-2.4,3.6-2.4,5c0,0.1,0,0.2,0,0.3c0,0.1,0,0.2,0,0.3c0,0.3-0.2,0.5-0.5,0.5c-0.6,0-1.1-1.5-1.1-3.6c0-0.9,0.1-1.7,0.2-3
			c0.1-0.8,0.1-1.1,0.1-1.4c0-0.6-0.3-1.2-0.7-1.6c0.4,0,0.6,0.1,1,0.5c0.6,0.5,1,1.1,1,1.5c0,0.2,0,0.3-0.2,0.7
			c-0.4,0.9-0.7,2.3-0.7,3.5c0,0.3,0,0.5,0.1,1c1.1-2.1,1.7-3,3-4.3c0.2-1.8,0.6-2.9,1.3-3.7c0.4-0.5,0.9-0.8,1.5-0.8
			c0.5,0,1.1,0.3,1.4,0.6c0.4,0.4,0.6,0.8,0.9,1.6c0.1,0,0.2,0,0.3,0c1,0,2,0.3,2.8,0.9c1.2,0.8,1.8,2.1,1.8,3.5c0,2.8-2.3,5-5.2,5
			c-0.1,0-0.3,0-0.6,0c-1.1,1.7-2,2.5-3.5,3.2L91.1,136z M91,126.1c0,0.4,0,0.7,0,0.9c0,1.7,0.5,3.2,1.4,4c0.5,0.5,1,0.8,1.7,1
			c0.5-1.6,0.7-3.3,0.7-5.4c0-1,0-1.6-0.2-2.3C93.2,124.5,92.1,125,91,126.1z M94.6,123.8c-0.3-1.4-0.8-1.9-1.5-1.9
			c-1,0-1.7,1.3-2.1,3.6C92.2,124.5,93.3,124,94.6,123.8z M96.1,127.1c0,1.9-0.3,3.5-0.9,5c2.4,0,4.1-1.8,4.1-4.3
			c0-1.4-0.5-2.6-1.5-3.2c-0.6-0.4-1.1-0.5-2-0.6C96,125.3,96.1,126.1,96.1,127.1z"/>
		<path class="st0" d="M93.3,153.1c2.3-0.5,3.7-1.1,5-2.2c1-0.8,1.5-1.8,1.5-2.9c0-1.6-1.1-2.6-2.7-2.6c-1.7,0-4.1,1-6,2.5
			c-0.3,0.3-0.5,0.3-0.7,0.3c-0.7,0-1.7-1.3-1.7-2.1c0-0.1,0-0.2,0.1-0.4c0.3,0.6,0.7,1,1.1,1c0.2,0,0.7-0.1,1.6-0.5
			c1.6-0.6,3.1-1.1,4.1-1.3c0.4-0.1,0.8-0.1,1.4-0.1c2.4,0,4,1.4,4,3.5c0,1.3-0.8,2.6-1.9,3.4c-1.4,1-3,1.5-5.7,1.8L93.3,153.1z"/>
		<path class="st0" d="M86.1,166.3c0.7,0.8,1.2,1,2,1c0.7,0,1.5-0.1,2.3-0.3c0.4-1.2,0.6-2.4,0.6-3c0-0.6-0.3-0.8-1.3-1.1
			c0.2-0.1,0.3-0.2,0.6-0.2c0.4,0,1,0.1,1.5,0.3c0.5,0.2,0.8,0.5,0.8,0.7c0,0.1,0,0.1-0.2,0.4c-0.2,0.3-0.6,1.3-1.1,2.6
			c1-0.4,1.7-0.7,2.1-1.1c0.3-0.3,0.4-0.3,0.5-0.3c0.2,0,0.7,0.1,1,0.2c0.2,0.1,0.3,0.2,0.3,0.3c0,0.3-0.3,0.5-1,0.9
			c-0.8,0.4-2,0.8-3.2,1c-0.2,0.6-0.2,0.6-0.8,2.3c-0.4,1.1-0.4,1.1-1.4,4c-0.7,2.1-1,2.6-1.3,2.6c-0.2,0-0.3-0.1-0.4-0.4
			c-0.1-0.3-0.3-0.7-0.3-1c0-0.3,0-0.3,0.4-0.9c0.9-1.3,1.6-2.9,2.8-6.4c-0.7,0.1-1.2,0.2-1.7,0.2c-1.1,0-1.8-0.5-2.5-1.6
			L86.1,166.3z M93.2,172.5c0,0.3,0,0.5,0,0.6c0,1,0.5,1.8,1.4,2.2c0.5,0.2,1.2,0.3,1.9,0.3c0.7,0,1.2-0.1,1.7-0.3
			c0.1-0.1,0.2-0.1,0.3-0.1c0.2,0,0.6,0.2,0.9,0.4c0.2,0.2,0.3,0.3,0.3,0.5c0,0.4-0.7,0.6-2.1,0.6c-1.4,0-2.5-0.2-3.3-0.6
			c-1-0.5-1.5-1.4-1.5-2.6c0-0.4,0-0.7,0.2-1.1L93.2,172.5z M93.7,169.2c1.3-0.8,2.8-1.2,4.2-1.2c0.4,0,0.8,0.1,1.1,0.3
			c0.2,0.1,0.3,0.3,0.3,0.5c0,0.3-0.2,0.4-0.7,0.4c-0.7,0-0.9,0.1-1.4,0.4c-0.4,0.2-0.4,0.2-1,0.6c-0.3,0.2-0.3,0.2-0.6,0.4
			l-0.1-0.2c0.2-0.2,0.2-0.2,0.9-0.8c0.2-0.1,0.3-0.3,0.9-0.8c-1.2,0-2.1,0.2-3.4,0.7L93.7,169.2z"/>
		<path class="st0" d="M91.2,198.9c1.3-0.8,2.1-1.5,2.9-2.5c1.3-1.7,1.9-3.7,1.9-6.1c0-1.6-0.3-3-0.7-3.7c-0.3-0.5-0.8-0.8-1.3-0.8
			c-0.9,0-1.7,0.8-2.4,2.3c-0.5,1.2-0.8,2.6-0.8,3.9c0,0.3,0,0.5,0.1,1.1c0,0.1,0,0.3,0,0.4c0,0.3-0.2,0.5-0.5,0.5
			c-0.7,0-1.1-1.5-1.1-3.7c0-1.5,0.1-2.4,0.6-4.8c0.1-0.7,0.2-1.1,0.2-1.3c0-0.6-0.3-0.9-1-1.3c0.1-0.1,0.3-0.1,0.3-0.1
			c0.4,0,1,0.2,1.4,0.6c0.5,0.4,0.7,0.6,0.7,1c0,0.2,0,0.3-0.3,0.7c-0.7,1.1-1.3,3.7-1.3,5.4c0,0.2,0,0.3,0,0.7h0
			c0.5-2.3,1.2-3.8,2.1-4.7c0.7-0.7,1.4-1.1,2.2-1.1c1.7,0,3,2.1,3,5.1c0,2.3-0.6,4.3-2,5.9c-1.1,1.3-2.3,2.2-4,2.8L91.2,198.9z"/>
		<path class="st0" d="M90.5,204.4c0.5,0,1.4,0.2,1.8,0.3c0.4,0.1,0.5,0.3,0.5,0.6c0,0,0,0,0,0c0,0.1,0,0.1-0.1,0.5
			c-0.2,0.6-0.4,2.2-0.4,3.7c0,1.1,0.1,1.3,0.7,1.3c0.4,0,0.8-0.1,2.4-0.9c0.3-0.2,0.5-0.2,0.7-0.2c0.4,0,0.9,0.4,0.9,0.8
			c0,0.2-0.1,0.4-0.4,0.5c-0.1,0.1-0.4,0.1-1.2,0.4c-2.2,0.6-3.4,1.2-4.5,2c-1,0.8-1.4,1.5-1.4,2.3c0,1.3,1,2,3,2
			c1.1,0,2.9-0.2,4.2-0.5c0.2,0,0.3-0.1,0.4-0.1c0.5,0,1,0.5,1,0.9c0,0.3-0.2,0.5-0.8,0.6s-2.4,0.2-3.5,0.2c-1.3,0-2.3-0.1-3.1-0.4
			c-1.2-0.5-2-1.5-2-2.7c0-1,0.6-2,1.8-3c0.5-0.5,1.1-0.9,2.2-1.4c-0.4,0-0.6-0.1-0.9-0.3c-0.3-0.2-0.4-0.6-0.5-1.4
			c-0.1-0.4-0.1-0.8-0.1-2.2c-0.1-1.5-0.1-1.8-0.2-2.1c-0.2-0.3-0.5-0.5-1.3-0.6C90,204.4,90.1,204.4,90.5,204.4z"/>
		<path class="st0" d="M99.3,236.3c-1.7,2.3-4.1,3.7-6.3,3.7c-1.4,0-2.4-0.6-3-1.5c-0.4-0.6-0.5-1.5-0.5-3c0-1,0.1-2.7,0.1-4.3
			c0.1-1.9,0.1-2.4,0.1-3.1c0-1.5-0.2-1.9-1.5-2.4c0.2-0.1,0.3-0.2,0.5-0.2c0.4,0,1.1,0.2,1.6,0.4c0.7,0.3,1,0.7,1,1.1
			c0,0.1,0,0.2-0.2,0.6c-0.3,1.1-0.9,6.5-0.9,8.6c0,1.1,0.2,1.7,0.7,2.2c0.4,0.3,1,0.5,1.6,0.5c1.2,0,2.7-0.4,4.1-1.2
			c0.8-0.4,1.4-0.8,2.3-1.6L99.3,236.3z"/>
		<path class="st0" d="M86.1,249.8c0.7,0.8,1.2,1,2,1c0.7,0,1.5-0.1,2.3-0.3c0.4-1.2,0.6-2.4,0.6-3c0-0.6-0.3-0.8-1.3-1.1
			c0.2-0.1,0.3-0.2,0.6-0.2c0.4,0,1,0.1,1.5,0.3c0.5,0.2,0.8,0.5,0.8,0.7c0,0.1,0,0.1-0.2,0.4c-0.2,0.3-0.6,1.3-1.1,2.6
			c1-0.4,1.7-0.7,2.1-1.1c0.3-0.3,0.4-0.3,0.5-0.3c0.2,0,0.7,0.1,1,0.2c0.2,0.1,0.3,0.2,0.3,0.3c0,0.3-0.3,0.5-1,0.9
			c-0.8,0.4-2,0.8-3.2,1c-0.2,0.6-0.2,0.6-0.8,2.3c-0.4,1.1-0.4,1.1-1.4,4c-0.7,2.1-1,2.6-1.3,2.6c-0.2,0-0.3-0.1-0.4-0.4
			c-0.1-0.3-0.3-0.7-0.3-1c0-0.3,0-0.3,0.4-0.9c0.9-1.3,1.6-2.9,2.8-6.4c-0.7,0.1-1.2,0.2-1.7,0.2c-1.1,0-1.8-0.5-2.5-1.6
			L86.1,249.8z M93.2,256c0,0.3,0,0.5,0,0.6c0,1,0.5,1.8,1.4,2.2c0.5,0.2,1.2,0.3,1.9,0.3c0.7,0,1.2-0.1,1.7-0.3
			c0.1-0.1,0.2-0.1,0.3-0.1c0.2,0,0.6,0.2,0.9,0.4c0.2,0.2,0.3,0.3,0.3,0.5c0,0.4-0.7,0.6-2.1,0.6c-1.4,0-2.5-0.2-3.3-0.6
			c-1-0.5-1.5-1.4-1.5-2.6c0-0.4,0-0.7,0.2-1.1L93.2,256z M93.7,252.7c1.3-0.8,2.8-1.2,4.2-1.2c0.4,0,0.8,0.1,1.1,0.3
			c0.2,0.1,0.3,0.3,0.3,0.5c0,0.3-0.2,0.4-0.7,0.4c-0.7,0-0.9,0.1-1.4,0.4c-0.4,0.2-0.4,0.2-1,0.6c-0.3,0.2-0.3,0.2-0.6,0.4
			l-0.1-0.2c0.2-0.2,0.2-0.2,0.9-0.8c0.2-0.1,0.3-0.3,0.9-0.8c-1.2,0-2.1,0.2-3.4,0.7L93.7,252.7z"/>
		<path class="st0" d="M86.6,268.5c0.6,0.7,0.9,0.8,1.5,0.8c1.1,0,2.4-0.5,3.4-1.2c0.1-0.1,0.2-0.1,0.3-0.1c0.4,0,1,0.5,1,0.9
			c0,0.2-0.1,0.2-0.6,0.5c-0.7,0.4-1.6,1.1-2.3,2c-1.3,1.6-2,3.4-2,5.1c0,2.4,1.4,3.9,3.5,3.9c1.6,0,3.1-0.9,3.9-2.4
			c0.6-1.1,0.9-2.6,0.9-4.6c0-1.9-0.2-3.4-0.6-4.9c-0.1-0.2-0.1-0.4-0.1-0.4c0-0.2,0.1-0.3,0.3-0.3h0c0.3,0,0.6,0.2,0.9,0.5
			c0.2,0.2,0.3,0.3,0.3,0.7c0.1,0.8,0.7,2.7,1.4,4.1c0.5,1,0.9,1.7,1.4,2.2c0.3,0.3,0.5,0.9,0.5,1.5c0,0.4-0.2,0.7-0.4,0.7
			c-0.4,0-0.9-0.6-1.6-2.1c-0.7-1.5-1.2-2.8-1.9-5.2l-0.1,0c0.4,2.6,0.4,3.2,0.4,4.5c0,2.4-0.5,4.1-1.6,5.3c-0.9,1-2.2,1.5-3.5,1.5
			c-2.7,0-4.4-2-4.4-5.1c0-1.1,0.3-2.4,0.7-3.5c0.4-1.1,0.9-1.9,1.8-3.1c-0.6,0.1-1,0.2-1.4,0.2c-1,0-1.6-0.4-2.1-1.4L86.6,268.5z"
			/>
		<path class="st0" d="M90.5,287.9c0.5,0,1.4,0.2,1.8,0.3c0.4,0.1,0.5,0.3,0.5,0.6c0,0,0,0,0,0c0,0.1,0,0.1-0.1,0.5
			c-0.2,0.6-0.4,2.2-0.4,3.7c0,1.1,0.1,1.3,0.7,1.3c0.4,0,0.8-0.1,2.4-0.9c0.3-0.2,0.5-0.2,0.7-0.2c0.4,0,0.9,0.4,0.9,0.8
			c0,0.2-0.1,0.4-0.4,0.5c-0.1,0.1-0.4,0.1-1.2,0.4c-2.2,0.6-3.4,1.2-4.5,2c-1,0.8-1.4,1.5-1.4,2.3c0,1.3,1,2,3,2
			c1.1,0,2.9-0.2,4.2-0.5c0.2,0,0.3-0.1,0.4-0.1c0.5,0,1,0.5,1,0.9c0,0.3-0.2,0.5-0.8,0.6c-0.6,0.1-2.4,0.2-3.5,0.2
			c-1.3,0-2.3-0.1-3.1-0.4c-1.2-0.5-2-1.5-2-2.7c0-1,0.6-2,1.8-3c0.5-0.5,1.1-0.9,2.2-1.4c-0.4,0-0.6-0.1-0.9-0.3
			c-0.3-0.2-0.4-0.6-0.5-1.4c-0.1-0.4-0.1-0.8-0.1-2.2c-0.1-1.5-0.1-1.8-0.2-2.1c-0.2-0.3-0.5-0.5-1.3-0.6
			C90,287.9,90.1,287.9,90.5,287.9z"/>
		<path class="st0" d="M86.7,321.8c0,0.2-0.1,0.3-0.6,0.3c-0.1,0-0.2,0-0.3,0c0,0,0,0-0.1,0c-0.2,0-0.2-0.1-0.3-0.2
			c0-2.3,0.1-4.5,0.1-8.4c0-2,0-2.9-0.1-4.6c0.6,0.3,0.7,0.5,1.3,0.9h2.3c0.3-0.3,0.4-0.5,0.7-0.8c0.4,0.3,0.5,0.5,1,0.8
			c0.1,0.1,0.2,0.2,0.2,0.3c0,0.1-0.2,0.3-0.6,0.5v3.4c0,1.7,0,4.1,0,7.2c0,0.1-0.1,0.2-0.1,0.2c-0.1,0-0.6,0.1-0.8,0.1
			c-0.1,0-0.2-0.1-0.2-0.2v-1h-2.4V321.8z M89.2,310.1h-2.4v4.4h2.4V310.1z M86.7,315v4.8h2.4V315H86.7z M98.6,316.8h0.4
			c0.4-0.5,0.6-0.6,1-1.1c0.6,0.5,0.8,0.7,1.3,1.2c0.1,0.1,0.1,0.1,0.1,0.2c0,0.1-0.1,0.1-0.2,0.1h-2.6v2.8c0,0.2,0,1.7,0,2.3
			c0,0.8-0.1,1-0.2,1.2c-0.3,0.3-0.6,0.5-1.7,0.7c-0.1-0.5-0.2-0.7-0.5-0.9c-0.3-0.2-0.6-0.3-1.9-0.5v-0.3c1.3,0.1,1.7,0.1,2.9,0.1
			c0.2,0,0.3-0.1,0.3-0.3v-5.3h-4.8c-1,0-1.1,0-1.7,0.1l-0.2-0.7c0.6,0.1,1,0.2,1.9,0.2h4.8v-2.4h-5.1c-0.9,0-1.2,0-1.7,0.1
			l-0.1-0.7c0.6,0.1,0.8,0.1,1.8,0.1h2.3v-2.9h-2.2c-0.7,0-1,0-1.4,0.1l-0.1-0.7c0.5,0.1,0.9,0.2,1.5,0.2h2.2v-1.3
			c0-0.3,0-0.6-0.1-1.4c1.7,0.2,2.1,0.3,2.1,0.4c0,0.1-0.2,0.3-0.8,0.4v1.9H98l1-1.2c0.6,0.6,0.8,0.7,1.4,1.3
			c0.1,0.1,0.1,0.1,0.1,0.2c0,0.1-0.1,0.1-0.2,0.1h-4.4v2.9h3l1-1.2c0.7,0.6,0.9,0.8,1.6,1.3c0.1,0.1,0.1,0.1,0.1,0.1
			c0,0.1-0.1,0.1-0.2,0.1h-2.7V316.8z M92.3,318c0.7,0.3,1.4,0.6,2.1,1.2c0.5,0.4,0.8,0.7,0.8,1.1c0,0.6-0.3,1.2-0.5,1.2
			c-0.1,0-0.3-0.1-0.4-0.5c-0.5-1-1.1-1.8-2.1-2.8L92.3,318z"/>
		<path class="st0" d="M87,332c0.9,0.7,1.3,0.8,2.3,0.8c0.6,0,1.1-0.1,1.9-0.2c0.4-0.8,0.6-1.4,0.6-1.8c0-0.5-0.3-0.8-1.3-1
			c0.3-0.2,0.5-0.2,0.8-0.2c0.4,0,0.9,0.1,1.4,0.3c0.5,0.2,0.6,0.4,0.6,0.6c0,0.1-0.1,0.3-0.3,0.5c-0.2,0.2-0.4,0.5-0.5,0.7
			c-0.3,0.5-0.3,0.5-0.5,0.7c1.5-0.4,2-0.6,2.6-1.2c0.1-0.1,0.2-0.1,0.3-0.1c0.7,0,1.2,0.3,1.2,0.6c0,0.2-0.2,0.4-0.8,0.6
			c-1.6,0.5-2.5,0.7-3.9,1c-0.3,0.5-0.5,0.8-1,1.4c-0.5,0.8-0.6,1-1,1.4c1-0.5,1.6-0.7,2.3-0.7c1.1,0,1.9,0.7,2,1.8
			c0.3-0.1,0.3-0.1,1.8-0.9c1.8-0.9,2.2-1.2,2.2-1.5c0-0.3-0.3-0.6-0.8-0.8c0.2-0.1,0.3-0.1,0.4-0.1c0.8,0,2,1.1,2,1.8
			c0,0.3-0.1,0.5-0.6,0.6c-1.1,0.3-3.4,1.2-4.8,1.9c0,0.6,0,0.7,0,1.5c0,0.8-0.1,1.4-0.1,1.5c-0.1,0.2-0.3,0.3-0.5,0.3
			c-0.3,0-0.6-0.2-0.6-0.5c0-0.1,0-0.2,0-0.3c0.1-0.5,0.1-1.1,0.1-1.9c-1.1,0.6-1.6,1-2.1,1.4c-0.6,0.6-0.9,1.1-0.9,1.7
			c0,1,1,1.4,3,1.4c1.3,0,2.5-0.2,3.6-0.5c0.1,0,0.3-0.1,0.3-0.1c0.6,0,1.3,0.5,1.3,0.9c0,0.2-0.2,0.4-0.6,0.5
			c-0.7,0.1-2.1,0.3-3.2,0.3c-1.7,0-2.9-0.2-3.7-0.5c-0.9-0.4-1.3-1-1.3-1.9c0-0.8,0.4-1.6,1.3-2.5c0.5-0.4,1-0.9,2.2-1.6
			c0-0.8-0.1-1-0.3-1.4c-0.2-0.3-0.5-0.5-0.9-0.5c-1.2,0-2.6,1-3.9,2.6c-0.3,0.5-0.5,0.6-0.7,0.6c-0.3,0-0.5-0.4-0.5-1
			c0-0.4,0-0.4,0.5-0.8c1.3-1,2.1-1.9,3.3-3.9c-0.6,0.1-0.8,0.1-1.2,0.1c-1.2,0-1.9-0.3-2.7-1.4L87,332z"/>
		<path class="st0" d="M101.7,352.3c0,1.3-1,2.3-2.3,2.3c-1.3,0-2.3-1-2.3-2.3c0-1.3,1-2.3,2.3-2.3C100.6,350,101.7,351,101.7,352.3
			z M97.6,352.3c0,1,0.8,1.7,1.7,1.7c1,0,1.7-0.8,1.7-1.7s-0.8-1.7-1.7-1.7C98.4,350.6,97.6,351.3,97.6,352.3z"/>
		<path class="st0" d="M43,124.3c1,0.4,1.7,0.7,2.1,0.9c0.5,0.3,0.6,0.5,0.6,0.9c0,0.5-0.3,1.1-0.5,1.1c-0.1,0-0.2-0.1-0.3-0.3
			c-0.5-0.9-1.1-1.6-2-2.4L43,124.3z M43.1,130.8c0.5,0.1,0.7,0.2,0.9,0.2c0.3,0,0.4-0.1,0.8-1c0.5-1,0.9-2,1.7-3.8
			c0.8-1.9,0.8-1.9,1.2-2.6l0.3,0.1l-2.4,7.3c-0.2,0.6-0.2,0.7-0.2,1c0,0.3,0,0.4,0.2,1.1c0.2,0.8,0.3,1,0.3,1.4
			c0,0.7-0.6,1.5-1.3,1.5c-0.2,0-0.4-0.2-0.4-0.5c0-0.1,0-0.4,0.1-0.7c0.2-1.1,0.2-1.4,0.2-1.9c0-1.2-0.1-1.4-1.3-1.9L43.1,130.8z
			 M44.1,120.4c0.9,0.4,1.5,0.6,2.1,1c0.6,0.4,0.8,0.6,0.8,1c0,0.5-0.2,1-0.5,1c-0.1,0-0.2-0.1-0.3-0.3c-0.4-0.7-0.7-1.1-2.2-2.5
			L44.1,120.4z M54.9,132c0,0.6,0,0.6,0,2.8c0,0.5-0.1,0.6-0.4,0.9c-0.3,0.3-0.7,0.4-1.5,0.5c-0.1-0.6-0.2-0.8-0.5-0.9
			c-0.3-0.1-0.4-0.1-1.7-0.3l0-0.3c1.5,0.1,1.6,0.1,2.7,0.1c0.3,0,0.3-0.1,0.3-0.3v-5.1h-2v0.6c0,0.2-0.2,0.3-0.9,0.3
			c-0.2,0-0.3-0.1-0.3-0.3c0.1-1.5,0.1-1.9,0.1-3.4c0-1.6,0-2.4-0.1-3.2c0.6,0.3,0.8,0.4,1.4,0.8H53c0.1-0.3,0.1-0.3,0.1-0.5
			c0.3-0.9,0.3-1.1,0.4-1.8h-4.1c0,0.8,0,1.4,0,1.9c0,3.7-0.3,6.1-0.8,8.1c-0.3,1-0.7,2.1-1.2,2.9c-0.3,0.4-0.5,0.7-1,1.4l-0.2-0.2
			c0.9-1.5,1.2-2.6,1.6-4.6c0.4-2,0.5-4,0.5-8.3c0-1.2,0-1.5-0.1-2.5c0.6,0.3,0.8,0.4,1.4,0.8h7c0.5-0.5,0.6-0.7,1.1-1.2
			c0.8,0.6,1,0.8,1.7,1.4c0.1,0.1,0.1,0.1,0.1,0.1c0,0.1-0.1,0.1-0.2,0.1h-4.4c-0.9,1.5-0.9,1.6-1.5,2.3h3.2
			c0.3-0.3,0.4-0.4,0.7-0.8c0.4,0.3,0.6,0.4,1,0.7c0.1,0.1,0.2,0.2,0.2,0.2c0,0.1-0.1,0.2-0.5,0.4c0,0.7,0,1.2,0,1.5
			c0,1.1,0,1.2,0,3.7c0,0.2-0.2,0.3-1,0.3c-0.2,0-0.2-0.1-0.2-0.2v-0.6h-1.9V132z M48.3,135.6c1.3-1.6,2.2-3.3,2.6-5
			c1.6,0.5,1.7,0.6,1.7,0.7c0,0.2-0.2,0.3-0.7,0.3c-1.2,2-1.8,2.7-3.4,4.2L48.3,135.6z M56.8,126.4v-1.9h-5.1v1.9H56.8z M51.7,126.8
			v2.1h5.1v-2.1H51.7z M55.9,130.6c1,0.7,1.8,1.4,2.5,2.1c0.4,0.4,0.6,0.8,0.6,1.2c0,0.6-0.3,1.4-0.6,1.4c-0.1,0-0.2-0.1-0.3-0.4
			c-0.6-1.5-1.2-2.6-2.3-4.1L55.9,130.6z"/>
		<path class="st0" d="M43.7,150.4c0.6,0.1,0.8,0.1,1.8,0.1h2.8c0.3-0.3,0.4-0.4,0.7-0.8c0.5,0.4,0.6,0.5,1,0.9
			c0.1,0.1,0.2,0.2,0.2,0.3c0,0.1-0.1,0.2-0.7,0.3c-0.9,1.5-1.9,2.6-3.3,3.7c-1.1,0.8-2,1.3-3.4,1.8l-0.1-0.2
			c1.5-0.8,2.4-1.5,3.4-2.6c1-1,1.6-1.8,2.1-3h-2.9c-0.8,0-1.1,0-1.5,0.1L43.7,150.4z M52,148.4c0.1,0.8,0.2,1.1,0.6,1.8
			c0.3,0.6,0.6,1,1.1,1.5c1.3-0.9,2.7-2.2,3.3-3c1.4,0.8,1.6,1,1.6,1.1c0,0.1-0.1,0.2-0.3,0.2c-0.1,0-0.3,0-0.6-0.1
			c-1,0.6-2.5,1.4-3.8,1.9c0.6,0.6,1.2,1.1,1.9,1.5c1.3,0.8,2.3,1.2,4,1.5v0.2c-0.4,0.1-0.6,0.2-0.9,0.4c-0.3,0.2-0.4,0.4-0.5,0.8
			c-1-0.4-1.5-0.6-2.4-1.3c-1.5-1.1-2.2-2-3.2-3.6c-0.5-0.9-0.7-1.3-1-2.3c0.1,1.2,0.1,2.6,0.1,3.4c0,0.1,0,0.2,0,0.2v1.1
			c0,0.2,0,0.5,0,1.1c0,0.2,0,0.5,0,0.9c0,0.9-0.3,1.1-2.1,1.6c-0.2-0.9-0.6-1.1-2.4-1.3v-0.3c1.4,0.1,1.8,0.1,3,0.1
			c0.2,0,0.3-0.1,0.3-0.2v-7.3h-3.7v0.6c0,0.3-0.1,0.3-0.9,0.3c-0.2,0-0.2,0-0.3-0.2c0-1.4,0.1-2.8,0.1-4.7c0-1.1,0-1.6-0.1-2.5
			c0.6,0.3,0.8,0.4,1.5,0.8h2.7c0.3-0.6,0.4-1.5,0.5-2.2c1.6,0.4,1.6,0.4,1.8,0.5c0.1,0.1,0.2,0.1,0.2,0.2c0,0.2-0.2,0.2-0.9,0.3
			c-0.4,0.5-0.6,0.7-1.1,1.2h4.6l0.7-0.8c0.5,0.4,0.6,0.5,1.1,0.8c0.1,0.1,0.2,0.2,0.2,0.3c0,0.2-0.1,0.2-0.7,0.5v1.9
			c0,1.4,0,1.8,0,3.1c0,0.2,0,0.3-0.2,0.3c-0.1,0-0.5,0.1-0.8,0.1c-0.2,0-0.2,0-0.2-0.2v-0.3H52z M55.3,145.4v-2.2h-8.2v2.2H55.3z
			 M47.1,145.8v2.2h8.2v-2.2H47.1z"/>
		<path class="st0" d="M51,176.5c1.9-0.6,3.2-1.3,4.2-2.5c1.1-1.2,1.6-2.7,1.6-4.3c0-1.7-0.7-3.1-2-4c-0.8-0.5-2-0.8-3.1-0.8
			c-0.2,0-0.3,0-0.6,0c0.4,0.6,0.6,1,0.6,1.5c0,1.4-1,4-2.4,6.2c-1.1,1.8-2,2.7-2.7,2.7c-0.3,0-0.6-0.1-0.8-0.4
			c-0.2-0.2-0.2-0.3-0.5-1.2c-0.2-0.5-0.3-0.7-0.8-1.7c-0.3-0.6-0.4-1.1-0.4-1.6c0-1.1,0.6-2.5,1.6-3.6c1.5-1.5,3.8-2.5,6.2-2.5
			c1.8,0,3.5,0.6,4.6,1.7c1.2,1.1,1.7,2.5,1.7,4.2c0,2.2-1.3,4.2-3.6,5.5c-1,0.6-2,0.8-3.5,1.1L51,176.5z M45.1,170.9
			c0,0.9,0.3,1.7,0.7,2.4c0.3,0.3,0.5,0.5,0.7,0.5c0.4,0,1.3-1,2.1-2.4c1.3-2.1,2.3-4.4,2.3-5.6c0-0.3-0.1-0.5-0.3-0.9
			C47.5,165.5,45.1,168.1,45.1,170.9z"/>
		<path class="st0" d="M43,186.9c2.1,0.8,2.8,1.3,2.8,2c0,0.6-0.3,1.1-0.6,1.1c-0.2,0-0.3-0.1-0.4-0.4c-0.4-0.9-1-1.6-1.9-2.5
			L43,186.9z M43.1,193.5c0.5,0.1,0.9,0.2,1,0.2c0.3,0,0.4-0.1,1.2-1.8c0.6-1.2,0.8-1.8,1.7-3.8c0.6-1.5,0.6-1.5,0.9-2l0.3,0.1
			l-2.6,7.7c-0.2,0.6-0.2,0.6-0.2,0.8c0,0.3,0.1,0.6,0.4,1.5c0.1,0.4,0.2,0.7,0.2,1c0,0.4-0.1,0.8-0.3,1.1c-0.3,0.3-0.6,0.5-1,0.5
			c-0.3,0-0.4-0.1-0.4-0.4c0-0.3,0-0.3,0.1-1.1c0.1-0.6,0.1-1.2,0.1-1.7c0-0.6-0.1-0.9-0.3-1.2c-0.2-0.2-0.4-0.3-1.1-0.6L43.1,193.5
			z M44.1,183.1c1.1,0.4,1.8,0.7,2.3,1.2c0.4,0.3,0.5,0.5,0.5,0.9c0,0.5-0.3,1.1-0.5,1.1c-0.2,0-0.3-0.1-0.5-0.6
			c-0.5-0.9-0.9-1.4-1.9-2.4L44.1,183.1z M56.3,192.8c-0.9,1.5-1.3,2-2.1,2.8c-0.7,0.7-1.9,1.6-2.9,2.3c-0.6,0.3-1,0.5-2.1,0.9
			l-0.1-0.2c1.9-1.1,2.8-1.8,4-3.2c0.8-0.9,1.2-1.4,1.9-2.6h-1.7c-0.8,1.1-1.2,1.4-1.8,2c-1.4,1.3-2.4,2-4.3,2.8l-0.1-0.2
			c2-1.3,3-2.1,4-3.3c0.3-0.4,0.5-0.6,0.9-1.3h-1.7c-1.2,1.4-2.2,2.1-4,3l-0.1-0.2c1.6-1.1,2.4-2,3.4-3.5c0.3-0.5,0.5-0.7,0.8-1.4
			h-2.2c-0.3,0-0.6,0-0.9,0.1l-0.1-0.7c0.4,0.1,0.7,0.2,1,0.2h8.9c0.4-0.5,0.6-0.6,1-1.1c0.6,0.5,0.8,0.7,1.5,1.2
			c0.1,0.1,0.1,0.1,0.1,0.2s-0.1,0.1-0.2,0.1h-7.7c-0.5,0.9-0.7,1.1-1.1,1.7h6.7c0.3-0.3,0.4-0.4,0.7-0.7c0.5,0.3,0.6,0.4,1,0.8
			c0.1,0.1,0.2,0.2,0.2,0.3c0,0.1-0.1,0.2-0.6,0.4c-0.3,2.3-0.6,3.8-1,4.6c-0.3,0.7-1,1.1-2.1,1.2c-0.1-0.6-0.2-0.7-0.5-0.9
			c-0.4-0.2-0.9-0.4-1.6-0.6l0.1-0.2c0.5,0.1,0.5,0.1,1.4,0.2c0.2,0,1,0.1,1.2,0.1c0.4,0,0.5-0.1,0.7-0.6c0.3-0.8,0.6-2.4,0.7-4.1
			H56.3z M50.4,189.4c0,0.2-0.1,0.3-0.8,0.3c-0.3,0-0.4-0.1-0.4-0.2c0,0,0,0,0-0.1c0-2.5,0-2.5,0-3.7c0-1.9,0-2.1,0-2.8
			c0.6,0.3,0.7,0.4,1.3,0.8h5c0.3-0.3,0.4-0.4,0.7-0.7c0.4,0.3,0.6,0.4,1,0.7c0.1,0.1,0.2,0.2,0.2,0.3c0,0.1-0.1,0.2-0.5,0.5
			c0,3,0,3.6,0.1,4.9c0,0.1,0,0.2-0.1,0.3c-0.1,0.1-0.5,0.1-0.8,0.1c-0.2,0-0.3-0.1-0.3-0.3v-0.5h-5.2V189.4z M55.7,184.1h-5.2v2
			h5.2V184.1z M50.4,186.5v2h5.2v-2H50.4z"/>
		<path class="st0" d="M47.8,212c0,0.2-0.3,1.3-0.8,3.4c-0.3,1.1-0.3,1.4-0.3,1.9c0,0.5,0,0.7-0.1,0.8c-0.1,0.2-0.2,0.3-0.4,0.3
			c-0.3,0-0.6-0.3-0.8-0.7c-0.4-0.9-0.6-2.4-0.6-3.8c0-0.5,0.1-1.2,0.1-1.9c0.1-1,0.1-1,0.6-3.4c0.2-0.8,0.3-1.3,0.3-1.7
			c0-0.6-0.1-1-0.5-1.7c0.4,0,0.7,0.3,1.2,0.9c0.5,0.6,0.7,1,0.7,1.4c0,0.3,0,0.4-0.4,1.1c-0.4,0.8-0.8,2-1,2.9
			c-0.2,0.7-0.2,1.5-0.2,2.2c0,1,0.1,1.6,0.3,2.4c0.3-0.6,0.5-1,0.6-1.5l1-2.5L47.8,212z M50.1,212.9c0,0.4-0.1,0.5-0.1,0.8
			c0,2,1.1,2.8,3.9,2.8c0.5,0,1,0,1.5-0.1c0.4-0.1,0.4-0.1,1-0.3c0.1,0,0.2-0.1,0.3-0.1c0.5,0,1.1,0.6,1.1,1.1
			c0,0.2-0.1,0.4-0.4,0.5c-0.4,0.1-1.2,0.2-2.3,0.2c-2.3,0-3.9-0.4-4.7-1.1c-0.6-0.6-1-1.4-1-2.3c0-0.4,0.1-0.8,0.2-1.4L50.1,212.9z
			 M50.1,207.2c0.6,0.4,1,0.5,1.7,0.5c1.1,0,2.9-0.4,3.6-0.8c0.2-0.1,0.3-0.1,0.4-0.1c0.1,0,0.4,0.1,0.6,0.3
			c0.4,0.2,0.6,0.4,0.6,0.7s-0.1,0.3-0.5,0.4c-1.2,0.2-1.9,0.3-2.6,0.6c-0.6,0.2-1.6,0.8-2.3,1.3l-0.2-0.2c0.8-0.7,1.4-1.2,1.7-1.4
			c-0.4,0-0.6,0-0.7,0c-1,0-1.7-0.3-2.4-1L50.1,207.2z"/>
		<path class="st0" d="M55.7,232.5c0.8-1,1.3-1.8,1.9-3c1.6,0.8,1.8,0.9,1.8,1c0,0.2-0.2,0.2-0.9,0.2c-1.1,1.6-1.8,2.5-2.7,3.4
			l0.1,5.2c0,0.8-0.4,1.1-2.2,1.4c-0.1-0.6-0.2-0.8-0.4-1c-0.3-0.2-0.8-0.3-2.3-0.5V239c0.7,0,0.7,0,1.9,0.1c0.8,0,0.8,0,1.4,0
			c0.3,0,0.3-0.1,0.3-0.3v-3.7c-1.5,1.4-3.3,2.5-5.5,3.5c-2.1,1-3.7,1.6-5.7,2l-0.1-0.3c2.1-0.7,3.9-1.6,6.3-3
			c1.8-1.1,3.2-2.1,4.4-3.1c-0.6,0.2-1.1,0.3-1.4,0.4c-1.7,0.5-2,0.6-4.5,1.1c-2.4,0.5-2.7,0.6-3.6,0.7c-0.1,0.5-0.2,0.7-0.3,0.7
			c-0.2,0-0.3-0.3-0.7-2c0.9,0,2.1-0.1,3.1-0.3v-6.8c0-0.8,0-1,0-2.3c0.7,0.4,0.9,0.5,1.6,0.9h1.8c0.3-0.8,0.5-1.6,0.6-2.4
			c0.4,0.1,0.7,0.2,0.9,0.2c0.9,0.2,1.2,0.3,1.2,0.4s-0.1,0.2-0.8,0.3c-0.7,0.7-0.9,1-1.3,1.4h4.1c0.3-0.3,0.4-0.4,0.7-0.8
			c0.4,0.3,0.6,0.4,1,0.8c0.1,0.1,0.2,0.2,0.2,0.3c0,0.1-0.1,0.2-0.6,0.5V232.5z M54.6,229.3v-2.1h-6.9v2.1H54.6z M47.7,229.8v2.3
			h6.9v-2.3H47.7z M54.6,232.4h-6.9v2.4c2.3-0.3,5.1-0.7,6.7-1l0.2-0.2V232.4z"/>
		<path class="st0" d="M46,248.4c0.4,0.6,0.7,1,1.2,1.3c0.6,0.4,1.2,0.6,2.1,0.8c0.5-2.5,0.6-2.8,0.6-3.2c0-0.6-0.3-1-1-1.5
			c0.1-0.1,0.2-0.1,0.3-0.1c0.3,0,0.8,0.2,1.3,0.6c0.6,0.4,0.9,0.9,0.9,1.3c0,0.2-0.1,0.3-0.2,0.5c-0.3,0.4-0.5,0.9-1,2.5
			c0.4,0.1,0.5,0.2,0.7,0.4c0.1,0.2,0.3,0.4,0.3,0.6c0,0.2-0.2,0.4-0.6,0.4c-0.2,0-0.4,0-0.7-0.1c-0.4,1.2-0.6,2.3-0.7,3.3
			c0.4,0.1,0.7,0.1,0.9,0.1c0.1,0,0.1,0,0.1,0c0.1,0,0.2,0,0.2,0c0.5,0,1.1,0.6,1.1,1c0,0.3-0.2,0.4-0.6,0.4c-0.5,0-1.3-0.1-1.9-0.3
			c0,0.4-0.1,0.6-0.1,0.9c0,1.8,1,2.9,2.8,2.9c1.2,0,2.3-0.5,2.8-1.2c0.4-0.5,0.6-1.2,0.6-1.8c0-1.5-1-3.2-2.7-4.5l0.2-0.2
			c2.7,1.6,3.8,3.1,3.8,5c0,2.2-1.9,3.8-4.4,3.8c-0.9,0-1.8-0.3-2.4-0.7c-0.9-0.7-1.4-1.8-1.4-3.3c0-0.2,0-0.5,0-0.9
			c-0.7-0.3-1.1-0.5-1.4-0.9c-0.5-0.5-0.8-1.2-0.8-1.8c0-0.4,0.2-0.9,0.6-1.2c0.4-0.4,0.9-0.7,1.7-1c-0.7-0.3-1.2-0.6-1.7-1.1
			c-0.4-0.4-0.6-0.8-0.9-1.6L46,248.4z M47.1,252.5c-0.3,0.3-0.4,0.6-0.4,0.9c0,0.8,0.6,1.3,1.9,1.7c0.1-0.9,0.3-1.9,0.5-3.3
			C48,251.8,47.5,252,47.1,252.5z"/>
		<path class="st0" d="M45.8,272.6c0,0.5,0,0.6,0,0.9c0,1.8-0.4,3.6-1,4.7c-0.4,0.7-0.8,1.1-1.1,1.1s-0.5-0.6-0.5-1.3
			c0-0.3,0.1-0.4,0.5-0.8c0.5-0.5,1-1.3,1.3-2.2c0.3-0.8,0.4-1.4,0.5-2.6H45.8z M47.7,272.5c0-0.8,0-1.7-0.1-2.5
			c1.9,0.3,2.2,0.3,2.2,0.5c0,0.2,0,0.2-0.8,0.5v9.4c0,0.3,0.1,0.3,0.7,0.4c0.2,0,1.9,0,2.5,0c1.5,0,1.8-0.1,2-0.4
			c0.2-0.4,0.5-1.3,1.1-4.1l0.2,0l-0.2,3.9v0.1c0,0.2,0.1,0.3,0.4,0.3c0.4,0.1,0.5,0.2,0.5,0.5c0,0.3-0.3,0.5-0.8,0.6
			c-0.4,0.1-2.1,0.2-3.3,0.2c-2.9,0-3.5,0-3.8-0.1c-0.4-0.1-0.6-0.4-0.6-0.9c0.1-1.8,0.1-1.9,0.1-2.6V272.5z M48.2,266.7
			c2.1,0.5,3.1,0.9,4.3,1.6c0.3,0.2,0.4,0.3,0.5,0.5c0.1,0.2,0.1,0.6,0.1,0.8c0,0.5-0.2,0.8-0.4,0.8c-0.1,0-0.2-0.1-0.5-0.4
			c-1.1-1.2-2.6-2.3-4.2-3.1L48.2,266.7z M55.9,272.5c2.1,2,3.2,3.6,3.2,4.6c0,0.3-0.1,0.8-0.4,1.3c-0.2,0.3-0.3,0.5-0.5,0.5
			c-0.2,0-0.3-0.2-0.4-0.7c-0.5-2.3-1.1-3.8-2.2-5.6L55.9,272.5z"/>
		<path class="st0" d="M46,290.2c0.4,0.6,0.7,1,1.2,1.3c0.6,0.4,1.2,0.6,2.1,0.8c0.5-2.5,0.6-2.8,0.6-3.2c0-0.6-0.3-1-1-1.5
			c0.1-0.1,0.2-0.1,0.3-0.1c0.3,0,0.8,0.2,1.3,0.6c0.6,0.4,0.9,0.9,0.9,1.3c0,0.2-0.1,0.3-0.2,0.5c-0.3,0.4-0.5,0.9-1,2.5
			c0.4,0.1,0.5,0.2,0.7,0.4c0.1,0.2,0.3,0.4,0.3,0.6c0,0.2-0.2,0.4-0.6,0.4c-0.2,0-0.4,0-0.7-0.1c-0.4,1.2-0.6,2.3-0.7,3.3
			c0.4,0.1,0.7,0.1,0.9,0.1c0.1,0,0.1,0,0.1,0c0.1,0,0.2,0,0.2,0c0.5,0,1.1,0.6,1.1,1c0,0.3-0.2,0.4-0.6,0.4c-0.5,0-1.3-0.1-1.9-0.3
			c0,0.4-0.1,0.6-0.1,0.9c0,1.8,1,2.9,2.8,2.9c1.2,0,2.3-0.5,2.8-1.2c0.4-0.5,0.6-1.2,0.6-1.8c0-1.5-1-3.2-2.7-4.5l0.2-0.2
			c2.7,1.6,3.8,3.1,3.8,5c0,2.2-1.9,3.8-4.4,3.8c-0.9,0-1.8-0.3-2.4-0.7c-0.9-0.7-1.4-1.8-1.4-3.3c0-0.2,0-0.5,0-0.9
			c-0.7-0.3-1.1-0.5-1.4-0.9c-0.5-0.5-0.8-1.2-0.8-1.8c0-0.4,0.2-0.9,0.6-1.2c0.4-0.4,0.9-0.7,1.7-1c-0.7-0.3-1.2-0.6-1.7-1.1
			c-0.4-0.4-0.6-0.8-0.9-1.6L46,290.2z M47.1,294.2c-0.3,0.3-0.4,0.6-0.4,0.9c0,0.8,0.6,1.3,1.9,1.7c0.1-0.9,0.3-1.9,0.5-3.3
			C48,293.6,47.5,293.8,47.1,294.2z"/>
		<path class="st0" d="M56.7,309.5c0.5-0.6,0.6-0.7,1.1-1.3c0.8,0.6,1,0.8,1.7,1.4c0.1,0.1,0.1,0.1,0.1,0.1c0,0.1-0.1,0.1-0.2,0.1
			h-7.3c0.2,0.1,0.2,0.1,0.9,0.4c0.2,0.1,0.3,0.2,0.3,0.3c0,0.1-0.1,0.2-0.7,0.2c1.7,1.2,3.9,1.7,6.9,1.9v0.2
			c-0.7,0.3-0.9,0.5-1.1,1.2c-1.8-0.5-2.5-0.8-3.5-1.3c-0.9-0.5-1.6-1-2.6-1.8c-2,1.7-3.2,2.4-5.9,3.5l-0.1-0.2
			c1.6-0.8,2.9-1.7,4.3-3.1c0.5-0.5,0.8-0.8,1.1-1.1h-5.4c0,2.7,0,4.2-0.1,4.6c-0.1,2.6-0.5,4.8-1.4,6.7c-0.5,1.1-1,1.8-2,2.9
			l-0.2-0.1c1.2-1.9,1.7-3.2,2-5.1c0.2-0.8,0.2-1.4,0.3-2.8c-0.6,0.6-0.8,0.9-1.7,1.6c0,0.2,0,0.3,0,0.4c0,0,0,0.1,0,0.1
			c0,0.2-0.1,0.3-0.2,0.3c-0.2,0-0.3-0.3-0.9-1.7c0.4-0.1,0.7-0.2,1.6-0.5c0.4-0.2,0.5-0.2,1.2-0.6c0.1-1.1,0.1-2.4,0.1-4.3
			c0-1.8,0-2-0.1-2.8c0.6,0.3,0.8,0.4,1.4,0.9h4.8v-0.7c0-0.4,0-0.6-0.1-1c1.9,0.1,2.1,0.2,2.1,0.4c0,0.1-0.1,0.2-0.7,0.4v1H56.7z
			 M42.8,310.7c0.5,0.4,0.9,0.8,1.4,1.4c0.4,0.5,0.6,0.9,0.6,1.2c0,0.3-0.1,0.8-0.3,1c-0.1,0.1-0.2,0.2-0.3,0.2
			c-0.2,0-0.3-0.2-0.4-0.6c-0.2-0.9-0.8-2.4-1.2-3.1L42.8,310.7z M48.1,320.6c-0.1,0.7-0.3,1.5-0.7,2.2c-0.3,0.6-0.9,1.1-1.3,1.1
			c-0.3,0-0.5-0.4-0.5-0.8c0-0.3,0.1-0.4,0.5-0.6c0.5-0.2,1-0.5,1.2-0.8c0.2-0.3,0.3-0.5,0.5-1.1L48.1,320.6z M48.6,318v2
			c-0.1,0.1-0.1,0.1-0.2,0.2c-0.2,0-0.5,0-0.6,0c-0.3,0-0.3,0-0.3-0.2c0.1-1.1,0.1-1.8,0.1-3.4c0-0.9,0-0.9-0.1-2.3
			c0.5,0.2,0.7,0.3,1.2,0.6h2.7c0.3-0.3,0.3-0.3,0.5-0.6c0.4,0.3,0.5,0.3,0.9,0.6c0.1,0.1,0.1,0.1,0.1,0.1c0,0.1-0.2,0.3-0.4,0.4
			v2.3c0,0.2,0,0.3,0,1.5c0,0.3-0.1,0.5-0.5,0.6c-0.2,0.1-0.3,0.1-0.9,0.3c-0.2-0.6-0.5-0.8-1.4-0.9V319c1.1,0.1,1.1,0.1,1.6,0.1
			c0.1,0,0.1,0,0.1-0.1V318H48.6z M51.5,316.2v-1h-2.9v1H51.5z M48.6,316.5v1.1h2.9v-1.1H48.6z M49.3,321.6c0-0.8,0-0.8,0-1.2
			c1.7,0.2,1.8,0.2,1.8,0.4c0,0.1,0,0.1-0.6,0.3v1.5c0,0.1,0,0.2,0.1,0.3c0.2,0.1,0.6,0.1,1.1,0.1c0.8,0,2.5,0,2.6-0.1
			c0.3,0,0.4-0.1,0.5-0.5c0.3-0.6,0.5-1.2,0.6-1.7l0.3,0.1l-0.1,1.5v0.1c0,0.2,0.1,0.3,0.4,0.4c0.4,0.1,0.5,0.2,0.5,0.4
			c0,0.3-0.2,0.4-0.7,0.5c-0.6,0.1-1.5,0.2-3.2,0.2c-3.3,0-3.4-0.1-3.4-1.3V321.6z M49.7,313.1c0.5,0.1,0.8,0.1,1.5,0.1H53
			c0.4-0.4,0.5-0.5,0.8-0.9c0.6,0.4,0.8,0.6,1.3,1.1c0,0.1,0.1,0.1,0.1,0.1c0,0.1-0.1,0.1-0.2,0.1h-3.9c-0.6,0-0.6,0-1.4,0.1
			L49.7,313.1z M51.7,320.3c0.6,0.1,1.3,0.4,1.8,0.7c0.3,0.2,0.5,0.5,0.5,0.7c0,0.4-0.3,0.9-0.5,0.9c-0.1,0-0.2-0.1-0.3-0.3
			c-0.4-0.6-0.9-1.3-1.6-1.9L51.7,320.3z M55.6,315.1c0,0.1-0.2,0.2-0.5,0.3c0,1.8,0,1.9,0,2.8c0,0.1-0.1,0.2-0.2,0.2
			c-0.1,0-0.4,0.1-0.6,0.1c-0.2,0-0.2,0-0.3-0.2c0.1-0.7,0.1-0.8,0.1-2.1c0-0.8,0-1-0.1-1.4C55.4,314.9,55.6,314.9,55.6,315.1z
			 M56.8,315.7c0-0.1,0-0.5-0.1-1.2c1.9,0.2,1.9,0.2,1.9,0.4c0,0.1,0,0.1-0.7,0.4v2.5l0,0.8v0.2c0,0.2,0,0.2,0,0.3
			c0,0.5-0.1,0.6-0.6,0.8c-0.4,0.2-0.7,0.3-1.2,0.3c-0.1-0.5-0.2-0.7-0.5-0.8c-0.2-0.1-0.3-0.1-1-0.2V319c0.3,0,0.3,0,1,0.1
			c0.5,0.1,0.5,0.1,0.9,0.1c0.1,0,0.1-0.1,0.1-0.2V315.7z M56.4,320.6c0.8,0.3,1.8,0.9,2.4,1.2c0.3,0.3,0.5,0.5,0.5,1
			c0,0.5-0.2,1-0.5,1c-0.2,0-0.2,0-0.5-0.5c-0.5-0.9-1.1-1.6-2-2.5L56.4,320.6z"/>
		<path class="st0" d="M53.5,331c0.7,0.3,1.7,0.6,2,0.6c0.1,0,0.1,0,0.2,0c0.1,0,0.1,0,0.1,0c0.5,0,0.7,0.2,0.7,0.6
			c0,0.3-0.3,0.5-1,0.9c-0.6,0.3-0.9,0.5-2.6,1.1c0.9,1.3,1.9,2.9,2.5,3.9c0.3,0.5,0.4,0.9,0.4,1.4c0,0.7-0.1,1-0.5,1
			c-0.2,0-0.3-0.1-0.6-0.3c-0.4-0.3-0.8-0.7-1.2-0.8c-0.9-0.4-2.1-0.7-3.3-0.7c-2.1,0-3.4,0.8-3.4,2.1c0,0.8,0.5,1.4,1.4,1.8
			c0.6,0.3,1.5,0.4,2.5,0.4c0.7,0,1.1,0,1.6-0.1c0.1,0,0.2,0,0.2,0c0.5,0,1.1,0.6,1.1,1c0,0.5-0.3,0.6-1.6,0.6
			c-1.4,0-2.6-0.2-3.5-0.5c-1.6-0.5-2.6-1.6-2.6-2.9c0-1.8,1.8-2.9,4.7-2.9c1.2,0,2.6,0.2,3.5,0.5c-0.4-1.2-1.2-2.6-2.2-4
			c-1.3,0.4-2.5,0.6-3.7,0.6c-1.4,0-2.4-0.5-3.3-1.6l0.2-0.2c1,0.7,1.7,1,2.9,1c1,0,2.1-0.2,3.3-0.6c-0.8-1-1.8-1.9-2.5-2.3
			c-0.6-0.3-0.7-0.4-0.7-0.7c0-0.4,0.5-0.7,1.2-0.7c0.6,0,1.3,0.1,2.1,0.4l-0.1,0.3c-0.4-0.1-0.7-0.1-0.8-0.1
			c-0.4,0-0.6,0.1-0.6,0.2c0,0.1,0.2,0.3,0.7,1c0.2,0.2,0.7,0.8,1.4,1.7c0.2-0.1,0.2-0.1,1.1-0.5c0.4-0.2,0.8-0.3,1.3-0.7
			c-0.5-0.4-0.5-0.4-1.5-1L53.5,331z"/>
		<path class="st0" d="M47.2,356.5c0-0.3,0-0.3,0-0.8c0-0.4,0-0.4,0.1-0.6c-0.5,0.4-1.5,1-1.8,1.2c-0.3,0.2-0.5,0.3-0.6,0.3
			c-0.5,0-1.3-1.1-1.3-1.6c0,0,0-0.2,0.1-0.3c0.4,0.6,0.8,0.9,1.2,0.9c0.4,0,1.5-0.5,2.6-1.1c0.1-0.8,0.1-1.3,0.1-1.9
			c0-1-0.2-1.4-1-2c0.1-0.1,0.1-0.1,0.2-0.1c0.3,0,0.7,0.2,1.2,0.5c0.6,0.4,0.9,0.8,0.9,1.2c0,0.2,0,0.2-0.2,0.7
			c-0.1,0.3-0.3,0.9-0.3,1.4c0.4,0.4,0.5,0.6,0.5,0.7c0,0.1,0,0.1-0.3,0.5c-0.2,0.4-0.4,0.7-0.6,1.2c0,0.3,0,0.4,0,0.7
			c1.8-1.7,2.4-2.2,3.1-2.8c1.3-0.9,2.1-1.3,2.9-1.3c0.6,0,1.1,0.2,1.4,0.6c0.3,0.4,0.5,0.9,0.5,1.6c0,0.7,0,0.8-0.4,2.7
			c-0.2,1.2-0.3,2.2-0.3,3c0,0.7,0.1,1.1,0.5,1.3c0.3,0.2,0.6,0.3,0.9,0.3c0.9,0,2.2-0.5,3.3-1.3l0.1,0.2c-1.3,1.3-2.7,2.1-4,2.1
			c-1.4,0-2.1-0.9-2.1-2.5c0-0.6,0.2-1.8,0.5-3.2c0.4-1.9,0.5-2.2,0.5-2.8c0-0.9-0.4-1.4-1.1-1.4c-0.8,0-1.7,0.5-3.2,1.8
			c-0.9,0.8-1.8,1.7-2.7,2.8c0,0.4,0,0.7,0,0.9c0,1,0.1,1.8,0.2,3.2c0.1,0.4,0.1,0.6,0.1,0.8c0,1-0.3,1.9-0.8,1.9
			c-0.2,0-0.3-0.1-0.4-0.5c-0.1-0.2-0.3-0.7-0.3-0.9c-0.2-0.4-0.8-1.1-1.6-2c-0.4,0.9-0.4,1-0.6,1c-0.2,0-0.3-0.1-0.4-0.4
			c-0.1-0.3-0.2-0.7-0.2-1c0-0.2,0-0.3,0.3-0.5c0.3-0.3,0.6-0.7,1.2-1.6L47.2,356.5z M46.1,359.9c-0.4,0.8-0.6,1.2-1,1.9
			c1.1,0.9,1.4,1.1,1.9,1.5c0-0.7,0-0.7,0.1-3.4c0-0.9,0-1.3,0.1-2C46.9,358.4,46.9,358.4,46.1,359.9z"/>
		<path class="st0" d="M52.6,373.1c-0.7,0.2-2.4,0.9-3.6,1.4c-0.4,0.2-0.6,0.2-0.7,0.2c-0.3,0-0.7-0.3-1-0.8c-0.3-0.5-0.5-1-0.5-1.3
			c0-0.2,0-0.3,0.2-0.5c0.3,0.8,0.8,1.3,1.4,1.3c0.5,0,2.2-0.4,3.4-0.8c0.7-0.2,0.7-0.2,1.1-0.6c0.1-0.1,0.2-0.1,0.3-0.1
			c0.2,0,0.5,0.2,1,0.6c0.4,0.4,0.5,0.6,0.5,0.8c0,0.1-0.1,0.2-0.3,0.3c-0.5,0.3-0.7,0.4-1.5,1.2c-1.1,1.1-1.8,1.8-2.6,2.7
			c-1.7,1.9-1.7,1.9-2.1,2.2l0,0c1.9-1.2,3.4-1.7,4.9-1.7c2.3,0,3.9,1.3,3.9,3.4c0,2.6-2.4,4.5-5.7,4.5c-1.8,0-2.9-0.7-2.9-1.8
			c0-0.9,0.8-1.5,1.9-1.5c0.9,0,1.7,0.3,2.3,0.9c0.3,0.3,0.5,0.6,0.8,1.1c1.4-0.6,2.2-1.8,2.2-3.4c0-1-0.4-1.8-1.1-2.2
			c-0.4-0.2-1.1-0.4-1.8-0.4c-1.8,0-4.2,1.4-5.7,3.3c-0.3,0.4-0.4,0.5-0.6,0.5c-0.3,0-0.6-0.6-0.6-1.2c0-0.2,0.1-0.4,0.4-0.6
			c0.7-0.5,1-0.8,2.5-2.5c2.2-2.5,2.9-3.3,4.3-5.1c0.1-0.2,0.1-0.2,0.2-0.3c0,0,0,0-0.1,0c0,0,0,0,0,0c0,0,0,0-0.1,0
			C52.8,373,52.8,373,52.6,373.1L52.6,373.1z M49.9,383.4c-0.7,0-1.1,0.4-1.1,0.9c0,0.7,0.8,1.1,2.1,1.1c0.5,0,0.7,0,1.3-0.2
			C51.7,384.1,50.9,383.4,49.9,383.4z"/>
		<path class="st0" d="M2.1,125c0.7,0.6,1.4,0.9,2.1,0.9c0.5,0,1-0.1,1.8-0.2c0-0.5,0-1.3,0-1.7c0-1.9-0.2-2.3-1.5-2.5
			c0.3-0.2,0.4-0.3,0.8-0.3c0.6,0,1.4,0.2,1.9,0.5c0.2,0.1,0.4,0.4,0.4,0.6c0,0.1,0,0.1-0.2,0.5c-0.3,0.5-0.5,1.4-0.6,2.7
			c1-0.3,1.4-0.6,2-1c0.1-0.1,0.3-0.2,0.4-0.2c0.2,0,0.5,0.1,0.7,0.2c0.2,0.1,0.3,0.2,0.3,0.4c0,0.3-0.2,0.4-0.8,0.7
			c-0.8,0.4-1.7,0.7-2.6,0.9c0,0.3,0,0.3-0.1,0.9c0,0.5-0.1,1.3-0.1,2.4c2-0.7,3.3-1,4.8-1c2.5,0,4,1.2,4,3.1c0,1.8-1.4,3.1-3.1,3.1
			c-1.7,0-2.8-1.1-3.5-3.2l0.3-0.1c0.4,0.8,0.7,1.2,1.1,1.6c0.5,0.5,1.1,0.7,1.7,0.7c1.3,0,2.3-1,2.3-2.5c0-1.4-0.9-2.1-2.7-2.1
			c-1.4,0-3.1,0.4-4.9,1.3c0,1.9,0,1.9,0,2.4c0,0.3,0,0.5,0,0.7c0,0.4-0.1,0.8-0.2,1.1c-0.2,0.4-0.6,0.7-0.9,0.7c-0.3,0-0.3,0-1.4-1
			c-0.4-0.3-0.9-0.7-1.2-0.8c-0.4-0.2-0.6-0.5-0.6-0.8c0-0.3,0.2-0.6,0.5-1c0.7-0.7,1.3-1.1,2.9-1.9c0-0.3,0-0.5,0-0.9
			c0-0.8,0-0.8,0.1-2.6c-0.6,0.1-1,0.1-1.4,0.1c-1.2,0-1.9-0.4-2.7-1.5L2.1,125z M4.1,132.3c-0.4,0.4-0.5,0.7-0.5,0.9
			c0,0.2,0.2,0.4,0.7,0.6c0.4,0.2,0.9,0.3,1.1,0.3c0.2,0,0.3-0.1,0.3-0.5c0.1-1.6,0.1-2.5,0.1-2.6C5,131.4,4.6,131.8,4.1,132.3z
			 M12.2,123.2c1.1,0.1,1.9,0.3,2.6,0.6c0.8,0.4,1.3,1,1.3,1.6c0,0.3-0.2,0.5-0.5,0.5c0,0-0.1,0-0.3,0c-0.3,0-0.3,0-0.4,0
			c-0.3,0-0.7,0.1-2.2,0.5l-0.1-0.2c1.1-0.6,1.7-0.9,2-1.2c-0.3-0.5-0.6-0.8-1.1-1.1c-0.4-0.2-0.6-0.3-1.2-0.5L12.2,123.2z"/>
		<path class="st0" d="M13.3,143.2c0.5-0.5,0.6-0.7,1.1-1.2c0.7,0.6,0.9,0.7,1.5,1.3c0.1,0.1,0.1,0.1,0.1,0.1c0,0.1-0.1,0.1-0.2,0.1
			H5.1c-1.5,2.3-2.4,3.4-4.1,4.9l-0.2-0.2c1.4-1.7,2.3-3,3.2-5c0.4-1,0.6-1.6,0.8-2.4c0.8,0.2,1.7,0.4,1.9,0.5
			c0.1,0.1,0.2,0.1,0.2,0.2c0,0.2-0.2,0.3-0.8,0.4c-0.3,0.5-0.4,0.7-0.7,1.2H13.3z M4,149.5c1.4,0.7,2.4,1.2,3.7,2.2
			c0.9-1.1,1.5-1.9,2-3.1c1.5,0.7,1.7,0.8,1.7,1c0,0.1-0.2,0.2-0.4,0.2c-0.1,0-0.2,0-0.4,0c-1.2,1.6-1.6,1.9-2.1,2.5
			c2.3,1.7,2.7,2.1,2.7,3c0,0.6-0.1,0.9-0.3,0.9c-0.1,0-0.3-0.1-0.5-0.4c-0.6-0.9-1.6-1.9-2.5-2.8c-0.8,0.8-1.7,1.4-2.7,2.1
			c-1.2,0.7-2.1,1.1-3.7,1.7l-0.1-0.3c2.4-1.2,4-2.3,5.7-4.1c-0.2-0.2-0.2-0.2-3.3-2.6L4,149.5z M2.8,147.6c0.6,0.1,1.2,0.1,2.1,0.1
			h7.9c0.3-0.3,0.3-0.4,0.6-0.8c0.4,0.3,0.6,0.4,1,0.8c0.2,0.1,0.2,0.2,0.2,0.3c0,0.1-0.2,0.3-0.6,0.5c0,0.5,0,0.8,0,1
			c0,1.2,0.2,2.4,0.5,3.4c0.3,0.8,0.6,1.3,1.2,1.9c0.4-1,0.5-1.3,1-3.1l0.3,0.1l-0.3,2.7c-0.1,0.5-0.1,0.7-0.1,0.7
			c0,0.2,0,0.2,0.3,0.5c0.2,0.2,0.3,0.4,0.3,0.5c0,0.3-0.2,0.5-0.5,0.5c-0.5,0-1.3-0.6-2-1.4c-0.8-0.9-1.2-1.8-1.5-3.2
			c-0.2-0.9-0.3-2.1-0.3-3.2c0-0.2,0-0.5,0-0.8h-8c-1.5,0-1.5,0-1.9,0.1L2.8,147.6z M4.8,145.3c0.6,0.1,1.1,0.1,1.6,0.1h5.4
			c0.4-0.5,0.6-0.6,1-1.1c0.7,0.5,0.9,0.7,1.5,1.2c0.1,0.1,0.1,0.1,0.1,0.1c0,0.1-0.1,0.1-0.2,0.1H6.3c-0.1,0-0.6,0-1.5,0.1
			L4.8,145.3z"/>
		<path class="st0" d="M5.1,172.2v2.1h1.5c0.4-0.4,0.6-0.6,1-1c0.5,0.5,0.7,0.6,1.3,1.2c0,0.1,0.1,0.1,0.1,0.1
			c0,0.1-0.1,0.1-0.2,0.1H5.1c0,2.5,0,2.5,0,3.3c0,0.2-0.2,0.3-0.8,0.3c-0.2,0-0.3,0-0.3-0.2c0-0.5,0.1-1.6,0.1-3.4H2
			c-0.5,0-0.8,0-1.4,0.1l-0.1-0.7c0.5,0.1,0.9,0.2,1.5,0.2h2.1c0-0.3,0-0.3,0-2.1H2.5v0.7c0,0.2-0.1,0.2-0.5,0.2c-0.1,0-0.2,0-0.3,0
			h0c-0.1,0-0.2,0-0.2-0.2c0.1-1.5,0.1-1.5,0.1-5.7c0-0.6,0-1-0.1-1.7c0.6,0.3,0.8,0.4,1.3,0.7h1.3v-1.8H2.2c-0.8,0-0.8,0-1.2,0.1
			L0.9,164c0.3,0.1,0.9,0.2,1.4,0.2h1.9v-0.6c0-1,0-1.1-0.1-1.7c1.7,0.2,1.9,0.3,1.9,0.4c0,0.2-0.2,0.3-0.8,0.4v1.5h1.3
			c0.4-0.4,0.5-0.6,0.9-1c0.6,0.5,0.8,0.6,1.3,1.1c0.1,0.1,0.1,0.1,0.1,0.2c0,0.1-0.1,0.1-0.2,0.1H5.1v1.8h1.5
			C7,166,7,166,7.3,165.7c0.4,0.3,0.5,0.4,0.8,0.7c0.2,0.2,0.2,0.2,0.2,0.3c0,0.1,0,0.1-0.6,0.4v2.4c0,1.6,0,1.9,0.1,3.2
			c0,0.1-0.1,0.2-0.2,0.2c-0.1,0-0.6,0.1-0.7,0.1c-0.1,0-0.2-0.1-0.2-0.2v-0.6H5.1z M4.1,166.8H2.5v2.2h1.5V166.8z M4.1,169.4H2.5
			v2.4h1.5V169.4z M6.7,166.8H5.1v2.2h1.6V166.8z M6.7,169.4H5.1v2.4h1.6V169.4z M11.7,171.4c0-0.7,0-1-0.1-1.7c1.7,0.2,2,0.3,2,0.5
			c0,0.1-0.1,0.2-0.8,0.4v2.1h1.7c0.4-0.5,0.5-0.7,1-1.2c0.6,0.6,0.8,0.7,1.5,1.3c0.1,0.1,0.1,0.1,0.1,0.2c0,0.1-0.1,0.1-0.2,0.1h-4
			v3.8H15c0.5-0.6,0.6-0.7,1.1-1.3c0.6,0.6,0.8,0.8,1.4,1.4c0.1,0.1,0.1,0.1,0.1,0.2c0,0.1-0.1,0.1-0.2,0.1H8.7
			c-0.5,0-0.7,0-1.2,0.1l-0.1-0.7c0.5,0.1,0.8,0.2,1.3,0.2h3.1v-3.8H9.6c-0.4,0-0.7,0-1,0.1l-0.1-0.7c0.4,0.1,0.7,0.1,1.1,0.1h2.1
			V171.4z M14.6,163.1c0.3-0.4,0.4-0.5,0.8-0.8c0.5,0.4,0.6,0.5,1.1,0.8c0.2,0.1,0.2,0.2,0.2,0.3c0,0.1-0.1,0.2-0.8,0.4
			c-0.9,1.7-1.6,2.5-2.7,3.5c1.3,0.9,2.4,1.3,4.4,1.6v0.3c-0.6,0.2-0.8,0.4-1,1c-1.8-0.7-3-1.4-4.1-2.3c-1.3,1-2.3,1.6-4.2,2.5
			l-0.2-0.3c2.3-1.5,2.8-1.8,3.8-2.8c-1.1-1.2-2-2.7-2.3-3.9c-0.6,0-0.8,0-1.2,0.1L8.3,163c0.5,0.1,0.7,0.2,1.3,0.2H14.6z M10,163.5
			c1.2,2.1,1.5,2.5,2.5,3.3c1.2-1.4,1.7-2,2.2-3.3H10z"/>
		<path class="st0" d="M4.5,198.2c2.8-2.4,4.4-4.2,6-6.9c1.2-2,2.1-4.2,2.1-4.8c0-0.2-0.1-0.2-0.4-0.2c-0.3,0-2,0.3-3.3,0.6
			c-1.4,0.3-2.5,0.7-3.3,1C5.3,188,5.1,188,4.9,188c-0.4,0-0.8-0.4-1.3-1c-0.3-0.4-0.5-0.8-0.5-1.1c0-0.1,0-0.2,0.1-0.4
			c0.3,0.7,0.9,1,1.7,1c0.6,0,2-0.2,5.1-0.7c1.6-0.3,1.7-0.3,2.1-0.5c0.2-0.1,0.2-0.1,0.4-0.1c0.3,0,0.8,0.3,1.3,0.8
			c0.4,0.4,0.6,0.6,0.6,0.9c0,0.2,0,0.3-0.3,0.5c-0.3,0.3-0.3,0.4-0.6,1c-2.4,4.8-5.2,8-8.9,10L4.5,198.2z M18,184.4
			c0,1.1-0.9,2-2,2c-1.1,0-2-0.9-2-2c0-1.1,0.9-2,2-2C17.2,182.4,18,183.3,18,184.4z M14.7,184.4c0,0.8,0.6,1.4,1.4,1.4
			c0.8,0,1.4-0.6,1.4-1.4c0-0.8-0.6-1.4-1.4-1.4C15.3,183,14.7,183.6,14.7,184.4z"/>
		<path class="st0" d="M5.7,219c1.8-1.4,2.9-2.5,4.1-4c1.5-1.9,2.5-3.8,3-5.5c-1.7,0.1-3.4,0.4-5.2,0.8c-1.1,0.3-1.5,0.4-1.9,0.6
			c-0.3,0.1-0.4,0.2-0.5,0.2c-0.6,0-1.7-1.3-1.7-2.1c0-0.1,0-0.2,0.1-0.3c0.4,0.7,0.9,1,1.6,1c0.7,0,3.7-0.4,6.1-0.8
			c1-0.2,1.1-0.2,1.5-0.4c0.1-0.1,0.2-0.1,0.3-0.1c0.2,0,0.4,0.2,0.8,0.5c0.5,0.5,0.7,0.8,0.7,1c0,0.1-0.1,0.3-0.3,0.5
			c-0.3,0.2-0.4,0.3-0.7,0.9c-1.9,3.7-4.8,6.6-7.8,7.9L5.7,219z M5.5,205.1c0.6,0.7,1.2,1,1.9,1c1.2,0,3.4-0.5,4.1-0.9
			c0.1-0.1,0.2-0.1,0.4-0.1c0.5,0,1.4,0.6,1.4,1c0,0.2-0.2,0.3-0.7,0.4c-2.1,0.3-3.6,0.5-4.6,0.5c-1.4,0-1.9-0.3-2.8-1.7L5.5,205.1z
			"/>
		<path class="st0" d="M3.4,227.5c1.7,0.4,2.8,0.8,3.5,1.4c0.4,0.3,0.6,0.7,0.6,1.2c0,0.6-0.2,1-0.5,1c-0.2,0-0.3-0.1-0.8-0.7
			c-0.9-1.2-1.5-1.8-2.9-2.6L3.4,227.5z M16.2,228.5c-0.9,1.7-2,3.1-3.8,4.8c-1.7,1.6-2.8,2.5-5.1,4.1c-0.8,0.6-0.9,0.7-1.1,0.8
			c-0.3,0.3-0.4,0.4-0.6,0.4c-0.7,0-2.1-1.7-2.1-2.6c0-0.1,0-0.2,0.1-0.4c0.4,0.5,0.4,0.6,0.6,0.8c0.3,0.3,0.5,0.4,0.7,0.4
			c0.3,0,0.9-0.2,1.7-0.8c2-1.2,2.7-1.7,4.3-3c2.2-1.8,3.3-2.9,4.8-4.8L16.2,228.5z"/>
		<path class="st0" d="M2.4,249.6c0.3,0.2,0.5,0.3,0.8,0.3c0.5,0,1-0.1,5-1.1c0.6-0.2,1.7-0.4,2.9-0.6c1.3-0.3,1.9-0.4,2.4-0.6
			c0.4-0.1,0.5-0.1,0.6-0.1c0.2,0,0.6,0.2,1,0.4c0.4,0.2,0.5,0.4,0.5,0.7c0,0.3-0.2,0.5-0.6,0.5c-0.1,0-0.2,0-0.3,0
			c-0.2,0-0.3,0-0.5,0c-3.1,0-6,2.9-6,6c0,1.6,0.8,2.9,2.4,3.5c0.6,0.3,1.3,0.4,1.8,0.4c0.4,0,0.5,0.1,0.8,0.3
			c0.3,0.3,0.5,0.6,0.5,0.9c0,0.3-0.3,0.5-0.6,0.5c-1,0-2.7-0.6-3.7-1.3c-1.4-1-2.1-2.4-2.1-4c0-1.5,0.7-3.1,2-4.4
			c0.7-0.8,1.4-1.3,2.9-2.1c-2.2,0.3-6.4,1.5-8,2.4c-0.4,0.2-0.5,0.3-0.7,0.3c-0.4,0-1-0.4-1.4-1.1c-0.3-0.4-0.5-0.9-0.5-1.2
			c0-0.1,0-0.3,0.2-0.5C2,249.2,2.1,249.4,2.4,249.6z M13.1,251.3c0.7,0.4,1.2,0.7,1.6,1.1c0.6,0.6,0.9,1,0.9,1.4
			c0,0.4-0.3,0.8-0.6,0.8c-0.2,0-0.2,0-0.8-1.2c-0.3-0.6-0.9-1.4-1.4-1.9L13.1,251.3z M15,250.2c0.6,0.3,1.2,0.6,1.7,1
			c0.7,0.5,0.9,0.9,0.9,1.4c0,0.4-0.2,0.7-0.5,0.7c-0.2,0-0.3-0.1-0.4-0.3c-0.6-1.1-1-1.6-2-2.6L15,250.2z"/>
		<path class="st0" d="M6.4,282c2.1-1.4,3-2.6,3.4-4.5c-0.4,0.3-0.7,0.4-1.2,0.4c-1.3,0-2.2-1.1-2.2-2.6c0-1.6,1-2.8,2.3-2.8
			c0.3,0,0.5,0.1,1,0.3c0-0.3,0-1.3,0-1.9c0,0,0-0.2,0-0.4c-1.4,0.1-3.1,0.5-4.5,0.9c-0.5,0.1-0.8,0.3-1.2,0.5
			c-0.1,0-0.3,0.1-0.4,0.1c-0.3,0-0.7-0.3-1.2-0.7c-0.4-0.4-0.7-1-0.7-1.3c0,0,0-0.1,0.1-0.2c0.5,0.6,1,0.9,1.7,0.9
			c0.4,0,0.8,0,1.5-0.2c2.1-0.3,2.8-0.4,4.6-0.6c0-1.1-0.1-1.6-0.2-2c-0.2-0.5-0.6-0.8-1.5-0.9c0.2-0.3,0.3-0.3,0.8-0.3
			c0.6,0,1.2,0.1,1.7,0.3c0.4,0.1,0.7,0.4,0.7,0.6c0,0.1,0,0.2-0.2,0.5c-0.2,0.4-0.3,0.9-0.4,1.7c0.5-0.1,0.5-0.1,1.2-0.1
			c1.7-0.1,1.9-0.2,2.4-0.3c0.5-0.2,0.5-0.2,0.7-0.2c0.4,0,1.1,0.3,1.5,0.7c0.2,0.2,0.3,0.3,0.3,0.5c0,0.2-0.1,0.3-0.4,0.3
			c-0.1,0-0.2,0-1-0.1c-0.9-0.1-1.7-0.2-2.8-0.2c-0.7,0-1.2,0-1.9,0.1c-0.1,0.7-0.1,1.8-0.1,2.4c0,0.1,0,0.3,0,0.6
			c0.4,0.9,0.6,1.5,0.6,2.4c0,1.8-0.7,3.4-1.9,4.6c-0.7,0.6-1.6,1.2-2.7,1.7L6.4,282z M8.7,273c-0.8,0-1.4,0.8-1.4,1.9
			c0,1.1,0.6,2,1.5,2c0.8,0,1.2-0.6,1.2-1.7C9.8,273.7,9.5,273,8.7,273z"/>
		<path class="st0" d="M17.7,289.7c0,1.3-1,2.3-2.3,2.3c-1.3,0-2.3-1-2.3-2.3c0-1.3,1-2.3,2.3-2.3C16.6,287.4,17.7,288.4,17.7,289.7
			z M13.6,289.7c0,1,0.8,1.7,1.7,1.7c1,0,1.7-0.8,1.7-1.7c0-1-0.8-1.7-1.7-1.7C14.4,287.9,13.6,288.7,13.6,289.7z"/>
	</g>
</g>
<line class="st1" x1="212.1" y1="29.3" x2="212.1" y2="89.3"/>
</svg>
