<?xml version="1.0" encoding="utf-8"?>
<!-- Generator: Adobe Illustrator 25.2.3, SVG Export Plug-In . SVG Version: 6.00 Build 0)  -->
<svg version="1.1" id="レイヤー_1" xmlns="http://www.w3.org/2000/svg" xmlns:xlink="http://www.w3.org/1999/xlink" x="0px"
	 y="0px" viewBox="0 0 114 200.7" style="enable-background:new 0 0 114 200.7;" xml:space="preserve">
<style type="text/css">
	.st0{fill:#210100;}
	.st1{fill:none;stroke:#76544B;stroke-miterlimit:10;}
	.st2{fill:#FFFFFF;}
</style>
<g>
	<rect x="48.9" class="st0" width="55" height="180"/>
	<rect x="11.1" y="108.7" class="st0" width="55" height="92"/>
	<line class="st1" x1="76.5" y1="0" x2="76.5" y2="30"/>
	<g>
		<g>
			<path class="st2" d="M69.5,59.9c-0.1,0.2-0.5,1.1-0.5,1.3c-0.9,1.9-1.7,2.7-1.8,2.7c0,0-0.1,0-0.1-0.1c0,0,0.2-0.5,0.2-0.5
				c0.6-1.7,1-3,1-4c0-0.3,0-0.5,0.2-0.5c0.1,0,1.4,0.3,1.3,0.6C69.9,59.5,69.6,59.8,69.5,59.9z M70.3,60.2v-2.4
				c0-0.2-0.1-0.3-0.3-0.3c0,0-1.3,0.3-1.3,0.3c-0.1,0.1-0.4,0.4-0.5,0.4c-0.4,0-0.7-1.6-0.7-1.8c0-0.1,0.1-0.2,0.2-0.2
				c0.1,0,0.5,0.1,0.6,0.2c0.3,0.1,0.9,0.1,1,0.1c0.3,0,0.4-0.1,0.6-0.4c0.6-1,1.7-3.3,1.9-4.1c0.1-0.5,0.2-0.7,0.3-0.7
				c0.3,0,1.5,0.7,1.5,1c0,0.1-0.1,0.2-0.2,0.2c-0.3,0.1-0.5,0.1-0.7,0.4c-0.2,0.2-1.7,2.2-2,2.6c-0.2,0.3-0.6,0.8-0.6,0.9
				c0,0.1,0.2,0.1,0.3,0.1c0.4,0,2-0.1,2.1-0.1c0.1,0,0.2,0,0.2-0.2c0-0.1-0.3-1.1-0.4-1.2c0-0.1-0.1-0.2-0.1-0.3s0-0.1,0-0.1
				c0.1,0,1.8,1.2,1.8,2.2c0,0.5-0.3,0.9-0.7,0.9c-0.4,0-0.5-0.4-0.5-0.6c0-0.2-0.1-0.3-0.2-0.3c-0.1,0-1,0.2-1.1,0.4
				c-0.1,0.1-0.1,3.4-0.1,3.9s0.1,2.6,0.1,3.1c0,0.3,0,1.2-0.9,1.2c-0.3,0-0.5-0.3-0.5-0.5C70,64.7,70.3,60.9,70.3,60.2z M70.2,52.5
				c0.1,0.1,0.3,0.5,0.3,0.8c0,0.6-0.5,0.8-0.6,0.8c-0.2,0-0.3-0.2-0.4-0.4c-0.1-0.2-0.5-0.9-0.6-1.1c-0.1-0.3-1.1-1.4-1.1-1.4
				s0,0,0.1,0c0.3,0,1.4,0.6,1.5,0.6c0.2,0,0.3-0.1,0.5-0.6c0.5-0.9,0.8-1.5,0.8-2.2c0-0.1,0-0.3,0.2-0.3c0.2,0,1.6,0.7,1.6,0.9
				c0,0.2-0.1,0.2-0.5,0.3c-0.2,0.1-0.3,0.1-0.9,0.8C70.9,51,70,51.9,70,52.1C70,52.2,70,52.2,70.2,52.5z M73.3,62.3
				c-0.4,0-0.5-0.4-0.6-1.1c-0.1-0.3-0.3-1.5-0.4-1.8c0-0.1-0.1-0.3-0.1-0.4s0,0,0,0c0.4,0,1.5,1.3,1.7,2.1
				C74,61.7,73.7,62.3,73.3,62.3z M76.8,59.2c-0.5,0-0.5,0.3-0.5,0.8c0,0.7,0,3,0.2,3.3c0.2,0.3,0.7,0.4,0.9,0.4
				c0.5,0.1,1.9,0.1,2.6,0.1c0.5,0,2.7,0,2.9-0.3c0.4-0.4,0.6-1.5,0.7-1.5c0-0.1,0.1-0.3,0.1-0.3c0.1,0,0.2,1.3,0.3,1.5
				c0.1,0.1,0.4,0.7,0.4,0.8c0,0.2-0.2,0.4-0.4,0.5C83.6,64.7,83,65,79.7,65c-1,0-3.2,0-3.9-0.5c-0.7-0.5-0.7-1.2-0.7-3.8v-4.9
				c0-0.2-0.1-1.1-0.3-1.1c-0.1,0-0.8,0.4-1,0.4l-0.1,0c0.1-0.1,0.3-0.3,0.4-0.3c2.1-1.6,3.4-4.3,3.5-5.3c0-0.4,0-0.5,0.2-0.5
				c0.3,0,1.4,0.6,1.4,1c0,0.1-0.1,0.2-0.3,0.3c-0.1,0-0.2,0.3-0.2,0.4c0,0.2,0.2,0.2,0.3,0.2h1.5c0.2,0,0.4,0,0.7-0.3
				s0.3-0.3,0.4-0.3c0.3,0,1.2,1,1.2,1.3c0,0.1-0.1,0.2-0.5,0.2c-0.3,0.1-0.5,0.3-0.9,0.8c-0.5,0.5-1.3,1.4-1.8,2
				c-0.1,0.1-0.2,0.2-0.2,0.3c0,0.1,0.2,0.1,0.3,0.1h1.7c0.3,0,0.4,0,0.7-0.3c0.1-0.1,0.2-0.2,0.3-0.2c0.1,0,1,0.5,1.1,0.6
				c0.1,0.1,0.2,0.2,0.2,0.3c0,0.1,0,0.2-0.4,0.4c-0.2,0.1-0.2,0.5-0.2,0.9c0,0.4,0.1,2.1,0.1,2.4c0,0.4,0,1-1,1
				c-0.3,0-0.3-0.3-0.4-0.5c-0.1-0.3-0.2-0.4-0.5-0.4H76.8z M78.7,51.3c-0.3,0-0.5,0-0.7,0.3c-1.3,1.7-2.3,2.4-2.4,2.5
				c-0.1,0.1-0.2,0.1-0.2,0.2c0,0.1,0.4,0.3,0.5,0.4C76.4,55,76.5,55,77,55h1.1c0.5,0,0.6-0.1,1-0.5c0.9-1.1,1.7-2.6,1.7-2.9
				c0-0.3-0.3-0.3-0.4-0.3H78.7z M78.1,58.8c0.5,0,0.5-0.1,0.5-1.5c0-1.6,0-1.7-0.5-1.7h-1.2c-0.5,0-0.5,0.1-0.5,1.5
				c0,1.7,0,1.8,0.5,1.8H78.1z M80.3,55.5c-0.6,0-0.6,0.2-0.6,1.2c0,0.3,0,1.7,0.1,1.8c0.1,0.2,0.3,0.2,0.5,0.2h1.1
				c0.6,0,0.6-0.1,0.6-2.3c0-0.8,0-1-0.6-1H80.3z"/>
			<path class="st2" d="M73.8,82.5c0,0.2-0.1,0.2-0.4,0.3c-0.2,0-0.4,0.1-0.7,0.3c-1,0.7-2.8,1.8-4.5,2.4c-0.1,0-0.5,0.2-0.6,0.2
				c0,0,0,0,0,0c0-0.1,0.5-0.3,0.5-0.4c1.1-0.7,3.1-2.1,4-3.4c0.1-0.1,0.2-0.4,0.3-0.4c0,0,0.1,0,0.1,0c0.2,0,0.5,0.2,0.7,0.4
				C73.4,82,73.8,82.3,73.8,82.5z M78.8,70.1c0.2,0,0.4,0,0.6-0.2c0.3-0.3,0.3-0.3,0.4-0.3c0.1,0,1.3,0.6,1.3,0.9
				c0,0.1,0,0.1-0.3,0.3c-0.2,0.1-0.2,0.2-0.2,0.6V73c0,0.1,0.1,0.8,0.1,1c0,0.6-0.4,0.9-0.8,0.9c-0.3,0-0.3,0-0.5-0.4
				c-0.1-0.3-0.3-0.3-0.5-0.3h-2.5c-0.1,0-0.1,0-0.1,0.1c0,0.1,0.1,0.1,0.2,0.2c0.2,0.1,0.3,0.2,0.3,0.3c0,0.1-0.1,0.2-0.3,0.3
				c-0.1,0.1-0.2,0.2-0.2,0.6c0,0.3,0.3,0.3,0.4,0.3h3.9c0.4,0,0.7,0,0.9-0.1c0.2-0.1,0.8-0.9,1-0.9c0.2,0,1.4,0.8,1.4,1.2
				c0,0.3-0.2,0.3-0.7,0.3H70.8c-0.5,0-1.4,0-2.1,0c-0.1,0-0.5,0.1-0.5,0.1c-0.1,0-0.1,0-0.2-0.1L67.7,76c-0.1-0.1-0.1-0.1-0.1-0.1
				s0,0,0.1,0c0.1,0,0.7,0.1,0.8,0.1c0.5,0,1.5,0.1,2.5,0.1h3.7c0.5,0,0.5-0.4,0.5-0.5c0-1.1-0.1-1.3-0.6-1.3h-1.9
				c-0.2,0-0.4,0-0.5,0.3c-0.3,0.4-0.7,0.4-0.7,0.4c-0.5,0-0.5-0.4-0.5-0.6c0-0.2,0.1-2,0.1-2.4c0-0.8,0-1.1,0-1.3
				c0-0.1-0.1-0.7-0.1-0.8c0-0.2,0.2-0.2,0.3-0.2c0.2,0,0.3,0,1,0.4c0.1,0,0.3,0.1,0.6,0.1H78.8z M72.8,80.9c-0.1,0-0.3,0-0.4,0.2
				c-0.2,0.3-0.3,0.4-0.7,0.4c-0.3,0-0.5-0.1-0.5-0.4c0-0.1,0.1-0.6,0.1-0.7c0-0.4,0-0.8,0-1.2c0-0.3,0-0.7,0-1
				c0-0.1-0.1-0.4-0.1-0.5c0-0.2,0.2-0.2,0.2-0.2c0.2,0,0.8,0.3,1.1,0.4c0.2,0.1,0.4,0.1,0.6,0.1h5.7c0.1,0,0.2,0,0.4-0.1
				c0.1,0,0.5-0.3,0.6-0.3c0.2,0,1.2,0.6,1.2,0.9c0,0.1-0.1,0.1-0.2,0.3c-0.2,0.1-0.2,0.2-0.2,0.7c0,0.2,0.1,1.2,0.1,1.4
				c0,0.5-0.4,0.7-0.8,0.7c-0.2,0-0.3,0-0.5-0.5c-0.1-0.2-0.3-0.2-0.5-0.2H77c-0.5,0-0.5,0.1-0.5,1.6c0,0.1,0.1,1.4,0.1,1.6
				c0,0.4,0,1.7-1.3,1.7c-0.2,0-0.3,0-0.5-0.2c-0.5-0.5-0.5-0.6-0.8-0.8c-0.1-0.1-0.4-0.3-0.6-0.4c0-0.1,0.1-0.1,0.1-0.1
				c0.1,0,1,0.1,1.1,0.1c0.5,0,0.7-0.1,0.7-0.6v-2.5c0-0.4-0.3-0.5-0.5-0.5H72.8z M72.7,70.5c-0.5,0-0.5,0.3-0.5,0.5
				c0,0.6,0,0.8,0.5,0.8H79c0.1,0,0.5,0,0.5-0.4c0-0.7,0-0.9-0.5-0.9H72.7z M72.7,72.3c-0.1,0-0.5,0-0.5,0.4c0,0.9,0,1,0.5,1H79
				c0.1,0,0.5,0,0.5-0.4c0-0.9,0-1-0.5-1H72.7z M78.6,80.4c0.5,0,0.5-0.1,0.5-1.3c0-0.4,0-0.7-0.5-0.7H73c-0.5,0-0.5,0.1-0.5,1.2
				c0,0.5,0,0.8,0.5,0.8H78.6z M82.3,84.6c0,0.6-0.5,0.8-0.7,0.8c-0.2,0-0.5-0.2-1-0.9c-0.7-0.9-1.1-1.3-2.3-2
				c-0.1-0.1-0.3-0.2-0.3-0.2s0.1,0,0.1,0c0.2,0,1.1,0.2,1.4,0.3C81.1,82.9,82.3,83.8,82.3,84.6z"/>
			<path class="st2" d="M70.3,99.5c0-0.5,0.5-1.1,1.7-2.5c0.8-0.9,1.5-2.4,1.5-2.7c0-0.1-0.1-0.1-0.2-0.1c-0.2,0-0.9,0.1-1.1,0.1
				c-0.7,0-1.6-0.9-1.6-1.6c0-0.1,0-0.1,0.1-0.1c0.1,0,0.6,0.3,0.7,0.3c0.2,0.1,0.7,0.3,1.2,0.3c1.5,0,1.5-0.5,1.5-0.8
				c0-0.1,0-0.4-0.1-0.6c-0.1-0.1-0.4-0.4-0.4-0.5c0-0.1,0.5-0.3,0.8-0.3c0.4,0,0.9,0.2,0.9,0.6c0,0.2,0.1,0.3,0.8,0.3
				c0.1,0,0.8,0.1,0.8,0.5c0,0.6-1.3,1.1-2.1,1.4c-0.3,0.1-0.3,0.1-0.7,1.1c-0.4,1-0.5,1.1-1,1.9C73,96.9,73,97,73,97.1
				c0,0,0,0.1,0.1,0.1s0.4-0.1,0.6-0.2c0.2-0.1,0.4-0.1,0.7-0.1c0.2,0,1.1,0,1.5,1.1c0.1,0.3,0.1,0.3,0.2,0.3c0.1,0,0.6-0.8,0.7-1
				c0.6-0.8,1.8-2.5,3.3-2.5c1,0,1.7,0.8,1.7,1.6c0,0.8-1.4,1.4-2.5,1.9c-0.5,0.2-2.5,1-2.8,1.2c-0.3,0.2-0.3,0.4-0.3,0.8
				c0,0.2,0,0.9,0,1.1c0,0.3,0,1.3-0.7,1.3c-0.5,0-0.6-0.6-0.6-0.9c0-0.2,0.1-1,0.1-1.1c0-0.1,0-0.2-0.1-0.2c-0.1,0-1.7,1.1-1.7,2.1
				c0,1.2,1.8,1.2,2.3,1.2c0.5,0,0.8,0,1.2-0.1c0.3,0,1.4-0.3,1.6-0.3c0.4,0,0.9,0.2,0.9,0.6c0,1.1-2.8,1.2-3.2,1.2
				c-2.3,0-3.5-0.9-3.5-2.4c0-1.2,0.7-1.7,2.4-3.1c0.2-0.1,0.3-0.4,0.3-0.6c0-0.8-0.1-1.8-0.9-1.8c-0.7,0-1.7,0.8-2.2,1.9
				c-0.2,0.5-0.4,0.9-1,0.9C70.7,100.1,70.3,100,70.3,99.5z M74.9,92.7c0,0,0.9-0.2,0.9-0.4c0-0.2-0.5-0.3-0.6-0.3
				c-0.3,0-0.3,0.5-0.3,0.6C74.9,92.7,74.9,92.7,74.9,92.7z M76.6,98.6C76.6,98.6,76.6,98.6,76.6,98.6c0.1,0.1,3.7-1.4,3.7-2.5
				c0-0.4-0.4-0.5-0.6-0.5C78.1,95.5,76.6,98.3,76.6,98.6z"/>
			<path class="st2" d="M76.9,123.1c-0.5,0-0.5,0.4-0.5,0.5c0,0.3,0,1.6,0.1,1.7c0.1,0.2,0.4,0.2,0.5,0.2h3.6c0.8,0,0.9,0,1.2-0.4
				c0.4-0.6,0.5-0.6,0.6-0.6c0.2,0,1.5,1,1.5,1.3c0,0.3-0.3,0.3-1,0.3H71.1c-0.4,0-1.6,0-2.3,0.1c-0.1,0-0.3,0-0.4,0
				c-0.1,0-0.1,0-0.2-0.1l-0.3-0.4c0-0.1-0.1-0.1-0.1-0.1c0,0,0,0,0.1,0c0.1,0,0.7,0.1,0.8,0.1c0.5,0,1.4,0.1,2.5,0.1h3.3
				c0.2,0,0.5,0,0.6-0.3c0-0.1,0-1,0-1.5c0-0.5-0.1-0.6-0.6-0.6h-1.5c-0.4,0-1.6,0-2.3,0.1c-0.1,0-0.3,0-0.4,0c-0.1,0-0.1,0-0.2-0.1
				l-0.3-0.4c-0.1-0.1-0.1-0.1-0.1-0.1c0,0,0,0,0.1,0c0.1,0,0.7,0.1,0.8,0.1c0.5,0,1.5,0.1,2.5,0.1h1.4c0.2,0,0.6,0,0.6-0.5
				c0-0.3,0-1.6-0.1-1.7c-0.1-0.2-0.3-0.2-0.6-0.2h-2.4c-0.4,0-1.6,0-2.3,0.1c-0.1,0-0.3,0-0.4,0c-0.1,0-0.1,0-0.2-0.1l-0.4-0.4
				c-0.1-0.1-0.1-0.1-0.1-0.1c0,0,0,0,0.1,0c0.1,0,0.7,0.1,0.8,0.1c0.5,0,1.4,0.1,2.5,0.1h7.7c0.6,0,0.6,0,0.8-0.1
				c0.2-0.1,0.9-0.7,1-0.7c0.1,0,1.3,0.7,1.3,1.1c0,0.3-0.1,0.3-1,0.3h-5.2c-0.5,0-0.5,0.1-0.5,1.9c0,0.4,0.2,0.5,0.5,0.5h2.2
				c0.9,0,1,0,1.2-0.4c0.3-0.4,0.4-0.5,0.5-0.5c0.2,0,1.2,0.9,1.2,1.1c0,0.2-0.4,0.2-1,0.2H76.9z M71.1,113.6
				c-0.5,0-0.6,0.1-0.6,1.8c0,1.5,0.1,1.7,1,1.7c0.3,0,1.1,0,2.4-0.1c0.2,0,1-0.1,1.1-0.1c0.3,0,0.4,0.1,0.4,0.3
				c0,0.3-0.3,0.7-0.5,0.8c-0.5,0.2-2.6,0.2-3.3,0.2c-2.2,0-2.2-0.3-2.2-2.5c0-0.2,0-1.7,0-1.8c-0.1-0.1-0.1-0.2-0.3-0.2
				c-0.1,0-0.5,0.1-0.5,0.1c-0.1,0-0.1-0.1-0.1-0.1l-0.4-0.4c-0.1-0.1-0.1-0.1-0.1-0.1c0,0,0-0.1,0.1-0.1c0.1,0,0.7,0.1,0.8,0.1
				c1.4,0.1,2,0.1,2.6,0.1c0.5,0,0.5-0.4,0.5-0.8c0-0.2,0-0.8-0.1-1.3c0-0.1-0.1-0.3-0.1-0.4c0-0.1,0.1-0.2,0.2-0.2
				c0.1,0,0.2,0,1.3,0.3c0.3,0.1,0.4,0.1,0.4,0.3c0,0.1-0.4,0.4-0.4,0.5c-0.1,0.1-0.1,0.2-0.1,1c0,0.4,0.2,0.5,0.5,0.5
				c0.9,0,1,0,1.2-0.3c0.3-0.5,0.3-0.5,0.5-0.5c0.2,0,1.2,0.9,1.2,1.1c0,0.3-0.3,0.3-1,0.3H71.1z M78.4,115.7
				c-0.4,0-0.5,0.1-0.6,0.5c-1.1,2.4-2.8,2.7-2.9,2.7c-0.1,0-0.1,0-0.1-0.1c0-0.1,0.4-0.4,0.5-0.4c0.4-0.4,1.9-2.1,1.9-4.8
				c0-0.6,0-0.8-0.1-1.7c0-0.4-0.1-0.6-0.1-0.7c0-0.1,0-0.2,0.1-0.2c0.1,0,1.1,0.4,1.2,0.5c0.2,0.1,0.3,0.1,0.5,0.1h2.5
				c0.1,0,0.2,0,0.3-0.1c0.1-0.1,0.5-0.5,0.6-0.5c0.1,0,1.3,0.7,1.3,1c0,0.1-0.5,0.4-0.5,0.4c-0.1,0.1-0.1,0.6-0.1,0.9
				c0,0.1-0.1,2.8-0.4,4.2c-0.3,1-1.1,1.5-1.6,1.5c-0.3,0-0.4-0.1-0.8-0.6c-0.2-0.3-0.5-0.4-0.6-0.5c-0.1-0.1-0.3-0.2-0.3-0.3
				c0-0.1,0.1-0.1,0.1-0.1c0.1,0,0.2,0,0.3,0.1c0.3,0.1,0.8,0.1,1,0.1c0.5,0,0.7-0.1,0.8-0.7c0-0.1,0.1-0.6,0.1-0.7
				c0-0.4-0.4-0.4-0.5-0.4H78.4z M81.1,115.2c0.4,0,0.5,0,0.5-0.9c0-0.4-0.3-0.4-0.4-0.4h-2.5c-0.3,0-0.6,0-0.6,0.9
				c0,0.4,0.3,0.4,0.5,0.4H81.1z M78.9,112c-0.3,0-0.6,0-0.6,0.4c0,0.9,0,1,0.5,1h2.4c0.5,0,0.5-0.2,0.5-1c0-0.5-0.3-0.5-0.6-0.5
				H78.9z"/>
			<path class="st2" d="M74,132.7c0.1,0.6,0.2,0.8,0.6,0.8c0.8,0.1,1.2,0.1,1.2,0.7c0,0.5-0.4,0.7-1,1c-0.2,0.1-1,0.3-1.2,0.4
				c-0.3,0.2-0.3,1.3-0.3,1.5c0,0.2,0.1,0.3,0.2,0.4c0.4,0.5,0.6,0.7,0.6,1.5c0,1.4-0.8,2.2-1,2.3c-0.2,0.1-0.3,0.2-0.3,0.4
				c0,0.2,0.2,0.9,0.2,1.1c0,0.1,0,0.4-0.4,0.6c-0.3,0.2-0.4,0.2-0.4,0.4c0,0.9,1,1.3,3,1.3c3.3,0,3.7-0.9,3.7-4
				c0-1.6,0.1-4.8,2-4.8c1.1,0,2.3,2.1,2.3,3.2c0,0.6-0.4,0.8-0.6,0.8c-0.1,0-0.7-0.4-0.9-0.5c-0.2-0.1-1.1-0.3-1.1-0.4
				c0-0.1,0.6-0.3,0.7-0.3c0.3-0.1,0.3-0.3,0.3-0.6c0-0.8-0.5-1.6-1.1-1.6c-1,0-1.3,1.6-1.3,3.5c0,0.6,0.1,1.6,0.1,2.1
				c0,0.3,0.3,1.5,0.3,1.9c0,1.9-3.6,2-4.6,2c-3.5,0-3.8-1.6-3.8-2.1c0-0.2,0.1-0.9,0.1-1c0-0.2,0-0.3-0.4-0.7c-0.5-0.5-1-1.8-1-2.9
				c0-0.3,0-1.6,1.5-2.3c0.1,0,0.6-0.1,0.7-0.2c0.1,0,0.2-1,0.2-1c0-0.2-0.1-0.3-0.2-0.3c-0.2,0-1.1,0.2-1.3,0.2
				c-0.6,0-1.4-0.8-1.4-1.5c0-0.1,0-0.3,0.1-0.3c0.1,0,0.8,0.2,1,0.2c0.3,0.1,0.6,0.1,1.1,0.1c0.8,0,1,0,1-0.7
				c0-0.3-0.1-0.8-0.3-1.2c-0.1-0.1-0.4-0.6-0.4-0.7c0-0.2,0.5-0.2,0.6-0.2C73.1,131.9,73.9,132.2,74,132.7z M72,138.1
				c-0.5,0-1,0.5-1,1.4c0,0.6,0.3,1.3,0.8,1.3c0.2,0,0.3-0.2,0.4-0.4c0.1-0.3,0.2-1.5,0.2-1.8C72.4,138.3,72.3,138.1,72,138.1z
				 M73.7,134c0,0.1,0,0.2,0.1,0.2c0,0,0.6-0.2,0.6-0.4c0-0.1-0.2-0.3-0.4-0.3c0,0-0.1,0-0.2,0C73.7,133.7,73.7,134,73.7,134z"/>
		</g>
	</g>
	<g>
		<g>
			<path class="st2" d="M39.4,175.2c0,0.5-0.3,1.1-0.9,1.1c-0.5,0-0.5-0.1-1-1.3c-0.4-1-1.1-1.7-1.2-1.9c0,0-0.3-0.3-0.3-0.3
				c0-0.1,0-0.1,0.1-0.1c0.1,0,1.1,0.3,1.6,0.6C38.5,173.6,39.4,174.3,39.4,175.2z M41.4,173.1c0-0.1,0.1-0.2,0.2-0.2
				c0,0,0.1,0.1,0.1,0.1c0,0.2-0.2,1.9-1.1,4.9c-0.9,2.7-1,3.4-1,4.3c0,0.6,0,0.9,0.1,1.2c0.5,1.9,0.5,2,0.5,2.4
				c0,0.9-0.6,1.4-1.2,1.4c-0.6,0-1-0.3-1-1c0-0.3,0.3-1.9,0.3-2.2c0-1.3-0.7-2-1.4-2.3c-0.1-0.1-0.6-0.2-0.6-0.3
				c0-0.1,0.1-0.1,0.2-0.1c0.9,0,1.5-0.1,1.9-0.6c0.5-0.6,0.7-1.2,2.7-6.4C41,174.1,41.4,173.2,41.4,173.1z M41,170.1
				c0,0.8-0.6,1.1-0.9,1.1c-0.5,0-0.6-0.3-1-1.3c-0.2-0.6-0.9-1.7-1.3-2.2c-0.1-0.1-0.2-0.2-0.2-0.3c0,0,0-0.1,0.1-0.1
				c0.1,0,1.1,0.4,1.9,0.8C40.1,168.5,41,169.1,41,170.1z M53.6,179.7c-0.6,0-0.9,0.2-1,0.7c-1.5,4.6-4.1,6.5-7.9,7.2
				c0,0-0.4,0.1-0.4,0c0-0.1,1.7-0.9,2-1.1c3.5-1.7,4.7-5.7,4.7-6.3c0-0.4-0.3-0.6-0.6-0.6h-0.4c-0.2,0-0.4,0-0.7,0.2
				c-0.2,0.2-0.7,1.3-0.9,1.5c-1.9,3-5.4,3.8-5.4,3.8c0,0-0.1,0-0.1,0s1.3-1,1.6-1.2c2.3-2,3-3.7,3-3.9c0-0.3-0.3-0.4-0.5-0.4h-0.7
				c-0.4,0-0.6,0-0.8,0.2c-0.3,0.1-1.3,1.1-1.5,1.4c-0.8,0.7-2.7,2-3.2,2c0,0-0.1,0-0.1,0c0-0.1,1.5-1.5,1.8-1.8
				c1.3-1.4,2.9-3.8,2.9-4.2c0-0.2-0.1-0.4-0.4-0.4c-0.7,0-1.6,0-2.2,0c-0.1,0-0.6,0.1-0.7,0.1c-0.1,0-0.1,0-0.2-0.2l-0.4-0.5
				c-0.1-0.1-0.1-0.1-0.1-0.1c0,0,0-0.1,0.1-0.1c0.1,0,0.9,0.1,1,0.1c0.7,0,1.9,0.1,3.2,0.1H53c0.6,0,1,0,1.2-0.1
				c0.2-0.1,1-1.2,1.3-1.2c0.3,0,1.8,1.3,1.8,1.6c0,0.3-0.3,0.3-0.9,0.3h-7.6c-0.9,0-1.2,0-1.8,1c-0.1,0.1-0.6,1-0.6,1
				c0,0.3,0.3,0.3,0.4,0.3h7.2c0.3,0,0.5-0.1,0.7-0.3c0.1-0.1,0.5-0.6,0.7-0.6c0.3,0,1.8,1,1.8,1.4c0,0.2-0.2,0.3-0.5,0.6
				c-0.2,0.1-0.3,0.2-0.3,0.7c0,1.5-0.1,7.1-3.7,7.1c-0.2,0-0.4,0-0.6-0.2c-0.1-0.1-0.3-0.7-0.3-0.9c-0.1-0.3-1.4-1.6-1.4-1.6
				c0,0,0-0.1,0.1-0.1c0.1,0,0.6,0.2,0.7,0.2c1.5,0.4,1.7,0.4,2,0.4c0.4,0,0.6-0.2,0.7-0.5c0.3-0.5,0.9-2.3,0.9-4.5
				c0-0.8,0-1.2-0.7-1.2H53.6z M51.7,168.1c0.6,0,0.8-0.3,0.9-0.4c0.1-0.2,0.2-0.4,0.5-0.4c0.3,0,1.9,0.8,1.9,1.3
				c0,0.2,0,0.2-0.5,0.5c-0.2,0.2-0.3,0.3-0.3,1.2c0,0.5,0.1,2.7,0.1,3.2c0,1.3-0.9,1.4-1.2,1.4c-0.4,0-0.4-0.1-0.6-0.5
				c-0.1-0.3-0.5-0.3-0.6-0.3H47c-0.3,0-0.6,0-0.7,0.3c-0.2,0.4-0.4,0.9-1.2,0.9c-0.4,0-0.6-0.3-0.6-0.8c0-0.4,0-2.6,0-3.1
				c0-1.2,0-1.4-0.1-3c0-0.1-0.1-0.7-0.1-0.8c0-0.2,0.2-0.2,0.3-0.2c0.3,0,0.6,0.1,1.4,0.5c0.5,0.2,0.8,0.2,1.1,0.2H51.7z
				 M46.8,168.8c-0.7,0-0.7,0.5-0.7,1c0,0.6,0,1.1,0.7,1.1H52c0.7,0,0.7-0.5,0.7-1c0-0.6,0-1.1-0.7-1.1H46.8z M46.8,171.5
				c-0.7,0-0.7,0.4-0.7,0.9c0,0.9,0,1.2,0.7,1.2h5c0.7,0,0.7-0.4,0.7-1.5c0-0.6-0.5-0.6-0.7-0.6H46.8z"/>
		</g>
		<g>
			<path class="st2" d="M49.1,143c0.5,0,1.1-0.1,1.5-0.5c0.2-0.2,0.9-1.3,1.2-1.3c0.3,0,3.9,1.7,3.9,2.4c0,0.3-0.3,0.5-0.5,0.6
				c-0.3,0.3-1,0.7-1.1,1.3c-0.1,2.2-0.3,4.5-1,7.6c-1.2,4.7-5.5,5.8-6.4,5.8c-0.3,0-0.4-0.3-0.5-0.6c-0.3-0.8-0.6-1.2-2-2.1
				c-0.4-0.3-2.7-1.5-2.7-1.7c0-0.1,0.1-0.1,0.2-0.1c0.3,0,4.2,0.4,5,0.4c1.3,0,2.8-0.5,3.4-2.3c0.6-1.9,1-5.8,1-7.2
				c0-1.1-0.8-1.2-1.3-1.2h-9.5c-1,0-1.6,0.3-1.9,1.4c-1.8,6.4-5.6,9-7,9.9c-2.1,1.4-6.2,3-9.4,3c-0.1,0-0.5,0-0.5-0.2
				c0-0.1,0.8-0.3,0.8-0.4c3.7-1.1,7-2.6,9.7-5.8c2.5-3,3.4-6.6,3.4-7c0-0.9-0.9-1-1.3-1h-5.7c-1,0-3.9,0-5.3,0.1
				c-0.1,0-0.8,0.1-0.9,0.1c-0.1,0-0.2-0.1-0.3-0.3l-0.8-1c-0.2-0.2-0.2-0.2-0.2-0.3s0.1-0.1,0.2-0.1c0.3,0,1.5,0.1,1.8,0.1
				c1.2,0.1,3.4,0.2,5.8,0.2h5.9c1.1,0,1.4-0.1,1.4-3.3c0-0.5,0-0.8-0.2-1.3c-0.1-0.1-0.4-0.5-0.4-0.5c0-0.3,0.6-0.3,0.9-0.3
				c1.2,0,3.9,0.5,3.9,1.2c0,0.1-0.6,0.7-0.8,0.8c-0.2,0.4-0.3,1.8-0.3,2.2c0,1.1,0.9,1.1,1.3,1.1H49.1z M47.8,123.7
				c0.6,0,1.3-0.2,1.7-0.7c0.4-0.5,0.4-0.6,0.7-0.6c0.4,0,3.5,1.7,3.5,2.4c0,0.3-0.4,0.5-0.9,1c-0.5,0.4-0.5,0.7-0.5,3.4
				c0,1.1,0.1,6.1,0.1,7.2c0,1.3,0,1.8-0.3,2.1c-0.6,0.7-1.5,0.8-1.9,0.8c-0.8,0-0.9-0.4-1.1-1.3c-0.1-0.9-0.8-0.9-1.2-0.9H29.5
				c-1.3,0-1.3,0.6-1.3,1.2c0,1.2-1.3,1.7-2.4,1.7c-0.4,0-0.9-0.1-0.9-1.1c0-0.3,0.2-1.8,0.2-2.1c0-1.8,0-4.5,0-6.4
				c0-3.4-0.1-5-0.2-6.7c0-0.3-0.1-0.9-0.1-1.2c0-0.2,0-0.4,0.3-0.4c0.3,0,2.2,0.9,2.7,1.1c0.9,0.4,1.7,0.5,2.2,0.5H47.8z
				 M29.2,124.8c-1.3,0-1.3,0.6-1.3,1.9c0,2.7,0,3,1.3,3h6.7c1.3,0,1.3-0.3,1.3-3.2c0-1.1,0-1.8-1.3-1.8H29.2z M35.9,135.9
				c1.3,0,1.3-0.5,1.3-2c0-2.8,0-3.1-1.3-3.1h-6.7c-1.3,0-1.3,0.3-1.3,3.2c0,1.3,0,1.8,1.3,1.8H35.9z M41.3,124.8
				c-1.3,0-1.3,0.3-1.3,2.5c0,2.1,0,2.4,1.3,2.4h6.8c1.3,0,1.3-0.3,1.3-2.4c0-2.2,0-2.5-1.3-2.5H41.3z M48.1,135.9
				c0.5,0,0.9,0,1.1-0.5c0.2-0.3,0.2-3.2,0.2-3.6c0-1-1-1-1.3-1h-6.7c-0.3,0-1.1,0-1.3,0.7c0,0.2,0,2.9,0,3.4c0,1,1,1,1.3,1H48.1z"
				/>
		</g>
	</g>
</g>
</svg>
