<?xml version="1.0" encoding="utf-8"?>
<!-- Generator: Adobe Illustrator 25.2.3, SVG Export Plug-In . SVG Version: 6.00 Build 0)  -->
<svg version="1.1" id="レイヤー_1" xmlns="http://www.w3.org/2000/svg" xmlns:xlink="http://www.w3.org/1999/xlink" x="0px"
	 y="0px" viewBox="0 0 226.1 419" style="enable-background:new 0 0 226.1 419;" xml:space="preserve">
<style type="text/css">
	.st0{fill:#200701;}
	.st1{fill:none;stroke:#76544B;stroke-miterlimit:10;}
</style>
<g>
	<path class="st0" d="M188.4,120.6c1-2.5,1.7-6,1.9-8.7c2.4,0.5,2.5,0.6,2.5,0.8c0,0.2-0.3,0.3-0.9,0.4c-0.9,3.6-1.7,5.3-3.1,7.6
		L188.4,120.6z M193.3,109.6c-1.4,0.3-1.9,0.4-3.1,0.6c-0.2,0.8-0.4,1.1-0.6,1.1s-0.4-0.5-0.8-2.6c0.9,0,1.1,0,1.6,0
		c0.3,0,0.8,0,1.1,0c2-2.7,4.3-6.7,5-8.7c2.3,0.8,2.5,0.9,2.5,1.2c0,0.2-0.2,0.3-1.1,0.4c-2.2,3.4-3.5,5-5.5,7.1
		c1.9-0.1,3.2-0.2,4.7-0.3c-0.4-1-0.6-1.4-1.3-2.5l0.3-0.2c2.2,1.8,2.9,2.7,2.9,3.6c0,0.3-0.1,0.7-0.3,1.1c-0.1,0.3-0.3,0.5-0.5,0.5
		c-0.3,0-0.4-0.2-0.6-0.9c-0.1-0.4-0.2-0.6-0.3-1.1c-1,0.3-1.2,0.3-2.3,0.5v5.3c0,5.2,0,5.2,0,7.2c0,0.2-0.1,0.3-0.2,0.3
		c-0.1,0.1-1,0.1-1.3,0.1c-0.3,0-0.3-0.1-0.4-0.3c0.1-5.1,0.1-5.1,0.1-7.4V109.6z M195.2,98.1c-0.1,0-0.1,0-0.2,0
		c-1.4,2-1.9,2.5-3.4,4.1c0.1,0.1,0.2,0.1,0.2,0.2c1,0.8,1.4,1.3,1.4,1.8c0,0.3-0.2,1-0.4,1.3c-0.1,0.2-0.3,0.3-0.4,0.3
		c-0.3,0-0.3-0.1-0.7-1c-0.6-1.2-1.4-2.4-2.7-3.8l0.3-0.3c0.9,0.5,1.2,0.8,1.9,1.3c1.3-2.5,1.9-4,2.2-5.4c2.1,0.7,2.7,1,2.7,1.3
		c0,0.2-0.3,0.4-0.8,0.4H195.2z M196.2,111.1c1.8,1.5,2.5,2.6,2.5,3.4c0,0.7-0.6,1.6-1.1,1.6c-0.3,0-0.3-0.2-0.4-1.1
		c-0.2-1.2-0.6-2.5-1.3-3.7L196.2,111.1z M210.8,106.4c0.5-0.6,1-1.1,1.5-1.7c1,0.8,1.2,1.1,2.2,1.9c0.1,0.1,0.1,0.2,0.1,0.3
		c0,0.1-0.1,0.2-0.4,0.2h-7.8c0.4,2.3,0.9,3.8,1.8,5.5c1.1-1.4,2-2.6,2.6-4c2.6,1.1,2.6,1.1,2.6,1.3c0,0.1-0.2,0.3-0.5,0.3
		c-0.1,0-0.4,0-0.6,0c-2,1.7-2.5,2-3.9,2.9c0.7,1.2,1.2,1.9,2.2,2.8c1.6,1.5,2.5,2,4.2,2.6l0,0.3c-1.2,0.2-1.5,0.4-2.1,1.7
		c-1.3-1-1.9-1.6-2.9-2.9c-1.9-2.5-2.9-4.9-3.7-9.2l0.2,5.8c0,0.4,0,0.6,0.1,2.9l0.1,2.7c0,0.9-0.2,1.3-0.6,1.7
		c-0.4,0.3-0.9,0.5-2.4,0.8c-0.2-0.8-0.4-1.1-0.9-1.4c-0.6-0.3-1.2-0.5-2.5-0.7l0-0.4c2.1,0.2,2.7,0.2,4.1,0.3
		c0.4,0,0.5-0.1,0.5-0.6v-4.5c-2.1,1.4-2.5,1.7-6,3.6c0,0.8-0.1,1.1-0.4,1.1c-0.3,0-0.6-0.6-1.3-2.5c1.7-0.3,4.1-1.2,7.6-2.8v-7.3
		h-4.1c-0.8,0-1.3,0-2.1,0.2l-0.2-1.1c0.9,0.3,1.3,0.3,2.1,0.3h7.8c0-0.7,0.1-1.9,0.1-3.5h-6.3c-0.9,0-1.2,0-1.8,0.1l-0.1-1.1
		c0.7,0.2,1.2,0.3,2,0.3h6.3c0.1-1.2,0.1-1.2,0.1-3.3h-6.8c-0.8,0-1.3,0-2.1,0.2l-0.2-1.1c0.9,0.2,1.5,0.3,2.3,0.3h6.6
		c0.5-0.5,0.6-0.7,1.1-1.2c0.6,0.5,0.8,0.6,1.5,1.1c0.2,0.1,0.3,0.2,0.3,0.3c0,0.2-0.1,0.3-0.9,0.7c-0.2,4.5-0.2,4.5-0.3,7.1H210.8z
		 M199.8,108.6c0.9,0.6,1.3,1,2.1,1.7c0.8,0.7,1,1.2,1,1.7c0,0.3-0.1,0.8-0.3,1.2c-0.1,0.4-0.4,0.6-0.6,0.6c-0.3,0-0.3-0.1-0.6-1.1
		c-0.3-1-1-2.5-1.9-3.7L199.8,108.6z"/>
	<path class="st0" d="M196.3,146.1c-0.1,0.3-0.5,2-1.3,5.3c-0.4,1.7-0.5,2.1-0.5,3c0,0.8,0,1-0.1,1.2c-0.1,0.3-0.4,0.5-0.7,0.5
		c-0.5,0-0.9-0.4-1.2-1.1c-0.6-1.5-1-3.7-1-6c0-0.8,0.1-1.9,0.2-3c0.2-1.6,0.2-1.6,1-5.3c0.3-1.3,0.4-2,0.4-2.6
		c0-0.9-0.2-1.6-0.8-2.6c0.6,0,1.1,0.4,1.9,1.4c0.7,0.9,1,1.6,1,2.2c0,0.4,0,0.6-0.6,1.7c-0.6,1.2-1.2,3.1-1.5,4.5
		c-0.3,1.1-0.4,2.3-0.4,3.5c0,1.5,0.1,2.5,0.5,3.7c0.5-1,0.7-1.5,1-2.4l1.5-3.9L196.3,146.1z M199.8,147.5c-0.1,0.6-0.1,0.8-0.1,1.2
		c0,3.1,1.8,4.3,6.1,4.3c0.8,0,1.6-0.1,2.4-0.2c0.6-0.1,0.6-0.1,1.5-0.4c0.2-0.1,0.3-0.1,0.4-0.1c0.7,0,1.8,1,1.8,1.7
		c0,0.3-0.2,0.6-0.6,0.7c-0.6,0.2-1.9,0.3-3.5,0.3c-3.5,0-6-0.6-7.3-1.7c-1-0.9-1.5-2.1-1.5-3.6c0-0.7,0.1-1.3,0.3-2.2L199.8,147.5z
		 M199.7,138.6c1,0.6,1.6,0.8,2.6,0.8c1.7,0,4.5-0.6,5.6-1.3c0.4-0.2,0.4-0.2,0.6-0.2c0.2,0,0.6,0.1,1,0.4c0.6,0.3,0.9,0.7,0.9,1
		c0,0.4-0.2,0.5-0.8,0.6c-1.8,0.3-2.9,0.5-4,1c-0.9,0.4-2.5,1.3-3.6,2l-0.3-0.3c1.3-1.1,2.2-1.8,2.7-2.2c-0.6,0-0.9,0.1-1.1,0.1
		c-1.6,0-2.6-0.4-3.8-1.6L199.7,138.6z"/>
	<path class="st0" d="M209,173.4c0.4-0.6,0.6-0.8,1-1.4c0.8,0.6,1.1,0.7,1.8,1.3c0.2,0.1,0.3,0.3,0.3,0.4c0,0.2-0.2,0.3-1,0.9
		c-0.1,1-0.1,1-0.4,5.7c-0.2,2.1-0.5,4.6-0.9,5.8c-0.2,0.8-0.7,1.4-1.3,1.7c-0.4,0.2-0.9,0.3-2.1,0.4c0-1.1-0.3-1.3-2.6-1.9l0.1-0.4
		c1.4,0.2,2.5,0.3,3.1,0.3c0.7,0,0.9-0.3,1.1-1.2c0.5-2.7,0.8-6.4,0.9-10.9h-13.7c-1.7,2.9-3.5,5.1-6.3,7.5l-0.4-0.4
		c2.1-2.5,3.7-4.9,5.1-8c0.6-1.3,1-2.3,1.4-3.9c2.7,0.6,3.3,0.8,3.3,1.1c0,0.2-0.4,0.4-1.5,0.5c-0.6,1.2-0.8,1.6-1.3,2.5H209z
		 M201.7,178.8h-6c-0.5,0-1,0-1.8,0.1l-0.1-0.9c0.8,0.1,1.3,0.2,2.1,0.2h5.6c0.4-0.5,0.6-0.7,1-1.2c0.8,0.5,1,0.7,1.7,1.2
		c0.2,0.2,0.3,0.3,0.3,0.4c0,0.2-0.2,0.3-0.8,0.6c0,4,0,4.3,0,5.8c0,0.3-0.1,0.4-0.3,0.6c-0.2,0.1-0.8,0.2-1.2,0.2
		c-0.3,0-0.4-0.1-0.4-0.4v-0.7h-7.1v6.7c0,0.4,0.2,0.6,0.7,0.6c0.8,0.1,3.4,0.1,7.1,0.1c0.1,0,0.5,0,0.8,0c2.2,0,4,0,4.8,0
		c0.2,0,0.4,0,0.4,0c0.1,0,0.2,0,0.3,0c1.3,0,2-0.1,2.3-0.3c0.2-0.2,0.4-0.6,0.6-1.2c0.3-0.8,0.3-0.8,1.4-4.7l0.4,0.1l-0.4,4.8
		c0,0.3-0.1,0.5-0.1,0.6c0,0.3,0.1,0.3,0.3,0.4c0.6,0.2,1,0.5,1,1c0,0.3-0.3,0.7-0.8,0.9c-0.8,0.2-2.8,0.3-9.2,0.3
		c-7.2,0-9.4-0.1-10.3-0.3c-0.9-0.2-1.2-0.7-1.3-2l0.1-3.5v-2.7c0-1,0-1.5,0-2.5c0.9,0.4,1.2,0.6,2.1,1.1h6.9V178.8z"/>
	<path class="st0" d="M192.5,211.2c1.5,1.2,2.4,1.5,4.5,1.5c1.2,0,2.3-0.1,4-0.3c-0.1-4.3-0.3-4.7-2.4-5c0.4-0.4,0.6-0.4,1.4-0.4
		c0.8,0,1.7,0.1,2.4,0.4c0.7,0.2,1,0.5,1,0.9c0,0.2,0,0.2-0.4,1c-0.3,0.5-0.4,1.5-0.5,3c2.8-0.5,4.3-1,5.2-1.7
		c0.1-0.1,0.3-0.1,0.3-0.1c0.3,0,1.1,0.3,1.5,0.5c0.3,0.2,0.5,0.4,0.5,0.7c0,0.4-0.4,0.6-2.2,1c-1.9,0.4-3.7,0.8-5.3,1
		c0,0.7,0,1.1,0,1.8c0,0.8,0,1.3,0,2.5c1.1-0.2,2.2-0.4,3.2-0.8c0.7-0.3,0.9-0.3,1.4-0.7c0.1-0.1,0.3-0.1,0.4-0.1
		c0.4,0,1.1,0.2,1.4,0.4c0.2,0.1,0.3,0.3,0.3,0.5c0,0.5-0.4,0.7-2.2,1.2c-1.4,0.4-3.2,0.7-4.6,0.8c0.1,1.1,0.1,1.5,0.1,2.5
		c0.1,1.1,0.1,1.5,0.2,2.2c2.6,0.5,5,1.4,6.2,2.4c0.5,0.5,0.8,1.1,0.8,1.8c0,0.6-0.3,1-0.6,1c-0.3,0-0.4-0.1-1.1-0.8
		c-0.5-0.4-1.5-1.3-2.4-1.7c-1-0.6-1.7-0.9-2.8-1.2c0.1,0.6,0.1,0.9,0.1,1.2c0,1.1-0.3,1.8-1,2.4c-0.8,0.6-2.2,1-3.8,1
		c-2.8,0-4.7-1.2-4.7-3c0-2,2.6-3.4,6.3-3.4c0.4,0,0.7,0,1.4,0c0-1.3,0-1.5,0-1.9c0-0.1,0-0.3,0-0.4c0-0.7,0-1.1,0-1.3
		c0-0.1,0-0.4,0-0.7c-1.1,0.1-1.7,0.1-2.1,0.1c-1.8,0-3.1-0.2-3.7-0.6c-0.8-0.5-1.3-1.3-1.3-2.1c0-0.2,0-0.5,0.1-0.8l0.4,0
		c0,0.9,0.2,1.3,0.6,1.6c0.4,0.4,1.7,0.6,3.3,0.6c0.8,0,1.5-0.1,2.7-0.2c0-0.2,0-0.3,0-0.3v-1.6l-0.1-2v-0.3
		c-1.5,0.1-2.7,0.2-3.6,0.2c-2.7,0-3.8-0.5-5.2-2.4L192.5,211.2z M198.7,225c-1.1,0-2.2,0.2-3.1,0.5c-1,0.4-1.5,1-1.5,1.7
		c0,1,1.1,1.6,3.1,1.6c1.4,0,2.5-0.4,3.2-1c0.4-0.3,0.5-0.8,0.6-1.5c0-0.2,0.1-0.8,0.1-1.1c0-0.1,0-0.1,0-0.1
		C200,225,199.5,225,198.7,225z"/>
	<path class="st0" d="M195.2,252.7c0-0.4,0-0.4,0.1-1.2c0.1-0.6,0.1-0.6,0.1-1c-0.8,0.6-2.3,1.6-2.8,1.9c-0.5,0.4-0.7,0.4-1,0.4
		c-0.7,0-2.1-1.7-2.1-2.5c0-0.1,0-0.3,0.1-0.5c0.6,0.9,1.2,1.3,1.8,1.3c0.6,0,2.4-0.8,4-1.7c0.1-1.2,0.2-2,0.2-3
		c0-1.6-0.3-2.1-1.6-3.1c0.2-0.1,0.2-0.1,0.4-0.1c0.4,0,1.1,0.3,1.8,0.8c0.9,0.6,1.5,1.3,1.5,1.8c0,0.3,0,0.3-0.3,1.1
		c-0.2,0.5-0.4,1.4-0.5,2.2c0.6,0.6,0.8,0.9,0.8,1.1c0,0.2,0,0.2-0.4,0.8c-0.3,0.6-0.6,1.1-0.9,1.8c-0.1,0.5-0.1,0.6-0.1,1
		c2.7-2.6,3.7-3.4,4.9-4.3c2-1.4,3.3-2,4.5-2c0.9,0,1.7,0.4,2.2,1c0.5,0.6,0.8,1.4,0.8,2.5c0,1.1,0,1.3-0.6,4.1
		c-0.3,1.8-0.5,3.4-0.5,4.6c0,1.1,0.2,1.7,0.7,2.1c0.4,0.3,0.9,0.4,1.4,0.4c1.4,0,3.4-0.7,5.2-2l0.2,0.3c-2,2.1-4.2,3.2-6.2,3.2
		c-2.1,0-3.3-1.4-3.3-3.9c0-1,0.3-2.8,0.7-5c0.6-3,0.7-3.4,0.7-4.4c0-1.4-0.6-2.2-1.7-2.2c-1.2,0-2.7,0.8-4.9,2.8
		c-1.5,1.3-2.8,2.7-4.3,4.4c0,0.7,0,1,0,1.5c0,1.5,0.1,2.9,0.3,5c0.1,0.7,0.1,0.9,0.1,1.3c0,1.6-0.5,2.9-1.2,2.9
		c-0.3,0-0.5-0.2-0.7-0.8c-0.1-0.3-0.4-1.1-0.5-1.3c-0.3-0.6-1.2-1.7-2.5-3.1c-0.6,1.3-0.7,1.5-1,1.5c-0.3,0-0.5-0.2-0.6-0.6
		c-0.2-0.4-0.3-1.1-0.3-1.5c0-0.3,0-0.4,0.5-0.8c0.4-0.4,0.9-1,1.8-2.5L195.2,252.7z M193.5,257.9c-0.6,1.2-1,1.8-1.5,3
		c1.7,1.4,2.2,1.8,3,2.3c0.1-1.1,0.1-1.1,0.1-5.2c0-1.4,0-2,0.1-3.2C194.8,255.6,194.8,255.6,193.5,257.9z"/>
	<path class="st0" d="M203.7,282.4c-1.1,0.3-3.7,1.4-5.7,2.2c-0.6,0.3-0.9,0.4-1.1,0.4c-0.5,0-1.1-0.4-1.6-1.2
		c-0.5-0.8-0.8-1.5-0.8-2.1c0-0.3,0.1-0.4,0.3-0.7c0.4,1.3,1.2,2,2.1,2c0.7,0,3.4-0.6,5.3-1.2c1.1-0.4,1.1-0.4,1.7-0.9
		c0.1-0.1,0.3-0.1,0.4-0.1c0.4,0,0.8,0.3,1.5,1c0.6,0.6,0.8,0.9,0.8,1.3c0,0.2-0.1,0.4-0.5,0.5c-0.8,0.4-1.1,0.6-2.3,1.9
		c-1.8,1.8-2.8,2.8-4.1,4.2c-2.7,2.9-2.7,2.9-3.3,3.5l0.1,0.1c3-1.9,5.3-2.7,7.6-2.7c3.6,0,6,2.1,6,5.2c0,4-3.7,7-8.8,7
		c-2.7,0-4.5-1.1-4.5-2.8c0-1.4,1.3-2.4,3-2.4c1.4,0,2.6,0.5,3.6,1.4c0.5,0.5,0.8,0.9,1.2,1.7c2.1-0.9,3.4-2.9,3.4-5.2
		c0-1.5-0.6-2.8-1.7-3.5c-0.6-0.3-1.7-0.6-2.8-0.6c-2.7,0-6.6,2.2-8.9,5.2c-0.5,0.6-0.7,0.8-1,0.8c-0.4,0-0.9-1-0.9-1.8
		c0-0.3,0.2-0.6,0.6-1c1.1-0.8,1.5-1.3,3.9-3.9c3.4-3.8,4.5-5.1,6.7-7.9c0.2-0.3,0.2-0.3,0.3-0.4c0,0-0.1-0.1-0.1-0.1c0,0,0,0,0,0
		c0,0,0,0-0.1,0c0,0-0.1,0-0.1,0.1L203.7,282.4z M199.4,298.5c-1.1,0-1.8,0.6-1.8,1.4c0,1,1.2,1.7,3.2,1.7c0.8,0,1.1-0.1,2-0.3
		C202.2,299.6,201,298.5,199.4,298.5z"/>
	<path class="st0" d="M130.8,211.7c0.5-0.7,0.7-1,1.3-1.6c1,0.8,1.2,1.1,2.1,2c0.1,0.1,0.1,0.1,0.1,0.2c0,0.1-0.1,0.1-0.2,0.1H130v2
		c1.5,1.2,2.5,2.5,2.5,3.4c0,0.6-0.6,1.5-1,1.5c-0.2,0-0.3-0.2-0.4-0.6c-0.2-1.7-0.7-3.2-1.1-3.9v11.8c0,1.8,0,2.5,0.1,4.3
		c0,0.1,0,0.1,0,0.1c0,0.1-0.1,0.2-0.2,0.3c-0.2,0.1-1,0.2-1.4,0.2c-0.3,0-0.4-0.1-0.4-0.3v-0.1c0.1-2.5,0.2-3.1,0.3-5.5l0.1-5.9
		l0.2-4.1c-0.6,2.1-1,3.2-1.8,5.1c-0.9,1.9-1.4,2.8-2.5,4.3l-0.3-0.2c1.1-2.2,1.8-4,2.9-7.4c0.6-2.1,0.9-3.1,1.1-4.8h-1.5
		c-0.9,0-1.3,0-1.9,0.1l-0.1-1c0.8,0.2,1.1,0.2,2,0.2h1.6v-3.4c0-0.5,0-0.8-0.1-2.5c3,0.4,3.2,0.4,3.2,0.7c0,0.3-0.3,0.4-1.2,0.7
		v4.5H130.8z M146.6,229.4c0.7-0.9,0.9-1.1,1.6-2c1.1,0.9,1.5,1.2,2.5,2.2c0.1,0.1,0.1,0.2,0.1,0.2c0,0.1-0.1,0.2-0.2,0.2H134
		c-2,0-2,0-2.4,0.1l-0.1-1.1c0.8,0.2,1.8,0.3,2.5,0.3H146.6z M139.9,208.1c-1,2.2-1,2.2-1.8,3.9h2.4c0.4-0.5,0.5-0.6,1-1.1
		c0.6,0.4,0.8,0.6,1.4,1.1c0.2,0.2,0.3,0.3,0.3,0.4c0,0.2-0.2,0.4-0.9,0.7c-0.4,8.7-0.6,9.8-1.1,12.7c-0.2,1.1-0.5,1.6-1,1.9
		c-0.4,0.2-0.7,0.3-2.1,0.6c-0.1-1.3-0.6-1.5-3.1-1.8l0-0.5c1.1,0.1,2.6,0.2,3.1,0.2c1.2,0,1.2,0,1.4-0.3c0.2-0.5,0.6-3.3,0.8-5.8
		c0.3-3.1,0.3-4.8,0.3-7.4h-2.8l-0.3,0.7c-0.2,0.3-0.3,0.3-0.6,0.3c-0.8,0-1.2-0.1-1.2-0.3c0-0.1,0-0.1,0.1-0.3
		c1.3-2.7,1.4-2.7,2.4-5h-3.4c-0.7,0-1.4,0.1-1.8,0.1l-0.2-1c0.8,0.1,1.4,0.2,2,0.2H146c0.6-0.8,0.9-1.1,1.5-1.8
		c1.1,0.8,1.5,1.1,2.5,2.1c0.1,0.1,0.1,0.2,0.1,0.2c0,0.1-0.1,0.2-0.3,0.2H139.9z M136.6,215.6c0.3-0.4,0.4-0.6,0.8-1
		c0.6,0.4,0.7,0.5,1.2,1c0.2,0.2,0.3,0.3,0.3,0.4c0,0.1-0.1,0.2-0.7,0.7c0,1.2,0,2.1,0,2.7c0,2.7,0,2.9,0.1,4.5c0,0,0,0.1,0,0.1
		c0,0.1-0.1,0.1-0.2,0.2c-0.1,0.1-0.9,0.2-1.1,0.2c-0.1,0-0.2-0.1-0.2-0.2c0,0,0,0,0-0.1v-0.8h-2.3v1.3c0,0,0,0.1,0,0.1
		c0,0.3-0.2,0.3-0.8,0.4c-0.2,0-0.3,0-0.4,0c0,0-0.1,0-0.1,0c-0.2,0-0.3-0.1-0.3-0.3c0,0,0-0.1,0-0.1c0.1-1.8,0.1-4.9,0.1-6.9
		c0-1.3,0-1.4-0.1-3.2c0.8,0.5,1.1,0.7,1.8,1.2H136.6z M134.4,222.6h2.3v-6.4h-2.3V222.6z M146.5,214c0.4-0.6,0.6-0.8,1-1.3
		c0.7,0.5,0.9,0.6,1.5,1.2c0.2,0.2,0.3,0.3,0.3,0.4c0,0.3-0.3,0.4-1,0.7c-0.6,2.7-0.9,3.9-1.7,5.8c1.8,2,2.4,2.9,2.4,3.6
		c0,0.9-0.5,1.9-0.9,1.9c-0.3,0-0.4-0.1-0.8-1.2c-0.2-0.6-0.8-1.8-1.4-2.9c-1.4,2.7-2.5,4.2-4.3,5.8l-0.2-0.2c1.8-2.4,2.6-3.9,3.7-7
		c-0.5-0.7-0.7-1-2.3-3.1l0.3-0.3c1.1,0.9,1.5,1.3,2.4,2.1c0.7-2.3,0.9-3.1,1.1-5h-2.1c-0.8,0-1.2,0-1.6,0.1l-0.1-0.9
		c0.5,0.1,1,0.2,1.7,0.2H146.5z"/>
	<path class="st0" d="M143.8,252.6l1.8-2.2c1.2,1.1,1.6,1.4,2.8,2.4c0.1,0.1,0.1,0.2,0.1,0.2c0,0.1-0.1,0.2-0.3,0.2h-10.7v12.1h8.1
		c0.8-1,1-1.3,1.8-2.3c1.3,1.1,1.7,1.4,2.9,2.5c0.1,0.1,0.1,0.2,0.1,0.2c0,0.1-0.1,0.2-0.2,0.2h-22.7c-0.9,0-1.5,0.1-2.3,0.2
		l-0.2-1.1c1,0.2,1.4,0.2,2.5,0.2h7.9v-19.3c0-1.6-0.1-2.5-0.2-3.4c0.7,0.1,1.2,0.2,1.5,0.2c1.5,0.2,1.8,0.3,1.8,0.5
		c0,0.2-0.3,0.4-1,0.6v8.7H143.8z"/>
	<path class="st0" d="M137.2,301.4c3-0.9,5-2,6.6-3.9c1.7-1.9,2.5-4.2,2.5-6.7c0-2.7-1.1-4.9-3.2-6.2c-1.2-0.8-3.1-1.3-4.8-1.3
		c-0.3,0-0.5,0-1,0.1c0.7,1,0.9,1.5,0.9,2.3c0,2.2-1.6,6.3-3.7,9.7c-1.8,2.8-3.1,4.2-4.2,4.2c-0.5,0-0.9-0.2-1.2-0.6
		c-0.3-0.3-0.3-0.4-0.8-1.8c-0.3-0.7-0.4-1.1-1.2-2.6c-0.4-0.9-0.6-1.7-0.6-2.5c0-1.8,1-3.8,2.5-5.5c2.3-2.4,6-3.9,9.6-3.9
		c2.8,0,5.4,0.9,7.2,2.6s2.7,3.9,2.7,6.6c0,3.5-2,6.6-5.6,8.5c-1.6,0.9-3.1,1.3-5.5,1.7L137.2,301.4z M128,292.7
		c0,1.3,0.4,2.7,1.1,3.7c0.4,0.5,0.8,0.8,1.1,0.8c0.6,0,2-1.5,3.3-3.7c2.1-3.3,3.6-6.9,3.6-8.7c0-0.4-0.1-0.7-0.4-1.4
		C131.8,284.3,128,288.4,128,292.7z"/>
	<path class="st0" d="M146.1,317.4c0.7-0.9,1-1.1,1.7-2c1.2,0.9,1.6,1.2,2.7,2.2c0.1,0.1,0.2,0.2,0.2,0.2c0,0.1-0.1,0.2-0.3,0.2H139
		c0.3,0.1,0.3,0.1,1.5,0.6c0.3,0.1,0.5,0.3,0.5,0.4c0,0.2-0.2,0.3-1.1,0.3c2.7,1.8,6.1,2.7,10.8,2.9v0.3c-1.1,0.4-1.4,0.8-1.7,1.9
		c-2.8-0.8-3.9-1.2-5.4-2c-1.3-0.8-2.5-1.5-4.1-2.8c-3.1,2.7-5,3.8-9.1,5.4l-0.2-0.4c2.5-1.3,4.5-2.6,6.7-4.8
		c0.8-0.8,1.2-1.2,1.7-1.7h-8.4c0,4.2-0.1,6.6-0.1,7.2c-0.1,4-0.8,7.5-2.2,10.5c-0.8,1.7-1.5,2.8-3.1,4.5l-0.3-0.2
		c1.8-2.9,2.6-4.9,3.1-7.9c0.3-1.3,0.3-2.2,0.5-4.3c-0.9,1-1.3,1.4-2.6,2.5c0,0.3,0,0.4,0,0.6c0,0.1,0,0.1,0,0.1
		c0,0.3-0.1,0.5-0.3,0.5c-0.3,0-0.5-0.5-1.4-2.7c0.7-0.1,1.1-0.3,2.5-0.8c0.6-0.3,0.8-0.4,1.8-0.9c0.1-1.7,0.1-3.7,0.1-6.6
		c0-2.9,0-3.1-0.1-4.4c1,0.5,1.3,0.7,2.2,1.3h7.4v-1.1c0-0.7,0-1-0.1-1.6c2.9,0.2,3.2,0.3,3.2,0.6c0,0.2-0.2,0.3-1.1,0.6v1.5H146.1z
		 M124.4,319.2c0.8,0.6,1.3,1.2,2.2,2.2c0.7,0.8,1,1.4,1,1.9c0,0.4-0.2,1.2-0.4,1.5c-0.2,0.2-0.3,0.3-0.5,0.3c-0.3,0-0.5-0.3-0.6-1
		c-0.3-1.4-1.2-3.8-1.8-4.8L124.4,319.2z M132.7,334.6c-0.1,1.1-0.5,2.4-1.1,3.4c-0.5,0.9-1.4,1.7-2,1.7c-0.4,0-0.7-0.6-0.7-1.3
		c0-0.5,0.1-0.7,0.8-0.9c0.7-0.3,1.5-0.8,1.8-1.2c0.4-0.4,0.5-0.8,0.7-1.7L132.7,334.6z M133.5,330.5v3.1c-0.1,0.2-0.1,0.2-0.4,0.3
		c-0.3,0-0.7,0.1-0.9,0.1c-0.4,0-0.5-0.1-0.5-0.3c0.1-1.8,0.1-2.8,0.1-5.3c0-1.4,0-1.4-0.1-3.6c0.8,0.4,1.1,0.5,1.8,0.9h4.3
		c0.5-0.5,0.5-0.5,0.8-0.9c0.6,0.4,0.8,0.5,1.4,0.9c0.1,0.1,0.1,0.1,0.1,0.2c0,0.2-0.3,0.4-0.7,0.6v3.6c0,0.3,0,0.5,0,2.4
		c0,0.5-0.2,0.7-0.7,1c-0.3,0.1-0.5,0.2-1.4,0.4c-0.3-1-0.7-1.3-2.1-1.4v-0.3c1.7,0.1,1.7,0.1,2.5,0.1c0.2,0,0.2-0.1,0.2-0.2v-1.4
		H133.5z M138,327.7v-1.5h-4.6v1.5H138z M133.5,328.3v1.7h4.6v-1.7H133.5z M134.5,336.1c0-1.2,0-1.2-0.1-1.8
		c2.6,0.3,2.7,0.3,2.7,0.6c0,0.2,0,0.2-0.9,0.5v2.4c0,0.2,0.1,0.4,0.2,0.4c0.3,0.1,0.9,0.1,1.8,0.1c1.2,0,3.8-0.1,4.1-0.1
		c0.4-0.1,0.6-0.2,0.8-0.7c0.4-1,0.7-1.8,1-2.6l0.4,0.1l-0.1,2.3v0.1c0,0.3,0.2,0.5,0.6,0.6c0.6,0.1,0.8,0.3,0.8,0.6
		c0,0.4-0.3,0.6-1.1,0.8c-0.9,0.2-2.4,0.3-4.9,0.3c-5.1,0-5.3-0.1-5.3-2V336.1z M135.1,323c0.8,0.2,1.2,0.2,2.3,0.2h2.9
		c0.6-0.6,0.8-0.8,1.3-1.4c0.9,0.7,1.2,0.9,2,1.7c0.1,0.1,0.1,0.1,0.1,0.2c0,0.1-0.1,0.2-0.3,0.2h-6c-0.9,0-0.9,0-2.1,0.2L135.1,323
		z M138.3,334.1c0.9,0.2,2,0.6,2.8,1.1c0.4,0.3,0.7,0.7,0.7,1.1c0,0.6-0.4,1.4-0.8,1.4c-0.2,0-0.3-0.1-0.5-0.4
		c-0.6-1-1.5-2.1-2.4-2.9L138.3,334.1z M144.3,326.1c0,0.2-0.3,0.4-0.8,0.4c0,2.7,0,3,0.1,4.4c-0.1,0.2-0.1,0.3-0.3,0.3
		c-0.1,0.1-0.7,0.1-1,0.1c-0.3,0-0.4-0.1-0.4-0.3c0.1-1,0.1-1.2,0.1-3.3c0-1.2,0-1.5-0.1-2.1C144,325.7,144.3,325.8,144.3,326.1z
		 M146.3,327c0-0.1,0-0.8-0.1-1.9c3,0.3,3,0.3,3,0.6c0,0.2,0,0.2-1.1,0.6v3.9l0,1.3v0.3c0,0.3,0,0.3,0,0.5c0,0.7-0.2,0.9-0.9,1.3
		c-0.6,0.3-1.1,0.4-1.8,0.5c-0.1-0.8-0.3-1.1-0.7-1.3c-0.3-0.1-0.5-0.1-1.6-0.3v-0.4c0.4,0,0.4,0,1.5,0.1c0.8,0.1,0.8,0.1,1.5,0.1
		c0.1,0,0.2-0.1,0.2-0.4V327z M145.6,334.6c1.2,0.5,2.9,1.3,3.7,1.9c0.5,0.4,0.8,0.8,0.8,1.5c0,0.8-0.4,1.5-0.8,1.5
		c-0.3,0-0.3-0.1-0.7-0.8c-0.8-1.4-1.7-2.5-3.2-3.9L145.6,334.6z"/>
	<path class="st0" d="M146.9,369.7c-2.7,3.6-6.4,5.8-9.8,5.8c-2.1,0-3.8-0.9-4.6-2.4c-0.6-1-0.8-2.4-0.8-4.7c0-1.5,0.1-4.2,0.2-6.7
		c0.2-3,0.2-3.8,0.2-4.8c0-2.4-0.3-2.9-2.3-3.7c0.3-0.2,0.5-0.3,0.8-0.3c0.6,0,1.7,0.3,2.5,0.6c1.1,0.5,1.6,1.1,1.6,1.7
		c0,0.2,0,0.4-0.3,1c-0.5,1.7-1.5,10.2-1.5,13.4c0,1.7,0.3,2.7,1.1,3.4c0.6,0.5,1.5,0.8,2.5,0.8c1.9,0,4.3-0.7,6.4-1.8
		c1.3-0.7,2.1-1.3,3.6-2.5L146.9,369.7z"/>
</g>
<g>
	<g>
		<path class="st0" d="M56.6,108.7c-0.6,0-1,0-1.6,0.1l-0.1-0.6c0.6,0.1,0.9,0.1,1.7,0.1h3.3v-2.3H56c-1,1.5-1.6,2.1-3.2,3.4
			l-0.2-0.1c1-1.1,1.5-1.9,2.1-3c0.6-1.1,0.9-1.8,1-2.5c0.4,0.1,0.7,0.1,0.9,0.2c0.8,0.1,1,0.2,1,0.4s-0.2,0.2-0.8,0.3
			c-0.3,0.5-0.3,0.6-0.6,1h3.6v-0.6c0-0.8,0-1-0.1-1.6c1.6,0.2,1.7,0.2,1.8,0.3c0.1,0.1,0.2,0.1,0.2,0.2c0,0.1-0.2,0.3-0.8,0.4v1.4
			h3.7c0.5-0.5,0.6-0.7,1-1.2c0.8,0.6,1,0.8,1.7,1.4c0,0.1,0.1,0.1,0.1,0.2c0,0.1-0.1,0.1-0.2,0.1h-6.3v2.3h3.2
			c0.5-0.5,0.6-0.7,1-1.2c0.7,0.6,0.9,0.7,1.6,1.3c0.1,0.1,0.1,0.1,0.1,0.1c0,0.1-0.1,0.1-0.2,0.1h-5.7v2.6H66
			c0.4-0.4,0.8-0.9,1.2-1.3c0.8,0.6,1,0.8,1.8,1.5c0.1,0.1,0.1,0.1,0.1,0.2c0,0.1-0.1,0.1-0.2,0.1H54.4c-0.6,0-1.1,0-1.7,0.1
			l-0.1-0.7c0.8,0.1,1.1,0.1,1.8,0.1h5.5v-2.6H56.6z M56.2,103.2c0,0.1,0,0.2-0.2,0.2c-0.1,0.1-0.5,0.1-0.8,0.1
			c-0.2,0-0.2,0-0.2-0.2v0c0-1.3,0.1-1.8,0.1-2.5c0-2.4,0-3.7-0.1-4.4c0.6,0.3,0.8,0.5,1.3,0.8h8.3c0.2-0.3,0.5-0.5,0.7-0.8
			c0.5,0.4,0.6,0.5,1.1,0.8c0.1,0.1,0.2,0.2,0.2,0.2c0,0.1-0.2,0.3-0.6,0.5l0,2.7c0,0.8,0,1.4,0,2.7c0,0.1,0,0.2-0.2,0.2
			c-0.1,0-0.7,0.1-0.8,0.1c-0.2,0-0.2-0.1-0.2-0.2v0v-0.6h-8.6V103.2L56.2,103.2z M64.8,97.5h-8.6v2.2h8.6V97.5z M56.2,100.2v2.2
			h8.6v-2.2H56.2z"/>
		<path class="st0" d="M57.2,125.4c-0.3,1.1-0.8,3.1-1,4c-0.2,0.8-0.2,1.1-0.2,1.5c0,0.6,0,0.6-0.1,0.8c-0.1,0.1-0.2,0.2-0.3,0.2
			c-0.3,0-0.6-0.3-0.8-0.8c-0.4-0.9-0.6-2.3-0.6-3.6c0-1.7,0.2-3.2,0.8-6c0.2-1.1,0.3-1.3,0.3-1.6c0-0.5-0.1-1-0.5-1.6
			c0.4,0,0.8,0.3,1.3,0.9c0.4,0.5,0.6,1,0.6,1.4c0,0.2,0,0.2-0.3,0.8c-0.9,1.8-1.4,3.9-1.4,5.9c0,0.9,0.1,1.5,0.3,2.2l0.8-1.8l1-2.3
			L57.2,125.4z M59,122.2c0.9,0.6,1.4,0.7,2.3,0.7c0.6,0,1.3-0.1,2.1-0.3c0-0.3,0-0.6,0-0.8c0-2,0-2.3-0.3-2.5
			c-0.2-0.2-0.6-0.4-1.2-0.4c0.3-0.2,0.4-0.3,0.9-0.3c0.4,0,0.9,0.1,1.2,0.2c0.5,0.2,0.8,0.4,0.8,0.6c0,0.1,0,0.1-0.2,0.6
			c-0.2,0.5-0.3,1.2-0.4,2.4c0.8-0.2,1.4-0.5,1.7-0.7c0.2-0.2,0.2-0.2,0.4-0.2c0.2,0,0.6,0.1,0.8,0.2c0.1,0.1,0.2,0.2,0.2,0.3
			c0,0.4-1.3,0.9-3.2,1.3c0,2.4,0.1,3.4,0.2,4.9c2.1,0.6,3,1.3,3,2.3c0,0.4-0.2,0.7-0.4,0.7c-0.1,0-0.3-0.1-0.6-0.5
			c-0.8-0.8-1.2-1.1-1.9-1.4c0,0.2,0,0.3,0,0.4c0,1.3-1.1,2.1-2.9,2.1c-1.6,0-2.7-0.8-2.7-1.8c0-1.2,1.3-2,3.4-2
			c0.3,0,0.6,0,1.1,0.1c0-0.2,0-0.3,0-0.3l0-1.9l0-2.3c-0.5,0.1-1.1,0.1-1.6,0.1c-1.3,0-2.1-0.3-3-1.3L59,122.2z M61.8,128.7
			c-1.4,0-2.3,0.5-2.3,1.3c0,0.6,0.7,1.1,1.8,1.1c1,0,1.7-0.3,2-0.8c0.2-0.3,0.2-0.6,0.2-1.3C63,128.8,62.4,128.7,61.8,128.7z"/>
		<path class="st0" d="M54.3,153.2C54.3,153.3,54.3,153.3,54.3,153.2c0,0.2-0.2,0.3-0.9,0.3c-0.3,0-0.4,0-0.4-0.2
			c0.1-3.5,0.1-6.7,0.1-9.7c0-2.4,0-3.3-0.1-4.7c0.7,0.4,0.9,0.6,1.6,1h11.8c0.3-0.5,0.5-0.6,0.8-1c0.6,0.4,0.7,0.6,1.2,1
			c0.1,0.1,0.2,0.2,0.2,0.3c0,0.1-0.1,0.3-0.7,0.6v3.7c0,2.7,0,6.4,0,8.6v0c0,0.2-0.1,0.2-0.2,0.2c-0.2,0.1-0.7,0.1-0.9,0.1
			s-0.3-0.1-0.3-0.2c0,0,0-0.1,0-0.1v-1.3H54.3V153.2z M54.3,140.4v11.2h12.2v-11.2h-3.9v6.7l0,0.2c0,0.1,0.1,0.1,0.2,0.2
			c0,0,0.6,0,0.7,0c0.7,0,0.9,0,0.9-0.2c0.1-0.2,0.1-0.2,0.7-3.3h0.3v2.9c0,0.4,0,0.4,0.3,0.6c0.2,0.1,0.3,0.2,0.3,0.4
			c0,0.3-0.2,0.4-0.6,0.5c-0.3,0.1-1.3,0.1-2.1,0.1c-0.8,0-1.2-0.1-1.5-0.2c-0.3-0.1-0.4-0.4-0.4-0.9v-7.1h-2.3
			c0,2.3-0.2,3.7-0.6,4.9c-0.4,1.2-1.2,2.3-2.2,3.3c-0.4,0.4-0.7,0.6-1.3,1l-0.2-0.2c1-0.8,1.7-2,2.3-3.4s0.8-3.1,0.8-5.3
			c0,0,0-0.2,0-0.4H54.3z"/>
		<path class="st0" d="M60.9,162.8h4.7c0.5-0.6,0.7-0.7,1.2-1.3c0.7,0.6,0.9,0.8,1.6,1.4c0.1,0.1,0.1,0.1,0.1,0.2
			c0,0.1-0.1,0.1-0.2,0.1h-7.2c0.8,0.7,1.2,1.1,1.9,1.4c0.9,0.5,2.2,1,3.6,1.3c0.6,0.1,1.2,0.2,2.3,0.4l0,0.3
			c-0.6,0.1-0.8,0.3-1.2,1.2c-1.8-0.5-2.8-1-4.4-2.1c-1-0.7-1.6-1.3-2.5-2.3v1c0,1.3,0,1.3,0,1.7c0,0,0,0,0,0c0,0.2-0.3,0.3-0.9,0.3
			c-0.2,0-0.3-0.1-0.3-0.2c0,0,0,0,0,0c0-0.6,0.1-1.4,0.1-1.8v-0.8c-1.3,1.4-2.2,2.1-3.9,3.1c-1.2,0.7-2,1.1-3.5,1.6l-0.1-0.2
			c2.9-1.5,4.6-2.8,6.2-4.8h-4.7c-0.4,0-0.7,0-1,0.1l-0.1-0.7c0.4,0.1,0.7,0.2,1.2,0.2h5.9v-1.7c-1.7,0.2-3.2,0.3-4.4,0.3
			c-0.3,0-0.8,0-1.5,0l0-0.3c1.7-0.1,3.7-0.4,5.9-0.8c1.4-0.3,3-0.7,4-1c0.5-0.2,0.7-0.3,1.3-0.6c1.3,0.8,1.7,1.2,1.7,1.3
			c0,0.1-0.1,0.2-0.2,0.2c-0.1,0-0.4-0.1-0.8-0.2c-2.1,0.5-2.9,0.7-4.7,0.9V162.8z M62.6,167c0.4-0.3,0.5-0.4,0.9-0.6
			c0.5,0.4,0.6,0.5,1.1,0.8c0.1,0.1,0.2,0.2,0.2,0.3c0,0.2-0.2,0.2-0.9,0.2c-2,0.9-2,0.9-2.8,1.3c0.3,0.1,0.4,0.1,0.4,0.2
			c0,0.1-0.2,0.2-0.7,0.3v0.6h4.9c0.5-0.6,0.6-0.7,1.1-1.3c0.7,0.6,1,0.8,1.7,1.4c0.1,0.1,0.1,0.1,0.1,0.2s-0.1,0.1-0.2,0.1h-7.6
			v1.3c0,1,0,1.6,0,2c0,0,0,0.1,0,0.1c0,0.4-0.1,0.5-0.3,0.7c-0.3,0.2-0.8,0.3-1.6,0.5c-0.1-0.4-0.2-0.6-0.5-0.8
			c-0.2-0.1-0.6-0.2-1.2-0.3l-0.7-0.1c-0.2,0-0.4-0.1-0.7-0.1v-0.3c1.6,0.1,2.2,0.1,3.5,0.1c0.2,0,0.3-0.1,0.3-0.3v-2.9h-6
			c-0.3,0-0.7,0-1,0.1l-0.1-0.7c0.5,0.1,0.7,0.2,1.2,0.2h6c0-0.5,0-0.8-0.1-1.4c0.5,0.1,0.7,0.1,1,0.2c0.9-0.6,1.2-0.8,2-1.4h-5.7
			c-0.3,0-0.5,0-0.8,0.1l-0.1-0.7c0.3,0.1,0.6,0.1,0.9,0.1H62.6z"/>
		<path class="st0" d="M57.1,183.5c0.5-0.6,0.5-0.6,0.9-1.1c0.5,0.5,0.7,0.7,1.2,1.3c0,0,0,0.1,0,0.1c0,0.1-0.1,0.1-0.2,0.1h-2.7
			v3.8c1-0.3,1.4-0.5,2.4-0.9l0.1,0.3c-0.9,0.6-1.3,0.8-2.5,1.4l0,1.5v1c0,0.5,0,1.5,0,3.3c0,0.5-0.1,0.7-0.5,1
			c-0.3,0.2-0.6,0.4-1.4,0.5c-0.1-0.8-0.2-0.9-2-1.3l0-0.3c1.1,0.1,1.4,0.1,2.2,0.2c0,0,0.1,0,0.1,0s0,0,0,0c0.2,0,0.3-0.1,0.3-0.3
			v-5.1c-0.6,0.3-0.6,0.3-1.6,0.7c0,0.5-0.1,0.7-0.3,0.7c-0.2,0-0.4-0.4-0.7-1.9c0.7-0.1,1.7-0.3,2.6-0.5v-4.2h-0.8
			c-0.6,0-1.1,0-1.6,0.1l-0.1-0.7c0.7,0.1,1.1,0.2,1.7,0.2h0.8V182c0-1,0-1.7-0.1-2.4c0.4,0.1,0.7,0.1,0.8,0.1
			c0.9,0.1,1.2,0.2,1.2,0.4c0,0.2-0.2,0.3-0.8,0.4v3H57.1z M61,186c-0.1,1.5-0.1,1.7-0.2,2.4c-0.4,3.5-1.4,5.4-4,7.4l-0.2-0.3
			c1.4-1.4,1.9-2.3,2.4-3.7c0.6-1.7,0.8-3.4,0.8-6.8c0-2.4,0-2.9-0.1-3.8c0.6,0.3,0.8,0.4,1.3,0.8c2.1-0.6,3.7-1.4,4.9-2.3
			c0.4,0.2,0.6,0.4,0.8,0.5c0.4,0.2,0.7,0.4,0.7,0.4c0.3,0.1,0.4,0.2,0.4,0.3c0,0.1-0.1,0.2-0.3,0.2c-0.2,0-0.5,0-0.8-0.1
			c-2.3,0.8-3.7,1.2-5.7,1.5c0,2.5,0,2.5,0,3.1h5.2c0.4-0.5,0.6-0.7,1-1.2c0.7,0.6,0.9,0.8,1.6,1.4c0,0.1,0.1,0.1,0.1,0.1
			c0,0.1-0.1,0.1-0.2,0.1h-3.2v4.7c0,3.2,0,3.2,0,4.9c0,0.2-0.2,0.3-0.8,0.3c-0.1,0-0.2,0-0.3,0c0,0,0,0,0,0c-0.2,0-0.2-0.1-0.2-0.2
			l0.1-5V186H61z"/>
		<path class="st0" d="M53.2,211.4c1.5-1.3,3-3,4.4-5c1-1.5,1.7-2.7,1.7-3.2c0-0.3-0.3-0.7-0.8-1c0.2-0.1,0.3-0.1,0.5-0.1
			c0.4,0,0.8,0.2,1.6,0.7c0.4,0.3,0.5,0.4,0.5,0.6c0,0.3,0,0.3-0.4,0.7c-0.1,0.1-0.1,0.1-0.4,0.5c-0.3,0.4-0.4,0.6-0.8,1.1
			c0.2,0,0.4,0,0.5,0c0.3,0,2.4-0.2,3.4-0.3c0.3,0,0.3-0.1,0.6-0.3c0.2-0.1,0.4-0.2,0.5-0.2c0.3,0,1.3,1,1.3,1.4
			c0,0.1-0.1,0.2-0.2,0.3c0,0-0.2,0.1-0.6,0.2c-1.4,2.1-2.4,3.2-4,4.8l0.3,0.2c1.5,1,2,1.6,2,2.4c0,0.6-0.2,1-0.5,1
			c-0.2,0-0.4-0.1-0.6-0.5c-1.2-1.8-2.8-3.3-4.8-4.6l0.1-0.2c1.5,0.6,2,0.9,3,1.5c1.5-1.9,2.4-3.4,3.3-5.2c-0.7,0.1-1.3,0.2-1.7,0.3
			c-0.6,0.1-1,0.2-1.3,0.2c-0.2,0.1-0.4,0.1-0.6,0.1c-0.2,0-0.5-0.1-1-0.5c-1.6,2.2-3.8,4.3-5.7,5.4L53.2,211.4z"/>
		<path class="st0" d="M60.3,236.1c1.9-0.6,3.2-1.3,4.2-2.5c1.1-1.2,1.6-2.7,1.6-4.3c0-1.7-0.7-3.1-2-4c-0.8-0.5-2-0.8-3.1-0.8
			c-0.2,0-0.3,0-0.6,0c0.4,0.6,0.6,1,0.6,1.5c0,1.4-1,4-2.4,6.2c-1.1,1.8-2,2.7-2.7,2.7c-0.3,0-0.6-0.1-0.8-0.4
			c-0.2-0.2-0.2-0.3-0.5-1.2c-0.2-0.5-0.3-0.7-0.8-1.7c-0.3-0.6-0.4-1.1-0.4-1.6c0-1.1,0.6-2.5,1.6-3.6c1.5-1.5,3.8-2.5,6.2-2.5
			c1.8,0,3.5,0.6,4.6,1.7c1.2,1.1,1.7,2.5,1.7,4.2c0,2.2-1.3,4.2-3.6,5.5c-1,0.6-2,0.8-3.5,1.1L60.3,236.1z M54.4,230.5
			c0,0.9,0.3,1.7,0.7,2.4c0.3,0.3,0.5,0.5,0.7,0.5c0.4,0,1.3-1,2.1-2.4c1.3-2.1,2.3-4.4,2.3-5.6c0-0.3-0.1-0.5-0.3-0.9
			C56.9,225.1,54.4,227.7,54.4,230.5z"/>
		<path class="st0" d="M65.8,246.5c0.5-0.6,0.6-0.8,1.1-1.4c0.8,0.6,1,0.8,1.7,1.4c0.1,0.1,0.1,0.1,0.1,0.2c0,0.1-0.1,0.1-0.2,0.1
			h-7.4c0.6,1.6,1.1,2.4,2.2,3.7c1.1,1.3,2.4,2.4,3.7,3.2c0.6,0.3,1,0.5,2,0.9v0.2c-0.8,0.3-1,0.4-1.4,1.3c-1.9-1.3-2.9-2.3-4.1-3.7
			c-1.2-1.5-1.8-2.8-2.6-4.9l0.1,5.9c0,3,0,3,0.1,4.8c-0.1,0.3-0.2,0.3-1.1,0.3c-0.2,0-0.3-0.1-0.3-0.3c0-1,0.1-1.3,0.1-2.2l0-0.7
			c0-0.7,0-1.4,0-1.9l0.1-5.3c-1,2.1-2.1,3.5-3.7,5.2c-1.3,1.3-2.3,2.1-3.8,3l-0.2-0.2c2.1-1.7,3.3-3,4.8-5.1c1-1.5,1.6-2.5,2.3-4.2
			h-5c-0.6,0-0.9,0-1.4,0.1l-0.1-0.8c0.5,0.1,1.1,0.2,1.5,0.2h5.6v-2.4c0-0.5,0-1-0.1-1.8c1.8,0.2,2.1,0.3,2.1,0.5
			c0,0.2-0.2,0.3-0.8,0.5v3.3H65.8z"/>
		<path class="st0" d="M53.2,274.1c1.5-1.3,3-3,4.4-5c1-1.5,1.7-2.7,1.7-3.2c0-0.3-0.3-0.7-0.8-1c0.2-0.1,0.3-0.1,0.5-0.1
			c0.4,0,0.8,0.2,1.6,0.7c0.4,0.3,0.5,0.4,0.5,0.6c0,0.3,0,0.3-0.4,0.7c-0.1,0.1-0.1,0.1-0.4,0.5c-0.3,0.4-0.4,0.6-0.8,1.1
			c0.2,0,0.4,0,0.5,0c0.3,0,2.4-0.2,3.4-0.3c0.3,0,0.3-0.1,0.6-0.3c0.2-0.1,0.4-0.2,0.5-0.2c0.3,0,1.3,1,1.3,1.4
			c0,0.1-0.1,0.2-0.2,0.3c0,0-0.2,0.1-0.6,0.2c-1.4,2.1-2.4,3.2-4,4.8l0.3,0.2c1.5,1,2,1.6,2,2.4c0,0.6-0.2,1-0.5,1
			c-0.2,0-0.4-0.1-0.6-0.5c-1.2-1.8-2.8-3.3-4.8-4.6l0.1-0.2c1.5,0.6,2,0.9,3,1.5c1.5-1.9,2.4-3.4,3.3-5.2c-0.7,0.1-1.3,0.2-1.7,0.3
			c-0.6,0.1-1,0.2-1.3,0.2c-0.2,0.1-0.4,0.1-0.6,0.1c-0.2,0-0.5-0.1-1-0.5c-1.6,2.2-3.8,4.3-5.7,5.4L53.2,274.1z"/>
		<path class="st0" d="M54.3,287.2c0.9,0.7,1.3,0.8,2.3,0.8c0.6,0,1.1-0.1,1.9-0.2c0.4-0.8,0.6-1.4,0.6-1.8c0-0.5-0.3-0.8-1.3-1
			c0.3-0.2,0.5-0.2,0.8-0.2c0.4,0,0.9,0.1,1.4,0.3c0.5,0.2,0.6,0.4,0.6,0.6c0,0.1-0.1,0.3-0.3,0.5c-0.2,0.2-0.4,0.5-0.5,0.7
			c-0.3,0.5-0.3,0.5-0.5,0.7c1.5-0.4,2-0.6,2.6-1.2c0.1-0.1,0.2-0.1,0.3-0.1c0.7,0,1.2,0.3,1.2,0.6c0,0.2-0.2,0.4-0.8,0.6
			c-1.6,0.5-2.5,0.7-3.9,1c-0.3,0.5-0.5,0.8-1,1.4c-0.5,0.8-0.6,1-1,1.4c1-0.5,1.6-0.7,2.3-0.7c1.1,0,1.9,0.7,2,1.8
			c0.3-0.1,0.3-0.1,1.8-0.9c1.8-0.9,2.2-1.2,2.2-1.5c0-0.3-0.3-0.6-0.8-0.8c0.2-0.1,0.3-0.1,0.4-0.1c0.8,0,2,1.1,2,1.8
			c0,0.3-0.1,0.5-0.6,0.6c-1.1,0.3-3.4,1.2-4.8,1.9c0,0.6,0,0.7,0,1.5c0,0.8-0.1,1.4-0.1,1.5c-0.1,0.2-0.3,0.3-0.5,0.3
			c-0.3,0-0.6-0.2-0.6-0.5c0-0.1,0-0.2,0-0.3c0.1-0.5,0.1-1.1,0.1-1.9c-1.1,0.6-1.6,1-2.1,1.4c-0.6,0.6-0.9,1.1-0.9,1.7
			c0,1,1,1.4,3,1.4c1.3,0,2.5-0.2,3.6-0.5c0.1,0,0.3-0.1,0.3-0.1c0.6,0,1.3,0.5,1.3,0.9c0,0.2-0.2,0.4-0.6,0.5
			c-0.7,0.1-2.1,0.3-3.2,0.3c-1.7,0-2.9-0.2-3.7-0.5c-0.9-0.4-1.3-1-1.3-1.9c0-0.8,0.4-1.6,1.3-2.5c0.5-0.5,1-0.9,2.2-1.6
			c0-0.8-0.1-1-0.3-1.4c-0.2-0.3-0.5-0.5-0.9-0.5c-1.2,0-2.6,1-3.9,2.6c-0.3,0.5-0.5,0.6-0.7,0.6c-0.3,0-0.5-0.4-0.5-1
			c0-0.4,0-0.4,0.5-0.8c1.3-1,2.1-1.9,3.3-3.9c-0.6,0.1-0.8,0.1-1.2,0.1c-1.2,0-1.9-0.3-2.7-1.4L54.3,287.2z"/>
		<path class="st0" d="M54.1,320.4c0,0.3-0.2,0.3-0.8,0.3c-0.4,0-0.5,0-0.5-0.2c0.1-2.7,0.1-4.6,0.1-7.9c0-4.3,0-6.4-0.1-7.4
			c0.6,0.4,0.8,0.5,1.3,0.9h1.6c0.3-0.3,0.4-0.5,0.7-0.8c0.4,0.3,0.6,0.4,1,0.8c0.1,0.1,0.2,0.2,0.2,0.2c0,0.1-0.1,0.2-0.5,0.4
			l0,5.9c0,4,0,5.4,0,6.9c0,0.3-0.1,0.3-0.8,0.3c-0.3,0-0.3,0-0.3-0.2v-0.8h-1.8V320.4z M55.9,306.5h-1.8v3.5h1.8V306.5z
			 M54.1,310.5v3.6h1.8v-3.6H54.1z M54.1,314.5v3.9h1.8v-3.9H54.1z M56.3,321.2c1.9-1.1,2.7-2,3.4-3.4c0.5-1.1,0.8-2.1,0.8-3.7
			c-0.6,0.5-1.3,1-2.2,1.6c-0.1,0.7-0.1,0.8-0.3,0.8c-0.2,0-0.2,0-0.8-1.9c0.9-0.1,2.2-0.5,3.3-1c0-1.5,0-2.6,0-4.1
			c0-2.9,0-3.5-0.1-4.2c1.8,0.2,1.9,0.3,1.9,0.4c0,0.1-0.2,0.2-0.7,0.4c0,0.3,0,1.7,0,1.9c0,0.7-0.1,5-0.1,5.5
			c-0.1,2.6-0.5,4-1.5,5.3c-0.9,1.1-2,1.9-3.8,2.7L56.3,321.2z M57.7,307.9c1.3,1,2.2,2,2.2,2.6c0,0.5-0.4,1.2-0.7,1.2
			c-0.2,0-0.2-0.1-0.4-0.8c-0.3-1.1-0.6-1.8-1.3-2.9L57.7,307.9z M64.6,310.7c1.1-1.2,1.8-2.3,2.2-3.2c1.4,0.6,1.8,0.8,1.8,1
			c0,0.2-0.3,0.2-0.9,0.2c-1.4,1.3-1.9,1.7-3,2.4v1.9c0.7,0.2,1.8,0.7,2.3,0.9c0.4,0.2,0.8,0.5,0.9,0.7c0.1,0.1,0.2,0.5,0.2,0.8
			c0,0.5-0.2,0.9-0.4,0.9c-0.1,0-0.2-0.1-0.4-0.3c-0.7-1-1.5-1.9-2.5-2.6v5.9c0,0.5,0,0.5,0.6,0.5c0.1,0,0.3,0,0.6,0
			c0.1,0,0.2,0,0.2,0c0.9,0,1.1,0,1.2-0.3c0.1-0.2,0.2-0.5,0.8-3.2l0.3,0l-0.1,2.7c0,0,0,0.1,0,0.1c0,0.2,0,0.3,0.2,0.4
			c0.4,0.2,0.4,0.3,0.4,0.5c0,0.5-0.7,0.7-2.7,0.7c-1.9,0-2.2,0-2.4-0.2c-0.3-0.2-0.4-0.4-0.4-1c0-1.5,0-1.7,0-2.1V307
			c0-0.9,0-1.2-0.1-1.8c1.9,0.3,2,0.3,2,0.5c0,0.1-0.1,0.2-0.7,0.4V310.7z"/>
		<path class="st0" d="M55.5,328.2c0.7,0.5,1.1,1,1.4,1.5c0.2,0.3,0.4,1,0.6,1.9c1.2-0.7,2.2-0.9,3.8-1.1c0.2-0.9,0.3-1.6,0.3-2.1
			c0-0.5-0.2-0.6-0.8-0.6c-0.1,0-0.2,0-0.3,0l-0.1-0.2c0.5-0.2,0.9-0.3,1.2-0.3c0.7,0,1.4,0.6,1.4,1.1c0,0.3-0.3,1.3-0.5,2.1
			c3,0.1,5,2.1,5,4.8c0,2-1.2,3.7-3.3,4.8c-1.1,0.6-2.1,0.9-3.5,1l-0.1-0.3c1.5-0.5,2.5-1,3.5-1.8c1.3-1.1,2-2.6,2-4.1
			c0-1.4-0.6-2.5-1.5-3.2c-0.6-0.5-1.3-0.6-2.2-0.7c-0.7,2-1.9,4.2-3,5.6c0.3,0.4,0.3,0.5,0.6,0.9c0.5,0.6,0.6,0.7,0.6,0.9
			c0,0.2-0.2,0.4-0.4,0.4c-0.4,0-1-0.5-1.5-1.3c-0.3,0.4-0.7,0.8-1.4,1.3c-0.6,0.4-1,0.6-1.4,0.6c-0.4,0-0.6-0.2-0.8-0.9
			c-0.2-0.6-0.2-0.7-0.5-1.2c-0.3-0.4-0.4-0.7-0.4-1.1c0-1.4,1-3,2.8-4.2c-0.3-2.1-0.5-2.6-1.4-3.7L55.5,328.2z M55.4,334.4
			c-0.4,0.7-0.6,1.4-0.6,2.1c0,0.8,0.5,1.7,0.9,1.7c0.4,0,1.3-0.6,2.2-1.5c-0.5-1.2-0.7-2-1.1-3.9C56.1,333.4,55.7,333.8,55.4,334.4
			z M58.6,335.7c1-1.4,1.8-3,2.4-4.8c-1.5,0.2-2.4,0.5-3.5,1.3C58.1,334.3,58.2,334.8,58.6,335.7z"/>
		<path class="st0" d="M53.8,350.4c0.9,0.8,1.4,1,2.3,1c0.5,0,1-0.1,1.6-0.2c0.5-1.2,0.6-1.9,0.6-2.6c0-0.6-0.3-1-1.2-1.4
			c0.2-0.1,0.3-0.1,0.4-0.1c0.4,0,0.9,0.2,1.4,0.4c0.6,0.3,0.8,0.5,0.8,0.8c0,0.1,0,0.3-0.2,0.5c-0.1,0.1-0.5,0.9-1.1,2.2
			c1.3-0.5,1.5-0.6,2-1c0.1-0.1,0.2-0.1,0.4-0.1c0.7,0,1.2,0.2,1.2,0.5c0,0.5-1.1,0.9-4,1.6c-0.2,0.4-0.5,1.1-1,2.2
			c-0.5,1.2-1.9,4.3-2.1,4.6c-0.3,0.5-0.4,0.6-0.6,0.6c-0.3,0-0.6-0.6-0.6-1.3c0-0.4,0-0.5,0.2-0.6c0.4-0.4,0.6-0.7,0.9-1.1
			c0.9-1.3,1.5-2.5,2.3-4.2c-0.4,0.1-0.6,0.1-0.8,0.1c-0.6,0-1.1-0.1-1.6-0.4c-0.5-0.3-1-0.7-1.3-1.3L53.8,350.4z M63.3,351.4
			c1.2,0.1,2.3,0.4,3.1,1c0.7,0.5,1.1,1,1.1,1.4c0,0.3-0.2,0.5-0.5,0.5c-0.1,0-0.3,0-0.4-0.1c-0.5-0.3-0.8-0.4-1.8-0.4
			c-1.4,0-1.9,0.4-1.9,1.6c0,0.5,0.1,1.3,0.4,3.1c1.1,0.3,2,0.8,2.6,1.2c0.5,0.4,0.7,0.8,0.7,1.4c0,0.4-0.1,0.6-0.4,0.6
			c-0.2,0-0.3-0.1-0.6-0.5c-0.6-0.7-1.2-1.1-2.2-1.6c0,0.1,0,0.3,0,0.3c0,0.7-0.1,1.1-0.5,1.5c-0.5,0.5-1.3,0.8-2.3,0.8
			c-1.6,0-2.7-0.8-2.7-1.9c0-1.3,1.4-2.1,3.4-2.1c0.4,0,0.6,0,1.1,0.1c-0.1-1.4-0.1-1.6-0.1-1.8c0-1.5,0.1-2,0.6-2.6
			c0.4-0.4,0.9-0.6,1.7-0.8c0.3-0.1,0.3-0.1,1-0.2c-0.5-0.5-1-0.8-2.3-1.2L63.3,351.4z M62.3,359.3c-0.6-0.2-1-0.2-1.5-0.2
			c-1.5,0-2.5,0.5-2.5,1.4c0,0.7,0.7,1.1,1.8,1.1c1.5,0,2.2-0.6,2.2-1.7V359.3z"/>
		<path class="st0" d="M56.2,380c1.4,0.8,2.4,1.2,2.8,1.2c0.4,0,0.7-0.4,1.2-1.5c0.6-1.5,1.1-3.5,1.1-4.8c0-0.8-0.2-1.2-0.5-1.5
			c-0.2-0.1-0.4-0.2-0.8-0.2c-0.5,0-0.8,0.1-1.9,0.4c-0.3,0.6-0.3,0.6-1,2.4c-0.1,0.2-0.5,1.1-1.1,2.5c-0.7,1.7-1.3,3-1.6,3.5
			c-0.1,0.2-0.3,0.3-0.4,0.3c-0.3,0-0.5-0.5-0.5-1.2c0-0.4,0.1-0.6,0.4-1c0.8-1,1.6-2.5,3.3-6.3c-1.2,0.4-2,0.7-2.3,0.9
			c-0.3,0.2-0.4,0.2-0.5,0.2c-0.2,0-0.6-0.2-0.8-0.5c-0.3-0.4-0.6-1-0.6-1.4c0-0.1,0-0.2,0.1-0.4c0.4,0.7,0.7,1,1.4,1
			c0.4,0,1.7-0.3,3.1-0.6c0.4-1,0.7-2.3,0.7-3c0-0.6-0.4-0.9-1.4-1.2c0.2-0.2,0.3-0.2,0.5-0.2c0.3,0,0.7,0.1,1.2,0.2
			c0.8,0.2,1.3,0.6,1.3,1c0,0.1,0,0.2-0.3,0.5c-0.3,0.6-0.6,1.2-1.2,2.4c0.8-0.2,1.1-0.2,1.6-0.2c1.5,0,2.3,0.9,2.3,2.8
			c0,2.3-0.9,5.3-2,6.4c-0.5,0.5-1.2,0.8-1.7,0.8c-0.3,0-0.5-0.1-0.5-0.4c0-0.5-0.1-0.6-2-2.1L56.2,380z M64.1,372.7
			c1.4,0.4,2.5,1.1,3.3,2.2c0.7,0.9,1,1.7,1,2.5c0,0.6-0.3,1-0.7,1c-0.1,0-0.2,0-0.4-0.1c-0.3-0.2-0.4-0.2-0.7-0.2
			c-0.6,0-0.7,0-2.2,0.2l-0.1-0.2c1.8-0.5,2.2-0.7,2.8-0.9c-0.2-1.7-1.4-3.4-3-4.1L64.1,372.7z M64.7,369.1c0.7,0.4,1.2,0.7,1.6,1.1
			c0.6,0.6,0.9,1,0.9,1.4s-0.3,0.8-0.6,0.8c-0.2,0-0.2,0-0.8-1.2c-0.3-0.6-0.9-1.4-1.4-1.9L64.7,369.1z M66.6,368.1
			c0.6,0.3,1.2,0.6,1.7,1c0.7,0.5,0.9,0.9,0.9,1.4c0,0.4-0.2,0.7-0.5,0.7c-0.2,0-0.3-0.1-0.4-0.3c-0.6-1.1-1-1.6-2-2.6L66.6,368.1z"
			/>
		<path class="st0" d="M58.3,388.9c0.6,0.9,1.1,1.2,2.3,1.6c0.3,0.1,0.9,0.3,1.3,0.3c0.3,0.1,0.5,0.2,0.7,0.5
			c0.3,0.3,0.4,0.6,0.4,0.8s-0.2,0.4-0.4,0.4c-0.1,0-0.1,0-0.4-0.1c-0.3,0-0.5-0.1-0.9-0.1c-0.9,0-2.3,0.2-3.4,0.5
			c-0.5,0.1-0.7,0.2-0.8,0.3c-0.1,0.1-0.2,0.3-0.2,0.5c0,0.1,0,0.3,0.1,0.5c0.1,0.3,0.1,0.4,0.1,0.6c0,0.1,0,0.3-0.1,0.6
			c-0.1,1-0.3,2.4-0.3,3.7c2.2-1.5,4.2-2.2,5.9-2.2c2,0,3.4,1.2,3.4,2.8c0,1.7-1.3,3.1-3.5,3.8c-1.2,0.4-2.4,0.6-4.1,0.7l-0.1-0.3
			c2.1-0.3,3.3-0.8,4.5-1.6c1.2-0.9,1.8-1.8,1.8-2.9c0-1.2-0.9-2-2.2-2c-1.3,0-2.9,0.7-4.3,2c-0.5,0.4-0.7,0.7-1,1.1
			c-0.2,0.3-0.3,0.4-0.5,0.4c-0.3,0-0.5-0.2-0.8-0.6c-0.2-0.4-0.4-0.7-0.4-0.9c0,0,0-0.2,0.1-0.3c0.1-0.3,0.1-0.4,0.2-1.1
			c0-0.4,0.1-0.9,0.2-1.5c0.3-1.4,0.3-2,0.3-2.4c0-0.6,0.1-0.8,0.3-1c0.3-0.3,0.8-0.5,1.9-0.8c1.5-0.5,1.5-0.5,2.1-0.7
			c-0.7-0.3-1.2-0.6-1.6-1c-0.4-0.4-0.6-0.7-0.9-1.4L58.3,388.9z"/>
		<path class="st0" d="M69,411.9c0,1.3-1,2.3-2.3,2.3s-2.3-1-2.3-2.3c0-1.3,1-2.3,2.3-2.3C68,409.6,69,410.6,69,411.9z M64.9,411.9
			c0,1,0.8,1.7,1.7,1.7c1,0,1.7-0.8,1.7-1.7s-0.8-1.7-1.7-1.7S64.9,410.9,64.9,411.9z"/>
		<path class="st0" d="M10.1,106.7c1.6-1.9,2.1-2.5,3-4c0.8-1.3,1-1.7,1.5-3.3c0.4,0.2,0.8,0.3,1,0.4c0.8,0.3,1,0.4,1,0.6
			c0,0.1-0.3,0.2-0.6,0.2c-0.1,0-0.2,0-0.3,0c-0.5,0.9-0.9,1.4-1.9,2.8c0.9,0.1,1.2,0.2,1.2,0.4c0,0.2-0.2,0.3-0.6,0.4v3.6l0,1.5
			l0,2.9c0,0.2-0.1,0.3-0.2,0.3c-0.2,0-0.5,0.1-0.7,0.1c-0.2,0-0.3-0.1-0.3-0.3c0,0,0,0,0,0c0.1-2.5,0.1-2.5,0.1-4.8l0-3.3
			c-1.1,1.3-1.6,1.8-2.7,2.7L10.1,106.7z M23.8,98.7l1.1-1.4c0.8,0.6,1.1,0.9,1.9,1.6c0.1,0.1,0.1,0.1,0.1,0.1
			c0,0.1-0.1,0.1-0.1,0.1H11.9c-0.4,0-1.1,0.1-1.5,0.2l-0.2-0.8c0.7,0.1,1.2,0.2,1.7,0.2h5.7v-1.2c0-0.6,0-0.8-0.1-1.4
			c1.6,0.1,2.1,0.2,2.1,0.4c0,0.1-0.1,0.2-0.8,0.4v1.8H23.8z M23.3,101.8c0.3-0.3,0.5-0.6,0.8-0.8c0.5,0.3,0.9,0.7,1.3,1
			c0.1,0.1,0.2,0.2,0.2,0.3c0,0.1-0.1,0.2-0.9,0.5c-1,2.5-2,4.1-3.4,5.6c1.7,1.3,2.8,1.7,5.8,2.5l0,0.2c-0.8,0.1-0.9,0.2-1.5,1.1
			c-1.1-0.3-1.7-0.6-2.8-1.4c-0.9-0.6-1.5-1.1-2.1-1.7c-0.6,0.5-1,0.9-1.6,1.3c-1.5,1.1-2.3,1.5-4.1,2.2l-0.1-0.2
			c2.5-1.4,3.8-2.5,5.2-4c-1.3-1.6-1.8-2.4-2.5-3.7c-1,1.2-1.4,1.6-2.5,2.4l-0.1-0.2c1.3-1.5,2.2-2.9,3-4.4c0.5-1,0.9-2.1,1.1-3
			c0.8,0.2,1.7,0.5,1.8,0.6c0.1,0,0.1,0.1,0.1,0.1c0,0.2-0.3,0.3-0.9,0.3c-0.4,0.8-0.4,0.8-0.7,1.3H23.3z M18.9,102.2
			c-0.5,0.8-0.8,1.3-1.3,1.9c0.8,1.5,1.4,2.2,2.8,3.4c1.2-1.5,2.2-3.2,3-5.4H18.9z M19.2,102.8c0.8,0.3,1.1,0.5,1.5,0.8
			c0.7,0.4,0.8,0.5,0.8,0.9c0,0.5-0.3,1.1-0.5,1.1c-0.1,0-0.2-0.1-0.3-0.3c-0.5-1-1-1.7-1.6-2.2L19.2,102.8z"/>
		<path class="st0" d="M15.2,125.4c-0.3,1.1-0.8,3.1-1,4c-0.2,0.8-0.2,1.1-0.2,1.5c0,0.6,0,0.6-0.1,0.8c-0.1,0.1-0.2,0.2-0.3,0.2
			c-0.3,0-0.6-0.3-0.8-0.8c-0.4-0.9-0.6-2.3-0.6-3.6c0-1.7,0.2-3.2,0.8-6c0.2-1.1,0.3-1.3,0.3-1.6c0-0.5-0.1-1-0.5-1.6
			c0.4,0,0.8,0.3,1.3,0.9c0.4,0.5,0.6,1,0.6,1.4c0,0.2,0,0.2-0.3,0.8c-0.9,1.8-1.4,3.9-1.4,5.9c0,0.9,0.1,1.5,0.3,2.2l0.8-1.8l1-2.3
			L15.2,125.4z M17,122.2c0.9,0.6,1.4,0.7,2.3,0.7c0.6,0,1.3-0.1,2.1-0.3c0-0.3,0-0.6,0-0.8c0-2,0-2.3-0.3-2.5
			c-0.2-0.2-0.6-0.4-1.2-0.4c0.3-0.2,0.4-0.3,0.9-0.3c0.4,0,0.9,0.1,1.2,0.2c0.5,0.2,0.8,0.4,0.8,0.6c0,0.1,0,0.1-0.2,0.6
			c-0.2,0.5-0.3,1.2-0.4,2.4c0.8-0.2,1.4-0.5,1.7-0.7c0.2-0.2,0.2-0.2,0.4-0.2c0.2,0,0.6,0.1,0.8,0.2c0.1,0.1,0.2,0.2,0.2,0.3
			c0,0.4-1.3,0.9-3.2,1.3c0,2.4,0.1,3.4,0.2,4.9c2.1,0.6,3,1.3,3,2.3c0,0.4-0.2,0.7-0.4,0.7c-0.1,0-0.3-0.1-0.6-0.5
			c-0.8-0.8-1.2-1.1-1.9-1.4c0,0.2,0,0.3,0,0.4c0,1.3-1.1,2.1-2.9,2.1c-1.6,0-2.7-0.8-2.7-1.8c0-1.2,1.3-2,3.4-2
			c0.3,0,0.6,0,1.1,0.1c0-0.2,0-0.3,0-0.3l0-1.9l0-2.3c-0.5,0.1-1.1,0.1-1.6,0.1c-1.3,0-2.1-0.3-3-1.3L17,122.2z M19.8,128.7
			c-1.4,0-2.3,0.5-2.3,1.3c0,0.6,0.7,1.1,1.8,1.1c1,0,1.7-0.3,2-0.8c0.2-0.3,0.2-0.6,0.2-1.3C21,128.8,20.4,128.7,19.8,128.7z"/>
		<path class="st0" d="M15.1,153.3c1.8-1.4,2.9-2.5,4.1-4c1.5-1.9,2.5-3.8,3-5.5c-1.7,0.1-3.4,0.4-5.2,0.8c-1.1,0.3-1.5,0.4-1.9,0.6
			c-0.3,0.1-0.4,0.2-0.5,0.2c-0.6,0-1.7-1.3-1.7-2.1c0-0.1,0-0.2,0.1-0.3c0.4,0.7,0.9,1,1.6,1c0.7,0,3.7-0.4,6.1-0.8
			c1-0.2,1.1-0.2,1.5-0.4c0.1-0.1,0.2-0.1,0.3-0.1c0.2,0,0.4,0.2,0.8,0.5c0.5,0.5,0.7,0.8,0.7,1c0,0.1-0.1,0.3-0.3,0.4
			c-0.3,0.2-0.4,0.3-0.7,0.9c-1.9,3.7-4.8,6.6-7.8,7.9L15.1,153.3z M14.8,139.4c0.6,0.7,1.2,1,1.9,1c1.2,0,3.4-0.5,4.1-0.9
			c0.1-0.1,0.2-0.1,0.4-0.1c0.5,0,1.4,0.6,1.4,1c0,0.2-0.2,0.3-0.7,0.4c-2.1,0.3-3.6,0.5-4.6,0.5c-1.4,0-1.9-0.3-2.8-1.7L14.8,139.4
			z"/>
		<path class="st0" d="M11.2,169.6c2.3-1.2,4.7-3,6.8-5.1c1.8-1.7,2.9-3.2,2.9-3.7c0-0.3-0.3-0.6-1-1c0.2-0.1,0.2-0.1,0.4-0.1
			c0.5,0,1,0.2,1.5,0.5c0.6,0.4,0.9,0.8,0.9,1.2c0,0.2,0,0.2-0.7,0.8c-0.2,0.1-0.2,0.1-1.5,1.4c-1.3,1.2-1.4,1.3-2.1,1.9
			c0.7,0.5,1,0.8,1.1,1c0.1,0.2,0.1,1,0.1,2.6c0,1.3,0.1,2.4,0.1,3.4c0,0.4,0,0.9,0,1c0,0.6-0.1,0.9-0.4,0.9c-0.4,0-1.2-1-1.2-1.5
			c0-0.1,0-0.1,0.1-0.5c0.2-0.5,0.3-2.7,0.3-4.4c0-0.9,0-1.4-0.1-1.7c-0.1-0.2-0.1-0.3-0.4-0.6c-1.3,1-2.6,1.9-3.5,2.5
			c-1,0.6-2.3,1.2-3.2,1.6L11.2,169.6z"/>
		<path class="st0" d="M15.6,180.5c0.4,0,0.8,0.1,1.3,0.3c0.8,0.3,1.2,0.6,1.2,1c0,0.1,0,0.1-0.1,0.4c-0.2,0.5-0.3,1.8-0.3,3.9
			c1.4,0.1,3.1,0.6,4.2,1c0.8,0.4,1.1,0.7,1.1,1.4c0,0.5-0.2,0.8-0.4,0.8c-0.2,0-0.2,0-0.7-0.4c-1.2-1.1-2.6-1.9-4.2-2.3
			c0,1.1,0,1.7,0,2.2c0,0.5,0,0.7,0,1.1c0,0.8,0,1.1,0,1.5c0,0.5,0,0.5,0,2.1c0,0.4,0,0.7,0,1c0,0.3,0,0.5-0.1,0.6
			c-0.1,0.1-0.2,0.2-0.3,0.2c-0.4,0-1.2-1-1.2-1.6c0-0.2,0-0.3,0.1-0.5c0.3-0.9,0.4-3.2,0.4-7.8c0-1.3-0.1-2.6-0.1-3.1
			c-0.1-0.8-0.5-1.3-1.4-1.6C15.3,180.5,15.4,180.5,15.6,180.5z"/>
		<path class="st0" d="M13.8,215.9c1.3-1.1,2.5-2.7,3.3-4.5c0.6-1.4,1.1-3.1,1.1-3.9c0-0.5-0.3-0.8-1.1-1.2c0.1-0.1,0.2-0.2,0.4-0.2
			c0.2,0,0.9,0.2,1.4,0.5c0.5,0.3,0.6,0.4,0.8,0.6c0.8-0.5,2.4-1.8,3.2-2.6c0.4-0.4,0.6-0.6,0.6-0.7c0-0.2-0.2-0.3-1.1-0.3
			c-1.2,0-4.3,0.5-6.2,1c-0.7,0.2-1.3,0.4-1.8,0.6c-0.1,0.1-0.3,0.1-0.4,0.1c-0.4,0-1-0.5-1.4-1.2c-0.2-0.3-0.3-0.8-0.3-1
			c0-0.1,0-0.3,0.1-0.4c0.3,0.7,0.9,1.1,1.8,1.1c0.6,0,1,0,4.3-0.5c0.2,0,0.6-0.1,1.2-0.1c2.8-0.3,2.9-0.4,3.3-0.5
			c0.1,0,0.1-0.1,0.2-0.1c0.2,0,0.5,0.2,1,0.5c0.8,0.6,1.3,1.2,1.3,1.5c0,0.3-0.1,0.3-0.6,0.5c-0.3,0.1-0.5,0.2-0.9,0.4
			c-1.5,0.8-2.3,1.3-4.2,2.2c-0.1,0.3-0.1,0.3-0.3,0.8c-0.8,2.5-1.5,3.9-2.6,5.1c-0.9,1-1.8,1.8-2.8,2.4L13.8,215.9z"/>
		<path class="st0" d="M15.9,225.6c1.8,1.1,2.5,1.8,2.5,2.5c0,0.5-0.3,1-0.6,1c-0.2,0-0.3-0.1-0.4-0.5c-0.5-1.2-0.7-1.6-1.7-2.8
			L15.9,225.6z M17.5,234.8c1.2-0.9,1.8-1.5,2.7-2.4c1.5-1.7,2.7-3.6,3.5-5.4c0.3-0.6,0.3-0.9,0.3-1.1c0-0.4-0.2-0.6-0.9-1
			c0.2-0.1,0.3-0.1,0.4-0.1c0.4,0,1,0.2,1.5,0.6c0.5,0.3,0.7,0.6,0.7,0.8c0,0.2,0,0.2-0.3,0.5c-0.1,0.1-0.4,0.5-0.6,1
			c-1.3,2.2-1.6,2.6-2.5,3.7c-1.4,1.7-3,3-4.6,3.8L17.5,234.8z M19.1,224.9c0.7,0.3,1.1,0.6,1.6,1c0.5,0.4,0.7,0.7,0.7,1.1
			c0,0.5-0.3,1.1-0.6,1.1c-0.2,0-0.3-0.1-0.4-0.5c-0.3-1.1-0.7-1.8-1.4-2.5L19.1,224.9z"/>
		<path class="st0" d="M13.8,257.8c2.8-2.4,4.4-4.2,6-6.9c1.2-2,2.1-4.2,2.1-4.8c0-0.2-0.1-0.2-0.4-0.2c-0.3,0-2,0.3-3.3,0.6
			c-1.4,0.3-2.5,0.7-3.3,1c-0.3,0.1-0.5,0.2-0.7,0.2c-0.4,0-0.8-0.4-1.3-1c-0.3-0.4-0.5-0.8-0.5-1.1c0-0.1,0-0.2,0.1-0.4
			c0.3,0.7,0.9,1,1.7,1c0.6,0,2-0.2,5.1-0.7c1.6-0.3,1.7-0.3,2.1-0.5c0.2-0.1,0.2-0.1,0.4-0.1c0.3,0,0.8,0.3,1.3,0.8
			c0.4,0.4,0.6,0.6,0.6,0.9c0,0.2,0,0.3-0.3,0.5c-0.3,0.3-0.3,0.4-0.6,1c-2.4,4.8-5.2,8-8.9,10L13.8,257.8z M27.4,244
			c0,1.1-0.9,2-2,2s-2-0.9-2-2c0-1.1,0.9-2,2-2C26.5,242,27.4,242.9,27.4,244z M24,244c0,0.8,0.6,1.4,1.4,1.4s1.4-0.6,1.4-1.4
			c0-0.8-0.6-1.4-1.4-1.4C24.6,242.6,24,243.2,24,244z"/>
		<path class="st0" d="M20.8,265.3c0.7,0.3,1.7,0.6,2,0.6c0.1,0,0.1,0,0.2,0c0.1,0,0.1,0,0.1,0c0.5,0,0.7,0.2,0.7,0.6
			c0,0.3-0.3,0.5-1,0.9c-0.6,0.3-0.9,0.5-2.6,1.1c0.9,1.3,1.9,2.9,2.5,3.9c0.3,0.5,0.4,0.9,0.4,1.4c0,0.7-0.1,1-0.5,1
			c-0.2,0-0.3-0.1-0.6-0.3c-0.4-0.3-0.8-0.7-1.2-0.8c-0.9-0.4-2.1-0.7-3.3-0.7c-2.1,0-3.4,0.8-3.4,2.1c0,0.8,0.5,1.4,1.4,1.8
			c0.6,0.3,1.5,0.4,2.5,0.4c0.7,0,1.1,0,1.6-0.1c0.1,0,0.2,0,0.2,0c0.5,0,1.1,0.6,1.1,1c0,0.5-0.3,0.6-1.6,0.6
			c-1.4,0-2.6-0.2-3.5-0.5c-1.6-0.5-2.6-1.6-2.6-2.9c0-1.8,1.8-2.9,4.7-2.9c1.2,0,2.6,0.2,3.5,0.5c-0.4-1.2-1.2-2.6-2.2-4
			c-1.3,0.4-2.5,0.6-3.7,0.6c-1.4,0-2.4-0.5-3.3-1.6l0.2-0.2c1,0.7,1.7,1,2.9,1c1,0,2.1-0.2,3.3-0.6c-0.8-1-1.8-1.9-2.5-2.3
			c-0.6-0.3-0.7-0.4-0.7-0.7c0-0.4,0.5-0.7,1.2-0.7c0.6,0,1.3,0.1,2.1,0.4l-0.1,0.3c-0.4-0.1-0.7-0.1-0.8-0.1
			c-0.4,0-0.6,0.1-0.6,0.2c0,0.1,0.2,0.3,0.7,1c0.2,0.2,0.7,0.8,1.4,1.7c0.2-0.1,0.2-0.1,1.1-0.5c0.4-0.2,0.8-0.3,1.3-0.7
			c-0.5-0.4-0.5-0.4-1.5-1L20.8,265.3z"/>
		<path class="st0" d="M14.5,290.8c0-0.3,0-0.3,0-0.8c0-0.4,0-0.4,0.1-0.6c-0.5,0.4-1.5,1-1.8,1.2c-0.3,0.2-0.5,0.3-0.6,0.3
			c-0.5,0-1.3-1.1-1.3-1.6c0,0,0-0.2,0.1-0.3c0.4,0.6,0.8,0.9,1.2,0.9c0.4,0,1.5-0.5,2.6-1.1c0.1-0.8,0.1-1.3,0.1-1.9
			c0-1-0.2-1.4-1-2c0.1-0.1,0.1-0.1,0.2-0.1c0.3,0,0.7,0.2,1.2,0.5c0.6,0.4,0.9,0.8,0.9,1.2c0,0.2,0,0.2-0.2,0.7
			c-0.1,0.3-0.3,0.9-0.3,1.4c0.4,0.4,0.5,0.6,0.5,0.7c0,0.1,0,0.1-0.3,0.5c-0.2,0.4-0.4,0.7-0.6,1.2c0,0.3,0,0.4,0,0.7
			c1.8-1.7,2.4-2.2,3.1-2.8c1.3-0.9,2.1-1.3,2.9-1.3c0.6,0,1.1,0.2,1.4,0.6c0.3,0.4,0.5,0.9,0.5,1.6c0,0.7,0,0.8-0.4,2.7
			c-0.2,1.2-0.3,2.2-0.3,3c0,0.7,0.1,1.1,0.5,1.3c0.3,0.2,0.6,0.3,0.9,0.3c0.9,0,2.2-0.5,3.3-1.3l0.1,0.2c-1.3,1.3-2.7,2.1-4,2.1
			c-1.4,0-2.1-0.9-2.1-2.5c0-0.6,0.2-1.8,0.5-3.2c0.4-1.9,0.5-2.2,0.5-2.8c0-0.9-0.4-1.4-1.1-1.4c-0.8,0-1.7,0.5-3.2,1.8
			c-0.9,0.8-1.8,1.7-2.7,2.8c0,0.4,0,0.7,0,0.9c0,1,0.1,1.8,0.2,3.2c0.1,0.4,0.1,0.6,0.1,0.8c0,1-0.3,1.9-0.8,1.9
			c-0.2,0-0.3-0.1-0.4-0.5c-0.1-0.2-0.3-0.7-0.3-0.9c-0.2-0.4-0.8-1.1-1.6-2c-0.4,0.9-0.4,1-0.6,1c-0.2,0-0.3-0.1-0.4-0.4
			c-0.1-0.3-0.2-0.7-0.2-1c0-0.2,0-0.3,0.3-0.5c0.3-0.3,0.6-0.7,1.2-1.6L14.5,290.8z M13.4,294.2c-0.4,0.8-0.6,1.2-1,1.9
			c1.1,0.9,1.4,1.1,1.9,1.5c0-0.7,0-0.7,0.1-3.4c0-0.9,0-1.3,0.1-2C14.2,292.7,14.2,292.7,13.4,294.2z"/>
		<path class="st0" d="M10.4,309.7c0.8,0.5,1.2,0.7,1.8,1.1c0.6-1.3,0.8-1.8,1.1-2.5c0.5-1.2,0.8-2.3,1-2.9c1.6,0.5,2.1,0.6,2.1,0.8
			c0,0.2-0.2,0.3-0.8,0.3c-2.1,3.4-2.4,3.8-2.9,4.5c1.2,0.9,1.5,1.3,1.5,1.8c0,0.3-0.1,0.7-0.2,0.9c-0.1,0.1-0.2,0.2-0.3,0.2
			c-0.2,0-0.2-0.1-0.5-0.6c-0.7-1.3-1.6-2.4-2.8-3.5L10.4,309.7z M16.2,314.9c2.2,2.1,2.7,2.8,2.7,3.7c0,0.6-0.4,1.3-0.8,1.3
			c-0.1,0-0.2-0.1-0.3-0.3c-0.1-0.6-0.3-1.1-0.5-1.6c-3.3,1-3.7,1.1-6,1.5c0,0.2-0.1,0.3-0.1,0.4c-0.1,0.3-0.1,0.4-0.3,0.4
			c-0.2,0-0.2-0.1-0.6-1.9c0.2,0,0.3,0,0.4,0c0.3,0,0.6,0,1.2-0.1c1-1.5,1.7-2.5,2.6-4.4c1-1.9,1.9-3.7,2.2-4.6
			c1.7,0.7,1.8,0.7,1.8,0.9c0,0.2-0.2,0.3-0.8,0.3c-1.5,2.6-2.1,3.5-3.4,5.3c-0.8,1.1-1.3,1.8-1.9,2.4c0.3,0,0.6-0.1,0.8-0.1
			c0.8-0.1,0.8-0.1,1.9-0.2c1.5-0.2,1.5-0.2,2.1-0.3c-0.3-0.8-0.5-1.2-1.3-2.5L16.2,314.9z M18,306.5c0.5,0.1,0.9,0.2,1.7,0.2h4.5
			c0.3-0.4,0.4-0.5,0.8-0.8c0.5,0.4,0.7,0.6,1.2,1c0.1,0.1,0.2,0.2,0.2,0.3c0,0.1-0.1,0.2-0.7,0.5c-0.2,5.1-0.2,5.7-0.4,7.7
			c-0.3,2.2-0.5,3.5-0.9,4.1c-0.4,0.7-0.9,0.9-2.3,1.2c-0.1-0.5-0.2-0.8-0.5-1c-0.3-0.2-0.7-0.3-2.1-0.6v-0.3
			c0.7,0.1,0.7,0.1,2.1,0.2c0.7,0.1,1,0.1,1.4,0.1c0.4,0,0.5-0.1,0.7-1.3c0.2-1.1,0.5-3.1,0.6-5.3c0.1-1.6,0.1-2.9,0.2-5.3h-4.7
			c-1.3,0-1.3,0-1.5,0.1L18,306.5z"/>
		<path class="st0" d="M16.1,328.8c0.4-0.5,0.5-0.6,1-1.1c0.6,0.5,0.8,0.7,1.3,1.3c0,0.1,0.1,0.1,0.1,0.1c0,0.1-0.1,0.1-0.2,0.1H15
			v0.7c2.2,1,2.9,1.6,2.9,2.3c0,0.5-0.3,1-0.6,1c-0.1,0-0.2-0.1-0.3-0.3c-0.5-1-1.2-1.9-2-2.6c0,3.3,0,3.5,0.1,5.5c0,0,0,0,0,0
			c0,0.2-0.2,0.2-0.9,0.2c-0.2,0-0.3-0.1-0.3-0.2c0.1-2.3,0.1-3.7,0.1-4.1v-1c-1,1.7-1.7,2.4-3.7,3.9l-0.2-0.3
			c1.2-1.2,2-2.2,2.7-3.5c0.3-0.5,0.4-0.8,0.8-1.7h-1.5c-0.4,0-1.1,0.1-1.5,0.1l-0.1-0.7c0.5,0.1,1.1,0.2,1.7,0.2h1.8v-1.3
			c0-0.8,0-1-0.1-1.6c1.7,0.2,1.9,0.3,1.9,0.4c0,0.1-0.1,0.2-0.8,0.4v2.1H16.1z M13.4,337.1c-0.1,1.4-0.3,2.2-0.7,3
			c-0.4,0.8-0.9,1.3-1.3,1.3c-0.3,0-0.6-0.4-0.6-1c0-0.2,0.1-0.3,0.2-0.5c0.1-0.1,0.1-0.1,0.5-0.3c0.4-0.3,0.8-0.7,1.2-1.2
			c0.3-0.4,0.3-0.7,0.5-1.3H13.4z M15.1,338.1c0-0.6,0-0.8,0-1.2c1.7,0.2,1.9,0.2,1.9,0.4c0,0.2-0.1,0.2-0.7,0.4v2.4
			c0,0.2,0,0.4,0.1,0.4c0.1,0.1,0.6,0.1,1.8,0.1c1.9,0,2.8,0,2.9,0c0.3,0,0.4-0.1,0.5-0.6c0.2-0.5,0.5-1.2,0.8-2.4l0.2,0l-0.1,2.2
			l0,0.3c0,0.2,0,0.2,0.4,0.3c0.2,0.1,0.3,0.2,0.3,0.4c0,0.3-0.3,0.5-0.8,0.6c-0.4,0.1-1.4,0.1-2.5,0.1c-2.5,0-3.5,0-3.9-0.1
			c-0.6-0.1-0.9-0.4-0.9-1.2c0-0.1,0-0.2,0-0.3l0-0.8V338.1z M17.6,336.6c0.9,0.3,1.6,0.7,2.2,1.1c0.3,0.3,0.5,0.5,0.5,0.8
			c0,0.5-0.3,1-0.5,1c-0.1,0-0.2-0.1-0.3-0.3c-0.1-0.2-0.3-0.6-0.5-0.9c-0.4-0.7-0.7-1-1.4-1.5L17.6,336.6z M19.9,336
			c0,0.2-0.2,0.3-0.9,0.3c-0.3,0-0.3,0-0.3-0.2c0-1.8,0.1-2.5,0.1-4.3c0-2.8,0-4.4-0.1-5.7c0.7,0.4,0.9,0.5,1.5,1h3.9
			c0.3-0.4,0.4-0.5,0.8-0.8c0.5,0.4,0.6,0.5,1,0.8c0.1,0.1,0.2,0.2,0.2,0.3c0,0.1-0.2,0.3-0.6,0.5c0,0.6,0,0.8,0,1.2
			c0,2.8,0,5.5,0.1,7c0,0.1,0,0.1-0.1,0.2c-0.1,0.1-0.5,0.1-1,0.1c-0.2,0-0.2-0.1-0.2-0.2v-0.8h-4.3V336z M24.2,327.4h-4.3v2.1h4.3
			V327.4z M19.9,329.9v2.2h4.3v-2.2H19.9z M19.9,332.5v2.3h4.3v-2.3H19.9z M23.6,337.1c2.1,1.2,3,2,3,2.7c0,0.3-0.2,0.8-0.3,1
			c-0.1,0.2-0.3,0.3-0.4,0.3c-0.1,0-0.2-0.1-0.3-0.3c-0.5-1.2-1.1-2.3-2.1-3.5L23.6,337.1z"/>
		<path class="st0" d="M15.6,350.3c0.3-0.3,0.4-0.4,0.6-0.8c0.4,0.3,0.5,0.4,0.9,0.8c0.1,0.1,0.2,0.2,0.2,0.3c0,0.1-0.1,0.2-0.6,0.4
			c0,1.1,0,1.9,0,2.3c0,3.8,0,6.8,0,8.1c0,0,0,0.1,0,0.1c0,0.1-0.1,0.2-0.6,0.2c-0.1,0-0.2,0-0.3,0c0,0,0,0-0.1,0
			c-0.2,0-0.2-0.1-0.2-0.2c0,0,0,0,0-0.1v-1h-3.2v1.5c0,0.2-0.1,0.3-0.6,0.3c0,0-0.1,0-0.2,0c-0.3,0-0.3,0-0.3-0.2
			c0.1-2,0.1-2.6,0.1-5.7c0-4,0-5-0.1-6.9c0.6,0.4,0.8,0.5,1.4,0.9h0.5c0.6-2,0.7-2.6,0.7-3.4c0.7,0.2,1.6,0.4,1.9,0.6
			c0.1,0.1,0.2,0.1,0.2,0.2c0,0.2-0.1,0.2-0.8,0.3c-0.5,1.1-0.8,1.5-1.5,2.4H15.6z M15.6,354.8v-4.1h-3.2v4.1H15.6z M12.4,355.2v4.9
			h3.2v-4.9H12.4z M24.7,350.3c0.3-0.4,0.5-0.5,0.8-0.9c0.5,0.4,0.6,0.5,1.1,0.9c0.1,0.1,0.2,0.2,0.2,0.3c0,0.2,0,0.2-0.7,0.5
			c-0.1,4.2-0.1,4.6-0.4,6.8c-0.3,2.1-0.6,3.4-1.1,4c-0.3,0.5-0.6,0.6-2.1,0.8c-0.2-0.6-0.3-0.8-0.6-1c-0.2-0.1-0.5-0.2-0.9-0.3
			l-0.5-0.1c-0.2,0-0.3,0-0.5-0.1v-0.3c0.3,0,0.6,0,0.8,0.1c1,0.1,1.3,0.1,1.7,0.1c1,0,1.1,0,1.2-0.3c0.3-0.6,0.6-1.9,0.7-3.4
			c0.3-2.1,0.3-3.8,0.3-6.8h-4.9c-1.1,2.1-1.7,3-2.6,4l-0.2-0.1c0.9-1.4,1.4-2.6,2-4.3c0.5-1.4,0.7-2.5,0.8-3.5
			c0.8,0.2,1.7,0.4,1.9,0.5c0.1,0,0.2,0.1,0.2,0.2c0,0.1-0.1,0.2-0.8,0.4c-0.3,1-0.5,1.4-1,2.5H24.7z M19.4,353.1
			c1.3,0.8,1.9,1.4,2.6,2.1c0.5,0.5,0.6,0.8,0.6,1.3c0,0.7-0.3,1.3-0.6,1.3c-0.1,0-0.3-0.1-0.4-0.4c-0.2-0.6-0.5-1.2-0.8-1.9
			c-0.5-1-0.8-1.4-1.6-2.2L19.4,353.1z"/>
		<path class="st0" d="M15.2,376c0,0.2-0.3,1.3-0.8,3.4c-0.3,1.1-0.3,1.3-0.3,1.9c0,0.5,0,0.7-0.1,0.8c-0.1,0.2-0.2,0.3-0.4,0.3
			c-0.3,0-0.6-0.3-0.8-0.7c-0.4-0.9-0.6-2.4-0.6-3.8c0-0.5,0.1-1.2,0.1-1.9c0.1-1,0.1-1,0.6-3.4c0.2-0.8,0.3-1.3,0.3-1.7
			c0-0.6-0.1-1-0.5-1.7c0.4,0,0.7,0.3,1.2,0.9c0.5,0.6,0.7,1,0.7,1.4c0,0.3,0,0.4-0.4,1.1c-0.4,0.8-0.8,2-1,2.9
			c-0.2,0.7-0.2,1.5-0.2,2.2c0,1,0.1,1.6,0.3,2.4c0.3-0.6,0.5-1,0.6-1.5l1-2.5L15.2,376z M17.4,376.9c0,0.4-0.1,0.5-0.1,0.8
			c0,2,1.1,2.8,3.9,2.8c0.5,0,1,0,1.5-0.1c0.4-0.1,0.4-0.1,1-0.3c0.1,0,0.2-0.1,0.3-0.1c0.5,0,1.1,0.6,1.1,1.1
			c0,0.2-0.1,0.4-0.4,0.5c-0.4,0.1-1.2,0.2-2.3,0.2c-2.2,0-3.9-0.4-4.7-1.1c-0.6-0.6-1-1.4-1-2.3c0-0.5,0.1-0.8,0.2-1.4L17.4,376.9z
			 M17.4,371.1c0.6,0.4,1,0.5,1.7,0.5c1.1,0,2.9-0.4,3.6-0.8c0.2-0.1,0.3-0.1,0.4-0.1c0.1,0,0.4,0.1,0.6,0.3
			c0.4,0.2,0.6,0.4,0.6,0.7c0,0.2-0.1,0.3-0.5,0.4c-1.2,0.2-1.9,0.3-2.6,0.6c-0.6,0.2-1.6,0.8-2.3,1.3l-0.2-0.2
			c0.8-0.7,1.4-1.2,1.7-1.4c-0.4,0-0.6,0-0.7,0c-1,0-1.7-0.3-2.4-1L17.4,371.1z"/>
		<path class="st0" d="M27,391c0,1.3-1,2.3-2.3,2.3s-2.3-1-2.3-2.3s1-2.3,2.3-2.3C26,388.7,27,389.7,27,391z M22.9,391
			c0,1,0.8,1.7,1.7,1.7c1,0,1.7-0.8,1.7-1.7c0-1-0.8-1.7-1.7-1.7S22.9,390,22.9,391z"/>
	</g>
</g>
<line class="st1" x1="201.4" y1="4.8" x2="201.4" y2="64.8"/>
</svg>
