<?xml version="1.0" encoding="utf-8"?>
<!-- Generator: Adobe Illustrator 25.2.3, SVG Export Plug-In . SVG Version: 6.00 Build 0)  -->
<svg version="1.1" id="レイヤー_1" xmlns="http://www.w3.org/2000/svg" xmlns:xlink="http://www.w3.org/1999/xlink" x="0px"
	 y="0px" viewBox="0 0 114 419" style="enable-background:new 0 0 114 419;" xml:space="preserve">
<style type="text/css">
	.st0{fill:#200701;}
	.st1{fill:none;stroke:#76544B;stroke-miterlimit:10;}
</style>
<g>
	<g>
		<path class="st0" d="M81,127.9c1.5,0.6,2.6,1.1,3.2,1.5c0.7,0.4,1,0.8,1,1.4c0,0.8-0.4,1.7-0.8,1.7c-0.2,0-0.3-0.1-0.5-0.5
			c-0.8-1.4-1.7-2.5-3.1-3.8L81,127.9z M81.1,138.1c0.7,0.2,1.1,0.3,1.4,0.3c0.4,0,0.6-0.2,1.2-1.5c0.8-1.6,1.4-3.1,2.6-5.9
			c1.2-2.9,1.2-2.9,1.8-4.1l0.4,0.2l-3.7,11.4c-0.3,1-0.4,1-0.4,1.5c0,0.4,0.1,0.6,0.3,1.8c0.3,1.2,0.4,1.6,0.4,2.2
			c0,1.1-1,2.3-2,2.3c-0.4,0-0.6-0.3-0.6-0.8c0-0.1,0.1-0.7,0.1-1.1c0.3-1.8,0.3-2.1,0.3-2.9c0-1.9-0.2-2.2-2-2.9L81.1,138.1z
			 M82.7,121.9c1.5,0.6,2.4,1,3.2,1.5c1,0.6,1.2,0.9,1.2,1.6c0,0.8-0.4,1.5-0.8,1.5c-0.2,0-0.3-0.1-0.5-0.4
			c-0.6-1.1-1.1-1.7-3.4-3.9L82.7,121.9z M99.4,139.9c0,0.9,0,0.9,0.1,4.3c0,0.7-0.2,1-0.6,1.3c-0.5,0.4-1.1,0.6-2.4,0.8
			c-0.1-0.9-0.3-1.2-0.8-1.4c-0.4-0.1-0.6-0.2-2.7-0.5l0-0.5c2.3,0.1,2.5,0.1,4.1,0.2c0.4,0,0.4-0.1,0.4-0.5v-8h-3.2v0.9
			c0,0.3-0.3,0.4-1.5,0.4c-0.3,0-0.4-0.1-0.4-0.4c0.1-2.3,0.1-2.9,0.1-5.2c0-2.4,0-3.7-0.1-5c1,0.5,1.2,0.6,2.1,1.2h1.8
			c0.1-0.5,0.1-0.5,0.2-0.8c0.4-1.5,0.4-1.7,0.6-2.7h-6.3c0,1.2,0,2.2,0,3c0,5.7-0.4,9.5-1.3,12.6c-0.5,1.6-1.1,3.2-1.9,4.5
			c-0.4,0.7-0.8,1.1-1.6,2.1l-0.3-0.3c1.3-2.4,1.9-4.1,2.5-7.1c0.6-3.2,0.8-6.2,0.8-12.9c0-1.8,0-2.4-0.1-3.9c1,0.5,1.2,0.7,2.1,1.3
			h10.9c0.8-0.8,1-1.1,1.7-1.8c1.2,0.9,1.5,1.2,2.6,2.1c0.1,0.1,0.1,0.2,0.1,0.2c0,0.1-0.1,0.1-0.3,0.1h-6.8
			c-1.4,2.3-1.5,2.5-2.3,3.5h4.9c0.4-0.5,0.6-0.7,1-1.2c0.6,0.4,0.9,0.6,1.5,1c0.2,0.2,0.3,0.3,0.3,0.4c0,0.2-0.2,0.4-0.7,0.7
			c0,1,0,1.8,0,2.4c0,1.7,0,1.9,0.1,5.8c0,0.4-0.3,0.4-1.5,0.4c-0.3,0-0.3-0.1-0.3-0.4v-1h-2.9V139.9z M89.3,145.5
			c2-2.5,3.4-5.1,4-7.8c2.5,0.8,2.7,0.9,2.7,1.1c0,0.3-0.4,0.4-1.1,0.4c-1.9,3.1-2.7,4.1-5.3,6.6L89.3,145.5z M102.4,131.2v-3h-7.9
			v3H102.4z M94.5,131.8v3.2h7.9v-3.2H94.5z M101,137.8c1.6,1.1,2.8,2.1,3.9,3.3c0.6,0.6,0.9,1.2,0.9,1.8c0,1-0.5,2.2-0.9,2.2
			c-0.2,0-0.4-0.2-0.5-0.6c-1-2.4-1.9-4.1-3.6-6.4L101,137.8z"/>
		<path class="st0" d="M82.1,172.5c0.9,0.2,1.2,0.2,2.7,0.2h4.4c0.5-0.5,0.6-0.7,1.1-1.2c0.7,0.6,0.9,0.8,1.6,1.3
			c0.2,0.2,0.3,0.3,0.3,0.4c0,0.2-0.2,0.3-1,0.5c-1.5,2.4-2.9,4-5.2,5.7c-1.7,1.3-3.1,2-5.3,2.8l-0.2-0.3c2.3-1.3,3.7-2.4,5.3-4
			c1.6-1.6,2.5-2.8,3.3-4.6h-4.5c-1.2,0-1.7,0-2.4,0.1L82.1,172.5z M95,169.3c0.2,1.2,0.4,1.7,0.9,2.7c0.5,0.9,1,1.6,1.7,2.4
			c2-1.4,4.2-3.4,5.2-4.6c2.2,1.3,2.5,1.5,2.5,1.7c0,0.2-0.2,0.3-0.5,0.3c-0.1,0-0.5,0-1-0.1c-1.5,1-3.9,2.2-5.9,3
			c0.9,1,1.8,1.7,3,2.4c2,1.2,3.6,1.8,6.2,2.3v0.4c-0.7,0.2-0.9,0.3-1.4,0.7c-0.4,0.4-0.6,0.6-0.8,1.2c-1.6-0.6-2.3-1-3.8-2.1
			c-2.3-1.7-3.5-3.1-4.9-5.5c-0.8-1.4-1.1-2.1-1.6-3.6c0.1,1.8,0.2,4.1,0.2,5.3c0,0.2,0,0.3,0,0.4v1.7c0,0.3,0,0.8,0,1.7
			c0,0.3,0,0.8,0,1.4c0,1.3-0.5,1.7-3.2,2.4c-0.3-1.4-0.9-1.8-3.7-2v-0.4c2.2,0.1,2.8,0.1,4.6,0.1c0.3,0,0.4-0.1,0.4-0.3v-11.4h-5.7
			v0.9c0,0.4-0.2,0.4-1.5,0.4c-0.3,0-0.4-0.1-0.4-0.3c0.1-2.2,0.1-4.4,0.1-7.3c0-1.7,0-2.5-0.1-3.9c1,0.5,1.3,0.7,2.3,1.3H92
			c0.4-1,0.7-2.3,0.7-3.4c2.5,0.6,2.5,0.6,2.8,0.7c0.2,0.1,0.3,0.2,0.3,0.3c0,0.3-0.3,0.4-1.4,0.5c-0.6,0.8-0.9,1-1.8,1.8h7.1
			l1.1-1.3c0.8,0.6,1,0.7,1.7,1.3c0.2,0.2,0.3,0.3,0.3,0.4c0,0.3-0.2,0.4-1.1,0.7v2.9c0,2.2,0,2.8,0.1,4.8c0,0.3-0.1,0.4-0.3,0.5
			c-0.2,0.1-0.8,0.1-1.2,0.1c-0.3,0-0.4-0.1-0.4-0.3v-0.5H95z M100.1,164.6v-3.4H87.3v3.4H100.1z M87.3,165.3v3.4h12.7v-3.4H87.3z"
			/>
		<path class="st0" d="M86.9,200.3c0.4-0.6,0.6-0.8,1.1-1.3c0.8,0.7,1,0.9,1.7,1.6c0.1,0.1,0.1,0.2,0.1,0.2c0,0.1-0.1,0.1-0.3,0.1
			H86v6.1c1.1-0.3,1.3-0.4,3.2-1.1l0.1,0.4c-0.7,0.4-0.7,0.4-1.8,1l-1.6,0.8v9.5c0,0.6-0.1,0.9-0.6,1.2c-0.5,0.3-0.9,0.4-1.7,0.6
			c-0.1-0.9-0.3-1.1-1-1.4c-0.6-0.3-1.3-0.4-2.3-0.6v-0.3c1.4,0.1,1.7,0.1,3.4,0.2c0.3,0,0.4-0.1,0.4-0.3V209
			c-0.3,0.1-0.9,0.4-1.8,0.9c-0.1,0.8-0.2,1.1-0.4,1.1c-0.3,0-0.4-0.3-1.1-2.5c1.1-0.2,2.3-0.5,3.4-0.8V201h-1c-0.8,0-1.1,0-1.8,0.2
			l-0.2-1.1c0.6,0.2,1.2,0.3,2,0.3h1v-2.6c0-1.1-0.1-2.6-0.1-3.6c1.2,0.1,2.5,0.3,2.8,0.4c0.2,0.1,0.3,0.1,0.3,0.3
			c0,0.2-0.2,0.4-1.3,0.7v4.8H86.9z M91.4,199.5c-0.7,0-1.5,0.1-2.2,0.2l-0.2-1c0.8,0.2,1.5,0.2,2.2,0.2h1.4v-2.2
			c0-0.7,0-1.3-0.1-2.4c2.4,0.3,3,0.5,3,0.8c0,0.3-0.1,0.3-1.2,0.7v3.1h1.8c0.6-0.7,0.8-1,1.4-1.7c0.8,0.8,1.1,1.1,1.8,2
			c0,0.1,0.1,0.1,0.1,0.2c0,0.1-0.1,0.2-0.3,0.2h-4.8v4.7h2.2c0.6-0.8,0.8-1,1.5-1.8c0.9,0.8,1.1,1.1,2,1.9c0.1,0.1,0.1,0.2,0.1,0.3
			s-0.1,0.2-0.3,0.2h-9.1c-1,0-1.8,0.1-2.6,0.2l-0.2-1.1c1,0.2,1.5,0.3,2.8,0.3h2v-4.7H91.4z M96,209.7c0.6-0.8,0.8-1,1.4-1.7
			c0.9,0.8,1.1,1.1,1.9,2c0.1,0.1,0.1,0.2,0.1,0.2c0,0.1-0.1,0.2-0.3,0.2h-4.8v4.5c2-0.4,3-0.6,4.8-1.2l0.1,0.4
			c-2,1-2.6,1.2-9.9,3.7c-0.1,0.8-0.2,1.2-0.4,1.2c-0.2,0-0.4-0.5-1.1-3c0.8,0,0.8,0,4.8-0.8v-4.8h-2.2c-0.5,0-1.5,0.1-2.2,0.2
			l-0.2-1.1c0.8,0.2,1.4,0.3,2.4,0.3h2.2v-1.8c0-0.8,0-1.3-0.1-2.3c2.5,0.3,2.9,0.3,2.9,0.6c0,0.2-0.2,0.3-1.1,0.7v2.8H96z
			 M102.5,203.7c3,1.7,4.6,3,4.6,3.9c0,0.3-0.2,1.1-0.4,1.4c-0.1,0.3-0.3,0.4-0.4,0.4c-0.1,0-0.3-0.1-0.5-0.5
			c-1.1-1.9-2.2-3.6-3.3-4.7c0.1,12.5,0.1,12.5,0.1,14.6c0,0.3-0.1,0.3-0.3,0.4c-0.2,0.1-1.1,0.2-1.4,0.2c-0.2,0-0.2-0.1-0.3-0.3
			c0-1.6,0.1-12.2,0.1-17c0-3.8,0-6.5-0.1-8c2.9,0.4,3.1,0.5,3.1,0.8c0,0.3-0.2,0.4-1.2,0.6c0,2.6,0,4.2,0,5.9V203.7z"/>
		<path class="st0" d="M89.1,242.6c-1.2,5-1.7,7.5-1.7,8.5c0,0.1,0,0.2,0,0.3c0,0.2,0,0.3,0,0.4c0,0.9-0.2,1.3-0.7,1.3
			c-0.4,0-0.8-0.4-1.2-1c-0.9-1.7-1.3-4.2-1.3-7.3c0-2.1,0.1-3.4,0.6-6.4c0.4-2,0.4-2.8,0.4-3.5c0-0.9-0.3-1.7-1-2.7
			c0.6,0,1.2,0.4,1.8,1.1c0.8,0.9,1.2,1.7,1.2,2.2c0,0.4,0,0.5-0.4,1.5c-1,2.7-1.5,5.3-1.5,7.8c0,2.1,0.2,3.4,0.7,4.4
			c0.3-0.8,2-5.4,2.5-6.9L89.1,242.6z M91.4,237.9c1.3,0.9,1.9,1.1,3.2,1.1c1.1,0,2.8-0.2,4-0.6c0-0.4,0-0.7,0-1
			c0-2.3-0.1-3.4-0.3-3.9c-0.3-0.6-1.1-1-2.4-1.3c0.4-0.4,0.6-0.4,1.5-0.4c2,0,3.4,0.6,3.4,1.4c0,0.1-0.1,0.4-0.1,0.7
			c-0.3,1-0.3,1.4-0.4,4c1.5-0.5,1.8-0.6,2.5-1.2c0.2-0.1,0.3-0.2,0.6-0.2c0.9,0,1.7,0.4,1.7,0.8c0,0.3-0.2,0.5-1,0.9
			c-0.9,0.4-1.8,0.7-3.8,1.2v4.1c0,4.4-0.8,6.7-2.9,8.9c-1.2,1.3-2.5,2.2-4.3,3.1l-0.2-0.4c2-1.6,3-2.7,3.9-4.3
			c1.3-2.3,1.8-4.8,1.8-9.6c0-0.6,0-0.7,0-1.4c-1.3,0.3-2.2,0.4-3.2,0.4c-1.9,0-3.1-0.6-4.4-2L91.4,237.9z"/>
		<path class="st0" d="M80.5,273.7c1.6,0.6,2.2,0.9,3.2,1.5c1.2,0.7,1.4,0.9,1.4,1.5c0,0.8-0.4,1.8-0.8,1.8c-0.2,0-0.3-0.2-0.6-0.7
			c-0.3-0.4-0.9-1.3-1.4-1.9c-0.6-0.7-1-1.1-2-1.8L80.5,273.7z M80.7,284c0.3,0.1,0.4,0.1,0.6,0.1c0.8,0.2,1.1,0.3,1.4,0.3
			c0.4,0,0.5-0.2,1-1.4c0.5-1.1,1.6-3.6,2.5-5.7c1.3-3.1,1.3-3.1,2-4.5l0.3,0.2l-3.9,11.8c-0.3,0.9-0.3,1-0.3,1.3c0,0.5,0.1,1,0.4,2
			c0.2,0.6,0.3,1.3,0.3,1.9c0,0.8-0.1,1.3-0.5,1.7c-0.4,0.4-1.1,0.8-1.5,0.8c-0.3,0-0.6-0.3-0.6-0.7c0-0.1,0.1-0.5,0.1-1
			c0.4-1.8,0.6-2.8,0.6-3.7c0-0.7-0.1-1.1-0.5-1.5c-0.4-0.4-0.9-0.7-1.7-1L80.7,284z M82.1,267.5c1.5,0.6,2.7,1.2,3.7,1.8
			c0.9,0.6,1.1,0.9,1.1,1.6c0,0.8-0.4,1.7-0.8,1.7c-0.2,0-0.4-0.2-0.7-0.7c-0.3-0.6-0.6-1-1.2-1.7c-0.9-1.1-1.3-1.5-2.4-2.4
			L82.1,267.5z M85.3,292.2c1.4-1.1,2-1.6,2.6-2.3c1.8-2,2.5-4.7,2.5-9.1c0-0.7,0-1.2-0.1-2.1c2.7,0.3,2.9,0.4,2.9,0.6
			c0,0.2,0,0.2-1,0.6c-0.1,3.1-0.2,3.7-0.4,5c-0.3,2.1-1.5,4.1-3.3,5.7c-1,0.8-1.7,1.3-3.1,2L85.3,292.2z M95.8,271.3
			c-1.1,2.1-1.7,3-3,4.8c4.2-0.2,4.7-0.2,8.1-0.5c-1.3-1.5-1.7-1.8-2.9-2.8l0.2-0.3c1.8,1,3.8,2.2,5,3c0.7,0.5,0.9,0.9,0.9,1.6
			c0,0.8-0.4,1.8-0.9,1.8c-0.2,0-0.3-0.2-0.6-0.6c-0.6-1-0.9-1.6-1.4-2.1c-3.6,0.6-3.6,0.6-12,1.8c0,0.1-0.1,0.2-0.1,0.3
			c-0.1,0.4-0.2,0.6-0.3,0.6c-0.3,0-0.3-0.1-0.8-2.7c1.7,0.1,1.7,0.1,2,0.1c0.3,0,0.3,0,1.9-0.1c0.6-1.7,0.6-1.7,1.4-4.8H90
			c-1,0-1.3,0-2.1,0.2l-0.3-1.1c0.8,0.2,1.4,0.3,2.4,0.3h4.7v-1.3c0-0.9,0-1.4-0.1-2.5c0.6,0.1,1.2,0.1,1.5,0.2
			c1.4,0.1,1.8,0.3,1.8,0.5c0,0.2-0.1,0.3-1.2,0.6v2.4h5.2c0.7-0.9,0.9-1.2,1.7-2c1.2,1,1.5,1.2,2.7,2.2c0.1,0.1,0.2,0.2,0.2,0.3
			c0,0.1-0.1,0.2-0.3,0.2H95.8z M96.5,282.8c0,3,0,3.8,0.1,8.5c0,0.2-0.1,0.3-0.2,0.4c-0.1,0.1-1,0.1-1.3,0.1
			c-0.3,0-0.4-0.1-0.4-0.3c0.1-3.9,0.1-5.9,0.1-9.9c0-1.1,0-1.8-0.1-2.9c2.6,0.3,2.9,0.4,2.9,0.6c0,0.2-0.2,0.3-1,0.6V282.8z
			 M99.4,281.4c0-1.5,0-1.7-0.1-2.7c2.4,0.2,3,0.3,3,0.6c0,0.2-0.3,0.4-1.1,0.6v9.5c0,0.4,0.1,0.5,0.4,0.5c0.3,0,0.6,0,0.7,0
			c0.1,0,0.1,0,0.1,0c1,0,1.5-0.1,1.6-0.3c0.2-0.3,0.4-1,1.5-5.6l0.4,0l-0.4,5c0,0.1,0,0.3,0,0.4c0,0.3,0,0.3,0.6,0.6
			c0.3,0.1,0.4,0.3,0.4,0.6c0,0.4-0.4,0.8-1.1,0.9c-0.6,0.1-2,0.1-3.2,0.1c-2.5,0-2.9-0.2-2.9-1.7c0-1.5,0-1.5,0-3.3V281.4z"/>
		<path class="st0" d="M103.1,321.7c-2.7,3.6-6.4,5.8-9.8,5.8c-2.1,0-3.8-0.9-4.6-2.4c-0.6-1-0.8-2.4-0.8-4.7c0-1.5,0.1-4.2,0.2-6.7
			c0.2-3,0.2-3.8,0.2-4.8c0-2.4-0.3-2.9-2.3-3.7c0.3-0.2,0.5-0.3,0.8-0.3c0.6,0,1.7,0.3,2.5,0.6c1.1,0.5,1.6,1.1,1.6,1.7
			c0,0.2,0,0.4-0.3,1c-0.5,1.7-1.5,10.2-1.5,13.4c0,1.7,0.3,2.7,1.1,3.4c0.6,0.5,1.5,0.8,2.5,0.8c1.9,0,4.3-0.7,6.4-1.8
			c1.3-0.7,2.1-1.3,3.6-2.5L103.1,321.7z"/>
		<path class="st0" d="M29.4,278.4c3-0.9,5-2,6.6-3.9c1.7-1.9,2.5-4.2,2.5-6.7c0-2.7-1.1-4.9-3.2-6.2c-1.2-0.8-3.1-1.3-4.8-1.3
			c-0.3,0-0.5,0-1,0.1c0.7,1,0.9,1.5,0.9,2.3c0,2.2-1.6,6.3-3.7,9.7c-1.8,2.8-3.1,4.2-4.2,4.2c-0.5,0-0.9-0.2-1.2-0.6
			c-0.3-0.3-0.3-0.4-0.8-1.8c-0.3-0.7-0.4-1.1-1.2-2.6c-0.4-0.9-0.6-1.7-0.6-2.5c0-1.8,1-3.8,2.5-5.5c2.3-2.4,6-3.9,9.6-3.9
			c2.8,0,5.4,0.9,7.2,2.6c1.8,1.7,2.7,3.9,2.7,6.6c0,3.5-2,6.6-5.6,8.5c-1.6,0.9-3.1,1.3-5.5,1.7L29.4,278.4z M20.2,269.6
			c0,1.3,0.4,2.7,1.1,3.7c0.4,0.5,0.8,0.8,1.1,0.8c0.6,0,2-1.5,3.3-3.7c2.1-3.3,3.6-6.9,3.6-8.7c0-0.4-0.1-0.7-0.4-1.4
			C24,261.3,20.2,265.3,20.2,269.6z"/>
		<path class="st0" d="M24.5,298.7h1.5c0.4-0.5,0.5-0.6,0.9-1.1c0.6,0.5,0.6,0.5,1.4,1.1c0.2,0.2,0.2,0.3,0.2,0.3
			c0,0.1,0,0.1-0.8,0.7v9.8c0,2.6,0,3.6,0.1,5.9c0,0.2-0.1,0.3-0.2,0.4c-0.2,0.1-0.7,0.1-1,0.1c-0.3,0-0.4-0.1-0.4-0.4v-0.5h-6.8
			v1.9c0,0.3-0.3,0.4-0.9,0.4c-0.2,0-0.3,0-0.3,0s-0.1,0-0.1,0c-0.3,0-0.5-0.1-0.5-0.4c0.2-5.9,0.2-5.9,0.2-6.6l0-4.6
			c0-6.8,0-6.8-0.1-8.5c0.9,0.5,1.1,0.7,1.9,1.3h1.2v-4.4h-1.8c-0.8,0-1.2,0-2.1,0.2l-0.2-1c0.9,0.1,1.7,0.2,2.4,0.2h6.8
			c0.5-0.6,1-1.2,1.5-1.8c1,0.8,1.4,1.1,2.4,2.1c0.1,0.1,0.1,0.1,0.1,0.2c0,0.1-0.1,0.2-0.3,0.2h-5.1V298.7z M26.2,307.1
			c-0.4,0.1-0.8,0.2-1.4,0.2c-1.3,0-1.5-0.2-1.5-1.1v-6.8H22c0,2.2-0.1,3.2-0.2,4.3c-0.2,1.8-0.7,3.1-1.9,4.9l-0.3-0.2
			c1-2.2,1.1-3.4,1.1-9h-1.3v10.9h6.8V307.1z M26.2,310.9h-6.8v3.6h6.8V310.9z M22,294.3v4.4h1.3v-4.4H22z M26.2,299.4h-1.7v6.3
			c0,0.3,0.1,0.3,0.3,0.3c0.1,0,0.1,0,0.3-0.1l0.3-3.1h0.3l0.2,3.1c0.2,0,0.2,0,0.4,0.1V299.4z M38.1,306.8c0.5-0.5,0.6-0.7,1.1-1.1
			c0.8,0.6,1,0.8,1.8,1.4c0.2,0.2,0.3,0.3,0.3,0.4c0,0.2-0.3,0.3-1.1,0.5c-1.4,2.3-2.2,3.2-3.4,4.5c2.1,1.3,3.8,2,6.5,2.4l0,0.3
			c-1,0.3-1.3,0.6-1.7,1.8c-2.4-0.9-4-1.8-5.8-3.5c-2.4,1.9-4.5,3-8.3,4l-0.2-0.4c3.3-1.3,5.3-2.6,7.6-4.7c-1.2-1.4-1.7-2.2-2.4-3.9
			c-1.2,1.6-2.1,2.4-4.1,3.8l-0.2-0.3c1.7-1.5,2.7-3,3.9-5.2c0.7-1.4,1-2,1.2-3.1c2.4,0.8,2.5,0.8,2.5,1.1c0,0.3-0.4,0.4-1.2,0.4
			c-0.5,0.8-0.6,1.1-1,1.6H38.1z M28.1,305.9c1.5-1,2.5-2.2,3.2-3.6c0.5-1,0.8-1.9,0.9-3.1c2.4,0.4,2.7,0.5,2.7,0.8
			c0,0.3-0.4,0.4-1.2,0.5c-0.6,1.7-1.1,2.5-2.1,3.5c-1,1-1.8,1.6-3.4,2.3L28.1,305.9z M36.3,297.9c-3.2,0.6-4.1,0.8-5.9,1.1
			c-0.2,1-0.3,1.2-0.5,1.2c-0.3,0-0.5-0.7-0.9-2.9c0.6,0,0.9,0,1,0c0.2,0,0.3,0,1.6-0.1c0.5-0.9,0.8-1.6,1.1-2.5
			c0.8-2.4,0.8-2.4,0.9-3c2.2,0.5,3,0.8,3,1.1c0,0-0.1,0.1-0.2,0.2c-0.2,0.1-0.4,0.2-1,0.2c-0.4,0.6-0.4,0.6-1.5,2
			c-0.5,0.7-0.9,1.2-1.6,1.9c3.2-0.1,4.7-0.3,6.8-0.5c-0.6-0.8-1-1.4-2.1-2.5l0.3-0.4c1.3,0.8,2.2,1.4,3.1,2.1
			c0.9,0.7,1.1,1,1.1,1.5c0,0.9-0.4,1.8-0.9,1.8c-0.1,0-0.3-0.1-0.4-0.4c-0.2-0.5-0.5-1.2-0.7-1.5L36.3,297.9z M32.7,307.9
			c0.4,1.1,0.7,1.5,1.4,2.3c0.4,0.5,0.8,0.8,1.4,1.3c1.1-1.3,1.8-2.2,2.8-4.1h-5.3L32.7,307.9z M36.2,299.9c0-0.9,0-0.9,0-1.5
			c1.9,0.2,2.5,0.3,2.5,0.6c0,0.2-0.1,0.3-0.9,0.6v2.7c0,0.5,0.1,0.5,1.1,0.5c1,0,1.5-0.1,1.7-0.4c0.2-0.3,0.5-1.4,1-3.1h0.3v2.7
			c0,0.3,0.1,0.5,0.5,0.6c0.3,0.1,0.5,0.3,0.5,0.6c0,0.8-1,1-4,1c-2.2,0-2.6-0.2-2.6-1.3c0-0.1,0-0.2,0-0.3V299.9z"/>
		<path class="st0" d="M19.5,333.4c0,0.3,0,0.6,0,0.7c0,2.7-0.3,4.6-0.9,5.8c-0.4,0.8-0.8,1.2-1.1,1.2c-0.2,0-0.4-0.2-0.6-0.6
			c-0.2-0.4-0.3-1-0.3-1.2c0-0.3,0.1-0.4,0.6-0.9c1.1-1,1.7-2.5,2-5H19.5z M20.6,330.8c0-1.2,0-1.5-0.1-2.5c2.6,0.3,3.2,0.4,3.2,0.8
			c0,0.2-0.2,0.4-1.2,0.7l-0.1,15.5c0,0.3,0,3,0.1,8.2c0,0.1,0,0.2-0.1,0.3c-0.1,0.1-1,0.2-1.5,0.2c-0.3,0-0.3-0.1-0.4-0.3
			c0.1-4.2,0.1-6,0.1-9.9c0-1.9,0-3,0-4.7c0-3.2,0-4.5,0-6.6V330.8z M23.5,333.2c1.3,1.5,2,2.5,2,3.2c0,0.8-0.6,2-1.1,2
			c-0.2,0-0.3-0.2-0.4-0.6c-0.1-1.7-0.3-3-0.8-4.5L23.5,333.2z M32.2,335.9v-3.1c0-2.6,0-3.1-0.2-4.4c3,0.4,3.4,0.5,3.4,0.8
			c0,0.3-0.1,0.3-1.3,0.7v6h3.6c0.7-0.9,0.9-1.1,1.6-2c1.1,0.9,1.5,1.2,2.6,2.2c0,0.1,0.1,0.1,0.1,0.2c0,0.1-0.1,0.2-0.2,0.2h-7.6
			v6.6h3.2c0.7-0.9,0.9-1.1,1.7-1.9c1.1,0.9,1.4,1.1,2.3,2.1c0.1,0.1,0.1,0.2,0.1,0.3s-0.1,0.2-0.3,0.2h-7v7.8h4.1
			c0.7-0.9,1-1.2,1.7-2.1c1.2,1,1.5,1.3,2.6,2.3c0.1,0.1,0.1,0.2,0.1,0.3c0,0.1-0.1,0.2-0.2,0.2H27c-1.1,0-1.8,0.1-2.8,0.2l-0.2-1.1
			c1,0.2,1.8,0.3,2.9,0.3h5.2v-7.8h-3.3c-0.9,0-1.8,0.1-2.5,0.1l-0.2-1c0.8,0.2,1.3,0.3,2.7,0.3h3.3v-6.6H28
			c-1.4,2.9-2.2,4.2-3.8,6.1l-0.3-0.3c1.2-1.9,2.1-4,2.9-6.7c0.6-2.1,1-3.8,1-5.2c2.6,0.7,3.1,0.9,3.1,1.1c0,0.2-0.3,0.4-1.2,0.6
			c-0.4,1.5-0.7,2.1-1.4,3.8H32.2z"/>
		<path class="st0" d="M18.1,379.5c0.9,0.2,1.2,0.2,2.7,0.2h4.4c0.5-0.5,0.6-0.7,1.1-1.2c0.7,0.6,0.9,0.8,1.6,1.3
			c0.2,0.2,0.3,0.3,0.3,0.4c0,0.2-0.2,0.3-1,0.5c-1.5,2.4-2.9,4-5.2,5.7c-1.7,1.3-3.1,2-5.3,2.8l-0.2-0.3c2.3-1.3,3.7-2.4,5.3-4
			c1.6-1.6,2.5-2.8,3.3-4.6h-4.5c-1.2,0-1.7,0-2.4,0.1L18.1,379.5z M31,376.3c0.2,1.2,0.4,1.7,0.9,2.7c0.5,0.9,1,1.6,1.7,2.4
			c2-1.4,4.2-3.4,5.2-4.6c2.2,1.3,2.5,1.5,2.5,1.7c0,0.2-0.2,0.3-0.5,0.3c-0.1,0-0.5,0-1-0.1c-1.5,1-3.9,2.2-5.9,3
			c0.9,1,1.8,1.7,3,2.4c2,1.2,3.6,1.8,6.2,2.3v0.4c-0.7,0.2-0.9,0.3-1.4,0.7c-0.4,0.4-0.6,0.6-0.8,1.2c-1.6-0.6-2.3-1-3.8-2.1
			c-2.3-1.7-3.5-3.1-4.9-5.5c-0.8-1.4-1.1-2.1-1.6-3.6c0.1,1.8,0.2,4.1,0.2,5.3c0,0.2,0,0.3,0,0.4v1.7c0,0.3,0,0.8,0,1.7
			c0,0.3,0,0.8,0,1.4c0,1.3-0.5,1.7-3.2,2.4c-0.3-1.4-0.9-1.8-3.7-2v-0.4c2.2,0.1,2.8,0.1,4.6,0.1c0.3,0,0.4-0.1,0.4-0.3v-11.4h-5.7
			v0.9c0,0.4-0.2,0.4-1.5,0.4c-0.3,0-0.4-0.1-0.4-0.3c0.1-2.2,0.1-4.4,0.1-7.3c0-1.7,0-2.5-0.1-3.9c1,0.5,1.3,0.7,2.3,1.3H28
			c0.4-1,0.7-2.3,0.7-3.4c2.5,0.6,2.5,0.6,2.8,0.7c0.2,0.1,0.3,0.2,0.3,0.3c0,0.3-0.3,0.4-1.4,0.5c-0.6,0.8-0.9,1-1.8,1.8h7.1
			l1.1-1.3c0.8,0.6,1,0.7,1.7,1.3c0.2,0.2,0.3,0.3,0.3,0.4c0,0.3-0.2,0.4-1.1,0.7v2.9c0,2.2,0,2.8,0.1,4.8c0,0.3-0.1,0.4-0.3,0.5
			c-0.2,0.1-0.8,0.1-1.2,0.1c-0.3,0-0.4-0.1-0.4-0.3v-0.5H31z M36.1,371.6v-3.4H23.3v3.4H36.1z M23.3,372.3v3.4h12.7v-3.4H23.3z"/>
	</g>
	<g>
		<path class="st0" d="M8,207c1.3-0.1,1.7-0.1,2.1-0.3c0.7-0.3,1-0.9,1.3-3.1l1.8-12.5c0.3-2.6,0.3-2.6,0.1-2.8
			c-0.2-0.2-0.6-0.3-1.4-0.3h-1.2l0.1-0.9c2.4-0.1,4.4-0.4,6-0.8c-0.5,2.3-0.9,4.9-1.4,8.4l-1.2,8.8c-0.3,2-0.2,2.6,0.1,2.9
			c0.3,0.3,0.4,0.3,2.2,0.4l-0.1,0.9H7.9L8,207z"/>
		<path class="st0" d="M22.3,189.6c1.4-2.1,3.8-3.3,6.5-3.3c2.6,0,4.7,1.2,5.5,3.3c0.9,2,1.1,4.8,0.7,7.7c-0.4,2.9-1.4,5.6-2.8,7.7
			c-1.4,2.1-3.8,3.3-6.4,3.3c-2.6,0-4.7-1.2-5.6-3.3c-0.9-2.1-1.1-4.8-0.7-7.7C19.9,194.3,20.8,191.7,22.3,189.6z M25.8,207.5
			c3.3,0,5.2-3.1,6.2-10.2c1-7.1,0-10.2-3.3-10.2c-3.3,0-5.2,3.1-6.2,10.2C21.4,204.4,22.5,207.5,25.8,207.5z"/>
		<path class="st0" d="M39,189.6c1.4-2.1,3.8-3.3,6.5-3.3c2.6,0,4.7,1.2,5.5,3.3c0.9,2,1.1,4.8,0.7,7.7c-0.4,2.9-1.4,5.6-2.8,7.7
			c-1.4,2.1-3.8,3.3-6.4,3.3c-2.6,0-4.7-1.2-5.6-3.3c-0.9-2.1-1.1-4.8-0.7-7.7C36.5,194.3,37.5,191.7,39,189.6z M42.5,207.5
			c3.3,0,5.2-3.1,6.2-10.2c1-7.1,0-10.2-3.3-10.2c-3.3,0-5.2,3.1-6.2,10.2C38.1,204.4,39.1,207.5,42.5,207.5z"/>
	</g>
	<g>
		<path class="st0" d="M23.6,222.6c3,0,4.9,2.3,4.9,6c0,3.6-2,6.1-5,6.1c-1.6,0-3-0.7-3.7-1.9c-0.7-1.1-1.1-2.6-1.1-4.1
			C18.8,225,20.8,222.6,23.6,222.6z M38.3,223.2L22,245.1l-0.8-0.7l16.3-21.9L38.3,223.2z M23.7,233.9c1.7,0,2.5-1.6,2.5-5.3
			c0-3.7-0.7-5.3-2.5-5.3c-0.8,0-1.4,0.4-1.8,1c-0.5,0.9-0.7,2.3-0.7,4.3C21.2,232.2,22,233.9,23.7,233.9z M35.8,233
			c3,0,4.9,2.3,4.9,6c0,3.6-2,6-5,6c-3,0-4.9-2.4-4.9-6C31,235.4,33,233,35.8,233z M35.9,244.3c1.7,0,2.5-1.6,2.5-5.3
			c0-3.8-0.7-5.3-2.5-5.3c-1.7,0-2.5,1.6-2.5,5.3C33.4,242.6,34.2,244.3,35.9,244.3z"/>
	</g>
</g>
<line class="st1" x1="93.7" y1="28.6" x2="93.7" y2="88.6"/>
</svg>
