<?xml version="1.0" encoding="utf-8"?>
<!-- Generator: Adobe Illustrator 25.2.3, SVG Export Plug-In . SVG Version: 6.00 Build 0)  -->
<svg version="1.1" id="レイヤー_1" xmlns="http://www.w3.org/2000/svg" xmlns:xlink="http://www.w3.org/1999/xlink" x="0px"
	 y="0px" viewBox="0 0 89.8 89.8" style="enable-background:new 0 0 89.8 89.8;" xml:space="preserve">
<style type="text/css">
	.st0{fill:none;}
	.st1{fill:#C0590E;}
	.st2{opacity:0.6;clip-path:url(#SVGID_1_);fill:url(#SVGID_2_);}
	.st3{fill:#FFFFFF;}
</style>
<pattern  x="-640" y="-337.5" width="1024.1" height="726.9" patternUnits="userSpaceOnUse" id="新規パターンスウォッチ_2" viewBox="1 -727.9 1024.1 726.9" style="overflow:visible;">
	<g>
		<rect x="1" y="-727.9" class="st0" width="1024.1" height="726.9"/>
		
			<image style="overflow:visible;" width="2950" height="2094" id="SB005_1_" xlink:href="3FE58774108C172B.png"  transform="matrix(0.3471 0 0 0.3471 1 -727.9108)">
		</image>
	</g>
</pattern>
<g>
	<circle class="st1" cx="44.9" cy="44.9" r="44.9"/>
	<g>
		<defs>
			<circle id="SVGID_4_" cx="44.9" cy="44.9" r="44.9"/>
		</defs>
		<clipPath id="SVGID_1_">
			<use xlink:href="#SVGID_4_"  style="overflow:visible;"/>
		</clipPath>
		
			<pattern  id="SVGID_2_" xlink:href="#譁ｰ隕上ヱ繧ｿ繝ｼ繝ｳ繧ｹ繧ｦ繧ｩ繝メ_2" patternTransform="matrix(5.269419e-02 0 0 9.740121e-02 -6316.125 -6640.5903)">
		</pattern>
		<rect x="-8.7" y="-6.7" class="st2" width="105.4" height="105.5"/>
	</g>
	<g>
		<path class="st3" d="M42,16.1l3.3-0.5c0.3-0.5,0.4-0.6,0.7-1.1c0.6,0.3,0.8,0.4,1.4,0.8c0.2,0.1,0.3,0.2,0.3,0.3
			c0,0.1,0,0.2-0.6,0.7c0.5,3.2,0.5,3.2,0.8,4.5c0,0,0,0.1,0,0.1c0,0.3-0.2,0.4-1.2,0.5c-0.2,0-0.3,0-0.4-0.2l-0.1-0.7l-12.8,1.9
			l0.1,0.6c0,0.3-0.1,0.4-1.1,0.5c-0.2,0-0.3,0-0.3-0.2c-0.2-1.4-0.3-2-0.4-2.9c-0.1-0.7-0.1-0.7-0.3-2.1c-0.1-0.5-0.2-0.9-0.2-1.3
			c0.8,0.2,1.1,0.3,1.9,0.6l3-0.5l-0.4-2.8l-4.9,0.7c-0.4,0.1-1,0.2-1.6,0.4l-0.3-0.8c0.6,0.1,1.1,0.1,2-0.1l14.3-2.2
			c0.5-0.7,0.6-0.9,1.1-1.6c1,0.5,1.3,0.7,2.2,1.2c0.1,0.1,0.2,0.2,0.2,0.2c0,0.1,0,0.1-0.1,0.2l-6.9,1L42,16.1z M44.8,23.7
			c-0.7,1.8-1.1,2.6-2.2,4c2.4,0.3,4.7,0.6,5.4,0.9c0.7,0.3,1.3,1,1.4,1.7c0,0.3-0.1,0.6-0.3,0.6c-0.2,0-0.3,0-1.7-0.6
			c-1.9-0.8-3.3-1.2-5.6-1.7c-1.3,1.4-2.4,2.3-4.2,3.1c-2,1-3.5,1.4-5.9,1.9l-0.1-0.4c2.8-0.8,4.2-1.4,5.8-2.4c1.1-0.7,2-1.4,3-2.4
			c-1.7-0.2-2.3-0.3-4-0.3c-0.2,0.4-0.3,0.5-0.6,1c-0.1,0.2-0.2,0.2-0.3,0.2c-0.2,0-1,0-1.1-0.1c0,0-0.1-0.1-0.1-0.1
			c0-0.1,0-0.1,0.2-0.4c1.1-1.9,1.5-2.5,2.1-3.7l-4.3,0.7c-1.4,0.2-1.4,0.2-1.8,0.4l-0.3-0.8c0.7,0.1,1,0.1,2-0.1l4.6-0.7
			c0.7-1.5,0.9-2.1,1.1-2.7c1.9,0.3,2.1,0.3,2.1,0.5c0,0.2-0.2,0.3-0.9,0.5c-0.4,0.8-0.4,1-0.7,1.5l8.7-1.3c0.5-0.8,0.6-1,1.2-1.7
			c1,0.6,1.3,0.7,2.1,1.3c0.1,0.1,0.2,0.2,0.2,0.2c0,0.1-0.1,0.1-0.2,0.2L44.8,23.7z M32.8,18l0.6,3.7l3.4-0.5l-0.6-3.7L32.8,18z
			 M38.2,24.7c-0.6,1.2-0.9,1.8-1.5,2.8c2.4,0,3.2,0,4.4,0c1-1.3,1.4-2,2-3.6L38.2,24.7z M37,14l0.4,2.8l3.2-0.5l-0.4-2.8L37,14z
			 M38.1,21l3.2-0.5l-0.6-3.7l-3.2,0.5L38.1,21z M42.7,20.3l3.5-0.5l-0.6-3.7l-3.5,0.5L42.7,20.3z"/>
		<path class="st3" d="M46.5,35.9c0.3-0.5,0.5-0.7,0.9-1.3c0.9,0.5,1.2,0.6,2.1,1.1c0.3,0.2,0.4,0.2,0.4,0.3c0,0.2-0.2,0.3-0.4,0.3
			c0,0,0,0-0.1,0c-0.1,0-0.4,0-0.8,0.1c-1.3,1.3-3.5,3.2-4.4,4c0.6,0.4,0.8,0.7,0.9,1.1c0.1,0.5,0,0.9-0.2,1.3l5.2-0.8
			c0.3-0.6,0.5-0.7,0.8-1.2c1.1,0.5,1.4,0.7,2.3,1.3c0.2,0.1,0.2,0.1,0.3,0.3c0,0,0,0.1,0,0.1c0,0-0.1,0.2-0.1,0.3
			C53.2,42.9,53,43,52.8,43l-0.4,0.1c-0.2,0-0.3,0.1-0.5,0.1c-1.8,1.9-3.1,3-4.8,4.1L46.8,47c1.5-1.7,2.5-2.9,3.2-4.4l-5.8,0.9
			l0.6,3.8c0.1,0.8,0.4,2.6,0.9,5.4c0.1,0.9-0.1,1.3-0.6,1.7c-0.3,0.2-0.6,0.4-1.7,0.9c-0.3-0.8-0.7-1.1-1.4-1.2
			c-0.5-0.1-1.1-0.1-3.3-0.1l0-0.4c2.9-0.3,3.1-0.3,4.9-0.5c0.4-0.1,0.5-0.2,0.4-0.5l-1.4-9l-7,1.1c-1,0.1-1.7,0.3-2.4,0.5L33,44.5
			c0.9,0,1.5,0,2.7-0.2l8.6-1.3c-0.1-0.1-0.5-0.5-1.3-1.2c-1-0.9-2.5-2-4.3-2.9l0.2-0.3c1.9,0.5,3.1,1,4.7,1.7
			c0.9-0.9,2-2.5,2.8-3.8L37,37.9c-0.9,0.1-1.6,0.3-2.3,0.4l-0.3-0.8c1,0,1.4,0,2.5-0.2L46.5,35.9z"/>
		<path class="st3" d="M36.2,63.2c0.9,0.2,1.2,0.4,2,0.7c0.7-1.8,1.1-3.4,1.1-4.7c0.6,0.1,1,0.2,1.3,0.2c1.1,0.2,1.3,0.2,1.3,0.4
			c0,0.2-0.1,0.3-1,0.5c-0.4,0.9-0.6,1.1-1.8,2.9c-0.1,0.1-0.1,0.1-0.5,0.9c0.6,0.3,0.7,0.4,1,0.5c0.2,0.2,0.5,0.5,0.5,0.7
			c0,0.3,0,0.8-0.2,1.1c-0.1,0.2-0.2,0.3-0.3,0.3c-0.2,0-0.3-0.1-0.5-0.4c-0.1-0.2-0.7-0.9-1-1.2c-0.5-0.6-1-1-2-1.6L36.2,63.2z
			 M40.9,69.6c-0.8,0.3-0.9,0.3-2.5,0.8c0,0.6-0.1,0.9-0.3,0.9c-0.2,0-0.4-0.2-1-2c0.3,0,0.5-0.1,0.6-0.1c0.2,0,0.7-0.1,1.7-0.3
			c0.5-0.9,0.8-1.5,1.4-3c0.9-2.2,1.2-3.1,1.5-4.4c0.5,0.1,1,0.2,1.2,0.2c0.9,0.2,1.2,0.3,1.2,0.4c0,0.2-0.2,0.4-0.9,0.5
			c-1.1,2.2-2.4,4.4-3.7,6.1c0.9-0.2,1.6-0.3,3.8-0.9c-0.4-0.6-0.6-0.9-1.3-1.6l0.2-0.3c1,0.6,1.8,1.2,2.4,1.7
			c0.4,0.3,0.6,0.7,0.7,1c0.1,0.6-0.2,1.3-0.6,1.3c-0.2,0-0.3-0.1-0.6-0.7c-0.1-0.3-0.3-0.5-0.5-1c0,0-0.7,0.3-1.9,0.8l0.7,4.6
			l0.8,5.2c0,0,0,0.1,0,0.1c0,0.2-0.3,0.4-1,0.5c-0.2,0-0.3,0-0.4-0.2c-0.4-3.1-0.5-3.5-0.8-5.4L40.9,69.6z M38.2,79.1
			c0.5-2.4,0.6-4.5,0.4-7.3c2,0.2,2.1,0.2,2.1,0.4s-0.2,0.3-0.6,0.5c-0.3,2.6-0.6,3.8-1.5,6.5L38.2,79.1z M43.6,70.7
			c1.9,1.7,2.8,2.9,2.9,3.7c0.1,0.8-0.3,1.8-0.7,1.8c-0.2,0-0.3,0-0.3-0.2c-0.1-0.1-0.1-0.1-0.4-1.2c-0.4-1.4-1-2.6-1.8-4L43.6,70.7
			z M53.8,61.7c0.4-0.5,0.5-0.7,0.9-1.2c0.6,0.3,0.8,0.4,1.4,0.8c0.2,0.1,0.3,0.2,0.3,0.3c0,0.2-0.2,0.4-0.6,0.7
			c0.7,6.4,0.7,6.7,0.8,8.5c0,1.7-0.1,3.4-0.3,4.5c-0.3,1.3-1,1.9-2.9,2.4c-0.2-0.7-0.5-1-1.1-1.1c-0.5-0.1-1-0.2-2.8-0.3l0-0.3
			c2.6-0.1,3.7-0.2,4.5-0.3c0.5-0.1,0.6-0.2,0.8-0.8c0.5-1.7,0.3-6.5-0.5-11.7L54,62.2l-6.6,1c-0.6,1.7-1,2.5-1.9,4.1l-0.3-0.2
			c0.7-2,1.1-3.5,1.4-5.8c0.2-1.3,0.2-2.1,0.2-3.3c2.2,0.2,2.6,0.3,2.6,0.5c0,0.2-0.2,0.3-0.8,0.5c-0.4,1.8-0.6,2.4-0.9,3.5
			L53.8,61.7z M47.5,66.1c1.3,0.7,2.3,1.3,3.3,2.1c0.8,0.7,1.1,1,1.2,1.5c0.1,0.7-0.2,1.7-0.6,1.8c-0.2,0-0.3-0.1-0.4-0.4
			c-0.8-1.7-2-3.2-3.5-4.7L47.5,66.1z"/>
	</g>
</g>
</svg>
