<?xml version="1.0" encoding="utf-8"?>
<!-- Generator: Adobe Illustrator 25.2.3, SVG Export Plug-In . SVG Version: 6.00 Build 0)  -->
<svg version="1.1" id="レイヤー_1" xmlns="http://www.w3.org/2000/svg" xmlns:xlink="http://www.w3.org/1999/xlink" x="0px"
	 y="0px" viewBox="0 0 462 69" style="enable-background:new 0 0 462 69;" xml:space="preserve">
<style type="text/css">
	.st0{fill:#4A1F00;}
	.st1{fill:#8D8017;}
	.st2{fill:none;stroke:#200701;stroke-width:2;stroke-miterlimit:10;}
	.st3{fill:none;stroke:#4A1F00;stroke-width:3;stroke-miterlimit:10;}
	.st4{fill:none;stroke:#8D8017;stroke-width:5;stroke-miterlimit:10;}
	.st5{fill:#FFFFFF;}
	.st6{fill:none;stroke:#200701;stroke-miterlimit:10;}
</style>
<g>
	<g>
		<g>
			<path class="st0" d="M201.4,20.3c0.7,1.1,1.3,1.7,2.4,2.3c1.5,0.8,2.9,1.2,5.6,1.4v0.2c-0.7,0.2-1,0.6-1.2,1.3
				c-1.7-0.4-2.6-0.7-3.8-1.5c-1.5-0.9-2.4-2-3.3-3.7c-0.4,1.1-0.9,1.9-1.7,2.7c-1.5,1.4-3.5,2.2-6.5,2.6l-0.1-0.3
				c2-0.5,3.6-1.2,4.9-2.2c1-0.9,1.7-1.7,2.1-2.9h-4.6c-0.6,0-0.9,0-1.7,0.1l-0.2-0.7c0.6,0.1,1.5,0.2,1.9,0.2h4.7
				c0.1-0.6,0.2-0.9,0.2-1.4c0-0.1,0-0.3,0-0.6c1.7,0.3,2,0.3,2,0.5c0,0.2-0.2,0.3-0.6,0.3c-0.1,0.6-0.1,0.7-0.2,1.1h5.1
				c0.4-0.5,0.5-0.6,1-1.1c0.7,0.5,0.9,0.7,1.6,1.2c0.1,0.1,0.1,0.2,0.1,0.2c0,0.1-0.1,0.1-0.1,0.1h-0.2H201.4z M202,12.1
				c0.5-0.7,1.2-2,1.5-2.8c1.6,0.5,1.9,0.6,1.9,0.8c0,0.2-0.2,0.3-0.9,0.3c-0.6,0.6-1.4,1.3-2,1.7h3.5c0.4-0.5,0.6-0.6,1-1.1
				c0.7,0.5,0.9,0.7,1.5,1.2c0,0.1,0.1,0.1,0.1,0.2c0,0.1-0.1,0.1-0.2,0.1h-7v2.2h3.5c0.4-0.5,0.5-0.6,1-1.1
				c0.6,0.5,0.8,0.7,1.5,1.2c0.1,0.1,0.1,0.1,0.1,0.1c0,0.1-0.1,0.1-0.3,0.1h-5.9v2.2h5.2c0.3-0.4,0.6-0.7,0.9-1.1
				c0.7,0.5,0.9,0.6,1.5,1.2c0.1,0.1,0.1,0.1,0.1,0.2c0,0.1-0.1,0.1-0.2,0.1h-14.1l-1,0.1c-0.3,0-0.3,0-0.7,0.1l-0.1-0.7
				c0.6,0.1,1.2,0.2,1.9,0.2h5.3v-2.2h-3.4c-0.8,0-1.1,0-1.6,0.1l-0.1-0.7c0.5,0.1,1.1,0.2,1.7,0.2h3.4v-2.2h-4.5
				c-1.3,0-1.3,0-1.7,0.1l-0.1-0.7c0.5,0.1,1.2,0.2,1.7,0.2h2.9c-0.1-0.1-0.1-0.1-0.2-0.5c-0.3-0.7-0.8-1.4-1.4-2l0.2-0.2
				c0.7,0.3,1.2,0.6,1.7,1c0.4,0.3,0.6,0.6,0.6,0.9c0,0.3-0.1,0.6-0.4,0.9H202z"/>
			<path class="st0" d="M214.9,19.2c-0.1,1.4-0.3,2.6-0.7,3.7c-0.4,1-0.8,1.8-1.7,3l-0.2-0.1c0.6-1.2,0.9-2.2,1.1-3.6
				c0.3-1.8,0.4-3.3,0.4-7.5c0-2.4,0-2.8-0.1-4.8c0.6,0.3,0.8,0.5,1.4,0.8h1.9c0.3-0.3,0.4-0.4,0.7-0.7l1,0.7
				c0.1,0.1,0.2,0.2,0.2,0.3c0,0.2-0.1,0.3-0.6,0.5l0,8.5v1.6c0,0.8,0,0.8,0.1,2.7c0,0.1,0,0.1,0,0.1c0,0.8-0.5,1.1-1.8,1.4
				c-0.1-0.5-0.2-0.7-0.5-0.9c-0.3-0.2-0.6-0.3-1.5-0.3l0-0.3l0.7,0.1c0.9,0.1,1,0.1,1.6,0.1c0.2,0,0.3,0,0.3-0.3v-4.9H214.9z
				 M217.2,15.1H215c0,2.3,0,2.3-0.1,3.7h2.3V15.1z M217.2,11H215c0,0.8,0,0.8,0,3.6h2.2V11z M218.3,25.6c0.8-1,1.2-1.8,1.6-3.2
				c0.6-1.9,0.7-3.3,0.7-9.5c0-1.1,0-1.9-0.1-3.2c0.7,0.4,0.9,0.5,1.4,1h2.7c0.2-0.3,0.5-0.6,0.7-0.8c0.5,0.3,0.6,0.4,1.1,0.8
				c0.1,0.1,0.2,0.2,0.2,0.3c0,0.2-0.2,0.3-0.6,0.5V24c0,0.3,0,0.3,0.8,0.3c0.5,0,0.6-0.1,0.7-0.3c0.3-0.7,0.6-2,1-3.9h0.3l-0.2,3.3
				c0,0.4,0,0.4,0,0.4c0,0.2,0,0.2,0.3,0.3c0.1,0.1,0.2,0.2,0.2,0.5c0,0.3-0.1,0.5-0.5,0.6c-0.3,0.1-1.1,0.1-1.7,0.1
				c-2,0-2.1-0.1-2.2-1c0-0.5,0-0.7,0-1.1c0-0.1,0-0.7,0-2.3v-9.7h-2.9c0,6.8-0.1,7.6-0.4,9.2c-0.3,1.6-0.8,2.9-1.6,3.9
				c-0.4,0.5-0.7,0.8-1.4,1.4L218.3,25.6z"/>
			<path class="st0" d="M239.5,24.2c1.9-0.6,3.2-1.3,4.2-2.5c1.1-1.2,1.6-2.7,1.6-4.3c0-1.7-0.7-3.1-2-4c-0.8-0.5-2-0.8-3.1-0.8
				c-0.2,0-0.3,0-0.6,0c0.4,0.6,0.6,1,0.6,1.5c0,1.4-1,4-2.4,6.2c-1.1,1.8-2,2.7-2.7,2.7c-0.3,0-0.6-0.1-0.8-0.4
				c-0.2-0.2-0.2-0.3-0.5-1.2c-0.2-0.5-0.3-0.7-0.8-1.7c-0.3-0.6-0.4-1.1-0.4-1.6c0-1.1,0.6-2.5,1.6-3.6c1.5-1.5,3.8-2.5,6.2-2.5
				c1.8,0,3.5,0.6,4.6,1.7c1.2,1.1,1.7,2.5,1.7,4.2c0,2.2-1.3,4.2-3.6,5.5c-1,0.6-2,0.8-3.5,1.1L239.5,24.2z M233.6,18.6
				c0,0.9,0.3,1.7,0.7,2.4c0.3,0.3,0.5,0.5,0.7,0.5c0.4,0,1.3-1,2.1-2.4c1.3-2.1,2.3-4.4,2.3-5.6c0-0.3-0.1-0.5-0.3-0.9
				C236.1,13.2,233.6,15.8,233.6,18.6z"/>
			<path class="st0" d="M250.8,13.7c2.1,0.8,2.8,1.3,2.8,2c0,0.6-0.3,1.1-0.6,1.1c-0.2,0-0.3-0.1-0.4-0.4c-0.4-0.9-1-1.6-1.9-2.5
				L250.8,13.7z M251,20.3c0.5,0.1,0.9,0.2,1,0.2c0.3,0,0.4-0.1,1.2-1.8c0.6-1.2,0.8-1.8,1.7-3.8c0.6-1.5,0.6-1.5,0.9-2L256,13
				l-2.6,7.7c-0.2,0.6-0.2,0.6-0.2,0.8c0,0.3,0.1,0.6,0.4,1.5c0.1,0.4,0.2,0.7,0.2,1c0,0.4-0.1,0.8-0.3,1.1c-0.3,0.3-0.6,0.5-1,0.5
				c-0.3,0-0.4-0.1-0.4-0.4c0-0.3,0-0.3,0.1-1.1c0.1-0.6,0.1-1.2,0.1-1.7c0-0.6-0.1-0.9-0.3-1.2c-0.2-0.2-0.4-0.3-1.1-0.6L251,20.3z
				 M252,9.9c1.1,0.4,1.8,0.7,2.3,1.2c0.4,0.3,0.5,0.5,0.5,0.9c0,0.5-0.3,1.1-0.5,1.1c-0.2,0-0.3-0.1-0.5-0.6
				c-0.5-0.9-0.9-1.4-1.9-2.4L252,9.9z M264.2,19.6c-0.9,1.5-1.3,2-2.1,2.8c-0.7,0.7-1.9,1.6-2.9,2.2c-0.6,0.3-1,0.5-2.1,0.9
				l-0.1-0.2c1.9-1.1,2.8-1.8,4-3.2c0.8-0.9,1.2-1.4,1.9-2.6h-1.7c-0.8,1.1-1.2,1.4-1.8,2c-1.4,1.3-2.4,2-4.3,2.8l-0.1-0.2
				c2-1.3,3-2.1,4-3.3c0.3-0.4,0.5-0.6,0.9-1.3h-1.7c-1.2,1.4-2.2,2.1-4,3l-0.1-0.2c1.6-1.1,2.4-2,3.4-3.5c0.3-0.5,0.5-0.7,0.8-1.4
				h-2.2c-0.3,0-0.6,0-0.9,0.1L255,17c0.5,0.1,0.7,0.2,1,0.2h8.9c0.4-0.5,0.6-0.6,1-1.1c0.6,0.5,0.8,0.7,1.5,1.2
				c0.1,0.1,0.1,0.1,0.1,0.2c0,0.1-0.1,0.1-0.2,0.1h-7.7c-0.5,0.9-0.7,1.1-1.1,1.7h6.7c0.3-0.3,0.4-0.4,0.7-0.7
				c0.5,0.3,0.6,0.5,1,0.8c0.1,0.1,0.2,0.2,0.2,0.3c0,0.1-0.1,0.2-0.6,0.4c-0.3,2.3-0.6,3.8-1,4.6c-0.3,0.7-1,1.1-2.1,1.2
				c-0.1-0.6-0.2-0.7-0.5-0.9c-0.4-0.2-0.9-0.4-1.6-0.6l0.1-0.2c0.5,0.1,0.5,0.1,1.4,0.2c0.2,0,1,0.1,1.2,0.1c0.4,0,0.5-0.1,0.7-0.6
				c0.3-0.8,0.6-2.4,0.7-4.1H264.2z M258.3,16.2c0,0.2-0.1,0.3-0.8,0.3c-0.3,0-0.4-0.1-0.4-0.2c0,0,0,0,0-0.1c0-2.5,0-2.5,0-3.7
				c0-1.9,0-2.1,0-2.8c0.6,0.3,0.7,0.4,1.3,0.8h5c0.3-0.3,0.4-0.4,0.7-0.7c0.4,0.3,0.6,0.4,1,0.7c0.1,0.1,0.2,0.2,0.2,0.3
				c0,0.1-0.1,0.2-0.5,0.5c0,3,0,3.6,0.1,4.9c0,0.1,0,0.2-0.1,0.3c-0.1,0.1-0.5,0.1-0.8,0.1c-0.2,0-0.3-0.1-0.3-0.3v-0.5h-5.2V16.2z
				 M263.5,10.9h-5.2v2h5.2V10.9z M258.3,13.3v2h5.2v-2H258.3z"/>
		</g>
	</g>
	<g>
		<g>
			<path class="st1" d="M362.4,20.3c0.7,1.1,1.3,1.7,2.4,2.3c1.5,0.8,2.9,1.2,5.6,1.4v0.2c-0.7,0.2-1,0.6-1.2,1.3
				c-1.7-0.4-2.6-0.7-3.8-1.5c-1.5-0.9-2.4-2-3.3-3.7c-0.4,1.1-0.9,1.9-1.7,2.7c-1.5,1.4-3.5,2.2-6.5,2.6l-0.1-0.3
				c2-0.5,3.6-1.2,4.9-2.2c1-0.9,1.7-1.7,2.1-2.9h-4.6c-0.6,0-0.9,0-1.7,0.1l-0.2-0.7c0.6,0.1,1.5,0.2,1.9,0.2h4.7
				c0.1-0.6,0.2-0.9,0.2-1.4c0-0.1,0-0.3,0-0.6c1.7,0.3,2,0.3,2,0.5c0,0.2-0.2,0.3-0.6,0.3c-0.1,0.6-0.1,0.7-0.2,1.1h5.1
				c0.4-0.5,0.5-0.6,1-1.1c0.7,0.5,0.9,0.7,1.6,1.2c0.1,0.1,0.1,0.2,0.1,0.2c0,0.1-0.1,0.1-0.1,0.1h-0.2H362.4z M363,12.1
				c0.5-0.7,1.2-2,1.5-2.8c1.6,0.5,1.9,0.6,1.9,0.8c0,0.2-0.2,0.3-0.9,0.3c-0.6,0.6-1.4,1.3-2,1.7h3.5c0.4-0.5,0.6-0.6,1-1.1
				c0.7,0.5,0.9,0.7,1.5,1.2c0,0.1,0.1,0.1,0.1,0.2c0,0.1-0.1,0.1-0.2,0.1h-7v2.2h3.5c0.4-0.5,0.5-0.6,1-1.1
				c0.6,0.5,0.8,0.7,1.5,1.2c0.1,0.1,0.1,0.1,0.1,0.1c0,0.1-0.1,0.1-0.3,0.1h-5.9v2.2h5.2c0.3-0.4,0.6-0.7,0.9-1.1
				c0.7,0.5,0.9,0.6,1.5,1.2c0.1,0.1,0.1,0.1,0.1,0.2c0,0.1-0.1,0.1-0.2,0.1h-14.1l-1,0.1c-0.3,0-0.3,0-0.7,0.1l-0.1-0.7
				c0.6,0.1,1.2,0.2,1.9,0.2h5.3v-2.2h-3.4c-0.8,0-1.1,0-1.6,0.1l-0.1-0.7c0.5,0.1,1.1,0.2,1.7,0.2h3.4v-2.2h-4.5
				c-1.3,0-1.3,0-1.7,0.1l-0.1-0.7c0.5,0.1,1.2,0.2,1.7,0.2h2.9c-0.1-0.1-0.1-0.1-0.2-0.5c-0.3-0.7-0.8-1.4-1.4-2l0.2-0.2
				c0.7,0.3,1.2,0.6,1.7,1c0.4,0.3,0.6,0.6,0.6,0.9c0,0.3-0.1,0.6-0.4,0.9H363z"/>
			<path class="st1" d="M373.2,25.3c1.7-1.2,2.5-2,3.4-3.2c1.6-2.1,2.7-4.6,3.3-7.3c0.3-1.4,0.4-2.7,0.4-3.9c0-0.4,0-0.6-0.1-1
				c2,0.3,2.2,0.3,2.2,0.5c0,0.1-0.1,0.2-0.8,0.5c0,0.3,0,0.4,0,0.6c0,2.6,1,5.7,2.5,7.9c1,1.4,2.2,2.6,3.7,3.5
				c0.7,0.4,1.1,0.6,2.1,1l0,0.2c-0.1,0-0.1,0-0.1,0c-0.4,0-0.7,0.1-0.9,0.4c-0.2,0.2-0.3,0.4-0.5,0.9c-1.8-1.2-3.2-2.5-4.3-4.4
				c-0.8-1.3-1.6-3.2-2.1-5c-0.2-0.8-0.3-1.4-0.4-2.6c-0.5,3.3-1.4,5.6-2.9,7.8c-1.4,2-2.9,3.2-5.3,4.4L373.2,25.3z"/>
			<path class="st1" d="M400.5,24.2c1.9-0.6,3.2-1.3,4.2-2.5c1.1-1.2,1.6-2.7,1.6-4.3c0-1.7-0.7-3.1-2-4c-0.8-0.5-2-0.8-3.1-0.8
				c-0.2,0-0.3,0-0.6,0c0.4,0.6,0.6,1,0.6,1.5c0,1.4-1,4-2.4,6.2c-1.1,1.8-2,2.7-2.7,2.7c-0.3,0-0.6-0.1-0.8-0.4
				c-0.2-0.2-0.2-0.3-0.5-1.2c-0.2-0.5-0.3-0.7-0.8-1.7c-0.3-0.6-0.4-1.1-0.4-1.6c0-1.1,0.6-2.5,1.6-3.6c1.5-1.5,3.8-2.5,6.2-2.5
				c1.8,0,3.5,0.6,4.6,1.7c1.2,1.1,1.7,2.5,1.7,4.2c0,2.2-1.3,4.2-3.6,5.5c-1,0.6-2,0.8-3.5,1.1L400.5,24.2z M394.6,18.6
				c0,0.9,0.3,1.7,0.7,2.4c0.3,0.3,0.5,0.5,0.7,0.5c0.4,0,1.3-1,2.1-2.4c1.3-2.1,2.3-4.4,2.3-5.6c0-0.3-0.1-0.5-0.3-0.9
				C397.1,13.2,394.6,15.8,394.6,18.6z"/>
			<path class="st1" d="M411.8,13.7c2.1,0.8,2.8,1.3,2.8,2c0,0.6-0.3,1.1-0.6,1.1c-0.2,0-0.3-0.1-0.4-0.4c-0.4-0.9-1-1.6-1.9-2.5
				L411.8,13.7z M412,20.3c0.5,0.1,0.9,0.2,1,0.2c0.3,0,0.4-0.1,1.2-1.8c0.6-1.2,0.8-1.8,1.7-3.8c0.6-1.5,0.6-1.5,0.9-2L417,13
				l-2.6,7.7c-0.2,0.6-0.2,0.6-0.2,0.8c0,0.3,0.1,0.6,0.4,1.5c0.1,0.4,0.2,0.7,0.2,1c0,0.4-0.1,0.8-0.3,1.1c-0.3,0.3-0.6,0.5-1,0.5
				c-0.3,0-0.4-0.1-0.4-0.4c0-0.3,0-0.3,0.1-1.1c0.1-0.6,0.1-1.2,0.1-1.7c0-0.6-0.1-0.9-0.3-1.2c-0.2-0.2-0.4-0.3-1.1-0.6L412,20.3z
				 M413,9.9c1.1,0.4,1.8,0.7,2.3,1.2c0.4,0.3,0.5,0.5,0.5,0.9c0,0.5-0.3,1.1-0.5,1.1c-0.2,0-0.3-0.1-0.5-0.6
				c-0.5-0.9-0.9-1.4-1.9-2.4L413,9.9z M425.2,19.6c-0.9,1.5-1.3,2-2.1,2.8c-0.7,0.7-1.9,1.6-2.9,2.2c-0.6,0.3-1,0.5-2.1,0.9
				l-0.1-0.2c1.9-1.1,2.8-1.8,4-3.2c0.8-0.9,1.2-1.4,1.9-2.6h-1.7c-0.8,1.1-1.2,1.4-1.8,2c-1.4,1.3-2.4,2-4.3,2.8l-0.1-0.2
				c2-1.3,3-2.1,4-3.3c0.3-0.4,0.5-0.6,0.9-1.3h-1.7c-1.2,1.4-2.2,2.1-4,3l-0.1-0.2c1.6-1.1,2.4-2,3.4-3.5c0.3-0.5,0.5-0.7,0.8-1.4
				h-2.2c-0.3,0-0.6,0-0.9,0.1L416,17c0.5,0.1,0.7,0.2,1,0.2h8.9c0.4-0.5,0.6-0.6,1-1.1c0.6,0.5,0.8,0.7,1.5,1.2
				c0.1,0.1,0.1,0.1,0.1,0.2c0,0.1-0.1,0.1-0.2,0.1h-7.7c-0.5,0.9-0.7,1.1-1.1,1.7h6.7c0.3-0.3,0.4-0.4,0.7-0.7
				c0.5,0.3,0.6,0.5,1,0.8c0.1,0.1,0.2,0.2,0.2,0.3c0,0.1-0.1,0.2-0.6,0.4c-0.3,2.3-0.6,3.8-1,4.6c-0.3,0.7-1,1.1-2.1,1.2
				c-0.1-0.6-0.2-0.7-0.5-0.9c-0.4-0.2-0.9-0.4-1.6-0.6l0.1-0.2c0.5,0.1,0.5,0.1,1.4,0.2c0.2,0,1,0.1,1.2,0.1c0.4,0,0.5-0.1,0.7-0.6
				c0.3-0.8,0.6-2.4,0.7-4.1H425.2z M419.3,16.2c0,0.2-0.1,0.3-0.8,0.3c-0.3,0-0.4-0.1-0.4-0.2c0,0,0,0,0-0.1c0-2.5,0-2.5,0-3.7
				c0-1.9,0-2.1,0-2.8c0.6,0.3,0.7,0.4,1.3,0.8h5c0.3-0.3,0.4-0.4,0.7-0.7c0.4,0.3,0.6,0.4,1,0.7c0.1,0.1,0.2,0.2,0.2,0.3
				c0,0.1-0.1,0.2-0.5,0.5c0,3,0,3.6,0.1,4.9c0,0.1,0,0.2-0.1,0.3c-0.1,0.1-0.5,0.1-0.8,0.1c-0.2,0-0.3-0.1-0.3-0.3v-0.5h-5.2V16.2z
				 M424.5,10.9h-5.2v2h5.2V10.9z M419.3,13.3v2h5.2v-2H419.3z"/>
		</g>
	</g>
	<line class="st2" x1="8" y1="35.9" x2="153.2" y2="35.9"/>
	<line class="st3" x1="155" y1="35.9" x2="320.2" y2="35.9"/>
	<line class="st4" x1="332" y1="35.9" x2="453" y2="35.9"/>
	<g>
		<circle class="st0" cx="149.7" cy="36.4" r="25.3"/>
		<g>
			<g>
				<path class="st5" d="M140.7,29.5c0.9-0.9,1.9-1.3,3.2-1.3c2.4,0,4,1.6,4,4c0,2.5-1.8,4.2-4.6,4.2c-2.1,0-3.9-1.1-3.9-2.3
					c0-0.5,0.3-0.8,1-0.8c0.6,0,0.7,0.1,0.8,0.7c0.1,1.2,0.9,1.9,2.2,1.9c1.7,0,2.8-1.4,2.8-3.6c0-1-0.2-1.9-0.6-2.6s-1.2-1-2-1
					c-1.3,0-2.5,0.8-3,2.1l-0.6-0.1l0.6-7.4h6.8l-0.3,1.4h-6L140.7,29.5z"/>
				<path class="st5" d="M150.9,25.1c0.7-1.3,2-2,3.5-2c1.5,0,2.8,0.7,3.5,2c0.7,1.2,1,2.9,1,4.7c0,1.8-0.4,3.4-1,4.7
					c-0.7,1.3-2,2-3.5,2c-1.5,0-2.8-0.8-3.5-2c-0.7-1.2-1-2.9-1-4.7C149.9,28,150.2,26.4,150.9,25.1z M154.4,36
					c1.9,0,2.8-1.9,2.8-6.2c0-4.3-0.8-6.2-2.8-6.2c-1.9,0-2.8,1.9-2.8,6.2C151.6,34.1,152.5,36,154.4,36z"/>
				<path class="st5" d="M140.1,42.2c0.6-1.1,1.5-1.7,2.7-1.7c1.2,0,1.9,0.6,2.2,1.9c0.7-1.3,1.5-1.9,2.7-1.9c0.8,0,1.4,0.3,1.8,0.7
					c0.4,0.4,0.5,1,0.5,2.1v3.5c0,1.5,0.1,1.6,1.2,1.6v0.4h-3.6v-0.4c1.1,0,1.2-0.2,1.2-1.6v-3.2c0-1.1-0.1-1.5-0.3-1.9
					c-0.2-0.4-0.6-0.6-1.2-0.6c-0.6,0-1.1,0.3-1.5,0.9c-0.4,0.6-0.6,1.2-0.6,1.9v2.8c0,1.5,0.1,1.6,1.2,1.6v0.4h-3.6v-0.4
					c1.1,0,1.2-0.2,1.2-1.6v-3.4c0-1.6-0.5-2.3-1.4-2.3c-0.6,0-1.2,0.3-1.6,0.9c-0.4,0.5-0.6,1-0.6,1.7v3.1c0,1.5,0.1,1.6,1.2,1.6
					v0.4h-3.6v-0.4c1.1,0,1.2-0.1,1.2-1.6v-4.3c0-1.2-0.2-1.4-1.1-1.4v-0.4l2.4-0.2V42.2z"/>
				<path class="st5" d="M158.8,41.2c0.6,0.6,0.9,1.3,0.9,2.1c0,1.7-1.2,2.8-3.2,2.8c-0.5,0-0.8,0-1.4-0.2c-0.6,0.3-0.8,0.6-0.8,1
					c0,0.6,0.4,0.8,1.8,0.8c0.2,0,0.4,0,0.8,0c0.1,0,0.3,0,0.4,0c1.1,0,1.6,0,2,0.2c0.9,0.3,1.3,0.8,1.3,1.7c0,0.8-0.5,1.6-1.2,2
					c-0.7,0.4-1.6,0.6-2.8,0.6c-1.1,0-1.9-0.2-2.5-0.5c-0.6-0.3-0.9-0.8-0.9-1.6c0-0.7,0.1-0.8,1.1-1.5c-0.7-0.3-1-0.8-1-1.4
					c0-0.4,0.1-0.7,0.8-1.1l0.6-0.4c-0.4-0.3-0.6-0.5-0.8-0.7c-0.3-0.4-0.5-1-0.5-1.6c0-1.1,0.5-2,1.2-2.5c0.5-0.3,1.2-0.5,2-0.5
					c0.3,0,0.6,0,1.1,0.1c0.5,0.1,0.6,0.1,1,0.1c0.4,0,0.9,0,1.7,0v0.6H158.8z M154.3,50c0,1.2,0.8,1.8,2.5,1.8
					c1.7,0,2.8-0.7,2.8-1.8c0-0.7-0.4-1-1.2-1.2c-0.3,0-0.8-0.1-1.8-0.1c-0.6,0-1.5,0-1.5,0C154.5,49,154.3,49.4,154.3,50z
					 M155.1,45.1c0.3,0.5,0.8,0.8,1.5,0.8c1.2,0,1.8-0.8,1.8-2.4c0-1.7-0.6-2.5-1.8-2.5c-1.2,0-1.8,0.8-1.8,2.4
					C154.7,44,154.9,44.6,155.1,45.1z"/>
			</g>
		</g>
	</g>
	<g>
		<circle class="st1" cx="311.3" cy="36.4" r="25.3"/>
		<g>
			<g>
				<path class="st5" d="M297.6,35.7c0.8-0.1,1-0.1,1.2-0.2c0.4-0.2,0.5-0.6,0.5-1.9V26c0-1.6,0-1.6-0.2-1.7s-0.4-0.2-0.8-0.2h-0.7
					v-0.5c1.4-0.1,2.5-0.3,3.4-0.5c-0.1,1.4-0.1,3-0.1,5.1v5.3c0,1.2,0.1,1.6,0.3,1.8c0.2,0.2,0.3,0.2,1.3,0.3v0.5h-4.9V35.7z"/>
				<path class="st5" d="M306.7,25.1c0.7-1.3,2-2,3.5-2c1.5,0,2.8,0.7,3.5,2c0.7,1.2,1,2.9,1,4.7c0,1.8-0.4,3.4-1,4.7
					c-0.7,1.3-2,2-3.5,2c-1.5,0-2.8-0.8-3.5-2c-0.7-1.2-1-2.9-1-4.7C305.6,28,306,26.4,306.7,25.1z M310.2,36c1.9,0,2.8-1.9,2.8-6.2
					c0-4.3-0.8-6.2-2.8-6.2c-1.9,0-2.8,1.9-2.8,6.2C307.4,34.1,308.2,36,310.2,36z"/>
				<path class="st5" d="M317.8,25.1c0.7-1.3,2-2,3.5-2c1.5,0,2.8,0.7,3.5,2c0.7,1.2,1,2.9,1,4.7c0,1.8-0.4,3.4-1,4.7
					c-0.7,1.3-2,2-3.5,2c-1.5,0-2.8-0.8-3.5-2c-0.7-1.2-1-2.9-1-4.7C316.8,28,317.1,26.4,317.8,25.1z M321.3,36
					c1.9,0,2.8-1.9,2.8-6.2c0-4.3-0.8-6.2-2.8-6.2c-1.9,0-2.8,1.9-2.8,6.2C318.5,34.1,319.3,36,321.3,36z"/>
				<path class="st5" d="M301.8,42.2c0.6-1.1,1.5-1.7,2.7-1.7c1.2,0,1.9,0.6,2.2,1.9c0.7-1.3,1.5-1.9,2.7-1.9c0.8,0,1.4,0.3,1.8,0.7
					c0.4,0.4,0.5,1,0.5,2.1v3.5c0,1.5,0.1,1.6,1.2,1.6v0.4h-3.6v-0.4c1.1,0,1.2-0.2,1.2-1.6v-3.2c0-1.1-0.1-1.5-0.3-1.9
					c-0.2-0.4-0.6-0.6-1.2-0.6c-0.6,0-1.1,0.3-1.5,0.9c-0.4,0.6-0.6,1.2-0.6,1.9v2.8c0,1.5,0.1,1.6,1.2,1.6v0.4h-3.6v-0.4
					c1.1,0,1.2-0.2,1.2-1.6v-3.4c0-1.6-0.5-2.3-1.4-2.3c-0.6,0-1.2,0.3-1.6,0.9c-0.4,0.5-0.6,1-0.6,1.7v3.1c0,1.5,0.1,1.6,1.2,1.6
					v0.4h-3.6v-0.4c1.1,0,1.2-0.1,1.2-1.6v-4.3c0-1.2-0.2-1.4-1.1-1.4v-0.4l2.4-0.2V42.2z"/>
				<path class="st5" d="M320.5,41.2c0.6,0.6,0.9,1.3,0.9,2.1c0,1.7-1.2,2.8-3.2,2.8c-0.5,0-0.8,0-1.4-0.2c-0.6,0.3-0.8,0.6-0.8,1
					c0,0.6,0.4,0.8,1.8,0.8c0.2,0,0.4,0,0.8,0c0.1,0,0.3,0,0.4,0c1.1,0,1.6,0,2,0.2c0.9,0.3,1.3,0.8,1.3,1.7c0,0.8-0.5,1.6-1.2,2
					c-0.7,0.4-1.6,0.6-2.8,0.6c-1.1,0-1.9-0.2-2.5-0.5c-0.6-0.3-0.9-0.8-0.9-1.6c0-0.7,0.1-0.8,1.1-1.5c-0.7-0.3-1-0.8-1-1.4
					c0-0.4,0.1-0.7,0.8-1.1l0.6-0.4c-0.4-0.3-0.6-0.5-0.8-0.7c-0.3-0.4-0.5-1-0.5-1.6c0-1.1,0.5-2,1.2-2.5c0.5-0.3,1.2-0.5,2-0.5
					c0.3,0,0.6,0,1.1,0.1c0.5,0.1,0.6,0.1,1,0.1c0.4,0,0.9,0,1.7,0v0.6H320.5z M315.9,50c0,1.2,0.8,1.8,2.5,1.8
					c1.7,0,2.8-0.7,2.8-1.8c0-0.7-0.4-1-1.2-1.2c-0.3,0-0.8-0.1-1.8-0.1c-0.6,0-1.5,0-1.5,0C316.1,49,315.9,49.4,315.9,50z
					 M316.8,45.1c0.3,0.5,0.8,0.8,1.5,0.8c1.2,0,1.8-0.8,1.8-2.4c0-1.7-0.6-2.5-1.8-2.5c-1.2,0-1.8,0.8-1.8,2.4
					C316.4,44,316.5,44.6,316.8,45.1z"/>
			</g>
		</g>
	</g>
	<line class="st6" x1="8" y1="11.9" x2="8" y2="59.9"/>
	<line class="st6" x1="453" y1="11.9" x2="453" y2="59.9"/>
</g>
</svg>
