<?xml version="1.0" encoding="utf-8"?>
<!-- Generator: Adobe Illustrator 25.2.3, SVG Export Plug-In . SVG Version: 6.00 Build 0)  -->
<svg version="1.1" id="レイヤー_1" xmlns="http://www.w3.org/2000/svg" xmlns:xlink="http://www.w3.org/1999/xlink" x="0px"
	 y="0px" viewBox="0 0 89.8 89.8" style="enable-background:new 0 0 89.8 89.8;" xml:space="preserve">
<style type="text/css">
	.st0{fill:none;}
	.st1{fill:#AA942C;}
	.st2{opacity:0.6;clip-path:url(#SVGID_1_);fill:url(#SVGID_2_);}
	.st3{fill:#FFFFFF;}
</style>
<pattern  x="-639.4" y="-337.5" width="1024.1" height="726.9" patternUnits="userSpaceOnUse" id="新規パターンスウォッチ_9" viewBox="1 -727.9 1024.1 726.9" style="overflow:visible;">
	<g>
		<rect x="1" y="-727.9" class="st0" width="1024.1" height="726.9"/>
		
			<image style="overflow:visible;" width="2950" height="2094" id="SB005_3_" xlink:href="3FDD1C67567DC2E3.png"  transform="matrix(0.3471 0 0 0.3471 1 -727.9108)">
		</image>
	</g>
</pattern>
<g>
	<g>
		<circle class="st1" cx="44.9" cy="44.9" r="44.9"/>
	</g>
	<g>
		<defs>
			<circle id="SVGID_4_" cx="44.9" cy="44.9" r="44.9"/>
		</defs>
		<clipPath id="SVGID_1_">
			<use xlink:href="#SVGID_4_"  style="overflow:visible;"/>
		</clipPath>
		
			<pattern  id="SVGID_2_" xlink:href="#譁ｰ隕上ヱ繧ｿ繝ｼ繝ｳ繧ｹ繧ｦ繧ｩ繝メ_9" patternTransform="matrix(5.269419e-02 0 0 9.740121e-02 -6587.1494 -7915.0122)">
		</pattern>
		<rect x="-8.7" y="-6.7" class="st2" width="105.4" height="105.5"/>
	</g>
	<g>
		<path class="st3" d="M53.5,21.4l5.8-0.9c0.6-0.8,0.7-1,1.3-1.8c1,0.6,1.3,0.8,2.2,1.4c0.1,0.1,0.2,0.2,0.2,0.2
			c0,0.1-0.1,0.2-0.2,0.2L54,21.9c1.1,0.7,1.7,1.1,2.6,1.4c1.2,0.5,2.9,0.8,4.7,0.9c0.8,0.1,1.5,0.1,2.9,0l0,0.3
			c-0.7,0.3-0.9,0.6-1.2,1.7c-2.3-0.3-3.7-0.8-5.8-1.8c-1.3-0.7-2.2-1.3-3.5-2.4l0.2,1.2c0.3,1.5,0.3,1.5,0.4,2.1c0,0,0,0,0,0
			c0,0.3-0.3,0.4-1.1,0.5c-0.3,0-0.4,0-0.4-0.2c0,0,0,0,0,0c-0.1-0.7-0.2-1.7-0.3-2.2l-0.2-1c-1.3,1.9-2.3,3-4.2,4.6
			c-1.3,1.1-2.3,1.7-4,2.6l-0.1-0.2c3.3-2.4,5.1-4.4,6.8-7.1l-5.8,0.9c-0.5,0.1-0.9,0.2-1.2,0.3l-0.3-0.8c0.5,0.1,0.9,0.1,1.4,0
			l7.3-1.1l-0.3-2.1c-2,0.5-3.9,1-5.4,1.2c-0.4,0.1-1,0.1-1.8,0.2l-0.1-0.3c2.1-0.5,4.5-1.1,7-2.1c1.7-0.6,3.5-1.4,4.7-2
			c0.5-0.3,0.8-0.5,1.5-1c1.7,0.8,2.3,1.1,2.4,1.3c0,0.1-0.1,0.2-0.3,0.3c-0.1,0-0.5,0-1-0.1c-2.4,1-3.5,1.4-5.6,2L53.5,21.4z
			 M56.5,26.3c0.4-0.4,0.6-0.6,1-1c0.7,0.3,0.9,0.5,1.5,0.8c0.2,0.1,0.3,0.2,0.3,0.3c0,0.2-0.2,0.3-1,0.4c-2.2,1.5-2.2,1.5-3.2,2.1
			c0.4,0,0.5,0,0.5,0.2c0,0.2-0.2,0.3-0.8,0.5l0.1,0.8l6-0.9c0.5-0.8,0.6-1,1.1-1.8c1,0.6,1.3,0.8,2.3,1.4c0.1,0.1,0.2,0.1,0.2,0.2
			s-0.1,0.1-0.2,0.2L55,30.9l0.3,1.7c0.2,1.2,0.3,2,0.4,2.5c0,0,0,0.1,0,0.1c0.1,0.4,0,0.7-0.3,0.9c-0.4,0.3-0.9,0.6-1.8,0.9
			c-0.2-0.5-0.4-0.7-0.8-0.8C52.5,36.1,52,36,51.3,36l-0.9,0c-0.3,0-0.5,0-0.8,0l-0.1-0.4c2-0.2,2.7-0.3,4.3-0.5
			c0.3,0,0.3-0.1,0.3-0.4l-0.5-3.6l-7.4,1.1c-0.4,0.1-0.8,0.2-1.2,0.3l-0.3-0.8c0.6,0.1,0.9,0.1,1.4,0l7.4-1.1
			c-0.1-0.7-0.2-0.9-0.4-1.7c0.6,0,0.9,0,1.3,0c1-0.9,1.3-1.2,2.1-2.1l-7,1.1c-0.4,0.1-0.6,0.1-0.9,0.3l-0.3-0.8
			c0.4,0.1,0.8,0.1,1.1,0L56.5,26.3z"/>
		<path class="st3" d="M53.2,43c0.5-0.7,0.6-0.8,1-1.5c0.8,0.5,1.1,0.7,1.9,1.3c0.1,0,0.1,0.1,0.1,0.1c0,0-0.1,0.1-0.1,0.1l-4.8,0.7
			c0.7,0.3,1.2,0.6,1.7,0.9c0.3,0.2,0.4,0.4,0.4,0.7c0.1,0.6-0.2,1.4-0.7,1.4c-0.2,0-0.3-0.1-0.5-0.6c-0.4-1.1-0.7-1.6-1.3-2.4
			l-1.2,0.2c-0.7,1.5-1.5,2.6-2.7,4l-0.3-0.2c1-1.7,1.4-2.7,1.9-4.3c0.4-1.2,0.5-1.9,0.6-2.8c2.6,0.4,2.6,0.4,2.6,0.6
			c0,0.2-0.3,0.4-1.2,0.6c-0.3,0.8-0.4,1-0.6,1.5L53.2,43z M48.7,49.2c-0.1-0.8-0.2-1.3-0.4-2.3c0.9,0.3,1.1,0.4,1.9,0.7l4.2-0.6
			c0.3-0.5,0.4-0.6,0.7-1c0.6,0.3,0.8,0.4,1.4,0.7c0.2,0.1,0.2,0.1,0.2,0.2c0,0.1-0.1,0.2-0.5,0.7c0.1,0.7,0.2,1.1,0.2,1.5l0.4,2.3
			c0.1,0.6,0.2,1.2,0.4,2.5c0,0.3-0.2,0.4-1,0.5c-0.4,0.1-0.4,0-0.5-0.2l-0.1-0.7l-4.6,0.7l0.6,4c1.7-0.5,1.7-0.5,4.2-1.5
			c-0.6-0.7-1-1-2-1.7l0.2-0.3c1.5,0.6,2.6,1.1,3.3,1.6c0.7,0.5,0.9,0.7,1,1.3c0.1,0.7-0.1,1.4-0.5,1.5c-0.2,0-0.3-0.1-0.7-0.6
			c-0.5-0.8-0.6-0.9-1.1-1.5c-1.4,1-4.7,2.8-5.9,3.2c0,0.6,0,0.8-0.2,0.8c-0.2,0-0.3-0.2-1.3-2c0.7-0.1,0.8-0.2,1.5-0.4L48.7,49.2z
			 M55,49.9l-0.4-2.4L50,48.2l0.4,2.4L55,49.9z M50.5,51.1l0.4,2.6l4.6-0.7l-0.4-2.6L50.5,51.1z M62.8,41.5c0.5-0.8,0.6-1,1.1-1.7
			c1,0.6,1.3,0.8,2.3,1.5c0.1,0.1,0.1,0.1,0.1,0.1c0,0-0.1,0.1-0.1,0.1l-6.4,1c1.7,0.7,2.1,1,2.2,1.6c0.1,0.6-0.2,1.3-0.6,1.4
			c-0.2,0-0.4-0.1-0.6-0.6c-0.4-0.9-0.7-1.5-1.5-2.4l-1.6,0.2c-0.6,1.1-1.1,1.9-1.9,2.8l-0.3-0.2c1-1.9,1.7-4,1.8-5.9
			c2.4,0.3,2.4,0.3,2.5,0.5c0,0.2-0.3,0.4-1.1,0.5c-0.3,0.8-0.4,1.1-0.7,1.6L62.8,41.5z M61.7,59.1c0,0.3-0.1,0.4-1,0.5
			c-0.4,0.1-0.5,0-0.5-0.2c-0.8-5.9-1-7.2-1.4-9.7c-0.4-2.6-0.5-3.1-0.7-4.3c0.8,0.3,1,0.4,1.8,0.8l3.7-0.6c0.3-0.5,0.4-0.6,0.7-1.1
			c0.4,0.2,0.9,0.5,1.5,0.8c0.2,0.1,0.2,0.2,0.2,0.3c0,0.2-0.1,0.4-0.7,0.8l0.8,5.1c0.1,0.7,0.1,0.7,0.3,1.9
			c0.1,0.4,0.1,0.9,0.2,1.6c0.1,0.6,0,0.9-0.5,1.3c-0.4,0.3-0.8,0.6-1.6,0.8c-0.2-0.6-0.4-0.8-0.8-0.9C63.6,56,63.4,56,62.3,56
			l0-0.3c1.4-0.2,1.4-0.2,1.6-0.2c0.2,0,0.6-0.1,1-0.2c0.3-0.1,0.3-0.1,0.3-0.4l-1.3-8.8l-4,0.6l1.4,9.1L61.7,59.1z"/>
		<path class="st3" d="M20.5,32.1c-0.1-0.8-0.2-1-0.3-1.8c0.8,0.3,1.1,0.4,1.8,0.8l2.9-0.4c0.3-0.4,0.3-0.6,0.6-1l1.6,0.9
			c0.2,0.1,0.3,0.2,0.3,0.3c0,0.2-0.2,0.3-0.7,0.5c-0.3,0.6-0.3,0.6-1,2.7c-0.2,0.6-0.4,1-1.2,2.7c1.4,0.8,1.9,1.2,2.5,2.1
			c0.6,0.8,0.9,1.7,1,2.5c0.2,1.1,0,2-0.6,2.6c-0.5,0.6-0.9,0.8-1.7,1c-0.4-0.9-0.5-1-1.9-1.1l0.2,1.6c0,0.1,0.1,0.6,0.2,1.3
			c0,0.1,0.1,0.7,0.3,1.5c0,0.3,0.1,0.7,0.2,1.2c0,0.2-0.1,0.3-0.3,0.3c-0.2,0.1-0.5,0.2-0.8,0.2c-0.3,0.1-0.5,0-0.5-0.2
			c0,0,0,0,0-0.1c-0.5-4.1-0.7-5.4-1.2-8.8l-1.2-7.8L20.5,32.1z M23.7,43.6c0.8,0,1.9-0.1,2.3-0.1c0.2,0,0.3-0.1,0.4-0.4
			c0.2-0.5,0.2-1.2,0.1-1.9c-0.2-1-0.5-2-1.1-2.8c-0.5-0.7-0.8-1-1.6-1.4c0.2-0.9,0.2-0.9,0.4-2c0.2-0.9,0.3-1.8,0.5-2.7
			c0.1-0.5,0.1-0.5,0.2-1.1l-3.1,0.5L23.7,43.6z M33.5,37.9c0.6,1.7,1.2,2.7,2.2,3.8c0.6-0.7,0.9-1.1,1.5-1.8
			c0.9-1.2,1.2-1.8,1.6-2.7c1.5,0.7,2,0.9,2.1,1.1c0,0.1-0.1,0.3-0.2,0.3c-0.1,0-0.3,0-0.7,0c-1.4,1.4-1.7,1.6-3.9,3.3
			c0.7,0.7,1.4,1.2,2.3,1.7c0.8,0.5,2,1,2.7,1.2c0.4,0.1,0.7,0.2,1.4,0.2l0,0.3c-0.5,0.1-0.7,0.2-1,0.5c-0.3,0.3-0.4,0.5-0.6,1.1
			c-3-1.5-4.6-2.8-6-4.9c-0.8-1.2-1.4-2.5-1.9-4l-2.5,0.4l1.1,7.6c1-0.3,1.4-0.5,4.1-1.7l0.2,0.2c-2.4,1.7-4.3,2.8-6.9,4
			c0.1,0.8,0.1,1-0.1,1.1c-0.2,0-0.3-0.2-1.3-2.2c0.6-0.1,0.8-0.2,2.7-0.8l-2.1-14.1c-0.2-1.3-0.3-1.7-0.6-2.8
			c0.9,0.3,1.2,0.5,2,0.9l6-0.9c0.3-0.5,0.4-0.6,0.7-1.1c0.6,0.3,0.8,0.4,1.5,0.8c0.2,0.1,0.2,0.2,0.2,0.3c0,0.1,0,0.2-0.1,0.2
			c0,0-0.2,0.2-0.6,0.5l0.6,4.2c0,0.2,0.1,0.5,0.5,2.9c0,0.3-0.1,0.4-0.6,0.5c-0.2,0-0.4,0.1-0.4,0.1c0,0,0,0,0,0
			c-0.2,0-0.3,0-0.3-0.2l-0.1-0.4L33.5,37.9z M35.8,30l-6.4,1l0.5,3.1l6.4-1L35.8,30z M29.9,34.5l0.5,3.3l6.4-1l-0.5-3.3L29.9,34.5z
			"/>
		<path class="st3" d="M32.1,55.1L32,53.8c-0.2-1-0.2-1.2-0.4-1.8c2.1-0.1,2.6-0.1,2.6,0.2c0,0.2-0.2,0.3-0.8,0.6l0.3,2.1l6.4-1
			l0.7-1.3c1,0.5,1.4,0.7,2.3,1.2c0.1,0.1,0.1,0.1,0.1,0.2c0,0,0,0.1-0.1,0.1c0,0.1-0.2,0.1-0.5,0.3c-0.4,0.2-0.4,0.2-0.8,0.4
			c-0.5,0.8-0.7,1.1-1.2,1.9l-0.3,0c0-0.3,0-0.6,0-0.8c0-0.7,0-0.9,0-1.5l-14.6,2.2c0,1.2-0.1,1.9-0.4,2.8c-0.3,0.6-0.6,1.1-0.9,1.1
			c-0.4,0.1-0.9-0.6-1-1.3c0-0.2,0-0.3,0.1-0.5c0,0,0,0,0.4-0.4c0.4-0.4,0.9-1.3,1.1-2.1c0.1-0.4,0.1-0.7,0.2-1.6l0.3-0.1
			c0.1,0.6,0.1,0.8,0.1,0.9c0,0.1,0,0.3,0.1,0.6L32.1,55.1z M27.5,60.6c-0.5,0.1-0.9,0.2-1.8,0.4l-0.3-0.8c1.1,0,1.7-0.1,2-0.1
			l11.6-1.8c0.5-0.7,0.6-0.9,1-1.7c0.9,0.6,1.2,0.7,2.2,1.4c0.1,0,0.1,0.1,0.1,0.1c0,0.1-0.1,0.2-0.2,0.2l-7.4,1.1l0.7,4.5l3.7-0.6
			c0.4-0.7,0.5-0.9,1-1.6c1,0.6,1.3,0.8,2.3,1.4c0,0,0.1,0.1,0.1,0.1c0,0-0.1,0.2-0.1,0.2l-6.9,1l0.8,5.2c0.6,0,1.4-0.1,2.3-0.2
			c2.3-0.4,5.4-1,6.8-1.4l0,0.2c-0.9,0.7-1.1,0.9-1.1,1.8c-1.4,0.3-2.2,0.4-2.8,0.5c-4.9,0.7-6.9,0.7-8.7-0.3
			c-1.3-0.7-1.9-1.3-3.1-3c-0.3,1-0.7,1.8-1.1,2.7c-0.7,1.4-1.3,2.1-2.6,3.4l-0.3-0.2c1-1.5,1.4-2.2,1.9-3.8c0.9-2.5,1.2-5,1-6.9
			c0.5,0,1,0.1,1.3,0.1c1.2,0.1,1.4,0.1,1.5,0.3c0,0.2-0.3,0.5-1,0.7c-0.1,1.4-0.2,2.1-0.5,3.1c0.8,1.1,1.2,1.5,2,2
			c1,0.6,1.9,0.9,2.9,1l-1.5-9.9L27.5,60.6z"/>
	</g>
</g>
</svg>
