<?xml version="1.0" encoding="utf-8"?>
<!-- Generator: Adobe Illustrator 25.2.3, SVG Export Plug-In . SVG Version: 6.00 Build 0)  -->
<svg version="1.1" id="レイヤー_1" xmlns="http://www.w3.org/2000/svg" xmlns:xlink="http://www.w3.org/1999/xlink" x="0px"
	 y="0px" viewBox="0 0 275.4 37.3" style="enable-background:new 0 0 275.4 37.3;" xml:space="preserve">
<style type="text/css">
	.st0{fill:#8D8017;}
	.st1{fill:#FFFFFF;}
</style>
<polyline class="st0" points="264.6,37.3 275.4,18.7 264.6,0 10.8,0 0,18.7 10.8,37.3 32.3,37.3 "/>
<g>
	<g>
		<path class="st1" d="M149.7,26.9c-1.9,0.4-4.5,0.5-6.8,0.5c-1.8,0-3.4-0.1-4.2-0.3c-2.7-0.6-3.8-2.3-3.8-4.2
			c0-1.7,0.9-3.4,2.2-4.7l1.3,0.7c-1.2,1.3-1.9,2.7-1.9,3.9c0,1.3,0.9,2.4,2.8,2.9c0.7,0.2,2,0.2,3.5,0.2c2.1,0,4.7-0.2,6.8-0.6
			L149.7,26.9z M139.8,15.8c1.1-0.9,2.7-2,3.9-2.6v0c-1.7,0.2-5.5,0.3-7.9,0.3c0-0.4,0-1.1,0-1.5h1.2c2.8,0,8.6,0,11.4-0.7l0.2,1.6
			c-0.7,0.1-1.3,0.2-2.3,0.7c-1.2,0.5-3.4,1.7-5.1,3.1L139.8,15.8z M149.6,18.9c-0.6-1-2-2.3-2.9-3l0.7-0.7c1.1,0.8,2.3,2,3,3
			L149.6,18.9z M152,16.8c-0.6-0.9-1.9-2.2-2.9-3l0.7-0.7c1.1,0.8,2.4,2.1,3,3L152,16.8z"/>
		<path class="st1" d="M176.6,17l1.1,0.3c-0.1,0.2-2.8,3.9-5.3,6l-1.2-0.8c1.2-1,2.7-2.6,3.8-4h-6.4c0,0.1-0.2,0.2-0.4,0.2v8.6
			c0,0.9-0.2,1.4-1,1.6c-0.7,0.2-2,0.2-4,0.2c-0.1-0.4-0.4-1-0.6-1.4c0.9,0,1.8,0,2.5,0c1.4,0,1.5,0,1.5-0.5v-8.8h-9.1V17h11.8
			c-1.8-1.2-4.6-2.5-6.9-3.3l1-1.1c1.4,0.5,2.9,1.1,4.3,1.8c1.5-0.8,3.1-2,4.3-3.1h-12.5V10h13.6c0.4,0,0.5,0,0.8-0.1l1.3,0.9
			c-0.1,0.1-0.2,0.2-0.4,0.2c-1.4,1.4-3.6,3-5.6,4.2c0.9,0.5,1.6,0.9,2.2,1.3l-0.4,0.5h5.1L176.6,17z"/>
		<path class="st1" d="M185.4,21.8c0,0.1-0.2,0.2-0.4,0.2c-0.4,1.9-1,4-1.7,5.3c-0.3-0.2-0.8-0.4-1.1-0.6c0.7-1.2,1.3-3.3,1.6-5.3
			L185.4,21.8z M187.8,9.4c-0.1,0.2-0.3,0.2-0.5,0.2c-0.7,1.3-1.8,3.1-2.7,4.3c0.6,0.6,1.1,1.1,1.5,1.7c1.1-1.5,2.1-3.1,2.8-4.3
			l1.6,0.7c-0.1,0.1-0.2,0.2-0.5,0.2c-1.2,1.9-3.2,4.5-4.9,6.4c1.4,0,2.9,0,4.5-0.1c-0.4-0.7-0.9-1.5-1.5-2.1
			c0.6-0.3,0.9-0.4,1.1-0.6c1.1,1.4,2.3,3.2,2.8,4.4l-1.1,0.7c-0.2-0.4-0.4-0.8-0.6-1.3l-2.6,0.1v9.4h-1.4v-9.4
			c-1.4,0-2.6,0.1-3.6,0.1c0,0.2-0.2,0.3-0.3,0.3l-0.4-1.7h1.7c0.5-0.6,1.1-1.3,1.6-2c-0.7-0.9-2-2.2-3-3.1l0.7-0.9
			c0.2,0.2,0.4,0.4,0.7,0.5c0.9-1.3,1.9-3.1,2.4-4.4L187.8,9.4z M190.4,26.2c-0.2-1.2-0.9-3-1.6-4.4l1.2-0.4
			c0.7,1.4,1.4,3.2,1.7,4.4L190.4,26.2z M201.5,12.8l0.8,0.1c0,0.1,0,0.3,0,0.5c-0.4,10.3-0.7,13.8-1.6,14.9
			c-0.6,0.7-1.2,0.9-2.7,0.9c-0.7,0-1.7,0-2.5-0.1c0-0.4-0.2-1-0.5-1.4c1.5,0.1,2.9,0.2,3.5,0.2c0.4,0,0.7-0.1,1-0.4
			c0.7-0.8,1.1-4.2,1.4-13.1h-6.9c-0.6,1.4-1.3,2.6-2,3.5c-0.3-0.2-0.8-0.6-1.2-0.8c1.5-1.9,2.8-5.2,3.5-8.4l1.8,0.5
			c0,0.2-0.2,0.3-0.5,0.2c-0.3,1.2-0.7,2.3-1.1,3.5h6.7L201.5,12.8z M194.3,17.7c1.3,1.6,2.6,3.7,3.2,5.2l-1.3,0.7
			c-0.5-1.4-1.8-3.6-3.1-5.3L194.3,17.7z"/>
		<path class="st1" d="M225,17.4c0,0.2-0.2,0.3-0.4,0.3v2.2h3.1v1.4h-3.1v6.1c0,0.9-0.2,1.3-0.8,1.5c-0.6,0.2-1.7,0.2-3.5,0.2
			c-0.1-0.4-0.3-1-0.5-1.4c0.8,0,1.5,0,2.1,0c1.1,0,1.3,0,1.3-0.4v-6.1h-7.8v-0.9l-2.6,0.7v8h-1.4v-7.6l-2.9,0.8
			c0,0.2-0.1,0.3-0.3,0.4l-0.6-1.7c1-0.2,2.4-0.5,3.9-0.9v-5.4h-2c-0.2,1.3-0.6,2.6-0.9,3.5c-0.2-0.2-0.7-0.6-1-0.7
			c0.7-1.8,1.1-4.8,1.3-7.6l1.7,0.4c-0.1,0.1-0.2,0.2-0.5,0.2c-0.1,0.9-0.2,1.9-0.4,2.8h1.7V8.7l1.9,0.1c0,0.2-0.2,0.3-0.4,0.3v4.2
			h2.8v1.4h-2.8v5c1-0.2,2-0.5,2.9-0.7l0.1,0.9h7.4v-2.6L225,17.4z M222,15.6h5.9V17h-13v-1.4h5.6v-2.9h-4.4v-1.4h4.4V8.7l1.9,0.1
			c0,0.2-0.1,0.3-0.4,0.3v2.2h4.7v1.4H222V15.6z M218.9,26.5c-0.5-1-1.6-2.6-2.7-3.7l1.2-0.6c1.1,1.1,2.2,2.6,2.7,3.6L218.9,26.5z"
			/>
		<path class="st1" d="M250.9,22.4h2.1v1.4h-20.5v-1.4h2.3v-11h4.8V8.6l1.8,0.1c0,0.1-0.2,0.2-0.4,0.3v2.3h3.5V8.6l1.8,0.1
			c0,0.2-0.1,0.2-0.4,0.3v2.4h5V22.4z M240.8,25.3c-0.1,0.1-0.2,0.1-0.4,0.2c-1.4,1.3-4.2,2.8-6.5,3.8c-0.3-0.3-0.8-0.8-1.1-1.1
			c2.3-0.9,5.1-2.4,6.4-3.7L240.8,25.3z M239.6,12.8h-3.4v4.1h3.4V12.8z M236.2,18.3v4.1h3.4v-4.1H236.2z M244.5,12.8H241v4.1h3.5
			V12.8z M244.5,22.4v-4.1H241v4.1H244.5z M251.4,29.1c-1.5-1.1-4-2.6-6.4-3.8l1.1-1c2.4,1.2,5,2.6,6.6,3.7L251.4,29.1z M249.4,12.8
			h-3.5v4.1h3.5V12.8z M245.9,18.3v4.1h3.5v-4.1H245.9z"/>
	</g>
</g>
<g>
	<g>
		<path class="st1" d="M29.8,12.1c-0.1,0.1-0.2,0.2-0.4,0.2c-1.2,2.7-3.1,5.5-5,7.2c-0.3-0.3-0.7-0.6-1.1-0.8
			c1.9-1.6,3.8-4.3,4.9-7.1L29.8,12.1z M31.7,18.1c-0.1,0.1-0.2,0.2-0.5,0.2c-0.8,2.1-2.2,5-3.4,7.2c2.5-0.1,5.5-0.2,8.4-0.3
			c-0.9-1.2-1.9-2.5-2.8-3.6l1.1-0.5c1.7,1.9,3.6,4.4,4.5,6.1L38,27.9c-0.2-0.5-0.6-1-0.9-1.5c-4.5,0.3-9.3,0.5-12.3,0.6
			c0,0.1-0.2,0.2-0.3,0.3l-0.5-1.5l2.6-0.1c1.3-2.2,2.7-5.5,3.5-7.9L31.7,18.1z M34.6,11.6c1.2,2.4,3.6,5.4,5.3,6.9
			c-0.3,0.3-0.8,0.7-1,1c-1.7-1.7-4-4.9-5.4-7.4L34.6,11.6z"/>
		<path class="st1" d="M60.2,15.7h-5.4c0.4,5.8,1.9,10.8,3.8,10.8c0.5,0,0.8-1,0.9-3.5c0.3,0.3,0.7,0.6,1.1,0.7
			c-0.2,3.2-0.7,4.1-2.1,4.1c-2.9,0-4.5-5.6-5-12.1h-9.6v-1.2h9.5c-0.1-1.1-0.1-2.3-0.1-3.4l1.7,0.1c0,0.2-0.1,0.3-0.4,0.3
			c0,1,0,2,0.1,3h5.5V15.7z M49.1,19.7v5.4c1.3-0.3,2.7-0.6,4-0.9l0.1,1.1c-3.1,0.8-6.4,1.5-8.5,2c0,0.1-0.1,0.3-0.3,0.3L44,26.1
			c1.1-0.2,2.4-0.5,3.9-0.8v-5.6h-3.4v-1.2h8.1v1.2H49.1z M56.7,11.1c1,0.6,2.1,1.6,2.7,2.2l-0.8,0.8c-0.6-0.7-1.7-1.7-2.7-2.3
			L56.7,11.1z"/>
		<path class="st1" d="M80.3,17h-3.8v1.2c0,3.4-1.1,6.9-5.8,9.1c-0.2-0.3-0.6-0.6-0.9-0.9c4.6-2,5.4-5.2,5.4-8.1V17h-5.8v4.5h-1.3
			V17h-3.5v-1.2h3.5v-3.9l1.7,0.1c0,0.2-0.2,0.3-0.5,0.4v3.4h5.8v-4.1l1.7,0.1c0,0.2-0.2,0.3-0.5,0.3v3.7h3.8V17z"/>
		<path class="st1" d="M100,12.7c-0.1,0.1-0.2,0.1-0.3,0.1c-0.1,0-0.1,0-0.2,0c-1.4,1.4-3.4,3-5.1,4.3c0.1,0.1,0.4,0.2,0.4,0.2
			c0,0.1-0.2,0.2-0.4,0.2v9.7h-1.3V18c-1.9,1.4-4.4,2.8-6.9,4c-0.2-0.3-0.5-0.7-0.8-1c4.9-2.3,10.3-6.1,13.2-9.3L100,12.7z"/>
		<path class="st1" d="M118.6,21.1c-1.8-1-4.4-2.2-6.3-2.9v9H111V11.6l1.8,0.1c0,0.2-0.2,0.3-0.5,0.4v5.3l0.3-0.4
			c2.1,0.8,4.9,2,6.8,3L118.6,21.1z"/>
	</g>
</g>
</svg>
