<?xml version="1.0" encoding="utf-8"?>
<!-- Generator: Adobe Illustrator 25.2.3, SVG Export Plug-In . SVG Version: 6.00 Build 0)  -->
<svg version="1.1" id="レイヤー_1" xmlns="http://www.w3.org/2000/svg" xmlns:xlink="http://www.w3.org/1999/xlink" x="0px"
	 y="0px" viewBox="0 0 92.8 358.7" style="enable-background:new 0 0 92.8 358.7;" xml:space="preserve">
<style type="text/css">
	.st0{fill:#210100;}
	.st1{fill:none;stroke:#76544B;stroke-miterlimit:10;}
	.st2{fill:#FFFFFF;}
</style>
<g>
	<rect x="37.8" class="st0" width="55" height="240"/>
	<rect y="91.7" class="st0" width="55" height="267"/>
	<line class="st1" x1="65.4" y1="0" x2="65.4" y2="30"/>
	<g>
		<g>
			<path class="st2" d="M66.1,51.5c-0.6,0-0.6,0.4-0.6,0.7c0,0.7-0.1,3.7-0.1,4.3c0,0.6,0.3,0.6,0.5,0.6H69c0.9,0,1.2,0,1.4-0.4
				c0.6-1,0.7-1.1,0.9-1.1c0.3,0,2.1,1.5,2.1,1.7c0,0.3-0.4,0.3-1.2,0.3h-5.5c-0.2,0-0.4,0-0.4,0.3c0,0.2,0.7,2.3,1.9,4
				c2.4,3.5,4.6,4.4,6.4,5.1c0.4,0.2,0.5,0.2,0.5,0.3c0,0.1-0.1,0.1-0.8,0.2c-0.2,0-1.1,0.2-1.6,0.8c-0.4,0.4-0.5,0.5-0.6,0.5
				c-0.3,0-2.2-1.6-3.5-3.4c-2.2-3-2.5-4.9-2.9-7c-0.1-0.4-0.2-0.7-0.4-0.7c-0.3,0-0.4,0.4-0.4,0.7c-0.3,1.9-0.8,4.5-3.6,7.3
				c-2.7,2.6-5.9,3.4-6.1,3.4c0,0-0.1,0-0.1-0.1c0-0.1,0.5-0.3,0.6-0.4c2.2-1.3,4.4-3.2,5.7-5.3c1.4-2.3,1.8-5.1,1.8-5.3
				c0-0.4-0.3-0.5-0.6-0.5h-2.9c-1.9,0-2.6,0-2.8,0.1c-0.1,0-0.4,0.1-0.5,0.1c-0.1,0-0.1-0.1-0.2-0.2l-0.4-0.5
				C55.9,57,55.8,57,55.8,57c0,0,0-0.1,0.1-0.1c0.2,0,0.8,0.1,1,0.1c1.1,0,2,0.1,3,0.1h2.9c0.2,0,0.5,0,0.6-0.2
				c0.1-0.2,0.1-2,0.1-4.4c0-0.6,0-1-0.7-1h-4c-1.9,0-2.6,0-2.8,0.1c-0.1,0-0.4,0-0.5,0c-0.1,0-0.1,0-0.2-0.1L55.1,51
				C55,50.8,55,50.8,55,50.8c0,0,0,0,0.1,0c0.2,0,0.8,0.1,1,0.1c1.1,0,2,0.1,3,0.1h11.1c0.9,0,1.2,0,1.4-0.4c0.8-1.2,0.8-1.3,1-1.3
				c0.3,0,1.9,1.5,1.9,1.9c0,0.3-0.5,0.3-1.2,0.3H66.1z"/>
			<path class="st2" d="M61.8,77.4c0.3,0,0.6-0.1,0.8-0.3c0.4-0.5,0.4-0.5,0.6-0.5c0.3,0,1.7,0.9,1.7,1.3c0,0.2-0.1,0.2-0.2,0.3
				c-0.6,0.3-0.7,0.7-1.1,1.6c-1.6,3.7-3.1,5.7-5.5,7.3c-0.5,0.4-2.1,1.1-2.2,1.1c-0.1,0-0.2-0.1-0.2-0.2c0-0.1,0.1-0.2,0.9-0.7
				c2.6-1.8,4.5-4.5,5.6-7.4c0.1-0.3,0.4-1.2,0.4-1.5c0-0.4-0.2-0.4-0.6-0.4h-2.4c-0.4,0-0.4,0.1-0.9,0.7c-0.7,0.9-2.4,3.1-3,3.1
				c-0.1,0-0.2,0-0.2-0.1c0,0,0.6-0.9,0.7-1.1c1.4-2,2.5-4.7,2.5-5.8c0-0.2,0-0.4,0.2-0.4c0.1,0,1.8,0.6,1.8,0.9
				c0,0.2-0.1,0.3-0.5,0.5c-0.2,0.1-0.7,1.3-0.7,1.4c0,0.2,0.2,0.2,0.3,0.2H61.8z M58.3,90.9c0,2-1.3,3.1-2.1,3.1
				c-0.4,0-0.8-0.3-0.8-0.8c0-0.5,0.2-0.6,0.9-1.2c0.4-0.3,0.8-0.7,1.2-1.7c0.1-0.2,0.3-0.9,0.3-1C58.2,89.3,58.3,90.3,58.3,90.9z
				 M56.5,81.6c0.3,0,2.5,0.6,2.5,2.1c0,0.6-0.3,1-0.6,1c-0.4,0-0.5-0.2-0.8-1.2c-0.1-0.2-0.4-1.1-1.1-1.6c0,0-0.2-0.1-0.2-0.2
				C56.4,81.6,56.5,81.6,56.5,81.6z M58.5,79.6c0.7,0,2.4,0.5,2.4,1.7c0,0.4-0.2,0.7-0.7,0.7c-0.5,0-0.5-0.2-0.7-0.6
				c-0.1-0.4-0.5-0.9-0.8-1.2c-0.1-0.1-0.5-0.5-0.5-0.5S58.5,79.6,58.5,79.6z M61.1,89.5c0.1,0,2.2,1.2,2.2,2.9c0,0.7-0.5,1.4-1,1.4
				c-0.7,0-0.8-0.8-0.8-1.9c0-0.5,0-1.1-0.3-1.6c0,0-0.3-0.7-0.3-0.7C61,89.5,61.1,89.5,61.1,89.5z M69.4,80.6c-0.3,0-0.7,0-0.7,0.4
				c0,0.6,1.2,3.4,5,5.5c0.3,0.2,1,0.5,1,0.5c0,0.1-0.9,0.4-1.1,0.5c-0.1,0.1-0.7,0.6-0.8,0.6c-0.3,0-1.3-0.9-2-1.8
				c-1.1-1.4-1.3-2-2.1-3.9c-0.1-0.3-0.1-0.3-0.2-0.3s-0.1,0.1-0.1,0.2c-0.5,1.7-1.4,3.1-2.7,4.3c-1.4,1.2-3.1,1.7-3.3,1.7
				c-0.1,0-0.2-0.1-0.2-0.1c0-0.1,0-0.1,0.4-0.3c1.1-0.7,2.2-1.5,3.3-3.2c1-1.5,1.4-3.3,1.4-3.6c0-0.4-0.3-0.4-0.5-0.4
				c-0.5,0-1.1,0-1.6,0c-0.1,0-0.6,0.1-0.6,0.1c-0.1,0-0.1,0-0.2-0.1l-0.4-0.5c-0.1-0.1-0.1-0.1-0.1-0.2c0,0,0,0,0.1,0
				c0.4,0,2.4,0.1,2.9,0.1c0.6,0,0.8,0,0.8-1.5c0-0.3-0.1-2.9-0.1-3c0-0.1-0.2-0.7-0.2-0.8c0,0,0-0.1,0.1-0.1c0.1,0,1.5,0.3,1.9,0.4
				c0.1,0,0.3,0.2,0.3,0.4c0,0.1-0.4,0.4-0.4,0.5c-0.1,0.3-0.3,3.1-0.3,3.5c0,0.7,0.4,0.7,0.7,0.7h0.8c0.9,0,1.2,0,1.4-0.4
				c0.5-0.8,0.5-0.9,0.7-0.9c0.2,0,1.9,1.3,1.9,1.5c0,0.3-0.4,0.3-1.2,0.3H69.4z M66,89.3c0.4,0,2.6,1.8,2.6,3.1
				c0,0.6-0.4,1.3-0.9,1.3c-0.5,0-0.6-0.4-0.7-1.3c-0.2-1.3-0.4-1.6-0.9-2.6c0-0.1-0.2-0.4-0.2-0.5C66,89.3,66,89.3,66,89.3z
				 M73.4,77.2c0,0.5-0.3,1-0.8,1c-0.7,0-0.9-0.6-1-1.3c-0.1-0.4-0.3-0.9-0.5-1.2c-0.4-0.4-0.4-0.5-0.4-0.5
				C70.7,75.1,73.4,75.7,73.4,77.2z M71,89.8c0.3,0,3.2,1.3,3.2,3.1c0,0.5-0.2,1.1-0.8,1.1c-0.6,0-0.8-0.6-1-1.2
				c-0.1-0.3-0.4-1.1-0.6-1.3c-0.4-0.6-1-1.5-1-1.6C70.8,89.8,70.9,89.8,71,89.8z"/>
			<path class="st2" d="M64.8,103c0,0.1,0,0.2,0,0.2c0.1,0.7,0.2,1.4,0.2,2.4c0,1.5-0.3,3.5-2.3,6.4c-1.8,2.7-2.9,3.2-3.8,3.2
				c-1.5,0-2.8-2.3-2.8-5c0-1.2,0.2-3.4,2.4-5.6c2.8-2.9,5.7-2.9,7-2.9c2,0,2.9,0.4,3.5,0.7c2.4,1.2,3.8,3.5,3.8,6.4
				c0,2.9-1.7,6.4-5.5,7.7c-1.9,0.7-3.3,0.8-3.7,0.8c-0.1,0-0.2,0-0.2-0.2c0-0.1,0-0.1,0.6-0.3c2.3-0.9,7.1-2.8,7.1-8.3
				c0-0.9-0.1-6.1-6.1-6.1C64.8,102.7,64.8,102.9,64.8,103z M57.6,109.7c0,1.4,0.6,3.4,1.9,3.4c0.6,0,1.2-0.3,2.7-2.6
				c1.2-1.8,2.2-4.2,2.2-6.4c0-1.3-0.1-1.4-0.4-1.4C61.9,102.7,57.6,105.6,57.6,109.7z"/>
			<path class="st2" d="M57.4,135.8c0-0.5,0-3.3,0-3.5c0-0.1,0-0.5-0.2-0.5c-0.2,0-0.4,0.2-0.7,0.6c-0.9,1-2,1.8-2.1,1.8
				c-0.1,0-0.1,0-0.1-0.1c0,0,0.4-0.5,0.5-0.8c2.9-4.1,4-8.4,4-8.6c0-0.2,0.1-0.5,0.3-0.5c0.1,0,2,0.7,2,1.1c0,0.1-0.1,0.2-0.2,0.3
				c-0.1,0.1-0.5,0.3-0.5,0.4c-0.2,0.2-1.7,3.4-1.7,3.7c0,0.3,0.2,0.4,0.6,0.6c0.2,0.1,0.4,0.3,0.4,0.4c0,0.1-0.5,0.7-0.6,0.9
				c-0.2,0.3-0.2,4.4-0.2,4.8c0,0.8,0,5.2,0,6.1c0,0.9,0,1.8-1.1,1.8c-0.5,0-0.5-0.3-0.5-0.8C57.2,142.5,57.4,137,57.4,135.8z
				 M64.3,135.5c-1.9,0-2.6,0-2.8,0c-0.1,0-0.4,0.1-0.5,0.1c-0.1,0-0.1-0.1-0.2-0.2l-0.4-0.5c-0.1-0.1-0.1-0.1-0.1-0.1
				c0,0,0-0.1,0.1-0.1c0.2,0,0.8,0.1,1,0.1c1.1,0,2,0.1,3,0.1H66c0.5,0,0.6-0.3,0.6-0.6c0-0.1,0-1.4,0-1.7c0-0.2-0.1-0.8-0.1-1
				c0-0.2,0-0.2,0.2-0.2c0.1,0,1.8,0.4,1.8,0.8c0,0.2-0.4,0.6-0.5,0.7c-0.1,0.3-0.1,0.6-0.1,1.1c0,0.5,0.1,0.7,0.7,0.7h1.7
				c1,0,1.1,0,1.4-0.4c0.6-0.7,0.7-0.8,0.9-0.8c0.4,0,1.8,1.2,1.8,1.5c0,0.1-0.1,0.2-0.2,0.2c-0.2,0.1-0.4,0.1-0.9,0.1H69
				c-0.2,0-0.5,0-0.5,0.2c0,0.6,2.6,3.8,6.3,5.3c0.3,0.1,0.4,0.1,0.4,0.2c0,0.1-0.1,0.2-0.5,0.3c-0.4,0.1-0.6,0.3-1,0.6
				c-0.1,0.1-0.2,0.2-0.4,0.2c-0.4,0-2.7-1.7-4.2-4.3c-0.1-0.2-0.9-1.6-0.9-1.6c-0.1,0-0.1,0.2-0.1,0.2c0,1,0.2,5.5,0.2,6.4
				c0,1.3-1,1.3-1.1,1.3c-0.5,0-0.5-0.5-0.5-0.7c0-0.8,0.1-4.6,0.1-5.3c0-0.8,0-0.9-0.2-0.9c-0.2,0-0.5,0.5-0.7,0.7
				c-2.8,3.6-5.2,4.5-5.4,4.5c-0.1,0-0.1,0-0.1-0.1c0,0,0.3-0.3,0.5-0.5c3.4-3.2,5.1-6,5.1-6.3c0-0.2-0.2-0.2-0.3-0.2H64.3z
				 M69.7,125.4c0.4,0,0.5-0.1,0.8-0.3c0.5-0.5,0.6-0.6,0.8-0.6c0.4,0,1.3,0.9,1.3,1.2c0,0.2-0.1,0.3-0.5,0.7
				c-0.2,0.2-0.2,1.8-0.2,2c0,0.3,0.1,1.8,0.1,2.2c0,0.6-0.4,1-1,1c-0.2,0-0.6,0-0.6-0.5c0-0.6,0-0.7-0.5-0.7h-5
				c-0.5,0-0.5,0.2-0.6,0.5c0,0.4,0,1.2-1,1.2c-0.6,0-0.6-0.4-0.6-0.7c0-0.4,0.1-2.6,0.1-3.1c0-0.5-0.1-2.7-0.1-3.2
				c0-0.2,0-0.2,0.2-0.2c0.1,0,1,0.4,1.3,0.5c0.2,0.1,0.4,0.1,0.7,0.1H69.7z M69.9,129.9c0.6,0,0.7,0,0.7-2.1c0-1.6,0-1.8-0.7-1.8
				h-5.1c-0.7,0-0.7,0.2-0.7,2c0,1.7,0,1.9,0.7,1.9H69.9z"/>
			<path class="st2" d="M57.8,156.8c0,0.7-0.5,1-0.8,1c-0.4,0-0.6-0.4-1-0.9c-0.4-0.7-0.7-1-1.4-1.5c0,0-0.2-0.1-0.2-0.2
				c0-0.1,0.5-0.2,0.7-0.2c0.5,0,1.1,0.2,1.3,0.3C56.7,155.3,57.8,155.7,57.8,156.8z M59.6,156.2c0,0,0.1,0,0.1,0.1
				c0,0.2-0.5,1.9-0.6,2.3c-0.4,1.3-1,2.8-1.3,3.6c-0.2,0.4-0.3,0.9-0.3,1.2c0,0.2,0,1.1,0.3,2.1c0.1,0.4,0.7,2,0.7,2.4
				c0,0.3-0.1,1.2-1,1.2c-1.1,0-1.1-1.1-1.1-1.6c0-2.3,0-3.2-0.9-3.8c-0.1,0-0.6-0.2-0.6-0.4c0-0.1,0.2-0.1,0.2-0.1
				c0.2,0,0.6-0.2,0.8-0.3c0.7-0.5,2.6-4.4,3.3-5.8C59.2,156.9,59.5,156.2,59.6,156.2z M59.7,151.8c0,0.7-0.4,1-0.8,1
				c-0.3,0-0.4-0.2-1.1-1.4c-0.2-0.3-0.5-0.8-1.5-1.5c-0.1-0.1-0.2-0.1-0.2-0.2c0-0.1,0.1-0.1,0.2-0.1c0.5,0,1.3,0.1,1.7,0.3
				C59.1,150.3,59.7,151,59.7,151.8z M67.7,167.7c0.2,0,0.6,0,0.7-0.4c0-0.1,0-7.2,0-7.4c0-0.4,0-0.7-0.1-1c0-0.1-0.1-0.5-0.1-0.6
				c0-0.1,0-0.2,0.2-0.2c0,0,2.2,0.3,2.2,0.9c0,0.1,0,0.2-0.1,0.2c0,0-0.4,0.2-0.4,0.2c-0.3,0.2-0.3,1.1-0.3,7.8
				c0,0.5,0.4,0.5,0.7,0.5H71c0.2,0,0.9,0,1.1-0.1c0.2-0.1,1-1.3,1.3-1.3c0.3,0,1.8,1.3,1.8,1.7c0,0.3-0.1,0.3-0.9,0.3H63.7
				c-0.5,0-2,0-2.8,0c-0.1,0-0.4,0.1-0.5,0.1c-0.1,0-0.1-0.1-0.2-0.2l-0.4-0.5c-0.1-0.1-0.1-0.1-0.1-0.1c0-0.1,0-0.1,0.1-0.1
				c0.1,0,1.2,0.1,1.4,0.1c1.5,0.1,1.6,0.1,2.8,0.1c0.4,0,0.5-0.3,0.5-0.4c0-0.1,0-5.9,0-6.1c0-0.8,0-2.1-0.1-2.4
				c0-0.1-0.2-0.6-0.2-0.7c0-0.2,0.1-0.2,0.2-0.2c0,0,1.2,0.2,1.4,0.3c0.2,0.1,0.6,0.2,0.6,0.5c0,0.1-0.4,0.7-0.4,0.8
				c-0.1,0.3-0.1,1-0.1,7.7c0,0.6,0.5,0.6,0.7,0.6H67.7z M63.5,164.7c0,0.6-0.3,1.3-0.8,1.3c-0.5,0-0.7-0.6-0.8-1.1
				c-0.1-0.7-0.5-2.3-1.3-4.2c0-0.1-0.2-0.5-0.2-0.6c0,0,0-0.1,0.1-0.1c0.1,0,1.2,1.3,1.4,1.5C62.4,162.2,63.5,163.6,63.5,164.7z
				 M64.4,157.1c-0.2,0-0.6,0-0.8,0.4c-0.3,0.7-0.8,0.9-1.1,0.9c-0.4,0-0.5-0.2-0.5-1c0-0.7,0.1-4.1,0.1-4.8c0-0.3,0-1.1-0.2-2
				c0-0.1-0.3-0.8-0.3-0.9c0-0.1,0.1-0.2,0.2-0.2c0.3,0,0.9,0.3,1.8,0.8c0.5,0.3,0.9,0.3,1.2,0.3h5.7c0.6,0,0.9-0.3,0.9-0.3
				c0.2-0.2,0.3-0.3,0.5-0.3c0.2,0,1.4,0.7,1.4,1c0,0.1,0,0.2-0.4,0.5c-0.2,0.2-0.2,0.4-0.2,0.7c0,2.5,0,2.8,0.1,3.7
				c0,0.1,0.1,0.9,0.1,1.1c0,1.5-1,1.5-1.1,1.5c-0.6,0-0.6-0.3-0.7-0.7c0-0.1-0.1-0.5-0.7-0.5H64.4z M64.2,151.2
				c-0.6,0-0.6,0.4-0.6,0.9c0,1.2,0,1.5,0.6,1.5h6.2c0.6,0,0.6-0.4,0.6-0.9c0-1.2,0-1.5-0.6-1.5H64.2z M64.3,154.1
				c-0.7,0-0.7,0.4-0.7,0.8c0,1.5,0,1.6,0.7,1.6h6.2c0.7,0,0.7-0.4,0.7-1.2c0-1,0-1.3-0.7-1.3H64.3z M74.3,161.4
				c0,0.2-0.1,0.3-0.5,0.5c-0.2,0.1-0.4,0.3-0.8,1.1c-0.4,0.6-2.3,3.4-2.6,3.4c0,0,0,0,0-0.1c0,0,0.9-2.6,1-2.8
				c0.4-1,0.9-2.3,0.9-3.1c0-0.1,0-0.2,0.2-0.2c0.2,0,0.5,0.2,0.9,0.4C74.1,161,74.3,161.2,74.3,161.4z"/>
			<path class="st2" d="M58.6,184.3c-0.4,0-0.6,0.2-0.6,0.6c-0.1,2.4-0.4,4.2-0.9,5.7c-0.5,1.8-1.8,3.7-2.2,3.7c0,0-0.1,0-0.1-0.1
				c0-0.1,0-0.2,0.1-0.3c0.7-1.3,1.1-2.9,1.2-3.7c0.4-2.1,0.5-4.2,0.5-6.3c0-1.7-0.1-3.6-0.2-4c0-0.2-0.2-1-0.2-1.2
				c0,0,0-0.1,0.1-0.1c0.1,0,1.5,0.7,1.7,0.8c0.2,0.1,0.6,0.1,0.8,0.1h4.9c0.1,0,0.4,0,0.4-0.4c0,0-0.5-3.4-0.5-3.5
				c0,0-0.2-0.7-0.2-0.7c0-0.1,0.1-0.2,0.2-0.2c0,0,2.1,0.2,2.1,0.6c0,0.1-0.3,0.4-0.4,0.5c-0.1,0.2-0.2,0.3-0.2,0.6
				c0,0.4,0.3,2.6,0.3,2.8c0,0,0.1,0.3,0.6,0.3H70c0.9,0,1,0,1.2-0.2c0.2-0.2,0.8-1.3,1-1.3c0.2,0,2.1,1.4,2.1,1.7
				c0,0.3-0.5,0.3-1.2,0.3h-7c-0.2,0-0.4,0.1-0.4,0.3c0,1.1,1.5,6.8,2,6.8c0.2,0,1.7-3.3,2-4.7c0.1-0.3,0.1-0.7,0.2-0.7
				c0.1,0,0.2,0,1,0.5c0.7,0.4,0.8,0.5,0.8,0.7c0,0.1,0,0.2-0.1,0.3c-0.1,0.1-0.4,0.3-0.5,0.4c-0.2,0.2-1.6,2.9-1.8,3.4
				c-0.1,0.2-0.8,1.3-0.8,1.5c0,0.3,2.8,3.3,3.7,3.3c0.4,0,0.7-0.6,1.2-1.4c0.1-0.2,0.6-1.1,0.7-1.1c0.1,0,0.1,0.1,0.1,0.2
				c0,0.1-0.4,2-0.4,2.4c0,0.1,0,0.3,0.1,0.7c0.3,0.6,0.3,0.7,0.3,0.9c0,0.6-0.5,0.7-0.7,0.7c-1.4,0-3.6-1.7-5.4-3.8
				c-0.4-0.5-0.5-0.5-0.6-0.5c-0.1,0-1,0.9-1.2,1.1c-2.1,1.9-4.4,2.9-4.7,2.9c0,0-0.1,0-0.1-0.1s2-1.7,2.4-2
				c1.5-1.3,2.8-2.9,2.8-3.2c0-0.1,0-0.2-0.1-0.3c-1.1-2.2-1.7-4.5-2.1-6.8c-0.2-1.3-0.3-1.5-0.9-1.5h-5c-0.2,0-0.6,0-0.6,0.5
				c0,0.4,0,2.2,0,2.6c0,0.3,0,0.6,0.6,0.6h1.6c0.2,0,0.4,0,0.6-0.1c0.1-0.1,0.5-0.6,0.7-0.6c0.1,0,1.4,1,1.4,1.2
				c0,0.1-0.5,0.5-0.5,0.6c0,0.1-0.1,3-0.1,3.3c-0.1,2.4-0.4,4.8-2.3,4.8c-0.2,0-0.2-0.1-0.3-0.2c-0.2-0.4-0.3-0.5-0.5-0.7
				c-0.2-0.2-1.4-0.8-1.4-0.9c0-0.1,0.1-0.1,0.2-0.1c0.3,0,1.5,0.2,1.8,0.2c0.5,0,0.9-0.2,1.1-1.6c0.1-0.6,0.2-1.4,0.2-4.5
				c0-0.4,0-0.7-0.7-0.7H58.6z M70.8,177.4c0,0.5-0.2,0.9-0.8,0.9c-0.3,0-0.4-0.3-0.5-0.7c-0.2-0.5-0.8-1.5-1.2-1.9
				c-0.1-0.1-0.1-0.2-0.1-0.2C68.3,175.3,70.8,175.8,70.8,177.4z"/>
			<path class="st2" d="M62.9,202.5c0,0.2-0.2,0.3-0.6,0.4c-0.2,0.1-0.6,0.7-1.1,1.5c-2.6,4.2-6.1,6.1-6.5,6.1c-0.1,0-0.1,0-0.1-0.1
				c0-0.1,0-0.2,0.5-0.5c3-2.3,4.6-6,5-6.6c0.2-0.3,0.7-2.2,0.7-2.2C60.9,200.9,62.9,202.1,62.9,202.5z M65.1,208.9
				c-0.6,0-0.6,0-0.7,1.2c-0.2,1.9-0.6,5.7-4.4,7.9c-1.8,1-4.1,1.4-4.2,1.4c-0.1,0-0.3,0-0.3-0.2c0-0.1,0.1-0.2,0.5-0.3
				c1.5-0.5,3.3-1.6,4.3-2.7c1.6-1.6,2.5-4.6,2.5-6.9c0-0.5-0.2-0.5-0.5-0.5h-0.7c-0.8,0-1.9,0-2.3,0c-0.1,0-0.4,0.1-0.5,0.1
				c-0.1,0-0.1-0.1-0.2-0.2l-0.4-0.5c-0.1-0.1-0.1-0.1-0.1-0.1c0,0,0-0.1,0.1-0.1c0.2,0,0.8,0.1,1,0.1c1.1,0,2,0.1,3,0.1H67
				c1,0,1.1,0,1.5-0.4c0.3-0.4,0.5-0.5,0.7-0.5c0.4,0,1.6,1,1.6,1.5c0,0.1-0.4,0.5-0.4,0.6c-0.1,0.2-0.2,2.7-0.3,3.2
				c-0.2,2.7-0.4,4.5-1,5.5c-0.6,0.9-1.9,1.3-2.2,1.3c-0.2,0-0.2-0.1-0.4-0.7c-0.1-0.5-0.9-0.8-2-1.1c-0.5-0.1-0.7-0.2-0.7-0.4
				s0.2-0.1,0.2-0.1c0.2,0,0.7,0.1,0.9,0.2c1.2,0.2,1.3,0.2,1.6,0.2c1.1,0,1.7-0.2,2-2.5c0.2-1.7,0.4-4.2,0.4-5.4
				c0-0.6,0-0.8-0.7-0.8H65.1z M66.2,201.8c-0.5,0-1.3,0-1.8,0c-0.1,0-0.4,0-0.4,0s-0.1,0-0.2-0.1l-0.4-0.5c0,0-0.1-0.1-0.1-0.2
				c0,0,0,0,0.1,0c0.1,0,0.8,0.1,0.9,0.1c0.2,0,1.2,0.1,1.3,0.1c0.5,0,0.8-0.4,0.9-0.6C67,200,67,200,67.2,200
				c0.3,0,1.9,1.1,1.9,1.6c0,0.2-0.1,0.2-0.7,0.4c-0.1,0-0.4,0.1-0.4,0.5c0,1.1,2.9,4.6,6.6,5c0.1,0,0.3,0,0.3,0.2
				c0,0.1-0.6,0.2-0.7,0.3c-0.6,0.3-1.1,0.7-1.3,1c0,0.1-0.3,0.3-0.4,0.3c-0.7,0-4.4-3-5.3-6.4c-0.2-0.9-0.3-1-0.8-1H66.2z"/>
		</g>
	</g>
	<g>
		<g>
			<path class="st2" d="M36.4,116.7c0,0.4-0.1,0.6-0.5,0.6s-0.5-0.2-0.5-0.6v-5.3c0-0.6-0.1-0.6-2.8-0.6c-2.5,0-13.4,0-15.6,0
				c-0.5,0-0.7-0.1-0.7-0.4c0-0.5,0.2-0.5,1.5-0.5h17.7c0.6,0,0.9,0.3,0.9,0.9V116.7z"/>
			<path class="st2" d="M25.4,130c0.2,0.1,1.2,0.6,1.4,0.6c0.5,0,1.1-1.5,1.4-2.2c0.4-0.9,0.8-2.2,0.8-2.6c0-0.2-0.1-0.4-0.2-0.5
				c-0.1-0.1-0.1-0.2-0.1-0.3c0-0.1,0.1-0.2,0.2-0.2c0.2,0,0.9,0.2,1.5,0.7c0.7,0.5,0.9,1.4,0.9,1.6c0,0.2-0.1,0.2-0.5,0.4
				c-0.2,0.1-0.3,0.2-0.9,1.3c-0.4,0.7-0.8,1.5-1.3,2.2c-0.1,0.2-0.2,0.4-0.2,0.5c0,0.2,0.2,0.4,0.4,0.6c1.9,1.7,2.2,2.9,2.2,3.4
				c0,0.6-0.5,0.7-0.7,0.7c-0.8,0-1.1-0.6-1.9-1.9c-0.2-0.4-0.6-1.1-0.9-1.1c-0.2,0-0.4,0.2-0.5,0.3c-4,5-8.4,6.9-8.6,6.9
				c-0.1,0-0.2,0-0.2-0.1s0.4-0.4,0.7-0.6c3.7-2.9,5.2-4.6,5.8-5.4c0.5-0.7,1.6-2,1.6-2.4c0-0.5-2-1.7-2.9-2.1
				c-0.4-0.2-0.5-0.2-0.5-0.4c0-0.1,0-0.2,0.2-0.2C23.4,129.3,24.4,129.6,25.4,130z"/>
			<path class="st2" d="M19.5,165.4c4.5-2.6,7.5-6.1,7.5-6.8c0-0.7-2.6-2.4-3.2-2.4c-0.5,0-3.2,2.9-3.9,2.9c-0.1,0-0.1-0.1-0.1-0.1
				c0-0.1,0.7-0.8,0.8-0.9c2.6-2.8,4.4-5.9,4.4-7.2c0-0.2-0.4-0.9-0.4-1c0-0.1,0.3-0.1,0.4-0.1c1.2,0,2,0.9,2,1.3
				c0,0.1-0.2,0.7-0.2,0.9c0,0.3,0.5,0.4,0.7,0.4c1.1,0,3-0.4,3.3-0.5c0.1-0.1,0.7-0.5,0.8-0.5c0.2,0,1.8,1,1.8,1.7
				c0,0.3-0.2,0.4-0.6,0.6c-0.3,0.2-0.4,0.3-1.1,1.3c-0.3,0.5-1.8,2.6-2.1,3c-0.2,0.3-0.2,0.4-0.2,0.5c0,0.2,0,0.2,0.4,0.7
				c0.5,0.7,0.9,1.2,0.9,1.9c0,1-0.8,1.1-0.9,1.1c-0.5,0-0.5-0.2-1.4-1.6c0-0.1-0.3-0.5-0.5-0.5c-0.2,0-0.3,0.2-0.8,0.6
				c-3.7,4-8,5.3-8.1,5.3c0,0-0.2,0-0.2-0.2C19,165.6,19.1,165.6,19.5,165.4z M30.7,153.2c0-0.2-0.2-0.3-0.4-0.3
				c-0.3,0-2.3,0.3-2.7,0.3c-0.3,0-0.4,0-0.7-0.1s-0.3-0.1-0.5-0.1c-0.1,0-0.2,0-0.3,0.1c0,0-1.9,2.2-1.9,2.5c0,0.3,0.2,0.4,0.7,0.6
				c0.7,0.3,0.9,0.4,2.4,1.1c0.1,0,0.4,0.2,0.5,0.2C28.5,157.4,30.7,154,30.7,153.2z"/>
			<path class="st2" d="M25.1,176c0.4,0.4,0.7,0.8,0.7,0.9c0,0.1-0.1,0.2-0.4,0.6c-0.5,0.5-1.2,1.7-1.2,1.8c0,0.3,0.3,0.4,1,0.4
				c1.2,0,3.9-0.3,4.9-0.5c0.3-0.1,1.5-0.5,1.8-0.5c0.1,0,2.2,0.4,2.2,1.3c0,0.3-0.4,0.6-0.7,0.6c-0.2,0-1.2-0.2-1.4-0.2
				c-0.5,0-1-0.1-1.6-0.1c-0.2,0-1.7,0-1.7,0.3c0,0.1,0.4,0.6,0.4,0.7c0,0.1-0.3,0.6-0.4,0.7c-0.1,0.3-0.5,1.4-0.6,1.6
				c-2.1,5.1-6.3,7.1-6.8,7.1c0,0-0.1,0-0.1-0.1c0-0.1,0-0.1,0.3-0.4c1.2-1.1,2.7-2.5,3.8-4.2c1-1.6,1.6-3.3,1.6-4.2
				c0-0.5-0.1-1.2-0.8-1.2c-0.2,0-0.6,0.1-0.9,0.1c-0.1,0-0.8,0.2-0.9,0.2c-0.2,0-0.4-0.2-0.4-0.3c-0.3-0.3-0.3-0.3-0.4-0.3
				c-0.2,0-0.3,0.2-0.4,0.3c-1.6,2.4-4,3.9-4.3,3.9c-0.1,0-0.1-0.1-0.1-0.1c0-0.1,2.1-2.6,2.5-3.1c1.9-2.6,2.1-4.5,2.1-5
				c0-0.3,0-0.7-0.2-1c0,0-0.2-0.3-0.2-0.4c0-0.2,0.3-0.2,0.3-0.2C24.2,175,24.4,175.2,25.1,176z"/>
			<path class="st2" d="M27.2,205.4c0.9,0.5,0.9,0.6,0.9,0.8c0,0.1-0.2,0.7-0.3,0.9c-0.1,0.4-0.1,0.9-0.1,3.9c0,0.6,0,1.8,0.1,2.6
				c0,0.3,0.2,1.5,0.2,1.8c0,0.2,0,1-0.5,1c-0.6,0-1.4-0.9-1.4-1.5c0-0.2,0.2-1.2,0.2-1.4c0.1-1.2,0.2-2.9,0.2-4
				c0-0.8,0-3.1-0.6-3.1c-0.1,0-0.2,0.1-0.4,0.3c-2.2,2.1-5.9,4.2-6.2,4.2c-0.1,0-0.1,0-0.1-0.1c0-0.1,0-0.1,0.1-0.2
				c0.6-0.5,1.2-1,1.5-1.3c5.2-4.4,6.9-8.2,6.9-8.8c0-0.2-0.1-0.4-0.2-0.6c0,0-0.2-0.3-0.2-0.4c0-0.1,0.1-0.2,0.2-0.2
				c0.3,0,2.6,0.9,2.6,1.8c0,0.2-0.1,0.4-0.2,0.4c-0.6,0.5-0.7,0.6-1.5,1.8c-0.4,0.5-1.1,1.3-1.5,1.8
				C27,205.2,27.1,205.3,27.2,205.4z"/>
			<path class="st2" d="M19.5,240c-0.3,0-0.6,0.1-0.7,0.4c0,0.2,0,0.9,0,1.1c0,1-0.8,1-0.9,1c-0.5,0-0.5-0.3-0.5-0.6
				c0-0.1,0-0.4,0-0.8c0.2-2.4,0.2-7.3,0.2-9.9c0-1.3,0-1.5-0.1-2.6c0-0.1-0.1-0.4-0.1-0.5c0-0.1,0.1-0.2,0.2-0.2
				c0.1,0,0.7,0.2,0.8,0.3c0.5,0.2,0.7,0.3,1,0.3c0.4,0,0.4-0.2,0.4-0.5v-2.4c0-0.4,0-0.8-0.5-0.8c-0.3,0-1.6,0.1-1.8,0.1
				c-0.1,0-0.1,0-0.2-0.1l-0.4-0.5c-0.1-0.1-0.1-0.1-0.1-0.2c0,0,0,0,0.1,0c0.1,0,0.8,0.1,1,0.1c0.6,0,1.8,0.1,3,0.1h1.5
				c1,0,1.1,0,1.4-0.4c0.4-0.5,0.5-0.6,0.7-0.6c0.4,0,1.6,1.1,1.6,1.3c0,0.2-0.1,0.2-1.2,0.2h-1.4c-0.5,0-0.7,0.3-0.7,0.6v2.2
				c0,0.6,0,0.8,0.5,0.8c0.6,0,0.6,0,0.8-0.2c0.2-0.2,0.3-0.3,0.4-0.3c0.2,0,1.3,0.6,1.3,0.9c0,0.1-0.1,0.2-0.4,0.4
				c-0.1,0.1-0.1,0.3-0.1,0.6c0,1.5,0,8.7,0,10.4c0,0.5,0,1.4-0.9,1.4c-0.5,0-0.5-0.1-0.5-0.9c0-0.5,0-0.7-0.6-0.7H19.5z
				 M23.4,236.6c0.6,0,0.6-0.1,0.6-2c0-0.1,0-0.2-0.1-0.2c-0.1,0-0.3,0.2-0.4,0.2c-0.1,0-0.4,0.1-0.7,0.1c-1.3,0-1.3-0.6-1.3-2.4
				v-2.9c0-0.2-0.2-0.3-0.3-0.3c-0.3,0-0.4,0-0.4,0.4c0,2.8-0.1,4-1.7,5.5c-0.4,0.4-0.4,0.4-0.4,0.8c0,0.5,0,0.8,0.7,0.8H23.4z
				 M18.8,229.6c0,0.7,0,4,0,4.7c0,0.4,0,0.5,0.1,0.5c0.4,0,0.9-1.5,0.9-3.7c0-0.2,0-1.8,0-1.8c0-0.2-0.3-0.2-0.4-0.2
				C18.9,229,18.8,229.1,18.8,229.6z M19.4,237.2c-0.6,0-0.7,0.3-0.7,0.7c0,1.2,0,1.5,0.7,1.5h3.9c0.7,0,0.7-0.3,0.7-1.5
				c0-0.5-0.2-0.7-0.7-0.7H19.4z M21.6,228.3c0-0.1,0-1.3,0-1.9c0-0.1,0-1.4,0-1.5c-0.1-0.1-0.2-0.1-0.4-0.1c-0.1,0-0.3,0-0.3,0.1
				c0,0.1,0,2.5,0,2.8c0,0.6,0,0.7,0.4,0.7C21.4,228.5,21.6,228.5,21.6,228.3z M22.8,229.6c0,0.5,0,2.9,0,3.5c0,0.1,0,0.4,0.2,0.4
				c0.4,0,0.4-0.4,0.4-0.6c0,0,0-0.2,0.1-0.2c0.1,0,0.1,0.4,0.2,0.4c0,0.2,0.2,0.3,0.3,0.3c0.1,0,0.1,0,0.1-0.5c0-0.5,0-2.9,0-3.4
				c0-0.4-0.2-0.4-0.7-0.4C22.8,229,22.8,229.2,22.8,229.6z M32,234.5c0.2,0,0.6,0,0.8-0.3s0.3-0.4,0.4-0.4c0,0,1.8,0.7,1.8,0.9
				c0,0.1-0.1,0.2-0.2,0.3c-0.2,0.1-0.7,0.4-0.9,0.8c-0.8,1.2-1,1.4-1.7,2.2c-0.2,0.2-0.7,0.7-0.7,0.9c0,0.3,2.1,1.4,2.9,1.7
				c0.8,0.3,1.8,0.5,2.4,0.5c0,0,0.2,0,0.2,0.1c0,0-0.2,0.1-0.3,0.2c-0.2,0.1-0.6,0.3-1.3,0.9c-0.1,0.1-0.4,0.4-0.5,0.4
				c-0.2,0-0.9-0.4-1.1-0.5c-0.9-0.5-1.8-1.1-2.4-1.7c-0.7-0.6-0.7-0.6-0.9-0.6c-0.2,0-1.4,0.9-1.7,1.1c-1.6,0.9-3.9,1.9-4.4,1.9
				c-0.1,0-0.1,0-0.1-0.1s0-0.1,0.3-0.2c0.3-0.1,2-1.1,3.7-2.4c0.5-0.4,1.3-1,1.3-1.3c0-0.2-0.1-0.3-0.2-0.5
				c-0.2-0.4-0.5-0.8-0.8-1.6c-0.2-0.6-0.2-0.7-0.4-0.7c-0.1,0-1.7,1.4-2,1.4c0,0-0.1,0-0.1,0c0,0,0.9-1.3,1-1.5
				c0.4-0.5,1.4-1.9,1.6-3.1c0-0.1,0.1-0.4,0.2-0.4c0,0,1.6,0.5,1.6,0.8c0,0.2-0.1,0.2-0.5,0.5c-0.3,0.2-0.6,0.5-0.6,0.7
				c0,0.2,0.2,0.2,0.3,0.2H32z M32.9,227.3c0.5,0,0.7,0,0.7-0.3c0-0.2-0.6-1.2-1.1-1.9c0,0-0.3-0.3-0.3-0.3c0,0,0,0,0,0
				c0.3,0,3.1,1.1,3.1,2.8c0,0.8-0.5,1.3-0.9,1.3c-0.3,0-0.4-0.2-0.6-0.9c0-0.2-0.1-0.3-0.5-0.3c-0.3,0-6.2,0.7-6.6,1.1
				c-0.2,0.2-0.3,0.3-0.4,0.3c-0.3,0-0.4-0.2-0.5-0.4c-0.1-0.2-0.4-1.2-0.4-1.3c0-0.1,0.1-0.2,0.2-0.2c0.2,0,1.5,0.3,1.8,0.3
				s0.4,0,0.6-0.5c0.5-1.2,0.9-2.8,0.9-3.3c0-0.1-0.1-0.5-0.1-0.6c0-0.2,0.1-0.2,0.3-0.2c0.1,0,2.1,0.5,2.1,0.8
				c0,0.1-0.5,0.6-0.7,0.7c0,0-1.1,1.6-1.3,1.9c-0.1,0.1-0.8,1.2-0.8,1.2c0,0.2,0,0.2,0.5,0.2C29.2,227.4,31,227.4,32.9,227.3z
				 M30,228.9c0.1,0,0.3,0.2,0.3,0.3c0,0.2-0.7,0.6-0.8,0.7c-0.2,0.2-1.2,1.4-1.4,1.6c-1.3,1.3-2.4,1.7-2.4,1.7s-0.1,0-0.1-0.1
				c0,0,0.5-0.6,0.6-0.7c1-1.2,2.2-2.7,2.2-3.7c0-0.2,0-0.4,0.2-0.4c0.1,0,0.2,0,0.2,0.1C29,228.5,29.8,228.9,30,228.9z M29.4,235
				c-0.3,0-0.9,0-0.9,0.5c0,0.4,1.5,2.3,1.8,2.3c0.4,0,2-2.3,2-2.6c0-0.2-0.2-0.2-0.4-0.2H29.4z M32.7,228.5c0,0.1-0.4,0.5-0.4,0.5
				c-0.1,0.2-0.1,0.4-0.1,0.7c0,1.7,0,1.9,1.1,1.9c1.3,0,1.5-0.4,1.7-0.7c0.1-0.2,0.4-1.2,0.5-1.2s0.1,0.1,0.1,0.1
				c0,0.6,0.2,0.9,0.4,1.1c0.4,0.6,0.4,0.6,0.4,0.8c0,0.3-0.2,0.8-1,1c-0.4,0.1-1.2,0.2-2.6,0.2c-1.7,0-1.7-0.4-1.7-1.8
				c0-0.6,0-2.5-0.2-2.9c0-0.1-0.1-0.3,0-0.3C30.9,227.9,32.7,228.2,32.7,228.5z"/>
			<path class="st2" d="M16.6,248.3c0-0.4,0.1-0.6,0.5-0.6s0.5,0.2,0.5,0.6v5.3c0,0.6,0.1,0.6,2.8,0.6c2.5,0,13.4,0,15.6,0
				c0.5,0,0.7,0.1,0.7,0.5c0,0.5-0.2,0.5-1.5,0.5H17.5c-0.6,0-0.9-0.4-0.9-0.9V248.3z"/>
			<path class="st2" d="M18.2,280.4c0-0.1,0.1-0.2,0.2-0.2c0.1,0,1.2,0.3,1.5,0.3c0.6,0,3.7-0.6,3.7-0.7c0.4-0.3,0.4-2.5,0.4-2.6
				c0-0.6,0-1.2-0.6-1.9c-0.3-0.4-0.4-0.4-0.4-0.5c0-0.2,0.3-0.2,0.4-0.2c1.5,0,2.3,0.8,2.3,1.4c0,0-0.8,2.8-0.8,3.3
				c0,0.1,0.1,0.2,0.2,0.2c0.1,0,1.1-0.1,1.3-0.1c1.7,0,2.9,0.8,2.9,2.8c0,1.7-0.6,5.5-1.9,7.1c-0.6,0.7-1.5,1.3-2.2,1.3
				c-0.8,0-1-0.8-1.3-1.5c0-0.2-0.3-0.7-0.3-0.7c0-0.1,0-0.1,0.1-0.1c0.1,0,0.5,0.1,0.5,0.2c0.5,0.1,0.9,0.2,1.1,0.2
				c0.6,0,1.5-0.3,2.1-2.7c0.2-0.9,0.7-2.7,0.7-3.8c0-1.5-0.9-1.6-1.5-1.6c-0.7,0-2,0.3-2.1,0.5c-0.1,0.1-0.1,0.2-0.3,0.9
				c-0.9,3-3,8.4-4.8,8.4c-0.5,0-0.7-0.3-0.7-0.7c0-0.5,0.2-0.6,1.5-2.1c0.6-0.7,1.5-1.7,2.7-5c0.1-0.2,0.3-0.9,0.3-1
				c0-0.1,0-0.2-0.2-0.2c-0.5,0-2.5,0.9-3,0.9C19.2,282.2,18.2,280.9,18.2,280.4z M33.5,285c-0.2,0-1.3-0.6-1.5-0.7
				c-0.2,0-0.7-0.1-0.7-0.2c0-0.1,0.7-0.5,0.9-0.6c0.8-0.6,0.9-0.7,0.9-1.3c0-0.4-0.2-1.8-1.8-2.5c-0.2-0.1-0.5-0.2-0.5-0.3
				c0-0.1,0.1-0.1,0.2-0.1c2.8,0,3.8,2.8,3.9,3.9C34.8,283.5,34.4,285,33.5,285z M34.5,277.7c0,0.4-0.3,0.9-0.6,0.9
				c-0.3,0-0.5-0.1-1.2-0.9c-0.4-0.5-0.7-0.7-1.6-1.3c-0.1-0.1-0.3-0.2-0.3-0.3c0-0.1,0.2-0.2,0.4-0.2
				C34,275.8,34.5,277.4,34.5,277.7z M36.3,275.8c0,0.3-0.2,0.6-0.6,0.6c-0.5,0-0.7-0.3-1.2-0.8c-0.4-0.4-1.2-0.9-2-1.2
				c-0.2-0.1-0.3-0.2-0.3-0.2c0-0.2,0.5-0.3,0.8-0.3C35.8,274,36.3,275.4,36.3,275.8z"/>
			<path class="st2" d="M22.3,312.8c-0.3,0-0.5,0.1-0.5,0.4c-0.1,0.4-0.5,0.6-1,0.6c-0.5,0-0.6-0.3-0.6-0.6c0-0.1,0.1-2.2,0.1-2.6
				c0-0.6,0-1.2-0.1-1.4c0-0.1-0.1-0.3-0.1-0.4c0-0.1,0-0.1,0.1-0.1c0.2,0,0.9,0.4,1.1,0.5c0.2,0.1,0.6,0.2,1,0.2h7.9
				c0.2,0,0.5,0,0.7-0.2c0.1,0,0.4-0.4,0.5-0.4s1.6,0.5,1.6,0.9c0,0.1-0.2,0.2-0.4,0.4c-0.2,0.2-0.3,0.4-0.3,0.6
				c0,0.2,0.1,1.7,0.1,1.9c0,0.7-0.5,1-1,1c-0.4,0-0.5-0.1-0.6-0.5c-0.1-0.2-0.2-0.3-0.5-0.3h-0.7c-0.2,0-0.2,0-0.2,0.1
				c0,0.1,0.7,0.5,0.7,0.7c0,0.1-0.5,0.4-0.5,0.5c-0.4,0.4-1.5,1.8-1.5,2c0,0.1,0.2,0.1,0.3,0.1h3.7c0.5,0,1,0,1.1-0.1
				c0.2-0.1,1-1.3,1.3-1.3c0.2,0,1.7,1.3,1.7,1.6c0,0.3-0.1,0.3-1,0.3h-15c-0.6,0-1.7,0-2.6,0c-0.1,0-0.6,0.1-0.7,0.1
				c-0.1,0-0.1-0.1-0.2-0.2l-0.4-0.5c-0.1-0.1-0.1-0.1-0.1-0.1c0,0,0-0.1,0.1-0.1c0.2,0,0.8,0.1,1,0.1c0.6,0,1.8,0.1,3,0.1h6.8
				c0.3,0,0.4-0.1,0.5-0.3c0.2-0.7,0.5-2.1,0.5-2.7c0-0.3-0.3-0.4-0.5-0.4H22.3z M31.7,307.4c0.7,0,0.9,0,1.1-0.1
				c0.2-0.1,1-1.2,1.2-1.2c0.1,0,1.7,1.3,1.7,1.6c0,0.3-0.2,0.3-0.8,0.3H21.2c-0.5,0-2,0-2.8,0.1c-0.1,0-0.4,0-0.5,0s-0.1,0-0.2-0.1
				l-0.4-0.5c-0.1-0.1-0.1-0.1-0.1-0.2c0,0,0,0,0.1,0c0.2,0,0.8,0.1,1,0.1c1,0,2,0.1,3,0.1H31.7z M21.3,305.8
				c-0.3,0-0.4,0.1-0.4,0.2c-0.1,0.6-0.6,0.8-1.1,0.8c-0.6,0-0.6-0.4-0.6-0.5c0-0.2,0.3-4,0.3-4.7c0-0.6-0.1-1.5-0.2-2
				c0-0.1-0.1-0.4-0.1-0.5c0-0.2,0.1-0.2,0.2-0.2c0.2,0,1,0.5,1.3,0.6c0.5,0.3,0.7,0.3,1,0.3h1.8c0.2,0,0.4-0.1,0.4-0.3
				c0,0,0-0.4-0.1-0.9c0-0.1-0.2-0.5-0.2-0.6c0-0.1,0.1-0.1,0.2-0.1s2.1,0.3,2.1,0.6c0,0.1-0.4,0.4-0.4,0.5
				c-0.1,0.2-0.1,0.4-0.1,0.5c0,0.1,0.1,0.3,0.3,0.3h2.1c0.3,0,0.4-0.2,0.4-0.3c0-0.2-0.1-0.8-0.2-1c0-0.1-0.2-0.4-0.2-0.4
				c0-0.1,0.1-0.1,0.2-0.1c0.1,0,0.9,0.2,1.1,0.2c0.9,0.2,1,0.2,1,0.4c0,0.1-0.4,0.4-0.4,0.5c0,0.2-0.1,0.4-0.1,0.5
				c0,0.1,0.1,0.2,0.3,0.2h1.8c0.3,0,0.5-0.1,0.7-0.3c0.3-0.3,0.4-0.4,0.6-0.4c0.1,0,0.5,0.2,0.6,0.3c0.8,0.5,0.9,0.5,0.9,0.7
				c0,0.1,0,0.2-0.3,0.4c-0.3,0.2-0.3,0.3-0.3,1.6c0,0.4,0,0.9,0,1.6c0,0.2,0.1,1.4,0.1,1.7c0,1.2-1.1,1.3-1.2,1.3
				c-0.3,0-0.3-0.1-0.5-0.5c-0.1-0.2-0.2-0.3-0.5-0.3H21.3z M21.4,302.9c-0.6,0-0.7,0.3-0.7,0.6c0,1.5,0,1.6,0.7,1.6h1.7
				c0.7,0,0.7-0.3,0.7-1.1c0-0.9,0-1.2-0.7-1.2H21.4z M21.6,300.4c-0.5,0-0.7,0-0.7,1.4c0,0.6,0.4,0.6,0.7,0.6h1.6
				c0.5,0,0.6-0.2,0.7-0.4c0-0.2,0-0.9,0-1.1c0-0.5-0.5-0.5-0.7-0.5H21.6z M22.4,310c-0.5,0-0.7,0.2-0.7,0.6c0,1.4,0,1.6,0.7,1.6h8
				c0.7,0,0.7-0.2,0.7-1.5c0-0.3,0-0.7-0.7-0.7H22.4z M24.2,316c-0.8,0-0.9-0.9-1.1-2.2c0-0.3-0.1-0.5-0.2-0.7c0,0,0-0.1,0-0.1
				c0,0,0-0.1,0.1-0.1c0.1,0,1.9,1,1.9,2.3C24.9,315.7,24.5,316,24.2,316z M25.8,302.9c-0.7,0-0.7,0.2-0.7,1.8c0,0.1,0,0.5,0.6,0.5
				h1.6c0.2,0,0.5,0,0.6-0.4c0-0.1,0-1.2,0-1.4c0-0.4-0.3-0.5-0.7-0.5H25.8z M25.8,300.4c-0.7,0-0.7,0.2-0.7,1.4
				c0,0.3,0.1,0.6,0.7,0.6h1.4c0.7,0,0.7-0.3,0.7-0.8c0-1,0-1.2-0.7-1.2H25.8z M30,302.9c-0.7,0-0.7,0.2-0.7,1.7
				c0,0.3,0.1,0.6,0.7,0.6h1.4c0.6,0,0.7-0.2,0.7-1.7c0-0.2,0-0.6-0.7-0.6H30z M30,300.4c-0.7,0-0.7,0.3-0.7,1.4
				c0,0.5,0.3,0.6,0.7,0.6h1.5c0.7,0,0.7-0.3,0.7-1.1c0-0.6,0-0.9-0.7-0.9H30z"/>
			<path class="st2" d="M33,325.5c0.4,0,0.5,0,0.7-0.2c0.1-0.2,0.3-0.4,0.4-0.4c0.2,0,1.1,0.6,1.3,0.7c0.4,0.3,1,0.7,1,1
				c0,0.6-0.7,0.6-1.2,0.6c-0.5,0-0.9,0.1-1.7,0.5c-0.1,0-0.5,0.3-0.5,0.3c0,0-0.1,0-0.1-0.1c0,0,0.1-0.2,0.1-0.2
				c0.3-0.9,0.4-1,0.4-1.3c0-0.3-0.3-0.3-0.4-0.3H20.3c-0.6,0-0.6,0-0.8,0.8c-0.1,0.5-0.4,2-1.9,2c-0.9,0-0.9-0.7-0.9-0.7
				c0-0.3,0.1-0.4,0.9-1.3c0.2-0.2,1-1.3,1.1-2.5c0-0.4,0-0.4,0.1-0.4c0.1,0,0.5,0.7,0.5,0.9c0.2,0.6,0.3,0.6,0.9,0.6h4.6
				c0.7,0,0.7-0.3,0.7-0.6c0-0.4-0.1-0.9-0.2-1.3c0-0.1-0.1-0.3-0.1-0.4c0-0.1,0.1-0.2,0.3-0.2c0,0,1.8,0.2,1.9,0.2
				c0.1,0,0.4,0.1,0.4,0.3c0,0.1-0.1,0.2-0.2,0.4c-0.2,0.2-0.3,0.4-0.3,0.9c0,0.7,0.3,0.7,0.7,0.7H33z M32.1,335.4
				c0.3,0,0.5,0,0.7-0.2c0,0,0.5-0.5,0.6-0.5c0.2,0,1.5,1.1,1.5,1.3c0,0.1-0.5,0.5-0.6,0.6c-0.1,0.2-0.1,2.6-0.1,2.9
				c0,0.3,0.1,2.1,0.1,2.3c0,0.7-0.5,1.1-1.1,1.1c-0.5,0-0.6-0.3-0.7-0.7c-0.2-0.5-0.4-0.5-0.8-0.5H21.1c-0.2,0-0.4,0-0.7,0.4
				c-0.2,0.3-0.4,0.7-1.1,0.7c-0.5,0-0.7-0.3-0.7-0.8c0-0.2,0.1-1.1,0.1-1.3c0-0.7,0.1-3.6,0.1-4.6c0-0.2-0.2-1.3-0.2-1.5
				c0-0.1,0.1-0.3,0.3-0.3c0.2,0,0.8,0.4,1,0.6c0.5,0.4,0.7,0.4,1,0.4H32.1z M29.4,328c0.3,0,0.4,0,0.5-0.1c0.2-0.1,0.7-1,0.9-1
				c0.1,0,0.2,0,2,1.1c0.1,0,0.2,0.1,0.2,0.3c0,0.2-0.1,0.2-1.2,0.2h-8c-1.9,0-2.6,0-2.8,0c-0.1,0-0.4,0.1-0.5,0.1
				c-0.1,0-0.1-0.1-0.2-0.2l-0.4-0.5c-0.1-0.1-0.1-0.1-0.1-0.1c0,0,0-0.1,0.1-0.1c0.2,0,0.8,0.1,1,0.1c1.1,0,2,0.1,3,0.1H29.4z
				 M25.1,338.1c0.7,0,0.7-0.3,0.7-1.3c0-0.5,0-0.9-0.7-0.9H21c-0.6,0-0.6,0.3-0.6,1.2c0,0.6,0,1,0.6,1H25.1z M25.2,341.1
				c0.4,0,0.5-0.3,0.5-0.6s0-1.4,0-1.5c0-0.1-0.1-0.3-0.5-0.3h-4.3c-0.4,0-0.6,0.3-0.6,0.6c0,0.2,0,1.4,0,1.5c0,0.1,0.1,0.3,0.5,0.3
				H25.2z M29.5,330.1c0.3,0,0.5,0,0.7-0.3c0.2-0.3,0.3-0.4,0.5-0.4c0.2,0,1.7,0.8,1.7,1.2c0,0.1-0.1,0.2-0.2,0.3
				c-0.2,0.2-0.3,0.3-0.4,0.4c0,0.1,0,1.8,0,1.8c0,0.5,0,1.4-0.9,1.4c-0.4,0-0.5-0.2-0.7-0.4c-0.2-0.3-0.5-0.3-0.8-0.3h-5.9
				c-0.3,0-0.4,0-0.7,0.4c-0.3,0.4-0.7,0.5-1,0.5c-0.6,0-0.6-0.4-0.6-0.6c0-0.2,0-0.3,0-0.7c0.1-0.9,0.1-1.9,0.1-2.3
				c0-0.4,0-0.7,0-1.1c0-0.1-0.1-0.5-0.1-0.6c0-0.1,0-0.2,0.2-0.2c0.2,0,0.3,0.1,1.3,0.7c0.3,0.2,0.4,0.2,0.7,0.2H29.5z M23.5,330.7
				c-0.7,0-0.7,0.2-0.7,1.8c0,0.7,0.4,0.7,0.7,0.7h6c0.7,0,0.7-0.2,0.7-1.8c0-0.7-0.4-0.7-0.7-0.7H23.5z M32.1,338.1
				c0.3,0,0.7,0,0.7-0.8c0-1.1,0-1.4-0.7-1.4h-4.2c-0.4,0-0.6,0.1-0.6,0.8c0,1,0,1.3,0.6,1.3H32.1z M27.8,338.7
				c-0.6,0-0.6,0.3-0.6,0.9c0,1.2,0,1.3,0.1,1.4c0.2,0.2,0.3,0.2,0.5,0.2h4.3c0.4,0,0.5-0.2,0.5-0.2c0.1-0.1,0.1-1.5,0.1-1.7
				c0-0.4-0.3-0.5-0.6-0.5H27.8z"/>
		</g>
	</g>
</g>
</svg>
