<?xml version="1.0" encoding="utf-8"?>
<!-- Generator: Adobe Illustrator 25.2.3, SVG Export Plug-In . SVG Version: 6.00 Build 0)  -->
<svg version="1.1" id="レイヤー_1" xmlns="http://www.w3.org/2000/svg" xmlns:xlink="http://www.w3.org/1999/xlink" x="0px"
	 y="0px" viewBox="0 0 226.1 433.9" style="enable-background:new 0 0 226.1 433.9;" xml:space="preserve">
<style type="text/css">
	.st0{fill:#200701;}
	.st1{fill:none;stroke:#76544B;stroke-miterlimit:10;}
</style>
<g>
	<path class="st0" d="M181.4,112.3c3-0.9,5-2,6.6-3.9c1.7-1.9,2.5-4.2,2.5-6.7c0-2.7-1.1-4.9-3.2-6.2c-1.2-0.8-3.1-1.3-4.8-1.3
		c-0.3,0-0.5,0-1,0.1c0.7,1,0.9,1.5,0.9,2.3c0,2.2-1.6,6.3-3.7,9.7c-1.8,2.8-3.1,4.2-4.2,4.2c-0.5,0-0.9-0.2-1.2-0.6
		c-0.3-0.3-0.3-0.4-0.8-1.8c-0.3-0.7-0.4-1.1-1.2-2.6c-0.4-0.9-0.6-1.7-0.6-2.5c0-1.8,1-3.8,2.5-5.5c2.3-2.4,6-3.9,9.6-3.9
		c2.8,0,5.4,0.9,7.2,2.6c1.8,1.7,2.7,3.9,2.7,6.6c0,3.5-2,6.6-5.6,8.5c-1.6,0.9-3.1,1.3-5.5,1.7L181.4,112.3z M172.2,103.6
		c0,1.3,0.4,2.7,1.1,3.7c0.4,0.5,0.8,0.8,1.1,0.8c0.6,0,2-1.5,3.3-3.7c2.1-3.3,3.6-6.9,3.6-8.7c0-0.4-0.1-0.7-0.4-1.4
		C176,95.2,172.2,99.3,172.2,103.6z"/>
	<path class="st0" d="M193.5,139.7c-0.6,2.5-1.5,4.5-2.7,6.2c-1.5,2.1-3.7,3.3-5.6,3.3c-0.9,0-1.8-0.3-2.4-0.8
		c-0.8-0.6-1-1.5-1.2-3.8c-0.2-1.8-0.3-2.5-0.5-3c-0.3-0.9-1-1.3-1.9-1.3c-2.4,0-4.9,2.8-6.5,7.3c-0.5,1.4-0.6,1.6-1,1.6
		c-0.3,0-0.6-0.3-0.8-0.8c-0.2-0.5-0.4-1.2-0.4-1.5s0.1-0.5,0.4-1c1.1-1.6,2.9-4.8,5.6-10c1.8-3.4,2.6-5.5,2.6-6.3
		c0-0.9-0.4-1.4-1.9-2.1c0.3-0.2,0.5-0.3,0.8-0.3c0.6,0,1.8,0.5,2.9,1.3c0.7,0.5,1,0.8,1,1.2c0,0.4-0.1,0.5-0.5,1.1
		c-0.4,0.5-1.3,2-2.5,4c-0.4,0.7-1.1,1.9-2.1,3.5c-1.1,1.9-1.4,2.4-2.3,3.9h0.1c1.8-1.9,3.4-2.7,4.8-2.7c1.4,0,2.5,0.7,3.2,1.9
		c0.4,0.8,0.5,1.2,0.9,3.8c0.3,1.5,0.8,2.2,1.9,2.2c2.8,0,6-3.2,7.8-7.7L193.5,139.7z"/>
	<path class="st0" d="M171,166.1c0.9,1,1.3,1.3,2.4,1.3c1.7,0,3.8-0.7,5.3-1.8c0.1-0.1,0.3-0.1,0.4-0.1c0.6,0,1.6,0.8,1.6,1.3
		c0,0.3-0.1,0.3-0.9,0.8c-1.1,0.6-2.5,1.7-3.6,3.1c-2,2.5-3.1,5.3-3.1,8c0,3.8,2.1,6.1,5.4,6.1c2.5,0,4.8-1.4,6.1-3.8
		c0.9-1.8,1.4-4.1,1.4-7.1c0-2.9-0.3-5.3-0.9-7.6c-0.1-0.3-0.1-0.6-0.1-0.7c0-0.3,0.2-0.5,0.5-0.5h0c0.4,0,1,0.3,1.3,0.7
		c0.3,0.3,0.4,0.4,0.4,1c0.3,2.9,2.8,8.3,4.5,9.8c0.5,0.5,0.8,1.4,0.8,2.3c0,0.6-0.3,1.1-0.6,1.1c-0.6,0-1.4-1-2.5-3.2
		c-1.1-2.4-1.9-4.4-3-8h-0.1c0.6,4,0.6,5,0.6,7c0,3.7-0.8,6.4-2.5,8.3c-1.3,1.5-3.4,2.4-5.5,2.4c-4.2,0-6.9-3.1-6.9-7.9
		c0-1.8,0.4-3.8,1.1-5.5c0.7-1.7,1.4-2.9,2.9-4.8c-1,0.2-1.6,0.3-2.2,0.3c-1.6,0-2.5-0.7-3.3-2.2L171,166.1z M188.3,163.4
		c1,0.6,1.8,1.1,2.5,1.7c1,0.9,1.4,1.6,1.4,2.2s-0.4,1.2-0.9,1.2c-0.4,0-0.4,0-1.3-1.8c-0.5-1-1.4-2.2-2.1-3L188.3,163.4z
		 M191.2,161.7c1,0.4,1.8,1,2.7,1.6c1.1,0.8,1.5,1.4,1.5,2.2c0,0.7-0.3,1.1-0.7,1.1c-0.3,0-0.4-0.1-0.6-0.5c-1-1.8-1.5-2.5-3.1-4
		L191.2,161.7z"/>
	<path class="st0" d="M178.6,223.9c2-1.2,3.2-2.3,4.5-3.9c2-2.6,2.9-5.8,2.9-9.4c0-2.4-0.4-4.7-1-5.8c-0.5-0.8-1.2-1.2-2-1.2
		c-1.4,0-2.7,1.2-3.7,3.5c-0.8,1.8-1.3,4.1-1.3,6c0,0.5,0,0.8,0.1,1.7c0,0.2,0,0.4,0,0.6c0,0.5-0.3,0.8-0.7,0.8
		c-1.1,0-1.8-2.3-1.8-5.7c0-2.3,0.2-3.8,0.9-7.5c0.2-1.1,0.3-1.7,0.3-2c0-0.9-0.4-1.4-1.5-2c0.2-0.1,0.4-0.1,0.5-0.1
		c0.6,0,1.5,0.4,2.2,0.9c0.8,0.6,1.1,1,1.1,1.6c0,0.4-0.1,0.5-0.4,1.1c-1.1,1.8-2,5.7-2,8.3c0,0.3,0,0.5,0,1h0.1
		c0.8-3.6,1.9-5.9,3.2-7.3c1-1.1,2.2-1.7,3.4-1.7c2.7,0,4.6,3.3,4.6,8c0,3.6-1,6.7-3.1,9.2c-1.7,2-3.5,3.4-6.2,4.4L178.6,223.9z"/>
	<path class="st0" d="M178.5,259.9c2.2-1.7,3-2.7,4.1-5c-1.3-0.4-2.3-1.1-3.2-2.2c-1.2-1.5-1.9-3.7-1.9-6.3c0-0.2,0-0.5,0-1
		c-2.2,2.5-3.7,5.5-3.7,7.8c0,0.2,0,0.4,0,0.5c0,0.2,0,0.4,0,0.4c0,0.4-0.3,0.8-0.7,0.8c-1,0-1.7-2.4-1.7-5.7c0-1.4,0.1-2.7,0.3-4.7
		c0.1-1.3,0.2-1.7,0.2-2.2c0-0.9-0.4-1.8-1.1-2.5c0.6,0,0.9,0.2,1.6,0.7c0.9,0.8,1.5,1.7,1.5,2.3c0,0.3,0,0.4-0.3,1
		c-0.6,1.3-1.1,3.6-1.1,5.5c0,0.5,0,0.8,0.1,1.5c1.7-3.3,2.6-4.6,4.7-6.7c0.4-2.9,0.9-4.5,2-5.8c0.6-0.8,1.5-1.2,2.4-1.2
		c0.8,0,1.7,0.4,2.2,1c0.6,0.7,1,1.2,1.4,2.5c0.2,0,0.3,0,0.4,0c1.6,0,3.1,0.5,4.4,1.4c1.8,1.2,2.8,3.2,2.8,5.5c0,4.3-3.5,7.7-8,7.7
		c-0.2,0-0.4,0-0.9,0c-1.7,2.6-3.1,3.9-5.4,5L178.5,259.9z M178.3,244.4c0,0.7-0.1,1.1-0.1,1.4c0,2.6,0.8,4.9,2.2,6.2
		c0.8,0.8,1.6,1.2,2.7,1.5c0.8-2.4,1.1-5.2,1.1-8.4c0-1.6-0.1-2.5-0.3-3.6C181.6,242,180,242.8,178.3,244.4z M183.9,240.8
		c-0.5-2.1-1.2-3-2.3-3c-1.6,0-2.7,2-3.2,5.6C180.2,242,181.8,241.2,183.9,240.8z M186.2,246c0,3-0.4,5.4-1.4,7.7
		c3.7,0,6.3-2.8,6.3-6.6c0-2.2-0.8-4-2.4-5c-0.9-0.6-1.7-0.8-3.1-0.9C186.1,243.2,186.2,244.4,186.2,246z"/>
	<path class="st0" d="M181.9,290.4c3.5-0.7,5.8-1.7,7.8-3.4c1.5-1.3,2.4-2.9,2.4-4.5c0-2.4-1.7-4.1-4.2-4.1c-2.7,0-6.3,1.5-9.3,3.8
		c-0.5,0.4-0.8,0.5-1.1,0.5c-1,0-2.7-2-2.7-3.3c0-0.2,0.1-0.3,0.2-0.6c0.4,1,1.1,1.5,1.7,1.5c0.4,0,1-0.2,2.5-0.8
		c2.5-1,4.8-1.7,6.4-2c0.7-0.1,1.3-0.2,2.2-0.2c3.7,0,6.2,2.2,6.2,5.4c0,2-1.2,4-3,5.3c-2.2,1.5-4.7,2.3-8.9,2.8L181.9,290.4z"/>
	<path class="st0" d="M170.6,314.8c1.1,1.2,1.9,1.5,3.1,1.5c1.1,0,2.3-0.2,3.6-0.5c0.6-1.8,1-3.8,1-4.7c0-0.9-0.4-1.2-2-1.8
		c0.4-0.2,0.5-0.3,0.9-0.3c0.6,0,1.6,0.2,2.4,0.5c0.8,0.3,1.3,0.7,1.3,1.1c0,0.2,0,0.2-0.3,0.7c-0.4,0.5-1,2-1.7,4
		c1.6-0.6,2.6-1.1,3.2-1.7c0.4-0.4,0.6-0.5,0.8-0.5c0.4,0,1,0.1,1.5,0.3c0.3,0.1,0.4,0.3,0.4,0.5c0,0.5-0.4,0.8-1.6,1.4
		c-1.3,0.6-3.1,1.2-4.9,1.6c-0.3,1-0.3,1-1.2,3.6c-0.6,1.7-0.6,1.7-2.1,6.2c-1.1,3.3-1.5,4-2.1,4c-0.3,0-0.5-0.2-0.6-0.6
		c-0.2-0.4-0.4-1.1-0.4-1.6c0-0.4,0-0.5,0.6-1.4c1.4-2,2.5-4.5,4.4-10c-1.1,0.2-1.9,0.3-2.7,0.3c-1.7,0-2.8-0.7-3.8-2.5L170.6,314.8
		z M181.8,324.5c0,0.4,0,0.8,0,0.9c0,1.6,0.8,2.8,2.1,3.4c0.8,0.3,1.9,0.5,3,0.5c1.1,0,1.8-0.1,2.7-0.4c0.2-0.1,0.4-0.1,0.5-0.1
		c0.3,0,1,0.3,1.4,0.7c0.3,0.3,0.5,0.5,0.5,0.8c0,0.6-1.1,0.9-3.3,0.9c-2.2,0-3.9-0.3-5.2-0.9c-1.5-0.7-2.4-2.2-2.4-4.1
		c0-0.6,0.1-1.1,0.3-1.8L181.8,324.5z M182.5,319.3c2-1.2,4.3-1.9,6.5-1.9c0.6,0,1.3,0.2,1.8,0.5c0.3,0.2,0.4,0.5,0.4,0.8
		c0,0.4-0.3,0.6-1.1,0.6c-1,0.1-1.4,0.1-2.2,0.6c-0.6,0.3-0.6,0.3-1.5,1c-0.5,0.3-0.5,0.3-1,0.6l-0.2-0.3c0.3-0.3,0.3-0.3,1.3-1.3
		c0.3-0.2,0.5-0.4,1.4-1.3c-1.8,0-3.3,0.3-5.3,1L182.5,319.3z"/>
	<path class="st0" d="M178.6,369.5c2-1.2,3.2-2.3,4.5-3.9c2-2.6,2.9-5.8,2.9-9.4c0-2.4-0.4-4.7-1-5.8c-0.5-0.8-1.2-1.2-2-1.2
		c-1.4,0-2.7,1.2-3.7,3.5c-0.8,1.8-1.3,4.1-1.3,6c0,0.5,0,0.8,0.1,1.7c0,0.2,0,0.4,0,0.6c0,0.5-0.3,0.8-0.7,0.8
		c-1.1,0-1.8-2.3-1.8-5.7c0-2.3,0.2-3.8,0.9-7.5c0.2-1.1,0.3-1.7,0.3-2c0-0.9-0.4-1.4-1.5-2c0.2-0.1,0.4-0.1,0.5-0.1
		c0.6,0,1.5,0.4,2.2,0.9c0.8,0.6,1.1,1,1.1,1.6c0,0.4-0.1,0.5-0.4,1.1c-1.1,1.8-2,5.7-2,8.3c0,0.3,0,0.5,0,1h0.1
		c0.8-3.6,1.9-5.9,3.2-7.3c1-1.1,2.2-1.7,3.4-1.7c2.7,0,4.6,3.3,4.6,8c0,3.6-1,6.7-3.1,9.2c-1.7,2-3.5,3.4-6.2,4.4L178.6,369.5z"/>
	<path class="st0" d="M104.9,205.3c3.3,1.3,4.3,2,4.3,3.1c0,0.9-0.4,1.7-0.9,1.7c-0.3,0-0.4-0.2-0.6-0.6c-0.7-1.4-1.5-2.5-2.9-3.9
		L104.9,205.3z M105.1,215.5c0.7,0.1,1.4,0.3,1.6,0.3c0.4,0,0.6-0.2,1.8-2.7c0.9-1.9,1.3-2.9,2.6-5.9c1-2.3,1-2.3,1.4-3.2l0.4,0.2
		l-4,11.9c-0.3,0.9-0.4,1-0.4,1.2c0,0.5,0.1,1,0.6,2.4c0.2,0.6,0.3,1.1,0.3,1.6c0,0.7-0.2,1.3-0.5,1.7c-0.4,0.4-0.9,0.7-1.5,0.7
		c-0.4,0-0.6-0.2-0.6-0.6c0-0.4,0-0.4,0.2-1.7c0.1-0.9,0.2-1.9,0.2-2.7c0-0.9-0.1-1.4-0.5-1.8c-0.3-0.3-0.6-0.5-1.7-1L105.1,215.5z
		 M106.7,199.2c1.7,0.6,2.7,1.1,3.6,1.8c0.6,0.5,0.8,0.8,0.8,1.3c0,0.8-0.4,1.7-0.8,1.7c-0.3,0-0.4-0.1-0.8-0.9
		c-0.8-1.5-1.4-2.2-2.9-3.8L106.7,199.2z M125.6,214.4c-1.4,2.3-2,3.1-3.2,4.4c-1.1,1.1-2.9,2.5-4.5,3.5c-0.9,0.5-1.6,0.8-3.2,1.4
		l-0.2-0.3c2.9-1.8,4.4-2.9,6.3-4.9c1.3-1.4,1.9-2.2,3-4h-2.7c-1.3,1.7-1.8,2.2-2.7,3.1c-2.2,2-3.7,3.1-6.7,4.4l-0.2-0.3
		c3.1-2,4.6-3.3,6.2-5.2c0.5-0.6,0.7-0.9,1.4-2h-2.7c-1.9,2.2-3.4,3.3-6.2,4.7l-0.2-0.4c2.4-1.8,3.8-3.1,5.3-5.4
		c0.5-0.7,0.7-1.1,1.3-2.2h-3.4c-0.4,0-1,0.1-1.3,0.1l-0.2-1c0.7,0.2,1.1,0.3,1.5,0.3h13.8c0.7-0.8,0.9-1,1.5-1.7
		c1,0.8,1.3,1,2.3,1.9c0.1,0.1,0.1,0.2,0.1,0.3s-0.1,0.2-0.3,0.2h-12c-0.8,1.3-1,1.8-1.7,2.6H127c0.4-0.5,0.6-0.6,1-1.1
		c0.7,0.5,0.9,0.7,1.5,1.2c0.2,0.2,0.3,0.3,0.3,0.4c0,0.2-0.1,0.3-1,0.7c-0.4,3.6-0.9,5.9-1.5,7.2c-0.5,1.1-1.5,1.7-3.3,1.8
		c-0.2-0.9-0.3-1.1-0.8-1.4c-0.6-0.4-1.4-0.6-2.5-0.9l0.1-0.4c0.7,0.1,0.7,0.1,2.2,0.3c0.3,0.1,1.6,0.1,1.9,0.1c0.6,0,0.8-0.2,1.1-1
		c0.4-1.2,0.9-3.8,1-6.3H125.6z M116.5,209.1c0,0.4-0.2,0.4-1.2,0.4c-0.5,0-0.6-0.1-0.6-0.3c0,0,0-0.1,0-0.1
		c0.1-3.8,0.1-3.8,0.1-5.7c0-2.9,0-3.2-0.1-4.4c0.9,0.5,1.1,0.7,2,1.3h7.8c0.4-0.5,0.6-0.7,1.1-1.1c0.7,0.5,0.9,0.6,1.5,1.1
		c0.2,0.2,0.3,0.3,0.3,0.4c0,0.2-0.1,0.3-0.8,0.7c0,4.6,0,5.6,0.1,7.6c0,0.2-0.1,0.3-0.2,0.4s-0.8,0.2-1.2,0.2
		c-0.3,0-0.4-0.1-0.4-0.4v-0.8h-8.1V209.1z M124.6,200.9h-8.1v3.1h8.1V200.9z M116.5,204.6v3.1h8.1v-3.1H116.5z"/>
	<path class="st0" d="M104.8,241.9c3.6,1,4.3,1.5,4.3,3c0,0.8-0.3,1.4-0.7,1.4c-0.2,0-0.4-0.1-0.6-0.6c-0.7-1.2-1.7-2.4-3.1-3.6
		L104.8,241.9z M105.2,251.9c1,0.3,1.4,0.3,1.7,0.3c0.3,0,0.4-0.2,0.7-0.8c0-0.1,0.3-0.7,0.7-1.5c0.3-0.7,0.8-1.9,1.5-3.4
		c1.1-2.9,1.3-3.2,2.5-6.1l0.4,0.2l-3.5,11.3c-0.4,1.2-0.4,1.2-0.4,1.6c0,0.5,0.1,0.8,0.4,2.2c0.2,0.8,0.3,1.5,0.3,2
		c0,1.3-1,2.4-2.1,2.4c-0.4,0-0.6-0.3-0.6-0.7c0-0.4,0-0.4,0.4-2.4c0.1-0.5,0.2-1.4,0.2-2.2c0-1-0.2-1.6-0.6-1.9
		c-0.1-0.1-0.6-0.3-1.6-0.7L105.2,251.9z M106.6,235.8c3.7,1.2,4.8,1.9,4.8,3.1c0,0.8-0.4,1.7-0.9,1.7c-0.2,0-0.4-0.1-0.6-0.6
		c-0.3-0.5-0.6-1-1.3-1.7c-0.9-1.1-1.2-1.4-2.2-2.1L106.6,235.8z M116.7,260c0,0.3-0.2,0.4-1.4,0.4c-0.5,0-0.6-0.1-0.6-0.3
		c0,0,0-0.1,0-0.1c0.1-3.7,0.1-5.6,0.1-5.8c0-1.1-0.1-3.2-0.1-4.3c-1.5,1.3-2.2,1.8-3.9,2.8l-0.3-0.4c2.9-2.5,4.2-3.9,6-6.4
		c1.5-2.1,2.4-3.8,3.1-5.5c0.6,0.2,1.1,0.4,1.4,0.5c1.2,0.4,1.5,0.5,1.5,0.8s-0.2,0.3-0.9,0.4c1,1.8,1.9,2.9,3.6,4.2
		c1.6,1.3,3.1,2,5.6,3l0,0.3c-0.8,0.2-1.1,0.4-1.8,1.7c-2.2-1.4-3.5-2.4-4.9-4.2c-1.3-1.5-2-2.8-3.1-4.9c-1.9,3.3-3.1,4.9-5.9,7.3
		c0.6,0.3,0.8,0.4,1.7,0.8h7.6c0.3-0.4,0.4-0.5,0.8-0.9c0.7,0.5,0.9,0.6,1.5,1.1c0.3,0.2,0.3,0.3,0.3,0.4c0,0.1-0.1,0.2-0.5,0.4
		c0,3.6,0,4.7,0.1,8.4c0,0.4-0.3,0.5-1.3,0.5c-0.8,0-0.8,0-0.8-0.3v-1.5h-7.9V260z M112,244.1c1.5-1.9,2.3-3.2,3.3-5
		c0.9-1.7,1.2-2.4,1.5-3.6c2.4,0.9,3,1.2,3,1.5c0,0.3-0.3,0.4-1.4,0.4c-2.4,3.6-3.4,4.8-6.2,7.1L112,244.1z M116.7,257.9h7.9V251
		h-7.9V257.9z M122.6,235.9c2,1,3.4,1.9,4.8,2.9c1.4,1.1,1.8,1.6,1.8,2.5c0,1.1-0.4,2-0.9,2c-0.3,0-0.4-0.1-0.6-0.6
		c-0.5-0.9-1.3-2.3-1.9-3c-1-1.4-1.8-2.2-3.4-3.5L122.6,235.9z"/>
	<path class="st0" d="M116.3,295.8c2-1.7,3-2.6,4-4c1-1.4,1.7-2.7,2.5-4.8c-2.4-1.3-4.8-1.9-8-2c-1.7,3.1-2.4,4.3-3.4,5.5
		c-1,1.3-1.9,1.9-2.7,1.9c-1.2,0-2.2-1.3-2.2-3c0-1.4,0.7-2.9,1.9-3.9c1.2-1,3.1-1.7,5.3-1.8c0.4-0.7,0.4-0.9,2-4.4
		c0.9-2.1,1-2.4,1.5-3.9c-0.7,0.2-2.6,0.8-4,1.3c-0.4,0.1-0.7,0.2-0.9,0.2c-0.9,0-1.8-1.4-1.8-2.7c0-0.3,0.1-0.4,0.3-0.6
		c0.6,1.3,1.1,1.7,2.1,1.7c0.7,0,1.6-0.1,3-0.5c0.7-0.2,0.8-0.3,1.2-0.6c0.2-0.2,0.3-0.3,0.6-0.3c0.6,0,2,1.5,2,2.2
		c0,0.2-0.1,0.4-0.4,0.6c-0.6,0.5-0.9,0.9-2.8,4.8c-0.8,1.5-0.9,1.7-1.1,2.3c2.8,0.1,5.3,0.6,8,1.6c0.5-1.5,0.9-3.6,0.9-4.5
		c0-0.8-0.4-1.3-1.5-1.9c0.2-0.1,0.3-0.2,0.5-0.2c0.5,0,1.1,0.2,2,0.6c0.9,0.4,1.3,0.9,1.3,1.4c0,0.3,0,0.4-0.3,1
		c-0.1,0.2-0.3,0.8-0.7,2.1c-0.1,0.5-0.3,0.8-0.6,2.1c3.4,1.7,4.3,2.5,4.3,4c0,0.6-0.3,1-0.6,1c-0.3,0-0.4-0.1-1-0.6
		c-0.9-0.9-1.8-1.6-3.3-2.6c-1.2,2.7-2.1,4-3.6,5.5c-1.3,1.2-2.4,2-4.2,2.9L116.3,295.8z M107.7,288.8c0,1,0.6,2,1.2,2
		c0.9,0,2.1-1.6,4.3-5.9C109.6,285.3,107.7,286.7,107.7,288.8z"/>
	<path class="st0" d="M117.4,330.7c3-0.9,5-2,6.6-3.9c1.7-1.9,2.5-4.2,2.5-6.7c0-2.7-1.1-4.9-3.2-6.2c-1.2-0.8-3.1-1.3-4.8-1.3
		c-0.3,0-0.5,0-1,0.1c0.7,1,0.9,1.5,0.9,2.3c0,2.2-1.6,6.3-3.7,9.7c-1.8,2.8-3.1,4.2-4.2,4.2c-0.5,0-0.9-0.2-1.2-0.6
		c-0.3-0.3-0.3-0.4-0.8-1.8c-0.3-0.7-0.4-1.1-1.2-2.6c-0.4-0.9-0.6-1.7-0.6-2.5c0-1.8,1-3.8,2.5-5.5c2.3-2.4,6-3.9,9.6-3.9
		c2.8,0,5.4,0.9,7.2,2.6s2.7,3.9,2.7,6.6c0,3.5-2,6.6-5.6,8.5c-1.6,0.9-3.1,1.3-5.5,1.7L117.4,330.7z M108.2,322
		c0,1.3,0.4,2.7,1.1,3.7c0.4,0.5,0.8,0.8,1.1,0.8c0.6,0,2-1.5,3.3-3.7c2.1-3.3,3.6-6.9,3.6-8.7c0-0.4-0.1-0.7-0.4-1.4
		C112,313.6,108.2,317.7,108.2,322z"/>
	<path class="st0" d="M107.6,365.8c0,0.3-0.2,0.4-0.9,0.4c-0.2,0-0.4,0-0.4,0c0,0-0.1,0-0.1,0c-0.3,0-0.4-0.1-0.4-0.4
		c0.1-3.6,0.1-7,0.1-13c0-3.2,0-4.5-0.1-7.2c0.9,0.5,1.1,0.7,2,1.3h3.5c0.4-0.5,0.6-0.7,1.1-1.2c0.6,0.5,0.8,0.7,1.5,1.2
		c0.2,0.2,0.3,0.3,0.3,0.4c0,0.2-0.3,0.4-1,0.8v5.3c0,2.7,0,6.4,0.1,11.2c0,0.2-0.1,0.3-0.2,0.3c-0.1,0.1-0.9,0.1-1.2,0.1
		c-0.2,0-0.3-0.1-0.4-0.3v-1.6h-3.8V365.8z M111.4,347.6h-3.8v6.9h3.8V347.6z M107.6,355.2v7.5h3.8v-7.5H107.6z M126.2,358h0.7
		c0.6-0.8,0.9-1,1.5-1.8c0.9,0.8,1.2,1.1,2,1.9c0.1,0.1,0.2,0.2,0.2,0.3c0,0.1-0.2,0.2-0.3,0.2h-4.1v4.4c0,0.3,0,2.7,0.1,3.6
		c-0.1,1.3-0.1,1.5-0.4,1.9c-0.4,0.5-1,0.8-2.7,1.1c-0.1-0.8-0.3-1.1-0.8-1.5c-0.4-0.3-1-0.4-2.9-0.7V367c2,0.1,2.7,0.2,4.5,0.2
		c0.3,0,0.4-0.1,0.4-0.4v-8.2h-7.4c-1.5,0-1.8,0-2.7,0.2l-0.3-1.1c1,0.2,1.6,0.3,3,0.3h7.4v-3.8h-7.9c-1.5,0-1.8,0-2.6,0.2l-0.2-1.1
		c0.9,0.2,1.2,0.2,2.8,0.2h3.6v-4.5h-3.5c-1.1,0-1.5,0.1-2.1,0.2l-0.2-1.1c0.8,0.2,1.4,0.3,2.3,0.3h3.5v-2.1c0-0.5,0-0.9-0.1-2.2
		c2.7,0.3,3.2,0.4,3.2,0.7c0,0.2-0.3,0.4-1.2,0.6v2.9h3.3l1.5-1.9c1,0.9,1.3,1.1,2.2,2.1c0.1,0.1,0.2,0.2,0.2,0.3
		c0,0.1-0.2,0.2-0.3,0.2h-6.9v4.5h4.6l1.5-1.8c1.1,0.9,1.4,1.2,2.5,2c0.1,0.1,0.2,0.2,0.2,0.2c0,0.1-0.1,0.2-0.3,0.2h-4.2V358z
		 M116.3,359.8c1.1,0.4,2.1,1,3.3,1.9c0.8,0.6,1.2,1.1,1.2,1.7c0,0.9-0.4,1.8-0.8,1.8c-0.2,0-0.4-0.2-0.6-0.7
		c-0.7-1.5-1.7-2.9-3.3-4.4L116.3,359.8z"/>
	<path class="st0" d="M108,389.5v10.7c0,3.7,0,3.7,0,5.6c0,0.2-0.1,0.3-0.3,0.3c-0.2,0.1-0.9,0.1-1.3,0.1c-0.3,0-0.3-0.1-0.4-0.3
		c0.1-2.4,0.1-6.8,0.1-13.9c0-7.3,0-9.8-0.1-11.4c0.8,0.5,1.1,0.7,2,1.3h5.7c0.5-0.6,0.7-0.7,1.1-1.3c0.7,0.6,0.9,0.7,1.5,1.3
		c0.2,0.2,0.3,0.3,0.3,0.4c0,0.2-0.2,0.4-0.8,0.7c0,1.3,0,2.1,0,3.1c0,1.5,0,2.4,0.1,4.1c0,0.2-0.1,0.3-0.2,0.4
		c-0.1,0.1-0.8,0.1-1.4,0.1c-0.2,0-0.3-0.1-0.3-0.3v-0.8H108z M113.9,382.6h-6v2.7h6V382.6z M113.9,386h-6v2.9h6V386z M113.9,403.4
		c0,0.2-0.1,0.2-0.3,0.3c-0.2,0.1-0.9,0.1-1.1,0.1c-0.3,0-0.3-0.1-0.4-0.3c0-2.3,0.1-3.6,0.1-4.8c0-3.3,0-5.9-0.1-7
		c0.9,0.5,1.2,0.7,2.1,1.2h6.6c0.5-0.5,0.7-0.6,1.2-1.1c0.6,0.5,0.8,0.6,1.4,1.2c0.3,0.2,0.3,0.3,0.3,0.4c0,0.2-0.1,0.3-0.9,0.7
		c0,1.5,0,2,0,3.1c0,1.9,0,3,0.1,5.2v0c0,0.3-0.1,0.3-0.3,0.4c-0.2,0.1-0.8,0.1-1.2,0.1c-0.3,0-0.4-0.1-0.4-0.3v-1h-7.1V403.4z
		 M121,393.6h-7.1v3.1h7.1V393.6z M113.9,397.4v3.6h7.1v-3.6H113.9z M121,389.5v0.7c-0.1,0.3-0.3,0.4-1,0.4c-0.7,0-0.8-0.1-0.8-0.4
		c0.1-1.8,0.1-2.6,0.1-4.2c0-4,0-4.3-0.1-5.3c0.9,0.5,1.2,0.7,2,1.2h5.9c0.5-0.6,0.7-0.7,1.1-1.3c0.8,0.6,1,0.7,1.7,1.3
		c0.2,0.2,0.3,0.3,0.3,0.4c0,0.2-0.1,0.3-0.9,0.8v13.5c0,4.7,0,4.7,0,7.3c-0.1,1.3-0.6,1.7-3,2.2c-0.3-0.7-0.5-1-1-1.3
		c-0.3-0.2-0.7-0.3-1.5-0.4c-1-0.2-1.5-0.3-1.6-0.3v-0.4c2.3,0.1,2.8,0.2,4.6,0.2c0.4,0,0.5-0.1,0.5-0.4v-14H121z M127.3,382.6H121
		v2.7h6.3V382.6z M127.3,386H121v2.9h6.3V386z"/>
</g>
<g>
	<g>
		<path class="st0" d="M33.7,98.7c0,0.4-0.1,0.6-0.1,0.8c0,2.1,1.4,3.2,4.2,3.2c1.4,0,2.9-0.3,4-0.7c0.1,0,0.2-0.1,0.3-0.1
			c0.3,0,0.7,0.1,1,0.4c0.3,0.2,0.4,0.4,0.4,0.6c0,0.3-0.2,0.5-0.6,0.6c-0.8,0.2-2.6,0.4-4.2,0.4c-2,0-3.3-0.3-4.2-0.9
			c-0.9-0.6-1.5-1.7-1.5-2.8c0-0.5,0.1-0.9,0.3-1.5L33.7,98.7z M34.2,91.6c0.9,0.6,1.5,0.8,2.8,0.8c1.2,0,2.7-0.2,3.7-0.5
			c0.1,0,0.3-0.1,0.3-0.1c0.5,0,1.1,0.5,1.1,0.9c0,0.3-0.1,0.4-1.3,0.6c-1,0.2-1.9,0.6-4.8,1.8l-0.1-0.3c0.5-0.3,0.8-0.5,1.3-0.8
			l1.2-0.6l0.3-0.2c-0.4,0-1,0.1-1.4,0.1c-0.7,0-1.5-0.2-2.1-0.5c-0.5-0.3-0.8-0.5-1.3-1L34.2,91.6z M42.5,90
			c0.7,0.4,1.2,0.7,1.6,1.1c0.6,0.6,0.9,1,0.9,1.4c0,0.4-0.3,0.8-0.6,0.8c-0.2,0-0.2,0-0.8-1.2c-0.3-0.6-0.9-1.4-1.4-1.9L42.5,90z
			 M44.3,89c0.6,0.3,1.2,0.6,1.7,1c0.7,0.5,0.9,0.9,0.9,1.4c0,0.4-0.2,0.7-0.5,0.7c-0.2,0-0.3-0.1-0.4-0.3c-0.6-1.1-1-1.6-2-2.6
			L44.3,89z"/>
		<path class="st0" d="M38.7,114.9c-0.8,0.7-1.2,1-1.7,1.4c1,0.8,1.3,1.1,1.7,1.8c0.9,1.3,1.3,2.6,1.3,4.6c0,1.5-0.2,2.2-0.7,2.8
			c-0.4,0.5-0.8,0.6-2,0.8c-0.1-0.9-0.4-1-2.6-1.5v-0.3c0.8,0.1,2.5,0.2,3.2,0.2c0.7,0,0.8,0,0.9-0.4c0.2-0.6,0.2-1.3,0.2-2.2
			c0-0.5,0-0.9-0.1-1.5c-1,0.9-1.4,1.2-2.4,1.8c-1.2,0.8-2.7,1.5-3.9,2.1c-0.6,0.3-1,0.4-2,0.6l-0.1-0.3c2.1-0.9,3.8-1.9,5.7-3.3
			c1-0.8,1.4-1.2,2.5-2.2c-0.2-0.5-0.2-0.8-0.5-1.1c-1.4,1-1.7,1.3-2.6,1.8c-0.9,0.5-1.9,1.1-2.9,1.5c-0.6,0.2-1,0.4-2,0.6l-0.1-0.2
			c1.9-0.9,3.1-1.5,4.7-2.7c0.9-0.6,1.4-1.1,2.3-1.9c-0.2-0.3-0.3-0.3-0.8-0.8c-0.7,0.5-1.2,0.8-1.9,1.2c-1.4,0.8-2.3,1.1-3.8,1.5
			l-0.1-0.2c1.9-0.8,3.1-1.5,4.5-2.5c0.7-0.5,1.1-0.8,1.8-1.5h-2.6c-0.6,0-0.9,0-1.5,0.1l-0.2-0.7c0.6,0.1,1.3,0.2,2,0.2h7.1
			c0.4-0.5,0.5-0.6,0.9-1.1c0.7,0.5,0.9,0.7,1.6,1.3c0.1,0.1,0.1,0.1,0.1,0.1c0,0.1-0.1,0.1-0.2,0.1H40c0.4,1.5,0.7,2.5,1.4,3.8
			c1.5-1.3,1.9-1.8,2.6-2.8c0.7,0.3,1.4,0.8,1.7,0.9c0.1,0.1,0.1,0.1,0.1,0.2c0,0.1-0.2,0.2-0.5,0.2c0,0,0,0-0.5,0
			c-1.4,0.9-1.8,1.2-3.1,1.8c0.6,1.1,1.3,2,2.2,2.9c1,0.9,2.2,1.7,3.1,2.1l-0.1,0.2c-0.2,0-0.3-0.1-0.5-0.1c-0.5,0-0.8,0.2-1.2,0.9
			c-1-0.7-1.6-1.4-2.5-2.6c-1.1-1.5-1.7-2.8-2.5-5.5c-0.3-0.8-0.3-1.1-0.5-2H38.7z M37.9,111.9V111c0-0.5,0-0.6,0-1.1
			c0.4,0.1,0.7,0.1,1,0.1c0.7,0,1.1,0.1,1.1,0.3c0,0.1-0.3,0.3-0.8,0.4v1.2h5.2c0.3-0.4,0.4-0.5,0.7-0.8c0.7,0.5,0.9,0.7,1.6,1.2
			c0.1,0.1,0.1,0.1,0.1,0.2c0,0,0,0.1-0.1,0.1c-0.1,0-0.2,0.1-0.4,0.1c-0.3,0-0.5,0.1-0.7,0.1c-0.6,0.5-0.8,0.6-1.5,1.2l-0.2-0.1
			c0.3-0.5,0.4-0.7,0.6-1.5H32.7c-0.1,1-0.3,1.6-0.7,2.2c-0.3,0.4-0.6,0.6-0.8,0.6c-0.3,0-0.6-0.6-0.6-1.1c0-0.1,0.1-0.2,0.3-0.5
			c0.5-0.4,0.7-0.7,1-1.3c0.3-0.5,0.3-0.7,0.5-1.5h0.3c0,0.3,0,0.7,0,0.8c0,0.2,0,0.2,0,0.4H37.9z"/>
		<path class="st0" d="M35.5,134.3c0.3-0.4,0.4-0.6,0.7-1c0.6,0.5,0.7,0.6,1.3,1.2c0,0.1,0.1,0.1,0.1,0.1c0,0.1-0.1,0.1-0.2,0.1
			h-3.7c-0.1,1.7-0.1,1.7-0.1,2.5h1.8c0.2-0.3,0.3-0.3,0.5-0.6c0.5,0.3,0.6,0.5,1,0.8c0.1,0.1,0.2,0.2,0.2,0.2
			c0,0.1-0.2,0.3-0.6,0.5c-0.1,3.6-0.6,6.6-1.1,7.5c-0.3,0.5-0.6,0.8-1.1,0.9c-0.2,0-0.3,0.1-0.7,0.1c0-0.4-0.1-0.6-0.3-0.8
			c-0.2-0.2-0.3-0.2-1.2-0.5v-0.2c0.9,0.1,1.7,0.2,2,0.2c0.4,0,0.4-0.1,0.7-1.4c0.3-1.5,0.5-3.9,0.6-6.3h-1.8
			c-0.1,1.8-0.3,2.8-0.5,4.1c-0.5,2.2-1.3,3.8-2.7,5.3l-0.2-0.2c0.8-1.2,1.2-2.2,1.7-4c0.5-2,0.8-4.9,0.8-8.1h-0.8
			c-0.3,0-0.5,0-1.1,0.1l-0.2-0.7c0.3,0.1,1.1,0.2,1.3,0.2h1.4v-2.2c0-0.4,0-0.7,0-1.3c1.7,0.2,2,0.2,2,0.4c0,0.1-0.3,0.3-0.8,0.4
			v2.6H35.5z M42.1,137.6c-0.1,1.9-0.1,1.9-0.2,3h2.4c0.4-0.5,0.5-0.7,0.9-1.2c0.6,0.6,0.8,0.7,1.5,1.3c0.1,0.1,0.1,0.1,0.1,0.2
			c0,0.1-0.1,0.1-0.1,0.1H42c0.4,0.8,0.7,1.3,1.3,2c1.1,1.2,2.3,1.9,4,2.4l0,0.2c-0.4,0-0.5,0.1-0.8,0.3c-0.3,0.3-0.4,0.4-0.5,0.8
			c-0.9-0.5-1.4-0.9-2-1.6c-1.1-1.2-1.7-2.4-2.2-3.9c-0.3,1.4-1,2.6-2.1,3.6c-1.2,1.1-2.4,1.7-4.3,2.2l-0.1-0.3
			c1.7-0.6,2.9-1.5,4-2.8c0.6-0.8,1-1.7,1.3-2.9h-2.4c-0.3,0-0.5,0-1.4,0.1l-0.1-0.6c0.4,0.1,1.1,0.1,1.5,0.1h2.5
			c0.2-1,0.2-1.6,0.3-3h-1.3c-0.8,1-1.4,1.6-2.2,2.3l-0.2-0.1c1.3-1.7,1.9-2.9,2.5-4.8c0.3,0.1,0.6,0.2,0.8,0.2c0.8,0.2,1,0.3,1,0.4
			s-0.3,0.2-0.8,0.3c-0.3,0.6-0.5,0.9-0.8,1.3h3.7c0.4-0.5,0.5-0.7,0.9-1.2l1.4,1.3c0,0.1,0.1,0.1,0.1,0.1c0,0.1-0.1,0.1-0.2,0.1
			H42.1z M43.8,133.9c0.5-0.6,0.6-0.8,1.1-1.3c0.7,0.6,0.9,0.7,1.6,1.4c0.1,0.1,0.1,0.1,0.1,0.1c0,0.1-0.1,0.2-0.2,0.2h-7.6
			c-1,1.5-1.3,2-2.1,2.7l-0.2-0.1c1.2-2.1,2-4.1,2.4-6.1c1.9,0.5,2.1,0.5,2.1,0.7c0,0.1-0.1,0.1-0.1,0.2c-0.1,0-0.3,0.1-0.8,0.2
			c-0.4,0.9-0.6,1.3-1,2H43.8z"/>
		<path class="st0" d="M38.7,152.2c1.9,0.9,2.6,1.6,2.6,2.6c0,0.4-0.2,0.7-0.5,0.7c-0.1,0-0.1,0-0.6-0.2c-0.5-0.2-1.2-0.3-2-0.4
			c-1.2-0.1-2.4-0.2-2.8-0.2s-0.7,0.2-0.7,0.5c0,0.3,0.4,1.2,1.2,2.8c1-0.5,2.1-1.1,3.2-1.5c1.3-0.5,2.4-0.7,3.5-0.7
			c2.2,0,3.7,1.2,3.7,2.8c0,0.7-0.4,1.5-0.9,2.1c-0.6,0.6-1.6,1-2.9,1c-1.5,0-3-0.5-4.1-1.4l0.1-0.3c0.9,0.5,2.1,0.8,3.2,0.8
			c1.2,0,2.2-0.3,2.7-1c0.4-0.4,0.6-1,0.6-1.5c0-1.2-0.9-1.9-2.6-1.9c-1,0-1.9,0.3-3.4,1c-0.8,0.4-1.7,0.9-2.7,1.5
			c0.9,1.7,1.4,3,2,4.5c0.7,1.8,0.9,2.4,0.9,3c0,0.8-0.3,1.4-0.8,1.4c-0.1,0-0.2-0.1-0.3-0.2c-0.1-0.1-0.2-0.3-0.2-0.8
			c-0.3-2.3-1.1-4.7-2.2-7.4c-1,0.7-1.6,1.1-1.9,1.3c-0.3,0.2-0.3,0.3-0.5,0.4c-0.2,0.2-0.4,0.3-0.6,0.3c-0.8,0-1.9-1.2-1.9-2
			c0-0.1,0-0.2,0.1-0.3c0.4,0.6,0.8,0.9,1.3,0.9c0.5,0,1.6-0.5,3.2-1.4c-0.5-1-0.9-1.8-1.2-2.2c-0.3-0.4-0.4-0.5-0.4-0.8
			c0-0.6,0.7-1.2,1.4-1.2c0.2,0,0.2,0,0.6,0.1c0.1,0,0.2,0,0.5,0.1c0.1,0,0.6,0,1.4,0c0.5,0,0.8,0,1.4,0c1,0,1.2,0,1.2-0.2
			c0-0.4-0.6-1.1-1.5-1.7L38.7,152.2z"/>
		<path class="st0" d="M31.6,187.5c2.7-2,4.7-4.9,6.1-8.8c-1.2,0.2-2.5,0.5-2.9,0.7c-0.3,0.1-0.3,0.1-0.5,0.1
			c-0.4,0-0.9-0.3-1.2-0.8c-0.2-0.3-0.4-0.8-0.4-1c0-0.1,0-0.2,0.1-0.3c0.4,0.7,0.8,0.9,1.5,0.9c0.5,0,1.8-0.2,3.6-0.5
			c0.4-1.4,0.6-2.4,0.6-3c0-0.6-0.3-1-1.2-1.3c0.2-0.1,0.3-0.1,0.5-0.1c0.6,0,1.3,0.3,1.9,0.6c0.4,0.3,0.5,0.4,0.5,0.7
			c0,0.1,0,0.2-0.2,0.5c-0.2,0.3-0.4,0.8-0.9,2.4c0.6-0.1,1.9-0.3,2.1-0.3c0.9-0.1,0.9-0.1,1.2-0.3c0.1-0.1,0.2-0.1,0.4-0.1
			c0.3,0,0.5,0.1,0.9,0.5c0.4,0.4,0.6,0.6,0.6,0.8c0,0.1,0,0.2-0.2,0.4c-0.2,0.3-0.2,0.3-0.6,2.5c-0.7,3.4-1.1,4.6-1.9,5.3
			c-0.4,0.4-1,0.6-1.5,0.6c-0.2,0-0.4-0.2-0.4-0.4c-0.1-0.4-0.3-0.5-0.7-0.8c-0.2-0.1-0.8-0.5-1.8-1l0.1-0.3
			c1.5,0.5,2.9,0.9,3.3,0.9c0.3,0,0.5-0.2,0.7-0.6c0.5-1,0.9-2.5,1.2-4.5c0.1-0.8,0.2-1.6,0.2-2c0-0.4-0.1-0.6-0.5-0.6
			c-0.5,0-2.3,0.3-3.3,0.5c-1.2,3.2-2.2,5.1-4,6.8c-1,1-2.1,1.8-3.2,2.4L31.6,187.5z"/>
		<path class="st0" d="M36.1,197.6c1.8,1.1,2.5,1.8,2.5,2.5c0,0.5-0.3,1-0.6,1c-0.2,0-0.3-0.1-0.4-0.5c-0.5-1.2-0.7-1.6-1.7-2.8
			L36.1,197.6z M37.7,206.8c1.2-0.9,1.8-1.5,2.7-2.4c1.5-1.7,2.7-3.6,3.5-5.4c0.3-0.6,0.3-0.9,0.3-1.1c0-0.4-0.2-0.6-0.9-1
			c0.2-0.1,0.3-0.1,0.4-0.1c0.4,0,1,0.2,1.5,0.6c0.5,0.3,0.7,0.6,0.7,0.8c0,0.2,0,0.2-0.3,0.5c-0.1,0.1-0.4,0.5-0.6,1
			c-1.3,2.2-1.6,2.6-2.5,3.7c-1.4,1.7-3,3-4.6,3.8L37.7,206.8z M39.3,196.9c0.7,0.3,1.1,0.6,1.6,1c0.5,0.4,0.7,0.7,0.7,1.1
			c0,0.5-0.3,1.1-0.6,1.1c-0.2,0-0.3-0.1-0.4-0.5c-0.3-1.1-0.7-1.8-1.4-2.5L39.3,196.9z"/>
		<path class="st0" d="M34,229.8c2.8-2.4,4.4-4.2,6-6.9c1.2-2,2.1-4.2,2.1-4.8c0-0.2-0.1-0.2-0.4-0.2c-0.3,0-2,0.3-3.3,0.6
			c-1.4,0.3-2.5,0.7-3.3,1c-0.3,0.1-0.5,0.2-0.7,0.2c-0.4,0-0.8-0.4-1.3-1c-0.3-0.4-0.5-0.8-0.5-1.1c0-0.1,0-0.2,0.1-0.4
			c0.3,0.7,0.9,1,1.7,1c0.6,0,2-0.2,5.1-0.7c1.6-0.3,1.7-0.3,2.1-0.5c0.2-0.1,0.2-0.1,0.4-0.1c0.3,0,0.8,0.3,1.3,0.8
			c0.4,0.4,0.6,0.6,0.6,0.9c0,0.2,0,0.3-0.3,0.5c-0.3,0.3-0.3,0.4-0.6,1c-2.4,4.8-5.2,8-8.9,10L34,229.8z M47.6,216c0,1.1-0.9,2-2,2
			c-1.1,0-2-0.9-2-2c0-1.1,0.9-2,2-2C46.7,214,47.6,214.9,47.6,216z M44.2,216c0,0.8,0.6,1.4,1.4,1.4c0.8,0,1.4-0.6,1.4-1.4
			c0-0.8-0.6-1.4-1.4-1.4C44.8,214.6,44.2,215.2,44.2,216z"/>
		<path class="st0" d="M31.3,249.5c1-0.9,1.7-2,2.4-3.4c0.7-1.4,1.2-3.6,1.2-4.9c0-0.7-0.3-1.1-1.2-1.4c0.2-0.1,0.3-0.2,0.5-0.2
			c0.4,0,0.8,0.1,1.4,0.5c0.7,0.4,1,0.7,1,1c0,0.1,0,0.3-0.2,0.8c0,0.1,0,0.1-0.2,0.6c-0.6,1.9-0.7,2.3-1.2,3.3
			c-0.9,1.7-1.9,2.9-3.4,3.9L31.3,249.5z M46.7,242.3c-0.6,1-1,1.5-2,2.5c-1,1.1-2.7,2.6-3.8,3.3c-0.3,0.2-0.9,0.6-1,0.8
			c-0.1,0.1-0.2,0.2-0.4,0.2c-0.4,0-1.1-0.9-1.1-1.5c0,0,0-0.2,0.1-0.6c0.1-0.4,0.2-2,0.2-4.9c0-4.1-0.1-4.3-1.4-4.6
			c0.2-0.2,0.3-0.3,0.6-0.3c0.4,0,1,0.2,1.6,0.6c0.5,0.3,0.7,0.6,0.7,0.8c0,0.1,0,0.2-0.1,0.5c-0.1,0.2-0.2,0.8-0.3,1.8
			c-0.1,0.8-0.2,4.7-0.2,5.4c0,0.2,0,0.4,0,0.8c2.1-0.8,4.7-2.8,6.8-5.1L46.7,242.3z"/>
		<path class="st0" d="M32,260.4c0.3,0.2,0.5,0.3,0.8,0.3c0.5,0,1-0.1,5-1.1c0.6-0.2,1.7-0.4,2.9-0.6c1.3-0.3,1.9-0.4,2.4-0.6
			c0.4-0.1,0.5-0.1,0.6-0.1c0.2,0,0.6,0.2,1,0.4c0.4,0.2,0.5,0.5,0.5,0.7c0,0.3-0.2,0.5-0.6,0.5c-0.1,0-0.2,0-0.3,0
			c-0.2,0-0.3,0-0.5,0c-3.1,0-6,2.9-6,6c0,1.6,0.8,2.9,2.4,3.5c0.6,0.3,1.3,0.4,1.8,0.4c0.4,0,0.5,0.1,0.8,0.3
			c0.3,0.3,0.5,0.6,0.5,0.9c0,0.3-0.3,0.5-0.6,0.5c-1,0-2.7-0.6-3.7-1.3c-1.4-1-2.1-2.4-2.1-4c0-1.5,0.7-3.1,2-4.4
			c0.7-0.8,1.4-1.3,2.9-2.1c-2.2,0.3-6.4,1.5-8,2.4c-0.4,0.2-0.5,0.3-0.7,0.3c-0.4,0-1-0.4-1.4-1.1c-0.3-0.4-0.5-0.9-0.5-1.2
			c0-0.1,0-0.3,0.2-0.5C31.5,259.9,31.7,260.1,32,260.4z M42.7,262c0.7,0.4,1.2,0.7,1.6,1.1c0.6,0.6,0.9,1,0.9,1.4
			c0,0.4-0.3,0.8-0.6,0.8c-0.2,0-0.2,0-0.8-1.2c-0.3-0.6-0.9-1.4-1.4-1.9L42.7,262z M44.5,260.9c0.6,0.3,1.2,0.6,1.7,1
			c0.7,0.5,0.9,0.9,0.9,1.4c0,0.4-0.2,0.7-0.5,0.7c-0.2,0-0.3-0.1-0.4-0.3c-0.6-1.1-1-1.6-2-2.6L44.5,260.9z"/>
		<path class="st0" d="M33.7,286.6c0,0.4-0.1,0.6-0.1,0.8c0,2.1,1.4,3.2,4.2,3.2c1.4,0,2.9-0.3,4-0.7c0.1,0,0.2-0.1,0.3-0.1
			c0.3,0,0.7,0.1,1,0.4c0.3,0.2,0.4,0.4,0.4,0.6c0,0.3-0.2,0.5-0.6,0.6c-0.8,0.2-2.6,0.4-4.2,0.4c-2,0-3.3-0.3-4.2-0.9
			c-0.9-0.6-1.5-1.7-1.5-2.8c0-0.5,0.1-0.9,0.3-1.5L33.7,286.6z M34.2,279.5c0.9,0.6,1.5,0.8,2.8,0.8c1.2,0,2.7-0.2,3.7-0.5
			c0.1,0,0.3-0.1,0.3-0.1c0.5,0,1.1,0.5,1.1,0.9c0,0.3-0.1,0.4-1.3,0.6c-1,0.2-1.9,0.6-4.8,1.8l-0.1-0.3c0.5-0.3,0.8-0.5,1.3-0.8
			l1.2-0.6l0.3-0.2c-0.4,0-1,0.1-1.4,0.1c-0.7,0-1.5-0.2-2.1-0.5c-0.5-0.3-0.8-0.5-1.3-1L34.2,279.5z M42.5,278
			c0.7,0.4,1.2,0.7,1.6,1.1c0.6,0.6,0.9,1,0.9,1.4c0,0.4-0.3,0.8-0.6,0.8c-0.2,0-0.2,0-0.8-1.2c-0.3-0.6-0.9-1.4-1.4-1.9L42.5,278z
			 M44.3,276.9c0.6,0.3,1.2,0.6,1.7,1c0.7,0.5,0.9,0.9,0.9,1.4c0,0.4-0.2,0.7-0.5,0.7c-0.2,0-0.3-0.1-0.4-0.3c-0.6-1.1-1-1.6-2-2.6
			L44.3,276.9z"/>
		<path class="st0" d="M35.5,303h1.4c0.4-0.5,0.5-0.7,0.8-1.1c0.6,0.6,0.8,0.7,1.4,1.3c0.1,0.1,0.1,0.1,0.1,0.1
			c0,0.1-0.1,0.1-0.2,0.1h-3.5v1.8c1.1,0.5,1.6,0.8,2.2,1.2c0.6,0.4,0.8,0.7,0.8,1.1c0,0.6-0.2,1.2-0.5,1.2c-0.1,0-0.2-0.1-0.3-0.3
			c-0.3-0.7-0.8-1.5-1.3-2c-0.3-0.3-0.4-0.5-0.9-0.8v2.7c0,2.1,0,2.1,0.1,5.7c0,0.1,0,0.2-0.1,0.2c-0.1,0.1-0.6,0.1-1,0.1
			c-0.1,0-0.2,0-0.2-0.2c0.1-2.4,0.1-2.4,0.1-5.8l0.1-3.5c-1.2,2.6-2.1,4-3.9,5.9l-0.2-0.2c1.1-1.6,1.6-2.6,2.4-4.2
			c0.5-1.1,0.7-1.6,1.1-2.8h-2.1c-0.3,0-0.6,0-1,0.1l-0.1-0.6c0.5,0.1,0.8,0.1,1.3,0.1h2.3v-2.8c-1.5,0.3-2,0.4-3.4,0.6l-0.1-0.3
			c1.4-0.4,2.6-0.8,4.1-1.4c1-0.4,1.4-0.6,2-1c1,0.7,1.5,1.1,1.5,1.2c0,0.1-0.1,0.1-0.2,0.1c-0.1,0-0.5-0.1-0.8-0.1
			c-0.9,0.3-1.2,0.4-2,0.6V303z M42,299.7c0,0.1-0.1,0.2-0.7,0.4c0,7.3,0,7.3,0.1,9.7c0,0.1,0,0.1-0.1,0.2c-0.1,0.1-0.6,0.1-1,0.1
			c-0.1,0-0.2,0-0.2-0.2c0-1.3,0-1.3,0-1.7c0-6.6,0-7.9-0.1-9C41.9,299.5,42,299.6,42,299.7z M44.4,300.1c0-0.6,0-1-0.1-1.9
			c1.5,0.2,1.7,0.3,1.8,0.3c0.1,0,0.2,0.1,0.2,0.2c0,0.1-0.1,0.2-0.7,0.5v9.7c0,0.2,0,1.4,0.1,3.8c0,0.5-0.1,0.7-0.4,1
			c-0.4,0.3-0.8,0.5-1.6,0.6c-0.1-0.5-0.2-0.7-0.5-0.9c-0.2-0.1-0.6-0.3-1.2-0.4l-0.6-0.1l-0.5-0.1l0-0.3c0.8,0.1,0.8,0.1,2,0.1
			c0.8,0,0.8,0,1.4,0.1c0.3,0,0.3-0.1,0.3-0.3v-0.1L44.4,300.1z"/>
		<path class="st0" d="M33.8,328.2c-0.2,1.3-0.6,2.6-1.1,3.7c-0.7,1.4-1.4,2.3-2.6,3.2l-0.2-0.2c1.2-1.5,1.9-2.9,2.3-4.8
			c0.3-1.4,0.4-2.3,0.5-4.8c0-0.8,0.1-3.3,0.1-4c0-0.9,0-1.5-0.1-2.3c0.6,0.4,0.8,0.5,1.4,0.9h9.6c0.3-0.4,0.4-0.5,0.7-0.8
			c0.5,0.4,0.6,0.5,1.1,0.8c0.1,0.1,0.2,0.2,0.2,0.3c0,0.1-0.1,0.2-0.7,0.5v8.4c0,1.6,0,2.3,0,4.6c-0.1,0.5-0.2,0.6-0.6,0.8
			c-0.3,0.2-0.7,0.3-1.6,0.5c-0.3-1.1-0.4-1.2-2.4-1.4v-0.3c0.7,0,0.7,0,1.7,0.1c0.6,0,0.6,0,1.2,0.1c0,0,0.1,0,0.1,0
			c0,0,0.1,0,0.1,0c0.2,0,0.2-0.1,0.2-0.3v-4.9h-4.4v1.6c0,1.2,0,1.2,0,2.2c0,0.9,0,0.9,0,1.5c0,0.3-0.2,0.4-0.7,0.4
			c-0.1,0-0.2,0-0.2,0s0,0-0.1,0c-0.3,0-0.4-0.1-0.4-0.3c0-1.1,0-3.1,0-3.8v-1.6H33.8z M38.2,324.1H34c0,1.7,0,2.6-0.1,3.7h4.3
			V324.1z M38.2,320.3H34c0,0.4,0,0.7,0,0.9c0,0.1,0,0.6,0,1.1c0,0.3,0,0.8,0,1.4h4.2V320.3z M43.9,323.7v-3.3h-4.4v3.3H43.9z
			 M43.9,327.8v-3.7h-4.4v3.7H43.9z"/>
		<path class="st0" d="M38.6,340c0.5,0,1.5,0.5,2,1c0.3,0.3,0.4,0.5,0.4,0.7c0,0.2-0.1,0.3-1,1.1c-1,0.8-2.7,2.5-3.3,3.1
			c-0.6,0.7-0.9,1.1-0.9,1.5c0,0.3,0.2,0.6,0.5,0.9c0.3,0.3,0.3,0.3,1.3,1.2c2,1.8,2.9,2.8,3.3,3.7c0.2,0.4,0.3,0.7,0.3,1.2
			c0,0.7-0.2,1.1-0.6,1.1c-0.2,0-0.3-0.1-0.6-0.7c-0.3-0.7-0.9-1.7-1.5-2.5c-0.7-1-0.8-1.1-2.6-3.3c-0.5-0.6-0.7-1-0.7-1.5
			c0-0.6,0.3-1.1,1.4-2.4c2.2-2.6,2.7-3.4,2.7-3.8c0-0.3-0.2-0.6-1-1.1C38.3,340.1,38.4,340,38.6,340z"/>
		<path class="st0" d="M31.5,365.2c0.7,0.8,1.2,1,2,1c0.7,0,1.5-0.1,2.3-0.3c0.4-1.2,0.6-2.4,0.6-3.1c0-0.5-0.3-0.8-1.3-1.1
			c0.2-0.1,0.3-0.2,0.6-0.2c0.4,0,1,0.1,1.5,0.3c0.5,0.2,0.8,0.5,0.8,0.7c0,0.1,0,0.1-0.2,0.4c-0.2,0.3-0.7,1.4-1.1,2.6
			c0.9-0.3,1.7-0.7,2.1-1.1c0.3-0.3,0.4-0.3,0.5-0.3c0.2,0,0.7,0.1,1,0.2c0.2,0.1,0.3,0.2,0.3,0.3c0,0.3-0.3,0.5-1,0.9
			c-0.8,0.4-2,0.8-3.2,1.1c-0.1,0.4-0.2,0.6-0.2,0.7c-0.6,1.8-1.2,3.7-1.9,5.6c-0.7,2.1-1,2.6-1.3,2.6c-0.2,0-0.3-0.1-0.4-0.4
			c-0.1-0.3-0.3-0.7-0.3-1c0-0.3,0-0.3,0.4-0.9c0.8-1.2,1.7-3.1,2.8-6.4c-0.7,0.1-1.2,0.2-1.7,0.2c-1.1,0-1.8-0.5-2.5-1.6
			L31.5,365.2z M38.6,371.4c0,0.3,0,0.5,0,0.6c0,1,0.5,1.8,1.4,2.2c0.5,0.2,1.2,0.3,1.9,0.3c0.7,0,1.2-0.1,1.7-0.3
			c0.1-0.1,0.2-0.1,0.3-0.1c0.2,0,0.6,0.2,0.9,0.4c0.2,0.2,0.3,0.3,0.3,0.5c0,0.4-0.7,0.6-2.1,0.6c-1.4,0-2.5-0.2-3.3-0.6
			c-1-0.5-1.5-1.4-1.5-2.6c0-0.4,0-0.7,0.2-1.1L38.6,371.4z M39.1,368.1c1.3-0.8,2.8-1.2,4.2-1.2c0.4,0,0.8,0.1,1.1,0.3
			c0.2,0.1,0.3,0.3,0.3,0.5c0,0.3-0.2,0.4-0.7,0.4c-0.7,0-0.9,0.1-1.4,0.4c-0.3,0.1-0.5,0.3-0.6,0.3l-0.7,0.4c0,0-0.2,0.1-0.4,0.2
			l-0.1-0.2c0.1-0.1,0.2-0.2,0.3-0.3l0.6-0.5c0.1-0.1,0.4-0.4,0.9-0.8c-0.1,0-0.1,0-0.1,0c-1,0-2.2,0.3-3.3,0.7L39.1,368.1z
			 M42.3,361.6c0.7,0.4,1.2,0.7,1.6,1.1c0.6,0.6,0.9,1,0.9,1.4c0,0.4-0.3,0.8-0.6,0.8c-0.2,0-0.2,0-0.8-1.2
			c-0.3-0.6-0.9-1.4-1.4-1.9L42.3,361.6z M44.1,360.6c0.6,0.3,1.2,0.6,1.7,1c0.7,0.5,0.9,0.9,0.9,1.4c0,0.4-0.2,0.7-0.5,0.7
			c-0.2,0-0.3-0.1-0.4-0.3c-0.6-1.1-1-1.6-2-2.6L44.1,360.6z"/>
		<path class="st0" d="M41,383.5c0.7,0.3,1.7,0.6,2,0.6c0.1,0,0.1,0,0.2,0c0.1,0,0.1,0,0.1,0c0.5,0,0.7,0.2,0.7,0.6
			c0,0.3-0.3,0.5-1,0.9c-0.6,0.3-0.9,0.5-2.6,1.1c0.9,1.3,1.9,2.9,2.5,3.9c0.3,0.5,0.4,0.9,0.4,1.3c0,0.7-0.1,1-0.5,1
			c-0.2,0-0.3-0.1-0.6-0.3c-0.4-0.3-0.8-0.7-1.2-0.8c-0.9-0.4-2.1-0.7-3.3-0.7c-2.1,0-3.4,0.8-3.4,2.1c0,0.8,0.5,1.4,1.4,1.8
			c0.6,0.3,1.5,0.4,2.5,0.4c0.7,0,1.1,0,1.6-0.1c0.1,0,0.2,0,0.2,0c0.5,0,1.1,0.6,1.1,1c0,0.5-0.3,0.6-1.6,0.6
			c-1.4,0-2.6-0.2-3.5-0.5c-1.6-0.5-2.6-1.6-2.6-2.9c0-1.8,1.8-2.9,4.7-2.9c1.2,0,2.6,0.2,3.5,0.5c-0.4-1.2-1.2-2.6-2.2-4
			c-1.3,0.4-2.5,0.6-3.7,0.6c-1.4,0-2.4-0.5-3.3-1.6l0.2-0.2c1,0.7,1.7,1,2.9,1c1,0,2.1-0.2,3.3-0.6c-0.8-1-1.8-1.9-2.5-2.3
			c-0.6-0.3-0.7-0.5-0.7-0.7c0-0.4,0.5-0.7,1.2-0.7c0.6,0,1.3,0.1,2.1,0.4l-0.1,0.3c-0.4-0.1-0.7-0.1-0.8-0.1
			c-0.4,0-0.6,0.1-0.6,0.2c0,0.1,0.2,0.3,0.7,1c0.2,0.2,0.7,0.8,1.4,1.7c0.2-0.1,0.2-0.1,1.1-0.5c0.4-0.2,0.8-0.3,1.3-0.7
			c-0.5-0.4-0.5-0.4-1.5-1L41,383.5z"/>
		<path class="st0" d="M37.9,410.1c-1.3,3-1.7,4.1-1.7,4.8c0,0.1,0,0.1,0.1,0.6c0,0.1,0,0.2,0,0.3c0,0.3-0.2,0.5-0.4,0.5
			c-0.5,0-1.4-0.7-2-1.5c-0.6-0.9-1-2.2-1.2-3.6c-0.1-0.8-0.1-1.2-0.1-3.2c0-1.7-0.1-2.1-0.9-3.1c0.1,0,0.1,0,0.2,0
			c0.3,0,0.8,0.3,1.4,0.9c0.5,0.5,0.8,1,0.8,1.4c0,0.1,0,0.3-0.1,0.5c-0.2,1.1-0.3,1.9-0.3,2.7c0,1,0.1,1.9,0.4,2.6s0.5,1.1,0.9,1.4
			c0.2-0.3,0.2-0.3,0.6-1c0.6-1,0.6-1,1.5-2.5c0.3-0.5,0.3-0.5,0.5-0.9L37.9,410.1z M41.7,406.8c2.3,0.5,4.1,2.9,4.1,5.4
			c0,0.9-0.4,1.4-0.9,1.4c-0.2,0-0.3,0-0.5-0.2c-0.2-0.2-0.6-0.2-1.4-0.2c-0.4,0-0.8,0-1.4,0l-0.1-0.3c1.5-0.4,2.3-0.6,2.4-0.7
			c0.4-0.1,0.4-0.2,0.4-0.5c0-0.7-0.3-1.7-0.6-2.4c-0.5-1-1.2-1.8-2.2-2.4L41.7,406.8z"/>
		<path class="st0" d="M47.2,425.7c0,1.3-1,2.3-2.3,2.3c-1.3,0-2.3-1-2.3-2.3s1-2.3,2.3-2.3C46.2,423.4,47.2,424.4,47.2,425.7z
			 M43.1,425.7c0,1,0.8,1.7,1.7,1.7c1,0,1.7-0.8,1.7-1.7s-0.8-1.7-1.7-1.7C43.9,423.9,43.1,424.7,43.1,425.7z"/>
	</g>
</g>
<line class="st1" x1="181.6" y1="2.2" x2="181.6" y2="62.2"/>
</svg>
