<?xml version="1.0" encoding="utf-8"?>
<!-- Generator: Adobe Illustrator 16.0.0, SVG Export Plug-In . SVG Version: 6.00 Build 0)  -->
<!DOCTYPE svg PUBLIC "-//W3C//DTD SVG 1.1 Tiny//EN" "http://www.w3.org/Graphics/SVG/1.1/DTD/svg11-tiny.dtd">
<svg version="1.1" baseProfile="tiny" id="レイヤー_1"
	 xmlns="http://www.w3.org/2000/svg" xmlns:xlink="http://www.w3.org/1999/xlink" x="0px" y="0px" width="319.49px"
	 height="44.285px" viewBox="0 0 319.49 44.285" xml:space="preserve">
<metadata><?xpacket begin="﻿" id="W5M0MpCehiHzreSzNTczkc9d"?>
<x:xmpmeta xmlns:x="adobe:ns:meta/" x:xmptk="Adobe XMP Core 5.3-c011 66.145661, 2012/02/06-14:56:27        ">
   <rdf:RDF xmlns:rdf="http://www.w3.org/1999/02/22-rdf-syntax-ns#">
      <rdf:Description rdf:about=""
            xmlns:dc="http://purl.org/dc/elements/1.1/">
         <dc:format>image/svg+xml</dc:format>
         <dc:title>
            <rdf:Alt>
               <rdf:li xml:lang="x-default">Web</rdf:li>
            </rdf:Alt>
         </dc:title>
      </rdf:Description>
      <rdf:Description rdf:about=""
            xmlns:xmp="http://ns.adobe.com/xap/1.0/"
            xmlns:xmpGImg="http://ns.adobe.com/xap/1.0/g/img/">
         <xmp:CreatorTool>Adobe Illustrator CS6 (Windows)</xmp:CreatorTool>
         <xmp:CreateDate>2017-07-12T10:02:57+09:00</xmp:CreateDate>
         <xmp:ModifyDate>2017-07-12T10:02:58+09:00</xmp:ModifyDate>
         <xmp:MetadataDate>2017-07-12T10:02:58+09:00</xmp:MetadataDate>
         <xmp:Thumbnails>
            <rdf:Alt>
               <rdf:li rdf:parseType="Resource">
                  <xmpGImg:width>256</xmpGImg:width>
                  <xmpGImg:height>36</xmpGImg:height>
                  <xmpGImg:format>JPEG</xmpGImg:format>
                  <xmpGImg:image>/9j/4AAQSkZJRgABAgEASABIAAD/7QAsUGhvdG9zaG9wIDMuMAA4QklNA+0AAAAAABAASAAAAAEA&#xA;AQBIAAAAAQAB/+4ADkFkb2JlAGTAAAAAAf/bAIQABgQEBAUEBgUFBgkGBQYJCwgGBggLDAoKCwoK&#xA;DBAMDAwMDAwQDA4PEA8ODBMTFBQTExwbGxscHx8fHx8fHx8fHwEHBwcNDA0YEBAYGhURFRofHx8f&#xA;Hx8fHx8fHx8fHx8fHx8fHx8fHx8fHx8fHx8fHx8fHx8fHx8fHx8fHx8fHx8f/8AAEQgAJAEAAwER&#xA;AAIRAQMRAf/EAaIAAAAHAQEBAQEAAAAAAAAAAAQFAwIGAQAHCAkKCwEAAgIDAQEBAQEAAAAAAAAA&#xA;AQACAwQFBgcICQoLEAACAQMDAgQCBgcDBAIGAnMBAgMRBAAFIRIxQVEGE2EicYEUMpGhBxWxQiPB&#xA;UtHhMxZi8CRygvElQzRTkqKyY3PCNUQnk6OzNhdUZHTD0uIIJoMJChgZhJRFRqS0VtNVKBry4/PE&#xA;1OT0ZXWFlaW1xdXl9WZ2hpamtsbW5vY3R1dnd4eXp7fH1+f3OEhYaHiImKi4yNjo+Ck5SVlpeYmZ&#xA;qbnJ2en5KjpKWmp6ipqqusra6voRAAICAQIDBQUEBQYECAMDbQEAAhEDBCESMUEFURNhIgZxgZEy&#xA;obHwFMHR4SNCFVJicvEzJDRDghaSUyWiY7LCB3PSNeJEgxdUkwgJChgZJjZFGidkdFU38qOzwygp&#xA;0+PzhJSktMTU5PRldYWVpbXF1eX1RlZmdoaWprbG1ub2R1dnd4eXp7fH1+f3OEhYaHiImKi4yNjo&#xA;+DlJWWl5iZmpucnZ6fkqOkpaanqKmqq6ytrq+v/aAAwDAQACEQMRAD8A9E+afPOgeWjbwXry3GpX&#xA;pIsNJs42uL24KglvSgSrEKASWNFHjgJZCJLEPM35xywS6DP5XsU1rTNYBKzBbjnJItxHC1pEscTi&#xA;O4VXdmE3EDjv3wGTIQ73p+Sa0PqGoWOnWU19fzpbWdshkuLiUhURF3LMx2AHc4qtbVdMW5tLZrqI&#xA;XF8jyWURdeUyRgM7RCvxhVcE07YrSKxVhv5w6xrOiflzrOtaNdGz1LTY0uoJQqOp9ORSyOrhgVda&#xA;qcEuTKAssn0i+jv9LtLyOaK4WeJHM9uyvExI+IoylwRX3OFBReKEm1nzh5d0XWNI0jVLxbW+115I&#xA;tLR1bjLLFwrHzAKqx9ReIYjl0G+C0iJLHfzB80aqYL3RPKxe51+1WOS+s7aVLfUY7aWnG5sluYZI&#xA;bgKTR/2eq8g+AllEd7K9AtdYtNHtbbWb5dT1OJStzfpCLcTEE0f0lLKhK0qBtXJBiWO615/1mw12&#xA;bRbPyZrWqTJwaG+t1tksZEda1FzNPGqsGqpVhUdelMFpEduaF/K78yNT87Sa8bnQ20u20m9ayt7o&#xA;TpcRTvHtKqugALIw3K1WhFDgBtM40zzJMGIeZPzM0jRNX1TRXtrifVtN0WTzAsCqoSe1iZ0dUkBa&#xA;jhoyKMo7UrgJZCNptpvmzSb3ynZ+aZGaz0u8tIr1TcDi6xzorIGVS1WPIABa1PSuNoI3pOcKHYq7&#xA;FXYqw382vOOoeVPJ0l7pMYn167uLey0WzZefr3U8oAj41FfgDE79sEjTKEbLLbR7l7WF7qNYblo1&#xA;M8SNzVJCByVWovIA7VphYoHzP5i0zy3oF9rmpyenZWETSyU+0xGyogPV3YhVHcnASkCy8U/LDzFq&#xA;NlZW+s3OsvHrP5gyXetDTH02/wBVjiSGUoEgS1mjMYWNlqSnxbb7DIgtsx9iT/ll5s1LSPIGm2Te&#xA;YbjS4rnXZLO2ddAvLh2kkum4wtPI/oUk4kFFXmtePUYAdkyFl7v5/wCX+A/MlHZG/RV7R0JRgfq7&#xA;7qQag+ByZ5NMeYeJ6vr8Vn+TPl7VLC+8yxa9PFpAu7tpNc9NzO0QueEkx+rEScm4cDQ1HDtkL2bg&#xA;PV0ZL5klsv8AHvkG30e81+1in1Ob66t3LrMUUqR2zyqh+v8A7tgSlGC78a4TzYjkWefmTqeqaZ5a&#xA;+u6TqNvp2pxXEJtfrpAtrg8vjtpSQxAkj5UK7g0IyRYRG7xz8vvNNmupXgtfNUumaAL/AMw3jXdv&#xA;Eblbgy3BEDOZIp4YUghi9dagBuW1fjyALbIeTNfKS6rJ+b1nc6lqVvqk03lCKR72xqlrcONRkCzr&#xA;GGZPiidd6nvSgyQ5sD9PxZV5M/K7yv5S1DUNSsPrN3qWot+9vtQmN1cJFWqwRyuOYjXwJJO3ImmE&#xA;CmMpkse81+XPN3lHXLjzh5CthqNret6vmXyny4C6fobu0JqI7in2wB8dOhbARXJkCDsXoGgasdX0&#xA;az1NrO505ruMSNY3sZhuYieqSxn7LDJBgRSS+Y/LEE2vReYLnVGtNIhsbmz8wadMx+qXVo6MVaTk&#xA;wSMwszHnSpUkVpgISDtTEvJOgReZvMeleZktGtPJnlW0/R/kazmDB5gUWKS/ZX+MJ6cYSHnuR8e2&#xA;2ABlI0K6l6tkmt5/+f0yw/k75pdgSDaBNvGSVEH4tkZcmeP6gmOgfl7pei+brvzJod3JZ6dq0H+m&#xA;6HCALKS5ZlYXip0SQqKNxG/X5kBBlYpldzK8VvLLHC9w8aMyQRlA8hUVCKZGROTdByYDxIwsWB6B&#xA;5C1PUfOTeevOQifVYEMHl/R4m9WDTYD1YuQokuXr8bgUHRailIgdWZltQV/zL/L7UPM1z5f1XRL2&#xA;PS9f0C/S4gv3DGtq/wANzD8O7B1p8J2NKGgNcJCxlTOcLBgHnDXtc8xzXHlDyTL6dyxMGt+ZBU2+&#xA;nRnaSOJh/e3ZFQqIfg6sV2yJPcziK3KX+WdQm/LvXdF/Lq9tvW0DUEkj8sa1CnFvUjBkktr5EHH1&#xA;erCVaB+4ryOI22SRxC3p5IAJPQb7b/qyTW8xs/J+v64POfmbULYWmreYtOk0jQLC4PFraxSKQRCZ&#xA;lDFGnmk9SRaHjsOoORps4gKCj+W/kzzjfWGhXPnqKKwtvL0ENvo3lm3IaNZbaNYlvbp1Zlkk+EmJ&#xA;B8MYNftdEDvWUh0eoXVtDdW01tOC0M6NHKoJUlXHFhyUgjY9Qck1sAh/JTSBGsdz5l8z3sSvzWOf&#xA;WbriB2UCMpsBsO/vkeFnx+QRFv8Akv5Mhv7e+MuqzXFq6yQmbVb+QBkbktQ024r2x4V4yzpuXE8Q&#xA;C1NgTQV+e+SYPFbPX/zI8z+dLfW5fy8uI7XREkt9Ki1G9is4orqQlLm5esckkh4rwjZIyAvIj7W0&#xA;LJ6NtADmnbz/AJqaT+Zeh3NzbpeaF5hjktdZsbAXFxa2ElsnKG69eUJwMnLg3wIGC9C1MO9o2pnv&#xA;mHTbG9053u4VmNoHuLcPuFlWNgr8ehZeR416Hcb4SwBeMeUfK88n5X+RfOtpc3SXXlvS5RLaWjRo&#xA;81pO4NzxaRWHqJGhZF/aIpUVyIG1tpO5Cl+TPk7R/NvkPy/dnzHcST6Zrb67Jpkc0EipJDeyvEs0&#xA;YUOhkWjnp9rYYxFhZyovXfzHnit/y98zzynjHHpN8zH5W75I8muPMPIPO+medtN/Iry1Z3l/pwEB&#xA;0O3W0NnMkqskkIiVpTdEOUKjnSIVANOORPJsiRxFlnnweZ7Xzh+Xsmp3tldwNrhjWO2tJbZw8lnO&#xA;nIs9zcggKTtQYT0Yxqizrzneatb+X7iLRYzJrV7/AKJpvXik8wKiZz2SFayN7LQb0wlhHm8e/Jry&#xA;lrWg6ZZz+X4ZL6CO41jTNZgkkhhtLr6vevHbSz8i7rIgDfEkTkr8J2GRiG2ZvmibHyt5stvzYtNE&#xA;0m4sfKVrZ+XUeGLT1fUSLZdS5vCHuVgA5ud29P7O3vjW62OHve55NpdirsVS/WNA0nWVhj1SD61b&#xA;wP6i2sjMYHcfZMsVeEvHqocEA79caSDSYAACg2AxQ7FUNqemafqmnz6dqNul1Y3SGO4t5QGR1PUE&#xA;HFQUTirsVdirsVdirSqqiigAeA264q4qpIJAJU1UnsaU2+g4q3irsVdirsVdirsVdirsVdiqyeFJ&#xA;oZIX+xIpRqeDChxViEH5V6Cnl3T/AC1LeX0/l3T4I7f9FNMscM4j3LXDRJHLJzJ+JC/pn+XBTLjN&#xA;2hfNH5Hfll5ju4b280dLa+h4hbqwZrR2RRx4P6JVWHEcdxUDYEYDEJGQhlWr+XdL1bS00q7jP6OV&#xA;4Wa1Sio6wOrpEwA/u6oOS9xsdq5KmINKPmjypo/mewhsNWR5LaC5gvEVGKH1bdw6VI7VG4wEKDSW&#xA;6l+Wvl7UPOmnebriS7OoaYWeC1+sObNpWQxiVoG5KHRSaFOPvXGkiRqmVYWKU+V/LGm+WtLOm6eZ&#xA;Wga4uLpmmbm5kupmnkq1Btyc09sACSbUx5R0gec284UkOsHThpAPL90LYTm4NEp9oyHck9B86tLe&#xA;1Me1bzJ5vh83ahpmmCO8S3GmyW9l9VlNY7uWRLn1bpXEcfpxws6lvlRtq1mUroeTaIx4bPmrp+aG&#xA;mXdtqEumWN1dtZOiIaQqswa4NsXQtKOIWQfZk4MRQgUNcfFHRHhHqmXnjV9W03ytJqOmstterJaq&#xA;Fmi+sUE88cLKY42HIgSfst1GSmSBYY4wCaKS6d+Yk2naJqmo+agI47DUZbVGjiMEwtlQSRy3MMsh&#xA;9NmSrKoarjjxXk3HIDJQJLM47IAROt+ddRQaxHptm4OkmxcXDCOQTpcyIXSNBIGDNG1E5Dr1pthl&#xA;M70iMBtfVHr55tnfToo9Lv5JtRkuYViVISYpLKb0J1mPq8V4sCeQJUgbE7Vlx+SPD80Kv5m6ERF/&#xA;o13W74fotSkY+uiW4FsrQH1KAc2U/vSnwkHpg8UL4Rak/MzSl9Php1/KGRmn9OOEmFkuzYyRyKZQ&#xA;xdLhSh4Bh3BI3x8UJ8Ip9pGsJrGmvc2ySWsqyTW8kVwql4Z4HaJ1cRu6Nxdf2XIPY5IGwwMaLG9A&#xA;8weYZ9H0TUdRu4WWUXkuqLDavV0gDcRCod2UjjX9onpkIyNAlnKIsgL4PzX8rS6DDrretFp00/1c&#xA;yv6RCtxViSUkdT/eAcFJetRx+FqPiirXwTdIrUfzE0Sx1qfSmgupntFle+uYo1MNuIIFuJPU5Or7&#xA;RSIaqpB5ACprQnIAaQMZItHeVPNlh5lsZLyzgnt1icI0dwEDHlGsqspieVCCrjo1QaqwDAjJQnxI&#xA;nDhYloHnXX5dQn/SN7EbPT5dXfUK2E0SGz0y6a1VobjmVaWqh3VVYUNPhNK1Rmb382yUBW3l9qPP&#xA;5veXBpcV+bS95zzGGGz4weqwWAXJkVvW9Er6R6epy5fBx5/DkvGFMfBN0zS2uIrm3iuIiTFMiyRk&#xA;gqeLCoqrUI2PQ5aGoqmKuxV2KuxV2KuxV2KuxV2KuxV2KuxV2KuxV2KuxVIdM/w5/i3V/qn1j9O+&#xA;lb/pP1Prfo+lRvQ4er/o381PS/yvfICrPezN8I7khtf8A/orVvq31/8ARNZOfH9Iehy+snn9R/Zr&#xA;9Z6ej3pT4aZEcNHuZnisd/wTvzT/AIa/w7D+nPrX6K9W14en9d9b1PUX6v6n1f8A0j+84/b/AGvt&#xA;b5KVVuwhd7c2KeYf+VP/AFeT9Mev6n1yT6xz/SP1z1/qbcvUr/pPD6pWlfg49Mrlwdf0tkePp+hG&#xA;6h/yrn0b/wCt/pD0PqmnfXvT/Sn93UfU+Xo/H632eX7f83fCeH8WgcX39yK0n/Af6Y0/6l+kPr31&#xA;vUfqPq/pX0vrHI/X+XrfuePOv2/h5V474Rw3/ag8VfLuS6P/AJVZxl4ety5RfUP96uVfrx9L9H17&#xA;fXP99bfZr+744PR+P0MvX+P0ul/5VV6Scvrv+84r6P6V5cPr55ep6P8Au369X1OXx868sfR+L/HN&#xA;fX+K/HJlnlT/AA/9Su/0H631f67c/WvX+s8vrfqH6xT618f95X7Pw1rTLIV0a531SPRP8B8dS/Rv&#xA;1z6r6d76nL6/9V9PmPrf1P1P3VPU/wB8968dshHh6MpcW1sZ1P8A5Un+jz+k/rtfXvOfrfpP676v&#xA;1OD6z6lP3/8AvN6HLl7V35ZA8Fb/AKWweJe36FFP0L/ytHVuf6U+r0l/xD6vr/VPq36OHp/W6/6L&#xA;9X9Knp/7u5/a2rg24zz8/ku/AOXl83ofkz9Dfow/or696HwU/SP1v1OHAenw+t/Fw4Upx71r8Vcu&#xA;hVbNM7vdBeWf8Df4d1f9Get+hfrF5+l/r/1ynrVb67y+vfHTly58fh5cu9cEeGjXJMuKxfNKR/gH&#xA;9E6bT9L/AN8P0P8A8dT69/vOf956/v8A0fq1eVPh8fjyPprr9rL1WeX2M+tvS+rRelX0uC+ny5cu&#xA;NNq8/irTx3y4NJVMVdirsVdirsVdirsVdirsVdirsVdirsVdirsVdir/AP/Z</xmpGImg:image>
               </rdf:li>
            </rdf:Alt>
         </xmp:Thumbnails>
      </rdf:Description>
      <rdf:Description rdf:about=""
            xmlns:xmpMM="http://ns.adobe.com/xap/1.0/mm/"
            xmlns:stRef="http://ns.adobe.com/xap/1.0/sType/ResourceRef#"
            xmlns:stEvt="http://ns.adobe.com/xap/1.0/sType/ResourceEvent#">
         <xmpMM:RenditionClass>proof:pdf</xmpMM:RenditionClass>
         <xmpMM:OriginalDocumentID>uuid:65E6390686CF11DBA6E2D887CEACB407</xmpMM:OriginalDocumentID>
         <xmpMM:DocumentID>xmp.did:0D1DE06E9B66E711BC30C8B554C325DD</xmpMM:DocumentID>
         <xmpMM:InstanceID>xmp.iid:0D1DE06E9B66E711BC30C8B554C325DD</xmpMM:InstanceID>
         <xmpMM:DerivedFrom rdf:parseType="Resource">
            <stRef:instanceID>uuid:c5b5eddb-66da-6741-a40d-cc810f9d042d</stRef:instanceID>
            <stRef:documentID>xmp.did:FB05051EC465E111835FF2FC000FBA2B</stRef:documentID>
            <stRef:originalDocumentID>uuid:65E6390686CF11DBA6E2D887CEACB407</stRef:originalDocumentID>
            <stRef:renditionClass>proof:pdf</stRef:renditionClass>
         </xmpMM:DerivedFrom>
         <xmpMM:History>
            <rdf:Seq>
               <rdf:li rdf:parseType="Resource">
                  <stEvt:action>saved</stEvt:action>
                  <stEvt:instanceID>xmp.iid:0D1DE06E9B66E711BC30C8B554C325DD</stEvt:instanceID>
                  <stEvt:when>2017-07-12T10:02:58+09:00</stEvt:when>
                  <stEvt:softwareAgent>Adobe Illustrator CS6 (Windows)</stEvt:softwareAgent>
                  <stEvt:changed>/</stEvt:changed>
               </rdf:li>
            </rdf:Seq>
         </xmpMM:History>
      </rdf:Description>
      <rdf:Description rdf:about=""
            xmlns:illustrator="http://ns.adobe.com/illustrator/1.0/">
         <illustrator:StartupProfile>Web</illustrator:StartupProfile>
      </rdf:Description>
      <rdf:Description rdf:about=""
            xmlns:xmpTPg="http://ns.adobe.com/xap/1.0/t/pg/"
            xmlns:stDim="http://ns.adobe.com/xap/1.0/sType/Dimensions#"
            xmlns:xmpG="http://ns.adobe.com/xap/1.0/g/">
         <xmpTPg:NPages>1</xmpTPg:NPages>
         <xmpTPg:HasVisibleTransparency>False</xmpTPg:HasVisibleTransparency>
         <xmpTPg:HasVisibleOverprint>False</xmpTPg:HasVisibleOverprint>
         <xmpTPg:MaxPageSize rdf:parseType="Resource">
            <stDim:w>319.489746</stDim:w>
            <stDim:h>44.284668</stDim:h>
            <stDim:unit>Pixels</stDim:unit>
         </xmpTPg:MaxPageSize>
         <xmpTPg:PlateNames>
            <rdf:Seq>
               <rdf:li>Cyan</rdf:li>
               <rdf:li>Magenta</rdf:li>
               <rdf:li>Yellow</rdf:li>
               <rdf:li>Black</rdf:li>
            </rdf:Seq>
         </xmpTPg:PlateNames>
         <xmpTPg:SwatchGroups>
            <rdf:Seq>
               <rdf:li rdf:parseType="Resource">
                  <xmpG:groupName>初期設定のスウォッチグループ</xmpG:groupName>
                  <xmpG:groupType>0</xmpG:groupType>
                  <xmpG:Colorants>
                     <rdf:Seq>
                        <rdf:li rdf:parseType="Resource">
                           <xmpG:swatchName>ホワイト</xmpG:swatchName>
                           <xmpG:mode>RGB</xmpG:mode>
                           <xmpG:type>PROCESS</xmpG:type>
                           <xmpG:red>255</xmpG:red>
                           <xmpG:green>255</xmpG:green>
                           <xmpG:blue>255</xmpG:blue>
                        </rdf:li>
                        <rdf:li rdf:parseType="Resource">
                           <xmpG:swatchName>ブラック</xmpG:swatchName>
                           <xmpG:mode>RGB</xmpG:mode>
                           <xmpG:type>PROCESS</xmpG:type>
                           <xmpG:red>0</xmpG:red>
                           <xmpG:green>0</xmpG:green>
                           <xmpG:blue>0</xmpG:blue>
                        </rdf:li>
                        <rdf:li rdf:parseType="Resource">
                           <xmpG:swatchName>RGB レッド</xmpG:swatchName>
                           <xmpG:mode>RGB</xmpG:mode>
                           <xmpG:type>PROCESS</xmpG:type>
                           <xmpG:red>255</xmpG:red>
                           <xmpG:green>0</xmpG:green>
                           <xmpG:blue>0</xmpG:blue>
                        </rdf:li>
                        <rdf:li rdf:parseType="Resource">
                           <xmpG:swatchName>RGB イエロー</xmpG:swatchName>
                           <xmpG:mode>RGB</xmpG:mode>
                           <xmpG:type>PROCESS</xmpG:type>
                           <xmpG:red>255</xmpG:red>
                           <xmpG:green>255</xmpG:green>
                           <xmpG:blue>0</xmpG:blue>
                        </rdf:li>
                        <rdf:li rdf:parseType="Resource">
                           <xmpG:swatchName>RGB グリーン</xmpG:swatchName>
                           <xmpG:mode>RGB</xmpG:mode>
                           <xmpG:type>PROCESS</xmpG:type>
                           <xmpG:red>0</xmpG:red>
                           <xmpG:green>255</xmpG:green>
                           <xmpG:blue>0</xmpG:blue>
                        </rdf:li>
                        <rdf:li rdf:parseType="Resource">
                           <xmpG:swatchName>RGB シアン</xmpG:swatchName>
                           <xmpG:mode>RGB</xmpG:mode>
                           <xmpG:type>PROCESS</xmpG:type>
                           <xmpG:red>0</xmpG:red>
                           <xmpG:green>255</xmpG:green>
                           <xmpG:blue>255</xmpG:blue>
                        </rdf:li>
                        <rdf:li rdf:parseType="Resource">
                           <xmpG:swatchName>RGB ブルー</xmpG:swatchName>
                           <xmpG:mode>RGB</xmpG:mode>
                           <xmpG:type>PROCESS</xmpG:type>
                           <xmpG:red>0</xmpG:red>
                           <xmpG:green>0</xmpG:green>
                           <xmpG:blue>255</xmpG:blue>
                        </rdf:li>
                        <rdf:li rdf:parseType="Resource">
                           <xmpG:swatchName>RGB マゼンタ</xmpG:swatchName>
                           <xmpG:mode>RGB</xmpG:mode>
                           <xmpG:type>PROCESS</xmpG:type>
                           <xmpG:red>255</xmpG:red>
                           <xmpG:green>0</xmpG:green>
                           <xmpG:blue>255</xmpG:blue>
                        </rdf:li>
                        <rdf:li rdf:parseType="Resource">
                           <xmpG:swatchName>R=193 G=39 B=45</xmpG:swatchName>
                           <xmpG:mode>RGB</xmpG:mode>
                           <xmpG:type>PROCESS</xmpG:type>
                           <xmpG:red>193</xmpG:red>
                           <xmpG:green>39</xmpG:green>
                           <xmpG:blue>45</xmpG:blue>
                        </rdf:li>
                        <rdf:li rdf:parseType="Resource">
                           <xmpG:swatchName>R=237 G=28 B=36</xmpG:swatchName>
                           <xmpG:mode>RGB</xmpG:mode>
                           <xmpG:type>PROCESS</xmpG:type>
                           <xmpG:red>237</xmpG:red>
                           <xmpG:green>28</xmpG:green>
                           <xmpG:blue>36</xmpG:blue>
                        </rdf:li>
                        <rdf:li rdf:parseType="Resource">
                           <xmpG:swatchName>R=241 G=90 B=36</xmpG:swatchName>
                           <xmpG:mode>RGB</xmpG:mode>
                           <xmpG:type>PROCESS</xmpG:type>
                           <xmpG:red>241</xmpG:red>
                           <xmpG:green>90</xmpG:green>
                           <xmpG:blue>36</xmpG:blue>
                        </rdf:li>
                        <rdf:li rdf:parseType="Resource">
                           <xmpG:swatchName>R=247 G=147 B=30</xmpG:swatchName>
                           <xmpG:mode>RGB</xmpG:mode>
                           <xmpG:type>PROCESS</xmpG:type>
                           <xmpG:red>247</xmpG:red>
                           <xmpG:green>147</xmpG:green>
                           <xmpG:blue>30</xmpG:blue>
                        </rdf:li>
                        <rdf:li rdf:parseType="Resource">
                           <xmpG:swatchName>R=251 G=176 B=59</xmpG:swatchName>
                           <xmpG:mode>RGB</xmpG:mode>
                           <xmpG:type>PROCESS</xmpG:type>
                           <xmpG:red>251</xmpG:red>
                           <xmpG:green>176</xmpG:green>
                           <xmpG:blue>59</xmpG:blue>
                        </rdf:li>
                        <rdf:li rdf:parseType="Resource">
                           <xmpG:swatchName>R=252 G=238 B=33</xmpG:swatchName>
                           <xmpG:mode>RGB</xmpG:mode>
                           <xmpG:type>PROCESS</xmpG:type>
                           <xmpG:red>252</xmpG:red>
                           <xmpG:green>238</xmpG:green>
                           <xmpG:blue>33</xmpG:blue>
                        </rdf:li>
                        <rdf:li rdf:parseType="Resource">
                           <xmpG:swatchName>R=217 G=224 B=33</xmpG:swatchName>
                           <xmpG:mode>RGB</xmpG:mode>
                           <xmpG:type>PROCESS</xmpG:type>
                           <xmpG:red>217</xmpG:red>
                           <xmpG:green>224</xmpG:green>
                           <xmpG:blue>33</xmpG:blue>
                        </rdf:li>
                        <rdf:li rdf:parseType="Resource">
                           <xmpG:swatchName>R=140 G=198 B=63</xmpG:swatchName>
                           <xmpG:mode>RGB</xmpG:mode>
                           <xmpG:type>PROCESS</xmpG:type>
                           <xmpG:red>140</xmpG:red>
                           <xmpG:green>198</xmpG:green>
                           <xmpG:blue>63</xmpG:blue>
                        </rdf:li>
                        <rdf:li rdf:parseType="Resource">
                           <xmpG:swatchName>R=57 G=181 B=74</xmpG:swatchName>
                           <xmpG:mode>RGB</xmpG:mode>
                           <xmpG:type>PROCESS</xmpG:type>
                           <xmpG:red>57</xmpG:red>
                           <xmpG:green>181</xmpG:green>
                           <xmpG:blue>74</xmpG:blue>
                        </rdf:li>
                        <rdf:li rdf:parseType="Resource">
                           <xmpG:swatchName>R=0 G=146 B=69</xmpG:swatchName>
                           <xmpG:mode>RGB</xmpG:mode>
                           <xmpG:type>PROCESS</xmpG:type>
                           <xmpG:red>0</xmpG:red>
                           <xmpG:green>146</xmpG:green>
                           <xmpG:blue>69</xmpG:blue>
                        </rdf:li>
                        <rdf:li rdf:parseType="Resource">
                           <xmpG:swatchName>R=0 G=104 B=55</xmpG:swatchName>
                           <xmpG:mode>RGB</xmpG:mode>
                           <xmpG:type>PROCESS</xmpG:type>
                           <xmpG:red>0</xmpG:red>
                           <xmpG:green>104</xmpG:green>
                           <xmpG:blue>55</xmpG:blue>
                        </rdf:li>
                        <rdf:li rdf:parseType="Resource">
                           <xmpG:swatchName>R=34 G=181 B=115</xmpG:swatchName>
                           <xmpG:mode>RGB</xmpG:mode>
                           <xmpG:type>PROCESS</xmpG:type>
                           <xmpG:red>34</xmpG:red>
                           <xmpG:green>181</xmpG:green>
                           <xmpG:blue>115</xmpG:blue>
                        </rdf:li>
                        <rdf:li rdf:parseType="Resource">
                           <xmpG:swatchName>R=0 G=169 B=157</xmpG:swatchName>
                           <xmpG:mode>RGB</xmpG:mode>
                           <xmpG:type>PROCESS</xmpG:type>
                           <xmpG:red>0</xmpG:red>
                           <xmpG:green>169</xmpG:green>
                           <xmpG:blue>157</xmpG:blue>
                        </rdf:li>
                        <rdf:li rdf:parseType="Resource">
                           <xmpG:swatchName>R=41 G=171 B=226</xmpG:swatchName>
                           <xmpG:mode>RGB</xmpG:mode>
                           <xmpG:type>PROCESS</xmpG:type>
                           <xmpG:red>41</xmpG:red>
                           <xmpG:green>171</xmpG:green>
                           <xmpG:blue>226</xmpG:blue>
                        </rdf:li>
                        <rdf:li rdf:parseType="Resource">
                           <xmpG:swatchName>R=0 G=113 B=188</xmpG:swatchName>
                           <xmpG:mode>RGB</xmpG:mode>
                           <xmpG:type>PROCESS</xmpG:type>
                           <xmpG:red>0</xmpG:red>
                           <xmpG:green>113</xmpG:green>
                           <xmpG:blue>188</xmpG:blue>
                        </rdf:li>
                        <rdf:li rdf:parseType="Resource">
                           <xmpG:swatchName>R=46 G=49 B=146</xmpG:swatchName>
                           <xmpG:mode>RGB</xmpG:mode>
                           <xmpG:type>PROCESS</xmpG:type>
                           <xmpG:red>46</xmpG:red>
                           <xmpG:green>49</xmpG:green>
                           <xmpG:blue>146</xmpG:blue>
                        </rdf:li>
                        <rdf:li rdf:parseType="Resource">
                           <xmpG:swatchName>R=27 G=20 B=100</xmpG:swatchName>
                           <xmpG:mode>RGB</xmpG:mode>
                           <xmpG:type>PROCESS</xmpG:type>
                           <xmpG:red>27</xmpG:red>
                           <xmpG:green>20</xmpG:green>
                           <xmpG:blue>100</xmpG:blue>
                        </rdf:li>
                        <rdf:li rdf:parseType="Resource">
                           <xmpG:swatchName>R=102 G=45 B=145</xmpG:swatchName>
                           <xmpG:mode>RGB</xmpG:mode>
                           <xmpG:type>PROCESS</xmpG:type>
                           <xmpG:red>102</xmpG:red>
                           <xmpG:green>45</xmpG:green>
                           <xmpG:blue>145</xmpG:blue>
                        </rdf:li>
                        <rdf:li rdf:parseType="Resource">
                           <xmpG:swatchName>R=147 G=39 B=143</xmpG:swatchName>
                           <xmpG:mode>RGB</xmpG:mode>
                           <xmpG:type>PROCESS</xmpG:type>
                           <xmpG:red>147</xmpG:red>
                           <xmpG:green>39</xmpG:green>
                           <xmpG:blue>143</xmpG:blue>
                        </rdf:li>
                        <rdf:li rdf:parseType="Resource">
                           <xmpG:swatchName>R=158 G=0 B=93</xmpG:swatchName>
                           <xmpG:mode>RGB</xmpG:mode>
                           <xmpG:type>PROCESS</xmpG:type>
                           <xmpG:red>158</xmpG:red>
                           <xmpG:green>0</xmpG:green>
                           <xmpG:blue>93</xmpG:blue>
                        </rdf:li>
                        <rdf:li rdf:parseType="Resource">
                           <xmpG:swatchName>R=212 G=20 B=90</xmpG:swatchName>
                           <xmpG:mode>RGB</xmpG:mode>
                           <xmpG:type>PROCESS</xmpG:type>
                           <xmpG:red>212</xmpG:red>
                           <xmpG:green>20</xmpG:green>
                           <xmpG:blue>90</xmpG:blue>
                        </rdf:li>
                        <rdf:li rdf:parseType="Resource">
                           <xmpG:swatchName>R=237 G=30 B=121</xmpG:swatchName>
                           <xmpG:mode>RGB</xmpG:mode>
                           <xmpG:type>PROCESS</xmpG:type>
                           <xmpG:red>237</xmpG:red>
                           <xmpG:green>30</xmpG:green>
                           <xmpG:blue>121</xmpG:blue>
                        </rdf:li>
                        <rdf:li rdf:parseType="Resource">
                           <xmpG:swatchName>R=199 G=178 B=153</xmpG:swatchName>
                           <xmpG:mode>RGB</xmpG:mode>
                           <xmpG:type>PROCESS</xmpG:type>
                           <xmpG:red>199</xmpG:red>
                           <xmpG:green>178</xmpG:green>
                           <xmpG:blue>153</xmpG:blue>
                        </rdf:li>
                        <rdf:li rdf:parseType="Resource">
                           <xmpG:swatchName>R=153 G=134 B=117</xmpG:swatchName>
                           <xmpG:mode>RGB</xmpG:mode>
                           <xmpG:type>PROCESS</xmpG:type>
                           <xmpG:red>153</xmpG:red>
                           <xmpG:green>134</xmpG:green>
                           <xmpG:blue>117</xmpG:blue>
                        </rdf:li>
                        <rdf:li rdf:parseType="Resource">
                           <xmpG:swatchName>R=115 G=99 B=87</xmpG:swatchName>
                           <xmpG:mode>RGB</xmpG:mode>
                           <xmpG:type>PROCESS</xmpG:type>
                           <xmpG:red>115</xmpG:red>
                           <xmpG:green>99</xmpG:green>
                           <xmpG:blue>87</xmpG:blue>
                        </rdf:li>
                        <rdf:li rdf:parseType="Resource">
                           <xmpG:swatchName>R=83 G=71 B=65</xmpG:swatchName>
                           <xmpG:mode>RGB</xmpG:mode>
                           <xmpG:type>PROCESS</xmpG:type>
                           <xmpG:red>83</xmpG:red>
                           <xmpG:green>71</xmpG:green>
                           <xmpG:blue>65</xmpG:blue>
                        </rdf:li>
                        <rdf:li rdf:parseType="Resource">
                           <xmpG:swatchName>R=198 G=156 B=109</xmpG:swatchName>
                           <xmpG:mode>RGB</xmpG:mode>
                           <xmpG:type>PROCESS</xmpG:type>
                           <xmpG:red>198</xmpG:red>
                           <xmpG:green>156</xmpG:green>
                           <xmpG:blue>109</xmpG:blue>
                        </rdf:li>
                        <rdf:li rdf:parseType="Resource">
                           <xmpG:swatchName>R=166 G=124 B=82</xmpG:swatchName>
                           <xmpG:mode>RGB</xmpG:mode>
                           <xmpG:type>PROCESS</xmpG:type>
                           <xmpG:red>166</xmpG:red>
                           <xmpG:green>124</xmpG:green>
                           <xmpG:blue>82</xmpG:blue>
                        </rdf:li>
                        <rdf:li rdf:parseType="Resource">
                           <xmpG:swatchName>R=140 G=98 B=57</xmpG:swatchName>
                           <xmpG:mode>RGB</xmpG:mode>
                           <xmpG:type>PROCESS</xmpG:type>
                           <xmpG:red>140</xmpG:red>
                           <xmpG:green>98</xmpG:green>
                           <xmpG:blue>57</xmpG:blue>
                        </rdf:li>
                        <rdf:li rdf:parseType="Resource">
                           <xmpG:swatchName>R=117 G=76 B=36</xmpG:swatchName>
                           <xmpG:mode>RGB</xmpG:mode>
                           <xmpG:type>PROCESS</xmpG:type>
                           <xmpG:red>117</xmpG:red>
                           <xmpG:green>76</xmpG:green>
                           <xmpG:blue>36</xmpG:blue>
                        </rdf:li>
                        <rdf:li rdf:parseType="Resource">
                           <xmpG:swatchName>R=96 G=56 B=19</xmpG:swatchName>
                           <xmpG:mode>RGB</xmpG:mode>
                           <xmpG:type>PROCESS</xmpG:type>
                           <xmpG:red>96</xmpG:red>
                           <xmpG:green>56</xmpG:green>
                           <xmpG:blue>19</xmpG:blue>
                        </rdf:li>
                        <rdf:li rdf:parseType="Resource">
                           <xmpG:swatchName>R=66 G=33 B=11</xmpG:swatchName>
                           <xmpG:mode>RGB</xmpG:mode>
                           <xmpG:type>PROCESS</xmpG:type>
                           <xmpG:red>66</xmpG:red>
                           <xmpG:green>33</xmpG:green>
                           <xmpG:blue>11</xmpG:blue>
                        </rdf:li>
                     </rdf:Seq>
                  </xmpG:Colorants>
               </rdf:li>
               <rdf:li rdf:parseType="Resource">
                  <xmpG:groupName>グレー</xmpG:groupName>
                  <xmpG:groupType>1</xmpG:groupType>
                  <xmpG:Colorants>
                     <rdf:Seq>
                        <rdf:li rdf:parseType="Resource">
                           <xmpG:swatchName>R=0 G=0 B=0</xmpG:swatchName>
                           <xmpG:mode>RGB</xmpG:mode>
                           <xmpG:type>PROCESS</xmpG:type>
                           <xmpG:red>0</xmpG:red>
                           <xmpG:green>0</xmpG:green>
                           <xmpG:blue>0</xmpG:blue>
                        </rdf:li>
                        <rdf:li rdf:parseType="Resource">
                           <xmpG:swatchName>R=26 G=26 B=26</xmpG:swatchName>
                           <xmpG:mode>RGB</xmpG:mode>
                           <xmpG:type>PROCESS</xmpG:type>
                           <xmpG:red>26</xmpG:red>
                           <xmpG:green>26</xmpG:green>
                           <xmpG:blue>26</xmpG:blue>
                        </rdf:li>
                        <rdf:li rdf:parseType="Resource">
                           <xmpG:swatchName>R=51 G=51 B=51</xmpG:swatchName>
                           <xmpG:mode>RGB</xmpG:mode>
                           <xmpG:type>PROCESS</xmpG:type>
                           <xmpG:red>51</xmpG:red>
                           <xmpG:green>51</xmpG:green>
                           <xmpG:blue>51</xmpG:blue>
                        </rdf:li>
                        <rdf:li rdf:parseType="Resource">
                           <xmpG:swatchName>R=77 G=77 B=77</xmpG:swatchName>
                           <xmpG:mode>RGB</xmpG:mode>
                           <xmpG:type>PROCESS</xmpG:type>
                           <xmpG:red>77</xmpG:red>
                           <xmpG:green>77</xmpG:green>
                           <xmpG:blue>77</xmpG:blue>
                        </rdf:li>
                        <rdf:li rdf:parseType="Resource">
                           <xmpG:swatchName>R=102 G=102 B=102</xmpG:swatchName>
                           <xmpG:mode>RGB</xmpG:mode>
                           <xmpG:type>PROCESS</xmpG:type>
                           <xmpG:red>102</xmpG:red>
                           <xmpG:green>102</xmpG:green>
                           <xmpG:blue>102</xmpG:blue>
                        </rdf:li>
                        <rdf:li rdf:parseType="Resource">
                           <xmpG:swatchName>R=128 G=128 B=128</xmpG:swatchName>
                           <xmpG:mode>RGB</xmpG:mode>
                           <xmpG:type>PROCESS</xmpG:type>
                           <xmpG:red>128</xmpG:red>
                           <xmpG:green>128</xmpG:green>
                           <xmpG:blue>128</xmpG:blue>
                        </rdf:li>
                        <rdf:li rdf:parseType="Resource">
                           <xmpG:swatchName>R=153 G=153 B=153</xmpG:swatchName>
                           <xmpG:mode>RGB</xmpG:mode>
                           <xmpG:type>PROCESS</xmpG:type>
                           <xmpG:red>153</xmpG:red>
                           <xmpG:green>153</xmpG:green>
                           <xmpG:blue>153</xmpG:blue>
                        </rdf:li>
                        <rdf:li rdf:parseType="Resource">
                           <xmpG:swatchName>R=179 G=179 B=179</xmpG:swatchName>
                           <xmpG:mode>RGB</xmpG:mode>
                           <xmpG:type>PROCESS</xmpG:type>
                           <xmpG:red>179</xmpG:red>
                           <xmpG:green>179</xmpG:green>
                           <xmpG:blue>179</xmpG:blue>
                        </rdf:li>
                        <rdf:li rdf:parseType="Resource">
                           <xmpG:swatchName>R=204 G=204 B=204</xmpG:swatchName>
                           <xmpG:mode>RGB</xmpG:mode>
                           <xmpG:type>PROCESS</xmpG:type>
                           <xmpG:red>204</xmpG:red>
                           <xmpG:green>204</xmpG:green>
                           <xmpG:blue>204</xmpG:blue>
                        </rdf:li>
                        <rdf:li rdf:parseType="Resource">
                           <xmpG:swatchName>R=230 G=230 B=230</xmpG:swatchName>
                           <xmpG:mode>RGB</xmpG:mode>
                           <xmpG:type>PROCESS</xmpG:type>
                           <xmpG:red>230</xmpG:red>
                           <xmpG:green>230</xmpG:green>
                           <xmpG:blue>230</xmpG:blue>
                        </rdf:li>
                        <rdf:li rdf:parseType="Resource">
                           <xmpG:swatchName>R=242 G=242 B=242</xmpG:swatchName>
                           <xmpG:mode>RGB</xmpG:mode>
                           <xmpG:type>PROCESS</xmpG:type>
                           <xmpG:red>242</xmpG:red>
                           <xmpG:green>242</xmpG:green>
                           <xmpG:blue>242</xmpG:blue>
                        </rdf:li>
                     </rdf:Seq>
                  </xmpG:Colorants>
               </rdf:li>
               <rdf:li rdf:parseType="Resource">
                  <xmpG:groupName>Web カラーグループ</xmpG:groupName>
                  <xmpG:groupType>1</xmpG:groupType>
                  <xmpG:Colorants>
                     <rdf:Seq>
                        <rdf:li rdf:parseType="Resource">
                           <xmpG:swatchName>R=63 G=169 B=245</xmpG:swatchName>
                           <xmpG:mode>RGB</xmpG:mode>
                           <xmpG:type>PROCESS</xmpG:type>
                           <xmpG:red>63</xmpG:red>
                           <xmpG:green>169</xmpG:green>
                           <xmpG:blue>245</xmpG:blue>
                        </rdf:li>
                        <rdf:li rdf:parseType="Resource">
                           <xmpG:swatchName>R=122 G=201 B=67</xmpG:swatchName>
                           <xmpG:mode>RGB</xmpG:mode>
                           <xmpG:type>PROCESS</xmpG:type>
                           <xmpG:red>122</xmpG:red>
                           <xmpG:green>201</xmpG:green>
                           <xmpG:blue>67</xmpG:blue>
                        </rdf:li>
                        <rdf:li rdf:parseType="Resource">
                           <xmpG:swatchName>R=255 G=147 B=30</xmpG:swatchName>
                           <xmpG:mode>RGB</xmpG:mode>
                           <xmpG:type>PROCESS</xmpG:type>
                           <xmpG:red>255</xmpG:red>
                           <xmpG:green>147</xmpG:green>
                           <xmpG:blue>30</xmpG:blue>
                        </rdf:li>
                        <rdf:li rdf:parseType="Resource">
                           <xmpG:swatchName>R=255 G=29 B=37</xmpG:swatchName>
                           <xmpG:mode>RGB</xmpG:mode>
                           <xmpG:type>PROCESS</xmpG:type>
                           <xmpG:red>255</xmpG:red>
                           <xmpG:green>29</xmpG:green>
                           <xmpG:blue>37</xmpG:blue>
                        </rdf:li>
                        <rdf:li rdf:parseType="Resource">
                           <xmpG:swatchName>R=255 G=123 B=172</xmpG:swatchName>
                           <xmpG:mode>RGB</xmpG:mode>
                           <xmpG:type>PROCESS</xmpG:type>
                           <xmpG:red>255</xmpG:red>
                           <xmpG:green>123</xmpG:green>
                           <xmpG:blue>172</xmpG:blue>
                        </rdf:li>
                        <rdf:li rdf:parseType="Resource">
                           <xmpG:swatchName>R=189 G=204 B=212</xmpG:swatchName>
                           <xmpG:mode>RGB</xmpG:mode>
                           <xmpG:type>PROCESS</xmpG:type>
                           <xmpG:red>189</xmpG:red>
                           <xmpG:green>204</xmpG:green>
                           <xmpG:blue>212</xmpG:blue>
                        </rdf:li>
                     </rdf:Seq>
                  </xmpG:Colorants>
               </rdf:li>
            </rdf:Seq>
         </xmpTPg:SwatchGroups>
      </rdf:Description>
      <rdf:Description rdf:about=""
            xmlns:pdf="http://ns.adobe.com/pdf/1.3/">
         <pdf:Producer>Adobe PDF library 10.01</pdf:Producer>
      </rdf:Description>
   </rdf:RDF>
</x:xmpmeta>
                                                                                                    
                                                                                                    
                                                                                                    
                                                                                                    
                                                                                                    
                                                                                                    
                                                                                                    
                                                                                                    
                                                                                                    
                                                                                                    
                                                                                                    
                                                                                                    
                                                                                                    
                                                                                                    
                                                                                                    
                                                                                                    
                                                                                                    
                                                                                                    
                                                                                                    
                                                                                                    
                           
<?xpacket end="w"?>
	</metadata>
<g>
	<g>
		<path fill="#210701" d="M11.753,8.528c0.155,0.208,3.926,4.55,6.968,6.526c0.442,0.286,2.393,1.456,2.73,1.742
			c0.156,0.104,0.572,0.468,0.572,0.962c0,0.598-0.625,0.78-1.093,0.78c-0.754,0-2.729,0-9.178-7.8
			c-0.313-0.364-1.587-1.977-1.872-2.288c-0.131-0.131-0.442-0.39-0.78-0.39c-0.442,0-0.468,0-4.134,3.405
			c-0.677,0.624-0.729,0.677-1.171,1.326c-0.26,0.391-0.728,0.807-1.3,0.807c-0.52,0-0.857-0.13-2.184-1.509
			C0.208,11.96,0,11.752,0,11.285c0-0.13,0.026-0.312,0.182-0.312c0.131,0,0.677,0.104,0.807,0.104c1.196,0,2.521-0.494,5.772-3.12
			C7.982,6.968,8.398,6.63,9.127,6.63C10.166,6.63,11.051,7.645,11.753,8.528z M19.423,6.838c0,1.404-1.144,2.548-2.47,2.548
			c-1.196,0-2.522-0.988-2.522-2.522c0-1.299,1.014-2.495,2.548-2.495C18.851,4.369,19.423,5.981,19.423,6.838z M15.289,6.917
			c0,1.118,0.987,1.586,1.689,1.586c1.118,0,1.612-0.988,1.612-1.586c0-1.015-0.962-1.664-1.664-1.664
			C16.329,5.252,15.289,5.773,15.289,6.917z"/>
		<path fill="#210701" d="M37.18,14.223c0,0.728-0.598,0.987-0.884,0.987c-0.572,0-0.754-0.598-0.936-1.17
			c-0.234-0.728-0.807-1.742-1.509-2.626c-0.13-0.182-0.182-0.26-0.182-0.338c0-0.156,0.156-0.234,0.338-0.234
			C34.632,10.842,37.18,12.143,37.18,14.223z M45.215,8.867c0-0.026-0.053-0.156-0.053-0.234c0-0.13,0.104-0.182,0.183-0.182
			c0.208,0,0.987,0.546,1.17,0.65c0.416,0.208,1.456,0.832,1.456,1.585c0,0.208-0.104,0.234-0.546,0.495
			c-0.208,0.129-1.118,1.897-1.326,2.235c-3.979,6.604-10.375,9.179-10.583,9.179c-0.078,0-0.155-0.078-0.155-0.156
			c0-0.13,1.222-0.91,1.456-1.092c5.538-4.238,8.58-9.126,8.58-11.363C45.396,9.464,45.345,9.178,45.215,8.867z M41.158,11.389
			c0,0.754-0.416,1.326-0.884,1.326c-0.572,0-0.702-0.649-0.78-1.092c-0.182-0.832-0.26-1.065-0.962-2.471
			c-0.052-0.104-0.286-0.467-0.286-0.571c0-0.078,0.13-0.156,0.26-0.13C39.729,8.632,41.158,9.933,41.158,11.389z"/>
		<path fill="#210701" d="M67.549,2.184c0.936,0,2.808,0.832,2.808,1.664c0,0.182-0.26,0.937-0.312,1.092
			c-0.13,0.65-0.234,2.963-0.234,3.614c0,0.572,0.104,0.65,0.858,0.832c1.586,0.364,5.616,2.262,5.616,4.213
			c0,0.857-0.807,0.91-0.937,0.91c-0.649,0-0.728-0.104-2.47-2.366c-0.729-0.962-1.95-2.185-2.756-2.185
			c-0.26,0-0.364,0-0.364,1.924c0,2.756,0.026,4.135,0.13,6.475c0.026,0.286,0.052,0.937,0.052,1.326c0,0.65,0,2.366-0.754,2.366
			c-0.78,0-1.456-1.768-1.456-2.444c0-0.104,0.104-0.65,0.104-0.754c0.182-2.158,0.233-2.834,0.233-6.032
			c0-7.437,0-8.269-0.312-9.101c-0.208-0.546-0.468-0.806-0.884-1.196L66.82,2.418C66.847,2.184,67.522,2.184,67.549,2.184z"/>
		<path fill="#210701" d="M95.057,7.827c-0.156-0.234-0.183-0.286-0.183-0.364c0-0.13,0.104-0.156,0.234-0.156
			c1.378,0,3.302,1.534,3.302,2.211c0,0.233-0.13,0.312-0.468,0.545c-0.39,0.234-0.546,0.495-1.066,1.222
			c-3.146,4.498-7.514,6.136-7.878,6.136c-0.156,0-0.208-0.13-0.208-0.182c0-0.104,0.078-0.182,0.728-0.702
			c4.005-3.328,5.824-6.916,5.824-7.852C95.342,8.269,95.212,8.061,95.057,7.827z M102.519,7.645c0.13,0,1.3,0.467,2.601,1.352
			c1.846,1.274,4.186,3.718,4.186,5.46c0,0.39-0.182,1.508-1.3,1.508c-0.937,0-1.378-0.936-1.794-2.288
			c-0.572-1.768-1.04-2.834-2.704-4.628c-0.183-0.182-1.17-1.092-1.17-1.17C102.337,7.749,102.389,7.645,102.519,7.645z
			 M109.643,7.125c0,0.442-0.312,1.014-0.754,1.014c-0.364,0-0.572-0.156-1.378-1.144c-0.39-0.494-0.572-0.65-1.82-1.561
			c-0.26-0.182-0.39-0.26-0.39-0.364c0-0.104,0.208-0.233,0.441-0.233C108.811,4.836,109.643,6.63,109.643,7.125z M111.931,4.55
			c0,0.312-0.208,0.754-0.649,0.754c-0.547,0-0.832-0.338-1.353-0.936c-0.416-0.442-1.481-1.066-2.34-1.378
			c-0.26-0.079-0.338-0.183-0.338-0.261c0-0.208,0.649-0.363,0.962-0.363C111.411,2.367,111.931,4.056,111.931,4.55z"/>
		<path fill="#210701" d="M131.456,6.787c-0.182,0-5.642,1.274-5.772,1.325c-0.182,0.053-0.987,0.495-1.17,0.495
			c-0.39,0-1.611-0.78-1.768-0.936c-0.183-0.182-0.624-1.326-0.624-1.508c0-0.13,0.025-0.208,0.155-0.208
			c0.026,0,0.599,0.156,0.677,0.182c0.806,0.234,1.118,0.261,1.378,0.261c0.884,0,5.772-0.416,7.124-0.963
			c0.234-0.104,1.196-0.806,1.431-0.806c0.623,0,2.21,1.326,2.21,1.977c0,0.233-0.962,0.936-1.118,1.117
			c-0.521,0.624-2.574,3.667-2.99,4.265c-0.104,0.13-0.208,0.312-0.208,0.52c0,0.234,0.052,0.286,1.144,0.885
			c1.17,0.676,5.824,3.302,5.824,5.668c0,0.598-0.468,1.144-1.065,1.144c-0.599,0-0.702-0.182-1.612-1.794
			c-1.794-3.146-4.082-5.122-4.654-5.122c-0.26,0-0.338,0.078-0.91,0.729c-0.91,0.962-3.562,3.874-6.942,5.563
			c-0.702,0.339-1.403,0.598-1.611,0.598c-0.053,0-0.183,0-0.183-0.156c0-0.104,1.04-0.858,1.196-0.962
			c6.786-4.914,9.88-11.648,9.803-12.064C131.716,6.787,131.508,6.787,131.456,6.787z"/>
		<path fill="#210701" d="M154.519,13.313c-1.56,3.38-4.29,4.939-4.811,4.939c-0.104,0-0.13-0.078-0.13-0.13
			c0-0.208,0.832-1.118,1.04-1.378c2.86-3.926,3.146-6.76,3.146-7.618c0-0.676-0.026-0.962-0.442-2.236
			c-0.052-0.182-0.104-0.338-0.104-0.468c0-0.078,0.025-0.13,0.13-0.13c0.182,0,2.938,0.884,2.938,2.21
			C156.287,8.581,154.961,12.325,154.519,13.313z M158.73,15.731c0-0.13,0.13-0.806,0.156-0.937
			c0.078-0.494,0.104-2.548,0.104-3.198c0-3.172-0.312-4.238-0.493-4.888c-0.053-0.13-0.339-0.807-0.339-0.936
			c0-0.104,0.104-0.131,0.156-0.131c0.13,0,2.861,0.468,2.861,1.82c0,0.312-0.365,1.664-0.416,1.95
			c-0.105,0.702-0.209,3.848-0.209,4.706c0,0.338,0.027,0.858,0.494,0.858c0.781,0,3.172-1.716,5.668-4.238
			c0.443-0.442,2.652-2.782,2.756-2.782c0.053,0,0.105,0.052,0.105,0.104c0,0.208-1.508,3.432-6.059,7.436
			c-1.352,1.17-1.613,1.43-1.795,1.664c-0.441,0.494-0.676,0.676-0.857,0.702C160.108,17.993,158.73,16.458,158.73,15.731z"/>
		<path fill="#210701" d="M196.666,10.791c0.154,0,0.441-0.025,0.57-0.025c1.586,0,1.82,0.962,1.82,1.144
			c0,0.728-1.066,0.806-2.158,0.806c-0.598,0-3.197-0.052-3.717-0.052c-3.588,0-9.543,0.338-10.168,0.468
			c-0.311,0.053-1.715,0.469-2.027,0.469c-1.117,0-2.314-1.612-2.314-2.497c0-0.155,0.078-0.312,0.209-0.312
			c0.129,0,0.754,0.286,0.883,0.312c0.443,0.13,1.51,0.234,3.174,0.234C183.794,11.336,192.869,10.999,196.666,10.791z"/>
		<path fill="#210701" d="M214.242,15.653c0.805,0,2.547-0.156,5.979-0.754c3.822-0.65,3.822-0.78,3.822-1.092
			c0-0.313-0.232-0.807-0.754-1.534c-0.207-0.338-0.598-0.91-0.598-0.988s0.078-0.156,0.182-0.156c0.754,0,4.682,3.198,4.682,5.746
			c0,1.742-1.248,1.82-1.432,1.82c-0.883,0-0.988-0.65-1.326-2.366c-0.232-1.248-0.338-1.482-0.727-1.482
			c-0.131,0-6.008,1.794-7.125,2.106c-0.701,0.182-4.107,0.962-4.342,1.066c-0.182,0.078-0.807,0.832-0.988,0.832
			c-0.234,0-0.234-0.026-1.379-1.145c-0.311-0.312-0.676-1.82-0.676-2.08c0-0.078,0-0.182,0.105-0.182
			c0.129,0,0.648,0.208,0.754,0.234c0.207,0.052,0.623,0.13,0.936,0.13c1.092,0,1.611-0.338,3.016-2.887
			c1.145-2.106,3.484-6.838,3.484-8.814c0-0.13-0.053-0.754-0.053-0.858c0-0.131,0.027-0.286,0.184-0.286
			c0.182,0,2.572,1.742,2.572,2.652c0,0.441-0.285,0.702-0.805,1.196c-0.416,0.39-3.406,5.069-4.057,6.006
			c-0.285,0.39-1.768,2.314-1.795,2.418C213.876,15.497,214.007,15.653,214.242,15.653z"/>
		<path fill="#210701" d="M241.437,6.917c0.467,0.286,0.52,0.313,0.52,0.468c0,0.13-0.469,0.598-0.52,0.728
			c-0.184,0.365-0.184,3.303-0.184,3.979c0,0.962,0.027,6.656,0.105,8.425c0,0.234,0.104,1.326,0.104,1.56
			c0,1.223-0.857,1.69-1.326,1.69c-0.65,0-0.65-0.65-0.65-0.988c0-1.534,0.104-9.1,0.104-10.79c0-0.521,0-0.806-0.051-2.054
			c0-0.131-0.025-0.729-0.313-0.729c-0.156,0-0.313,0.182-0.701,0.598c-0.131,0.131-2.158,2.185-2.523,2.185
			c-0.104,0-0.156-0.052-0.156-0.156c0-0.078,0.053-0.156,0.184-0.312c0.883-1.196,1.924-2.86,2.729-4.161
			c2.029-3.329,2.836-6.163,2.861-6.474C241.697,0.104,241.697,0,241.904,0c0.365,0,2.627,1.274,2.627,1.69
			c0,0.208-0.131,0.261-0.547,0.494c-0.311,0.156-2.912,3.979-2.834,4.421C241.177,6.734,241.332,6.864,241.437,6.917z M252.955,13
			c-0.701,0-0.729,0.156-0.807,1.612c-0.051,1.04-0.338,2.574-0.598,3.692c0.131,0.442,3.953,2.21,7.854,2.21
			c0.779,0,0.986,0,0.986,0.13c0,0.078-0.311,0.286-0.389,0.364c-0.729,0.754-1.041,1.092-1.275,1.56
			c-0.232,0.494-0.26,0.546-0.389,0.546c-0.287,0-2.574-0.416-5.902-2.365c-0.26-0.157-1.248-0.91-1.508-0.91
			c-0.182,0-0.703,0.702-1.041,1.014c-0.988,0.937-2.574,2.08-6.006,2.626c-0.131,0.025-0.547,0.078-0.676,0.078
			c-0.104,0-0.209-0.078-0.209-0.13c0-0.156,0.027-0.183,0.832-0.416c4.604-1.326,5.643-4.03,5.643-4.291
			c0-0.156-0.234-0.39-0.676-0.858c-1.533-1.534-2.027-3.354-2.027-3.64c0-0.208,0.129-0.261,0.207-0.261
			c0.156,0,0.234,0.156,0.391,0.494c0.729,1.664,2.34,2.99,2.521,2.99c0.287,0,0.52-2.496,0.52-3.51
			c0-0.391-0.051-0.937-0.832-0.937h-2.547c-0.469,0-0.52,0.13-0.729,0.676c-0.129,0.364-0.494,0.598-1.248,0.598
			c-0.182,0-0.676,0-0.676-0.754c0-0.468,0.078-2.497,0.078-2.913c0-0.52-0.078-2.834-0.078-3.302c0-0.312,0.053-0.39,0.26-0.39
			c0.209,0,1.041,0.468,1.223,0.546c0.416,0.208,0.65,0.26,1.326,0.26h2.418c0.754,0,0.754-0.52,0.754-0.624
			c0-2.288,0-2.574-0.807-2.574h-1.145c-0.598,0-2.365,0-3.275,0.078c-0.104,0-0.469,0.052-0.547,0.052
			c-0.104,0-0.154-0.052-0.232-0.155L243.828,3.9c-0.078-0.104-0.104-0.13-0.104-0.157c0-0.051,0.025-0.077,0.104-0.077
			c0.184,0,0.988,0.077,1.145,0.104c1.197,0.052,2.34,0.078,3.563,0.078h0.963c0.545,0,0.727-0.234,0.727-0.676
			c0-0.468-0.051-1.04-0.078-1.353c-0.025-0.208-0.182-1.17-0.182-1.378c0-0.312,0.156-0.363,0.391-0.363
			c0.285,0,2.34,0.285,2.34,0.857c0,0.13-0.363,0.52-0.391,0.624c-0.104,0.338-0.129,0.702-0.129,1.664
			c0,0.624,0.52,0.624,0.779,0.624h2.002c1.17,0,1.301,0,1.664-0.441c0.729-0.858,0.807-0.963,1.066-0.963
			c0.338,0,2.002,1.431,2.002,1.717c0,0.364-0.547,0.364-1.404,0.364h-5.33c-0.156,0-0.779,0-0.779,0.676
			c0,2.444,0,2.521,0.754,2.521h2.625c0.65,0,0.781-0.077,1.066-0.442c0.26-0.337,0.441-0.416,0.598-0.416
			c0.391,0,1.82,0.937,1.82,1.223c0,0.156-0.025,0.183-0.389,0.468c-0.469,0.364-0.469,0.547-0.469,2.185
			c0,0.442,0.053,2.522,0,2.834c-0.025,0.364-0.52,0.936-1.145,0.936c-0.623,0-0.676-0.442-0.729-0.988
			C256.283,13.313,256.257,13,255.66,13H252.955z M247.13,8.398c-0.832,0-0.832,0.208-0.832,1.951c0,1.794,0,1.976,0.832,1.976
			h2.471c0.832,0,0.832-0.182,0.832-1.95c0-1.768,0-1.976-0.832-1.976H247.13z M255.632,12.325c0.547,0,0.729-0.26,0.729-0.754
			c0-0.313,0-2.548-0.025-2.652c-0.027-0.233-0.131-0.52-0.703-0.52h-2.678c-0.363,0-0.754,0.079-0.754,0.728
			c0,0.364,0,2.601,0.025,2.704c0.053,0.286,0.209,0.494,0.729,0.494H255.632z"/>
		<path fill="#210701" d="M271.363,14.794c-0.754,0-0.754,0.208-0.859,1.145c-0.441,4.55-3.328,7.332-3.717,7.332
			c-0.105,0-0.156-0.078-0.156-0.13c0-0.026,0.623-1.04,0.727-1.248c1.066-2.21,1.51-4.498,1.51-10.973
			c0-2.054-0.053-6.318-0.234-8.242c-0.027-0.286-0.209-1.768-0.209-1.82c0-0.155,0.027-0.208,0.182-0.208
			c0.287,0,1.016,0.313,1.301,0.442c0.91,0.468,1.223,0.598,2.055,0.598h12.715c0.57,0,0.727-0.13,0.91-0.312
			c0.441-0.468,0.467-0.521,0.648-0.521c0.209,0,2.107,1.066,2.107,1.482c0,0.234-0.209,0.39-0.416,0.494
			c-0.6,0.312-0.676,0.338-0.676,2.808c0,2.132,0.154,11.727,0.154,13.937c0,1.145,0,4.03-2.418,4.03
			c-0.232,0-0.26-0.052-0.441-0.571c-0.363-0.937-1.949-1.482-2.184-1.534c-0.078-0.026-0.469-0.104-0.469-0.261
			c0-0.104,0.182-0.155,0.313-0.155c0.338,0,1.977,0.129,2.34,0.129c1.014,0,1.041-0.286,1.041-3.588c0-0.338,0-2.158-0.053-2.366
			c-0.104-0.468-0.494-0.468-0.779-0.468h-5.279c-0.701,0-0.832,0.26-0.807,1.015c0.027,1.872,0.027,4.004,0.027,6.006
			c0,0.494-0.078,0.676-0.26,0.858c-0.234,0.208-0.703,0.468-1.223,0.468s-0.547-0.338-0.547-0.676c0-0.961,0.156-5.746,0.156-6.838
			c0-0.572-0.182-0.832-0.805-0.832H271.363z M276.093,7.619c0.781,0,0.781,0,0.781-2.626c0-2.522,0-2.601-0.781-2.601h-4.73
			c-0.781,0-0.781,0.104-0.781,2.262c0,2.965,0.027,2.965,0.807,2.965H276.093z M276.093,14.093c0.234,0,0.547-0.026,0.678-0.312
			c0.104-0.208,0.104-2.704,0.104-3.042c0-2.314,0-2.419-0.781-2.419h-4.73c-0.287,0-0.625,0.053-0.729,0.469
			c-0.025,0.13-0.025,3.796-0.025,4.395c0,0.416,0,0.91,0.754,0.91H276.093z M279.449,2.392c-0.338,0-0.676,0.052-0.781,0.468
			c-0.025,0.156-0.025,3.146-0.025,3.77c0,0.546,0,0.988,0.807,0.988h5.174c0.807,0,0.807-0.286,0.807-1.769
			c0-3.458-0.027-3.458-0.859-3.458H279.449z M279.449,8.32c-0.807,0-0.807,0.079-0.807,2.471c0,0.416,0,2.756,0.104,2.964
			c0.131,0.338,0.521,0.338,0.703,0.338h5.305c0.779,0,0.779-0.182,0.779-1.898c0-3.822-0.025-3.875-0.832-3.875H279.449z"/>
		<path fill="#210701" d="M303.005,9.309c-0.156,0-0.781,0.025-0.781,0.441c0,0.104,0.105,0.208,0.209,0.26
			c1.482,0.78,4.057,2.652,4.057,4.057c0,0.364-0.209,1.092-0.938,1.092c-0.494,0-0.598-0.312-0.91-1.3
			c-0.623-1.95-2.236-3.433-2.34-3.433c-0.129,0-0.129,0.078-0.129,0.572c0,0.624,0.051,3.666,0.051,4.342
			c0.027,0.988,0.105,5.772,0.105,6.864c0,1.196-1.119,1.378-1.248,1.378c-0.313,0-0.729-0.234-0.729-0.807
			c0-0.572,0.207-3.38,0.234-4.004c0.025-0.338,0.154-4.992,0.154-5.227c0-0.155-0.051-0.286-0.232-0.286
			c-0.131,0-0.184,0.078-0.572,0.832c-1.066,1.95-3.355,5.044-3.693,5.044c-0.051,0-0.078-0.026-0.078-0.078
			c0-0.052,0.365-0.702,0.443-0.832c2.859-5.513,3.354-8.165,3.354-8.347c0-0.234-0.156-0.571-0.598-0.571
			c-0.469,0-1.898,0.077-2.34,0.104c-0.053,0-0.313,0.026-0.365,0.026c-0.104,0-0.154-0.052-0.232-0.156l-0.494-0.598
			c-0.131-0.131-0.131-0.131-0.131-0.183s0.053-0.052,0.104-0.052c0.131,0,0.781,0.078,0.938,0.078
			c0.494,0.026,2.859,0.104,3.197,0.104c0.625,0,0.779-0.234,0.779-0.754c0-1.481-0.051-4.135-0.104-5.512
			c-0.025-0.287-0.182-1.612-0.182-1.898c0-0.13,0.053-0.286,0.207-0.286c0.053,0,2.574,0.494,2.574,0.962
			c0,0.13-0.051,0.156-0.26,0.364c-0.207,0.156-0.416,0.39-0.572,1.066c0,0.052-0.232,5.096-0.232,5.355
			c0,0.702,0.494,0.702,0.91,0.702c0.285,0,0.857,0,1.064-0.182c0.156-0.156,0.885-1.222,1.145-1.222
			c0.131,0,2.027,1.377,2.027,1.741c0,0.339-0.285,0.339-0.986,0.339H303.005z M298.402,7.072c-0.52,0-0.598-0.415-0.832-1.56
			c-0.26-1.196-0.857-2.158-1.248-2.808c-0.025-0.052-0.078-0.129-0.078-0.208c0-0.104,0.105-0.156,0.184-0.156
			c0.441,0,3.016,1.82,3.016,3.484C299.443,6.787,298.662,7.072,298.402,7.072z M303.394,7.514c-0.025,0-0.051,0-0.051-0.077
			c0-0.079,0.494-1.119,0.598-1.327c0.494-1.144,1.117-3.094,1.17-4.186c0-0.078,0.025-0.234,0.156-0.234
			c0.207,0,2.08,1.274,2.08,1.561c0,0.156-0.156,0.26-0.234,0.312c-0.156,0.078-0.572,0.286-0.807,0.521
			C306.228,4.161,303.707,7.514,303.394,7.514z M308.802,16.225c-1.117,0.233-2.496,0.546-3.197,0.754
			c-0.104,0.026-0.469,0.156-0.572,0.156c-0.078,0-0.131-0.026-0.207-0.104l-0.625-0.494c-0.131-0.104-0.131-0.104-0.131-0.156
			s0.053-0.052,0.703-0.13c0.182-0.025,2.158-0.312,4.029-0.702l4.057-0.858c0.807-0.182,0.807-0.884,0.807-0.937
			c0-4.784-0.131-9.594-0.26-11.284c-0.027-0.286-0.234-1.638-0.234-1.924c0-0.13,0.078-0.234,0.207-0.234
			c0.156,0,2.68,0.442,2.68,0.884c0,0.156-0.494,0.624-0.572,0.729c-0.131,0.286-0.234,0.702-0.26,0.884
			c0,0.104-0.027,4.16-0.027,4.888c0,1.171,0,5.045,0.027,5.929c0,0.234,0.232,0.442,0.492,0.442c0.105,0,0.494-0.078,0.625-0.313
			c0.156-0.26,0.65-1.534,0.91-1.534c0.078,0,2.236,1.014,2.236,1.43c0,0.39-0.781,0.572-0.91,0.598l-2.6,0.521
			c-0.443,0.078-0.703,0.39-0.703,0.832c0,1.092,0.26,6.214,0.26,6.76c0,0.91-0.832,1.326-1.326,1.326
			c-0.441,0-0.754-0.338-0.754-0.858c0-0.233,0.078-1.352,0.078-1.586c0.027-1.066,0.104-4.004,0.104-4.732
			c0-0.624,0-1.274-0.754-1.118L308.802,16.225z M310.675,12.298c-0.547,0-0.625-0.312-0.807-0.91
			c-0.129-0.468-1.066-2.184-1.768-2.886c-0.131-0.13-0.26-0.233-0.26-0.338c0-0.078,0.104-0.104,0.156-0.104
			c0.416,0,3.535,1.325,3.535,3.171C311.533,12.273,310.804,12.298,310.675,12.298z M310.91,5.773c-0.494,0-0.781-0.572-0.988-0.963
			c-0.416-0.806-0.676-1.04-1.535-1.846c-0.129-0.13-0.156-0.156-0.156-0.234s0.053-0.078,0.184-0.078
			c0.078,0,3.223,0.494,3.223,2.133C311.636,4.888,311.636,5.773,310.91,5.773z"/>
	</g>
	<g>
		<path fill="#4A1F00" d="M5.707,33.575c0.456,0,3.418,0,3.418,2.267c0,1.247-0.959,2.339-3.106,2.339H4.868
			c-0.324,0-0.324,0.096-0.324,1.008c0,2.194,0,2.206,0.132,2.41c0.192,0.275,0.492,0.336,0.804,0.336c0.264,0,0.408,0,0.408,0.191
			c0,0.192-0.168,0.192-0.336,0.192H2.589c-0.18,0-0.348,0-0.348-0.192c0-0.191,0.18-0.191,0.3-0.191c0.408,0,0.923,0,1.043-0.624
			c0.036-0.191,0.036-0.204,0.036-3.394c0-0.563,0-3.13-0.036-3.334c-0.108-0.576-0.624-0.612-0.912-0.612
			c-0.3,0-0.432,0-0.432-0.191c0-0.204,0.168-0.204,0.348-0.204H5.707z M5.779,37.785c1.583,0,2.207-0.876,2.207-1.896
			c0-1.319-0.971-1.919-2.063-1.919H5.407c-0.863,0-0.863,0.528-0.863,1.571c0,0.168,0,1.871,0.012,1.979
			c0.024,0.18,0.156,0.264,0.312,0.264H5.779z"/>
		<path fill="#4A1F00" d="M12.068,39.176c-0.156,0-0.384,0-0.384,0.383c0,1.463,0.996,2.471,1.991,2.471
			c0.552,0,1.08-0.323,1.451-0.672c0.072-0.06,0.348-0.467,0.456-0.467c0.06,0,0.12,0.06,0.12,0.155
			c0,0.264-0.839,1.499-2.422,1.499c-1.679,0-2.626-1.331-2.626-3.07c0-1.99,1.235-3.046,2.542-3.046
			c1.859,0,2.387,1.967,2.387,2.471c0,0.216-0.12,0.276-0.36,0.276H12.068z M14.275,38.78c0.264,0,0.396-0.06,0.396-0.348
			c0-0.456-0.432-1.68-1.439-1.68c-1.116,0-1.463,1.5-1.463,1.764s0.204,0.264,0.312,0.264H14.275z"/>
		<path fill="#4A1F00" d="M17.373,37.041c-0.132,0-0.324,0-0.324-0.191c0-0.156,0.06-0.168,0.408-0.216
			c0.192-0.024,1.199-0.264,1.199-1.799c0-0.108,0-0.276,0.156-0.276c0.192,0,0.192,0.18,0.192,0.252v1.547
			c0,0.108,0.036,0.3,0.3,0.3h1.271c0.12,0,0.336,0.024,0.336,0.192c0,0.071-0.072,0.191-0.324,0.191h-1.283
			c-0.036,0-0.216,0.013-0.276,0.156c-0.048,0.132-0.048,1.476-0.048,1.715c0,0.36,0,2.278,0.036,2.446
			c0.156,0.672,0.708,0.672,0.828,0.672c0.252,0,0.54-0.096,0.804-0.3c0.072-0.048,0.348-0.323,0.432-0.323
			c0.048,0,0.072,0.048,0.072,0.096c0,0.216-0.743,1.043-1.751,1.043c-1.259,0-1.259-0.947-1.259-2.158c0-0.036,0.024-2.639,0-3.047
			c0-0.06-0.012-0.3-0.3-0.3H17.373z"/>
		<path fill="#4A1F00" d="M30.643,33.575c1.343,0,3.046,0.444,3.046,1.931c0,0.936-0.696,1.655-1.451,1.943
			c-0.072,0.024-0.288,0.108-0.288,0.168s0.504,0.168,0.6,0.203c1.031,0.408,1.643,1.248,1.643,2.087c0,1.14-1.02,2.411-3.262,2.411
			h-4.018c-0.18,0-0.36,0-0.36-0.192c0-0.191,0.18-0.191,0.372-0.191c0.396,0,0.924,0,1.032-0.624
			c0.048-0.239,0.072-3.621,0.072-4.089c0-0.528,0.012-2.483-0.108-2.807c-0.156-0.444-0.72-0.444-0.839-0.444
			c-0.396,0-0.528,0-0.528-0.203c0-0.192,0.12-0.192,0.468-0.192H30.643z M29.24,37.88c-0.084,0-0.228,0.048-0.276,0.155
			c-0.048,0.108-0.048,1.812-0.048,2.088c0,1.307,0,1.811,0.875,1.811h1.043c1.295,0,2.219-0.731,2.219-1.99
			c0-1.056-0.72-2.063-2.183-2.063H29.24z M30.535,37.497c1.127,0,2.039-0.6,2.039-1.823c0-1.163-0.803-1.703-1.931-1.703h-0.852
			c-0.864,0-0.864,0.54-0.864,1.583c0,0.6,0,1.68,0.036,1.787c0.048,0.108,0.204,0.156,0.276,0.156H30.535z"/>
		<path fill="#4A1F00" d="M40.074,38.06c0.012,0.408-0.012,2.363-0.012,2.807c0,0.563,0,1.067,0.479,1.067
			c0.12,0,0.312-0.072,0.384-0.132c0.012-0.013,0.084-0.072,0.096-0.072c0.024,0,0.06,0.013,0.06,0.072
			c0,0.216-0.492,0.743-1.008,0.743c-0.384,0-0.695-0.287-0.792-0.539c-0.024-0.084-0.06-0.192-0.168-0.192
			c-0.072,0-0.18,0.084-0.288,0.168c-0.468,0.36-1.056,0.563-1.583,0.563c-0.72,0-1.523-0.383-1.523-1.271
			c0-1.427,2.015-2.038,2.71-2.242c0.72-0.216,0.792-0.24,0.792-0.863c0-1.031-0.576-1.416-1.127-1.416
			c-0.792,0-0.924,0.564-0.959,0.732c-0.084,0.359-0.168,0.791-0.636,0.791c-0.312,0-0.564-0.252-0.564-0.587
			c0-0.708,1.164-1.26,2.171-1.26C39.055,36.429,40.05,36.861,40.074,38.06z M39.139,41.274c0.06-0.144,0.084-0.191,0.084-1.606
			c0-0.24,0-0.444-0.251-0.444c-0.432,0-2.231,0.804-2.231,1.931c0,0.324,0.204,0.876,1.031,0.876
			C38.18,42.03,38.971,41.67,39.139,41.274z"/>
		<path fill="#4A1F00" d="M42.429,37.041c-0.132,0-0.324,0-0.324-0.191c0-0.156,0.06-0.168,0.408-0.216
			c0.192-0.024,1.199-0.264,1.199-1.799c0-0.108,0-0.276,0.156-0.276c0.192,0,0.192,0.18,0.192,0.252v1.547
			c0,0.108,0.036,0.3,0.3,0.3h1.271c0.12,0,0.336,0.024,0.336,0.192c0,0.071-0.072,0.191-0.324,0.191H44.36
			c-0.036,0-0.216,0.013-0.276,0.156c-0.048,0.132-0.048,1.476-0.048,1.715c0,0.36,0,2.278,0.036,2.446
			c0.156,0.672,0.708,0.672,0.828,0.672c0.252,0,0.54-0.096,0.804-0.3c0.072-0.048,0.348-0.323,0.432-0.323
			c0.048,0,0.072,0.048,0.072,0.096c0,0.216-0.743,1.043-1.751,1.043c-1.259,0-1.259-0.947-1.259-2.158c0-0.036,0.024-2.639,0-3.047
			c0-0.06-0.012-0.3-0.3-0.3H42.429z"/>
		<path fill="#4A1F00" d="M47.469,42.318c-0.096,0-0.324,0-0.324-0.192c0-0.191,0.192-0.191,0.3-0.191
			c0.408-0.012,0.516-0.3,0.54-0.359c0.084-0.24,0.084-0.756,0.084-5.397c0-0.359,0-1.703-0.072-1.919
			c-0.036-0.084-0.156-0.288-0.456-0.288c-0.048,0-0.3,0.049-0.348,0.049c-0.06,0-0.12-0.049-0.12-0.12
			c0-0.084,0.072-0.108,0.216-0.145c0.168-0.048,1.439-0.408,1.499-0.408c0.048,0,0.108,0.037,0.108,0.132
			c0.012,0.085,0,2.747,0,3.263c0,0.252,0,0.408,0.132,0.408c0.084,0,0.42-0.275,0.492-0.324c0.18-0.119,0.672-0.396,1.295-0.396
			c0.828,0,1.235,0.407,1.379,0.876c0.144,0.468,0.144,0.515,0.144,2.626c0,0.36,0,1.439,0.084,1.655
			c0.024,0.072,0.156,0.348,0.54,0.348c0.228,0,0.456,0,0.456,0.204c0,0.167-0.216,0.18-0.36,0.18h-2.303
			c-0.108,0-0.324,0-0.324-0.192c0-0.071,0.048-0.144,0.132-0.168c0.072-0.023,0.492-0.035,0.576-0.071
			c0.372-0.144,0.372-0.312,0.372-2.039c0-1.522,0-2.074-0.252-2.458c-0.252-0.396-0.636-0.444-0.792-0.444
			c-0.588,0-1.343,0.468-1.499,0.959c-0.072,0.229-0.084,0.253-0.084,2.543c0,1.02,0,1.487,0.624,1.487c0.168,0,0.36,0,0.36,0.204
			c0,0.18-0.216,0.18-0.348,0.18H47.469z"/>
		<path fill="#4A1F00" d="M54.752,42.318c-0.084,0-0.312,0-0.312-0.192c0-0.191,0.12-0.191,0.456-0.191
			c0.144,0,0.396-0.012,0.551-0.264c0.108-0.168,0.132-0.313,0.132-1.991c0-0.384,0-2.135-0.072-2.339
			c-0.036-0.132-0.18-0.228-0.372-0.228c-0.084,0-0.492,0.108-0.576,0.108c-0.072,0-0.12-0.061-0.12-0.12
			c0-0.097,0.06-0.108,0.588-0.276c0.168-0.048,1.259-0.396,1.319-0.396c0.036,0,0.048,0.012,0.06,0.036v0.527
			c0,0.636,0,0.708,0.12,0.708c0.06,0,0.084-0.024,0.252-0.24c0.096-0.132,0.815-1.031,1.691-1.031c0.444,0,0.708,0.276,0.708,0.684
			c0,0.396-0.312,0.636-0.6,0.636c-0.252,0-0.372-0.132-0.468-0.252c-0.072-0.072-0.18-0.204-0.348-0.204
			c-0.3,0-0.792,0.359-1.02,0.779c-0.288,0.517-0.336,0.792-0.336,2.567c0,1.091,0.036,1.295,0.876,1.295
			c0.096,0,0.251,0.036,0.251,0.191c0,0.192-0.216,0.192-0.312,0.192H54.752z"/>
		<path fill="#4A1F00" d="M63.043,36.429c1.535,0,2.65,1.331,2.65,3.058c0,1.728-1.115,3.059-2.65,3.059s-2.651-1.343-2.651-3.059
			C60.392,37.785,61.483,36.429,63.043,36.429z M63.043,42.222c1.007,0,1.631-1.296,1.631-2.735c0-1.463-0.636-2.734-1.631-2.734
			c-0.912,0-1.631,1.116-1.631,2.734C61.412,40.903,62.023,42.222,63.043,42.222z"/>
		<path fill="#4A1F00" d="M69.643,36.429c1.535,0,2.65,1.331,2.65,3.058c0,1.728-1.115,3.059-2.65,3.059s-2.651-1.343-2.651-3.059
			C66.992,37.785,68.084,36.429,69.643,36.429z M69.643,42.222c1.007,0,1.631-1.296,1.631-2.735c0-1.463-0.636-2.734-1.631-2.734
			c-0.912,0-1.631,1.116-1.631,2.734C68.012,40.903,68.624,42.222,69.643,42.222z"/>
		<path fill="#4A1F00" d="M80.884,42.318c-0.216,0-0.228-0.144-0.228-0.192c0-0.18,0.144-0.191,0.324-0.191
			c0.624-0.023,0.624-0.348,0.624-1.967c0-1.655-0.024-1.811-0.12-2.219c-0.108-0.432-0.419-0.804-0.947-0.804
			c-0.671,0-1.463,0.6-1.619,1.007c-0.072,0.192-0.072,1.908-0.072,2.243c0,1.163,0,1.296,0.12,1.476
			c0.12,0.18,0.276,0.252,0.492,0.264c0.348,0.012,0.456,0.012,0.456,0.191c0,0.192-0.168,0.192-0.276,0.192h-2.411
			c-0.108,0-0.288,0-0.288-0.192c0-0.071,0.036-0.144,0.096-0.168c0.06-0.035,0.419-0.023,0.503-0.035
			c0.48-0.096,0.48-0.348,0.48-2.016c0-1.606,0-1.883-0.156-2.326c-0.096-0.288-0.408-0.636-0.9-0.636
			c-0.516,0-1.067,0.336-1.331,0.6c-0.288,0.288-0.312,0.312-0.312,2.362c0,1.668,0,2.004,0.624,2.027
			c0.18,0,0.359,0.012,0.359,0.191s-0.167,0.192-0.264,0.192h-2.267c-0.06,0-0.24,0-0.24-0.192c0-0.191,0.156-0.191,0.36-0.191
			c0.3,0,0.48-0.204,0.528-0.348c0.084-0.252,0.084-1.991,0.084-2.398c0-0.336,0-1.644-0.072-1.848c-0.036-0.119-0.18-0.3-0.444-0.3
			c-0.048,0-0.3,0.036-0.36,0.036c-0.024,0-0.12,0-0.12-0.084c0-0.096,0.036-0.107,0.588-0.264c0.276-0.072,1.031-0.275,1.127-0.3
			c0.12,0,0.12,0.06,0.12,0.348c0,0.312,0.012,0.396,0.12,0.396c0.048,0,0.288-0.18,0.36-0.228c0.3-0.216,0.828-0.516,1.499-0.516
			c0.972,0,1.224,0.54,1.343,0.779c0.024,0.048,0.084,0.168,0.156,0.168c0.06,0,0.083-0.023,0.276-0.191
			c0.372-0.324,0.959-0.756,1.811-0.756c0.816,0,1.211,0.384,1.368,0.924c0.144,0.503,0.144,0.731,0.144,2.746
			c0,1.439,0,1.835,0.672,1.835c0.084,0,0.276,0,0.276,0.204c0,0.12-0.108,0.18-0.228,0.18H80.884z"/>
		<path fill="#4A1F00" d="M97.348,33.575c0.156,0,0.336,0,0.336,0.204c0,0.191-0.168,0.191-0.372,0.191
			c-0.852,0-0.911,0.684-0.923,1.056c-0.012,0.6,0,3.574,0,4.246c0,0.852-0.036,1.774-0.768,2.518c-0.6,0.6-1.379,0.756-2.027,0.756
			c-0.516,0-2.974-0.168-3.046-2.65c-0.012-0.672,0.012-3.934,0.012-4.665c0-0.924-0.06-1.26-1.116-1.26
			c-0.072,0-0.264,0-0.264-0.191c0-0.204,0.18-0.204,0.36-0.204h2.938c0.144,0,0.324,0,0.324,0.204c0,0.191-0.156,0.191-0.384,0.191
			c-0.264,0-0.731,0.036-0.875,0.54c-0.06,0.18-0.06,2.459-0.06,2.879c0,2.638,0,2.842,0.204,3.406
			c0.192,0.515,0.815,1.295,2.051,1.295c0.923,0,1.535-0.42,1.871-0.937c0.408-0.599,0.408-1.103,0.408-3.885
			c0-2.65-0.024-2.711-0.168-2.938c-0.228-0.348-0.6-0.36-0.852-0.36c-0.132,0-0.24-0.06-0.24-0.191c0-0.204,0.18-0.204,0.288-0.204
			H97.348z"/>
		<path fill="#4A1F00" d="M101.767,36.657c0.096,0.036,0.144,0.061,0.228,0.061c0.156,0,0.264-0.072,0.348-0.168
			c0.084-0.084,0.12-0.12,0.168-0.12c0.072,0,0.096,0.06,0.132,0.156c0.108,0.275,0.648,1.583,0.648,1.715
			c0,0.06-0.024,0.12-0.108,0.12c-0.12,0-0.144-0.049-0.432-0.48c-0.144-0.228-1.007-1.188-1.775-1.188
			c-0.444,0-1.031,0.313-1.031,0.973c0,0.491,0.324,0.768,1.535,1.187c1.391,0.491,2.099,0.936,2.099,1.896
			c0,0.803-0.563,1.738-1.835,1.738c-0.324,0-0.456-0.035-0.972-0.191c-0.072-0.023-0.156-0.036-0.228-0.036
			c-0.168,0-0.288,0.048-0.36,0.071c-0.228,0.097-0.372,0.156-0.432,0.156c-0.108,0-0.144-0.096-0.204-0.252
			c-0.108-0.275-0.576-1.475-0.576-1.631c0-0.072,0.024-0.203,0.144-0.203c0.144,0,0.228,0.144,0.419,0.479
			c0.528,0.912,1.655,1.284,2.207,1.284c0.587,0,1.043-0.504,1.043-1.092c0-0.552-0.348-0.827-1.739-1.308
			c-1.259-0.443-1.895-0.863-1.895-1.787c0-0.911,0.672-1.606,1.583-1.606C101.143,36.429,101.311,36.489,101.767,36.657z"/>
		<path fill="#4A1F00" d="M109.385,38.06c0.012,0.408-0.012,2.363-0.012,2.807c0,0.563,0,1.067,0.479,1.067
			c0.12,0,0.312-0.072,0.384-0.132c0.012-0.013,0.084-0.072,0.096-0.072c0.024,0,0.06,0.013,0.06,0.072
			c0,0.216-0.492,0.743-1.008,0.743c-0.384,0-0.695-0.287-0.792-0.539c-0.024-0.084-0.06-0.192-0.168-0.192
			c-0.072,0-0.18,0.084-0.288,0.168c-0.468,0.36-1.056,0.563-1.583,0.563c-0.72,0-1.523-0.383-1.523-1.271
			c0-1.427,2.015-2.038,2.71-2.242c0.72-0.216,0.792-0.24,0.792-0.863c0-1.031-0.576-1.416-1.127-1.416
			c-0.792,0-0.924,0.564-0.959,0.732c-0.084,0.359-0.168,0.791-0.636,0.791c-0.312,0-0.564-0.252-0.564-0.587
			c0-0.708,1.164-1.26,2.171-1.26C108.366,36.429,109.361,36.861,109.385,38.06z M108.45,41.274c0.06-0.144,0.083-0.191,0.083-1.606
			c0-0.24,0-0.444-0.251-0.444c-0.432,0-2.231,0.804-2.231,1.931c0,0.324,0.204,0.876,1.031,0.876
			C107.49,42.03,108.282,41.67,108.45,41.274z"/>
		<path fill="#4A1F00" d="M115.422,36.657c0.084,0.036,0.468,0.288,0.563,0.288c0.06,0,0.228-0.132,0.384-0.252
			c0.228-0.191,0.504-0.264,0.72-0.264c0.42,0,0.696,0.348,0.696,0.659c0,0.265-0.204,0.563-0.492,0.563
			c-0.312,0-0.444-0.228-0.564-0.419c-0.06-0.108-0.12-0.12-0.168-0.12c-0.096,0-0.251,0.036-0.251,0.192
			c0,0.06,0.167,0.347,0.204,0.42c0.108,0.227,0.18,0.491,0.18,0.791c0,1.139-1.08,2.087-2.303,2.087
			c-0.108,0-0.672-0.097-0.804-0.097c-0.288,0-0.564,0.336-0.564,0.48c0,0.144,0.108,0.216,0.192,0.252
			c0.156,0.06,0.228,0.083,1.332,0.119c0.779,0.024,2.758,0.072,2.758,1.428c0,1.499-2.758,1.499-3.106,1.499
			c-0.912,0-2.615-0.108-2.615-1.079c0-0.624,0.66-0.9,1.043-1.008c0.072-0.023,0.228-0.072,0.228-0.132s-0.312-0.155-0.372-0.192
			c-0.192-0.119-0.312-0.264-0.312-0.503c0-0.42,0.312-0.659,0.731-0.864c0.144-0.071,0.276-0.131,0.276-0.18
			c0-0.048-0.18-0.191-0.252-0.239c-0.192-0.144-0.804-0.696-0.804-1.571c0-1.163,1.104-2.087,2.279-2.087
			C114.918,36.429,115.29,36.597,115.422,36.657z M114.378,43.96c0.755,0,1.919-0.203,1.919-1.007c0-0.576-0.444-0.828-2.411-0.828
			c-0.348,0-0.552,0-0.864,0.192c-0.06,0.036-0.419,0.264-0.419,0.743C112.604,43.924,114.066,43.96,114.378,43.96z M114.402,40.279
			c1.271,0,1.271-1.583,1.271-1.799c0-0.744-0.288-1.728-1.271-1.728c-0.72,0-1.259,0.576-1.259,1.764
			C113.143,39.416,113.491,40.279,114.402,40.279z"/>
		<path fill="#4A1F00" d="M120.307,39.176c-0.156,0-0.384,0-0.384,0.383c0,1.463,0.996,2.471,1.991,2.471
			c0.552,0,1.08-0.323,1.451-0.672c0.072-0.06,0.348-0.467,0.456-0.467c0.06,0,0.12,0.06,0.12,0.155
			c0,0.264-0.839,1.499-2.422,1.499c-1.679,0-2.626-1.331-2.626-3.07c0-1.99,1.235-3.046,2.542-3.046
			c1.859,0,2.387,1.967,2.387,2.471c0,0.216-0.12,0.276-0.36,0.276H120.307z M122.514,38.78c0.264,0,0.396-0.06,0.396-0.348
			c0-0.456-0.432-1.68-1.439-1.68c-1.116,0-1.463,1.5-1.463,1.764s0.204,0.264,0.312,0.264H122.514z"/>
		<path fill="#4A1F00" d="M134.01,37.592c0.827,0,1.175-0.3,1.175-1.151c0-0.204,0-0.359,0.192-0.359s0.192,0.18,0.192,0.228v3.118
			c0,0.084,0,0.265-0.192,0.265s-0.192-0.181-0.192-0.301c0-0.623,0-1.415-1.175-1.415h-1.427c-0.036,0-0.216,0.013-0.276,0.168
			c-0.048,0.097-0.048,1.955-0.048,2.219c0,1.14,0,1.571,0.984,1.571c0.335,0,0.456,0,0.456,0.191c0,0.192-0.168,0.192-0.324,0.192
			h-3.083c-0.192,0-0.372,0-0.372-0.192c0-0.191,0.192-0.191,0.312-0.191c0.432,0,0.948,0,1.067-0.624
			c0.036-0.191,0.036-0.204,0.036-3.394c0-0.563,0-3.118-0.036-3.334c-0.108-0.6-0.671-0.612-0.923-0.612
			c-0.336,0-0.456,0-0.456-0.191c0-0.204,0.168-0.204,0.372-0.204h5.769c0.671,0,0.792,0.036,1.02,0.684
			c0.06,0.168,0.456,1.295,0.456,1.367c0,0.156-0.132,0.216-0.216,0.216s-0.084,0-0.372-0.432c-0.576-0.875-1.415-1.439-2.482-1.439
			h-1.332c-0.875,0-0.875,0.54-0.875,1.535c0,0.156,0,1.716,0.012,1.823c0.024,0.18,0.156,0.264,0.312,0.264H134.01z"/>
		<path fill="#4A1F00" d="M140.323,39.176c-0.156,0-0.384,0-0.384,0.383c0,1.463,0.996,2.471,1.991,2.471
			c0.552,0,1.08-0.323,1.451-0.672c0.072-0.06,0.348-0.467,0.456-0.467c0.06,0,0.12,0.06,0.12,0.155
			c0,0.264-0.839,1.499-2.422,1.499c-1.679,0-2.626-1.331-2.626-3.07c0-1.99,1.235-3.046,2.542-3.046
			c1.859,0,2.387,1.967,2.387,2.471c0,0.216-0.12,0.276-0.36,0.276H140.323z M142.53,38.78c0.264,0,0.396-0.06,0.396-0.348
			c0-0.456-0.432-1.68-1.439-1.68c-1.116,0-1.463,1.5-1.463,1.764s0.204,0.264,0.312,0.264H142.53z"/>
		<path fill="#4A1F00" d="M146.923,39.176c-0.156,0-0.384,0-0.384,0.383c0,1.463,0.996,2.471,1.991,2.471
			c0.552,0,1.08-0.323,1.451-0.672c0.072-0.06,0.348-0.467,0.456-0.467c0.06,0,0.12,0.06,0.12,0.155
			c0,0.264-0.839,1.499-2.422,1.499c-1.679,0-2.626-1.331-2.626-3.07c0-1.99,1.235-3.046,2.542-3.046
			c1.859,0,2.387,1.967,2.387,2.471c0,0.216-0.12,0.276-0.36,0.276H146.923z M149.13,38.78c0.264,0,0.396-0.06,0.396-0.348
			c0-0.456-0.432-1.68-1.439-1.68c-1.116,0-1.463,1.5-1.463,1.764s0.204,0.264,0.312,0.264H149.13z"/>
	</g>
</g>
</svg>
