<?xml version="1.0" encoding="utf-8"?>
<!-- Generator: Adobe Illustrator 16.0.0, SVG Export Plug-In . SVG Version: 6.00 Build 0)  -->
<!DOCTYPE svg PUBLIC "-//W3C//DTD SVG 1.1 Tiny//EN" "http://www.w3.org/Graphics/SVG/1.1/DTD/svg11-tiny.dtd">
<svg version="1.1" baseProfile="tiny" id="レイヤー_1"
	 xmlns="http://www.w3.org/2000/svg" xmlns:xlink="http://www.w3.org/1999/xlink" x="0px" y="0px" width="196.323px"
	 height="39.183px" viewBox="0 0 196.323 39.183" xml:space="preserve">
<metadata><?xpacket begin="﻿" id="W5M0MpCehiHzreSzNTczkc9d"?>
<x:xmpmeta xmlns:x="adobe:ns:meta/" x:xmptk="Adobe XMP Core 5.3-c011 66.145661, 2012/02/06-14:56:27        ">
   <rdf:RDF xmlns:rdf="http://www.w3.org/1999/02/22-rdf-syntax-ns#">
      <rdf:Description rdf:about=""
            xmlns:dc="http://purl.org/dc/elements/1.1/">
         <dc:format>image/svg+xml</dc:format>
         <dc:title>
            <rdf:Alt>
               <rdf:li xml:lang="x-default">Web</rdf:li>
            </rdf:Alt>
         </dc:title>
      </rdf:Description>
      <rdf:Description rdf:about=""
            xmlns:xmp="http://ns.adobe.com/xap/1.0/"
            xmlns:xmpGImg="http://ns.adobe.com/xap/1.0/g/img/">
         <xmp:CreatorTool>Adobe Illustrator CS6 (Windows)</xmp:CreatorTool>
         <xmp:CreateDate>2017-07-12T14:54:38+09:00</xmp:CreateDate>
         <xmp:ModifyDate>2017-07-12T14:54:38+09:00</xmp:ModifyDate>
         <xmp:MetadataDate>2017-07-12T14:54:38+09:00</xmp:MetadataDate>
         <xmp:Thumbnails>
            <rdf:Alt>
               <rdf:li rdf:parseType="Resource">
                  <xmpGImg:width>256</xmpGImg:width>
                  <xmpGImg:height>52</xmpGImg:height>
                  <xmpGImg:format>JPEG</xmpGImg:format>
                  <xmpGImg:image>/9j/4AAQSkZJRgABAgEASABIAAD/7QAsUGhvdG9zaG9wIDMuMAA4QklNA+0AAAAAABAASAAAAAEA&#xA;AQBIAAAAAQAB/+4ADkFkb2JlAGTAAAAAAf/bAIQABgQEBAUEBgUFBgkGBQYJCwgGBggLDAoKCwoK&#xA;DBAMDAwMDAwQDA4PEA8ODBMTFBQTExwbGxscHx8fHx8fHx8fHwEHBwcNDA0YEBAYGhURFRofHx8f&#xA;Hx8fHx8fHx8fHx8fHx8fHx8fHx8fHx8fHx8fHx8fHx8fHx8fHx8fHx8fHx8f/8AAEQgANAEAAwER&#xA;AAIRAQMRAf/EAaIAAAAHAQEBAQEAAAAAAAAAAAQFAwIGAQAHCAkKCwEAAgIDAQEBAQEAAAAAAAAA&#xA;AQACAwQFBgcICQoLEAACAQMDAgQCBgcDBAIGAnMBAgMRBAAFIRIxQVEGE2EicYEUMpGhBxWxQiPB&#xA;UtHhMxZi8CRygvElQzRTkqKyY3PCNUQnk6OzNhdUZHTD0uIIJoMJChgZhJRFRqS0VtNVKBry4/PE&#xA;1OT0ZXWFlaW1xdXl9WZ2hpamtsbW5vY3R1dnd4eXp7fH1+f3OEhYaHiImKi4yNjo+Ck5SVlpeYmZ&#xA;qbnJ2en5KjpKWmp6ipqqusra6voRAAICAQIDBQUEBQYECAMDbQEAAhEDBCESMUEFURNhIgZxgZEy&#xA;obHwFMHR4SNCFVJicvEzJDRDghaSUyWiY7LCB3PSNeJEgxdUkwgJChgZJjZFGidkdFU38qOzwygp&#xA;0+PzhJSktMTU5PRldYWVpbXF1eX1RlZmdoaWprbG1ub2R1dnd4eXp7fH1+f3OEhYaHiImKi4yNjo&#xA;+DlJWWl5iZmpucnZ6fkqOkpaanqKmqq6ytrq+v/aAAwDAQACEQMRAD8A61+aH5meUo/Iurm010Wm&#xA;uwRlbSyhuWtdQjuweKB4AyTUVzV1ZeJXrtlGXKOE77uRixS4htsmPkD8x7XUdGA1E3Yg062gF35p&#xA;1CBbGwu524xsYWkMZ+KRqCqD9VTjyWN/mxyYqO3yZ3BPBPCk0EiywyDlHIhDKwPcEbHLmlcWUEAk&#xA;AsaKPE0r/DFXn35keYPMGkeZvKlvo+qpa/pW7aO+tLpIWtfqcC+pPMzlVlRlBAFJADUDKckiCKLd&#xA;iiCDY5M5u7mb6g89gIridkrapJJwikYiqr6ih6BvEKfllpLUBvuw/wDL7zJ5p1q/vJbuFjoh9VUN&#xA;0kcN7ZX0EvpzWUyx0jlSh5RyoOmzb5XjkT7m3JEAebNLtrlbWZrRFluljYwRyMURpADxVmAYqCep&#xA;octLUGJP+YWg33kePWzq8Pl572GT0XvGh9SGeFmjkj9OVlWRkkRlp3yrxAY3dNnhkSqrUvyk8/L5&#xA;v8n6feX13ZtrrRsb+ztZFLpxkZFd4gxZC6gNQ+OOHJxR81zY+GXkzfLWpKfMvmjRvLeni+1SYokj&#xA;rDbwxq0k08z7JFDEgLO7dgBkZSERuyjAyOzHJPPHnBtV06wi8twWb6rHPLYpqd+YZmFsEZ1kjtre&#xA;7WNislR8Z6EGhpkOOV8mzw41dpjovnhbnXP8O61YSaLr7Rma2tpHWaC6iX7T2s68RJw/aUqrD+Wm&#xA;GM96OxYyx7WNwygkAVPTLGt8++Z9bn80+e7LXbLUbqysY7mTRfJt3Zeg8b30RElzdXKSuqtbVXgQ&#xA;N2UVA8cOUuKV/AOZGPDGviU+t/P+vazfW2gahd6bZzzaJcLeXL3AGn3k9y6KstnIob1fSiQsQDtz&#xA;Ydq5PxCdj3MTjAFi+ar5X1DzTpGpeWfI2g3+iXkVjbNc61N67ySTQBglUG7CR2LN8NQKDltsWJII&#xA;iKRMAgyNvX8yXGdiqW+ZIdal0S6GiTrb6siiSzZ1DRtJGQ4ikB/Yk48GI3AOxrkZXW3NlGr35PI/&#xA;Pfnd/NXkDyTrNp9Z0xtQ8yWdnf28ckkMiEC4hni9SMoxUkHcfgcx8k+KIPm5OPHwyI8mY63rnmvU&#xA;fzAs/L/li7jtNO0iE3Pme9miWdKygG3tRyKt6hUFzRhRTWvY2SkTKh05tUYgRs9eTPcuaXl2secr&#xA;LV/NWq2dhqZgtNFjjt55Y9SWwVrkNI1woDpIJPSUxhmXoTQ9solOyd+Xm5EYUBtz8mJW/mrUr3zn&#xA;YQ2WvXL+XrvSnveZ1ZFQyC5EAY3DwrwPI8PTK1rlXGTLntXe2GAEeW99ys2tppnm5dS8tRT+ZPNb&#xA;XEOm3tiusm4DQNG8tHX0ki4IqsQ5PFH671GHiqVjc+9eG40dh7ntd+Wm0W4MsZiaS2cyQsQWUtGa&#xA;qSpIqOmxzKPJxBzfPGi6zcTfk9Je3GvKdTGmXZUSeY7qO55xrIIwLL0yvKijinP4ttxXMOMvRz6d&#xA;7myj6+XXuZBqF5c2+k/lHy1KSBL7TpjfXE+ozWIk56fFPxlu1EjqvqgFRQ7gLkidosAN57fZ5rYb&#xA;6Z/zj8k2VtrBuLSZdQe4htNbuNUjYxWzOgk9RYgm69KHljfrG/22teg7fZT3bMtxHm13Jp3nL81L&#xA;ext44p9O8l/6XqV0FBL6lIGS3tw9P90Lykah+1QHplBqU/6reLjC/wCd9yf+ddUvE1Ly95ftblrL&#xA;/EF1PBcXkaxvIkMFpLcMsYlV4wztGqVZTsTTemTmdwO9hAbE9yj5D/LWw8l3OpHTdSvbix1FllNh&#xA;ctG0UU1WLyRhEjC8+QqAO3yo48fDyTkymXNOfNXlq28xaQ2nzXVzYyB1ltr+xlMNzBKnR4pB0NCV&#xA;PsSMlOPEKYQlwm3m/wCW/kTypqvmHXfMEts2r6bbSfonSrnVXa/edrYn63d8p/UH7yU+mpQAcVPi&#xA;cox4wSTzb8uQgAckR+X8fli48p+brfWBbxeVo/MWoxWCTMscEUAZAnomq+n++LmPhQg9N8OOqN8r&#xA;RkviFc6CJ/JHzbe6vH5h0Wa5k1O00C99DTdZlDB7m1lLmISM4UvJGqfE3cEfMnBO7HcueFUe9kP5&#xA;k+adS0LSrG30hFbWtcvodK015F5RxST1rO69xGilqePtXJ5JkDbmWvFAE78g8hs9CW01XzD+WFrA&#xA;bjzLrGoh7rzC8SeuNFuYkmupml40rUvHxFByfx64wjRMOp6+TkmVgT6Dp5s9/OjQtM0r8vTrmmqu&#xA;nat5WW3fRL+L4ZIgkiQiDkAS0bo3Dgdj3y7NECNjmGrBImVHkXoOiX8mo6LYahJH6Ul5bQzvFQji&#xA;0sYcrQ+FcuibFtEhRpha2J1H87pptSo8eiaPDLocDbqrXcskdxcKP5/3Xpk+FMqq8m/QNt1j26lR&#xA;8n33+MfzE1TzVCeegaFE2i6JJ1Wad2WS9uE9vhSNSNiMEDxSJ6DZMxwxA6ndCfnbcLDq35fm0/47&#xA;R8xW4tAv2jbkFbkePE8kDdqdcGfnHvtOAbS7qelahYWuo2M9jdoZLW5QxzxhmTkjbMpZCrUI2O+X&#xA;kW0A0+etMi8pWlz+YVrdXnl3TpItUvY7Kz1O2he49NYgEFsWuICi12UKh3+7MMUOLlzc08R4efJd&#xA;5fjmiX8kxYWMN3O1rrTi0kcQRyM1spcs/CSh3LfZNTjH+D4ol/Hfk9A0e21KH84xqGrWFlpAvNBN&#xA;nYww3cMrTSw3Zmk4IVglJCOCaRkUH2u2XAHjs7bNMiOChvu9Ly9odiqVX2i31xePcwa3fWSsqr9W&#xA;gFo0Qp3Ant5mqe/xZEx82Ql5PJLjSLvzHr/m/R7vVbmTRPJElpqOi+nFZQ01L6vJO7v6VrGH4yM1&#xA;V6b1Na5jkcRIvaLk8XCAa3knXkfyjJ5v/LG2k1bWr9U8xxvd6vFaiztxNLM5MhLx24lo3EKRz+z8&#xA;P2dslCHFDc82GSfDPYcnoflrRIND0W20u3u7i9t7ZeEE13IJZeA+ypcKtQo2Htl0Y0KaZSs2xzzH&#xA;oclvfcNIjvLOC6ElxcDTbLTpY2uXf95LI1ypf1ZKivY8chKPd+hnGXf+liFr5M1y18x2eoI+rTQ2&#xA;mlSaaLu4t7OW7LvdCcMQxMLjiONWXl9O+ViBu9+TaZiq25pl5XudV07z/IdcuNRsbK8jW00r6+2m&#xA;QW15IoLsot4FSRJVZjxK15j7VKKMMSRLf9DGYBjt+l6Vqf8Axzbv/jDJ/wAROXnk0Dm8Y8ianq97&#xA;+Suj+WfLkCTare2c8d5e3K/6DZW8s0oeSdyGVnKE8IhU/tMOPXGxkmAAcrIAMhJ5Mb8v627Xfl7y&#xA;p5Z1S0tL3SjKG13WEgn+qhSIZ49OmkmkFx6wj48YOK8P5d+NcZcgD+PJnKPMkfL9L0LziSfzw/LY&#xA;lg5MGrEuoop/0NtwKtt9OXT/ALyPxaYf3cvg9SzIcdhsvlMeVPKmtp5Ril/SN/cS38rjhLcNJPIp&#xA;mMQkohdIq+krbVArWprVwcIPC28fERxPMtU8t615i81aFD5YufNdpcWU0lxfa3rgnFta/uSo9OG5&#xA;CRtKxahWNQKHwNRQYmRFcXxbxIRBvh+D1zyJJ50/REtt5wjiOq2lw8CXtvxEd3AoBjuAi/YLciCt&#xA;BuOmZOPir1ONk4b9PJd+YFr5nu/J2p2nlhlTXLlFhtZGYIEEkipK/I9CsRZh3r03xyA8O3NcZAkL&#xA;5MTvtG/MTyZoFhoHke0t9XsDb/U4jMUtpbKf097otXhLG0lZGUry5HqQQBWRKIqO7YJRkblsyr8v&#xA;PKSeUvJ2m6CHEs1tGWuphUiS4lYySsCd6c2NK9ssxw4Y015J8UiWR0H39cmwSTzh5aPmDSBbQ3TW&#xA;GoWs0d5pmoIoc291AaxycG2ddyrKeqkjITjYZwlwljGmflTpmiarb+bJtR1LUvM9sZZL+/VgXvVl&#xA;Th6DQAFBEtAURacadfCAxAG+rM5SRw7UoeYPKvmf8wry1ttftv0H5Ns5luJNMaRJb6/dN0Wcws8U&#xA;MX+SHZvkaUEoGfPaKYzEOW8npCqqqFUAKBQAbAAZe0MO/MT8uT5vFnJbavcaHe2wlglu7QfHNZ3A&#xA;Amt3oybNwBFagHscqyY+LrTbjycPS0xisl8peXbLSfLWiy30Nqno21rDJDEFpuXmkmdPtNuzKGYk&#xA;9MlXCKAY3xGyUk0HyFq115tXzp5wuIZ9YgjaHSNMtSzWlhE+xKs4VpJmB+J+IHgOlIxxm+KXNnLI&#xA;OHhjyZte3SWlnPdOjyJbxvKyRjk7BFLEKvcmmwywlqAt4h5JPnHW7Lzb+h9CurSx80alNqOnazez&#xA;LYpHFMq+k/p8Z5Jvs1KcCjjYmhzFhxG6HNyp8IqzyCjeQ6m3mH8q7TzToEAuLY6/bTaRaQxGCRII&#xA;FSOSOBuMaqQokA6dx2GJu42O9IqpUe5OLux0VPzq8lCz0BdIUW2pOyNbwQ83WEcWAiLVK+J6ZIgc&#xA;Y2rmxBPhne+T2PMlxXYqx/zV5qk0pPqWl2UmreYbhOVlpsQIFGJUS3Ev2IYQQas5FaUWpyE51y3L&#xA;OEL57BJtA8j3+g+RNatTIl/5m1lLy81G5UcVmv7lG+Fa0pGpoq9PHauRjConvLKWQGQ7gwvyX+Zh&#xA;8s/lrYaPJ5d1x9e060aEW36Nn4GdeXEFyAAvKle/tlUMvDGqNts8XFO7Fe96R+Wv1oeQPL6XltPa&#xA;XsdjDHdwXaNHMJo1CSl1f4hycFhXscvxfSGnL9RYX5w1by7pGv6npun/AJcza/qpj+uvdwWMU9u0&#xA;1zzdTLIQWXnIG5bVO/XKpkA0I22wBIBMqCS+Q/LlzY+XmtLv8vr7UdYuS8t5qV8umRqssnUQJcSO&#xA;I446/AqpTxGQxxofTv8ABlklZ+rb4pp5d0cweZbPy/508j6TNFfLK+ka3BZWzgNEpkMF0qRmOOXg&#xA;pPJeKtTYV6SiN6kAxlLa4yL1TV5Ei0m9lc0RIJWY9aAISemZB5OOOb5+g8vy3v8AzjxoV0r3143q&#xA;W8Y02CRhD6bagVl/cx8FkLKTvLyp7Zh8N4w5vFWU/jonv5l+XZNV8ky6XYeXNfedJLVbKOcxTQxL&#xA;9YjDlY45pmX91yFVTbvQZPLG41RYYpVKyQl+laX5M0787vKGkeU9OnsP0cup3GrW88dwrxm4syI3&#xA;LT1PBui0NPvyIERkAHmkmRxky8nv+ZjhuxV2KuxV2KuxV2KuxV2KuxV2KuxV2KuxV2KuxVwAAoOm&#xA;KrWhiaVJWRTLGCI5CAWUNTkAeorQVxVvivINQcgCAe9D1/VireKuxV2KuxV2KuxV2KuxV2KuIBFD&#xA;0xVbHHHHGscahI0ACooAAA6AAYquxVoKoYsAAxoCe5p0xVvFUo0HzANZm1B7eCmm2k7Wltelq/WJ&#xA;YSUuCiU2SOQcA1fiIbagBMYytlKNKHmPzlpOgfo6S9NbO/uzZNdq8QjgkVHctMXdaIoifmRXjTfB&#xA;KYCYwJTyKWOWNJYnEkUgDI6kFWUioII2IIybBA+YNattD0W91i6jkltbCJp7hYQrOIk3dgGZAeK1&#xA;Y79BtU7YJSoWyjGzShqnmrSNM0aDV7lpPqlz6Ytwsbeo7TDlGoRuJDt0CmhLfCAWIBBmALUQJNI1&#xA;dVsG0pdVEw/R7QC6E5DAeiU586Ech8O/TDe1oo3SHm8w6ZDrNhpDs31rU4ZZ7JlUtFIsHEyDmtQC&#xA;A4O+DiF0nhNWmWSYpNqfnHyxpl0bS81GJLtft2y1klX4S45pGGZaopbcdAT2yJmAyECUx0/UtP1K&#xA;0S80+5iu7WT7E8LrIhpsaMpI2wgg8kEEc0Hq3mXR9KlWC7uALqSNpo7ZFeSQohALFUDFV5EDkdsB&#xA;kAkRJW+V/M2neZNIh1SwEiRy8g0Ey8JY2R2jZXUE/tIdwaHscYyEhaziYmijtQvFsrC4vHjeVLaN&#xA;5Wjj482CKWIXkVWu3cjCTSALKlomsWetaPZatZc/ql/ClxB6iGN+Ei8lqrbjY4xNi1lGjSNwoSPS&#xA;vOGlahrOo6NR7XUNOuPqrQ3BjUzN6Sz8oODvzX0nVj+0oPxAZATBNMzAgWnmTYOxVI9c87+U9AkM&#xA;etanDpz05KLkmPmKV/dlgA/+xr4ZCUwOZZxxyPIJnpupWOp2FvqFhMJ7O6RZYJlrRkYVB3oR9OSB&#xA;vdiRRoqOu6odK0q41D0vX+rhW9AMEZ6sF4oW+Hma/AppyagqK1xkaFrEWaWeXtcGtaYl+LC803mS&#xA;Pquowm3uFp3aMlqV+eCMrCZRo0mWSYsd8s+cf05d3NodKvbNrWtbySMNZTcSBW2uVNJQa1Hwj5bZ&#xA;CM76M5QrqyLJsEps/M2n3XmPUPL6pKmoadFDPKWUem0U4PBldSw6qw4txbbpTfIiQumRiatNskxS&#xA;q+8yWNlr+m6JPHMLnVkmazlVQ0RNuoeRWIJZCFNasvHtWu2RMqNMhGwT3JrkmLTMqqWYgKBUk7AA&#xA;Yqk/lLzVYeZ9JOqWMcsdt60sCtKBSQwuUMkTKWV42I+Fgd8jCfELZTgYmiu1/wAwDRZdPkuYa6bd&#xA;zra3N7yp9XkmIW3Z1p/dvIeBbl8JK7UJIZSpYxtJvyh4D8t9CjAKywwGG6VvtC5ikZLgN139ZWrk&#xA;cP0hnm+spFd6b5Qn88anr2u6Rb21lpzLYWZntVeS+1CRFnmuEjCs8rRxIiRkKT9vIER4iSGQMuEA&#xA;FG/lxLpGuXt35m0/WpZZ5Xntr/RomhS1j4TusLvbBPUSTggIZm5MDv4YcdHcFGWxsQhvzF0/SdS8&#xA;1aTodxqt1B+mOB1PThdtDaNZWzEsWjBX47iRlgADfECTSq4MgBIF804yQCa5JY1nquteU9eOgQz6&#xA;mItanHl1WnSS2MNsIUkSb6zKFmt3uIpdjyp9paUBAokGu/ZlYEhfduzX8wdbv9J8pSXkRS1aSS2g&#xA;u7twJY7SG4mSKe4KkUcRI5O4p3O1csySoNWONyea/l75e8uXWi6hrnmLnb2eg2p06yv5muIrj6vH&#xA;+9GpJLKElT1o/T9LjsoWi0qRlOOIqz0/Ft+SRuh1/FPSvI975ivPy80m81ActdmsEkb1xwLSlKxt&#xA;Ko6Fti2XQJMRfNoyACRrkxD8vGttcudGh02KRNN8uo17rl1KhV7jX7mExSxyEgc5IRLK0pFQGKAd&#xA;Mrx71XT72zJtd9fuTvyBcRXvm3znqGmAHy/PdWqW00f9zNewwlL2WOmzVPpozDqynJ49ySOTHIKi&#xA;AeaU/mNonmCCb/FGo6mn6I0hxG0Fkstrcvp13KguhcTxyKxEVEfjHxqE6gnI5InmTsGWKQ5AblH2&#xA;nkzWH17Q549I0nQrHSJnuZ73TJme4ulaJ4xCB9XgpG5cNJzdq0HXrhEDY2ApiZijuTaz814NOnuN&#xA;KsJdVurC61h/qUsUd29tbGyDhrmacAr9hGMafEKvIqmo2xy1sL5pw3ua5IO0s57i183WPlQXH1fT&#xA;7uG10M2tzxWG/gtQ0zhppApjWR1SSPcMQwINTgA50knlbMtVa0byY1z5tUWyQ2iXWqiGV09KWFRK&#xA;/pSxMjgpIvwsrA5Yfp3ah9XpYT5W8naWmmWQt7p9D8665by6m1+VS6vRBJIGMBmuhLIwgSaOM0cG&#xA;oBblvWqMBXdIts5m++Iem6daSWdjBayXUt7JCgRru44GWQj9p/TWNa/JRl4FNBNojChIDe+WtTvp&#xA;l1KO2F9o87osN00bNFUKyTKr/Z5pQq1K079chYPPozojl1Tex1Cwv4PrFjcxXcFSvqwOsicl6jkp&#xA;IqMkCCxII5pZ5i8rRa5PaPLqN9ZwW/Nbi1s5zBHcxuVJjm4jnSsY3RlNKitDglG2UZ0k3kMiPzD5&#xA;tsLKo0KwvLeCxj5M0cc31VGuo4+RPEK7KSo25E5DHzPcyycgerJdd0p9V0qexS8uNPkl4mO9tHEc&#xA;0bI4dSpIYdV+IEUIqDscskLDXE0bYd+jLfQvPvljTdJlnlnuoL6bXJZpnmlnt4olVJrksfib6w6B&#xA;DTarBaDbKqqQAbbuJJZlrutafoej3mr6hJ6VlZRNNM3eij7KjuzHZR3OWykALLVGJJoMJ8karqWm&#xA;6jBH5ksI7HVvOBuNSE3r+pIHgVCLWVGjj4ejbFVTizfZYmhyqBIO/VuyAEbcosx0HXrbW4bm6sxz&#xA;sIrh7e1uwapcCIBZJI6fsCXkgPfjUbUyyMrapRp49qEOgrp3mvWYtVvNRl0yB9I8rfWr6WS4+tOx&#xA;iMsHxIeLXfpwqw6mEsSTvmMaom/c5IuwK970m2tfNFv52iliilOhT2jpqrzTIYjdpwMU1tFyd05A&#xA;ujiig9abVN4B4vJoJHD5ovz5YX995angs42uaPFJd2Eb+m91bJIGntlfsZYwV7V+zUA1w5ASEYyA&#xA;UX5W1zRdb0K01DRSBp7L6ccPD02hMfwNC8f7DRkcSvbDGQIsInEg0Uk/N7ify312OhaaaAQ2qr9o&#xA;3Msipb8ff1mWmRzfSWeH6gmHlr9DfpbXv0R6vo/Wh9d6fVfr1D9Y9Gvxc/s+tT4eX+XzwxqzTGV0&#xA;La86/wCF/qVp+nvrFPrA+ofUfrn1v1+Df3P1D/Sa+ny5ce1a7YzrqsL6fj5oXyb/AMq59SL/AAv9&#xA;V+s/VB/c1+sfVvVP99z/AHtfV5f3nxcq++CHD0TPi6o3zB/grhqX6c+pV/R/+5P1+Hqfo/k/2/2/&#xA;S58qf5XTfDLh6ojxbUjfLv6B/Qdl/h/0P0N6Q+o/VePo+n24cdvn79cMarbkiV3vzTB+HBvUpwoe&#xA;fLpTvWuSYpH5h/wl9dsP8Qely9RfqH1zl9W9evwU5/6P61fsV+P+XISrqzjxdE9ybBK9e/w9+iZv&#xA;0z6X6K5f6V6lfR6/F61Ph41+1z+HxyMqrdlG725ozTv0f9Qg/Rvo/UOC/Vfq/H0fTp8Pp8Ph406U&#xA;wiuiDd7oPzT+hP8ADOq/p2n6F+qT/pKvL/ef0z6v2PirxrTjv4b4J1RvkmF2K5o6y+rfU4PqlPqv&#xA;pp6HHp6fEcaV9sIQUFqX+HPri/pL6r9b+qXPH1+HP6nWP619r/dX93z7dK4DXVIvoo+T/wDCf+Hr&#xA;X/Cf1X9B0b6t9S4+lWp5/Z/a5V5V3r1xhVbclnxX6uaL139C/oi7/Tfofon0z9d+tcfR9Pvz5fDT&#xA;54ZVW/JEbvbmknnz/lXX1C2/xp9R+rcz9S+uceXOnxej+39n7XDt1yGThr1M8fFfpTLyj/hr/Dll&#xA;/hn0v0Fxb6j9Xr6XHm3LjXf7dclCq25MZ3e/NN8kxYp5s/5VX9cj/wAXfoL67w/dfpb6n6vD/J+s&#xA;fFTK58H8VNkOP+G028s/4V/Ra/4Y+o/orkeH6M9H6vz25U9D4K+OSjVbMZXe/NH33P6lccPU5+m/&#xA;H0OPq14mnp8/h5/y8tq9cJQEs8of4b/QNv8A4c4four8ePLn6nM+r6vqfvPV9Svqep8XKvLfBCq2&#xA;TO73TnJMUg0T/D/+INX9Hn+n6r9e+s19f6vU+h6Vdvq/Xhw+GteXx8shGrPezldDuTDXP0L+jX/T&#xA;Xo/o7nF6n1inpc/VX0uVdv73jT3yUqrdjG72Sbz/AP8AKvP0db/43+pfUvV/0X67T+84mvD9r7Ne&#xA;VO3XIZOGvUzx8V+lkGn/AFD6hb/o70vqHpJ9U+r8fR9LiOHp8Ph4celNqZMV0YG73Y1cf8qv+u6B&#xA;636L+s+rL/hyvpf33P8AefV/2efqeG/L/KyHo25eTP178/NluWNbsVSLyp/hXnrX+HuFP0nP+lvT&#xA;5cf0hwj9f7W1fs8uO3KveuQhW9d7Od7X3KXmf9E/pjy/+lvW+r/Wz9Tpw+q/XuP+j+v+3y+16P7P&#xA;Pr8XDGVWLWN0af/Z</xmpGImg:image>
               </rdf:li>
            </rdf:Alt>
         </xmp:Thumbnails>
      </rdf:Description>
      <rdf:Description rdf:about=""
            xmlns:xmpMM="http://ns.adobe.com/xap/1.0/mm/"
            xmlns:stRef="http://ns.adobe.com/xap/1.0/sType/ResourceRef#"
            xmlns:stEvt="http://ns.adobe.com/xap/1.0/sType/ResourceEvent#">
         <xmpMM:RenditionClass>proof:pdf</xmpMM:RenditionClass>
         <xmpMM:OriginalDocumentID>uuid:65E6390686CF11DBA6E2D887CEACB407</xmpMM:OriginalDocumentID>
         <xmpMM:DocumentID>xmp.did:C9A56297C666E71188338B517F3ADCD9</xmpMM:DocumentID>
         <xmpMM:InstanceID>xmp.iid:C9A56297C666E71188338B517F3ADCD9</xmpMM:InstanceID>
         <xmpMM:DerivedFrom rdf:parseType="Resource">
            <stRef:instanceID>uuid:c5b5eddb-66da-6741-a40d-cc810f9d042d</stRef:instanceID>
            <stRef:documentID>xmp.did:FB05051EC465E111835FF2FC000FBA2B</stRef:documentID>
            <stRef:originalDocumentID>uuid:65E6390686CF11DBA6E2D887CEACB407</stRef:originalDocumentID>
            <stRef:renditionClass>proof:pdf</stRef:renditionClass>
         </xmpMM:DerivedFrom>
         <xmpMM:History>
            <rdf:Seq>
               <rdf:li rdf:parseType="Resource">
                  <stEvt:action>saved</stEvt:action>
                  <stEvt:instanceID>xmp.iid:C9A56297C666E71188338B517F3ADCD9</stEvt:instanceID>
                  <stEvt:when>2017-07-12T14:54:38+09:00</stEvt:when>
                  <stEvt:softwareAgent>Adobe Illustrator CS6 (Windows)</stEvt:softwareAgent>
                  <stEvt:changed>/</stEvt:changed>
               </rdf:li>
            </rdf:Seq>
         </xmpMM:History>
      </rdf:Description>
      <rdf:Description rdf:about=""
            xmlns:illustrator="http://ns.adobe.com/illustrator/1.0/">
         <illustrator:StartupProfile>Web</illustrator:StartupProfile>
      </rdf:Description>
      <rdf:Description rdf:about=""
            xmlns:xmpTPg="http://ns.adobe.com/xap/1.0/t/pg/"
            xmlns:stDim="http://ns.adobe.com/xap/1.0/sType/Dimensions#"
            xmlns:xmpG="http://ns.adobe.com/xap/1.0/g/">
         <xmpTPg:NPages>1</xmpTPg:NPages>
         <xmpTPg:HasVisibleTransparency>False</xmpTPg:HasVisibleTransparency>
         <xmpTPg:HasVisibleOverprint>False</xmpTPg:HasVisibleOverprint>
         <xmpTPg:MaxPageSize rdf:parseType="Resource">
            <stDim:w>196.323242</stDim:w>
            <stDim:h>39.182617</stDim:h>
            <stDim:unit>Pixels</stDim:unit>
         </xmpTPg:MaxPageSize>
         <xmpTPg:PlateNames>
            <rdf:Seq>
               <rdf:li>Cyan</rdf:li>
               <rdf:li>Magenta</rdf:li>
               <rdf:li>Yellow</rdf:li>
               <rdf:li>Black</rdf:li>
            </rdf:Seq>
         </xmpTPg:PlateNames>
         <xmpTPg:SwatchGroups>
            <rdf:Seq>
               <rdf:li rdf:parseType="Resource">
                  <xmpG:groupName>初期設定のスウォッチグループ</xmpG:groupName>
                  <xmpG:groupType>0</xmpG:groupType>
                  <xmpG:Colorants>
                     <rdf:Seq>
                        <rdf:li rdf:parseType="Resource">
                           <xmpG:swatchName>ホワイト</xmpG:swatchName>
                           <xmpG:mode>RGB</xmpG:mode>
                           <xmpG:type>PROCESS</xmpG:type>
                           <xmpG:red>255</xmpG:red>
                           <xmpG:green>255</xmpG:green>
                           <xmpG:blue>255</xmpG:blue>
                        </rdf:li>
                        <rdf:li rdf:parseType="Resource">
                           <xmpG:swatchName>ブラック</xmpG:swatchName>
                           <xmpG:mode>RGB</xmpG:mode>
                           <xmpG:type>PROCESS</xmpG:type>
                           <xmpG:red>0</xmpG:red>
                           <xmpG:green>0</xmpG:green>
                           <xmpG:blue>0</xmpG:blue>
                        </rdf:li>
                        <rdf:li rdf:parseType="Resource">
                           <xmpG:swatchName>RGB レッド</xmpG:swatchName>
                           <xmpG:mode>RGB</xmpG:mode>
                           <xmpG:type>PROCESS</xmpG:type>
                           <xmpG:red>255</xmpG:red>
                           <xmpG:green>0</xmpG:green>
                           <xmpG:blue>0</xmpG:blue>
                        </rdf:li>
                        <rdf:li rdf:parseType="Resource">
                           <xmpG:swatchName>RGB イエロー</xmpG:swatchName>
                           <xmpG:mode>RGB</xmpG:mode>
                           <xmpG:type>PROCESS</xmpG:type>
                           <xmpG:red>255</xmpG:red>
                           <xmpG:green>255</xmpG:green>
                           <xmpG:blue>0</xmpG:blue>
                        </rdf:li>
                        <rdf:li rdf:parseType="Resource">
                           <xmpG:swatchName>RGB グリーン</xmpG:swatchName>
                           <xmpG:mode>RGB</xmpG:mode>
                           <xmpG:type>PROCESS</xmpG:type>
                           <xmpG:red>0</xmpG:red>
                           <xmpG:green>255</xmpG:green>
                           <xmpG:blue>0</xmpG:blue>
                        </rdf:li>
                        <rdf:li rdf:parseType="Resource">
                           <xmpG:swatchName>RGB シアン</xmpG:swatchName>
                           <xmpG:mode>RGB</xmpG:mode>
                           <xmpG:type>PROCESS</xmpG:type>
                           <xmpG:red>0</xmpG:red>
                           <xmpG:green>255</xmpG:green>
                           <xmpG:blue>255</xmpG:blue>
                        </rdf:li>
                        <rdf:li rdf:parseType="Resource">
                           <xmpG:swatchName>RGB ブルー</xmpG:swatchName>
                           <xmpG:mode>RGB</xmpG:mode>
                           <xmpG:type>PROCESS</xmpG:type>
                           <xmpG:red>0</xmpG:red>
                           <xmpG:green>0</xmpG:green>
                           <xmpG:blue>255</xmpG:blue>
                        </rdf:li>
                        <rdf:li rdf:parseType="Resource">
                           <xmpG:swatchName>RGB マゼンタ</xmpG:swatchName>
                           <xmpG:mode>RGB</xmpG:mode>
                           <xmpG:type>PROCESS</xmpG:type>
                           <xmpG:red>255</xmpG:red>
                           <xmpG:green>0</xmpG:green>
                           <xmpG:blue>255</xmpG:blue>
                        </rdf:li>
                        <rdf:li rdf:parseType="Resource">
                           <xmpG:swatchName>R=193 G=39 B=45</xmpG:swatchName>
                           <xmpG:mode>RGB</xmpG:mode>
                           <xmpG:type>PROCESS</xmpG:type>
                           <xmpG:red>193</xmpG:red>
                           <xmpG:green>39</xmpG:green>
                           <xmpG:blue>45</xmpG:blue>
                        </rdf:li>
                        <rdf:li rdf:parseType="Resource">
                           <xmpG:swatchName>R=237 G=28 B=36</xmpG:swatchName>
                           <xmpG:mode>RGB</xmpG:mode>
                           <xmpG:type>PROCESS</xmpG:type>
                           <xmpG:red>237</xmpG:red>
                           <xmpG:green>28</xmpG:green>
                           <xmpG:blue>36</xmpG:blue>
                        </rdf:li>
                        <rdf:li rdf:parseType="Resource">
                           <xmpG:swatchName>R=241 G=90 B=36</xmpG:swatchName>
                           <xmpG:mode>RGB</xmpG:mode>
                           <xmpG:type>PROCESS</xmpG:type>
                           <xmpG:red>241</xmpG:red>
                           <xmpG:green>90</xmpG:green>
                           <xmpG:blue>36</xmpG:blue>
                        </rdf:li>
                        <rdf:li rdf:parseType="Resource">
                           <xmpG:swatchName>R=247 G=147 B=30</xmpG:swatchName>
                           <xmpG:mode>RGB</xmpG:mode>
                           <xmpG:type>PROCESS</xmpG:type>
                           <xmpG:red>247</xmpG:red>
                           <xmpG:green>147</xmpG:green>
                           <xmpG:blue>30</xmpG:blue>
                        </rdf:li>
                        <rdf:li rdf:parseType="Resource">
                           <xmpG:swatchName>R=251 G=176 B=59</xmpG:swatchName>
                           <xmpG:mode>RGB</xmpG:mode>
                           <xmpG:type>PROCESS</xmpG:type>
                           <xmpG:red>251</xmpG:red>
                           <xmpG:green>176</xmpG:green>
                           <xmpG:blue>59</xmpG:blue>
                        </rdf:li>
                        <rdf:li rdf:parseType="Resource">
                           <xmpG:swatchName>R=252 G=238 B=33</xmpG:swatchName>
                           <xmpG:mode>RGB</xmpG:mode>
                           <xmpG:type>PROCESS</xmpG:type>
                           <xmpG:red>252</xmpG:red>
                           <xmpG:green>238</xmpG:green>
                           <xmpG:blue>33</xmpG:blue>
                        </rdf:li>
                        <rdf:li rdf:parseType="Resource">
                           <xmpG:swatchName>R=217 G=224 B=33</xmpG:swatchName>
                           <xmpG:mode>RGB</xmpG:mode>
                           <xmpG:type>PROCESS</xmpG:type>
                           <xmpG:red>217</xmpG:red>
                           <xmpG:green>224</xmpG:green>
                           <xmpG:blue>33</xmpG:blue>
                        </rdf:li>
                        <rdf:li rdf:parseType="Resource">
                           <xmpG:swatchName>R=140 G=198 B=63</xmpG:swatchName>
                           <xmpG:mode>RGB</xmpG:mode>
                           <xmpG:type>PROCESS</xmpG:type>
                           <xmpG:red>140</xmpG:red>
                           <xmpG:green>198</xmpG:green>
                           <xmpG:blue>63</xmpG:blue>
                        </rdf:li>
                        <rdf:li rdf:parseType="Resource">
                           <xmpG:swatchName>R=57 G=181 B=74</xmpG:swatchName>
                           <xmpG:mode>RGB</xmpG:mode>
                           <xmpG:type>PROCESS</xmpG:type>
                           <xmpG:red>57</xmpG:red>
                           <xmpG:green>181</xmpG:green>
                           <xmpG:blue>74</xmpG:blue>
                        </rdf:li>
                        <rdf:li rdf:parseType="Resource">
                           <xmpG:swatchName>R=0 G=146 B=69</xmpG:swatchName>
                           <xmpG:mode>RGB</xmpG:mode>
                           <xmpG:type>PROCESS</xmpG:type>
                           <xmpG:red>0</xmpG:red>
                           <xmpG:green>146</xmpG:green>
                           <xmpG:blue>69</xmpG:blue>
                        </rdf:li>
                        <rdf:li rdf:parseType="Resource">
                           <xmpG:swatchName>R=0 G=104 B=55</xmpG:swatchName>
                           <xmpG:mode>RGB</xmpG:mode>
                           <xmpG:type>PROCESS</xmpG:type>
                           <xmpG:red>0</xmpG:red>
                           <xmpG:green>104</xmpG:green>
                           <xmpG:blue>55</xmpG:blue>
                        </rdf:li>
                        <rdf:li rdf:parseType="Resource">
                           <xmpG:swatchName>R=34 G=181 B=115</xmpG:swatchName>
                           <xmpG:mode>RGB</xmpG:mode>
                           <xmpG:type>PROCESS</xmpG:type>
                           <xmpG:red>34</xmpG:red>
                           <xmpG:green>181</xmpG:green>
                           <xmpG:blue>115</xmpG:blue>
                        </rdf:li>
                        <rdf:li rdf:parseType="Resource">
                           <xmpG:swatchName>R=0 G=169 B=157</xmpG:swatchName>
                           <xmpG:mode>RGB</xmpG:mode>
                           <xmpG:type>PROCESS</xmpG:type>
                           <xmpG:red>0</xmpG:red>
                           <xmpG:green>169</xmpG:green>
                           <xmpG:blue>157</xmpG:blue>
                        </rdf:li>
                        <rdf:li rdf:parseType="Resource">
                           <xmpG:swatchName>R=41 G=171 B=226</xmpG:swatchName>
                           <xmpG:mode>RGB</xmpG:mode>
                           <xmpG:type>PROCESS</xmpG:type>
                           <xmpG:red>41</xmpG:red>
                           <xmpG:green>171</xmpG:green>
                           <xmpG:blue>226</xmpG:blue>
                        </rdf:li>
                        <rdf:li rdf:parseType="Resource">
                           <xmpG:swatchName>R=0 G=113 B=188</xmpG:swatchName>
                           <xmpG:mode>RGB</xmpG:mode>
                           <xmpG:type>PROCESS</xmpG:type>
                           <xmpG:red>0</xmpG:red>
                           <xmpG:green>113</xmpG:green>
                           <xmpG:blue>188</xmpG:blue>
                        </rdf:li>
                        <rdf:li rdf:parseType="Resource">
                           <xmpG:swatchName>R=46 G=49 B=146</xmpG:swatchName>
                           <xmpG:mode>RGB</xmpG:mode>
                           <xmpG:type>PROCESS</xmpG:type>
                           <xmpG:red>46</xmpG:red>
                           <xmpG:green>49</xmpG:green>
                           <xmpG:blue>146</xmpG:blue>
                        </rdf:li>
                        <rdf:li rdf:parseType="Resource">
                           <xmpG:swatchName>R=27 G=20 B=100</xmpG:swatchName>
                           <xmpG:mode>RGB</xmpG:mode>
                           <xmpG:type>PROCESS</xmpG:type>
                           <xmpG:red>27</xmpG:red>
                           <xmpG:green>20</xmpG:green>
                           <xmpG:blue>100</xmpG:blue>
                        </rdf:li>
                        <rdf:li rdf:parseType="Resource">
                           <xmpG:swatchName>R=102 G=45 B=145</xmpG:swatchName>
                           <xmpG:mode>RGB</xmpG:mode>
                           <xmpG:type>PROCESS</xmpG:type>
                           <xmpG:red>102</xmpG:red>
                           <xmpG:green>45</xmpG:green>
                           <xmpG:blue>145</xmpG:blue>
                        </rdf:li>
                        <rdf:li rdf:parseType="Resource">
                           <xmpG:swatchName>R=147 G=39 B=143</xmpG:swatchName>
                           <xmpG:mode>RGB</xmpG:mode>
                           <xmpG:type>PROCESS</xmpG:type>
                           <xmpG:red>147</xmpG:red>
                           <xmpG:green>39</xmpG:green>
                           <xmpG:blue>143</xmpG:blue>
                        </rdf:li>
                        <rdf:li rdf:parseType="Resource">
                           <xmpG:swatchName>R=158 G=0 B=93</xmpG:swatchName>
                           <xmpG:mode>RGB</xmpG:mode>
                           <xmpG:type>PROCESS</xmpG:type>
                           <xmpG:red>158</xmpG:red>
                           <xmpG:green>0</xmpG:green>
                           <xmpG:blue>93</xmpG:blue>
                        </rdf:li>
                        <rdf:li rdf:parseType="Resource">
                           <xmpG:swatchName>R=212 G=20 B=90</xmpG:swatchName>
                           <xmpG:mode>RGB</xmpG:mode>
                           <xmpG:type>PROCESS</xmpG:type>
                           <xmpG:red>212</xmpG:red>
                           <xmpG:green>20</xmpG:green>
                           <xmpG:blue>90</xmpG:blue>
                        </rdf:li>
                        <rdf:li rdf:parseType="Resource">
                           <xmpG:swatchName>R=237 G=30 B=121</xmpG:swatchName>
                           <xmpG:mode>RGB</xmpG:mode>
                           <xmpG:type>PROCESS</xmpG:type>
                           <xmpG:red>237</xmpG:red>
                           <xmpG:green>30</xmpG:green>
                           <xmpG:blue>121</xmpG:blue>
                        </rdf:li>
                        <rdf:li rdf:parseType="Resource">
                           <xmpG:swatchName>R=199 G=178 B=153</xmpG:swatchName>
                           <xmpG:mode>RGB</xmpG:mode>
                           <xmpG:type>PROCESS</xmpG:type>
                           <xmpG:red>199</xmpG:red>
                           <xmpG:green>178</xmpG:green>
                           <xmpG:blue>153</xmpG:blue>
                        </rdf:li>
                        <rdf:li rdf:parseType="Resource">
                           <xmpG:swatchName>R=153 G=134 B=117</xmpG:swatchName>
                           <xmpG:mode>RGB</xmpG:mode>
                           <xmpG:type>PROCESS</xmpG:type>
                           <xmpG:red>153</xmpG:red>
                           <xmpG:green>134</xmpG:green>
                           <xmpG:blue>117</xmpG:blue>
                        </rdf:li>
                        <rdf:li rdf:parseType="Resource">
                           <xmpG:swatchName>R=115 G=99 B=87</xmpG:swatchName>
                           <xmpG:mode>RGB</xmpG:mode>
                           <xmpG:type>PROCESS</xmpG:type>
                           <xmpG:red>115</xmpG:red>
                           <xmpG:green>99</xmpG:green>
                           <xmpG:blue>87</xmpG:blue>
                        </rdf:li>
                        <rdf:li rdf:parseType="Resource">
                           <xmpG:swatchName>R=83 G=71 B=65</xmpG:swatchName>
                           <xmpG:mode>RGB</xmpG:mode>
                           <xmpG:type>PROCESS</xmpG:type>
                           <xmpG:red>83</xmpG:red>
                           <xmpG:green>71</xmpG:green>
                           <xmpG:blue>65</xmpG:blue>
                        </rdf:li>
                        <rdf:li rdf:parseType="Resource">
                           <xmpG:swatchName>R=198 G=156 B=109</xmpG:swatchName>
                           <xmpG:mode>RGB</xmpG:mode>
                           <xmpG:type>PROCESS</xmpG:type>
                           <xmpG:red>198</xmpG:red>
                           <xmpG:green>156</xmpG:green>
                           <xmpG:blue>109</xmpG:blue>
                        </rdf:li>
                        <rdf:li rdf:parseType="Resource">
                           <xmpG:swatchName>R=166 G=124 B=82</xmpG:swatchName>
                           <xmpG:mode>RGB</xmpG:mode>
                           <xmpG:type>PROCESS</xmpG:type>
                           <xmpG:red>166</xmpG:red>
                           <xmpG:green>124</xmpG:green>
                           <xmpG:blue>82</xmpG:blue>
                        </rdf:li>
                        <rdf:li rdf:parseType="Resource">
                           <xmpG:swatchName>R=140 G=98 B=57</xmpG:swatchName>
                           <xmpG:mode>RGB</xmpG:mode>
                           <xmpG:type>PROCESS</xmpG:type>
                           <xmpG:red>140</xmpG:red>
                           <xmpG:green>98</xmpG:green>
                           <xmpG:blue>57</xmpG:blue>
                        </rdf:li>
                        <rdf:li rdf:parseType="Resource">
                           <xmpG:swatchName>R=117 G=76 B=36</xmpG:swatchName>
                           <xmpG:mode>RGB</xmpG:mode>
                           <xmpG:type>PROCESS</xmpG:type>
                           <xmpG:red>117</xmpG:red>
                           <xmpG:green>76</xmpG:green>
                           <xmpG:blue>36</xmpG:blue>
                        </rdf:li>
                        <rdf:li rdf:parseType="Resource">
                           <xmpG:swatchName>R=96 G=56 B=19</xmpG:swatchName>
                           <xmpG:mode>RGB</xmpG:mode>
                           <xmpG:type>PROCESS</xmpG:type>
                           <xmpG:red>96</xmpG:red>
                           <xmpG:green>56</xmpG:green>
                           <xmpG:blue>19</xmpG:blue>
                        </rdf:li>
                        <rdf:li rdf:parseType="Resource">
                           <xmpG:swatchName>R=66 G=33 B=11</xmpG:swatchName>
                           <xmpG:mode>RGB</xmpG:mode>
                           <xmpG:type>PROCESS</xmpG:type>
                           <xmpG:red>66</xmpG:red>
                           <xmpG:green>33</xmpG:green>
                           <xmpG:blue>11</xmpG:blue>
                        </rdf:li>
                     </rdf:Seq>
                  </xmpG:Colorants>
               </rdf:li>
               <rdf:li rdf:parseType="Resource">
                  <xmpG:groupName>グレー</xmpG:groupName>
                  <xmpG:groupType>1</xmpG:groupType>
                  <xmpG:Colorants>
                     <rdf:Seq>
                        <rdf:li rdf:parseType="Resource">
                           <xmpG:swatchName>R=0 G=0 B=0</xmpG:swatchName>
                           <xmpG:mode>RGB</xmpG:mode>
                           <xmpG:type>PROCESS</xmpG:type>
                           <xmpG:red>0</xmpG:red>
                           <xmpG:green>0</xmpG:green>
                           <xmpG:blue>0</xmpG:blue>
                        </rdf:li>
                        <rdf:li rdf:parseType="Resource">
                           <xmpG:swatchName>R=26 G=26 B=26</xmpG:swatchName>
                           <xmpG:mode>RGB</xmpG:mode>
                           <xmpG:type>PROCESS</xmpG:type>
                           <xmpG:red>26</xmpG:red>
                           <xmpG:green>26</xmpG:green>
                           <xmpG:blue>26</xmpG:blue>
                        </rdf:li>
                        <rdf:li rdf:parseType="Resource">
                           <xmpG:swatchName>R=51 G=51 B=51</xmpG:swatchName>
                           <xmpG:mode>RGB</xmpG:mode>
                           <xmpG:type>PROCESS</xmpG:type>
                           <xmpG:red>51</xmpG:red>
                           <xmpG:green>51</xmpG:green>
                           <xmpG:blue>51</xmpG:blue>
                        </rdf:li>
                        <rdf:li rdf:parseType="Resource">
                           <xmpG:swatchName>R=77 G=77 B=77</xmpG:swatchName>
                           <xmpG:mode>RGB</xmpG:mode>
                           <xmpG:type>PROCESS</xmpG:type>
                           <xmpG:red>77</xmpG:red>
                           <xmpG:green>77</xmpG:green>
                           <xmpG:blue>77</xmpG:blue>
                        </rdf:li>
                        <rdf:li rdf:parseType="Resource">
                           <xmpG:swatchName>R=102 G=102 B=102</xmpG:swatchName>
                           <xmpG:mode>RGB</xmpG:mode>
                           <xmpG:type>PROCESS</xmpG:type>
                           <xmpG:red>102</xmpG:red>
                           <xmpG:green>102</xmpG:green>
                           <xmpG:blue>102</xmpG:blue>
                        </rdf:li>
                        <rdf:li rdf:parseType="Resource">
                           <xmpG:swatchName>R=128 G=128 B=128</xmpG:swatchName>
                           <xmpG:mode>RGB</xmpG:mode>
                           <xmpG:type>PROCESS</xmpG:type>
                           <xmpG:red>128</xmpG:red>
                           <xmpG:green>128</xmpG:green>
                           <xmpG:blue>128</xmpG:blue>
                        </rdf:li>
                        <rdf:li rdf:parseType="Resource">
                           <xmpG:swatchName>R=153 G=153 B=153</xmpG:swatchName>
                           <xmpG:mode>RGB</xmpG:mode>
                           <xmpG:type>PROCESS</xmpG:type>
                           <xmpG:red>153</xmpG:red>
                           <xmpG:green>153</xmpG:green>
                           <xmpG:blue>153</xmpG:blue>
                        </rdf:li>
                        <rdf:li rdf:parseType="Resource">
                           <xmpG:swatchName>R=179 G=179 B=179</xmpG:swatchName>
                           <xmpG:mode>RGB</xmpG:mode>
                           <xmpG:type>PROCESS</xmpG:type>
                           <xmpG:red>179</xmpG:red>
                           <xmpG:green>179</xmpG:green>
                           <xmpG:blue>179</xmpG:blue>
                        </rdf:li>
                        <rdf:li rdf:parseType="Resource">
                           <xmpG:swatchName>R=204 G=204 B=204</xmpG:swatchName>
                           <xmpG:mode>RGB</xmpG:mode>
                           <xmpG:type>PROCESS</xmpG:type>
                           <xmpG:red>204</xmpG:red>
                           <xmpG:green>204</xmpG:green>
                           <xmpG:blue>204</xmpG:blue>
                        </rdf:li>
                        <rdf:li rdf:parseType="Resource">
                           <xmpG:swatchName>R=230 G=230 B=230</xmpG:swatchName>
                           <xmpG:mode>RGB</xmpG:mode>
                           <xmpG:type>PROCESS</xmpG:type>
                           <xmpG:red>230</xmpG:red>
                           <xmpG:green>230</xmpG:green>
                           <xmpG:blue>230</xmpG:blue>
                        </rdf:li>
                        <rdf:li rdf:parseType="Resource">
                           <xmpG:swatchName>R=242 G=242 B=242</xmpG:swatchName>
                           <xmpG:mode>RGB</xmpG:mode>
                           <xmpG:type>PROCESS</xmpG:type>
                           <xmpG:red>242</xmpG:red>
                           <xmpG:green>242</xmpG:green>
                           <xmpG:blue>242</xmpG:blue>
                        </rdf:li>
                     </rdf:Seq>
                  </xmpG:Colorants>
               </rdf:li>
               <rdf:li rdf:parseType="Resource">
                  <xmpG:groupName>Web カラーグループ</xmpG:groupName>
                  <xmpG:groupType>1</xmpG:groupType>
                  <xmpG:Colorants>
                     <rdf:Seq>
                        <rdf:li rdf:parseType="Resource">
                           <xmpG:swatchName>R=63 G=169 B=245</xmpG:swatchName>
                           <xmpG:mode>RGB</xmpG:mode>
                           <xmpG:type>PROCESS</xmpG:type>
                           <xmpG:red>63</xmpG:red>
                           <xmpG:green>169</xmpG:green>
                           <xmpG:blue>245</xmpG:blue>
                        </rdf:li>
                        <rdf:li rdf:parseType="Resource">
                           <xmpG:swatchName>R=122 G=201 B=67</xmpG:swatchName>
                           <xmpG:mode>RGB</xmpG:mode>
                           <xmpG:type>PROCESS</xmpG:type>
                           <xmpG:red>122</xmpG:red>
                           <xmpG:green>201</xmpG:green>
                           <xmpG:blue>67</xmpG:blue>
                        </rdf:li>
                        <rdf:li rdf:parseType="Resource">
                           <xmpG:swatchName>R=255 G=147 B=30</xmpG:swatchName>
                           <xmpG:mode>RGB</xmpG:mode>
                           <xmpG:type>PROCESS</xmpG:type>
                           <xmpG:red>255</xmpG:red>
                           <xmpG:green>147</xmpG:green>
                           <xmpG:blue>30</xmpG:blue>
                        </rdf:li>
                        <rdf:li rdf:parseType="Resource">
                           <xmpG:swatchName>R=255 G=29 B=37</xmpG:swatchName>
                           <xmpG:mode>RGB</xmpG:mode>
                           <xmpG:type>PROCESS</xmpG:type>
                           <xmpG:red>255</xmpG:red>
                           <xmpG:green>29</xmpG:green>
                           <xmpG:blue>37</xmpG:blue>
                        </rdf:li>
                        <rdf:li rdf:parseType="Resource">
                           <xmpG:swatchName>R=255 G=123 B=172</xmpG:swatchName>
                           <xmpG:mode>RGB</xmpG:mode>
                           <xmpG:type>PROCESS</xmpG:type>
                           <xmpG:red>255</xmpG:red>
                           <xmpG:green>123</xmpG:green>
                           <xmpG:blue>172</xmpG:blue>
                        </rdf:li>
                        <rdf:li rdf:parseType="Resource">
                           <xmpG:swatchName>R=189 G=204 B=212</xmpG:swatchName>
                           <xmpG:mode>RGB</xmpG:mode>
                           <xmpG:type>PROCESS</xmpG:type>
                           <xmpG:red>189</xmpG:red>
                           <xmpG:green>204</xmpG:green>
                           <xmpG:blue>212</xmpG:blue>
                        </rdf:li>
                     </rdf:Seq>
                  </xmpG:Colorants>
               </rdf:li>
            </rdf:Seq>
         </xmpTPg:SwatchGroups>
      </rdf:Description>
      <rdf:Description rdf:about=""
            xmlns:pdf="http://ns.adobe.com/pdf/1.3/">
         <pdf:Producer>Adobe PDF library 10.01</pdf:Producer>
      </rdf:Description>
   </rdf:RDF>
</x:xmpmeta>
                                                                                                    
                                                                                                    
                                                                                                    
                                                                                                    
                                                                                                    
                                                                                                    
                                                                                                    
                                                                                                    
                                                                                                    
                                                                                                    
                                                                                                    
                                                                                                    
                                                                                                    
                                                                                                    
                                                                                                    
                                                                                                    
                                                                                                    
                                                                                                    
                                                                                                    
                                                                                                    
                           
<?xpacket end="w"?>
	</metadata>
<g>
	<path fill="#4A1F00" d="M0.321,4.381c0.96,0.9,1.521,1.16,2.521,1.16c0.52,0,1.06-0.08,1.82-0.24c0.5-1.3,0.72-2.14,0.72-2.84
		c0-0.66-0.32-1.061-1.28-1.541c0.22-0.12,0.32-0.14,0.48-0.14c0.4,0,1.021,0.18,1.601,0.46c0.68,0.34,0.94,0.561,0.94,0.84
		c0,0.16-0.04,0.28-0.2,0.521c-0.08,0.16-0.5,0.98-1.22,2.461c1.48-0.521,1.66-0.62,2.22-1.101c0.16-0.14,0.22-0.16,0.42-0.16
		c0.78,0,1.36,0.26,1.36,0.601c0,0.52-1.24,1.02-4.421,1.76c-0.18,0.4-0.52,1.221-1.06,2.421c-0.6,1.38-2.141,4.741-2.32,5.081
		c-0.3,0.54-0.48,0.72-0.72,0.72c-0.34,0-0.62-0.62-0.62-1.42c0-0.4,0.04-0.521,0.22-0.721c0.44-0.479,0.68-0.779,0.96-1.2
		c0.98-1.46,1.7-2.82,2.5-4.7c-0.44,0.06-0.62,0.079-0.94,0.079c-0.72,0-1.26-0.119-1.76-0.42c-0.6-0.34-1.06-0.82-1.46-1.46
		L0.321,4.381z M10.903,5.501c1.38,0.12,2.501,0.48,3.421,1.101c0.78,0.5,1.26,1.1,1.26,1.561c0,0.34-0.2,0.58-0.52,0.58
		c-0.16,0-0.28-0.04-0.46-0.16c-0.56-0.34-0.94-0.42-1.96-0.42c-1.601,0-2.101,0.439-2.101,1.82c0,0.54,0.1,1.4,0.4,3.44
		c1.221,0.36,2.261,0.84,2.841,1.301c0.54,0.42,0.8,0.939,0.8,1.58c0,0.399-0.16,0.68-0.4,0.68c-0.2,0-0.28-0.06-0.7-0.52
		c-0.72-0.78-1.38-1.261-2.42-1.761c0,0.16,0,0.3,0,0.38c0,0.801-0.16,1.261-0.56,1.7c-0.54,0.54-1.48,0.86-2.601,0.86
		c-1.8,0-3.041-0.86-3.041-2.12c0-1.4,1.521-2.381,3.741-2.381c0.46,0,0.68,0.021,1.2,0.101c-0.06-1.581-0.06-1.74-0.06-1.98
		c0-1.641,0.16-2.261,0.7-2.861c0.4-0.42,0.96-0.7,1.9-0.939c0.3-0.08,0.34-0.101,1.081-0.261c-0.541-0.58-1.161-0.899-2.581-1.38
		L10.903,5.501z M9.823,14.263c-0.62-0.18-1.08-0.239-1.72-0.239c-1.701,0-2.741,0.58-2.741,1.52c0,0.74,0.76,1.181,2,1.181
		c1.62,0,2.46-0.66,2.46-1.921V14.263z"/>
	<path fill="#4A1F00" d="M27.202,7.241c-1.4,0.46-2.041,0.721-2.601,1.041c-0.3,0.18-0.42,0.22-0.58,0.22
		c-0.22,0-0.62-0.26-0.88-0.601c-0.36-0.46-0.66-1.16-0.66-1.52c0-0.101,0.04-0.24,0.12-0.44c0.42,0.82,0.78,1.101,1.521,1.101
		c0.44,0,1.92-0.301,3.401-0.7c0.46-1.141,0.82-2.601,0.82-3.281c0-0.62-0.4-0.98-1.54-1.34c0.24-0.181,0.36-0.221,0.58-0.221
		c0.3,0,0.82,0.101,1.36,0.261c0.9,0.26,1.4,0.64,1.4,1.06c0,0.141-0.04,0.221-0.28,0.58c-0.26,0.381-0.7,1.32-1.28,2.701
		c0.88-0.181,1.24-0.221,1.74-0.221c1.721,0,2.541,1.021,2.541,3.121c0,2.561-1.02,5.881-2.18,7.161c-0.5,0.521-1.28,0.9-1.92,0.9
		c-0.34,0-0.5-0.14-0.54-0.46c-0.06-0.561-0.1-0.6-2.221-2.341l0.18-0.239c1.52,0.859,2.681,1.359,3.101,1.359
		c0.44,0,0.78-0.42,1.3-1.68c0.7-1.641,1.18-3.841,1.18-5.361c0-0.84-0.18-1.38-0.54-1.62c-0.2-0.141-0.46-0.2-0.9-0.2
		c-0.56,0-0.94,0.08-2.08,0.4c-0.28,0.7-0.28,0.7-1.161,2.72c-0.1,0.261-0.5,1.181-1.18,2.801c-0.8,1.881-1.46,3.321-1.78,3.881
		c-0.14,0.261-0.3,0.38-0.48,0.38c-0.36,0-0.58-0.52-0.58-1.38c0-0.5,0.06-0.66,0.46-1.12c0.38-0.42,0.92-1.28,1.48-2.36
		c0.76-1.461,0.76-1.461,1.6-3.301L27.202,7.241z M35.004,5.961c1.561,0.46,2.781,1.261,3.661,2.4c0.76,0.98,1.141,1.94,1.141,2.821
		c0,0.7-0.3,1.1-0.8,1.1c-0.16,0-0.24-0.02-0.46-0.14c-0.34-0.2-0.44-0.22-0.82-0.22c-0.7,0-0.8,0-2.5,0.18l-0.08-0.26
		c2.101-0.641,2.42-0.761,3.061-1.021c-0.08-0.68-0.26-1.26-0.62-1.92c-0.64-1.24-1.42-2.001-2.741-2.661L35.004,5.961z
		 M35.864,2.881c0.62,0.22,1.38,0.62,2.041,1.06c0.72,0.48,0.96,0.82,0.96,1.341c0,0.54-0.22,0.96-0.48,0.96
		c-0.2,0-0.32-0.14-0.6-0.66c-0.38-0.74-1.3-1.82-2.081-2.46L35.864,2.881z M37.524,1.561c0.68,0.2,1.34,0.479,2,0.86
		c0.72,0.399,1.06,0.8,1.06,1.24c0,0.54-0.18,0.96-0.4,0.96c-0.16,0-0.3-0.14-0.58-0.54c-0.54-0.841-1.12-1.421-2.241-2.301
		L37.524,1.561z"/>
	<path fill="#4A1F00" d="M48.582,2.881c0.78,0.58,1.26,1.1,1.541,1.64c0.18,0.36,0.4,1.101,0.62,2.101
		c1.38-0.74,2.4-1.04,4.181-1.26c0.26-0.98,0.38-1.761,0.38-2.341c0-0.5-0.22-0.66-0.94-0.66c-0.1,0-0.22,0-0.38,0l-0.06-0.22
		c0.54-0.24,0.96-0.34,1.28-0.34c0.76,0,1.58,0.64,1.58,1.22c0,0.36-0.3,1.5-0.6,2.32c3.321,0.141,5.601,2.281,5.601,5.281
		c0,2.221-1.28,4.121-3.641,5.361c-1.22,0.641-2.34,0.96-3.921,1.16l-0.08-0.28c1.721-0.52,2.821-1.1,3.881-2
		c1.44-1.261,2.201-2.841,2.201-4.581c0-1.54-0.62-2.82-1.72-3.601c-0.72-0.5-1.42-0.721-2.501-0.78
		c-0.82,2.221-2.1,4.621-3.36,6.241c0.28,0.42,0.38,0.561,0.72,1c0.58,0.721,0.62,0.801,0.62,1.04c0,0.24-0.22,0.44-0.48,0.44
		c-0.46,0-1.08-0.54-1.72-1.46c-0.3,0.42-0.76,0.86-1.54,1.48c-0.66,0.5-1.121,0.72-1.601,0.72c-0.46,0-0.68-0.26-0.88-1.021
		c-0.18-0.64-0.26-0.82-0.6-1.3c-0.34-0.46-0.46-0.801-0.46-1.221c0-1.58,1.14-3.28,3.141-4.661c-0.36-2.28-0.58-2.92-1.521-4.08
		L48.582,2.881z M48.501,9.762c-0.44,0.74-0.68,1.601-0.68,2.361c0,0.899,0.56,1.92,1.041,1.92c0.46,0,1.46-0.7,2.42-1.721
		c-0.56-1.3-0.82-2.22-1.24-4.32C49.262,8.682,48.882,9.102,48.501,9.762z M52.123,11.282c1.12-1.58,2.02-3.381,2.62-5.321
		c-1.72,0.261-2.64,0.601-3.861,1.44C51.482,9.742,51.642,10.242,52.123,11.282z"/>
	<path fill="#4A1F00" d="M77.203,16.563c2.16-0.64,3.541-1.46,4.681-2.78c1.18-1.341,1.781-2.98,1.781-4.821
		c0-1.94-0.78-3.48-2.261-4.421c-0.88-0.58-2.201-0.92-3.461-0.92c-0.24,0-0.38,0-0.7,0.04c0.48,0.7,0.62,1.08,0.62,1.66
		c0,1.561-1.121,4.48-2.641,6.921c-1.26,2.001-2.241,2.981-2.981,2.981c-0.34,0-0.66-0.16-0.88-0.421
		c-0.18-0.239-0.22-0.319-0.56-1.28c-0.18-0.52-0.3-0.76-0.88-1.88c-0.32-0.641-0.46-1.181-0.46-1.82c0-1.261,0.68-2.741,1.8-3.961
		c1.62-1.721,4.261-2.801,6.881-2.801c2.021,0,3.881,0.66,5.161,1.841c1.28,1.18,1.92,2.761,1.92,4.701
		c0,2.5-1.46,4.721-3.981,6.061c-1.16,0.62-2.2,0.94-3.901,1.24L77.203,16.563z M70.622,10.342c0,0.961,0.3,1.94,0.8,2.641
		c0.28,0.36,0.54,0.58,0.76,0.58c0.44,0,1.4-1.08,2.381-2.641c1.48-2.36,2.541-4.94,2.541-6.181c0-0.3-0.06-0.5-0.28-1
		C73.342,4.361,70.622,7.262,70.622,10.342z"/>
	<path fill="#4A1F00" d="M95.562,4.941c0-0.46-0.02-0.66-0.08-1.16c1.42,0.159,1.641,0.199,1.86,0.3c0.08,0.04,0.16,0.12,0.16,0.18
		c0,0.12,0,0.12-0.68,0.36v1.561h1c0.32-0.36,0.42-0.48,0.76-0.841c0.4,0.32,0.541,0.421,0.94,0.721c0.2,0.16,0.261,0.24,0.261,0.34
		s-0.16,0.22-0.561,0.44c0,0.359,0,0.42,0,0.76c0,0.2,0,0.2,0.02,2.101c0.02,1.12,0.02,1.12,0.04,2.9c0,0.141-0.04,0.2-0.18,0.22
		c-0.16,0.061-0.56,0.101-0.8,0.101s-0.3-0.04-0.34-0.18v-0.62h-3.601v3.92c1.82-0.359,1.82-0.359,3.661-0.88
		c-0.54-0.86-0.82-1.22-1.5-1.88l0.14-0.181c1.861,1.12,2.281,1.4,2.861,2.021c0.32,0.32,0.44,0.58,0.44,0.9
		c0,0.68-0.32,1.32-0.66,1.32c-0.18,0-0.24-0.08-0.42-0.521c-0.18-0.399-0.36-0.78-0.64-1.26c-1.02,0.479-3.741,1.561-5.601,2.2
		c-0.06,0.561-0.14,0.721-0.3,0.721c-0.1,0-0.2-0.08-0.28-0.24c-0.04-0.08-0.12-0.28-0.24-0.641c-0.2-0.52-0.2-0.54-0.4-1.06
		c0.66-0.061,0.82-0.08,1.68-0.24V5.801c-0.82,0.921-1.18,1.241-2.021,1.861l-0.2-0.261c1.34-1.521,1.78-2.141,2.66-3.7
		c0.92-1.641,1.34-2.521,1.681-3.581c1.66,0.44,2.12,0.62,2.12,0.82c0,0.14-0.16,0.2-0.82,0.3l-0.1,0.18
		c0.96,0.24,1.64,0.501,2.26,0.801c0.72,0.359,0.9,0.6,0.9,1.18c0,0.601-0.199,1.001-0.5,1.001c-0.12,0-0.2-0.061-0.36-0.261
		c-0.84-1.06-1.78-1.94-2.541-2.36c-0.86,1.32-1.72,2.461-2.88,3.801c0.4,0.181,0.56,0.28,1.06,0.601h1.2V4.941z M97.962,8.722
		v-2.08h-3.601v2.08H97.962z M94.361,9.182v2.48h3.601v-2.48H94.361z M103.964,2.881v-1.24c0-0.54-0.021-0.82-0.101-1.44
		c1.501,0.16,1.78,0.22,2.001,0.34c0.08,0.04,0.12,0.101,0.12,0.14c-0.021,0.16-0.2,0.261-0.801,0.461v1.74h2.241
		c0.359-0.5,0.479-0.641,0.84-1.101c0.66,0.5,0.86,0.66,1.4,1.181c0.18,0.22,0.22,0.279,0.22,0.34c0,0.18-0.22,0.26-0.92,0.3
		c-0.74,0.62-0.98,0.78-1.7,1.24l-0.24-0.18c0.26-0.42,0.34-0.54,0.64-1.32h-5.921c-0.08,0.68-0.16,1-0.4,1.62
		c0.7,0.36,0.801,0.42,1.36,0.801h3.741c0.28-0.36,0.38-0.461,0.68-0.82c0.521,0.319,0.681,0.42,1.141,0.78
		c0.14,0.1,0.18,0.159,0.18,0.26c0,0.14-0.1,0.24-0.54,0.52c0,0.461,0,0.841,0,1.061c0,0.5,0,0.681,0.04,2.74
		c-0.02,0.301-0.16,0.341-1.021,0.341c-0.18,0-0.22-0.021-0.279-0.16v-0.48h-4.062v2.28h4.481c0.28-0.439,0.38-0.56,0.68-0.96
		c0.54,0.36,0.721,0.46,1.2,0.801c0.181,0.159,0.261,0.26,0.261,0.34c0,0.12-0.141,0.24-0.58,0.56c0,0.58,0,0.98,0,1.381
		c0,1,0.02,1.92,0.06,3.66c0,0.141-0.04,0.221-0.12,0.24c-0.18,0.08-0.58,0.141-1.021,0.141c-0.22,0-0.279-0.061-0.279-0.24v-1.2
		h-4.682v1.3c-0.02,0.16-0.08,0.2-0.199,0.24c-0.2,0.04-0.521,0.08-0.78,0.08c-0.221,0-0.301-0.04-0.301-0.2c0-0.02,0-0.08,0-0.12
		c0.021-2.9,0.061-8.922,0.061-10.642c0-0.381,0-0.44-0.021-1.161c-0.02-0.56-0.02-1.04-0.04-1.439
		c-0.16,0.34-0.279,0.479-0.54,0.66c-0.12,0.079-0.3,0.159-0.359,0.159c-0.28,0-0.501-0.54-0.501-1.22c0-0.24,0.04-0.3,0.26-0.4
		c0.281-0.14,0.48-0.34,0.721-0.78c0.36-0.64,0.5-1.22,0.54-2.141h0.38c0.021,0.28,0.021,0.501,0.021,0.641c0,0.3,0,0.521-0.04,0.9
		H103.964z M106.645,9.542v-3.32h-4.062v3.32H106.645z M107.265,16.544v-3.801h-4.682v3.801H107.265z"/>
	<path fill="#4A1F00" d="M139.384,7.701c0.601-0.739,0.801-0.96,1.381-1.66c0.92,0.761,1.18,0.98,2.061,1.78
		c0.04,0.08,0.08,0.16,0.08,0.181c0,0.1-0.101,0.16-0.24,0.16h-6.701v7.861c0,0.48,0.02,0.48,2.08,0.48c2.08,0,2.2-0.021,2.44-0.4
		c0.18-0.32,0.62-1.74,1.2-3.901l0.3,0.021l-0.26,3.32c-0.04,0.36-0.04,0.36-0.04,0.36c0,0.2,0.12,0.32,0.42,0.44
		c0.301,0.12,0.42,0.26,0.42,0.52c0,0.32-0.239,0.54-0.68,0.681c-0.4,0.1-1.601,0.16-3.36,0.16c-2.48,0-3.041-0.04-3.421-0.261
		c-0.32-0.18-0.44-0.5-0.48-1.16c0-1.22,0-1.22,0.021-3.62V8.162h-2.521c-0.061,1.18-0.101,1.52-0.221,2.26
		c-0.479,2.661-1.5,4.541-3.261,5.962c-0.939,0.76-1.8,1.22-3.36,1.82l-0.16-0.32c1.42-0.76,2.221-1.36,3.161-2.381
		c1.56-1.72,2.2-3.681,2.4-7.341h-4.682c-0.3,0-0.62,0.02-1.14,0.1l-0.141-0.78c1.041,0.181,1.461,0.22,2.261,0.22h5.882V2.78
		c0-1.24-0.021-1.48-0.12-2.28c2.101,0.22,2.46,0.3,2.46,0.54c0,0.181-0.26,0.32-0.9,0.44v6.221H139.384z M127.441,1.48
		c0.98,0.84,1.881,1.681,2.48,2.38c0.5,0.581,0.74,1.061,0.74,1.48c0,0.681-0.479,1.501-0.86,1.501c-0.22,0-0.3-0.141-0.46-0.74
		c-0.399-1.48-1.12-2.961-2.181-4.421L127.441,1.48z M135.804,7.201c1.34-2.14,2.34-4.16,2.801-5.661
		c2.14,0.78,2.26,0.841,2.26,1.04c0,0.221-0.38,0.341-1.06,0.341c-2.561,3.301-2.561,3.301-3.721,4.501L135.804,7.201z"/>
	<path fill="#4A1F00" d="M155.942,1.801h-4.141c-0.74,0-0.801,0-1.86,0.1l-0.141-0.76c0.66,0.159,1.141,0.199,2.041,0.199h9.122
		c0.52-0.58,0.68-0.76,1.18-1.34c0.841,0.62,1.101,0.82,1.94,1.54c0.04,0.061,0.061,0.101,0.061,0.141c0,0.06-0.08,0.12-0.16,0.12
		h-6.682v1.68h6.201c0.32-0.359,0.42-0.479,0.78-0.82c0.761,0.541,0.98,0.7,1.7,1.28c0.12,0.08,0.16,0.141,0.16,0.221
		c0,0.2-0.2,0.26-1.26,0.28c-0.24,0.26-0.24,0.26-0.82,0.84c-0.42,0.42-0.42,0.42-0.721,0.74l-0.22-0.101
		c0.34-1.08,0.4-1.24,0.601-1.98h-6.422v2.361c0,0.26,0,1.28,0.021,3.04c-0.021,0.141-0.061,0.2-0.141,0.221
		c-0.1,0.04-0.62,0.079-0.98,0.079c-0.159,0-0.239-0.06-0.279-0.22c0.02-1.04,0.02-1.18,0.02-1.62V3.94h-5.821
		c-0.2,1.721-0.92,3.102-1.62,3.102c-0.3,0-0.62-0.541-0.62-1.081c0-0.22,0.1-0.399,0.38-0.6c0.86-0.601,1.221-1.24,1.62-2.781
		h0.301c0,0.2,0,0.381,0,0.501c0,0.08,0,0.199-0.021,0.399h5.781V1.801z M156.063,13.022c-1.04,1.301-1.9,2.201-2.86,3.061
		c4.2-0.119,5.401-0.159,7.981-0.34c-0.58-0.52-1.04-0.88-2.221-1.72l0.141-0.221c1.32,0.48,3.16,1.36,4.04,1.94
		c0.7,0.44,0.921,0.801,0.921,1.521c0,0.54-0.16,0.92-0.4,0.92c-0.12,0-0.22-0.06-0.36-0.26c-0.439-0.54-1.38-1.521-1.74-1.82
		c-1.3,0.28-2.061,0.4-3.681,0.64c-2.561,0.36-3.021,0.4-7.701,0.78c-0.181,0.58-0.301,0.841-0.44,0.841
		c-0.08,0-0.16-0.08-0.22-0.221c-0.061-0.12-0.12-0.439-0.181-0.859c-0.1-0.581-0.16-0.98-0.22-1.241c0.5,0,0.5,0,1.4,0.04
		c0.28,0.021,0.62,0.021,1.061,0.021c0.22,0,0.439,0,0.979,0c0.62-1.021,1-1.761,1.601-3.081h-3.86c-0.641,0-1.581,0.061-2.121,0.12
		l-0.12-0.78c0.801,0.16,1.541,0.221,2.36,0.221h12.143c0.44-0.58,0.58-0.74,1.061-1.28c0.98,0.72,0.98,0.72,1.841,1.34
		c0.06,0.08,0.08,0.141,0.08,0.18c0,0.08-0.12,0.2-0.2,0.2H156.063z M149.581,7.901c0.601,0.101,0.86,0.12,1.381,0.12h1.979
		c0.4-0.46,0.521-0.58,0.961-1c0.58,0.46,0.74,0.601,1.28,1.12c0.06,0.08,0.1,0.16,0.1,0.22c0,0.061-0.08,0.12-0.18,0.12h-4.141
		c-0.421,0-0.681,0.021-1.241,0.061L149.581,7.901z M150.062,10.262c0.78,0.101,1.32,0.141,2.44,0.141h8.201
		c0.341-0.4,0.7-0.82,1.061-1.24c0.76,0.58,0.98,0.76,1.7,1.4c0.04,0.06,0.08,0.12,0.08,0.14c0,0.08-0.1,0.16-0.2,0.16h-10.842
		c-1.74,0.04-1.74,0.04-2.32,0.1L150.062,10.262z M150.182,5.682c0.34,0.06,0.8,0.1,1.18,0.1h1.62c0.36-0.48,0.48-0.601,0.9-1.021
		c0.54,0.48,0.721,0.641,1.261,1.16c0.06,0.08,0.08,0.141,0.08,0.181c0,0.06-0.08,0.14-0.16,0.14h-3.661c-0.439,0-0.64,0-1.1,0.04
		L150.182,5.682z M158.022,5.661c0.74,0.12,0.74,0.12,1.121,0.12h1.5l0.92-1.04c0.561,0.52,0.74,0.68,1.32,1.24
		c0.021,0.04,0.04,0.08,0.04,0.1c0,0.08-0.1,0.16-0.2,0.16h-3.58c-0.061,0-0.4,0.021-1.041,0.04L158.022,5.661z M158.022,7.901
		c0.36,0.08,0.681,0.12,1.181,0.12h2.141c0.4-0.479,0.54-0.62,0.96-1.08c0.62,0.48,0.82,0.66,1.44,1.24
		c0.04,0.061,0.06,0.12,0.06,0.18c0,0.061-0.079,0.12-0.159,0.12h-4.441c-0.28,0-0.521,0.021-1.08,0.08L158.022,7.901z"/>
	<path fill="#4A1F00" d="M182.264,8.322c0.359-0.32,0.479-0.421,0.86-0.721c0.46,0.4,0.6,0.54,1.08,0.98
		c0.1,0.12,0.14,0.18,0.14,0.24c0,0.14-0.02,0.14-0.92,0.3c-1.04,0.98-1.561,1.4-2.541,2.061c1.881,0.8,3.021,1.08,5.781,1.38v0.221
		c-0.56,0.159-0.74,0.319-1.1,1.08c-2.261-0.601-3.981-1.32-5.382-2.221c-1,0.58-1.92,1.04-3.12,1.54
		c0.14,0.12,0.22,0.181,0.439,0.34h4.962c0.199-0.14,0.239-0.18,0.42-0.319c0.439,0.2,0.58,0.26,1.02,0.479
		c0.16,0.12,0.24,0.181,0.24,0.221c0,0.08-0.18,0.26-0.42,0.38c-0.02,0.5-0.02,0.74-0.02,0.94c0,0,0,0.399,0.02,1.2
		c0,0.18,0,0.46,0,0.78c0.021,0.04,0.021,0.06,0.021,0.1c0,0.16-0.36,0.26-0.94,0.26c-0.16,0-0.221-0.06-0.221-0.18v-0.5h-5.081
		v0.72c0,0.16-0.04,0.221-0.14,0.261c-0.12,0.04-0.54,0.079-0.8,0.079c-0.181,0-0.221-0.039-0.261-0.18
		c0.021-0.54,0.061-2.82,0.061-3.24v-1.061c-0.92,0.36-1.44,0.521-2.621,0.84l-0.12-0.319c2.301-0.841,3.881-1.641,5.762-2.901
		c-0.94-0.7-1.301-1.04-1.881-1.74c-1.18,1.16-2.12,1.82-3.721,2.621l-0.16-0.221c2.061-1.54,3.461-3.12,4.521-5.081
		c-0.32,0.04-0.44,0.061-0.561,0.061c-0.239,0-0.3-0.04-0.319-0.16v-0.46h-4.281v8.642c0.02,1.32,0.02,2.501,0.02,3.541
		c-0.02,0.22-0.159,0.28-0.779,0.3c-0.141,0.02-0.24,0.02-0.28,0.02c-0.021,0-0.04,0-0.061,0c-0.2,0-0.319-0.079-0.319-0.22
		c0-0.02,0-0.06,0-0.1c0.079-3.541,0.079-4.461,0.079-6.742c0-7.761-0.02-10.262-0.079-11.202c0.699,0.32,0.899,0.44,1.58,0.801
		h4.001c0.319-0.36,0.439-0.48,0.78-0.801c0.52,0.34,0.66,0.44,1.12,0.801c0.16,0.12,0.2,0.18,0.2,0.22c0,0.1-0.24,0.3-0.681,0.54
		c0,0.48,0,0.88,0,1.08c0,0.66,0,1.061,0.04,3.381c0,0.16-0.02,0.18-0.16,0.24c1.62,0.42,1.62,0.42,1.62,0.56
		c0,0.16-0.26,0.24-0.939,0.28c-0.301,0.42-0.421,0.561-0.681,0.881H182.264z M177.263,1.601h-4.281v1.7h4.281V1.601z
		 M177.263,3.761h-4.281v1.881h4.281V3.761z M177.502,13.983v2.44h5.081v-2.44H177.502z M178.042,8.782
		c-0.119,0.14-0.18,0.199-0.34,0.359c0.7,0.66,1.221,1.021,2.221,1.561c0.9-0.66,1.36-1.04,2.24-1.92H178.042z M182.464,6.102v0.52
		c0,0.021,0,0.04,0,0.061c0,0.14-0.16,0.2-0.7,0.24c-0.141,0-0.24,0.02-0.28,0.02c-0.021,0-0.04,0-0.061,0
		c-0.18,0-0.239-0.06-0.26-0.2c0.04-1.08,0.06-3,0.06-4.341c0-0.28-0.02-0.98-0.06-2.061c0.641,0.301,0.82,0.42,1.4,0.801h4.361
		c0.359-0.36,0.46-0.461,0.84-0.801c0.48,0.32,0.62,0.44,1.08,0.801c0.16,0.14,0.22,0.22,0.22,0.26c0,0.08-0.18,0.26-0.58,0.54
		v12.202c0,0.021,0.021,1.4,0.04,2.821c0,0.479-0.06,0.68-0.24,0.86c-0.279,0.26-0.96,0.5-2.02,0.7
		c-0.04-0.581-0.16-0.86-0.48-1.081c-0.24-0.159-0.24-0.159-1.58-0.34v-0.3c1.88,0.06,1.88,0.06,2.721,0.08
		c0.18-0.021,0.18-0.021,0.18-0.181V6.102H182.464z M187.104,1.601h-4.641v1.7h4.641V1.601z M187.104,3.761h-4.641v1.881h4.641
		V3.761z"/>
	<path fill="#4A1F00" d="M2.962,27.717c-0.563,0.756-0.875,1.224-1.199,1.823c-0.6,1.104-0.875,2.339-0.875,3.826
		s0.288,2.71,0.875,3.813c0.324,0.6,0.636,1.067,1.199,1.823l-0.18,0.18c-0.647-0.516-1.056-0.959-1.487-1.619
		C0.444,36.305,0,34.854,0,33.378c0-2.255,1.02-4.401,2.783-5.841L2.962,27.717z"/>
	<path fill="#4A1F00" d="M7.216,30.38c0.576,0.54,0.912,0.695,1.511,0.695c0.312,0,0.636-0.048,1.091-0.144
		c0.3-0.779,0.432-1.283,0.432-1.703c0-0.396-0.192-0.636-0.768-0.924c0.132-0.071,0.192-0.084,0.288-0.084
		c0.24,0,0.611,0.108,0.959,0.276c0.408,0.203,0.563,0.336,0.563,0.504c0,0.096-0.024,0.167-0.12,0.312
		c-0.048,0.096-0.3,0.588-0.732,1.475c0.888-0.312,0.996-0.371,1.332-0.659c0.096-0.084,0.132-0.096,0.252-0.096
		c0.468,0,0.815,0.155,0.815,0.359c0,0.312-0.744,0.611-2.65,1.056c-0.108,0.24-0.312,0.731-0.636,1.451
		c-0.36,0.827-1.283,2.843-1.392,3.046c-0.18,0.324-0.288,0.432-0.432,0.432c-0.204,0-0.372-0.371-0.372-0.851
		c0-0.24,0.024-0.313,0.132-0.433c0.264-0.287,0.408-0.468,0.576-0.719c0.588-0.876,1.02-1.691,1.499-2.819
		c-0.264,0.036-0.372,0.049-0.563,0.049c-0.432,0-0.756-0.072-1.056-0.252c-0.36-0.204-0.636-0.492-0.875-0.876L7.216,30.38z
		 M13.561,31.052c0.827,0.071,1.499,0.287,2.051,0.659c0.468,0.3,0.755,0.66,0.755,0.936c0,0.204-0.12,0.348-0.312,0.348
		c-0.096,0-0.168-0.023-0.276-0.096c-0.336-0.204-0.564-0.252-1.176-0.252c-0.959,0-1.259,0.264-1.259,1.092
		c0,0.323,0.06,0.839,0.24,2.063c0.731,0.216,1.355,0.504,1.703,0.779c0.324,0.252,0.479,0.563,0.479,0.947
		c0,0.24-0.096,0.408-0.24,0.408c-0.12,0-0.168-0.036-0.42-0.312c-0.432-0.468-0.828-0.756-1.451-1.056c0,0.096,0,0.18,0,0.228
		c0,0.48-0.096,0.756-0.336,1.02c-0.324,0.324-0.887,0.516-1.559,0.516c-1.079,0-1.823-0.516-1.823-1.271
		c0-0.84,0.911-1.428,2.243-1.428c0.276,0,0.408,0.012,0.72,0.06c-0.036-0.947-0.036-1.043-0.036-1.187
		c0-0.983,0.096-1.355,0.42-1.716c0.24-0.252,0.576-0.419,1.139-0.563c0.18-0.048,0.204-0.06,0.647-0.155
		c-0.324-0.349-0.695-0.54-1.547-0.828L13.561,31.052z M12.913,36.305c-0.372-0.108-0.647-0.145-1.031-0.145
		c-1.02,0-1.643,0.349-1.643,0.912c0,0.443,0.456,0.707,1.199,0.707c0.972,0,1.475-0.396,1.475-1.151V36.305z"/>
	<path fill="#4A1F00" d="M23.343,32.095c-0.84,0.276-1.224,0.432-1.56,0.624c-0.18,0.107-0.251,0.132-0.348,0.132
		c-0.132,0-0.372-0.156-0.528-0.36c-0.216-0.275-0.396-0.695-0.396-0.911c0-0.06,0.024-0.144,0.072-0.264
		c0.252,0.491,0.468,0.659,0.912,0.659c0.264,0,1.151-0.18,2.039-0.42c0.276-0.684,0.492-1.559,0.492-1.967
		c0-0.371-0.24-0.587-0.924-0.804c0.144-0.107,0.216-0.132,0.348-0.132c0.18,0,0.492,0.061,0.815,0.156
		c0.54,0.156,0.839,0.384,0.839,0.636c0,0.084-0.024,0.132-0.168,0.348c-0.156,0.228-0.419,0.792-0.768,1.619
		c0.528-0.107,0.744-0.132,1.043-0.132c1.032,0,1.523,0.611,1.523,1.871c0,1.535-0.612,3.526-1.308,4.294
		c-0.3,0.312-0.768,0.539-1.151,0.539c-0.204,0-0.3-0.084-0.324-0.275c-0.036-0.336-0.06-0.36-1.331-1.403l0.108-0.145
		c0.912,0.517,1.607,0.816,1.859,0.816c0.264,0,0.468-0.252,0.78-1.008c0.419-0.983,0.708-2.303,0.708-3.214
		c0-0.504-0.108-0.828-0.324-0.972c-0.12-0.084-0.276-0.12-0.54-0.12c-0.335,0-0.563,0.048-1.247,0.24
		c-0.168,0.419-0.168,0.419-0.696,1.631c-0.06,0.155-0.3,0.707-0.708,1.679c-0.48,1.128-0.875,1.991-1.067,2.327
		c-0.084,0.155-0.18,0.228-0.288,0.228c-0.216,0-0.348-0.312-0.348-0.827c0-0.3,0.036-0.396,0.276-0.672
		c0.228-0.252,0.552-0.768,0.888-1.415c0.456-0.876,0.456-0.876,0.959-1.979L23.343,32.095z M28.02,31.327
		c0.936,0.276,1.667,0.756,2.195,1.439c0.456,0.588,0.684,1.163,0.684,1.69c0,0.42-0.18,0.66-0.48,0.66
		c-0.096,0-0.144-0.012-0.276-0.084c-0.204-0.12-0.264-0.132-0.492-0.132c-0.419,0-0.479,0-1.499,0.107l-0.048-0.155
		c1.259-0.384,1.451-0.456,1.835-0.612c-0.048-0.407-0.156-0.755-0.372-1.151c-0.384-0.743-0.851-1.199-1.643-1.595L28.02,31.327z
		 M28.536,29.48c0.372,0.132,0.828,0.371,1.223,0.636c0.432,0.287,0.576,0.491,0.576,0.804c0,0.323-0.132,0.575-0.288,0.575
		c-0.12,0-0.192-0.084-0.36-0.396c-0.228-0.444-0.78-1.092-1.247-1.476L28.536,29.48z M29.531,28.688
		c0.408,0.12,0.803,0.288,1.199,0.516c0.432,0.24,0.636,0.48,0.636,0.744c0,0.323-0.108,0.575-0.24,0.575
		c-0.096,0-0.18-0.084-0.348-0.323c-0.324-0.504-0.671-0.852-1.343-1.38L29.531,28.688z"/>
	<path fill="#4A1F00" d="M36.171,29.48c0.468,0.348,0.756,0.659,0.924,0.983c0.108,0.216,0.24,0.659,0.372,1.259
		c0.828-0.443,1.439-0.623,2.507-0.755c0.156-0.588,0.228-1.056,0.228-1.403c0-0.3-0.132-0.396-0.563-0.396c-0.06,0-0.132,0-0.228,0
		l-0.036-0.132c0.324-0.144,0.576-0.203,0.768-0.203c0.456,0,0.948,0.384,0.948,0.731c0,0.216-0.18,0.899-0.36,1.391
		c1.991,0.084,3.358,1.367,3.358,3.167c0,1.331-0.768,2.471-2.183,3.214c-0.731,0.384-1.403,0.575-2.351,0.695l-0.048-0.168
		c1.031-0.312,1.691-0.659,2.327-1.199c0.863-0.755,1.319-1.703,1.319-2.746c0-0.924-0.372-1.691-1.032-2.159
		c-0.432-0.3-0.852-0.432-1.499-0.468c-0.492,1.331-1.259,2.771-2.015,3.742c0.168,0.252,0.228,0.336,0.432,0.6
		c0.348,0.432,0.372,0.479,0.372,0.624c0,0.144-0.132,0.264-0.288,0.264c-0.276,0-0.648-0.324-1.032-0.876
		c-0.18,0.252-0.456,0.516-0.923,0.888c-0.396,0.3-0.671,0.432-0.959,0.432c-0.276,0-0.408-0.155-0.528-0.611
		c-0.108-0.384-0.156-0.492-0.36-0.779c-0.204-0.276-0.276-0.48-0.276-0.732c0-0.947,0.684-1.967,1.883-2.794
		c-0.216-1.367-0.348-1.751-0.912-2.446L36.171,29.48z M36.123,33.606c-0.264,0.443-0.408,0.959-0.408,1.415
		c0,0.539,0.336,1.151,0.624,1.151c0.276,0,0.875-0.42,1.451-1.031c-0.336-0.78-0.492-1.332-0.744-2.591
		C36.579,32.958,36.351,33.21,36.123,33.606z M38.294,34.518c0.671-0.947,1.211-2.027,1.571-3.19
		c-1.032,0.156-1.583,0.36-2.315,0.863C37.91,33.594,38.006,33.894,38.294,34.518z"/>
	<path fill="#4A1F00" d="M53.342,37.684c1.295-0.384,2.123-0.875,2.806-1.667c0.708-0.804,1.067-1.787,1.067-2.891
		c0-1.163-0.467-2.087-1.355-2.65c-0.528-0.348-1.319-0.552-2.075-0.552c-0.144,0-0.228,0-0.42,0.024
		c0.288,0.42,0.372,0.647,0.372,0.995c0,0.936-0.671,2.687-1.583,4.149c-0.755,1.2-1.343,1.787-1.787,1.787
		c-0.204,0-0.396-0.096-0.527-0.252c-0.108-0.144-0.132-0.191-0.336-0.768c-0.108-0.312-0.18-0.455-0.528-1.127
		c-0.192-0.384-0.276-0.708-0.276-1.092c0-0.755,0.408-1.643,1.08-2.374c0.971-1.032,2.554-1.68,4.125-1.68
		c1.211,0,2.327,0.396,3.094,1.104c0.768,0.708,1.151,1.655,1.151,2.818c0,1.499-0.875,2.831-2.387,3.634
		c-0.695,0.372-1.319,0.564-2.338,0.744L53.342,37.684z M49.396,33.954c0,0.575,0.18,1.163,0.479,1.583
		c0.168,0.216,0.324,0.348,0.456,0.348c0.264,0,0.839-0.647,1.427-1.583c0.887-1.415,1.523-2.963,1.523-3.706
		c0-0.18-0.036-0.3-0.168-0.6C51.027,30.368,49.396,32.106,49.396,33.954z"/>
	<path fill="#4A1F00" d="M67.381,28.257c1.248,0.6,1.739,1.092,1.739,1.739c0,0.288-0.132,0.456-0.36,0.456
		c-0.072,0-0.096-0.013-0.372-0.12c-0.324-0.12-0.78-0.216-1.308-0.276c-0.815-0.096-1.583-0.155-1.859-0.155
		s-0.456,0.132-0.456,0.335c0,0.168,0.252,0.768,0.792,1.871c0.66-0.359,1.415-0.707,2.099-0.971c0.875-0.336,1.571-0.48,2.303-0.48
		c1.451,0,2.483,0.78,2.483,1.896c0,0.468-0.24,1.007-0.612,1.367c-0.432,0.42-1.091,0.647-1.907,0.647
		c-0.972,0-1.979-0.336-2.723-0.899l0.084-0.18c0.624,0.312,1.403,0.504,2.099,0.504c0.804,0,1.439-0.229,1.799-0.648
		c0.252-0.287,0.384-0.647,0.384-1.031c0-0.827-0.624-1.295-1.727-1.295c-0.648,0-1.235,0.168-2.267,0.659
		c-0.563,0.276-1.115,0.576-1.775,0.972c0.576,1.163,0.936,1.967,1.343,2.986c0.468,1.188,0.588,1.571,0.588,1.967
		c0,0.516-0.228,0.899-0.552,0.899c-0.06,0-0.132-0.048-0.192-0.12c-0.072-0.084-0.108-0.203-0.156-0.527
		c-0.228-1.499-0.72-3.13-1.487-4.941c-0.684,0.456-1.091,0.744-1.235,0.84c-0.18,0.132-0.228,0.168-0.324,0.24
		c-0.156,0.132-0.264,0.18-0.42,0.18c-0.528,0-1.271-0.768-1.271-1.308c0-0.048,0.012-0.107,0.048-0.204
		c0.275,0.408,0.563,0.624,0.839,0.624c0.336,0,1.055-0.324,2.099-0.924c-0.3-0.671-0.587-1.175-0.827-1.475
		C64.035,30.596,64,30.523,64,30.368c0-0.396,0.468-0.816,0.899-0.816c0.144,0,0.156,0,0.372,0.061
		c0.072,0.023,0.144,0.023,0.312,0.036c0.048,0,0.42,0,0.959,0.012c0.3,0.012,0.54,0.012,0.899,0.012
		c0.696,0,0.792-0.023,0.792-0.155c0-0.24-0.419-0.708-0.971-1.104L67.381,28.257z"/>
	<path fill="#4A1F00" d="M79.059,32.035c-0.839,0.287-1.247,0.443-1.559,0.623c-0.18,0.108-0.252,0.132-0.348,0.132
		c-0.132,0-0.372-0.155-0.528-0.359c-0.216-0.276-0.396-0.695-0.396-0.911c0-0.061,0.024-0.145,0.072-0.265
		c0.252,0.504,0.468,0.66,0.912,0.66c0.264,0,1.091-0.168,2.039-0.42c0.276-0.695,0.492-1.547,0.492-1.967
		c0-0.372-0.228-0.576-0.923-0.804c0.144-0.096,0.216-0.12,0.36-0.12c0.18,0,0.479,0.061,0.804,0.156
		c0.54,0.156,0.839,0.372,0.839,0.624c0,0.096-0.024,0.144-0.168,0.348c-0.168,0.252-0.42,0.791-0.768,1.631
		c0.528-0.12,0.755-0.144,1.043-0.144c1.031,0,1.523,0.611,1.523,1.87c0,1.535-0.611,3.526-1.307,4.306
		c-0.3,0.324-0.768,0.54-1.151,0.54c-0.204,0-0.3-0.084-0.324-0.275c-0.036-0.336-0.06-0.36-1.332-1.403l0.108-0.156
		c0.923,0.527,1.607,0.827,1.859,0.827c0.276,0,0.468-0.251,0.779-1.007c0.42-0.983,0.708-2.314,0.708-3.227
		c0-0.804-0.216-1.091-0.852-1.091c-0.359,0-0.575,0.048-1.259,0.251c-0.167,0.408-0.167,0.408-0.695,1.632
		c-0.048,0.12-0.288,0.684-0.708,1.679c-0.48,1.128-0.875,1.991-1.067,2.327c-0.084,0.155-0.18,0.228-0.288,0.228
		c-0.216,0-0.348-0.312-0.348-0.827c0-0.313,0.036-0.396,0.276-0.672c0.24-0.264,0.54-0.768,0.887-1.415
		c0.456-0.888,0.456-0.888,0.959-1.991L79.059,32.035z M83.736,31.268c0.935,0.275,1.667,0.755,2.194,1.438
		c0.456,0.588,0.684,1.164,0.684,1.703c0,0.408-0.18,0.648-0.48,0.648c-0.096,0-0.156-0.013-0.276-0.084
		c-0.192-0.108-0.264-0.12-0.492-0.12c-0.42,0-0.479,0-1.499,0.107l-0.048-0.168c1.211-0.371,1.463-0.455,1.835-0.611
		c-0.048-0.408-0.156-0.743-0.372-1.151c-0.384-0.731-0.852-1.188-1.643-1.595L83.736,31.268z"/>
	<path fill="#4A1F00" d="M90.472,30.896c0.492,0.504,0.803,0.659,1.319,0.659c0.468,0,0.972-0.071,1.523-0.228
		c0.24-0.779,0.408-1.619,0.408-2.026c0-0.372-0.18-0.528-0.852-0.756c0.156-0.084,0.216-0.108,0.372-0.108
		c0.276,0,0.671,0.084,1.031,0.229c0.36,0.132,0.54,0.3,0.54,0.479c0,0.084,0,0.084-0.144,0.288c-0.156,0.228-0.42,0.863-0.72,1.715
		c0.671-0.24,1.104-0.468,1.391-0.731c0.192-0.181,0.24-0.204,0.336-0.204c0.156,0,0.444,0.06,0.636,0.132
		c0.132,0.048,0.192,0.12,0.192,0.216c0,0.204-0.192,0.36-0.696,0.588c-0.54,0.239-1.343,0.504-2.099,0.695
		c-0.144,0.408-0.144,0.408-0.503,1.523c-0.24,0.72-0.24,0.72-0.899,2.675c-0.48,1.427-0.636,1.727-0.888,1.727
		c-0.12,0-0.204-0.072-0.276-0.24c-0.096-0.191-0.168-0.491-0.168-0.695c0-0.191,0.012-0.228,0.264-0.588
		c0.6-0.875,1.067-1.919,1.883-4.293c-0.456,0.084-0.804,0.12-1.151,0.12c-0.731,0-1.199-0.313-1.643-1.08L90.472,30.896z
		 M95.257,35.033c-0.012,0.18-0.012,0.324-0.012,0.372c0,0.684,0.324,1.199,0.912,1.451c0.324,0.144,0.816,0.228,1.283,0.228
		c0.492,0,0.768-0.036,1.151-0.18c0.084-0.036,0.156-0.048,0.204-0.048c0.132,0,0.408,0.132,0.612,0.287
		c0.144,0.12,0.216,0.229,0.216,0.336c0,0.265-0.468,0.396-1.416,0.396c-0.923,0-1.691-0.132-2.219-0.384
		c-0.647-0.313-1.019-0.936-1.019-1.739c0-0.264,0.024-0.468,0.108-0.756L95.257,35.033z M95.581,32.814
		c0.864-0.516,1.847-0.804,2.783-0.804c0.252,0,0.563,0.084,0.755,0.216c0.12,0.072,0.191,0.204,0.191,0.336
		c0,0.192-0.107,0.264-0.455,0.276c-0.444,0.023-0.588,0.06-0.924,0.239c-0.24,0.132-0.251,0.132-0.659,0.408
		c-0.228,0.144-0.228,0.144-0.42,0.252L96.78,33.63c0.144-0.144,0.144-0.144,0.576-0.54c0.108-0.096,0.216-0.191,0.587-0.563
		c-0.792,0-1.427,0.132-2.291,0.444L95.581,32.814z"/>
	<path fill="#4A1F00" d="M112.011,34.098c-0.023,0.264-0.035,0.372-0.035,0.54c0,1.427,0.899,2.099,2.83,2.099
		c0.947,0,1.943-0.168,2.65-0.432c0.072-0.036,0.145-0.048,0.204-0.048c0.18,0,0.456,0.107,0.659,0.239
		c0.168,0.132,0.265,0.276,0.265,0.42c0,0.18-0.132,0.312-0.384,0.372c-0.552,0.144-1.728,0.239-2.795,0.239
		c-1.343,0-2.194-0.167-2.794-0.575c-0.601-0.384-0.996-1.14-0.996-1.895c0-0.288,0.061-0.612,0.192-1.008L112.011,34.098z
		 M112.383,29.36c0.612,0.408,1.031,0.527,1.835,0.527c0.792,0,1.799-0.144,2.495-0.359c0.084-0.024,0.18-0.048,0.216-0.048
		c0.312,0,0.72,0.359,0.72,0.623c0,0.204-0.072,0.24-0.876,0.42c-0.468,0.096-0.575,0.145-1.751,0.588
		c-0.288,0.108-0.288,0.108-0.983,0.408c-0.24,0.096-0.24,0.107-0.468,0.191l-0.084-0.18c0.372-0.216,0.563-0.336,0.876-0.504
		c0.815-0.443,0.815-0.443,1.007-0.563c-0.264,0.023-0.684,0.036-0.899,0.036c-0.443,0-0.995-0.132-1.367-0.324
		c-0.312-0.168-0.504-0.336-0.84-0.695L112.383,29.36z"/>
	<path fill="#4A1F00" d="M128.15,38.739c0.708-0.576,1.176-1.067,1.583-1.728c0.624-1.02,1.02-2.41,1.02-3.646
		c0-1.188-0.432-1.919-1.14-1.919c-0.636,0-1.475,0.516-2.303,1.415c-0.228,0.228-0.3,0.276-0.491,0.276
		c-0.252,0-0.54-0.192-0.792-0.54c-0.204-0.276-0.323-0.588-0.323-0.804c0-0.156,0.048-0.264,0.191-0.443
		c0.108,0.527,0.348,0.827,0.66,0.827c0.168,0,0.479-0.132,1.103-0.468c1.02-0.552,1.416-0.684,2.027-0.684
		c0.552,0,1.14,0.312,1.487,0.804c0.288,0.42,0.456,1.043,0.456,1.763c0,1.415-0.54,2.818-1.487,3.874
		c-0.588,0.647-1.199,1.104-1.883,1.403L128.15,38.739z M127.491,27.837c0.587,0.492,1.402,0.768,2.242,0.768h0.276
		c0.239,0,0.407,0.084,0.647,0.288c0.168,0.144,0.252,0.288,0.252,0.408c0,0.167-0.168,0.264-0.492,0.264
		c-0.504,0.012-0.504,0.012-2.986,0.731l-0.06-0.168c0.899-0.408,1.727-0.779,2.026-0.888c-0.983-0.204-1.571-0.575-2.026-1.308
		L127.491,27.837z"/>
	<path fill="#4A1F00" d="M142.07,38.739c0.708-0.576,1.176-1.067,1.583-1.728c0.624-1.02,1.02-2.41,1.02-3.646
		c0-1.188-0.432-1.919-1.14-1.919c-0.636,0-1.475,0.516-2.303,1.415c-0.228,0.228-0.3,0.276-0.491,0.276
		c-0.252,0-0.54-0.192-0.792-0.54c-0.204-0.276-0.323-0.588-0.323-0.804c0-0.156,0.048-0.264,0.191-0.443
		c0.108,0.527,0.348,0.827,0.66,0.827c0.168,0,0.479-0.132,1.103-0.468c1.02-0.552,1.416-0.684,2.027-0.684
		c0.552,0,1.14,0.312,1.487,0.804c0.288,0.42,0.456,1.043,0.456,1.763c0,1.415-0.54,2.818-1.487,3.874
		c-0.588,0.647-1.199,1.104-1.883,1.403L142.07,38.739z M141.411,27.837c0.587,0.492,1.402,0.768,2.242,0.768h0.276
		c0.239,0,0.407,0.084,0.647,0.288c0.168,0.144,0.252,0.288,0.252,0.408c0,0.167-0.168,0.264-0.492,0.264
		c-0.504,0.012-0.504,0.012-2.986,0.731l-0.06-0.168c0.899-0.408,1.727-0.779,2.026-0.888c-0.983-0.204-1.571-0.575-2.026-1.308
		L141.411,27.837z"/>
	<path fill="#4A1F00" d="M161.879,33.822c-0.252,1.091-0.624,1.931-1.175,2.674c-0.66,0.888-1.571,1.428-2.399,1.428
		c-0.371,0-0.768-0.132-1.031-0.348c-0.336-0.276-0.443-0.636-0.527-1.619c-0.072-0.768-0.12-1.056-0.216-1.296
		c-0.132-0.384-0.42-0.575-0.815-0.575c-1.032,0-2.111,1.199-2.795,3.106c-0.216,0.611-0.252,0.671-0.432,0.671
		c-0.12,0-0.24-0.119-0.324-0.323c-0.084-0.229-0.155-0.516-0.155-0.66c0-0.144,0.035-0.228,0.168-0.407
		c0.491-0.672,1.259-2.039,2.398-4.294c0.756-1.476,1.104-2.339,1.104-2.698c0-0.384-0.192-0.588-0.815-0.888
		c0.132-0.072,0.228-0.108,0.335-0.108c0.276,0,0.756,0.204,1.224,0.54c0.3,0.204,0.408,0.348,0.408,0.527
		c0,0.168-0.024,0.217-0.216,0.456c-0.168,0.204-0.564,0.84-1.067,1.703c-0.181,0.3-0.468,0.804-0.888,1.512
		c-0.492,0.827-0.612,1.031-0.972,1.679h0.024c0.779-0.804,1.438-1.176,2.074-1.176c0.6,0,1.08,0.288,1.355,0.804
		c0.168,0.324,0.204,0.504,0.384,1.619c0.108,0.647,0.359,0.936,0.815,0.936c1.199,0,2.591-1.379,3.347-3.311L161.879,33.822z"/>
	<path fill="#4A1F00" d="M168.495,32.035c-0.84,0.287-1.247,0.443-1.56,0.623c-0.18,0.108-0.252,0.132-0.348,0.132
		c-0.132,0-0.372-0.155-0.527-0.359c-0.216-0.276-0.396-0.695-0.396-0.911c0-0.061,0.024-0.145,0.072-0.265
		c0.252,0.504,0.468,0.66,0.912,0.66c0.264,0,1.091-0.168,2.038-0.42c0.276-0.695,0.492-1.547,0.492-1.967
		c0-0.372-0.228-0.576-0.924-0.804c0.145-0.096,0.216-0.12,0.36-0.12c0.18,0,0.479,0.061,0.803,0.156
		c0.54,0.156,0.84,0.372,0.84,0.624c0,0.096-0.023,0.144-0.168,0.348c-0.168,0.252-0.42,0.791-0.768,1.631
		c0.528-0.12,0.756-0.144,1.044-0.144c1.031,0,1.522,0.611,1.522,1.87c0,1.535-0.611,3.526-1.307,4.306
		c-0.3,0.324-0.768,0.54-1.151,0.54c-0.204,0-0.3-0.084-0.324-0.275c-0.036-0.336-0.06-0.36-1.331-1.403l0.107-0.156
		c0.924,0.527,1.607,0.827,1.859,0.827c0.276,0,0.468-0.251,0.779-1.007c0.42-0.983,0.708-2.314,0.708-3.227
		c0-0.804-0.216-1.091-0.852-1.091c-0.359,0-0.576,0.048-1.26,0.251c-0.167,0.408-0.167,0.408-0.695,1.632
		c-0.048,0.12-0.288,0.684-0.707,1.679c-0.48,1.128-0.876,1.991-1.067,2.327c-0.084,0.155-0.181,0.228-0.288,0.228
		c-0.216,0-0.348-0.312-0.348-0.827c0-0.313,0.035-0.396,0.275-0.672c0.24-0.264,0.54-0.768,0.888-1.415
		c0.456-0.888,0.456-0.888,0.959-1.991L168.495,32.035z M173.173,31.268c0.935,0.275,1.667,0.755,2.194,1.438
		c0.456,0.588,0.684,1.164,0.684,1.703c0,0.408-0.18,0.648-0.479,0.648c-0.096,0-0.156-0.013-0.276-0.084
		c-0.191-0.108-0.264-0.12-0.491-0.12c-0.42,0-0.479,0-1.499,0.107l-0.049-0.168c1.212-0.371,1.464-0.455,1.836-0.611
		c-0.049-0.408-0.156-0.743-0.372-1.151c-0.384-0.731-0.852-1.188-1.644-1.595L173.173,31.268z"/>
	<path fill="#4A1F00" d="M184.562,28.209c0.336,0,0.996,0.312,1.331,0.636c0.192,0.191,0.265,0.312,0.265,0.479
		c0,0.156-0.061,0.228-0.696,0.744c-0.647,0.539-1.822,1.643-2.206,2.074c-0.42,0.468-0.576,0.744-0.576,0.972
		c0,0.168,0.12,0.384,0.359,0.624c0.168,0.18,0.168,0.18,0.84,0.791c1.308,1.212,1.919,1.883,2.207,2.447
		c0.132,0.251,0.18,0.468,0.18,0.791c0,0.456-0.156,0.72-0.407,0.72c-0.156,0-0.204-0.06-0.408-0.492
		c-0.216-0.468-0.588-1.103-1.008-1.69c-0.443-0.636-0.503-0.708-1.751-2.171c-0.323-0.396-0.455-0.684-0.455-1.008
		c0-0.384,0.191-0.707,0.923-1.606c1.451-1.764,1.812-2.268,1.812-2.555c0-0.204-0.156-0.384-0.66-0.708
		C184.394,28.221,184.454,28.209,184.562,28.209z"/>
	<path fill="#4A1F00" d="M193.36,39.003c1.583-2.11,2.075-3.454,2.075-5.637c0-2.195-0.492-3.538-2.075-5.649l0.18-0.18
		c1.764,1.415,2.783,3.55,2.783,5.805s-1.032,4.426-2.783,5.841L193.36,39.003z"/>
</g>
</svg>
