<?xml version="1.0" encoding="utf-8"?>
<!-- Generator: Adobe Illustrator 16.0.0, SVG Export Plug-In . SVG Version: 6.00 Build 0)  -->
<!DOCTYPE svg PUBLIC "-//W3C//DTD SVG 1.1 Tiny//EN" "http://www.w3.org/Graphics/SVG/1.1/DTD/svg11-tiny.dtd">
<svg version="1.1" baseProfile="tiny" id="レイヤー_1"
	 xmlns="http://www.w3.org/2000/svg" xmlns:xlink="http://www.w3.org/1999/xlink" x="0px" y="0px" width="520.412px"
	 height="20.727px" viewBox="0 0 520.412 20.727" xml:space="preserve">
<metadata><?xpacket begin="﻿" id="W5M0MpCehiHzreSzNTczkc9d"?>
<x:xmpmeta xmlns:x="adobe:ns:meta/" x:xmptk="Adobe XMP Core 5.3-c011 66.145661, 2012/02/06-14:56:27        ">
   <rdf:RDF xmlns:rdf="http://www.w3.org/1999/02/22-rdf-syntax-ns#">
      <rdf:Description rdf:about=""
            xmlns:dc="http://purl.org/dc/elements/1.1/">
         <dc:format>image/svg+xml</dc:format>
         <dc:title>
            <rdf:Alt>
               <rdf:li xml:lang="x-default">Web</rdf:li>
            </rdf:Alt>
         </dc:title>
      </rdf:Description>
      <rdf:Description rdf:about=""
            xmlns:xmp="http://ns.adobe.com/xap/1.0/"
            xmlns:xmpGImg="http://ns.adobe.com/xap/1.0/g/img/">
         <xmp:CreatorTool>Adobe Illustrator CS6 (Windows)</xmp:CreatorTool>
         <xmp:CreateDate>2017-07-12T13:50:47+09:00</xmp:CreateDate>
         <xmp:ModifyDate>2017-07-12T13:50:47+09:00</xmp:ModifyDate>
         <xmp:MetadataDate>2017-07-12T13:50:47+09:00</xmp:MetadataDate>
         <xmp:Thumbnails>
            <rdf:Alt>
               <rdf:li rdf:parseType="Resource">
                  <xmpGImg:width>256</xmpGImg:width>
                  <xmpGImg:height>12</xmpGImg:height>
                  <xmpGImg:format>JPEG</xmpGImg:format>
                  <xmpGImg:image>/9j/4AAQSkZJRgABAgEASABIAAD/7QAsUGhvdG9zaG9wIDMuMAA4QklNA+0AAAAAABAASAAAAAEA&#xA;AQBIAAAAAQAB/+4ADkFkb2JlAGTAAAAAAf/bAIQABgQEBAUEBgUFBgkGBQYJCwgGBggLDAoKCwoK&#xA;DBAMDAwMDAwQDA4PEA8ODBMTFBQTExwbGxscHx8fHx8fHx8fHwEHBwcNDA0YEBAYGhURFRofHx8f&#xA;Hx8fHx8fHx8fHx8fHx8fHx8fHx8fHx8fHx8fHx8fHx8fHx8fHx8fHx8fHx8f/8AAEQgADAEAAwER&#xA;AAIRAQMRAf/EAaIAAAAHAQEBAQEAAAAAAAAAAAQFAwIGAQAHCAkKCwEAAgIDAQEBAQEAAAAAAAAA&#xA;AQACAwQFBgcICQoLEAACAQMDAgQCBgcDBAIGAnMBAgMRBAAFIRIxQVEGE2EicYEUMpGhBxWxQiPB&#xA;UtHhMxZi8CRygvElQzRTkqKyY3PCNUQnk6OzNhdUZHTD0uIIJoMJChgZhJRFRqS0VtNVKBry4/PE&#xA;1OT0ZXWFlaW1xdXl9WZ2hpamtsbW5vY3R1dnd4eXp7fH1+f3OEhYaHiImKi4yNjo+Ck5SVlpeYmZ&#xA;qbnJ2en5KjpKWmp6ipqqusra6voRAAICAQIDBQUEBQYECAMDbQEAAhEDBCESMUEFURNhIgZxgZEy&#xA;obHwFMHR4SNCFVJicvEzJDRDghaSUyWiY7LCB3PSNeJEgxdUkwgJChgZJjZFGidkdFU38qOzwygp&#xA;0+PzhJSktMTU5PRldYWVpbXF1eX1RlZmdoaWprbG1ub2R1dnd4eXp7fH1+f3OEhYaHiImKi4yNjo&#xA;+DlJWWl5iZmpucnZ6fkqOkpaanqKmqq6ytrq+v/aAAwDAQACEQMRAD8Alb6pqVzqV+sUkskTJPbW&#xA;jQSG3iMs1xKiSLHOLl4wZYZTxBXj+zQZh2bcyhT13y9frdeQ9PuoRKBJp8YSqs8tfTC1pH6jE132&#xA;qcyYn0uNIep5J5Y1e7l1nRoLT63c6o81g+o3Sz3Q+vRRLLG7BrkQpIiCFn+Mjkp+DlvmPE7hyZjY&#xA;vQvzOTU57jy7aWRmUSX5kd0UNCGt4XuFLgJM7vSJvTQIy8viYHiAbst7NOKt2JfldqOt32taTaT3&#xA;ZaKOK+umSRrliFtXhiMaqHtovjN8Gq8JI4EU+IEV4iSQ2ZQACy7zlr+pjzBB5fsL17K7uI7c2UMK&#xA;oZLh7iWRZZCzq/GG0igMj8aEkqCdwGsnI3TXCIqymnlLVLq41LX9LkuJL630i7jggvpVUOxeBJZI&#xA;mZFRHMTPTkBXeh3FTKB3I7mMxsD3pmL/AFkiv6LI9jPHX8K4bPcxod7Ul1qJ0OWe8t/ql5xcNBb+&#xA;peEblV4+kIZGJFD8NKeO1cbNLQt88abrlzqOt2t9c6lPeoJLWfSIAl5fXQaX12tzJBLOsWy0Z1jl&#xA;O6r9r4swxKy5pjQp7N+Zusyaf5ZhniNzDf3LOttJBI0PpmK2lvZmlCtuBBayClHNegzJymg4uKNl&#xA;i/kuVbTzjBplzaanb27nlZW09w/GK8lW5uJppFpbclljQinF/i60rkIfVW7ZPeN7Ml/MC51WfUdN&#xA;0SNITp12RdyqfrTzTfU3DvDwtoZeMfNoSxJ+IclyeQm6a8YFEpj5K1fVtQfV476ZLiKyuzBBKIZb&#xA;eVSyCVopElVeXprInF6DkOoqKtKBJtEwBTJsm1vGdRu9RXSPMWvobr9LQzatYw6msl3yjtrfU7kR&#xA;RoRbPCqoABtKOgqdhTGJNE9d/vcoAWB02+56B+ZV1Pb+StTMFwlq8sRh9VywciQcSkPBZG9VweMf&#xA;wmhNaGlDbkPpLTiHqDzPylD5ksta0nVdR1CRbCD07BPRikkKvMWYWotxK5e2CII/UVWpIpYfCpfK&#xA;YWCCW+dEEB6V5z1ttMv/AC6DPJBDPfSCdYQXeVFs5/3fDo3xESGvZNhWmXTlVNEI2CjfLUV8onlu&#xA;tfGtifi8CpHbxxxR1biVMI5PyBFWZqGmwXDH32iXup5b5+u9Qj8zeYEsp5ElieW4KRxyPSOHRAS5&#xA;ZZowFWZov2NmINf2TRkJs/jo5GMCh+OrMvymN0bfzD9aEgmXUoUKyqUIH6Lsm+wZJ+PIsW+3vWu3&#xA;QW4uv46BqzdPd+kpL5l1PXz+YVlpdpq/p3JNwIEjuLGJxDL6TcXWQTMStTxD2pNOjMSTkJE8VWyi&#xA;Bw3X4/Hmz/zXq50fy7famJI42to+amZGlUnkAE4IyMzOTxUA9SMumaFtMBZphXknWfNFlpXlD9O3&#xA;0C2+oWTyTxtUhYYoFkSWW5lZmMpLrUV4gEj4qcsqhIgC23JEEmmRfmJNqR8um00y7jt7nVZE06Bm&#xA;R5HLXZ9MPCySRFWiUtLy32U5PJdbMMdXv0RXlOTXfq31e9aG8sIUAs9XWfnNc1NatAIlEYUHjvIz&#xA;VG9ftEwtE6TGe81NJ5Eh08yxKQElMqLyqoJIU1IoTTfJWWNBuwutTla4+v2aWcUbD6u6zCUunGrF&#xA;wFQIQ1RSp23r2CCVIHR8+WWu6pPqeuyWt24mkUzyPHqF/bvzQafEp2qspCMV3rQVoaU5YYkbP47n&#xA;NMRQ/He9i12DUNM/L2+iiia1uYI3ZINPlknYr6pcos0qo6eolVaQ04VLDoMyZWIuLGjJ5tZXN/LJ&#xA;H6l1LHJe3GmWGp6hHPdxXs9xK1u6AkXXorEEuCh4jlueO/xGgH9DeQPvZav/ACp361J6frev6x5+&#xA;n+k/7715unHb++9Xp35ZZ6PxbX6/xTIdL/wT/glfqPqf4Wo1OX1vj6fqfHX1P3vpcq8q/BxrX4a5&#xA;McPD5MDxcXmls/8Ayq70tY+v8Pq9bL659d9f0uNG+pfVfV+HjXn6fod60wejdl69qTfzl/g39GWH&#xA;+JPT/Rf1lfq/Ovoc/Qlp6nH4fT9LnXl8NOuSnw1uxhxXso6H/gX/ABDF+huP136jJ9S+r+r9S+qe&#xA;pD6/1Xj/AKJ/eej6npb141wR4b2WXFW7IL39HfF9Z4er6MvT+99Hb1eHH95T7NePt7ZM0wFrNF/Q&#xA;v6Ni/Qv1f9G/F6H1Ph6P2jy4+n8P2q198Y1Wyyu90bhQ7FXnGg/8qtpov6N+ucuOm/o/1P0hx4em&#xA;/wBQ5+r+748OfCu3WmUR4Nq/S3y4978+5lXmz/DHHTv8QcfQ9ef6t6lfS5/o+69b1abcPqnr15bf&#xA;TTLJ11a4X0/G6VW//Kuf8XWH1D0v0xST6v8AUuX1fl6T/wB76P7j1PS9Thz+KnLI+ni25svVw78k&#xA;y8w/4e/TGl/pH61+kPTuvqH1T61y9P8AdevX6r8VPsdclKrFsY3RpV8rfoH09R/RHrf72N9f+s+v&#xA;6n1n0o61+s/vP7vh7YYV0Wd9U7yTBgV5/wAqz/Qeq+vz+o/Wb/8ASFPrHL1/rcv1ulP+L+dKbeG2&#xA;Ungotw47DKvMX6H/AEen6Xr9S+s2vT1OPq/WE9Hn6f7Hq8eXL4afa2rlkqrdrjd7JAf+VafWVr6H&#xA;1n6xB6X97z9b9JTeh6ff/e71ePHanL9jIen8e9n6/wAe79TJ739F/WrD656X1n12/RvqU5+v6EnL&#xA;0q78/Q9StP2eWWGmsWlnl/8AwJ9euv8AD36L+v0/039H/V/WpX/dvo/F1/myMeHpTKXF1tJ7v/lX&#xA;3+IPMHr/AFn9K8Yv076X17j6X1dOHP0f3fp+lSvata71yJ4bLIcVDuTnyp/h3/cp+hfW5fXF/SP1&#xA;j6xz+sfVLfj/AL0/HT6t6NKbZKFb0xne1pFqf/Kp/wBJal+l/q/rcZvrn171fq1ax+v6Xrf6P6nL&#xA;hz9L460rvkTwXuzHHQpmd99R+py/X/S+p8f3/r8fS4/5fP4afPLD5tQ8kusv8KfoPRvq/wBV/RHC&#xA;3/QfqceFPS/0f0fU35en9mnxUwCqHck3Z70be/ov6xYfXfS+seuf0b6tOX1j0Ja+lX9v0PU6fs8s&#xA;JpAtKdF/wP8A4gv/AND/AFP9NUb9IfVuPqf3h9Tnx2r6v2u/LrvkY8N7c2UuKt+TIcmwcaUNeneu&#xA;KsT1D/Bn6M8zfWOf1P63D+m/S9Wvr/VbT0vT9P4v7j0P7v8AXXKzw0WwcVhkWq/U/wBF3n12v1P0&#xA;JPrNK19LgedKb/Zr0yZ5MBzYPD/yrPhFx+uel+k9P4f8dD0Pr/8Ao31Plx/cV/uftbeOVen7W31/&#xA;Z5P/2Q==</xmpGImg:image>
               </rdf:li>
            </rdf:Alt>
         </xmp:Thumbnails>
      </rdf:Description>
      <rdf:Description rdf:about=""
            xmlns:xmpMM="http://ns.adobe.com/xap/1.0/mm/"
            xmlns:stRef="http://ns.adobe.com/xap/1.0/sType/ResourceRef#"
            xmlns:stEvt="http://ns.adobe.com/xap/1.0/sType/ResourceEvent#">
         <xmpMM:RenditionClass>proof:pdf</xmpMM:RenditionClass>
         <xmpMM:OriginalDocumentID>uuid:65E6390686CF11DBA6E2D887CEACB407</xmpMM:OriginalDocumentID>
         <xmpMM:DocumentID>xmp.did:5D02F40DBD66E71188338B517F3ADCD9</xmpMM:DocumentID>
         <xmpMM:InstanceID>xmp.iid:5D02F40DBD66E71188338B517F3ADCD9</xmpMM:InstanceID>
         <xmpMM:DerivedFrom rdf:parseType="Resource">
            <stRef:instanceID>uuid:c5b5eddb-66da-6741-a40d-cc810f9d042d</stRef:instanceID>
            <stRef:documentID>xmp.did:FB05051EC465E111835FF2FC000FBA2B</stRef:documentID>
            <stRef:originalDocumentID>uuid:65E6390686CF11DBA6E2D887CEACB407</stRef:originalDocumentID>
            <stRef:renditionClass>proof:pdf</stRef:renditionClass>
         </xmpMM:DerivedFrom>
         <xmpMM:History>
            <rdf:Seq>
               <rdf:li rdf:parseType="Resource">
                  <stEvt:action>saved</stEvt:action>
                  <stEvt:instanceID>xmp.iid:5D02F40DBD66E71188338B517F3ADCD9</stEvt:instanceID>
                  <stEvt:when>2017-07-12T13:50:47+09:00</stEvt:when>
                  <stEvt:softwareAgent>Adobe Illustrator CS6 (Windows)</stEvt:softwareAgent>
                  <stEvt:changed>/</stEvt:changed>
               </rdf:li>
            </rdf:Seq>
         </xmpMM:History>
      </rdf:Description>
      <rdf:Description rdf:about=""
            xmlns:illustrator="http://ns.adobe.com/illustrator/1.0/">
         <illustrator:StartupProfile>Web</illustrator:StartupProfile>
      </rdf:Description>
      <rdf:Description rdf:about=""
            xmlns:xmpTPg="http://ns.adobe.com/xap/1.0/t/pg/"
            xmlns:stDim="http://ns.adobe.com/xap/1.0/sType/Dimensions#"
            xmlns:xmpG="http://ns.adobe.com/xap/1.0/g/">
         <xmpTPg:NPages>1</xmpTPg:NPages>
         <xmpTPg:HasVisibleTransparency>False</xmpTPg:HasVisibleTransparency>
         <xmpTPg:HasVisibleOverprint>False</xmpTPg:HasVisibleOverprint>
         <xmpTPg:MaxPageSize rdf:parseType="Resource">
            <stDim:w>520.412109</stDim:w>
            <stDim:h>20.727051</stDim:h>
            <stDim:unit>Pixels</stDim:unit>
         </xmpTPg:MaxPageSize>
         <xmpTPg:PlateNames>
            <rdf:Seq>
               <rdf:li>Cyan</rdf:li>
               <rdf:li>Magenta</rdf:li>
               <rdf:li>Yellow</rdf:li>
               <rdf:li>Black</rdf:li>
            </rdf:Seq>
         </xmpTPg:PlateNames>
         <xmpTPg:SwatchGroups>
            <rdf:Seq>
               <rdf:li rdf:parseType="Resource">
                  <xmpG:groupName>初期設定のスウォッチグループ</xmpG:groupName>
                  <xmpG:groupType>0</xmpG:groupType>
                  <xmpG:Colorants>
                     <rdf:Seq>
                        <rdf:li rdf:parseType="Resource">
                           <xmpG:swatchName>ホワイト</xmpG:swatchName>
                           <xmpG:mode>RGB</xmpG:mode>
                           <xmpG:type>PROCESS</xmpG:type>
                           <xmpG:red>255</xmpG:red>
                           <xmpG:green>255</xmpG:green>
                           <xmpG:blue>255</xmpG:blue>
                        </rdf:li>
                        <rdf:li rdf:parseType="Resource">
                           <xmpG:swatchName>ブラック</xmpG:swatchName>
                           <xmpG:mode>RGB</xmpG:mode>
                           <xmpG:type>PROCESS</xmpG:type>
                           <xmpG:red>0</xmpG:red>
                           <xmpG:green>0</xmpG:green>
                           <xmpG:blue>0</xmpG:blue>
                        </rdf:li>
                        <rdf:li rdf:parseType="Resource">
                           <xmpG:swatchName>RGB レッド</xmpG:swatchName>
                           <xmpG:mode>RGB</xmpG:mode>
                           <xmpG:type>PROCESS</xmpG:type>
                           <xmpG:red>255</xmpG:red>
                           <xmpG:green>0</xmpG:green>
                           <xmpG:blue>0</xmpG:blue>
                        </rdf:li>
                        <rdf:li rdf:parseType="Resource">
                           <xmpG:swatchName>RGB イエロー</xmpG:swatchName>
                           <xmpG:mode>RGB</xmpG:mode>
                           <xmpG:type>PROCESS</xmpG:type>
                           <xmpG:red>255</xmpG:red>
                           <xmpG:green>255</xmpG:green>
                           <xmpG:blue>0</xmpG:blue>
                        </rdf:li>
                        <rdf:li rdf:parseType="Resource">
                           <xmpG:swatchName>RGB グリーン</xmpG:swatchName>
                           <xmpG:mode>RGB</xmpG:mode>
                           <xmpG:type>PROCESS</xmpG:type>
                           <xmpG:red>0</xmpG:red>
                           <xmpG:green>255</xmpG:green>
                           <xmpG:blue>0</xmpG:blue>
                        </rdf:li>
                        <rdf:li rdf:parseType="Resource">
                           <xmpG:swatchName>RGB シアン</xmpG:swatchName>
                           <xmpG:mode>RGB</xmpG:mode>
                           <xmpG:type>PROCESS</xmpG:type>
                           <xmpG:red>0</xmpG:red>
                           <xmpG:green>255</xmpG:green>
                           <xmpG:blue>255</xmpG:blue>
                        </rdf:li>
                        <rdf:li rdf:parseType="Resource">
                           <xmpG:swatchName>RGB ブルー</xmpG:swatchName>
                           <xmpG:mode>RGB</xmpG:mode>
                           <xmpG:type>PROCESS</xmpG:type>
                           <xmpG:red>0</xmpG:red>
                           <xmpG:green>0</xmpG:green>
                           <xmpG:blue>255</xmpG:blue>
                        </rdf:li>
                        <rdf:li rdf:parseType="Resource">
                           <xmpG:swatchName>RGB マゼンタ</xmpG:swatchName>
                           <xmpG:mode>RGB</xmpG:mode>
                           <xmpG:type>PROCESS</xmpG:type>
                           <xmpG:red>255</xmpG:red>
                           <xmpG:green>0</xmpG:green>
                           <xmpG:blue>255</xmpG:blue>
                        </rdf:li>
                        <rdf:li rdf:parseType="Resource">
                           <xmpG:swatchName>R=193 G=39 B=45</xmpG:swatchName>
                           <xmpG:mode>RGB</xmpG:mode>
                           <xmpG:type>PROCESS</xmpG:type>
                           <xmpG:red>193</xmpG:red>
                           <xmpG:green>39</xmpG:green>
                           <xmpG:blue>45</xmpG:blue>
                        </rdf:li>
                        <rdf:li rdf:parseType="Resource">
                           <xmpG:swatchName>R=237 G=28 B=36</xmpG:swatchName>
                           <xmpG:mode>RGB</xmpG:mode>
                           <xmpG:type>PROCESS</xmpG:type>
                           <xmpG:red>237</xmpG:red>
                           <xmpG:green>28</xmpG:green>
                           <xmpG:blue>36</xmpG:blue>
                        </rdf:li>
                        <rdf:li rdf:parseType="Resource">
                           <xmpG:swatchName>R=241 G=90 B=36</xmpG:swatchName>
                           <xmpG:mode>RGB</xmpG:mode>
                           <xmpG:type>PROCESS</xmpG:type>
                           <xmpG:red>241</xmpG:red>
                           <xmpG:green>90</xmpG:green>
                           <xmpG:blue>36</xmpG:blue>
                        </rdf:li>
                        <rdf:li rdf:parseType="Resource">
                           <xmpG:swatchName>R=247 G=147 B=30</xmpG:swatchName>
                           <xmpG:mode>RGB</xmpG:mode>
                           <xmpG:type>PROCESS</xmpG:type>
                           <xmpG:red>247</xmpG:red>
                           <xmpG:green>147</xmpG:green>
                           <xmpG:blue>30</xmpG:blue>
                        </rdf:li>
                        <rdf:li rdf:parseType="Resource">
                           <xmpG:swatchName>R=251 G=176 B=59</xmpG:swatchName>
                           <xmpG:mode>RGB</xmpG:mode>
                           <xmpG:type>PROCESS</xmpG:type>
                           <xmpG:red>251</xmpG:red>
                           <xmpG:green>176</xmpG:green>
                           <xmpG:blue>59</xmpG:blue>
                        </rdf:li>
                        <rdf:li rdf:parseType="Resource">
                           <xmpG:swatchName>R=252 G=238 B=33</xmpG:swatchName>
                           <xmpG:mode>RGB</xmpG:mode>
                           <xmpG:type>PROCESS</xmpG:type>
                           <xmpG:red>252</xmpG:red>
                           <xmpG:green>238</xmpG:green>
                           <xmpG:blue>33</xmpG:blue>
                        </rdf:li>
                        <rdf:li rdf:parseType="Resource">
                           <xmpG:swatchName>R=217 G=224 B=33</xmpG:swatchName>
                           <xmpG:mode>RGB</xmpG:mode>
                           <xmpG:type>PROCESS</xmpG:type>
                           <xmpG:red>217</xmpG:red>
                           <xmpG:green>224</xmpG:green>
                           <xmpG:blue>33</xmpG:blue>
                        </rdf:li>
                        <rdf:li rdf:parseType="Resource">
                           <xmpG:swatchName>R=140 G=198 B=63</xmpG:swatchName>
                           <xmpG:mode>RGB</xmpG:mode>
                           <xmpG:type>PROCESS</xmpG:type>
                           <xmpG:red>140</xmpG:red>
                           <xmpG:green>198</xmpG:green>
                           <xmpG:blue>63</xmpG:blue>
                        </rdf:li>
                        <rdf:li rdf:parseType="Resource">
                           <xmpG:swatchName>R=57 G=181 B=74</xmpG:swatchName>
                           <xmpG:mode>RGB</xmpG:mode>
                           <xmpG:type>PROCESS</xmpG:type>
                           <xmpG:red>57</xmpG:red>
                           <xmpG:green>181</xmpG:green>
                           <xmpG:blue>74</xmpG:blue>
                        </rdf:li>
                        <rdf:li rdf:parseType="Resource">
                           <xmpG:swatchName>R=0 G=146 B=69</xmpG:swatchName>
                           <xmpG:mode>RGB</xmpG:mode>
                           <xmpG:type>PROCESS</xmpG:type>
                           <xmpG:red>0</xmpG:red>
                           <xmpG:green>146</xmpG:green>
                           <xmpG:blue>69</xmpG:blue>
                        </rdf:li>
                        <rdf:li rdf:parseType="Resource">
                           <xmpG:swatchName>R=0 G=104 B=55</xmpG:swatchName>
                           <xmpG:mode>RGB</xmpG:mode>
                           <xmpG:type>PROCESS</xmpG:type>
                           <xmpG:red>0</xmpG:red>
                           <xmpG:green>104</xmpG:green>
                           <xmpG:blue>55</xmpG:blue>
                        </rdf:li>
                        <rdf:li rdf:parseType="Resource">
                           <xmpG:swatchName>R=34 G=181 B=115</xmpG:swatchName>
                           <xmpG:mode>RGB</xmpG:mode>
                           <xmpG:type>PROCESS</xmpG:type>
                           <xmpG:red>34</xmpG:red>
                           <xmpG:green>181</xmpG:green>
                           <xmpG:blue>115</xmpG:blue>
                        </rdf:li>
                        <rdf:li rdf:parseType="Resource">
                           <xmpG:swatchName>R=0 G=169 B=157</xmpG:swatchName>
                           <xmpG:mode>RGB</xmpG:mode>
                           <xmpG:type>PROCESS</xmpG:type>
                           <xmpG:red>0</xmpG:red>
                           <xmpG:green>169</xmpG:green>
                           <xmpG:blue>157</xmpG:blue>
                        </rdf:li>
                        <rdf:li rdf:parseType="Resource">
                           <xmpG:swatchName>R=41 G=171 B=226</xmpG:swatchName>
                           <xmpG:mode>RGB</xmpG:mode>
                           <xmpG:type>PROCESS</xmpG:type>
                           <xmpG:red>41</xmpG:red>
                           <xmpG:green>171</xmpG:green>
                           <xmpG:blue>226</xmpG:blue>
                        </rdf:li>
                        <rdf:li rdf:parseType="Resource">
                           <xmpG:swatchName>R=0 G=113 B=188</xmpG:swatchName>
                           <xmpG:mode>RGB</xmpG:mode>
                           <xmpG:type>PROCESS</xmpG:type>
                           <xmpG:red>0</xmpG:red>
                           <xmpG:green>113</xmpG:green>
                           <xmpG:blue>188</xmpG:blue>
                        </rdf:li>
                        <rdf:li rdf:parseType="Resource">
                           <xmpG:swatchName>R=46 G=49 B=146</xmpG:swatchName>
                           <xmpG:mode>RGB</xmpG:mode>
                           <xmpG:type>PROCESS</xmpG:type>
                           <xmpG:red>46</xmpG:red>
                           <xmpG:green>49</xmpG:green>
                           <xmpG:blue>146</xmpG:blue>
                        </rdf:li>
                        <rdf:li rdf:parseType="Resource">
                           <xmpG:swatchName>R=27 G=20 B=100</xmpG:swatchName>
                           <xmpG:mode>RGB</xmpG:mode>
                           <xmpG:type>PROCESS</xmpG:type>
                           <xmpG:red>27</xmpG:red>
                           <xmpG:green>20</xmpG:green>
                           <xmpG:blue>100</xmpG:blue>
                        </rdf:li>
                        <rdf:li rdf:parseType="Resource">
                           <xmpG:swatchName>R=102 G=45 B=145</xmpG:swatchName>
                           <xmpG:mode>RGB</xmpG:mode>
                           <xmpG:type>PROCESS</xmpG:type>
                           <xmpG:red>102</xmpG:red>
                           <xmpG:green>45</xmpG:green>
                           <xmpG:blue>145</xmpG:blue>
                        </rdf:li>
                        <rdf:li rdf:parseType="Resource">
                           <xmpG:swatchName>R=147 G=39 B=143</xmpG:swatchName>
                           <xmpG:mode>RGB</xmpG:mode>
                           <xmpG:type>PROCESS</xmpG:type>
                           <xmpG:red>147</xmpG:red>
                           <xmpG:green>39</xmpG:green>
                           <xmpG:blue>143</xmpG:blue>
                        </rdf:li>
                        <rdf:li rdf:parseType="Resource">
                           <xmpG:swatchName>R=158 G=0 B=93</xmpG:swatchName>
                           <xmpG:mode>RGB</xmpG:mode>
                           <xmpG:type>PROCESS</xmpG:type>
                           <xmpG:red>158</xmpG:red>
                           <xmpG:green>0</xmpG:green>
                           <xmpG:blue>93</xmpG:blue>
                        </rdf:li>
                        <rdf:li rdf:parseType="Resource">
                           <xmpG:swatchName>R=212 G=20 B=90</xmpG:swatchName>
                           <xmpG:mode>RGB</xmpG:mode>
                           <xmpG:type>PROCESS</xmpG:type>
                           <xmpG:red>212</xmpG:red>
                           <xmpG:green>20</xmpG:green>
                           <xmpG:blue>90</xmpG:blue>
                        </rdf:li>
                        <rdf:li rdf:parseType="Resource">
                           <xmpG:swatchName>R=237 G=30 B=121</xmpG:swatchName>
                           <xmpG:mode>RGB</xmpG:mode>
                           <xmpG:type>PROCESS</xmpG:type>
                           <xmpG:red>237</xmpG:red>
                           <xmpG:green>30</xmpG:green>
                           <xmpG:blue>121</xmpG:blue>
                        </rdf:li>
                        <rdf:li rdf:parseType="Resource">
                           <xmpG:swatchName>R=199 G=178 B=153</xmpG:swatchName>
                           <xmpG:mode>RGB</xmpG:mode>
                           <xmpG:type>PROCESS</xmpG:type>
                           <xmpG:red>199</xmpG:red>
                           <xmpG:green>178</xmpG:green>
                           <xmpG:blue>153</xmpG:blue>
                        </rdf:li>
                        <rdf:li rdf:parseType="Resource">
                           <xmpG:swatchName>R=153 G=134 B=117</xmpG:swatchName>
                           <xmpG:mode>RGB</xmpG:mode>
                           <xmpG:type>PROCESS</xmpG:type>
                           <xmpG:red>153</xmpG:red>
                           <xmpG:green>134</xmpG:green>
                           <xmpG:blue>117</xmpG:blue>
                        </rdf:li>
                        <rdf:li rdf:parseType="Resource">
                           <xmpG:swatchName>R=115 G=99 B=87</xmpG:swatchName>
                           <xmpG:mode>RGB</xmpG:mode>
                           <xmpG:type>PROCESS</xmpG:type>
                           <xmpG:red>115</xmpG:red>
                           <xmpG:green>99</xmpG:green>
                           <xmpG:blue>87</xmpG:blue>
                        </rdf:li>
                        <rdf:li rdf:parseType="Resource">
                           <xmpG:swatchName>R=83 G=71 B=65</xmpG:swatchName>
                           <xmpG:mode>RGB</xmpG:mode>
                           <xmpG:type>PROCESS</xmpG:type>
                           <xmpG:red>83</xmpG:red>
                           <xmpG:green>71</xmpG:green>
                           <xmpG:blue>65</xmpG:blue>
                        </rdf:li>
                        <rdf:li rdf:parseType="Resource">
                           <xmpG:swatchName>R=198 G=156 B=109</xmpG:swatchName>
                           <xmpG:mode>RGB</xmpG:mode>
                           <xmpG:type>PROCESS</xmpG:type>
                           <xmpG:red>198</xmpG:red>
                           <xmpG:green>156</xmpG:green>
                           <xmpG:blue>109</xmpG:blue>
                        </rdf:li>
                        <rdf:li rdf:parseType="Resource">
                           <xmpG:swatchName>R=166 G=124 B=82</xmpG:swatchName>
                           <xmpG:mode>RGB</xmpG:mode>
                           <xmpG:type>PROCESS</xmpG:type>
                           <xmpG:red>166</xmpG:red>
                           <xmpG:green>124</xmpG:green>
                           <xmpG:blue>82</xmpG:blue>
                        </rdf:li>
                        <rdf:li rdf:parseType="Resource">
                           <xmpG:swatchName>R=140 G=98 B=57</xmpG:swatchName>
                           <xmpG:mode>RGB</xmpG:mode>
                           <xmpG:type>PROCESS</xmpG:type>
                           <xmpG:red>140</xmpG:red>
                           <xmpG:green>98</xmpG:green>
                           <xmpG:blue>57</xmpG:blue>
                        </rdf:li>
                        <rdf:li rdf:parseType="Resource">
                           <xmpG:swatchName>R=117 G=76 B=36</xmpG:swatchName>
                           <xmpG:mode>RGB</xmpG:mode>
                           <xmpG:type>PROCESS</xmpG:type>
                           <xmpG:red>117</xmpG:red>
                           <xmpG:green>76</xmpG:green>
                           <xmpG:blue>36</xmpG:blue>
                        </rdf:li>
                        <rdf:li rdf:parseType="Resource">
                           <xmpG:swatchName>R=96 G=56 B=19</xmpG:swatchName>
                           <xmpG:mode>RGB</xmpG:mode>
                           <xmpG:type>PROCESS</xmpG:type>
                           <xmpG:red>96</xmpG:red>
                           <xmpG:green>56</xmpG:green>
                           <xmpG:blue>19</xmpG:blue>
                        </rdf:li>
                        <rdf:li rdf:parseType="Resource">
                           <xmpG:swatchName>R=66 G=33 B=11</xmpG:swatchName>
                           <xmpG:mode>RGB</xmpG:mode>
                           <xmpG:type>PROCESS</xmpG:type>
                           <xmpG:red>66</xmpG:red>
                           <xmpG:green>33</xmpG:green>
                           <xmpG:blue>11</xmpG:blue>
                        </rdf:li>
                     </rdf:Seq>
                  </xmpG:Colorants>
               </rdf:li>
               <rdf:li rdf:parseType="Resource">
                  <xmpG:groupName>グレー</xmpG:groupName>
                  <xmpG:groupType>1</xmpG:groupType>
                  <xmpG:Colorants>
                     <rdf:Seq>
                        <rdf:li rdf:parseType="Resource">
                           <xmpG:swatchName>R=0 G=0 B=0</xmpG:swatchName>
                           <xmpG:mode>RGB</xmpG:mode>
                           <xmpG:type>PROCESS</xmpG:type>
                           <xmpG:red>0</xmpG:red>
                           <xmpG:green>0</xmpG:green>
                           <xmpG:blue>0</xmpG:blue>
                        </rdf:li>
                        <rdf:li rdf:parseType="Resource">
                           <xmpG:swatchName>R=26 G=26 B=26</xmpG:swatchName>
                           <xmpG:mode>RGB</xmpG:mode>
                           <xmpG:type>PROCESS</xmpG:type>
                           <xmpG:red>26</xmpG:red>
                           <xmpG:green>26</xmpG:green>
                           <xmpG:blue>26</xmpG:blue>
                        </rdf:li>
                        <rdf:li rdf:parseType="Resource">
                           <xmpG:swatchName>R=51 G=51 B=51</xmpG:swatchName>
                           <xmpG:mode>RGB</xmpG:mode>
                           <xmpG:type>PROCESS</xmpG:type>
                           <xmpG:red>51</xmpG:red>
                           <xmpG:green>51</xmpG:green>
                           <xmpG:blue>51</xmpG:blue>
                        </rdf:li>
                        <rdf:li rdf:parseType="Resource">
                           <xmpG:swatchName>R=77 G=77 B=77</xmpG:swatchName>
                           <xmpG:mode>RGB</xmpG:mode>
                           <xmpG:type>PROCESS</xmpG:type>
                           <xmpG:red>77</xmpG:red>
                           <xmpG:green>77</xmpG:green>
                           <xmpG:blue>77</xmpG:blue>
                        </rdf:li>
                        <rdf:li rdf:parseType="Resource">
                           <xmpG:swatchName>R=102 G=102 B=102</xmpG:swatchName>
                           <xmpG:mode>RGB</xmpG:mode>
                           <xmpG:type>PROCESS</xmpG:type>
                           <xmpG:red>102</xmpG:red>
                           <xmpG:green>102</xmpG:green>
                           <xmpG:blue>102</xmpG:blue>
                        </rdf:li>
                        <rdf:li rdf:parseType="Resource">
                           <xmpG:swatchName>R=128 G=128 B=128</xmpG:swatchName>
                           <xmpG:mode>RGB</xmpG:mode>
                           <xmpG:type>PROCESS</xmpG:type>
                           <xmpG:red>128</xmpG:red>
                           <xmpG:green>128</xmpG:green>
                           <xmpG:blue>128</xmpG:blue>
                        </rdf:li>
                        <rdf:li rdf:parseType="Resource">
                           <xmpG:swatchName>R=153 G=153 B=153</xmpG:swatchName>
                           <xmpG:mode>RGB</xmpG:mode>
                           <xmpG:type>PROCESS</xmpG:type>
                           <xmpG:red>153</xmpG:red>
                           <xmpG:green>153</xmpG:green>
                           <xmpG:blue>153</xmpG:blue>
                        </rdf:li>
                        <rdf:li rdf:parseType="Resource">
                           <xmpG:swatchName>R=179 G=179 B=179</xmpG:swatchName>
                           <xmpG:mode>RGB</xmpG:mode>
                           <xmpG:type>PROCESS</xmpG:type>
                           <xmpG:red>179</xmpG:red>
                           <xmpG:green>179</xmpG:green>
                           <xmpG:blue>179</xmpG:blue>
                        </rdf:li>
                        <rdf:li rdf:parseType="Resource">
                           <xmpG:swatchName>R=204 G=204 B=204</xmpG:swatchName>
                           <xmpG:mode>RGB</xmpG:mode>
                           <xmpG:type>PROCESS</xmpG:type>
                           <xmpG:red>204</xmpG:red>
                           <xmpG:green>204</xmpG:green>
                           <xmpG:blue>204</xmpG:blue>
                        </rdf:li>
                        <rdf:li rdf:parseType="Resource">
                           <xmpG:swatchName>R=230 G=230 B=230</xmpG:swatchName>
                           <xmpG:mode>RGB</xmpG:mode>
                           <xmpG:type>PROCESS</xmpG:type>
                           <xmpG:red>230</xmpG:red>
                           <xmpG:green>230</xmpG:green>
                           <xmpG:blue>230</xmpG:blue>
                        </rdf:li>
                        <rdf:li rdf:parseType="Resource">
                           <xmpG:swatchName>R=242 G=242 B=242</xmpG:swatchName>
                           <xmpG:mode>RGB</xmpG:mode>
                           <xmpG:type>PROCESS</xmpG:type>
                           <xmpG:red>242</xmpG:red>
                           <xmpG:green>242</xmpG:green>
                           <xmpG:blue>242</xmpG:blue>
                        </rdf:li>
                     </rdf:Seq>
                  </xmpG:Colorants>
               </rdf:li>
               <rdf:li rdf:parseType="Resource">
                  <xmpG:groupName>Web カラーグループ</xmpG:groupName>
                  <xmpG:groupType>1</xmpG:groupType>
                  <xmpG:Colorants>
                     <rdf:Seq>
                        <rdf:li rdf:parseType="Resource">
                           <xmpG:swatchName>R=63 G=169 B=245</xmpG:swatchName>
                           <xmpG:mode>RGB</xmpG:mode>
                           <xmpG:type>PROCESS</xmpG:type>
                           <xmpG:red>63</xmpG:red>
                           <xmpG:green>169</xmpG:green>
                           <xmpG:blue>245</xmpG:blue>
                        </rdf:li>
                        <rdf:li rdf:parseType="Resource">
                           <xmpG:swatchName>R=122 G=201 B=67</xmpG:swatchName>
                           <xmpG:mode>RGB</xmpG:mode>
                           <xmpG:type>PROCESS</xmpG:type>
                           <xmpG:red>122</xmpG:red>
                           <xmpG:green>201</xmpG:green>
                           <xmpG:blue>67</xmpG:blue>
                        </rdf:li>
                        <rdf:li rdf:parseType="Resource">
                           <xmpG:swatchName>R=255 G=147 B=30</xmpG:swatchName>
                           <xmpG:mode>RGB</xmpG:mode>
                           <xmpG:type>PROCESS</xmpG:type>
                           <xmpG:red>255</xmpG:red>
                           <xmpG:green>147</xmpG:green>
                           <xmpG:blue>30</xmpG:blue>
                        </rdf:li>
                        <rdf:li rdf:parseType="Resource">
                           <xmpG:swatchName>R=255 G=29 B=37</xmpG:swatchName>
                           <xmpG:mode>RGB</xmpG:mode>
                           <xmpG:type>PROCESS</xmpG:type>
                           <xmpG:red>255</xmpG:red>
                           <xmpG:green>29</xmpG:green>
                           <xmpG:blue>37</xmpG:blue>
                        </rdf:li>
                        <rdf:li rdf:parseType="Resource">
                           <xmpG:swatchName>R=255 G=123 B=172</xmpG:swatchName>
                           <xmpG:mode>RGB</xmpG:mode>
                           <xmpG:type>PROCESS</xmpG:type>
                           <xmpG:red>255</xmpG:red>
                           <xmpG:green>123</xmpG:green>
                           <xmpG:blue>172</xmpG:blue>
                        </rdf:li>
                        <rdf:li rdf:parseType="Resource">
                           <xmpG:swatchName>R=189 G=204 B=212</xmpG:swatchName>
                           <xmpG:mode>RGB</xmpG:mode>
                           <xmpG:type>PROCESS</xmpG:type>
                           <xmpG:red>189</xmpG:red>
                           <xmpG:green>204</xmpG:green>
                           <xmpG:blue>212</xmpG:blue>
                        </rdf:li>
                     </rdf:Seq>
                  </xmpG:Colorants>
               </rdf:li>
            </rdf:Seq>
         </xmpTPg:SwatchGroups>
      </rdf:Description>
      <rdf:Description rdf:about=""
            xmlns:pdf="http://ns.adobe.com/pdf/1.3/">
         <pdf:Producer>Adobe PDF library 10.01</pdf:Producer>
      </rdf:Description>
   </rdf:RDF>
</x:xmpmeta>
                                                                                                    
                                                                                                    
                                                                                                    
                                                                                                    
                                                                                                    
                                                                                                    
                                                                                                    
                                                                                                    
                                                                                                    
                                                                                                    
                                                                                                    
                                                                                                    
                                                                                                    
                                                                                                    
                                                                                                    
                                                                                                    
                                                                                                    
                                                                                                    
                                                                                                    
                                                                                                    
                           
<?xpacket end="w"?>
	</metadata>
<g>
	<path fill="#4A1F00" d="M0.154,5.611c2.64,0.946,3.234,1.364,3.234,2.289c0,0.616-0.374,1.32-0.704,1.32
		c-0.177,0-0.221-0.044-0.595-0.748C1.893,8.097,1.386,7.349,0.946,6.799C0.682,6.447,0.484,6.249,0,5.831L0.154,5.611z M0.22,13.73
		c0.154,0.021,0.286,0.044,0.353,0.044c0.506,0.066,0.616,0.089,0.726,0.089c0.462,0,0.639-0.199,1.122-1.167
		c0.396-0.813,1.738-3.586,1.959-4.048c1.254-2.729,1.254-2.729,1.672-3.542l0.308,0.176L3.345,13.73
		C3.08,14.434,3.08,14.457,3.08,14.742c0,0.221,0.022,0.33,0.242,1.232c0.286,1.078,0.33,1.431,0.33,2.223
		c0,0.704-0.242,1.254-0.704,1.563c-0.308,0.22-0.748,0.373-0.99,0.373c-0.264,0-0.439-0.197-0.439-0.483c0-0.22,0-0.242,0.285-1.54
		c0.154-0.771,0.242-1.452,0.242-2.112c0-0.595-0.109-0.968-0.418-1.255c-0.22-0.242-0.418-0.33-1.474-0.682L0.22,13.73z
		 M1.563,1.012c1.144,0.396,2.486,1.034,2.926,1.386c0.374,0.286,0.484,0.506,0.484,0.924c0,0.33-0.11,0.682-0.33,1.034
		c-0.088,0.154-0.198,0.22-0.352,0.22c-0.177,0-0.309-0.11-0.463-0.374C3.19,3.081,2.376,2.09,1.386,1.232L1.563,1.012z
		 M6.095,12.652c0-0.88-0.021-1.276-0.088-2.112c0.814,0.33,1.056,0.462,1.849,0.902h8.823c0.396-0.44,0.506-0.55,0.901-0.946
		c0.595,0.374,0.771,0.506,1.32,0.946c0.154,0.132,0.221,0.22,0.221,0.33c0,0.132-0.066,0.198-0.771,0.616v6.645h0.088
		c0.418-0.594,0.572-0.77,1.013-1.364c0.615,0.66,0.792,0.858,1.319,1.54c0.066,0.066,0.089,0.133,0.089,0.198
		c0,0.066-0.11,0.132-0.242,0.132H5.522c-0.286,0-0.968,0.045-1.32,0.088l-0.088-0.726c0.484,0.065,1.122,0.132,1.408,0.132h0.572
		V12.652z M8.89,9.549c0,0.022,0,0.044,0,0.044c0,0.286-0.242,0.374-1.101,0.374c-0.22,0-0.33-0.088-0.33-0.242
		c0-0.022,0-0.044,0-0.066c0-1.056,0-1.056,0.044-2.531c0-0.858,0.022-1.936,0.044-3.256c0-0.836-0.044-2.09-0.132-2.97
		C8.207,1.276,8.427,1.43,9.131,1.937h6.337L16.37,0.99c0.528,0.396,0.704,0.528,1.166,0.924c0.177,0.154,0.242,0.242,0.242,0.352
		c0,0.132-0.154,0.242-0.726,0.506c0,0.66,0,0.99,0,1.364v2.486l0.021,1.65v1.21c0,0.264-0.154,0.352-0.704,0.374
		c-0.22,0-0.352,0.022-0.374,0.022c-0.021,0-0.044,0-0.044,0c-0.22,0-0.33-0.088-0.33-0.264c0-0.022,0-0.044,0-0.066V9H8.89V9.549z
		 M9.747,11.948H7.503v7.085h2.244V11.948z M15.622,2.442H8.89v2.663h6.732V2.442z M8.89,5.611v2.882h6.732V5.611H8.89z
		 M13.422,11.948h-2.376v7.085h2.376V11.948z M16.898,19.033v-7.085H14.72v7.085H16.898z"/>
	<path fill="#4A1F00" d="M29.656,12.19c0.682,0.132,0.946,0.153,2.156,0.153h3.433c0.396-0.418,0.506-0.549,0.902-0.945
		c0.571,0.462,0.726,0.594,1.254,1.057c0.154,0.176,0.22,0.264,0.22,0.329c0,0.177-0.132,0.242-0.813,0.396
		c-1.145,1.892-2.289,3.169-4.049,4.466c-1.343,0.99-2.442,1.563-4.181,2.223l-0.132-0.264c1.782-0.99,2.904-1.848,4.202-3.146
		c1.276-1.276,1.958-2.223,2.597-3.608h-3.521c-0.946,0-1.298,0.022-1.893,0.11L29.656,12.19z M39.8,9.66
		c0.154,0.968,0.286,1.32,0.704,2.156c0.374,0.682,0.748,1.254,1.298,1.893c1.584-1.123,3.278-2.662,4.049-3.631
		c1.738,1.034,2.002,1.21,2.002,1.364c0,0.132-0.176,0.241-0.396,0.241c-0.088,0-0.418-0.021-0.792-0.065
		c-1.167,0.771-3.081,1.738-4.621,2.376c0.727,0.748,1.408,1.299,2.354,1.871c1.584,0.945,2.816,1.408,4.906,1.781v0.287
		c-0.527,0.132-0.726,0.22-1.078,0.527c-0.33,0.286-0.439,0.463-0.594,0.946c-1.254-0.462-1.826-0.771-2.971-1.628
		c-1.782-1.342-2.729-2.398-3.851-4.357c-0.638-1.078-0.88-1.627-1.231-2.816c0.065,1.408,0.153,3.235,0.176,4.136
		c0,0.133,0,0.221,0,0.287v1.298c0,0.264,0,0.638,0,1.364c0.021,0.242,0.021,0.638,0.021,1.122
		c-0.021,1.056-0.418,1.364-2.552,1.914c-0.221-1.122-0.727-1.386-2.883-1.584v-0.353c1.694,0.066,2.2,0.088,3.631,0.088
		c0.242,0,0.308-0.065,0.308-0.242V9.66h-4.488v0.726c0,0.308-0.154,0.352-1.145,0.352c-0.22,0-0.286-0.044-0.308-0.198
		c0.044-1.694,0.065-3.433,0.065-5.743c0-1.298-0.021-1.98-0.065-3.059c0.792,0.418,1.034,0.55,1.804,1.034h3.301
		c0.308-0.792,0.528-1.826,0.572-2.64c1.958,0.462,2.002,0.462,2.2,0.572c0.176,0.066,0.264,0.154,0.264,0.242
		c0,0.198-0.264,0.286-1.1,0.396c-0.484,0.594-0.704,0.814-1.387,1.43h5.567l0.901-1.034c0.595,0.44,0.771,0.572,1.364,1.034
		c0.177,0.154,0.242,0.264,0.242,0.352c0,0.198-0.132,0.286-0.836,0.572v2.31c0,1.694,0,2.201,0.044,3.785
		c0,0.22-0.044,0.308-0.22,0.374c-0.132,0.044-0.639,0.11-0.969,0.11c-0.197,0-0.285-0.044-0.285-0.198V9.66H39.8z M43.805,5.985
		V3.279H33.793v2.706H43.805z M33.793,6.491v2.662h10.012V6.491H33.793z"/>
	<path fill="#4A1F00" d="M59.511,10.848c-0.771,0.792-1.255,1.21-2.421,2.09l-0.242-0.22c1.211-1.254,1.959-2.245,3.037-4.115
		c0.792-1.408,1.122-2.134,1.43-3.279c1.893,0.616,2.311,0.792,2.311,1.034c0,0.198-0.33,0.308-0.814,0.308
		c-0.021,0-0.109,0-0.197,0c-0.66,1.232-1.122,1.892-2.112,3.081c0.374,0.044,0.901,0.176,0.968,0.22
		c0.044,0,0.088,0.066,0.088,0.132c0,0.132-0.11,0.198-0.594,0.44v4.774c0.021,1.123,0.021,2.002,0.021,2.641
		c0,0.946,0.022,1.1,0.066,2.244l-0.022,0.022l0.044,0.11c0,0.109-0.704,0.308-1.122,0.308c-0.33,0-0.418-0.065-0.439-0.33v-4.862
		V10.848z M57.068,6.513c1.21-1.188,1.914-2.112,2.86-3.653c0.682-1.1,0.902-1.54,1.166-2.354c2.179,0.836,2.42,0.946,2.42,1.166
		c0,0.176-0.33,0.308-0.704,0.308c-0.065,0-0.176,0-0.308-0.022c-1.893,2.376-3.036,3.455-5.192,4.841L57.068,6.513z M64.087,12.938
		c-0.528,0-0.88,0.044-1.584,0.198l-0.242-0.881c0.572,0.133,1.013,0.177,1.826,0.177h2.047v-1.386c0-0.969,0-1.079-0.089-1.739
		c1.783,0.11,1.871,0.11,2.068,0.198c0.133,0.044,0.221,0.11,0.221,0.176c0,0.198-0.242,0.374-0.683,0.528v2.223h1.408
		c0.374-0.462,0.727-0.925,1.101-1.386c0.792,0.637,1.012,0.857,1.76,1.605c0.044,0.066,0.066,0.109,0.066,0.154
		c0,0.066-0.088,0.132-0.242,0.132h-4.093v3.257c1.738-0.33,2.53-0.506,4.269-0.969v0.309c-4.114,1.584-4.114,1.584-8.669,2.882
		c-0.11,0.792-0.154,0.946-0.352,0.946c-0.265,0-0.551-0.682-0.99-2.354c0.924,0,1.628-0.088,4.225-0.528v-3.542H64.087z
		 M69.126,8.339c0.462-0.594,0.616-0.77,1.1-1.32c0.771,0.594,0.99,0.792,1.694,1.452c0.088,0.11,0.133,0.198,0.133,0.264
		c0,0.088-0.045,0.11-0.353,0.11h-7.768c-0.462,0-0.792,0.044-1.43,0.176l-0.22-0.858c0.571,0.11,1.144,0.176,1.649,0.176h2.201
		V4.995h-1.738c-0.44,0-0.683,0.044-1.232,0.154l-0.242-0.836c0.638,0.132,0.946,0.176,1.364,0.176h1.849v-1.65
		c0-0.418-0.022-0.77-0.11-1.672c1.98,0.132,2.486,0.242,2.486,0.484c0,0.176-0.22,0.308-0.858,0.528v2.311h1.585
		c0.439-0.506,0.571-0.66,1.012-1.144c0.726,0.55,0.946,0.726,1.65,1.342c0.065,0.066,0.109,0.154,0.109,0.176
		c0,0.11-0.065,0.132-0.352,0.132h-4.005v3.345H69.126z M75.066,14.962l0.022,3.762c0,0.902-0.506,1.277-2.465,1.717
		c-0.132-1.078-0.638-1.342-3.103-1.584v-0.44c1.959,0.198,2.377,0.22,3.741,0.265c0.198,0,0.264-0.045,0.264-0.198v-0.11
		L73.482,7.701h-0.616c-0.572,0-0.77,0.022-1.276,0.11l-0.132-0.814c0.484,0.154,0.924,0.198,1.496,0.198h1.738
		c0.66-0.771,0.66-0.771,1.255-1.475c0.836,0.704,1.078,0.924,1.826,1.672c0.044,0.066,0.065,0.132,0.065,0.154
		c0,0.088-0.109,0.154-0.242,0.154h-2.574L75.066,14.962z M71.26,2.707c0.44,0.066,1.255,0.132,1.805,0.132h1.276
		c0.462-0.572,0.616-0.748,1.122-1.32c0.77,0.616,0.99,0.814,1.76,1.475c0.066,0.088,0.11,0.154,0.11,0.198
		c0,0.11-0.088,0.154-0.33,0.154h-4.07c-0.572,0-0.836,0.022-1.452,0.154L71.26,2.707z"/>
	<path fill="#4A1F00" d="M95.789,18.505c2.376-0.705,3.895-1.607,5.148-3.059c1.299-1.475,1.959-3.279,1.959-5.303
		c0-2.134-0.858-3.829-2.486-4.863c-0.969-0.638-2.421-1.012-3.807-1.012c-0.265,0-0.418,0-0.771,0.044
		c0.528,0.771,0.683,1.188,0.683,1.827c0,1.716-1.232,4.929-2.904,7.612c-1.387,2.201-2.465,3.279-3.279,3.279
		c-0.374,0-0.726-0.176-0.968-0.463c-0.198-0.264-0.242-0.352-0.616-1.408c-0.198-0.571-0.33-0.836-0.968-2.068
		c-0.353-0.703-0.506-1.297-0.506-2.002c0-1.386,0.748-3.014,1.979-4.356c1.782-1.892,4.687-3.08,7.569-3.08
		c2.223,0,4.269,0.726,5.677,2.024c1.408,1.298,2.112,3.037,2.112,5.171c0,2.75-1.606,5.193-4.379,6.667
		c-1.275,0.682-2.42,1.033-4.29,1.363L95.789,18.505z M88.55,11.662c0,1.057,0.33,2.135,0.881,2.904
		c0.308,0.396,0.594,0.639,0.836,0.639c0.483,0,1.54-1.188,2.618-2.904c1.628-2.597,2.794-5.435,2.794-6.799
		c0-0.33-0.065-0.55-0.308-1.1C91.543,5.083,88.55,8.273,88.55,11.662z"/>
	<path fill="#4A1F00" d="M114.642,9.923c0.946,0.154,1.431,0.176,2.883,0.176h13.004c0.616-0.836,0.836-1.078,1.518-1.87
		c1.123,0.88,1.475,1.166,2.553,2.112c0.044,0.044,0.066,0.11,0.066,0.132c0,0.066-0.088,0.132-0.242,0.132h-16.898
		c-1.32,0-1.717,0.022-2.729,0.154L114.642,9.923z"/>
	<path fill="#4A1F00" d="M153.913,7.371c1.034,1.012,1.738,1.584,2.772,2.2c1.915,1.145,3.741,1.739,6.976,2.245v0.264
		c-0.814,0.286-1.101,0.594-1.343,1.475c-1.166-0.396-1.605-0.572-2.442-0.946l-0.418,0.396c0.022,5.59,0.022,5.59,0.088,7.328
		c-0.021,0.131-0.044,0.176-0.176,0.22s-0.704,0.11-1.1,0.11c-0.177,0-0.242-0.045-0.265-0.177v-1.034h-9.813v0.814
		c0,0.154-0.044,0.22-0.153,0.242c-0.133,0.066-0.66,0.109-1.013,0.109c-0.242,0-0.33-0.065-0.33-0.22v-0.044
		c0.066-1.937,0.088-3.807,0.088-5.875c0-0.792,0-0.792-0.044-2.112c-1.078,0.595-1.782,0.902-3.477,1.519l-0.132-0.286
		c1.98-1.056,3.322-1.98,5.039-3.389c1.232-1.012,1.87-1.65,2.948-2.838h-5.765c-0.639,0-0.99,0.022-1.452,0.11l-0.177-0.814
		c0.683,0.154,1.101,0.198,1.694,0.198h6.888V3.081c-2.135,0.176-4.027,0.286-5.392,0.286c-0.329,0-1.012-0.022-1.892-0.044
		l-0.088-0.374c2.992-0.176,5.303-0.44,7.723-0.858c1.65-0.286,3.652-0.726,4.863-1.056c0.483-0.154,0.77-0.242,1.452-0.528
		c0.418,0.308,0.748,0.55,0.945,0.682c0.595,0.396,0.881,0.66,0.881,0.792c0,0.11-0.154,0.22-0.309,0.22
		c-0.132,0-0.22-0.022-0.924-0.176c-2.354,0.484-3.828,0.704-5.94,0.924v3.917h1.892c1.013-1.563,1.717-2.971,1.98-3.939
		c1.232,0.396,2.046,0.704,2.179,0.814c0.044,0.022,0.044,0.044,0.065,0.11c0,0.044,0,0.044,0.022,0.066c0,0,0,0-0.177,0.176
		c-0.065,0.066-0.22,0.088-0.682,0.132c-0.484,0.462-0.484,0.462-1.188,1.122c-0.396,0.374-0.396,0.374-1.122,1.078
		c-0.264,0.242-0.264,0.242-0.483,0.44h3.564c0.594-0.704,0.77-0.924,1.319-1.563c0.858,0.748,1.123,0.99,1.959,1.782
		c0.044,0.044,0.088,0.11,0.088,0.154c0,0.066-0.11,0.132-0.198,0.132H153.913z M147.532,3.477c1.805,1.32,2.156,1.672,2.156,2.178
		c0,0.198-0.088,0.462-0.197,0.704c-0.198,0.33-0.374,0.484-0.616,0.484c-0.221,0-0.33-0.132-0.418-0.484
		c-0.198-0.902-0.595-1.892-1.101-2.729L147.532,3.477z M152.308,8.031c-1.585,1.65-2.553,2.442-4.753,3.851
		c0.264,0.153,0.396,0.22,0.748,0.461h9.682c0.242-0.197,0.418-0.352,0.527-0.461c-1.826-1.079-3.08-2.157-4.862-4.137v1.1
		c0,0.88,0,1.1,0.022,2.354c-0.022,0.153-0.044,0.198-0.154,0.242c-0.132,0.065-0.639,0.132-0.946,0.132
		c-0.198,0-0.264-0.044-0.286-0.198c0.022-1.386,0.022-2.244,0.022-2.53V8.031z M152.308,12.85h-4.115v2.618h4.115V12.85z
		 M148.192,15.974v2.971h4.115v-2.971H148.192z M157.984,15.468V12.85h-4.313v2.618H157.984z M153.672,18.945h4.313v-2.971h-4.313
		V18.945z"/>
	<path fill="#4A1F00" d="M188.257,2.926c0.594-0.704,0.77-0.924,1.364-1.672c1.056,0.77,1.363,1.012,2.31,1.826
		c0.066,0.066,0.11,0.132,0.11,0.176c0,0.11-0.088,0.176-0.22,0.176h-17.603c-0.595,0-1.585,0.066-2.091,0.154l-0.198-0.924
		c0.704,0.132,1.782,0.264,2.245,0.264h6.711V1.672c0-0.352-0.022-0.66-0.133-1.32c2.245,0.242,2.553,0.308,2.553,0.594
		c0,0.154-0.176,0.264-0.858,0.506v1.474H188.257z M188.521,11.024c0.264-0.286,0.55-0.616,0.858-0.968
		c0.726,0.484,0.946,0.638,1.54,1.1c0.132,0.132,0.176,0.176,0.176,0.264c0,0.154-0.021,0.176-0.814,0.594v3.564
		c0.022,0.727,0.045,1.387,0.045,2.025c0.021,0.99,0.021,1.056,0.044,1.628c-0.022,0.571-0.221,0.792-0.881,1.034
		c-0.374,0.154-0.813,0.264-1.738,0.418c-0.065-0.572-0.241-0.836-0.682-1.057c-0.353-0.197-0.836-0.285-2.135-0.418v-0.396
		c1.585,0.088,2.311,0.132,3.587,0.132c0.176-0.021,0.22-0.109,0.22-0.374V11.53h-14.082v4.489c0,1.649,0,2.111,0.044,4.355
		c-0.044,0.133-0.088,0.177-0.264,0.199c-0.242,0.043-0.727,0.088-1.034,0.088c-0.242,0-0.308-0.045-0.353-0.199
		c0.066-2.64,0.066-2.926,0.066-3.564c0-4.048-0.021-5.303-0.066-6.931c0.881,0.418,1.145,0.55,1.915,1.057H188.521z M185.594,5.259
		c0.309-0.374,0.396-0.506,0.748-0.88c0.639,0.418,0.837,0.55,1.408,0.968c0.133,0.11,0.154,0.154,0.154,0.22
		c0,0.132-0.021,0.154-0.726,0.616c0,0.396,0,0.748,0,0.946c0,0.484,0,0.814,0.044,2.597c0,0.176-0.044,0.22-0.221,0.286
		c-0.132,0.044-0.682,0.088-0.99,0.088c-0.22,0-0.308-0.066-0.308-0.242V9.109h-7.943v0.572c0,0.022,0,0.044,0,0.066
		c0,0.22-0.286,0.33-0.946,0.33c-0.483,0-0.571-0.044-0.571-0.242c0-0.022,0-0.044,0-0.066c0.044-1.166,0.065-1.694,0.065-2.794
		s-0.021-1.716-0.065-2.574c0.813,0.33,1.033,0.462,1.737,0.858H185.594z M184.428,13.4c0.309-0.374,0.396-0.484,0.748-0.836
		c0.616,0.396,0.792,0.527,1.32,0.969c0.088,0.088,0.11,0.131,0.11,0.176c0,0.109,0,0.109-0.616,0.572v0.879
		c0,0.375,0,0.902,0,1.585c0.021,0.396,0.021,0.792,0.021,1.144c-0.021,0.265-0.33,0.353-1.166,0.353
		c-0.198,0-0.264-0.044-0.286-0.153v-0.749h-5.721v1.101c-0.044,0.197-0.22,0.264-0.748,0.285c-0.154,0-0.264,0.022-0.33,0.022
		c-0.021,0-0.044,0-0.044,0c-0.242,0-0.352-0.088-0.352-0.286l0.021-3.189c0-1.189-0.021-1.98-0.065-2.729
		c0.77,0.352,1.012,0.461,1.738,0.857H184.428z M177.761,8.604h7.943V5.765h-7.943V8.604z M178.839,16.833h5.721v-2.927h-5.721
		V16.833z"/>
	<path fill="#4A1F00" d="M201.477,8.031c0.594,0.044,0.88,0.044,1.254,0.044c0.198,0,0.792,0,2.662-0.044
		c0.814-1.584,0.902-1.76,1.585-3.278c0.968-2.223,1.298-3.081,1.496-4.005c2.2,0.638,2.552,0.77,2.552,0.99
		s-0.153,0.286-0.968,0.396c-1.628,2.619-2.244,3.542-3.982,5.875c3.124-0.066,6.711-0.242,9.967-0.528
		c-0.857-1.1-1.672-1.936-3.058-3.19l0.176-0.242c1.672,0.924,2.641,1.584,4.158,2.772c1.496,1.188,1.629,1.364,1.629,2.156
		c0,0.946-0.242,1.628-0.595,1.628c-0.176,0-0.308-0.11-0.483-0.396c-0.639-1.056-0.969-1.562-1.453-2.244
		c-5.391,0.77-9.571,1.276-13.752,1.65c-0.264,0.682-0.352,0.836-0.506,0.836c-0.065,0-0.154-0.088-0.22-0.22
		c-0.044-0.11-0.132-0.418-0.198-0.792L201.477,8.031z M214.986,12.255c0.374-0.483,0.506-0.615,0.902-1.056
		c0.66,0.44,0.836,0.595,1.452,1.056c0.176,0.133,0.242,0.221,0.242,0.287c0,0.153-0.133,0.241-0.748,0.638c0,0.726,0,1.319,0,1.672
		c0,2.223,0.021,3.653,0.109,5.171c0,0.154-0.021,0.221-0.109,0.264c-0.11,0.066-0.727,0.133-1.364,0.133
		c-0.133,0-0.177-0.045-0.198-0.176v-1.057h-9.813v1.057c0,0.131-0.044,0.176-0.176,0.197c-0.11,0.044-0.704,0.088-1.057,0.088
		c-0.242,0-0.352-0.066-0.352-0.242c0,0,0-0.021,0-0.043c0.044-1.65,0.065-4.027,0.065-6.293c0-0.814-0.021-1.65-0.065-2.751
		c0.792,0.418,1.034,0.572,1.782,1.056H214.986z M205.459,18.681h9.813v-5.92h-9.813V18.681z"/>
	<path fill="#4A1F00" d="M257.622,3.741c0.396-0.506,0.506-0.66,0.945-1.1c0.616,0.484,0.793,0.616,1.343,1.078
		c0.154,0.154,0.22,0.242,0.22,0.352c0,0.154-0.176,0.308-0.726,0.572v4.005c0,7.635,0,7.92,0.153,11.419
		c-0.021,0.198-0.065,0.265-0.22,0.308c-0.154,0.066-0.858,0.154-1.21,0.154c-0.176,0-0.242-0.066-0.242-0.264v-1.606h-10.254v1.408
		c0,0.022,0,0.065,0,0.065c0,0.154-0.065,0.242-0.22,0.287c-0.11,0.021-0.748,0.065-0.99,0.065c-0.308,0-0.418-0.065-0.418-0.264
		v-0.044c0.066-2.662,0.11-6.117,0.11-8.494c0-5.368-0.022-7.92-0.088-9.197c0.836,0.506,1.1,0.682,1.914,1.254h2.398
		c0.527-1.188,0.902-2.464,1.078-3.741c2.53,0.66,2.596,0.682,2.596,0.902c0,0.176-0.197,0.264-1.012,0.44
		c-0.242,0.286-0.418,0.528-0.528,0.66c-0.813,1.056-1.012,1.298-1.474,1.738H257.622z M257.886,8.295V4.247h-10.254v4.049H257.886z
		 M247.632,8.801v4.29h10.254v-4.29H247.632z M247.632,13.598v4.555h10.254v-4.555H247.632z"/>
	<path fill="#4A1F00" d="M283.56,6.447c0.176-1.144,0.242-2.31,0.242-3.872c0-0.727-0.022-1.167-0.066-1.937
		c2.223,0.22,2.486,0.286,2.486,0.55c0,0.176-0.22,0.286-0.968,0.528c-0.022,2.244-0.088,3.322-0.286,4.73h3.366
		c0.484-0.572,0.616-0.748,1.101-1.298c0.726,0.66,0.945,0.88,1.672,1.584c0.044,0.044,0.066,0.088,0.066,0.132
		c0,0.066-0.066,0.088-0.177,0.088h-5.853c0.396,1.364,0.814,2.178,1.672,3.234c1.255,1.541,2.619,2.443,4.753,3.103v0.242
		c-0.858,0.197-1.144,0.461-1.518,1.496c-1.761-1.101-2.772-2.135-3.763-3.873c-0.683-1.166-1.145-2.354-1.496-3.785
		c-0.463,1.98-1.232,3.542-2.354,4.796c-0.748,0.814-1.87,1.673-3.015,2.311c-0.506,0.286-0.88,0.463-1.738,0.771l-0.132-0.22
		c1.716-0.99,2.97-2.047,4.004-3.411c0.99-1.32,1.563-2.662,1.937-4.665h-2.948c-0.792,1.848-1.937,3.608-3.345,5.126
		c-1.65,1.783-3.322,3.037-5.435,4.07l-0.198-0.22c1.98-1.386,3.564-2.904,4.951-4.708c1.584-2.091,2.53-4.071,3.345-6.998h-3.631
		c-0.242,0.418-0.462,0.792-0.727,1.21c0.551,0.176,0.902,0.308,1.496,0.594c0.925,0.396,1.211,0.726,1.211,1.32
		c0,0.528-0.221,0.968-0.484,0.968c-0.132,0-0.242-0.088-0.396-0.352c-0.638-1.056-1.034-1.541-1.936-2.354
		c-0.528,0.814-0.946,1.386-1.54,2.112c2.002,0.902,2.574,1.364,2.574,2.068c0,0.572-0.286,1.144-0.572,1.144
		c-0.176,0-0.309-0.132-0.484-0.572c-0.374-0.924-0.902-1.672-1.694-2.442c-0.704,0.836-1.1,1.21-2.09,1.98l-0.176-0.22
		c1.275-1.541,2.397-3.301,3.256-5.105c0.66-1.452,1.166-2.948,1.364-4.114c2.311,0.748,2.376,0.77,2.376,0.99
		c0,0.176-0.22,0.264-1.033,0.396c-0.375,0.836-0.484,1.078-0.881,1.871h3.367c0.352-0.374,0.352-0.374,0.77-0.858
		c0.528,0.374,0.704,0.484,1.21,0.858c0.242,0.22,0.309,0.286,0.309,0.352c0,0.132,0,0.132-0.88,0.726
		c-0.242,0.814-0.33,1.1-0.528,1.65H283.56z M275.242,15.029c0,0.131,0,0.285,0,0.33c0,1.848-0.462,3.277-1.342,4.268
		c-0.419,0.463-0.858,0.727-1.188,0.727c-0.353,0-0.66-0.594-0.66-1.299c0-0.352,0.088-0.439,0.506-0.615
		c0.462-0.176,0.99-0.66,1.431-1.232c0.483-0.66,0.704-1.166,0.968-2.2L275.242,15.029z M278.366,15.468
		c1.145,1.166,1.805,2.223,1.805,2.883c0,0.748-0.682,1.628-1.254,1.628c-0.221,0-0.33-0.154-0.33-0.483c0-0.066,0-0.221,0-0.353
		c0.021-0.22,0.021-0.396,0.021-0.507c0-0.945-0.109-1.65-0.506-3.059L278.366,15.468z M282.701,15.029
		c0.814,0.682,1.166,1.033,1.849,1.804c0.506,0.595,0.704,0.99,0.704,1.364c0,0.792-0.551,1.717-1.013,1.717
		c-0.22,0-0.33-0.177-0.396-0.551c-0.265-1.563-0.507-2.288-1.387-4.137L282.701,15.029z M285.979,2.134
		c0.792,0.264,1.166,0.44,1.738,0.748c0.683,0.396,0.946,0.726,0.946,1.188c0,0.594-0.33,1.342-0.572,1.342
		c-0.176,0-0.264-0.11-0.483-0.572c-0.396-0.748-0.881-1.452-1.782-2.486L285.979,2.134z M286.992,14.808
		c1.166,0.814,2.134,1.563,2.86,2.267c0.594,0.55,0.902,1.078,0.902,1.519c0,0.66-0.44,1.539-0.793,1.539
		c-0.153,0-0.286-0.153-0.483-0.594c-0.616-1.386-1.606-3.014-2.707-4.51L286.992,14.808z"/>
	<path fill="#4A1F00" d="M306.043,10.848c-0.044,0.199-0.374,1.584-0.99,4.136c-0.309,1.299-0.374,1.65-0.374,2.332
		c0,0.639-0.022,0.814-0.066,0.947c-0.088,0.242-0.286,0.373-0.528,0.373c-0.374,0-0.704-0.308-0.946-0.901
		c-0.483-1.145-0.77-2.927-0.77-4.687c0-0.66,0.065-1.475,0.176-2.354c0.154-1.276,0.154-1.276,0.771-4.159
		c0.22-1.034,0.308-1.584,0.308-2.046c0-0.726-0.176-1.276-0.616-2.068c0.484,0.022,0.881,0.308,1.475,1.078
		c0.55,0.682,0.814,1.254,0.814,1.738c0,0.352-0.022,0.44-0.463,1.32c-0.439,0.924-0.968,2.464-1.188,3.499
		c-0.198,0.836-0.286,1.782-0.286,2.728c0,1.21,0.109,1.98,0.418,2.905c0.374-0.771,0.55-1.211,0.792-1.871l1.166-3.08
		L306.043,10.848z M308.815,11.948c-0.045,0.44-0.066,0.638-0.066,0.925c0,2.42,1.386,3.41,4.797,3.41
		c0.638,0,1.276-0.045,1.87-0.154c0.462-0.066,0.462-0.066,1.166-0.352c0.132-0.045,0.242-0.066,0.33-0.066
		c0.572,0,1.387,0.77,1.387,1.298c0,0.265-0.177,0.44-0.484,0.55c-0.462,0.154-1.519,0.242-2.751,0.242
		c-2.75,0-4.708-0.462-5.698-1.342c-0.792-0.727-1.188-1.65-1.188-2.86c0-0.55,0.066-1.034,0.265-1.738L308.815,11.948z
		 M308.771,4.951c0.771,0.462,1.255,0.594,2.047,0.594c1.364,0,3.498-0.484,4.423-0.99c0.286-0.154,0.33-0.176,0.483-0.176
		c0.177,0,0.463,0.11,0.771,0.308c0.462,0.264,0.682,0.528,0.682,0.814s-0.153,0.418-0.615,0.506
		c-1.453,0.22-2.267,0.418-3.125,0.77c-0.682,0.286-1.958,0.99-2.838,1.563l-0.221-0.22c0.99-0.836,1.738-1.452,2.091-1.716
		c-0.462,0.022-0.704,0.044-0.902,0.044c-1.232,0-2.046-0.33-2.992-1.232L308.771,4.951z"/>
	<path fill="#4A1F00" d="M329.89,11.068c0-1.43,0-2.311,0.022-4.005c0-0.924,0-1.43,0-1.936c0-1.144,0-1.32-0.066-2.927
		c-0.021-0.814-0.021-0.814-0.044-1.408c0.792,0.44,1.057,0.572,1.87,1.123h14.082c0.353-0.44,0.463-0.572,0.837-1.012
		c0.66,0.44,0.857,0.594,1.408,1.012c0.153,0.154,0.22,0.242,0.22,0.33c0,0.154-0.066,0.198-0.814,0.704v1.342l-0.021,3.542
		c0,0.198,0.044,7.526,0.044,8.12c0.021,1.98,0.021,2.135,0.109,3.961c-0.021,0.197-0.065,0.264-0.197,0.33
		c-0.154,0.065-0.616,0.131-1.013,0.131c-0.33,0-0.396-0.043-0.418-0.264v-0.99h-14.522v0.881c-0.044,0.242-0.109,0.308-0.308,0.352
		c-0.22,0.044-0.572,0.088-0.836,0.088c-0.33,0-0.418-0.066-0.44-0.286c0.066-2.31,0.088-3.19,0.088-6.271V11.068z M331.386,18.615
		h14.522V2.42h-14.522V18.615z M340.275,7.107c0-3.08,0-3.08-0.065-3.828c0.418,0.044,0.748,0.088,0.968,0.11
		c1.254,0.154,1.386,0.176,1.386,0.396c0,0.198-0.132,0.286-0.857,0.506c0,0.748,0,0.748-0.022,2.816h0.704
		c0.462-0.594,0.616-0.77,1.078-1.364c0.771,0.638,0.99,0.836,1.694,1.475c0.066,0.088,0.11,0.198,0.11,0.242
		c0,0.11-0.088,0.154-0.286,0.154h-3.301v4.466h0.814c0.483-0.638,0.638-0.836,1.144-1.452c0.837,0.66,1.078,0.88,1.782,1.628
		c0.044,0.066,0.066,0.11,0.066,0.154c0,0.088-0.11,0.176-0.242,0.176h-3.564c0.022,2.619,0.022,2.751,0.044,4.665
		c-0.044,0.308-0.242,0.396-0.77,0.418c-0.221,0-0.353,0-0.396,0.022c-0.044,0-0.044,0-0.066,0c-0.176,0-0.285-0.088-0.285-0.221
		c0-0.021,0-0.043,0-0.065c0.044-1.738,0.044-1.738,0.044-4.819h-3.653c-0.241,1.101-0.638,2.003-1.254,2.861
		c-0.704,1.012-1.43,1.628-2.86,2.508l-0.264-0.286c1.122-0.88,1.738-1.649,2.332-2.86c0.352-0.748,0.572-1.408,0.704-2.223h-0.727
		c-1.1,0-1.43,0.022-2.2,0.11l-0.132-0.771c0.683,0.088,1.563,0.154,2.332,0.154h0.793c0.132-1.276,0.132-1.276,0.132-4.466h-0.925
		c-0.945,0-1.254,0.022-2.046,0.132l-0.11-0.792c0.837,0.132,1.122,0.154,2.156,0.154h0.925v-1.65c0-0.968-0.022-1.32-0.088-2.134
		c2.288,0.286,2.486,0.33,2.486,0.572c0,0.198-0.11,0.242-0.946,0.462l-0.022,2.75H340.275z M336.887,7.613c0,0.462,0,0.836,0,1.078
		c0,1.738-0.044,2.266-0.197,3.388h3.564l0.021-3.168V7.613H336.887z"/>
	<path fill="#4A1F00" d="M360.315,4.841c1.167,0.968,1.871,1.188,3.543,1.188c0.946,0,1.805-0.066,3.146-0.264
		c-0.088-3.367-0.242-3.675-1.914-3.917c0.308-0.308,0.483-0.352,1.1-0.352s1.343,0.11,1.849,0.286
		c0.528,0.176,0.748,0.396,0.748,0.726c0,0.132,0,0.132-0.286,0.748c-0.198,0.418-0.33,1.188-0.396,2.333
		c2.178-0.418,3.366-0.792,4.092-1.298c0.066-0.044,0.198-0.088,0.265-0.088c0.264,0,0.901,0.198,1.144,0.374
		c0.242,0.154,0.374,0.33,0.374,0.528c0,0.308-0.352,0.484-1.716,0.814c-1.496,0.352-2.883,0.616-4.203,0.77
		c-0.021,0.572-0.021,0.902-0.021,1.408c0,0.594,0,1.034,0.021,2.002c0.902-0.154,1.761-0.352,2.509-0.594
		c0.572-0.198,0.682-0.264,1.101-0.55c0.088-0.066,0.197-0.088,0.33-0.088c0.308,0,0.857,0.154,1.122,0.33
		c0.176,0.088,0.264,0.242,0.264,0.418c0,0.396-0.308,0.572-1.694,0.946c-1.1,0.286-2.53,0.55-3.586,0.638
		c0.044,0.858,0.044,1.21,0.065,1.98c0.044,0.836,0.066,1.166,0.132,1.716c2.024,0.375,3.961,1.123,4.841,1.893
		c0.418,0.374,0.639,0.88,0.639,1.452c0,0.462-0.198,0.771-0.484,0.771c-0.22,0-0.309-0.066-0.88-0.617
		c-0.374-0.352-1.211-0.989-1.849-1.363c-0.748-0.44-1.298-0.682-2.2-0.924c0.044,0.483,0.065,0.703,0.065,0.968
		c0,0.858-0.241,1.431-0.748,1.849c-0.615,0.506-1.76,0.813-2.948,0.813c-2.2,0-3.719-0.968-3.719-2.354
		c0-1.563,2.047-2.662,4.974-2.662c0.352,0,0.571,0,1.1,0.021c-0.021-1.056-0.021-1.209-0.021-1.518c0-0.066,0-0.221,0-0.352
		c0-0.529,0-0.837,0-1.013c0-0.088,0-0.308,0-0.55c-0.881,0.043-1.299,0.065-1.629,0.065c-1.43,0-2.398-0.153-2.926-0.484
		c-0.639-0.374-0.99-0.99-0.99-1.672c0-0.154,0.021-0.374,0.044-0.616l0.33,0.022c0.021,0.682,0.132,0.99,0.462,1.254
		c0.352,0.308,1.298,0.484,2.574,0.484c0.616,0,1.145-0.044,2.135-0.154c0-0.132,0-0.242,0-0.264V8.669l-0.045-1.606V6.799
		c-1.21,0.11-2.09,0.154-2.838,0.154c-2.091,0-2.992-0.418-4.093-1.892L360.315,4.841z M365.2,15.667
		c-0.857,0-1.716,0.153-2.398,0.418c-0.792,0.308-1.188,0.748-1.188,1.32c0,0.792,0.902,1.254,2.398,1.254
		c1.078,0,1.98-0.286,2.508-0.792c0.286-0.264,0.418-0.594,0.484-1.145c0.021-0.154,0.044-0.66,0.044-0.836c0-0.044,0-0.066,0-0.066
		C366.19,15.71,365.795,15.667,365.2,15.667z"/>
	<path fill="#4A1F00" d="M391.028,8.845c0.021-0.352,0.021-0.352,0.044-0.924c0.044-0.44,0.044-0.44,0.066-0.771
		c-0.66,0.44-1.826,1.232-2.223,1.519c-0.418,0.286-0.55,0.352-0.748,0.352c-0.572,0-1.628-1.298-1.628-2.002
		c0-0.044,0.021-0.22,0.065-0.374c0.484,0.704,0.969,1.056,1.431,1.056c0.439,0,1.87-0.594,3.168-1.32
		c0.11-0.924,0.154-1.54,0.154-2.332c0-1.276-0.198-1.65-1.254-2.442c0.132-0.088,0.176-0.11,0.286-0.11
		c0.352,0,0.836,0.22,1.408,0.594c0.704,0.484,1.144,1.034,1.144,1.452c0,0.242,0,0.242-0.22,0.902
		c-0.154,0.418-0.309,1.122-0.396,1.738c0.484,0.506,0.639,0.682,0.639,0.858c0,0.132-0.022,0.176-0.309,0.638
		c-0.264,0.484-0.483,0.902-0.704,1.43c-0.044,0.374-0.044,0.462-0.044,0.814c2.156-2.046,2.883-2.684,3.829-3.366
		c1.54-1.1,2.574-1.563,3.542-1.563c0.683,0,1.299,0.286,1.738,0.792c0.418,0.484,0.594,1.078,0.594,1.936
		c0,0.836-0.021,0.99-0.439,3.257c-0.265,1.43-0.396,2.706-0.396,3.608c0,0.88,0.154,1.342,0.551,1.628
		c0.308,0.221,0.704,0.33,1.122,0.33c1.1,0,2.64-0.572,4.092-1.563l0.177,0.265c-1.585,1.628-3.301,2.53-4.863,2.53
		c-1.672,0-2.574-1.078-2.574-3.08c0-0.793,0.198-2.201,0.55-3.917c0.507-2.354,0.551-2.663,0.551-3.477
		c0-1.078-0.484-1.694-1.343-1.694c-0.946,0-2.09,0.66-3.851,2.222c-1.144,1.012-2.178,2.09-3.344,3.477
		c-0.022,0.527-0.022,0.814-0.022,1.145c0,1.188,0.066,2.244,0.22,3.938c0.066,0.528,0.066,0.705,0.066,1.035
		c0,1.254-0.418,2.287-0.946,2.287c-0.242,0-0.418-0.176-0.528-0.594c-0.065-0.22-0.308-0.902-0.374-1.056
		c-0.241-0.44-0.945-1.343-1.936-2.398c-0.44,1.056-0.528,1.188-0.748,1.188c-0.198,0-0.374-0.176-0.507-0.506
		c-0.132-0.353-0.242-0.881-0.242-1.211c0-0.264,0.022-0.309,0.375-0.66c0.352-0.33,0.704-0.814,1.43-1.958L391.028,8.845z
		 M389.687,12.96c-0.507,0.968-0.749,1.451-1.167,2.332c1.299,1.078,1.694,1.387,2.333,1.782c0.044-0.837,0.044-0.837,0.065-4.114
		c0-1.078,0.022-1.585,0.088-2.487C390.698,11.112,390.676,11.112,389.687,12.96z"/>
	<path fill="#4A1F00" d="M415.822,6.051c0.901,0.924,1.474,1.21,2.42,1.21c0.858,0,1.782-0.132,2.794-0.418
		c0.44-1.43,0.749-2.971,0.749-3.719c0-0.682-0.33-0.968-1.563-1.386c0.286-0.154,0.396-0.198,0.682-0.198
		c0.506,0,1.232,0.154,1.893,0.418c0.66,0.242,0.99,0.55,0.99,0.88c0,0.154,0,0.154-0.265,0.528
		c-0.285,0.418-0.77,1.584-1.319,3.146c1.231-0.44,2.023-0.858,2.552-1.342c0.353-0.33,0.44-0.374,0.616-0.374
		c0.286,0,0.814,0.11,1.166,0.242c0.242,0.088,0.353,0.22,0.353,0.396c0,0.374-0.353,0.66-1.276,1.078
		c-0.99,0.44-2.465,0.924-3.851,1.276c-0.264,0.748-0.264,0.748-0.924,2.794c-0.44,1.32-0.44,1.32-1.65,4.906
		c-0.88,2.619-1.166,3.169-1.628,3.169c-0.221,0-0.375-0.132-0.507-0.44c-0.176-0.352-0.308-0.902-0.308-1.275
		c0-0.353,0.021-0.418,0.484-1.078c1.1-1.606,1.958-3.521,3.454-7.877c-0.836,0.154-1.475,0.22-2.112,0.22
		c-1.342,0-2.2-0.572-3.015-1.98L415.822,6.051z M424.602,13.642c-0.022,0.33-0.022,0.594-0.022,0.682
		c0,1.254,0.594,2.201,1.672,2.662c0.595,0.265,1.496,0.419,2.354,0.419c0.902,0,1.408-0.066,2.112-0.33
		c0.154-0.066,0.286-0.089,0.374-0.089c0.242,0,0.748,0.242,1.122,0.529c0.265,0.22,0.396,0.418,0.396,0.615
		c0,0.484-0.858,0.727-2.597,0.727c-1.694,0-3.103-0.242-4.07-0.704c-1.188-0.572-1.87-1.716-1.87-3.19
		c0-0.484,0.044-0.858,0.198-1.387L424.602,13.642z M425.195,9.571c1.584-0.946,3.389-1.474,5.104-1.474
		c0.462,0,1.034,0.154,1.387,0.396c0.22,0.132,0.352,0.374,0.352,0.616c0,0.352-0.198,0.484-0.836,0.506
		c-0.814,0.044-1.078,0.11-1.694,0.44c-0.44,0.242-0.462,0.242-1.21,0.748c-0.418,0.264-0.418,0.264-0.771,0.461l-0.132-0.197
		c0.264-0.264,0.264-0.264,1.056-0.99c0.198-0.176,0.396-0.352,1.079-1.034c-1.453,0-2.619,0.242-4.203,0.814L425.195,9.571z"/>
	<path fill="#4A1F00" d="M443.168,9.923c0.946,0.154,1.43,0.176,2.882,0.176h13.004c0.616-0.836,0.837-1.078,1.519-1.87
		c1.122,0.88,1.475,1.166,2.553,2.112c0.044,0.044,0.065,0.11,0.065,0.132c0,0.066-0.088,0.132-0.242,0.132H446.05
		c-1.32,0-1.716,0.022-2.729,0.154L443.168,9.923z"/>
	<path fill="#4A1F00" d="M477.467,13.246c0,1.32,0,1.32,0.021,2.465h2.311c0.44-0.572,0.595-0.748,1.078-1.276
		c0.704,0.595,0.925,0.792,1.606,1.474c0.066,0.089,0.088,0.154,0.088,0.199c0,0.065-0.065,0.109-0.176,0.109h-4.907
		c0.044,2.904,0.044,2.904,0.089,4.049c-0.022,0.264-0.198,0.309-0.969,0.309c-0.396,0-0.484-0.022-0.506-0.199
		c0.044-0.726,0.066-2.111,0.088-4.158h-2.729c-0.902,0-1.54,0.044-1.98,0.133l-0.088-0.814c0.551,0.132,1.166,0.176,2.068,0.176
		h2.729c0.022-0.616,0.022-1.43,0.022-2.465h-2.091v0.881c0,0.22-0.198,0.285-0.946,0.285c-0.286,0-0.374-0.043-0.396-0.176
		c0.088-2.486,0.088-2.86,0.088-3.85c0-1.606-0.044-4.511-0.088-5.281c0.748,0.374,0.968,0.506,1.65,0.924h1.804V3.851h-2.772
		c-0.924,0-1.21,0.044-1.672,0.198l-0.132-0.88c0.483,0.11,1.078,0.176,1.804,0.176h2.772c0-1.782,0-1.893-0.088-2.927
		c0.462,0.088,0.836,0.132,1.056,0.154c1.013,0.132,1.211,0.198,1.211,0.418s-0.265,0.352-0.925,0.462
		c0,0.968-0.021,1.232-0.021,1.893h1.76c0.484-0.572,0.639-0.748,1.145-1.276c0.66,0.638,0.858,0.836,1.496,1.496
		c0.066,0.066,0.11,0.154,0.11,0.176c0,0.066-0.066,0.11-0.11,0.11h-4.4v2.178h2.068c0.22-0.286,0.462-0.55,0.704-0.836
		c0.506,0.352,0.66,0.462,1.122,0.836c0.154,0.132,0.22,0.22,0.22,0.286c0,0.132-0.154,0.286-0.66,0.594v2.948
		c0,1.144,0,1.144,0.088,4.005c0,0.131-0.021,0.176-0.109,0.197c-0.11,0.044-0.595,0.109-0.814,0.109
		c-0.308,0-0.462-0.088-0.462-0.241c0-0.022,0-0.044,0-0.065v-0.617H477.467z M476.234,9.263c0-0.418,0-0.418,0-2.728h-2.112v2.728
		H476.234z M476.213,9.77h-2.091v2.97h2.091V9.77z M479.623,6.535h-2.179v2.728h2.179V6.535z M479.623,9.77h-2.179l0.022,2.97h2.156
		V9.77z M486.796,9.065h2.112c0.639-0.66,0.836-0.858,1.475-1.474c0.77,0.726,1.012,0.946,1.76,1.672
		c0.088,0.088,0.11,0.154,0.11,0.22c0,0.044-0.044,0.088-0.132,0.088h-5.325v5.325c0,0.375,0.066,3.543,0.11,5.259
		c-0.022,0.308-0.176,0.374-1.057,0.396c-0.044,0-0.088,0-0.132,0c-0.021,0-0.066,0-0.066,0c-0.285,0-0.396-0.089-0.396-0.286
		c0.021-0.946,0.021-0.946,0.044-2.619c0.044-1.451,0.044-1.518,0.044-2.75V9.571H483.1c-0.639,0-1.254,0.066-1.628,0.176
		l-0.154-0.836c0.462,0.11,1.034,0.154,1.782,0.154h2.244V2.729h-1.914c-0.836,0-1.166,0.022-1.563,0.132l-0.11-0.792
		c0.419,0.11,0.881,0.154,1.673,0.154h5.061c0.55-0.638,0.727-0.836,1.298-1.452c0.837,0.726,1.078,0.946,1.871,1.716
		c0.044,0.044,0.065,0.11,0.065,0.132c0,0.066-0.088,0.11-0.198,0.11h-4.73V9.065z"/>
	<path fill="#4A1F00" d="M503.338,10.694c-1.034,1.298-1.893,2.156-3.278,3.3l-0.242-0.242c1.431-1.562,2.267-2.75,3.521-5.104
		c0.968-1.826,1.386-2.772,1.65-3.829c0.813,0.22,1.804,0.528,2.068,0.638c0.088,0.044,0.264,0.198,0.264,0.242c0,0,0,0-0.065,0.132
		c-0.045,0.088-0.221,0.154-0.484,0.198c-0.11,0.022-0.286,0.044-0.506,0.088c-1.034,1.87-1.585,2.772-2.333,3.784
		c0.528,0.088,0.528,0.088,0.66,0.11c0.969,0.154,1.145,0.22,1.145,0.44c0,0.088-0.066,0.176-0.132,0.22
		c-0.066,0.022-0.198,0.066-0.396,0.132c-0.065,0.022-0.198,0.088-0.352,0.154v5.171c0.021,1.057,0.044,1.914,0.044,2.596
		c0,0.463,0.021,0.925,0.021,1.408c0,0.221-0.065,0.309-0.242,0.375c-0.153,0.044-0.682,0.109-0.99,0.109
		c-0.308,0-0.439-0.088-0.439-0.285c0-0.022,0-0.045,0-0.088c0.044-1.035,0.088-3.764,0.088-4.666V10.694z M509.345,3.125v-1.54
		c0-0.528,0-0.748-0.044-1.342c2.376,0.22,2.685,0.286,2.685,0.55c0,0.22-0.088,0.264-1.057,0.594v1.738h6.359
		c0.396-0.506,0.528-0.66,0.968-1.188c0.836,0.528,1.101,0.726,1.893,1.342c0.198,0.176,0.264,0.242,0.264,0.33
		c0,0.088-0.065,0.176-0.153,0.22c-0.198,0.088-0.221,0.11-1.343,0.264c-0.242,0.22-0.418,0.396-0.528,0.528
		c-0.616,0.616-0.682,0.704-0.924,0.88c0.616,0.44,1.166,0.814,1.65,1.144c0.088,0.088,0.132,0.132,0.132,0.198
		c0,0.044-0.066,0.088-0.132,0.088h-5.017c-0.176,0.264-0.176,0.264-0.462,0.704c-0.616,0.968-0.969,1.474-1.694,2.442h4.269
		l0.813-0.99c0.616,0.396,0.814,0.506,1.387,0.99c0.176,0.132,0.242,0.22,0.242,0.308c0,0.11-0.132,0.22-0.792,0.638
		c0,0.748,0,1.188,0,1.694c0,2.354,0.044,6.117,0.088,7.217c-0.022,0.352-0.242,0.439-1.188,0.439c-0.308,0-0.418-0.088-0.418-0.352
		v-0.792h-6.689v0.88c-0.021,0.309-0.22,0.418-0.857,0.44c-0.11,0-0.198,0-0.242,0c-0.022,0-0.044,0-0.044,0
		c-0.309,0-0.44-0.11-0.44-0.33c0.066-4.532,0.088-5.919,0.088-7.394s0-1.826-0.088-3.74c0.528,0.33,1.057,0.66,1.606,0.99h1.694
		c0.506-1.628,0.638-2.134,0.77-3.146h-3.344c-0.418,0-0.748,0.022-1.452,0.132l-0.198-0.836c0.638,0.11,1.32,0.198,1.76,0.198h7.02
		c0.374-0.616,0.506-0.792,0.946-1.342l0.264,0.176c0.242-0.968,0.242-1.012,0.33-1.628h-14.522
		c-0.109,0.946-0.264,1.584-0.506,2.267c-0.308,0.792-0.968,1.496-1.452,1.496c-0.352,0-0.682-0.704-0.682-1.452
		c0-0.286,0.153-0.506,0.571-0.77c0.484-0.33,0.837-0.704,1.145-1.232c0.353-0.594,0.484-1.144,0.594-2.354h0.419
		c0.021,0.396,0.021,0.462,0.021,0.77c0,0.264,0,0.44-0.044,0.77H509.345z M516.342,10.583h-6.689v3.498h6.689V10.583z
		 M509.652,14.588v4.136h6.689v-4.136H509.652z"/>
</g>
</svg>
