<svg xmlns="http://www.w3.org/2000/svg" width="50" height="135" viewBox="0 0 50 135"><defs><style>.cls-1{fill:#755a3b;}.cls-2{fill:#fff;}.cls-3{fill:none;stroke:#fff;stroke-miterlimit:10;stroke-width:0.8px;}</style></defs><g id="レイヤー_2" data-name="レイヤー 2"><g id="追従ナビ"><rect class="cls-1" width="50" height="135"/><path class="cls-2" d="M24.44,52.58c0,.13-.13.24-.47.26s-.29,0-.48.32c-.35.48-.69.92-1,1.34.5.11.69.16.69.3s-.08.18-.27.26-.29.14-.32.61c-.08,1.36-.1,5-.12,6.4a.58.58,0,0,1-.62.55.4.4,0,0,1-.45-.4v0c.13-1.5.26-4.94.27-6.11v-.64a8.18,8.18,0,0,1-3.23,2.42s0,0,0,0,.09-.11.25-.24a14.14,14.14,0,0,0,4.31-5.84c0-.07,0-.11.05-.11S24.44,52.21,24.44,52.58Zm8.14-1.22c0,.18-.17.34-.62.36a5.35,5.35,0,0,0-2.13.65l-.13,0h0a.2.2,0,0,1,.06-.11,6.63,6.63,0,0,0,.79-1.16.1.1,0,0,0-.1-.08H21.54c-.21,1.52-1.11,2.07-1.62,2.07a.54.54,0,0,1-.59-.51,1,1,0,0,1,.42-.71,3.32,3.32,0,0,0,1.48-2.3c0-.12.07-.18.1-.18s.24.78.24,1.23h3.92v-.16a13,13,0,0,0-.17-2.14.26.26,0,0,1,0-.11s0,0,0,0c.32,0,1.88.26,1.88.61,0,.13-.11.24-.3.35s-.34.19-.38.67l-.05.8h4a.44.44,0,0,0,.24-.13c0-.06.34-.38.53-.38l.07,0C31.69,50.29,32.58,50.93,32.58,51.36Zm.11,2c0,.09-.08.19-.33.19h-4c.32.09.54.21.54.33s-.11.18-.4.24a.4.4,0,0,0-.3.26c-.21.35-.45.75-.67,1.07h2a.29.29,0,0,0,.23-.13s.29-.44.48-.44,1.23.59,1.23.91-.19.29-.35.38-.31.23-.31,1.43c0,1,0,2.43.12,4.16v0a.61.61,0,0,1-.6.56.41.41,0,0,1-.44-.46v0c0-.27,0-.54,0-.81H26.05c0,.27,0,.56,0,.83a.59.59,0,0,1-.61.54A.41.41,0,0,1,25,62v0c.11-1.6.14-2.89.14-3.93,0-.38,0-.75,0-1.07A14.15,14.15,0,0,0,25,55s0-.06,0-.08,0-.06,0-.06a6.67,6.67,0,0,1,1.44.66h.68a10.15,10.15,0,0,0,.18-1.89c-.75,0-1.65,0-2.51.13h0c-.25,0-.66-.59-.66-.77a40.67,40.67,0,0,0,4.21.23h2.05a.31.31,0,0,0,.21-.13c.18-.29.59-.88.77-.88a.2.2,0,0,1,.1,0C31.94,52.39,32.69,53.14,32.69,53.4Zm-2.76,2.72a.22.22,0,0,0-.24-.2H26.42l-.08.07c-.24.18-.24.08-.27.62,0,.36,0,.8,0,1.33H30C30,57.16,30,56.52,29.93,56.12ZM26,58.36c0,.69,0,1.49,0,2.32h3.89c0-.83,0-1.62,0-2.32Z"/><path class="cls-2" d="M21.36,71.14a.61.61,0,0,1-.56.64.74.74,0,0,1-.56-.34,5.09,5.09,0,0,0-1.36-1.12c-.13-.08-.19-.11-.19-.14s.64-.08.67-.08C20.24,70.1,21.36,70.34,21.36,71.14Zm.26,5.75a4.5,4.5,0,0,0,.22,1.42A1.94,1.94,0,0,1,22,79c0,.6-.34.95-.66.95s-.64-.34-.64-1.1v-.2c0-.45.15-.93.15-1.37,0-.66-.24-1.24-1.3-1.51-.27-.06-.38-.13-.38-.17s.14-.1.38-.1c.64,0,1.11,0,1.36-.72,1.25-3.38,3.31-7.91,3.57-7.91,0,0,0,0,0,.07a1.3,1.3,0,0,1-.08.32C22.26,73.27,21.62,75.27,21.62,76.89Zm1.31-9.1a.63.63,0,0,1-.59.66c-.21,0-.43-.13-.63-.46a5,5,0,0,0-1.23-1.32c-.13-.09-.19-.14-.19-.17s.08,0,.26,0C21.49,66.47,22.93,66.9,22.93,67.79Zm9.67,1.7c0,.18-.21.29-.37.39-.34.19-.34.2-.34,1.69,0,2,.05,5.91.13,7.73v0a.63.63,0,0,1-.64.58.45.45,0,0,1-.48-.47h0c0-.26,0-.56,0-.9H25.73c0,.35,0,.67,0,.93a.61.61,0,0,1-.66.54.42.42,0,0,1-.46-.45v0c.11-1.61.14-4.93.14-7.1,0-.8,0-1.44,0-1.76a14,14,0,0,0-.18-2,.24.24,0,0,1,0-.1s0,0,0,0a7.94,7.94,0,0,1,1.53.66H27a12,12,0,0,0,.74-3,.75.75,0,0,0,0-.22.53.53,0,0,1,0-.12s0-.06,0-.06,1.78.53,1.78.78-.13.23-.45.28a.38.38,0,0,0-.35.27,16.74,16.74,0,0,1-1.38,2.09h3.16a.33.33,0,0,0,.25-.12c.28-.44.48-.45.52-.45S32.6,69.07,32.6,69.49Zm-1.7.29s0-.19-.24-.19H26.12l-.08.06c-.26.18-.26.08-.29.63s0,1.66,0,3.1H31C31,71.67,30.93,70.21,30.9,69.78Zm-5.18,4c0,1.44,0,3,0,4.3h5.19c0-1.26,0-2.85,0-4.3Z"/><path class="cls-2" d="M32.76,90.07c0,.21-.19.33-.5.35a1.89,1.89,0,0,0-1.07.32,20.35,20.35,0,0,1-3.06,1.49c-.06,0-.08,0-.08,0a.11.11,0,0,1,.07-.09,13,13,0,0,0,2.33-2.23s0-.08-.16-.08H26.88c.1,0,.15.11.15.16s-.13.21-.31.26-.17.2-.19.68,0,1.64,0,2.57v1c0,.31.06,1.09.06,1.43a1.92,1.92,0,0,1-2.06,1.86c-.13,0-.21-.07-.31-.21-.26-.39-1.9-1.11-1.9-1.25s0,0,.08,0a.66.66,0,0,1,.17,0,12.21,12.21,0,0,0,2,.27c.66,0,1-.22,1-.86,0-.29,0-.88,0-1.54,0-.85,0-3.86-.13-4.37H24.19c-1.37,0-2.59,0-4.27.13h0c-.3,0-.75-.56-.75-.8,2.16.22,4.37.24,5.07.24h6.1a.58.58,0,0,0,.4-.16c.14-.11.34-.35.45-.42a.31.31,0,0,1,.17-.06C31.67,88.71,32.76,89.72,32.76,90.07Zm-2.11-4.66c0,.21-.21.37-.47.42a2.6,2.6,0,0,0-1,.35c-.62.41-1.65,1.1-2.4,1.57a1.07,1.07,0,0,1,.43.8.58.58,0,0,1-.51.62.79.79,0,0,1-.61-.4,9,9,0,0,0-2.48-2c-.09-.07-.14-.1-.14-.13s0,0,.08,0a7.72,7.72,0,0,1,3,.91,14.18,14.18,0,0,0,1.82-2.13s0-.1-.16-.1h-2c-1.38,0-2.85,0-4.53.13h0c-.3,0-.75-.56-.75-.8,2.16.23,4.63.24,5.33.24H28.2a.51.51,0,0,0,.38-.16c.47-.4.56-.46.64-.46C29.51,84.26,30.65,85,30.65,85.41Z"/><path class="cls-2" d="M21.39,110.55c0,.11-.11.21-.38.27s-.27.15-.35.37c-.87,2.27-1.86,3.5-2,3.5s0,0,0,0a.42.42,0,0,1,.06-.21A12.88,12.88,0,0,0,19.78,110c0-.16,0-.16,0-.16C20,109.81,21.39,110.23,21.39,110.55Zm3.75-2.1a.62.62,0,0,1-.54.67c-.25,0-.47-.19-.55-.65a4.48,4.48,0,0,0-.11-.5c-.29.1-.69.21-1.12.32.09,0,.16.1.16.16s-.07.15-.19.21-.23.14-.23,1.55,0,3.27.07,4.6v0a.61.61,0,0,1-.63.56c-.21,0-.4-.13-.4-.46v-.07c.11-1.71.16-3.44.16-5.15,0-.4,0-.84,0-1.17l-1.63.38c-.16,0-.27.19-.39.19s-.75-1.05-.75-1.21,0,0,0,0h.11a9.52,9.52,0,0,0,1.14.07h.43c.36-.5,2.36-3.38,2.58-4.84,0-.13,0-.16.06-.16s1.45.63,1.45.87-.13.22-.45.25a.53.53,0,0,0-.37.24,40.45,40.45,0,0,1-2.9,3.6c.93,0,2.07-.12,2.8-.22a6.26,6.26,0,0,0-.53-1,.48.48,0,0,1-.09-.19s0,0,0,0C23.56,106.5,25.14,107.52,25.14,108.45ZM23,101.79c0,.1-.13.21-.43.26a.39.39,0,0,0-.35.26,23.94,23.94,0,0,1-1.47,2.19c.75.35.88.7.88,1a.56.56,0,0,1-.5.6.7.7,0,0,1-.58-.45,4.14,4.14,0,0,0-1.2-1.35c-.11-.08-.14-.14-.14-.17s0,0,.08,0a3.6,3.6,0,0,1,1.18.28,9.24,9.24,0,0,0,.93-3.12V101c0-.06,0-.08,0-.08S23,101.49,23,101.79Zm2.1,10.49a.63.63,0,0,1-.53.69c-.21,0-.43-.18-.53-.6a7.82,7.82,0,0,0-.88-2.16c-.06-.11-.11-.17-.11-.21h0C23.28,110,25.14,111.16,25.14,112.28Zm7.75-7.48c0,.15-.12.31-.37.43s-.37.21-.37.66v1a28.79,28.79,0,0,1-.21,4.18c-.41,2.8-1.92,4-3.52,4.1a.27.27,0,0,1-.26-.13c-.14-.35-2.08-1.25-2.08-1.36l0,0,.14,0a8.91,8.91,0,0,0,2,.3c1.31,0,2.29-.66,2.72-3a41.55,41.55,0,0,0,.22-5.88c0-.22-.12-.25-.24-.25H26.87c-1.07,2-1.91,2.75-2.05,2.75s0,0,0,0a1.52,1.52,0,0,1,.2-.37c.48-.75,2-4.23,2-5.75,0-.16,0-.17.05-.17s1.6.46,1.6.76c0,.13-.13.28-.41.34s-.24.11-.32.3c-.21.45-.5,1.08-.85,1.73h3.81a.27.27,0,0,0,.27-.13c.24-.32.4-.43.45-.43S32.89,104.43,32.89,104.8Zm-3.8,4.48a.51.51,0,0,1-.51.56,1,1,0,0,1-.72-.43,10.31,10.31,0,0,0-1.86-1.6,2,2,0,0,1-.24-.17s0,0,0,0C26.28,107.62,29.09,108,29.09,109.28Z"/><circle class="cls-3" cx="26" cy="26.27" r="10"/><polygon class="cls-2" points="23.9 22.25 26.51 26.27 23.9 30.3 28.4 26.27 28.4 26.27 28.4 26.27 23.9 22.25"/></g></g></svg>