<?xml version="1.0" encoding="utf-8"?>
<!-- Generator: Adobe Illustrator 25.0.0, SVG Export Plug-In . SVG Version: 6.00 Build 0)  -->
<svg version="1.1" id="レイヤー_1" xmlns="http://www.w3.org/2000/svg" xmlns:xlink="http://www.w3.org/1999/xlink" x="0px"
	 y="0px" width="16px" height="16px" viewBox="0 0 16 16" style="enable-background:new 0 0 16 16;" xml:space="preserve">
<style type="text/css">
	.st0{fill:#FFFFFF;}
</style>
<g>
	<path class="st0" d="M15.2,12.1l-1.5-1.2c-0.8-0.6-1.8-0.6-2.6,0.1c-0.3,0.3-0.6,0.5-0.7,0.7c0,0,0,0,0,0c0,0,0,0,0,0
		c-0.1,0-0.1,0-0.2,0l0,0c-0.8-0.1-3-2.1-3.4-2.6c-0.6-0.5-3-3.3-2.5-3.7C4.5,5.4,4.7,5.1,5,4.8C5.6,4.1,5.7,3,5.1,2.3L3.9,0.8
		C3.8,0.6,3.7,0.5,3.6,0.5c0,0,0,0,0,0c-0.1,0-0.1-0.1-0.2-0.1c0,0,0,0,0,0C3.2,0.2,3,0.1,2.8,0.1l0,0C2.7,0,2.7,0,2.6,0
		c0,0,0,0,0,0c-0.2,0-0.5,0-0.7,0C1.3,0.2,0.7,0.7,0.5,1.2C0.2,2-0.1,3,0,4c0,0,0,0.1,0,0.1c0,0,0,0,0,0c0.3,1.5,2.6,4.7,4.2,6.6
		c0,0,0,0,0.1,0.1c0,0,0.1,0.1,0.1,0.1l0,0C4.6,11,5,11.4,5.1,11.5l0,0c1.8,1.7,5.3,4.1,6.8,4.4c0,0,0,0,0,0c0,0,0.1,0,0.1,0
		c0.9,0.1,2-0.2,2.7-0.5c0.6-0.2,1-0.7,1.2-1.4C16.1,13.4,15.9,12.6,15.2,12.1z"/>
</g>
</svg>
