<svg xmlns="http://www.w3.org/2000/svg" width="43" height="37" viewBox="0 0 43 37"><defs><style>.cls-1{fill:#493228;}.cls-2{fill:#fff;}</style></defs><g id="レイヤー_2" data-name="レイヤー 2"><g id="ご予約特典"><polyline class="cls-1" points="32.25 37 43 18.5 32.25 0 10.75 0 0 18.5 10.75 37 32.25 37"/><path class="cls-2" d="M18.22,25.7a4.32,4.32,0,0,0,1.58-.24c.53-.24.65-.74.65-2.45V13c-.05-2.08-.05-2.08-.24-2.24s-.48-.22-1.08-.22h-.91V9.84a27.2,27.2,0,0,0,4.55-.62c-.12,1.89-.19,3.91-.19,6.72V23c0,1.59.09,2.07.43,2.35s.38.27,1.75.34v.69H18.22Z"/></g></g></svg>