<svg xmlns="http://www.w3.org/2000/svg" width="50" height="185" viewBox="0 0 50 185"><defs><style>.cls-1{fill:#594333;}.cls-2{fill:#fff;}.cls-3{fill:none;stroke:#fff;stroke-miterlimit:10;stroke-width:0.8px;}</style></defs><g id="レイヤー_2" data-name="レイヤー 2"><g id="追従ナビ"><rect class="cls-1" width="50" height="185"/><path class="cls-2" d="M31.61,58c0,1.68-2,2.82-3.33,2.82a1.5,1.5,0,0,1-1.67-1.59,3.4,3.4,0,0,1,.69-2s.05,0,.05.11a1.9,1.9,0,0,1-.08.43,3.38,3.38,0,0,0-.13.84,1.12,1.12,0,0,0,1.2,1.26,2.32,2.32,0,0,0,2.4-2c0-1.08-1.25-1.32-2-1.32A6.23,6.23,0,0,0,25,58.28c0,.6,0,1.18,0,1.71v.08c0,.85-.33,1.23-.65,1.23a.6.6,0,0,1-.5-.35,2.13,2.13,0,0,0-1.33-.82,3.18,3.18,0,0,1-1.55.58c-.37,0-.54-.18-.54-.42a1.09,1.09,0,0,1,.64-.88.31.31,0,0,1,.12.05c.05,0,.08.08.18.08s.64-.14,3-1.63c0-.37,0-.75,0-1.12,0-.67,0-1.33,0-1.95a4.56,4.56,0,0,1-2,.54c-1.11,0-1.38-.66-1.38-1,0-.06,0-.1.06-.1a1,1,0,0,1,.23.07,4.14,4.14,0,0,0,1.2.17A3.48,3.48,0,0,0,24.31,54c-.12-1.85-.2-2.43-1-2.43-.21,0-.29,0-.29-.13a.64.64,0,0,1,.69-.48c.53,0,1.28.4,1.28,1.07,0,.12,0,.24,0,.4a4.93,4.93,0,0,0,1,.21.45.45,0,0,1,.46.47c0,.57-.67,1-1.55,1.42,0,1,0,2,.05,3a7.58,7.58,0,0,1,4-1.42C30.71,56.1,31.61,56.92,31.61,58Zm-8.79,2a6.74,6.74,0,0,0,1,.11c.41,0,.43-.13.45-.35s0-.68,0-1C23.83,59.17,23.31,59.6,22.82,60ZM25,52.64a4.27,4.27,0,0,0,0,.53v.5a4.33,4.33,0,0,0,.48-.32.36.36,0,0,0,.12-.23C25.56,53,25.41,52.87,25,52.64Zm8,1.09c0,.21-.14.34-.35.43s-.32,0-.9.19a3.33,3.33,0,0,0-.83.37.58.58,0,0,1-.22.1s0,0,0,0a.4.4,0,0,1,.13-.2,1.69,1.69,0,0,0,.49-1c0-.12-.06-.49-.8-.49a2,2,0,0,0-1.12.38.73.73,0,0,1-.35.16s-.05,0-.05,0a2.55,2.55,0,0,1,2.15-1.15C32,52.5,33,53.07,33,53.73Z"/><path class="cls-2" d="M32.66,70.34c0,.22-.19.4-.53.4a1.35,1.35,0,0,1-.41-.07,11.61,11.61,0,0,0-3.28-.43c-.39,0-.79,0-1.17.05,0,.51-.05,1-.05,1.38,0,.62,0,1.13.05,1.52a2.36,2.36,0,0,1,.59,1.68c0,3.13-3.51,5.2-4.42,5.2-.06,0-.09,0-.09,0s.13-.16.41-.29a6.45,6.45,0,0,0,3-3.9,1.56,1.56,0,0,1-.82.53h-.21A.93.93,0,0,1,25,76a3.38,3.38,0,0,1-.65-1.91,1.4,1.4,0,0,1,1.45-1.52,2,2,0,0,1,.84.19c0-.62,0-1.42,0-2.37a15.25,15.25,0,0,0-4.08,1.06,2.9,2.9,0,0,1-1.15.26c-.82,0-1.74-.48-1.74-1.27,0-.14.06-.21.16-.21a.57.57,0,0,1,.33.2c.16.16.63.17.91.17a5.09,5.09,0,0,0,.87-.06c1.62-.24,3.14-.48,4.7-.67,0-.5,0-1,0-1.57a1.1,1.1,0,0,0-.63-1.16c-.09-.06-.12-.09-.12-.16s.17-.33.64-.33a1.09,1.09,0,0,1,1.15,1.2,3.05,3.05,0,0,1-.07.56c-.09.48-.16.93-.2,1.36.64-.06,1.31-.11,2-.14.16,0,.24,0,.24-.1s0,0-.07-.07a10.16,10.16,0,0,1-1.31-1s0,0,0,0a1.53,1.53,0,0,1,.45.14,8.72,8.72,0,0,0,2.16.77C32.29,69.54,32.66,70,32.66,70.34Zm-7.12,2.59a.76.76,0,0,0-.75.86c0,.25.17,1.56,1.13,1.56.64,0,.76-.71.76-1.17a2.61,2.61,0,0,0-.05-.48A1.22,1.22,0,0,0,25.54,72.93Z"/><path class="cls-2" d="M32.66,87.94c0,.22-.19.4-.53.4a1.35,1.35,0,0,1-.41-.07,11.61,11.61,0,0,0-3.28-.43c-.39,0-.79,0-1.17,0,0,.51-.05,1-.05,1.38,0,.62,0,1.13.05,1.52a2.36,2.36,0,0,1,.59,1.68c0,3.14-3.51,5.2-4.42,5.2-.06,0-.09,0-.09,0s.13-.16.41-.29a6.42,6.42,0,0,0,3-3.9,1.56,1.56,0,0,1-.82.53h-.21a.93.93,0,0,1-.77-.41,3.38,3.38,0,0,1-.65-1.91,1.4,1.4,0,0,1,1.45-1.52,2.13,2.13,0,0,1,.84.19c0-.62,0-1.42,0-2.37A15.25,15.25,0,0,0,22.48,89a2.9,2.9,0,0,1-1.15.26c-.82,0-1.74-.48-1.74-1.27,0-.14.06-.21.16-.21a.57.57,0,0,1,.33.2c.16.16.63.17.91.17a5.09,5.09,0,0,0,.87-.06c1.62-.24,3.14-.48,4.7-.67,0-.5,0-1,0-1.57a1.09,1.09,0,0,0-.63-1.15c-.09-.07-.12-.1-.12-.17s.17-.33.64-.33a1.09,1.09,0,0,1,1.15,1.2,3,3,0,0,1-.07.56c-.09.48-.16.93-.2,1.36.64-.06,1.31-.11,2-.14.16,0,.24,0,.24-.1s0,0-.07-.06a11,11,0,0,1-1.31-1s0,0,0,0a1.53,1.53,0,0,1,.45.14,8.72,8.72,0,0,0,2.16.77C32.29,87.14,32.66,87.63,32.66,87.94Zm-7.12,2.59a.77.77,0,0,0-.75.87c0,.24.17,1.55,1.13,1.55.64,0,.76-.71.76-1.17a2.61,2.61,0,0,0-.05-.48A1.22,1.22,0,0,0,25.54,90.53Z"/><path class="cls-2" d="M24.87,114.5c-.18,0-.27,0-.27-.06s.2-.18.67-.29c1.63-.42,5.31-2,5.31-5.07a3.34,3.34,0,0,0-2.85-3.33,14.63,14.63,0,0,1-1.66,3.66c.64.19.86.47.86.67a.46.46,0,0,1-.51.39,2.48,2.48,0,0,1-.91-.24c-.21.3-1.72,2.35-3,2.35-.66,0-1.32-.7-1.32-1.87a5.54,5.54,0,0,1,1.68-3.56c-.16-.36-.3-.72-.43-1.07-.24-.65-.51-1.39-.7-1.84a.75.75,0,0,1-.1-.32.12.12,0,0,1,.11-.13,1.8,1.8,0,0,1,1.11,1c.21.46.41,1.1.69,1.78a6.41,6.41,0,0,1,3.49-1.4c0-.19,0-.36,0-.54a1.78,1.78,0,0,0-.39-1.31c-.12-.13-.48-.13-.48-.24s.12-.34.61-.34S28,103,28,104.3a6.73,6.73,0,0,1-.08.85,4.13,4.13,0,0,1,3.76,4C31.64,113,26.61,114.5,24.87,114.5ZM23,107.6a4.27,4.27,0,0,0-1.21,2.66c0,.83.4,1.41.88,1.41A3.72,3.72,0,0,0,25,110,5.64,5.64,0,0,1,23,107.6Zm.64-.64a4.42,4.42,0,0,0,1.81,2.26,11.08,11.08,0,0,0,1.43-3.52A5.45,5.45,0,0,0,23.68,107Z"/><path class="cls-2" d="M30.92,122.77c0,.14-.11.3-.35.46a2,2,0,0,0-.71.76c-2.08,3.69-4.62,6.56-8.34,7.68a1.61,1.61,0,0,1-.41.08c-.07,0-.1,0-.1,0s.16-.18.43-.31c4.44-2,7.51-7.94,7.51-8.27s-.18-.39-.47-.39a19.44,19.44,0,0,0-3.56.82,5.59,5.59,0,0,1-1.44.38c-.66,0-2.1-.78-2.1-1.28,0-.25.13-.35.27-.35a.36.36,0,0,1,.29.16c.14.23.69.32,1.36.32.35,0,.72,0,1.09-.06.65-.08,3-.44,3.69-.53.42-.06.6-.43,1-.43C29.56,121.78,30.92,122.34,30.92,122.77Zm.35-.86a1.44,1.44,0,1,1,0-2.87,1.44,1.44,0,1,1,0,2.87Zm0-2.41a1,1,0,0,0-1,1,1,1,0,0,0,1,1,1,1,0,0,0,1-1A1,1,0,0,0,31.29,119.5Z"/><path class="cls-2" d="M31,141.59c0,.12-.12.25-.34.4a1.46,1.46,0,0,0-.69.64c-2.32,4.14-5.09,6.1-8.15,7a1.54,1.54,0,0,1-.41.08c-.07,0-.08,0-.08,0s.14-.16.41-.27c4.41-1.89,7.32-7.17,7.32-7.51,0-.19-.18-.32-.45-.32a17,17,0,0,0-3.49.71,5.05,5.05,0,0,1-1.39.37c-.87,0-2.05-.8-2.05-1.14s.13-.34.27-.34a.32.32,0,0,1,.27.15c.12.19.63.25,1.22.25a9.36,9.36,0,0,0,1.17-.06c.66-.06,2.82-.37,3.6-.43.42,0,.59-.4.93-.4S31,141.14,31,141.59Zm-1.57-3c0,.22-.24.43-.67.46a36.27,36.27,0,0,0-3.77.53,2.61,2.61,0,0,1-.48,0c-.86,0-1.47-.44-1.47-.92,0,0,0-.29.14-.29s.15.07.23.13a2,2,0,0,0,1.18.29,9.7,9.7,0,0,0,2.26-.34c.61-.12.78-.51,1.44-.51C28.4,138,29.4,138.13,29.4,138.63Z"/><path class="cls-2" d="M24.35,160.23a.9.9,0,0,1-.6-.29,7.38,7.38,0,0,0-2.69-1.55c-.15,0-.21-.1-.21-.13a2.5,2.5,0,0,1,1.07-.13c2.13,0,3,.74,3,1.42C24.93,159.73,24.87,160.23,24.35,160.23Zm.26,5.5c-.43.27-.51.71-1,.71s-1.9-.74-1.9-1.51c0-.05,0-.49.17-.49s.13.08.24.2A1,1,0,0,0,23,165c2,0,7.57-5.29,9.34-7.35.2-.23.29-.3.32-.3h0C32.63,157.68,30.17,162.16,24.61,165.73Z"/><circle class="cls-3" cx="26" cy="26.27" r="10"/><polygon class="cls-2" points="23.9 22.25 26.51 26.27 23.9 30.3 28.4 26.27 28.4 26.27 28.4 26.27 23.9 22.25"/></g></g></svg>