<?xml version="1.0" encoding="utf-8"?>
<!-- Generator: Adobe Illustrator 25.0.0, SVG Export Plug-In . SVG Version: 6.00 Build 0)  -->
<svg version="1.1" id="レイヤー_1" xmlns="http://www.w3.org/2000/svg" xmlns:xlink="http://www.w3.org/1999/xlink" x="0px"
	 y="0px" width="35.5px" height="35.5px" viewBox="0 0 35.5 35.5" style="enable-background:new 0 0 35.5 35.5;"
	 xml:space="preserve">
<style type="text/css">
	.st0{fill:none;stroke:#FFFFFF;stroke-width:1.5;stroke-miterlimit:10;}
</style>
<g>
	<path class="st0" d="M33.2,25.2l-3-2.4c-1.5-1.2-3.7-1.1-5.2,0.2c-0.6,0.5-1.1,1.1-1.4,1.4c0,0-0.1,0.1-0.1,0.1c0,0,0,0,0,0
		c-1.1,0.7-6.3-4.1-7.4-5.1c-1.1-1.1-6.1-6.7-5-7.5c0.4-0.3,0.9-0.8,1.4-1.4c1.3-1.4,1.4-3.6,0.2-5.2l-2.4-3C10.1,2,9.9,1.8,9.7,1.7
		c0,0,0,0,0,0C9.5,1.5,9.4,1.5,9.3,1.4c0,0,0,0,0,0C8.8,1,8.2,0.8,7.6,0.8c0,0,0,0,0,0c-0.5-0.1-1,0-1.4,0.1
		C4.9,1.2,0.7,4.1,0.8,6.2c0,0.6,0.4,1.8,1.1,3.2c1.4,3.3,3.2,6.3,5.3,9.2c2.8,3.8,6.1,7.1,9.8,9.8c2.8,2.1,5.9,3.9,9.1,5.3
		c1.4,0.6,2.6,1,3.2,1.1c2.1,0.1,5-4.2,5.4-5.4C35,27.8,34.5,26.2,33.2,25.2z"/>
</g>
</svg>
