<svg xmlns="http://www.w3.org/2000/svg" width="43" height="37" viewBox="0 0 43 37"><defs><style>.cls-1{fill:#493228;}.cls-2{fill:#fff;}</style></defs><g id="レイヤー_2" data-name="レイヤー 2"><g id="ご予約特典"><polyline class="cls-1" points="32.25 37 43 18.5 32.25 0 10.75 0 0 18.5 10.75 37 32.25 37"/><path class="cls-2" d="M15.65,26.39a9.8,9.8,0,0,1,1.78-4.64c.93-1.34,1.94-2.29,5-4.77a7.33,7.33,0,0,0,1.83-1.85,3.91,3.91,0,0,0,.52-2,3.14,3.14,0,0,0-3.26-3.36,2.79,2.79,0,0,0-2.85,1.86,6.55,6.55,0,0,0-.24,1.74c0,.81-.31,1-1.15,1s-1.22-.29-1.22-1c0-2.45,2.4-4.28,5.61-4.28a5.78,5.78,0,0,1,4.6,1.78A3.84,3.84,0,0,1,27,13.44c0,2-.89,3.19-3.55,4.81a22.4,22.4,0,0,0-4.7,3.33,6.76,6.76,0,0,0-2,3h6.92c1.73,0,2.33-.52,2.81-2.52l.71.17-.64,4.14Z"/></g></g></svg>