<?xml version="1.0" encoding="utf-8"?>
<!-- Generator: Adobe Illustrator 25.0.0, SVG Export Plug-In . SVG Version: 6.00 Build 0)  -->
<svg version="1.1" id="レイヤー_1" xmlns="http://www.w3.org/2000/svg" xmlns:xlink="http://www.w3.org/1999/xlink" x="0px"
	 y="0px" width="63px" height="37px" viewBox="0 0 63 37" style="enable-background:new 0 0 63 37;" xml:space="preserve">
<style type="text/css">
	.st0{fill:#FFFFFF;}
	.st1{fill:none;stroke:#FFFFFF;stroke-width:1.1;stroke-miterlimit:10;}
</style>
<g>
	<g>
		<path id="XMLID_2434_" class="st0" d="M57.1,25.5c0-3.4,0-6.9,0-10.3c0-0.6-0.1-0.8-0.7-1c-2.4-0.5-4.1-2.7-4.1-5.2
			c0-2.7,0-5.3,0-8c0-0.2,0-0.4,0.1-0.5c0.1-0.2,0.4-0.3,0.6-0.3c0.2,0.1,0.4,0.4,0.4,0.6c0,1.4,0,2.8,0.1,4.1c0,1.5,0,3.1,0.1,4.6
			c0.1,2.1,2,3.7,4.3,3.6c2.1,0,4-1.7,4.1-3.7c0.1-2.6,0.1-5.2,0.1-7.8c0-0.3-0.1-0.6,0-0.8C62,0.9,62,0.8,62,0.7
			c0.2-0.4,0.7-0.3,0.9,0.1c0,0,0,0.1,0,0.1c0.1,1.5,0,3,0.1,4.5c0,1.1,0,2.1,0,3.2c0,3-1.5,4.9-4.4,5.7c-0.6,0.1-0.5,0.5-0.5,0.9
			c0,4.7,0,9.4,0,14.1c0,2.3,0,4.6,0,6.8c0,0.4,0.1,0.8-0.5,0.9c-0.6,0-0.6-0.5-0.6-0.9C57.1,32.4,57.1,28.9,57.1,25.5z"/>
		<path id="XMLID_2433_" class="st0" d="M57.5,30.5L57.5,30.5c0.8,0,1.4,0.6,1.4,1.4v3.6c0,0.8-0.6,1.4-1.4,1.4l0,0
			c-0.8,0-1.4-0.6-1.4-1.4v-3.6C56.2,31.1,56.8,30.5,57.5,30.5z"/>
		<path id="XMLID_2431_" class="st0" d="M57.6,0.4L57.6,0.4c-0.3,0-0.5,0.2-0.5,0.5c0,3.8,0,7.5,0,11.3c0,0.3,0.2,0.5,0.5,0.5h0
			c0.3,0,0.5-0.2,0.5-0.5c0-1.7,0-3.4,0-5.2c0-2,0-4.1,0-6.1C58.1,0.7,57.9,0.4,57.6,0.4z"/>
	</g>
	<g>
		<path id="XMLID_2435_" class="st0" d="M4.8,14.8c-1.9-0.4-3.1-1.6-3.8-3.2C-0.4,8.7-0.3,5.8,1.2,3C2,1.3,3.3,0.2,5.4,0.2
			c2,0,3.2,1.2,4.1,2.8c1.4,2.5,1.4,5.1,0.5,7.8c-0.1,0.4-0.2,1-0.8,0.7c-0.6-0.2-0.3-0.7-0.2-1.1c0.9-2.7,0.8-5.3-1-7.7
			c-1.5-2.1-4-2-5.5,0.1c-0.4,0.6-0.8,1.4-1,2.1C0.7,7.7,0.9,10.4,3,12.6c0.5,0.5,1.3,0.9,2,1.1c0.7,0.1,0.9,0.4,0.9,1.1
			c0,3.6,0,7.2,0,10.8c0,3.4,0,6.8,0,10.2c0,0.2,0,0.5-0.1,0.7c-0.1,0.2-0.3,0.3-0.5,0.3c-0.1,0-0.4-0.2-0.4-0.4
			c-0.1-0.2,0-0.5,0-0.7c0-6.7,0-13.3,0-20C4.8,15.4,4.8,15.1,4.8,14.8z"/>
		<path id="XMLID_2432_" class="st0" d="M5.3,30.5L5.3,30.5c0.8,0,1.4,0.6,1.4,1.4v3.6c0,0.8-0.6,1.4-1.4,1.4l0,0
			c-0.8,0-1.4-0.6-1.4-1.4v-3.6C3.9,31.1,4.5,30.5,5.3,30.5z"/>
		<g id="XMLID_2427_">
			<path id="XMLID_2428_" class="st0" d="M4.1,10.8c-0.2,0.2-0.5,0.1-0.7-0.1c-0.2-0.4-0.5-0.9-0.7-1.7C2.4,7.9,2.4,6.2,3.4,4.5
				C3.5,4.2,3.8,4.2,4,4.3l0,0C4.2,4.5,4.3,4.7,4.2,5c-1.3,2.3-0.4,4.4,0,5.2C4.3,10.4,4.2,10.6,4.1,10.8L4.1,10.8z"/>
		</g>
		<path class="st1" d="M9.7,10c0,0-0.7,4-4.6,4.3"/>
	</g>
	<g id="XMLID_2419_">
		<g id="XMLID_2424_">
			<path id="XMLID_2425_" class="st0" d="M30.9,26.5c-4.3,0-7.9-3.6-7.9-8c0-4.3,3.3-7.8,7.5-8.1c0.3,0,0.5,0.2,0.5,0.5l0,0
				c0,0.3-0.2,0.5-0.4,0.5c-3.7,0.2-6.6,3.3-6.6,7.1c0,3.9,3.2,7,7,7c3.8,0,6.9-2.9,7.1-6.6c0-0.3,0.2-0.4,0.5-0.4l0,0
				c0.3,0,0.5,0.2,0.5,0.5C38.7,23.2,35.2,26.6,30.9,26.5z"/>
		</g>
		<g id="XMLID_2_">
			<path id="XMLID_3_" class="st0" d="M31,10.5c4.3,0,7.9,3.6,7.9,8c0,4.3-3.3,7.8-7.5,8.1c-0.3,0-0.5-0.2-0.5-0.5l0,0
				c0-0.3,0.2-0.5,0.4-0.5c3.7-0.2,6.6-3.3,6.6-7.1c0-3.9-3.2-7-7-7c-3.8,0-6.9,2.9-7.1,6.6c0,0.3-0.2,0.4-0.5,0.4l0,0
				c-0.3,0-0.5-0.2-0.5-0.5C23.3,13.8,26.8,10.4,31,10.5z"/>
		</g>
		<g id="XMLID_2422_">
			<path id="XMLID_2423_" class="st0" d="M40.3,9.1c-2.4-2.4-5.4-3.7-8.8-3.9c-0.3,0-0.5,0.2-0.5,0.5v0c0,0.3,0.2,0.5,0.5,0.5
				C37.9,6.5,43,11.6,43.2,18c0,0.3,0.2,0.5,0.5,0.5l0,0c0.3,0,0.5-0.2,0.5-0.5C44,14.7,42.7,11.5,40.3,9.1z"/>
		</g>
		<path id="XMLID_2421_" class="st0" d="M30.4,30.8C24.1,30.5,19,25.3,18.8,19c0-0.3-0.2-0.5-0.5-0.5l0,0c-0.3,0-0.5,0.2-0.5,0.5
			c0.1,3.3,1.5,6.5,3.8,8.9c2.3,2.4,5.4,3.7,8.7,3.9c0.3,0,0.5-0.2,0.5-0.5l0,0C30.9,31,30.7,30.8,30.4,30.8z"/>
		<path id="XMLID_2420_" class="st0" d="M47.9,11.3C47,9.1,45.7,7.1,44,5.4c-1.7-1.7-3.7-3-5.8-4C35.9,0.5,33.5,0,31,0
			c-2.5,0-4.9,0.5-7.2,1.5c-2.2,0.9-4.2,2.3-5.8,4c-1.7,1.7-3,3.7-3.9,5.9c-1,2.3-1.4,4.7-1.4,7.2c0,6.6,3.5,12.7,9.1,16
			c0.2,0.1,0.5,0.1,0.7-0.2l0,0c0.1-0.2,0-0.5-0.2-0.6c-5.4-3.1-8.7-8.9-8.7-15.2c0-10.8,9.7-19.3,20.8-17.2
			c6.4,1.2,12.6,7.5,13.8,13.9c2,10.9-6.1,20.5-16.5,20.9c-0.3,0-0.5,0.2-0.5,0.5v0c0,0.3,0.2,0.5,0.5,0.5c2.3-0.1,4.4-0.6,6.5-1.4
			c2.2-0.9,4.2-2.3,5.8-4c1.7-1.7,3-3.7,3.9-5.9c1-2.3,1.4-4.7,1.4-7.2S48.9,13.6,47.9,11.3z"/>
		<path id="XMLID_1_" class="st0" d="M14,25.7c0.9,2.2,2.3,4.2,3.9,5.9c1.7,1.7,3.7,3,5.8,4c2.3,1,4.7,1.5,7.2,1.5
			c2.5,0,4.9-0.5,7.2-1.5c2.2-0.9,4.2-2.3,5.8-4c1.7-1.7,3-3.7,3.9-5.9c1-2.3,1.4-4.7,1.4-7.2c0-6.6-3.5-12.7-9.1-16
			c-0.2-0.1-0.5-0.1-0.7,0.2l0,0c-0.1,0.2,0,0.5,0.2,0.6c5.4,3.1,8.7,8.9,8.7,15.2c0,10.8-9.7,19.3-20.8,17.2
			c-6.4-1.2-12.6-7.5-13.8-13.9C11.8,10.9,19.9,1.3,30.4,1c0.3,0,0.5-0.2,0.5-0.5v0c0-0.3-0.2-0.5-0.5-0.5c-2.3,0.1-4.4,0.6-6.5,1.4
			c-2.2,0.9-4.2,2.3-5.8,4s-3,3.7-3.9,5.9c-1,2.3-1.4,4.7-1.4,7.2S13.1,23.4,14,25.7z"/>
	</g>
</g>
</svg>
