<svg xmlns="http://www.w3.org/2000/svg" width="43" height="37" viewBox="0 0 43 37"><defs><style>.cls-1{fill:#493228;}.cls-2{fill:#fff;}</style></defs><g id="レイヤー_2" data-name="レイヤー 2"><g id="ご予約特典"><polyline class="cls-1" points="32.25 37 43 18.5 32.25 0 10.75 0 0 18.5 10.75 37 32.25 37"/><path class="cls-2" d="M22.2,17.53a6.82,6.82,0,0,1,2.68.67A4,4,0,0,1,27,21.89c0,2.93-2.38,4.88-5.95,4.88-3.11,0-5.44-1.48-5.44-3.45,0-.76.44-1.12,1.37-1.12.7,0,1,.24,1,.9a3,3,0,0,0,.6,2.15,3,3,0,0,0,2.37.88c2.37,0,3.76-1.57,3.76-4.27a3.67,3.67,0,0,0-1.61-3.45,6.41,6.41,0,0,0-2.78-.57H19.32v-.76h1.05A5,5,0,0,0,23,16.37a3.49,3.49,0,0,0,1.36-3,4.49,4.49,0,0,0-.6-2.38,2.64,2.64,0,0,0-2.49-1.19c-1.8,0-2.71.93-2.83,2.83,0,.91-.26,1.15-1.1,1.15s-1.27-.26-1.27-.91c0-2,2.37-3.71,5.22-3.71,3,0,5.28,1.76,5.28,4.17a3.75,3.75,0,0,1-2,3.23,8.14,8.14,0,0,1-2.39.79Z"/></g></g></svg>