<?xml version="1.0" encoding="utf-8"?>
<!-- Generator: Adobe Illustrator 25.0.0, SVG Export Plug-In . SVG Version: 6.00 Build 0)  -->
<svg version="1.1" id="レイヤー_1" xmlns="http://www.w3.org/2000/svg" xmlns:xlink="http://www.w3.org/1999/xlink" x="0px"
	 y="0px" width="90px" height="46.2px" viewBox="0 0 90 46.2" style="enable-background:new 0 0 90 46.2;" xml:space="preserve">
<style type="text/css">
	.st0{fill:#210100;}
	.st1{fill-rule:evenodd;clip-rule:evenodd;fill:#210100;}
</style>
<g>
	<g>
		<g>
			<path class="st0" d="M13.1,2.5c0.1,0,0.3,0.1,0.5,0.1c0.2,0,0.8-0.1,1.1-0.2c0.1-0.1,0.3-0.8,0.4-1c0.1-0.2,0.2-0.5,0.2-0.7
				c0-0.1,0-0.1-0.1-0.2l0-0.1c0.6,0,0.6,0.5,0.6,0.5c0,0.2-0.1,0.3-0.1,0.4c-0.3,0.5-0.4,0.6-0.5,0.9c0.2-0.1,0.3-0.1,0.5-0.2
				C15.7,2,15.9,2,15.9,2c0.2,0,0.5,0.2,0.5,0.4c0,0.2-1.1,0.4-1.5,0.5c-0.3,0.7-0.3,0.8-0.9,1.7c-0.5,0.8-0.5,0.9-0.7,0.9
				c-0.1,0-0.2-0.1-0.2-0.3c0-0.3,0.1-0.4,0.4-0.7c0.2-0.2,0.7-0.9,1-1.5c-0.1,0-0.2,0-0.4,0C13.7,2.9,13.3,2.9,13.1,2.5L13.1,2.5z
				 M17.1,3.7c-0.1,0.2-0.2,0.3-0.2,0.6c0,0.3,0,0.6,0,0.9C16.9,5.4,17,5.9,17,6c0.9,0.2,1.4,0.5,1.4,0.9c0,0.1-0.1,0.3-0.2,0.3
				c-0.1,0-0.1,0-0.4-0.2c-0.4-0.3-0.4-0.3-0.8-0.4c0,0.2-0.1,0.5-0.2,0.7c-0.2,0.2-0.6,0.4-1,0.4c-0.4,0-1.2-0.3-1.2-1
				c0-0.9,0.9-0.9,1.3-0.9c0.4,0,0.5,0,0.7,0.1c-0.1-0.4-0.1-1.2-0.1-1.4C16.4,4,16.6,3.6,17.1,3.7L17.1,3.7z M15.5,6.2
				c-0.1,0-0.6,0-0.6,0.4c0,0.3,0.5,0.5,0.8,0.5c0.7,0,0.7-0.5,0.8-0.8C16.3,6.3,16,6.2,15.5,6.2z M17.6,2.6c0.4,0,0.6,0,0.9,0.2
				c0.4,0.2,0.6,0.5,0.6,0.8c0,0.3-0.2,0.3-0.2,0.3c-0.1,0-0.2-0.1-0.4-0.2c-0.1-0.1-0.5-0.1-0.7-0.1l-0.1,0
				c0.4-0.1,0.4-0.2,0.4-0.3C18.2,3.1,18,2.8,17.6,2.6L17.6,2.6z"/>
			<path class="st0" d="M26.3,3.3c0.1,0.1,0.2,0.1,0.5,0.1c0.1,0,0.7,0,1.3-0.3c0.2-0.5,0.5-1.6,0.6-2l0.1,0
				c0.2,0.1,0.5,0.3,0.5,0.5c0,0.1,0,0.2-0.1,0.3c-0.2,0.3-0.5,0.9-0.5,1c0.4-0.1,0.5-0.1,0.6-0.1c0.9,0,1,0.6,1,0.9
				c0,0.6-0.3,1.8-0.6,2.6c-0.3,0.8-0.6,0.9-0.9,0.9c-0.3,0-0.3-0.2-0.3-0.2c0,0,0-0.2,0-0.2c0-0.1,0-0.2-0.3-0.9l0,0
				c0.3,0.2,0.5,0.4,0.6,0.4c0.4,0,0.9-1.9,0.9-2.7c0-0.2,0-0.5-0.5-0.5c-0.2,0-0.6,0.1-0.8,0.2c-0.3,0.6-0.7,1.4-1,2.1
				c-0.2,0.4-0.4,0.8-0.6,0.8c-0.2,0-0.2-0.3-0.2-0.4c0-0.2,0.1-0.3,0.4-0.7c0.4-0.6,0.5-0.7,0.9-1.6c-0.1,0.1-0.7,0.3-0.8,0.3
				C26.5,3.9,26.3,3.5,26.3,3.3L26.3,3.3z M31,2.6c0.4,0.1,0.8,0.2,1.2,0.4c0.8,0.4,1.1,1,1.1,1.4c0,0.3-0.2,0.4-0.3,0.4
				c-0.1,0-0.2-0.1-0.3-0.2c-0.1-0.1-0.3-0.3-0.7-0.4l0-0.1c0.2,0,0.4-0.1,0.4-0.3C32.3,3.5,31.3,2.9,31,2.6L31,2.6z M31.4,1.3
				C32,1.4,32.7,1.6,32.7,2c0,0.1,0,0.2-0.2,0.2c-0.1,0-0.1,0-0.4-0.3C31.9,1.8,31.6,1.5,31.4,1.3L31.4,1.3z M32.1,0.8
				c0.2,0,0.7,0.1,0.9,0.2c0.2,0.1,0.4,0.3,0.4,0.5c0,0.1-0.1,0.2-0.2,0.2c-0.1,0-0.1,0-0.2,0c-0.1,0-0.4-0.3-0.5-0.4
				C32.5,1.1,32.1,0.9,32.1,0.8L32.1,0.8z"/>
			<path class="st0" d="M44.3,7.1C45.5,6.5,46,5.5,46,4.7c0-1.1-0.9-1.7-2.2-1.6c-0.6,1.4-0.9,1.8-1,2c0.2,0.2,0.2,0.2,0.6,0.4
				c0.1,0.1,0.2,0.2,0.2,0.4c0,0.1-0.1,0.4-0.2,0.4c-0.3,0-0.6-0.4-0.9-0.7c-0.5,0.6-1.3,1.2-1.6,1.2c-0.1,0-0.1,0-0.1-0.1
				c0-0.1-0.1-0.3-0.2-0.3c-0.3-0.3-0.3-0.4-0.3-0.6c0-0.2,0.1-1.2,1.3-2.1c-0.4-1.1-0.5-1.4-0.7-1.7l0-0.1c0.7,0.2,0.9,1,1,1.5
				c0.4-0.3,1-0.5,1.4-0.6c0.1-0.4,0.3-1,0.3-1.2c0-0.1,0-0.4-0.1-0.5l0-0.1c0.4,0.1,0.8,0.4,0.8,0.8c0,0.2-0.2,0.7-0.3,0.9
				c0.1,0,0.2,0,0.3,0c1.3,0,2.3,0.8,2.3,2.2C46.6,6.1,45.7,7,44.3,7.1L44.3,7.1z M40.8,5.4c0,0.4,0.3,0.6,0.4,0.6
				c0.1,0,0.4-0.1,1-0.8c-0.3-0.5-0.4-0.7-0.5-1.2C41.1,4.4,40.8,5.1,40.8,5.4z M43.3,3.2c-0.6,0.1-1.1,0.4-1.2,0.5
				c0.1,0.3,0.2,0.8,0.5,1.1C42.9,4.2,43.2,3.4,43.3,3.2z"/>
			<path class="st0" d="M57.6,7.1c0.5-0.3,1.9-1.1,1.9-2.9c0-1.6-1.1-1.9-2-1.9c-0.4,0-0.7,0.1-0.9,0.2c0.2,0.1,0.5,0.3,0.5,0.7
				c0,0.3-0.6,1.4-0.7,1.7c-0.2,0.4-0.9,1.6-1.4,1.6c-0.2,0-0.3-0.1-0.4-0.3c-0.3-0.6-0.5-0.9-0.5-1.4c0-1.2,1.5-2.8,3.6-2.8
				c1.8,0,2.6,1.1,2.6,2.4C60.2,5,60,6.7,57.6,7.1L57.6,7.1z M55,3.8c-0.1,0.1-0.1,0.1-0.4,0.3c-0.1,0.1-0.2,0.2-0.2,0.4
				c0,0.3,0.5,1,0.7,1c0.5,0,1.5-2.1,1.5-2.7c0-0.1,0-0.3-0.1-0.4C55.8,2.7,55.3,3.4,55,3.8z"/>
			<path class="st0" d="M67.4,3L67.4,3l0.6-0.8l0.4-0.7c0-0.1,0.3-0.5,0.3-0.8c-0.1-0.1-0.1-0.1-0.1-0.2c0.1-0.1,0.1-0.1,0.2-0.1
				c0,0,0.1,0,0.3,0.2c0.1,0,0.3,0.2,0.4,0.2c0,0,0,0.1,0,0.1c0,0.1,0,0.1,0,0.2c0.1,0.1,0.3,0.1,0.4,0.1c0.5,0,0.7,0.3,0.8,0.4
				c0.1,0.1,0.1,0.1,0.3,0.3c0,0,0.2,0.2,0.2,0.3c0.1,0,0.7-0.2,0.8-0.3c0.2-0.2,0.2-0.4,0.2-0.8c0-0.1,0-0.4,0-0.4
				c-0.1-0.1-0.3-0.5-0.4-0.5c0,0-0.1-0.1-0.1-0.1c0,0,0,0,0.1,0c0.1,0,0.3,0,0.3,0c0.2,0,0.2,0,0.5,0.1c0,0,0.3,0.1,0.3,0.1
				c0,0,0.1,0.2,0.1,0.3c0,0.2-0.2,0.9-0.2,1.1l0.8-0.1c0.1,0,0.7-0.1,0.7-0.1c0.2,0,0.7,0.5,0.9,0.6c0,0,0,0.1,0,0.1
				c0,0.2-0.1,0.2-0.6,0.3c-0.1,0-0.3,0.2-0.4,0.2c-0.1,0-0.1,0-0.1-0.1C74.1,2.3,74.2,2,74.2,2c0-0.1-0.1-0.2-0.2-0.2
				c-0.6,0-1.4,0.2-1.4,0.2c0,0-0.2,0.2-0.2,0.2c0,0-0.1,0-0.1,0c0,0-0.2-0.1-0.2-0.1c-0.1,0-0.6,0.2-0.7,0.2c0,0-0.1,0-0.1,0
				c0,0,0,0-0.1,0v0.3c0,0,0,0.2,0,0.2c0,0,0,0.1,0,0.2c0,0,0,0.1,0,0.1c0,0.1,0,0.1,0,0.2c0,0-0.1,0.1-0.1,0.1
				c-0.1,0.3-0.1,0.4-0.3,0.3l0-0.2c0-0.2,0-0.3,0.1-0.5c0.1-0.2,0.1-0.8,0.1-0.9c0,0,0-0.2-0.1-0.4h0c0,0-0.3,0.1-0.3,0.1
				c-0.2,0-0.5-0.3-0.6-0.4c-0.2-0.2-0.3-0.2-0.5-0.3h-0.1c-0.1,0.1-0.5,0.9-0.5,0.9c0,0,0.5,0.2,0.5,0.2c0,0,0.1,0.1,0.1,0.2
				c0,0.3,0,0.5-0.2,0.5c-0.1,0-0.1,0-0.1-0.2c0,0-0.2-0.3-0.2-0.4c0-0.1-0.1-0.1-0.1-0.2c-0.1,0-0.1,0.1-0.2,0.3
				c0,0-0.6,0.7-0.6,0.7c-0.1,0.1-0.9,0.7-1,0.7c0,0-0.1,0-0.1,0c-0.1,0.1-0.2,0.1-0.6,0.3c0,0-0.1,0-0.1,0c0.2-0.2,0.7-0.6,0.7-0.6
				L67.4,3z M68.1,4.8c0-0.9,0-1-0.1-1.2c0,0-0.2-0.1-0.2-0.1l0,0l0.1,0c0.1-0.1,0.1-0.1,0.3-0.1c0.3,0,1.5-0.6,1.7-0.6
				c0.2,0,0.5,0.3,0.5,0.4c0,0-0.1,0.1-0.1,0.2C70,3.8,70,3.8,69.9,4.3c0,0-0.1,0.2-0.1,0.2c0,0-0.1,0.2-0.1,0.3
				c0,0.1-0.1,0.1-0.4,0.2c-0.2,0.1-0.6,0.3-0.8,0.3c-0.1,0-0.1,0.1-0.2,0.1c-0.1,0.2-0.1,0.3-0.1,0.4c0,0-0.1,0.6-0.1,0.6
				s0,0.1,0,0.2c0,0,0.1,0.1,0.1,0.1c0.1,0,0.6-0.3,0.7-0.4c0,0,0.4-0.3,0.4-0.3c0,0-0.2-0.3-0.2-0.3c0-0.1-0.2-0.2-0.2-0.3
				c0.2,0,0.3,0,0.7,0.1c0.2,0.2,0.2,0.3,0.2,0.6c-0.1,0.1-0.1,0.1-0.1,0.1c-0.1,0-0.2-0.1-0.2-0.1c-0.1,0.1-0.5,0.6-0.6,0.7
				c0,0-0.8,0.8-0.9,0.8c-0.1,0-0.1,0.1-0.2,0.1c0,0-0.1,0-0.1,0c-0.1-0.3-0.1-0.3-0.2-0.4c0,0-0.1-0.1-0.1-0.2
				c0.1-0.1,0.3-0.3,0.3-0.4C67.9,6.5,68,5.9,68,5.8L68.1,4.8z M68.6,3.5c-0.2,0-0.2,0.1-0.2,0.4c0,0-0.1,0.2-0.1,0.3
				c0,0,0,0.1,0.1,0.1s0.2,0,0.2-0.1C68.9,4,68.9,4,69,4c0,0,0.2,0,0.2,0.1c0,0.1-0.1,0.1-0.3,0.2c0,0-0.3,0.1-0.3,0.1
				c-0.1,0-0.1,0-0.2,0.1c0,0,0,0.1,0,0.1c0,0,0,0,0,0.2c0,0,0,0.3,0,0.3c0,0,0,0.1,0.1,0.1c0,0,0.8-0.4,0.9-0.4
				c0.1-0.1,0.1-0.1,0.1-0.2c0,0,0.1-0.8,0.1-0.9c0,0,0-0.3,0-0.3s0-0.1,0-0.1C69.4,3.2,68.7,3.5,68.6,3.5z M71.3,3.5
				c0.1,0,0.4,0,0.4,0c0,0,0.1,0,0.1,0l0.7-0.3c0.1,0,0.4-0.1,0.4-0.2c0,0,0.3-0.1,0.3-0.1c0.3,0,0.3,0,0.4,0.1
				c0.2,0.2,0.3,0.2,0.3,0.3c0,0.1,0,0.1,0,0.1c0,0.1-0.5,0.6-0.5,0.7v0.1c0.1,0,0.3,0.1,0.3,0.2c0,0.1-0.1,0.1-0.2,0.1
				c-0.1,0-0.5,0.1-0.5,0.1l-0.8,0.2l-0.3,0.1c0,0.1,0,0.6,0,0.8l0.1,0l0.9-0.2c0.2-0.1,0.5-0.2,0.7-0.2c0.1,0,0.5,0.2,0.7,0.3
				c-0.1,0.2-0.2,0.5-0.2,0.5c0,0-0.1,0.3-0.1,0.3C74,6.6,74.4,7,74.4,7.1v0c-0.1,0.1-0.1,0.1-0.2,0.1c-0.1,0-0.6-0.1-0.7-0.1
				c-0.2,0-1.6,0.2-1.6,0.4c0,0.2-0.2,1.2-0.3,1.2c-0.2,0-0.2-0.7-0.2-0.7c0-0.1,0-0.3,0-0.3c0-0.2,0.3-1.7,0.3-2c0-0.1,0-0.4,0-0.5
				c0-0.1,0-0.3,0-0.4c0-0.1,0-0.4,0-0.5c0-0.2,0-0.3-0.1-0.5c-0.1-0.1-0.1-0.1-0.1-0.2C71.3,3.6,71.3,3.6,71.3,3.5L71.3,3.5z
				 M73.1,6.8c0.3-0.1,0.3-0.1,0.3-0.2c0.1-0.3,0.1-0.6,0.1-0.7c0-0.1,0-0.1,0-0.2l-0.4,0.1L72.2,6c-0.2,0.1-0.2,0.1-0.3,0.1
				c0,0.1,0,0.4,0,0.5v0.1c0,0.1,0,0.1,0,0.1s0,0.1,0.1,0.2L73.1,6.8z M72.3,3.6c-0.1,0-0.3,0.1-0.3,0.3c0,0,0,0.2,0,0.3
				c0,0,0,0.2,0,0.2c0,0.1,0,0.2,0,0.2c0,0,0,0,0,0.1c0.1,0,0.9-0.2,1-0.3c0.1-0.1,0.2-0.6,0.2-0.7c0-0.1,0-0.1,0-0.2L72.3,3.6z"/>
		</g>
		<g>
			<g>
				<path class="st1" d="M27.6,38.5c-0.2-1.1-0.3-2.2-0.2-3.2c-0.1,0-0.2,0-0.3-0.1c-0.8-0.1,0.4-3.3-1-3.1c-0.2,1.2,0.5,2.5,0,3.7
					c-2.5-3.3-1.4,1.3-0.5,1.2c-0.4,0-0.5,0-0.7-0.2c-0.2,0-0.4,0.1-0.5,0.3c0.2,0.5,0.6,1.6-0.2,1.6c0.1,0.2,0,0.5,0.1,0.8
					c-0.2,0.5-0.5,1.1-0.7,1.6c-0.6,1.3-1.1,1.9-2.4,2.3c-0.3,0-0.5,0-0.8,0c0,0.1,0,0.1,0,0.2c-0.1,0-0.2,0-0.3,0
					c0,0.1,0,0.1,0,0.2c-0.2,0-0.4,0-0.7,0c0,0.1,0,0.1,0,0.2c0,0.3-2.9-1.6-3.1-1.8c-0.6-0.4-1.3-0.6-1.6-1.3c-0.1,0-0.2,0-0.3-0.1
					c-0.2-0.4-1.1-1.1-1.5-1.1c-0.1-0.1-0.1-0.2-0.2-0.3c-0.3-0.1-0.7-0.2-1-0.3c-0.1-0.1-0.1-0.2-0.2-0.3c-0.2-0.1-0.3-0.1-0.5-0.2
					c0-0.1,0-0.1,0-0.2c-0.7-0.5-1.6-0.5-2.1-1.1c-0.2-0.1,0,0-0.2-0.2c0.6-0.5,1.2-1.1,1.8-1.6c0.1-0.1,0.1-0.2,0.2-0.3
					c0.1,0,0.2,0,0.3,0c0.1-0.1,0.1-0.2,0.2-0.3c0.1,0,0.2,0,0.3,0c0.1-0.1,0.1-0.2,0.2-0.3c0.1,0,0.2,0,0.3,0
					c0.5-0.3,1-0.7,1.6-0.8c0-0.1,0-0.2,0-0.3c0.7-0.2,1.2-0.6,1.8-0.8c0.7-0.2,1.1,0.2,1.6-0.3c0.5-0.3,1.1-1.2,1.3-1.8
					c0.2-0.8-0.6-1-0.6-1.5c0-0.1,0-0.2,0-0.3c-0.1-0.1-0.2-0.1-0.3-0.3c-0.9-0.2-2-0.3-3.3-0.3c0.1-0.5,0.2-0.5,0.7-0.7
					c0-0.1,0-0.2,0-0.3c0.1,0,0.2,0,0.3,0c0.2-0.6,1.1-1.7,1.6-2c0.2,0,0.4,0,0.7,0c0-0.1,0-0.1,0-0.2c0.1,0,0.2,0,0.3,0
					c0-0.1,0-0.1,0-0.2c0.1,0,0.2,0,0.3,0c0.1-0.1,0.1-0.2,0.2-0.3c0-0.1,1-0.4,1.2-0.5c0.3-0.3,0.5-0.8,0.7-1.2
					c0.5-1.4-0.4-1.4-0.9-2.3c-0.2,0-0.3,0-0.5,0c0-0.1,0-0.1,0-0.2c-1.2-0.4-4.4,1-4.1-1.1c0.1-0.9,0.2-1.8,0.6-2.6
					c0.7-1.3,0.9-2.5,0-3.7c-0.8-1.1-2.4-1.8-3.6-0.8c-0.4,0.3-0.5,0.8-0.7,1.2c-0.1,0.2-0.5,2.3-0.7,2.3c-0.1,0-0.1,0-0.2,0
					c-0.1,0.4-0.1,0.9-0.2,1.3c-0.3,0.8-0.5,1.9-0.5,2.9c-0.5,0.3-1.1,0.7-1.6,1c-0.2,0.1-1-0.2-1-0.2c0,0.1,0,0.1,0,0.2
					c-0.1,0.1-0.2,0.1-0.3,0.2C6.7,21,6.8,21.2,7,21.4c0.1,0,0.2,0,0.3,0c0,0.1,0,0.1,0,0.2c0.2,0.2,0.2,0.1,0.3,0.5
					c0.1,0,0.1,0,0.2,0c0,0.1,0,0.2,0,0.3c-0.2,0.1-0.3,0.1-0.5,0.2C7.2,22.8,7,23,6.8,23.2c-0.2,0-0.3,0-0.5,0
					C6.2,23,6.1,22.9,6,22.7c-0.4-0.3-0.7-0.3-1-0.7c-0.1,0-0.1,0-0.2,0c0-0.2,0-0.4,0-0.7c-0.1,0-0.1,0-0.2,0c0-0.2,0-0.4,0-0.7
					c0.1-0.1,0.2-0.1,0.3-0.2c0-0.1,0-0.2,0-0.3c-0.2,0.1-0.3,0.1-0.5,0.2c0-0.1,0-0.1,0-0.2c-0.7-0.1-1.5,0-1.8,0.3
					c-1.3,0.7-1.9,3.8-1.3,5.9c0,0.3,0,0.7,0,1c0.1,0.1,0.2,0.1,0.3,0.2c0,0.3,0.3,1,0.5,1.1c0.3,0.2,0.9,0.4,1.2,0.5
					c0.8,0.3,1.4,0.5,2.2,0.1c0.5-0.3,0.8-1.1,1.3-1.3C7.2,28,7.3,28,7.5,27.9c0.1-0.2,0.2-0.3,0.3-0.5c0.4-0.3,0.8-0.7,1.1-1
					C9,26.2,9.1,26,9.1,25.8c0.2-0.4,0.6-0.8,0.8-1.3c0.3,0.1,0.7,0.1,1,0.2c-0.2,0.6-0.8,1.1-1.1,1.6c-0.2,0.2-1.3,1.3-1.3,1.3
					c0,0.6,0,1.2,0,1.8c0.4,0.3,0.8,0.7,1.1,1c0,0.1,0,0.1,0,0.2c0.2,0,0.3,0,0.5,0c0,0.1,0,0.1,0,0.2c0.1,0,0.1,0,0.2,0
					c-0.1,0.2-0.1,0.4-0.2,0.7c-0.3,0-0.5,0-0.7,0.2c0,0.1,0,0.2,0,0.3c-0.1,0-0.1,0-0.2,0c0,0.1,0,0.1,0,0.2
					c-0.5,0-1.7,0.9-2.2,1.3c-0.4,0.3-0.3,1-0.9,1.2C6,36,4.6,36.7,3.3,37.1c-0.7,0.2-1.1,0.6-1.8,0.9c0.1,0.2,0.3,0.3,0.1,0.5
					c0,0-0.3-0.2-0.3-0.2c0,0.2,0,0.3,0,0.5c-0.4,0.1-0.8,0.1-1.1,0.2c0,0.1,0,0.1,0,0.2c-0.1,0-0.1,0-0.2,0c0,0.9,0.1,1.5,0.3,2.1
					c1.1,0.2,1.5,0.7,2.9,0.7c0.3-0.3,0.8-0.4,1.1-0.7c0.3-0.4,0.7-0.8,1-1.1c0.1,0,0.2,0,0.3,0C5.8,40,5.9,39.8,6,39.6
					c0.1,0,0.1,0,0.2,0c0-0.1,0-0.2,0-0.3c0.5-0.1,1-0.1,1.5-0.2c0,0.1,0,0.1,0,0.2c0.1,0,0.2,0,0.3,0c0,0.1,0,0.1,0,0.2
					c0.2,0,0.3,0,0.5,0c0,0.1,0,0.1,0,0.2c0.1,0,0.2,0,0.3,0c0,0.1,0,0.1,0,0.2c0.1,0,0.2,0,0.3,0c0,0,1.1,0.7,1.2,0.8
					c0.6,0.3,1.1,0.8,1.7,1.2c0.5,0.4,0.9,0.9,1.5,1.3c0.1,0.1,1.3,1,1.2,1c0.1,0,0.2,0,0.3,0c0,0.1,0,0.1,0,0.2c0.1,0,0.2,0,0.3,0
					c0.1,0.1,0.1,0.2,0.2,0.3c0.2,0.1,0.4,0.1,0.7,0.2c0.1,0.1,0.1,0.2,0.2,0.3c0.1,0,0.2,0,0.3,0c0.7,0.4,2.7,1.4,4.1,1
					c0-0.1,0-0.1,0-0.2c0,0.2,3.4-1,3.7-1.1c0.7-0.3,1.3-0.5,1.9-1.1c0.3-0.3,0.8-1.6,1.1-1.6c0-0.2,0-0.3,0-0.5c0.1,0,0.1,0,0.2,0
					c0.1-0.2,0.1-0.4,0.2-0.7c0.1,0,0.1,0,0.2,0c0,0,0.2-3.1-0.1-3.4C27.7,37.8,27.7,38.2,27.6,38.5z M9.8,32
					c0.2-0.3,0.2-0.4,0.7-0.5c0,0.1,0,0.2,0,0.3c-0.4,0.1-0.3,0-0.5,0.3c-0.1,0-0.2,0-0.3,0C9.7,32,9.6,32.1,9.8,32z M42.2,14.2
					c0.3,0,0.5,0,0.8,0c0,0.1,0,0.1,0,0.2c0.2,0,0.3,0,0.5,0c0,0.1,0,0.1,0,0.2c0.2,0,0.4,0,0.7,0c0,0.1,0,0.1,0,0.2
					c0.7,0,1.3,0,2,0c0,0.1,0,0.1,0,0.2c0.7,0,1.3,0,2,0c0,0.1,0,0.1,0,0.2c0.1,0,0.2,0,0.3,0c0,0.1,0,0.1,0,0.2
					c0.2-0.1,0.3-0.1,0.5-0.2c0-0.1,0-0.2,0-0.3c0.2,0,0.3,0,0.5,0c0-1.9-0.5-2.3-2.4-2.6c-0.2,0-2.9-0.3-2.9-0.2c0-0.1,0-0.1,0-0.2
					c-0.9,0-1.7,0-2.6,0c-0.4,0.1-0.7,0.5-1,0.7C40.4,13.8,41.2,13.9,42.2,14.2z M89,20c-0.6-0.9-1.6-1.5-2.6-2.1
					c-2.4-1.3-5.4-2.2-8.1-2.3c-0.8,0-2-0.1-2.8,0.1c-1,0.2-1.7,0.5-2.8,0.6c-0.3,0-2-0.1-2.1,0.3c-0.3,0.6-1.4,1.3-1.9,1.8
					c-0.7,0.7-2.1,1.5-2.4,2.4c-0.2,0.1-0.3,0.1-0.5,0.2c0,0.4,0,0.8,0,1.1c0,0.1,1.4,1.1,1.5,1.1c0.2,0,0.3,0,0.5,0
					c0,0.1,0,0.1,0,0.2c0.1,0,0.2,0,0.3,0c0,0.1,0,0.1,0,0.2c0.3,0.1,0.7,0.1,1,0.2c0,0.1,0,0.1,0,0.2c0.4,0,0.9,0,1.3,0
					c0.1-0.2,0.2-0.3,0.3-0.5c0.3-0.2,0.5-0.4,0.8-0.7c0.1-0.2,0.1-0.3,0.2-0.5c0.2-0.2,0.4-0.3,0.7-0.5c0.1-0.2,0.1-0.3,0.2-0.5
					c0.1,0,0.2,0,0.3,0c0.1-0.2,0.2-0.3,0.3-0.5c0.6-0.4,2-0.4,2.7-0.5c2.9-0.6,5.3-2.2,8.3-0.6c0.8,0.4,1.8,1.1,2.1,2
					c0.2,0.7,0.1,2.1-0.9,1.9c0.2,0.1,0.3,0.3,0.6,0.3c-0.8,1.1-2.2,1.7-2.6,0c-0.6,0.1-2.4-0.2-2.3,0.8c-0.6-0.5-1.3-1.3-1.9-2
					c-0.3-0.4-0.4-0.9-0.9-0.9c-0.1,0.2-0.2,0.3-0.3,0.4c-0.1-0.2-0.1-0.2-0.2-0.3c0,0-0.4,0.9-0.4,0.9C77.1,22.6,77,22.3,77,22
					c-0.2,0.2-0.5,0.4-0.7,0.6c-0.1-0.5,0.1-1.1,0.1-1.6c-1,0.8-0.9,2-1.3,3.1c-0.4,1.2-1,2.3-1,3.6c0,1.2,0.2,1.6,1.1,2.3
					c0.6,0.5,1.2,0.8,0.6,1.7c-0.7,0.9-2,0.3-3,0.4c-0.9,0.1-2,0.3-2.9,0.6c-1.8,0.6-2,1.9-0.9,3.4c0.5,0.8,1.4,1,2.2,1.4
					c0.7,0.4,1.3,1,1.9,1.6c1.5,0.2,2.3-0.2,3.2-1.2c0.5-0.5,1.2-2.6,1.7-2.7c0,0.9-0.7,3.8,0.1,4.5c0.5,0.5,1.8,0,2.1-0.6
					c0.1-0.2-0.1-0.8-0.1-1c0-0.6,0.2-1.2,0.3-1.8c0.1-0.9,0.1-1.6-0.2-2.4c-0.7-1.1-1.7-1-1.4-2.4c0.2-1.2,0.2-1.7-0.4-2.7
					c-0.4-0.7-1.1-1.2-0.9-2.2c0.1-0.8,0.4-2.3,0.9-3c0.4,0.4,0,0.7,0.2,1.1c0.1,0.2,0.4,0.3,0.6,0.5c0.7,0.7,1.4,1,2.2,1.2
					c0.9,0.2,1.6,0.7,2.5,0.8c1.1,0.2,2.6-0.3,3.4-1c0.4-0.3,0.9-0.4,1.2-0.7c0,0,0.1-0.1,0.1-0.1c0.4-0.5,0.2-0.8,0.8-1.2
					c0.3-0.4,0.3-0.7,0.7-1C90.4,23,89.3,20.4,89,20z M69,34.4c-0.1,0-0.2,0-0.3,0c0-0.1,0-0.2,0-0.3c0.1,0,0.1,0,0.2,0
					c0.1-0.1,0.1-0.2,0.2-0.3c0.1,0,0.2,0,0.3,0c0.1-0.1,0.1-0.2,0.2-0.3c0.2-0.2,0.3-0.1,0.5-0.3c0.1,0,0.1,0,0.2,0
					C70,33.9,69.4,33.9,69,34.4z M74.4,35.2c-0.1,0-0.2,0-0.3,0c-0.1,0.5-0.3,0.9-0.7,1.1c-0.2,0.2,0,0.1-0.3,0.2
					c-0.3-0.3-0.9-0.7-1.5-0.8c0-0.1,0-0.1,0-0.2c-0.3,0.1-0.5,0.1-0.8,0.2c0,0.1,0,0.1,0,0.2c-0.1,0-0.1,0-0.2,0
					c0.1,0.2,0.1,0.3,0.2,0.5c-0.2-0.1-0.3-0.1-0.5-0.2c0.1-0.6,0.2-0.5,0.3-1c0.6-0.2,0.4-0.3,0.8-0.7c0-0.1,0-0.1,0-0.2
					c0.6-0.4,2.1-0.3,3.1-0.3C74.5,34.5,74.5,34.9,74.4,35.2z M77.8,22.9c-0.1,0-0.1,0-0.2,0c0-0.1,0-0.2,0-0.3c0.1,0,0.1,0,0.2,0
					C77.8,22.6,77.8,22.8,77.8,22.9z M78.8,24.8c-0.1,0-0.1,0-0.2,0c0-0.1,0-0.2,0-0.3c0.1,0,0.1,0,0.2,0
					C78.8,24.6,78.8,24.7,78.8,24.8z M80.1,24.3c-0.5-0.1-0.4,0-0.7-0.3c0.2,0,0.3,0,0.5,0c0.1,0.2,0,0,0.2,0.2
					C80.1,24.2,80.1,24.3,80.1,24.3z M42.5,16.8c0.3-0.2,0.3-0.3,0.8-0.3c0-0.1,0-0.2,0-0.3c-0.3,0.1-0.5,0.1-0.8,0.2
					C42.5,16.5,42.5,16.7,42.5,16.8z M57.1,22c-0.6-0.1-2.7-0.5-3.1-0.8c-0.5-0.3-0.1-0.2-0.3-0.7c-0.1,0-0.1,0-0.2,0
					c0-0.1,0-0.2,0-0.3c-0.1-0.1-0.2-0.1-0.3-0.3c-1.2-0.2-2.7,0-3.9,0.2c-0.3-0.1-0.7-0.1-1-0.2c0,0.1,0,0.1,0,0.2
					c0,0-2.3,0.2-2.5,0.1c-0.4-0.2-0.8-1.4-1-1.8c-0.2-0.5-0.7-1.2-1.2-1.3c-0.1,0.1-0.1,0.2-0.1,0.4c-0.1,0-0.2,0-0.3-0.1
					c-0.2,0.5,0.3,1,0.3,1.6c0,0.4,0,1.4-0.2,1.7c-0.1,0.2-1.2,0.4-1.1,0.4c-0.1,0.4-0.2,0.6-0.2,1.1c-0.4-0.1-0.4,0-0.5-0.5
					c-0.2,0-0.3,0-0.5,0c-0.6,0-1.8,2.4-1.5,2.9c-0.3,0.4-0.5,1.1-0.9,1.3c-0.3-0.9,0-2.6,0.5-3.5c0.6-1,2.5-1.6,2.9-2.6
					c0.2-0.5-0.2-0.8-0.4-1.2c-0.2-0.5-0.1-0.7-0.1-1.2c0-0.2,0-0.3,0-0.5c-0.1,0.1-1.3,0.8-1.3,0.8c0,0.1,0,0.2,0,0.3
					c-0.5,0.1-0.5,0.1-0.8,0.3c0,0.1,0,0.1,0,0.2c-0.2,0-0.3,0-0.5,0c-0.6,0-2.6,2.9-2.9,3.4c-0.2,0.3-1.1,2.8-1.2,2.8
					c-0.1,0-0.1,0-0.2,0c0,0.1,0,0.2,0,0.3c-0.1,0.1-0.2,0.1-0.3,0.2c-0.1,0.2-0.1,0.4-0.2,0.7c-0.1,0-0.1,0-0.2,0
					c-0.5,1.3,1,3.5,1.5,3.9c1.1,1.1,4.2-0.6,4.6-1.3c0.7,0.1,0.7,0.3,1.3,0.5c0.1,0.5,0.4,0.6,0.7,1c0.1,0,0.1,0,0.2,0
					c0,0.2,0,0.3,0,0.5c-0.1,0-0.2,0-0.3,0c-0.1,0.6-0.2,0.9-0.5,1.3c-0.1,0.1-0.2,0.1-0.3,0.2c0,0.1,0,0.2,0,0.3
					c-0.1,0-0.1,0-0.2,0c-0.4,0.8-0.2,2.2,0.3,2.6c0,0,0,0.3-0.1,0.4c-0.1,0-0.1,0-0.2,0c0.1,0.4,0.4,0.9,0.7,1.2
					c0.1,0.1,0.4,0.1,0.5,0.2c0.2,0.2,0.5,0.9,0.8,1.2c0.5,0.6,0.9,1.2,1.5,1.6c0.3,0.2,0.8,0.6,1.2,0.5c0.2,0,0.9-0.8,0.7-0.8
					c0.7,0.1,0.6,0.3,1.1,0.5c0.3,0.1-0.6-1.3-0.6-1.3c-0.3-0.4-0.6-0.8-0.9-1.2c-0.4-0.4-1.1-0.8-1.5-1.1c-0.8-0.8-1.9-1.5-1.9-2.6
					c1.1-0.2,1.8-1,2.4-1.6c0.1-0.1,0.2-0.1,0.3-0.2c0-0.1,0-0.2,0-0.3c0.2-0.1,0.3-0.2,0.5-0.3c0-0.1,0-0.2,0-0.3
					c0.2-0.2,0.4-0.3,0.7-0.5c0-0.3,0-0.7,0-1c-0.2,0-0.3,0-0.5,0c0-1.4,0.5-2,0.5-3.4c0.7,0.2,1.4,0.3,2.1,0.5c0,0.1,0,0.1,0,0.2
					c0.3,0,0.5,0,0.8,0c0,0.1,0,0.1,0,0.2c0,0.3,3.6,0.2,4,0.1c1-0.3,2.7-1.1,3-2.2c0.1,0,0.2,0,0.3,0c0-0.2,0-0.3,0-0.5
					c0.3-0.1,0.4-0.3,0.8-0.3c0-0.3,0-0.5,0-0.8c-0.1-0.1-0.2-0.1-0.3-0.2C57.2,22.6,57.2,22.2,57.1,22z M43.8,26.8
					c-0.2,0-0.4,0-0.7,0c0-0.1,0-0.1,0-0.2c-0.3-0.3-0.3-0.9-0.3-1.6c0.3-0.3,0.6-0.9,0.8-1.3c0.1-0.1,0.2-0.1,0.3-0.2
					c0.1,0.2,0,0,0.2,0.2C44,24.7,43.9,25.7,43.8,26.8z M53.7,22.9c-0.1,0.3,0,0.1-0.2,0.3c0,0.1,0,0.1,0,0.2c-0.3,0-0.5,0-0.8,0
					c0,0.1,0,0.1,0,0.2c-0.5,0.2-0.5,0-0.8,0.3c-2.1,0-3.6,0-4.4-1.3c-0.1,0-0.2,0-0.3,0c-0.1,0.1-0.1,0.2-0.2,0.3
					c0.1,0,0.1,0,0.2,0c0,0.1,0,0.1,0,0.2c-0.2,0.1-0.3,0.2-0.5,0.3c0,0.5,0,1.1,0,1.6c-0.2-0.2-0.3-1.9-0.3-2.4
					c0.7-0.1,1.3-0.2,2-0.3c0-0.1,0-0.1,0-0.2c0.4-0.1,2.2-0.3,2.8-0.2c0,0.1,0,0.1,0,0.2c0.2,0,0.3,0,0.5,0c0,0.1,0,0.1,0,0.2
					c0.3,0,0.5,0,0.8,0c0,0.1,0,0.1,0,0.2c0.4,0.1,0.8,0.1,1.1,0.2c0,0.1,0,0.1,0,0.2c0.1,0,0.2,0,0.3,0
					C53.8,22.9,53.9,22.7,53.7,22.9z M55.4,25.3c-0.1,0-0.1,0-0.2,0c0.1-0.2,0.2-0.3,0.3-0.5c0.1,0,0.1,0,0.2,0
					C55.6,25,55.5,25.1,55.4,25.3z M56.2,24.7c-0.1,0-0.1,0-0.2,0c0-0.1,0-0.2,0-0.3c0.1,0,0.1,0,0.2,0
					C56.2,24.4,56.2,24.5,56.2,24.7z M84.8,23.7c0.1,0,0.1,0,0.2,0c0-0.1,0-0.1,0-0.2c-0.1,0-0.2,0-0.3,0c-0.1,0.1-0.1,0.2-0.2,0.3
					C84.8,23.9,84.7,23.8,84.8,23.7z M25.4,34.4c0.2,0,0.3,0,0.5,0c0-0.6-0.1-1.7-0.3-2c-0.1-0.2,0,0-0.2-0.2l-0.2,0.2
					c0,0.1,0,0.1,0,0.2c0.1,0,0.1,0,0.2,0C25.4,33.2,25.4,33.8,25.4,34.4z M26.9,32.8c0,0.1,0,0.1,0,0.2c0.1,0,0.1,0,0.2,0
					c0-0.2,0-0.3,0-0.5c-0.1,0-0.2,0-0.3,0C26.8,32.8,26.7,32.6,26.9,32.8z M24.6,32.8c0-0.1,0-0.1,0-0.2c-0.1,0-0.2,0-0.3,0
					C24.4,32.8,24.3,32.7,24.6,32.8z M24.4,33.4c0.1,0,0.2,0,0.3,0c0-0.1,0-0.2,0-0.3c-0.1,0-0.2,0-0.3,0
					C24.4,33.2,24.4,33.3,24.4,33.4z M83.5,39.1C82.6,38.8,82,37.9,81,38c0.3,0.3,0.7,0.5,0.9,0.8c-0.2-0.1-0.5,0-0.8-0.1
					c0,0.4,0.5,0.6,0.9,0.8c-0.1,0.2,0,0.4-0.1,0.6c0.5,0.2,1,0.4,1.4,0.7c-0.4,1-1.7,1.5-2.6,2c-1.3,0.7-2.3,1.2-3.8,1.4
					c0,0.1,0,0.1,0,0.2c-0.2,0-0.4,0-0.7,0c0,0-0.3,0.4-0.5,0.5c0,0.1,0,0.1,0,0.2c-0.2-0.1-0.4-0.2-0.7-0.3c0-0.1,0-0.1,0-0.2
					c-0.4-0.1-0.9-0.1-1.3-0.2c-0.5-0.2-0.4-0.6-1.3-0.7c0,0.1,0,0.2,0,0.3c0.3,0.1,0.1,0,0.3,0.2c0.1,0,0.1,0,0.2,0
					c0,0.2,0,0.3,0,0.5c0.1,0,0.2,0,0.3,0c-0.1,0.2-0.1,0.3-0.2,0.5c0.6,0.1,0.9,0.3,1.3,0.5c0.4,0,0.9,0,1.3,0
					c0.1,0.1,0.1,0.2,0.2,0.3c0.1,0,0.2,0,0.3,0c0,0.1,0,0.1,0,0.2c0.1,0,0.1,0,0.2,0c0-0.5,1,0,1.1,0c0.9-0.6,2.6-1,3.7-1
					c0-0.1,0-0.1,0-0.2c0.5-0.2,1-0.3,1.5-0.5c0-0.1,0-0.1,0-0.2c0.2-0.1,0.3-0.1,0.5-0.2c0.1-0.1,0.1-0.2,0.2-0.3
					c0.1,0,0.2,0,0.3,0c0.3-0.4,0.7-0.8,1-1.1c0.1-0.1,0.2-0.1,0.3-0.2c0-0.1,0-0.2,0-0.3c0.1,0,0.1,0,0.2,0c0-0.1,0-0.2,0-0.3
					c0.1,0,0.1,0,0.2,0C85.3,40.5,84.9,39.6,83.5,39.1z M50,43.5c-0.2,0-0.3,0-0.5,0c0-0.1,0-0.1,0-0.2c-0.2,0-0.3,0-0.5,0
					c0-0.1,0-0.1,0-0.2c-0.4-0.1-0.8-0.1-1.1-0.2c0-0.1,0-0.1,0-0.2c-0.1,0-0.2,0-0.3,0c0-0.1,0-0.1,0-0.2c-0.3-0.1-0.7-0.1-1-0.2
					c-0.1-0.1-0.1-0.2-0.2-0.3c-0.1,0-0.2,0-0.3,0c0-0.1,0-0.1,0-0.2c-0.6-0.2-1,0.1-1.5-0.3c-0.1,0-0.1,0-0.2,0
					c0.1,0.4,0.1,0.3,0.3,0.5c0,0.1,0,0.1,0,0.2c0.1,0,0.2,0,0.3,0c0.1,0.1,0.1,0.2,0.2,0.3c0.2,0.1,0.3,0.1,0.5,0.2
					c0,0.1,0,0.1,0,0.2c-0.3-0.1-0.7-0.2-1-0.3c0,0.2,0,0.3,0,0.5c0.2-0.1,0.3-0.1,0.5-0.2c0.1,0.1,0.3,0.3,0.3,0.3
					c0.1,0.3-0.1,0.3-0.2,0.3c0.1,0.3,0.3,0.4,0.7,0.5c0.1,0.3,0,0.1,0.2,0.3c0,0.1,0,0.1,0,0.2c0.2,0,0.3,0,0.5,0
					c0.1,0.1,0.1,0.2,0.2,0.3c0.2,0,0.3,0,0.5,0c0,0.1,0,0.1,0,0.2c0.2,0,0.3,0,0.5,0c0,0.1,0,0.1,0,0.2c0.4,0.1,0.8,0.1,1.1,0.2
					c0,0.1,0,0.1,0,0.2c0.8,0,1-0.1,1.5-0.3c0-0.1,0-0.1,0-0.2c0.1,0,0.2,0,0.3,0c0-0.1,0-0.1,0-0.2c0.3-0.2,0.4-0.4,0.8-0.5
					c0-0.1,0-0.2,0-0.3c0.3,0,0.5,0,0.8,0c0-0.1,0-0.1,0-0.2c-0.8-0.1-1.6-0.2-2.4-0.3C50,43.6,50,43.6,50,43.5z M46.2,44
					c0,0,0,0-0.3-0.3C46,43.7,46.4,43.9,46.2,44z"/>
			</g>
		</g>
	</g>
</g>
</svg>
