<?xml version="1.0" encoding="utf-8"?>
<!-- Generator: Adobe Illustrator 25.0.0, SVG Export Plug-In . SVG Version: 6.00 Build 0)  -->
<svg version="1.1" id="レイヤー_1" xmlns="http://www.w3.org/2000/svg" xmlns:xlink="http://www.w3.org/1999/xlink" x="0px"
	 y="0px" width="120px" height="61.5px" viewBox="0 0 120 61.5" style="enable-background:new 0 0 120 61.5;" xml:space="preserve">
<style type="text/css">
	.st0{fill:#FFFFFF;}
	.st1{fill-rule:evenodd;clip-rule:evenodd;fill:#FFFFFF;}
</style>
<g>
	<g>
		<path class="st0" d="M17,3.3c0.2,0,0.4,0.1,0.6,0.1c0.2,0,1.1-0.1,1.5-0.2c0.1-0.2,0.4-1.1,0.5-1.3c0.1-0.3,0.2-0.6,0.2-0.9
			c0-0.1,0-0.2-0.1-0.2l0-0.1c0.9,0,0.9,0.6,0.9,0.6c0,0.2-0.1,0.4-0.2,0.5C20.1,2.6,20,2.7,19.8,3c0.3-0.1,0.5-0.1,0.6-0.3
			c0.1-0.1,0.3-0.2,0.4-0.2c0.2,0,0.7,0.3,0.7,0.5c0,0.3-1.5,0.6-2,0.7c-0.4,0.9-0.5,1-1.2,2.3c-0.6,1-0.7,1.2-1,1.2
			c-0.2,0-0.3-0.1-0.3-0.4c0-0.3,0.1-0.5,0.5-1c0.2-0.3,0.9-1.2,1.3-2.1c-0.1,0-0.3,0-0.5,0C17.9,3.9,17.4,3.8,17,3.3L17,3.3z
			 M22.3,4.9c-0.2,0.3-0.2,0.4-0.2,0.9c0,0.3,0,0.8,0.1,1.2c0,0.2,0.1,0.9,0.1,1c1.2,0.3,1.8,0.6,1.8,1.2c0,0.2-0.1,0.3-0.3,0.3
			c-0.1,0-0.1,0-0.5-0.3c-0.5-0.3-0.6-0.4-1.1-0.5c0,0.2-0.1,0.7-0.3,1c-0.2,0.3-0.8,0.6-1.3,0.6C20.1,10.3,19,10,19,9
			c0-1.2,1.2-1.2,1.7-1.2c0.5,0,0.7,0,0.9,0.1c-0.1-0.6-0.1-1.6-0.1-1.9C21.5,5.3,21.7,4.8,22.3,4.9L22.3,4.9z M20.2,8.3
			c-0.2,0-0.8,0-0.8,0.5c0,0.5,0.6,0.7,1.1,0.7c0.9,0,1-0.7,1-1.1C21.3,8.5,20.9,8.3,20.2,8.3z M23.1,3.4c0.5,0,0.8,0,1.1,0.2
			c0.5,0.2,0.7,0.6,0.7,1c0,0.4-0.3,0.4-0.3,0.4c-0.1,0-0.3-0.1-0.5-0.2c-0.2-0.1-0.7-0.1-0.9-0.2l-0.1-0.1c0.5-0.2,0.6-0.2,0.6-0.4
			C23.8,4.1,23.6,3.7,23.1,3.4L23.1,3.4z"/>
		<path class="st0" d="M34.6,4.4c0.2,0.1,0.3,0.1,0.6,0.1c0.2,0,0.9-0.1,1.7-0.4c0.2-0.6,0.7-2.1,0.8-2.6l0.1,0
			c0.3,0.1,0.7,0.4,0.7,0.7c0,0.1,0,0.2-0.1,0.4c-0.2,0.5-0.6,1.2-0.7,1.3c0.5-0.1,0.7-0.1,0.8-0.1c1.2,0,1.4,0.8,1.4,1.2
			c0,0.8-0.4,2.4-0.8,3.4c-0.4,1-0.8,1.2-1.2,1.2c-0.4,0-0.4-0.2-0.4-0.3c0,0,0-0.2,0-0.3c0-0.2,0-0.3-0.4-1.2L37,8
			c0.4,0.3,0.7,0.5,0.9,0.5c0.6,0,1.2-2.5,1.2-3.5c0-0.2,0-0.7-0.7-0.7c-0.3,0-0.8,0.1-1,0.2c-0.3,0.8-0.9,1.8-1.4,2.8
			c-0.3,0.6-0.6,1.1-0.8,1.1C35,8.4,35,8,35,7.9c0-0.2,0.1-0.4,0.5-0.9c0.5-0.8,0.6-0.9,1.2-2.1c-0.1,0.1-0.9,0.4-1.1,0.4
			C34.9,5.2,34.6,4.7,34.6,4.4L34.6,4.4z M40.9,3.5C41.4,3.6,42,3.8,42.5,4C43.6,4.5,44,5.4,44,5.9c0,0.4-0.3,0.6-0.4,0.6
			c-0.1,0-0.2-0.1-0.4-0.3c-0.1-0.1-0.4-0.4-1-0.5l0-0.1c0.2-0.1,0.5-0.1,0.5-0.4C42.7,4.7,41.3,3.8,40.9,3.5L40.9,3.5z M41.5,1.8
			c0.7,0.1,1.8,0.3,1.8,1C43.2,2.9,43.2,3,43,3c-0.1,0-0.1,0-0.5-0.4c-0.3-0.3-0.7-0.6-1-0.7L41.5,1.8z M42.4,1.1
			c0.2,0,0.9,0.1,1.2,0.2c0.3,0.1,0.6,0.4,0.6,0.7c0,0.2-0.1,0.2-0.3,0.2c-0.1,0-0.1,0-0.2-0.1c-0.1,0-0.5-0.5-0.6-0.5
			C42.9,1.5,42.4,1.2,42.4,1.1L42.4,1.1z"/>
		<path class="st0" d="M58.6,9.5c1.7-0.8,2.3-2.1,2.3-3.2c0-1.4-1.2-2.3-2.9-2.2c-0.8,1.8-1.2,2.4-1.4,2.6C56.8,7,56.9,7,57.3,7.3
			c0.2,0.1,0.3,0.3,0.3,0.5c0,0.2-0.1,0.5-0.3,0.5c-0.3,0-0.8-0.5-1.2-0.9c-0.6,0.9-1.8,1.6-2.1,1.6c-0.1,0-0.1,0-0.2-0.1
			c-0.1-0.1-0.2-0.3-0.2-0.4c-0.4-0.4-0.4-0.5-0.4-0.8c0-0.3,0.1-1.6,1.8-2.8c-0.5-1.5-0.7-1.9-0.9-2.2l0-0.1c1,0.3,1.2,1.3,1.3,2
			c0.5-0.4,1.3-0.7,1.9-0.8c0.2-0.5,0.3-1.3,0.3-1.6c0-0.1,0-0.5-0.2-0.7l0-0.1c0.5,0.1,1.1,0.5,1.1,1.1c0,0.3-0.3,0.9-0.4,1.2
			c0.1,0,0.2,0,0.4,0c1.7,0,3.1,1.1,3.1,2.9C61.8,8.1,60.5,9.3,58.6,9.5L58.6,9.5z M53.9,7.2c0,0.6,0.4,0.8,0.5,0.8
			c0.1,0,0.6-0.1,1.4-1.1c-0.3-0.6-0.5-1-0.7-1.6C54.4,5.9,53.9,6.7,53.9,7.2z M57.3,4.3c-0.7,0.1-1.5,0.5-1.6,0.7
			c0.1,0.4,0.3,1,0.6,1.4C56.7,5.6,57.2,4.5,57.3,4.3z"/>
		<path class="st0" d="M76.4,9.4C77.1,9,79,7.9,79,5.6C79,3.5,77.4,3,76.3,3c-0.5,0-0.9,0.1-1.2,0.2c0.2,0.2,0.7,0.4,0.7,1
			c0,0.4-0.7,1.8-1,2.3c-0.3,0.5-1.1,2.1-1.9,2.1c-0.3,0-0.4-0.2-0.5-0.5c-0.5-0.9-0.7-1.3-0.7-1.8c0-1.6,2-3.7,4.8-3.7
			c2.4,0,3.5,1.4,3.5,3.2C79.9,6.6,79.6,8.9,76.4,9.4L76.4,9.4z M72.9,5.1c-0.1,0.1-0.2,0.2-0.5,0.4c-0.1,0.1-0.3,0.2-0.3,0.6
			c0,0.5,0.6,1.4,1,1.4c0.6,0,2-2.8,2-3.6c0-0.2,0-0.4-0.1-0.5C74,3.6,73.4,4.5,72.9,5.1z"/>
		<path class="st0" d="M89.4,3.9L89.4,3.9l0.7-1l0.6-1c0-0.1,0.4-0.7,0.4-1C91,0.9,91,0.8,91.1,0.7c0.1-0.1,0.2-0.1,0.2-0.1
			c0.1,0,0.1,0,0.4,0.2c0.1,0.1,0.5,0.2,0.5,0.3c0,0,0,0.1,0,0.1c0,0.1,0,0.1-0.1,0.2c0.1,0.1,0.4,0.1,0.5,0.1c0.6,0,0.9,0.4,1,0.5
			c0.1,0.2,0.1,0.2,0.4,0.3c0,0,0.3,0.3,0.3,0.5c0.1,0,0.9-0.3,1.1-0.4c0.3-0.3,0.3-0.6,0.3-1c0-0.1,0-0.5-0.1-0.6
			c-0.1-0.1-0.4-0.6-0.5-0.7c0,0-0.1-0.1-0.1-0.1c0,0,0.1-0.1,0.1-0.1c0.1,0,0.3,0.1,0.4,0.1c0.3,0,0.3,0,0.6,0.2
			c0.1,0,0.4,0.1,0.4,0.1c0,0.1,0.1,0.3,0.1,0.3c0,0.2-0.2,1.1-0.3,1.5l1-0.2c0.1,0,0.9-0.2,1-0.2c0.3,0,1,0.6,1.1,0.8
			c0,0,0,0.1,0,0.2c0,0.3-0.1,0.3-0.8,0.4c-0.1,0-0.5,0.2-0.5,0.2c-0.1,0-0.1-0.1-0.1-0.1c0.2-0.2,0.3-0.6,0.3-0.6
			c0-0.2-0.2-0.3-0.3-0.3c-0.9,0-1.8,0.3-1.9,0.3c-0.1,0-0.2,0.2-0.3,0.2c0,0-0.1,0-0.1,0c0,0-0.2-0.1-0.2-0.1
			c-0.1,0-0.8,0.3-0.9,0.3c0,0-0.2,0-0.2,0s0,0-0.1,0v0.3c0,0.1-0.1,0.3-0.1,0.3s0,0.2,0,0.2c0,0,0,0.1,0,0.2c0,0.1,0,0.2,0,0.3
			c0,0-0.1,0.1-0.1,0.1C94.1,4.9,94.1,5,93.8,5l-0.1-0.3c0-0.3,0-0.3,0.1-0.7C93.9,3.7,94,3,94,2.9c0,0,0-0.3-0.1-0.5h-0.1
			c0,0-0.3,0.1-0.4,0.1c-0.3,0-0.6-0.4-0.7-0.5c-0.3-0.2-0.3-0.3-0.7-0.4h-0.1c-0.1,0.1-0.7,1.2-0.7,1.2c0.1,0,0.7,0.2,0.7,0.2
			c0.1,0,0.1,0.1,0.1,0.2c0,0.3,0,0.7-0.3,0.7c-0.1,0-0.1,0-0.2-0.2c0,0-0.3-0.4-0.3-0.5c-0.1-0.1-0.1-0.1-0.1-0.2
			C91,3,91,3,90.8,3.4c0,0-0.8,0.9-0.8,1c-0.1,0.1-1.2,0.9-1.4,1c0,0-0.1,0-0.1,0c-0.1,0.1-0.2,0.2-0.8,0.4c-0.1,0-0.1,0.1-0.2,0.1
			C87.8,5.6,88.4,5,88.5,5L89.4,3.9z M90.3,6.4c0-1.2,0-1.3-0.2-1.6c0,0-0.2-0.1-0.3-0.1l0-0.1l0.2,0c0.1-0.1,0.2-0.1,0.4-0.1
			c0.4,0,2.1-0.8,2.2-0.8c0.3,0,0.6,0.4,0.6,0.5c0,0-0.1,0.2-0.1,0.2c-0.2,0.6-0.3,0.6-0.3,1.3c0,0-0.1,0.3-0.1,0.3
			c0,0-0.1,0.3-0.1,0.3c-0.1,0.1-0.1,0.1-0.5,0.2C91.8,6.7,91.3,7,91,7.1c-0.1,0.1-0.1,0.1-0.2,0.1c-0.1,0.3-0.1,0.3-0.1,0.5
			c0,0-0.1,0.8-0.1,0.9s0,0.2,0,0.2c0,0,0.1,0.1,0.1,0.1c0.1,0,0.7-0.4,0.9-0.5c0,0,0.5-0.4,0.5-0.4c0-0.1-0.2-0.3-0.3-0.4
			c0-0.1-0.3-0.3-0.3-0.4c0.3,0,0.4,0,0.9,0.2c0.2,0.2,0.3,0.4,0.3,0.8c-0.1,0.1-0.1,0.1-0.2,0.1c-0.1,0-0.2-0.1-0.3-0.1
			c-0.2,0.1-0.7,0.8-0.8,1c-0.1,0.1-1.1,1.1-1.2,1.1c-0.1,0.1-0.2,0.1-0.2,0.1c0,0-0.1,0-0.1,0c-0.1-0.4-0.1-0.4-0.3-0.5
			c0,0-0.1-0.1-0.1-0.2C89.7,9.4,90,9,90,8.9c0.1-0.2,0.2-1.1,0.2-1.2L90.3,6.4z M91.1,4.7c-0.2,0-0.2,0.1-0.2,0.5
			c0,0.1-0.1,0.3-0.1,0.4c0,0.1,0,0.1,0.1,0.1c0,0,0.2-0.1,0.3-0.1c0.3-0.2,0.3-0.3,0.5-0.3c0,0,0.3,0,0.3,0.1
			c0,0.1-0.1,0.2-0.3,0.2c0,0-0.3,0.1-0.4,0.2c-0.1,0-0.1,0-0.3,0.1c0,0,0,0.1,0,0.2c0,0,0,0,0,0.2c0,0-0.1,0.4-0.1,0.4
			c0,0.1,0,0.1,0.1,0.1c0,0,1-0.5,1.2-0.5c0.2-0.1,0.2-0.1,0.2-0.2c0,0,0.1-1,0.1-1.2c0-0.1,0-0.4,0-0.5c0-0.1,0-0.1-0.1-0.2
			C92.1,4.3,91.2,4.6,91.1,4.7z M94.7,4.6c0.1,0,0.5,0.1,0.6,0.1c0,0,0.1,0,0.1,0l0.9-0.3c0.1,0,0.5-0.2,0.5-0.2
			c0.1,0,0.3-0.1,0.4-0.1c0.3,0,0.4,0,0.5,0.1C98,4.3,98,4.3,98.1,4.4c0,0.1,0,0.1,0,0.1c-0.1,0.1-0.6,0.8-0.6,0.9v0.1
			c0.2,0,0.3,0.2,0.3,0.3S97.7,6,97.6,6.1c-0.1,0-0.6,0.1-0.7,0.1l-1,0.3l-0.4,0.2c0,0.2,0,0.8,0,1l0.1,0l1.2-0.3
			c0.3-0.1,0.7-0.3,1-0.3c0.1,0,0.7,0.2,0.9,0.4c-0.1,0.3-0.3,0.7-0.3,0.7c0,0.1-0.1,0.3-0.1,0.4c0.1,0.1,0.6,0.7,0.6,0.8v0
			c-0.1,0.1-0.2,0.1-0.3,0.1c-0.1,0-0.7-0.1-0.9-0.1c-0.2,0-2.2,0.2-2.2,0.5c0,0.3-0.3,1.7-0.4,1.7c-0.2,0-0.3-0.9-0.3-0.9
			c0-0.1,0-0.3,0-0.4C94.6,10,95,8,95,7.6c0-0.1,0-0.5,0-0.6c0-0.1,0-0.4,0-0.5c0-0.1,0-0.6,0-0.7c0-0.2,0-0.4-0.2-0.6
			C94.7,5,94.7,5,94.7,4.9c0-0.1,0-0.1-0.1-0.1L94.7,4.6z M97,9c0.3-0.1,0.4-0.1,0.4-0.2c0.2-0.4,0.2-0.8,0.2-0.9c0-0.1,0-0.2,0-0.3
			L97,7.7L95.8,8c-0.3,0.1-0.3,0.1-0.4,0.1c0,0.1,0,0.6,0,0.7V9c0,0.1,0,0.2,0,0.2c0,0,0,0.1,0.1,0.2L97,9z M95.9,4.9
			c-0.2,0.1-0.4,0.1-0.4,0.4c0,0.1,0,0.3,0,0.3c0,0,0,0.2,0,0.2c0,0.1-0.1,0.3-0.1,0.3c0,0,0,0,0,0.1c0.2,0,1.2-0.3,1.3-0.4
			c0.1-0.1,0.3-0.8,0.3-0.9c0-0.1,0-0.1,0-0.3L95.9,4.9z"/>
	</g>
	<g>
		<g>
			<path class="st1" d="M36.7,51.3c-0.2-1.4-0.5-2.9-0.3-4.3c-0.1,0-0.2-0.1-0.3-0.1c-1-0.2,0.5-4.4-1.4-4.2c-0.3,1.6,0.7,3.3,0,4.9
				c-3.3-4.4-1.8,1.7-0.6,1.6c-0.5,0-0.6,0-0.9-0.2c-0.3,0-0.5,0.1-0.7,0.4c0.3,0.6,0.8,2.2-0.2,2.1c0.1,0.3,0,0.7,0.2,1
				c-0.3,0.6-0.6,1.5-0.9,2.1c-0.7,1.7-1.5,2.5-3.2,3.1h-1.1V58h-0.4v0.2h-0.9v0.2c0,0.5-3.9-2.2-4.1-2.4c-0.8-0.5-1.8-0.7-2.2-1.7
				c-0.1,0-0.2-0.1-0.4-0.1c-0.2-0.5-1.5-1.5-2-1.5c-0.1-0.1-0.1-0.3-0.2-0.4c-0.4-0.1-0.9-0.3-1.3-0.4c-0.1-0.1-0.1-0.3-0.2-0.4
				c-0.2-0.1-0.4-0.1-0.7-0.2v-0.2c-1-0.6-2.1-0.7-2.8-1.5c-0.2-0.2,0,0-0.2-0.2c0.8-0.7,1.6-1.4,2.4-2.2c0.1-0.1,0.1-0.3,0.2-0.4
				h0.4c0.1-0.1,0.1-0.3,0.2-0.4h0.4c0.1-0.1,0.1-0.3,0.2-0.4h0.4c0.7-0.4,1.3-0.9,2.2-1.1v-0.4c0.9-0.2,1.6-0.8,2.4-1.1
				c1-0.3,1.5,0.2,2.2-0.4c0.7-0.4,1.5-1.6,1.7-2.3c0.2-1-0.8-1.3-0.8-2v-0.4c-0.1-0.1-0.3-0.2-0.4-0.4c-1.3-0.2-2.6-0.5-4.3-0.4
				c0.2-0.6,0.2-0.7,0.9-0.9v-0.4h0.4c0.2-0.8,1.5-2.3,2.2-2.6h0.9v-0.2h0.4v-0.2h0.4c0.1-0.1,0.1-0.3,0.2-0.4
				c0-0.1,1.3-0.5,1.6-0.7c0.4-0.4,0.7-1.1,0.9-1.6c0.7-1.8-0.6-1.9-1.2-3.1H25v-0.2c-1.7-0.6-5.8,1.4-5.4-1.5
				c0.2-1.2,0.3-2.4,0.8-3.4c0.9-1.7,1.2-3.4-0.1-5c-1.1-1.4-3.2-2.4-4.8-1.1c-0.5,0.4-0.7,1.1-0.9,1.6c-0.1,0.3-0.7,3.1-1,3.1h-0.2
				c-0.1,0.6-0.1,1.2-0.2,1.7c-0.3,1.1-0.7,2.5-0.7,3.9c-0.7,0.4-1.4,0.9-2.2,1.3c-0.3,0.1-1.3-0.2-1.3-0.2v0.2
				c-0.1,0.1-0.3,0.1-0.4,0.2c0.2,0.3,0.4,0.6,0.7,0.9h0.4v0.2c0.3,0.3,0.3,0.1,0.4,0.7h0.2v0.4C10.2,29.9,10,30,9.8,30
				c-0.2,0.3-0.4,0.6-0.7,0.9H8.5c-0.1-0.2-0.3-0.4-0.4-0.7c-0.5-0.3-0.9-0.4-1.3-0.9H6.5v-0.9H6.3v-0.9c0.1-0.1,0.3-0.1,0.4-0.2V27
				c-0.2,0.1-0.4,0.1-0.7,0.2V27c-0.9-0.2-2,0-2.4,0.4c-1.7,1-2.5,5.1-1.7,7.8v1.3c0.1,0.1,0.3,0.1,0.4,0.2c0,0.4,0.4,1.3,0.7,1.5
				c0.4,0.2,1.2,0.6,1.6,0.7c1,0.4,1.9,0.7,2.9,0.2c0.6-0.4,1.1-1.5,1.7-1.7c0.2-0.1,0.4-0.1,0.7-0.2c0.1-0.2,0.3-0.4,0.4-0.7
				c0.5-0.4,1-0.9,1.5-1.3c0.1-0.3,0.1-0.6,0.2-0.9c0.3-0.6,0.8-1.1,1.1-1.7c0.4,0.1,0.9,0.1,1.3,0.2c-0.2,0.8-1,1.5-1.5,2.1
				c-0.2,0.2-1.8,1.7-1.8,1.8v2.4c0.5,0.4,1,0.9,1.5,1.3v0.2h0.7v0.2h0.2c-0.1,0.3-0.1,0.6-0.2,0.9c-0.4,0.1-0.6,0-0.9,0.2v0.4h-0.2
				v0.2c-0.7,0-2.3,1.2-2.9,1.7c-0.6,0.5-0.3,1.4-1.2,1.6C8,48,6.2,49,4.4,49.5c-0.9,0.3-1.5,0.9-2.3,1.2c0.2,0.2,0.3,0.3,0.2,0.6
				c0,0-0.5-0.3-0.5-0.2v0.7c-0.5,0.1-1,0.1-1.5,0.2v0.2H0c0,1.2,0.1,2,0.4,2.8c1.4,0.3,2.1,0.9,3.9,0.9c0.4-0.5,1-0.5,1.5-0.9
				c0.4-0.5,0.9-1,1.3-1.5h0.4c0.1-0.2,0.3-0.4,0.4-0.7h0.2v-0.4c0.7-0.1,1.3-0.1,2-0.2v0.2h0.4v0.2h0.7v0.2h0.4v0.2h0.4
				c-0.1,0,1.4,0.9,1.6,1c0.8,0.4,1.5,1.1,2.2,1.6c0.7,0.5,1.2,1.2,1.9,1.7c0.1,0.1,1.7,1.3,1.7,1.3H20v0.2h0.4
				c0.1,0.1,0.1,0.3,0.2,0.4c0.3,0.1,0.6,0.1,0.9,0.2c0.1,0.1,0.1,0.3,0.2,0.4h0.4c0.9,0.5,3.6,1.8,5.4,1.3v-0.2
				c0,0.3,4.5-1.4,4.9-1.5c0.9-0.4,1.8-0.7,2.5-1.5c0.3-0.4,1.1-2.2,1.5-2.2v-0.7h0.2c0.1-0.3,0.1-0.6,0.2-0.9h0.2
				c0,0,0.3-4.1-0.2-4.5C36.9,50.3,37,51,36.7,51.3z M13,42.6c0.3-0.4,0.3-0.5,0.9-0.7v0.4c-0.5,0.1-0.4,0.1-0.7,0.4h-0.4
				C13,42.6,12.8,42.8,13,42.6z M56.2,19h1.1v0.2H58v0.2h0.9v0.2h2.6v0.2H64v0.2h0.4v0.2c0.2-0.1,0.4-0.1,0.7-0.2v-0.4h0.7
				c0-2.6-0.7-3.1-3.2-3.4c-0.3,0-3.9-0.4-3.9-0.3v-0.2h-3.5c-0.5,0.2-0.9,0.6-1.3,0.9C53.9,18.4,54.9,18.5,56.2,19z M118.7,26.6
				c-0.8-1.2-2.2-2.1-3.5-2.8c-3.2-1.7-7.2-2.9-10.8-3.1c-1.1-0.1-2.6-0.2-3.8,0.1c-1.3,0.3-2.3,0.7-3.7,0.7c-0.5,0-2.6-0.1-2.9,0.4
				c-0.4,0.8-1.8,1.7-2.5,2.4c-1,0.9-2.8,2.1-3.2,3.3c-0.2,0.1-0.4,0.1-0.7,0.2v1.5c0,0.1,1.8,1.4,2,1.5h0.7v0.2h0.4v0.2
				c0.4,0.1,0.9,0.1,1.3,0.2v0.2h1.7c0.1-0.2,0.3-0.4,0.4-0.7c0.4-0.3,0.7-0.6,1.1-0.9c0.1-0.2,0.1-0.4,0.2-0.7
				c0.3-0.2,0.6-0.4,0.9-0.7c0.1-0.2,0.1-0.4,0.2-0.7H97c0.1-0.2,0.3-0.4,0.4-0.7c0.9-0.5,2.6-0.5,3.5-0.7c3.8-0.8,7.1-2.9,11-0.8
				c1.1,0.6,2.4,1.5,2.8,2.7c0.3,0.9,0.1,2.8-1.2,2.5c0.3,0.2,0.3,0.3,0.8,0.5c-1.1,1.5-3,2.3-3.5,0.1c-0.8,0.1-3.2-0.3-3,1
				c-0.8-0.7-1.8-1.8-2.5-2.6c-0.4-0.5-0.5-1.1-1.1-1.3c-0.1,0.2-0.3,0.4-0.4,0.5c-0.1-0.2-0.2-0.3-0.2-0.4c0,0-0.5,1.2-0.5,1.3
				c-0.2-0.3-0.4-0.7-0.4-1.1c-0.3,0.3-0.7,0.6-1,0.9c-0.1-0.7,0.1-1.5,0.1-2.2c-1.3,1-1.2,2.7-1.7,4.1c-0.6,1.6-1.3,3-1.3,4.8
				c-0.1,1.5,0.3,2.1,1.4,3.1c0.8,0.6,1.6,1.1,0.8,2.3c-0.9,1.3-2.7,0.4-4,0.5c-1.2,0.1-2.7,0.4-3.9,0.8c-2.4,0.7-2.7,2.5-1.2,4.6
				c0.7,1,1.9,1.3,2.9,1.9c1,0.6,1.8,1.4,2.6,2.1c2,0.3,3-0.3,4.2-1.6c0.6-0.7,1.7-3.5,2.2-3.5c-0.1,1.3-1,5,0.1,6
				c0.7,0.6,2.4,0.1,2.7-0.7c0.1-0.3-0.2-1-0.2-1.4c0-0.8,0.3-1.6,0.4-2.5c0.2-1.2,0.2-2.1-0.2-3.2c-0.9-1.5-2.3-1.3-1.9-3.3
				c0.3-1.6,0.3-2.3-0.5-3.6c-0.6-1-1.4-1.6-1.2-2.9c0.1-1,0.5-3.1,1.2-4c0.5,0.6,0,1,0.3,1.5c0.2,0.3,0.6,0.4,0.8,0.7
				c0.9,0.9,1.8,1.3,3,1.5c1.1,0.2,2.2,0.9,3.3,1.1c1.4,0.3,3.4-0.4,4.6-1.3c0.5-0.4,1.2-0.5,1.6-1c0.1,0,0.1-0.1,0.1-0.1
				c0.6-0.6,0.2-1,1-1.5c0.3-0.5,0.4-0.9,0.9-1.3C120.5,30.6,119,27.2,118.7,26.6z M92,45.9h-0.4v-0.4h0.2c0.1-0.1,0.1-0.3,0.2-0.4
				h0.4c0.1-0.1,0.1-0.3,0.2-0.4c0.2-0.2,0.4-0.2,0.7-0.4h0.2C93.3,45.2,92.5,45.2,92,45.9z M99.2,47h-0.4c-0.1,0.7-0.4,1.2-0.9,1.5
				c-0.2,0.2,0,0.1-0.4,0.2c-0.4-0.5-1.3-1-2-1.1v-0.2c-0.4,0.1-0.7,0.1-1.1,0.2v0.2h-0.2c0.1,0.2,0.1,0.4,0.2,0.7
				c-0.2-0.1-0.4-0.1-0.7-0.2c0.1-0.8,0.3-0.6,0.4-1.3c0.9-0.3,0.6-0.4,1.1-0.9v-0.2c0.8-0.5,2.8-0.5,4.1-0.4
				C99.4,46,99.3,46.5,99.2,47z M103.8,30.5h-0.2V30h0.2V30.5z M105.1,33.1h-0.2v-0.4h0.2V33.1z M106.8,32.4c-0.6-0.1-0.6,0-0.9-0.4
				h0.7c0.2,0.2,0,0,0.2,0.2V32.4z M56.7,22.4c0.4-0.2,0.4-0.4,1.1-0.4v-0.4c-0.4,0.1-0.7,0.1-1.1,0.2V22.4z M76.2,29.4
				c-0.9-0.2-3.7-0.6-4.1-1.1c-0.7-0.4-0.1-0.2-0.4-0.9h-0.2V27c-0.1-0.1-0.3-0.2-0.4-0.4c-1.6-0.3-3.6,0-5.2,0.2
				c-0.4-0.1-0.9-0.1-1.3-0.2v0.2c0,0-3.1,0.3-3.3,0.2c-0.5-0.3-1-1.9-1.3-2.4c-0.3-0.7-0.9-1.6-1.6-1.8c-0.1,0.2-0.1,0.3-0.1,0.5
				c-0.1,0-0.2-0.1-0.3-0.1c-0.3,0.6,0.4,1.3,0.4,2.1c0,0.5,0,1.9-0.3,2.3c-0.2,0.3-1.5,0.6-1.5,0.5c-0.1,0.5-0.2,0.8-0.2,1.5
				c-0.6-0.2-0.5-0.1-0.7-0.7h-0.7c-0.7,0-2.4,3.2-2,3.9c-0.4,0.6-0.6,1.4-1.2,1.8c-0.4-1.2,0-3.5,0.7-4.6c0.8-1.3,3.4-2.2,3.9-3.5
				c0.3-0.7-0.3-1-0.5-1.7c-0.2-0.7-0.1-0.9-0.1-1.6v-0.7c-0.2,0.1-1.7,1.1-1.7,1.1v0.4c-0.7,0.1-0.7,0.1-1.1,0.4v0.2h-0.7
				c-0.8,0-3.4,3.9-3.9,4.6c-0.2,0.4-1.5,3.7-1.6,3.7h-0.2v0.4c-0.1,0.1-0.3,0.1-0.4,0.2c-0.1,0.3-0.1,0.6-0.2,0.9h-0.2
				c-0.6,1.7,1.3,4.7,2,5.2c1.4,1.5,5.5-0.8,6.1-1.7c0.9,0.1,1,0.5,1.7,0.7c0.2,0.7,0.5,0.8,0.9,1.3h0.2v0.7H56
				c-0.1,0.8-0.3,1.2-0.7,1.7c-0.1,0.1-0.3,0.1-0.4,0.2v0.4h-0.2c-0.5,1.1-0.3,2.9,0.4,3.5c0.1,0.1-0.1,0.4-0.1,0.5
				c-0.1,0-0.2,0-0.3,0c0.1,0.5,0.5,1.2,0.9,1.6c0.2,0.2,0.5,0.1,0.7,0.2c0.3,0.3,0.7,1.1,1,1.6c0.6,0.7,1.2,1.6,2,2.2
				c0.4,0.3,1,0.8,1.6,0.6c0.2-0.1,1.2-1,0.9-1.1c0.9,0.1,0.8,0.5,1.5,0.7c0.4,0.1-0.9-1.7-0.9-1.7c-0.4-0.5-0.8-1.1-1.2-1.6
				c-0.5-0.5-1.4-1-2-1.5c-1.1-1-2.5-2-2.5-3.5c1.4-0.3,2.4-1.3,3.3-2.2c0.1-0.1,0.3-0.1,0.4-0.2v-0.4c0.2-0.1,0.4-0.3,0.7-0.4v-0.4
				c0.3-0.2,0.6-0.4,0.9-0.7v-1.3h-0.7c0-1.9,0.7-2.6,0.7-4.6c0.9,0.2,1.9,0.4,2.8,0.7v0.2H66v0.2c0,0.4,4.8,0.3,5.3,0.1
				c1.3-0.4,3.6-1.4,4-2.9c0.1,0,0.3,0,0.4,0V32c0.4-0.2,0.6-0.3,1.1-0.4v-1.1c-0.1-0.1-0.3-0.1-0.4-0.2
				C76.3,30.1,76.3,29.6,76.2,29.4z M58.4,35.7h-0.9v-0.2c-0.4-0.4-0.5-1.3-0.4-2.2c0.5-0.4,0.8-1.2,1.1-1.7
				c0.1-0.1,0.3-0.1,0.4-0.2c0.2,0.2,0,0,0.2,0.2C58.7,32.9,58.5,34.3,58.4,35.7z M71.6,30.5c-0.1,0.4,0,0.2-0.2,0.4v0.2h-1.1v0.2
				c-0.6,0.2-0.6,0-1.1,0.4c-2.9,0-4.9,0-5.9-1.7H63c-0.1,0.1-0.1,0.3-0.2,0.4H63v0.2c-0.2,0.1-0.4,0.3-0.7,0.4v2.2
				C62,33,61.9,30.8,61.9,30c0.9-0.1,1.7-0.3,2.6-0.4v-0.2c0.6-0.2,2.9-0.5,3.7-0.2v0.2h0.7v0.2h1.1v0.2c0.5,0.1,1,0.1,1.5,0.2v0.2
				h0.4C71.7,30.5,71.9,30.3,71.6,30.5z M73.8,33.7h-0.2c0.1-0.2,0.3-0.4,0.4-0.7h0.2C74.1,33.3,74,33.5,73.8,33.7z M74.9,32.9h-0.2
				v-0.4h0.2V32.9z M113.1,31.6h0.2v-0.2h-0.4c-0.1,0.1-0.1,0.3-0.2,0.4C113.1,31.9,112.9,31.7,113.1,31.6z M33.9,45.9h0.7
				c0-0.8-0.1-2.2-0.4-2.6c-0.2-0.2,0,0-0.2-0.2l-0.2,0.2v0.2h0.2V45.9z M35.8,43.7v0.2H36v-0.7h-0.4C35.7,43.7,35.6,43.5,35.8,43.7
				z M32.8,43.7v-0.2h-0.4C32.6,43.7,32.3,43.6,32.8,43.7z M32.6,44.6H33v-0.4h-0.4V44.6z M111.4,52.2c-1.2-0.4-2-1.6-3.4-1.5
				c0.4,0.4,1,0.6,1.2,1c-0.3-0.1-0.7,0-1-0.1c0.1,0.6,0.7,0.8,1.2,1.1c-0.1,0.2,0,0.6-0.1,0.8c0.7,0.2,1.3,0.5,1.9,1
				c-0.5,1.3-2.3,2.1-3.4,2.7c-1.7,1-3,1.6-5,1.8v0.2h-0.9c-0.1,0-0.4,0.5-0.7,0.7V60c-0.3-0.1-0.6-0.3-0.9-0.4v-0.2
				c-0.6-0.1-1.2-0.1-1.7-0.2c-0.7-0.3-0.6-0.7-1.7-0.9v0.4c0.4,0.1,0.2,0,0.4,0.2h0.2v0.7h0.4c-0.1,0.2-0.1,0.4-0.2,0.7
				c0.8,0.1,1.1,0.5,1.7,0.7h1.7c0.1,0.1,0.1,0.3,0.2,0.4h0.4v0.2h0.2c0-0.7,1.4,0.1,1.4,0c1.2-0.8,3.5-1.3,4.9-1.3V60
				c0.7-0.2,1.3-0.4,2-0.7v-0.2c0.2-0.1,0.4-0.1,0.7-0.2c0.1-0.1,0.1-0.3,0.2-0.4h0.4c0.4-0.5,0.9-1,1.3-1.5
				c0.1-0.1,0.3-0.1,0.4-0.2v-0.4h0.2v-0.4h0.2C113.8,54,113.3,52.9,111.4,52.2z M66.6,58H66v-0.2h-0.7v-0.2c-0.5-0.1-1-0.1-1.5-0.2
				v-0.2h-0.4V57c-0.4-0.1-0.9-0.1-1.3-0.2c-0.1-0.1-0.1-0.3-0.2-0.4h-0.4v-0.2c-0.8-0.3-1.4,0.1-2-0.4h-0.2
				c0.1,0.5,0.1,0.4,0.4,0.7v0.2h0.4c0.1,0.1,0.1,0.3,0.2,0.4c0.2,0.1,0.4,0.1,0.7,0.2v0.2c-0.4-0.1-0.9-0.3-1.3-0.4v0.7
				c0.2-0.1,0.4-0.1,0.7-0.2c0.1,0.1,0.4,0.4,0.4,0.4c0.2,0.4-0.2,0.4-0.2,0.4c0.1,0.4,0.4,0.5,0.9,0.7c0.1,0.4,0,0.2,0.2,0.4v0.2
				h0.7c0.1,0.1,0.1,0.3,0.2,0.4h0.7v0.2h0.7v0.2c0.5,0.1,1,0.1,1.5,0.2v0.2c1,0,1.3-0.1,2-0.4v-0.2h0.4V60c0.4-0.3,0.5-0.5,1.1-0.7
				v-0.4h1.1v-0.2c-1.1-0.1-2.2-0.3-3.3-0.4V58z M61.7,58.7c0,0-0.1,0-0.4-0.4C61.3,58.3,61.8,58.5,61.7,58.7z"/>
		</g>
	</g>
</g>
</svg>
