<svg xmlns="http://www.w3.org/2000/svg" width="56" height="49" viewBox="0 0 56 49"><defs><style>.cls-1{fill:#898028;}.cls-2{fill:#fff;}</style></defs><g id="レイヤー_2" data-name="レイヤー 2"><g id="フッター"><polyline class="cls-1" points="14 0 0 24.5 14 49 42 49 56 24.5 42 0 14 0"/><polygon class="cls-2" points="22.25 16.89 28 13.13 33.74 16.89 28 10.41 28 10.41 28 10.41 22.25 16.89"/><path class="cls-2" d="M19,33.76c0,.72.05,1,.22,1.08a1.58,1.58,0,0,0,.91.16v.3H16.76V35c.52,0,.81-.06.93-.19s.19-.37.19-1.05V26.81c-2.15,0-2.49.3-2.79,2.27l-.39,0,.22-2.55h7l.22,2.55-.39,0c-.31-2-.65-2.25-2.81-2.27Z"/><path class="cls-2" d="M24.71,27.73a3.72,3.72,0,0,1,3.06-1.39,3.69,3.69,0,0,1,3.05,1.39,5,5,0,0,1,1,3.17,4.92,4.92,0,0,1-1,3.16,3.65,3.65,0,0,1-3.05,1.4,3.72,3.72,0,0,1-3.06-1.4,5,5,0,0,1-1-3.16A5,5,0,0,1,24.71,27.73Zm.86,6.08a2.49,2.49,0,0,0,4.39,0,5.94,5.94,0,0,0,.65-2.91A5.94,5.94,0,0,0,30,28a2.38,2.38,0,0,0-2.19-1.32A2.41,2.41,0,0,0,25.57,28a6,6,0,0,0-.65,2.91A6.07,6.07,0,0,0,25.57,33.81Z"/><path class="cls-2" d="M35.6,33.76c0,1.12.08,1.21,1,1.24v.3h-3V35c.86,0,.93-.11.93-1.24V28.05c0-1.12-.06-1.21-.93-1.24v-.3h3.3a5.31,5.31,0,0,1,2,.33A2.13,2.13,0,0,1,40.13,29a2.12,2.12,0,0,1-1.46,2.25,7.2,7.2,0,0,1-2.29.29H35.6Zm.86-2.63a2.89,2.89,0,0,0,1.95-.51A2.21,2.21,0,0,0,39,29c0-1.42-.75-2.12-2.28-2.12H35.6v4.25Z"/></g></g></svg>