<?xml version="1.0" encoding="utf-8"?>
<!-- Generator: Adobe Illustrator 25.2.3, SVG Export Plug-In . SVG Version: 6.00 Build 0)  -->
<svg version="1.1" id="レイヤー_1" xmlns="http://www.w3.org/2000/svg" xmlns:xlink="http://www.w3.org/1999/xlink" x="0px"
	 y="0px" viewBox="0 0 429.9 103" style="enable-background:new 0 0 429.9 103;" xml:space="preserve">
<style type="text/css">
	.st0{fill:#FFFFFF;}
</style>
<g>
	<g>
		<path class="st0" d="M32.1,30.9l-3.2-2.5c-1.6-1.3-3.9-1.2-5.4,0.2c-0.6,0.6-1.2,1.1-1.5,1.5c0,0-0.1,0.1-0.1,0.1c0,0,0,0,0,0
			c-0.1,0.1-0.3,0.1-0.4,0.1l0,0c-1.7-0.3-6.3-4.4-7.3-5.4C13.1,23.8,7.9,18,9,17.1c0.4-0.3,0.9-0.8,1.5-1.5
			c1.4-1.5,1.5-3.8,0.2-5.4L8.3,7.1C8.1,6.8,7.9,6.6,7.6,6.4c0,0,0,0,0,0C7.5,6.3,7.3,6.2,7.2,6.1c0,0,0,0-0.1,0
			C6.8,5.9,6.4,5.7,5.9,5.6l0,0c-0.1,0-0.3-0.1-0.5-0.1c0,0,0,0,0,0c-0.5-0.1-1,0-1.5,0.1C2.6,5.9,1.6,6.9,1.1,8.1
			c-0.6,1.6-1.3,3.8-1,5.7c0,0.1,0,0.2,0.1,0.3c0,0,0,0,0,0C0.7,17.3,5.5,24.1,9,28c0,0.1,0.1,0.1,0.1,0.2c0.1,0.1,0.2,0.2,0.2,0.3
			l0,0c0.2,0.2,1.1,1.1,1.3,1.3l0,0c3.9,3.6,11.1,8.7,14.3,9.3c0,0,0,0,0,0c0.1,0,0.2,0,0.3,0.1c1.9,0.2,4.2-0.4,5.7-1
			c1.2-0.5,2.2-1.6,2.5-2.9C34,33.6,33.4,31.9,32.1,30.9z"/>
	</g>
	<g>
		<g>
			<path class="st0" d="M60.1,0c4,0,7.3,1.5,9.9,4.6c3.3,3.8,4.9,9.6,4.9,17.3c0,7.2-1.4,12.7-4.3,16.4c-2.9,3.8-6.3,5.6-10.3,5.6
				c-3.9,0-7.1-1.6-9.7-4.7c-3.3-4-4.9-9.7-4.9-17.2c0-7.1,1.5-12.8,4.6-17C52.8,1.7,56,0,60.1,0z M60.3,2.2c-2.7,0-4.8,1.3-6.3,3.9
				c-1.5,2.6-2.3,7.9-2.3,16c0,7.9,0.8,13.2,2.3,15.9c1.6,2.6,3.7,4,6.3,4c2.6,0,4.7-1.2,6.1-3.7C68.1,35.3,69,30,69,22.3
				c0-8-0.8-13.3-2.4-16C65,3.6,62.9,2.2,60.3,2.2z"/>
			<path class="st0" d="M87.3,36.5c-0.9,1.2,3.7,1.8,13.8,1.8c1.5,0,2.6-0.4,3.3-1.2c0.6-0.8,1.4-3,2.2-6.6h2.1l-1,12.7H80.4v-1.6
				l8.9-10.1c4.9-5.4,7.9-8.8,8.9-10.1c1.4-2,2.5-3.9,3.1-5.7c0.7-1.8,1-3.5,1-5c0-2.5-0.7-4.5-2.1-5.9s-3.3-2.2-5.8-2.2
				c-2.8,0-5,0.7-6.8,2C85.9,5.8,85,7.2,85,8.6c0,0.5,0.1,0.9,0.4,1.2c0.2,0.3,0.8,0.5,1.6,0.7c2.1,0.5,3.1,1.7,3.1,3.6
				c0,1-0.3,1.9-1,2.6c-0.7,0.7-1.6,1-2.7,1c-1.2,0-2.3-0.6-3.3-1.7c-0.9-1.2-1.4-2.7-1.4-4.5c0-2.1,0.5-4,1.6-5.7
				c1.1-1.7,2.7-3.1,4.8-4.2c2.2-1.1,4.5-1.6,7-1.6c2.5,0,4.8,0.5,6.9,1.6c2.1,1.1,3.7,2.4,4.8,4.2c1.1,1.7,1.6,3.6,1.6,5.6
				c0,1.4-0.3,2.8-0.8,4.3c-0.5,1.4-1.3,2.8-2.3,4.1c-1.8,2.2-3.6,4-5.4,5.6l-8.1,6.8C89.7,33.8,88.2,35.3,87.3,36.5z"/>
			<path class="st0" d="M136.1,0.8h2v28.9h7v2.6h-7v6.5c0,0.6,0.2,1,0.7,1.4c0.7,0.5,1.4,0.7,2.3,0.7h2.6v2.3h-17v-2.3h3.1
				c1.1,0,1.8-0.2,2.3-0.7c0.5-0.4,0.7-1.1,0.7-2v-6h-17.3v-2.9L136.1,0.8z M132.8,9l-14.8,20.7h14.8V9z"/>
			<path class="st0" d="M169,20.6c2.9,0.7,5.2,1.9,6.8,3.5c2.1,2.1,3.1,4.7,3.1,7.8c0,3.5-1.2,6.3-3.7,8.4
				c-2.8,2.4-6.5,3.7-11.1,3.7c-2.7,0-5.1-0.4-7-1.3c-2-0.9-3.4-2.1-4.4-3.6c-1-1.5-1.5-3.2-1.5-5.2c0-1.5,0.4-2.8,1.1-3.7
				c0.8-0.9,1.7-1.3,2.8-1.3c1,0,1.9,0.3,2.5,1c0.6,0.7,0.9,1.6,0.9,2.8c0,0.8-0.2,1.4-0.5,1.9c-0.3,0.5-0.9,1-1.7,1.5
				c-0.9,0.5-1.3,0.9-1.3,1.3c0,0.6,0.3,1.3,0.9,2.1s1.5,1.4,2.8,1.8c1.2,0.5,2.7,0.7,4.6,0.7c3.2,0,5.6-0.8,7.1-2.4
				c1.5-1.6,2.3-4.1,2.3-7.6c0-3.6-0.7-6.2-2-7.8c-1.3-1.5-3.3-2.3-5.9-2.3c-0.7,0-1.6,0.1-2.6,0.2c-0.8,0.1-1.4,0.2-1.8,0.2
				c-0.6,0-1.1-0.1-1.4-0.4c-0.3-0.3-0.5-0.6-0.5-1c0-0.4,0.2-0.8,0.5-1c0.3-0.2,0.8-0.4,1.5-0.4l1.7,0.1l1.5,0.1
				c2.6,0,4.5-0.7,5.8-2c1.3-1.3,2-3.4,2-6.1c0-3.4-0.6-5.8-1.9-7.2c-1.2-1.4-3.1-2.2-5.6-2.2c-2.3,0-4.1,0.4-5.4,1.2
				c-1.3,0.8-2,1.6-2,2.3c0,0.4,0.4,1,1.2,1.8c1.1,1,1.7,2.1,1.7,3.2c0,0.8-0.3,1.5-0.9,2.1c-0.6,0.6-1.4,0.9-2.4,0.9
				c-1,0-1.8-0.4-2.5-1.2c-0.6-0.8-1-1.9-1-3.2c0-2.2,0.8-4.1,2.3-5.7c2.2-2.4,5.3-3.5,9.4-3.5c3.8,0,6.9,1,9.2,3.1
				c2.3,2.1,3.4,4.6,3.4,7.6c0,2.2-0.6,4.1-1.8,5.7C174.2,18,172,19.4,169,20.6z"/>
			<path class="st0" d="M186,21.2h12.4v4.6H186V21.2z"/>
			<path class="st0" d="M212.5,36.5c-0.9,1.2,3.7,1.8,13.8,1.8c1.5,0,2.6-0.4,3.3-1.2c0.6-0.8,1.4-3,2.2-6.6h2.1l-1,12.7h-27.4v-1.6
				l8.9-10.1c4.9-5.4,7.9-8.8,8.9-10.1c1.4-2,2.5-3.9,3.1-5.7c0.7-1.8,1-3.5,1-5c0-2.5-0.7-4.5-2.1-5.9s-3.3-2.2-5.8-2.2
				c-2.8,0-5,0.7-6.8,2c-1.8,1.3-2.6,2.7-2.6,4.2c0,0.5,0.1,0.9,0.4,1.2c0.2,0.3,0.8,0.5,1.6,0.7c2.1,0.5,3.1,1.7,3.1,3.6
				c0,1-0.3,1.9-1,2.6c-0.7,0.7-1.6,1-2.7,1c-1.2,0-2.3-0.6-3.3-1.7c-0.9-1.2-1.4-2.7-1.4-4.5c0-2.1,0.5-4,1.6-5.7
				c1.1-1.7,2.7-3.1,4.8-4.2c2.2-1.1,4.5-1.6,7-1.6c2.5,0,4.8,0.5,6.9,1.6c2.1,1.1,3.7,2.4,4.8,4.2c1.1,1.7,1.6,3.6,1.6,5.6
				c0,1.4-0.3,2.8-0.8,4.3c-0.5,1.4-1.3,2.8-2.3,4.1c-1.8,2.2-3.6,4-5.4,5.6l-8.1,6.8C215,33.8,213.5,35.3,212.5,36.5z"/>
			<path class="st0" d="M261.3,0.8h2v28.9h7v2.6h-7v6.5c0,0.6,0.2,1,0.7,1.4c0.7,0.5,1.4,0.7,2.3,0.7h2.6v2.3h-17v-2.3h3.1
				c1.1,0,1.8-0.2,2.3-0.7c0.5-0.4,0.7-1.1,0.7-2v-6h-17.3v-2.9L261.3,0.8z M258.1,9l-14.8,20.7h14.8V9z"/>
			<path class="st0" d="M276.5,21.2h12.4v4.6h-12.4V21.2z"/>
			<path class="st0" d="M303,36.5c-0.9,1.2,3.7,1.8,13.8,1.8c1.5,0,2.6-0.4,3.3-1.2c0.6-0.8,1.4-3,2.2-6.6h2.1l-1,12.7H296v-1.6
				l8.9-10.1c4.9-5.4,7.9-8.8,8.9-10.1c1.4-2,2.5-3.9,3.1-5.7c0.7-1.8,1-3.5,1-5c0-2.5-0.7-4.5-2.1-5.9s-3.3-2.2-5.8-2.2
				c-2.8,0-5,0.7-6.8,2c-1.8,1.3-2.6,2.7-2.6,4.2c0,0.5,0.1,0.9,0.4,1.2c0.2,0.3,0.8,0.5,1.6,0.7c2.1,0.5,3.1,1.7,3.1,3.6
				c0,1-0.3,1.9-1,2.6c-0.7,0.7-1.6,1-2.7,1c-1.2,0-2.3-0.6-3.3-1.7c-0.9-1.2-1.4-2.7-1.4-4.5c0-2.1,0.5-4,1.6-5.7
				c1.1-1.7,2.7-3.1,4.8-4.2c2.2-1.1,4.5-1.6,7-1.6c2.5,0,4.8,0.5,6.9,1.6c2.1,1.1,3.7,2.4,4.8,4.2c1.1,1.7,1.6,3.6,1.6,5.6
				c0,1.4-0.3,2.8-0.8,4.3c-0.5,1.4-1.3,2.8-2.3,4.1c-1.8,2.2-3.6,4-5.4,5.6l-8.1,6.8C305.4,33.8,303.9,35.3,303,36.5z"/>
			<path class="st0" d="M349.2,0.8v38.1c0,0.6,0.2,1,0.6,1.3c0.6,0.4,1.3,0.6,2.2,0.6h5.9v2.3h-22v-2.3h5.1c1.1,0,1.8-0.2,2.4-0.7
				c0.5-0.5,0.8-1.2,0.8-2V9.3c0-0.6-0.2-1.1-0.7-1.5c-0.5-0.4-1.1-0.6-1.8-0.6h-6.8V5.1c3.2-0.4,5.8-1,7.7-1.6
				c2-0.7,3.7-1.6,5.2-2.7H349.2z"/>
			<path class="st0" d="M380.2,0c4,0,7.3,1.5,9.9,4.6c3.3,3.8,4.9,9.6,4.9,17.3c0,7.2-1.4,12.7-4.3,16.4c-2.9,3.8-6.3,5.6-10.3,5.6
				c-3.9,0-7.1-1.6-9.7-4.7c-3.3-4-4.9-9.7-4.9-17.2c0-7.1,1.5-12.8,4.6-17C372.9,1.7,376.1,0,380.2,0z M380.4,2.2
				c-2.7,0-4.8,1.3-6.3,3.9c-1.5,2.6-2.3,7.9-2.3,16c0,7.9,0.8,13.2,2.3,15.9c1.6,2.6,3.7,4,6.3,4c2.6,0,4.7-1.2,6.1-3.7
				c1.7-2.9,2.5-8.2,2.5-15.9c0-8-0.8-13.3-2.4-16C385.1,3.6,383,2.2,380.4,2.2z"/>
			<path class="st0" d="M418.8,0.8v38.1c0,0.6,0.2,1,0.6,1.3c0.6,0.4,1.3,0.6,2.2,0.6h5.9v2.3h-22v-2.3h5.1c1.1,0,1.8-0.2,2.4-0.7
				c0.5-0.5,0.8-1.2,0.8-2V9.3c0-0.6-0.2-1.1-0.7-1.5c-0.5-0.4-1.1-0.6-1.8-0.6h-6.8V5.1c3.2-0.4,5.8-1,7.7-1.6
				c2-0.7,3.7-1.6,5.2-2.7H418.8z"/>
		</g>
	</g>
</g>
<g>
	<g>
		<path class="st0" d="M0.8,67.3h10.7c-2,2.2-3.2,3.7-4.2,5.6C5.2,76.5,4,81,4,85.2c0,4.2,1.2,8.7,3.2,12.3c1.1,1.9,2.2,3.4,4.2,5.6
			H0.8V67.3z"/>
		<path class="st0" d="M38,78.7c1.6-2.6,2.6-4.5,3.4-7.1c3.9,1.2,3.9,1.2,3.9,1.6s-0.4,0.5-1.7,0.6c-1.5,2-2.9,3.5-4.6,4.8h5.8
			l1.8-2c1.3,1.1,1.7,1.4,3.1,2.5c0.2,0.2,0.4,0.4,0.4,0.6c0,0-0.1,0.2-0.2,0.2c-0.2,0.2-0.2,0.2-2.3,0.4c-0.4,0.4-0.7,0.7-0.9,0.9
			c-1.6,1.8-1.9,2-3,2.9L43.4,84c0.7-1.5,0.9-2,1.7-4.5h-25c-0.2,2-0.6,3.4-1.4,4.5c-0.6,0.9-1.2,1.5-1.6,1.5
			c-0.3,0-0.5-0.3-0.8-0.8c-0.3-0.6-0.5-1.2-0.5-1.6c0-0.5,0.1-0.6,0.6-1c0.7-0.5,1.7-1.8,2.3-2.8c0.5-0.9,0.6-1.7,0.7-3.4h0.6
			c0.1,0.8,0.1,1.2,0.1,1.7c0,0.3,0,0.6,0,1h5.2c-0.3-0.3-0.3-0.4-0.4-0.8c-0.3-0.9-0.7-2.1-1.2-3.2c-0.3-0.7-0.3-0.8-0.8-1.2
			c-1.5,0.1-2.4,0.1-5,0.2L18,72.9c7.5-0.8,12.6-1.6,17.6-2.8c3.8-0.9,6.1-1.7,8.1-2.7c3.3,2.2,3.3,2.2,3.3,2.5
			c0,0.2-0.3,0.4-0.5,0.4c-0.2,0-0.3,0-0.5,0c-0.3,0-0.7-0.1-1.2-0.2c-4.3,1.3-7.9,2-13.6,2.6c0.6,0.4,2.3,1.8,2.9,2.5
			c0.6,0.6,0.9,1,0.9,1.4c0,0.3-0.2,0.9-0.4,1.5c-0.1,0.2-0.2,0.4-0.5,0.6H38z M49.7,98.4c-1.7,0.5-2.5,1.1-3.1,2.8
			c-2.8-0.7-4.4-1.2-7.2-2.5C36.9,97.5,35,96.4,33,95c-4.6,3.3-10.1,5.5-16.9,6.8l-0.2-0.5c6.3-2.1,10.6-4.2,15.3-7.8
			c-2.9-2.6-4.6-5-5.9-8.4h-1.3c-0.9,0-1.7,0-3.1,0.2L20.7,84c1.7,0.2,2.1,0.3,3.4,0.3h15c0.6-0.7,0.8-0.9,1.4-1.7
			c1.3,1,1.7,1.3,3.1,2.4c0.1,0.1,0.2,0.3,0.3,0.5c0,0-0.2,0.2-0.2,0.3c-0.2,0.2-0.4,0.2-2.2,0.6c-2.5,3.4-4.2,5.3-6.9,7.4
			c4,2.2,9,3.5,15.1,4.2V98.4z M33.1,78.7c-0.3-0.3-0.3-0.3-0.5-0.9c-0.5-1.7-1.6-3.9-2.3-4.9c-2.6,0.2-4.2,0.4-6.4,0.5
			c0.6,0.5,2,1.7,2.4,2c0.5,0.5,0.8,0.9,0.8,1.3c0,0.6-0.3,1.4-0.8,2H33.1z M26.4,85.2c0.6,1.5,1,2.2,2.2,3.7c1.2,1.4,2.5,2.6,4,3.7
			c2.6-2.3,4.2-4.1,6.3-7.4H26.4z"/>
		<path class="st0" d="M53.8,87.7c2.5-3.5,4.3-6.9,6.3-11.6c1.4-3.4,2.1-5.4,2.6-8.2c1.5,0.4,3.5,0.9,4.1,1.2
			c0.2,0.1,0.3,0.2,0.3,0.4c0,0.4-0.4,0.6-1.8,0.8c-1.4,3.7-2.6,6.1-5.1,10c2.7,0.4,3.2,0.5,3.2,0.9c0,0.3-0.2,0.4-1.2,0.8v10.2
			c0,5,0,5,0.1,9.3c0,0.5-0.4,0.7-1.4,0.8c-0.4,0-0.6,0-0.6,0s-0.1,0-0.1,0c-0.4,0-0.6-0.2-0.6-0.5c0,0,0,0,0-0.1
			c0.1-4.3,0.2-6.6,0.2-9.3V81.2c-2.4,3.7-3.3,4.8-5.3,6.8L53.8,87.7z M66.4,79.4c-0.7,0-1.4,0-3,0.2l-0.3-1.3
			c1.7,0.2,2.5,0.3,3.3,0.3h12.4v-6.3c0-1.9,0-2.5-0.2-4c3.4,0.4,4.4,0.6,4.4,1.1c0,0.3-0.5,0.6-1.6,1v8.3h1.1
			c0.9-1.3,1.2-1.7,2.1-2.8c1.5,1.2,2,1.6,3.4,3c0.1,0.1,0.2,0.3,0.2,0.3c0,0.2-0.2,0.3-0.5,0.3h-6.3v10.9c0,2.5,0,6.1,0.1,8.3
			c-0.1,1.1-0.3,1.6-1,2.1c-0.6,0.5-1.4,0.7-4,1.2c-0.4-1.8-0.7-2-6.7-3.1l0-0.5c1.1,0.1,2.1,0.1,2.7,0.2c3.2,0.2,3.4,0.2,5.4,0.2
			c0.6,0,0.9-0.2,0.9-0.8V79.4H66.4z M66.8,83c2,1.2,3.6,2.4,5.4,4.1c1.4,1.3,1.7,1.8,1.7,2.7c0,1-0.9,2.6-1.5,2.6
			c-0.4,0-0.7-0.3-0.9-1c-1.3-3.3-2.8-5.7-5-8L66.8,83z"/>
		<path class="st0" d="M94.8,97c0,0.5-0.2,0.6-1.2,0.6c-0.3,0-0.5,0-0.6,0c0,0-0.1,0-0.1,0c-0.3,0-0.5-0.2-0.5-0.5
			c0.1-4.8,0.2-9.5,0.2-17.5c0-4.3,0-6.1-0.2-9.7c1.2,0.7,1.5,0.9,2.7,1.8h4.7c0.6-0.7,0.8-0.9,1.4-1.7c0.9,0.7,1.1,0.9,2,1.7
			c0.3,0.2,0.5,0.4,0.5,0.5c0,0.3-0.5,0.6-1.3,1v7.2c0,3.6,0,8.6,0.1,15.1c0,0.3-0.1,0.4-0.3,0.5c-0.2,0.1-1.2,0.2-1.6,0.2
			c-0.3,0-0.5-0.1-0.5-0.5v-2.1h-5.1V97z M99.9,72.5h-5.1v9.3h5.1V72.5z M94.8,82.7v10.1h5.1V82.7H94.8z M119.7,86.4h0.9
			c0.9-1.1,1.2-1.4,2-2.4c1.2,1.1,1.6,1.5,2.8,2.6c0.2,0.2,0.3,0.3,0.3,0.4c0,0.2-0.2,0.3-0.5,0.3h-5.5v5.9c0,0.5,0,3.6,0.1,4.9
			c-0.1,1.7-0.1,2-0.5,2.5c-0.5,0.7-1.4,1-3.6,1.5c-0.2-1-0.4-1.5-1.1-2c-0.6-0.4-1.4-0.6-4-0.9v-0.6c2.7,0.2,3.6,0.2,6.1,0.3
			c0.4,0,0.5-0.1,0.5-0.6v-11h-10c-2.1,0-2.4,0-3.6,0.3l-0.3-1.5c1.4,0.3,2.1,0.4,4,0.4h10v-5.1h-10.6c-2,0-2.5,0-3.5,0.3l-0.3-1.4
			c1.2,0.2,1.6,0.3,3.8,0.3h4.9v-6h-4.7c-1.4,0-2,0.1-2.8,0.3l-0.3-1.5c1.1,0.3,1.9,0.3,3.1,0.3h4.7v-2.8c0-0.6,0-1.2-0.2-2.9
			c3.6,0.4,4.3,0.5,4.3,0.9c0,0.3-0.4,0.5-1.7,0.8v4h4.4l2-2.5c1.3,1.2,1.7,1.5,3,2.8c0.2,0.2,0.3,0.3,0.3,0.3
			c0,0.2-0.2,0.3-0.5,0.3H114v6h6.2l2-2.5c1.4,1.2,1.9,1.6,3.3,2.8c0.2,0.2,0.2,0.2,0.2,0.3c0,0.2-0.2,0.3-0.4,0.3h-5.6V86.4z
			 M106.5,88.9c1.5,0.6,2.8,1.4,4.5,2.5c1.1,0.8,1.6,1.5,1.6,2.2c0,1.2-0.6,2.5-1.1,2.5c-0.3,0-0.5-0.3-0.9-0.9
			c-0.9-2.1-2.3-3.8-4.4-6L106.5,88.9z"/>
		<path class="st0" d="M132.9,79.9v14.4c0,4.9,0,4.9,0,7.5c0,0.3-0.1,0.3-0.4,0.5c-0.2,0.1-1.2,0.2-1.8,0.2c-0.3,0-0.5-0.1-0.5-0.4
			c0.1-3.2,0.2-9.2,0.2-18.7c0-9.8,0-13.2-0.2-15.3c1.1,0.7,1.5,0.9,2.7,1.7h7.7c0.7-0.8,0.9-1,1.5-1.7c0.9,0.8,1.2,1,2,1.7
			c0.3,0.2,0.3,0.4,0.3,0.5c0,0.2-0.3,0.5-1.1,0.9c0,1.8,0,2.9,0,4.1c0,2,0,3.2,0.1,5.5c0,0.3-0.1,0.4-0.2,0.5
			c-0.2,0.1-1.1,0.2-1.9,0.2c-0.3,0-0.3-0.1-0.5-0.4v-1.1H132.9z M141,70.6h-8v3.7h8V70.6z M141,75.2h-8V79h8V75.2z M141,98.5
			c0,0.2-0.1,0.3-0.3,0.4c-0.2,0.1-1.2,0.2-1.5,0.2c-0.3,0-0.5-0.1-0.5-0.4c0-3.1,0.1-4.8,0.1-6.4c0-4.4,0-8-0.1-9.4
			c1.2,0.7,1.6,0.9,2.8,1.6h8.8c0.7-0.6,0.9-0.8,1.6-1.5c0.8,0.6,1.1,0.9,1.8,1.6c0.3,0.3,0.4,0.4,0.4,0.5c0,0.2-0.2,0.3-1.2,0.9
			c0,2,0,2.8,0,4.1c0,2.6,0,4,0.1,6.9v0c0,0.3-0.1,0.4-0.3,0.5c-0.2,0.1-1,0.2-1.6,0.2c-0.3,0-0.5-0.1-0.5-0.3v-1.3H141V98.5z
			 M150.5,85.4H141v4.2h9.5V85.4z M141,90.5v4.9h9.5v-4.9H141z M150.5,79.9v1c-0.1,0.5-0.4,0.6-1.4,0.6c-0.9,0-1.1-0.1-1.1-0.5
			c0.1-2.4,0.1-3.5,0.1-5.7c0-5.4,0-5.7-0.1-7.2c1.2,0.7,1.6,0.9,2.7,1.7h7.9c0.7-0.8,0.9-1,1.5-1.7c1,0.8,1.3,1,2.3,1.7
			c0.3,0.3,0.4,0.4,0.4,0.5c0,0.3-0.1,0.3-1.2,1.1v18.1c0,6.3,0,6.3,0,9.8c-0.1,1.7-0.8,2.2-4.1,2.9c-0.3-0.9-0.6-1.3-1.3-1.7
			c-0.3-0.2-0.9-0.4-2-0.6c-1.3-0.2-2-0.4-2.1-0.4V99c3.1,0.2,3.8,0.2,6.1,0.3c0.6,0,0.7-0.1,0.7-0.5V79.9H150.5z M159,70.6h-8.5
			v3.7h8.5V70.6z M159,75.2h-8.5V79h8.5V75.2z"/>
		<path class="st0" d="M167.3,103c2-2.2,3.2-3.7,4.2-5.6c2-3.6,3.2-8.1,3.2-12.3c0-4.2-1.2-8.7-3.2-12.3c-1.1-1.9-2.2-3.4-4.2-5.6
			H178V103H167.3z"/>
		<path class="st0" d="M216.6,91.5c0,4.5-3.7,7.4-9.4,7.4c-5.6,0-9.1-2.7-9.1-7c0-2,1.1-4.1,2.8-5.5c0.9-0.6,1.9-1.2,3.6-1.8
			c-1.7-0.8-2.6-1.4-3.4-2c-1.4-1.2-2-2.5-2-4.6c0-1.7,0.5-3.3,1.4-4.4c1.4-1.7,4.1-2.7,7-2.7c3,0,5.5,1.1,6.9,3.1
			c0.7,1,1.1,2.2,1.1,3.7c0,1.8-0.7,3.2-2.2,4.4c-1.1,0.8-2,1.3-3.4,1.7C214.4,85.5,216.6,88,216.6,91.5z M203,86.7
			c-1.4,1.2-2.2,3-2.2,4.9c0,3.7,2.6,6.2,6.6,6.2c3.7,0,6.1-2.3,6.1-5.6c0-1.8-0.8-3.1-2.8-4.5c-0.7-0.5-1.9-1.1-3.5-1.9
			c-0.3-0.2-1.5-0.7-1.5-0.7C204.4,85.6,203.8,86,203,86.7z M212.7,77.7c0-3.6-2.1-5.8-5.6-5.8c-3.2,0-5.2,2-5.2,5
			c0,2,0.8,3.2,3.1,4.5c0.5,0.3,0.5,0.3,2.7,1.2c0.3,0.2,0.6,0.3,1.1,0.6C211.5,82.1,212.7,80.3,212.7,77.7z"/>
		<path class="st0" d="M226.9,81.3c0,1.5-1.1,2.7-2.6,2.7c-1.5,0-2.7-1.1-2.7-2.7c0-1.5,1.1-2.6,2.7-2.6
			C225.8,78.7,226.9,79.8,226.9,81.3z M226.9,96.1c0,1.5-1.1,2.7-2.6,2.7c-1.5,0-2.7-1.2-2.7-2.7c0-1.5,1.1-2.6,2.7-2.6
			C225.8,93.4,226.9,94.5,226.9,96.1z"/>
		<path class="st0" d="M234,75.1c1.4-2.6,4.1-4.2,7.3-4.2c3.2,0,5.9,1.5,7.3,4.2c1.4,2.6,2.1,6,2.1,9.8c0,3.7-0.8,7.2-2.1,9.8
			c-1.4,2.6-4.1,4.2-7.3,4.2c-3.2,0-5.9-1.6-7.3-4.2c-1.4-2.6-2.1-6.1-2.1-9.8C231.8,81.1,232.6,77.7,234,75.1z M241.3,97.8
			c4,0,5.8-4,5.8-13c0-9-1.8-13-5.8-13s-5.8,4-5.8,13C235.5,93.9,237.2,97.8,241.3,97.8z"/>
		<path class="st0" d="M256.1,75.1c1.4-2.6,4.1-4.2,7.3-4.2c3.2,0,5.9,1.5,7.3,4.2c1.4,2.6,2.1,6,2.1,9.8c0,3.7-0.8,7.2-2.1,9.8
			c-1.4,2.6-4.1,4.2-7.3,4.2c-3.2,0-5.9-1.6-7.3-4.2c-1.4-2.6-2.1-6.1-2.1-9.8C254,81.1,254.7,77.7,256.1,75.1z M263.5,97.8
			c4,0,5.8-4,5.8-13c0-9-1.8-13-5.8-13c-4,0-5.8,4-5.8,13C257.6,93.9,259.4,97.8,263.5,97.8z"/>
		<path class="st0" d="M286.1,86.2c2.9-4,5.6-5.9,8.7-5.9c2.1,0,4,0.8,9.6,4.1c4.3,2.5,6.3,3.3,8.1,3.3c0.9,0,2.1-0.4,3.1-1.1
			c0.9-0.6,1.8-1.6,3.1-3.3l0.9,0.6c-0.8,1.6-1.9,3-3.5,4.4c-1.6,1.5-3,2-4.8,2c-0.8,0-1.7-0.1-2.5-0.3c-1.5-0.4-2.7-1-7.1-3.6
			c-4-2.4-6.8-3.5-8.7-3.5c-1.7,0-3.9,1.5-6,4.1L286.1,86.2z"/>
		<path class="st0" d="M337,97.1c1.6-0.1,2-0.2,2.5-0.4c0.8-0.4,1-1.2,1-3.9V77c-0.1-3.3-0.1-3.3-0.4-3.5s-0.8-0.3-1.7-0.3H337V72
			c2.9-0.2,5.3-0.5,7.2-1c-0.2,3-0.3,6.2-0.3,10.6v11.2c0,2.5,0.2,3.3,0.7,3.7c0.5,0.4,0.6,0.4,2.8,0.5v1.1H337V97.1z"/>
		<path class="st0" d="M363.4,88.5c-2.4,0-4.7-0.9-6.1-2.3c-1.4-1.4-2.2-3.7-2.2-6.1c0-5.5,3.7-9.2,9.1-9.2c6,0,9.2,4.4,9.2,12.7
			c0,5.5-1.2,10-3.3,12.4c-1.7,1.9-3.8,2.9-6.6,2.9c-3.9,0-7.4-2-7.4-4.4c0-1.2,0.8-1.9,2.1-1.9c1.2,0,1.6,0.3,1.7,1.5
			c0.2,2.6,1.4,3.9,3.5,3.9c2.6,0,4.4-1.8,5.5-5.2c0.5-1.9,0.9-4.6,0.9-7.2C367.9,87.6,365.9,88.5,363.4,88.5z M368.4,74.6
			c-0.9-1.8-2.5-2.8-4.3-2.8c-1.8,0-3.4,0.9-4.2,2.5c-0.8,1.5-1.2,3.5-1.2,5.7c0,4.6,2,7.5,5.3,7.5c1.4,0,2.9-0.6,4-1.7
			c1.4-1.3,1.9-2.8,1.9-5C369.8,78.5,369.4,76.4,368.4,74.6z"/>
		<path class="st0" d="M384,81.3c0,1.5-1.1,2.7-2.6,2.7c-1.5,0-2.7-1.1-2.7-2.7c0-1.5,1.1-2.6,2.7-2.6C382.8,78.7,384,79.8,384,81.3
			z M384,96.1c0,1.5-1.1,2.7-2.6,2.7c-1.5,0-2.7-1.2-2.7-2.7c0-1.5,1.1-2.6,2.7-2.6C382.8,93.4,384,94.5,384,96.1z"/>
		<path class="st0" d="M391,75.1c1.4-2.6,4.1-4.2,7.3-4.2c3.2,0,5.9,1.5,7.3,4.2c1.4,2.6,2.1,6,2.1,9.8c0,3.7-0.8,7.2-2.1,9.8
			c-1.4,2.6-4.1,4.2-7.3,4.2c-3.2,0-5.9-1.6-7.3-4.2c-1.4-2.6-2.1-6.1-2.1-9.8C388.9,81.1,389.6,77.7,391,75.1z M398.3,97.8
			c4,0,5.8-4,5.8-13c0-9-1.8-13-5.8-13s-5.8,4-5.8,13C392.5,93.9,394.3,97.8,398.3,97.8z"/>
		<path class="st0" d="M413.2,75.1c1.4-2.6,4.1-4.2,7.3-4.2c3.2,0,5.9,1.5,7.3,4.2c1.4,2.6,2.1,6,2.1,9.8c0,3.7-0.8,7.2-2.1,9.8
			c-1.4,2.6-4.1,4.2-7.3,4.2c-3.2,0-5.9-1.6-7.3-4.2c-1.4-2.6-2.1-6.1-2.1-9.8C411,81.1,411.8,77.7,413.2,75.1z M420.5,97.8
			c4,0,5.8-4,5.8-13c0-9-1.8-13-5.8-13s-5.8,4-5.8,13C414.7,93.9,416.5,97.8,420.5,97.8z"/>
	</g>
</g>
</svg>
