<svg version="1.1" id="レイヤー_1" xmlns="http://www.w3.org/2000/svg" x="0" y="0" viewBox="0 0 88.2 369.7" xml:space="preserve"><g><g><path d="M83.1 103.1c.8-1 1.1-1.3 1.9-2.3 1.3 1.1 1.7 1.4 2.9 2.5.1.1.1.2.1.3 0 .1-.1.2-.3.2h-9.4v11c0 .7 0 .7 2.9.7s3.1 0 3.4-.6c.3-.4.9-2.4 1.7-5.5h.4l-.4 4.6-.1.5c0 .3.2.4.6.6.4.2.6.4.6.7 0 .4-.3.8-1 1-.6.1-2.2.2-4.7.2-3.5 0-4.3-.1-4.8-.4-.4-.3-.6-.7-.7-1.6v-11.4h-3.5c-.1 1.7-.1 2.1-.3 3.2-.7 3.7-2.1 6.4-4.6 8.3-1.3 1.1-2.5 1.7-4.7 2.5l-.2-.4c2-1.1 3.1-1.9 4.4-3.3 2.2-2.4 3.1-5.2 3.4-10.3h-6.6c-.4 0-.9 0-1.6.1l-.2-1.1c1.5.3 2 .3 3.2.3h8.2V96c0-1.7 0-2.1-.2-3.2 2.9.3 3.4.4 3.4.8 0 .3-.4.4-1.3.6v8.7h7.5zm-16.7-8.7c1.4 1.2 2.6 2.4 3.5 3.3.7.8 1 1.5 1 2.1 0 1-.7 2.1-1.2 2.1-.3 0-.4-.2-.6-1-.6-2.1-1.6-4.1-3.1-6.2l.4-.3zm11.7 8c1.9-3 3.3-5.8 3.9-7.9 3 1.1 3.2 1.2 3.2 1.5 0 .3-.5.5-1.5.5-3.6 4.6-3.6 4.6-5.2 6.3l-.4-.4zm-4.3 28.9H68c-1 0-1.1 0-2.6.1l-.2-1.1c.9.2 1.6.3 2.9.3h12.8c.7-.8 1-1.1 1.7-1.9 1.2.9 1.5 1.1 2.7 2.2.1.1.1.1.1.2s-.1.2-.2.2h-9.4v2.4h8.7c.4-.5.6-.7 1.1-1.1 1.1.8 1.4 1 2.4 1.8.2.1.2.2.2.3 0 .3-.3.4-1.8.4-.3.4-.3.4-1.1 1.2l-1 1-.3-.1c.5-1.5.6-1.7.8-2.8h-9v7.6c0 .2-.1.3-.2.3-.1.1-.9.1-1.4.1-.2 0-.3-.1-.4-.3v-7.7h-8.1c-.3 2.4-1.3 4.3-2.3 4.3-.4 0-.9-.8-.9-1.5 0-.3.1-.6.5-.8 1.2-.8 1.7-1.7 2.3-3.9h.4v1.3h8.1v-2.5zm.1 15.7c-1.5 1.8-2.7 3.1-4 4.3 5.9-.2 7.6-.2 11.2-.5-.8-.7-1.5-1.2-3.1-2.4l.2-.3c1.8.7 4.4 1.9 5.7 2.7 1 .6 1.3 1.1 1.3 2.1 0 .8-.2 1.3-.6 1.3-.2 0-.3-.1-.5-.4-.6-.8-1.9-2.1-2.4-2.5-1.8.4-2.9.6-5.2.9-3.6.5-4.2.6-10.8 1.1-.3.8-.4 1.2-.6 1.2-.1 0-.2-.1-.3-.3-.1-.2-.2-.6-.3-1.2-.1-.8-.2-1.4-.3-1.7.7 0 .7 0 2 .1h2.9c.9-1.4 1.4-2.5 2.2-4.3h-5.4c-.9 0-2.2.1-3 .2l-.2-1.1c1.1.2 2.2.3 3.3.3h17c.6-.8.8-1 1.5-1.8 1.4 1 1.4 1 2.6 1.9.1.1.1.2.1.3 0 .1-.2.3-.3.3h-13zm-9-7.2c.8.1 1.2.2 1.9.2h2.8c.6-.6.7-.8 1.3-1.4.8.6 1 .8 1.8 1.6.1.1.1.2.1.3s-.1.2-.3.2h-5.8c-.6 0-1 0-1.7.1l-.1-1zm.6 3.3c1.1.1 1.8.2 3.4.2h11.5c.5-.6 1-1.1 1.5-1.7 1.1.8 1.4 1.1 2.4 2 .1.1.1.2.1.2 0 .1-.1.2-.3.2H69c-2.4.1-2.4.1-3.2.1l-.3-1zm.2-6.4c.5.1 1.1.1 1.7.1h2.3c.5-.7.7-.8 1.3-1.4.8.7 1 .9 1.8 1.6.1.1.1.2.1.3 0 .1-.1.2-.2.2h-5.1c-.6 0-.9 0-1.5.1l-.4-.9zm11 0c1 .2 1 .2 1.6.2h2.1l1.3-1.5c.8.7 1 1 1.8 1.7 0 .1.1.1.1.1 0 .1-.1.2-.3.2h-5c-.1 0-.6 0-1.5.1l-.1-.8zm0 3.1c.5.1 1 .2 1.7.2h3c.6-.7.8-.9 1.3-1.5.9.7 1.1.9 2 1.7.1.1.1.2.1.3s-.1.2-.2.2h-6.2c-.4 0-.7 0-1.5.1l-.2-1zm1.4 37c.5-.4.7-.6 1.2-1 .6.6.8.8 1.5 1.4.1.2.2.3.2.3 0 .2 0 .2-1.3.4-1.5 1.4-2.2 2-3.6 2.9 2.6 1.1 4.2 1.5 8.1 1.9v.3c-.8.2-1 .4-1.5 1.5-3.2-.8-5.6-1.8-7.5-3.1-1.4.8-2.7 1.5-4.4 2.2.2.2.3.3.6.5h6.9c.3-.2.3-.3.6-.4l1.4.7.3.3c0 .1-.3.4-.6.5v4.2c0 .2-.5.4-1.3.4-.2 0-.3-.1-.3-.3v-.7h-7.1v1c0 .2-.1.3-.2.4-.2.1-.8.1-1.1.1-.3 0-.3-.1-.4-.3 0-.8.1-3.9.1-4.5V184c-1.3.5-2 .7-3.7 1.2l-.2-.4c3.2-1.2 5.4-2.3 8.1-4.1-1.3-1-1.8-1.5-2.6-2.4-1.7 1.6-3 2.5-5.2 3.7l-.2-.3c2.9-2.2 4.8-4.4 6.3-7.1-.4.1-.6.1-.8.1-.3 0-.4-.1-.4-.2v-.6h-6V191c0 .3-.2.4-1.1.4h-.5c-.3 0-.4-.1-.4-.3v-.1c.1-5 .1-6.2.1-9.4 0-10.9 0-14.4-.1-15.7 1 .4 1.3.6 2.2 1.1H71c.4-.5.6-.7 1.1-1.1.7.5.9.6 1.6 1.1l.3.3c0 .1-.3.4-1 .8v1.5c0 .9 0 1.5.1 4.7 0 .2 0 .3-.2.3 2.3.6 2.3.6 2.3.8 0 .2-.4.3-1.3.4-.4.6-.6.8-1 1.2h5.2zm-7-9.4h-6v2.4h6v-2.4zm0 3h-6v2.6h6v-2.6zm.4 14.3v3.4h7.1v-3.4h-7.1zm.7-7.3l-.5.5c1 .9 1.7 1.4 3.1 2.2 1.3-.9 1.9-1.5 3.1-2.7h-5.7zm6.2-3.7v.8c0 .2-.2.3-1 .3h-.5c-.3 0-.3-.1-.4-.3.1-1.5.1-4.2.1-6.1 0-.4 0-1.4-.1-2.9.9.4 1.1.6 2 1.1h6.1c.5-.5.6-.6 1.2-1.1.7.4.9.6 1.5 1.1.2.2.3.3.3.4 0 .1-.3.4-.8.8v17.1s0 2 .1 3.9c0 .7-.1 1-.3 1.2-.4.4-1.3.7-2.8 1-.1-.8-.2-1.2-.7-1.5-.3-.2-.3-.2-2.2-.5v-.4c2.6.1 2.6.1 3.8.1.3 0 .3 0 .3-.3v-14.8h-6.6zm6.5-6.3h-6.5v2.4h6.5v-2.4zm0 3h-6.5v2.6h6.5v-2.6zm-20.3 38.2c.4.4.7.5 1.3.5.8 0 1.5-.1 7.8-1.7 1-.3 2.6-.6 4.5-1 2-.4 2.9-.6 3.8-.9.6-.2.8-.2 1-.2.3 0 1 .3 1.5.6s.8.7.8 1.1c0 .4-.3.7-.9.7h-.5c-.3-.1-.5-.1-.8-.1-4.8 0-9.4 4.6-9.4 9.4 0 2.5 1.3 4.5 3.7 5.5.9.4 2 .6 2.8.7.6 0 .8.1 1.2.4.5.5.8 1 .8 1.3 0 .4-.4.8-1 .8-1.6 0-4.1-.9-5.7-2-2.1-1.5-3.2-3.7-3.2-6.3 0-2.3 1.1-4.8 3.1-6.8 1.1-1.2 2.2-2 4.6-3.2-3.5.4-9.9 2.3-12.5 3.8-.6.3-.8.4-1.1.4-.7 0-1.5-.6-2.2-1.7-.4-.7-.7-1.4-.7-1.9 0-.2.1-.4.3-.8.1.6.3 1 .8 1.4zm16.6 2.5c1 .6 1.8 1.1 2.5 1.7 1 .9 1.4 1.6 1.4 2.2s-.4 1.2-.9 1.2c-.4 0-.4 0-1.2-1.8-.5-1-1.4-2.2-2.2-3l.4-.3zm2.9-1.6c1 .4 1.8 1 2.7 1.6 1.1.8 1.4 1.4 1.4 2.2 0 .7-.3 1.1-.7 1.1-.3 0-.4-.1-.6-.5-1-1.8-1.5-2.5-3.1-4l.3-.4zM6.4 152.8c2.5-1.9 4.3-3.8 6.2-6.7 2.3-3.6 3.9-7.8 4.4-11.5-1.5 0-2.9.1-5.7.5-.7.1-3.5.6-4 .7-.4.1-.4.1-.6.1-.4 0-.9-.2-1.5-.6 0 .9.1 1.7.2 4.4.1 1.6.1 2.5.1 2.6 0 .8-.2 1.2-.6 1.2-.8 0-1.8-1.4-1.8-2.5 0-.2 0-.2.1-.8.1-.5.2-1.3.2-1.9 0-1.6-.3-3-.7-3.7-.4-.6-.7-.9-1.5-1.3.3-.3.5-.3.8-.3.8 0 2 .6 3 1.5h.8c.8 0 7.5-.8 9.4-1.1 1-.2 1.2-.2 1.8-.5.2-.1.4-.2.5-.2.3 0 .8.3 1.4.8.7.6 1.1 1.1 1.1 1.4 0 .2-.1.3-.3.6-.3.4-.4.4-.8 1.8-1.3 3.7-2.2 5.6-3.8 8-2.4 3.6-5.2 6.2-8.5 7.9l-.2-.4zm3.7 18.8c0-2-.1-2.6-.4-3.1-.3-.4-.8-.7-1.5-1 .2-.3.5-.4.9-.4.6 0 1.6.3 2.5.8.9.5 1.2.8 1.2 1.2 0 .3-.1.4-.4.9-.3.4-.3 1.7-.3 12.3 0 5.9-.2 6.9-1.1 6.9-.3 0-.4-.2-.6-.6-.2-.4-.3-1.4-.3-3.5v-13.5zM0 216.6c1.8-2.1 3.2-4.1 4.4-6.4 1.2-2.4 2-4.2 2-4.9 0-.8-.6-1.3-1.8-1.8.3-.1.4-.2.7-.2.7 0 1.6.3 2.5.8.8.5 1.3.9 1.3 1.3 0 .3 0 .3-.6 1.1-.1.1-.2.4-.5.8-.4.8-1.2 2.1-1.7 2.8.4.4 1 .6 1.7.6 1.3 0 3.7-.4 6.2-.9 2.3-.6 3.2-.8 4.2-1.4.1-.1.3-.1.5-.1.3 0 1 .3 1.6.6.7.4.9.6.9 1 0 .3-.2.4-.5.5-.2.1-.3.1-1.5.2-.2 0-2.5.3-3.4.5-2.2.3-2.2.3-2.9.4 1.2.7 1.7 1.3 1.7 1.8 0 .4-.3 1.6-.8 2.7-1.8 4.8-4.7 8.5-8.7 10.9l-.3-.3c2.1-1.8 3.8-4.2 5.3-7 1.5-2.7 2.2-5.2 2.2-6.8 0-.5-.2-.8-.8-1.3-.2 0-.4.1-.5.1-1.3.1-2 .2-2.9.2-1.2 0-1.6-.1-2.6-1-2 2.9-3.8 4.8-5.8 6.1l.1-.3zm10.1 27.8c0-2-.1-2.6-.4-3.1-.3-.4-.8-.7-1.5-1 .2-.3.5-.4.9-.4.6 0 1.6.3 2.5.8.9.5 1.2.8 1.2 1.2 0 .3-.1.4-.4.9-.3.4-.3 1.7-.3 12.3 0 5.9-.2 6.9-1.1 6.9-.3 0-.4-.2-.6-.6-.2-.4-.3-1.4-.3-3.5v-13.5zM.5 283.5c2.3.4 4 1 4.9 1.7.8.5 1.1 1 1.1 1.8 0 .7-.4 1.3-.8 1.3-.3 0-.4-.1-.9-.6-1.4-1.8-2.7-2.8-4.5-3.8l.2-.4zm21.7-.6c-1.5 2.2-2.9 3.8-5.9 6.6-2.3 2.2-5.4 4.3-9.7 6.9-.8.4-1 .6-1.3 1-.2.2-.4.3-.6.3-.6 0-1.2-.5-2-1.7-.5-.8-.9-1.7-.9-2.2 0-.3.1-.4.2-.7.6 1.2 1.3 1.8 2.1 1.8s2.8-1 5.5-2.5c4.3-2.5 9.1-6.3 12.3-9.7l.3.2zm-18.6-4.4c4.5 1.1 5.9 1.9 5.9 3.6 0 .8-.3 1.4-.8 1.4-.3 0-.3 0-1.5-1.5-1.1-1.3-2.4-2.3-3.8-3.1l.2-.4zm7 39c1.2 0 3.6-.2 6.7-.5 1.2-.1 1.2-.1 1.6-.4.1-.1.3-.1.4-.1.3 0 .8.3 1.4 1 .4.4.6.8.6 1.1 0 .1 0 .2-.1.4-.3.3-.3.4-.3.9l-.3 2.1c-.2 1-.4 3-.9 5.9.7.4 1.1.8 1.1 1.2 0 .3-.2.5-.5.5h-.6c-.4-.1-.9-.1-1.7-.1-2.6 0-5.8.4-7.1.9-.4.1-.4.1-.6.1-.6 0-1.3-.6-2-1.5-.3-.4-.4-.8-.4-1.1 0-.1 0-.2.1-.4.8 1 1.4 1.3 2.2 1.3.3 0 .3 0 1.4-.1 1.2-.2 4-.4 6.4-.7.1-.8.3-2.5.6-4.7-2.8.2-6.4.7-7.5 1.1-.1.1-.4.1-.6.1-.6 0-1.9-1.5-1.9-2.3 0-.1 0-.2.1-.4.5.8 1 1.1 1.8 1.1.5 0 1.2-.1 2.5-.2 2.5-.3 2.7-.3 5.6-.5.1-1.2.3-3.4.3-4-4.1.3-7.1.7-8 1-.4.1-.4.1-.6.1-.4 0-.8-.2-1.2-.7-.5-.6-.8-1.2-.8-1.7 0-.1 0-.3.1-.6.6 1 1 1.2 2.2 1.2zM2 352.2c2.7.7 4.3 1.3 5.4 2.1.6.4 1 1.1 1 1.9 0 .9-.3 1.6-.8 1.6-.3 0-.4-.1-1.2-1.1-1.4-1.8-2.4-2.7-4.6-4.1l.2-.4zm20 1.6c-1.4 2.6-3.1 4.8-5.9 7.5-2.6 2.5-4.3 3.9-7.9 6.4-1.3.9-1.5 1-1.7 1.3-.4.5-.6.7-1 .7-1.1 0-3.3-2.7-3.3-4.1 0-.2 0-.3.1-.6.6.8.6.9 1 1.2.4.4.8.6 1.1.6.5 0 1.3-.4 2.7-1.2 3.1-1.8 4.2-2.6 6.7-4.6 3.4-2.8 5.1-4.5 7.5-7.5l.7.3z" fill="#200701"/></g></g><line x1="75" y1="0" x2="75" y2="60" fill="none" stroke="#76544b" stroke-miterlimit="10"/></svg>