<svg version="1.1" id="レイヤー_1" xmlns="http://www.w3.org/2000/svg" xmlns:xlink="http://www.w3.org/1999/xlink" x="0" y="0" viewBox="0 0 110 110" xml:space="preserve"><pattern x="-629.3" y="-327.5" width="1024.1" height="726.9" patternUnits="userSpaceOnUse" id="新規パターンスウォッチ_15" viewBox="1 -727.9 1024.1 726.9" overflow="visible"><g><rect x="1" y="-727.9" width="1024.1" height="726.9" fill="none"/><image width="2950" height="2094" id="SB005_2_" xlink:href="8A3F3740AB26B102.png" transform="translate(1 -727.91) scale(.3471)" overflow="visible"/></g></pattern><g><g><g><circle cx="55" cy="55" r="55" fill="#a7912d"/></g><g><defs><circle id="SVGID_4_" cx="55" cy="55" r="55"/></defs><clipPath id="SVGID_1_"><use xlink:href="#SVGID_4_" overflow="visible"/></clipPath><pattern id="SVGID_2_" xlink:href="#譁ｰ隕上ヱ繧ｿ繝ｼ繝ｳ繧ｹ繧ｦ繧ｩ繝メ_15" patternTransform="matrix(.06456 0 0 .1193 -7320.521 -9619.917)"/><rect x="-10.7" y="-8.3" width="129.1" height="129.2" opacity=".6" clip-path="url(#SVGID_1_)" fill="url(#SVGID_2_)"/></g></g><g><g><path d="M48.1 38.8h2.1l1.4-1.4c.9.7 1.2.9 2 1.6l.1.1c0 .1-.1.2-.1.2h-5.5v3.8c-.1.9-.5 1.2-2.4 1.5-.2-.6-.4-.8-.8-1-.2-.1-.4-.1-1.2-.3-.6-.1-.6-.1-1-.2v-.3l1.3.1c.9 0 1.5.1 1.8.1h.7c.1 0 .2-.1.2-.3v-3.5h-9.9c-.5 0-1.1 0-2.5.1l-.1-.7c1 .1 1.8.1 2.7.1h9.9v-2.1h-8.2v.7c0 .2-.1.3-.7.3h-.4c-.2 0-.3-.1-.4-.2.1-1.2.1-2.2.1-4.4 0-1.7 0-2.4-.1-3.7.7.3.9.5 1.7.9H43v-2h-5.4c-.9 0-2 0-2.7.1l-.2-.8c.9.1 1.7.2 3 .2H43V27c0-.4 0-1.2-.1-1.8 2.3.3 2.4.3 2.4.6 0 .2-.1.2-.9.5v1.3H50c.5-.6.7-.8 1.2-1.3.9.6 1.2.8 2 1.5.1.1.1.1.1.2s-.1.2-.1.2h-8.9v2h4.5l.9-.9c.6.4.8.6 1.3 1.1.1.1.1.1.1.2s-.1.2-.7.6v5.9c-.1.3-.3.4-1.1.4-.3 0-.4 0-.4-.2v-.7h-.8v2.2zm-9.4.9c1.6.9 1.8 1 2.4 1.4.8.6.9.8.9 1.2 0 .5-.4 1.3-.7 1.3-.2 0-.2-.1-.5-.6-.5-1.1-1.2-2.1-2.3-3.2l.2-.1zm4.1-8.9h-4.3v2.3h4.3v-2.3zm0 2.8h-4.3v2.6h4.3v-2.6zm6.1-2.8h-4.7v2.3h4.7v-2.3zm0 2.8h-4.7v2.6h4.7v-2.6zm12.4 3c-.2 1.6-.7 3-1.3 4.3-.8 1.6-1.6 2.6-3 3.7l-.2-.2c1.4-1.7 2.2-3.4 2.7-5.6.4-1.6.5-2.6.5-5.6 0-1 .1-3.9.1-4.7 0-1.1 0-1.7-.1-2.7.8.4 1 .6 1.7 1.1h11.2c.4-.4.5-.6.9-1 .6.4.8.5 1.3 1 .2.1.3.2.3.3 0 .1-.1.2-.8.6v15.1c-.1.5-.2.7-.7 1-.4.2-.9.4-1.8.5-.3-1.2-.5-1.3-2.8-1.6v-.3c.8 0 .8 0 2 .1.8 0 .8 0 1.4.1h.2c.2 0 .3-.1.3-.3v-5.8H68v6.2c0 .3-.2.4-.8.4h-.3c-.3 0-.4-.1-.4-.3v-6.3h-5.2zm5.1-4.8h-4.9c0 2 0 3.1-.1 4.3h5.1v-4.3zm0-4.3h-4.9v3.9h4.9v-3.9zm6.6 3.9v-3.9h-5.2v3.9H73zm0 4.8v-4.3h-5.2v4.3H73zM15.9 64.3c1.2-1.1 2-2.3 2.8-4 .8-1.7 1.4-4.2 1.4-5.7 0-.8-.4-1.2-1.4-1.6.2-.1.3-.2.6-.2.5 0 1 .2 1.6.5.8.5 1.1.8 1.1 1.2 0 .2 0 .3-.3 1 0 .1 0 .1-.2.7-.7 2.2-.9 2.7-1.4 3.9-1 2-2.2 3.3-4 4.5l-.2-.3zm17.9-8.4c-.7 1.1-1.2 1.8-2.3 3-1.2 1.3-3.1 3-4.5 3.8-.4.3-1 .8-1.2.9-.2.2-.3.2-.4.2-.5 0-1.3-1.1-1.3-1.7 0 0 0-.3.1-.7.1-.5.2-2.4.2-5.7 0-4.8-.1-5-1.6-5.4.2-.3.4-.3.7-.3.5 0 1.2.2 1.8.7.6.4.9.7.9 1 0 .1 0 .2-.2.6-.1.3-.2 1-.3 2.1-.1.9-.3 5.5-.3 6.3v1c2.4-.9 5.5-3.3 7.9-5.9l.5.1zm5.1.1c.5.4.9.5 2 .5.2 0 .2 0 2.6-.1.8 0 7.5-.1 8.2-.1 1.9 0 2.4 0 2.7.2.2.1.3.2.3.4 0 .3-.2.5-.5.6-.6.2-1.1.2-5 .3-2 0-6.8.1-7.5.2-1 .1-1.2.1-1.5.3-.1 0-.2.1-.3.1-.3 0-.7-.2-1-.7-.4-.5-.8-1.4-.8-1.9 0-.3 0-.3.2-.5.2.4.3.5.6.7zm20 9.7c2-1.3 2.7-1.8 3.9-2.9 1.5-1.4 2.5-2.5 3.5-3.8-.3-.1-.5-.2-.9-.8-.9-1.3-1.6-2.1-2.9-3.1-1.5 1.5-2.6 2.4-3.9 3.1l-.2-.3c1.5-1.3 2.8-2.6 4.1-4.3 1.3-1.8 2.1-3.1 2.1-3.7 0-.5-.4-.8-1.3-1.3.2-.1.3-.1.5-.1.4 0 1.2.3 1.9.6.6.3.9.6.9.9 0 .3-.2.6-1 1.6.3.1.4.1.6.1.5 0 1.2-.1 2.8-.5 1.1-.2 1.3-.3 1.7-.6.1-.1.2-.1.3-.1.3 0 .6.2 1.2.7.4.3.6.7.6.9 0 .1-.1.3-.3.4-.3.2-.3.3-.7 1-2.2 4-4.4 6.9-7.1 9.2-1.8 1.5-3.6 2.6-5.4 3.4l-.4-.4zM69 52c-1.7.4-1.7.4-1.9.5-.4.1-.5.1-.7.1-.4 0-.7-.2-1.3-.6-.8 1.1-1.3 1.7-2.2 2.6 1.6.7 1.6.7 2 .9.9.5 1.4 1 1.8 1.6.2.3.2.5.3.9 1.5-2 2.9-4.5 3.6-6.6-.5.3-.9.4-1.6.6zm9.8 4c.5.4.9.5 2 .5.2 0 .2 0 2.6-.1.8 0 7.5-.1 8.2-.1 1.9 0 2.4 0 2.7.2.2.1.3.2.3.4 0 .3-.2.5-.5.6-.6.2-1.1.2-5 .3-2 0-6.8.1-7.5.2-1 .1-1.2.1-1.5.3-.1 0-.2.1-.3.1-.3 0-.7-.2-1-.7-.4-.5-.8-1.4-.8-1.9 0-.3 0-.3.2-.5.2.4.3.5.6.7zM46.6 86.3c0 .1.1.3.2.3.2.1.8.1 1.5.1h1.9c.7 0 .9-.1 1-.4.2-.6.8-3 .9-4h.3V86c0 .2 0 .4.1.5 0 .1 0 .1.4.1.3 0 .4.3.4.5 0 .6-.8.8-3.4.8H47c-.9 0-1.4-.1-1.7-.4-.3-.3-.3-.5-.3-2.1v-5.8h-2.9c0 1.1-.1 1.5-.2 2.1-.5 2.2-1.8 4.1-3.7 5.3-1 .6-2 .9-3.9 1.4l-.1-.3c2-.7 2.8-1.2 3.8-2.1 1.4-1.3 2.2-2.9 2.5-4.9 0-.4.1-.6.1-1.4h-3.8c-.7 0-1.5.1-2 .2l-.2-.9c1 .1 1.8.2 2.2.2h12.7c.5-.6.7-.8 1.3-1.4.8.7 1.1.9 2 1.7.1 0 .1.1.1.1s0 .1-.1.1h-6.2v6.6zm-3.7-13.9v-1.3c0-.9 0-1-.1-1.5 1.2.2 2.2.4 2.4.4.1 0 .1.1.1.1 0 .1 0 .1-.9.5v1.8h6.2c.3-.4.4-.5.8-1 .9.5 1.1.7 1.9 1.2.1.1.2.2.2.3 0 .1-.1.1-.1.2-.1.1-.3.1-.6.2-.1 0-.3.1-.6.1-1.2 1.2-1.2 1.2-2 1.8l-.3-.1c.4-.9.5-1.3.8-2.1H37.1c-.1.9-.3 1.6-.7 2.4-.3.5-.7.9-1 .9-.3 0-.8-.8-.8-1.3 0-.3.1-.4.5-.7.8-.5 1.4-1.6 1.7-3.3h.3v1.5h5.8zm-5.2 3.3c.9.1 1.4.2 1.7.2H47l1-1.4c.8.6 1 .8 1.8 1.5.2 0 .2.1.2.2s-.1.1-.2.1H39.4c-1.2.1-1.2.1-1.5.1l-.2-.7zm19.2 4.2c1.2-1.8 2.1-3.4 2.9-5.4.8-2 1.2-3.6 1.3-4.9 2.1.5 2.2.6 2.2.8 0 .2-.2.3-.8.3-1 2.6-1.5 3.9-2.5 5.5 1 .1 1.3.2 1.3.4 0 .1-.1.3-.5.4v11.2c0 .3-.3.4-1 .4-.4 0-.4 0-.4-.3.1-1.6.1-2.2.1-3.8v-7.3c-.8 1.3-1.2 1.8-2.3 3l-.3-.3zm4.2 8c1.4-3.1 1.8-5.3 1.8-10.5 0-2 0-2.1-.1-3.1.8.3 1 .5 1.7.9h9.3c.5-.6.7-.8 1.2-1.3.8.7 1 .9 1.6 1.5.1.1.1.1.1.2s-.1.1-.2.1H64.3c0 3.6-.1 5.1-.5 7.1s-1.1 3.5-2.4 5.3l-.3-.2zm9.4-15.7v-2.4c1.8.2 2.1.3 2.1.5s-.3.3-.8.4v1.5h1.7l1-1.3c.8.6 1 .8 1.7 1.5.1.1.1.1.1.2s-.1.1-.3.1h-4.2v1.8c0 .2-.3.3-1 .3-.3 0-.4-.1-.4-.3v-1.8h-2.8v1.8c0 .2-.3.3-1 .3-.3 0-.4-.1-.4-.2v-1.8h-1.8c-.8 0-1.1 0-1.6.1l-.1-.9c.6.1 1.3.2 1.8.2h1.8c0-1.3 0-1.7-.1-2.4 1.5.3 1.8.3 1.9.4.2.1.3.1.3.2 0 .2-.2.3-.8.4v1.4h2.9zm.2 11.6c.1 3.7.1 3.7.1 4 0 .1 0 .2-.1.2-.1.1-.5.1-.9.1-.3 0-.4-.1-.4-.3v-4.1h-2.8V88c0 .3-.2.4-1 .4-.3 0-.4-.1-.4-.3 0-.7 0-.7.1-3.3V84c0-5.2 0-6.2-.1-7.3.7.3.9.4 1.6.8h6.7c.3-.3.4-.4.7-.8.6.4.8.5 1.3.9.1.1.2.2.2.3 0 .1-.1.2-.6.5v4.9c0 3 0 3 .1 3.8 0 .4 0 .6-.2.8-.3.3-.6.4-1.7.6-.1-.6-.2-.7-.5-.9-.3-.1-.7-.3-1.3-.4v-.3c1.5.1 1.5.1 2.1.1.2 0 .2 0 .2-.3v-3h-3.1zM69.4 78h-2.8v2.4h2.8V78zm0 2.8h-2.8v2.5h2.8v-2.5zm4.2-.4V78h-2.9v2.4h2.9zm-2.9 2.9h2.9v-2.5h-2.9v2.5z" fill="#fff"/></g></g></g></svg>