<svg xmlns="http://www.w3.org/2000/svg" width="230.48" height="421.08" viewBox="0 0 230.48 421.08"><defs><style>.cls-1{fill:#fff;}.cls-2{fill:#6d554d;}</style></defs><g id="レイヤー_2" data-name="レイヤー 2"><g id="客室"><path class="cls-1" d="M197.72,20.49c-.87,0-.87.31-.87,1.6,0,.86,0,1.93-1.23,1.93-.9,0-.9-.73-.9-1.07,0-.16.08-1,.08-1.23.09-1.45.26-5.37.26-9,0-3.75-.17-7-.28-8.4,0-.28-.28-1.57-.28-1.85,0-.08,0-.25.14-.25a4.45,4.45,0,0,1,1.54.59,2.54,2.54,0,0,0,1.34.36H199a1.16,1.16,0,0,0,.76-.14c.08,0,.56-.58.7-.58s2,1,2,1.4c0,.14-.09.22-.23.33l-.5.39c-.17.28-.17,6.42-.17,7.65,0,1.4.11,3.89.11,4.25,0,.56.17,3.25.17,3.87a1.67,1.67,0,0,1-.22,1,2.31,2.31,0,0,1-1.26.58c-.51,0-.53-.39-.59-.81-.06-.67-.48-.67-.9-.67ZM197.58,4a.93.93,0,0,0-.65.2c-.19.19-.19.39-.19,2.15,0,2.3,0,2.38.84,2.38h1.48a.9.9,0,0,0,.62-.19c.22-.2.22-.4.22-2.19,0-2.27,0-2.35-.84-2.35Zm0,5.46c-.4,0-.7.11-.82.53,0,.11,0,2.58,0,3.89,0,.45.39.65.84.65h1.48a.72.72,0,0,0,.84-.76c0-.39,0-3.72-.08-3.92-.14-.36-.59-.39-.76-.39Zm0,5.8c-.78,0-.84.44-.84.92,0,.64,0,3,.09,3.22s.61.39.78.39H199c.87,0,.9-.17.9-3.19,0-.87,0-1.34-.84-1.34ZM204,17.8c-.36.56-.48.73-.73.73s-.36-.08-.61-.81c-.09-.28-.7-1.68-.7-1.88s.08-.19.19-.19.65.11.76.11a17,17,0,0,0,2.85-.53c.9-.26,1-.56,1-1.82,0-8-.2-10.42-.56-11.71a6.12,6.12,0,0,1-.34-.78c0-.11.17-.11.25-.11a18.18,18.18,0,0,1,1.85.33c.73.14,1.15.25,1.15.62,0,.11,0,.17-.34.53a.61.61,0,0,0-.17.42v7.87c0,5.6-.14,10.64-5.51,13.75A13,13,0,0,1,198.56,26c-.06,0-.17,0-.17,0s.11-.17,1.09-.67c1.71-.87,4.37-2.41,5.77-5.07a12.35,12.35,0,0,0,1.15-3.72c0-.09,0-.28-.09-.34C206,15.87,204,17.69,204,17.8Zm1.26-7c0,1-.64,1.45-1.06,1.45s-.62-.22-1-2.21a4.36,4.36,0,0,0-1-2.13c-.11-.17-.11-.28-.05-.33S205.22,8.76,205.22,10.75ZM213,10.1c0,.09.06.34.23.34.47,0,2.57-2.69,2.85-3.7.17-.53.17-.59.34-.59a9,9,0,0,1,2.44,2.13c0,.23-.48.34-.7.37a1.22,1.22,0,0,0-.56.19A25,25,0,0,1,214.1,11c-.82.42-1.12.61-1.12,1.42a1.22,1.22,0,0,0,1,1.38c4,1.51,4.39,3.27,4.39,3.86a1.19,1.19,0,0,1-1.12,1.23c-.7,0-.92-.5-1.51-1.79s-1.79-2.8-2.38-2.8c-.36,0-.36.25-.36,2.38a58,58,0,0,0,.19,5.88c.09.36.48.56,1.91.56,2.07,0,2.12-.2,2.54-1.37a11.53,11.53,0,0,1,.7-2.13c.12,0,.12.25.12.67a4.68,4.68,0,0,0,.47,2.58c.06.11.56.67.56.84a1.15,1.15,0,0,1-.59.67c-1,.62-2.94.7-4.17.7-3.53,0-3.53-.67-3.53-3.7,0-.84.06-5,.06-6,0-2-.06-12-.2-13.1,0-.17-.33-1.09-.33-1.29s.11-.11.19-.11,1.8.22,1.91.25c.56.08,1,.14,1,.53,0,.14-.54.65-.62.79a36,36,0,0,0-.22,5C213,7.78,213,10,213,10.1Z"/><path class="cls-1" d="M207.71,52.41a.69.69,0,0,0-.78.73,20.51,20.51,0,0,0,.11,2.71c.17.34.59.34.84.34h5.63c1.31,0,1.45,0,1.9-.67.62-.87.7-1,.93-1s2.35,1.54,2.35,2-.48.42-1.49.42H198.7c-.68,0-2.55,0-3.53.08l-.59.06c-.11,0-.17-.06-.25-.17l-.53-.64c-.06-.09-.14-.14-.14-.2s.05-.06.11-.06,1,.09,1.23.09c.78,0,2.24.11,3.84.11H204c.37,0,.79,0,1-.42.05-.14.05-1.54.05-2.35s-.11-1-1-1h-2.35c-.67,0-2.55,0-3.53.08l-.59.06c-.08,0-.14-.06-.25-.17l-.53-.64c-.11-.14-.11-.14-.11-.2s0,0,.08,0,1,.08,1.23.08c.81,0,2.27.11,3.84.11h2.18c.37,0,1,0,1-.75a18.82,18.82,0,0,0-.11-2.61c-.2-.31-.53-.31-.87-.31h-3.72c-.67,0-2.55,0-3.53.09l-.59,0c-.11,0-.17,0-.25-.19l-.56-.62c-.11-.17-.11-.17-.11-.19s.05-.06.11-.06,1,.08,1.23.08c.79,0,2.24.12,3.84.12h11.95c.87,0,1,0,1.26-.23s1.35-1.15,1.6-1.15,2,1,2,1.66c0,.44-.14.44-1.52.44h-8.09c-.78,0-.78.12-.78,2.89a.68.68,0,0,0,.78.78h3.5c1.35,0,1.49,0,1.91-.56s.58-.75.81-.75a4.73,4.73,0,0,1,1.93,1.68c0,.36-.56.36-1.48.36ZM198.64,37.6c-.84,0-.92.14-.92,2.77,0,2.38.22,2.69,1.56,2.69.42,0,1.74,0,3.73-.17.28,0,1.51-.17,1.76-.17.45,0,.56.17.56.45a1.37,1.37,0,0,1-.84,1.18,32.54,32.54,0,0,1-5.09.28c-3.36,0-3.36-.42-3.39-3.92,0-.31,0-2.66,0-2.78a.4.4,0,0,0-.45-.28c-.11,0-.73.09-.78.09s-.14-.09-.23-.2L194,36.9c-.11-.11-.11-.14-.11-.17s0-.08.09-.08,1.06.08,1.26.11c2.24.08,3.1.08,4,.08s.78-.59.78-1.23a13.5,13.5,0,0,0-.11-2,4,4,0,0,1-.17-.64.32.32,0,0,1,.34-.28,12,12,0,0,1,2,.5c.39.11.64.17.64.42s-.56.64-.64.76-.17.33-.17,1.62c0,.62.25.81.84.81,1.37,0,1.54,0,1.85-.47.5-.79.53-.84.73-.84a5,5,0,0,1,1.87,1.65c0,.42-.5.42-1.48.42Zm11.45,3.22c-.67,0-.78.17-1,.7-1.68,3.72-4.36,4.23-4.45,4.23s-.17,0-.17-.12.65-.56.73-.67a10.84,10.84,0,0,0,2.94-7.5,16.79,16.79,0,0,0-.14-2.69c-.05-.62-.14-1-.14-1s0-.25.17-.25,1.65.65,1.85.73a1.36,1.36,0,0,0,.78.17h3.84a.93.93,0,0,0,.53-.11c.17-.12.84-.84,1-.84s2,1.12,2,1.51c0,.17-.76.56-.84.7A3.26,3.26,0,0,0,217,37a39.38,39.38,0,0,1-.64,6.47,3.05,3.05,0,0,1-2.44,2.32c-.47,0-.61-.16-1.29-1a3.61,3.61,0,0,0-1-.81c-.14-.08-.47-.25-.47-.39s.14-.14.22-.14.34.06.48.08a9.32,9.32,0,0,0,1.51.14c.73,0,1.09-.19,1.29-1.14.05-.23.22-1,.22-1.15,0-.56-.59-.56-.81-.56Zm4.17-.76c.56,0,.82,0,.82-1.34a.6.6,0,0,0-.68-.65h-3.83c-.53,0-.9,0-.9,1.38,0,.61.51.61.73.61Zm-3.41-4.93c-.48,0-.95,0-.95.59,0,1.46,0,1.63.72,1.63h3.81c.79,0,.79-.26.79-1.49,0-.73-.4-.73-.9-.73Z"/><path class="cls-1" d="M206.14,69.41c0,.08.06.19.06.3a21.8,21.8,0,0,1,.28,3c0,1.87-.42,4.48-2.88,8.2-2.24,3.42-3.67,4.09-4.79,4.09-1.85,0-3.5-2.88-3.5-6.3a9.88,9.88,0,0,1,3.11-7.14A11.57,11.57,0,0,1,207.35,68a9.19,9.19,0,0,1,4.51.89A8.8,8.8,0,0,1,216.73,77a10.45,10.45,0,0,1-7.06,9.86,17.3,17.3,0,0,1-4.65,1c-.11,0-.28,0-.28-.2s.06-.11.76-.39c2.91-1.15,9-3.56,9-10.53,0-1.09-.11-7.76-7.76-7.76C206.17,69,206.14,69.24,206.14,69.41ZM197,78c0,1.82.73,4.31,2.44,4.31.81,0,1.48-.33,3.42-3.24a16.07,16.07,0,0,0,2.74-8.15c0-1.68-.11-1.82-.48-1.82C202.5,69.1,197,72.71,197,78Z"/><path class="cls-1" d="M197.66,100.18c-.67,0-.73.17-.9,1.12a2.35,2.35,0,0,1-1.87,2,1,1,0,0,1-.93-1,1.27,1.27,0,0,1,.17-.64c.14-.26,1-1.46,1.09-1.74s.7-1.93.76-2.1c.14,0,.5.87.59,1.12a.85.85,0,0,0,1,.56h6.69c.62,0,.76-.28.76-.78,0-.14,0-.79-.06-1s-.17-.78-.17-.92.23-.26.4-.26,2.43.34,2.43.84a4.36,4.36,0,0,1-.45.73,1.42,1.42,0,0,0-.14.67c0,.76.42.76.79.76h6.89a.86.86,0,0,0,.7-.2c.11-.11.58-.75.75-.75s2.52,1.73,2.52,2.35a.64.64,0,0,1-.64.67c-.2,0-1.23-.19-1.46-.19a3.1,3.1,0,0,0-1.54.39c-.05,0-.45.25-.47.25s-.06-.06-.06-.08a11.22,11.22,0,0,0,.53-1.35c0-.33-.25-.36-.5-.36ZM211,106.51a1,1,0,0,0,.9-.37c.25-.31.42-.45.62-.45s.25.09,1.31.87c.65.48.73.53.73.76s-.11.31-.56.64-.34.45-.34,2c0,.73.17,4.45.17,4.59a1.39,1.39,0,0,1-1.34,1.37c-.59,0-.62-.33-.65-.64s-.22-.5-.64-.5h-1.71c-.5,0-.67.11-.67.67a18.84,18.84,0,0,0,.17,3.13c.11.48.19.84,3.22.84s3.67-.25,4.62-2.21c.11-.22.56-1.51.64-1.68,0,.23.28,1.63.37,1.93a14.14,14.14,0,0,1,.78,1.68c0,.4-.36,2.19-5.35,2.19-6.19,0-6.19-.81-6.19-3.08,0-.45,0-2.91,0-3.11-.09-.36-.37-.36-.68-.36h-1.9c-.17,0-.22,0-.22.11s.19.25.25.28c.42.31.53.39.53.53s-.06.17-.22.28a1.37,1.37,0,0,0-.51.45c-1.87,3.25-3.16,5.23-9.32,5.23-.7,0-.79,0-.79-.14s.23-.11.28-.14a12.23,12.23,0,0,0,6.33-2.8,6.65,6.65,0,0,0,1.91-3.41c0-.39-.31-.39-.51-.39h-1.59c-.56,0-.59.16-.7.53a1.66,1.66,0,0,1-1.4.84c-.65,0-.68-.31-.68-.53,0-.7.2-3.81.2-4.43,0-1.2-.06-2.85-.14-4.06,0-.19-.25-1.12-.25-1.31s.14-.17.22-.17a15.21,15.21,0,0,1,1.6.59,2.72,2.72,0,0,0,1.29.28Zm-7-2.24c-.26,0-.65,0-.65.5a1.27,1.27,0,0,1-.19.9,1.44,1.44,0,0,1-1.1.58c-.64,0-.67-.36-.7-1.45,0-.53-.25-.53-.81-.53-.17,0-2.24,0-3.22.08-.11,0-.5.06-.59.06s-.16-.06-.25-.17l-.56-.65c-.08-.14-.11-.14-.11-.19s0-.06.11-.06.87.09,1,.09c.95,0,2.83.11,3.75.11.28,0,.67,0,.67-.59,0-.11,0-.59,0-.78s-.26-.7-.26-.84.31-.23.42-.23,2.24.28,2.24.79c0,.11-.3.5-.33.58a.91.91,0,0,0-.11.51c0,.45.19.56.67.56h3.78c.56,0,.59-.28.59-.67a4.34,4.34,0,0,0-.09-1.1c0-.11-.36-.47-.36-.56s.17-.14.25-.14,1.79.26,2,.31c.73.11.9.31.9.51s-.2.36-.53.61a.71.71,0,0,0-.34.59.43.43,0,0,0,.48.45c1.59,0,1.76,0,2.13-.48.61-.87.67-1,.95-1s2.27,1.29,2.27,1.74-.51.42-1.52.42h-3.66c-.23,0-.59,0-.59.56s0,1.23-1.15,1.23c-.62,0-.81-.17-.81-.9s0-.89-.56-.89Zm7.14,4.62c.3,0,.64,0,.64-.59,0-.84,0-1.07-.64-1.07h-10.5c-.68,0-.68.17-.68,1.15,0,.51.4.51.68.51Zm.08,2.54c.2,0,.64,0,.64-.47,0-1.21,0-1.32-.64-1.32H200.66c-.23,0-.65,0-.65.48,0,1.2,0,1.31.65,1.31Zm.06,2.61c.61,0,.61-.37.61-.87,0-.67,0-1-.61-1H200.63c-.62,0-.62.37-.62.87,0,.67,0,1,.62,1Z"/><path class="cls-1" d="M204.18,131.12c.48,1.65,1.26,2.88,1.49,2.88a3.53,3.53,0,0,0,1.06-.45c.59-.36.67-.39,1-.39a.86.86,0,0,1,.92.81c0,.09,0,1-1.48,1.52-.2,0-.39.11-.39.19a10.9,10.9,0,0,0,1.71,2.38c.11,0,1-.31,1-.78,0-.11-.36-.51-.36-.62s.25-.25.39-.28c.59,0,1.51-.14,1.77-.14.89,0,1.65.45,1.65,1.23,0,.56-.37,1.18-2.47,1.91-.75.25-.84.28-.84.42s.06.19.93,1.57c1.34,2.12,1.79,3.36,1.79,4.39a1.86,1.86,0,0,1-1.65,1.93c-.7,0-.9-.14-2.69-1.4a4.66,4.66,0,0,0-2.74-.84c-2.5,0-3.7,1.63-3.7,2.89,0,2.07,2.46,2.21,3.19,2.21.45,0,2.33-.2,2.72-.2s1.31.09,1.31,1c0,1.6-2.94,1.6-3.24,1.6-.84,0-5.55,0-5.55-3.92,0-1.71,1.29-4.4,5.43-4.4a10.72,10.72,0,0,1,2.69.34,7,7,0,0,0,1.35.17.56.56,0,0,0,.61-.57,13.4,13.4,0,0,0-1.51-4c-.14-.25-.25-.36-.45-.36s-.78.19-.92.22a14.24,14.24,0,0,1-3.87.56c-1.87,0-2.68-.28-3.38-.81a2.25,2.25,0,0,1-1-1.46.26.26,0,0,1,.22-.28,2.41,2.41,0,0,1,.67.37,6.61,6.61,0,0,0,3.14.7,9.26,9.26,0,0,0,4.37-.9A10,10,0,0,0,205.5,136c-.08,0-1.54.25-1.85.25-2.15,0-3.81-1.51-3.81-2a.22.22,0,0,1,.2-.23c.08,0,.9.31,1.09.37a3.9,3.9,0,0,0,1.54.28c.62,0,1.68-.11,1.68-.34a9.27,9.27,0,0,0-2.85-3c-.82-.39-.9-.42-.9-.64a1.15,1.15,0,0,1,1.09-.73C202.28,129.94,203.93,130.25,204.18,131.12Zm8.52.5c1.06.45,1.79,1.32,1.79,1.85s-.34,1.12-.79,1.12-.53-.11-1.51-1.09a7.74,7.74,0,0,0-2.1-1.51c-.14-.09-.45-.26-.45-.4s.23-.28.45-.28A5.52,5.52,0,0,1,212.7,131.62Zm1.2-2.6c2.46,0,3.36,1.37,3.36,2.07a.74.74,0,0,1-.7.81c-.59,0-.81-.22-1.48-.87a7.2,7.2,0,0,0-2.64-1.23c-.28-.08-.39-.19-.39-.28s.42-.36,1-.45C213.34,129.05,213.7,129,213.9,129Z"/><path class="cls-1" d="M211.66,175.75c.28,0,.62,0,1.2-.7.73-.9.93-1,1.15-1,.42,0,2.61,1.57,2.61,2s-.26.4-.73.4H208.1c-.72,0-.72.59-.72,1.73,0,.48,0,4.6,0,4.87.06.57.68.57.7.57h6.05c.62,0,.81-.28,1.15-.84.73-1.12.81-1.24,1.06-1.24a7.91,7.91,0,0,1,2.55,2.47c0,.31-.28.33-.7.33H198.36c-.87,0-2.74,0-3.72.09-.12,0-.51,0-.59,0s-.17,0-.25-.16l-.56-.65c-.09-.11-.12-.14-.12-.17s0-.08.12-.08.86.08,1,.08c.84.06,3,.12,4.06.12h6.28c.72,0,.72-.62.72-.9,0-.78.09-4.2.09-4.9s0-1.37-.73-1.37h-3.81c-.7,0-2.55,0-3.53.08-.11,0-.53.09-.61.09s-.2-.15-.23-.17l-.56-.67c-.11-.12-.11-.14-.11-.17s0-.09.11-.09,1,.12,1.24.12c1.2.05,2.35.08,3.83.08Zm-13.47-10.53c-.64,0-.7,0-.89.95-.23,1.15-1,2.22-2.08,2.22-.64,0-1-.37-1-.73a10.75,10.75,0,0,1,1-1.85,6.78,6.78,0,0,0,.56-2.55c0-.11,0-.47.17-.47s.56.58,1,1.2a1,1,0,0,0,1,.5h6.52c.76,0,.76-.53.76-1.87a8.74,8.74,0,0,0-.14-1.63,3.89,3.89,0,0,1-.25-.5c0-.06,0-.22.36-.22.56,0,2.8.42,2.8.86,0,.14-.53.7-.59.84a5,5,0,0,0-.22,1.71c0,.25,0,.81.7.81H214a1.07,1.07,0,0,0,1.14-.81c.17-.33.34-.67.51-.67a21.38,21.38,0,0,1,2.49,1.54c.7.48.7.7.7.84,0,.56-.22.53-2.55.59a3.38,3.38,0,0,0-1.65.59c-.14.08-1,.64-1.09.64s-.11-.08-.11-.14a12.3,12.3,0,0,0,.89-1.65c0-.2-.19-.2-.53-.2h-3.61c-.73,0-.73.59-.73.87a28.85,28.85,0,0,0,.2,3.89c.19.73.61.81,3,.81,2.71,0,3,0,3.75-1.17a9,9,0,0,1,1-1.6c.17,0,.17.11.14.84,0,.56,0,1,.48,1.37s.42.34.42.54c0,.58-.76,1.34-1.68,1.59a15.32,15.32,0,0,1-4,.28c-4.31,0-4.92,0-4.92-2.55,0-1,0-3.27-.06-4.2a.68.68,0,0,0-.73-.67h-2.63c-.45,0-.64,0-.64.17s.44.36.7.5c.61.4.61.48.61.62s-.22.39-.84.67c-.22.11-1.51,2-1.82,2.32a12.45,12.45,0,0,1-5.09,3.76,8.9,8.9,0,0,1-2.72.84s-.14,0-.14-.11.34-.2.42-.26c3.95-1.68,7.28-6,7.28-7.95,0-.42-.17-.56-.81-.56Z"/><path class="cls-1" d="M201.83,194.15a.88.88,0,0,0,.79-.31c.28-.31.5-.53.75-.53s1.71,1,1.71,1.42c0,.14-.45.56-.53.68s-.2.47-.2,1.23.14,4.28.14,5.09c0,1.54-.78,1.82-1.17,1.82-.68,0-.76-.53-.82-1s-.39-.58-.92-.58h-3.47c-.45,0-.9,0-1,.36a14.14,14.14,0,0,0-.08,2c0,1.29,0,6,0,7.08,0,.62.11,3.58.11,4.26,0,.5,0,2-1.46,2-.73,0-.73-.78-.73-1s0-.75,0-1.12c.28-8.31.28-10.16.28-13.24,0-1.71,0-5.91,0-6.27s-.16-2.55-.16-2.58,0-.28.11-.28a3.93,3.93,0,0,1,1.31.51c.73.39.82.42,1.21.42Zm-4,4.28c-.56,0-.84,0-.84.56v1.62c0,.62.22.62.84.62h3.95c.56,0,.84,0,.84-.56v-1.6c0-.61-.23-.64-.84-.64Zm0-3.53c-.65,0-.81,0-.81.7v1.51c0,.59.25.59.81.59h4c.65,0,.81,0,.81-.73v-1.51c0-.56-.25-.56-.81-.56ZM208,205.43a.67.67,0,0,0,.64-.25c.23-.26.54-.56.79-.56s1.65.92,1.65,1.43a.61.61,0,0,1-.17.36,1.23,1.23,0,0,0-.39.84c-.08.73,0,5.15,0,5.82s0,1.12-.25,1.43a1.82,1.82,0,0,1-1.18.62c-.61,0-.61-.59-.61-1,0-.67-.37-.67-.93-.67H204.1c-.64,0-.78.11-.84.64-.11.84-.59,1.32-1.29,1.32-.36,0-.64-.14-.64-1,0-.2,0-.95,0-1.2.09-1.46.12-2.3.12-3.48,0-.14,0-2.82-.09-3.83,0-.11-.08-.73-.08-.87s.11-.25.25-.25c.31,0,1.74.67,2.07.67Zm-4.06.76c-.67,0-.73.05-.73.89v1.4c.09.39.31.39.73.39h3.95c.42,0,.64,0,.73-.39v-1.59c0-.7-.2-.7-.73-.7Zm.06,3.44c-.54,0-.79,0-.79.59v1.93c0,.53.28.53.79.53h3.83c.62,0,.79,0,.79-.73,0-.25,0-1.79,0-1.93-.09-.39-.2-.39-.76-.39Zm10.75-15.54a.63.63,0,0,0,.59-.22c.33-.37.44-.45.61-.45s1.82.89,1.82,1.43c0,.16-.14.3-.31.44-.44.4-.44.48-.44,1.49,0,2.57.05,15.29.05,18.17,0,1.12-.14,1.79-1.12,2.3a4.52,4.52,0,0,1-1.31.44c-.31,0-.51-.28-.79-.75a1.91,1.91,0,0,0-.78-.81c-.2-.12-1.37-.42-1.37-.68s1-.19,1.31-.19c1.82-.09,2.1-.23,2.19-1,0-.28.08-7.31.08-11.31,0-.87-.39-.87-1.09-.87h-3.64c-.65,0-.73.14-.81.59-.09.61-.79.89-1.29.89a.61.61,0,0,1-.67-.53c0-.17,0-5.68,0-6.1s-.14-2.5-.14-3c0-.14.05-.48.31-.48a4,4,0,0,1,1.31.45,1.2,1.2,0,0,0,.73.17Zm-.25,3.47c.5,0,.78,0,.78-.61v-1.71c-.08-.42-.34-.42-.78-.42H210.4c-.48,0-.78,0-.78.64,0,.42,0,1.57,0,1.68.06.42.37.42.76.42Zm0,3.78c.53,0,.78,0,.78-.59v-1.84c0-.59-.22-.59-.78-.59h-4.06c-.56,0-.82,0-.82.56v1.85c0,.61.23.61.82.61Z"/><path class="cls-2" d="M180.5,265.17c0,1.38.09,1.5,1.17,1.53v.38H178v-.38c1.06,0,1.15-.15,1.15-1.53v-7.06c0-1.4-.07-1.5-1.15-1.55v-.36h4.15c2.75,0,4,.86,4,2.69a2.85,2.85,0,0,1-.51,1.69,3.67,3.67,0,0,1-2.52,1.11v.14a2.42,2.42,0,0,1,1.2.54,4.93,4.93,0,0,1,1.25,2c.73,1.67.85,1.88,1.15,2.13a1.17,1.17,0,0,0,.8.29v.33h-2.34a30,30,0,0,0-1.64-3.89c-.36-.64-.64-.94-1.09-1.09a3.08,3.08,0,0,0-1.07-.18h-.91Zm1.24-3.7a3.79,3.79,0,0,0,2.07-.47,2.26,2.26,0,0,0,.92-2c0-1.58-.93-2.34-2.85-2.34H180.5v4.81Z"/><path class="cls-2" d="M191,260.3a3.61,3.61,0,0,1,2.61-1c2.19,0,3.63,1.55,3.63,3.9,0,2.51-1.44,4.08-3.72,4.08a3.53,3.53,0,0,1-3.61-3.87A4.48,4.48,0,0,1,191,260.3Zm2.57,6.61c1.47,0,2.28-1.27,2.28-3.58s-.84-3.69-2.31-3.69-2.24,1.28-2.24,3.57S192.08,266.91,193.52,266.91Z"/><path class="cls-2" d="M201.2,260.3a3.6,3.6,0,0,1,2.61-1c2.19,0,3.63,1.55,3.63,3.9,0,2.51-1.44,4.08-3.72,4.08a3.54,3.54,0,0,1-3.62-3.87A4.48,4.48,0,0,1,201.2,260.3Zm2.56,6.61c1.47,0,2.28-1.27,2.28-3.58s-.84-3.69-2.31-3.69-2.23,1.28-2.23,3.57S202.32,266.91,203.76,266.91Z"/><path class="cls-2" d="M212.42,260.92a2.69,2.69,0,0,1,2.49-1.63,1.9,1.9,0,0,1,2,1.74,2.71,2.71,0,0,1,2.57-1.74,2.11,2.11,0,0,1,1.69.69,3,3,0,0,1,.47,2v3.24c0,1.4.07,1.52,1.09,1.55v.33h-3.42v-.33c1,0,1.1-.15,1.1-1.55v-3a3.36,3.36,0,0,0-.29-1.82,1.12,1.12,0,0,0-1.14-.55,1.67,1.67,0,0,0-1.39.88,2.84,2.84,0,0,0-.57,1.82v2.65c0,1.4.07,1.52,1.09,1.55v.33h-3.4v-.33c1,0,1.08-.15,1.08-1.55V262c0-1.45-.45-2.17-1.35-2.17a1.84,1.84,0,0,0-1.5.85,2.47,2.47,0,0,0-.53,1.62v2.88c0,1.41.08,1.52,1.08,1.55v.33h-3.4v-.33c1,0,1.09-.14,1.09-1.55v-4c0-1.12-.16-1.35-1-1.35v-.33l2.25-.16Z"/><path class="cls-2" d="M225.48,264.71H226a2.36,2.36,0,0,0,.42,1.39,1.91,1.91,0,0,0,1.63.81c1,0,1.64-.52,1.64-1.41a1.2,1.2,0,0,0-.36-.87,6.35,6.35,0,0,0-1.68-.84c-1.62-.7-2.12-1.24-2.12-2.26a2.35,2.35,0,0,1,.41-1.38,2.31,2.31,0,0,1,1.86-.86,7.31,7.31,0,0,1,1.39.18l.32,0a3.29,3.29,0,0,0,.72-.1l-.08,2.37h-.49c0-1.34-.69-2.13-1.79-2.13a1.35,1.35,0,0,0-1.53,1.33.94.94,0,0,0,.41.81,6.64,6.64,0,0,0,1.56.78,4.38,4.38,0,0,1,1.72,1,2.07,2.07,0,0,1,.5,1.43,2.15,2.15,0,0,1-2.33,2.26,7.73,7.73,0,0,1-1.5-.18,3.84,3.84,0,0,0-.55,0,4,4,0,0,0-.68.06Z"/><path class="cls-1" d="M85.6,16.46c0-1.21.07-6.3.07-9.91,0-3.45,0-4.88-.07-5.92A5.52,5.52,0,0,1,87,1.48h1.78l.7-.74c.47.41.61.54,1.06,1,.13.14.17.2.17.25s-.17.2-.62.27a40.57,40.57,0,0,1-2,4.09A7.45,7.45,0,0,1,89.47,8a5.16,5.16,0,0,1,.6,2.36,3.4,3.4,0,0,1-.67,2.21,2.37,2.37,0,0,1-1.49.62,1.2,1.2,0,0,0-1.1-1.34v1.17c0,.45,0,.89,0,3.32,0,.2-.09.25-.3.29s-.51.07-.65.07-.29-.06-.29-.25Zm1.21-4.92a8.13,8.13,0,0,0,1.46.24.5.5,0,0,0,.52-.38A4,4,0,0,0,89,10a5.09,5.09,0,0,0-1.42-3.53c.61-1.86,1-3.42,1.3-4.54H86.81Zm12.48-2.1,0,5.32c0,1.1-.23,1.28-2.37,1.81a1,1,0,0,0-.6-1.05,8.31,8.31,0,0,0-2.21-.45v-.31l3.53.2c.27,0,.34-.07.34-.3V2.34H92.44a10.49,10.49,0,0,0-1.24.09L91,1.78a7.26,7.26,0,0,0,1.44.15h6L99.54.72a16.1,16.1,0,0,1,1.69,1.37.33.33,0,0,1,.07.13c0,.07-.07.12-.16.12H99.29Zm-6.94,2.44c0,.17-.07.22-.23.26l-.65,0c-.2,0-.27,0-.29-.23.06-2,.06-2.18.06-3,0-2.81,0-3.64-.06-4.41a5.44,5.44,0,0,1,1.28.77h2.27c.27-.3.36-.41.63-.73.42.32.54.41.94.75.14.13.2.2.2.25S96.39,5.8,96,6c0,2.37,0,2.37,0,5.31,0,.14,0,.2-.13.25a3.05,3.05,0,0,1-.73.09c-.2,0-.27,0-.31-.18v-.85H92.35Zm0-1.67h2.49V5.71H92.35Z"/><path class="cls-1" d="M88.14,33.92c1.17-.2,1.39-.26,2-.38V27.11c0-.58,0-.72,0-1.13a15.63,15.63,0,0,1,1.78.28c.14,0,.2.09.2.2s-.15.24-.76.42v2.23h1.1c.45-.54.58-.69,1-1.17.61.54.79.72,1.37,1.31a.29.29,0,0,1,.07.17c0,.07-.07.1-.18.1H91.38V33.3c1.71-.36,2.47-.55,4-1l.11.21a39,39,0,0,1-5.19,1.91c-1.31.41-1.78.54-4.35,1.21-.15.61-.22.79-.4.79s-.18,0-.76-2.07A15.92,15.92,0,0,0,87,34.1V28.77a14.08,14.08,0,0,0,0-1.43c1.61.18,1.93.26,1.93.44s-.14.23-.74.39Zm10.32-9.15c.45-.54.59-.7,1-1.21.71.6.92.78,1.57,1.41a.21.21,0,0,1,.05.12c0,.06-.05.09-.16.09H96.08a18.49,18.49,0,0,0,.7,4.41,12.59,12.59,0,0,0,1.41,3.12,10.75,10.75,0,0,0,1.31,1.51,9.93,9.93,0,0,0,.6-1.38l.65-1.7.21,0L100.48,34c0,.07,0,.14,0,.21a3,3,0,0,0,0,.34c0,.18.08.31.33.62a.77.77,0,0,1,.23.5.51.51,0,0,1-.5.54c-.81,0-2-.95-3-2.34-1.49-2.21-2.28-4.9-2.59-8.7H86.47a8.75,8.75,0,0,0-1.43.11l-.12-.68a6,6,0,0,0,1.55.16h8.42c0-.76-.07-1.35-.09-2.23a19.16,19.16,0,0,0-.14-2.31c.38.06.65.09.83.13,1,.12,1.17.16,1.17.3s-.09.18-.65.36c0,.53,0,.83,0,1.17,0,.76,0,1.72.07,2.58Zm-12-2.67a5.88,5.88,0,0,0,1.4.13h3.37c.45-.54.59-.7,1.06-1.22a15.14,15.14,0,0,1,1.43,1.35.29.29,0,0,1,.07.18c0,.07-.07.1-.17.1H87.85a7.93,7.93,0,0,0-1.29.08Zm10.19-1a6.63,6.63,0,0,1,2.07,1.22.94.94,0,0,1,.38.74c0,.49-.31,1-.6,1-.14,0-.18-.06-.45-.58A13.93,13.93,0,0,0,97.18,22a5.09,5.09,0,0,0-.63-.74Z"/><path class="cls-1" d="M86.36,52.64c0,1.36,0,2.39,0,3.44,0,.21-.16.28-.59.28a1.3,1.3,0,0,1-.24,0h0c-.24,0-.33-.07-.34-.29.05-1.85.09-6,.09-8.67,0-2.11,0-4.25-.09-7.3a9,9,0,0,1,1.29.8h2.07l.63-.71c.49.38.63.51,1.07.88.07.08.1.13.1.18s0,.17-.64.35c-1.08,2.19-1.62,3.24-2.09,4.05a7.62,7.62,0,0,1,1.56,2.47,4.56,4.56,0,0,1,.27,1.65,2.75,2.75,0,0,1-.79,2.05,1.72,1.72,0,0,1-1.13.53c-.26-.81-.4-.94-1.19-1.12Zm0-1.7c.63.06,1,.08,1.22.08.38,0,.49,0,.6-.22a3.54,3.54,0,0,0,.25-1.4,4.85,4.85,0,0,0-1.37-3.68,21.7,21.7,0,0,0,1.46-4.39H86.36Zm5.89-1.74V54a34,34,0,0,0,3.49-.75l.11.25a44.86,44.86,0,0,1-5.64,2c0,.55-.12.75-.3.75s-.26-.21-.69-1.8a9.58,9.58,0,0,0,1.23-.18l.64-.11v-5H91a8.56,8.56,0,0,0-1.17.07l-.2-.61a11,11,0,0,0,1.37.12h7.68c.42-.48.56-.64,1-1.1A18.2,18.2,0,0,1,101.05,49a.21.21,0,0,1,0,.13s-.08.11-.18.11H94.35A6.48,6.48,0,0,0,96.21,52a12.12,12.12,0,0,0,2.19-2.56l.71.41c.7.42.86.53.86.65a.18.18,0,0,1-.18.15h0l-.61-.09a14.49,14.49,0,0,1-2.72,1.63,9.4,9.4,0,0,0,4.83,2.13v.29a1.57,1.57,0,0,0-1.41,1.31,9.25,9.25,0,0,1-2.44-1.64,9.85,9.85,0,0,1-3.21-4.5c0-.16-.11-.29-.2-.59ZM92,47.5c-.07.26-.25.33-.83.33-.22,0-.29-.09-.32-.31,0-2.18,0-3.2,0-4.59,0-1.19,0-1.58,0-2.48a14.79,14.79,0,0,1,1.27.77h6a6.82,6.82,0,0,1,.75-.77,11.11,11.11,0,0,1,1,.77.45.45,0,0,1,.18.25.36.36,0,0,1-.13.18,2,2,0,0,1-.47.27c0,2.67,0,2.67.11,5.26,0,.29-.18.34-1.06.34-.11,0-.16-.05-.16-.18V47H92Zm2.61-5.86H92v2.1h2.61Zm0,2.52H92v2.37h2.61Zm3.73-.42v-2.1H95.63v2.1Zm-2.67,2.79H98.3V44.16H95.63Z"/><path class="cls-1" d="M87,74.18v1.21c0,.25-.13.31-.67.34a1.48,1.48,0,0,0-.34,0h0c-.2,0-.27-.07-.27-.25.07-2.29.09-3.86.09-6.63,0-2.57,0-4.07-.07-5.29,1.73.25,2,.32,2,.5s-.11.24-.65.42v9.27h4.91V62.35c0-.54,0-1.6,0-2.1a8,8,0,0,1,2,.3c.11.06.18.13.18.2s-.09.18-.79.4l0,12.62h5.24V65.5a10.81,10.81,0,0,0-.15-1.85c.42.05.74.09.94.13.92.09,1.21.18,1.21.36s-.18.28-.74.48l0,5.22c0,1,0,1.86.07,5.66,0,.25-.12.3-.66.34a1.47,1.47,0,0,0-.33,0h0c-.2,0-.27-.07-.27-.25V74.18Z"/><path class="cls-1" d="M84.72,94.81A31,31,0,0,0,88,91.46,8.89,8.89,0,0,0,89,90c.35.13.62.23.78.31,1,.39,1.06.43,1.06.59s-.16.22-.43.22h-.09a2.91,2.91,0,0,0-.47,0A10.66,10.66,0,0,1,88,92.87,17.22,17.22,0,0,1,84.86,95ZM85.44,82a49.09,49.09,0,0,0,7.74-1.42A14.11,14.11,0,0,0,97,79.29c.29.22.5.4.65.5.66.51.86.72.86.89s-.09.14-.18.14a4.12,4.12,0,0,1-.81-.22,34.85,34.85,0,0,1-4.93,1c.81.34,1.1.51,1.1.67v0c0,.09-.18.18-.38.18a3.07,3.07,0,0,1-.45-.06,18.48,18.48,0,0,1-2.59,2.18c.66.41,1,.77,1,1.19s-.2,1.11-.43,1.11-.18,0-.49-.52a11.17,11.17,0,0,0-2.81-2.82l.17-.18a12.7,12.7,0,0,1,2.25,1,13.59,13.59,0,0,0,1.94-2.66,42.59,42.59,0,0,1-6.37.54Zm6.61,7-2.43.22c-1.87.18-2.22.22-3.1.27,0,.11-.07.2-.09.25-.14.45-.2.56-.36.56s-.29-.22-.59-2.13c.57,0,.9.06,1.46.06l2,0,1.87,0A32.89,32.89,0,0,0,94,85a18.13,18.13,0,0,0,2.14-2.59c1.49,1,1.67,1.11,1.67,1.27s-.12.18-.27.18l-.72-.09A37.68,37.68,0,0,1,91.62,88C94.1,88,94.88,88,98,87.72a9,9,0,0,0-1.62-1.57l.2-.2a16.79,16.79,0,0,1,3.28,2.22,1.32,1.32,0,0,1,.63,1.22c0,.6-.22,1.06-.49,1.06s-.25-.1-.48-.5a16,16,0,0,0-1.19-1.82l-.52.09c-.72.13-.72.13-1.7.24l-2.75.32V92.7c0,.71,0,1.86,0,2.69,0,.23-.2.3-.75.3h-.18c-.27,0-.38,0-.44-.27,0-.45,0-.93,0-1.47,0-1.07,0-1.12,0-1.34Zm2.88,1.14a17.7,17.7,0,0,1,3.85,2.43,1.27,1.27,0,0,1,.51,1.15c0,.58-.22,1.06-.47,1.06s-.22-.07-.34-.27a22.59,22.59,0,0,0-3.69-4.19Z"/><path class="cls-1" d="M86.52,102.55a3,3,0,0,0,2.25.84,9.66,9.66,0,0,0,1.93-.23,4.94,4.94,0,0,0,.63-1.84c0-.48-.34-.77-1.28-1a1.38,1.38,0,0,1,.81-.2,3.72,3.72,0,0,1,1.4.3c.45.18.65.38.65.6s-.07.25-.29.52-.37.54-.52.74c-.32.52-.32.52-.45.7a6,6,0,0,0,2.6-1.15.48.48,0,0,1,.34-.13c.7,0,1.2.25,1.2.6s-.23.39-.77.57a29.42,29.42,0,0,1-3.93,1c-.32.45-.54.77-1,1.4s-.63,1-1,1.44a4.91,4.91,0,0,1,2.32-.72,2,2,0,0,1,2,1.8c.3-.14.3-.14,1.76-.88,1.78-.9,2.22-1.19,2.22-1.51s-.31-.63-.83-.85a.89.89,0,0,1,.41-.11c.79,0,2,1.1,2,1.82,0,.33-.15.45-.65.56a28.67,28.67,0,0,0-4.83,1.86c0,.57,0,.68,0,1.45a5.06,5.06,0,0,1-.14,1.55.57.57,0,0,1-.51.34.53.53,0,0,1-.57-.54c0-.09,0-.18,0-.3a15.83,15.83,0,0,0,.13-1.93,9.09,9.09,0,0,0-2.11,1.42,2.44,2.44,0,0,0-.88,1.68c0,1,1,1.44,3,1.44a13.19,13.19,0,0,0,3.62-.5,1.16,1.16,0,0,1,.34-.06c.56,0,1.26.5,1.26.9,0,.24-.2.42-.56.49a20.46,20.46,0,0,1-3.22.25,9.39,9.39,0,0,1-3.66-.52A2,2,0,0,1,89,112.47a3.44,3.44,0,0,1,1.3-2.47,13.1,13.1,0,0,1,2.23-1.6,3,3,0,0,0-.25-1.42,1,1,0,0,0-.92-.54c-1.19,0-2.61,1-3.91,2.61-.34.47-.48.57-.66.57s-.49-.37-.49-1c0-.38,0-.4.52-.81A14.47,14.47,0,0,0,90.21,104a6.83,6.83,0,0,1-1.2.11,2.92,2.92,0,0,1-2.69-1.39Z"/><path class="cls-1" d="M84.59,126.83A11.93,11.93,0,0,0,87,127H97.59c.51-.68.69-.88,1.25-1.53.91.73,1.2,1,2.08,1.73a.2.2,0,0,1,.06.11s-.07.11-.2.11H87a14.6,14.6,0,0,0-2.23.12Z"/><path class="cls-1" d="M91,141.19c.36-.45.49-.59.85-1.06a17.23,17.23,0,0,1,1.31,1.23c.07.07.09.1.09.12s-.09.13-.18.13H87.46v3.81c0,.26,0,.35.14.38a5.31,5.31,0,0,0,1.48.11,11.8,11.8,0,0,0,1.8-.07,1.19,1.19,0,0,1,.34-.07,1.11,1.11,0,0,1,.76.81c0,.27-.45.32-2.81.32a6.64,6.64,0,0,1-2.43-.22c-.35-.14-.44-.37-.44-1.11v-4h-.39a11.62,11.62,0,0,0-1.21.07l-.11-.67a4.72,4.72,0,0,0,1.32.18H88.2V140a10.17,10.17,0,0,0-.08-1.06c1.8.2,2,.25,2,.44s-.16.23-.72.41v1.4Zm2.16,10.23h3.5c.39-.49.52-.63.95-1.1l1.44,1.3a.13.13,0,0,1,.07.09s-.11.11-.2.11H93.18v2.28h5c.47-.54.61-.7,1.08-1.22.74.58,1,.76,1.64,1.37a.34.34,0,0,1,.09.14c0,.07-.09.13-.22.13H86.48a11,11,0,0,0-1.56.11l-.15-.69a8.08,8.08,0,0,0,1.71.16h5.46v-2.27H88.2a12.92,12.92,0,0,0-1.61.09l-.12-.66a7.35,7.35,0,0,0,1.71.16h3.76v-2h-4.5a11.32,11.32,0,0,0-1.55.09l-.14-.67a8,8,0,0,0,1.69.16H97.79c.31-.36.6-.7.88-1.06.65.51.85.67,1.46,1.21,0,.05.08.09.08.12s-.11.15-.22.15H93.18Zm1.28-6.55a6.3,6.3,0,0,1-1.17,2,6.49,6.49,0,0,1-2,1.6l-.18-.19a6.07,6.07,0,0,0,2-2.65,19.41,19.41,0,0,0,1.12-6.45,10.48,10.48,0,0,1,1.37.79h3.18c.31-.35.4-.45.72-.79a8.89,8.89,0,0,1,1,.79c.15.15.18.2.18.29s-.11.22-.61.47a39.21,39.21,0,0,1-1,5.91c-.29.91-.7,1.22-2,1.42a1.33,1.33,0,0,0-.64-.77c-.22-.13-.22-.13-1.43-.38v-.26c1.3.13,2.06.19,2.38.19.61,0,.63-.06,1-2Zm.56-2.25a13.58,13.58,0,0,1-.43,1.83h3.83c.15-.75.16-.93.29-1.83Zm3.74-.42c.09-.66.11-.93.2-1.78H95.34c-.1.88-.14,1.1-.25,1.78Z"/><path class="cls-1" d="M89.94,174.6c2.09-1.42,3-2.57,3.42-4.5a2,2,0,0,1-1.15.36A2.37,2.37,0,0,1,90,167.87a2.49,2.49,0,0,1,2.32-2.75,1.83,1.83,0,0,1,1,.3c0-.3,0-1.29,0-1.87,0,0,0-.2,0-.36a25.14,25.14,0,0,0-4.54.9,6,6,0,0,0-1.17.49,2.17,2.17,0,0,1-.41.09,1.89,1.89,0,0,1-1.16-.69,2.7,2.7,0,0,1-.72-1.31.67.67,0,0,1,.09-.22,2.11,2.11,0,0,0,1.75.92,10.29,10.29,0,0,0,1.55-.16c2.12-.34,2.77-.43,4.61-.63a6.11,6.11,0,0,0-.2-2c-.2-.51-.63-.76-1.55-.88.22-.27.34-.33.83-.33a6.17,6.17,0,0,1,1.75.25c.43.15.68.38.68.63s0,.18-.18.49a4.44,4.44,0,0,0-.4,1.75c.47-.06.47-.06,1.17-.11a8.53,8.53,0,0,0,2.4-.32,1.67,1.67,0,0,1,.66-.2,3.16,3.16,0,0,1,1.53.66.55.55,0,0,1,.29.49c0,.2-.12.31-.39.31a7,7,0,0,1-1-.11,18.6,18.6,0,0,0-2.77-.18c-.66,0-1.19,0-1.92.07-.08.68-.13,1.78-.13,2.45,0,.12,0,.34,0,.61a4.7,4.7,0,0,1,.57,2.39,6.25,6.25,0,0,1-1.94,4.58,9.37,9.37,0,0,1-2.68,1.71Zm2.29-9c-.81,0-1.44.84-1.44,1.94s.61,2,1.46,2,1.15-.58,1.15-1.7C93.4,166.27,93,165.55,92.23,165.55Z"/><path class="cls-1" d="M94.19,181.05c-.7.21-2.39.88-3.64,1.42a2.13,2.13,0,0,1-.73.23c-.33,0-.69-.25-1-.75a2.63,2.63,0,0,1-.5-1.34.7.7,0,0,1,.16-.46c.27.84.75,1.31,1.35,1.31a20.16,20.16,0,0,0,3.4-.77,2.42,2.42,0,0,0,1.12-.56.38.38,0,0,1,.25-.09c.23,0,.52.18,1,.63s.54.59.54.81-.09.23-.3.34a4.8,4.8,0,0,0-1.5,1.21c-1.13,1.13-1.8,1.8-2.65,2.7-1.72,1.85-1.72,1.85-2.1,2.23l0,0a9,9,0,0,1,4.9-1.71c2.31,0,3.85,1.35,3.85,3.36,0,2.58-2.39,4.49-5.65,4.49-1.76,0-2.9-.71-2.9-1.81,0-.88.83-1.53,1.95-1.53a3.3,3.3,0,0,1,2.28.89,3.53,3.53,0,0,1,.8,1.11A3.54,3.54,0,0,0,97,189.44a2.5,2.5,0,0,0-1.11-2.24,4.1,4.1,0,0,0-1.79-.36c-1.76,0-4.23,1.44-5.72,3.35-.31.38-.43.49-.61.49s-.6-.63-.6-1.17a.85.85,0,0,1,.38-.63,16.29,16.29,0,0,0,2.5-2.5c2.2-2.47,2.88-3.26,4.31-5.1a1.3,1.3,0,0,0,.18-.29l-.06,0h-.07l-.09,0Zm-2.77,10.33c-.69,0-1.14.36-1.14.92s.8,1.1,2.06,1.1a5,5,0,0,0,1.27-.16A2.35,2.35,0,0,0,91.42,191.38Z"/><path class="cls-1" d="M95.07,203c.29-.36.38-.46.69-.81.57.45.75.6,1.31,1.1.16.13.24.22.24.31s-.22.18-1.08.21a13.3,13.3,0,0,1-2.69,2.56,15.1,15.1,0,0,0,2.83,1.1,18.32,18.32,0,0,0,4.5.72v.27c-.74.14-.94.32-1.39,1.22a21.36,21.36,0,0,1-2.86-.88c.4.4.42.4.76.72.11.13.16.2.16.27s0,.07-.05.09l-.2.11-.18.09c0,.83,0,.83,0,2.36,0,1,0,1,0,1.92a.75.75,0,0,0,0,.11.22.22,0,0,1-.18.24,3.19,3.19,0,0,1-.74.09c-.27,0-.32-.06-.32-.31v-.76H89.15v.63c0,.31-.16.4-.72.4-.4,0-.52-.07-.52-.3v0c0-.63,0-.63,0-1.55,0-.49,0-.49,0-1.64v-1.91a17.36,17.36,0,0,1-3.37,1l-.1-.25a29.93,29.93,0,0,0,7.47-3.7,15.72,15.72,0,0,1-2.18-2.12,15.18,15.18,0,0,1-1.48,1.33,10.85,10.85,0,0,1-3.18,1.93l-.13-.2a20.79,20.79,0,0,0,3.37-3,9.31,9.31,0,0,0,1.94-2.86c1.77.36,1.91.39,1.91.56s-.25.29-.94.39c-.21.31-.3.44-.45.63ZM92,200.74V199.5c0-.42,0-.67-.06-1.19a13.1,13.1,0,0,1,1.87.23c.15.05.24.13.24.23s-.24.33-.78.44v1.53h5c.36-.42.46-.56.82-1l1.64,1.18c.11.09.16.17.16.24s-.09.12-.16.14l-1.08.18a8.93,8.93,0,0,1-1.74,1.77l-.18-.11a11.79,11.79,0,0,0,.63-2H86.92a5.56,5.56,0,0,1-.54,2,1.81,1.81,0,0,1-1.1.84.61.61,0,0,1-.4-.3,1.69,1.69,0,0,1-.14-.76c0-.23,0-.25.43-.54a3.78,3.78,0,0,0,.85-1,5.24,5.24,0,0,0,.61-1.9H87c0,.28,0,.48,0,.64s0,.33,0,.6Zm3.81,8.66.72-.61a17.28,17.28,0,0,1-3.76-1.86,25.16,25.16,0,0,1-4,2.09,2.31,2.31,0,0,1,.4.38Zm-6.64,3.94h6.79v-3.53H89.15Zm1.33-9.9c-.18.21-.23.29-.41.48a9.35,9.35,0,0,0,2.52,2A12.83,12.83,0,0,0,95,203.44Z"/><path class="cls-1" d="M96.75,230c.41-.51.56-.67,1-1.21.72.58.94.76,1.61,1.35a.33.33,0,0,1,.07.16c0,.06-.07.11-.16.11h-6v3.06h4.85a16.23,16.23,0,0,1,1.13-1.24c.76.56,1,.74,1.75,1.35.09.07.14.14.14.2s-.07.11-.14.11H86.38a15,15,0,0,0-1.55.12l-.18-.72a11,11,0,0,0,1.73.18h5.67v-3.06h-4.2a14.92,14.92,0,0,0-1.49.09l-.2-.7a10.82,10.82,0,0,0,1.73.2h4.16v-.69c0-.52,0-.93-.09-1.78,2,.29,2.1.32,2.1.48s-.1.19-.79.4V230Zm-4.7-9.84v-.84A8.21,8.21,0,0,0,92,218c1.73.17,2.13.26,2.13.47a.25.25,0,0,1-.14.18l-.71.22v1.29h5l.83-.93c.73.48,1,.65,1.64,1.17a.21.21,0,0,1,.12.18.33.33,0,0,1-.07.13,1.91,1.91,0,0,1-.47.1l-.59.09-.33.33a14.23,14.23,0,0,1-1.13,1l-.18-.11a13.53,13.53,0,0,0,.38-1.53H86.92a5.22,5.22,0,0,1-.6,1.94c-.25.45-.72.85-1,.85s-.65-.67-.65-1.08c0-.18.06-.27.25-.41a3.16,3.16,0,0,0,1.14-1.16,5.2,5.2,0,0,0,.58-1.73H87a3.66,3.66,0,0,1,0,.42,4.91,4.91,0,0,1,0,.75Zm-3.66,3.08a7.22,7.22,0,0,0-1.44.13l-.2-.7,1.64.16h8c.38-.49.5-.61.9-1.06.63.5.86.68,1.57,1.26,0,.05.09.09.09.12a.1.1,0,0,1-.11.09H92.23a25.88,25.88,0,0,1-2.5,3.08c2,0,3.22-.14,6.75-.47A26,26,0,0,0,94.57,224l.11-.16A12.66,12.66,0,0,1,97,225.16a9.58,9.58,0,0,1,1.71,1.34,1,1,0,0,1,.25.73c0,.62-.22,1.12-.47,1.12s-.13,0-1-1.15c-.47-.63-.52-.69-.74-1l-4,.65c-1.8.25-4.43.56-5.8.65,0,.56-.12.78-.3.78s-.42-.51-.69-2a8.74,8.74,0,0,0,1,.06c.13,0,.27,0,.51,0l1.6,0a16.54,16.54,0,0,0,1.51-3.08Z"/><path class="cls-1" d="M86.52,241.15a3,3,0,0,0,2.25.84,9.66,9.66,0,0,0,1.93-.23,4.94,4.94,0,0,0,.63-1.84c0-.48-.34-.77-1.28-1a1.38,1.38,0,0,1,.81-.2,3.92,3.92,0,0,1,1.4.3c.45.18.65.38.65.6s-.07.25-.29.52-.37.54-.52.74c-.32.52-.32.52-.45.7a6,6,0,0,0,2.6-1.15.48.48,0,0,1,.34-.13c.7,0,1.2.25,1.2.6s-.23.39-.77.57a29.42,29.42,0,0,1-3.93,1c-.32.45-.54.77-1,1.4s-.63,1-1,1.44a4.91,4.91,0,0,1,2.32-.72,2,2,0,0,1,2,1.8c.3-.14.3-.14,1.76-.88,1.78-.9,2.22-1.19,2.22-1.51s-.31-.63-.83-.85a.89.89,0,0,1,.41-.11c.79,0,2,1.1,2,1.82,0,.33-.15.45-.65.56a28.67,28.67,0,0,0-4.83,1.86c0,.57,0,.68,0,1.45a5.06,5.06,0,0,1-.14,1.55.57.57,0,0,1-.51.34.53.53,0,0,1-.57-.54c0-.09,0-.18,0-.3a15.83,15.83,0,0,0,.13-1.93,9.09,9.09,0,0,0-2.11,1.42,2.44,2.44,0,0,0-.88,1.68c0,1,1,1.44,3,1.44a13.19,13.19,0,0,0,3.62-.5,1.16,1.16,0,0,1,.34-.06c.56,0,1.26.51,1.26.9s-.2.41-.56.49a20.46,20.46,0,0,1-3.22.25,9.39,9.39,0,0,1-3.66-.52A2,2,0,0,1,89,251.07a3.44,3.44,0,0,1,1.3-2.47,13.1,13.1,0,0,1,2.23-1.6,3,3,0,0,0-.25-1.42,1,1,0,0,0-.92-.54c-1.19,0-2.61,1-3.91,2.61-.34.47-.48.57-.66.57s-.49-.37-.49-.95c0-.38,0-.4.52-.81a14.63,14.63,0,0,0,3.35-3.87,6.83,6.83,0,0,1-1.2.11,2.92,2.92,0,0,1-2.69-1.39Z"/><path class="cls-1" d="M89.46,266.19c-.33,1.13-.83,3.09-1,4a6.09,6.09,0,0,0-.23,1.53c0,.57,0,.64-.13.79a.43.43,0,0,1-.34.2c-.31,0-.56-.26-.77-.81a10.44,10.44,0,0,1-.58-3.62,26.72,26.72,0,0,1,.81-6,8.11,8.11,0,0,0,.27-1.62,2.84,2.84,0,0,0-.52-1.58c.41,0,.75.25,1.26.9a2.57,2.57,0,0,1,.65,1.37c0,.19,0,.19-.29.79A14,14,0,0,0,87.17,268a7,7,0,0,0,.29,2.23l.75-1.8,1-2.32Zm1.8-3.26a3.72,3.72,0,0,0,2.32.74,9.2,9.2,0,0,0,2-.26v-.79c0-2,0-2.25-.25-2.5a1.84,1.84,0,0,0-1.19-.41,1,1,0,0,1,.87-.29,5.29,5.29,0,0,1,1.22.16c.52.16.79.38.79.65,0,.12,0,.14-.16.56a7.93,7.93,0,0,0-.38,2.41,4.48,4.48,0,0,0,1.66-.74c.18-.18.23-.2.39-.2a2.1,2.1,0,0,1,.85.24.37.37,0,0,1,.23.32c0,.4-1.31.94-3.18,1.3a35.52,35.52,0,0,0,.23,4.89c2.09.56,3,1.26,3,2.31,0,.38-.16.67-.36.67s-.27-.1-.63-.46a5.59,5.59,0,0,0-1.94-1.44,3.55,3.55,0,0,1,0,.44c0,1.29-1.08,2.07-2.89,2.07-1.56,0-2.66-.76-2.66-1.84,0-1.24,1.33-2,3.38-2,.35,0,.6,0,1.1,0v-.31l0-1.92,0-2.31a7.85,7.85,0,0,1-1.59.15,3.6,3.6,0,0,1-3-1.26ZM94,269.5c-1.42,0-2.3.47-2.3,1.26,0,.63.7,1.06,1.76,1.06a2.09,2.09,0,0,0,2-.84,2.28,2.28,0,0,0,.24-1.26A5.66,5.66,0,0,0,94,269.5Z"/><path class="cls-1" d="M98.13,289.59a9.62,9.62,0,0,1-1.83,2,7.41,7.41,0,0,1-4.49,1.78,3.22,3.22,0,0,1-3-1.53,6.13,6.13,0,0,1-.51-3c0-1,.06-2.72.15-4.34.1-2,.12-2.47.12-3.11,0-1.55-.18-1.86-1.46-2.4a.76.76,0,0,1,.51-.18,4.36,4.36,0,0,1,1.62.42c.68.32,1,.68,1,1.06a1.93,1.93,0,0,1-.16.65,55.71,55.71,0,0,0-.94,8.66,2.59,2.59,0,0,0,.72,2.16,2.72,2.72,0,0,0,1.61.48,9.35,9.35,0,0,0,4.1-1.15,12.22,12.22,0,0,0,2.29-1.62ZM94,280.1a7.26,7.26,0,0,1,1.6,1.12c.65.57.9,1,.9,1.42s-.25.75-.56.75-.23,0-.81-1.17a7.89,7.89,0,0,0-1.37-1.89Zm1.84-1a7.65,7.65,0,0,1,1.72,1c.69.52.92.88.92,1.39s-.18.74-.45.74-.27-.09-.41-.35a9.15,9.15,0,0,0-2-2.57Z"/><path class="cls-1" d="M87.69,299.74a4.54,4.54,0,0,1,1.39,1.47,10,10,0,0,1,.56,1.89A9.53,9.53,0,0,1,93.4,302a8.76,8.76,0,0,0,.34-2.11c0-.45-.2-.59-.85-.59h-.34l0-.2a2.87,2.87,0,0,1,1.15-.31c.68,0,1.42.58,1.42,1.1a9.55,9.55,0,0,1-.54,2.09c3,.13,5,2.05,5,4.76a5.44,5.44,0,0,1-3.27,4.82,9.6,9.6,0,0,1-3.53,1.05l-.07-.26a9,9,0,0,0,3.49-1.8,5.36,5.36,0,0,0,2-4.12,3.83,3.83,0,0,0-1.55-3.24,4,4,0,0,0-2.25-.7,22.66,22.66,0,0,1-3,5.61c.25.38.34.51.64.9.53.65.56.72.56.94a.42.42,0,0,1-.43.4c-.41,0-1-.49-1.55-1.32a6.8,6.8,0,0,1-1.38,1.33,2.45,2.45,0,0,1-1.44.65c-.42,0-.62-.23-.8-.92a2.94,2.94,0,0,0-.54-1.17,1.73,1.73,0,0,1-.41-1.09c0-1.43,1-3,2.83-4.2-.33-2-.53-2.63-1.37-3.67Zm-.07,6.19a4.26,4.26,0,0,0-.61,2.13c0,.81.5,1.72.93,1.72a4.66,4.66,0,0,0,2.18-1.54A16.72,16.72,0,0,1,89,304.35,5.58,5.58,0,0,0,87.62,305.93Zm3.26,1.37a16.85,16.85,0,0,0,2.36-4.79,7.14,7.14,0,0,0-3.48,1.3A17,17,0,0,0,90.88,307.3Z"/><path class="cls-1" d="M96.77,317.43a16.35,16.35,0,0,1,3.51,1.73,1.81,1.81,0,0,1,1,1.57c0,.61-.32,1.2-.67,1.2a.58.58,0,0,1-.23-.11c-.12-.1-.12-.1-.92-1.29a13.82,13.82,0,0,0-2.77-2.86Z"/><path class="cls-1" d="M42.43,3.53a8.39,8.39,0,0,0,1.93.18h3.28c.28-.34.59-.68.88-1,.68.49.9.65,1.53,1.17a.87.87,0,0,1,.07.17c0,.07-.07.1-.2.1H44.36a8.3,8.3,0,0,0-1.77.13Zm.69-2.31a6.47,6.47,0,0,0,1.49.19H46.9c.38-.47.48-.6.86-1A16.23,16.23,0,0,1,49.2,1.57a.35.35,0,0,1,.07.14c0,.07-.07.11-.18.11H44.61a12.32,12.32,0,0,0-1.37.09Zm.21,7a6.27,6.27,0,0,0,1.53.18h1.7a9.59,9.59,0,0,1,.91-1,17.22,17.22,0,0,1,1.35,1.14.7.7,0,0,1,.11.17.13.13,0,0,1-.12.13h-4a9.14,9.14,0,0,0-1.38.09Zm0-2.34a7.54,7.54,0,0,0,1.51.16h1.91c.31-.36.61-.7.9-1.05.61.51.81.67,1.37,1.19a.4.4,0,0,1,.07.16c0,.06-.07.11-.2.11h-4a6.62,6.62,0,0,0-1.37.11Zm1.19,10.57c0,.14-.07.18-.2.21a2.81,2.81,0,0,1-.59.06c-.27,0-.36-.08-.4-.27,0-2,0-2.44,0-3.16,0-1,0-2.32,0-3.18.61.34.77.45,1.33.81h2.45l.69-.74a8.23,8.23,0,0,1,1,.74.56.56,0,0,1,.22.3c0,.11-.08.17-.58.47,0,.42,0,.65,0,.92,0,.5,0,2.34.06,2.81,0,.13,0,.18-.13.22a2.43,2.43,0,0,1-.83.12c-.21,0-.27,0-.27-.21v-.29H44.54Zm0-1.61h2.68V11.36H44.54Zm14.78.42a1.32,1.32,0,0,0-.76.38,1.65,1.65,0,0,0-.57.93,13,13,0,0,1-4.3-2.88,14.42,14.42,0,0,1-5.91,3.13l-.11-.27A16.47,16.47,0,0,0,53,13,10.34,10.34,0,0,1,51,8.61h-.34a4.06,4.06,0,0,0-.9.1L49.6,8a6.67,6.67,0,0,0,1.67.16h4.41l.71-.77c.59.42.77.54,1.31.95.13.11.18.19.18.26s-.23.21-.9.41a13.93,13.93,0,0,1-2.59,4,10.4,10.4,0,0,0,5,2ZM48.9,7.83C50.5,6.21,51,4.86,51,1.75A12.18,12.18,0,0,0,50.88.5a10.18,10.18,0,0,1,1.37.91h2.39l.72-.82c.47.36.61.47,1,.82.16.16.2.23.2.3s-.11.22-.67.51V5.49c0,.31.07.33,1,.33.58,0,.76-.06.9-.26a10.94,10.94,0,0,0,.76-2.62h.23L58.6,5.28v.07c0,.27,0,.29.38.47a.44.44,0,0,1,.22.37c0,.51-.49.64-2.44.64-1.15,0-1.51,0-1.72-.17s-.31-.36-.31-.83v0c0-.47,0-.63,0-1.12V1.82H52.16c-.13,2.23-.31,3.06-.92,4.05A6.28,6.28,0,0,1,49,8Zm2.52.76a7.71,7.71,0,0,0,2.23,3.78,11.08,11.08,0,0,0,2.12-3.78Z"/><path class="cls-1" d="M46.45,26.57a.83.83,0,0,0,.57.22c.44,0,.76-.09,3.1-.85a6.11,6.11,0,0,0,1.69-.63c.17-.11.22-.13.31-.13A2.28,2.28,0,0,1,53.6,26.7c0,.21-.08.27-.53.45a3.61,3.61,0,0,0-1,.72c-.61.5-2.5,2.36-3.6,3.54a4.32,4.32,0,0,1,2-.63,1.83,1.83,0,0,1,1.19.45c.39.36.52.69.81,1.88s.56,1.26,1.82,1.26a9.33,9.33,0,0,0,1.11-.08A1.53,1.53,0,0,0,56,34.1a.6.6,0,0,1,.24-.06,1.67,1.67,0,0,1,.86.42c.33.25.45.41.45.63,0,.41-.54.55-2.1.55a5.37,5.37,0,0,1-2.9-.57,2.12,2.12,0,0,1-1-1.41,12.55,12.55,0,0,1-.24-1.38,1,1,0,0,0-1.08-1,5,5,0,0,0-3,1.78,19.55,19.55,0,0,0-1.86,2.22c-.17.23-.3.34-.43.34-.3,0-.65-.67-.65-1.22a.58.58,0,0,1,.29-.51,19.5,19.5,0,0,0,2.61-2.25,57.42,57.42,0,0,0,4.41-4.86c.31-.41.38-.52.38-.63s-.07-.11-.2-.11a14,14,0,0,0-4.23,1.8,1.48,1.48,0,0,1-.7.27c-.29,0-.57-.25-.83-.74a3.13,3.13,0,0,1-.32-1.15.86.86,0,0,1,.29-.65A1.93,1.93,0,0,0,46.45,26.57Zm2.25-6A4.87,4.87,0,0,0,51,21.73a6.63,6.63,0,0,0,1.31.19,1,1,0,0,1,.78.38,1.3,1.3,0,0,1,.43.81.36.36,0,0,1-.36.35,1.4,1.4,0,0,1-.25,0,1.62,1.62,0,0,0-.33,0,11.83,11.83,0,0,0-1.49.12c-.15,0-1.08.19-2.83.47l-.07-.23c1.39-.45,2.79-.88,3.24-1a4.76,4.76,0,0,1-2.95-2Z"/><path class="cls-1" d="M47.4,48.39c0,.16-.3,1.29-.81,3.38a7.08,7.08,0,0,0-.3,1.91,2.45,2.45,0,0,1-.06.78.44.44,0,0,1-.43.3c-.31,0-.58-.25-.78-.74a10.75,10.75,0,0,1-.63-3.83,16.41,16.41,0,0,1,.15-1.93,29.51,29.51,0,0,1,.63-3.4,8.44,8.44,0,0,0,.25-1.68,3.2,3.2,0,0,0-.5-1.69c.39,0,.72.25,1.2.88a2.45,2.45,0,0,1,.67,1.43c0,.28,0,.36-.38,1.08a15,15,0,0,0-1,2.86A10,10,0,0,0,45.21,50a6.68,6.68,0,0,0,.34,2.38,16.17,16.17,0,0,0,.65-1.53l.95-2.52Zm2.27.9a5.92,5.92,0,0,0-.05.75c0,2,1.13,2.79,3.92,2.79a8.47,8.47,0,0,0,1.53-.12,3.11,3.11,0,0,0,1-.29.71.71,0,0,1,.27-.05,1.39,1.39,0,0,1,1.13,1.06c0,.21-.14.36-.4.45a9.27,9.27,0,0,1-2.25.2c-2.25,0-3.85-.38-4.66-1.1a3,3,0,0,1-1-2.34,4.88,4.88,0,0,1,.21-1.42Zm0-5.73a2.82,2.82,0,0,0,1.68.49,9.64,9.64,0,0,0,3.62-.81c.23-.13.27-.15.39-.15a1.29,1.29,0,0,1,.63.26c.38.21.56.43.56.66s-.12.34-.5.42a10.22,10.22,0,0,0-2.56.63,18.6,18.6,0,0,0-2.32,1.27L51,46.15c.81-.68,1.42-1.18,1.71-1.4l-.74,0a3.18,3.18,0,0,1-2.45-1Z"/><path class="cls-1" d="M46.81,73.3c1.29.81,2.75,1.08,5.83,1.08,2.07,0,4.2-.11,6.38-.3v.21a1.35,1.35,0,0,0-.73,1.26c-1.22,0-1.78.06-3,.06-4.49,0-6-.17-7.49-.85a6.33,6.33,0,0,1-3.53-4.11,12.12,12.12,0,0,1-2,4.94l-.22-.13a14.21,14.21,0,0,0,1.23-4.61,28.33,28.33,0,0,0,.27-3.26c0-.07,0-.2,0-.36,1.47.24,1.74.29,1.74.47s-.1.18-.55.36c-.11.94-.18,1.28-.31,1.94a5.23,5.23,0,0,0,1.28,2.38V66.1H44a7.9,7.9,0,0,0-1.23.09l-.14-.67a4.68,4.68,0,0,0,1.37.16h1.69V63.07H44.16a4.26,4.26,0,0,0-1,.09L43,62.53a4.55,4.55,0,0,0,1.17.13h1.55V61.42a13.68,13.68,0,0,0-.11-1.55c.34,0,.61.07.78.07.95.07,1.22.14,1.22.31s-.22.25-.79.41v2h.61l.86-.94c.44.47.56.63,1,1.12a.27.27,0,0,1,.06.14c0,.06-.07.09-.2.09H46.81v2.61h.77l.83-1.17c.52.54.67.71,1.13,1.26a.4.4,0,0,1,.08.18c0,.08-.11.15-.24.15H46.81v3.1h.68l.81-1.07a10.19,10.19,0,0,1,1.05,1.16.4.4,0,0,1,.09.19c0,.08-.09.13-.18.13H46.81Zm6.82-9.52h3c.31-.36.42-.47.72-.81l1,.81c.14.12.2.18.2.23s-.06.16-.78.5a13.06,13.06,0,0,1-1.09,4A17,17,0,0,1,58,70.44a1.62,1.62,0,0,1,.31,1c0,.56-.44,1.4-.71,1.4-.12,0-.19-.1-.27-.41a25.6,25.6,0,0,0-1-2.9,11.08,11.08,0,0,1-2.43,3.21l-.22-.18a14.46,14.46,0,0,0,2.18-4,18.73,18.73,0,0,0-1.62-2.73l.18-.08a16.49,16.49,0,0,1,1.71,2,13.28,13.28,0,0,0,.57-3.48h-3v5.35c0,2.46,0,2.46,0,4.1v0a.2.2,0,0,1-.14.2,5.33,5.33,0,0,1-.76.11c-.15,0-.2-.06-.2-.22V71.68c0-.34,0-.63,0-.86-.9.43-2,.9-3.1,1.35,0,.46-.14.72-.29.72s-.14-.08-.19-.26a9.06,9.06,0,0,1-.42-1.45h.25a4.46,4.46,0,0,0,1-.17V61.42a6.26,6.26,0,0,0-1.41.1l-.18-.7A5.07,5.07,0,0,0,49.8,61h6.35l1.06-1.22a17.46,17.46,0,0,1,1.54,1.33c.07.09.1.14.1.18s-.09.13-.2.13h-5Zm-2.77-2.36v3h1.71v-3Zm0,3.38v2.59h1.71V64.8Zm0,3v3l.41-.09c.54-.11.56-.11,1.3-.31V67.81Z"/><path class="cls-1" d="M56.13,83.09a9.67,9.67,0,0,1,.65-.86c.56.36.72.48,1.24.86.15.11.2.18.2.25s-.11.2-.65.52v6.76c0,.27,0,.7,0,1.24,0,1.1,0,1.26,0,2.18a1.21,1.21,0,0,1-.68,1,4.44,4.44,0,0,1-1.71.49c-.22-1-.22-1-2.72-1.46v-.27l1.94.09c.78,0,.78,0,1.48,0,.27,0,.38-.12.38-.34V83.5H45.13v8.79c0,.59,0,.83,0,2.83,0,.29-.25.38-.9.38-.29,0-.38,0-.41-.22.07-2.56.07-2.56.07-7.53,0-4.37,0-4.37-.09-5.52a10.56,10.56,0,0,1,1.6.86h2.65a19.15,19.15,0,0,0,1.26-3.71l.86.25c1.26.36,1.35.4,1.35.56s-.11.22-.92.36a19.58,19.58,0,0,1-2,2.54Zm-3.51,3,.58-.68a11.92,11.92,0,0,1,1.08.72c.11.1.14.16.14.19s-.16.26-.45.51c0,2.5,0,4.1,0,4.77,0,.25-.25.34-.88.34-.25,0-.34,0-.38-.2v-.82H48.61v.9c0,.27-.2.34-.85.34-.25,0-.34-.07-.34-.27,0-.79,0-1.26,0-5,0-.51,0-.87-.06-1.53.63.29.81.37,1.44.68Zm-4,4.41h4.14v-4H48.61Z"/><path class="cls-1" d="M44.52,102.55a3,3,0,0,0,2.25.84,9.66,9.66,0,0,0,1.93-.23,4.94,4.94,0,0,0,.63-1.84c0-.48-.34-.77-1.28-1a1.38,1.38,0,0,1,.81-.2,3.72,3.72,0,0,1,1.4.3c.45.18.65.38.65.6s-.07.25-.29.52-.37.54-.52.74c-.32.52-.32.52-.45.7a6,6,0,0,0,2.6-1.15.48.48,0,0,1,.34-.13c.7,0,1.2.25,1.2.6s-.23.39-.77.57a29.42,29.42,0,0,1-3.93,1c-.32.45-.54.77-1,1.4s-.63,1-1,1.44a4.91,4.91,0,0,1,2.32-.72,2,2,0,0,1,2,1.8c.3-.14.3-.14,1.76-.88,1.78-.9,2.22-1.19,2.22-1.51s-.31-.63-.83-.85a.89.89,0,0,1,.41-.11c.79,0,2,1.1,2,1.82,0,.33-.15.45-.65.56a28.67,28.67,0,0,0-4.83,1.86c0,.57,0,.68,0,1.45a5.06,5.06,0,0,1-.14,1.55.57.57,0,0,1-.51.34.53.53,0,0,1-.57-.54c0-.09,0-.18,0-.3a15.83,15.83,0,0,0,.13-1.93,9.09,9.09,0,0,0-2.11,1.42,2.44,2.44,0,0,0-.88,1.68c0,1,1,1.44,3,1.44a13.19,13.19,0,0,0,3.62-.5,1.16,1.16,0,0,1,.34-.06c.56,0,1.26.5,1.26.9,0,.24-.2.42-.56.49a20.46,20.46,0,0,1-3.22.25,9.39,9.39,0,0,1-3.66-.52A2,2,0,0,1,47,112.47a3.44,3.44,0,0,1,1.3-2.47,13.1,13.1,0,0,1,2.23-1.6,3,3,0,0,0-.25-1.42,1,1,0,0,0-.92-.54c-1.19,0-2.61,1-3.91,2.61-.34.47-.48.57-.66.57s-.49-.37-.49-1c0-.38,0-.4.52-.81A14.47,14.47,0,0,0,48.21,104a6.83,6.83,0,0,1-1.2.11,2.92,2.92,0,0,1-2.69-1.39Z"/><path class="cls-1" d="M42,129.37h.4c.23,0,.39,0,.45,0h.11c.27,0,.36,0,.45-.22a16.07,16.07,0,0,0,.73-1.84c.42-1.06.47-1.2,1.41-3.47l.68-1.71.2,0-1.93,7a3.82,3.82,0,0,0-.23,1,7.79,7.79,0,0,0,.42,1.79,4.84,4.84,0,0,1,.17,1.09,1.31,1.31,0,0,1-.43,1.07,1.15,1.15,0,0,1-.77.36c-.27,0-.42-.18-.42-.49s0-.36.17-1.6c0-.33,0-.63,0-1,0-1.2-.29-1.54-1.48-1.8Zm.74-9.29a11.59,11.59,0,0,1,1.87,1.24c.52.43.65.67.65,1.1s-.3,1-.63,1-.29-.13-.41-.45a9.42,9.42,0,0,0-1.66-2.76Zm6.66,7.09a17.77,17.77,0,0,1-.21,2.2h.64l.83-1a11.1,11.1,0,0,1,1.23,1.15.57.57,0,0,1,.07.13c0,.07-.07.12-.16.12H49.09a5.87,5.87,0,0,1-.28,1.1,5.69,5.69,0,0,1,.95.45c.74.45,1,.76,1,1.17s-.27,1-.56,1-.16,0-.81-1.37a2.89,2.89,0,0,0-.68-1A6.48,6.48,0,0,1,47.6,133a7.66,7.66,0,0,1-2.85,2.24l-.14-.19a9.73,9.73,0,0,0,2.52-2.82,6.84,6.84,0,0,0,.87-2.49H46.43a4,4,0,0,0-1.19.09l-.11-.64a5.18,5.18,0,0,0,1.3.14h1.62a18.86,18.86,0,0,0,.2-2.2h-1a10.68,10.68,0,0,1-1.4,1.89l-.2-.14A11.93,11.93,0,0,0,47,125.16l.71.18c.73.16.84.21.84.36s-.11.19-.65.32c-.27.5-.27.5-.39.74h2.3a12.09,12.09,0,0,1,.81-.92,15,15,0,0,1,1.17,1.08.26.26,0,0,1,.06.15c0,.05-.08.1-.15.1Zm-1.38-5a7.53,7.53,0,0,0,1.09-.74,6.54,6.54,0,0,0,1.55-1.42l.63.38c.65.38.72.43.72.56s-.11.18-.74.18A16.49,16.49,0,0,1,48,122.51v1c0,.38,0,.38,1.54.38,1,0,1.08,0,1.19-.25a12.59,12.59,0,0,0,.52-1.73l.2,0,0,1.35v.29c0,.12,0,.12.28.28a.43.43,0,0,1,.23.36.48.48,0,0,1-.4.42,9.81,9.81,0,0,1-2.16.12c-2.25,0-2.39,0-2.45-.86v-3.08c0-1.12,0-1.12,0-1.51,1.6.16,1.83.23,1.83.41s-.14.24-.75.42Zm7.59,11.09a6.18,6.18,0,0,0,2.22.29l1.58,0,0,.22c-.56.25-.72.47-.86,1.17-3.24-.09-4.59-1-5.76-3.93a7.92,7.92,0,0,1-1.27,2.36,7.62,7.62,0,0,1-2.14,2l-.14-.19a9.67,9.67,0,0,0,2.18-3,11.84,11.84,0,0,0,.93-4.48,3.73,3.73,0,0,0,0-.43c1.46.23,1.64.28,1.64.43s-.12.21-.52.36a15.24,15.24,0,0,1-.52,2.57,5.08,5.08,0,0,0,1.6,2.18v-7.11H52.91a6.5,6.5,0,0,0-1.2.09l-.1-.63a5,5,0,0,0,1.3.12h4.23a8,8,0,0,1,.67-.77,11.35,11.35,0,0,1,1.15.85c.14.1.2.18.2.25s-.14.2-.85.36a15.42,15.42,0,0,1-1.73,1.55l-.12-.11a6.85,6.85,0,0,0,.86-1.71H55.59v3.38h.89c.41-.48.54-.63,1-1.06.59.5.76.67,1.32,1.21a.44.44,0,0,1,.08.16c0,.07,0,.11-.16.11H55.59Zm1-13a8.92,8.92,0,0,0,.74-.79c.51.33.67.43,1.17.81.16.13.22.2.22.27s-.16.25-.81.42a16.27,16.27,0,0,1-2.34,2.1c.47.36.59.54.59.9,0,.51-.29,1-.57,1s-.24-.11-.36-.36a10.56,10.56,0,0,0-2.31-2.9l.16-.14a16.44,16.44,0,0,1,2.2,1.28,10.52,10.52,0,0,0,1.31-2.18h-3a5.54,5.54,0,0,0-1.28.09l-.09-.65a5.59,5.59,0,0,0,1.37.14Z"/><path class="cls-1" d="M48.5,139.46a3.66,3.66,0,0,0,2.29,1.59c.34.11.88.25,1.29.34a1.15,1.15,0,0,1,.74.45,1.33,1.33,0,0,1,.4.79.39.39,0,0,1-.43.38l-.38,0a5.57,5.57,0,0,0-.89-.06,15.16,15.16,0,0,0-3.43.51,1.73,1.73,0,0,0-.83.32.7.7,0,0,0-.2.49,1.86,1.86,0,0,0,.11.52,1.4,1.4,0,0,1,.12.58,5,5,0,0,1,0,.57c-.13,1-.25,2.45-.29,3.66a11.26,11.26,0,0,1,5.87-2.23c2,0,3.44,1.17,3.44,2.8S55,153.18,52.71,154a13.17,13.17,0,0,1-4.08.7l-.06-.29a10.33,10.33,0,0,0,4.52-1.6,3.49,3.49,0,0,0,1.8-2.92,2,2,0,0,0-2.18-2,7.16,7.16,0,0,0-4.3,2,4.16,4.16,0,0,0-1,1.14c-.18.27-.31.36-.5.36s-.51-.18-.8-.6a2.07,2.07,0,0,1-.37-.91s0-.17,0-.29a7.91,7.91,0,0,0,.2-1.08c0-.36.12-.87.21-1.5a19.63,19.63,0,0,0,.35-2.37c0-.63,0-.8.28-1a4.61,4.61,0,0,1,1.86-.83,16.33,16.33,0,0,0,2.12-.68,5.7,5.7,0,0,1-1.64-1,3.76,3.76,0,0,1-.91-1.44Z"/><path class="cls-1" d="M56.82,170.57a8.29,8.29,0,0,1-6.32,3.73,3.27,3.27,0,0,1-3-1.53,6.16,6.16,0,0,1-.5-3c0-1,.05-2.71.14-4.34.11-1.95.13-2.45.13-3.1,0-1.55-.18-1.86-1.46-2.4a.74.74,0,0,1,.5-.18,4.52,4.52,0,0,1,1.62.42c.69.32,1.05.68,1.05,1.06a1.85,1.85,0,0,1-.17.65,56,56,0,0,0-.93,8.64,2.53,2.53,0,0,0,.72,2.16,2.6,2.6,0,0,0,1.6.49A9.39,9.39,0,0,0,54.32,172a11.23,11.23,0,0,0,2.28-1.61Z"/><path class="cls-1" d="M43.62,183.06a2.46,2.46,0,0,0,2,1,8.59,8.59,0,0,0,2.29-.34,13,13,0,0,0,.61-3c0-.56-.27-.8-1.28-1.14a1,1,0,0,1,.56-.16,4.74,4.74,0,0,1,1.55.34c.54.2.81.45.81.72s0,.13-.22.44a15,15,0,0,0-1.08,2.57,6,6,0,0,0,2.09-1.1c.29-.27.36-.3.5-.3a3.62,3.62,0,0,1,1,.19c.2.08.29.18.29.33,0,.3-.29.54-1,.88a20.39,20.39,0,0,1-3.15,1c-.21.62-.21.62-.75,2.29l-1.35,4c-.72,2.14-1,2.59-1.34,2.59-.18,0-.3-.11-.41-.36a2.61,2.61,0,0,1-.25-1.05c0-.28,0-.34.39-.88a25.6,25.6,0,0,0,2.83-6.44,9.78,9.78,0,0,1-1.73.18,2.64,2.64,0,0,1-2.47-1.62Zm7.18,6.21c0,.27,0,.49,0,.56A2.22,2.22,0,0,0,52.16,192a5,5,0,0,0,1.92.34,4.26,4.26,0,0,0,1.73-.27.88.88,0,0,1,.31-.07,2.08,2.08,0,0,1,.91.43.7.7,0,0,1,.33.51c0,.39-.7.59-2.13.59A8,8,0,0,1,51.9,193a2.73,2.73,0,0,1-1.53-2.61,3.85,3.85,0,0,1,.16-1.13Zm.49-3.33a8.32,8.32,0,0,1,4.18-1.2,2.16,2.16,0,0,1,1.13.32.6.6,0,0,1,.29.5c0,.29-.16.4-.68.42a2.54,2.54,0,0,0-1.39.36,9.06,9.06,0,0,0-1,.61,7,7,0,0,1-.63.38l-.11-.16c.22-.22.22-.22.87-.81.16-.15.32-.29.88-.85a9.36,9.36,0,0,0-3.44.67Z"/><path class="cls-1" d="M46.59,210.66v.47c0,.14-.05.19-.18.23a3.15,3.15,0,0,1-.72.07c-.23,0-.34-.07-.34-.25v0c0-1.56.07-2.73.07-3.85,0-1.73,0-3.06-.07-3.58a8.45,8.45,0,0,1,1.44.83h7.47c.24-.35.31-.44.56-.76a8.26,8.26,0,0,1,1.13.76c.15.1.2.16.2.23s-.29.31-.63.49v1.24c0,.56,0,3.64.06,4.52,0,.16-.06.2-.18.25a5,5,0,0,1-.8.09c-.18,0-.25-.07-.25-.23v-.47h-1.8V213c0,.32,0,.36.43.39.15,0,1.37,0,2.27,0h.88c.6,0,.74-.09.89-.41.25-.58.73-1.84,1.06-2.85l.21.07-.19,2.45a1.62,1.62,0,0,0,0,.29c0,.14.05.22.23.29.45.18.6.31.6.54s-.15.29-.35.38a2.09,2.09,0,0,1-.93.14c-.18,0-2.36,0-2.7,0-2.23,0-2.67,0-3-.15a.74.74,0,0,1-.58-.82c0-1.14,0-1.14,0-1.27v-1.47H49.76a4.5,4.5,0,0,1-1.3,2.1c-1.26,1.14-3.09,1.72-6.1,1.93l-.07-.27c3.51-.58,5.56-1.8,6.26-3.76ZM56.22,200a5.11,5.11,0,0,1,.72-.92,17.81,17.81,0,0,1,1.61,1.05c.16.12.23.2.23.3s-.2.24-1.19.36c-.41.38-.5.45-1.11,1a11.35,11.35,0,0,1,1,.77.17.17,0,0,1,.09.13s-.07.1-.18.1H53.16c0,.36,0,.44,0,.9,0,.17,0,.24-.16.27a2.29,2.29,0,0,1-.7.09c-.24,0-.31,0-.31-.19,0-.58,0-.94,0-1.07H49l0,1v0c0,.16-.24.25-.74.25-.29,0-.41-.07-.41-.21v-.06c0-.48,0-.65,0-1H45.67a9.72,9.72,0,0,0-1.17.09l-.11-.66a8.85,8.85,0,0,0,1.5.16h1.94a1.74,1.74,0,0,0,0-.29c0-.5,0-.93-.05-1.3a7.71,7.71,0,0,1,1.74.29.17.17,0,0,1,.11.13c0,.14-.14.2-.7.32v.85H52c0-.65,0-1-.05-1.5,1.6.2,1.85.26,1.85.44s-.14.18-.68.3v.76h1.92l.81-1,.38.25c0-.12.09-.54.16-1.2H44.7c-.23,1.42-.88,2.66-1.39,2.66-.28,0-.66-.63-.66-1.13,0-.2.05-.27.47-.56a3.7,3.7,0,0,0,1.38-2.54h.27c0,.21,0,.38,0,.49s0,.35,0,.66h5.17v-.92a5,5,0,0,0-.05-.92,14.37,14.37,0,0,1,1.89.33c.16,0,.23.11.23.18s-.23.27-.84.41V200Zm-1.87,6.36V205H46.59v1.39Zm-7.76.41v1.44h7.76v-1.44Zm0,1.86v1.63h7.76v-1.63Z"/><path class="cls-1" d="M44.54,221.85a3.61,3.61,0,0,0,2.39.79,9.78,9.78,0,0,0,3-.54,8.41,8.41,0,0,0-1.55-2,2.78,2.78,0,0,0-1.39-.37c.13-.31.24-.38.72-.49a3.2,3.2,0,0,1,.83-.09,2.18,2.18,0,0,1,1.22.23c.17.15.18.2.22.71s.07.48.74,1.8a6.37,6.37,0,0,0,2.38-1.28.68.68,0,0,1,.55-.18c.71,0,1.07.16,1.07.47s-.65.66-3.61,1.64c.11.19.2.32.22.37l1.06,1.77a11.37,11.37,0,0,0,2.24-1,6.27,6.27,0,0,0-.94-.83l.13-.2a3.46,3.46,0,0,0,1.51.51l.32,0h.15a.44.44,0,0,1,.48.45c0,.42-1,1-3.49,1.84.47.79.58,1,.81,1.4s.45.81.56,1l.27.46a1.72,1.72,0,0,1,.3,1c0,.7-.23,1.17-.59,1.17-.16,0-.22,0-.5-.27a7.2,7.2,0,0,0-4.18-1.25,5,5,0,0,0-2.25.51,1.63,1.63,0,0,0-1.08,1.46c0,1.11,1.19,1.71,3.4,1.71a9.68,9.68,0,0,0,2.27-.24l.22,0c.54,0,1.18.5,1.18.93,0,.17-.09.27-.27.35a9.23,9.23,0,0,1-2.46.27,9.5,9.5,0,0,1-3.46-.54A2.6,2.6,0,0,1,45.22,231c0-1.62,1.91-2.7,4.76-2.7a16.09,16.09,0,0,1,3.38.39A19.63,19.63,0,0,0,52,225.63a12.65,12.65,0,0,1-3.83.7,3.13,3.13,0,0,1-1.88-.52,2.74,2.74,0,0,1-.86-1.08l.22-.16a2.34,2.34,0,0,0,2.12,1.06,13.42,13.42,0,0,0,3.85-.7c-.32-.59-1-1.71-1.26-2.16a11.57,11.57,0,0,1-3.35.58A3.46,3.46,0,0,1,44.39,222Zm10.35-3a8.91,8.91,0,0,1,1.6,1.12c.65.59.9,1,.9,1.44s-.25.76-.55.76-.24,0-.8-1.17a8,8,0,0,0-1.38-1.89Zm1.86-1a9.45,9.45,0,0,1,1.73,1c.68.53.91.89.91,1.39s-.18.74-.45.74-.27-.09-.41-.36a9,9,0,0,0-2-2.56Z"/><path class="cls-1" d="M50.57,252.65a8.08,8.08,0,0,0,4.21-2.5,6.38,6.38,0,0,0,1.61-4.34,4.48,4.48,0,0,0-2-4,6,6,0,0,0-3.11-.83,3.66,3.66,0,0,0-.63,0,2.34,2.34,0,0,1,.55,1.49c0,1.41-1,4-2.37,6.23-1.14,1.8-2,2.69-2.68,2.69a1.07,1.07,0,0,1-.8-.38,3.56,3.56,0,0,1-.5-1.15,11.08,11.08,0,0,0-.79-1.7,3.42,3.42,0,0,1-.42-1.64A5.62,5.62,0,0,1,45.22,243a8.74,8.74,0,0,1,6.2-2.52,6.79,6.79,0,0,1,4.64,1.66,5.5,5.5,0,0,1,1.73,4.23,6.18,6.18,0,0,1-3.58,5.45A10.74,10.74,0,0,1,50.7,253Zm-5.92-5.6a4.21,4.21,0,0,0,.72,2.38c.25.32.48.52.68.52.4,0,1.26-1,2.14-2.37,1.34-2.13,2.29-4.45,2.29-5.57a2,2,0,0,0-.25-.9C47.1,241.67,44.65,244.28,44.65,247.05Z"/><path class="cls-1" d="M51.38,272.72h4.38a12.57,12.57,0,0,1,1.13-1.38l1.76,1.54c.06.08.1.13.1.17s-.06.09-.15.09H44.75a10.38,10.38,0,0,0-1.89.16l-.18-.76a19.93,19.93,0,0,0,2.2.18h5.2v-4.66H45.8a9.16,9.16,0,0,0-1.39.18l-.14-.74c.56.07,1.31.15,1.66.15h8.6c.43-.6.58-.76,1-1.32l1.76,1.48a.15.15,0,0,1,.07.12.14.14,0,0,1-.14.13H51.38Zm-1.8-11.93a6,6,0,0,1-.2,1.56c-.65,2.54-2.79,4-6.41,4.36l-.16-.32a6.69,6.69,0,0,0,4.57-2.45,5.43,5.43,0,0,0,1-3.15H45c-.25,1.69-.82,2.66-1.54,2.66-.15,0-.26-.07-.36-.27a1.73,1.73,0,0,1-.27-.7c0-.25.07-.34.45-.61a3.93,3.93,0,0,0,1.56-2.78h.27c0,.6,0,.81-.07,1.28H50V259a5.84,5.84,0,0,0-.09-1.3,11.14,11.14,0,0,1,2,.24c.14.05.22.12.22.2s-.24.28-.89.48v1.73h4.87a6.81,6.81,0,0,1,.75-.95,13.06,13.06,0,0,1,1.55,1.2c.13.11.18.18.18.26s0,.07-.07.1a1.21,1.21,0,0,1-.47.15l-.81.16a12.67,12.67,0,0,1-1.82,1.6l-.14-.12a10.87,10.87,0,0,0,.83-2H53v3.34c0,.29,0,.35.27.4s1.3.05,2,.05a9.27,9.27,0,0,0,1.57-.1c.18-.06.18-.06.45-.67a16.66,16.66,0,0,0,.63-1.8l.27,0-.11,1.87v.25c0,.16.09.25.29.31s.47.21.47.45-.18.41-.49.48a15,15,0,0,1-2.63.17c-1.38,0-2.82,0-3.15-.07-.56-.08-.76-.33-.76-.94v-3.76Z"/><path class="cls-1" d="M44.5,283.25v10.46c0,.13,0,.16-.18.22a5.45,5.45,0,0,1-.86.07c-.16,0-.22,0-.24-.18.06-1.53.08-4.39.08-8.91,0-4.68,0-6.29-.08-7.31l1.28.81h3.69c.33-.36.44-.47.72-.81.44.36.56.47,1,.81.12.1.16.18.16.23s-.14.24-.52.45v2c0,.94,0,1.53.05,2.63,0,.15,0,.2-.11.24a4.55,4.55,0,0,1-.9.07c-.12,0-.16-.06-.21-.2v-.54Zm3.84-4.43H44.5v1.77h3.84Zm0,2.18H44.5v1.84h3.84Zm0,11.16c0,.11,0,.15-.16.18a3.84,3.84,0,0,1-.74.09c-.16,0-.22-.05-.24-.18,0-1.47,0-2.28,0-3.08,0-2.12,0-3.79-.05-4.48.59.32.77.43,1.35.78h4.21c.34-.31.45-.4.77-.71.38.31.51.42.89.76.16.13.19.18.19.25s-.07.16-.59.43v2c0,1.23,0,1.91.05,3.32h0c0,.17,0,.2-.16.26a4.2,4.2,0,0,1-.77.07c-.16,0-.24,0-.25-.16v-.63H48.34Zm4.54-6.28H48.34v2h4.54Zm-4.54,2.43v2.32h4.54v-2.32Zm4.54-5.06v.47c0,.21-.18.27-.67.27s-.5,0-.5-.24c0-1.13,0-1.69,0-2.7,0-2.59,0-2.73,0-3.44.57.33.75.44,1.29.8h3.76c.33-.36.44-.47.74-.81l1.08.81c.15.12.2.18.2.25s-.05.16-.56.52v8.66c0,3,0,3,0,4.7-.05.83-.38,1.06-1.94,1.41a1.44,1.44,0,0,0-.63-.83,2.83,2.83,0,0,0-1-.27l-1-.18v-.27c1.45.09,1.81.1,2.93.12.27,0,.32,0,.32-.25v-9Zm4.06-4.43H52.88v1.77h4.06Zm0,2.18H52.88v1.84h4.06Z"/><path class="cls-1" d="M59.23,300a2.32,2.32,0,1,1-2.32-2.32A2.3,2.3,0,0,1,59.23,300Zm-4.07,0a1.76,1.76,0,0,0,1.75,1.75A1.75,1.75,0,1,0,55.16,300Z"/><path class="cls-1" d="M10.86,2.23c.32-.38.41-.48.75-.84.58.43.76.55,1.34,1,.09.09.12.14.12.2s-.29.28-1,.43A18.56,18.56,0,0,1,6.54,8.48,17.82,17.82,0,0,1,.92,10.84l-.07-.25A22.22,22.22,0,0,0,6.64,7.33a17,17,0,0,0,4.22-4.68H6.93A16.06,16.06,0,0,1,5.26,4.27a8,8,0,0,1,1.65.86.88.88,0,0,1,.42.72c0,.38-.29.88-.52.88s-.18-.07-.29-.27-.43-.77-.63-1.08A3,3,0,0,0,5,4.45a14.73,14.73,0,0,1-3.85,2.3L1,6.55A19.22,19.22,0,0,0,5.2,3,8.87,8.87,0,0,0,7.11,0,17.18,17.18,0,0,1,8.89.63C9,.67,9,.72,9,.77A.39.39,0,0,1,9,.9S8.84,1,8.7,1a1.86,1.86,0,0,0-.49.14c-.4.51-.52.65-.92,1.1Zm-.74,6.38a18,18,0,0,1-1.64,1.44c.85.48,1.35.79,1.51.9.51.38.63.57.63,1s-.32,1-.56,1c-.08,0-.14-.08-.23-.26s-.5-1-.74-1.36a4.59,4.59,0,0,0-.84-1.1,20,20,0,0,1-5,2.64l-.11-.21C6.72,10.7,9.42,8.3,10.62,6c1.34.34,1.71.48,1.71.64s-.21.29-.81.42c-.45.52-.59.68-1,1.13h3.85a8.47,8.47,0,0,1,.86-.83c.6.42.78.54,1.33,1,.08,0,.11.09.11.14s0,.13-1,.45a13.92,13.92,0,0,1-2.88,3.51A15.7,15.7,0,0,1,6.14,16a33,33,0,0,1-4.07.78L2,16.46a26.71,26.71,0,0,0,7.15-2.6,15.13,15.13,0,0,0,4.07-3.45,12.85,12.85,0,0,0,1.17-1.8Z"/><path class="cls-1" d="M4.57,23.83c.38-.48.51-.63.9-1.06.58.52.76.69,1.32,1.23a.33.33,0,0,1,.07.16c0,.05-.07.09-.2.09H4.2v1.29l1,.67c.54.38.81.76.81,1.15s-.34,1-.59,1-.22-.1-.29-.36a7,7,0,0,0-.9-2.07v4.65c0,2.3,0,2.72,0,5.76,0,.23-.22.29-1,.29-.2,0-.27-.06-.27-.22v-.07C3,33.54,3,33.52,3,32.44c0-.47,0-.95,0-1.4,0-1,0-1.77,0-2.13l.16-2.66A21.16,21.16,0,0,1,1.89,29.7,11.5,11.5,0,0,1,.2,32.3L0,32.17a27.8,27.8,0,0,0,2.05-4.79,25.66,25.66,0,0,0,.76-3.13h-1a4.91,4.91,0,0,0-1.29.14l-.13-.7a6.9,6.9,0,0,0,1.42.14H3.08v-2A9.81,9.81,0,0,0,3,20c1.77.27,1.91.31,1.91.49s-.16.23-.66.41v2.95Zm6.81,1.73h2.21a12.93,12.93,0,0,1,.87-1,16.64,16.64,0,0,1,1.42,1.2c.07.08.09.11.09.17s-.05.09-.16.09H11.38v2h3.29a14.15,14.15,0,0,1,1-1.13c.7.54.92.72,1.59,1.3a.24.24,0,0,1,.09.16c0,.07-.06.09-.18.09H11.43A8,8,0,0,0,13,31.2a8.86,8.86,0,0,0,1.74-2.49c1.24.74,1.71,1.08,1.71,1.21a.22.22,0,0,1-.23.18H16c-.09,0-.26,0-.47,0a13.69,13.69,0,0,1-2.4,1.39,10.32,10.32,0,0,0,4.15,2.81v.21c-.74.17-.87.28-1.34,1.16a9.44,9.44,0,0,1-2.95-3,12.29,12.29,0,0,1-1.62-3.33v2.3c0,.8,0,1.41,0,1.86,0,.7,0,.81.08,1.56A1.31,1.31,0,0,1,11,36.17a3,3,0,0,1-1.53.43,1.21,1.21,0,0,0-.71-.88A7.12,7.12,0,0,0,7,35.3l0-.29c1.06.06,1.13.06,3,.08h0c.18,0,.21-.06.21-.27V32.21a42.34,42.34,0,0,1-4.1,2.32c-.06.57-.11.72-.25.72S5.6,34.94,5,33.48a23.62,23.62,0,0,0,5.22-1.67V28.39H7.81a4.67,4.67,0,0,0-1.6.16l-.12-.74A7.21,7.21,0,0,0,7.81,28h2.45V26H8a5.52,5.52,0,0,0-1.42.12l-.15-.72A6.78,6.78,0,0,0,8,25.56h2.23v-2H8.19a5.36,5.36,0,0,0-1.38.15L6.66,23a7.21,7.21,0,0,0,1.53.18h3.33a10.71,10.71,0,0,0,1.64-3.1c1.39.63,1.75.83,1.75,1s-.13.2-.83.25A13.8,13.8,0,0,1,12,23.15h2.47A11.32,11.32,0,0,1,15.29,22c.68.54.88.72,1.53,1.32,0,0,0,.09,0,.11s-.05.1-.14.1H11.38ZM6.57,28.84a11.37,11.37,0,0,1,1.62,1c.52.38.7.63.7,1,0,.56-.34,1.15-.64,1.15-.15,0-.26-.1-.36-.39A6.55,6.55,0,0,0,6.39,29Zm1.24-8.68a14.35,14.35,0,0,1,1.68,1.06c.45.35.59.54.59.83,0,.54-.3,1-.65,1-.19,0-.21,0-.5-.73a6.4,6.4,0,0,0-1.26-2Z"/><path class="cls-1" d="M2,43.69a2.87,2.87,0,0,0,2.27,1,8.06,8.06,0,0,0,1.63-.21A7.48,7.48,0,0,0,6.57,42c0-.59-.29-1-1.15-1.39a.74.74,0,0,1,.43-.12,3.79,3.79,0,0,1,1.44.41c.61.31.85.51.85.76a.77.77,0,0,1-.18.46c-.07.15-.45.89-1.1,2.22a4.81,4.81,0,0,0,2-1,.43.43,0,0,1,.38-.14c.7,0,1.22.23,1.22.54s-1.12.91-4,1.58c-.16.36-.47,1.1-1,2.18C5,48.71,3.6,51.74,3.44,52c-.27.49-.43.65-.65.65s-.56-.56-.56-1.28a.77.77,0,0,1,.2-.65,7.35,7.35,0,0,0,.86-1.08,23,23,0,0,0,2.26-4.23,4.74,4.74,0,0,1-.85.07,2.93,2.93,0,0,1-1.59-.37A3.68,3.68,0,0,1,1.8,43.83Zm9.52,1a6.28,6.28,0,0,1,3.08,1c.7.45,1.13,1,1.13,1.4a.46.46,0,0,1-.46.52.66.66,0,0,1-.42-.14,2.78,2.78,0,0,0-1.76-.38c-1.44,0-1.89.4-1.89,1.64a25.75,25.75,0,0,0,.36,3.1A7.82,7.82,0,0,1,14.13,53a1.69,1.69,0,0,1,.72,1.42c0,.36-.14.61-.36.61s-.25-.05-.63-.47A6.51,6.51,0,0,0,11.69,53v.34a2,2,0,0,1-.51,1.53,3.29,3.29,0,0,1-2.34.78c-1.62,0-2.74-.78-2.74-1.91s1.37-2.15,3.37-2.15a6,6,0,0,1,1.08.09c-.05-1.42-.05-1.56-.05-1.78,0-1.47.14-2,.63-2.57a3.36,3.36,0,0,1,1.71-.85c.27-.07.3-.09,1-.23A5,5,0,0,0,11.49,45Zm-1,7.88A5.09,5.09,0,0,0,9,52.37c-1.53,0-2.47.52-2.47,1.37,0,.66.69,1.06,1.8,1.06,1.46,0,2.22-.6,2.22-1.73Z"/><path class="cls-1" d="M4.81,73.3c1.29.81,2.75,1.08,5.83,1.08,2.07,0,4.2-.11,6.38-.3v.21a1.35,1.35,0,0,0-.73,1.26c-1.22,0-1.78.06-3,.06-4.49,0-6-.17-7.49-.85a6.33,6.33,0,0,1-3.53-4.11,12.12,12.12,0,0,1-2,4.94l-.22-.13A14.21,14.21,0,0,0,1.3,70.85a28.33,28.33,0,0,0,.27-3.26c0-.07,0-.2,0-.36,1.47.24,1.74.29,1.74.47s-.1.18-.55.36c-.11.94-.18,1.28-.31,1.94a5.23,5.23,0,0,0,1.28,2.38V66.1H2a7.9,7.9,0,0,0-1.23.09l-.14-.67A4.68,4.68,0,0,0,2,65.68H3.71V63.07H2.16a4.26,4.26,0,0,0-1,.09L1,62.53a4.55,4.55,0,0,0,1.17.13H3.71V61.42a13.68,13.68,0,0,0-.11-1.55c.34,0,.61.07.78.07,1,.07,1.22.14,1.22.31s-.22.25-.79.41v2h.61l.86-.94c.44.47.56.63,1,1.12a.27.27,0,0,1,.06.14c0,.06-.07.09-.2.09H4.81v2.61h.77l.83-1.17c.52.54.67.71,1.13,1.26a.4.4,0,0,1,.08.18c0,.08-.11.15-.24.15H4.81v3.1h.68l.81-1.07a10.19,10.19,0,0,1,1,1.16.4.4,0,0,1,.09.19c0,.08-.09.13-.18.13H4.81Zm6.82-9.52h3c.31-.36.42-.47.72-.81l1,.81c.14.12.2.18.2.23s-.06.16-.78.5a13.06,13.06,0,0,1-1.09,4A17,17,0,0,1,16,70.44a1.62,1.62,0,0,1,.31,1c0,.56-.44,1.4-.71,1.4s-.19-.1-.27-.41a25.6,25.6,0,0,0-1-2.9,11.08,11.08,0,0,1-2.43,3.21l-.22-.18a14.46,14.46,0,0,0,2.18-4,18.73,18.73,0,0,0-1.62-2.73l.18-.08a16.49,16.49,0,0,1,1.71,2,13.28,13.28,0,0,0,.57-3.48h-3v5.35c0,2.46,0,2.46,0,4.1v0a.2.2,0,0,1-.14.2,5.33,5.33,0,0,1-.76.11c-.15,0-.2-.06-.2-.22V71.68c0-.34,0-.63,0-.86-.9.43-2,.9-3.1,1.35,0,.46-.14.72-.29.72S7,72.81,7,72.63a9.06,9.06,0,0,1-.42-1.45h.25a4.46,4.46,0,0,0,1-.17V61.42a6.26,6.26,0,0,0-1.41.1l-.18-.7A5.07,5.07,0,0,0,7.8,61h6.35l1.06-1.22a17.46,17.46,0,0,1,1.54,1.33c.07.09.1.14.1.18s-.09.13-.2.13h-5ZM8.86,61.42v3h1.71v-3Zm0,3.38v2.59h1.71V64.8Zm0,3v3l.41-.09c.54-.11.56-.11,1.3-.31V67.81Z"/><path class="cls-1" d="M5.4,88c0,.16-.3,1.29-.81,3.38a7.08,7.08,0,0,0-.3,1.91,2.45,2.45,0,0,1-.06.78.44.44,0,0,1-.43.3c-.31,0-.58-.25-.78-.74a10.75,10.75,0,0,1-.63-3.83,16.41,16.41,0,0,1,.15-1.93,29.51,29.51,0,0,1,.63-3.4,8.44,8.44,0,0,0,.25-1.68,3.2,3.2,0,0,0-.5-1.69c.39,0,.72.25,1.2.88a2.45,2.45,0,0,1,.67,1.43c0,.28,0,.36-.38,1.08a15,15,0,0,0-1,2.86,10,10,0,0,0-.23,2.23A6.68,6.68,0,0,0,3.55,92a16.17,16.17,0,0,0,.65-1.53l1-2.52Zm2.27.9a5.92,5.92,0,0,0,0,.75c0,2,1.13,2.79,3.92,2.79a8.47,8.47,0,0,0,1.53-.12A3.11,3.11,0,0,0,14,92a.71.71,0,0,1,.27,0A1.39,1.39,0,0,1,15.43,93c0,.22-.14.36-.4.45a9.27,9.27,0,0,1-2.25.2c-2.25,0-3.85-.38-4.66-1.1a3,3,0,0,1-1-2.34,4.88,4.88,0,0,1,.21-1.42Zm0-5.73a2.82,2.82,0,0,0,1.68.49,9.64,9.64,0,0,0,3.62-.81c.23-.13.27-.15.39-.15A1.29,1.29,0,0,1,14,83c.38.21.56.43.56.66s-.12.34-.5.42a10.22,10.22,0,0,0-2.56.63,18.6,18.6,0,0,0-2.32,1.27L9,85.75c.81-.68,1.42-1.18,1.71-1.4l-.74,0a3.18,3.18,0,0,1-2.45-1Z"/><path class="cls-1" d="M13.59,102a11.3,11.3,0,0,1,.67-.92,11.73,11.73,0,0,1,1.19.87c.14.09.21.18.21.25s-.1.21-.63.56c0,.61,0,.61-.25,3.67a21,21,0,0,1-.59,3.75,1.75,1.75,0,0,1-.83,1.09,3.76,3.76,0,0,1-1.33.26c0-.71-.22-.85-1.68-1.21l0-.27a14.78,14.78,0,0,0,2,.18c.45,0,.57-.16.72-.79a41.92,41.92,0,0,0,.59-7H4.86a17.56,17.56,0,0,1-4.07,4.83L.56,107a20.78,20.78,0,0,0,3.29-5.14,14.08,14.08,0,0,0,.92-2.53c1.73.41,2.11.52,2.11.68s-.24.23-1,.34c-.36.78-.49,1-.81,1.64Zm-4.7,3.46H5c-.34,0-.61,0-1.17.07l-.09-.59a8.75,8.75,0,0,0,1.37.1H8.73c.29-.34.36-.45.65-.79.5.34.65.45,1.1.79.12.11.18.18.18.26s-.14.21-.54.39c0,2.56,0,2.74,0,3.71,0,.2,0,.29-.18.36a2.59,2.59,0,0,1-.78.11c-.2,0-.29-.09-.29-.29v-.45H4.3v4.32c0,.27.11.38.44.42.5,0,2.16.09,4.53.09h.51c1.44,0,2.55,0,3.09,0h.49a2.91,2.91,0,0,0,1.48-.2,2.07,2.07,0,0,0,.39-.76c.2-.54.2-.54.88-3l.29,0-.29,3.12c0,.2,0,.34,0,.36s0,.21.21.25c.42.11.63.32.63.61a.68.68,0,0,1-.48.56,37.15,37.15,0,0,1-5.92.18,53.92,53.92,0,0,1-6.65-.16c-.58-.13-.79-.47-.81-1.28l0-2.23v-1.75c0-.66,0-1,0-1.64.59.29.77.38,1.35.69H8.89Z"/><path class="cls-1" d="M3,122.67a3.69,3.69,0,0,0,2.9,1,16.58,16.58,0,0,0,2.57-.21c-.07-2.76-.2-3-1.57-3.21.26-.25.4-.29.9-.29a4.89,4.89,0,0,1,1.52.24c.43.14.61.32.61.59,0,.11,0,.11-.23.62a5.43,5.43,0,0,0-.33,1.9,9,9,0,0,0,3.35-1.06.57.57,0,0,1,.22-.07,2.23,2.23,0,0,1,.93.31.53.53,0,0,1,.31.43c0,.25-.29.39-1.41.66a28.34,28.34,0,0,1-3.44.63c0,.47,0,.74,0,1.16s0,.84,0,1.63a13.88,13.88,0,0,0,2.06-.48,2.81,2.81,0,0,0,.9-.45.39.39,0,0,1,.27-.07,2,2,0,0,1,.92.27.36.36,0,0,1,.21.34c0,.32-.25.47-1.38.77a19.58,19.58,0,0,1-2.94.53c0,.7,0,1,0,1.62s.06.95.11,1.4a9.37,9.37,0,0,1,4,1.55,1.53,1.53,0,0,1,.53,1.19c0,.37-.17.63-.4.63s-.25-.06-.72-.51a10,10,0,0,0-1.51-1.11,6.59,6.59,0,0,0-1.8-.76c0,.4.05.58.05.79A1.8,1.8,0,0,1,9,134.19a4,4,0,0,1-2.41.67c-1.8,0-3-.79-3-1.93s1.68-2.17,4.07-2.17h.9c0-.86,0-1,0-1.24V128c-.72,0-1.06.06-1.33.06a4.89,4.89,0,0,1-2.39-.4A1.56,1.56,0,0,1,4,126.25c0-.12,0-.3,0-.5l.27,0c0,.56.11.81.38,1a3.73,3.73,0,0,0,2.11.4,14.55,14.55,0,0,0,1.74-.12V125.8l0-1.31v-.22c-1,.09-1.71.13-2.32.13a3.42,3.42,0,0,1-3.35-1.55Zm4,8.86a5.75,5.75,0,0,0-2,.34c-.65.25-1,.61-1,1.08,0,.65.74,1,2,1a3,3,0,0,0,2.05-.65,1.35,1.35,0,0,0,.4-.94c0-.12,0-.54,0-.68v-.05A10.82,10.82,0,0,0,7,131.53Z"/><path class="cls-1" d="M4.74,145.75c0-.29,0-.29,0-.76s0-.36.06-.63c-.54.36-1.5,1-1.82,1.24s-.45.29-.62.29c-.46,0-1.33-1.06-1.33-1.64a1.37,1.37,0,0,1,.06-.3c.39.57.79.86,1.17.86a8.78,8.78,0,0,0,2.59-1.08A14.71,14.71,0,0,0,5,141.82a1.94,1.94,0,0,0-1-2,.31.31,0,0,1,.23-.09,2.49,2.49,0,0,1,1.16.48c.57.4.93.85.93,1.19s0,.2-.18.74a8.38,8.38,0,0,0-.32,1.42c.39.41.52.56.52.7s0,.15-.25.52A11.57,11.57,0,0,0,5.49,146a5.16,5.16,0,0,0,0,.67,27.69,27.69,0,0,1,3.13-2.75,5.23,5.23,0,0,1,2.9-1.28,1.84,1.84,0,0,1,1.42.65,2.25,2.25,0,0,1,.49,1.58A12,12,0,0,1,13,147.5a17,17,0,0,0-.33,2.95c0,.72.13,1.1.45,1.33a1.58,1.58,0,0,0,.92.27,6.6,6.6,0,0,0,3.35-1.28l.14.22a5.87,5.87,0,0,1-4,2.07c-1.36,0-2.1-.88-2.1-2.52a18.66,18.66,0,0,1,.45-3.21,11.77,11.77,0,0,0,.45-2.84c0-.88-.4-1.39-1.1-1.39s-1.71.54-3.15,1.82a26.76,26.76,0,0,0-2.74,2.84c0,.44,0,.67,0,.94,0,1,.06,1.84.18,3.22a5,5,0,0,1,.06.85c0,1-.34,1.87-.78,1.87-.19,0-.34-.14-.43-.48,0-.18-.25-.74-.3-.87a12.7,12.7,0,0,0-1.59-2c-.36.86-.43,1-.61,1s-.31-.14-.42-.41a3.6,3.6,0,0,1-.19-1c0-.22,0-.25.3-.54a8.27,8.27,0,0,0,1.17-1.6Zm-1.1,3.37c-.42.79-.62,1.18-1,1.9a15.27,15.27,0,0,0,1.91,1.46c0-.68,0-.68.06-3.36,0-.89,0-1.3.07-2C4.47,147.6,4.45,147.6,3.64,149.12Z"/><path class="cls-1" d="M12.77,159a16.35,16.35,0,0,1,3.51,1.73,1.82,1.82,0,0,1,.95,1.57c0,.61-.32,1.2-.67,1.2a.58.58,0,0,1-.23-.11c-.12-.1-.12-.1-.92-1.29a14.09,14.09,0,0,0-2.77-2.87Z"/><path class="cls-1" d="M.11,187.15a23.61,23.61,0,0,0,5-4.65,26.9,26.9,0,0,0,2.2-3,3.28,3.28,0,0,0,.41-.86c.87.16,1.69.34,1.95.43.1,0,.16.09.16.18s-.18.24-.76.33a9.23,9.23,0,0,0,1.61,2,18.46,18.46,0,0,0,4.15,3.11,8,8,0,0,0,2.31.9v.27c-.79.16-1.05.4-1.37,1.28a9.86,9.86,0,0,1-2.16-1.53A28.84,28.84,0,0,1,10.19,182c-.43-.58-.79-1.12-1.44-2.18a26.29,26.29,0,0,1-4.27,4.77,17.9,17.9,0,0,1-4.21,2.79Zm2.36.43a7.84,7.84,0,0,0,1.73.15h7.7c.31-.38.4-.49.7-.83l1.14.83c.12.1.18.18.18.25s-.15.25-.74.5l-1.55,3.15c-.41.81-.86,1.64-1.67,3a.32.32,0,0,1-.31.18,5.11,5.11,0,0,1-1.1-.14.22.22,0,0,1-.09-.15.65.65,0,0,1,.06-.2,42,42,0,0,0,3.38-6.19H4a7.45,7.45,0,0,0-1.41.11Zm2.25-2.84a6,6,0,0,0,1.47.14H9.94a13.22,13.22,0,0,1,.86-1c.65.52.85.7,1.48,1.26a.32.32,0,0,1,.09.12c0,.07,0,.07-.16.07H6.05a6.59,6.59,0,0,0-1.22.09Z"/><path class="cls-1" d="M8.1,200.31v-.92c0-.4,0-.65,0-1.17a9.49,9.49,0,0,1,1.87.28c.13.06.2.11.2.2s-.18.24-.81.36v1.25h5.13l.68-1c.78.52,1,.69,1.75,1.26.11.11.15.16.15.2s-.29.27-1.16.4c-1,1.11-1.06,1.2-1.53,1.67l-.21-.09c.19-.66.21-.74.5-2.05H2.84a7.16,7.16,0,0,1-.32,1.62c-.27.77-.83,1.39-1.28,1.39-.16,0-.27-.11-.38-.33a3,3,0,0,1-.18-.84c0-.27,0-.33.35-.51a3.1,3.1,0,0,0,1-1,4.46,4.46,0,0,0,.58-2h.28c0,.38,0,.63,0,1v.22ZM4.61,214.24c0,.18-.05.25-.2.29a3.53,3.53,0,0,1-.77.09c-.2,0-.29-.07-.29-.25.07-1.59.07-1.91.07-5,0-2.51,0-3,0-4.07v-1c.67.33.87.44,1.48.79H8.1v-2.43c0-.25,0-.37,0-1.49,1.6.16,2,.25,2,.43s-.18.27-.75.47v3h3.31c.25-.32.34-.43.65-.79l1,.79c.14.11.19.18.19.26s-.09.19-.57.54v4.64c0,.11,0,.54,0,1.21,0,.25,0,.63,0,1.13,0,.69-.16.92-.63,1.16a4.68,4.68,0,0,1-1.62.43,1.36,1.36,0,0,0-.57-.85,3.89,3.89,0,0,0-1.1-.32l-.61-.09-.56-.09v-.27c1.69.14,1.91.14,3.38.23h.13c.29,0,.38-.09.38-.32v-2.43H4.61Zm-.38-12.57a9.82,9.82,0,0,1,1.87,1.19c.45.38.56.52.56.88a2.3,2.3,0,0,1-.23,1,.3.3,0,0,1-.29.18c-.18,0-.31-.13-.41-.4a8.15,8.15,0,0,0-1.62-2.59Zm8.52,5.84V205.6H4.61v1.91Zm-8.14.41V210h8.14v-2.07Zm5.85-3a11,11,0,0,0,1.66-3.29c1.71.68,1.71.68,1.71.86s-.2.22-.79.29A16.52,16.52,0,0,1,10.68,205Z"/><path class="cls-1" d="M12.77,218.43a16.35,16.35,0,0,1,3.51,1.73,1.81,1.81,0,0,1,.95,1.57c0,.61-.32,1.2-.67,1.2a.58.58,0,0,1-.23-.11c-.12-.1-.12-.1-.92-1.29a13.82,13.82,0,0,0-2.77-2.86Z"/><path class="cls-1" d="M3,252.38v1.21c0,.25-.13.31-.67.34A1.48,1.48,0,0,0,2,254H2c-.2,0-.27-.07-.27-.25.07-2.29.09-3.86.09-6.63,0-2.57,0-4.07-.07-5.29,1.73.25,2,.32,2,.5s-.11.24-.65.42V252H7.92V240.55c0-.54,0-1.6,0-2.1a8.73,8.73,0,0,1,2,.3c.11.06.18.13.18.2s-.09.18-.79.4l0,12.62h5.24V243.7a10.81,10.81,0,0,0-.15-1.85c.42.05.74.09.94.13.92.09,1.21.18,1.21.36s-.18.28-.74.48l0,5.22c0,1,0,1.86.07,5.66,0,.25-.12.3-.66.34a1.47,1.47,0,0,0-.33,0h0c-.2,0-.27-.07-.27-.25v-1.43Z"/><path class="cls-1" d="M.43,262.12a12.35,12.35,0,0,1,2,.88c.59.36.77.63.77,1.06s-.3,1-.59,1c-.13,0-.22-.09-.38-.4a9.08,9.08,0,0,0-1.95-2.35Zm.09,6.48a7.66,7.66,0,0,0,1.08.25c.2,0,.27-.11.7-1.11.92-2,1.91-4.38,2.63-6.16l.27.09L2.88,269a3.1,3.1,0,0,0-.16.77c0,.16,0,.2.2.74a6.93,6.93,0,0,1,.34,1.87,1.68,1.68,0,0,1-.34,1,1.44,1.44,0,0,1-1,.5c-.22,0-.36-.2-.36-.5,0-.09,0-.09.18-1.42a9.64,9.64,0,0,0,.1-1.14,2.55,2.55,0,0,0-.28-1.37c-.15-.2-.18-.21-1.14-.59Zm1.21-10.5a8.85,8.85,0,0,1,2.14,1c.6.37.78.61.78,1s-.29,1.06-.56,1.06-.24-.09-.4-.36a10.49,10.49,0,0,0-2.09-2.41Zm4.45,14c-.06.18-.17.23-.49.23-.56,0-.74-.05-.74-.21A.37.37,0,0,1,5,272c.61-2.32.79-3.1,1.22-5.13H5.38a6.27,6.27,0,0,0-1.11.1l-.13-.66a5.74,5.74,0,0,0,1.33.14h.8c.32-1.64.55-3.17.66-4.3a13.79,13.79,0,0,1-2.14,2.45l-.2-.2a18.61,18.61,0,0,0,3-6.46c1.54.37,1.92.5,1.92.66s-.09.18-.84.38c-.31.67-.44.92-.65,1.33h6c.47-.57.63-.74,1.08-1.22a20,20,0,0,1,1.67,1.4.29.29,0,0,1,.06.15c0,.05-.07.09-.18.09H7.81c-.32.54-.5.84-.79,1.28a10.62,10.62,0,0,1,1,.7h5.73c.27-.31.36-.4.63-.69.43.35.57.44,1,.8.13.12.17.18.17.25s-.11.2-.58.45c-.09,1.08-.09,1.08-.29,2.93h.25c.38-.56.51-.72.9-1.22a13.74,13.74,0,0,1,1.36,1.39.3.3,0,0,1,.05.14c0,.05-.07.11-.15.11H14.66c-.26,2.61-.29,2.81-.42,3.72h.22c.39-.54.52-.68.93-1.18.62.59.8.77,1.39,1.4a.25.25,0,0,1,0,.11c0,.05-.06.09-.15.09h-2.5a5.34,5.34,0,0,1-.67,2.3c-.39.53-.82.72-2,.9a.84.84,0,0,0-.52-.91,8.41,8.41,0,0,0-2.11-.58v-.24c1.5.13,2.65.2,3,.2.52,0,.63,0,.72-.21A5.39,5.39,0,0,0,13,271H6.43Zm3-1.52c.18-1,.18-1,.64-3.72H7.33c0,.21,0,.21-.11.63-.11.61-.31,1.53-.68,3.09Zm.72-4.14c.19-1.28.21-1.44.38-3.33H8c-.16,1-.16,1-.56,3.33Zm1,.42c-.25,1.73-.25,1.73-.61,3.72H13a30.47,30.47,0,0,0,.46-3.72Zm2.63-.42q.21-2.56.27-3.33H11.38c-.2,1.8-.22,1.93-.41,3.33Z"/><path class="cls-1" d="M8.57,292.25a8.08,8.08,0,0,0,4.21-2.5,6.38,6.38,0,0,0,1.61-4.34,4.49,4.49,0,0,0-2-4,6,6,0,0,0-3.11-.83,3.66,3.66,0,0,0-.63,0,2.34,2.34,0,0,1,.55,1.49c0,1.41-1,4-2.37,6.23-1.14,1.81-2,2.69-2.68,2.69a1.07,1.07,0,0,1-.8-.38,3.56,3.56,0,0,1-.5-1.15,11.08,11.08,0,0,0-.79-1.7,3.41,3.41,0,0,1-.42-1.63,5.62,5.62,0,0,1,1.62-3.57,8.74,8.74,0,0,1,6.2-2.52,6.79,6.79,0,0,1,4.64,1.66A5.5,5.5,0,0,1,15.79,286a6.18,6.18,0,0,1-3.58,5.45,10.74,10.74,0,0,1-3.51,1.12Zm-5.92-5.6A4.21,4.21,0,0,0,3.37,289c.25.32.48.52.68.52.4,0,1.26-1,2.14-2.37,1.34-2.13,2.29-4.45,2.29-5.57a2,2,0,0,0-.25-.9C5.1,281.27,2.65,283.88,2.65,286.65Z"/><path class="cls-1" d="M12.75,309.23c.41-.51.56-.67,1-1.21.72.58.94.76,1.61,1.35a.33.33,0,0,1,.07.16c0,.06-.07.11-.16.11h-6v3.06h4.85a16.23,16.23,0,0,1,1.13-1.24c.76.56,1,.74,1.75,1.35.09.07.14.14.14.2s-.07.1-.14.1H2.38a14.94,14.94,0,0,0-1.55.13l-.18-.72a11,11,0,0,0,1.73.18H8.05v-3.06H3.85a14.92,14.92,0,0,0-1.49.09l-.2-.7a10.82,10.82,0,0,0,1.73.2H8.05v-.69c0-.52,0-.94-.09-1.78,2,.29,2.1.32,2.1.49s-.1.17-.79.39v1.59Zm-4.7-9.84v-.84A8.21,8.21,0,0,0,8,297.23c1.73.17,2.13.26,2.13.47a.25.25,0,0,1-.14.18l-.71.22v1.29h5l.83-.93c.73.48.95.65,1.64,1.17a.21.21,0,0,1,.12.18.25.25,0,0,1-.07.12,1.43,1.43,0,0,1-.47.11l-.59.09-.33.33a14.23,14.23,0,0,1-1.13,1l-.18-.11a13.53,13.53,0,0,0,.38-1.53H2.92a5.22,5.22,0,0,1-.6,1.94c-.25.45-.72.85-1,.85s-.65-.67-.65-1.08c0-.18.06-.27.25-.41A3.09,3.09,0,0,0,2.09,300a5.2,5.2,0,0,0,.58-1.73H3a3.66,3.66,0,0,1,0,.42,4.91,4.91,0,0,1,0,.75Zm-3.66,3.08A7.22,7.22,0,0,0,3,302.6l-.2-.7,1.64.16h8c.38-.49.5-.61.9-1.06.63.5.86.68,1.57,1.26.05.05.09.09.09.12a.1.1,0,0,1-.11.09H8.23a25.88,25.88,0,0,1-2.5,3.08c2-.05,3.22-.14,6.75-.47a26,26,0,0,0-1.91-1.85l.11-.16A12.66,12.66,0,0,1,13,304.36a9.58,9.58,0,0,1,1.71,1.34,1,1,0,0,1,.25.73c0,.62-.22,1.12-.47,1.12s-.13,0-1-1.15c-.47-.63-.52-.69-.74-1l-4,.65c-1.8.25-4.43.56-5.8.65,0,.56-.12.77-.3.77s-.42-.5-.69-2a8.74,8.74,0,0,0,1,.06c.13,0,.27,0,.51,0l1.6,0a16.54,16.54,0,0,0,1.51-3.08Z"/><path class="cls-1" d="M5.4,325.59c0,.16-.3,1.29-.81,3.38a7.08,7.08,0,0,0-.3,1.91,2.45,2.45,0,0,1-.06.78.44.44,0,0,1-.43.3c-.31,0-.58-.25-.78-.74a10.75,10.75,0,0,1-.63-3.83,16.41,16.41,0,0,1,.15-1.93,29.51,29.51,0,0,1,.63-3.4,8.44,8.44,0,0,0,.25-1.68,3.2,3.2,0,0,0-.5-1.69c.39,0,.72.25,1.2.88A2.45,2.45,0,0,1,4.79,321c0,.28,0,.36-.38,1.08a15,15,0,0,0-1,2.86,10,10,0,0,0-.23,2.23,6.68,6.68,0,0,0,.34,2.38A16.17,16.17,0,0,0,4.2,328l1-2.52Zm2.27.9a5.92,5.92,0,0,0,0,.75c0,2,1.13,2.79,3.92,2.79a8.47,8.47,0,0,0,1.53-.12,3.11,3.11,0,0,0,1-.29.71.71,0,0,1,.27-.05,1.39,1.39,0,0,1,1.13,1.06c0,.21-.14.36-.4.45a9.27,9.27,0,0,1-2.25.2c-2.25,0-3.85-.38-4.66-1.1a3,3,0,0,1-1-2.34,4.88,4.88,0,0,1,.21-1.42Zm0-5.73a2.82,2.82,0,0,0,1.68.49,9.64,9.64,0,0,0,3.62-.81c.23-.13.27-.15.39-.15a1.29,1.29,0,0,1,.63.26c.38.21.56.43.56.66s-.12.34-.5.42a10.22,10.22,0,0,0-2.56.63,18.6,18.6,0,0,0-2.32,1.27L9,323.35c.81-.68,1.42-1.18,1.71-1.4l-.74,0a3.18,3.18,0,0,1-2.45-1Z"/><path class="cls-1" d="M13.59,339.57a11.3,11.3,0,0,1,.67-.92,11.73,11.73,0,0,1,1.19.87c.14.09.21.18.21.25s-.1.22-.63.56c0,.61,0,.61-.25,3.67a21,21,0,0,1-.59,3.75,1.75,1.75,0,0,1-.83,1.09,3.76,3.76,0,0,1-1.33.26c0-.71-.22-.85-1.68-1.21l0-.27a14.78,14.78,0,0,0,2,.18c.45,0,.57-.16.72-.79a41.89,41.89,0,0,0,.59-7H4.86a17.66,17.66,0,0,1-4.07,4.82l-.23-.23a20.78,20.78,0,0,0,3.29-5.14,14.08,14.08,0,0,0,.92-2.53c1.73.41,2.11.52,2.11.68s-.24.23-1,.34c-.36.78-.49,1-.81,1.64ZM8.89,343H5c-.34,0-.61,0-1.17.07l-.09-.59a8.75,8.75,0,0,0,1.37.1H8.73c.29-.34.36-.45.65-.79.5.34.65.45,1.1.79.12.11.18.18.18.26s-.14.21-.54.39c0,2.56,0,2.74,0,3.71,0,.2,0,.29-.18.36a2.59,2.59,0,0,1-.78.11c-.2,0-.29-.09-.29-.29v-.45H4.3V351c0,.27.11.38.44.42.5.05,2.16.09,4.53.09h.51c1.44,0,2.55,0,3.09,0h.49a2.91,2.91,0,0,0,1.48-.2,2,2,0,0,0,.39-.76c.2-.54.2-.54.88-3l.29,0-.29,3.12c0,.2,0,.34,0,.36s0,.21.21.25c.42.11.63.32.63.61a.68.68,0,0,1-.48.56,37.15,37.15,0,0,1-5.92.18,53.92,53.92,0,0,1-6.65-.16c-.58-.13-.79-.47-.81-1.28l0-2.23v-1.75c0-.66,0-.95,0-1.64.59.29.77.38,1.35.69H8.89Z"/><path class="cls-1" d="M3,360.27a3.69,3.69,0,0,0,2.9,1A16.58,16.58,0,0,0,8.48,361c-.07-2.76-.2-3-1.57-3.21.26-.25.4-.29.9-.29a4.89,4.89,0,0,1,1.52.24c.43.14.61.32.61.59,0,.11,0,.11-.23.62a5.43,5.43,0,0,0-.33,1.9,9,9,0,0,0,3.35-1.06.57.57,0,0,1,.22-.07,2.23,2.23,0,0,1,.93.31.53.53,0,0,1,.31.43c0,.25-.29.39-1.41.66a28.34,28.34,0,0,1-3.44.63c0,.47,0,.74,0,1.16s0,.84,0,1.64a15.22,15.22,0,0,0,2.06-.49,2.81,2.81,0,0,0,.9-.45.39.39,0,0,1,.27-.07,2,2,0,0,1,.92.27.36.36,0,0,1,.21.34c0,.32-.25.47-1.38.77a19.58,19.58,0,0,1-2.94.53c0,.7,0,1,0,1.62s.06.95.11,1.4a9.37,9.37,0,0,1,4,1.55,1.53,1.53,0,0,1,.53,1.19c0,.37-.17.63-.4.63s-.25-.06-.72-.51a10.78,10.78,0,0,0-1.51-1.11,6.59,6.59,0,0,0-1.8-.76c0,.4.05.58.05.79A1.79,1.79,0,0,1,9,371.79a4,4,0,0,1-2.41.67c-1.8,0-3-.79-3-1.93s1.68-2.17,4.07-2.17h.9c0-.86,0-1,0-1.24v-1.56c-.72,0-1.06.05-1.33.05a4.89,4.89,0,0,1-2.39-.4A1.56,1.56,0,0,1,4,363.85c0-.12,0-.3,0-.5l.27,0c0,.56.11.81.38,1a3.73,3.73,0,0,0,2.11.4,17,17,0,0,0,1.74-.12V363.4l0-1.31v-.22c-1,.09-1.71.13-2.32.13a3.42,3.42,0,0,1-3.35-1.55Zm4,8.86a5.75,5.75,0,0,0-2,.34c-.65.25-1,.61-1,1.08,0,.65.74,1,2,1a3,3,0,0,0,2.05-.65,1.34,1.34,0,0,0,.4-.93c0-.13,0-.55,0-.69v-.05A10.82,10.82,0,0,0,7,369.13Z"/><path class="cls-1" d="M4.74,383.35c0-.29,0-.29,0-.76s0-.36.06-.63c-.54.36-1.5,1-1.82,1.24s-.45.29-.62.29c-.46,0-1.33-1.06-1.33-1.64a1.37,1.37,0,0,1,.06-.3c.39.57.79.86,1.17.86a8.78,8.78,0,0,0,2.59-1.08A14.71,14.71,0,0,0,5,379.42a2,2,0,0,0-1-2c.11-.07.14-.09.23-.09a2.42,2.42,0,0,1,1.16.49c.57.4.93.85.93,1.19s0,.2-.18.74a8.38,8.38,0,0,0-.32,1.42c.39.41.52.56.52.7s0,.15-.25.52a10.77,10.77,0,0,0-.58,1.18,4.93,4.93,0,0,0,0,.66,27.69,27.69,0,0,1,3.13-2.75,5.23,5.23,0,0,1,2.9-1.28,1.84,1.84,0,0,1,1.42.65,2.25,2.25,0,0,1,.49,1.58,11.87,11.87,0,0,1-.36,2.66,17.2,17.2,0,0,0-.33,3c0,.72.13,1.1.45,1.33a1.58,1.58,0,0,0,.92.27,6.6,6.6,0,0,0,3.35-1.28l.14.22a5.87,5.87,0,0,1-4,2.07c-1.36,0-2.1-.88-2.1-2.52a18.66,18.66,0,0,1,.45-3.21,11.77,11.77,0,0,0,.45-2.84c0-.88-.4-1.39-1.1-1.39s-1.71.54-3.15,1.82a26,26,0,0,0-2.74,2.85c0,.43,0,.66,0,.93,0,1,.06,1.84.18,3.22a5,5,0,0,1,.06.85c0,1-.34,1.87-.78,1.87-.19,0-.34-.14-.43-.48,0-.18-.25-.74-.3-.87a12.7,12.7,0,0,0-1.59-2c-.36.86-.43,1-.61,1s-.31-.14-.42-.41a3.6,3.6,0,0,1-.19-1c0-.22,0-.25.3-.54a8.27,8.27,0,0,0,1.17-1.6Zm-1.1,3.37c-.42.79-.62,1.18-1,1.9a15.27,15.27,0,0,0,1.91,1.46c0-.68,0-.68.06-3.36,0-.89,0-1.3.07-2C4.47,385.2,4.45,385.2,3.64,386.72Z"/><path class="cls-1" d="M10.19,398.84c-.7.22-2.39.89-3.64,1.43a2.13,2.13,0,0,1-.73.23c-.33,0-.69-.25-1-.75a2.63,2.63,0,0,1-.5-1.34.68.68,0,0,1,.16-.46c.27.84.75,1.31,1.35,1.31a20.16,20.16,0,0,0,3.4-.77,2.42,2.42,0,0,0,1.12-.56.38.38,0,0,1,.25-.09c.23,0,.52.18,1,.63s.54.59.54.81-.09.23-.3.34a4.8,4.8,0,0,0-1.5,1.21c-1.13,1.13-1.8,1.8-2.65,2.7-1.72,1.85-1.72,1.85-2.1,2.23l0,0a9,9,0,0,1,4.9-1.72c2.31,0,3.85,1.36,3.85,3.37,0,2.58-2.39,4.48-5.65,4.48-1.76,0-2.9-.7-2.9-1.8,0-.88.83-1.53,2-1.53a3.3,3.3,0,0,1,2.28.89,3.53,3.53,0,0,1,.8,1.11A3.54,3.54,0,0,0,13,407.24,2.5,2.5,0,0,0,11.85,405a4.1,4.1,0,0,0-1.79-.36c-1.76,0-4.23,1.44-5.72,3.35-.31.38-.43.49-.61.49s-.6-.63-.6-1.17a.85.85,0,0,1,.38-.63A16.05,16.05,0,0,0,6,404.17c2.2-2.46,2.88-3.25,4.31-5.09a1.3,1.3,0,0,0,.18-.29s0,0-.06,0,0,0,0,0h-.06l-.09,0ZM7.42,409.18c-.69,0-1.14.36-1.14.92s.8,1.1,2.06,1.1A5,5,0,0,0,9.61,411,2.35,2.35,0,0,0,7.42,409.18Z"/><path class="cls-1" d="M17.23,418.75a2.32,2.32,0,1,1-2.32-2.32A2.3,2.3,0,0,1,17.23,418.75Zm-4.07,0a1.76,1.76,0,0,0,1.75,1.75,1.75,1.75,0,1,0-1.75-1.75Z"/></g></g></svg>