<?xml version="1.0" encoding="utf-8"?>
<!-- Generator: Adobe Illustrator 25.0.0, SVG Export Plug-In . SVG Version: 6.00 Build 0)  -->
<svg version="1.1" id="レイヤー_1" xmlns="http://www.w3.org/2000/svg" xmlns:xlink="http://www.w3.org/1999/xlink" x="0px"
	 y="0px" width="407px" height="456px" viewBox="0 0 407 456" style="enable-background:new 0 0 407 456;" xml:space="preserve">
<style type="text/css">
	.st0{fill:#FFFFFF;}
	.st1{fill:#76544B;}
</style>
<g>
	<g>
		<path class="st0" d="M323.8,5.4c0.5,0,1,0,1.6-0.6c0.9-0.9,1-1,1.2-1c0.4,0,2.2,1.7,2.2,2.2c0,0.4-0.8,1.7-0.9,2
			c-0.2,1.4-0.2,4.4-0.2,5.1c0,2.1,0.2,11.3,0.2,13.1c0,0.6,0,1.7-0.7,2.4c-0.5,0.5-1.4,0.9-1.7,0.9c-0.7,0-0.8-0.9-0.8-1.2
			c0-1,0-1.2-1.1-1.2h-2.3c-0.9,0-1.1,0.6-1.1,1.1c0,0.1,0,1.7,0,2c-0.1,1-1.4,2.4-2,2.4c-1.1,0-1.1-0.9-1.1-1.3
			c0-0.4,0.2-2.9,0.2-3.5c0.1-4.2,0.2-7.1,0.2-18.3c0-0.8-0.1-4.6-0.1-5.3c0-0.2,0-0.4,0.2-0.4c0.3,0,1,0.4,1.8,0.9
			c1,0.6,1.4,0.7,2.2,0.7H323.8z M323.8,26.1c0.4,0,1,0,1.2-0.5c0.1-0.3,0.1-3.5,0.1-4.3c0-1.4,0-4-0.1-4.3
			c-0.1-0.2-0.4-0.5-0.9-0.5h-2.7c-1,0-1,0.3-1,3.6c0,1.1,0,5.2,0.2,5.5c0.1,0.4,0.6,0.5,1,0.5H323.8z M321.5,6.5
			c-0.3,0-0.6,0-0.8,0.3c-0.3,0.4-0.3,6.1-0.3,7c0,0.9,0,1.6,1.1,1.6h2.4c0.2,0,0.8,0,1.1-0.5c0.2-0.4,0.2-4.6,0.2-5.4
			c0-2.9,0-3.1-1.2-3.1H321.5z M344.3,14.4c1.9,0,2.1,0,2.7-1c0.3-0.4,1-1.6,1.6-1.6c0.2,0,1.3,0.9,1.6,1.1c1.9,1.6,2,1.6,2,2
			c0,0.6-0.8,0.6-2.2,0.6H335c-1.9,0-3.5,0-4.3,0.1c-0.2,0-0.8,0.1-0.9,0.1c-0.1,0-0.2-0.1-0.3-0.2l-0.8-0.9
			c-0.2-0.2-0.2-0.2-0.2-0.3s0-0.1,0.1-0.1c0.3,0,1.6,0.1,1.8,0.1c1.4,0.1,3.4,0.2,4.7,0.2h1.6c1.2,0,1.2-0.8,1.2-1.3
			c0-0.8,0-3,0-3.8c0-1-0.7-1-1.1-1c-1.3,0-3.3,0-4.5,0.1c-0.1,0-0.7,0.1-0.8,0.1c-0.2,0-0.2-0.1-0.4-0.3l-0.8-0.9
			c-0.2-0.2-0.2-0.2-0.2-0.2c0-0.1,0.1-0.1,0.2-0.1c0.3,0,1.5,0.1,1.8,0.2c1.4,0,3.2,0.1,4.6,0.1c0.4,0,1.2,0,1.2-1
			c0-1.8-0.1-3.3-0.2-4.4c0-0.2-0.2-1-0.2-1.1c0-0.2,0.2-0.3,0.3-0.3c0,0,4.2,1.2,4.2,1.7c0,0.2-0.9,0.9-1,1
			c-0.3,0.3-0.3,1.2-0.3,1.6c0,2.4,0,2.5,1.7,2.5c1.6,0,2.2,0,2.8-0.7c1.1-1.6,1.1-1.6,1.4-1.6c0.5,0,3.5,2.6,3.5,2.9
			c0,0.4-0.2,0.4-2,0.4H342c-1.1,0-1.1,0.6-1.1,1.6c0,3.3,0,3.6,0.1,3.9c0.2,0.5,0.8,0.5,1,0.5H344.3z M345.8,22.4
			c-1.2,0-1.4,0.4-1.4,1.4c0,1.6,0.2,8.4,0.2,9.8c0,3.1-3.3,3.2-3.8,3.2c-0.4,0-0.6,0-0.6-0.5c0-1,0-1.6-1.7-2.2
			c-0.4-0.1-2.2-0.6-2.5-0.7c-0.2-0.1-0.6-0.3-0.6-0.5s0.2-0.3,0.6-0.3c0.2,0,3.8,0.4,4.5,0.4c0.7,0,0.9-0.1,1-0.6
			c0.1-0.3,0.1-0.8,0.1-4.9c0-5.1,0-5.2-1.4-5.2h-3.3c-0.9,0-3.6,0-5,0.1c-0.1,0-0.7,0.1-0.8,0.1c-0.2,0-0.2-0.1-0.4-0.3l-0.8-0.9
			c-0.2-0.2-0.2-0.2-0.2-0.2c0-0.1,0.1-0.1,0.2-0.1c0.3,0,1.5,0.1,1.8,0.2c1.8,0.1,3.6,0.1,5.5,0.1h3.1c1.2,0,1.2-0.7,1.2-1.4
			c0-0.5-0.2-3.2-0.2-3.3c0-0.3,0.1-0.5,0.3-0.5c0.2,0,4,1.1,4,1.9c0,0.2-1,1-1.1,1.2c-0.1,0.2-0.2,0.4-0.2,1.2
			c0,0.7,0.4,0.8,0.8,0.8c0.5,0,0.6-0.2,1.6-1.5c0.4-0.5,0.8-1,1.2-1c0.2,0,0.4,0.1,1.6,1.1c1.9,1.5,2,1.6,2,2
			c0,0.6-0.8,0.6-2.1,0.6H345.8z M336.9,30.9c-0.9,0-1.1-0.4-2-1.9c-1.1-1.8-2.9-3.1-3.6-3.5c-0.2-0.1-1.4-1-1.4-1.1
			c0-0.2,0.2-0.2,0.3-0.2c0.8,0,8,1.4,8,5.3C338.3,29.9,337.8,30.9,336.9,30.9z"/>
		<path class="st0" d="M321.2,67.3c0-1.2,1.1-2.5,3.8-5.6c1.8-2.1,3.4-5.4,3.4-6c0-0.2-0.3-0.3-0.4-0.3c-0.4,0-2,0.3-2.4,0.3
			c-1.5,0-3.6-2-3.6-3.5c0-0.1,0-0.3,0.2-0.3c0.2,0,1.3,0.6,1.5,0.8c0.5,0.2,1.6,0.7,2.6,0.7c3.3,0,3.3-1.1,3.3-1.9
			c0-0.2,0-0.9-0.3-1.4c-0.1-0.2-1-0.9-1-1.2c0-0.3,1-0.6,1.8-0.6c1,0,2,0.4,2,1.2c0,0.5,0.2,0.6,1.8,0.7c0.3,0,1.8,0.2,1.8,1
			c0,1.3-2.9,2.4-4.8,3.2c-0.6,0.2-0.6,0.3-1.5,2.4c-1,2.2-1.1,2.5-2.2,4.3c-0.2,0.4-0.3,0.5-0.3,0.6c0,0.1,0,0.2,0.2,0.2
			c0.1,0,0.9-0.3,1.2-0.4c0.4-0.2,1-0.3,1.6-0.3c0.5,0,2.4,0.1,3.4,2.4c0.3,0.7,0.3,0.8,0.4,0.8c0.1,0,1.4-1.8,1.6-2.2
			c1.3-1.8,3.9-5.5,7.4-5.5c2.2,0,3.8,1.9,3.8,3.6c0,1.9-3.2,3.2-5.6,4.3c-1,0.4-5.5,2.2-6.2,2.7c-0.6,0.4-0.7,0.8-0.7,1.7
			c0,0.4,0.1,2,0.1,2.4c0,0.6,0,2.9-1.5,2.9c-1.1,0-1.2-1.3-1.2-2c0-0.4,0.1-2.3,0.1-2.4c0-0.2,0-0.5-0.3-0.5
			c-0.3,0-3.9,2.5-3.9,4.8c0,2.8,4,2.8,5.2,2.8c1,0,1.8-0.1,2.6-0.2c0.6-0.1,3.1-0.7,3.6-0.7c0.8,0,2,0.4,2,1.4
			c0,2.5-6.2,2.6-7.2,2.6c-5.1,0-7.7-2.1-7.7-5.2c0-2.6,1.5-3.8,5.3-6.9c0.4-0.3,0.6-0.8,0.6-1.4c0-1.8-0.3-4-1.9-4
			c-1.5,0-3.9,1.8-4.9,4.2c-0.4,1-0.9,2-2.2,2C322,68.6,321.2,68.4,321.2,67.3z M331.4,52.2c0.1,0,2-0.5,2-1c0-0.5-1-0.6-1.4-0.6
			c-0.6,0-0.7,1.1-0.7,1.3C331.3,52.1,331.3,52.2,331.4,52.2z M335.1,65.2c0,0.1,0,0.2,0.2,0.2c0.1,0,8-3.2,8-5.8
			c0-1-0.9-1.2-1.4-1.2C338.5,58.3,335.1,64.5,335.1,65.2z"/>
		<path class="st0" d="M314.9,105.4c-0.2-0.2-0.2-0.2-0.2-0.3c0,0,0.1-0.1,0.2-0.1c0.2,0,1.2,0.1,1.4,0.1c1.5,0.1,4.2,0.2,5.8,0.2
			c1,0,1.2-0.4,1.2-1.6c0-0.6,0-3.7,0-3.9c-0.2-0.6-1-0.6-1.4-0.6c-0.6,0-3.1,0.2-3.6,0.2c-0.2,0-0.2-0.1-0.4-0.3l-0.8-0.9
			C317,98,317,98,317,97.9c0-0.1,0.1-0.1,0.2-0.1c0.8,0,4.3,0.3,5,0.3c1.2,0,1.2-0.6,1.2-1.3c0-1.7-0.1-3-0.2-3.4
			c0-0.2-0.3-1-0.3-1.2c0-0.5,0.4-0.5,0.6-0.5c0.4,0,2.7,0.8,3,0.9c0.2,0.1,0.6,0.4,0.6,0.7c0,0.2-0.2,0.4-0.8,0.9
			c-0.4,0.4-0.4,0.7-0.4,1.8c0,1.4,0,2.2,1.4,2.2c0.8,0,1-0.1,1.4-0.6c0.8-1,0.8-1.1,1.1-1.1c0.6,0,2.4,1.6,2.4,2.2
			c0,0.6-0.8,0.6-2.2,0.6h-2.8c-1.4,0-1.4,0.5-1.4,1.7c0,4.1,0,4.4,1.4,4.4c1.6,0,1.8,0,2.1-0.3c0.2-0.2,1.2-1.4,1.5-1.4
			c0.6,0,2.3,1.7,2.3,2.1c0,0.6-0.8,0.6-2.1,0.6h-5.1c-0.2,0-0.4,0-0.4,0.3c0,0.3,0.5,0.5,0.8,0.6c1,0.3,1.1,0.4,1.1,0.8
			c0,0.2-0.1,0.3-0.9,0.6c-0.7,0.3-0.7,2-0.7,2.8c0,2.1,0,2.6,1.2,2.6c1.1,0,1.4-0.1,1.6-0.3c0.2-0.2,1.2-1.6,1.5-1.6
			c0.6,0,2.4,1.8,2.4,2.3c0,0.6-0.8,0.6-2.2,0.6h-3c-1.4,0-1.5,0.3-1.5,1.6c0,5,0,5.2,0.6,5.7c1.1,1,7.5,1.7,15.3,1.7
			c4.6,0,7.2-0.1,9.7-0.8c0.2,0,1.3-0.4,1.5-0.4c0.1,0,0.2,0.1,0.2,0.2c0,0.2-1.6,1.4-1.8,1.7c-0.4,0.4-0.5,0.6-1,1.8
			c-0.2,0.5-0.6,0.5-1,0.5c-5,0-16.8-0.3-21.4-1.5c-3.4-0.9-5.9-3.2-8.1-6.8c-0.2-0.4-0.5-0.7-0.7-0.7c-0.3,0-0.5,0.6-0.5,0.7
			c-1.5,3.9-3.4,7-3.6,7c-0.1,0-0.2,0-0.2-0.1c0-0.1,0.2-0.6,0.2-0.7c0.8-2.8,3-11,3-13.2c0-0.2-0.1-0.9-0.1-1
			c0-0.4,0.4-0.5,0.5-0.5c0.1,0,3.4,0.7,3.4,1.4c0,0.2-1,0.8-1,1c-0.2,0.3-1.3,3-1.3,3.7c0,1.4,2.7,4.2,3.4,4.2
			c0.5,0,0.5-0.8,0.5-1.1c0-8,0-10.6-0.1-12.1c-0.1-1-0.5-1.2-1.3-1.2c-2,0-4,0.1-5.4,0.2c-0.1,0-0.5,0-0.6,0
			c-0.2,0-0.2-0.1-0.4-0.2L314.9,105.4z M342.7,95.5c-1,0-1.1,0.3-1.4,1.8c-1,6-4.6,8.4-6.6,9.6c-0.4,0.2-1.4,0.8-1.6,0.8
			c-0.1,0-0.2-0.1-0.2-0.2c0-0.1,1.5-1.5,1.8-1.8c3.9-4.2,4.1-8.4,4.1-9.3c0-0.7-0.3-1-1-1c-0.8,0-1.9,0-2.7,0.1
			c-0.2,0-0.7,0.1-0.8,0.1c-0.2,0-0.2-0.1-0.4-0.2l-0.8-0.9c-0.1-0.2-0.2-0.2-0.2-0.3c0-0.1,0.1-0.1,0.2-0.1c0.3,0,1.5,0.1,1.8,0.1
			c2,0.1,3.6,0.2,5.5,0.2h5.1c0.4,0,1,0,1.3-0.6c0.4-0.6,0.5-0.7,0.7-0.7c0.2,0,3.1,1,3.1,1.8c0,0.3-0.2,0.5-0.9,1.1
			c-0.2,0.2-0.2,0.5-0.2,0.9c0,2.4-0.3,11.5-4.5,11.5c-0.5,0-0.6-0.2-0.9-0.9c-0.5-1.1-1.7-1.2-2.1-1.2c-0.8-0.1-0.8-0.1-0.8-0.3
			c0-0.1,0.1-0.3,0.4-0.3c2.8,0,3.5,0,4.1-1.2c0.6-1.2,1.2-5.1,1.2-7.4c0-1.3-0.3-1.5-1.2-1.5H342.7z M338.1,120.2
			c-0.8,0-1.1,0.2-1.2,0.9c-0.2,0.9-1.1,1.3-1.8,1.3c-0.6,0-0.9-0.4-0.9-1c0-0.2,0.1-1.4,0.2-1.6c0.1-1.4,0.1-1.9,0.1-4
			c0-1.5,0-3.7-0.1-5.2c0-0.2-0.2-1.1-0.2-1.3c0-0.3,0.2-0.5,0.4-0.5c0.3,0,1.8,1,2.1,1.2c0.7,0.4,1.3,0.4,1.8,0.4h7.1
			c0.4,0,1,0,1.4-0.3c0.2-0.2,0.8-1,1-1c0.3,0,2.8,1.4,2.8,2.2c0,0.3-0.2,0.6-0.7,0.8c-0.5,0.3-0.5,0.5-0.5,2.3
			c0,0.9,0.1,5.6,0.1,5.8c0,0.9,0,2.1-1.8,2.1c-1,0-1.1-0.7-1.2-1.1c-0.1-0.9-0.6-1-1.2-1H338.1z M338.1,111.5
			c-1.2,0-1.2,0.4-1.2,2.7c0,0.4,0,4.2,0.1,4.5c0.2,0.5,0.8,0.5,1.1,0.5h7.5c1.2,0,1.2-0.4,1.2-2.6c0-0.4,0-4.3-0.1-4.6
			c-0.2-0.5-0.8-0.5-1.1-0.5H338.1z"/>
		<path class="st0" d="M334.3,148.9c0.6-0.2,1.2-0.3,1.7-0.3c1.6,0,2.8,1,2.8,2.2c0,1.4-1.5,2.8-4.6,5.7c-0.4,0.4-3,2.8-3,3.1
			c0,0.2,0.2,0.2,0.4,0.2c0.1,0,0.8-0.1,0.9-0.1c1.5,0,2.9,1.3,2.9,2.9c0,0.4-0.2,2.2-0.2,2.6s0.1,2.2,2.3,2.2c1.1,0,6-1.1,7-1.1
			c1.1,0,2.1,0.6,2.1,1.5c0,2.2-3.3,2.5-7.6,2.5c-4.8,0-5.4-2.5-5.5-5.3c-0.1-3.2-0.1-3.6-1.3-3.6c-0.8,0-3.4,0.7-5.6,4.8
			c-1.1,2-1.8,3.2-3.1,3.2c-1,0-1.4-0.9-1.4-1.4c0-1.1,0-1.5,6.6-8.7c3.4-3.8,6.6-7.2,6.6-8.4c0-0.4-0.2-0.7-0.7-0.7
			c-0.6,0-1.7,0.8-2.2,1.3c-0.9,0.8-2.1,1.6-3.2,1.6c-2.3,0-3.4-2.9-3.4-3.3c0-0.2,0.1-0.3,0.3-0.3c0.1,0,1,0.3,1.1,0.3
			c0.6,0.2,1.1,0.3,2,0.3C330.3,150.4,330.7,150.3,334.3,148.9z M330.1,139.5c0.6,0.2,3.4,0.7,3.9,0.8c1.3,0.4,2.5,1.3,2.5,2.4
			c0,0.3-0.2,1.1-1.1,1.1c-2.8,0-2.9,0-3.8,0.4c-0.3,0.1-1.4,0.7-1.6,0.7c-0.1,0-0.2-0.1-0.2-0.2c0-0.3,1.8-2.1,1.8-2.6
			c0-0.2-0.6-0.6-1.5-1.2c-1.2-0.8-1.4-1.3-1.4-1.5c0-0.1,0.1-0.2,0.2-0.2C329,139.2,329.9,139.5,330.1,139.5z"/>
		<path class="st0" d="M320.8,192.8c1.7,0,2.3-0.2,7.8-1.7c3.6-1,12.7-3.6,15.3-3.6c1.4,0,3.2,0.6,3.2,1.9c0,1-1,1.5-1.6,1.5
			c-0.5,0-2.8-0.4-3.3-0.4c-5.1,0-10.7,4.7-10.7,15c0,6.7,2.5,7.2,4.9,7.2c0.6,0,3.5-0.2,3.8-0.2c1.2,0,2,0.5,2,1.5
			c0,2.1-4.4,2.1-4.6,2.1c-8.2,0-8.2-6.7-8.2-8.6c0-1.8,0-10.2,5.8-15.4c0.2-0.1,1-0.8,1-0.8c0-0.1-0.2-0.1-0.2-0.1
			c-2.3,0-10.6,3.6-11.9,4.3c-0.6,0.3-1,0.5-1.4,0.5c-2,0-3.9-2.7-3.4-3.2C319.4,192.4,320.6,192.8,320.8,192.8z"/>
		<path class="st0" d="M342.5,235.6c1.8,0,2,0,2.6-0.7c1.1-1.3,1.2-1.5,1.6-1.5c0.2,0,3.8,2.1,3.8,2.6c0,0.6-0.8,0.6-2.2,0.6h-12.3
			c-1,0-1,0.8-1,2c0,1.7,0,2.4,1,2.4h1.9c1.6,0,1.9,0,2.3-0.3c0.3-0.2,1.5-1.8,1.9-1.8c0.4,0,3.5,2,3.5,2.5c0,0.7-0.9,0.7-2.2,0.7
			h-7.3c-1.1,0-1.1,0.9-1.1,1.6c0,1.5,0,2.3,1.1,2.3h7.4c1.8,0,2,0,2.6-0.7c1.1-1.3,1.2-1.5,1.6-1.5c0.3,0,3.8,2.2,3.8,2.7
			c0,0.6-0.8,0.6-2.2,0.6h-26.6c-3.5,0-4.6,0.1-5,0.1c-0.2,0-0.7,0.1-0.8,0.1c-0.2,0-0.2-0.1-0.4-0.2l-0.8-1
			c-0.1-0.2-0.2-0.2-0.2-0.2c0-0.1,0-0.1,0.2-0.1c0.3,0,1.5,0.1,1.8,0.2c2,0.1,3.6,0.1,5.5,0.1h8.5c1,0,1-0.7,1-2.4
			c0-0.7,0-1.6-1-1.6h-4.2c-3.5,0-4.6,0.1-5,0.1c-0.1,0-0.7,0.1-0.8,0.1c-0.2,0-0.2-0.1-0.4-0.3l-0.8-0.9c-0.2-0.2-0.2-0.2-0.2-0.3
			c0,0,0-0.1,0.1-0.1c0.3,0,1.5,0.1,1.8,0.1c2,0.1,3.6,0.2,5.5,0.2h3.9c1,0,1-0.6,1-2.3c0-1.3,0-2.2-1.1-2.2h-7.3
			c-3.5,0-4.7,0.1-5.1,0.1c-0.1,0-0.7,0.1-0.8,0.1c-0.1,0-0.2-0.1-0.4-0.3l-0.8-0.9c-0.2-0.2-0.2-0.2-0.2-0.3c0-0.1,0-0.1,0.1-0.1
			c0.3,0,1.5,0.1,1.8,0.1c2,0.1,3.6,0.2,5.5,0.2h11c1.4,0,3.2-3.4,3.2-5.8c0-0.9,0-1.2,0.4-1.2c0.2,0,2.4,0.9,2.8,1
			c0.8,0.3,1.4,0.6,1.4,1.2c0,0.5-0.5,0.5-0.8,0.6c-0.8,0.1-1,0.3-2.8,1.9c-0.3,0.2-1.6,1.3-1.9,1.6c-0.2,0.2-0.4,0.3-0.4,0.5
			c0,0.3,0.3,0.3,0.8,0.3H342.5z M323.4,254.3c-3.5,0-4.6,0.1-5.1,0.1c-0.1,0-0.7,0.1-0.8,0.1c-0.1,0-0.2-0.1-0.4-0.3l-0.8-0.9
			c-0.2-0.2-0.2-0.2-0.2-0.3c0,0,0-0.1,0.1-0.1c0.3,0,1.5,0.1,1.8,0.1c2,0.1,3.6,0.2,5.5,0.2h7.1c1,0,1-0.7,1-1.8
			c0-1.4-0.1-1.9-0.2-2.3c-0.2-0.8-0.2-0.8-0.2-1c0-0.3,0.4-0.3,0.6-0.3c0.5,0,3.6,0.3,3.6,1.2c0,0.2-0.5,1.2-0.5,1.4
			c0,0.3-0.2,2-0.2,2.1c0,0.4,0,0.7,0.9,0.7h6.2c2,0,2,0,2.9-0.9c0.3-0.4,0.9-1,1.3-1c0.6,0,3.7,2.2,3.7,2.5c0,0.5-1,0.5-2.1,0.5
			h-11.3c-0.5,0-0.7,0-0.7,0.3c0,0.6,6.2,6.5,15.7,6.5c0.2,0,1.1,0,1.2,0c0.1,0,0.2,0,0.2,0.1s-1.4,0.7-1.6,0.9
			c-0.8,0.5-2.3,1.6-2.8,2.3c-0.1,0.2-0.3,0.5-0.5,0.5s-6-1.8-10.2-6.4c-1.7-1.8-2.2-2.6-2.5-3c-0.1-0.2-0.3-0.4-0.5-0.4
			c-0.2,0-0.2,0.1-0.5,0.8c-2.6,7.1-11.2,7.9-14.1,7.9c-2.4,0-4.6-0.4-4.6-0.6c0,0,1.8-0.2,2-0.2c10.7-1.1,13.9-6.4,13.9-8
			c0-0.6-0.3-0.6-0.9-0.6H323.4z M329.5,235.3c-0.6,0-0.8-0.3-2.2-2.7c-0.2-0.3-1-1.7-2.7-3.1c0-0.1-0.2-0.2-0.2-0.4
			c0,0,0.1-0.1,0.2-0.1c0,0,1.4,0.3,3,1c2.1,0.9,3.4,1.6,3.4,3.5C331,234.3,330.6,235.3,329.5,235.3z"/>
		<path class="st0" d="M334.1,278.2c0,0,0.5,9.6,5.8,18.3c0.7,1.1,5.2,8.4,11.3,10c0.1,0,0.4,0.1,0.4,0.3c0,0.2-0.1,0.2-1.4,0.5
			c-1.4,0.3-2.4,0.9-2.8,1.2c-0.8,0.6-0.9,0.7-1,0.7c-0.2,0-5.2-3.2-9.1-11.6c-0.7-1.6-3.3-7.1-3.8-15.5c0-0.4,0-0.5-0.2-0.5
			c-0.2,0-0.2,0.2-0.4,1.6c-0.1,1.3-1.2,10.6-5.1,17.1c-4.3,7.1-11.3,9.5-11.6,9.5c-0.1,0-0.2,0-0.2-0.2c0-0.1,0.2-0.3,0.5-0.5
			c2.3-1.6,6.8-5.1,9.5-10.3c4.6-8.7,4.6-20.1,4.6-20.6c0-1.2,0-1.6-0.2-2.4c0-0.1-0.2-0.7-0.2-0.8c0-0.2,0.2-0.3,0.3-0.3
			c0.2,0,2,0.6,2.3,0.6c1.9,0.5,2.7,0.8,2.7,1.5c0,0.4-0.3,0.6-0.7,0.6c-0.3,0-0.5,0.1-0.6,0.2C334.2,277.8,334.1,278,334.1,278.2z"
			/>
		<path class="st0" d="M333.5,326.5c0,0.1,0.1,0.3,0.1,0.4c0.2,1.3,0.4,2.6,0.4,4.3c0,2.7-0.6,6.4-4.1,11.7
			c-3.2,4.9-5.2,5.8-6.8,5.8c-2.6,0-5-4.1-5-9c0-2.1,0.4-6.2,4.4-10.2c5.1-5.2,10.4-5.2,12.7-5.2c3.6,0,5.3,0.7,6.4,1.3
			c4.3,2.1,7,6.4,7,11.6c0,5.2-3,11.6-10.1,14.1c-3.4,1.2-6,1.5-6.6,1.5c-0.2,0-0.4,0-0.4-0.3c0-0.1,0.1-0.2,1.1-0.6
			c4.2-1.6,12.8-5.1,12.8-15c0-1.6-0.2-11.1-11.1-11.1C333.6,325.9,333.5,326.2,333.5,326.5z M320.6,338.8c0,2.6,1,6.2,3.5,6.2
			c1.2,0,2.1-0.5,4.9-4.6c2.1-3.2,3.9-7.7,3.9-11.6c0-2.4-0.2-2.6-0.7-2.6C328.3,326,320.6,331.2,320.6,338.8z"/>
		<path class="st0" d="M320.7,379.6c0,0.9-0.5,2-1.5,2c-0.8,0-0.9-0.2-1.8-2.3c-0.7-1.8-1.9-3-2.1-3.2c0,0-0.5-0.5-0.5-0.6
			c0-0.1,0.1-0.2,0.2-0.2c0.2,0,1.8,0.5,2.8,1C319.2,376.9,320.7,378.1,320.7,379.6z M324.2,376c0-0.1,0.1-0.3,0.3-0.3
			c0.1,0,0.1,0.1,0.1,0.2c0,0.3-0.3,3.3-2,8.6c-1.5,4.7-1.7,5.9-1.7,7.5c0,1,0.1,1.6,0.2,2.1c0.8,3.4,0.8,3.4,0.8,4.2
			c0,1.5-1,2.4-2.1,2.4c-1,0-1.7-0.5-1.7-1.8c0-0.6,0.4-3.3,0.4-3.9c0-2.2-1.2-3.5-2.4-4.1c-0.2-0.1-1.1-0.4-1.1-0.6
			c0-0.2,0.2-0.2,0.3-0.2c1.5,0,2.6-0.2,3.2-1.1c0.9-1.1,1.2-2.1,4.8-11.1C323.5,377.7,324.1,376.2,324.2,376z M323.4,370.8
			c0,1.4-1,2-1.5,2c-0.8,0-1-0.6-1.7-2.3c-0.4-1-1.6-3-2.2-3.8c-0.2-0.2-0.4-0.4-0.4-0.6c0-0.1,0.1-0.1,0.2-0.1c0.1,0,2,0.6,3.3,1.4
			C322,367.9,323.4,369,323.4,370.8z M345.3,387.4c-1,0-1.5,0.4-1.8,1.2c-2.6,8-7.1,11.2-13.7,12.5c-0.1,0-0.7,0.1-0.7,0
			c0-0.1,2.9-1.6,3.4-1.9c6-3,8.1-9.9,8.1-10.9c0-0.6-0.5-1-1.1-1h-0.8c-0.4,0-0.7,0-1.2,0.4c-0.3,0.3-1.2,2.2-1.5,2.6
			c-3.3,5.3-9.3,6.7-9.3,6.7c-0.1,0-0.1,0-0.1-0.1s2.3-1.8,2.8-2.1c4-3.4,5.2-6.4,5.2-6.8c0-0.6-0.5-0.7-0.9-0.7h-1.2
			c-0.7,0-1,0-1.4,0.3c-0.5,0.2-2.2,2-2.6,2.4c-1.4,1.2-4.7,3.5-5.6,3.5c0,0-0.1,0-0.1-0.1c0-0.1,2.7-2.6,3.2-3.1
			c2.3-2.5,5.1-6.6,5.1-7.3c0-0.3-0.2-0.7-0.6-0.7c-1.2,0-2.8,0-3.8,0.1c-0.1,0-1.1,0.1-1.2,0.1c-0.1,0-0.2-0.1-0.4-0.3l-0.8-0.9
			c-0.2-0.2-0.2-0.2-0.2-0.2c0-0.1,0.1-0.1,0.1-0.1c0.2,0,1.5,0.1,1.8,0.2c1.2,0,3.2,0.1,5.5,0.1h12.8c1.1,0,1.7,0,2-0.1
			c0.4-0.2,1.8-2.2,2.2-2.2c0.4,0,3.2,2.2,3.2,2.8c0,0.6-0.5,0.6-1.6,0.6h-13.3c-1.6,0-2.1,0-3.2,1.8c-0.1,0.2-1.1,1.7-1.1,1.7
			c0,0.5,0.4,0.5,0.7,0.5h12.4c0.5,0,0.9-0.1,1.3-0.4c0.2-0.2,0.9-1.1,1.2-1.1c0.5,0,3.1,1.7,3.1,2.5c0,0.3-0.3,0.5-0.9,1
			c-0.3,0.2-0.4,0.4-0.4,1.2c0,2.6-0.2,12.3-6.5,12.3c-0.3,0-0.7,0-1-0.4c-0.1-0.2-0.4-1.2-0.5-1.5c-0.2-0.5-2.4-2.8-2.4-2.8
			c0-0.1,0.1-0.1,0.2-0.1c0.2,0,1,0.4,1.2,0.4c2.7,0.7,3,0.7,3.5,0.7c0.7,0,1-0.3,1.3-0.8c0.5-0.8,1.5-4.1,1.5-7.8c0-1.4,0-2-1.2-2
			H345.3z M342.1,367.4c1,0,1.4-0.6,1.5-0.7c0.2-0.3,0.4-0.6,0.8-0.6c0.6,0,3.3,1.4,3.3,2.2c0,0.3-0.1,0.4-0.8,0.9
			c-0.4,0.3-0.5,0.6-0.5,2.2c0,0.8,0.1,4.6,0.1,5.5c0,2.2-1.6,2.4-2,2.4c-0.7,0-0.8-0.2-1.1-0.9c-0.2-0.5-0.8-0.5-1.1-0.5h-8.5
			c-0.4,0-1,0-1.2,0.6c-0.4,0.8-0.7,1.5-2.1,1.5c-0.8,0-1-0.5-1-1.4c0-0.8,0.1-4.6,0.1-5.4c0-2.1,0-2.4-0.2-5.2
			c0-0.2-0.2-1.2-0.2-1.4c0-0.3,0.3-0.3,0.6-0.3c0.6,0,1,0.2,2.4,0.8c0.8,0.4,1.4,0.4,1.8,0.4H342.1z M333.5,368.4
			c-1.2,0-1.2,0.8-1.2,1.8c0,1,0,1.8,1.2,1.8h9c1.2,0,1.2-0.8,1.2-1.8c0-1,0-1.8-1.2-1.8H333.5z M333.5,373.2
			c-1.2,0-1.2,0.7-1.2,1.6c0,1.5,0,2.1,1.2,2.1h8.7c1.3,0,1.3-0.8,1.3-2.6c0-1-0.9-1-1.2-1H333.5z"/>
	</g>
</g>
<g>
	<g>
		<path class="st1" d="M266.7,447.5c0,2.3,0.2,2.5,1.9,2.6v0.6h-6.1V450c1.8-0.1,1.9-0.2,1.9-2.6v-11.8c0-2.3-0.1-2.5-1.9-2.5v-0.6
			h6.1v0.6c-1.8,0.1-1.9,0.2-1.9,2.5v5h9.4v-5c0-2.3-0.1-2.5-1.9-2.5v-0.6h6.1v0.6c-1.8,0.1-1.9,0.2-1.9,2.5v11.8
			c0,2.3,0.1,2.5,1.9,2.6v0.6h-6.1V450c1.8-0.1,1.9-0.3,1.9-2.6v-6h-9.4V447.5z"/>
		<path class="st1" d="M286.9,439.3c1-1.1,2.6-1.7,4.3-1.7c3.6,0,6,2.6,6,6.5c0,4.2-2.4,6.8-6.2,6.8c-3.6,0-6-2.6-6-6.4
			C285.1,442.4,285.7,440.5,286.9,439.3z M291.2,450.4c2.4,0,3.8-2.1,3.8-6c0-3.9-1.4-6.1-3.8-6.1c-2.4,0-3.7,2.1-3.7,5.9
			C287.4,448.1,288.8,450.4,291.2,450.4z"/>
		<path class="st1" d="M305.6,447.1c0,1.5,0.1,2.1,0.3,2.5c0.2,0.3,0.6,0.5,1.2,0.5c0.5,0,1-0.1,1.6-0.4l0.2,0.6
			c-0.8,0.4-1.6,0.6-2.5,0.6c-1.2,0-2.1-0.4-2.6-1.2c-0.3-0.5-0.3-1-0.3-2.9v-8.1h-1.6v-0.6c1.5-0.1,2.2-1.1,2.6-3.4l1.1-0.3
			c0,1.1-0.1,2-0.1,3.7h3v0.7h-3V447.1z"/>
		<path class="st1" d="M324.1,446.7h0.8c0.1,1.2,0.3,1.8,0.7,2.3c0.6,0.9,1.6,1.3,2.7,1.3c1.7,0,2.7-0.9,2.7-2.3
			c0-0.6-0.2-1.1-0.6-1.4c-0.4-0.4-0.5-0.4-2.8-1.4c-2.7-1.2-3.5-2.1-3.5-3.8c0-0.9,0.2-1.7,0.7-2.3c0.7-0.9,1.8-1.4,3.1-1.4
			c0.6,0,1,0.1,2.3,0.3c0.2,0,0.4,0,0.5,0c0.3,0,0.7,0,1.2-0.2l-0.1,3.9h-0.8c0-2.2-1.1-3.5-3-3.5c-1.5,0-2.5,0.9-2.5,2.2
			c0,0.6,0.2,1,0.7,1.3c0.5,0.3,0.9,0.6,2.6,1.3c1.7,0.7,2.3,1.1,2.9,1.7c0.5,0.6,0.8,1.4,0.8,2.4c0,2.3-1.5,3.8-3.9,3.8
			c-0.7,0-1,0-2.5-0.3c-0.3,0-0.6-0.1-0.9-0.1c-0.3,0-0.6,0-1.1,0.1L324.1,446.7z"/>
		<path class="st1" d="M340.6,439.9c0.9-1.5,2.3-2.2,4.1-2.2c3.2,0,5.1,2.4,5.1,6.3c0,1.9-0.5,3.7-1.4,5c-0.9,1.2-2.4,1.9-4.1,1.9
			c-1.5,0-2.3-0.4-3.7-1.6v3.6c0,2.3,0.1,2.5,1.9,2.6v0.6h-5.8v-0.6c1.7-0.1,1.8-0.2,1.8-2.6v-12.1c0-1.9-0.3-2.2-1.7-2.2V438
			l3.7-0.3V439.9z M344.1,450.2c2.3,0,3.4-2,3.4-5.9c0-3.9-1-5.9-3.2-5.9c-1.1,0-2.2,0.6-2.8,1.6c-0.6,1.1-1,2.5-1,4.4
			C340.5,448.2,341.7,450.2,344.1,450.2z"/>
		<path class="st1" d="M358.3,437.7c0.1,1.2,0.1,1.6,0.1,2.1c0,0.2,0,0.5,0,0.8c0.8-1.9,2.2-3,3.6-3c1.1,0,1.9,0.7,1.9,1.5
			c0,0.6-0.5,1-1.3,1c-0.5,0-0.8-0.1-0.9-0.6c-0.2-0.5-0.3-0.7-0.7-0.7c-0.6,0-1.3,0.5-1.9,1.5c-0.5,0.8-0.7,1.8-0.7,3.2v3.9
			c0,2.3,0.1,2.5,1.8,2.6v0.6h-5.7v-0.6c1.7,0,1.8-0.3,1.8-2.6v-6.7c0-1.9-0.3-2.2-1.7-2.2V438L358.3,437.7z"/>
		<path class="st1" d="M371.3,437.7c-0.1,1.5-0.1,3.6-0.1,4.7v5.1c0,2.3,0.1,2.5,1.8,2.6v0.6h-5.7v-0.6c1.7,0,1.8-0.3,1.8-2.6v-6.7
			c0-1.2-0.1-1.8-0.4-2c-0.2-0.2-0.6-0.2-1.5-0.2V438L371.3,437.7z M370.1,432.4c0.8,0,1.4,0.6,1.4,1.4c0,0.8-0.6,1.4-1.4,1.4
			c-0.8,0-1.4-0.6-1.4-1.4C368.6,433.1,369.3,432.4,370.1,432.4z"/>
		<path class="st1" d="M380.9,440.3c1.1-1.9,2.3-2.6,4.4-2.6c1.6,0,2.6,0.5,3.3,1.5c0.5,0.7,0.6,1.6,0.6,3.1v5.2
			c0,2.3,0.1,2.5,1.8,2.6v0.6h-5.7v-0.6c0.8,0,1.3-0.1,1.5-0.4c0.2-0.2,0.2-0.4,0.2-0.8c0-0.3,0.1-1.2,0.1-1.4v-5
			c0-1.3-0.1-2.1-0.4-2.7c-0.4-0.9-1.1-1.3-2.2-1.3c-1.2,0-2.1,0.5-2.8,1.7c-0.5,0.8-0.9,2-0.9,3v4.3c0,2.3,0.1,2.5,1.8,2.6v0.6
			h-5.7v-0.6c1.7,0,1.8-0.3,1.8-2.6v-6.7c0-1.9-0.3-2.2-1.7-2.2V438l3.8-0.3V440.3z"/>
		<path class="st1" d="M404.3,438.9c1,1,1.4,2.1,1.4,3.3c0,2.6-1.9,4.4-4.9,4.4c-0.7,0-1.3-0.1-2.2-0.3c-0.9,0.5-1.3,0.9-1.3,1.5
			c0,0.9,0.6,1.3,2.7,1.3c0.3,0,0.5,0,1.2,0c0.2,0,0.5,0,0.6,0c1.7,0,2.5,0.1,3.2,0.3c1.4,0.4,2.1,1.3,2.1,2.7
			c0,1.2-0.7,2.5-1.9,3.1c-1.1,0.6-2.5,0.9-4.4,0.9c-1.7,0-2.9-0.3-3.9-0.8c-0.9-0.5-1.4-1.3-1.4-2.4c0-1,0.2-1.3,1.7-2.3
			c-1.1-0.5-1.6-1.2-1.6-2.2c0-0.7,0.2-1,1.2-1.7l1-0.6c-0.7-0.5-1-0.7-1.2-1.1c-0.5-0.6-0.8-1.6-0.8-2.6c0-1.7,0.7-3.2,1.9-3.9
			c0.8-0.5,1.9-0.8,3.1-0.8c0.5,0,1,0.1,1.7,0.2c0.8,0.1,1,0.1,1.6,0.1c0.6,0,1.4,0,2.7-0.1v1H404.3z M397.1,452.6
			c0,1.8,1.3,2.8,3.9,2.8c2.7,0,4.3-1.1,4.3-2.8c0-1-0.6-1.6-1.9-1.8c-0.5-0.1-1.2-0.1-2.8-0.1c-0.9,0-2.4,0-2.4,0
			C397.5,450.9,397.1,451.5,397.1,452.6z M398.5,444.8c0.4,0.8,1.3,1.2,2.3,1.2c1.8,0,2.8-1.3,2.8-3.8c0-2.6-0.9-4-2.8-4
			c-1.9,0-2.8,1.3-2.8,3.8C397.9,443.1,398.1,444.1,398.5,444.8z"/>
	</g>
</g>
<g>
	<g>
		<path class="st0" d="M180.6,26.3c3.7-0.5,6.1-1.1,9-2.6c1.7-0.8,2.8-1.6,4.1-3c-2.6-1.1-3.4-1.3-6.1-2c-0.4,0.6-0.6,1-1.2,1.9
			c-0.2,0.2-0.3,0.2-0.4,0.2c0,0,0,0-0.1,0c-0.3-0.1-0.6-0.1-0.7-0.1c-0.8-0.1-0.9-0.1-0.9-0.4c1.7-2.6,2.5-3.8,4.3-7.3h-6
			c-0.4,0-1.4,0.1-2.3,0.2l-0.3-1.3c1.3,0.3,1.9,0.4,2.6,0.4h6.4c1.2-2.5,1.9-4.2,2.6-6.4c2.9,0.8,2.9,0.8,3.1,0.9
			c0.1,0.1,0.2,0.2,0.2,0.3c0,0.3-0.2,0.4-1.6,0.6c-0.8,2-1.2,2.8-2.1,4.6h11.8c0.7-1,1-1.3,1.7-2.2c1.3,1.1,1.7,1.4,3,2.6
			c0.1,0.1,0.1,0.1,0.1,0.2c0,0.1-0.1,0.2-0.3,0.2h-7c-0.8,2.6-1.2,3.6-2.1,5.1c-0.5,0.8-1,1.4-1.6,2.2c2.9,1,5.5,2.1,7,3
			c0.9,0.6,1.2,1.1,1.2,2.2c0,0.6-0.2,1.2-0.4,1.2c-0.2,0-0.2,0-1-0.6c-0.9-0.7-3.8-2.6-5.1-3.4c-0.9-0.5-1.4-0.8-2.7-1.3
			c-1.4,1.4-2.8,2.4-5,3.3c-3.2,1.4-5.7,1.9-9.9,2L180.6,26.3z M192.7,4V2.3c0-1.2,0-1.4-0.1-2.3c2.6,0.3,3.4,0.5,3.4,0.8
			c0,0.2-0.4,0.4-1.2,0.7V4h8.7c0.5-0.7,0.7-0.9,1.3-1.7c1.3,0.9,1.7,1.2,2.9,2.3c0.1,0.2,0.2,0.2,0.2,0.3c0,0.2-0.3,0.3-1.9,0.5
			c-1.7,1.4-2.1,1.8-3.8,3.1l-0.3-0.2c1.3-2.6,1.3-2.6,1.8-3.7h-19.8c-0.2,1.5-0.5,2.5-1,3.4c-0.4,0.9-1.4,1.8-1.8,1.8
			c-0.5,0-1.1-1.1-1.1-2c0-0.4,0.1-0.6,0.6-0.8c0.6-0.4,1.3-1,1.7-1.7c0.5-0.7,0.5-0.8,1.3-3.7h0.4c0,1.2,0,1.6-0.1,2.3H192.7z
			 M190.7,13c-0.9,1.8-1.9,3.8-2.7,5.2c0.7,0.1,0.7,0.1,2.3,0.5c1.4,0.3,2.5,0.5,4.3,1.1c1.7-2.1,2.7-4,3.5-6.7H190.7z"/>
		<path class="st0" d="M179.8,45.3c0.8,0.1,1.9,0.2,2.3,0.2h2c0.4-0.5,0.6-0.7,1-1.3c0.9,0.6,1.1,0.8,1.9,1.4
			c0.1,0.1,0.1,0.2,0.1,0.3c0,0.2,0,0.2-1,0.8v7.2c0.7,1.3,1.1,1.9,1.8,2.3c1.1,0.7,3.2,1,7,1c3.2,0,10.2-0.3,13-0.5l-0.1,0.5
			c-0.7,0.1-1,0.3-1.3,0.7c-0.3,0.3-0.4,0.7-0.4,1c0,0.1,0,0.2,0,0.3c-0.4,0-2,0-4.6,0c-0.6,0-2.5,0-5.4,0c-4.9,0-7.3-0.6-9-2.2
			c-0.7-0.7-1.2-1.4-1.9-3.1c-2.2,2.8-2.8,3.5-3.4,4.3c0,0.4,0,0.6,0,0.8c0,0.5-0.1,0.8-0.4,0.8c-0.1,0-0.2-0.1-0.3-0.2
			c-0.2-0.3-0.5-0.8-0.7-1.3c-0.2-0.4-0.4-0.9-0.7-1.7c0.4-0.2,0.4-0.2,2.2-1.1c0.7-0.4,1.3-0.8,2.2-1.5v-7.8H182
			c-0.3,0-1.3,0.1-1.9,0.2L179.8,45.3z M181.2,33.9c1.6,1,2.9,1.9,3.9,2.9c0.6,0.5,0.9,1.2,0.9,1.9c0,0.9-0.6,2-1,2
			c-0.2,0-0.4-0.1-0.6-0.4c-0.1-0.1-0.1-0.3-0.4-1c-0.4-1.3-1.9-3.8-3.2-5.3L181.2,33.9z M197.9,48h3.6c0.6-0.8,0.8-1,1.6-1.8
			c1,0.9,1.3,1.2,2.2,2.1c0.1,0.1,0.1,0.1,0.1,0.1c0,0.1-0.1,0.3-0.3,0.3h-7.2v3.2h5.2c0.7-0.8,1-1.1,1.9-2c1.1,0.9,1.4,1.2,2.5,2.2
			c0,0.1,0.1,0.1,0.1,0.2c0,0.1-0.2,0.2-0.4,0.2h-9.2c0,2.1,0,2.1,0,3.3c0,0.3-0.1,0.4-0.3,0.5c-0.1,0.1-1,0.1-1.5,0.1
			c-0.2,0-0.3-0.1-0.3-0.4c0-0.9,0-0.9,0-2.5l0-1h-5.9c-1,0-1.4,0-2.2,0.2l-0.4-1c0.9,0.1,2.4,0.2,2.6,0.2h5.9v-3.2h-4.2
			c-1,0.1-1.5,0.2-1.7,0.2l-0.4-1.2c0.3,0.1,1,0.1,2.1,0.3h4.2v-3h-5.6c-1,0.1-1.6,0.1-1.7,0.1l-0.3-1.1c0.3,0.1,0.5,0.1,0.6,0.1
			c0.7,0.1,0.9,0.1,1.4,0.1h3.1c-0.3-0.2-0.4-0.3-0.6-1.5c-0.1-0.7-0.6-1.8-0.9-2.3l0.2-0.2h-2.7c-0.5,0-0.6,0-1.6,0.1l-0.3-1
			c1.1,0.1,1.3,0.2,1.9,0.2h6.5v-2.9h-5.2c-0.7,0-0.7,0-1.8,0.1l-0.4-1c0.6,0.1,1.8,0.2,2.2,0.2h5.2v-0.5c0-0.7,0-0.7-0.1-1.2
			c0-0.6,0-0.7-0.1-1.2c0.6,0.1,1.1,0.2,1.4,0.2c1.5,0.2,1.7,0.3,1.7,0.6s-0.2,0.4-1,0.5V36h3.6c0.7-0.8,1-1,1.7-1.9
			c1.1,0.9,1.4,1.2,2.5,2.1c0.1,0.1,0.2,0.2,0.2,0.3c0,0.1-0.1,0.2-0.4,0.2h-7.6v2.9h4.9c0.7-0.8,0.7-0.8,1.8-1.9l2.5,2.2
			c0.1,0.1,0.2,0.2,0.2,0.2c0,0.1-0.1,0.2-0.3,0.2h-6.7c2.1,0.7,2.5,0.9,2.5,1.1c0,0.2,0,0.2-1.3,0.3c-0.5,0.7-1.6,1.7-2.7,2.6h3.5
			c0.5-0.6,1.1-1.2,1.6-1.8c1.1,0.9,1.4,1.2,2.5,2.1c0.1,0.1,0.1,0.2,0.1,0.2c0,0.1-0.1,0.2-0.4,0.2h-8.2V48z M192.3,40.3
			c0.1,0.1,0.2,0.1,0.3,0.2c0.4,0.3,0.6,0.5,0.7,0.6c1,0.9,1.3,1.2,1.3,1.7c0,0.5-0.5,1.3-0.8,1.5h4.3c1-1.6,1.6-2.7,1.9-4H192.3z"
			/>
		<path class="st0" d="M194.5,74.9c0.5,2.5,1.6,4.8,3.2,7.3c1.5,2.3,3.7,4.4,6.2,5.9c1.4,0.9,2.3,1.3,4.4,2l-0.1,0.4
			c-1.3,0.1-1.7,0.4-2.5,2c-2.8-1.8-4.2-3.1-6-5.3c-2.9-3.5-5-8-5.7-12.5h-0.1c-0.6,4.3-2,7.8-4.3,10.7c-1.6,2.1-3.8,4-6.3,5.5
			c-1,0.6-1.7,1-3.4,1.7l-0.3-0.5c4.1-2.4,6.3-4.4,8.4-7.4c2-2.9,3.3-6.4,3.7-10h-8.4c-0.9,0-1.3,0-2.7,0.2l-0.2-1.2
			c1.2,0.2,1.9,0.3,3.1,0.3h8.3c0.1-1.8,0.3-4.5,0.3-6.2c0-0.8,0-1-0.1-1.9c3.2,0.3,3.2,0.3,3.5,0.4c0.2,0.1,0.3,0.2,0.3,0.4
			c0,0.3-0.3,0.5-1.4,0.9c-0.2,3.1-0.3,4.4-0.5,6.4h8.8c0.7-1,1-1.3,1.8-2.4c1.4,1,1.8,1.3,3,2.4c0.1,0.1,0.1,0.3,0.1,0.4
			c0,0.1-0.2,0.2-0.4,0.2H194.5z M191.2,84.9c1.7,0.8,3.1,1.6,4.4,2.6c0.7,0.6,1,1,1,1.8c0,0.5-0.2,1.1-0.5,1.6
			c-0.1,0.3-0.3,0.4-0.5,0.4c-0.3,0-0.3,0-0.9-1c-0.9-1.6-0.9-1.7-1.8-2.8c-0.8-1.1-1.1-1.5-2-2.3L191.2,84.9z"/>
		<path class="st0" d="M193.3,113.7c0.9,2.3,1.6,3.4,3.5,5.3c1.6-0.9,2.1-1.2,3.8-2.7c1.6-1.4,1.6-1.4,2.2-2.2
			c2.4,1.2,2.9,1.4,2.9,1.7c0,0.2-0.2,0.4-0.6,0.4c-0.1,0-0.2,0-0.4,0c-0.1,0-0.3,0-0.6,0c-0.3,0.2-0.3,0.2-2.1,1.2
			c-0.6,0.4-0.6,0.4-3.7,1.8c-0.2,0.1-0.3,0.1-0.9,0.4c0.8,0.7,1.5,1.2,2.9,1.8c2.2,1,4.2,1.6,7,2l-0.1,0.4
			c-1.5,0.4-1.6,0.6-2.4,2.2c-3.1-1.2-4.4-1.9-6-3c-2.5-1.8-4.4-4.2-5.5-7.1c-0.2-0.6-0.4-1-0.7-2h-5.1v8.3c3.4-0.7,4.6-1,7.2-1.8
			l0.1,0.4c-1.9,1-3.5,1.6-6.4,2.6c-3.5,1.2-3.9,1.3-5.2,1.8c-0.1,0.2-0.1,0.4-0.1,0.5c-0.1,0.6-0.2,0.8-0.4,0.8
			c-0.3,0-0.7-0.9-1.3-3.3c1.3-0.1,1.3-0.1,4.1-0.6v-16c0-1.8,0-3.7-0.1-4.7c1.1,0.6,1.4,0.8,2.4,1.4h4.9v-1.7
			c-0.1-1.3-0.1-2-0.2-2.2c2.7,0.2,3.6,0.4,3.6,0.8c0,0.3-0.3,0.4-1.3,0.8v2.4h5c0.4-0.6,0.6-0.8,1.1-1.4c0.9,0.6,1.1,0.8,2,1.6
			c0.2,0.1,0.2,0.2,0.2,0.3c0,0.2-0.3,0.5-1.1,1l0,4.9c0,3.5,0,3.5,0,4.4c0,0.6,0,0.6-1.7,0.7c-0.2,0-0.3-0.1-0.3-0.4v-0.5H193.3z
			 M200,107.9v-4.1h-12.5v4.1H200z M187.5,108.6v4.5H200v-4.5H187.5z"/>
		<path class="st0" d="M184.3,156v2c0,0.4-0.2,0.5-1.1,0.6c-0.3,0-0.4,0-0.6,0c0,0-0.1,0-0.1,0c-0.3,0-0.4-0.1-0.4-0.4
			c0.1-3.8,0.1-6.4,0.1-11c0-4.3,0-6.8-0.1-8.8c2.9,0.4,3.2,0.5,3.2,0.8c0,0.2-0.2,0.4-1.1,0.7v15.5h8.2v-19c0-0.9-0.1-2.7-0.1-3.5
			c2.8,0.3,2.9,0.4,3.3,0.5c0.2,0.1,0.3,0.2,0.3,0.3c0,0.2-0.2,0.3-1.3,0.7l0,21h8.7v-13.8c0-1.1-0.1-2-0.2-3.1
			c0.7,0.1,1.2,0.1,1.6,0.2c1.5,0.2,2,0.3,2,0.6s-0.3,0.5-1.2,0.8l-0.1,8.7c0,1.7,0,3.1,0.1,9.4c0,0.4-0.2,0.5-1.1,0.6
			c-0.2,0-0.4,0-0.5,0c0,0-0.1,0-0.1,0c-0.3,0-0.4-0.1-0.4-0.4V156H184.3z"/>
		<path class="st0" d="M188.2,175.4c-2.1,0.7-3.1,1.1-3.9,1.6c-0.4,0.3-0.6,0.3-0.9,0.3c-0.3,0-0.9-0.4-1.3-0.9
			c-0.5-0.7-1-1.7-1-2.3c0-0.1,0.1-0.4,0.2-0.7c0.6,1.3,1.2,1.6,2.3,1.6c0.7,0,2.7-0.4,5.1-1c0.7-1.7,1.2-3.9,1.2-4.9
			c0-0.9-0.6-1.4-2.3-2c0.4-0.2,0.5-0.3,0.9-0.3c0.4,0,1.2,0.2,2,0.4c1.3,0.4,2.1,0.9,2.1,1.6c0,0.2-0.1,0.4-0.4,0.9
			c-0.4,0.6-1,2-1.9,4.1c1.3-0.3,1.9-0.4,2.6-0.4c2.6,0,3.8,1.5,3.8,4.7c0,3.8-1.5,8.8-3.3,10.8c-0.7,0.8-1.9,1.3-2.9,1.3
			c-0.5,0-0.7-0.2-0.8-0.7c-0.1-0.8-0.1-0.9-3.3-3.5l0.3-0.4c2.3,1.3,4,2.1,4.6,2.1c0.7,0,1.2-0.6,1.9-2.5c1-2.5,1.8-5.8,1.8-8.1
			c0-2-0.5-2.7-2.1-2.7c-0.9,0-1.4,0.1-3.1,0.6c-0.4,1-0.4,1-1.7,4.1c-0.1,0.3-0.7,1.7-1.8,4.2c-1.2,2.8-2.2,5-2.7,5.8
			c-0.2,0.4-0.4,0.6-0.7,0.6c-0.5,0-0.9-0.8-0.9-2.1c0-0.8,0.1-1,0.7-1.7c0.6-0.7,1.3-1.9,2.2-3.5c1.1-2.2,1.1-2.2,2.4-5
			L188.2,175.4z M199.9,173.5c2.3,0.7,4.2,1.9,5.5,3.6c1.1,1.5,1.7,2.9,1.7,4.3c0,1-0.4,1.6-1.2,1.6c-0.2,0-0.4,0-0.7-0.2
			c-0.5-0.3-0.7-0.3-1.2-0.3c-1,0-1.2,0-3.7,0.3l-0.1-0.4c3-0.9,3.7-1.1,4.6-1.5c-0.1-1-0.4-1.9-0.9-2.9c-1-1.8-2.1-3-4.1-4
			L199.9,173.5z"/>
		<path class="st0" d="M190.1,198.9c1,1.4,1.8,2,3.8,2.6c0.6,0.2,1.5,0.4,2.2,0.6c0.5,0.1,0.9,0.3,1.2,0.8c0.4,0.5,0.7,1,0.7,1.3
			c0,0.4-0.3,0.6-0.7,0.6c-0.1,0-0.2,0-0.6-0.1c-0.5-0.1-0.8-0.1-1.5-0.1c-1.5,0-3.8,0.3-5.7,0.8c-0.8,0.2-1.2,0.3-1.4,0.5
			c-0.2,0.2-0.3,0.5-0.3,0.8c0,0.2,0.1,0.5,0.2,0.9c0.2,0.5,0.2,0.7,0.2,1c0,0.2,0,0.4-0.1,1c-0.2,1.6-0.4,4.1-0.5,6.1
			c3.6-2.4,7-3.7,9.8-3.7c3.4,0,5.7,1.9,5.7,4.7c0,2.8-2.2,5.1-5.9,6.4c-2,0.7-4,1-6.8,1.2l-0.1-0.5c3.5-0.6,5.5-1.3,7.5-2.7
			c2.1-1.5,3-3,3-4.9c0-2-1.4-3.3-3.6-3.3c-2.1,0-4.8,1.2-7.2,3.3c-0.8,0.7-1.2,1.1-1.6,1.9c-0.3,0.5-0.5,0.6-0.8,0.6
			c-0.4,0-0.8-0.3-1.3-1c-0.4-0.6-0.6-1.2-0.6-1.5c0,0,0.1-0.3,0.1-0.5c0.1-0.5,0.2-0.7,0.3-1.8c0.1-0.6,0.2-1.4,0.4-2.5
			c0.4-2.3,0.5-3.3,0.6-4c0-1,0.1-1.3,0.5-1.7c0.4-0.4,1.3-0.8,3.1-1.4c2.6-0.8,2.6-0.8,3.5-1.1c-1.2-0.5-2-1-2.7-1.7
			c-0.6-0.6-1-1.1-1.5-2.4L190.1,198.9z"/>
		<path class="st0" d="M180.3,237.9c3.7,1.6,4.8,2.3,4.8,3.4c0,0.8-0.5,1.8-1,1.8c-0.2,0-0.4-0.2-0.6-0.6c-0.4-0.8-0.6-1-1.3-2
			c-0.9-1.2-1.2-1.4-2.1-2.2L180.3,237.9z M180.7,248.9c1.1,0.3,1.5,0.4,1.8,0.4c0.3,0,0.5-0.3,1.1-1.6c0.3-0.8,0.9-2.1,1.7-3.9
			c0.9-1.9,1.3-2.9,3.1-6.9l0.5,0.3l-4.2,12.2c-0.1,0.4-0.3,1.3-0.3,1.4c0,0.5,0.1,0.8,0.5,2.3c0.2,0.7,0.3,1.5,0.3,2.2
			c0,1.3-0.8,2.3-1.9,2.3c-0.5,0-0.8-0.3-0.8-0.8c0-0.3,0-0.4,0.3-2c0.2-0.8,0.2-1.5,0.2-2.1c0-1.8-0.4-2.4-2.4-3.4L180.7,248.9z
			 M182.5,231.6c1.4,0.5,2.5,1.1,3.6,1.7c0.8,0.5,1.2,1,1.2,1.5c0,0.8-0.5,1.8-1,1.8c-0.2,0-0.3-0.1-1-1.1c-0.9-1.5-1.3-1.9-3-3.7
			L182.5,231.6z M198.1,246.7c-0.2,1.4-0.3,1.8-0.5,2.7h6.2c0.4-0.4,0.8-0.9,1.2-1.3c0.7,0.5,0.9,0.7,1.6,1.3
			c0.2,0.2,0.2,0.3,0.2,0.4c0,0.2-0.2,0.3-0.8,0.8c-0.7,6.4-0.9,6.8-4.6,7.4c-0.1-1-0.3-1.4-1.1-1.6c-0.8-0.3-1.9-0.5-3.4-0.6v-0.5
			c2.4,0.2,4.2,0.4,5.2,0.4c0.5,0,0.9-0.2,1.1-0.5c0.3-0.5,0.5-1.7,0.8-4.9h-6.8c-0.7,1.9-1.7,3.4-3.1,4.6c-1.9,1.7-4,2.4-8.7,3.4
			l-0.1-0.6c5.5-1.3,8.5-3.5,10-7.4h-6.1c-0.7,0-1.4,0.1-2.1,0.2l-0.2-1.1c0.9,0.2,1.3,0.2,2.3,0.2h6.3c0.2-0.8,0.3-1.2,0.5-2.7
			h-4.9v0.6c0,0.3-0.3,0.4-1.5,0.4c-0.3,0-0.4-0.1-0.4-0.4c0.1-3,0.1-3.3,0.1-4.2c0-2.6,0-4.8-0.1-6c0.9,0.5,1.1,0.7,2,1.3h6.6
			c-0.2-0.2-0.2-0.2-0.4-0.4c-1.2-1.3-2-2-4.2-3.2l0.1-0.3c2.3,0.6,3.7,1,5,1.6c1.6-1.4,1.9-1.6,3.1-2.9h-10c-1.1,0-1.6,0-2.5,0.2
			l-0.2-1c0.9,0.2,1.7,0.2,2.8,0.2h10.3c0.6-0.6,0.7-0.7,1.3-1.2c1,0.7,1.3,0.9,2.2,1.5c0.3,0.2,0.4,0.4,0.4,0.4s-0.1,0.2-0.2,0.2
			c-0.2,0.1-0.2,0.1-1.7,0.2c-1.9,1.3-2.6,1.7-4.9,2.8c0.2,0.3,0.2,0.4,0.2,0.7c0,0.5-0.2,0.9-0.5,1.2h4.9c0.5-0.6,0.5-0.6,1-1.3
			c0.8,0.6,0.8,0.6,1.6,1.1c0.2,0.2,0.3,0.3,0.3,0.4c0,0.2-0.1,0.3-0.9,0.9c0,1.1,0,1.6,0,2.5c0,1.1,0,1.2,0,5
			c0,0.2-0.1,0.3-0.2,0.4c-0.2,0.1-0.9,0.2-1.3,0.2c-0.3,0-0.4-0.1-0.4-0.3v-0.7H198.1z M196.2,239.2h-5v2.9h5V239.2z M191.2,242.8
			v3.2h5v-3.2H191.2z M203.7,242.2v-2.9h-5.7v2.9H203.7z M198.1,246.1h5.7v-3.2h-5.7V246.1z"/>
		<path class="st0" d="M184.2,269.9c1.4,1,2.4,1.4,4,1.4c1.4,0,3.6-0.4,4.9-0.9c-0.7-1.3-1.9-2.9-2.6-3.4c-0.4-0.3-1.2-0.5-2.3-0.6
			c0.2-0.5,0.4-0.6,1.2-0.8c0.5-0.1,0.8-0.1,1.4-0.1c1,0,1.8,0.1,2,0.4c0.3,0.2,0.3,0.3,0.4,1.2c0,0.6,0,0.6,1.2,3
			c2.8-1,3.5-1.4,4.3-2.2c0.2-0.2,0.5-0.3,1-0.3c1.2,0,1.8,0.3,1.8,0.8c0,0.4-0.4,0.7-1.9,1.3c-0.5,0.2-1.9,0.7-4.4,1.5
			c0.3,0.5,0.3,0.5,0.7,1.1c0.2,0.3,0.7,1.1,1.5,2.5c2.4-0.9,2.9-1.2,3.7-1.7c-0.6-0.7-0.8-0.8-1.6-1.4l0.2-0.3
			c1.1,0.6,1.9,0.8,2.5,0.8c0,0,0,0,0.5-0.1c0.1,0,0.2,0,0.2,0c0.5,0,0.8,0.3,0.8,0.8c0,0.7-1.7,1.6-5.8,3.1
			c0.9,1.6,1.1,1.9,1.3,2.3c0.7,1.2,0.7,1.2,1.4,2.4c0.4,0.6,0.5,1,0.5,1.6c0,1.2-0.4,2-1,2c-0.3,0-0.4-0.1-0.8-0.5
			c-1.5-1.2-4.3-2.1-7-2.1c-1.4,0-2.7,0.3-3.7,0.8c-1.2,0.6-1.8,1.4-1.8,2.4c0,1.9,2,2.9,5.7,2.9c1.5,0,2.3-0.1,3.8-0.4
			c0.1,0,0.3-0.1,0.4-0.1c0.9,0,2,0.8,2,1.6c0,0.2-0.1,0.5-0.4,0.6c-0.6,0.2-2.4,0.4-4.1,0.4c-2.3,0-4.4-0.3-5.8-0.9
			c-1.8-0.8-2.9-2.2-2.9-3.8c0-2.7,3.2-4.5,7.9-4.5c1.8,0,3.4,0.2,5.6,0.7c-0.3-1.2-1.1-3-2.2-5.1c-2,0.7-4.6,1.1-6.4,1.1
			c-1.3,0-2.2-0.3-3.1-0.9c-0.6-0.4-0.9-0.8-1.4-1.8l0.4-0.3c1,1.3,1.9,1.8,3.5,1.8c1.7,0,3.9-0.4,6.4-1.1c-0.6-1.2-1.4-2.5-2.1-3.6
			c-2,0.6-4,1-5.6,1c-1.6,0-3.1-0.7-4.4-2.2L184.2,269.9z"/>
		<path class="st0" d="M192.6,300.8c0-1.5,0-1.6-0.1-3.6c3.1,0.3,3.5,0.4,3.5,0.8c0,0.3-0.3,0.4-1.2,0.7v9.6h7.3V303
			c0-0.7,0-0.9-0.1-2.2c0-0.6,0-0.6-0.1-1.2c2.9,0.4,3.3,0.5,3.3,0.8c0,0.2-0.2,0.4-1,0.7c-0.1,3.8-0.1,3.8-0.1,4.7
			c0,1.1,0,2.2,0.1,4.4c0,0.4-0.1,0.5-0.3,0.5c-0.2,0-0.9,0.1-1.3,0.1c-0.4,0-0.5-0.1-0.5-0.5v-1.1h-7.3v12.3h8.6v-5.5
			c0-1.1-0.1-2.3-0.1-3.1c2.9,0.4,3.3,0.4,3.3,0.8c0,0.3-0.3,0.5-1,0.7c0,0.8,0,1.3,0,1.8c0,1.9,0,4.3,0.1,7.7
			c0,0.3-0.1,0.4-0.4,0.4c-0.4,0.1-0.8,0.1-1.2,0.1c-0.6,0-0.7-0.1-0.7-0.4V322h-19.1v1.7c0,0.3-0.1,0.4-0.4,0.5
			c-0.3,0-0.8,0.1-1.1,0.1c-0.5,0-0.7-0.1-0.7-0.5c0,0,0-0.1,0-0.1c0.1-2.5,0.2-3.6,0.2-6c0-2.2,0-3.4-0.1-5
			c3.4,0.5,3.4,0.5,3.4,0.8c0,0.3-0.1,0.3-1.2,0.7v7.1h8.3v-12.3h-7v1.1c0,0.3-0.1,0.4-0.3,0.5c-0.2,0.1-0.9,0.1-1.3,0.1
			c-0.4,0-0.5-0.1-0.5-0.5l0.1-4.4c0-3.5,0-5.5-0.1-6.3c2.1,0.2,3.1,0.3,3.4,0.5c0.1,0,0.1,0.2,0.1,0.3c0,0.3,0,0.3-1.3,0.8v7.3h7
			V300.8z"/>
		<path class="st0" d="M196.2,334.2c-1.2,0.4-4,1.5-6.1,2.4c-0.6,0.3-1,0.4-1.2,0.4c-0.5,0-1.1-0.4-1.7-1.3
			c-0.5-0.8-0.8-1.6-0.8-2.2c0-0.3,0.1-0.5,0.3-0.8c0.4,1.4,1.3,2.2,2.2,2.2c0.8,0,3.6-0.7,5.7-1.3c1.2-0.4,1.2-0.4,1.9-0.9
			c0.1-0.1,0.3-0.1,0.4-0.1c0.4,0,0.9,0.3,1.6,1c0.7,0.7,0.9,1,0.9,1.3c0,0.2-0.2,0.4-0.5,0.6c-0.9,0.5-1.2,0.7-2.5,2
			c-1.9,1.9-3,3-4.4,4.5c-2.9,3.1-2.9,3.1-3.5,3.7l0.1,0.1c3.2-2,5.6-2.8,8.2-2.8c3.8,0,6.4,2.3,6.4,5.6c0,4.3-4,7.5-9.4,7.5
			c-2.9,0-4.8-1.2-4.8-3c0-1.5,1.4-2.6,3.2-2.6c1.5,0,2.8,0.5,3.8,1.5c0.5,0.5,0.9,1,1.3,1.9c2.3-1,3.6-3.1,3.6-5.6
			c0-1.7-0.7-3-1.9-3.7c-0.6-0.4-1.8-0.6-3-0.6c-2.9,0-7,2.4-9.5,5.6c-0.5,0.6-0.7,0.8-1,0.8c-0.4,0-1-1.1-1-2c0-0.4,0.2-0.7,0.6-1
			c1.1-0.9,1.6-1.3,4.2-4.2c3.7-4.1,4.8-5.4,7.2-8.5c0.2-0.3,0.2-0.3,0.3-0.5c0,0-0.1-0.1-0.1-0.1c0,0,0,0,0,0c0,0,0,0-0.1,0
			c0,0-0.1,0-0.1,0.1L196.2,334.2z M191.6,351.4c-1.1,0-1.9,0.6-1.9,1.5c0,1.1,1.3,1.8,3.4,1.8c0.8,0,1.2-0.1,2.1-0.3
			C194.7,352.6,193.3,351.4,191.6,351.4z"/>
		<path class="st0" d="M146.7,11.7V4.5h-14.9V3.2H148v8.5H146.7z"/>
		<path class="st0" d="M134.6,36c1.2,1.9,2.2,2.8,4,3.8c2.5,1.4,4.8,2,9.3,2.3v0.4c-1.2,0.4-1.7,0.9-2.1,2.2
			c-2.8-0.6-4.4-1.2-6.4-2.4c-2.4-1.5-4-3.3-5.5-6.1c-0.6,1.8-1.5,3.2-2.8,4.5c-2.5,2.3-5.9,3.7-10.8,4.3l-0.1-0.4
			c3.3-0.8,6-1.9,8.1-3.7c1.7-1.5,2.8-2.9,3.4-4.9h-7.6c-1,0-1.5,0-2.9,0.2l-0.3-1.2c1,0.2,2.4,0.3,3.2,0.3h7.9
			c0.2-1,0.3-1.6,0.3-2.3c0-0.2,0-0.5-0.1-0.9c2.8,0.4,3.3,0.6,3.3,0.9c0,0.3-0.3,0.5-1,0.5c-0.1,0.9-0.1,1.2-0.3,1.8h8.5
			c0.7-0.8,0.9-1.1,1.6-1.9c1.2,0.8,1.5,1.1,2.6,2.1c0.1,0.1,0.2,0.3,0.2,0.3c0,0.1-0.1,0.2-0.1,0.2h-0.3H134.6z M135.5,22.3
			c0.8-1.1,2.1-3.4,2.5-4.6c2.6,0.8,3.2,1,3.2,1.3c0,0.3-0.4,0.4-1.5,0.5c-1,1-2.3,2.1-3.4,2.8h5.8c0.7-0.8,0.9-1.1,1.7-1.8
			c1.1,0.9,1.4,1.1,2.5,2.1c0.1,0.1,0.1,0.2,0.1,0.3c0,0.1-0.2,0.2-0.4,0.2h-11.7v3.7h5.9c0.7-0.8,0.9-1.1,1.6-1.8
			c1.1,0.9,1.4,1.1,2.5,2c0.1,0.1,0.2,0.2,0.2,0.2c0,0.1-0.2,0.2-0.4,0.2h-9.7V31h8.6c0.5-0.6,1-1.2,1.6-1.8c1.1,0.8,1.5,1.1,2.5,2
			c0.2,0.1,0.2,0.2,0.2,0.3c0,0.1-0.2,0.2-0.4,0.2h-23.5l-1.6,0.1c-0.6,0-0.6,0-1.2,0.1l-0.2-1.2c1.1,0.2,1.9,0.3,3.1,0.3h8.9v-3.6
			h-5.7c-1.3,0-1.8,0-2.6,0.2l-0.2-1.1c0.9,0.2,1.8,0.3,2.8,0.3h5.7V23h-7.5c-2.1,0.1-2.1,0.1-2.8,0.1L122,22
			c0.7,0.2,2.1,0.3,2.8,0.3h4.8c-0.1-0.2-0.1-0.2-0.4-0.9c-0.4-1.1-1.3-2.3-2.3-3.4l0.3-0.3c1.2,0.5,2,1,2.8,1.6
			c0.7,0.6,1,0.9,1,1.5c0,0.5-0.2,1-0.6,1.5H135.5z"/>
		<path class="st0" d="M120.3,77.3c2.8-1.9,4.2-3.3,5.7-5.3c2.7-3.6,4.5-7.6,5.4-12.2c0.4-2.3,0.7-4.5,0.7-6.4c0-0.6,0-0.9-0.1-1.7
			c3.3,0.4,3.6,0.5,3.6,0.8c0,0.2-0.1,0.3-1.3,0.8c0,0.4,0,0.7,0,0.9c0,4.4,1.6,9.5,4.2,13.2c1.6,2.3,3.7,4.3,6.1,5.8
			c1.1,0.7,1.8,1,3.4,1.7l0,0.4c-0.1,0-0.2,0-0.2,0c-0.7,0-1.2,0.2-1.5,0.6c-0.3,0.3-0.4,0.6-0.9,1.5c-3-1.9-5.3-4.2-7.2-7.3
			c-1.4-2.2-2.7-5.4-3.5-8.4c-0.4-1.3-0.5-2.3-0.7-4.4c-0.9,5.6-2.3,9.4-4.8,13c-2.3,3.3-4.8,5.3-8.8,7.4L120.3,77.3z"/>
		<path class="st0" d="M133.6,108.5c3.2-1,5.3-2.2,7-4.2c1.8-2,2.7-4.5,2.7-7.2c0-2.9-1.2-5.2-3.4-6.6c-1.3-0.9-3.3-1.4-5.2-1.4
			c-0.4,0-0.6,0-1,0.1c0.7,1,0.9,1.6,0.9,2.5c0,2.3-1.7,6.7-4,10.4c-1.9,3-3.4,4.5-4.5,4.5c-0.5,0-1-0.2-1.3-0.6
			c-0.3-0.4-0.3-0.5-0.8-1.9c-0.3-0.8-0.4-1.1-1.3-2.8c-0.5-1-0.7-1.8-0.7-2.7c0-1.9,1-4.1,2.7-5.9c2.4-2.6,6.4-4.2,10.3-4.2
			c3,0,5.8,1,7.7,2.8c1.9,1.8,2.9,4.1,2.9,7c0,3.8-2.2,7.1-6,9.1c-1.7,0.9-3.3,1.4-5.8,1.9L133.6,108.5z M123.7,99.2
			c0,1.4,0.4,2.9,1.2,4c0.4,0.5,0.8,0.9,1.1,0.9c0.7,0,2.1-1.6,3.6-4c2.2-3.5,3.8-7.4,3.8-9.3c0-0.5-0.1-0.8-0.4-1.5
			C127.8,90.2,123.7,94.5,123.7,99.2z"/>
		<path class="st0" d="M120.2,124.1c3.5,1.3,4.6,2.1,4.6,3.3c0,0.9-0.5,1.8-1,1.8c-0.3,0-0.4-0.2-0.7-0.7c-0.7-1.5-1.6-2.7-3.1-4.1
			L120.2,124.1z M120.5,135.1c0.8,0.1,1.5,0.3,1.7,0.3c0.5,0,0.6-0.2,1.9-2.9c1-2,1.4-3.1,2.8-6.3c1.1-2.5,1.1-2.5,1.5-3.4l0.4,0.2
			l-4.3,12.8c-0.4,0.9-0.4,1-0.4,1.3c0,0.6,0.1,1,0.6,2.6c0.2,0.7,0.3,1.1,0.3,1.7c0,0.7-0.2,1.3-0.6,1.8c-0.4,0.5-1,0.8-1.6,0.8
			c-0.4,0-0.7-0.2-0.7-0.7c0-0.4,0-0.4,0.2-1.8c0.1-0.9,0.2-2,0.2-2.8c0-1-0.1-1.5-0.5-2c-0.3-0.4-0.7-0.6-1.8-1L120.5,135.1z
			 M122.2,117.6c1.8,0.6,2.9,1.2,3.9,2c0.6,0.5,0.9,0.9,0.9,1.4c0,0.9-0.4,1.8-0.9,1.8c-0.3,0-0.5-0.2-0.9-0.9
			c-0.9-1.6-1.5-2.4-3.1-4L122.2,117.6z M142.4,133.9c-1.5,2.5-2.1,3.4-3.4,4.7c-1.2,1.2-3.1,2.7-4.9,3.7c-1,0.5-1.7,0.9-3.5,1.5
			l-0.2-0.4c3.1-1.9,4.7-3.1,6.7-5.3c1.4-1.5,2.1-2.4,3.2-4.3h-2.9c-1.4,1.8-1.9,2.3-2.9,3.4c-2.3,2.2-4,3.3-7.2,4.7l-0.2-0.4
			c3.3-2.1,4.9-3.5,6.6-5.6c0.6-0.7,0.7-1,1.5-2.2h-2.9c-2.1,2.4-3.6,3.5-6.7,5.1l-0.2-0.4c2.6-1.9,4-3.4,5.7-5.8
			c0.5-0.8,0.8-1.2,1.4-2.4h-3.7c-0.4,0-1,0.1-1.4,0.2l-0.2-1.1c0.7,0.2,1.1,0.3,1.6,0.3h14.8c0.7-0.8,0.9-1.1,1.6-1.8
			c1.1,0.8,1.4,1.1,2.5,2c0.1,0.1,0.1,0.2,0.1,0.3c0,0.1-0.1,0.2-0.3,0.2h-12.8c-0.8,1.4-1.1,1.9-1.8,2.8h11.1
			c0.4-0.5,0.6-0.7,1.1-1.2c0.7,0.6,1,0.8,1.6,1.3c0.2,0.2,0.3,0.3,0.3,0.4c0,0.2-0.2,0.3-1,0.7c-0.4,3.9-1,6.3-1.6,7.7
			c-0.6,1.2-1.6,1.8-3.5,2c-0.2-0.9-0.3-1.2-0.8-1.5c-0.7-0.4-1.5-0.7-2.7-1l0.1-0.4c0.8,0.1,0.8,0.1,2.3,0.3c0.3,0.1,1.7,0.1,2,0.1
			c0.6,0,0.9-0.2,1.2-1.1c0.5-1.3,0.9-4,1.1-6.8H142.4z M132.7,128.2c0,0.4-0.2,0.5-1.3,0.5c-0.5,0-0.7-0.1-0.7-0.4c0,0,0-0.1,0-0.1
			c0.1-4.1,0.1-4.1,0.1-6.2c0-3.2,0-3.4-0.1-4.7c0.9,0.5,1.2,0.7,2.1,1.3h8.3c0.5-0.5,0.6-0.7,1.1-1.2c0.7,0.5,0.9,0.7,1.6,1.2
			c0.2,0.2,0.3,0.3,0.3,0.4c0,0.2-0.1,0.3-0.9,0.8c0,5,0,6,0.1,8.1c0,0.2-0.1,0.3-0.2,0.4c-0.2,0.1-0.9,0.2-1.3,0.2
			c-0.4,0-0.5-0.1-0.5-0.5v-0.8h-8.7V128.2z M141.4,119.4h-8.7v3.3h8.7V119.4z M132.7,123.4v3.3h8.7v-3.3H132.7z"/>
		<path class="st0" d="M121,150.7v7.2h14.9v1.3h-16.2v-8.5H121z"/>
		<path class="st0" d="M129.4,184.4c0.9,0,2.3,0.3,3,0.6c0.6,0.2,0.8,0.5,0.8,1c0,0,0,0.1,0,0.1c0,0.2,0,0.2-0.2,0.8
			c-0.4,1-0.7,3.6-0.7,6.1c0,1.8,0.2,2.2,1.2,2.2c0.6,0,1.3-0.2,4-1.5c0.5-0.3,0.9-0.4,1.2-0.4c0.7,0,1.4,0.6,1.4,1.3
			c0,0.4-0.2,0.7-0.6,0.9c-0.2,0.1-0.6,0.2-2,0.6c-3.6,1-5.6,1.9-7.5,3.4c-1.6,1.3-2.3,2.4-2.3,3.8c0,2.2,1.7,3.3,5,3.3
			c1.9,0,4.8-0.4,7-0.9c0.3-0.1,0.4-0.1,0.6-0.1c0.8,0,1.6,0.7,1.6,1.5c0,0.5-0.3,0.8-1.3,1c-1,0.2-4,0.4-5.8,0.4
			c-2.2,0-3.8-0.2-5.1-0.7c-2-0.8-3.3-2.5-3.3-4.4c0-1.7,1-3.4,2.9-5c0.9-0.8,1.9-1.4,3.7-2.4c-0.7,0-0.9-0.1-1.4-0.4
			c-0.4-0.3-0.7-1-0.9-2.3c-0.1-0.7-0.1-1.4-0.2-3.6c-0.1-2.6-0.1-3-0.4-3.4c-0.3-0.6-0.9-0.9-2.2-1.1
			C128.6,184.5,128.8,184.4,129.4,184.4z"/>
		<path class="st0" d="M144,235.7c-2.9,3.9-6.8,6.2-10.5,6.2c-2.3,0-4-0.9-5-2.6c-0.6-1-0.8-2.5-0.8-5.1c0-1.7,0.1-4.5,0.2-7.2
			c0.2-3.2,0.2-4.1,0.2-5.2c0-2.6-0.3-3.1-2.4-4c0.3-0.2,0.5-0.3,0.8-0.3c0.7,0,1.8,0.3,2.7,0.7c1.1,0.5,1.7,1.1,1.7,1.8
			c0,0.2,0,0.4-0.3,1.1c-0.6,1.8-1.6,10.9-1.6,14.4c0,1.8,0.4,2.9,1.2,3.6c0.7,0.5,1.6,0.8,2.7,0.8c2,0,4.6-0.7,6.8-1.9
			c1.4-0.7,2.2-1.3,3.8-2.7L144,235.7z"/>
		<path class="st0" d="M123,256.1c0.4,0.4,0.7,0.5,1.3,0.5c0.8,0,1.6-0.1,8.3-1.8c1.3-0.3,2.9-0.7,4.9-1c2.3-0.5,3.1-0.7,4-1
			c0.6-0.2,0.8-0.2,1-0.2c0.4,0,1,0.3,1.6,0.6c0.6,0.4,0.9,0.7,0.9,1.1c0,0.5-0.4,0.8-0.9,0.8c-0.1,0-0.3,0-0.5,0
			c-0.4-0.1-0.5-0.1-0.8-0.1c-5.1,0-10.1,4.9-10.1,9.9c0,2.8,1.4,4.8,4,5.9c1,0.4,2.2,0.7,3.1,0.7c0.6,0,0.8,0.1,1.3,0.5
			c0.5,0.5,0.9,1.1,0.9,1.4c0,0.5-0.4,0.8-1.1,0.8c-1.7,0-4.4-1-6.1-2.2c-2.3-1.6-3.5-3.9-3.5-6.7c0-2.4,1.2-5.1,3.3-7.3
			c1.2-1.3,2.4-2.1,4.9-3.4c-2.7,0.4-5.2,1-8.6,2.1c-1.9,0.6-3.8,1.4-4.8,1.9c-0.6,0.4-0.8,0.4-1.2,0.4c-0.7,0-1.6-0.7-2.3-1.8
			c-0.5-0.7-0.8-1.5-0.8-2c0-0.2,0.1-0.4,0.3-0.8C122.3,255.3,122.5,255.7,123,256.1z"/>
		<path class="st0" d="M69.3,6.2c-0.1,3.9-0.1,4.3-0.3,6.7h2c0.7-0.8,0.9-1.1,1.6-1.9c1.1,0.9,1.4,1.2,2.4,2.1
			c0.1,0.1,0.1,0.2,0.1,0.2c0,0.1-0.1,0.2-0.3,0.2H69c-0.1,1.4-0.3,2.2-0.6,3.4c0.2,0.1,0.2,0.1,0.6,0.3c2.4,1.3,4.3,2.6,5,3.4
			c0.4,0.4,0.5,0.9,0.5,1.4c0,1.1-0.4,2-0.9,2c-0.2,0-0.3-0.1-0.5-0.5c-0.8-1.6-1.5-2.6-2.7-3.9c-0.9-1.1-1.7-1.8-2.2-2.3
			c-0.5,1.7-1.2,3-2.1,4.4c-1.4,2-3,3.3-5.5,4.6l-0.3-0.4c2.3-1.7,3.7-3.3,4.8-5.6c1-2,1.5-4.1,1.8-6.9h-4.3c-0.6,0-1,0-1.9,0.1
			l-0.3-1c1,0.2,1.5,0.2,2.5,0.2h4c0.2-2.4,0.2-3,0.2-6.7h-2.5C63.2,9,62.6,9.8,61,11.3L60.7,11c1.5-2.1,2.5-4.1,3.5-7.2
			c0.5-1.5,0.7-2.4,1-3.7c2.7,0.5,3.3,0.7,3.3,1c0,0.3-0.3,0.4-1.3,0.5c-0.7,1.6-1,2.4-1.9,3.9h5.7c0.6-0.8,0.8-1.1,1.5-1.9
			c1.1,0.9,1.4,1.2,2.4,2.1C74.9,5.9,75,6,75,6c0,0.1-0.1,0.2-0.2,0.2H69.3z M83.8,5.1c0.4-0.6,0.6-0.8,1.1-1.4
			c0.8,0.6,1,0.8,1.7,1.4c0.2,0.1,0.3,0.3,0.3,0.4c0,0.2-0.2,0.3-0.9,0.8v10.4c0,0.1,0.1,4.7,0.1,7.8c-0.1,0.5-0.4,0.6-1.5,0.6
			c-0.5,0-0.6-0.1-0.6-0.4v-1.5h-6v2c-0.1,0.4-0.3,0.5-1.3,0.5c-0.6,0-0.7-0.1-0.8-0.4C76,22.1,76,19.9,76,15.1
			c0-7.8,0-10.3-0.1-11.4c1.1,0.6,1.4,0.8,2.4,1.4H83.8z M78,22.4h6V5.8h-6V22.4z"/>
		<path class="st0" d="M70.2,33.8c1,1.4,1.8,2,3.8,2.6c0.6,0.2,1.5,0.4,2.2,0.6c0.5,0.1,0.9,0.3,1.2,0.8c0.4,0.5,0.7,1,0.7,1.3
			c0,0.4-0.3,0.6-0.7,0.6c-0.1,0-0.2,0-0.6-0.1c-0.5-0.1-0.8-0.1-1.5-0.1c-1.5,0-3.8,0.3-5.7,0.8c-0.8,0.2-1.2,0.3-1.4,0.5
			c-0.2,0.2-0.3,0.5-0.3,0.8c0,0.2,0.1,0.5,0.2,0.9c0.2,0.5,0.2,0.7,0.2,1c0,0.2,0,0.4-0.1,1c-0.2,1.6-0.4,4.1-0.5,6.1
			c3.6-2.4,7-3.7,9.8-3.7c3.4,0,5.7,1.9,5.7,4.7c0,2.8-2.2,5.1-5.9,6.4c-2,0.7-4,1-6.8,1.2l-0.1-0.5c3.5-0.6,5.5-1.3,7.5-2.7
			c2.1-1.5,3-3,3-4.9c0-2-1.4-3.3-3.6-3.3c-2.1,0-4.8,1.2-7.2,3.3c-0.8,0.7-1.2,1.1-1.6,1.9c-0.3,0.5-0.5,0.6-0.8,0.6
			c-0.4,0-0.8-0.3-1.3-1c-0.4-0.6-0.6-1.2-0.6-1.5c0,0,0.1-0.3,0.1-0.5c0.1-0.5,0.2-0.7,0.3-1.8c0.1-0.6,0.2-1.4,0.4-2.5
			c0.4-2.3,0.5-3.3,0.6-4c0-1,0.1-1.3,0.5-1.7c0.4-0.4,1.3-0.8,3.1-1.4c2.6-0.8,2.6-0.8,3.5-1.1c-1.2-0.5-2-1-2.7-1.7
			c-0.6-0.6-1-1.1-1.5-2.4L70.2,33.8z"/>
		<path class="st0" d="M67.3,77.3c0-0.5,0-0.5,0.1-1.3c0.1-0.6,0.1-0.6,0.1-1c-0.9,0.6-2.5,1.7-3,2.1c-0.6,0.4-0.7,0.5-1,0.5
			c-0.8,0-2.2-1.8-2.2-2.7c0-0.1,0-0.3,0.1-0.5c0.7,1,1.3,1.4,1.9,1.4c0.6,0,2.5-0.8,4.3-1.8c0.1-1.3,0.2-2.1,0.2-3.2
			c0-1.7-0.3-2.3-1.7-3.3c0.2-0.1,0.2-0.1,0.4-0.1c0.5,0,1.1,0.3,1.9,0.8c1,0.7,1.6,1.4,1.6,2c0,0.3,0,0.3-0.3,1.2
			c-0.2,0.6-0.4,1.5-0.5,2.4c0.7,0.7,0.9,0.9,0.9,1.2c0,0.2,0,0.2-0.4,0.9c-0.4,0.7-0.7,1.2-1,2c-0.1,0.5-0.1,0.6-0.1,1.1
			c2.9-2.8,3.9-3.7,5.2-4.6c2.1-1.5,3.5-2.1,4.8-2.1c0.9,0,1.8,0.4,2.4,1.1c0.6,0.7,0.8,1.5,0.8,2.6c0,1.1,0,1.4-0.6,4.4
			c-0.4,2-0.5,3.7-0.5,4.9c0,1.2,0.2,1.8,0.7,2.2c0.4,0.3,1,0.4,1.5,0.4c1.5,0,3.6-0.8,5.6-2.1l0.2,0.4c-2.2,2.2-4.5,3.5-6.6,3.5
			c-2.3,0-3.5-1.5-3.5-4.2c0-1.1,0.3-3,0.7-5.3c0.7-3.2,0.7-3.6,0.7-4.7c0-1.5-0.7-2.3-1.8-2.3c-1.3,0-2.8,0.9-5.2,3
			c-1.6,1.4-3,2.8-4.6,4.7c0,0.7,0,1.1,0,1.6c0,1.6,0.1,3.1,0.3,5.4c0.1,0.7,0.1,1,0.1,1.4c0,1.7-0.6,3.1-1.3,3.1
			c-0.3,0-0.6-0.2-0.7-0.8c-0.1-0.3-0.4-1.2-0.5-1.4c-0.3-0.6-1.3-1.8-2.6-3.3c-0.6,1.4-0.7,1.6-1,1.6c-0.3,0-0.5-0.2-0.7-0.7
			c-0.2-0.5-0.3-1.2-0.3-1.7c0-0.4,0-0.4,0.5-0.9c0.5-0.5,1-1.1,1.9-2.7L67.3,77.3z M65.4,82.9c-0.7,1.3-1,2-1.6,3.2
			c1.8,1.5,2.3,1.9,3.2,2.4c0.1-1.1,0.1-1.1,0.1-5.6c0-1.5,0-2.2,0.1-3.4C66.8,80.4,66.8,80.4,65.4,82.9z"/>
		<path class="st0" d="M76.4,103.2c-1.2,0.4-4,1.5-6.1,2.4c-0.6,0.3-1,0.4-1.2,0.4c-0.5,0-1.1-0.4-1.7-1.3c-0.5-0.8-0.8-1.6-0.8-2.2
			c0-0.3,0.1-0.5,0.3-0.8c0.4,1.4,1.3,2.2,2.2,2.2c0.8,0,3.6-0.7,5.7-1.3c1.2-0.4,1.2-0.4,1.9-0.9c0.1-0.1,0.3-0.1,0.4-0.1
			c0.4,0,0.9,0.3,1.6,1c0.7,0.7,0.9,1,0.9,1.3c0,0.2-0.2,0.4-0.5,0.6c-0.9,0.5-1.2,0.7-2.5,2c-1.9,1.9-3,3-4.4,4.5
			c-2.9,3.1-2.9,3.1-3.5,3.7l0.1,0.1c3.2-2,5.6-2.8,8.2-2.8c3.8,0,6.4,2.3,6.4,5.6c0,4.3-4,7.5-9.4,7.5c-2.9,0-4.8-1.2-4.8-3
			c0-1.5,1.4-2.6,3.2-2.6c1.5,0,2.8,0.5,3.8,1.5c0.5,0.5,0.9,1,1.3,1.9c2.3-1,3.6-3.1,3.6-5.6c0-1.7-0.7-3-1.9-3.7
			c-0.6-0.4-1.8-0.6-3-0.6c-2.9,0-7,2.4-9.5,5.6c-0.5,0.6-0.7,0.8-1,0.8c-0.4,0-1-1.1-1-2c0-0.4,0.2-0.7,0.6-1
			c1.1-0.9,1.6-1.3,4.2-4.2c3.7-4.1,4.8-5.4,7.2-8.5c0.2-0.3,0.2-0.3,0.3-0.5c0,0-0.1-0.1-0.1-0.1c0,0,0,0,0,0c0,0,0,0-0.1,0
			c0,0-0.1,0-0.1,0.1L76.4,103.2z M71.7,120.4c-1.1,0-1.9,0.6-1.9,1.5c0,1.1,1.3,1.8,3.4,1.8c0.8,0,1.2-0.1,2.1-0.3
			C74.8,121.5,73.4,120.4,71.7,120.4z"/>
		<path class="st0" d="M83,139.4c0.8-1,1-1.4,1.8-2.3c1.4,1,1.8,1.4,3,2.5c0.1,0.1,0.1,0.2,0.1,0.3c0,0.1-0.1,0.2-0.3,0.2H74.9v7
			h5.5c0.6-0.7,0.8-0.9,1.3-1.5c0.9,0.6,1.1,0.8,1.9,1.4c0.2,0.1,0.3,0.3,0.3,0.4c0,0.2-0.2,0.4-1.1,0.9c0,2,0,3.5,0,4.6
			c0,2.6,0,4.1,0.1,5.8c0,0.3-0.4,0.4-1.6,0.4c-0.5,0-0.7,0-0.7-0.3v-1.9H66.9v1.9c0,0.4-0.4,0.5-1.6,0.5c-0.5,0-0.7-0.1-0.7-0.3
			c0.1-2.1,0.1-3.1,0.1-8.2c0-2.3,0-2.5-0.1-5.3c1.2,0.6,1.5,0.8,2.6,1.6h5.5v-7h-9.1c-1.4,0-1.9,0-2.7,0.2l-0.2-1.2
			c0.8,0.2,1.5,0.3,2.8,0.3h9.1v-3.8c0-1.7,0-2.3-0.1-3.7c0.7,0.1,1.3,0.1,1.6,0.1c1.7,0.2,2.1,0.2,2.1,0.6c0,0.3-0.3,0.4-1.4,0.8
			v5.9H83z M66.9,156.2h13.8v-8.4H66.9V156.2z"/>
		<path class="st0" d="M73.7,189.5c3.2-1,5.3-2.2,7-4.2c1.8-2,2.7-4.5,2.7-7.2c0-2.9-1.2-5.2-3.4-6.6c-1.3-0.9-3.3-1.4-5.2-1.4
			c-0.4,0-0.6,0-1,0.1c0.7,1,0.9,1.6,0.9,2.5c0,2.3-1.7,6.7-4,10.4c-1.9,3-3.4,4.5-4.5,4.5c-0.5,0-1-0.2-1.3-0.6
			c-0.3-0.4-0.3-0.5-0.8-1.9c-0.3-0.8-0.4-1.1-1.3-2.8c-0.5-1-0.7-1.8-0.7-2.7c0-1.9,1-4.1,2.7-5.9c2.4-2.6,6.4-4.2,10.3-4.2
			c3,0,5.8,1,7.7,2.8c1.9,1.8,2.9,4.1,2.9,7c0,3.8-2.2,7.1-6,9.1c-1.7,0.9-3.3,1.4-5.8,1.9L73.7,189.5z M63.8,180.2
			c0,1.4,0.4,2.9,1.2,4c0.4,0.5,0.8,0.9,1.1,0.9c0.7,0,2.1-1.6,3.6-4c2.2-3.5,3.8-7.4,3.8-9.3c0-0.5-0.1-0.8-0.4-1.5
			C67.9,171.2,63.8,175.6,63.8,180.2z"/>
		<path class="st0" d="M60.3,205.1c3.5,1.3,4.6,2.1,4.6,3.3c0,0.9-0.5,1.8-1,1.8c-0.3,0-0.4-0.2-0.7-0.7c-0.7-1.5-1.6-2.7-3.1-4.1
			L60.3,205.1z M60.5,216.1c0.8,0.1,1.5,0.3,1.7,0.3c0.5,0,0.6-0.2,1.9-2.9c1-2,1.4-3.1,2.8-6.3c1.1-2.5,1.1-2.5,1.5-3.4l0.4,0.2
			l-4.3,12.8c-0.4,0.9-0.4,1-0.4,1.3c0,0.6,0.1,1,0.6,2.6c0.2,0.7,0.3,1.1,0.3,1.7c0,0.7-0.2,1.3-0.6,1.8c-0.4,0.5-1,0.8-1.6,0.8
			c-0.4,0-0.7-0.2-0.7-0.7c0-0.4,0-0.4,0.2-1.8c0.1-0.9,0.2-2,0.2-2.8c0-1-0.1-1.5-0.5-2c-0.3-0.4-0.7-0.6-1.8-1L60.5,216.1z
			 M62.2,198.7c1.8,0.6,2.9,1.2,3.9,2c0.6,0.5,0.9,0.9,0.9,1.4c0,0.9-0.4,1.8-0.9,1.8c-0.3,0-0.5-0.2-0.9-0.9
			c-0.9-1.6-1.5-2.4-3.1-4L62.2,198.7z M82.4,214.9c-1.5,2.5-2.1,3.4-3.4,4.7c-1.2,1.2-3.1,2.7-4.9,3.7c-1,0.5-1.7,0.9-3.5,1.5
			l-0.2-0.4c3.1-1.9,4.7-3.1,6.7-5.3c1.4-1.5,2.1-2.4,3.2-4.3h-2.9c-1.4,1.8-1.9,2.3-2.9,3.4c-2.3,2.2-4,3.3-7.2,4.7l-0.2-0.4
			c3.3-2.1,4.9-3.5,6.6-5.6c0.6-0.7,0.7-1,1.5-2.2h-2.9c-2.1,2.4-3.6,3.5-6.7,5.1l-0.2-0.4c2.6-1.9,4-3.4,5.7-5.8
			c0.5-0.8,0.8-1.2,1.4-2.4h-3.7c-0.4,0-1,0.1-1.4,0.2l-0.2-1.1c0.7,0.2,1.1,0.3,1.6,0.3h14.8c0.7-0.8,0.9-1.1,1.6-1.8
			c1.1,0.8,1.4,1.1,2.5,2c0.1,0.1,0.1,0.2,0.1,0.3c0,0.1-0.1,0.2-0.3,0.2H74.6c-0.8,1.4-1.1,1.9-1.8,2.8h11.1
			c0.4-0.5,0.6-0.7,1.1-1.2c0.7,0.6,1,0.8,1.6,1.3c0.2,0.2,0.3,0.3,0.3,0.4c0,0.2-0.2,0.3-1,0.7c-0.4,3.9-1,6.3-1.6,7.7
			c-0.6,1.2-1.6,1.8-3.5,2c-0.2-0.9-0.3-1.2-0.8-1.5c-0.7-0.4-1.5-0.7-2.7-1l0.1-0.4c0.8,0.1,0.8,0.1,2.3,0.3c0.3,0.1,1.7,0.1,2,0.1
			c0.6,0,0.9-0.2,1.2-1.1c0.5-1.3,0.9-4,1.1-6.8H82.4z M72.7,209.2c0,0.4-0.2,0.5-1.3,0.5c-0.5,0-0.7-0.1-0.7-0.4c0,0,0-0.1,0-0.1
			c0.1-4.1,0.1-4.1,0.1-6.2c0-3.2,0-3.4-0.1-4.7c0.9,0.5,1.2,0.7,2.1,1.3h8.3c0.5-0.5,0.6-0.7,1.1-1.2c0.7,0.5,0.9,0.7,1.6,1.2
			c0.2,0.2,0.3,0.3,0.3,0.4c0,0.2-0.1,0.3-0.9,0.8c0,5,0,6,0.1,8.1c0,0.2-0.1,0.3-0.2,0.4c-0.2,0.1-0.9,0.2-1.3,0.2
			c-0.4,0-0.5-0.1-0.5-0.5v-0.8h-8.7V209.2z M81.4,200.5h-8.7v3.3h8.7V200.5z M72.7,204.4v3.3h8.7v-3.3H72.7z"/>
		<path class="st0" d="M88.1,235.3c0,2.1-1.7,3.9-3.9,3.9s-3.9-1.7-3.9-3.9c0-2.1,1.7-3.9,3.9-3.9C86.4,231.5,88.1,233.2,88.1,235.3
			z M81.3,235.3c0,1.6,1.3,2.9,2.9,2.9c1.6,0,2.9-1.3,2.9-2.9c0-1.6-1.3-2.9-2.9-2.9C82.6,232.4,81.3,233.7,81.3,235.3z"/>
		<path class="st0" d="M0.3,7.3c3.4,1.1,4.6,1.9,4.6,3c0,0.9-0.4,1.8-0.9,1.8c-0.2,0-0.4-0.1-0.6-0.5c-0.8-1.4-1.8-2.6-3.3-3.9
			L0.3,7.3z M23.7,9c0.7-0.9,1-1.1,1.7-1.9C26.5,8,26.9,8.2,28,9.2c0.1,0.1,0.1,0.2,0.1,0.3c0,0.1-0.1,0.2-0.3,0.2h-10v3h6
			c0.4-0.4,0.7-0.7,1-1.1c0.8,0.5,1,0.7,1.7,1.2c0.2,0.2,0.2,0.3,0.2,0.4c0,0.2-0.1,0.3-1,0.8v6.4c0,1.1,0,2.4,0.1,4.6
			c0,0.6-0.1,0.9-0.3,1.1c-0.4,0.5-1,0.7-2.8,1.1c-0.1-0.7-0.2-1-0.7-1.4c-0.4-0.3-0.8-0.4-3.4-0.8v-0.4c3.3,0.1,3.3,0.1,4.6,0.1
			c0.5,0,0.6-0.1,0.6-0.5V13.4h-6.1v7.8H20v-3.8c0-0.8,0-1.2-0.1-2c2.7,0.3,2.9,0.4,2.9,0.7c0,0.2-0.2,0.3-1,0.6
			c0,4.7,0,4.7,0.1,5.9c0,0.2-0.1,0.3-0.2,0.3C21.4,23,20.8,23,20.4,23C20.1,23,20,23,20,22.7v-0.8h-6.1v1.3c0,0.4-0.2,0.5-0.9,0.5
			c-0.2,0-0.4,0-0.4,0c-0.1,0-0.1,0-0.1,0c-0.3,0-0.4-0.1-0.4-0.3c0.1-1.4,0.1-2,0.1-3.7c0-2.6,0-3.4-0.1-4.4
			c2.7,0.3,2.9,0.3,2.9,0.6c0,0.2-0.2,0.3-1.1,0.6v4.6H16v-7.8h-5.7v13.3c0,0.5-0.3,0.6-1.6,0.6c-0.3,0-0.4-0.1-0.4-0.3
			c0,0,0,0,0-0.1c0-1.5,0.1-9.1,0.1-12.3c0-1,0-2.1-0.1-3.2c0.9,0.5,1.3,0.7,2.3,1.3H16v-3H7.5l-2.8,9.1c-0.1,0.4-0.3,1.1-0.3,1.4
			c0,0.2,0,0.2,0.4,1.5c0.3,1.1,0.4,2,0.4,2.7c0,0.8-0.3,1.5-1,2c-0.4,0.3-0.8,0.5-1.2,0.5c-0.4,0-0.5-0.2-0.5-0.7
			c0-0.1,0-0.4,0.1-1c0.1-1.2,0.2-2.7,0.2-3.6c0-0.9-0.2-1.6-0.5-1.9c-0.3-0.3-0.6-0.5-2-1l0.1-0.4c0.3,0.1,0.5,0.1,0.6,0.1
			c0.6,0.1,1,0.2,1.2,0.2c0.4,0,0.4-0.1,0.8-0.8C4,16,6.9,9.1,8,6l0.5,0.2L7.7,9h5V5.1H11c-1.1,0-1.6,0-2.5,0.2L8.3,4.1
			c1.1,0.2,1.9,0.3,2.9,0.3h1.5V2.3c0-0.2,0-0.6-0.1-1.2c0-0.2,0-0.6-0.1-1.1c0.6,0.1,1,0.1,1.3,0.2C15.6,0.5,16,0.5,16,0.8
			c0,0.2-0.2,0.3-1.4,0.7v2.9h4.7V2.2c0-0.5,0-0.9-0.1-2.1c0.6,0.1,1.1,0.2,1.4,0.2c1.6,0.2,1.9,0.3,1.9,0.6c0,0.2-0.3,0.4-1.3,0.6
			v3h1.7c0.7-0.8,0.9-1.1,1.6-1.8c1.1,0.8,1.4,1.1,2.5,2c0.1,0.2,0.1,0.2,0.1,0.3c0,0.1-0.1,0.2-0.3,0.2h-5.6V9H23.7z M2.2,0.8
			C5.4,1.9,7,2.9,7,4c0,0.9-0.4,1.8-0.9,1.8c-0.2,0-0.4-0.2-0.6-0.5c-0.8-1.5-2-2.8-3.6-4.2L2.2,0.8z M19.2,5.1h-4.7V9h4.7V5.1z"/>
		<path class="st0" d="M3.1,39.3c1.3,1.3,2.1,1.7,4,1.7c0.7,0,1.3-0.1,2.1-0.2c0.1-0.5,0.1-0.5,0.4-2.2c0.2-0.9,0.4-2.1,0.4-2.5
			c0-1-0.7-1.4-2.2-1.6C8.4,34.1,8.7,34,9.3,34c0.9,0,2,0.3,2.8,0.7c0.6,0.3,0.9,0.7,0.9,1.1c0,0.3-0.1,0.4-0.4,0.9
			c-0.5,0.6-1,1.9-1.8,4c2.3-0.4,4.4-1.2,5.3-2c0.2-0.2,0.3-0.3,0.6-0.3c0.4,0,1,0.1,1.4,0.3c0.4,0.2,0.7,0.4,0.7,0.7
			c0,0.5-0.5,0.9-1.7,1.3c-1.9,0.8-4.1,1.2-6.7,1.5c-0.8,3-1.2,6-1.3,8.3c3.3-1.7,6.5-2.7,9-2.7c3.4,0,5.6,1.7,5.6,4.4
			c0,2.4-1.7,4.4-4.8,5.7c-2.4,1-5.2,1.4-8.7,1.4l0-0.4c3.1-0.5,3.5-0.6,4.7-1c4.3-1.3,6.6-3.5,6.6-6.2c0-1.8-1.2-2.9-3.3-2.9
			c-2.1,0-4.4,0.9-6.7,2.6c-0.9,0.7-1.3,1.1-1.7,1.8c-0.1,0.2-0.4,0.4-0.7,0.4c-0.8,0-1.8-1.3-1.8-2.3c0-0.5,1-5.8,1.7-8.9
			c-0.6,0.1-0.9,0.1-1.3,0.1c-2.4,0-3.7-0.7-5-2.7L3.1,39.3z"/>
		<path class="st0" d="M2.2,73.5c1.2,1.3,2,1.6,3.3,1.6c1.2,0,2.4-0.2,3.8-0.6c0.6-2,1-4.1,1-5.1c0-0.9-0.4-1.3-2.1-1.9
			c0.4-0.2,0.5-0.3,0.9-0.3c0.7,0,1.7,0.2,2.6,0.6c0.9,0.3,1.3,0.8,1.3,1.2c0,0.2,0,0.2-0.4,0.7c-0.4,0.6-1,2.2-1.8,4.3
			c1.7-0.6,2.8-1.2,3.5-1.8c0.5-0.4,0.6-0.5,0.8-0.5c0.4,0,1.1,0.2,1.6,0.3c0.3,0.1,0.5,0.3,0.5,0.5c0,0.5-0.5,0.9-1.7,1.5
			c-1.3,0.6-3.4,1.3-5.2,1.7c-0.4,1-0.4,1-1.3,3.8c-0.6,1.8-0.6,1.8-2.2,6.7c-1.2,3.6-1.6,4.3-2.2,4.3c-0.3,0-0.5-0.2-0.7-0.6
			c-0.2-0.5-0.4-1.2-0.4-1.7c0-0.5,0-0.6,0.7-1.5c1.5-2.2,2.7-4.8,4.7-10.7c-1.1,0.2-2,0.3-2.9,0.3c-1.8,0-3-0.8-4.1-2.7L2.2,73.5z
			 M14.1,83.9c0,0.4,0,0.8,0,0.9c0,1.7,0.8,3,2.3,3.6c0.8,0.4,2,0.6,3.2,0.6c1.2,0,1.9-0.1,2.9-0.4c0.2-0.1,0.4-0.1,0.5-0.1
			c0.3,0,1,0.3,1.5,0.7c0.4,0.3,0.5,0.6,0.5,0.8c0,0.7-1.2,1-3.5,1c-2.3,0-4.2-0.3-5.5-1c-1.6-0.8-2.5-2.3-2.5-4.4
			c0-0.7,0.1-1.2,0.3-1.9L14.1,83.9z M14.9,78.3c2.2-1.3,4.6-2,7-2c0.6,0,1.4,0.2,1.9,0.5c0.3,0.2,0.5,0.5,0.5,0.8
			c0,0.5-0.3,0.7-1.1,0.7c-1.1,0.1-1.5,0.2-2.3,0.6c-0.6,0.3-0.6,0.3-1.6,1c-0.6,0.4-0.6,0.4-1,0.6l-0.2-0.3
			c0.4-0.4,0.4-0.4,1.4-1.3c0.3-0.2,0.5-0.5,1.5-1.4c-2,0-3.6,0.3-5.7,1.1L14.9,78.3z"/>
		<path class="st0" d="M10.7,126c2.1-1.3,3.4-2.5,4.8-4.2c2.1-2.8,3.1-6.2,3.1-10.1c0-2.6-0.4-5.1-1.1-6.2c-0.5-0.9-1.3-1.3-2.1-1.3
			c-1.5,0-2.9,1.3-4,3.8c-0.9,2-1.4,4.4-1.4,6.5c0,0.5,0,0.8,0.1,1.9c0,0.2,0,0.4,0,0.6c0,0.6-0.3,0.9-0.8,0.9
			c-1.1,0-1.9-2.4-1.9-6.2c0-2.5,0.2-4.1,1-8c0.2-1.2,0.3-1.8,0.3-2.2c0-1-0.4-1.5-1.6-2.1c0.2-0.1,0.4-0.2,0.5-0.2
			c0.6,0,1.6,0.4,2.4,1c0.8,0.6,1.2,1.1,1.2,1.7c0,0.4-0.1,0.6-0.4,1.1c-1.1,1.9-2.2,6.2-2.2,8.9c0,0.3,0,0.6,0,1.1h0.1
			c0.9-3.8,2-6.3,3.5-7.9c1.1-1.2,2.3-1.8,3.7-1.8c2.9,0,4.9,3.5,4.9,8.6c0,3.9-1.1,7.1-3.3,9.8c-1.8,2.2-3.8,3.6-6.6,4.7L10.7,126z
			"/>
		<path class="st0" d="M2.2,139.5c1.2,1.3,2,1.6,3.3,1.6c1.2,0,2.4-0.2,3.8-0.6c0.6-2,1-4.1,1-5.1c0-0.9-0.4-1.3-2.1-1.9
			c0.4-0.2,0.5-0.3,0.9-0.3c0.7,0,1.7,0.2,2.6,0.6c0.9,0.3,1.3,0.8,1.3,1.2c0,0.2,0,0.2-0.4,0.7c-0.4,0.6-1,2.2-1.8,4.3
			c1.7-0.6,2.8-1.2,3.5-1.8c0.5-0.4,0.6-0.5,0.8-0.5c0.4,0,1.1,0.2,1.6,0.3c0.3,0.1,0.5,0.3,0.5,0.5c0,0.5-0.5,0.9-1.7,1.5
			c-1.3,0.6-3.4,1.3-5.2,1.7c-0.4,1-0.4,1-1.3,3.8c-0.6,1.8-0.6,1.8-2.2,6.7c-1.2,3.6-1.6,4.3-2.2,4.3c-0.3,0-0.5-0.2-0.7-0.6
			c-0.2-0.5-0.4-1.2-0.4-1.7c0-0.5,0-0.6,0.7-1.5c1.5-2.2,2.7-4.8,4.7-10.7c-1.1,0.2-2,0.3-2.9,0.3c-1.8,0-3-0.8-4.1-2.7L2.2,139.5z
			 M14.1,149.9c0,0.4,0,0.8,0,0.9c0,1.7,0.8,3,2.3,3.6c0.8,0.4,2,0.6,3.2,0.6c1.2,0,1.9-0.1,2.9-0.4c0.2-0.1,0.4-0.1,0.5-0.1
			c0.3,0,1,0.3,1.5,0.7c0.4,0.3,0.5,0.6,0.5,0.8c0,0.7-1.2,1-3.5,1c-2.3,0-4.2-0.3-5.5-1c-1.6-0.8-2.5-2.3-2.5-4.4
			c0-0.7,0.1-1.2,0.3-1.9L14.1,149.9z M14.9,144.3c2.2-1.3,4.6-2,7-2c0.6,0,1.4,0.2,1.9,0.5c0.3,0.2,0.5,0.5,0.5,0.8
			c0,0.5-0.3,0.7-1.1,0.7c-1.1,0.1-1.5,0.2-2.3,0.6c-0.6,0.3-0.6,0.3-1.6,1c-0.6,0.4-0.6,0.4-1,0.6l-0.2-0.3
			c0.4-0.4,0.4-0.4,1.4-1.3c0.3-0.2,0.5-0.5,1.5-1.4c-2,0-3.6,0.3-5.7,1.1L14.9,144.3z"/>
		<path class="st0" d="M3.5,174.1v17.9c0,0.4-0.3,0.5-1.6,0.5c-0.4,0-0.5-0.1-0.5-0.4c0.1-3.9,0.2-8.2,0.2-19.5c0-3.3,0-5.2-0.1-7.7
			c1,0.5,1.4,0.7,2.4,1.3h5.9c0.5-0.6,0.6-0.8,1.1-1.4c0.8,0.5,1,0.7,1.7,1.3c0.2,0.2,0.3,0.3,0.3,0.4c0,0.2-0.2,0.4-1,0.8
			c0,0.7,0,1,0,1.5c0,1.1,0,1.9,0.1,6.4c0,0.2-0.1,0.3-0.3,0.4c-0.1,0.1-0.8,0.1-1.2,0.1s-0.5-0.1-0.5-0.4c0,0,0,0,0-0.1v-1.1H3.5z
			 M10,166.9H3.5v2.8H10V166.9z M10,170.5H3.5v3H10V170.5z M17.7,182.8h1.6c0.6-0.8,0.8-1,1.4-1.7c1,0.9,1.3,1.2,2.3,2.1
			c0,0.1,0.1,0.1,0.1,0.2c0,0.1-0.1,0.1-0.2,0.1h-5.2v1.5c0,2.3,0,3.1,0.1,5.9c0,0,0,0.1,0,0.1c0,0.3-0.4,0.5-1.5,0.5
			c-0.3,0-0.5-0.1-0.5-0.4c0,0,0-0.1,0-0.1c0-0.9,0-2.9,0.1-5.9v-1.6h-4.2c-0.3,2.5-0.7,3.7-1.8,5.1c-1.2,1.5-2.5,2.4-4.7,3.4
			l-0.3-0.4c2.1-1.3,3.4-2.6,4.2-4.4c0.5-1,0.6-1.7,0.8-3.7H7.8c-1,0-1.7,0.1-2.4,0.2l-0.3-1.1c0.8,0.2,1.5,0.2,2.7,0.2h2.1
			c0.1-1,0.1-2,0.1-2.8c0-0.7,0-0.8,0-1.5H8.3c-1,0-1.4,0-2.2,0.1l-0.3-1.1c0.8,0.2,1.4,0.3,2.5,0.3h10.1c0.6-0.8,0.8-1,1.4-1.7
			c1,0.9,1.4,1.2,2.4,2.1c0.1,0.1,0.1,0.1,0.1,0.2c0,0.1-0.1,0.2-0.2,0.2h-4.3V182.8z M11.8,178.4c0,0.8,0,1.1,0,1.4
			c0,1.1,0,1.8-0.1,3h4.2v-4.4H11.8z M17.7,174.1v1c0,0.2-0.1,0.3-0.3,0.4c-0.2,0-0.8,0.1-1.2,0.1c-0.4,0-0.5-0.1-0.5-0.4
			c0.1-2.2,0.1-2.8,0.1-5.1c0-3.1,0-3.8-0.1-5.2c1,0.5,1.3,0.7,2.2,1.3h6c0.5-0.6,0.7-0.8,1.2-1.5c0.7,0.5,1,0.7,1.7,1.2
			c0.3,0.2,0.4,0.3,0.4,0.5c0,0.2-0.1,0.3-0.8,0.8v14l0.1,9c-0.1,0.8-0.3,1.1-1,1.6c-0.6,0.3-1.2,0.5-2.5,0.7
			c-0.2-1.4-0.6-1.6-3.5-2.1v-0.5c3,0.1,3,0.1,3.6,0.1c0.2,0,0.6,0,1,0c0.3,0,0.3-0.1,0.3-0.7v-15.2H17.7z M24.2,166.9h-6.5v2.8h6.5
			V166.9z M24.2,170.5h-6.5v3h6.5V170.5z"/>
		<path class="st0" d="M10.4,203.9c0.7-0.8,0.9-1.1,1.6-1.9c1,0.9,1.3,1.1,2.2,2.1c0.1,0.1,0.2,0.2,0.2,0.3c0,0.1-0.1,0.2-0.3,0.2
			H6.2c-0.1,1.8-0.1,3.2-0.2,4.3h3.7c0.5-0.5,0.6-0.7,1.1-1.2c0.7,0.5,0.9,0.6,1.5,1.1c0.2,0.2,0.3,0.3,0.3,0.4
			c0,0.2-0.2,0.4-0.8,0.8c-0.3,6-1,11-1.8,12.5c-0.6,1.1-1.4,1.6-3.4,1.7c-0.1-1.3-0.5-1.6-2.8-2.2l0.1-0.4c2.2,0.2,2.2,0.2,2.8,0.3
			c0.3,0,0.5,0.1,0.7,0.1c0.7,0,0.9-0.4,1.3-2c0.6-2.5,1-6.5,1-10.5H6c-0.2,2.7-0.4,4.4-0.9,6.4c-0.5,2.3-1.5,4.6-2.7,6.5
			c-0.6,0.8-1,1.3-1.9,2.3L0,224.4c1.5-2.3,2.3-4.1,3-6.8c0.9-3.4,1.2-7.2,1.3-13.1H3c-0.4,0-1.2,0.1-2.3,0.2l-0.3-1.1
			c0.7,0.1,2,0.2,2.6,0.2h2.8v-3.4c0-0.9,0-1.3-0.1-2.3c0.6,0.1,1.1,0.2,1.4,0.2c1.6,0.2,1.8,0.3,1.8,0.6c0,0.2-0.3,0.5-1.1,0.7v4.1
			H10.4z M24.7,205.7c-0.4,4.7-1.5,8.2-3.8,11.7c2.2,2.5,4.3,3.8,7.6,5l-0.1,0.4c-1.3,0.1-1.9,0.6-2.4,1.9c-2.6-1.6-4.3-3.2-6.1-5.9
			c-1.3,1.5-2.7,2.8-4.6,3.9c-2,1.2-3.4,1.8-6,2.5L9,224.8c2.4-1.1,3.7-1.8,5.5-3.1c1.9-1.4,3.2-2.8,4.4-4.5
			c-1.4-2.6-2.7-6.2-3.1-8.7c-0.9,1.8-1.6,2.8-3,4.5l-0.3-0.2c1.6-3,2.6-5.8,3.6-10c0.5-2.1,0.7-3.3,0.8-4.7
			c2.9,0.7,3.3,0.8,3.3,1.1c0,0.2-0.2,0.3-1.2,0.5c-1,3.1-1.2,3.8-1.7,5.3h6.3c0.6-0.7,1.2-1.5,1.8-2.2c1.2,1,1.5,1.4,2.7,2.4
			c0.1,0.1,0.2,0.2,0.2,0.3c0,0.1-0.2,0.2-0.3,0.2H24.7z M17,205.7c-0.3,0.8-0.4,1.1-0.7,1.8c0.8,3.5,1.9,6.1,3.4,8.4
			c1.7-3,2.6-6.3,2.8-10.2H17z"/>
		<path class="st0" d="M18.4,235.1c0.2,2.8,0.7,5,1.6,7.1c1.1-1.8,1.7-3.2,2.1-4.9c2.8,0.8,2.8,0.8,2.8,1.1c0,0.3-0.1,0.3-1.3,0.4
			c-1.3,2.5-1.8,3.4-2.9,4.9c1,1.7,1.9,2.5,3.8,3.4c1.2-2.5,1.3-2.8,2-4.8l0.4,0.1l-0.7,3.9c0,0.1,0,0.2-0.1,0.4
			c0,0.2-0.1,0.4-0.1,0.6c0,0.3,0.1,0.5,0.4,0.8c0.3,0.2,0.4,0.5,0.4,0.7c0,0.5-0.4,0.9-1,0.9c-0.8,0-2.1-0.6-3.4-1.5
			c-1.1-0.8-2-1.7-2.9-3.1c-1.6,1.7-2.9,2.8-5.6,4.2l-0.3-0.3c2.2-1.6,3.4-2.8,5.1-5.1c-1.3-2.3-1.8-4.1-2.3-8.6H5.5
			c-0.1,5.8-0.2,6.9-0.7,9c-0.4,1.6-1.2,3.3-2.1,4.8c-0.5,0.8-0.9,1.2-1.8,2.3l-0.3-0.3c1.2-2.1,1.8-3.6,2.3-5.8
			c0.5-2.1,0.6-4.2,0.6-9.3c0-1.3,0-1.6-0.2-2.7c1.1,0.5,1.4,0.7,2.4,1.4h10.8c-0.1-0.6-0.1-0.8-0.1-1.1c-0.1-1.4-0.2-1.7-0.3-2.6
			c2.4,0.2,3,0.3,3,0.6c0,0.2-0.1,0.3-1,0.6c0,1.2,0.1,1.5,0.1,2.5h4.8c0.6-0.7,0.6-0.7,1.4-1.7c1,0.8,1.3,1.1,2.2,1.9
			c0.1,0.1,0.1,0.2,0.1,0.2c0,0.1-0.2,0.3-0.3,0.3H18.4z M5.5,250.4c0,0.3,0,0.5,0,0.7c0,1.5-0.7,3.6-1.5,4.7
			c-0.7,0.9-1.3,1.4-1.8,1.4c-0.4,0-0.8-0.8-0.8-1.8c0-0.6,0.1-0.8,0.9-1c0.7-0.3,1.5-1.1,2.1-2c0.4-0.6,0.5-1.1,0.7-2H5.5z
			 M12.9,238c0.6-0.8,0.7-1,1.3-1.7c0.9,0.8,1.2,1.1,2.1,1.9c0.1,0.1,0.1,0.2,0.1,0.2c0,0.1-0.1,0.2-0.3,0.2H8.4c-0.7,0-1.1,0-2,0.2
			l-0.1-1.1c0.5,0.2,0.5,0.2,1.2,0.2c0.7,0.1,0.9,0.1,0.9,0.1H12.9z M8.8,247.3c0,0.5-0.2,0.5-1.6,0.5c-0.2,0-0.3-0.1-0.4-0.3
			c0.1-1.3,0.1-1.7,0.1-2.7c0-3.3,0-3.7-0.1-4.9c1,0.5,1.3,0.7,2.2,1.3h4c0.5-0.6,0.6-0.8,1.1-1.3c0.7,0.5,0.8,0.7,1.5,1.3
			c0.2,0.2,0.2,0.3,0.2,0.4c0,0.2-0.1,0.3-0.8,0.7l0.1,4.1c0,0.5-0.3,0.6-1.5,0.6c-0.3,0-0.4-0.1-0.4-0.3v-0.6H8.8V247.3z M8,251.4
			c0-0.8,0-1.1-0.1-1.9c2.8,0.3,3.2,0.4,3.2,0.7c0,0.2-0.2,0.3-1.1,0.6v3.9c0,0.4,0,0.5,0.1,0.6c0.1,0.1,0.3,0.1,1.2,0.2
			c0.5,0,2.3,0.1,2.7,0.1c0.3,0,3.4-0.1,3.9-0.1c0.8,0,0.9-0.1,1.3-0.9c0.4-0.9,0.7-1.7,1.3-3.8l0.4,0l-0.4,3.7c0,0.1,0,0.3,0,0.4
			c0,0.3,0,0.3,0.7,0.5c0.3,0.1,0.5,0.4,0.5,0.7c0,0.5-0.4,0.9-1,1c-0.8,0.1-4.5,0.3-7.5,0.3c-3.4,0-4.1-0.1-4.7-0.4
			c-0.6-0.3-0.7-0.6-0.8-1.4c0-0.2,0-0.4,0-0.5l0-1.7V251.4z M8.8,245.4h4.5v-3.5H8.8V245.4z M12.3,249.2c1.3,0.3,2.4,0.6,3.9,1.3
			c0.9,0.4,1.3,0.9,1.3,1.6c0,0.7-0.3,1.2-0.6,1.2c-0.3,0-0.3,0-1.2-1c-0.4-0.5-1.2-1.2-2-1.8c-0.4-0.3-0.8-0.5-1.6-0.9L12.3,249.2z
			 M19.8,230.9c1,0.2,1.9,0.4,2.5,0.7c0.7,0.3,0.9,0.6,0.9,1c0,0.3-0.1,0.7-0.3,1c-0.1,0.2-0.2,0.3-0.4,0.3c-0.2,0-0.2,0-0.5-0.5
			c0-0.1,0-0.1-0.8-1c-0.4-0.5-0.8-0.8-1.6-1.4L19.8,230.9z M22.3,250.2c1.4,0.8,2.2,1.4,3.4,2.4c1.2,1,1.6,1.5,1.6,2.1
			c0,0.4-0.3,1.4-0.5,1.7c-0.2,0.3-0.4,0.4-0.5,0.4c-0.1,0-0.3-0.1-0.4-0.2c-0.2-0.2-0.2-0.2-0.7-1.3c-0.8-1.8-1.6-3.1-3.2-4.8
			L22.3,250.2z"/>
		<path class="st0" d="M8.5,278.1c-0.1,0.3-0.5,2.2-1.3,5.6c-0.4,1.8-0.5,2.3-0.5,3.2c0,0.9,0,1.1-0.1,1.3c-0.1,0.3-0.4,0.5-0.7,0.5
			c-0.5,0-1-0.4-1.3-1.2c-0.7-1.6-1-4-1-6.4c0-0.9,0.1-2,0.2-3.2c0.2-1.7,0.2-1.7,1-5.7c0.3-1.4,0.4-2.2,0.4-2.8
			c0-1-0.2-1.7-0.8-2.8c0.7,0,1.2,0.4,2,1.5c0.7,0.9,1.1,1.7,1.1,2.4c0,0.5,0,0.6-0.6,1.8c-0.6,1.3-1.3,3.4-1.6,4.8
			c-0.3,1.1-0.4,2.4-0.4,3.7c0,1.7,0.1,2.7,0.6,4c0.5-1,0.7-1.6,1.1-2.5l1.6-4.2L8.5,278.1z M12.2,279.6c-0.1,0.6-0.1,0.9-0.1,1.3
			c0,3.3,1.9,4.7,6.5,4.7c0.9,0,1.7-0.1,2.5-0.2c0.6-0.1,0.6-0.1,1.6-0.5c0.2-0.1,0.3-0.1,0.4-0.1c0.8,0,1.9,1,1.9,1.8
			c0,0.4-0.2,0.6-0.7,0.8c-0.6,0.2-2.1,0.3-3.7,0.3c-3.7,0-6.4-0.6-7.8-1.8c-1.1-1-1.6-2.3-1.6-3.9c0-0.8,0.1-1.4,0.4-2.4
			L12.2,279.6z M12.2,270c1,0.6,1.7,0.8,2.8,0.8c1.9,0,4.8-0.7,6-1.4c0.4-0.2,0.4-0.2,0.7-0.2c0.2,0,0.6,0.2,1,0.4
			c0.6,0.4,0.9,0.7,0.9,1.1c0,0.4-0.2,0.6-0.8,0.7c-2,0.3-3.1,0.6-4.3,1.1c-0.9,0.4-2.7,1.3-3.9,2.1l-0.3-0.3c1.3-1.1,2.4-2,2.8-2.3
			c-0.6,0-1,0.1-1.2,0.1c-1.7,0-2.8-0.4-4.1-1.7L12.2,270z"/>
		<path class="st0" d="M0.6,304.1c1.5,0.5,2.5,1,3.4,1.5c0.8,0.5,1.1,0.9,1.1,1.5c0,1-0.3,1.7-0.7,1.7c-0.3,0-0.4-0.1-1-1
			c-0.7-1.2-1.5-2.1-3-3.4L0.6,304.1z M0.9,314.9c0.8,0.2,1.5,0.3,1.7,0.3c0.4,0,0.5-0.2,1.2-1.6l4.9-10.8l0.5,0.1l-4.4,12.2
			c-0.2,0.6-0.3,1.1-0.3,1.4c0,0.4,0.1,0.7,0.4,1.8c0.3,1.1,0.4,2.1,0.4,2.8c0,0.6-0.2,1.3-0.5,1.6c-0.4,0.5-1.2,0.9-1.7,0.9
			c-0.3,0-0.5-0.3-0.5-0.8c0-0.2,0.1-0.7,0.1-1.3c0.3-1.6,0.3-2.3,0.3-3.4c0-0.8-0.1-1.3-0.4-1.8c-0.3-0.5-0.7-0.8-1.8-1.3
			L0.9,314.9z M2.5,297.6c1.7,0.7,2.6,1.1,3.7,1.7c0.7,0.4,1,0.8,1,1.4c0,0.8-0.5,1.7-0.9,1.7c-0.2,0-0.4-0.2-0.7-0.7
			c-1-1.5-1.9-2.5-3.3-3.9L2.5,297.6z M27.7,321.4c-1.2,0.4-1.4,0.7-1.9,2.2c-2.2-0.5-3.3-0.9-5-1.7c-1.5-0.7-2.5-1.2-3.6-2
			c-3.3,2.3-5.9,3.2-10.8,4.1l-0.1-0.5c3.9-1.1,6.9-2.5,9.7-4.7c-1.8-1.6-2.8-3-4-5.4h-0.3c-0.5,0-1.2,0.1-2.2,0.2l-0.2-1.1
			c1,0.2,1.6,0.2,2.4,0.2H21c0.4-0.5,0.6-0.7,1-1.2c0.8,0.6,1,0.8,1.8,1.5c0.3,0.2,0.4,0.4,0.4,0.5c0,0.3-0.3,0.4-1.2,0.4
			c-1.9,2.5-3,3.7-4.6,5c2.6,1.3,5,1.8,9.2,2V321.4z M24.3,309.4c0.6-0.6,0.8-0.8,1.4-1.3c0.9,0.7,1.1,0.9,1.9,1.6
			c0.3,0.2,0.4,0.4,0.4,0.5c0,0.3-0.4,0.4-1.5,0.5c-1.2,1.1-1.5,1.4-2.5,2.1l-0.3-0.3c0.4-1.1,0.6-1.4,0.8-2.5H9.3
			c0,1.4-0.2,2.2-0.5,3c-0.3,0.9-1,1.5-1.5,1.5c-0.4,0-0.9-0.9-0.9-1.8c0-0.4,0.1-0.5,0.6-0.8c1-0.8,1.5-1.9,1.9-4l0.5,0v1.3H24.3z
			 M12.4,303.1c-0.7,0-1.5,0.1-2.3,0.2l-0.1-1.1c0.9,0.2,1.5,0.2,2.5,0.2H22v-2.8h-9.9c-1,0-1.6,0-2.4,0.2l-0.1-1.1
			c1,0.2,1.5,0.3,2.5,0.3h9.6c0.5-0.6,0.7-0.8,1.2-1.3c0.8,0.5,1,0.7,1.8,1.2c0.3,0.2,0.4,0.4,0.4,0.5c0,0.2-0.1,0.3-1,0.8
			c0,1.4,0,2.5,0,3.3c0,1.3,0,2.3,0.1,4.3c0,0.2,0,0.2-0.2,0.3c-0.3,0.1-0.9,0.2-1.5,0.2c-0.3,0-0.4-0.1-0.4-0.4V307h-9.6
			c-1,0-1.6,0-2.6,0.1l-0.2-1c1,0.2,1.5,0.2,2.8,0.2H22v-3.1H12.4z M12.6,313.5c1.2,2,2.4,3.3,4.4,4.6c1.6-1.4,2.6-2.5,4-4.6H12.6z"
			/>
		<path class="st0" d="M16.4,334.2c-1.2,0.4-4,1.5-6.1,2.4c-0.6,0.3-1,0.4-1.2,0.4c-0.5,0-1.1-0.4-1.7-1.3c-0.5-0.8-0.8-1.6-0.8-2.2
			c0-0.3,0.1-0.5,0.3-0.8c0.4,1.4,1.3,2.2,2.2,2.2c0.8,0,3.6-0.7,5.7-1.3c1.2-0.4,1.2-0.4,1.9-0.9c0.1-0.1,0.3-0.1,0.4-0.1
			c0.4,0,0.9,0.3,1.6,1c0.7,0.7,0.9,1,0.9,1.3c0,0.2-0.2,0.4-0.5,0.6c-0.9,0.5-1.2,0.7-2.5,2c-1.9,1.9-3,3-4.4,4.5
			c-2.9,3.1-2.9,3.1-3.5,3.7l0.1,0.1c3.2-2,5.6-2.8,8.2-2.8c3.8,0,6.4,2.3,6.4,5.6c0,4.3-4,7.5-9.4,7.5c-2.9,0-4.8-1.2-4.8-3
			c0-1.5,1.4-2.6,3.2-2.6c1.5,0,2.8,0.5,3.8,1.5c0.5,0.5,0.9,1,1.3,1.9c2.3-1,3.6-3.1,3.6-5.6c0-1.7-0.7-3-1.9-3.7
			c-0.6-0.4-1.8-0.6-3-0.6c-2.9,0-7,2.4-9.5,5.6c-0.5,0.6-0.7,0.8-1,0.8c-0.4,0-1-1.1-1-2c0-0.4,0.2-0.7,0.6-1
			c1.1-0.9,1.6-1.3,4.2-4.2c3.7-4.1,4.8-5.4,7.2-8.5c0.2-0.3,0.2-0.3,0.3-0.5c0,0-0.1-0.1-0.1-0.1c0,0,0,0,0,0c0,0,0,0-0.1,0
			c0,0-0.1,0-0.1,0.1L16.4,334.2z M11.8,351.4c-1.1,0-1.9,0.6-1.9,1.5c0,1.1,1.3,1.8,3.4,1.8c0.8,0,1.2-0.1,2.1-0.3
			C14.9,352.6,13.5,351.4,11.8,351.4z"/>
		<path class="st0" d="M28.1,367.4c0,2.1-1.7,3.9-3.9,3.9s-3.9-1.7-3.9-3.9c0-2.1,1.7-3.9,3.9-3.9C26.4,363.5,28.1,365.2,28.1,367.4
			z M21.4,367.4c0,1.6,1.3,2.9,2.9,2.9c1.6,0,2.9-1.3,2.9-2.9c0-1.6-1.3-2.9-2.9-2.9C22.7,364.5,21.4,365.7,21.4,367.4z"/>
	</g>
</g>
</svg>
