<?xml version="1.0" encoding="utf-8"?>
<!-- Generator: Adobe Illustrator 25.0.0, SVG Export Plug-In . SVG Version: 6.00 Build 0)  -->
<svg version="1.1" id="レイヤー_1" xmlns="http://www.w3.org/2000/svg" xmlns:xlink="http://www.w3.org/1999/xlink" x="0px"
	 y="0px" width="395px" height="405px" viewBox="0 0 395 405" style="enable-background:new 0 0 395 405;" xml:space="preserve">
<style type="text/css">
	.st0{fill:#FFFFFF;}
	.st1{fill:#76544B;}
</style>
<g>
	<g>
		<path class="st0" d="M331.3,34.3c-0.8,0-1.2,0-1.3,1c-0.1,0.6-0.3,1.8-2,1.8c-1.2,0-1.3-1-1.3-1.6c0-0.5,0.2-3.1,0.2-3.7
			c0.2-4.9,0.2-8.4,0.2-11.5c0-1.6,0-14.1,0-15.3c0-0.3-0.2-1.8-0.2-2.2c0-0.3,0-0.5,0.4-0.5c0.9,0,2.5,0.8,3,1.1
			c0.6,0.4,1,0.4,1.7,0.4h22.1c0.6,0,1.1-0.1,1.4-0.4c0.8-0.8,0.9-1,1.2-1c0.4,0,3.4,2.1,3.4,2.8c0,0.4,0,0.4-1,1
			c-0.5,0.4-0.6,0.5-0.7,2c-0.1,1.5-0.1,18.4-0.1,22.3c0,0.6,0.1,3.4,0.1,4c0,0.6,0,2.6-2.1,2.6c-1.1,0-1.1-0.6-1.2-1.8
			c0-1-0.8-1-1.2-1H331.3z M331.3,4.9c-1.1,0-1.3,0.3-1.3,1.3v25.1c0,1.4,0,1.9,1.3,1.9h22.8c1.4,0,1.4-0.6,1.4-1.5
			c0.2-3.4,0.2-5.5,0.2-25.1c0-1.2,0-1.8-1.3-1.8h-6.2c-0.6,0-1.1,0-1.3,0.7c0,0.3,0,15.6,0,16.5c0,1.4,0,2,2.4,2
			c1.5,0,1.7-0.1,2.3-1.2c0.2-0.4,0.9-2.6,1-2.6c0.2,0,0.2,0.1,0.2,0.4c0.3,1.2,0.4,1.5,0.8,2.3c0.1,0.2,0.9,1.3,0.9,1.6
			c0,0.4-0.3,1-0.7,1.3c-0.6,0.6-1.6,1-4.5,1c-3.6,0-5.2-0.8-5.3-3.3c0-0.6,0-15.5,0-16.6c0-1.7,0-2.2-1.2-2.2h-1.8
			c-1.2,0-1.3,0.5-1.3,1.4c-0.2,7.4-0.3,13.5-4.6,18.8c-1.7,2.1-3.6,3.4-4.1,3.4c-0.1,0-0.2,0-0.2-0.1c0-0.2,0.7-0.8,0.9-0.9
			c5-5.9,5-13,5-19.3c0-2.9,0-3.2-1.2-3.2H331.3z"/>
		<path class="st0" d="M332.1,54.9c-3.5,0-4.7,0.1-5.1,0.1c-0.1,0-0.7,0.1-0.8,0.1s-0.2-0.1-0.4-0.2l-0.8-0.9
			c-0.1-0.1-0.2-0.2-0.2-0.3c0,0,0-0.1,0.1-0.1c0.3,0,1.5,0.1,1.8,0.1c2,0.1,3.6,0.2,5.5,0.2h8.3c0.9,0,1-0.4,1-1.4
			c0-0.9-0.1-1.4-0.8-1.4c-0.7,0-3.6,0.2-4.2,0.2c-1.2,0.1-2,0.1-7.1,0.1c-0.3,0-1.3,0-1.3-0.2c0,0,12.2-1.7,14.5-2.2
			c1.3-0.3,6.5-1.3,7-1.7c0.6-0.4,0.6-0.4,0.8-0.4c0.2,0,4.3,2.3,4.3,3c0,0.5-0.7,0.5-1,0.5c-2.4,0-4.7,0.2-7,0.4
			c-0.7,0.1-1.6,0.2-2,0.2c-0.5,0.2-0.5,0.6-0.5,1.6c0,1.3,0.2,1.4,1.1,1.4h8c1.8,0,2,0,2.5-0.7c1.1-1.3,1.3-1.5,1.6-1.5
			c0.2,0,3.7,2.2,3.7,2.6c0,0.6-0.8,0.6-2.1,0.6H346c-0.4,0-0.6,0-0.6,0.3c0,1.2,9.3,5.9,14.8,6.9c1,0.2,1.1,0.2,1.1,0.4
			c0,0.2-0.1,0.2-0.6,0.3c-0.8,0.2-2,0.5-2.8,1.5c-0.3,0.4-0.4,0.6-0.8,0.6c-1.4,0-7.9-4.5-10.6-7c-0.4-0.3-2-2.2-2.2-2.2
			c-0.3,0-0.3,0.2-0.3,0.8c0,0.9,0.2,5.7,0.2,5.8c0,1.2-1,1.8-1.8,1.8c-0.6,0-1.2-0.2-1.2-1.6c0-0.2,0.2-3.5,0.2-3.9
			c0-1.8,0-2-0.4-2c-0.1,0-0.8,0.5-0.8,0.6c-6.1,5.1-12.1,6.9-13,7.2c-0.2,0-0.5,0.2-0.8,0.2c-0.2,0-0.5,0.1-0.5,0
			c0-0.1,1.1-0.8,1.4-1c2.5-1.6,10.8-7.2,10.8-8.4c0-0.4-0.4-0.4-0.7-0.4H332.1z M345.6,73.8c-0.8,0-1.2,0.4-1.2,0.8V80
			c0,1.5-0.1,3.3-3.2,3.3c-0.8,0-0.9-0.2-1.1-0.6c-0.5-1.2-0.6-1.4-1.5-2c-0.1,0-1-0.5-1-0.6s0.1-0.2,0.3-0.2c0.2,0,2.1,0.3,2.5,0.3
			c1,0,1.3-0.3,1.3-1v-3c0-2.2,0-2.5-1.1-2.5h-8c-0.8,0-3.6,0-5,0.1c-0.1,0-0.7,0.1-0.8,0.1c-0.2,0-0.2-0.1-0.4-0.2l-0.8-0.9
			c-0.2-0.2-0.2-0.2-0.2-0.3c0-0.1,0.1-0.1,0.2-0.1c0.2,0,1.5,0.1,1.8,0.1c1.2,0.1,3.2,0.2,5.5,0.2h7.8c0.3,0,1.1,0,1.1-1
			c0-0.2-0.2-1.5-0.2-1.8c0-0.6,0.4-0.6,0.7-0.6c0.3,0,1.8,0.3,2.2,0.3c0.8,0,3.8-2.2,3.8-3.2c0-0.4-0.4-0.4-0.7-0.4H337
			c-1,0-3.9,0-5,0.1c-0.2,0-0.8,0.1-0.9,0.1c-0.1,0-0.2-0.1-0.3-0.2l-0.8-0.9c-0.1-0.1-0.2-0.2-0.2-0.3c0-0.1,0.1-0.1,0.2-0.1
			c0.3,0,1.4,0.1,1.7,0.1c1.2,0,3.2,0.2,5.5,0.2h10.8c0.7,0,1.3,0,1.7-0.4c0.2-0.2,1-1.3,1.3-1.3c0.4,0,3,1.8,3,2.8
			c0,0.4-0.2,0.5-1.6,0.8c-0.6,0.2-3.2,1.6-4.8,2.4c-0.8,0.4-3,1.6-3,2.4c0,0.9,0.9,0.9,1.2,0.9h6.8c1,0,1.7,0,2-0.1
			c0.4-0.2,1.7-2,2.2-2c0.4,0,3.2,2.1,3.2,2.7c0,0.5-0.5,0.5-1.6,0.5H345.6z"/>
		<path class="st0" d="M335.2,102.3c-0.8,0-1.5,0-1.5,1.1c0,0.4,0,5.6,0.1,5.8c0.1,0.2,0.3,0.3,0.6,0.3c0.8,0,6.1-2.1,6.4-2.1
			c0.1,0,0.2,0,0.2,0.1c0,0.4-4.6,2.8-5.6,3.2c-0.8,0.4-1.5,0.8-1.7,1.9c0,0.1,0,10.8,0,11.8c0,1.1,0,2-0.7,3
			c-0.8,1.2-2.2,1.5-2.4,1.5c-0.5,0-0.7-0.4-1.5-1.4c-0.3-0.4-2.2-1.9-2.2-1.9c0-0.2,1.1-0.2,1.8-0.2c2,0,2.3,0,2.3-1.2
			c0.1-3.3,0.1-6.6,0.1-9.9c0-0.5-0.3-0.8-0.7-0.8c-0.9,0.4-2.3,1.2-3,1.5c-0.4,0.4-0.7,0.8-1,0.8c-0.4,0-1.9-3-1.9-3.5
			c0-0.2,0.1-0.4,0.3-0.4c0.2,0,0.8,0.1,1,0.1c1.1,0,4-0.9,4.5-1.1c0.1,0,0.6-0.3,0.7-0.8c0.1-0.3,0.1-4.2,0.1-6.3
			c0-0.6,0-1.4-1-1.4c-0.8,0-2.7,0-3.6,0.1c-0.1,0-0.7,0.1-0.8,0.1c-0.2,0-0.2-0.2-0.4-0.3l-0.8-0.9c-0.1-0.1-0.2-0.2-0.2-0.3
			s0.1-0.1,0.2-0.1c0.8,0,4.7,0.3,5.6,0.3c1,0,1-0.5,1-2.8c0-1,0-3.9-0.2-4.7c0-0.2-0.3-0.8-0.3-1c0-0.2,0.3-0.3,0.6-0.3
			c0.8,0,3.6,0.7,3.6,1.5c0,0.2-0.8,1-0.9,1.2c-0.1,0.3-0.2,4.4-0.2,5.2c0,0.7,0.5,0.9,0.9,0.9c0.3,0,0.6,0,1-0.5
			c1-1.4,1.1-1.5,1.5-1.5c0.8,0,2.8,2.2,2.8,2.6c0,0.5-0.9,0.6-2.2,0.6H335.2z M354.8,106.6c-0.5,0-1.2,0-1.3,0.9
			c0,0.1-0.1,4.8-0.1,6.1c0,0.9,0.1,7.8,0.2,10.6c0,0.4,0.2,2.2,0.2,2.7c0,1.5-1.7,2-2.4,2c-1.1,0-1.1-0.8-1.1-1
			c0-0.3,0.2-2,0.2-2.4c0.2-4.1,0.2-5.5,0.2-17.8c0-1.2-0.8-1.2-1.3-1.2h-3.7c-0.8,0-1.3,0.2-1.3,1.1c-0.1,2.3-0.2,5.9-0.4,8.1
			c-0.9,8.9-6.4,11.9-6.9,11.9c-0.1,0-0.2-0.1-0.2-0.2s1.4-1.9,1.7-2.2c2.9-4.4,3.2-10.4,3.2-18.5c0-4-0.1-6-0.2-7.6
			c0-0.5-0.4-2.9-0.4-3.4c0-0.4,0.3-0.4,0.6-0.4c0.8,0,1.6,0.4,2.3,0.7c0.2,0.1,0.6,0.3,0.9,0.3c0.2,0,6.7-1.8,8.7-3.2
			c0.2-0.1,0.8-0.7,1-0.7c0.1,0,2.5,1.4,3.5,1.9c0.7,0.4,1.1,0.6,1.1,1.1c0,0.6-1.1,0.7-1.5,0.7c-0.2,0-1.6-0.1-1.8-0.1
			c-0.5,0-2.6,0.2-3.3,0.3c-1.3,0.1-3.1,0.2-6,0.4c-2,0.1-2.2,0.1-2.2,1.6c0,0.9-0.1,5.2-0.1,6.1c0,1.2,0.9,1.2,1.4,1.2h6.5
			c1.8,0,2,0,2.7-1c0.8-1.2,1.2-1.7,1.7-1.7c0.5,0,4,2.7,4,3.2c0,0.6-0.8,0.6-2.1,0.6H354.8z"/>
		<path class="st0" d="M344.3,148.3c-1,0.8-2.7,3.1-2.7,3.5c0,0.6,1,0.6,1.3,0.6c1.6,0,4.8-0.4,6-0.7c0.3,0,1.6-0.6,1.9-0.6
			c0.9,0,3.2,2.4,3.2,3c0,0.4-0.5,0.6-0.5,0.6c-1.5,0.4-1.7,0.4-2.2,1c-1.4,1.4-3.4,3.6-4.8,4.9c-1.4,1.3-1.5,1.4-1.5,1.8
			c0,0.2,0.1,0.3,0.5,0.7c1.1,1,2.3,2.4,2.3,4c0,0.4-0.1,1.6-1.4,1.6c-0.7,0-0.9-0.2-1.6-1.4c-1.8-3.2-4.5-6.1-6.6-7.6
			c-0.1-0.1-1-0.8-1-0.9c0-0.1,0.1-0.2,0.2-0.2c0.2,0,2.8,1,4.9,2.3c0.2,0.1,1.4,0.8,1.6,0.8c0.4,0,0.6,0,2.4-2.7
			c1.1-1.6,2.9-4.5,2.9-5c0-0.2-0.1-0.3-0.7-0.3c-0.8,0-5.1,0.6-6.1,0.6c-0.2,0-0.5,0-0.8-0.2c-0.1,0-0.9-0.4-1-0.4
			c-0.3,0-0.5,0.3-1,0.9c-1.8,2.2-3.9,4.1-5.6,5.5c-1.4,1.1-5,3.6-5.8,3.6c-0.1,0-0.2-0.1-0.2-0.2c0-0.1,1.6-1.4,1.7-1.5
			c5-4.2,11.7-13.8,11.7-15.8c0-0.3-0.1-0.6-0.5-1c-0.2-0.2-1.4-0.8-1.4-1.1c0-0.4,1.2-0.4,1.5-0.4c2.1,0,4.6,2.8,4.6,3.2
			C345.5,147.4,345.3,147.5,344.3,148.3z"/>
		<path class="st0" d="M342.9,190.5c0,0.1,0.1,0.3,0.1,0.4c0.2,1.3,0.4,2.6,0.4,4.3c0,2.7-0.6,6.4-4.1,11.7
			c-3.2,4.9-5.2,5.8-6.8,5.8c-2.6,0-5-4.1-5-9c0-2.1,0.4-6.2,4.4-10.2c5.1-5.2,10.4-5.2,12.8-5.2c3.6,0,5.3,0.7,6.4,1.3
			c4.3,2.1,7,6.4,7,11.6c0,5.2-3,11.6-10.1,14.1c-3.4,1.2-6,1.5-6.6,1.5c-0.2,0-0.4,0-0.4-0.3c0-0.1,0.1-0.2,1.1-0.6
			c4.2-1.6,12.8-5.1,12.8-15c0-1.6-0.2-11.1-11.1-11.1C342.9,190,342.9,190.3,342.9,190.5z M329.9,202.8c0,2.6,1,6.2,3.5,6.2
			c1.2,0,2.1-0.5,4.9-4.6c2.1-3.2,3.9-7.7,3.9-11.6c0-2.4-0.2-2.6-0.7-2.6C337.7,190.1,329.9,195.3,329.9,202.8z"/>
		<path class="st0" d="M323.8,255.7c0.9,0,2.6-0.1,3.1-0.5c1.2-1.1,5.8-12.5,6.2-12.5c0.1,0,0.2,0.1,0.2,0.2c0,0.7-3.7,11.7-3.7,14
			c0,0.4,0,2,0.8,3.9c0.6,1.4,0.7,1.9,0.7,2.7c0,1.6-1.1,2.1-1.8,2.1c-1.8,0-1.8-1.4-1.8-3.1c0-4.3-1-5.4-2.7-6.2
			c-0.2-0.1-1.1-0.2-1.2-0.4C323.5,255.9,323.5,255.7,323.8,255.7z M330.6,242.6c0,0.6-0.3,1.6-1.4,1.6c-0.8,0-0.9-0.2-1.8-1.5
			c-1.6-2.2-2-2.6-2.4-3c-0.4-0.3-0.5-0.4-0.5-0.6c0,0,0-0.1,0.1-0.1C325,238.6,330.6,239.8,330.6,242.6z M327.6,230.4
			c1.8,0,6,1.1,6,3.9c0,0.9-0.7,1.6-1.4,1.6c-0.8,0-1.3-0.8-1.8-1.8c-0.1-0.2-1.5-2.8-2.8-3.4c-0.2,0-0.3-0.1-0.2-0.2
			C327.3,230.4,327.4,230.4,327.6,230.4z M343,257.3c0-0.1,0-0.2,0.2-0.2c0.4,0,3.1,3,3.1,5c0,1-0.6,1.8-1.5,1.8c-0.7,0-1-0.4-1-0.9
			c-0.1-0.8-0.1-1.3-0.7-1.3c-0.2,0-3.8,1-4.4,1.2c-0.6,0.2-3.6,0.6-4.1,1c-0.1,0.1-0.8,0.6-0.8,0.6c-0.6,0-1.6-2.7-1.6-3.3
			c0-0.2,0.1-0.7,0.3-0.7c0.1,0,0.6,0.3,0.7,0.3c0.9,0.2,1.6,0.2,3.2,0.2c1.2,0,1.2,0,4.1-5.9c1.2-2.4,3.4-7.6,3.4-8.6
			c0-0.8,0.2-0.8,0.3-0.8c0.3,0,3.4,1.4,3.4,1.9c0,0.2-0.1,0.3-0.7,0.6c-0.2,0.1-0.4,0.2-0.6,0.6c-4,6.8-4.4,7.5-7,11
			c-0.2,0.2-0.2,0.4-0.2,0.6c0,0.4,0.4,0.4,0.6,0.4c0.9,0,1.8-0.1,2.6-0.2c0.9-0.1,1-0.1,1.2-0.4C343.6,259.9,343,257.5,343,257.3z
			 M354.2,238c0.5,0,0.8,0,1.4-0.7c1.1-1.3,1.2-1.5,1.6-1.5c0.3,0,3.8,2.1,3.8,2.6c0,0.6-0.8,0.6-2.2,0.6h-18.7
			c-3.5,0-4.7,0.1-5.1,0.1c-0.1,0-0.7,0.1-0.8,0.1c-0.1,0-0.2-0.1-0.4-0.2l-0.8-0.9c-0.2-0.2-0.2-0.2-0.2-0.3c0-0.1,0-0.1,0.1-0.1
			c0.3,0,1.5,0.1,1.8,0.1c2,0.1,3.6,0.2,5.5,0.2h7.8c0.5,0,1-0.1,1.4-1.1c1-2.2,1.6-6.4,1.6-7.4c0-0.2,0-0.3,0.3-0.3
			c0.2,0,2.3,1.1,2.6,1.3c1.4,0.7,1.5,0.8,1.5,1c0,0.6-1.2,0.6-1.6,1c-0.5,0.6-2.4,3.4-2.8,3.9c-0.4,0.5-0.6,0.8-0.6,1.1
			c0,0.4,0.4,0.4,0.6,0.4H354.2z M338.2,254.5c-0.8,0-1.1-0.9-1.5-2.2c-0.2-0.5-0.4-1.2-1.8-3.8c0,0-0.4-0.7-0.4-0.7
			c0-0.1,0.1-0.1,0.2-0.1c0.2,0,1.9,1,2.3,1c0.5,0,0.7-0.4,1-1c0.4-1,1.6-3.7,1.6-6.3c0-0.1,0-0.6,0-0.7c0-0.2,0.2-0.2,0.3-0.2
			c0.2,0,1.6,0.8,2,1c1.6,0.8,1.6,0.8,1.6,1.2c0,0.3-1.1,1-1.3,1.2c-1,1.3-2.3,3.5-3.3,4.8c-0.5,0.6-0.6,0.7-0.6,1
			c0,0.2,0.2,0.5,0.5,0.9c0.9,1.2,0.9,1.7,0.9,2.6C339.8,253.5,339.1,254.5,338.2,254.5z M343.9,235.5c0,1.3-0.9,2.1-1.7,2.1
			c-0.9,0-1.1-0.8-1.5-2.3c-0.4-1.8-1.2-3.4-2.4-4.8c-0.1-0.1-0.5-0.6-0.4-0.6C338.2,229.6,343.9,231.9,343.9,235.5z M357.1,259.4
			c0-0.5-0.6-2-0.9-2.6c-0.1-0.1-0.4-0.6-0.4-0.7c0,0,0,0,0.1,0c0.6,0,4.9,4.3,4.9,6.4c0,1.4-1,2.3-2.1,2.3c-1,0-1.1-1.2-1.2-2.3
			c0-0.4-0.1-1-0.8-1c-0.3,0-7,2.1-7.1,2.1c-0.2,0.1-0.9,0.8-1.1,0.8c-0.3,0-0.5-0.6-0.8-1.3c-0.2-0.3-1-2-1-2c0-0.1,0-0.2,0-0.3
			c0-0.2,0-0.3,0.2-0.3c0.1,0,0.8,0.3,0.9,0.3c0.4,0.1,0.5,0.1,0.8,0.1c1.4,0,1.4-0.1,2.4-1.9c1.6-2.9,4.7-8.5,5.2-11.2
			c0.1-0.4,0.1-0.5,0.3-0.5c0.1,0,2.3,1.3,2.6,1.4c0.6,0.4,0.9,0.6,0.9,0.9c0,0.4-0.1,0.4-1.2,0.9c-0.4,0.2-5.8,7.6-6,7.9
			c-1.2,1.5-1.3,1.6-1.3,1.8c0,0.3,0.2,0.4,0.4,0.4c0.3,0,2.5-0.3,3.1-0.4c1.2-0.2,1.4-0.2,1.6-0.5
			C357.1,259.6,357.1,259.5,357.1,259.4z M353.2,240.3c0,0,3.6,1.2,3.6,1.7c0,0.3-0.1,0.3-0.7,0.6c-0.2,0.1-0.4,0.2-0.5,0.5
			c-0.1,0.2-1.4,2.8-3.9,6.8c-0.2,0.3-0.4,0.6-0.4,1c0,0.2,0,0.3,0.4,0.7c0.8,0.9,1,1.4,1,1.8c0,0.7-0.4,1.5-1.3,1.5
			c-0.8,0-0.9-0.2-1.7-2.2c-0.4-1.1-1.1-2.1-1.4-2.6c-0.1-0.1-0.3-0.4-0.4-0.6c0-0.1,0.1-0.1,0.2-0.1c0.3,0,1.8,0.8,2.1,0.8
			c0.3,0,0.4-0.1,0.8-1c0.9-2.2,2.2-6.5,2.2-8.3C353,240.3,353,240.3,353.2,240.3z"/>
		<path class="st0" d="M330.3,300c-0.8,0-1.2,0.3-1.2,1.1c0,1.6,0,3.1-1.7,3.1c-1.4,0-1.4-0.8-1.4-1.3c0-0.2,0-1.4,0.2-3.8
			c0.2-2.5,0.4-9.6,0.4-10.6c0-0.2-0.2-6.1-0.2-6.4c0-0.3-0.3-1.8-0.3-2.1c0-0.2,0.2-0.4,0.5-0.4c0.2,0,1.7,0.6,1.9,0.8
			c0.8,0.4,1.2,0.5,2,0.5h2.4c0.9,0,1.1-0.2,1.4-0.6c0.4-0.5,0.7-0.9,0.9-0.9c0.2,0,1.5,1.2,1.7,1.4c0.6,0.6,0.8,0.7,0.8,1
			c0,0.2-0.2,0.4-0.3,0.5c-0.6,0.4-0.7,0.4-0.8,0.6c-0.3,0.5-0.4,7.3-0.4,8.3c0,0.7,0.2,6.8,0.2,7.3c0,1.8,0,3.2-2,3.2
			c-1,0-1-0.4-1-1c0-0.4-0.3-0.6-0.9-0.6H330.3z M330.4,281.9c-0.4,0-1.1,0-1.2,0.9c-0.2,2-0.2,12.2-0.2,15c0,0.7,0.3,1.1,1.2,1.1
			h2.2c0.4,0,1.1,0,1.2-0.9c0.2-2.4,0.3-12.3,0.3-15c0-0.5-0.1-1.1-1.2-1.1H330.4z M349.1,292.1c-0.4,0-0.8,0.2-0.8,0.6
			c0,0.9,4.3,8.2,11.6,11.6c0.2,0.1,1.7,0.5,1.7,0.8c0,0.1-0.3,0.2-0.5,0.2c-0.8,0.1-1.2,0.2-1.8,0.5c-0.3,0.2-1.9,1.1-2,1.1
			c-0.2,0-5.4-3-8.8-11c-0.3-0.7-0.3-0.8-0.5-0.8c-0.3,0-0.3,0.2-0.3,0.8c0,0.4,0.3,11.6,0.3,13c0,0.5,0,2.5-1.8,2.5
			c-1.1,0-1.2-0.7-1.2-1.3c0-1.2,0.4-6.8,0.4-8.1v-5.8c0-0.2-0.2-0.4-0.4-0.4c-0.2,0-0.3,0.1-0.4,0.2c-1.3,1.8-2.8,3.4-4.6,5
			c-4.1,3.7-9.2,6.2-9.6,6.2c0,0-0.1,0-0.1-0.1c0-0.1,4-3.5,4.8-4.1c5.6-4.9,8.8-10,8.8-10.5c0-0.5-0.2-0.5-1.4-0.5
			c-0.2,0-2.6,0-3.7,0.1c-0.1,0-0.7,0.1-0.8,0.1c-0.2,0-0.2-0.1-0.4-0.3l-0.8-0.9c-0.2-0.2-0.2-0.2-0.2-0.3s0.1-0.1,0.2-0.1
			c0.2,0,1.5,0.1,1.8,0.2c1.6,0,3.4,0.1,4.9,0.1h0.8c0.3,0,0.9,0,1.1-0.6c0-0.2,0-4.3,0-4.7c0-0.4,0-1.2-1-1.2c-1.3,0-3.2,0-4.4,0.1
			c-0.1,0-0.7,0.1-0.8,0.1c-0.2,0-0.2-0.1-0.4-0.2l-0.8-0.9c-0.2-0.2-0.2-0.2-0.2-0.3s0.1-0.1,0.2-0.1c0.2,0,1.2,0.1,1.4,0.1
			c0.6,0,4,0.2,4.6,0.2s1.3,0,1.3-1.2c0-1.1-0.1-3.9-0.2-5.2c0-0.2-0.3-1.4-0.3-1.7c0-0.2,0.1-0.4,0.4-0.4c0.1,0,3.8,0.6,3.8,1.2
			c0,0.2-0.8,0.8-0.9,0.9c-0.2,0.3-0.2,0.5-0.2,1.5c0,0.5-0.1,3.1-0.1,3.7c0,0.5,0.1,1.1,1.2,1.1h2.2c1.6,0,2.1,0,2.5-0.7
			c0.8-1.2,0.8-1.4,1.2-1.4c0.3,0,3,2.1,3,2.6c0,0.5-0.8,0.5-2.1,0.5h-6.8c-0.3,0-1,0-1.2,0.7c-0.1,0.3-0.1,4.1-0.1,4.8
			c0,1.1,0.8,1.1,1.2,1.1h4.6c1.9,0,2.2,0,2.8-1c0.6-1.1,0.8-1.4,1.2-1.4c0.3,0,3.2,2.5,3.2,2.9c0,0.5-0.8,0.5-2.1,0.5H349.1z"/>
	</g>
</g>
<g>
	<g>
		<path class="st1" d="M309,346.2c-0.2-1.6-0.6-2.5-1.2-3.4c-1-1.3-2.5-2-4.2-2c-1.8,0-3.5,0.9-4.4,2.4c-1,1.5-1.5,3.7-1.5,6.1
			c0,5.2,2.5,8.7,6.3,8.7c2.8,0,5-1.7,6-4.5l0.7,0.3c-0.5,1.5-1.2,2.5-2,3.3c-1.3,1.2-3.2,1.9-5.4,1.9c-2.2,0-4.3-0.9-5.7-2.5
			c-1.5-1.7-2.3-4-2.3-6.7c0-3.5,1.3-6.5,3.5-8.1c1.3-1,3-1.5,4.7-1.5c1,0,2.1,0.2,3.2,0.6c1.2,0.4,1.4,0.4,1.8,0.4
			c0.3,0,0.5,0,1.3-0.3v5.5H309z"/>
		<path class="st1" d="M324.4,358.8c-0.1-0.6-0.1-1.4-0.1-2.6c-1,1.7-2.6,2.7-4.4,2.7c-1.6,0-2.8-0.8-3.3-2.1
			c-0.2-0.7-0.3-1.7-0.3-3.9v-4.1c0-1.3-0.1-1.8-0.4-2.1c-0.2-0.1-0.4-0.2-0.8-0.2c-0.3,0-0.3,0-0.5,0V346l3.9-0.3
			c-0.1,2.3-0.1,2.9-0.1,4.7v2.2c0,2.5,0,3.2,0.3,4.1c0.3,0.9,1,1.4,2,1.4c1.4,0,2.6-0.9,3.2-2.4c0.4-0.9,0.5-1.4,0.5-3v-3.9
			c0-1.3-0.1-1.8-0.4-2c-0.2-0.2-0.4-0.2-0.8-0.3h-0.5V346l3.9-0.3c-0.1,1.9-0.1,3.5-0.1,4.7v4.7c0,2.5,0.2,3,1.5,3h0.2v0.6
			L324.4,358.8z"/>
		<path class="st1" d="M336.1,345.7c-0.1,1.5-0.1,3.6-0.1,4.7v5.1c0,2.3,0.1,2.5,1.8,2.6v0.6h-5.7V358c1.7-0.1,1.8-0.3,1.8-2.6v-6.7
			c0-1.3-0.1-1.8-0.4-2.1c-0.2-0.2-0.6-0.2-1.5-0.2V346L336.1,345.7z M334.9,340.4c0.8,0,1.4,0.6,1.4,1.4c0,0.8-0.6,1.4-1.4,1.4
			c-0.8,0-1.4-0.6-1.4-1.4C333.4,341,334.1,340.4,334.9,340.4z"/>
		<path class="st1" d="M342.5,354.6h0.8c0.1,1.2,0.3,1.8,0.7,2.3c0.6,0.9,1.6,1.4,2.7,1.4c1.7,0,2.7-0.9,2.7-2.4
			c0-0.6-0.2-1.1-0.6-1.5c-0.4-0.4-0.5-0.4-2.8-1.4c-2.7-1.2-3.5-2.1-3.5-3.8c0-0.9,0.2-1.7,0.7-2.3c0.7-0.9,1.8-1.4,3.1-1.4
			c0.7,0,1,0.1,2.3,0.3c0.2,0,0.4,0,0.5,0c0.3,0,0.7,0,1.2-0.2l-0.1,4h-0.8c-0.1-2.2-1.2-3.6-3-3.6c-1.5,0-2.5,0.9-2.5,2.2
			c0,0.6,0.2,1,0.7,1.4c0.5,0.3,1,0.6,2.6,1.3c1.7,0.7,2.3,1.1,2.9,1.7c0.5,0.6,0.8,1.4,0.8,2.4c0,2.3-1.5,3.8-3.9,3.8
			c-0.7,0-1,0-2.5-0.3c-0.3,0-0.7-0.1-0.9-0.1c-0.3,0-0.6,0-1.1,0.1L342.5,354.6z"/>
		<path class="st1" d="M359.6,345.7c-0.1,1.5-0.1,3.6-0.1,4.7v5.1c0,2.3,0.1,2.5,1.8,2.6v0.6h-5.7V358c1.7-0.1,1.8-0.3,1.8-2.6v-6.7
			c0-1.3-0.1-1.8-0.4-2.1c-0.2-0.2-0.6-0.2-1.5-0.2V346L359.6,345.7z M358.4,340.4c0.8,0,1.4,0.6,1.4,1.4c0,0.8-0.6,1.4-1.4,1.4
			c-0.8,0-1.4-0.6-1.4-1.4C356.9,341,357.6,340.4,358.4,340.4z"/>
		<path class="st1" d="M369.2,348.3c1.1-1.9,2.3-2.7,4.4-2.7c1.6,0,2.6,0.5,3.3,1.6c0.5,0.7,0.7,1.6,0.7,3.1v5.2
			c0,2.4,0.1,2.5,1.8,2.6v0.6h-5.7V358c0.8,0,1.3-0.1,1.5-0.4c0.2-0.2,0.2-0.4,0.2-0.8c0-0.3,0.1-1.2,0.1-1.4v-5
			c0-1.3-0.1-2.1-0.4-2.7c-0.4-0.9-1.2-1.3-2.2-1.3c-1.2,0-2.1,0.6-2.8,1.7c-0.5,0.8-0.9,2-0.9,3.1v4.3c0,2.4,0.1,2.5,1.8,2.6v0.6
			h-5.7V358c1.7-0.1,1.8-0.3,1.8-2.6v-6.7c0-1.9-0.3-2.3-1.7-2.3V346l3.8-0.3V348.3z"/>
		<path class="st1" d="M386,351.5c0,1.7,0.2,2.7,0.6,3.8c0.7,1.9,1.9,2.8,3.7,2.8c1.8,0,3.1-0.9,4.1-2.8l0.6,0.3
			c-1.1,2.3-2.8,3.4-5.3,3.4c-3.6,0-6-2.7-6-6.5c0-4.1,2.4-6.8,5.9-6.8c2.3,0,4,1.2,4.8,3.2c0.2,0.7,0.4,1.3,0.4,2.8H386z
			 M392.6,350.9c0-1.3-0.2-2.1-0.5-2.8c-0.6-1.2-1.4-1.9-2.6-1.9c-1.2,0-2.2,0.7-2.9,2c-0.4,0.7-0.5,1.4-0.7,2.7H392.6z"/>
	</g>
</g>
<g>
	<g>
		<path class="st0" d="M220.4,5.1c0.5-0.7,0.7-0.9,1.3-1.5c0.8,0.7,1.1,0.8,1.8,1.5c0.2,0.2,0.3,0.3,0.3,0.5c0,0.2-0.2,0.4-1,0.8
			v5.5c0,10.4,0,10.8,0.2,15.6c0,0.3-0.1,0.4-0.3,0.4c-0.2,0.1-1.2,0.2-1.6,0.2c-0.2,0-0.3-0.1-0.3-0.4v-2.2h-14v1.9
			c0,0,0,0.1,0,0.1c0,0.2-0.1,0.3-0.3,0.4c-0.1,0-1,0.1-1.3,0.1c-0.4,0-0.6-0.1-0.6-0.4v-0.1c0.1-3.6,0.1-8.3,0.1-11.6
			c0-7.3,0-10.8-0.1-12.5c1.1,0.7,1.5,0.9,2.6,1.7h3.3c0.7-1.6,1.2-3.4,1.5-5.1c3.4,0.9,3.5,0.9,3.5,1.2c0,0.2-0.3,0.4-1.4,0.6
			c-0.3,0.4-0.6,0.7-0.7,0.9c-1.1,1.4-1.4,1.8-2,2.4H220.4z M220.8,11.3V5.8h-14v5.5H220.8z M206.8,12v5.9h14V12H206.8z M206.8,18.6
			v6.2h14v-6.2H206.8z"/>
		<path class="st0" d="M214,42.1c-1.4,1.2-1.9,1.7-2.8,2.3c1.7,1.4,2.2,1.9,2.9,2.9c1.5,2.3,2.1,4.4,2.1,7.7c0,2.6-0.3,3.7-1.2,4.7
			c-0.7,0.8-1.3,1-3.3,1.4c-0.2-1.5-0.6-1.7-4.4-2.6v-0.5c1.4,0.2,4.2,0.4,5.2,0.4c1.2,0,1.3,0,1.5-0.7c0.3-1,0.4-2.2,0.4-3.6
			c0-0.9,0-1.6-0.1-2.6c-1.7,1.5-2.4,2-4,3.1c-2,1.3-4.4,2.6-6.5,3.4c-1,0.4-1.7,0.7-3.3,1.1l-0.2-0.4c3.5-1.5,6.3-3.2,9.4-5.6
			c1.6-1.3,2.3-1.9,4.1-3.8c-0.3-0.9-0.4-1.3-0.7-1.9c-2.2,1.7-2.8,2.2-4.3,3.1c-1.4,0.9-3.2,1.8-4.8,2.4c-0.9,0.4-1.7,0.6-3.3,1.1
			l-0.2-0.4c3.2-1.4,5.2-2.6,7.8-4.4c1.5-1.1,2.4-1.8,3.8-3.2c-0.4-0.4-0.5-0.5-1.3-1.3c-1.1,0.8-2,1.3-3.2,1.9
			c-2.4,1.3-3.9,1.8-6.3,2.5l-0.2-0.4c3.1-1.4,5.2-2.6,7.5-4.2c1.1-0.8,1.8-1.4,3-2.5h-4.3c-0.9,0-1.5,0-2.6,0.2l-0.4-1.2
			c1,0.2,2.2,0.3,3.3,0.3h11.8c0.6-0.8,0.8-1.1,1.5-1.8c1.2,0.9,1.5,1.2,2.7,2.1c0.1,0.1,0.1,0.2,0.1,0.2c0,0.1-0.1,0.2-0.3,0.2
			h-7.2c0.6,2.5,1.2,4.1,2.3,6.3c2.4-2.2,3.1-2.9,4.3-4.7c1.1,0.5,2.4,1.3,2.8,1.6c0.1,0.1,0.2,0.2,0.2,0.3c0,0.2-0.4,0.3-0.9,0.3
			c0,0,0,0-0.9,0c-2.3,1.6-3.1,2-5.2,3.1c1,1.9,2.2,3.4,3.7,4.8c1.6,1.5,3.6,2.9,5.2,3.5l-0.2,0.4c-0.4-0.1-0.5-0.1-0.7-0.1
			c-0.8,0-1.3,0.4-2,1.4c-1.6-1.2-2.7-2.3-4.2-4.3c-1.8-2.4-2.8-4.7-4.2-9.2c-0.4-1.4-0.5-1.8-0.8-3.3H214z M212.7,37.1v-1.5
			c0-0.8,0-1.1-0.1-1.8c0.7,0.1,1.2,0.1,1.6,0.1c1.2,0.1,1.9,0.2,1.9,0.5c0,0.2-0.5,0.5-1.3,0.6v2h8.7c0.5-0.6,0.6-0.8,1.2-1.4
			c1.2,0.8,1.6,1.1,2.7,2.1c0.1,0.1,0.2,0.2,0.2,0.3c0,0.1-0.1,0.1-0.2,0.2c-0.1,0-0.4,0.1-0.7,0.2c-0.4,0.1-0.8,0.1-1.1,0.2
			c-1,0.8-1.4,1-2.6,2l-0.4-0.2c0.5-0.9,0.6-1.2,1.1-2.6h-19.9c-0.1,1.7-0.5,2.7-1.1,3.6c-0.4,0.6-0.9,1-1.3,1c-0.5,0-1.1-1-1.1-1.8
			c0-0.2,0.1-0.4,0.6-0.8c0.8-0.7,1.2-1.2,1.7-2.2c0.4-0.8,0.5-1.2,0.8-2.5h0.4c0,0.6,0,1.1,0,1.3c0,0.4,0,0.4,0,0.7H212.7z"/>
		<path class="st0" d="M210.7,90.5c2.5-0.3,3.9-0.5,6.1-1l0.1,0.4c-3,1.1-3,1.1-11.3,3.2c-0.1,0.2-0.1,0.4-0.1,0.5
			c-0.1,0.5-0.2,0.7-0.4,0.7c-0.1,0-0.3-0.2-0.4-0.4c-0.1-0.1-0.2-0.6-0.3-1.1l-0.2-0.8c0-0.3-0.1-0.6-0.2-0.9
			c1.3,0,2.7-0.1,4.7-0.4v-2.9c-3.1,1.4-5.4,2.3-8.6,2.9l-0.2-0.5c3.7-1.2,7.7-3.2,10.6-5.3h-7.5c-0.3,0-1.3,0.1-2.2,0.2l-0.3-1.2
			c0.5,0.2,0.5,0.2,1.3,0.2c0.4,0,0.4,0,1.2,0.1h10v-1c0-0.6-0.1-1.1-0.2-1.6c2.9,0.1,3.4,0.2,3.4,0.5c0,0.2-0.3,0.4-1.3,0.7v1.4
			h8.1c0.7-0.9,0.8-1.1,1.5-2c1.2,0.8,1.6,1.1,2.7,2c0.2,0.2,0.2,0.3,0.2,0.4c0,0.2-0.2,0.3-0.4,0.3H215c0.9,1.5,1.9,2.5,3.4,3.6
			c1.6-1.3,2.1-1.8,3.1-3.2c0.4,0.1,0.9,0.4,1.9,0.8c0.6,0.3,0.8,0.4,0.8,0.6c0,0.2-0.1,0.3-0.4,0.3c0,0-0.1,0-0.1,0
			c-0.3,0-0.5,0-0.9-0.1c-1,0.6-1.6,0.9-3.9,2c2.2,1.3,4.9,2,9,2.3l0,0.5c-1.1,0.2-1.6,0.7-1.9,1.9c-2.1-0.3-3.5-0.9-5.5-2.2
			c-2.8-1.7-4.3-3.4-6.2-6.5h-0.7c-1.3,1-1.8,1.3-2.9,1.9V90.5z M207.5,70.2c0-2.2,0-2.4-0.1-3c0.6,0.1,1.1,0.1,1.4,0.2
			c1.4,0.2,1.6,0.2,1.6,0.5c0,0.2,0,0.2-1.1,0.8c0,0.8,0,0.9,0,1.5h2.4c0.5-0.7,0.7-0.9,1.3-1.6c0.9,0.8,1.2,1,2.2,1.9
			c0.1,0.1,0.1,0.1,0.1,0.1c0,0.2-0.2,0.3-0.5,0.3h-5.5v2.3h3.7c0.5-0.7,0.7-0.9,1.2-1.5c0.9,0.7,1.2,1,2.1,1.9
			c0.1,0.1,0.1,0.1,0.1,0.2c0,0.1-0.2,0.2-0.4,0.2h-6.7v1.4c0,0,0,0.3,0,0.8h3.2c0.4-0.5,0.5-0.6,0.9-1.1c0.6,0.3,1.2,0.7,1.8,1.1
			c0.1,0.1,0.1,0.1,0.1,0.2c0,0.2-0.2,0.4-0.9,0.8c0,0.3,0,0.5,0,0.6l0,2c0,0.1,0,0.2,0,0.4c-0.2,0.8-0.5,1-2.5,1.5
			c-0.1-0.7-0.1-1-0.5-1.2c0,0-0.5-0.2-1.4-0.5v-0.3c0.2,0,0.9,0.1,2.2,0.1c0.3,0,0.4-0.1,0.4-0.5v-2.5h-3.4c0,4,0,4,0.1,5.5
			c0,0.2-0.1,0.3-0.2,0.4c-0.1,0.1-1,0.2-1.3,0.2c-0.2,0-0.3-0.1-0.4-0.5c0.1-2.6,0.1-3.5,0.1-5.5h-3.1v5.3c0,0.1,0,0.2-0.1,0.3
			c-0.1,0.1-0.8,0.2-1.3,0.2c-0.3,0-0.4-0.1-0.4-0.3c0.1-0.6,0.1-2.4,0.1-5.2c0-0.2,0-0.5-0.1-2c1,0.4,1.3,0.6,2.2,1.1h2.8
			c0-0.9,0-1.1,0-2.2h-4.7c-0.6,0-1.5,0.1-2,0.2l-0.3-1.1c0.8,0.1,1.9,0.2,2.3,0.2h4.7l0-2.3h-3.8c-0.7,0.8-1.1,1.1-2.1,2l-0.3-0.2
			c1.1-1.7,2.1-3.8,2.4-5.3c2.1,0.5,2.7,0.8,2.7,1c0,0.2-0.2,0.3-1.3,0.5c-0.3,0.5-0.5,0.8-0.9,1.3H207.5z M220.7,69.1
			c0,0.2-0.2,0.3-1.2,0.7c0,0.6,0,0.8,0,1.2c0,1.3,0.1,6.9,0.1,8c0,0.2-0.1,0.3-0.2,0.3c-0.2,0-1.3,0.2-1.5,0.2
			c-0.2,0-0.3-0.1-0.3-0.2c0,0,0-0.1,0-0.1c0.1-1.8,0.1-2.6,0.1-4.3c0-3.8,0-5.8-0.1-6.5C219.9,68.5,220.7,68.7,220.7,69.1z
			 M219.1,80.3c0.7,0.1,0.7,0.1,2.2,0.1c1,0,1,0,1.5,0.1c0.4,0,0.4-0.1,0.4-0.6v-9.5c0-0.7,0-2.4-0.1-3.2c3,0.4,3.4,0.5,3.4,0.8
			c0,0.2-0.4,0.5-1.3,0.9c0,1,0,1,0,3.1c0,2.1,0,4.4,0,6.8v2c-0.1,0.9-0.3,1.2-1.2,1.6c-0.4,0.2-0.8,0.3-1.9,0.6
			c-0.1-0.7-0.3-1-0.8-1.4c-0.2-0.2-0.6-0.3-1.4-0.4l-0.5-0.1c-0.1,0-0.3-0.1-0.4-0.1V80.3z"/>
		<path class="st0" d="M222.4,111.1c0.9-1,1.2-1.4,2.1-2.3c1.4,1,1.8,1.4,3,2.5c0.1,0.2,0.2,0.2,0.2,0.3c0,0.1-0.1,0.2-0.3,0.2
			h-12.3c1.3,2,2.1,3,3.4,4.2c1.5,1.5,3.4,2.8,5.4,3.8c1.1,0.6,2,0.9,4,1.5l0,0.4c-0.8,0.2-1.2,0.3-1.6,0.8
			c-0.3,0.4-0.5,0.7-0.7,1.4c-3.3-2-4.8-3.2-6.8-5.6c-1.5-1.8-2.5-3.3-4-6l0.1,4.7c0,4.3,0.1,6.8,0.2,9.5c0,0.2,0,0.3-0.1,0.4
			c-0.2,0.1-0.8,0.2-1.6,0.2c-0.4,0-0.5-0.2-0.6-0.5c0.1-2.3,0.1-2.3,0.1-9.3v-4.1c-2.2,3.2-3.7,4.9-6.1,6.9
			c-2.2,1.9-3.6,2.8-6.3,4.1l-0.2-0.4c4.2-3.2,5.4-4.3,7.7-7.1c1.4-1.7,2.3-3,3.5-5H203c-0.6,0-1.1,0.1-1.9,0.2l-0.2-1.2
			c0.8,0.2,1.3,0.3,2.2,0.3h9.6v-7.5c0-1.1-0.1-1.9-0.2-3.5c3.1,0.4,3.5,0.4,3.5,0.8c0,0.2-0.3,0.4-1.2,0.6v9.6H222.4z M204.3,102
			c1.3,0.9,2.4,1.8,3.6,3c1,1,1.4,1.7,1.4,2.3c0,1-0.7,2.3-1.2,2.3c-0.3,0-0.5-0.2-0.7-0.9c-1-2.7-1.9-4.4-3.4-6.3L204.3,102z
			 M216.3,110.1c1.5-2.1,2-2.9,3.1-4.9c1.1-2,1.3-2.4,1.7-3.5c2.5,1.1,3.2,1.5,3.2,1.8c0,0.2-0.3,0.3-1.1,0.3c0,0-0.2,0-0.4,0
			c-3,3.5-4.5,5-6.3,6.4L216.3,110.1z"/>
		<path class="st0" d="M214,133.7c3.1,1.5,4.3,2.7,4.3,4.4c0,0.7-0.3,1.1-0.9,1.1c-0.2,0-0.2,0-0.9-0.3c-0.8-0.3-1.9-0.5-3.3-0.7
			c-2-0.2-4-0.4-4.6-0.4c-0.7,0-1.1,0.3-1.1,0.8c0,0.4,0.6,1.9,2,4.7c1.6-0.9,3.5-1.8,5.2-2.4c2.2-0.8,3.9-1.2,5.8-1.2
			c3.6,0,6.2,2,6.2,4.7c0,1.2-0.6,2.5-1.5,3.4c-1.1,1.1-2.7,1.6-4.8,1.6c-2.4,0-4.9-0.8-6.8-2.3l0.2-0.5c1.6,0.8,3.5,1.3,5.2,1.3
			c2,0,3.6-0.6,4.5-1.6c0.6-0.7,1-1.6,1-2.6c0-2.1-1.6-3.2-4.3-3.2c-1.6,0-3.1,0.4-5.7,1.7c-1.4,0.7-2.8,1.4-4.4,2.4
			c1.4,2.9,2.3,4.9,3.4,7.5c1.2,3,1.5,3.9,1.5,4.9c0,1.3-0.6,2.3-1.4,2.3c-0.1,0-0.3-0.1-0.5-0.3c-0.2-0.2-0.3-0.5-0.4-1.3
			c-0.6-3.8-1.8-7.8-3.7-12.4c-1.7,1.1-2.7,1.9-3.1,2.1c-0.4,0.3-0.6,0.4-0.8,0.6c-0.4,0.3-0.7,0.4-1,0.4c-1.3,0-3.2-1.9-3.2-3.3
			c0-0.1,0-0.3,0.1-0.5c0.7,1,1.4,1.6,2.1,1.6c0.8,0,2.6-0.8,5.2-2.3c-0.7-1.7-1.5-2.9-2.1-3.7c-0.5-0.7-0.6-0.9-0.6-1.3
			c0-1,1.2-2,2.2-2c0.4,0,0.4,0,0.9,0.1c0.2,0.1,0.4,0.1,0.8,0.1c0.1,0,1,0,2.4,0c0.7,0,1.3,0,2.2,0c1.7,0,2-0.1,2-0.4
			c0-0.6-1.1-1.8-2.4-2.8L214,133.7z"/>
		<path class="st0" d="M201.7,188.3c1.9-1.2,3.7-2.6,5.7-4.6c3-2.9,5.2-5.5,7.3-8.8c-3.6,0.6-5.7,1.1-7.4,1.7
			c-0.5,0.2-0.7,0.2-1,0.2c-0.7,0-1.5-0.6-2.3-1.6c-0.5-0.7-0.9-1.4-0.9-1.7c0-0.1,0-0.2,0.1-0.4c1,1.1,1.9,1.6,3.1,1.6
			c1.2,0,6.3-0.6,9.4-1.2c0-2.6-0.2-4-0.4-4.5c-0.3-0.6-1.2-1.2-2.3-1.4c0.2-0.3,0.4-0.3,1-0.3c0.9,0,2.4,0.4,3.3,0.8
			c0.7,0.3,0.9,0.6,0.9,1.1c0,0.2,0,0.4-0.2,0.7c-0.4,0.9-0.6,2-0.6,3.4c2.5-0.4,3.3-0.5,4.5-1.1c0.3-0.1,0.4-0.2,0.6-0.2
			c0.9,0,2.6,1.1,2.6,1.7c0,0.4-0.3,0.5-1,0.5c-0.2,0-0.5,0-1.1,0c-0.7,0-1.3-0.1-1.6-0.1c-1,0-1.9,0.1-4.1,0.3c0,0.4,0,0.8,0,0.9
			c0,2.6,0.2,6,0.5,9.7c0.1,1.5,0.2,2.6,0.2,3.2c0,1.6-0.8,3.2-1.6,3.2c-0.4,0-0.7-0.2-0.8-0.6c-0.2-0.6-0.5-1-1.1-1.4
			c-0.7-0.6-0.7-0.6-4.2-2.5l0.2-0.4c2.7,0.8,4.1,1.2,5.5,1.6c0-0.6,0.1-2.1,0.1-3.7c0-0.8,0-1.7,0-2.8c-0.1-2-0.1-3.3-0.1-4
			c0-0.3,0-0.7,0-1.3c-1.3,2-2.4,3.3-4.7,5.6c-3.2,3.1-6.8,5.6-9.5,6.7L201.7,188.3z"/>
		<path class="st0" d="M206.7,202.3c0.7,0,2,0.4,2.8,0.9c0.5,0.3,0.8,0.7,0.8,1.1c0,0.1-0.1,0.4-0.1,0.7c-0.1,0.7-0.3,3-0.3,5.2
			c0,0.4,0,1.1,0,2.3c0,0.4,0,0.7,0,1c0,1,0,1.3-0.1,1.6c-0.1,0.4-0.3,0.7-0.6,0.7c-0.4,0-0.8-0.4-1.1-1c-0.3-0.6-0.5-1.3-0.5-1.7
			c0-0.2,0-0.3,0.1-0.7c0.3-0.8,0.4-2.5,0.4-4.9c0-2.2-0.1-2.9-0.6-3.6c-0.4-0.6-0.6-0.8-1.8-1.3
			C206.2,202.3,206.3,202.3,206.7,202.3z M209.9,225c3-2,4.7-3.7,6.1-6c1.7-2.9,2.1-5.4,2.1-12.5c0-3-0.1-4-0.6-4.5
			c-0.4-0.5-1.1-0.8-2.2-1.1c0.4-0.4,0.7-0.4,1.2-0.4c0.7,0,2.1,0.4,3.1,0.8c0.7,0.4,1.1,0.8,1.1,1.2c0,0.2,0,0.2-0.2,0.7
			c-0.2,0.7-0.4,2.7-0.5,6.4c-0.1,4.4-0.3,5.7-1,7.5c-1.3,3.5-4.5,6.5-8.9,8.3L209.9,225z"/>
		<path class="st0" d="M202.6,241.9c2.5,0.5,4.3,1.1,5.2,1.8c0.8,0.5,1.1,1.1,1.1,2c0,0.8-0.4,1.4-0.8,1.4c-0.3,0-0.5-0.1-0.9-0.7
			c-1.5-1.9-2.9-3.1-4.8-4.1L202.6,241.9z M225.7,241.2c-0.7,1.1-2.3,3-4.5,5.1c-3.3,3.2-6.6,5.7-11.4,8.7c-1.6,1-2,1.3-2.3,1.7
			c-0.2,0.2-0.5,0.3-0.7,0.3c-0.6,0-1.3-0.6-2.1-1.8c-0.5-0.8-0.9-1.7-0.9-2.3c0-0.3,0.1-0.5,0.3-0.7c0.6,1.1,1.4,1.9,2.2,1.9
			c0.7,0,2.6-1,5.8-2.9c5.5-3.4,10-6.8,13.3-10.2L225.7,241.2z M205.9,236.6c4.8,1.1,6.3,2.1,6.3,3.8c0,0.8-0.4,1.5-0.8,1.5
			c-0.3,0-0.3,0-1.6-1.6c-1.2-1.4-2.7-2.6-4.1-3.3L205.9,236.6z M218.7,234c1.1,0.6,1.9,1.2,2.7,1.8c1.1,1,1.5,1.7,1.5,2.4
			c0,0.7-0.4,1.3-0.9,1.3c-0.4,0-0.4,0-1.3-2c-0.5-1.1-1.5-2.4-2.3-3.2L218.7,234z M221.8,232.3c1.1,0.5,2,1,2.9,1.7
			c1.1,0.9,1.5,1.5,1.5,2.3c0,0.7-0.3,1.2-0.7,1.2c-0.3,0-0.5-0.1-0.7-0.6c-1.1-1.9-1.6-2.6-3.3-4.3L221.8,232.3z"/>
		<path class="st0" d="M206.8,291.1c2.1-2,3.5-3.9,4.6-6.4c1.1-2.4,1.7-5.2,1.9-8.8c-2.7,0.3-5.1,0.9-6.9,1.7
			c-0.5,0.2-0.7,0.2-1,0.2c-0.6,0-1.2-0.4-2-1.2c-0.6-0.7-1-1.4-1-1.9c0-0.1,0-0.2,0.1-0.5c0.9,1.1,1.7,1.5,2.7,1.5
			c0.8,0,1,0,5.2-0.7c1-0.1,1.8-0.3,2.9-0.4c0-0.8,0-1.3,0-2.3c0-2.6-0.1-3.3-0.8-3.9c-0.4-0.4-1-0.6-2-0.8c0.4-0.4,0.6-0.4,1.2-0.4
			c1.1,0,2.8,0.4,3.7,0.9c0.6,0.3,0.8,0.5,0.8,1c0,0.2,0,0.3-0.2,0.6c-0.4,0.8-0.6,2.6-0.7,4.8c0.5-0.1,2.2-0.2,4-0.4
			c1.1-0.1,1.8-0.2,2.4-0.5c0.2-0.1,0.4-0.2,0.6-0.2c0.5,0,0.9,0.1,1.4,0.4c1.1,0.5,1.6,1,1.6,1.4c0,0.3-0.3,0.6-0.6,0.6
			c-0.1,0-0.2,0-0.4,0c-1.6-0.3-3.4-0.5-5.3-0.5c-1.1,0-1.7,0-3.8,0.2c-0.4,4.9-1.2,7.6-2.8,10.4c-1.3,2.1-3.1,3.9-5.5,5.5
			L206.8,291.1z"/>
		<path class="st0" d="M201.7,321.9c1.6-1.5,2.8-3.3,4-5.7c1.1-2.4,2.1-6.1,2.1-8.1c0-1.2-0.5-1.8-2-2.3c0.3-0.2,0.5-0.3,0.8-0.3
			c0.7,0,1.4,0.2,2.2,0.8c1.1,0.7,1.6,1.2,1.6,1.7c0,0.2-0.1,0.5-0.4,1.4c0,0.1,0,0.1-0.3,1.1c-1,3.2-1.2,3.9-2,5.5
			c-1.4,2.9-3.1,4.8-5.7,6.4L201.7,321.9z M227.3,309.9c-0.9,1.6-1.7,2.6-3.3,4.2c-1.7,1.9-4.5,4.3-6.4,5.5
			c-0.6,0.4-1.4,1.1-1.7,1.4c-0.2,0.2-0.4,0.3-0.6,0.3c-0.7,0-1.8-1.6-1.8-2.5c0-0.1,0.1-0.4,0.2-0.9c0.2-0.7,0.3-3.4,0.3-8.1
			c0-6.8-0.1-7.2-2.3-7.7c0.3-0.4,0.5-0.4,1-0.4c0.7,0,1.6,0.3,2.6,0.9c0.9,0.5,1.2,1,1.2,1.4c0,0.2,0,0.3-0.2,0.8
			c-0.1,0.4-0.3,1.4-0.4,2.9c-0.1,1.3-0.4,7.9-0.4,9c0,0.4,0,0.7,0.1,1.4c3.5-1.4,7.9-4.7,11.3-8.5L227.3,309.9z"/>
		<path class="st0" d="M215.8,343.4v-5.8h-3.4c-0.6,0-1,0-1.3,0.1c-0.4,0-0.5,0-0.9,0.1l-0.2-1.1c0.8,0.2,1.5,0.3,2.5,0.3h3.4v-3.2
			c0-1.4,0-1.7-0.1-2.7c0.6,0.1,1.1,0.1,1.4,0.1c1.5,0.1,1.9,0.2,1.9,0.5c0,0.3-0.3,0.4-1.2,0.6v4.7h3.8c0.7-0.9,0.9-1.1,1.6-1.9
			c1.1,0.8,1.5,1.1,2.5,2.1c0.1,0.1,0.1,0.2,0.1,0.3c0,0.1-0.1,0.2-0.3,0.2h-7.7v5.8h4.6c0.8-1,0.8-1,1.7-2c1.2,1,1.5,1.3,2.6,2.2
			c0.1,0.1,0.1,0.2,0.1,0.3c0,0.1-0.1,0.2-0.3,0.2h-8.5c0.2,0.5,0.5,1,1.2,2c1.4,2.3,3,3.8,5.2,5.3c1.3,0.8,2.2,1.3,3.9,1.8
			l-0.1,0.4c-1,0.2-1.6,0.8-2.1,1.9c-2.5-1.6-3.7-2.8-5.2-5c-1.3-1.9-2.2-3.5-3.1-5.9v5.2c0,5.2,0,5.2,0.1,8
			c-0.1,0.3-0.1,0.4-0.4,0.4c-0.3,0.1-0.7,0.2-1.2,0.2c-0.4,0-0.5-0.1-0.5-0.4c0,0,0-0.1,0-0.1c0.1-3.9,0.1-6.6,0.1-8V346
			c-1.9,2.9-3.4,4.7-6,6.8c-2,1.7-3.4,2.6-5.8,3.8l-0.4-0.4c2.5-1.6,4.7-3.5,6.8-5.8c1.8-2,2.7-3.4,4.3-6.4h-5.9v1.3
			c0,2.1,0,2.2,0,3.4c0,0.5-0.3,0.6-1.4,0.6c-0.3,0-0.4-0.1-0.4-0.4v-1.4h-3.8v2.6c0,0.4-0.3,0.5-1.1,0.6c-0.1,0-0.1,0-0.2,0
			c-0.1,0-0.1,0-0.1,0c-0.4,0-0.5-0.1-0.6-0.4c0.1-2.7,0.1-7.2,0.1-10.1c0-2.6,0-4.8-0.1-6.5c1.1,0.5,1.4,0.7,2.4,1.3h3.3
			c0.5-0.5,0.6-0.7,1.1-1.3c0.8,0.5,1,0.7,1.8,1.2c0.2,0.2,0.3,0.3,0.3,0.5c0,0.1-0.1,0.2-0.1,0.2c0,0.1-0.4,0.3-1,0.7
			c0,3.6,0,6,0,7H215.8z M203.4,346.9h3.8v-11.2h-3.8V346.9z"/>
		<path class="st0" d="M203.4,383.5c0,0.3-0.1,0.4-0.3,0.4c-0.2,0.1-0.7,0.2-1,0.2c-0.5,0-0.6-0.1-0.7-0.4c0.1-4.6,0.1-6.9,0.1-9.9
			c0-3.9,0-6.1-0.1-7.4c1,0.5,1.3,0.6,2.2,1.3h2.3c0.5-0.6,0.6-0.8,1.1-1.3c0.7,0.6,1,0.7,1.7,1.3c0.2,0.2,0.3,0.3,0.3,0.4
			c0,0.1-0.1,0.2-0.2,0.3c-0.1,0.1-0.2,0.2-0.4,0.3c-0.1,0-0.2,0.1-0.4,0.2c0,8,0,10.2,0.1,13.2c0,0.4-0.2,0.5-0.9,0.5
			c-0.3,0-0.5,0-0.6,0c0,0,0,0-0.1,0c-0.2,0-0.4-0.1-0.4-0.4v-1.4h-2.8V383.5z M203.4,380.2h2.8v-11.7h-2.8V380.2z M223.7,369.5
			c0.5-0.5,0.7-0.7,1.2-1.1c0.7,0.5,1,0.6,1.6,1.1c0.2,0.2,0.3,0.3,0.3,0.5c0,0.2-0.2,0.3-0.8,0.6c0,2.4,0,4.6,0.1,8
			c0,0.4-0.3,0.5-1,0.6c-0.2,0-0.3,0-0.3,0c0,0-0.1,0-0.1,0c-0.3,0-0.4-0.1-0.5-0.3v-0.4h-12.2v0.4c0,0.4-0.3,0.5-1,0.5
			c-0.1,0-0.3,0-0.3,0c0,0-0.1,0-0.1,0c-0.4,0-0.5-0.1-0.5-0.4c0-0.8,0-1.4,0-2l0.1-3.2c0-2.3,0-4.4-0.1-5.5c0.9,0.5,1.2,0.7,2,1.4
			h7.2c1.2-2.1,2-3.8,2.6-5.4c2.8,0.9,3.1,1,3.1,1.3c0,0.1-0.1,0.2-0.1,0.2c0,0-0.4,0.1-1.1,0.2c-0.4,0.5-0.7,0.8-0.9,1
			c-1.5,1.6-1.6,1.7-2.8,2.7H223.7z M222.1,380.7c0.4-0.5,0.5-0.7,1-1.2c0.7,0.5,0.9,0.7,1.6,1.2c0.2,0.2,0.3,0.3,0.3,0.4
			c0,0.2-0.2,0.5-0.7,0.8c0,0.8,0,0.9,0,1.7c0,2.2,0.1,5.8,0.1,7.1c0,0.4-0.4,0.6-1.4,0.6c-0.5,0-0.6-0.1-0.6-0.4c0,0,0-0.1,0-0.1
			v-1.1h-8.6v1.1c-0.1,0.5-0.4,0.6-1.4,0.6c-0.4,0-0.5-0.1-0.5-0.5c0.1-3,0.1-4.7,0.1-5.1c0-1.6-0.1-5-0.1-6.2
			c1,0.5,1.2,0.7,2.1,1.2H222.1z M216.8,373.6v-3.3h-4.9v3.3H216.8z M216.8,374.3h-4.9v3.4h4.9V374.3z M212.4,364.2
			c1.6,0.8,2.2,1.2,2.9,1.8c0.8,0.7,1,1,1,1.5c0,0.8-0.6,1.8-1,1.8c-0.3,0-0.4-0.1-0.8-1.1c-0.7-1.7-1.1-2.2-2.3-3.8L212.4,364.2z
			 M213.5,385.4v3.5h8.6v-3.5H213.5z M222.1,384.7v-3.3h-8.6v3.3H222.1z M224.1,370.2h-5.5v3.3h5.5V370.2z M218.6,374.3v3.4h5.5
			v-3.4H218.6z"/>
		<path class="st0" d="M220.7,397.5c2.3,0.8,4.6,2,5.8,2.9c1.2,0.9,1.6,1.6,1.6,2.6c0,1-0.5,2-1.1,2c-0.1,0-0.3-0.1-0.4-0.2
			c-0.2-0.2-0.2-0.2-1.5-2.2c-1-1.5-2.6-3.2-4.6-4.8L220.7,397.5z"/>
		<path class="st0" d="M156.7,26.4c4.7-4,7.3-7,9.9-11.5c1.9-3.4,3.6-7,3.6-8c0-0.3-0.1-0.4-0.6-0.4c-0.6,0-3.4,0.5-5.5,1
			c-2.2,0.5-4.2,1.1-5.5,1.7c-0.5,0.2-0.8,0.3-1.1,0.3c-0.6,0-1.4-0.6-2.1-1.6c-0.5-0.7-0.8-1.4-0.8-1.9c0-0.2,0-0.3,0.2-0.6
			c0.5,1.1,1.5,1.7,2.8,1.7c1,0,3.4-0.4,8.5-1.2c2.6-0.5,2.8-0.5,3.5-0.8c0.4-0.2,0.4-0.2,0.6-0.2c0.5,0,1.3,0.5,2.2,1.4
			c0.6,0.6,0.9,1.1,0.9,1.4c0,0.3-0.1,0.4-0.4,0.8c-0.4,0.4-0.5,0.6-1,1.7c-2.4,4.9-5.5,9.2-8.7,12.2c-1.9,1.7-3.7,3-6.2,4.5
			L156.7,26.4z"/>
		<path class="st0" d="M151.7,57.7c1.6-1.5,2.8-3.3,4-5.7c1.1-2.4,2.1-6.1,2.1-8.1c0-1.2-0.5-1.8-2-2.3c0.3-0.2,0.5-0.3,0.8-0.3
			c0.7,0,1.4,0.2,2.2,0.8c1.1,0.7,1.6,1.2,1.6,1.7c0,0.2-0.1,0.5-0.4,1.4c0,0.1,0,0.1-0.3,1.1c-1,3.2-1.2,3.9-2,5.5
			c-1.4,2.9-3.1,4.8-5.7,6.4L151.7,57.7z M177.3,45.7c-0.9,1.6-1.7,2.6-3.3,4.2c-1.7,1.9-4.5,4.3-6.4,5.5c-0.6,0.4-1.4,1.1-1.7,1.4
			c-0.2,0.2-0.4,0.3-0.6,0.3c-0.7,0-1.8-1.6-1.8-2.5c0-0.1,0.1-0.4,0.2-0.9c0.2-0.7,0.3-3.4,0.3-8.1c0-6.8-0.1-7.2-2.3-7.7
			c0.3-0.4,0.5-0.4,1-0.4c0.7,0,1.6,0.3,2.6,0.9c0.9,0.5,1.2,1,1.2,1.4c0,0.2,0,0.3-0.2,0.8c-0.1,0.4-0.3,1.4-0.4,2.9
			c-0.1,1.3-0.4,7.9-0.4,9c0,0.4,0,0.7,0.1,1.4c3.5-1.4,7.9-4.7,11.3-8.5L177.3,45.7z"/>
		<path class="st0" d="M163,73.4c0-2.2-0.1-2.8-0.5-3.3c-0.4-0.5-0.9-0.8-1.6-1c0.2-0.3,0.6-0.4,1-0.4c0.6,0,1.7,0.3,2.7,0.9
			c1,0.5,1.3,0.8,1.3,1.3c0,0.3-0.1,0.4-0.4,0.9c-0.3,0.5-0.4,1.8-0.4,13.2c0,6.3-0.2,7.4-1.2,7.4c-0.3,0-0.5-0.2-0.6-0.6
			c-0.2-0.5-0.3-1.5-0.3-3.7L163,73.4z"/>
		<path class="st0" d="M153.8,106c1.8,1,3.6,2.3,4.6,3.4c0.5,0.7,0.7,1.1,0.7,1.6c0,0.9-0.7,2-1.2,2c-0.2,0-0.4-0.2-0.6-0.8
			c-1.1-2.5-2.2-4.3-3.7-6L153.8,106z M157.5,125.3c2.3-1.6,3.8-2.9,5.7-5c3.1-3.4,5.8-7.7,7.4-11.7c0.4-1,0.6-1.6,0.6-2.1
			c0-0.8-0.5-1.4-1.9-1.9c0.3-0.2,0.4-0.3,0.8-0.3c0.8,0,2,0.4,3.1,1.2c0.8,0.5,1.1,1,1.1,1.5c0,0.3-0.1,0.4-0.4,0.8
			c-0.2,0.3-0.2,0.3-1.5,2.6c-2.2,4-2.9,5.1-4.8,7.4c-3,3.7-6,6.2-9.7,8L157.5,125.3z M160.4,104.5c3.2,1.7,4.9,3.3,4.9,4.6
			c0,1.1-0.5,2.2-1.1,2.2c-0.4,0-0.4-0.1-1-1.7c-0.7-1.7-1.6-3.3-3-4.8L160.4,104.5z"/>
		<path class="st0" d="M152.8,139.1c1.4,1.4,2.3,1.7,3.8,1.7c0.8,0,1.6-0.1,2.7-0.4c0.7-2,1.1-3.2,1.1-4.3c0-1-0.5-1.6-1.9-2.3
			c0.3-0.2,0.5-0.2,0.7-0.2c0.6,0,1.5,0.3,2.4,0.7c1,0.5,1.4,0.8,1.4,1.3c0,0.2-0.1,0.4-0.3,0.8c-0.1,0.2-0.7,1.5-1.8,3.7
			c2.2-0.8,2.5-0.9,3.3-1.7c0.2-0.2,0.3-0.2,0.6-0.2c1.2,0,2,0.4,2,0.9c0,0.8-1.9,1.5-6.6,2.6c-0.3,0.6-0.8,1.8-1.6,3.6
			c-0.9,2.1-3.2,7.1-3.5,7.6c-0.5,0.8-0.7,1.1-1.1,1.1c-0.5,0-0.9-0.9-0.9-2.1c0-0.6,0.1-0.8,0.3-1.1c0.7-0.7,1-1.2,1.4-1.8
			c1.5-2.2,2.5-4.2,3.7-7.1c-0.7,0.1-0.9,0.1-1.4,0.1c-1.1,0-1.9-0.2-2.6-0.6c-0.9-0.5-1.6-1.2-2.2-2.2L152.8,139.1z M168.7,140.7
			c2.1,0.2,3.7,0.7,5.1,1.7c1.2,0.8,1.9,1.7,1.9,2.3c0,0.5-0.3,0.9-0.8,0.9c-0.2,0-0.4-0.1-0.7-0.2c-0.8-0.5-1.4-0.6-2.9-0.6
			c-2.4,0-3.1,0.7-3.1,2.7c0,0.8,0.1,2.1,0.6,5.2c1.8,0.5,3.4,1.3,4.3,2c0.8,0.6,1.2,1.4,1.2,2.4c0,0.6-0.2,1-0.6,1
			c-0.3,0-0.4-0.1-1-0.8c-1.1-1.2-2.1-1.9-3.6-2.6c0,0.2,0,0.4,0,0.6c0,1.2-0.2,1.9-0.8,2.6c-0.8,0.8-2.2,1.3-3.9,1.3
			c-2.7,0-4.6-1.3-4.6-3.2c0-2.1,2.3-3.6,5.6-3.6c0.7,0,1,0,1.8,0.2c-0.1-2.4-0.1-2.6-0.1-3c0-2.5,0.2-3.4,1-4.3
			c0.6-0.6,1.4-1.1,2.8-1.4c0.5-0.1,0.5-0.2,1.6-0.4c-0.8-0.9-1.7-1.4-3.9-2.1L168.7,140.7z M167.1,153.9c-0.9-0.3-1.6-0.4-2.6-0.4
			c-2.5,0-4.1,0.9-4.1,2.3c0,1.1,1.1,1.8,3,1.8c2.4,0,3.7-1,3.7-2.9V153.9z"/>
		<path class="st0" d="M158.9,167.4c0.9,0,2.3,0.3,3,0.6c0.6,0.2,0.8,0.5,0.8,1c0,0,0,0,0,0.1c0,0.2,0,0.2-0.2,0.8
			c-0.4,1-0.7,3.6-0.7,6.1c0,1.8,0.2,2.2,1.2,2.2c0.6,0,1.3-0.2,4-1.5c0.5-0.3,0.9-0.4,1.2-0.4c0.7,0,1.4,0.6,1.4,1.3
			c0,0.4-0.2,0.7-0.6,0.9c-0.2,0.1-0.6,0.2-2,0.6c-3.6,1-5.6,1.9-7.5,3.4c-1.6,1.3-2.3,2.4-2.3,3.8c0,2.2,1.7,3.3,5,3.3
			c1.9,0,4.8-0.4,7-0.9c0.3-0.1,0.4-0.1,0.6-0.1c0.8,0,1.6,0.8,1.6,1.5c0,0.6-0.3,0.8-1.3,1c-1,0.2-4,0.4-5.8,0.4
			c-2.2,0-3.8-0.2-5.1-0.7c-2-0.8-3.3-2.5-3.3-4.5c0-1.7,1-3.4,2.9-5c0.9-0.8,1.9-1.4,3.7-2.4c0,0-0.1,0-0.1,0
			c-0.5,0-0.8-0.1-1.3-0.5c-0.7-0.6-1-1.7-1.1-5.9c-0.1-2.6-0.1-3-0.4-3.5c-0.4-0.6-0.9-0.9-2.2-1.1
			C158,167.5,158.3,167.4,158.9,167.4z M169.6,168.9c1.1,0.6,1.9,1.2,2.7,1.9c1.1,1,1.5,1.7,1.5,2.4c0,0.7-0.4,1.3-0.9,1.3
			c-0.4,0-0.4,0-1.3-2c-0.5-1.1-1.5-2.4-2.3-3.2L169.6,168.9z M172.7,167.2c1.1,0.5,1.9,1,2.8,1.7c1.2,0.9,1.6,1.5,1.6,2.3
			c0,0.7-0.3,1.2-0.7,1.2c-0.3,0-0.4-0.2-0.7-0.6c-1-1.9-1.6-2.7-3.3-4.3L172.7,167.2z"/>
		<path class="st0" d="M123.5,5.6c0.5-0.7,0.7-0.9,1.2-1.6c0.9,0.7,1.2,0.9,2,1.6c0.2,0.2,0.3,0.3,0.3,0.4c0,0.2-0.3,0.5-1.1,0.9
			c-0.4,8.5-0.4,8.8-0.8,11.8c-0.5,4.2-1.1,6.7-2.1,7.8c-0.7,0.8-1.6,1.2-4,1.5c-0.2-0.9-0.5-1.2-1-1.5c-0.3-0.1-1-0.3-1.9-0.4
			l-1.2-0.2c-0.4-0.1-0.8-0.1-1.2-0.2v-0.5c2.6,0.2,5.5,0.3,6.3,0.3c1,0,1.4-0.3,1.8-1.2c1-2.3,1.7-8.9,1.9-18h-16.6
			c-2.3,3.6-4,5.6-6.7,7.9l-0.4-0.3c2.4-2.8,4.2-5.5,5.8-8.9c0.7-1.5,1.1-2.6,1.6-4.4c2.8,0.6,3.4,0.8,3.4,1.1
			c0,0.3-0.3,0.4-1.6,0.7c-0.7,1.5-1,2.1-1.7,3.2H123.5z M115.5,10.4c0.4-0.5,0.6-0.7,1-1.3c0.7,0.5,1,0.7,1.6,1.3
			c0.2,0.2,0.3,0.3,0.3,0.4c0,0.2-0.2,0.4-0.8,0.8c0,0.7,0,1.2,0,1.6c0,1.2,0.1,7.7,0.1,8.9c0,0.2-0.1,0.3-0.3,0.4
			c-0.2,0.1-0.9,0.2-1.2,0.2c-0.4,0-0.5-0.1-0.6-0.4v-1.1h-7.9v2.1c0,0.5-0.3,0.6-1.4,0.6c-0.5,0-0.6-0.1-0.7-0.4
			c0.1-2.6,0.1-5.6,0.1-10.3c0-0.9,0-2.3-0.1-4c1.1,0.5,1.4,0.7,2.3,1.3H115.5z M115.7,15.3v-4.1h-7.9v4.1H115.7z M107.8,15.9v4.6
			h7.9v-4.6H107.8z"/>
		<path class="st0" d="M113.7,58.3c3.2-1,5.3-2.2,7-4.2c1.8-2,2.7-4.5,2.7-7.2c0-2.9-1.2-5.2-3.4-6.6c-1.3-0.9-3.3-1.4-5.2-1.4
			c-0.4,0-0.6,0-1,0.1c0.7,1.1,0.9,1.6,0.9,2.5c0,2.3-1.7,6.7-4,10.4c-1.9,3-3.4,4.5-4.5,4.5c-0.5,0-1-0.2-1.3-0.6
			c-0.3-0.4-0.3-0.5-0.8-1.9c-0.3-0.8-0.4-1.1-1.3-2.8c-0.5-1-0.7-1.8-0.7-2.7c0-1.9,1-4.1,2.7-5.9c2.4-2.6,6.4-4.2,10.3-4.2
			c3,0,5.8,1,7.7,2.8c1.9,1.8,2.9,4.1,2.9,7.1c0,3.8-2.2,7.1-6,9.1c-1.7,0.9-3.3,1.4-5.8,1.9L113.7,58.3z M103.9,48.9
			c0,1.4,0.5,2.9,1.2,4c0.4,0.5,0.8,0.9,1.1,0.9c0.7,0,2.1-1.6,3.6-4c2.2-3.5,3.8-7.4,3.8-9.3c0-0.5-0.1-0.8-0.4-1.5
			C107.9,40,103.9,44.3,103.9,48.9z"/>
		<path class="st0" d="M106.7,76.4c0.6-0.8,0.8-1.1,1.4-1.8c1.1,1.1,1.1,1.1,2.2,2c0.1,0.1,0.2,0.2,0.2,0.3c0,0.1-0.1,0.2-0.3,0.2
			h-4.3v9.6c1.4-0.5,2.2-0.8,4.5-1.7l0.2,0.4c-1.6,1.1-2.2,1.4-4.2,2.5c-2.4,1.2-2.5,1.3-4.3,2.3c-0.1,0.3-0.1,0.5-0.1,0.7
			c-0.1,0.5-0.2,0.7-0.4,0.7c-0.3,0-0.3,0-1.2-3.2c1-0.2,1-0.2,3.6-1.1V77.1h-1.7c-0.7,0-1.3,0.1-1.9,0.2l-0.2-1.1
			c0.6,0.2,1.3,0.2,2.1,0.2h1.7v-4.9c0-0.9,0-1.3-0.2-3.9c2.9,0.3,3.4,0.5,3.4,0.8c0,0.2-0.3,0.4-1.3,0.6v7.4H106.7z M116.9,76.1
			c0-7.2,0-7.2-0.2-9c2.8,0.4,2.8,0.4,3.1,0.6c0.1,0,0.2,0.2,0.2,0.2c0,0.2-0.1,0.3-1.3,0.7v6.8l4.2-1.6c0.3-0.7,0.5-0.9,0.8-1.6
			c1,0.5,1.3,0.7,2.2,1.2c0.3,0.2,0.3,0.3,0.3,0.4c0,0.2-0.4,0.5-1,1c-0.2,5.4-0.4,7.9-0.7,9.6c-0.2,0.8-0.5,1.4-1.1,1.7
			c-0.4,0.3-0.9,0.4-1.9,0.6c-0.1-1.3-0.6-1.7-2.4-2v-0.5c1.1,0.1,1.9,0.2,2.5,0.2c0.9,0,1-0.2,1.2-1.9c0.3-2.2,0.4-4.2,0.4-8.1
			l-4.6,1.7v5.1c0,2.8,0,3.9,0.1,6.9c0,0.4-0.4,0.5-1.5,0.5c-0.4,0-0.6-0.1-0.6-0.4c0.1-5.6,0.1-6.7,0.1-9.1v-2.4l-3.7,1.4v12.2
			c0,0.4,0,0.5,0.2,0.6c0.3,0.1,1.7,0.2,4.1,0.2c1.7,0,4.9-0.1,5.5-0.1c1.1-0.1,1.2-0.1,1.6-0.9c0.5-1.1,1.2-3.3,1.9-5.9l0.5,0.1
			l-0.5,5.3c-0.1,0.5-0.1,0.5-0.1,0.5c0,0.3,0.1,0.3,0.7,0.6c0.2,0.1,0.4,0.3,0.4,0.6c0,0.6-0.7,1.1-1.8,1.3
			c-0.9,0.1-0.9,0.1-4.9,0.2c-3.1,0-3.2,0-3.8,0c-5.1,0-5.6-0.2-5.7-2l0.1-6.7v-5.5l-1.1,0.4c-0.8,0.3-1.2,0.5-1.8,0.9l-0.6-0.9
			c0.8-0.2,1-0.2,2.2-0.7l1.3-0.5v-3.9c0-1.7,0-2.3-0.1-3.8c3,0.4,3.2,0.5,3.2,0.8c0,0.2-0.3,0.4-1.2,0.7v5.5L116.9,76.1z"/>
		<path class="st0" d="M122.1,103.5c0.7-0.9,1-1.1,1.6-2c1.2,0.9,1.6,1.2,2.8,2.1c0.2,0.1,0.2,0.2,0.2,0.3c0,0.1-0.2,0.2-0.4,0.2
			h-7.8c2.6,1,2.7,1.1,2.7,1.4c0,0.2,0,0.2-1.4,0.5c-0.7,0.8-1.7,1.8-3,3h5.7c0.8-1,1.1-1.3,1.9-2.2c1.3,1,1.6,1.3,2.8,2.4
			c0.1,0.1,0.1,0.2,0.1,0.3c0,0.1-0.2,0.3-0.4,0.3h-22.4c-0.1,5.3-0.3,7.4-0.9,9.5c-0.7,2.9-2.1,5.5-4,7.7l-0.4-0.3
			c0.9-1.5,1.3-2.4,1.9-4.3c0.9-3.2,1.2-6.2,1.2-12.4c0-1.1,0-1.5-0.1-2.6c1.2,0.7,1.5,0.9,2.5,1.6h5.5c-0.2-0.1-0.3-0.2-0.4-0.5
			c-0.5-1.7-1.2-2.9-2.3-4.1l0.3-0.2c2.3,1.1,3.6,2.2,3.6,3c0,0.3-0.1,0.7-0.4,1.2c-0.2,0.4-0.3,0.5-0.6,0.6h5.5
			c0.9-1.3,1.6-3,2.2-4.9H105c-0.7,0-1.7,0.1-2.7,0.2l-0.3-1.2c1.3,0.2,2.2,0.3,3,0.3h8v-1.5c0-0.8,0-1.3-0.1-2.3
			c3.3,0.3,3.4,0.4,3.4,0.7c0,0.3-0.3,0.5-1.2,0.8v2.3H122.1z M114.4,115v-2.2c0-0.8,0-1.2-0.1-2.3c2.6,0.3,3.2,0.4,3.2,0.7
			c0,0.2-0.2,0.3-1.2,0.7v3h4.6l1.6-1.9c1.2,0.8,1.6,1.1,2.7,2c0.1,0.1,0.2,0.2,0.2,0.3c0,0.1-0.2,0.2-0.4,0.2h-8.7v4.1h4
			c0.7-0.9,0.9-1.2,1.6-2c1.1,0.9,1.5,1.2,2.7,2.3c0.1,0.1,0.1,0.2,0.1,0.2c0,0.1-0.1,0.2-0.3,0.2h-8.2v4.9h6.2c0.9-1,1.2-1.3,2-2.2
			c1.3,1,1.7,1.3,3.1,2.4c0.1,0.1,0.1,0.2,0.1,0.3c0,0.1-0.1,0.2-0.4,0.2h-21.4c-0.4,0-1.1,0.1-2.1,0.2l-0.2-1.1
			c0.6,0.1,1.7,0.3,2.3,0.3h8.3v-4.9h-4.5c-0.5,0-1.3,0.1-2.3,0.2l-0.3-1.2c0.6,0.2,2,0.3,2.6,0.3h4.5v-4.1h-5.6
			c-1.4,2.1-2.3,3.2-3.9,4.5l-0.3-0.2c1.6-2.3,2.3-3.6,3.1-5.7c0.7-1.7,0.9-2.3,1.1-3.4c0.6,0.2,1.1,0.4,1.4,0.5
			c1.1,0.3,1.4,0.5,1.4,0.8c0,0.2-0.1,0.3-1.3,0.5c-0.5,1-0.7,1.4-1.3,2.3H114.4z"/>
		<path class="st0" d="M113.2,150.3c0.7,1.6,1.9,2.8,3.7,4.1c2.8-2.1,4.5-3.7,5.4-5.2c1.9,1,2.6,1.5,2.6,1.8c0,0.2-0.2,0.3-0.6,0.3
			c-0.1,0-0.4,0-0.8-0.1c-2.8,2-3.1,2.1-6.1,3.5c2.6,1.7,5.6,2.6,10,3v0.3c-1.5,0.4-1.8,0.8-2.1,2.2c-2.4-0.7-3.9-1.3-5.9-2.4
			c-2.7-1.5-4.9-3.7-6.1-6c-0.2-0.5-0.3-0.7-0.7-1.6h-4.2v6.3c3.1-0.5,4.3-0.8,6.7-1.4l0.1,0.3c-2.9,1.4-5,2.2-11,4.1
			c-0.1,0.8-0.2,1.1-0.5,1.1c-0.1,0-0.3-0.1-0.4-0.3c-0.1-0.2-0.2-0.6-0.4-1.2c-0.3-0.9-0.5-1.5-0.5-1.7c1.3-0.2,2.1-0.2,3.9-0.5
			v-14.8c-2.3,1.6-3.8,2.5-6.2,3.6l-0.2-0.5c5.4-3.4,10.7-8.6,12.7-12.6c0.7,0.2,1.2,0.3,1.5,0.4c1.4,0.3,1.7,0.4,1.7,0.8
			c0,0.3-0.2,0.3-1.2,0.4c1,1.5,1.9,2.4,3.6,3.8c3.3,2.5,6.3,3.9,9.9,4.5v0.4c-1,0.2-1.5,0.6-2,2c-2.2-1-3.1-1.5-4.6-2.5l-0.2,0.1
			l0.1,7.7c0,0.3-0.1,0.4-0.2,0.5c-0.2,0.1-1.2,0.4-1.5,0.4c-0.1,0-0.2-0.1-0.3-0.4v-0.4H113.2z M119.2,141.9
			c0.4-0.3,0.5-0.5,0.7-0.7c-1-0.8-1.8-1.6-2.8-2.7c-1.4-1.5-2-2.4-2.9-3.9c-2.4,3.1-4.1,4.8-6.7,6.7c0.3,0.2,0.4,0.3,0.7,0.5h4.5
			v-1.5c0-0.5-0.1-1.1-0.2-2.1c2,0.1,2.5,0.2,2.9,0.4c0.2,0.1,0.3,0.2,0.3,0.3c0,0.2-0.3,0.4-1,0.7v2.2H119.2z M119.4,145.5v-2.9
			h-10.9v2.9H119.4z M108.4,149.7h10.9v-3.5h-10.9V149.7z"/>
		<path class="st0" d="M108.4,172.7c0.6-0.8,0.8-1,1.4-1.8c1,0.9,1.3,1.1,2.2,2c0.1,0.1,0.1,0.2,0.1,0.3c0,0.1-0.1,0.2-0.3,0.2h-4
			v2.7c1.6,0.7,2.4,1.2,3.4,1.8c0.8,0.5,1.1,0.9,1.1,1.5c0,1-0.3,1.8-0.7,1.8c-0.2,0-0.4-0.1-0.8-0.9c-0.8-1.3-1.8-2.5-2.9-3.6
			c0,1.9,0,4.2,0,6.8c0,4.7,0,5.2,0.1,9.2c0,0.2-0.1,0.4-0.2,0.4c-0.1,0.1-1,0.2-1.6,0.2c-0.2,0-0.3-0.1-0.3-0.3c0,0,0-0.1,0-0.1
			c0-1.4,0.1-2.6,0.1-3.3c0.1-2.9,0.1-2.9,0.1-7.8l0.2-5.3c-2,5-3.1,6.8-6.2,10.3l-0.3-0.3c1.5-2.4,2.4-4,3.6-6.8
			c1.1-2.5,1.4-3.5,2.2-6.3h-3c-0.4,0-0.9,0-1.6,0.2l-0.2-1.1c0.7,0.2,1.1,0.2,1.7,0.2h3.4v-3.8c0-0.8,0-1.5-0.1-3
			c0.6,0.1,1.1,0.2,1.4,0.2c1.9,0.2,2.2,0.3,2.2,0.6c0,0.3-0.2,0.4-1.6,0.8v5.2H108.4z M122.5,184.3c0,1.4,0.1,2.5,0.1,3.3
			c0,1.2,0,1.2,0.1,2.3c0,1-0.1,1.4-0.4,1.9c-0.5,0.6-1.3,1-3,1.3c-0.2-0.7-0.3-1-0.7-1.2c-0.3-0.1-1-0.4-1.7-0.5
			c0,0-0.4-0.1-1.3-0.2l-1.4-0.2l0-0.5c2.5,0.1,2.9,0.1,6,0.2c0.4,0,0.5-0.1,0.5-0.5l-0.1-11.6l0-2.9c-1.6,2.9-2.7,4.5-4.9,6.9
			c-2.2,2.3-3.6,3.5-6.1,5.3l-0.3-0.4c3.4-3.1,4.9-4.8,7.2-8.2c1.5-2.2,2.1-3.5,3.2-5.8h-5c-0.4,0-1.1,0.1-1.7,0.2l-0.2-1.1
			c0.7,0.2,1.2,0.2,1.9,0.2h5.7v-3.8c0-1.4,0-1.8-0.2-2.9c0.6,0.1,1,0.1,1.3,0.1c1.7,0.2,2.3,0.3,2.3,0.6c0,0.3-0.3,0.5-1.5,0.8
			l0.1,5.1h1.3c0.7-0.9,0.9-1.2,1.6-2.1c1.2,1,1.6,1.3,2.7,2.3c0.1,0.1,0.1,0.2,0.1,0.2c0,0.1-0.1,0.2-0.3,0.2h-5.4L122.5,184.3z"/>
		<path class="st0" d="M103.6,204.2c1.4,1.1,2.1,1.4,3.7,1.4c1,0,1.8-0.1,3.2-0.4c0.7-1.3,1-2.4,1-3.1c0-0.8-0.6-1.3-2.1-1.7
			c0.5-0.3,0.8-0.3,1.3-0.3c0.7,0,1.6,0.2,2.3,0.5c0.7,0.3,1.1,0.6,1.1,1c0,0.2-0.1,0.4-0.5,0.9c-0.3,0.4-0.6,0.9-0.9,1.2
			c-0.5,0.9-0.5,0.9-0.7,1.2c2.5-0.7,3.3-1.1,4.3-1.9c0.2-0.1,0.4-0.2,0.6-0.2c1.2,0,2,0.4,2,1c0,0.4-0.4,0.7-1.3,1
			c-2.7,0.9-4.1,1.2-6.5,1.7c-0.5,0.7-0.9,1.3-1.6,2.3c-0.8,1.3-1,1.6-1.6,2.4c1.7-0.9,2.7-1.2,3.9-1.2c1.8,0,3.1,1.2,3.4,3
			c0.5-0.2,0.5-0.2,2.9-1.5c3-1.5,3.7-2,3.7-2.5c0-0.5-0.5-1.1-1.4-1.4c0.3-0.1,0.5-0.2,0.7-0.2c1.3,0,3.4,1.8,3.4,3
			c0,0.5-0.2,0.8-1.1,0.9c-1.8,0.4-5.7,1.9-8,3.1c0,1,0,1.1,0,2.4c0,1.4-0.1,2.3-0.2,2.6c-0.1,0.3-0.5,0.6-0.8,0.6
			c-0.6,0-1-0.4-1-0.9c0-0.2,0-0.3,0-0.5c0.1-0.9,0.2-1.9,0.2-3.2c-1.9,1-2.7,1.6-3.5,2.4c-1,1-1.5,1.9-1.5,2.8c0,1.6,1.6,2.4,5,2.4
			c2.1,0,4.2-0.3,6-0.8c0.2-0.1,0.4-0.1,0.6-0.1c0.9,0,2.1,0.8,2.1,1.5c0,0.4-0.3,0.7-0.9,0.8c-1.2,0.2-3.5,0.4-5.4,0.4
			c-2.8,0-4.9-0.3-6.1-0.9c-1.5-0.7-2.2-1.7-2.2-3.2c0-1.4,0.7-2.7,2.2-4.1c0.8-0.8,1.7-1.4,3.7-2.7c0-1.3-0.1-1.7-0.4-2.4
			c-0.3-0.5-0.9-0.9-1.5-0.9c-2,0-4.3,1.6-6.5,4.4c-0.6,0.8-0.8,1-1.1,1c-0.5,0-0.8-0.6-0.8-1.6c0-0.6,0-0.7,0.9-1.4
			c2.1-1.7,3.4-3.2,5.6-6.5c-1,0.1-1.4,0.2-2,0.2c-2,0-3.1-0.5-4.5-2.3L103.6,204.2z"/>
		<path class="st0" d="M99.7,246.3c1.6-2.3,2.8-4.6,4-7.6c1.2-3.1,1.8-5.1,1.9-7.1c3.1,0.7,3.6,0.9,3.6,1.2c0,0.3-0.4,0.5-1.3,0.6
			c-1.3,3.4-2.2,5.2-3.7,7.7c1.7,0.2,2.2,0.3,2.2,0.6c0,0.2-0.3,0.4-0.9,0.6v7.4l0,3.8c0,0.9,0,0.9,0.1,5c0,0.4-0.4,0.5-1.4,0.5
			c-0.7,0-0.7,0-0.7-0.5c0.1-4.4,0.1-6.3,0.1-8.3v-8c-1.5,2.2-1.9,2.8-3.4,4.3L99.7,246.3z M112.2,248.6c0,0.1,0,0.1,0,0.1
			c0,0.8,0.8,1.8,2.3,3.2c0.7-1.4,1.1-2.9,1.3-4.9h-5v0.8c0,0.4-0.3,0.5-1.5,0.5c-0.4,0-0.5-0.1-0.5-0.4c0.1-1.7,0.1-3.3,0.1-6.2
			c0-1.2,0-1.6-0.1-2.8c1,0.5,1.3,0.7,2.4,1.4h4.8l0-3.4h-4.4c-1.8,0-2.5,0-3.6,0.2l-0.2-1.2c1.3,0.2,2.3,0.3,3.8,0.3h4.4v-1.4
			c0-1.2,0-1.7-0.1-2.9c2.7,0.4,2.8,0.4,3.2,0.5c0.1,0.1,0.2,0.2,0.2,0.3c0,0.2-0.4,0.4-1.1,0.7c-0.1,1.4-0.1,1.7-0.1,2.8h5.3
			c0.6-0.7,1.1-1.4,1.6-2c1.3,0.9,1.6,1.1,2.8,2.1c0.1,0.2,0.2,0.3,0.2,0.4c0,0.1-0.1,0.2-0.4,0.2h-9.6l-0.1,3.4h4.9
			c0.4-0.5,0.7-0.9,1-1.4c0.9,0.6,1.1,0.8,1.9,1.4c0.3,0.2,0.4,0.3,0.4,0.4c0,0.2-0.2,0.5-1,0.9c0,4.1,0,4.1,0.1,7
			c0,0.5-0.3,0.6-1.5,0.6c-0.5,0-0.6-0.1-0.6-0.4V247h-5.3c-0.4,2.6-0.9,4.1-2,5.9c3.1,2.1,6.6,3,11.8,3v0.3
			c-1.2,0.5-1.6,0.9-2.1,2.4c-2.5-0.3-4.4-0.9-6.6-2.1c-1.4-0.8-2.6-1.6-3.8-2.6c-2.1,2.3-4.2,3.5-8.5,5l-0.2-0.4
			c3.9-2,6-3.5,7.5-5.7c-0.8-0.9-1-1.2-2.2-3c-0.3-0.4-0.4-0.5-0.6-0.7L112.2,248.6z M110.8,241v5.3h5c0.1-2,0.1-2.5,0.2-5.3H110.8z
			 M118.1,241c-0.1,3.7-0.1,3.7-0.2,5.3h5.2V241H118.1z"/>
		<path class="st0" d="M114.2,285.2c3.7-0.8,6.2-1.8,8.3-3.6c1.6-1.4,2.5-3.1,2.5-4.9c0-2.6-1.8-4.4-4.5-4.4c-2.9,0-6.8,1.6-10,4.1
			c-0.6,0.4-0.8,0.6-1.2,0.6c-1.1,0-2.9-2.2-2.9-3.5c0-0.2,0.1-0.3,0.2-0.6c0.5,1.1,1.1,1.7,1.9,1.7c0.4,0,1.1-0.2,2.6-0.8
			c2.7-1.1,5.1-1.9,6.8-2.2c0.7-0.1,1.4-0.2,2.3-0.2c3.9,0,6.7,2.4,6.7,5.8c0,2.1-1.3,4.3-3.2,5.6c-2.4,1.7-5,2.5-9.5,3L114.2,285.2
			z"/>
		<path class="st0" d="M102.2,305.5c1.2,1.3,2,1.7,3.3,1.7c1.2,0,2.4-0.2,3.8-0.6c0.6-2,1-4.1,1-5.1c0-0.9-0.5-1.3-2.1-1.9
			c0.4-0.2,0.5-0.3,0.9-0.3c0.7,0,1.7,0.2,2.6,0.6c0.9,0.3,1.3,0.8,1.3,1.2c0,0.2,0,0.2-0.4,0.7c-0.4,0.6-1.1,2.2-1.8,4.3
			c1.7-0.6,2.8-1.2,3.5-1.8c0.5-0.4,0.6-0.5,0.8-0.5c0.4,0,1.1,0.2,1.6,0.3c0.3,0.1,0.5,0.3,0.5,0.5c0,0.5-0.5,0.9-1.7,1.5
			c-1.3,0.6-3.4,1.3-5.2,1.7c-0.4,1-0.4,1-1.3,3.8c-0.6,1.8-0.6,1.8-2.2,6.7c-1.2,3.6-1.6,4.3-2.2,4.3c-0.3,0-0.5-0.2-0.7-0.6
			c-0.2-0.5-0.4-1.2-0.4-1.7c0-0.5,0-0.6,0.7-1.5c1.5-2.2,2.7-4.8,4.7-10.7c-1.1,0.2-2,0.3-2.9,0.3c-1.8,0-3-0.8-4.1-2.7
			L102.2,305.5z M114.1,315.8c0,0.4,0,0.8,0,0.9c0,1.7,0.8,3,2.3,3.6c0.8,0.4,2,0.6,3.2,0.6c1.2,0,1.9-0.1,2.9-0.4
			c0.2-0.1,0.4-0.1,0.5-0.1c0.3,0,1,0.3,1.5,0.7c0.4,0.3,0.5,0.6,0.5,0.8c0,0.7-1.2,1-3.5,1c-2.3,0-4.2-0.3-5.5-1
			c-1.6-0.8-2.6-2.3-2.6-4.4c0-0.7,0.1-1.2,0.3-1.9L114.1,315.8z M114.9,310.3c2.2-1.3,4.6-2,7-2c0.6,0,1.4,0.2,1.9,0.5
			c0.3,0.2,0.5,0.5,0.5,0.8c0,0.5-0.3,0.7-1.1,0.7c-1.1,0.1-1.5,0.2-2.3,0.6c-0.6,0.3-0.6,0.3-1.6,1c-0.6,0.4-0.6,0.4-1,0.6
			l-0.2-0.3c0.4-0.4,0.4-0.4,1.4-1.4c0.3-0.2,0.5-0.5,1.5-1.4c-2,0-3.6,0.3-5.7,1.1L114.9,310.3z"/>
		<path class="st0" d="M56.4,16.3c-0.1,0.7-0.1,0.9-0.1,1.4c0,3.6,2.2,5.3,7.1,5.3c2.4,0,4.9-0.4,6.6-1.1c0.2-0.1,0.4-0.1,0.5-0.1
			c0.4,0,1.1,0.3,1.6,0.6c0.4,0.3,0.7,0.7,0.7,1.1c0,0.5-0.3,0.8-1,0.9c-1.4,0.4-4.3,0.6-7,0.6c-3.4,0-5.5-0.4-7-1.4
			c-1.5-1-2.5-2.9-2.5-4.7c0-0.7,0.1-1.5,0.5-2.5L56.4,16.3z M57.3,4.4c1.5,1,2.6,1.3,4.6,1.3c2,0,4.5-0.4,6.2-0.9
			c0.2-0.1,0.5-0.1,0.5-0.1c0.8,0,1.8,0.9,1.8,1.6c0,0.5-0.2,0.6-2.2,1.1c-1.2,0.2-1.4,0.4-4.4,1.5c-0.7,0.3-0.7,0.3-2.5,1
			c-0.6,0.2-0.6,0.3-1.2,0.5l-0.2-0.4C61,9.3,61.5,9,62.3,8.6c2-1.1,2-1.1,2.5-1.4c-0.7,0.1-1.7,0.1-2.2,0.1c-1.1,0-2.5-0.3-3.4-0.8
			C58.4,6,57.9,5.6,57,4.7L57.3,4.4z"/>
		<path class="st0" d="M51.9,41.7c1.2,1.3,2,1.7,3.3,1.7c1.2,0,2.4-0.2,3.8-0.6c0.6-2,1-4.1,1-5.1c0-0.9-0.4-1.3-2.1-1.9
			c0.4-0.2,0.5-0.3,0.9-0.3c0.7,0,1.7,0.2,2.6,0.6c0.9,0.3,1.3,0.8,1.3,1.2c0,0.2,0,0.2-0.4,0.7c-0.4,0.6-1.1,2.3-1.8,4.3
			c1.5-0.5,2.8-1.2,3.5-1.8c0.5-0.4,0.6-0.5,0.8-0.5c0.4,0,1.1,0.2,1.6,0.3c0.3,0.1,0.5,0.3,0.5,0.5c0,0.5-0.5,0.9-1.7,1.4
			c-1.3,0.6-3.4,1.3-5.2,1.8c-0.2,0.6-0.4,1.1-0.4,1.1c-1,3-2,6.1-3.1,9.4c-1.2,3.6-1.6,4.3-2.2,4.3c-0.3,0-0.5-0.2-0.7-0.6
			c-0.2-0.5-0.4-1.2-0.4-1.7c0-0.5,0-0.6,0.7-1.5c1.4-2,2.8-5.1,4.7-10.7c-1.1,0.2-2,0.3-2.9,0.3c-1.8,0-3-0.8-4.1-2.7L51.9,41.7z
			 M63.9,52.1c0,0.4,0,0.8,0,0.9c0,1.7,0.8,3,2.3,3.6c0.8,0.4,2,0.6,3.2,0.6c1.2,0,1.9-0.1,2.9-0.4c0.2-0.1,0.4-0.1,0.5-0.1
			c0.3,0,1,0.3,1.5,0.7c0.4,0.3,0.5,0.6,0.5,0.8c0,0.7-1.2,1-3.5,1c-2.3,0-4.2-0.3-5.5-1c-1.6-0.8-2.5-2.3-2.5-4.4
			c0-0.7,0.1-1.2,0.3-1.9L63.9,52.1z M64.7,46.5c2.2-1.3,4.6-2,7-2c0.6,0,1.4,0.2,1.9,0.5c0.3,0.2,0.5,0.5,0.5,0.8
			c0,0.5-0.3,0.7-1.1,0.7c-1.1,0-1.4,0.1-2.3,0.6c-0.4,0.2-0.8,0.4-1,0.6l-1.1,0.7c-0.1,0.1-0.3,0.2-0.6,0.4l-0.2-0.3
			c0.2-0.2,0.4-0.4,0.5-0.5l1-0.9c0.2-0.2,0.7-0.6,1.5-1.4c-0.1,0-0.2,0-0.2,0c-1.6,0-3.7,0.4-5.5,1.1L64.7,46.5z M69.9,35.7
			c1.1,0.6,1.9,1.2,2.7,1.9c1.1,1,1.5,1.7,1.5,2.4c0,0.7-0.4,1.3-0.9,1.3c-0.4,0-0.4,0-1.3-2c-0.5-1.1-1.5-2.4-2.3-3.2L69.9,35.7z
			 M73,34c1.1,0.5,2,1,2.9,1.7c1.1,0.9,1.5,1.5,1.5,2.3c0,0.7-0.3,1.2-0.7,1.2c-0.3,0-0.5-0.2-0.7-0.6c-1.1-1.9-1.6-2.7-3.3-4.3
			L73,34z"/>
		<path class="st0" d="M65,91.1c5.4-1.9,8.3-5.1,8.3-9.1c0-2.9-1.9-5-4.6-5c-2.7,0-6.1,1.6-9.3,4.2c0,2.4,0.2,5.7,0.3,6.9
			C60,88.9,60,89,60,89.3c0,1-0.2,2-0.6,2.8c-0.2,0.4-0.4,0.6-0.7,0.6c-0.2,0-0.5-0.1-0.6-0.4c0-0.1,0-0.1-0.3-0.8
			c-0.3-0.8-0.4-1.1-1-1.8c-0.8-1-1.3-1.5-2.3-2.3c-0.1,0.3-0.2,0.5-0.3,0.6c-0.4,0.8-0.6,1.1-0.9,1.1c-0.4,0-0.9-1.1-0.9-2.1
			c0-0.4,0.1-0.6,0.6-1.1c0.5-0.5,0.8-0.9,1.3-1.5c0.9-1.1,3.7-5.1,4.4-6.3c0.1-1.1,0.1-1.8,0.1-2.2c-1.3,0.8-1.3,0.8-2.9,1.9
			c-0.6,0.4-0.9,0.6-1.2,0.6c-0.5,0-1.1-0.4-1.6-1c-0.5-0.6-0.7-1.3-0.7-1.7c0-0.1,0.1-0.3,0.1-0.5c0.5,1,1.1,1.4,1.8,1.4
			c0.6,0,2.8-0.9,4.6-1.9c0.1-0.6,0.1-2.3,0.1-3c0-1.9-0.2-2.3-1.8-3.5c0.2-0.1,0.3-0.2,0.4-0.2c0.6,0,1.6,0.5,2.5,1.1
			c0.7,0.5,1.1,1,1.1,1.4c0,0.2,0,0.2-0.4,1.2c-0.3,0.8-0.5,1.5-0.6,2.5c0.7,0.6,1.1,1.1,1.1,1.4c0,0.2,0,0.2-0.5,0.8
			c-0.3,0.4-0.6,0.9-1.1,2c-0.1,0.4-0.1,0.5-0.1,1c1.7-1,2.2-1.2,3.1-1.6c2.1-1.1,4.2-1.6,6.1-1.6c3.9,0,6.8,2.6,6.8,6.2
			c0,3-1.7,5.5-4.9,7.3c-1.7,0.9-3.3,1.4-5.5,1.8L65,91.1z M56.4,83.9c-1.5,2.5-1.5,2.5-1.7,2.9c1.3,1,1.4,1,3.6,2.4
			c0-1.9,0.1-6.4,0.2-8.9C56.7,83.4,56.7,83.5,56.4,83.9z"/>
		<path class="st0" d="M60.7,126.9c2.1-1.3,3.4-2.5,4.8-4.2c2.1-2.8,3.1-6.2,3.1-10.1c0-2.6-0.5-5.1-1.1-6.2
			c-0.5-0.9-1.3-1.3-2.1-1.3c-1.5,0-2.9,1.3-4,3.8c-0.9,2-1.4,4.4-1.4,6.5c0,0.5,0,0.8,0.1,1.9c0,0.2,0,0.4,0,0.6
			c0,0.6-0.3,0.9-0.8,0.9c-1.1,0-1.9-2.4-1.9-6.2c0-2.5,0.2-4.1,1-8c0.2-1.2,0.3-1.8,0.3-2.2c0-1-0.4-1.5-1.6-2.1
			c0.2-0.1,0.4-0.2,0.5-0.2c0.6,0,1.6,0.4,2.4,1c0.8,0.6,1.2,1.1,1.2,1.7c0,0.4-0.1,0.6-0.4,1.1c-1.1,1.9-2.2,6.2-2.2,8.9
			c0,0.3,0,0.6,0,1.1h0.1c0.9-3.8,2-6.3,3.5-7.9c1.1-1.2,2.3-1.8,3.7-1.8c2.9,0,4.9,3.5,4.9,8.6c0,3.9-1.1,7.1-3.3,9.8
			c-1.8,2.2-3.8,3.6-6.6,4.7L60.7,126.9z"/>
		<path class="st0" d="M63.7,157.3c3.2-1,5.3-2.2,7-4.2c1.8-2,2.7-4.5,2.7-7.2c0-2.9-1.2-5.2-3.4-6.6c-1.3-0.9-3.3-1.4-5.2-1.4
			c-0.4,0-0.6,0-1,0.1c0.7,1.1,0.9,1.6,0.9,2.5c0,2.3-1.7,6.7-4,10.4c-1.9,3-3.4,4.5-4.5,4.5c-0.5,0-1-0.2-1.3-0.6
			c-0.3-0.4-0.3-0.5-0.8-1.9c-0.3-0.8-0.4-1.1-1.3-2.8c-0.5-1-0.7-1.8-0.7-2.7c0-1.9,1-4.1,2.7-5.9c2.4-2.6,6.4-4.2,10.3-4.2
			c3,0,5.8,1,7.7,2.8c1.9,1.8,2.9,4.1,2.9,7.1c0,3.8-2.2,7.1-6,9.1c-1.7,0.9-3.3,1.4-5.8,1.9L63.7,157.3z M53.9,148
			c0,1.4,0.5,2.9,1.2,4c0.4,0.5,0.8,0.9,1.1,0.9c0.7,0,2.1-1.6,3.6-4c2.2-3.5,3.8-7.4,3.8-9.3c0-0.5-0.1-0.8-0.4-1.5
			C57.9,139,53.9,143.4,53.9,148z"/>
		<path class="st0" d="M57.8,179c1.2,0.5,1.7,0.8,2.5,1.3c0.7,0.4,1.2,0.8,1.4,1.1c0.2,0.2,0.2,0.4,0.2,0.9c0,0.9-0.4,1.7-0.7,1.7
			c-0.2,0-0.4-0.2-0.6-0.6c-0.8-1.8-1.6-2.9-2.8-3.9c0,0.8,0.1,5.2,0.1,13.3c-0.1,0.2-0.1,0.3-0.4,0.4c-0.4,0.1-0.9,0.2-1.2,0.2
			c-0.4,0-0.6-0.1-0.6-0.5c0.2-2.5,0.2-2.5,0.2-7.9l0.2-5.6c-1.1,2.7-1.8,4-3,6.1c-1,1.6-1.5,2.3-2.7,3.6l-0.3-0.2
			c1.7-2.8,2.4-4.1,3.6-7.2c0.8-2,1.1-2.8,1.5-4.5h-3.2c-0.3,0-0.9,0.1-1.3,0.2l-0.1-1.1c0.4,0.2,1.1,0.3,1.4,0.3H56v-6.5
			c0-1.2-0.1-2.1-0.3-4c2.9,0.3,3.4,0.4,3.4,0.7c0,0.3-0.3,0.5-1.3,0.7v9.1h1.8c0.5-0.8,0.7-1.1,1.3-1.8c1,0.8,1.3,1.1,2.2,2
			c0.1,0.1,0.1,0.2,0.1,0.2c0,0.1-0.1,0.2-0.4,0.2h-5V179z M51.4,168.4c0.8,0.8,1.2,1.4,2.1,2.8c0.6,0.9,0.8,1.4,0.8,1.9
			c0,0.9-0.6,1.9-1.1,1.9c-0.2,0-0.3-0.1-0.4-0.4c0-0.1,0-0.1-0.3-1.6c-0.2-1.2-0.7-3-1.3-4.4L51.4,168.4z M58.7,174.9
			c0.7-1.8,0.9-2.3,1.3-4.1c0.4-1.7,0.5-1.9,0.6-2.7c2.2,0.6,2.8,0.8,2.8,1.1c0,0.2-0.3,0.3-1,0.4c-0.5,1-0.6,1.3-1.6,2.9
			c-0.8,1.3-1.1,1.7-1.8,2.5L58.7,174.9z M74.5,183c0.6-1,0.7-1.3,1.3-2.3c1.2,0.6,1.6,0.8,2.6,1.5c0.3,0.2,0.5,0.4,0.5,0.5
			c0,0.1-0.1,0.3-0.3,0.3l-4.8,0.9l0,2.9c0,0.8,0,2.1,0.1,3.8c0,0.9,0,1,0,2.1c0,0.2-0.1,0.3-0.2,0.4c-0.1,0.1-0.9,0.2-1.5,0.2
			c-0.4,0-0.5-0.1-0.5-0.4c0-1.3,0-5.9,0-8.6l-8.4,1.6c-0.4,0.1-1.1,0.3-1.5,0.5l-0.4-1.1c0.1,0,0.2,0,0.3,0c0.3,0,1.1-0.1,1.4-0.1
			l8.5-1.7v-6.3c0-6.2-0.1-9.6-0.2-11.3c2.7,0.3,3.5,0.5,3.5,0.8c0,0.3-0.3,0.4-1.3,0.7c0,2.5,0,4.7,0,5.9c0,1.8,0,6.5,0.1,9.8
			L74.5,183z M63.7,176.5c2.3,0.8,3.9,1.6,4.6,2.2c0.4,0.3,0.5,0.6,0.5,1.3c0,0.9-0.3,1.7-0.7,1.7c-0.3,0-0.5-0.2-0.9-0.9
			c-0.8-1.3-1.7-2.3-3.6-4.1L63.7,176.5z M64.7,168.9c1.9,0.8,2.8,1.3,3.7,1.9c0.8,0.6,1,1,1,2.1c0,1-0.3,1.6-0.7,1.6
			c-0.3,0-0.4-0.1-0.9-1.1c-0.8-1.5-1.5-2.4-3.3-4.2L64.7,168.9z"/>
		<path class="st0" d="M56.3,209.7h0.6c0.6-0.7,0.8-1,1.4-1.7c0.9,0.8,1.2,1.1,2,2c0.1,0.1,0.1,0.1,0.1,0.2c0,0.1-0.1,0.2-0.3,0.2
			h-3.8v7.4c2.1-1,2.9-1.4,4.6-2.3l0.2,0.4c-2.5,2-5.9,4.2-9,5.9c-0.1,1-0.2,1.3-0.4,1.3c-0.3,0-0.6-0.6-1.6-2.9
			c1.5-0.5,2.5-0.8,4.1-1.5v-8.3h-1.8c-0.5,0-0.9,0-1.8,0.1l-0.2-1.1c0.7,0.2,1.5,0.2,2,0.2h1.7v-7.4h-1.7c-0.8,0-1.2,0-2,0.2
			l-0.2-1.1c0.8,0.2,1.2,0.2,2.2,0.2h4.2c0.7-0.7,0.8-1,1.5-1.7c1,0.8,1.2,1.1,2.2,2c0.1,0.1,0.1,0.2,0.1,0.3c0,0.1-0.1,0.2-0.3,0.2
			h-4.1V209.7z M69.1,217.8H73c0.7-0.8,0.9-1.1,1.6-1.8c1.1,0.9,1.4,1.2,2.5,2.1c0.1,0.1,0.1,0.1,0.1,0.2c0,0.1-0.1,0.2-0.4,0.2
			h-7.6v5.5h5c0.7-0.9,1-1.2,1.7-2c1.1,1,1.5,1.3,2.5,2.3c0.1,0.1,0.1,0.2,0.1,0.2c0,0.2-0.1,0.2-0.4,0.2H60.3c-0.5,0-1,0-2.4,0.1
			l-0.2-1.1c0.9,0.2,1.7,0.3,2.6,0.3h6.9v-5.5H63c-0.5,0-0.8,0-2.3,0.1l-0.2-1.1c1,0.2,1.2,0.2,2.5,0.2h4.3v-4.9H63v1.4
			c-0.1,0.4-0.2,0.5-0.9,0.5c-1,0-1.2-0.1-1.2-0.5c0.1-2.7,0.2-5.2,0.2-9.5c0-3.3,0-3.8-0.2-5.2c1,0.6,1.3,0.8,2.2,1.4h10.4
			c0.5-0.6,0.6-0.8,1.2-1.4c0.8,0.6,1.1,0.8,1.8,1.4c0.2,0.2,0.3,0.3,0.3,0.4c0,0.1-0.1,0.2-0.1,0.3c-0.1,0-0.4,0.3-1,0.7
			c0,1.3,0,2.6,0,3.3c0,3.5,0,5.6,0.2,8.2c0,0.3-0.1,0.4-0.3,0.5c-0.1,0.1-1,0.2-1.4,0.2c-0.3,0-0.3-0.1-0.4-0.4v-1.2h-4.7V217.8z
			 M67.3,201.6H63v5h4.3V201.6z M67.3,207.3H63v4.9h4.3V207.3z M73.8,206.6v-5h-4.7v5H73.8z M69.1,212.2h4.7v-4.9h-4.7V212.2z"/>
		<path class="st0" d="M59.6,233.3c0.9,0,2.3,0.3,3,0.6c0.6,0.2,0.8,0.5,0.8,1c0,0,0,0.1,0,0.1c0,0.2,0,0.2-0.2,0.8
			c-0.4,1-0.7,3.6-0.7,6.1c0,1.8,0.2,2.2,1.2,2.2c0.6,0,1.3-0.2,4-1.5c0.5-0.3,0.9-0.4,1.2-0.4c0.7,0,1.4,0.6,1.4,1.3
			c0,0.4-0.2,0.7-0.6,0.9c-0.2,0.1-0.6,0.2-2,0.6c-3.6,1-5.6,1.9-7.5,3.4c-1.6,1.3-2.3,2.4-2.3,3.8c0,2.2,1.7,3.3,5,3.3
			c1.9,0,4.8-0.4,7-0.9c0.3-0.1,0.4-0.1,0.6-0.1c0.8,0,1.6,0.7,1.6,1.5c0,0.5-0.3,0.8-1.3,1c-1,0.2-4,0.4-5.8,0.4
			c-2.2,0-3.8-0.2-5.1-0.7c-2-0.8-3.3-2.5-3.3-4.4c0-1.7,1-3.4,2.9-5c0.9-0.8,1.9-1.4,3.7-2.4c-0.7,0-0.9-0.1-1.4-0.4
			c-0.4-0.3-0.7-1-0.9-2.3c-0.1-0.7-0.1-1.4-0.2-3.6c-0.1-2.6-0.1-3-0.4-3.5c-0.3-0.6-0.9-0.9-2.2-1.1
			C58.7,233.4,59,233.3,59.6,233.3z"/>
		<path class="st0" d="M59.6,266.3c0.9,0,2.3,0.3,3,0.6c0.6,0.2,0.8,0.5,0.8,1c0,0,0,0.1,0,0.1c0,0.2,0,0.2-0.2,0.8
			c-0.4,1-0.7,3.6-0.7,6.1c0,1.8,0.2,2.2,1.2,2.2c0.6,0,1.3-0.2,4-1.5c0.5-0.3,0.9-0.4,1.2-0.4c0.7,0,1.4,0.6,1.4,1.3
			c0,0.4-0.2,0.7-0.6,0.9c-0.2,0.1-0.6,0.2-2,0.6c-3.6,1-5.6,1.9-7.5,3.4c-1.6,1.3-2.3,2.4-2.3,3.8c0,2.2,1.7,3.3,5,3.3
			c1.9,0,4.8-0.4,7-0.9c0.3-0.1,0.4-0.1,0.6-0.1c0.8,0,1.6,0.7,1.6,1.5c0,0.5-0.3,0.8-1.3,1c-1,0.2-4,0.4-5.8,0.4
			c-2.2,0-3.8-0.2-5.1-0.7c-2-0.8-3.3-2.5-3.3-4.4c0-1.7,1-3.4,2.9-5c0.9-0.8,1.9-1.4,3.7-2.4c-0.7,0-0.9-0.1-1.4-0.4
			c-0.4-0.3-0.7-1-0.9-2.3c-0.1-0.7-0.1-1.4-0.2-3.6c-0.1-2.6-0.1-3-0.4-3.5c-0.3-0.6-0.9-0.9-2.2-1.1
			C58.7,266.4,59,266.3,59.6,266.3z"/>
		<path class="st0" d="M55.4,303.2c0.7,1.1,1.2,1.6,2.1,2.2c1,0.7,1.9,1,3.5,1.3c0.8-4.2,0.9-4.6,0.9-5.3c0-1-0.4-1.7-1.6-2.5
			c0.2-0.1,0.3-0.1,0.5-0.1c0.5,0,1.3,0.3,2.2,0.9c1,0.7,1.6,1.5,1.6,2.2c0,0.3-0.1,0.5-0.4,0.9c-0.5,0.7-0.8,1.5-1.6,4.2
			c0.6,0.2,0.9,0.3,1.2,0.7c0.2,0.3,0.4,0.7,0.4,1c0,0.4-0.4,0.6-1,0.6c-0.3,0-0.7-0.1-1.2-0.2c-0.6,2-1,3.8-1.2,5.6
			c0.7,0.1,1.2,0.2,1.5,0.2c0.1,0,0.1,0,0.2,0c0.2,0,0.3,0,0.3,0c0.8,0,1.8,0.9,1.8,1.6c0,0.4-0.4,0.7-1,0.7c-0.8,0-2.1-0.2-3.2-0.5
			c-0.1,0.7-0.1,1.1-0.1,1.5c0,3.1,1.7,4.8,4.7,4.8c2,0,3.8-0.8,4.7-2c0.7-0.9,1-1.9,1-3.1c0-2.5-1.7-5.3-4.5-7.5l0.3-0.4
			c4.4,2.7,6.3,5.2,6.3,8.3c0,3.6-3.1,6.4-7.3,6.4c-1.6,0-3.1-0.4-4.1-1.2c-1.6-1.2-2.3-3-2.3-5.6c0-0.4,0-0.8,0.1-1.5
			c-1.2-0.5-1.8-0.9-2.4-1.5c-0.8-0.8-1.3-2-1.3-3c0-0.7,0.3-1.4,0.9-2.1c0.7-0.7,1.5-1.1,2.9-1.6c-1.2-0.4-2-1-2.9-1.9
			c-0.6-0.7-1-1.3-1.6-2.6L55.4,303.2z M57.2,309.9c-0.4,0.5-0.7,0.9-0.7,1.5c0,1.3,1,2.2,3.1,2.8c0.1-1.5,0.4-3.2,0.9-5.5
			C58.8,308.8,57.9,309.1,57.2,309.9z"/>
		<path class="st0" d="M58.5,345c-0.1,0.3-0.5,2.2-1.3,5.6c-0.4,1.8-0.5,2.3-0.5,3.2c0,0.9,0,1.1-0.1,1.3c-0.1,0.3-0.4,0.5-0.7,0.5
			c-0.5,0-1-0.4-1.3-1.2c-0.7-1.6-1-4-1-6.4c0-0.9,0.1-2,0.2-3.2c0.2-1.7,0.2-1.7,1-5.7c0.3-1.4,0.4-2.2,0.4-2.8
			c0-1-0.2-1.7-0.8-2.8c0.7,0,1.2,0.4,2,1.5c0.7,0.9,1.1,1.7,1.1,2.4c0,0.5,0,0.6-0.6,1.8c-0.6,1.3-1.3,3.4-1.6,4.8
			c-0.3,1.1-0.4,2.4-0.4,3.7c0,1.7,0.1,2.7,0.6,4c0.5-1,0.7-1.7,1.1-2.6l1.6-4.2L58.5,345z M62.2,346.5c-0.1,0.6-0.1,0.9-0.1,1.3
			c0,3.3,1.9,4.7,6.5,4.7c0.9,0,1.7-0.1,2.6-0.2c0.6-0.1,0.6-0.1,1.6-0.5c0.2-0.1,0.3-0.1,0.4-0.1c0.8,0,1.9,1,1.9,1.8
			c0,0.4-0.2,0.6-0.7,0.8c-0.6,0.2-2.1,0.3-3.7,0.3c-3.7,0-6.4-0.6-7.8-1.8c-1.1-1-1.6-2.3-1.6-3.9c0-0.8,0.1-1.4,0.4-2.4
			L62.2,346.5z M62.2,337c1.1,0.6,1.7,0.8,2.8,0.8c1.9,0,4.8-0.7,6-1.4c0.4-0.2,0.5-0.2,0.7-0.2c0.2,0,0.6,0.2,1,0.4
			c0.6,0.4,0.9,0.7,0.9,1.1c0,0.4-0.2,0.6-0.8,0.7c-2,0.3-3.1,0.6-4.3,1.1c-0.9,0.4-2.7,1.4-3.9,2.1l-0.3-0.3c1.3-1.1,2.4-2,2.8-2.3
			c-0.6,0-1,0.1-1.2,0.1c-1.7,0-2.8-0.4-4.1-1.7L62.2,337z"/>
		<path class="st0" d="M0.3,8c3.4,1.1,4.6,1.9,4.6,3c0,0.9-0.5,1.8-0.9,1.8c-0.2,0-0.4-0.1-0.6-0.5c-0.8-1.4-1.8-2.6-3.3-3.9L0.3,8z
			 M23.8,9.8c0.7-0.9,1-1.1,1.7-1.9C26.6,8.7,26.9,9,28,10c0.1,0.1,0.1,0.2,0.1,0.3c0,0.1-0.1,0.2-0.3,0.2h-10v3h6
			c0.4-0.4,0.7-0.7,1.1-1.1c0.8,0.5,1,0.7,1.7,1.2c0.2,0.2,0.2,0.3,0.2,0.4c0,0.2-0.1,0.3-1,0.8v6.4c0,1.1,0,2.4,0.1,4.6
			c0,0.6-0.1,0.9-0.3,1.1c-0.4,0.5-1,0.7-2.8,1.1c-0.1-0.7-0.2-1-0.7-1.4c-0.5-0.3-0.8-0.4-3.4-0.8v-0.4c3.3,0.1,3.3,0.1,4.6,0.1
			c0.5,0,0.6-0.1,0.6-0.5V14.1h-6.1V22H20v-3.8c0-0.8,0-1.2-0.1-2c2.7,0.3,2.9,0.4,2.9,0.7c0,0.2-0.2,0.3-1.1,0.6
			c0,4.7,0,4.7,0.1,5.9c0,0.2-0.1,0.3-0.2,0.3c-0.2,0.1-0.8,0.1-1.2,0.1c-0.3,0-0.4-0.1-0.4-0.3v-0.8h-6.1V24c0,0.4-0.2,0.5-0.9,0.5
			c-0.2,0-0.4,0-0.4,0c-0.1,0-0.1,0-0.1,0c-0.3,0-0.5-0.1-0.5-0.3c0.1-1.4,0.1-2,0.1-3.7c0-2.6,0-3.4-0.1-4.4
			c2.7,0.3,2.9,0.3,2.9,0.6c0,0.2-0.2,0.3-1.1,0.6V22H16v-7.8h-5.7v13.3c0,0.5-0.3,0.6-1.6,0.6c-0.3,0-0.4-0.1-0.4-0.3
			c0,0,0,0,0-0.1c0-1.5,0.1-9.1,0.1-12.3c0-1,0-2.1-0.1-3.2c0.9,0.5,1.3,0.7,2.3,1.3H16v-3H7.5l-2.8,9.1c-0.1,0.4-0.3,1.1-0.3,1.4
			c0,0.2,0,0.2,0.4,1.5c0.3,1.1,0.5,2,0.5,2.7c0,0.8-0.3,1.5-1,2c-0.4,0.3-0.8,0.5-1.2,0.5c-0.4,0-0.5-0.2-0.5-0.7
			c0-0.1,0-0.4,0.1-1c0.1-1.2,0.2-2.7,0.2-3.6c0-0.9-0.2-1.6-0.5-1.9c-0.3-0.3-0.6-0.5-2-1l0.1-0.4C0.7,19,0.9,19,1,19.1
			c0.6,0.1,1,0.2,1.2,0.2c0.4,0,0.5-0.1,0.8-0.8C4,16.8,6.9,9.9,8,6.8L8.5,7L7.7,9.8h5V5.9H11c-1.1,0-1.6,0-2.5,0.2L8.3,4.9
			c1.1,0.2,1.9,0.3,2.9,0.3h1.5V3.1c0-0.2,0-0.6-0.1-1.2c0-0.2,0-0.6-0.1-1.1c0.6,0.1,1,0.1,1.3,0.2C15.6,1.2,16,1.3,16,1.6
			c0,0.2-0.2,0.3-1.4,0.7v2.9h4.7V2.9c0-0.5,0-0.9-0.1-2.1C19.8,0.9,20.2,1,20.5,1c1.6,0.2,1.9,0.3,1.9,0.6c0,0.2-0.3,0.4-1.3,0.6v3
			h1.7c0.7-0.8,0.9-1.1,1.6-1.8c1.1,0.8,1.4,1.1,2.5,2c0.1,0.2,0.1,0.2,0.1,0.3c0,0.1-0.1,0.2-0.3,0.2h-5.6v3.9H23.8z M2.2,1.5
			C5.4,2.6,7,3.6,7,4.7c0,0.9-0.5,1.8-0.9,1.8C5.9,6.5,5.7,6.4,5.5,6c-0.8-1.5-2-2.8-3.6-4.2L2.2,1.5z M19.3,5.9h-4.7v3.9h4.7V5.9z"
			/>
		<path class="st0" d="M3.1,40c1.3,1.4,2.1,1.7,4,1.7c0.7,0,1.3-0.1,2.1-0.2c0.1-0.5,0.1-0.5,0.4-2.2c0.2-0.9,0.4-2.1,0.4-2.5
			c0-1-0.7-1.4-2.2-1.6c0.5-0.4,0.9-0.6,1.5-0.6c0.9,0,2,0.3,2.8,0.7c0.6,0.3,0.9,0.7,0.9,1.1c0,0.3-0.1,0.4-0.4,0.9
			c-0.5,0.6-1.1,1.9-1.8,4c2.3-0.4,4.4-1.2,5.3-2c0.2-0.2,0.3-0.3,0.6-0.3c0.4,0,1,0.1,1.4,0.3c0.5,0.2,0.7,0.4,0.7,0.7
			c0,0.5-0.5,0.9-1.7,1.3c-1.9,0.8-4.1,1.2-6.7,1.5c-0.8,3-1.2,6-1.3,8.3c3.3-1.7,6.5-2.7,9-2.7c3.4,0,5.6,1.7,5.6,4.4
			c0,2.4-1.7,4.4-4.8,5.7c-2.4,1-5.2,1.4-8.8,1.4l0-0.4c3.1-0.5,3.5-0.6,4.7-1c4.3-1.3,6.6-3.5,6.6-6.2c0-1.8-1.2-2.9-3.3-2.9
			c-2.1,0-4.4,0.9-6.7,2.6c-0.9,0.7-1.3,1.1-1.7,1.8C9.5,54,9.3,54.2,9,54.2c-0.8,0-1.8-1.3-1.8-2.3c0-0.5,1-5.8,1.7-8.9
			C8.3,43,8,43,7.6,43c-2.4,0-3.7-0.7-5-2.7L3.1,40z"/>
		<path class="st0" d="M2.2,74.3c1.2,1.3,2,1.7,3.3,1.7c1.2,0,2.4-0.2,3.8-0.6c0.6-2,1-4.1,1-5.1c0-0.9-0.5-1.3-2.1-1.9
			c0.4-0.2,0.5-0.3,0.9-0.3c0.7,0,1.7,0.2,2.6,0.6c0.9,0.3,1.3,0.8,1.3,1.2c0,0.2,0,0.2-0.4,0.7c-0.4,0.6-1.1,2.2-1.8,4.3
			c1.7-0.6,2.8-1.2,3.5-1.8c0.5-0.4,0.6-0.5,0.8-0.5c0.4,0,1.1,0.2,1.6,0.3c0.3,0.1,0.5,0.3,0.5,0.5c0,0.5-0.5,0.9-1.7,1.5
			c-1.3,0.6-3.4,1.3-5.2,1.7c-0.4,1-0.4,1-1.3,3.8c-0.6,1.8-0.6,1.8-2.2,6.7c-1.2,3.6-1.6,4.3-2.2,4.3c-0.3,0-0.5-0.2-0.7-0.6
			c-0.2-0.5-0.4-1.2-0.4-1.7c0-0.5,0-0.6,0.7-1.5c1.5-2.2,2.7-4.8,4.7-10.7c-1.1,0.2-2,0.3-2.9,0.3c-1.8,0-3-0.8-4.1-2.7L2.2,74.3z
			 M14.1,84.7c0,0.4,0,0.8,0,0.9c0,1.7,0.8,3,2.3,3.6c0.8,0.4,2,0.6,3.2,0.6c1.2,0,1.9-0.1,2.9-0.4c0.2-0.1,0.4-0.1,0.5-0.1
			c0.3,0,1,0.3,1.5,0.7c0.4,0.3,0.5,0.6,0.5,0.8c0,0.7-1.2,1-3.5,1c-2.3,0-4.2-0.3-5.5-1c-1.6-0.8-2.6-2.3-2.6-4.4
			c0-0.7,0.1-1.2,0.3-1.9L14.1,84.7z M14.9,79.1c2.2-1.3,4.6-2,7-2c0.6,0,1.4,0.2,1.9,0.5c0.3,0.2,0.5,0.5,0.5,0.8
			c0,0.5-0.3,0.7-1.1,0.7c-1.1,0.1-1.5,0.2-2.3,0.6c-0.6,0.3-0.6,0.3-1.6,1c-0.6,0.4-0.6,0.4-1,0.6l-0.2-0.3
			c0.4-0.4,0.4-0.4,1.4-1.4c0.3-0.2,0.5-0.5,1.5-1.4c-2,0-3.6,0.3-5.7,1.1L14.9,79.1z"/>
		<path class="st0" d="M10.7,126.9c2.1-1.3,3.4-2.5,4.8-4.2c2.1-2.8,3.1-6.2,3.1-10.1c0-2.6-0.5-5.1-1.1-6.2
			c-0.5-0.9-1.3-1.3-2.1-1.3c-1.5,0-2.9,1.3-4,3.8c-0.9,2-1.4,4.4-1.4,6.5c0,0.5,0,0.8,0.1,1.9c0,0.2,0,0.4,0,0.6
			c0,0.6-0.3,0.9-0.8,0.9c-1.1,0-1.9-2.4-1.9-6.2c0-2.5,0.2-4.1,1-8c0.2-1.2,0.3-1.8,0.3-2.2c0-1-0.4-1.5-1.6-2.1
			c0.2-0.1,0.4-0.2,0.5-0.2c0.6,0,1.6,0.4,2.4,1c0.8,0.6,1.2,1.1,1.2,1.7c0,0.4-0.1,0.6-0.4,1.1c-1.1,1.9-2.2,6.2-2.2,8.9
			c0,0.3,0,0.6,0,1.1h0.1c0.9-3.8,2-6.3,3.5-7.9c1.1-1.2,2.3-1.8,3.7-1.8c2.9,0,4.9,3.5,4.9,8.6c0,3.9-1.1,7.1-3.3,9.8
			c-1.8,2.2-3.8,3.6-6.6,4.7L10.7,126.9z"/>
		<path class="st0" d="M2.2,140.4c1.2,1.3,2,1.7,3.3,1.7c1.2,0,2.4-0.2,3.8-0.6c0.6-2,1-4.1,1-5.1c0-0.9-0.5-1.3-2.1-1.9
			c0.4-0.2,0.5-0.3,0.9-0.3c0.7,0,1.7,0.2,2.6,0.6c0.9,0.3,1.3,0.8,1.3,1.2c0,0.2,0,0.2-0.4,0.7c-0.4,0.6-1.1,2.2-1.8,4.3
			c1.7-0.6,2.8-1.2,3.5-1.8c0.5-0.4,0.6-0.5,0.8-0.5c0.4,0,1.1,0.2,1.6,0.3c0.3,0.1,0.5,0.3,0.5,0.5c0,0.5-0.5,0.9-1.7,1.5
			c-1.3,0.6-3.4,1.3-5.2,1.7c-0.4,1-0.4,1-1.3,3.8c-0.6,1.8-0.6,1.8-2.2,6.7c-1.2,3.6-1.6,4.3-2.2,4.3c-0.3,0-0.5-0.2-0.7-0.6
			c-0.2-0.5-0.4-1.2-0.4-1.7c0-0.5,0-0.6,0.7-1.5c1.5-2.2,2.7-4.8,4.7-10.7c-1.1,0.2-2,0.3-2.9,0.3c-1.8,0-3-0.8-4.1-2.7L2.2,140.4z
			 M14.1,150.7c0,0.4,0,0.8,0,0.9c0,1.7,0.8,3,2.3,3.6c0.8,0.4,2,0.6,3.2,0.6c1.2,0,1.9-0.1,2.9-0.4c0.2-0.1,0.4-0.1,0.5-0.1
			c0.3,0,1,0.3,1.5,0.7c0.4,0.3,0.5,0.6,0.5,0.8c0,0.7-1.2,1-3.5,1c-2.3,0-4.2-0.3-5.5-1c-1.6-0.8-2.6-2.3-2.6-4.4
			c0-0.7,0.1-1.2,0.3-1.9L14.1,150.7z M14.9,145.2c2.2-1.3,4.6-2,7-2c0.6,0,1.4,0.2,1.9,0.5c0.3,0.2,0.5,0.5,0.5,0.8
			c0,0.5-0.3,0.7-1.1,0.7c-1.1,0.1-1.5,0.2-2.3,0.6c-0.6,0.3-0.6,0.3-1.6,1c-0.6,0.4-0.6,0.4-1,0.6l-0.2-0.3
			c0.4-0.4,0.4-0.4,1.4-1.4c0.3-0.2,0.5-0.5,1.5-1.4c-2,0-3.6,0.3-5.7,1.1L14.9,145.2z"/>
		<path class="st0" d="M3.5,175v18c0,0.4-0.3,0.5-1.6,0.5c-0.4,0-0.5-0.1-0.5-0.4c0.1-3.9,0.2-8.2,0.2-19.5c0-3.3,0-5.2-0.1-7.7
			c1.1,0.5,1.4,0.7,2.4,1.3h5.9c0.5-0.6,0.6-0.8,1.1-1.4c0.8,0.5,1,0.7,1.7,1.3c0.2,0.2,0.3,0.3,0.3,0.4c0,0.2-0.2,0.4-1,0.8
			c0,0.7,0,1,0,1.5c0,1.1,0,1.9,0.1,6.4c0,0.2-0.1,0.3-0.3,0.4c-0.1,0.1-0.8,0.1-1.2,0.1c-0.4,0-0.5-0.1-0.5-0.4c0,0,0,0,0-0.1V175
			H3.5z M10,167.8H3.5v2.8H10V167.8z M10,171.3H3.5v3H10V171.3z M17.7,183.7h1.6c0.6-0.8,0.8-1,1.4-1.7c1,0.9,1.3,1.2,2.3,2.1
			c0,0.1,0.1,0.1,0.1,0.2s-0.1,0.1-0.2,0.1h-5.2v1.5c0,2.3,0,3.1,0.1,5.9c0,0,0,0.1,0,0.1c0,0.3-0.4,0.5-1.5,0.5
			c-0.3,0-0.5-0.1-0.5-0.4c0,0,0-0.1,0-0.1c0-0.9,0-2.9,0.1-5.9v-1.7h-4.2c-0.3,2.5-0.7,3.7-1.8,5.1c-1.2,1.5-2.5,2.4-4.7,3.4
			l-0.3-0.4c2.1-1.3,3.4-2.6,4.2-4.4c0.5-1,0.6-1.7,0.8-3.7H7.8c-1,0-1.7,0.1-2.4,0.2l-0.3-1.1c0.8,0.2,1.5,0.2,2.7,0.2h2.1
			c0.1-1.1,0.1-2,0.1-2.9c0-0.7,0-0.8,0-1.5H8.3c-1.1,0-1.4,0-2.2,0.1l-0.3-1.1c0.8,0.2,1.4,0.3,2.5,0.3h10.1c0.6-0.8,0.8-1,1.4-1.7
			c1,0.9,1.4,1.2,2.4,2.1c0.1,0.1,0.1,0.1,0.1,0.2s-0.1,0.2-0.2,0.2h-4.3V183.7z M11.8,179.3c0,0.8,0,1.1,0,1.4c0,1.1,0,1.8-0.1,3
			h4.2v-4.4H11.8z M17.7,175v1c0,0.2-0.1,0.3-0.3,0.4c-0.2,0-0.8,0.1-1.2,0.1c-0.4,0-0.5-0.1-0.5-0.4c0.1-2.2,0.1-2.8,0.1-5.1
			c0-3.1,0-3.8-0.1-5.2c1,0.5,1.3,0.7,2.2,1.3h6c0.5-0.6,0.7-0.8,1.2-1.5c0.7,0.5,1,0.7,1.7,1.2c0.3,0.2,0.4,0.3,0.4,0.5
			c0,0.2-0.1,0.3-0.8,0.8v14l0.1,9c-0.1,0.8-0.3,1.1-1,1.6c-0.6,0.3-1.2,0.5-2.5,0.7c-0.2-1.4-0.6-1.7-3.5-2.1v-0.5
			c3,0.1,3,0.1,3.6,0.1c0.2,0,0.6,0,1,0c0.3,0,0.3-0.1,0.3-0.7V175H17.7z M24.2,167.8h-6.5v2.8h6.5V167.8z M24.2,171.3h-6.5v3h6.5
			V171.3z"/>
		<path class="st0" d="M10.4,204.8c0.7-0.8,0.9-1.1,1.6-1.9c1.1,0.9,1.3,1.1,2.2,2.1c0.1,0.1,0.2,0.2,0.2,0.3c0,0.1-0.1,0.2-0.3,0.2
			H6.2c-0.1,1.8-0.1,3.2-0.2,4.3h3.7c0.5-0.5,0.6-0.7,1.1-1.2c0.7,0.5,0.9,0.6,1.5,1.1c0.2,0.2,0.3,0.3,0.3,0.4
			c0,0.2-0.2,0.4-0.8,0.8c-0.3,6-1,11-1.8,12.5c-0.6,1.1-1.4,1.6-3.4,1.7c-0.1-1.4-0.5-1.7-2.8-2.2l0.1-0.4c2.2,0.2,2.2,0.2,2.8,0.3
			c0.3,0,0.5,0.1,0.7,0.1c0.7,0,0.9-0.4,1.3-2c0.6-2.5,1-6.5,1-10.5H6c-0.2,2.7-0.4,4.4-0.9,6.4c-0.5,2.3-1.5,4.6-2.7,6.5
			c-0.6,0.8-1,1.4-1.9,2.3L0,225.3c1.5-2.3,2.3-4.1,3-6.8c0.9-3.4,1.2-7.2,1.3-13.1H3c-0.4,0-1.2,0.1-2.3,0.2l-0.3-1.1
			c0.7,0.1,2,0.2,2.6,0.2h2.8v-3.4c0-0.9,0-1.4-0.1-2.3c0.6,0.1,1.1,0.2,1.4,0.2c1.6,0.2,1.8,0.3,1.8,0.6c0,0.2-0.3,0.5-1.1,0.7v4.1
			H10.4z M24.7,206.6c-0.4,4.7-1.5,8.2-3.8,11.7c2.2,2.5,4.3,3.8,7.6,5l-0.1,0.4c-1.3,0.1-1.9,0.6-2.4,1.9c-2.6-1.6-4.3-3.2-6.1-5.9
			c-1.3,1.5-2.7,2.8-4.6,3.9c-2,1.2-3.4,1.8-6,2.5l-0.2-0.4c2.4-1.1,3.7-1.8,5.5-3.1c1.9-1.4,3.2-2.8,4.4-4.5
			c-1.4-2.6-2.7-6.2-3.1-8.7c-0.9,1.8-1.6,2.8-3,4.5l-0.3-0.2c1.6-3,2.6-5.8,3.6-10c0.5-2.1,0.7-3.3,0.8-4.7
			c2.9,0.7,3.3,0.8,3.3,1.1c0,0.2-0.2,0.3-1.2,0.5c-1,3.2-1.2,3.8-1.7,5.3h6.3c0.6-0.7,1.2-1.5,1.8-2.2c1.2,1.1,1.5,1.4,2.7,2.4
			c0.1,0.1,0.2,0.2,0.2,0.3c0,0.1-0.2,0.2-0.3,0.2H24.7z M17,206.6c-0.3,0.8-0.4,1.1-0.7,1.8c0.8,3.5,1.9,6.1,3.4,8.4
			c1.7-3,2.6-6.3,2.8-10.2H17z"/>
		<path class="st0" d="M18.4,236c0.2,2.8,0.7,5,1.6,7.1c1.1-1.8,1.7-3.2,2.1-4.9c2.8,0.8,2.8,0.8,2.8,1.1c0,0.3-0.1,0.3-1.3,0.4
			c-1.3,2.5-1.8,3.4-2.9,4.9c1,1.7,1.9,2.5,3.8,3.5c1.2-2.6,1.3-2.8,2-4.8l0.4,0.1l-0.7,3.9c0,0.1,0,0.2-0.1,0.4
			c0,0.2-0.1,0.4-0.1,0.6c0,0.3,0.1,0.5,0.4,0.8c0.3,0.2,0.4,0.5,0.4,0.7c0,0.5-0.4,0.9-1,0.9c-0.8,0-2.1-0.6-3.4-1.5
			c-1.1-0.8-2-1.7-2.9-3.1c-1.6,1.7-2.9,2.8-5.6,4.2l-0.3-0.3c2.2-1.6,3.4-2.8,5.1-5.1c-1.3-2.3-1.8-4.1-2.3-8.6H5.5
			c-0.1,5.8-0.2,6.9-0.7,9c-0.4,1.6-1.2,3.3-2.1,4.8c-0.5,0.8-0.9,1.2-1.8,2.3l-0.3-0.3c1.2-2.1,1.8-3.6,2.3-5.8
			c0.5-2.1,0.6-4.2,0.6-9.3c0-1.3,0-1.6-0.2-2.7c1.1,0.5,1.4,0.7,2.4,1.4h10.9c-0.1-0.6-0.1-0.8-0.1-1.1c-0.1-1.4-0.2-1.7-0.3-2.6
			c2.4,0.2,3,0.3,3,0.6c0,0.2-0.1,0.3-1,0.6c0,1.2,0.1,1.5,0.1,2.5h4.8c0.6-0.7,0.6-0.7,1.4-1.7c1,0.8,1.3,1.1,2.2,1.9
			c0.1,0.1,0.1,0.2,0.1,0.2c0,0.1-0.2,0.3-0.3,0.3H18.4z M5.5,251.3c0,0.3,0,0.5,0,0.7c0,1.5-0.7,3.6-1.5,4.7
			c-0.7,0.9-1.3,1.4-1.8,1.4c-0.4,0-0.8-0.8-0.8-1.8c0-0.6,0.1-0.8,0.9-1.1c0.7-0.3,1.5-1.1,2.1-2c0.4-0.6,0.5-1.1,0.7-2H5.5z
			 M12.9,238.9c0.6-0.8,0.7-1,1.3-1.7c0.9,0.8,1.2,1.1,2.1,1.9c0.1,0.1,0.1,0.2,0.1,0.2c0,0.1-0.1,0.2-0.3,0.2H8.4
			c-0.7,0-1.1,0-2,0.2l-0.1-1.1c0.5,0.2,0.5,0.2,1.2,0.2c0.7,0.1,0.9,0.1,0.9,0.1H12.9z M8.8,248.2c0,0.5-0.2,0.5-1.6,0.5
			c-0.2,0-0.3-0.1-0.4-0.3c0.1-1.3,0.1-1.7,0.1-2.7c0-3.3,0-3.7-0.1-4.9c1,0.5,1.3,0.7,2.2,1.3h4c0.5-0.6,0.6-0.8,1.1-1.3
			c0.7,0.5,0.8,0.7,1.5,1.3c0.2,0.2,0.2,0.3,0.2,0.4c0,0.2-0.1,0.3-0.8,0.7l0.1,4.1c0,0.5-0.3,0.6-1.5,0.6c-0.3,0-0.4-0.1-0.4-0.3
			V247H8.8V248.2z M8,252.3c0-0.8,0-1.1-0.1-1.9c2.8,0.3,3.2,0.4,3.2,0.7c0,0.2-0.2,0.3-1.1,0.6v3.9c0,0.4,0,0.5,0.1,0.6
			c0.1,0.1,0.3,0.1,1.2,0.2c0.5,0,2.3,0.1,2.7,0.1c0.3,0,3.4-0.1,3.9-0.1c0.8,0,0.9-0.1,1.3-0.9c0.4-0.9,0.7-1.7,1.3-3.8l0.4,0
			l-0.4,3.7c0,0.1,0,0.3,0,0.4c0,0.3,0,0.3,0.7,0.5c0.3,0.1,0.5,0.4,0.5,0.7c0,0.5-0.4,0.9-1,1c-0.8,0.1-4.5,0.3-7.5,0.3
			c-3.4,0-4.1-0.1-4.7-0.4c-0.6-0.3-0.7-0.6-0.8-1.4c0-0.2,0-0.4,0-0.5l0-1.7V252.3z M8.8,246.3h4.5v-3.5H8.8V246.3z M12.3,250.1
			c1.3,0.3,2.4,0.6,3.9,1.3c0.9,0.4,1.3,0.9,1.3,1.6c0,0.7-0.3,1.2-0.6,1.2c-0.3,0-0.3,0-1.2-1.1c-0.4-0.5-1.2-1.2-2-1.8
			c-0.4-0.3-0.8-0.5-1.6-0.9L12.3,250.1z M19.9,231.8c1,0.2,1.9,0.4,2.5,0.7c0.7,0.3,0.9,0.6,0.9,1.1c0,0.3-0.1,0.7-0.3,1
			c-0.1,0.2-0.2,0.3-0.4,0.3c-0.2,0-0.2,0-0.5-0.5c0-0.1,0-0.1-0.8-1c-0.4-0.5-0.8-0.8-1.6-1.4L19.9,231.8z M22.3,251.1
			c1.4,0.8,2.2,1.4,3.4,2.4c1.2,1,1.6,1.5,1.6,2.1c0,0.4-0.3,1.4-0.5,1.7c-0.2,0.3-0.4,0.4-0.5,0.4c-0.1,0-0.3-0.1-0.4-0.2
			c-0.2-0.2-0.2-0.2-0.7-1.3c-0.8-1.8-1.6-3.1-3.2-4.8L22.3,251.1z"/>
		<path class="st0" d="M8.5,279c-0.1,0.3-0.5,2.2-1.3,5.6c-0.4,1.8-0.5,2.3-0.5,3.2c0,0.9,0,1.1-0.1,1.3c-0.1,0.3-0.4,0.5-0.7,0.5
			c-0.5,0-1-0.4-1.3-1.2c-0.7-1.6-1-4-1-6.4c0-0.9,0.1-2,0.2-3.2c0.2-1.7,0.2-1.7,1-5.7c0.3-1.4,0.4-2.2,0.4-2.8
			c0-1-0.2-1.7-0.8-2.8c0.7,0,1.2,0.4,2,1.5c0.7,0.9,1.1,1.7,1.1,2.4c0,0.5,0,0.6-0.6,1.8c-0.6,1.3-1.3,3.4-1.6,4.8
			c-0.3,1.1-0.4,2.4-0.4,3.7c0,1.7,0.1,2.7,0.6,4c0.5-1,0.7-1.7,1.1-2.6l1.6-4.2L8.5,279z M12.2,280.5c-0.1,0.6-0.1,0.9-0.1,1.3
			c0,3.3,1.9,4.7,6.5,4.7c0.9,0,1.7-0.1,2.6-0.2c0.6-0.1,0.6-0.1,1.6-0.5c0.2-0.1,0.3-0.1,0.4-0.1c0.8,0,1.9,1,1.9,1.8
			c0,0.4-0.2,0.6-0.7,0.8c-0.6,0.2-2.1,0.3-3.7,0.3c-3.7,0-6.4-0.6-7.8-1.8c-1.1-1-1.6-2.3-1.6-3.9c0-0.8,0.1-1.4,0.4-2.4
			L12.2,280.5z M12.2,271c1.1,0.6,1.7,0.8,2.8,0.8c1.9,0,4.8-0.7,6-1.4c0.4-0.2,0.5-0.2,0.7-0.2c0.2,0,0.6,0.2,1,0.4
			c0.6,0.4,0.9,0.7,0.9,1.1c0,0.4-0.2,0.6-0.8,0.7c-2,0.3-3.1,0.6-4.3,1.1c-0.9,0.4-2.7,1.4-3.9,2.1l-0.3-0.3c1.3-1.1,2.4-2,2.8-2.3
			c-0.6,0-1,0.1-1.2,0.1c-1.7,0-2.8-0.4-4.1-1.7L12.2,271z"/>
		<path class="st0" d="M0.6,305c1.5,0.5,2.5,1,3.4,1.5C4.8,307,5,307.4,5,308c0,1-0.3,1.7-0.7,1.7c-0.3,0-0.4-0.1-1-1
			c-0.7-1.2-1.5-2.1-3-3.4L0.6,305z M0.9,315.9c0.8,0.2,1.5,0.3,1.7,0.3c0.4,0,0.5-0.2,1.2-1.6l4.9-10.8l0.5,0.1l-4.4,12.2
			c-0.2,0.6-0.3,1.1-0.3,1.4c0,0.4,0.1,0.7,0.4,1.8c0.3,1.1,0.4,2.1,0.4,2.8c0,0.6-0.2,1.3-0.5,1.6c-0.4,0.5-1.2,0.9-1.7,0.9
			c-0.3,0-0.5-0.3-0.5-0.8c0-0.2,0.1-0.7,0.1-1.3c0.3-1.6,0.3-2.3,0.3-3.4c0-0.8-0.1-1.3-0.4-1.8c-0.3-0.5-0.7-0.8-1.8-1.3
			L0.9,315.9z M2.5,298.5c1.7,0.7,2.6,1.1,3.7,1.7c0.7,0.4,1,0.8,1,1.4c0,0.8-0.5,1.7-0.9,1.7c-0.2,0-0.5-0.2-0.7-0.7
			c-1-1.5-1.9-2.6-3.3-3.9L2.5,298.5z M27.7,322.3c-1.2,0.4-1.4,0.7-1.9,2.3c-2.2-0.5-3.3-0.9-5-1.7c-1.5-0.7-2.5-1.2-3.6-2
			c-3.3,2.3-5.9,3.2-10.9,4.1l-0.1-0.5c3.9-1.1,6.9-2.6,9.7-4.7c-1.8-1.6-2.8-3-4-5.4h-0.3c-0.5,0-1.2,0.1-2.2,0.2l-0.2-1.1
			c1,0.2,1.6,0.2,2.4,0.2H21c0.4-0.5,0.6-0.7,1-1.2c0.8,0.6,1.1,0.8,1.8,1.5c0.3,0.2,0.4,0.4,0.4,0.5c0,0.3-0.3,0.4-1.2,0.4
			c-1.9,2.5-3,3.7-4.6,5c2.6,1.3,5,1.8,9.2,2V322.3z M24.4,310.4c0.6-0.6,0.8-0.8,1.4-1.3c0.9,0.7,1.1,0.9,1.9,1.6
			c0.3,0.2,0.4,0.4,0.4,0.5c0,0.3-0.4,0.4-1.5,0.5c-1.2,1.1-1.5,1.4-2.5,2.1l-0.3-0.3c0.5-1.1,0.6-1.4,0.8-2.5H9.3
			c0,1.4-0.2,2.2-0.5,3c-0.3,0.9-1,1.5-1.5,1.5c-0.5,0-0.9-0.9-0.9-1.8c0-0.4,0.1-0.5,0.6-0.8c1-0.8,1.5-1.9,1.9-4l0.5,0v1.3H24.4z
			 M12.4,304.1c-0.7,0-1.5,0.1-2.3,0.2l-0.1-1.1c0.9,0.2,1.5,0.2,2.5,0.2H22v-2.8h-9.9c-1,0-1.6,0-2.4,0.2l-0.1-1.1
			c1,0.2,1.5,0.3,2.5,0.3h9.6c0.5-0.6,0.7-0.8,1.2-1.4c0.8,0.5,1,0.7,1.8,1.2c0.3,0.2,0.4,0.4,0.4,0.5c0,0.2-0.1,0.3-1.1,0.8
			c0,1.4,0,2.5,0,3.3c0,1.3,0,2.3,0.1,4.3c0,0.2,0,0.2-0.2,0.3c-0.3,0.1-0.9,0.2-1.5,0.2c-0.3,0-0.4-0.1-0.4-0.4v-0.9h-9.6
			c-1,0-1.6,0-2.6,0.1L9.6,307c1,0.2,1.5,0.2,2.8,0.2H22v-3.2H12.4z M12.6,314.5c1.2,2,2.4,3.3,4.4,4.6c1.7-1.4,2.6-2.5,4-4.6H12.6z
			"/>
		<path class="st0" d="M16.4,335.1c-1.2,0.4-4,1.5-6.1,2.4c-0.6,0.3-1,0.4-1.2,0.4c-0.5,0-1.1-0.4-1.7-1.3c-0.5-0.8-0.8-1.6-0.8-2.2
			c0-0.3,0.1-0.5,0.3-0.8c0.5,1.4,1.3,2.2,2.2,2.2c0.8,0,3.6-0.7,5.7-1.3c1.2-0.4,1.2-0.4,1.9-0.9c0.1-0.1,0.3-0.1,0.4-0.1
			c0.4,0,0.9,0.3,1.6,1.1c0.7,0.7,0.9,1,0.9,1.4c0,0.2-0.2,0.4-0.5,0.6c-0.9,0.5-1.2,0.7-2.5,2c-1.9,1.9-3,3-4.4,4.5
			c-2.9,3.1-2.9,3.1-3.5,3.7l0.1,0.1c3.2-2,5.6-2.9,8.2-2.9c3.8,0,6.4,2.3,6.4,5.6c0,4.3-4,7.5-9.4,7.5c-2.9,0-4.8-1.2-4.8-3
			c0-1.5,1.4-2.6,3.2-2.6c1.5,0,2.8,0.5,3.8,1.5c0.5,0.5,0.9,1,1.3,1.9c2.3-1,3.6-3.1,3.6-5.6c0-1.7-0.7-3-1.9-3.7
			c-0.6-0.4-1.8-0.6-3-0.6c-2.9,0-7,2.4-9.5,5.6c-0.5,0.6-0.7,0.8-1,0.8c-0.5,0-1-1.1-1-2c0-0.4,0.2-0.7,0.6-1.1
			c1.1-0.9,1.6-1.4,4.2-4.2c3.7-4.1,4.8-5.4,7.2-8.5c0.2-0.3,0.2-0.3,0.3-0.5c0,0-0.1-0.1-0.1-0.1c0,0,0,0,0,0c0,0,0,0-0.1,0
			c0,0-0.1,0-0.1,0.1L16.4,335.1z M11.8,352.4c-1.1,0-1.9,0.6-1.9,1.5c0,1.1,1.3,1.8,3.4,1.8c0.8,0,1.2-0.1,2.1-0.3
			C14.9,353.5,13.5,352.4,11.8,352.4z"/>
		<path class="st0" d="M28.2,368.3c0,2.1-1.7,3.9-3.9,3.9s-3.9-1.7-3.9-3.9c0-2.1,1.7-3.9,3.9-3.9C26.5,364.5,28.2,366.2,28.2,368.3
			z M21.4,368.3c0,1.6,1.3,2.9,2.9,2.9c1.6,0,2.9-1.3,2.9-2.9c0-1.6-1.3-2.9-2.9-2.9C22.7,365.4,21.4,366.7,21.4,368.3z"/>
	</g>
</g>
</svg>
