<?xml version="1.0" encoding="utf-8"?>
<!-- Generator: Adobe Illustrator 25.0.0, SVG Export Plug-In . SVG Version: 6.00 Build 0)  -->
<svg version="1.1" id="レイヤー_1" xmlns="http://www.w3.org/2000/svg" xmlns:xlink="http://www.w3.org/1999/xlink" x="0px"
	 y="0px" width="418px" height="405px" viewBox="0 0 418 405" style="enable-background:new 0 0 418 405;" xml:space="preserve">
<style type="text/css">
	.st0{fill:#FFFFFF;}
	.st1{fill:#76544B;}
</style>
<g>
	<g>
		<path class="st0" d="M363.6,29.2c-1.2,0-1.2,0.4-1.2,2.3c0,1.2,0,2.8-1.8,2.8c-1.3,0-1.3-1-1.3-1.5c0-0.2,0.1-1.5,0.1-1.8
			c0.1-2.1,0.4-7.7,0.4-12.8c0-5.4-0.2-10-0.4-12c0-0.4-0.4-2.2-0.4-2.6c0-0.1,0-0.4,0.2-0.4c0.6,0,1.6,0.5,2.2,0.8
			c1,0.5,1.6,0.5,1.9,0.5h2.2c0.4,0,0.8,0,1.1-0.2c0.1-0.1,0.8-0.8,1-0.8c0.3,0,2.8,1.4,2.8,2c0,0.2-0.1,0.3-0.3,0.5
			c-0.1,0-0.7,0.5-0.7,0.6c-0.2,0.4-0.2,9.2-0.2,10.9c0,2,0.2,5.6,0.2,6.1c0,0.8,0.2,4.6,0.2,5.5c0,0.4,0,1.1-0.3,1.4
			c-0.2,0.2-1.1,0.8-1.8,0.8c-0.7,0-0.8-0.6-0.8-1.2c-0.1-1-0.7-1-1.3-1H363.6z M363.4,5.6c-0.3,0-0.7,0-0.9,0.3
			c-0.3,0.3-0.3,0.6-0.3,3.1c0,3.3,0,3.4,1.2,3.4h2.1c0.3,0,0.6,0,0.9-0.3c0.3-0.3,0.3-0.6,0.3-3.1c0-3.2,0-3.4-1.2-3.4H363.4z
			 M363.4,13.4c-0.6,0-1,0.2-1.2,0.8c0,0.2,0,3.7,0,5.6c0,0.6,0.6,0.9,1.2,0.9h2.1c0.3,0,1.2,0,1.2-1.1c0-0.6,0-5.3-0.1-5.6
			c-0.2-0.5-0.8-0.6-1.1-0.6H363.4z M363.5,21.7c-1.1,0-1.2,0.6-1.2,1.3c0,0.9,0,4.2,0.1,4.6c0.2,0.6,0.9,0.6,1.1,0.6h1.9
			c1.2,0,1.3-0.2,1.3-4.6c0-1.2,0-1.9-1.2-1.9H363.5z M372.6,25.3c-0.5,0.8-0.7,1-1,1c-0.5,0-0.5-0.1-0.9-1.2c-0.1-0.4-1-2.4-1-2.7
			c0-0.2,0.1-0.3,0.3-0.3c0.1,0,0.9,0.2,1.1,0.2c1.2,0,4-0.7,4.1-0.8c1.3-0.4,1.4-0.8,1.4-2.6c0-11.4-0.3-14.9-0.8-16.7
			c0-0.2-0.5-0.9-0.5-1.1c0-0.2,0.2-0.2,0.4-0.2c0.4,0,2.1,0.4,2.6,0.5c1,0.2,1.6,0.4,1.6,0.9c0,0.2,0,0.2-0.5,0.8
			c-0.1,0.2-0.2,0.3-0.2,0.6V15c0,8-0.2,15.2-7.9,19.6c-2.7,1.6-5.6,2.4-6.4,2.4c-0.1,0-0.2,0-0.2,0c0-0.2,0.2-0.2,1.6-1
			c2.4-1.2,6.2-3.4,8.2-7.2c1.1-2.1,1.6-5,1.6-5.3c0-0.1,0-0.4-0.1-0.5C375.4,22.6,372.7,25.2,372.6,25.3z M374.4,15.2
			c0,1.5-0.9,2.1-1.5,2.1c-0.8,0-0.9-0.3-1.4-3.2c-0.3-1.4-0.5-1.8-1.4-3c-0.2-0.2-0.2-0.4-0.1-0.5
			C370.2,10.5,374.4,12.4,374.4,15.2z M385.5,14.3c0,0.1,0.1,0.5,0.3,0.5c0.7,0,3.7-3.8,4.1-5.3c0.2-0.8,0.2-0.8,0.5-0.8
			c0.4,0,3.5,2.7,3.5,3c0,0.3-0.7,0.5-1,0.5c-0.4,0.1-0.6,0.1-0.8,0.3c-2.4,1.7-2.4,1.7-5,3.1c-1.2,0.6-1.6,0.9-1.6,2
			c0,1.2,0.4,1.6,1.4,2c5.8,2.2,6.3,4.7,6.3,5.5c0,1.4-1.2,1.8-1.6,1.8c-1,0-1.3-0.7-2.2-2.6c-0.8-1.7-2.6-4-3.4-4
			c-0.5,0-0.5,0.4-0.5,3.4c0,1.5,0,7.3,0.3,8.4c0.1,0.5,0.7,0.8,2.7,0.8c3,0,3-0.3,3.6-2c0.2-0.5,0.8-3,1-3c0.2,0,0.2,0.4,0.2,1
			c0,2.4,0.4,3.1,0.7,3.7c0.1,0.2,0.8,1,0.8,1.2c0,0.2-0.3,0.6-0.8,1c-1.4,0.9-4.2,1-6,1c-5,0-5-1-5-5.3c0-1.2,0.1-7.2,0.1-8.6
			c0-2.8-0.1-17.1-0.3-18.7c0-0.2-0.5-1.6-0.5-1.8c0-0.2,0.2-0.2,0.3-0.2c0.3,0,2.6,0.3,2.7,0.4c0.8,0.1,1.4,0.2,1.4,0.8
			c0,0.2-0.8,0.9-0.9,1.1c-0.3,0.6-0.3,6.1-0.3,7.2C385.5,11,385.5,14.1,385.5,14.3z"/>
		<path class="st0" d="M377.9,74.8c-1.1,0-1.1,0.9-1.1,1c0,0.6,0,3.6,0.2,3.9c0.2,0.5,0.8,0.5,1.2,0.5h8c1.9,0,2.1,0,2.7-1
			c0.9-1.2,1-1.4,1.3-1.4c0.5,0,3.4,2.2,3.4,2.8s-0.7,0.6-2.1,0.6H365c-1,0-3.6,0-5,0.1c-0.1,0-0.7,0.1-0.8,0.1
			c-0.2,0-0.2-0.1-0.4-0.2l-0.8-0.9c-0.1-0.1-0.2-0.2-0.2-0.3c0-0.1,0.1-0.1,0.2-0.1c0.2,0,1.5,0.1,1.8,0.1c1.1,0,3.2,0.2,5.5,0.2
			h7.4c0.5,0,1.1,0,1.4-0.6c0.1-0.2,0.1-2.2,0.1-3.4c0-1.1-0.2-1.4-1.4-1.4h-3.4c-1,0-3.6,0-5,0.1c-0.1,0-0.7,0.1-0.8,0.1
			c-0.1,0-0.2-0.1-0.4-0.2l-0.8-0.9c-0.2-0.2-0.2-0.2-0.2-0.3c0-0.1,0.1-0.1,0.1-0.1c0.2,0,1.5,0.1,1.8,0.1c1.2,0,3.2,0.2,5.5,0.2
			h3.1c0.5,0,1.4,0,1.4-1.1c0-0.6,0-3.5-0.2-3.7c-0.3-0.4-0.8-0.4-1.2-0.4h-5.3c-1,0-3.6,0-5,0.1c-0.1,0-0.7,0.1-0.8,0.1
			c-0.2,0-0.2-0.1-0.4-0.3l-0.8-0.9c-0.2-0.2-0.2-0.2-0.2-0.3c0-0.1,0.1-0.1,0.2-0.1c0.2,0,1.5,0.1,1.8,0.1c1.1,0,3.2,0.2,5.5,0.2
			h17.1c1.2,0,1.4,0,1.8-0.3c0.4-0.2,1.9-1.6,2.3-1.6c0.2,0,2.9,1.5,2.9,2.4c0,0.6-0.2,0.6-2.2,0.6h-11.6c-1.1,0-1.1,0.2-1.1,4.1
			c0,0.8,0.4,1.1,1.1,1.1h5c1.9,0,2.1,0,2.7-0.8c0.7-1,0.8-1.1,1.2-1.1c0.5,0,2.8,2,2.8,2.4c0,0.5-0.8,0.5-2.1,0.5H377.9z M365,53.6
			c-1.2,0-1.3,0.2-1.3,4c0,3.4,0.3,3.8,2.2,3.8c0.6,0,2.5,0,5.3-0.2c0.4,0,2.2-0.2,2.5-0.2c0.6,0,0.8,0.2,0.8,0.6
			c0,0.7-0.6,1.5-1.2,1.7c-1,0.4-5.8,0.4-7.3,0.4c-4.8,0-4.8-0.6-4.8-5.6c0-0.4,0-3.8,0-4c-0.1-0.3-0.3-0.4-0.6-0.4
			c-0.2,0-1,0.1-1.1,0.1c-0.1,0-0.2-0.1-0.3-0.3l-0.8-0.9c-0.2-0.2-0.2-0.2-0.2-0.2c0-0.1,0-0.1,0.1-0.1c0.3,0,1.5,0.1,1.8,0.2
			c3.2,0.1,4.4,0.1,5.7,0.1c1.1,0,1.1-0.8,1.1-1.8c0-0.5,0-1.9-0.2-2.8c0-0.1-0.2-0.8-0.2-0.9c0-0.2,0.2-0.4,0.5-0.4
			c0.2,0,0.5,0.1,2.8,0.7c0.6,0.2,0.9,0.2,0.9,0.6c0,0.2-0.8,0.9-0.9,1.1c-0.2,0.3-0.2,0.5-0.2,2.3c0,0.9,0.4,1.2,1.2,1.2
			c2,0,2.2,0,2.6-0.7c0.7-1.1,0.8-1.2,1-1.2c0.4,0,2.7,1.9,2.7,2.4c0,0.6-0.7,0.6-2.1,0.6H365z M381.3,58.2c-1,0-1.1,0.2-1.4,1
			c-2.4,5.3-6.2,6-6.4,6c-0.1,0-0.2,0-0.2-0.2c0-0.2,0.9-0.8,1-1c0.9-1,4.2-4.7,4.2-10.7c0-1.2,0-1.8-0.2-3.8
			c-0.1-0.9-0.2-1.4-0.2-1.5c0-0.2,0-0.4,0.2-0.4c0.2,0,2.4,0.9,2.6,1c0.5,0.2,0.6,0.2,1.1,0.2h5.5c0.2,0,0.5,0,0.8-0.2
			c0.2-0.2,1.2-1.2,1.4-1.2c0.3,0,2.8,1.6,2.8,2.2c0,0.2-1.1,0.8-1.2,1c-0.2,0.3-0.3,1.4-0.3,1.9c0,0.3-0.2,6.2-0.9,9.2
			c-0.6,2.2-2.5,3.3-3.5,3.3c-0.7,0-0.9-0.2-1.8-1.4c-0.5-0.6-1-1-1.4-1.2c-0.2-0.1-0.7-0.4-0.7-0.6c0-0.2,0.2-0.2,0.3-0.2
			c0.1,0,0.5,0.1,0.7,0.1c0.6,0.1,1.7,0.2,2.2,0.2c1,0,1.6-0.3,1.8-1.6c0.1-0.3,0.3-1.4,0.3-1.6c0-0.8-0.8-0.8-1.2-0.8H381.3z
			 M387.3,57.2c0.8,0,1.2,0,1.2-1.9c0-0.9-0.8-0.9-1-0.9H382c-0.8,0-1.3,0-1.3,2c0,0.9,0.7,0.9,1,0.9H387.3z M382.4,50.1
			c-0.7,0-1.4,0-1.4,0.8c0,2.1,0,2.3,1,2.3h5.4c1.1,0,1.1-0.4,1.1-2.1c0-1-0.6-1-1.3-1H382.4z"/>
		<path class="st0" d="M375.7,99.1c0,0.1,0.1,0.3,0.1,0.4c0.2,1.3,0.4,2.6,0.4,4.3c0,2.7-0.6,6.4-4.1,11.7c-3.2,4.9-5.2,5.8-6.8,5.8
			c-2.6,0-5-4.1-5-9c0-2.1,0.4-6.2,4.4-10.2c5.1-5.2,10.5-5.2,12.8-5.2c3.6,0,5.3,0.7,6.4,1.3c4.3,2.1,7,6.4,7,11.6
			c0,5.2-3,11.6-10.1,14.1c-3.4,1.2-6,1.5-6.6,1.5c-0.2,0-0.4,0-0.4-0.3c0-0.1,0.1-0.2,1.1-0.6c4.2-1.6,12.9-5.1,12.9-15
			c0-1.6-0.2-11.1-11.1-11.1C375.7,98.5,375.7,98.9,375.7,99.1z M362.7,111.4c0,2.6,1,6.2,3.5,6.2c1.2,0,2.1-0.5,4.9-4.6
			c2.1-3.2,3.9-7.7,3.9-11.6c0-2.4-0.2-2.6-0.7-2.6C370.5,98.7,362.7,103.8,362.7,111.4z"/>
		<path class="st0" d="M363.6,143.1c-1,0-1,0.2-1.3,1.6c-0.3,1.9-2,2.8-2.7,2.8c-0.7,0-1.3-0.6-1.3-1.4c0-0.1,0-0.5,0.2-0.9
			c0.2-0.4,1.4-2.1,1.6-2.5c0.2-0.4,1-2.8,1.1-3c0.2,0,0.7,1.2,0.8,1.6c0.3,0.8,0.9,0.8,1.4,0.8h9.6c0.9,0,1.1-0.4,1.1-1.1
			c0-0.2,0-1.1-0.1-1.5c0-0.2-0.2-1.1-0.2-1.3c0-0.3,0.3-0.4,0.6-0.4c0.2,0,3.5,0.5,3.5,1.2c0,0.2-0.6,0.9-0.6,1
			c-0.2,0.3-0.2,0.6-0.2,1c0,1.1,0.6,1.1,1.1,1.1h9.8c0.4,0,0.7,0,1-0.3c0.2-0.2,0.8-1.1,1.1-1.1s3.6,2.5,3.6,3.4c0,0.1,0,1-0.9,1
			c-0.3,0-1.8-0.3-2.1-0.3c-1,0-1.8,0.3-2.2,0.6c-0.1,0-0.6,0.4-0.7,0.4c-0.1,0-0.1-0.1-0.1-0.1c0-0.1,0.8-1.6,0.8-1.9
			c0-0.5-0.4-0.5-0.7-0.5H363.6z M382.7,152.1c0.6,0,0.8,0,1.3-0.5c0.4-0.4,0.6-0.6,0.9-0.6c0.2,0,0.4,0.1,1.9,1.2
			c0.9,0.7,1,0.8,1,1.1s-0.2,0.4-0.8,0.9c-0.5,0.4-0.5,0.6-0.5,2.8c0,1,0.2,6.4,0.2,6.6c0,1.5-1.4,2-1.9,2c-0.8,0-0.9-0.5-0.9-0.9
			c0-0.6-0.3-0.7-0.9-0.7h-2.4c-0.7,0-1,0.2-1,1c0,1.1,0,3.5,0.2,4.5c0.2,0.7,0.3,1.2,4.6,1.2c4.4,0,5.2-0.4,6.6-3.2
			c0.2-0.3,0.8-2.2,0.9-2.4c0,0.3,0.4,2.3,0.5,2.8c0.1,0.4,1.1,2,1.1,2.4c0,0.6-0.5,3.1-7.6,3.1c-8.8,0-8.8-1.2-8.8-4.4
			c0-0.6,0-4.2,0-4.4c-0.1-0.5-0.5-0.5-1-0.5h-2.7c-0.2,0-0.3,0-0.3,0.2c0,0.2,0.3,0.4,0.4,0.4c0.6,0.4,0.8,0.6,0.8,0.8
			c0,0.2-0.1,0.2-0.3,0.4c-0.4,0.2-0.6,0.4-0.7,0.6c-2.7,4.6-4.5,7.5-13.3,7.5c-1,0-1.1,0-1.1-0.2c0-0.1,0.3-0.2,0.4-0.2
			c3-0.6,6.2-1.4,9-4c2.1-2,2.7-4.6,2.7-4.9c0-0.6-0.4-0.6-0.7-0.6h-2.3c-0.8,0-0.8,0.2-1,0.8c-0.2,0.7-1.3,1.2-2,1.2
			c-0.9,0-1-0.4-1-0.8c0-1,0.3-5.4,0.3-6.3c0-1.7-0.1-4.1-0.2-5.8c0-0.3-0.4-1.6-0.4-1.9c0-0.2,0.2-0.2,0.3-0.2c0.2,0,2,0.7,2.3,0.8
			c1,0.4,1.2,0.4,1.8,0.4H382.7z M372.6,148.9c-0.4,0-0.9,0-0.9,0.7c0,0.7,0,0.9-0.3,1.3c-0.5,0.6-1.1,0.8-1.6,0.8
			c-0.9,0-1-0.5-1-2.1c0-0.8-0.4-0.8-1.2-0.8c-0.2,0-3.2,0-4.6,0.1c-0.2,0-0.7,0.1-0.8,0.1c-0.2,0-0.2-0.1-0.4-0.2l-0.8-0.9
			c-0.1-0.2-0.2-0.2-0.2-0.3c0,0,0-0.1,0.2-0.1c0.2,0,1.2,0.1,1.4,0.1c1.4,0.1,4,0.2,5.4,0.2c0.4,0,1,0,1-0.8c0-0.2,0-0.8,0-1.1
			c0-0.2-0.4-1-0.4-1.2c0-0.3,0.4-0.3,0.6-0.3c0.3,0,3.2,0.4,3.2,1.1c0,0.2-0.4,0.7-0.5,0.8c-0.2,0.2-0.2,0.6-0.2,0.7
			c0,0.6,0.3,0.8,1,0.8h5.4c0.8,0,0.8-0.4,0.8-1c0-0.4,0-1.2-0.1-1.6c0-0.2-0.5-0.7-0.5-0.8c0-0.2,0.2-0.2,0.4-0.2
			c0.3,0,2.6,0.4,2.9,0.4c1,0.2,1.3,0.4,1.3,0.7c0,0.4-0.3,0.5-0.8,0.9c-0.4,0.4-0.5,0.6-0.5,0.8c0,0.6,0.4,0.6,0.7,0.6
			c2.3,0,2.5,0,3-0.7c0.9-1.2,1-1.4,1.4-1.4c0.6,0,3.2,1.8,3.2,2.5c0,0.6-0.7,0.6-2.2,0.6h-5.2c-0.3,0-0.8,0-0.8,0.8
			c0,0.9,0,1.8-1.6,1.8c-0.9,0-1.2-0.2-1.2-1.3c0-1,0-1.3-0.8-1.3H372.6z M382.9,155.5c0.4,0,0.9,0,0.9-0.8c0-1.2,0-1.5-0.9-1.5h-15
			c-1,0-1,0.2-1,1.6c0,0.7,0.6,0.7,1,0.7H382.9z M383,159.2c0.3,0,0.9,0,0.9-0.7c0-1.7,0-1.9-0.9-1.9h-15.1c-0.3,0-0.9,0-0.9,0.7
			c0,1.7,0,1.9,0.9,1.9H383z M383.1,162.9c0.9,0,0.9-0.5,0.9-1.2c0-1,0-1.4-0.9-1.4h-15.3c-0.9,0-0.9,0.5-0.9,1.2c0,1,0,1.4,0.9,1.4
			H383.1z"/>
		<path class="st0" d="M372.9,187.3c0.7,2.4,1.8,4.1,2.1,4.1c0.2,0,0.9-0.3,1.5-0.6c0.8-0.5,1-0.6,1.4-0.6c0.8,0,1.3,0.6,1.3,1.2
			c0,0.1,0,1.5-2.1,2.2c-0.3,0.1-0.6,0.2-0.6,0.3c0,0.1,2.1,3.4,2.4,3.4c0.2,0,1.4-0.4,1.4-1.1c0-0.2-0.5-0.7-0.5-0.9
			c0-0.3,0.4-0.4,0.6-0.4c0.8-0.1,2.2-0.2,2.5-0.2c1.3,0,2.4,0.6,2.4,1.8c0,0.8-0.5,1.7-3.5,2.7c-1.1,0.4-1.2,0.4-1.2,0.6
			c0,0.2,0.1,0.3,1.3,2.2c1.9,3,2.6,4.8,2.6,6.3c0,1.6-1.3,2.8-2.4,2.8c-1,0-1.3-0.2-3.8-2c-1.6-1.1-3-1.2-3.9-1.2
			c-3.6,0-5.3,2.3-5.3,4.1c0,3,3.5,3.2,4.6,3.2c0.6,0,3.3-0.3,3.9-0.3c0.4,0,1.9,0.1,1.9,1.4c0,2.3-4.2,2.3-4.6,2.3
			c-1.2,0-7.9,0-7.9-5.6c0-2.4,1.8-6.3,7.8-6.3c1.4,0,2.5,0.2,3.8,0.5c0.4,0.1,1.2,0.2,1.9,0.2c0.4,0,0.9-0.2,0.9-0.8
			c0-1.3-1.4-4.4-2.2-5.7c-0.2-0.4-0.4-0.5-0.6-0.5c-0.1,0-1.1,0.3-1.3,0.3c-2.2,0.6-3.6,0.8-5.5,0.8c-2.7,0-3.8-0.4-4.8-1.2
			c-1-0.7-1.4-1.7-1.4-2.1c0-0.3,0.2-0.4,0.3-0.4c0.2,0,0.8,0.4,1,0.5c1.3,0.7,2.9,1,4.5,1c3.3,0,6.2-1,6.2-1.3s-2.2-3.8-2.7-3.8
			c-0.1,0-2.2,0.4-2.6,0.4c-3.1,0-5.4-2.2-5.4-2.9c0-0.1,0.1-0.3,0.3-0.3c0.1,0,1.3,0.4,1.6,0.5c0.9,0.3,1.4,0.4,2.2,0.4
			c0.9,0,2.4-0.2,2.4-0.5c0-0.1-2-3.2-4.1-4.2c-1.2-0.6-1.3-0.6-1.3-0.9c0-0.3,0.7-1,1.6-1C370.2,185.6,372.5,186.1,372.9,187.3z
			 M385.1,188c1.5,0.6,2.6,1.9,2.6,2.6c0,0.9-0.5,1.6-1.1,1.6c-0.5,0-0.8-0.2-2.2-1.6c-0.7-0.7-1.3-1.2-3-2.2
			c-0.2-0.1-0.6-0.4-0.6-0.6c0-0.1,0.3-0.4,0.6-0.4C383.6,187.6,384,187.6,385.1,188z M386.8,184.3c3.5,0,4.8,2,4.8,3
			c0,0.6-0.4,1.2-1,1.2c-0.8,0-1.2-0.3-2.1-1.2c-0.7-0.7-2.4-1.4-3.8-1.8c-0.4-0.1-0.6-0.3-0.6-0.4c0-0.2,0.6-0.5,1.4-0.6
			C386,184.3,386.5,184.3,386.8,184.3z"/>
		<path class="st0" d="M383.6,251.1c0.4,0,0.9,0,1.7-1c1-1.3,1.3-1.4,1.6-1.4c0.6,0,3.7,2.2,3.7,2.8c0,0.4-0.4,0.6-1,0.6h-11.1
			c-1,0-1,0.8-1,2.5c0,0.7,0,6.6,0,7c0.1,0.8,1,0.8,1,0.8h8.6c0.9,0,1.2-0.4,1.6-1.2c1-1.6,1.2-1.8,1.5-1.8c0.5,0,3.6,2.9,3.6,3.5
			c0,0.4-0.4,0.5-1,0.5h-28.4c-1.2,0-3.9,0-5.3,0.1c-0.2,0-0.7,0.1-0.8,0.1c-0.2,0-0.2-0.1-0.4-0.2l-0.8-0.9
			c-0.1-0.2-0.2-0.2-0.2-0.2c0-0.1,0-0.1,0.2-0.1c0.2,0,1.2,0.1,1.4,0.1c1.2,0.1,4.3,0.2,5.8,0.2h9c1,0,1-0.9,1-1.3
			c0-1.1,0.1-6,0.1-7c0-1.2,0-2-1-2h-5.4c-1,0-3.6,0-5,0.1c-0.2,0-0.8,0.1-0.9,0.1c-0.1,0-0.3-0.2-0.3-0.2l-0.8-1
			c-0.2-0.2-0.2-0.2-0.2-0.2c0-0.1,0-0.1,0.2-0.1c0.3,0,1.5,0.2,1.8,0.2c1.7,0.1,3.4,0.1,5.5,0.1H383.6z M364.3,236
			c-0.9,0-1,0-1.3,1.4c-0.3,1.6-1.4,3.2-3,3.2c-0.9,0-1.4-0.5-1.4-1c0-0.4,1.2-2.2,1.4-2.6c0.5-0.9,0.8-2.6,0.8-3.6
			c0-0.2,0-0.7,0.2-0.7c0.2,0,0.8,0.8,1.4,1.7c0.4,0.6,0.8,0.7,1.4,0.7h9.3c1.1,0,1.1-0.8,1.1-2.7c0-0.8-0.1-1.9-0.2-2.3
			c0-0.1-0.4-0.6-0.4-0.7c0-0.1,0-0.3,0.5-0.3c0.8,0,4,0.6,4,1.2c0,0.2-0.8,1-0.8,1.2c-0.3,0.6-0.3,2-0.3,2.4c0,0.4,0,1.2,1,1.2h8.7
			c1,0,1.3-0.4,1.6-1.2c0.2-0.5,0.5-1,0.7-1c0.3,0,3,1.8,3.6,2.2c1,0.7,1,1,1,1.2c0,0.8-0.3,0.8-3.6,0.8c-1,0-2,0.6-2.4,0.8
			c-0.2,0.1-1.4,0.9-1.6,0.9c-0.1,0-0.2-0.1-0.2-0.2c0-0.2,1.3-1.9,1.3-2.4c0-0.3-0.3-0.3-0.8-0.3h-5.2c-1,0-1,0.8-1,1.2
			c0,1.2,0,4.6,0.3,5.6c0.3,1,0.9,1.2,4.4,1.2c3.9,0,4.3,0,5.4-1.7c0.2-0.4,1.2-2.3,1.4-2.3c0.2,0,0.2,0.2,0.2,1.2
			c0,0.8,0,1.4,0.7,2c0.6,0.4,0.6,0.5,0.6,0.8c0,0.8-1.1,1.9-2.4,2.3c-1.4,0.4-3,0.4-5.8,0.4c-6.2,0-7,0-7-3.6c0-1.5,0-4.7-0.1-6
			c0-0.6-0.4-1-1-1h-3.8c-0.6,0-0.9,0-0.9,0.2c0,0.1,0.6,0.5,1,0.7c0.9,0.6,0.9,0.7,0.9,0.9c0,0.4-0.3,0.6-1.2,1
			c-0.3,0.2-2.2,2.8-2.6,3.3c-2.4,2.9-4.6,4.2-7.3,5.4c-1.9,0.8-3.3,1.2-3.9,1.2c0,0-0.2,0-0.2-0.2c0-0.1,0.5-0.3,0.6-0.4
			c5.6-2.4,10.4-8.5,10.4-11.4c0-0.6-0.2-0.8-1.2-0.8H364.3z"/>
		<path class="st0" d="M369.5,277.4c0.4,0,0.7,0,1.1-0.4c0.4-0.4,0.7-0.8,1.1-0.8c0.4,0,2.4,1.5,2.4,2c0,0.2-0.6,0.8-0.8,1
			c-0.3,0.4-0.3,0.7-0.3,1.8c0,1,0.2,6.1,0.2,7.3c0,2.2-1.1,2.6-1.7,2.6c-1,0-1.1-0.8-1.2-1.4c-0.1-0.8-0.6-0.8-1.3-0.8h-5
			c-0.6,0-1.3,0-1.5,0.5c-0.1,0.3-0.1,2.1-0.1,2.8c0,1.8,0,8.6,0,10.1c0,0.9,0.2,5.1,0.2,6.1c0,0.7,0,2.9-2.1,2.9c-1,0-1-1.1-1-1.4
			c0-0.1,0-1.1,0-1.6c0.4-11.9,0.4-14.5,0.4-18.9c0-2.4,0-8.4,0-9c0-0.3-0.2-3.6-0.2-3.7c0-0.2,0-0.4,0.2-0.4c0.6,0,1.6,0.6,1.9,0.7
			c1,0.6,1.2,0.6,1.7,0.6H369.5z M363.8,283.5c-0.8,0-1.2,0-1.2,0.8v2.3c0,0.9,0.3,0.9,1.2,0.9h5.6c0.8,0,1.2,0,1.2-0.8v-2.3
			c0-0.9-0.3-0.9-1.2-0.9H363.8z M363.8,278.5c-0.9,0-1.2,0-1.2,1v2.2c0,0.8,0.4,0.8,1.2,0.8h5.7c0.9,0,1.2,0,1.2-1v-2.2
			c0-0.8-0.4-0.8-1.2-0.8H363.8z M378.4,293.5c0.5,0,0.7-0.1,0.9-0.4c0.3-0.4,0.8-0.8,1.1-0.8c0.4,0,2.4,1.3,2.4,2
			c0,0.2-0.2,0.4-0.2,0.5c-0.4,0.5-0.5,0.6-0.6,1.2c-0.1,1,0,7.4,0,8.3c0,1.1,0,1.6-0.4,2c-0.5,0.6-1.3,0.9-1.7,0.9
			c-0.9,0-0.9-0.8-0.9-1.4c0-1-0.5-1-1.3-1h-5c-0.9,0-1.1,0.2-1.2,0.9c-0.2,1.2-0.8,1.9-1.8,1.9c-0.5,0-0.9-0.2-0.9-1.4
			c0-0.3,0-1.4,0.1-1.7c0.1-2.1,0.2-3.3,0.2-5c0-0.2,0-4-0.1-5.5c0-0.2-0.1-1-0.1-1.2c0-0.3,0.2-0.4,0.4-0.4c0.4,0,2.5,1,3,1H378.4z
			 M372.6,294.6c-1,0-1,0.1-1,1.3v2c0.1,0.6,0.4,0.6,1,0.6h5.6c0.6,0,0.9,0,1-0.6v-2.3c0-1-0.3-1-1-1H372.6z M372.6,299.5
			c-0.8,0-1.1,0-1.1,0.8v2.8c0,0.8,0.4,0.8,1.1,0.8h5.5c0.9,0,1.1,0,1.1-1c0-0.4,0-2.6,0-2.8c-0.1-0.6-0.3-0.6-1.1-0.6H372.6z
			 M388,277.3c0.4,0,0.5,0,0.8-0.3c0.5-0.5,0.6-0.6,0.9-0.6c0.3,0,2.6,1.3,2.6,2c0,0.2-0.2,0.4-0.4,0.6c-0.6,0.6-0.6,0.7-0.6,2.1
			c0,3.7,0.1,21.8,0.1,26c0,1.6-0.2,2.6-1.6,3.3c-0.8,0.4-1.7,0.6-1.9,0.6c-0.4,0-0.7-0.4-1.1-1.1c-0.2-0.4-0.5-0.8-1.1-1.2
			c-0.3-0.2-2-0.6-2-1c0-0.2,1.5-0.3,1.9-0.3c2.6-0.1,3-0.3,3.1-1.4c0-0.4,0.1-10.4,0.1-16.2c0-1.2-0.6-1.2-1.6-1.2H382
			c-0.9,0-1,0.2-1.2,0.8c-0.1,0.9-1.1,1.3-1.8,1.3c-0.2,0-0.8,0-1-0.8c0-0.2,0-8.1,0-8.7c0-0.6-0.2-3.6-0.2-4.2
			c0-0.2,0.1-0.7,0.4-0.7c0.5,0,1.3,0.4,1.9,0.6c0.5,0.2,0.6,0.2,1,0.2H388z M387.7,282.3c0.7,0,1.1,0,1.1-0.9v-2.4
			c-0.1-0.6-0.5-0.6-1.1-0.6h-5.9c-0.7,0-1.1,0-1.1,0.9c0,0.6,0,2.2,0,2.4c0.1,0.6,0.5,0.6,1.1,0.6H387.7z M387.7,287.7
			c0.8,0,1.1,0,1.1-0.8v-2.6c0-0.8-0.3-0.8-1.1-0.8h-5.8c-0.8,0-1.2,0-1.2,0.8v2.6c0,0.9,0.3,0.9,1.2,0.9H387.7z"/>
	</g>
</g>
<g>
	<g>
		<path class="st1" d="M334.6,358.2c0,2.3,0.2,2.5,2,2.6v0.6h-6.1v-0.6c1.8-0.1,1.9-0.3,1.9-2.6v-11.8c0-2.3-0.1-2.5-1.9-2.6v-0.6
			h6.9c4.6,0,6.7,1.4,6.7,4.5c0,1.1-0.3,2.1-0.9,2.8c-0.8,1-2.3,1.6-4.2,1.8v0.2c0.9,0.2,1.4,0.4,2,0.9c0.8,0.7,1.3,1.4,2.1,3.3
			c1.2,2.8,1.4,3.1,1.9,3.6c0.4,0.3,0.7,0.5,1.3,0.5v0.6h-3.9c-1-2.7-2-5.3-2.7-6.5c-0.6-1.1-1.1-1.6-1.8-1.8
			c-0.5-0.2-1.2-0.3-1.8-0.3h-1.5V358.2z M336.7,352c1.5,0,2.7-0.3,3.5-0.8c1-0.7,1.5-1.8,1.5-3.4c0-2.6-1.6-3.9-4.8-3.9h-2.3v8
			H336.7z"/>
		<path class="st1" d="M352.1,350.1c1.1-1.1,2.6-1.7,4.4-1.7c3.7,0,6.1,2.6,6.1,6.5c0,4.2-2.4,6.8-6.2,6.8c-3.6,0-6-2.6-6-6.5
			C350.2,353.2,350.9,351.2,352.1,350.1z M356.3,361.1c2.5,0,3.8-2.1,3.8-6c0-3.9-1.4-6.2-3.9-6.2c-2.4,0-3.7,2.1-3.7,6
			C352.6,358.8,353.9,361.1,356.3,361.1z"/>
		<path class="st1" d="M369.1,350.1c1.1-1.1,2.6-1.7,4.4-1.7c3.7,0,6.1,2.6,6.1,6.5c0,4.2-2.4,6.8-6.2,6.8c-3.6,0-6-2.6-6-6.5
			C367.3,353.2,368,351.2,369.1,350.1z M373.4,361.1c2.5,0,3.8-2.1,3.8-6c0-3.9-1.4-6.2-3.9-6.2c-2.4,0-3.7,2.1-3.7,6
			C369.6,358.8,371,361.1,373.4,361.1z"/>
		<path class="st1" d="M387.9,351.1c0.9-1.8,2.3-2.7,4.2-2.7c1.9,0,3,1,3.4,2.9c1.1-2,2.4-2.9,4.3-2.9c1.2,0,2.2,0.4,2.8,1.2
			c0.6,0.7,0.8,1.6,0.8,3.3v5.4c0,2.3,0.1,2.5,1.8,2.6v0.6h-5.7v-0.6c1.7,0,1.8-0.3,1.8-2.6v-5c0-1.7-0.1-2.4-0.5-3
			c-0.4-0.6-0.9-0.9-1.9-0.9c-0.9,0-1.7,0.5-2.3,1.5c-0.7,0.9-1,1.8-1,3v4.4c0,2.3,0.1,2.5,1.8,2.6v0.6h-5.7v-0.6
			c1.7,0,1.8-0.3,1.8-2.6v-5.3c0-2.4-0.8-3.6-2.3-3.6c-1,0-1.8,0.5-2.5,1.4c-0.6,0.8-0.9,1.6-0.9,2.7v4.8c0,2.4,0.1,2.5,1.8,2.6v0.6
			H384v-0.6c1.7,0,1.8-0.2,1.8-2.6v-6.7c0-1.9-0.3-2.3-1.7-2.3v-0.6l3.8-0.3V351.1z"/>
		<path class="st1" d="M409.7,357.4h0.8c0.1,1.2,0.3,1.8,0.7,2.3c0.7,0.9,1.6,1.4,2.7,1.4c1.7,0,2.7-0.9,2.7-2.4
			c0-0.6-0.2-1.1-0.6-1.4c-0.5-0.4-0.5-0.4-2.8-1.4c-2.7-1.2-3.5-2.1-3.5-3.8c0-0.9,0.3-1.7,0.7-2.3c0.7-0.9,1.9-1.4,3.1-1.4
			c0.6,0,1,0.1,2.3,0.3c0.2,0,0.4,0,0.5,0c0.3,0,0.7,0,1.2-0.2l-0.1,4h-0.8c0-2.2-1.1-3.6-3-3.6c-1.6,0-2.6,0.9-2.6,2.2
			c0,0.6,0.2,1,0.7,1.4c0.5,0.3,1,0.6,2.6,1.3c1.7,0.7,2.3,1.1,2.9,1.7c0.5,0.6,0.8,1.4,0.8,2.4c0,2.3-1.5,3.8-3.9,3.8
			c-0.7,0-1,0-2.5-0.3c-0.4,0-0.6-0.1-0.9-0.1c-0.3,0-0.6,0-1.1,0.1L409.7,357.4z"/>
	</g>
</g>
<g>
	<g>
		<path class="st0" d="M252.8,27.4c0.1-2,0.1-10.5,0.1-16.5c0-5.8,0-8.1-0.1-9.9c1.1,0.5,1.4,0.7,2.3,1.4h3c0.5-0.5,0.7-0.7,1.2-1.2
			c0.8,0.7,1,0.9,1.8,1.6c0.2,0.2,0.3,0.3,0.3,0.4c0,0.2-0.3,0.3-1,0.5c-0.5,1.3-2.1,4.5-3.4,6.8c1.4,1.5,1.9,2,2.4,2.9
			c0.6,1,1,2.6,1,3.9c0,1.5-0.5,3-1.1,3.7c-0.6,0.6-1.2,0.8-2.5,1c-0.1-1.4-0.5-1.9-1.8-2.2v2c0,0.8,0,1.5,0.1,5.5
			c-0.1,0.3-0.2,0.4-0.5,0.5c-0.4,0.1-0.8,0.1-1.1,0.1C252.9,27.9,252.8,27.8,252.8,27.4L252.8,27.4z M254.8,19.2
			c1.2,0.3,2,0.4,2.4,0.4c0.5,0,0.7-0.2,0.9-0.6c0.3-0.7,0.4-1.5,0.4-2.4c0-2.2-0.7-4-2.4-5.9c1-3.1,1.7-5.7,2.2-7.6h-3.5V19.2z
			 M275.6,15.7l0.1,8.9c0,1.8-0.4,2.1-4,3c0-1-0.3-1.4-1-1.7c-0.5-0.3-1.2-0.4-3.7-0.8v-0.5c0.9,0.1,2.9,0.1,5.9,0.3
			c0.5,0,0.6-0.1,0.6-0.5V3.9h-9.3c-0.5,0-1,0-2.1,0.2L261.8,3c0.9,0.2,1.7,0.2,2.4,0.2h10c0.8-0.9,1-1.1,1.8-2
			c1.2,0.9,1.6,1.2,2.8,2.3c0.1,0.1,0.1,0.2,0.1,0.2c0,0.1-0.1,0.2-0.3,0.2h-3.1V15.7z M264,19.8c0,0.3-0.1,0.4-0.4,0.4
			c-0.2,0-0.9,0.1-1.1,0.1c-0.3,0-0.5-0.1-0.5-0.4c0.1-3.3,0.1-3.6,0.1-5c0-4.7,0-6.1-0.1-7.4c1,0.5,1.3,0.6,2.1,1.3h3.8
			c0.5-0.5,0.6-0.7,1.1-1.2c0.7,0.5,0.9,0.7,1.6,1.3c0.2,0.2,0.3,0.3,0.3,0.4c0,0.2-0.2,0.4-0.9,0.7c0,4,0,4,0.1,8.9
			c0,0.2-0.1,0.3-0.2,0.4c-0.2,0.1-0.8,0.2-1.2,0.2c-0.3,0-0.5-0.1-0.5-0.3v-1.4H264V19.8z M264,17h4.1V9.5H264V17z"/>
		<path class="st0" d="M257,56.5c2-0.3,2.3-0.4,3.4-0.6V45.2c0-1,0-1.2-0.1-1.9c1.3,0.2,2.6,0.4,3,0.5c0.2,0.1,0.3,0.1,0.3,0.3
			c0,0.3-0.2,0.4-1.3,0.7v3.7h1.8c0.8-0.9,1-1.1,1.7-2c1,0.9,1.3,1.2,2.3,2.2c0.1,0.1,0.1,0.2,0.1,0.3c0,0.1-0.1,0.2-0.3,0.2h-5.6
			v6.3c2.9-0.6,4.1-0.9,6.6-1.7l0.2,0.4c-2.4,1.1-3.9,1.7-8.6,3.2c-2.2,0.7-3,0.9-7.3,2c-0.2,1-0.4,1.3-0.7,1.3
			c-0.3,0-0.3,0-1.3-3.5c1.3-0.1,1.9-0.1,3.7-0.4V48c0-1.3,0-1.5-0.1-2.4c2.7,0.3,3.2,0.4,3.2,0.7c0,0.3-0.2,0.4-1.2,0.7V56.5z
			 M274.2,41.3c0.8-0.9,1-1.2,1.7-2c1.2,1,1.5,1.3,2.6,2.3c0.1,0.1,0.1,0.1,0.1,0.2c0,0.1-0.1,0.2-0.3,0.2h-8.1
			c0.2,3.2,0.5,5.2,1.2,7.4c0.6,2,1.5,3.9,2.3,5.2c0.5,0.8,1.1,1.4,2.2,2.5c0.5-1,0.6-1.2,1-2.3l1.1-2.8l0.4,0.1l-0.8,4.7
			c0,0.1,0,0.2-0.1,0.4c0,0.2-0.1,0.4-0.1,0.6c0,0.3,0.1,0.5,0.5,1c0.3,0.3,0.4,0.6,0.4,0.8c0,0.5-0.4,0.9-0.8,0.9
			c-1.4,0-3.4-1.6-4.9-3.9c-2.5-3.7-3.8-8.2-4.3-14.5h-14.1c-0.9,0-1.7,0.1-2.4,0.2l-0.2-1.1c0.8,0.2,1.5,0.3,2.6,0.3h14.1
			c-0.1-1.3-0.1-2.3-0.2-3.7c-0.1-2-0.1-2.7-0.2-3.8c0.6,0.1,1.1,0.2,1.4,0.2c1.7,0.2,2,0.3,2,0.5c0,0.2-0.2,0.3-1.1,0.6
			c0,0.9,0,1.4,0,2c0,1.3,0,2.9,0.1,4.3H274.2z M254.2,36.9c0.7,0.1,1.2,0.2,2.3,0.2h5.6c0.8-0.9,1-1.2,1.8-2
			c1.1,0.9,1.4,1.2,2.4,2.3c0.1,0.1,0.1,0.2,0.1,0.3c0,0.1-0.1,0.2-0.3,0.2h-9.6c-0.9,0-1.5,0-2.2,0.1L254.2,36.9z M271.2,35.1
			c1.4,0.6,2.5,1.2,3.5,2c0.5,0.4,0.6,0.8,0.6,1.2c0,0.8-0.5,1.6-1,1.6c-0.2,0-0.3-0.1-0.8-1c-0.2-0.5-1-1.7-1.4-2.4
			c-0.3-0.5-0.5-0.7-1.1-1.2L271.2,35.1z"/>
		<path class="st0" d="M254,87.8c0,2.3,0,4,0.1,5.7c-0.1,0.4-0.3,0.5-1,0.5c-0.2,0-0.3,0-0.4,0c0,0-0.1,0-0.1,0
			c-0.4,0-0.5-0.1-0.6-0.5c0.1-3.1,0.2-10,0.2-14.5c0-3.5,0-7.1-0.2-12.2c1,0.5,1.3,0.7,2.2,1.3h3.5c0.5-0.5,0.6-0.7,1.1-1.2
			c0.8,0.6,1.1,0.8,1.8,1.5c0.1,0.1,0.2,0.2,0.2,0.3c0,0.3-0.1,0.3-1.1,0.6c-1.8,3.7-2.7,5.4-3.5,6.8c1.3,1.5,2,2.6,2.6,4.1
			c0.3,0.8,0.5,1.7,0.5,2.8c0,1.4-0.5,2.6-1.3,3.4c-0.5,0.5-1,0.7-1.9,0.9c-0.4-1.4-0.7-1.6-2-1.9V87.8z M254,84.9
			c1.1,0.1,1.7,0.1,2,0.1c0.6,0,0.8-0.1,1-0.4c0.2-0.4,0.4-1.5,0.4-2.3c0-2.6-0.5-4.1-2.3-6.1c1.1-2.6,2-5,2.4-7.3H254V84.9z
			 M263.9,82v8c1.9-0.3,3.1-0.6,5.8-1.3l0.2,0.4c-3.2,1.4-5,2-9.4,3.4c-0.1,0.9-0.2,1.3-0.5,1.3c-0.3,0-0.4-0.4-1.1-3
			c0.8-0.1,1-0.1,2-0.3c0.3,0,0.3,0,1.1-0.2V82h-0.2c-0.8,0-1.2,0-2,0.1l-0.3-1c0.5,0.1,0.5,0.1,2.3,0.2h12.8
			c0.7-0.8,0.9-1.1,1.7-1.8c1,0.9,1.3,1.2,2.3,2.1c0.1,0.1,0.1,0.1,0.1,0.2c0,0.1-0.2,0.2-0.3,0.2h-11c0.7,1.9,1.5,3.2,3.1,4.7
			c1.9-1.8,2.3-2.2,3.7-4.3c0.5,0.3,0.9,0.5,1.2,0.7c1.2,0.7,1.4,0.9,1.4,1.1c0,0.1-0.2,0.2-0.3,0.2c0,0,0,0-0.1,0
			c-0.6-0.1-1-0.1-1-0.1c-1.7,1.3-2.3,1.6-4.5,2.7c2.3,1.9,4.4,2.9,8,3.5v0.5c-1.4,0.3-1.9,0.8-2.3,2.2c-1.8-0.9-2.6-1.4-4.1-2.7
			c-2.8-2.5-4.4-4.7-5.3-7.5c-0.1-0.3-0.2-0.5-0.3-1H263.9z M263.4,79.2c-0.1,0.4-0.4,0.5-1.4,0.5c-0.4,0-0.5-0.2-0.5-0.5
			c0.1-3.6,0.1-5.3,0.1-7.7c0-2,0-2.6-0.1-4.1c1,0.5,1.2,0.7,2.1,1.3h10c0.5-0.6,0.7-0.8,1.3-1.3c0.8,0.5,1,0.7,1.6,1.3
			c0.2,0.1,0.3,0.3,0.3,0.4c0,0.1-0.1,0.2-0.2,0.3c-0.1,0.1-0.2,0.2-0.8,0.4c0.1,4.4,0.1,4.4,0.2,8.8c0,0.5-0.3,0.6-1.8,0.6
			c-0.2,0-0.3-0.1-0.3-0.3v-0.7h-10.6V79.2z M267.7,69.4h-4.4v3.5h4.4V69.4z M267.7,73.6h-4.4v4h4.4V73.6z M273.9,72.9v-3.5h-4.4
			v3.5H273.9z M269.5,77.6h4.4v-4h-4.4V77.6z"/>
		<path class="st0" d="M255.1,123.7v2c0,0.4-0.2,0.5-1.1,0.6c-0.3,0-0.5,0-0.6,0c0,0-0.1,0-0.1,0c-0.3,0-0.5-0.1-0.5-0.4
			c0.1-3.8,0.2-6.4,0.2-11c0-4.3,0-6.8-0.1-8.8c2.9,0.4,3.2,0.5,3.2,0.8c0,0.2-0.2,0.4-1.1,0.7V123h8.2v-19c0-0.9-0.1-2.7-0.1-3.5
			c2.8,0.3,2.9,0.4,3.3,0.5c0.2,0.1,0.3,0.2,0.3,0.3c0,0.2-0.2,0.3-1.3,0.7l0,21h8.7v-13.8c0-1.1-0.1-2-0.2-3.1
			c0.7,0.1,1.2,0.1,1.6,0.2c1.5,0.2,2,0.3,2,0.6c0,0.3-0.3,0.5-1.2,0.8l-0.1,8.7c0,1.7,0,3.1,0.1,9.4c0,0.4-0.2,0.5-1.1,0.6
			c-0.2,0-0.4,0-0.5,0c0,0-0.1,0-0.1,0c-0.3,0-0.5-0.1-0.5-0.4v-2.4H255.1z"/>
		<path class="st0" d="M251.3,158.1c2.4-2.2,4.2-4,5.5-5.6c0.9-1.2,1.5-2,1.7-2.5c0.6,0.2,1,0.4,1.3,0.5c1.6,0.7,1.8,0.7,1.8,1
			c0,0.2-0.3,0.4-0.7,0.4c0,0-0.1,0-0.2,0c-0.2,0-0.4,0-0.8,0c-0.6,0.8-1.4,1.7-3.1,3c-1.9,1.6-3.2,2.4-5.3,3.6L251.3,158.1z
			 M252.5,136.7c4.9-0.5,7.7-1,12.9-2.4c3.6-0.9,5.2-1.4,6.4-2.1c0.5,0.4,0.8,0.7,1.1,0.8c1.1,0.8,1.4,1.2,1.4,1.5
			c0,0.1-0.2,0.2-0.3,0.2c-0.2,0-0.6-0.1-1.4-0.4c-2.6,0.7-4.4,1.1-8.2,1.7c1.4,0.6,1.8,0.8,1.8,1.1c0,0,0,0,0,0
			c0,0.2-0.3,0.3-0.6,0.3c-0.2,0-0.4,0-0.8-0.1c-2.6,2.4-2.7,2.5-4.3,3.6c1.1,0.7,1.6,1.3,1.6,2c0,1-0.3,1.9-0.7,1.9
			c-0.2,0-0.3-0.1-0.8-0.9c-1.1-1.7-2.6-3.2-4.7-4.7l0.3-0.3c1.4,0.5,2.4,0.9,3.8,1.7c1.2-1.2,2-2.3,3.2-4.4
			c-4.8,0.7-7.1,0.9-10.6,0.9L252.5,136.7z M263.5,148.3c-1.7,0.2-3.2,0.3-4.1,0.4c-3.1,0.3-3.7,0.4-5.2,0.5
			c-0.1,0.2-0.1,0.3-0.2,0.4c-0.2,0.8-0.3,0.9-0.6,0.9c-0.4,0-0.5-0.4-1-3.5c1,0.1,1.5,0.1,2.4,0.1c0.5,0,1.7,0,3.4-0.1
			c0.7,0,1.8-0.1,3.1-0.1c2.6-2.3,3.2-2.9,5.2-5.1c2.1-2.2,2.5-2.8,3.6-4.3c2.5,1.7,2.8,1.9,2.8,2.1c0,0.2-0.2,0.3-0.5,0.3
			c-0.1,0-0.8-0.1-1.2-0.2c-2.4,2.4-4.9,4.5-8.6,7.1c4.1-0.1,5.4-0.1,10.6-0.5c-0.8-1-1.4-1.5-2.7-2.6l0.3-0.3
			c2.6,1.4,3.7,2.2,5.5,3.7c0.9,0.8,1.1,1.1,1.1,2c0,1-0.4,1.8-0.8,1.8c-0.2,0-0.4-0.2-0.8-0.8c-0.8-1.4-1.3-2.1-2-3
			c-0.4,0.1-0.7,0.1-0.9,0.2c-1.2,0.2-1.2,0.2-2.8,0.4c-2.2,0.3-3.8,0.5-4.6,0.5v6.5c0,1.2,0,3.1,0.1,4.5c-0.1,0.4-0.3,0.5-1.3,0.5
			c-0.1,0-0.1,0-0.3,0c-0.5,0-0.6-0.1-0.7-0.4c0-0.8,0-1.6,0.1-2.5c0-1.8,0-1.9,0-2.2V148.3z M268.3,150.2c1.9,0.8,4.8,2.6,6.4,4.1
			c0.6,0.5,0.8,1,0.8,1.9c0,1-0.4,1.8-0.8,1.8c-0.2,0-0.4-0.1-0.6-0.4c-1.4-2.2-3.8-4.9-6.2-7L268.3,150.2z"/>
		<path class="st0" d="M254.3,171c1.4,1.1,2.1,1.4,3.8,1.4c1,0,1.8-0.1,3.2-0.4c0.7-1.3,1.1-2.4,1.1-3.1c0-0.8-0.6-1.3-2.1-1.7
			c0.5-0.3,0.8-0.3,1.4-0.3c0.7,0,1.6,0.2,2.3,0.5c0.8,0.3,1.1,0.6,1.1,1c0,0.2-0.1,0.4-0.5,0.9c-0.3,0.4-0.6,0.9-0.9,1.2
			c-0.5,0.9-0.5,0.9-0.8,1.2c2.5-0.7,3.3-1.1,4.3-1.9c0.2-0.1,0.4-0.2,0.6-0.2c1.2,0,2,0.4,2,1c0,0.4-0.4,0.7-1.3,1
			c-2.7,0.9-4.1,1.2-6.5,1.7c-0.5,0.7-0.9,1.3-1.6,2.3c-0.8,1.3-1.1,1.6-1.6,2.4c1.7-0.9,2.7-1.2,3.9-1.2c1.8,0,3.1,1.2,3.4,3
			c0.5-0.2,0.5-0.2,2.9-1.5c3-1.5,3.7-2,3.7-2.5c0-0.5-0.5-1.1-1.4-1.4c0.3-0.1,0.5-0.2,0.7-0.2c1.3,0,3.4,1.8,3.4,3
			c0,0.5-0.2,0.8-1.1,0.9c-1.8,0.4-5.7,1.9-8,3.1c0,1,0,1.1,0,2.4c0,1.4-0.1,2.3-0.2,2.6c-0.2,0.3-0.5,0.6-0.8,0.6
			c-0.6,0-1-0.4-1-0.9c0-0.2,0-0.3,0-0.5c0.1-0.9,0.2-1.9,0.2-3.2c-1.9,1-2.7,1.6-3.5,2.4c-1,1-1.5,1.9-1.5,2.8c0,1.6,1.7,2.4,5,2.4
			c2.1,0,4.2-0.3,6-0.8c0.2-0.1,0.4-0.1,0.6-0.1c0.9,0,2.1,0.8,2.1,1.5c0,0.4-0.3,0.7-0.9,0.8c-1.2,0.2-3.5,0.4-5.4,0.4
			c-2.8,0-4.9-0.3-6.1-0.9c-1.5-0.7-2.2-1.7-2.2-3.2c0-1.4,0.7-2.7,2.2-4.1c0.8-0.8,1.7-1.4,3.7-2.7c0-1.3-0.1-1.7-0.4-2.4
			c-0.3-0.5-0.9-0.9-1.5-0.9c-2,0-4.4,1.6-6.5,4.4c-0.6,0.8-0.8,1-1.1,1c-0.5,0-0.8-0.6-0.8-1.6c0-0.6,0-0.7,0.9-1.4
			c2.1-1.7,3.5-3.2,5.6-6.5c-1,0.1-1.4,0.2-2,0.2c-2,0-3.1-0.5-4.5-2.3L254.3,171z"/>
		<path class="st0" d="M251.1,211.5c1.3,0.2,2,0.2,3.9,0.2h17.7c0.8-1.1,1.1-1.5,2.1-2.6c1.5,1.2,2,1.6,3.5,2.9
			c0.1,0.1,0.1,0.2,0.1,0.2c0,0.1-0.1,0.2-0.3,0.2H255c-1.8,0-2.3,0-3.7,0.2L251.1,211.5z"/>
		<path class="st0" d="M261.8,235.4c0.6-0.8,0.8-1,1.4-1.8c1,0.9,1.3,1.1,2.2,2c0.1,0.1,0.2,0.2,0.2,0.2c0,0.1-0.2,0.2-0.3,0.2h-9.4
			v6.4c0,0.4,0,0.6,0.2,0.6c0.3,0.1,1.2,0.2,2.5,0.2c1.6,0,2.7,0,3-0.1c0.3-0.1,0.5-0.1,0.6-0.1c0.5,0,1.3,0.9,1.3,1.4
			c0,0.5-0.8,0.5-4.7,0.5c-2.4,0-3.5-0.1-4.1-0.4c-0.6-0.2-0.7-0.6-0.7-1.9v-6.6h-0.7c-0.7,0-1.1,0-2,0.1l-0.2-1.1
			c1,0.2,1.5,0.3,2.2,0.3h3.8v-2c0-0.4,0-0.8-0.1-1.8c3,0.3,3.4,0.4,3.4,0.7c0,0.2-0.3,0.4-1.2,0.7v2.3H261.8z M265.4,252.5h5.8
			c0.7-0.8,0.9-1.1,1.6-1.8c0.8,0.7,1.6,1.4,2.4,2.2c0.1,0.1,0.1,0.1,0.1,0.1c0,0.1-0.2,0.2-0.3,0.2h-9.6v3.8h8.3
			c0.8-0.9,1-1.2,1.8-2c1.2,1,1.6,1.3,2.7,2.3c0.1,0.1,0.2,0.2,0.2,0.2c0,0.1-0.2,0.2-0.4,0.2h-23.8c-0.8,0-1.4,0-2.6,0.2l-0.2-1.1
			c0.8,0.2,1.8,0.3,2.9,0.3h9.1v-3.8h-6.2c-1.1,0-1.5,0-2.7,0.2l-0.2-1.1c0.8,0.2,1.7,0.3,2.9,0.3h6.3v-3.4h-7.5
			c-1.1,0-1.5,0-2.6,0.1l-0.2-1.1c0.9,0.2,1.7,0.3,2.8,0.3h17.3c0.5-0.6,1-1.2,1.5-1.8c1.1,0.8,1.4,1.1,2.4,2
			c0.1,0.1,0.1,0.1,0.1,0.2c0,0.1-0.2,0.2-0.4,0.2h-11.4V252.5z M267.6,241.6c-0.5,1.4-1.1,2.3-2,3.4c-1,1.1-1.7,1.8-3.3,2.7
			l-0.3-0.3c1.5-1.2,2.4-2.4,3.3-4.4c1-2.3,1.9-7.2,1.9-10.7c1.1,0.5,1.4,0.7,2.3,1.3h5.3c0.5-0.6,0.7-0.8,1.2-1.3
			c0.8,0.6,1,0.8,1.7,1.3c0.2,0.2,0.3,0.3,0.3,0.5c0,0.2-0.2,0.4-1,0.8c-0.5,4.2-1.1,8.1-1.7,9.8c-0.5,1.5-1.2,2-3.4,2.4
			c-0.3-0.7-0.6-1-1.1-1.3c-0.4-0.2-0.4-0.2-2.4-0.6v-0.4c2.2,0.2,3.4,0.3,4,0.3c1,0,1.1-0.1,1.7-3.3H267.6z M268.5,237.8
			c-0.3,1.5-0.4,2.1-0.7,3.1h6.4c0.2-1.3,0.3-1.6,0.5-3.1H268.5z M274.7,237.1c0.2-1.1,0.2-1.6,0.3-3h-6c-0.2,1.5-0.2,1.8-0.4,3
			H274.7z"/>
		<path class="st0" d="M260,291.1c3.5-2.4,5-4.3,5.7-7.5c-0.7,0.4-1.2,0.6-1.9,0.6c-2.1,0-3.7-1.9-3.7-4.3c0-2.6,1.7-4.6,3.9-4.6
			c0.6,0,0.9,0.1,1.7,0.5c0-0.5,0-2.2,0-3.1c0-0.1,0-0.3,0-0.6c-2.3,0.2-5.1,0.8-7.6,1.5c-0.8,0.2-1.3,0.5-2,0.8
			c-0.2,0.1-0.5,0.2-0.7,0.2c-0.5,0-1.2-0.4-1.9-1.1c-0.7-0.7-1.2-1.7-1.2-2.2c0-0.1,0.1-0.2,0.2-0.4c0.8,1,1.7,1.5,2.9,1.5
			c0.6,0,1.3-0.1,2.6-0.3c3.5-0.6,4.6-0.7,7.7-1.1c0-1.8-0.1-2.7-0.3-3.3c-0.3-0.8-1.1-1.3-2.6-1.5c0.4-0.5,0.6-0.5,1.4-0.5
			c1,0,2,0.2,2.9,0.4c0.7,0.2,1.1,0.6,1.1,1.1c0,0.2,0,0.3-0.3,0.8c-0.3,0.6-0.5,1.5-0.7,2.9c0.8-0.1,0.8-0.1,2-0.2
			c2.9-0.2,3.2-0.3,4-0.5c0.8-0.3,0.9-0.3,1.1-0.3c0.6,0,1.8,0.5,2.6,1.1c0.4,0.3,0.5,0.5,0.5,0.8c0,0.3-0.2,0.5-0.7,0.5
			c-0.2,0-0.3,0-1.6-0.2c-1.6-0.2-2.9-0.3-4.6-0.3c-1.1,0-2,0-3.2,0.1c-0.1,1.1-0.2,3-0.2,4.1c0,0.2,0,0.6,0,1c0.8,1.5,1,2.5,1,4
			c0,2.9-1.2,5.7-3.2,7.6c-1.1,1.1-2.6,2-4.5,2.9L260,291.1z M263.8,276.1c-1.4,0-2.4,1.4-2.4,3.2c0,1.9,1,3.3,2.4,3.3
			c1.3,0,1.9-1,1.9-2.8C265.8,277.3,265.1,276.1,263.8,276.1z"/>
		<path class="st0" d="M267.1,301.9c-1.2,0.4-4,1.5-6.1,2.4c-0.6,0.3-1,0.4-1.2,0.4c-0.5,0-1.1-0.4-1.7-1.3
			c-0.5-0.8-0.8-1.6-0.8-2.2c0-0.3,0.1-0.5,0.3-0.8c0.5,1.4,1.3,2.2,2.3,2.2c0.8,0,3.6-0.7,5.7-1.3c1.2-0.4,1.2-0.4,1.9-0.9
			c0.1-0.1,0.3-0.1,0.4-0.1c0.4,0,0.9,0.3,1.6,1.1c0.7,0.7,0.9,1,0.9,1.4c0,0.2-0.2,0.4-0.5,0.6c-0.9,0.5-1.2,0.7-2.5,2
			c-1.9,1.9-3,3-4.4,4.5c-2.9,3.1-2.9,3.1-3.5,3.7l0.1,0.1c3.2-2,5.6-2.9,8.2-2.9c3.8,0,6.4,2.3,6.4,5.6c0,4.3-4,7.5-9.4,7.5
			c-2.9,0-4.8-1.2-4.8-3c0-1.5,1.4-2.6,3.2-2.6c1.5,0,2.8,0.5,3.8,1.5c0.5,0.5,0.9,1,1.3,1.9c2.3-1,3.6-3.1,3.6-5.6
			c0-1.7-0.7-3-1.9-3.7c-0.6-0.4-1.8-0.6-3-0.6c-2.9,0-7.1,2.4-9.6,5.6c-0.5,0.6-0.7,0.8-1,0.8c-0.5,0-1-1.1-1-2
			c0-0.4,0.2-0.7,0.6-1.1c1.1-0.9,1.6-1.4,4.2-4.2c3.7-4.1,4.8-5.4,7.2-8.5c0.2-0.3,0.2-0.3,0.3-0.5c0,0-0.1-0.1-0.1-0.1
			c0,0,0,0,0,0c0,0,0,0-0.1,0c0,0-0.1,0-0.2,0.1L267.1,301.9z M262.5,319.1c-1.1,0-1.9,0.6-1.9,1.5c0,1.1,1.3,1.8,3.4,1.8
			c0.8,0,1.2-0.1,2.1-0.3C265.5,320.3,264.2,319.1,262.5,319.1z"/>
		<path class="st0" d="M218.5,8.4c0.5-0.6,0.6-0.8,1.1-1.4c1,0.8,1.3,1,2.2,1.8c0.3,0.2,0.4,0.4,0.4,0.5c0,0.2-0.4,0.3-1.8,0.4
			c-1.5,1.9-2.6,2.9-4.5,4.3c1.6,0.8,2.9,1.3,4.7,1.8c2.6,0.8,4.6,1.1,7.5,1.2v0.5c-1.2,0.2-1.6,0.5-2.3,2c-1.9-0.4-2.7-0.7-4.8-1.5
			c0.7,0.7,0.7,0.7,1.3,1.2c0.2,0.2,0.3,0.3,0.3,0.4c0,0-0.1,0.1-0.1,0.2c-0.1,0-0.2,0.1-0.3,0.2c-0.1,0-0.2,0.1-0.3,0.2
			c0,1.4,0,1.4,0,3.9c0,1.7,0,1.7,0.1,3.2c0,0.1,0,0.1,0,0.2c0,0.2-0.1,0.3-0.3,0.4c-0.3,0.1-0.8,0.1-1.2,0.1
			c-0.5,0-0.5-0.1-0.5-0.5c0,0,0,0,0-0.1v-1.2h-11.3v1.1c0,0.5-0.3,0.7-1.2,0.7c-0.7,0-0.9-0.1-0.9-0.5v-0.1c0-1.1,0-1.1,0-2.6
			c0-0.8,0-0.8,0.1-2.7v-3.2c-2.2,0.8-3.4,1.2-5.6,1.6l-0.2-0.4c4.6-1.5,8.9-3.7,12.5-6.2c-1.3-1-2.7-2.4-3.6-3.5
			c-0.7,0.8-1.5,1.5-2.5,2.2c-2.1,1.7-3.5,2.5-5.3,3.2l-0.2-0.3c2.8-2.2,4.1-3.3,5.6-5c1.7-1.8,2.6-3.3,3.2-4.8
			c2.9,0.6,3.2,0.7,3.2,0.9c0,0.3-0.4,0.5-1.6,0.7c-0.4,0.5-0.5,0.7-0.8,1.1H218.5z M213.4,4.6V2.5c0-0.7,0-1.1-0.1-2
			c2.4,0.2,2.8,0.3,3.1,0.4c0.2,0.1,0.4,0.2,0.4,0.4c0,0.3-0.4,0.5-1.3,0.7v2.6h8.4c0.6-0.7,0.8-0.9,1.4-1.7l2.7,2
			c0.2,0.2,0.3,0.3,0.3,0.4c0,0.1-0.2,0.2-0.3,0.2c0,0-0.6,0.1-1.8,0.3c-1.9,2.1-2,2.2-2.9,2.9L223,8.6c0.6-1.4,0.7-2,1.1-3.3h-19.1
			c-0.2,1.5-0.5,2.6-0.9,3.4c-0.4,0.7-1.3,1.4-1.8,1.4c-0.2,0-0.5-0.2-0.7-0.5c-0.2-0.2-0.2-0.8-0.2-1.3c0-0.4,0-0.4,0.7-0.9
			c0.4-0.3,1.1-1.1,1.4-1.7c0.6-1.1,0.8-1.9,1-3.2h0.5c0,0.5,0.1,0.8,0.1,1.1s0,0.5-0.1,1H213.4z M219.7,19c0.5-0.4,0.5-0.4,1.2-1
			c-2.9-1.1-4.4-1.9-6.3-3.1c-2,1.3-4,2.3-6.7,3.5c0.3,0.2,0.4,0.3,0.7,0.6H219.7z M208.6,25.6H220v-5.9h-11.3V25.6z M210.9,9.1
			c-0.3,0.4-0.4,0.5-0.7,0.8c0.8,1,2.3,2.1,4.2,3.2c1.6-1.3,2.6-2.3,4-4.1H210.9z"/>
		<path class="st0" d="M221.3,53.4c0.7-0.8,0.9-1.1,1.7-2c1.2,1,1.6,1.3,2.7,2.3c0.1,0.1,0.1,0.2,0.1,0.3c0,0.1-0.1,0.2-0.3,0.2h-10
			v5.1h8.1c0.8-0.9,1-1.2,1.9-2.1c1.3,0.9,1.7,1.2,2.9,2.3c0.2,0.1,0.2,0.2,0.2,0.3s-0.1,0.2-0.2,0.2H204c-0.6,0-2.1,0.1-2.6,0.2
			l-0.3-1.2c2.3,0.3,2.3,0.3,2.9,0.3h9.5v-5.1h-7c-0.7,0-1.2,0-2.5,0.2l-0.3-1.2c0.9,0.2,2.3,0.3,2.9,0.3h6.9v-1.1
			c0-0.9,0-1.6-0.2-3c3.3,0.5,3.5,0.5,3.5,0.8c0,0.2-0.2,0.3-1.3,0.7v2.6H221.3z M213.5,37v-1.4c0-1.1,0-1.4-0.1-2.2
			c2.9,0.3,3.5,0.4,3.5,0.8c0,0.1-0.1,0.2-0.2,0.3c-0.2,0.1-0.5,0.2-1.2,0.4V37h8.3c0.6-0.7,0.6-0.7,1.4-1.6c1.2,0.8,1.6,1.1,2.7,2
			c0.2,0.1,0.2,0.2,0.2,0.3c0,0.1-0.1,0.1-0.1,0.2c-0.1,0.1-0.4,0.1-0.8,0.2c-0.4,0.1-0.7,0.1-1,0.2c-0.2,0.2-0.4,0.4-0.5,0.5
			c-0.9,0.9-1.1,1-1.9,1.7l-0.3-0.2c0.4-1.2,0.5-1.6,0.6-2.6h-19.3c-0.2,1.4-0.5,2.3-1,3.2c-0.4,0.8-1.2,1.4-1.6,1.4
			s-1.1-1.1-1.1-1.8c0-0.3,0.1-0.5,0.4-0.7c1.2-0.9,1.5-1.2,1.9-1.9c0.5-1,0.8-1.8,1-2.9h0.5c0,0.3,0,0.5,0,0.7c0,0.5,0,0.7-0.1,1.3
			H213.5z M207.4,42.1c-0.8,0-1.3,0-2.4,0.2l-0.3-1.2c0.6,0.1,0.6,0.1,2.7,0.3h13.3c0.6-0.8,0.8-1,1.5-1.8c1.1,0.8,1.4,1.1,2.6,2.1
			c0.1,0.1,0.2,0.1,0.2,0.2c0,0.1-0.1,0.2-0.2,0.2h-11c-2.6,3.5-2.6,3.5-4.2,5.1c3.4-0.1,5.4-0.2,11.3-0.8c-1.1-1.2-1.8-1.9-3.2-3.1
			l0.2-0.3c1.4,0.6,2,0.9,3.9,2.2c1.4,0.9,2.4,1.7,2.9,2.2c0.3,0.4,0.4,0.7,0.4,1.2c0,1-0.4,1.9-0.8,1.9c-0.2,0-0.2,0-1.7-1.9
			c-0.8-1-0.9-1.1-1.2-1.6c-3.5,0.6-5.9,1-6.6,1.1c-3,0.4-7.4,0.9-9.7,1.1c-0.1,0.9-0.2,1.3-0.5,1.3c-0.4,0-0.7-0.8-1.1-3.3
			c0.6,0.1,1.1,0.1,1.7,0.1c0.2,0,0.5,0,0.8,0c0.3,0,0.4,0,2.7-0.1c1.4-2.3,1.6-2.8,2.5-5.1H207.4z"/>
		<path class="st0" d="M204.3,71.9c1.4,1.1,2.1,1.4,3.8,1.4c1,0,1.8-0.1,3.2-0.4c0.7-1.3,1.1-2.4,1.1-3.1c0-0.8-0.6-1.3-2.1-1.7
			c0.5-0.3,0.8-0.3,1.4-0.3c0.7,0,1.6,0.2,2.3,0.5c0.8,0.3,1.1,0.6,1.1,1c0,0.2-0.1,0.4-0.5,0.9c-0.3,0.4-0.6,0.9-0.9,1.2
			c-0.5,0.9-0.5,0.9-0.8,1.2c2.5-0.7,3.3-1.1,4.3-1.9c0.2-0.1,0.4-0.2,0.6-0.2c1.2,0,2,0.4,2,1c0,0.4-0.4,0.7-1.3,1
			c-2.7,0.9-4.1,1.2-6.5,1.7c-0.5,0.7-0.9,1.3-1.6,2.3c-0.8,1.3-1.1,1.6-1.6,2.4c1.7-0.9,2.7-1.2,3.9-1.2c1.8,0,3.1,1.2,3.4,3
			c0.5-0.2,0.5-0.2,2.9-1.5c3-1.5,3.7-2,3.7-2.5c0-0.5-0.5-1.1-1.4-1.4c0.3-0.1,0.5-0.2,0.7-0.2c1.3,0,3.4,1.8,3.4,3
			c0,0.5-0.2,0.8-1.1,0.9c-1.8,0.4-5.7,1.9-8,3.1c0,1,0,1.1,0,2.4c0,1.4-0.1,2.3-0.2,2.6c-0.2,0.3-0.5,0.6-0.8,0.6
			c-0.6,0-1-0.4-1-0.9c0-0.2,0-0.3,0-0.5c0.1-0.9,0.2-1.9,0.2-3.2c-1.9,1-2.7,1.6-3.5,2.4c-1,1-1.5,1.9-1.5,2.8c0,1.6,1.7,2.4,5,2.4
			c2.1,0,4.2-0.3,6-0.8c0.2-0.1,0.4-0.1,0.6-0.1c0.9,0,2.1,0.8,2.1,1.5c0,0.4-0.3,0.7-0.9,0.8c-1.2,0.2-3.5,0.4-5.4,0.4
			c-2.8,0-4.9-0.3-6.1-0.9c-1.5-0.7-2.2-1.7-2.2-3.2c0-1.4,0.7-2.7,2.2-4.1c0.8-0.8,1.7-1.4,3.7-2.7c0-1.3-0.1-1.7-0.4-2.4
			c-0.3-0.5-0.9-0.9-1.5-0.9c-2,0-4.4,1.6-6.5,4.4c-0.6,0.8-0.8,1-1.1,1c-0.5,0-0.8-0.6-0.8-1.6c0-0.6,0-0.7,0.9-1.4
			c2.1-1.7,3.5-3.2,5.6-6.5c-1,0.1-1.4,0.2-2,0.2c-2,0-3.1-0.5-4.5-2.3L204.3,71.9z"/>
		<path class="st0" d="M209.1,113.7c-0.5,1.9-1.4,5.2-1.7,6.6c-0.3,1.3-0.4,1.8-0.4,2.6c0,1-0.1,1.1-0.2,1.3
			c-0.2,0.2-0.3,0.3-0.6,0.3c-0.5,0-0.9-0.4-1.3-1.4c-0.6-1.5-1-3.8-1-6c0-2.8,0.3-5.3,1.4-10c0.4-1.9,0.5-2.2,0.5-2.7
			c0-0.9-0.2-1.6-0.9-2.6c0.7,0,1.3,0.4,2.1,1.5c0.7,0.9,1.1,1.7,1.1,2.3c0,0.3,0,0.3-0.5,1.3c-1.4,3-2.3,6.6-2.3,9.8
			c0,1.5,0.1,2.5,0.5,3.7l1.3-3l1.6-3.9L209.1,113.7z M212.1,108.3c1.4,0.9,2.4,1.2,3.9,1.2c1.1,0,2.2-0.2,3.4-0.4
			c0-0.6,0-1.1,0-1.3c0-3.4,0-3.8-0.4-4.2c-0.4-0.4-1-0.6-2-0.7c0.4-0.4,0.7-0.5,1.4-0.5c0.7,0,1.5,0.1,2,0.3
			c0.9,0.3,1.3,0.6,1.3,1.1c0,0.2,0,0.2-0.3,0.9c-0.3,0.9-0.5,2-0.6,4c1.4-0.4,2.3-0.8,2.8-1.2c0.3-0.3,0.4-0.3,0.7-0.3
			c0.4,0,1.1,0.2,1.4,0.4c0.2,0.1,0.4,0.3,0.4,0.5c0,0.7-2.2,1.6-5.3,2.2c0,4,0.1,5.6,0.4,8.2c3.5,0.9,5,2.1,5,3.8
			c0,0.6-0.3,1.1-0.6,1.1c-0.2,0-0.5-0.2-1.1-0.8c-1.3-1.4-2.1-1.9-3.2-2.4c0,0.3,0,0.5,0,0.7c0,2.2-1.8,3.5-4.8,3.5
			c-2.6,0-4.4-1.3-4.4-3.1c0-2.1,2.2-3.4,5.6-3.4c0.6,0,1,0,1.8,0.1c0-0.3,0-0.5,0-0.5l-0.1-3.2l0-3.8c-0.9,0.2-1.8,0.2-2.6,0.2
			c-2.2,0-3.5-0.5-5-2.1L212.1,108.3z M216.7,119.2c-2.4,0-3.8,0.8-3.8,2.1c0,1.1,1.2,1.8,2.9,1.8c1.7,0,2.8-0.5,3.3-1.4
			c0.3-0.5,0.4-1,0.4-2.1C218.7,119.3,217.9,119.2,216.7,119.2z"/>
		<path class="st0" d="M223.6,152.7c-1.1,1.4-1.9,2.3-3.1,3.3c-2.4,1.9-5,3-7.5,3c-2.3,0-4.1-0.9-5-2.6c-0.6-1-0.8-2.5-0.8-5.1
			c0-1.7,0.1-4.5,0.2-7.2c0.2-3.3,0.2-4.1,0.2-5.2c0-2.6-0.3-3.1-2.4-4c0.3-0.2,0.5-0.3,0.8-0.3c0.7,0,1.8,0.3,2.7,0.7
			c1.1,0.5,1.7,1.1,1.7,1.8c0,0.2,0,0.4-0.3,1.1c-0.6,1.8-1.6,10.9-1.6,14.4c0,1.8,0.4,2.9,1.2,3.6c0.7,0.5,1.6,0.8,2.7,0.8
			c2,0,4.6-0.7,6.8-1.9c1.4-0.8,2.3-1.4,3.8-2.7L223.6,152.7z M216.8,136.9c1.1,0.6,1.9,1.2,2.7,1.9c1.1,1,1.5,1.7,1.5,2.4
			c0,0.7-0.4,1.3-0.9,1.3c-0.4,0-0.4,0-1.4-2c-0.5-1.1-1.5-2.4-2.3-3.2L216.8,136.9z M219.8,135.2c1.1,0.5,2,1,2.9,1.7
			c1.1,0.9,1.5,1.5,1.5,2.3c0,0.7-0.3,1.2-0.8,1.2c-0.3,0-0.5-0.2-0.7-0.6c-1.1-1.9-1.6-2.7-3.3-4.3L219.8,135.2z"/>
		<path class="st0" d="M206.2,169.6c1.2,0.9,1.9,1.7,2.3,2.5c0.3,0.5,0.6,1.7,0.9,3.2c2.1-1.1,3.6-1.6,6.3-1.9
			c0.4-1.5,0.6-2.6,0.6-3.5c0-0.8-0.3-1-1.4-1c-0.2,0-0.3,0-0.6,0l-0.1-0.3c0.8-0.4,1.4-0.5,1.9-0.5c1.1,0,2.4,1,2.4,1.8
			c0,0.5-0.5,2.3-0.9,3.5c5,0.2,8.4,3.4,8.4,7.9c0,3.3-1.9,6.2-5.5,8c-1.8,1-3.5,1.4-5.9,1.7l-0.1-0.4c2.6-0.8,4.2-1.7,5.8-3
			c2.2-1.9,3.3-4.3,3.3-6.9c0-2.3-0.9-4.2-2.6-5.4c-1.1-0.8-2.1-1.1-3.8-1.2c-1.2,3.3-3.2,6.9-5,9.4c0.4,0.6,0.6,0.8,1.1,1.5
			c0.9,1.1,0.9,1.2,0.9,1.6c0,0.4-0.3,0.7-0.7,0.7c-0.7,0-1.6-0.8-2.6-2.2c-0.5,0.6-1.1,1.3-2.3,2.2c-1,0.8-1.7,1.1-2.4,1.1
			c-0.7,0-1-0.4-1.3-1.5c-0.3-1-0.4-1.2-0.9-2c-0.5-0.7-0.7-1.2-0.7-1.8c0-2.4,1.7-4.9,4.7-7c-0.5-3.4-0.9-4.4-2.3-6.1L206.2,169.6z
			 M206.1,180c-0.7,1.1-1,2.4-1,3.5c0,1.4,0.8,2.9,1.6,2.9c0.7,0,2.2-1.1,3.6-2.6c-0.8-2-1.2-3.3-1.9-6.5
			C207.2,178.4,206.7,179,206.1,180z M211.5,182.3c1.7-2.4,3-5.1,3.9-8c-2.6,0.4-4,0.9-5.8,2.2C210.6,179.9,210.8,180.7,211.5,182.3
			z"/>
		<path class="st0" d="M221.3,199.2c2.3,0.8,4.6,2,5.9,2.9c1.2,0.9,1.6,1.6,1.6,2.6c0,1-0.5,2-1.1,2c-0.1,0-0.3-0.1-0.4-0.2
			c-0.2-0.2-0.2-0.2-1.5-2.2c-1-1.5-2.6-3.2-4.6-4.8L221.3,199.2z"/>
		<path class="st0" d="M150.7,5.9c1.2,0.2,1.8,0.3,3.2,0.3h5.5c0.5-0.6,1-1.1,1.5-1.7c1.1,0.8,1.5,1.1,2.6,2
			c0.1,0.1,0.1,0.2,0.1,0.3c0,0.1-0.1,0.2-0.3,0.2h-9.3c-1.4,0-1.9,0-2.9,0.2L150.7,5.9z M151.9,2c0.9,0.2,1.7,0.3,2.5,0.3h3.8
			c0.6-0.8,0.8-1,1.4-1.7c1.1,0.8,1.4,1.1,2.4,2c0.1,0.1,0.1,0.2,0.1,0.2c0,0.1-0.1,0.2-0.3,0.2h-7.5c-0.6,0-1.1,0-2.3,0.2L151.9,2z
			 M152.2,13.7c1.1,0.2,1.7,0.3,2.6,0.3h2.8c0.6-0.8,0.8-1,1.5-1.7c1,0.8,1.3,1.1,2.3,1.9c0.1,0.1,0.2,0.3,0.2,0.3
			c0,0.1-0.1,0.2-0.2,0.2h-6.6c-1,0-1.4,0-2.3,0.2L152.2,13.7z M152.2,9.8c1.1,0.2,1.7,0.3,2.5,0.3h3.2c0.5-0.6,1-1.2,1.5-1.7
			c1,0.8,1.4,1.1,2.3,2c0.1,0.1,0.1,0.2,0.1,0.3c0,0.1-0.1,0.2-0.3,0.2h-6.8c-1,0-1.4,0-2.3,0.2L152.2,9.8z M154.2,27.5
			c0,0.2-0.1,0.3-0.3,0.4c-0.2,0.1-0.7,0.1-1,0.1c-0.5,0-0.6-0.1-0.7-0.4c0.1-3.3,0.1-4.1,0.1-5.3c0-1.6,0-3.9-0.1-5.3
			c1,0.6,1.3,0.8,2.2,1.4h4.1c0.4-0.4,0.8-0.8,1.1-1.2c0.8,0.5,1,0.7,1.6,1.2c0.2,0.2,0.4,0.4,0.4,0.5c0,0.2-0.1,0.3-1,0.8
			c0,0.7,0,1.1,0,1.5c0,0.8,0.1,3.9,0.1,4.7c0,0.2-0.1,0.3-0.2,0.4c-0.2,0.1-0.9,0.2-1.4,0.2c-0.4,0-0.5-0.1-0.5-0.4v-0.5h-4.5V27.5
			z M154.2,24.8h4.5v-5.9h-4.5V24.8z M178.9,25.5c-0.6,0.1-0.8,0.2-1.3,0.6c-0.5,0.5-0.7,0.8-1,1.6c-3-1.3-5.2-2.8-7.2-4.8
			c-2.8,2.5-5.7,4-9.9,5.2l-0.2-0.4c3.5-1.5,6.2-3.3,8.9-6c-1.7-2.2-2.7-4.2-3.4-7.3h-0.6c-0.7,0-0.9,0.1-1.5,0.2l-0.2-1.2
			c0.9,0.2,1.7,0.3,2.8,0.3h7.4c0.5-0.6,0.7-0.8,1.2-1.3c1,0.7,1.3,0.9,2.2,1.6c0.2,0.2,0.3,0.3,0.3,0.4c0,0.2-0.4,0.4-1.5,0.7
			c-1.7,3.4-2.7,4.9-4.3,6.7c2.3,1.8,4.5,2.6,8.3,3.3L178.9,25.5z M161.5,13.1c2.7-2.7,3.4-5,3.4-10.1c0-0.8,0-1.1-0.1-2.1
			c1.1,0.6,1.4,0.8,2.3,1.5h4c0.5-0.6,0.7-0.8,1.2-1.4c0.8,0.6,1,0.8,1.7,1.4c0.3,0.3,0.3,0.4,0.3,0.5c0,0.2-0.2,0.4-1.1,0.8v5.5
			c0,0.5,0.1,0.5,1.6,0.5c1,0,1.3-0.1,1.5-0.4c0.2-0.4,0.3-0.7,1.3-4.4l0.4,0l-0.3,3.9c0,0.1,0,0.1,0,0.1c0,0.5,0,0.5,0.6,0.8
			c0.2,0.1,0.4,0.4,0.4,0.6c0,0.8-0.8,1.1-4.1,1.1c-1.9,0-2.5-0.1-2.9-0.3c-0.4-0.2-0.5-0.6-0.5-1.4V9.6c0-0.8,0-1,0-1.9V3h-4.3
			c-0.2,3.7-0.5,5.1-1.5,6.8c-0.9,1.5-1.8,2.4-3.7,3.6L161.5,13.1z M165.7,14.3c0.6,2.5,1.8,4.4,3.7,6.3c1.6-1.8,2.4-3.4,3.5-6.3
			H165.7z"/>
		<path class="st0" d="M157.4,44.3c0.2,0.2,0.6,0.4,1,0.4c0.7,0,1.3-0.2,5.2-1.4c2.3-0.7,2.4-0.8,2.8-1.1c0.3-0.2,0.4-0.2,0.5-0.2
			c0.8,0,2.5,1.7,2.5,2.5c0,0.4-0.1,0.5-0.9,0.8c-0.5,0.2-0.8,0.4-1.7,1.2c-1,0.8-4.2,3.9-6,5.9c1.4-0.8,2.4-1.1,3.4-1.1
			c0.8,0,1.4,0.3,2,0.8c0.7,0.6,0.9,1.1,1.4,3.1c0.4,1.7,0.9,2.1,3,2.1c0.6,0,1.3-0.1,1.9-0.1c0.4-0.1,0.4-0.1,1.1-0.3
			c0.2-0.1,0.3-0.1,0.4-0.1c0.3,0,0.9,0.3,1.4,0.7c0.5,0.4,0.8,0.7,0.8,1.1c0,0.7-0.9,0.9-3.5,0.9c-2.3,0-3.7-0.3-4.8-1
			c-0.9-0.5-1.4-1.2-1.7-2.3c-0.1-0.5-0.1-0.5-0.4-2.3c-0.2-1.1-0.8-1.7-1.8-1.7c-1.4,0-3.2,1.1-5,3c-0.9,0.9-1.6,1.7-3.1,3.7
			c-0.3,0.4-0.5,0.6-0.7,0.6c-0.5,0-1.1-1.1-1.1-2c0-0.4,0.1-0.6,0.5-0.8c1.7-1.2,2.3-1.8,4.4-3.8c2.2-2.2,5.8-6.1,7.4-8.1
			c0.5-0.7,0.6-0.9,0.6-1c0-0.1-0.1-0.2-0.3-0.2c-1,0-4.2,1.4-7.1,3c-0.6,0.3-0.9,0.5-1.2,0.5c-0.5,0-1-0.4-1.4-1.2
			c-0.3-0.6-0.5-1.4-0.5-1.9c0-0.4,0.1-0.7,0.5-1.1C156.9,43.6,157.1,44,157.4,44.3z M161.2,34.3c1.5,1.2,2.3,1.6,3.9,1.9
			c0.8,0.2,1.1,0.2,2.2,0.3c0.5,0,0.8,0.2,1.3,0.6c0.5,0.5,0.7,1,0.7,1.4c0,0.3-0.3,0.6-0.6,0.6c-0.1,0-0.2,0-0.4,0
			c-0.2,0-0.3,0-0.5,0c-0.5,0-0.5,0-2.5,0.2c-0.2,0-1.8,0.3-4.7,0.8l-0.1-0.4c2.3-0.8,4.7-1.5,5.4-1.7c-2.6-0.9-3.7-1.6-4.9-3.4
			L161.2,34.3z"/>
		<path class="st0" d="M159,80.7c-0.1,0.3-0.5,2.2-1.4,5.6c-0.4,1.8-0.5,2.3-0.5,3.2c0,0.9,0,1.1-0.1,1.3c-0.1,0.3-0.4,0.5-0.7,0.5
			c-0.5,0-1-0.4-1.3-1.2c-0.7-1.6-1.1-4-1.1-6.4c0-0.9,0.1-2,0.2-3.2c0.2-1.7,0.2-1.7,1.1-5.7c0.3-1.4,0.4-2.2,0.4-2.8
			c0-1-0.2-1.7-0.8-2.8c0.7,0,1.2,0.4,2,1.5c0.8,0.9,1.1,1.7,1.1,2.4c0,0.5,0,0.6-0.6,1.8c-0.6,1.3-1.3,3.4-1.6,4.8
			c-0.3,1.1-0.4,2.4-0.4,3.7c0,1.7,0.2,2.7,0.6,4c0.5-1,0.8-1.7,1.1-2.6l1.6-4.2L159,80.7z M162.8,82.2c-0.1,0.6-0.1,0.9-0.1,1.3
			c0,3.3,1.9,4.7,6.5,4.7c0.9,0,1.7-0.1,2.6-0.2c0.6-0.1,0.6-0.1,1.6-0.5c0.2-0.1,0.3-0.1,0.5-0.1c0.8,0,1.9,1,1.9,1.8
			c0,0.4-0.2,0.6-0.7,0.8c-0.6,0.2-2.1,0.3-3.8,0.3c-3.8,0-6.4-0.6-7.8-1.8c-1.1-1-1.6-2.3-1.6-3.9c0-0.8,0.1-1.4,0.4-2.4
			L162.8,82.2z M162.7,72.6c1.1,0.6,1.7,0.8,2.8,0.8c1.9,0,4.8-0.7,6-1.4c0.4-0.2,0.5-0.2,0.7-0.2c0.2,0,0.6,0.2,1.1,0.4
			c0.6,0.4,0.9,0.7,0.9,1.1c0,0.4-0.2,0.6-0.8,0.7c-2,0.3-3.1,0.6-4.3,1.1c-0.9,0.4-2.7,1.4-3.9,2.1l-0.3-0.3c1.4-1.1,2.4-2,2.9-2.3
			c-0.6,0-1,0.1-1.2,0.1c-1.7,0-2.8-0.4-4.1-1.7L162.7,72.6z"/>
		<path class="st0" d="M158,122.2c2.2,1.4,4.6,1.8,9.7,1.8c3.5,0,7-0.2,10.6-0.5v0.4c-0.9,0.6-1.2,1.2-1.2,2.1c-2,0.1-3,0.1-5,0.1
			c-7.5,0-10-0.3-12.5-1.4c-2.9-1.3-4.8-3.5-5.9-6.8c-0.8,3.8-1.6,5.6-3.3,8.2l-0.4-0.2c1.2-2.8,1.6-4.3,2-7.7
			c0.3-2,0.5-4.1,0.5-5.4c0-0.1,0-0.3,0-0.6c2.5,0.4,2.9,0.5,2.9,0.8c0,0.2-0.2,0.3-0.9,0.6c-0.2,1.6-0.3,2.1-0.5,3.2
			c0.6,1.9,1.1,2.8,2.1,4v-10.5h-2.8c-0.7,0-1.4,0.1-2,0.1l-0.2-1.1c0.8,0.2,1.4,0.3,2.3,0.3h2.8v-4.4h-2.6c-0.8,0-1.2,0-1.7,0.2
			l-0.2-1.1c0.6,0.1,1.1,0.2,2,0.2h2.6v-2.1c0-0.9-0.1-1.4-0.2-2.6c0.6,0.1,1,0.1,1.3,0.1c1.6,0.1,2,0.2,2,0.5
			c0,0.2-0.4,0.4-1.3,0.7v3.3h1l1.4-1.6c0.7,0.8,0.9,1.1,1.7,1.9c0.1,0.1,0.1,0.2,0.1,0.2c0,0.1-0.1,0.1-0.3,0.1H158v4.4h1.3
			c0.6-0.8,0.8-1.1,1.4-2c0.9,0.9,1.1,1.2,1.9,2.1c0.1,0.1,0.1,0.2,0.1,0.3c0,0.1-0.2,0.2-0.4,0.2H158v5.2h1.1l1.4-1.8
			c0.8,0.8,1.1,1.1,1.7,1.9c0.1,0.1,0.2,0.2,0.2,0.3c0,0.1-0.2,0.2-0.3,0.2H158V122.2z M169.4,106.3h5.1c0.5-0.6,0.7-0.8,1.2-1.4
			l1.7,1.4c0.2,0.2,0.3,0.3,0.3,0.4c0,0.2-0.1,0.3-1.3,0.8c-0.4,2.8-0.8,4.2-1.8,6.7c0.8,1.1,1.3,1.8,2,3.2c0.4,0.8,0.5,1,0.5,1.6
			c0,0.9-0.7,2.3-1.2,2.3c-0.2,0-0.3-0.2-0.5-0.7c-0.3-1.1-1.2-3.7-1.7-4.8c-1.1,2.2-2.1,3.4-4.1,5.3l-0.4-0.3
			c1.7-2.2,2.7-4.1,3.6-6.7c-1-2-1.5-2.9-2.7-4.6l0.3-0.1c1.1,1.1,1.5,1.6,2.9,3.3c0.6-1.9,0.8-3.1,1-5.8h-5.1v8.9
			c0,4.1,0,4.1,0,6.8c0,0,0,0.1,0,0.1c0,0.2-0.1,0.3-0.2,0.3c-0.2,0.1-1,0.2-1.3,0.2c-0.2,0-0.3-0.1-0.3-0.4v-3.5c0-0.6,0-1.1,0-1.4
			c-1.5,0.7-3.3,1.5-5.2,2.3c-0.1,0.8-0.2,1.2-0.5,1.2c-0.2,0-0.2-0.1-0.3-0.4c-0.3-0.8-0.5-1.5-0.7-2.4c0.2,0,0.3,0,0.4,0
			c0.3,0,0.4,0,1.7-0.3v-16c-1.1,0-1.6,0-2.3,0.2l-0.3-1.2c1,0.2,1.5,0.3,2.5,0.3h10.6c0.8-0.9,0.8-0.9,1.8-2
			c1.1,0.9,1.5,1.2,2.6,2.2c0.1,0.2,0.2,0.2,0.2,0.3c0,0.1-0.2,0.2-0.3,0.2h-8.4V106.3z M164.8,102.4v5h2.9v-5H164.8z M164.8,108.1
			v4.3h2.9v-4.3H164.8z M164.8,113.1v5c0.3-0.1,0.5-0.1,0.7-0.1c0.9-0.2,0.9-0.2,2.2-0.5v-4.3H164.8z"/>
		<path class="st0" d="M173.6,138.6c0.5-0.7,0.6-0.8,1.1-1.4c0.9,0.6,1.2,0.8,2.1,1.4c0.2,0.2,0.3,0.3,0.3,0.4
			c0,0.2-0.2,0.3-1.1,0.9v11.3c0,0.4,0,1.2,0,2.1c0,1.8,0,2.1,0,3.6c-0.1,0.8-0.4,1.2-1.1,1.7c-0.6,0.4-1.1,0.5-2.9,0.8
			c-0.4-1.7-0.4-1.7-4.5-2.4v-0.4c1.3,0.1,1.3,0.1,3.2,0.1c1.3,0.1,1.3,0.1,2.5,0.1c0.5,0,0.6-0.2,0.6-0.6v-16.9h-18.6v14.6
			c0,1,0,1.4,0,4.7c-0.1,0.5-0.4,0.6-1.5,0.6c-0.5,0-0.6-0.1-0.7-0.4c0.1-4.3,0.1-4.3,0.1-12.5c0-7.3,0-7.3-0.2-9.2
			c1.2,0.6,1.6,0.8,2.7,1.4h4.4c1.1-2.6,1.6-4,2.1-6.2c0.6,0.2,1.1,0.3,1.4,0.4c2.1,0.6,2.3,0.7,2.3,0.9c0,0.3-0.2,0.4-1.5,0.6
			c-1.5,2-2,2.8-3.4,4.2H173.6z M167.7,143.5c0.4-0.5,0.5-0.7,1-1.1c0.8,0.5,1.1,0.7,1.8,1.2c0.2,0.2,0.2,0.3,0.2,0.3
			c0,0.1-0.3,0.4-0.8,0.8c0,4.2,0,6.8,0.1,8c-0.1,0.4-0.4,0.6-1.5,0.6c-0.4,0-0.6-0.1-0.6-0.3v-1.4H161v1.5c0,0.5-0.3,0.6-1.4,0.6
			c-0.4,0-0.6-0.1-0.6-0.5c0.1-1.3,0.1-2.1,0.1-8.3c0-0.8,0-1.4-0.1-2.6c1.1,0.5,1.4,0.6,2.4,1.1H167.7z M161,150.9h6.9v-6.7H161
			V150.9z"/>
		<path class="st0" d="M154.2,171c1.4,1.1,2.1,1.4,3.8,1.4c1,0,1.8-0.1,3.2-0.4c0.7-1.3,1.1-2.4,1.1-3.1c0-0.8-0.6-1.3-2.1-1.7
			c0.5-0.3,0.8-0.3,1.4-0.3c0.7,0,1.6,0.2,2.3,0.5c0.8,0.3,1.1,0.6,1.1,1c0,0.2-0.1,0.4-0.5,0.9c-0.3,0.4-0.6,0.9-0.9,1.2
			c-0.5,0.9-0.5,0.9-0.8,1.2c2.5-0.7,3.3-1.1,4.3-1.9c0.2-0.1,0.4-0.2,0.6-0.2c1.2,0,2,0.4,2,1c0,0.4-0.4,0.7-1.3,1
			c-2.7,0.9-4.1,1.2-6.5,1.7c-0.5,0.7-0.9,1.3-1.6,2.3c-0.8,1.3-1.1,1.6-1.6,2.4c1.7-0.9,2.7-1.2,3.9-1.2c1.8,0,3.1,1.2,3.4,3
			c0.5-0.2,0.5-0.2,2.9-1.5c3-1.5,3.7-2,3.7-2.5c0-0.5-0.5-1.1-1.4-1.4c0.3-0.1,0.5-0.2,0.7-0.2c1.3,0,3.4,1.8,3.4,3
			c0,0.5-0.2,0.8-1.1,0.9c-1.8,0.4-5.7,1.9-8,3.1c0,1,0,1.1,0,2.4c0,1.4-0.1,2.3-0.2,2.6c-0.2,0.3-0.5,0.6-0.8,0.6
			c-0.6,0-1-0.4-1-0.9c0-0.2,0-0.3,0-0.5c0.1-0.9,0.2-1.9,0.2-3.2c-1.9,1-2.7,1.6-3.5,2.4c-1,1-1.5,1.9-1.5,2.8c0,1.6,1.7,2.4,5,2.4
			c2.1,0,4.2-0.3,6-0.8c0.2-0.1,0.4-0.1,0.6-0.1c0.9,0,2.1,0.8,2.1,1.5c0,0.4-0.3,0.7-0.9,0.8c-1.2,0.2-3.5,0.4-5.4,0.4
			c-2.8,0-4.9-0.3-6.1-0.9c-1.5-0.7-2.2-1.7-2.2-3.2c0-1.4,0.7-2.7,2.2-4.1c0.8-0.8,1.7-1.4,3.7-2.7c0-1.3-0.1-1.7-0.4-2.4
			c-0.3-0.5-0.9-0.9-1.5-0.9c-2,0-4.4,1.6-6.5,4.4c-0.6,0.8-0.8,1-1.1,1c-0.5,0-0.8-0.6-0.8-1.6c0-0.6,0-0.7,0.9-1.4
			c2.1-1.7,3.5-3.2,5.6-6.5c-1,0.1-1.4,0.2-2,0.2c-2,0-3.1-0.5-4.5-2.3L154.2,171z"/>
		<path class="st0" d="M150,215.7c0.3,0,0.5,0,0.7,0c0.4,0,0.7,0,0.8,0s0.2,0,0.2,0c0.5,0,0.6-0.1,0.8-0.4c0.2-0.2,0.5-1,1.2-3.1
			c0.7-1.8,0.8-2,2.3-5.8c0.7-1.7,0.7-1.7,1.1-2.9l0.3,0.1l-3.2,11.6c-0.4,1.4-0.4,1.4-0.4,1.7c0,0.3,0,0.4,0.7,3
			c0.2,0.9,0.3,1.4,0.3,1.8c0,0.8-0.2,1.3-0.7,1.8c-0.4,0.4-0.8,0.6-1.3,0.6c-0.5,0-0.7-0.3-0.7-0.8c0-0.3,0-0.6,0.3-2.7
			c0.1-0.5,0.1-1.1,0.1-1.6c0-2-0.5-2.6-2.5-3L150,215.7z M151.2,200.2c1.4,0.8,2.3,1.4,3.1,2.1c0.9,0.7,1.1,1.1,1.1,1.8
			c0,0.8-0.5,1.7-1.1,1.7c-0.3,0-0.5-0.2-0.7-0.8c-0.5-1.5-1.2-2.6-2.8-4.6L151.2,200.2z M162.3,212.1c-0.2,2.3-0.2,2.4-0.4,3.7h1.1
			c0.6-0.7,0.6-0.7,1.4-1.7c0.9,0.8,1.2,1,2,1.9c0.1,0.1,0.1,0.2,0.1,0.2c0,0.1-0.1,0.2-0.3,0.2h-4.5c-0.2,0.8-0.2,1.2-0.5,1.8
			c0.8,0.3,1.1,0.5,1.6,0.8c1.2,0.8,1.7,1.3,1.7,2c0,0.8-0.5,1.6-0.9,1.6c-0.3,0-0.3,0-1.4-2.3c-0.3-0.7-0.6-1.1-1.1-1.6
			c-0.5,1.2-1,2.2-1.9,3.2c-1.3,1.7-2.6,2.6-4.7,3.7l-0.2-0.3c1.9-1.5,3.1-2.8,4.2-4.7c0.7-1.2,1.1-2.3,1.4-4.1h-2.6
			c-1.2,0-1.4,0-2,0.2l-0.2-1.1c0.7,0.2,1.3,0.2,2.2,0.2h2.7c0.2-1.3,0.3-2.1,0.3-3.7h-1.6c-0.7,1.1-1.1,1.8-2.3,3.2l-0.3-0.2
			c1.1-1.8,1.6-3.5,2.2-6.3c0.5,0.1,0.9,0.2,1.2,0.3c1.2,0.3,1.4,0.4,1.4,0.6c0,0.2-0.2,0.3-1.1,0.5c-0.5,0.8-0.5,0.8-0.7,1.2h3.8
			c0.6-0.7,0.8-0.9,1.4-1.5c0.9,0.7,1.1,1,2,1.8c0.1,0.1,0.1,0.2,0.1,0.2c0,0.1-0.1,0.2-0.2,0.2H162.3z M160,203.8
			c0.6-0.3,1-0.6,1.8-1.2c1.4-1.1,1.9-1.5,2.6-2.4c0.5,0.3,0.8,0.5,1.1,0.6c1.1,0.6,1.2,0.7,1.2,0.9c0,0.2-0.2,0.3-1.2,0.3
			c-2.3,1.2-3.9,1.8-5.4,2.2v1.7c0,0.6,0,0.6,2.6,0.6c1.6,0,1.8,0,2-0.4c0.2-0.4,0.4-1,0.9-2.9l0.3,0.1l0,2.3v0.5
			c0,0.2,0,0.2,0.5,0.5c0.2,0.1,0.4,0.4,0.4,0.6c0,0.3-0.2,0.6-0.7,0.7c-0.5,0.1-1.5,0.2-3.6,0.2c-3.8,0-4-0.1-4.1-1.4
			c0-0.9,0-0.9,0-2.3v-2.9c0-1.9,0-1.9,0-2.5c2.7,0.3,3.1,0.4,3.1,0.7c0,0.2-0.2,0.4-1.3,0.7V203.8z M172.7,222.3
			c1.1,0.4,1.9,0.5,3.7,0.5c0.4,0,0.4,0,2.6,0l0,0.4c-0.9,0.4-1.2,0.8-1.4,2c-5.4-0.1-7.7-1.7-9.6-6.5c-0.6,1.7-1.2,2.7-2.1,3.9
			c-1.1,1.4-2,2.3-3.6,3.3l-0.2-0.3c1.7-1.7,2.8-3.2,3.6-5c0.9-2,1.6-5.1,1.6-7.5c0-0.2,0-0.4,0-0.7c2.4,0.4,2.7,0.5,2.7,0.7
			c0,0.2-0.2,0.4-0.9,0.6c-0.3,2-0.5,2.9-0.9,4.3c0.9,1.9,1.6,2.8,2.7,3.6v-11.9h-2.7c-0.8,0-1.3,0-2,0.2l-0.2-1.1
			c0.6,0.2,1.1,0.2,2.2,0.2h7.1c0.5-0.6,0.6-0.8,1.1-1.3c0.8,0.6,1.1,0.8,1.9,1.4c0.2,0.2,0.3,0.3,0.3,0.4c0,0.2-0.2,0.3-1.4,0.6
			c-0.8,0.9-0.8,0.9-2.9,2.6l-0.2-0.2c0.8-1.3,1-1.7,1.4-2.9h-2.9v5.6h1.5c0.7-0.8,0.9-1.1,1.6-1.8c1,0.8,1.3,1.1,2.2,2
			c0.1,0.1,0.2,0.2,0.2,0.3c0,0.1-0.1,0.2-0.3,0.2h-5.1V222.3z M174.3,200.6c0.6-0.6,0.8-0.8,1.2-1.3c0.8,0.5,1.1,0.7,2,1.4
			c0.3,0.2,0.4,0.3,0.4,0.5c0,0.3-0.3,0.4-1.4,0.7c-1.5,1.6-2,2-3.9,3.5c0.8,0.6,1,0.9,1,1.5c0,0.8-0.5,1.7-1,1.7
			c-0.2,0-0.4-0.2-0.6-0.6c-0.7-1.5-1.9-3-3.8-4.8l0.3-0.2c2,1,2.7,1.4,3.7,2.1c1.1-1.4,1.4-2,2.2-3.6h-5c-1.2,0-1.6,0-2.1,0.2
			l-0.2-1.1c0.9,0.2,1.4,0.2,2.3,0.2H174.3z"/>
		<path class="st0" d="M160.8,232.6c1,1.4,1.8,2,3.8,2.6c0.6,0.2,1.5,0.4,2.2,0.6c0.5,0.1,0.9,0.3,1.2,0.8c0.5,0.5,0.7,1,0.7,1.3
			c0,0.4-0.3,0.6-0.7,0.6c-0.1,0-0.2,0-0.6-0.1c-0.5-0.1-0.8-0.1-1.5-0.1c-1.5,0-3.8,0.3-5.7,0.8c-0.8,0.2-1.2,0.3-1.4,0.5
			c-0.2,0.2-0.3,0.5-0.3,0.8c0,0.2,0.1,0.5,0.2,0.9c0.2,0.5,0.2,0.7,0.2,1c0,0.2,0,0.4-0.1,1c-0.2,1.6-0.4,4.1-0.5,6.1
			c3.6-2.4,7.1-3.7,9.8-3.7c3.4,0,5.7,2,5.7,4.7c0,2.8-2.2,5.1-5.9,6.4c-2,0.7-4,1.1-6.8,1.2l-0.1-0.5c3.5-0.6,5.6-1.3,7.5-2.7
			c2.1-1.5,3-3,3-4.9c0-2-1.4-3.3-3.6-3.3c-2.1,0-4.8,1.2-7.2,3.3c-0.8,0.7-1.2,1.1-1.7,1.9c-0.3,0.5-0.5,0.6-0.8,0.6
			c-0.5,0-0.8-0.3-1.3-1c-0.4-0.6-0.6-1.2-0.6-1.5c0,0,0.1-0.3,0.1-0.5c0.1-0.5,0.2-0.7,0.3-1.8c0.1-0.6,0.2-1.4,0.4-2.5
			c0.4-2.3,0.5-3.3,0.6-4c0-1.1,0.1-1.3,0.5-1.7c0.4-0.4,1.3-0.8,3.1-1.4c2.6-0.8,2.6-0.8,3.5-1.1c-1.2-0.5-2-1-2.7-1.7
			c-0.6-0.6-1-1.1-1.5-2.4L160.8,232.6z"/>
		<path class="st0" d="M174.7,284.4c-2.9,3.9-6.8,6.2-10.5,6.2c-2.3,0-4.1-0.9-5-2.6c-0.6-1.1-0.8-2.5-0.8-5.1
			c0-1.7,0.1-4.5,0.2-7.2c0.2-3.2,0.2-4.1,0.2-5.2c0-2.6-0.3-3.1-2.4-4c0.3-0.2,0.5-0.3,0.8-0.3c0.7,0,1.8,0.3,2.7,0.7
			c1.1,0.5,1.7,1.1,1.7,1.8c0,0.2,0,0.4-0.3,1.1c-0.6,1.8-1.6,10.9-1.6,14.4c0,1.8,0.4,2.9,1.2,3.6c0.7,0.5,1.6,0.8,2.7,0.8
			c2,0,4.6-0.7,6.8-1.9c1.4-0.7,2.3-1.4,3.8-2.7L174.7,284.4z"/>
		<path class="st0" d="M152.7,305.3c1.2,1.3,2,1.7,3.3,1.7c1.2,0,2.4-0.2,3.8-0.6c0.6-2,1-4.1,1-5.1c0-0.9-0.5-1.3-2.1-1.9
			c0.4-0.2,0.5-0.3,0.9-0.3c0.7,0,1.7,0.2,2.6,0.6c0.9,0.3,1.4,0.8,1.4,1.2c0,0.2,0,0.2-0.4,0.7c-0.4,0.6-1.1,2.2-1.8,4.3
			c1.7-0.6,2.8-1.2,3.5-1.8c0.5-0.4,0.6-0.5,0.8-0.5c0.4,0,1.1,0.2,1.6,0.3c0.3,0.1,0.5,0.3,0.5,0.5c0,0.5-0.5,0.9-1.7,1.5
			c-1.4,0.6-3.4,1.3-5.3,1.7c-0.4,1-0.4,1-1.3,3.8c-0.6,1.8-0.6,1.8-2.3,6.7c-1.2,3.6-1.6,4.3-2.2,4.3c-0.3,0-0.5-0.2-0.7-0.6
			c-0.2-0.5-0.4-1.2-0.4-1.7c0-0.5,0-0.6,0.7-1.5c1.5-2.2,2.7-4.8,4.7-10.7c-1.1,0.2-2,0.3-2.9,0.3c-1.8,0-3-0.8-4.1-2.7
			L152.7,305.3z M164.7,315.6c0,0.4,0,0.8,0,0.9c0,1.7,0.8,3,2.3,3.6c0.8,0.4,2,0.6,3.2,0.6c1.2,0,1.9-0.1,2.9-0.4
			c0.2-0.1,0.4-0.1,0.5-0.1c0.3,0,1,0.3,1.5,0.7c0.4,0.3,0.5,0.6,0.5,0.8c0,0.7-1.2,1-3.5,1c-2.3,0-4.2-0.3-5.6-1
			c-1.6-0.8-2.6-2.3-2.6-4.4c0-0.7,0.1-1.2,0.3-1.9L164.7,315.6z M165.5,310.1c2.2-1.3,4.6-2,7-2c0.6,0,1.4,0.2,1.9,0.5
			c0.3,0.2,0.5,0.5,0.5,0.8c0,0.5-0.3,0.7-1.1,0.7c-1.1,0.1-1.5,0.2-2.3,0.6c-0.6,0.3-0.6,0.3-1.7,1c-0.6,0.4-0.6,0.4-1.1,0.6
			l-0.2-0.3c0.4-0.4,0.4-0.4,1.4-1.4c0.3-0.2,0.5-0.5,1.5-1.4c-2,0-3.6,0.3-5.7,1.1L165.5,310.1z"/>
		<path class="st0" d="M107.6,21.1v0.8c0,0.2-0.1,0.3-0.3,0.4c-0.1,0.1-0.8,0.1-1.2,0.1c-0.4,0-0.6-0.1-0.6-0.4v-0.1
			c0.1-2.6,0.1-4.6,0.1-6.4c0-2.9,0-5.1-0.1-6c1.1,0.5,1.4,0.7,2.4,1.4h12.5c0.4-0.6,0.5-0.7,0.9-1.3c0.9,0.5,1.1,0.7,1.9,1.3
			c0.2,0.2,0.3,0.3,0.3,0.4c0,0.2-0.5,0.5-1.1,0.8c0,1.1,0,1.6,0,2.1c0,0.9,0.1,6.1,0.1,7.5c0,0.3-0.1,0.3-0.3,0.4
			c-0.2,0.1-1,0.1-1.3,0.1c-0.3,0-0.4-0.1-0.4-0.4v-0.8h-3V25c0,0.5,0.1,0.6,0.7,0.7c0.2,0,2.3,0,3.8,0c0.7,0,1.2,0,1.5,0
			c1,0,1.2-0.2,1.5-0.7c0.4-1,1.2-3.1,1.8-4.7l0.4,0.1l-0.3,4.1c0,0.2,0,0.4,0,0.5c0,0.2,0.1,0.4,0.4,0.5c0.8,0.3,1,0.5,1,0.9
			c0,0.2-0.2,0.5-0.6,0.6c-0.4,0.2-0.7,0.2-1.6,0.2c-0.3,0-3.9,0.1-4.5,0.1c-3.7,0-4.4,0-5-0.2c-0.7-0.3-0.9-0.6-1-1.4
			c0-1.9,0-1.9,0-2.1v-2.5h-2.7c-0.6,1.7-1.1,2.6-2.2,3.5c-2.1,1.9-5.2,2.9-10.2,3.2l-0.1-0.4c5.9-1,9.3-3,10.5-6.3H107.6z
			 M123.7,3.3c0.5-0.7,0.6-0.9,1.2-1.5c1.2,0.7,1.6,0.9,2.7,1.7c0.3,0.2,0.4,0.3,0.4,0.5c0,0.3-0.3,0.4-2,0.6
			c-0.7,0.6-0.8,0.8-1.9,1.6c0.6,0.4,0.9,0.6,1.7,1.3c0.1,0.1,0.2,0.2,0.2,0.2c0,0.1-0.1,0.2-0.3,0.2h-7.1c0,0.6,0,0.7,0,1.5
			c0,0.3-0.1,0.4-0.3,0.4c-0.2,0.1-0.8,0.2-1.2,0.2c-0.4,0-0.5-0.1-0.5-0.3c0-1,0-1.6,0-1.8h-5.1l0,1.7c0,0,0,0.1,0,0.1
			c0,0.3-0.4,0.4-1.2,0.4c-0.5,0-0.7-0.1-0.7-0.4c0,0,0-0.1,0-0.1c0-0.8,0-1.1,0-1.7h-3.6c-0.5,0-0.9,0-2,0.1L103.9,7
			c1.2,0.2,1.9,0.3,2.5,0.3h3.2c0-0.2,0-0.4,0-0.5c0-0.8,0-1.6-0.1-2.2c2.6,0.4,2.6,0.4,2.9,0.5c0.1,0,0.2,0.2,0.2,0.2
			c0,0.2-0.2,0.3-1.2,0.5c0,0.3,0,0.5,0,0.6c0,0.2,0,0.5,0,0.8h5.1c0-1.1-0.1-1.6-0.1-2.5c2.7,0.3,3.1,0.4,3.1,0.7
			c0,0.2-0.2,0.3-1.1,0.5c0,0.5,0,0.9,0,1.3h3.2c0.6-0.7,0.8-1,1.4-1.7c0.3,0.2,0.3,0.2,0.6,0.4c0-0.2,0.2-0.9,0.3-2h-19.6
			c-0.4,2.4-1.5,4.4-2.3,4.4c-0.5,0-1.1-1.1-1.1-1.9c0-0.3,0.1-0.4,0.8-0.9c1.3-0.9,2.1-2.5,2.3-4.2h0.5c0,0.4,0,0.6,0,0.8
			c0,0.3,0,0.6-0.1,1.1h8.6V1.8c0-0.8,0-0.9-0.1-1.5c1.3,0.1,2.7,0.4,3.2,0.5c0.3,0.1,0.4,0.2,0.4,0.3c0,0.3-0.4,0.4-1.4,0.7v1.5
			H123.7z M120.5,13.9v-2.3h-12.9v2.3H120.5z M107.6,14.6V17h12.9v-2.4H107.6z M107.6,17.7v2.7h12.9v-2.7H107.6z"/>
		<path class="st0" d="M104.2,39.8c1.4,1,2.4,1.3,4,1.3c1.4,0,3.6-0.4,4.9-0.9c-0.5-1-2-2.9-2.6-3.3c-0.2-0.3-1.4-0.6-2.3-0.6
			c0.2-0.5,0.4-0.6,1.2-0.8c0.5-0.1,0.8-0.1,1.4-0.1c1.1,0,1.8,0.1,2,0.4c0.3,0.2,0.3,0.3,0.4,1.2c0.1,0.7,0.1,0.8,1.2,3
			c2-0.7,3.3-1.4,4-2.1c0.2-0.2,0.5-0.3,0.9-0.3c1.2,0,1.8,0.3,1.8,0.8c0,0.6-1.1,1.1-6,2.7c0.2,0.3,0.3,0.5,0.4,0.6
			c0.4,0.7,1,1.7,1.8,2.9c2.4-0.9,3.1-1.2,3.7-1.7c-0.6-0.6-0.8-0.8-1.6-1.4l0.2-0.3c1.1,0.6,1.9,0.8,2.5,0.8c0,0,0,0,0.5-0.1
			c0.1,0,0.2,0,0.2,0c0.5,0,0.8,0.3,0.8,0.8c0,0.7-1.7,1.6-5.8,3.1c0.8,1.3,1,1.7,1.4,2.3c0.5,0.8,0.8,1.4,0.9,1.6l0.5,0.8
			c0.4,0.6,0.5,1,0.5,1.6c0,1.2-0.4,2-1,2c-0.3,0-0.4-0.1-0.8-0.5c-1.5-1.2-4.3-2.1-7-2.1c-1.4,0-2.7,0.3-3.8,0.8
			c-1.2,0.6-1.8,1.4-1.8,2.4c0,1.9,2,2.9,5.7,2.9c1.5,0,2.3-0.1,3.8-0.4c0.2,0,0.3-0.1,0.4-0.1c0.9,0,2,0.8,2,1.6
			c0,0.3-0.2,0.4-0.5,0.6c-0.6,0.2-2.4,0.4-4.1,0.4c-2.3,0-4.4-0.3-5.8-0.9c-1.8-0.8-2.9-2.2-2.9-3.8c0-2.7,3.2-4.5,7.9-4.5
			c1.8,0,3.5,0.2,5.6,0.7c-0.3-1-1.2-3.2-2.3-5.1c-2,0.7-4.6,1.2-6.4,1.2c-1.3,0-2.3-0.3-3.1-0.9c-0.6-0.5-0.9-0.8-1.4-1.8l0.4-0.3
			c1,1.3,2,1.8,3.5,1.8c1.7,0,3.9-0.4,6.4-1.2c-0.5-1-1.6-2.9-2.1-3.6c-2,0.6-4,1-5.6,1c-1.7,0-3.1-0.7-4.4-2.2L104.2,39.8z
			 M121.4,34.8c1.1,0.6,1.9,1.2,2.7,1.9c1.1,1,1.5,1.7,1.5,2.4c0,0.7-0.4,1.3-0.9,1.3c-0.4,0-0.4,0-1.3-2c-0.5-1-1.5-2.4-2.3-3.2
			L121.4,34.8z M124.5,33c1.1,0.5,2,1,2.9,1.7c1.1,0.9,1.5,1.5,1.5,2.3c0,0.7-0.3,1.2-0.8,1.2c-0.3,0-0.5-0.2-0.7-0.6
			c-1.1-1.9-1.6-2.6-3.3-4.3L124.5,33z"/>
		<path class="st0" d="M114.2,91.1c3.2-1,5.3-2.2,7-4.2c1.8-2,2.7-4.5,2.7-7.2c0-2.9-1.2-5.2-3.4-6.6c-1.3-0.9-3.3-1.4-5.2-1.4
			c-0.4,0-0.6,0-1.1,0.1c0.7,1.1,0.9,1.6,0.9,2.5c0,2.3-1.7,6.7-4,10.4c-1.9,3-3.4,4.5-4.5,4.5c-0.5,0-1-0.2-1.3-0.6
			c-0.3-0.4-0.3-0.5-0.8-1.9c-0.3-0.8-0.5-1.1-1.3-2.8c-0.5-1-0.7-1.8-0.7-2.7c0-1.9,1-4.1,2.7-5.9c2.4-2.6,6.4-4.2,10.3-4.2
			c3,0,5.8,1,7.7,2.8c1.9,1.8,2.9,4.1,2.9,7.1c0,3.8-2.2,7.1-6,9.1c-1.7,0.9-3.3,1.4-5.9,1.9L114.2,91.1z M104.3,81.8
			c0,1.4,0.5,2.9,1.2,4c0.4,0.5,0.8,0.9,1.1,0.9c0.7,0,2.1-1.6,3.6-4c2.2-3.5,3.8-7.4,3.8-9.3c0-0.5-0.1-0.8-0.4-1.5
			C108.4,72.8,104.3,77.2,104.3,81.8z"/>
		<path class="st0" d="M115.6,124.6h7.3c0.8-1.1,1-1.4,1.9-2.3l2.9,2.6c0.1,0.1,0.2,0.2,0.2,0.3c0,0.1-0.1,0.2-0.2,0.2h-23.1
			c-1.1,0-1.8,0.1-3.2,0.3l-0.3-1.3c1.4,0.2,2.9,0.3,3.7,0.3h8.7v-7.8h-7.1c-0.5,0-0.9,0.1-2.3,0.3l-0.2-1.2
			c0.9,0.1,2.2,0.2,2.8,0.2h14.4c0.7-1,1-1.3,1.7-2.2c1.3,1.1,1.7,1.4,2.9,2.5c0.1,0.1,0.1,0.2,0.1,0.2c0,0.1-0.1,0.2-0.2,0.2h-9.8
			V124.6z M112.6,104.7c-0.1,1.5-0.1,1.8-0.3,2.6c-1.1,4.2-4.7,6.7-10.7,7.3l-0.3-0.5c3.6-0.6,6.1-1.9,7.6-4.1
			c1-1.5,1.4-2.8,1.6-5.3H105c-0.4,2.8-1.4,4.4-2.6,4.4c-0.2,0-0.4-0.1-0.6-0.5c-0.2-0.4-0.5-0.9-0.5-1.2c0-0.4,0.1-0.6,0.8-1
			c1.4-1,2.3-2.6,2.6-4.6h0.5c0,1,0,1.4-0.1,2.1h8.2v-2.3c0-1.2,0-1.4-0.2-2.2c2.9,0.3,3,0.3,3.4,0.4c0.2,0.1,0.4,0.2,0.4,0.3
			c0,0.3-0.4,0.5-1.5,0.8v2.9h8.1c0.5-0.7,0.7-0.9,1.3-1.6c1.2,0.8,1.5,1.1,2.6,2c0.2,0.2,0.3,0.3,0.3,0.4c0,0.1-0.1,0.1-0.1,0.2
			c-0.1,0.1-0.4,0.2-0.8,0.2c-0.8,0.2-1.2,0.2-1.4,0.3c-1,1-1.6,1.6-3,2.7l-0.2-0.2c0.6-1.1,0.7-1.2,1.4-3.3h-5.2v5.6
			c0,0.5,0.1,0.6,0.5,0.7c0.2,0,2.2,0.1,3.3,0.1c1.1,0,2.3-0.1,2.6-0.2c0.3-0.1,0.3-0.1,0.8-1.1c0.3-0.8,0.6-1.4,1.1-3l0.5,0
			l-0.2,3.1c0,0.2,0,0.4,0,0.4c0,0.3,0.2,0.4,0.5,0.5c0.6,0.2,0.8,0.4,0.8,0.8c0,0.4-0.3,0.7-0.8,0.8c-0.6,0.1-2.5,0.3-4.4,0.3
			c-2.3,0-4.7-0.1-5.3-0.1c-0.9-0.1-1.3-0.5-1.3-1.6v-6.3H112.6z"/>
		<path class="st0" d="M104.1,142.2v11.4c0,3.9,0,3.9,0,6c0,0.2-0.1,0.3-0.3,0.4c-0.2,0.1-1,0.1-1.4,0.1c-0.3,0-0.4-0.1-0.4-0.3
			c0.1-2.6,0.1-7.3,0.1-14.9c0-7.8,0-10.5-0.1-12.2c0.9,0.6,1.2,0.8,2.1,1.4h6.2c0.5-0.6,0.7-0.8,1.2-1.4c0.7,0.6,0.9,0.8,1.6,1.4
			c0.2,0.2,0.3,0.3,0.3,0.4c0,0.2-0.2,0.4-0.9,0.7c0,1.4,0,2.3,0,3.3c0,1.6,0,2.6,0.1,4.4c0,0.2-0.1,0.3-0.2,0.4
			c-0.1,0.1-0.8,0.1-1.5,0.1c-0.2,0-0.3-0.1-0.4-0.3v-0.9H104.1z M110.5,134.8h-6.4v2.9h6.4V134.8z M110.5,138.4h-6.4v3.1h6.4V138.4
			z M110.5,157c0,0.2-0.1,0.2-0.3,0.3c-0.2,0.1-0.9,0.2-1.2,0.2c-0.3,0-0.4-0.1-0.4-0.3c0-2.5,0.1-3.8,0.1-5.1c0-3.5,0-6.3-0.1-7.5
			c1,0.5,1.3,0.7,2.3,1.3h7c0.6-0.5,0.8-0.7,1.3-1.2c0.6,0.5,0.8,0.7,1.5,1.3c0.3,0.2,0.3,0.3,0.3,0.4c0,0.2-0.1,0.3-1,0.7
			c0,1.6,0,2.2,0,3.3c0,2,0,3.2,0.1,5.5v0c0,0.3-0.1,0.3-0.3,0.4c-0.2,0.1-0.8,0.1-1.3,0.1c-0.3,0-0.4-0.1-0.4-0.3v-1.1h-7.6V157z
			 M118.1,146.5h-7.6v3.4h7.6V146.5z M110.5,150.6v3.9h7.6v-3.9H110.5z M118.1,142.2v0.8c-0.1,0.4-0.3,0.4-1.1,0.4
			c-0.8,0-0.8-0.1-0.8-0.4c0.1-1.9,0.1-2.8,0.1-4.5c0-4.3,0-4.6-0.1-5.7c1,0.5,1.3,0.7,2.2,1.3h6.3c0.5-0.6,0.7-0.8,1.2-1.4
			c0.8,0.6,1.1,0.8,1.8,1.4c0.2,0.2,0.3,0.3,0.3,0.4c0,0.2-0.1,0.3-0.9,0.9v14.4c0,5,0,5,0,7.8c-0.1,1.4-0.6,1.8-3.2,2.3
			c-0.3-0.7-0.5-1-1.1-1.4c-0.3-0.2-0.8-0.3-1.6-0.5c-1.1-0.2-1.6-0.3-1.7-0.3v-0.5c2.4,0.2,3,0.2,4.9,0.2c0.5,0,0.5-0.1,0.5-0.4
			v-15H118.1z M124.9,134.8h-6.8v2.9h6.8V134.8z M124.9,138.4h-6.8v3.1h6.8V138.4z"/>
		<path class="st0" d="M128.7,170c0,2.1-1.7,3.9-3.9,3.9s-3.9-1.7-3.9-3.9c0-2.1,1.7-3.9,3.9-3.9C127,166.1,128.7,167.8,128.7,170z
			 M121.9,170c0,1.6,1.3,2.9,2.9,2.9c1.6,0,2.9-1.3,2.9-2.9c0-1.6-1.3-2.9-2.9-2.9C123.2,167.1,121.9,168.4,121.9,170z"/>
		<path class="st0" d="M68,3.7c0.5-0.6,0.7-0.8,1.3-1.4c1,0.7,1.3,0.9,2.2,1.6c0.2,0.1,0.2,0.2,0.2,0.3c0,0.3-0.5,0.5-1.7,0.7
			c-3.2,4.4-5.6,6.9-9.3,9.2c-3,1.9-5.6,3-9.4,3.9l-0.1-0.4c4-1.6,6.7-3.1,9.7-5.4c3.1-2.4,5-4.6,7-7.8h-6.5c-0.9,1-1.7,1.8-2.8,2.7
			c1.2,0.5,2.1,1,2.8,1.4c0.5,0.3,0.7,0.7,0.7,1.2c0,0.6-0.5,1.5-0.9,1.5c-0.2,0-0.3-0.1-0.5-0.4C60.6,10.5,60,9.5,59.7,9
			c-0.4-0.7-0.8-1.1-1.4-1.6c-2.1,1.7-3.8,2.7-6.4,3.8l-0.2-0.3c2.8-1.8,4.9-3.6,6.9-5.9c1.6-1.8,2.5-3.3,3.2-5c1.1,0.3,2.6,0.8,3,1
			c0.2,0.1,0.2,0.2,0.2,0.2c0,0.1-0.1,0.2-0.1,0.2c-0.1,0.1-0.2,0.1-0.5,0.2C64,1.7,64,1.7,63.6,1.9C62.9,2.7,62.7,3,62,3.7H68z
			 M66.8,14.3c-1,1-1.7,1.6-2.7,2.4c1.4,0.8,2.3,1.3,2.5,1.5c0.8,0.6,1.1,1,1.1,1.7c0,0.7-0.5,1.7-0.9,1.7c-0.2,0-0.2-0.1-0.4-0.4
			c-0.2-0.4-0.8-1.6-1.2-2.3c-0.4-0.7-0.8-1.2-1.4-1.8c-2.6,1.9-4.9,3.1-8.3,4.4l-0.2-0.4c5.9-3.3,10.5-7.3,12.5-11.1
			c2.2,0.6,2.9,0.8,2.9,1.1c0,0.3-0.4,0.5-1.4,0.7c-0.8,0.9-1,1.1-1.7,1.9h6.4c0.6-0.6,0.8-0.8,1.4-1.4c1,0.7,1.3,0.9,2.2,1.6
			c0.1,0.1,0.2,0.1,0.2,0.2c0,0.2,0,0.2-1.6,0.8c-1.6,2.6-2.8,4.1-4.8,5.9c-3.2,2.8-6.7,4.7-11.2,5.9c-2,0.5-3.7,0.8-6.8,1.3
			l-0.2-0.5c5-1.2,8.9-2.6,11.9-4.3c2.6-1.5,5-3.5,6.8-5.8c0.7-0.9,1.1-1.5,2-3H66.8z"/>
		<path class="st0" d="M57.5,39.7c0.6-0.8,0.8-1,1.5-1.8c1,0.9,1.3,1.1,2.2,2c0.1,0.1,0.1,0.2,0.1,0.3c0,0.1-0.1,0.2-0.3,0.2h-4.1
			v2.2c0.4,0.3,0.4,0.3,1.6,1.1c0.9,0.6,1.4,1.3,1.4,1.9c0,0.7-0.6,1.7-1,1.7c-0.2,0-0.4-0.2-0.5-0.6c-0.4-1.4-0.9-2.6-1.5-3.5V51
			c0,3.8,0,4.5,0,9.6c-0.1,0.4-0.4,0.5-1.6,0.5c-0.3,0-0.5-0.1-0.5-0.4c0,0,0-0.1,0-0.1c0.2-4.7,0.2-4.7,0.2-6.5c0-0.8,0-1.6,0-2.3
			c0-1.7,0-2.9,0.1-3.5l0.3-4.4c-0.8,2.6-1.3,3.8-2.3,5.8c-0.9,1.9-1.5,2.7-2.8,4.3l-0.3-0.2c1.6-3.1,2.6-5.4,3.4-8
			c0.5-1.7,0.5-1.7,1.3-5.2H53c-0.9,0-1.6,0.1-2.2,0.2l-0.2-1.2c0.7,0.1,1.5,0.2,2.4,0.2h2v-3.4c0-1.3,0-1.8-0.2-3
			c2.9,0.5,3.2,0.5,3.2,0.8c0,0.2-0.3,0.4-1.1,0.7v4.9H57.5z M68.9,42.6h3.7c0.6-0.8,0.8-1,1.4-1.7c1.1,0.8,1.4,1.1,2.4,2
			c0.1,0.1,0.2,0.2,0.2,0.3c0,0.1-0.1,0.2-0.3,0.2h-7.4v3.3h5.5c0.7-0.9,0.9-1.1,1.7-1.9c1.2,0.9,1.5,1.2,2.6,2.2
			c0.1,0.1,0.2,0.2,0.2,0.3c0,0.1-0.1,0.1-0.3,0.1h-9.6c0.8,2.3,1.3,3.2,2.5,4.7c1.1-1.1,2-2.3,2.9-4.1c2.1,1.2,2.9,1.8,2.9,2
			c0,0.2-0.2,0.3-0.4,0.3c0,0,0,0-0.1,0c0,0-0.1,0-0.2,0c-0.2,0-0.4,0-0.8-0.1c-1.6,1.1-2.1,1.4-4,2.3c1.9,2.1,3.9,3.5,6.9,4.7v0.4
			c-1.2,0.3-1.4,0.4-2.2,1.9c-2.2-1.5-3.2-2.6-4.9-5c-1.2-1.8-1.9-3.2-2.7-5.6v3.8c0.1,1.3,0.1,2.3,0.1,3.1c0,1.2,0.1,1.4,0.1,2.6
			c0,1-0.2,1.5-0.8,1.9c-0.4,0.3-1,0.5-2.6,0.7c-0.3-0.9-0.5-1.2-1.2-1.5c-0.6-0.3-1.5-0.5-2.9-0.7l0-0.5c1.8,0.1,1.9,0.1,4.9,0.1
			c0,0,0.1,0,0.1,0c0.3,0,0.4-0.1,0.4-0.5v-4.4c-2.6,1.7-4.1,2.5-6.8,3.9c-0.1,1-0.2,1.2-0.4,1.2c-0.3,0-0.5-0.5-1.4-2.9
			c2.8-0.5,5.9-1.5,8.7-2.8v-5.7h-4.1c-1.5,0-2,0.1-2.7,0.3L60,46.4c0.8,0.2,1.6,0.3,2.9,0.3H67v-3.3h-3.7c-1.1,0-1.8,0.1-2.4,0.2
			l-0.2-1.2c0.6,0.2,1.8,0.3,2.6,0.3H67v-3.3h-3.5c-0.9,0-1.5,0.1-2.3,0.2L61,38.3c1,0.2,1.7,0.3,2.6,0.3h5.6c1.3-1.8,2-3.1,2.7-5.2
			c2.3,1.1,2.9,1.4,2.9,1.7c0,0.3-0.2,0.3-1.4,0.4c-1.4,1.4-2,2-3.5,3.1H74c0.6-0.9,0.8-1.1,1.4-1.9c1.1,0.9,1.5,1.2,2.6,2.2
			c0,0.1,0.1,0.1,0.1,0.2c0,0.1-0.1,0.2-0.2,0.2h-8.9V42.6z M60.8,48.1c0.9,0.5,1.8,1,2.7,1.6c0.9,0.6,1.2,1,1.2,1.7
			c0,0.9-0.6,1.9-1.1,1.9c-0.2,0-0.4-0.2-0.6-0.7c-0.9-2.2-1.3-2.9-2.5-4.2L60.8,48.1z M62.9,33.6c1.1,0.6,2,1.1,2.8,1.8
			c0.8,0.6,1,0.9,1,1.4c0,0.9-0.5,1.7-1.1,1.7c-0.3,0-0.4-0.1-0.8-1.2c-0.5-1.3-1-2.1-2.1-3.4L62.9,33.6z"/>
		<path class="st0" d="M53.2,72.8c1.4,1.4,2.3,1.7,3.8,1.7c0.8,0,1.6-0.1,2.7-0.4c0.8-2,1.1-3.2,1.1-4.3c0-1-0.5-1.6-1.9-2.3
			c0.3-0.2,0.5-0.2,0.7-0.2c0.6,0,1.5,0.3,2.4,0.7c1,0.5,1.4,0.8,1.4,1.3c0,0.2-0.1,0.4-0.3,0.8c-0.1,0.2-0.8,1.5-1.8,3.7
			c2.2-0.8,2.5-0.9,3.3-1.7C64.9,72,65,72,65.3,72c1.2,0,2,0.4,2,0.9c0,0.8-1.9,1.5-6.6,2.6c-0.3,0.6-0.8,1.8-1.6,3.6
			c-0.9,2.1-3.2,7.1-3.5,7.6c-0.5,0.8-0.7,1.1-1.1,1.1c-0.5,0-0.9-0.9-0.9-2.1c0-0.6,0.1-0.8,0.3-1.1c0.7-0.7,1-1.2,1.4-1.8
			c1.5-2.2,2.6-4.2,3.8-7.1c-0.7,0.1-0.9,0.1-1.4,0.1c-1.1,0-1.9-0.2-2.6-0.6c-0.9-0.5-1.6-1.2-2.2-2.2L53.2,72.8z M69.1,74.5
			c2.1,0.2,3.8,0.7,5.1,1.7c1.2,0.8,1.9,1.7,1.9,2.3c0,0.5-0.3,0.9-0.8,0.9c-0.2,0-0.4-0.1-0.7-0.2c-0.8-0.5-1.4-0.6-2.9-0.6
			c-2.4,0-3.2,0.7-3.2,2.7c0,0.8,0.2,2.1,0.6,5.2c1.8,0.5,3.4,1.3,4.3,2c0.8,0.6,1.2,1.4,1.2,2.4c0,0.6-0.2,1-0.6,1
			c-0.3,0-0.4-0.1-1.1-0.8c-1.1-1.2-2.1-1.9-3.6-2.6c0,0.2,0,0.4,0,0.6c0,1.2-0.2,1.9-0.8,2.6c-0.8,0.8-2.2,1.3-3.9,1.3
			c-2.7,0-4.6-1.3-4.6-3.2c0-2.1,2.3-3.6,5.6-3.6c0.7,0,1,0,1.8,0.2c-0.1-2.4-0.1-2.6-0.1-3c0-2.5,0.2-3.4,1.1-4.3
			c0.6-0.6,1.4-1.1,2.9-1.4c0.5-0.1,0.5-0.2,1.6-0.4c-0.8-0.9-1.7-1.4-3.9-2.1L69.1,74.5z M67.5,87.7c-0.9-0.3-1.6-0.4-2.6-0.4
			c-2.6,0-4.1,0.9-4.1,2.3c0,1.1,1.1,1.8,3,1.8c2.4,0,3.7-1,3.7-2.9V87.7z"/>
		<path class="st0" d="M57.9,122.2c2.2,1.4,4.6,1.8,9.7,1.8c3.5,0,7-0.2,10.6-0.5v0.4c-0.9,0.6-1.2,1.2-1.2,2.1c-2,0.1-3,0.1-5,0.1
			c-7.5,0-10-0.3-12.5-1.4c-2.9-1.3-4.8-3.5-5.9-6.8c-0.8,3.8-1.6,5.6-3.3,8.2l-0.4-0.2c1.2-2.8,1.6-4.3,2-7.7
			c0.3-2,0.5-4.1,0.5-5.4c0-0.1,0-0.3,0-0.6c2.5,0.4,2.9,0.5,2.9,0.8c0,0.2-0.2,0.3-0.9,0.6c-0.2,1.6-0.3,2.1-0.5,3.2
			c0.6,1.9,1.1,2.8,2.1,4v-10.5h-2.8c-0.7,0-1.4,0.1-2,0.1l-0.2-1.1c0.8,0.2,1.4,0.3,2.3,0.3h2.8v-4.4h-2.6c-0.8,0-1.2,0-1.7,0.2
			l-0.2-1.1c0.6,0.1,1.1,0.2,2,0.2h2.6v-2.1c0-0.9-0.1-1.4-0.2-2.6c0.6,0.1,1,0.1,1.3,0.1c1.6,0.1,2,0.2,2,0.5
			c0,0.2-0.4,0.4-1.3,0.7v3.3h1l1.4-1.6c0.7,0.8,0.9,1.1,1.7,1.9c0.1,0.1,0.1,0.2,0.1,0.2c0,0.1-0.1,0.1-0.3,0.1h-3.9v4.4h1.3
			c0.6-0.8,0.8-1.1,1.4-2c0.9,0.9,1.1,1.2,1.9,2.1c0.1,0.1,0.1,0.2,0.1,0.3c0,0.1-0.2,0.2-0.4,0.2h-4.3v5.2H59l1.4-1.8
			c0.8,0.8,1.1,1.1,1.7,1.9c0.1,0.1,0.2,0.2,0.2,0.3c0,0.1-0.2,0.2-0.3,0.2h-4.1V122.2z M69.3,106.3h5.1c0.5-0.6,0.7-0.8,1.2-1.4
			l1.7,1.4c0.2,0.2,0.3,0.3,0.3,0.4c0,0.2-0.1,0.3-1.3,0.8c-0.4,2.8-0.8,4.2-1.8,6.7c0.8,1.1,1.3,1.8,2,3.2c0.4,0.8,0.5,1,0.5,1.6
			c0,0.9-0.7,2.3-1.2,2.3c-0.2,0-0.3-0.2-0.5-0.7c-0.3-1.1-1.2-3.7-1.7-4.8c-1.1,2.2-2.1,3.4-4.1,5.3l-0.4-0.3
			c1.7-2.2,2.7-4.1,3.6-6.7c-1-2-1.5-2.9-2.7-4.6l0.3-0.1c1.1,1.1,1.5,1.6,2.9,3.3c0.6-1.9,0.8-3.1,1-5.8h-5.1v8.9
			c0,4.1,0,4.1,0,6.8c0,0,0,0.1,0,0.1c0,0.2-0.1,0.3-0.2,0.3c-0.2,0.1-1,0.2-1.3,0.2c-0.2,0-0.3-0.1-0.3-0.4v-3.5c0-0.6,0-1.1,0-1.4
			c-1.5,0.7-3.3,1.5-5.2,2.3c-0.1,0.8-0.2,1.2-0.5,1.2c-0.2,0-0.2-0.1-0.3-0.4c-0.3-0.8-0.5-1.5-0.7-2.4c0.2,0,0.3,0,0.4,0
			c0.3,0,0.4,0,1.7-0.3v-16c-1.1,0-1.6,0-2.3,0.2l-0.3-1.2c1,0.2,1.5,0.3,2.5,0.3h10.6c0.8-0.9,0.8-0.9,1.8-2
			c1.1,0.9,1.5,1.2,2.6,2.2c0.1,0.2,0.2,0.2,0.2,0.3c0,0.1-0.2,0.2-0.3,0.2h-8.4V106.3z M64.7,102.4v5h2.9v-5H64.7z M64.7,108.1v4.3
			h2.9v-4.3H64.7z M64.7,113.1v5c0.3-0.1,0.5-0.1,0.7-0.1c0.9-0.2,0.9-0.2,2.2-0.5v-4.3H64.7z"/>
		<path class="st0" d="M58.9,146.7c-0.1,0.3-0.5,2.2-1.4,5.6c-0.4,1.8-0.5,2.3-0.5,3.2c0,0.9,0,1.1-0.1,1.3
			c-0.1,0.3-0.4,0.5-0.7,0.5c-0.5,0-1-0.4-1.3-1.2c-0.7-1.6-1.1-4-1.1-6.4c0-0.9,0.1-2,0.2-3.2c0.2-1.7,0.2-1.7,1.1-5.7
			c0.3-1.4,0.4-2.2,0.4-2.8c0-1-0.2-1.7-0.8-2.8c0.7,0,1.2,0.4,2,1.5c0.8,0.9,1.1,1.7,1.1,2.4c0,0.5,0,0.6-0.6,1.8
			c-0.6,1.3-1.3,3.4-1.6,4.8c-0.3,1.1-0.4,2.4-0.4,3.7c0,1.7,0.2,2.7,0.6,4c0.5-1,0.8-1.7,1.1-2.6l1.6-4.2L58.9,146.7z M62.7,148.2
			c-0.1,0.6-0.1,0.9-0.1,1.3c0,3.3,1.9,4.7,6.5,4.7c0.9,0,1.7-0.1,2.6-0.2c0.6-0.1,0.6-0.1,1.6-0.5c0.2-0.1,0.3-0.1,0.5-0.1
			c0.8,0,1.9,1,1.9,1.8c0,0.4-0.2,0.6-0.7,0.8c-0.6,0.2-2.1,0.3-3.8,0.3c-3.8,0-6.4-0.6-7.8-1.8c-1.1-1-1.6-2.3-1.6-3.9
			c0-0.8,0.1-1.4,0.4-2.4L62.7,148.2z M62.6,138.7c1.1,0.6,1.7,0.8,2.8,0.8c1.9,0,4.8-0.7,6-1.4c0.4-0.2,0.5-0.2,0.7-0.2
			c0.2,0,0.6,0.2,1.1,0.4c0.6,0.4,0.9,0.7,0.9,1.1c0,0.4-0.2,0.6-0.8,0.7c-2,0.3-3.1,0.6-4.3,1.1c-0.9,0.4-2.7,1.4-3.9,2.1l-0.3-0.3
			c1.4-1.1,2.4-2,2.9-2.3c-0.6,0-1,0.1-1.2,0.1c-1.7,0-2.8-0.4-4.1-1.7L62.6,138.7z"/>
		<path class="st0" d="M72.6,170c0.5-0.7,0.6-0.9,1.1-1.5c0.9,0.6,1.2,0.8,2,1.4c0.2,0.2,0.4,0.3,0.4,0.4c0,0.2-0.2,0.4-1.1,0.9
			c-0.1,1-0.1,1-0.4,6.1c-0.2,2.3-0.6,4.9-1,6.2c-0.2,0.8-0.8,1.5-1.4,1.8c-0.5,0.2-1,0.3-2.2,0.4c0-1.2-0.4-1.4-2.8-2l0.1-0.5
			c1.5,0.2,2.6,0.3,3.3,0.3c0.8,0,1-0.3,1.2-1.3c0.6-2.9,0.9-6.8,1-11.7H58c-1.8,3.2-3.8,5.4-6.8,8l-0.4-0.4c2.3-2.6,4-5.3,5.5-8.6
			c0.7-1.4,1.1-2.5,1.5-4.2c2.9,0.7,3.5,0.9,3.5,1.1c0,0.2-0.4,0.4-1.6,0.6c-0.6,1.3-0.8,1.7-1.4,2.7H72.6z M64.7,175.8h-6.4
			c-0.6,0-1,0-2,0.1l-0.2-1c0.8,0.1,1.4,0.2,2.3,0.2h6c0.5-0.6,0.6-0.8,1.1-1.3c0.8,0.6,1.1,0.8,1.8,1.3c0.2,0.2,0.3,0.3,0.3,0.4
			c0,0.2-0.2,0.4-0.9,0.7c0,4.3,0,4.6,0,6.2c0,0.3-0.1,0.5-0.3,0.6c-0.2,0.1-0.9,0.2-1.3,0.2c-0.3,0-0.5-0.2-0.5-0.5v-0.8h-7.7v7.2
			c0,0.5,0.2,0.6,0.7,0.7c0.8,0.1,3.6,0.1,7.6,0.1c0.1,0,0.5,0,0.8,0c2.4,0,4.3,0,5.2,0c0.2,0,0.4,0,0.5,0c0.1,0,0.2,0,0.3,0
			c1.4,0,2.2-0.1,2.5-0.3c0.2-0.2,0.5-0.7,0.7-1.3c0.3-0.9,0.3-0.9,1.5-5l0.5,0.1l-0.5,5.2c0,0.3-0.1,0.6-0.1,0.6
			c0,0.3,0.1,0.4,0.4,0.4c0.7,0.2,1.1,0.5,1.1,1c0,0.4-0.4,0.8-0.8,0.9c-0.8,0.2-3,0.3-9.9,0.3c-7.7,0-10.1-0.1-11.1-0.3
			c-1-0.2-1.3-0.8-1.4-2.1l0.1-3.7v-2.9c0-1.1,0-1.6,0-2.7c1,0.5,1.3,0.6,2.3,1.1h7.4V175.8z"/>
		<path class="st0" d="M54.9,204.6c1.6,1.3,2.6,1.6,4.8,1.6c1.3,0,2.5-0.1,4.3-0.4c-0.1-4.6-0.3-5-2.6-5.3c0.4-0.4,0.7-0.5,1.5-0.5
			s1.8,0.1,2.5,0.4c0.7,0.2,1,0.5,1,1c0,0.2,0,0.2-0.4,1c-0.3,0.6-0.5,1.6-0.5,3.2c3-0.6,4.6-1.1,5.6-1.8c0.1-0.1,0.3-0.1,0.4-0.1
			c0.4,0,1.2,0.3,1.6,0.5c0.3,0.2,0.5,0.4,0.5,0.7c0,0.4-0.5,0.7-2.3,1.1c-2,0.5-3.9,0.8-5.7,1c0,0.8,0,1.2,0,1.9c0,0.8,0,1.4,0,2.7
			c1.2-0.2,2.4-0.5,3.4-0.8c0.8-0.3,0.9-0.4,1.5-0.8c0.1-0.1,0.3-0.1,0.5-0.1c0.4,0,1.2,0.2,1.5,0.4c0.2,0.1,0.4,0.3,0.4,0.6
			c0,0.5-0.4,0.8-2.3,1.3c-1.5,0.4-3.5,0.8-4.9,0.9c0.1,1.2,0.1,1.7,0.1,2.7c0.1,1.1,0.1,1.6,0.2,2.3c2.8,0.5,5.4,1.5,6.6,2.6
			c0.6,0.5,0.9,1.2,0.9,2c0,0.6-0.3,1.1-0.7,1.1c-0.3,0-0.4-0.1-1.2-0.8c-0.5-0.5-1.7-1.4-2.5-1.9c-1-0.6-1.8-0.9-3-1.3
			c0.1,0.7,0.1,1,0.1,1.3c0,1.2-0.3,2-1,2.5c-0.8,0.7-2.4,1.1-4,1.1c-3,0-5.1-1.3-5.1-3.2c0-2.1,2.8-3.6,6.8-3.6c0.5,0,0.8,0,1.5,0
			c0-1.4,0-1.7,0-2.1c0-0.1,0-0.3,0-0.5c0-0.7,0-1.1,0-1.4c0-0.1,0-0.4,0-0.8c-1.2,0.1-1.8,0.1-2.2,0.1c-2,0-3.3-0.2-4-0.7
			c-0.9-0.5-1.4-1.4-1.4-2.3c0-0.2,0-0.5,0.1-0.8l0.5,0c0,0.9,0.2,1.4,0.6,1.7c0.5,0.4,1.8,0.7,3.5,0.7c0.8,0,1.6-0.1,2.9-0.2
			c0-0.2,0-0.3,0-0.4v-1.7l-0.1-2.2v-0.4c-1.7,0.2-2.9,0.2-3.9,0.2c-2.9,0-4.1-0.6-5.6-2.6L54.9,204.6z M61.6,219.3
			c-1.2,0-2.3,0.2-3.3,0.6c-1.1,0.4-1.6,1-1.6,1.8c0,1.1,1.2,1.7,3.3,1.7c1.5,0,2.7-0.4,3.4-1.1c0.4-0.4,0.6-0.8,0.7-1.6
			c0-0.2,0.1-0.9,0.1-1.1c0-0.1,0-0.1,0-0.1C62.9,219.4,62.4,219.3,61.6,219.3z"/>
		<path class="st0" d="M57.8,243c0-0.5,0-0.5,0.1-1.3c0.1-0.6,0.1-0.6,0.1-1.1c-0.9,0.6-2.5,1.7-3,2.1c-0.6,0.4-0.8,0.5-1,0.5
			c-0.8,0-2.2-1.8-2.2-2.7c0-0.1,0-0.3,0.1-0.5c0.7,1,1.3,1.4,2,1.4c0.6,0,2.6-0.8,4.3-1.8c0.2-1.3,0.2-2.1,0.2-3.2
			c0-1.7-0.3-2.3-1.7-3.3c0.2-0.1,0.2-0.1,0.4-0.1c0.5,0,1.1,0.3,1.9,0.8c1,0.7,1.6,1.4,1.6,2c0,0.3,0,0.3-0.3,1.2
			c-0.2,0.6-0.4,1.5-0.5,2.4c0.7,0.7,0.9,0.9,0.9,1.2c0,0.2,0,0.2-0.4,0.9c-0.4,0.7-0.7,1.2-1,2c-0.1,0.5-0.1,0.6-0.1,1.1
			c2.9-2.8,3.9-3.7,5.2-4.6c2.1-1.5,3.5-2.1,4.8-2.1c0.9,0,1.8,0.4,2.4,1.1c0.6,0.7,0.8,1.5,0.8,2.6c0,1.1,0,1.4-0.6,4.4
			c-0.4,2-0.5,3.7-0.5,4.9c0,1.2,0.2,1.8,0.8,2.2c0.4,0.3,1,0.4,1.5,0.4c1.5,0,3.6-0.8,5.6-2.1l0.2,0.4c-2.2,2.2-4.5,3.5-6.6,3.5
			c-2.3,0-3.5-1.5-3.5-4.2c0-1.1,0.3-3,0.8-5.3c0.7-3.2,0.8-3.6,0.8-4.7c0-1.5-0.7-2.3-1.8-2.3c-1.3,0-2.9,0.9-5.3,3
			c-1.6,1.4-3,2.9-4.6,4.7c0,0.7,0,1.1,0,1.6c0,1.6,0.1,3.1,0.3,5.4c0.1,0.7,0.1,1,0.1,1.4c0,1.7-0.6,3.1-1.3,3.1
			c-0.3,0-0.6-0.2-0.7-0.8c-0.1-0.3-0.4-1.2-0.5-1.4c-0.3-0.6-1.3-1.8-2.6-3.3c-0.6,1.4-0.7,1.6-1,1.6c-0.3,0-0.5-0.2-0.7-0.7
			c-0.2-0.5-0.3-1.2-0.3-1.7c0-0.4,0-0.4,0.5-0.9c0.5-0.5,1-1.1,2-2.7L57.8,243z M55.9,248.6c-0.7,1.3-1,2-1.6,3.2
			c1.8,1.5,2.3,1.9,3.2,2.4c0.1-1.1,0.1-1.1,0.1-5.6c0-1.5,0-2.2,0.1-3.4C57.3,246.1,57.3,246.1,55.9,248.6z"/>
		<path class="st0" d="M71.2,265.2c2.3,0.8,4.6,2,5.9,2.9c1.2,0.9,1.6,1.6,1.6,2.6c0,1-0.5,2-1.1,2c-0.1,0-0.3-0.1-0.4-0.2
			c-0.2-0.2-0.2-0.2-1.5-2.2c-1-1.5-2.6-3.2-4.6-4.8L71.2,265.2z"/>
		<path class="st0" d="M0,14.9c3.8-2.7,5.9-4.7,8.4-7.7c1.4-1.7,2.9-3.7,3.7-5c0.3-0.5,0.4-0.7,0.7-1.4C14.2,1,15.6,1.3,16,1.5
			c0.2,0.1,0.3,0.1,0.3,0.3c0,0.2-0.3,0.4-1.3,0.5c0.8,1.3,1.4,2,2.7,3.3c2.1,2.1,4.4,3.8,6.9,5.2c1.5,0.8,2.3,1.1,3.8,1.5v0.5
			c-1.3,0.3-1.7,0.7-2.3,2.1c-1.5-0.8-2.2-1.3-3.6-2.6c-2.3-2-4.4-4.2-5.7-6c-0.7-1-1.3-1.9-2.4-3.6c-2.9,3.8-4.7,5.9-7.1,8
			c-2.4,2-4.3,3.3-7,4.7L0,14.9z M3.9,15.6c1.3,0.2,1.7,0.2,2.9,0.2h12.9c0.5-0.6,0.7-0.8,1.2-1.4c0.8,0.6,1.1,0.8,1.9,1.4
			c0.2,0.2,0.3,0.3,0.3,0.4c0,0.2-0.2,0.4-1.2,0.8c-0.5,0.9-0.5,0.9-2.6,5.3c-0.7,1.4-1.4,2.7-2.8,5c-0.2,0.2-0.3,0.3-0.5,0.3
			c-0.5,0-1.7-0.1-1.8-0.2c-0.1-0.1-0.2-0.2-0.2-0.2c0-0.1,0-0.2,0.1-0.3c2-3.1,3.9-6.4,5.6-10.3H6.5c-0.9,0-1.4,0-2.3,0.2L3.9,15.6
			z M7.7,10.9c0.7,0.2,1.4,0.2,2.5,0.2h6.2c0.6-0.8,0.8-1,1.4-1.7c1.1,0.9,1.4,1.2,2.5,2.1c0.1,0.1,0.2,0.2,0.2,0.2
			c0,0.1,0,0.1-0.3,0.1H9.9c-0.9,0-1.2,0-2,0.1L7.7,10.9z"/>
		<path class="st0" d="M13.3,36.9v-1.5c0-0.7,0-1.1-0.1-2c2.7,0.3,2.8,0.4,3.1,0.5c0.2,0.1,0.3,0.2,0.3,0.3c0,0.3-0.3,0.4-1.4,0.6
			v2.1h8.6c0.5-0.8,0.5-0.8,1.1-1.6c1.3,0.9,1.7,1.1,2.9,2.1c0.2,0.2,0.2,0.3,0.2,0.3c0,0.3-0.5,0.5-1.9,0.7c-1.7,1.9-1.8,2-2.6,2.8
			L23.4,41c0.3-1.1,0.4-1.2,0.8-3.4H4.6c-0.1,1-0.3,1.9-0.5,2.7c-0.5,1.3-1.4,2.3-2.1,2.3c-0.3,0-0.5-0.2-0.6-0.5
			C1.1,41.6,1,41,1,40.6c0-0.5,0.1-0.5,0.6-0.8c0.5-0.3,1.2-1.1,1.6-1.7c0.5-0.9,0.8-1.8,1-3.3h0.5c0,0.6,0.1,1.1,0.1,1.7
			c0,0.1,0,0.2,0,0.4H13.3z M7.5,60.1c0,0.3-0.1,0.4-0.3,0.5c-0.2,0.1-0.9,0.1-1.3,0.1c-0.3,0-0.5-0.1-0.5-0.4
			c0.1-2.6,0.1-3.2,0.1-8.3c0-4.2,0-5-0.1-6.8c0-0.8,0-0.8,0-1.6c1.1,0.5,1.4,0.7,2.5,1.3h5.4v-4.1c0-0.4,0-0.6-0.1-2.5
			c2.7,0.3,3.3,0.4,3.3,0.7c0,0.3-0.3,0.5-1.3,0.8v5h5.5c0.4-0.5,0.6-0.7,1.1-1.3c0.8,0.6,1,0.8,1.7,1.3c0.2,0.2,0.3,0.3,0.3,0.4
			c0,0.2-0.2,0.3-1,0.9v7.7c0,0.2,0,0.9,0,2c0,0.4,0,1.1,0,1.9c-0.1,1.1-0.3,1.5-1.1,1.9c-0.7,0.4-1.4,0.5-2.7,0.7
			c-0.2-0.8-0.5-1.1-1-1.4c-0.3-0.2-1-0.4-1.8-0.5l-1-0.2c-0.3-0.1-0.6-0.1-0.9-0.2v-0.4c2.8,0.2,3.2,0.2,5.6,0.4c0.1,0,0.2,0,0.2,0
			c0.5,0,0.6-0.1,0.6-0.5v-4.1H7.5V60.1z M6.9,39.1c1.2,0.6,2.2,1.2,3.1,2c0.8,0.6,0.9,0.9,0.9,1.5c0,0.5-0.2,1.2-0.4,1.6
			c-0.1,0.2-0.3,0.3-0.5,0.3c-0.3,0-0.5-0.2-0.7-0.7C8.7,42.2,8,41,6.7,39.5L6.9,39.1z M21.1,48.9v-3.2H7.5v3.2H21.1z M7.5,49.6V53
			h13.6v-3.5H7.5z M17.3,44.6c1.7-2.6,2.5-4.2,2.8-5.5c2.9,1.1,2.9,1.1,2.9,1.4c0,0.2-0.3,0.4-1.3,0.5c-1.4,1.5-2.1,2.3-3.9,3.8
			L17.3,44.6z"/>
		<path class="st0" d="M21.1,67.1c2.3,0.8,4.6,2,5.9,2.9c1.2,0.9,1.6,1.6,1.6,2.6c0,1-0.5,2-1.1,2c-0.1,0-0.3-0.1-0.4-0.2
			c-0.2-0.2-0.2-0.2-1.5-2.2c-1-1.5-2.6-3.2-4.6-4.8L21.1,67.1z"/>
		<path class="st0" d="M4.8,123.7v2c0,0.4-0.2,0.5-1.1,0.6c-0.3,0-0.5,0-0.6,0c0,0-0.1,0-0.1,0c-0.3,0-0.5-0.1-0.5-0.4
			c0.1-3.8,0.2-6.4,0.2-11c0-4.3,0-6.8-0.1-8.8c2.9,0.4,3.2,0.5,3.2,0.8c0,0.2-0.2,0.4-1.1,0.7V123H13v-19c0-0.9-0.1-2.7-0.1-3.5
			c2.8,0.3,2.9,0.4,3.3,0.5c0.2,0.1,0.3,0.2,0.3,0.3c0,0.2-0.2,0.3-1.3,0.7l0,21h8.7v-13.8c0-1.1-0.1-2-0.2-3.1
			c0.7,0.1,1.2,0.1,1.6,0.2c1.5,0.2,2,0.3,2,0.6c0,0.3-0.3,0.5-1.2,0.8l-0.1,8.7c0,1.7,0,3.1,0.1,9.4c0,0.4-0.2,0.5-1.1,0.6
			c-0.2,0-0.4,0-0.5,0c0,0-0.1,0-0.1,0c-0.3,0-0.5-0.1-0.5-0.4v-2.4H4.8z"/>
		<path class="st0" d="M0.5,139.9c2.1,0.8,2.7,1.1,3.4,1.5c1,0.6,1.3,1,1.3,1.8c0,0.8-0.5,1.7-1,1.7c-0.2,0-0.4-0.2-0.6-0.7
			c-0.6-1.2-1.8-2.7-3.2-3.9L0.5,139.9z M0.7,150.7c1.1,0.3,1.6,0.4,1.8,0.4c0.3,0,0.5-0.2,1.2-1.9C5.2,145.9,6.8,142,8,139l0.5,0.2
			l-3.9,12.2c-0.2,0.4-0.3,1.1-0.3,1.3c0,0.3,0,0.3,0.3,1.2c0.3,1,0.6,2.3,0.6,3.1c0,0.6-0.2,1.3-0.6,1.7c-0.4,0.5-1.1,0.8-1.7,0.8
			c-0.4,0-0.6-0.3-0.6-0.8c0-0.1,0-0.1,0.3-2.4c0.1-0.9,0.2-1.5,0.2-1.9c0-1-0.2-1.9-0.5-2.3c-0.2-0.3-0.3-0.4-1.9-1L0.7,150.7z
			 M2.7,133.2c1.8,0.6,2.6,1,3.6,1.6c1,0.6,1.3,1,1.3,1.7c0,0.9-0.5,1.8-0.9,1.8c-0.2,0-0.4-0.2-0.7-0.6c-0.8-1.4-1.8-2.5-3.5-4
			L2.7,133.2z M10.1,156.5c-0.1,0.3-0.3,0.4-0.8,0.4c-0.9,0-1.2-0.1-1.2-0.4c0,0,0-0.1,0-0.2c1-3.9,1.3-5.2,2-8.6H8.8
			c-0.6,0-1.2,0.1-1.9,0.2l-0.2-1.1c0.8,0.2,1.4,0.2,2.2,0.2h1.3c0.5-2.7,0.9-5.3,1.1-7.2c-1.1,1.6-1.9,2.5-3.6,4.1l-0.3-0.3
			c2.4-3.4,4.2-7.2,5-10.8c2.6,0.6,3.2,0.8,3.2,1.1c0,0.2-0.2,0.3-1.4,0.6c-0.5,1.1-0.7,1.5-1.1,2.2h9.9c0.8-1,1.1-1.2,1.8-2
			c1.2,1,1.6,1.3,2.8,2.3c0.1,0.1,0.1,0.2,0.1,0.2c0,0.1-0.1,0.1-0.3,0.1H12.9c-0.5,0.9-0.8,1.4-1.3,2.1c0.8,0.5,1,0.6,1.7,1.2h9.6
			c0.5-0.5,0.6-0.7,1.1-1.1c0.7,0.6,1,0.7,1.7,1.3c0.2,0.2,0.3,0.3,0.3,0.4c0,0.2-0.2,0.3-1,0.8c-0.2,1.8-0.2,1.8-0.5,4.9h0.4
			c0.6-0.9,0.8-1.2,1.5-2c1,1,1.3,1.3,2.3,2.3c0.1,0.1,0.1,0.2,0.1,0.2c0,0.1-0.1,0.2-0.2,0.2h-4.1c-0.4,4.4-0.5,4.7-0.7,6.2h0.4
			c0.7-0.9,0.9-1.1,1.6-2c1,1,1.3,1.3,2.3,2.3c0,0.1,0.1,0.1,0.1,0.2c0,0.1-0.1,0.1-0.2,0.1h-4.2c-0.4,2.3-0.7,3.3-1.1,3.8
			c-0.7,0.9-1.4,1.2-3.3,1.5c0-0.8-0.2-1.2-0.9-1.5c-0.5-0.3-1.3-0.5-3.5-1v-0.4c2.5,0.2,4.4,0.3,4.9,0.3c0.9,0,1.1-0.1,1.2-0.4
			c0.2-0.4,0.4-0.9,0.6-2.4H10.5L10.1,156.5z M15.1,154c0.3-1.6,0.3-1.6,1.1-6.2H12c-0.1,0.4-0.1,0.4-0.2,1.1
			c-0.2,1-0.5,2.6-1.1,5.2H15.1z M16.3,147.1c0.3-2.1,0.4-2.4,0.6-5.6h-3.8c-0.3,1.7-0.3,1.7-0.9,5.6H16.3z M18,147.8
			c-0.4,2.9-0.4,2.9-1,6.2h4.6c0.5-2.6,0.5-2.7,0.8-6.2H18z M22.4,147.1c0.2-2.9,0.4-4.7,0.5-5.6h-4.1c-0.3,3-0.4,3.2-0.7,5.6H22.4z
			"/>
		<path class="st0" d="M14.1,190.2c3.2-1,5.3-2.2,7-4.2c1.8-2,2.7-4.5,2.7-7.2c0-2.9-1.2-5.2-3.4-6.6c-1.3-0.9-3.3-1.4-5.2-1.4
			c-0.4,0-0.6,0-1.1,0.1c0.7,1.1,0.9,1.6,0.9,2.5c0,2.3-1.7,6.7-4,10.4c-1.9,3-3.4,4.5-4.5,4.5c-0.5,0-1-0.2-1.3-0.6
			c-0.3-0.4-0.3-0.5-0.8-1.9c-0.3-0.8-0.5-1.1-1.3-2.8c-0.5-1-0.7-1.8-0.7-2.7c0-1.9,1-4.1,2.7-5.9c2.4-2.6,6.4-4.2,10.3-4.2
			c3,0,5.8,1,7.7,2.8c1.9,1.8,2.9,4.1,2.9,7.1c0,3.8-2.2,7.1-6,9.1c-1.7,0.9-3.3,1.4-5.9,1.9L14.1,190.2z M4.2,180.8
			c0,1.4,0.5,2.9,1.2,4c0.4,0.5,0.8,0.9,1.1,0.9c0.7,0,2.1-1.6,3.6-4c2.2-3.5,3.8-7.4,3.8-9.3c0-0.5-0.1-0.8-0.4-1.5
			C8.3,171.9,4.2,176.2,4.2,180.8z"/>
		<path class="st0" d="M21.1,218.5c0.7-0.8,0.9-1.1,1.7-2c1.2,1,1.6,1.3,2.7,2.3c0.1,0.1,0.1,0.2,0.1,0.3c0,0.1-0.1,0.2-0.3,0.2h-10
			v5.1h8.1c0.8-0.9,1-1.2,1.9-2.1c1.3,0.9,1.7,1.2,2.9,2.3c0.2,0.1,0.2,0.2,0.2,0.3s-0.1,0.2-0.2,0.2H3.8c-0.6,0-2.1,0.1-2.6,0.2
			L0.9,224c2.3,0.3,2.3,0.3,2.9,0.3h9.5v-5.1h-7c-0.7,0-1.2,0-2.5,0.2l-0.3-1.2c0.9,0.2,2.3,0.3,2.9,0.3h6.9v-1.1c0-0.9,0-1.6-0.2-3
			c3.3,0.5,3.5,0.5,3.5,0.8c0,0.2-0.2,0.3-1.3,0.7v2.6H21.1z M13.2,202.1v-1.4c0-1.1,0-1.4-0.1-2.2c2.9,0.3,3.5,0.4,3.5,0.8
			c0,0.1-0.1,0.2-0.2,0.3c-0.2,0.1-0.5,0.2-1.2,0.4v2.2h8.3c0.6-0.7,0.6-0.7,1.4-1.6c1.2,0.8,1.6,1.1,2.7,2c0.2,0.1,0.2,0.2,0.2,0.3
			c0,0.1-0.1,0.1-0.1,0.2c-0.1,0.1-0.4,0.1-0.8,0.2c-0.4,0.1-0.7,0.1-1,0.2c-0.2,0.2-0.4,0.4-0.5,0.5c-0.9,0.9-1.1,1-1.9,1.7
			l-0.3-0.2c0.4-1.2,0.5-1.6,0.6-2.6H4.7c-0.2,1.4-0.5,2.3-1,3.2c-0.4,0.8-1.2,1.4-1.6,1.4S1,206.3,1,205.6c0-0.3,0.1-0.5,0.4-0.7
			c1.2-0.9,1.5-1.2,1.9-1.9c0.5-1,0.8-1.8,1-2.9h0.5c0,0.3,0,0.5,0,0.7c0,0.5,0,0.7-0.1,1.3H13.2z M7.1,207.2c-0.8,0-1.3,0-2.4,0.2
			l-0.3-1.2c0.6,0.1,0.6,0.1,2.7,0.3h13.3c0.6-0.8,0.8-1,1.5-1.8c1.1,0.8,1.4,1.1,2.6,2.1c0.1,0.1,0.2,0.1,0.2,0.2
			c0,0.1-0.1,0.2-0.2,0.2h-11c-2.6,3.5-2.6,3.5-4.2,5.1c3.4-0.1,5.4-0.2,11.3-0.8c-1.1-1.2-1.8-1.9-3.2-3.1l0.2-0.3
			c1.4,0.6,2,0.9,3.9,2.2c1.4,0.9,2.4,1.7,2.9,2.2c0.3,0.4,0.4,0.7,0.4,1.2c0,1-0.4,1.9-0.8,1.9c-0.2,0-0.2,0-1.7-1.9
			c-0.8-1-0.9-1.1-1.2-1.6c-3.5,0.6-5.9,1-6.6,1.1c-3,0.4-7.4,0.9-9.7,1.1c-0.1,0.9-0.2,1.3-0.5,1.3c-0.4,0-0.7-0.8-1.1-3.3
			c0.6,0.1,1.1,0.1,1.7,0.1c0.2,0,0.5,0,0.8,0c0.3,0,0.4,0,2.7-0.1c1.4-2.3,1.6-2.8,2.5-5.1H7.1z"/>
		<path class="st0" d="M8.8,245.8c-0.1,0.3-0.5,2.2-1.4,5.6c-0.4,1.8-0.5,2.3-0.5,3.2c0,0.9,0,1.1-0.1,1.3c-0.1,0.3-0.4,0.5-0.7,0.5
			c-0.5,0-1-0.4-1.3-1.2c-0.7-1.6-1.1-4-1.1-6.4c0-0.9,0.1-2,0.2-3.2c0.2-1.7,0.2-1.7,1.1-5.7c0.3-1.4,0.4-2.2,0.4-2.8
			c0-1-0.2-1.7-0.8-2.8c0.7,0,1.2,0.4,2,1.5c0.8,0.9,1.1,1.7,1.1,2.4c0,0.5,0,0.6-0.6,1.8c-0.6,1.3-1.3,3.4-1.6,4.8
			c-0.3,1.1-0.4,2.4-0.4,3.7c0,1.7,0.2,2.7,0.6,4c0.5-1,0.8-1.7,1.1-2.6l1.6-4.2L8.8,245.8z M12.6,247.3c-0.1,0.6-0.1,0.9-0.1,1.3
			c0,3.3,1.9,4.7,6.5,4.7c0.9,0,1.7-0.1,2.6-0.2c0.6-0.1,0.6-0.1,1.6-0.5c0.2-0.1,0.3-0.1,0.5-0.1c0.8,0,1.9,1,1.9,1.8
			c0,0.4-0.2,0.6-0.7,0.8c-0.6,0.2-2.1,0.3-3.8,0.3c-3.8,0-6.4-0.6-7.8-1.8c-1.1-1-1.6-2.3-1.6-3.9c0-0.8,0.1-1.4,0.4-2.4
			L12.6,247.3z M12.6,237.7c1.1,0.6,1.7,0.8,2.8,0.8c1.9,0,4.8-0.7,6-1.4c0.4-0.2,0.5-0.2,0.7-0.2c0.2,0,0.6,0.2,1.1,0.4
			c0.6,0.4,0.9,0.7,0.9,1.1c0,0.4-0.2,0.6-0.8,0.7c-2,0.3-3.1,0.6-4.3,1.1c-0.9,0.4-2.7,1.4-3.9,2.1l-0.3-0.3c1.4-1.1,2.4-2,2.9-2.3
			c-0.6,0-1,0.1-1.2,0.1c-1.7,0-2.8-0.4-4.1-1.7L12.6,237.7z"/>
		<path class="st0" d="M22.5,269.1c0.5-0.7,0.6-0.9,1.1-1.5c0.9,0.6,1.2,0.8,2,1.4c0.2,0.2,0.4,0.3,0.4,0.4c0,0.2-0.2,0.4-1.1,0.9
			c-0.1,1-0.1,1-0.4,6.1c-0.2,2.3-0.6,4.9-1,6.2c-0.2,0.8-0.8,1.5-1.4,1.8c-0.5,0.2-1,0.3-2.2,0.4c0-1.2-0.4-1.4-2.8-2l0.1-0.5
			c1.5,0.2,2.6,0.3,3.3,0.3c0.8,0,1-0.3,1.2-1.3c0.6-2.9,0.9-6.8,1-11.7H7.9c-1.8,3.2-3.8,5.4-6.8,8l-0.4-0.4c2.3-2.6,4-5.3,5.5-8.6
			c0.7-1.4,1.1-2.5,1.5-4.2c2.9,0.7,3.5,0.9,3.5,1.1c0,0.2-0.4,0.4-1.6,0.6c-0.6,1.3-0.8,1.7-1.4,2.7H22.5z M14.7,274.9H8.2
			c-0.6,0-1,0-2,0.1l-0.2-1c0.8,0.1,1.4,0.2,2.3,0.2h6c0.5-0.6,0.6-0.8,1.1-1.3c0.8,0.6,1.1,0.8,1.8,1.3c0.2,0.2,0.3,0.3,0.3,0.4
			c0,0.2-0.2,0.4-0.9,0.7c0,4.3,0,4.6,0,6.2c0,0.3-0.1,0.5-0.3,0.6c-0.2,0.1-0.9,0.2-1.3,0.2c-0.3,0-0.5-0.2-0.5-0.5V281H7v7.2
			c0,0.5,0.2,0.6,0.7,0.7c0.8,0.1,3.6,0.1,7.6,0.1c0.1,0,0.5,0,0.8,0c2.4,0,4.3,0,5.2,0c0.2,0,0.4,0,0.5,0c0.1,0,0.2,0,0.3,0
			c1.4,0,2.2-0.1,2.5-0.3c0.2-0.2,0.5-0.7,0.7-1.3c0.3-0.9,0.3-0.9,1.5-5l0.5,0.1l-0.5,5.2c0,0.3-0.1,0.6-0.1,0.6
			c0,0.3,0.1,0.4,0.4,0.4c0.7,0.2,1.1,0.5,1.1,1c0,0.4-0.4,0.8-0.8,0.9c-0.8,0.2-3,0.3-9.9,0.3c-7.7,0-10.1-0.1-11.1-0.3
			c-1-0.2-1.3-0.8-1.4-2.1l0.1-3.7v-2.9c0-1.1,0-1.6,0-2.7c1,0.5,1.3,0.6,2.3,1.1h7.4V274.9z"/>
		<path class="st0" d="M4.8,303.6c1.6,1.3,2.6,1.6,4.8,1.6c1.3,0,2.5-0.1,4.3-0.4c-0.1-4.6-0.3-5-2.6-5.3c0.4-0.4,0.7-0.5,1.5-0.5
			s1.8,0.1,2.5,0.4c0.7,0.2,1,0.5,1,1c0,0.2,0,0.2-0.4,1c-0.3,0.6-0.5,1.6-0.5,3.2c3-0.6,4.6-1.1,5.6-1.8c0.1-0.1,0.3-0.1,0.4-0.1
			c0.4,0,1.2,0.3,1.6,0.5c0.3,0.2,0.5,0.4,0.5,0.7c0,0.4-0.5,0.7-2.3,1.1c-2,0.5-3.9,0.8-5.7,1c0,0.8,0,1.2,0,1.9c0,0.8,0,1.4,0,2.7
			c1.2-0.2,2.4-0.5,3.4-0.8c0.8-0.3,0.9-0.4,1.5-0.8c0.1-0.1,0.3-0.1,0.5-0.1c0.4,0,1.2,0.2,1.5,0.4c0.2,0.1,0.4,0.3,0.4,0.6
			c0,0.5-0.4,0.8-2.3,1.3c-1.5,0.4-3.5,0.8-4.9,0.9c0.1,1.2,0.1,1.7,0.1,2.7c0.1,1.1,0.1,1.6,0.2,2.3c2.8,0.5,5.4,1.5,6.6,2.6
			c0.6,0.5,0.9,1.2,0.9,2c0,0.6-0.3,1.1-0.7,1.1c-0.3,0-0.4-0.1-1.2-0.8c-0.5-0.5-1.7-1.4-2.5-1.9c-1-0.6-1.8-0.9-3-1.3
			c0.1,0.7,0.1,1,0.1,1.3c0,1.2-0.3,2-1,2.5c-0.8,0.7-2.4,1.1-4,1.1c-3,0-5.1-1.3-5.1-3.2c0-2.1,2.8-3.6,6.8-3.6c0.5,0,0.8,0,1.5,0
			c0-1.4,0-1.7,0-2.1c0-0.1,0-0.3,0-0.5c0-0.7,0-1.1,0-1.4c0-0.1,0-0.4,0-0.8c-1.2,0.1-1.8,0.1-2.2,0.1c-2,0-3.3-0.2-4-0.7
			c-0.9-0.5-1.4-1.4-1.4-2.3c0-0.2,0-0.5,0.1-0.8l0.5,0c0,0.9,0.2,1.4,0.6,1.7c0.5,0.4,1.8,0.7,3.5,0.7c0.8,0,1.6-0.1,2.9-0.2
			c0-0.2,0-0.3,0-0.4v-1.7l-0.1-2.2v-0.4c-1.7,0.2-2.9,0.2-3.9,0.2c-2.9,0-4.1-0.6-5.6-2.6L4.8,303.6z M11.5,318.4
			c-1.2,0-2.3,0.2-3.3,0.6c-1.1,0.4-1.6,1-1.6,1.8c0,1.1,1.2,1.7,3.3,1.7c1.5,0,2.7-0.4,3.4-1.1c0.4-0.4,0.6-0.8,0.7-1.6
			c0-0.2,0.1-0.9,0.1-1.1c0-0.1,0-0.1,0-0.1C12.9,318.4,12.3,318.4,11.5,318.4z"/>
		<path class="st0" d="M7.7,342.1c0-0.5,0-0.5,0.1-1.3c0.1-0.6,0.1-0.6,0.1-1.1c-0.9,0.6-2.5,1.7-3,2.1c-0.6,0.4-0.8,0.5-1,0.5
			c-0.8,0-2.2-1.8-2.2-2.7c0-0.1,0-0.3,0.1-0.5c0.7,1,1.3,1.4,2,1.4c0.6,0,2.6-0.8,4.3-1.8c0.2-1.3,0.2-2.1,0.2-3.2
			c0-1.7-0.3-2.3-1.7-3.3c0.2-0.1,0.2-0.1,0.4-0.1c0.5,0,1.1,0.3,1.9,0.8c1,0.7,1.6,1.4,1.6,2c0,0.3,0,0.3-0.3,1.2
			c-0.2,0.6-0.4,1.5-0.5,2.4c0.7,0.7,0.9,0.9,0.9,1.2c0,0.2,0,0.2-0.4,0.9c-0.4,0.7-0.7,1.2-1,2c-0.1,0.5-0.1,0.6-0.1,1.1
			c2.9-2.8,3.9-3.7,5.2-4.6c2.1-1.5,3.5-2.1,4.8-2.1c0.9,0,1.8,0.4,2.4,1.1c0.6,0.7,0.8,1.5,0.8,2.6c0,1.1,0,1.4-0.6,4.4
			c-0.4,2-0.5,3.7-0.5,4.9c0,1.2,0.2,1.8,0.8,2.2c0.4,0.3,1,0.4,1.5,0.4c1.5,0,3.6-0.8,5.6-2.1l0.2,0.4c-2.2,2.2-4.5,3.5-6.6,3.5
			c-2.3,0-3.5-1.5-3.5-4.2c0-1.1,0.3-3,0.8-5.3c0.7-3.2,0.8-3.6,0.8-4.7c0-1.5-0.7-2.3-1.8-2.3c-1.3,0-2.9,0.9-5.3,3
			c-1.6,1.4-3,2.9-4.6,4.7c0,0.7,0,1.1,0,1.6c0,1.6,0.1,3.1,0.3,5.4c0.1,0.7,0.1,1,0.1,1.4c0,1.7-0.6,3.1-1.3,3.1
			c-0.3,0-0.6-0.2-0.7-0.8c-0.1-0.3-0.4-1.2-0.5-1.4c-0.3-0.6-1.3-1.8-2.6-3.3c-0.6,1.4-0.7,1.6-1,1.6c-0.3,0-0.5-0.2-0.7-0.7
			c-0.2-0.5-0.3-1.2-0.3-1.7c0-0.4,0-0.4,0.5-0.9c0.5-0.5,1-1.1,2-2.7L7.7,342.1z M5.9,347.7c-0.7,1.3-1,2-1.6,3.2
			c1.8,1.5,2.3,1.9,3.2,2.4c0.1-1.1,0.1-1.1,0.1-5.6c0-1.5,0-2.2,0.1-3.4C7.3,345.2,7.2,345.2,5.9,347.7z"/>
		<path class="st0" d="M16.8,367.9c-1.2,0.4-4,1.5-6.1,2.4c-0.6,0.3-1,0.4-1.2,0.4c-0.5,0-1.1-0.4-1.7-1.3c-0.5-0.8-0.8-1.6-0.8-2.2
			c0-0.3,0.1-0.5,0.3-0.8c0.5,1.4,1.3,2.2,2.3,2.2c0.8,0,3.6-0.7,5.7-1.3c1.2-0.4,1.2-0.4,1.9-0.9c0.1-0.1,0.3-0.1,0.4-0.1
			c0.4,0,0.9,0.3,1.6,1.1c0.7,0.7,0.9,1,0.9,1.4c0,0.2-0.2,0.4-0.5,0.6c-0.9,0.5-1.2,0.7-2.5,2c-1.9,1.9-3,3-4.4,4.5
			c-2.9,3.1-2.9,3.1-3.5,3.7l0.1,0.1c3.2-2,5.6-2.9,8.2-2.9c3.8,0,6.4,2.3,6.4,5.6c0,4.3-4,7.5-9.4,7.5c-2.9,0-4.8-1.2-4.8-3
			c0-1.5,1.4-2.6,3.2-2.6c1.5,0,2.8,0.5,3.8,1.5c0.5,0.5,0.9,1,1.3,1.9c2.3-1,3.6-3.1,3.6-5.6c0-1.7-0.7-3-1.9-3.7
			c-0.6-0.4-1.8-0.6-3-0.6c-2.9,0-7.1,2.4-9.6,5.6c-0.5,0.6-0.7,0.8-1,0.8c-0.5,0-1-1.1-1-2c0-0.4,0.2-0.7,0.6-1.1
			c1.1-0.9,1.6-1.4,4.2-4.2c3.7-4.1,4.8-5.4,7.2-8.5c0.2-0.3,0.2-0.3,0.3-0.5c0,0-0.1-0.1-0.1-0.1c0,0,0,0,0,0c0,0,0,0-0.1,0
			c0,0-0.1,0-0.2,0.1L16.8,367.9z M12.2,385.2c-1.1,0-1.9,0.6-1.9,1.5c0,1.1,1.3,1.8,3.4,1.8c0.8,0,1.2-0.1,2.1-0.3
			C15.3,386.3,13.9,385.2,12.2,385.2z"/>
		<path class="st0" d="M28.6,401.1c0,2.1-1.7,3.9-3.9,3.9s-3.9-1.7-3.9-3.9c0-2.1,1.7-3.9,3.9-3.9C26.8,397.3,28.6,399,28.6,401.1z
			 M21.8,401.1c0,1.6,1.3,2.9,2.9,2.9c1.6,0,2.9-1.3,2.9-2.9c0-1.6-1.3-2.9-2.9-2.9C23.1,398.2,21.8,399.5,21.8,401.1z"/>
	</g>
</g>
</svg>
