<svg xmlns="http://www.w3.org/2000/svg" width="246.29" height="340.57" viewBox="0 0 246.29 340.57"><defs><style>.cls-1{fill:#fff;}.cls-2{fill:#6d554d;}</style></defs><g id="レイヤー_2" data-name="レイヤー 2"><g id="温泉"><path class="cls-1" d="M192.55,3.92a1.52,1.52,0,0,0,1.15-.42c.65-.62.73-.7.87-.7a3.62,3.62,0,0,1,1.54,1.51,10.42,10.42,0,0,1-.62,1.4,30.89,30.89,0,0,0-.16,3.58c0,1.46.16,7.9.16,9.19a2.43,2.43,0,0,1-.5,1.71,2.35,2.35,0,0,1-1.18.64c-.5,0-.53-.64-.53-.81,0-.67,0-.87-.78-.87h-1.6a.7.7,0,0,0-.78.78c0,.09,0,1.21,0,1.38A2.29,2.29,0,0,1,188.66,23c-.75,0-.75-.65-.75-.9s.11-2,.11-2.44c.08-3,.14-5,.14-12.79,0-.59-.09-3.19-.09-3.7,0-.14,0-.3.17-.3a4.81,4.81,0,0,1,1.26.61,2.4,2.4,0,0,0,1.54.48Zm-.05,14.5c.25,0,.67,0,.84-.36.08-.2.08-2.44.08-3a28.16,28.16,0,0,0-.08-3,.69.69,0,0,0-.65-.37h-1.9c-.73,0-.73.23-.73,2.52,0,.79,0,3.67.11,3.87a.65.65,0,0,0,.68.36ZM190.9,4.67a.69.69,0,0,0-.59.23,34.3,34.3,0,0,0-.22,4.93c0,.61,0,1.12.78,1.12h1.71a.77.77,0,0,0,.76-.37c.11-.28.11-3.19.11-3.75,0-2,0-2.16-.81-2.16Zm16,5.55c1.32,0,1.46,0,1.88-.7.19-.31.7-1.12,1.14-1.12a6.59,6.59,0,0,1,1.12.78c1.32,1.09,1.4,1.15,1.4,1.37,0,.4-.58.4-1.51.4H200.37c-1.32,0-2.47,0-3,.08-.11,0-.53.06-.62.06s-.14-.06-.22-.17l-.56-.65c-.11-.14-.11-.14-.11-.19s0-.06.08-.06c.23,0,1.09.09,1.26.09,1,.05,2.38.11,3.31.11h1.09c.84,0,.84-.56.84-.9,0-.59,0-2.13,0-2.63,0-.7-.48-.7-.76-.7-.89,0-2.32,0-3.13,0-.09,0-.51.09-.59.09s-.17-.09-.25-.2l-.53-.64c-.12-.11-.14-.14-.14-.17s.05-.08.11-.08,1.06.08,1.23.11c1,0,2.24.08,3.22.08.31,0,.84,0,.84-.7a23.32,23.32,0,0,0-.17-3.1c0-.14-.11-.68-.11-.79a.2.2,0,0,1,.22-.22s3,.84,3,1.2c0,.14-.61.62-.7.73a2.16,2.16,0,0,0-.19,1.12c0,1.68,0,1.76,1.2,1.76s1.57,0,1.93-.5c.79-1.09.79-1.09,1-1.09a8.14,8.14,0,0,1,2.46,2c0,.31-.14.31-1.37.31h-4.39c-.79,0-.79.45-.79,1.12a10.57,10.57,0,0,0,.09,2.74.68.68,0,0,0,.72.37ZM208,15.79c-.84,0-.95.25-.95,1,0,1.09.14,5.85.14,6.83,0,2.18-2.29,2.27-2.69,2.27s-.39,0-.39-.34c0-.73,0-1.12-1.17-1.54-.28-.08-1.52-.39-1.74-.48s-.45-.22-.45-.33.17-.2.42-.2,2.66.31,3.17.31.61-.05.72-.45a20.3,20.3,0,0,0,.09-3.44c0-3.58,0-3.64-.95-3.64h-2.3c-.62,0-2.55,0-3.53.06a5.59,5.59,0,0,1-.59.08c-.11,0-.16-.08-.25-.2l-.53-.64c-.11-.11-.14-.14-.14-.17s.06-.08.11-.08c.2,0,1.07.08,1.23.11,1.29.06,2.55.08,3.84.08h2.18c.82,0,.82-.47.82-.95s-.14-2.24-.14-2.29c0-.23.05-.34.22-.34s2.8.76,2.8,1.32c0,.16-.7.69-.76.84a1.77,1.77,0,0,0-.14.84c0,.47.26.58.54.58s.42-.11,1.12-1.06c.25-.36.56-.73.86-.73.14,0,.26.09,1.12.79,1.32,1.06,1.4,1.14,1.4,1.37,0,.39-.56.39-1.48.39Zm-6.27,6c-.61,0-.78-.3-1.37-1.31A9.19,9.19,0,0,0,197.82,18c-.11-.08-1-.72-1-.75s.14-.17.22-.17c.56,0,5.63,1,5.63,3.7A1.06,1.06,0,0,1,201.68,21.75Z"/><path class="cls-1" d="M190.73,47.26c0-.84.79-1.73,2.69-3.95a12.84,12.84,0,0,0,2.38-4.17c0-.17-.19-.19-.31-.19-.28,0-1.42.22-1.68.22a3,3,0,0,1-2.49-2.46c0-.09,0-.2.17-.2a6.17,6.17,0,0,1,1.06.53,4.48,4.48,0,0,0,1.85.5c2.3,0,2.3-.75,2.3-1.31a2.2,2.2,0,0,0-.23-1c-.08-.14-.67-.64-.67-.81S196.53,34,197,34c.68,0,1.38.25,1.43.87,0,.36.14.42,1.26.5.2,0,1.26.14,1.26.73,0,.92-2,1.71-3.33,2.21-.42.17-.45.23-1.06,1.65a22.47,22.47,0,0,1-1.52,3c-.14.25-.19.33-.19.45a.1.1,0,0,0,.11.11,6,6,0,0,0,.87-.31A2.61,2.61,0,0,1,197,43a2.52,2.52,0,0,1,2.38,1.7c.2.48.22.54.28.54a13.24,13.24,0,0,0,1.15-1.52c.92-1.28,2.74-3.83,5.18-3.83a2.63,2.63,0,0,1,2.63,2.49c0,1.32-2.21,2.24-3.95,3-.7.31-3.86,1.57-4.37,1.88s-.47.59-.47,1.18c0,.25.05,1.43.05,1.68,0,.45,0,2-1,2-.76,0-.87-.92-.87-1.43,0-.28.08-1.62.08-1.65s0-.33-.19-.33-2.72,1.73-2.72,3.33c0,1.93,2.8,1.93,3.61,1.93a8.88,8.88,0,0,0,1.8-.17c.39-.05,2.18-.5,2.54-.5.59,0,1.38.28,1.38.95,0,1.74-4.34,1.85-5,1.85-3.55,0-5.43-1.46-5.43-3.67,0-1.79,1.07-2.69,3.7-4.82a1.19,1.19,0,0,0,.42-1c0-1.26-.23-2.82-1.35-2.82s-2.71,1.28-3.44,3c-.31.7-.62,1.38-1.51,1.38C191.27,48.19,190.73,48,190.73,47.26Zm7.14-10.58c.06,0,1.4-.37,1.4-.67s-.7-.42-1-.42-.5.78-.5.89S197.82,36.68,197.87,36.68Zm2.55,9.07c0,.06,0,.14.11.14s5.6-2.24,5.6-4.09c0-.7-.61-.84-1-.84C202.83,41,200.42,45.3,200.42,45.75Z"/><path class="cls-1" d="M186.31,73.92c-.11-.14-.14-.14-.14-.2s.06,0,.11,0,.87.08,1,.08c1,.06,3,.11,4,.11.7,0,.84-.31.84-1.12,0-.42,0-2.57,0-2.74-.11-.45-.7-.45-1-.45s-2.15.14-2.49.14c-.11,0-.17-.08-.25-.2l-.56-.64c-.08-.11-.11-.14-.11-.17s0-.08.11-.08c.53,0,3,.19,3.47.19.81,0,.81-.42.81-.92a13,13,0,0,0-.16-2.41c0-.14-.2-.7-.2-.81,0-.34.28-.36.42-.36a13.35,13.35,0,0,1,2.07.61c.17.09.42.28.42.51s-.14.3-.53.64-.28.5-.28,1.23c0,1,0,1.51.95,1.51a1,1,0,0,0,1-.42c.53-.67.59-.75.78-.75.42,0,1.71,1.15,1.71,1.54s-.53.39-1.51.39h-2c-1,0-1,.36-1,1.2,0,2.89,0,3.11.95,3.11,1.12,0,1.23,0,1.49-.19s.84-1,1-1a3.32,3.32,0,0,1,1.6,1.49c0,.39-.53.39-1.49.39h-3.58c-.11,0-.28,0-.28.2s.34.33.59.42c.7.22.78.25.78.56s-.08.19-.61.44-.51,1.43-.51,2c0,1.49,0,1.85.81,1.85s1-.06,1.12-.19.84-1.1,1.07-1.1a3.2,3.2,0,0,1,1.65,1.63c0,.42-.53.42-1.51.42h-2.07c-1,0-1.07.19-1.07,1.15,0,3.5,0,3.64.42,4,.79.7,5.27,1.18,10.7,1.18a25.22,25.22,0,0,0,6.8-.57c.17,0,.93-.27,1-.27a.13.13,0,0,1,.14.11,10.34,10.34,0,0,1-1.29,1.17,4.1,4.1,0,0,0-.7,1.24c-.14.33-.39.36-.67.36-3.53,0-11.76-.2-15-1-2.41-.64-4.15-2.26-5.69-4.73-.16-.25-.33-.5-.5-.5s-.34.39-.36.47a19.51,19.51,0,0,1-2.5,4.88.1.1,0,0,1-.11-.09,3,3,0,0,1,.17-.47c.56-2,2.13-7.68,2.13-9.24,0-.12-.06-.62-.06-.73a.34.34,0,0,1,.37-.34c.05,0,2.35.51,2.35,1,0,.14-.67.59-.73.73a11,11,0,0,0-.9,2.57c0,1,1.88,3,2.36,3s.36-.53.36-.78c0-5.63,0-7.42-.06-8.46,0-.67-.36-.81-.89-.81-1.37,0-2.83.06-3.75.11l-.4,0c-.11,0-.16-.06-.25-.17Zm19.46-7c-.73,0-.78.19-1,1.26a9,9,0,0,1-4.62,6.72,5.39,5.39,0,0,1-1.15.58.13.13,0,0,1-.14-.11c0-.05,1.06-1.06,1.26-1.26a9.88,9.88,0,0,0,2.88-6.52c0-.48-.19-.67-.7-.67s-1.31,0-1.9.08c-.11,0-.5.06-.59.06s-.17-.06-.25-.17l-.56-.65c-.08-.14-.11-.14-.11-.19s.05-.06.11-.06,1,.09,1.23.09c1.37,0,2.52.11,3.84.11h3.55a.92.92,0,0,0,.93-.42c.31-.45.33-.51.5-.51s2.16.73,2.16,1.26c0,.23-.14.37-.62.76-.17.14-.17.36-.17.62,0,1.65-.22,8.06-3.13,8.06-.37,0-.45-.17-.62-.62a1.58,1.58,0,0,0-1.45-.86c-.54-.06-.59-.06-.59-.23s.08-.19.28-.19c1.93,0,2.46,0,2.88-.87a16.9,16.9,0,0,0,.87-5.21c0-.92-.22-1.06-.87-1.06Zm-3.25,17.33c-.59,0-.78.14-.87.61a1.25,1.25,0,0,1-1.28.93c-.45,0-.62-.25-.62-.67,0-.17.08-1,.11-1.15a24.81,24.81,0,0,0,.09-2.8c0-1.07,0-2.61-.09-3.64,0-.14-.11-.76-.11-.9a.29.29,0,0,1,.28-.33,10.18,10.18,0,0,1,1.46.81,2.55,2.55,0,0,0,1.28.25h5a1.65,1.65,0,0,0,1-.22c.11-.12.59-.73.73-.73s1.93,1,1.93,1.54c0,.22-.17.39-.5.59s-.37.36-.37,1.62c0,.64.06,3.89.06,4,0,.62,0,1.49-1.23,1.49a.75.75,0,0,1-.84-.76c-.09-.65-.42-.67-.87-.67Zm0-6.13c-.87,0-.87.25-.87,1.87,0,.31,0,3,.09,3.17.16.36.58.36.78.36h5.26c.87,0,.87-.28.87-1.85,0-.31,0-3-.08-3.22s-.59-.33-.79-.33Z"/><path class="cls-1" d="M199.86,104.35a3.55,3.55,0,0,1,1.18-.19,1.8,1.8,0,0,1,2,1.54c0,1-1.07,2-3.25,4a17.66,17.66,0,0,0-2.07,2.16c0,.11.14.17.28.17l.61-.06a2.11,2.11,0,0,1,2.05,2c0,.28-.17,1.54-.17,1.82a1.47,1.47,0,0,0,1.62,1.57c.79,0,4.23-.75,4.93-.75s1.48.42,1.48,1.06c0,1.51-2.32,1.76-5.34,1.76-3.34,0-3.81-1.76-3.84-3.69-.06-2.27-.06-2.52-.9-2.52-.56,0-2.4.5-3.94,3.36-.79,1.42-1.24,2.26-2.19,2.26a1,1,0,0,1-1-1c0-.76,0-1.07,4.6-6.08,2.4-2.66,4.59-5,4.59-5.85a.43.43,0,0,0-.48-.48,3.89,3.89,0,0,0-1.57.93,3.91,3.91,0,0,1-2.26,1.09c-1.63,0-2.41-2-2.41-2.3,0-.11.05-.22.19-.22s.73.2.79.2a4.56,4.56,0,0,0,1.37.22C197.06,105.39,197.34,105.3,199.86,104.35ZM197,97.8c.42.11,2.38.48,2.74.56.93.25,1.77.9,1.77,1.65a.79.79,0,0,1-.79.79c-2,0-2,0-2.68.25a12.17,12.17,0,0,1-1.15.5c-.06,0-.11,0-.11-.14S198,100,198,99.62c0-.17-.45-.45-1-.87-.87-.58-.95-.92-.95-1.06a.13.13,0,0,1,.11-.14C196.19,97.55,196.81,97.77,197,97.8Z"/><path class="cls-1" d="M190.45,135.07c1.21,0,1.63-.11,5.46-1.2,2.5-.7,8.88-2.52,10.76-2.52,1,0,2.24.39,2.24,1.34a1.12,1.12,0,0,1-1.12,1c-.37,0-2-.31-2.3-.31-3.56,0-7.53,3.27-7.53,10.5,0,4.7,1.76,5,3.41,5,.42,0,2.44-.17,2.66-.17.87,0,1.4.36,1.4,1,0,1.48-3.08,1.48-3.24,1.48-5.74,0-5.74-4.67-5.74-6s0-7.17,4.08-10.78a4.23,4.23,0,0,0,.68-.59s-.12,0-.17,0c-1.6,0-7.42,2.49-8.32,3a2,2,0,0,1-1,.37c-1.4,0-2.71-1.88-2.38-2.27C189.47,134.82,190.31,135.07,190.45,135.07Z"/><path class="cls-1" d="M205.63,165c1.26,0,1.4,0,1.79-.47.79-.93.87-1,1.12-1s2.63,1.48,2.63,1.85-.56.42-1.51.42H201c-.73,0-.73.53-.73,1.43,0,1.17,0,1.68.73,1.68h1.32c1.12,0,1.34,0,1.59-.23s1.07-1.29,1.32-1.29,2.43,1.38,2.43,1.77-.61.5-1.56.5H201c-.76,0-.76.65-.76,1.15,0,1.06,0,1.62.76,1.62h5.15c1.26,0,1.4,0,1.79-.47.79-.93.87-1,1.12-1s2.64,1.51,2.64,1.88-.56.39-1.52.39H191.55c-2.44,0-3.25.06-3.53.08-.11,0-.51.06-.59.06s-.17-.08-.25-.17l-.56-.67c-.09-.14-.11-.14-.11-.17s0-.08.11-.08,1,.08,1.23.11c1.37.06,2.52.08,3.84.08h6c.73,0,.73-.47.73-1.68,0-.5,0-1.09-.73-1.09h-2.91c-2.44,0-3.25.06-3.53.06a3.81,3.81,0,0,1-.59.08c-.11,0-.17-.08-.25-.19l-.53-.65c-.11-.14-.11-.14-.11-.19s0-.06.08-.06,1.06.08,1.23.08c1.37.09,2.52.12,3.84.12h2.74c.73,0,.73-.42.73-1.6,0-.9,0-1.51-.76-1.51H192.5c-2.47,0-3.28.05-3.56.05a3.82,3.82,0,0,1-.59.09c-.08,0-.16-.09-.25-.2l-.53-.64c-.11-.14-.11-.14-.11-.2s0-.05.08-.05c.2,0,1.07.08,1.23.08,1.38.06,2.55.11,3.87.11h7.73c1,0,2.21-2.38,2.21-4.06,0-.64,0-.87.28-.87s1.68.62,2,.73c.59.23,1,.39,1,.84s-.34.37-.59.39c-.53.09-.67.2-2,1.35-.22.17-1.15.92-1.32,1.09s-.25.22-.25.34.23.19.53.19Zm-13.38,13.11c-2.47,0-3.25,0-3.56.08l-.59.06c-.08,0-.14-.09-.25-.2l-.53-.64c-.11-.14-.11-.14-.11-.2s0-.06.08-.06,1.06.09,1.23.09c1.37.08,2.55.11,3.87.11h5c.73,0,.73-.48.73-1.29a5.57,5.57,0,0,0-.14-1.59,3.91,3.91,0,0,1-.17-.7c0-.2.25-.2.39-.2.37,0,2.55.2,2.55.84,0,.17-.34.87-.36,1s-.14,1.37-.14,1.45c0,.25,0,.48.61.48h4.31c1.4,0,1.43,0,2-.64.22-.26.62-.7.92-.7a7.89,7.89,0,0,1,2.58,1.76c0,.34-.67.34-1.48.34h-8c-.33,0-.5,0-.5.19,0,.39,4.34,4.57,11,4.57l.86,0c.06,0,.17,0,.17,0s-1,.51-1.15.62a10.5,10.5,0,0,0-2,1.62c-.08.17-.22.37-.36.37A17.27,17.27,0,0,1,202.1,181a15.21,15.21,0,0,1-1.76-2.13c-.09-.11-.2-.31-.34-.31s-.14.09-.33.59c-1.82,5-7.84,5.52-9.89,5.52a9.37,9.37,0,0,1-3.25-.42s1.26-.17,1.38-.17c7.5-.79,9.74-4.45,9.74-5.57,0-.42-.22-.42-.62-.42Zm4.31-13.3c-.42,0-.56-.2-1.57-1.88a9.72,9.72,0,0,0-1.88-2.18c0-.06-.16-.17-.16-.28s.08-.06.11-.06a12.24,12.24,0,0,1,2.13.7c1.45.64,2.38,1.09,2.38,2.44C197.57,164.11,197.31,164.81,196.56,164.81Z"/><path class="cls-1" d="M199.78,194.85a30.33,30.33,0,0,0,4.06,12.82c.47.76,3.64,5.88,7.95,7,.08,0,.28.09.28.2s-.08.14-1,.34a5.64,5.64,0,0,0-1.93.83c-.53.4-.62.48-.7.48s-3.67-2.21-6.39-8.15a30.3,30.3,0,0,1-2.68-10.83c0-.31,0-.34-.14-.34s-.17.11-.28,1.12-.82,7.42-3.59,12a15.43,15.43,0,0,1-8.15,6.66c-.08,0-.16,0-.16-.14s.14-.2.36-.34a20.81,20.81,0,0,0,6.64-7.19c3.19-6.08,3.19-14.09,3.19-14.39a7.81,7.81,0,0,0-.11-1.71,4,4,0,0,1-.12-.56.25.25,0,0,1,.23-.23c.17,0,1.37.4,1.62.45,1.35.37,1.91.53,1.91,1,0,.31-.23.39-.48.45s-.36.05-.45.16A.61.61,0,0,0,199.78,194.85Z"/><path class="cls-1" d="M199.36,228.64c0,.09,0,.2,0,.31a20.5,20.5,0,0,1,.28,3c0,1.87-.42,4.48-2.88,8.2-2.24,3.42-3.67,4.09-4.79,4.09-1.85,0-3.5-2.89-3.5-6.3a9.86,9.86,0,0,1,3.11-7.14,11.59,11.59,0,0,1,8.93-3.64,9.16,9.16,0,0,1,4.51.89,8.79,8.79,0,0,1,4.87,8.15,10.45,10.45,0,0,1-7.05,9.86,17.1,17.1,0,0,1-4.65,1c-.11,0-.28,0-.28-.19s0-.11.75-.39c2.92-1.15,9-3.56,9-10.53,0-1.09-.11-7.76-7.75-7.76C199.39,228.25,199.36,228.48,199.36,228.64Zm-9.1,8.6c0,1.82.73,4.31,2.43,4.31.82,0,1.49-.33,3.42-3.25a16,16,0,0,0,2.74-8.14c0-1.68-.11-1.82-.47-1.82C195.72,228.34,190.26,232,190.26,237.24Z"/><path class="cls-1" d="M190.37,265.83c0,.64-.36,1.37-1,1.37s-.64-.17-1.23-1.59a7,7,0,0,0-1.48-2.27,2.72,2.72,0,0,1-.34-.42c0-.09.06-.11.14-.11a9.73,9.73,0,0,1,2,.67C189.31,263.93,190.37,264.77,190.37,265.83Zm2.41-2.49c0-.09.08-.23.19-.23s.09.09.09.14a29.36,29.36,0,0,1-1.4,6c-1,3.28-1.18,4.12-1.18,5.27a6.06,6.06,0,0,0,.14,1.48,11,11,0,0,1,.56,3,1.52,1.52,0,0,1-1.48,1.68,1.13,1.13,0,0,1-1.21-1.26c0-.42.31-2.32.31-2.72a3,3,0,0,0-1.68-2.85c-.11-.09-.75-.28-.75-.39s.16-.12.22-.12a2.64,2.64,0,0,0,2.27-.75c.61-.79.87-1.49,3.33-7.76C192.33,264.49,192.72,263.48,192.78,263.34Zm-.51-3.67a1.23,1.23,0,0,1-1.06,1.37c-.56,0-.73-.42-1.18-1.62a12.51,12.51,0,0,0-1.56-2.63c-.12-.14-.26-.28-.26-.4s.06-.08.12-.08a12,12,0,0,1,2.32,1A2.89,2.89,0,0,1,192.27,259.67Zm15.32,11.62a1.08,1.08,0,0,0-1.23.87c-1.85,5.63-5,7.87-9.61,8.73-.05,0-.47.09-.47,0a23.36,23.36,0,0,1,2.41-1.31,11.5,11.5,0,0,0,5.68-7.65c0-.45-.34-.67-.78-.67h-.54a1,1,0,0,0-.81.28c-.22.2-.87,1.57-1.06,1.85a11.55,11.55,0,0,1-6.55,4.67c-.06,0-.09,0-.09,0s1.63-1.24,1.93-1.49c2.8-2.4,3.67-4.48,3.67-4.76s-.33-.5-.61-.5h-.87a1.62,1.62,0,0,0-1,.2,17.61,17.61,0,0,0-1.82,1.65c-1,.81-3.3,2.43-3.89,2.43,0,0-.09,0-.09-.05s1.88-1.79,2.22-2.16c1.62-1.76,3.55-4.62,3.55-5.12a.49.49,0,0,0-.45-.48c-.81,0-2,0-2.66.06l-.81.08c-.08,0-.14,0-.25-.19l-.53-.65c-.11-.14-.11-.14-.11-.17a.09.09,0,0,1,.08-.08c.17,0,1,.08,1.23.11.81,0,2.27.09,3.84.09h9a5,5,0,0,0,1.4-.09c.28-.14,1.23-1.51,1.56-1.51s2.22,1.54,2.22,2-.37.39-1.15.39h-9.3c-1.09,0-1.45,0-2.24,1.26-.08.14-.75,1.18-.75,1.21,0,.33.3.33.47.33h8.71a1.32,1.32,0,0,0,.9-.31c.14-.11.61-.78.81-.78.36,0,2.15,1.18,2.15,1.74,0,.19-.19.36-.61.67-.23.16-.31.28-.31.87,0,1.82-.14,8.59-4.56,8.59a.81.81,0,0,1-.68-.25c-.08-.14-.3-.87-.36-1a24.61,24.61,0,0,0-1.68-2,.1.1,0,0,1,.11-.09c.11,0,.7.25.84.28a10,10,0,0,0,2.44.51.9.9,0,0,0,.89-.56,13.59,13.59,0,0,0,1.07-5.49c0-1,0-1.43-.81-1.43Zm-2.21-14a1.11,1.11,0,0,0,1-.47.67.67,0,0,1,.59-.45c.39,0,2.33,1,2.33,1.57,0,.22-.06.25-.59.64-.28.2-.34.42-.34,1.51,0,.56.09,3.25.09,3.87,0,1.53-1.1,1.68-1.43,1.68-.48,0-.53-.12-.76-.62a.76.76,0,0,0-.75-.37h-6a.79.79,0,0,0-.86.42,1.42,1.42,0,0,1-1.46,1c-.53,0-.7-.33-.7-.95s.06-3.19.06-3.81c0-1.48,0-1.71-.17-3.67,0-.14-.11-.84-.11-1s.22-.23.39-.23a4.17,4.17,0,0,1,1.65.56,2.66,2.66,0,0,0,1.29.28Zm-6,.76c-.81,0-.81.56-.81,1.26s0,1.29.81,1.29h6.33c.81,0,.81-.56.81-1.26s0-1.29-.81-1.29Zm0,3.3c-.81,0-.81.48-.81,1.09,0,1.07,0,1.49.84,1.49h6.13c.89,0,.89-.53.89-1.85,0-.73-.61-.73-.84-.73Z"/><path class="cls-2" d="M162,335.44c0,1.38.09,1.5,1.17,1.53v.38H159.5V337c1.07,0,1.16-.13,1.16-1.53v-7.06c0-1.4-.08-1.49-1.16-1.53v-.38h3.69v.38c-1.09,0-1.17.13-1.17,1.53v3h5.67v-3c0-1.4-.07-1.49-1.17-1.53v-.38h3.69v.38c-1.08,0-1.15.13-1.15,1.53v7.06c0,1.38.09,1.5,1.15,1.53v.38h-3.69V337c1.08,0,1.17-.15,1.17-1.53v-3.6H162Z"/><path class="cls-2" d="M174.14,330.57a3.61,3.61,0,0,1,2.61-1c2.19,0,3.63,1.55,3.63,3.9,0,2.51-1.44,4.08-3.72,4.08a3.53,3.53,0,0,1-3.61-3.87A4.48,4.48,0,0,1,174.14,330.57Zm2.57,6.61c1.47,0,2.28-1.27,2.28-3.58s-.84-3.69-2.31-3.69-2.24,1.27-2.24,3.57S175.27,337.18,176.71,337.18Z"/><path class="cls-2" d="M185.38,335.22c0,.88,0,1.27.19,1.48a.84.84,0,0,0,.74.32,1.78,1.78,0,0,0,.94-.27l.14.39a3.28,3.28,0,0,1-1.52.37,1.62,1.62,0,0,1-1.54-.73c-.17-.3-.21-.63-.21-1.74v-4.86h-1v-.35c.89-.07,1.34-.66,1.56-2.07l.69-.19c0,.64,0,1.21,0,2.2h1.8v.41h-1.8Z"/><path class="cls-2" d="M196.48,335h.46a2.43,2.43,0,0,0,.42,1.39,1.92,1.92,0,0,0,1.64.81c1,0,1.63-.52,1.63-1.41a1.16,1.16,0,0,0-.36-.87,6.14,6.14,0,0,0-1.68-.84c-1.62-.7-2.11-1.24-2.11-2.26a2.4,2.4,0,0,1,.4-1.38,2.33,2.33,0,0,1,1.86-.86,6.62,6.62,0,0,1,1.4.18l.31,0a3.29,3.29,0,0,0,.72-.1L201.1,332h-.5c0-1.34-.69-2.13-1.78-2.13a1.35,1.35,0,0,0-1.53,1.33.93.93,0,0,0,.4.81,7.35,7.35,0,0,0,1.56.78,4.44,4.44,0,0,1,1.73,1,2.11,2.11,0,0,1,.49,1.43,2.14,2.14,0,0,1-2.32,2.26,7.65,7.65,0,0,1-1.5-.18,3.87,3.87,0,0,0-.56,0,4,4,0,0,0-.67.06Z"/><path class="cls-2" d="M206.41,330.9a2.78,2.78,0,0,1,2.46-1.34c1.92,0,3.07,1.43,3.07,3.78a5.18,5.18,0,0,1-.84,3,3,3,0,0,1-2.47,1.15,2.86,2.86,0,0,1-2.22-1v2.19c0,1.39.07,1.48,1.15,1.53v.34H204.1v-.34c1,0,1.09-.14,1.09-1.53v-7.25c0-1.12-.18-1.35-1-1.35v-.33l2.25-.16Zm2.1,6.18c1.36,0,2-1.2,2-3.57s-.63-3.53-1.91-3.53a2,2,0,0,0-1.71,1,5,5,0,0,0-.58,2.62C206.35,335.91,207.08,337.08,208.51,337.08Z"/><path class="cls-2" d="M217,329.61c0,.75,0,.94,0,1.26v.48a2.56,2.56,0,0,1,2.19-1.79,1,1,0,0,1,1.14.93c0,.38-.31.62-.79.62s-.47-.09-.56-.38-.18-.42-.42-.42a1.46,1.46,0,0,0-1.12.9,3.92,3.92,0,0,0-.41,1.91v2.35c0,1.41.08,1.52,1.08,1.55v.33h-3.43V337c1,0,1.09-.15,1.09-1.55v-4c0-1.12-.18-1.35-1-1.35v-.33Z"/><path class="cls-2" d="M224.86,329.61c-.05.87-.09,2.17-.09,2.8v3.06c0,1.4.07,1.52,1.08,1.55v.33h-3.42V337c1,0,1.11-.15,1.11-1.55v-4c0-.75-.06-1.1-.23-1.23s-.36-.14-.88-.14v-.33Zm-.75-3.18a.85.85,0,1,1-.86.84A.84.84,0,0,1,224.11,326.43Z"/><path class="cls-2" d="M230.63,331.15a2.7,2.7,0,0,1,2.64-1.59,2.1,2.1,0,0,1,2,.93,3.29,3.29,0,0,1,.39,1.88v3.1c0,1.41.07,1.52,1.09,1.55v.33h-3.4V337c.49,0,.76-.08.88-.23a.77.77,0,0,0,.15-.49c0-.17.05-.72.05-.83v-3a4,4,0,0,0-.24-1.62,1.33,1.33,0,0,0-1.32-.8,1.91,1.91,0,0,0-1.7,1,3.67,3.67,0,0,0-.51,1.83v2.59c0,1.41.08,1.52,1.1,1.55v.33h-3.42V337c1,0,1.09-.15,1.09-1.55v-4c0-1.12-.18-1.35-1-1.35v-.33l2.26-.16Z"/><path class="cls-2" d="M244.64,330.28a2.71,2.71,0,0,1,.86,2c0,1.59-1.17,2.61-3,2.61a4.73,4.73,0,0,1-1.32-.18c-.56.3-.78.56-.78.9,0,.57.39.75,1.65.75h1a8,8,0,0,1,1.92.15,1.56,1.56,0,0,1,1.24,1.62,2.2,2.2,0,0,1-1.12,1.86,5.23,5.23,0,0,1-2.66.57,4.82,4.82,0,0,1-2.32-.46,1.49,1.49,0,0,1-.81-1.46c0-.63.12-.78,1.05-1.38a1.38,1.38,0,0,1-1-1.32c0-.42.14-.61.72-1l.59-.39a2.73,2.73,0,0,1-.75-.64,2.45,2.45,0,0,1-.48-1.55,2.64,2.64,0,0,1,1.17-2.34,3.61,3.61,0,0,1,1.84-.45,5,5,0,0,1,1,.11,5.22,5.22,0,0,0,.94.09c.38,0,.83,0,1.64-.05v.57Zm-4.27,8.24c0,1.11.79,1.69,2.32,1.69s2.6-.66,2.6-1.71c0-.63-.35-1-1.16-1.09a12.35,12.35,0,0,0-1.71-.06c-.52,0-1.42,0-1.44,0C240.56,337.53,240.37,337.89,240.37,338.52Zm.79-4.67a1.54,1.54,0,0,0,1.37.72c1.09,0,1.68-.79,1.68-2.28s-.57-2.38-1.68-2.38-1.71.76-1.71,2.26A3.63,3.63,0,0,0,241.16,333.85Z"/><path class="cls-1" d="M84.47,15.76a15.55,15.55,0,0,0,5.44-1.55,8.61,8.61,0,0,0,2.46-1.8,18.92,18.92,0,0,0-3.67-1.17c-.23.37-.36.57-.72,1.11-.11.11-.18.15-.25.15h0l-.45-.08c-.49,0-.54-.07-.56-.25A35.2,35.2,0,0,0,89.24,7.8H85.62a10.46,10.46,0,0,0-1.4.14L84,7.15a6.28,6.28,0,0,0,1.56.23h3.84A21.82,21.82,0,0,0,91,3.53a17.23,17.23,0,0,1,1.83.54c.09,0,.13.09.13.16s-.11.22-.94.38c-.5,1.22-.72,1.68-1.26,2.77h7.1c.45-.59.59-.75,1-1.33.76.65,1,.86,1.78,1.57a.14.14,0,0,1,.06.09s-.07.09-.18.09H96.33a11.85,11.85,0,0,1-1.27,3.08,12.08,12.08,0,0,1-1,1.33A24.23,24.23,0,0,1,98.31,14,1.3,1.3,0,0,1,99,15.36c0,.36-.12.72-.27.72s-.1,0-.57-.38a30.52,30.52,0,0,0-3.08-2,16.36,16.36,0,0,0-1.62-.8,8.66,8.66,0,0,1-3,2,14.08,14.08,0,0,1-6,1.17ZM91.74,2.4v-1c0-.7,0-.83,0-1.35,1.58.2,2,.31,2,.49s-.22.25-.74.39V2.4h5.26c.32-.44.41-.56.77-1a10.6,10.6,0,0,1,1.73,1.4c.09.09.13.14.13.2s-.16.16-1.17.3c-1,.87-1.26,1.07-2.27,1.86L97.27,5a17.37,17.37,0,0,0,1.08-2.23H86.43a6.63,6.63,0,0,1-.58,2.05C85.58,5.38,85,6,84.77,6s-.64-.67-.64-1.22c0-.24.07-.35.34-.51a3.73,3.73,0,0,0,1-1c.29-.44.31-.47.79-2.22h.22c0,.74,0,1,0,1.41Zm-1.2,5.4c-.54,1.08-1.17,2.28-1.64,3.09l1.38.29a25.94,25.94,0,0,1,2.61.65A10.49,10.49,0,0,0,95,7.8Z"/><path class="cls-1" d="M84,27.18a13.4,13.4,0,0,0,1.4.13h1.21c.25-.33.34-.43.63-.76a10.33,10.33,0,0,1,1.15.85c.07.07.09.11.09.16s0,.13-.59.47v4.32A3.16,3.16,0,0,0,89,33.75c.68.44,1.94.62,4.23.62,1.91,0,6.16-.16,7.83-.29l0,.29a1.17,1.17,0,0,0-.8.43,1,1,0,0,0-.25.61v.2l-2.75,0c-.38,0-1.48,0-3.24,0-2.94,0-4.38-.36-5.42-1.33a4.73,4.73,0,0,1-1.16-1.84A29.08,29.08,0,0,1,85.31,35v.49q0,.45-.21.45a.37.37,0,0,1-.2-.11,3,3,0,0,1-.41-.81c-.09-.22-.24-.56-.44-1,.22-.13.22-.13,1.3-.69a8.32,8.32,0,0,0,1.33-.88v-4.7H85.31c-.16,0-.81.07-1.17.13Zm.81-6.84a14.46,14.46,0,0,1,2.36,1.75,1.46,1.46,0,0,1,.52,1.15c0,.54-.34,1.21-.63,1.21a.45.45,0,0,1-.36-.22,2.54,2.54,0,0,1-.22-.58,10.7,10.7,0,0,0-1.91-3.15Zm10,8.46H97a13.12,13.12,0,0,1,1-1.08c.63.56.81.72,1.35,1.24,0,0,.06.06.06.08a.19.19,0,0,1-.18.18H94.86v1.89H98c.43-.49.6-.65,1.12-1.17.66.56.86.74,1.49,1.35,0,.05,0,.07,0,.11s-.09.12-.22.12H94.86c0,1.28,0,1.28,0,2,0,.16-.08.24-.2.27a4.66,4.66,0,0,1-.89.07c-.14,0-.19-.05-.19-.21,0-.52,0-.52,0-1.48l0-.63H90.07a5.8,5.8,0,0,0-1.33.11L88.48,31c.56,0,1.44.11,1.59.11h3.56V29.22H91.09a9.22,9.22,0,0,0-1,.12l-.25-.7c.18,0,.59.09,1.27.16h2.54V27H90.27l-1,.07-.18-.64.38.07a4.2,4.2,0,0,0,.83.09h1.87c-.2-.13-.22-.16-.36-.9a4.89,4.89,0,0,0-.56-1.41l.14-.1H89.73a5.11,5.11,0,0,0-1,.09l-.17-.6a9.87,9.87,0,0,0,1.16.09h3.9V22H90.54a5.75,5.75,0,0,0-1.1.09l-.22-.63a13.21,13.21,0,0,0,1.32.13h3.09v-.33c0-.41,0-.41,0-.72s0-.39,0-.73c.38.05.69.11.86.12.91.13,1,.18,1,.36s-.11.24-.61.33v1H97c.45-.49.59-.63,1-1.15.67.54.87.7,1.5,1.28.07.07.11.12.11.18s-.06.1-.24.1H94.86v1.73h3l1.1-1.15,1.53,1.33c.05.06.11.11.11.13s-.1.11-.2.11H96.32c1.27.43,1.47.52,1.47.64s0,.13-.77.18a15,15,0,0,1-1.64,1.59h2.09c.32-.34.65-.72,1-1.1.66.54.86.7,1.49,1.28a.2.2,0,0,1,.07.11c0,.07-.09.12-.21.12h-5Zm-3.37-4.62a1.14,1.14,0,0,1,.16.14l.42.38c.63.52.79.74.79,1a1.3,1.3,0,0,1-.51.88h2.56a8.16,8.16,0,0,0,1.14-2.41Z"/><path class="cls-1" d="M92.8,44.91a13,13,0,0,0,1.93,4.4,12.24,12.24,0,0,0,3.73,3.56,11.21,11.21,0,0,0,2.63,1.21l-.08.25c-.77,0-1,.25-1.53,1.21a14.13,14.13,0,0,1-3.58-3.16,16.16,16.16,0,0,1-3.44-7.47h0a12.7,12.7,0,0,1-6.36,9.76,13.42,13.42,0,0,1-2,1l-.17-.29a13.54,13.54,0,0,0,7.28-10.46h-5a12.15,12.15,0,0,0-1.6.11l-.12-.72a8.27,8.27,0,0,0,1.83.2h5c.09-1.1.16-2.68.16-3.73a5.51,5.51,0,0,0-.09-1.12c1.93.18,1.93.18,2.09.26s.2.12.2.21-.2.31-.83.52c-.11,1.88-.16,2.65-.29,3.86h5.32c.43-.61.57-.79,1.08-1.42a16.07,16.07,0,0,1,1.8,1.45.55.55,0,0,1,.09.24c0,.07-.11.14-.26.14Zm-2,6a11.69,11.69,0,0,1,2.63,1.58,1.26,1.26,0,0,1,.62,1.08,1.92,1.92,0,0,1-.29,1,.38.38,0,0,1-.33.24c-.16,0-.2,0-.52-.61a10.8,10.8,0,0,0-1.08-1.72,7.3,7.3,0,0,0-1.19-1.35Z"/><path class="cls-1" d="M92.08,68.24a8,8,0,0,0,2.09,3.19,9.65,9.65,0,0,0,2.29-1.64,6.56,6.56,0,0,0,1.31-1.3c1.46.71,1.73.85,1.73,1s-.14.22-.36.22a1,1,0,0,1-.21,0,3.15,3.15,0,0,1-.38,0l-1.28.72A21.26,21.26,0,0,1,95,71.46l-.54.26a5.8,5.8,0,0,0,1.75,1.08,15.09,15.09,0,0,0,4.23,1.2l0,.22c-.88.25-1,.36-1.44,1.3A14.15,14.15,0,0,1,95.4,73.7a9.77,9.77,0,0,1-3.3-4.23,13,13,0,0,1-.43-1.23H88.61v5a36,36,0,0,0,4.32-1.06l.07.23A25.92,25.92,0,0,1,89.13,74c-2.11.7-2.34.79-3.11,1.06a1.3,1.3,0,0,0-.06.32c0,.35-.11.49-.27.49s-.41-.54-.79-2a15.19,15.19,0,0,0,2.47-.38v-9.6c0-1.08,0-2.23-.06-2.84a15,15,0,0,1,1.46.84h3v-1c0-.77-.09-1.21-.11-1.31,1.62.12,2.15.23,2.15.45s-.18.25-.78.45v1.45h3a5.57,5.57,0,0,1,.65-.82c.52.38.68.5,1.21.93.09.09.12.15.12.18s-.18.27-.65.58l0,3c0,2.11,0,2.11,0,2.66,0,.35,0,.35-1,.4-.11,0-.17-.07-.2-.23v-.31Zm4-3.51V62.3H88.61v2.43Zm-7.51.41v2.69h7.51V65.14Z"/><path class="cls-1" d="M86.68,93.62v1.21c0,.25-.12.31-.66.34a1.58,1.58,0,0,0-.35,0h0c-.2,0-.27-.07-.27-.25.07-2.29.09-3.86.09-6.63,0-2.57,0-4.07-.07-5.29,1.72.25,1.94.32,1.94.5s-.11.24-.65.42v9.27H91.6V81.79c0-.54,0-1.6-.06-2.1a7.73,7.73,0,0,1,2,.3c.11.06.18.13.18.2s-.09.18-.79.4l0,12.62h5.24V85A10.81,10.81,0,0,0,98,83.09c.41,0,.74.09.94.13.91.09,1.2.18,1.2.36s-.18.28-.74.48l0,5.22c0,1,0,1.86.07,5.66,0,.25-.13.3-.67.34a1.38,1.38,0,0,0-.32,0h0c-.19,0-.27-.07-.27-.26V93.62Z"/><path class="cls-1" d="M89.06,105.21a13.74,13.74,0,0,0-2.34.94,1,1,0,0,1-.52.2,1.38,1.38,0,0,1-.8-.54,2.93,2.93,0,0,1-.59-1.37,1.28,1.28,0,0,1,.11-.4c.38.76.7,1,1.37,1a18.68,18.68,0,0,0,3.06-.63,10.25,10.25,0,0,0,.74-3c0-.56-.35-.86-1.39-1.21a.84.84,0,0,1,.54-.18,4.77,4.77,0,0,1,1.21.24c.81.23,1.26.56,1.26.93,0,.15,0,.22-.26.53a16.79,16.79,0,0,0-1.15,2.44,6.22,6.22,0,0,1,1.57-.21c1.55,0,2.29.92,2.29,2.81,0,2.3-.92,5.29-2,6.46a2.53,2.53,0,0,1-1.73.81c-.3,0-.45-.12-.48-.41-.06-.51-.09-.54-2-2.11l.16-.23a9.11,9.11,0,0,0,2.79,1.24c.42,0,.7-.38,1.17-1.51a14,14,0,0,0,1.07-4.85c0-1.2-.33-1.64-1.28-1.64a6,6,0,0,0-1.89.38l-1,2.45c-.07.18-.43,1-1.06,2.52-.72,1.69-1.31,3-1.6,3.49-.13.24-.27.35-.44.35s-.52-.47-.52-1.25a1.18,1.18,0,0,1,.42-1,12.32,12.32,0,0,0,1.33-2.13c.68-1.33.68-1.33,1.44-3Zm7-1.15a6.29,6.29,0,0,1,3.3,2.16,4.26,4.26,0,0,1,1,2.56c0,.61-.27,1-.72,1a.67.67,0,0,1-.41-.13,1.19,1.19,0,0,0-.74-.18,15.18,15.18,0,0,0-2.25.17l-.07-.26c1.82-.56,2.19-.68,2.75-.91a4.44,4.44,0,0,0-.56-1.73,5.17,5.17,0,0,0-2.46-2.4Z"/><path class="cls-1" d="M90.18,119.3a3.71,3.71,0,0,0,2.28,1.59c.34.11.88.25,1.3.34a1.15,1.15,0,0,1,.74.45,1.31,1.31,0,0,1,.39.79.39.39,0,0,1-.43.38l-.38,0a5.44,5.44,0,0,0-.88-.06,15.23,15.23,0,0,0-3.44.51,1.84,1.84,0,0,0-.83.32.73.73,0,0,0-.19.49,1.78,1.78,0,0,0,.1.52,1.45,1.45,0,0,1,.13.58c0,.09,0,.25,0,.57-.13,1-.26,2.45-.29,3.66a11.29,11.29,0,0,1,5.87-2.24c2,0,3.44,1.18,3.44,2.81s-1.3,3.07-3.55,3.84a13.23,13.23,0,0,1-4.09.7l0-.29a10.33,10.33,0,0,0,4.52-1.6,3.49,3.49,0,0,0,1.8-2.92,2,2,0,0,0-2.18-2,7.16,7.16,0,0,0-4.3,2,4.21,4.21,0,0,0-1,1.14c-.17.27-.3.36-.5.36s-.5-.18-.79-.6a2.11,2.11,0,0,1-.38-.91s0-.17.06-.29a8.46,8.46,0,0,0,.19-1.08c0-.36.13-.87.22-1.5a20.94,20.94,0,0,0,.34-2.37c0-.63.06-.8.29-1a4.47,4.47,0,0,1,1.85-.83,17.37,17.37,0,0,0,2.13-.68,5.7,5.7,0,0,1-1.64-1,3.76,3.76,0,0,1-.92-1.44Z"/><path class="cls-1" d="M84.27,142.74c2.23,1,2.86,1.41,2.86,2,0,.48-.32,1.08-.57,1.08s-.22-.11-.36-.38a6.19,6.19,0,0,0-.8-1.19A6.76,6.76,0,0,0,84.14,143Zm.25,6.59a5.75,5.75,0,0,0,1.06.24c.2,0,.33-.2.65-1,.2-.45.54-1.26,1-2.36s.77-1.73,1.85-4.12l.29.16-2.5,7.35a4.91,4.91,0,0,0-.2.84,4.82,4.82,0,0,0,.29,1.39,5.81,5.81,0,0,1,.18,1.3,1.29,1.29,0,0,1-1.14,1.4.42.42,0,0,1-.48-.45,6.08,6.08,0,0,1,.18-1.2,7,7,0,0,0,.14-1.25c0-1.08-.25-1.42-1.44-2ZM85.6,139a12.78,12.78,0,0,1,2.16,1c.49.27.71.57.71.91,0,.51-.33,1.1-.62,1.1-.14,0-.19-.05-.57-.66a10.62,10.62,0,0,0-1.8-2.2ZM95,148a11.35,11.35,0,0,1-.31,1.6h3.73c.25-.27.46-.52.7-.76l1,.76c.11.11.14.16.14.23s-.09.18-.48.45c-.4,3.86-.56,4.11-2.74,4.41-.07-.63-.2-.82-.65-1a9.59,9.59,0,0,0-2-.38v-.32c1.44.14,2.54.23,3.15.23a.78.78,0,0,0,.66-.32,7.79,7.79,0,0,0,.47-2.92H94.53a6.11,6.11,0,0,1-1.87,2.78c-1.15,1-2.39,1.45-5.22,2l-.07-.34c3.33-.8,5.09-2.11,6-4.47H89.73a7.76,7.76,0,0,0-1.26.11l-.15-.67a5.81,5.81,0,0,0,1.41.15h3.79a7.88,7.88,0,0,0,.31-1.6h-3v.37c0,.18-.18.24-.88.24-.2,0-.25-.06-.25-.22,0-1.82,0-2,0-2.5,0-1.57,0-2.88,0-3.58.52.32.68.41,1.2.75h4a1.67,1.67,0,0,1-.23-.23,8.5,8.5,0,0,0-2.52-2l.07-.18a17,17,0,0,1,3,1A13.5,13.5,0,0,0,97.07,140H91a9.56,9.56,0,0,0-1.51.09l-.15-.63a9.75,9.75,0,0,0,1.66.12h6.21a9.2,9.2,0,0,1,.81-.73,15.55,15.55,0,0,1,1.3.92c.16.12.23.21.23.27s0,.1-.11.14-.12,0-1,.13a18.13,18.13,0,0,1-3,1.67.71.71,0,0,1,.15.41,1,1,0,0,1-.29.74h3c.33-.38.33-.38.63-.75.51.36.51.36,1,.66.13.11.18.18.18.24s0,.16-.53.52v1.51c0,.67,0,.72,0,3,0,.15,0,.2-.14.25a2.21,2.21,0,0,1-.81.13c-.16,0-.24,0-.25-.16V148Zm-1.12-4.52h-3v1.76h3Zm-3,2.18v1.92h3V145.7Zm7.53-.42v-1.76H95v1.76ZM95,147.62h3.41V145.7H95Z"/><path class="cls-1" d="M86.65,161.93a3.58,3.58,0,0,0,2.39.81A9.66,9.66,0,0,0,92,162.2a7.68,7.68,0,0,0-1.54-2,3.21,3.21,0,0,0-1.39-.38c.13-.3.23-.36.72-.46a2.78,2.78,0,0,1,.83-.09,2.18,2.18,0,0,1,1.22.23c.16.14.18.2.22.7s0,.36.74,1.78c1.65-.61,2.09-.82,2.57-1.33a.82.82,0,0,1,.58-.18c.7,0,1.06.17,1.06.47s-.23.4-1.17.79c-.29.13-1.17.43-2.65.9l.4.67c.11.18.39.68.88,1.48a13.5,13.5,0,0,0,2.23-1,6.26,6.26,0,0,0-.93-.85l.12-.18a3.78,3.78,0,0,0,1.52.5l.32,0a.39.39,0,0,1,.14,0,.45.45,0,0,1,.49.45c0,.43-1,1-3.49,1.85.56,1,.64,1.12.81,1.41.41.74.41.74.83,1.42a1.75,1.75,0,0,1,.3,1c0,.71-.23,1.17-.59,1.17-.16,0-.22,0-.51-.27A7.21,7.21,0,0,0,91.53,169a4.85,4.85,0,0,0-2.25.51,1.6,1.6,0,0,0-1.08,1.45c0,1.12,1.18,1.71,3.4,1.71a8.73,8.73,0,0,0,2.27-.25l.21,0c.54,0,1.19.5,1.19.95a.37.37,0,0,1-.27.34,8.85,8.85,0,0,1-2.47.27,9.26,9.26,0,0,1-3.45-.54,2.58,2.58,0,0,1-1.75-2.27c0-1.62,1.91-2.7,4.75-2.7a14.94,14.94,0,0,1,3.39.4,17.87,17.87,0,0,0-1.35-3.06,13.24,13.24,0,0,1-3.84.68,3.1,3.1,0,0,1-1.87-.52,2.53,2.53,0,0,1-.86-1.08l.21-.16a2.36,2.36,0,0,0,2.13,1.06,13.89,13.89,0,0,0,3.85-.68c-.38-.71-.85-1.52-1.26-2.16a11.93,11.93,0,0,1-3.35.57,3.44,3.44,0,0,1-2.63-1.31Z"/><path class="cls-1" d="M91.67,180.49c0-.88,0-1-.07-2.18,1.87.2,2.09.25,2.09.5s-.17.25-.71.42V185H97.4v-3.23c0-.43,0-.54,0-1.31,0-.38,0-.38,0-.74,1.75.22,2,.27,2,.49s-.12.23-.63.39c0,2.27,0,2.27,0,2.79s0,1.34,0,2.63c0,.24,0,.27-.2.33a7,7,0,0,1-.79,0c-.23,0-.3,0-.3-.3v-.69H93v7.37h5.17v-3.28c0-.69,0-1.41-.07-1.89,1.75.21,2,.27,2,.48s-.2.29-.63.4v1.06c0,1.14,0,2.58.07,4.63,0,.18,0,.23-.21.27a3.29,3.29,0,0,1-.71.07c-.36,0-.41,0-.43-.25V193.2H86.7v1c0,.18-.07.25-.27.29s-.5.05-.68.05-.4-.07-.4-.27v0c.09-1.48.11-2.15.11-3.59,0-1.29,0-2-.09-3,2,.28,2,.28,2,.51s-.05.18-.7.4v4.25h5v-7.37H87.48v.69c0,.18-.06.23-.17.28a3.88,3.88,0,0,1-.79.07c-.25,0-.32-.07-.32-.28l0-2.65c0-2.12,0-3.28-.07-3.8a8.93,8.93,0,0,1,2,.29.26.26,0,0,1,.07.16c0,.18,0,.18-.77.45V185h4.19Z"/><path class="cls-1" d="M93.87,200.49c-.7.21-2.4.88-3.64,1.42a2.1,2.1,0,0,1-.74.23c-.32,0-.68-.25-1-.75a2.56,2.56,0,0,1-.51-1.34.75.75,0,0,1,.16-.46c.27.84.76,1.31,1.35,1.31a19.7,19.7,0,0,0,3.41-.78,2.29,2.29,0,0,0,1.11-.55.43.43,0,0,1,.26-.09c.23,0,.52.18,1,.63s.54.59.54.81-.09.23-.31.34A4.91,4.91,0,0,0,94,202.47c-1.14,1.13-1.8,1.8-2.65,2.7C89.58,207,89.58,207,89.2,207.4l0,0a9,9,0,0,1,4.9-1.72c2.3,0,3.85,1.36,3.85,3.37,0,2.58-2.4,4.49-5.65,4.49-1.77,0-2.9-.71-2.9-1.8,0-.89.83-1.54,1.94-1.54a3.33,3.33,0,0,1,2.29.89,3.68,3.68,0,0,1,.79,1.11,3.53,3.53,0,0,0,2.18-3.36,2.51,2.51,0,0,0-1.12-2.24,4.05,4.05,0,0,0-1.78-.36c-1.76,0-4.23,1.44-5.73,3.35-.3.38-.43.49-.61.49s-.59-.63-.59-1.17a.82.82,0,0,1,.38-.63,17.06,17.06,0,0,0,2.5-2.51c2.2-2.46,2.88-3.25,4.3-5.09.15-.2.15-.2.18-.29s0,0,0,0h-.07l-.09,0Zm-2.78,10.33c-.68,0-1.13.36-1.13.92s.79,1.1,2.05,1.1a5,5,0,0,0,1.28-.16A2.36,2.36,0,0,0,91.09,210.82Z"/><path class="cls-1" d="M58.13,7V2.69H49.2V1.91h9.71V7Z"/><path class="cls-1" d="M50.86,21.6a5.89,5.89,0,0,0,2.41,2.27,12.28,12.28,0,0,0,5.58,1.41v.23a1.61,1.61,0,0,0-1.24,1.33,11,11,0,0,1-3.82-1.46,8.49,8.49,0,0,1-3.29-3.67,6.22,6.22,0,0,1-1.71,2.72A10.89,10.89,0,0,1,42.31,27l-.09-.25a11.33,11.33,0,0,0,4.86-2.23,6.62,6.62,0,0,0,2.07-2.92H44.56a13.88,13.88,0,0,0-1.75.11l-.18-.7a12.94,12.94,0,0,0,1.91.18h4.73a5.05,5.05,0,0,0,.2-1.35c0-.13,0-.31,0-.56,1.71.25,2,.34,2,.52s-.19.27-.61.33a10.41,10.41,0,0,1-.16,1.06h5.08a14.68,14.68,0,0,1,1-1.12c.7.51.9.69,1.58,1.24a.74.74,0,0,1,.13.19.11.11,0,0,1-.09.1H50.86Zm.56-8.22a13.13,13.13,0,0,0,1.49-2.78c1.57.49,1.93.63,1.93.79s-.24.26-.9.29a20.47,20.47,0,0,1-2,1.7h3.51c.43-.49.56-.65,1-1.1.67.52.86.68,1.53,1.24a.31.31,0,0,1,.07.16c0,.07-.09.11-.21.11h-7V16h3.55c.4-.48.52-.65,1-1.1l1.5,1.23a.49.49,0,0,1,.11.14c0,.09-.11.15-.26.15H50.82v2.17H56l.94-1.08c.68.51.9.65,1.53,1.18.11.08.14.14.14.19s-.11.13-.23.13H44.27l-1,0c-.34,0-.34,0-.74.07l-.13-.72a8.76,8.76,0,0,0,1.86.18H49.6V16.44H46.16a7.61,7.61,0,0,0-1.57.1l-.12-.68a8.29,8.29,0,0,0,1.69.16H49.6V13.79H45.11a10.93,10.93,0,0,0-1.69.09l-.12-.68a10.78,10.78,0,0,0,1.71.18h2.88c-.09-.11-.09-.11-.24-.53a6.34,6.34,0,0,0-1.36-2l.16-.18a6.55,6.55,0,0,1,1.67.95c.43.34.6.56.6.9a1.36,1.36,0,0,1-.36.89Z"/><path class="cls-1" d="M42.25,46.39a14,14,0,0,0,3.44-3.18A17.31,17.31,0,0,0,49,35.89,20.3,20.3,0,0,0,49.36,32c0-.36,0-.56,0-1,2,.25,2.18.3,2.18.48s-.07.18-.78.47c0,.25,0,.4,0,.56a14.77,14.77,0,0,0,2.54,7.94,12.57,12.57,0,0,0,3.65,3.47,9.33,9.33,0,0,0,2,1l0,.21H58.8a1.12,1.12,0,0,0-.92.36,3.13,3.13,0,0,0-.52.9A13.18,13.18,0,0,1,53.06,42,19.93,19.93,0,0,1,51,37a13.8,13.8,0,0,1-.44-2.61,17.24,17.24,0,0,1-2.88,7.8,13.12,13.12,0,0,1-5.25,4.42Z"/><path class="cls-1" d="M50.25,65.09a8.16,8.16,0,0,0,4.21-2.5,6.42,6.42,0,0,0,1.6-4.34,4.47,4.47,0,0,0-2-4,6,6,0,0,0-3.12-.83,3.78,3.78,0,0,0-.63,0A2.36,2.36,0,0,1,50.84,55c0,1.41-1,4-2.38,6.23-1.13,1.8-2,2.69-2.68,2.69a1.07,1.07,0,0,1-.79-.38,3.7,3.7,0,0,1-.51-1.15,11.08,11.08,0,0,0-.79-1.7A3.4,3.4,0,0,1,43.28,59a5.62,5.62,0,0,1,1.62-3.57,8.72,8.72,0,0,1,6.19-2.52,6.83,6.83,0,0,1,4.65,1.66,5.5,5.5,0,0,1,1.73,4.23,6.19,6.19,0,0,1-3.59,5.45,10.66,10.66,0,0,1-3.51,1.12Zm-5.93-5.6A4.21,4.21,0,0,0,45,61.87c.25.32.49.52.69.52.39,0,1.26-1,2.14-2.37,1.33-2.13,2.29-4.45,2.29-5.57a2,2,0,0,0-.26-.9C46.77,54.11,44.32,56.72,44.32,59.49Z"/><path class="cls-1" d="M42.2,74.45c2.1.81,2.77,1.28,2.77,2,0,.56-.29,1.08-.59,1.08s-.27-.11-.42-.41a8.22,8.22,0,0,0-1.87-2.49ZM42.36,81a9.66,9.66,0,0,0,1,.16c.29,0,.38-.14,1.16-1.76.57-1.23.84-1.84,1.69-3.78l.9-2,.25.13L44.83,81.4c-.22.56-.24.63-.24.79A5.19,5.19,0,0,0,45,83.72a3.17,3.17,0,0,1,.18,1,1.6,1.6,0,0,1-.34,1.06,1.27,1.27,0,0,1-.95.47c-.27,0-.4-.12-.4-.39a5.38,5.38,0,0,1,.13-1.08,11.6,11.6,0,0,0,.14-1.72,1.68,1.68,0,0,0-.32-1.18,2.5,2.5,0,0,0-1.08-.62Zm1-10.46a7,7,0,0,1,2.32,1.19,1.05,1.05,0,0,1,.52.86c0,.54-.27,1.08-.54,1.08s-.29-.09-.54-.56a10.8,10.8,0,0,0-1.85-2.41Zm12.13,9.76a12.36,12.36,0,0,1-2.07,2.81,17.12,17.12,0,0,1-2.92,2.25,12.49,12.49,0,0,1-2.08.92l-.15-.22a15.6,15.6,0,0,0,4-3.17,12.22,12.22,0,0,0,1.93-2.59H52.53a17.86,17.86,0,0,1-1.76,2,13.53,13.53,0,0,1-4.34,2.85L46.29,85a14.93,14.93,0,0,0,4-3.35,9.51,9.51,0,0,0,.92-1.29H49.42a11.21,11.21,0,0,1-4,3l-.12-.23a12.54,12.54,0,0,0,3.4-3.46,11.74,11.74,0,0,0,.85-1.42H47.31a4,4,0,0,0-.86.09l-.11-.67a3.11,3.11,0,0,0,1,.16h8.88l1-1.1c.65.51.85.67,1.48,1.21a.34.34,0,0,1,.09.18c0,.06-.09.13-.18.13H50.84a10.72,10.72,0,0,1-1.08,1.65h6.66a8.74,8.74,0,0,1,.67-.7,11.8,11.8,0,0,1,1,.79c.13.13.18.18.18.26s-.09.16-.61.43a16.44,16.44,0,0,1-1,4.61,2.38,2.38,0,0,1-2.13,1.19c-.11-.56-.2-.72-.5-.9A5.87,5.87,0,0,0,52.39,85l0-.23,1.39.17c.2,0,1,.09,1.22.09.36,0,.53-.14.71-.64a18.09,18.09,0,0,0,.66-4.07Zm-5.83-3.4c0,.23-.13.27-.76.27-.3,0-.39-.06-.39-.22v0c0-2.47,0-2.47,0-3.7,0-1.89,0-2,0-2.8a12.21,12.21,0,0,1,1.26.81h5a9.73,9.73,0,0,1,.69-.74c.43.32.56.41,1,.74.15.1.18.18.18.27s-.05.18-.54.46c0,3,0,3.59.07,4.86,0,.15,0,.2-.14.26a3,3,0,0,1-.79.11c-.22,0-.29-.08-.29-.27v-.49H49.69Zm5.22-5.28H49.69v2h5.22ZM49.69,74v2h5.22V74Z"/><path class="cls-1" d="M42.67,90.41v4.33H51.6v.77H41.89v-5.1Z"/><path class="cls-1" d="M47.74,110.61a5.83,5.83,0,0,1,1.82.34c.36.15.51.33.51.58v0c0,.15,0,.15-.15.47a14.5,14.5,0,0,0-.39,3.66c0,1.06.14,1.33.7,1.33.38,0,.77-.14,2.41-.92a1.58,1.58,0,0,1,.74-.21.87.87,0,0,1,.86.75.56.56,0,0,1-.37.54,9.25,9.25,0,0,1-1.21.38,12.08,12.08,0,0,0-4.5,2,2.9,2.9,0,0,0-1.41,2.3c0,1.3,1,2,3,2a20.83,20.83,0,0,0,4.18-.52,2.15,2.15,0,0,1,.36,0,1,1,0,0,1,1,.88c0,.32-.2.49-.78.59a27.17,27.17,0,0,1-3.45.24,9.13,9.13,0,0,1-3.06-.42,2.85,2.85,0,0,1-2-2.66,4,4,0,0,1,1.77-3A11.57,11.57,0,0,1,50,117.43a1.2,1.2,0,0,1-.86-.27c-.27-.19-.43-.59-.52-1.36-.06-.44-.07-.83-.13-2.18,0-1.53-.07-1.8-.21-2.07s-.54-.53-1.3-.65A.93.93,0,0,1,47.74,110.61Z"/><path class="cls-1" d="M56.49,141.41a8.26,8.26,0,0,1-6.32,3.73,3.26,3.26,0,0,1-3-1.53,6.13,6.13,0,0,1-.51-3c0-1,.06-2.7.15-4.34.1-1.95.12-2.45.12-3.1,0-1.55-.18-1.85-1.46-2.4a.76.76,0,0,1,.51-.18,4.57,4.57,0,0,1,1.62.42c.68.32,1,.68,1,1.06a1.93,1.93,0,0,1-.16.65,55.7,55.7,0,0,0-.94,8.64,2.57,2.57,0,0,0,.72,2.16,2.66,2.66,0,0,0,1.61.49,9.35,9.35,0,0,0,4.1-1.15,11.27,11.27,0,0,0,2.29-1.61Z"/><path class="cls-1" d="M43.87,153.63a1,1,0,0,0,.81.31c.51,0,1-.09,5-1.06.76-.18,1.73-.4,2.92-.63a20.47,20.47,0,0,0,2.43-.58,2.1,2.1,0,0,1,.63-.14,2.48,2.48,0,0,1,1,.37c.36.24.52.43.52.69s-.21.45-.56.45a2.07,2.07,0,0,1-.32,0,2.33,2.33,0,0,0-.5,0,6.38,6.38,0,0,0-6,6,3.65,3.65,0,0,0,2.37,3.55,5.81,5.81,0,0,0,1.84.43.94.94,0,0,1,.76.29,1.6,1.6,0,0,1,.54.86c0,.31-.27.51-.67.51a7.45,7.45,0,0,1-3.66-1.3,4.77,4.77,0,0,1-2.08-4,6.7,6.7,0,0,1,2-4.39,9.24,9.24,0,0,1,2.93-2.06A30.16,30.16,0,0,0,48.54,154a20.1,20.1,0,0,0-2.88,1.16,1.26,1.26,0,0,1-.73.25,2,2,0,0,1-1.38-1.06,2.55,2.55,0,0,1-.47-1.21.74.74,0,0,1,.2-.47A2,2,0,0,0,43.87,153.63Z"/><path class="cls-1" d="M47.65,173c0,2.32-.07,2.55-.18,4H48.7a12.53,12.53,0,0,1,1-1.12,17.54,17.54,0,0,1,1.44,1.26.2.2,0,0,1,.07.13.17.17,0,0,1-.16.14H47.46a11.45,11.45,0,0,1-.37,2.06l.37.19a11.37,11.37,0,0,1,3,2.06,1.21,1.21,0,0,1,.32.84c0,.63-.25,1.21-.52,1.21s-.2-.07-.3-.27a11.77,11.77,0,0,0-1.62-2.34A8,8,0,0,0,47,179.79a9.41,9.41,0,0,1-1.25,2.61,8.56,8.56,0,0,1-3.3,2.74l-.16-.24a8.76,8.76,0,0,0,2.9-3.36,11.86,11.86,0,0,0,1.06-4.15H43.67a7.16,7.16,0,0,0-1.13.09l-.18-.63a7.19,7.19,0,0,0,1.53.13h2.4c.1-1.44.12-1.78.14-4h-1.5a11.56,11.56,0,0,1-2.26,3l-.22-.2a15.53,15.53,0,0,0,2.11-4.3,11.89,11.89,0,0,0,.57-2.24c1.61.33,2,.44,2,.62s-.17.25-.8.32a24,24,0,0,1-1.12,2.34h3.44c.38-.5.5-.66.92-1.15.64.52.82.7,1.44,1.28a.55.55,0,0,1,.09.16.15.15,0,0,1-.15.13Zm8.7-.71a7.19,7.19,0,0,1,.65-.86,9,9,0,0,1,1,.86c.11.09.16.17.16.22s-.09.18-.55.49v6.23s0,2.82.05,4.68c0,.29-.23.38-.88.38-.29,0-.36-.06-.38-.26v-.92h-3.6v1.21c0,.24-.16.29-.79.29-.35,0-.44,0-.47-.25.05-1.87.07-3.19.07-6.07,0-4.68,0-6.16-.07-6.86a12.45,12.45,0,0,1,1.42.86Zm-3.51,10.41h3.6v-10h-3.6Z"/><path class="cls-1" d="M48.18,189.5a3.67,3.67,0,0,0,2.28,1.59c.34.11.88.25,1.3.34a1.15,1.15,0,0,1,.74.45,1.31,1.31,0,0,1,.39.79.39.39,0,0,1-.43.38l-.38-.05a5.44,5.44,0,0,0-.88-.06,15.23,15.23,0,0,0-3.44.51,1.84,1.84,0,0,0-.83.32.73.73,0,0,0-.19.49,1.78,1.78,0,0,0,.1.52,1.45,1.45,0,0,1,.13.58c0,.09,0,.25,0,.57-.13,1-.26,2.45-.29,3.66a11.26,11.26,0,0,1,5.87-2.23c2,0,3.44,1.17,3.44,2.8s-1.3,3.06-3.55,3.84a13.23,13.23,0,0,1-4.09.7l0-.29a10.33,10.33,0,0,0,4.52-1.6,3.49,3.49,0,0,0,1.8-2.92,2,2,0,0,0-2.18-2,7.16,7.16,0,0,0-4.3,2,4.21,4.21,0,0,0-1,1.14c-.17.27-.3.36-.5.36s-.5-.18-.79-.6a2.11,2.11,0,0,1-.38-.91s0-.17.06-.29a8.46,8.46,0,0,0,.19-1.08c0-.36.13-.87.22-1.5a20.94,20.94,0,0,0,.34-2.37c0-.63.06-.8.29-1a4.47,4.47,0,0,1,1.85-.83,17.37,17.37,0,0,0,2.13-.68,5.7,5.7,0,0,1-1.64-1,3.76,3.76,0,0,1-.92-1.44Z"/><path class="cls-1" d="M46.41,215.59c0-.29,0-.29,0-.76s0-.36,0-.63l-1.82,1.24c-.34.24-.45.29-.61.29-.47,0-1.33-1.06-1.33-1.64a2,2,0,0,1,0-.3c.4.57.79.86,1.17.86a8.91,8.91,0,0,0,2.6-1.08,14.6,14.6,0,0,0,.12-1.91,2,2,0,0,0-1-2,.34.34,0,0,1,.23-.09,2.4,2.4,0,0,1,1.15.49c.58.4.94.85.94,1.19s0,.2-.18.74a8.31,8.31,0,0,0-.33,1.42c.4.41.53.56.53.7s0,.15-.26.52-.39.74-.57,1.17a3.88,3.88,0,0,0,0,.67,29.65,29.65,0,0,1,3.13-2.75,5.23,5.23,0,0,1,2.9-1.28,1.82,1.82,0,0,1,1.42.65,2.21,2.21,0,0,1,.49,1.58,11.87,11.87,0,0,1-.36,2.66,18.08,18.08,0,0,0-.32,3c0,.72.12,1.1.45,1.33a1.56,1.56,0,0,0,.92.27,6.54,6.54,0,0,0,3.34-1.28l.15.22a5.89,5.89,0,0,1-4,2.07c-1.37,0-2.11-.88-2.11-2.52a19.74,19.74,0,0,1,.45-3.21,11.24,11.24,0,0,0,.45-2.84c0-.88-.39-1.39-1.09-1.39s-1.72.54-3.16,1.82a25.94,25.94,0,0,0-2.73,2.85c0,.43,0,.66,0,.93a32.14,32.14,0,0,0,.18,3.22,5.92,5.92,0,0,1,0,.85c0,1-.34,1.87-.77,1.87-.2,0-.34-.14-.43-.48-.06-.18-.26-.74-.31-.87a12.94,12.94,0,0,0-1.58-2c-.36.87-.44,1-.62,1s-.3-.14-.41-.41a3.29,3.29,0,0,1-.2-1c0-.22,0-.25.31-.54a8.74,8.74,0,0,0,1.17-1.6ZM45.31,219c-.41.79-.61,1.18-1,1.9a14.55,14.55,0,0,0,1.91,1.46c0-.68,0-.68,0-3.36,0-.89,0-1.3.07-2C46.14,217.44,46.12,217.44,45.31,219Z"/><path class="cls-1" d="M51.87,231.09c-.7.21-2.4.88-3.64,1.42a2.1,2.1,0,0,1-.74.23c-.32,0-.68-.25-1-.75a2.56,2.56,0,0,1-.51-1.34.75.75,0,0,1,.16-.46c.27.84.76,1.31,1.35,1.31a20.43,20.43,0,0,0,3.41-.77,2.38,2.38,0,0,0,1.11-.56.43.43,0,0,1,.26-.09c.23,0,.52.18,1,.63s.54.59.54.81-.09.23-.31.34A4.91,4.91,0,0,0,52,233.07c-1.14,1.13-1.8,1.8-2.65,2.7-1.73,1.85-1.73,1.85-2.11,2.23l0,0a9,9,0,0,1,4.9-1.71c2.3,0,3.85,1.35,3.85,3.36,0,2.58-2.4,4.49-5.65,4.49-1.77,0-2.9-.71-2.9-1.8,0-.89.83-1.54,1.94-1.54a3.33,3.33,0,0,1,2.29.89,3.68,3.68,0,0,1,.79,1.11,3.53,3.53,0,0,0,2.18-3.36,2.51,2.51,0,0,0-1.12-2.24,4.05,4.05,0,0,0-1.78-.36c-1.76,0-4.23,1.44-5.73,3.35-.3.38-.43.49-.61.49s-.59-.63-.59-1.17a.82.82,0,0,1,.38-.63,16.77,16.77,0,0,0,2.5-2.5c2.2-2.47,2.88-3.26,4.3-5.1.15-.2.15-.2.18-.29s0,0-.05,0h-.07l-.09,0Zm-2.78,10.33c-.68,0-1.13.36-1.13.92s.79,1.1,2,1.1a5,5,0,0,0,1.28-.16A2.36,2.36,0,0,0,49.09,241.42Z"/><path class="cls-1" d="M55.85,252.83c.46-.63.63-.83,1.09-1.39a22.69,22.69,0,0,1,1.82,1.5c.06.09.09.12.09.18s-.09.12-.19.12H51v4.22h3.33l.79-.92,1.17.84c.13.09.17.17.17.24s-.11.22-.65.52c0,1.21,0,2.11,0,2.77,0,1.59,0,2.45,0,3.46,0,.2-.27.27-1,.27-.33,0-.4,0-.41-.16v-1.13H46.2v1.13c0,.22-.28.29-.94.29-.33,0-.4,0-.4-.2.06-1.28.06-1.84.06-4.9,0-1.37,0-1.51-.06-3.15a10.16,10.16,0,0,1,1.55.94h3.33v-4.22H44.27a6,6,0,0,0-1.6.13l-.11-.72a5.76,5.76,0,0,0,1.71.18h5.47v-2.25a20.61,20.61,0,0,0-.09-2.2l1,.08c1,.08,1.24.14,1.24.34s-.18.25-.83.48v3.55Zm-9.65,10.1h8.3v-5.06H46.2Z"/><path class="cls-1" d="M50.25,282.89a8.16,8.16,0,0,0,4.21-2.5,6.42,6.42,0,0,0,1.6-4.34,4.47,4.47,0,0,0-2-4,6,6,0,0,0-3.12-.83,3.78,3.78,0,0,0-.63,0,2.36,2.36,0,0,1,.56,1.49c0,1.41-1,4-2.38,6.23-1.13,1.8-2,2.69-2.68,2.69a1.07,1.07,0,0,1-.79-.38,3.7,3.7,0,0,1-.51-1.15,11.08,11.08,0,0,0-.79-1.7,3.4,3.4,0,0,1-.41-1.63,5.62,5.62,0,0,1,1.62-3.57,8.72,8.72,0,0,1,6.19-2.52,6.83,6.83,0,0,1,4.65,1.66,5.5,5.5,0,0,1,1.73,4.23,6.19,6.19,0,0,1-3.59,5.45,10.66,10.66,0,0,1-3.51,1.12Zm-5.93-5.6a4.21,4.21,0,0,0,.72,2.38c.25.32.49.52.69.52.39,0,1.26-1,2.14-2.37,1.33-2.13,2.29-4.45,2.29-5.57a2,2,0,0,0-.26-.9C46.77,271.91,44.32,274.52,44.32,277.29Z"/><path class="cls-1" d="M42.2,292.25c2.1.81,2.77,1.28,2.77,2,0,.56-.29,1.08-.59,1.08s-.27-.11-.42-.42a8.31,8.31,0,0,0-1.87-2.48Zm.16,6.59a9.66,9.66,0,0,0,1,.16c.29,0,.38-.14,1.16-1.76.57-1.23.84-1.84,1.69-3.78l.9-2,.25.13-2.57,7.65c-.22.56-.24.63-.24.79a5.26,5.26,0,0,0,.36,1.53,3.17,3.17,0,0,1,.18,1,1.6,1.6,0,0,1-.34,1.06,1.27,1.27,0,0,1-.95.47c-.27,0-.4-.12-.4-.39a5.51,5.51,0,0,1,.13-1.09,11.34,11.34,0,0,0,.14-1.7,1.7,1.7,0,0,0-.32-1.19,2.5,2.5,0,0,0-1.08-.62Zm1-10.46a7,7,0,0,1,2.32,1.19,1.05,1.05,0,0,1,.52.86c0,.54-.27,1.08-.54,1.08s-.29-.09-.54-.56a10.8,10.8,0,0,0-1.85-2.41Zm12.13,9.76A12.36,12.36,0,0,1,53.45,301a16.63,16.63,0,0,1-2.92,2.25,12.49,12.49,0,0,1-2.08.92l-.15-.22a15.39,15.39,0,0,0,4-3.17,12.22,12.22,0,0,0,1.93-2.59H52.53a17.86,17.86,0,0,1-1.76,2A13.53,13.53,0,0,1,46.43,303l-.14-.22a15.12,15.12,0,0,0,4-3.35,9.51,9.51,0,0,0,.92-1.29H49.42a11.32,11.32,0,0,1-4,3l-.12-.23a12.54,12.54,0,0,0,3.4-3.46,11.74,11.74,0,0,0,.85-1.42H47.31a4,4,0,0,0-.86.09l-.11-.67a3.11,3.11,0,0,0,1,.16h8.88l1-1.1c.65.51.85.67,1.48,1.21a.31.31,0,0,1,.09.18c0,.06-.09.13-.18.13H50.84a10.72,10.72,0,0,1-1.08,1.65h6.66a8.74,8.74,0,0,1,.67-.7,11.8,11.8,0,0,1,1,.79c.13.13.18.18.18.26s-.09.16-.61.43a16.44,16.44,0,0,1-1,4.61,2.36,2.36,0,0,1-2.13,1.18c-.11-.55-.2-.71-.5-.89a5.87,5.87,0,0,0-1.64-.58l0-.24,1.39.19c.2,0,1,.09,1.22.09.36,0,.53-.15.71-.65a18.09,18.09,0,0,0,.66-4.07Zm-5.83-3.41c0,.24-.13.27-.76.27-.3,0-.39-.05-.39-.21v-.06c0-2.46,0-2.46,0-3.69,0-1.89,0-2.05,0-2.81.55.33.73.44,1.26.81h5c.29-.32.38-.43.69-.73.43.32.56.41,1,.73.15.11.18.18.18.27s-.05.19-.54.47c0,3,0,3.59.07,4.86,0,.15,0,.2-.14.26a3.11,3.11,0,0,1-.79.1c-.22,0-.29-.07-.29-.27v-.48H49.69Zm5.22-5.27H49.69v2h5.22Zm-5.22,2.38v2h5.22v-2Z"/><path class="cls-1" d="M58.91,310.39a2.33,2.33,0,1,1-2.33-2.32A2.31,2.31,0,0,1,58.91,310.39Zm-4.07,0a1.76,1.76,0,0,0,1.74,1.75,1.75,1.75,0,1,0-1.74-1.75Z"/><path class="cls-1" d="M.18,4.38C2.25,5.06,3,5.53,3,6.18s-.27,1.06-.56,1.06S2.16,7.17,2,6.91a8.83,8.83,0,0,0-2-2.34Zm14.08,1c.45-.52.59-.66,1-1.15.65.52.85.68,1.5,1.28.05.07.09.12.09.16s-.07.13-.18.13h-6v1.8H14.3c.21-.22.43-.43.63-.67.48.31.61.42,1,.74.11.11.14.16.14.23s-.09.18-.57.45v3.82c0,.67,0,1.44,0,2.76,0,.37,0,.52-.19.68s-.63.43-1.67.65a1,1,0,0,0-.43-.83c-.27-.2-.47-.24-2-.5v-.24c2,.07,2,.07,2.79.07.3,0,.34,0,.34-.32V8H10.68v4.7H12V10.44c0-.48,0-.7-.06-1.2,1.64.2,1.73.23,1.73.39s-.11.2-.63.38c0,2.83,0,2.83,0,3.53a.17.17,0,0,1-.13.2,3.35,3.35,0,0,1-.72.07c-.18,0-.23,0-.23-.2v-.47H8.34V14c0,.23-.13.3-.53.3l-.23,0h0c-.2,0-.27-.06-.27-.18,0-.85,0-1.21,0-2.22,0-1.56,0-2,0-2.64,1.63.18,1.74.2,1.74.38s-.11.19-.66.37v2.74H9.61V8H6.19v8c0,.3-.18.36-1,.36-.16,0-.21,0-.21-.16v0c0-.9,0-5.47,0-7.36,0-.58,0-1.28,0-1.95l1.38.78H9.61V5.82H4.48L2.79,11.27a4.74,4.74,0,0,0-.16.83,3.24,3.24,0,0,0,.21.9,6.31,6.31,0,0,1,.27,1.62,1.5,1.5,0,0,1-.57,1.21,1.22,1.22,0,0,1-.7.3c-.22,0-.33-.14-.33-.43,0,0,0-.25.06-.61a19.64,19.64,0,0,0,.14-2.18,1.67,1.67,0,0,0-.31-1.15,3.49,3.49,0,0,0-1.2-.61l.07-.26L.63,11a3.89,3.89,0,0,0,.74.11c.21,0,.27-.05.48-.47.53-1,2.29-5.15,3-7l.32.11L4.61,5.4h3V3.08h-1a7.38,7.38,0,0,0-1.48.11L5,2.47a7.66,7.66,0,0,0,1.73.2h.91V1.39c0-.11,0-.36,0-.7,0-.15,0-.37,0-.64l.76.09C9.36.27,9.6.32,9.6.5s-.15.2-.85.4V2.67h2.81V1.3c0-.27,0-.52-.07-1.25.38.06.66.09.84.11.94.13,1.16.18,1.16.34s-.17.22-.76.38V2.67h1c.43-.51.56-.65,1-1.08.65.5.85.66,1.48,1.22.07.09.09.13.09.16s-.08.11-.17.11H12.73V5.4ZM1.3.45c2,.67,2.9,1.28,2.9,2s-.28,1.06-.54,1.06-.22-.09-.35-.31A9,9,0,0,0,1.17.65ZM11.56,3.08H8.75V5.4h2.81Z"/><path class="cls-1" d="M1.85,23.56a2.75,2.75,0,0,0,2.42,1,8.25,8.25,0,0,0,1.28-.1c0-.27,0-.27.27-1.3a14.05,14.05,0,0,0,.23-1.5c0-.57-.41-.86-1.35-.93a1.18,1.18,0,0,1,.9-.34,4.23,4.23,0,0,1,1.69.39c.34.16.54.4.54.63s0,.24-.27.54a9.91,9.91,0,0,0-1.1,2.4,7.32,7.32,0,0,0,3.19-1.19A.37.37,0,0,1,10,23a3,3,0,0,1,.85.16c.27.11.4.23.4.41s-.29.53-1,.8a15.87,15.87,0,0,1-4,.91,24.21,24.21,0,0,0-.77,4.95,12.41,12.41,0,0,1,5.42-1.63c2,0,3.38,1,3.38,2.61s-1,2.64-2.88,3.4a13.62,13.62,0,0,1-5.25.85l0-.25a19.82,19.82,0,0,0,2.81-.58c2.55-.78,3.94-2.09,3.94-3.75,0-1.09-.72-1.73-2-1.73a7,7,0,0,0-4,1.55,3.75,3.75,0,0,0-1,1.1.47.47,0,0,1-.4.24c-.47,0-1.06-.8-1.06-1.41,0-.31.59-3.47,1-5.33a6.14,6.14,0,0,1-.76.06,3,3,0,0,1-3-1.64Z"/><path class="cls-1" d="M1.3,44.1a2.44,2.44,0,0,0,2,1,8.46,8.46,0,0,0,2.28-.34,13.07,13.07,0,0,0,.62-3c0-.56-.27-.8-1.28-1.14a1,1,0,0,1,.56-.16A4.69,4.69,0,0,1,7,40.75c.54.2.81.45.81.72s0,.13-.21.43a14.8,14.8,0,0,0-1.08,2.58,6.09,6.09,0,0,0,2.09-1.1c.28-.27.36-.3.5-.3a3.7,3.7,0,0,1,1,.19c.19.08.28.18.28.33s-.28.54-1,.88a20.76,20.76,0,0,1-3.15,1c-.22.62-.22.62-.76,2.29l-1.35,4C3.33,54,3.1,54.42,2.72,54.42c-.18,0-.31-.11-.42-.36A2.78,2.78,0,0,1,2.05,53c0-.28,0-.34.4-.88.9-1.31,1.6-2.88,2.83-6.44a9.87,9.87,0,0,1-1.73.18,2.64,2.64,0,0,1-2.47-1.62Zm7.18,6.21c0,.27,0,.49,0,.56a2.23,2.23,0,0,0,1.37,2.18,5.08,5.08,0,0,0,1.93.34,4.26,4.26,0,0,0,1.73-.27.84.84,0,0,1,.3-.07,2.11,2.11,0,0,1,.92.43A.69.69,0,0,1,15,54c0,.39-.7.59-2.12.59A8,8,0,0,1,9.58,54a2.73,2.73,0,0,1-1.53-2.61,3.54,3.54,0,0,1,.16-1.13ZM9,47a8.29,8.29,0,0,1,4.17-1.2,2.19,2.19,0,0,1,1.14.32.6.6,0,0,1,.29.5c0,.29-.17.4-.69.42a2.53,2.53,0,0,0-1.38.36,10,10,0,0,0-1,.61c-.34.22-.34.22-.62.38l-.11-.16c.21-.22.21-.22.86-.81.16-.15.33-.29.88-.85a9.31,9.31,0,0,0-3.43.67Z"/><path class="cls-1" d="M6.43,75.62A9.69,9.69,0,0,0,9.29,73.1,9.81,9.81,0,0,0,11.18,67a8.41,8.41,0,0,0-.67-3.71,1.45,1.45,0,0,0-1.27-.8c-.9,0-1.73.78-2.38,2.25A10.24,10.24,0,0,0,6,68.66a10.51,10.51,0,0,0,.08,1.11c0,.11,0,.25,0,.38,0,.34-.16.54-.46.54C5,70.69,4.5,69.23,4.5,67a21.55,21.55,0,0,1,.58-4.83,8,8,0,0,0,.2-1.31c0-.58-.26-.92-1-1.28a1.38,1.38,0,0,1,.33-.09,2.82,2.82,0,0,1,1.44.59c.5.37.7.65.7,1a1.1,1.1,0,0,1-.25.69,12.83,12.83,0,0,0-1.3,5.36c0,.16,0,.34,0,.67h0a10.07,10.07,0,0,1,2.08-4.72A2.93,2.93,0,0,1,9.56,62c1.73,0,2.95,2.12,2.95,5.13a8.91,8.91,0,0,1-2,5.89,9.11,9.11,0,0,1-4,2.84Z"/><path class="cls-1" d="M1.3,83.7a2.44,2.44,0,0,0,2,1,8.46,8.46,0,0,0,2.28-.34,13.07,13.07,0,0,0,.62-3c0-.56-.27-.8-1.28-1.14A1,1,0,0,1,5.46,80,4.69,4.69,0,0,1,7,80.35c.54.2.81.45.81.72s0,.13-.21.44a14.24,14.24,0,0,0-1.08,2.57A6.09,6.09,0,0,0,8.61,83c.28-.27.36-.3.5-.3a3.7,3.7,0,0,1,1,.19c.19.08.28.18.28.33s-.28.54-1,.88a20.76,20.76,0,0,1-3.15,1c-.22.62-.22.62-.76,2.29l-1.35,4C3.33,93.57,3.1,94,2.72,94c-.18,0-.31-.11-.42-.36a2.78,2.78,0,0,1-.25-1c0-.28,0-.34.4-.88.9-1.31,1.6-2.88,2.83-6.44a9.87,9.87,0,0,1-1.73.18,2.64,2.64,0,0,1-2.47-1.62Zm7.18,6.21c0,.27,0,.49,0,.56a2.23,2.23,0,0,0,1.37,2.18,5.08,5.08,0,0,0,1.93.34,4.26,4.26,0,0,0,1.73-.27.84.84,0,0,1,.3-.07,2.11,2.11,0,0,1,.92.43.69.69,0,0,1,.32.51c0,.39-.7.59-2.12.59a8.14,8.14,0,0,1-3.33-.57A2.76,2.76,0,0,1,8.05,91a3.54,3.54,0,0,1,.16-1.13ZM9,86.58a8.29,8.29,0,0,1,4.17-1.2,2.19,2.19,0,0,1,1.14.32.61.61,0,0,1,.29.51c0,.28-.17.39-.69.41A2.53,2.53,0,0,0,12.5,87a10,10,0,0,0-1,.61c-.34.22-.34.22-.62.38l-.11-.16c.21-.22.21-.22.86-.81.16-.15.33-.29.88-.85a9.31,9.31,0,0,0-3.43.67Z"/><path class="cls-1" d="M2.09,104.46v10.76c0,.26-.18.31-1,.31-.21,0-.3,0-.3-.22.09-2.35.11-4.91.11-11.7,0-2,0-3.13-.06-4.65a8.93,8.93,0,0,1,1.42.78H5.85c.29-.38.38-.49.65-.86.47.32.61.41,1,.75.13.11.17.18.17.25s-.13.22-.58.47v.9c0,.65,0,1.15,0,3.82,0,.14,0,.18-.18.22a3.79,3.79,0,0,1-.7.07c-.21,0-.3-.07-.3-.22v-.68ZM6,100.15H2.09v1.7H6Zm0,2.11H2.09V104H6Zm4.62,7.42h1c.36-.47.49-.6.85-1,.58.52.77.7,1.37,1.26a.23.23,0,0,1,0,.11s0,.07-.1.07H10.62V111c0,1.37,0,1.86.06,3.53v0c0,.2-.27.29-.89.29-.19,0-.3-.07-.3-.21v-.06c0-.52,0-1.71,0-3.53v-1H7a5.39,5.39,0,0,1-1.1,3.06,6.53,6.53,0,0,1-2.81,2L2.9,115a6.21,6.21,0,0,0,2.54-2.64,5.26,5.26,0,0,0,.48-2.22H4.68a8.61,8.61,0,0,0-1.46.11l-.16-.67a6.5,6.5,0,0,0,1.62.15H6c0-.63,0-1.19,0-1.71s0-.51,0-.92H5a7.24,7.24,0,0,0-1.33.09l-.16-.67a5.08,5.08,0,0,0,1.49.16h6.09c.37-.44.48-.59.82-1,.63.52.83.7,1.43,1.24a.31.31,0,0,1,0,.13s-.07.09-.13.09H10.62Zm-3.53-2.63v.83c0,.65,0,1.06-.07,1.8h2.5v-2.63Zm3.53-2.59v.59c0,.15,0,.2-.16.24s-.47,0-.74,0-.3,0-.3-.24c.05-1.29.05-1.65.05-3,0-1.85,0-2.28-.07-3.1a15.09,15.09,0,0,1,1.31.78h3.6c.33-.38.42-.51.74-.88.45.32.58.41,1.05.72.16.12.23.2.23.27s-.09.19-.5.48v8.38l0,5.4a1,1,0,0,1-.63,1,3.86,3.86,0,0,1-1.49.43c-.09-.82-.38-1-2.13-1.28V114l2.15,0h.59c.2,0,.2,0,.2-.4v-9.14Zm3.93-4.31H10.62v1.7h3.93Zm0,2.11H10.62V104h3.93Z"/><path class="cls-1" d="M6.23,122.31c.41-.5.54-.66.95-1.13a12.41,12.41,0,0,1,1.35,1.24c.08.07.11.12.11.18s-.07.13-.18.13H3.73c0,1.06-.07,1.9-.11,2.55h2.2c.28-.3.37-.41.66-.7.42.29.54.38.92.68.13.11.18.18.18.24s-.14.27-.47.47c-.18,3.62-.59,6.57-1.08,7.52-.36.69-.86.94-2,1-.08-.81-.31-1-1.7-1.33l0-.22,1.71.18c.18,0,.33,0,.45,0,.4,0,.54-.24.78-1.19a35.92,35.92,0,0,0,.63-6.32H3.6a25.84,25.84,0,0,1-.52,3.81,12.08,12.08,0,0,1-1.64,3.91,10.07,10.07,0,0,1-1.13,1.41L0,134.64a11.54,11.54,0,0,0,1.8-4.08,31.84,31.84,0,0,0,.76-7.83H1.82c-.22,0-.72,0-1.39.1l-.18-.66a13.09,13.09,0,0,0,1.55.14H3.51v-2a9.13,9.13,0,0,0-.09-1.36c.38,0,.65.11.85.12,1,.15,1.1.18,1.1.36s-.2.27-.69.42v2.48Zm8.59,1.12a13.6,13.6,0,0,1-2.27,7,10.06,10.06,0,0,0,4.54,3l0,.23a1.41,1.41,0,0,0-1.42,1.12,11.49,11.49,0,0,1-3.69-3.53,11.26,11.26,0,0,1-2.77,2.36,12.56,12.56,0,0,1-3.62,1.51l-.11-.25A14,14,0,0,0,8.71,133a11.39,11.39,0,0,0,2.65-2.68,17.86,17.86,0,0,1-1.85-5.23,12.33,12.33,0,0,1-1.79,2.71l-.19-.15a22.7,22.7,0,0,0,2.16-6,19.4,19.4,0,0,0,.48-2.81c1.75.4,2,.47,2,.67s-.14.2-.73.31c-.62,1.89-.74,2.28-1.05,3.18h3.8c.36-.43.7-.88,1.06-1.33l1.62,1.44a.44.44,0,0,1,.09.16.18.18,0,0,1-.18.15Zm-4.61,0c-.16.47-.25.66-.43,1.08a13.52,13.52,0,0,0,2.07,5,13.37,13.37,0,0,0,1.65-6.1Z"/><path class="cls-1" d="M11,141.05a13.37,13.37,0,0,0,1,4.23,9.05,9.05,0,0,0,1.24-2.95c1.71.5,1.71.5,1.71.66s-.09.18-.77.26a19.46,19.46,0,0,1-1.73,2.91,4.72,4.72,0,0,0,2.3,2.07A26.34,26.34,0,0,0,16,145.37l.23,0-.43,2.34s0,.11,0,.21,0,.27,0,.36,0,.27.25.45a.57.57,0,0,1,.23.44.55.55,0,0,1-.57.52,4.15,4.15,0,0,1-2.05-.9A7,7,0,0,1,11.81,147a10.66,10.66,0,0,1-3.37,2.52l-.16-.18a12.63,12.63,0,0,0,3.08-3.07A12.07,12.07,0,0,1,10,141.05H3.31c-.07,3.47-.12,4.16-.45,5.38a10.1,10.1,0,0,1-1.28,2.87A8.72,8.72,0,0,1,.5,150.65l-.18-.2A11.79,11.79,0,0,0,1.71,147a23.78,23.78,0,0,0,.38-5.56A9.1,9.1,0,0,0,2,139.81a11.61,11.61,0,0,1,1.46.82H10c0-.35,0-.44-.06-.62a14.34,14.34,0,0,0-.2-1.59c1.46.13,1.82.2,1.82.38s-.07.16-.57.34c0,.72,0,.9.05,1.49h2.88l.85-1c.61.49.79.63,1.35,1.15a.42.42,0,0,1,.09.13c0,.07-.11.16-.18.16Zm-7.73,9.18v.42a5.53,5.53,0,0,1-.88,2.84c-.41.54-.77.83-1.06.83s-.49-.47-.49-1.06c0-.34.07-.45.52-.63a3.06,3.06,0,0,0,1.25-1.23,3.66,3.66,0,0,0,.41-1.17Zm4.43-7.42c.34-.45.45-.57.81-1,.56.48.72.64,1.24,1.13a.2.2,0,0,1,.08.14.17.17,0,0,1-.17.15H5a6,6,0,0,0-1.19.11l-.07-.69a2.65,2.65,0,0,0,.72.13l.54,0Zm-2.45,5.55c0,.29-.1.32-.93.32-.15,0-.2-.05-.24-.19a12.39,12.39,0,0,0,.09-1.62,19.83,19.83,0,0,0-.09-2.94,11.81,11.81,0,0,1,1.3.79H7.85c.29-.34.36-.45.67-.77l.9.76c.1.12.14.16.14.21s-.07.16-.47.4l0,2.48c0,.31-.16.36-.88.36-.17,0-.22,0-.27-.16v-.34H5.29Zm-.46,2.45a11,11,0,0,0,0-1.14c1.71.2,1.91.24,1.91.42s-.11.2-.67.36v2.32c0,.25,0,.33.07.38s.18.09.72.11c.31,0,1.41,0,1.64,0s2.07,0,2.36,0c.51,0,.56-.05.79-.52a12.47,12.47,0,0,0,.8-2.29l.25,0-.22,2.21v.22c0,.18,0,.18.45.31a.43.43,0,0,1,.33.39c0,.29-.26.52-.62.58s-2.72.16-4.48.16c-2,0-2.48,0-2.81-.22s-.45-.38-.48-.86a1.74,1.74,0,0,1,0-.29l0-1Zm.46-3.57H8v-2.1H5.29Zm2.11,2.25a11.44,11.44,0,0,1,2.34.78,1,1,0,0,1,.76,1c0,.41-.17.74-.34.74s-.19,0-.73-.63a8.82,8.82,0,0,0-1.18-1.08,8.25,8.25,0,0,0-.94-.56Zm4.52-10.94a7.27,7.27,0,0,1,1.51.43c.42.18.56.34.56.63a1.45,1.45,0,0,1-.16.59.27.27,0,0,1-.25.18c-.13,0-.13,0-.33-.28a5.25,5.25,0,0,0-.48-.58,4.81,4.81,0,0,0-1-.81Zm1.48,11.56a11.63,11.63,0,0,1,2,1.42c.74.61,1,.88,1,1.24a2.91,2.91,0,0,1-.29,1,.4.4,0,0,1-.33.23.31.31,0,0,1-.21-.13c-.11-.1-.11-.1-.4-.77a11,11,0,0,0-1.92-2.9Z"/><path class="cls-1" d="M5.08,166.83l-.81,3.38A6.8,6.8,0,0,0,4,172.12a2.92,2.92,0,0,1,0,.77.46.46,0,0,1-.43.31c-.31,0-.58-.25-.78-.74a10.53,10.53,0,0,1-.63-3.83,16.19,16.19,0,0,1,.14-1.93,29.51,29.51,0,0,1,.63-3.4,8.68,8.68,0,0,0,.26-1.68,3.22,3.22,0,0,0-.51-1.69c.4,0,.72.25,1.21.88a2.45,2.45,0,0,1,.67,1.43c0,.28,0,.36-.38,1.08a15.07,15.07,0,0,0-1,2.86,10,10,0,0,0-.23,2.23,6.91,6.91,0,0,0,.34,2.38,13.91,13.91,0,0,0,.65-1.53l1-2.52Zm2.27.9a6.29,6.29,0,0,0-.06.75c0,2,1.14,2.79,3.93,2.79a8.54,8.54,0,0,0,1.53-.12,3,3,0,0,0,.95-.29.78.78,0,0,1,.27-.05,1.39,1.39,0,0,1,1.14,1.06c0,.21-.15.36-.4.45a8.83,8.83,0,0,1-2.25.2c-2.25,0-3.85-.38-4.66-1.1a3,3,0,0,1-1-2.34A4.92,4.92,0,0,1,7,167.66Zm0-5.73a2.81,2.81,0,0,0,1.67.49,9.6,9.6,0,0,0,3.62-.81c.24-.13.27-.15.4-.15a1.32,1.32,0,0,1,.63.26c.38.21.56.43.56.66s-.13.34-.51.42a10.24,10.24,0,0,0-2.55.63,18.65,18.65,0,0,0-2.33,1.27l-.18-.18c.81-.68,1.43-1.18,1.71-1.4l-.73,0a3.16,3.16,0,0,1-2.45-1Z"/><path class="cls-1" d="M.34,182.43a14.11,14.11,0,0,1,2,.9c.5.31.66.52.66.9,0,.58-.19,1.05-.44,1.05s-.26-.07-.6-.62a8.61,8.61,0,0,0-1.78-2Zm.18,6.5a5.78,5.78,0,0,0,1,.2c.23,0,.32-.11.7-.94l3-6.5.31.08-2.63,7.34a3.31,3.31,0,0,0-.18.85,4.37,4.37,0,0,0,.22,1.1,6.84,6.84,0,0,1,.27,1.69,1.47,1.47,0,0,1-1.35,1.53c-.2,0-.33-.18-.33-.45,0-.11,0-.43.09-.78a10.57,10.57,0,0,0,.2-2A1.92,1.92,0,0,0,1.55,190c-.18-.31-.45-.49-1.1-.76Zm1-10.39a18.85,18.85,0,0,1,2.24,1.05c.43.25.63.5.63.84s-.31,1-.56,1-.27-.13-.45-.4a10.58,10.58,0,0,0-2-2.32Zm15.11,14.28c-.72.25-.85.41-1.14,1.35a14.23,14.23,0,0,1-3-1,11.45,11.45,0,0,1-2.16-1.2,14.77,14.77,0,0,1-6.52,2.48l-.07-.29a17,17,0,0,0,5.85-2.81,10.12,10.12,0,0,1-2.4-3.25H7a10.68,10.68,0,0,0-1.29.1l-.13-.66a7.72,7.72,0,0,0,1.42.14h5.62a8.27,8.27,0,0,1,.61-.7c.49.38.63.49,1.1.88.18.15.25.24.25.33s-.16.21-.73.21a15.37,15.37,0,0,1-2.76,3,13.06,13.06,0,0,0,5.53,1.21Zm-2-7.18c.36-.35.47-.45.85-.8.52.42.66.54,1.17,1,.16.14.21.23.21.3s-.21.24-.9.29a15.11,15.11,0,0,1-1.49,1.28l-.16-.16a8.91,8.91,0,0,0,.5-1.48H5.58a5.23,5.23,0,0,1-.29,1.8c-.2.54-.57.92-.9.92s-.56-.56-.56-1.06c0-.22.08-.31.35-.51a3.36,3.36,0,0,0,1.11-2.37h.29v.8Zm-7.17-3.78a10.34,10.34,0,0,0-1.4.1L6,181.3a6.45,6.45,0,0,0,1.49.14h5.78v-1.67H7.31a8.77,8.77,0,0,0-1.42.09l-.09-.69a5.28,5.28,0,0,0,1.51.18h5.74c.33-.38.42-.48.74-.81.49.33.63.42,1.08.74.16.13.22.22.22.27s0,.16-.63.5c0,.87,0,1.5,0,2,0,.75,0,1.35,0,2.59,0,.11,0,.14-.13.18a2.63,2.63,0,0,1-.88.13c-.18,0-.24,0-.24-.22v-.54H7.45a12.35,12.35,0,0,0-1.58.09l-.11-.63a7.84,7.84,0,0,0,1.69.13h5.78v-1.89Zm.09,6.23a7.83,7.83,0,0,0,2.65,2.75,12.91,12.91,0,0,0,2.43-2.75Z"/><path class="cls-1" d="M9.87,200.49c-.7.21-2.4.88-3.64,1.42a2.1,2.1,0,0,1-.74.23c-.32,0-.68-.25-1-.75A2.56,2.56,0,0,1,4,200.05a.75.75,0,0,1,.16-.46c.27.84.76,1.31,1.35,1.31a19.7,19.7,0,0,0,3.41-.78,2.29,2.29,0,0,0,1.11-.55.43.43,0,0,1,.26-.09c.23,0,.52.18,1,.63s.54.59.54.81-.09.23-.31.34A4.91,4.91,0,0,0,10,202.47c-1.14,1.13-1.8,1.8-2.65,2.7C5.58,207,5.58,207,5.2,207.4l0,0a9,9,0,0,1,4.9-1.72c2.3,0,3.85,1.36,3.85,3.37,0,2.58-2.4,4.49-5.65,4.49-1.77,0-2.9-.71-2.9-1.8,0-.89.83-1.54,1.94-1.54a3.33,3.33,0,0,1,2.29.89,3.68,3.68,0,0,1,.79,1.11,3.53,3.53,0,0,0,2.18-3.36,2.51,2.51,0,0,0-1.12-2.24,4.05,4.05,0,0,0-1.78-.36c-1.76,0-4.23,1.44-5.73,3.35-.3.38-.43.49-.61.49s-.59-.63-.59-1.17a.82.82,0,0,1,.38-.63,17.06,17.06,0,0,0,2.5-2.51c2.2-2.46,2.88-3.25,4.3-5.09.15-.2.15-.2.18-.29s0,0-.05,0h-.07l-.09,0ZM7.09,210.82c-.68,0-1.13.36-1.13.92s.79,1.1,2.05,1.1a5,5,0,0,0,1.28-.16A2.36,2.36,0,0,0,7.09,210.82Z"/><path class="cls-1" d="M16.91,220.39a2.33,2.33,0,1,1-2.33-2.32A2.31,2.31,0,0,1,16.91,220.39Zm-4.07,0a1.76,1.76,0,0,0,1.74,1.75,1.75,1.75,0,1,0-1.74-1.75Z"/></g></g></svg>