<svg xmlns="http://www.w3.org/2000/svg" width="234.44" height="411.25" viewBox="0 0 234.44 411.25"><defs><style>.cls-1{fill:#fff;}.cls-2{fill:#6d554d;}</style></defs><g id="レイヤー_2" data-name="レイヤー 2"><g id="料理"><path class="cls-1" d="M195.71,24.08c-.56,0-.81,0-.92.7A1.3,1.3,0,0,1,193.41,26c-.84,0-.89-.7-.89-1.15s.14-2.16.17-2.58c.14-3.41.16-5.85.16-8,0-1.09,0-9.89,0-10.73,0-.22-.11-1.26-.11-1.51s0-.36.25-.36a6.6,6.6,0,0,1,2.13.78,2,2,0,0,0,1.2.28h15.45a1.26,1.26,0,0,0,1-.31c.56-.58.62-.67.81-.67S216,3.22,216,3.69c0,.26,0,.26-.7.73-.36.25-.42.37-.47,1.4s-.09,12.88-.09,15.6c0,.39.09,2.35.09,2.8s0,1.82-1.49,1.82c-.75,0-.78-.39-.81-1.26,0-.7-.56-.7-.87-.7Zm0-20.58c-.76,0-.9.22-.9.92V22c0,.95,0,1.31.9,1.31h15.93c1,0,1-.39,1-1.06.11-2.35.11-3.87.11-17.53,0-.87,0-1.23-.89-1.23h-4.31c-.42,0-.79,0-.93.5,0,.2,0,10.89,0,11.57,0,1,0,1.42,1.71,1.42,1,0,1.18-.08,1.63-.84a17.82,17.82,0,0,1,.72-1.84c.11,0,.14.08.17.28a6.7,6.7,0,0,0,.56,1.59,5.11,5.11,0,0,1,.62,1.09,1.37,1.37,0,0,1-.48.9c-.45.42-1.15.73-3.16.73-2.5,0-3.62-.53-3.7-2.3,0-.45,0-10.86,0-11.59,0-1.2,0-1.51-.87-1.51h-1.23c-.81,0-.89.33-.92,1-.11,5.21-.2,9.43-3.19,13.16A7.33,7.33,0,0,1,195.57,20s-.11,0-.11-.08.5-.54.61-.62c3.48-4.12,3.48-9.13,3.48-13.52,0-2,0-2.27-.82-2.27Z"/><path class="cls-1" d="M196.24,38.44c-2.46,0-3.27.06-3.55.09l-.59,0c-.08,0-.14,0-.25-.17l-.54-.64c-.05-.08-.11-.14-.11-.2s0,0,.09,0,1.06.08,1.23.08c1.37.09,2.52.11,3.83.11h5.8c.62,0,.7-.25.7-1s-.06-1-.59-1-2.54.14-3,.17c-.86.06-1.37.09-5,.09-.2,0-.92,0-.92-.17s8.56-1.21,10.16-1.54a41.42,41.42,0,0,0,4.93-1.21c.39-.25.45-.28.56-.28s3,1.6,3,2.08c0,.33-.5.33-.7.33-1.65,0-3.27.11-4.92.25-.48.06-1.15.12-1.4.14s-.34.4-.34,1.1c0,.89.11,1,.76,1H211c1.23,0,1.37,0,1.76-.47.78-.93.9-1,1.15-1s2.6,1.51,2.6,1.85-.56.39-1.48.39h-9c-.26,0-.4,0-.4.2,0,.87,6.5,4.11,10.39,4.84.73.14.78.14.78.28s-.08.14-.42.2a3.21,3.21,0,0,0-2,1.06c-.19.28-.3.42-.58.42-1,0-5.55-3.13-7.45-4.87-.25-.22-1.4-1.54-1.51-1.54s-.2.14-.2.53c0,.65.11,4,.11,4.06a1.28,1.28,0,0,1-1.26,1.29c-.42,0-.84-.14-.84-1.12,0-.17.14-2.44.14-2.72,0-1.26,0-1.4-.28-1.4a3.35,3.35,0,0,0-.59.42,27.55,27.55,0,0,1-9.07,5c-.11,0-.36.12-.56.17s-.36.09-.36,0a7.56,7.56,0,0,1,1-.7c1.76-1.12,7.59-5,7.59-5.88,0-.31-.28-.31-.48-.31Zm9.49,13.27c-.55,0-.81.28-.81.59V56c0,1.06-.08,2.32-2.21,2.32-.53,0-.64-.11-.78-.45-.34-.84-.42-1-1.07-1.37a5.12,5.12,0,0,1-.7-.39c0-.06.06-.11.2-.11s1.45.19,1.74.19c.69,0,.89-.19.89-.67V53.48c0-1.57,0-1.77-.78-1.77h-5.6c-.56,0-2.55,0-3.53.09l-.59.05c-.11,0-.14-.05-.25-.16l-.53-.65c-.14-.14-.14-.14-.14-.19s.08-.06.11-.06,1,.08,1.23.08c.81.06,2.27.12,3.84.12h5.43c.22,0,.76,0,.76-.68,0-.16-.15-1-.15-1.26,0-.42.31-.42.51-.42s1.26.2,1.51.2c.59,0,2.63-1.54,2.63-2.21,0-.28-.3-.28-.5-.28h-7.25c-.73,0-2.72,0-3.53.08-.14,0-.53.06-.62.06s-.14-.06-.22-.17l-.56-.64c-.06-.09-.11-.14-.11-.2s.08-.06.11-.06c.19,0,1,.09,1.2.09.81,0,2.27.11,3.87.11h7.53a1.65,1.65,0,0,0,1.2-.28c.14-.11.73-.9.93-.9s2.1,1.29,2.1,2c0,.31-.11.34-1.15.59-.39.11-2.24,1.09-3.33,1.68-.54.28-2.13,1.15-2.13,1.71s.64.62.81.62h4.73a5,5,0,0,0,1.38-.09c.28-.14,1.2-1.43,1.54-1.43s2.26,1.49,2.26,1.88-.33.36-1.12.36Z"/><path class="cls-1" d="M198.45,71.65c-.53,0-1,0-1,.76,0,.28,0,3.94.08,4.08a.5.5,0,0,0,.45.23c.56,0,4.28-1.49,4.45-1.49s.12,0,.12.06c0,.31-3.23,1.93-3.9,2.24s-1.06.53-1.17,1.34c0,.09,0,7.54,0,8.29a3.11,3.11,0,0,1-.51,2.1,2.64,2.64,0,0,1-1.68,1c-.33,0-.5-.25-1.06-1-.19-.25-1.51-1.32-1.51-1.35s.78-.14,1.26-.14c1.43,0,1.6,0,1.62-.86.06-2.3.06-4.65.06-7a.55.55,0,0,0-.48-.59c-.64.31-1.62.82-2.13,1.07-.25.25-.47.53-.67.53A6.8,6.8,0,0,1,191,78.59c0-.16.05-.25.22-.25s.56.09.67.09a15.74,15.74,0,0,0,3.17-.79.89.89,0,0,0,.5-.59c.06-.22.06-2.94.06-4.42,0-.42,0-1-.73-1s-1.9,0-2.55.06c-.08,0-.5.08-.59.08s-.16-.11-.25-.2L191,71c-.08-.08-.14-.14-.14-.2s.09,0,.11,0c.56,0,3.31.19,3.92.19s.73-.33.73-2a31.16,31.16,0,0,0-.14-3.27,5.82,5.82,0,0,1-.22-.67c0-.17.22-.23.42-.23.56,0,2.52.51,2.52,1.07,0,.14-.56.67-.62.81s-.11,3.11-.11,3.61a.57.57,0,0,0,.61.62.78.78,0,0,0,.73-.37c.68-1,.76-1,1-1,.56,0,2,1.51,2,1.79s-.62.39-1.52.39Zm13.7,3c-.34,0-.82,0-.9.64,0,.08-.06,3.33-.06,4.26,0,.61.06,5.43.17,7.44,0,.28.17,1.57.17,1.88,0,1.06-1.18,1.43-1.65,1.43-.78,0-.78-.53-.78-.7s.13-1.43.13-1.71c.14-2.88.14-3.84.14-12.43,0-.81-.58-.81-.89-.81H205.9c-.56,0-.89.14-.92.75-.08,1.6-.11,4.12-.25,5.69-.62,6.24-4.51,8.34-4.85,8.34a.13.13,0,0,1-.11-.11c0-.06,1-1.32,1.18-1.57,2-3,2.26-7.31,2.26-13,0-2.78-.08-4.23-.16-5.35,0-.34-.26-2-.26-2.41s.2-.31.4-.31a4.25,4.25,0,0,1,1.62.51,1.82,1.82,0,0,0,.64.19c.17,0,4.68-1.23,6.08-2.24.11-.08.53-.47.67-.47s1.74,1,2.44,1.34c.5.25.78.45.78.76s-.75.47-1.06.47l-1.29,0c-.36,0-1.85.14-2.3.19-.92.09-2.18.17-4.2.25-1.39.06-1.51.06-1.51,1.12,0,.62-.05,3.62-.05,4.29s.61.84,1,.84h4.56c1.26,0,1.4,0,1.88-.73s.81-1.2,1.2-1.2a8.74,8.74,0,0,1,2.83,2.26c0,.4-.56.4-1.48.4Z"/><path class="cls-1" d="M204.81,103.77a8.23,8.23,0,0,0-1.87,2.46c0,.42.72.42.92.42a27.46,27.46,0,0,0,4.23-.48c.19,0,1.12-.42,1.34-.42.64,0,2.24,1.66,2.24,2.13,0,.31-.34.39-.36.42-1.07.25-1.18.28-1.57.67-1,1-2.41,2.5-3.39,3.42s-1,1-1,1.23.06.23.34.48a4.07,4.07,0,0,1,1.62,2.8,1,1,0,0,1-1,1.09c-.47,0-.64-.17-1.11-1a19.13,19.13,0,0,0-4.65-5.35,5.29,5.29,0,0,1-.73-.64c0-.06,0-.11.14-.11a17.61,17.61,0,0,1,3.44,1.59,5.83,5.83,0,0,0,1.1.53c.25,0,.39,0,1.65-1.87a20.37,20.37,0,0,0,2-3.5c0-.11,0-.2-.5-.2s-3.58.42-4.26.42a1.75,1.75,0,0,1-.56-.11s-.64-.25-.67-.25c-.2,0-.36.19-.7.64A26.35,26.35,0,0,1,197.5,112c-1,.78-3.5,2.49-4.09,2.49a.14.14,0,0,1-.14-.14c0-.06,1.1-.95,1.21-1.07,3.53-2.91,8.2-9.63,8.2-11a.93.93,0,0,0-.36-.7c-.14-.11-.95-.56-.95-.75s.81-.28,1-.28c1.46,0,3.22,1.93,3.22,2.24S205.48,103.26,204.81,103.77Z"/><path class="cls-1" d="M203.8,133.33c0,.09.06.2.06.31a21.8,21.8,0,0,1,.28,3c0,1.87-.42,4.48-2.89,8.2-2.23,3.42-3.66,4.09-4.78,4.09-1.85,0-3.5-2.89-3.5-6.3a9.84,9.84,0,0,1,3.1-7.14,11.6,11.6,0,0,1,8.94-3.64,9.19,9.19,0,0,1,4.51.89,8.79,8.79,0,0,1,4.87,8.15,10.45,10.45,0,0,1-7.06,9.86,17.1,17.1,0,0,1-4.65,1c-.11,0-.28,0-.28-.19s.06-.11.76-.39c2.91-1.15,9-3.56,9-10.53,0-1.09-.12-7.76-7.76-7.76C203.83,132.94,203.8,133.17,203.8,133.33Zm-9.1,8.6c0,1.82.73,4.31,2.44,4.31.81,0,1.48-.33,3.42-3.25a16,16,0,0,0,2.74-8.14c0-1.68-.11-1.82-.48-1.82C200.16,133,194.7,136.64,194.7,141.93Z"/><path class="cls-1" d="M190.45,179a4.53,4.53,0,0,0,2.15-.37c.81-.75,4-8.73,4.34-8.73.09,0,.12.08.12.16,0,.51-2.61,8.21-2.61,9.8a7.59,7.59,0,0,0,.59,2.75,4.64,4.64,0,0,1,.5,1.87,1.35,1.35,0,0,1-1.26,1.49c-1.23,0-1.23-1-1.26-2.19,0-3-.7-3.8-1.9-4.36-.14-.06-.79-.17-.87-.28S190.22,179,190.45,179Zm4.76-9.19a1,1,0,0,1-1,1.09c-.56,0-.62-.11-1.29-1.06a9.19,9.19,0,0,0-1.71-2.07c-.28-.22-.33-.31-.33-.39a.09.09,0,0,1,0-.09C191.31,167,195.21,167.77,195.21,169.76Zm-2.13-8.54c1.23,0,4.2.79,4.2,2.72a1.07,1.07,0,0,1-1,1.12c-.53,0-.92-.56-1.29-1.23-.08-.14-1-2-1.93-2.36-.11,0-.22-.08-.17-.16A.22.22,0,0,1,193.08,161.22ZM203.89,180c0-.08,0-.17.11-.17a5.64,5.64,0,0,1,2.15,3.53c0,.73-.42,1.29-1,1.29a.66.66,0,0,1-.73-.65c-.06-.53-.08-.89-.48-.89-.14,0-2.63.73-3,.84a27.73,27.73,0,0,0-2.88.67,5.54,5.54,0,0,1-.59.42c-.45,0-1.09-1.9-1.09-2.32,0-.14,0-.48.19-.48s.42.2.48.2a12.29,12.29,0,0,0,2.27.11c.84,0,.84,0,2.86-4.14a36.85,36.85,0,0,0,2.38-6c0-.53.13-.53.22-.53s2.35,1,2.35,1.34c0,.17-.06.2-.48.4a.81.81,0,0,0-.39.42,84.52,84.52,0,0,1-4.87,7.72.72.72,0,0,0-.17.45c0,.31.28.31.39.31.62,0,1.24-.08,1.82-.11s.71-.06.82-.25A8.77,8.77,0,0,0,203.89,180Zm7.84-13.47a1,1,0,0,0,1-.47c.78-.93.87-1,1.12-1s2.63,1.48,2.63,1.85-.56.39-1.51.39H201.84c-2.46,0-3.27.06-3.55.08l-.59.06c-.09,0-.14-.06-.25-.17l-.54-.64c-.11-.14-.11-.14-.11-.2s0-.05.09-.05,1.06.08,1.23.08c1.37.06,2.52.11,3.83.11h5.46c.37,0,.7,0,1-.78a18.84,18.84,0,0,0,1.1-5.15c0-.14,0-.23.19-.23s1.62.79,1.85.9c.95.47,1.06.53,1.06.7,0,.45-.87.45-1.09.73s-1.71,2.38-2,2.74a1.66,1.66,0,0,0-.39.78c0,.31.31.31.45.31Zm-11.17,11.54c-.59,0-.79-.62-1-1.57a13,13,0,0,0-1.23-2.69s-.26-.47-.26-.5.06-.09.12-.09,1.34.68,1.62.68.48-.26.67-.73a11.72,11.72,0,0,0,1.12-4.43c0-.08,0-.42,0-.47s.15-.17.23-.17a10.08,10.08,0,0,1,1.37.67c1.12.53,1.12.59,1.12.81s-.78.7-.9.84c-.7.9-1.59,2.44-2.29,3.34-.37.44-.39.5-.39.67a1.87,1.87,0,0,0,.36.64,2.44,2.44,0,0,1,.62,1.82A1.21,1.21,0,0,1,200.56,178.08Zm4-13.3a1.37,1.37,0,0,1-1.18,1.48c-.64,0-.78-.53-1.06-1.62a7.63,7.63,0,0,0-1.65-3.33c-.06-.09-.34-.39-.28-.45S204.56,162.26,204.56,164.78Zm9.21,16.71a7.08,7.08,0,0,0-.62-1.79,2.34,2.34,0,0,1-.25-.5s0,0,.06,0c.45,0,3.44,3,3.44,4.48a1.54,1.54,0,0,1-1.48,1.62c-.67,0-.76-.81-.81-1.59,0-.25-.09-.73-.54-.73-.22,0-4.87,1.46-4.95,1.48s-.64.54-.79.54-.36-.4-.58-.93c-.11-.22-.68-1.4-.68-1.43a.78.78,0,0,1,0-.22c0-.14,0-.22.16-.22a5.53,5.53,0,0,1,.65.22,2.09,2.09,0,0,0,.59.08c1,0,1-.08,1.7-1.34,1.12-2,3.28-6,3.67-7.81.06-.25.06-.37.2-.37s1.62.9,1.85,1c.42.25.61.39.61.62s-.08.28-.81.64c-.25.11-4,5.35-4.17,5.55-.81,1-.9,1.15-.9,1.28s.14.28.31.28,1.77-.19,2.19-.25c.86-.11,1-.11,1.11-.33A.42.42,0,0,0,213.77,181.49ZM211,168.11s2.49.81,2.49,1.18c0,.22-.08.22-.5.42-.17,0-.26.11-.37.36s-1,2-2.74,4.79a1.33,1.33,0,0,0-.31.67c0,.11,0,.22.28.5a1.92,1.92,0,0,1,.7,1.29,1,1,0,0,1-.93,1.07c-.55,0-.64-.14-1.17-1.52a12.13,12.13,0,0,0-1-1.82,5.27,5.27,0,0,1-.31-.44.1.1,0,0,1,.11-.09c.2,0,1.23.56,1.49.56s.28-.08.56-.73a22,22,0,0,0,1.54-5.82C210.89,168.17,210.89,168.11,211,168.11Z"/><path class="cls-1" d="M195,209.89c-.56,0-.87.19-.87.75,0,1.15,0,2.19-1.17,2.19-1,0-1-.56-1-.9,0-.11,0-1,.14-2.69s.25-6.72.25-7.39c0-.14-.11-4.26-.11-4.51s-.2-1.23-.2-1.45.14-.28.34-.28a9.08,9.08,0,0,1,1.34.53,2.78,2.78,0,0,0,1.4.36h1.68c.62,0,.76-.17.95-.42s.51-.61.62-.61a9.89,9.89,0,0,1,1.2.95c.45.39.57.47.57.73a.52.52,0,0,1-.2.33c-.42.28-.48.31-.53.42a52.31,52.31,0,0,0-.26,5.8c0,.47.12,4.73.12,5.12,0,1.26,0,2.21-1.37,2.21-.68,0-.71-.3-.71-.7s-.22-.44-.61-.44Zm0-12.66c-.25,0-.78,0-.84.62-.11,1.37-.11,8.57-.11,10.52,0,.51.19.79.84.79h1.51c.25,0,.78,0,.84-.62.14-1.65.2-8.59.2-10.53,0-.36-.09-.78-.84-.78Zm13.13,7.17c-.28,0-.53.14-.53.45,0,.64,3,5.71,8.12,8.09.17.08,1.18.33,1.18.53s-.23.11-.34.14a3.49,3.49,0,0,0-1.26.34c-.23.11-1.32.78-1.4.78s-3.78-2.13-6.19-7.73c-.19-.47-.22-.53-.34-.53s-.19.14-.19.56c0,.25.22,8.09.22,9.13,0,.33,0,1.76-1.29,1.76-.75,0-.81-.47-.81-.89,0-.82.31-4.76.31-5.66v-4.09a.28.28,0,0,0-.28-.25c-.14,0-.19.08-.28.17a19.9,19.9,0,0,1-3.22,3.5,25.1,25.1,0,0,1-6.72,4.37s-.08,0-.08-.06,2.8-2.44,3.33-2.88c3.92-3.45,6.13-7,6.13-7.37s-.17-.36-1-.36c-.14,0-1.84,0-2.57.08-.09,0-.51.09-.59.09s-.17-.09-.25-.2l-.56-.64c-.11-.14-.11-.14-.11-.2s.05-.06.11-.06,1,.09,1.26.12c1.09,0,2.35.08,3.44.08h.53a.72.72,0,0,0,.79-.45c0-.17,0-3,0-3.3s0-.87-.73-.87c-.93,0-2.24,0-3.08.08l-.59.06c-.11,0-.17-.06-.25-.17l-.56-.64c-.12-.14-.12-.14-.12-.2s.06-.05.12-.05.84.08,1,.08c.41,0,2.77.11,3.24.11s.93,0,.93-.84-.09-2.71-.12-3.61c0-.17-.19-1-.19-1.2s.08-.25.28-.25,2.63.39,2.63.83c0,.14-.56.54-.64.65s-.17.36-.17,1c0,.37-.06,2.19-.06,2.61s.06.78.84.78h1.51c1.15,0,1.49,0,1.77-.47.53-.84.59-1,.84-1a7.17,7.17,0,0,1,2.1,1.8c0,.36-.56.36-1.49.36h-4.73c-.22,0-.7,0-.81.48-.06.22-.06,2.88-.06,3.36,0,.78.56.78.84.78h3.25c1.35,0,1.54,0,1.93-.7s.54-1,.82-1a8.76,8.76,0,0,1,2.26,2c0,.37-.56.37-1.48.37Z"/><path class="cls-2" d="M182.86,259a4.15,4.15,0,0,0-.75-2,3.24,3.24,0,0,0-2.51-1.21,3,3,0,0,0-2.62,1.45,7,7,0,0,0-.87,3.65c0,3.13,1.5,5.19,3.76,5.19a3.75,3.75,0,0,0,3.6-2.72l.44.2a5.2,5.2,0,0,1-1.23,2,5,5,0,0,1-6.68-.33,5.76,5.76,0,0,1-1.41-4,5.89,5.89,0,0,1,2.12-4.87,4.76,4.76,0,0,1,2.83-.92,6.45,6.45,0,0,1,1.91.33,3.18,3.18,0,0,0,1.11.26,2,2,0,0,0,.78-.21V259Z"/><path class="cls-2" d="M192.05,266.52A13.52,13.52,0,0,1,192,265a3.06,3.06,0,0,1-2.67,1.62,2,2,0,0,1-2-1.26,7.34,7.34,0,0,1-.21-2.33v-2.47c0-.78-.06-1.1-.22-1.23s-.23-.12-.51-.14h-.27v-.33l2.32-.15c-.07,1.4-.09,1.76-.09,2.79v1.31a7,7,0,0,0,.21,2.44,1.16,1.16,0,0,0,1.22.84,2.17,2.17,0,0,0,2-1.45,3.76,3.76,0,0,0,.27-1.77v-2.31c0-.8,0-1.08-.23-1.22a.79.79,0,0,0-.51-.15H191v-.33l2.33-.15c-.05,1.13-.08,2.12-.08,2.79v2.84c0,1.5.14,1.76.92,1.76h.1v.34Z"/><path class="cls-2" d="M199.1,258.68c0,.87-.09,2.17-.09,2.8v3.06c0,1.4.08,1.52,1.08,1.54v.34h-3.42v-.34c1,0,1.11-.14,1.11-1.54v-4c0-.75-.06-1.1-.22-1.23s-.36-.14-.89-.14v-.33Zm-.75-3.18a.85.85,0,1,1-.85.84A.83.83,0,0,1,198.35,255.5Z"/><path class="cls-2" d="M202.94,264.05h.47a2.36,2.36,0,0,0,.42,1.39,1.91,1.91,0,0,0,1.63.81c1,0,1.64-.52,1.64-1.41a1.2,1.2,0,0,0-.36-.87,6.35,6.35,0,0,0-1.68-.84c-1.62-.7-2.12-1.24-2.12-2.26a2.12,2.12,0,0,1,2.27-2.24,6.55,6.55,0,0,1,1.39.18l.32,0a3.29,3.29,0,0,0,.72-.1l-.08,2.37h-.49c0-1.34-.69-2.13-1.79-2.13a1.35,1.35,0,0,0-1.53,1.33.94.94,0,0,0,.41.81,7.08,7.08,0,0,0,1.56.78,4.38,4.38,0,0,1,1.72,1,2.07,2.07,0,0,1,.5,1.43,2.15,2.15,0,0,1-2.33,2.26,7.73,7.73,0,0,1-1.5-.18,3.84,3.84,0,0,0-.55,0,4,4,0,0,0-.68.06Z"/><path class="cls-2" d="M213.2,258.68c0,.87-.09,2.17-.09,2.8v3.06c0,1.4.08,1.52,1.08,1.54v.34h-3.42v-.34c1,0,1.11-.14,1.11-1.54v-4c0-.75-.06-1.1-.22-1.23s-.36-.14-.89-.14v-.33Zm-.75-3.18a.85.85,0,1,1-.85.84A.83.83,0,0,1,212.45,255.5Z"/><path class="cls-2" d="M219,260.22a2.7,2.7,0,0,1,2.64-1.59,2.08,2.08,0,0,1,2,.93,3.21,3.21,0,0,1,.39,1.88v3.1c0,1.41.08,1.52,1.1,1.54v.34h-3.41v-.34c.5,0,.77-.07.89-.22a.84.84,0,0,0,.15-.49c0-.17,0-.72,0-.83v-3a3.84,3.84,0,0,0-.24-1.62,1.33,1.33,0,0,0-1.32-.8,1.91,1.91,0,0,0-1.69,1A3.57,3.57,0,0,0,219,262v2.59c0,1.41.07,1.52,1.09,1.54v.34h-3.42v-.34c1,0,1.1-.14,1.1-1.54v-4c0-1.12-.18-1.35-1-1.35v-.33l2.27-.16Z"/><path class="cls-2" d="M229,262.19a6,6,0,0,0,.34,2.25,2.27,2.27,0,0,0,2.25,1.64,2.71,2.71,0,0,0,2.48-1.69l.34.2a3.24,3.24,0,0,1-3.16,2,3.58,3.58,0,0,1-3.62-3.88c0-2.43,1.44-4.1,3.56-4.1a2.89,2.89,0,0,1,2.86,1.91,4.72,4.72,0,0,1,.24,1.65Zm4-.41a3.92,3.92,0,0,0-.29-1.66,1.62,1.62,0,0,0-1.54-1.11,1.94,1.94,0,0,0-1.73,1.17,4.25,4.25,0,0,0-.4,1.6Z"/><path class="cls-1" d="M96.26,3.06a8.54,8.54,0,0,1,.78-.9c.5.4.64.5,1.09.88.13.13.18.2.18.29s-.14.25-.59.47V7.08c0,6.24,0,6.48.13,9.34,0,.16-.06.22-.18.25a4.17,4.17,0,0,1-1,.13c-.15,0-.2-.06-.2-.22V15.27H88.09v1.2a.23.23,0,0,1-.18.24c-.09,0-.62.05-.81.05s-.35-.05-.35-.21v0c.06-2.18.09-5,.09-7,0-4.39,0-6.48-.07-7.53.69.42.9.56,1.57,1h2A11.39,11.39,0,0,0,91.18,0c2.07.54,2.13.56,2.13.74s-.16.21-.83.36c-.2.23-.34.43-.43.54a10.64,10.64,0,0,1-1.21,1.42Zm.22,3.73V3.47H88.09V6.79Zm-8.39.41v3.51h8.39V7.2Zm0,3.93v3.72h8.39V11.13Z"/><path class="cls-1" d="M92.44,25.25a18,18,0,0,1-1.71,1.41,7.68,7.68,0,0,1,1.75,1.76A7.57,7.57,0,0,1,93.74,33c0,1.53-.18,2.24-.74,2.83-.41.45-.79.61-2,.83-.1-.9-.36-1-2.64-1.53v-.27c.84.11,2.52.21,3.15.21s.77,0,.88-.39a8.57,8.57,0,0,0,.23-2.18A10.34,10.34,0,0,0,92.53,31a16.16,16.16,0,0,1-2.41,1.83,27.58,27.58,0,0,1-3.89,2.06,13.06,13.06,0,0,1-2,.65l-.1-.26A25.75,25.75,0,0,0,89.8,32a20.27,20.27,0,0,0,2.48-2.25,4.29,4.29,0,0,0-.45-1.13,21.3,21.3,0,0,1-2.59,1.83,20,20,0,0,1-2.88,1.46,12.66,12.66,0,0,1-2,.63l-.14-.23a24.2,24.2,0,0,0,4.66-2.67,17.42,17.42,0,0,0,2.3-1.94c-.23-.25-.32-.32-.77-.76a17.31,17.31,0,0,1-1.93,1.16,15.15,15.15,0,0,1-3.8,1.47l-.12-.23A22.34,22.34,0,0,0,89,26.77a13.86,13.86,0,0,0,1.8-1.52H88.27a8,8,0,0,0-1.55.13l-.22-.74a9.54,9.54,0,0,0,2,.2h7.11a11.28,11.28,0,0,1,.89-1.1c.7.54.91.7,1.63,1.28a.25.25,0,0,1,.09.15s-.07.08-.18.08H93.72a15.64,15.64,0,0,0,1.37,3.8,11.74,11.74,0,0,0,2.56-2.84,12.79,12.79,0,0,1,1.65.94.22.22,0,0,1,.13.19c0,.11-.22.2-.52.2l-.54,0a18,18,0,0,1-3.13,1.84,10.85,10.85,0,0,0,2.23,2.86,10.33,10.33,0,0,0,3.13,2.07l-.11.24a2.32,2.32,0,0,0-.45-.06c-.47,0-.77.22-1.22.87a11.7,11.7,0,0,1-2.5-2.59,15.29,15.29,0,0,1-2.51-5.5,16.27,16.27,0,0,1-.48-2Zm-.82-3v-.9a8.54,8.54,0,0,0,0-1.06c.41.05.74.07,1,.09.71,0,1.14.14,1.14.3s-.31.29-.76.38v1.19h5.24a5.24,5.24,0,0,1,.74-.83,14.85,14.85,0,0,1,1.6,1.24c.09.07.13.13.13.2s0,.07-.11.11l-.43.09c-.25,0-.47.07-.67.11-.63.45-.84.61-1.55,1.17l-.21-.13a7.75,7.75,0,0,0,.65-1.55H86.36a4.14,4.14,0,0,1-.69,2.18c-.25.38-.55.61-.77.61s-.63-.61-.63-1.1c0-.14,0-.21.34-.45a3.54,3.54,0,0,0,1-1.33,4.22,4.22,0,0,0,.46-1.51h.26c0,.34,0,.67,0,.77s0,.24,0,.42Z"/><path class="cls-1" d="M90.43,54.29c1.53-.2,2.32-.32,3.69-.59l0,.23a49.08,49.08,0,0,1-6.78,1.89c0,.13-.06.22-.08.29-.05.29-.14.41-.25.41s-.16-.09-.23-.23a3.29,3.29,0,0,1-.16-.65l-.11-.48c0-.18-.06-.36-.09-.53a27.83,27.83,0,0,0,2.84-.21V52.67a21,21,0,0,1-5.15,1.73l-.1-.27a23.47,23.47,0,0,0,6.37-3.19H85.93c-.18,0-.8.06-1.3.13l-.2-.74a3,3,0,0,0,.79.13,5.49,5.49,0,0,1,.72.07h6v-.6a3.76,3.76,0,0,0-.11-1c1.74.07,2,.13,2,.29s-.18.23-.75.4v.86H98c.39-.52.5-.67.9-1.17a15.89,15.89,0,0,1,1.63,1.2c.09.1.13.17.13.22s-.11.16-.25.16H93a6.83,6.83,0,0,0,2.07,2.15,8.52,8.52,0,0,0,1.87-2c.27.09.54.22,1.17.49.38.16.47.23.47.36a.19.19,0,0,1-.21.18h-.06l-.56,0a18.26,18.26,0,0,1-2.35,1.17,11.71,11.71,0,0,0,5.38,1.41l0,.28a1.31,1.31,0,0,0-1.15,1.16,8.11,8.11,0,0,1-3.33-1.3,9.94,9.94,0,0,1-3.71-3.91h-.42a11.87,11.87,0,0,1-1.74,1.16ZM88.5,42.08a11.61,11.61,0,0,0,0-1.78c.36.06.65.07.83.09.82.09,1,.13,1,.29s0,.13-.67.5v.9h1.46c.3-.41.41-.54.75-1a16.4,16.4,0,0,1,1.32,1.15s.05.06.05.08-.11.16-.29.16H89.6v1.4h2.21c.31-.41.4-.52.72-.92a11.58,11.58,0,0,1,1.25,1.12.21.21,0,0,1,0,.09c0,.07-.11.13-.23.13h-4v1.31h1.93a6.21,6.21,0,0,1,.52-.63l1.08.63c.07.06.09.09.09.15s-.11.23-.54.5v.34l0,1.19V48c-.11.49-.33.63-1.5.9,0-.43-.09-.59-.27-.72l-.83-.28v-.2c.13,0,.56,0,1.34.07.16,0,.21-.07.21-.29V46.05H89.6c0,2.37,0,2.37,0,3.31,0,.12,0,.18-.15.21a4,4,0,0,1-.81.1c-.14,0-.2-.08-.23-.31,0-1.59,0-2.11.07-3.31H86.65v3.2c0,.09,0,.13-.09.16a3.38,3.38,0,0,1-.8.09c-.16,0-.21,0-.25-.18,0-.34.06-1.42.06-3.11,0-.13,0-.27,0-1.21l1.33.63h1.66V44.32H85.69a6.78,6.78,0,0,0-1.2.12l-.18-.66a11.88,11.88,0,0,0,1.38.12h2.83l0-1.4H86.21A9,9,0,0,1,85,43.69l-.16-.15a9.61,9.61,0,0,0,1.42-3.15c1.28.33,1.6.45,1.6.61s-.12.18-.75.33a7.71,7.71,0,0,1-.52.75Zm7.94-.68c0,.13-.12.2-.74.43,0,.34,0,.47,0,.7,0,.78,0,4.13,0,4.78a.16.16,0,0,1-.14.19c-.15,0-.81.11-.92.11s-.16,0-.16-.12v-.08c0-1.08,0-1.56,0-2.55,0-2.29,0-3.5-.07-3.91C96,41.09,96.44,41.2,96.44,41.4Zm-.93,6.75a12.79,12.79,0,0,0,1.35.06c.61,0,.61,0,.91,0s.26,0,.26-.34V42.19c0-.41,0-1.44,0-1.92,1.82.21,2,.27,2,.45s-.21.27-.79.52c0,.57,0,.57,0,1.83s0,2.63,0,4.07v1.19c0,.54-.18.72-.72,1a6.12,6.12,0,0,1-1.14.34,1,1,0,0,0-.5-.83,2.63,2.63,0,0,0-.85-.25l-.32-.06-.23,0Z"/><path class="cls-1" d="M97.45,66.6c.56-.61.74-.83,1.28-1.4a19.15,19.15,0,0,1,1.8,1.51c.07.09.11.14.11.18s-.08.13-.18.13H93.07a13.5,13.5,0,0,0,2,2.52,13.17,13.17,0,0,0,3.24,2.26,11.29,11.29,0,0,0,2.4.89l0,.21a1.34,1.34,0,0,0-1,.49,1.94,1.94,0,0,0-.42.85,14.58,14.58,0,0,1-4.1-3.35,19.84,19.84,0,0,1-2.43-3.6l0,2.8c0,2.56.06,4.06.13,5.69a.26.26,0,0,1-.09.24,2.11,2.11,0,0,1-.94.14c-.23,0-.32-.09-.34-.27,0-1.35,0-1.35.09-5.58V67.84A19.43,19.43,0,0,1,88,72a15,15,0,0,1-3.78,2.46l-.12-.21A21.8,21.8,0,0,0,88.74,70a23.19,23.19,0,0,0,2.08-3h-5a4.23,4.23,0,0,0-1.12.14l-.14-.72a4.22,4.22,0,0,0,1.3.16h5.74V62.1c0-.63,0-1.12-.13-2.09,1.89.22,2.09.25,2.09.45s-.16.24-.74.36V66.6ZM86.61,61.15a14,14,0,0,1,2.14,1.78c.58.59.85,1,.85,1.37,0,.59-.43,1.37-.74,1.37-.16,0-.27-.15-.41-.55a12.31,12.31,0,0,0-2-3.79ZM93.79,66a23.32,23.32,0,0,0,1.88-2.92,16,16,0,0,0,1-2.09c1.5.65,2,.9,2,1.08s-.17.2-.69.2h-.25A23.23,23.23,0,0,1,94,66.13Z"/><path class="cls-1" d="M92.43,80.19c1.87.9,2.61,1.64,2.61,2.61,0,.43-.2.69-.54.69-.11,0-.15,0-.56-.19a8.87,8.87,0,0,0-2-.41c-1.23-.14-2.38-.23-2.79-.23s-.69.19-.69.5A13.39,13.39,0,0,0,89.69,86a28,28,0,0,1,3.15-1.46,9.36,9.36,0,0,1,3.46-.72c2.18,0,3.72,1.17,3.72,2.85a3.06,3.06,0,0,1-.91,2,4,4,0,0,1-2.87,1,6.91,6.91,0,0,1-4.08-1.35l.12-.27a7.38,7.38,0,0,0,3.15.76,3.47,3.47,0,0,0,2.7-1,2.3,2.3,0,0,0,.58-1.54c0-1.25-.94-2-2.59-2a7.57,7.57,0,0,0-3.41,1c-.84.42-1.67.87-2.66,1.46.86,1.75,1.4,3,2,4.48a8.64,8.64,0,0,1,.88,3c0,.77-.34,1.35-.83,1.35a.47.47,0,0,1-.29-.18,1.55,1.55,0,0,1-.23-.8,31,31,0,0,0-2.23-7.41c-1,.68-1.64,1.11-1.86,1.26L87,88.8a.86.86,0,0,1-.63.27,2.42,2.42,0,0,1-1.9-2,.72.72,0,0,1,.07-.3c.41.61.84.93,1.26.93A9.21,9.21,0,0,0,89,86.35a10.85,10.85,0,0,0-1.24-2.22c-.33-.43-.38-.54-.38-.77a1.43,1.43,0,0,1,1.35-1.23,1.48,1.48,0,0,1,.56.09,1.83,1.83,0,0,0,.47.06l1.44,0h1.35c1,0,1.18,0,1.18-.23,0-.36-.63-1.06-1.45-1.66Z"/><path class="cls-1" d="M85,112.92a21.08,21.08,0,0,0,3.43-2.74,27.62,27.62,0,0,0,4.41-5.27,20.48,20.48,0,0,0-4.45,1,1.47,1.47,0,0,1-.58.14,2.1,2.1,0,0,1-1.37-1,2.21,2.21,0,0,1-.52-1,.4.4,0,0,1,.07-.21,2.32,2.32,0,0,0,1.86.95c.74,0,3.76-.38,5.67-.7a8.1,8.1,0,0,0-.27-2.7,2,2,0,0,0-1.37-.83c.15-.18.22-.2.6-.2a5.1,5.1,0,0,1,2,.51c.39.19.52.34.52.64a.78.78,0,0,1-.11.4,5.39,5.39,0,0,0-.36,2,9.22,9.22,0,0,0,2.72-.64,1,1,0,0,1,.38-.09c.54,0,1.58.66,1.58,1s-.16.32-.61.32l-.63,0-1,0c-.58,0-1.14,0-2.47.17,0,.23,0,.45,0,.56,0,1.56.11,3.6.29,5.81.07.88.11,1.55.11,2,0,1-.47,1.9-.94,1.9a.54.54,0,0,1-.5-.37,1.81,1.81,0,0,0-.65-.87,15.09,15.09,0,0,0-2.52-1.49l.09-.24c1.64.51,2.48.74,3.29.94,0-.36,0-1.24,0-2.23,0-.45,0-1,0-1.7,0-1.17,0-2,0-2.39,0-.16,0-.43,0-.77a17.49,17.49,0,0,1-2.81,3.33,20.36,20.36,0,0,1-5.69,4Z"/><path class="cls-1" d="M88.05,121.28a4,4,0,0,1,1.69.56c.31.2.47.42.47.63s0,.24,0,.4A22.83,22.83,0,0,0,90,126c0,.23,0,.64,0,1.36V128a4.91,4.91,0,0,1-.05,1c0,.25-.18.39-.36.39s-.47-.21-.68-.61a2.45,2.45,0,0,1-.33-1,1.52,1.52,0,0,1,.07-.39,11.2,11.2,0,0,0,.24-2.94c0-1.31-.07-1.74-.34-2.16s-.38-.47-1.07-.77A.83.83,0,0,1,88.05,121.28Zm1.89,13.63a11.1,11.1,0,0,0,3.64-3.58c1-1.71,1.28-3.26,1.28-7.51,0-1.8-.07-2.37-.34-2.72a2.29,2.29,0,0,0-1.3-.64.9.9,0,0,1,.74-.27,5.26,5.26,0,0,1,1.83.5c.45.22.65.45.65.72s0,.13-.11.43a21,21,0,0,0-.3,3.86,13.41,13.41,0,0,1-.58,4.5,9,9,0,0,1-5.36,5Z"/><path class="cls-1" d="M85.57,145.05a9.47,9.47,0,0,1,3.15,1.06,1.28,1.28,0,0,1,.68,1.19c0,.46-.23.86-.5.86s-.29-.07-.56-.41a8.71,8.71,0,0,0-2.88-2.47Zm13.9-.45a21.72,21.72,0,0,1-2.69,3.07A39.55,39.55,0,0,1,90,152.91a10.33,10.33,0,0,0-1.39,1,.58.58,0,0,1-.41.18c-.36,0-.78-.34-1.28-1.08a3,3,0,0,1-.56-1.38.67.67,0,0,1,.16-.42c.35.69.85,1.12,1.35,1.12a11.75,11.75,0,0,0,3.46-1.76,41.67,41.67,0,0,0,8-6.13Zm-11.92-2.74c2.88.68,3.8,1.24,3.8,2.29,0,.5-.22.9-.49.9s-.2,0-1-1a8.06,8.06,0,0,0-2.47-2Zm7.7-1.55a8.06,8.06,0,0,1,1.61,1.1c.64.59.9,1,.9,1.44s-.26.76-.56.76-.24,0-.81-1.18A7.62,7.62,0,0,0,95,140.54Zm1.86-1.06a8.64,8.64,0,0,1,1.73,1c.68.52.91.88.91,1.39s-.18.74-.45.74-.27-.09-.41-.36a9,9,0,0,0-2-2.56Z"/><path class="cls-1" d="M88.09,174.55a11.79,11.79,0,0,0,2.79-3.85,15,15,0,0,0,1.17-5.3,15.45,15.45,0,0,0-4.16,1,1.28,1.28,0,0,1-.58.15,1.81,1.81,0,0,1-1.19-.73,2.13,2.13,0,0,1-.63-1.11.55.55,0,0,1,.09-.27,2,2,0,0,0,1.63.9,20.42,20.42,0,0,0,3.11-.42c.59-.09,1.06-.16,1.76-.23,0-.5,0-.77,0-1.4,0-1.57-.09-2-.48-2.36a2.17,2.17,0,0,0-1.21-.47.87.87,0,0,1,.74-.27,5.43,5.43,0,0,1,2.19.52c.35.18.47.33.47.58a.77.77,0,0,1-.11.38,9.51,9.51,0,0,0-.41,2.88c.32,0,1.31-.13,2.4-.22a5.19,5.19,0,0,0,1.45-.27.84.84,0,0,1,.38-.09,2,2,0,0,1,.87.22c.63.3.93.57.93.86a.36.36,0,0,1-.38.36,1.16,1.16,0,0,1-.23,0,17.5,17.5,0,0,0-3.17-.27,21.93,21.93,0,0,0-2.27.13,12.88,12.88,0,0,1-1.71,6.21,10.87,10.87,0,0,1-3.31,3.31Z"/><path class="cls-1" d="M85,193a10.72,10.72,0,0,0,2.41-3.42,13.83,13.83,0,0,0,1.24-4.88c0-.7-.3-1.06-1.22-1.41a.79.79,0,0,1,.48-.16,2.81,2.81,0,0,1,1.36.45c.66.4,1,.71,1,1a2.58,2.58,0,0,1-.24.83,4.86,4.86,0,0,1-.18.63,16.5,16.5,0,0,1-1.22,3.31,9.19,9.19,0,0,1-3.4,3.86Zm15.37-7.18a12,12,0,0,1-2,2.53,25,25,0,0,1-3.82,3.3,9.8,9.8,0,0,0-1,.81c-.15.14-.24.2-.36.2-.42,0-1.08-.94-1.08-1.5a4.24,4.24,0,0,1,.12-.56,34.82,34.82,0,0,0,.17-4.87c0-4.09-.08-4.33-1.39-4.61a.62.62,0,0,1,.58-.27,3.25,3.25,0,0,1,1.58.55c.52.33.74.58.74.83a1.38,1.38,0,0,1-.15.49,8.3,8.3,0,0,0-.25,1.76c-.07.76-.23,4.74-.23,5.42,0,.24,0,.43,0,.83a20.37,20.37,0,0,0,6.81-5.09Z"/><path class="cls-1" d="M93.52,205.89v-3.48h-2c-.34,0-.61,0-.81,0a2.05,2.05,0,0,0-.54.05l-.13-.68a5.72,5.72,0,0,0,1.48.18h2v-1.95a12.6,12.6,0,0,0-.07-1.62c.38.06.69.07.87.09.9.06,1.15.13,1.15.31s-.2.25-.7.38V202h2.3a10.68,10.68,0,0,1,.94-1.12c.68.5.88.68,1.53,1.24a.51.51,0,0,1,0,.17c0,.07-.07.12-.18.12H94.77v3.48h2.77l1-1.21,1.58,1.31a.29.29,0,0,1,.07.17.17.17,0,0,1-.16.14H95a9.58,9.58,0,0,0,.7,1.21,10.13,10.13,0,0,0,3.1,3.15,9.27,9.27,0,0,0,2.35,1.1l0,.23a1.7,1.7,0,0,0-1.28,1.13,9.87,9.87,0,0,1-3.13-3,14.47,14.47,0,0,1-1.89-3.56v3.13c0,3.1,0,3.1,0,4.79,0,.16-.09.22-.22.25a2.25,2.25,0,0,1-.7.09c-.23,0-.32-.07-.32-.25v-.05c0-2.36,0-4,.07-4.83v-2.23a15.79,15.79,0,0,1-3.6,4.11,15.61,15.61,0,0,1-3.51,2.28l-.22-.23a21.1,21.1,0,0,0,4.11-3.48A14.38,14.38,0,0,0,93,206.3H89.46v.79c0,1.28,0,1.33,0,2,0,.31-.18.38-.84.38-.2,0-.27-.07-.27-.27v-.84H86.07V210c0,.27-.16.32-.67.34h-.18c-.23,0-.32-.06-.36-.22,0-1.6.06-4.3.06-6.07,0-1.55,0-2.86-.07-3.89.64.33.84.42,1.44.76h2l.65-.76,1.06.74c.13.13.18.2.18.27a.34.34,0,0,1-.07.15,6.08,6.08,0,0,1-.63.39c0,2.18,0,3.59,0,4.22ZM86.07,208h2.29v-6.7H86.07Z"/><path class="cls-1" d="M86.07,230c0,.18,0,.24-.18.27a1.87,1.87,0,0,1-.63.09c-.29,0-.38-.05-.4-.21.06-2.78.08-4.13.08-6,0-2.34,0-3.68-.08-4.41a5.31,5.31,0,0,1,1.34.75h1.4a8,8,0,0,1,.65-.75l1,.75c.12.11.18.18.18.25a.32.32,0,0,1-.11.18s-.14.09-.23.17a.69.69,0,0,0-.24.14c0,4.79,0,6.14.06,7.9,0,.22-.11.27-.54.31-.18,0-.29,0-.35,0h0c-.15,0-.22-.07-.24-.24v-.86H86.07Zm0-2h1.69v-7H86.07Zm12.15-6.38c.29-.3.4-.39.72-.68.44.29.58.38,1,.68.12.11.18.18.18.27s-.11.2-.49.34c0,1.43,0,2.74,0,4.81,0,.25-.18.33-.63.34h-.26c-.18,0-.25,0-.27-.19v-.27H91.17v.27c0,.21-.17.28-.63.28H90.3c-.21,0-.29-.07-.3-.23V226l0-1.92c0-1.39,0-2.63,0-3.32a7.88,7.88,0,0,1,1.19.83h4.34A17.44,17.44,0,0,0,97,218.3c1.67.53,1.87.6,1.87.76a.18.18,0,0,1-.09.14,3.57,3.57,0,0,1-.69.11l-.55.61a18.8,18.8,0,0,1-1.68,1.64Zm-1,6.72a8.2,8.2,0,0,1,.58-.74c.43.32.56.41.93.72a.68.68,0,0,1,.18.23c0,.15-.12.27-.45.45V230c0,1.3,0,3.47.06,4.23,0,.25-.24.34-.85.34-.29,0-.38-.05-.38-.25a.07.07,0,0,0,0-.05v-.69H92.12v.67c0,.27-.23.34-.85.34-.21,0-.3-.07-.3-.29,0-1.8,0-2.81,0-3,0-.94,0-3,0-3.71.57.32.74.41,1.24.74ZM94.12,224v-2h-3v2Zm0,.41h-3v2.05h3Zm-2.67-6a8.08,8.08,0,0,1,1.75,1.06c.47.41.61.61.61.9,0,.45-.34,1.08-.57,1.08s-.22-.06-.49-.67a8.27,8.27,0,0,0-1.4-2.27Zm.67,12.71v2.07h5.19v-2.07Zm5.19-.42v-2H92.14v2ZM98.49,222H95.2v2h3.29Zm-3.29,2.41v2.05h3.29v-2.05Z"/><path class="cls-1" d="M96.44,238.32a16.12,16.12,0,0,1,3.51,1.73,1.82,1.82,0,0,1,1,1.57c0,.61-.33,1.2-.67,1.2a.52.52,0,0,1-.23-.11c-.13-.1-.13-.1-.92-1.29a14.36,14.36,0,0,0-2.77-2.87Z"/><path class="cls-1" d="M88.05,273.21a24.55,24.55,0,0,0,5.94-6.9,17.57,17.57,0,0,0,2.15-4.81c0-.18-.09-.23-.36-.23a30.25,30.25,0,0,0-3.34.61,20.22,20.22,0,0,0-3.29,1,1.56,1.56,0,0,1-.67.18c-.36,0-.84-.36-1.27-1a2,2,0,0,1-.47-1.12.61.61,0,0,1,.12-.38,1.72,1.72,0,0,0,1.7,1,47.23,47.23,0,0,0,5.11-.74,6.39,6.39,0,0,0,2.09-.5c.21-.13.21-.13.36-.13a2.7,2.7,0,0,1,1.31.83c.38.38.56.65.56.86s0,.25-.25.49a2.91,2.91,0,0,0-.61,1,26.27,26.27,0,0,1-5.21,7.29,18.31,18.31,0,0,1-3.71,2.68Z"/><path class="cls-1" d="M85,292a10.72,10.72,0,0,0,2.41-3.42,13.83,13.83,0,0,0,1.24-4.88c0-.7-.3-1.06-1.22-1.41a.79.79,0,0,1,.48-.16,2.81,2.81,0,0,1,1.36.45c.66.4,1,.71,1,1a2.58,2.58,0,0,1-.24.83,4.86,4.86,0,0,1-.18.63,16.5,16.5,0,0,1-1.22,3.31,9.19,9.19,0,0,1-3.4,3.86Zm15.37-7.18a12,12,0,0,1-2,2.53,25,25,0,0,1-3.82,3.3,9.8,9.8,0,0,0-1,.81c-.15.14-.24.2-.36.2-.42,0-1.08-.94-1.08-1.5a4.24,4.24,0,0,1,.12-.56,34.82,34.82,0,0,0,.17-4.87c0-4.09-.08-4.33-1.39-4.61a.62.62,0,0,1,.58-.27,3.25,3.25,0,0,1,1.58.55c.52.33.74.58.74.83a1.38,1.38,0,0,1-.15.49,8.3,8.3,0,0,0-.25,1.76c-.07.76-.23,4.74-.23,5.42,0,.24,0,.43,0,.83a20.37,20.37,0,0,0,6.81-5.09Z"/><path class="cls-1" d="M91.81,301.39c0-1.29,0-1.67-.28-2a1.94,1.94,0,0,0-1-.61.73.73,0,0,1,.57-.23,3.84,3.84,0,0,1,1.62.52c.6.3.78.48.78.77s0,.25-.26.56S93,301.5,93,308.36c0,3.8-.13,4.45-.72,4.45-.16,0-.29-.13-.38-.36a7.19,7.19,0,0,1-.16-2.24Z"/><path class="cls-1" d="M86.3,321a9.86,9.86,0,0,1,2.76,2,1.48,1.48,0,0,1,.45,1c0,.56-.4,1.23-.74,1.23-.14,0-.25-.13-.38-.45a12.2,12.2,0,0,0-2.23-3.62Zm2.18,11.54a17.8,17.8,0,0,0,3.42-3,23.36,23.36,0,0,0,4.43-7,3.33,3.33,0,0,0,.35-1.26c0-.49-.31-.81-1.12-1.14A.71.71,0,0,1,96,320a3.7,3.7,0,0,1,1.83.72c.47.31.69.58.69.88s0,.24-.24.47a9.09,9.09,0,0,0-.91,1.55A24.69,24.69,0,0,1,94.53,328a16.85,16.85,0,0,1-5.85,4.79ZM90.25,320c1.92,1,2.93,2,2.93,2.74s-.32,1.33-.68,1.33-.24-.06-.6-1a8.64,8.64,0,0,0-1.81-2.88Z"/><path class="cls-1" d="M85.69,340.78a2.89,2.89,0,0,0,2.27,1,8.06,8.06,0,0,0,1.64-.21,7.53,7.53,0,0,0,.65-2.56c0-.6-.29-1-1.15-1.39a.71.71,0,0,1,.43-.12A3.79,3.79,0,0,1,91,338c.61.31.84.5.84.76a.71.71,0,0,1-.18.46c-.07.15-.45.89-1.09,2.22a4.68,4.68,0,0,0,2-1,.45.45,0,0,1,.38-.15c.7,0,1.23.24,1.23.54,0,.47-1.12.92-4,1.59-.16.36-.47,1.1-1,2.18-.54,1.24-1.92,4.27-2.09,4.57-.27.49-.43.65-.64.65s-.56-.56-.56-1.28c0-.36,0-.47.2-.65a8.08,8.08,0,0,0,.86-1.08,24,24,0,0,0,2.25-4.23,4.64,4.64,0,0,1-.84.07,2.93,2.93,0,0,1-1.59-.37,3.68,3.68,0,0,1-1.31-1.32Zm9.53,1a6.28,6.28,0,0,1,3.08,1c.7.45,1.13,1,1.13,1.4a.47.47,0,0,1-.47.52.65.65,0,0,1-.41-.14,2.83,2.83,0,0,0-1.77-.38c-1.44,0-1.89.4-1.89,1.64a26,26,0,0,0,.36,3.1,7.88,7.88,0,0,1,2.56,1.17,1.69,1.69,0,0,1,.72,1.42c0,.36-.14.61-.36.61s-.25-.05-.63-.47a6.55,6.55,0,0,0-2.18-1.58v.34a2,2,0,0,1-.5,1.53,3.32,3.32,0,0,1-2.34.77c-1.62,0-2.74-.77-2.74-1.9s1.37-2.15,3.37-2.15a6,6,0,0,1,1.08.09c-.06-1.42-.06-1.56-.06-1.78,0-1.48.15-2,.63-2.57a3.41,3.41,0,0,1,1.71-.85c.27-.07.31-.09,1-.23a5.06,5.06,0,0,0-2.33-1.25Zm-1,7.88a5.13,5.13,0,0,0-1.55-.21c-1.53,0-2.47.52-2.47,1.36,0,.67.68,1.07,1.8,1.07,1.46,0,2.22-.6,2.22-1.73Z"/><path class="cls-1" d="M89.33,357.79a5.83,5.83,0,0,1,1.82.34c.36.14.5.3.5.57v0c0,.13,0,.14-.14.47a13.66,13.66,0,0,0-.4,3.64c0,1.06.15,1.33.7,1.33a7,7,0,0,0,2.42-.9,1.59,1.59,0,0,1,.74-.22.88.88,0,0,1,.86.76.58.58,0,0,1-.38.54c-.12.05-.38.14-1.2.38a12.39,12.39,0,0,0-4.51,2,2.91,2.91,0,0,0-1.4,2.31c0,1.29,1,2,3,2a20.75,20.75,0,0,0,4.18-.54,1.44,1.44,0,0,1,.36-.05,1,1,0,0,1,1,.88c0,.34-.19.48-.77.61a27.75,27.75,0,0,1-3.46.23,9.25,9.25,0,0,1-3.06-.41,2.87,2.87,0,0,1-2-2.68,4.08,4.08,0,0,1,1.76-3,12.85,12.85,0,0,1,2.2-1.44h-.07a1.14,1.14,0,0,1-.79-.27c-.45-.38-.58-1-.65-3.53,0-1.53-.07-1.78-.22-2.07s-.56-.54-1.29-.66A1,1,0,0,1,89.33,357.79Zm6.45.9a9.28,9.28,0,0,1,1.6,1.11c.65.6.9,1,.9,1.44s-.25.76-.56.76-.23,0-.81-1.17a8.42,8.42,0,0,0-1.37-1.91Zm1.85-1.05a7.93,7.93,0,0,1,1.71,1c.7.52.94.88.94,1.38s-.18.74-.45.74-.27-.09-.42-.34a9.23,9.23,0,0,0-2-2.57Z"/><path class="cls-1" d="M56.12,3.33c.32-.41.41-.54.73-.94.56.42.72.54,1.21.94.14.11.2.18.2.23s-.18.29-.65.53c-.25,5.09-.27,5.29-.49,7.09-.28,2.52-.68,4-1.26,4.7-.41.5-1,.72-2.37.9-.13-.52-.27-.72-.63-.88a6.25,6.25,0,0,0-1.16-.27L51,15.5l-.7-.12v-.31c1.55.11,3.32.2,3.78.2a1,1,0,0,0,1.1-.74c.6-1.37,1-5.33,1.15-10.79h-10a18.56,18.56,0,0,1-4,4.74l-.21-.2A21.85,21.85,0,0,0,45.56,3a16.91,16.91,0,0,0,1-2.63c1.71.36,2.07.47,2.07.65s-.18.24-1,.42a16.23,16.23,0,0,1-1,1.94ZM51.31,6.26c.25-.32.34-.41.63-.75a8.55,8.55,0,0,1,1,.75c.15.11.2.19.2.22s-.13.22-.49.45v1c0,.72.06,4.6.08,5.35a.25.25,0,0,1-.18.25,3.74,3.74,0,0,1-.74.09c-.24,0-.33-.05-.35-.23v-.63H46.66V14c0,.27-.19.34-.86.34-.29,0-.38-.06-.4-.25.06-1.55.08-3.35.08-6.2,0-.52,0-1.35-.08-2.39a10.67,10.67,0,0,1,1.39.75Zm.12,2.89V6.68H46.66V9.15Zm-4.77.41v2.75h4.77V9.56Z"/><path class="cls-1" d="M50.25,34.94a8.16,8.16,0,0,0,4.21-2.5,6.42,6.42,0,0,0,1.6-4.34,4.47,4.47,0,0,0-2-4,6,6,0,0,0-3.12-.83,3.78,3.78,0,0,0-.63,0,2.36,2.36,0,0,1,.56,1.49c0,1.41-1,4-2.38,6.23-1.13,1.8-2,2.69-2.68,2.69a1.07,1.07,0,0,1-.79-.38,3.7,3.7,0,0,1-.51-1.15,11.08,11.08,0,0,0-.79-1.7,3.41,3.41,0,0,1-.41-1.64,5.62,5.62,0,0,1,1.62-3.56,8.72,8.72,0,0,1,6.19-2.52,6.85,6.85,0,0,1,4.65,1.65,5.53,5.53,0,0,1,1.73,4.24,6.21,6.21,0,0,1-3.59,5.45,10.66,10.66,0,0,1-3.51,1.12Zm-5.93-5.6A4.21,4.21,0,0,0,45,31.72c.25.32.49.52.69.52.39,0,1.26-1,2.14-2.38,1.33-2.12,2.29-4.44,2.29-5.56a2,2,0,0,0-.26-.9C46.77,24,44.32,26.57,44.32,29.34Z"/><path class="cls-1" d="M46,45.81c.36-.47.47-.63.83-1.08L48.16,46c.05.07.09.12.09.16s-.07.11-.16.11h-2.6V52c.85-.29,1.34-.49,2.69-1l.12.24a23.16,23.16,0,0,1-2.54,1.49c-1.42.74-1.49.79-2.57,1.37a3.89,3.89,0,0,0-.07.41c-.06.29-.15.44-.26.44s-.16,0-.7-1.91a15.36,15.36,0,0,0,2.18-.63V46.23h-1a6.3,6.3,0,0,0-1.15.1L42,45.68a4.77,4.77,0,0,0,1.27.13h1V42.88c0-.56,0-.78-.11-2.34,1.75.19,2,.27,2,.46s-.2.24-.76.38v4.43Zm6.12-.16c0-4.32,0-4.32-.09-5.42,1.72.23,1.72.23,1.9.34a.23.23,0,0,1,.09.15c0,.12-.08.16-.78.43v4.08l2.54-.93a9.17,9.17,0,0,1,.49-.94l1.31.74c.16.14.18.18.18.25s-.22.33-.59.58a36.56,36.56,0,0,1-.44,5.76,1.55,1.55,0,0,1-.63,1,2.7,2.7,0,0,1-1.15.36c-.07-.76-.38-1-1.42-1.23v-.29a13,13,0,0,0,1.49.11c.53,0,.62-.12.74-1.15A37.11,37.11,0,0,0,56,44.66l-2.74,1v3c0,1.67,0,2.34.07,4.16,0,.23-.23.3-.88.3-.25,0-.34,0-.36-.23,0-3.35,0-4,0-5.44V46.1L50,46.91v7.35c0,.25,0,.32.11.36a11.57,11.57,0,0,0,2.48.12c1,0,3,0,3.31-.05.67,0,.74-.07.94-.52a34.11,34.11,0,0,0,1.13-3.52l.27,0-.27,3.17c0,.29,0,.29,0,.31s0,.19.39.37a.41.41,0,0,1,.24.38c0,.38-.42.69-1.06.78a21.9,21.9,0,0,1-3,.1l-2.28,0c-3.06,0-3.39-.11-3.44-1.2l0-4v-3.3l-.66.26a3.78,3.78,0,0,0-1.08.55l-.36-.55a5.9,5.9,0,0,0,1.29-.4l.81-.29V44.53c0-1,0-1.38-.07-2.27,1.78.24,2,.27,2,.47s-.2.25-.74.42v3.31Z"/><path class="cls-1" d="M55.27,62c.43-.54.58-.69,1-1.19.74.54,1,.7,1.69,1.28.09.07.13.12.13.18s-.11.14-.24.14H53.16c1.55.61,1.64.65,1.64.81s0,.15-.84.31c-.42.47-1,1.06-1.79,1.8h3.42c.51-.6.67-.78,1.16-1.33.75.59,1,.77,1.71,1.42a.45.45,0,0,1,.09.16c0,.09-.11.16-.22.16H44.86a25.9,25.9,0,0,1-.52,5.73,11,11,0,0,1-2.43,4.64L41.69,76a9,9,0,0,0,1.14-2.57A25.52,25.52,0,0,0,43.55,66c0-.65,0-.88-.06-1.55a14.68,14.68,0,0,1,1.52,1h3.31c-.13-.07-.16-.11-.22-.29a6.3,6.3,0,0,0-1.36-2.45l.18-.14c1.36.66,2.14,1.29,2.14,1.78a2,2,0,0,1-.24.72.57.57,0,0,1-.36.38h3.28a12.14,12.14,0,0,0,1.32-2.92H45a11.18,11.18,0,0,0-1.62.13l-.2-.74A10.75,10.75,0,0,0,45,62H49.8v-.92a11,11,0,0,0-.08-1.35c2,.2,2.06.22,2.06.41s-.17.29-.71.49V62Zm-4.61,6.91V67.65c0-.45,0-.74,0-1.36,1.56.17,1.94.26,1.94.44s-.11.19-.7.43v1.78h2.79l1-1.11a19.06,19.06,0,0,1,1.62,1.22.32.32,0,0,1,.11.16c0,.07-.12.15-.27.15h-5.2v2.46h2.38c.43-.54.55-.7,1-1.22.68.56.9.74,1.6,1.35,0,0,.09.13.09.14a.17.17,0,0,1-.16.15h-4.9v3h3.74c.54-.58.71-.76,1.21-1.33.79.59,1,.79,1.85,1.44a.37.37,0,0,1,.1.18c0,.07-.08.12-.22.12H45.69c-.21,0-.63,0-1.24.11L44.32,75a7.3,7.3,0,0,0,1.37.16h5v-3H47.94a9.67,9.67,0,0,0-1.38.12l-.2-.72a9.33,9.33,0,0,0,1.58.18h2.72V69.36H47.29A11.74,11.74,0,0,1,45,72.06l-.16-.15a16.09,16.09,0,0,0,1.89-3.4,10.54,10.54,0,0,0,.67-2l.86.29c.67.2.86.31.86.45s-.09.18-.75.33a12.41,12.41,0,0,1-.78,1.4Z"/><path class="cls-1" d="M49.94,90.15a6.5,6.5,0,0,0,2.23,2.48,12.23,12.23,0,0,0,3.24-3.1c1.16.62,1.59.9,1.59,1.07s-.15.19-.34.19l-.49,0a16.36,16.36,0,0,1-3.67,2.09,12.77,12.77,0,0,0,6,1.8v.2c-.88.25-1.1.48-1.26,1.31a13.81,13.81,0,0,1-3.55-1.46A9.61,9.61,0,0,1,50,91.1a9.91,9.91,0,0,1-.41-.95H47.08v3.78a40.89,40.89,0,0,0,4.05-.87l0,.18a40.76,40.76,0,0,1-6.59,2.43c0,.51-.12.69-.28.69s-.17-.09-.24-.2-.14-.36-.25-.7c-.16-.56-.27-.9-.31-1,.76-.09,1.26-.14,2.33-.3v-8.9a22.62,22.62,0,0,1-3.73,2.18L42,87.14c3.26-2,6.44-5.19,7.63-7.58.4.09.7.18.88.23.85.2,1,.27,1,.45s-.13.2-.74.27a8.31,8.31,0,0,0,2.16,2.25,13.07,13.07,0,0,0,6,2.72v.24c-.63.09-.88.34-1.19,1.17a14.47,14.47,0,0,1-2.79-1.5l-.11.09,0,4.61c0,.16,0,.24-.13.29a3.8,3.8,0,0,1-.88.23c-.09,0-.14-.07-.18-.21v-.25Zm3.57-5.08.43-.41A15.06,15.06,0,0,1,52.25,83a10,10,0,0,1-1.73-2.32,19.53,19.53,0,0,1-4,4,2.44,2.44,0,0,1,.4.32h2.7v-.9a12.53,12.53,0,0,0-.11-1.28,5.11,5.11,0,0,1,1.73.25c.11.07.18.15.18.2s-.18.23-.63.41v1.32Zm.12,2.16V85.48H47.08v1.75Zm-6.55,2.5h6.55V87.64H47.08Z"/><path class="cls-1" d="M47,103.54c.36-.47.49-.62.87-1.07.59.53.77.69,1.33,1.21a.33.33,0,0,1,.07.16c0,.06-.07.11-.16.11H46.72v1.62a14.72,14.72,0,0,1,2,1.06c.51.33.65.53.65.92,0,.6-.2,1.08-.43,1.08s-.22-.07-.49-.52A10.58,10.58,0,0,0,46.72,106c0,1.15,0,2.5,0,4.08,0,2.8,0,3.12,0,5.5,0,.14,0,.21-.14.25a5.23,5.23,0,0,1-.94.09c-.13,0-.18-.06-.18-.16v0c0-.86,0-1.55,0-2,.06-1.76.06-1.76.09-4.66l.11-3.21A18.12,18.12,0,0,1,42.07,112l-.2-.16A24.89,24.89,0,0,0,44,107.75a19.11,19.11,0,0,0,1.3-3.8h-1.8a5.3,5.3,0,0,0-.94.09l-.1-.63a4.41,4.41,0,0,0,1,.13h2v-2.25c0-.49,0-.9-.07-1.79.38.06.67.09.87.11,1.11.13,1.29.18,1.29.36s-.12.24-.93.47v3.1Zm8.5,6.95c0,.86,0,1.51.05,2,0,.7,0,.74,0,1.37a1.56,1.56,0,0,1-.25,1.11,2.75,2.75,0,0,1-1.78.79,1,1,0,0,0-.45-.73,4.71,4.71,0,0,0-1-.31l-.79-.14-.85-.15,0-.29c1.53.08,1.77.08,3.6.11.25,0,.31-.07.31-.3l0-7,0-1.75a17,17,0,0,1-2.95,4.16,20.23,20.23,0,0,1-3.69,3.19l-.2-.22a21.25,21.25,0,0,0,4.32-4.9A21.7,21.7,0,0,0,53.78,104h-3a5.54,5.54,0,0,0-1,.11l-.11-.65a5.07,5.07,0,0,0,1.12.13h3.4v-2.25a8.75,8.75,0,0,0-.13-1.77l.81.07c1,.09,1.41.18,1.41.36s-.2.27-.88.51l.05,3.08h.77c.4-.56.53-.74.94-1.25.74.58,1,.76,1.64,1.39a.37.37,0,0,1,.05.15c0,.07-.07.12-.18.12H55.45Z"/><path class="cls-1" d="M44.2,122.44a3,3,0,0,0,2.25.84,9.57,9.57,0,0,0,1.92-.23,4.81,4.81,0,0,0,.63-1.84c0-.48-.34-.77-1.27-1a1.41,1.41,0,0,1,.81-.19,3.76,3.76,0,0,1,1.4.3c.45.18.65.38.65.6s-.07.25-.29.52-.38.54-.52.74l-.45.7a5.93,5.93,0,0,0,2.59-1.15.52.52,0,0,1,.34-.13c.71,0,1.21.25,1.21.59s-.23.4-.77.58a29.82,29.82,0,0,1-3.93,1c-.32.45-.54.77-1,1.4s-.63,1-1,1.44a4.91,4.91,0,0,1,2.33-.72,2,2,0,0,1,2,1.8c.31-.14.31-.14,1.77-.88,1.78-.9,2.21-1.19,2.21-1.51s-.3-.63-.83-.85a.9.9,0,0,1,.42-.11,2.53,2.53,0,0,1,2,1.82c0,.33-.14.45-.65.56a29,29,0,0,0-4.82,1.85c0,.58,0,.69,0,1.46a4.94,4.94,0,0,1-.15,1.55.57.57,0,0,1-.5.34.54.54,0,0,1-.58-.54,1.67,1.67,0,0,1,0-.3,18.15,18.15,0,0,0,.13-1.93,9.09,9.09,0,0,0-2.11,1.42,2.44,2.44,0,0,0-.88,1.68c0,1,1,1.44,3,1.44a12.77,12.77,0,0,0,3.62-.51,1.72,1.72,0,0,1,.35,0c.55,0,1.26.5,1.26.9,0,.23-.2.41-.56.49a20.59,20.59,0,0,1-3.23.25,9.34,9.34,0,0,1-3.65-.52,2,2,0,0,1-1.33-1.91A3.43,3.43,0,0,1,48,129.89a13.29,13.29,0,0,1,2.24-1.6,3,3,0,0,0-.26-1.42,1,1,0,0,0-.91-.54c-1.19,0-2.61,1-3.91,2.61-.34.46-.49.57-.67.57s-.48-.38-.48-.95c0-.38,0-.4.52-.81a14.63,14.63,0,0,0,3.35-3.87,6.93,6.93,0,0,1-1.21.11A2.92,2.92,0,0,1,44,122.6Z"/><path class="cls-1" d="M41.82,147.67a20.81,20.81,0,0,0,2.41-4.55,14,14,0,0,0,1.15-4.23c1.9.43,2.17.52,2.17.73s-.22.28-.81.35a26.45,26.45,0,0,1-2.24,4.64c1,.13,1.35.2,1.35.38s-.18.25-.56.36v6.72c0,.52,0,.52,0,3,0,.23-.21.3-.86.3-.4,0-.42,0-.43-.3.07-2.65.09-3.77.09-5v-4.79A12.35,12.35,0,0,1,42,147.84Zm7.51,1.39a.18.18,0,0,0,0,.09c0,.47.47,1.1,1.37,1.89a8.27,8.27,0,0,0,.81-2.95h-3v.48c0,.24-.2.31-.88.31-.24,0-.31,0-.31-.27,0-1,.06-2,.06-3.73a15,15,0,0,0-.06-1.65,14.79,14.79,0,0,1,1.42.82h2.9l0-2H49a14,14,0,0,0-2.18.11l-.14-.72a11.73,11.73,0,0,0,2.3.2h2.65v-.81c0-.72,0-1-.07-1.73a7.54,7.54,0,0,1,1.91.32c.07,0,.14.11.14.16s-.21.27-.68.4c0,.86,0,1,0,1.66H56.1c.34-.42.66-.81,1-1.21a15.85,15.85,0,0,1,1.68,1.28.38.38,0,0,1,.12.21c0,.08-.09.13-.23.13H52.89l0,2h2.91c.22-.28.42-.55.62-.82.52.36.66.48,1.13.82.16.13.22.2.22.28s-.15.26-.63.52c0,2.46,0,2.46,0,4.19,0,.27-.2.34-.9.34-.29,0-.36,0-.36-.23v-1.06H52.7a8.16,8.16,0,0,1-1.21,3.56c1.87,1.26,3.94,1.79,7.07,1.79v.19a1.74,1.74,0,0,0-1.24,1.44,11,11,0,0,1-4-1.24,12.29,12.29,0,0,1-2.29-1.58,10.67,10.67,0,0,1-5.07,3l-.13-.26a11.18,11.18,0,0,0,4.5-3.42,14.25,14.25,0,0,1-1.31-1.8,1.18,1.18,0,0,0-.38-.43Zm-.83-4.59v3.2h3c.09-1.17.09-1.49.11-3.2Zm4.36,0a31.6,31.6,0,0,1-.13,3.2h3.15v-3.2Z"/><path class="cls-1" d="M50.55,171a10.44,10.44,0,0,0,5-2.18,3.76,3.76,0,0,0,1.51-2.92,2.51,2.51,0,0,0-2.68-2.61,10.64,10.64,0,0,0-6,2.47c-.34.25-.5.34-.72.34-.66,0-1.75-1.29-1.75-2.12a.79.79,0,0,1,.13-.36c.29.63.69,1,1.12,1a6.22,6.22,0,0,0,1.58-.51,23.29,23.29,0,0,1,4.11-1.29,8.11,8.11,0,0,1,1.4-.11c2.36,0,4,1.44,4,3.49a4.23,4.23,0,0,1-2,3.39,11.59,11.59,0,0,1-5.71,1.78Z"/><path class="cls-1" d="M43.3,183.15a2.44,2.44,0,0,0,2,1,8.46,8.46,0,0,0,2.28-.34,13.07,13.07,0,0,0,.62-3c0-.56-.27-.8-1.28-1.14a1,1,0,0,1,.56-.16,4.69,4.69,0,0,1,1.54.34c.54.2.81.45.81.72s0,.13-.21.43a14.8,14.8,0,0,0-1.08,2.58,6.09,6.09,0,0,0,2.09-1.1c.28-.27.36-.31.5-.31a3.24,3.24,0,0,1,1,.2c.2.07.29.18.29.33s-.29.54-1,.88a20.76,20.76,0,0,1-3.15,1c-.22.62-.22.62-.76,2.29l-1.35,4c-.72,2.14-.95,2.59-1.33,2.59-.18,0-.31-.11-.42-.36a2.78,2.78,0,0,1-.25-1.05c0-.28,0-.34.4-.88.9-1.31,1.6-2.88,2.83-6.44a9.87,9.87,0,0,1-1.73.18,2.64,2.64,0,0,1-2.47-1.63Zm7.18,6.21c0,.27,0,.49,0,.56a2.23,2.23,0,0,0,1.37,2.18,5.08,5.08,0,0,0,1.93.34,4.26,4.26,0,0,0,1.73-.27.84.84,0,0,1,.3-.07,2.11,2.11,0,0,1,.92.43A.69.69,0,0,1,57,193c0,.39-.7.59-2.12.59a8,8,0,0,1-3.33-.58,2.73,2.73,0,0,1-1.53-2.61,3.54,3.54,0,0,1,.16-1.13ZM51,186a8.29,8.29,0,0,1,4.17-1.2,2.19,2.19,0,0,1,1.14.32.6.6,0,0,1,.29.5c0,.29-.17.4-.69.42a2.53,2.53,0,0,0-1.38.36,9.06,9.06,0,0,0-1,.61l-.63.38-.11-.16c.21-.22.21-.22.86-.81.16-.15.33-.29.88-.85a9.4,9.4,0,0,0-3.44.67Z"/><path class="cls-1" d="M45.85,207.76c0,.39-.05.56-.05.81,0,2.14,1.35,3.15,4.25,3.15a12,12,0,0,0,4-.65.72.72,0,0,1,.3-.07,2.11,2.11,0,0,1,1,.36.84.84,0,0,1,.4.63c0,.27-.2.47-.58.56a21,21,0,0,1-4.19.36,7.3,7.3,0,0,1-4.2-.87,3.44,3.44,0,0,1-1.49-2.84,4.73,4.73,0,0,1,.29-1.51Zm.56-7.11a4.25,4.25,0,0,0,2.76.79,14.19,14.19,0,0,0,3.74-.54,1.5,1.5,0,0,1,.33-.07,1.25,1.25,0,0,1,1.08.93c0,.31-.11.36-1.32.63a16,16,0,0,0-2.63.88c-.43.17-.43.17-1.47.62-.36.14-.36.16-.71.28l-.12-.26c.56-.33.84-.51,1.31-.76,1.23-.67,1.23-.67,1.51-.85-.39,0-1,.06-1.35.06a4.91,4.91,0,0,1-2-.49,4.48,4.48,0,0,1-1.26-1Z"/><path class="cls-1" d="M43.15,223a2.46,2.46,0,0,0,2,1,8.59,8.59,0,0,0,2.29-.34,12.89,12.89,0,0,0,.61-3.06c0-.54-.27-.77-1.28-1.12a1,1,0,0,1,.56-.16,4.68,4.68,0,0,1,1.55.34c.54.2.81.45.81.72s0,.13-.22.44a16.82,16.82,0,0,0-1.08,2.57,6.51,6.51,0,0,0,2.09-1.1c.29-.27.36-.3.51-.3a3.63,3.63,0,0,1,1,.19c.2.08.29.18.29.33,0,.3-.29.54-1.05.86A18.37,18.37,0,0,1,48,224.42c-.12.38-.21.63-.23.69q-.89,2.67-1.87,5.62c-.72,2.14-1,2.59-1.34,2.59-.18,0-.3-.11-.41-.36a2.78,2.78,0,0,1-.25-1c0-.29,0-.35.39-.89a26.72,26.72,0,0,0,2.83-6.44,9.78,9.78,0,0,1-1.73.18,2.62,2.62,0,0,1-2.46-1.62Zm7.19,6.21c0,.27,0,.49,0,.56A2.22,2.22,0,0,0,51.69,232a5,5,0,0,0,1.92.34,4.23,4.23,0,0,0,1.73-.27.93.93,0,0,1,.31-.07,2.11,2.11,0,0,1,.92.43.74.74,0,0,1,.32.51c0,.39-.7.59-2.12.59a8.23,8.23,0,0,1-3.34-.57,2.76,2.76,0,0,1-1.53-2.62,3.57,3.57,0,0,1,.17-1.13Zm.48-3.33A8.18,8.18,0,0,1,55,224.66a2.23,2.23,0,0,1,1.13.32.61.61,0,0,1,.29.51c0,.3-.16.39-.68.43a2.35,2.35,0,0,0-1.39.36,5,5,0,0,0-.59.34l-.67.43a1.84,1.84,0,0,1-.36.22l-.11-.16.27-.27.6-.54c.12-.11.39-.36.88-.85h-.14a9.75,9.75,0,0,0-3.3.67ZM54,219.4a9.28,9.28,0,0,1,1.6,1.12c.65.59.9,1,.9,1.44s-.25.75-.56.75-.23,0-.79-1.17a8.24,8.24,0,0,0-1.39-1.89Zm1.85-1a9,9,0,0,1,1.73,1c.68.53.92.9.92,1.39s-.18.74-.45.74-.27-.09-.42-.34a8.71,8.71,0,0,0-2-2.56Z"/><path class="cls-1" d="M51,252.6c3.24-1.14,5-3.06,5-5.44a2.73,2.73,0,0,0-2.74-3,9.49,9.49,0,0,0-5.56,2.54c0,1.46.1,3.44.19,4.14a4.1,4.1,0,0,1,.06.7,4.19,4.19,0,0,1-.36,1.68.53.53,0,0,1-.45.36.43.43,0,0,1-.38-.24c0-.07,0-.07-.18-.5a2.51,2.51,0,0,0-.63-1.08,11.25,11.25,0,0,0-1.37-1.39,3.93,3.93,0,0,0-.18.36c-.25.49-.38.65-.52.65s-.54-.68-.54-1.28c0-.23.07-.38.34-.67a8.65,8.65,0,0,0,.77-.88c.53-.66,2.22-3.06,2.67-3.8,0-.64.05-1.08.07-1.31a15,15,0,0,0-1.76,1.13,1.33,1.33,0,0,1-.74.35,1.36,1.36,0,0,1-1-.62,1.93,1.93,0,0,1-.45-1,1.14,1.14,0,0,1,.09-.3c.31.57.69.86,1.1.86a9.67,9.67,0,0,0,2.79-1.13c0-.35.09-1.41.09-1.8a1.92,1.92,0,0,0-1.06-2.07.46.46,0,0,1,.27-.09,3.09,3.09,0,0,1,1.48.63c.45.32.66.59.66.84s0,.15-.21.72a5.59,5.59,0,0,0-.36,1.5c.43.36.65.63.65.81s0,.12-.31.47a5.07,5.07,0,0,0-.65,1.18c0,.26,0,.33-.05.6,1-.58,1.29-.7,1.85-1a8.37,8.37,0,0,1,3.68-.94,3.8,3.8,0,0,1,4.08,3.74,5,5,0,0,1-3,4.38,10,10,0,0,1-3.33,1.1Zm-5.19-4.27c-.88,1.48-.88,1.48-1,1.77A24.65,24.65,0,0,0,47,251.54c0-1.16.07-3.84.13-5.35C46,248,46,248.06,45.83,248.33Z"/><path class="cls-1" d="M48.43,274.07a9.69,9.69,0,0,0,2.86-2.52,9.82,9.82,0,0,0,1.89-6.07,8.65,8.65,0,0,0-.66-3.71,1.49,1.49,0,0,0-1.28-.79c-.9,0-1.73.78-2.38,2.25A10.19,10.19,0,0,0,48,267.1a10.48,10.48,0,0,0,.08,1.12c0,.11,0,.25,0,.38,0,.34-.16.54-.46.54-.69,0-1.14-1.46-1.14-3.69a21.55,21.55,0,0,1,.58-4.83,8,8,0,0,0,.2-1.31c0-.58-.26-.92-1-1.28a1.38,1.38,0,0,1,.33-.09,2.79,2.79,0,0,1,1.44.59c.5.36.7.65.7,1a1.12,1.12,0,0,1-.25.69,12.83,12.83,0,0,0-1.3,5.36c0,.16,0,.34,0,.67h0a10.07,10.07,0,0,1,2.08-4.72,2.93,2.93,0,0,1,2.2-1.06c1.73,0,2.95,2.12,2.95,5.13a8.91,8.91,0,0,1-2,5.89,9.11,9.11,0,0,1-4,2.84Z"/><path class="cls-1" d="M50.25,292.34a8.16,8.16,0,0,0,4.21-2.5,6.42,6.42,0,0,0,1.6-4.34,4.47,4.47,0,0,0-2-4,6,6,0,0,0-3.12-.83,3.78,3.78,0,0,0-.63,0,2.36,2.36,0,0,1,.56,1.49c0,1.41-1,4-2.38,6.23-1.13,1.8-2,2.69-2.68,2.69a1.07,1.07,0,0,1-.79-.38,3.7,3.7,0,0,1-.51-1.15,11.08,11.08,0,0,0-.79-1.7,3.41,3.41,0,0,1-.41-1.64,5.62,5.62,0,0,1,1.62-3.56,8.72,8.72,0,0,1,6.19-2.52,6.85,6.85,0,0,1,4.65,1.65,5.53,5.53,0,0,1,1.73,4.24,6.19,6.19,0,0,1-3.59,5.45,10.66,10.66,0,0,1-3.51,1.12Zm-5.93-5.6a4.21,4.21,0,0,0,.72,2.38c.25.32.49.52.69.52.39,0,1.26-1,2.14-2.38,1.33-2.12,2.29-4.44,2.29-5.56a2,2,0,0,0-.26-.9C46.77,281.36,44.32,284,44.32,286.74Z"/><path class="cls-1" d="M46.7,305.34a14.69,14.69,0,0,1,1.53.75,2.71,2.71,0,0,1,.83.69c.11.12.12.25.12.55,0,.55-.21,1.05-.43,1.05s-.23-.11-.34-.34a6.07,6.07,0,0,0-1.71-2.33c0,.47,0,3.14.09,8,0,.15-.09.18-.23.22a4,4,0,0,1-.71.09c-.25,0-.36-.07-.37-.31.08-1.49.08-1.49.1-4.73l.13-3.37a20.9,20.9,0,0,1-1.82,3.64,12.16,12.16,0,0,1-1.64,2.16l-.18-.11a24.47,24.47,0,0,0,2.18-4.34,16.79,16.79,0,0,0,.92-2.72H43.26a4.68,4.68,0,0,0-.79.11l-.07-.68a3.08,3.08,0,0,0,.86.16h2.32v-3.93a18.33,18.33,0,0,0-.16-2.37c1.77.18,2,.23,2,.43s-.2.27-.76.39v5.48h1.08a7.8,7.8,0,0,1,.81-1.06,9.25,9.25,0,0,1,1.3,1.2c.05.06.09.11.09.15s-.09.12-.24.12h-3ZM42.85,299a9.25,9.25,0,0,1,1.24,1.67,2.27,2.27,0,0,1,.47,1.12c0,.52-.36,1.12-.69,1.12-.12,0-.18-.06-.23-.26a7.82,7.82,0,0,0-.16-.95,13.68,13.68,0,0,0-.8-2.63Zm4.35,3.91a16,16,0,0,0,.8-2.43,9.34,9.34,0,0,0,.34-1.61c1.35.38,1.65.51,1.65.67s-.16.2-.59.23c-.31.62-.38.76-.95,1.73A7.2,7.2,0,0,1,47.38,303Zm9.49,4.82c.34-.61.45-.79.79-1.38a15.42,15.42,0,0,1,1.57.9c.18.12.27.23.27.3s-.09.16-.2.18l-2.9.56,0,1.73c0,.5,0,1.26.06,2.3,0,.56,0,.62,0,1.28a.27.27,0,0,1-.1.22,3.15,3.15,0,0,1-.9.12c-.22,0-.31-.07-.31-.25,0-.79,0-3.55,0-5.17l-5,1a4.32,4.32,0,0,0-.88.29l-.23-.63H49a5.83,5.83,0,0,0,.85-.08L55,308v-3.8c0-3.73,0-5.76-.15-6.75,1.64.18,2.11.28,2.11.48s-.18.25-.77.43c0,1.52,0,2.79,0,3.53,0,1.08,0,3.89,0,5.87Zm-6.44-3.89A9.43,9.43,0,0,1,53,305.14a.87.87,0,0,1,.29.79c0,.54-.2,1-.43,1s-.31-.13-.56-.54A10.38,10.38,0,0,0,50.14,304Zm.59-4.53a14.21,14.21,0,0,1,2.22,1.15,1.25,1.25,0,0,1,.63,1.28c0,.59-.17.95-.45.95s-.22-.07-.53-.67a9.73,9.73,0,0,0-2-2.52Z"/><path class="cls-1" d="M45.78,323.73h.38l.83-1a14.79,14.79,0,0,1,1.2,1.17c.06.06.08.09.08.13s-.08.13-.2.13H45.78v4.46a30.2,30.2,0,0,0,2.79-1.39l.15.26A36.25,36.25,0,0,1,43.31,331c0,.57-.1.79-.23.79s-.34-.34-.95-1.77a23,23,0,0,0,2.48-.9v-5H43.55a8.19,8.19,0,0,0-1.06.07l-.13-.63a6.52,6.52,0,0,0,1.22.14h1v-4.46h-1a5.8,5.8,0,0,0-1.19.09l-.13-.63a5.46,5.46,0,0,0,1.35.12h2.54c.4-.43.51-.57.9-1,.58.48.74.65,1.3,1.17a.42.42,0,0,1,.09.18c0,.07-.07.11-.2.11H45.78Zm7.71,4.84h2.3c.42-.48.52-.63.94-1.08.65.53.84.71,1.47,1.26a.16.16,0,0,1,.08.13c0,.05-.09.11-.22.11H53.49v3.31h3c.43-.54.58-.7,1-1.21.68.58.88.76,1.51,1.37a.44.44,0,0,1,.09.15c0,.09,0,.11-.21.11H48.21c-.3,0-.59,0-1.42.07l-.13-.67a6.3,6.3,0,0,0,1.57.18h4.16V329H49.83c-.32,0-.48,0-1.38.07l-.15-.63a5.24,5.24,0,0,0,1.51.14h2.58v-2.95H49.81v.81c0,.24-.14.31-.54.31-.59,0-.7,0-.7-.29.07-1.62.11-3.12.11-5.69a23.51,23.51,0,0,0-.11-3.13,13.15,13.15,0,0,1,1.33.84h6.23a10.9,10.9,0,0,1,.71-.84c.5.37.64.48,1.08.84.14.11.19.18.19.26a.59.59,0,0,1-.09.18s-.23.16-.59.41v2c0,2.13,0,3.33.11,4.9a.31.31,0,0,1-.18.29,4.66,4.66,0,0,1-.83.11c-.16,0-.2,0-.23-.24v-.72H53.49Zm-1.1-9.68H49.81v3h2.58Zm0,3.4H49.81v2.92h2.58Zm3.91-.41v-3H53.49v3Zm-2.81,3.33H56.3v-2.92H53.49Z"/><path class="cls-1" d="M47.74,337.86a5.83,5.83,0,0,1,1.82.34c.36.15.51.33.51.58v0c0,.15,0,.15-.15.47a14.5,14.5,0,0,0-.39,3.66c0,1.06.14,1.33.7,1.33.38,0,.77-.15,2.41-.92a1.62,1.62,0,0,1,.74-.22.88.88,0,0,1,.86.76.57.57,0,0,1-.37.54,9.25,9.25,0,0,1-1.21.38,12.08,12.08,0,0,0-4.5,2,2.89,2.89,0,0,0-1.41,2.3c0,1.3,1,2,3,2a20.83,20.83,0,0,0,4.18-.52,2.15,2.15,0,0,1,.36-.05,1,1,0,0,1,1,.88c0,.32-.2.49-.78.59a27.17,27.17,0,0,1-3.45.24,9.13,9.13,0,0,1-3.06-.42,2.85,2.85,0,0,1-2-2.66,4,4,0,0,1,1.77-3A12.13,12.13,0,0,1,50,344.68a1.2,1.2,0,0,1-.86-.27c-.27-.19-.43-.59-.52-1.37-.06-.43-.07-.82-.13-2.17,0-1.53-.07-1.8-.21-2.07s-.54-.53-1.3-.65A.93.93,0,0,1,47.74,337.86Z"/><path class="cls-1" d="M47.74,357.66a5.83,5.83,0,0,1,1.82.34c.36.15.51.33.51.58v0c0,.15,0,.15-.15.47a14.5,14.5,0,0,0-.39,3.66c0,1.06.14,1.33.7,1.33.38,0,.77-.15,2.41-.92a1.62,1.62,0,0,1,.74-.22.88.88,0,0,1,.86.76.57.57,0,0,1-.37.54,9.25,9.25,0,0,1-1.21.38,12.08,12.08,0,0,0-4.5,2,2.89,2.89,0,0,0-1.41,2.3c0,1.3,1,2,3,2a20.83,20.83,0,0,0,4.18-.52,1.44,1.44,0,0,1,.36-.05,1,1,0,0,1,1,.88c0,.32-.2.49-.78.59a27.17,27.17,0,0,1-3.45.24,9.13,9.13,0,0,1-3.06-.42A2.85,2.85,0,0,1,46,369a4,4,0,0,1,1.77-3A12.13,12.13,0,0,1,50,364.48a1.2,1.2,0,0,1-.86-.27c-.27-.19-.43-.59-.52-1.37-.06-.43-.07-.82-.13-2.17,0-1.53-.07-1.8-.21-2.07s-.54-.53-1.3-.65A.93.93,0,0,1,47.74,357.66Z"/><path class="cls-1" d="M45.24,379.76a3.89,3.89,0,0,0,1.24,1.3,5.25,5.25,0,0,0,2.11.77,19.73,19.73,0,0,0,.56-3.2c0-.61-.25-1-1-1.49a.64.64,0,0,1,.3-.08,2.74,2.74,0,0,1,1.33.56,1.87,1.87,0,0,1,.94,1.3.77.77,0,0,1-.23.52,8.24,8.24,0,0,0-1,2.5,1.34,1.34,0,0,1,.72.4,1,1,0,0,1,.25.59c0,.24-.22.38-.58.38a3.6,3.6,0,0,1-.7-.09,21.1,21.1,0,0,0-.72,3.33,5.09,5.09,0,0,0,.92.13.34.34,0,0,0,.14,0l.2,0a1.25,1.25,0,0,1,1.08,1c0,.26-.23.42-.61.42a7.61,7.61,0,0,1-1.91-.32,8.65,8.65,0,0,0,0,.88,2.58,2.58,0,0,0,2.84,2.86A3.54,3.54,0,0,0,54,390.23a3.08,3.08,0,0,0,.59-1.84,6.14,6.14,0,0,0-2.72-4.5l.2-.24c2.66,1.64,3.8,3.14,3.8,5,0,2.18-1.87,3.84-4.38,3.84a4.14,4.14,0,0,1-2.45-.74,3.87,3.87,0,0,1-1.38-3.35c0-.21,0-.45,0-.9a4.36,4.36,0,0,1-1.44-.92,2.7,2.7,0,0,1-.79-1.78,1.87,1.87,0,0,1,.56-1.24,3.79,3.79,0,0,1,1.75-1A4.56,4.56,0,0,1,46,381.46a4.45,4.45,0,0,1-.94-1.59Zm1.06,4a1.25,1.25,0,0,0-.39.9c0,.76.61,1.31,1.85,1.69a29.21,29.21,0,0,1,.54-3.27A2.73,2.73,0,0,0,46.3,383.78Z"/><path class="cls-1" d="M47.08,404.88l-.81,3.38a7.2,7.2,0,0,0-.31,1.91,2.92,2.92,0,0,1-.05.77.46.46,0,0,1-.43.31c-.31,0-.58-.25-.78-.74a10.53,10.53,0,0,1-.63-3.83,16.19,16.19,0,0,1,.14-1.93,29.51,29.51,0,0,1,.63-3.4,8.68,8.68,0,0,0,.26-1.68,3.22,3.22,0,0,0-.51-1.69c.4,0,.72.25,1.21.88a2.45,2.45,0,0,1,.67,1.43c0,.28,0,.35-.38,1.08a15.07,15.07,0,0,0-1,2.86,10,10,0,0,0-.23,2.23,6.91,6.91,0,0,0,.34,2.38,13.91,13.91,0,0,0,.65-1.53l1-2.52Zm2.27.9a6.29,6.29,0,0,0-.06.75c0,2,1.14,2.79,3.93,2.79a8.54,8.54,0,0,0,1.53-.12,3,3,0,0,0,1-.29.78.78,0,0,1,.27-.05,1.39,1.39,0,0,1,1.14,1.06c0,.21-.15.36-.4.45a9.33,9.33,0,0,1-2.25.2c-2.25,0-3.85-.38-4.66-1.1a3,3,0,0,1-1-2.34A5,5,0,0,1,49,405.7Zm0-5.73a2.81,2.81,0,0,0,1.67.49,9.6,9.6,0,0,0,3.62-.81c.24-.13.27-.15.4-.15a1.39,1.39,0,0,1,.63.25c.38.22.56.44.56.67s-.13.34-.51.42a10.3,10.3,0,0,0-2.55.62,20.27,20.27,0,0,0-2.33,1.28l-.18-.18c.81-.68,1.43-1.18,1.71-1.4l-.73,0a3.2,3.2,0,0,1-2.45-1Z"/><path class="cls-1" d="M.18,4.83C2.25,5.51,3,6,3,6.63s-.27,1.06-.56,1.06S2.16,7.62,2,7.36A8.83,8.83,0,0,0,.05,5Zm14.08,1c.45-.52.59-.66,1-1.15.65.52.85.68,1.5,1.28.05.07.09.12.09.16s-.07.13-.18.13h-6v1.8H14.3c.21-.22.43-.44.63-.67a12,12,0,0,1,1,.74c.11.11.14.16.14.23s-.09.18-.57.45v3.82c0,.67,0,1.44,0,2.75,0,.38,0,.53-.18.69s-.63.43-1.67.65a1,1,0,0,0-.43-.83c-.27-.2-.47-.24-2-.51v-.23c2,.07,2,.07,2.79.07.3,0,.34,0,.34-.32V8.48H10.68v4.7H12V10.89c0-.48,0-.7-.06-1.2,1.64.19,1.73.23,1.73.39s-.11.2-.63.38c0,2.83,0,2.83,0,3.53a.17.17,0,0,1-.13.2,4.15,4.15,0,0,1-.72.07c-.18,0-.23,0-.23-.2v-.47H8.34v.81c0,.24-.13.31-.53.31l-.23,0h0c-.2,0-.27-.06-.27-.18,0-.85,0-1.21,0-2.22,0-1.56,0-2,0-2.64,1.63.18,1.74.19,1.74.37s-.11.2-.66.38v2.74H9.61V8.48H6.19v8c0,.3-.18.36-1,.36-.16,0-.21,0-.21-.16v0c0-.9,0-5.47,0-7.36C5,8.66,5,8,5,7.29l1.38.78H9.61V6.27H4.48L2.79,11.72a4.74,4.74,0,0,0-.16.83,3.24,3.24,0,0,0,.21.9,6.31,6.31,0,0,1,.27,1.62,1.5,1.5,0,0,1-.57,1.21,1.29,1.29,0,0,1-.7.3c-.22,0-.33-.14-.33-.43,0,0,0-.25.06-.61a19.64,19.64,0,0,0,.14-2.18,1.67,1.67,0,0,0-.31-1.15,3.62,3.62,0,0,0-1.2-.62l.07-.25.36.09a5,5,0,0,0,.74.11c.21,0,.27,0,.48-.47.53-1,2.29-5.15,3-7l.32.11L4.61,5.85h3V3.53h-1a7.38,7.38,0,0,0-1.48.11L5,2.92a7.63,7.63,0,0,0,1.73.19h.91V1.84c0-.11,0-.36,0-.71,0-.14,0-.36,0-.63l.76.09C9.36.72,9.6.77,9.6,1s-.15.2-.85.4V3.11h2.81V1.75c0-.27,0-.53-.07-1.25.38.06.66.09.84.11.94.13,1.16.18,1.16.34s-.17.22-.76.38V3.11h1c.43-.5.56-.64,1-1.08.65.51.85.67,1.48,1.23.07.09.09.12.09.16s-.08.11-.17.11H12.73V5.85ZM1.3.9c2,.67,2.9,1.28,2.9,1.94s-.28,1.07-.55,1.07-.21-.09-.34-.31A9,9,0,0,0,1.17,1.1ZM11.56,3.53H8.75V5.85h2.81Z"/><path class="cls-1" d="M1.85,24a2.74,2.74,0,0,0,2.42,1,7.22,7.22,0,0,0,1.28-.11c0-.27,0-.27.27-1.29a14.05,14.05,0,0,0,.23-1.5c0-.57-.41-.86-1.35-.93a1.18,1.18,0,0,1,.9-.34,4.23,4.23,0,0,1,1.69.39c.34.16.54.4.54.63s0,.24-.27.54a9.91,9.91,0,0,0-1.1,2.4A7.32,7.32,0,0,0,9.65,23.6a.37.37,0,0,1,.34-.16,3,3,0,0,1,.85.16c.27.11.4.23.4.41s-.29.52-1,.79a16,16,0,0,1-4,.92,24.21,24.21,0,0,0-.77,5A12.41,12.41,0,0,1,10.84,29c2,0,3.38,1,3.38,2.61s-1,2.64-2.88,3.4a13.62,13.62,0,0,1-5.25.85l0-.26a18.93,18.93,0,0,0,2.81-.57c2.55-.78,3.94-2.09,3.94-3.75,0-1.1-.72-1.73-2-1.73a6.93,6.93,0,0,0-4,1.55,3.75,3.75,0,0,0-1,1.1.48.48,0,0,1-.4.23c-.47,0-1.06-.79-1.06-1.4,0-.31.59-3.48,1-5.33a5.75,5.75,0,0,1-.76.05,3,3,0,0,1-3-1.63Z"/><path class="cls-1" d="M1.3,44.55a2.44,2.44,0,0,0,2,1,8.46,8.46,0,0,0,2.28-.34,13.07,13.07,0,0,0,.62-3c0-.56-.27-.8-1.28-1.14a1,1,0,0,1,.56-.16A4.69,4.69,0,0,1,7,41.2c.54.2.81.45.81.72s0,.13-.21.43a14.8,14.8,0,0,0-1.08,2.58,6.09,6.09,0,0,0,2.09-1.1c.28-.27.36-.31.5-.31a3.24,3.24,0,0,1,1,.2c.2.07.29.18.29.33,0,.3-.29.54-1,.88a21.93,21.93,0,0,1-3.15,1c-.22.61-.22.61-.76,2.29l-1.35,4c-.72,2.14-.95,2.59-1.33,2.59-.18,0-.31-.11-.42-.36a2.78,2.78,0,0,1-.25-1c0-.29,0-.34.4-.88.9-1.31,1.6-2.88,2.83-6.45a9.09,9.09,0,0,1-1.73.19,2.64,2.64,0,0,1-2.47-1.63Zm7.18,6.21c0,.27,0,.49,0,.56A2.23,2.23,0,0,0,9.83,53.5a5.08,5.08,0,0,0,1.93.34,4.26,4.26,0,0,0,1.73-.27.84.84,0,0,1,.3-.07,2.11,2.11,0,0,1,.92.43.69.69,0,0,1,.32.51c0,.39-.7.59-2.12.59a8,8,0,0,1-3.33-.58,2.73,2.73,0,0,1-1.53-2.61,3.54,3.54,0,0,1,.16-1.13ZM9,47.43a8.29,8.29,0,0,1,4.17-1.2,2.19,2.19,0,0,1,1.14.32.6.6,0,0,1,.29.5c0,.29-.17.4-.69.42a2.53,2.53,0,0,0-1.38.36,9.06,9.06,0,0,0-1,.61l-.63.38-.11-.16c.21-.22.21-.22.86-.81.16-.15.33-.29.88-.85a9.4,9.4,0,0,0-3.44.67Z"/><path class="cls-1" d="M6.43,76.07a9.69,9.69,0,0,0,2.86-2.52,9.82,9.82,0,0,0,1.89-6.07,8.65,8.65,0,0,0-.66-3.71A1.49,1.49,0,0,0,9.24,63c-.9,0-1.73.78-2.38,2.25A10.19,10.19,0,0,0,6,69.1a10.48,10.48,0,0,0,.08,1.12c0,.11,0,.25,0,.38,0,.34-.16.54-.46.54-.69,0-1.14-1.46-1.14-3.69a21.55,21.55,0,0,1,.58-4.83,8,8,0,0,0,.2-1.31c0-.58-.26-.92-1-1.28a1.38,1.38,0,0,1,.33-.09,2.79,2.79,0,0,1,1.44.59c.5.36.7.65.7,1a1.12,1.12,0,0,1-.25.69,12.83,12.83,0,0,0-1.3,5.36c0,.16,0,.34,0,.67h0a10.07,10.07,0,0,1,2.08-4.72,2.93,2.93,0,0,1,2.2-1.06c1.73,0,2.95,2.12,2.95,5.13a8.91,8.91,0,0,1-2,5.89,9.11,9.11,0,0,1-4,2.84Z"/><path class="cls-1" d="M1.3,84.15a2.44,2.44,0,0,0,2,1,8.46,8.46,0,0,0,2.28-.34,13.07,13.07,0,0,0,.62-3c0-.56-.27-.8-1.28-1.14a1,1,0,0,1,.56-.16A4.69,4.69,0,0,1,7,80.8c.54.2.81.45.81.72s0,.13-.21.43a14.8,14.8,0,0,0-1.08,2.58,6.09,6.09,0,0,0,2.09-1.1c.28-.27.36-.31.5-.31a3.24,3.24,0,0,1,1,.2c.2.07.29.18.29.33s-.29.54-1,.88a20.76,20.76,0,0,1-3.15,1c-.22.62-.22.62-.76,2.29l-1.35,4C3.33,94,3.1,94.47,2.72,94.47c-.18,0-.31-.11-.42-.36a2.78,2.78,0,0,1-.25-1c0-.28,0-.34.4-.88.9-1.31,1.6-2.88,2.83-6.44a9.87,9.87,0,0,1-1.73.18,2.64,2.64,0,0,1-2.47-1.63Zm7.18,6.21c0,.27,0,.49,0,.56A2.23,2.23,0,0,0,9.83,93.1a5.08,5.08,0,0,0,1.93.34,4.26,4.26,0,0,0,1.73-.27.84.84,0,0,1,.3-.07,2.11,2.11,0,0,1,.92.43A.69.69,0,0,1,15,94c0,.39-.7.59-2.12.59a8,8,0,0,1-3.33-.58,2.73,2.73,0,0,1-1.53-2.61,3.54,3.54,0,0,1,.16-1.13ZM9,87a8.29,8.29,0,0,1,4.17-1.2,2.19,2.19,0,0,1,1.14.32.6.6,0,0,1,.29.5c0,.29-.17.4-.69.42a2.53,2.53,0,0,0-1.38.36,9.06,9.06,0,0,0-1,.61l-.63.38-.11-.16c.21-.22.21-.22.86-.81.16-.15.33-.29.88-.85a9.4,9.4,0,0,0-3.44.67Z"/><path class="cls-1" d="M2.09,104.91v10.76c0,.25-.18.31-1,.31-.21,0-.3-.06-.3-.22.09-2.36.11-4.91.11-11.7,0-2,0-3.13-.06-4.65a8.93,8.93,0,0,1,1.42.78H5.85c.29-.38.38-.49.65-.87.47.33.61.42,1,.76.13.11.17.18.17.25s-.13.22-.58.47v.9c0,.65,0,1.15,0,3.82,0,.14,0,.18-.18.21a3,3,0,0,1-.7.08c-.21,0-.3-.08-.3-.22v-.68ZM6,100.6H2.09v1.69H6Zm0,2.11H2.09v1.78H6Zm4.62,7.42h1c.36-.47.49-.6.85-1,.58.52.77.7,1.37,1.26a.23.23,0,0,1,0,.11s0,.07-.1.07H10.62v.92c0,1.37,0,1.85.06,3.53V115c0,.2-.27.29-.89.29-.19,0-.3-.07-.3-.22v0c0-.52,0-1.71,0-3.53v-1H7a5.39,5.39,0,0,1-1.1,3.06,6.53,6.53,0,0,1-2.81,2l-.18-.22a6.21,6.21,0,0,0,2.54-2.64,5.26,5.26,0,0,0,.48-2.22H4.68a8.61,8.61,0,0,0-1.46.11L3.06,110a6.5,6.5,0,0,0,1.62.15H6c0-.63,0-1.19,0-1.71s0-.51,0-.92H5a7.24,7.24,0,0,0-1.33.09l-.16-.67a5.08,5.08,0,0,0,1.49.16h6.09c.37-.45.48-.59.82-1,.63.52.83.7,1.43,1.24a.31.31,0,0,1,0,.13s-.07.09-.13.09H10.62ZM7.09,107.5v.83c0,.64,0,1.06-.07,1.8h2.5V107.5Zm3.53-2.59v.59c0,.14,0,.2-.16.23a5.77,5.77,0,0,1-.74.06c-.23,0-.3-.06-.3-.24.05-1.29.05-1.65.05-3,0-1.85,0-2.29-.07-3.1a15.09,15.09,0,0,1,1.31.78h3.6c.33-.38.42-.51.74-.88.45.32.58.41,1.05.72.16.12.23.19.23.27s-.09.19-.5.48v8.37l0,5.41a1,1,0,0,1-.63,1,3.86,3.86,0,0,1-1.49.43c-.09-.83-.38-1-2.13-1.28v-.27c1.79.06,1.82.06,2.15.06h.59c.2,0,.2,0,.2-.4v-9.14Zm3.93-4.31H10.62v1.69h3.93Zm0,2.11H10.62v1.78h3.93Z"/><path class="cls-1" d="M6.23,122.76c.41-.5.54-.67.95-1.13a12.41,12.41,0,0,1,1.35,1.24c.08.07.11.12.11.18s-.07.12-.18.12H3.73c0,1.07-.08,1.91-.11,2.56h2.2c.28-.3.37-.41.66-.7.42.29.54.38.92.68.13.11.18.18.18.24s-.14.27-.47.47C6.93,130,6.52,133,6,133.94c-.36.69-.86.94-2,1.05-.08-.81-.31-1-1.7-1.34l0-.21,1.71.18.45,0c.4,0,.54-.23.78-1.18a36,36,0,0,0,.63-6.32H3.6A25.84,25.84,0,0,1,3.08,130a12.08,12.08,0,0,1-1.64,3.91,10,10,0,0,1-1.13,1.4L0,135.09A11.54,11.54,0,0,0,1.8,131a31.93,31.93,0,0,0,.76-7.84H1.82c-.22,0-.72,0-1.39.11l-.18-.66a13.09,13.09,0,0,0,1.55.14H3.51v-2a9.13,9.13,0,0,0-.09-1.36l.85.12c1,.15,1.1.18,1.1.36s-.2.27-.69.42v2.48Zm8.59,1.12a13.6,13.6,0,0,1-2.27,7,10.06,10.06,0,0,0,4.54,3l0,.23a1.4,1.4,0,0,0-1.42,1.12,11.49,11.49,0,0,1-3.69-3.53,11.13,11.13,0,0,1-2.78,2.36,12.38,12.38,0,0,1-3.61,1.51l-.11-.25a14,14,0,0,0,3.27-1.87,11.24,11.24,0,0,0,2.65-2.69,17.8,17.8,0,0,1-1.85-5.22,12,12,0,0,1-1.79,2.7l-.19-.14a22.7,22.7,0,0,0,2.16-6,19.4,19.4,0,0,0,.48-2.81c1.75.4,2,.47,2,.67s-.14.2-.73.31c-.62,1.89-.74,2.28-1.05,3.18h3.8c.36-.43.7-.88,1.06-1.33l1.62,1.44a.37.37,0,0,1,.09.16.18.18,0,0,1-.18.15Zm-4.61,0c-.16.46-.25.66-.43,1.08a13.66,13.66,0,0,0,2.07,5,13.37,13.37,0,0,0,1.65-6.1Z"/><path class="cls-1" d="M11,141.5a13.37,13.37,0,0,0,1,4.23,9.05,9.05,0,0,0,1.24-2.95c1.71.5,1.71.5,1.71.66s-.09.18-.77.26a19.46,19.46,0,0,1-1.73,2.91,4.72,4.72,0,0,0,2.3,2.07A26.34,26.34,0,0,0,16,145.82l.23,0-.43,2.34s0,.1,0,.21,0,.27,0,.36,0,.27.25.45a.57.57,0,0,1,.23.44.55.55,0,0,1-.57.52,4.24,4.24,0,0,1-2.05-.9,6.85,6.85,0,0,1-1.77-1.88,10.48,10.48,0,0,1-3.37,2.52l-.16-.17a12.63,12.63,0,0,0,3.08-3.07A12.07,12.07,0,0,1,10,141.5H3.31c-.07,3.47-.12,4.16-.45,5.38a10.22,10.22,0,0,1-1.28,2.87A8.72,8.72,0,0,1,.5,151.1l-.18-.2a11.79,11.79,0,0,0,1.39-3.46,23.78,23.78,0,0,0,.38-5.56A9.1,9.1,0,0,0,2,140.26a11.61,11.61,0,0,1,1.46.82H10c0-.36,0-.45-.06-.63a14.43,14.43,0,0,0-.2-1.58c1.46.13,1.82.2,1.82.38s-.07.16-.57.34c0,.72,0,.9.05,1.49h2.88l.85-1a16.69,16.69,0,0,1,1.35,1.15.33.33,0,0,1,.09.13c0,.07-.11.16-.18.16Zm-7.73,9.18v.42a5.56,5.56,0,0,1-.88,2.84c-.41.54-.77.83-1.06.83s-.49-.47-.49-1.06c0-.35.07-.45.52-.63a3.06,3.06,0,0,0,1.25-1.23,3.66,3.66,0,0,0,.41-1.17Zm4.43-7.42c.34-.45.45-.57.81-1,.56.49.72.65,1.24,1.14a.2.2,0,0,1,.08.14.17.17,0,0,1-.17.15H5a6,6,0,0,0-1.19.11l-.07-.69a2.65,2.65,0,0,0,.72.13l.54,0Zm-2.45,5.55c0,.29-.1.32-.93.32-.15,0-.2,0-.24-.2a12.21,12.21,0,0,0,.09-1.62,19.74,19.74,0,0,0-.09-2.93,11.81,11.81,0,0,1,1.3.79H7.85c.29-.34.36-.45.67-.77.39.32.5.43.9.75.1.13.14.17.14.22s-.07.16-.47.4l0,2.48c0,.31-.16.36-.88.36-.17,0-.22,0-.27-.16v-.34H5.29Zm-.46,2.45a11,11,0,0,0,0-1.14c1.71.2,1.91.24,1.91.42s-.11.2-.67.36v2.32c0,.25,0,.32.07.38s.18.09.72.11l1.64,0c.2,0,2.07,0,2.36-.05.51,0,.56-.06.79-.52a12.76,12.76,0,0,0,.8-2.29l.25,0-.22,2.21v.22c0,.18,0,.18.45.3a.45.45,0,0,1,.33.4c0,.29-.26.52-.62.58s-2.72.16-4.48.16c-2,0-2.48,0-2.81-.22s-.45-.38-.48-.86a1.74,1.74,0,0,1,0-.29l0-1Zm.46-3.57H8v-2.1H5.29Zm2.11,2.25a11.44,11.44,0,0,1,2.34.78,1,1,0,0,1,.76,1c0,.41-.17.74-.35.74s-.18,0-.72-.63a8.82,8.82,0,0,0-1.18-1.08,8.25,8.25,0,0,0-.94-.56ZM11.92,139a7.27,7.27,0,0,1,1.51.43c.42.18.56.34.56.63a1.45,1.45,0,0,1-.16.59.27.27,0,0,1-.25.18c-.13,0-.13,0-.33-.29l-.48-.57a4.81,4.81,0,0,0-1-.81Zm1.48,11.56a11.63,11.63,0,0,1,2,1.42c.74.61,1,.88,1,1.24a2.8,2.8,0,0,1-.29,1,.39.39,0,0,1-.33.24.35.35,0,0,1-.21-.13c-.11-.11-.11-.11-.4-.77a11,11,0,0,0-1.92-2.9Z"/><path class="cls-1" d="M5.08,167.28l-.81,3.38A7.2,7.2,0,0,0,4,172.57a2.92,2.92,0,0,1,0,.77.46.46,0,0,1-.43.31c-.31,0-.58-.25-.78-.74a10.53,10.53,0,0,1-.63-3.83,16.19,16.19,0,0,1,.14-1.93,29.51,29.51,0,0,1,.63-3.4,8.68,8.68,0,0,0,.26-1.68,3.22,3.22,0,0,0-.51-1.69c.4,0,.72.25,1.21.88a2.46,2.46,0,0,1,.67,1.42c0,.29,0,.36-.38,1.08a15.41,15.41,0,0,0-1,2.87,10,10,0,0,0-.23,2.23,6.91,6.91,0,0,0,.34,2.38,13.91,13.91,0,0,0,.65-1.53l1-2.52Zm2.27.9a6.29,6.29,0,0,0-.06.75c0,2,1.14,2.79,3.93,2.79a8.54,8.54,0,0,0,1.53-.12,3,3,0,0,0,.95-.29.83.83,0,0,1,.27-.06,1.4,1.4,0,0,1,1.14,1.07c0,.21-.15.36-.4.45a9.33,9.33,0,0,1-2.25.2c-2.25,0-3.85-.38-4.66-1.1a3,3,0,0,1-1-2.34A5,5,0,0,1,7,168.1Zm0-5.73a2.81,2.81,0,0,0,1.67.49,9.6,9.6,0,0,0,3.62-.81c.24-.13.27-.15.4-.15a1.39,1.39,0,0,1,.63.25c.38.22.56.44.56.67s-.13.34-.51.41a10.65,10.65,0,0,0-2.55.64,17.43,17.43,0,0,0-2.33,1.27L8.62,165c.81-.68,1.43-1.18,1.71-1.4l-.73,0a3.15,3.15,0,0,1-2.45-1Z"/><path class="cls-1" d="M.34,182.88a14.11,14.11,0,0,1,2,.9c.5.31.66.52.66.9,0,.58-.19,1-.45,1s-.25-.08-.59-.62a8.61,8.61,0,0,0-1.78-2Zm.18,6.5a5.78,5.78,0,0,0,1,.2c.23,0,.32-.11.7-.94l3-6.5.31.07-2.63,7.35a3.31,3.31,0,0,0-.18.85,4.25,4.25,0,0,0,.22,1.09,7,7,0,0,1,.27,1.7,1.47,1.47,0,0,1-1.35,1.53c-.2,0-.33-.18-.33-.45,0-.11,0-.43.09-.78a10.57,10.57,0,0,0,.2-2,1.92,1.92,0,0,0-.25-1.06c-.18-.31-.45-.49-1.1-.76Zm1-10.39a18.85,18.85,0,0,1,2.24,1c.43.25.63.5.63.84s-.31,1.05-.56,1.05-.27-.13-.45-.4a10.58,10.58,0,0,0-2-2.32Zm15.11,14.28c-.72.25-.85.41-1.14,1.35a14.23,14.23,0,0,1-3-1,11.45,11.45,0,0,1-2.16-1.2,14.77,14.77,0,0,1-6.52,2.48l-.07-.29a17,17,0,0,0,5.85-2.81,10.05,10.05,0,0,1-2.4-3.26H7a11.1,11.1,0,0,0-1.29.11L5.58,188a7.72,7.72,0,0,0,1.42.14h5.62a8.27,8.27,0,0,1,.61-.7c.49.38.63.48,1.1.88.18.14.25.23.25.32s-.16.22-.73.22a15.68,15.68,0,0,1-2.76,3A13.06,13.06,0,0,0,16.62,193Zm-2-7.18c.36-.35.47-.45.85-.8.52.42.66.54,1.17,1,.16.14.21.23.21.3s-.21.24-.9.29a16.61,16.61,0,0,1-1.49,1.28L14.3,188a8.91,8.91,0,0,0,.5-1.48H5.58a5.23,5.23,0,0,1-.29,1.8c-.19.54-.57.92-.9.92s-.56-.56-.56-1.06c0-.22.08-.31.35-.51a3.32,3.32,0,0,0,1.11-2.37h.29v.8ZM7.45,182.3a10.46,10.46,0,0,0-1.4.11L6,181.75a7,7,0,0,0,1.49.14h5.78v-1.67H7.31a7.77,7.77,0,0,0-1.42.09l-.09-.69a5.28,5.28,0,0,0,1.51.18h5.74c.33-.38.42-.48.74-.81.49.33.63.42,1.08.74.16.13.22.22.22.27s0,.16-.63.5c0,.87,0,1.5,0,2,0,.75,0,1.35,0,2.59,0,.11,0,.14-.13.18a2.63,2.63,0,0,1-.88.13c-.18,0-.24,0-.24-.22v-.54H7.45a12.35,12.35,0,0,0-1.58.09l-.11-.63a7.84,7.84,0,0,0,1.69.13h5.78v-1.9Zm.09,6.23a7.77,7.77,0,0,0,2.65,2.76,13,13,0,0,0,2.43-2.76Z"/><path class="cls-1" d="M9.87,200.93c-.71.22-2.4.89-3.64,1.43a2.1,2.1,0,0,1-.74.23c-.32,0-.68-.25-1-.76A2.51,2.51,0,0,1,4,200.5a.78.78,0,0,1,.16-.47c.27.85.76,1.32,1.35,1.32a19.7,19.7,0,0,0,3.41-.78A2.29,2.29,0,0,0,10,200a.39.39,0,0,1,.26-.09c.23,0,.52.18,1,.63s.54.59.54.81-.09.23-.31.34A4.91,4.91,0,0,0,10,202.92c-1.14,1.13-1.8,1.8-2.65,2.7-1.73,1.85-1.73,1.85-2.11,2.23l0,0a9.07,9.07,0,0,1,4.9-1.71c2.3,0,3.85,1.35,3.85,3.37,0,2.58-2.39,4.48-5.65,4.48-1.77,0-2.9-.7-2.9-1.8,0-.88.83-1.53,1.94-1.53a3.34,3.34,0,0,1,2.29.89,3.68,3.68,0,0,1,.79,1.11,3.53,3.53,0,0,0,2.18-3.36,2.49,2.49,0,0,0-1.12-2.24,4.05,4.05,0,0,0-1.78-.36c-1.76,0-4.23,1.44-5.72,3.35-.31.38-.44.49-.62.49s-.59-.63-.59-1.17a.82.82,0,0,1,.38-.63,17.06,17.06,0,0,0,2.5-2.51c2.2-2.46,2.88-3.26,4.3-5.09.15-.2.15-.2.18-.29s0,0-.05,0a0,0,0,0,0,0,0h0l-.09,0ZM7.09,211.27c-.68,0-1.13.36-1.13.92s.79,1.1,2.05,1.1a4.66,4.66,0,0,0,1.28-.17A2.36,2.36,0,0,0,7.09,211.27Z"/><path class="cls-1" d="M16.91,220.84a2.33,2.33,0,1,1-2.33-2.32A2.31,2.31,0,0,1,16.91,220.84Zm-4.07,0a1.75,1.75,0,1,0,3.49,0,1.75,1.75,0,0,0-3.49,0Z"/></g></g></svg>