<svg xmlns="http://www.w3.org/2000/svg" width="50" height="185" viewBox="0 0 50 185"><defs><style>.cls-2{fill:#fff}</style></defs><g id="レイヤー_2" data-name="レイヤー 2"><g id="追従ナビ"><rect width="50" height="185" fill="#472f29"/><path class="cls-2" d="M25.3 54.79c0 .08-.06.16-.32.16h-2.13v3c.69-.28 1.36-.56 1.94-.82a1.09 1.09 0 01.37-.11s-.11.26-2.32 1.62c0 2.08 0 4.08.08 5.27a.64.64 0 01-.67.6.45.45 0 01-.47-.5v-.05c.08-1.28.13-3.09.16-4.91-.62.35-1.28.69-1.95 1-.13.06-.17.22-.29.22s-1-1.15-1-1.17 0 0 .11 0a10.24 10.24 0 003.19-.86V55h-1.5a7.92 7.92 0 01-1.48 3 .63.63 0 010-.22 21 21 0 001-5.41v-.21a.9.9 0 000-.13v-.05c.39 0 1.67.51 1.67.82 0 .13-.13.24-.42.32s-.27.13-.34.34c-.11.41-.22.81-.35 1.2H22a35 35 0 00-.19-4.12.31.31 0 010-.11s1.81.21 1.81.6c0 .09-.1.2-.26.32-.34.22-.38.08-.42.76s0 1.51-.06 2.57h.37a.36.36 0 00.24-.13 5.09 5.09 0 01.54-.74.19.19 0 01.13 0c.44-.18 1.14.82 1.14.98zm7.89 1c0 .11-.1.21-.38.21h-5.05c-.8 0-1.84 0-3.34.14-.27 0-.65-.59-.65-.77 1.93.18 3.12.23 3.95.23v-2.29a24.27 24.27 0 00-2.46.15c-.27 0-.66-.58-.66-.75 1.33.16 2.34.2 3.14.22v-.45a8.81 8.81 0 00-.21-2v-.08c0-.02 0 0 .08 0 .24 0 1.69.2 1.69.52 0 .13-.13.26-.36.37s-.23.1-.28 1.7H30a.32.32 0 00.22-.13c.48-.75.58-.85.74-.85L31 52c.24.08 1.15.82 1.15 1.15 0 .1-.08.19-.33.19h-3.21v2.27h2.21a.34.34 0 00.23-.13 5.86 5.86 0 01.64-.85.22.22 0 01.14 0c.32-.04 1.36.86 1.36 1.18zm.14 2.75c0 .12-.09.21-.38.21h-2.56v2.35c0 .28.06 1.25.06 1.57a1.85 1.85 0 01-1.94 1.83c-.16 0-.19-.1-.29-.23-.22-.28-2-1-2-1.08s0 0 .05 0a.73.73 0 01.18 0 10.45 10.45 0 001.68.19c.94 0 1.31-.31 1.33-.82v-3.81H28c-.8 0-1.89 0-3.39.15-.27 0-.65-.6-.65-.77 2 .19 3.28.22 4.11.22h1.44v-.19a9.17 9.17 0 00-.18-1.68.28.28 0 010-.08c0-.05 0-.05.08-.05s1.63.13 1.63.48c0 .1-.08.18-.19.24-.27.13-.34.11-.37.75v.53H31a.34.34 0 00.23-.13 4.86 4.86 0 01.61-.81.22.22 0 01.14 0c.33-.03 1.35.85 1.35 1.15zM28 61.24a.57.57 0 01-.53.6.77.77 0 01-.62-.44 6.12 6.12 0 00-1.38-1.35c-.13-.09-.19-.14-.19-.16h.24c1.35.02 2.48.56 2.48 1.35zM33.64 80c0 .14-1.11.86-1.33 1.34a.43.43 0 01-.31.26c-.12 0-2.22.25-4.32.25-1.82 0-5.06-.06-5.78-2.67-.38.53-1.29 1.57-2 2.34-.05.06-.08.37-.24.37s-1.21-1.08-1.21-1.14 0-.07.11-.08a8 8 0 002.5-1.47c.25-.23.27-.6.27-3.4v-.59a.18.18 0 00-.19-.18h-.24a10.9 10.9 0 00-1.22.18c-.26 0-.69-.62-.69-.85a16.86 16.86 0 001.95.23h.26a.37.37 0 00.26-.15c.33-.4.41-.4.46-.4s1.3.51 1.3.93c0 .18-.24.3-.4.37s-.4.06-.44.43-.08 1.35-.08 2.08v.9a1.58 1.58 0 00.7 1.32c.81-.27 2.83-1.23 3.31-2.18 0-.06.05-.09.08-.09s1.07.62 1.07.92c0 .1-.11.13-.25.13h-.29c-.06 0-.11 0-.24.1a8.92 8.92 0 01-3.41 1.34 8 8 0 003.51.62 26.09 26.09 0 006.69-.83zm-11-9.49a.6.6 0 01-.55.66.9.9 0 01-.7-.5 6 6 0 00-1.74-1.61c-.07 0-.1-.08-.1-.1s.05 0 .13 0c.56-.05 2.98.34 2.98 1.55zM33 77.33c0 .08-.06.18-.32.18H27c-.8 0-2.24 0-3.52.16-.29 0-.77-.58-.77-.77 1 .13 2.18.18 3.14.21v-1.75c-.45 0-.95 0-1.69.13-.29 0-.74-.56-.74-.74.93.12 1.75.18 2.44.21a5.86 5.86 0 00-.15-1.52.25.25 0 010-.08c.32 0 1.43.22 1.43.42s-.08.14-.23.22-.22.06-.25.64V75h1.84a5.24 5.24 0 00-.15-1.54.32.32 0 010-.08h.05c.05 0 1.41.14 1.41.43 0 .07-.08.15-.23.21s-.21.06-.24.64v.37h.73c.09 0 .19-.11.25-.19a3.11 3.11 0 01.53-.6.27.27 0 01.13 0c.33 0 1 .65 1.15.86a.33.33 0 01.06.14c0 .1-.08.2-.35.2h-2.5v1.79h1.39c.1 0 .18-.1.24-.18.53-.67.61-.75.71-.75S33 77 33 77.33zm-5.2-4.88c0 .5-.94.72-2.5.72s-1.77-.35-1.77-1.06V71a4.62 4.62 0 00-.1-.86v-.13a5.37 5.37 0 011.16.48h1.48v-1.1a.17.17 0 00-.18-.16h-.42a12.09 12.09 0 00-1.73.11c-.27 0-.66-.53-.66-.71a14.39 14.39 0 002.18.18h.5a.26.26 0 00.19-.11c.32-.39.38-.39.4-.39s1.05.5 1.05.82c0 .14-.16.24-.27.32-.27.19-.27.08-.27.4s.06.74.08 1.09a.5.5 0 01-.54.44.31.31 0 01-.34-.31v-.21h-1.45c-.27.12-.27.14-.27.86 0 .53 0 .66 1.15.66s1.19 0 1.6-1.28c0-.08.05-.13.08-.13s.13 1 .27 1.06a.43.43 0 01.34.42zm-1.07 2.9v1.79h1.81v-1.79zm6.11-2.9c0 .62-1.33.72-2.8.72-1.13 0-1.84-.11-1.84-1.06V71a4.37 4.37 0 00-.09-.86v-.13a5.39 5.39 0 011.17.48h1.53v-1.1a.19.19 0 00-.19-.16h-.43a13.25 13.25 0 00-1.85.11c-.27 0-.66-.53-.66-.71a15.44 15.44 0 002.32.17h.51a.24.24 0 00.2-.11c.32-.39.4-.39.41-.39s1.09.53 1.09.82c0 .14-.18.24-.29.32s-.27.1-.27.32v.08c0 .21.06.74.08 1.09 0 .26-.29.42-.54.42s-.36-.1-.36-.31v-.21h-1.5C29 71 29 71 29 71.76s.1.66 1.28.66c1.33 0 1.36 0 1.81-1.28a.27.27 0 01.08-.13c.11 0 .15 1 .29 1.06a.44.44 0 01.36.38zm-1 7.06a.49.49 0 01-.49.51 1 1 0 01-.69-.37 7.45 7.45 0 00-2.42-1.42c-.06 0-.11-.08-.11-.11s.06-.07.17-.07c1.21 0 3.56.47 3.56 1.46zm-6.11 11.76c0 .08-.06.19-.32.19H22.9v1.22h.1c.73 0 2.29.38 2.29 1.36a.52.52 0 01-.48.57c-.19 0-.4-.13-.6-.45A4.33 4.33 0 0023 92.75c0 2.23.05 4.63.12 6.41a.66.66 0 01-.66.61c-.24 0-.46-.16-.46-.53.06-1.46.11-3.57.14-5.63a8.25 8.25 0 01-3.54 3.55s.06-.15.24-.29a15.39 15.39 0 003.33-5.33 19.92 19.92 0 00-2.43.14c-.19 0-.66-.59-.66-.77a27.46 27.46 0 003.14.23 31.94 31.94 0 00-.16-5.27.54.54 0 010-.11s1.68.22 1.68.57c0 .1-.08.2-.27.29s-.37.1-.4.61-.05 1.75-.05 3.09a9.44 9.44 0 001.34-2.61c0-.11 0-.16.05-.16s1.33.79 1.33 1-.11.15-.34.15h-.17c-.16 0-.19.06-.32.17A22.41 22.41 0 0123 90.4h-.08v.61h.73a.31.31 0 00.21-.13c.4-.62.56-.78.71-.78.33.05 1.16.9 1.16 1.17zm-4.16-2A.62.62 0 0121 90c-.2 0-.43-.14-.54-.51a4.57 4.57 0 00-.83-1.36c-.08-.08-.13-.13-.13-.16.33-.06 2.07.42 2.07 1.34zm12.08 4c0 .08-.06.18-.27.24l-2.83.85.1 4.74a.68.68 0 01-.72.59.45.45 0 01-.49-.48v-.07c.08-1.2.13-2.83.15-4.51l-1.23.38a29 29 0 00-3.19 1.11h-.09a1.32 1.32 0 01-.85-.56 36.52 36.52 0 004.06-1l1.31-.4v-2c0-5.39-.14-6.21-.22-6.54a.27.27 0 010-.12s1.87.24 1.87.59c0 .11-.13.24-.34.35s-.3.19-.35.68-.08 1.64-.08 3v3.76l.63-.19a.31.31 0 00.19-.21 8.83 8.83 0 01.43-1c0-.08.16-.09.23-.09.59.16 1.69.61 1.69.97zm-5.36-1a.6.6 0 01-.54.64.71.71 0 01-.55-.34 4.79 4.79 0 00-1.31-1.12c-.13-.08-.19-.11-.19-.15s.62-.08.66-.08c.84.09 1.93.33 1.93 1.14zm.4-3.27a.61.61 0 01-.56.66c-.21 0-.43-.13-.61-.47a4.85 4.85 0 00-1.2-1.19c-.11-.1-.17-.14-.17-.18s.08 0 .24 0c.94-.06 2.3.39 2.3 1.27zM20 114.53c-.16.07-.24.27-.37.27s-1-1.16-1-1.31 0 0 .14 0a8.1 8.1 0 002.61-.4c0-1.12.05-2.61.05-4-.42 0-.82 0-1.52.14-.17 0-.64-.59-.64-.76a17.74 17.74 0 002.18.22v-1.62c0-.5 0-1.49-.05-2a13.14 13.14 0 00-1.71.14c-.2 0-.65-.59-.65-.77a21.47 21.47 0 003 .23h.72a.29.29 0 00.2-.13c.48-.82.61-.83.67-.83.29 0 1.23.84 1.23 1.2 0 .08-.08.16-.3.16h-1.74a.13.13 0 01.08.12c0 .08-.1.16-.24.24-.31.15-.31.15-.31 3.27h.29a.31.31 0 00.18-.13c.08-.16.45-.83.61-.83a.11.11 0 01.08 0c.28.12 1 .86 1 1.16 0 .1-.07.18-.28.18h-1.88v3.79c.8-.22 1.66-.49 2.48-.78h.18a26.55 26.55 0 01-5.01 2.44zm13.54 1.68c0 .11-.06.21-.33.21h-6.42a35.92 35.92 0 00-3.67.18c-.29 0-.76-.63-.76-.84a39.68 39.68 0 004.52.26h1.07v-2.45a28.21 28.21 0 00-2.93.18c-.29 0-.75-.63-.75-.83a36.4 36.4 0 003.7.25v-2.74h-1.9v.57c0 .31-.34.51-.63.51a.37.37 0 01-.41-.41c.09-1.57.11-3.54.11-4.66a15.11 15.11 0 00-.19-2.72v-.09c0-.03 0 0 0 0a7.38 7.38 0 011.48.64h4.2c.08 0 .09 0 .14-.11s.3-.42.46-.42 1.28.56 1.28.87c0 .16-.2.27-.36.36-.31.16-.32.2-.32 1.28s.06 3.16.12 4.41a.59.59 0 01-.6.57.42.42 0 01-.45-.46v-.34h-2.05v2.74h1.27a.36.36 0 00.27-.14s.62-.9.83-.9 1.43.87 1.43 1.23c0 .12-.07.21-.34.21h-3.46v2.45h2a.36.36 0 00.27-.14c.45-.64.7-1 .88-1 .39 0 1.54.96 1.54 1.33zM28 106a9.58 9.58 0 00-.07-1.3h-1.5a1 1 0 01-.15.1c-.14.08-.17.06-.17.46v2H28zm0 1.65h-1.95V110H28zm.91 0v2.4h2.07v-2.4zm2.05-2.77s-.05-.18-.16-.18h-1.56a.13.13 0 01.08.11c0 .08-.08.18-.23.23s-.2.11-.2.33v1.86H31c0-1.05 0-1.92-.08-2.38zm-.04 19.89c0 .14-.11.3-.35.46a2 2 0 00-.71.76c-2.08 3.69-4.62 6.56-8.34 7.68a1.61 1.61 0 01-.41.08h-.1s.16-.18.43-.31c4.44-2 7.51-7.94 7.51-8.27s-.18-.39-.47-.39a19.44 19.44 0 00-3.56.82 5.59 5.59 0 01-1.44.38c-.66 0-2.1-.78-2.1-1.28 0-.25.13-.35.27-.35a.36.36 0 01.29.16c.14.23.69.32 1.36.32.35 0 .72 0 1.09-.06.65-.08 3-.44 3.69-.53.42-.06.6-.43 1-.43.48-.03 1.84.53 1.84.96zm.35-.87a1.42 1.42 0 01-1.44-1.42 1.43 1.43 0 011.44-1.48 1.45 1.45 0 011.46 1.44 1.43 1.43 0 01-1.46 1.46zm0-2.4a1 1 0 00-1 1 1 1 0 001 1 1 1 0 001-1 1 1 0 00-.98-1zM31 143.59c0 .12-.12.25-.34.4a1.46 1.46 0 00-.69.64c-2.32 4.14-5.09 6.1-8.15 7a1.54 1.54 0 01-.41.08h-.08s.14-.16.41-.27c4.41-1.89 7.32-7.17 7.32-7.51 0-.19-.18-.32-.45-.32a17 17 0 00-3.49.71 5.05 5.05 0 01-1.39.37c-.87 0-2.05-.8-2.05-1.14s.13-.34.27-.34a.32.32 0 01.27.15c.12.19.63.25 1.22.25a9.36 9.36 0 001.17-.06c.66-.06 2.82-.37 3.6-.43.42 0 .59-.4.93-.4s1.86.42 1.86.87zm-1.57-3c0 .22-.24.43-.67.46a36.27 36.27 0 00-3.77.53 2.61 2.61 0 01-.48 0c-.86 0-1.47-.44-1.47-.92 0 0 0-.29.14-.29s.15.07.23.13a2 2 0 001.18.29 9.7 9.7 0 002.26-.34c.61-.12.78-.51 1.44-.51.11.06 1.11.19 1.11.69zm-5.08 21.64a.9.9 0 01-.6-.29 7.38 7.38 0 00-2.69-1.55c-.15 0-.21-.1-.21-.13a2.5 2.5 0 011.07-.13c2.13 0 3 .74 3 1.42.01.18-.05.68-.57.68zm.26 5.5c-.43.27-.51.71-1 .71s-1.9-.74-1.9-1.51c0-.05 0-.49.17-.49s.13.08.24.2a1 1 0 00.88.36c2 0 7.57-5.29 9.34-7.35.2-.23.29-.3.32-.3-.03.33-2.49 4.81-8.05 8.38z"/><circle cx="26" cy="26.27" r="10" fill="none" stroke="#fff" stroke-miterlimit="10" stroke-width=".8"/><polygon class="cls-2" points="23.9 22.25 26.51 26.27 23.9 30.3 28.4 26.27 28.4 26.27 28.4 26.27 23.9 22.25"/></g></g></svg>