<svg xmlns="http://www.w3.org/2000/svg" width="50" height="185" viewBox="0 0 50 185"><defs><style>.cls-2{fill:#fff}</style></defs><g id="レイヤー_2" data-name="レイヤー 2"><g id="追従ナビ"><rect width="50" height="185" fill="#594333"/><path class="cls-2" d="M31.61 58c0 1.68-2 2.82-3.33 2.82a1.5 1.5 0 01-1.67-1.59 3.4 3.4 0 01.69-2s.05 0 .05.11a1.9 1.9 0 01-.08.43 3.38 3.38 0 00-.13.84 1.12 1.12 0 001.2 1.26 2.32 2.32 0 002.4-2c0-1.08-1.25-1.32-2-1.32A6.23 6.23 0 0025 58.28v1.79c0 .85-.33 1.23-.65 1.23a.6.6 0 01-.5-.35 2.13 2.13 0 00-1.33-.82 3.18 3.18 0 01-1.55.58c-.37 0-.54-.18-.54-.42a1.09 1.09 0 01.64-.88.31.31 0 01.12.05c.05 0 .08.08.18.08s.64-.14 3-1.63v-3.07a4.56 4.56 0 01-2 .54c-1.11 0-1.38-.66-1.38-1 0-.06 0-.1.06-.1a1 1 0 01.23.07 4.14 4.14 0 001.2.17 3.48 3.48 0 001.83-.52c-.12-1.85-.2-2.43-1-2.43-.21 0-.29 0-.29-.13a.64.64 0 01.69-.48c.53 0 1.28.4 1.28 1.07v.4a4.93 4.93 0 001 .21.45.45 0 01.46.47c0 .57-.67 1-1.55 1.42 0 1 0 2 .05 3a7.58 7.58 0 014-1.42c1.76-.01 2.66.81 2.66 1.89zm-8.79 2a6.74 6.74 0 001 .11c.41 0 .43-.13.45-.35s0-.68 0-1c-.44.41-.96.84-1.45 1.24zM25 52.64a4.27 4.27 0 000 .53v.5a4.33 4.33 0 00.48-.32.36.36 0 00.12-.23c-.04-.12-.19-.25-.6-.48zm8 1.09c0 .21-.14.34-.35.43s-.32 0-.9.19a3.33 3.33 0 00-.83.37.58.58 0 01-.22.1.4.4 0 01.13-.2 1.69 1.69 0 00.49-1c0-.12-.06-.49-.8-.49a2 2 0 00-1.12.38.73.73 0 01-.35.16H29a2.55 2.55 0 012.15-1.15c.85-.02 1.85.55 1.85 1.21zm-.34 16.61c0 .22-.19.4-.53.4a1.35 1.35 0 01-.41-.07 11.61 11.61 0 00-3.28-.43c-.39 0-.79 0-1.17.05 0 .51-.05 1-.05 1.38 0 .62 0 1.13.05 1.52a2.36 2.36 0 01.59 1.68c0 3.13-3.51 5.2-4.42 5.2h-.09s.13-.16.41-.29a6.45 6.45 0 003-3.9 1.56 1.56 0 01-.82.53h-.21A.93.93 0 0125 76a3.38 3.38 0 01-.65-1.91 1.4 1.4 0 011.45-1.52 2 2 0 01.84.19v-2.37a15.25 15.25 0 00-4.08 1.06 2.9 2.9 0 01-1.15.26c-.82 0-1.74-.48-1.74-1.27 0-.14.06-.21.16-.21a.57.57 0 01.33.2c.16.16.63.17.91.17a5.09 5.09 0 00.87-.06c1.62-.24 3.14-.48 4.7-.67V68.3a1.1 1.1 0 00-.63-1.16c-.09-.06-.12-.09-.12-.16s.17-.33.64-.33a1.09 1.09 0 011.15 1.2 3.05 3.05 0 01-.07.56c-.09.48-.16.93-.2 1.36.64-.06 1.31-.11 2-.14.16 0 .24 0 .24-.1s0 0-.07-.07a10.16 10.16 0 01-1.31-1 1.53 1.53 0 01.45.14 8.72 8.72 0 002.16.77c1.41.17 1.78.63 1.78.97zm-7.12 2.59a.76.76 0 00-.75.86c0 .25.17 1.56 1.13 1.56.64 0 .76-.71.76-1.17a2.61 2.61 0 00-.05-.48 1.22 1.22 0 00-1.09-.77zm7.12 15.01c0 .22-.19.4-.53.4a1.35 1.35 0 01-.41-.07 11.61 11.61 0 00-3.28-.43h-1.17c0 .51-.05 1-.05 1.38 0 .62 0 1.13.05 1.52a2.36 2.36 0 01.59 1.68c0 3.14-3.51 5.2-4.42 5.2h-.09s.13-.16.41-.29a6.42 6.42 0 003-3.9 1.56 1.56 0 01-.82.53h-.21a.93.93 0 01-.77-.41 3.38 3.38 0 01-.65-1.91 1.4 1.4 0 011.45-1.52 2.13 2.13 0 01.84.19v-2.37A15.25 15.25 0 0022.48 89a2.9 2.9 0 01-1.15.26c-.82 0-1.74-.48-1.74-1.27 0-.14.06-.21.16-.21a.57.57 0 01.33.2c.16.16.63.17.91.17a5.09 5.09 0 00.87-.06c1.62-.24 3.14-.48 4.7-.67v-1.57a1.09 1.09 0 00-.63-1.15c-.09-.07-.12-.1-.12-.17s.17-.33.64-.33a1.09 1.09 0 011.15 1.2 3 3 0 01-.07.56c-.09.48-.16.93-.2 1.36.64-.06 1.31-.11 2-.14.16 0 .24 0 .24-.1s0 0-.07-.06a11 11 0 01-1.31-1 1.53 1.53 0 01.45.14 8.72 8.72 0 002.16.77c1.49.21 1.86.7 1.86 1.01zm-7.12 2.59a.77.77 0 00-.75.87c0 .24.17 1.55 1.13 1.55.64 0 .76-.71.76-1.17a2.61 2.61 0 00-.05-.48 1.22 1.22 0 00-1.09-.77zm-.67 23.97c-.18 0-.27 0-.27-.06s.2-.18.67-.29c1.63-.42 5.31-2 5.31-5.07a3.34 3.34 0 00-2.85-3.33 14.63 14.63 0 01-1.66 3.66c.64.19.86.47.86.67a.46.46 0 01-.51.39 2.48 2.48 0 01-.91-.24c-.21.3-1.72 2.35-3 2.35-.66 0-1.32-.7-1.32-1.87a5.54 5.54 0 011.68-3.56c-.16-.36-.3-.72-.43-1.07-.24-.65-.51-1.39-.7-1.84a.75.75 0 01-.1-.32.12.12 0 01.11-.13 1.8 1.8 0 011.11 1c.21.46.41 1.1.69 1.78a6.41 6.41 0 013.49-1.4v-.54a1.78 1.78 0 00-.39-1.31c-.12-.13-.48-.13-.48-.24s.12-.34.61-.34S28 103 28 104.3a6.73 6.73 0 01-.08.85 4.13 4.13 0 013.76 4c-.04 3.85-5.07 5.35-6.81 5.35zM23 107.6a4.27 4.27 0 00-1.21 2.66c0 .83.4 1.41.88 1.41A3.72 3.72 0 0025 110a5.64 5.64 0 01-2-2.4zm.64-.64a4.42 4.42 0 001.81 2.26 11.08 11.08 0 001.43-3.52 5.45 5.45 0 00-3.2 1.3zm7.28 15.81c0 .14-.11.3-.35.46a2 2 0 00-.71.76c-2.08 3.69-4.62 6.56-8.34 7.68a1.61 1.61 0 01-.41.08h-.1s.16-.18.43-.31c4.44-2 7.51-7.94 7.51-8.27s-.18-.39-.47-.39a19.44 19.44 0 00-3.56.82 5.59 5.59 0 01-1.44.38c-.66 0-2.1-.78-2.1-1.28 0-.25.13-.35.27-.35a.36.36 0 01.29.16c.14.23.69.32 1.36.32.35 0 .72 0 1.09-.06.65-.08 3-.44 3.69-.53.42-.06.6-.43 1-.43.48-.03 1.84.53 1.84.96zm.35-.86a1.44 1.44 0 110-2.87 1.44 1.44 0 110 2.87zm0-2.41a1 1 0 00-1 1 1 1 0 001 1 1 1 0 001-1 1 1 0 00-.98-1zM31 141.59c0 .12-.12.25-.34.4a1.46 1.46 0 00-.69.64c-2.32 4.14-5.09 6.1-8.15 7a1.54 1.54 0 01-.41.08h-.08s.14-.16.41-.27c4.41-1.89 7.32-7.17 7.32-7.51 0-.19-.18-.32-.45-.32a17 17 0 00-3.49.71 5.05 5.05 0 01-1.39.37c-.87 0-2.05-.8-2.05-1.14s.13-.34.27-.34a.32.32 0 01.27.15c.12.19.63.25 1.22.25a9.36 9.36 0 001.17-.06c.66-.06 2.82-.37 3.6-.43.42 0 .59-.4.93-.4s1.86.42 1.86.87zm-1.57-3c0 .22-.24.43-.67.46a36.27 36.27 0 00-3.77.53 2.61 2.61 0 01-.48 0c-.86 0-1.47-.44-1.47-.92 0 0 0-.29.14-.29s.15.07.23.13a2 2 0 001.18.29 9.7 9.7 0 002.26-.34c.61-.12.78-.51 1.44-.51.11.06 1.11.19 1.11.69zm-5.08 21.64a.9.9 0 01-.6-.29 7.38 7.38 0 00-2.69-1.55c-.15 0-.21-.1-.21-.13a2.5 2.5 0 011.07-.13c2.13 0 3 .74 3 1.42.01.18-.05.68-.57.68zm.26 5.5c-.43.27-.51.71-1 .71s-1.9-.74-1.9-1.51c0-.05 0-.49.17-.49s.13.08.24.2a1 1 0 00.88.36c2 0 7.57-5.29 9.34-7.35.2-.23.29-.3.32-.3-.03.33-2.49 4.81-8.05 8.38z"/><circle cx="26" cy="26.27" r="10" fill="none" stroke="#fff" stroke-miterlimit="10" stroke-width=".8"/><polygon class="cls-2" points="23.9 22.25 26.51 26.27 23.9 30.3 28.4 26.27 28.4 26.27 28.4 26.27 23.9 22.25"/></g></g></svg>