<svg version="1.1" id="レイヤー_1" xmlns="http://www.w3.org/2000/svg" x="0" y="0" width="35.5" height="35.5" viewBox="0 0 35.5 35.5" xml:space="preserve"><g><path d="M33.2 25.2l-3-2.4c-1.5-1.2-3.7-1.1-5.2.2-.6.5-1.1 1.1-1.4 1.4l-.1.1s0 0 0 0c-1.1.7-6.3-4.1-7.4-5.1-1.1-1.1-6.1-6.7-5-7.5.4-.3.9-.8 1.4-1.4 1.3-1.4 1.4-3.6.2-5.2l-2.4-3c-.2-.3-.4-.5-.6-.6 0 0 0 0 0 0-.2-.2-.3-.2-.4-.3 0 0 0 0 0 0C8.8 1 8.2.8 7.6.8c0 0 0 0 0 0-.5-.1-1 0-1.4.1C4.9 1.2.7 4.1.8 6.2c0 .6.4 1.8 1.1 3.2 1.4 3.3 3.2 6.3 5.3 9.2 2.8 3.8 6.1 7.1 9.8 9.8 2.8 2.1 5.9 3.9 9.1 5.3 1.4.6 2.6 1 3.2 1.1 2.1.1 5-4.2 5.4-5.4.3-1.6-.2-3.2-1.5-4.2z" fill="none" stroke="#fff" stroke-width="1.5" stroke-miterlimit="10"/></g></svg>