<svg version="1.1" id="レイヤー_1" xmlns="http://www.w3.org/2000/svg" x="0" y="0" width="37.6" height="36.6" viewBox="0 0 37.6 36.6" xml:space="preserve"><style type="text/css">.st0{fill:none;stroke:#fff;stroke-width:1.5853;stroke-linecap:round;stroke-linejoin:round;stroke-miterlimit:10}.st1{fill:#fff}</style><g><line class="st0" x1="30.5" y1=".8" x2="30.5" y2="5.6"/><line class="st0" x1="22.7" y1=".8" x2="22.7" y2="5.6"/><line class="st0" x1="14.9" y1=".8" x2="14.9" y2="5.6"/><line class="st0" x1="7.1" y1=".8" x2="7.1" y2="5.6"/><path class="st0" d="M36.8 27.9V4.8c0-1.3-1.1-2.4-2.3-2.4H3.1C1.8 2.4.8 3.5.8 4.8v28.6c0 1.3 1.1 2.4 2.3 2.4H28"/><path class="st0" d="M.8 10.3v23.1c0 1.3 1.1 2.4 2.3 2.4h31.3c1.3 0 2.3-1.1 2.3-2.4V4.8c0-1.3-1.1-2.4-2.3-2.4H9.5"/><line class="st0" x1="6.3" y1="11.1" x2="31.3" y2="11.1"/></g><g><ellipse class="st1" cx="18.8" cy="18.9" rx="1.3" ry="1.4"/><ellipse class="st1" cx="10.8" cy="18.9" rx="1.3" ry="1.4"/><ellipse class="st1" cx="26.8" cy="18.9" rx="1.3" ry="1.4"/><ellipse class="st1" cx="18.8" cy="27" rx="1.3" ry="1.4"/><ellipse class="st1" cx="10.8" cy="27" rx="1.3" ry="1.4"/><ellipse class="st1" cx="26.8" cy="27" rx="1.3" ry="1.4"/></g></svg>