<svg version="1.1" id="レイヤー_1" xmlns="http://www.w3.org/2000/svg" x="0" y="0" width="16" height="16" viewBox="0 0 16 16" xml:space="preserve"><g><path d="M15.2 12.1l-1.5-1.2c-.8-.6-1.8-.6-2.6.1-.3.3-.6.5-.7.7h-.2c-.8-.1-3-2.1-3.4-2.6-.6-.5-3-3.3-2.5-3.7.2 0 .4-.3.7-.6.6-.7.7-1.8.1-2.5L3.9.8C3.8.6 3.7.5 3.6.5c-.1 0-.1-.1-.2-.1C3.2.2 3 .1 2.8.1 2.7 0 2.7 0 2.6 0h-.7C1.3.2.7.7.5 1.2.2 2-.1 3 0 4v.1c.3 1.5 2.6 4.7 4.2 6.6l.1.1.1.1c.2.1.6.5.7.6 1.8 1.7 5.3 4.1 6.8 4.4h.1c.9.1 2-.2 2.7-.5.6-.2 1-.7 1.2-1.4.2-.6 0-1.4-.7-1.9z" fill="#fff"/></g></svg>