<svg version="1.1" id="レイヤー_1" xmlns="http://www.w3.org/2000/svg" x="0" y="0" width="63" height="37" viewBox="0 0 63 37" xml:space="preserve"><style type="text/css">.st0{fill:#fff}</style><g><g><path id="XMLID_2434_" class="st0" d="M57.1 25.5V15.2c0-.6-.1-.8-.7-1-2.4-.5-4.1-2.7-4.1-5.2V1c0-.2 0-.4.1-.5.1-.2.4-.3.6-.3.2.1.4.4.4.6 0 1.4 0 2.8.1 4.1 0 1.5 0 3.1.1 4.6.1 2.1 2 3.7 4.3 3.6 2.1 0 4-1.7 4.1-3.7.1-2.6.1-5.2.1-7.8 0-.3-.1-.6 0-.8-.1.1-.1 0-.1-.1.2-.4.7-.3.9.1v.1c.1 1.5 0 3 .1 4.5v3.2c0 3-1.5 4.9-4.4 5.7-.6.1-.5.5-.5.9v20.9c0 .4.1.8-.5.9-.6 0-.6-.5-.6-.9.1-3.7.1-7.2.1-10.6z"/><path id="XMLID_2433_" class="st0" d="M57.5 30.5c.8 0 1.4.6 1.4 1.4v3.6c0 .8-.6 1.4-1.4 1.4-.8 0-1.4-.6-1.4-1.4v-3.6c.1-.8.7-1.4 1.4-1.4z"/><path id="XMLID_2431_" class="st0" d="M57.6.4c-.3 0-.5.2-.5.5v11.3c0 .3.2.5.5.5s.5-.2.5-.5V.9c0-.2-.2-.5-.5-.5z"/></g><g><path id="XMLID_2435_" class="st0" d="M4.8 14.8c-1.9-.4-3.1-1.6-3.8-3.2C-.4 8.7-.3 5.8 1.2 3 2 1.3 3.3.2 5.4.2c2 0 3.2 1.2 4.1 2.8 1.4 2.5 1.4 5.1.5 7.8-.1.4-.2 1-.8.7-.6-.2-.3-.7-.2-1.1.9-2.7.8-5.3-1-7.7-1.5-2.1-4-2-5.5.1-.4.6-.8 1.4-1 2.1C.7 7.7.9 10.4 3 12.6c.5.5 1.3.9 2 1.1.7.1.9.4.9 1.1v21c0 .2 0 .5-.1.7-.1.2-.3.3-.5.3-.1 0-.4-.2-.4-.4-.1-.2 0-.5 0-.7v-20c-.1-.3-.1-.6-.1-.9z"/><path id="XMLID_2432_" class="st0" d="M5.3 30.5c.8 0 1.4.6 1.4 1.4v3.6c0 .8-.6 1.4-1.4 1.4-.8 0-1.4-.6-1.4-1.4v-3.6c0-.8.6-1.4 1.4-1.4z"/><g id="XMLID_2427_"><path id="XMLID_2428_" class="st0" d="M4.1 10.8c-.2.2-.5.1-.7-.1-.2-.4-.5-.9-.7-1.7-.3-1.1-.3-2.8.7-4.5.1-.3.4-.3.6-.2.2.2.3.4.2.7-1.3 2.3-.4 4.4 0 5.2.1.2 0 .4-.1.6z"/></g><path d="M9.7 10s-.7 4-4.6 4.3" fill="none" stroke="#fff" stroke-width="1.1" stroke-miterlimit="10"/></g><g id="XMLID_2419_"><g id="XMLID_2424_"><path id="XMLID_2425_" class="st0" d="M30.9 26.5c-4.3 0-7.9-3.6-7.9-8 0-4.3 3.3-7.8 7.5-8.1.3 0 .5.2.5.5s-.2.5-.4.5c-3.7.2-6.6 3.3-6.6 7.1 0 3.9 3.2 7 7 7s6.9-2.9 7.1-6.6c0-.3.2-.4.5-.4s.5.2.5.5c-.4 4.2-3.9 7.6-8.2 7.5z"/></g><g id="XMLID_2_"><path id="XMLID_3_" class="st0" d="M31 10.5c4.3 0 7.9 3.6 7.9 8 0 4.3-3.3 7.8-7.5 8.1-.3 0-.5-.2-.5-.5s.2-.5.4-.5c3.7-.2 6.6-3.3 6.6-7.1 0-3.9-3.2-7-7-7s-6.9 2.9-7.1 6.6c0 .3-.2.4-.5.4s-.5-.2-.5-.5c.5-4.2 4-7.6 8.2-7.5z"/></g><g id="XMLID_2422_"><path id="XMLID_2423_" class="st0" d="M40.3 9.1c-2.4-2.4-5.4-3.7-8.8-3.9-.3 0-.5.2-.5.5s.2.5.5.5c6.4.3 11.5 5.4 11.7 11.8 0 .3.2.5.5.5s.5-.2.5-.5c-.2-3.3-1.5-6.5-3.9-8.9z"/></g><path id="XMLID_2421_" class="st0" d="M30.4 30.8C24.1 30.5 19 25.3 18.8 19c0-.3-.2-.5-.5-.5s-.5.2-.5.5c.1 3.3 1.5 6.5 3.8 8.9 2.3 2.4 5.4 3.7 8.7 3.9.3 0 .5-.2.5-.5.1-.3-.1-.5-.4-.5z"/><path id="XMLID_2420_" class="st0" d="M47.9 11.3C47 9.1 45.7 7.1 44 5.4c-1.7-1.7-3.7-3-5.8-4C35.9.5 33.5 0 31 0s-4.9.5-7.2 1.5c-2.2.9-4.2 2.3-5.8 4-1.7 1.7-3 3.7-3.9 5.9-1 2.3-1.4 4.7-1.4 7.2 0 6.6 3.5 12.7 9.1 16 .2.1.5.1.7-.2.1-.2 0-.5-.2-.6-5.4-3.1-8.7-8.9-8.7-15.2 0-10.8 9.7-19.3 20.8-17.2C40.8 2.6 47 8.9 48.2 15.3c2 10.9-6.1 20.5-16.5 20.9-.3 0-.5.2-.5.5s.2.5.5.5c2.3-.1 4.4-.6 6.5-1.4 2.2-.9 4.2-2.3 5.8-4 1.7-1.7 3-3.7 3.9-5.9 1-2.3 1.4-4.7 1.4-7.2s-.4-5.1-1.4-7.4z"/><path id="XMLID_1_" class="st0" d="M14 25.7c.9 2.2 2.3 4.2 3.9 5.9 1.7 1.7 3.7 3 5.8 4 2.3 1 4.7 1.5 7.2 1.5s4.9-.5 7.2-1.5c2.2-.9 4.2-2.3 5.8-4 1.7-1.7 3-3.7 3.9-5.9 1-2.3 1.4-4.7 1.4-7.2 0-6.6-3.5-12.7-9.1-16-.2-.1-.5-.1-.7.2-.1.2 0 .5.2.6 5.4 3.1 8.7 8.9 8.7 15.2 0 10.8-9.7 19.3-20.8 17.2-6.4-1.2-12.6-7.5-13.8-13.9C11.8 10.9 19.9 1.3 30.4 1c.3 0 .5-.2.5-.5s-.2-.5-.5-.5c-2.3.1-4.4.6-6.5 1.4-2.2.9-4.2 2.3-5.8 4s-3 3.7-3.9 5.9c-1 2.3-1.4 4.7-1.4 7.2s.3 4.9 1.2 7.2z"/></g></g></svg>