<svg version="1.1" id="レイヤー_1" xmlns="http://www.w3.org/2000/svg" x="0" y="0" width="17" height="19" viewBox="0 0 17 19" xml:space="preserve"><style type="text/css">.st0{fill:#210100}</style><g><path class="st0" d="M15.3.6h-1.2v1h1.2c.4 0 .7.3.7.7v2.6H1V2.3c0-.4.3-.7.7-.7h1.2v-1H1.7C.8.6 0 1.4 0 2.3v15.1c0 .9.8 1.6 1.7 1.6h13.7c.9 0 1.7-.7 1.7-1.6V2.3C17 1.4 16.2.6 15.3.6zm0 17.4H1.7c-.4 0-.7-.3-.7-.6V5.8h15v11.5c0 .4-.3.7-.7.7z"/><rect x="5.4" y=".6" class="st0" width="6.2" height="1"/><path class="st0" d="M4.1 3.3c.2 0 .4-.2.4-.4V.4c0-.2-.1-.4-.4-.4-.2 0-.3.2-.3.4v2.5c0 .2.1.4.3.4zm8.8 0c.2 0 .4-.2.4-.4V.4c0-.2-.2-.4-.4-.4s-.4.2-.4.4v2.5c0 .2.1.4.4.4z"/><polygon class="st0" points="6.5,8.1 6.2,8.1 6.2,8.1 6.2,8.1 6.2,8.1 6.2,8.4 6.2,9.6 6.2,9.9 6.5,9.9 7.7,9.9 8,9.9 8,9.6 8,8.4 8,8.1 7.7,8.1"/><polygon class="st0" points="9.3,8.1 9,8.1 9,8.1 9,8.1 9,8.1 9,8.4 9,9.6 9,9.9 9.3,9.9 10.5,9.9 10.8,9.9 10.8,9.6 10.8,8.4 10.8,8.1 10.5,8.1"/><polygon class="st0" points="12.2,8.1 11.9,8.1 11.9,8.1 11.9,8.1 11.9,8.1 11.9,8.4 11.9,9.6 11.9,9.9 12.2,9.9 13.4,9.9 13.7,9.9 13.7,9.6 13.7,8.4 13.7,8.1 13.4,8.1"/><polygon class="st0" points="3.6,11 3.3,11 3.3,11 3.3,11 3.3,11 3.3,11.3 3.3,12.5 3.3,12.8 3.6,12.8 4.8,12.8 5.1,12.8 5.1,12.5 5.1,11.3 5.1,11 4.8,11"/><polygon class="st0" points="9.3,11 9,11 9,11 9,11 9,11 9,11.3 9,12.5 9,12.8 9.3,12.8 10.5,12.8 10.8,12.8 10.8,12.5 10.8,11.3 10.8,11 10.5,11"/><polygon class="st0" points="3.6,14 3.3,14 3.3,14 3.3,14 3.3,14 3.3,14.3 3.3,15.4 3.3,15.7 3.6,15.7 4.8,15.7 5.1,15.7 5.1,15.4 5.1,14.3 5.1,14 4.8,14"/><polygon class="st0" points="6.5,14 6.2,14 6.2,14 6.2,14 6.2,14 6.2,14.3 6.2,15.4 6.2,15.7 6.5,15.7 7.7,15.7 8,15.7 8,15.4 8,14.3 8,14 7.7,14"/><polygon class="st0" points="12.2,14 11.9,14 11.9,14 11.9,14 11.9,14 11.9,14.3 11.9,15.4 11.9,15.7 12.2,15.7 13.4,15.7 13.7,15.7 13.7,15.4 13.7,14.3 13.7,14 13.4,14"/><polygon class="st0" points="3.6,8.1 3.3,8.1 3.3,8.1 3.3,8.1 3.3,8.1 3.3,8.4 3.3,9.6 3.3,9.9 3.6,9.9 4.8,9.9 5.1,9.9 5.1,9.6 5.1,8.4 5.1,8.1 4.8,8.1"/><polygon class="st0" points="6.5,11 6.2,11 6.2,11 6.2,11 6.2,11 6.2,11.3 6.2,12.5 6.2,12.8 6.5,12.8 7.7,12.8 8,12.8 8,12.5 8,11.3 8,11 7.7,11"/><polygon class="st0" points="12.2,11 11.9,11 11.9,11 11.9,11 11.9,11 11.9,11.3 11.9,12.5 11.9,12.8 12.2,12.8 13.4,12.8 13.7,12.8 13.7,12.5 13.7,11.3 13.7,11 13.4,11"/><polygon class="st0" points="9.3,14 9,14 9,14 9,14 9,14 9,14.3 9,15.4 9,15.7 9.3,15.7 10.5,15.7 10.8,15.7 10.8,15.4 10.8,14.3 10.8,14 10.5,14"/></g></svg>