<svg xmlns="http://www.w3.org/2000/svg" width="50" height="135" viewBox="0 0 50 135"><defs><style>.cls-2{fill:#fff}</style></defs><g id="レイヤー_2" data-name="レイヤー 2"><g id="追従ナビ"><rect width="50" height="135" fill="#755a3b"/><path class="cls-2" d="M24.44 52.58c0 .13-.13.24-.47.26s-.29 0-.48.32c-.35.48-.69.92-1 1.34.5.11.69.16.69.3s-.08.18-.27.26-.29.14-.32.61c-.08 1.36-.1 5-.12 6.4a.58.58 0 01-.62.55.4.4 0 01-.45-.4c.13-1.5.26-4.94.27-6.11v-.64a8.18 8.18 0 01-3.23 2.42s.09-.11.25-.24A14.14 14.14 0 0023 51.81c0-.07 0-.11.05-.11s1.39.51 1.39.88zm8.14-1.22c0 .18-.17.34-.62.36a5.35 5.35 0 00-2.13.65h-.13a.2.2 0 01.06-.11 6.63 6.63 0 00.79-1.16.1.1 0 00-.1-.08h-8.91c-.21 1.52-1.11 2.07-1.62 2.07a.54.54 0 01-.59-.51 1 1 0 01.42-.71 3.32 3.32 0 001.48-2.3c0-.12.07-.18.1-.18s.24.78.24 1.23h3.92v-.16a13 13 0 00-.17-2.14.26.26 0 010-.11c.32 0 1.88.26 1.88.61 0 .13-.11.24-.3.35s-.34.19-.38.67l-.05.8h4a.44.44 0 00.24-.13c0-.06.34-.38.53-.38h.07c.38.16 1.27.8 1.27 1.23zm.11 2c0 .09-.08.19-.33.19h-4c.32.09.54.21.54.33s-.11.18-.4.24a.4.4 0 00-.3.26c-.21.35-.45.75-.67 1.07h2a.29.29 0 00.23-.13s.29-.44.48-.44 1.23.59 1.23.91-.19.29-.35.38-.31.23-.31 1.43c0 1 0 2.43.12 4.16a.61.61 0 01-.6.56.41.41 0 01-.44-.46v-.81h-3.84v.83a.59.59 0 01-.61.54A.41.41 0 0125 62c.11-1.6.14-2.89.14-3.93V57a14.15 14.15 0 00-.14-2v-.14a6.67 6.67 0 011.44.66h.68a10.15 10.15 0 00.18-1.89c-.75 0-1.65 0-2.51.13-.25 0-.66-.59-.66-.77a40.67 40.67 0 004.21.23h2.05a.31.31 0 00.21-.13c.18-.29.59-.88.77-.88a.2.2 0 01.1 0c.47.18 1.22.93 1.22 1.19zm-2.76 2.72a.22.22 0 00-.24-.2h-3.27l-.08.07c-.24.18-.24.08-.27.62v1.33H30c0-.74 0-1.38-.07-1.78zM26 58.36v2.32h3.89v-2.32zm-4.64 12.78a.61.61 0 01-.56.64.74.74 0 01-.56-.34 5.09 5.09 0 00-1.36-1.12c-.13-.08-.19-.11-.19-.14s.64-.08.67-.08c.88 0 2 .24 2 1.04zm.26 5.75a4.5 4.5 0 00.22 1.42A1.94 1.94 0 0122 79c0 .6-.34.95-.66.95s-.64-.34-.64-1.1v-.2c0-.45.15-.93.15-1.37 0-.66-.24-1.24-1.3-1.51-.27-.06-.38-.13-.38-.17s.14-.1.38-.1c.64 0 1.11 0 1.36-.72 1.25-3.38 3.31-7.91 3.57-7.91v.07a1.3 1.3 0 01-.08.32c-2.14 6.01-2.78 8.01-2.78 9.63zm1.31-9.1a.63.63 0 01-.59.66c-.21 0-.43-.13-.63-.46a5 5 0 00-1.23-1.32c-.13-.09-.19-.14-.19-.17s.08 0 .26 0c.94-.03 2.38.4 2.38 1.29zm9.67 1.7c0 .18-.21.29-.37.39-.34.19-.34.2-.34 1.69 0 2 .05 5.91.13 7.73a.63.63 0 01-.64.58.45.45 0 01-.48-.47v-.9h-5.17v.93a.61.61 0 01-.66.54.42.42 0 01-.46-.45c.11-1.61.14-4.93.14-7.1v-1.76a14 14 0 00-.18-2 .24.24 0 010-.1 7.94 7.94 0 011.53.66h.9a12 12 0 00.74-3 .75.75 0 000-.22.53.53 0 010-.12v-.06s1.78.53 1.78.78-.13.23-.45.28a.38.38 0 00-.35.27 16.74 16.74 0 01-1.38 2.09h3.16a.33.33 0 00.25-.12c.28-.44.48-.45.52-.45s1.33.39 1.33.81zm-1.7.29s0-.19-.24-.19h-4.54l-.08.06c-.26.18-.26.08-.29.63s0 1.66 0 3.1H31c0-1.71-.07-3.17-.1-3.6zm-5.18 4v4.3h5.19v-4.3zm7.04 16.29c0 .21-.19.33-.5.35a1.89 1.89 0 00-1.07.32 20.35 20.35 0 01-3.06 1.49h-.08a.11.11 0 01.07-.09 13 13 0 002.33-2.23s0-.08-.16-.08h-3.41c.1 0 .15.11.15.16s-.13.21-.31.26-.17.2-.19.68 0 1.64 0 2.57v1c0 .31.06 1.09.06 1.43a1.92 1.92 0 01-2.06 1.86c-.13 0-.21-.07-.31-.21-.26-.39-1.9-1.11-1.9-1.25s0 0 .08 0a.66.66 0 01.17 0 12.21 12.21 0 002 .27c.66 0 1-.22 1-.86V94.2c0-.85 0-3.86-.13-4.37h-1.25c-1.37 0-2.59 0-4.27.13-.3 0-.75-.56-.75-.8 2.16.22 4.37.24 5.07.24h6.1a.58.58 0 00.4-.16c.14-.11.34-.35.45-.42a.31.31 0 01.17-.06c.31-.05 1.4.96 1.4 1.31zm-2.11-4.66c0 .21-.21.37-.47.42a2.6 2.6 0 00-1 .35c-.62.41-1.65 1.1-2.4 1.57a1.07 1.07 0 01.43.8.58.58 0 01-.51.62.79.79 0 01-.61-.4 9 9 0 00-2.48-2c-.09-.07-.14-.1-.14-.13s0 0 .08 0a7.72 7.72 0 013 .91 14.18 14.18 0 001.82-2.13s0-.1-.16-.1h-2c-1.38 0-2.85 0-4.53.13-.3 0-.75-.56-.75-.8 2.16.23 4.63.24 5.33.24h1.94a.51.51 0 00.38-.16c.47-.4.56-.46.64-.46.29-.01 1.43.73 1.43 1.14zm-9.26 25.14c0 .11-.11.21-.38.27s-.27.15-.35.37c-.87 2.27-1.86 3.5-2 3.5a.42.42 0 01.06-.21 12.88 12.88 0 001.06-4.48v-.16c.22-.03 1.61.39 1.61.71zm3.75-2.1a.62.62 0 01-.54.67c-.25 0-.47-.19-.55-.65a4.48 4.48 0 00-.11-.5c-.29.1-.69.21-1.12.32.09 0 .16.1.16.16s-.07.15-.19.21-.23.14-.23 1.55 0 3.27.07 4.6a.61.61 0 01-.63.56c-.21 0-.4-.13-.4-.46v-.07c.11-1.71.16-3.44.16-5.15v-1.17l-1.63.38c-.16 0-.27.19-.39.19s-.75-1.05-.75-1.21h.11a9.52 9.52 0 001.14.07h.43c.36-.5 2.36-3.38 2.58-4.84 0-.13 0-.16.06-.16s1.45.63 1.45.87-.13.22-.45.25a.53.53 0 00-.37.24 40.45 40.45 0 01-2.9 3.6c.93 0 2.07-.12 2.8-.22a6.26 6.26 0 00-.53-1 .48.48 0 01-.09-.19c.34 0 1.92 1.02 1.92 1.95zM23 101.79c0 .1-.13.21-.43.26a.39.39 0 00-.35.26 23.94 23.94 0 01-1.47 2.19c.75.35.88.7.88 1a.56.56 0 01-.5.6.7.7 0 01-.58-.45 4.14 4.14 0 00-1.2-1.35c-.11-.08-.14-.14-.14-.17s0 0 .08 0a3.6 3.6 0 011.18.28 9.24 9.24 0 00.93-3.12v-.37s1.6.57 1.6.87zm2.1 10.49a.63.63 0 01-.53.69c-.21 0-.43-.18-.53-.6a7.82 7.82 0 00-.88-2.16c-.06-.11-.11-.17-.11-.21.23 0 2.09 1.16 2.09 2.28zm7.75-7.48c0 .15-.12.31-.37.43s-.37.21-.37.66v1a28.79 28.79 0 01-.21 4.18c-.41 2.8-1.92 4-3.52 4.1a.27.27 0 01-.26-.13c-.14-.35-2.08-1.25-2.08-1.36h.14a8.91 8.91 0 002 .3c1.31 0 2.29-.66 2.72-3a41.55 41.55 0 00.22-5.88c0-.22-.12-.25-.24-.25h-4.01c-1.07 2-1.91 2.75-2.05 2.75a1.52 1.52 0 01.2-.37c.48-.75 2-4.23 2-5.75 0-.16 0-.17.05-.17s1.6.46 1.6.76c0 .13-.13.28-.41.34s-.24.11-.32.3c-.21.45-.5 1.08-.85 1.73h3.81a.27.27 0 00.27-.13c.24-.32.4-.43.45-.43s1.27.55 1.27.92zm-3.8 4.48a.51.51 0 01-.51.56 1 1 0 01-.72-.43 10.31 10.31 0 00-1.86-1.6 2 2 0 01-.24-.17c.56-.02 3.37.36 3.37 1.64z"/><circle cx="26" cy="26.27" r="10" fill="none" stroke="#fff" stroke-miterlimit="10" stroke-width=".8"/><polygon class="cls-2" points="23.9 22.25 26.51 26.27 23.9 30.3 28.4 26.27 28.4 26.27 28.4 26.27 23.9 22.25"/></g></g></svg>