<svg version="1.1" id="レイヤー_1" xmlns="http://www.w3.org/2000/svg" x="0" y="0" width="120" height="61.5" viewBox="0 0 120 61.5" xml:space="preserve"><g><g><g><path d="M17.4 3.3c.2 0 .4.1.6.1.2 0 1.1-.1 1.5-.2.1-.2.5-1.1.6-1.3.1-.3.2-.6.2-.9 0-.1 0-.2-.1-.2V.7c.9 0 .9.6.9.6 0 .2-.1.4-.2.5-.4.7-.5.8-.7 1.2.3-.1.5-.1.6-.3.1-.1.3-.2.4-.2.2 0 .7.3.7.5 0 .3-1.5.6-2 .7-.4.9-.5 1-1.2 2.3-.6 1-.7 1.2-1 1.2-.2 0-.3-.1-.3-.4 0-.3.1-.5.5-1 .2-.3.9-1.2 1.3-2.1h-.5c-.4.2-.9.1-1.3-.4zm5.3 1.6c-.2.3-.2.4-.2.9 0 .3 0 .8.1 1.2 0 .2.1.9.1 1 1.2.3 1.8.6 1.8 1.2 0 .2-.1.3-.3.3-.1 0-.1 0-.5-.3-.5-.3-.6-.4-1.1-.5 0 .2-.1.7-.3 1-.3.3-.8.6-1.3.6S19.4 10 19.4 9c0-1.2 1.2-1.2 1.7-1.2s.7 0 .9.1c-.1-.6-.1-1.6-.1-1.9 0-.7.2-1.2.8-1.1zm-2 3.4c-.2 0-.8 0-.8.5s.6.7 1.1.7c.9 0 1-.7 1-1.1-.3.1-.7-.1-1.3-.1zm2.8-4.9c.5 0 .8 0 1.1.2.5.2.7.6.7 1S25 5 25 5c-.1 0-.3-.1-.5-.2s-.7-.1-.9-.2l-.1-.1c.5-.2.6-.2.6-.4.1 0 0-.4-.6-.7zm11.5 1c.2.1.3.1.6.1.2 0 .9-.1 1.7-.4.2-.6.7-2.1.8-2.6h.1c.3.1.7.4.7.7 0 .1 0 .2-.1.4-.2.5-.6 1.2-.7 1.3.5-.1.7-.1.8-.1 1.2 0 1.4.8 1.4 1.2 0 .8-.4 2.4-.8 3.4s-.8 1.2-1.2 1.2c-.4 0-.4-.2-.4-.3V9c0-.2 0-.3-.4-1.2h.1c.4.3.7.5.9.5.6 0 1.2-2.5 1.2-3.5 0-.2 0-.7-.7-.7-.3 0-.8.1-1 .2-.3.8-.9 1.8-1.4 2.8-.3.6-.6 1.1-.8 1.1-.2 0-.2-.3-.2-.5s.1-.4.5-.9c.5-.8.6-.9 1.2-2.1-.1.1-.9.4-1.1.4-.9.1-1.1-.4-1.2-.7zm6.3-.9c.5.1 1.1.3 1.6.5 1.1.5 1.4 1.3 1.4 1.9 0 .4-.3.6-.4.6-.1 0-.2-.1-.4-.3-.1-.1-.4-.4-1-.5v-.1c.2-.1.5-.1.5-.4.1-.5-1.3-1.4-1.7-1.7zm.6-1.7c.7.1 1.8.3 1.8 1 0 .1-.1.3-.2.3s-.1 0-.5-.4c-.3-.3-.7-.6-1-.7l-.1-.2zm.9-.7c.2 0 .9.1 1.2.2.3.1.6.4.6.7 0 .2-.1.2-.3.2-.1 0-.1 0-.2-.1-.1 0-.5-.5-.6-.5-.2-.1-.7-.4-.7-.5zM59 9.5c1.7-.7 2.3-2.1 2.3-3.2 0-1.4-1.2-2.3-2.9-2.2-.8 1.9-1.2 2.5-1.4 2.7.2.2.3.2.7.5.2.1.3.3.3.5s-.1.5-.3.5c-.3 0-.8-.5-1.2-.9-.6.9-1.8 1.6-2.1 1.6-.1 0-.1 0-.2-.1s-.2-.3-.2-.4c-.4-.4-.4-.5-.4-.8 0-.3.1-1.6 1.8-2.8-.5-1.5-.7-1.9-.9-2.2v-.1c1 .3 1.2 1.3 1.3 2 .5-.4 1.3-.7 1.9-.8.2-.5.3-1.3.3-1.6 0-.1 0-.5-.2-.7v-.1c.5.1 1.1.5 1.1 1.1 0 .3-.3.9-.4 1.2h.4c1.7 0 3.1 1.1 3.1 2.9.2 1.5-1.1 2.7-3 2.9zm-4.7-2.3c0 .6.4.8.5.8.1 0 .6-.1 1.4-1.1-.3-.6-.5-1-.7-1.6-.7.6-1.2 1.4-1.2 1.9zm3.4-2.9c-.7.1-1.5.5-1.6.7.1.4.3 1 .6 1.4.4-.8.9-1.9 1-2.1zm19.1 5.1c.7-.4 2.6-1.5 2.6-3.8 0-2.1-1.5-2.5-2.7-2.5-.5 0-.9.1-1.2.2.2.2.7.4.7 1 0 .4-.7 1.8-1 2.3-.3.5-1.1 2.1-1.9 2.1-.3 0-.4-.2-.5-.5-.5-.9-.7-1.3-.7-1.8 0-1.6 2-3.7 4.8-3.7 2.4 0 3.5 1.4 3.5 3.2-.1.7-.3 3-3.6 3.5zm-3.5-4.3c-.1.1-.2.2-.5.4-.1.1-.3.2-.3.6 0 .5.6 1.4 1 1.4.6 0 2-2.8 2-3.6 0-.2 0-.4-.1-.5-1 .2-1.6 1.1-2.1 1.7zm16.5-1.2l.7-1 .6-1c0-.1.4-.7.4-1-.1-.1-.1-.2-.1-.3.1-.1.2-.1.2-.1.1 0 .1 0 .4.2.1.1.5.2.5.3v.1c0 .1 0 .1-.1.2.1.1.4.1.5.1.6 0 .9.4 1 .5.1.2.1.2.4.3 0 0 .3.3.3.5.1 0 .9-.3 1.1-.4.3-.3.3-.6.3-1 0-.1 0-.5-.1-.6-.1-.1-.4-.6-.5-.7l-.1-.1.1-.1c.1 0 .3.1.4.1.3 0 .3 0 .6.2.1 0 .4.1.4.1 0 .1.1.3.1.3 0 .2-.2 1.1-.3 1.5l1-.2c.1 0 .9-.2 1-.2.3 0 1 .6 1.1.8v.2c.3.4.3.4-.5.5-.1 0-.5.2-.5.2-.1 0-.1-.1-.1-.1.2-.2.3-.6.3-.6 0-.2-.2-.3-.3-.3-.9 0-1.8.3-1.9.3-.1 0-.2.2-.3.2h-.1l-.2-.1c-.1 0-.8.3-.9.3h-.3v.3c0 .1-.1.3-.1.3v.7l-.1.1c-.2.5-.2.6-.5.6l-.1-.3c0-.3 0-.3.1-.7.1-.3.2-1 .2-1.2 0 0 0-.3-.1-.5h-.1s-.3.1-.4.1c-.3 0-.6-.4-.7-.5-.3-.2-.3-.3-.7-.4h-.1c-.1.1-.7 1.2-.7 1.2.1 0 .7.2.7.2.1 0 .1.1.1.2 0 .3 0 .7-.3.7-.1 0-.1 0-.2-.2 0 0-.3-.4-.3-.5-.1-.1-.1-.1-.1-.2-.1.1-.1.1-.3.5 0 0-.8.9-.8 1-.1.1-1.2.9-1.4 1h-.1c-.1.1-.2.2-.8.4-.1 0-.1.1-.2.1.4-.3 1-.9 1-.9l.9-1.1zm.9 2.5c0-1.2 0-1.3-.2-1.6 0 0-.2-.1-.3-.1v-.1h.2c.1-.1.2-.1.4-.1.4 0 2.1-.8 2.2-.8.3 0 .6.4.6.5l-.1.2c-.2.6-.3.6-.3 1.3l-.1.3-.1.3c-.1.1-.1.1-.5.2-.3.1-.8.4-1.1.4-.1.1-.1.1-.2.1-.1.3-.1.3-.1.5 0 0-.1.8-.1.9v.2l.1.1c.1 0 .7-.4.9-.5l.5-.4c0-.1-.2-.3-.3-.4 0-.1-.3-.3-.3-.4.3 0 .4 0 .9.2.2.2.3.4.3.8 0 .2-.1.2-.1.2-.1 0-.2-.1-.3-.1-.2.1-.7.8-.8 1-.1.1-1.1 1.1-1.2 1.1-.1.1-.2.1-.2.1h-.1c-.1-.4-.1-.4-.3-.5 0 0-.1-.1-.1-.2l.5-.5c.1-.2.2-1.1.2-1.2V6.4zm.8-1.7c-.2 0-.2.1-.2.5 0 .1-.1.3-.1.4 0 .1 0 .1.1.1 0 0 .2-.1.3-.1.3-.2.3-.3.5-.3 0 0 .3 0 .3.1s-.1.2-.3.2c0 0-.3.1-.4.2-.1 0-.1 0-.3.1v.4l-.1.4c0 .1 0 .1.1.1 0 0 1-.5 1.2-.5.2-.1.2-.1.2-.2 0 0 .1-1 .1-1.2v-.5c0-.1 0-.1-.1-.2-.3.1-1.2.4-1.3.5zm3.6-.1c.1 0 .5.1.6.1h.1l.9-.3c.1 0 .5-.2.5-.2.1 0 .3-.1.4-.1.4-.1.4-.1.5 0 .3.2.3.2.4.3v.1c-.1.1-.6.8-.6.9v.1c.2 0 .3.2.3.3s0 .2-.2.3c-.1 0-.6.1-.7.1l-1 .3-.4.2v1h.1l1.2-.3c.3-.1.7-.3 1-.3.1 0 .7.2.9.4-.1.3-.3.7-.3.7 0 .1-.1.3-.1.4.1.1.6.7.6.8-.3.1-.3.1-.4.1-.1 0-.7-.1-.9-.1-.2 0-2.2.2-2.2.5s-.3 1.7-.4 1.7c-.2 0-.3-.9-.3-.9v-.4c0-.3.3-2.3.3-2.7V5.8c0-.2 0-.4-.2-.6-.1-.2-.1-.2-.1-.3 0-.1 0-.1-.1-.1l.1-.2zM97.4 9c.3-.1.4-.1.4-.2.2-.4.2-.8.2-.9v-.3l-.5.1-1.3.3c-.3.1-.3.1-.4.1v1.1s0 .1.1.2l1.5-.4zm-1.1-4.1c-.2.1-.4.1-.4.4v.5c0 .1-.1.3-.1.3v.1c.2 0 1.2-.3 1.3-.4.1-.1.3-.8.3-.9v-.3l-1.1.3z" fill="#fff"/></g><g><g><path d="M36.7 51.3c-.2-1.4-.5-2.9-.3-4.3-.1 0-.2-.1-.3-.1-1-.2.5-4.4-1.4-4.2-.3 1.6.7 3.3 0 4.9-3.3-4.4-1.8 1.7-.6 1.6-.5 0-.6 0-.9-.2-.3 0-.5.1-.7.4.3.6.8 2.2-.2 2.1.1.3 0 .7.2 1-.3.6-.6 1.5-.9 2.1-.7 1.7-1.5 2.5-3.2 3.1h-1.1v.2h-.4v.2H26v.2c0 .5-3.9-2.2-4.1-2.4-.8-.5-1.8-.7-2.2-1.7-.1 0-.2-.1-.4-.1-.2-.5-1.5-1.5-2-1.5-.1-.1-.1-.3-.2-.4-.4-.1-.9-.3-1.3-.4-.1-.1-.1-.3-.2-.4-.2-.1-.4-.1-.7-.2V51c-1-.6-2.1-.7-2.8-1.5l-.2-.2c.8-.7 1.6-1.4 2.4-2.2.1-.1.1-.3.2-.4h.4c.1-.1.1-.3.2-.4h.4c.1-.1.1-.3.2-.4h.4c.7-.4 1.3-.9 2.2-1.1v-.4c.9-.2 1.6-.8 2.4-1.1 1-.3 1.5.2 2.2-.4.7-.4 1.5-1.6 1.7-2.3.2-1-.8-1.3-.8-2v-.4c-.1-.1-.3-.2-.4-.4-1.3-.2-2.6-.5-4.3-.4.2-.6.2-.7.9-.9v-.4h.4c.2-.8 1.5-2.3 2.2-2.6h.9v-.2h.4v-.2h.4c.1-.1.1-.3.2-.4 0-.1 1.3-.5 1.6-.7.4-.4.7-1.1.9-1.6.7-1.8-.6-1.9-1.2-3.1h-.7v-.2c-1.7-.6-5.8 1.4-5.4-1.5.2-1.2.3-2.4.8-3.4.9-1.7 1.2-3.4-.1-5-1.1-1.4-3.2-2.4-4.8-1.1-.5.4-.7 1.1-.9 1.6-.1.3-.7 3.1-1 3.1h-.2c-.1.6-.1 1.2-.2 1.7-.3 1.1-.7 2.5-.7 3.9-.7.4-1.4.9-2.2 1.3-.3.1-1.3-.2-1.3-.2v.2c-.1.1-.3.1-.4.2.2.3.4.6.7.9h.4v.2c.3.3.3.1.4.7h.2v.4c-.2-.2-.4-.1-.6-.1-.2.3-.4.6-.7.9h-.7c-.1-.2-.3-.4-.4-.7-.5-.3-.9-.4-1.3-.9h-.2v-.9h-.2v-.9c.1-.1.3-.1.4-.2v-.4c-.2.1-.4.1-.7.2v-.2c-.9-.2-2 0-2.4.4-1.7 1-2.5 5.1-1.7 7.8v1.3c.1.1.3.1.4.2 0 .4.4 1.3.7 1.5.4.2 1.2.6 1.6.7 1 .4 1.9.7 2.9.2.6-.4 1.1-1.5 1.7-1.7.2-.1.4-.1.7-.2.1-.2.3-.4.4-.7.5-.4 1-.9 1.5-1.3.1-.3.1-.6.2-.9.3-.6.8-1.1 1.1-1.7.4.1.9.1 1.3.2-.2.8-1 1.5-1.5 2.1-.2.2-1.8 1.7-1.8 1.8V39c.5.4 1 .9 1.5 1.3v.2h.7v.2h.2c-.1.3-.1.6-.2.9-.4.1-.6 0-.9.2v.4h-.2v.2c-.7 0-2.3 1.2-2.9 1.7-.6.5-.3 1.4-1.2 1.6C8 48 6.2 49 4.4 49.5c-.9.3-1.5.9-2.3 1.2.2.2.3.3.2.6 0 0-.5-.3-.5-.2v.7c-.5.1-1 .1-1.5.2v.2H.1c0 1.2.1 2 .4 2.8 1.4.3 2.1.9 3.9.9.4-.5 1-.5 1.5-.9.4-.5.9-1 1.3-1.5h.4c.1-.2.3-.4.4-.7h.2v-.4c.7-.1 1.3-.1 2-.2v.2h.4v.2h.7v.2h.4v.2h.4c-.1 0 1.4.9 1.6 1 .8.4 1.5 1.1 2.2 1.6.7.5 1.2 1.2 1.9 1.7.1.1 1.7 1.3 1.7 1.3h.4v.2h.4c.1.1.1.3.2.4.3.1.6.1.9.2.1.1.1.3.2.4h.4c.9.5 3.6 1.8 5.4 1.3v-.2c0 .3 4.5-1.4 4.9-1.5.9-.4 1.8-.7 2.5-1.5.3-.4 1.1-2.2 1.5-2.2V55h.2c.1-.3.1-.6.2-.9h.2s.3-4.1-.2-4.5c.2.7.3 1.4 0 1.7zM13 42.6c.3-.4.3-.5.9-.7v.4c-.5.1-.4.1-.7.4h-.4c.2-.1 0 .1.2-.1zM56.2 19h1.1v.2h.7v.2h.9v.2h2.6v.2h2.6v.2h.4v.2c.2-.1.4-.1.7-.2v-.4h.7c0-2.6-.7-3.1-3.2-3.4-.3 0-3.9-.4-3.9-.3v-.2h-3.5c-.5.2-.9.6-1.3.9-.1 1.8.9 1.9 2.2 2.4zm62.5 7.6c-.8-1.2-2.2-2.1-3.5-2.8-3.2-1.7-7.2-2.9-10.8-3.1-1.1-.1-2.6-.2-3.8.1-1.3.3-2.3.7-3.7.7-.5 0-2.6-.1-2.9.4-.4.8-1.8 1.7-2.5 2.4-1 .9-2.8 2.1-3.2 3.3-.2.1-.4.1-.7.2v1.5c0 .1 1.8 1.4 2 1.5h.7v.2h.4v.2c.4.1.9.1 1.3.2v.2h1.7c.1-.2.3-.4.4-.7.4-.3.7-.6 1.1-.9.1-.2.1-.4.2-.7.3-.2.6-.4.9-.7.1-.2.1-.4.2-.7h.4c.1-.2.3-.4.4-.7.9-.5 2.6-.5 3.5-.7 3.8-.8 7.1-2.9 11-.8 1.1.6 2.4 1.5 2.8 2.7.3.9.1 2.8-1.2 2.5.3.2.3.3.8.5-1.1 1.5-3 2.3-3.5.1-.8.1-3.2-.3-3 1-.8-.7-1.8-1.8-2.5-2.6-.4-.5-.5-1.1-1.1-1.3-.1.2-.3.4-.4.5-.1-.2-.2-.3-.2-.4 0 0-.5 1.2-.5 1.3-.2-.3-.4-.7-.4-1.1-.3.3-.7.6-1 .9-.1-.7.1-1.5.1-2.2-1.3 1-1.2 2.7-1.7 4.1-.6 1.6-1.3 3-1.3 4.8-.1 1.5.3 2.1 1.4 3.1.8.6 1.6 1.1.8 2.3-.9 1.3-2.7.4-4 .5-1.2.1-2.7.4-3.9.8-2.4.7-2.7 2.5-1.2 4.6.7 1 1.9 1.3 2.9 1.9 1 .6 1.8 1.4 2.6 2.1 2 .3 3-.3 4.2-1.6.6-.7 1.7-3.5 2.2-3.5-.1 1.3-1 5 .1 6 .7.6 2.4.1 2.7-.7.1-.3-.2-1-.2-1.4 0-.8.3-1.6.4-2.5.2-1.2.2-2.1-.2-3.2-.9-1.5-2.3-1.3-1.9-3.3.3-1.6.3-2.3-.5-3.6-.6-1-1.4-1.6-1.2-2.9.1-1 .5-3.1 1.2-4 .5.6 0 1 .3 1.5.2.3.6.4.8.7.9.9 1.8 1.3 3 1.5 1.1.2 2.2.9 3.3 1.1 1.4.3 3.4-.4 4.6-1.3.5-.4 1.2-.5 1.6-1 .1 0 .1-.1.1-.1.6-.6.2-1 1-1.5.3-.5.4-.9.9-1.3.8-.1-.7-3.5-1-4.1zM92 45.9h-.4v-.4h.2c.1-.1.1-.3.2-.4h.4c.1-.1.1-.3.2-.4.2-.2.4-.2.7-.4h.2c-.2.9-1 .9-1.5 1.6zm7.2 1.1h-.4c-.1.7-.4 1.2-.9 1.5-.2.2 0 .1-.4.2-.4-.5-1.3-1-2-1.1v-.2c-.4.1-.7.1-1.1.2v.2h-.2c.1.2.1.4.2.7-.2-.1-.4-.1-.7-.2.1-.8.3-.6.4-1.3.9-.3.6-.4 1.1-.9v-.2c.8-.5 2.8-.5 4.1-.4.1.5 0 1-.1 1.5zm4.6-16.5h-.2v-.4h.2v.4zm1.3 2.6h-.2v-.4h.2v.4zm1.7-.7c-.6-.1-.6 0-.9-.4h.7l.2.2v.2zm-50.1-10c.4-.2.4-.4 1.1-.4v-.4c-.4.1-.7.1-1.1.2v.6zm19.5 7c-.9-.2-3.7-.6-4.1-1.1-.7-.4-.1-.2-.4-.9h-.2V27c-.1-.1-.3-.2-.4-.4-1.6-.3-3.6 0-5.2.2-.4-.1-.9-.1-1.3-.2v.2s-3.1.3-3.3.2c-.5-.3-1-1.9-1.3-2.4-.3-.7-.9-1.6-1.6-1.8-.1.2-.1.3-.1.5-.1 0-.2-.1-.3-.1-.3.6.4 1.3.4 2.1 0 .5 0 1.9-.3 2.3-.2.3-1.5.6-1.5.5-.1.5-.2.8-.2 1.5-.6-.2-.5-.1-.7-.7H55c-.7 0-2.4 3.2-2 3.9-.4.6-.6 1.4-1.2 1.8-.4-1.2 0-3.5.7-4.6.8-1.3 3.4-2.2 3.9-3.5.3-.7-.3-1-.5-1.7s-.1-.9-.1-1.6v-.7c-.2.1-1.7 1.1-1.7 1.1v.4c-.7.1-.7.1-1.1.4v.2h-.7c-.8 0-3.4 3.9-3.9 4.6-.2.4-1.5 3.7-1.6 3.7h-.2v.4c-.1.1-.3.1-.4.2-.1.3-.1.6-.2.9h-.2c-.6 1.7 1.3 4.7 2 5.2 1.4 1.5 5.5-.8 6.1-1.7.9.1 1 .5 1.7.7.2.7.5.8.9 1.3h.2v.7h-.4c-.1.8-.3 1.2-.7 1.7-.1.1-.3.1-.4.2v.4H55c-.5 1.1-.3 2.9.4 3.5.1.1-.1.4-.1.5H55c.1.5.5 1.2.9 1.6.2.2.5.1.7.2.3.3.7 1.1 1 1.6.6.7 1.2 1.6 2 2.2.4.3 1 .8 1.6.6.2-.1 1.2-1 .9-1.1.9.1.8.5 1.5.7.4.1-.9-1.7-.9-1.7-.4-.5-.8-1.1-1.2-1.6-.5-.5-1.4-1-2-1.5-1.1-1-2.5-2-2.5-3.5 1.4-.3 2.4-1.3 3.3-2.2.1-.1.3-.1.4-.2v-.4c.2-.1.4-.3.7-.4v-.4c.3-.2.6-.4.9-.7v-1.3h-.7c0-1.9.7-2.6.7-4.6.9.2 1.9.4 2.8.7v.2h1.1v.2c0 .4 4.8.3 5.3.1 1.3-.4 3.6-1.4 4-2.9h.4v-.7c.4-.2.6-.3 1.1-.4v-1.1c-.1-.1-.3-.1-.4-.2-.3 0-.3-.5-.4-.7zm-17.8 6.3h-.9v-.2c-.4-.4-.5-1.3-.4-2.2.5-.4.8-1.2 1.1-1.7.1-.1.3-.1.4-.2l.2.2c-.1 1.3-.3 2.7-.4 4.1zm13.2-5.2c-.1.4 0 .2-.2.4v.2h-1.1v.2c-.6.2-.6 0-1.1.4-2.9 0-4.9 0-5.9-1.7h-.4c-.1.1-.1.3-.2.4h.2v.2c-.2.1-.4.3-.7.4v2.2c-.2-.2-.3-2.4-.3-3.2.9-.1 1.7-.3 2.6-.4v-.2c.6-.2 2.9-.5 3.7-.2v.2h.7v.2H70v.2c.5.1 1 .1 1.5.2v.2h.4c-.2.3 0 .1-.3.3zm2.2 3.2h-.2c.1-.2.3-.4.4-.7h.2c-.1.3-.2.5-.4.7zm1.1-.8h-.2v-.4h.2v.4zm38.2-1.3h.2v-.2h-.4c-.1.1-.1.3-.2.4.4.1.2-.1.4-.2zM33.9 45.9h.7c0-.8-.1-2.2-.4-2.6l-.2-.2-.2.2v.2h.2c-.1.8-.1 1.6-.1 2.4zm1.9-2.2v.2h.2v-.7h-.4c.1.5 0 .3.2.5zm-3 0v-.2h-.4c.2.2-.1.1.4.2zm-.2.9h.4v-.4h-.4v.4zm78.8 7.6c-1.2-.4-2-1.6-3.4-1.5.4.4 1 .6 1.2 1-.3-.1-.7 0-1-.1.1.6.7.8 1.2 1.1-.1.2 0 .6-.1.8.7.2 1.3.5 1.9 1-.5 1.3-2.3 2.1-3.4 2.7-1.7 1-3 1.6-5 1.8v.2h-.9c-.1 0-.4.5-.7.7v.2c-.3-.1-.6-.3-.9-.4v-.2c-.6-.1-1.2-.1-1.7-.2-.7-.3-.6-.7-1.7-.9v.4c.4.1.2 0 .4.2h.2v.7h.4c-.1.2-.1.4-.2.7.8.1 1.1.5 1.7.7h1.7c.1.1.1.3.2.4h.4v.2h.2c0-.7 1.4.1 1.4 0 1.2-.8 3.5-1.3 4.9-1.3v-.2c.7-.2 1.3-.4 2-.7v-.2c.2-.1.4-.1.7-.2.1-.1.1-.3.2-.4h.4c.4-.5.9-1 1.3-1.5.1-.1.3-.1.4-.2v-.4h.2v-.4h.2c.2-2.2-.3-3.3-2.2-4zM66.6 58h-.7v-.2h-.7v-.2c-.5-.1-1-.1-1.5-.2v-.2h-.4V57c-.4-.1-.9-.1-1.3-.2-.1-.1-.1-.3-.2-.4h-.4v-.2c-.8-.3-1.4.1-2-.4h-.2c.1.5.1.4.4.7v.2h.4c.1.1.1.3.2.4.2.1.4.1.7.2v.2c-.4-.1-.9-.3-1.3-.4v.7c.2-.1.4-.1.7-.2l.4.4c.2.4-.2.4-.2.4.1.4.4.5.9.7.1.4 0 .2.2.4v.2h.7c.1.1.1.3.2.4h.7v.2h.7v.2c.5.1 1 .1 1.5.2v.2c1 0 1.3-.1 2-.4v-.2h.4v-.2c.4-.3.5-.5 1.1-.7V59H70v-.2c-1.1-.1-2.2-.3-3.3-.4-.1-.2-.1-.3-.1-.4zm-4.9.7s-.1 0-.4-.4c0 0 .5.2.4.4z" fill-rule="evenodd" clip-rule="evenodd" fill="#fff"/></g></g></g></g></svg>