<svg version="1.1" id="レイヤー_1" xmlns="http://www.w3.org/2000/svg" x="0" y="0" width="90" height="46.2" viewBox="0 0 90 46.2" xml:space="preserve"><g><g><g><path d="M13.1 2.5c.1 0 .3.1.5.1s.8-.1 1.1-.2c.1-.1.3-.8.4-1 .1-.2.2-.5.2-.7 0-.1 0-.1-.1-.2V.4c.6 0 .6.5.6.5 0 .2-.1.3-.1.4-.3.5-.4.6-.5.9.2-.1.3-.1.5-.2h.2c.2 0 .5.2.5.4s-1.1.4-1.5.5c-.3.7-.3.8-.9 1.7-.5.8-.5.9-.7.9-.1 0-.2-.1-.2-.3 0-.3.1-.4.4-.7.2-.2.7-.9 1-1.5h-.4c-.4-.1-.8-.1-1-.5zm4 1.2c-.1.2-.2.3-.2.6v.9c0 .2.1.7.1.8.9.2 1.4.5 1.4.9 0 .1-.1.3-.2.3s-.1 0-.4-.2c-.4-.3-.4-.3-.8-.4 0 .2-.1.5-.2.7-.2.2-.6.4-1 .4s-1.2-.3-1.2-1c0-.9.9-.9 1.3-.9s.5 0 .7.1c-.1-.4-.1-1.2-.1-1.4-.1-.5.1-.9.6-.8zm-1.6 2.5c-.1 0-.6 0-.6.4 0 .3.5.5.8.5.7 0 .7-.5.8-.8-.2 0-.5-.1-1-.1zm2.1-3.6c.4 0 .6 0 .9.2.4.2.6.5.6.8 0 .3-.2.3-.2.3-.1 0-.2-.1-.4-.2-.1-.1-.5-.1-.7-.1h-.1c.4-.1.4-.2.4-.3.1-.2-.1-.5-.5-.7zm8.7.7c.1.1.2.1.5.1.1 0 .7 0 1.3-.3.2-.5.5-1.6.6-2h.1c.2.1.5.3.5.5 0 .1 0 .2-.1.3-.2.3-.5.9-.5 1 .4-.1.5-.1.6-.1.9 0 1 .6 1 .9 0 .6-.3 1.8-.6 2.6s-.6.9-.9.9c-.3 0-.3-.2-.3-.2v-.2c0-.1 0-.2-.3-.9.3.2.5.4.6.4.4 0 .9-1.9.9-2.7 0-.2 0-.5-.5-.5-.2 0-.6.1-.8.2-.3.6-.7 1.4-1 2.1-.2.4-.4.8-.6.8-.2 0-.2-.3-.2-.4 0-.2.1-.3.4-.7.4-.6.5-.7.9-1.6-.1.1-.7.3-.8.3-.6.1-.8-.3-.8-.5zm4.7-.7c.4.1.8.2 1.2.4.8.4 1.1 1 1.1 1.4 0 .3-.2.4-.3.4-.1 0-.2-.1-.3-.2-.1-.1-.3-.3-.7-.4v-.1c.2 0 .4-.1.4-.3-.1-.3-1.1-.9-1.4-1.2zm.4-1.3c.6.1 1.3.3 1.3.7 0 .1 0 .2-.2.2-.1 0-.1 0-.4-.3-.2-.1-.5-.4-.7-.6zm.7-.5c.2 0 .7.1.9.2.2.1.4.3.4.5 0 .1-.1.2-.2.2H33c-.1 0-.4-.3-.5-.4 0-.2-.4-.4-.4-.5zm12.2 6.3c1.2-.6 1.7-1.6 1.7-2.4 0-1.1-.9-1.7-2.2-1.6-.6 1.4-.9 1.8-1 2 .2.2.2.2.6.4.1.1.2.2.2.4 0 .1-.1.4-.2.4-.3 0-.6-.4-.9-.7-.5.6-1.3 1.2-1.6 1.2-.1 0-.1 0-.1-.1s-.1-.3-.2-.3c-.3-.3-.3-.4-.3-.6 0-.2.1-1.2 1.3-2.1-.4-1.1-.5-1.4-.7-1.7v-.1c.7.2.9 1 1 1.5.4-.3 1-.5 1.4-.6.1-.4.3-1 .3-1.2 0-.1 0-.4-.1-.5V1c.4.1.8.4.8.8 0 .2-.2.7-.3.9h.3c1.3 0 2.3.8 2.3 2.2 0 1.2-.9 2.1-2.3 2.2zm-3.5-1.7c0 .4.3.6.4.6.1 0 .4-.1 1-.8-.3-.5-.4-.7-.5-1.2-.6.4-.9 1.1-.9 1.4zm2.5-2.2c-.6.1-1.1.4-1.2.5.1.3.2.8.5 1.1.3-.6.6-1.4.7-1.6zm14.3 3.9c.5-.3 1.9-1.1 1.9-2.9 0-1.6-1.1-1.9-2-1.9-.4 0-.7.1-.9.2.2.1.5.3.5.7 0 .3-.6 1.4-.7 1.7-.2.4-.9 1.6-1.4 1.6-.2 0-.3-.1-.4-.3-.3-.6-.5-.9-.5-1.4 0-1.2 1.5-2.8 3.6-2.8 1.8 0 2.6 1.1 2.6 2.4-.1.6-.3 2.3-2.7 2.7zM55 3.8c-.1.1-.1.1-.4.3-.1.1-.2.2-.2.4 0 .3.5 1 .7 1 .5 0 1.5-2.1 1.5-2.7 0-.1 0-.3-.1-.4-.7.3-1.2 1-1.5 1.4zM67.4 3l.6-.8.4-.7c0-.1.3-.5.3-.8-.1-.1-.1-.1-.1-.2.1-.1.1-.1.2-.1 0 0 .1 0 .3.2.1 0 .3.2.4.2v.3c.1.1.3.1.4.1.5 0 .7.3.8.4l.3.3s.2.2.2.3c.1 0 .7-.2.8-.3.2-.2.2-.4.2-.8V.7c-.1-.1-.3-.5-.4-.5l-.1-.1h.4c.2 0 .2 0 .5.1l.3.1s.1.2.1.3c0 .2-.2.9-.2 1.1l.8-.1c.1 0 .7-.1.7-.1.2 0 .7.5.9.6v.1c0 .2-.1.2-.6.3-.1 0-.3.2-.4.2-.1 0-.1 0-.1-.1 0-.3.1-.6.1-.6 0-.1-.1-.2-.2-.2-.6 0-1.4.2-1.4.2l-.2.2h-.1l-.2-.1c-.1 0-.6.2-.7.2h-.2v1l-.1.1c-.1.3-.1.4-.3.3v-.2c0-.2 0-.3.1-.5s.1-.8.1-.9c0 0 0-.2-.1-.4l-.3.1c-.2 0-.5-.3-.6-.4-.2-.2-.3-.2-.5-.3h-.1c-.1.1-.5.9-.5.9l.5.2s.1.1.1.2c0 .3 0 .5-.2.5-.1 0-.1 0-.1-.2 0 0-.2-.3-.2-.4 0-.1-.1-.1-.1-.2-.1 0-.1.1-.2.3l-.6.7c-.1.1-.9.7-1 .7H67c-.1.1-.2.1-.6.3h-.1c.2-.2.7-.6.7-.6l.4-.5zm.7 1.8c0-.9 0-1-.1-1.2l-.2-.1h.1c.1-.1.1-.1.3-.1.3 0 1.5-.6 1.7-.6.2 0 .5.3.5.4 0 0-.1.1-.1.2-.3.4-.3.4-.4.9l-.1.2s-.1.2-.1.3c0 .1-.1.1-.4.2-.2.1-.6.3-.8.3-.1 0-.1.1-.2.1-.1.2-.1.3-.1.4l-.1.6v.2l.1.1c.1 0 .6-.3.7-.4l.4-.3-.2-.3c0-.1-.2-.2-.2-.3.2 0 .3 0 .7.1.2.2.2.3.2.6l-.1.1c-.1 0-.2-.1-.2-.1-.1.1-.5.6-.6.7 0 0-.8.8-.9.8-.1 0-.1.1-.2.1h-.1c-.1-.3-.1-.3-.2-.4 0 0-.1-.1-.1-.2.1-.1.3-.3.3-.4.2-.2.3-.8.3-.9l.1-1zm.5-1.3c-.2 0-.2.1-.2.4 0 0-.1.2-.1.3 0 0 0 .1.1.1s.2 0 .2-.1c.3-.2.3-.2.4-.2 0 0 .2 0 .2.1s-.1.1-.3.2l-.3.1c-.1 0-.1 0-.2.1v.6s0 .1.1.1c0 0 .8-.4.9-.4.1-.1.1-.1.1-.2 0 0 .1-.8.1-.9v-.4c-.2-.1-.9.2-1 .2zm2.7 0h.5l.7-.3c.1 0 .4-.1.4-.2l.3-.1c.3 0 .3 0 .4.1.2.2.3.2.3.3v.1c0 .1-.5.6-.5.7v.1c.1 0 .3.1.3.2s-.1.1-.2.1-.5.1-.5.1l-.8.2-.3.1v.8h.1l.9-.2c.2-.1.5-.2.7-.2.1 0 .5.2.7.3-.1.2-.2.5-.2.5l-.1.3c0 .2.4.6.4.7-.1.1-.1.1-.2.1s-.6-.1-.7-.1c-.2 0-1.6.2-1.6.4s-.2 1.2-.3 1.2c-.2 0-.2-.7-.2-.7v-.3c0-.2.3-1.7.3-2V4.3c0-.2 0-.3-.1-.5-.1-.1-.1-.1-.1-.2-.2 0-.2 0-.2-.1zm1.8 3.3c.3-.1.3-.1.3-.2.1-.3.1-.6.1-.7v-.2l-.4.1-.9.2c-.2.1-.2.1-.3.1v.7s0 .1.1.2l1.1-.2zm-.8-3.2c-.1 0-.3.1-.3.3v.8c.1 0 .9-.2 1-.3.1-.1.2-.6.2-.7v-.2l-.9.1z" fill="#210100"/></g><g><g><path d="M27.6 38.5c-.2-1.1-.3-2.2-.2-3.2-.1 0-.2 0-.3-.1-.8-.1.4-3.3-1-3.1-.2 1.2.5 2.5 0 3.7-2.5-3.3-1.4 1.3-.5 1.2-.4 0-.5 0-.7-.2-.2 0-.4.1-.5.3.2.5.6 1.6-.2 1.6.1.2 0 .5.1.8-.2.5-.5 1.1-.7 1.6-.6 1.3-1.1 1.9-2.4 2.3h-.8v.2h-.3v.2h-.7v.2c0 .3-2.9-1.6-3.1-1.8-.6-.4-1.3-.6-1.6-1.3-.1 0-.2 0-.3-.1-.2-.4-1.1-1.1-1.5-1.1-.1-.1-.1-.2-.2-.3-.3-.1-.7-.2-1-.3-.1-.1-.1-.2-.2-.3-.2-.1-.3-.1-.5-.2v-.2c-.7-.5-1.6-.5-2.1-1.1-.2-.1 0 0-.2-.2.6-.5 1.2-1.1 1.8-1.6.1-.1.1-.2.2-.3h.3c.1-.1.1-.2.2-.3h.3c.1-.1.1-.2.2-.3h.3c.5-.3 1-.7 1.6-.8v-.3c.7-.2 1.2-.6 1.8-.8.7-.2 1.1.2 1.6-.3.5-.3 1.1-1.2 1.3-1.8.2-.8-.6-1-.6-1.5v-.3c-.1-.1-.2-.1-.3-.3-.9-.2-2-.3-3.3-.3.1-.5.2-.5.7-.7v-.3h.3c.2-.6 1.1-1.7 1.6-2h.7V25h.3v-.2h.3c.1-.1.1-.2.2-.3 0-.1 1-.4 1.2-.5.3-.3.5-.8.7-1.2.5-1.4-.4-1.4-.9-2.3h-.5v-.2c-1.2-.4-4.4 1-4.1-1.1.1-.9.2-1.8.6-2.6.7-1.3.9-2.5 0-3.7-.8-1.1-2.4-1.8-3.6-.8-.4.3-.5.8-.7 1.2-.1.2-.5 2.3-.7 2.3H10c-.1.4-.1.9-.2 1.3-.3.8-.5 1.9-.5 2.9-.5.3-1.1.7-1.6 1-.2.1-1-.2-1-.2v.2c-.1.1-.2.1-.3.2.3 0 .4.2.6.4h.3v.2c.2.2.2.1.3.5h.2v.3c-.2.1-.3.1-.5.2-.1.2-.3.4-.5.6h-.5c-.1-.2-.2-.3-.3-.5-.4-.3-.7-.3-1-.7h-.2v-.7h-.2v-.7c.1-.1.2-.1.3-.2v-.3c-.2.1-.3.1-.5.2v-.2c-.7-.1-1.5 0-1.8.3-1.3.7-1.9 3.8-1.3 5.9v1c.1.1.2.1.3.2 0 .3.3 1 .5 1.1.3.2.9.4 1.2.5.8.3 1.4.5 2.2.1.5-.3.8-1.1 1.3-1.3.4.1.5.1.7 0 .1-.2.2-.3.3-.5.4-.3.8-.7 1.1-1 .1-.2.2-.4.2-.6.2-.4.6-.8.8-1.3.3.1.7.1 1 .2-.2.6-.8 1.1-1.1 1.6l-1.3 1.3v1.8c.4.3.8.7 1.1 1v.2h.5v.2h.2c-.1.2-.1.4-.2.7-.3 0-.5 0-.7.2v.3h-.2v.2c-.5 0-1.7.9-2.2 1.3-.4.3-.3 1-.9 1.2-.1 1.3-1.5 2-2.8 2.4-.7.2-1.1.6-1.8.9.1.2.3.3.1.5l-.3-.2v.5c-.4.1-.8.1-1.1.2v.2H0c0 .9.1 1.5.3 2.1 1.1.2 1.5.7 2.9.7.3-.3.8-.4 1.1-.7.3-.4.7-.8 1-1.1h.3c.2-.2.3-.4.4-.6h.2v-.3c.5-.1 1-.1 1.5-.2v.2H8v.2h.5v.2h.3v.2h.3s1.1.7 1.2.8c.6.3 1.1.8 1.7 1.2.5.4.9.9 1.5 1.3.1.1 1.3 1 1.2 1h.3v.2h.3c.1.1.1.2.2.3.2.1.4.1.7.2.1.1.1.2.2.3h.3c.7.4 2.7 1.4 4.1 1V46c0 .2 3.4-1 3.7-1.1.7-.3 1.3-.5 1.9-1.1.3-.3.8-1.6 1.1-1.6v-.5h.2c.1-.2.1-.4.2-.7h.2s.2-3.1-.1-3.4c-.3.2-.3.6-.4.9zM9.8 32c.2-.3.2-.4.7-.5v.3c-.4.1-.3 0-.5.3h-.3c0-.1-.1 0 .1-.1zm32.4-17.8h.8v.2h.5v.2h.7v.2h2v.2h2v.2h.3v.2c.2-.1.3-.1.5-.2v-.3h.5c0-1.9-.5-2.3-2.4-2.6-.2 0-2.9-.3-2.9-.2v-.2h-2.6c-.4.1-.7.5-1 .7-.2 1.2.6 1.3 1.6 1.6zM89 20c-.6-.9-1.6-1.5-2.6-2.1-2.4-1.3-5.4-2.2-8.1-2.3-.8 0-2-.1-2.8.1-1 .2-1.7.5-2.8.6-.3 0-2-.1-2.1.3-.3.6-1.4 1.3-1.9 1.8-.7.7-2.1 1.5-2.4 2.4-.2.1-.3.1-.5.2v1.1c0 .1 1.4 1.1 1.5 1.1h.5v.2h.3v.2c.3.1.7.1 1 .2v.2h1.3c.1-.2.2-.3.3-.5.3-.2.5-.4.8-.7.1-.2.1-.3.2-.5.2-.2.4-.3.7-.5.1-.2.1-.3.2-.5h.3c.1-.2.2-.3.3-.5.6-.4 2-.4 2.7-.5 2.9-.6 5.3-2.2 8.3-.6.8.4 1.8 1.1 2.1 2 .2.7.1 2.1-.9 1.9.2.1.3.3.6.3-.8 1.1-2.2 1.7-2.6 0-.6.1-2.4-.2-2.3.8-.6-.5-1.3-1.3-1.9-2-.3-.4-.4-.9-.9-.9-.1.2-.2.3-.3.4-.1-.2-.1-.2-.2-.3l-.4.9c-.3-.2-.4-.5-.4-.8-.2.2-.5.4-.7.6-.1-.5.1-1.1.1-1.6-1 .8-.9 2-1.3 3.1-.4 1.2-1 2.3-1 3.6 0 1.2.2 1.6 1.1 2.3.6.5 1.2.8.6 1.7-.7.9-2 .3-3 .4-.9.1-2 .3-2.9.6-1.8.6-2 1.9-.9 3.4.5.8 1.4 1 2.2 1.4.7.4 1.3 1 1.9 1.6 1.5.2 2.3-.2 3.2-1.2.5-.5 1.2-2.6 1.7-2.7 0 .9-.7 3.8.1 4.5.5.5 1.8 0 2.1-.6.1-.2-.1-.8-.1-1 0-.6.2-1.2.3-1.8.1-.9.1-1.6-.2-2.4-.7-1.1-1.7-1-1.4-2.4.2-1.2.2-1.7-.4-2.7-.4-.7-1.1-1.2-.9-2.2.1-.8.4-2.3.9-3 .4.4 0 .7.2 1.1.1.2.4.3.6.5.7.7 1.4 1 2.2 1.2.9.2 1.6.7 2.5.8 1.1.2 2.6-.3 3.4-1 .4-.3.9-.4 1.2-.7l.1-.1c.4-.5.2-.8.8-1.2.3-.4.3-.7.7-1 .3-.2-.8-2.8-1.1-3.2zM69 34.4h-.3v-.3h.2c.1-.1.1-.2.2-.3h.3c.1-.1.1-.2.2-.3.2-.2.3-.1.5-.3h.2c-.3.7-.9.7-1.3 1.2zm5.4.8h-.3c-.1.5-.3.9-.7 1.1-.2.2 0 .1-.3.2-.3-.3-.9-.7-1.5-.8v-.2c-.3.1-.5.1-.8.2v.2h-.2c.1.2.1.3.2.5-.2-.1-.3-.1-.5-.2.1-.6.2-.5.3-1 .6-.2.4-.3.8-.7v-.2c.6-.4 2.1-.3 3.1-.3 0 .5 0 .9-.1 1.2zm3.4-12.3h-.2v-.3h.2v.3zm1 1.9h-.2v-.3h.2v.3zm1.3-.5c-.5-.1-.4 0-.7-.3h.5c.1.2 0 0 .2.2v.1zm-37.6-7.5c.3-.2.3-.3.8-.3v-.3c-.3.1-.5.1-.8.2v.4zM57.1 22c-.6-.1-2.7-.5-3.1-.8-.5-.3-.1-.2-.3-.7h-.2v-.3c-.1-.1-.2-.1-.3-.3-1.2-.2-2.7 0-3.9.2-.3-.1-.7-.1-1-.2v.2s-2.3.2-2.5.1c-.4-.2-.8-1.4-1-1.8-.2-.5-.7-1.2-1.2-1.3-.1.1-.1.2-.1.4-.1 0-.2 0-.3-.1-.2.5.3 1 .3 1.6 0 .4 0 1.4-.2 1.7-.1.2-1.2.4-1.1.4-.1.4-.2.6-.2 1.1-.4-.1-.4 0-.5-.5H41c-.6 0-1.8 2.4-1.5 2.9-.3.4-.5 1.1-.9 1.3-.3-.9 0-2.6.5-3.5.6-1 2.5-1.6 2.9-2.6.2-.5-.2-.8-.4-1.2-.2-.5-.1-.7-.1-1.2v-.5c-.1.1-1.3.8-1.3.8v.3c-.5.1-.5.1-.8.3v.2h-.5c-.6 0-2.6 2.9-2.9 3.4-.2.3-1.1 2.8-1.2 2.8h-.2v.3c-.1.1-.2.1-.3.2-.1.2-.1.4-.2.7h-.2c-.5 1.3 1 3.5 1.5 3.9 1.1 1.1 4.2-.6 4.6-1.3.7.1.7.3 1.3.5.1.5.4.6.7 1h.2v.5h-.3c-.1.6-.2.9-.5 1.3-.1.1-.2.1-.3.2v.3h-.2c-.4.8-.2 2.2.3 2.6 0 0 0 .3-.1.4h-.2c.1.4.4.9.7 1.2.1.1.4.1.5.2.2.2.5.9.8 1.2.5.6.9 1.2 1.5 1.6.3.2.8.6 1.2.5.2 0 .9-.8.7-.8.7.1.6.3 1.1.5.3.1-.6-1.3-.6-1.3l-.9-1.2c-.4-.4-1.1-.8-1.5-1.1-.8-.8-1.9-1.5-1.9-2.6 1.1-.2 1.8-1 2.4-1.6.1-.1.2-.1.3-.2v-.3c.2-.1.3-.2.5-.3v-.3c.2-.2.4-.3.7-.5v-1h-.5c0-1.4.5-2 .5-3.4.7.2 1.4.3 2.1.5v.2h.8v.2c0 .3 3.6.2 4 .1 1-.3 2.7-1.1 3-2.2h.3v-.5c.3-.1.4-.3.8-.3v-.8c-.1-.1-.2-.1-.3-.2.1-.3.1-.7 0-.9zm-13.3 4.8h-.7v-.2c-.3-.3-.3-.9-.3-1.6.3-.3.6-.9.8-1.3.1-.1.2-.1.3-.2.1.2 0 0 .2.2-.1 1-.2 2-.3 3.1zm9.9-3.9c-.1.3 0 .1-.2.3v.2h-.8v.2c-.5.2-.5 0-.8.3-2.1 0-3.6 0-4.4-1.3h-.3c-.1.1-.1.2-.2.3h.2v.2c-.2.1-.3.2-.5.3V25c-.2-.2-.3-1.9-.3-2.4.7-.1 1.3-.2 2-.3v-.2c.4-.1 2.2-.3 2.8-.2v.2h.5v.2h.8v.2c.4.1.8.1 1.1.2v.2h.3c-.1 0 0-.2-.2 0zm1.7 2.4h-.2c.1-.2.2-.3.3-.5h.2c-.1.2-.2.3-.3.5zm.8-.6H56v-.3h.2v.3zm28.6-1h.2v-.2h-.3c-.1.1-.1.2-.2.3.3.1.2 0 .3-.1zM25.4 34.4h.5c0-.6-.1-1.7-.3-2-.1-.2 0 0-.2-.2l-.2.2v.2h.2v1.8zm1.5-1.6v.2h.2v-.5h-.3c0 .3-.1.1.1.3zm-2.3 0v-.2h-.3c.1.2 0 .1.3.2zm-.2.6h.3v-.3h-.3v.3zm59.1 5.7c-.9-.3-1.5-1.2-2.5-1.1.3.3.7.5.9.8-.2-.1-.5 0-.8-.1 0 .4.5.6.9.8-.1.2 0 .4-.1.6.5.2 1 .4 1.4.7-.4 1-1.7 1.5-2.6 2-1.3.7-2.3 1.2-3.8 1.4v.2h-.7s-.3.4-.5.5v.2c-.2-.1-.4-.2-.7-.3v-.2c-.4-.1-.9-.1-1.3-.2-.5-.2-.4-.6-1.3-.7v.3c.3.1.1 0 .3.2h.2v.5h.3c-.1.2-.1.3-.2.5.6.1.9.3 1.3.5h1.3c.1.1.1.2.2.3h.3v.2h.2c0-.5 1 0 1.1 0 .9-.6 2.6-1 3.7-1V45c.5-.2 1-.3 1.5-.5v-.2c.2-.1.3-.1.5-.2.1-.1.1-.2.2-.3h.3c.3-.4.7-.8 1-1.1.1-.1.2-.1.3-.2v-.3h.2v-.3h.2c0-1.4-.4-2.3-1.8-2.8zM50 43.5h-.5v-.2H49v-.2c-.4-.1-.8-.1-1.1-.2v-.2h-.3v-.2c-.3-.1-.7-.1-1-.2-.1-.1-.1-.2-.2-.3h-.3v-.2c-.6-.2-1 .1-1.5-.3h-.2c.1.4.1.3.3.5v.2h.3c.1.1.1.2.2.3.2.1.3.1.5.2v.2c-.3-.1-.7-.2-1-.3v.5c.2-.1.3-.1.5-.2l.3.3c.1.3-.1.3-.2.3.1.3.3.4.7.5.1.3 0 .1.2.3v.2h.5c.1.1.1.2.2.3h.5v.2h.5v.2c.4.1.8.1 1.1.2v.2c.8 0 1-.1 1.5-.3v-.2h.3v-.2c.3-.2.4-.4.8-.5v-.3h.8v-.2l-2.4-.3v-.1zm-3.8.5l-.3-.3c.1 0 .5.2.3.3z" fill-rule="evenodd" clip-rule="evenodd" fill="#210100"/></g></g></g></g></svg>