<svg version="1.1" id="レイヤー_1" xmlns="http://www.w3.org/2000/svg" x="0" y="0" viewBox="0 0 429.9 103" xml:space="preserve"><style type="text/css">.st0{fill:#fff}</style><g><g><path class="st0" d="M32.1 30.9l-3.2-2.5a4.11 4.11 0 00-5.4.2c-.6.6-1.2 1.1-1.5 1.5l-.1.1c-.1.1-.3.1-.4.1-1.7-.3-6.3-4.4-7.3-5.4-1.1-1.1-6.3-6.9-5.2-7.8.4-.3.9-.8 1.5-1.5 1.4-1.5 1.5-3.8.2-5.4L8.3 7.1c-.2-.3-.4-.5-.7-.7-.1-.1-.3-.2-.4-.3h-.1c-.3-.2-.7-.4-1.2-.5-.1 0-.3-.1-.5-.1-.5-.1-1 0-1.5.1-1.3.3-2.3 1.3-2.8 2.5-.6 1.6-1.3 3.8-1 5.7 0 .1 0 .2.1.3.5 3.2 5.3 10 8.8 13.9 0 .1.1.1.1.2.1.1.2.2.2.3l1.3 1.3c3.9 3.6 11.1 8.7 14.3 9.3.1 0 .2 0 .3.1 1.9.2 4.2-.4 5.7-1 1.2-.5 2.2-1.6 2.5-2.9.6-1.7 0-3.4-1.3-4.4z"/></g><g><g><path class="st0" d="M60.1 0c4 0 7.3 1.5 9.9 4.6 3.3 3.8 4.9 9.6 4.9 17.3 0 7.2-1.4 12.7-4.3 16.4-2.9 3.8-6.3 5.6-10.3 5.6-3.9 0-7.1-1.6-9.7-4.7-3.3-4-4.9-9.7-4.9-17.2 0-7.1 1.5-12.8 4.6-17 2.5-3.3 5.7-5 9.8-5zm.2 2.2c-2.7 0-4.8 1.3-6.3 3.9-1.5 2.6-2.3 7.9-2.3 16 0 7.9.8 13.2 2.3 15.9 1.6 2.6 3.7 4 6.3 4 2.6 0 4.7-1.2 6.1-3.7 1.7-3 2.6-8.3 2.6-16 0-8-.8-13.3-2.4-16-1.6-2.7-3.7-4.1-6.3-4.1zm27 34.3c-.9 1.2 3.7 1.8 13.8 1.8 1.5 0 2.6-.4 3.3-1.2.6-.8 1.4-3 2.2-6.6h2.1l-1 12.7H80.4v-1.6l8.9-10.1c4.9-5.4 7.9-8.8 8.9-10.1 1.4-2 2.5-3.9 3.1-5.7.7-1.8 1-3.5 1-5 0-2.5-.7-4.5-2.1-5.9s-3.3-2.2-5.8-2.2c-2.8 0-5 .7-6.8 2-1.7 1.2-2.6 2.6-2.6 4 0 .5.1.9.4 1.2.2.3.8.5 1.6.7 2.1.5 3.1 1.7 3.1 3.6 0 1-.3 1.9-1 2.6-.7.7-1.6 1-2.7 1-1.2 0-2.3-.6-3.3-1.7-.9-1.2-1.4-2.7-1.4-4.5 0-2.1.5-4 1.6-5.7 1.1-1.7 2.7-3.1 4.8-4.2C90.3.5 92.6 0 95.1 0s4.8.5 6.9 1.6c2.1 1.1 3.7 2.4 4.8 4.2 1.1 1.7 1.6 3.6 1.6 5.6 0 1.4-.3 2.8-.8 4.3-.5 1.4-1.3 2.8-2.3 4.1-1.8 2.2-3.6 4-5.4 5.6l-8.1 6.8c-2.1 1.6-3.6 3.1-4.5 4.3zM136.1.8h2v28.9h7v2.6h-7v6.5c0 .6.2 1 .7 1.4.7.5 1.4.7 2.3.7h2.6v2.3h-17v-2.3h3.1c1.1 0 1.8-.2 2.3-.7.5-.4.7-1.1.7-2v-6h-17.3v-2.9L136.1.8zM132.8 9L118 29.7h14.8V9zM169 20.6c2.9.7 5.2 1.9 6.8 3.5 2.1 2.1 3.1 4.7 3.1 7.8 0 3.5-1.2 6.3-3.7 8.4-2.8 2.4-6.5 3.7-11.1 3.7-2.7 0-5.1-.4-7-1.3-2-.9-3.4-2.1-4.4-3.6-1-1.5-1.5-3.2-1.5-5.2 0-1.5.4-2.8 1.1-3.7.8-.9 1.7-1.3 2.8-1.3 1 0 1.9.3 2.5 1 .6.7.9 1.6.9 2.8 0 .8-.2 1.4-.5 1.9s-.9 1-1.7 1.5c-.9.5-1.3.9-1.3 1.3 0 .6.3 1.3.9 2.1s1.5 1.4 2.8 1.8c1.2.5 2.7.7 4.6.7 3.2 0 5.6-.8 7.1-2.4 1.5-1.6 2.3-4.1 2.3-7.6 0-3.6-.7-6.2-2-7.8-1.3-1.5-3.3-2.3-5.9-2.3-.7 0-1.6.1-2.6.2-.8.1-1.4.2-1.8.2-.6 0-1.1-.1-1.4-.4-.3-.3-.5-.6-.5-1s.2-.8.5-1c.3-.2.8-.4 1.5-.4l1.7.1 1.5.1c2.6 0 4.5-.7 5.8-2 1.3-1.3 2-3.4 2-6.1 0-3.4-.6-5.8-1.9-7.2-1.2-1.4-3.1-2.2-5.6-2.2-2.3 0-4.1.4-5.4 1.2-1.3.8-2 1.6-2 2.3 0 .4.4 1 1.2 1.8 1.1 1 1.7 2.1 1.7 3.2 0 .8-.3 1.5-.9 2.1-.6.6-1.4.9-2.4.9s-1.8-.4-2.5-1.2c-.6-.8-1-1.9-1-3.2 0-2.2.8-4.1 2.3-5.7 2.2-2.4 5.3-3.5 9.4-3.5 3.8 0 6.9 1 9.2 3.1 2.3 2.1 3.4 4.6 3.4 7.6 0 2.2-.6 4.1-1.8 5.7-1 1.5-3.2 2.9-6.2 4.1zm17 .6h12.4v4.6H186v-4.6zm26.5 15.3c-.9 1.2 3.7 1.8 13.8 1.8 1.5 0 2.6-.4 3.3-1.2.6-.8 1.4-3 2.2-6.6h2.1l-1 12.7h-27.4v-1.6l8.9-10.1c4.9-5.4 7.9-8.8 8.9-10.1 1.4-2 2.5-3.9 3.1-5.7.7-1.8 1-3.5 1-5 0-2.5-.7-4.5-2.1-5.9s-3.3-2.2-5.8-2.2c-2.8 0-5 .7-6.8 2-1.8 1.3-2.6 2.7-2.6 4.2 0 .5.1.9.4 1.2.2.3.8.5 1.6.7 2.1.5 3.1 1.7 3.1 3.6 0 1-.3 1.9-1 2.6-.7.7-1.6 1-2.7 1-1.2 0-2.3-.6-3.3-1.7-.9-1.2-1.4-2.7-1.4-4.5 0-2.1.5-4 1.6-5.7 1.1-1.7 2.7-3.1 4.8-4.2 2.2-1.1 4.5-1.6 7-1.6s4.8.5 6.9 1.6c2.1 1.1 3.7 2.4 4.8 4.2 1.1 1.7 1.6 3.6 1.6 5.6 0 1.4-.3 2.8-.8 4.3-.5 1.4-1.3 2.8-2.3 4.1-1.8 2.2-3.6 4-5.4 5.6l-8.1 6.8c-1.9 1.4-3.4 2.9-4.4 4.1zM261.3.8h2v28.9h7v2.6h-7v6.5c0 .6.2 1 .7 1.4.7.5 1.4.7 2.3.7h2.6v2.3h-17v-2.3h3.1c1.1 0 1.8-.2 2.3-.7.5-.4.7-1.1.7-2v-6h-17.3v-2.9L261.3.8zM258.1 9l-14.8 20.7h14.8V9zm18.4 12.2h12.4v4.6h-12.4v-4.6zM303 36.5c-.9 1.2 3.7 1.8 13.8 1.8 1.5 0 2.6-.4 3.3-1.2.6-.8 1.4-3 2.2-6.6h2.1l-1 12.7H296v-1.6l8.9-10.1c4.9-5.4 7.9-8.8 8.9-10.1 1.4-2 2.5-3.9 3.1-5.7.7-1.8 1-3.5 1-5 0-2.5-.7-4.5-2.1-5.9s-3.3-2.2-5.8-2.2c-2.8 0-5 .7-6.8 2-1.8 1.3-2.6 2.7-2.6 4.2 0 .5.1.9.4 1.2.2.3.8.5 1.6.7 2.1.5 3.1 1.7 3.1 3.6 0 1-.3 1.9-1 2.6-.7.7-1.6 1-2.7 1-1.2 0-2.3-.6-3.3-1.7-.9-1.2-1.4-2.7-1.4-4.5 0-2.1.5-4 1.6-5.7 1.1-1.7 2.7-3.1 4.8-4.2 2.2-1.1 4.5-1.6 7-1.6s4.8.5 6.9 1.6c2.1 1.1 3.7 2.4 4.8 4.2 1.1 1.7 1.6 3.6 1.6 5.6 0 1.4-.3 2.8-.8 4.3-.5 1.4-1.3 2.8-2.3 4.1-1.8 2.2-3.6 4-5.4 5.6l-8.1 6.8c-2 1.4-3.5 2.9-4.4 4.1zM349.2.8v38.1c0 .6.2 1 .6 1.3.6.4 1.3.6 2.2.6h5.9v2.3h-22v-2.3h5.1c1.1 0 1.8-.2 2.4-.7.5-.5.8-1.2.8-2V9.3c0-.6-.2-1.1-.7-1.5-.5-.4-1.1-.6-1.8-.6h-6.8V5.1c3.2-.4 5.8-1 7.7-1.6 2-.7 3.7-1.6 5.2-2.7h1.4zm31-.8c4 0 7.3 1.5 9.9 4.6 3.3 3.8 4.9 9.6 4.9 17.3 0 7.2-1.4 12.7-4.3 16.4-2.9 3.8-6.3 5.6-10.3 5.6-3.9 0-7.1-1.6-9.7-4.7-3.3-4-4.9-9.7-4.9-17.2 0-7.1 1.5-12.8 4.6-17 2.5-3.3 5.7-5 9.8-5zm.2 2.2c-2.7 0-4.8 1.3-6.3 3.9-1.5 2.6-2.3 7.9-2.3 16 0 7.9.8 13.2 2.3 15.9 1.6 2.6 3.7 4 6.3 4 2.6 0 4.7-1.2 6.1-3.7 1.7-2.9 2.5-8.2 2.5-15.9 0-8-.8-13.3-2.4-16-1.5-2.8-3.6-4.2-6.2-4.2zM418.8.8v38.1c0 .6.2 1 .6 1.3.6.4 1.3.6 2.2.6h5.9v2.3h-22v-2.3h5.1c1.1 0 1.8-.2 2.4-.7.5-.5.8-1.2.8-2V9.3c0-.6-.2-1.1-.7-1.5-.5-.4-1.1-.6-1.8-.6h-6.8V5.1c3.2-.4 5.8-1 7.7-1.6 2-.7 3.7-1.6 5.2-2.7h1.4z"/></g></g></g><g><g><path class="st0" d="M.8 67.3h10.7c-2 2.2-3.2 3.7-4.2 5.6C5.2 76.5 4 81 4 85.2c0 4.2 1.2 8.7 3.2 12.3 1.1 1.9 2.2 3.4 4.2 5.6H.8V67.3zM38 78.7c1.6-2.6 2.6-4.5 3.4-7.1 3.9 1.2 3.9 1.2 3.9 1.6s-.4.5-1.7.6c-1.5 2-2.9 3.5-4.6 4.8h5.8l1.8-2c1.3 1.1 1.7 1.4 3.1 2.5.2.2.4.4.4.6 0 0-.1.2-.2.2-.2.2-.2.2-2.3.4l-.9.9c-1.6 1.8-1.9 2-3 2.9l-.3-.1c.7-1.5.9-2 1.7-4.5h-25c-.2 2-.6 3.4-1.4 4.5-.6.9-1.2 1.5-1.6 1.5-.3 0-.5-.3-.8-.8-.3-.6-.5-1.2-.5-1.6 0-.5.1-.6.6-1 .7-.5 1.7-1.8 2.3-2.8.5-.9.6-1.7.7-3.4h.6c.1.8.1 1.2.1 1.7v1h5.2c-.3-.3-.3-.4-.4-.8-.3-.9-.7-2.1-1.2-3.2-.3-.7-.3-.8-.8-1.2-1.5.1-2.4.1-5 .2l.1-.7c7.5-.8 12.6-1.6 17.6-2.8 3.8-.9 6.1-1.7 8.1-2.7 3.3 2.2 3.3 2.2 3.3 2.5 0 .2-.3.4-.5.4H46c-.3 0-.7-.1-1.2-.2-4.3 1.3-7.9 2-13.6 2.6.6.4 2.3 1.8 2.9 2.5.6.6.9 1 .9 1.4 0 .3-.2.9-.4 1.5-.1.2-.2.4-.5.6H38zm11.7 19.7c-1.7.5-2.5 1.1-3.1 2.8-2.8-.7-4.4-1.2-7.2-2.5-2.5-1.2-4.4-2.3-6.4-3.7-4.6 3.3-10.1 5.5-16.9 6.8l-.2-.5c6.3-2.1 10.6-4.2 15.3-7.8-2.9-2.6-4.6-5-5.9-8.4H24c-.9 0-1.7 0-3.1.2l-.2-1.3c1.7.2 2.1.3 3.4.3h15c.6-.7.8-.9 1.4-1.7 1.3 1 1.7 1.3 3.1 2.4.1.1.2.3.3.5 0 0-.2.2-.2.3-.2.2-.4.2-2.2.6-2.5 3.4-4.2 5.3-6.9 7.4 4 2.2 9 3.5 15.1 4.2v.4zM33.1 78.7c-.3-.3-.3-.3-.5-.9-.5-1.7-1.6-3.9-2.3-4.9-2.6.2-4.2.4-6.4.5.6.5 2 1.7 2.4 2 .5.5.8.9.8 1.3 0 .6-.3 1.4-.8 2h6.8zm-6.7 6.5c.6 1.5 1 2.2 2.2 3.7 1.2 1.4 2.5 2.6 4 3.7 2.6-2.3 4.2-4.1 6.3-7.4H26.4zm27.4 2.5c2.5-3.5 4.3-6.9 6.3-11.6 1.4-3.4 2.1-5.4 2.6-8.2 1.5.4 3.5.9 4.1 1.2.2.1.3.2.3.4 0 .4-.4.6-1.8.8-1.4 3.7-2.6 6.1-5.1 10 2.7.4 3.2.5 3.2.9 0 .3-.2.4-1.2.8v10.2c0 5 0 5 .1 9.3 0 .5-.4.7-1.4.8h-.7c-.4 0-.6-.2-.6-.5v-.1c.1-4.3.2-6.6.2-9.3V81.2c-2.4 3.7-3.3 4.8-5.3 6.8l-.7-.3zm12.6-8.3c-.7 0-1.4 0-3 .2l-.3-1.3c1.7.2 2.5.3 3.3.3h12.4v-6.3c0-1.9 0-2.5-.2-4 3.4.4 4.4.6 4.4 1.1 0 .3-.5.6-1.6 1v8.3h1.1c.9-1.3 1.2-1.7 2.1-2.8 1.5 1.2 2 1.6 3.4 3 .1.1.2.3.2.3 0 .2-.2.3-.5.3h-6.3v10.9c0 2.5 0 6.1.1 8.3-.1 1.1-.3 1.6-1 2.1-.6.5-1.4.7-4 1.2-.4-1.8-.7-2-6.7-3.1v-.5c1.1.1 2.1.1 2.7.2 3.2.2 3.4.2 5.4.2.6 0 .9-.2.9-.8V79.4H66.4zm.4 3.6c2 1.2 3.6 2.4 5.4 4.1 1.4 1.3 1.7 1.8 1.7 2.7 0 1-.9 2.6-1.5 2.6-.4 0-.7-.3-.9-1-1.3-3.3-2.8-5.7-5-8l.3-.4zm28 14c0 .5-.2.6-1.2.6h-.7c-.3 0-.5-.2-.5-.5.1-4.8.2-9.5.2-17.5 0-4.3 0-6.1-.2-9.7 1.2.7 1.5.9 2.7 1.8h4.7c.6-.7.8-.9 1.4-1.7.9.7 1.1.9 2 1.7.3.2.5.4.5.5 0 .3-.5.6-1.3 1v7.2c0 3.6 0 8.6.1 15.1 0 .3-.1.4-.3.5-.2.1-1.2.2-1.6.2-.3 0-.5-.1-.5-.5v-2.1H95V97zm5.1-24.5h-5.1v9.3h5.1v-9.3zm-5.1 10.2v10.1h5.1V82.7h-5.1zm24.9 3.7h.9c.9-1.1 1.2-1.4 2-2.4 1.2 1.1 1.6 1.5 2.8 2.6.2.2.3.3.3.4 0 .2-.2.3-.5.3h-5.5v5.9c0 .5 0 3.6.1 4.9-.1 1.7-.1 2-.5 2.5-.5.7-1.4 1-3.6 1.5-.2-1-.4-1.5-1.1-2-.6-.4-1.4-.6-4-.9v-.6c2.7.2 3.6.2 6.1.3.4 0 .5-.1.5-.6v-11h-10c-2.1 0-2.4 0-3.6.3l-.3-1.5c1.4.3 2.1.4 4 .4h10v-5.1h-10.6c-2 0-2.5 0-3.5.3l-.3-1.4c1.2.2 1.6.3 3.8.3h4.9v-6h-4.7c-1.4 0-2 .1-2.8.3l-.3-1.5c1.1.3 1.9.3 3.1.3h4.7v-2.8c0-.6 0-1.2-.2-2.9 3.6.4 4.3.5 4.3.9 0 .3-.4.5-1.7.8v4h4.4l2-2.5c1.3 1.2 1.7 1.5 3 2.8l.3.3c0 .2-.2.3-.5.3H114v6h6.2l2-2.5c1.4 1.2 1.9 1.6 3.3 2.8.2.2.2.2.2.3 0 .2-.2.3-.4.3h-5.6v4.9zm-13.2 2.5c1.5.6 2.8 1.4 4.5 2.5 1.1.8 1.6 1.5 1.6 2.2 0 1.2-.6 2.5-1.1 2.5-.3 0-.5-.3-.9-.9-.9-2.1-2.3-3.8-4.4-6l.3-.3zm26.4-9v21.9c0 .3-.1.3-.4.5-.2.1-1.2.2-1.8.2-.3 0-.5-.1-.5-.4.1-3.2.2-9.2.2-18.7 0-9.8 0-13.2-.2-15.3 1.1.7 1.5.9 2.7 1.7h7.7c.7-.8.9-1 1.5-1.7.9.8 1.2 1 2 1.7.3.2.3.4.3.5 0 .2-.3.5-1.1.9v4.1c0 2 0 3.2.1 5.5 0 .3-.1.4-.2.5-.2.1-1.1.2-1.9.2-.3 0-.3-.1-.5-.4V80h-7.9zm8.1-9.3h-8v3.7h8v-3.7zm0 4.6h-8V79h8v-3.8zm0 23.3c0 .2-.1.3-.3.4-.2.1-1.2.2-1.5.2-.3 0-.5-.1-.5-.4 0-3.1.1-4.8.1-6.4 0-4.4 0-8-.1-9.4 1.2.7 1.6.9 2.8 1.6h8.8c.7-.6.9-.8 1.6-1.5.8.6 1.1.9 1.8 1.6.3.3.4.4.4.5 0 .2-.2.3-1.2.9v4.1c0 2.6 0 4 .1 6.9 0 .3-.1.4-.3.5-.2.1-1 .2-1.6.2-.3 0-.5-.1-.5-.3v-1.3H141v2.4zm9.5-13.1H141v4.2h9.5v-4.2zm-9.5 5.1v4.9h9.5v-4.9H141zm9.5-10.6v1c-.1.5-.4.6-1.4.6-.9 0-1.1-.1-1.1-.5.1-2.4.1-3.5.1-5.7 0-5.4 0-5.7-.1-7.2 1.2.7 1.6.9 2.7 1.7h7.9c.7-.8.9-1 1.5-1.7 1 .8 1.3 1 2.3 1.7.3.3.4.4.4.5 0 .3-.1.3-1.2 1.1v27.9c-.1 1.7-.8 2.2-4.1 2.9-.3-.9-.6-1.3-1.3-1.7-.3-.2-.9-.4-2-.6-1.3-.2-2-.4-2.1-.4V99c3.1.2 3.8.2 6.1.3.6 0 .7-.1.7-.5V79.9h-8.4zm8.5-9.3h-8.5v3.7h8.5v-3.7zm0 4.6h-8.5V79h8.5v-3.8zm8.3 27.8c2-2.2 3.2-3.7 4.2-5.6 2-3.6 3.2-8.1 3.2-12.3 0-4.2-1.2-8.7-3.2-12.3-1.1-1.9-2.2-3.4-4.2-5.6H178V103h-10.7zm49.3-11.5c0 4.5-3.7 7.4-9.4 7.4-5.6 0-9.1-2.7-9.1-7 0-2 1.1-4.1 2.8-5.5.9-.6 1.9-1.2 3.6-1.8-1.7-.8-2.6-1.4-3.4-2-1.4-1.2-2-2.5-2-4.6 0-1.7.5-3.3 1.4-4.4 1.4-1.7 4.1-2.7 7-2.7 3 0 5.5 1.1 6.9 3.1.7 1 1.1 2.2 1.1 3.7 0 1.8-.7 3.2-2.2 4.4-1.1.8-2 1.3-3.4 1.7 4.5 1.7 6.7 4.2 6.7 7.7zM203 86.7c-1.4 1.2-2.2 3-2.2 4.9 0 3.7 2.6 6.2 6.6 6.2 3.7 0 6.1-2.3 6.1-5.6 0-1.8-.8-3.1-2.8-4.5-.7-.5-1.9-1.1-3.5-1.9-.3-.2-1.5-.7-1.5-.7-1.3.5-1.9.9-2.7 1.6zm9.7-9c0-3.6-2.1-5.8-5.6-5.8-3.2 0-5.2 2-5.2 5 0 2 .8 3.2 3.1 4.5.5.3.5.3 2.7 1.2.3.2.6.3 1.1.6 2.7-1.1 3.9-2.9 3.9-5.5zm14.2 3.6c0 1.5-1.1 2.7-2.6 2.7s-2.7-1.1-2.7-2.7c0-1.5 1.1-2.6 2.7-2.6 1.5 0 2.6 1.1 2.6 2.6zm0 14.8c0 1.5-1.1 2.7-2.6 2.7s-2.7-1.2-2.7-2.7c0-1.5 1.1-2.6 2.7-2.6 1.5-.1 2.6 1 2.6 2.6zm7.1-21c1.4-2.6 4.1-4.2 7.3-4.2s5.9 1.5 7.3 4.2c1.4 2.6 2.1 6 2.1 9.8 0 3.7-.8 7.2-2.1 9.8-1.4 2.6-4.1 4.2-7.3 4.2s-5.9-1.6-7.3-4.2c-1.4-2.6-2.1-6.1-2.1-9.8-.1-3.8.7-7.2 2.1-9.8zm7.3 22.7c4 0 5.8-4 5.8-13s-1.8-13-5.8-13-5.8 4-5.8 13c0 9.1 1.7 13 5.8 13zm14.8-22.7c1.4-2.6 4.1-4.2 7.3-4.2s5.9 1.5 7.3 4.2c1.4 2.6 2.1 6 2.1 9.8 0 3.7-.8 7.2-2.1 9.8-1.4 2.6-4.1 4.2-7.3 4.2s-5.9-1.6-7.3-4.2c-1.4-2.6-2.1-6.1-2.1-9.8 0-3.8.7-7.2 2.1-9.8zm7.4 22.7c4 0 5.8-4 5.8-13s-1.8-13-5.8-13-5.8 4-5.8 13c-.1 9.1 1.7 13 5.8 13zm22.6-11.6c2.9-4 5.6-5.9 8.7-5.9 2.1 0 4 .8 9.6 4.1 4.3 2.5 6.3 3.3 8.1 3.3.9 0 2.1-.4 3.1-1.1.9-.6 1.8-1.6 3.1-3.3l.9.6c-.8 1.6-1.9 3-3.5 4.4-1.6 1.5-3 2-4.8 2-.8 0-1.7-.1-2.5-.3-1.5-.4-2.7-1-7.1-3.6-4-2.4-6.8-3.5-8.7-3.5-1.7 0-3.9 1.5-6 4.1l-.9-.8zM337 97.1c1.6-.1 2-.2 2.5-.4.8-.4 1-1.2 1-3.9V77c-.1-3.3-.1-3.3-.4-3.5s-.8-.3-1.7-.3H337V72c2.9-.2 5.3-.5 7.2-1-.2 3-.3 6.2-.3 10.6v11.2c0 2.5.2 3.3.7 3.7.5.4.6.4 2.8.5v1.1H337v-1zm26.4-8.6c-2.4 0-4.7-.9-6.1-2.3-1.4-1.4-2.2-3.7-2.2-6.1 0-5.5 3.7-9.2 9.1-9.2 6 0 9.2 4.4 9.2 12.7 0 5.5-1.2 10-3.3 12.4-1.7 1.9-3.8 2.9-6.6 2.9-3.9 0-7.4-2-7.4-4.4 0-1.2.8-1.9 2.1-1.9 1.2 0 1.6.3 1.7 1.5.2 2.6 1.4 3.9 3.5 3.9 2.6 0 4.4-1.8 5.5-5.2.5-1.9.9-4.6.9-7.2-1.9 2-3.9 2.9-6.4 2.9zm5-13.9c-.9-1.8-2.5-2.8-4.3-2.8-1.8 0-3.4.9-4.2 2.5-.8 1.5-1.2 3.5-1.2 5.7 0 4.6 2 7.5 5.3 7.5 1.4 0 2.9-.6 4-1.7 1.4-1.3 1.9-2.8 1.9-5-.1-2.3-.5-4.4-1.5-6.2zm15.6 6.7c0 1.5-1.1 2.7-2.6 2.7s-2.7-1.1-2.7-2.7c0-1.5 1.1-2.6 2.7-2.6 1.4 0 2.6 1.1 2.6 2.6zm0 14.8c0 1.5-1.1 2.7-2.6 2.7s-2.7-1.2-2.7-2.7c0-1.5 1.1-2.6 2.7-2.6 1.4-.1 2.6 1 2.6 2.6zm7-21c1.4-2.6 4.1-4.2 7.3-4.2s5.9 1.5 7.3 4.2c1.4 2.6 2.1 6 2.1 9.8 0 3.7-.8 7.2-2.1 9.8-1.4 2.6-4.1 4.2-7.3 4.2s-5.9-1.6-7.3-4.2c-1.4-2.6-2.1-6.1-2.1-9.8 0-3.8.7-7.2 2.1-9.8zm7.3 22.7c4 0 5.8-4 5.8-13s-1.8-13-5.8-13-5.8 4-5.8 13c0 9.1 1.8 13 5.8 13zm14.9-22.7c1.4-2.6 4.1-4.2 7.3-4.2s5.9 1.5 7.3 4.2c1.4 2.6 2.1 6 2.1 9.8 0 3.7-.8 7.2-2.1 9.8-1.4 2.6-4.1 4.2-7.3 4.2s-5.9-1.6-7.3-4.2c-1.4-2.6-2.1-6.1-2.1-9.8-.1-3.8.7-7.2 2.1-9.8zm7.3 22.7c4 0 5.8-4 5.8-13s-1.8-13-5.8-13-5.8 4-5.8 13c0 9.1 1.8 13 5.8 13z"/></g></g></svg>