<?xml version="1.0" encoding="utf-8"?>
<!-- Generator: Adobe Illustrator 25.2.3, SVG Export Plug-In . SVG Version: 6.00 Build 0)  -->
<svg version="1.1" id="レイヤー_1" xmlns="http://www.w3.org/2000/svg" xmlns:xlink="http://www.w3.org/1999/xlink" x="0px"
	 y="0px" viewBox="0 0 114 419" style="enable-background:new 0 0 114 419;" xml:space="preserve">
<style type="text/css">
	.st0{fill:#200701;}
	.st1{fill:none;stroke:#76544B;stroke-miterlimit:10;}
</style>
<g>
	<g>
		<path class="st0" d="M79.6,121.7c0,0.4-0.3,0.5-1.2,0.5c-0.6,0-0.7-0.1-0.7-0.3c0.1-4.1,0.1-7.1,0.1-12.3c0-6.7-0.1-10-0.2-11.5
			c0.9,0.6,1.2,0.8,2.1,1.3h2.5c0.5-0.5,0.6-0.7,1.1-1.2c0.7,0.5,0.9,0.7,1.5,1.2c0.2,0.2,0.3,0.3,0.3,0.4c0,0.1-0.2,0.3-0.8,0.6
			l0,9.2c0,6.2,0,8.4,0.1,10.7c0,0.4-0.2,0.5-1.3,0.5c-0.4,0-0.5,0-0.5-0.3v-1.2h-2.8V121.7z M82.5,100.1h-2.8v5.5h2.8V100.1z
			 M79.6,106.2v5.7h2.8v-5.7H79.6z M79.6,112.5v6.1h2.8v-6.1H79.6z M83,123c2.9-1.8,4.3-3.2,5.3-5.3c0.8-1.7,1.2-3.3,1.3-5.8
			c-0.9,0.7-2,1.5-3.4,2.5c-0.1,1.1-0.2,1.3-0.4,1.3c-0.3,0-0.3,0-1.2-2.9c1.4-0.2,3.4-0.8,5.1-1.5c0-2.3,0.1-4,0.1-6.4
			c0-4.5,0-5.4-0.2-6.5c2.9,0.3,3,0.4,3,0.7c0,0.2-0.3,0.4-1.1,0.6c0,0.5,0,2.6,0,2.9c0,1.1-0.1,7.7-0.1,8.6c-0.1,4-0.8,6.2-2.3,8.3
			c-1.3,1.8-3.1,3-5.9,4.3L83,123z M85.2,102.3c2.1,1.5,3.4,3.1,3.4,4c0,0.8-0.6,1.9-1.1,1.9c-0.3,0-0.4-0.1-0.6-1.2
			c-0.5-1.8-0.9-2.8-2-4.5L85.2,102.3z M96,106.6c1.7-1.8,2.8-3.6,3.4-5c2.2,0.9,2.8,1.2,2.8,1.5c0,0.3-0.4,0.4-1.5,0.4
			c-2.1,2-3,2.7-4.7,3.7v3c1.1,0.3,2.8,1,3.5,1.4c0.7,0.3,1.2,0.8,1.4,1c0.1,0.2,0.3,0.7,0.3,1.2c0,0.8-0.3,1.4-0.6,1.4
			c-0.2,0-0.3-0.1-0.6-0.5c-1.1-1.5-2.4-2.9-3.9-4v9.2c0,0.8,0,0.8,1,0.8c0.2,0,0.5,0,1,0c0.1,0,0.3,0,0.3,0c1.5,0,1.7-0.1,1.9-0.4
			c0.2-0.4,0.3-0.7,1.3-4.9l0.4,0l-0.2,4.2c0,0.1,0,0.1,0,0.1c0,0.4,0.1,0.5,0.3,0.6c0.6,0.3,0.7,0.4,0.7,0.8c0,0.8-1.1,1.1-4.2,1.1
			c-2.9,0-3.4,0-3.8-0.3c-0.4-0.3-0.6-0.7-0.6-1.5c0-2.4,0-2.6,0-3.2v-16.4c0-1.4,0-1.9-0.1-2.7c2.9,0.4,3.1,0.4,3.1,0.7
			c0,0.2-0.2,0.3-1.1,0.6V106.6z"/>
		<path class="st0" d="M81.8,137.7c1.1,0.8,1.8,1.5,2.2,2.3c0.3,0.5,0.6,1.5,0.9,2.9c1.9-1,3.4-1.5,5.9-1.8c0.4-1.4,0.5-2.5,0.5-3.3
			c0-0.7-0.3-0.9-1.3-0.9c-0.1,0-0.3,0-0.5,0l-0.1-0.3c0.8-0.3,1.3-0.5,1.8-0.5c1.1,0,2.2,0.9,2.2,1.7c0,0.5-0.4,2.1-0.8,3.2
			c4.6,0.2,7.8,3.2,7.8,7.4c0,3.1-1.8,5.8-5.1,7.5c-1.7,0.9-3.3,1.3-5.5,1.6l-0.1-0.4c2.4-0.7,3.9-1.5,5.4-2.8c2-1.8,3.1-4,3.1-6.4
			c0-2.2-0.9-3.9-2.4-5c-1-0.7-2-1-3.5-1.1c-1.1,3.1-2.9,6.5-4.7,8.7c0.4,0.6,0.5,0.8,1,1.4c0.8,1,0.9,1.1,0.9,1.5s-0.3,0.6-0.7,0.6
			c-0.6,0-1.5-0.8-2.4-2c-0.4,0.6-1.1,1.2-2.2,2.1c-0.9,0.7-1.6,1-2.2,1c-0.6,0-1-0.4-1.2-1.4c-0.3-0.9-0.4-1.1-0.8-1.8
			c-0.5-0.6-0.6-1.1-0.6-1.7c0-2.2,1.6-4.6,4.4-6.5c-0.5-3.2-0.8-4.1-2.1-5.7L81.8,137.7z M81.6,147.3c-0.6,1-1,2.2-1,3.3
			c0,1.3,0.8,2.7,1.5,2.7c0.6,0,2-1,3.4-2.4c-0.8-1.8-1.1-3.1-1.7-6C82.7,145.8,82.2,146.4,81.6,147.3z M86.7,149.5
			c1.6-2.2,2.8-4.7,3.7-7.4c-2.4,0.4-3.7,0.8-5.4,2C85.8,147.3,86,148,86.7,149.5z"/>
		<path class="st0" d="M89.3,193.3c3-0.9,5-2,6.6-3.9c1.7-1.9,2.5-4.2,2.5-6.7c0-2.7-1.1-4.9-3.2-6.2c-1.2-0.8-3.1-1.3-4.8-1.3
			c-0.3,0-0.5,0-1,0.1c0.7,1,0.9,1.5,0.9,2.3c0,2.2-1.6,6.3-3.7,9.7c-1.8,2.8-3.1,4.2-4.2,4.2c-0.5,0-0.9-0.2-1.2-0.6
			c-0.3-0.3-0.3-0.4-0.8-1.8c-0.3-0.7-0.4-1.1-1.2-2.6c-0.4-0.9-0.6-1.7-0.6-2.5c0-1.8,1-3.8,2.5-5.5c2.3-2.4,6-3.9,9.6-3.9
			c2.8,0,5.4,0.9,7.2,2.6c1.8,1.7,2.7,3.9,2.7,6.6c0,3.5-2,6.6-5.6,8.5c-1.6,0.9-3.1,1.3-5.5,1.7L89.3,193.3z M80.1,184.6
			c0,1.3,0.4,2.7,1.1,3.7c0.4,0.5,0.8,0.8,1.1,0.8c0.6,0,2-1.5,3.3-3.7c2.1-3.3,3.6-6.9,3.6-8.7c0-0.4-0.1-0.7-0.4-1.4
			C83.9,176.2,80.1,180.2,80.1,184.6z"/>
		<path class="st0" d="M90.6,230.1h6.8c0.7-1,1-1.3,1.8-2.2l2.7,2.4c0.1,0.1,0.1,0.2,0.1,0.3c0,0.1-0.1,0.1-0.2,0.1H80.3
			c-1,0-1.7,0.1-2.9,0.3l-0.3-1.2c1.3,0.2,2.7,0.3,3.4,0.3h8.1v-7.3h-6.7c-0.4,0-0.8,0.1-2.2,0.3l-0.2-1.1c0.9,0.1,2,0.2,2.6,0.2
			h13.4c0.7-0.9,0.9-1.2,1.6-2c1.2,1,1.5,1.3,2.7,2.3c0.1,0.1,0.1,0.1,0.1,0.2c0,0.1-0.1,0.2-0.2,0.2h-9.1V230.1z M87.8,211.5
			c-0.1,1.4-0.1,1.7-0.3,2.4c-1,3.9-4.3,6.2-10,6.8l-0.3-0.5c3.3-0.6,5.7-1.8,7.1-3.8c1-1.4,1.3-2.6,1.5-4.9h-5.2
			c-0.4,2.6-1.3,4.1-2.4,4.1c-0.2,0-0.4-0.1-0.6-0.4c-0.2-0.4-0.4-0.9-0.4-1.1c0-0.4,0.1-0.5,0.7-1c1.3-0.9,2.2-2.4,2.4-4.3h0.4
			c0,0.9,0,1.3-0.1,2h7.7v-2.1c0-1.1,0-1.3-0.1-2c2.7,0.3,2.8,0.3,3.1,0.4c0.2,0.1,0.3,0.2,0.3,0.3c0,0.3-0.4,0.4-1.4,0.8v2.7H98
			c0.5-0.7,0.6-0.9,1.2-1.5c1.1,0.8,1.4,1,2.4,1.9c0.2,0.2,0.3,0.3,0.3,0.4c0,0.1-0.1,0.1-0.1,0.2c-0.1,0.1-0.4,0.2-0.7,0.2
			c-0.7,0.1-1.1,0.2-1.3,0.3c-0.9,1-1.5,1.5-2.8,2.5l-0.2-0.2c0.5-1,0.6-1.1,1.3-3.1h-4.9v5.2c0,0.4,0.1,0.5,0.4,0.6
			c0.2,0,2,0.1,3.1,0.1c1.1,0,2.2-0.1,2.4-0.2c0.3-0.1,0.3-0.1,0.7-1c0.3-0.7,0.5-1.3,1-2.8l0.4,0l-0.2,2.9c0,0.2,0,0.3,0,0.4
			c0,0.3,0.1,0.4,0.4,0.5c0.5,0.2,0.7,0.3,0.7,0.7c0,0.3-0.3,0.6-0.8,0.8c-0.6,0.1-2.4,0.3-4.1,0.3c-2.2,0-4.4-0.1-4.9-0.1
			c-0.9-0.1-1.2-0.5-1.2-1.5v-5.9H87.8z"/>
		<path class="st0" d="M79.9,252.1v10.7c0,3.7,0,3.7,0,5.6c0,0.2-0.1,0.3-0.3,0.3c-0.2,0.1-0.9,0.1-1.3,0.1c-0.3,0-0.3-0.1-0.4-0.3
			c0.1-2.4,0.1-6.8,0.1-13.9c0-7.3,0-9.8-0.1-11.4c0.8,0.5,1.1,0.7,2,1.3h5.7c0.5-0.6,0.7-0.7,1.1-1.3c0.7,0.6,0.9,0.7,1.5,1.3
			c0.2,0.2,0.3,0.3,0.3,0.4c0,0.2-0.2,0.4-0.8,0.7c0,1.3,0,2.1,0,3.1c0,1.5,0,2.4,0.1,4.1c0,0.2-0.1,0.3-0.2,0.4
			c-0.1,0.1-0.8,0.1-1.4,0.1c-0.2,0-0.3-0.1-0.3-0.3v-0.8H79.9z M85.9,245.2h-6v2.7h6V245.2z M85.9,248.6h-6v2.9h6V248.6z
			 M85.9,265.9c0,0.2-0.1,0.2-0.3,0.3c-0.2,0.1-0.9,0.1-1.1,0.1c-0.3,0-0.3-0.1-0.4-0.3c0-2.3,0.1-3.6,0.1-4.8c0-3.3,0-5.9-0.1-7
			c0.9,0.5,1.2,0.7,2.1,1.2h6.6c0.5-0.5,0.7-0.6,1.2-1.1c0.6,0.5,0.8,0.6,1.4,1.2c0.3,0.2,0.3,0.3,0.3,0.4c0,0.2-0.1,0.3-0.9,0.7
			c0,1.5,0,2,0,3.1c0,1.9,0,3,0.1,5.2v0c0,0.3-0.1,0.3-0.3,0.4c-0.2,0.1-0.8,0.1-1.2,0.1c-0.3,0-0.4-0.1-0.4-0.3v-1h-7.1V265.9z
			 M92.9,256.1h-7.1v3.1h7.1V256.1z M85.9,259.9v3.6h7.1v-3.6H85.9z M92.9,252.1v0.7c-0.1,0.3-0.3,0.4-1,0.4c-0.7,0-0.8-0.1-0.8-0.4
			c0.1-1.8,0.1-2.6,0.1-4.2c0-4,0-4.3-0.1-5.3c0.9,0.5,1.2,0.7,2,1.2H99c0.5-0.6,0.7-0.7,1.1-1.3c0.8,0.6,1,0.7,1.7,1.3
			c0.2,0.2,0.3,0.3,0.3,0.4c0,0.2-0.1,0.3-0.9,0.8v13.5c0,4.7,0,4.7,0,7.3c-0.1,1.3-0.6,1.7-3,2.2c-0.3-0.7-0.5-1-1-1.3
			c-0.3-0.2-0.7-0.3-1.5-0.4c-1-0.2-1.5-0.3-1.6-0.3v-0.4c2.3,0.1,2.8,0.2,4.6,0.2c0.4,0,0.5-0.1,0.5-0.4v-14H92.9z M99.3,245.2
			h-6.3v2.7h6.3V245.2z M99.3,248.6h-6.3v2.9h6.3V248.6z"/>
		<path class="st0" d="M12.2,184.3c2-3.5,2.6-4.8,3.6-7.7c0.9-2.6,1.4-4.6,1.7-6.2c1.1,0.3,2.3,0.6,2.7,0.8c0.2,0.1,0.3,0.2,0.3,0.3
			c0,0.3-0.4,0.4-1.1,0.5c-1.5,4-2,5-2.9,6.7c1.7,0.4,2.2,0.6,2.2,0.8c0,0.2-0.3,0.4-1,0.6v8.8c0,0.2,0,3.6,0.1,6.5
			c0,0.2-0.1,0.3-0.3,0.3c-0.2,0.1-1,0.1-1.3,0.1s-0.5-0.1-0.5-0.5c0.1-2.7,0.1-6.6,0.1-9.8v-5.8c-0.9,1.5-1.6,2.5-3.4,4.8
			L12.2,184.3z M22.8,195.1c0,0.2,0,0.3-0.1,0.4c-0.2,0.1-0.8,0.3-1.4,0.3c-0.3,0-0.4-0.1-0.4-0.3c0,0,0,0,0-0.1
			c0.1-4.3,0.1-8.4,0.1-13.2c0-3.7-0.1-7.7-0.1-10.6c1,0.4,1.3,0.6,2.1,1.1h11.6c0.5-0.6,0.6-0.7,1.1-1.3c0.8,0.6,1,0.7,1.7,1.2
			c0.3,0.2,0.4,0.3,0.4,0.4c0,0.2-0.3,0.4-1,0.8c0,5,0,5,0,6.1c0,1.1,0,1.2,0,4.8l0.1,6.9c0,1.2,0,1.4,0.1,3.1c0,0.2,0,0.3-0.1,0.3
			c-0.1,0.2-0.8,0.4-1.5,0.4c-0.3,0-0.4-0.1-0.4-0.3c0,0,0-0.1,0-0.1v-1.5H22.8V195.1z M22.8,193.1h12.2v-19.7H22.8V193.1z
			 M31.3,178.4c0.6-0.7,0.7-0.9,1.3-1.6c0.8,0.8,1.1,1,1.9,1.8c0.1,0.1,0.1,0.2,0.1,0.2c0,0.1-0.1,0.2-0.3,0.2h-4.7v4.2h1.5
			c0.4-0.4,0.5-0.6,0.9-1c0.6,0.4,0.8,0.5,1.4,1c0.3,0.2,0.4,0.3,0.4,0.4c0,0.2-0.1,0.3-0.7,0.6c0,3.5,0,3.5,0.1,6.3
			c0,0.2-0.1,0.3-0.3,0.4c-0.3,0.1-0.8,0.1-1.1,0.1c-0.3,0-0.4-0.1-0.4-0.4v-1.1h-4.8v1c0,0,0,0.1,0,0.1c0,0.2-0.1,0.3-0.2,0.3
			c-0.1,0.1-0.9,0.1-1.3,0.1c-0.2,0-0.3-0.1-0.3-0.3c0.1-1.4,0.1-2.3,0.1-5.6c0-0.4,0-1-0.1-3c0.8,0.4,1,0.5,1.8,1h1.4v-4.2h-2.3
			c-1.1,0-1.3,0-2.1,0.2l-0.3-1.1c1,0.2,1.6,0.3,2.4,0.3h2.3v-2c0-1,0-1.3-0.2-2.1c2.5,0.3,2.8,0.3,2.8,0.6c0,0.2-0.2,0.3-1,0.6v2.8
			H31.3z M26.6,189h4.8v-5.1h-4.8V189z"/>
		<path class="st0" d="M15.4,211.9c0,0.3,0,0.6,0,0.7c0,2.7-0.3,4.6-0.9,5.8c-0.4,0.8-0.8,1.2-1.1,1.2c-0.2,0-0.4-0.2-0.6-0.6
			c-0.2-0.4-0.3-1-0.3-1.2c0-0.3,0.1-0.4,0.6-0.9c1.1-1,1.7-2.5,2-5H15.4z M16.5,209.3c0-1.2,0-1.5-0.1-2.5c2.6,0.3,3.2,0.4,3.2,0.8
			c0,0.2-0.2,0.4-1.2,0.7l-0.1,15.5c0,0.3,0,3,0.1,8.2c0,0.1,0,0.2-0.1,0.3c-0.1,0.1-1,0.2-1.5,0.2c-0.3,0-0.3-0.1-0.4-0.3
			c0.1-4.2,0.1-6,0.1-9.9c0-1.9,0-3,0-4.7c0-3.2,0-4.5,0-6.6V209.3z M19.4,211.7c1.3,1.5,2,2.5,2,3.2c0,0.8-0.6,2-1.1,2
			c-0.2,0-0.3-0.2-0.4-0.6c-0.1-1.7-0.3-3-0.8-4.5L19.4,211.7z M28.1,214.4v-3.1c0-2.6,0-3.1-0.2-4.4c3,0.4,3.4,0.5,3.4,0.8
			c0,0.3-0.1,0.3-1.3,0.7v6h3.6c0.7-0.9,0.9-1.1,1.6-2c1.1,0.9,1.5,1.2,2.6,2.2c0,0.1,0.1,0.1,0.1,0.2c0,0.1-0.1,0.2-0.2,0.2h-7.6
			v6.6h3.2c0.7-0.9,0.9-1.1,1.7-1.9c1.1,0.9,1.4,1.1,2.3,2.1c0.1,0.1,0.1,0.2,0.1,0.3s-0.1,0.2-0.3,0.2h-7v7.8h4.1
			c0.7-0.9,1-1.2,1.7-2.1c1.2,1,1.5,1.3,2.6,2.3c0.1,0.1,0.1,0.2,0.1,0.3c0,0.1-0.1,0.2-0.2,0.2H22.9c-1.1,0-1.8,0.1-2.8,0.2
			l-0.2-1.1c1,0.2,1.8,0.3,2.9,0.3h5.2v-7.8h-3.3c-0.9,0-1.8,0.1-2.5,0.1l-0.2-1c0.8,0.2,1.3,0.3,2.7,0.3h3.3V215h-4.2
			c-1.4,2.9-2.2,4.2-3.8,6.1l-0.3-0.3c1.2-1.9,2.1-4,2.9-6.7c0.6-2.1,1-3.8,1-5.2c2.6,0.7,3.1,0.9,3.1,1.1c0,0.2-0.3,0.4-1.2,0.6
			c-0.4,1.5-0.7,2.1-1.4,3.8H28.1z"/>
		<path class="st0" d="M21.1,248.8c0.4-0.5,0.6-0.7,1-1.2c0.6,0.5,0.8,0.6,1.5,1.2c0.2,0.2,0.3,0.3,0.3,0.4c0,0.2-0.2,0.3-1,0.7
			c0,1.8,0,3,0,3.6c0,5.9,0,10.6,0.1,12.6c0,0.1,0,0.1,0,0.1c0,0.2-0.2,0.3-0.9,0.3c-0.2,0-0.4,0-0.4,0c0,0-0.1,0-0.1,0
			c-0.3,0-0.4-0.1-0.4-0.3c0,0,0-0.1,0-0.1v-1.5h-5v2.4c-0.1,0.3-0.2,0.4-1,0.4c-0.1,0-0.2,0-0.4,0c-0.4,0-0.5,0-0.5-0.3
			c0.1-3.1,0.1-4.1,0.1-8.9c0-6.2,0-7.8-0.2-10.8c1,0.6,1.2,0.8,2.1,1.4h0.8c0.9-3.2,1.1-4,1.1-5.3c1.1,0.3,2.5,0.7,2.9,0.9
			c0.2,0.1,0.3,0.2,0.3,0.3c0,0.3-0.2,0.4-1.3,0.5c-0.8,1.7-1.3,2.3-2.4,3.7H21.1z M21.1,255.8v-6.3h-5v6.3H21.1z M16.1,256.5v7.6h5
			v-7.6H16.1z M35.2,248.8c0.5-0.6,0.7-0.8,1.2-1.4c0.7,0.6,1,0.8,1.7,1.4c0.2,0.2,0.3,0.3,0.3,0.5c0,0.3-0.1,0.3-1,0.8
			c-0.1,6.5-0.2,7.1-0.6,10.6c-0.4,3.2-1,5.2-1.7,6.2c-0.5,0.7-0.9,0.9-3.3,1.3c-0.3-1-0.4-1.3-0.9-1.6c-0.3-0.2-0.7-0.3-1.5-0.4
			l-0.8-0.1c-0.3,0-0.5-0.1-0.8-0.1v-0.5c0.5,0,1,0.1,1.3,0.1c1.6,0.1,2,0.1,2.7,0.1c1.6,0,1.7,0,1.9-0.5c0.4-0.9,0.9-3,1.1-5.3
			c0.4-3.2,0.5-6,0.5-10.5h-7.6c-1.7,3.3-2.6,4.6-4,6.2l-0.4-0.2c1.3-2.2,2.2-4,3.1-6.7c0.7-2.2,1.1-3.8,1.3-5.5
			c1.3,0.3,2.6,0.6,3,0.8c0.2,0.1,0.3,0.2,0.3,0.3c0,0.2-0.2,0.3-1.3,0.6c-0.5,1.5-0.8,2.2-1.6,3.9H35.2z M27,253.2
			c2,1.3,3,2.1,4.1,3.2c0.8,0.8,1,1.3,1,2c0,1.1-0.4,2.1-1,2.1c-0.2,0-0.4-0.2-0.6-0.6c-0.3-1-0.7-1.8-1.3-2.9
			c-0.8-1.5-1.3-2.2-2.5-3.5L27,253.2z"/>
		<path class="st0" d="M15.2,285.4c1.3,1.3,2.1,1.6,3.5,1.6c0.7,0,1.5-0.1,2.5-0.3c0.7-1.8,1-3,1-4c0-0.9-0.4-1.5-1.8-2.2
			c0.3-0.2,0.4-0.2,0.7-0.2c0.6,0,1.4,0.3,2.2,0.6c1,0.5,1.3,0.8,1.3,1.2c0,0.2-0.1,0.4-0.3,0.7c-0.1,0.2-0.7,1.4-1.7,3.4
			c2.1-0.7,2.3-0.9,3.1-1.5c0.2-0.2,0.3-0.2,0.6-0.2c1.1,0,1.9,0.4,1.9,0.8c0,0.7-1.7,1.4-6.2,2.5c-0.3,0.6-0.7,1.7-1.5,3.4
			c-0.8,1.9-3,6.6-3.2,7.1c-0.4,0.8-0.7,1-1,1c-0.5,0-0.9-0.9-0.9-2c0-0.6,0.1-0.7,0.3-1c0.6-0.7,1-1.1,1.3-1.7
			c1.4-2,2.4-3.9,3.5-6.6c-0.6,0.1-0.9,0.1-1.3,0.1c-1,0-1.8-0.2-2.5-0.6c-0.8-0.5-1.5-1.1-2-2L15.2,285.4z M30,287
			c1.9,0.2,3.5,0.7,4.8,1.5c1.1,0.7,1.8,1.5,1.8,2.2c0,0.5-0.3,0.8-0.7,0.8c-0.2,0-0.4-0.1-0.6-0.2c-0.8-0.5-1.3-0.6-2.7-0.6
			c-2.2,0-2.9,0.6-2.9,2.5c0,0.8,0.1,2,0.6,4.8c1.7,0.5,3.2,1.2,4,1.8c0.8,0.6,1.1,1.3,1.1,2.2c0,0.6-0.2,1-0.6,1
			c-0.3,0-0.4-0.1-1-0.7c-1-1.1-1.9-1.8-3.4-2.5c0,0.2,0,0.4,0,0.5c0,1.1-0.2,1.8-0.8,2.4c-0.8,0.8-2.1,1.2-3.6,1.2
			c-2.5,0-4.3-1.2-4.3-3c0-2,2.1-3.3,5.2-3.3c0.6,0,1,0,1.7,0.1c-0.1-2.2-0.1-2.4-0.1-2.8c0-2.3,0.2-3.2,1-4c0.6-0.6,1.3-1,2.7-1.3
			c0.4-0.1,0.5-0.1,1.5-0.4c-0.8-0.8-1.6-1.3-3.6-1.9L30,287z M28.5,299.2c-0.9-0.3-1.5-0.3-2.4-0.3c-2.4,0-3.8,0.8-3.8,2.1
			c0,1,1.1,1.7,2.8,1.7c2.3,0,3.4-0.9,3.4-2.7V299.2z"/>
		<path class="st0" d="M14.7,323.7c1.1,1,2.1,1.4,3.3,1.4c0.8,0,1.5-0.1,2.8-0.4c0-0.8,0-2.1,0-2.6c0-2.9-0.3-3.5-2.3-3.9
			c0.4-0.3,0.6-0.4,1.2-0.4c1,0,2.1,0.3,2.9,0.7c0.4,0.2,0.6,0.6,0.6,0.9c0,0.2,0,0.2-0.3,0.7c-0.4,0.8-0.7,2.1-0.9,4.2
			c1.5-0.5,2.2-0.9,3.1-1.6c0.2-0.2,0.5-0.3,0.7-0.3c0.3,0,0.7,0.1,1.1,0.3c0.3,0.1,0.5,0.4,0.5,0.6c0,0.4-0.3,0.6-1.3,1.1
			c-1.3,0.6-2.6,1-4.1,1.4c0,0.4,0,0.4-0.1,1.4c0,0.8-0.1,2-0.1,3.7c3.1-1.1,5.2-1.5,7.4-1.5c3.8,0,6.2,1.8,6.2,4.8
			c0,2.7-2.1,4.9-4.8,4.9c-2.6,0-4.4-1.7-5.4-5l0.4-0.1c0.7,1.3,1.1,1.9,1.7,2.4c0.8,0.7,1.7,1.1,2.7,1.1c2,0,3.5-1.6,3.5-3.8
			c0-2.2-1.5-3.3-4.1-3.3c-2.2,0-4.9,0.7-7.6,2c0,3,0,3,0,3.8c0,0.5,0,0.8,0,1.1c0,0.7-0.1,1.2-0.4,1.7c-0.3,0.6-0.9,1-1.3,1
			c-0.4,0-0.4,0-2.1-1.5c-0.6-0.5-1.4-1-1.9-1.3c-0.6-0.3-0.9-0.7-0.9-1.2c0-0.4,0.3-1,0.8-1.6c1-1.1,2-1.7,4.5-2.9
			c0-0.4,0-0.8,0.1-1.3c0.1-1.3,0.1-1.3,0.1-4c-0.9,0.1-1.5,0.2-2.2,0.2c-1.8,0-3-0.6-4.2-2.3L14.7,323.7z M17.8,335
			c-0.6,0.6-0.8,1-0.8,1.3c0,0.3,0.4,0.6,1.1,0.9c0.6,0.3,1.4,0.4,1.7,0.4c0.3,0,0.5-0.2,0.5-0.7c0.1-2.5,0.2-3.9,0.2-4.1
			C19.2,333.7,18.5,334.3,17.8,335z M30.2,320.9c1.7,0.1,3,0.4,4.1,1c1.2,0.7,2,1.6,2,2.5c0,0.5-0.3,0.8-0.8,0.8
			c-0.1,0-0.2,0-0.4-0.1c-0.4-0.1-0.5-0.1-0.6-0.1c-0.4,0-1.1,0.1-3.4,0.8l-0.2-0.3c1.7-0.9,2.7-1.5,3.1-1.8
			c-0.4-0.8-0.9-1.2-1.8-1.7c-0.6-0.3-1-0.5-1.9-0.7L30.2,320.9z"/>
		<path class="st0" d="M25,363.7c0.6-0.8,0.8-1,1.4-1.8c1,0.8,1.3,1.1,2.2,2c0.1,0.1,0.1,0.2,0.1,0.3c0,0.1-0.1,0.2-0.3,0.2H15
			c-0.8,0-1,0-2,0.1l-0.2-1c0.9,0.2,1.5,0.2,2.2,0.2h6.4c1-2.4,1.7-4.4,2-6.2c2.7,0.7,2.9,0.8,2.9,1.1S25.9,359,25,359
			c-1.1,1.9-2,3.3-3.1,4.7H25z M24.5,356.2c0.7-0.7,0.9-1,1.5-1.7c1,0.8,1.2,1.1,2.1,1.9c0.1,0.1,0.2,0.2,0.2,0.3
			c0,0.1-0.1,0.2-0.3,0.2H16c-1,0-1.4,0-2.2,0.1l-0.2-1c0.8,0.1,1.6,0.2,2.4,0.2h3.6v-1.7c0-0.7,0-1.1-0.1-2.1c2.6,0.2,3,0.3,3,0.6
			c0,0.3-0.3,0.4-1,0.6v2.5H24.5z M17.2,376.9c0,0.4-0.3,0.5-1.4,0.5c-0.5,0-0.6-0.1-0.6-0.4c0.1-2.3,0.1-4.3,0.1-7.3
			c0-1,0-1-0.1-3.5c0.9,0.6,1.2,0.7,2.1,1.3h6.5c0.4-0.5,0.5-0.7,0.9-1.2c0.7,0.5,1,0.7,1.7,1.2c0.2,0.1,0.2,0.3,0.2,0.4
			c0,0.2-0.2,0.4-0.8,0.6v3.3c0,0.4,0,0.4,0,2.3c0,0.6,0,1.4,0,2.5c0,0.4-0.3,0.5-1.4,0.5c-0.5,0-0.6-0.1-0.6-0.3v-1.3h-6.7V376.9z
			 M15.6,357.5c2.2,1.7,3.3,2.9,3.3,3.8c0,0.7-0.8,1.9-1.3,1.9c-0.1,0-0.3-0.1-0.3-0.4c-0.4-2.2-0.9-3.5-2-5L15.6,357.5z
			 M17.2,374.8h6.7v-6.6h-6.7V374.8z M30.8,372.7c0,0.2,0,1,0,2.1c0,0.6,0,1.6,0,2.7c0,0.2-0.1,0.3-0.2,0.4
			c-0.2,0.1-0.8,0.2-1.3,0.2c-0.4,0-0.5-0.1-0.6-0.4c0.1-4.4,0.2-12.2,0.2-18.1c0-3.4,0-4.3-0.1-6.3c0.9,0.5,1.2,0.7,2.1,1.2h4.3
			c0.5-0.7,0.5-0.7,1-1.4c0.9,0.7,1.1,0.9,2,1.5c0.2,0.2,0.3,0.3,0.3,0.4c0,0.3-0.3,0.4-1,0.5c-1.2,2.5-2.1,4.1-4.3,7.3
			c1.6,1.1,2.3,1.8,3.1,2.9c1.1,1.4,1.5,2.7,1.5,4.4c0,1.6-0.4,2.7-1.1,3.4c-0.6,0.6-1.2,0.9-2.7,1.2c-0.1-1.1-0.6-1.6-2.7-2.1
			l0-0.4c0.5,0.1,1,0.1,1.3,0.1c1.1,0.1,1.7,0.1,1.9,0.1c0.5,0,0.8-0.1,0.9-0.3c0.3-0.3,0.4-1.1,0.4-2.4c0-1.5-0.2-2.4-0.8-3.4
			c-0.6-1.2-1.2-1.9-2.7-3.4c1.3-3.1,2-5,2.7-7.9h-4.5V372.7z"/>
		<path class="st0" d="M26.3,398.8c-1.2,2-2.1,3.1-3.2,4.2c2.9-0.1,4.7-0.2,8.7-0.5c-1-0.8-1.5-1.2-2.7-2l0.2-0.3
			c2.6,1,4.2,1.7,5.3,2.5c0.6,0.4,0.9,1,0.9,1.7c0,0.7-0.3,1.3-0.6,1.3c-0.2,0-0.3,0-0.9-1c-0.3-0.4-0.7-0.9-1.5-1.6
			c-4.5,0.9-8.2,1.4-12.3,1.8c-0.1,0.9-0.2,1.1-0.5,1.1c-0.3,0-0.3,0-0.9-3c0.7,0.1,1,0.1,1.7,0.1c0.4,0,0.9,0,2,0
			c0.8-1.4,1.4-2.9,1.7-4.2h-6.3c-0.1,3.4-0.4,5.2-1.1,7.6c-0.6,2.1-1.4,4.3-2.2,5.6c-0.4,0.7-0.6,1-1.4,2l-0.4-0.3
			c0.9-1.5,1.1-2.2,1.6-3.8c0.7-2.5,1.2-5.9,1.3-9.2c0.1-1.9,0.1-3.9,0.1-6.5c0-2.5,0-3.8-0.1-5.5c1.1,0.6,1.5,0.8,2.5,1.5h15.6
			c0.5-0.6,0.6-0.8,1.1-1.4c0.8,0.5,1,0.7,1.7,1.2c0.1,0.1,0.2,0.2,0.2,0.3c0,0.1-0.1,0.2-0.1,0.3c-0.1,0.1-0.2,0.1-0.3,0.2
			c-0.1,0.1-0.2,0.2-0.4,0.3c0,0.7,0,1.3,0,1.7c0,1.1,0,1.3,0.1,3.2c-0.1,0.2-0.1,0.2-0.3,0.3c-0.4,0.1-0.9,0.1-1.3,0.1
			c-0.3,0-0.3,0-0.4-0.2v-0.8h-16l-0.1,2.9h16.1c0.8-0.7,1-0.9,1.8-1.6c0.9,0.8,1.2,1,2.2,1.9c0.1,0.1,0.1,0.1,0.1,0.2
			c0,0.1-0.1,0.2-0.3,0.2H26.3z M25.7,406.4c0-0.5,0-0.9-0.1-1.7c1.6,0.1,2.8,0.3,3.1,0.4c0.1,0,0.1,0.1,0.1,0.3
			c0,0.3-0.3,0.4-1.1,0.7v2h5c0.7-0.8,0.9-1,1.7-1.8c1.1,0.9,1.4,1.1,2.5,2.1c0,0.1,0,0.1,0,0.1c0,0.1-0.1,0.2-0.2,0.2h-9v3.9h6.2
			c0.8-0.8,1-1.1,1.8-2c1.2,0.9,1.5,1.2,2.7,2.2c0.1,0.1,0.2,0.2,0.2,0.3c0,0.1-0.1,0.2-0.4,0.2H18.8c-0.6,0-1.7,0.1-3,0.1l-0.3-1.1
			c1.1,0.2,2.2,0.3,3.1,0.3h7.1v-3.9h-5c-0.5,0-2.1,0.1-2.6,0.2l-0.2-1.1c0.7,0.2,1.6,0.3,2.8,0.3h4.9V406.4z M33.9,390.9h-16
			c0,0.1,0,1.3-0.1,3.8h16V390.9z"/>
	</g>
</g>
<line class="st1" x1="89.6" y1="4.9" x2="89.6" y2="64.9"/>
</svg>
