<?xml version="1.0" encoding="utf-8"?>
<!-- Generator: Adobe Illustrator 25.2.3, SVG Export Plug-In . SVG Version: 6.00 Build 0)  -->
<svg version="1.1" id="レイヤー_1" xmlns="http://www.w3.org/2000/svg" xmlns:xlink="http://www.w3.org/1999/xlink" x="0px"
	 y="0px" viewBox="0 0 257.4 514.4" style="enable-background:new 0 0 257.4 514.4;" xml:space="preserve">
<style type="text/css">
	.st0{fill:#200701;}
	.st1{fill:#210100;}
	.st2{fill:none;stroke:#76544B;stroke-miterlimit:10;}
	.st3{fill:#FFFFFF;}
</style>
<g>
	<g>
		<path class="st0" d="M236.2,148h-0.2c-0.6,0-1.1,0-1.6,0.1l-0.1-0.6c0.5,0.1,0.8,0.1,1.7,0.1h12c0.5-0.5,0.6-0.7,1-1.2
			c0.5,0.5,1,0.9,1.5,1.4c0.1,0.1,0.1,0.1,0.1,0.2s-0.1,0.1-0.2,0.1h-8.9v4.7c0,1.7,0,2.7,0.1,4.2c0,0.1-0.1,0.2-0.2,0.2
			c-0.1,0.1-0.6,0.1-0.9,0.1c-0.1,0-0.2-0.1-0.2-0.2c0,0,0,0,0,0c0.1-1.7,0.1-2.1,0.1-2.9c-2.4,0.9-2.4,0.9-5,1.7
			c-0.1,0.6-0.1,0.7-0.3,0.7c-0.2,0-0.3-0.3-0.7-1.8c0.6,0,0.8-0.1,1.8-0.2V148z M238.1,146.6C238.1,146.6,238.1,146.6,238.1,146.6
			c0,0.2-0.2,0.3-0.8,0.3c-0.4,0-0.5,0-0.5-0.2c0,0,0,0,0,0c0.1-1.3,0.1-1.9,0.1-3.5c0-1.2,0-1.5-0.1-2.3c0.6,0.3,0.8,0.4,1.3,0.8
			h8.4c0.3-0.3,0.4-0.5,0.7-0.8c0.5,0.4,0.6,0.5,1.1,0.9c0.1,0.1,0.1,0.1,0.1,0.2c0,0.1,0,0.1-0.6,0.5c0,2.4,0,3.1,0,4v0
			c0,0.2,0,0.2-0.1,0.2c-0.1,0.1-0.4,0.1-0.8,0.1c-0.2,0-0.3,0-0.3-0.2v-0.5h-8.6V146.6z M237.4,149.7h3.2V148h-3.2V149.7z
			 M237.4,151.9h3.2v-1.8h-3.2V151.9z M237.4,154.5c1.5-0.3,2.1-0.4,3.2-0.6v-1.5h-3.2V154.5z M246.7,142h-8.6v1.6h8.6V142z
			 M238.1,144v1.7h8.6V144H238.1z M247.6,149.6c0.3-0.3,0.4-0.4,0.8-0.7c0.5,0.4,0.6,0.5,1.1,0.9c0.1,0.1,0.2,0.2,0.2,0.2
			c0,0.1-0.1,0.2-0.8,0.4c-0.9,1.7-1.4,2.4-2.1,3.3c1.3,0.9,2.3,1.3,4.2,1.7v0.2c-0.4,0.1-0.6,0.2-0.8,0.4c-0.3,0.3-0.3,0.4-0.4,0.8
			c-1.7-0.7-2.5-1.3-3.6-2.3c-1.1,1-2,1.6-3.7,2.4l-0.1-0.2c1.3-0.8,2.1-1.5,3.3-2.8c-1-1.2-1.5-2.1-2.1-3.8h-0.2
			c-0.3,0-0.6,0-0.9,0.1l-0.1-0.6c0.3,0.1,0.6,0.1,1,0.1H247.6z M243.6,150c0.5,1.1,0.6,1.3,1.1,1.9c0.4,0.5,0.7,0.8,1.2,1.3
			c0.8-1.1,1.1-1.7,1.6-3.2H243.6z"/>
		<path class="st0" d="M246.8,168.5l1.2-1.4c0.8,0.7,1,0.9,1.8,1.6c0.1,0.1,0.1,0.1,0.1,0.1c0,0.1-0.1,0.1-0.2,0.1h-6.9v7.8h5.2
			c0.5-0.7,0.7-0.9,1.2-1.5c0.8,0.7,1.1,0.9,1.9,1.6c0.1,0.1,0.1,0.1,0.1,0.1c0,0.1-0.1,0.1-0.1,0.1h-14.6c-0.6,0-1,0-1.5,0.1
			l-0.1-0.7c0.6,0.1,0.9,0.1,1.6,0.1h5.1v-12.4c0-1,0-1.6-0.1-2.2c0.4,0.1,0.8,0.1,1,0.1c1,0.1,1.2,0.2,1.2,0.3s-0.2,0.2-0.7,0.4
			v5.6H246.8z"/>
		<path class="st0" d="M236.4,195.2c0,1.5,0,1.5,0,2.6c0,0.2,0,0.3,0,0.4c0,0.1,0,0.3,0,0.4c0,0.2-0.1,0.3-0.2,0.3
			c-0.1,0-0.5,0-0.6,0c-0.3,0-0.3,0-0.3-0.2c0-3.3,0-3.3,0-9.2c0-5.1,0-5.6-0.1-6.8c0.6,0.3,0.8,0.4,1.3,0.8h2
			c0.3-0.3,0.3-0.4,0.6-0.7c0.5,0.4,0.6,0.5,1,0.9c0.1,0.2,0.2,0.3,0.2,0.3c0,0.1-0.1,0.2-0.6,0.4c-0.7,1.4-1.5,2.9-2.1,3.9
			c0.8,0.8,1,1.1,1.3,1.5c0.5,0.7,0.8,1.7,0.8,2.6c0,0.9-0.3,1.8-0.8,2.2c-0.4,0.3-0.7,0.5-1.4,0.6c-0.2-0.8-0.3-1-1-1.2V195.2z
			 M236.4,193.8c0.6,0,1.1,0.1,1.3,0.1c0.4,0,0.5-0.1,0.6-0.3c0.1-0.3,0.2-0.9,0.2-1.5c0-1.5-0.4-2.6-1.5-3.7c0.5-1.1,1-2.8,1.4-4.4
			h-2.1V193.8z M243.2,185.9c0.3-0.4,0.4-0.5,0.8-0.9c0.6,0.5,0.7,0.6,1.3,1.2c0,0,0,0.1,0,0.1s-0.1,0.1-0.1,0.1h-3.3v2.8
			c1.1-0.2,2.1-0.5,3.2-0.8l0.1,0.2c-1.3,0.7-2.4,1.2-4.7,2c0,0.4-0.1,0.6-0.3,0.6s-0.3-0.3-0.6-1.6c0.5,0,0.6,0,1.2-0.1v-5
			c0-0.1,0-0.4,0-0.9c0-0.1,0-0.3,0-0.6c1.5,0.2,1.8,0.3,1.8,0.4c0,0.1-0.2,0.2-0.6,0.3v2.4H243.2z M243.4,192.3
			c0.2-0.5,0.5-1.6,0.7-2.4c1.5,0.4,1.7,0.5,1.7,0.7c0,0.1-0.2,0.2-0.6,0.2c0,0-0.1,0-0.2,0c-0.4,0.6-0.6,0.8-1.2,1.5h4
			c0.3-0.3,0.3-0.5,0.6-0.8c0.5,0.3,0.6,0.5,1,0.8c0.2,0.1,0.2,0.2,0.2,0.3c0,0.1-0.2,0.3-0.6,0.5c0,1.4,0,2,0,2.7
			c0,0.8,0,1.5,0,3.1c0,0.1-0.1,0.2-0.2,0.2c0,0-0.7,0.1-0.8,0.1c-0.1,0-0.2-0.1-0.2-0.2c0,0,0-0.1,0-0.1V198h-5.9v0.8
			c-0.1,0.2-0.2,0.3-0.6,0.3c-0.2,0-0.3,0-0.4,0c0,0,0,0,0,0c-0.2,0-0.2-0.1-0.2-0.2c0.1-1.5,0.1-1.5,0.1-5.7c0-0.7,0-1.1-0.1-1.8
			c0.6,0.3,0.8,0.5,1.3,0.8H243.4z M247.9,192.7h-5.9v2.1h5.9V192.7z M242.1,195.2v2.4h5.9v-2.4H242.1z M246.5,186.6
			c0.4-0.3,0.8-0.6,1.5-1.4c0.7-0.7,0.8-0.8,1-1.2c1.1,0.6,1.5,0.8,1.5,1c0,0.1-0.1,0.2-0.3,0.2s-0.3,0-0.5-0.1
			c-1.4,0.9-2.2,1.3-3.2,1.8v1.9c0,0.3,0,0.3,0.1,0.4c0.1,0.1,0.5,0.1,1.2,0.1c1,0,1.4,0,1.5-0.1c0.1-0.1,0.2-0.2,0.3-0.4
			c0.1-0.3,0.1-0.6,0.3-1c0.1-0.3,0.2-0.7,0.4-1.3l0.2,0l-0.1,2v0.3c0,0.2,0,0.2,0.2,0.3c0.3,0.1,0.3,0.2,0.3,0.4
			c0,0.3-0.2,0.5-0.5,0.5c-0.2,0.1-1,0.1-1.8,0.1c0,0-0.1,0-0.3,0c-0.5,0-0.9,0-1.2,0c-1.2,0-1.5-0.2-1.5-1.1l0-1V184
			c0-0.6,0-0.8-0.1-1.3c1.6,0.2,1.9,0.3,1.9,0.5c0,0.1-0.2,0.2-0.7,0.3V186.6z"/>
		<path class="st0" d="M235.9,207.9c0.3,0.2,0.5,0.3,0.8,0.3c0.5,0,1-0.1,5-1.1c0.6-0.2,1.7-0.4,2.9-0.6c1.3-0.3,1.9-0.4,2.4-0.6
			c0.4-0.1,0.5-0.1,0.6-0.1c0.2,0,0.6,0.2,1,0.4c0.4,0.2,0.5,0.5,0.5,0.7c0,0.3-0.2,0.5-0.6,0.5c-0.1,0-0.2,0-0.3,0
			c-0.2,0-0.3,0-0.5,0c-3.1,0-6,2.9-6,6c0,1.6,0.8,2.9,2.4,3.5c0.6,0.3,1.3,0.4,1.8,0.4c0.4,0,0.5,0.1,0.8,0.3
			c0.3,0.3,0.5,0.6,0.5,0.9c0,0.3-0.3,0.5-0.6,0.5c-1,0-2.7-0.6-3.7-1.3c-1.4-1-2.1-2.4-2.1-4c0-1.5,0.7-3.1,2-4.4
			c0.7-0.8,1.4-1.3,2.9-2.1c-2.2,0.3-6.4,1.5-8,2.4c-0.4,0.2-0.5,0.3-0.7,0.3c-0.4,0-1-0.4-1.4-1.1c-0.3-0.4-0.5-0.9-0.5-1.2
			c0-0.1,0-0.3,0.2-0.5C235.5,207.4,235.6,207.6,235.9,207.9z M246.6,209.5c0.7,0.4,1.2,0.7,1.6,1.1c0.6,0.6,0.9,1,0.9,1.4
			c0,0.4-0.3,0.8-0.6,0.8c-0.2,0-0.2,0-0.8-1.2c-0.3-0.6-0.9-1.4-1.4-1.9L246.6,209.5z M248.5,208.4c0.6,0.3,1.2,0.6,1.7,1
			c0.7,0.5,0.9,0.9,0.9,1.4c0,0.4-0.2,0.7-0.5,0.7c-0.2,0-0.3-0.1-0.4-0.3c-0.6-1.1-1-1.6-2-2.6L248.5,208.4z"/>
		<path class="st0" d="M194.2,156.4c0,0.3-0.2,0.3-0.8,0.3c-0.4,0-0.5,0-0.5-0.2c0.1-2.7,0.1-4.6,0.1-7.9c0-4.3,0-6.4-0.1-7.4
			c0.6,0.4,0.8,0.5,1.4,0.9h1.6c0.3-0.3,0.4-0.5,0.7-0.8c0.4,0.3,0.6,0.4,1,0.8c0.1,0.1,0.2,0.2,0.2,0.2c0,0.1-0.1,0.2-0.5,0.4
			l0,5.9c0,4,0,5.4,0,6.9c0,0.3-0.1,0.3-0.8,0.3c-0.3,0-0.3,0-0.3-0.2v-0.8h-1.8V156.4z M196.1,142.5h-1.8v3.5h1.8V142.5z
			 M194.2,146.5v3.6h1.8v-3.6H194.2z M194.2,150.5v3.9h1.8v-3.9H194.2z M196.4,157.2c1.9-1.1,2.7-2,3.4-3.4c0.5-1.1,0.8-2.1,0.8-3.7
			c-0.6,0.5-1.3,1-2.2,1.6c-0.1,0.7-0.1,0.8-0.3,0.8c-0.2,0-0.2,0-0.8-1.9c0.9-0.1,2.2-0.5,3.3-1c0-1.5,0-2.6,0-4.1
			c0-2.9,0-3.5-0.1-4.2c1.8,0.2,1.9,0.3,1.9,0.4c0,0.1-0.2,0.2-0.7,0.4c0,0.3,0,1.7,0,1.9c0,0.7-0.1,5-0.1,5.5
			c-0.1,2.6-0.5,4-1.5,5.3c-0.9,1.1-2,1.9-3.8,2.7L196.4,157.2z M197.8,143.9c1.3,1,2.2,2,2.2,2.6c0,0.5-0.4,1.2-0.7,1.2
			c-0.2,0-0.2-0.1-0.4-0.8c-0.3-1.1-0.6-1.8-1.3-2.9L197.8,143.9z M204.8,146.7c1.1-1.2,1.8-2.3,2.2-3.2c1.4,0.6,1.8,0.8,1.8,1
			c0,0.2-0.3,0.2-0.9,0.2c-1.4,1.3-1.9,1.7-3,2.4v1.9c0.7,0.2,1.8,0.7,2.3,0.9c0.4,0.2,0.8,0.5,0.9,0.7c0.1,0.1,0.2,0.5,0.2,0.8
			c0,0.5-0.2,0.9-0.4,0.9c-0.1,0-0.2-0.1-0.4-0.3c-0.7-1-1.5-1.9-2.5-2.6v5.9c0,0.5,0,0.5,0.6,0.5c0.1,0,0.3,0,0.6,0
			c0.1,0,0.2,0,0.2,0c0.9,0,1.1,0,1.2-0.3c0.1-0.2,0.2-0.5,0.8-3.2l0.3,0l-0.1,2.7c0,0,0,0.1,0,0.1c0,0.2,0,0.3,0.2,0.4
			c0.4,0.2,0.4,0.3,0.4,0.5c0,0.5-0.7,0.7-2.7,0.7c-1.9,0-2.2,0-2.4-0.2c-0.3-0.2-0.4-0.4-0.4-1c0-1.5,0-1.7,0-2.1V143
			c0-0.9,0-1.2-0.1-1.8c1.9,0.3,2,0.3,2,0.5c0,0.1-0.1,0.2-0.7,0.4V146.7z"/>
		<path class="st0" d="M195.6,164.2c0.7,0.5,1.1,1,1.4,1.5c0.2,0.3,0.4,1,0.6,1.9c1.2-0.7,2.2-0.9,3.8-1.1c0.2-0.9,0.3-1.6,0.3-2.1
			c0-0.5-0.2-0.6-0.8-0.6c-0.1,0-0.2,0-0.3,0l-0.1-0.2c0.5-0.2,0.9-0.3,1.2-0.3c0.7,0,1.4,0.6,1.4,1.1c0,0.3-0.3,1.4-0.5,2.1
			c3,0.1,5,2.1,5,4.8c0,2-1.2,3.7-3.3,4.8c-1.1,0.6-2.1,0.9-3.5,1l-0.1-0.3c1.5-0.5,2.5-1,3.5-1.8c1.3-1.1,2-2.6,2-4.1
			c0-1.4-0.6-2.5-1.5-3.2c-0.6-0.5-1.3-0.6-2.3-0.7c-0.7,2-1.9,4.2-3,5.6c0.3,0.4,0.3,0.5,0.6,0.9c0.5,0.6,0.6,0.7,0.6,0.9
			c0,0.2-0.2,0.4-0.4,0.4c-0.4,0-1-0.5-1.5-1.3c-0.3,0.4-0.7,0.8-1.4,1.3c-0.6,0.5-1,0.6-1.4,0.6c-0.4,0-0.6-0.2-0.8-0.9
			c-0.2-0.6-0.2-0.7-0.5-1.2c-0.3-0.4-0.4-0.7-0.4-1.1c0-1.4,1-3,2.8-4.2c-0.3-2.1-0.5-2.6-1.4-3.7L195.6,164.2z M195.5,170.4
			c-0.4,0.7-0.6,1.4-0.6,2.1c0,0.8,0.5,1.7,0.9,1.7c0.4,0,1.3-0.6,2.2-1.5c-0.5-1.2-0.7-2-1.1-3.9
			C196.2,169.4,195.9,169.8,195.5,170.4z M198.8,171.7c1-1.4,1.8-3,2.4-4.8c-1.5,0.2-2.4,0.5-3.5,1.3
			C198.2,170.3,198.4,170.8,198.8,171.7z"/>
		<path class="st0" d="M200.5,197.4c1.9-0.6,3.2-1.3,4.2-2.5c1.1-1.2,1.6-2.7,1.6-4.3c0-1.7-0.7-3.1-2-4c-0.8-0.5-2-0.8-3.1-0.8
			c-0.2,0-0.3,0-0.6,0c0.4,0.6,0.6,1,0.6,1.5c0,1.4-1,4-2.4,6.2c-1.1,1.8-2,2.7-2.7,2.7c-0.3,0-0.6-0.1-0.8-0.4
			c-0.2-0.2-0.2-0.3-0.5-1.2c-0.2-0.5-0.3-0.7-0.8-1.7c-0.3-0.6-0.4-1.1-0.4-1.6c0-1.1,0.6-2.5,1.6-3.6c1.5-1.5,3.8-2.5,6.2-2.5
			c1.8,0,3.5,0.6,4.6,1.7c1.2,1.1,1.7,2.5,1.7,4.2c0,2.3-1.3,4.2-3.6,5.5c-1,0.6-2,0.8-3.5,1.1L200.5,197.4z M194.6,191.8
			c0,0.9,0.3,1.7,0.7,2.4c0.3,0.3,0.5,0.5,0.7,0.5c0.4,0,1.3-1,2.1-2.4c1.3-2.1,2.3-4.4,2.3-5.6c0-0.3-0.1-0.4-0.3-0.9
			C197,186.4,194.6,189,194.6,191.8z"/>
		<path class="st0" d="M192.4,216.1c1.8-1.4,3.3-3.2,4.4-5c0.6-1,0.7-1.4,0.7-1.8c0-0.3-0.2-0.6-0.9-1c0.2-0.1,0.3-0.1,0.4-0.1
			c0.3,0,1,0.3,1.5,0.6c0.6,0.4,0.9,0.7,0.9,1c0,0.2,0,0.2-0.4,0.5c-0.2,0.1-0.2,0.2-0.6,0.7c-1.5,2-2.1,2.6-3.8,3.9
			c-0.8,0.6-1.4,1-2.1,1.3L192.4,216.1z M202.1,208.2c1.9,1.1,3.6,2.6,4.7,4.2c0.6,0.8,0.8,1.3,0.8,1.9c0,0.8-0.3,1.3-0.7,1.3
			c-0.3,0-0.3-0.1-0.6-0.8c-0.9-2.4-2.4-4.6-4.4-6.4L202.1,208.2z M204.3,205.6c0.7,0.4,1.2,0.7,1.6,1.1c0.6,0.6,0.9,1,0.9,1.4
			s-0.3,0.8-0.6,0.8c-0.2,0-0.2,0-0.8-1.2c-0.3-0.6-0.9-1.4-1.4-1.9L204.3,205.6z M206.1,204.6c0.6,0.3,1.2,0.6,1.7,1
			c0.7,0.5,0.9,0.9,0.9,1.4c0,0.4-0.2,0.7-0.5,0.7c-0.2,0-0.3-0.1-0.4-0.3c-0.6-1.1-1-1.6-2-2.6L206.1,204.6z"/>
		<path class="st0" d="M193.4,238.8c1.7-1.1,3.5-2.5,4.8-3.9c1.1-1.1,2.4-2.8,3.4-4.5c0.6-0.9,0.9-1.5,1.2-2.3
			c-0.9,0.1-1.8,0.3-3.8,0.8c-0.9,0.2-0.9,0.3-1.5,0.5c-0.1,0-0.2,0.1-0.3,0.1c-0.4,0-0.8-0.3-1.2-1c-0.3-0.4-0.4-0.8-0.4-1.1
			c0-0.1,0-0.2,0.1-0.4c0.5,0.9,0.9,1.2,1.7,1.2c0.6,0,2.4-0.2,3.8-0.5c1-0.2,1.4-0.3,1.7-0.5c0.2-0.1,0.3-0.2,0.4-0.2
			c0.4,0,1.4,0.9,1.4,1.3c0,0.1-0.1,0.2-0.2,0.3c-0.4,0.3-0.4,0.3-1,1.2c-0.9,1.3-0.9,1.3-2.3,3.1c2.5,1.3,4,2.3,4.7,3
			c0.5,0.5,0.7,1,0.7,1.8c0,0.6-0.2,0.9-0.5,0.9c-0.1,0-0.3-0.1-0.4-0.3c-0.1-0.1-0.1-0.1-0.4-0.7c-0.9-1.5-2.4-3.1-4.3-4.4
			c-1.5,1.8-2.6,2.9-4.4,4.1c-1.1,0.8-1.9,1.2-3.2,1.8L193.4,238.8z"/>
		<path class="st0" d="M194.9,260.9c1.7-1.1,2.3-1.6,3.4-2.5c1.3-1.2,2.2-2.1,3-3.3c-0.3-0.1-0.4-0.1-0.8-0.7
			c-0.8-1.1-1.4-1.8-2.5-2.7c-1.3,1.3-2.2,2-3.3,2.7l-0.2-0.3c1.3-1.1,2.4-2.3,3.5-3.7c1.1-1.5,1.8-2.7,1.8-3.1
			c0-0.4-0.3-0.7-1.2-1.1c0.2-0.1,0.3-0.1,0.4-0.1c0.4,0,1.1,0.2,1.6,0.5c0.5,0.3,0.7,0.5,0.7,0.8c0,0.3-0.2,0.5-0.8,1.4
			c0.2,0.1,0.3,0.1,0.5,0.1c0.4,0,1-0.1,2.4-0.4c0.9-0.2,1.1-0.3,1.4-0.5c0.1-0.1,0.2-0.1,0.3-0.1c0.2,0,0.5,0.2,1,0.6
			c0.3,0.3,0.5,0.6,0.5,0.7c0,0.1-0.1,0.2-0.3,0.4c-0.2,0.2-0.3,0.3-0.6,0.8c-1.9,3.5-3.7,5.9-6.1,7.9c-1.5,1.3-3.1,2.2-4.6,2.9
			L194.9,260.9z M203.5,249.1c-1.5,0.4-1.5,0.4-1.7,0.4c-0.3,0.1-0.4,0.1-0.6,0.1c-0.3,0-0.6-0.1-1.1-0.5c-0.7,0.9-1.2,1.5-1.9,2.3
			c1.3,0.6,1.3,0.6,1.7,0.8c0.8,0.4,1.2,0.8,1.6,1.4c0.2,0.3,0.2,0.4,0.2,0.8c1.3-1.7,2.5-3.9,3.1-5.6
			C204.4,248.9,204.1,248.9,203.5,249.1z"/>
		<path class="st0" d="M193.4,277c2.3-1.2,4.7-3,6.8-5.1c1.8-1.7,2.9-3.2,2.9-3.7c0-0.3-0.3-0.6-1-1c0.2-0.1,0.2-0.1,0.4-0.1
			c0.5,0,1,0.2,1.5,0.5c0.6,0.4,0.9,0.8,0.9,1.2c0,0.2,0,0.2-0.7,0.8c-0.2,0.1-0.2,0.1-1.5,1.4c-1.3,1.2-1.4,1.3-2.1,1.9
			c0.7,0.5,1,0.8,1.1,1c0.1,0.2,0.1,1,0.1,2.6c0,1.3,0.1,2.4,0.1,3.4c0,0.4,0,0.9,0,1c0,0.6-0.1,0.9-0.4,0.9c-0.4,0-1.2-1-1.2-1.5
			c0-0.1,0-0.1,0.1-0.5c0.2-0.5,0.3-2.7,0.3-4.4c0-0.9,0-1.4-0.1-1.7c-0.1-0.2-0.1-0.3-0.4-0.6c-1.3,1-2.6,1.9-3.5,2.5
			c-1,0.6-2.3,1.2-3.2,1.6L193.4,277z"/>
		<path class="st0" d="M202.6,294.3c2.7,2.3,4.2,4.1,4.2,5.3c0,0.7-0.4,1.5-0.8,1.5c-0.1,0-0.3-0.1-0.3-0.3
			c-0.1-0.1-0.1-0.1-0.3-0.9c-0.2-0.5-0.2-0.7-0.4-1.1c-1.4,0.4-4,0.9-6.7,1.4c-1.5,0.3-1.9,0.4-2.3,0.6c-0.2,0.1-0.3,0.1-0.4,0.1
			c-0.3,0-0.5-0.2-0.8-0.6c-0.5-0.7-0.8-1.3-0.8-1.8c0-0.2,0-0.3,0.1-0.5c0.5,1,0.8,1.2,1.6,1.2c0.1,0,0.2,0,0.4,0
			c0.5-1,1.5-3.4,2.3-5.4c0.9-2.2,1.2-3.5,1.2-4c0-0.5-0.3-0.8-1.1-1.2c0.2-0.1,0.3-0.1,0.5-0.1c0.4,0,1,0.2,1.6,0.6
			c0.6,0.4,0.8,0.7,0.8,1c0,0.2,0,0.2-0.3,0.5c-0.2,0.2-0.5,0.8-0.8,1.5c-1.3,2.6-2.7,5.3-3.7,7c2.4-0.2,5.9-0.6,8-0.9
			c-0.3-0.6-0.5-1.1-1.1-2c-0.3-0.5-0.4-0.6-1.4-1.9L202.6,294.3z"/>
		<path class="st0" d="M194.4,311.1c0.9,0.7,1.3,0.8,2.3,0.8c0.6,0,1.1-0.1,1.9-0.2c0.4-0.8,0.6-1.4,0.6-1.8c0-0.5-0.3-0.8-1.3-1
			c0.3-0.2,0.5-0.2,0.8-0.2c0.4,0,0.9,0.1,1.4,0.3c0.5,0.2,0.6,0.4,0.6,0.6c0,0.1-0.1,0.3-0.3,0.5c-0.2,0.2-0.4,0.5-0.5,0.7
			c-0.3,0.5-0.3,0.5-0.5,0.7c1.5-0.4,2-0.6,2.6-1.2c0.1-0.1,0.2-0.1,0.3-0.1c0.7,0,1.2,0.3,1.2,0.6c0,0.2-0.2,0.4-0.8,0.6
			c-1.6,0.5-2.5,0.7-3.9,1c-0.3,0.5-0.5,0.8-1,1.4c-0.5,0.8-0.6,1-1,1.4c1-0.5,1.6-0.7,2.3-0.7c1.1,0,1.9,0.7,2,1.8
			c0.3-0.1,0.3-0.1,1.8-0.9c1.8-0.9,2.2-1.2,2.2-1.5c0-0.3-0.3-0.6-0.8-0.8c0.2-0.1,0.3-0.1,0.4-0.1c0.8,0,2,1.1,2,1.8
			c0,0.3-0.1,0.5-0.6,0.6c-1.1,0.3-3.4,1.2-4.8,1.9c0,0.6,0,0.7,0,1.5c0,0.8-0.1,1.4-0.1,1.5c-0.1,0.2-0.3,0.3-0.5,0.3
			c-0.3,0-0.6-0.2-0.6-0.5c0-0.1,0-0.2,0-0.3c0.1-0.5,0.1-1.1,0.1-1.9c-1.1,0.6-1.6,1-2.1,1.4c-0.6,0.6-0.9,1.1-0.9,1.7
			c0,1,1,1.4,3,1.4c1.3,0,2.5-0.2,3.6-0.5c0.1,0,0.3-0.1,0.3-0.1c0.6,0,1.3,0.5,1.3,0.9c0,0.2-0.2,0.4-0.6,0.5
			c-0.7,0.1-2.1,0.3-3.2,0.3c-1.7,0-2.9-0.2-3.7-0.5c-0.9-0.4-1.3-1-1.3-1.9c0-0.8,0.4-1.6,1.3-2.5c0.5-0.5,1-0.9,2.2-1.6
			c0-0.8-0.1-1-0.3-1.4c-0.2-0.3-0.5-0.5-0.9-0.5c-1.2,0-2.6,1-3.9,2.6c-0.3,0.5-0.5,0.6-0.7,0.6c-0.3,0-0.5-0.4-0.5-1
			c0-0.4,0-0.4,0.5-0.8c1.3-1,2.1-1.9,3.3-3.9c-0.6,0.1-0.8,0.1-1.2,0.1c-1.2,0-1.9-0.3-2.7-1.4L194.4,311.1z"/>
	</g>
</g>
<g>
	<rect x="67.9" class="st1" width="55" height="292.8"/>
	<rect x="4.8" y="60" class="st1" width="55" height="449.8"/>
	<line class="st2" x1="95.6" y1="0" x2="95.6" y2="30"/>
</g>
<g>
	<path class="st3" d="M91.8,78.6c2.4-1.5,4.3-3.6,5.4-5.7c1-2.1,1.4-4.5,1.6-9c-2.1,0.1-4.5,0.4-6.2,0.8c0,0.3,0,0.3,0,1
		c0,0.1,0,1.2,0.1,3.2c0,0.1,0,0.5,0,1.1c0,0.3,0,0.5,0,0.7c0,1-0.3,1.5-0.7,1.5c-0.5,0-1.4-1.4-1.4-2.2c0-0.2,0-0.3,0.1-0.6
		c0.1-0.3,0.2-0.8,0.3-1.3c0-0.3,0.1-1.3,0.1-3c-1.5,0.3-2.5,0.6-3.6,1.1c-0.4,0.2-0.8,0.3-1,0.3c-0.9,0-2.5-1.9-2.5-3
		c0-0.1,0-0.1,0.1-0.3c0.8,0.9,1.5,1.3,2.3,1.3c0.3,0,1.1-0.1,2-0.2c0.8-0.1,0.8-0.1,1.8-0.3c0.6-0.1,0.6-0.1,0.9-0.2
		c0-1.3-0.2-3.1-0.4-3.8c-0.2-0.5-0.5-1-0.9-1.3c-0.1-0.1-0.3-0.2-0.8-0.4c0.2-0.2,0.3-0.2,0.6-0.2c0.6,0,1.6,0.4,2.4,0.9
		c0.7,0.4,1,0.8,1,1.3c0,0.2,0,0.3-0.1,0.6c-0.1,0.4-0.3,1.6-0.3,2.7c2.4-0.3,2.4-0.3,6.3-0.8c0-0.7,0-0.8,0-1.8
		c0-2.2-0.1-3.1-0.5-3.6c-0.4-0.5-1-0.8-1.9-1c0.4-0.2,0.7-0.3,1.1-0.3c0.7,0,1.8,0.3,2.7,0.6c0.6,0.3,1,0.7,1,1.1
		c0,0.1,0,0.2-0.1,0.5c-0.3,0.8-0.5,2.2-0.5,4.3c2.2-0.2,2.7-0.3,3.4-0.6c0.4-0.2,0.5-0.2,0.8-0.2c0.9,0,2.5,1.1,2.5,1.7
		c0,0.3-0.3,0.5-0.6,0.5c-0.1,0-0.3,0-0.5,0c-1.1-0.1-2.4-0.2-3.3-0.2c0,0-0.3,0-1,0c-0.9,0-0.9,0-1.3,0c-0.2,5.3-0.7,7.8-1.9,9.9
		c-1.3,2.2-3.8,4.2-6.4,5.3L91.8,78.6z"/>
	<path class="st3" d="M86.8,95.5c2.7,0.7,4.3,1.3,5.4,2.1c0.6,0.4,1,1.1,1,1.9c0,0.9-0.3,1.6-0.8,1.6c-0.3,0-0.4-0.1-1.2-1.1
		c-1.4-1.8-2.4-2.7-4.6-4.1L86.8,95.5z M106.7,97.1c-1.4,2.6-3.1,4.8-5.9,7.5c-2.6,2.5-4.3,3.9-7.9,6.4c-1.3,0.9-1.5,1-1.7,1.3
		c-0.4,0.5-0.6,0.7-1,0.7c-1.1,0-3.3-2.7-3.3-4.1c0-0.2,0-0.3,0.1-0.6c0.6,0.8,0.6,0.9,1,1.2c0.4,0.4,0.8,0.6,1.1,0.6
		c0.5,0,1.3-0.4,2.7-1.2c3.1-1.8,4.2-2.6,6.7-4.6c3.4-2.8,5.1-4.5,7.5-7.5L106.7,97.1z"/>
	<path class="st3" d="M84.3,149.5c1.5-1.4,2.7-3.1,3.8-5.3c1.1-2.2,1.9-5.7,1.9-7.6c0-1.1-0.5-1.7-1.9-2.2c0.3-0.2,0.4-0.3,0.8-0.3
		c0.6,0,1.3,0.2,2.1,0.7c1,0.6,1.5,1.1,1.5,1.5c0,0.2-0.1,0.4-0.4,1.3c0,0.1,0,0.1-0.3,1c-0.9,2.9-1.1,3.6-1.9,5.2
		c-1.3,2.7-2.9,4.5-5.3,6L84.3,149.5z M108.2,138.3c-0.9,1.5-1.6,2.4-3.1,3.9c-1.6,1.7-4.2,4-5.9,5.1c-0.5,0.4-1.3,1-1.6,1.3
		c-0.2,0.2-0.4,0.3-0.6,0.3c-0.6,0-1.7-1.5-1.7-2.3c0-0.1,0.1-0.3,0.2-0.9c0.2-0.6,0.3-3.1,0.3-7.6c0-6.4-0.1-6.7-2.2-7.2
		c0.3-0.3,0.5-0.4,0.9-0.4c0.7,0,1.5,0.3,2.5,0.9c0.8,0.5,1.1,0.9,1.1,1.3c0,0.1,0,0.3-0.2,0.8c-0.1,0.4-0.3,1.3-0.4,2.7
		c-0.1,1.2-0.4,7.4-0.4,8.4c0,0.4,0,0.7,0.1,1.3c3.2-1.3,7.4-4.4,10.6-7.9L108.2,138.3z"/>
	<path class="st3" d="M94.9,169.7c0-2-0.1-2.6-0.4-3.1c-0.3-0.4-0.8-0.7-1.5-1c0.2-0.3,0.5-0.4,0.9-0.4c0.6,0,1.6,0.3,2.5,0.8
		c0.9,0.5,1.2,0.8,1.2,1.2c0,0.3-0.1,0.4-0.4,0.9c-0.3,0.4-0.3,1.7-0.3,12.3c0,5.9-0.2,6.9-1.1,6.9c-0.3,0-0.4-0.2-0.6-0.6
		c-0.2-0.4-0.3-1.4-0.3-3.5L94.9,169.7z"/>
	<path class="st3" d="M98.8,211.2c4.2,3.5,6.6,6.4,6.6,8.3c0,1.1-0.6,2.3-1.2,2.3c-0.2,0-0.4-0.1-0.5-0.4c-0.1-0.2-0.1-0.2-0.4-1.3
		c-0.3-0.8-0.4-1.1-0.7-1.8c-2.2,0.6-6.3,1.4-10.4,2.2c-2.4,0.5-3,0.6-3.5,0.9c-0.3,0.2-0.4,0.2-0.6,0.2c-0.4,0-0.8-0.3-1.3-0.9
		c-0.8-1.1-1.2-2.1-1.2-2.8c0-0.3,0-0.4,0.2-0.8c0.7,1.5,1.3,1.9,2.5,1.9c0.1,0,0.3,0,0.7-0.1c0.8-1.6,2.4-5.3,3.6-8.3
		c1.3-3.5,1.9-5.4,1.9-6.2c0-0.7-0.5-1.3-1.7-1.8c0.3-0.2,0.4-0.2,0.8-0.2c0.6,0,1.6,0.4,2.4,0.9c0.9,0.6,1.3,1.1,1.3,1.5
		c0,0.3,0,0.3-0.4,0.8c-0.3,0.3-0.7,1.2-1.3,2.3c-2,4-4.2,8.3-5.8,10.9c3.7-0.3,9.2-0.9,12.5-1.5c-0.4-0.9-0.8-1.7-1.7-3.1
		c-0.4-0.7-0.6-1-2.1-2.9L98.8,211.2z"/>
	<path class="st3" d="M106.4,247.7v0.7c-0.8,0.1-1.2,0.2-1.6,0.4c-0.3,0.2-0.5,0.6-0.8,1.1c-0.1,0.1-0.1,0.1-0.7,1.6
		c-0.3,0.8-1.1,2.2-1.7,3.1l1.9,2c1.5,1.5,2.2,1.9,3.4,1.9v0.7h-4.3l-2.5-2.8c-2.2,2.2-4.2,3.2-6.9,3.2c-1.8,0-3.5-0.5-4.6-1.4
		c-1-0.8-1.6-2.4-1.6-3.9c0-2.8,1.5-4.6,5.2-6.2c-2-2-2.7-3.4-2.7-5c0-2.6,2.3-4.5,5.4-4.5c1.5,0,3,0.5,4,1.3
		c0.8,0.7,1.3,1.8,1.3,2.8c0,2.1-1.6,3.6-5.2,5l6,6.3c1-1.6,1.7-3.4,1.7-4.5c0-0.8-0.5-1-2-1.1v-0.7H106.4z M92.8,248.7
		c-0.9,0.4-1.3,0.7-1.8,1.3c-0.8,1-1.3,2.4-1.3,3.8c0,2.8,1.8,4.7,4.4,4.7c2.1,0,4-1,5.5-2.8L92.8,248.7z M98.2,242.6
		c0-2-1.3-3.2-3.3-3.2c-1.9,0-3.2,1.2-3.2,3.1c0,1.1,0.4,2,1.4,3.3c0.3,0.4,1.2,1.4,1.3,1.4C97.2,245.9,98.2,244.7,98.2,242.6z"/>
	<path class="st3" d="M26.2,115.1c1.8-2.1,3-4,4-6.6c0.8-2,1.3-4.4,1.3-5.7c0-0.7-0.2-1-0.7-1.4c-1.8,0.2-4.9,1.1-6.2,1.8
		c-0.5,0.2-0.6,0.3-0.9,0.3c-0.6,0-1.4-0.6-2.2-1.6c-0.3-0.4-0.6-1-0.6-1.2c0-0.1,0-0.2,0.1-0.5c0.7,1,1.3,1.3,2.4,1.3
		c0.8,0,0.9,0,4.8-0.7c1.7-0.3,4.9-0.7,8.6-1c0.6-0.1,1.6-0.3,2.2-0.5c0.4-0.1,0.4-0.1,0.7-0.1c0.4,0,0.9,0.1,1.5,0.4
		c0.8,0.4,1.3,0.9,1.3,1.3c0,0.3-0.3,0.6-0.8,0.6c-0.2,0-0.3,0-0.7-0.1c-1.1-0.2-3-0.4-4.5-0.4c-1.7,0-3.2,0.1-4.6,0.3
		c1.3,0.7,1.8,1.3,1.8,1.9c0,1.1-0.8,3.5-1.8,5.5c-1.5,3.2-2.9,4.9-5.5,6.8L26.2,115.1z M25.6,93.5c1.2,1.1,2,1.5,3.3,1.5
		c1.9,0,4.4-0.6,5.9-1.4c0.3-0.2,0.6-0.2,0.8-0.2c0.7,0,1.9,0.9,1.9,1.5c0,0.3-0.3,0.5-1.5,0.8c-1.8,0.4-4.9,0.7-6.4,0.7
		c-2.1,0-3.2-0.6-4.5-2.6L25.6,93.5z"/>
	<path class="st3" d="M26.5,151.2c2.8-2.1,4.5-3.9,6.4-6.2c2.3-2.9,3.9-5.9,4.7-8.5c-2.7,0.2-5.2,0.6-8.1,1.3
		c-1.8,0.4-2.3,0.6-2.9,0.9c-0.4,0.2-0.6,0.3-0.8,0.3c-1,0-2.6-2-2.6-3.2c0-0.2,0-0.3,0.2-0.5c0.6,1.1,1.4,1.6,2.4,1.6
		c1.1,0,5.8-0.6,9.5-1.2c1.5-0.3,1.7-0.3,2.3-0.6c0.2-0.1,0.3-0.2,0.4-0.2c0.3,0,0.7,0.3,1.3,0.8c0.8,0.7,1.1,1.2,1.1,1.5
		c0,0.2-0.1,0.4-0.4,0.7c-0.4,0.3-0.6,0.5-1,1.5c-3,5.7-7.5,10.2-12.2,12.3L26.5,151.2z M26.1,129.5c1,1.1,1.8,1.5,3,1.5
		c1.9,0,5.3-0.7,6.3-1.3c0.2-0.1,0.4-0.2,0.6-0.2c0.8,0,2.2,1,2.2,1.5c0,0.3-0.3,0.5-1.1,0.6c-3.3,0.5-5.6,0.7-7.1,0.7
		c-2.1,0-2.9-0.5-4.3-2.6L26.1,129.5z"/>
	<path class="st3" d="M20.6,186c2.7-1.7,5.5-3.9,7.5-6.1c1.7-1.8,3.7-4.4,5.3-7c0.9-1.4,1.4-2.3,1.9-3.6c-1.3,0.1-2.8,0.4-5.9,1.2
		c-1.3,0.4-1.5,0.4-2.4,0.8c-0.1,0.1-0.3,0.1-0.5,0.1c-0.6,0-1.2-0.5-1.8-1.6c-0.4-0.6-0.6-1.2-0.6-1.7c0-0.2,0.1-0.3,0.2-0.6
		c0.8,1.5,1.4,1.9,2.6,1.9c0.9,0,3.8-0.4,5.9-0.8c1.6-0.3,2.1-0.5,2.6-0.8c0.3-0.2,0.4-0.3,0.6-0.3c0.6,0,2.2,1.4,2.2,2
		c0,0.2-0.1,0.4-0.4,0.5c-0.6,0.4-0.6,0.4-1.6,1.9c-1.3,2-1.3,2-3.5,4.9c3.9,2.1,6.2,3.5,7.3,4.7c0.8,0.8,1.1,1.6,1.1,2.8
		c0,0.9-0.3,1.5-0.8,1.5c-0.2,0-0.4-0.1-0.6-0.4c-0.1-0.1-0.1-0.1-0.7-1.1c-1.4-2.4-3.8-4.8-6.7-6.9c-2.3,2.7-4.1,4.5-6.8,6.3
		c-1.8,1.2-3,1.9-4.9,2.7L20.6,186z"/>
	<path class="st3" d="M30.7,201.9h-5.3c-1.2,0-2.5,0.1-3.2,0.1l-0.2-1c1.2,0.2,2.2,0.2,3.4,0.2h12.2c0.7-0.8,0.9-1,1.7-1.8
		c1.1,0.9,1.4,1.1,2.5,2c0.1,0.1,0.1,0.2,0.1,0.3c0,0.1-0.1,0.2-0.4,0.2h-9v2h8.7c0.5-0.5,0.7-0.7,1.2-1.1c1,0.7,1.3,0.9,2.3,1.6
		c0.2,0.2,0.3,0.3,0.3,0.4c0,0.3-0.3,0.4-1.7,0.6c-1.2,1.5-1.2,1.5-1.9,2l-0.2-0.1c0.1-0.4,0.3-1.3,0.6-2.7h-9.2v2.7
		c0,0.3,0,1.4,0.1,3.2c-0.1,0.4-0.3,0.5-1.2,0.5c-0.5,0-0.6-0.1-0.7-0.3c0-0.5,0-0.5,0-1.3c0-0.8,0-1,0-1.9v-3.1h-8.6
		c-0.1,1.5-0.4,2.4-0.9,3.2c-0.4,0.7-0.8,1.1-1.3,1.1c-0.2,0-0.4-0.1-0.6-0.5c-0.2-0.4-0.3-0.8-0.3-1.2c0-0.4,0.1-0.4,0.5-0.7
		c0.5-0.3,1-0.9,1.4-1.5c0.4-0.6,0.6-1.1,0.8-2.1h0.4c0,0.5,0,0.6,0,1h8.5V201.9z M26.3,222.4c2.1-0.3,2.6-0.4,4.9-0.8l0.1,0.4
		c-2.9,1-6.2,1.9-10.2,2.7c-0.2,0.9-0.3,1.2-0.5,1.2c-0.1,0-0.2-0.1-0.3-0.3c-0.1-0.1-0.1-0.3-0.2-0.9c-0.2-0.6-0.2-0.9-0.4-1.7
		c0.2,0,0.4,0,0.5,0c0.2,0,0.2,0,1-0.1v-3.3c0-1.2,0-1.3-0.1-2.1c0.9,0.1,2.1,0.3,2.4,0.4c0.2,0,0.3,0.1,0.3,0.2
		c0,0.2,0,0.2-0.9,0.6v4.1c0.6,0,1.2-0.1,2-0.2v-6.8h-2v0.5c-0.1,0.2-0.1,0.2-0.3,0.3c-0.3,0-0.7,0.1-1,0.1c-0.3,0-0.4-0.1-0.4-0.3
		c0.1-1.3,0.1-1.8,0.1-2.6c0-1.3,0-2.8-0.1-3.2c0.8,0.4,1,0.5,1.8,1h4.9c0.4-0.4,0.5-0.6,0.9-1c0.6,0.4,0.8,0.5,1.3,1
		c0.1,0.1,0.2,0.3,0.2,0.3c0,0.2-0.1,0.3-0.8,0.7c0,1.2,0,1.2,0.1,3.6c-0.1,0.1-0.1,0.2-0.2,0.3c-0.1,0.1-0.8,0.1-1.2,0.1
		c-0.1,0-0.2-0.1-0.3-0.2v-0.5h-1.5v2.6h1.5c0.5-0.6,0.6-0.7,1.1-1.3c0.8,0.7,1,0.9,1.8,1.6c0,0.1,0.1,0.1,0.1,0.2
		c0,0.1-0.1,0.2-0.3,0.2h-4.3V222.4z M21.7,209c0.7,0.1,1.3,0.2,2,0.2h2.9c0.5-0.5,0.6-0.7,1.1-1.2c0.8,0.6,1,0.8,1.8,1.5
		c0,0.1,0.1,0.1,0.1,0.2c0,0.1-0.1,0.2-0.2,0.2h-5.6c-0.7,0-1,0-1.8,0.1L21.7,209z M22.5,206.4c0.5,0.1,1.3,0.2,2.1,0.2h2
		c0.5-0.5,0.6-0.7,1.1-1.2c0.7,0.6,0.9,0.8,1.6,1.5c0.1,0.1,0.1,0.2,0.1,0.2c0,0.1-0.1,0.2-0.2,0.2h-4.9c-1.1,0-1.1,0-1.7,0.1
		L22.5,206.4z M22.6,215.2h5.1v-3h-5.1V215.2z M34,225c0,0.3-0.3,0.4-1.3,0.4c-0.4,0-0.5-0.1-0.5-0.3c0.1-2.9,0.1-2.9,0.1-3.7
		c0-0.6,0-1.1,0-1.6c-0.9,0.3-1.4,0.5-2.9,1l-0.2-0.4c2.9-1.2,4.6-2.3,6.9-4.2c-1-0.8-1.4-1.3-2.2-2.4c-1.2,1.5-2.1,2.3-3.9,3.4
		l-0.3-0.3c1.3-1.2,2.1-2.2,3.1-4c0.6-1.1,0.8-1.6,1.1-2.4c2.2,0.4,2.5,0.5,2.5,0.7c0,0.1-0.1,0.2-0.1,0.2c-0.1,0-0.3,0.1-0.8,0.1
		c-0.2,0.4-0.3,0.5-0.5,0.8h4.5c0.5-0.4,0.6-0.6,1.1-1c0.7,0.6,0.9,0.7,1.5,1.3c0.1,0.1,0.2,0.2,0.2,0.3c0,0.2-0.4,0.4-1.1,0.5
		c-1.3,1.4-1.9,1.9-3,2.8c2.2,1.1,4.1,1.6,6.5,1.9l0,0.3c-0.8,0.1-1.2,0.5-1.5,1.4c-1.2-0.4-1.7-0.6-2.5-1c0.6,0.4,0.7,0.5,1.2,1
		c0.1,0.1,0.2,0.2,0.2,0.3c0,0.1-0.1,0.3-0.4,0.4c0,0.4,0,0.7,0,0.9c0,0.1,0,0.2,0,0.3c0,0.1,0,0.7,0.1,1.7c0,0.3,0,0.7,0,1.3
		c-0.1,0.4-0.3,0.5-1.3,0.5c-0.3,0-0.4-0.1-0.5-0.3v-0.8H34V225z M33.4,209c0.7,0.1,1.7,0.2,2.3,0.2h3c0.5-0.6,0.7-0.8,1.2-1.3
		c0.8,0.6,1.1,0.8,2,1.5c0.1,0.1,0.1,0.2,0.1,0.2c0,0.1-0.1,0.2-0.3,0.2h-6c-0.9,0-1.2,0-2.1,0.1L33.4,209z M33.4,206.4
		c0.6,0.1,1.3,0.2,2,0.2h2.3c0.5-0.5,0.7-0.7,1.2-1.2c0.8,0.6,1,0.8,1.7,1.5c0.1,0.1,0.1,0.1,0.1,0.2c0,0.1-0.1,0.2-0.3,0.2h-5
		c-1.1,0-1.2,0-1.9,0.1L33.4,206.4z M34,219.6h5.8c0.1-0.1,0.1-0.2,0.2-0.3c0.2-0.2,0.2-0.3,0.4-0.4c-1.3-0.6-2.1-1.1-3.2-1.8
		c-1.3,1-2.4,1.6-3.8,2.2L34,219.6z M34,223.5h5.9v-3.3H34V223.5z M34.6,213c-0.1,0.2-0.2,0.3-0.3,0.4c0.8,1,1.4,1.5,2.5,2.2
		c1.4-1.2,1.7-1.5,2.5-2.6H34.6z"/>
	<path class="st3" d="M32.4,246.8c0.9,2.7,1.6,4.1,2.9,5.8c1.5,1.9,3.8,3.7,6.1,4.9c1.1,0.5,1.8,0.8,3.5,1.3l-0.1,0.4
		c-1.3,0.2-1.8,0.6-2.2,1.8c-2.2-1.2-3.4-2-4.9-3.5c-2.6-2.5-4.6-5.7-5.4-8.7c-0.1-0.4-0.2-0.8-0.4-1.6c-0.6,3.4-1.6,5.9-3.4,8.1
		c-1.6,1.9-3.8,3.6-6.3,4.7c-1,0.4-1.6,0.6-3.1,1.1l-0.2-0.4c3.5-1.6,5.7-3.2,7.5-5.5c1.9-2.4,3.2-5.2,3.6-8.3h-6
		c-2,0.1-3.2,0.2-3.5,0.2l-0.1-1.1c1.2,0.2,2.1,0.3,3.7,0.3h6.1c0.2-1.9,0.3-3.1,0.3-4.8v-1.9h-7.6c-1.2,0-2.5,0.1-3.4,0.2l-0.2-1.1
		c1.3,0.2,2.1,0.3,3.6,0.3h16.9c0.7-1,0.9-1.3,1.7-2.2c1.3,1.1,1.7,1.4,3,2.5c0.1,0.1,0.1,0.2,0.1,0.2c0,0.1-0.1,0.2-0.3,0.2H32.5
		c0,3.7-0.1,4.2-0.3,6.7h6.7c0.7-0.9,1-1.2,1.7-2c1.2,1,1.6,1.3,2.8,2.3c0.1,0.1,0.1,0.2,0.1,0.2c0,0.1-0.1,0.1-0.3,0.1H32.4z"/>
	<path class="st3" d="M18.9,298.3c1.7-2.8,2.4-4.6,2.9-7.5c0.4-2.4,0.7-5.7,0.7-10.3c0-4.1-0.1-5.9-0.2-7.4c1.1,0.5,1.4,0.7,2.4,1.3
		h13.9c0.4-0.5,0.5-0.7,1-1.2c0.9,0.6,1.1,0.8,1.9,1.4c0.1,0.1,0.1,0.2,0.1,0.2c0,0.2-0.3,0.4-1.1,0.8c0,2.6,0,2.9,0,3.8
		c0,4.1,0.2,7.5,0.6,9.7c0.4,2.1,0.8,3.1,1.9,4.8c0.5-1.4,0.7-2.2,1.4-4.7l0.4,0.1l-0.4,5c0,0.4,0,0.4-0.1,0.9
		c0,0.2,0.1,0.4,0.4,0.8c0.3,0.4,0.4,0.6,0.4,1c0,0.5-0.3,0.8-0.8,0.8c-0.6,0-1.2-0.4-2-1.3c-2-2.2-3-4.9-3.4-8.7
		c-0.3-2.7-0.4-6.4-0.4-9.6c0-1,0-1.7,0.1-3.1H24.4c0,1.5,0,1.5-0.1,8c0,4.7-0.6,8-2,11.1c-0.8,1.8-1.5,2.7-3.1,4.5L18.9,298.3z
		 M32.4,288.9v4.6c1.8-0.3,1.8-0.3,3.7-0.7c-0.4-0.7-0.6-0.8-1.6-2.3l0.3-0.2c1.3,0.9,2.1,1.5,3,2.4c1,1,1.4,1.5,1.4,2.1
		c0,0.5-0.3,1.3-0.5,1.7c-0.1,0.1-0.3,0.2-0.4,0.2c-0.3,0-0.4-0.1-0.8-1.1c-0.3-0.7-0.4-1.1-1-2.1c-2.3,0.7-7.7,2.3-10.4,3
		c-0.1,0.6-0.3,1-0.4,1c-0.3,0-0.4-0.3-1.2-2.8c1.6-0.1,4.7-0.5,6.3-0.9v-4.9h-3v1.1c0,0.2-0.1,0.3-0.2,0.3c-0.1,0-1,0.1-1.3,0.1
		c-0.2,0-0.3-0.1-0.3-0.3c0.1-1,0.1-1.7,0.1-2.8c0-2.7-0.1-5.2-0.1-6c0.9,0.4,1.2,0.6,2.1,1.2h2.8v-3.2c-2,0.3-3.2,0.4-5.1,0.6
		l-0.1-0.4c2.2-0.4,4.5-1,6.7-1.7c1.6-0.5,2.5-0.9,3.2-1.5c0.4,0.3,0.8,0.5,1,0.6c0.8,0.6,1.3,0.9,1.3,1.1c0,0.1-0.2,0.3-0.4,0.3
		c-0.1,0-0.1,0-0.6-0.1c-0.4-0.1-0.4-0.1-0.8-0.1c-3.1,0.8-3.1,0.8-3.6,0.9v3.5h2.8c0.4-0.5,0.5-0.6,1-1.1c0.8,0.6,1,0.7,1.6,1.3
		c0.1,0.1,0.2,0.2,0.2,0.3c0,0.1-0.2,0.3-0.9,0.7c0,0.7,0,0.7,0.1,3.1c0,1.7,0,1.7,0,2.7c0,0.2-0.1,0.3-0.3,0.3
		c-0.3,0.1-0.7,0.1-0.9,0.1c-0.3,0-0.4-0.1-0.5-0.3v-0.6H32.4z M30.7,283.1h-3v5.1h3V283.1z M35.4,283.1h-3v5.1h3V283.1z"/>
	<path class="st3" d="M32.9,318.7c-1.4,3-1.8,3.7-2.6,4.9h9.3c0.6-0.6,0.7-0.8,1.3-1.3c0.8,0.6,1,0.8,1.6,1.3
		c0.2,0.2,0.3,0.3,0.3,0.4c0,0.2-0.2,0.3-0.9,0.7c0,0.6,0,1,0,1.4c0,1.8,0.1,5.4,0.1,7.5c0,0.3-0.1,0.4-0.4,0.5
		c-0.3,0.1-0.9,0.2-1.2,0.2c-0.3,0-0.4-0.1-0.5-0.4v-1.4H23.9v1.3c0,0.4-0.3,0.6-1.1,0.6c-0.2,0-0.3,0-0.4,0c0,0-0.1,0-0.1,0
		c-0.3,0-0.4-0.1-0.5-0.4v-1c0-0.6,0-0.6,0-2.2l0-2.4c0-2.6,0-5-0.1-6.2c1.1,0.6,1.4,0.8,2.4,1.4h5.4c0.5-2.1,0.6-3.1,0.8-4.9h-4.3
		v1.1c0,0.3-0.1,0.3-0.3,0.4c-0.2,0.1-0.9,0.1-1.3,0.1c-0.3,0-0.4-0.1-0.5-0.4c0.1-2,0.1-3,0.1-5.2c0-3.1,0-3.9-0.1-5.3
		c1.1,0.6,1.4,0.8,2.4,1.5h11.1c0.5-0.6,0.7-0.8,1.1-1.3c0.8,0.6,1.1,0.8,1.8,1.4c0.2,0.2,0.2,0.3,0.2,0.3c0,0.2-0.2,0.3-1,0.8
		c0,0.6,0,1,0,1.4c0,1.9,0,5,0.1,6.2c-0.1,0.4-0.3,0.5-1,0.5c-0.2,0-0.4,0-0.4,0c-0.1,0-0.1,0-0.1,0c-0.3,0-0.4-0.1-0.4-0.3v-1.3
		H32.9z M23.9,331.8h16.1v-7.5H23.9V331.8z M26.1,318.1h11.7v-6.4H26.1V318.1z"/>
	<path class="st3" d="M19.3,360.2c1.8-2.6,3.2-5.1,4.7-8.6c1.1-2.5,1.5-4,1.9-6.1c1.1,0.3,2.6,0.7,3.1,0.9c0.2,0.1,0.3,0.2,0.3,0.3
		c0,0.3-0.3,0.4-1.4,0.6c-1,2.8-2,4.6-3.8,7.4c2,0.3,2.4,0.4,2.4,0.6c0,0.2-0.1,0.3-0.9,0.6v7.6c0,3.7,0,3.7,0.1,6.9
		c0,0.4-0.3,0.5-1.1,0.6c-0.3,0-0.4,0-0.5,0s-0.1,0-0.1,0c-0.3,0-0.5-0.1-0.5-0.4c0,0,0,0,0-0.1c0.1-3.2,0.1-4.9,0.1-6.9v-8.3
		c-1.8,2.7-2.5,3.6-3.9,5L19.3,360.2z M28.7,354c-0.5,0-1,0-2.2,0.1l-0.2-1c1.2,0.1,1.8,0.2,2.4,0.2h9.2v-4.7c0-1.4,0-1.8-0.2-3
		c2.5,0.3,3.3,0.5,3.3,0.8c0,0.2-0.4,0.4-1.2,0.7v6.2h0.8c0.7-1,0.9-1.2,1.6-2.1c1.1,0.9,1.5,1.2,2.5,2.2c0.1,0.1,0.1,0.2,0.1,0.3
		c0,0.1-0.2,0.3-0.3,0.3h-4.7v8.1c0,1.8,0,4.6,0.1,6.2c-0.1,0.8-0.2,1.2-0.8,1.6c-0.5,0.4-1,0.5-3,0.9c-0.3-1.4-0.5-1.5-5-2.3l0-0.4
		c0.8,0.1,1.6,0.1,2,0.1c2.4,0.1,2.5,0.1,4,0.2c0.5,0,0.6-0.2,0.6-0.6V354H28.7z M29,356.7c1.5,0.9,2.7,1.8,4,3.1c1,1,1.3,1.4,1.3,2
		c0,0.7-0.7,1.9-1.1,1.9c-0.3,0-0.5-0.2-0.7-0.8c-1-2.5-2.1-4.3-3.7-5.9L29,356.7z"/>
	<path class="st3" d="M26.7,389.9H28c0.6-0.8,0.8-1,1.4-1.8c1,0.8,1.2,1.1,2.2,2c0.1,0.1,0.2,0.2,0.2,0.3c0,0.1-0.1,0.2-0.3,0.2
		h-4.8v2.6c1.3,0.6,2.1,1.1,3,1.7c1.2,0.9,1.5,1.3,1.5,2.1c0,1-0.3,1.8-0.7,1.8c-0.2,0-0.3-0.1-0.5-0.5c-1-2.1-1.9-3.3-3.4-4.5v4.3
		c0,6.7,0,6.7,0,8.6c0,0.2-0.1,0.3-0.2,0.3c-0.1,0-1.1,0.1-1.5,0.1c-0.2,0-0.3-0.1-0.3-0.3c0-1.4,0.1-1.7,0.1-3.1
		c0.1-3.7,0.1-4.2,0.1-5.7l0.2-4.9c-1.7,3.7-2.9,5.3-5.8,8.5l-0.3-0.2c1.8-2.6,2.6-3.9,3.6-5.9c0.8-1.7,0.8-1.7,2.1-5.1h-3.4
		c-0.5,0-1.1,0.1-1.7,0.2l-0.2-1.1c0.8,0.2,1.2,0.3,2.2,0.3h3.3v-4.3c-2,0.4-2.8,0.6-4.8,0.8l-0.2-0.4c2.7-0.7,4.1-1.2,6.2-2.1
		c1.9-0.8,2.6-1.1,3.5-1.8c2.4,1.7,2.4,1.7,2.4,1.8c0,0.2-0.2,0.3-0.5,0.3c-0.1,0-0.5-0.1-1-0.1c-1.6,0.6-2.2,0.7-3.8,1.1V389.9z
		 M34.4,405.8c0,0.1,0,0.1,0,0.1c0,0.3-0.3,0.4-0.9,0.4c-0.3,0-0.4,0-0.5,0c0,0-0.1,0-0.1,0c-0.3,0-0.4-0.1-0.4-0.4
		c0.1-2.8,0.1-3.9,0.1-7.3c0-9.3,0-11.8-0.1-13.6c1,0.6,1.2,0.8,2.2,1.4h6.4c0.5-0.6,0.7-0.7,1.2-1.3c0.7,0.5,0.9,0.7,1.6,1.3
		c0.2,0.2,0.3,0.3,0.3,0.4c0,0.2-0.3,0.4-0.9,0.8v5.8c0,6.4,0,8.3,0.2,12.2c0,0.4-0.3,0.5-1.2,0.5c-0.3,0-0.4,0-0.6,0h0
		c-0.2,0-0.3-0.1-0.3-0.3c0,0,0,0,0-0.1v-1.8h-6.8V405.8z M34.4,403.3h6.8v-16.2h-6.8V403.3z"/>
	<path class="st3" d="M19.5,424.9c1.5,0.6,2.3,1,3.1,1.5c1,0.6,1.2,1,1.2,1.6c0,0.8-0.4,1.7-0.8,1.7c-0.3,0-0.4-0.2-1-1.2
		c-1.1-1.7-1.5-2.3-2.7-3.4L19.5,424.9z M19.6,435c1.1,0.2,1.6,0.3,1.8,0.3c0.2,0,0.5-0.3,0.7-0.6c0.4-0.8,1.2-2.4,2.3-4.6
		c0.1-0.3,0.8-1.7,1.7-3.8c0.1-0.3,0.4-0.8,0.6-1.4l0.4,0.2l-3.6,10.2c-0.2,0.7-0.3,1.3-0.3,1.7s0,0.6,0.5,2
		c0.2,0.7,0.3,1.4,0.3,1.9c0,0.6-0.2,1.2-0.5,1.6c-0.4,0.4-1,0.7-1.4,0.7c-0.4,0-0.6-0.3-0.6-0.7c0-0.1,0-0.3,0.1-0.8
		c0.1-1.1,0.2-2.4,0.2-3.3c0-1.3-0.1-1.7-0.4-2.1c-0.3-0.3-0.3-0.3-1.8-0.9L19.6,435z M21.3,418.8c1.4,0.5,2.6,1.1,3.5,1.7
		c0.8,0.5,1,0.8,1,1.4c0,0.9-0.5,1.7-0.9,1.7c-0.2,0-0.3-0.1-0.5-0.4c-0.9-1.4-1.8-2.5-3.3-4.1L21.3,418.8z M35.3,429.2h3.6
		c0.7-0.8,0.9-1.1,1.6-1.8c1,0.8,1.3,1.1,2.3,2c0.1,0.1,0.1,0.2,0.1,0.2c0,0.1-0.1,0.2-0.3,0.2h-7.4v5.2h4.9c0.7-0.8,1-1.1,1.7-1.9
		c1.1,0.9,1.4,1.2,2.5,2.2c0.1,0.1,0.1,0.2,0.1,0.2c0,0.1-0.1,0.2-0.3,0.2h-9v0.9c0,2,0.1,4,0.2,6.6c0,0.2-0.1,0.3-0.3,0.3
		c-0.2,0.1-1,0.2-1.5,0.2c-0.4,0-0.5-0.1-0.5-0.4c0.1-1.8,0.1-4.5,0.1-6.8v-0.8h-5.2c-1,0-1.9,0.1-2.4,0.2l-0.2-1.1
		c0.7,0.2,1.5,0.3,2.7,0.3h5.2v-5.2h-3.6c-0.8,0-1.5,0.1-2.2,0.2l-0.2-1.1c0.6,0.1,1.5,0.2,2.4,0.2h3.6v-4.5H29
		c-0.6,0-1.2,0.1-1.7,0.1l-0.2-1c0.7,0.2,1.3,0.2,2,0.2h2.4c-0.2-0.2-0.2-0.2-0.4-1.1c-0.4-1.3-0.8-2.2-2-4l0.3-0.3
		c0.4,0.3,0.7,0.5,0.9,0.6c1.3,0.9,1.5,1,2.1,1.7c0.4,0.5,0.6,0.8,0.6,1.1c0,0.6-0.4,1.6-0.9,1.9h3.8c0.8-1.4,1.7-3.4,2.3-5.4
		c3.1,1.1,3.1,1.1,3.1,1.3c0,0.2-0.2,0.3-1.4,0.4c-1.9,2.2-2.2,2.6-3.4,3.7h3.2c0.8-0.9,1-1.1,1.8-2c1.1,0.9,1.4,1.2,2.4,2.2
		c0.1,0.1,0.1,0.2,0.1,0.2c0,0.1-0.1,0.2-0.3,0.2h-8.3V429.2z"/>
	<path class="st3" d="M38.1,473.2c0.6-0.8,0.9-1,1.6-1.9c1.1,0.9,1.5,1.2,2.5,2.1c0.1,0.1,0.1,0.2,0.1,0.3c0,0.1-0.1,0.2-0.3,0.2
		h-9.4v4.8h7.5c0.7-0.8,1-1.1,1.8-1.9c1.2,0.9,1.5,1.1,2.7,2.1c0.1,0.1,0.2,0.2,0.2,0.3s-0.1,0.2-0.2,0.2H21.9
		c-0.5,0-1.9,0.1-2.4,0.2l-0.3-1.1c2.1,0.3,2.2,0.3,2.7,0.3h8.8v-4.8h-6.5c-0.6,0-1.1,0-2.3,0.1l-0.3-1.1c0.8,0.2,2.1,0.3,2.7,0.3
		h6.5v-1.1c0-0.8,0-1.5-0.1-2.8c3.1,0.4,3.3,0.5,3.3,0.8c0,0.2-0.2,0.3-1.2,0.6v2.5H38.1z M30.7,457.9v-1.3c0-1.1,0-1.3-0.1-2
		c2.7,0.3,3.3,0.4,3.3,0.7c0,0.1-0.1,0.2-0.2,0.3c-0.1,0.1-0.5,0.2-1.1,0.3v2h7.8c0.6-0.7,0.6-0.7,1.3-1.5c1.1,0.8,1.5,1,2.5,1.8
		c0.1,0.1,0.2,0.2,0.2,0.3c0,0.1-0.1,0.1-0.1,0.2c-0.1,0.1-0.4,0.1-0.7,0.2c-0.4,0.1-0.7,0.1-0.9,0.1c-0.2,0.2-0.4,0.4-0.5,0.5
		c-0.9,0.8-1,1-1.8,1.5l-0.3-0.2c0.3-1.1,0.4-1.5,0.6-2.4h-18c-0.2,1.3-0.4,2.2-0.9,3c-0.4,0.7-1.1,1.3-1.5,1.3s-1-1-1-1.7
		c0-0.3,0.1-0.4,0.4-0.6c1.1-0.8,1.4-1.1,1.8-1.8c0.5-0.9,0.8-1.7,0.9-2.7h0.5c0,0.3,0,0.5,0,0.6c0,0.4,0,0.7-0.1,1.2H30.7z
		 M25.1,462.7c-0.8,0-1.2,0-2.2,0.2l-0.3-1.1c0.5,0.1,0.5,0.1,2.5,0.3h12.4c0.6-0.8,0.8-1,1.4-1.7c1,0.8,1.3,1.1,2.4,2
		c0.1,0.1,0.1,0.1,0.1,0.2c0,0.1-0.1,0.1-0.2,0.1H31c-2.5,3.3-2.5,3.3-3.9,4.8c3.1-0.1,5-0.2,10.5-0.7c-1.1-1.1-1.7-1.8-3-2.9
		l0.2-0.3c1.3,0.5,1.8,0.8,3.7,2c1.3,0.8,2.3,1.6,2.7,2.1c0.3,0.3,0.4,0.7,0.4,1.1c0,1-0.3,1.7-0.7,1.7c-0.2,0-0.2,0-1.5-1.8
		c-0.7-1-0.8-1.1-1.1-1.5c-3.2,0.5-5.5,0.9-6.2,1c-2.8,0.4-6.9,0.9-9,1c-0.1,0.9-0.2,1.2-0.5,1.2c-0.4,0-0.6-0.8-1.1-3.1
		c0.6,0.1,1,0.1,1.5,0.1c0.2,0,0.4,0,0.8,0c0.3,0,0.3,0,2.5-0.1c1.3-2.2,1.5-2.6,2.4-4.8H25.1z"/>
</g>
</svg>
