<?xml version="1.0" encoding="utf-8"?>
<!-- Generator: Adobe Illustrator 25.2.3, SVG Export Plug-In . SVG Version: 6.00 Build 0)  -->
<svg version="1.1" id="レイヤー_1" xmlns="http://www.w3.org/2000/svg" xmlns:xlink="http://www.w3.org/1999/xlink" x="0px"
	 y="0px" viewBox="0 0 191.6 400.8" style="enable-background:new 0 0 191.6 400.8;" xml:space="preserve">
<style type="text/css">
	.st0{fill:#200701;}
	.st1{fill:#210100;}
	.st2{fill:none;stroke:#76544B;stroke-miterlimit:10;}
	.st3{fill:#FFFFFF;}
</style>
<g>
	<g>
		<path class="st0" d="M172.7,141.8c0.5,0,1.4,0.2,1.8,0.3c0.4,0.1,0.5,0.3,0.5,0.6c0,0,0,0,0,0c0,0.1,0,0.1-0.1,0.5
			c-0.2,0.6-0.4,2.1-0.4,3.6c0,1.1,0.1,1.3,0.7,1.3c0.4,0,0.8-0.1,2.4-0.9c0.3-0.2,0.5-0.2,0.7-0.2c0.4,0,0.9,0.4,0.9,0.8
			c0,0.2-0.1,0.4-0.4,0.5c-0.1,0.1-0.4,0.1-1.2,0.4c-2.2,0.6-3.4,1.2-4.5,2c-1,0.8-1.4,1.5-1.4,2.3c0,1.3,1,2,3,2
			c1.1,0,2.9-0.2,4.2-0.5c0.2,0,0.3-0.1,0.4-0.1c0.5,0,1,0.5,1,0.9c0,0.3-0.2,0.5-0.8,0.6c-0.6,0.1-2.4,0.2-3.5,0.2
			c-1.3,0-2.3-0.1-3.1-0.4c-1.2-0.5-2-1.5-2-2.7c0-1,0.6-2,1.8-3c0.5-0.5,1.1-0.8,2.2-1.4c0,0,0,0-0.1,0c-0.3,0-0.5-0.1-0.8-0.3
			c-0.5-0.4-0.6-1-0.6-3.5c0-1.5-0.1-1.8-0.2-2.1c-0.2-0.4-0.6-0.5-1.3-0.7C172.2,141.9,172.3,141.8,172.7,141.8z M179.1,142.7
			c0.7,0.4,1.2,0.7,1.6,1.1c0.6,0.6,0.9,1,0.9,1.4s-0.3,0.8-0.6,0.8c-0.2,0-0.2,0-0.8-1.2c-0.3-0.6-0.9-1.4-1.4-1.9L179.1,142.7z
			 M181,141.7c0.6,0.3,1.2,0.6,1.7,1c0.7,0.5,0.9,0.9,0.9,1.4c0,0.4-0.2,0.7-0.5,0.7c-0.2,0-0.3-0.1-0.4-0.3c-0.6-1.1-1-1.6-2-2.6
			L181,141.7z"/>
		<path class="st0" d="M169,165.5c0.9,0.8,1.4,1,2.3,1c0.5,0,1-0.1,1.6-0.2c0.5-1.2,0.6-1.9,0.6-2.6c0-0.6-0.3-1-1.2-1.4
			c0.2-0.1,0.3-0.1,0.4-0.1c0.4,0,0.9,0.2,1.4,0.4c0.6,0.3,0.8,0.5,0.8,0.8c0,0.1,0,0.3-0.2,0.5c-0.1,0.1-0.5,0.9-1.1,2.2
			c1.3-0.5,1.5-0.6,2-1c0.1-0.1,0.2-0.1,0.4-0.1c0.7,0,1.2,0.2,1.2,0.5c0,0.5-1.1,0.9-4,1.6c-0.2,0.4-0.5,1.1-1,2.2
			c-0.5,1.2-1.9,4.3-2.1,4.6c-0.3,0.5-0.4,0.6-0.6,0.6c-0.3,0-0.6-0.6-0.6-1.3c0-0.4,0-0.5,0.2-0.6c0.4-0.4,0.6-0.7,0.9-1.1
			c0.9-1.3,1.5-2.5,2.3-4.2c-0.4,0.1-0.6,0.1-0.8,0.1c-0.6,0-1.1-0.1-1.6-0.4c-0.5-0.3-1-0.7-1.3-1.3L169,165.5z M178.6,166.5
			c1.2,0.1,2.3,0.4,3.1,1c0.7,0.5,1.1,1,1.1,1.4c0,0.3-0.2,0.5-0.5,0.5c-0.1,0-0.3,0-0.4-0.1c-0.5-0.3-0.8-0.4-1.8-0.4
			c-1.4,0-1.9,0.4-1.9,1.6c0,0.5,0.1,1.3,0.4,3.1c1.1,0.3,2,0.8,2.6,1.2c0.5,0.4,0.7,0.8,0.7,1.4c0,0.4-0.1,0.6-0.4,0.6
			c-0.2,0-0.3-0.1-0.6-0.5c-0.6-0.7-1.2-1.1-2.2-1.6c0,0.1,0,0.3,0,0.3c0,0.7-0.1,1.1-0.5,1.5c-0.5,0.5-1.3,0.8-2.3,0.8
			c-1.6,0-2.7-0.8-2.7-1.9c0-1.3,1.4-2.1,3.4-2.1c0.4,0,0.6,0,1.1,0.1c-0.1-1.4-0.1-1.6-0.1-1.8c0-1.5,0.1-2,0.6-2.6
			c0.4-0.4,0.9-0.6,1.7-0.8c0.3-0.1,0.3-0.1,1-0.2c-0.5-0.5-1-0.8-2.3-1.2L178.6,166.5z M177.6,174.4c-0.6-0.2-1-0.2-1.5-0.2
			c-1.5,0-2.5,0.5-2.5,1.4c0,0.7,0.7,1.1,1.8,1.1c1.5,0,2.2-0.6,2.2-1.7V174.4z"/>
		<path class="st0" d="M168.6,187.2c0.7,0.8,1.2,1,2,1c0.7,0,1.5-0.1,2.3-0.3c0.4-1.2,0.6-2.4,0.6-3c0-0.6-0.3-0.8-1.3-1.1
			c0.2-0.1,0.3-0.2,0.6-0.2c0.4,0,1,0.1,1.5,0.3c0.5,0.2,0.8,0.4,0.8,0.7c0,0.1,0,0.1-0.2,0.4c-0.2,0.3-0.6,1.3-1.1,2.6
			c1-0.4,1.7-0.7,2.1-1.1c0.3-0.3,0.4-0.3,0.5-0.3c0.2,0,0.7,0.1,1,0.2c0.2,0.1,0.3,0.2,0.3,0.3c0,0.3-0.3,0.5-1,0.9
			c-0.8,0.4-2,0.8-3.2,1c-0.2,0.6-0.2,0.6-0.8,2.3c-0.4,1.1-0.4,1.1-1.4,4c-0.7,2.1-1,2.6-1.3,2.6c-0.2,0-0.3-0.1-0.4-0.4
			c-0.1-0.3-0.3-0.7-0.3-1c0-0.3,0-0.3,0.4-0.9c0.9-1.3,1.6-2.9,2.8-6.4c-0.7,0.1-1.2,0.2-1.7,0.2c-1.1,0-1.8-0.5-2.5-1.6
			L168.6,187.2z M175.8,193.4c0,0.3,0,0.5,0,0.6c0,1,0.5,1.8,1.4,2.2c0.5,0.2,1.2,0.3,1.9,0.3c0.7,0,1.2-0.1,1.7-0.3
			c0.1-0.1,0.2-0.1,0.3-0.1c0.2,0,0.6,0.2,0.9,0.4c0.2,0.2,0.3,0.3,0.3,0.5c0,0.4-0.7,0.6-2.1,0.6c-1.4,0-2.5-0.2-3.3-0.6
			c-1-0.5-1.5-1.4-1.5-2.6c0-0.4,0-0.7,0.2-1.1L175.8,193.4z M176.3,190c1.3-0.8,2.8-1.2,4.2-1.2c0.4,0,0.8,0.1,1.1,0.3
			c0.2,0.1,0.3,0.3,0.3,0.5c0,0.3-0.2,0.4-0.7,0.4c-0.7,0-0.9,0.1-1.4,0.4c-0.4,0.2-0.4,0.2-1,0.6c-0.3,0.2-0.3,0.2-0.6,0.4
			l-0.1-0.2c0.2-0.2,0.2-0.2,0.9-0.8c0.2-0.1,0.3-0.3,0.9-0.8c-1.2,0-2.1,0.2-3.4,0.7L176.3,190z"/>
		<path class="st0" d="M169,207.9c0.3,0.2,0.5,0.3,0.8,0.3c0.5,0,1-0.1,5-1.1c0.6-0.2,1.7-0.4,2.9-0.6c1.3-0.3,1.9-0.4,2.4-0.6
			c0.4-0.1,0.5-0.1,0.6-0.1c0.2,0,0.6,0.2,1,0.4c0.4,0.2,0.5,0.5,0.5,0.7c0,0.3-0.2,0.5-0.6,0.5c-0.1,0-0.2,0-0.3,0
			c-0.2,0-0.3,0-0.5,0c-3.1,0-6,2.9-6,6c0,1.6,0.8,2.9,2.4,3.5c0.6,0.3,1.3,0.4,1.8,0.4c0.4,0,0.5,0.1,0.8,0.3
			c0.3,0.3,0.5,0.6,0.5,0.9c0,0.3-0.3,0.5-0.6,0.5c-1,0-2.7-0.6-3.7-1.3c-1.4-1-2.1-2.4-2.1-4c0-1.5,0.7-3.1,2-4.4
			c0.7-0.8,1.4-1.3,2.9-2.1c-2.2,0.3-6.4,1.5-8,2.4c-0.4,0.2-0.5,0.3-0.7,0.3c-0.4,0-1-0.4-1.4-1.1c-0.3-0.4-0.5-0.9-0.5-1.2
			c0-0.1,0-0.3,0.2-0.5C168.6,207.4,168.7,207.6,169,207.9z M179.7,209.5c0.7,0.4,1.2,0.7,1.6,1.1c0.6,0.6,0.9,1,0.9,1.4
			c0,0.4-0.3,0.8-0.6,0.8c-0.2,0-0.2,0-0.8-1.2c-0.3-0.6-0.9-1.4-1.4-1.9L179.7,209.5z M181.6,208.4c0.6,0.3,1.2,0.6,1.7,1
			c0.7,0.5,0.9,0.9,0.9,1.4c0,0.4-0.2,0.7-0.5,0.7c-0.2,0-0.3-0.1-0.4-0.3c-0.6-1.1-1-1.6-2-2.6L181.6,208.4z"/>
		<path class="st0" d="M170.6,227.5c0.4,0.6,0.7,1,1.2,1.3c0.6,0.4,1.2,0.6,2.1,0.8c0.5-2.5,0.6-2.8,0.6-3.2c0-0.6-0.3-1-1-1.5
			c0.1-0.1,0.2-0.1,0.3-0.1c0.3,0,0.8,0.2,1.3,0.6c0.6,0.4,0.9,0.9,0.9,1.3c0,0.2-0.1,0.3-0.2,0.5c-0.3,0.4-0.5,0.9-1,2.5
			c0.4,0.1,0.5,0.2,0.7,0.4c0.1,0.2,0.3,0.4,0.3,0.6c0,0.2-0.2,0.4-0.6,0.4c-0.2,0-0.4,0-0.7-0.1c-0.4,1.2-0.6,2.3-0.7,3.3
			c0.4,0.1,0.7,0.1,0.9,0.1c0.1,0,0.1,0,0.1,0c0.1,0,0.2,0,0.2,0c0.5,0,1.1,0.6,1.1,1c0,0.3-0.2,0.4-0.6,0.4c-0.5,0-1.3-0.1-1.9-0.3
			c0,0.4-0.1,0.6-0.1,0.9c0,1.8,1,2.9,2.8,2.9c1.2,0,2.3-0.5,2.8-1.2c0.4-0.5,0.6-1.2,0.6-1.8c0-1.5-1-3.2-2.7-4.5l0.2-0.2
			c2.7,1.6,3.8,3.1,3.8,5c0,2.2-1.9,3.8-4.4,3.8c-0.9,0-1.8-0.3-2.4-0.7c-0.9-0.7-1.4-1.8-1.4-3.3c0-0.2,0-0.5,0-0.9
			c-0.7-0.3-1.1-0.5-1.4-0.9c-0.5-0.5-0.8-1.2-0.8-1.8c0-0.4,0.2-0.9,0.6-1.2c0.4-0.4,0.9-0.7,1.7-1c-0.7-0.3-1.2-0.6-1.7-1.1
			c-0.4-0.4-0.6-0.8-0.9-1.6L170.6,227.5z M171.7,231.6c-0.3,0.3-0.4,0.6-0.4,0.9c0,0.8,0.6,1.3,1.9,1.7c0.1-0.9,0.3-1.9,0.5-3.3
			C172.6,230.9,172.1,231.1,171.7,231.6z"/>
		<path class="st0" d="M167.8,261.1c2.2-0.3,3.7-0.7,5.4-1.5c1-0.5,1.7-1,2.5-1.8c-1.5-0.6-2-0.8-3.7-1.2c-0.2,0.4-0.4,0.6-0.7,1.1
			c-0.1,0.1-0.2,0.1-0.3,0.1c0,0,0,0,0,0c-0.2,0-0.3-0.1-0.5-0.1c-0.5,0-0.5-0.1-0.6-0.3c1-1.6,1.5-2.3,2.6-4.4H169
			c-0.3,0-0.8,0.1-1.4,0.1l-0.2-0.8c0.8,0.2,1.1,0.2,1.6,0.2h3.8c0.7-1.5,1.2-2.5,1.5-3.9c1.8,0.5,1.8,0.5,1.8,0.5
			c0.1,0.1,0.1,0.1,0.1,0.2c0,0.2-0.1,0.2-0.9,0.4c-0.5,1.2-0.7,1.7-1.3,2.8h7.1c0.4-0.6,0.6-0.8,1-1.3c0.8,0.6,1,0.9,1.8,1.6
			c0,0,0.1,0.1,0.1,0.1c0,0.1-0.1,0.1-0.2,0.1h-4.2c-0.5,1.6-0.7,2.1-1.3,3.1c-0.3,0.5-0.6,0.9-1,1.3c1.8,0.6,3.3,1.3,4.2,1.8
			c0.6,0.3,0.7,0.6,0.7,1.4c0,0.4-0.1,0.7-0.3,0.7c-0.1,0-0.1,0-0.6-0.4c-0.5-0.4-2.3-1.6-3.1-2c-0.5-0.3-0.8-0.4-1.6-0.8
			c-0.8,0.9-1.7,1.4-3,2c-1.9,0.8-3.4,1.1-6,1.2L167.8,261.1z M175.1,247.7v-1c0-0.7,0-0.8,0-1.3c1.6,0.2,2,0.3,2,0.5
			c0,0.1-0.2,0.3-0.7,0.4v1.5h5.3c0.3-0.4,0.4-0.6,0.8-1c0.8,0.6,1,0.7,1.7,1.4c0.1,0.1,0.1,0.1,0.1,0.2c0,0.1-0.2,0.2-1.2,0.3
			c-1,0.9-1.3,1.1-2.3,1.9l-0.2-0.1c0.8-1.5,0.8-1.5,1.1-2.2h-11.9c-0.1,0.9-0.3,1.5-0.6,2.1c-0.3,0.5-0.8,1.1-1.1,1.1
			c-0.3,0-0.6-0.7-0.6-1.2c0-0.2,0.1-0.3,0.3-0.5c0.4-0.2,0.8-0.6,1-1c0.3-0.4,0.3-0.5,0.8-2.2h0.2c0,0.7,0,1-0.1,1.4H175.1z
			 M173.9,253.1c-0.5,1.1-1.2,2.3-1.6,3.1c0.4,0.1,0.4,0.1,1.4,0.3c0.8,0.2,1.5,0.3,2.6,0.6c1-1.3,1.6-2.4,2.1-4H173.9z"/>
		<path class="st0" d="M170.4,272.6c0,0.5,0,0.6,0,0.9c0,1.8-0.4,3.6-1,4.7c-0.4,0.7-0.8,1.1-1.1,1.1s-0.5-0.6-0.5-1.3
			c0-0.3,0.1-0.4,0.5-0.8c0.5-0.5,1-1.3,1.3-2.2c0.3-0.8,0.4-1.4,0.5-2.6H170.4z M172.3,272.5c0-0.8,0-1.7-0.1-2.5
			c1.9,0.3,2.2,0.3,2.2,0.5c0,0.2,0,0.2-0.8,0.5v9.4c0,0.3,0.1,0.3,0.7,0.4c0.2,0,1.9,0,2.5,0c1.5,0,1.8-0.1,2-0.4
			c0.2-0.4,0.5-1.3,1.1-4.1l0.2,0l-0.2,3.9v0.1c0,0.2,0.1,0.3,0.4,0.3c0.4,0.1,0.5,0.2,0.5,0.5c0,0.3-0.3,0.5-0.8,0.6
			c-0.4,0.1-2.1,0.2-3.3,0.2c-2.9,0-3.5,0-3.8-0.1c-0.4-0.1-0.6-0.4-0.6-0.9c0.1-1.8,0.1-1.9,0.1-2.6V272.5z M172.8,266.7
			c2.1,0.5,3.1,0.9,4.3,1.6c0.3,0.2,0.4,0.3,0.5,0.5c0.1,0.2,0.1,0.6,0.1,0.8c0,0.5-0.2,0.8-0.4,0.8c-0.1,0-0.2-0.1-0.5-0.4
			c-1.1-1.2-2.6-2.3-4.2-3.1L172.8,266.7z M180.5,272.5c2.1,2,3.2,3.6,3.2,4.6c0,0.3-0.1,0.8-0.4,1.3c-0.2,0.3-0.3,0.5-0.5,0.5
			c-0.2,0-0.3-0.2-0.4-0.7c-0.5-2.3-1.1-3.8-2.2-5.6L180.5,272.5z"/>
		<path class="st0" d="M175.6,301.8c1.9-0.6,3.2-1.3,4.2-2.5c1.1-1.2,1.6-2.7,1.6-4.3c0-1.7-0.7-3.1-2-4c-0.8-0.5-2-0.8-3.1-0.8
			c-0.2,0-0.3,0-0.6,0c0.4,0.6,0.6,1,0.6,1.5c0,1.4-1,4-2.4,6.2c-1.1,1.8-2,2.7-2.7,2.7c-0.3,0-0.6-0.1-0.8-0.4
			c-0.2-0.2-0.2-0.3-0.5-1.2c-0.2-0.5-0.3-0.7-0.8-1.7c-0.3-0.6-0.4-1.1-0.4-1.6c0-1.1,0.6-2.5,1.6-3.6c1.5-1.5,3.8-2.5,6.2-2.5
			c1.8,0,3.5,0.6,4.6,1.7s1.7,2.5,1.7,4.2c0,2.3-1.3,4.2-3.6,5.5c-1,0.6-2,0.8-3.5,1.1L175.6,301.8z M169.7,296.2
			c0,0.9,0.3,1.7,0.7,2.4c0.3,0.3,0.5,0.5,0.7,0.5c0.4,0,1.3-1,2.1-2.4c1.3-2.1,2.3-4.4,2.3-5.6c0-0.3-0.1-0.4-0.3-0.9
			C172.1,290.8,169.7,293.4,169.7,296.2z"/>
		<path class="st0" d="M125.5,153.5c1.8-1.4,3.3-3.2,4.4-5c0.6-1,0.7-1.4,0.7-1.8c0-0.3-0.2-0.6-0.9-1c0.2-0.1,0.3-0.1,0.4-0.1
			c0.3,0,1,0.3,1.5,0.6c0.6,0.4,0.9,0.7,0.9,1c0,0.2,0,0.2-0.4,0.5c-0.2,0.1-0.2,0.2-0.6,0.7c-1.5,2-2.1,2.6-3.8,3.9
			c-0.8,0.6-1.4,1-2.1,1.3L125.5,153.5z M135.2,145.6c1.9,1.1,3.6,2.6,4.7,4.2c0.6,0.8,0.8,1.3,0.8,1.9c0,0.8-0.3,1.3-0.7,1.3
			c-0.3,0-0.3-0.1-0.6-0.8c-0.9-2.4-2.4-4.6-4.4-6.4L135.2,145.6z M137.4,143c0.7,0.4,1.2,0.7,1.6,1.1c0.6,0.6,0.9,1,0.9,1.4
			s-0.3,0.8-0.6,0.8c-0.2,0-0.2,0-0.8-1.2c-0.3-0.6-0.9-1.4-1.4-1.9L137.4,143z M139.2,141.9c0.6,0.3,1.2,0.6,1.7,1
			c0.7,0.5,0.9,0.9,0.9,1.4c0,0.4-0.2,0.7-0.5,0.7c-0.2,0-0.3-0.1-0.4-0.3c-0.6-1.1-1-1.6-2-2.6L139.2,141.9z"/>
		<path class="st0" d="M129.4,163.8c0.4,0,1.2,0.3,1.7,0.6c0.3,0.2,0.5,0.4,0.5,0.6c0,0.1,0,0.2-0.1,0.4c-0.1,0.4-0.2,1.8-0.2,3.1
			c0,0.2,0,0.6,0,1.4c0,0.2,0,0.4,0,0.6c0,0.6,0,0.8-0.1,1c0,0.3-0.2,0.4-0.4,0.4c-0.2,0-0.5-0.2-0.7-0.6c-0.2-0.4-0.3-0.8-0.3-1
			c0-0.1,0-0.2,0.1-0.4c0.2-0.5,0.2-1.5,0.2-2.9c0-1.3-0.1-1.7-0.3-2.2c-0.2-0.4-0.4-0.5-1.1-0.8
			C129.1,163.8,129.1,163.8,129.4,163.8z M131.3,177.4c1.8-1.2,2.8-2.2,3.6-3.6c1-1.7,1.3-3.3,1.3-7.5c0-1.8-0.1-2.4-0.3-2.7
			c-0.2-0.3-0.6-0.5-1.3-0.6c0.3-0.2,0.4-0.3,0.7-0.3c0.4,0,1.3,0.2,1.8,0.5c0.5,0.2,0.6,0.5,0.6,0.7c0,0.1,0,0.1-0.1,0.4
			c-0.1,0.4-0.2,1.6-0.3,3.9c-0.1,2.6-0.2,3.4-0.6,4.5c-0.8,2.1-2.7,3.9-5.4,5L131.3,177.4z"/>
		<path class="st0" d="M129,198.1c1.3-1.1,2.5-2.7,3.3-4.5c0.6-1.4,1.1-3.1,1.1-3.9c0-0.5-0.3-0.8-1.1-1.2c0.1-0.1,0.2-0.2,0.4-0.2
			c0.2,0,0.9,0.2,1.4,0.5c0.5,0.3,0.6,0.4,0.8,0.6c0.8-0.5,2.4-1.8,3.2-2.6c0.4-0.4,0.6-0.6,0.6-0.7c0-0.2-0.2-0.3-1.1-0.3
			c-1.2,0-4.3,0.5-6.2,1c-0.7,0.2-1.3,0.4-1.8,0.6c-0.1,0.1-0.3,0.1-0.4,0.1c-0.4,0-1-0.5-1.4-1.2c-0.2-0.3-0.3-0.8-0.3-1
			c0-0.1,0-0.3,0.1-0.4c0.3,0.7,0.9,1.1,1.8,1.1c0.6,0,1,0,4.3-0.5c0.2,0,0.6-0.1,1.2-0.1c2.8-0.3,2.9-0.4,3.3-0.5
			c0.1,0,0.1-0.1,0.2-0.1c0.2,0,0.5,0.2,1,0.5c0.8,0.6,1.3,1.2,1.3,1.5c0,0.3-0.1,0.3-0.6,0.5c-0.3,0.1-0.5,0.2-0.9,0.4
			c-1.5,0.8-2.3,1.3-4.2,2.2c-0.1,0.3-0.1,0.3-0.3,0.8c-0.8,2.5-1.5,3.9-2.6,5.2c-0.9,1-1.8,1.8-2.8,2.4L129,198.1z"/>
		<path class="st0" d="M129.4,218.9c2.8-2.4,4.4-4.2,5.9-6.9c1.2-2,2.1-4.2,2.1-4.8c0-0.2-0.1-0.2-0.4-0.2c-0.3,0-2,0.3-3.3,0.6
			c-1.4,0.3-2.5,0.7-3.3,1c-0.3,0.1-0.5,0.2-0.7,0.2c-0.4,0-0.8-0.4-1.3-1c-0.3-0.4-0.5-0.8-0.5-1.1c0-0.1,0-0.2,0.1-0.4
			c0.3,0.7,0.9,1,1.7,1c0.6,0,2.1-0.2,5.1-0.7c1.6-0.3,1.7-0.3,2.1-0.5c0.2-0.1,0.2-0.1,0.4-0.1c0.3,0,0.8,0.3,1.3,0.8
			c0.4,0.4,0.6,0.6,0.6,0.9c0,0.2,0,0.3-0.3,0.5c-0.2,0.3-0.3,0.4-0.6,1c-1.5,2.9-3.3,5.5-5.2,7.3c-1.1,1-2.2,1.8-3.7,2.7
			L129.4,218.9z"/>
		<path class="st0" d="M129.4,226.5c0.4,0,1.2,0.3,1.7,0.6c0.3,0.2,0.5,0.4,0.5,0.6c0,0.1,0,0.2-0.1,0.4c-0.1,0.4-0.2,1.8-0.2,3.1
			c0,0.2,0,0.6,0,1.4c0,0.2,0,0.4,0,0.6c0,0.6,0,0.8-0.1,1c0,0.3-0.2,0.4-0.4,0.4c-0.2,0-0.5-0.2-0.7-0.6c-0.2-0.4-0.3-0.8-0.3-1
			c0-0.1,0-0.2,0.1-0.4c0.2-0.5,0.2-1.5,0.2-2.9c0-1.3-0.1-1.7-0.3-2.2c-0.2-0.4-0.4-0.5-1.1-0.8
			C129.1,226.5,129.1,226.5,129.4,226.5z M131.3,240.1c1.8-1.2,2.8-2.2,3.6-3.6c1-1.7,1.3-3.3,1.3-7.5c0-1.8-0.1-2.4-0.3-2.7
			c-0.2-0.3-0.6-0.5-1.3-0.6c0.3-0.2,0.4-0.3,0.7-0.3c0.4,0,1.3,0.2,1.8,0.5c0.5,0.2,0.6,0.4,0.6,0.7c0,0.1,0,0.1-0.1,0.4
			c-0.1,0.4-0.2,1.6-0.3,3.9c-0.1,2.6-0.2,3.4-0.6,4.5c-0.8,2.1-2.7,3.9-5.4,5L131.3,240.1z"/>
		<path class="st0" d="M133.2,249.2c0-1.3-0.1-1.7-0.3-2c-0.2-0.3-0.5-0.5-1-0.6c0.1-0.2,0.3-0.2,0.6-0.2c0.4,0,1,0.2,1.6,0.5
			c0.6,0.3,0.8,0.5,0.8,0.8c0,0.2,0,0.3-0.3,0.6c-0.2,0.3-0.2,1.1-0.2,7.9c0,3.8-0.1,4.4-0.7,4.4c-0.2,0-0.3-0.1-0.4-0.4
			c-0.1-0.3-0.2-0.9-0.2-2.2L133.2,249.2z"/>
		<path class="st0" d="M136.1,270.8c0.3-0.4,0.4-0.5,0.7-0.8c0.6,0.5,0.8,0.6,1.3,1.1c0.2,0.1,0.2,0.2,0.2,0.3
			c0,0.1-0.2,0.2-1.1,0.2c-0.9,1.1-1.5,1.7-2.7,2.6c1,0.5,1.8,0.8,2.8,1.1c1.6,0.5,2.8,0.6,4.5,0.7v0.3c-0.7,0.1-0.9,0.3-1.4,1.2
			c-1.1-0.3-1.6-0.4-2.9-0.9c0.4,0.4,0.4,0.4,0.8,0.7c0.1,0.1,0.2,0.2,0.2,0.3c0,0,0,0.1-0.1,0.1c0,0-0.1,0.1-0.2,0.1
			c0,0-0.1,0.1-0.2,0.1c0,0.8,0,0.8,0,2.4c0,1,0,1,0,1.9c0,0,0,0.1,0,0.1c0,0.1-0.1,0.2-0.2,0.2c-0.2,0.1-0.5,0.1-0.7,0.1
			c-0.3,0-0.3-0.1-0.3-0.3c0,0,0,0,0,0v-0.7h-6.8v0.6c0,0.3-0.2,0.4-0.7,0.4c-0.4,0-0.5-0.1-0.5-0.3v0c0-0.6,0-0.6,0-1.5
			c0-0.5,0-0.5,0-1.6v-1.9c-1.3,0.5-2,0.7-3.4,1l-0.1-0.3c2.7-0.9,5.4-2.2,7.5-3.7c-0.8-0.6-1.6-1.5-2.2-2.1
			c-0.4,0.5-0.9,0.9-1.5,1.3c-1.3,1-2.1,1.5-3.2,1.9l-0.1-0.2c1.7-1.3,2.5-2,3.4-3c1-1.1,1.6-2,1.9-2.9c1.8,0.4,1.9,0.4,1.9,0.6
			c0,0.2-0.3,0.3-0.9,0.4c-0.2,0.3-0.3,0.4-0.5,0.6H136.1z M133,268.6v-1.2c0-0.4,0-0.7-0.1-1.2c1.5,0.1,1.7,0.2,1.9,0.2
			c0.1,0.1,0.2,0.1,0.2,0.2c0,0.2-0.2,0.3-0.8,0.4v1.5h5c0.4-0.4,0.5-0.6,0.8-1l1.6,1.2c0.1,0.1,0.2,0.2,0.2,0.2
			c0,0.1-0.1,0.1-0.2,0.1c0,0-0.4,0.1-1.1,0.2c-1.1,1.3-1.2,1.3-1.7,1.8l-0.2-0.1c0.3-0.9,0.4-1.2,0.6-2h-11.5
			c-0.1,0.9-0.3,1.5-0.5,2c-0.2,0.4-0.8,0.8-1.1,0.8c-0.1,0-0.3-0.1-0.4-0.3c-0.1-0.1-0.1-0.5-0.1-0.8c0-0.2,0-0.3,0.4-0.5
			c0.3-0.2,0.6-0.6,0.8-1c0.3-0.6,0.5-1.1,0.6-1.9h0.3c0,0.3,0,0.5,0,0.6s0,0.3,0,0.6H133z M136.8,277.2c0.3-0.3,0.3-0.3,0.7-0.6
			c-1.7-0.7-2.6-1.1-3.8-1.9c-1.2,0.8-2.4,1.4-4,2.1c0.2,0.1,0.2,0.2,0.4,0.4H136.8z M130.2,281.2h6.8v-3.5h-6.8V281.2z
			 M131.5,271.3c-0.2,0.2-0.2,0.3-0.4,0.5c0.5,0.6,1.4,1.3,2.5,1.9c1-0.8,1.5-1.3,2.4-2.4H131.5z"/>
		<path class="st0" d="M137.8,298.9c0.4-0.5,0.6-0.7,1-1.2c0.7,0.6,0.9,0.8,1.6,1.4c0.1,0.1,0.1,0.1,0.1,0.2c0,0.1-0.1,0.1-0.2,0.1
			h-6v3.1h4.8c0.5-0.5,0.6-0.7,1.1-1.2c0.8,0.6,1,0.7,1.7,1.4c0.1,0.1,0.1,0.1,0.1,0.2c0,0.1-0.1,0.1-0.1,0.1h-14.6
			c-0.3,0-1.2,0.1-1.5,0.1l-0.2-0.7c1.4,0.2,1.4,0.2,1.7,0.2h5.7v-3.1h-4.2c-0.4,0-0.7,0-1.5,0.1l-0.2-0.7c0.5,0.1,1.4,0.2,1.7,0.2
			h4.2v-0.7c0-0.5,0-0.9-0.1-1.8c2,0.3,2.1,0.3,2.1,0.5c0,0.1-0.1,0.2-0.8,0.4v1.6H137.8z M133.1,289.1v-0.8c0-0.7,0-0.8-0.1-1.3
			c1.7,0.2,2.1,0.3,2.1,0.5c0,0.1-0.1,0.1-0.1,0.2c-0.1,0-0.3,0.1-0.7,0.2v1.3h5c0.4-0.4,0.4-0.4,0.8-0.9c0.7,0.5,1,0.6,1.6,1.2
			c0.1,0.1,0.1,0.1,0.1,0.2c0,0,0,0.1-0.1,0.1c-0.1,0-0.2,0.1-0.5,0.1c-0.2,0-0.4,0.1-0.6,0.1c-0.1,0.1-0.3,0.3-0.3,0.3
			c-0.6,0.5-0.6,0.6-1.1,1l-0.2-0.1c0.2-0.7,0.3-1,0.4-1.5h-11.6c-0.1,0.9-0.3,1.4-0.6,1.9c-0.3,0.5-0.7,0.8-1,0.8
			c-0.3,0-0.6-0.7-0.6-1.1c0-0.2,0.1-0.3,0.3-0.4c0.7-0.5,0.9-0.7,1.1-1.2c0.3-0.6,0.5-1.1,0.6-1.7h0.3c0,0.2,0,0.3,0,0.4
			c0,0.3,0,0.4,0,0.8H133.1z M129.4,292.2c-0.5,0-0.8,0-1.4,0.1l-0.2-0.7c0.3,0,0.3,0,1.6,0.2h8c0.4-0.5,0.5-0.6,0.9-1.1
			c0.6,0.5,0.9,0.7,1.6,1.3c0.1,0.1,0.1,0.1,0.1,0.1c0,0.1-0.1,0.1-0.1,0.1h-6.6c-1.6,2.1-1.6,2.1-2.5,3.1c2-0.1,3.2-0.1,6.8-0.5
			c-0.7-0.7-1.1-1.1-1.9-1.9l0.1-0.2c0.8,0.3,1.2,0.5,2.4,1.3c0.8,0.5,1.5,1,1.7,1.3c0.2,0.2,0.3,0.4,0.3,0.7c0,0.6-0.2,1.1-0.5,1.1
			c-0.1,0-0.1,0-1-1.2c-0.5-0.6-0.5-0.7-0.7-1c-2.1,0.3-3.5,0.6-4,0.6c-1.8,0.3-4.4,0.6-5.8,0.6c0,0.6-0.1,0.8-0.3,0.8
			c-0.3,0-0.4-0.5-0.7-2c0.4,0,0.6,0.1,1,0.1c0.1,0,0.3,0,0.5,0c0.2,0,0.2,0,1.6,0c0.8-1.4,1-1.7,1.5-3.1H129.4z"/>
	</g>
</g>
<g>
	<rect class="st1" width="55" height="400.8"/>
	<line class="st2" x1="27.7" y1="0" x2="27.7" y2="30"/>
</g>
<g>
	<path class="st3" d="M15.1,73.9c2.7-2.2,5.2-4.9,6.9-7.8c0.9-1.5,1.1-2.2,1.1-2.8c0-0.4-0.4-0.9-1.4-1.6c0.3-0.1,0.4-0.1,0.6-0.1
		c0.5,0,1.5,0.4,2.3,1c1,0.6,1.4,1.1,1.4,1.5c0,0.3-0.1,0.3-0.6,0.8c-0.3,0.2-0.4,0.4-0.9,1.1c-2.3,3.1-3.3,4.1-5.9,6.1
		c-1.3,1-2.1,1.5-3.3,2L15.1,73.9z M30.1,61.6c2.9,1.7,5.6,4.1,7.4,6.5c0.9,1.2,1.2,2,1.2,3c0,1.2-0.4,2.1-1.1,2.1
		c-0.4,0-0.5-0.2-0.9-1.3c-1.4-3.8-3.8-7.2-6.9-9.9L30.1,61.6z M33.6,57.6c1,0.6,1.8,1.1,2.5,1.7c1,0.9,1.4,1.6,1.4,2.2
		s-0.4,1.2-0.9,1.2c-0.4,0-0.4,0-1.3-1.8c-0.5-1-1.4-2.2-2.1-2.9L33.6,57.6z M36.4,56c1,0.4,1.8,1,2.7,1.6c1.1,0.8,1.5,1.4,1.5,2.2
		c0,0.7-0.3,1.1-0.7,1.1c-0.3,0-0.4-0.1-0.6-0.5c-1-1.8-1.5-2.5-3.1-4L36.4,56z"/>
	<path class="st3" d="M21.1,93.9c0.7,0,1.9,0.4,2.6,0.9c0.5,0.3,0.7,0.6,0.7,1c0,0.1-0.1,0.4-0.1,0.6c-0.1,0.6-0.3,2.8-0.3,4.8
		c0,0.4,0,1,0,2.1c0,0.4,0,0.6,0,1c0,0.9,0,1.2-0.1,1.5c-0.1,0.4-0.3,0.6-0.6,0.6c-0.4,0-0.7-0.3-1.1-1c-0.3-0.6-0.5-1.2-0.5-1.6
		c0-0.2,0-0.3,0.1-0.6c0.3-0.8,0.4-2.4,0.4-4.6c0-2-0.1-2.7-0.5-3.4c-0.3-0.6-0.6-0.7-1.7-1.2C20.6,93.9,20.7,93.9,21.1,93.9z
		 M24.1,115.1c2.8-1.9,4.4-3.5,5.7-5.6c1.6-2.7,2-5.1,2-11.7c0-2.8-0.1-3.7-0.5-4.2c-0.4-0.4-1-0.8-2-1c0.4-0.3,0.6-0.4,1.1-0.4
		c0.7,0,2,0.4,2.9,0.8c0.7,0.3,1,0.7,1,1.1c0,0.2,0,0.2-0.2,0.7c-0.2,0.7-0.4,2.5-0.5,6c-0.1,4.1-0.3,5.3-0.9,7
		c-1.2,3.2-4.2,6-8.3,7.7L24.1,115.1z"/>
	<path class="st3" d="M20.5,151.1c2.1-1.7,3.8-4.2,5.1-7.1c0.9-2.1,1.7-4.9,1.7-6.1c0-0.8-0.5-1.3-1.7-1.8c0.2-0.2,0.4-0.3,0.6-0.3
		c0.4,0,1.3,0.4,2.2,0.8c0.7,0.4,1,0.6,1.2,1c1.3-0.8,3.8-2.8,5-4c0.6-0.6,0.9-0.9,0.9-1.1c0-0.3-0.3-0.4-1.7-0.4
		c-1.8,0-6.6,0.8-9.7,1.5c-1.1,0.3-2,0.6-2.9,1c-0.2,0.1-0.4,0.1-0.6,0.1c-0.6,0-1.6-0.8-2.2-1.9c-0.3-0.5-0.5-1.2-0.5-1.5
		c0-0.2,0.1-0.4,0.2-0.6c0.5,1.1,1.4,1.7,2.8,1.7c1,0,1.5-0.1,6.7-0.7c0.3,0,0.9-0.1,1.9-0.2c4.3-0.5,4.6-0.6,5.2-0.8
		c0.2-0.1,0.2-0.1,0.4-0.1c0.3,0,0.8,0.3,1.5,0.8c1.2,0.9,2,1.9,2,2.4c0,0.4-0.2,0.5-1,0.8c-0.4,0.1-0.8,0.3-1.4,0.6
		c-2.3,1.3-3.6,2-6.6,3.4c-0.2,0.5-0.2,0.5-0.4,1.3c-1.3,3.8-2.4,6-4,8c-1.4,1.6-2.8,2.8-4.3,3.8L20.5,151.1z"/>
	<path class="st3" d="M21.1,187.4c4.4-3.8,6.8-6.6,9.2-10.7c1.8-3.1,3.3-6.5,3.3-7.5c0-0.3-0.1-0.4-0.6-0.4c-0.5,0-3.1,0.5-5.2,1
		c-2.1,0.5-3.9,1-5.1,1.6c-0.4,0.2-0.8,0.3-1,0.3c-0.6,0-1.3-0.6-2-1.5c-0.5-0.6-0.7-1.3-0.7-1.7c0-0.2,0-0.3,0.2-0.6
		c0.4,1.1,1.4,1.6,2.6,1.6c0.9,0,3.2-0.3,8-1.1c2.5-0.4,2.7-0.5,3.2-0.8c0.3-0.2,0.3-0.2,0.6-0.2c0.4,0,1.2,0.5,2,1.3
		c0.6,0.6,0.9,1,0.9,1.3c0,0.3-0.1,0.4-0.4,0.8c-0.4,0.4-0.5,0.6-1,1.5c-2.3,4.6-5.1,8.5-8.1,11.3c-1.8,1.6-3.4,2.8-5.8,4.2
		L21.1,187.4z"/>
	<path class="st3" d="M21.1,203.1c0.7,0,1.9,0.4,2.6,0.9c0.5,0.3,0.7,0.6,0.7,1c0,0.1-0.1,0.4-0.1,0.6c-0.1,0.6-0.3,2.8-0.3,4.8
		c0,0.4,0,1,0,2.1c0,0.4,0,0.6,0,1c0,0.9,0,1.2-0.1,1.5c-0.1,0.4-0.3,0.6-0.6,0.6c-0.4,0-0.7-0.3-1.1-1c-0.3-0.6-0.5-1.2-0.5-1.6
		c0-0.2,0-0.3,0.1-0.6c0.3-0.8,0.4-2.4,0.4-4.6c0-2-0.1-2.7-0.5-3.4c-0.3-0.6-0.6-0.7-1.7-1.2C20.6,203.1,20.7,203.1,21.1,203.1z
		 M24.1,224.3c2.8-1.9,4.4-3.5,5.7-5.6c1.6-2.7,2-5.1,2-11.7c0-2.8-0.1-3.7-0.5-4.2c-0.4-0.4-1-0.8-2-1c0.4-0.3,0.6-0.4,1.1-0.4
		c0.7,0,2,0.4,2.9,0.8c0.7,0.3,1,0.7,1,1.1c0,0.2,0,0.2-0.2,0.7c-0.2,0.7-0.4,2.5-0.5,6c-0.1,4.1-0.3,5.3-0.9,7
		c-1.2,3.2-4.2,6-8.3,7.7L24.1,224.3z"/>
	<path class="st3" d="M27,242.5c0-2-0.1-2.6-0.4-3.1c-0.3-0.4-0.8-0.7-1.5-1c0.2-0.3,0.5-0.4,0.9-0.4c0.6,0,1.6,0.3,2.5,0.8
		c0.9,0.5,1.2,0.8,1.2,1.2c0,0.3-0.1,0.4-0.4,0.9c-0.3,0.4-0.3,1.7-0.3,12.3c0,5.9-0.2,6.9-1.1,6.9c-0.3,0-0.4-0.2-0.6-0.6
		c-0.2-0.4-0.3-1.4-0.3-3.5L27,242.5z"/>
	<path class="st3" d="M22.8,280.7h1.3c0.6-0.8,0.8-1,1.4-1.8c1,0.8,1.2,1.1,2.2,2c0.1,0.1,0.2,0.2,0.2,0.3c0,0.1-0.1,0.2-0.3,0.2
		h-4.8v2.6c1.3,0.6,2.1,1.1,3,1.7c1.2,0.9,1.5,1.3,1.5,2.1c0,1-0.3,1.8-0.7,1.8c-0.2,0-0.3-0.1-0.5-0.5c-1-2.1-1.9-3.3-3.4-4.5v4.3
		c0,6.7,0,6.7,0,8.6c0,0.2-0.1,0.3-0.2,0.3c-0.1,0-1.1,0.1-1.5,0.1c-0.2,0-0.3-0.1-0.3-0.3c0-1.4,0.1-1.7,0.1-3.1
		C21,291,21,290.5,21,289l0.2-4.9c-1.7,3.7-2.9,5.3-5.8,8.5l-0.3-0.2c1.8-2.6,2.6-3.9,3.6-5.9c0.8-1.7,0.8-1.7,2.1-5.1h-3.4
		c-0.5,0-1.1,0.1-1.7,0.2l-0.2-1.1c0.8,0.2,1.2,0.3,2.2,0.3h3.3v-4.3c-2,0.4-2.8,0.6-4.8,0.8l-0.2-0.4c2.7-0.7,4.1-1.2,6.2-2.1
		c1.9-0.8,2.6-1.1,3.5-1.8c2.4,1.7,2.4,1.7,2.4,1.8c0,0.2-0.2,0.3-0.5,0.3c-0.1,0-0.5-0.1-1-0.1c-1.6,0.6-2.2,0.7-3.8,1.1V280.7z
		 M30.5,296.6c0,0.1,0,0.1,0,0.1c0,0.3-0.3,0.4-0.9,0.4c-0.3,0-0.4,0-0.5,0c0,0-0.1,0-0.1,0c-0.3,0-0.4-0.1-0.4-0.4
		c0.1-2.8,0.1-3.9,0.1-7.3c0-9.3,0-11.8-0.1-13.6c1,0.6,1.2,0.8,2.2,1.4H37c0.5-0.6,0.7-0.7,1.2-1.3c0.7,0.5,0.9,0.7,1.6,1.3
		c0.2,0.2,0.3,0.3,0.3,0.4c0,0.2-0.3,0.4-0.9,0.8v5.8c0,6.4,0,8.3,0.2,12.2c0,0.4-0.3,0.5-1.2,0.5c-0.3,0-0.4,0-0.6,0h0
		c-0.2,0-0.3-0.1-0.3-0.3c0,0,0,0,0-0.1v-1.8h-6.8V296.6z M30.5,294.1h6.8v-16.2h-6.8V294.1z"/>
	<path class="st3" d="M15.6,315.7c1.5,0.6,2.3,1,3.1,1.5c1,0.6,1.2,1,1.2,1.6c0,0.8-0.4,1.7-0.8,1.7c-0.3,0-0.4-0.2-1-1.2
		c-1.1-1.7-1.5-2.3-2.7-3.4L15.6,315.7z M15.7,325.8c1.1,0.2,1.6,0.3,1.8,0.3c0.2,0,0.5-0.3,0.7-0.6c0.4-0.8,1.2-2.4,2.3-4.6
		c0.1-0.3,0.8-1.7,1.7-3.8c0.1-0.3,0.4-0.8,0.6-1.4l0.4,0.2l-3.6,10.2c-0.2,0.7-0.3,1.3-0.3,1.7c0,0.5,0,0.6,0.5,2
		c0.2,0.7,0.3,1.4,0.3,1.9c0,0.6-0.2,1.2-0.5,1.6c-0.4,0.4-1,0.7-1.4,0.7c-0.4,0-0.6-0.3-0.6-0.7c0-0.1,0-0.3,0.1-0.8
		c0.1-1.1,0.2-2.4,0.2-3.3c0-1.3-0.1-1.7-0.4-2.1c-0.3-0.3-0.3-0.3-1.8-0.9L15.7,325.8z M17.4,309.6c1.4,0.5,2.6,1.1,3.5,1.7
		c0.8,0.5,1,0.8,1,1.4c0,0.9-0.5,1.7-0.9,1.7c-0.2,0-0.3-0.1-0.5-0.4c-0.9-1.4-1.8-2.5-3.3-4.1L17.4,309.6z M31.4,320H35
		c0.7-0.8,0.9-1.1,1.6-1.8c1,0.8,1.3,1.1,2.3,2c0.1,0.1,0.1,0.2,0.1,0.2c0,0.1-0.1,0.2-0.3,0.2h-7.4v5.2h4.9c0.7-0.8,1-1.1,1.7-1.9
		c1.1,0.9,1.4,1.2,2.5,2.2c0.1,0.1,0.1,0.2,0.1,0.2c0,0.1-0.1,0.2-0.3,0.2h-9v0.9c0,2,0.1,4,0.2,6.6c0,0.2-0.1,0.3-0.3,0.3
		c-0.2,0.1-1,0.2-1.5,0.2c-0.4,0-0.5-0.1-0.5-0.4c0.1-1.8,0.1-4.5,0.1-6.8v-0.8h-5.2c-1,0-1.9,0.1-2.4,0.2l-0.2-1.1
		c0.7,0.2,1.5,0.3,2.7,0.3h5.2v-5.2h-3.6c-0.8,0-1.5,0.1-2.2,0.2l-0.2-1.1c0.6,0.1,1.5,0.2,2.4,0.2h3.6v-4.5h-4.4
		c-0.6,0-1.2,0.1-1.7,0.1l-0.2-1c0.7,0.2,1.3,0.2,2,0.2h2.4c-0.2-0.2-0.2-0.2-0.4-1.1c-0.4-1.3-0.8-2.2-2-4l0.3-0.3
		c0.4,0.3,0.7,0.5,0.9,0.6c1.3,0.9,1.5,1,2.1,1.7c0.4,0.5,0.6,0.8,0.6,1.1c0,0.6-0.4,1.6-0.9,1.9h3.8c0.8-1.4,1.7-3.4,2.3-5.4
		c3.1,1.1,3.1,1.1,3.1,1.3c0,0.2-0.2,0.3-1.4,0.4c-1.9,2.2-2.2,2.6-3.4,3.7h3.2c0.8-0.9,1-1.1,1.8-2c1.1,0.9,1.4,1.2,2.4,2.2
		c0.1,0.1,0.1,0.2,0.1,0.2c0,0.1-0.1,0.2-0.3,0.2h-8.3V320z"/>
	<path class="st3" d="M34.2,364c0.6-0.8,0.9-1,1.6-1.9c1.1,0.9,1.5,1.2,2.5,2.1c0.1,0.1,0.1,0.2,0.1,0.3c0,0.1-0.1,0.2-0.3,0.2h-9.4
		v4.8h7.5c0.7-0.8,1-1.1,1.8-1.9c1.2,0.9,1.5,1.1,2.7,2.1c0.1,0.1,0.2,0.2,0.2,0.3s-0.1,0.2-0.2,0.2H18c-0.5,0-1.9,0.1-2.4,0.2
		l-0.3-1.1c2.1,0.3,2.2,0.3,2.7,0.3h8.8v-4.8h-6.5c-0.6,0-1.1,0-2.3,0.1l-0.3-1.1c0.8,0.2,2.1,0.3,2.7,0.3h6.5v-1.1
		c0-0.8,0-1.5-0.1-2.8c3.1,0.4,3.3,0.5,3.3,0.8c0,0.2-0.2,0.3-1.2,0.6v2.5H34.2z M26.8,348.7v-1.3c0-1.1,0-1.3-0.1-2
		c2.7,0.3,3.3,0.4,3.3,0.7c0,0.1-0.1,0.2-0.2,0.3c-0.1,0.1-0.5,0.2-1.1,0.3v2h7.8c0.6-0.7,0.6-0.7,1.3-1.5c1.1,0.8,1.5,1,2.5,1.8
		c0.1,0.1,0.2,0.2,0.2,0.3c0,0.1-0.1,0.1-0.1,0.2c-0.1,0.1-0.4,0.1-0.7,0.2c-0.4,0.1-0.7,0.1-0.9,0.1c-0.2,0.2-0.4,0.4-0.5,0.5
		c-0.9,0.8-1,1-1.8,1.5l-0.3-0.2c0.3-1.1,0.4-1.5,0.6-2.4h-18c-0.2,1.3-0.4,2.2-0.9,3c-0.4,0.7-1.1,1.3-1.5,1.3s-1-1-1-1.7
		c0-0.3,0.1-0.4,0.4-0.6c1.1-0.8,1.4-1.1,1.8-1.8c0.5-0.9,0.8-1.7,0.9-2.7h0.5c0,0.3,0,0.5,0,0.6c0,0.4,0,0.7-0.1,1.2H26.8z
		 M21.2,353.5c-0.8,0-1.2,0-2.2,0.2l-0.3-1.1c0.5,0.1,0.5,0.1,2.5,0.3h12.4c0.6-0.8,0.8-1,1.4-1.7c1,0.8,1.3,1.1,2.4,2
		c0.1,0.1,0.1,0.1,0.1,0.2c0,0.1-0.1,0.1-0.2,0.1H27.1c-2.5,3.3-2.5,3.3-3.9,4.8c3.1-0.1,5-0.2,10.5-0.7c-1.1-1.1-1.7-1.8-3-2.9
		l0.2-0.3c1.3,0.5,1.8,0.8,3.7,2c1.3,0.8,2.3,1.6,2.7,2.1c0.3,0.3,0.4,0.7,0.4,1.1c0,1-0.3,1.7-0.7,1.7c-0.2,0-0.2,0-1.5-1.8
		c-0.7-1-0.8-1.1-1.1-1.5c-3.2,0.5-5.5,0.9-6.2,1c-2.8,0.4-6.9,0.9-9,1c-0.1,0.9-0.2,1.2-0.5,1.2c-0.4,0-0.6-0.8-1.1-3.1
		c0.6,0.1,1,0.1,1.5,0.1c0.2,0,0.4,0,0.8,0c0.3,0,0.3,0,2.5-0.1c1.3-2.2,1.5-2.6,2.4-4.8H21.2z"/>
</g>
</svg>
