<?xml version="1.0" encoding="utf-8"?>
<!-- Generator: Adobe Illustrator 25.2.3, SVG Export Plug-In . SVG Version: 6.00 Build 0)  -->
<svg version="1.1" id="レイヤー_1" xmlns="http://www.w3.org/2000/svg" xmlns:xlink="http://www.w3.org/1999/xlink" x="0px"
	 y="0px" viewBox="0 0 201 375.9" style="enable-background:new 0 0 201 375.9;" xml:space="preserve">
<style type="text/css">
	.st0{fill:#200701;}
	.st1{fill:#210100;}
	.st2{fill:none;stroke:#76544B;stroke-miterlimit:10;}
	.st3{fill:#FFFFFF;}
</style>
<g>
	<g>
		<path class="st0" d="M175.8,156.1h-0.2c-0.6,0-1.1,0-1.6,0.1l-0.1-0.6c0.5,0.1,0.8,0.1,1.7,0.1h12c0.5-0.5,0.6-0.7,1-1.2
			c0.5,0.5,1,0.9,1.5,1.3c0.1,0.1,0.1,0.1,0.1,0.2c0,0.1-0.1,0.1-0.2,0.1h-8.9v4.7c0,1.7,0,2.7,0.1,4.2c0,0.1-0.1,0.2-0.2,0.2
			c-0.1,0.1-0.6,0.1-0.9,0.1c-0.1,0-0.2-0.1-0.2-0.2c0,0,0,0,0,0c0.1-1.7,0.1-2.1,0.1-2.9c-2.4,0.9-2.4,0.9-5,1.7
			c-0.1,0.6-0.1,0.7-0.3,0.7c-0.2,0-0.3-0.3-0.7-1.8c0.6,0,0.8-0.1,1.8-0.2V156.1z M177.6,154.7
			C177.6,154.7,177.6,154.7,177.6,154.7c0,0.2-0.2,0.3-0.8,0.3c-0.4,0-0.5,0-0.5-0.2c0,0,0,0,0,0c0.1-1.3,0.1-1.9,0.1-3.5
			c0-1.2,0-1.5-0.1-2.3c0.6,0.3,0.8,0.4,1.3,0.8h8.4c0.3-0.3,0.4-0.5,0.7-0.8c0.5,0.4,0.6,0.5,1.1,0.9c0.1,0.1,0.1,0.1,0.1,0.2
			c0,0.1,0,0.1-0.6,0.5c0,2.4,0,3.1,0,4v0c0,0.2,0,0.2-0.1,0.2c-0.1,0.1-0.4,0.1-0.8,0.1c-0.2,0-0.3,0-0.3-0.2v-0.5h-8.6V154.7z
			 M176.9,157.8h3.2v-1.7h-3.2V157.8z M176.9,160h3.2v-1.8h-3.2V160z M176.9,162.6c1.5-0.3,2.1-0.4,3.2-0.6v-1.5h-3.2V162.6z
			 M186.2,150.1h-8.6v1.6h8.6V150.1z M177.6,152.1v1.7h8.6v-1.7H177.6z M187.1,157.7c0.3-0.3,0.4-0.4,0.8-0.7
			c0.5,0.4,0.6,0.5,1.1,0.9c0.1,0.1,0.2,0.2,0.2,0.2c0,0.1-0.1,0.2-0.8,0.4c-0.9,1.7-1.4,2.4-2.1,3.3c1.3,0.9,2.3,1.3,4.2,1.7v0.2
			c-0.4,0.1-0.6,0.2-0.8,0.4c-0.3,0.3-0.3,0.4-0.4,0.8c-1.7-0.7-2.5-1.3-3.6-2.3c-1.1,1-2,1.6-3.7,2.4l-0.1-0.2
			c1.3-0.8,2.1-1.5,3.3-2.8c-1-1.2-1.5-2.1-2.1-3.8h-0.2c-0.3,0-0.6,0-0.9,0.1l-0.1-0.6c0.3,0.1,0.6,0.1,1,0.1H187.1z M183.1,158.1
			c0.5,1.1,0.6,1.3,1.1,1.9c0.4,0.5,0.7,0.8,1.2,1.3c0.8-1.1,1.1-1.7,1.6-3.2H183.1z"/>
		<path class="st0" d="M186.3,176.6l1.2-1.4c0.8,0.7,1,0.9,1.8,1.6c0.1,0.1,0.1,0.1,0.1,0.1c0,0.1-0.1,0.1-0.2,0.1h-6.9v7.8h5.2
			c0.5-0.7,0.7-0.9,1.2-1.5c0.8,0.7,1.1,0.9,1.9,1.6c0.1,0.1,0.1,0.1,0.1,0.1c0,0.1-0.1,0.1-0.1,0.1h-14.6c-0.6,0-1,0-1.5,0.1
			l-0.1-0.7c0.6,0.1,0.9,0.1,1.6,0.1h5.1v-12.4c0-1,0-1.6-0.1-2.2c0.4,0.1,0.8,0.1,1,0.1c1,0.1,1.2,0.2,1.2,0.3
			c0,0.1-0.2,0.2-0.7,0.4v5.6H186.3z"/>
		<path class="st0" d="M175.9,203.3c0,1.5,0,1.5,0,2.6c0,0.2,0,0.3,0,0.4c0,0.1,0,0.3,0,0.4c0,0.2-0.1,0.3-0.2,0.3
			c-0.1,0-0.5,0-0.6,0c-0.3,0-0.3,0-0.3-0.2c0-3.3,0-3.3,0-9.2c0-5.1,0-5.6-0.1-6.8c0.6,0.3,0.8,0.4,1.3,0.8h2
			c0.3-0.3,0.3-0.4,0.6-0.7c0.5,0.4,0.6,0.5,1,0.9c0.1,0.2,0.2,0.3,0.2,0.3c0,0.1-0.1,0.2-0.6,0.4c-0.7,1.4-1.5,2.9-2.1,3.9
			c0.8,0.8,1,1.1,1.3,1.5c0.5,0.7,0.8,1.7,0.8,2.6c0,0.9-0.3,1.8-0.8,2.2c-0.4,0.3-0.7,0.5-1.4,0.6c-0.2-0.8-0.3-1-1-1.2V203.3z
			 M175.9,201.9c0.6,0,1.1,0.1,1.3,0.1c0.4,0,0.5-0.1,0.6-0.3c0.1-0.3,0.2-0.9,0.2-1.5c0-1.5-0.4-2.6-1.5-3.7c0.5-1.1,1-2.8,1.4-4.4
			h-2.1V201.9z M182.7,194c0.3-0.4,0.4-0.5,0.8-0.9c0.6,0.5,0.7,0.6,1.3,1.2c0,0,0,0.1,0,0.1s-0.1,0.1-0.1,0.1h-3.3v2.8
			c1.1-0.2,2.1-0.5,3.2-0.8l0.1,0.2c-1.3,0.7-2.4,1.2-4.7,2c0,0.4-0.1,0.6-0.3,0.6s-0.3-0.3-0.6-1.6c0.5,0,0.6,0,1.2-0.1v-5
			c0-0.1,0-0.4,0-0.9c0-0.1,0-0.3,0-0.6c1.5,0.2,1.8,0.3,1.8,0.4c0,0.1-0.2,0.2-0.6,0.3v2.4H182.7z M182.9,200.4
			c0.2-0.5,0.5-1.6,0.7-2.4c1.5,0.4,1.7,0.5,1.7,0.7c0,0.1-0.2,0.2-0.6,0.2c0,0-0.1,0-0.2,0c-0.4,0.6-0.6,0.8-1.2,1.5h4
			c0.3-0.3,0.3-0.5,0.6-0.8c0.5,0.3,0.6,0.5,1,0.8c0.2,0.1,0.2,0.2,0.2,0.3c0,0.1-0.2,0.3-0.6,0.5c0,1.4,0,2,0,2.7
			c0,0.8,0,1.5,0,3.1c0,0.1-0.1,0.2-0.2,0.2c0,0-0.7,0.1-0.8,0.1c-0.1,0-0.2-0.1-0.2-0.2c0,0,0-0.1,0-0.1v-0.9h-5.9v0.8
			c-0.1,0.2-0.2,0.3-0.6,0.3c-0.2,0-0.3,0-0.4,0c0,0,0,0,0,0c-0.2,0-0.2-0.1-0.2-0.2c0.1-1.5,0.1-1.5,0.1-5.7c0-0.7,0-1.1-0.1-1.8
			c0.6,0.3,0.8,0.5,1.3,0.8H182.9z M187.4,200.8h-5.9v2.1h5.9V200.8z M181.6,203.3v2.4h5.9v-2.4H181.6z M186.1,194.7
			c0.4-0.3,0.8-0.6,1.5-1.4c0.7-0.7,0.8-0.8,1-1.2c1.1,0.6,1.5,0.8,1.5,1c0,0.1-0.1,0.2-0.3,0.2s-0.3,0-0.5-0.1
			c-1.4,0.9-2.2,1.3-3.2,1.8v1.9c0,0.3,0,0.3,0.1,0.4c0.1,0.1,0.5,0.1,1.2,0.1c1,0,1.4,0,1.5-0.1c0.1-0.1,0.2-0.2,0.3-0.4
			c0.1-0.3,0.1-0.6,0.3-1c0.1-0.3,0.2-0.7,0.4-1.3l0.2,0l-0.1,2v0.3c0,0.2,0,0.2,0.2,0.3c0.3,0.1,0.3,0.2,0.3,0.4
			c0,0.3-0.2,0.5-0.5,0.5c-0.2,0.1-1,0.1-1.8,0.1c0,0-0.1,0-0.3,0c-0.5,0-0.9,0-1.2,0c-1.2,0-1.5-0.2-1.5-1.1l0-1v-4.1
			c0-0.6,0-0.8-0.1-1.3c1.6,0.2,1.9,0.3,1.9,0.5c0,0.1-0.2,0.2-0.7,0.3V194.7z"/>
		<path class="st0" d="M182,226.3c1.9-0.6,3.2-1.3,4.2-2.5c1.1-1.2,1.6-2.7,1.6-4.3c0-1.7-0.7-3.1-2-4c-0.8-0.5-2-0.8-3.1-0.8
			c-0.2,0-0.3,0-0.6,0c0.4,0.6,0.6,1,0.6,1.5c0,1.4-1,4-2.4,6.2c-1.1,1.8-2,2.7-2.7,2.7c-0.3,0-0.6-0.1-0.8-0.4
			c-0.2-0.2-0.2-0.3-0.5-1.2c-0.2-0.5-0.3-0.7-0.8-1.7c-0.3-0.6-0.4-1.1-0.4-1.6c0-1.1,0.6-2.5,1.6-3.6c1.5-1.5,3.8-2.5,6.2-2.5
			c1.8,0,3.5,0.6,4.6,1.7c1.2,1.1,1.7,2.5,1.7,4.2c0,2.3-1.3,4.2-3.6,5.5c-1,0.6-2,0.8-3.5,1.1L182,226.3z M176.1,220.7
			c0,0.9,0.3,1.7,0.7,2.4c0.3,0.3,0.5,0.5,0.7,0.5c0.4,0,1.3-1,2.1-2.4c1.3-2.1,2.3-4.4,2.3-5.6c0-0.3-0.1-0.5-0.3-0.9
			C178.5,215.4,176.1,218,176.1,220.7z"/>
		<path class="st0" d="M186.7,242.3c1.2,0.6,1.5,0.8,1.5,0.9s-0.3,0.2-0.9,0.3c-1.3,0.8-1.6,0.9-2.8,1.4c0.7,0.5,1.3,0.8,2.1,1.2
			c1.4,0.6,2.3,0.8,3.9,0.9l0,0.2c-0.8,0.2-1,0.5-1.3,1.3c-1.4-0.4-2.2-0.8-3.3-1.5c-1.9-1.3-3-2.6-3.9-4.7h-1.8v4.4
			c1.7-0.1,2.6-0.2,4-0.5l0,0.2c-1.9,0.7-2.7,0.9-7,1.8c-0.1,0.5-0.2,0.6-0.3,0.6c-0.2,0-0.2-0.2-0.7-2c0.5,0,0.5,0,0.5,0
			c0.3,0,1.5-0.1,2.3-0.2v-4.5h-2.5c-0.2,1.2-0.4,2.2-0.8,3.2c-0.5,1.3-0.9,2.1-1.9,3.2l-0.2-0.2c0.7-1.2,1-2,1.2-3.3
			c0.5-2.4,0.6-4.4,0.6-11.4c0-0.6,0-0.8-0.1-1.5c0.7,0.4,0.9,0.5,1.6,0.9h10.2c0.3-0.3,0.4-0.5,0.6-0.8c0.5,0.3,0.7,0.4,1.2,0.8
			c0.1,0.1,0.1,0.2,0.1,0.2c0,0.1-0.1,0.3-0.6,0.6c0,1.1,0,1.1,0.1,2.7c0,0.1-0.1,0.2-0.2,0.2c-0.2,0.1-0.5,0.1-0.8,0.1
			c-0.2,0-0.3-0.1-0.3-0.3v-0.5h-10.5l0,1.4c0,1.8-0.1,2.7-0.3,4.1h3.4v-2.6h-1c-0.6,0-1,0-1.7,0.1l-0.1-0.7c0.7,0.1,1,0.2,1.7,0.2
			h1v-0.7c0-0.6,0-0.8-0.1-1.3c1.6,0.1,1.9,0.2,1.9,0.4c0,0.1-0.1,0.1-0.6,0.4v1.2h2.8v-0.8c0-0.5,0-0.7-0.1-1.2
			c1.6,0.2,1.9,0.2,1.9,0.4c0,0.1-0.1,0.2-0.6,0.4v1.2h1.4c0.4-0.5,0.5-0.6,0.8-1.1c0.7,0.5,1,0.7,1.7,1.3c0,0.1,0.1,0.1,0.1,0.1
			c0,0.1-0.1,0.1-0.2,0.1h-3.8v2.6h2.1c0.4-0.5,0.5-0.7,0.9-1.2c0.8,0.5,1,0.7,1.8,1.3c0.1,0.1,0.1,0.1,0.1,0.2
			c0,0.1-0.1,0.1-0.2,0.1H186.7z M187.3,233.8h-10.4c0,0.5,0,0.5,0,2.3h10.5V233.8z M181.2,241.9h2.8v-2.6h-2.8V241.9z M182.5,242.3
			c0.4,1,0.8,1.6,1.8,2.3c1.3-0.9,1.7-1.3,2.4-2.3H182.5z"/>
		<path class="st0" d="M180.5,255.6c0.4-0.5,0.5-0.6,0.8-1.1c0.6,0.5,0.8,0.7,1.3,1.2c0.1,0.1,0.1,0.1,0.1,0.1
			c0,0.1-0.1,0.1-0.2,0.1h-5.6v3.8c0,0.3,0,0.3,0.1,0.4c0.2,0.1,0.7,0.1,1.5,0.1c1,0,1.6,0,1.8-0.1c0.2-0.1,0.3-0.1,0.3-0.1
			c0.3,0,0.8,0.5,0.8,0.8c0,0.3-0.5,0.3-2.8,0.3c-1.4,0-2.1-0.1-2.4-0.2c-0.3-0.1-0.4-0.4-0.4-1.1v-4h-0.4c-0.4,0-0.6,0-1.2,0.1
			l-0.1-0.7c0.6,0.1,0.9,0.2,1.3,0.2h2.3v-1.2c0-0.3,0-0.5-0.1-1.1c1.8,0.2,2,0.3,2,0.4c0,0.1-0.2,0.2-0.7,0.4v1.4H180.5z
			 M182.6,265.9h3.5c0.4-0.5,0.5-0.6,1-1.1c0.5,0.4,1,0.8,1.4,1.3c0.1,0,0.1,0.1,0.1,0.1c0,0.1-0.1,0.1-0.2,0.1h-5.8v2.3h5
			c0.5-0.5,0.6-0.7,1.1-1.2c0.7,0.6,1,0.8,1.6,1.4c0.1,0.1,0.1,0.1,0.1,0.1c0,0.1-0.1,0.1-0.2,0.1h-14.3c-0.5,0-0.8,0-1.6,0.1
			l-0.1-0.7c0.5,0.1,1.1,0.2,1.7,0.2h5.5v-2.3h-3.7c-0.6,0-0.9,0-1.6,0.1l-0.1-0.7c0.5,0.1,1,0.2,1.7,0.2h3.8v-2.1h-4.5
			c-0.6,0-0.9,0-1.5,0.1l-0.1-0.7c0.5,0.1,1,0.2,1.7,0.2h10.4c0.3-0.4,0.6-0.7,0.9-1.1c0.6,0.5,0.8,0.7,1.5,1.2
			c0,0.1,0.1,0.1,0.1,0.1c0,0.1-0.1,0.1-0.2,0.1h-6.8V265.9z M183.9,259.3c-0.3,0.8-0.6,1.4-1.2,2c-0.6,0.7-1,1.1-2,1.6l-0.2-0.2
			c0.9-0.7,1.4-1.4,2-2.6c0.6-1.4,1.1-4.3,1.1-6.4c0.6,0.3,0.8,0.4,1.4,0.8h3.2c0.3-0.4,0.4-0.5,0.7-0.8c0.5,0.3,0.6,0.5,1,0.8
			c0.1,0.1,0.2,0.2,0.2,0.3c0,0.1-0.1,0.2-0.6,0.5c-0.3,2.5-0.7,4.9-1,5.9c-0.3,0.9-0.7,1.2-2,1.4c-0.2-0.4-0.3-0.6-0.6-0.8
			c-0.2-0.1-0.2-0.1-1.4-0.4v-0.3c1.3,0.1,2.1,0.2,2.4,0.2c0.6,0,0.6-0.1,1-2H183.9z M184.5,257.1c-0.2,0.9-0.3,1.2-0.4,1.8h3.8
			c0.1-0.8,0.2-0.9,0.3-1.8H184.5z M188.2,256.6c0.1-0.7,0.1-0.9,0.2-1.8h-3.6c-0.1,0.9-0.1,1.1-0.3,1.8H188.2z"/>
		<path class="st0" d="M186.2,286.2c0.4-0.5,0.6-0.7,1-1.2c0.7,0.6,0.9,0.8,1.6,1.4c0.1,0.1,0.1,0.1,0.1,0.2c0,0.1-0.1,0.1-0.2,0.1
			h-6v3.1h4.8c0.5-0.5,0.6-0.7,1.1-1.2c0.8,0.6,1,0.7,1.7,1.3c0.1,0.1,0.1,0.1,0.1,0.2c0,0.1-0.1,0.1-0.1,0.1h-14.6
			c-0.3,0-1.2,0.1-1.5,0.1l-0.2-0.7c1.4,0.2,1.4,0.2,1.7,0.2h5.7v-3.1h-4.2c-0.4,0-0.7,0-1.5,0.1l-0.2-0.7c0.5,0.1,1.4,0.2,1.7,0.2
			h4.2v-0.7c0-0.5,0-0.9-0.1-1.8c2,0.3,2.1,0.3,2.1,0.5c0,0.1-0.1,0.2-0.8,0.4v1.6H186.2z M181.5,276.3v-0.8c0-0.7,0-0.8-0.1-1.3
			c1.7,0.2,2.1,0.3,2.1,0.5c0,0.1-0.1,0.1-0.1,0.2c-0.1,0-0.3,0.1-0.7,0.2v1.3h5c0.4-0.4,0.4-0.4,0.8-0.9c0.7,0.5,1,0.6,1.6,1.2
			c0.1,0.1,0.1,0.1,0.1,0.2c0,0,0,0.1-0.1,0.1c-0.1,0-0.2,0.1-0.5,0.1c-0.2,0-0.4,0.1-0.6,0.1c-0.1,0.1-0.3,0.3-0.3,0.3
			c-0.6,0.5-0.6,0.6-1.1,1l-0.2-0.1c0.2-0.7,0.3-1,0.4-1.5h-11.6c-0.1,0.9-0.3,1.4-0.6,1.9c-0.3,0.5-0.7,0.8-1,0.8
			c-0.3,0-0.6-0.7-0.6-1.1c0-0.2,0.1-0.3,0.3-0.4c0.7-0.5,0.9-0.7,1.1-1.2c0.3-0.6,0.5-1.1,0.6-1.7h0.3c0,0.2,0,0.3,0,0.4
			c0,0.3,0,0.4,0,0.8H181.5z M177.8,279.4c-0.5,0-0.8,0-1.4,0.1l-0.2-0.7c0.3,0,0.3,0,1.6,0.2h8c0.4-0.5,0.5-0.6,0.9-1.1
			c0.6,0.5,0.9,0.7,1.6,1.3c0.1,0.1,0.1,0.1,0.1,0.1c0,0.1-0.1,0.1-0.1,0.1h-6.6c-1.6,2.1-1.6,2.1-2.5,3.1c2-0.1,3.2-0.1,6.8-0.5
			c-0.7-0.7-1.1-1.1-1.9-1.9l0.1-0.2c0.8,0.3,1.2,0.5,2.4,1.3c0.8,0.5,1.5,1,1.7,1.3c0.2,0.2,0.3,0.4,0.3,0.7c0,0.6-0.2,1.1-0.5,1.1
			c-0.1,0-0.1,0-1-1.2c-0.5-0.6-0.5-0.7-0.7-1c-2.1,0.3-3.5,0.6-4,0.6c-1.8,0.3-4.4,0.6-5.8,0.6c0,0.6-0.1,0.8-0.3,0.8
			c-0.3,0-0.4-0.5-0.7-2c0.4,0,0.6,0.1,1,0.1c0.1,0,0.3,0,0.5,0c0.2,0,0.2,0,1.6,0c0.8-1.4,1-1.7,1.5-3.1H177.8z"/>
		<path class="st0" d="M137.4,164.9c2.1-1.4,3-2.6,3.4-4.5c-0.4,0.3-0.7,0.4-1.2,0.4c-1.3,0-2.2-1.1-2.2-2.6c0-1.6,1-2.8,2.3-2.8
			c0.3,0,0.5,0.1,1,0.3c0-0.3,0-1.3,0-1.9c0,0,0-0.2,0-0.4c-1.4,0.1-3.1,0.5-4.5,0.9c-0.5,0.1-0.8,0.3-1.2,0.5
			c-0.1,0-0.3,0.1-0.4,0.1c-0.3,0-0.7-0.3-1.2-0.7c-0.4-0.4-0.7-1-0.7-1.3c0,0,0-0.1,0.1-0.2c0.5,0.6,1,0.9,1.7,0.9
			c0.4,0,0.8,0,1.5-0.2c2.1-0.3,2.8-0.4,4.6-0.6c0-1.1-0.1-1.6-0.2-2c-0.2-0.5-0.6-0.8-1.5-0.9c0.2-0.3,0.3-0.3,0.8-0.3
			c0.6,0,1.2,0.1,1.7,0.3c0.4,0.1,0.7,0.4,0.7,0.6c0,0.1,0,0.2-0.2,0.5c-0.2,0.4-0.3,0.9-0.4,1.7c0.5-0.1,0.5-0.1,1.2-0.1
			c1.7-0.1,1.9-0.2,2.4-0.3c0.5-0.2,0.5-0.2,0.7-0.2c0.4,0,1.1,0.3,1.5,0.7c0.2,0.2,0.3,0.3,0.3,0.5s-0.1,0.3-0.4,0.3
			c-0.1,0-0.2,0-1-0.1c-0.9-0.1-1.7-0.2-2.8-0.2c-0.7,0-1.2,0-1.9,0.1c-0.1,0.7-0.1,1.8-0.1,2.4c0,0.1,0,0.3,0,0.6
			c0.4,0.9,0.6,1.5,0.6,2.4c0,1.8-0.7,3.4-1.9,4.6c-0.7,0.6-1.6,1.2-2.7,1.7L137.4,164.9z M139.7,155.8c-0.8,0-1.4,0.8-1.4,1.9
			c0,1.1,0.6,2,1.5,2c0.8,0,1.2-0.6,1.2-1.7C140.8,156.5,140.5,155.8,139.7,155.8z"/>
		<path class="st0" d="M133.5,178.7c0.4,0,0.4,0,2.2-1.8c1.4-1.4,2.1-1.9,2.8-1.9c0.8,0,1.3,0.4,3.1,2c2.4,2.2,4,3.3,5.3,3.9
			c0.4,0.1,0.5,0.3,0.7,0.7c0.2,0.3,0.3,0.8,0.3,1.1c0,0.2-0.2,0.4-0.4,0.4c-0.3,0-0.9-0.3-1.6-0.8c-1.2-0.8-2.9-2.4-4.8-4.4
			c-1.6-1.7-2.2-2.1-2.8-2.1c-0.5,0-1,0.4-1.9,1.7c-0.5,0.7-0.6,0.8-1,1.6c-0.3,0.5-0.3,0.5-0.3,0.6c-0.2,0.4-0.2,0.4-0.3,0.5
			c-0.1,0.1-0.3,0.1-0.4,0.1c-0.8,0-2.2-1.3-2.2-2.1c0,0,0,0,0.1-0.3C132.7,178.3,133.2,178.7,133.5,178.7z M142.7,172.8
			c0.7,0.4,1.2,0.7,1.6,1.1c0.6,0.6,0.9,1,0.9,1.4c0,0.4-0.3,0.8-0.6,0.8c-0.2,0-0.2,0-0.8-1.2c-0.3-0.6-0.9-1.4-1.4-1.9
			L142.7,172.8z M144.5,171.7c0.6,0.3,1.2,0.6,1.7,1c0.7,0.5,0.9,0.9,0.9,1.4c0,0.4-0.2,0.7-0.5,0.7c-0.2,0-0.3-0.1-0.4-0.3
			c-0.6-1.1-1-1.6-2-2.6L144.5,171.7z"/>
		<path class="st0" d="M133.6,195c0.3,0.2,0.5,0.3,0.8,0.3c0.5,0,1-0.1,5-1.1c0.8-0.2,1.7-0.4,2.9-0.6c1.4-0.3,1.9-0.4,2.4-0.6
			c0.4-0.1,0.5-0.1,0.6-0.1c0.2,0,0.6,0.2,1,0.4c0.4,0.2,0.5,0.4,0.5,0.7c0,0.3-0.2,0.5-0.6,0.5c-0.1,0-0.2,0-0.3,0
			c-0.2,0-0.3,0-0.5,0c-3.1,0-6,2.9-6,6c0,1.7,0.8,2.9,2.4,3.5c0.6,0.3,1.3,0.4,1.8,0.4c0.4,0,0.5,0.1,0.8,0.3
			c0.3,0.3,0.5,0.6,0.5,0.9c0,0.3-0.3,0.5-0.7,0.5c-1,0-2.6-0.6-3.7-1.3c-1.4-1-2.1-2.4-2.1-4c0-1.5,0.7-3.1,2-4.4
			c0.7-0.8,1.4-1.3,2.9-2.1c-1.6,0.2-3.1,0.6-5.2,1.2c-1.1,0.4-2.3,0.8-2.9,1.2c-0.4,0.2-0.5,0.3-0.7,0.3c-0.4,0-1-0.4-1.4-1.1
			c-0.3-0.4-0.5-0.9-0.5-1.2c0-0.1,0-0.3,0.2-0.5C133.2,194.5,133.3,194.7,133.6,195z"/>
		<path class="st0" d="M135.7,218.7c0,0.2-0.3,0.3-0.9,0.3c-0.3,0-0.4,0-0.4-0.2c0-1,0.1-2.9,0.1-3.9c0-1,0-2,0-3.2
			c0.6,0.4,0.8,0.5,1.4,1h8.6c0.4-0.4,0.5-0.5,0.8-0.9c0.5,0.4,0.6,0.5,1.1,0.9c0.1,0.1,0.2,0.2,0.2,0.3c0,0.1-0.1,0.1-0.6,0.5
			c0,3.7,0,3.7,0,5.1c-0.1,0.3-0.3,0.4-0.9,0.4c-0.3,0-0.4-0.1-0.4-0.2v-0.4h-1.5v2.1h1.7c0.5-0.5,0.6-0.7,1.1-1.2
			c0.7,0.5,0.9,0.7,1.6,1.2c0.1,0.1,0.1,0.2,0.1,0.2c0,0.1-0.1,0.1-0.2,0.1h-4.4v2.3h2.4c0.5-0.6,0.6-0.7,1.2-1.3
			c0.7,0.6,0.9,0.7,1.6,1.4c0.1,0.1,0.1,0.2,0.1,0.2c0,0.1-0.1,0.1-0.2,0.1h-14c-1,0-1.2,0-1.8,0.1l-0.1-0.7
			c0.6,0.1,0.9,0.2,1.9,0.2h3v-2.3h-2.5c-0.7,0-0.9,0-1.5,0.1l-0.1-0.6c0.6,0.1,1,0.1,1.7,0.1h2.4v-2.1h-1.5V218.7z M132.4,227.8
			c1.5-0.7,2.5-1.3,3.6-2.1c0.7-0.5,1-0.8,1.4-1.3c1.4,0.5,1.7,0.7,1.7,0.8c0,0.1-0.2,0.2-0.4,0.2c0,0-0.1,0-0.1,0
			c-0.1,0-0.2,0-0.4,0c-1.9,1.4-3.2,2-5.8,2.7L132.4,227.8z M139.5,213.1h-3.9v2.2h3.9V213.1z M139.5,215.7h-3.9v2.2h3.9V215.7z
			 M138.4,220.4h3.7v-2.1h-3.7V220.4z M138.4,220.8v2.3h3.7v-2.3H138.4z M144.7,215.3v-2.2h-4v2.2H144.7z M140.7,217.9h4v-2.2h-4
			V217.9z M141.8,224.5c2.8,0.6,4.1,1.1,4.7,1.5c0.4,0.3,0.6,0.8,0.6,1.4c0,0.4-0.1,0.7-0.3,0.7c-0.1,0-0.2-0.1-0.4-0.3
			c-0.9-0.9-2.6-2.1-4.7-3L141.8,224.5z"/>
		<path class="st0" d="M133.5,236.3c0.9,0.8,1.4,1,2.3,1c0.5,0,1-0.1,1.6-0.2c0.5-1.2,0.6-1.9,0.6-2.6c0-0.6-0.3-1-1.2-1.4
			c0.2-0.1,0.3-0.1,0.4-0.1c0.4,0,0.9,0.2,1.4,0.4c0.6,0.3,0.8,0.5,0.8,0.8c0,0.1,0,0.3-0.2,0.5c-0.1,0.1-0.5,0.9-1.1,2.2
			c1.3-0.5,1.5-0.6,2-1c0.1-0.1,0.2-0.1,0.4-0.1c0.7,0,1.2,0.2,1.2,0.5c0,0.5-1.1,0.9-4,1.6c-0.2,0.4-0.5,1.1-1,2.2
			c-0.5,1.2-1.9,4.3-2.1,4.6c-0.3,0.5-0.4,0.6-0.6,0.6c-0.3,0-0.6-0.6-0.6-1.3c0-0.4,0-0.5,0.2-0.6c0.4-0.4,0.6-0.7,0.9-1.1
			c0.9-1.3,1.5-2.5,2.3-4.2c-0.4,0.1-0.6,0.1-0.8,0.1c-0.6,0-1.1-0.1-1.6-0.4c-0.5-0.3-1-0.7-1.3-1.3L133.5,236.3z M143,237.3
			c1.2,0.1,2.3,0.4,3.1,1c0.7,0.5,1.1,1,1.1,1.4c0,0.3-0.2,0.5-0.5,0.5c-0.1,0-0.3,0-0.4-0.1c-0.5-0.3-0.8-0.4-1.8-0.4
			c-1.4,0-1.9,0.4-1.9,1.6c0,0.5,0.1,1.3,0.4,3.1c1.1,0.3,2,0.8,2.6,1.2c0.5,0.4,0.7,0.8,0.7,1.4c0,0.4-0.1,0.6-0.4,0.6
			c-0.2,0-0.3-0.1-0.6-0.5c-0.6-0.7-1.2-1.1-2.2-1.6c0,0.1,0,0.3,0,0.3c0,0.7-0.1,1.1-0.5,1.5c-0.5,0.5-1.3,0.8-2.3,0.8
			c-1.6,0-2.7-0.8-2.7-1.9c0-1.3,1.4-2.1,3.4-2.1c0.4,0,0.6,0,1.1,0.1c-0.1-1.4-0.1-1.6-0.1-1.8c0-1.5,0.1-2,0.6-2.6
			c0.4-0.4,0.9-0.6,1.7-0.8c0.3-0.1,0.3-0.1,1-0.2c-0.5-0.5-1-0.8-2.3-1.2L143,237.3z M142,245.1c-0.6-0.2-1-0.2-1.5-0.2
			c-1.5,0-2.5,0.5-2.5,1.4c0,0.7,0.7,1.1,1.8,1.1c1.5,0,2.2-0.6,2.2-1.7V245.1z"/>
		<path class="st0" d="M141.6,255.9c-0.7,0.2-2.4,0.9-3.6,1.4c-0.4,0.2-0.6,0.2-0.7,0.2c-0.3,0-0.7-0.3-1-0.8
			c-0.3-0.5-0.5-1-0.5-1.3c0-0.2,0-0.3,0.2-0.5c0.3,0.8,0.8,1.3,1.4,1.3c0.5,0,2.2-0.4,3.4-0.8c0.7-0.2,0.7-0.2,1.1-0.6
			c0.1-0.1,0.2-0.1,0.3-0.1c0.2,0,0.5,0.2,1,0.6c0.4,0.4,0.5,0.6,0.5,0.8c0,0.1-0.1,0.2-0.3,0.3c-0.5,0.3-0.7,0.4-1.5,1.2
			c-1.1,1.1-1.8,1.8-2.6,2.7c-1.7,1.9-1.7,1.9-2.1,2.2l0,0c1.9-1.2,3.4-1.7,4.9-1.7c2.3,0,3.9,1.4,3.9,3.4c0,2.6-2.4,4.5-5.7,4.5
			c-1.8,0-2.9-0.7-2.9-1.8c0-0.9,0.8-1.5,1.9-1.5c0.9,0,1.7,0.3,2.3,0.9c0.3,0.3,0.5,0.6,0.8,1.1c1.4-0.6,2.2-1.8,2.2-3.4
			c0-1-0.4-1.8-1.1-2.2c-0.4-0.2-1.1-0.4-1.8-0.4c-1.8,0-4.2,1.4-5.7,3.3c-0.3,0.4-0.4,0.5-0.6,0.5c-0.3,0-0.6-0.6-0.6-1.2
			c0-0.2,0.1-0.4,0.4-0.6c0.7-0.5,1-0.8,2.5-2.5c2.2-2.5,2.9-3.3,4.3-5.1c0.1-0.2,0.1-0.2,0.2-0.3c0,0,0,0-0.1,0c0,0,0,0,0,0
			c0,0,0,0-0.1,0C141.8,255.8,141.8,255.8,141.6,255.9L141.6,255.9z M138.9,266.2c-0.7,0-1.1,0.4-1.1,0.9c0,0.7,0.8,1.1,2.1,1.1
			c0.5,0,0.7,0,1.3-0.2C140.7,266.9,139.9,266.2,138.9,266.2z"/>
		<path class="st0" d="M131.9,289.8c1.4-1.3,2.4-2.8,3.4-4.9c0.5-1,1-2.3,1.2-3.2c0.1-0.2,0.1-0.3,0.1-0.7c1.9,0.6,2.1,0.7,2.1,0.8
			c0,0.2-0.3,0.3-0.9,0.3c-0.9,2.2-1.5,3.3-2.5,4.6c-1,1.4-1.9,2.2-3.4,3.2L131.9,289.8z M145.4,278.7c0.4-0.6,0.6-0.8,1-1.4
			c0.9,0.6,1.1,0.8,1.9,1.5c0.1,0.1,0.1,0.1,0.1,0.1c0,0.1-0.1,0.1-0.2,0.1h-13.7c-1.3,0-1.5,0-2.4,0.1l-0.1-0.7
			c0.9,0.2,1.5,0.2,2.5,0.2h4.8v-2.6c0-0.9,0-1.1-0.1-1.6c1,0.1,1.9,0.3,2,0.3c0.1,0,0.1,0.1,0.1,0.2c0,0-0.1,0.1-0.1,0.2
			c-0.1,0.1-0.2,0.2-0.6,0.3v3.2H145.4z M141.6,281.3c1.2,0.9,1.9,1.6,3.3,3.1c1.2,1.3,2,2.3,2.3,3c0.1,0.3,0.2,0.5,0.2,0.8
			c0,0.8-0.3,1.6-0.6,1.6c-0.1,0-0.2-0.1-0.3-0.4c-0.4-0.9-1.2-2.4-2.1-3.9c-1.1-1.8-1.8-2.8-2.9-4L141.6,281.3z"/>
		<path class="st0" d="M139.8,302.4c0.4-0.5,0.5-0.7,0.9-1.1c0.6,0.5,0.8,0.7,1.4,1.3c0.1,0.1,0.1,0.1,0.1,0.2
			c0,0.1-0.1,0.1-0.2,0.1h-8.7c-0.5,0-0.6,0-1.3,0.1l-0.1-0.6c0.6,0.1,0.9,0.1,1.4,0.1h4.1c0.6-1.5,1.1-2.8,1.3-4
			c1.7,0.5,1.9,0.5,1.9,0.7s-0.3,0.3-0.8,0.3c-0.7,1.2-1.3,2.1-2,3H139.8z M139.5,297.6c0.4-0.5,0.6-0.6,1-1.1
			c0.6,0.5,0.8,0.7,1.3,1.2c0.1,0.1,0.1,0.1,0.1,0.2c0,0.1-0.1,0.1-0.2,0.1H134c-0.6,0-0.9,0-1.4,0.1l-0.1-0.6
			c0.5,0.1,1,0.1,1.5,0.1h2.3v-1.1c0-0.5,0-0.7-0.1-1.3c1.7,0.1,1.9,0.2,1.9,0.4c0,0.2-0.2,0.3-0.7,0.4v1.6H139.5z M134.8,310.9
			c0,0.3-0.2,0.3-0.9,0.3c-0.3,0-0.4,0-0.4-0.2c0.1-1.5,0.1-2.8,0.1-4.7c0-0.6,0-0.6-0.1-2.3c0.6,0.4,0.8,0.5,1.3,0.9h4.2
			c0.3-0.3,0.3-0.5,0.6-0.8c0.5,0.3,0.6,0.5,1.1,0.8c0.1,0.1,0.1,0.2,0.1,0.2c0,0.1-0.1,0.2-0.5,0.4v2.1c0,0.2,0,0.2,0,1.5
			c0,0.4,0,0.9,0,1.6c0,0.2-0.2,0.3-0.9,0.3c-0.3,0-0.4,0-0.4-0.2V310h-4.3V310.9z M133.7,298.4c1.4,1.1,2.1,1.9,2.1,2.4
			c0,0.5-0.5,1.2-0.8,1.2c-0.1,0-0.2-0.1-0.2-0.3c-0.3-1.4-0.6-2.2-1.3-3.2L133.7,298.4z M134.8,309.6h4.3v-4.2h-4.3V309.6z
			 M143.5,308.2c0,0.1,0,0.6,0,1.3c0,0.4,0,1,0,1.8c0,0.1,0,0.2-0.1,0.2c-0.1,0.1-0.5,0.1-0.8,0.1c-0.3,0-0.3,0-0.4-0.2
			c0.1-2.8,0.1-7.8,0.1-11.6c0-2.2,0-2.8-0.1-4c0.6,0.3,0.8,0.4,1.4,0.8h2.8c0.3-0.5,0.3-0.5,0.6-0.9c0.6,0.4,0.7,0.6,1.3,1
			c0.1,0.1,0.2,0.2,0.2,0.3c0,0.2-0.2,0.3-0.6,0.3c-0.8,1.6-1.4,2.6-2.8,4.7c1,0.7,1.5,1.2,2,1.9c0.7,0.9,1,1.7,1,2.8
			c0,1-0.2,1.7-0.7,2.2c-0.4,0.4-0.8,0.6-1.7,0.8c-0.1-0.7-0.4-1-1.7-1.4l0-0.3c0.3,0,0.6,0.1,0.8,0.1c0.7,0.1,1.1,0.1,1.2,0.1
			c0.3,0,0.5-0.1,0.6-0.2c0.2-0.2,0.3-0.7,0.3-1.5c0-1-0.1-1.6-0.5-2.2c-0.4-0.8-0.8-1.2-1.7-2.2c0.9-2,1.3-3.2,1.8-5.1h-2.9V308.2z
			"/>
		<path class="st0" d="M140.6,322.5c-0.8,1.3-1.4,2-2.1,2.7c1.9-0.1,3-0.1,5.6-0.3c-0.6-0.5-0.9-0.8-1.7-1.3l0.1-0.2
			c1.7,0.6,2.7,1.1,3.4,1.6c0.4,0.3,0.6,0.6,0.6,1.1s-0.2,0.8-0.4,0.8c-0.1,0-0.2,0-0.6-0.6c-0.2-0.3-0.5-0.6-1-1
			c-2.9,0.6-5.3,0.9-7.9,1.2c-0.1,0.6-0.1,0.7-0.3,0.7c-0.2,0-0.2,0-0.6-1.9c0.5,0,0.6,0.1,1.1,0.1c0.3,0,0.6,0,1.3,0
			c0.5-0.9,0.9-1.8,1.1-2.7h-4c-0.1,2.2-0.3,3.3-0.7,4.9c-0.4,1.4-0.9,2.8-1.4,3.6c-0.3,0.5-0.4,0.6-0.9,1.3l-0.3-0.2
			c0.6-1,0.7-1.4,1-2.4c0.5-1.6,0.8-3.8,0.8-5.9c0.1-1.2,0.1-2.5,0.1-4.2c0-1.6,0-2.4-0.1-3.5c0.7,0.4,1,0.5,1.6,1h10
			c0.3-0.4,0.4-0.5,0.7-0.9c0.5,0.3,0.6,0.5,1.1,0.8c0.1,0.1,0.1,0.1,0.1,0.2c0,0-0.1,0.1-0.1,0.2c0,0.1-0.1,0.1-0.2,0.1
			c-0.1,0-0.1,0.1-0.3,0.2c0,0.5,0,0.8,0,1.1c0,0.7,0,0.9,0,2c-0.1,0.1-0.1,0.1-0.2,0.2c-0.3,0.1-0.6,0.1-0.8,0.1
			c-0.2,0-0.2,0-0.3-0.1v-0.5h-10.3l0,1.8h10.4c0.5-0.5,0.6-0.6,1.1-1c0.6,0.5,0.8,0.7,1.4,1.2c0.1,0,0.1,0.1,0.1,0.1
			c0,0.1-0.1,0.1-0.2,0.1H140.6z M140.2,327.4c0-0.3,0-0.6-0.1-1.1c1,0.1,1.8,0.2,2,0.3c0.1,0,0.1,0.1,0.1,0.2
			c0,0.2-0.2,0.3-0.7,0.4v1.3h3.2c0.5-0.5,0.6-0.7,1.1-1.2c0.7,0.6,0.9,0.7,1.6,1.4c0,0,0,0.1,0,0.1c0,0.1-0.1,0.1-0.1,0.1h-5.8v2.5
			h4c0.5-0.5,0.7-0.7,1.1-1.3c0.8,0.6,1,0.8,1.7,1.4c0.1,0.1,0.1,0.1,0.1,0.2c0,0.1-0.1,0.1-0.2,0.1h-12.4c-0.4,0-1.1,0-1.9,0.1
			l-0.2-0.7c0.7,0.1,1.4,0.2,2,0.2h4.5v-2.5h-3.2c-0.3,0-1.4,0.1-1.7,0.1l-0.1-0.7c0.5,0.1,1,0.2,1.8,0.2h3.2V327.4z M145.5,317.4
			h-10.3c0,0.1,0,0.9,0,2.4h10.3V317.4z"/>
	</g>
</g>
<g>
	<rect x="6.4" y="8.1" class="st1" width="55" height="362.8"/>
	<line class="st2" x1="34.1" y1="8.1" x2="34.1" y2="38.1"/>
</g>
<g>
	<path class="st3" d="M29.2,70.4h1.3c0.6-0.8,0.8-1,1.4-1.8c1,0.8,1.2,1.1,2.2,2c0.1,0.1,0.2,0.2,0.2,0.3c0,0.1-0.1,0.2-0.3,0.2
		h-4.8v2.6c1.3,0.6,2.1,1.1,3,1.7c1.2,0.9,1.5,1.3,1.5,2.1c0,1-0.3,1.8-0.7,1.8c-0.2,0-0.3-0.1-0.5-0.5c-1-2.1-1.9-3.3-3.4-4.5v4.3
		c0,6.7,0,6.7,0,8.6c0,0.2-0.1,0.3-0.2,0.3c-0.1,0-1.1,0.1-1.5,0.1c-0.2,0-0.3-0.1-0.3-0.3c0-1.4,0.1-1.7,0.1-3.1
		c0.1-3.7,0.1-4.2,0.1-5.7l0.2-4.9c-1.7,3.7-2.9,5.3-5.8,8.5l-0.3-0.2c1.8-2.6,2.6-3.9,3.6-5.9c0.8-1.7,0.8-1.7,2.1-5.1h-3.4
		c-0.5,0-1.1,0.1-1.7,0.2l-0.2-1.1c0.8,0.2,1.2,0.3,2.2,0.3h3.3v-4.3c-2,0.4-2.8,0.6-4.8,0.8l-0.2-0.4c2.7-0.7,4.1-1.2,6.2-2.1
		c1.9-0.8,2.6-1.1,3.5-1.8c2.4,1.7,2.4,1.7,2.4,1.8c0,0.2-0.2,0.3-0.5,0.3c-0.1,0-0.5-0.1-1-0.1c-1.6,0.6-2.2,0.7-3.8,1.1V70.4z
		 M36.9,86.3c0,0.1,0,0.1,0,0.1c0,0.3-0.3,0.4-0.9,0.4c-0.3,0-0.4,0-0.5,0c0,0-0.1,0-0.1,0c-0.3,0-0.4-0.1-0.4-0.4
		c0.1-2.8,0.1-3.9,0.1-7.3c0-9.3,0-11.8-0.1-13.6c1,0.6,1.2,0.8,2.2,1.4h6.4c0.5-0.6,0.7-0.7,1.2-1.3c0.7,0.5,0.9,0.7,1.6,1.3
		c0.2,0.2,0.3,0.3,0.3,0.4c0,0.2-0.3,0.4-0.9,0.8v5.8c0,6.4,0,8.3,0.2,12.2c0,0.4-0.3,0.5-1.2,0.5c-0.3,0-0.4,0-0.6,0h0
		c-0.2,0-0.3-0.1-0.3-0.3c0,0,0,0,0-0.1v-1.8h-6.8V86.3z M36.9,83.8h6.8V67.6h-6.8V83.8z"/>
	<path class="st3" d="M21.4,124.4c1.7-2.8,2.4-4.6,2.9-7.5c0.4-2.4,0.7-5.7,0.7-10.3c0-4.1-0.1-5.9-0.2-7.4c1.1,0.5,1.4,0.7,2.4,1.3
		h13.9c0.4-0.5,0.5-0.7,1-1.2c0.9,0.6,1.1,0.8,1.9,1.4c0.1,0.1,0.1,0.2,0.1,0.2c0,0.2-0.3,0.4-1.1,0.8c0,2.6,0,2.9,0,3.8
		c0,4.1,0.2,7.5,0.6,9.7c0.4,2.1,0.8,3.1,1.9,4.8c0.5-1.4,0.7-2.2,1.4-4.7l0.4,0.1l-0.4,5c0,0.4,0,0.4-0.1,0.9
		c0,0.2,0.1,0.4,0.4,0.8c0.3,0.4,0.4,0.6,0.4,1c0,0.5-0.3,0.8-0.8,0.8c-0.6,0-1.2-0.4-2-1.3c-2-2.2-3-4.9-3.4-8.7
		c-0.3-2.7-0.4-6.4-0.4-9.6c0-1,0-1.7,0.1-3.1H26.9c0,1.5,0,1.5-0.1,8c0,4.7-0.6,8-2,11.1c-0.8,1.8-1.5,2.7-3.1,4.5L21.4,124.4z
		 M34.9,115v4.6c1.8-0.3,1.8-0.3,3.7-0.7c-0.4-0.7-0.6-0.8-1.6-2.3l0.3-0.2c1.3,0.9,2.1,1.5,3,2.4c1,1,1.4,1.5,1.4,2.1
		c0,0.5-0.3,1.3-0.5,1.7c-0.1,0.1-0.3,0.2-0.4,0.2c-0.3,0-0.4-0.1-0.8-1.1c-0.3-0.7-0.4-1.1-1-2.1c-2.3,0.7-7.7,2.3-10.4,3
		c-0.1,0.6-0.3,1-0.4,1c-0.3,0-0.4-0.3-1.2-2.8c1.6-0.1,4.7-0.5,6.3-0.9V115h-3v1.1c0,0.2-0.1,0.3-0.2,0.3c-0.1,0-1,0.1-1.3,0.1
		c-0.2,0-0.3-0.1-0.3-0.3c0.1-1,0.1-1.7,0.1-2.8c0-2.7-0.1-5.2-0.1-6c0.9,0.4,1.2,0.6,2.1,1.2h2.8v-3.2c-2,0.3-3.2,0.4-5.1,0.6
		l-0.1-0.4c2.2-0.4,4.5-1,6.7-1.7c1.6-0.5,2.5-0.9,3.2-1.5c0.4,0.3,0.8,0.5,1,0.6c0.8,0.6,1.3,0.9,1.3,1.1c0,0.1-0.2,0.3-0.4,0.3
		c-0.1,0-0.1,0-0.6-0.1c-0.4-0.1-0.4-0.1-0.8-0.1c-3.1,0.8-3.1,0.8-3.6,0.9v3.5h2.8c0.4-0.5,0.5-0.6,1-1.1c0.8,0.6,1,0.7,1.6,1.3
		c0.1,0.1,0.2,0.2,0.2,0.3c0,0.1-0.2,0.3-0.9,0.7c0,0.7,0,0.7,0.1,3.1c0,1.7,0,1.7,0,2.7c0,0.2-0.1,0.3-0.3,0.3
		c-0.3,0.1-0.7,0.1-0.9,0.1c-0.3,0-0.4-0.1-0.5-0.3V115H34.9z M33.2,109.2h-3v5.1h3V109.2z M37.9,109.2h-3v5.1h3V109.2z"/>
	<path class="st3" d="M25.8,139.8c1.2,1,2,1.3,3.1,1.3c1.7,0,4.1-0.4,6.3-1.1c1.6-0.5,2.2-0.7,3-1.2c0.2-0.1,0.4-0.2,0.6-0.2
		c0.9,0,2.2,0.8,2.2,1.3c0,0.4-0.6,0.6-2,1c-3.4,0.7-5.7,1.1-7.3,1.2c1.4,0.7,1.8,1.1,1.8,1.8c0,0.2,0,0.2-0.1,0.8
		c-0.1,0.5-0.3,1.4-0.3,2.4c1.5-0.2,6.1-0.9,6.6-1c0.8-0.1,1.4-0.3,1.8-0.5c0.2-0.1,0.4-0.1,0.6-0.1c0.4,0,1.2,0.3,1.8,0.6
		c0.6,0.3,0.9,0.8,0.9,1.1s-0.3,0.5-0.9,0.5c-0.1,0-0.2,0-0.3,0c-0.5,0-1.8-0.1-2.6-0.1c-2.5,0-4.2,0.1-8,0.6
		c-0.1,1.7-0.1,2.4-0.1,3.1c0,2,0.1,2.7,0.4,3.2c0.3,0.6,1,0.9,2.3,0.9c1.9,0,3.7-0.3,4.9-0.7c0.1,0,0.2-0.1,0.3-0.1
		c0.3,0,0.9,0.2,1.3,0.6s0.7,0.6,0.7,1c0,0.4-0.3,0.6-0.8,0.7c-0.9,0.2-2.6,0.3-3.9,0.3c-3.6,0-5.2-0.5-5.9-1.9
		c-0.5-0.9-0.7-1.9-0.8-3.9c0-0.4,0-0.4,0-2.2c0-0.3,0-0.3,0-0.9c-2.1,0.3-4.2,0.8-5.2,1.2c-0.3,0.2-0.5,0.2-0.7,0.2
		c-0.4,0-0.8-0.2-1.3-0.6c-0.7-0.6-1.4-1.7-1.4-2.3c0-0.2,0.1-0.3,0.2-0.5c0.7,1.1,1.5,1.5,2.5,1.5c0.8,0,2.2-0.1,5.8-0.7
		c0-0.5,0-0.5,0-0.9c0-3.2-0.1-3.7-0.7-4.3c-0.3,0-0.5,0-0.6,0c-1.5,0-2.6-0.3-3.4-1c-0.4-0.3-0.6-0.6-1.2-1.3L25.8,139.8z"/>
	<path class="st3" d="M24.6,196.1c4-2.5,7.4-5.6,9.9-9c-0.4-0.1-0.6-0.2-1.2-1.1c-1.1-1.7-2.2-2.9-3.9-4.2c-1.7,1.7-3.5,3.2-5.2,4.2
		l-0.3-0.4c2-1.7,3.7-3.5,5.4-5.8c1.8-2.4,2.8-4.1,2.8-4.9c0-0.6-0.5-1.1-1.8-1.7c0.3-0.1,0.4-0.1,0.6-0.1c0.6,0,1.7,0.3,2.5,0.8
		c0.8,0.4,1.1,0.8,1.1,1.2c0,0.4-0.3,0.8-1.3,2.2c0.3,0.1,0.5,0.1,0.8,0.1c0.6,0,1.6-0.2,3.7-0.6c1.4-0.3,1.7-0.4,2.2-0.8
		c0.1-0.1,0.3-0.1,0.4-0.1c0,0,0,0,0,0c0.6,0.1,2.2,1.7,2.2,2.3c0,0.2-0.1,0.3-0.4,0.6c-0.3,0.3-0.5,0.5-0.9,1.3
		c-2.8,5.2-5.8,9-9.4,12c-2.4,2-5.1,3.7-7.2,4.5L24.6,196.1z M35.4,178.5c-0.5,0.2-0.6,0.2-0.9,0.2c-0.5,0-1-0.2-1.7-0.8
		c-1,1.3-1.9,2.4-3,3.5c2.5,1.1,3.3,1.5,4.3,2.4c0.8,0.9,1.1,1.5,1.2,2.3c1.8-2.4,4.1-6.5,4.8-8.7C39.1,177.5,37.5,177.9,35.4,178.5
		z M41.4,172.2c1,0.6,1.8,1.1,2.4,1.7c1,0.9,1.4,1.6,1.4,2.2s-0.3,1.2-0.8,1.2c-0.4,0-0.4,0-1.3-1.8c-0.5-1-1.4-2.2-2.1-2.9
		L41.4,172.2z M44.1,170.6c1,0.5,1.8,1,2.7,1.6c1.1,0.8,1.4,1.4,1.4,2.2c0,0.7-0.3,1.1-0.7,1.1c-0.3,0-0.4-0.1-0.6-0.6
		c-1-1.8-1.5-2.5-3.1-4L44.1,170.6z"/>
	<path class="st3" d="M25.3,212.8c2.7,0.7,4.3,1.3,5.4,2.1c0.6,0.4,1,1.1,1,1.9c0,0.9-0.3,1.6-0.8,1.6c-0.3,0-0.4-0.1-1.2-1.1
		c-1.4-1.8-2.4-2.7-4.6-4.1L25.3,212.8z M45.2,214.4c-1.4,2.6-3.1,4.8-5.9,7.5c-2.6,2.5-4.3,3.9-7.9,6.4c-1.3,0.9-1.5,1-1.7,1.3
		c-0.4,0.5-0.6,0.7-1,0.7c-1.1,0-3.3-2.7-3.3-4.1c0-0.2,0-0.3,0.1-0.6c0.6,0.8,0.6,0.9,1,1.2c0.4,0.4,0.8,0.6,1.1,0.6
		c0.5,0,1.3-0.4,2.7-1.2c3.1-1.8,4.2-2.6,6.7-4.6c3.4-2.8,5.1-4.5,7.5-7.5L45.2,214.4z"/>
	<path class="st3" d="M22.8,266.8c1.5-1.4,2.7-3.1,3.8-5.3c1.1-2.2,1.9-5.7,1.9-7.6c0-1.1-0.5-1.7-1.9-2.2c0.3-0.2,0.4-0.3,0.8-0.3
		c0.6,0,1.3,0.2,2.1,0.7c1,0.6,1.5,1.1,1.5,1.5c0,0.2-0.1,0.4-0.4,1.3c0,0.1,0,0.1-0.3,1c-0.9,2.9-1.1,3.6-1.9,5.2
		c-1.3,2.7-2.9,4.5-5.3,6L22.8,266.8z M46.7,255.6c-0.9,1.5-1.6,2.4-3.1,3.9c-1.6,1.7-4.2,4-5.9,5.1c-0.5,0.4-1.3,1-1.6,1.3
		c-0.2,0.2-0.4,0.3-0.6,0.3c-0.6,0-1.7-1.5-1.7-2.3c0-0.1,0.1-0.3,0.2-0.9c0.2-0.6,0.3-3.1,0.3-7.6c0-6.4-0.1-6.7-2.2-7.2
		c0.3-0.3,0.5-0.4,0.9-0.4c0.7,0,1.5,0.3,2.5,0.9c0.8,0.5,1.1,0.9,1.1,1.3c0,0.1,0,0.3-0.2,0.8c-0.1,0.4-0.3,1.3-0.4,2.7
		c-0.1,1.2-0.4,7.4-0.4,8.4c0,0.4,0,0.7,0.1,1.3c3.2-1.3,7.4-4.4,10.6-7.9L46.7,255.6z"/>
	<path class="st3" d="M33.4,287c0-2-0.1-2.6-0.4-3.1c-0.3-0.4-0.8-0.7-1.5-1c0.2-0.3,0.5-0.4,0.9-0.4c0.6,0,1.6,0.3,2.5,0.8
		c0.9,0.5,1.2,0.8,1.2,1.2c0,0.3-0.1,0.4-0.4,0.9c-0.3,0.4-0.3,1.7-0.3,12.3c0,5.9-0.2,6.9-1.1,6.9c-0.3,0-0.4-0.2-0.6-0.6
		c-0.2-0.4-0.3-1.4-0.3-3.5L33.4,287z"/>
	<path class="st3" d="M37.3,328.5c4.2,3.5,6.6,6.4,6.6,8.3c0,1.1-0.6,2.3-1.2,2.3c-0.2,0-0.4-0.1-0.5-0.4c-0.1-0.2-0.1-0.2-0.4-1.3
		c-0.3-0.8-0.4-1.1-0.7-1.8c-2.2,0.6-6.3,1.4-10.4,2.2c-2.4,0.5-3,0.6-3.5,0.9c-0.3,0.2-0.4,0.2-0.6,0.2c-0.4,0-0.8-0.3-1.3-0.9
		c-0.8-1.1-1.2-2.1-1.2-2.8c0-0.3,0-0.4,0.2-0.8c0.7,1.5,1.3,1.9,2.5,1.9c0.1,0,0.3,0,0.7-0.1c0.8-1.6,2.4-5.3,3.6-8.3
		c1.3-3.5,1.9-5.4,1.9-6.2c0-0.7-0.5-1.3-1.7-1.8c0.3-0.2,0.4-0.2,0.8-0.2c0.6,0,1.6,0.4,2.4,0.9c0.9,0.6,1.3,1.1,1.3,1.5
		c0,0.3,0,0.3-0.4,0.8c-0.3,0.3-0.7,1.2-1.3,2.3c-2,4-4.2,8.3-5.8,10.9c3.7-0.3,9.2-0.9,12.5-1.5c-0.4-0.9-0.8-1.7-1.7-3.1
		c-0.4-0.7-0.6-1-2.1-2.9L37.3,328.5z"/>
</g>
</svg>
