<?xml version="1.0" encoding="utf-8"?>
<!-- Generator: Adobe Illustrator 25.2.3, SVG Export Plug-In . SVG Version: 6.00 Build 0)  -->
<svg version="1.1" id="レイヤー_1" xmlns="http://www.w3.org/2000/svg" xmlns:xlink="http://www.w3.org/1999/xlink" x="0px"
	 y="0px" viewBox="0 0 118 459.9" style="enable-background:new 0 0 118 459.9;" xml:space="preserve">
<style type="text/css">
	.st0{fill:#200701;}
	.st1{fill:none;stroke:#76544B;stroke-miterlimit:10;}
</style>
<g>
	<path class="st0" d="M82.6,120.7c0.3-2.3,0.9-3.9,2.1-5.5c1.1-1.6,2.3-2.7,5.9-5.6c1.1-0.9,1.7-1.5,2.1-2.2
		c0.4-0.7,0.6-1.5,0.6-2.4c0-2.4-1.5-3.9-3.8-3.9c-1.7,0-2.9,0.8-3.3,2.2c-0.2,0.6-0.2,1-0.3,2c-0.1,1-0.4,1.2-1.3,1.2
		c-1,0-1.4-0.3-1.4-1.1c0-2.9,2.8-5,6.6-5c2.4,0,4.3,0.8,5.4,2.1c0.6,0.8,0.9,1.7,0.9,3c0,2.3-1,3.8-4.1,5.7
		c-3.5,2.2-4.3,2.7-5.5,3.9c-1.2,1.2-1.8,2.1-2.3,3.6h8.1c2,0,2.7-0.6,3.3-3l0.8,0.2l-0.8,4.9H82.6z"/>
	<path class="st0" d="M88.2,159.2c2-1.6,3.1-3.2,3.1-4.6c0-1.4-0.9-3.5-2.6-6.4c-1.9-3.1-2.4-4.1-2.7-5.2c-0.2-0.6-0.3-1.2-0.3-1.8
		c0-1.5,0.5-2.5,1.8-3.9c1-1,1.9-1.7,3-2.2l0.4,0.6c-1.5,1.1-2.2,1.8-2.7,2.6c-0.4,0.6-0.6,1.4-0.6,2c0,1.3,0.6,2.8,2.5,6
		c1.8,3.1,2.7,4.8,2.9,5.9c0.1,0.4,0.1,0.8,0.1,1.3c0,2.2-1.5,4.3-4.4,6.3L88.2,159.2z"/>
	<path class="st0" d="M90.3,183.1c1.4,0.1,2.2,0.3,3.1,0.8c1.6,0.8,2.5,2.4,2.5,4.3c0,3.4-2.8,5.7-6.9,5.7c-3.6,0-6.4-1.7-6.4-4.1
		c0-0.9,0.5-1.3,1.6-1.3c0.8,0,1.1,0.3,1.2,1.1c0.1,1.4,0.2,1.9,0.7,2.5c0.6,0.7,1.5,1,2.8,1c2.8,0,4.4-1.8,4.4-5
		c0-2-0.7-3.4-1.9-4.1c-0.8-0.4-2-0.7-3.2-0.7h-1.2v-0.9h1.2c1.1,0,2.2-0.3,3.1-0.8c1-0.7,1.6-2,1.6-3.6c0-1.1-0.3-2.1-0.7-2.8
		c-0.6-1-1.5-1.4-2.9-1.4c-2.1,0-3.2,1.1-3.3,3.3c-0.1,1.1-0.3,1.3-1.3,1.3c-1,0-1.5-0.3-1.5-1.1c0-2.4,2.8-4.4,6.1-4.4
		c3.6,0,6.2,2.1,6.2,4.9c0,1.6-0.9,3-2.3,3.8c-0.8,0.4-1.5,0.7-2.8,0.9V183.1z"/>
	<path class="st0" d="M94.7,211c0.4-0.5,0.6-0.7,1.1-1.2c0.9,0.7,1.2,1,2.1,1.7c0.1,0.1,0.2,0.3,0.2,0.3c0,0.2-0.3,0.3-1.5,0.6
		c-3.9,4.9-6,7-9.6,9.6h10.7c0.4-0.5,0.5-0.7,1-1.2c0.9,0.5,1.1,0.7,2,1.3c0.1,0.1,0.2,0.2,0.2,0.3c0,0.2-0.2,0.3-1.2,0.8
		c0,5.8,0,5.8,0.1,9c-0.1,0.3-0.3,0.4-1.1,0.4c-0.3,0-0.5,0-0.6,0c0,0,0,0-0.1,0c-0.3,0-0.3-0.1-0.4-0.3v-1.1h-11v1.1
		c-0.1,0.3-0.3,0.4-1,0.4c-0.3,0-0.4,0-0.5,0c0,0-0.1,0-0.1,0c-0.3,0-0.4-0.1-0.5-0.3c0.1-4.8,0.1-5.5,0.2-9.1
		c-2.7,1.7-4.8,2.6-8,3.6l-0.1-0.4c4.3-2.1,7.2-3.9,10.1-6.5c2-1.7,4.1-3.8,5.7-5.8c0.7-0.8,1.1-1.5,1.9-2.8h-7.3
		c-1,1.1-1.5,1.7-2.6,2.7c0.3,0.2,0.3,0.2,1.9,1.2c0.4,0.3,0.9,0.7,1.2,1.1c0.2,0.2,0.3,0.4,0.3,0.7c0,0.3-0.2,1-0.3,1.3
		c-0.1,0.2-0.4,0.5-0.6,0.5c-0.3,0-0.4-0.2-0.6-0.8c-0.4-1.4-1.2-2.6-2.2-3.7c-2.2,2.1-3.9,3.3-6.5,4.6l-0.2-0.4
		c2.7-1.9,4.5-3.7,6.9-6.6c1.7-2.2,2.6-3.6,3.3-5.2c0.6,0.2,1.1,0.4,1.5,0.5c1.5,0.5,1.8,0.6,1.8,0.8c0,0.2-0.6,0.4-1.5,0.4
		c-0.7,1-1,1.4-1.6,2.2H94.7z M86.7,230.6h11v-8h-11V230.6z"/>
	<path class="st0" d="M83,249.5c0.6-0.8,0.8-1,1.4-1.7c0.9,0.8,1.2,1.1,2,1.9c0.1,0.1,0.1,0.2,0.1,0.3s-0.1,0.1-0.3,0.1h-3.8v2
		c0.4,0.3,0.4,0.3,1.5,1c0.8,0.6,1.3,1.2,1.3,1.8c0,0.7-0.5,1.5-0.9,1.5c-0.2,0-0.3-0.2-0.4-0.6c-0.3-1.3-0.8-2.4-1.4-3.2v7.2
		c0,3.6,0,4.2,0,9c-0.1,0.4-0.3,0.4-1.5,0.4c-0.3,0-0.4-0.1-0.4-0.3c0,0,0-0.1,0-0.1c0.1-4.3,0.1-4.4,0.1-6c0-0.7,0-1.5,0-2.2
		c0-1.6,0-2.7,0.1-3.3l0.3-4.1c-0.8,2.4-1.2,3.6-2.1,5.4c-0.9,1.7-1.4,2.5-2.6,4l-0.3-0.2c1.5-2.9,2.4-5.1,3.2-7.4
		c0.5-1.6,0.5-1.6,1.2-4.9h-1.5c-0.8,0-1.5,0.1-2,0.2l-0.2-1.1c0.7,0.1,1.4,0.2,2.2,0.2h1.9v-3.2c0-1.2,0-1.7-0.2-2.8
		c2.7,0.4,3,0.5,3,0.8c0,0.2-0.3,0.4-1,0.6v4.6H83z M93.6,252.2H97c0.6-0.8,0.8-1,1.3-1.6c1,0.8,1.3,1,2.2,1.9
		c0.1,0.1,0.1,0.2,0.1,0.3s-0.1,0.1-0.3,0.1h-6.9v3.1h5.1c0.7-0.8,0.9-1.1,1.6-1.8c1.1,0.8,1.4,1.1,2.5,2c0.1,0.1,0.1,0.2,0.1,0.3
		c0,0.1-0.1,0.1-0.3,0.1h-8.9c0.8,2.1,1.2,3,2.4,4.4c1.1-1.1,1.8-2.1,2.7-3.9c1.9,1.1,2.7,1.7,2.7,1.9c0,0.1-0.2,0.3-0.4,0.3
		c0,0,0,0-0.1,0c0,0-0.1,0-0.2,0c-0.1,0-0.4,0-0.7-0.1c-1.5,1-2,1.3-3.7,2.2c1.7,2,3.7,3.2,6.4,4.4v0.3c-1.1,0.3-1.3,0.4-2.1,1.8
		c-2-1.4-3-2.4-4.6-4.7c-1.1-1.7-1.8-3-2.5-5.2v3.6c0.1,1.2,0.1,2.2,0.1,2.9c0,1.1,0.1,1.3,0.1,2.4c0,0.9-0.2,1.4-0.7,1.8
		c-0.4,0.3-0.9,0.5-2.4,0.7c-0.3-0.8-0.5-1.1-1.1-1.4c-0.6-0.3-1.4-0.4-2.7-0.6l0-0.4c1.7,0.1,1.8,0.1,4.6,0.1c0,0,0.1,0,0.1,0
		c0.3,0,0.3-0.1,0.3-0.4v-4.1c-2.5,1.6-3.8,2.3-6.4,3.6c-0.1,0.9-0.2,1.1-0.4,1.1c-0.3,0-0.5-0.5-1.3-2.7c2.6-0.5,5.5-1.4,8.1-2.6
		v-5.3h-3.8c-1.4,0-1.9,0.1-2.5,0.3l-0.2-1.1c0.7,0.2,1.5,0.3,2.7,0.3h3.8v-3.1h-3.5c-1,0-1.7,0.1-2.2,0.2l-0.2-1.1
		c0.6,0.2,1.7,0.3,2.4,0.3h3.5v-3.1h-3.2c-0.9,0-1.4,0.1-2.2,0.2l-0.2-1.1c0.9,0.2,1.6,0.3,2.4,0.3h5.2c1.2-1.7,1.8-2.9,2.5-4.8
		c2.2,1,2.7,1.3,2.7,1.5c0,0.3-0.2,0.3-1.3,0.4c-1.3,1.3-1.9,1.9-3.3,2.9h3.8c0.6-0.8,0.7-1,1.3-1.7c1.1,0.8,1.4,1.1,2.4,2
		c0,0.1,0.1,0.1,0.1,0.2c0,0.1-0.1,0.2-0.2,0.2h-8.3V252.2z M86.1,257.3c0.9,0.4,1.7,0.9,2.5,1.5c0.8,0.6,1.1,1,1.1,1.5
		c0,0.9-0.5,1.8-1,1.8c-0.2,0-0.4-0.2-0.6-0.6c-0.8-2.1-1.2-2.7-2.3-3.9L86.1,257.3z M88.1,243.8c1,0.6,1.8,1.1,2.6,1.7
		c0.7,0.5,0.9,0.8,0.9,1.3c0,0.8-0.5,1.6-1,1.6c-0.3,0-0.3-0.1-0.8-1.1c-0.5-1.2-0.9-1.9-2-3.2L88.1,243.8z"/>
	<path class="st0" d="M97.9,285.7c0.4-0.6,0.6-0.8,1-1.3c0.9,0.6,1.1,0.8,1.9,1.3c0.2,0.2,0.3,0.3,0.3,0.4c0,0.2-0.2,0.3-1,0.8v10.5
		c0,0.4,0,1.1,0,1.9c0,1.7,0,2,0,3.4c-0.1,0.8-0.3,1.1-1.1,1.6c-0.5,0.3-1.1,0.5-2.7,0.8c-0.3-1.6-0.3-1.6-4.2-2.3v-0.4
		c1.2,0.1,1.2,0.1,3,0.1c1.2,0.1,1.2,0.1,2.3,0.1c0.4,0,0.6-0.2,0.6-0.5v-15.7H80.8V300c0,0.9,0,1.3,0,4.4c-0.1,0.4-0.4,0.6-1.4,0.6
		c-0.4,0-0.6-0.1-0.6-0.3c0.1-4,0.1-4,0.1-11.7c0-6.8,0-6.8-0.1-8.6c1.1,0.5,1.5,0.7,2.5,1.3h4.1c1-2.4,1.5-3.7,2-5.8
		c0.6,0.2,1.1,0.3,1.3,0.4c2,0.6,2.1,0.6,2.1,0.9c0,0.3-0.2,0.3-1.4,0.6c-1.4,1.9-1.9,2.6-3.2,3.9H97.9z M92.4,290.3
		c0.4-0.5,0.5-0.6,0.9-1.1c0.8,0.5,1,0.6,1.7,1.1c0.2,0.2,0.2,0.3,0.2,0.3c0,0.1-0.3,0.4-0.7,0.8c0,3.9,0,6.4,0.1,7.4
		c-0.1,0.4-0.4,0.5-1.4,0.5c-0.4,0-0.5-0.1-0.6-0.3v-1.3h-6.4v1.4c0,0.4-0.3,0.5-1.3,0.5c-0.4,0-0.5-0.1-0.5-0.4
		c0.1-1.2,0.1-2,0.1-7.7c0-0.8,0-1.3-0.1-2.4c1,0.4,1.3,0.6,2.2,1.1H92.4z M86.2,297.2h6.4V291h-6.4V297.2z"/>
	<path class="st0" d="M84.9,328.7c-1.2,5-1.7,7.5-1.7,8.5c0,0.1,0,0.2,0,0.3c0,0.2,0,0.3,0,0.4c0,0.9-0.2,1.3-0.7,1.3
		c-0.4,0-0.8-0.4-1.2-1c-0.9-1.7-1.3-4.2-1.3-7.3c0-2.1,0.1-3.4,0.6-6.4c0.4-2,0.4-2.8,0.4-3.5c0-0.9-0.3-1.7-1-2.7
		c0.6,0,1.2,0.4,1.8,1.1c0.8,0.9,1.2,1.7,1.2,2.2c0,0.4,0,0.5-0.4,1.5c-1,2.7-1.5,5.3-1.5,7.8c0,2.1,0.2,3.4,0.7,4.4
		c0.3-0.8,2-5.4,2.5-6.9L84.9,328.7z M87.2,324.1c1.3,0.9,1.9,1.1,3.2,1.1c1.1,0,2.8-0.2,4-0.6c0-0.4,0-0.7,0-1
		c0-2.3-0.1-3.4-0.3-3.9c-0.3-0.6-1.1-1-2.4-1.3c0.4-0.4,0.6-0.4,1.5-0.4c2,0,3.4,0.6,3.4,1.4c0,0.1-0.1,0.4-0.1,0.7
		c-0.3,1-0.3,1.4-0.4,4c1.5-0.5,1.8-0.6,2.5-1.2c0.2-0.1,0.3-0.2,0.6-0.2c0.9,0,1.7,0.4,1.7,0.8c0,0.3-0.2,0.5-1,0.9
		c-0.9,0.4-1.8,0.7-3.8,1.2v4.1c0,4.4-0.8,6.7-2.9,8.9c-1.2,1.3-2.5,2.2-4.3,3.1l-0.2-0.4c2-1.6,3-2.7,3.9-4.3
		c1.3-2.3,1.8-4.8,1.8-9.6c0-0.6,0-0.7,0-1.4c-1.3,0.3-2.2,0.4-3.2,0.4c-1.9,0-3.1-0.6-4.4-2L87.2,324.1z"/>
	<path class="st0" d="M14.6,142.3c1.1,1,2.1,1.4,3.3,1.4c0.8,0,1.5-0.1,2.8-0.4c0-0.8,0-2.1,0-2.6c0-2.9-0.3-3.5-2.3-3.9
		c0.4-0.3,0.6-0.4,1.2-0.4c1,0,2.1,0.3,2.9,0.7c0.4,0.2,0.6,0.6,0.6,0.9c0,0.2,0,0.2-0.3,0.7c-0.4,0.8-0.7,2.1-0.9,4.2
		c1.5-0.5,2.2-0.9,3.1-1.6c0.2-0.2,0.5-0.3,0.7-0.3c0.3,0,0.7,0.1,1.1,0.3c0.3,0.1,0.5,0.4,0.5,0.6c0,0.4-0.3,0.6-1.3,1.1
		c-1.3,0.6-2.6,1-4.1,1.4c0,0.4,0,0.4-0.1,1.4c0,0.8-0.1,2-0.1,3.7c3.1-1.1,5.2-1.5,7.4-1.5c3.8,0,6.2,1.8,6.2,4.8
		c0,2.7-2.1,4.9-4.8,4.9c-2.6,0-4.4-1.7-5.4-5l0.4-0.1c0.7,1.3,1.1,1.9,1.7,2.4c0.8,0.7,1.7,1.1,2.7,1.1c2,0,3.5-1.6,3.5-3.8
		c0-2.2-1.5-3.3-4.1-3.3c-2.2,0-4.9,0.7-7.6,2c0,3,0,3,0,3.8c0,0.5,0,0.8,0,1.1c0,0.7-0.1,1.2-0.4,1.7c-0.3,0.6-0.9,1-1.3,1
		c-0.4,0-0.4,0-2.1-1.5c-0.6-0.5-1.4-1-1.9-1.3c-0.6-0.3-0.9-0.7-0.9-1.2c0-0.4,0.3-1,0.8-1.6c1-1.1,2-1.7,4.5-2.9
		c0-0.4,0-0.8,0.1-1.3c0.1-1.3,0.1-1.3,0.1-4c-0.9,0.1-1.5,0.2-2.2,0.2c-1.8,0-3-0.6-4.2-2.3L14.6,142.3z M17.6,153.6
		c-0.6,0.6-0.8,1-0.8,1.3c0,0.3,0.4,0.6,1.1,0.9c0.6,0.3,1.4,0.4,1.7,0.4c0.3,0,0.5-0.2,0.5-0.7c0.1-2.5,0.2-3.9,0.2-4.1
		C19,152.3,18.3,152.9,17.6,153.6z M30.1,139.5c1.7,0.1,3,0.4,4.1,1c1.2,0.7,2,1.6,2,2.5c0,0.5-0.3,0.8-0.8,0.8
		c-0.1,0-0.2,0-0.4-0.1c-0.4-0.1-0.5-0.1-0.6-0.1c-0.4,0-1.1,0.1-3.4,0.8l-0.2-0.3c1.7-0.9,2.7-1.5,3.1-1.8
		c-0.4-0.8-0.9-1.2-1.8-1.7c-0.6-0.3-1-0.5-1.9-0.7L30.1,139.5z"/>
	<path class="st0" d="M24.9,182.3c0.6-0.8,0.8-1,1.4-1.8c1,0.8,1.3,1.1,2.2,2c0.1,0.1,0.1,0.2,0.1,0.3c0,0.1-0.1,0.2-0.3,0.2H14.8
		c-0.8,0-1,0-2,0.1l-0.2-1c0.9,0.2,1.5,0.2,2.2,0.2h6.4c1-2.4,1.7-4.4,2-6.2c2.7,0.7,2.9,0.8,2.9,1.1s-0.4,0.4-1.3,0.4
		c-1.1,1.9-2,3.3-3.1,4.7H24.9z M24.4,174.8c0.7-0.7,0.9-1,1.5-1.7c1,0.8,1.2,1.1,2.1,1.9c0.1,0.1,0.2,0.2,0.2,0.3
		c0,0.1-0.1,0.2-0.3,0.2h-12c-1,0-1.4,0-2.2,0.1l-0.2-1c0.8,0.1,1.6,0.2,2.4,0.2h3.6v-1.7c0-0.7,0-1.1-0.1-2.1c2.6,0.2,3,0.3,3,0.6
		c0,0.3-0.3,0.4-1,0.6v2.5H24.4z M17.1,195.5c0,0.4-0.3,0.5-1.4,0.5c-0.5,0-0.6-0.1-0.6-0.4c0.1-2.3,0.1-4.3,0.1-7.3
		c0-1,0-1-0.1-3.5c0.9,0.6,1.2,0.7,2.1,1.3h6.5c0.4-0.5,0.5-0.7,0.9-1.2c0.7,0.5,1,0.7,1.7,1.2c0.2,0.1,0.2,0.3,0.2,0.4
		c0,0.2-0.2,0.4-0.8,0.6v3.3c0,0.4,0,0.4,0,2.3c0,0.6,0,1.4,0,2.5c0,0.4-0.3,0.5-1.4,0.5c-0.5,0-0.6-0.1-0.6-0.3V194h-6.7V195.5z
		 M15.5,176.1c2.2,1.7,3.3,2.9,3.3,3.8c0,0.7-0.8,1.9-1.3,1.9c-0.1,0-0.3-0.1-0.3-0.4c-0.4-2.2-0.9-3.5-2-5L15.5,176.1z M17.1,193.4
		h6.7v-6.6h-6.7V193.4z M30.7,191.3c0,0.2,0,1,0,2.1c0,0.6,0,1.6,0,2.7c0,0.2-0.1,0.3-0.2,0.4c-0.2,0.1-0.8,0.2-1.3,0.2
		c-0.4,0-0.5-0.1-0.6-0.4c0.1-4.4,0.2-12.2,0.2-18.1c0-3.4,0-4.3-0.1-6.3c0.9,0.5,1.2,0.7,2.1,1.2h4.3c0.5-0.7,0.5-0.7,1-1.4
		c0.9,0.7,1.1,0.9,2,1.5c0.2,0.2,0.3,0.3,0.3,0.4c0,0.3-0.3,0.4-1,0.5c-1.2,2.5-2.1,4.1-4.3,7.3c1.6,1.1,2.3,1.8,3.1,2.9
		c1.1,1.4,1.5,2.7,1.5,4.4c0,1.6-0.4,2.7-1.1,3.4c-0.6,0.6-1.2,0.9-2.7,1.2c-0.1-1.1-0.6-1.6-2.7-2.1l0-0.4c0.5,0.1,1,0.1,1.3,0.1
		c1.1,0.1,1.7,0.1,1.9,0.1c0.5,0,0.8-0.1,0.9-0.3c0.3-0.3,0.4-1.1,0.4-2.4c0-1.5-0.2-2.4-0.8-3.4c-0.6-1.2-1.2-1.9-2.7-3.4
		c1.3-3.1,2-5,2.7-7.9h-4.5V191.3z"/>
	<path class="st0" d="M26.2,217.4c-1.2,2-2.1,3.1-3.2,4.2c2.9-0.1,4.7-0.2,8.7-0.5c-1-0.8-1.5-1.2-2.7-2l0.2-0.3
		c2.6,1,4.2,1.7,5.3,2.5c0.6,0.4,0.9,1,0.9,1.7c0,0.7-0.3,1.3-0.6,1.3c-0.2,0-0.3,0-0.9-1c-0.3-0.4-0.7-0.9-1.5-1.6
		c-4.5,0.9-8.2,1.4-12.3,1.8c-0.1,0.9-0.2,1.1-0.5,1.1c-0.3,0-0.3,0-0.9-3c0.7,0.1,1,0.1,1.7,0.1c0.4,0,0.9,0,2,0
		c0.8-1.4,1.4-2.9,1.7-4.2h-6.3c-0.1,3.4-0.4,5.2-1.1,7.6c-0.6,2.1-1.4,4.3-2.2,5.6c-0.4,0.7-0.6,1-1.4,2l-0.4-0.3
		c0.9-1.5,1.1-2.2,1.6-3.8c0.7-2.5,1.2-5.9,1.3-9.2c0.1-1.9,0.1-3.9,0.1-6.5c0-2.5,0-3.8-0.1-5.5c1.1,0.6,1.5,0.8,2.5,1.5h15.6
		c0.5-0.6,0.6-0.8,1.1-1.4c0.8,0.5,1,0.7,1.7,1.2c0.1,0.1,0.2,0.2,0.2,0.3c0,0.1-0.1,0.2-0.1,0.3c-0.1,0.1-0.2,0.1-0.3,0.2
		c-0.1,0.1-0.2,0.2-0.4,0.3c0,0.7,0,1.3,0,1.7c0,1.1,0,1.3,0.1,3.2c-0.1,0.2-0.1,0.2-0.3,0.3c-0.4,0.1-0.9,0.1-1.3,0.1
		c-0.3,0-0.3,0-0.4-0.2v-0.8h-16l-0.1,2.9h16.1c0.8-0.7,1-0.9,1.8-1.6c0.9,0.8,1.2,1,2.2,1.9c0.1,0.1,0.1,0.1,0.1,0.2
		c0,0.1-0.1,0.2-0.3,0.2H26.2z M25.6,225c0-0.5,0-0.9-0.1-1.7c1.6,0.1,2.8,0.3,3.1,0.4c0.1,0,0.1,0.1,0.1,0.3c0,0.3-0.3,0.4-1.1,0.7
		v2h5c0.7-0.8,0.9-1,1.7-1.8c1.1,0.9,1.4,1.1,2.5,2.1c0,0.1,0,0.1,0,0.1c0,0.1-0.1,0.2-0.2,0.2h-9v3.9h6.2c0.8-0.8,1-1.1,1.8-2
		c1.2,0.9,1.5,1.2,2.7,2.2c0.1,0.1,0.2,0.2,0.2,0.3c0,0.1-0.1,0.2-0.4,0.2H18.7c-0.6,0-1.7,0.1-3,0.1l-0.3-1.1
		c1.1,0.2,2.2,0.3,3.1,0.3h7.1v-3.9h-5c-0.5,0-2.1,0.1-2.6,0.2l-0.2-1.1c0.7,0.2,1.6,0.3,2.8,0.3h4.9V225z M33.8,209.5h-16
		c0,0.1,0,1.3-0.1,3.8h16V209.5z"/>
	<path class="st0" d="M15,250.5c0.4,0.4,0.7,0.5,1.3,0.5c0.8,0,1.5-0.1,7.8-1.7c1-0.3,2.6-0.6,4.5-1c2-0.4,2.9-0.6,3.8-0.9
		c0.6-0.2,0.8-0.2,1-0.2c0.3,0,1,0.3,1.5,0.6c0.6,0.3,0.8,0.7,0.8,1.1c0,0.4-0.3,0.7-0.9,0.7c-0.1,0-0.3,0-0.5,0
		c-0.3-0.1-0.5-0.1-0.8-0.1c-4.8,0-9.4,4.6-9.4,9.4c0,2.5,1.3,4.5,3.7,5.5c0.9,0.4,2,0.6,2.8,0.7c0.6,0,0.8,0.1,1.2,0.4
		c0.5,0.5,0.8,1,0.8,1.3c0,0.4-0.4,0.8-1,0.8c-1.6,0-4.1-0.9-5.7-2c-2.1-1.5-3.2-3.7-3.2-6.3c0-2.3,1.1-4.8,3.1-6.8
		c1.1-1.2,2.2-2,4.6-3.2c-3.5,0.4-9.9,2.3-12.5,3.8c-0.6,0.3-0.8,0.4-1.1,0.4c-0.7,0-1.5-0.6-2.2-1.7c-0.4-0.7-0.7-1.4-0.7-1.9
		c0-0.2,0.1-0.4,0.3-0.8C14.3,249.8,14.6,250.2,15,250.5z M31.6,253.1c1,0.6,1.8,1.1,2.5,1.7c1,0.9,1.4,1.6,1.4,2.2
		s-0.4,1.2-0.9,1.2c-0.4,0-0.4,0-1.2-1.8c-0.5-1-1.4-2.2-2.2-3L31.6,253.1z M34.5,251.4c1,0.4,1.8,1,2.7,1.6
		c1.1,0.8,1.4,1.4,1.4,2.2c0,0.7-0.3,1.1-0.7,1.1c-0.3,0-0.4-0.1-0.6-0.5c-1-1.8-1.5-2.5-3.1-4L34.5,251.4z"/>
	<path class="st0" d="M17.5,285.9c0-2.1,0-2.8-0.1-4.6c1,0.6,1.3,0.8,2.2,1.4h11.7c0.5-0.6,0.6-0.7,1.1-1.3c0.8,0.5,1,0.7,1.8,1.3
		c0.2,0.2,0.3,0.3,0.3,0.4c0,0.2-0.3,0.4-1,0.8l0,8.9c0,2.2,0.1,6,0.2,11.6c0,0,0,0.1,0,0.1c0,0.1-0.1,0.3-0.2,0.3
		c-0.2,0.1-1,0.2-1.5,0.2c-0.4,0-0.5,0-0.5-0.2c0,0,0-0.1,0-0.1v-1.9H19.5v1.9c0,0.1,0,0.2-0.1,0.3c-0.2,0.1-1,0.3-1.7,0.3
		c-0.3,0-0.4-0.1-0.4-0.4c0.1-2.5,0.1-2.9,0.1-8.9L17.5,285.9z M31.6,283.3H19.5v8.8h12.2V283.3z M19.5,292.8v9.3h12.2v-9.3H19.5z"
		/>
	<path class="st0" d="M15.3,323.1c0,0.8,0.1,1.3,0.1,1.8c0,2.5-0.3,4-0.8,5.2c-0.3,0.6-0.7,1-1,1c-0.4,0-1-0.9-1-1.7
		c0-0.4,0.1-0.6,0.6-1.1c0.7-0.7,1-1.2,1.3-2.5c0.3-1.1,0.4-1.6,0.5-2.6H15.3z M13,341.5c1.8-2.5,2.6-4.1,3.2-6.9
		c0.6-2.4,0.8-5.2,0.8-9.9c0-4.3-0.1-6.5-0.2-8c2.5,0.3,3.3,0.6,3.3,0.9c0,0.3-0.1,0.3-1.2,0.8v6c0,2.1-0.2,5.4-0.4,7.3
		c-0.3,2.6-1.1,4.7-2.4,6.9c-0.8,1.2-1.3,1.8-2.9,3.2L13,341.5z M29.9,334.4l0,7.3c0,0.2,0,0.3-0.1,0.4c-0.2,0.1-0.7,0.2-1.4,0.2
		c-0.3,0-0.4-0.1-0.4-0.3c0-0.8,0-0.8,0-2.4c0-1,0-1,0-5.2v-2.1h-3.8v6.3c0,0.1,0,0.7,0,1.3c0,0.4-0.3,0.5-1.3,0.5
		c-0.4,0-0.5-0.1-0.5-0.3c0-1.6,0-2,0-3.3c0-3.1,0-5.2-0.1-6.4c0.9,0.5,1.1,0.6,1.9,1.2h3.8v-3.3h-6.3c-0.1,1.3-0.2,1.9-0.6,2.7
		c-0.3,0.6-0.7,1.1-1,1.1c-0.4,0-0.8-0.7-0.8-1.5c0-0.3,0.1-0.4,0.4-0.8c0.3-0.3,0.8-0.9,1.1-1.5c0.2-0.5,0.4-1.1,0.5-2h0.5
		c0,0.5,0,0.9,0,1.3h13.6c0.5-0.5,0.6-0.7,1.2-1.2c0.9,0.7,1.1,0.9,2,1.6c0.2,0.2,0.3,0.3,0.3,0.4c0,0.2-0.1,0.2-1.3,0.6
		c-0.4,0.4-0.4,0.4-1.2,1.1c-0.6,0.5-0.6,0.5-0.8,0.8c0.4,0.3,0.6,0.4,1.1,0.8c0.2,0.1,0.3,0.2,0.3,0.3c0,0.1-0.3,0.4-1,0.8v2.7
		c0,0.2,0,0.7,0,1.5c0,0.3,0,0.7,0,1.2c0,0.8-0.3,1.2-1,1.5c-0.4,0.2-0.9,0.3-1.9,0.5c-0.1-0.6-0.2-0.9-0.6-1.2
		c-0.3-0.3-0.7-0.4-1.8-0.6l0-0.4c2,0.2,2,0.2,3.1,0.2c0.3,0,0.3-0.1,0.3-0.4v-5.5h-4.1V334.4z M33.1,318.5c0.5-0.5,0.6-0.7,1.1-1.2
		c0.7,0.5,0.9,0.6,1.6,1.2c0.1,0.1,0.2,0.2,0.2,0.3c0,0.2-0.3,0.4-0.9,0.8v2.2c0,0.5,0,1,0.1,3.9c0,0.2-0.1,0.3-0.2,0.4
		c-0.1,0.1-1,0.1-1.3,0.1c-0.3,0-0.3-0.1-0.3-0.3v-0.7h-9.3c-0.6,0-0.9,0-1.5,0.2l-0.2-1.1c1.1,0.3,1.3,0.3,1.8,0.3h9.1v-2.6h-8.7
		c-0.5,0-0.8,0-1.6,0.1l-0.2-1.1c0.9,0.2,1.3,0.3,2,0.3h8.5v-2.4h-9.2c-0.6,0-0.9,0-1.7,0.2l-0.2-1.1c1,0.2,1.3,0.3,2,0.3H33.1z
		 M33.7,331.6c0.3-0.5,0.4-0.6,0.8-1.1l0.4,0.3c0.3-0.9,0.5-1.5,0.6-2.4h-5.7v3.3H33.7z"/>
	<path class="st0" d="M22.4,378.3c2-1.2,3.2-2.3,4.5-3.9c2-2.6,2.9-5.8,2.9-9.4c0-2.4-0.4-4.7-1-5.8c-0.5-0.8-1.2-1.2-2-1.2
		c-1.4,0-2.7,1.2-3.7,3.5c-0.8,1.8-1.3,4.1-1.3,6c0,0.5,0,0.8,0.1,1.7c0,0.2,0,0.4,0,0.6c0,0.5-0.3,0.8-0.7,0.8
		c-1.1,0-1.8-2.3-1.8-5.7c0-2.3,0.2-3.8,0.9-7.5c0.2-1.1,0.3-1.7,0.3-2c0-0.9-0.4-1.4-1.5-2c0.2-0.1,0.4-0.1,0.5-0.1
		c0.6,0,1.5,0.4,2.2,0.9c0.8,0.6,1.1,1,1.1,1.6c0,0.4-0.1,0.5-0.4,1.1c-1.1,1.8-2,5.7-2,8.3c0,0.3,0,0.5,0,1h0.1
		c0.8-3.6,1.9-5.9,3.2-7.3c1-1.1,2.2-1.7,3.4-1.7c2.7,0,4.6,3.3,4.6,8c0,3.6-1,6.7-3.1,9.2c-1.7,2-3.5,3.4-6.2,4.4L22.4,378.3z"/>
	<path class="st0" d="M20,389.9c1.2,0.3,1.6,0.6,1.6,0.9c0,0.3-0.3,0.4-1.2,0.4c-0.2,0.4-0.4,0.9-0.5,1.1c-1.8,3.8-2,4.2-3,5.9
		c1.6,0.1,1.9,0.2,1.9,0.4c0,0.2-0.3,0.3-0.8,0.5v5.9c0,6.4,0,6.4,0.1,9.3c-0.1,0.3-0.4,0.4-1.2,0.4c-0.1,0-0.2,0-0.3,0
		c-0.1,0-0.1,0-0.1,0c-0.4,0-0.5-0.1-0.5-0.3c0,0,0-0.1,0-0.1c0.1-1.7,0.1-1.7,0.2-9.5v-5.5c-1.2,1.7-2.1,2.9-3.6,4.3l-0.4-0.3
		c1.7-2.4,3.1-4.7,4.4-8c1.1-2.6,1.7-4.3,1.9-5.9L20,389.9z M27.1,392.1c0-0.8,0-1.3-0.1-2.5c0.7,0.1,1.2,0.1,1.5,0.2
		c1.2,0.1,1.8,0.3,1.8,0.6c0,0.2-0.4,0.4-1.2,0.6v5.3h4.6c0.7-0.9,0.9-1.2,1.7-2.1c1.2,1,1.6,1.3,2.7,2.4c0.1,0.1,0.1,0.1,0.1,0.2
		c0,0.1-0.1,0.2-0.3,0.2h-8.6c0.6,1.8,1.3,3,2.4,4.5c1.3,1.8,2.9,3.3,4.5,4.5c0.8,0.5,1.3,0.8,2.6,1.4l-0.1,0.4
		c-1,0.1-1.6,0.6-2.2,1.7c-1.9-1.6-3.2-3.1-4.6-5.1c-1.1-1.7-1.7-3.1-2.8-6.2l0.1,5.7c0,1.5,0,1.5,0,6.4c0,2,0,2,0.1,4.3
		c0,0.3-0.1,0.4-0.4,0.4c-0.2,0.1-1,0.1-1.3,0.1c-0.4,0-0.5-0.1-0.5-0.4c0.1-4,0.1-5.7,0.2-10.8l0.1-5.7c-1.3,3.2-2.5,5.3-4.3,7.5
		c-1.4,1.8-2.6,2.9-4.6,4.3l-0.3-0.4c2.2-2,3.6-3.8,5.4-7.2c1.1-2.1,1.7-3.2,2.4-5.3h-4.6c-0.9,0-1.4,0-2.5,0.2l-0.2-1.1
		c1,0.2,1.4,0.3,2.7,0.3h5.6V392.1z"/>
	<path class="st0" d="M20.4,432.2h2.5c0.6-0.7,0.8-0.9,1.3-1.5c0.9,0.8,1.1,1,1.9,1.8c0,0.1,0.1,0.1,0.1,0.2c0,0.1-0.1,0.2-0.3,0.2
		h-5.5v3h2.1c0.4-0.4,0.5-0.6,1-1c0.6,0.4,0.8,0.6,1.4,1.1c0.2,0.2,0.3,0.3,0.3,0.4c0,0.2-0.2,0.3-0.8,0.6c0,3.2,0,3.3,0.1,4.6
		c0,0.4-0.1,0.4-1.3,0.5c-0.3,0-0.3-0.1-0.3-0.3v-0.5h-6.2v0.7c0,0,0,0.1,0,0.1c0,0.1-0.1,0.2-0.1,0.3c-0.1,0.1-0.9,0.2-1.3,0.2
		c-0.2,0-0.3-0.1-0.3-0.2c0.1-1.7,0.1-2.1,0.1-4.4c0-1.5,0-1.9-0.1-3.1c1,0.4,1.3,0.6,2.2,1.1h1.7v-3h-3.3c-1.1,0-1.6,0-2.3,0.2
		l-0.1-1.1c0.8,0.2,1.4,0.3,2.6,0.3h3.1v-2.9c-1.6,0.3-2.7,0.4-5.1,0.6l-0.1-0.4c2.5-0.6,4-1,6-1.8c1.8-0.6,2.4-1,3.2-1.5
		c1.8,1,2.4,1.4,2.4,1.6c0,0.2-0.2,0.3-0.5,0.3c-0.4,0-0.8,0-1.2-0.1c-1.5,0.5-2,0.6-3,0.9V432.2z M17.7,443.5
		c-0.1,2.5-0.7,4.4-1.6,5.5c-0.5,0.6-1.3,1.2-1.7,1.2c-0.5,0-0.9-0.7-0.9-1.6c0-0.5,0.1-0.6,0.8-0.9c0.7-0.3,1.3-0.8,1.8-1.5
		c0.6-0.8,0.9-1.4,1.2-2.8L17.7,443.5z M16.5,440.6h6.2v-4.1h-6.2V440.6z M20,445.2c0-1.4,0-1.6-0.1-2.5c2.4,0.3,3.1,0.5,3.1,0.7
		s-0.3,0.4-1.1,0.6v4.3c0,0.4,0.1,0.5,0.3,0.5c0.3,0.1,2,0.1,4.1,0.1c3.1,0,3.3,0,3.6-0.4c0.3-0.4,0.8-1.6,1.6-4.1l0.3,0.1l-0.3,3.4
		c0,0.1,0,0.2,0,0.3c0,0.3,0,0.4,0.6,0.6c0.3,0.1,0.5,0.4,0.5,0.6c0,0.5-0.3,0.8-1,0.9c-0.5,0.1-2.4,0.2-5.4,0.2
		c-4.3,0-5.2-0.1-5.7-0.4c-0.1-0.1-0.3-0.3-0.3-0.6c0-0.1,0-0.1,0-1.2V445.2z M24,442.6c1.6,0.7,2.7,1.3,3.4,1.8
		c0.6,0.4,0.8,0.8,0.8,1.3c0,0.8-0.4,1.5-0.8,1.5c-0.3,0-0.3-0.1-0.8-0.8c-0.5-0.9-1.5-2.1-2.9-3.4L24,442.6z M34.5,429
		c0.4-0.5,0.6-0.6,1.1-1.1c0.7,0.5,0.9,0.6,1.5,1.1c0.2,0.2,0.3,0.3,0.3,0.4c0,0.2-0.2,0.4-0.9,0.7c0,1.4,0,2.9,0,4.6
		c0,2.3,0,2.4,0,2.8c0,1.5,0,2.4,0.1,4.7c0,0,0,0.1,0,0.1c0,0.1,0,0.2-0.1,0.3c-0.1,0.1-0.9,0.2-1.4,0.2c-0.2,0-0.3-0.1-0.3-0.3
		v-1.3h-6.4v1c0,0.3-0.2,0.4-0.9,0.5c-0.3,0-0.4,0-0.5,0c0,0-0.1,0-0.1,0c-0.3,0-0.4-0.1-0.4-0.3v0c0.1-2.6,0.1-4.1,0.1-5.6
		c0-6.4,0-7.5-0.1-8.9c0.9,0.5,1.2,0.6,2,1.1h1.3c0.5-1.4,0.7-2,0.9-3.1c2.6,0.7,2.9,0.8,2.9,1c0,0.2-0.4,0.4-1.2,0.4
		c-0.3,0.3-0.5,0.5-0.6,0.6c-0.7,0.6-0.8,0.8-1.3,1.1H34.5z M34.8,432.7v-3.1h-6.4v3.1H34.8z M28.3,433.3v3h6.4v-3H28.3z M28.3,437
		v3.6h6.4V437H28.3z M33,443.4c1.2,0.7,2.3,1.5,3.6,2.7c0.8,0.7,1,1.1,1,1.8c0,1.1-0.5,2-1,2c-0.4,0-0.4-0.1-0.8-1.1
		c-0.6-1.6-1.3-2.8-3.1-5.2L33,443.4z"/>
</g>
<line class="st1" x1="89.5" y1="6.5" x2="89.5" y2="66.5"/>
</svg>
