<?xml version="1.0" encoding="utf-8"?>
<!-- Generator: Adobe Illustrator 25.2.3, SVG Export Plug-In . SVG Version: 6.00 Build 0)  -->
<svg version="1.1" id="レイヤー_1" xmlns="http://www.w3.org/2000/svg" xmlns:xlink="http://www.w3.org/1999/xlink" x="0px"
	 y="0px" viewBox="0 0 191.6 347.7" style="enable-background:new 0 0 191.6 347.7;" xml:space="preserve">
<style type="text/css">
	.st0{fill:#200701;}
	.st1{fill:#210100;}
	.st2{fill:none;stroke:#76544B;stroke-miterlimit:10;}
	.st3{fill:#FFFFFF;}
</style>
<g>
	<g>
		<path class="st0" d="M168.6,157c0-1.2,0.1-6.3,0.1-9.9c0-3.5,0-4.9-0.1-5.9c0.6,0.3,0.8,0.4,1.4,0.8h1.8c0.3-0.3,0.4-0.4,0.7-0.7
			c0.5,0.4,0.6,0.5,1.1,1c0.1,0.1,0.2,0.2,0.2,0.3c0,0.1-0.2,0.2-0.6,0.3c-0.3,0.8-1.3,2.7-2.1,4.1c0.9,0.9,1.1,1.2,1.4,1.7
			c0.3,0.6,0.6,1.6,0.6,2.4c0,0.9-0.3,1.8-0.7,2.2c-0.4,0.4-0.7,0.5-1.5,0.6c0-0.8-0.3-1.1-1.1-1.3v1.2c0,0.5,0,0.9,0,3.3
			c0,0.2-0.1,0.3-0.3,0.3c-0.2,0-0.5,0.1-0.6,0.1C168.7,157.3,168.6,157.2,168.6,157L168.6,157z M169.8,152.1
			c0.7,0.2,1.2,0.2,1.5,0.2c0.3,0,0.4-0.1,0.5-0.4c0.2-0.4,0.3-0.9,0.3-1.4c0-1.3-0.4-2.4-1.4-3.5c0.6-1.9,1-3.4,1.3-4.5h-2.1V152.1
			z M182.3,150l0,5.3c0,1.1-0.2,1.3-2.4,1.8c0-0.6-0.2-0.8-0.6-1c-0.3-0.2-0.7-0.2-2.2-0.4v-0.3c0.5,0,1.7,0.1,3.5,0.2
			c0.3,0,0.3-0.1,0.3-0.3v-12.3h-5.6c-0.3,0-0.6,0-1.2,0.1l-0.2-0.6c0.6,0.1,1,0.1,1.4,0.1h6c0.5-0.5,0.6-0.7,1.1-1.2
			c0.7,0.5,1,0.7,1.7,1.4c0,0.1,0.1,0.1,0.1,0.1c0,0.1-0.1,0.1-0.2,0.1h-1.9V150z M175.3,152.4c0,0.2-0.1,0.2-0.2,0.3
			c-0.1,0-0.5,0.1-0.6,0.1c-0.2,0-0.3-0.1-0.3-0.2c0.1-2,0.1-2.2,0.1-3c0-2.8,0-3.6-0.1-4.4c0.6,0.3,0.8,0.4,1.3,0.8h2.3
			c0.3-0.3,0.4-0.4,0.6-0.7c0.4,0.3,0.5,0.4,0.9,0.8c0.1,0.1,0.2,0.2,0.2,0.3c0,0.1-0.1,0.2-0.5,0.4c0,2.4,0,2.4,0,5.3
			c0,0.1,0,0.2-0.1,0.3c-0.1,0-0.5,0.1-0.7,0.1c-0.2,0-0.3,0-0.3-0.2v-0.8h-2.5V152.4z M175.3,150.8h2.5v-4.5h-2.5V150.8z"/>
		<path class="st0" d="M171.1,175.5c1.2-0.2,1.4-0.3,2.1-0.4v-6.4c0-0.6,0-0.7,0-1.1c0.8,0.1,1.6,0.2,1.8,0.3c0.1,0,0.2,0.1,0.2,0.2
			c0,0.2-0.1,0.2-0.8,0.4v2.2h1.1c0.5-0.5,0.6-0.7,1-1.2c0.6,0.5,0.8,0.7,1.4,1.3c0.1,0.1,0.1,0.1,0.1,0.2c0,0.1-0.1,0.1-0.2,0.1
			h-3.4v3.8c1.7-0.4,2.5-0.6,4-1l0.1,0.2c-1.4,0.7-2.3,1-5.2,1.9c-1.3,0.4-1.8,0.5-4.4,1.2c-0.1,0.6-0.2,0.8-0.4,0.8
			c-0.2,0-0.2,0-0.8-2.1c0.8,0,1.1-0.1,2.2-0.3v-5.3c0-0.8,0-0.9,0-1.4c1.6,0.2,1.9,0.3,1.9,0.4c0,0.2-0.1,0.2-0.7,0.4V175.5z
			 M181.4,166.4c0.4-0.5,0.6-0.7,1-1.2c0.7,0.6,0.9,0.8,1.6,1.4c0,0,0.1,0.1,0.1,0.1c0,0.1-0.1,0.1-0.2,0.1h-4.9
			c0.1,1.9,0.3,3.1,0.7,4.4c0.4,1.2,0.9,2.3,1.4,3.1c0.3,0.4,0.6,0.8,1.3,1.5c0.3-0.6,0.4-0.7,0.6-1.4l0.6-1.7l0.2,0l-0.5,2.8
			c0,0.1,0,0.1,0,0.2c0,0.1,0,0.3,0,0.3c0,0.2,0.1,0.3,0.3,0.6c0.2,0.2,0.2,0.3,0.2,0.5c0,0.3-0.2,0.5-0.5,0.5c-0.8,0-2-1-3-2.3
			c-1.5-2.2-2.3-4.9-2.6-8.7h-8.4c-0.5,0-1,0-1.4,0.1l-0.1-0.7c0.5,0.1,0.9,0.2,1.5,0.2h8.4c-0.1-0.8-0.1-1.4-0.1-2.2
			c0-1.2-0.1-1.6-0.1-2.3c0.4,0.1,0.6,0.1,0.8,0.1c1,0.1,1.2,0.2,1.2,0.3s-0.1,0.2-0.6,0.4c0,0.5,0,0.8,0,1.2c0,0.8,0,1.7,0.1,2.6
			H181.4z M169.4,163.7c0.4,0.1,0.7,0.1,1.4,0.1h3.4c0.5-0.5,0.6-0.7,1.1-1.2c0.6,0.6,0.8,0.7,1.4,1.3c0.1,0.1,0.1,0.1,0.1,0.2
			c0,0.1-0.1,0.1-0.2,0.1h-5.8c-0.5,0-0.9,0-1.3,0.1L169.4,163.7z M179.6,162.7c0.9,0.3,1.5,0.7,2.1,1.2c0.3,0.2,0.4,0.5,0.4,0.7
			c0,0.5-0.3,1-0.6,1c-0.1,0-0.2-0.1-0.5-0.6c-0.1-0.3-0.6-1-0.9-1.5c-0.2-0.3-0.3-0.4-0.6-0.7L179.6,162.7z"/>
		<path class="st0" d="M169.3,195.3c0,1.4,0,2.4,0.1,3.4c0,0.2-0.2,0.3-0.6,0.3c-0.1,0-0.2,0-0.2,0c0,0,0,0,0,0
			c-0.2,0-0.3-0.1-0.3-0.3c0.1-1.9,0.1-6,0.1-8.7c0-2.1,0-4.2-0.1-7.3c0.6,0.3,0.8,0.4,1.3,0.8h2.1c0.3-0.3,0.3-0.4,0.6-0.7
			c0.5,0.4,0.6,0.5,1.1,0.9c0.1,0.1,0.1,0.1,0.1,0.2c0,0.2,0,0.2-0.6,0.3c-1.1,2.2-1.6,3.2-2.1,4.1c0.8,0.9,1.2,1.6,1.6,2.5
			c0.2,0.5,0.3,1,0.3,1.7c0,0.8-0.3,1.6-0.8,2.1c-0.3,0.3-0.6,0.4-1.1,0.5c-0.3-0.8-0.4-0.9-1.2-1.1V195.3z M169.3,193.6
			c0.6,0.1,1,0.1,1.2,0.1c0.4,0,0.5,0,0.6-0.2c0.1-0.2,0.3-0.9,0.3-1.4c0-1.6-0.3-2.4-1.4-3.7c0.7-1.5,1.2-3,1.5-4.4h-2.2V193.6z
			 M175.2,191.9v4.8c1.1-0.2,1.8-0.3,3.5-0.8l0.1,0.3c-1.9,0.8-3,1.2-5.6,2c-0.1,0.6-0.1,0.8-0.3,0.8s-0.3-0.2-0.7-1.8
			c0.5-0.1,0.6-0.1,1.2-0.2c0.2,0,0.2,0,0.6-0.1v-5H174c-0.5,0-0.7,0-1.2,0.1l-0.2-0.6c0.3,0.1,0.3,0.1,1.4,0.1h7.7
			c0.4-0.5,0.6-0.6,1-1.1c0.6,0.5,0.8,0.7,1.4,1.3c0,0.1,0.1,0.1,0.1,0.1c0,0.1-0.1,0.1-0.2,0.1h-6.6c0.4,1.2,0.9,1.9,1.9,2.8
			c1.2-1.1,1.4-1.3,2.2-2.6c0.3,0.2,0.5,0.3,0.7,0.4c0.7,0.4,0.9,0.5,0.9,0.6c0,0.1-0.1,0.1-0.2,0.1c0,0,0,0,0,0
			c-0.4-0.1-0.6-0.1-0.6-0.1c-1,0.8-1.4,1-2.7,1.6c1.4,1.2,2.6,1.7,4.8,2.1v0.3c-0.8,0.2-1.1,0.5-1.4,1.3c-1.1-0.5-1.5-0.8-2.4-1.6
			c-1.7-1.5-2.6-2.8-3.2-4.5c-0.1-0.2-0.1-0.3-0.2-0.6H175.2z M174.9,190.2c-0.1,0.3-0.3,0.3-0.8,0.3c-0.2,0-0.3-0.1-0.3-0.3
			c0-2.2,0.1-3.2,0.1-4.6c0-1.2,0-1.6-0.1-2.5c0.6,0.3,0.7,0.4,1.3,0.8h6c0.3-0.4,0.4-0.5,0.8-0.8c0.5,0.3,0.6,0.4,1,0.8
			c0.1,0.1,0.2,0.2,0.2,0.3c0,0-0.1,0.1-0.1,0.2c-0.1,0.1-0.1,0.1-0.5,0.3c0,2.7,0,2.7,0.1,5.3c0,0.3-0.2,0.3-1.1,0.3
			c-0.1,0-0.2-0.1-0.2-0.2v-0.4h-6.3V190.2z M177.5,184.3h-2.6v2.1h2.6V184.3z M177.5,186.9h-2.6v2.4h2.6V186.9z M181.3,186.4v-2.1
			h-2.7v2.1H181.3z M178.6,189.2h2.7v-2.4h-2.7V189.2z"/>
		<path class="st0" d="M170,218v1.2c0,0.3-0.1,0.3-0.7,0.3c-0.2,0-0.3,0-0.3,0c0,0,0,0,0,0c-0.2,0-0.3-0.1-0.3-0.3
			c0.1-2.3,0.1-3.9,0.1-6.6c0-2.6,0-4.1-0.1-5.3c1.7,0.3,1.9,0.3,1.9,0.5c0,0.1-0.1,0.2-0.6,0.4v9.3h4.9v-11.4c0-0.5,0-1.6-0.1-2.1
			c1.7,0.2,1.8,0.2,2,0.3c0.1,0.1,0.2,0.1,0.2,0.2c0,0.1-0.1,0.2-0.8,0.4l0,12.6h5.2v-8.3c0-0.6,0-1.2-0.1-1.9
			c0.4,0.1,0.7,0.1,0.9,0.1c0.9,0.1,1.2,0.2,1.2,0.4s-0.2,0.3-0.7,0.5l0,5.2c0,1,0,1.9,0.1,5.7c0,0.3-0.1,0.3-0.7,0.3
			c-0.1,0-0.3,0-0.3,0c0,0,0,0,0,0c-0.2,0-0.3-0.1-0.3-0.3V218H170z"/>
		<path class="st0" d="M167.7,239.7c1.4-1.3,2.5-2.4,3.3-3.3c0.5-0.7,0.9-1.2,1-1.5c0.3,0.1,0.6,0.2,0.8,0.3c1,0.4,1.1,0.4,1.1,0.6
			c0,0.1-0.2,0.2-0.4,0.2c0,0-0.1,0-0.1,0c-0.1,0-0.3,0-0.5,0c-0.3,0.5-0.8,1-1.8,1.8c-1.1,0.9-1.9,1.5-3.2,2.2L167.7,239.7z
			 M168.4,226.8c2.9-0.3,4.6-0.6,7.7-1.4c2.2-0.5,3.1-0.8,3.8-1.3c0.3,0.2,0.5,0.4,0.6,0.5c0.7,0.5,0.9,0.7,0.9,0.9
			c0,0.1-0.1,0.1-0.2,0.1c-0.1,0-0.4-0.1-0.8-0.2c-1.5,0.4-2.6,0.7-4.9,1c0.8,0.3,1.1,0.5,1.1,0.7c0,0,0,0,0,0
			c0,0.1-0.2,0.2-0.4,0.2c-0.1,0-0.2,0-0.5-0.1c-1.6,1.5-1.6,1.5-2.6,2.2c0.7,0.4,1,0.8,1,1.2c0,0.6-0.2,1.1-0.4,1.1
			c-0.1,0-0.2-0.1-0.5-0.5c-0.6-1-1.5-1.9-2.8-2.8l0.2-0.2c0.8,0.3,1.4,0.6,2.3,1c0.7-0.7,1.2-1.4,1.9-2.7c-2.9,0.4-4.2,0.5-6.4,0.5
			L168.4,226.8z M175,233.8c-1,0.1-1.9,0.2-2.4,0.2c-1.9,0.2-2.2,0.2-3.1,0.3c-0.1,0.1-0.1,0.2-0.1,0.3c-0.1,0.5-0.2,0.6-0.4,0.6
			c-0.2,0-0.3-0.2-0.6-2.1c0.6,0,0.9,0.1,1.5,0.1c0.3,0,1,0,2,0c0.4,0,1.1,0,1.9-0.1c1.5-1.4,1.9-1.7,3.1-3.1
			c1.2-1.3,1.5-1.7,2.1-2.6c1.5,1,1.7,1.1,1.7,1.3c0,0.1-0.1,0.2-0.3,0.2c-0.1,0-0.5-0.1-0.7-0.1c-1.5,1.5-3,2.7-5.2,4.3
			c2.5-0.1,3.3-0.1,6.3-0.3c-0.5-0.6-0.8-0.9-1.6-1.6l0.2-0.2c1.6,0.9,2.2,1.3,3.3,2.2c0.5,0.5,0.6,0.7,0.6,1.2
			c0,0.6-0.2,1.1-0.5,1.1c-0.1,0-0.3-0.1-0.5-0.5c-0.5-0.8-0.8-1.3-1.2-1.8c-0.2,0-0.4,0.1-0.5,0.1c-0.7,0.1-0.7,0.1-1.7,0.2
			c-1.3,0.2-2.3,0.3-2.8,0.3v3.9c0,0.7,0,1.9,0.1,2.7c0,0.2-0.2,0.3-0.8,0.3c-0.1,0-0.1,0-0.2,0c-0.3,0-0.4-0.1-0.4-0.3
			c0-0.5,0-0.9,0-1.5c0-1.1,0-1.1,0-1.3V233.8z M177.9,234.9c1.2,0.5,2.9,1.6,3.9,2.4c0.4,0.3,0.5,0.6,0.5,1.2
			c0,0.6-0.2,1.1-0.5,1.1c-0.1,0-0.2-0.1-0.3-0.3c-0.8-1.3-2.3-3-3.7-4.2L177.9,234.9z"/>
		<path class="st0" d="M169.5,248.5c0.9,0.7,1.3,0.8,2.3,0.8c0.6,0,1.1-0.1,1.9-0.2c0.4-0.8,0.6-1.4,0.6-1.8c0-0.5-0.3-0.8-1.3-1
			c0.3-0.2,0.5-0.2,0.8-0.2c0.4,0,0.9,0.1,1.4,0.3c0.5,0.2,0.6,0.4,0.6,0.6c0,0.1-0.1,0.3-0.3,0.5c-0.2,0.2-0.4,0.5-0.5,0.7
			c-0.3,0.5-0.3,0.5-0.5,0.7c1.5-0.4,2-0.6,2.6-1.2c0.1-0.1,0.2-0.1,0.3-0.1c0.7,0,1.2,0.3,1.2,0.6c0,0.2-0.2,0.4-0.8,0.6
			c-1.6,0.5-2.5,0.7-3.9,1c-0.3,0.5-0.5,0.8-1,1.4c-0.5,0.8-0.6,1-1,1.4c1-0.5,1.6-0.7,2.3-0.7c1.1,0,1.9,0.7,2,1.8
			c0.3-0.1,0.3-0.1,1.8-0.9c1.8-0.9,2.2-1.2,2.2-1.5c0-0.3-0.3-0.6-0.8-0.8c0.2-0.1,0.3-0.1,0.4-0.1c0.8,0,2,1.1,2,1.8
			c0,0.3-0.1,0.5-0.6,0.6c-1.1,0.3-3.4,1.2-4.8,1.9c0,0.6,0,0.7,0,1.5c0,0.8-0.1,1.4-0.1,1.5c-0.1,0.2-0.3,0.3-0.5,0.3
			c-0.3,0-0.6-0.2-0.6-0.5c0-0.1,0-0.2,0-0.3c0.1-0.5,0.1-1.1,0.1-1.9c-1.1,0.6-1.6,1-2.1,1.4c-0.6,0.6-0.9,1.1-0.9,1.7
			c0,1,1,1.4,3,1.4c1.3,0,2.5-0.2,3.6-0.5c0.1,0,0.3-0.1,0.3-0.1c0.6,0,1.3,0.5,1.3,0.9c0,0.2-0.2,0.4-0.6,0.5
			c-0.7,0.1-2.1,0.3-3.2,0.3c-1.7,0-2.9-0.2-3.7-0.5c-0.9-0.4-1.3-1-1.3-1.9c0-0.8,0.4-1.6,1.3-2.5c0.5-0.4,1-0.9,2.2-1.6
			c0-0.8-0.1-1-0.3-1.4c-0.2-0.3-0.5-0.5-0.9-0.5c-1.2,0-2.6,1-3.9,2.6c-0.3,0.5-0.5,0.6-0.7,0.6c-0.3,0-0.5-0.4-0.5-1
			c0-0.4,0-0.4,0.5-0.8c1.3-1,2.1-1.9,3.3-3.9c-0.6,0.1-0.8,0.1-1.2,0.1c-1.2,0-1.9-0.3-2.7-1.4L169.5,248.5z"/>
		<path class="st0" d="M167.6,273.9c0.8,0.1,1.2,0.1,2.4,0.1h10.6c0.5-0.7,0.7-0.9,1.2-1.5c0.9,0.7,1.2,1,2.1,1.7
			c0,0,0.1,0.1,0.1,0.1c0,0.1-0.1,0.1-0.2,0.1h-13.8c-1.1,0-1.4,0-2.2,0.1L167.6,273.9z"/>
		<path class="st0" d="M174,289.3c0.4-0.4,0.5-0.6,0.8-1.1c0.6,0.5,0.8,0.7,1.3,1.2c0.1,0.1,0.1,0.1,0.1,0.1c0,0.1-0.1,0.1-0.2,0.1
			h-5.6v3.8c0,0.3,0,0.3,0.1,0.4c0.2,0.1,0.7,0.1,1.5,0.1c1,0,1.6,0,1.8-0.1c0.2-0.1,0.3-0.1,0.3-0.1c0.3,0,0.8,0.5,0.8,0.8
			c0,0.3-0.5,0.3-2.8,0.3c-1.4,0-2.1-0.1-2.4-0.2c-0.3-0.1-0.4-0.4-0.4-1.1v-4h-0.4c-0.4,0-0.6,0-1.2,0.1l-0.1-0.7
			c0.6,0.1,0.9,0.2,1.3,0.2h2.3v-1.2c0-0.3,0-0.5-0.1-1.1c1.8,0.2,2,0.3,2,0.4c0,0.1-0.2,0.2-0.7,0.4v1.4H174z M176.2,299.5h3.5
			c0.4-0.5,0.5-0.6,1-1.1c0.5,0.4,1,0.8,1.4,1.3c0.1,0,0.1,0.1,0.1,0.1c0,0.1-0.1,0.1-0.2,0.1h-5.8v2.3h5c0.5-0.5,0.6-0.7,1.1-1.2
			c0.7,0.6,1,0.8,1.6,1.4c0.1,0.1,0.1,0.1,0.1,0.1c0,0.1-0.1,0.1-0.2,0.1h-14.3c-0.5,0-0.8,0-1.6,0.1l-0.1-0.7
			c0.5,0.1,1.1,0.2,1.7,0.2h5.5v-2.3h-3.7c-0.6,0-0.9,0-1.6,0.1l-0.1-0.7c0.5,0.1,1,0.2,1.7,0.2h3.8v-2.1h-4.5c-0.6,0-0.9,0-1.5,0.1
			l-0.1-0.7c0.5,0.1,1,0.2,1.7,0.2h10.4c0.3-0.4,0.6-0.7,0.9-1.1c0.6,0.5,0.8,0.7,1.5,1.2c0,0.1,0.1,0.1,0.1,0.1
			c0,0.1-0.1,0.1-0.2,0.1h-6.8V299.5z M177.4,293c-0.3,0.8-0.6,1.4-1.2,2c-0.6,0.7-1,1.1-2,1.6l-0.2-0.2c0.9-0.7,1.4-1.4,2-2.6
			c0.6-1.4,1.1-4.3,1.1-6.4c0.6,0.3,0.8,0.4,1.4,0.8h3.2c0.3-0.4,0.4-0.5,0.7-0.8c0.5,0.3,0.6,0.5,1,0.8c0.1,0.1,0.2,0.2,0.2,0.3
			c0,0.1-0.1,0.2-0.6,0.5c-0.3,2.5-0.7,4.9-1,5.9c-0.3,0.9-0.7,1.2-2,1.4c-0.2-0.4-0.3-0.6-0.6-0.8c-0.2-0.1-0.2-0.1-1.4-0.4v-0.3
			c1.3,0.1,2.1,0.2,2.4,0.2c0.6,0,0.6-0.1,1-2H177.4z M178,290.7c-0.2,0.9-0.3,1.2-0.4,1.8h3.8c0.1-0.8,0.2-0.9,0.3-1.8H178z
			 M181.7,290.3c0.1-0.7,0.1-0.9,0.2-1.8h-3.6c-0.1,0.9-0.1,1.1-0.3,1.8H181.7z"/>
		<path class="st0" d="M172.9,323.8c2.1-1.4,3-2.6,3.4-4.5c-0.4,0.3-0.7,0.4-1.2,0.4c-1.3,0-2.2-1.1-2.2-2.6c0-1.6,1-2.8,2.3-2.8
			c0.3,0,0.5,0.1,1,0.3c0-0.3,0-1.3,0-1.9c0,0,0-0.2,0-0.4c-1.4,0.1-3.1,0.5-4.5,0.9c-0.5,0.1-0.8,0.3-1.2,0.5
			c-0.1,0-0.3,0.1-0.4,0.1c-0.3,0-0.7-0.3-1.2-0.7c-0.4-0.4-0.7-1-0.7-1.3c0,0,0-0.1,0.1-0.2c0.5,0.6,1,0.9,1.7,0.9
			c0.4,0,0.8,0,1.5-0.2c2.1-0.3,2.8-0.4,4.6-0.6c0-1.1-0.1-1.6-0.2-2c-0.2-0.5-0.6-0.8-1.5-0.9c0.2-0.3,0.3-0.3,0.8-0.3
			c0.6,0,1.2,0.1,1.7,0.3c0.4,0.1,0.7,0.4,0.7,0.6c0,0.1,0,0.2-0.2,0.5c-0.2,0.4-0.3,0.9-0.4,1.7c0.5-0.1,0.5-0.1,1.2-0.1
			c1.7-0.1,1.9-0.2,2.4-0.3c0.5-0.2,0.5-0.2,0.7-0.2c0.4,0,1.1,0.3,1.5,0.7c0.2,0.2,0.3,0.3,0.3,0.5s-0.1,0.3-0.4,0.3
			c-0.1,0-0.2,0-1-0.1c-0.9-0.1-1.7-0.2-2.8-0.2c-0.7,0-1.2,0-1.9,0.1c-0.1,0.7-0.1,1.8-0.1,2.4c0,0.1,0,0.3,0,0.6
			c0.4,0.9,0.6,1.5,0.6,2.4c0,1.8-0.7,3.4-1.9,4.6c-0.7,0.6-1.6,1.2-2.7,1.7L172.9,323.8z M175.2,314.7c-0.8,0-1.4,0.8-1.4,1.9
			c0,1.1,0.6,2,1.5,2c0.8,0,1.2-0.6,1.2-1.7C176.4,315.5,176,314.7,175.2,314.7z"/>
		<path class="st0" d="M177.2,331.3c-0.7,0.2-2.4,0.9-3.6,1.4c-0.4,0.2-0.6,0.2-0.7,0.2c-0.3,0-0.7-0.3-1-0.8
			c-0.3-0.5-0.5-1-0.5-1.3c0-0.2,0-0.3,0.2-0.5c0.3,0.8,0.8,1.3,1.4,1.3c0.5,0,2.2-0.4,3.4-0.8c0.7-0.2,0.7-0.2,1.1-0.6
			c0.1-0.1,0.2-0.1,0.3-0.1c0.2,0,0.5,0.2,1,0.6c0.4,0.4,0.5,0.6,0.5,0.8c0,0.1-0.1,0.2-0.3,0.3c-0.5,0.3-0.7,0.4-1.5,1.2
			c-1.1,1.1-1.8,1.8-2.6,2.7c-1.7,1.9-1.7,1.9-2.1,2.2l0,0c1.9-1.2,3.4-1.7,4.9-1.7c2.3,0,3.9,1.4,3.9,3.4c0,2.6-2.4,4.5-5.7,4.5
			c-1.8,0-2.9-0.7-2.9-1.8c0-0.9,0.8-1.5,1.9-1.5c0.9,0,1.7,0.3,2.3,0.9c0.3,0.3,0.5,0.6,0.8,1.1c1.4-0.6,2.2-1.8,2.2-3.4
			c0-1-0.4-1.8-1.1-2.2c-0.4-0.2-1.1-0.4-1.8-0.4c-1.8,0-4.2,1.4-5.7,3.3c-0.3,0.4-0.4,0.5-0.6,0.5c-0.3,0-0.6-0.6-0.6-1.2
			c0-0.2,0.1-0.4,0.4-0.6c0.7-0.5,1-0.8,2.5-2.5c2.2-2.5,2.9-3.3,4.3-5.1c0.1-0.2,0.1-0.2,0.2-0.3c0,0,0,0-0.1,0c0,0,0,0,0,0
			c0,0,0,0-0.1,0C177.3,331.2,177.3,331.3,177.2,331.3L177.2,331.3z M174.4,341.6c-0.7,0-1.1,0.4-1.1,0.9c0,0.7,0.8,1.1,2.1,1.1
			c0.5,0,0.7,0,1.3-0.2C176.2,342.3,175.4,341.6,174.4,341.6z"/>
		<path class="st0" d="M125.5,156.7c0.6-2.6,0.9-4.2,0.9-5.9c0.3,0.1,0.6,0.1,0.7,0.2c0.8,0.2,0.9,0.2,0.9,0.4
			c0,0.1-0.1,0.2-0.6,0.3c-0.5,2.5-0.9,3.6-1.7,5.2L125.5,156.7z M128.5,149.3c-1,0.2-1.2,0.2-2,0.3c-0.1,0.5-0.2,0.7-0.3,0.7
			c-0.2,0-0.3-0.2-0.5-1.6c0.5,0,0.7,0,0.9,0c0.2,0,0.2,0,0.9,0c1-1.4,1.1-1.6,1.5-2.5c0.6-1.2,1.2-2.4,1.4-3.2
			c0.4,0.1,0.6,0.3,0.8,0.3c0.8,0.3,0.9,0.4,0.9,0.5c0,0.2-0.2,0.2-0.8,0.3c-1.1,1.8-1.8,2.8-3.4,4.6c1.7-0.1,1.9-0.1,2.8-0.2
			c-0.2-0.5-0.3-0.8-0.7-1.5l0.1-0.1c0.5,0.4,0.7,0.6,1.1,1.1c0.5,0.6,0.7,0.9,0.7,1.2c0,0.3-0.1,0.8-0.3,1
			c-0.1,0.1-0.2,0.2-0.3,0.2c-0.2,0-0.3-0.1-0.4-0.6c0-0.2-0.1-0.5-0.2-0.9c-0.6,0.2-0.7,0.2-1.3,0.3v5.6c0,0.6,0,0.6,0,2.5
			c0,0,0,0.1,0,0.1c0,0.2-0.2,0.3-1,0.3c-0.2,0-0.2-0.1-0.3-0.2c0.1-2.8,0.1-2.8,0.1-4.5V149.3z M125.9,143.5
			c0.6,0.4,0.8,0.5,1.3,0.8c0.7-1.5,1.1-2.5,1.3-3.5c1.7,0.6,1.7,0.6,1.7,0.8c0,0.2-0.2,0.2-0.8,0.3c-1.2,1.7-1.3,1.8-2,2.6
			c0.8,0.6,1,0.8,1,1.3s-0.3,1-0.5,1c-0.1,0-0.2-0.1-0.2-0.3c-0.6-1.2-0.9-1.8-1.9-2.8L125.9,143.5z M130.4,150.8
			c1.2,1.5,1.7,2.4,1.7,3c0,0.2-0.1,0.5-0.2,0.9c-0.1,0.3-0.3,0.5-0.5,0.5c-0.2,0-0.2-0.1-0.3-0.6c-0.1-1.1-0.5-2.3-1-3.5
			L130.4,150.8z M139.4,146.4c0.3-0.4,0.4-0.5,0.7-0.9c0.5,0.4,0.6,0.5,1.1,0.9c0.1,0.1,0.2,0.2,0.2,0.2c0,0.1-0.1,0.2-0.6,0.4
			c0,2.6,0,2.6,0,4.8c0,0.1,0,0.2-0.1,0.3c-0.1,0-0.5,0.1-0.8,0.1c-0.1,0-0.2-0.1-0.2-0.2v0v-0.8h-5.5v4.2c0,0.4,0,0.5,0.2,0.6
			c0.2,0,0.9,0.1,1.8,0.1c2.9,0,3.9,0,4.2-0.1c0.3-0.1,0.3-0.1,1.2-3.5l0.2,0l-0.2,2.8c0,0.1,0,0.2,0,0.2c0,0.2,0,0.3,0.3,0.3
			c0.2,0.1,0.4,0.2,0.4,0.4c0,0.4-0.5,0.7-1.2,0.8c-0.5,0.1-3,0.1-4.7,0.1c-3,0-3.3-0.1-3.3-1.2c0-2.6,0-2.7,0-3.3v-6
			c-0.5,0.7-0.7,0.9-1.2,1.5l-0.2-0.2c0.7-1.1,1.2-2.2,1.8-3.5c0.6-1.4,0.9-2.4,1-3.3c0.4,0.1,0.7,0.2,0.9,0.2c0.7,0.2,1,0.3,1,0.4
			c0,0.1-0.2,0.2-0.7,0.3c-0.2,0.5-0.3,0.7-0.5,1.1h2.4c0.3-0.4,0.4-0.5,0.7-0.8c0.5,0.4,0.7,0.5,1.1,0.9c0.1,0.1,0.2,0.2,0.2,0.3
			c0,0.1-0.2,0.2-0.6,0.3c-0.9,1.4-1.2,1.7-2.1,2.7H139.4z M136.3,146.4c0.6-1.3,0.8-1.7,1.2-3h-2.6c-0.5,0.9-0.8,1.4-1.5,2.5
			c0.3,0.1,0.4,0.2,0.7,0.5H136.3z M136.3,146.8h-2.2v3.9h2.2V146.8z M137.4,150.7h2.3v-3.9h-2.3V150.7z"/>
		<path class="st0" d="M139.2,168.7c0.5-0.6,0.6-0.7,1.1-1.2l1.6,1.4c0.1,0.1,0.1,0.1,0.1,0.2c0,0.1-0.1,0.1-0.2,0.1h-14.4
			c-0.9,0-1.2,0-1.7,0.1l-0.1-0.7c0.5,0.1,0.9,0.1,1.9,0.1h5.5V167h-3.8v0.5c0,0.2-0.2,0.3-0.9,0.3c-0.2,0-0.3,0-0.3-0.2
			c0-1,0.1-1.9,0.1-3.5c0-0.7,0-1.4,0-2.2c0.6,0.4,0.8,0.5,1.5,0.9h8.6c0.5-0.5,0.5-0.5,0.9-0.8c0.4,0.3,0.5,0.4,1,0.8
			c0.1,0.1,0.2,0.2,0.2,0.2c0,0.1-0.1,0.2-0.6,0.5c0,2.6,0,2.7,0.1,3.9c0,0,0,0,0,0.1c0,0.2-0.3,0.3-1.1,0.3c-0.2,0-0.2-0.1-0.2-0.2
			V167h-4v1.7H139.2z M125.7,177.5c1.5-0.8,2.1-1.3,2.9-2c0.6-0.5,0.9-0.8,1.3-1.4c1.7,0.7,1.7,0.7,1.7,0.8c0,0.2-0.2,0.2-0.9,0.2
			c-1.5,1.2-2.6,1.7-4.8,2.7L125.7,177.5z M134.4,174.8c0,0.5,0,0.9,0,1.8c0,0.4,0,0.5-0.2,0.7c-0.3,0.4-0.5,0.5-1.8,0.7
			c-0.1-0.5-0.2-0.7-0.4-0.8c-0.1-0.1-0.4-0.2-0.8-0.3l-0.5-0.1c-0.2-0.1-0.4-0.1-0.6-0.1l0-0.2c1.4,0.1,1.8,0.2,2.7,0.2
			c0.3,0,0.3-0.1,0.3-0.3v-3.1h-3.6v0.4c0,0.1,0,0.2-0.1,0.2c-0.1,0-0.5,0.1-0.7,0.1c-0.3,0-0.3-0.1-0.3-0.2c0,0,0,0,0,0
			c0-0.8,0-1,0-2.3c0-1,0-1,0-1.7l1.3,0.8h7.7c0.4-0.5,0.4-0.5,0.6-0.8c0.5,0.4,0.6,0.5,1,0.8c0.1,0.1,0.2,0.1,0.2,0.2
			c0,0.1,0,0.1-0.5,0.5c0,0.3,0,0.5,0,0.6c0,0.6,0,1,0.1,1.8c0,0,0,0,0,0c0,0.2-0.3,0.3-0.9,0.3c-0.2,0-0.3-0.1-0.3-0.2v-0.5h-3.2
			V174.8z M138.1,163.1h-9v1.5h9V163.1z M129.1,165v1.6h9V165H129.1z M129.7,172.9h8v-2h-8V172.9z M135.7,174.4
			c0.3,0.1,0.5,0.1,0.6,0.2c1.8,0.5,3.2,1,3.6,1.4c0.3,0.3,0.5,0.7,0.5,1.3c0,0.3-0.1,0.5-0.3,0.5c-0.2,0-0.2,0-0.6-0.4
			c-1.5-1.4-2.3-1.9-4-2.8L135.7,174.4z"/>
		<path class="st0" d="M133.5,197.4c1.9-0.6,3.2-1.3,4.2-2.5c1.1-1.2,1.6-2.7,1.6-4.3c0-1.7-0.7-3.1-2-4c-0.8-0.5-2-0.8-3.1-0.8
			c-0.2,0-0.3,0-0.6,0c0.4,0.6,0.6,1,0.6,1.5c0,1.4-1,4-2.4,6.2c-1.1,1.8-2,2.7-2.7,2.7c-0.3,0-0.6-0.1-0.8-0.4
			c-0.2-0.2-0.2-0.3-0.5-1.2c-0.2-0.5-0.3-0.7-0.8-1.7c-0.3-0.6-0.4-1.1-0.4-1.6c0-1.1,0.6-2.5,1.6-3.6c1.5-1.5,3.8-2.5,6.2-2.5
			c1.8,0,3.5,0.6,4.6,1.7s1.7,2.5,1.7,4.2c0,2.3-1.3,4.2-3.6,5.5c-1,0.6-2,0.8-3.5,1.1L133.5,197.4z M127.6,191.8
			c0,0.9,0.3,1.7,0.7,2.4c0.3,0.3,0.5,0.5,0.7,0.5c0.4,0,1.3-1,2.1-2.4c1.3-2.1,2.3-4.4,2.3-5.6c0-0.3-0.1-0.4-0.3-0.9
			C130.1,186.4,127.6,189,127.6,191.8z"/>
		<path class="st0" d="M136.1,208.2c0.3-0.4,0.4-0.5,0.7-0.8c0.6,0.5,0.8,0.6,1.3,1.1c0.2,0.1,0.2,0.2,0.2,0.3
			c0,0.1-0.2,0.2-1.1,0.2c-0.9,1.1-1.5,1.7-2.7,2.6c1,0.5,1.8,0.8,2.8,1.1c1.6,0.5,2.8,0.6,4.5,0.7v0.3c-0.7,0.1-0.9,0.3-1.4,1.2
			c-1.1-0.3-1.6-0.4-2.9-0.9c0.4,0.4,0.4,0.4,0.8,0.7c0.1,0.1,0.2,0.2,0.2,0.3c0,0,0,0.1-0.1,0.1c0,0-0.1,0.1-0.2,0.1
			c0,0-0.1,0.1-0.2,0.1c0,0.8,0,0.8,0,2.4c0,1,0,1,0,1.9c0,0,0,0.1,0,0.1c0,0.1-0.1,0.2-0.2,0.2c-0.2,0.1-0.5,0.1-0.7,0.1
			c-0.3,0-0.3-0.1-0.3-0.3c0,0,0,0,0,0v-0.7h-6.8v0.6c0,0.3-0.2,0.4-0.7,0.4c-0.4,0-0.5-0.1-0.5-0.3v0c0-0.6,0-0.6,0-1.5
			c0-0.5,0-0.5,0-1.6v-1.9c-1.3,0.5-2,0.7-3.4,1l-0.1-0.3c2.7-0.9,5.4-2.2,7.5-3.7c-0.8-0.6-1.6-1.5-2.2-2.1
			c-0.4,0.5-0.9,0.9-1.5,1.3c-1.3,1-2.1,1.5-3.2,1.9l-0.1-0.2c1.7-1.3,2.5-2,3.4-3c1-1.1,1.6-2,1.9-2.9c1.8,0.4,1.9,0.4,1.9,0.6
			c0,0.2-0.3,0.3-0.9,0.4c-0.2,0.3-0.3,0.4-0.5,0.6H136.1z M133,205.9v-1.2c0-0.4,0-0.7-0.1-1.2c1.5,0.1,1.7,0.2,1.9,0.2
			c0.1,0.1,0.2,0.1,0.2,0.2c0,0.2-0.2,0.3-0.8,0.4v1.5h5c0.4-0.4,0.5-0.6,0.8-1l1.6,1.2c0.1,0.1,0.2,0.2,0.2,0.2
			c0,0.1-0.1,0.1-0.2,0.1c0,0-0.4,0.1-1.1,0.2c-1.1,1.3-1.2,1.3-1.7,1.8l-0.2-0.1c0.3-0.9,0.4-1.2,0.6-2h-11.5
			c-0.1,0.9-0.3,1.5-0.5,2c-0.2,0.4-0.8,0.8-1.1,0.8c-0.1,0-0.3-0.1-0.4-0.3c-0.1-0.1-0.1-0.5-0.1-0.8c0-0.2,0-0.3,0.4-0.5
			c0.3-0.2,0.6-0.6,0.8-1c0.3-0.6,0.5-1.1,0.6-1.9h0.3c0,0.3,0,0.5,0,0.6s0,0.3,0,0.6H133z M136.8,214.6c0.3-0.3,0.3-0.3,0.7-0.6
			c-1.7-0.7-2.6-1.1-3.8-1.9c-1.2,0.8-2.4,1.4-4,2.1c0.2,0.1,0.2,0.2,0.4,0.4H136.8z M130.1,218.5h6.8V215h-6.8V218.5z M131.5,208.6
			c-0.2,0.2-0.2,0.3-0.4,0.5c0.5,0.6,1.4,1.3,2.5,1.9c1-0.8,1.5-1.4,2.4-2.4H131.5z"/>
		<path class="st0" d="M137.7,236.3c0.4-0.5,0.6-0.7,1-1.2c0.7,0.6,0.9,0.8,1.6,1.4c0.1,0.1,0.1,0.1,0.1,0.2c0,0.1-0.1,0.1-0.2,0.1
			h-6v3.1h4.8c0.5-0.5,0.6-0.7,1.1-1.2c0.8,0.6,1,0.7,1.7,1.4c0.1,0.1,0.1,0.1,0.1,0.2c0,0.1-0.1,0.1-0.1,0.1h-14.6
			c-0.3,0-1.2,0.1-1.5,0.1l-0.2-0.7c1.4,0.2,1.4,0.2,1.7,0.2h5.7v-3.1h-4.2c-0.4,0-0.7,0-1.5,0.1l-0.2-0.7c0.5,0.1,1.4,0.2,1.7,0.2
			h4.2v-0.7c0-0.5,0-0.9-0.1-1.8c2,0.3,2.1,0.3,2.1,0.5c0,0.1-0.1,0.2-0.8,0.4v1.6H137.7z M133,226.5v-0.8c0-0.7,0-0.8-0.1-1.3
			c1.7,0.2,2.1,0.3,2.1,0.5c0,0.1-0.1,0.1-0.1,0.2c-0.1,0-0.3,0.1-0.7,0.2v1.3h5c0.4-0.4,0.4-0.4,0.8-0.9c0.7,0.5,1,0.6,1.6,1.2
			c0.1,0.1,0.1,0.1,0.1,0.2c0,0,0,0.1-0.1,0.1c-0.1,0-0.2,0.1-0.5,0.1c-0.2,0-0.4,0.1-0.6,0.1c-0.1,0.1-0.3,0.3-0.3,0.3
			c-0.6,0.5-0.6,0.6-1.1,1l-0.2-0.1c0.2-0.7,0.3-1,0.4-1.5h-11.6c-0.1,0.9-0.3,1.4-0.6,1.9c-0.3,0.5-0.7,0.8-1,0.8
			c-0.3,0-0.6-0.7-0.6-1.1c0-0.2,0.1-0.3,0.3-0.4c0.7-0.5,0.9-0.7,1.1-1.2c0.3-0.6,0.5-1.1,0.6-1.7h0.3c0,0.2,0,0.3,0,0.4
			c0,0.3,0,0.4,0,0.8H133z M129.4,229.5c-0.5,0-0.8,0-1.4,0.1l-0.2-0.7c0.3,0,0.3,0,1.6,0.2h8c0.4-0.5,0.5-0.6,0.9-1.1
			c0.6,0.5,0.9,0.7,1.6,1.3c0.1,0.1,0.1,0.1,0.1,0.1c0,0.1-0.1,0.1-0.1,0.1h-6.6c-1.6,2.1-1.6,2.1-2.5,3.1c2-0.1,3.2-0.1,6.8-0.5
			c-0.7-0.7-1.1-1.1-1.9-1.9l0.1-0.2c0.8,0.3,1.2,0.5,2.4,1.3c0.8,0.5,1.5,1,1.7,1.3c0.2,0.2,0.3,0.4,0.3,0.7c0,0.6-0.2,1.1-0.5,1.1
			c-0.1,0-0.1,0-1-1.2c-0.5-0.6-0.5-0.7-0.7-1c-2.1,0.3-3.5,0.6-4,0.6c-1.8,0.3-4.4,0.6-5.8,0.6c0,0.6-0.1,0.8-0.3,0.8
			c-0.3,0-0.4-0.5-0.7-2c0.4,0,0.6,0.1,1,0.1c0.1,0,0.3,0,0.5,0c0.2,0,0.2,0,1.6,0c0.8-1.4,1-1.7,1.5-3.1H129.4z"/>
	</g>
</g>
<g>
	<rect x="0" class="st1" width="55" height="230"/>
	<line class="st2" x1="27.6" y1="0" x2="27.6" y2="30"/>
</g>
<g>
	<path class="st3" d="M15.2,65.3c1.2,0.2,1.8,0.2,3.7,0.2h16.5c0.8-1.1,1.1-1.4,1.9-2.4c1.4,1.1,1.9,1.5,3.2,2.7
		c0.1,0.1,0.1,0.1,0.1,0.2c0,0.1-0.1,0.2-0.3,0.2H18.9c-1.7,0-2.2,0-3.5,0.2L15.2,65.3z"/>
	<path class="st3" d="M22,105c0,2.5,0,4,0.1,4.5c0,0.4-0.3,0.5-1.2,0.5c-0.4,0-0.5-0.1-0.5-0.4c0.1-2.9,0.2-3.8,0.2-4.6v-2.6
		c-0.6,0.1-0.8,0.2-1.6,0.3c-0.1,2.4-0.3,3.8-0.6,5.3c-0.6,3.1-1.5,4.7-3.4,6.8l-0.3-0.3c1.4-2.2,2-4.1,2.4-7.5
		c0.2-1.3,0.3-2.2,0.3-4.1c-0.4,0.1-0.6,0.1-1.2,0.2c-0.1,0.7-0.2,1.1-0.4,1.1c-0.3,0-0.4-0.5-0.9-2.6c0.9,0,0.9,0,2.6-0.2
		c0-1.2,0-2.5,0-4.2c0-2.6,0-3.8-0.1-5.3c1,0.5,1.3,0.6,2.2,1.2h0.7c0.4-1.4,0.6-2.4,0.7-3.6c2.6,0.6,2.7,0.6,2.7,0.9
		s-0.3,0.4-1.2,0.6c-0.3,0.4-0.3,0.4-1,1.3c-0.4,0.5-0.4,0.5-0.6,0.9h2.6c0.4-0.4,0.5-0.6,0.9-1c0.6,0.4,0.8,0.6,1.4,1
		c0.2,0.2,0.3,0.2,0.3,0.4c0,0.2,0,0.2-0.8,0.7v6.2c0.5-0.1,0.8-0.1,1.4-0.3v0.4c-0.7,0.3-1,0.4-1.4,0.5v6c0,3.5,0,3.6,0,5.2
		c-0.1,0.8-0.3,1.1-1,1.5c-0.5,0.3-1,0.4-1.8,0.5c-0.4-1.3-0.6-1.4-3.4-2v-0.4c0.8,0,0.8,0,2.1,0.1c0.9,0.1,0.9,0.1,1.9,0.1
		c0.1,0,0.1,0,0.1,0c0,0,0.1,0,0.1,0c0.2,0,0.3-0.1,0.3-0.4v-10.4c-1,0.3-1.1,0.3-1.7,0.4V105z M19.2,93.9c0,3.9-0.1,5.5-0.1,7.5
		c1.8-0.2,2.8-0.3,4.6-0.6v-6.9H19.2z M20,95.2c1.6,1,2.7,2.3,2.7,3.1c0,0.6-0.5,1.7-0.9,1.7c-0.2,0-0.3-0.2-0.5-0.8
		c-0.3-1.3-0.6-1.9-1.6-3.7L20,95.2z M41.2,112.8c-1,0.2-1.6,0.7-2,1.8c-2.6-1.1-4.5-2.4-6.4-4.4c-2.6,2.5-4.7,3.7-8.1,4.7l-0.1-0.3
		c3.1-1.5,5.5-3.3,7.3-5.5c-1.5-2-2.2-3.8-2.9-6.6c-0.4,0-0.5,0.1-0.9,0.1l-0.2-0.9c-0.6,0.7-0.9,1-1.8,1.6l-0.3-0.3
		c1.1-1.2,1.7-2,2.2-3.4c0.8-1.8,1-3.7,1-6.7c0-0.8,0-1.4-0.1-2.5c1,0.4,1.3,0.6,2.1,1.1h3.1c0.3-0.5,0.5-0.7,0.9-1.1
		c0.6,0.5,0.8,0.6,1.5,1.1c0.3,0.2,0.3,0.3,0.3,0.4c0,0.1-0.2,0.3-0.9,0.7v4.9c0,0.4,0.1,0.5,0.8,0.5c0.9,0,1,0,1.1-0.4
		c0.2-0.5,0.4-1.5,1.1-4.6l0.4,0l-0.1,4.1c0,0.1,0,0.1,0,0.2c0,0.5,0,0.6,0.3,0.7c0.5,0.1,0.8,0.3,0.8,0.7c0,0.3-0.3,0.6-0.6,0.7
		c-0.5,0.1-1.1,0.2-3.2,0.2c-2,0-2.4-0.2-2.4-1.4c0-1,0-1,0-3.1v-2.9h-3.4c-0.2,3.6-0.4,5-1.2,6.6c-0.5,1.1-1,1.9-1.8,2.8
		c0.1,0,0.2,0,0.2,0c0.6,0.1,1,0.2,1.7,0.2h5.5c0.5-0.6,0.6-0.7,1.2-1.3c0.8,0.6,0.8,0.6,1.5,1.2c0.2,0.2,0.3,0.3,0.3,0.4
		c0,0.2-0.1,0.3-1,0.7c-1,2.7-1.9,4.3-3.6,6.2c2,1.7,4.1,2.7,7.4,3.3L41.2,112.8z M29.5,102.5c0.6,2.1,1.5,3.7,3.2,5.5
		c1.2-1.7,1.8-3,2.7-5.5h-5.6H29.5z"/>
	<path class="st3" d="M22.7,134.1h1.3c0.6-0.8,0.8-1,1.4-1.8c1,0.8,1.2,1.1,2.2,2c0.1,0.1,0.2,0.2,0.2,0.3c0,0.1-0.1,0.2-0.3,0.2
		h-4.8v2.6c1.3,0.6,2.1,1.1,3,1.7c1.2,0.9,1.5,1.3,1.5,2.1c0,1-0.3,1.8-0.7,1.8c-0.2,0-0.3-0.1-0.5-0.5c-1-2.1-1.9-3.3-3.4-4.5v4.3
		c0,6.7,0,6.7,0,8.6c0,0.2-0.1,0.3-0.2,0.3c-0.1,0-1.1,0.1-1.5,0.1c-0.2,0-0.3-0.1-0.3-0.3c0-1.4,0.1-1.7,0.1-3.1
		c0.1-3.7,0.1-4.2,0.1-5.7l0.2-4.9c-1.7,3.7-2.9,5.3-5.8,8.5l-0.3-0.2c1.8-2.6,2.6-3.9,3.6-5.9c0.8-1.7,0.8-1.7,2.1-5.1h-3.4
		c-0.5,0-1.1,0.1-1.7,0.2l-0.2-1.1c0.8,0.2,1.2,0.3,2.2,0.3h3.3v-4.3c-2,0.4-2.8,0.6-4.8,0.8l-0.2-0.4c2.7-0.7,4.1-1.2,6.2-2.1
		c1.9-0.8,2.6-1.1,3.5-1.8C28,128,28,128,28,128.2c0,0.2-0.2,0.3-0.5,0.3c-0.1,0-0.5-0.1-1-0.1c-1.6,0.6-2.2,0.7-3.8,1.1V134.1z
		 M30.4,150c0,0.1,0,0.1,0,0.1c0,0.3-0.3,0.4-0.9,0.4c-0.3,0-0.4,0-0.5,0c0,0-0.1,0-0.1,0c-0.3,0-0.4-0.1-0.4-0.4
		c0.1-2.8,0.1-3.9,0.1-7.3c0-9.3,0-11.8-0.1-13.6c1,0.6,1.2,0.8,2.2,1.4H37c0.5-0.6,0.7-0.7,1.2-1.3c0.7,0.5,0.9,0.7,1.6,1.3
		c0.2,0.2,0.3,0.3,0.3,0.4c0,0.2-0.3,0.4-0.9,0.8v5.8c0,6.4,0,8.3,0.2,12.2c0,0.4-0.3,0.5-1.2,0.5c-0.3,0-0.4,0-0.6,0h0
		c-0.2,0-0.3-0.1-0.3-0.3c0,0,0,0,0-0.1v-1.8h-6.8V150z M30.4,147.5h6.8v-16.2h-6.8V147.5z"/>
	<path class="st3" d="M34.1,181c0.6-0.8,0.9-1,1.6-1.9c1.1,0.9,1.5,1.2,2.5,2.1c0.1,0.1,0.1,0.2,0.1,0.3c0,0.1-0.1,0.2-0.3,0.2h-9.4
		v4.8h7.5c0.7-0.8,1-1.1,1.8-1.9c1.2,0.9,1.5,1.1,2.7,2.1c0.1,0.1,0.2,0.2,0.2,0.3s-0.1,0.2-0.2,0.2H18c-0.5,0-1.9,0.1-2.4,0.2
		l-0.3-1.1c2.1,0.3,2.2,0.3,2.7,0.3h8.8v-4.8h-6.5c-0.6,0-1.1,0-2.3,0.1l-0.3-1.1c0.8,0.2,2.1,0.3,2.7,0.3h6.5v-1.1
		c0-0.8,0-1.5-0.1-2.8c3.1,0.4,3.3,0.5,3.3,0.8c0,0.2-0.2,0.3-1.2,0.6v2.5H34.1z M26.8,165.7v-1.3c0-1.1,0-1.3-0.1-2
		c2.7,0.3,3.3,0.4,3.3,0.7c0,0.1-0.1,0.2-0.2,0.3c-0.1,0.1-0.5,0.2-1.1,0.3v2h7.8c0.6-0.7,0.6-0.7,1.3-1.5c1.1,0.8,1.5,1,2.5,1.8
		c0.1,0.1,0.2,0.2,0.2,0.3c0,0.1-0.1,0.1-0.1,0.2c-0.1,0.1-0.4,0.1-0.7,0.2c-0.4,0.1-0.7,0.1-0.9,0.1c-0.2,0.2-0.4,0.4-0.5,0.5
		c-0.9,0.8-1,1-1.8,1.5l-0.3-0.2c0.3-1.1,0.4-1.5,0.6-2.4h-18c-0.2,1.3-0.4,2.2-0.9,3c-0.4,0.7-1.1,1.3-1.5,1.3s-1-1-1-1.7
		c0-0.3,0.1-0.4,0.4-0.6c1.1-0.8,1.4-1.1,1.8-1.8c0.5-0.9,0.8-1.7,0.9-2.7h0.5c0,0.3,0,0.5,0,0.6c0,0.4,0,0.7-0.1,1.2H26.8z
		 M21.1,170.5c-0.8,0-1.2,0-2.2,0.2l-0.3-1.1c0.5,0.1,0.5,0.1,2.5,0.3h12.4c0.6-0.8,0.8-1,1.4-1.7c1,0.8,1.3,1.1,2.4,2
		c0.1,0.1,0.1,0.1,0.1,0.2c0,0.1-0.1,0.1-0.2,0.1H27.1c-2.5,3.3-2.5,3.3-3.9,4.8c3.1-0.1,5-0.2,10.5-0.7c-1.1-1.1-1.7-1.8-3-2.9
		l0.2-0.3c1.3,0.5,1.8,0.8,3.7,2c1.3,0.8,2.3,1.6,2.7,2.1c0.3,0.3,0.4,0.7,0.4,1.1c0,1-0.3,1.7-0.7,1.7c-0.2,0-0.2,0-1.5-1.8
		c-0.7-1-0.8-1.1-1.1-1.5c-3.2,0.5-5.5,0.9-6.2,1c-2.8,0.4-6.9,0.9-9,1c-0.1,0.9-0.2,1.2-0.5,1.2c-0.4,0-0.6-0.8-1.1-3.1
		c0.6,0.1,1,0.1,1.5,0.1c0.2,0,0.4,0,0.8,0c0.3,0,0.3,0,2.5-0.1c1.3-2.2,1.5-2.6,2.4-4.8H21.1z"/>
</g>
</svg>
