<?xml version="1.0" encoding="utf-8"?>
<!-- Generator: Adobe Illustrator 25.2.3, SVG Export Plug-In . SVG Version: 6.00 Build 0)  -->
<svg version="1.1" id="レイヤー_1" xmlns="http://www.w3.org/2000/svg" xmlns:xlink="http://www.w3.org/1999/xlink" x="0px"
	 y="0px" viewBox="0 0 409 139.7" style="enable-background:new 0 0 409 139.7;" xml:space="preserve">
<style type="text/css">
	.st0{fill:#8D8017;}
	.st1{fill:#200701;}
	.st2{fill:none;stroke:#AA942C;stroke-miterlimit:10;}
	.st3{fill:#FFFFFF;}
</style>
<g>
	<g>
		<g>
			<path class="st0" d="M97.7,76.8l-1.8-1.4c-0.9-0.7-2.3-0.7-3.1,0.1c-0.4,0.3-0.7,0.6-0.8,0.9c0,0,0,0,0,0c0,0,0,0,0,0
				c-0.1,0-0.1,0-0.3,0l0,0c-1-0.2-3.6-2.5-4.2-3.1c-0.7-0.6-3.7-4-3-4.5c0.2-0.2,0.5-0.5,0.9-0.8c0.8-0.9,0.8-2.2,0.1-3.1l-1.4-1.8
				c-0.1-0.1-0.2-0.3-0.4-0.4c0,0,0,0,0,0c-0.1-0.1-0.1-0.1-0.2-0.1c0,0,0,0,0,0c-0.2-0.1-0.5-0.2-0.7-0.3l0,0c-0.1,0-0.2,0-0.3,0
				c0,0,0,0,0,0c-0.3,0-0.6,0-0.9,0.1c-0.8,0.2-1.4,0.7-1.7,1.5c-0.4,0.9-0.7,2.2-0.6,3.3c0,0.1,0,0.1,0,0.2c0,0,0,0,0,0
				c0.4,1.8,3.1,5.8,5.2,8.1c0,0,0.1,0.1,0.1,0.1c0,0.1,0.1,0.1,0.1,0.2l0,0c0.1,0.1,0.6,0.6,0.7,0.7l0,0c2.2,2.1,6.4,5,8.3,5.4
				c0,0,0,0,0,0c0.1,0,0.1,0,0.2,0c1.1,0.1,2.4-0.3,3.3-0.6c0.7-0.3,1.3-0.9,1.5-1.7C98.8,78.3,98.5,77.4,97.7,76.8z"/>
		</g>
		<g>
			<g>
				<path class="st0" d="M114,58.8c2.3,0,4.2,0.9,5.8,2.7c1.9,2.2,2.9,5.6,2.9,10c0,4.2-0.8,7.3-2.5,9.5c-1.7,2.2-3.7,3.3-6,3.3
					c-2.3,0-4.1-0.9-5.7-2.7c-1.9-2.3-2.8-5.6-2.8-10c0-4.1,0.9-7.4,2.7-9.9C109.7,59.8,111.6,58.8,114,58.8z M114.1,60.1
					c-1.6,0-2.8,0.7-3.7,2.2c-0.9,1.5-1.3,4.6-1.3,9.3c0,4.6,0.5,7.7,1.4,9.2s2.1,2.3,3.6,2.3c1.5,0,2.7-0.7,3.5-2.1
					c1-1.7,1.5-4.8,1.5-9.3c0-4.6-0.5-7.7-1.4-9.3C116.8,60.9,115.6,60.1,114.1,60.1z"/>
				<path class="st0" d="M129.8,80c-0.5,0.7,2.1,1,8,1c0.9,0,1.5-0.2,1.9-0.7c0.4-0.5,0.8-1.7,1.3-3.8h1.2l-0.6,7.4h-15.9v-1
					l5.2-5.9c2.9-3.1,4.6-5.1,5.2-5.9c0.8-1.1,1.4-2.3,1.8-3.3c0.4-1.1,0.6-2,0.6-2.9c0-1.5-0.4-2.6-1.2-3.4
					c-0.8-0.8-1.9-1.2-3.3-1.2c-1.6,0-2.9,0.4-3.9,1.2c-1,0.8-1.5,1.6-1.5,2.4c0,0.3,0.1,0.5,0.2,0.7c0.1,0.2,0.4,0.3,0.9,0.4
					c1.2,0.3,1.8,1,1.8,2.1c0,0.6-0.2,1.1-0.6,1.5c-0.4,0.4-0.9,0.6-1.5,0.6c-0.7,0-1.4-0.3-1.9-1c-0.5-0.7-0.8-1.5-0.8-2.6
					c0-1.2,0.3-2.3,0.9-3.3c0.6-1,1.6-1.8,2.8-2.4s2.6-0.9,4-0.9c1.4,0,2.8,0.3,4,0.9c1.2,0.6,2.1,1.4,2.8,2.4
					c0.6,1,0.9,2.1,0.9,3.3c0,0.8-0.2,1.6-0.5,2.5c-0.3,0.8-0.8,1.6-1.3,2.4c-1,1.3-2.1,2.3-3.1,3.2l-4.7,3.9
					C131.2,78.5,130.3,79.3,129.8,80z"/>
				<path class="st0" d="M158,59.3h1.2v16.8h4.1v1.5h-4.1v3.8c0,0.3,0.1,0.6,0.4,0.8c0.4,0.3,0.8,0.4,1.3,0.4h1.5v1.3h-9.8v-1.3h1.8
					c0.6,0,1.1-0.1,1.4-0.4c0.3-0.3,0.4-0.6,0.4-1.1v-3.5h-10v-1.7L158,59.3z M156.2,64.1l-8.6,12h8.6V64.1z"/>
				<path class="st0" d="M177.2,70.8c1.7,0.4,3,1.1,4,2.1c1.2,1.2,1.8,2.7,1.8,4.5c0,2-0.7,3.7-2.2,4.9c-1.6,1.4-3.8,2.1-6.4,2.1
					c-1.6,0-2.9-0.3-4.1-0.8c-1.1-0.5-2-1.2-2.6-2.1c-0.6-0.9-0.9-1.9-0.9-3c0-0.9,0.2-1.6,0.7-2.1c0.4-0.5,1-0.8,1.6-0.8
					c0.6,0,1.1,0.2,1.5,0.6s0.5,0.9,0.5,1.6c0,0.4-0.1,0.8-0.3,1.1c-0.2,0.3-0.5,0.6-1,0.8c-0.5,0.3-0.8,0.5-0.8,0.8
					c0,0.4,0.2,0.8,0.5,1.2s0.9,0.8,1.6,1.1c0.7,0.3,1.6,0.4,2.7,0.4c1.9,0,3.2-0.5,4.1-1.4c0.9-0.9,1.3-2.4,1.3-4.4
					c0-2.1-0.4-3.6-1.1-4.5c-0.8-0.9-1.9-1.3-3.4-1.3c-0.4,0-0.9,0-1.5,0.1c-0.5,0.1-0.8,0.1-1,0.1c-0.4,0-0.6-0.1-0.8-0.2
					c-0.2-0.1-0.3-0.3-0.3-0.6c0-0.2,0.1-0.4,0.3-0.6c0.2-0.1,0.5-0.2,0.9-0.2l1,0l0.9,0c1.5,0,2.6-0.4,3.4-1.1
					c0.8-0.8,1.1-2,1.1-3.6c0-2-0.4-3.4-1.1-4.2c-0.7-0.8-1.8-1.2-3.2-1.2c-1.3,0-2.4,0.2-3.1,0.7c-0.8,0.5-1.2,0.9-1.2,1.3
					c0,0.3,0.2,0.6,0.7,1c0.6,0.6,1,1.2,1,1.8c0,0.5-0.2,0.9-0.5,1.2c-0.4,0.3-0.8,0.5-1.4,0.5c-0.6,0-1.1-0.2-1.4-0.7
					c-0.4-0.4-0.6-1.1-0.6-1.9c0-1.3,0.4-2.4,1.3-3.3c1.3-1.4,3.1-2.1,5.5-2.1c2.2,0,4,0.6,5.3,1.8s2,2.7,2,4.4
					c0,1.3-0.4,2.4-1.1,3.3C180.1,69.3,178.9,70.1,177.2,70.8z"/>
				<path class="st0" d="M187,71.1h7.2v2.7H187V71.1z"/>
				<path class="st0" d="M202.4,80c-0.5,0.7,2.1,1,8,1c0.9,0,1.5-0.2,1.9-0.7c0.4-0.5,0.8-1.7,1.3-3.8h1.2l-0.6,7.4h-15.9v-1
					l5.2-5.9c2.9-3.1,4.6-5.1,5.2-5.9c0.8-1.1,1.4-2.3,1.8-3.3c0.4-1.1,0.6-2,0.6-2.9c0-1.5-0.4-2.6-1.2-3.4
					c-0.8-0.8-1.9-1.2-3.3-1.2c-1.6,0-2.9,0.4-3.9,1.2c-1,0.8-1.5,1.6-1.5,2.4c0,0.3,0.1,0.5,0.2,0.7c0.1,0.2,0.4,0.3,0.9,0.4
					c1.2,0.3,1.8,1,1.8,2.1c0,0.6-0.2,1.1-0.6,1.5c-0.4,0.4-0.9,0.6-1.5,0.6c-0.7,0-1.4-0.3-1.9-1c-0.5-0.7-0.8-1.5-0.8-2.6
					c0-1.2,0.3-2.3,0.9-3.3c0.6-1,1.6-1.8,2.8-2.4s2.6-0.9,4-0.9c1.4,0,2.8,0.3,4,0.9c1.2,0.6,2.1,1.4,2.8,2.4
					c0.6,1,0.9,2.1,0.9,3.3c0,0.8-0.2,1.6-0.5,2.5c-0.3,0.8-0.8,1.6-1.3,2.4c-1,1.3-2.1,2.3-3.1,3.2l-4.7,3.9
					C203.8,78.5,202.9,79.3,202.4,80z"/>
				<path class="st0" d="M230.7,59.3h1.2v16.8h4.1v1.5h-4.1v3.8c0,0.3,0.1,0.6,0.4,0.8c0.4,0.3,0.8,0.4,1.3,0.4h1.5v1.3h-9.8v-1.3
					h1.8c0.6,0,1.1-0.1,1.4-0.4c0.3-0.3,0.4-0.6,0.4-1.1v-3.5h-10v-1.7L230.7,59.3z M228.8,64.1l-8.6,12h8.6V64.1z"/>
				<path class="st0" d="M239.5,71.1h7.2v2.7h-7.2V71.1z"/>
				<path class="st0" d="M254.9,80c-0.5,0.7,2.1,1,8,1c0.9,0,1.5-0.2,1.9-0.7c0.4-0.5,0.8-1.7,1.3-3.8h1.2l-0.6,7.4h-15.9v-1
					l5.2-5.9c2.9-3.1,4.6-5.1,5.2-5.9c0.8-1.1,1.4-2.3,1.8-3.3c0.4-1.1,0.6-2,0.6-2.9c0-1.5-0.4-2.6-1.2-3.4
					c-0.8-0.8-1.9-1.2-3.3-1.2c-1.6,0-2.9,0.4-3.9,1.2c-1,0.8-1.5,1.6-1.5,2.4c0,0.3,0.1,0.5,0.2,0.7c0.1,0.2,0.4,0.3,0.9,0.4
					c1.2,0.3,1.8,1,1.8,2.1c0,0.6-0.2,1.1-0.6,1.5c-0.4,0.4-0.9,0.6-1.5,0.6c-0.7,0-1.4-0.3-1.9-1c-0.5-0.7-0.8-1.5-0.8-2.6
					c0-1.2,0.3-2.3,0.9-3.3c0.6-1,1.6-1.8,2.8-2.4s2.6-0.9,4-0.9c1.4,0,2.8,0.3,4,0.9c1.2,0.6,2.1,1.4,2.8,2.4
					c0.6,1,0.9,2.1,0.9,3.3c0,0.8-0.2,1.6-0.5,2.5c-0.3,0.8-0.8,1.6-1.3,2.4c-1,1.3-2.1,2.3-3.1,3.2l-4.7,3.9
					C256.3,78.5,255.4,79.3,254.9,80z"/>
				<path class="st0" d="M281.7,59.3v22.1c0,0.3,0.1,0.6,0.4,0.8c0.3,0.2,0.8,0.4,1.3,0.4h3.4v1.3h-12.8v-1.3h2.9
					c0.6,0,1.1-0.1,1.4-0.4c0.3-0.3,0.4-0.7,0.4-1.2V64.2c0-0.3-0.1-0.6-0.4-0.9c-0.3-0.2-0.6-0.4-1-0.4h-3.9v-1.2
					c1.8-0.2,3.3-0.6,4.5-0.9c1.1-0.4,2.2-0.9,3-1.6H281.7z"/>
				<path class="st0" d="M299.6,58.8c2.3,0,4.2,0.9,5.8,2.7c1.9,2.2,2.9,5.6,2.9,10c0,4.2-0.8,7.3-2.5,9.5c-1.7,2.2-3.7,3.3-6,3.3
					c-2.3,0-4.1-0.9-5.7-2.7c-1.9-2.3-2.8-5.6-2.8-10c0-4.1,0.9-7.4,2.7-9.9C295.4,59.8,297.3,58.8,299.6,58.8z M299.7,60.1
					c-1.6,0-2.8,0.7-3.7,2.2c-0.9,1.5-1.3,4.6-1.3,9.3c0,4.6,0.5,7.7,1.4,9.2s2.1,2.3,3.6,2.3c1.5,0,2.7-0.7,3.5-2.1
					c1-1.7,1.5-4.8,1.5-9.3c0-4.6-0.5-7.7-1.4-9.3C302.5,60.9,301.3,60.1,299.7,60.1z"/>
				<path class="st0" d="M322,59.3v22.1c0,0.3,0.1,0.6,0.4,0.8c0.3,0.2,0.8,0.4,1.3,0.4h3.4v1.3h-12.8v-1.3h2.9
					c0.6,0,1.1-0.1,1.4-0.4c0.3-0.3,0.4-0.7,0.4-1.2V64.2c0-0.3-0.1-0.6-0.4-0.9c-0.3-0.2-0.6-0.4-1-0.4h-3.9v-1.2
					c1.8-0.2,3.3-0.6,4.5-0.9c1.1-0.4,2.2-0.9,3-1.6H322z"/>
			</g>
		</g>
	</g>
	<g>
		<g>
			<path class="st1" d="M103,97.2h5.1c-1,1-1.5,1.8-2,2.7c-1,1.7-1.5,3.9-1.5,5.9c0,2,0.6,4.1,1.5,5.9c0.5,0.9,1,1.6,2,2.7H103V97.2
				z"/>
			<path class="st1" d="M120.8,102.6c0.8-1.2,1.2-2.2,1.6-3.4c1.9,0.6,1.9,0.6,1.9,0.8s-0.2,0.2-0.8,0.3c-0.7,0.9-1.4,1.7-2.2,2.3
				h2.8l0.8-0.9c0.6,0.5,0.8,0.6,1.5,1.2c0.1,0.1,0.2,0.2,0.2,0.3c0,0,0,0.1-0.1,0.1c-0.1,0.1-0.1,0.1-1.1,0.2
				c-0.2,0.2-0.3,0.3-0.4,0.4c-0.8,0.8-0.9,1-1.4,1.4l-0.2-0.1c0.3-0.7,0.4-1,0.8-2.1h-11.9c-0.1,1-0.3,1.6-0.7,2.2
				c-0.3,0.4-0.6,0.7-0.8,0.7c-0.1,0-0.3-0.1-0.4-0.4c-0.1-0.3-0.2-0.6-0.2-0.8c0-0.2,0.1-0.3,0.3-0.5c0.3-0.2,0.8-0.8,1.1-1.3
				c0.2-0.5,0.3-0.8,0.3-1.6h0.3c0,0.4,0,0.6,0,0.8c0,0.1,0,0.3,0,0.5h2.5c-0.1-0.1-0.1-0.2-0.2-0.4c-0.1-0.4-0.3-1-0.6-1.5
				c-0.1-0.3-0.2-0.4-0.4-0.6c-0.7,0.1-1.2,0.1-2.4,0.1l0-0.3c3.6-0.4,6-0.8,8.4-1.3c1.8-0.5,2.9-0.8,3.9-1.3c1.6,1,1.6,1,1.6,1.2
				c0,0.1-0.1,0.2-0.3,0.2c-0.1,0-0.2,0-0.3,0c-0.1,0-0.3,0-0.6-0.1c-2,0.6-3.8,1-6.5,1.3c0.3,0.2,1.1,0.9,1.4,1.2
				c0.3,0.3,0.4,0.5,0.4,0.6c0,0.1-0.1,0.4-0.2,0.7c-0.1,0.1-0.1,0.2-0.2,0.3H120.8z M126.4,112c-0.8,0.2-1.2,0.5-1.5,1.3
				c-1.4-0.3-2.1-0.6-3.4-1.2c-1.2-0.6-2.2-1.1-3.1-1.7c-2.2,1.6-4.8,2.6-8.1,3.3l-0.1-0.3c3-1,5.1-2,7.3-3.7
				c-1.4-1.2-2.2-2.4-2.8-4h-0.6c-0.5,0-0.8,0-1.5,0.1l-0.1-0.6c0.8,0.1,1,0.1,1.6,0.1h7.1c0.3-0.3,0.4-0.4,0.7-0.8
				c0.6,0.5,0.8,0.6,1.5,1.2c0.1,0.1,0.1,0.1,0.1,0.3c0,0-0.1,0.1-0.1,0.1c-0.1,0.1-0.2,0.1-1,0.3c-1.2,1.6-2,2.5-3.3,3.5
				c1.9,1,4.3,1.7,7.2,2V112z M118.4,102.6c-0.1-0.1-0.2-0.2-0.2-0.4c-0.3-0.8-0.8-1.9-1.1-2.3c-1.2,0.1-2,0.2-3,0.2
				c0.3,0.2,1,0.8,1.2,1c0.3,0.3,0.4,0.5,0.4,0.6c0,0.3-0.2,0.7-0.4,0.9H118.4z M115.2,105.7c0.3,0.7,0.5,1.1,1.1,1.8
				c0.6,0.6,1.2,1.2,1.9,1.8c1.3-1.1,2-2,3-3.5H115.2z"/>
			<path class="st1" d="M128.3,106.9c1.2-1.7,2.1-3.3,3-5.5c0.7-1.6,1-2.6,1.2-3.9c0.7,0.2,1.7,0.5,2,0.6c0.1,0.1,0.2,0.1,0.2,0.2
				c0,0.2-0.2,0.3-0.9,0.4c-0.7,1.8-1.3,2.9-2.4,4.8c1.3,0.2,1.5,0.3,1.5,0.4c0,0.1-0.1,0.2-0.6,0.4v4.9c0,2.4,0,2.4,0,4.4
				c0,0.2-0.2,0.3-0.7,0.4c-0.2,0-0.3,0-0.3,0s0,0,0,0c-0.2,0-0.3-0.1-0.3-0.2c0,0,0,0,0,0c0.1-2.1,0.1-3.2,0.1-4.4v-5.3
				c-1.2,1.7-1.6,2.3-2.5,3.2L128.3,106.9z M134.3,103c-0.3,0-0.7,0-1.4,0.1l-0.1-0.6c0.8,0.1,1.2,0.1,1.6,0.1h5.9v-3
				c0-0.9,0-1.2-0.1-1.9c1.6,0.2,2.1,0.3,2.1,0.5c0,0.1-0.2,0.3-0.8,0.5v4h0.5c0.4-0.6,0.6-0.8,1-1.3c0.7,0.6,0.9,0.8,1.6,1.4
				c0.1,0.1,0.1,0.1,0.1,0.2c0,0.1-0.1,0.2-0.2,0.2h-3v5.2c0,1.2,0,2.9,0.1,4c0,0.5-0.1,0.8-0.5,1c-0.3,0.2-0.6,0.3-1.9,0.6
				c-0.2-0.9-0.3-0.9-3.2-1.5l0-0.3c0.5,0,1,0.1,1.3,0.1c1.5,0.1,1.6,0.1,2.6,0.1c0.3,0,0.4-0.1,0.4-0.4V103H134.3z M134.5,104.7
				c1,0.6,1.7,1.2,2.6,2c0.6,0.6,0.8,0.9,0.8,1.3c0,0.5-0.5,1.2-0.7,1.2c-0.2,0-0.3-0.1-0.5-0.5c-0.6-1.6-1.4-2.7-2.4-3.8
				L134.5,104.7z"/>
			<path class="st1" d="M147.9,111.3c0,0.2-0.1,0.3-0.6,0.3c-0.1,0-0.2,0-0.3,0c0,0,0,0-0.1,0c-0.2,0-0.2-0.1-0.3-0.2
				c0-2.3,0.1-4.5,0.1-8.4c0-2,0-2.9-0.1-4.6c0.6,0.3,0.7,0.5,1.3,0.9h2.2c0.3-0.3,0.4-0.5,0.7-0.8c0.4,0.3,0.5,0.5,1,0.8
				c0.1,0.1,0.2,0.2,0.2,0.3c0,0.1-0.2,0.3-0.6,0.5v3.4c0,1.7,0,4.1,0,7.2c0,0.1-0.1,0.2-0.1,0.2c-0.1,0-0.6,0.1-0.8,0.1
				c-0.1,0-0.2-0.1-0.2-0.2v-1h-2.4V111.3z M150.3,99.7h-2.4v4.4h2.4V99.7z M147.9,104.5v4.8h2.4v-4.8H147.9z M159.8,106.3h0.4
				c0.4-0.5,0.6-0.6,1-1.1c0.6,0.5,0.8,0.7,1.3,1.2c0.1,0.1,0.1,0.1,0.1,0.2c0,0.1-0.1,0.1-0.2,0.1h-2.6v2.8c0,0.2,0,1.7,0,2.3
				c0,0.8-0.1,1-0.2,1.2c-0.3,0.3-0.6,0.5-1.7,0.7c-0.1-0.5-0.2-0.7-0.5-0.9c-0.3-0.2-0.6-0.3-1.9-0.5v-0.3c1.3,0.1,1.7,0.1,2.9,0.1
				c0.2,0,0.3-0.1,0.3-0.3v-5.3h-4.8c-1,0-1.1,0-1.7,0.1l-0.2-0.7c0.6,0.1,1,0.2,1.9,0.2h4.8v-2.4h-5.1c-0.9,0-1.2,0-1.7,0.1
				l-0.1-0.7c0.6,0.1,0.8,0.1,1.8,0.1h2.3v-2.9h-2.2c-0.7,0-1,0-1.4,0.1l-0.1-0.7c0.5,0.1,0.9,0.2,1.5,0.2h2.2v-1.3
				c0-0.3,0-0.6-0.1-1.4c1.7,0.2,2.1,0.3,2.1,0.4c0,0.1-0.2,0.3-0.8,0.4v1.9h2.1l1-1.2c0.6,0.6,0.8,0.7,1.4,1.3
				c0.1,0.1,0.1,0.1,0.1,0.2c0,0.1-0.1,0.1-0.2,0.1h-4.4v2.9h3l1-1.2c0.7,0.6,0.9,0.8,1.6,1.3c0.1,0.1,0.1,0.1,0.1,0.1
				c0,0.1-0.1,0.1-0.2,0.1h-2.7V106.3z M153.5,107.5c0.7,0.3,1.4,0.6,2.1,1.2c0.5,0.4,0.8,0.7,0.8,1.1c0,0.6-0.3,1.2-0.5,1.2
				c-0.1,0-0.3-0.1-0.4-0.5c-0.4-1-1.1-1.8-2.1-2.8L153.5,107.5z"/>
			<path class="st1" d="M166.1,103.2v6.9c0,2.4,0,2.4,0,3.6c0,0.1-0.1,0.2-0.2,0.2c-0.1,0-0.6,0.1-0.9,0.1c-0.2,0-0.2,0-0.2-0.2
				c0.1-1.5,0.1-4.4,0.1-8.9c0-4.7,0-6.3-0.1-7.3c0.5,0.3,0.7,0.5,1.3,0.8h3.7c0.3-0.4,0.4-0.5,0.7-0.8c0.4,0.4,0.6,0.5,1,0.8
				c0.1,0.1,0.2,0.2,0.2,0.2c0,0.1-0.1,0.2-0.5,0.5c0,0.9,0,1.4,0,2c0,0.9,0,1.5,0.1,2.6c0,0.1,0,0.2-0.1,0.2
				c-0.1,0-0.5,0.1-0.9,0.1c-0.1,0-0.2-0.1-0.2-0.2v-0.5H166.1z M169.9,98.8h-3.8v1.8h3.8V98.8z M169.9,100.9h-3.8v1.8h3.8V100.9z
				 M169.9,112.1c0,0.1,0,0.1-0.2,0.2c-0.1,0-0.6,0.1-0.7,0.1c-0.2,0-0.2-0.1-0.2-0.2c0-1.5,0-2.3,0-3.1c0-2.1,0-3.8-0.1-4.5
				c0.6,0.3,0.8,0.4,1.4,0.8h4.2c0.3-0.3,0.5-0.4,0.8-0.7c0.4,0.3,0.5,0.4,0.9,0.8c0.2,0.1,0.2,0.2,0.2,0.3c0,0.1-0.1,0.2-0.6,0.4
				c0,0.9,0,1.3,0,2c0,1.2,0,1.9,0.1,3.3v0c0,0.2,0,0.2-0.2,0.3c-0.1,0-0.5,0.1-0.8,0.1c-0.2,0-0.2,0-0.3-0.2V111h-4.5V112.1z
				 M174.5,105.8h-4.5v2h4.5V105.8z M169.9,108.2v2.3h4.5v-2.3H169.9z M174.5,103.2v0.5c0,0.2-0.2,0.3-0.7,0.3c-0.5,0-0.5,0-0.5-0.2
				c0-1.1,0.1-1.7,0.1-2.7c0-2.6,0-2.7-0.1-3.4c0.6,0.3,0.8,0.4,1.3,0.8h3.8c0.3-0.4,0.4-0.5,0.7-0.8c0.5,0.4,0.6,0.5,1.1,0.8
				c0.1,0.1,0.2,0.2,0.2,0.3c0,0.1-0.1,0.2-0.6,0.5v8.7c0,3,0,3,0,4.7c-0.1,0.8-0.4,1.1-1.9,1.4c-0.2-0.4-0.3-0.6-0.6-0.8
				c-0.2-0.1-0.5-0.2-1-0.3c-0.6-0.1-1-0.2-1-0.2v-0.3c1.5,0.1,1.8,0.1,2.9,0.1c0.3,0,0.3-0.1,0.3-0.3v-9H174.5z M178.5,98.8h-4.1
				v1.8h4.1V98.8z M178.5,100.9h-4.1v1.8h4.1V100.9z"/>
			<path class="st1" d="M182.5,114.2c1-1,1.5-1.8,2-2.7c1-1.7,1.5-3.9,1.5-5.9c0-2-0.6-4.1-1.5-5.9c-0.5-0.9-1-1.6-2-2.7h5.1v17
				H182.5z"/>
			<path class="st1" d="M206,108.7c0,2.2-1.7,3.5-4.5,3.5c-2.7,0-4.4-1.3-4.4-3.3c0-1,0.5-2,1.4-2.6c0.4-0.3,0.9-0.6,1.7-0.9
				c-0.8-0.4-1.2-0.7-1.6-1c-0.7-0.6-1-1.2-1-2.2c0-0.8,0.3-1.6,0.7-2.1c0.7-0.8,1.9-1.3,3.3-1.3c1.4,0,2.6,0.5,3.3,1.5
				c0.3,0.5,0.5,1,0.5,1.7c0,0.9-0.3,1.5-1,2.1c-0.5,0.4-1,0.6-1.6,0.8C205,105.9,206,107.1,206,108.7z M199.6,106.4
				c-0.7,0.6-1,1.4-1,2.3c0,1.8,1.3,3,3.1,3c1.7,0,2.9-1.1,2.9-2.7c0-0.9-0.4-1.5-1.3-2.1c-0.3-0.3-0.9-0.5-1.7-0.9
				c-0.2-0.1-0.7-0.3-0.7-0.3C200.2,105.9,199.9,106.1,199.6,106.4z M204.2,102.1c0-1.7-1-2.8-2.7-2.8c-1.5,0-2.5,0.9-2.5,2.4
				c0,1,0.4,1.5,1.5,2.2c0.2,0.1,0.2,0.1,1.3,0.6c0.1,0.1,0.3,0.1,0.5,0.3C203.6,104.2,204.2,103.4,204.2,102.1z"/>
			<path class="st1" d="M211,103.9c0,0.7-0.5,1.3-1.3,1.3c-0.7,0-1.3-0.5-1.3-1.3c0-0.7,0.5-1.3,1.3-1.3
				C210.4,102.6,211,103.1,211,103.9z M211,110.9c0,0.7-0.5,1.3-1.3,1.3c-0.7,0-1.3-0.6-1.3-1.3s0.5-1.3,1.3-1.3
				C210.4,109.6,211,110.2,211,110.9z"/>
			<path class="st1" d="M214.3,100.9c0.7-1.3,2-2,3.5-2c1.5,0,2.8,0.7,3.5,2c0.7,1.2,1,2.9,1,4.7c0,1.8-0.4,3.4-1,4.7
				c-0.7,1.3-2,2-3.5,2c-1.5,0-2.8-0.8-3.5-2c-0.7-1.2-1-2.9-1-4.7C213.3,103.8,213.7,102.2,214.3,100.9z M217.8,111.8
				c1.9,0,2.8-1.9,2.8-6.2c0-4.3-0.8-6.2-2.8-6.2c-1.9,0-2.8,1.9-2.8,6.2C215.1,109.9,215.9,111.8,217.8,111.8z"/>
			<path class="st1" d="M224.9,100.9c0.7-1.3,2-2,3.5-2c1.5,0,2.8,0.7,3.5,2c0.7,1.2,1,2.9,1,4.7c0,1.8-0.4,3.4-1,4.7
				c-0.7,1.3-2,2-3.5,2c-1.5,0-2.8-0.8-3.5-2c-0.7-1.2-1-2.9-1-4.7C223.9,103.8,224.3,102.2,224.9,100.9z M228.4,111.8
				c1.9,0,2.8-1.9,2.8-6.2c0-4.3-0.8-6.2-2.8-6.2c-1.9,0-2.8,1.9-2.8,6.2C225.6,109.9,226.5,111.8,228.4,111.8z"/>
			<path class="st1" d="M239.2,106.2c1.4-1.9,2.7-2.8,4.2-2.8c1,0,1.9,0.4,4.6,1.9c2.1,1.2,3,1.6,3.9,1.6c0.4,0,1-0.2,1.5-0.5
				c0.5-0.3,0.9-0.8,1.5-1.6l0.4,0.3c-0.4,0.8-0.9,1.4-1.7,2.1c-0.8,0.7-1.4,1-2.3,1c-0.4,0-0.8-0.1-1.2-0.2
				c-0.7-0.2-1.3-0.5-3.4-1.7c-1.9-1.1-3.2-1.7-4.2-1.7c-0.8,0-1.9,0.7-2.9,2L239.2,106.2z"/>
			<path class="st1" d="M263.5,111.4c0.8-0.1,1-0.1,1.2-0.2c0.4-0.2,0.5-0.6,0.5-1.9v-7.6c0-1.6,0-1.6-0.2-1.7s-0.4-0.2-0.8-0.2
				h-0.7v-0.5c1.4-0.1,2.5-0.3,3.4-0.5c-0.1,1.4-0.1,3-0.1,5.1v5.3c0,1.2,0.1,1.6,0.3,1.8c0.2,0.2,0.3,0.2,1.3,0.3v0.5h-4.9V111.4z"
				/>
			<path class="st1" d="M276.1,107.3c-1.2,0-2.2-0.4-2.9-1.1c-0.6-0.7-1-1.8-1-2.9c0-2.6,1.8-4.4,4.3-4.4c2.9,0,4.4,2.1,4.4,6
				c0,2.6-0.6,4.8-1.6,5.9c-0.8,0.9-1.8,1.4-3.1,1.4c-1.9,0-3.5-1-3.5-2.1c0-0.6,0.4-0.9,1-0.9c0.6,0,0.8,0.2,0.8,0.7
				c0.1,1.3,0.6,1.9,1.7,1.9c1.2,0,2.1-0.8,2.6-2.5c0.3-0.9,0.4-2.2,0.4-3.4C278.3,106.9,277.3,107.3,276.1,107.3z M278.5,100.7
				c-0.5-0.9-1.2-1.3-2.1-1.3c-0.8,0-1.6,0.4-2,1.2c-0.4,0.7-0.6,1.7-0.6,2.7c0,2.2,1,3.6,2.5,3.6c0.7,0,1.4-0.3,1.9-0.8
				c0.6-0.6,0.9-1.3,0.9-2.4C279.2,102.5,279,101.5,278.5,100.7z"/>
			<path class="st1" d="M286,103.9c0,0.7-0.5,1.3-1.3,1.3c-0.7,0-1.3-0.5-1.3-1.3c0-0.7,0.5-1.3,1.3-1.3
				C285.4,102.6,286,103.1,286,103.9z M286,110.9c0,0.7-0.5,1.3-1.3,1.3c-0.7,0-1.3-0.6-1.3-1.3s0.5-1.3,1.3-1.3
				C285.4,109.6,286,110.2,286,110.9z"/>
			<path class="st1" d="M289.3,100.9c0.7-1.3,2-2,3.5-2c1.5,0,2.8,0.7,3.5,2c0.7,1.2,1,2.9,1,4.7c0,1.8-0.4,3.4-1,4.7
				c-0.7,1.3-2,2-3.5,2c-1.5,0-2.8-0.8-3.5-2c-0.7-1.2-1-2.9-1-4.7C288.3,103.8,288.7,102.2,289.3,100.9z M292.8,111.8
				c1.9,0,2.8-1.9,2.8-6.2c0-4.3-0.8-6.2-2.8-6.2c-1.9,0-2.8,1.9-2.8,6.2C290,109.9,290.9,111.8,292.8,111.8z"/>
			<path class="st1" d="M299.9,100.9c0.7-1.3,2-2,3.5-2c1.5,0,2.8,0.7,3.5,2c0.7,1.2,1,2.9,1,4.7c0,1.8-0.4,3.4-1,4.7
				c-0.7,1.3-2,2-3.5,2c-1.5,0-2.8-0.8-3.5-2c-0.7-1.2-1-2.9-1-4.7C298.9,103.8,299.2,102.2,299.9,100.9z M303.4,111.8
				c1.9,0,2.8-1.9,2.8-6.2c0-4.3-0.8-6.2-2.8-6.2c-1.9,0-2.8,1.9-2.8,6.2C300.6,109.9,301.5,111.8,303.4,111.8z"/>
		</g>
	</g>
	<line class="st2" x1="4.5" y1="133.8" x2="404.5" y2="133.8"/>
	<polygon class="st0" points="393.7,37.3 404.5,18.7 393.7,0 15.3,0 4.5,18.7 15.3,37.3 	"/>
	<g>
		<g>
			<path class="st3" d="M53.8,23.9c0.2,0,1-0.1,1.7-0.2c0.3,0,1.4-0.2,1.7-0.2c0.6,0,1.2,0.5,1.2,0.8c0,1-3.1,1.1-4.1,1.1
				c-2.4,0-5.6-0.5-5.6-3.2c0-0.6,0.2-0.8,0.3-0.8c0.1,0,0.1,0,0.2,0.5c0.4,1.4,2.2,2,3.5,2C52.8,23.8,53.6,23.9,53.8,23.9z
				 M51.1,14c1.4,0,2.7-0.3,2.9-0.3c0.6-0.1,0.8-0.1,0.9-0.1c0.8,0,1.7,0.8,1.7,1.2c0,0.3-0.1,0.3-1.3,0.6c-0.9,0.2-1.5,0.7-2.1,1.2
				c-0.1,0.1-0.2,0.1-0.2,0.1c0,0-0.1,0-0.1-0.1c0-0.1,0.8-1.1,0.8-1.3c0-0.1-0.1-0.1-0.6-0.1c-2.1,0-3.4-1-3.4-1.2
				c0-0.1,0.1-0.1,0.1-0.1c0.1,0,0.1,0,0.6,0.1C50.6,14,50.9,14,51.1,14z M58.7,16.3c0.5,0.3,0.8,0.8,0.8,1c0,0.3-0.2,0.7-0.5,0.7
				c-0.2,0-0.4-0.1-1-0.7c-0.4-0.4-0.5-0.5-1.3-1c-0.1-0.1-0.3-0.2-0.3-0.3c0-0.1,0.1-0.2,0.3-0.2C57.4,15.8,58,15.8,58.7,16.3z
				 M61.4,15.8c0,0.2-0.1,0.5-0.5,0.5c-0.4,0-0.6-0.3-0.9-0.7c-0.2-0.3-1-0.8-1.6-1c-0.2-0.1-0.2-0.1-0.2-0.2c0-0.1,0.4-0.2,0.7-0.2
				C60.4,14.3,61.4,15.1,61.4,15.8z"/>
			<path class="st3" d="M74.1,17.6c0.4,0,0.6,0,0.6-0.2c0,0-0.4-1-2.4-2.5c-0.5-0.4-0.5-0.4-0.5-0.5c0-0.1,0.1-0.1,0.1-0.1
				c0.1,0,1,0.3,1.7,0.5c0.3,0.1,1.6,0.6,1.7,0.6c0.2,0,0.2,0,0.8-0.7c0.2-0.3,1-1.4,1-1.6c0-0.2-0.2-0.2-0.4-0.2h-5.2
				c-0.4,0-1.6,0-2.3,0.1c-0.1,0-0.3,0-0.4,0c-0.1,0-0.1,0-0.2-0.1l-0.3-0.4c-0.1-0.1-0.1-0.1-0.1-0.1s0,0,0.1,0
				c0.1,0,0.7,0.1,0.8,0.1c0.5,0,1.4,0.1,2.5,0.1h5.3c0.6,0,0.8,0,0.9-0.2c0.3-0.3,0.4-0.5,0.6-0.5c0.3,0,1.8,0.9,1.8,1.2
				c0,0.2-0.1,0.2-0.8,0.3c-0.4,0.1-0.7,0.3-3.2,2c-0.5,0.3-0.6,0.4-0.6,0.5c0,0.1,0,0.1,0.1,0.3c0.1,0.2,0.2,0.4,0.2,0.6
				c0,0.1,0,0.2-0.1,0.3c-0.1,0.2-0.1,0.2-0.1,0.4c0,0.2,0.2,0.2,0.3,0.2h3.2c0.8,0,0.8,0,0.9-0.1c0.3-0.3,0.5-0.4,0.6-0.4
				c0.2,0,1.8,1.3,1.8,1.6c0,0.2-0.2,0.3-0.3,0.3S81.6,19,81.4,19c-0.5,0-0.6,0.1-1.9,1c-0.2,0.1-0.8,0.6-0.8,0.6s-0.1-0.1-0.1-0.1
				c0,0,1.3-1.7,1.3-2.1c0-0.2-0.1-0.2-0.5-0.2h-3.6c-0.4,0-0.7,0-0.7,0.5c0,0.7,0.1,6.2,0.1,6.4c0,0.6,0,1.5-0.5,2
				c-0.4,0.4-0.9,0.6-1.1,0.6c-0.3,0-0.4-0.1-0.7-0.7c-0.1-0.2-0.4-0.5-0.8-0.7c-0.2-0.1-1.1-0.4-1.1-0.5c0-0.1,0.1-0.1,0.2-0.1
				s0.4,0.1,0.5,0.1c0.3,0,0.7,0.1,1,0.1c0.8,0,1,0,1.2-0.4c0.1-0.4,0.1-2.8,0.1-3.4c0-0.5-0.1-2.7-0.1-3.2c0-0.3,0-0.6-0.5-0.6
				h-4.1c-0.4,0-1.6,0-2.3,0.1c-0.1,0-0.3,0-0.4,0c-0.1,0-0.1,0-0.2-0.1L66,17.6c-0.1-0.1-0.1-0.1-0.1-0.1c0,0,0.1,0,0.1,0
				c0.1,0,0.7,0.1,0.8,0.1c0.5,0,1.4,0.1,2.5,0.1H74.1z"/>
			<path class="st3" d="M89.7,22.2c0,0.1-0.3,0.4-0.4,0.5c-0.3,0.4-1.5,2.4-1.8,2.7C87.4,25.5,87,26,86.9,26c-0.1,0-0.1,0-0.1-0.1
				c0,0,0.5-1.3,0.6-1.6c0.3-0.9,0.6-1.8,0.7-2.3c0-0.5,0-0.6,0.2-0.6c0.1,0,0.6,0.2,0.7,0.2C89.2,21.8,89.7,22,89.7,22.2z
				 M93.5,20.1c0-0.2-0.1-0.3-0.3-0.3c-0.2,0-1,0.2-1.2,0.2c-0.5,0.1-0.5,0.2-0.5,0.9c0,0.8,0,4.7,0,5.6c0,0.9-0.8,1-0.9,1
				c-0.4,0-0.4-0.3-0.4-0.4c0-0.2,0.1-1.3,0.1-1.6c0-1.3,0.1-3.5,0.1-4.8c0-0.2,0-0.4-0.4-0.4c-0.3,0-1.7,0.1-2.1,0.3
				c-0.1,0-0.4,0.3-0.5,0.3c-0.3,0-0.4-1.4-0.4-1.5c0-0.1,0-0.3,0.2-0.3c0,0,0.5,0.1,0.5,0.1c0.4,0.1,1,0.3,1.8,0.3
				c0.6,0,0.6-0.1,0.8-0.3c0.9-1.5,2-3.9,2.2-5c0.1-0.4,0.1-0.5,0.2-0.5c0.1,0,1.7,0.7,1.7,1c0,0.2-0.1,0.2-0.3,0.2
				c-0.2,0-0.3,0.1-0.6,0.4c-0.5,0.5-2.8,4-2.8,4.1c0,0.1,0,0.1,0.1,0.1c0.1,0,1.1,0,1.3,0c0.3,0,0.8,0,1-0.1c0.1,0,0.2,0,0.2-0.2
				c0-0.2-0.5-1.2-0.5-1.3c0-0.1,0.1-0.1,0.1-0.1c0.3,0,2,1,2,2.3c0,0.4-0.2,0.7-0.6,0.7C93.9,20.8,93.6,20.7,93.5,20.1z M89.6,17.7
				c-0.3,0-0.4-0.1-0.6-0.6c-0.1-0.2-0.5-1-1.2-1.9c-0.2-0.2-0.2-0.2-0.2-0.3c0-0.1,0-0.1,0.1-0.1c0.2,0,1.2,0.5,1.3,0.5
				c0.2,0,0.9-2.2,1.1-3.7c0.1-0.3,0.1-0.3,0.2-0.3c0.1,0,1.6,0.6,1.6,0.8c0,0.1-0.5,0.4-0.5,0.5c-0.2,0.2-1.8,2.7-1.8,3
				c0,0.2,0.1,0.3,0.2,0.3c0.2,0.2,0.5,0.7,0.5,1C90.2,17.3,90,17.7,89.6,17.7z M94.8,24.4c0,0.5-0.4,0.9-0.7,0.9
				c-0.4,0-0.4-0.1-0.7-1.4c-0.2-0.7-0.2-0.8-0.6-1.5c0-0.1-0.1-0.3-0.1-0.3c0-0.1,0.1-0.1,0.1-0.1c0.2,0,0.7,0.4,1,0.7
				C94.4,23.2,94.8,23.9,94.8,24.4z M96.6,15.8c-0.4,0-0.5,0.1-0.7,0.3c-0.4,0.6-1.4,2.2-1.7,2.2c-0.1,0-0.1-0.1-0.1-0.1
				c0,0,0.7-1.3,0.8-1.6c0.8-1.6,1.5-4.1,1.5-5c0,0,0-0.2,0-0.3c0-0.1,0-0.1,0.1-0.1c0.1,0,2,0.6,2,0.9c0,0.2-0.2,0.3-0.5,0.4
				c-0.3,0.1-1.4,2.6-1.4,2.7c0,0.1,0.1,0.1,0.3,0.1h3.3c0.5,0,0.5,0,0.7-0.2c0.3-0.3,0.4-0.3,0.5-0.3c0.2,0,1.4,0.7,1.4,1
				c0,0.1-0.1,0.1-0.5,0.5c-0.1,0.1-0.1,0.9-0.1,1.4c0,3.3-0.5,7.2-1.5,8.8c-0.5,0.7-1.5,1.1-1.9,1.1c-0.2,0-0.3-0.1-0.5-0.6
				c-0.2-0.5-0.6-0.8-1-1.1c-0.3-0.2-0.3-0.2-0.3-0.3c0-0.1,0.1-0.1,0.1-0.1c0,0,0.5,0.2,0.6,0.2c0.5,0.1,0.8,0.3,1.1,0.3
				c0.8,0,1.2-0.8,1.4-1.6c0.6-2.2,0.8-4.4,0.8-6.7c0-0.3,0-1.6-0.1-1.7c-0.1-0.2-0.3-0.2-0.5-0.2H96.6z M98.6,21.6
				c0,0.7-0.4,1.2-0.9,1.2c-0.5,0-0.5-0.2-0.7-1.4c-0.2-0.9-0.5-1.6-0.5-1.8c-0.1-0.3-0.1-0.3-0.1-0.4c0-0.1,0-0.1,0.1-0.1
				c0.3,0,1.1,0.7,1.4,1C98.3,20.6,98.6,21.1,98.6,21.6z"/>
			<path class="st3" d="M111.8,25.4c0,0.4-0.2,0.7-0.6,0.7c-0.9,0-1.8-1.8-1.8-4.6c0-1.1,0.1-1.9,0.5-3.5c0.5-2.2,0.5-2.3,0.5-2.9
				c0-0.6-0.1-0.9-0.4-1.5c-0.1-0.1-0.3-0.5-0.3-0.6s0.2-0.1,0.3-0.1c1,0,1.9,1.8,1.9,2.1c0,0.1-0.8,2.4-0.9,2.8
				c-0.4,1.2-0.6,2.3-0.6,3.6c0,0.1,0,1.3,0.4,1.3c0.2,0,0.2-0.1,0.5-1.1c0.1-0.2,0.6-1.8,0.7-1.8c0.1,0,0.1,0.1,0.1,0.2
				c0,0.6-0.5,3.2-0.5,3.7C111.5,23.9,111.8,25.1,111.8,25.4z M118.9,24.4c-0.5,1-1.5,1.7-2.7,1.7c-1.2,0-2.3-0.7-2.3-1.8
				c0-0.3,0-2.2,3.7-2.2c0.5,0,0.5-0.1,0.5-1.2c0-0.1-0.1-2-0.1-2.5c0-0.1,0-0.3-0.1-0.4c0,0-0.7,0-0.8,0c-2,0-2.7-1.4-2.7-1.6
				c0-0.1,0-0.1,0.1-0.1c0.1,0,0.4,0.2,0.5,0.3c0.5,0.2,1.2,0.4,2,0.4c1,0,1,0,1-1.2c0-1.1,0-1.6-0.3-2.1c-0.1-0.1-0.6-0.5-0.6-0.6
				c0-0.1,0.2-0.3,0.6-0.3c0.4,0,1.6,0.3,1.6,0.9c0,0.1,0,0.2-0.2,0.5c-0.1,0.1-0.1,0.2-0.1,0.4c0,0.5,0.9,0.6,1,0.6
				c0.8,0,1.4,0.1,1.4,0.8c0,0.8-1.2,1.4-1.9,1.7c-0.7,0.3-0.7,0.3-0.7,1.1c0,0.4,0.1,2.4,0.2,2.9c0.1,0.7,0.1,0.8,0.6,1
				c0.9,0.4,2.8,1.2,2.8,2.3c0,0.3-0.3,0.7-0.6,0.7c-0.2,0-0.3-0.1-0.7-0.6c-0.5-0.6-1.5-1.4-1.8-1.2
				C119.1,23.6,119,24.2,118.9,24.4z M114.7,24.1c0,0.5,0.6,0.8,1.2,0.8c1.1,0,2.2-0.9,2.2-1.5c0-0.3-0.3-0.5-1.4-0.5
				C115.6,23,114.7,23.6,114.7,24.1z M118.9,15.6c0,0.7,0.1,0.7,0.3,0.7c0.3,0,0.9-0.2,0.9-0.6c0-0.3-0.6-0.6-0.8-0.6
				c-0.1,0-0.1,0-0.2,0.1C118.9,15.2,118.9,15.4,118.9,15.6z"/>
			<path class="st3" d="M135.8,16.5c0,0.6-1.4,1.1-1.8,1.3c-0.3,0.1-0.3,0.2-0.3,0.8c0,0.4,0,1.9,0,1.9c0,0.1,0,0.3,0.2,0.3
				c0.1,0,1.5-0.6,1.8-0.7c1.8-0.7,2.6-0.7,3.1-0.7c1.3,0,2.8,1,2.8,2.7c0,2.4-2.5,3.5-4,3.5c-1,0-1.9-0.5-1.9-1.5
				c0-0.8,0.7-1.4,0.9-1.4c0.1,0,0.1,0.1,0.1,0.1c0,0.1,0,0.1-0.1,0.1c-0.1,0.1-0.2,0.2-0.2,0.5c0,0.9,1,0.9,1.2,0.9
				c1.2,0,2.7-0.8,2.7-2.2c0-1.3-1-2-1.7-2c-0.5,0-1.6,0.2-3.7,1.4c-1,0.5-1.1,0.6-1.1,0.9c0,0.2,0.1,1,0.1,1.2c0,0.8-0.3,2-0.9,2
				c-0.5,0-0.7-0.4-0.8-0.7c-0.6-1.1-0.7-1.1-0.9-1.1c-0.2,0-0.3,0.1-0.5,0.1c-0.1,0.1-0.6,0.4-0.7,0.4c-0.2,0-1.1-0.5-1.1-1.1
				c0-0.3,0.2-0.7,0.5-0.7c0.1,0,0.6,0.1,0.7,0.1c0.5,0,0.8-0.1,1.9-0.6c0.9-0.5,1-0.5,1-1c0-0.4,0-1.9,0-2.3c0-0.1-0.1-0.4-0.3-0.4
				c-0.2,0-0.7,0.1-0.8,0.2c-0.9,0.3-1,0.3-1.3,0.3c-0.6,0-1.3-1.2-1.3-1.4c0-0.1,0.1-0.1,0.1-0.1c0.1,0,0.3,0.1,0.3,0.1
				c0.3,0.1,0.6,0.1,0.8,0.1c0.6,0,2.2-0.4,2.3-0.5c0.1-0.1,0.2-1.8,0.2-2c0-0.6-0.1-0.9-0.6-1.4c0,0-0.3-0.3-0.3-0.3
				c0-0.2,0.3-0.2,0.4-0.2c1.2,0,1.9,0.9,1.9,1.2c0,0.2-0.3,0.8-0.4,0.9c0,0.1-0.2,0.8-0.2,1.2c0,0.1,0,0.2,0.1,0.2
				c0.1,0,0.6-0.2,0.6-0.5c0,0-0.1-0.2-0.1-0.3c0,0,0-0.1,0.1-0.1C134.9,15.6,135.8,15.9,135.8,16.5z M131.7,23.4
				c0,0.3,0.5,0.8,0.8,0.8c0.3,0,0.5-0.5,0.5-1.4c0-0.1,0-0.3-0.1-0.3C132.8,22.5,131.7,23.1,131.7,23.4z M143.5,17.8
				c0,0.4-0.2,0.9-0.6,0.9c-0.1,0-0.5,0-0.6,0c-0.1,0-0.5,0.1-0.5,0.1c0,0-0.1,0-0.1-0.1c0,0,0.1-0.1,0.1-0.1c0-0.1,0.1-0.2,0.1-0.3
				c0-0.7-0.9-1-1.5-1c-0.3,0-0.5,0.1-0.7,0.2c-0.1,0-0.1,0.1-0.2,0.1c-0.1,0-0.1,0-0.1-0.1c0-0.1,0.8-1.1,1.9-1.1
				C142.6,16.2,143.5,16.9,143.5,17.8z"/>
			<path class="st3" d="M157.5,14.7c-0.6,0-0.6,0.3-0.6,0.7c0,0.5,0.1,2.5,0.1,2.9c0,0.3,0,0.8-0.8,0.8c-0.4,0-0.4-0.1-0.4-0.5
				c0-0.5,0-2.8,0-3.3c0-0.6-0.1-0.7-0.6-0.7h-4.8c-0.3,0-0.4,0-0.4,0.3c0,1.9-1,1.9-1.1,1.9c-0.4,0-0.6-0.4-0.6-0.6
				c0-0.3,0.1-0.5,0.6-1.2c0.3-0.5,0.3-0.9,0.4-1c0-0.4,0.1-0.5,0.1-0.5c0.1,0,0.2,0.2,0.4,0.4c0.1,0.2,0.3,0.2,0.5,0.2h5
				c0.2,0,0.5,0,0.5-0.5c0-0.8,0-0.9-0.5-0.9h-1.8c-1.6,0-2.1,0-2.3,0.1c-0.1,0-0.3,0-0.4,0s-0.1-0.1-0.2-0.1l-0.3-0.4
				c-0.1-0.1-0.1-0.1-0.1-0.1c0,0,0,0,0.1,0c0.1,0,0.7,0.1,0.8,0.1c0.9,0,1.6,0.1,2.5,0.1h5.6c0.8,0,0.9,0,1.2-0.3
				c0.5-0.6,0.6-0.7,0.7-0.7c0.1,0,1.7,1,1.7,1.2c0,0.3-0.4,0.3-1,0.3h-4.3c-0.5,0-0.5,0.2-0.5,0.7c0,0.5,0,0.7,0.5,0.7h4.6
				c0.3,0,0.4,0,0.6-0.2c0.3-0.3,0.5-0.5,0.6-0.5c0.2,0,1.5,1,1.5,1.3c0,0.2-0.4,0.3-0.5,0.3c-0.8,0.1-1.1,0.3-1.4,0.5
				c-0.1,0.1-0.6,0.5-0.7,0.5c-0.1,0-0.1,0-0.1-0.1c0-0.1,0.4-0.9,0.4-1c0-0.2-0.2-0.2-0.4-0.2H157.5z M160.2,19.6
				c0.5,0,0.5,0,0.8-0.3c0.4-0.3,0.4-0.4,0.5-0.4c0.2,0,1,0.7,1,1c0,0.1-0.2,0.3-0.3,0.5c-0.1,0.2-0.1,0.4-0.1,0.7
				c0,0.4,0.1,2.4,0.1,2.8c0,0.2,0,0.9-0.9,0.9c-0.3,0-0.3-0.1-0.4-0.3c-0.1-0.2-0.2-0.3-0.6-0.3h-2.8c-0.3,0-0.6,0-0.6,0.5
				c0,1.2,0,1.4,2.6,1.4c3.4,0,3.6-0.1,4-2.3c0-0.2,0.1-0.3,0.1-0.3c0.2,0,0.2,1.1,0.3,1.3c0.1,0.3,0.2,0.4,0.4,0.5
				c0.1,0.1,0.2,0.1,0.2,0.3c0,0.2-0.2,0.9-1,1.3c-0.8,0.4-3.3,0.4-3.8,0.4c-2.6,0-3.9,0-3.9-1.9c0-1,0-1.1-0.6-1.1h-3
				c-0.5,0-0.5,0.1-0.6,0.7c0,0.5-0.6,0.7-0.9,0.7c-0.5,0-0.5-0.5-0.5-0.6c0-0.5,0.1-2.6,0.1-3c0-0.5-0.1-1.9-0.1-2
				c0-0.2-0.1-0.5-0.1-0.6c0-0.1,0-0.3,0.2-0.3s0.3,0.1,0.8,0.4c0.3,0.1,0.5,0.2,1,0.2H160.2z M152.9,16c0.3,0,0.3,0,0.5-0.2
				c0.6-0.5,0.6-0.5,0.7-0.5c0.3,0,0.8,0.7,0.8,1c0,0.2-0.3,0.2-0.4,0.2h-2.2c-0.3,0-0.6,0-1,0c-0.1,0-0.2,0.1-0.3,0.1
				c0,0-0.1-0.1-0.1-0.2l-0.2-0.3c0-0.1-0.1-0.1-0.1-0.2c0,0,0-0.1,0-0.1c0.1,0,0.3,0.1,0.4,0.1c0.1,0,0.7,0.1,1.1,0.1H152.9z
				 M152.9,17.7c0.3,0,0.3,0,0.5-0.2c0.1-0.1,0.6-0.5,0.7-0.5c0.1,0,0.8,0.7,0.8,1c0,0.2-0.1,0.2-0.4,0.2h-2.2c-0.2,0-0.6,0-1,0
				c0,0-0.2,0.1-0.2,0.1c0,0-0.1-0.1-0.1-0.2l-0.2-0.3c0,0-0.1-0.1-0.1-0.2c0,0,0-0.1,0-0.1c0.1,0,0.3,0.1,0.4,0.1
				c0.1,0,0.6,0.1,1.1,0.1H152.9z M155.2,21.6c0.5,0,0.5-0.2,0.5-0.7c0-0.6,0-0.8-0.5-0.8H152c-0.5,0-0.5,0.2-0.5,0.5
				c0,0.9,0,1,0.5,1H155.2z M152,22c-0.2,0-0.5,0-0.5,0.5c0,1.1,0,1.2,0.5,1.2h3.2c0.5,0,0.5-0.2,0.5-0.8c0-0.7,0-0.8-0.5-0.8H152z
				 M160.3,21.6c0.5,0,0.5-0.1,0.5-0.8c0-0.5,0-0.7-0.5-0.7h-3c-0.5,0-0.5,0.2-0.5,0.8c0,0.6,0,0.7,0.5,0.7H160.3z M157.4,22
				c-0.5,0-0.5,0.2-0.5,0.7c0,0.8,0,0.9,0.5,0.9h3c0.5,0,0.5-0.2,0.5-0.8c0-0.7,0-0.9-0.5-0.9H157.4z M159.3,16.5c-0.2,0-0.6,0-1,0
				c0,0-0.2,0.1-0.2,0.1s-0.1-0.2-0.1-0.2l-0.2-0.4c0,0-0.1-0.1-0.1-0.1c0,0,0,0,0,0c0.1,0,0.3,0.1,0.4,0.1c0.1,0,0.6,0.1,1.1,0.1
				h0.9c0.3,0,0.4,0,0.6-0.2c0.3-0.3,0.4-0.4,0.5-0.4c0.3,0,0.8,0.7,0.8,0.9c0,0.3-0.3,0.3-0.5,0.3H159.3z M160.5,17.7
				c0.2,0,0.3,0,0.5-0.2c0.2-0.2,0.4-0.5,0.5-0.5c0.2,0,0.8,0.8,0.8,1c0,0.2-0.3,0.2-0.5,0.2h-2.5c-0.2,0-0.6,0-1,0
				c0,0-0.2,0.1-0.2,0.1c-0.1,0-0.1-0.1-0.1-0.2l-0.2-0.3c-0.1-0.1-0.1-0.1-0.1-0.2c0,0,0-0.1,0-0.1c0.1,0,0.3,0.1,0.3,0.1
				c0.2,0,0.7,0.1,1.2,0.1H160.5z"/>
			<path class="st3" d="M173.3,14.6c0.2,0,0.3,0,0.5-0.3c0.4-0.6,0.5-0.7,0.6-0.7c0.3,0,1.5,0.9,1.5,1.2c0,0.2-0.2,0.2-0.7,0.2h-4.1
				c-0.4,0-1,0-1.5,0c-0.1,0-0.3,0.1-0.4,0.1c-0.1,0-0.1,0-0.1-0.1l-0.3-0.4c0-0.1-0.1-0.1-0.1-0.1c0,0,0,0,0.1,0
				c0,0,0.4,0.1,0.5,0.1c0.5,0,1.4,0.1,1.8,0.1H173.3z M172.8,16.8c0.3,0,0.3,0,0.5-0.3c0.4-0.4,0.4-0.5,0.5-0.5
				c0.3,0,1.2,0.8,1.2,1c0,0.2-0.3,0.2-0.8,0.2H172c-0.3,0-1,0-1.5,0c-0.1,0-0.3,0.1-0.4,0.1c-0.1,0-0.1-0.1-0.1-0.1l-0.2-0.4
				c-0.1-0.1-0.1-0.1-0.1-0.1s0,0,0.1,0c0,0,0.4,0,0.4,0.1c0.5,0,1.4,0.1,1.8,0.1H172.8z M171.7,26c-0.6,0-0.6,0.2-0.6,0.7
				c0,0.5-0.4,0.8-0.8,0.8c-0.5,0-0.5-0.5-0.5-0.6c0-0.5,0.1-2.9,0.1-3.5c0-0.8,0-1-0.1-1.4c0-0.1-0.1-0.5-0.1-0.5
				c0-0.1,0-0.2,0.2-0.2s0.5,0.1,0.7,0.2c0.5,0.2,0.5,0.2,0.8,0.2h1.3c0.3,0,0.4,0,0.6-0.2c0.3-0.3,0.3-0.3,0.4-0.3
				c0.1,0,1.2,0.4,1.2,0.8c0,0.1-0.1,0.2-0.2,0.3c-0.2,0.1-0.2,0.2-0.3,0.3c0,0.1,0,2,0,2.1c0,0.4,0,0.6,0,0.8
				c0,0.1,0.1,0.7,0.1,0.7c0,0.6-0.6,0.8-0.8,0.8c-0.3,0-0.4-0.1-0.4-0.5c-0.1-0.3-0.4-0.3-0.5-0.3H171.7z M172.1,12.9
				c-0.5,0-1.1,0-1.5,0c-0.1,0-0.3,0.1-0.4,0.1c0,0-0.1-0.1-0.1-0.1l-0.2-0.4c-0.1-0.1-0.1-0.1-0.1-0.1c0,0,0,0,0,0
				c0,0,0.4,0,0.5,0.1c0.5,0,1.4,0.1,1.8,0.1c0.5,0,0.5,0,0.7-0.3c0.4-0.6,0.5-0.6,0.6-0.6c0.3,0,1.3,0.8,1.3,1.1
				c0,0.2-0.2,0.2-0.6,0.2H172.1z M173,19.2c0.2,0,0.3,0,0.5-0.3c0.2-0.3,0.3-0.5,0.5-0.5c0.2,0,1.1,0.8,1.1,1
				c0,0.2-0.3,0.2-0.7,0.2h-2.2c-1.2,0-1.5,0-1.6,0.1c0,0-0.2,0-0.3,0c-0.1,0-0.1,0-0.1-0.1l-0.2-0.4c-0.1-0.1-0.1-0.1-0.1-0.1
				c0,0,0,0,0.1,0c0,0,0.4,0.1,0.5,0.1c0.5,0.1,1.3,0.1,1.8,0.1H173z M171.6,22.2c-0.2,0-0.5,0-0.5,0.5c0,0.6,0,2.1,0.1,2.5
				c0.1,0.3,0.3,0.3,0.5,0.3h1.3c0.1,0,0.5,0,0.5-0.5v-2.4c0-0.4-0.2-0.5-0.5-0.5H171.6z M181.9,16.5c0.8,0,1,0,1.2-0.3
				c0.3-0.5,0.4-0.7,0.6-0.7c0.2,0,1.5,0.9,1.5,1.2s-0.4,0.3-1,0.3h-3c-0.3,0-0.5,0.1-0.5,0.4c0,0.2,0,2.7,0,3
				c0,0.5,0.3,0.5,0.6,0.5h0.6c0.2,0,0.5,0,0.6-0.2c0.2-0.3,0.2-0.3,0.4-0.3c0.3,0,1.2,0.7,1.2,0.9c0,0.1-0.4,0.4-0.4,0.5
				c-0.1,0.1-0.1,0.2-0.1,0.4c0,0.3,0,2.1,0.1,2.8c0,0.2,0.1,1.1,0.1,1.2c0,0.7-0.6,0.8-0.9,0.8c-0.4,0-0.4-0.1-0.5-0.5
				c-0.1-0.3-0.4-0.3-0.6-0.3h-3.5c-0.2,0-0.6,0-0.6,0.5c0,0.3,0,0.8-0.8,0.8c-0.6,0-0.6-0.4-0.6-0.6c0-0.1,0-0.6,0-0.6
				c0-0.4,0-2.2,0-2.7c0-1.7,0-1.9-0.1-2.3c0-0.1-0.1-0.5-0.1-0.5c0-0.1,0.1-0.3,0.2-0.3c0.3,0,0.8,0.3,1,0.3
				c0.3,0.1,0.4,0.1,0.6,0.1h0.7c0.6,0,0.6-0.1,0.6-0.7v-2.7c0-0.4-0.2-0.5-0.5-0.5h-0.5c-1.6,0-2.1,0-2.3,0.1c-0.1,0-0.3,0-0.4,0
				c-0.1,0-0.1,0-0.2-0.1l-0.3-0.4c-0.1-0.1-0.1-0.1-0.1-0.1s0,0,0.1,0c0.1,0,0.7,0.1,0.8,0.1c0.9,0,1.6,0.1,2.5,0.1h0.4
				c0.5,0,0.5-0.3,0.5-0.5v-2.3c0-0.3,0-0.5-0.4-0.5c-0.4,0-2.4,0.3-2.8,0.3c-0.1,0-0.2,0-0.2-0.1c0-0.1,3.1-0.8,3.5-0.9
				c0.4-0.1,2.1-0.7,2.3-0.8c0.4-0.2,0.4-0.2,0.5-0.2c0.1,0,0.9,0.4,0.9,0.5c0.6,0.3,0.7,0.4,0.7,0.6c0,0.2-0.2,0.3-0.4,0.3
				c-0.1,0-0.5,0-0.6,0c-0.1,0-2.1,0.4-2.2,0.5c-0.2,0-0.3,0.1-0.3,0.5c0,0.8,0,2.5,0,2.5c0.1,0.3,0.4,0.3,0.5,0.3H181.9z
				 M178.2,21.4c-0.6,0-0.6,0.2-0.6,0.7c0,0.5,0,3,0.1,3.3c0.1,0.3,0.4,0.3,0.6,0.3h3.5c0.2,0,0.6,0,0.6-0.5v-3.3
				c0-0.5-0.3-0.5-0.6-0.5H178.2z"/>
			<path class="st3" d="M197.5,14.3c0,0.1,0,0.1,0,0.2c0.1,0.6,0.2,1.2,0.2,1.9c0,1.2-0.3,2.9-1.9,5.3c-1.4,2.2-2.4,2.6-3.1,2.6
				c-1.2,0-2.3-1.9-2.3-4.1c0-1,0.2-2.8,2-4.6c2.3-2.3,4.7-2.3,5.7-2.3c1.6,0,2.4,0.3,2.9,0.6c1.9,1,3.1,2.9,3.1,5.2
				c0,2.3-1.4,5.2-4.5,6.3c-1.5,0.5-2.7,0.7-3,0.7c-0.1,0-0.2,0-0.2-0.1c0-0.1,0-0.1,0.5-0.3c1.9-0.7,5.8-2.3,5.8-6.8
				c0-0.7-0.1-5-5-5C197.5,14,197.5,14.2,197.5,14.3z M191.6,19.8c0,1.2,0.5,2.8,1.6,2.8c0.5,0,1-0.2,2.2-2.1c1-1.5,1.8-3.5,1.8-5.2
				c0-1.1-0.1-1.2-0.3-1.2C195.2,14.1,191.6,16.4,191.6,19.8z"/>
			<path class="st3" d="M217.6,14c-0.2,0-1,0.6-1.3,0.9c-0.2,0.2-0.9,0.8-1.4,0.8c-0.7,0-1.2-1.3-1.2-1.3c0-0.1,0-0.2,0.1-0.2
				s0.5,0.1,0.6,0.1c0.6,0,0.8,0,1.9-0.7c0.9-0.6,1.4-0.6,1.7-0.6c1.2,0,1.5,0.8,1.5,1.1c0,0.4-0.2,0.6-1.1,1.5
				c-1.3,1.2-2.6,3.6-2.6,3.7c0,0.1,0.1,0.1,0.2,0.1c0.2,0,1.2,0,1.5,0c1.2,0.1,2.5,0.4,3.4,0.7c0.2,0.1,0.2,0.1,0.3,0.1
				c0.2,0,0.3-1.5,0.3-1.7c0-0.1-0.1-0.9-0.1-1c0-0.1,0.1-0.1,0.2-0.1c0.1,0,1.6,0.3,1.6,1c0,0.1-0.3,0.6-0.4,0.7
				c0,0-0.3,1.5-0.3,1.5c0,0.2,0.1,0.3,0.4,0.5c0.7,0.4,2.3,1.2,2.3,2.2c0,0.5-0.5,0.7-0.7,0.7c-0.4,0-0.6-0.1-1.8-1.2
				c0,0-0.6-0.5-0.7-0.5c-0.1,0-0.2,0.1-0.3,0.2c-0.5,0.9-1.4,2.2-3.5,3.3c-1,0.5-1.8,0.7-1.9,0.7c0,0-0.1,0-0.1-0.1
				c0,0,0.3-0.2,0.3-0.3c1.8-1.2,2.7-1.9,3.7-3.6c0.3-0.4,0.5-0.8,0.5-1c0-0.2,0-0.3-1-0.7c-1.2-0.6-2.4-0.8-3.3-0.8
				c-1.1,0-1.2,0.1-1.5,0.7c-1.5,3.3-1.9,4-3,4c-0.9,0-1.2-1-1.2-1.4c0-1.5,1.6-2.9,3.5-3.6c0.2-0.1,0.3-0.1,0.5-0.4
				c0.4-0.7,2.7-4.1,2.8-4.2c0.1-0.2,0.3-0.7,0.2-0.8C217.8,14.1,217.7,14,217.6,14z M211.6,22.7c0,0.3,0.1,0.5,0.5,0.5
				c1,0,2.2-2.6,2.2-2.7c0-0.1,0-0.1-0.1-0.1C213.5,20.4,211.6,21.6,211.6,22.7z"/>
			<path class="st3" d="M234.2,22.1c0.3,0,0.5-0.3,0.9-1.4c0.1-0.3,0.2-0.5,0.3-0.5c0.1,0,0.1,0.2,0.1,0.2c0,0.2-0.4,2.3-0.4,2.7
				c0,0.3,0.3,0.8,0.3,0.9c0.1,0.3,0.2,0.6,0.2,0.8c0,0.4-0.3,0.6-0.6,0.6c-1.1,0-1.9-3.1-1.9-4.8c0-1.2,0.1-1.7,0.8-3.9
				c0.3-1.1,0.3-1.5,0.3-1.9c0-0.6-0.1-1.1-0.2-1.3c0-0.1-0.1-0.3-0.1-0.3c0-0.1,0.1-0.1,0.1-0.1c0.8,0,1.6,1.6,1.6,2.3
				c0,0.2,0,0.2-0.3,0.8c-0.2,0.4-1.4,3-1.4,4.6C233.7,21.6,233.9,22.1,234.2,22.1z M244.7,23.9c0,0.7-0.5,0.9-3.1,0.9
				c-1.8,0-2.4-0.5-2.8-0.8c-0.1-0.1-0.6-0.6-0.6-0.9c0,0,0-0.2,0.1-0.2c0.1,0,0.4,0.2,0.4,0.3c0.5,0.3,1.3,0.3,1.9,0.3
				c0.5,0,1.1,0,1.6-0.1c0.3,0,1.5-0.1,1.6-0.1C244.5,23.3,244.7,23.7,244.7,23.9z M243.8,15.2c0,0.9-2,0.9-2.2,0.9
				c-2,0-3.2-1.1-3.2-1.3c0,0,0-0.1,0.1-0.1c0.1,0,0.3,0.1,0.5,0.1c0.4,0.1,0.9,0.1,1.2,0.1c0.9,0,1.7-0.2,2-0.3
				c0.5-0.2,0.6-0.2,0.8-0.2C243.4,14.5,243.8,14.8,243.8,15.2z"/>
			<path class="st3" d="M253.3,15.7c0.8,0,1-0.1,3.5-0.8c1.6-0.5,5.7-1.6,6.9-1.6c0.6,0,1.4,0.3,1.4,0.9c0,0.5-0.5,0.7-0.7,0.7
				c-0.2,0-1.3-0.2-1.5-0.2c-2.3,0-4.8,2.1-4.8,6.8c0,3,1.1,3.2,2.2,3.2c0.3,0,1.6-0.1,1.7-0.1c0.6,0,0.9,0.2,0.9,0.7c0,1-2,1-2.1,1
				c-3.7,0-3.7-3-3.7-3.9c0-0.8,0-4.6,2.6-6.9c0.1-0.1,0.4-0.3,0.4-0.4c0,0-0.1,0-0.1,0c-1,0-4.8,1.6-5.3,1.9
				c-0.3,0.1-0.4,0.2-0.6,0.2c-0.9,0-1.7-1.2-1.5-1.5C252.7,15.5,253.2,15.7,253.3,15.7z"/>
			<path class="st3" d="M272.2,16.2c-0.1-0.1-0.1-0.1-0.1-0.1c0,0,0,0,0.1,0c0.1,0,0.6,0,0.7,0.1c0.2,0,1.5,0.1,2.4,0.1
				c0.2,0,0.4-0.1,0.6-0.3c0.2-0.3,0.2-0.3,0.4-0.3c0.1,0,1.4,0.7,1.4,0.9c0,0.2-0.1,0.3-0.2,0.3c-0.4,0.3-0.5,0.3-0.5,0.7
				c-0.8,3.8-2.1,5.4-3.6,6.9c-0.9,0.8-2.1,1.6-2.1,1.6c-0.1,0-0.1,0-0.1-0.1c0.1-0.1,0.2-0.3,0.3-0.3c0.3-0.3,0.8-0.8,1.1-1.2
				c2.9-3.4,3.2-7.2,3.2-7.3c0-0.5-0.4-0.5-0.6-0.5c-0.5,0-1.2,0-1.7,0c-0.1,0-0.5,0.1-0.5,0.1s-0.1,0-0.1-0.1L272.2,16.2z
				 M280.6,22.8c-0.5,0-0.5,0.2-0.5,0.5c0,0.1,0.1,1.7,0.1,2c0,0.7-0.1,1.1-0.4,1.5c-0.4,0.7-1.2,0.8-1.4,0.8
				c-0.2,0-0.3-0.1-0.3-0.2c-0.3-0.6-0.4-0.8-1-1.2c-0.1-0.1-0.5-0.3-0.5-0.4c0-0.1,0.1-0.1,0.2-0.1c0.2,0,1.3,0.1,1.6,0.1
				c0.5,0,0.6-0.2,0.6-0.6v-1.8c0-0.2,0-0.6-0.5-0.6c-0.8,0-0.9,0-1.5,0c-0.1,0-0.6,0.1-0.7,0.1c-0.1,0-0.1,0-0.2-0.1l-0.3-0.4
				c-0.1-0.1-0.1-0.1-0.1-0.1c0,0,0,0,0.1,0c0.3,0,1.9,0.1,2.3,0.1c0.6,0,0.7,0,0.8-0.1c0.2-0.1,0.2-0.2,0.2-1c0-0.2,0-0.6-0.5-0.6
				c-0.2,0-1.1,0.1-1.3,0.1c-0.1,0-0.1,0-0.2-0.1l-0.3-0.4c-0.1-0.1-0.1-0.1-0.1-0.1c0-0.1,0-0.1,0.1-0.1c0.3,0,1.6,0.1,1.9,0.1
				c0.5,0,0.5-0.3,0.5-1.3c0-0.4-0.2-0.5-0.5-0.5c-0.1,0-0.8,0.1-0.9,0.1c-0.1,0-0.1,0-0.2-0.1l-0.4-0.4c-0.1-0.1-0.1-0.1-0.1-0.1
				c0,0,0,0,0.1,0c0.2,0,1.2,0.1,1.4,0.1c0.5,0,0.5-0.3,0.5-0.6c0-0.5,0-0.9-0.1-1.4c0-0.1-0.2-0.9-0.2-1c0-0.1,0.1-0.1,0.2-0.1
				c0.1,0,1,0.1,1.1,0.1c0.3,0,0.4-0.1,0.5-0.3c0.9-1,1.2-1.3,1.2-1.4s-0.1-0.2-0.2-0.2H278c-0.5,0-1.4,0-2.1,0
				c-0.1,0-0.5,0.1-0.5,0.1c-0.1,0-0.1,0-0.2-0.1l-0.3-0.4c-0.1-0.1-0.1-0.1-0.1-0.1c0,0,0-0.1,0.1-0.1c0.1,0,0.7,0.1,0.8,0.1
				c0.5,0,1.5,0.1,2.5,0.1h3.6c0.2,0,0.5,0,0.7-0.3c0.1-0.1,0.4-0.4,0.4-0.4c0.1,0,0.1,0,0.3,0.2c0.2,0.2,1.3,1,1.3,1.2
				c0,0.2-0.1,0.3-0.3,0.3c-0.1,0-0.7,0.1-0.8,0.1c-0.2,0-2,1-2.3,1.2c-0.4,0.2-0.4,0.2-0.4,0.4c0,0.1-0.3,0.4-0.4,0.5
				c-0.1,0.3-0.1,1.5-0.1,1.8c0,0.4,0.3,0.4,0.5,0.4c0.4,0,0.5,0,0.6-0.3c0.2-0.4,0.3-0.5,0.4-0.5c0.2,0,1,0.7,1,1
				c0,0.3-0.3,0.3-1,0.3h-1c-0.5,0-0.5,0.2-0.5,1.3c0,0.4,0.2,0.5,0.6,0.5c0.3,0,0.4,0,0.5-0.3c0.2-0.4,0.3-0.4,0.4-0.4
				c0.2,0,1.1,0.7,1.1,0.9c0,0.3-0.1,0.3-1,0.3h-1c-0.3,0-0.6,0.1-0.6,0.5c0,1,0,1.2,0.5,1.2h0.3c0.8,0,0.8,0,1-0.2
				c0.3-0.4,0.3-0.4,0.4-0.4c0.2,0,1.2,0.7,1.2,0.9c0,0.2-0.1,0.2-1,0.2H280.6z M287.7,24.3c0.1,0.1,0.5,0.3,0.5,0.4
				c0,0.1-0.1,0.1-0.1,0.1c-0.4,0-0.7,0-1.1,0.2c-0.1,0.1-0.7,0.5-0.8,0.5c-0.2,0-1.4-1.8-1.8-2.6c-1.5-2.8-1.9-5.1-2.2-7.3
				c0-0.1-0.1-0.8-0.1-0.8c0,0,0-0.1,0.1-0.1c0.1,0,0.1,0,0.2,0.4c0.2,0.7,0.6,1.8,0.9,2.6c0,0.1,0.2,0.2,0.2,0.2
				c0.2,0,1.8-1.7,1.9-2.5c0-0.2,0.1-0.3,0.2-0.3s1.6,1.2,1.7,1.3v0.1c0,0.3-0.2,0.3-0.9,0.3c-0.1,0-2.3,1.2-2.6,1.4
				c0,0-0.1,0.1-0.1,0.3c0,0.1,0,0.1,0,0.2C284.2,20.1,285.5,22.7,287.7,24.3z"/>
			<path class="st3" d="M300.9,15.1c-1.5,0-3,2.5-3,4.4c0,0.6,0.1,0.9,0.2,1.3c0.1,0.3,0.2,0.5,0.2,0.7c0,0.6-0.5,0.6-0.6,0.6
				c-0.8,0-1.2-1.5-1.2-2.9c0-0.9,0.1-1.9,0.3-2.9c0.3-1.5,0.3-1.9,0.3-2.3c0-0.6-0.1-0.9-0.2-1.1c0-0.1-0.3-0.4-0.3-0.5
				s0.2-0.1,0.5-0.1c0.8,0,1.4,0.7,1.4,1.2c0,0.2-0.3,1.1-0.4,1.3c0,0.1-0.4,1.8-0.4,2.2c0,0.1,0,0.3,0.1,0.3c0.1,0,0.2-0.2,0.3-0.5
				c0.2-0.4,1.4-2.7,3.3-2.7c1.1,0,2.3,0.6,2.3,4.4c0,2.5-0.5,5.4-3.9,7.5c-0.7,0.4-1.2,0.6-1.3,0.6c0,0-0.1,0-0.1-0.1
				c0-0.1,0-0.1,0.5-0.4c3-2.2,3.5-4.3,3.5-8C302.3,16.3,302,15.1,300.9,15.1z"/>
			<path class="st3" d="M320.6,12c0-0.1-0.1-0.2-0.1-0.3c0-0.1,0.3-0.1,0.5-0.1c0.5,0,1.5,0.5,1.5,0.8c0,0.2-0.4,0.8-0.5,1
				c-0.1,0.3-0.3,0.9-0.3,1.2c0,0,0,0.1,0.1,0.1c0.1,0,0.1,0,0.5-0.2c0.2-0.1,0.4-0.1,0.6-0.1c0.2,0,0.5,0.1,0.5,0.3
				c0,0.7-1.2,1-1.7,1.2c-0.1,0-0.2,0.1-0.2,0.3c0,0.1-0.1,1-0.1,1.7c0,0.4,0,0.5,0.2,0.5c0.2,0,1.5-0.4,1.5-0.9
				c0-0.1-0.1-0.3-0.1-0.3c0-0.1,0.1-0.1,0.1-0.1c0.1,0,0.5,0.1,0.6,0.1c0.7,0.1,1.2,0.1,1.2,0.5c0,0.6-2,1.5-2.8,1.7
				c-0.6,0.2-0.6,0.2-0.6,0.4c0,0.3,0.2,2.4,0.2,2.6c0.1,0.6,0.1,0.7,0.5,0.8c1.4,0.6,2.6,1.5,2.6,2.4c0,0.5-0.3,0.8-0.6,0.8
				c-0.3,0-0.3-0.1-1-0.9c-0.4-0.5-1.1-1-1.3-1c-0.1,0-0.1,0.1-0.2,0.3c-0.4,0.8-1.6,1.8-3.1,1.8c-1.7,0-2.3-1.2-2.3-1.9
				c0-1.1,1.1-1.9,3.2-1.9c0.2,0,0.8,0.1,1,0.1c0.2,0,0.2-0.1,0.2-0.7c0-0.4,0-1.6,0-2.1c0-0.2,0-0.3-0.2-0.3
				c-0.3,0-1.3,0.1-1.6,0.1c-0.4,0-1.7,0-2.5-0.7c-0.3-0.3-0.5-0.7-0.5-0.8c0,0,0-0.1,0.1-0.1c0.1,0,0.6,0.2,0.7,0.3
				c0.8,0.3,1.6,0.3,2.2,0.3c0.4,0,1.6,0,1.8-0.3c0-0.1,0.2-2.4,0.2-2.4c0-0.1-0.1-0.1-0.4-0.1c-1.3-0.1-2.4-1-2.4-1.7
				c0,0,0-0.1,0.1-0.1c0,0,0.5,0.3,0.5,0.3c0.8,0.5,1.5,0.5,1.7,0.5c0.4,0,0.6-0.1,0.6-0.3c0.1-0.2,0.1-1.2,0.1-1.6
				C320.9,12.8,320.7,12.2,320.6,12z M318.7,23.7c0,0-1.9,0-1.9,1c0,0.7,0.9,0.9,1.4,0.9c0.6,0,1.4-0.3,1.8-0.7
				c0.3-0.3,0.5-0.7,0.4-0.9C320.3,23.7,319.1,23.7,318.7,23.7z"/>
			<path class="st3" d="M335.3,16.2c1.2,0,3.6-0.4,4.9-0.6c0.9-0.2,1-0.2,1-0.6c0-0.9-0.1-2-0.3-2.4c0-0.1-0.3-0.4-0.3-0.5
				c0-0.1,0.3-0.1,0.4-0.1c0.8,0,1.5,0.3,1.5,0.9c0,0.1-0.1,0.5-0.1,0.6c0,0.4,0.5,0.7,1.6,1.1c0.5,0.2,0.9,0.4,1.6,0.4
				c0.2,0,0.9-0.1,1.1-0.1c0.2,0,1,0.1,1,0.7c0,0.5-0.3,0.6-1,0.6c-0.4,0-2.1-0.2-2.4-0.2c-0.4,0-1.6,0-1.9,0.2
				c-0.3,0.1-0.3,0.4-0.3,1.9c0,0.5,0,0.6,0.2,1.2c0.3,0.8,0.5,1.4,0.5,2.4c0,3.5-2.7,5.7-3.3,5.7c0,0-0.1,0-0.1-0.1
				c0,0,0.7-0.9,0.9-1.1c0.5-0.7,1-1.9,1-2.6c0-0.1,0-0.3-0.2-0.3c-0.1,0-0.3,0-0.4,0c-1,0-1.8-0.9-1.8-2.4c0-0.2,0-2.2,1.7-2.5
				c0.5-0.1,0.5-0.2,0.5-1.1c0-1,0-1.1-0.4-1.1c-0.2,0-2,0.3-3.2,0.7c-0.3,0.1-1.6,0.7-1.9,0.7c-0.4,0-1.9-0.8-1.9-1.5
				c0-0.1,0-0.2,0.1-0.2C334.2,16,335.1,16.2,335.3,16.2z M340.7,19.1c-0.5,0-1,0.7-1,1.7c0,1,0.7,1.4,1.2,1.4
				c0.7,0,0.7-1.1,0.7-1.4c0-0.6-0.2-1.1-0.2-1.3C341.2,19.5,341,19.1,340.7,19.1z M342.3,14.8c0,0.3,0.1,0.3,0.3,0.3
				c0.1,0,1.2,0,1.2-0.3c0-0.1-1.2-1-1.4-1C342.4,14,342.3,14.4,342.3,14.8z"/>
			<path class="st3" d="M357.8,25.3c0,1-0.8,2-2,2c-1.2,0-2-1-2-2c0-1.4,1.2-2,2-2C356.9,23.3,357.8,24.3,357.8,25.3z M354.3,25.3
				c0,0.8,0.7,1.5,1.5,1.5c0.8,0,1.5-0.6,1.5-1.5c0-0.7-0.5-1.5-1.5-1.5C354.8,23.8,354.3,24.6,354.3,25.3z"/>
		</g>
	</g>
</g>
</svg>
