<?xml version="1.0" encoding="utf-8"?>
<!-- Generator: Adobe Illustrator 25.2.3, SVG Export Plug-In . SVG Version: 6.00 Build 0)  -->
<svg version="1.1" id="レイヤー_1" xmlns="http://www.w3.org/2000/svg" xmlns:xlink="http://www.w3.org/1999/xlink" x="0px"
	 y="0px" viewBox="0 0 191.6 329.3" style="enable-background:new 0 0 191.6 329.3;" xml:space="preserve">
<style type="text/css">
	.st0{fill:#200701;}
	.st1{fill:#210100;}
	.st2{fill:none;stroke:#76544B;stroke-miterlimit:10;}
	.st3{fill:#FFFFFF;}
</style>
<g>
	<g>
		<path class="st0" d="M167.8,154c0.8,0.1,1.1,0.2,1.9,0.2h11.1c0.5-0.7,0.7-0.9,1.2-1.5c0.9,0.7,1.1,1,2,1.7
			c0.1,0.1,0.1,0.1,0.1,0.2c0,0.1-0.1,0.1-0.1,0.1h-14.3c-0.8,0-1.2,0-1.8,0.1L167.8,154z M169.6,143.9c0.6,0.1,1.3,0.2,1.8,0.2h7.7
			c0.5-0.7,0.7-0.9,1.2-1.5c0.8,0.7,1,0.9,1.8,1.6c0,0.1,0.1,0.1,0.1,0.1c0,0.1-0.1,0.1-0.3,0.1h-10.5c-0.6,0-1.1,0-1.7,0.1
			L169.6,143.9z"/>
		<path class="st0" d="M169.6,167.5v6.9c0,2.4,0,2.4,0,3.6c0,0.1-0.1,0.2-0.2,0.2c-0.1,0-0.6,0.1-0.9,0.1c-0.2,0-0.2,0-0.2-0.2
			c0.1-1.5,0.1-4.4,0.1-8.9c0-4.7,0-6.3-0.1-7.3c0.5,0.3,0.7,0.4,1.3,0.8h3.7c0.3-0.4,0.4-0.5,0.7-0.8c0.4,0.4,0.6,0.5,1,0.8
			c0.1,0.1,0.2,0.2,0.2,0.2c0,0.1-0.1,0.2-0.5,0.5c0,0.9,0,1.4,0,2c0,0.9,0,1.5,0.1,2.6c0,0.1,0,0.2-0.1,0.2c-0.1,0-0.5,0.1-0.9,0.1
			c-0.1,0-0.2-0.1-0.2-0.2v-0.5H169.6z M173.4,163h-3.8v1.8h3.8V163z M173.4,165.2h-3.8v1.8h3.8V165.2z M173.4,176.4
			c0,0.1,0,0.1-0.2,0.2c-0.1,0-0.6,0.1-0.7,0.1c-0.2,0-0.2-0.1-0.2-0.2c0-1.5,0-2.3,0-3.1c0-2.1,0-3.8-0.1-4.5
			c0.6,0.3,0.8,0.4,1.4,0.8h4.2c0.3-0.3,0.5-0.4,0.8-0.7c0.4,0.3,0.5,0.4,0.9,0.8c0.2,0.1,0.2,0.2,0.2,0.3c0,0.1-0.1,0.2-0.6,0.4
			c0,0.9,0,1.3,0,2c0,1.2,0,1.9,0.1,3.3v0c0,0.2,0,0.2-0.2,0.3c-0.1,0-0.5,0.1-0.8,0.1c-0.2,0-0.2,0-0.3-0.2v-0.6h-4.5V176.4z
			 M178,170.1h-4.5v2h4.5V170.1z M173.4,172.5v2.3h4.5v-2.3H173.4z M178,167.5v0.5c0,0.2-0.2,0.3-0.7,0.3c-0.5,0-0.5,0-0.5-0.2
			c0-1.1,0.1-1.7,0.1-2.7c0-2.6,0-2.7-0.1-3.4c0.6,0.3,0.8,0.4,1.3,0.8h3.8c0.3-0.4,0.4-0.5,0.7-0.8c0.5,0.4,0.6,0.5,1.1,0.8
			c0.1,0.1,0.2,0.2,0.2,0.3c0,0.1-0.1,0.2-0.6,0.5v8.7c0,3,0,3,0,4.7c-0.1,0.8-0.4,1.1-1.9,1.4c-0.2-0.4-0.3-0.6-0.6-0.8
			c-0.2-0.1-0.5-0.2-1-0.3c-0.6-0.1-1-0.2-1-0.2v-0.3c1.5,0.1,1.8,0.1,2.9,0.1c0.3,0,0.3-0.1,0.3-0.3v-9H178z M182,163H178v1.8h4.1
			V163z M182,165.2H178v1.8h4.1V165.2z"/>
		<path class="st0" d="M170.4,191.1c-0.9,0.2-1.2,0.3-2,0.4c-0.1,0.1-0.1,0.3-0.1,0.3c-0.1,0.2-0.1,0.3-0.2,0.3
			c-0.1,0-0.1-0.1-0.2-0.3c-0.1-0.2-0.1-0.2-0.3-1.4c0.6,0,0.8,0,1.2,0c0.1,0,0.2,0,0.6,0c1.1-1.7,2.3-4,2.8-5.5
			c0.3,0.2,0.6,0.3,0.8,0.4c0.9,0.4,0.9,0.4,0.9,0.5c0,0.1-0.1,0.2-0.8,0.2c-1,1.6-2.2,3.3-3.1,4.3c1.2,0,1.8-0.1,2.8-0.1
			c-0.2-0.7-0.3-1-0.6-1.6l0.2-0.1c0.6,0.5,0.8,0.7,1,1c0.2,0.3,0.4,0.7,0.4,0.9c0,0.3-0.4,0.9-0.6,0.9c-0.1,0-0.1-0.1-0.2-0.2
			c0-0.1,0-0.1-0.1-0.3c0-0.1,0-0.2-0.1-0.3c-0.2,0-0.2,0-0.4,0.1c-0.2,0.1-0.3,0.1-0.7,0.2v3.9c0,1.2,0,1.7,0,4.1
			c0,0.2-0.1,0.2-0.2,0.3c-0.1,0-0.6,0.1-0.8,0.1c-0.2,0-0.2-0.1-0.2-0.2c0-0.8,0-0.8,0-2.2c0-0.6,0-0.6,0.1-2V191.1z M167.7,185.3
			c0.6,0.3,0.8,0.5,1.3,0.8c0.7-1.5,1.2-2.6,1.4-3.5c0.7,0.2,1.5,0.5,1.7,0.6c0.1,0.1,0.2,0.1,0.2,0.2c0,0.1-0.2,0.2-0.8,0.3
			c-0.8,1.2-1.1,1.5-2.2,2.7c0.1,0.1,0.1,0.1,0.2,0.1c0.5,0.4,0.7,0.7,0.7,1.1c0,0.5-0.3,1-0.5,1c-0.1,0-0.2-0.1-0.5-0.8
			c-0.4-0.8-0.8-1.4-1.6-2.4L167.7,185.3z M167.6,198.3c0.3-1,0.4-1.5,0.5-2.6c0.2-1.3,0.3-2.4,0.3-2.7c0-0.1,0-0.2,0-0.4
			c0.3,0.1,0.6,0.1,0.7,0.2c0.3,0.1,0.6,0.1,0.6,0.1c0.2,0,0.3,0.1,0.3,0.2c0,0.1-0.2,0.3-0.6,0.4c-0.6,2.6-0.9,3.5-1.7,5
			L167.6,198.3z M172.2,192.4c0.5,0.6,0.9,1.2,1.3,1.9c0.2,0.4,0.3,0.6,0.3,0.9c0,0.5-0.6,1.3-0.9,1.3c-0.2,0-0.2-0.1-0.2-0.6
			c-0.1-1.1-0.4-2.2-0.8-3.4L172.2,192.4z M172.4,198.9c1.5-0.8,2.2-1.4,2.8-2.5c0.5-0.9,0.7-1.5,0.8-3c0.1-0.6,0.1-1.3,0.1-1.6
			c0-0.1,0-0.4,0-0.7c1.5,0.2,1.8,0.2,1.8,0.4c0,0.1-0.2,0.2-0.6,0.4c-0.1,1.7-0.2,2.2-0.4,3c-0.5,1.9-2,3.4-4.4,4.2L172.4,198.9z
			 M175,189.9c0,0.6-0.1,1.1-0.2,1.5c-0.2,0.7-0.6,1.2-0.9,1.2c-0.3,0-0.6-0.5-0.6-0.9c0-0.2,0-0.2,0.2-0.3c0.3-0.2,0.6-0.6,0.8-1
			c0.2-0.3,0.2-0.6,0.4-1.7h0.3c0.1,0.4,0.1,0.6,0.1,0.9h6.8c0.4-0.4,0.5-0.5,0.8-0.8c0.6,0.4,0.7,0.6,1.3,1
			c0.1,0.1,0.2,0.2,0.2,0.3c0,0,0,0.1-0.1,0.1c-0.1,0.1-0.2,0.1-0.4,0.1c-0.1,0-0.3,0-0.6,0.1c-0.4,0.4-0.4,0.4-0.9,0.9
			c-0.4,0.4-0.4,0.4-0.7,0.7l-0.2-0.1c0.4-1,0.5-1.2,0.6-1.9H175z M181.1,184.9c0.5-0.5,0.6-0.6,1.1-1.1c0.6,0.6,0.8,0.7,1.5,1.3
			c0,0.1,0.1,0.1,0.1,0.1c0,0.1-0.1,0.1-0.2,0.1h-5v2.1h1.8c0.4-0.5,0.5-0.6,1-1.1c0.6,0.5,0.8,0.7,1.4,1.2c0.1,0.1,0.1,0.1,0.1,0.2
			c0,0.1-0.1,0.1-0.1,0.1h-7.2c-0.8,0-0.9,0-1.7,0.1l-0.1-0.7c0.6,0.1,1,0.2,1.6,0.2h2v-2.1h-2.3c-0.5,0-0.9,0-1.5,0.1l-0.1-0.7
			c0.5,0.1,0.9,0.2,1.6,0.2h2.3v-0.7c0-0.4,0-0.7-0.1-1.5c1.8,0.3,2,0.3,2,0.5c0,0.1-0.2,0.3-0.7,0.4v1.3H181.1z M178.8,192.9
			c0-1.2,0-1.2-0.1-1.8c1.5,0.1,1.8,0.2,1.8,0.4c0,0.1-0.1,0.2-0.6,0.4v5.3c0,0.3,0,0.3,0.3,0.3c0.1,0,0.2,0,0.3,0
			c0.2,0,0.4,0,0.5,0c0.9,0,1.1-0.1,1.2-0.3c0.1-0.2,0.2-0.5,0.3-0.9c0.1-0.3,0.2-0.6,0.2-0.9c0.1-0.4,0.2-0.9,0.4-1.6l0.2,0l-0.1,3
			c0,0.1,0,0.1,0,0.1c0,0.2,0,0.2,0.3,0.3c0.3,0.1,0.4,0.2,0.4,0.4c0,0.3-0.2,0.5-0.6,0.6c-0.2,0-0.2,0-2,0.1c-0.1,0-1.6,0-1.7,0
			c-0.7,0-0.9-0.3-0.9-1c0-0.4,0-0.6,0-0.8c0-0.2,0-0.2,0-1.7V192.9z"/>
		<path class="st0" d="M170.1,207.1c0.8,0.6,1.4,0.8,2.4,0.8c0.8,0,2.2-0.2,3-0.5c-0.4-0.8-1.1-1.7-1.5-2c-0.2-0.2-0.7-0.3-1.4-0.4
			c0.1-0.3,0.2-0.4,0.7-0.5c0.3-0.1,0.5-0.1,0.8-0.1c0.6,0,1.1,0.1,1.2,0.2s0.2,0.2,0.2,0.7c0,0.4,0,0.4,0.7,1.8
			c1.7-0.6,2.1-0.8,2.6-1.3c0.1-0.1,0.3-0.2,0.6-0.2c0.7,0,1.1,0.2,1.1,0.5c0,0.3-0.2,0.4-1.2,0.8c-0.3,0.1-1.2,0.4-2.6,0.9
			c0.2,0.3,0.2,0.3,0.4,0.7c0.1,0.2,0.4,0.7,0.9,1.5c1.4-0.6,1.8-0.7,2.2-1c-0.4-0.4-0.5-0.5-0.9-0.8l0.1-0.2
			c0.7,0.3,1.2,0.5,1.5,0.5c0,0,0,0,0.3,0c0.1,0,0.1,0,0.1,0c0.3,0,0.5,0.2,0.5,0.5c0,0.4-1,1-3.5,1.9c0.6,1,0.6,1.1,0.8,1.4
			c0.4,0.7,0.4,0.7,0.8,1.4c0.2,0.3,0.3,0.6,0.3,1c0,0.7-0.2,1.2-0.6,1.2c-0.2,0-0.2,0-0.5-0.3c-0.9-0.7-2.6-1.2-4.2-1.2
			c-0.8,0-1.6,0.2-2.3,0.5c-0.7,0.4-1.1,0.8-1.1,1.5c0,1.1,1.2,1.7,3.4,1.7c0.9,0,1.4-0.1,2.3-0.3c0.1,0,0.2,0,0.2,0
			c0.5,0,1.2,0.5,1.2,1c0,0.1-0.1,0.3-0.3,0.3c-0.3,0.1-1.4,0.3-2.5,0.3c-1.4,0-2.6-0.2-3.5-0.5c-1.1-0.5-1.7-1.3-1.7-2.3
			c0-1.6,1.9-2.7,4.8-2.7c1.1,0,2.1,0.1,3.4,0.4c-0.2-0.7-0.7-1.8-1.4-3.1c-1.2,0.4-2.7,0.7-3.8,0.7c-0.8,0-1.4-0.2-1.9-0.5
			c-0.4-0.3-0.6-0.5-0.9-1.1l0.2-0.2c0.6,0.8,1.2,1.1,2.1,1.1c1,0,2.4-0.2,3.9-0.7c-0.4-0.7-0.8-1.5-1.3-2.2
			c-1.2,0.4-2.4,0.6-3.3,0.6c-1,0-1.8-0.4-2.6-1.3L170.1,207.1z"/>
		<path class="st0" d="M134.3,146.4c0.5,1.9,1.2,3.3,2.1,4.6c1,1.4,2.3,2.6,3.8,3.5c0.8,0.5,1.2,0.7,2.4,1l0,0.3
			c-1,0.1-1.3,0.3-1.6,1.2c-1.5-0.9-2.1-1.5-3.1-2.5c-1.2-1.4-2.3-3.1-2.9-4.7c-0.3-0.9-0.6-1.7-0.9-3c-0.3,2.6-1.1,4.6-2.6,6.4
			c-0.9,1.1-2.2,2.2-3.6,3c-0.7,0.4-1.2,0.6-2.3,1.1l-0.1-0.3c1.6-0.9,2.4-1.5,3.3-2.3c2.4-2.2,3.8-5,4.1-8.2h-5.2
			c-0.7,0-1.1,0-1.7,0.1l-0.1-0.7c0.7,0.1,1.1,0.1,1.9,0.1h5.2c0.1-1.1,0.1-2.4,0.1-3.5c0-0.5,0-0.7-0.1-1.2
			c2.1,0.2,2.2,0.2,2.2,0.4c0,0.2-0.2,0.3-0.8,0.5c-0.1,2.1-0.1,2.8-0.2,3.9h5.1c0.4-0.6,0.6-0.8,1-1.4c0.8,0.6,1,0.8,1.8,1.5
			c0.1,0.1,0.1,0.1,0.1,0.2c0,0.1-0.1,0.2-0.2,0.2H134.3z"/>
		<path class="st0" d="M125.7,177.6c1.7-1.2,2.5-2,3.4-3.2c1.6-2.1,2.7-4.6,3.3-7.3c0.3-1.4,0.4-2.7,0.4-3.9c0-0.4,0-0.6-0.1-1
			c2,0.3,2.2,0.3,2.2,0.5c0,0.1-0.1,0.2-0.8,0.5c0,0.3,0,0.4,0,0.6c0,2.6,1,5.7,2.5,7.9c1,1.4,2.2,2.6,3.7,3.5
			c0.7,0.4,1.1,0.6,2.1,1l0,0.2c-0.1,0-0.1,0-0.1,0c-0.4,0-0.7,0.1-0.9,0.4c-0.2,0.2-0.3,0.4-0.5,0.9c-1.8-1.2-3.2-2.5-4.3-4.4
			c-0.8-1.3-1.6-3.2-2.1-5c-0.2-0.8-0.3-1.3-0.4-2.6c-0.5,3.3-1.4,5.6-2.9,7.8c-1.4,2-2.9,3.2-5.3,4.4L125.7,177.6z"/>
		<path class="st0" d="M133.3,192.8c-0.4,1.4-0.7,2-1.4,2.9c0.6,0.2,0.8,0.3,0.9,0.5c0.2,0.2,0.3,0.5,0.3,0.8c0,0.3-0.1,0.6-0.2,0.6
			c-0.1,0-0.2-0.1-0.4-0.2c-0.4-0.4-0.6-0.6-1.2-1c-0.6,0.6-1.2,1-1.9,1.5c-1,0.5-1.9,0.8-3.5,1.1l-0.1-0.2c2.3-0.8,3.5-1.5,4.7-2.8
			c-0.7-0.4-1.1-0.6-2.1-1c-0.1,0.1-0.2,0.3-0.3,0.6c-0.1,0.3-0.2,0.3-0.7,0.3c-0.4,0-0.5-0.1-0.5-0.1c0,0,0,0,0-0.1
			c0.4-0.7,0.5-0.8,0.8-1.3c0.5-0.8,0.6-1.1,0.8-1.5h-0.9c-0.8,0-1.1,0-1.8,0.1l-0.1-0.7c0.6,0.1,1.2,0.2,1.9,0.2h1.1
			c0.4-0.8,0.5-1.1,0.7-1.6c1.3,0.3,1.5,0.4,1.5,0.5c0,0.2-0.1,0.2-0.6,0.3c-0.2,0.4-0.3,0.5-0.5,0.8h2.7c0.3-0.4,0.4-0.6,0.8-1
			c0.6,0.5,0.8,0.6,1.4,1.2c0,0,0.1,0.1,0.1,0.1c0,0.1-0.1,0.1-0.1,0.1H133.3z M131.1,187.7c0.1,0,0.1,0,0.9,0.3
			c0.8,0.2,1.5,0.5,1.6,0.7c0.2,0.2,0.3,0.6,0.3,0.9c0,0.3-0.1,0.5-0.3,0.5c-0.2,0-0.2,0-0.6-0.6c-0.6-0.7-1.2-1.2-1.8-1.5
			c0,0.6,0,0.7,0,2.3c0,0.2-0.1,0.2-0.6,0.3c0,0-0.1,0-0.2,0c0,0,0,0,0,0c-0.2,0-0.3-0.1-0.3-0.2c0,0,0-0.1,0-0.1
			c0-0.9,0.1-1.4,0.1-1.9v-0.7c-0.7,0.8-1.1,1.3-1.9,1.9c-1,0.8-1.4,1.1-2.3,1.6l-0.1-0.2c1.1-0.9,1.8-1.5,2.7-2.7
			c0.5-0.6,0.6-0.8,1-1.4h-2c-0.4,0-0.8,0-1.6,0.1l-0.1-0.6c0.8,0.1,1.1,0.1,1.7,0.1h2.6v-1.8c0-0.5,0-1.3-0.1-1.8
			c1.6,0.2,1.8,0.2,1.8,0.4c0,0,0,0.1-0.1,0.1c-0.1,0-0.2,0.1-0.3,0.1c-0.1,0-0.2,0.1-0.3,0.1c0,0.4,0,0.6,0,0.8c0,0.1,0,0.1,0,2
			h1.9c0.3-0.4,0.4-0.5,0.7-1c0.6,0.5,0.8,0.6,1.3,1.1c0.1,0.1,0.1,0.1,0.1,0.2c0,0.1-0.1,0.1-0.2,0.1h-3.9V187.7z M127,183.3
			c1.5,1,2,1.5,2,2c0,0.3-0.4,0.9-0.6,0.9c-0.1,0-0.3-0.2-0.4-0.6c-0.2-0.7-0.6-1.5-1.2-2.2L127,183.3z M129.6,192.8
			c-0.2,0.3-0.5,0.9-1,1.8c1.2,0.4,1.7,0.5,2.3,0.7c0.6-0.8,0.8-1.3,1.2-2.5H129.6z M131.7,198.8c2.1-1,3.1-1.7,4.1-2.9
			c0.4-0.5,0.8-0.9,1.1-1.5c-0.9-1.6-1.2-2.8-1.6-5.1c-0.5,0.8-0.8,1.2-1.5,2.2l-0.2-0.2c1.1-2.3,1.7-3.7,2.2-5.7
			c0.4-1.4,0.5-2.3,0.6-2.9c1.9,0.5,2,0.5,2,0.7c0,0.1-0.2,0.2-0.8,0.3c-0.3,1-0.6,1.8-1.2,3.4h3.4c0.5-0.5,0.6-0.6,1-1.1
			c0.7,0.6,0.7,0.6,1.5,1.3c0.1,0.1,0.1,0.1,0.1,0.1c0,0.1,0,0.1-0.1,0.1h-1.9c-0.2,1.4-0.3,2.1-0.6,3.1c-0.4,1.5-1,2.7-1.7,3.8
			c1.1,1.3,2.4,2.2,4.4,3.2l0,0.2c-0.9,0-1.2,0.2-1.5,0.9c-1.4-1-2.5-2.1-3.5-3.5c-0.5,0.6-1,1.1-1.6,1.5c-1.2,0.9-2.2,1.5-4.2,2.2
			L131.7,198.8z M131.8,186.1c0.6-1.2,1-2.1,1.2-2.9c0.3,0.1,0.6,0.2,0.8,0.3c0.6,0.2,0.9,0.4,0.9,0.5c0,0.1,0,0.1-0.1,0.1
			c0,0-0.1,0-0.3,0.1c-0.1,0-0.2,0-0.3,0c-0.2,0.2-0.2,0.2-0.9,1c-0.5,0.6-0.5,0.6-1,1.1L131.8,186.1z M136.2,187.6
			c-0.2,0.5-0.3,0.7-0.6,1.2c0.5,2.1,0.9,3.3,1.8,4.7c0.9-1.8,1.4-3.5,1.7-5.9H136.2z"/>
		<path class="st0" d="M127.1,207.9c0.3,0.2,0.5,0.3,0.8,0.3c0.5,0,1-0.1,5-1.1c0.6-0.2,1.7-0.4,2.9-0.6c1.3-0.3,1.9-0.4,2.4-0.6
			c0.4-0.1,0.5-0.1,0.6-0.1c0.2,0,0.6,0.2,1,0.4c0.4,0.2,0.5,0.4,0.5,0.7c0,0.3-0.2,0.5-0.6,0.5c-0.1,0-0.2,0-0.3,0
			c-0.2,0-0.3,0-0.5,0c-3.1,0-6,2.9-6,6c0,1.6,0.8,2.9,2.4,3.5c0.6,0.3,1.3,0.4,1.8,0.4c0.4,0,0.5,0.1,0.8,0.3
			c0.3,0.3,0.5,0.6,0.5,0.9c0,0.3-0.3,0.5-0.6,0.5c-1,0-2.7-0.6-3.7-1.3c-1.4-1-2.1-2.4-2.1-4c0-1.5,0.7-3.1,2-4.4
			c0.7-0.8,1.4-1.3,2.9-2.1c-2.2,0.3-6.4,1.5-8,2.4c-0.4,0.2-0.5,0.3-0.7,0.3c-0.4,0-1-0.4-1.4-1.1c-0.3-0.4-0.5-0.9-0.5-1.2
			c0-0.1,0-0.3,0.2-0.5C126.7,207.4,126.8,207.6,127.1,207.9z M137.8,209.5c0.7,0.4,1.2,0.7,1.6,1.1c0.6,0.6,0.9,1,0.9,1.4
			c0,0.4-0.3,0.8-0.6,0.8c-0.2,0-0.2,0-0.8-1.2c-0.3-0.6-0.9-1.4-1.4-1.9L137.8,209.5z M139.7,208.4c0.6,0.3,1.2,0.6,1.7,1
			c0.7,0.5,0.9,0.9,0.9,1.4c0,0.4-0.2,0.7-0.5,0.7c-0.2,0-0.3-0.1-0.4-0.3c-0.6-1.1-1-1.6-2-2.6L139.7,208.4z"/>
		<path class="st0" d="M128.7,227.5c0.4,0.6,0.7,1,1.2,1.3c0.6,0.4,1.2,0.6,2.1,0.8c0.5-2.5,0.6-2.8,0.6-3.2c0-0.6-0.3-1-1-1.5
			c0.1-0.1,0.2-0.1,0.3-0.1c0.3,0,0.8,0.2,1.3,0.6c0.6,0.4,0.9,0.9,0.9,1.3c0,0.2-0.1,0.3-0.2,0.5c-0.3,0.4-0.5,0.9-1,2.5
			c0.4,0.1,0.5,0.2,0.7,0.4c0.1,0.2,0.3,0.4,0.3,0.6c0,0.2-0.2,0.4-0.6,0.4c-0.2,0-0.4,0-0.7-0.1c-0.4,1.2-0.6,2.3-0.7,3.3
			c0.4,0.1,0.7,0.1,0.9,0.1c0.1,0,0.1,0,0.1,0c0.1,0,0.2,0,0.2,0c0.5,0,1.1,0.6,1.1,1c0,0.3-0.2,0.4-0.6,0.4c-0.5,0-1.3-0.1-1.9-0.3
			c0,0.4-0.1,0.6-0.1,0.9c0,1.8,1,2.9,2.8,2.9c1.2,0,2.3-0.5,2.8-1.2c0.4-0.5,0.6-1.2,0.6-1.8c0-1.5-1-3.2-2.7-4.5l0.2-0.2
			c2.7,1.6,3.8,3.1,3.8,5c0,2.2-1.9,3.8-4.4,3.8c-0.9,0-1.8-0.3-2.4-0.7c-0.9-0.7-1.4-1.8-1.4-3.3c0-0.2,0-0.4,0-0.9
			c-0.7-0.3-1.1-0.5-1.4-0.9c-0.5-0.5-0.8-1.2-0.8-1.8c0-0.4,0.2-0.9,0.6-1.2c0.4-0.4,0.9-0.7,1.7-1c-0.7-0.3-1.2-0.6-1.7-1.1
			c-0.4-0.4-0.6-0.8-0.9-1.6L128.7,227.5z M129.7,231.6c-0.3,0.3-0.4,0.6-0.4,0.9c0,0.8,0.6,1.3,1.9,1.7c0.1-0.9,0.3-1.9,0.5-3.3
			C130.7,230.9,130.2,231.1,129.7,231.6z"/>
		<path class="st0" d="M139.1,248c0.5-0.6,0.6-0.8,1.1-1.4c0.8,0.6,1,0.8,1.8,1.5c0,0.1,0,0.1,0,0.1c0,0.1-0.1,0.1-0.2,0.1h-13
			c0,4-0.2,5.9-0.7,8.1c-0.4,1.9-1.2,3.5-2.5,5.1l-0.2-0.2c0.7-1.3,1.1-2.4,1.5-4c0.4-1.9,0.6-4.1,0.6-8.4c0-0.9,0-1.3-0.1-2.1
			c0.7,0.4,0.9,0.6,1.5,1h4.6v-1.3c0-0.7,0-0.9-0.1-1.5c1.9,0.2,2.2,0.3,2.2,0.5c0,0.2-0.3,0.3-0.8,0.4v1.9H139.1z M136.4,253.7
			c0.8,0.7,1.2,1.1,2.3,2.4c1.9,2.1,2.3,2.8,2.3,3.5c0,0.4-0.2,1-0.4,1.3c-0.1,0.2-0.3,0.3-0.5,0.3c-0.1,0-0.2-0.1-0.3-0.2
			c0-0.1,0-0.1-0.1-0.5c-0.1-0.3-0.3-1-0.6-1.6c-2.4,0.7-5.5,1.3-9.4,1.8c-0.1,0.6-0.1,0.7-0.3,0.7c-0.2,0-0.2,0-0.8-2.2
			c0.3,0,0.6,0,0.7,0c0.4,0,0.6,0,1.2,0c0.6-1.2,1.1-2.4,1.9-4.5c0.4-1.2,0.9-2.8,1.2-4c0.1-0.5,0.2-0.7,0.2-1.2
			c1.6,0.3,2.1,0.5,2.1,0.7c0,0.2-0.2,0.3-0.9,0.3c-1,2.8-2.4,5.8-4.1,8.6c2.6-0.1,2.6-0.1,4.5-0.3c1.7-0.1,2.4-0.3,3.4-0.4
			c-0.6-1.5-1.7-3.2-2.7-4.6L136.4,253.7z"/>
		<path class="st0" d="M126.6,277.1c1.5-1.3,3-3,4.4-5c1-1.5,1.7-2.7,1.7-3.2c0-0.3-0.3-0.7-0.8-1c0.2-0.1,0.3-0.1,0.5-0.1
			c0.4,0,0.8,0.2,1.6,0.7c0.4,0.3,0.5,0.4,0.5,0.6c0,0.3,0,0.3-0.4,0.7c-0.1,0.1-0.1,0.1-0.4,0.5c-0.3,0.4-0.4,0.6-0.8,1.1
			c0.2,0,0.4,0,0.5,0c0.3,0,2.4-0.2,3.4-0.3c0.3,0,0.3-0.1,0.6-0.3c0.2-0.1,0.4-0.2,0.5-0.2c0.3,0,1.3,1,1.3,1.4
			c0,0.1-0.1,0.2-0.2,0.3c0,0-0.2,0.1-0.6,0.2c-1.4,2.1-2.4,3.2-4,4.8l0.3,0.2c1.5,1,2,1.6,2,2.4c0,0.6-0.2,1-0.5,1
			c-0.2,0-0.4-0.1-0.6-0.5c-1.2-1.8-2.8-3.3-4.8-4.6l0.1-0.2c1.5,0.6,2,0.9,3,1.5c1.5-1.9,2.4-3.4,3.3-5.2c-0.7,0.1-1.4,0.2-1.7,0.3
			c-0.6,0.1-1,0.2-1.3,0.2c-0.2,0.1-0.4,0.1-0.6,0.1c-0.2,0-0.5-0.1-1-0.5c-1.6,2.2-3.8,4.3-5.7,5.4L126.6,277.1z"/>
		<path class="st0" d="M125.9,302.8c2.2-0.3,3.7-0.7,5.4-1.5c1-0.5,1.7-1,2.5-1.8c-1.5-0.6-2-0.8-3.7-1.2c-0.2,0.4-0.4,0.6-0.7,1.1
			c-0.1,0.1-0.2,0.1-0.3,0.1c0,0,0,0,0,0c-0.2,0-0.3-0.1-0.5-0.1c-0.5,0-0.5-0.1-0.6-0.3c1-1.6,1.5-2.3,2.6-4.4H127
			c-0.3,0-0.8,0.1-1.4,0.1l-0.2-0.8c0.8,0.2,1.1,0.2,1.6,0.2h3.8c0.7-1.5,1.2-2.5,1.5-3.9c1.8,0.5,1.8,0.5,1.8,0.5
			c0.1,0.1,0.1,0.1,0.1,0.2c0,0.2-0.1,0.2-0.9,0.4c-0.5,1.2-0.7,1.7-1.3,2.8h7.1c0.4-0.6,0.6-0.8,1-1.3c0.8,0.6,1,0.9,1.8,1.6
			c0,0,0.1,0.1,0.1,0.1c0,0.1-0.1,0.1-0.2,0.1h-4.2c-0.5,1.6-0.7,2.1-1.3,3.1c-0.3,0.5-0.6,0.9-1,1.3c1.8,0.6,3.3,1.3,4.2,1.8
			c0.6,0.3,0.7,0.6,0.7,1.4c0,0.4-0.1,0.7-0.3,0.7c-0.1,0-0.1,0-0.6-0.4c-0.5-0.4-2.3-1.6-3.1-2c-0.5-0.3-0.8-0.4-1.6-0.8
			c-0.8,0.9-1.7,1.4-3,2c-1.9,0.8-3.4,1.1-6,1.2L125.9,302.8z M133.2,289.5v-1c0-0.7,0-0.8,0-1.3c1.6,0.2,2,0.3,2,0.5
			c0,0.1-0.2,0.3-0.7,0.4v1.5h5.3c0.3-0.4,0.4-0.6,0.8-1c0.8,0.6,1,0.7,1.7,1.4c0.1,0.1,0.1,0.1,0.1,0.2c0,0.1-0.2,0.2-1.2,0.3
			c-1,0.9-1.3,1.1-2.3,1.9l-0.2-0.1c0.8-1.5,0.8-1.5,1.1-2.2h-11.9c-0.1,0.9-0.3,1.5-0.6,2.1c-0.3,0.5-0.8,1.1-1.1,1.1
			c-0.3,0-0.6-0.7-0.6-1.2c0-0.2,0.1-0.3,0.3-0.5c0.4-0.2,0.8-0.6,1-1c0.3-0.4,0.3-0.5,0.8-2.2h0.2c0,0.7,0,1-0.1,1.4H133.2z
			 M132,294.9c-0.5,1.1-1.2,2.3-1.6,3.1c0.4,0.1,0.4,0.1,1.4,0.3c0.8,0.2,1.5,0.3,2.6,0.6c1-1.3,1.6-2.4,2.1-4H132z"/>
		<path class="st0" d="M128.5,314.4c0,0.5,0,0.6,0,0.9c0,1.8-0.4,3.6-1,4.7c-0.4,0.7-0.8,1.1-1.1,1.1s-0.5-0.6-0.5-1.3
			c0-0.3,0.1-0.4,0.5-0.8c0.5-0.5,1-1.3,1.3-2.2c0.3-0.8,0.4-1.4,0.5-2.6H128.5z M130.4,314.2c0-0.8,0-1.7-0.1-2.5
			c1.9,0.3,2.2,0.3,2.2,0.5c0,0.2,0,0.2-0.8,0.5v9.4c0,0.3,0.1,0.3,0.7,0.4c0.2,0,1.9,0,2.5,0c1.5,0,1.8-0.1,2-0.4
			c0.2-0.4,0.5-1.3,1.1-4.1l0.2,0L138,322v0.1c0,0.2,0.1,0.3,0.4,0.3c0.4,0.1,0.5,0.2,0.5,0.5c0,0.3-0.3,0.5-0.8,0.6
			c-0.4,0.1-2.1,0.2-3.3,0.2c-2.9,0-3.5,0-3.8-0.1c-0.4-0.1-0.6-0.4-0.6-0.9c0.1-1.8,0.1-1.9,0.1-2.6V314.2z M130.9,308.4
			c2.1,0.5,3.1,0.9,4.3,1.6c0.3,0.2,0.4,0.3,0.5,0.5c0.1,0.2,0.1,0.6,0.1,0.8c0,0.5-0.2,0.8-0.4,0.8c-0.1,0-0.2-0.1-0.5-0.4
			c-1.1-1.2-2.6-2.3-4.2-3.1L130.9,308.4z M138.6,314.2c2.1,2,3.2,3.6,3.2,4.6c0,0.3-0.1,0.8-0.4,1.3c-0.2,0.3-0.3,0.5-0.5,0.5
			c-0.2,0-0.3-0.2-0.4-0.7c-0.5-2.3-1.1-3.8-2.2-5.6L138.6,314.2z"/>
	</g>
</g>
<g>
	<rect x="0.1" class="st1" width="55" height="291.8"/>
	<line class="st2" x1="27.7" y1="0" x2="27.7" y2="30"/>
</g>
<g>
	<path class="st3" d="M25.4,67.2c-2.7,1.8-4.7,3-8.6,4.9c-0.1,1-0.2,1.3-0.4,1.3s-0.4-0.5-1.3-3.1c1.2-0.2,2-0.4,4.1-1.1
		c2.9-1,4.1-1.4,6-2.3L25.4,67.2z M16.5,56.9c1.8,0.7,3.4,1.5,4.4,2.3c0.6,0.5,0.8,0.9,0.8,1.7c0,1-0.3,1.8-0.7,1.8
		c-0.3,0-0.4-0.1-1-1.2c-0.9-1.6-2-2.8-3.7-4.3L16.5,56.9z M16.9,79.1c3.8-1.4,6.5-3.1,8.4-5.3c2-2.2,3.1-5.6,3.1-9.5
		c0-0.5,0-0.8-0.1-1.6c2.9,0.4,3.4,0.5,3.4,0.8c0,0.2-0.2,0.3-1.2,0.7c0.1,2,0.5,3.5,1.4,5.4c1.7,3.8,4.5,6,8.7,7.1V77
		c-1.2,0.3-1.5,0.7-2.2,2.2C37,78.5,36.4,78,35,76.7c-2.7-2.7-4-5.7-4.8-11c-0.4,3.2-0.7,4.6-1.5,6.1c-1.4,2.5-3.6,4.5-6.6,5.9
		c-1.5,0.7-2.8,1.1-5.1,1.7L16.9,79.1z M26.6,60.9c-1.3,2.4-2.6,4.1-4.7,6l-0.3-0.2c1.5-1.9,2.6-4.1,3.7-6.9
		c0.8-2.2,1.3-3.9,1.5-5.3c2.8,0.8,2.9,0.8,3.2,1c0.1,0.1,0.3,0.2,0.3,0.3c0,0.3-0.3,0.4-1.5,0.4c-0.8,1.9-1.1,2.7-1.8,4h9.5
		c0.6-0.7,0.8-0.9,1.3-1.5c1,0.8,1.3,1.1,2.2,1.9c0.3,0.3,0.4,0.4,0.4,0.5c0,0.3-0.3,0.4-1.7,0.4c-2.4,2.9-2.9,3.4-4.6,4.9l-0.3-0.3
		c1.5-2.6,1.8-3.3,2.6-5.4H26.6z"/>
	<path class="st3" d="M27.7,113.6c3-0.9,5-2,6.6-3.9c1.7-1.9,2.5-4.2,2.5-6.7c0-2.7-1.1-4.9-3.2-6.2c-1.2-0.8-3.1-1.3-4.8-1.3
		c-0.3,0-0.5,0-1,0.1c0.7,1,0.9,1.5,0.9,2.3c0,2.2-1.6,6.3-3.7,9.7c-1.8,2.8-3.1,4.2-4.2,4.2c-0.5,0-0.9-0.2-1.2-0.6
		c-0.3-0.3-0.3-0.4-0.8-1.8c-0.3-0.7-0.4-1.1-1.2-2.6c-0.4-0.9-0.6-1.7-0.6-2.5c0-1.8,1-3.8,2.5-5.5c2.3-2.4,6-3.9,9.6-3.9
		c2.8,0,5.4,0.9,7.2,2.6s2.7,3.9,2.7,6.6c0,3.5-2,6.6-5.6,8.5c-1.6,0.9-3.1,1.3-5.5,1.7L27.7,113.6z M18.5,104.9
		c0,1.3,0.4,2.7,1.1,3.7c0.4,0.5,0.8,0.8,1.1,0.8c0.6,0,2-1.5,3.3-3.7c2.1-3.3,3.6-6.9,3.6-8.7c0-0.4-0.1-0.7-0.4-1.4
		C22.3,96.5,18.5,100.6,18.5,104.9z"/>
	<path class="st3" d="M18.3,136v10.7c0,3.7,0,3.7,0,5.6c0,0.2-0.1,0.3-0.3,0.3c-0.2,0.1-0.9,0.1-1.3,0.1c-0.3,0-0.3-0.1-0.4-0.3
		c0.1-2.4,0.1-6.8,0.1-13.9c0-7.3,0-9.8-0.1-11.4c0.8,0.5,1.1,0.7,2,1.3H24c0.5-0.6,0.7-0.7,1.1-1.3c0.7,0.6,0.9,0.7,1.5,1.3
		c0.2,0.2,0.3,0.3,0.3,0.4c0,0.2-0.2,0.4-0.8,0.7c0,1.3,0,2.1,0,3.1c0,1.5,0,2.4,0.1,4.1c0,0.2-0.1,0.3-0.2,0.4
		c-0.1,0.1-0.8,0.1-1.4,0.1c-0.2,0-0.3-0.1-0.3-0.3V136H18.3z M24.3,129.1h-6v2.7h6V129.1z M24.3,132.5h-6v2.9h6V132.5z M24.3,149.8
		c0,0.2-0.1,0.2-0.3,0.3c-0.2,0.1-0.9,0.1-1.1,0.1c-0.3,0-0.3-0.1-0.4-0.3c0-2.3,0.1-3.6,0.1-4.8c0-3.3,0-5.9-0.1-7
		c0.9,0.5,1.2,0.7,2.1,1.2h6.6c0.5-0.5,0.7-0.6,1.2-1.1c0.6,0.5,0.8,0.6,1.4,1.2c0.3,0.2,0.3,0.3,0.3,0.4c0,0.2-0.1,0.3-0.9,0.7
		c0,1.5,0,2,0,3.1c0,1.9,0,3,0.1,5.2v0c0,0.3-0.1,0.3-0.3,0.4c-0.2,0.1-0.8,0.1-1.2,0.1c-0.3,0-0.4-0.1-0.4-0.3v-1h-7.1V149.8z
		 M31.3,140.1h-7.1v3.1h7.1V140.1z M24.3,143.9v3.6h7.1v-3.6H24.3z M31.3,136v0.7c-0.1,0.3-0.3,0.4-1,0.4c-0.7,0-0.8-0.1-0.8-0.4
		c0.1-1.8,0.1-2.6,0.1-4.2c0-4,0-4.3-0.1-5.3c0.9,0.5,1.2,0.7,2,1.2h5.9c0.5-0.6,0.7-0.7,1.1-1.3c0.8,0.6,1,0.7,1.7,1.3
		c0.2,0.2,0.3,0.3,0.3,0.4c0,0.2-0.1,0.3-0.9,0.8v13.5c0,4.7,0,4.7,0,7.3c-0.1,1.3-0.6,1.7-3,2.2c-0.3-0.7-0.5-1-1-1.3
		c-0.3-0.2-0.7-0.3-1.5-0.4c-1-0.2-1.5-0.3-1.6-0.3v-0.4c2.3,0.1,2.8,0.2,4.6,0.2c0.4,0,0.5-0.1,0.5-0.4v-14H31.3z M37.6,129.1h-6.3
		v2.7h6.3V129.1z M37.6,132.5h-6.3v2.9h6.3V132.5z"/>
	<path class="st3" d="M15.5,178.2c1.8-2.6,3.2-5.1,4.7-8.6c1.1-2.5,1.5-4,1.9-6.1c1.1,0.3,2.6,0.7,3.1,0.9c0.2,0.1,0.3,0.2,0.3,0.3
		c0,0.3-0.3,0.4-1.4,0.6c-1,2.8-2,4.6-3.8,7.4c2,0.3,2.4,0.4,2.4,0.6c0,0.2-0.1,0.3-0.9,0.6v7.6c0,3.7,0,3.7,0.1,6.9
		c0,0.4-0.3,0.5-1.1,0.6c-0.3,0-0.4,0-0.5,0s-0.1,0-0.1,0c-0.3,0-0.5-0.1-0.5-0.4c0,0,0,0,0-0.1c0.1-3.2,0.1-4.9,0.1-6.9v-8.3
		c-1.8,2.7-2.5,3.6-3.9,5L15.5,178.2z M24.9,172c-0.5,0-1,0-2.2,0.1l-0.2-1c1.2,0.1,1.8,0.2,2.4,0.2h9.2v-4.7c0-1.4,0-1.8-0.2-3
		c2.5,0.3,3.3,0.5,3.3,0.8c0,0.2-0.4,0.4-1.2,0.7v6.2h0.8c0.7-1,0.9-1.2,1.6-2.1c1.1,0.9,1.5,1.2,2.5,2.2c0.1,0.1,0.1,0.2,0.1,0.3
		c0,0.1-0.2,0.3-0.3,0.3H36v8.1c0,1.8,0,4.6,0.1,6.2c-0.1,0.8-0.2,1.2-0.8,1.6c-0.5,0.4-1,0.5-3,0.9c-0.3-1.4-0.5-1.5-5-2.3l0-0.4
		c0.8,0.1,1.6,0.1,2,0.1c2.4,0.1,2.5,0.1,4,0.2c0.5,0,0.6-0.2,0.6-0.6V172H24.9z M25.2,174.7c1.5,0.9,2.7,1.8,4,3.1
		c1,1,1.3,1.4,1.3,2c0,0.7-0.7,1.9-1.1,1.9c-0.3,0-0.5-0.2-0.7-0.8c-1-2.5-2.1-4.3-3.7-5.9L25.2,174.7z"/>
	<path class="st3" d="M22.9,207.9h1.3c0.6-0.8,0.8-1,1.4-1.8c1,0.8,1.2,1.1,2.2,2c0.1,0.1,0.2,0.2,0.2,0.3c0,0.1-0.1,0.2-0.3,0.2
		h-4.8v2.6c1.3,0.6,2.1,1.1,3,1.7c1.2,0.9,1.5,1.3,1.5,2.1c0,1-0.3,1.8-0.7,1.8c-0.2,0-0.3-0.1-0.5-0.5c-1-2.1-1.9-3.3-3.4-4.5v4.3
		c0,6.7,0,6.7,0,8.6c0,0.2-0.1,0.3-0.2,0.3c-0.1,0-1.1,0.1-1.5,0.1c-0.2,0-0.3-0.1-0.3-0.3c0-1.4,0.1-1.7,0.1-3.1
		c0.1-3.7,0.1-4.2,0.1-5.7l0.2-4.9c-1.7,3.7-2.9,5.3-5.8,8.5l-0.3-0.2c1.8-2.6,2.6-3.9,3.6-5.9c0.8-1.7,0.8-1.7,2.1-5.1h-3.4
		c-0.5,0-1.1,0.1-1.7,0.2l-0.2-1.1c0.8,0.2,1.2,0.3,2.2,0.3H21v-4.3c-2,0.4-2.8,0.6-4.8,0.8l-0.2-0.4c2.7-0.7,4.1-1.2,6.2-2.1
		c1.9-0.8,2.6-1.1,3.5-1.8c2.4,1.7,2.4,1.7,2.4,1.8c0,0.2-0.2,0.3-0.5,0.3c-0.1,0-0.5-0.1-1-0.1c-1.6,0.6-2.2,0.7-3.8,1.1V207.9z
		 M30.5,223.8c0,0.1,0,0.1,0,0.1c0,0.3-0.3,0.4-0.9,0.4c-0.3,0-0.4,0-0.5,0c0,0-0.1,0-0.1,0c-0.3,0-0.4-0.1-0.4-0.4
		c0.1-2.8,0.1-3.9,0.1-7.3c0-9.3,0-11.8-0.1-13.6c1,0.6,1.2,0.8,2.2,1.4h6.4c0.5-0.6,0.7-0.7,1.2-1.3c0.7,0.5,0.9,0.7,1.6,1.3
		c0.2,0.2,0.3,0.3,0.3,0.4c0,0.2-0.3,0.4-0.9,0.8v5.8c0,6.4,0,8.3,0.2,12.2c0,0.4-0.3,0.5-1.2,0.5c-0.3,0-0.4,0-0.6,0h0
		c-0.2,0-0.3-0.1-0.3-0.3c0,0,0,0,0-0.1v-1.8h-6.8V223.8z M30.5,221.3h6.8v-16.2h-6.8V221.3z"/>
	<path class="st3" d="M34.2,254.8c0.6-0.8,0.9-1,1.6-1.9c1.1,0.9,1.5,1.2,2.5,2.1c0.1,0.1,0.1,0.2,0.1,0.3c0,0.1-0.1,0.2-0.3,0.2
		h-9.4v4.8h7.5c0.7-0.8,1-1.1,1.8-1.9c1.2,0.9,1.5,1.1,2.7,2.1c0.1,0.1,0.2,0.2,0.2,0.3s-0.1,0.2-0.2,0.2H18.1
		c-0.5,0-1.9,0.1-2.4,0.2l-0.3-1.1c2.1,0.3,2.2,0.3,2.7,0.3h8.8v-4.8h-6.5c-0.6,0-1.1,0-2.3,0.1l-0.3-1.1c0.8,0.2,2.1,0.3,2.7,0.3
		h6.5v-1.1c0-0.8,0-1.5-0.1-2.8c3.1,0.4,3.3,0.5,3.3,0.8c0,0.2-0.2,0.3-1.2,0.6v2.5H34.2z M26.9,239.5v-1.3c0-1.1,0-1.3-0.1-2
		c2.7,0.3,3.3,0.4,3.3,0.7c0,0.1-0.1,0.2-0.2,0.3c-0.1,0.1-0.5,0.2-1.1,0.3v2h7.8c0.6-0.7,0.6-0.7,1.3-1.5c1.1,0.8,1.5,1,2.5,1.8
		c0.1,0.1,0.2,0.2,0.2,0.3c0,0.1-0.1,0.1-0.1,0.2c-0.1,0.1-0.4,0.1-0.7,0.2c-0.4,0.1-0.7,0.1-0.9,0.1c-0.2,0.2-0.4,0.4-0.5,0.5
		c-0.9,0.8-1,1-1.8,1.5l-0.3-0.2c0.3-1.1,0.4-1.5,0.6-2.4h-18c-0.2,1.3-0.4,2.2-0.9,3c-0.4,0.7-1.1,1.3-1.5,1.3s-1-1-1-1.7
		c0-0.3,0.1-0.4,0.4-0.6c1.1-0.8,1.4-1.1,1.8-1.8c0.5-0.9,0.8-1.7,0.9-2.7H19c0,0.3,0,0.5,0,0.6c0,0.4,0,0.7-0.1,1.2H26.9z
		 M21.2,244.3c-0.8,0-1.2,0-2.2,0.2l-0.3-1.1c0.5,0.1,0.5,0.1,2.5,0.3h12.4c0.6-0.8,0.8-1,1.4-1.7c1,0.8,1.3,1.1,2.4,2
		c0.1,0.1,0.1,0.1,0.1,0.2c0,0.1-0.1,0.1-0.2,0.1H27.2c-2.5,3.3-2.5,3.3-3.9,4.8c3.1-0.1,5-0.2,10.5-0.7c-1.1-1.1-1.7-1.8-3-2.9
		l0.2-0.3c1.3,0.5,1.8,0.8,3.7,2c1.3,0.8,2.3,1.6,2.7,2.1c0.3,0.3,0.4,0.7,0.4,1.1c0,1-0.3,1.7-0.7,1.7c-0.2,0-0.2,0-1.5-1.8
		c-0.7-1-0.8-1.1-1.1-1.5c-3.2,0.5-5.5,0.9-6.2,1c-2.8,0.4-6.9,0.9-9,1c-0.1,0.9-0.2,1.2-0.5,1.2c-0.4,0-0.6-0.8-1.1-3.1
		c0.6,0.1,1,0.1,1.5,0.1c0.2,0,0.4,0,0.8,0c0.3,0,0.3,0,2.5-0.1c1.3-2.2,1.5-2.6,2.4-4.8H21.2z"/>
</g>
</svg>
