<?xml version="1.0" encoding="utf-8"?>
<!-- Generator: Adobe Illustrator 25.2.3, SVG Export Plug-In . SVG Version: 6.00 Build 0)  -->
<svg version="1.1" id="レイヤー_1" xmlns="http://www.w3.org/2000/svg" xmlns:xlink="http://www.w3.org/1999/xlink" x="0px"
	 y="0px" viewBox="0 0 196 328.8" style="enable-background:new 0 0 196 328.8;" xml:space="preserve">
<style type="text/css">
	.st0{fill:#200701;}
	.st1{fill:#210100;}
	.st2{fill:none;stroke:#76544B;stroke-miterlimit:10;}
	.st3{fill:#FFFFFF;}
</style>
<g>
	<g>
		<path class="st0" d="M173.8,146.1h-0.2c-0.6,0-1.1,0-1.6,0.1l-0.1-0.6c0.5,0.1,0.8,0.1,1.7,0.1h12c0.5-0.5,0.6-0.7,1-1.2
			c0.5,0.5,1,0.9,1.5,1.4c0.1,0.1,0.1,0.1,0.1,0.2s-0.1,0.1-0.2,0.1h-8.9v4.7c0,1.7,0,2.7,0.1,4.2c0,0.1-0.1,0.2-0.2,0.2
			c-0.1,0.1-0.6,0.1-0.9,0.1c-0.1,0-0.2-0.1-0.2-0.2c0,0,0,0,0,0c0.1-1.7,0.1-2.1,0.1-2.9c-2.4,0.9-2.4,0.9-5,1.7
			c-0.1,0.6-0.1,0.7-0.3,0.7c-0.2,0-0.3-0.3-0.7-1.8c0.6,0,0.8-0.1,1.8-0.2V146.1z M175.6,144.6
			C175.6,144.7,175.6,144.7,175.6,144.6c0,0.2-0.2,0.3-0.8,0.3c-0.4,0-0.5,0-0.5-0.2c0,0,0,0,0,0c0.1-1.3,0.1-1.9,0.1-3.5
			c0-1.2,0-1.5-0.1-2.3c0.6,0.3,0.8,0.4,1.3,0.8h8.4c0.3-0.3,0.4-0.5,0.7-0.8c0.5,0.4,0.6,0.5,1.1,0.9c0.1,0.1,0.1,0.1,0.1,0.2
			c0,0.1,0,0.1-0.6,0.5c0,2.4,0,3.1,0,4v0c0,0.2,0,0.2-0.1,0.2c-0.1,0.1-0.4,0.1-0.8,0.1c-0.2,0-0.3,0-0.3-0.2v-0.5h-8.6V144.6z
			 M174.9,147.8h3.2v-1.7h-3.2V147.8z M174.9,150h3.2v-1.8h-3.2V150z M174.9,152.6c1.5-0.3,2.1-0.4,3.2-0.6v-1.5h-3.2V152.6z
			 M184.2,140.1h-8.6v1.6h8.6V140.1z M175.6,142.1v1.7h8.6v-1.7H175.6z M185.1,147.7c0.3-0.3,0.4-0.4,0.8-0.7
			c0.5,0.4,0.6,0.5,1.1,0.9c0.1,0.1,0.2,0.2,0.2,0.2c0,0.1-0.1,0.2-0.8,0.4c-0.9,1.7-1.4,2.4-2.1,3.3c1.3,0.9,2.3,1.3,4.2,1.7v0.2
			c-0.4,0.1-0.6,0.2-0.8,0.4c-0.3,0.3-0.3,0.4-0.4,0.8c-1.7-0.7-2.5-1.3-3.6-2.3c-1.1,1-2,1.6-3.7,2.4l-0.1-0.2
			c1.3-0.8,2.1-1.5,3.3-2.8c-1-1.2-1.5-2.1-2.1-3.8h-0.2c-0.3,0-0.6,0-0.9,0.1l-0.1-0.6c0.3,0.1,0.6,0.1,1,0.1H185.1z M181.1,148.1
			c0.5,1.1,0.6,1.3,1.1,1.9c0.4,0.5,0.7,0.8,1.2,1.3c0.8-1.1,1.1-1.7,1.6-3.2H181.1z"/>
		<path class="st0" d="M184.3,166.6l1.2-1.4c0.8,0.7,1,0.9,1.8,1.6c0.1,0.1,0.1,0.1,0.1,0.1c0,0.1-0.1,0.1-0.2,0.1h-6.9v7.8h5.2
			c0.5-0.7,0.7-0.9,1.2-1.5c0.8,0.7,1.1,0.9,1.9,1.6c0.1,0.1,0.1,0.1,0.1,0.1c0,0.1-0.1,0.1-0.1,0.1h-14.6c-0.6,0-1,0-1.5,0.1
			l-0.1-0.7c0.6,0.1,0.9,0.1,1.6,0.1h5.1v-12.4c0-1,0-1.6-0.1-2.2c0.4,0.1,0.8,0.1,1,0.1c1,0.1,1.2,0.2,1.2,0.3s-0.2,0.2-0.7,0.4
			v5.6H184.3z"/>
		<path class="st0" d="M173.9,193.3c0,1.5,0,1.5,0,2.6c0,0.2,0,0.3,0,0.4c0,0.1,0,0.3,0,0.4c0,0.2-0.1,0.3-0.2,0.3
			c-0.1,0-0.5,0-0.6,0c-0.3,0-0.3,0-0.3-0.2c0-3.3,0-3.3,0-9.2c0-5.1,0-5.6-0.1-6.8c0.6,0.3,0.8,0.4,1.3,0.8h2
			c0.3-0.3,0.3-0.4,0.6-0.7c0.5,0.4,0.6,0.5,1,0.9c0.1,0.2,0.2,0.3,0.2,0.3c0,0.1-0.1,0.2-0.6,0.4c-0.7,1.4-1.5,2.9-2.1,3.9
			c0.8,0.8,1,1.1,1.3,1.5c0.5,0.7,0.8,1.7,0.8,2.6c0,0.9-0.3,1.8-0.8,2.2c-0.4,0.3-0.7,0.5-1.4,0.6c-0.2-0.8-0.3-1-1-1.2V193.3z
			 M173.9,191.8c0.6,0,1.1,0.1,1.3,0.1c0.4,0,0.5-0.1,0.6-0.3c0.1-0.3,0.2-0.9,0.2-1.5c0-1.5-0.4-2.6-1.5-3.7c0.5-1.1,1-2.8,1.4-4.4
			h-2.1V191.8z M180.7,184c0.3-0.4,0.4-0.5,0.8-0.9c0.6,0.5,0.7,0.6,1.3,1.2c0,0,0,0.1,0,0.1s-0.1,0.1-0.1,0.1h-3.3v2.8
			c1.1-0.2,2.1-0.5,3.2-0.8l0.1,0.2c-1.3,0.7-2.4,1.2-4.7,2c0,0.4-0.1,0.6-0.3,0.6s-0.3-0.3-0.6-1.6c0.5,0,0.6,0,1.2-0.1v-5
			c0-0.1,0-0.4,0-0.9c0-0.1,0-0.3,0-0.6c1.5,0.2,1.8,0.3,1.8,0.4c0,0.1-0.2,0.2-0.6,0.3v2.4H180.7z M180.9,190.4
			c0.2-0.5,0.5-1.6,0.7-2.4c1.5,0.4,1.7,0.5,1.7,0.7c0,0.1-0.2,0.2-0.6,0.2c0,0-0.1,0-0.2,0c-0.4,0.6-0.6,0.8-1.2,1.5h4
			c0.3-0.3,0.3-0.5,0.6-0.8c0.5,0.3,0.6,0.5,1,0.8c0.2,0.1,0.2,0.2,0.2,0.3c0,0.1-0.2,0.3-0.6,0.5c0,1.4,0,2,0,2.7
			c0,0.8,0,1.5,0,3.1c0,0.1-0.1,0.2-0.2,0.2c0,0-0.7,0.1-0.8,0.1c-0.1,0-0.2-0.1-0.2-0.2c0,0,0-0.1,0-0.1v-0.9h-5.9v0.8
			c-0.1,0.2-0.2,0.3-0.6,0.3c-0.2,0-0.3,0-0.4,0c0,0,0,0,0,0c-0.2,0-0.2-0.1-0.2-0.2c0.1-1.5,0.1-1.5,0.1-5.7c0-0.7,0-1.1-0.1-1.8
			c0.6,0.3,0.8,0.5,1.3,0.8H180.9z M185.4,190.8h-5.9v2.1h5.9V190.8z M179.6,193.3v2.4h5.9v-2.4H179.6z M184.1,184.7
			c0.4-0.3,0.8-0.6,1.5-1.4c0.7-0.7,0.8-0.8,1-1.2c1.1,0.6,1.5,0.8,1.5,1c0,0.1-0.1,0.2-0.3,0.2s-0.3,0-0.5-0.1
			c-1.4,0.9-2.2,1.3-3.2,1.8v1.9c0,0.3,0,0.3,0.1,0.4c0.1,0.1,0.5,0.1,1.2,0.1c1,0,1.4,0,1.5-0.1c0.1-0.1,0.2-0.2,0.3-0.4
			c0.1-0.3,0.1-0.6,0.3-1c0.1-0.3,0.2-0.7,0.4-1.3l0.2,0l-0.1,2v0.3c0,0.2,0,0.2,0.2,0.3c0.3,0.1,0.3,0.2,0.3,0.4
			c0,0.3-0.2,0.5-0.5,0.5c-0.2,0.1-1,0.1-1.8,0.1c0,0-0.1,0-0.3,0c-0.5,0-0.9,0-1.2,0c-1.2,0-1.5-0.2-1.5-1.1l0-1v-4.1
			c0-0.6,0-0.8-0.1-1.3c1.6,0.2,1.9,0.3,1.9,0.5c0,0.1-0.2,0.2-0.7,0.3V184.7z"/>
		<path class="st0" d="M143.7,140.6c0.5-0.6,0.6-0.7,1.1-1.3c0.8,0.6,1,0.8,1.7,1.4c0.1,0.1,0.1,0.1,0.1,0.1c0,0.1-0.1,0.1-0.2,0.1
			h-7.3c0.2,0.1,0.2,0.1,0.9,0.4c0.2,0.1,0.3,0.2,0.3,0.3c0,0.1-0.1,0.2-0.7,0.2c1.7,1.2,3.9,1.7,6.9,1.9v0.2
			c-0.7,0.3-0.9,0.5-1.1,1.2c-1.8-0.5-2.5-0.8-3.5-1.3c-0.9-0.5-1.6-1-2.6-1.8c-2,1.7-3.2,2.4-5.9,3.5l-0.1-0.2
			c1.6-0.8,2.9-1.7,4.3-3.1c0.5-0.5,0.8-0.8,1.1-1.1h-5.4c0,2.7,0,4.2-0.1,4.6c-0.1,2.6-0.5,4.8-1.4,6.7c-0.5,1.1-1,1.8-2,2.9
			l-0.2-0.1c1.2-1.9,1.7-3.2,2-5.1c0.2-0.8,0.2-1.4,0.3-2.8c-0.6,0.6-0.8,0.9-1.7,1.6c0,0.2,0,0.3,0,0.4c0,0,0,0.1,0,0.1
			c0,0.2-0.1,0.3-0.2,0.3c-0.2,0-0.3-0.3-0.9-1.7c0.4-0.1,0.7-0.2,1.6-0.5c0.4-0.2,0.5-0.2,1.2-0.6c0.1-1.1,0.1-2.4,0.1-4.3
			c0-1.8,0-2-0.1-2.8c0.6,0.3,0.8,0.4,1.4,0.9h4.8v-0.7c0-0.4,0-0.6-0.1-1c1.9,0.1,2.1,0.2,2.1,0.4c0,0.1-0.1,0.2-0.7,0.4v1H143.7z
			 M129.8,141.7c0.5,0.4,0.9,0.8,1.4,1.4c0.4,0.5,0.6,0.9,0.6,1.2c0,0.3-0.1,0.8-0.3,1c-0.1,0.1-0.2,0.2-0.3,0.2
			c-0.2,0-0.3-0.2-0.4-0.6c-0.2-0.9-0.8-2.4-1.2-3.1L129.8,141.7z M135.1,151.6c-0.1,0.7-0.3,1.5-0.7,2.2c-0.3,0.6-0.9,1.1-1.3,1.1
			c-0.3,0-0.5-0.4-0.5-0.8c0-0.3,0.1-0.5,0.5-0.6c0.5-0.2,1-0.5,1.2-0.8c0.2-0.3,0.3-0.5,0.5-1.1L135.1,151.6z M135.6,149v2
			c-0.1,0.1-0.1,0.1-0.2,0.2c-0.2,0-0.5,0-0.6,0c-0.3,0-0.3,0-0.3-0.2c0.1-1.1,0.1-1.8,0.1-3.4c0-0.9,0-0.9-0.1-2.3
			c0.5,0.2,0.7,0.3,1.2,0.6h2.7c0.3-0.3,0.3-0.3,0.5-0.6c0.4,0.3,0.5,0.3,0.9,0.6c0.1,0.1,0.1,0.1,0.1,0.1c0,0.1-0.2,0.3-0.4,0.4
			v2.3c0,0.2,0,0.3,0,1.5c0,0.3-0.1,0.5-0.5,0.6c-0.2,0.1-0.3,0.1-0.9,0.3c-0.2-0.6-0.5-0.8-1.4-0.9V150c1.1,0.1,1.1,0.1,1.6,0.1
			c0.1,0,0.1,0,0.1-0.1V149H135.6z M138.6,147.2v-1h-2.9v1H138.6z M135.6,147.6v1.1h2.9v-1.1H135.6z M136.3,152.6c0-0.8,0-0.8,0-1.2
			c1.7,0.2,1.8,0.2,1.8,0.4c0,0.1,0,0.1-0.6,0.3v1.5c0,0.1,0,0.2,0.1,0.3c0.2,0.1,0.6,0.1,1.1,0.1c0.8,0,2.5,0,2.6-0.1
			c0.3,0,0.4-0.1,0.5-0.4c0.3-0.6,0.5-1.2,0.6-1.7l0.3,0.1l-0.1,1.5v0.1c0,0.2,0.1,0.3,0.4,0.4c0.4,0.1,0.5,0.2,0.5,0.4
			c0,0.3-0.2,0.4-0.7,0.5c-0.6,0.1-1.5,0.2-3.2,0.2c-3.3,0-3.4-0.1-3.4-1.3V152.6z M136.7,144.2c0.5,0.1,0.8,0.1,1.5,0.1h1.8
			c0.4-0.4,0.5-0.5,0.8-0.9c0.6,0.4,0.8,0.6,1.3,1.1c0,0.1,0.1,0.1,0.1,0.1c0,0.1-0.1,0.1-0.2,0.1h-3.9c-0.6,0-0.6,0-1.4,0.1
			L136.7,144.2z M138.7,151.3c0.6,0.1,1.3,0.4,1.8,0.7c0.3,0.2,0.5,0.5,0.5,0.7c0,0.4-0.3,0.9-0.5,0.9c-0.1,0-0.2-0.1-0.3-0.3
			c-0.4-0.6-0.9-1.3-1.6-1.9L138.7,151.3z M142.6,146.1c0,0.1-0.2,0.2-0.5,0.3c0,1.8,0,1.9,0,2.8c0,0.1-0.1,0.2-0.2,0.2
			c-0.1,0-0.4,0.1-0.6,0.1c-0.2,0-0.2,0-0.3-0.2c0.1-0.7,0.1-0.8,0.1-2.1c0-0.8,0-1-0.1-1.4C142.4,145.9,142.6,146,142.6,146.1z
			 M143.8,146.7c0-0.1,0-0.5-0.1-1.2c1.9,0.2,1.9,0.2,1.9,0.4c0,0.1,0,0.1-0.7,0.4v2.5l0,0.8v0.2c0,0.2,0,0.2,0,0.3
			c0,0.5-0.1,0.6-0.6,0.8c-0.4,0.2-0.7,0.3-1.2,0.3c-0.1-0.5-0.2-0.7-0.5-0.8c-0.2-0.1-0.3-0.1-1-0.2V150c0.3,0,0.3,0,1,0.1
			c0.5,0.1,0.5,0.1,0.9,0.1c0.1,0,0.1-0.1,0.1-0.2V146.7z M143.4,151.6c0.8,0.3,1.8,0.9,2.4,1.2c0.3,0.3,0.5,0.5,0.5,1
			c0,0.5-0.2,1-0.5,1c-0.2,0-0.2,0-0.5-0.5c-0.5-0.9-1.1-1.6-2-2.5L143.4,151.6z"/>
		<path class="st0" d="M144.3,171.7c-1.7,2.3-4.1,3.7-6.3,3.7c-1.4,0-2.4-0.6-3-1.5c-0.4-0.6-0.5-1.5-0.5-3c0-1,0.1-2.7,0.1-4.3
			c0.1-1.9,0.1-2.4,0.1-3.1c0-1.5-0.2-1.9-1.5-2.4c0.2-0.1,0.3-0.2,0.5-0.2c0.4,0,1.1,0.2,1.6,0.4c0.7,0.3,1,0.7,1,1.1
			c0,0.1,0,0.2-0.2,0.6c-0.3,1.1-0.9,6.5-0.9,8.6c0,1.1,0.2,1.7,0.7,2.2c0.4,0.3,1,0.5,1.6,0.5c1.2,0,2.7-0.4,4.1-1.2
			c0.8-0.4,1.4-0.8,2.3-1.6L144.3,171.7z"/>
		<path class="st0" d="M138,195.4c1.9-0.6,3.2-1.3,4.2-2.5c1.1-1.2,1.6-2.7,1.6-4.3c0-1.7-0.7-3.1-2-4c-0.8-0.5-2-0.8-3.1-0.8
			c-0.2,0-0.3,0-0.6,0c0.4,0.6,0.6,1,0.6,1.5c0,1.4-1,4-2.4,6.2c-1.1,1.8-2,2.7-2.7,2.7c-0.3,0-0.6-0.1-0.8-0.4
			c-0.2-0.2-0.2-0.3-0.5-1.2c-0.2-0.5-0.3-0.7-0.8-1.7c-0.3-0.6-0.4-1.1-0.4-1.6c0-1.1,0.6-2.5,1.6-3.6c1.5-1.5,3.8-2.5,6.2-2.5
			c1.8,0,3.5,0.6,4.6,1.7c1.2,1.1,1.7,2.5,1.7,4.2c0,2.3-1.3,4.2-3.6,5.5c-1,0.6-2,0.8-3.5,1.1L138,195.4z M132.1,189.8
			c0,0.9,0.3,1.7,0.7,2.4c0.3,0.3,0.5,0.5,0.7,0.5c0.4,0,1.3-1,2.1-2.4c1.3-2.1,2.3-4.4,2.3-5.6c0-0.3-0.1-0.4-0.3-0.9
			C134.5,184.5,132.1,187.1,132.1,189.8z"/>
		<path class="st0" d="M133.8,203.7c0.4,0,1.2,0.3,1.7,0.6c0.3,0.2,0.5,0.4,0.5,0.6c0,0.1,0,0.2-0.1,0.4c-0.1,0.4-0.2,1.8-0.2,3.1
			c0,0.2,0,0.6,0,1.4c0,0.2,0,0.4,0,0.6c0,0.6,0,0.8-0.1,1c0,0.3-0.2,0.4-0.4,0.4c-0.2,0-0.5-0.2-0.7-0.6c-0.2-0.4-0.3-0.8-0.3-1
			c0-0.1,0-0.2,0.1-0.4c0.2-0.5,0.2-1.5,0.2-2.9c0-1.3-0.1-1.7-0.3-2.2c-0.2-0.4-0.4-0.5-1.1-0.8
			C133.5,203.7,133.5,203.7,133.8,203.7z M135.7,217.3c1.8-1.2,2.8-2.2,3.6-3.6c1-1.7,1.3-3.3,1.3-7.5c0-1.8-0.1-2.4-0.3-2.7
			c-0.2-0.3-0.6-0.5-1.3-0.6c0.3-0.2,0.4-0.3,0.7-0.3c0.4,0,1.3,0.2,1.8,0.5c0.5,0.2,0.6,0.4,0.6,0.7c0,0.1,0,0.1-0.1,0.4
			c-0.1,0.4-0.2,1.6-0.3,3.9c-0.1,2.6-0.2,3.4-0.6,4.5c-0.8,2.1-2.7,3.9-5.4,5L135.7,217.3z"/>
		<path class="st0" d="M132.1,225.7c1.4,0.8,2.6,1.7,3.2,2.4c0.4,0.5,0.5,0.8,0.5,1.2c0,0.7-0.3,1.4-0.6,1.4c-0.2,0-0.3-0.1-0.4-0.4
			c-0.9-2.1-1.7-3.3-2.9-4.5L132.1,225.7z M134.1,238.3c2.3-2,4.1-4.2,5.6-6.9c1.1-1.9,1.9-4.1,1.9-4.9c0-0.3-0.1-0.5-0.3-0.6
			c-0.2-0.3-0.4-0.3-0.9-0.5c0.2-0.2,0.3-0.2,0.5-0.2c0.5,0,1.1,0.2,1.7,0.6c0.5,0.3,0.7,0.6,0.7,0.9c0,0.1,0,0.2-0.2,0.4
			c-0.1,0.2-0.3,0.6-0.9,1.7c-1.5,3.1-2.8,5.1-4.6,6.8c-1.2,1.2-2.4,2.1-3.6,2.9L134.1,238.3z M142.6,222.8c0.7,0.4,1.2,0.7,1.6,1.1
			c0.6,0.6,0.9,1,0.9,1.4c0,0.4-0.3,0.8-0.6,0.8c-0.2,0-0.2,0-0.8-1.2c-0.3-0.6-0.9-1.4-1.4-1.9L142.6,222.8z M144.5,221.8
			c0.6,0.3,1.2,0.6,1.7,1c0.7,0.5,0.9,0.9,0.9,1.4c0,0.4-0.2,0.7-0.5,0.7c-0.2,0-0.3-0.1-0.4-0.3c-0.6-1.1-1-1.6-2-2.6L144.5,221.8z
			"/>
		<path class="st0" d="M137.6,247.3c0-1.3-0.1-1.7-0.3-2c-0.2-0.3-0.5-0.5-1-0.6c0.1-0.2,0.3-0.2,0.6-0.2c0.4,0,1,0.2,1.6,0.5
			c0.6,0.3,0.8,0.5,0.8,0.8c0,0.2,0,0.3-0.3,0.6c-0.2,0.3-0.2,1.1-0.2,7.9c0,3.8-0.1,4.4-0.7,4.4c-0.2,0-0.3-0.1-0.4-0.4
			c-0.1-0.3-0.2-0.9-0.2-2.2L137.6,247.3z"/>
		<path class="st0" d="M135.2,265.1c0.4,0,0.8,0.1,1.3,0.3c0.8,0.3,1.2,0.6,1.2,1c0,0.1,0,0.1-0.1,0.4c-0.2,0.5-0.3,1.8-0.3,3.9
			c1.4,0.1,3.1,0.6,4.2,1c0.8,0.4,1.1,0.7,1.1,1.4c0,0.5-0.2,0.8-0.4,0.8c-0.2,0-0.2,0-0.7-0.4c-1.2-1.1-2.6-1.9-4.2-2.3
			c0,1.1,0,1.7,0,2.2c0,0.5,0,0.7,0,1.1c0,0.8,0,1.1,0,1.5c0,0.5,0,0.5,0,2.1c0,0.4,0,0.7,0,1c0,0.3,0,0.5-0.1,0.6
			c-0.1,0.1-0.2,0.2-0.3,0.2c-0.4,0-1.2-1-1.2-1.6c0-0.2,0-0.3,0.1-0.5c0.3-0.9,0.4-3.2,0.4-7.8c0-1.3-0.1-2.6-0.1-3.1
			c-0.1-0.8-0.5-1.3-1.4-1.6C135,265.1,135.1,265.1,135.2,265.1z"/>
		<path class="st0" d="M138.8,300.1h4.4c0.5-0.6,0.6-0.8,1.1-1.4l1.8,1.5c0.1,0.1,0.1,0.1,0.1,0.2c0,0.1-0.1,0.1-0.1,0.1h-13.8
			c-0.7,0-1.1,0-1.9,0.2l-0.2-0.8c0.8,0.1,1.7,0.2,2.2,0.2h5.2v-4.7h-4.3c-0.3,0-0.5,0-1.4,0.2l-0.1-0.7c0.6,0.1,1.3,0.1,1.7,0.1
			h8.6c0.4-0.6,0.6-0.8,1-1.3c0.8,0.6,1,0.8,1.8,1.5c0.1,0.1,0.1,0.1,0.1,0.1c0,0.1-0.1,0.1-0.1,0.1h-5.9V300.1z M137,288.2
			c-0.1,0.9-0.1,1.1-0.2,1.6c-0.6,2.5-2.8,4-6.4,4.4l-0.2-0.3c2.1-0.4,3.6-1.2,4.6-2.4c0.6-0.9,0.9-1.7,1-3.2h-3.3
			c-0.3,1.7-0.8,2.7-1.5,2.7c-0.1,0-0.3-0.1-0.4-0.3c-0.1-0.2-0.3-0.6-0.3-0.7c0-0.3,0.1-0.3,0.5-0.6c0.8-0.6,1.4-1.5,1.6-2.8h0.3
			c0,0.6,0,0.8-0.1,1.3h4.9v-1.4c0-0.7,0-0.8-0.1-1.3c1.7,0.2,1.8,0.2,2,0.2c0.1,0.1,0.2,0.1,0.2,0.2c0,0.2-0.2,0.3-0.9,0.5v1.7h4.9
			c0.3-0.4,0.4-0.6,0.8-1c0.7,0.5,0.9,0.6,1.5,1.2c0.1,0.1,0.2,0.2,0.2,0.3c0,0,0,0.1-0.1,0.1c-0.1,0.1-0.3,0.1-0.5,0.1
			c-0.5,0.1-0.7,0.1-0.8,0.2c-0.6,0.6-1,0.9-1.8,1.6l-0.1-0.1c0.3-0.6,0.4-0.7,0.8-2h-3.1v3.3c0,0.3,0,0.3,0.3,0.4
			c0.1,0,1.3,0.1,2,0.1c0.7,0,1.4-0.1,1.6-0.1c0.2-0.1,0.2-0.1,0.5-0.7c0.2-0.5,0.3-0.9,0.6-1.8l0.3,0l-0.1,1.9c0,0.1,0,0.2,0,0.3
			c0,0.2,0.1,0.3,0.3,0.3c0.3,0.1,0.5,0.2,0.5,0.5c0,0.2-0.2,0.4-0.5,0.5c-0.4,0.1-1.5,0.2-2.6,0.2c-1.4,0-2.8,0-3.2-0.1
			c-0.6-0.1-0.8-0.3-0.8-0.9v-3.8H137z"/>
		<path class="st0" d="M131.9,311.7v6.9c0,2.4,0,2.4,0,3.6c0,0.1-0.1,0.2-0.2,0.2c-0.1,0-0.6,0.1-0.9,0.1c-0.2,0-0.2,0-0.2-0.2
			c0.1-1.5,0.1-4.4,0.1-8.9c0-4.7,0-6.3-0.1-7.3c0.5,0.3,0.7,0.5,1.3,0.8h3.7c0.3-0.4,0.4-0.5,0.7-0.8c0.4,0.4,0.6,0.5,1,0.8
			c0.1,0.1,0.2,0.2,0.2,0.2c0,0.1-0.1,0.2-0.5,0.5c0,0.9,0,1.4,0,2c0,0.9,0,1.5,0.1,2.6c0,0.1,0,0.2-0.1,0.2c-0.1,0-0.5,0.1-0.9,0.1
			c-0.1,0-0.2-0.1-0.2-0.2v-0.5H131.9z M135.8,307.3h-3.8v1.8h3.8V307.3z M135.8,309.5h-3.8v1.8h3.8V309.5z M135.8,320.6
			c0,0.1,0,0.1-0.2,0.2c-0.1,0-0.6,0.1-0.7,0.1c-0.2,0-0.2-0.1-0.2-0.2c0-1.5,0-2.3,0-3.1c0-2.1,0-3.8-0.1-4.5
			c0.6,0.3,0.8,0.4,1.4,0.8h4.2c0.3-0.3,0.5-0.4,0.8-0.7c0.4,0.3,0.5,0.4,0.9,0.8c0.2,0.1,0.2,0.2,0.2,0.3c0,0.1-0.1,0.2-0.6,0.4
			c0,0.9,0,1.3,0,2c0,1.2,0,1.9,0.1,3.3v0c0,0.2,0,0.2-0.2,0.3c-0.1,0-0.5,0.1-0.8,0.1c-0.2,0-0.2,0-0.3-0.2v-0.6h-4.5V320.6z
			 M140.3,314.3h-4.5v2h4.5V314.3z M135.8,316.8v2.3h4.5v-2.3H135.8z M140.3,311.7v0.5c0,0.2-0.2,0.3-0.7,0.3c-0.5,0-0.5,0-0.5-0.2
			c0-1.1,0.1-1.7,0.1-2.7c0-2.6,0-2.7-0.1-3.4c0.6,0.3,0.8,0.4,1.3,0.8h3.8c0.3-0.4,0.4-0.5,0.7-0.8c0.5,0.4,0.6,0.5,1.1,0.8
			c0.1,0.1,0.2,0.2,0.2,0.3c0,0.1-0.1,0.2-0.6,0.5v8.7c0,3,0,3,0,4.7c-0.1,0.8-0.4,1.1-1.9,1.4c-0.2-0.4-0.3-0.6-0.6-0.8
			c-0.2-0.1-0.5-0.2-1-0.3c-0.6-0.1-1-0.2-1-0.2v-0.3c1.5,0.1,1.8,0.1,2.9,0.1c0.3,0,0.3-0.1,0.3-0.3v-9H140.3z M144.4,307.3h-4.1
			v1.8h4.1V307.3z M144.4,309.5h-4.1v1.8h4.1V309.5z"/>
	</g>
</g>
<g>
	<rect x="4.4" y="-1.9" class="st1" width="55" height="291.8"/>
	<line class="st2" x1="32.1" y1="-1.9" x2="32.1" y2="28.1"/>
</g>
<g>
	<path class="st3" d="M26.7,76.7c1.8-2.1,3-4,4-6.6c0.8-2,1.3-4.4,1.3-5.7c0-0.7-0.2-1-0.7-1.4c-1.8,0.2-4.9,1.1-6.2,1.8
		c-0.5,0.2-0.6,0.3-0.9,0.3c-0.6,0-1.4-0.6-2.2-1.6c-0.3-0.4-0.6-1-0.6-1.2c0-0.1,0-0.2,0.1-0.5c0.7,1,1.3,1.3,2.4,1.3
		c0.8,0,0.9,0,4.8-0.7c1.7-0.3,4.9-0.7,8.6-1c0.6-0.1,1.6-0.3,2.2-0.5c0.4-0.1,0.4-0.1,0.7-0.1c0.4,0,0.9,0.1,1.5,0.4
		c0.8,0.4,1.3,0.9,1.3,1.3c0,0.3-0.3,0.6-0.8,0.6c-0.2,0-0.3,0-0.7-0.1c-1.1-0.2-3-0.4-4.5-0.4c-1.7,0-3.2,0.1-4.6,0.3
		c1.3,0.7,1.8,1.3,1.8,1.9c0,1.1-0.8,3.5-1.8,5.5c-1.5,3.2-2.9,4.9-5.5,6.8L26.7,76.7z M26.1,55.1c1.2,1.1,2,1.5,3.3,1.5
		c1.9,0,4.4-0.6,5.9-1.4c0.3-0.2,0.6-0.2,0.8-0.2c0.7,0,1.9,0.9,1.9,1.5c0,0.3-0.3,0.5-1.5,0.8c-1.8,0.4-4.9,0.7-6.4,0.7
		c-2.1,0-3.2-0.6-4.5-2.6L26.1,55.1z"/>
	<path class="st3" d="M27,112.9c2.8-2.1,4.5-3.9,6.4-6.2c2.3-2.9,3.9-5.9,4.7-8.5c-2.7,0.2-5.2,0.6-8.1,1.3
		c-1.8,0.4-2.3,0.6-2.9,0.9c-0.4,0.2-0.6,0.3-0.8,0.3c-1,0-2.6-2-2.6-3.2c0-0.2,0-0.3,0.2-0.5c0.6,1.1,1.4,1.6,2.4,1.6
		c1.1,0,5.8-0.6,9.5-1.2c1.5-0.3,1.7-0.3,2.3-0.6c0.2-0.1,0.3-0.2,0.4-0.2c0.3,0,0.7,0.3,1.3,0.8c0.8,0.7,1.1,1.2,1.1,1.5
		c0,0.2-0.1,0.4-0.4,0.7c-0.4,0.3-0.6,0.5-1,1.5c-3,5.7-7.5,10.2-12.2,12.3L27,112.9z M26.6,91.2c1,1.1,1.8,1.5,3,1.5
		c1.9,0,5.3-0.7,6.3-1.3c0.2-0.1,0.4-0.2,0.6-0.2c0.8,0,2.2,1,2.2,1.5c0,0.3-0.3,0.5-1.1,0.6c-3.3,0.5-5.6,0.7-7.1,0.7
		c-2.1,0-2.9-0.5-4.3-2.6L26.6,91.2z"/>
	<path class="st3" d="M21.1,147.6c2.7-1.7,5.5-3.9,7.5-6.1c1.7-1.8,3.7-4.4,5.3-7c0.9-1.4,1.4-2.3,1.9-3.6c-1.3,0.1-2.8,0.4-5.9,1.2
		c-1.3,0.4-1.5,0.4-2.4,0.8c-0.1,0.1-0.3,0.1-0.5,0.1c-0.6,0-1.2-0.5-1.8-1.6c-0.4-0.6-0.6-1.2-0.6-1.7c0-0.2,0.1-0.3,0.2-0.6
		c0.8,1.5,1.4,1.9,2.6,1.9c0.9,0,3.8-0.4,5.9-0.8c1.6-0.3,2.1-0.5,2.6-0.8c0.3-0.2,0.4-0.3,0.6-0.3c0.6,0,2.2,1.4,2.2,2
		c0,0.2-0.1,0.4-0.4,0.5c-0.6,0.4-0.6,0.4-1.6,1.9c-1.3,2-1.3,2-3.5,4.9c3.9,2.1,6.2,3.5,7.3,4.7c0.8,0.8,1.1,1.6,1.1,2.8
		c0,0.9-0.3,1.5-0.8,1.5c-0.2,0-0.4-0.1-0.6-0.4c-0.1-0.1-0.1-0.1-0.7-1.1c-1.4-2.4-3.8-4.8-6.7-6.9c-2.3,2.7-4.1,4.5-6.8,6.3
		c-1.8,1.2-3,1.9-4.9,2.7L21.1,147.6z"/>
	<path class="st3" d="M19.8,176.3c1.8-2.6,3.2-5.1,4.7-8.6c1.1-2.5,1.5-4,1.9-6.1c1.1,0.3,2.6,0.7,3.1,0.9c0.2,0.1,0.3,0.2,0.3,0.3
		c0,0.3-0.3,0.4-1.4,0.6c-1,2.8-2,4.6-3.8,7.4c2,0.3,2.4,0.4,2.4,0.6c0,0.2-0.1,0.3-0.9,0.6v7.6c0,3.7,0,3.7,0.1,6.9
		c0,0.4-0.3,0.5-1.1,0.6c-0.3,0-0.4,0-0.5,0s-0.1,0-0.1,0c-0.3,0-0.5-0.1-0.5-0.4c0,0,0,0,0-0.1c0.1-3.2,0.1-4.9,0.1-6.9v-8.3
		c-1.8,2.7-2.5,3.6-3.9,5L19.8,176.3z M29.2,170.1c-0.5,0-1,0-2.2,0.1l-0.2-1c1.2,0.1,1.8,0.2,2.4,0.2h9.2v-4.7c0-1.4,0-1.8-0.2-3
		c2.5,0.3,3.3,0.5,3.3,0.8c0,0.2-0.4,0.4-1.2,0.7v6.2h0.8c0.7-1,0.9-1.2,1.6-2.1c1.1,0.9,1.5,1.2,2.5,2.2c0.1,0.1,0.1,0.2,0.1,0.3
		c0,0.1-0.2,0.3-0.3,0.3h-4.7v8.1c0,1.8,0,4.6,0.1,6.2c-0.1,0.8-0.2,1.2-0.8,1.6c-0.5,0.4-1,0.5-3,0.9c-0.3-1.4-0.5-1.5-5-2.3l0-0.4
		c0.8,0.1,1.6,0.1,2,0.1c2.4,0.1,2.5,0.1,4,0.2c0.5,0,0.6-0.2,0.6-0.6v-13.8H29.2z M29.6,172.8c1.5,0.9,2.7,1.8,4,3.1
		c1,1,1.3,1.4,1.3,2c0,0.7-0.7,1.9-1.1,1.9c-0.3,0-0.5-0.2-0.7-0.8c-1-2.5-2.1-4.3-3.7-5.9L29.6,172.8z"/>
	<path class="st3" d="M27.2,206h1.3c0.6-0.8,0.8-1,1.4-1.8c1,0.8,1.2,1.1,2.2,2c0.1,0.1,0.2,0.2,0.2,0.3c0,0.1-0.1,0.2-0.3,0.2h-4.8
		v2.6c1.3,0.6,2.1,1.1,3,1.7c1.2,0.9,1.5,1.3,1.5,2.1c0,1-0.3,1.8-0.7,1.8c-0.2,0-0.3-0.1-0.5-0.5c-1-2.1-1.9-3.3-3.4-4.5v4.3
		c0,6.7,0,6.7,0,8.6c0,0.2-0.1,0.3-0.2,0.3c-0.1,0-1.1,0.1-1.5,0.1c-0.2,0-0.3-0.1-0.3-0.3c0-1.4,0.1-1.7,0.1-3.1
		c0.1-3.7,0.1-4.2,0.1-5.7l0.2-4.9c-1.7,3.7-2.9,5.3-5.8,8.5l-0.3-0.2c1.8-2.6,2.6-3.9,3.6-5.9c0.8-1.7,0.8-1.7,2.1-5.1h-3.4
		c-0.5,0-1.1,0.1-1.7,0.2l-0.2-1.1c0.8,0.2,1.2,0.3,2.2,0.3h3.3v-4.3c-2,0.4-2.8,0.6-4.8,0.8l-0.2-0.4c2.7-0.7,4.1-1.2,6.2-2.1
		c1.9-0.8,2.6-1.1,3.5-1.8c2.4,1.7,2.4,1.7,2.4,1.8c0,0.2-0.2,0.3-0.5,0.3c-0.1,0-0.5-0.1-1-0.1c-1.6,0.6-2.2,0.7-3.8,1.1V206z
		 M34.9,221.8c0,0.1,0,0.1,0,0.1c0,0.3-0.3,0.4-0.9,0.4c-0.3,0-0.4,0-0.5,0c0,0-0.1,0-0.1,0c-0.3,0-0.4-0.1-0.4-0.4
		c0.1-2.8,0.1-3.9,0.1-7.3c0-9.3,0-11.8-0.1-13.6c1,0.6,1.2,0.8,2.2,1.4h6.4c0.5-0.6,0.7-0.7,1.2-1.3c0.7,0.5,0.9,0.7,1.6,1.3
		c0.2,0.2,0.3,0.3,0.3,0.4c0,0.2-0.3,0.4-0.9,0.8v5.8c0,6.4,0,8.3,0.2,12.2c0,0.4-0.3,0.5-1.2,0.5c-0.3,0-0.4,0-0.6,0h0
		c-0.2,0-0.3-0.1-0.3-0.3c0,0,0,0,0-0.1V220h-6.8V221.8z M34.9,219.4h6.8v-16.2h-6.8V219.4z"/>
	<path class="st3" d="M38.6,252.9c0.6-0.8,0.9-1,1.6-1.9c1.1,0.9,1.5,1.2,2.5,2.1c0.1,0.1,0.1,0.2,0.1,0.3c0,0.1-0.1,0.2-0.3,0.2
		h-9.4v4.8h7.5c0.7-0.8,1-1.1,1.8-1.9c1.2,0.9,1.5,1.1,2.7,2.1c0.1,0.1,0.2,0.2,0.2,0.3s-0.1,0.2-0.2,0.2H22.4
		c-0.5,0-1.9,0.1-2.4,0.2l-0.3-1.1c2.1,0.3,2.2,0.3,2.7,0.3h8.8v-4.8h-6.5c-0.6,0-1.1,0-2.3,0.1l-0.3-1.1c0.8,0.2,2.1,0.3,2.7,0.3
		h6.5v-1.1c0-0.8,0-1.5-0.1-2.8c3.1,0.4,3.3,0.5,3.3,0.8c0,0.2-0.2,0.3-1.2,0.6v2.5H38.6z M31.3,237.6v-1.3c0-1.1,0-1.3-0.1-2
		c2.7,0.3,3.3,0.4,3.3,0.7c0,0.1-0.1,0.2-0.2,0.3c-0.1,0.1-0.5,0.2-1.1,0.3v2H41c0.6-0.7,0.6-0.7,1.3-1.5c1.1,0.8,1.5,1,2.5,1.8
		c0.1,0.1,0.2,0.2,0.2,0.3c0,0.1-0.1,0.1-0.1,0.2c-0.1,0.1-0.4,0.1-0.7,0.2c-0.4,0.1-0.7,0.1-0.9,0.1c-0.2,0.2-0.4,0.4-0.5,0.5
		c-0.9,0.8-1,1-1.8,1.5l-0.3-0.2c0.3-1.1,0.4-1.5,0.6-2.4h-18c-0.2,1.3-0.4,2.2-0.9,3c-0.4,0.7-1.1,1.3-1.5,1.3s-1-1-1-1.7
		c0-0.3,0.1-0.4,0.4-0.6c1.1-0.8,1.4-1.1,1.8-1.8c0.5-0.9,0.8-1.7,0.9-2.7h0.5c0,0.3,0,0.5,0,0.6c0,0.4,0,0.7-0.1,1.2H31.3z
		 M25.6,242.4c-0.8,0-1.2,0-2.2,0.2l-0.3-1.1c0.5,0.1,0.5,0.1,2.5,0.3H38c0.6-0.8,0.8-1,1.4-1.7c1,0.8,1.3,1.1,2.4,2
		c0.1,0.1,0.1,0.1,0.1,0.2c0,0.1-0.1,0.1-0.2,0.1H31.5c-2.5,3.3-2.5,3.3-3.9,4.8c3.1-0.1,5-0.2,10.5-0.7c-1.1-1.1-1.7-1.8-3-2.9
		l0.2-0.3c1.3,0.5,1.8,0.8,3.7,2c1.3,0.8,2.3,1.6,2.7,2.1c0.3,0.3,0.4,0.7,0.4,1.1c0,1-0.3,1.7-0.7,1.7c-0.2,0-0.2,0-1.5-1.8
		c-0.7-1-0.8-1.1-1.1-1.5c-3.2,0.5-5.5,0.9-6.2,1c-2.8,0.4-6.9,0.9-9,1c-0.1,0.9-0.2,1.2-0.5,1.2c-0.4,0-0.6-0.8-1.1-3.1
		c0.6,0.1,1,0.1,1.5,0.1c0.2,0,0.4,0,0.8,0c0.3,0,0.3,0,2.5-0.1c1.3-2.2,1.5-2.6,2.4-4.8H25.6z"/>
</g>
</svg>
