<svg version="1.1" id="レイヤー_1" xmlns="http://www.w3.org/2000/svg" x="0" y="0" viewBox="0 0 114 419" xml:space="preserve"><style type="text/css">.st0{fill:#200701}</style><g><g><path class="st0" d="M81 127.9c1.5.6 2.6 1.1 3.2 1.5.7.4 1 .8 1 1.4 0 .8-.4 1.7-.8 1.7-.2 0-.3-.1-.5-.5-.8-1.4-1.7-2.5-3.1-3.8l.2-.3zm.1 10.2c.7.2 1.1.3 1.4.3.4 0 .6-.2 1.2-1.5.8-1.6 1.4-3.1 2.6-5.9 1.2-2.9 1.2-2.9 1.8-4.1l.4.2-3.7 11.4c-.3 1-.4 1-.4 1.5 0 .4.1.6.3 1.8.3 1.2.4 1.6.4 2.2 0 1.1-1 2.3-2 2.3-.4 0-.6-.3-.6-.8 0-.1.1-.7.1-1.1.3-1.8.3-2.1.3-2.9 0-1.9-.2-2.2-2-2.9l.2-.5zm1.6-16.2c1.5.6 2.4 1 3.2 1.5 1 .6 1.2.9 1.2 1.6 0 .8-.4 1.5-.8 1.5-.2 0-.3-.1-.5-.4-.6-1.1-1.1-1.7-3.4-3.9l.3-.3zm16.7 18c0 .9 0 .9.1 4.3 0 .7-.2 1-.6 1.3-.5.4-1.1.6-2.4.8-.1-.9-.3-1.2-.8-1.4-.4-.1-.6-.2-2.7-.5v-.5c2.3.1 2.5.1 4.1.2.4 0 .4-.1.4-.5v-8h-3.2v.9c0 .3-.3.4-1.5.4-.3 0-.4-.1-.4-.4.1-2.3.1-2.9.1-5.2 0-2.4 0-3.7-.1-5 1 .5 1.2.6 2.1 1.2h1.8c.1-.5.1-.5.2-.8.4-1.5.4-1.7.6-2.7h-6.3v3c0 5.7-.4 9.5-1.3 12.6-.5 1.6-1.1 3.2-1.9 4.5-.4.7-.8 1.1-1.6 2.1l-.3-.3c1.3-2.4 1.9-4.1 2.5-7.1.6-3.2.8-6.2.8-12.9 0-1.8 0-2.4-.1-3.9 1 .5 1.2.7 2.1 1.3h10.9c.8-.8 1-1.1 1.7-1.8 1.2.9 1.5 1.2 2.6 2.1.1.1.1.2.1.2 0 .1-.1.1-.3.1h-6.8c-1.4 2.3-1.5 2.5-2.3 3.5h4.9c.4-.5.6-.7 1-1.2l1.5 1c.2.2.3.3.3.4 0 .2-.2.4-.7.7v2.4c0 1.7 0 1.9.1 5.8 0 .4-.3.4-1.5.4-.3 0-.3-.1-.3-.4v-1h-2.9v4.4zm-10.1 5.6c2-2.5 3.4-5.1 4-7.8 2.5.8 2.7.9 2.7 1.1 0 .3-.4.4-1.1.4-1.9 3.1-2.7 4.1-5.3 6.6l-.3-.3zm13.1-14.3v-3h-7.9v3h7.9zm-7.9.6v3.2h7.9v-3.2h-7.9zm6.5 6c1.6 1.1 2.8 2.1 3.9 3.3.6.6.9 1.2.9 1.8 0 1-.5 2.2-.9 2.2-.2 0-.4-.2-.5-.6-1-2.4-1.9-4.1-3.6-6.4l.2-.3zm-18.9 34.7c.9.2 1.2.2 2.7.2h4.4c.5-.5.6-.7 1.1-1.2.7.6.9.8 1.6 1.3.2.2.3.3.3.4 0 .2-.2.3-1 .5-1.5 2.4-2.9 4-5.2 5.7-1.7 1.3-3.1 2-5.3 2.8l-.2-.3c2.3-1.3 3.7-2.4 5.3-4 1.6-1.6 2.5-2.8 3.3-4.6h-4.5c-1.2 0-1.7 0-2.4.1l-.1-.9zm12.9-3.2c.2 1.2.4 1.7.9 2.7.5.9 1 1.6 1.7 2.4 2-1.4 4.2-3.4 5.2-4.6 2.2 1.3 2.5 1.5 2.5 1.7 0 .2-.2.3-.5.3-.1 0-.5 0-1-.1-1.5 1-3.9 2.2-5.9 3 .9 1 1.8 1.7 3 2.4 2 1.2 3.6 1.8 6.2 2.3v.4c-.7.2-.9.3-1.4.7-.4.4-.6.6-.8 1.2-1.6-.6-2.3-1-3.8-2.1-2.3-1.7-3.5-3.1-4.9-5.5-.8-1.4-1.1-2.1-1.6-3.6.1 1.8.2 4.1.2 5.3v5.2c0 1.3-.5 1.7-3.2 2.4-.3-1.4-.9-1.8-3.7-2v-.4c2.2.1 2.8.1 4.6.1.3 0 .4-.1.4-.3v-11.4h-5.7v.9c0 .4-.2.4-1.5.4-.3 0-.4-.1-.4-.3.1-2.2.1-4.4.1-7.3 0-1.7 0-2.5-.1-3.9 1 .5 1.3.7 2.3 1.3H92c.4-1 .7-2.3.7-3.4 2.5.6 2.5.6 2.8.7.2.1.3.2.3.3 0 .3-.3.4-1.4.5-.6.8-.9 1-1.8 1.8h7.1l1.1-1.3c.8.6 1 .7 1.7 1.3.2.2.3.3.3.4 0 .3-.2.4-1.1.7v2.9c0 2.2 0 2.8.1 4.8 0 .3-.1.4-.3.5-.2.1-.8.1-1.2.1-.3 0-.4-.1-.4-.3v-.5H95zm5.1-4.7v-3.4H87.3v3.4h12.8zm-12.8.7v3.4H100v-3.4H87.3zm-.4 35c.4-.6.6-.8 1.1-1.3.8.7 1 .9 1.7 1.6.1.1.1.2.1.2 0 .1-.1.1-.3.1H86v6.1c1.1-.3 1.3-.4 3.2-1.1l.1.4c-.7.4-.7.4-1.8 1l-1.6.8v9.5c0 .6-.1.9-.6 1.2-.5.3-.9.4-1.7.6-.1-.9-.3-1.1-1-1.4-.6-.3-1.3-.4-2.3-.6v-.3c1.4.1 1.7.1 3.4.2.3 0 .4-.1.4-.3v-8c-.3.1-.9.4-1.8.9-.1.8-.2 1.1-.4 1.1-.3 0-.4-.3-1.1-2.5 1.1-.2 2.3-.5 3.4-.8V201h-1c-.8 0-1.1 0-1.8.2l-.2-1.1c.6.2 1.2.3 2 .3h1v-2.6c0-1.1-.1-2.6-.1-3.6 1.2.1 2.5.3 2.8.4.2.1.3.1.3.3 0 .2-.2.4-1.3.7v4.8h1zm4.5-.8c-.7 0-1.5.1-2.2.2l-.2-1c.8.2 1.5.2 2.2.2h1.4v-2.2c0-.7 0-1.3-.1-2.4 2.4.3 3 .5 3 .8 0 .3-.1.3-1.2.7v3.1h1.8c.6-.7.8-1 1.4-1.7.8.8 1.1 1.1 1.8 2 0 .1.1.1.1.2s-.1.2-.3.2h-4.8v4.7h2.2c.6-.8.8-1 1.5-1.8.9.8 1.1 1.1 2 1.9.1.1.1.2.1.3s-.1.2-.3.2h-9.1c-1 0-1.8.1-2.6.2l-.2-1.1c1 .2 1.5.3 2.8.3h2v-4.7h-1.3zm4.6 10.2c.6-.8.8-1 1.4-1.7.9.8 1.1 1.1 1.9 2 .1.1.1.2.1.2 0 .1-.1.2-.3.2h-4.8v4.5c2-.4 3-.6 4.8-1.2l.1.4c-2 1-2.6 1.2-9.9 3.7-.1.8-.2 1.2-.4 1.2s-.4-.5-1.1-3c.8 0 .8 0 4.8-.8v-4.8h-2.2c-.5 0-1.5.1-2.2.2l-.2-1.1c.8.2 1.4.3 2.4.3h2.2V208c0-.8 0-1.3-.1-2.3 2.5.3 2.9.3 2.9.6 0 .2-.2.3-1.1.7v2.8H96zm6.5-6c3 1.7 4.6 3 4.6 3.9 0 .3-.2 1.1-.4 1.4-.1.3-.3.4-.4.4-.1 0-.3-.1-.5-.5-1.1-1.9-2.2-3.6-3.3-4.7.1 12.5.1 12.5.1 14.6 0 .3-.1.3-.3.4-.2.1-1.1.2-1.4.2-.2 0-.2-.1-.3-.3 0-1.6.1-12.2.1-17 0-3.8 0-6.5-.1-8 2.9.4 3.1.5 3.1.8 0 .3-.2.4-1.2.6v8.2zm-13.4 38.9c-1.2 5-1.7 7.5-1.7 8.5v.7c0 .9-.2 1.3-.7 1.3-.4 0-.8-.4-1.2-1-.9-1.7-1.3-4.2-1.3-7.3 0-2.1.1-3.4.6-6.4.4-2 .4-2.8.4-3.5 0-.9-.3-1.7-1-2.7.6 0 1.2.4 1.8 1.1.8.9 1.2 1.7 1.2 2.2 0 .4 0 .5-.4 1.5-1 2.7-1.5 5.3-1.5 7.8 0 2.1.2 3.4.7 4.4.3-.8 2-5.4 2.5-6.9l.6.3zm2.3-4.7c1.3.9 1.9 1.1 3.2 1.1 1.1 0 2.8-.2 4-.6v-1c0-2.3-.1-3.4-.3-3.9-.3-.6-1.1-1-2.4-1.3.4-.4.6-.4 1.5-.4 2 0 3.4.6 3.4 1.4 0 .1-.1.4-.1.7-.3 1-.3 1.4-.4 4 1.5-.5 1.8-.6 2.5-1.2.2-.1.3-.2.6-.2.9 0 1.7.4 1.7.8 0 .3-.2.5-1 .9-.9.4-1.8.7-3.8 1.2v4.1c0 4.4-.8 6.7-2.9 8.9-1.2 1.3-2.5 2.2-4.3 3.1l-.2-.4c2-1.6 3-2.7 3.9-4.3 1.3-2.3 1.8-4.8 1.8-9.6v-1.4c-1.3.3-2.2.4-3.2.4-1.9 0-3.1-.6-4.4-2l.4-.3zm-10.9 35.8c1.6.6 2.2.9 3.2 1.5 1.2.7 1.4.9 1.4 1.5 0 .8-.4 1.8-.8 1.8-.2 0-.3-.2-.6-.7-.3-.4-.9-1.3-1.4-1.9-.6-.7-1-1.1-2-1.8l.2-.4zm.2 10.3c.3.1.4.1.6.1.8.2 1.1.3 1.4.3.4 0 .5-.2 1-1.4.5-1.1 1.6-3.6 2.5-5.7 1.3-3.1 1.3-3.1 2-4.5l.3.2-3.9 11.8c-.3.9-.3 1-.3 1.3 0 .5.1 1 .4 2 .2.6.3 1.3.3 1.9 0 .8-.1 1.3-.5 1.7-.4.4-1.1.8-1.5.8-.3 0-.6-.3-.6-.7 0-.1.1-.5.1-1 .4-1.8.6-2.8.6-3.7 0-.7-.1-1.1-.5-1.5-.4-.4-.9-.7-1.7-1l-.2-.6zm1.4-16.5c1.5.6 2.7 1.2 3.7 1.8.9.6 1.1.9 1.1 1.6 0 .8-.4 1.7-.8 1.7-.2 0-.4-.2-.7-.7-.3-.6-.6-1-1.2-1.7-.9-1.1-1.3-1.5-2.4-2.4l.3-.3zm3.2 24.7c1.4-1.1 2-1.6 2.6-2.3 1.8-2 2.5-4.7 2.5-9.1 0-.7 0-1.2-.1-2.1 2.7.3 2.9.4 2.9.6 0 .2 0 .2-1 .6-.1 3.1-.2 3.7-.4 5-.3 2.1-1.5 4.1-3.3 5.7-1 .8-1.7 1.3-3.1 2l-.1-.4zm10.5-20.9c-1.1 2.1-1.7 3-3 4.8 4.2-.2 4.7-.2 8.1-.5-1.3-1.5-1.7-1.8-2.9-2.8l.2-.3c1.8 1 3.8 2.2 5 3 .7.5.9.9.9 1.6 0 .8-.4 1.8-.9 1.8-.2 0-.3-.2-.6-.6-.6-1-.9-1.6-1.4-2.1-3.6.6-3.6.6-12 1.8 0 .1-.1.2-.1.3-.1.4-.2.6-.3.6-.3 0-.3-.1-.8-2.7 1.7.1 1.7.1 2 .1.3 0 .3 0 1.9-.1.6-1.7.6-1.7 1.4-4.8H90c-1 0-1.3 0-2.1.2l-.3-1.1c.8.2 1.4.3 2.4.3h4.7v-1.3c0-.9 0-1.4-.1-2.5.6.1 1.2.1 1.5.2 1.4.1 1.8.3 1.8.5s-.1.3-1.2.6v2.4h5.2c.7-.9.9-1.2 1.7-2 1.2 1 1.5 1.2 2.7 2.2.1.1.2.2.2.3 0 .1-.1.2-.3.2H95.8zm.7 11.5c0 3 0 3.8.1 8.5 0 .2-.1.3-.2.4-.1.1-1 .1-1.3.1-.3 0-.4-.1-.4-.3.1-3.9.1-5.9.1-9.9 0-1.1 0-1.8-.1-2.9 2.6.3 2.9.4 2.9.6 0 .2-.2.3-1 .6v2.9zm2.9-1.4c0-1.5 0-1.7-.1-2.7 2.4.2 3 .3 3 .6 0 .2-.3.4-1.1.6v9.5c0 .4.1.5.4.5h.8c1 0 1.5-.1 1.6-.3.2-.3.4-1 1.5-5.6h.4l-.4 5v.4c0 .3 0 .3.6.6.3.1.4.3.4.6 0 .4-.4.8-1.1.9-.6.1-2 .1-3.2.1-2.5 0-2.9-.2-2.9-1.7v-8.5zm3.7 40.3c-2.7 3.6-6.4 5.8-9.8 5.8-2.1 0-3.8-.9-4.6-2.4-.6-1-.8-2.4-.8-4.7 0-1.5.1-4.2.2-6.7.2-3 .2-3.8.2-4.8 0-2.4-.3-2.9-2.3-3.7.3-.2.5-.3.8-.3.6 0 1.7.3 2.5.6 1.1.5 1.6 1.1 1.6 1.7 0 .2 0 .4-.3 1-.5 1.7-1.5 10.2-1.5 13.4 0 1.7.3 2.7 1.1 3.4.6.5 1.5.8 2.5.8 1.9 0 4.3-.7 6.4-1.8 1.3-.7 2.1-1.3 3.6-2.5l.4.2zm-73.7-43.3c3-.9 5-2 6.6-3.9 1.7-1.9 2.5-4.2 2.5-6.7 0-2.7-1.1-4.9-3.2-6.2-1.2-.8-3.1-1.3-4.8-1.3-.3 0-.5 0-1 .1.7 1 .9 1.5.9 2.3 0 2.2-1.6 6.3-3.7 9.7-1.8 2.8-3.1 4.2-4.2 4.2-.5 0-.9-.2-1.2-.6-.3-.3-.3-.4-.8-1.8-.3-.7-.4-1.1-1.2-2.6-.4-.9-.6-1.7-.6-2.5 0-1.8 1-3.8 2.5-5.5 2.3-2.4 6-3.9 9.6-3.9 2.8 0 5.4.9 7.2 2.6 1.8 1.7 2.7 3.9 2.7 6.6 0 3.5-2 6.6-5.6 8.5-1.6.9-3.1 1.3-5.5 1.7l-.2-.7zm-9.2-8.8c0 1.3.4 2.7 1.1 3.7.4.5.8.8 1.1.8.6 0 2-1.5 3.3-3.7 2.1-3.3 3.6-6.9 3.6-8.7 0-.4-.1-.7-.4-1.4-4.9 1-8.7 5-8.7 9.3zm4.3 29.1H26c.4-.5.5-.6.9-1.1.6.5.6.5 1.4 1.1.2.2.2.3.2.3 0 .1 0 .1-.8.7v9.8c0 2.6 0 3.6.1 5.9 0 .2-.1.3-.2.4-.2.1-.7.1-1 .1-.3 0-.4-.1-.4-.4v-.5h-6.8v1.9c0 .3-.3.4-.9.4h-.4c-.3 0-.5-.1-.5-.4.2-5.9.2-5.9.2-6.6v-4.6c0-6.8 0-6.8-.1-8.5.9.5 1.1.7 1.9 1.3h1.2v-4.4H19c-.8 0-1.2 0-2.1.2l-.2-1c.9.1 1.7.2 2.4.2h6.8l1.5-1.8c1 .8 1.4 1.1 2.4 2.1.1.1.1.1.1.2s-.1.2-.3.2h-5.1v4.5zm1.7 8.4c-.4.1-.8.2-1.4.2-1.3 0-1.5-.2-1.5-1.1v-6.8H22c0 2.2-.1 3.2-.2 4.3-.2 1.8-.7 3.1-1.9 4.9l-.3-.2c1-2.2 1.1-3.4 1.1-9h-1.3v10.9h6.8v-3.2zm0 3.8h-6.8v3.6h6.8v-3.6zM22 294.3v4.4h1.3v-4.4H22zm4.2 5.1h-1.7v6.3c0 .3.1.3.3.3.1 0 .1 0 .3-.1l.3-3.1h.3l.2 3.1c.2 0 .2 0 .4.1v-6.6zm11.9 7.4c.5-.5.6-.7 1.1-1.1.8.6 1 .8 1.8 1.4.2.2.3.3.3.4 0 .2-.3.3-1.1.5-1.4 2.3-2.2 3.2-3.4 4.5 2.1 1.3 3.8 2 6.5 2.4v.3c-1 .3-1.3.6-1.7 1.8-2.4-.9-4-1.8-5.8-3.5-2.4 1.9-4.5 3-8.3 4l-.2-.4c3.3-1.3 5.3-2.6 7.6-4.7-1.2-1.4-1.7-2.2-2.4-3.9-1.2 1.6-2.1 2.4-4.1 3.8l-.2-.3c1.7-1.5 2.7-3 3.9-5.2.7-1.4 1-2 1.2-3.1 2.4.8 2.5.8 2.5 1.1 0 .3-.4.4-1.2.4-.5.8-.6 1.1-1 1.6h4.5zm-10-.9c1.5-1 2.5-2.2 3.2-3.6.5-1 .8-1.9.9-3.1 2.4.4 2.7.5 2.7.8 0 .3-.4.4-1.2.5-.6 1.7-1.1 2.5-2.1 3.5s-1.8 1.6-3.4 2.3l-.1-.4zm8.2-8c-3.2.6-4.1.8-5.9 1.1-.2 1-.3 1.2-.5 1.2-.3 0-.5-.7-.9-2.9h1c.2 0 .3 0 1.6-.1.5-.9.8-1.6 1.1-2.5.8-2.4.8-2.4.9-3 2.2.5 3 .8 3 1.1l-.2.2c-.2.1-.4.2-1 .2-.4.6-.4.6-1.5 2-.5.7-.9 1.2-1.6 1.9 3.2-.1 4.7-.3 6.8-.5-.6-.8-1-1.4-2.1-2.5l.3-.4c1.3.8 2.2 1.4 3.1 2.1.9.7 1.1 1 1.1 1.5 0 .9-.4 1.8-.9 1.8-.1 0-.3-.1-.4-.4-.2-.5-.5-1.2-.7-1.5l-3.2.7zm-3.6 10c.4 1.1.7 1.5 1.4 2.3.4.5.8.8 1.4 1.3 1.1-1.3 1.8-2.2 2.8-4.1H33l-.3.5zm3.5-8v-1.5c1.9.2 2.5.3 2.5.6 0 .2-.1.3-.9.6v2.7c0 .5.1.5 1.1.5s1.5-.1 1.7-.4c.2-.3.5-1.4 1-3.1h.3v2.7c0 .3.1.5.5.6.3.1.5.3.5.6 0 .8-1 1-4 1-2.2 0-2.6-.2-2.6-1.3v-3zm-16.7 33.5v.7c0 2.7-.3 4.6-.9 5.8-.4.8-.8 1.2-1.1 1.2-.2 0-.4-.2-.6-.6-.2-.4-.3-1-.3-1.2 0-.3.1-.4.6-.9 1.1-1 1.7-2.5 2-5h.3zm1.1-2.6c0-1.2 0-1.5-.1-2.5 2.6.3 3.2.4 3.2.8 0 .2-.2.4-1.2.7l-.1 15.5c0 .3 0 3 .1 8.2 0 .1 0 .2-.1.3-.1.1-1 .2-1.5.2-.3 0-.3-.1-.4-.3.1-4.2.1-6 .1-9.9v-13zm2.9 2.4c1.3 1.5 2 2.5 2 3.2 0 .8-.6 2-1.1 2-.2 0-.3-.2-.4-.6-.1-1.7-.3-3-.8-4.5l.3-.1zm8.7 2.7v-3.1c0-2.6 0-3.1-.2-4.4 3 .4 3.4.5 3.4.8 0 .3-.1.3-1.3.7v6h3.6c.7-.9.9-1.1 1.6-2 1.1.9 1.5 1.2 2.6 2.2 0 .1.1.1.1.2s-.1.2-.2.2h-7.6v6.6h3.2c.7-.9.9-1.1 1.7-1.9 1.1.9 1.4 1.1 2.3 2.1.1.1.1.2.1.3s-.1.2-.3.2h-7v7.8h4.1c.7-.9 1-1.2 1.7-2.1 1.2 1 1.5 1.3 2.6 2.3.1.1.1.2.1.3 0 .1-.1.2-.2.2H27c-1.1 0-1.8.1-2.8.2l-.2-1.1c1 .2 1.8.3 2.9.3h5.2v-7.8h-3.3c-.9 0-1.8.1-2.5.1l-.2-1c.8.2 1.3.3 2.7.3h3.3v-6.6H28c-1.4 2.9-2.2 4.2-3.8 6.1l-.3-.3c1.2-1.9 2.1-4 2.9-6.7.6-2.1 1-3.8 1-5.2 2.6.7 3.1.9 3.1 1.1 0 .2-.3.4-1.2.6-.4 1.5-.7 2.1-1.4 3.8h3.9zm-14.1 43.6c.9.2 1.2.2 2.7.2h4.4c.5-.5.6-.7 1.1-1.2.7.6.9.8 1.6 1.3.2.2.3.3.3.4 0 .2-.2.3-1 .5-1.5 2.4-2.9 4-5.2 5.7-1.7 1.3-3.1 2-5.3 2.8l-.2-.3c2.3-1.3 3.7-2.4 5.3-4 1.6-1.6 2.5-2.8 3.3-4.6h-4.5c-1.2 0-1.7 0-2.4.1l-.1-.9zm12.9-3.2c.2 1.2.4 1.7.9 2.7.5.9 1 1.6 1.7 2.4 2-1.4 4.2-3.4 5.2-4.6 2.2 1.3 2.5 1.5 2.5 1.7 0 .2-.2.3-.5.3-.1 0-.5 0-1-.1-1.5 1-3.9 2.2-5.9 3 .9 1 1.8 1.7 3 2.4 2 1.2 3.6 1.8 6.2 2.3v.4c-.7.2-.9.3-1.4.7-.4.4-.6.6-.8 1.2-1.6-.6-2.3-1-3.8-2.1-2.3-1.7-3.5-3.1-4.9-5.5-.8-1.4-1.1-2.1-1.6-3.6.1 1.8.2 4.1.2 5.3v5.2c0 1.3-.5 1.7-3.2 2.4-.3-1.4-.9-1.8-3.7-2v-.4c2.2.1 2.8.1 4.6.1.3 0 .4-.1.4-.3v-11.4h-5.7v.9c0 .4-.2.4-1.5.4-.3 0-.4-.1-.4-.3.1-2.2.1-4.4.1-7.3 0-1.7 0-2.5-.1-3.9 1 .5 1.3.7 2.3 1.3H28c.4-1 .7-2.3.7-3.4 2.5.6 2.5.6 2.8.7.2.1.3.2.3.3 0 .3-.3.4-1.4.5-.6.8-.9 1-1.8 1.8h7.1l1.1-1.3c.8.6 1 .7 1.7 1.3.2.2.3.3.3.4 0 .3-.2.4-1.1.7v2.9c0 2.2 0 2.8.1 4.8 0 .3-.1.4-.3.5-.2.1-.8.1-1.2.1-.3 0-.4-.1-.4-.3v-.5H31zm5.1-4.7v-3.4H23.3v3.4h12.8zm-12.8.7v3.4H36v-3.4H23.3z"/></g><g><path class="st0" d="M8 207c1.3-.1 1.7-.1 2.1-.3.7-.3 1-.9 1.3-3.1l1.8-12.5c.3-2.6.3-2.6.1-2.8-.2-.2-.6-.3-1.4-.3h-1.2l.1-.9c2.4-.1 4.4-.4 6-.8-.5 2.3-.9 4.9-1.4 8.4l-1.2 8.8c-.3 2-.2 2.6.1 2.9.3.3.4.3 2.2.4l-.1.9H7.9l.1-.7zm14.3-17.4c1.4-2.1 3.8-3.3 6.5-3.3 2.6 0 4.7 1.2 5.5 3.3.9 2 1.1 4.8.7 7.7-.4 2.9-1.4 5.6-2.8 7.7-1.4 2.1-3.8 3.3-6.4 3.3-2.6 0-4.7-1.2-5.6-3.3-.9-2.1-1.1-4.8-.7-7.7.4-3 1.3-5.6 2.8-7.7zm3.5 17.9c3.3 0 5.2-3.1 6.2-10.2s0-10.2-3.3-10.2-5.2 3.1-6.2 10.2c-1.1 7.1 0 10.2 3.3 10.2zM39 189.6c1.4-2.1 3.8-3.3 6.5-3.3 2.6 0 4.7 1.2 5.5 3.3.9 2 1.1 4.8.7 7.7-.4 2.9-1.4 5.6-2.8 7.7-1.4 2.1-3.8 3.3-6.4 3.3-2.6 0-4.7-1.2-5.6-3.3-.9-2.1-1.1-4.8-.7-7.7.3-3 1.3-5.6 2.8-7.7zm3.5 17.9c3.3 0 5.2-3.1 6.2-10.2s0-10.2-3.3-10.2-5.2 3.1-6.2 10.2c-1.1 7.1-.1 10.2 3.3 10.2z"/></g><g><path class="st0" d="M23.6 222.6c3 0 4.9 2.3 4.9 6 0 3.6-2 6.1-5 6.1-1.6 0-3-.7-3.7-1.9-.7-1.1-1.1-2.6-1.1-4.1.1-3.7 2.1-6.1 4.9-6.1zm14.7.6L22 245.1l-.8-.7 16.3-21.9.8.7zm-14.6 10.7c1.7 0 2.5-1.6 2.5-5.3 0-3.7-.7-5.3-2.5-5.3-.8 0-1.4.4-1.8 1-.5.9-.7 2.3-.7 4.3 0 3.6.8 5.3 2.5 5.3zm12.1-.9c3 0 4.9 2.3 4.9 6 0 3.6-2 6-5 6s-4.9-2.4-4.9-6c.2-3.6 2.2-6 5-6zm.1 11.3c1.7 0 2.5-1.6 2.5-5.3 0-3.8-.7-5.3-2.5-5.3-1.7 0-2.5 1.6-2.5 5.3 0 3.6.8 5.3 2.5 5.3z"/></g></g><line x1="93.7" y1="28.6" x2="93.7" y2="88.6" fill="none" stroke="#76544b" stroke-miterlimit="10"/></svg>