<svg version="1.1" id="レイヤー_1" xmlns="http://www.w3.org/2000/svg" x="0" y="0" viewBox="0 0 92.8 358.7" xml:space="preserve"><style type="text/css">.st0{fill:#210100}.st2{fill:#fff}</style><g><rect x="37.8" class="st0" width="55" height="240"/><rect y="91.7" class="st0" width="55" height="267"/><line x1="65.4" y1="0" x2="65.4" y2="30" fill="none" stroke="#76544b" stroke-miterlimit="10"/><g><g><path class="st2" d="M66.1 51.5c-.6 0-.6.4-.6.7 0 .7-.1 3.7-.1 4.3 0 .6.3.6.5.6H69c.9 0 1.2 0 1.4-.4.6-1 .7-1.1.9-1.1.3 0 2.1 1.5 2.1 1.7 0 .3-.4.3-1.2.3h-5.5c-.2 0-.4 0-.4.3 0 .2.7 2.3 1.9 4 2.4 3.5 4.6 4.4 6.4 5.1.4.2.5.2.5.3 0 .1-.1.1-.8.2-.2 0-1.1.2-1.6.8-.4.4-.5.5-.6.5-.3 0-2.2-1.6-3.5-3.4-2.2-3-2.5-4.9-2.9-7-.1-.4-.2-.7-.4-.7-.3 0-.4.4-.4.7-.3 1.9-.8 4.5-3.6 7.3-2.7 2.6-5.9 3.4-6.1 3.4 0 0-.1 0-.1-.1s.5-.3.6-.4c2.2-1.3 4.4-3.2 5.7-5.3 1.4-2.3 1.8-5.1 1.8-5.3 0-.4-.3-.5-.6-.5h-2.9c-1.9 0-2.6 0-2.8.1-.1 0-.4.1-.5.1-.1 0-.1-.1-.2-.2l-.4-.5c.1 0 0 0 0 0s0-.1.1-.1c.2 0 .8.1 1 .1 1.1 0 2 .1 3 .1h2.9c.2 0 .5 0 .6-.2.1-.2.1-2 .1-4.4 0-.6 0-1-.7-1h-4c-1.9 0-2.6 0-2.8.1h-.5c-.1 0-.1 0-.2-.1l-.2-.5-.1-.2h.1c.2 0 .8.1 1 .1 1.1 0 2 .1 3 .1h11.1c.9 0 1.2 0 1.4-.4.8-1.2.8-1.3 1-1.3.3 0 1.9 1.5 1.9 1.9 0 .3-.5.3-1.2.3h-7.2zm-4.3 25.9c.3 0 .6-.1.8-.3.4-.5.4-.5.6-.5.3 0 1.7.9 1.7 1.3 0 .2-.1.2-.2.3-.6.3-.7.7-1.1 1.6-1.6 3.7-3.1 5.7-5.5 7.3-.5.4-2.1 1.1-2.2 1.1-.1 0-.2-.1-.2-.2s.1-.2.9-.7c2.6-1.8 4.5-4.5 5.6-7.4.1-.3.4-1.2.4-1.5 0-.4-.2-.4-.6-.4h-2.4c-.4 0-.4.1-.9.7-.7.9-2.4 3.1-3 3.1-.1 0-.2 0-.2-.1 0 0 .6-.9.7-1.1 1.4-2 2.5-4.7 2.5-5.8 0-.2 0-.4.2-.4.1 0 1.8.6 1.8.9 0 .2-.1.3-.5.5-.2.1-.7 1.3-.7 1.4 0 .2.2.2.3.2h2zm-3.5 13.5c0 2-1.3 3.1-2.1 3.1-.4 0-.8-.3-.8-.8s.2-.6.9-1.2c.4-.3.8-.7 1.2-1.7.1-.2.3-.9.3-1 .4 0 .5 1 .5 1.6zm-1.8-9.3c.3 0 2.5.6 2.5 2.1 0 .6-.3 1-.6 1-.4 0-.5-.2-.8-1.2-.1-.2-.4-1.1-1.1-1.6 0 0-.2-.1-.2-.2.1-.1.2-.1.2-.1zm2-2c.7 0 2.4.5 2.4 1.7 0 .4-.2.7-.7.7-.5 0-.5-.2-.7-.6-.1-.4-.5-.9-.8-1.2l-.5-.5.3-.1zm2.6 9.9c.1 0 2.2 1.2 2.2 2.9 0 .7-.5 1.4-1 1.4-.7 0-.8-.8-.8-1.9 0-.5 0-1.1-.3-1.6l-.3-.7c.1-.1.2-.1.2-.1zm8.3-8.9c-.3 0-.7 0-.7.4 0 .6 1.2 3.4 5 5.5.3.2 1 .5 1 .5 0 .1-.9.4-1.1.5-.1.1-.7.6-.8.6-.3 0-1.3-.9-2-1.8-1.1-1.4-1.3-2-2.1-3.9-.1-.3-.1-.3-.2-.3s-.1.1-.1.2c-.5 1.7-1.4 3.1-2.7 4.3-1.4 1.2-3.1 1.7-3.3 1.7-.1 0-.2-.1-.2-.1 0-.1 0-.1.4-.3 1.1-.7 2.2-1.5 3.3-3.2 1-1.5 1.4-3.3 1.4-3.6 0-.4-.3-.4-.5-.4h-1.6c-.1 0-.6.1-.6.1-.1 0-.1 0-.2-.1l-.4-.5c-.1-.1-.1-.1-.1-.2h.1c.4 0 2.4.1 2.9.1.6 0 .8 0 .8-1.5 0-.3-.1-2.9-.1-3 0-.1-.2-.7-.2-.8 0 0 0-.1.1-.1s1.5.3 1.9.4c.1 0 .3.2.3.4 0 .1-.4.4-.4.5-.1.3-.3 3.1-.3 3.5 0 .7.4.7.7.7h.8c.9 0 1.2 0 1.4-.4.5-.8.5-.9.7-.9.2 0 1.9 1.3 1.9 1.5 0 .3-.4.3-1.2.3h-3.9zM66 89.3c.4 0 2.6 1.8 2.6 3.1 0 .6-.4 1.3-.9 1.3s-.6-.4-.7-1.3c-.2-1.3-.4-1.6-.9-2.6 0-.1-.2-.4-.2-.5h.1zm7.4-12.1c0 .5-.3 1-.8 1-.7 0-.9-.6-1-1.3-.1-.4-.3-.9-.5-1.2-.4-.4-.4-.5-.4-.5 0-.1 2.7.5 2.7 2zM71 89.8c.3 0 3.2 1.3 3.2 3.1 0 .5-.2 1.1-.8 1.1-.6 0-.8-.6-1-1.2-.1-.3-.4-1.1-.6-1.3-.4-.6-1-1.5-1-1.6 0-.1.1-.1.2-.1zM64.8 103v.2c.1.7.2 1.4.2 2.4 0 1.5-.3 3.5-2.3 6.4-1.8 2.7-2.9 3.2-3.8 3.2-1.5 0-2.8-2.3-2.8-5 0-1.2.2-3.4 2.4-5.6 2.8-2.9 5.7-2.9 7-2.9 2 0 2.9.4 3.5.7 2.4 1.2 3.8 3.5 3.8 6.4 0 2.9-1.7 6.4-5.5 7.7-1.9.7-3.3.8-3.7.8-.1 0-.2 0-.2-.2 0-.1 0-.1.6-.3 2.3-.9 7.1-2.8 7.1-8.3 0-.9-.1-6.1-6.1-6.1-.2.3-.2.5-.2.6zm-7.2 6.7c0 1.4.6 3.4 1.9 3.4.6 0 1.2-.3 2.7-2.6 1.2-1.8 2.2-4.2 2.2-6.4 0-1.3-.1-1.4-.4-1.4-2.1 0-6.4 2.9-6.4 7zm-.2 26.1v-3.5c0-.1 0-.5-.2-.5s-.4.2-.7.6c-.9 1-2 1.8-2.1 1.8-.1 0-.1 0-.1-.1 0 0 .4-.5.5-.8 2.9-4.1 4-8.4 4-8.6 0-.2.1-.5.3-.5.1 0 2 .7 2 1.1 0 .1-.1.2-.2.3-.1.1-.5.3-.5.4-.2.2-1.7 3.4-1.7 3.7 0 .3.2.4.6.6.2.1.4.3.4.4 0 .1-.5.7-.6.9-.2.3-.2 4.4-.2 4.8v6.1c0 .9 0 1.8-1.1 1.8-.5 0-.5-.3-.5-.8-.1-1 .1-6.5.1-7.7zm6.9-.3h-2.8c-.1 0-.4.1-.5.1-.1 0-.1-.1-.2-.2l-.4-.5-.1-.1s0-.1.1-.1c.2 0 .8.1 1 .1 1.1 0 2 .1 3 .1H66c.5 0 .6-.3.6-.6v-1.7c0-.2-.1-.8-.1-1 0-.2 0-.2.2-.2.1 0 1.8.4 1.8.8 0 .2-.4.6-.5.7-.1.3-.1.6-.1 1.1 0 .5.1.7.7.7h1.7c1 0 1.1 0 1.4-.4.6-.7.7-.8.9-.8.4 0 1.8 1.2 1.8 1.5 0 .1-.1.2-.2.2-.2.1-.4.1-.9.1H69c-.2 0-.5 0-.5.2 0 .6 2.6 3.8 6.3 5.3.3.1.4.1.4.2s-.1.2-.5.3c-.4.1-.6.3-1 .6-.1.1-.2.2-.4.2-.4 0-2.7-1.7-4.2-4.3-.1-.2-.9-1.6-.9-1.6-.1 0-.1.2-.1.2 0 1 .2 5.5.2 6.4 0 1.3-1 1.3-1.1 1.3-.5 0-.5-.5-.5-.7 0-.8.1-4.6.1-5.3 0-.8 0-.9-.2-.9s-.5.5-.7.7c-2.8 3.6-5.2 4.5-5.4 4.5-.1 0-.1 0-.1-.1l.5-.5c3.4-3.2 5.1-6 5.1-6.3 0-.2-.2-.2-.3-.2h-1.4zm5.4-10.1c.4 0 .5-.1.8-.3.5-.5.6-.6.8-.6.4 0 1.3.9 1.3 1.2 0 .2-.1.3-.5.7-.2.2-.2 1.8-.2 2 0 .3.1 1.8.1 2.2 0 .6-.4 1-1 1-.2 0-.6 0-.6-.5 0-.6 0-.7-.5-.7h-5c-.5 0-.5.2-.6.5 0 .4 0 1.2-1 1.2-.6 0-.6-.4-.6-.7 0-.4.1-2.6.1-3.1s-.1-2.7-.1-3.2c0-.2 0-.2.2-.2.1 0 1 .4 1.3.5.2.1.4.1.7.1h4.8zm.2 4.5c.6 0 .7 0 .7-2.1 0-1.6 0-1.8-.7-1.8h-5.1c-.7 0-.7.2-.7 2 0 1.7 0 1.9.7 1.9h5.1zm-12.1 26.9c0 .7-.5 1-.8 1-.4 0-.6-.4-1-.9-.4-.7-.7-1-1.4-1.5 0 0-.2-.1-.2-.2s.5-.2.7-.2c.5 0 1.1.2 1.3.3.3 0 1.4.4 1.4 1.5zm1.8-.6s.1 0 .1.1c0 .2-.5 1.9-.6 2.3-.4 1.3-1 2.8-1.3 3.6-.2.4-.3.9-.3 1.2 0 .2 0 1.1.3 2.1.1.4.7 2 .7 2.4 0 .3-.1 1.2-1 1.2-1.1 0-1.1-1.1-1.1-1.6 0-2.3 0-3.2-.9-3.8-.1 0-.6-.2-.6-.4 0-.1.2-.1.2-.1.2 0 .6-.2.8-.3.7-.5 2.6-4.4 3.3-5.8 0-.2.3-.9.4-.9zm.1-4.4c0 .7-.4 1-.8 1-.3 0-.4-.2-1.1-1.4-.2-.3-.5-.8-1.5-1.5-.1-.1-.2-.1-.2-.2s.1-.1.2-.1c.5 0 1.3.1 1.7.3 1.1.4 1.7 1.1 1.7 1.9zm8 15.9c.2 0 .6 0 .7-.4v-7.4c0-.4 0-.7-.1-1 0-.1-.1-.5-.1-.6 0-.1 0-.2.2-.2 0 0 2.2.3 2.2.9 0 .1 0 .2-.1.2l-.4.2c-.3.2-.3 1.1-.3 7.8 0 .5.4.5.7.5h.5c.2 0 .9 0 1.1-.1.2-.1 1-1.3 1.3-1.3.3 0 1.8 1.3 1.8 1.7 0 .3-.1.3-.9.3H60.9c-.1 0-.4.1-.5.1-.1 0-.1-.1-.2-.2l-.4-.5-.1-.1c0-.1 0-.1.1-.1s1.2.1 1.4.1c1.5.1 1.6.1 2.8.1.4 0 .5-.3.5-.4v-6.1c0-.8 0-2.1-.1-2.4 0-.1-.2-.6-.2-.7 0-.2.1-.2.2-.2 0 0 1.2.2 1.4.3.2.1.6.2.6.5 0 .1-.4.7-.4.8-.1.3-.1 1-.1 7.7 0 .6.5.6.7.6h1.1zm-4.2-3c0 .6-.3 1.3-.8 1.3s-.7-.6-.8-1.1c-.1-.7-.5-2.3-1.3-4.2 0-.1-.2-.5-.2-.6 0 0 0-.1.1-.1s1.2 1.3 1.4 1.5c.5.7 1.6 2.1 1.6 3.2zm.9-7.6c-.2 0-.6 0-.8.4-.3.7-.8.9-1.1.9-.4 0-.5-.2-.5-1 0-.7.1-4.1.1-4.8 0-.3 0-1.1-.2-2 0-.1-.3-.8-.3-.9 0-.1.1-.2.2-.2.3 0 .9.3 1.8.8.5.3.9.3 1.2.3h5.7c.6 0 .9-.3.9-.3.2-.2.3-.3.5-.3s1.4.7 1.4 1c0 .1 0 .2-.4.5-.2.2-.2.4-.2.7 0 2.5 0 2.8.1 3.7 0 .1.1.9.1 1.1 0 1.5-1 1.5-1.1 1.5-.6 0-.6-.3-.7-.7 0-.1-.1-.5-.7-.5h-6zm-.2-5.9c-.6 0-.6.4-.6.9 0 1.2 0 1.5.6 1.5h6.2c.6 0 .6-.4.6-.9 0-1.2 0-1.5-.6-1.5h-6.2zm.1 2.9c-.7 0-.7.4-.7.8 0 1.5 0 1.6.7 1.6h6.2c.7 0 .7-.4.7-1.2 0-1 0-1.3-.7-1.3h-6.2zm10 7.3c0 .2-.1.3-.5.5-.2.1-.4.3-.8 1.1-.4.6-2.3 3.4-2.6 3.4v-.1s.9-2.6 1-2.8c.4-1 .9-2.3.9-3.1 0-.1 0-.2.2-.2s.5.2.9.4c.7.4.9.6.9.8zm-15.7 22.9c-.4 0-.6.2-.6.6-.1 2.4-.4 4.2-.9 5.7-.5 1.8-1.8 3.7-2.2 3.7 0 0-.1 0-.1-.1s0-.2.1-.3c.7-1.3 1.1-2.9 1.2-3.7.4-2.1.5-4.2.5-6.3 0-1.7-.1-3.6-.2-4 0-.2-.2-1-.2-1.2 0 0 0-.1.1-.1s1.5.7 1.7.8c.2.1.6.1.8.1h4.9c.1 0 .4 0 .4-.4 0 0-.5-3.4-.5-3.5l-.2-.7c0-.1.1-.2.2-.2 0 0 2.1.2 2.1.6 0 .1-.3.4-.4.5-.1.2-.2.3-.2.6 0 .4.3 2.6.3 2.8 0 0 .1.3.6.3h4c.9 0 1 0 1.2-.2.2-.2.8-1.3 1-1.3.2 0 2.1 1.4 2.1 1.7 0 .3-.5.3-1.2.3h-7c-.2 0-.4.1-.4.3 0 1.1 1.5 6.8 2 6.8.2 0 1.7-3.3 2-4.7.1-.3.1-.7.2-.7s.2 0 1 .5c.7.4.8.5.8.7 0 .1 0 .2-.1.3-.1.1-.4.3-.5.4-.2.2-1.6 2.9-1.8 3.4-.1.2-.8 1.3-.8 1.5 0 .3 2.8 3.3 3.7 3.3.4 0 .7-.6 1.2-1.4.1-.2.6-1.1.7-1.1.1 0 .1.1.1.2s-.4 2-.4 2.4c0 .1 0 .3.1.7.3.6.3.7.3.9 0 .6-.5.7-.7.7-1.4 0-3.6-1.7-5.4-3.8-.4-.5-.5-.5-.6-.5-.1 0-1 .9-1.2 1.1-2.1 1.9-4.4 2.9-4.7 2.9 0 0-.1 0-.1-.1s2-1.7 2.4-2c1.5-1.3 2.8-2.9 2.8-3.2 0-.1 0-.2-.1-.3-1.1-2.2-1.7-4.5-2.1-6.8-.2-1.3-.3-1.5-.9-1.5h-5c-.2 0-.6 0-.6.5v2.6c0 .3 0 .6.6.6h1.6c.2 0 .4 0 .6-.1.1-.1.5-.6.7-.6.1 0 1.4 1 1.4 1.2 0 .1-.5.5-.5.6 0 .1-.1 3-.1 3.3-.1 2.4-.4 4.8-2.3 4.8-.2 0-.2-.1-.3-.2-.2-.4-.3-.5-.5-.7-.2-.2-1.4-.8-1.4-.9 0-.1.1-.1.2-.1.3 0 1.5.2 1.8.2.5 0 .9-.2 1.1-1.6.1-.6.2-1.4.2-4.5 0-.4 0-.7-.7-.7h-1.8zm12.2-6.9c0 .5-.2.9-.8.9-.3 0-.4-.3-.5-.7-.2-.5-.8-1.5-1.2-1.9-.1-.1-.1-.2-.1-.2.1-.2 2.6.3 2.6 1.9zm-7.9 25.1c0 .2-.2.3-.6.4-.2.1-.6.7-1.1 1.5-2.6 4.2-6.1 6.1-6.5 6.1-.1 0-.1 0-.1-.1s0-.2.5-.5c3-2.3 4.6-6 5-6.6.2-.3.7-2.2.7-2.2.1-.2 2.1 1 2.1 1.4zm2.2 6.4c-.6 0-.6 0-.7 1.2-.2 1.9-.6 5.7-4.4 7.9-1.8 1-4.1 1.4-4.2 1.4-.1 0-.3 0-.3-.2 0-.1.1-.2.5-.3 1.5-.5 3.3-1.6 4.3-2.7 1.6-1.6 2.5-4.6 2.5-6.9 0-.5-.2-.5-.5-.5h-3c-.1 0-.4.1-.5.1-.1 0-.1-.1-.2-.2l-.4-.5-.1-.1s0-.1.1-.1c.2 0 .8.1 1 .1 1.1 0 2 .1 3 .1H67c1 0 1.1 0 1.5-.4.3-.4.5-.5.7-.5.4 0 1.6 1 1.6 1.5 0 .1-.4.5-.4.6-.1.2-.2 2.7-.3 3.2-.2 2.7-.4 4.5-1 5.5-.6.9-1.9 1.3-2.2 1.3-.2 0-.2-.1-.4-.7-.1-.5-.9-.8-2-1.1-.5-.1-.7-.2-.7-.4s.2-.1.2-.1c.2 0 .7.1.9.2 1.2.2 1.3.2 1.6.2 1.1 0 1.7-.2 2-2.5.2-1.7.4-4.2.4-5.4 0-.6 0-.8-.7-.8h-3.1zm1.1-7.1H64s-.1 0-.2-.1l-.4-.5s-.1-.1-.1-.2h.1c.1 0 .8.1.9.1.2 0 1.2.1 1.3.1.5 0 .8-.4.9-.6.5-.6.5-.6.7-.6.3 0 1.9 1.1 1.9 1.6 0 .2-.1.2-.7.4-.1 0-.4.1-.4.5 0 1.1 2.9 4.6 6.6 5 .1 0 .3 0 .3.2 0 .1-.6.2-.7.3-.6.3-1.1.7-1.3 1 0 .1-.3.3-.4.3-.7 0-4.4-3-5.3-6.4-.2-.9-.3-1-.8-1h-.2z"/></g></g><g><g><path class="st2" d="M36.4 116.7c0 .4-.1.6-.5.6s-.5-.2-.5-.6v-5.3c0-.6-.1-.6-2.8-.6H17c-.5 0-.7-.1-.7-.4 0-.5.2-.5 1.5-.5h17.7c.6 0 .9.3.9.9v5.9zm-11 13.3c.2.1 1.2.6 1.4.6.5 0 1.1-1.5 1.4-2.2.4-.9.8-2.2.8-2.6 0-.2-.1-.4-.2-.5-.1-.1-.1-.2-.1-.3 0-.1.1-.2.2-.2.2 0 .9.2 1.5.7.7.5.9 1.4.9 1.6 0 .2-.1.2-.5.4-.2.1-.3.2-.9 1.3-.4.7-.8 1.5-1.3 2.2-.1.2-.2.4-.2.5 0 .2.2.4.4.6 1.9 1.7 2.2 2.9 2.2 3.4 0 .6-.5.7-.7.7-.8 0-1.1-.6-1.9-1.9-.2-.4-.6-1.1-.9-1.1-.2 0-.4.2-.5.3-4 5-8.4 6.9-8.6 6.9-.1 0-.2 0-.2-.1s.4-.4.7-.6c3.7-2.9 5.2-4.6 5.8-5.4.5-.7 1.6-2 1.6-2.4 0-.5-2-1.7-2.9-2.1-.4-.2-.5-.2-.5-.4 0-.1 0-.2.2-.2.3.1 1.3.4 2.3.8zm-5.9 35.4c4.5-2.6 7.5-6.1 7.5-6.8 0-.7-2.6-2.4-3.2-2.4-.5 0-3.2 2.9-3.9 2.9-.1 0-.1-.1-.1-.1 0-.1.7-.8.8-.9 2.6-2.8 4.4-5.9 4.4-7.2 0-.2-.4-.9-.4-1 0-.1.3-.1.4-.1 1.2 0 2 .9 2 1.3 0 .1-.2.7-.2.9 0 .3.5.4.7.4 1.1 0 3-.4 3.3-.5.1-.1.7-.5.8-.5.2 0 1.8 1 1.8 1.7 0 .3-.2.4-.6.6-.3.2-.4.3-1.1 1.3-.3.5-1.8 2.6-2.1 3-.2.3-.2.4-.2.5 0 .2 0 .2.4.7.5.7.9 1.2.9 1.9 0 1-.8 1.1-.9 1.1-.5 0-.5-.2-1.4-1.6 0-.1-.3-.5-.5-.5s-.3.2-.8.6c-3.7 4-8 5.3-8.1 5.3 0 0-.2 0-.2-.2.2-.2.3-.2.7-.4zm11.2-12.2c0-.2-.2-.3-.4-.3-.3 0-2.3.3-2.7.3-.3 0-.4 0-.7-.1s-.3-.1-.5-.1c-.1 0-.2 0-.3.1 0 0-1.9 2.2-1.9 2.5 0 .3.2.4.7.6.7.3.9.4 2.4 1.1.1 0 .4.2.5.2.7-.1 2.9-3.5 2.9-4.3zM25.1 176c.4.4.7.8.7.9 0 .1-.1.2-.4.6-.5.5-1.2 1.7-1.2 1.8 0 .3.3.4 1 .4 1.2 0 3.9-.3 4.9-.5.3-.1 1.5-.5 1.8-.5.1 0 2.2.4 2.2 1.3 0 .3-.4.6-.7.6-.2 0-1.2-.2-1.4-.2-.5 0-1-.1-1.6-.1-.2 0-1.7 0-1.7.3 0 .1.4.6.4.7 0 .1-.3.6-.4.7-.1.3-.5 1.4-.6 1.6-2.1 5.1-6.3 7.1-6.8 7.1 0 0-.1 0-.1-.1s0-.1.3-.4c1.2-1.1 2.7-2.5 3.8-4.2 1-1.6 1.6-3.3 1.6-4.2 0-.5-.1-1.2-.8-1.2-.2 0-.6.1-.9.1-.1 0-.8.2-.9.2-.2 0-.4-.2-.4-.3-.3-.3-.3-.3-.4-.3-.2 0-.3.2-.4.3-1.6 2.4-4 3.9-4.3 3.9-.1 0-.1-.1-.1-.1 0-.1 2.1-2.6 2.5-3.1 1.9-2.6 2.1-4.5 2.1-5 0-.3 0-.7-.2-1 0 0-.2-.3-.2-.4 0-.2.3-.2.3-.2 1 .3 1.2.5 1.9 1.3zm2.1 29.4c.9.5.9.6.9.8 0 .1-.2.7-.3.9-.1.4-.1.9-.1 3.9 0 .6 0 1.8.1 2.6 0 .3.2 1.5.2 1.8 0 .2 0 1-.5 1-.6 0-1.4-.9-1.4-1.5 0-.2.2-1.2.2-1.4.1-1.2.2-2.9.2-4 0-.8 0-3.1-.6-3.1-.1 0-.2.1-.4.3-2.2 2.1-5.9 4.2-6.2 4.2-.1 0-.1 0-.1-.1s0-.1.1-.2c.6-.5 1.2-1 1.5-1.3 5.2-4.4 6.9-8.2 6.9-8.8 0-.2-.1-.4-.2-.6 0 0-.2-.3-.2-.4 0-.1.1-.2.2-.2.3 0 2.6.9 2.6 1.8 0 .2-.1.4-.2.4-.6.5-.7.6-1.5 1.8-.4.5-1.1 1.3-1.5 1.8l.3.3zM19.5 240c-.3 0-.6.1-.7.4v1.1c0 1-.8 1-.9 1-.5 0-.5-.3-.5-.6v-.8c.2-2.4.2-7.3.2-9.9 0-1.3 0-1.5-.1-2.6 0-.1-.1-.4-.1-.5 0-.1.1-.2.2-.2s.7.2.8.3c.5.2.7.3 1 .3.4 0 .4-.2.4-.5v-2.4c0-.4 0-.8-.5-.8-.3 0-1.6.1-1.8.1-.1 0-.1 0-.2-.1l-.4-.5c-.1-.1-.1-.1-.1-.2h.1c.1 0 .8.1 1 .1.6 0 1.8.1 3 .1h1.5c1 0 1.1 0 1.4-.4.4-.5.5-.6.7-.6.4 0 1.6 1.1 1.6 1.3 0 .2-.1.2-1.2.2h-1.4c-.5 0-.7.3-.7.6v2.2c0 .6 0 .8.5.8.6 0 .6 0 .8-.2.2-.2.3-.3.4-.3.2 0 1.3.6 1.3.9 0 .1-.1.2-.4.4-.1.1-.1.3-.1.6v10.4c0 .5 0 1.4-.9 1.4-.5 0-.5-.1-.5-.9 0-.5 0-.7-.6-.7h-3.8zm3.9-3.4c.6 0 .6-.1.6-2 0-.1 0-.2-.1-.2s-.3.2-.4.2c-.1 0-.4.1-.7.1-1.3 0-1.3-.6-1.3-2.4v-2.9c0-.2-.2-.3-.3-.3-.3 0-.4 0-.4.4 0 2.8-.1 4-1.7 5.5-.4.4-.4.4-.4.8 0 .5 0 .8.7.8h4zm-4.6-7v4.7c0 .4 0 .5.1.5.4 0 .9-1.5.9-3.7v-1.8c0-.2-.3-.2-.4-.2-.5-.1-.6 0-.6.5zm.6 7.6c-.6 0-.7.3-.7.7 0 1.2 0 1.5.7 1.5h3.9c.7 0 .7-.3.7-1.5 0-.5-.2-.7-.7-.7h-3.9zm2.2-8.9v-3.4c-.1-.1-.2-.1-.4-.1-.1 0-.3 0-.3.1v2.8c0 .6 0 .7.4.7.1.1.3.1.3-.1zm1.2 1.3v3.5c0 .1 0 .4.2.4.4 0 .4-.4.4-.6 0 0 0-.2.1-.2s.1.4.2.4c0 .2.2.3.3.3.1 0 .1 0 .1-.5v-3.4c0-.4-.2-.4-.7-.4-.6-.1-.6.1-.6.5zm9.2 4.9c.2 0 .6 0 .8-.3s.3-.4.4-.4c0 0 1.8.7 1.8.9 0 .1-.1.2-.2.3-.2.1-.7.4-.9.8-.8 1.2-1 1.4-1.7 2.2-.2.2-.7.7-.7.9 0 .3 2.1 1.4 2.9 1.7.8.3 1.8.5 2.4.5 0 0 .2 0 .2.1 0 0-.2.1-.3.2-.2.1-.6.3-1.3.9-.1.1-.4.4-.5.4-.2 0-.9-.4-1.1-.5-.9-.5-1.8-1.1-2.4-1.7-.7-.6-.7-.6-.9-.6-.2 0-1.4.9-1.7 1.1-1.6.9-3.9 1.9-4.4 1.9-.1 0-.1 0-.1-.1s0-.1.3-.2 2-1.1 3.7-2.4c.5-.4 1.3-1 1.3-1.3 0-.2-.1-.3-.2-.5-.2-.4-.5-.8-.8-1.6-.2-.6-.2-.7-.4-.7-.1 0-1.7 1.4-2 1.4h-.1s.9-1.3 1-1.5c.4-.5 1.4-1.9 1.6-3.1 0-.1.1-.4.2-.4 0 0 1.6.5 1.6.8 0 .2-.1.2-.5.5-.3.2-.6.5-.6.7 0 .2.2.2.3.2H32zm.9-7.2c.5 0 .7 0 .7-.3 0-.2-.6-1.2-1.1-1.9l-.3-.3c.3 0 3.1 1.1 3.1 2.8 0 .8-.5 1.3-.9 1.3-.3 0-.4-.2-.6-.9 0-.2-.1-.3-.5-.3-.3 0-6.2.7-6.6 1.1-.2.2-.3.3-.4.3-.3 0-.4-.2-.5-.4-.1-.2-.4-1.2-.4-1.3 0-.1.1-.2.2-.2.2 0 1.5.3 1.8.3s.4 0 .6-.5c.5-1.2.9-2.8.9-3.3 0-.1-.1-.5-.1-.6 0-.2.1-.2.3-.2.1 0 2.1.5 2.1.8 0 .1-.5.6-.7.7 0 0-1.1 1.6-1.3 1.9-.1.1-.8 1.2-.8 1.2 0 .2 0 .2.5.2.3-.3 2.1-.3 4-.4zm-2.9 1.6c.1 0 .3.2.3.3 0 .2-.7.6-.8.7-.2.2-1.2 1.4-1.4 1.6-1.3 1.3-2.4 1.7-2.4 1.7s-.1 0-.1-.1c0 0 .5-.6.6-.7 1-1.2 2.2-2.7 2.2-3.7 0-.2 0-.4.2-.4.1 0 .2 0 .2.1.2.1 1 .5 1.2.5zm-.6 6.1c-.3 0-.9 0-.9.5 0 .4 1.5 2.3 1.8 2.3.4 0 2-2.3 2-2.6 0-.2-.2-.2-.4-.2h-2.5zm3.3-6.5c0 .1-.4.5-.4.5-.1.2-.1.4-.1.7 0 1.7 0 1.9 1.1 1.9 1.3 0 1.5-.4 1.7-.7.1-.2.4-1.2.5-1.2s.1.1.1.1c0 .6.2.9.4 1.1.4.6.4.6.4.8 0 .3-.2.8-1 1-.4.1-1.2.2-2.6.2-1.7 0-1.7-.4-1.7-1.8 0-.6 0-2.5-.2-2.9 0-.1-.1-.3 0-.3 0 0 1.8.3 1.8.6zm-16.1 19.8c0-.4.1-.6.5-.6s.5.2.5.6v5.3c0 .6.1.6 2.8.6H36c.5 0 .7.1.7.5 0 .5-.2.5-1.5.5H17.5c-.6 0-.9-.4-.9-.9v-6zm1.6 32.1c0-.1.1-.2.2-.2s1.2.3 1.5.3c.6 0 3.7-.6 3.7-.7.4-.3.4-2.5.4-2.6 0-.6 0-1.2-.6-1.9-.3-.4-.4-.4-.4-.5 0-.2.3-.2.4-.2 1.5 0 2.3.8 2.3 1.4 0 0-.8 2.8-.8 3.3 0 .1.1.2.2.2s1.1-.1 1.3-.1c1.7 0 2.9.8 2.9 2.8 0 1.7-.6 5.5-1.9 7.1-.6.7-1.5 1.3-2.2 1.3-.8 0-1-.8-1.3-1.5 0-.2-.3-.7-.3-.7 0-.1 0-.1.1-.1s.5.1.5.2c.5.1.9.2 1.1.2.6 0 1.5-.3 2.1-2.7.2-.9.7-2.7.7-3.8 0-1.5-.9-1.6-1.5-1.6-.7 0-2 .3-2.1.5-.1.1-.1.2-.3.9-.9 3-3 8.4-4.8 8.4-.5 0-.7-.3-.7-.7 0-.5.2-.6 1.5-2.1.6-.7 1.5-1.7 2.7-5 .1-.2.3-.9.3-1 0-.1 0-.2-.2-.2-.5 0-2.5.9-3 .9-.8-.1-1.8-1.4-1.8-1.9zm15.3 4.6c-.2 0-1.3-.6-1.5-.7-.2 0-.7-.1-.7-.2s.7-.5.9-.6c.8-.6.9-.7.9-1.3 0-.4-.2-1.8-1.8-2.5-.2-.1-.5-.2-.5-.3 0-.1.1-.1.2-.1 2.8 0 3.8 2.8 3.9 3.9-.1.3-.5 1.8-1.4 1.8zm1-7.3c0 .4-.3.9-.6.9s-.5-.1-1.2-.9c-.4-.5-.7-.7-1.6-1.3-.1-.1-.3-.2-.3-.3 0-.1.2-.2.4-.2 2.8-.1 3.3 1.5 3.3 1.8zm1.8-1.9c0 .3-.2.6-.6.6-.5 0-.7-.3-1.2-.8-.4-.4-1.2-.9-2-1.2-.2-.1-.3-.2-.3-.2 0-.2.5-.3.8-.3 2.8.1 3.3 1.5 3.3 1.9zm-14 37c-.3 0-.5.1-.5.4-.1.4-.5.6-1 .6s-.6-.3-.6-.6c0-.1.1-2.2.1-2.6 0-.6 0-1.2-.1-1.4 0-.1-.1-.3-.1-.4 0-.1 0-.1.1-.1.2 0 .9.4 1.1.5.2.1.6.2 1 .2h7.9c.2 0 .5 0 .7-.2.1 0 .4-.4.5-.4s1.6.5 1.6.9c0 .1-.2.2-.4.4s-.3.4-.3.6c0 .2.1 1.7.1 1.9 0 .7-.5 1-1 1-.4 0-.5-.1-.6-.5-.1-.2-.2-.3-.5-.3h-.7c-.2 0-.2 0-.2.1s.7.5.7.7c0 .1-.5.4-.5.5-.4.4-1.5 1.8-1.5 2 0 .1.2.1.3.1h3.7c.5 0 1 0 1.1-.1.2-.1 1-1.3 1.3-1.3.2 0 1.7 1.3 1.7 1.6 0 .3-.1.3-1 .3H17.6c-.1 0-.6.1-.7.1-.1 0-.1-.1-.2-.2l-.4-.5-.1-.1s0-.1.1-.1c.2 0 .8.1 1 .1.6 0 1.8.1 3 .1h6.8c.3 0 .4-.1.5-.3.2-.7.5-2.1.5-2.7 0-.3-.3-.4-.5-.4h-5.3zm9.4-5.4c.7 0 .9 0 1.1-.1.2-.1 1-1.2 1.2-1.2.1 0 1.7 1.3 1.7 1.6 0 .3-.2.3-.8.3H21.2c-.5 0-2 0-2.8.1h-.5c-.1 0-.1 0-.2-.1l-.4-.5c-.1-.1-.1-.1-.1-.2h.1c.2 0 .8.1 1 .1 1 0 2 .1 3 .1h10.4zm-10.4-1.6c-.3 0-.4.1-.4.2-.1.6-.6.8-1.1.8-.6 0-.6-.4-.6-.5 0-.2.3-4 .3-4.7 0-.6-.1-1.5-.2-2 0-.1-.1-.4-.1-.5 0-.2.1-.2.2-.2.2 0 1 .5 1.3.6.5.3.7.3 1 .3h1.8c.2 0 .4-.1.4-.3 0 0 0-.4-.1-.9 0-.1-.2-.5-.2-.6 0-.1.1-.1.2-.1s2.1.3 2.1.6c0 .1-.4.4-.4.5-.1.2-.1.4-.1.5 0 .1.1.3.3.3h2.1c.3 0 .4-.2.4-.3 0-.2-.1-.8-.2-1 0-.1-.2-.4-.2-.4 0-.1.1-.1.2-.1s.9.2 1.1.2c.9.2 1 .2 1 .4 0 .1-.4.4-.4.5 0 .2-.1.4-.1.5 0 .1.1.2.3.2h1.8c.3 0 .5-.1.7-.3.3-.3.4-.4.6-.4.1 0 .5.2.6.3.8.5.9.5.9.7 0 .1 0 .2-.3.4s-.3.3-.3 1.6v1.6c0 .2.1 1.4.1 1.7 0 1.2-1.1 1.3-1.2 1.3-.3 0-.3-.1-.5-.5-.1-.2-.2-.3-.5-.3H21.3zm.1-2.9c-.6 0-.7.3-.7.6 0 1.5 0 1.6.7 1.6h1.7c.7 0 .7-.3.7-1.1 0-.9 0-1.2-.7-1.2h-1.7zm.2-2.5c-.5 0-.7 0-.7 1.4 0 .6.4.6.7.6h1.6c.5 0 .6-.2.7-.4v-1.1c0-.5-.5-.5-.7-.5h-1.6zm.8 9.6c-.5 0-.7.2-.7.6 0 1.4 0 1.6.7 1.6h8c.7 0 .7-.2.7-1.5 0-.3 0-.7-.7-.7h-8zm1.8 6c-.8 0-.9-.9-1.1-2.2 0-.3-.1-.5-.2-.7v-.1s0-.1.1-.1 1.9 1 1.9 2.3c0 .5-.4.8-.7.8zm1.6-13.1c-.7 0-.7.2-.7 1.8 0 .1 0 .5.6.5h1.6c.2 0 .5 0 .6-.4v-1.4c0-.4-.3-.5-.7-.5h-1.4zm0-2.5c-.7 0-.7.2-.7 1.4 0 .3.1.6.7.6h1.4c.7 0 .7-.3.7-.8 0-1 0-1.2-.7-1.2h-1.4zm4.2 2.5c-.7 0-.7.2-.7 1.7 0 .3.1.6.7.6h1.4c.6 0 .7-.2.7-1.7 0-.2 0-.6-.7-.6H30zm0-2.5c-.7 0-.7.3-.7 1.4 0 .5.3.6.7.6h1.5c.7 0 .7-.3.7-1.1 0-.6 0-.9-.7-.9H30zm3 25.1c.4 0 .5 0 .7-.2.1-.2.3-.4.4-.4.2 0 1.1.6 1.3.7.4.3 1 .7 1 1 0 .6-.7.6-1.2.6s-.9.1-1.7.5c-.1 0-.5.3-.5.3s-.1 0-.1-.1l.1-.2c.3-.9.4-1 .4-1.3 0-.3-.3-.3-.4-.3H20.3c-.6 0-.6 0-.8.8-.1.5-.4 2-1.9 2-.9 0-.9-.7-.9-.7 0-.3.1-.4.9-1.3.2-.2 1-1.3 1.1-2.5 0-.4 0-.4.1-.4s.5.7.5.9c.2.6.3.6.9.6h4.6c.7 0 .7-.3.7-.6 0-.4-.1-.9-.2-1.3 0-.1-.1-.3-.1-.4 0-.1.1-.2.3-.2 0 0 1.8.2 1.9.2.1 0 .4.1.4.3 0 .1-.1.2-.2.4-.2.2-.3.4-.3.9 0 .7.3.7.7.7h5zm-.9 9.9c.3 0 .5 0 .7-.2 0 0 .5-.5.6-.5.2 0 1.5 1.1 1.5 1.3 0 .1-.5.5-.6.6-.1.2-.1 2.6-.1 2.9 0 .3.1 2.1.1 2.3 0 .7-.5 1.1-1.1 1.1-.5 0-.6-.3-.7-.7-.2-.5-.4-.5-.8-.5H21.1c-.2 0-.4 0-.7.4-.2.3-.4.7-1.1.7-.5 0-.7-.3-.7-.8 0-.2.1-1.1.1-1.3 0-.7.1-3.6.1-4.6 0-.2-.2-1.3-.2-1.5 0-.1.1-.3.3-.3.2 0 .8.4 1 .6.5.4.7.4 1 .4h11.2zm-2.7-7.4c.3 0 .4 0 .5-.1.2-.1.7-1 .9-1 .1 0 .2 0 2 1.1.1 0 .2.1.2.3 0 .2-.1.2-1.2.2H21c-.1 0-.4.1-.5.1-.1 0-.1-.1-.2-.2l-.4-.5-.1-.1s0-.1.1-.1c.2 0 .8.1 1 .1 1.1 0 2 .1 3 .1h5.5zm-4.3 10.1c.7 0 .7-.3.7-1.3 0-.5 0-.9-.7-.9H21c-.6 0-.6.3-.6 1.2 0 .6 0 1 .6 1h4.1zm.1 3c.4 0 .5-.3.5-.6V339c0-.1-.1-.3-.5-.3h-4.3c-.4 0-.6.3-.6.6v1.5c0 .1.1.3.5.3h4.4zm4.3-11c.3 0 .5 0 .7-.3.2-.3.3-.4.5-.4s1.7.8 1.7 1.2c0 .1-.1.2-.2.3l-.4.4v1.8c0 .5 0 1.4-.9 1.4-.4 0-.5-.2-.7-.4-.2-.3-.5-.3-.8-.3h-5.9c-.3 0-.4 0-.7.4-.3.4-.7.5-1 .5-.6 0-.6-.4-.6-.6v-.7c.1-.9.1-1.9.1-2.3V330c0-.1-.1-.5-.1-.6 0-.1 0-.2.2-.2s.3.1 1.3.7c.3.2.4.2.7.2h6.1zm-6 .6c-.7 0-.7.2-.7 1.8 0 .7.4.7.7.7h6c.7 0 .7-.2.7-1.8 0-.7-.4-.7-.7-.7h-6zm8.6 7.4c.3 0 .7 0 .7-.8 0-1.1 0-1.4-.7-1.4h-4.2c-.4 0-.6.1-.6.8 0 1 0 1.3.6 1.3h4.2zm-4.3.6c-.6 0-.6.3-.6.9 0 1.2 0 1.3.1 1.4.2.2.3.2.5.2h4.3c.4 0 .5-.2.5-.2.1-.1.1-1.5.1-1.7 0-.4-.3-.5-.6-.5h-4.3z"/></g></g></g></svg>