<svg version="1.1" id="レイヤー_1" xmlns="http://www.w3.org/2000/svg" x="0" y="0" viewBox="0 0 226.1 419" xml:space="preserve"><style type="text/css">.st0{fill:#200701}</style><g><path class="st0" d="M188.4 120.6c1-2.5 1.7-6 1.9-8.7 2.4.5 2.5.6 2.5.8 0 .2-.3.3-.9.4-.9 3.6-1.7 5.3-3.1 7.6l-.4-.1zm4.9-11c-1.4.3-1.9.4-3.1.6-.2.8-.4 1.1-.6 1.1s-.4-.5-.8-2.6h2.7c2-2.7 4.3-6.7 5-8.7 2.3.8 2.5.9 2.5 1.2 0 .2-.2.3-1.1.4-2.2 3.4-3.5 5-5.5 7.1 1.9-.1 3.2-.2 4.7-.3-.4-1-.6-1.4-1.3-2.5l.3-.2c2.2 1.8 2.9 2.7 2.9 3.6 0 .3-.1.7-.3 1.1-.1.3-.3.5-.5.5-.3 0-.4-.2-.6-.9-.1-.4-.2-.6-.3-1.1-1 .3-1.2.3-2.3.5v12.5c0 .2-.1.3-.2.3-.1.1-1 .1-1.3.1-.3 0-.3-.1-.4-.3.1-5.1.1-5.1.1-7.4v-5zm1.9-11.5h-.2c-1.4 2-1.9 2.5-3.4 4.1.1.1.2.1.2.2 1 .8 1.4 1.3 1.4 1.8 0 .3-.2 1-.4 1.3-.1.2-.3.3-.4.3-.3 0-.3-.1-.7-1-.6-1.2-1.4-2.4-2.7-3.8l.3-.3c.9.5 1.2.8 1.9 1.3 1.3-2.5 1.9-4 2.2-5.4 2.1.7 2.7 1 2.7 1.3 0 .2-.3.4-.8.4h-.1zm1 13c1.8 1.5 2.5 2.6 2.5 3.4 0 .7-.6 1.6-1.1 1.6-.3 0-.3-.2-.4-1.1-.2-1.2-.6-2.5-1.3-3.7l.3-.2zm14.6-4.7c.5-.6 1-1.1 1.5-1.7 1 .8 1.2 1.1 2.2 1.9.1.1.1.2.1.3 0 .1-.1.2-.4.2h-7.8c.4 2.3.9 3.8 1.8 5.5 1.1-1.4 2-2.6 2.6-4 2.6 1.1 2.6 1.1 2.6 1.3 0 .1-.2.3-.5.3h-.6c-2 1.7-2.5 2-3.9 2.9.7 1.2 1.2 1.9 2.2 2.8 1.6 1.5 2.5 2 4.2 2.6v.3c-1.2.2-1.5.4-2.1 1.7-1.3-1-1.9-1.6-2.9-2.9-1.9-2.5-2.9-4.9-3.7-9.2l.2 5.8c0 .4 0 .6.1 2.9l.1 2.7c0 .9-.2 1.3-.6 1.7-.4.3-.9.5-2.4.8-.2-.8-.4-1.1-.9-1.4-.6-.3-1.2-.5-2.5-.7v-.4c2.1.2 2.7.2 4.1.3.4 0 .5-.1.5-.6V115c-2.1 1.4-2.5 1.7-6 3.6 0 .8-.1 1.1-.4 1.1-.3 0-.6-.6-1.3-2.5 1.7-.3 4.1-1.2 7.6-2.8v-7.3h-4.1c-.8 0-1.3 0-2.1.2l-.2-1.1c.9.3 1.3.3 2.1.3h7.8c0-.7.1-1.9.1-3.5h-6.3c-.9 0-1.2 0-1.8.1l-.1-1.1c.7.2 1.2.3 2 .3h6.3c.1-1.2.1-1.2.1-3.3h-6.8c-.8 0-1.3 0-2.1.2l-.2-1.1c.9.2 1.5.3 2.3.3h6.6c.5-.5.6-.7 1.1-1.2.6.5.8.6 1.5 1.1.2.1.3.2.3.3 0 .2-.1.3-.9.7-.2 4.5-.2 4.5-.3 7.1h.9zm-11 2.2c.9.6 1.3 1 2.1 1.7s1 1.2 1 1.7c0 .3-.1.8-.3 1.2-.1.4-.4.6-.6.6-.3 0-.3-.1-.6-1.1s-1-2.5-1.9-3.7l.3-.4zm-3.5 37.5c-.1.3-.5 2-1.3 5.3-.4 1.7-.5 2.1-.5 3 0 .8 0 1-.1 1.2-.1.3-.4.5-.7.5-.5 0-.9-.4-1.2-1.1-.6-1.5-1-3.7-1-6 0-.8.1-1.9.2-3 .2-1.6.2-1.6 1-5.3.3-1.3.4-2 .4-2.6 0-.9-.2-1.6-.8-2.6.6 0 1.1.4 1.9 1.4.7.9 1 1.6 1 2.2 0 .4 0 .6-.6 1.7-.6 1.2-1.2 3.1-1.5 4.5-.3 1.1-.4 2.3-.4 3.5 0 1.5.1 2.5.5 3.7.5-1 .7-1.5 1-2.4l1.5-3.9.6-.1zm3.5 1.4c-.1.6-.1.8-.1 1.2 0 3.1 1.8 4.3 6.1 4.3.8 0 1.6-.1 2.4-.2.6-.1.6-.1 1.5-.4.2-.1.3-.1.4-.1.7 0 1.8 1 1.8 1.7 0 .3-.2.6-.6.7-.6.2-1.9.3-3.5.3-3.5 0-6-.6-7.3-1.7-1-.9-1.5-2.1-1.5-3.6 0-.7.1-1.3.3-2.2h.5zm-.1-8.9c1 .6 1.6.8 2.6.8 1.7 0 4.5-.6 5.6-1.3.4-.2.4-.2.6-.2.2 0 .6.1 1 .4.6.3.9.7.9 1 0 .4-.2.5-.8.6-1.8.3-2.9.5-4 1-.9.4-2.5 1.3-3.6 2l-.3-.3c1.3-1.1 2.2-1.8 2.7-2.2-.6 0-.9.1-1.1.1-1.6 0-2.6-.4-3.8-1.6l.2-.3zm9.3 34.8c.4-.6.6-.8 1-1.4.8.6 1.1.7 1.8 1.3.2.1.3.3.3.4 0 .2-.2.3-1 .9-.1 1-.1 1-.4 5.7-.2 2.1-.5 4.6-.9 5.8-.2.8-.7 1.4-1.3 1.7-.4.2-.9.3-2.1.4 0-1.1-.3-1.3-2.6-1.9l.1-.4c1.4.2 2.5.3 3.1.3.7 0 .9-.3 1.1-1.2.5-2.7.8-6.4.9-10.9h-13.7c-1.7 2.9-3.5 5.1-6.3 7.5l-.4-.4c2.1-2.5 3.7-4.9 5.1-8 .6-1.3 1-2.3 1.4-3.9 2.7.6 3.3.8 3.3 1.1 0 .2-.4.4-1.5.5-.6 1.2-.8 1.6-1.3 2.5H209zm-7.3 5.4h-6c-.5 0-1 0-1.8.1l-.1-.9c.8.1 1.3.2 2.1.2h5.6c.4-.5.6-.7 1-1.2.8.5 1 .7 1.7 1.2.2.2.3.3.3.4 0 .2-.2.3-.8.6v5.8c0 .3-.1.4-.3.6-.2.1-.8.2-1.2.2-.3 0-.4-.1-.4-.4v-.7h-7.1v6.7c0 .4.2.6.7.6.8.1 3.4.1 7.1.1h6.3c1.3 0 2-.1 2.3-.3.2-.2.4-.6.6-1.2.3-.8.3-.8 1.4-4.7l.4.1-.4 4.8c0 .3-.1.5-.1.6 0 .3.1.3.3.4.6.2 1 .5 1 1 0 .3-.3.7-.8.9-.8.2-2.8.3-9.2.3-7.2 0-9.4-.1-10.3-.3-.9-.2-1.2-.7-1.3-2l.1-3.5V183c.9.4 1.2.6 2.1 1.1h6.9v-5.3zm-9.2 32.4c1.5 1.2 2.4 1.5 4.5 1.5 1.2 0 2.3-.1 4-.3-.1-4.3-.3-4.7-2.4-5 .4-.4.6-.4 1.4-.4.8 0 1.7.1 2.4.4.7.2 1 .5 1 .9 0 .2 0 .2-.4 1-.3.5-.4 1.5-.5 3 2.8-.5 4.3-1 5.2-1.7.1-.1.3-.1.3-.1.3 0 1.1.3 1.5.5.3.2.5.4.5.7 0 .4-.4.6-2.2 1-1.9.4-3.7.8-5.3 1v4.3c1.1-.2 2.2-.4 3.2-.8.7-.3.9-.3 1.4-.7.1-.1.3-.1.4-.1.4 0 1.1.2 1.4.4.2.1.3.3.3.5 0 .5-.4.7-2.2 1.2-1.4.4-3.2.7-4.6.8.1 1.1.1 1.5.1 2.5.1 1.1.1 1.5.2 2.2 2.6.5 5 1.4 6.2 2.4.5.5.8 1.1.8 1.8 0 .6-.3 1-.6 1s-.4-.1-1.1-.8c-.5-.4-1.5-1.3-2.4-1.7-1-.6-1.7-.9-2.8-1.2.1.6.1.9.1 1.2 0 1.1-.3 1.8-1 2.4-.8.6-2.2 1-3.8 1-2.8 0-4.7-1.2-4.7-3 0-2 2.6-3.4 6.3-3.4h1.4v-4.3c-1.1.1-1.7.1-2.1.1-1.8 0-3.1-.2-3.7-.6-.8-.5-1.3-1.3-1.3-2.1 0-.2 0-.5.1-.8h.4c0 .9.2 1.3.6 1.6.4.4 1.7.6 3.3.6.8 0 1.5-.1 2.7-.2v-1.9l-.1-2v-.3c-1.5.1-2.7.2-3.6.2-2.7 0-3.8-.5-5.2-2.4l.3-.4zm6.2 13.8c-1.1 0-2.2.2-3.1.5-1 .4-1.5 1-1.5 1.7 0 1 1.1 1.6 3.1 1.6 1.4 0 2.5-.4 3.2-1 .4-.3.5-.8.6-1.5 0-.2.1-.8.1-1.1v-.1c-1.1-.1-1.6-.1-2.4-.1zm-3.5 27.7c0-.4 0-.4.1-1.2.1-.6.1-.6.1-1-.8.6-2.3 1.6-2.8 1.9-.5.4-.7.4-1 .4-.7 0-2.1-1.7-2.1-2.5 0-.1 0-.3.1-.5.6.9 1.2 1.3 1.8 1.3.6 0 2.4-.8 4-1.7.1-1.2.2-2 .2-3 0-1.6-.3-2.1-1.6-3.1.2-.1.2-.1.4-.1.4 0 1.1.3 1.8.8.9.6 1.5 1.3 1.5 1.8 0 .3 0 .3-.3 1.1-.2.5-.4 1.4-.5 2.2.6.6.8.9.8 1.1 0 .2 0 .2-.4.8-.3.6-.6 1.1-.9 1.8-.1.5-.1.6-.1 1 2.7-2.6 3.7-3.4 4.9-4.3 2-1.4 3.3-2 4.5-2 .9 0 1.7.4 2.2 1 .5.6.8 1.4.8 2.5s0 1.3-.6 4.1c-.3 1.8-.5 3.4-.5 4.6 0 1.1.2 1.7.7 2.1.4.3.9.4 1.4.4 1.4 0 3.4-.7 5.2-2l.2.3c-2 2.1-4.2 3.2-6.2 3.2-2.1 0-3.3-1.4-3.3-3.9 0-1 .3-2.8.7-5 .6-3 .7-3.4.7-4.4 0-1.4-.6-2.2-1.7-2.2-1.2 0-2.7.8-4.9 2.8-1.5 1.3-2.8 2.7-4.3 4.4v1.5c0 1.5.1 2.9.3 5 .1.7.1.9.1 1.3 0 1.6-.5 2.9-1.2 2.9-.3 0-.5-.2-.7-.8-.1-.3-.4-1.1-.5-1.3-.3-.6-1.2-1.7-2.5-3.1-.6 1.3-.7 1.5-1 1.5-.3 0-.5-.2-.6-.6-.2-.4-.3-1.1-.3-1.5 0-.3 0-.4.5-.8.4-.4.9-1 1.8-2.5l3.2-4.3zm-1.7 5.2c-.6 1.2-1 1.8-1.5 3 1.7 1.4 2.2 1.8 3 2.3.1-1.1.1-1.1.1-5.2 0-1.4 0-2 .1-3.2-.4.8-.4.8-1.7 3.1zm10.2 24.5c-1.1.3-3.7 1.4-5.7 2.2-.6.3-.9.4-1.1.4-.5 0-1.1-.4-1.6-1.2-.5-.8-.8-1.5-.8-2.1 0-.3.1-.4.3-.7.4 1.3 1.2 2 2.1 2 .7 0 3.4-.6 5.3-1.2 1.1-.4 1.1-.4 1.7-.9.1-.1.3-.1.4-.1.4 0 .8.3 1.5 1 .6.6.8.9.8 1.3 0 .2-.1.4-.5.5-.8.4-1.1.6-2.3 1.9-1.8 1.8-2.8 2.8-4.1 4.2-2.7 2.9-2.7 2.9-3.3 3.5l.1.1c3-1.9 5.3-2.7 7.6-2.7 3.6 0 6 2.1 6 5.2 0 4-3.7 7-8.8 7-2.7 0-4.5-1.1-4.5-2.8 0-1.4 1.3-2.4 3-2.4 1.4 0 2.6.5 3.6 1.4.5.5.8.9 1.2 1.7 2.1-.9 3.4-2.9 3.4-5.2 0-1.5-.6-2.8-1.7-3.5-.6-.3-1.7-.6-2.8-.6-2.7 0-6.6 2.2-8.9 5.2-.5.6-.7.8-1 .8-.4 0-.9-1-.9-1.8 0-.3.2-.6.6-1 1.1-.8 1.5-1.3 3.9-3.9 3.4-3.8 4.5-5.1 6.7-7.9.2-.3.2-.3.3-.4l-.1-.1h-.1s-.1 0-.1.1h-.2zm-4.3 16.1c-1.1 0-1.8.6-1.8 1.4 0 1 1.2 1.7 3.2 1.7.8 0 1.1-.1 2-.3-.6-1.7-1.8-2.8-3.4-2.8zm-68.6-86.8c.5-.7.7-1 1.3-1.6 1 .8 1.2 1.1 2.1 2 .1.1.1.1.1.2s-.1.1-.2.1H130v2c1.5 1.2 2.5 2.5 2.5 3.4 0 .6-.6 1.5-1 1.5-.2 0-.3-.2-.4-.6-.2-1.7-.7-3.2-1.1-3.9v11.8c0 1.8 0 2.5.1 4.3v.1c0 .1-.1.2-.2.3-.2.1-1 .2-1.4.2-.3 0-.4-.1-.4-.3v-.1c.1-2.5.2-3.1.3-5.5l.1-5.9.2-4.1c-.6 2.1-1 3.2-1.8 5.1-.9 1.9-1.4 2.8-2.5 4.3l-.3-.2c1.1-2.2 1.8-4 2.9-7.4.6-2.1.9-3.1 1.1-4.8h-1.5c-.9 0-1.3 0-1.9.1l-.1-1c.8.2 1.1.2 2 .2h1.6v-3.4c0-.5 0-.8-.1-2.5 3 .4 3.2.4 3.2.7 0 .3-.3.4-1.2.7v4.5h.7zm15.8 17.7c.7-.9.9-1.1 1.6-2 1.1.9 1.5 1.2 2.5 2.2.1.1.1.2.1.2 0 .1-.1.2-.2.2H134c-2 0-2 0-2.4.1l-.1-1.1c.8.2 1.8.3 2.5.3h12.6zm-6.7-21.3c-1 2.2-1 2.2-1.8 3.9h2.4c.4-.5.5-.6 1-1.1.6.4.8.6 1.4 1.1.2.2.3.3.3.4 0 .2-.2.4-.9.7-.4 8.7-.6 9.8-1.1 12.7-.2 1.1-.5 1.6-1 1.9-.4.2-.7.3-2.1.6-.1-1.3-.6-1.5-3.1-1.8v-.5c1.1.1 2.6.2 3.1.2 1.2 0 1.2 0 1.4-.3.2-.5.6-3.3.8-5.8.3-3.1.3-4.8.3-7.4h-2.8l-.3.7c-.2.3-.3.3-.6.3-.8 0-1.2-.1-1.2-.3 0-.1 0-.1.1-.3 1.3-2.7 1.4-2.7 2.4-5h-3.4c-.7 0-1.4.1-1.8.1l-.2-1c.8.1 1.4.2 2 .2H146c.6-.8.9-1.1 1.5-1.8 1.1.8 1.5 1.1 2.5 2.1.1.1.1.2.1.2 0 .1-.1.2-.3.2h-9.9zm-3.3 7.5c.3-.4.4-.6.8-1 .6.4.7.5 1.2 1 .2.2.3.3.3.4 0 .1-.1.2-.7.7v2.7c0 2.7 0 2.9.1 4.5v.1c0 .1-.1.1-.2.2s-.9.2-1.1.2c-.1 0-.2-.1-.2-.2v-.9h-2.3v1.4c0 .3-.2.3-.8.4h-.5c-.2 0-.3-.1-.3-.3v-.1c.1-1.8.1-4.9.1-6.9 0-1.3 0-1.4-.1-3.2.8.5 1.1.7 1.8 1.2h1.9zm-2.2 7h2.3v-6.4h-2.3v6.4zm12.1-8.6c.4-.6.6-.8 1-1.3.7.5.9.6 1.5 1.2.2.2.3.3.3.4 0 .3-.3.4-1 .7-.6 2.7-.9 3.9-1.7 5.8 1.8 2 2.4 2.9 2.4 3.6 0 .9-.5 1.9-.9 1.9-.3 0-.4-.1-.8-1.2-.2-.6-.8-1.8-1.4-2.9-1.4 2.7-2.5 4.2-4.3 5.8l-.2-.2c1.8-2.4 2.6-3.9 3.7-7-.5-.7-.7-1-2.3-3.1l.3-.3c1.1.9 1.5 1.3 2.4 2.1.7-2.3.9-3.1 1.1-5h-2.1c-.8 0-1.2 0-1.6.1l-.1-.9c.5.1 1 .2 1.7.2h2zm-2.7 38.6l1.8-2.2c1.2 1.1 1.6 1.4 2.8 2.4.1.1.1.2.1.2 0 .1-.1.2-.3.2h-10.7v12.1h8.1c.8-1 1-1.3 1.8-2.3 1.3 1.1 1.7 1.4 2.9 2.5.1.1.1.2.1.2 0 .1-.1.2-.2.2h-22.7c-.9 0-1.5.1-2.3.2l-.2-1.1c1 .2 1.4.2 2.5.2h7.9v-19.3c0-1.6-.1-2.5-.2-3.4.7.1 1.2.2 1.5.2 1.5.2 1.8.3 1.8.5s-.3.4-1 .6v8.7h6.3zm-6.6 48.8c3-.9 5-2 6.6-3.9 1.7-1.9 2.5-4.2 2.5-6.7 0-2.7-1.1-4.9-3.2-6.2-1.2-.8-3.1-1.3-4.8-1.3-.3 0-.5 0-1 .1.7 1 .9 1.5.9 2.3 0 2.2-1.6 6.3-3.7 9.7-1.8 2.8-3.1 4.2-4.2 4.2-.5 0-.9-.2-1.2-.6-.3-.3-.3-.4-.8-1.8-.3-.7-.4-1.1-1.2-2.6-.4-.9-.6-1.7-.6-2.5 0-1.8 1-3.8 2.5-5.5 2.3-2.4 6-3.9 9.6-3.9 2.8 0 5.4.9 7.2 2.6s2.7 3.9 2.7 6.6c0 3.5-2 6.6-5.6 8.5-1.6.9-3.1 1.3-5.5 1.7l-.2-.7zm-9.2-8.7c0 1.3.4 2.7 1.1 3.7.4.5.8.8 1.1.8.6 0 2-1.5 3.3-3.7 2.1-3.3 3.6-6.9 3.6-8.7 0-.4-.1-.7-.4-1.4-4.9.9-8.7 5-8.7 9.3zm18.1 24.7c.7-.9 1-1.1 1.7-2 1.2.9 1.6 1.2 2.7 2.2l.2.2c0 .1-.1.2-.3.2H139c.3.1.3.1 1.5.6.3.1.5.3.5.4 0 .2-.2.3-1.1.3 2.7 1.8 6.1 2.7 10.8 2.9v.3c-1.1.4-1.4.8-1.7 1.9-2.8-.8-3.9-1.2-5.4-2-1.3-.8-2.5-1.5-4.1-2.8-3.1 2.7-5 3.8-9.1 5.4l-.2-.4c2.5-1.3 4.5-2.6 6.7-4.8l1.7-1.7h-8.4c0 4.2-.1 6.6-.1 7.2-.1 4-.8 7.5-2.2 10.5-.8 1.7-1.5 2.8-3.1 4.5l-.3-.2c1.8-2.9 2.6-4.9 3.1-7.9.3-1.3.3-2.2.5-4.3-.9 1-1.3 1.4-2.6 2.5v.7c0 .3-.1.5-.3.5-.3 0-.5-.5-1.4-2.7.7-.1 1.1-.3 2.5-.8l1.8-.9c.1-1.7.1-3.7.1-6.6 0-2.9 0-3.1-.1-4.4 1 .5 1.3.7 2.2 1.3h7.4v-1.1c0-.7 0-1-.1-1.6 2.9.2 3.2.3 3.2.6 0 .2-.2.3-1.1.6v1.5h6.4zm-21.7 1.8c.8.6 1.3 1.2 2.2 2.2.7.8 1 1.4 1 1.9 0 .4-.2 1.2-.4 1.5-.2.2-.3.3-.5.3-.3 0-.5-.3-.6-1-.3-1.4-1.2-3.8-1.8-4.8l.1-.1zm8.3 15.4c-.1 1.1-.5 2.4-1.1 3.4-.5.9-1.4 1.7-2 1.7-.4 0-.7-.6-.7-1.3 0-.5.1-.7.8-.9.7-.3 1.5-.8 1.8-1.2.4-.4.5-.8.7-1.7h.5zm.8-4.1v3.1c-.1.2-.1.2-.4.3-.3 0-.7.1-.9.1-.4 0-.5-.1-.5-.3.1-1.8.1-2.8.1-5.3 0-1.4 0-1.4-.1-3.6.8.4 1.1.5 1.8.9h4.3c.5-.5.5-.5.8-.9.6.4.8.5 1.4.9.1.1.1.1.1.2 0 .2-.3.4-.7.6v6c0 .5-.2.7-.7 1-.3.1-.5.2-1.4.4-.3-1-.7-1.3-2.1-1.4v-.3c1.7.1 1.7.1 2.5.1.2 0 .2-.1.2-.2v-1.4h-4.4zm4.5-2.8v-1.5h-4.6v1.5h4.6zm-4.5.6v1.7h4.6v-1.7h-4.6zm1 7.8c0-1.2 0-1.2-.1-1.8 2.6.3 2.7.3 2.7.6 0 .2 0 .2-.9.5v2.4c0 .2.1.4.2.4.3.1.9.1 1.8.1 1.2 0 3.8-.1 4.1-.1.4-.1.6-.2.8-.7.4-1 .7-1.8 1-2.6l.4.1-.1 2.3v.1c0 .3.2.5.6.6.6.1.8.3.8.6 0 .4-.3.6-1.1.8-.9.2-2.4.3-4.9.3-5.1 0-5.3-.1-5.3-2v-1.6zm.6-13.1c.8.2 1.2.2 2.3.2h2.9c.6-.6.8-.8 1.3-1.4.9.7 1.2.9 2 1.7.1.1.1.1.1.2s-.1.2-.3.2h-6c-.9 0-.9 0-2.1.2l-.2-1.1zm3.2 11.1c.9.2 2 .6 2.8 1.1.4.3.7.7.7 1.1 0 .6-.4 1.4-.8 1.4-.2 0-.3-.1-.5-.4-.6-1-1.5-2.1-2.4-2.9l.2-.3zm6-8c0 .2-.3.4-.8.4 0 2.7 0 3 .1 4.4-.1.2-.1.3-.3.3-.1.1-.7.1-1 .1-.3 0-.4-.1-.4-.3.1-1 .1-1.2.1-3.3 0-1.2 0-1.5-.1-2.1 2.1.1 2.4.2 2.4.5zm2 .9c0-.1 0-.8-.1-1.9 3 .3 3 .3 3 .6 0 .2 0 .2-1.1.6v6c0 .7-.2.9-.9 1.3-.6.3-1.1.4-1.8.5-.1-.8-.3-1.1-.7-1.3-.3-.1-.5-.1-1.6-.3v-.4c.4 0 .4 0 1.5.1.8.1.8.1 1.5.1.1 0 .2-.1.2-.4V327zm-.7 7.6c1.2.5 2.9 1.3 3.7 1.9.5.4.8.8.8 1.5 0 .8-.4 1.5-.8 1.5-.3 0-.3-.1-.7-.8-.8-1.4-1.7-2.5-3.2-3.9l.2-.2zm1.3 35.1c-2.7 3.6-6.4 5.8-9.8 5.8-2.1 0-3.8-.9-4.6-2.4-.6-1-.8-2.4-.8-4.7 0-1.5.1-4.2.2-6.7.2-3 .2-3.8.2-4.8 0-2.4-.3-2.9-2.3-3.7.3-.2.5-.3.8-.3.6 0 1.7.3 2.5.6 1.1.5 1.6 1.1 1.6 1.7 0 .2 0 .4-.3 1-.5 1.7-1.5 10.2-1.5 13.4 0 1.7.3 2.7 1.1 3.4.6.5 1.5.8 2.5.8 1.9 0 4.3-.7 6.4-1.8 1.3-.7 2.1-1.3 3.6-2.5l.4.2z"/></g><g><g><path class="st0" d="M56.6 108.7c-.6 0-1 0-1.6.1l-.1-.6c.6.1.9.1 1.7.1h3.3V106H56c-1 1.5-1.6 2.1-3.2 3.4l-.2-.1c1-1.1 1.5-1.9 2.1-3 .6-1.1.9-1.8 1-2.5.4.1.7.1.9.2.8.1 1 .2 1 .4s-.2.2-.8.3c-.3.5-.3.6-.6 1h3.6v-.6c0-.8 0-1-.1-1.6 1.6.2 1.7.2 1.8.3.1.1.2.1.2.2s-.2.3-.8.4v1.4h3.7c.5-.5.6-.7 1-1.2.8.6 1 .8 1.7 1.4 0 .1.1.1.1.2s-.1.1-.2.1h-6.3v2.3h3.2c.5-.5.6-.7 1-1.2.7.6.9.7 1.6 1.3l.1.1c0 .1-.1.1-.2.1h-5.7v2.6H66c.4-.4.8-.9 1.2-1.3.8.6 1 .8 1.8 1.5.1.1.1.1.1.2s-.1.1-.2.1H54.4c-.6 0-1.1 0-1.7.1l-.1-.7c.8.1 1.1.1 1.8.1h5.5v-2.6h-3.3zm-.4-5.5c0 .1 0 .2-.2.2-.1.1-.5.1-.8.1-.2 0-.2 0-.2-.2 0-1.3.1-1.8.1-2.5 0-2.4 0-3.7-.1-4.4.6.3.8.5 1.3.8h8.3c.2-.3.5-.5.7-.8.5.4.6.5 1.1.8l.2.2c0 .1-.2.3-.6.5v5.4c0 .1 0 .2-.2.2-.1 0-.7.1-.8.1-.2 0-.2-.1-.2-.2v-.6h-8.6v.4zm8.6-5.7h-8.6v2.2h8.6v-2.2zm-8.6 2.7v2.2h8.6v-2.2h-8.6zm1 25.2c-.3 1.1-.8 3.1-1 4-.2.8-.2 1.1-.2 1.5 0 .6 0 .6-.1.8-.1.1-.2.2-.3.2-.3 0-.6-.3-.8-.8-.4-.9-.6-2.3-.6-3.6 0-1.7.2-3.2.8-6 .2-1.1.3-1.3.3-1.6 0-.5-.1-1-.5-1.6.4 0 .8.3 1.3.9.4.5.6 1 .6 1.4 0 .2 0 .2-.3.8-.9 1.8-1.4 3.9-1.4 5.9 0 .9.1 1.5.3 2.2l.8-1.8 1-2.3h.1zm1.8-3.2c.9.6 1.4.7 2.3.7.6 0 1.3-.1 2.1-.3v-.8c0-2 0-2.3-.3-2.5-.2-.2-.6-.4-1.2-.4.3-.2.4-.3.9-.3.4 0 .9.1 1.2.2.5.2.8.4.8.6 0 .1 0 .1-.2.6s-.3 1.2-.4 2.4c.8-.2 1.4-.5 1.7-.7.2-.2.2-.2.4-.2s.6.1.8.2c.1.1.2.2.2.3 0 .4-1.3.9-3.2 1.3 0 2.4.1 3.4.2 4.9 2.1.6 3 1.3 3 2.3 0 .4-.2.7-.4.7-.1 0-.3-.1-.6-.5-.8-.8-1.2-1.1-1.9-1.4v.4c0 1.3-1.1 2.1-2.9 2.1-1.6 0-2.7-.8-2.7-1.8 0-1.2 1.3-2 3.4-2 .3 0 .6 0 1.1.1v-4.5c-.5.1-1.1.1-1.6.1-1.3 0-2.1-.3-3-1.3l.3-.2zm2.8 6.5c-1.4 0-2.3.5-2.3 1.3 0 .6.7 1.1 1.8 1.1 1 0 1.7-.3 2-.8.2-.3.2-.6.2-1.3-.5-.2-1.1-.3-1.7-.3zm-7.5 24.5c0 .1 0 .1 0 0 0 .2-.2.3-.9.3-.3 0-.4 0-.4-.2.1-3.5.1-6.7.1-9.7 0-2.4 0-3.3-.1-4.7.7.4.9.6 1.6 1h11.8c.3-.5.5-.6.8-1 .6.4.7.6 1.2 1 .1.1.2.2.2.3 0 .1-.1.3-.7.6v12.3c0 .2-.1.2-.2.2-.2.1-.7.1-.9.1s-.3-.1-.3-.2v-1.4H54.3v1.4zm0-12.8v11.2h12.2v-11.2h-3.9v6.9c0 .1.1.1.2.2h.7c.7 0 .9 0 .9-.2.1-.2.1-.2.7-3.3h.3v2.9c0 .4 0 .4.3.6.2.1.3.2.3.4 0 .3-.2.4-.6.5-.3.1-1.3.1-2.1.1s-1.2-.1-1.5-.2c-.3-.1-.4-.4-.4-.9v-7.1h-2.3c0 2.3-.2 3.7-.6 4.9-.4 1.2-1.2 2.3-2.2 3.3-.4.4-.7.6-1.3 1l-.2-.2c1-.8 1.7-2 2.3-3.4s.8-3.1.8-5.3v-.4h-3.6zm6.6 22.4h4.7c.5-.6.7-.7 1.2-1.3.7.6.9.8 1.6 1.4.1.1.1.1.1.2s-.1.1-.2.1h-7.2c.8.7 1.2 1.1 1.9 1.4.9.5 2.2 1 3.6 1.3.6.1 1.2.2 2.3.4v.3c-.6.1-.8.3-1.2 1.2-1.8-.5-2.8-1-4.4-2.1-1-.7-1.6-1.3-2.5-2.3v2.7c0 .2-.3.3-.9.3-.2 0-.3-.1-.3-.2 0-.6.1-1.4.1-1.8v-.8c-1.3 1.4-2.2 2.1-3.9 3.1-1.2.7-2 1.1-3.5 1.6l-.1-.2c2.9-1.5 4.6-2.8 6.2-4.8h-4.7c-.4 0-.7 0-1 .1l-.1-.7c.4.1.7.2 1.2.2h5.9v-1.7c-1.7.2-3.2.3-4.4.3h-1.5v-.3c1.7-.1 3.7-.4 5.9-.8 1.4-.3 3-.7 4-1 .5-.2.7-.3 1.3-.6 1.3.8 1.7 1.2 1.7 1.3 0 .1-.1.2-.2.2s-.4-.1-.8-.2c-2.1.5-2.9.7-4.7.9v1.8zm1.7 4.2c.4-.3.5-.4.9-.6.5.4.6.5 1.1.8.1.1.2.2.2.3 0 .2-.2.2-.9.2-2 .9-2 .9-2.8 1.3.3.1.4.1.4.2s-.2.2-.7.3v.6h4.9c.5-.6.6-.7 1.1-1.3.7.6 1 .8 1.7 1.4.1.1.1.1.1.2s-.1.1-.2.1h-7.6v3.4c0 .4-.1.5-.3.7-.3.2-.8.3-1.6.5-.1-.4-.2-.6-.5-.8-.2-.1-.6-.2-1.2-.3l-.7-.1c-.2 0-.4-.1-.7-.1v-.3c1.6.1 2.2.1 3.5.1.2 0 .3-.1.3-.3v-2.9h-6c-.3 0-.7 0-1 .1l-.1-.7c.5.1.7.2 1.2.2h6c0-.5 0-.8-.1-1.4.5.1.7.1 1 .2.9-.6 1.2-.8 2-1.4h-5.7c-.3 0-.5 0-.8.1l-.1-.7c.3.1.6.1.9.1h5.7zm-5.5 16.5c.5-.6.5-.6.9-1.1.5.5.7.7 1.2 1.3v.1c0 .1-.1.1-.2.1h-2.7v3.8c1-.3 1.4-.5 2.4-.9l.1.3c-.9.6-1.3.8-2.5 1.4v5.8c0 .5-.1.7-.5 1-.3.2-.6.4-1.4.5-.1-.8-.2-.9-2-1.3v-.3c1.1.1 1.4.1 2.2.2h.1c.2 0 .3-.1.3-.3V189c-.6.3-.6.3-1.6.7 0 .5-.1.7-.3.7-.2 0-.4-.4-.7-1.9.7-.1 1.7-.3 2.6-.5v-4.2h-.8c-.6 0-1.1 0-1.6.1l-.1-.7c.7.1 1.1.2 1.7.2h.8V182c0-1 0-1.7-.1-2.4.4.1.7.1.8.1.9.1 1.2.2 1.2.4s-.2.3-.8.4v3h1zM61 186c-.1 1.5-.1 1.7-.2 2.4-.4 3.5-1.4 5.4-4 7.4l-.2-.3c1.4-1.4 1.9-2.3 2.4-3.7.6-1.7.8-3.4.8-6.8 0-2.4 0-2.9-.1-3.8.6.3.8.4 1.3.8 2.1-.6 3.7-1.4 4.9-2.3.4.2.6.4.8.5.4.2.7.4.7.4.3.1.4.2.4.3 0 .1-.1.2-.3.2-.2 0-.5 0-.8-.1-2.3.8-3.7 1.2-5.7 1.5v3.1h5.2c.4-.5.6-.7 1-1.2.7.6.9.8 1.6 1.4 0 .1.1.1.1.1 0 .1-.1.1-.2.1h-3.2v9.6c0 .2-.2.3-.8.3h-.3c-.2 0-.2-.1-.2-.2l.1-5V186H61zm-7.8 25.4c1.5-1.3 3-3 4.4-5 1-1.5 1.7-2.7 1.7-3.2 0-.3-.3-.7-.8-1 .2-.1.3-.1.5-.1.4 0 .8.2 1.6.7.4.3.5.4.5.6 0 .3 0 .3-.4.7-.1.1-.1.1-.4.5-.3.4-.4.6-.8 1.1h.5c.3 0 2.4-.2 3.4-.3.3 0 .3-.1.6-.3.2-.1.4-.2.5-.2.3 0 1.3 1 1.3 1.4 0 .1-.1.2-.2.3 0 0-.2.1-.6.2-1.4 2.1-2.4 3.2-4 4.8l.3.2c1.5 1 2 1.6 2 2.4 0 .6-.2 1-.5 1-.2 0-.4-.1-.6-.5-1.2-1.8-2.8-3.3-4.8-4.6l.1-.2c1.5.6 2 .9 3 1.5 1.5-1.9 2.4-3.4 3.3-5.2-.7.1-1.3.2-1.7.3-.6.1-1 .2-1.3.2-.2.1-.4.1-.6.1-.2 0-.5-.1-1-.5-1.6 2.2-3.8 4.3-5.7 5.4l-.3-.3zm7.1 24.7c1.9-.6 3.2-1.3 4.2-2.5 1.1-1.2 1.6-2.7 1.6-4.3 0-1.7-.7-3.1-2-4-.8-.5-2-.8-3.1-.8h-.6c.4.6.6 1 .6 1.5 0 1.4-1 4-2.4 6.2-1.1 1.8-2 2.7-2.7 2.7-.3 0-.6-.1-.8-.4-.2-.2-.2-.3-.5-1.2-.2-.5-.3-.7-.8-1.7-.3-.6-.4-1.1-.4-1.6 0-1.1.6-2.5 1.6-3.6 1.5-1.5 3.8-2.5 6.2-2.5 1.8 0 3.5.6 4.6 1.7 1.2 1.1 1.7 2.5 1.7 4.2 0 2.2-1.3 4.2-3.6 5.5-1 .6-2 .8-3.5 1.1l-.1-.3zm-5.9-5.6c0 .9.3 1.7.7 2.4.3.3.5.5.7.5.4 0 1.3-1 2.1-2.4 1.3-2.1 2.3-4.4 2.3-5.6 0-.3-.1-.5-.3-.9-3 .6-5.5 3.2-5.5 6zm11.4 16c.5-.6.6-.8 1.1-1.4.8.6 1 .8 1.7 1.4.1.1.1.1.1.2s-.1.1-.2.1h-7.4c.6 1.6 1.1 2.4 2.2 3.7 1.1 1.3 2.4 2.4 3.7 3.2.6.3 1 .5 2 .9v.2c-.8.3-1 .4-1.4 1.3-1.9-1.3-2.9-2.3-4.1-3.7-1.2-1.5-1.8-2.8-2.6-4.9l.1 5.9c0 3 0 3 .1 4.8-.1.3-.2.3-1.1.3-.2 0-.3-.1-.3-.3 0-1 .1-1.3.1-2.2v-2.6l.1-5.3c-1 2.1-2.1 3.5-3.7 5.2-1.3 1.3-2.3 2.1-3.8 3l-.2-.2c2.1-1.7 3.3-3 4.8-5.1 1-1.5 1.6-2.5 2.3-4.2h-5c-.6 0-.9 0-1.4.1l-.1-.8c.5.1 1.1.2 1.5.2h5.6v-2.4c0-.5 0-1-.1-1.8 1.8.2 2.1.3 2.1.5s-.2.3-.8.5v3.3h4.7zm-12.6 27.6c1.5-1.3 3-3 4.4-5 1-1.5 1.7-2.7 1.7-3.2 0-.3-.3-.7-.8-1 .2-.1.3-.1.5-.1.4 0 .8.2 1.6.7.4.3.5.4.5.6 0 .3 0 .3-.4.7-.1.1-.1.1-.4.5-.3.4-.4.6-.8 1.1h.5c.3 0 2.4-.2 3.4-.3.3 0 .3-.1.6-.3.2-.1.4-.2.5-.2.3 0 1.3 1 1.3 1.4 0 .1-.1.2-.2.3 0 0-.2.1-.6.2-1.4 2.1-2.4 3.2-4 4.8l.3.2c1.5 1 2 1.6 2 2.4 0 .6-.2 1-.5 1-.2 0-.4-.1-.6-.5-1.2-1.8-2.8-3.3-4.8-4.6l.1-.2c1.5.6 2 .9 3 1.5 1.5-1.9 2.4-3.4 3.3-5.2-.7.1-1.3.2-1.7.3-.6.1-1 .2-1.3.2-.2.1-.4.1-.6.1-.2 0-.5-.1-1-.5-1.6 2.2-3.8 4.3-5.7 5.4l-.3-.3zm1.1 13.1c.9.7 1.3.8 2.3.8.6 0 1.1-.1 1.9-.2.4-.8.6-1.4.6-1.8 0-.5-.3-.8-1.3-1 .3-.2.5-.2.8-.2.4 0 .9.1 1.4.3.5.2.6.4.6.6 0 .1-.1.3-.3.5-.2.2-.4.5-.5.7-.3.5-.3.5-.5.7 1.5-.4 2-.6 2.6-1.2.1-.1.2-.1.3-.1.7 0 1.2.3 1.2.6 0 .2-.2.4-.8.6-1.6.5-2.5.7-3.9 1-.3.5-.5.8-1 1.4-.5.8-.6 1-1 1.4 1-.5 1.6-.7 2.3-.7 1.1 0 1.9.7 2 1.8.3-.1.3-.1 1.8-.9 1.8-.9 2.2-1.2 2.2-1.5 0-.3-.3-.6-.8-.8.2-.1.3-.1.4-.1.8 0 2 1.1 2 1.8 0 .3-.1.5-.6.6-1.1.3-3.4 1.2-4.8 1.9v1.5c0 .8-.1 1.4-.1 1.5-.1.2-.3.3-.5.3-.3 0-.6-.2-.6-.5v-.3c.1-.5.1-1.1.1-1.9-1.1.6-1.6 1-2.1 1.4-.6.6-.9 1.1-.9 1.7 0 1 1 1.4 3 1.4 1.3 0 2.5-.2 3.6-.5.1 0 .3-.1.3-.1.6 0 1.3.5 1.3.9 0 .2-.2.4-.6.5-.7.1-2.1.3-3.2.3-1.7 0-2.9-.2-3.7-.5-.9-.4-1.3-1-1.3-1.9 0-.8.4-1.6 1.3-2.5.5-.5 1-.9 2.2-1.6 0-.8-.1-1-.3-1.4-.2-.3-.5-.5-.9-.5-1.2 0-2.6 1-3.9 2.6-.3.5-.5.6-.7.6-.3 0-.5-.4-.5-1 0-.4 0-.4.5-.8 1.3-1 2.1-1.9 3.3-3.9-.6.1-.8.1-1.2.1-1.2 0-1.9-.3-2.7-1.4l.7-.2zm-.2 33.2c0 .3-.2.3-.8.3-.4 0-.5 0-.5-.2.1-2.7.1-4.6.1-7.9 0-4.3 0-6.4-.1-7.4.6.4.8.5 1.3.9h1.6c.3-.3.4-.5.7-.8.4.3.6.4 1 .8l.2.2c0 .1-.1.2-.5.4v12.8c0 .3-.1.3-.8.3-.3 0-.3 0-.3-.2v-.8h-1.8v1.6zm1.8-13.9h-1.8v3.5h1.8v-3.5zm-1.8 4v3.6h1.8v-3.6h-1.8zm0 4v3.9h1.8v-3.9h-1.8zm2.2 6.7c1.9-1.1 2.7-2 3.4-3.4.5-1.1.8-2.1.8-3.7-.6.5-1.3 1-2.2 1.6-.1.7-.1.8-.3.8-.2 0-.2 0-.8-1.9.9-.1 2.2-.5 3.3-1v-4.1c0-2.9 0-3.5-.1-4.2 1.8.2 1.9.3 1.9.4 0 .1-.2.2-.7.4v1.9c0 .7-.1 5-.1 5.5-.1 2.6-.5 4-1.5 5.3-.9 1.1-2 1.9-3.8 2.7l.1-.3zm1.4-13.3c1.3 1 2.2 2 2.2 2.6 0 .5-.4 1.2-.7 1.2-.2 0-.2-.1-.4-.8-.3-1.1-.6-1.8-1.3-2.9l.2-.1zm6.9 2.8c1.1-1.2 1.8-2.3 2.2-3.2 1.4.6 1.8.8 1.8 1 0 .2-.3.2-.9.2-1.4 1.3-1.9 1.7-3 2.4v1.9c.7.2 1.8.7 2.3.9.4.2.8.5.9.7.1.1.2.5.2.8 0 .5-.2.9-.4.9-.1 0-.2-.1-.4-.3-.7-1-1.5-1.9-2.5-2.6v5.9c0 .5 0 .5.6.5h.8c.9 0 1.1 0 1.2-.3.1-.2.2-.5.8-3.2h.3l-.1 2.7v.1c0 .2 0 .3.2.4.4.2.4.3.4.5 0 .5-.7.7-2.7.7-1.9 0-2.2 0-2.4-.2-.3-.2-.4-.4-.4-1V307c0-.9 0-1.2-.1-1.8 1.9.3 2 .3 2 .5 0 .1-.1.2-.7.4v4.6zm-9.1 17.5c.7.5 1.1 1 1.4 1.5.2.3.4 1 .6 1.9 1.2-.7 2.2-.9 3.8-1.1.2-.9.3-1.6.3-2.1s-.2-.6-.8-.6h-.3l-.1-.2c.5-.2.9-.3 1.2-.3.7 0 1.4.6 1.4 1.1 0 .3-.3 1.3-.5 2.1 3 .1 5 2.1 5 4.8 0 2-1.2 3.7-3.3 4.8-1.1.6-2.1.9-3.5 1l-.1-.3c1.5-.5 2.5-1 3.5-1.8 1.3-1.1 2-2.6 2-4.1 0-1.4-.6-2.5-1.5-3.2-.6-.5-1.3-.6-2.2-.7-.7 2-1.9 4.2-3 5.6.3.4.3.5.6.9.5.6.6.7.6.9 0 .2-.2.4-.4.4-.4 0-1-.5-1.5-1.3-.3.4-.7.8-1.4 1.3-.6.4-1 .6-1.4.6-.4 0-.6-.2-.8-.9-.2-.6-.2-.7-.5-1.2-.3-.4-.4-.7-.4-1.1 0-1.4 1-3 2.8-4.2-.3-2.1-.5-2.6-1.4-3.7l-.1-.1zm-.1 6.2c-.4.7-.6 1.4-.6 2.1 0 .8.5 1.7.9 1.7s1.3-.6 2.2-1.5c-.5-1.2-.7-2-1.1-3.9-.7.6-1.1 1-1.4 1.6zm3.2 1.3c1-1.4 1.8-3 2.4-4.8-1.5.2-2.4.5-3.5 1.3.6 2.1.7 2.6 1.1 3.5zm-4.8 14.7c.9.8 1.4 1 2.3 1 .5 0 1-.1 1.6-.2.5-1.2.6-1.9.6-2.6 0-.6-.3-1-1.2-1.4.2-.1.3-.1.4-.1.4 0 .9.2 1.4.4.6.3.8.5.8.8 0 .1 0 .3-.2.5-.1.1-.5.9-1.1 2.2 1.3-.5 1.5-.6 2-1 .1-.1.2-.1.4-.1.7 0 1.2.2 1.2.5 0 .5-1.1.9-4 1.6-.2.4-.5 1.1-1 2.2-.5 1.2-1.9 4.3-2.1 4.6-.3.5-.4.6-.6.6-.3 0-.6-.6-.6-1.3 0-.4 0-.5.2-.6.4-.4.6-.7.9-1.1.9-1.3 1.5-2.5 2.3-4.2-.4.1-.6.1-.8.1-.6 0-1.1-.1-1.6-.4-.5-.3-1-.7-1.3-1.3l.4-.2zm9.5 1c1.2.1 2.3.4 3.1 1 .7.5 1.1 1 1.1 1.4 0 .3-.2.5-.5.5-.1 0-.3 0-.4-.1-.5-.3-.8-.4-1.8-.4-1.4 0-1.9.4-1.9 1.6 0 .5.1 1.3.4 3.1 1.1.3 2 .8 2.6 1.2.5.4.7.8.7 1.4 0 .4-.1.6-.4.6-.2 0-.3-.1-.6-.5-.6-.7-1.2-1.1-2.2-1.6v.3c0 .7-.1 1.1-.5 1.5-.5.5-1.3.8-2.3.8-1.6 0-2.7-.8-2.7-1.9 0-1.3 1.4-2.1 3.4-2.1.4 0 .6 0 1.1.1-.1-1.4-.1-1.6-.1-1.8 0-1.5.1-2 .6-2.6.4-.4.9-.6 1.7-.8.3-.1.3-.1 1-.2-.5-.5-1-.8-2.3-1.2v-.3zm-1 7.9c-.6-.2-1-.2-1.5-.2-1.5 0-2.5.5-2.5 1.4 0 .7.7 1.1 1.8 1.1 1.5 0 2.2-.6 2.2-1.7v-.6zM56.2 380c1.4.8 2.4 1.2 2.8 1.2.4 0 .7-.4 1.2-1.5.6-1.5 1.1-3.5 1.1-4.8 0-.8-.2-1.2-.5-1.5-.2-.1-.4-.2-.8-.2-.5 0-.8.1-1.9.4-.3.6-.3.6-1 2.4-.1.2-.5 1.1-1.1 2.5-.7 1.7-1.3 3-1.6 3.5-.1.2-.3.3-.4.3-.3 0-.5-.5-.5-1.2 0-.4.1-.6.4-1 .8-1 1.6-2.5 3.3-6.3-1.2.4-2 .7-2.3.9-.3.2-.4.2-.5.2-.2 0-.6-.2-.8-.5-.3-.4-.6-1-.6-1.4 0-.1 0-.2.1-.4.4.7.7 1 1.4 1 .4 0 1.7-.3 3.1-.6.4-1 .7-2.3.7-3 0-.6-.4-.9-1.4-1.2.2-.2.3-.2.5-.2.3 0 .7.1 1.2.2.8.2 1.3.6 1.3 1 0 .1 0 .2-.3.5l-1.2 2.4c.8-.2 1.1-.2 1.6-.2 1.5 0 2.3.9 2.3 2.8 0 2.3-.9 5.3-2 6.4-.5.5-1.2.8-1.7.8-.3 0-.5-.1-.5-.4 0-.5-.1-.6-2-2.1h.1zm7.9-7.3c1.4.4 2.5 1.1 3.3 2.2.7.9 1 1.7 1 2.5 0 .6-.3 1-.7 1-.1 0-.2 0-.4-.1-.3-.2-.4-.2-.7-.2-.6 0-.7 0-2.2.2l-.1-.2c1.8-.5 2.2-.7 2.8-.9-.2-1.7-1.4-3.4-3-4.1v-.4zm.6-3.6c.7.4 1.2.7 1.6 1.1.6.6.9 1 .9 1.4s-.3.8-.6.8c-.2 0-.2 0-.8-1.2-.3-.6-.9-1.4-1.4-1.9l.3-.2zm1.9-1c.6.3 1.2.6 1.7 1 .7.5.9.9.9 1.4 0 .4-.2.7-.5.7-.2 0-.3-.1-.4-.3-.6-1.1-1-1.6-2-2.6l.3-.2zm-8.3 20.8c.6.9 1.1 1.2 2.3 1.6.3.1.9.3 1.3.3.3.1.5.2.7.5.3.3.4.6.4.8s-.2.4-.4.4c-.1 0-.1 0-.4-.1-.3 0-.5-.1-.9-.1-.9 0-2.3.2-3.4.5-.5.1-.7.2-.8.3-.1.1-.2.3-.2.5 0 .1 0 .3.1.5.1.3.1.4.1.6 0 .1 0 .3-.1.6-.1 1-.3 2.4-.3 3.7 2.2-1.5 4.2-2.2 5.9-2.2 2 0 3.4 1.2 3.4 2.8 0 1.7-1.3 3.1-3.5 3.8-1.2.4-2.4.6-4.1.7l-.1-.3c2.1-.3 3.3-.8 4.5-1.6 1.2-.9 1.8-1.8 1.8-2.9 0-1.2-.9-2-2.2-2-1.3 0-2.9.7-4.3 2-.5.4-.7.7-1 1.1-.2.3-.3.4-.5.4-.3 0-.5-.2-.8-.6-.2-.4-.4-.7-.4-.9 0 0 0-.2.1-.3.1-.3.1-.4.2-1.1 0-.4.1-.9.2-1.5.3-1.4.3-2 .3-2.4 0-.6.1-.8.3-1 .3-.3.8-.5 1.9-.8l2.1-.7c-.7-.3-1.2-.6-1.6-1-.4-.4-.6-.7-.9-1.4l.3-.2zm10.7 23c0 1.3-1 2.3-2.3 2.3s-2.3-1-2.3-2.3c0-1.3 1-2.3 2.3-2.3 1.3 0 2.3 1 2.3 2.3zm-4.1 0c0 1 .8 1.7 1.7 1.7 1 0 1.7-.8 1.7-1.7s-.8-1.7-1.7-1.7-1.7.7-1.7 1.7zM10.1 106.7c1.6-1.9 2.1-2.5 3-4 .8-1.3 1-1.7 1.5-3.3.4.2.8.3 1 .4.8.3 1 .4 1 .6 0 .1-.3.2-.6.2h-.3c-.5.9-.9 1.4-1.9 2.8.9.1 1.2.2 1.2.4s-.2.3-.6.4v8c0 .2-.1.3-.2.3-.2 0-.5.1-.7.1-.2 0-.3-.1-.3-.3.1-2.5.1-2.5.1-4.8v-3.3c-1.1 1.3-1.6 1.8-2.7 2.7l-.5-.2zm13.7-8l1.1-1.4c.8.6 1.1.9 1.9 1.6l.1.1c0 .1-.1.1-.1.1H11.9c-.4 0-1.1.1-1.5.2l-.2-.8c.7.1 1.2.2 1.7.2h5.7v-1.2c0-.6 0-.8-.1-1.4 1.6.1 2.1.2 2.1.4 0 .1-.1.2-.8.4v1.8h5zm-.5 3.1c.3-.3.5-.6.8-.8.5.3.9.7 1.3 1 .1.1.2.2.2.3 0 .1-.1.2-.9.5-1 2.5-2 4.1-3.4 5.6 1.7 1.3 2.8 1.7 5.8 2.5v.2c-.8.1-.9.2-1.5 1.1-1.1-.3-1.7-.6-2.8-1.4-.9-.6-1.5-1.1-2.1-1.7-.6.5-1 .9-1.6 1.3-1.5 1.1-2.3 1.5-4.1 2.2l-.1-.2c2.5-1.4 3.8-2.5 5.2-4-1.3-1.6-1.8-2.4-2.5-3.7-1 1.2-1.4 1.6-2.5 2.4l-.1-.2c1.3-1.5 2.2-2.9 3-4.4.5-1 .9-2.1 1.1-3 .8.2 1.7.5 1.8.6.1 0 .1.1.1.1 0 .2-.3.3-.9.3-.4.8-.4.8-.7 1.3h3.9zm-4.4.4c-.5.8-.8 1.3-1.3 1.9.8 1.5 1.4 2.2 2.8 3.4 1.2-1.5 2.2-3.2 3-5.4h-4.5zm.3.6c.8.3 1.1.5 1.5.8.7.4.8.5.8.9 0 .5-.3 1.1-.5 1.1-.1 0-.2-.1-.3-.3-.5-1-1-1.7-1.6-2.2l.1-.3zm-4 22.6c-.3 1.1-.8 3.1-1 4-.2.8-.2 1.1-.2 1.5 0 .6 0 .6-.1.8-.1.1-.2.2-.3.2-.3 0-.6-.3-.8-.8-.4-.9-.6-2.3-.6-3.6 0-1.7.2-3.2.8-6 .2-1.1.3-1.3.3-1.6 0-.5-.1-1-.5-1.6.4 0 .8.3 1.3.9.4.5.6 1 .6 1.4 0 .2 0 .2-.3.8-.9 1.8-1.4 3.9-1.4 5.9 0 .9.1 1.5.3 2.2l.8-1.8 1-2.3h.1zm1.8-3.2c.9.6 1.4.7 2.3.7.6 0 1.3-.1 2.1-.3v-.8c0-2 0-2.3-.3-2.5-.2-.2-.6-.4-1.2-.4.3-.2.4-.3.9-.3.4 0 .9.1 1.2.2.5.2.8.4.8.6 0 .1 0 .1-.2.6s-.3 1.2-.4 2.4c.8-.2 1.4-.5 1.7-.7.2-.2.2-.2.4-.2s.6.1.8.2c.1.1.2.2.2.3 0 .4-1.3.9-3.2 1.3 0 2.4.1 3.4.2 4.9 2.1.6 3 1.3 3 2.3 0 .4-.2.7-.4.7-.1 0-.3-.1-.6-.5-.8-.8-1.2-1.1-1.9-1.4v.4c0 1.3-1.1 2.1-2.9 2.1-1.6 0-2.7-.8-2.7-1.8 0-1.2 1.3-2 3.4-2 .3 0 .6 0 1.1.1v-4.5c-.5.1-1.1.1-1.6.1-1.3 0-2.1-.3-3-1.3l.3-.2zm2.8 6.5c-1.4 0-2.3.5-2.3 1.3 0 .6.7 1.1 1.8 1.1 1 0 1.7-.3 2-.8.2-.3.2-.6.2-1.3-.5-.2-1.1-.3-1.7-.3zm-4.7 24.6c1.8-1.4 2.9-2.5 4.1-4 1.5-1.9 2.5-3.8 3-5.5-1.7.1-3.4.4-5.2.8-1.1.3-1.5.4-1.9.6-.3.1-.4.2-.5.2-.6 0-1.7-1.3-1.7-2.1 0-.1 0-.2.1-.3.4.7.9 1 1.6 1 .7 0 3.7-.4 6.1-.8 1-.2 1.1-.2 1.5-.4.1-.1.2-.1.3-.1.2 0 .4.2.8.5.5.5.7.8.7 1 0 .1-.1.3-.3.4-.3.2-.4.3-.7.9-1.9 3.7-4.8 6.6-7.8 7.9l-.1-.1zm-.3-13.9c.6.7 1.2 1 1.9 1 1.2 0 3.4-.5 4.1-.9.1-.1.2-.1.4-.1.5 0 1.4.6 1.4 1 0 .2-.2.3-.7.4-2.1.3-3.6.5-4.6.5-1.4 0-1.9-.3-2.8-1.7l.3-.2zm-3.6 30.2c2.3-1.2 4.7-3 6.8-5.1 1.8-1.7 2.9-3.2 2.9-3.7 0-.3-.3-.6-1-1 .2-.1.2-.1.4-.1.5 0 1 .2 1.5.5.6.4.9.8.9 1.2 0 .2 0 .2-.7.8-.2.1-.2.1-1.5 1.4-1.3 1.2-1.4 1.3-2.1 1.9.7.5 1 .8 1.1 1 .1.2.1 1 .1 2.6 0 1.3.1 2.4.1 3.4v1c0 .6-.1.9-.4.9-.4 0-1.2-1-1.2-1.5 0-.1 0-.1.1-.5.2-.5.3-2.7.3-4.4 0-.9 0-1.4-.1-1.7-.1-.2-.1-.3-.4-.6-1.3 1-2.6 1.9-3.5 2.5-1 .6-2.3 1.2-3.2 1.6l-.1-.2zm4.4 10.9c.4 0 .8.1 1.3.3.8.3 1.2.6 1.2 1 0 .1 0 .1-.1.4-.2.5-.3 1.8-.3 3.9 1.4.1 3.1.6 4.2 1 .8.4 1.1.7 1.1 1.4 0 .5-.2.8-.4.8s-.2 0-.7-.4c-1.2-1.1-2.6-1.9-4.2-2.3v7.9c0 .3 0 .5-.1.6-.1.1-.2.2-.3.2-.4 0-1.2-1-1.2-1.6 0-.2 0-.3.1-.5.3-.9.4-3.2.4-7.8 0-1.3-.1-2.6-.1-3.1-.1-.8-.5-1.3-1.4-1.6.2-.2.3-.2.5-.2zm-1.8 35.4c1.3-1.1 2.5-2.7 3.3-4.5.6-1.4 1.1-3.1 1.1-3.9 0-.5-.3-.8-1.1-1.2.1-.1.2-.2.4-.2s.9.2 1.4.5c.5.3.6.4.8.6.8-.5 2.4-1.8 3.2-2.6.4-.4.6-.6.6-.7 0-.2-.2-.3-1.1-.3-1.2 0-4.3.5-6.2 1-.7.2-1.3.4-1.8.6-.1.1-.3.1-.4.1-.4 0-1-.5-1.4-1.2-.2-.3-.3-.8-.3-1 0-.1 0-.3.1-.4.3.7.9 1.1 1.8 1.1.6 0 1 0 4.3-.5.2 0 .6-.1 1.2-.1 2.8-.3 2.9-.4 3.3-.5.1 0 .1-.1.2-.1.2 0 .5.2 1 .5.8.6 1.3 1.2 1.3 1.5 0 .3-.1.3-.6.5-.3.1-.5.2-.9.4-1.5.8-2.3 1.3-4.2 2.2-.1.3-.1.3-.3.8-.8 2.5-1.5 3.9-2.6 5.1-.9 1-1.8 1.8-2.8 2.4l-.3-.1zm2.1 9.7c1.8 1.1 2.5 1.8 2.5 2.5 0 .5-.3 1-.6 1-.2 0-.3-.1-.4-.5-.5-1.2-.7-1.6-1.7-2.8l.2-.2zm1.6 9.2c1.2-.9 1.8-1.5 2.7-2.4 1.5-1.7 2.7-3.6 3.5-5.4.3-.6.3-.9.3-1.1 0-.4-.2-.6-.9-1 .2-.1.3-.1.4-.1.4 0 1 .2 1.5.6.5.3.7.6.7.8 0 .2 0 .2-.3.5-.1.1-.4.5-.6 1-1.3 2.2-1.6 2.6-2.5 3.7-1.4 1.7-3 3-4.6 3.8l-.2-.4zm1.6-9.9c.7.3 1.1.6 1.6 1s.7.7.7 1.1c0 .5-.3 1.1-.6 1.1-.2 0-.3-.1-.4-.5-.3-1.1-.7-1.8-1.4-2.5l.1-.2zm-5.3 32.9c2.8-2.4 4.4-4.2 6-6.9 1.2-2 2.1-4.2 2.1-4.8 0-.2-.1-.2-.4-.2-.3 0-2 .3-3.3.6-1.4.3-2.5.7-3.3 1-.3.1-.5.2-.7.2-.4 0-.8-.4-1.3-1-.3-.4-.5-.8-.5-1.1 0-.1 0-.2.1-.4.3.7.9 1 1.7 1 .6 0 2-.2 5.1-.7 1.6-.3 1.7-.3 2.1-.5.2-.1.2-.1.4-.1.3 0 .8.3 1.3.8.4.4.6.6.6.9 0 .2 0 .3-.3.5-.3.3-.3.4-.6 1-2.4 4.8-5.2 8-8.9 10l-.1-.3zM27.4 244c0 1.1-.9 2-2 2s-2-.9-2-2 .9-2 2-2 2 .9 2 2zm-3.4 0c0 .8.6 1.4 1.4 1.4s1.4-.6 1.4-1.4c0-.8-.6-1.4-1.4-1.4-.8 0-1.4.6-1.4 1.4zm-3.2 21.3c.7.3 1.7.6 2 .6h.3c.5 0 .7.2.7.6 0 .3-.3.5-1 .9-.6.3-.9.5-2.6 1.1.9 1.3 1.9 2.9 2.5 3.9.3.5.4.9.4 1.4 0 .7-.1 1-.5 1-.2 0-.3-.1-.6-.3-.4-.3-.8-.7-1.2-.8-.9-.4-2.1-.7-3.3-.7-2.1 0-3.4.8-3.4 2.1 0 .8.5 1.4 1.4 1.8.6.3 1.5.4 2.5.4.7 0 1.1 0 1.6-.1h.2c.5 0 1.1.6 1.1 1 0 .5-.3.6-1.6.6-1.4 0-2.6-.2-3.5-.5-1.6-.5-2.6-1.6-2.6-2.9 0-1.8 1.8-2.9 4.7-2.9 1.2 0 2.6.2 3.5.5-.4-1.2-1.2-2.6-2.2-4-1.3.4-2.5.6-3.7.6-1.4 0-2.4-.5-3.3-1.6l.2-.2c1 .7 1.7 1 2.9 1 1 0 2.1-.2 3.3-.6-.8-1-1.8-1.9-2.5-2.3-.6-.3-.7-.4-.7-.7 0-.4.5-.7 1.2-.7.6 0 1.3.1 2.1.4l-.1.3c-.4-.1-.7-.1-.8-.1-.4 0-.6.1-.6.2s.2.3.7 1c.2.2.7.8 1.4 1.7.2-.1.2-.1 1.1-.5.4-.2.8-.3 1.3-.7-.5-.4-.5-.4-1.5-1l.6-.5zm-6.3 25.5v-.8c0-.4 0-.4.1-.6-.5.4-1.5 1-1.8 1.2-.3.2-.5.3-.6.3-.5 0-1.3-1.1-1.3-1.6 0 0 0-.2.1-.3.4.6.8.9 1.2.9.4 0 1.5-.5 2.6-1.1.1-.8.1-1.3.1-1.9 0-1-.2-1.4-1-2 .1-.1.1-.1.2-.1.3 0 .7.2 1.2.5.6.4.9.8.9 1.2 0 .2 0 .2-.2.7-.1.3-.3.9-.3 1.4.4.4.5.6.5.7 0 .1 0 .1-.3.5-.2.4-.4.7-.6 1.2v.7c1.8-1.7 2.4-2.2 3.1-2.8 1.3-.9 2.1-1.3 2.9-1.3.6 0 1.1.2 1.4.6.3.4.5.9.5 1.6 0 .7 0 .8-.4 2.7-.2 1.2-.3 2.2-.3 3 0 .7.1 1.1.5 1.3.3.2.6.3.9.3.9 0 2.2-.5 3.3-1.3l.1.2c-1.3 1.3-2.7 2.1-4 2.1-1.4 0-2.1-.9-2.1-2.5 0-.6.2-1.8.5-3.2.4-1.9.5-2.2.5-2.8 0-.9-.4-1.4-1.1-1.4-.8 0-1.7.5-3.2 1.8-.9.8-1.8 1.7-2.7 2.8v.9c0 1 .1 1.8.2 3.2.1.4.1.6.1.8 0 1-.3 1.9-.8 1.9-.2 0-.3-.1-.4-.5-.1-.2-.3-.7-.3-.9-.2-.4-.8-1.1-1.6-2-.4.9-.4 1-.6 1-.2 0-.3-.1-.4-.4-.1-.3-.2-.7-.2-1 0-.2 0-.3.3-.5.3-.3.6-.7 1.2-1.6l1.8-2.9zm-1.1 3.4c-.4.8-.6 1.2-1 1.9 1.1.9 1.4 1.1 1.9 1.5 0-.7 0-.7.1-3.4 0-.9 0-1.3.1-2-.3.5-.3.5-1.1 2zm-3 15.5c.8.5 1.2.7 1.8 1.1.6-1.3.8-1.8 1.1-2.5.5-1.2.8-2.3 1-2.9 1.6.5 2.1.6 2.1.8 0 .2-.2.3-.8.3-2.1 3.4-2.4 3.8-2.9 4.5 1.2.9 1.5 1.3 1.5 1.8 0 .3-.1.7-.2.9-.1.1-.2.2-.3.2-.2 0-.2-.1-.5-.6-.7-1.3-1.6-2.4-2.8-3.5v-.1zm5.8 5.2c2.2 2.1 2.7 2.8 2.7 3.7 0 .6-.4 1.3-.8 1.3-.1 0-.2-.1-.3-.3-.1-.6-.3-1.1-.5-1.6-3.3 1-3.7 1.1-6 1.5 0 .2-.1.3-.1.4-.1.3-.1.4-.3.4-.2 0-.2-.1-.6-1.9h.4c.3 0 .6 0 1.2-.1 1-1.5 1.7-2.5 2.6-4.4 1-1.9 1.9-3.7 2.2-4.6 1.7.7 1.8.7 1.8.9 0 .2-.2.3-.8.3-1.5 2.6-2.1 3.5-3.4 5.3-.8 1.1-1.3 1.8-1.9 2.4.3 0 .6-.1.8-.1.8-.1.8-.1 1.9-.2 1.5-.2 1.5-.2 2.1-.3-.3-.8-.5-1.2-1.3-2.5l.3-.2zm1.8-8.4c.5.1.9.2 1.7.2h4.5c.3-.4.4-.5.8-.8.5.4.7.6 1.2 1 .1.1.2.2.2.3 0 .1-.1.2-.7.5-.2 5.1-.2 5.7-.4 7.7-.3 2.2-.5 3.5-.9 4.1-.4.7-.9.9-2.3 1.2-.1-.5-.2-.8-.5-1-.3-.2-.7-.3-2.1-.6v-.3c.7.1.7.1 2.1.2.7.1 1 .1 1.4.1.4 0 .5-.1.7-1.3.2-1.1.5-3.1.6-5.3.1-1.6.1-2.9.2-5.3h-4.7c-1.3 0-1.3 0-1.5.1l-.3-.8zm-1.9 22.3c.4-.5.5-.6 1-1.1.6.5.8.7 1.3 1.3 0 .1.1.1.1.1 0 .1-.1.1-.2.1H15v.7c2.2 1 2.9 1.6 2.9 2.3 0 .5-.3 1-.6 1-.1 0-.2-.1-.3-.3-.5-1-1.2-1.9-2-2.6 0 3.3 0 3.5.1 5.5 0 .2-.2.2-.9.2-.2 0-.3-.1-.3-.2.1-2.3.1-3.7.1-4.1v-1c-1 1.7-1.7 2.4-3.7 3.9l-.2-.3c1.2-1.2 2-2.2 2.7-3.5.3-.5.4-.8.8-1.7h-1.5c-.4 0-1.1.1-1.5.1l-.1-.7c.5.1 1.1.2 1.7.2H14v-1.3c0-.8 0-1-.1-1.6 1.7.2 1.9.3 1.9.4 0 .1-.1.2-.8.4v2.1h1.1zm-2.7 8.3c-.1 1.4-.3 2.2-.7 3-.4.8-.9 1.3-1.3 1.3-.3 0-.6-.4-.6-1 0-.2.1-.3.2-.5.1-.1.1-.1.5-.3.4-.3.8-.7 1.2-1.2.3-.4.3-.7.5-1.3h.2zm1.7 1v-1.2c1.7.2 1.9.2 1.9.4s-.1.2-.7.4v2.4c0 .2 0 .4.1.4.1.1.6.1 1.8.1h2.9c.3 0 .4-.1.5-.6.2-.5.5-1.2.8-2.4h.2l-.1 2.2v.3c0 .2 0 .2.4.3.2.1.3.2.3.4 0 .3-.3.5-.8.6-.4.1-1.4.1-2.5.1-2.5 0-3.5 0-3.9-.1-.6-.1-.9-.4-.9-1.2v-2.1zm2.5-1.5c.9.3 1.6.7 2.2 1.1.3.3.5.5.5.8 0 .5-.3 1-.5 1-.1 0-.2-.1-.3-.3-.1-.2-.3-.6-.5-.9-.4-.7-.7-1-1.4-1.5v-.2zm2.3-.6c0 .2-.2.3-.9.3-.3 0-.3 0-.3-.2 0-1.8.1-2.5.1-4.3 0-2.8 0-4.4-.1-5.7.7.4.9.5 1.5 1h3.9c.3-.4.4-.5.8-.8.5.4.6.5 1 .8.1.1.2.2.2.3 0 .1-.2.3-.6.5v1.2c0 2.8 0 5.5.1 7 0 .1 0 .1-.1.2s-.5.1-1 .1c-.2 0-.2-.1-.2-.2v-.8H20v.6zm4.3-8.6h-4.3v2.1h4.3v-2.1zm-4.3 2.5v2.2h4.3v-2.2h-4.3zm0 2.6v2.3h4.3v-2.3h-4.3zm3.7 4.6c2.1 1.2 3 2 3 2.7 0 .3-.2.8-.3 1-.1.2-.3.3-.4.3-.1 0-.2-.1-.3-.3-.5-1.2-1.1-2.3-2.1-3.5l.1-.2zm-8 13.2c.3-.3.4-.4.6-.8.4.3.5.4.9.8.1.1.2.2.2.3 0 .1-.1.2-.6.4v10.5c0 .1-.1.2-.6.2h-.4c-.2 0-.2-.1-.2-.2v-1.1h-3.2v1.5c0 .2-.1.3-.6.3h-.2c-.3 0-.3 0-.3-.2.1-2 .1-2.6.1-5.7 0-4 0-5-.1-6.9.6.4.8.5 1.4.9h.5c.6-2 .7-2.6.7-3.4.7.2 1.6.4 1.9.6.1.1.2.1.2.2 0 .2-.1.2-.8.3-.5 1.1-.8 1.5-1.5 2.4h2zm0 4.5v-4.1h-3.2v4.1h3.2zm-3.2.4v4.9h3.2v-4.9h-3.2zm12.3-4.9c.3-.4.5-.5.8-.9.5.4.6.5 1.1.9.1.1.2.2.2.3 0 .2 0 .2-.7.5-.1 4.2-.1 4.6-.4 6.8-.3 2.1-.6 3.4-1.1 4-.3.5-.6.6-2.1.8-.2-.6-.3-.8-.6-1-.2-.1-.5-.2-.9-.3l-.5-.1c-.2 0-.3 0-.5-.1v-.3c.3 0 .6 0 .8.1 1 .1 1.3.1 1.7.1 1 0 1.1 0 1.2-.3.3-.6.6-1.9.7-3.4.3-2.1.3-3.8.3-6.8h-4.9c-1.1 2.1-1.7 3-2.6 4l-.2-.1c.9-1.4 1.4-2.6 2-4.3.5-1.4.7-2.5.8-3.5.8.2 1.7.4 1.9.5.1 0 .2.1.2.2s-.1.2-.8.4c-.3 1-.5 1.4-1 2.5h4.6zm-5.3 2.8c1.3.8 1.9 1.4 2.6 2.1.5.5.6.8.6 1.3 0 .7-.3 1.3-.6 1.3-.1 0-.3-.1-.4-.4-.2-.6-.5-1.2-.8-1.9-.5-1-.8-1.4-1.6-2.2l.2-.2zM15.2 376c0 .2-.3 1.3-.8 3.4-.3 1.1-.3 1.3-.3 1.9 0 .5 0 .7-.1.8-.1.2-.2.3-.4.3-.3 0-.6-.3-.8-.7-.4-.9-.6-2.4-.6-3.8 0-.5.1-1.2.1-1.9.1-1 .1-1 .6-3.4.2-.8.3-1.3.3-1.7 0-.6-.1-1-.5-1.7.4 0 .7.3 1.2.9.5.6.7 1 .7 1.4 0 .3 0 .4-.4 1.1-.4.8-.8 2-1 2.9-.2.7-.2 1.5-.2 2.2 0 1 .1 1.6.3 2.4.3-.6.5-1 .6-1.5l1-2.5.3-.1zm2.2.9c0 .4-.1.5-.1.8 0 2 1.1 2.8 3.9 2.8.5 0 1 0 1.5-.1.4-.1.4-.1 1-.3.1 0 .2-.1.3-.1.5 0 1.1.6 1.1 1.1 0 .2-.1.4-.4.5-.4.1-1.2.2-2.3.2-2.2 0-3.9-.4-4.7-1.1-.6-.6-1-1.4-1-2.3 0-.5.1-.8.2-1.4l.5-.1zm0-5.8c.6.4 1 .5 1.7.5 1.1 0 2.9-.4 3.6-.8.2-.1.3-.1.4-.1.1 0 .4.1.6.3.4.2.6.4.6.7 0 .2-.1.3-.5.4-1.2.2-1.9.3-2.6.6-.6.2-1.6.8-2.3 1.3l-.2-.2c.8-.7 1.4-1.2 1.7-1.4h-.7c-1 0-1.7-.3-2.4-1l.1-.3zM27 391c0 1.3-1 2.3-2.3 2.3s-2.3-1-2.3-2.3 1-2.3 2.3-2.3c1.3 0 2.3 1 2.3 2.3zm-4.1 0c0 1 .8 1.7 1.7 1.7 1 0 1.7-.8 1.7-1.7 0-1-.8-1.7-1.7-1.7s-1.7.7-1.7 1.7z"/></g></g><line x1="201.4" y1="4.8" x2="201.4" y2="64.8" fill="none" stroke="#76544b" stroke-miterlimit="10"/></svg>