<svg version="1.1" id="レイヤー_1" xmlns="http://www.w3.org/2000/svg" x="0" y="0" viewBox="0 0 275.4 37.3" xml:space="preserve"><style type="text/css">.st1{fill:#fff}</style><polyline points="264.6,37.3 275.4,18.7 264.6,0 10.8,0 0,18.7 10.8,37.3 32.3,37.3" fill="#8d8017"/><g><g><path class="st1" d="M149.7 26.9c-1.9.4-4.5.5-6.8.5-1.8 0-3.4-.1-4.2-.3-2.7-.6-3.8-2.3-3.8-4.2 0-1.7.9-3.4 2.2-4.7l1.3.7c-1.2 1.3-1.9 2.7-1.9 3.9 0 1.3.9 2.4 2.8 2.9.7.2 2 .2 3.5.2 2.1 0 4.7-.2 6.8-.6l.1 1.6zm-9.9-11.1c1.1-.9 2.7-2 3.9-2.6-1.7.2-5.5.3-7.9.3V12h1.2c2.8 0 8.6 0 11.4-.7l.2 1.6c-.7.1-1.3.2-2.3.7-1.2.5-3.4 1.7-5.1 3.1l-1.4-.9zm9.8 3.1c-.6-1-2-2.3-2.9-3l.7-.7c1.1.8 2.3 2 3 3l-.8.7zm2.4-2.1c-.6-.9-1.9-2.2-2.9-3l.7-.7c1.1.8 2.4 2.1 3 3l-.8.7zm24.6.2l1.1.3c-.1.2-2.8 3.9-5.3 6l-1.2-.8c1.2-1 2.7-2.6 3.8-4h-6.4c0 .1-.2.2-.4.2v8.6c0 .9-.2 1.4-1 1.6-.7.2-2 .2-4 .2-.1-.4-.4-1-.6-1.4h2.5c1.4 0 1.5 0 1.5-.5v-8.8h-9.1V17h11.8c-1.8-1.2-4.6-2.5-6.9-3.3l1-1.1c1.4.5 2.9 1.1 4.3 1.8 1.5-.8 3.1-2 4.3-3.1h-12.5V10h13.6c.4 0 .5 0 .8-.1l1.3.9c-.1.1-.2.2-.4.2-1.4 1.4-3.6 3-5.6 4.2.9.5 1.6.9 2.2 1.3l-.4.5h5.6zm8.8 4.8c0 .1-.2.2-.4.2-.4 1.9-1 4-1.7 5.3-.3-.2-.8-.4-1.1-.6.7-1.2 1.3-3.3 1.6-5.3l1.6.4zm2.4-12.4c-.1.2-.3.2-.5.2-.7 1.3-1.8 3.1-2.7 4.3.6.6 1.1 1.1 1.5 1.7 1.1-1.5 2.1-3.1 2.8-4.3l1.6.7c-.1.1-.2.2-.5.2-1.2 1.9-3.2 4.5-4.9 6.4 1.4 0 2.9 0 4.5-.1-.4-.7-.9-1.5-1.5-2.1.6-.3.9-.4 1.1-.6 1.1 1.4 2.3 3.2 2.8 4.4l-1.1.7c-.2-.4-.4-.8-.6-1.3l-2.6.1v9.4h-1.4v-9.4c-1.4 0-2.6.1-3.6.1 0 .2-.2.3-.3.3l-.4-1.7h1.7c.5-.6 1.1-1.3 1.6-2-.7-.9-2-2.2-3-3.1l.7-.9c.2.2.4.4.7.5.9-1.3 1.9-3.1 2.4-4.4l1.7.9zm2.6 16.8c-.2-1.2-.9-3-1.6-4.4l1.2-.4c.7 1.4 1.4 3.2 1.7 4.4l-1.3.4zm11.1-13.4l.8.1v.5c-.4 10.3-.7 13.8-1.6 14.9-.6.7-1.2.9-2.7.9-.7 0-1.7 0-2.5-.1 0-.4-.2-1-.5-1.4 1.5.1 2.9.2 3.5.2.4 0 .7-.1 1-.4.7-.8 1.1-4.2 1.4-13.1H194c-.6 1.4-1.3 2.6-2 3.5-.3-.2-.8-.6-1.2-.8 1.5-1.9 2.8-5.2 3.5-8.4l1.8.5c0 .2-.2.3-.5.2-.3 1.2-.7 2.3-1.1 3.5h6.7l.3-.1zm-7.2 4.9c1.3 1.6 2.6 3.7 3.2 5.2l-1.3.7c-.5-1.4-1.8-3.6-3.1-5.3l1.2-.6zm30.7-.3c0 .2-.2.3-.4.3v2.2h3.1v1.4h-3.1v6.1c0 .9-.2 1.3-.8 1.5-.6.2-1.7.2-3.5.2-.1-.4-.3-1-.5-1.4h2.1c1.1 0 1.3 0 1.3-.4v-6.1h-7.8v-.9l-2.6.7v8h-1.4v-7.6l-2.9.8c0 .2-.1.3-.3.4l-.6-1.7c1-.2 2.4-.5 3.9-.9v-5.4h-2c-.2 1.3-.6 2.6-.9 3.5-.2-.2-.7-.6-1-.7.7-1.8 1.1-4.8 1.3-7.6l1.7.4c-.1.1-.2.2-.5.2-.1.9-.2 1.9-.4 2.8h1.7V8.7l1.9.1c0 .2-.2.3-.4.3v4.2h2.8v1.4h-2.8v5c1-.2 2-.5 2.9-.7l.1.9h7.4v-2.6l1.7.1zm-3-1.8h5.9V17h-13v-1.4h5.6v-2.9h-4.4v-1.4h4.4V8.7l1.9.1c0 .2-.1.3-.4.3v2.2h4.7v1.4H222v2.9zm-3.1 10.9c-.5-1-1.6-2.6-2.7-3.7l1.2-.6c1.1 1.1 2.2 2.6 2.7 3.6l-1.2.7zm32-4.1h2.1v1.4h-20.5v-1.4h2.3v-11h4.8V8.6l1.8.1c0 .1-.2.2-.4.3v2.3h3.5V8.6l1.8.1c0 .2-.1.2-.4.3v2.4h5v11zm-10.1 2.9c-.1.1-.2.1-.4.2-1.4 1.3-4.2 2.8-6.5 3.8l-1.1-1.1c2.3-.9 5.1-2.4 6.4-3.7l1.6.8zm-1.2-12.5h-3.4v4.1h3.4v-4.1zm-3.4 5.5v4.1h3.4v-4.1h-3.4zm8.3-5.5H241v4.1h3.5v-4.1zm0 9.6v-4.1H241v4.1h3.5zm6.9 6.7c-1.5-1.1-4-2.6-6.4-3.8l1.1-1c2.4 1.2 5 2.6 6.6 3.7l-1.3 1.1zm-2-16.3h-3.5v4.1h3.5v-4.1zm-3.5 5.5v4.1h3.5v-4.1h-3.5z"/></g></g><g><g><path class="st1" d="M29.8 12.1c-.1.1-.2.2-.4.2-1.2 2.7-3.1 5.5-5 7.2-.3-.3-.7-.6-1.1-.8 1.9-1.6 3.8-4.3 4.9-7.1l1.6.5zm1.9 6c-.1.1-.2.2-.5.2-.8 2.1-2.2 5-3.4 7.2 2.5-.1 5.5-.2 8.4-.3-.9-1.2-1.9-2.5-2.8-3.6l1.1-.5c1.7 1.9 3.6 4.4 4.5 6.1l-1 .7c-.2-.5-.6-1-.9-1.5-4.5.3-9.3.5-12.3.6 0 .1-.2.2-.3.3l-.5-1.5 2.6-.1c1.3-2.2 2.7-5.5 3.5-7.9l1.6.3zm2.9-6.5c1.2 2.4 3.6 5.4 5.3 6.9-.3.3-.8.7-1 1-1.7-1.7-4-4.9-5.4-7.4l1.1-.5zm25.6 4.1h-5.4c.4 5.8 1.9 10.8 3.8 10.8.5 0 .8-1 .9-3.5.3.3.7.6 1.1.7-.2 3.2-.7 4.1-2.1 4.1-2.9 0-4.5-5.6-5-12.1h-9.6v-1.2h9.5c-.1-1.1-.1-2.3-.1-3.4l1.7.1c0 .2-.1.3-.4.3 0 1 0 2 .1 3h5.5v1.2zm-11.1 4v5.4c1.3-.3 2.7-.6 4-.9l.1 1.1c-3.1.8-6.4 1.5-8.5 2 0 .1-.1.3-.3.3l-.4-1.5c1.1-.2 2.4-.5 3.9-.8v-5.6h-3.4v-1.2h8.1v1.2h-3.5zm7.6-8.6c1 .6 2.1 1.6 2.7 2.2l-.8.8c-.6-.7-1.7-1.7-2.7-2.3l.8-.7zM80.3 17h-3.8v1.2c0 3.4-1.1 6.9-5.8 9.1-.2-.3-.6-.6-.9-.9 4.6-2 5.4-5.2 5.4-8.1V17h-5.8v4.5h-1.3V17h-3.5v-1.2h3.5v-3.9l1.7.1c0 .2-.2.3-.5.4v3.4h5.8v-4.1l1.7.1c0 .2-.2.3-.5.3v3.7h3.8V17zm19.7-4.3c-.1.1-.2.1-.3.1h-.2c-1.4 1.4-3.4 3-5.1 4.3.1.1.4.2.4.2 0 .1-.2.2-.4.2v9.7h-1.3V18c-1.9 1.4-4.4 2.8-6.9 4-.2-.3-.5-.7-.8-1 4.9-2.3 10.3-6.1 13.2-9.3l1.4 1zm18.6 8.4c-1.8-1-4.4-2.2-6.3-2.9v9H111V11.6l1.8.1c0 .2-.2.3-.5.4v5.3l.3-.4c2.1.8 4.9 2 6.8 3l-.8 1.1z"/></g></g></svg>