<svg version="1.1" id="レイヤー_1" xmlns="http://www.w3.org/2000/svg" x="0" y="0" viewBox="0 0 462 69" xml:space="preserve"><style type="text/css">.st0{fill:#4a1f00}.st1{fill:#8d8017}.st5{fill:#fff}.st6{fill:none;stroke:#200701;stroke-miterlimit:10}</style><g><g><g><path class="st0" d="M201.4 20.3c.7 1.1 1.3 1.7 2.4 2.3 1.5.8 2.9 1.2 5.6 1.4v.2c-.7.2-1 .6-1.2 1.3-1.7-.4-2.6-.7-3.8-1.5-1.5-.9-2.4-2-3.3-3.7-.4 1.1-.9 1.9-1.7 2.7-1.5 1.4-3.5 2.2-6.5 2.6l-.1-.3c2-.5 3.6-1.2 4.9-2.2 1-.9 1.7-1.7 2.1-2.9h-4.6c-.6 0-.9 0-1.7.1l-.2-.7c.6.1 1.5.2 1.9.2h4.7c.1-.6.2-.9.2-1.4v-.6c1.7.3 2 .3 2 .5s-.2.3-.6.3c-.1.6-.1.7-.2 1.1h5.1c.4-.5.5-.6 1-1.1.7.5.9.7 1.6 1.2.1.1.1.2.1.2 0 .1-.1.1-.1.1h-7.6zm.6-8.2c.5-.7 1.2-2 1.5-2.8 1.6.5 1.9.6 1.9.8 0 .2-.2.3-.9.3-.6.6-1.4 1.3-2 1.7h3.5c.4-.5.6-.6 1-1.1.7.5.9.7 1.5 1.2 0 .1.1.1.1.2s-.1.1-.2.1h-7v2.2h3.5c.4-.5.5-.6 1-1.1.6.5.8.7 1.5 1.2l.1.1c0 .1-.1.1-.3.1h-5.9v2.2h5.2c.3-.4.6-.7.9-1.1.7.5.9.6 1.5 1.2.1.1.1.1.1.2s-.1.1-.2.1h-14.1l-1 .1c-.3 0-.3 0-.7.1l-.1-.7c.6.1 1.2.2 1.9.2h5.3v-2.2h-3.4c-.8 0-1.1 0-1.6.1l-.1-.7c.5.1 1.1.2 1.7.2h3.4v-2.2h-4.5c-1.3 0-1.3 0-1.7.1l-.1-.7c.5.1 1.2.2 1.7.2h2.9c-.1-.1-.1-.1-.2-.5-.3-.7-.8-1.4-1.4-2l.2-.2c.7.3 1.2.6 1.7 1 .4.3.6.6.6.9 0 .3-.1.6-.4.9h3.1zm12.9 7.1c-.1 1.4-.3 2.6-.7 3.7-.4 1-.8 1.8-1.7 3l-.2-.1c.6-1.2.9-2.2 1.1-3.6.3-1.8.4-3.3.4-7.5 0-2.4 0-2.8-.1-4.8.6.3.8.5 1.4.8h1.9l.7-.7 1 .7c.1.1.2.2.2.3 0 .2-.1.3-.6.5v10.1c0 .8 0 .8.1 2.7v.1c0 .8-.5 1.1-1.8 1.4-.1-.5-.2-.7-.5-.9-.3-.2-.6-.3-1.5-.3v-.3l.7.1c.9.1 1 .1 1.6.1.2 0 .3 0 .3-.3v-4.9h-2.3zm2.3-4.1H215c0 2.3 0 2.3-.1 3.7h2.3v-3.7zm0-4.1H215v3.6h2.2V11zm1.1 14.6c.8-1 1.2-1.8 1.6-3.2.6-1.9.7-3.3.7-9.5 0-1.1 0-1.9-.1-3.2.7.4.9.5 1.4 1h2.7c.2-.3.5-.6.7-.8.5.3.6.4 1.1.8.1.1.2.2.2.3 0 .2-.2.3-.6.5V24c0 .3 0 .3.8.3.5 0 .6-.1.7-.3.3-.7.6-2 1-3.9h.3l-.2 3.3v.4c0 .2 0 .2.3.3.1.1.2.2.2.5s-.1.5-.5.6c-.3.1-1.1.1-1.7.1-2 0-2.1-.1-2.2-1V11.2h-2.9c0 6.8-.1 7.6-.4 9.2-.3 1.6-.8 2.9-1.6 3.9-.4.5-.7.8-1.4 1.4l-.1-.1zm21.2-1.4c1.9-.6 3.2-1.3 4.2-2.5 1.1-1.2 1.6-2.7 1.6-4.3 0-1.7-.7-3.1-2-4-.8-.5-2-.8-3.1-.8h-.6c.4.6.6 1 .6 1.5 0 1.4-1 4-2.4 6.2-1.1 1.8-2 2.7-2.7 2.7-.3 0-.6-.1-.8-.4-.2-.2-.2-.3-.5-1.2-.2-.5-.3-.7-.8-1.7-.3-.6-.4-1.1-.4-1.6 0-1.1.6-2.5 1.6-3.6 1.5-1.5 3.8-2.5 6.2-2.5 1.8 0 3.5.6 4.6 1.7 1.2 1.1 1.7 2.5 1.7 4.2 0 2.2-1.3 4.2-3.6 5.5-1 .6-2 .8-3.5 1.1l-.1-.3zm-5.9-5.6c0 .9.3 1.7.7 2.4.3.3.5.5.7.5.4 0 1.3-1 2.1-2.4 1.3-2.1 2.3-4.4 2.3-5.6 0-.3-.1-.5-.3-.9-3 .6-5.5 3.2-5.5 6zm17.2-4.9c2.1.8 2.8 1.3 2.8 2 0 .6-.3 1.1-.6 1.1-.2 0-.3-.1-.4-.4-.4-.9-1-1.6-1.9-2.5l.1-.2zm.2 6.6c.5.1.9.2 1 .2.3 0 .4-.1 1.2-1.8.6-1.2.8-1.8 1.7-3.8.6-1.5.6-1.5.9-2l.2.1-2.6 7.7c-.2.6-.2.6-.2.8 0 .3.1.6.4 1.5.1.4.2.7.2 1 0 .4-.1.8-.3 1.1-.3.3-.6.5-1 .5-.3 0-.4-.1-.4-.4 0-.3 0-.3.1-1.1.1-.6.1-1.2.1-1.7 0-.6-.1-.9-.3-1.2-.2-.2-.4-.3-1.1-.6l.1-.3zm1-10.4c1.1.4 1.8.7 2.3 1.2.4.3.5.5.5.9 0 .5-.3 1.1-.5 1.1s-.3-.1-.5-.6c-.5-.9-.9-1.4-1.9-2.4l.1-.2zm12.2 9.7c-.9 1.5-1.3 2-2.1 2.8-.7.7-1.9 1.6-2.9 2.2-.6.3-1 .5-2.1.9l-.1-.2c1.9-1.1 2.8-1.8 4-3.2.8-.9 1.2-1.4 1.9-2.6h-1.7c-.8 1.1-1.2 1.4-1.8 2-1.4 1.3-2.4 2-4.3 2.8l-.1-.2c2-1.3 3-2.1 4-3.3.3-.4.5-.6.9-1.3h-1.7c-1.2 1.4-2.2 2.1-4 3l-.1-.2c1.6-1.1 2.4-2 3.4-3.5.3-.5.5-.7.8-1.4h-2.2c-.3 0-.6 0-.9.1l-.2-.5c.5.1.7.2 1 .2h8.9c.4-.5.6-.6 1-1.1.6.5.8.7 1.5 1.2.1.1.1.1.1.2s-.1.1-.2.1h-7.7c-.5.9-.7 1.1-1.1 1.7h6.7l.7-.7c.5.3.6.5 1 .8.1.1.2.2.2.3 0 .1-.1.2-.6.4-.3 2.3-.6 3.8-1 4.6-.3.7-1 1.1-2.1 1.2-.1-.6-.2-.7-.5-.9-.4-.2-.9-.4-1.6-.6l.1-.2c.5.1.5.1 1.4.2.2 0 1 .1 1.2.1.4 0 .5-.1.7-.6.3-.8.6-2.4.7-4.1h-1.2zm-5.9-3.4c0 .2-.1.3-.8.3-.3 0-.4-.1-.4-.2V9.7c.6.3.7.4 1.3.8h5l.7-.7c.4.3.6.4 1 .7.1.1.2.2.2.3 0 .1-.1.2-.5.5 0 3 0 3.6.1 4.9 0 .1 0 .2-.1.3-.1.1-.5.1-.8.1-.2 0-.3-.1-.3-.3v-.5h-5.2v.4zm5.2-5.3h-5.2v2h5.2v-2zm-5.2 2.4v2h5.2v-2h-5.2z"/></g></g><g><g><path class="st1" d="M362.4 20.3c.7 1.1 1.3 1.7 2.4 2.3 1.5.8 2.9 1.2 5.6 1.4v.2c-.7.2-1 .6-1.2 1.3-1.7-.4-2.6-.7-3.8-1.5-1.5-.9-2.4-2-3.3-3.7-.4 1.1-.9 1.9-1.7 2.7-1.5 1.4-3.5 2.2-6.5 2.6l-.1-.3c2-.5 3.6-1.2 4.9-2.2 1-.9 1.7-1.7 2.1-2.9h-4.6c-.6 0-.9 0-1.7.1l-.2-.7c.6.1 1.5.2 1.9.2h4.7c.1-.6.2-.9.2-1.4v-.6c1.7.3 2 .3 2 .5s-.2.3-.6.3c-.1.6-.1.7-.2 1.1h5.1c.4-.5.5-.6 1-1.1.7.5.9.7 1.6 1.2.1.1.1.2.1.2 0 .1-.1.1-.1.1h-7.6zm.6-8.2c.5-.7 1.2-2 1.5-2.8 1.6.5 1.9.6 1.9.8 0 .2-.2.3-.9.3-.6.6-1.4 1.3-2 1.7h3.5c.4-.5.6-.6 1-1.1.7.5.9.7 1.5 1.2 0 .1.1.1.1.2s-.1.1-.2.1h-7v2.2h3.5c.4-.5.5-.6 1-1.1.6.5.8.7 1.5 1.2l.1.1c0 .1-.1.1-.3.1h-5.9v2.2h5.2c.3-.4.6-.7.9-1.1.7.5.9.6 1.5 1.2.1.1.1.1.1.2s-.1.1-.2.1h-14.1l-1 .1c-.3 0-.3 0-.7.1l-.1-.7c.6.1 1.2.2 1.9.2h5.3v-2.2h-3.4c-.8 0-1.1 0-1.6.1l-.1-.7c.5.1 1.1.2 1.7.2h3.4v-2.2h-4.5c-1.3 0-1.3 0-1.7.1l-.1-.7c.5.1 1.2.2 1.7.2h2.9c-.1-.1-.1-.1-.2-.5-.3-.7-.8-1.4-1.4-2l.2-.2c.7.3 1.2.6 1.7 1 .4.3.6.6.6.9 0 .3-.1.6-.4.9h3.1zm10.2 13.2c1.7-1.2 2.5-2 3.4-3.2 1.6-2.1 2.7-4.6 3.3-7.3.3-1.4.4-2.7.4-3.9 0-.4 0-.6-.1-1 2 .3 2.2.3 2.2.5 0 .1-.1.2-.8.5v.6c0 2.6 1 5.7 2.5 7.9 1 1.4 2.2 2.6 3.7 3.5.7.4 1.1.6 2.1 1v.2h-.1c-.4 0-.7.1-.9.4-.2.2-.3.4-.5.9-1.8-1.2-3.2-2.5-4.3-4.4-.8-1.3-1.6-3.2-2.1-5-.2-.8-.3-1.4-.4-2.6-.5 3.3-1.4 5.6-2.9 7.8-1.4 2-2.9 3.2-5.3 4.4l-.2-.3zm27.3-1.1c1.9-.6 3.2-1.3 4.2-2.5 1.1-1.2 1.6-2.7 1.6-4.3 0-1.7-.7-3.1-2-4-.8-.5-2-.8-3.1-.8h-.6c.4.6.6 1 .6 1.5 0 1.4-1 4-2.4 6.2-1.1 1.8-2 2.7-2.7 2.7-.3 0-.6-.1-.8-.4-.2-.2-.2-.3-.5-1.2-.2-.5-.3-.7-.8-1.7-.3-.6-.4-1.1-.4-1.6 0-1.1.6-2.5 1.6-3.6 1.5-1.5 3.8-2.5 6.2-2.5 1.8 0 3.5.6 4.6 1.7 1.2 1.1 1.7 2.5 1.7 4.2 0 2.2-1.3 4.2-3.6 5.5-1 .6-2 .8-3.5 1.1l-.1-.3zm-5.9-5.6c0 .9.3 1.7.7 2.4.3.3.5.5.7.5.4 0 1.3-1 2.1-2.4 1.3-2.1 2.3-4.4 2.3-5.6 0-.3-.1-.5-.3-.9-3 .6-5.5 3.2-5.5 6zm17.2-4.9c2.1.8 2.8 1.3 2.8 2 0 .6-.3 1.1-.6 1.1-.2 0-.3-.1-.4-.4-.4-.9-1-1.6-1.9-2.5l.1-.2zm.2 6.6c.5.1.9.2 1 .2.3 0 .4-.1 1.2-1.8.6-1.2.8-1.8 1.7-3.8.6-1.5.6-1.5.9-2l.2.1-2.6 7.7c-.2.6-.2.6-.2.8 0 .3.1.6.4 1.5.1.4.2.7.2 1 0 .4-.1.8-.3 1.1-.3.3-.6.5-1 .5-.3 0-.4-.1-.4-.4 0-.3 0-.3.1-1.1.1-.6.1-1.2.1-1.7 0-.6-.1-.9-.3-1.2-.2-.2-.4-.3-1.1-.6l.1-.3zm1-10.4c1.1.4 1.8.7 2.3 1.2.4.3.5.5.5.9 0 .5-.3 1.1-.5 1.1s-.3-.1-.5-.6c-.5-.9-.9-1.4-1.9-2.4l.1-.2zm12.2 9.7c-.9 1.5-1.3 2-2.1 2.8-.7.7-1.9 1.6-2.9 2.2-.6.3-1 .5-2.1.9l-.1-.2c1.9-1.1 2.8-1.8 4-3.2.8-.9 1.2-1.4 1.9-2.6h-1.7c-.8 1.1-1.2 1.4-1.8 2-1.4 1.3-2.4 2-4.3 2.8l-.1-.2c2-1.3 3-2.1 4-3.3.3-.4.5-.6.9-1.3h-1.7c-1.2 1.4-2.2 2.1-4 3l-.1-.2c1.6-1.1 2.4-2 3.4-3.5.3-.5.5-.7.8-1.4h-2.2c-.3 0-.6 0-.9.1l-.2-.5c.5.1.7.2 1 .2h8.9c.4-.5.6-.6 1-1.1.6.5.8.7 1.5 1.2.1.1.1.1.1.2s-.1.1-.2.1h-7.7c-.5.9-.7 1.1-1.1 1.7h6.7l.7-.7c.5.3.6.5 1 .8.1.1.2.2.2.3 0 .1-.1.2-.6.4-.3 2.3-.6 3.8-1 4.6-.3.7-1 1.1-2.1 1.2-.1-.6-.2-.7-.5-.9-.4-.2-.9-.4-1.6-.6l.1-.2c.5.1.5.1 1.4.2.2 0 1 .1 1.2.1.4 0 .5-.1.7-.6.3-.8.6-2.4.7-4.1h-1.2zm-5.9-3.4c0 .2-.1.3-.8.3-.3 0-.4-.1-.4-.2V9.7c.6.3.7.4 1.3.8h5l.7-.7c.4.3.6.4 1 .7.1.1.2.2.2.3 0 .1-.1.2-.5.5 0 3 0 3.6.1 4.9 0 .1 0 .2-.1.3-.1.1-.5.1-.8.1-.2 0-.3-.1-.3-.3v-.5h-5.2v.4zm5.2-5.3h-5.2v2h5.2v-2zm-5.2 2.4v2h5.2v-2h-5.2z"/></g></g><line x1="8" y1="35.9" x2="153.2" y2="35.9" fill="none" stroke="#200701" stroke-width="2" stroke-miterlimit="10"/><line x1="155" y1="35.9" x2="320.2" y2="35.9" fill="none" stroke="#4a1f00" stroke-width="3" stroke-miterlimit="10"/><line x1="332" y1="35.9" x2="453" y2="35.9" fill="none" stroke="#8d8017" stroke-width="5" stroke-miterlimit="10"/><g><circle class="st0" cx="149.7" cy="36.4" r="25.3"/><g><g><path class="st5" d="M140.7 29.5c.9-.9 1.9-1.3 3.2-1.3 2.4 0 4 1.6 4 4 0 2.5-1.8 4.2-4.6 4.2-2.1 0-3.9-1.1-3.9-2.3 0-.5.3-.8 1-.8.6 0 .7.1.8.7.1 1.2.9 1.9 2.2 1.9 1.7 0 2.8-1.4 2.8-3.6 0-1-.2-1.9-.6-2.6s-1.2-1-2-1c-1.3 0-2.5.8-3 2.1l-.6-.1.6-7.4h6.8l-.3 1.4h-6l-.4 4.8zm10.2-4.4c.7-1.3 2-2 3.5-2s2.8.7 3.5 2c.7 1.2 1 2.9 1 4.7 0 1.8-.4 3.4-1 4.7-.7 1.3-2 2-3.5 2s-2.8-.8-3.5-2c-.7-1.2-1-2.9-1-4.7 0-1.8.3-3.4 1-4.7zm3.5 10.9c1.9 0 2.8-1.9 2.8-6.2 0-4.3-.8-6.2-2.8-6.2-1.9 0-2.8 1.9-2.8 6.2 0 4.3.9 6.2 2.8 6.2zm-14.3 6.2c.6-1.1 1.5-1.7 2.7-1.7 1.2 0 1.9.6 2.2 1.9.7-1.3 1.5-1.9 2.7-1.9.8 0 1.4.3 1.8.7.4.4.5 1 .5 2.1v3.5c0 1.5.1 1.6 1.2 1.6v.4h-3.6v-.4c1.1 0 1.2-.2 1.2-1.6v-3.2c0-1.1-.1-1.5-.3-1.9-.2-.4-.6-.6-1.2-.6s-1.1.3-1.5.9c-.4.6-.6 1.2-.6 1.9v2.8c0 1.5.1 1.6 1.2 1.6v.4h-3.6v-.4c1.1 0 1.2-.2 1.2-1.6v-3.4c0-1.6-.5-2.3-1.4-2.3-.6 0-1.2.3-1.6.9-.4.5-.6 1-.6 1.7v3.1c0 1.5.1 1.6 1.2 1.6v.4H138v-.4c1.1 0 1.2-.1 1.2-1.6v-4.3c0-1.2-.2-1.4-1.1-1.4v-.4l2.4-.2v1.8zm18.7-1c.6.6.9 1.3.9 2.1 0 1.7-1.2 2.8-3.2 2.8-.5 0-.8 0-1.4-.2-.6.3-.8.6-.8 1 0 .6.4.8 1.8.8h1.2c1.1 0 1.6 0 2 .2.9.3 1.3.8 1.3 1.7 0 .8-.5 1.6-1.2 2-.7.4-1.6.6-2.8.6-1.1 0-1.9-.2-2.5-.5-.6-.3-.9-.8-.9-1.6 0-.7.1-.8 1.1-1.5-.7-.3-1-.8-1-1.4 0-.4.1-.7.8-1.1l.6-.4c-.4-.3-.6-.5-.8-.7-.3-.4-.5-1-.5-1.6 0-1.1.5-2 1.2-2.5.5-.3 1.2-.5 2-.5.3 0 .6 0 1.1.1.5.1.6.1 1 .1h1.7v.6h-1.6zm-4.5 8.8c0 1.2.8 1.8 2.5 1.8s2.8-.7 2.8-1.8c0-.7-.4-1-1.2-1.2-.3 0-.8-.1-1.8-.1h-1.5c-.6.3-.8.7-.8 1.3zm.8-4.9c.3.5.8.8 1.5.8 1.2 0 1.8-.8 1.8-2.4 0-1.7-.6-2.5-1.8-2.5-1.2 0-1.8.8-1.8 2.4-.1.6.1 1.2.3 1.7z"/></g></g></g><g><circle class="st1" cx="311.3" cy="36.4" r="25.3"/><g><g><path class="st5" d="M297.6 35.7c.8-.1 1-.1 1.2-.2.4-.2.5-.6.5-1.9V26c0-1.6 0-1.6-.2-1.7s-.4-.2-.8-.2h-.7v-.5c1.4-.1 2.5-.3 3.4-.5-.1 1.4-.1 3-.1 5.1v5.3c0 1.2.1 1.6.3 1.8.2.2.3.2 1.3.3v.5h-4.9v-.4zm9.1-10.6c.7-1.3 2-2 3.5-2s2.8.7 3.5 2c.7 1.2 1 2.9 1 4.7 0 1.8-.4 3.4-1 4.7-.7 1.3-2 2-3.5 2s-2.8-.8-3.5-2c-.7-1.2-1-2.9-1-4.7-.1-1.8.3-3.4 1-4.7zm3.5 10.9c1.9 0 2.8-1.9 2.8-6.2 0-4.3-.8-6.2-2.8-6.2-1.9 0-2.8 1.9-2.8 6.2 0 4.3.8 6.2 2.8 6.2zm7.6-10.9c.7-1.3 2-2 3.5-2s2.8.7 3.5 2c.7 1.2 1 2.9 1 4.7 0 1.8-.4 3.4-1 4.7-.7 1.3-2 2-3.5 2s-2.8-.8-3.5-2c-.7-1.2-1-2.9-1-4.7 0-1.8.3-3.4 1-4.7zm3.5 10.9c1.9 0 2.8-1.9 2.8-6.2 0-4.3-.8-6.2-2.8-6.2-1.9 0-2.8 1.9-2.8 6.2 0 4.3.8 6.2 2.8 6.2zm-19.5 6.2c.6-1.1 1.5-1.7 2.7-1.7 1.2 0 1.9.6 2.2 1.9.7-1.3 1.5-1.9 2.7-1.9.8 0 1.4.3 1.8.7.4.4.5 1 .5 2.1v3.5c0 1.5.1 1.6 1.2 1.6v.4h-3.6v-.4c1.1 0 1.2-.2 1.2-1.6v-3.2c0-1.1-.1-1.5-.3-1.9-.2-.4-.6-.6-1.2-.6s-1.1.3-1.5.9c-.4.6-.6 1.2-.6 1.9v2.8c0 1.5.1 1.6 1.2 1.6v.4h-3.6v-.4c1.1 0 1.2-.2 1.2-1.6v-3.4c0-1.6-.5-2.3-1.4-2.3-.6 0-1.2.3-1.6.9-.4.5-.6 1-.6 1.7v3.1c0 1.5.1 1.6 1.2 1.6v.4h-3.6v-.4c1.1 0 1.2-.1 1.2-1.6v-4.3c0-1.2-.2-1.4-1.1-1.4v-.4l2.4-.2v1.8zm18.7-1c.6.6.9 1.3.9 2.1 0 1.7-1.2 2.8-3.2 2.8-.5 0-.8 0-1.4-.2-.6.3-.8.6-.8 1 0 .6.4.8 1.8.8h1.2c1.1 0 1.6 0 2 .2.9.3 1.3.8 1.3 1.7 0 .8-.5 1.6-1.2 2-.7.4-1.6.6-2.8.6-1.1 0-1.9-.2-2.5-.5-.6-.3-.9-.8-.9-1.6 0-.7.1-.8 1.1-1.5-.7-.3-1-.8-1-1.4 0-.4.1-.7.8-1.1l.6-.4c-.4-.3-.6-.5-.8-.7-.3-.4-.5-1-.5-1.6 0-1.1.5-2 1.2-2.5.5-.3 1.2-.5 2-.5.3 0 .6 0 1.1.1.5.1.6.1 1 .1h1.7v.6h-1.6zm-4.6 8.8c0 1.2.8 1.8 2.5 1.8s2.8-.7 2.8-1.8c0-.7-.4-1-1.2-1.2-.3 0-.8-.1-1.8-.1h-1.5c-.6.3-.8.7-.8 1.3zm.9-4.9c.3.5.8.8 1.5.8 1.2 0 1.8-.8 1.8-2.4 0-1.7-.6-2.5-1.8-2.5-1.2 0-1.8.8-1.8 2.4-.1.6 0 1.2.3 1.7z"/></g></g></g><line class="st6" x1="8" y1="11.9" x2="8" y2="59.9"/><line class="st6" x1="453" y1="11.9" x2="453" y2="59.9"/></g></svg>