<svg version="1.1" id="レイヤー_1" xmlns="http://www.w3.org/2000/svg" x="0" y="0" viewBox="0 0 226.1 433.9" xml:space="preserve"><style type="text/css">.st0{fill:#200701}</style><g><path class="st0" d="M219.8 122.9c.7-.9 1-1.1 1.7-2 1.2.9 1.6 1.2 2.7 2.2l.2.2c0 .1-.1.2-.3.2h-11.3c.3.1.3.1 1.5.6.3.1.5.3.5.4 0 .2-.2.3-1.1.3 2.7 1.8 6.1 2.7 10.8 2.9v.3c-1.1.4-1.4.8-1.7 1.9-2.8-.8-3.9-1.2-5.4-2-1.3-.8-2.5-1.5-4.1-2.8-3.1 2.7-5 3.8-9.1 5.4l-.2-.4c2.5-1.3 4.5-2.6 6.7-4.8l1.7-1.7H204c0 4.2-.1 6.6-.1 7.2-.1 4-.8 7.5-2.2 10.5-.8 1.7-1.5 2.8-3.1 4.5l-.3-.2c1.8-2.9 2.6-4.9 3.1-7.9.3-1.3.3-2.2.5-4.3-.9 1-1.3 1.4-2.6 2.5v.7c0 .3-.1.5-.3.5-.3 0-.5-.5-1.4-2.7.7-.1 1.1-.3 2.5-.8l1.8-.9c.1-1.7.1-3.7.1-6.6 0-2.9 0-3.1-.1-4.4 1 .5 1.3.7 2.2 1.3h7.4v-1.1c0-.7 0-1-.1-1.6 2.9.2 3.2.3 3.2.6 0 .2-.2.3-1.1.6v1.5h6.3zm-21.7 1.9c.8.6 1.3 1.2 2.2 2.2.7.8 1 1.4 1 1.9 0 .4-.2 1.2-.4 1.5-.2.2-.3.3-.5.3-.3 0-.5-.3-.6-1-.3-1.4-1.2-3.8-1.8-4.8l.1-.1zm8.3 15.3c-.1 1.1-.5 2.4-1.1 3.4-.5.9-1.4 1.7-2 1.7-.4 0-.7-.6-.7-1.3 0-.5.1-.7.8-.9.7-.3 1.5-.8 1.8-1.2.4-.4.5-.8.7-1.7h.5zm.8-4v3.1c-.1.2-.1.2-.4.3-.3 0-.7.1-.9.1-.4 0-.5-.1-.5-.3.1-1.8.1-2.8.1-5.3 0-1.4 0-1.4-.1-3.6.8.4 1.1.5 1.8.9h4.3c.5-.5.5-.5.8-.9.6.4.8.5 1.4.9.1.1.1.1.1.2 0 .2-.3.4-.7.6v6c0 .5-.2.7-.7 1-.3.1-.5.2-1.4.4-.3-1-.7-1.3-2.1-1.4v-.3c1.7.1 1.7.1 2.5.1.2 0 .2-.1.2-.2v-1.4h-4.4zm4.5-2.9v-1.5h-4.6v1.5h4.6zm-4.5.6v1.7h4.6v-1.7h-4.6zm1 7.9c0-1.2 0-1.2-.1-1.8 2.6.3 2.7.3 2.7.6 0 .2 0 .2-.9.5v2.4c0 .2.1.4.2.4.3.1.9.1 1.8.1 1.2 0 3.8-.1 4.1-.1.4-.1.6-.2.8-.7.4-1 .7-1.8 1-2.6l.4.1-.1 2.3v.1c0 .3.2.5.6.6.6.1.8.3.8.6 0 .4-.3.6-1.1.8-.9.2-2.4.3-4.9.3-5.1 0-5.3-.1-5.3-2v-1.6zm.6-13.1c.8.2 1.2.2 2.3.2h2.9c.6-.6.8-.8 1.3-1.4.9.7 1.2.9 2 1.7.1.1.1.1.1.2s-.1.2-.3.2h-6c-.9 0-.9 0-2.1.2l-.2-1.1zm3.2 11c.9.2 2 .6 2.8 1.1.4.3.7.7.7 1.1 0 .6-.4 1.4-.8 1.4-.2 0-.3-.1-.5-.4-.6-1-1.5-2.1-2.4-2.9l.2-.3zm6-8c0 .2-.3.4-.8.4 0 2.7 0 3 .1 4.4-.1.2-.1.3-.3.3-.1.1-.7.1-1 .1-.3 0-.4-.1-.4-.3.1-1 .1-1.2.1-3.3 0-1.2 0-1.5-.1-2.1 2.1.2 2.4.2 2.4.5zm2 .9c0-.1 0-.8-.1-1.9 3 .3 3 .3 3 .6 0 .2 0 .2-1.1.6v6c0 .7-.2.9-.9 1.3-.6.3-1.1.4-1.8.5-.1-.8-.3-1.1-.7-1.3-.3-.1-.5-.1-1.6-.3v-.4c.4 0 .4 0 1.5.1.8.1.8.1 1.5.1.1 0 .2-.1.2-.4v-4.9zm-.7 7.6c1.2.5 2.9 1.3 3.7 1.9.5.4.8.8.8 1.5 0 .8-.4 1.5-.8 1.5-.3 0-.3-.1-.7-.8-.8-1.4-1.7-2.5-3.2-3.9l.2-.2zm1.3 35.2c-2.7 3.6-6.4 5.8-9.8 5.8-2.1 0-3.8-.9-4.6-2.4-.6-1-.8-2.4-.8-4.7 0-1.5.1-4.2.2-6.7.2-3 .2-3.8.2-4.8 0-2.4-.3-2.9-2.3-3.7.3-.2.5-.3.8-.3.6 0 1.7.3 2.5.6 1.1.5 1.6 1.1 1.6 1.7 0 .2 0 .4-.3 1-.5 1.7-1.5 10.2-1.5 13.4 0 1.7.3 2.7 1.1 3.4.6.5 1.5.8 2.5.8 1.9 0 4.3-.7 6.4-1.8 1.3-.7 2.1-1.3 3.6-2.5l.4.2zm-9.7 40.8c3-.9 5-2 6.6-3.9 1.7-1.9 2.5-4.2 2.5-6.7 0-2.7-1.1-4.9-3.2-6.2-1.2-.8-3.1-1.3-4.8-1.3-.3 0-.5 0-1 .1.7 1 .9 1.5.9 2.3 0 2.2-1.6 6.3-3.7 9.7-1.8 2.8-3.1 4.2-4.2 4.2-.5 0-.9-.2-1.2-.6-.3-.3-.3-.4-.8-1.8-.3-.7-.4-1.1-1.2-2.6-.4-.9-.6-1.7-.6-2.5 0-1.8 1-3.8 2.5-5.5 2.3-2.4 6-3.9 9.6-3.9 2.8 0 5.4.9 7.2 2.6 1.8 1.7 2.7 3.9 2.7 6.6 0 3.5-2 6.6-5.6 8.5-1.6.9-3.1 1.3-5.5 1.7l-.2-.7zm-9.2-8.7c0 1.3.4 2.7 1.1 3.7.4.5.8.8 1.1.8.6 0 2-1.5 3.3-3.7 2.1-3.3 3.6-6.9 3.6-8.7 0-.4-.1-.7-.4-1.4-4.9 1-8.7 5-8.7 9.3zm1.4 28c0-2.1 0-2.8-.1-4.6 1 .6 1.3.8 2.2 1.4H217c.5-.6.6-.7 1.1-1.3.8.5 1 .7 1.8 1.3.2.2.3.3.3.4 0 .2-.3.4-1 .8v8.9c0 2.2.1 6 .2 11.6v.1c0 .1-.1.3-.2.3-.2.1-1 .2-1.5.2-.4 0-.5 0-.5-.2v-2H205v1.9c0 .1 0 .2-.1.3-.2.1-1 .3-1.7.3-.3 0-.4-.1-.4-.4.1-2.5.1-2.9.1-8.9l.2-10.1zm14.2-2.6h-12.2v8.8h12.2v-8.8zm-12.2 9.4v9.3h12.2v-9.3h-12.2zm-4.2 30.4c0 .8.1 1.3.1 1.8 0 2.5-.3 4-.8 5.2-.3.6-.7 1-1 1-.4 0-1-.9-1-1.7 0-.4.1-.6.6-1.1.7-.7 1-1.2 1.3-2.5.3-1.1.4-1.6.5-2.6h.3zm-2.2 18.4c1.8-2.5 2.6-4.1 3.2-6.9.6-2.4.8-5.2.8-9.9 0-4.3-.1-6.5-.2-8 2.5.3 3.3.6 3.3.9 0 .3-.1.3-1.2.8v6c0 2.1-.2 5.4-.4 7.3-.3 2.6-1.1 4.7-2.4 6.9-.8 1.2-1.3 1.8-2.9 3.2l-.2-.3zm16.9-7.2v7.3c0 .2 0 .3-.1.4-.2.1-.7.2-1.4.2-.3 0-.4-.1-.4-.3v-9.7h-3.8v7.6c0 .4-.3.5-1.3.5-.4 0-.5-.1-.5-.3v-3.3c0-3.1 0-5.2-.1-6.4.9.5 1.1.6 1.9 1.2h3.8v-3.3h-6.3c-.1 1.3-.2 1.9-.6 2.7-.3.6-.7 1.1-1 1.1-.4 0-.8-.7-.8-1.5 0-.3.1-.4.4-.8.3-.3.8-.9 1.1-1.5.2-.5.4-1.1.5-2h.5v1.3H221c.5-.5.6-.7 1.2-1.2.9.7 1.1.9 2 1.6.2.2.3.3.3.4 0 .2-.1.2-1.3.6-.4.4-.4.4-1.2 1.1-.6.5-.6.5-.8.8.4.3.6.4 1.1.8.2.1.3.2.3.3 0 .1-.3.4-1 .8v5.4c0 .8-.3 1.2-1 1.5-.4.2-.9.3-1.9.5-.1-.6-.2-.9-.6-1.2-.3-.3-.7-.4-1.8-.6v-.4c2 .2 2 .2 3.1.2.3 0 .3-.1.3-.4v-5.5h-4.1v2.1zm3.2-15.8c.5-.5.6-.7 1.1-1.2.7.5.9.6 1.6 1.2.1.1.2.2.2.3 0 .2-.3.4-.9.8v2.2c0 .5 0 1 .1 3.9 0 .2-.1.3-.2.4-.1.1-1 .1-1.3.1-.3 0-.3-.1-.3-.3v-.7h-9.3c-.6 0-.9 0-1.5.2l-.2-1.1c1.1.3 1.3.3 1.8.3h9.1v-2.6h-8.7c-.5 0-.8 0-1.6.1l-.2-1.1c.9.2 1.3.3 2 .3h8.5v-2.4h-9.2c-.6 0-.9 0-1.7.2l-.2-1.1c1 .2 1.3.3 2 .3h8.9zm.6 13.1c.3-.5.4-.6.8-1.1l.4.3c.3-.9.5-1.5.6-2.4h-5.7v3.3h3.9zm-11.3 46.6c2-1.2 3.2-2.3 4.5-3.9 2-2.6 2.9-5.8 2.9-9.4 0-2.4-.4-4.7-1-5.8-.5-.8-1.2-1.2-2-1.2-1.4 0-2.7 1.2-3.7 3.5-.8 1.8-1.3 4.1-1.3 6 0 .5 0 .8.1 1.7v.6c0 .5-.3.8-.7.8-1.1 0-1.8-2.3-1.8-5.7 0-2.3.2-3.8.9-7.5.2-1.1.3-1.7.3-2 0-.9-.4-1.4-1.5-2 .2-.1.4-.1.5-.1.6 0 1.5.4 2.2.9.8.6 1.1 1 1.1 1.6 0 .4-.1.5-.4 1.1-1.1 1.8-2 5.7-2 8.3v1h.1c.8-3.6 1.9-5.9 3.2-7.3 1-1.1 2.2-1.7 3.4-1.7 2.7 0 4.6 3.3 4.6 8 0 3.6-1 6.7-3.1 9.2-1.7 2-3.5 3.4-6.2 4.4l-.1-.5zm-9.7 17.6c3.4 1.2 4.1 1.7 4.1 2.9 0 .8-.5 1.7-.9 1.7-.2 0-.3-.1-.8-1-.3-.5-.9-1.4-1.5-2.1-.3-.4-.6-.7-1.2-1.2l.3-.3zm.1 10.4c.2 0 .4.1.4.1.6.1.8.1.9.1.6 0 .8-.3 1.4-1.5.5-1 2.2-4.6 2.5-5.2 1.6-3.5 1.6-3.5 2.1-4.5l.4.2-3.8 10.8c-.3.9-.3.9-.3 1.3 0 .3 0 .4.3 1.6.4 1.4.4 1.8.4 2.8 0 .9-.3 1.6-.9 2-.4.3-1 .5-1.3.5-.3 0-.6-.3-.6-.6s0-.3.4-2c.2-1 .3-1.8.3-2.7 0-.8-.1-1.2-.5-1.6-.3-.3-.5-.4-1.9-.9l.2-.4zm1.7-16.2c1.5.5 3.2 1.3 3.7 1.8.5.4.6.6.6 1.2 0 .4-.1.9-.4 1.3-.1.2-.3.3-.4.3-.2 0-.4-.1-.6-.5-.8-1.4-1.8-2.7-3.1-3.8l.2-.3zm5.7 14.8c0-1.1 0-1.6-.1-2.7 1 .4 1.3.6 2.4 1.1h11.2c.5-.6.6-.7 1.1-1.2.8.5 1 .6 1.7 1.2.2.2.3.3.3.4 0 .2-.1.3-1 .8v8.5h.1c.5-.8.7-1 1.3-1.7.8.8 1 1.1 1.7 2 .1.1.1.2.1.3s-.1.2-.3.2h-19.2c-.4 0-1.2.1-1.7.1l-.1-.9c.6.1 1.4.2 1.8.2h.7v-8.3zm3.6-4c0 .1 0 .1 0 0 0 .4-.3.5-1.4.5-.3 0-.4-.1-.4-.3v-.1c0-1.3 0-1.3.1-3.2 0-1.1 0-2.5.1-4.1 0-1.1-.1-2.7-.2-3.8 1 .5 1.3.7 2.2 1.3h8.1l1.1-1.2c.7.5.9.7 1.5 1.2.2.2.3.3.3.4 0 .2-.2.3-.9.6v8.5c0 .3-.2.4-.9.5h-.6c-.3 0-.4-.1-.4-.3v-.8h-8.6v.8zm1.1 3.1h-2.9v9h2.9v-9zm7.5-12.1h-8.6v3.4h8.6v-3.4zm-8.6 4v3.7h8.6v-3.7h-8.6zm5.8 8.1h-3v9h3v-9zm4.4 9v-9h-2.8v9h2.8zm-20.2 27.7c.9.2 1.2.2 2.7.2h4.4c.5-.5.6-.7 1.1-1.2.7.6.9.8 1.6 1.3.2.2.3.3.3.4 0 .2-.2.3-1 .5-1.5 2.4-2.9 4-5.2 5.7-1.7 1.3-3.1 2-5.3 2.8l-.2-.3c2.3-1.3 3.7-2.4 5.3-4 1.6-1.6 2.5-2.8 3.3-4.6H202c-1.2 0-1.7 0-2.4.1l-.1-.9zm12.9-3.2c.2 1.2.4 1.7.9 2.7.5.9 1 1.6 1.7 2.4 2-1.4 4.2-3.4 5.2-4.6 2.2 1.3 2.5 1.5 2.5 1.7 0 .2-.2.3-.5.3-.1 0-.5 0-1-.1-1.5 1-3.9 2.2-5.9 3 .9 1 1.8 1.7 3 2.4 2 1.2 3.6 1.8 6.2 2.3v.4c-.7.2-.9.3-1.4.7-.4.4-.6.6-.8 1.2-1.6-.6-2.3-1-3.8-2.1-2.3-1.7-3.5-3.1-4.9-5.5-.8-1.4-1.1-2.1-1.6-3.6.1 1.8.2 4.1.2 5.3v5.2c0 1.3-.5 1.7-3.2 2.4-.3-1.4-.9-1.8-3.7-2v-.4c2.2.1 2.8.1 4.6.1.3 0 .4-.1.4-.3V387h-5.7v.9c0 .4-.2.4-1.5.4-.3 0-.4-.1-.4-.3.1-2.2.1-4.4.1-7.3 0-1.7 0-2.5-.1-3.9 1 .5 1.3.7 2.3 1.3h4.2c.4-1 .7-2.3.7-3.4 2.5.6 2.5.6 2.8.7.2.1.3.2.3.3 0 .3-.3.4-1.4.5-.6.8-.9 1-1.8 1.8h7.1l1.1-1.3c.8.6 1 .7 1.7 1.3.2.2.3.3.3.4 0 .3-.2.4-1.1.7v2.9c0 2.2 0 2.8.1 4.8 0 .3-.1.4-.3.5-.2.1-.8.1-1.2.1-.3 0-.4-.1-.4-.3v-.5h-4.7zm5.1-4.7v-3.4h-12.7v3.4h12.7zm-12.7.6v3.4h12.7v-3.4h-12.7z"/></g><g><g><path class="st0" d="M130 123.7c0-1.3 0-1.8-.1-3 .6.4.8.5 1.4.9h7.5c.3-.4.4-.5.7-.8.5.3.7.5 1.2.8l.2.2c0 .1-.2.3-.6.5v5.7c0 1.4 0 3.9.1 7.5v.1c0 .1-.1.2-.1.2-.1.1-.6.1-1 .1-.3 0-.3 0-.3-.1v-1.2h-7.8v1.2c0 .1 0 .1-.1.2s-.6.2-1.1.2c-.2 0-.3-.1-.3-.2.1-1.6.1-1.9.1-5.7l.2-6.6zm9.1-1.7h-7.8v5.7h7.8V122zm-7.8 6.1v6h7.8v-6h-7.8zm9.1 16.5c.5-.6.6-.8 1-1.3.8.6 1 .8 1.8 1.4.1.1.1.1.1.2s-.1.1-.2.1h-7.3c.5 1.2 1 2 2.1 3.3 1.3 1.5 2.6 2.7 3.7 3.5.6.4 1.1.7 2.2 1.1v.2c-.7.1-1.1.4-1.5 1.1-1.6-1.2-2.7-2.3-4-4.1-1.1-1.5-1.8-2.7-2.6-4.7v7.4h1.8c.4-.6.6-.7 1-1.2.7.5 1 .7 1.6 1.4 0 .1.1.1.1.1 0 .1-.1.1-.2.1h-4.3v.3c.1 2.6.1 2.7.1 3.6 0 .1-.1.2-.1.2-.1 0-.7.1-.9.1-.2 0-.3-.1-.3-.2v-3.8h-2.7c-.7 0-1 0-1.4.1l-.1-.7c.4.1 1 .1 1.4.1h2.7v-6.5c-.5 1.2-.8 1.6-1.6 2.6-1.1 1.4-2.8 3.1-4.1 4.2-.8.6-1.2.8-2.2 1.4l-.1-.2c2.1-1.6 3.4-3 5.1-5.2 1.1-1.5 1.6-2.4 2.4-4.1h-5.6c-.4 0-.8 0-1.2.1l-.1-.7c.3.1 1 .2 1.2.2h6.1v-2.1c0-.8 0-1-.1-1.7.4.1.7.1 1 .1.9.1 1.1.2 1.1.4s-.1.2-.8.5v2.8h4.9zm-.1 19.1l1-1.3c.8.6 1 .8 1.8 1.4.1.1.1.1.1.2s-.1.1-.2.1h-13.4c0 5.4-.1 6.4-.4 8.2-.3 1.5-.7 2.8-1.3 3.9-.3.6-.6 1-1.2 1.7l-.2-.2c1.4-2.6 1.9-5.1 1.9-10.4 0-1.9-.1-3.3-.1-4.6.7.4.9.5 1.5.9h4.9v-1c0-.3 0-.5-.1-1.1 1.7.2 2.1.3 2.1.5 0 .1-.2.3-.7.4v1.2h4.3zm-5.1 6.8c-.1.1-.2.1-.6.3-.5 1.7-1 2.9-2 4.1.8.7 1.5 1.1 2.6 1.3 1.2.3 2.4.3 4.6.3 1.1 0 2.1-.1 3.7-.2v.2c-.5.1-.6.1-.9 1.2h-2.1c-2.8 0-4.3-.1-5.6-.6-1.1-.4-2-.9-2.7-1.8-1.1 1.1-2.1 1.8-3.8 2.4l-.1-.3c1.5-.9 2.4-1.7 3.4-2.9-.5-.7-.5-.9-1-2.4-.1-.3-.1-.3-.2-.5l.7-.2v.3c0 .6.3 1.4 1 2.2.8-1.2 1.2-2.4 1.5-3.9H132c-.1.3-.2.4-.4.7-.1.1-.1.1-.5.1-.5 0-.7-.1-.7-.2 0 0 0-.1.1-.1.4-.6.4-.7 1-1.9.6-1.4.7-1.5 1-2.4h-1.4c-.6 0-.7 0-1.1.1l-.1-.6c.4.1.7.1 1.2.1h1.3c.3-.3.4-.5.7-.8.5.3.6.5 1.1.8l.2.2c0 .1-.1.2-.6.4-.5 1.1-.5 1.1-1.5 3.2h1.3c.3-.3.4-.3.6-.6.5.4.6.5 1 .9h2.6v-2.8c-1.3.3-1.9.4-3.5.6l-.1-.3c3.6-.9 5.6-1.7 6.9-2.8.5.3 1.2.8 1.5 1 .1.1.1.1.1.2s-.1.2-.2.2c-.2 0-.5-.1-.8-.1-1.1.5-1.7.7-2.8 1v3h1.8c.5-.6.6-.8 1-1.3.7.6.9.8 1.5 1.4.1.1.1.1.1.2s-.1.1-.2.1h-4.2v3.7h1.4l1-1.2c.7.6.9.7 1.4 1.3.1.1.1.1.1.2s-.1.1-.3.1h-6.7c-.6 0-.9 0-1.4.1l-.1-.7c.5.1 1 .2 1.5.2h1.9v-3.7h-2.5zm-6.2 28.2c0 .2-.2.3-.9.3-.2 0-.3-.1-.3-.2.1-1.7.1-3.5.1-10.8 0-.8 0-3.3-.1-5 .6.4.8.5 1.4.9H141c.4-.4.5-.5.8-.9.5.4.6.5 1.1.9.1.1.2.2.2.3 0 .1-.1.2-.7.6V195c0 1.8 0 1.9.1 3.5 0 .2-.1.2-.2.3-.1.1-.5.1-.7.1-.3 0-.4-.1-.4-.2v-.7H129v.7zm0-1.1h12.2v-13.4H129v13.4zm6.5-4.3c.9.4.9.4 1.5.6.6-.3.8-.4 1.3-.8.7-.5.9-.7 1.2-1.1.6.5 1 1 1 1.1 0 .1-.1.1-.2.1s-.1 0-.5-.1c-.9.5-1.4.7-2.5 1 1.1.5 1.7.9 2.1 1.2.4.3.5.5.5.9 0 .3-.2.6-.3.6-.1 0-.2-.1-.5-.4-.7-.7-2-1.8-2.8-2.3-.3-.2-.5-.3-.9-.5v3.1c0 .3-.2.3-.9.3-.2 0-.2-.1-.2-.2.1-1 .1-2.2.1-2.4v-1.1c-1.7 1.7-2.9 2.5-5 3.3l-.1-.3c1.2-.6 2.2-1.3 3.3-2.3.6-.6.9-.8 1.6-1.8h-1.9v.4c0 .2-.1.3-.5.3h-.4c-.1 0-.2-.1-.2-.3.1-.9.1-1.4.1-2 0-.2 0-.7-.1-1.7.5.3.7.4 1.2.7h5.1l.6-.6c.3.3.5.3.8.6l.2.2c0 .1-.1.2-.5.3v2c0 .3-.1.3-.5.4h-.3c-.1 0-.2-.1-.2-.2v-.2h-2.1v1.2zm2.2-7.1c.4-.4.5-.6.9-1 .6.4.8.6 1.3 1.1.1.1.1.1.1.2s-.1.1-.2.1h-4.3v1.6h3.2c.4-.5.5-.6.9-1 .6.5.8.6 1.3 1.1.1.1.1.1.1.2s-.1.2-.2.2h-9.5c-.7 0-.9 0-1.5.1l-.1-.7c.5.1 1 .2 1.7.2h3.2v-1.6h-2.3c-.6 0-.8 0-1.5.1l-.1-.7c.6.1 1.1.2 1.8.2h2.1v-.3c0-.4 0-.7-.1-1.3.7.1 1.4.1 1.6.2.1 0 .2.1.2.2 0 .2-.1.2-.6.3v.8h2zm-5.4 5.8h5.4v-1.7h-5.4v1.7zm-3.3 14.7c.9.7 1.3.8 2.3.8.6 0 1.1-.1 1.9-.2.4-.8.6-1.4.6-1.8 0-.5-.3-.8-1.3-1 .3-.2.5-.2.8-.2.4 0 .9.1 1.4.3.5.2.6.4.6.6 0 .1-.1.3-.3.5-.2.2-.4.5-.5.7-.3.5-.3.5-.5.7 1.5-.4 2-.6 2.6-1.2.1-.1.2-.1.3-.1.7 0 1.2.3 1.2.6 0 .2-.2.4-.8.6-1.6.5-2.5.7-3.9 1-.3.4-.5.8-1 1.4-.5.8-.6 1-1 1.4 1-.5 1.6-.7 2.3-.7 1.1 0 1.9.7 2 1.8.3-.1.3-.1 1.8-.9 1.8-.9 2.2-1.2 2.2-1.5 0-.3-.3-.6-.8-.8.2-.1.3-.1.4-.1.8 0 2 1.1 2 1.8 0 .3-.1.4-.6.6-1.1.3-3.4 1.2-4.8 1.9v1.5c0 .8-.1 1.4-.1 1.5-.1.2-.3.3-.5.3-.3 0-.6-.2-.6-.5v-.3c.1-.5.1-1.1.1-1.9-1.1.6-1.6 1-2.1 1.4-.6.6-.9 1.1-.9 1.7 0 1 1 1.4 3 1.4 1.3 0 2.5-.2 3.6-.5.1 0 .3-.1.3-.1.6 0 1.3.5 1.3.9 0 .2-.2.4-.6.5-.7.1-2.1.3-3.2.3-1.7 0-2.9-.2-3.7-.5-.9-.4-1.3-1-1.3-1.9 0-.8.4-1.6 1.3-2.5.5-.5 1-.9 2.2-1.6 0-.8-.1-1-.3-1.4-.2-.3-.5-.5-.9-.5-1.2 0-2.6 1-3.9 2.6-.3.5-.5.6-.7.6-.3 0-.5-.4-.5-1 0-.4 0-.4.5-.8 1.3-1 2.1-1.9 3.3-3.9-.6.1-.8.1-1.2.1-1.2 0-1.9-.3-2.7-1.4l.7-.2zm-.2 33.3c0 .3-.2.3-.8.3-.4 0-.5 0-.5-.2.1-2.7.1-4.6.1-7.9 0-4.3 0-6.4-.1-7.4.6.4.8.5 1.4.9h1.6c.3-.3.4-.4.7-.8.4.3.6.4 1 .8l.2.2c0 .1-.1.2-.5.4v12.8c0 .3-.1.3-.8.3-.3 0-.3 0-.3-.2v-.8H129v1.6zm1.8-14h-1.8v3.5h1.8V226zm-1.8 4v3.6h1.8V230h-1.8zm0 4v3.9h1.8V234h-1.8zm2.1 6.8c1.9-1.1 2.7-2 3.4-3.4.5-1.1.8-2.1.8-3.7-.6.5-1.3 1-2.2 1.6-.1.7-.1.8-.3.8-.2 0-.2 0-.8-1.9.9-.1 2.2-.5 3.3-1v-4.1c0-2.9 0-3.5-.1-4.2 1.8.2 1.9.3 1.9.4 0 .1-.2.2-.7.4v1.9c0 .7-.1 5-.1 5.5-.1 2.6-.5 4-1.5 5.3-.9 1.1-2 1.9-3.8 2.7l.1-.3zm1.5-13.4c1.3 1 2.2 2 2.2 2.6 0 .5-.4 1.2-.7 1.2-.2 0-.2-.1-.4-.8-.3-1.1-.6-1.8-1.3-2.9l.2-.1zm6.9 2.8c1.1-1.2 1.8-2.3 2.2-3.2 1.4.6 1.8.8 1.8 1 0 .2-.3.2-.9.2-1.4 1.3-1.9 1.7-3 2.4v1.9c.7.2 1.8.7 2.3.9.4.2.8.5.9.7.1.1.2.4.2.8 0 .5-.2.9-.4.9-.1 0-.2-.1-.4-.3-.7-1-1.5-1.9-2.5-2.6v5.9c0 .5 0 .5.6.5h.8c.9 0 1.1 0 1.2-.3.1-.2.2-.5.8-3.2h.3l-.1 2.7v.1c0 .2 0 .3.2.4.4.2.4.3.4.5 0 .5-.7.7-2.7.7-1.9 0-2.2 0-2.4-.2-.3-.2-.4-.4-.4-1v-12.7c0-.9 0-1.2-.1-1.8 1.9.3 2 .3 2 .5 0 .1-.1.2-.7.4v4.8zm-9.2 17.5c.7.5 1.1 1 1.4 1.5.2.3.4 1 .6 1.9 1.2-.7 2.2-.9 3.8-1.1.2-.9.3-1.6.3-2.1s-.2-.6-.8-.6h-.3l-.1-.2c.5-.2.9-.3 1.2-.3.7 0 1.4.6 1.4 1.1 0 .3-.3 1.4-.5 2.1 3 .1 5 2.1 5 4.8 0 2-1.2 3.7-3.3 4.8-1.1.6-2.1.9-3.5 1l-.1-.3c1.5-.5 2.5-1 3.5-1.8 1.3-1.1 2-2.6 2-4.1 0-1.4-.6-2.5-1.5-3.2-.6-.5-1.3-.6-2.3-.7-.7 2-1.9 4.2-3 5.6.3.4.3.5.6.9.5.6.6.7.6.9 0 .2-.2.4-.4.4-.4 0-1-.5-1.5-1.3-.3.4-.7.8-1.4 1.3-.6.5-1 .6-1.4.6-.4 0-.6-.2-.8-.9-.2-.6-.2-.7-.5-1.2-.3-.4-.4-.7-.4-1.1 0-1.4 1-3 2.8-4.2-.3-2.1-.5-2.6-1.4-3.7v-.1zm0 6.2c-.4.7-.6 1.4-.6 2.1 0 .8.5 1.7.9 1.7s1.3-.6 2.2-1.5c-.5-1.2-.7-2-1.1-3.9-.8.6-1.1 1-1.4 1.6zm3.2 1.4c1-1.4 1.8-3 2.4-4.8-1.5.2-2.4.5-3.5 1.3.5 2.1.7 2.5 1.1 3.5zm-4.8 14.6c.9.8 1.4 1 2.3 1 .5 0 1-.1 1.6-.2.5-1.2.6-1.9.6-2.6 0-.6-.3-1-1.2-1.4.2-.1.3-.1.4-.1.4 0 .9.2 1.4.4.6.3.8.5.8.8 0 .1 0 .3-.2.5-.1.1-.5.9-1.1 2.2 1.3-.5 1.5-.6 2-1 .1-.1.2-.1.4-.1.7 0 1.2.2 1.2.5 0 .5-1.1.9-4 1.6-.2.4-.5 1.1-1 2.2-.5 1.2-1.9 4.3-2.1 4.6-.3.5-.4.6-.6.6-.3 0-.6-.6-.6-1.3 0-.4 0-.5.2-.6.4-.4.6-.7.9-1.1.9-1.3 1.5-2.5 2.3-4.2-.4.1-.6.1-.8.1-.6 0-1.1-.1-1.6-.4-.5-.3-1-.7-1.3-1.3l.4-.2zm9.5 1c1.2.1 2.3.4 3.1 1 .7.5 1.1 1 1.1 1.4 0 .3-.2.5-.5.5-.1 0-.3 0-.4-.1-.5-.3-.8-.4-1.8-.4-1.4 0-1.9.4-1.9 1.6 0 .5.1 1.3.4 3.1 1.1.3 2 .8 2.6 1.2.5.4.7.8.7 1.4 0 .4-.1.6-.4.6-.2 0-.3-.1-.6-.5-.6-.7-1.2-1.1-2.2-1.6v.3c0 .7-.1 1.1-.5 1.5-.5.5-1.3.8-2.3.8-1.6 0-2.7-.8-2.7-1.9 0-1.3 1.4-2.1 3.4-2.1.4 0 .6 0 1.1.1-.1-1.4-.1-1.6-.1-1.8 0-1.5.1-2 .6-2.6.4-.4.9-.6 1.7-.8.3-.1.3-.1 1-.2-.5-.5-1-.8-2.3-1.2v-.3zm-1 7.9c-.6-.2-1-.2-1.5-.2-1.5 0-2.5.5-2.5 1.4 0 .7.7 1.1 1.8 1.1 1.5 0 2.2-.6 2.2-1.7v-.6zm-6.2 20.7c1.4.8 2.4 1.2 2.8 1.2.4 0 .7-.4 1.2-1.5.6-1.5 1.1-3.5 1.1-4.8 0-.8-.2-1.2-.5-1.5-.2-.1-.4-.2-.8-.2-.5 0-.8.1-1.9.4-.3.6-.3.6-1 2.4-.1.2-.5 1.1-1.1 2.5-.7 1.7-1.3 3-1.6 3.5-.1.2-.3.3-.4.3-.3 0-.5-.5-.5-1.2 0-.5.1-.6.4-1 .8-1 1.6-2.5 3.3-6.3-1.2.4-2 .7-2.3.9-.3.2-.4.2-.5.2-.2 0-.6-.2-.8-.5-.3-.4-.6-1-.6-1.4 0-.1 0-.2.1-.4.4.7.7 1 1.4 1 .4 0 1.7-.3 3.1-.6.4-1 .7-2.3.7-3 0-.6-.4-.9-1.4-1.2.2-.2.3-.2.5-.2.3 0 .7.1 1.2.2.8.2 1.3.6 1.3 1 0 .1 0 .2-.3.5l-1.2 2.4c.8-.2 1.1-.2 1.6-.2 1.5 0 2.3.9 2.3 2.8 0 2.3-.9 5.3-2 6.4-.5.5-1.2.8-1.7.8-.3 0-.5-.1-.5-.4 0-.5-.1-.6-2-2.1h.1zm8-7.3c1.4.4 2.5 1.1 3.3 2.2.7.9 1 1.7 1 2.5 0 .6-.3 1-.7 1-.1 0-.2 0-.4-.1-.3-.2-.4-.2-.7-.2-.6 0-.7 0-2.3.2l-.1-.2c1.8-.5 2.2-.7 2.8-.9-.2-1.7-1.4-3.4-3-4.1l.1-.4zm.6-3.6c.7.4 1.2.7 1.6 1.1.6.6.9 1 .9 1.4s-.3.8-.6.8c-.2 0-.2 0-.8-1.2-.3-.6-.9-1.4-1.4-1.9l.3-.2zm1.9-1c.6.3 1.2.6 1.7 1 .7.5.9.9.9 1.4 0 .4-.2.7-.5.7-.2 0-.3-.1-.4-.3-.6-1.1-1-1.6-2-2.6l.3-.2zm-8.4 20.9c.6.9 1.1 1.2 2.3 1.6.3.1.9.3 1.3.3.3.1.5.2.7.4.3.3.4.6.4.8s-.2.4-.4.4c-.1 0-.1 0-.4-.1-.3 0-.5-.1-.9-.1-.9 0-2.3.2-3.4.5-.5.1-.7.2-.8.3-.1.1-.2.3-.2.5 0 .1 0 .3.1.5.1.3.1.4.1.6 0 .1 0 .3-.1.6-.1 1-.3 2.4-.3 3.7 2.2-1.5 4.2-2.2 5.9-2.2 2 0 3.4 1.2 3.4 2.8 0 1.7-1.3 3.1-3.5 3.8-1.2.4-2.4.6-4.1.7l-.1-.3c2.1-.3 3.3-.8 4.5-1.6 1.2-.9 1.8-1.8 1.8-2.9 0-1.2-.9-2-2.2-2-1.3 0-2.9.7-4.3 2-.5.4-.7.7-1 1.1-.2.3-.3.4-.5.4-.3 0-.5-.2-.8-.6-.2-.4-.4-.7-.4-.9 0 0 0-.2.1-.3.1-.3.1-.4.2-1.1 0-.4.1-.9.2-1.5.3-1.4.3-2 .3-2.4 0-.6.1-.8.3-1 .3-.3.8-.5 1.9-.8 1.5-.4 1.5-.4 2.1-.7-.7-.3-1.2-.6-1.6-1-.4-.4-.6-.7-.9-1.4l.3-.1zm6.3 20.6c1.4.5 2.8 1.2 3.5 1.7.7.5 1 .9 1 1.6 0 .6-.3 1.2-.7 1.2l-.2-.1c-.1-.1-.1-.1-.9-1.3-.6-.9-1.6-1.9-2.8-2.9l.1-.2zM91.1 136c1.4-1.1 1.9-1.8 2.6-3.2-.8-.3-1.5-.7-2.1-1.4-.8-1-1.2-2.4-1.2-4.1v-.7c-1.4 1.6-2.4 3.6-2.4 5v.6c0 .3-.2.5-.5.5-.6 0-1.1-1.5-1.1-3.6 0-.9.1-1.7.2-3 .1-.8.1-1.1.1-1.4 0-.6-.3-1.2-.7-1.6.4 0 .6.1 1 .5.6.5 1 1.1 1 1.5 0 .2 0 .3-.2.7-.4.9-.7 2.3-.7 3.5 0 .3 0 .5.1 1 1.1-2.1 1.7-3 3-4.3.2-1.8.6-2.9 1.3-3.7.4-.5.9-.8 1.5-.8.5 0 1.1.3 1.4.6.4.4.6.8.9 1.6h.3c1 0 2 .3 2.8.9 1.2.8 1.8 2.1 1.8 3.5 0 2.8-2.3 5-5.2 5h-.6c-1.1 1.7-2 2.5-3.5 3.2l.2-.3zm-.1-9.9v.9c0 1.7.5 3.2 1.4 4 .5.5 1 .8 1.7 1 .5-1.6.7-3.3.7-5.4 0-1 0-1.6-.2-2.3-1.4.2-2.5.7-3.6 1.8zm3.6-2.3c-.3-1.4-.8-1.9-1.5-1.9-1 0-1.7 1.3-2.1 3.6 1.2-1 2.3-1.5 3.6-1.7zm1.5 3.3c0 1.9-.3 3.5-.9 5 2.4 0 4.1-1.8 4.1-4.3 0-1.4-.5-2.6-1.5-3.2-.6-.4-1.1-.5-2-.6.2 1.3.3 2.1.3 3.1zm-2.8 26c2.3-.5 3.7-1.1 5-2.2 1-.8 1.5-1.8 1.5-2.9 0-1.6-1.1-2.6-2.7-2.6-1.7 0-4.1 1-6 2.5-.3.3-.5.3-.7.3-.7 0-1.7-1.3-1.7-2.1 0-.1 0-.2.1-.4.3.6.7 1 1.1 1 .2 0 .7-.1 1.6-.5 1.6-.6 3.1-1.1 4.1-1.3.4-.1.8-.1 1.4-.1 2.4 0 4 1.4 4 3.5 0 1.3-.8 2.6-1.9 3.4-1.4 1-3 1.5-5.7 1.8l-.1-.4zm-7.2 13.2c.7.8 1.2 1 2 1 .7 0 1.5-.1 2.3-.3.4-1.2.6-2.4.6-3 0-.6-.3-.8-1.3-1.1.2-.1.3-.2.6-.2.4 0 1 .1 1.5.3.5.2.8.5.8.7 0 .1 0 .1-.2.4-.2.3-.6 1.3-1.1 2.6 1-.4 1.7-.7 2.1-1.1.3-.3.4-.3.5-.3.2 0 .7.1 1 .2.2.1.3.2.3.3 0 .3-.3.5-1 .9-.8.4-2 .8-3.2 1-.2.6-.2.6-.8 2.3-.4 1.1-.4 1.1-1.4 4-.7 2.1-1 2.6-1.3 2.6-.2 0-.3-.1-.4-.4-.1-.3-.3-.7-.3-1 0-.3 0-.3.4-.9.9-1.3 1.6-2.9 2.8-6.4-.7.1-1.2.2-1.7.2-1.1 0-1.8-.5-2.5-1.6l.3-.2zm7.1 6.2v.6c0 1 .5 1.8 1.4 2.2.5.2 1.2.3 1.9.3s1.2-.1 1.7-.3c.1-.1.2-.1.3-.1.2 0 .6.2.9.4.2.2.3.3.3.5 0 .4-.7.6-2.1.6-1.4 0-2.5-.2-3.3-.6-1-.5-1.5-1.4-1.5-2.6 0-.4 0-.7.2-1.1l.2.1zm.5-3.3c1.3-.8 2.8-1.2 4.2-1.2.4 0 .8.1 1.1.3.2.1.3.3.3.5 0 .3-.2.4-.7.4-.7 0-.9.1-1.4.4-.4.2-.4.2-1 .6l-.6.4-.1-.2c.2-.2.2-.2.9-.8.2-.1.3-.3.9-.8-1.2 0-2.1.2-3.4.7l-.2-.3zm-2.5 29.7c1.3-.8 2.1-1.5 2.9-2.5 1.3-1.7 1.9-3.7 1.9-6.1 0-1.6-.3-3-.7-3.7-.3-.5-.8-.8-1.3-.8-.9 0-1.7.8-2.4 2.3-.5 1.2-.8 2.6-.8 3.9 0 .3 0 .5.1 1.1v.4c0 .3-.2.5-.5.5-.7 0-1.1-1.5-1.1-3.7 0-1.5.1-2.4.6-4.8.1-.7.2-1.1.2-1.3 0-.6-.3-.9-1-1.3.1-.1.3-.1.3-.1.4 0 1 .2 1.4.6.5.4.7.6.7 1 0 .2 0 .3-.3.7-.7 1.1-1.3 3.7-1.3 5.4v.7c.5-2.3 1.2-3.8 2.1-4.7.7-.7 1.4-1.1 2.2-1.1 1.7 0 3 2.1 3 5.1 0 2.3-.6 4.3-2 5.9-1.1 1.3-2.3 2.2-4 2.8v-.3zm-.7 5.5c.5 0 1.4.2 1.8.3.4.1.5.3.5.6 0 .1 0 .1-.1.5-.2.6-.4 2.2-.4 3.7 0 1.1.1 1.3.7 1.3.4 0 .8-.1 2.4-.9.3-.2.5-.2.7-.2.4 0 .9.4.9.8 0 .2-.1.4-.4.5-.1.1-.4.1-1.2.4-2.2.6-3.4 1.2-4.5 2-1 .8-1.4 1.5-1.4 2.3 0 1.3 1 2 3 2 1.1 0 2.9-.2 4.2-.5.2 0 .3-.1.4-.1.5 0 1 .5 1 .9 0 .3-.2.5-.8.6s-2.4.2-3.5.2c-1.3 0-2.3-.1-3.1-.4-1.2-.5-2-1.5-2-2.7 0-1 .6-2 1.8-3 .5-.5 1.1-.9 2.2-1.4-.4 0-.6-.1-.9-.3-.3-.2-.4-.6-.5-1.4-.1-.4-.1-.8-.1-2.2-.1-1.5-.1-1.8-.2-2.1-.2-.3-.5-.5-1.3-.6.3-.3.4-.3.8-.3zm8.8 31.9c-1.7 2.3-4.1 3.7-6.3 3.7-1.4 0-2.4-.6-3-1.5-.4-.6-.5-1.5-.5-3 0-1 .1-2.7.1-4.3.1-1.9.1-2.4.1-3.1 0-1.5-.2-1.9-1.5-2.4.2-.1.3-.2.5-.2.4 0 1.1.2 1.6.4.7.3 1 .7 1 1.1 0 .1 0 .2-.2.6-.3 1.1-.9 6.5-.9 8.6 0 1.1.2 1.7.7 2.2.4.3 1 .5 1.6.5 1.2 0 2.7-.4 4.1-1.2.8-.4 1.4-.8 2.3-1.6l.4.2zm-13.2 13.5c.7.8 1.2 1 2 1 .7 0 1.5-.1 2.3-.3.4-1.2.6-2.4.6-3 0-.6-.3-.8-1.3-1.1.2-.1.3-.2.6-.2.4 0 1 .1 1.5.3.5.2.8.5.8.7 0 .1 0 .1-.2.4-.2.3-.6 1.3-1.1 2.6 1-.4 1.7-.7 2.1-1.1.3-.3.4-.3.5-.3.2 0 .7.1 1 .2.2.1.3.2.3.3 0 .3-.3.5-1 .9-.8.4-2 .8-3.2 1-.2.6-.2.6-.8 2.3-.4 1.1-.4 1.1-1.4 4-.7 2.1-1 2.6-1.3 2.6-.2 0-.3-.1-.4-.4-.1-.3-.3-.7-.3-1 0-.3 0-.3.4-.9.9-1.3 1.6-2.9 2.8-6.4-.7.1-1.2.2-1.7.2-1.1 0-1.8-.5-2.5-1.6l.3-.2zm7.1 6.2v.6c0 1 .5 1.8 1.4 2.2.5.2 1.2.3 1.9.3s1.2-.1 1.7-.3c.1-.1.2-.1.3-.1.2 0 .6.2.9.4.2.2.3.3.3.5 0 .4-.7.6-2.1.6-1.4 0-2.5-.2-3.3-.6-1-.5-1.5-1.4-1.5-2.6 0-.4 0-.7.2-1.1l.2.1zm.5-3.3c1.3-.8 2.8-1.2 4.2-1.2.4 0 .8.1 1.1.3.2.1.3.3.3.5 0 .3-.2.4-.7.4-.7 0-.9.1-1.4.4-.4.2-.4.2-1 .6l-.6.4-.1-.2c.2-.2.2-.2.9-.8.2-.1.3-.3.9-.8-1.2 0-2.1.2-3.4.7l-.2-.3zm-7.1 15.8c.6.7.9.8 1.5.8 1.1 0 2.4-.5 3.4-1.2.1-.1.2-.1.3-.1.4 0 1 .5 1 .9 0 .2-.1.2-.6.5-.7.4-1.6 1.1-2.3 2-1.3 1.6-2 3.4-2 5.1 0 2.4 1.4 3.9 3.5 3.9 1.6 0 3.1-.9 3.9-2.4.6-1.1.9-2.6.9-4.6 0-1.9-.2-3.4-.6-4.9-.1-.2-.1-.4-.1-.4 0-.2.1-.3.3-.3.3 0 .6.2.9.5.2.2.3.3.3.7.1.8.7 2.7 1.4 4.1.5 1 .9 1.7 1.4 2.2.3.3.5.9.5 1.5 0 .4-.2.7-.4.7-.4 0-.9-.6-1.6-2.1-.7-1.5-1.2-2.8-1.9-5.2h-.1c.4 2.6.4 3.2.4 4.5 0 2.4-.5 4.1-1.6 5.3-.9 1-2.2 1.5-3.5 1.5-2.7 0-4.4-2-4.4-5.1 0-1.1.3-2.4.7-3.5.4-1.1.9-1.9 1.8-3.1-.6.1-1 .2-1.4.2-1 0-1.6-.4-2.1-1.4l.4-.1zm3.9 19.4c.5 0 1.4.2 1.8.3.4.1.5.3.5.6 0 .1 0 .1-.1.5-.2.6-.4 2.2-.4 3.7 0 1.1.1 1.3.7 1.3.4 0 .8-.1 2.4-.9.3-.2.5-.2.7-.2.4 0 .9.4.9.8 0 .2-.1.4-.4.5-.1.1-.4.1-1.2.4-2.2.6-3.4 1.2-4.5 2-1 .8-1.4 1.5-1.4 2.3 0 1.3 1 2 3 2 1.1 0 2.9-.2 4.2-.5.2 0 .3-.1.4-.1.5 0 1 .5 1 .9 0 .3-.2.5-.8.6-.6.1-2.4.2-3.5.2-1.3 0-2.3-.1-3.1-.4-1.2-.5-2-1.5-2-2.7 0-1 .6-2 1.8-3 .5-.5 1.1-.9 2.2-1.4-.4 0-.6-.1-.9-.3-.3-.2-.4-.6-.5-1.4-.1-.4-.1-.8-.1-2.2-.1-1.5-.1-1.8-.2-2.1-.2-.3-.5-.5-1.3-.6.3-.3.4-.3.8-.3zm-3.8 33.9c0 .2-.1.3-.6.3h-.4c-.2 0-.2-.1-.3-.2 0-2.3.1-4.5.1-8.4 0-2 0-2.9-.1-4.6.6.3.7.5 1.3.9H89c.3-.3.4-.5.7-.8.4.3.5.5 1 .8.1.1.2.2.2.3 0 .1-.2.3-.6.5v10.6c0 .1-.1.2-.1.2-.1 0-.6.1-.8.1-.1 0-.2-.1-.2-.2v-1h-2.4v1.5zm2.5-11.7h-2.4v4.4h2.4v-4.4zm-2.5 4.9v4.8h2.4V315h-2.4zm11.9 1.8h.4c.4-.5.6-.6 1-1.1.6.5.8.7 1.3 1.2.1.1.1.1.1.2s-.1.1-.2.1h-2.6v5.1c0 .8-.1 1-.2 1.2-.3.3-.6.5-1.7.7-.1-.5-.2-.7-.5-.9-.3-.2-.6-.3-1.9-.5v-.3c1.3.1 1.7.1 2.9.1.2 0 .3-.1.3-.3V317h-4.8c-1 0-1.1 0-1.7.1l-.2-.7c.6.1 1 .2 1.9.2h4.8v-2.4h-5.1c-.9 0-1.2 0-1.7.1l-.1-.7c.6.1.8.1 1.8.1h2.3v-2.9h-2.2c-.7 0-1 0-1.4.1l-.1-.7c.5.1.9.2 1.5.2h2.2v-1.3c0-.3 0-.6-.1-1.4 1.7.2 2.1.3 2.1.4 0 .1-.2.3-.8.4v1.9H98l1-1.2c.6.6.8.7 1.4 1.3.1.1.1.1.1.2s-.1.1-.2.1h-4.4v2.9h3l1-1.2c.7.6.9.8 1.6 1.3l.1.1c0 .1-.1.1-.2.1h-2.7v2.8zm-6.3 1.2c.7.3 1.4.6 2.1 1.2.5.4.8.7.8 1.1 0 .6-.3 1.2-.5 1.2-.1 0-.3-.1-.4-.5-.5-1-1.1-1.8-2.1-2.8l.1-.2zM87 332c.9.7 1.3.8 2.3.8.6 0 1.1-.1 1.9-.2.4-.8.6-1.4.6-1.8 0-.5-.3-.8-1.3-1 .3-.2.5-.2.8-.2.4 0 .9.1 1.4.3.5.2.6.4.6.6 0 .1-.1.3-.3.5-.2.2-.4.5-.5.7-.3.5-.3.5-.5.7 1.5-.4 2-.6 2.6-1.2.1-.1.2-.1.3-.1.7 0 1.2.3 1.2.6 0 .2-.2.4-.8.6-1.6.5-2.5.7-3.9 1-.3.5-.5.8-1 1.4-.5.8-.6 1-1 1.4 1-.5 1.6-.7 2.3-.7 1.1 0 1.9.7 2 1.8.3-.1.3-.1 1.8-.9 1.8-.9 2.2-1.2 2.2-1.5 0-.3-.3-.6-.8-.8.2-.1.3-.1.4-.1.8 0 2 1.1 2 1.8 0 .3-.1.5-.6.6-1.1.3-3.4 1.2-4.8 1.9v1.5c0 .8-.1 1.4-.1 1.5-.1.2-.3.3-.5.3-.3 0-.6-.2-.6-.5v-.3c.1-.5.1-1.1.1-1.9-1.1.6-1.6 1-2.1 1.4-.6.6-.9 1.1-.9 1.7 0 1 1 1.4 3 1.4 1.3 0 2.5-.2 3.6-.5.1 0 .3-.1.3-.1.6 0 1.3.5 1.3.9 0 .2-.2.4-.6.5-.7.1-2.1.3-3.2.3-1.7 0-2.9-.2-3.7-.5-.9-.4-1.3-1-1.3-1.9 0-.8.4-1.6 1.3-2.5.5-.4 1-.9 2.2-1.6 0-.8-.1-1-.3-1.4-.2-.3-.5-.5-.9-.5-1.2 0-2.6 1-3.9 2.6-.3.5-.5.6-.7.6-.3 0-.5-.4-.5-1 0-.4 0-.4.5-.8 1.3-1 2.1-1.9 3.3-3.9-.6.1-.8.1-1.2.1-1.2 0-1.9-.3-2.7-1.4l.7-.2zm14.7 20.3c0 1.3-1 2.3-2.3 2.3-1.3 0-2.3-1-2.3-2.3 0-1.3 1-2.3 2.3-2.3 1.2 0 2.3 1 2.3 2.3zm-4.1 0c0 1 .8 1.7 1.7 1.7 1 0 1.7-.8 1.7-1.7s-.8-1.7-1.7-1.7c-.9 0-1.7.7-1.7 1.7zM43 124.3c1 .4 1.7.7 2.1.9.5.3.6.5.6.9 0 .5-.3 1.1-.5 1.1-.1 0-.2-.1-.3-.3-.5-.9-1.1-1.6-2-2.4l.1-.2zm.1 6.5c.5.1.7.2.9.2.3 0 .4-.1.8-1 .5-1 .9-2 1.7-3.8.8-1.9.8-1.9 1.2-2.6l.3.1-2.4 7.3c-.2.6-.2.7-.2 1 0 .3 0 .4.2 1.1.2.8.3 1 .3 1.4 0 .7-.6 1.5-1.3 1.5-.2 0-.4-.2-.4-.5 0-.1 0-.4.1-.7.2-1.1.2-1.4.2-1.9 0-1.2-.1-1.4-1.3-1.9l-.1-.2zm1-10.4c.9.4 1.5.6 2.1 1 .6.4.8.6.8 1 0 .5-.2 1-.5 1-.1 0-.2-.1-.3-.3-.4-.7-.7-1.1-2.2-2.5l.1-.2zM54.9 132v2.8c0 .5-.1.6-.4.9-.3.3-.7.4-1.5.5-.1-.6-.2-.8-.5-.9-.3-.1-.4-.1-1.7-.3v-.3c1.5.1 1.6.1 2.7.1.3 0 .3-.1.3-.3v-5.1h-2v.6c0 .2-.2.3-.9.3-.2 0-.3-.1-.3-.3.1-1.5.1-1.9.1-3.4 0-1.6 0-2.4-.1-3.2.6.3.8.4 1.4.8h1c.1-.3.1-.3.1-.5.3-.9.3-1.1.4-1.8h-4.1v1.9c0 3.7-.3 6.1-.8 8.1-.3 1-.7 2.1-1.2 2.9-.3.4-.5.7-1 1.4l-.2-.2c.9-1.5 1.2-2.6 1.6-4.6.4-2 .5-4 .5-8.3 0-1.2 0-1.5-.1-2.5.6.3.8.4 1.4.8h7c.5-.5.6-.7 1.1-1.2.8.6 1 .8 1.7 1.4l.1.1c0 .1-.1.1-.2.1h-4.4c-.9 1.5-.9 1.6-1.5 2.3h3.2c.3-.3.4-.4.7-.8.4.3.6.4 1 .7l.2.2c0 .1-.1.2-.5.4v5.2c0 .2-.2.3-1 .3-.2 0-.2-.1-.2-.2v-.6h-1.9v2.7zm-6.6 3.6c1.3-1.6 2.2-3.3 2.6-5 1.6.5 1.7.6 1.7.7 0 .2-.2.3-.7.3-1.2 2-1.8 2.7-3.4 4.2l-.2-.2zm8.5-9.2v-1.9h-5.1v1.9h5.1zm-5.1.4v2.1h5.1v-2.1h-5.1zm4.2 3.8c1 .7 1.8 1.4 2.5 2.1.4.4.6.8.6 1.2 0 .6-.3 1.4-.6 1.4-.1 0-.2-.1-.3-.4-.6-1.5-1.2-2.6-2.3-4.1l.1-.2zm-12.2 19.8c.6.1.8.1 1.8.1h2.8c.3-.3.4-.4.7-.8.5.4.6.5 1 .9.1.1.2.2.2.3 0 .1-.1.2-.7.3-.9 1.5-1.9 2.6-3.3 3.7-1.1.8-2 1.3-3.4 1.8l-.1-.2c1.5-.8 2.4-1.5 3.4-2.6 1-1 1.6-1.8 2.1-3h-2.9c-.8 0-1.1 0-1.5.1l-.1-.6zm8.3-2c.1.8.2 1.1.6 1.8.3.6.6 1 1.1 1.5 1.3-.9 2.7-2.2 3.3-3 1.4.8 1.6 1 1.6 1.1 0 .1-.1.2-.3.2-.1 0-.3 0-.6-.1-1 .6-2.5 1.4-3.8 1.9.6.6 1.2 1.1 1.9 1.5 1.3.8 2.3 1.2 4 1.5v.2c-.4.1-.6.2-.9.4-.3.2-.4.4-.5.8-1-.4-1.5-.6-2.4-1.3-1.5-1.1-2.2-2-3.2-3.6-.5-.9-.7-1.3-1-2.3.1 1.2.1 2.6.1 3.4v3.3c0 .9-.3 1.1-2.1 1.6-.2-.9-.6-1.1-2.4-1.3v-.3c1.4.1 1.8.1 3 .1.2 0 .3-.1.3-.2v-7.3H47v.6c0 .3-.1.3-.9.3-.2 0-.2 0-.3-.2 0-1.4.1-2.8.1-4.7 0-1.1 0-1.6-.1-2.5.6.3.8.4 1.5.8H50c.3-.6.4-1.5.5-2.2 1.6.4 1.6.4 1.8.5.1.1.2.1.2.2 0 .2-.2.2-.9.3-.4.5-.6.7-1.1 1.2h4.6l.7-.8c.5.4.6.5 1.1.8.1.1.2.2.2.3 0 .2-.1.2-.7.5v5c0 .2 0 .3-.2.3-.1 0-.5.1-.8.1-.2 0-.2 0-.2-.2v-.3H52zm3.3-3v-2.2h-8.2v2.2h8.2zm-8.2.4v2.2h8.2v-2.2h-8.2zm3.9 30.7c1.9-.6 3.2-1.3 4.2-2.5 1.1-1.2 1.6-2.7 1.6-4.3 0-1.7-.7-3.1-2-4-.8-.5-2-.8-3.1-.8h-.6c.4.6.6 1 .6 1.5 0 1.4-1 4-2.4 6.2-1.1 1.8-2 2.7-2.7 2.7-.3 0-.6-.1-.8-.4-.2-.2-.2-.3-.5-1.2-.2-.5-.3-.7-.8-1.7-.3-.6-.4-1.1-.4-1.6 0-1.1.6-2.5 1.6-3.6 1.5-1.5 3.8-2.5 6.2-2.5 1.8 0 3.5.6 4.6 1.7 1.2 1.1 1.7 2.5 1.7 4.2 0 2.2-1.3 4.2-3.6 5.5-1 .6-2 .8-3.5 1.1l-.1-.3zm-5.9-5.6c0 .9.3 1.7.7 2.4.3.3.5.5.7.5.4 0 1.3-1 2.1-2.4 1.3-2.1 2.3-4.4 2.3-5.6 0-.3-.1-.5-.3-.9-3.1.6-5.5 3.2-5.5 6zm-2.1 16c2.1.8 2.8 1.3 2.8 2 0 .6-.3 1.1-.6 1.1-.2 0-.3-.1-.4-.4-.4-.9-1-1.6-1.9-2.5l.1-.2zm.1 6.6c.5.1.9.2 1 .2.3 0 .4-.1 1.2-1.8.6-1.2.8-1.8 1.7-3.8.6-1.5.6-1.5.9-2l.3.1-2.6 7.7c-.2.6-.2.6-.2.8 0 .3.1.6.4 1.5.1.4.2.7.2 1 0 .4-.1.8-.3 1.1-.3.3-.6.5-1 .5-.3 0-.4-.1-.4-.4 0-.3 0-.3.1-1.1.1-.6.1-1.2.1-1.7 0-.6-.1-.9-.3-1.2-.2-.2-.4-.3-1.1-.6v-.3zm1-10.4c1.1.4 1.8.7 2.3 1.2.4.3.5.5.5.9 0 .5-.3 1.1-.5 1.1s-.3-.1-.5-.6c-.5-.9-.9-1.4-1.9-2.4l.1-.2zm12.2 9.7c-.9 1.5-1.3 2-2.1 2.8-.7.7-1.9 1.6-2.9 2.3-.6.3-1 .5-2.1.9l-.1-.2c1.9-1.1 2.8-1.8 4-3.2.8-.9 1.2-1.4 1.9-2.6h-1.7c-.8 1.1-1.2 1.4-1.8 2-1.4 1.3-2.4 2-4.3 2.8l-.1-.2c2-1.3 3-2.1 4-3.3.3-.4.5-.6.9-1.3h-1.7c-1.2 1.4-2.2 2.1-4 3l-.1-.2c1.6-1.1 2.4-2 3.4-3.5.3-.5.5-.7.8-1.4h-2.2c-.3 0-.6 0-.9.1l-.1-.7c.4.1.7.2 1 .2h8.9c.4-.5.6-.6 1-1.1.6.5.8.7 1.5 1.2.1.1.1.1.1.2s-.1.1-.2.1h-7.7c-.5.9-.7 1.1-1.1 1.7h6.7l.7-.7c.5.3.6.4 1 .8.1.1.2.2.2.3 0 .1-.1.2-.6.4-.3 2.3-.6 3.8-1 4.6-.3.7-1 1.1-2.1 1.2-.1-.6-.2-.7-.5-.9-.4-.2-.9-.4-1.6-.6l.1-.2c.5.1.5.1 1.4.2.2 0 1 .1 1.2.1.4 0 .5-.1.7-.6.3-.8.6-2.4.7-4.1h-1.3zm-5.9-3.4c0 .2-.1.3-.8.3-.3 0-.4-.1-.4-.2v-6.6c.6.3.7.4 1.3.8h5l.7-.7c.4.3.6.4 1 .7.1.1.2.2.2.3 0 .1-.1.2-.5.5 0 3 0 3.6.1 4.9 0 .1 0 .2-.1.3-.1.1-.5.1-.8.1-.2 0-.3-.1-.3-.3v-.5h-5.2v.4zm5.3-5.3h-5.2v2h5.2v-2zm-5.3 2.4v2h5.2v-2h-5.2zM47.8 212c0 .2-.3 1.3-.8 3.4-.3 1.1-.3 1.4-.3 1.9s0 .7-.1.8c-.1.2-.2.3-.4.3-.3 0-.6-.3-.8-.7-.4-.9-.6-2.4-.6-3.8 0-.5.1-1.2.1-1.9.1-1 .1-1 .6-3.4.2-.8.3-1.3.3-1.7 0-.6-.1-1-.5-1.7.4 0 .7.3 1.2.9.5.6.7 1 .7 1.4 0 .3 0 .4-.4 1.1-.4.8-.8 2-1 2.9-.2.7-.2 1.5-.2 2.2 0 1 .1 1.6.3 2.4.3-.6.5-1 .6-1.5l1-2.5.3-.1zm2.3.9c0 .4-.1.5-.1.8 0 2 1.1 2.8 3.9 2.8.5 0 1 0 1.5-.1.4-.1.4-.1 1-.3.1 0 .2-.1.3-.1.5 0 1.1.6 1.1 1.1 0 .2-.1.4-.4.5-.4.1-1.2.2-2.3.2-2.3 0-3.9-.4-4.7-1.1-.6-.6-1-1.4-1-2.3 0-.4.1-.8.2-1.4l.5-.1zm0-5.7c.6.4 1 .5 1.7.5 1.1 0 2.9-.4 3.6-.8.2-.1.3-.1.4-.1.1 0 .4.1.6.3.4.2.6.4.6.7s-.1.3-.5.4c-1.2.2-1.9.3-2.6.6-.6.2-1.6.8-2.3 1.3l-.2-.2c.8-.7 1.4-1.2 1.7-1.4h-.7c-1 0-1.7-.3-2.4-1l.1-.3zm5.6 25.3c.8-1 1.3-1.8 1.9-3 1.6.8 1.8.9 1.8 1 0 .2-.2.2-.9.2-1.1 1.6-1.8 2.5-2.7 3.4l.1 5.2c0 .8-.4 1.1-2.2 1.4-.1-.6-.2-.8-.4-1-.3-.2-.8-.3-2.3-.5v-.2c.7 0 .7 0 1.9.1h1.4c.3 0 .3-.1.3-.3v-3.7c-1.5 1.4-3.3 2.5-5.5 3.5-2.1 1-3.7 1.6-5.7 2l-.1-.3c2.1-.7 3.9-1.6 6.3-3 1.8-1.1 3.2-2.1 4.4-3.1-.6.2-1.1.3-1.4.4-1.7.5-2 .6-4.5 1.1-2.4.5-2.7.6-3.6.7-.1.5-.2.7-.3.7-.2 0-.3-.3-.7-2 .9 0 2.1-.1 3.1-.3v-9.1c.7.4.9.5 1.6.9H50c.3-.8.5-1.6.6-2.4.4.1.7.2.9.2.9.2 1.2.3 1.2.4s-.1.2-.8.3c-.7.7-.9 1-1.3 1.4h4.1c.3-.3.4-.4.7-.8.4.3.6.4 1 .8.1.1.2.2.2.3 0 .1-.1.2-.6.5v5.2zm-1.1-3.2v-2.1h-6.9v2.1h6.9zm-6.9.5v2.3h6.9v-2.3h-6.9zm6.9 2.6h-6.9v2.4c2.3-.3 5.1-.7 6.7-1l.2-.2v-1.2zm-8.6 16c.4.6.7 1 1.2 1.3.6.4 1.2.6 2.1.8.5-2.5.6-2.8.6-3.2 0-.6-.3-1-1-1.5.1-.1.2-.1.3-.1.3 0 .8.2 1.3.6.6.4.9.9.9 1.3 0 .2-.1.3-.2.5-.3.4-.5.9-1 2.5.4.1.5.2.7.4.1.2.3.4.3.6 0 .2-.2.4-.6.4-.2 0-.4 0-.7-.1-.4 1.2-.6 2.3-.7 3.3.4.1.7.1.9.1h.3c.5 0 1.1.6 1.1 1 0 .3-.2.4-.6.4-.5 0-1.3-.1-1.9-.3 0 .4-.1.6-.1.9 0 1.8 1 2.9 2.8 2.9 1.2 0 2.3-.5 2.8-1.2.4-.5.6-1.2.6-1.8 0-1.5-1-3.2-2.7-4.5l.2-.2c2.7 1.6 3.8 3.1 3.8 5 0 2.2-1.9 3.8-4.4 3.8-.9 0-1.8-.3-2.4-.7-.9-.7-1.4-1.8-1.4-3.3v-.9c-.7-.3-1.1-.5-1.4-.9-.5-.5-.8-1.2-.8-1.8 0-.4.2-.9.6-1.2.4-.4.9-.7 1.7-1-.7-.3-1.2-.6-1.7-1.1-.4-.4-.6-.8-.9-1.6l.3-.4zm1.1 4.1c-.3.3-.4.6-.4.9 0 .8.6 1.3 1.9 1.7.1-.9.3-1.9.5-3.3-1.1 0-1.6.2-2 .7zm-1.3 20.1v.9c0 1.8-.4 3.6-1 4.7-.4.7-.8 1.1-1.1 1.1s-.5-.6-.5-1.3c0-.3.1-.4.5-.8.5-.5 1-1.3 1.3-2.2.3-.8.4-1.4.5-2.6h.3zm1.9-.1c0-.8 0-1.7-.1-2.5 1.9.3 2.2.3 2.2.5s0 .2-.8.5v9.4c0 .3.1.3.7.4h2.5c1.5 0 1.8-.1 2-.4.2-.4.5-1.3 1.1-4.1h.2l-.2 3.9v.1c0 .2.1.3.4.3.4.1.5.2.5.5s-.3.5-.8.6c-.4.1-2.1.2-3.3.2-2.9 0-3.5 0-3.8-.1-.4-.1-.6-.4-.6-.9.1-1.8.1-1.9.1-2.6v-5.8zm.5-5.8c2.1.5 3.1.9 4.3 1.6.3.2.4.3.5.5.1.2.1.6.1.8 0 .5-.2.8-.4.8-.1 0-.2-.1-.5-.4-1.1-1.2-2.6-2.3-4.2-3.1l.2-.2zm7.7 5.8c2.1 2 3.2 3.6 3.2 4.6 0 .3-.1.8-.4 1.3-.2.3-.3.5-.5.5s-.3-.2-.4-.7c-.5-2.3-1.1-3.8-2.2-5.6l.3-.1zM46 290.2c.4.6.7 1 1.2 1.3.6.4 1.2.6 2.1.8.5-2.5.6-2.8.6-3.2 0-.6-.3-1-1-1.5.1-.1.2-.1.3-.1.3 0 .8.2 1.3.6.6.4.9.9.9 1.3 0 .2-.1.3-.2.5-.3.4-.5.9-1 2.5.4.1.5.2.7.4.1.2.3.4.3.6 0 .2-.2.4-.6.4-.2 0-.4 0-.7-.1-.4 1.2-.6 2.3-.7 3.3.4.1.7.1.9.1h.3c.5 0 1.1.6 1.1 1 0 .3-.2.4-.6.4-.5 0-1.3-.1-1.9-.3 0 .4-.1.6-.1.9 0 1.8 1 2.9 2.8 2.9 1.2 0 2.3-.5 2.8-1.2.4-.5.6-1.2.6-1.8 0-1.5-1-3.2-2.7-4.5l.2-.2c2.7 1.6 3.8 3.1 3.8 5 0 2.2-1.9 3.8-4.4 3.8-.9 0-1.8-.3-2.4-.7-.9-.7-1.4-1.8-1.4-3.3v-.9c-.7-.3-1.1-.5-1.4-.9-.5-.5-.8-1.2-.8-1.8 0-.4.2-.9.6-1.2.4-.4.9-.7 1.7-1-.7-.3-1.2-.6-1.7-1.1-.4-.4-.6-.8-.9-1.6l.3-.4zm1.1 4c-.3.3-.4.6-.4.9 0 .8.6 1.3 1.9 1.7.1-.9.3-1.9.5-3.3-1.1.1-1.6.3-2 .7zm9.6 15.3c.5-.6.6-.7 1.1-1.3.8.6 1 .8 1.7 1.4l.1.1c0 .1-.1.1-.2.1h-7.3c.2.1.2.1.9.4.2.1.3.2.3.3 0 .1-.1.2-.7.2 1.7 1.2 3.9 1.7 6.9 1.9v.2c-.7.3-.9.5-1.1 1.2-1.8-.5-2.5-.8-3.5-1.3-.9-.5-1.6-1-2.6-1.8-2 1.7-3.2 2.4-5.9 3.5l-.1-.2c1.6-.8 2.9-1.7 4.3-3.1l1.1-1.1h-5.4c0 2.7 0 4.2-.1 4.6-.1 2.6-.5 4.8-1.4 6.7-.5 1.1-1 1.8-2 2.9l-.2-.1c1.2-1.9 1.7-3.2 2-5.1.2-.8.2-1.4.3-2.8-.6.6-.8.9-1.7 1.6v.5c0 .2-.1.3-.2.3-.2 0-.3-.3-.9-1.7.4-.1.7-.2 1.6-.5.4-.2.5-.2 1.2-.6.1-1.1.1-2.4.1-4.3 0-1.8 0-2-.1-2.8.6.3.8.4 1.4.9h4.8v-.7c0-.4 0-.6-.1-1 1.9.1 2.1.2 2.1.4 0 .1-.1.2-.7.4v1h4.3zm-13.9 1.2c.5.4.9.8 1.4 1.4.4.5.6.9.6 1.2 0 .3-.1.8-.3 1-.1.1-.2.2-.3.2-.2 0-.3-.2-.4-.6-.2-.9-.8-2.4-1.2-3.1l.2-.1zm5.3 9.9c-.1.7-.3 1.5-.7 2.2-.3.6-.9 1.1-1.3 1.1-.3 0-.5-.4-.5-.8 0-.3.1-.4.5-.6.5-.2 1-.5 1.2-.8.2-.3.3-.5.5-1.1h.3zm.5-2.6v2l-.2.2h-.6c-.3 0-.3 0-.3-.2.1-1.1.1-1.8.1-3.4 0-.9 0-.9-.1-2.3.5.2.7.3 1.2.6h2.7c.3-.3.3-.3.5-.6.4.3.5.3.9.6l.1.1c0 .1-.2.3-.4.4v3.8c0 .3-.1.5-.5.6-.2.1-.3.1-.9.3-.2-.6-.5-.8-1.4-.9v-.2c1.1.1 1.1.1 1.6.1.1 0 .1 0 .1-.1v-1h-2.8zm2.9-1.8v-1h-2.9v1h2.9zm-2.9.3v1.1h2.9v-1.1h-2.9zm.7 5.1v-1.2c1.7.2 1.8.2 1.8.4 0 .1 0 .1-.6.3v1.5c0 .1 0 .2.1.3.2.1.6.1 1.1.1.8 0 2.5 0 2.6-.1.3 0 .4-.1.5-.5.3-.6.5-1.2.6-1.7l.3.1-.1 1.5v.1c0 .2.1.3.4.4.4.1.5.2.5.4 0 .3-.2.4-.7.5-.6.1-1.5.2-3.2.2-3.3 0-3.4-.1-3.4-1.3v-1zm.4-8.5c.5.1.8.1 1.5.1H53c.4-.4.5-.5.8-.9.6.4.8.6 1.3 1.1 0 .1.1.1.1.1 0 .1-.1.1-.2.1h-3.9c-.6 0-.6 0-1.4.1v-.6zm2 7.2c.6.1 1.3.4 1.8.7.3.2.5.5.5.7 0 .4-.3.9-.5.9-.1 0-.2-.1-.3-.3-.4-.6-.9-1.3-1.6-1.9l.1-.1zm3.9-5.2c0 .1-.2.2-.5.3v2.8c0 .1-.1.2-.2.2s-.4.1-.6.1c-.2 0-.2 0-.3-.2.1-.7.1-.8.1-2.1 0-.8 0-1-.1-1.4 1.4.1 1.6.1 1.6.3zm1.2.6c0-.1 0-.5-.1-1.2 1.9.2 1.9.2 1.9.4 0 .1 0 .1-.7.4v3.8c0 .5-.1.6-.6.8-.4.2-.7.3-1.2.3-.1-.5-.2-.7-.5-.8-.2-.1-.3-.1-1-.2v-.2c.3 0 .3 0 1 .1.5.1.5.1.9.1.1 0 .1-.1.1-.2v-3.3zm-.4 4.9c.8.3 1.8.9 2.4 1.2.3.3.5.5.5 1s-.2 1-.5 1c-.2 0-.2 0-.5-.5-.5-.9-1.1-1.6-2-2.5l.1-.2zM53.5 331c.7.3 1.7.6 2 .6h.3c.5 0 .7.2.7.6 0 .3-.3.5-1 .9-.6.3-.9.5-2.6 1.1.9 1.3 1.9 2.9 2.5 3.9.3.5.4.9.4 1.4 0 .7-.1 1-.5 1-.2 0-.3-.1-.6-.3-.4-.3-.8-.7-1.2-.8-.9-.4-2.1-.7-3.3-.7-2.1 0-3.4.8-3.4 2.1 0 .8.5 1.4 1.4 1.8.6.3 1.5.4 2.5.4.7 0 1.1 0 1.6-.1h.2c.5 0 1.1.6 1.1 1 0 .5-.3.6-1.6.6-1.4 0-2.6-.2-3.5-.5-1.6-.5-2.6-1.6-2.6-2.9 0-1.8 1.8-2.9 4.7-2.9 1.2 0 2.6.2 3.5.5-.4-1.2-1.2-2.6-2.2-4-1.3.4-2.5.6-3.7.6-1.4 0-2.4-.5-3.3-1.6l.2-.2c1 .7 1.7 1 2.9 1 1 0 2.1-.2 3.3-.6-.8-1-1.8-1.9-2.5-2.3-.6-.3-.7-.4-.7-.7 0-.4.5-.7 1.2-.7.6 0 1.3.1 2.1.4l-.1.3c-.4-.1-.7-.1-.8-.1-.4 0-.6.1-.6.2s.2.3.7 1c.2.2.7.8 1.4 1.7.2-.1.2-.1 1.1-.5.4-.2.8-.3 1.3-.7-.5-.4-.5-.4-1.5-1l.6-.5zm-6.3 25.5v-.8c0-.4 0-.4.1-.6-.5.4-1.5 1-1.8 1.2-.3.2-.5.3-.6.3-.5 0-1.3-1.1-1.3-1.6 0 0 0-.2.1-.3.4.6.8.9 1.2.9.4 0 1.5-.5 2.6-1.1.1-.8.1-1.3.1-1.9 0-1-.2-1.4-1-2 .1-.1.1-.1.2-.1.3 0 .7.2 1.2.5.6.4.9.8.9 1.2 0 .2 0 .2-.2.7-.1.3-.3.9-.3 1.4.4.4.5.6.5.7 0 .1 0 .1-.3.5-.2.4-.4.7-.6 1.2v.7c1.8-1.7 2.4-2.2 3.1-2.8 1.3-.9 2.1-1.3 2.9-1.3.6 0 1.1.2 1.4.6.3.4.5.9.5 1.6 0 .7 0 .8-.4 2.7-.2 1.2-.3 2.2-.3 3 0 .7.1 1.1.5 1.3.3.2.6.3.9.3.9 0 2.2-.5 3.3-1.3l.1.2c-1.3 1.3-2.7 2.1-4 2.1-1.4 0-2.1-.9-2.1-2.5 0-.6.2-1.8.5-3.2.4-1.9.5-2.2.5-2.8 0-.9-.4-1.4-1.1-1.4-.8 0-1.7.5-3.2 1.8-.9.8-1.8 1.7-2.7 2.8v.9c0 1 .1 1.8.2 3.2.1.4.1.6.1.8 0 1-.3 1.9-.8 1.9-.2 0-.3-.1-.4-.5-.1-.2-.3-.7-.3-.9-.2-.4-.8-1.1-1.6-2-.4.9-.4 1-.6 1-.2 0-.3-.1-.4-.4-.1-.3-.2-.7-.2-1 0-.2 0-.3.3-.5.3-.3.6-.7 1.2-1.6l1.8-2.9zm-1.1 3.4c-.4.8-.6 1.2-1 1.9 1.1.9 1.4 1.1 1.9 1.5 0-.7 0-.7.1-3.4 0-.9 0-1.3.1-2-.3.5-.3.5-1.1 2zm6.5 13.2c-.7.2-2.4.9-3.6 1.4-.4.2-.6.2-.7.2-.3 0-.7-.3-1-.8-.3-.5-.5-1-.5-1.3 0-.2 0-.3.2-.5.3.8.8 1.3 1.4 1.3.5 0 2.2-.4 3.4-.8.7-.2.7-.2 1.1-.6.1-.1.2-.1.3-.1.2 0 .5.2 1 .6.4.4.5.6.5.8 0 .1-.1.2-.3.3-.5.3-.7.4-1.5 1.2-1.1 1.1-1.8 1.8-2.6 2.7-1.7 1.9-1.7 1.9-2.1 2.2 1.9-1.2 3.4-1.7 4.9-1.7 2.3 0 3.9 1.3 3.9 3.4 0 2.6-2.4 4.5-5.7 4.5-1.8 0-2.9-.7-2.9-1.8 0-.9.8-1.5 1.9-1.5.9 0 1.7.3 2.3.9.3.3.5.6.8 1.1 1.4-.6 2.2-1.8 2.2-3.4 0-1-.4-1.8-1.1-2.2-.4-.2-1.1-.4-1.8-.4-1.8 0-4.2 1.4-5.7 3.3-.3.4-.4.5-.6.5-.3 0-.6-.6-.6-1.2 0-.2.1-.4.4-.6.7-.5 1-.8 2.5-2.5 2.2-2.5 2.9-3.3 4.3-5.1.1-.2.1-.2.2-.3H53c-.2.3-.2.3-.4.4zm-2.7 10.3c-.7 0-1.1.4-1.1.9 0 .7.8 1.1 2.1 1.1.5 0 .7 0 1.3-.2-.5-1.1-1.3-1.8-2.3-1.8zM2.1 125c.7.6 1.4.9 2.1.9.5 0 1-.1 1.8-.2V124c0-1.9-.2-2.3-1.5-2.5.3-.2.4-.3.8-.3.6 0 1.4.2 1.9.5.2.1.4.4.4.6 0 .1 0 .1-.2.5-.3.5-.5 1.4-.6 2.7 1-.3 1.4-.6 2-1 .1-.1.3-.2.4-.2.2 0 .5.1.7.2.2.1.3.2.3.4 0 .3-.2.4-.8.7-.8.4-1.7.7-2.6.9 0 .3 0 .3-.1.9 0 .5-.1 1.3-.1 2.4 2-.7 3.3-1 4.8-1 2.5 0 4 1.2 4 3.1 0 1.8-1.4 3.1-3.1 3.1-1.7 0-2.8-1.1-3.5-3.2l.3-.1c.4.8.7 1.2 1.1 1.6.5.5 1.1.7 1.7.7 1.3 0 2.3-1 2.3-2.5 0-1.4-.9-2.1-2.7-2.1-1.4 0-3.1.4-4.9 1.3v3.1c0 .4-.1.8-.2 1.1-.2.4-.6.7-.9.7-.3 0-.3 0-1.4-1-.4-.3-.9-.7-1.2-.8-.4-.2-.6-.5-.6-.8 0-.3.2-.6.5-1 .7-.7 1.3-1.1 2.9-1.9v-.9c0-.8 0-.8.1-2.6-.6.1-1 .1-1.4.1-1.2 0-1.9-.4-2.7-1.5l.4-.2zm2 7.3c-.4.4-.5.7-.5.9 0 .2.2.4.7.6.4.2.9.3 1.1.3.2 0 .3-.1.3-.5.1-1.6.1-2.5.1-2.6-.8.4-1.2.8-1.7 1.3zm8.1-9.1c1.1.1 1.9.3 2.6.6.8.4 1.3 1 1.3 1.6 0 .3-.2.5-.5.5h-.7c-.3 0-.7.1-2.2.5l-.1-.2c1.1-.6 1.7-.9 2-1.2-.3-.5-.6-.8-1.1-1.1-.4-.2-.6-.3-1.2-.5l-.1-.2zm1.1 20c.5-.5.6-.7 1.1-1.2.7.6.9.7 1.5 1.3l.1.1c0 .1-.1.1-.2.1H5.1c-1.5 2.3-2.4 3.4-4.1 4.9l-.2-.2c1.4-1.7 2.3-3 3.2-5 .4-1 .6-1.6.8-2.4.8.2 1.7.4 1.9.5.1.1.2.1.2.2 0 .2-.2.3-.8.4-.3.5-.4.7-.7 1.2h7.9zM4 149.5c1.4.7 2.4 1.2 3.7 2.2.9-1.1 1.5-1.9 2-3.1 1.5.7 1.7.8 1.7 1 0 .1-.2.2-.4.2h-.4c-1.2 1.6-1.6 1.9-2.1 2.5 2.3 1.7 2.7 2.1 2.7 3 0 .6-.1.9-.3.9-.1 0-.3-.1-.5-.4-.6-.9-1.6-1.9-2.5-2.8-.8.8-1.7 1.4-2.7 2.1-1.2.7-2.1 1.1-3.7 1.7l-.1-.3c2.4-1.2 4-2.3 5.7-4.1-.2-.2-.2-.2-3.3-2.6l.2-.3zm-1.2-1.9c.6.1 1.2.1 2.1.1h7.9c.3-.3.3-.4.6-.8.4.3.6.4 1 .8.2.1.2.2.2.3 0 .1-.2.3-.6.5v1c0 1.2.2 2.4.5 3.4.3.8.6 1.3 1.2 1.9.4-1 .5-1.3 1-3.1l.3.1-.3 2.7c-.1.5-.1.7-.1.7 0 .2 0 .2.3.5.2.2.3.4.3.5 0 .3-.2.5-.5.5-.5 0-1.3-.6-2-1.4-.8-.9-1.2-1.8-1.5-3.2-.2-.9-.3-2.1-.3-3.2v-.8h-8c-1.5 0-1.5 0-1.9.1l-.2-.6zm2-2.3c.6.1 1.1.1 1.6.1h5.4c.4-.5.6-.6 1-1.1.7.5.9.7 1.5 1.2l.1.1c0 .1-.1.1-.2.1H6.3c-.1 0-.6 0-1.5.1v-.5zm.3 26.9v2.1h1.5l1-1c.5.5.7.6 1.3 1.2 0 .1.1.1.1.1 0 .1-.1.1-.2.1H5.1v3.3c0 .2-.2.3-.8.3-.2 0-.3 0-.3-.2 0-.5.1-1.6.1-3.4H2c-.5 0-.8 0-1.4.1l-.1-.7c.5.1.9.2 1.5.2h2.1v-2.1H2.5v.7c0 .2-.1.2-.5.2h-.3c-.1 0-.2 0-.2-.2.1-1.5.1-1.5.1-5.7 0-.6 0-1-.1-1.7.6.3.8.4 1.3.7h1.3v-1.8H2.2c-.8 0-.8 0-1.2.1l-.1-.5c.3.1.9.2 1.4.2h1.9v-.6c0-1 0-1.1-.1-1.7 1.7.2 1.9.3 1.9.4 0 .2-.2.3-.8.4v1.5h1.3c.4-.4.5-.6.9-1 .6.5.8.6 1.3 1.1.1.1.1.1.1.2s-.1.1-.2.1H5.1v1.8h1.5l.7-.7c.4.3.5.4.8.7.2.2.2.2.2.3 0 .1 0 .1-.6.4v2.4c0 1.6 0 1.9.1 3.2 0 .1-.1.2-.2.2s-.6.1-.7.1c-.1 0-.2-.1-.2-.2v-.6H5.1zm-1-5.4H2.5v2.2H4v-2.2zm0 2.6H2.5v2.4H4v-2.4zm2.6-2.6H5.1v2.2h1.6v-2.2zm0 2.6H5.1v2.4h1.6v-2.4zm5 2c0-.7 0-1-.1-1.7 1.7.2 2 .3 2 .5 0 .1-.1.2-.8.4v2.1h1.7c.4-.5.5-.7 1-1.2.6.6.8.7 1.5 1.3.1.1.1.1.1.2s-.1.1-.2.1h-4v3.8H15c.5-.6.6-.7 1.1-1.3l1.4 1.4c.1.1.1.1.1.2s-.1.1-.2.1H8.7c-.5 0-.7 0-1.2.1l-.1-.7c.5.1.8.2 1.3.2h3.1v-3.8H9.6c-.4 0-.7 0-1 .1l-.1-.7c.4.1.7.1 1.1.1h2.1v-1.2zm2.9-8.3c.3-.4.4-.5.8-.8.5.4.6.5 1.1.8.2.1.2.2.2.3 0 .1-.1.2-.8.4-.9 1.7-1.6 2.5-2.7 3.5 1.3.9 2.4 1.3 4.4 1.6v.3c-.6.2-.8.4-1 1-1.8-.7-3-1.4-4.1-2.3-1.3 1-2.3 1.6-4.2 2.5l-.2-.3c2.3-1.5 2.8-1.8 3.8-2.8-1.1-1.2-2-2.7-2.3-3.9-.6 0-.8 0-1.2.1l-.1-.5c.5.1.7.2 1.3.2h5zm-4.6.4c1.2 2.1 1.5 2.5 2.5 3.3 1.2-1.4 1.7-2 2.2-3.3H10zm-5.5 34.7c2.8-2.4 4.4-4.2 6-6.9 1.2-2 2.1-4.2 2.1-4.8 0-.2-.1-.2-.4-.2-.3 0-2 .3-3.3.6-1.4.3-2.5.7-3.3 1-.3.1-.5.1-.7.1-.4 0-.8-.4-1.3-1-.3-.4-.5-.8-.5-1.1 0-.1 0-.2.1-.4.3.7.9 1 1.7 1 .6 0 2-.2 5.1-.7 1.6-.3 1.7-.3 2.1-.5.2-.1.2-.1.4-.1.3 0 .8.3 1.3.8.4.4.6.6.6.9 0 .2 0 .3-.3.5-.3.3-.3.4-.6 1-2.4 4.8-5.2 8-8.9 10l-.1-.2zM18 184.4c0 1.1-.9 2-2 2s-2-.9-2-2 .9-2 2-2c1.2 0 2 .9 2 2zm-3.3 0c0 .8.6 1.4 1.4 1.4.8 0 1.4-.6 1.4-1.4 0-.8-.6-1.4-1.4-1.4-.8 0-1.4.6-1.4 1.4zm-9 34.6c1.8-1.4 2.9-2.5 4.1-4 1.5-1.9 2.5-3.8 3-5.5-1.7.1-3.4.4-5.2.8-1.1.3-1.5.4-1.9.6-.3.1-.4.2-.5.2-.6 0-1.7-1.3-1.7-2.1 0-.1 0-.2.1-.3.4.7.9 1 1.6 1 .7 0 3.7-.4 6.1-.8 1-.2 1.1-.2 1.5-.4.1-.1.2-.1.3-.1.2 0 .4.2.8.5.5.5.7.8.7 1 0 .1-.1.3-.3.5-.3.2-.4.3-.7.9-1.9 3.7-4.8 6.6-7.8 7.9l-.1-.2zm-.2-13.9c.6.7 1.2 1 1.9 1 1.2 0 3.4-.5 4.1-.9.1-.1.2-.1.4-.1.5 0 1.4.6 1.4 1 0 .2-.2.3-.7.4-2.1.3-3.6.5-4.6.5-1.4 0-1.9-.3-2.8-1.7l.3-.2zm-2.1 22.4c1.7.4 2.8.8 3.5 1.4.4.3.6.7.6 1.2 0 .6-.2 1-.5 1-.2 0-.3-.1-.8-.7-.9-1.2-1.5-1.8-2.9-2.6l.1-.3zm12.8 1c-.9 1.7-2 3.1-3.8 4.8-1.7 1.6-2.8 2.5-5.1 4.1-.8.6-.9.7-1.1.8-.3.3-.4.4-.6.4-.7 0-2.1-1.7-2.1-2.6 0-.1 0-.2.1-.4.4.5.4.6.6.8.3.3.5.4.7.4.3 0 .9-.2 1.7-.8 2-1.2 2.7-1.7 4.3-3 2.2-1.8 3.3-2.9 4.8-4.8l.5.3zM2.4 249.6c.3.2.5.3.8.3.5 0 1-.1 5-1.1.6-.2 1.7-.4 2.9-.6 1.3-.3 1.9-.4 2.4-.6.4-.1.5-.1.6-.1.2 0 .6.2 1 .4s.5.4.5.7c0 .3-.2.5-.6.5h-.8c-3.1 0-6 2.9-6 6 0 1.6.8 2.9 2.4 3.5.6.3 1.3.4 1.8.4.4 0 .5.1.8.3.3.3.5.6.5.9 0 .3-.3.5-.6.5-1 0-2.7-.6-3.7-1.3-1.4-1-2.1-2.4-2.1-4 0-1.5.7-3.1 2-4.4.7-.8 1.4-1.3 2.9-2.1-2.2.3-6.4 1.5-8 2.4-.4.2-.5.3-.7.3-.4 0-1-.4-1.4-1.1-.3-.4-.5-.9-.5-1.2 0-.1 0-.3.2-.5.2.4.3.6.6.8zm10.7 1.7c.7.4 1.2.7 1.6 1.1.6.6.9 1 .9 1.4 0 .4-.3.8-.6.8-.2 0-.2 0-.8-1.2-.3-.6-.9-1.4-1.4-1.9l.3-.2zm1.9-1.1c.6.3 1.2.6 1.7 1 .7.5.9.9.9 1.4 0 .4-.2.7-.5.7-.2 0-.3-.1-.4-.3-.6-1.1-1-1.6-2-2.6l.3-.2zM6.4 282c2.1-1.4 3-2.6 3.4-4.5-.4.3-.7.4-1.2.4-1.3 0-2.2-1.1-2.2-2.6 0-1.6 1-2.8 2.3-2.8.3 0 .5.1 1 .3v-2.3c-1.4.1-3.1.5-4.5.9-.5.1-.8.3-1.2.5-.1 0-.3.1-.4.1-.3 0-.7-.3-1.2-.7-.4-.4-.7-1-.7-1.3 0 0 0-.1.1-.2.5.6 1 .9 1.7.9.4 0 .8 0 1.5-.2 2.1-.3 2.8-.4 4.6-.6 0-1.1-.1-1.6-.2-2-.2-.5-.6-.8-1.5-.9.2-.3.3-.3.8-.3.6 0 1.2.1 1.7.3.4.1.7.4.7.6 0 .1 0 .2-.2.5-.2.4-.3.9-.4 1.7.5-.1.5-.1 1.2-.1 1.7-.1 1.9-.2 2.4-.3.5-.2.5-.2.7-.2.4 0 1.1.3 1.5.7.2.2.3.3.3.5s-.1.3-.4.3c-.1 0-.2 0-1-.1-.9-.1-1.7-.2-2.8-.2-.7 0-1.2 0-1.9.1-.1.7-.1 1.8-.1 2.4v.6c.4.9.6 1.5.6 2.4 0 1.8-.7 3.4-1.9 4.6-.7.6-1.6 1.2-2.7 1.7v-.2zm2.3-9c-.8 0-1.4.8-1.4 1.9 0 1.1.6 2 1.5 2 .8 0 1.2-.6 1.2-1.7-.2-1.5-.5-2.2-1.3-2.2zm9 16.7c0 1.3-1 2.3-2.3 2.3-1.3 0-2.3-1-2.3-2.3 0-1.3 1-2.3 2.3-2.3 1.2 0 2.3 1 2.3 2.3zm-4.1 0c0 1 .8 1.7 1.7 1.7 1 0 1.7-.8 1.7-1.7 0-1-.8-1.7-1.7-1.7-.9-.1-1.7.7-1.7 1.7z"/></g></g><line x1="212.1" y1="29.3" x2="212.1" y2="89.3" fill="none" stroke="#76544b" stroke-miterlimit="10"/></svg>