<svg version="1.1" id="レイヤー_1" xmlns="http://www.w3.org/2000/svg" x="0" y="0" viewBox="0 0 114 200.7" xml:space="preserve"><style type="text/css">.st0{fill:#210100}.st2{fill:#fff}</style><g><rect x="48.9" class="st0" width="55" height="180"/><rect x="11.1" y="108.7" class="st0" width="55" height="92"/><line x1="76.5" y1="0" x2="76.5" y2="30" fill="none" stroke="#76544b" stroke-miterlimit="10"/><g><g><path class="st2" d="M69.5 59.9c-.1.2-.5 1.1-.5 1.3-.9 1.9-1.7 2.7-1.8 2.7 0 0-.1 0-.1-.1l.2-.5c.6-1.7 1-3 1-4 0-.3 0-.5.2-.5.1 0 1.4.3 1.3.6.1.1-.2.4-.3.5zm.8.3v-2.4c0-.2-.1-.3-.3-.3l-1.3.3c-.1.1-.4.4-.5.4-.4 0-.7-1.6-.7-1.8 0-.1.1-.2.2-.2s.5.1.6.2c.3.1.9.1 1 .1.3 0 .4-.1.6-.4.6-1 1.7-3.3 1.9-4.1.1-.5.2-.7.3-.7.3 0 1.5.7 1.5 1 0 .1-.1.2-.2.2-.3.1-.5.1-.7.4-.2.2-1.7 2.2-2 2.6-.2.3-.6.8-.6.9 0 .1.2.1.3.1.4 0 2-.1 2.1-.1.1 0 .2 0 .2-.2 0-.1-.3-1.1-.4-1.2 0-.1-.1-.2-.1-.3v-.1c.1 0 1.8 1.2 1.8 2.2 0 .5-.3.9-.7.9-.4 0-.5-.4-.5-.6 0-.2-.1-.3-.2-.3s-1 .2-1.1.4c-.1.1-.1 3.4-.1 3.9s.1 2.6.1 3.1c0 .3 0 1.2-.9 1.2-.3 0-.5-.3-.5-.5-.1-.2.2-4 .2-4.7zm-.1-7.7c.1.1.3.5.3.8 0 .6-.5.8-.6.8-.2 0-.3-.2-.4-.4-.1-.2-.5-.9-.6-1.1-.1-.3-1.1-1.4-1.1-1.4h.1c.3 0 1.4.6 1.5.6.2 0 .3-.1.5-.6.5-.9.8-1.5.8-2.2 0-.1 0-.3.2-.3s1.6.7 1.6.9c0 .2-.1.2-.5.3-.2.1-.3.1-.9.8-.2.3-1.1 1.2-1.1 1.4 0 .1 0 .1.2.4zm3.1 9.8c-.4 0-.5-.4-.6-1.1-.1-.3-.3-1.5-.4-1.8 0-.1-.1-.3-.1-.4.4 0 1.5 1.3 1.7 2.1.1.6-.2 1.2-.6 1.2zm3.5-3.1c-.5 0-.5.3-.5.8 0 .7 0 3 .2 3.3.2.3.7.4.9.4.5.1 1.9.1 2.6.1.5 0 2.7 0 2.9-.3.4-.4.6-1.5.7-1.5 0-.1.1-.3.1-.3.1 0 .2 1.3.3 1.5.1.1.4.7.4.8 0 .2-.2.4-.4.5-.4.2-1 .5-4.3.5-1 0-3.2 0-3.9-.5-.7-.5-.7-1.2-.7-3.8v-4.9c0-.2-.1-1.1-.3-1.1-.1 0-.8.4-1 .4h-.1c.1-.1.3-.3.4-.3 2.1-1.6 3.4-4.3 3.5-5.3 0-.4 0-.5.2-.5.3 0 1.4.6 1.4 1 0 .1-.1.2-.3.3-.1 0-.2.3-.2.4 0 .2.2.2.3.2h1.5c.2 0 .4 0 .7-.3s.3-.3.4-.3c.3 0 1.2 1 1.2 1.3 0 .1-.1.2-.5.2-.3.1-.5.3-.9.8-.5.5-1.3 1.4-1.8 2-.1.1-.2.2-.2.3 0 .1.2.1.3.1h1.7c.3 0 .4 0 .7-.3.1-.1.2-.2.3-.2.1 0 1 .5 1.1.6.1.1.2.2.2.3 0 .1 0 .2-.4.4-.2.1-.2.5-.2.9s.1 2.1.1 2.4c0 .4 0 1-1 1-.3 0-.3-.3-.4-.5-.1-.3-.2-.4-.5-.4h-4.5zm1.9-7.9c-.3 0-.5 0-.7.3-1.3 1.7-2.3 2.4-2.4 2.5-.1.1-.2.1-.2.2s.4.3.5.4c.5.3.6.3 1.1.3h1.1c.5 0 .6-.1 1-.5.9-1.1 1.7-2.6 1.7-2.9 0-.3-.3-.3-.4-.3h-1.7zm-.6 7.5c.5 0 .5-.1.5-1.5 0-1.6 0-1.7-.5-1.7h-1.2c-.5 0-.5.1-.5 1.5 0 1.7 0 1.8.5 1.8h1.2zm2.2-3.3c-.6 0-.6.2-.6 1.2 0 .3 0 1.7.1 1.8.1.2.3.2.5.2h1.1c.6 0 .6-.1.6-2.3 0-.8 0-1-.6-1h-1.1zm-6.5 27c0 .2-.1.2-.4.3-.2 0-.4.1-.7.3-1 .7-2.8 1.8-4.5 2.4-.1 0-.5.2-.6.2 0-.1.5-.3.5-.4 1.1-.7 3.1-2.1 4-3.4.1-.1.2-.4.3-.4h.1c.2 0 .5.2.7.4.2.1.6.4.6.6zm5-12.4c.2 0 .4 0 .6-.2.3-.3.3-.3.4-.3.1 0 1.3.6 1.3.9 0 .1 0 .1-.3.3-.2.1-.2.2-.2.6V73c0 .1.1.8.1 1 0 .6-.4.9-.8.9-.3 0-.3 0-.5-.4-.1-.3-.3-.3-.5-.3h-2.5c-.1 0-.1 0-.1.1s.1.1.2.2c.2.1.3.2.3.3 0 .1-.1.2-.3.3-.1.1-.2.2-.2.6 0 .3.3.3.4.3h3.9c.4 0 .7 0 .9-.1.2-.1.8-.9 1-.9.2 0 1.4.8 1.4 1.2 0 .3-.2.3-.7.3H68.7c-.1 0-.5.1-.5.1-.1 0-.1 0-.2-.1l-.3-.5-.1-.1h.1c.1 0 .7.1.8.1.5 0 1.5.1 2.5.1h3.7c.5 0 .5-.4.5-.5 0-1.1-.1-1.3-.6-1.3h-1.9c-.2 0-.4 0-.5.3-.3.4-.7.4-.7.4-.5 0-.5-.4-.5-.6 0-.2.1-2 .1-2.4v-1.3c0-.1-.1-.7-.1-.8 0-.2.2-.2.3-.2.2 0 .3 0 1 .4.1 0 .3.1.6.1h5.9zm-6 10.8c-.1 0-.3 0-.4.2-.2.3-.3.4-.7.4-.3 0-.5-.1-.5-.4 0-.1.1-.6.1-.7v-2.2c0-.1-.1-.4-.1-.5 0-.2.2-.2.2-.2.2 0 .8.3 1.1.4.2.1.4.1.6.1h5.7c.1 0 .2 0 .4-.1.1 0 .5-.3.6-.3.2 0 1.2.6 1.2.9 0 .1-.1.1-.2.3-.2.1-.2.2-.2.7 0 .2.1 1.2.1 1.4 0 .5-.4.7-.8.7-.2 0-.3 0-.5-.5-.1-.2-.3-.2-.5-.2H77c-.5 0-.5.1-.5 1.6 0 .1.1 1.4.1 1.6 0 .4 0 1.7-1.3 1.7-.2 0-.3 0-.5-.2-.5-.5-.5-.6-.8-.8-.1-.1-.4-.3-.6-.4 0-.1.1-.1.1-.1.1 0 1 .1 1.1.1.5 0 .7-.1.7-.6v-2.5c0-.4-.3-.5-.5-.5h-2zm-.1-10.4c-.5 0-.5.3-.5.5 0 .6 0 .8.5.8H79c.1 0 .5 0 .5-.4 0-.7 0-.9-.5-.9h-6.3zm0 1.8c-.1 0-.5 0-.5.4 0 .9 0 1 .5 1H79c.1 0 .5 0 .5-.4 0-.9 0-1-.5-1h-6.3zm5.9 8.1c.5 0 .5-.1.5-1.3 0-.4 0-.7-.5-.7H73c-.5 0-.5.1-.5 1.2 0 .5 0 .8.5.8h5.6zm3.7 4.2c0 .6-.5.8-.7.8-.2 0-.5-.2-1-.9-.7-.9-1.1-1.3-2.3-2-.1-.1-.3-.2-.3-.2h.1c.2 0 1.1.2 1.4.3 1.6.3 2.8 1.2 2.8 2zm-12 14.9c0-.5.5-1.1 1.7-2.5.8-.9 1.5-2.4 1.5-2.7 0-.1-.1-.1-.2-.1-.2 0-.9.1-1.1.1-.7 0-1.6-.9-1.6-1.6 0-.1 0-.1.1-.1s.6.3.7.3c.2.1.7.3 1.2.3 1.5 0 1.5-.5 1.5-.8 0-.1 0-.4-.1-.6-.1-.1-.4-.4-.4-.5 0-.1.5-.3.8-.3.4 0 .9.2.9.6 0 .2.1.3.8.3.1 0 .8.1.8.5 0 .6-1.3 1.1-2.1 1.4-.3.1-.3.1-.7 1.1-.4 1-.5 1.1-1 1.9-.1.1-.1.2-.1.3 0 0 0 .1.1.1s.4-.1.6-.2c.2-.1.4-.1.7-.1.2 0 1.1 0 1.5 1.1.1.3.1.3.2.3s.6-.8.7-1c.6-.8 1.8-2.5 3.3-2.5 1 0 1.7.8 1.7 1.6s-1.4 1.4-2.5 1.9c-.5.2-2.5 1-2.8 1.2-.3.2-.3.4-.3.8v1.1c0 .3 0 1.3-.7 1.3-.5 0-.6-.6-.6-.9 0-.2.1-1 .1-1.1 0-.1 0-.2-.1-.2s-1.7 1.1-1.7 2.1c0 1.2 1.8 1.2 2.3 1.2.5 0 .8 0 1.2-.1.3 0 1.4-.3 1.6-.3.4 0 .9.2.9.6 0 1.1-2.8 1.2-3.2 1.2-2.3 0-3.5-.9-3.5-2.4 0-1.2.7-1.7 2.4-3.1.2-.1.3-.4.3-.6 0-.8-.1-1.8-.9-1.8-.7 0-1.7.8-2.2 1.9-.2.5-.4.9-1 .9-.4 0-.8-.1-.8-.6zm4.6-6.8s.9-.2.9-.4-.5-.3-.6-.3c-.3 0-.3.5-.3.6v.1zm1.7 5.9c.1.1 3.7-1.4 3.7-2.5 0-.4-.4-.5-.6-.5-1.6-.1-3.1 2.7-3.1 3zm.3 24.5c-.5 0-.5.4-.5.5 0 .3 0 1.6.1 1.7.1.2.4.2.5.2h3.6c.8 0 .9 0 1.2-.4.4-.6.5-.6.6-.6.2 0 1.5 1 1.5 1.3 0 .3-.3.3-1 .3H71.1c-.4 0-1.6 0-2.3.1h-.4c-.1 0-.1 0-.2-.1l-.3-.4c0-.1-.1-.1-.1-.1h.1c.1 0 .7.1.8.1.5 0 1.4.1 2.5.1h3.3c.2 0 .5 0 .6-.3V124c0-.5-.1-.6-.6-.6H73c-.4 0-1.6 0-2.3.1h-.4c-.1 0-.1 0-.2-.1l-.3-.4-.1-.1h.1c.1 0 .7.1.8.1.5 0 1.5.1 2.5.1h1.4c.2 0 .6 0 .6-.5 0-.3 0-1.6-.1-1.7-.1-.2-.3-.2-.6-.2H72c-.4 0-1.6 0-2.3.1h-.4c-.1 0-.1 0-.2-.1l-.4-.4-.1-.1h.1c.1 0 .7.1.8.1.5 0 1.4.1 2.5.1h7.7c.6 0 .6 0 .8-.1.2-.1.9-.7 1-.7.1 0 1.3.7 1.3 1.1 0 .3-.1.3-1 .3h-5.2c-.5 0-.5.1-.5 1.9 0 .4.2.5.5.5h2.2c.9 0 1 0 1.2-.4.3-.4.4-.5.5-.5.2 0 1.2.9 1.2 1.1 0 .2-.4.2-1 .2h-3.8zm-5.8-9.5c-.5 0-.6.1-.6 1.8 0 1.5.1 1.7 1 1.7.3 0 1.1 0 2.4-.1.2 0 1-.1 1.1-.1.3 0 .4.1.4.3 0 .3-.3.7-.5.8-.5.2-2.6.2-3.3.2-2.2 0-2.2-.3-2.2-2.5v-1.8c-.1-.1-.1-.2-.3-.2-.1 0-.5.1-.5.1-.1 0-.1-.1-.1-.1l-.4-.4-.1-.1s0-.1.1-.1.7.1.8.1c1.4.1 2 .1 2.6.1.5 0 .5-.4.5-.8 0-.2 0-.8-.1-1.3 0-.1-.1-.3-.1-.4 0-.1.1-.2.2-.2s.2 0 1.3.3c.3.1.4.1.4.3 0 .1-.4.4-.4.5-.1.1-.1.2-.1 1 0 .4.2.5.5.5.9 0 1 0 1.2-.3.3-.5.3-.5.5-.5s1.2.9 1.2 1.1c0 .3-.3.3-1 .3h-4.5zm7.3 2.1c-.4 0-.5.1-.6.5-1.1 2.4-2.8 2.7-2.9 2.7-.1 0-.1 0-.1-.1s.4-.4.5-.4c.4-.4 1.9-2.1 1.9-4.8 0-.6 0-.8-.1-1.7 0-.4-.1-.6-.1-.7 0-.1 0-.2.1-.2s1.1.4 1.2.5c.2.1.3.1.5.1h2.5c.1 0 .2 0 .3-.1.1-.1.5-.5.6-.5.1 0 1.3.7 1.3 1 0 .1-.5.4-.5.4-.1.1-.1.6-.1.9 0 .1-.1 2.8-.4 4.2-.3 1-1.1 1.5-1.6 1.5-.3 0-.4-.1-.8-.6-.2-.3-.5-.4-.6-.5-.1-.1-.3-.2-.3-.3 0-.1.1-.1.1-.1.1 0 .2 0 .3.1.3.1.8.1 1 .1.5 0 .7-.1.8-.7 0-.1.1-.6.1-.7 0-.4-.4-.4-.5-.4h-2.6zm2.7-.5c.4 0 .5 0 .5-.9 0-.4-.3-.4-.4-.4h-2.5c-.3 0-.6 0-.6.9 0 .4.3.4.5.4h2.5zm-2.2-3.2c-.3 0-.6 0-.6.4 0 .9 0 1 .5 1h2.4c.5 0 .5-.2.5-1 0-.5-.3-.5-.6-.5h-2.2zM74 132.7c.1.6.2.8.6.8.8.1 1.2.1 1.2.7 0 .5-.4.7-1 1-.2.1-1 .3-1.2.4-.3.2-.3 1.3-.3 1.5 0 .2.1.3.2.4.4.5.6.7.6 1.5 0 1.4-.8 2.2-1 2.3-.2.1-.3.2-.3.4s.2.9.2 1.1c0 .1 0 .4-.4.6-.3.2-.4.2-.4.4 0 .9 1 1.3 3 1.3 3.3 0 3.7-.9 3.7-4 0-1.6.1-4.8 2-4.8 1.1 0 2.3 2.1 2.3 3.2 0 .6-.4.8-.6.8-.1 0-.7-.4-.9-.5-.2-.1-1.1-.3-1.1-.4 0-.1.6-.3.7-.3.3-.1.3-.3.3-.6 0-.8-.5-1.6-1.1-1.6-1 0-1.3 1.6-1.3 3.5 0 .6.1 1.6.1 2.1 0 .3.3 1.5.3 1.9 0 1.9-3.6 2-4.6 2-3.5 0-3.8-1.6-3.8-2.1 0-.2.1-.9.1-1 0-.2 0-.3-.4-.7-.5-.5-1-1.8-1-2.9 0-.3 0-1.6 1.5-2.3.1 0 .6-.1.7-.2.1 0 .2-1 .2-1 0-.2-.1-.3-.2-.3-.2 0-1.1.2-1.3.2-.6 0-1.4-.8-1.4-1.5 0-.1 0-.3.1-.3s.8.2 1 .2c.3.1.6.1 1.1.1.8 0 1 0 1-.7 0-.3-.1-.8-.3-1.2-.1-.1-.4-.6-.4-.7 0-.2.5-.2.6-.2.6.1 1.4.4 1.5.9zm-2 5.4c-.5 0-1 .5-1 1.4 0 .6.3 1.3.8 1.3.2 0 .3-.2.4-.4.1-.3.2-1.5.2-1.8 0-.3-.1-.5-.4-.5zm1.7-4.1c0 .1 0 .2.1.2 0 0 .6-.2.6-.4 0-.1-.2-.3-.4-.3h-.2c-.1.2-.1.5-.1.5z"/></g></g><g><g><path class="st2" d="M39.4 175.2c0 .5-.3 1.1-.9 1.1-.5 0-.5-.1-1-1.3-.4-1-1.1-1.7-1.2-1.9l-.3-.3c0-.1 0-.1.1-.1s1.1.3 1.6.6c.8.3 1.7 1 1.7 1.9zm2-2.1c0-.1.1-.2.2-.2l.1.1c0 .2-.2 1.9-1.1 4.9-.9 2.7-1 3.4-1 4.3 0 .6 0 .9.1 1.2.5 1.9.5 2 .5 2.4 0 .9-.6 1.4-1.2 1.4s-1-.3-1-1c0-.3.3-1.9.3-2.2 0-1.3-.7-2-1.4-2.3-.1-.1-.6-.2-.6-.3 0-.1.1-.1.2-.1.9 0 1.5-.1 1.9-.6.5-.6.7-1.2 2.7-6.4-.1-.2.3-1.1.3-1.2zm-.4-3c0 .8-.6 1.1-.9 1.1-.5 0-.6-.3-1-1.3-.2-.6-.9-1.7-1.3-2.2-.1-.1-.2-.2-.2-.3 0 0 0-.1.1-.1s1.1.4 1.9.8c.5.4 1.4 1 1.4 2zm12.6 9.6c-.6 0-.9.2-1 .7-1.5 4.6-4.1 6.5-7.9 7.2 0 0-.4.1-.4 0s1.7-.9 2-1.1c3.5-1.7 4.7-5.7 4.7-6.3 0-.4-.3-.6-.6-.6H50c-.2 0-.4 0-.7.2-.2.2-.7 1.3-.9 1.5-1.9 3-5.4 3.8-5.4 3.8h-.1s1.3-1 1.6-1.2c2.3-2 3-3.7 3-3.9 0-.3-.3-.4-.5-.4h-.7c-.4 0-.6 0-.8.2-.3.1-1.3 1.1-1.5 1.4-.8.7-2.7 2-3.2 2h-.1c0-.1 1.5-1.5 1.8-1.8 1.3-1.4 2.9-3.8 2.9-4.2 0-.2-.1-.4-.4-.4h-2.2c-.1 0-.6.1-.7.1-.1 0-.1 0-.2-.2l-.4-.5-.1-.1s0-.1.1-.1.9.1 1 .1c.7 0 1.9.1 3.2.1H53c.6 0 1 0 1.2-.1.2-.1 1-1.2 1.3-1.2.3 0 1.8 1.3 1.8 1.6 0 .3-.3.3-.9.3h-7.6c-.9 0-1.2 0-1.8 1-.1.1-.6 1-.6 1 0 .3.3.3.4.3H54c.3 0 .5-.1.7-.3.1-.1.5-.6.7-.6.3 0 1.8 1 1.8 1.4 0 .2-.2.3-.5.6-.2.1-.3.2-.3.7 0 1.5-.1 7.1-3.7 7.1-.2 0-.4 0-.6-.2-.1-.1-.3-.7-.3-.9-.1-.3-1.4-1.6-1.4-1.6s0-.1.1-.1.6.2.7.2c1.5.4 1.7.4 2 .4.4 0 .6-.2.7-.5.3-.5.9-2.3.9-4.5 0-.8 0-1.2-.7-1.2h-.5zm-1.9-11.6c.6 0 .8-.3.9-.4.1-.2.2-.4.5-.4s1.9.8 1.9 1.3c0 .2 0 .2-.5.5-.2.2-.3.3-.3 1.2 0 .5.1 2.7.1 3.2 0 1.3-.9 1.4-1.2 1.4-.4 0-.4-.1-.6-.5-.1-.3-.5-.3-.6-.3H47c-.3 0-.6 0-.7.3-.2.4-.4.9-1.2.9-.4 0-.6-.3-.6-.8v-3.1c0-1.2 0-1.4-.1-3 0-.1-.1-.7-.1-.8 0-.2.2-.2.3-.2.3 0 .6.1 1.4.5.5.2.8.2 1.1.2h4.6zm-4.9.7c-.7 0-.7.5-.7 1 0 .6 0 1.1.7 1.1H52c.7 0 .7-.5.7-1 0-.6 0-1.1-.7-1.1h-5.2zm0 2.7c-.7 0-.7.4-.7.9 0 .9 0 1.2.7 1.2h5c.7 0 .7-.4.7-1.5 0-.6-.5-.6-.7-.6h-5z"/></g><g><path class="st2" d="M49.1 143c.5 0 1.1-.1 1.5-.5.2-.2.9-1.3 1.2-1.3.3 0 3.9 1.7 3.9 2.4 0 .3-.3.5-.5.6-.3.3-1 .7-1.1 1.3-.1 2.2-.3 4.5-1 7.6-1.2 4.7-5.5 5.8-6.4 5.8-.3 0-.4-.3-.5-.6-.3-.8-.6-1.2-2-2.1-.4-.3-2.7-1.5-2.7-1.7 0-.1.1-.1.2-.1.3 0 4.2.4 5 .4 1.3 0 2.8-.5 3.4-2.3.6-1.9 1-5.8 1-7.2 0-1.1-.8-1.2-1.3-1.2h-9.5c-1 0-1.6.3-1.9 1.4-1.8 6.4-5.6 9-7 9.9-2.1 1.4-6.2 3-9.4 3-.1 0-.5 0-.5-.2 0-.1.8-.3.8-.4 3.7-1.1 7-2.6 9.7-5.8 2.5-3 3.4-6.6 3.4-7 0-.9-.9-1-1.3-1h-5.7c-1 0-3.9 0-5.3.1-.1 0-.8.1-.9.1-.1 0-.2-.1-.3-.3l-.8-1c-.2-.2-.2-.2-.2-.3s.1-.1.2-.1c.3 0 1.5.1 1.8.1 1.2.1 3.4.2 5.8.2h5.9c1.1 0 1.4-.1 1.4-3.3 0-.5 0-.8-.2-1.3-.1-.1-.4-.5-.4-.5 0-.3.6-.3.9-.3 1.2 0 3.9.5 3.9 1.2 0 .1-.6.7-.8.8-.2.4-.3 1.8-.3 2.2 0 1.1.9 1.1 1.3 1.1h8.7zm-1.3-19.3c.6 0 1.3-.2 1.7-.7.4-.5.4-.6.7-.6.4 0 3.5 1.7 3.5 2.4 0 .3-.4.5-.9 1-.5.4-.5.7-.5 3.4 0 1.1.1 6.1.1 7.2 0 1.3 0 1.8-.3 2.1-.6.7-1.5.8-1.9.8-.8 0-.9-.4-1.1-1.3-.1-.9-.8-.9-1.2-.9H29.5c-1.3 0-1.3.6-1.3 1.2 0 1.2-1.3 1.7-2.4 1.7-.4 0-.9-.1-.9-1.1 0-.3.2-1.8.2-2.1v-6.4c0-3.4-.1-5-.2-6.7 0-.3-.1-.9-.1-1.2 0-.2 0-.4.3-.4s2.2.9 2.7 1.1c.9.4 1.7.5 2.2.5h17.8zm-18.6 1.1c-1.3 0-1.3.6-1.3 1.9 0 2.7 0 3 1.3 3h6.7c1.3 0 1.3-.3 1.3-3.2 0-1.1 0-1.8-1.3-1.8h-6.7zm6.7 11.1c1.3 0 1.3-.5 1.3-2 0-2.8 0-3.1-1.3-3.1h-6.7c-1.3 0-1.3.3-1.3 3.2 0 1.3 0 1.8 1.3 1.8h6.7zm5.4-11.1c-1.3 0-1.3.3-1.3 2.5 0 2.1 0 2.4 1.3 2.4h6.8c1.3 0 1.3-.3 1.3-2.4 0-2.2 0-2.5-1.3-2.5h-6.8zm6.8 11.1c.5 0 .9 0 1.1-.5.2-.3.2-3.2.2-3.6 0-1-1-1-1.3-1h-6.7c-.3 0-1.1 0-1.3.7v3.4c0 1 1 1 1.3 1h6.7z"/></g></g></g></svg>