<svg version="1.1" id="レイヤー_1" xmlns="http://www.w3.org/2000/svg" xmlns:xlink="http://www.w3.org/1999/xlink" x="0" y="0" viewBox="0 0 89.8 89.8" xml:space="preserve"><pattern x="-640" y="-337.5" width="1024.1" height="726.9" patternUnits="userSpaceOnUse" id="新規パターンスウォッチ_2" viewBox="1 -727.9 1024.1 726.9" overflow="visible"><g><rect x="1" y="-727.9" width="1024.1" height="726.9" fill="none"/><image width="2950" height="2094" id="SB005_1_" xlink:href="3FE58774108C172B.png" transform="translate(1 -727.91) scale(.3471)" overflow="visible"/></g></pattern><g><circle cx="44.9" cy="44.9" r="44.9" fill="#c0590e"/><g><defs><circle id="SVGID_4_" cx="44.9" cy="44.9" r="44.9"/></defs><clipPath id="SVGID_1_"><use xlink:href="#SVGID_4_" overflow="visible"/></clipPath><pattern id="SVGID_2_" xlink:href="#譁ｰ隕上ヱ繧ｿ繝ｼ繝ｳ繧ｹ繧ｦ繧ｩ繝メ_2" patternTransform="matrix(.0527 0 0 .0974 -6316.125 -6640.59)"/><rect x="-8.7" y="-6.7" width="105.4" height="105.5" opacity=".6" clip-path="url(#SVGID_1_)" fill="url(#SVGID_2_)"/></g><g><path d="M42 16.1l3.3-.5c.3-.5.4-.6.7-1.1.6.3.8.4 1.4.8.2.1.3.2.3.3 0 .1 0 .2-.6.7.5 3.2.5 3.2.8 4.5v.1c0 .3-.2.4-1.2.5-.2 0-.3 0-.4-.2l-.1-.7-12.8 1.9.1.6c0 .3-.1.4-1.1.5-.2 0-.3 0-.3-.2-.2-1.4-.3-2-.4-2.9l-.3-2.1c-.1-.5-.2-.9-.2-1.3.8.2 1.1.3 1.9.6l3-.5-.4-2.8-4.9.7c-.4.1-1 .2-1.6.4l-.3-.8c.6.1 1.1.1 2-.1l14.3-2.2c.5-.7.6-.9 1.1-1.6 1 .5 1.3.7 2.2 1.2l.2.2c0 .1 0 .1-.1.2l-6.9 1 .3 2.8zm2.8 7.6c-.7 1.8-1.1 2.6-2.2 4 2.4.3 4.7.6 5.4.9.7.3 1.3 1 1.4 1.7 0 .3-.1.6-.3.6-.2 0-.3 0-1.7-.6-1.9-.8-3.3-1.2-5.6-1.7-1.3 1.4-2.4 2.3-4.2 3.1-2 1-3.5 1.4-5.9 1.9l-.1-.4c2.8-.8 4.2-1.4 5.8-2.4 1.1-.7 2-1.4 3-2.4-1.7-.2-2.3-.3-4-.3-.2.4-.3.5-.6 1-.1.2-.2.2-.3.2-.2 0-1 0-1.1-.1l-.1-.1c0-.1 0-.1.2-.4 1.1-1.9 1.5-2.5 2.1-3.7l-4.3.7c-1.4.2-1.4.2-1.8.4l-.3-.8c.7.1 1 .1 2-.1l4.6-.7c.7-1.5.9-2.1 1.1-2.7 1.9.3 2.1.3 2.1.5s-.2.3-.9.5c-.4.8-.4 1-.7 1.5l8.7-1.3c.5-.8.6-1 1.2-1.7 1 .6 1.3.7 2.1 1.3l.2.2c0 .1-.1.1-.2.2l-5.6.7zm-12-5.7l.6 3.7 3.4-.5-.6-3.7-3.4.5zm5.4 6.7c-.6 1.2-.9 1.8-1.5 2.8h4.4c1-1.3 1.4-2 2-3.6l-4.9.8zM37 14l.4 2.8 3.2-.5-.4-2.8-3.2.5zm1.1 7l3.2-.5-.6-3.7-3.2.5.6 3.7zm4.6-.7l3.5-.5-.6-3.7-3.5.5.6 3.7zm3.8 15.6c.3-.5.5-.7.9-1.3.9.5 1.2.6 2.1 1.1.3.2.4.2.4.3 0 .2-.2.3-.4.3h-.1c-.1 0-.4 0-.8.1-1.3 1.3-3.5 3.2-4.4 4 .6.4.8.7.9 1.1.1.5 0 .9-.2 1.3l5.2-.8c.3-.6.5-.7.8-1.2 1.1.5 1.4.7 2.3 1.3.2.1.2.1.3.3v.1s-.1.2-.1.3c-.2.1-.4.2-.6.2l-.4.1c-.2 0-.3.1-.5.1-1.8 1.9-3.1 3-4.8 4.1l-.3-.3c1.5-1.7 2.5-2.9 3.2-4.4l-5.8.9.6 3.8c.1.8.4 2.6.9 5.4.1.9-.1 1.3-.6 1.7-.3.2-.6.4-1.7.9-.3-.8-.7-1.1-1.4-1.2-.5-.1-1.1-.1-3.3-.1v-.4c2.9-.3 3.1-.3 4.9-.5.4-.1.5-.2.4-.5l-1.4-9-7 1.1c-1 .1-1.7.3-2.4.5l-.2-.7c.9 0 1.5 0 2.7-.2l8.6-1.3c-.1-.1-.5-.5-1.3-1.2-1-.9-2.5-2-4.3-2.9l.2-.3c1.9.5 3.1 1 4.7 1.7.9-.9 2-2.5 2.8-3.8L37 37.9c-.9.1-1.6.3-2.3.4l-.3-.8c1 0 1.4 0 2.5-.2l9.6-1.4zM36.2 63.2c.9.2 1.2.4 2 .7.7-1.8 1.1-3.4 1.1-4.7.6.1 1 .2 1.3.2 1.1.2 1.3.2 1.3.4s-.1.3-1 .5c-.4.9-.6 1.1-1.8 2.9-.1.1-.1.1-.5.9.6.3.7.4 1 .5.2.2.5.5.5.7 0 .3 0 .8-.2 1.1-.1.2-.2.3-.3.3-.2 0-.3-.1-.5-.4-.1-.2-.7-.9-1-1.2-.5-.6-1-1-2-1.6l.1-.3zm4.7 6.4c-.8.3-.9.3-2.5.8 0 .6-.1.9-.3.9-.2 0-.4-.2-1-2 .3 0 .5-.1.6-.1.2 0 .7-.1 1.7-.3.5-.9.8-1.5 1.4-3 .9-2.2 1.2-3.1 1.5-4.4.5.1 1 .2 1.2.2.9.2 1.2.3 1.2.4 0 .2-.2.4-.9.5-1.1 2.2-2.4 4.4-3.7 6.1.9-.2 1.6-.3 3.8-.9-.4-.6-.6-.9-1.3-1.6l.2-.3c1 .6 1.8 1.2 2.4 1.7.4.3.6.7.7 1 .1.6-.2 1.3-.6 1.3-.2 0-.3-.1-.6-.7-.1-.3-.3-.5-.5-1 0 0-.7.3-1.9.8l.7 4.6.8 5.2v.1c0 .2-.3.4-1 .5-.2 0-.3 0-.4-.2-.4-3.1-.5-3.5-.8-5.4l-.7-4.2zm-2.7 9.5c.5-2.4.6-4.5.4-7.3 2 .2 2.1.2 2.1.4s-.2.3-.6.5c-.3 2.6-.6 3.8-1.5 6.5l-.4-.1zm5.4-8.4c1.9 1.7 2.8 2.9 2.9 3.7.1.8-.3 1.8-.7 1.8-.2 0-.3 0-.3-.2-.1-.1-.1-.1-.4-1.2-.4-1.4-1-2.6-1.8-4l.3-.1zm10.2-9c.4-.5.5-.7.9-1.2.6.3.8.4 1.4.8.2.1.3.2.3.3 0 .2-.2.4-.6.7.7 6.4.7 6.7.8 8.5 0 1.7-.1 3.4-.3 4.5-.3 1.3-1 1.9-2.9 2.4-.2-.7-.5-1-1.1-1.1-.5-.1-1-.2-2.8-.3V76c2.6-.1 3.7-.2 4.5-.3.5-.1.6-.2.8-.8.5-1.7.3-6.5-.5-11.7l-.3-1-6.6 1c-.6 1.7-1 2.5-1.9 4.1l-.3-.2c.7-2 1.1-3.5 1.4-5.8.2-1.3.2-2.1.2-3.3 2.2.2 2.6.3 2.6.5s-.2.3-.8.5c-.4 1.8-.6 2.4-.9 3.5l6.1-.8zm-6.3 4.4c1.3.7 2.3 1.3 3.3 2.1.8.7 1.1 1 1.2 1.5.1.7-.2 1.7-.6 1.8-.2 0-.3-.1-.4-.4-.8-1.7-2-3.2-3.5-4.7v-.3z" fill="#fff"/></g></g></svg>