<svg version="1.1" id="レイヤー_1" xmlns="http://www.w3.org/2000/svg" xmlns:xlink="http://www.w3.org/1999/xlink" x="0" y="0" viewBox="0 0 89.8 89.8" xml:space="preserve"><pattern x="-639.4" y="-337.5" width="1024.1" height="726.9" patternUnits="userSpaceOnUse" id="新規パターンスウォッチ_9" viewBox="1 -727.9 1024.1 726.9" overflow="visible"><g><rect x="1" y="-727.9" width="1024.1" height="726.9" fill="none"/><image width="2950" height="2094" id="SB005_3_" xlink:href="3FDD1C67567DC2E3.png" transform="translate(1 -727.91) scale(.3471)" overflow="visible"/></g></pattern><g><g><circle cx="44.9" cy="44.9" r="44.9" fill="#aa942c"/></g><g><defs><circle id="SVGID_4_" cx="44.9" cy="44.9" r="44.9"/></defs><clipPath id="SVGID_1_"><use xlink:href="#SVGID_4_" overflow="visible"/></clipPath><pattern id="SVGID_2_" xlink:href="#譁ｰ隕上ヱ繧ｿ繝ｼ繝ｳ繧ｹ繧ｦ繧ｩ繝メ_9" patternTransform="matrix(.0527 0 0 .0974 -6587.15 -7915.012)"/><rect x="-8.7" y="-6.7" width="105.4" height="105.5" opacity=".6" clip-path="url(#SVGID_1_)" fill="url(#SVGID_2_)"/></g><g><path d="M53.5 21.4l5.8-.9c.6-.8.7-1 1.3-1.8 1 .6 1.3.8 2.2 1.4l.2.2c0 .1-.1.2-.2.2L54 21.9c1.1.7 1.7 1.1 2.6 1.4 1.2.5 2.9.8 4.7.9.8.1 1.5.1 2.9 0v.3c-.7.3-.9.6-1.2 1.7-2.3-.3-3.7-.8-5.8-1.8-1.3-.7-2.2-1.3-3.5-2.4l.2 1.2c.3 1.5.3 1.5.4 2.1 0 .3-.3.4-1.1.5-.3 0-.4 0-.4-.2-.1-.7-.2-1.7-.3-2.2l-.2-1c-1.3 1.9-2.3 3-4.2 4.6-1.3 1.1-2.3 1.7-4 2.6l-.1-.2c3.3-2.4 5.1-4.4 6.8-7.1l-5.8.9c-.5.1-.9.2-1.2.3l-.3-.8c.5.1.9.1 1.4 0l7.3-1.1-.3-2.1c-2 .5-3.9 1-5.4 1.2-.4.1-1 .1-1.8.2l-.1-.3c2.1-.5 4.5-1.1 7-2.1 1.7-.6 3.5-1.4 4.7-2 .5-.3.8-.5 1.5-1 1.7.8 2.3 1.1 2.4 1.3 0 .1-.1.2-.3.3-.1 0-.5 0-1-.1-2.4 1-3.5 1.4-5.6 2l.2 2.4zm3 4.9l1-1c.7.3.9.5 1.5.8.2.1.3.2.3.3 0 .2-.2.3-1 .4-2.2 1.5-2.2 1.5-3.2 2.1.4 0 .5 0 .5.2s-.2.3-.8.5l.1.8 6-.9c.5-.8.6-1 1.1-1.8 1 .6 1.3.8 2.3 1.4.1.1.2.1.2.2s-.1.1-.2.2L55 30.9l.3 1.7c.2 1.2.3 2 .4 2.5v.1c.1.4 0 .7-.3.9-.4.3-.9.6-1.8.9-.2-.5-.4-.7-.8-.8-.3-.1-.8-.2-1.5-.2h-1.7l-.1-.4c2-.2 2.7-.3 4.3-.5.3 0 .3-.1.3-.4l-.5-3.6-7.4 1.1-1.2.3-.3-.8c.6.1.9.1 1.4 0l7.4-1.1c-.1-.7-.2-.9-.4-1.7h1.3c1-.9 1.3-1.2 2.1-2.1l-7 1.1c-.4.1-.6.1-.9.3l-.3-.8c.4.1.8.1 1.1 0l7.1-1.1zM53.2 43c.5-.7.6-.8 1-1.5.8.5 1.1.7 1.9 1.3.1 0 .1.1.1.1l-.1.1-4.8.7c.7.3 1.2.6 1.7.9.3.2.4.4.4.7.1.6-.2 1.4-.7 1.4-.2 0-.3-.1-.5-.6-.4-1.1-.7-1.6-1.3-2.4l-1.2.2c-.7 1.5-1.5 2.6-2.7 4l-.3-.2c1-1.7 1.4-2.7 1.9-4.3.4-1.2.5-1.9.6-2.8 2.6.4 2.6.4 2.6.6 0 .2-.3.4-1.2.6-.3.8-.4 1-.6 1.5l3.2-.3zm-4.5 6.2c-.1-.8-.2-1.3-.4-2.3.9.3 1.1.4 1.9.7l4.2-.6c.3-.5.4-.6.7-1l1.4.7c.2.1.2.1.2.2s-.1.2-.5.7c.1.7.2 1.1.2 1.5l.4 2.3c.1.6.2 1.2.4 2.5 0 .3-.2.4-1 .5-.4.1-.4 0-.5-.2l-.1-.7-4.6.7.6 4c1.7-.5 1.7-.5 4.2-1.5-.6-.7-1-1-2-1.7l.2-.3c1.5.6 2.6 1.1 3.3 1.6.7.5.9.7 1 1.3.1.7-.1 1.4-.5 1.5-.2 0-.3-.1-.7-.6-.5-.8-.6-.9-1.1-1.5-1.4 1-4.7 2.8-5.9 3.2 0 .6 0 .8-.2.8s-.3-.2-1.3-2c.7-.1.8-.2 1.5-.4l-1.4-9.4zm6.3.7l-.4-2.4-4.6.7.4 2.4 4.6-.7zm-4.5 1.2l.4 2.6 4.6-.7-.4-2.6-4.6.7zm12.3-9.6c.5-.8.6-1 1.1-1.7 1 .6 1.3.8 2.3 1.5l.1.1-.1.1-6.4 1c1.7.7 2.1 1 2.2 1.6.1.6-.2 1.3-.6 1.4-.2 0-.4-.1-.6-.6-.4-.9-.7-1.5-1.5-2.4l-1.6.2c-.6 1.1-1.1 1.9-1.9 2.8l-.3-.2c1-1.9 1.7-4 1.8-5.9 2.4.3 2.4.3 2.5.5 0 .2-.3.4-1.1.5-.3.8-.4 1.1-.7 1.6l4.8-.5zm-1.1 17.6c0 .3-.1.4-1 .5-.4.1-.5 0-.5-.2-.8-5.9-1-7.2-1.4-9.7-.4-2.6-.5-3.1-.7-4.3.8.3 1 .4 1.8.8l3.7-.6c.3-.5.4-.6.7-1.1.4.2.9.5 1.5.8.2.1.2.2.2.3 0 .2-.1.4-.7.8l.8 5.1c.1.7.1.7.3 1.9.1.4.1.9.2 1.6.1.6 0 .9-.5 1.3-.4.3-.8.6-1.6.8-.2-.6-.4-.8-.8-.9-.1-.2-.3-.2-1.4-.2v-.3c1.4-.2 1.4-.2 1.6-.2.2 0 .6-.1 1-.2.3-.1.3-.1.3-.4l-1.3-8.8-4 .6 1.4 9.1.4 3.3zm-41.2-27c-.1-.8-.2-1-.3-1.8.8.3 1.1.4 1.8.8l2.9-.4c.3-.4.3-.6.6-1l1.6.9c.2.1.3.2.3.3 0 .2-.2.3-.7.5-.3.6-.3.6-1 2.7-.2.6-.4 1-1.2 2.7 1.4.8 1.9 1.2 2.5 2.1.6.8.9 1.7 1 2.5.2 1.1 0 2-.6 2.6-.5.6-.9.8-1.7 1-.4-.9-.5-1-1.9-1.1l.2 1.6c0 .1.1.6.2 1.3 0 .1.1.7.3 1.5 0 .3.1.7.2 1.2 0 .2-.1.3-.3.3-.2.1-.5.2-.8.2-.3.1-.5 0-.5-.2v-.1c-.5-4.1-.7-5.4-1.2-8.8l-1.2-7.8-.2-1zm3.2 11.5c.8 0 1.9-.1 2.3-.1.2 0 .3-.1.4-.4.2-.5.2-1.2.1-1.9-.2-1-.5-2-1.1-2.8-.5-.7-.8-1-1.6-1.4.2-.9.2-.9.4-2 .2-.9.3-1.8.5-2.7.1-.5.1-.5.2-1.1l-3.1.5 1.9 11.9zm9.8-5.7c.6 1.7 1.2 2.7 2.2 3.8.6-.7.9-1.1 1.5-1.8.9-1.2 1.2-1.8 1.6-2.7 1.5.7 2 .9 2.1 1.1 0 .1-.1.3-.2.3H40c-1.4 1.4-1.7 1.6-3.9 3.3.7.7 1.4 1.2 2.3 1.7.8.5 2 1 2.7 1.2.4.1.7.2 1.4.2v.3c-.5.1-.7.2-1 .5-.3.3-.4.5-.6 1.1-3-1.5-4.6-2.8-6-4.9-.8-1.2-1.4-2.5-1.9-4l-2.5.4 1.1 7.6c1-.3 1.4-.5 4.1-1.7l.2.2c-2.4 1.7-4.3 2.8-6.9 4 .1.8.1 1-.1 1.1-.2 0-.3-.2-1.3-2.2.6-.1.8-.2 2.7-.8l-2.1-14.1c-.2-1.3-.3-1.7-.6-2.8.9.3 1.2.5 2 .9l6-.9c.3-.5.4-.6.7-1.1.6.3.8.4 1.5.8.2.1.2.2.2.3 0 .1 0 .2-.1.2 0 0-.2.2-.6.5l.6 4.2c0 .2.1.5.5 2.9 0 .3-.1.4-.6.5-.2 0-.4.1-.4.1-.2 0-.3 0-.3-.2l-.1-.4-3.5.4zm2.3-7.9l-6.4 1 .5 3.1 6.4-1-.5-3.1zm-5.9 4.5l.5 3.3 6.4-1-.5-3.3-6.4 1zm2.2 20.6l-.1-1.3c-.2-1-.2-1.2-.4-1.8 2.1-.1 2.6-.1 2.6.2 0 .2-.2.3-.8.6l.3 2.1 6.4-1 .7-1.3c1 .5 1.4.7 2.3 1.2.1.1.1.1.1.2 0 0 0 .1-.1.1 0 .1-.2.1-.5.3l-.8.4c-.5.8-.7 1.1-1.2 1.9h-.3v-2.3l-14.6 2.2c0 1.2-.1 1.9-.4 2.8-.3.6-.6 1.1-.9 1.1-.4.1-.9-.6-1-1.3 0-.2 0-.3.1-.5l.4-.4c.4-.4.9-1.3 1.1-2.1.1-.4.1-.7.2-1.6l.3-.1c.1.6.1.8.1.9 0 .1 0 .3.1.6l6.4-.9zm-4.6 5.5c-.5.1-.9.2-1.8.4l-.3-.8c1.1 0 1.7-.1 2-.1L39 58.3c.5-.7.6-.9 1-1.7.9.6 1.2.7 2.2 1.4.1 0 .1.1.1.1 0 .1-.1.2-.2.2l-7.4 1.1.7 4.5 3.7-.6c.4-.7.5-.9 1-1.6 1 .6 1.3.8 2.3 1.4l.1.1-.1.2-6.9 1 .8 5.2c.6 0 1.4-.1 2.3-.2 2.3-.4 5.4-1 6.8-1.4v.2c-.9.7-1.1.9-1.1 1.8-1.4.3-2.2.4-2.8.5-4.9.7-6.9.7-8.7-.3-1.3-.7-1.9-1.3-3.1-3-.3 1-.7 1.8-1.1 2.7-.7 1.4-1.3 2.1-2.6 3.4l-.3-.2c1-1.5 1.4-2.2 1.9-3.8.9-2.5 1.2-5 1-6.9.5 0 1 .1 1.3.1 1.2.1 1.4.1 1.5.3 0 .2-.3.5-1 .7-.1 1.4-.2 2.1-.5 3.1.8 1.1 1.2 1.5 2 2 1 .6 1.9.9 2.9 1l-1.5-9.9-5.8.9z" fill="#fff"/></g></g></svg>