<svg version="1.1" id="レイヤー_1" xmlns="http://www.w3.org/2000/svg" x="0" y="0" viewBox="0 0 114 438" xml:space="preserve"><g><g><path d="M80.4 104.1c.2-2.2.3-3.9.3-5v-1.3c.6.1 1 .2 1.3.3 1.6.3 1.8.4 1.8.6 0 .3-.3.4-1.3.7-.1 2.4-.1 3.2-.3 4.8h2.7c.5-.8.7-1 1.4-1.8.9.8 1.2 1.1 2 2 .1.1.1.2.1.2 0 .1-.1.2-.2.2h-6c-.3 3.1-.8 5.9-1.5 8.3-.6 2.2-1.5 4.5-2.5 6.4-.5 1-.8 1.5-1.8 2.8l-.5-.3c1.3-2 1.7-3.1 2.5-5.6 1.1-3.5 1.7-6.8 2-11.5h-1.8c-.5 0-1 0-1.8.1l-.2-1c.8.1 1.7.2 2.3.2h1.5zm-1.1 15.5c-.1-.2-.1-.4-.1-.6.6-.1.6-.1 1.3-.1 1-2.3 1.4-3.6 2.1-5.8.7-2.5 1.1-4.3 1.3-6 .5.1.9.2 1.1.3 1 .2 1.4.4 1.4.6 0 .2-.3.3-1 .4-.2.7-.4 1.2-.5 1.6-.8 2.4-.9 2.6-2.5 6.5-.4 1-.5 1.1-1.1 2.3 4.1-.6 4.1-.6 5-.9-.5-1.8-.8-2.6-1.5-4.3l.4-.2c.8 1.1 1.1 1.5 2 2.9 1 1.7 1.3 2.1 1.3 2.5 0 .7-.8 2-1.2 2-.2 0-.3-.2-.4-.6 0-.1-.1-.7-.3-1.8-1.5.6-3.7 1.3-5.9 1.9-.1.3-.2.5-.2.6-.1.3-.3.6-.4.6-.1 0-.2-.1-.3-.2-.1-.1-.2-.5-.3-1l-.2-.7zM98 108.7c.5-.7.6-1 1.2-1.7.9.8 1.2 1 2 1.9.1.1.1.1.1.2s-.1.2-.3.2h-4.6v4.9H98c.5-.7.7-.9 1.3-1.7 1 .8 1.2 1.1 2.1 2 0 .1.1.1.1.1 0 .1-.1.2-.3.2h-4.8v5.4h2c.6-.8.8-1 1.5-1.7 1.1.8 1.4 1.1 2.4 2 .1.1.1.1.1.2s-.1.2-.2.2H91.4v1.6c0 .4-.3.6-1.3.6-.4 0-.5-.1-.6-.4.1-2.8.1-4.1.1-7.4V106c-1 1.8-1.7 2.7-3 4.3l-.4-.3c1.5-2.3 2.5-4.3 3.6-7.4.8-2.2 1.1-3.6 1.3-5 .6.2 1 .3 1.3.4 1.2.3 1.7.5 1.7.8s-.2.3-1.4.5c-1.1 2.8-1.3 3.1-1.8 4.3h3.6c1-2.3 1.5-3.8 1.9-5.6 2.7.7 3.1.9 3.1 1.2 0 .3-.3.4-1.5.5-.4.6-.4.6-2.2 3.2-.1.1-.2.3-.6.8h2.9c.5-.8.7-1.1 1.3-1.8 1 .9 1.3 1.1 2.2 2.1.1.1.1.1.1.2s-.1.2-.2.2h-5.3v4.6H98zm-3.3 0v-4.6h-3.2v4.6h3.2zm-3.3 5.5h3.2v-4.9h-3.2v4.9zm3.3 6v-5.4h-3.2v5.4h3.2zm-4.6 22.4c.8 3 1.8 5.1 3.3 7.2 1.5 2.2 3.6 4.1 5.9 5.5 1.2.7 1.9 1 3.7 1.6l-.1.4c-1.6.2-2 .5-2.5 1.9-2.3-1.5-3.3-2.3-4.8-3.9-1.9-2.1-3.5-4.8-4.5-7.3-.5-1.3-.9-2.7-1.4-4.7-.4 4-1.8 7.2-4 9.9-1.5 1.8-3.5 3.4-5.7 4.7-1.1.6-1.8 1-3.6 1.7l-.2-.4c2.5-1.4 3.7-2.3 5.2-3.6 3.8-3.4 5.9-7.7 6.4-12.8h-8.1c-1.1 0-1.7 0-2.6.2l-.2-1.1c1.1.2 1.7.2 2.9.2h8c.1-1.7.2-3.8.2-5.5 0-.8 0-1.1-.1-1.9 3.2.3 3.5.3 3.5.7 0 .3-.4.5-1.2.8-.1 3.2-.2 4.3-.3 6h7.9c.7-1 .9-1.3 1.6-2.2 1.2 1 1.6 1.3 2.8 2.4.1.1.2.2.2.3 0 .1-.1.3-.3.3h-12zM79 176.2c1.3 1.3 2.1 1.6 3.5 1.6.7 0 1.5-.1 2.5-.3.7-1.8 1-3 1-4 0-.9-.4-1.5-1.8-2.2.3-.2.4-.2.7-.2.6 0 1.4.3 2.2.6 1 .5 1.3.8 1.3 1.2 0 .2-.1.4-.3.7l-1.7 3.4c2.1-.7 2.3-.9 3.1-1.5.2-.2.3-.2.6-.2 1.1 0 1.9.4 1.9.8 0 .7-1.7 1.4-6.2 2.5-.3.6-.7 1.7-1.5 3.4-.8 1.9-3 6.6-3.2 7.1-.4.8-.7 1-1 1-.5 0-.9-.9-.9-2 0-.6.1-.7.3-1 .6-.7 1-1.1 1.3-1.7 1.4-2 2.4-3.9 3.5-6.6-.6.1-.9.1-1.3.1-1 0-1.8-.2-2.5-.6-.8-.5-1.5-1.1-2-2l.5-.1zm14.8 1.6c1.9.2 3.5.7 4.8 1.5 1.1.7 1.8 1.5 1.8 2.2 0 .5-.3.8-.7.8-.2 0-.4-.1-.6-.2-.8-.5-1.3-.6-2.7-.6-2.2 0-2.9.6-2.9 2.5 0 .8.1 2 .6 4.8 1.7.5 3.2 1.2 4 1.8.8.6 1.1 1.3 1.1 2.2 0 .6-.2 1-.6 1-.3 0-.4-.1-1-.7-1-1.1-1.9-1.8-3.4-2.5v.5c0 1.1-.2 1.8-.8 2.4-.8.8-2.1 1.2-3.6 1.2-2.5 0-4.3-1.2-4.3-3 0-2 2.1-3.3 5.2-3.3.6 0 1 0 1.7.1-.1-2.2-.1-2.4-.1-2.8 0-2.3.2-3.2 1-4 .6-.6 1.3-1 2.7-1.3.4-.1.5-.1 1.5-.4-.8-.8-1.6-1.3-3.6-1.9l-.1-.3zM92.3 190c-.9-.3-1.5-.3-2.4-.3-2.4 0-3.8.8-3.8 2.1 0 1 1.1 1.7 2.8 1.7 2.3 0 3.4-.9 3.4-2.7v-.8zm3.1 20.9c.5-.6.6-.8 1.2-1.4.8.6 1 .8 1.7 1.4.2.2.3.3.3.4 0 .2-.2.4-.9.7v5.1c0 9.7 0 10.1.2 14.5 0 .3-.1.3-.3.4-.2.1-1.1.2-1.5.2-.2 0-.3-.1-.3-.3v-2h-13v1.9c0 .2-.1.3-.3.4-.1 0-1 .1-1.3.1-.4 0-.5-.1-.5-.3v-.1c.1-3.4.1-7.8.1-10.8 0-6.8 0-10.1-.1-11.7 1.1.6 1.4.9 2.4 1.6h3.1c.7-1.5 1.1-3.1 1.4-4.8 3.2.8 3.3.9 3.3 1.1 0 .2-.3.3-1.3.6-.3.4-.5.7-.7.8-1 1.3-1.3 1.7-1.9 2.2h8.4zm.4 5.8v-5.2h-13v5.2h13zm-13.1.6v5.5h13v-5.5h-13zm0 6.1v5.8h13v-5.8h-13zm9.3 27.3c.2-1.5.3-2.9.3-4.9 0-.9 0-1.5-.1-2.5 2.8.3 3.2.4 3.2.7 0 .2-.3.4-1.2.7 0 2.9-.1 4.2-.4 6h4.3c.6-.7.8-1 1.4-1.7.9.8 1.2 1.1 2.1 2 .1.1.1.1.1.2s-.1.1-.2.1h-7.4c.5 1.7 1 2.8 2.1 4.1 1.6 2 3.3 3.1 6 3.9v.3c-1.1.3-1.5.6-1.9 1.9-2.2-1.4-3.5-2.7-4.8-4.9-.9-1.5-1.5-3-1.9-4.8-.6 2.5-1.6 4.5-3 6.1-1 1-2.4 2.1-3.8 2.9-.6.4-1.1.6-2.2 1l-.2-.3c2.2-1.3 3.8-2.6 5.1-4.3 1.3-1.7 2-3.4 2.5-5.9h-3.8c-1 2.4-2.5 4.6-4.3 6.5-2.1 2.3-4.2 3.9-6.9 5.2l-.3-.3c2.5-1.8 4.5-3.7 6.3-6 2-2.7 3.2-5.2 4.3-8.9h-4.6l-.9 1.5c.7.2 1.1.4 1.9.8 1.2.5 1.5.9 1.5 1.7 0 .7-.3 1.2-.6 1.2-.2 0-.3-.1-.5-.4-.8-1.3-1.3-2-2.5-3-.7 1-1.2 1.8-2 2.7 2.5 1.1 3.3 1.7 3.3 2.6 0 .7-.4 1.5-.7 1.5-.2 0-.4-.2-.6-.7-.5-1.2-1.1-2.1-2.2-3.1-.9 1.1-1.4 1.5-2.7 2.5l-.2-.3c1.6-2 3.1-4.2 4.1-6.5.8-1.8 1.5-3.8 1.7-5.2 2.9 1 3 1 3 1.3 0 .2-.3.3-1.3.5-.5 1.1-.6 1.4-1.1 2.4h4.3c.4-.5.4-.5 1-1.1.7.5.9.6 1.5 1.1l.4.4c0 .2 0 .2-1.1.9-.3 1-.4 1.4-.7 2.1H92zm-10.6 10.9v.4c0 2.4-.6 4.2-1.7 5.4-.5.6-1.1.9-1.5.9-.4 0-.8-.8-.8-1.7 0-.4.1-.6.6-.8.6-.2 1.3-.8 1.8-1.6.6-.8.9-1.5 1.2-2.8l.4.2zm4 .6c1.5 1.5 2.3 2.8 2.3 3.7 0 1-.9 2.1-1.6 2.1-.3 0-.4-.2-.4-.6v-1c0-1.2-.1-2.1-.6-3.9l.3-.3zm5.5-.6c1 .9 1.5 1.3 2.4 2.3.6.8.9 1.3.9 1.7 0 1-.7 2.2-1.3 2.2-.3 0-.4-.2-.5-.7-.3-2-.6-2.9-1.8-5.3l.3-.2zm4.2-16.4c1 .3 1.5.6 2.2 1 .9.5 1.2.9 1.2 1.5 0 .8-.4 1.7-.7 1.7-.2 0-.3-.1-.6-.7-.5-1-1.1-1.8-2.3-3.2l.2-.3zm1.3 16.2c1.5 1 2.7 2 3.6 2.9.8.7 1.1 1.4 1.1 1.9 0 .8-.6 2-1 2-.2 0-.4-.2-.6-.8-.8-1.8-2-3.8-3.4-5.7l.3-.3zM30.3 121.8v-2.4c0-.2 0-.3-.1-1.2 2 .3 2.5.4 2.5.6 0 .2-.2.3-.9.6v2.4h2c.6-.8.8-1 1.4-1.7 1 .8 1.3 1.1 2.2 2 .1.1.1.2.1.2 0 .1-.1.1-.3.1H32c.4.8.8 1.3 1.8 2.2 1.4 1.1 2.4 1.7 4.3 2.1v.3c-.8.2-1 .4-1.6 1.7-.9-.5-1.8-1.3-2.8-2.5-.6-.8-1-1.4-1.8-3.2v2.8c0 .7.1 3.1.1 3.8v.1c0 .1-.1.2-.2.3-.1 0-.9.1-1.1.1s-.3-.1-.3-.3v-2c0-.3 0-1 .1-2l.1-2.2c-1.8 2.8-3.2 4.1-5.7 5.8l-.2-.3c1.6-1.4 2.8-2.9 3.9-4.7.4-.7.5-1 .9-1.8h-6.4v1.1c1 .1 2.3.5 2.8.8.4.2.6.6.6 1.1 0 .5-.3 1.1-.6 1.1-.1 0-.2-.1-.4-.4-.6-.8-1.6-1.7-2.4-2.1v1.7c0 .9 0 2.1.1 3.9-.1.2-.1.3-.3.3-.2.1-.7.1-1 .1-.2 0-.3-.1-.3-.4 0-.1 0-1.3.1-3.6V124c-.7 1.3-1.2 2-2.1 3-.9 1-1.4 1.4-2.5 2.2l-.2-.3c-.2 2.5-.5 4.4-1.1 6.3-.7 2.3-1.4 3.6-2.9 5.4l-.3-.2c1.1-2 1.6-3.6 2-6.4.4-2.4.5-4.7.5-8.6 0-4-.1-5.9-.2-9l-.1-.9c1.2.6 1.5.8 2.5 1.4h16.4c.6-.8.8-1.1 1.5-1.9 1.2.9 1.6 1.2 2.8 2.2.1.1.1.2.1.2 0 .1-.1.1-.3.1H16.7l.1 6.6c0 1.8-.1 3.2-.2 4.7 1.1-1 1.5-1.7 2.4-2.9.7-1.1 1.1-1.9 1.8-3.5h-1.3c-.5 0-.9 0-1.7.2l-.2-1c.6.1 1 .2 1.9.2h2v-1.9c0-.6 0-.9-.1-1.7.4.1.8.1 1.1.1 1.1.1 1.5.2 1.5.5 0 .2-.3.4-.9.6v2.4h1.5c.5-.7.7-.9 1.2-1.5.9.7 1.1 1 1.8 1.5h2.7zm3.5 16.9c.7-.9.9-1.1 1.7-2 1.2 1 1.5 1.3 2.7 2.2.1.1.1.2.1.2 0 .1-.1.2-.3.2H17.6c-.6 0-1.1.1-2.3.2l-.2-1.1c.8.2 1.9.3 2.6.3h2.9v-5c0-.5 0-.9-.1-1.8.6.1 1.1.1 1.4.2 1.1.1 1.5.3 1.5.5s-.3.3-1 .6v5.5h4.1V132c0-.8 0-1.3-.1-2.4 2.6.3 3.1.4 3.1.7 0 .2-.3.3-1.1.6v2.6h2.8c.7-.8.9-1 1.6-1.8 1 .9 1.3 1.2 2.3 2.1.1.1.1.1.1.2s-.1.1-.2.1h-6.6v4.5h5.4zm-7.4 25.4c-.3 3.5-.7 5-2 6.9 3.2 2.1 7.3 3.1 12.5 3.1.3 0 1 0 1.8-.1v.4c-1.2.3-1.6.8-1.9 2.2-6.1-.6-9.8-1.9-13.2-4.7-.9 1-2 1.8-3.4 2.7-2.1 1.3-4.2 2-7.4 2.6l-.1-.4c3.1-1 4.9-1.9 6.8-3.3 1.2-.9 2-1.7 2.8-2.7-1.2-1.3-1.9-2.2-2.9-4.1-.2-.4-.3-.5-.5-.7l1-.3v.2c0 .9 1.2 2.5 3 4.1.9-1.6 1.3-2.9 1.5-5.8h-7.2v1.5c0 .3-.3.4-1.5.4-.4 0-.5-.1-.5-.3.1-2.3.2-3.9.2-6.2 0-1.8 0-2.4-.1-3.6 1 .5 1.3.6 2.2 1.1h7.1c0-3.8 0-3.8-.1-5.3.7.1 1.3.1 1.6.2 1.4.2 1.7.3 1.7.5s-.2.3-1.1.6v4H33c.5-.6.6-.8 1.1-1.3.8.6 1.1.8 1.8 1.3.3.2.3.3.3.4 0 .2-.3.4-1 .8v1.2c0 1.3 0 2.9.1 6.3 0 .3-.4.4-1.6.4-.4 0-.6-.1-.6-.3v-1.7h-6.7zm-2-.7c.1-1.8.1-1.8.1-5.8h-7.3v5.8h7.2zm8.9 0v-5.8h-6.7c-.1 3.7-.1 3.7-.2 5.8h6.9zm-20.9 38.4c1.6-2.5 2.7-4.6 3.9-7.8.9-2.5 1.4-4.1 1.7-6 1.3.3 3 .7 3.3.9.2.1.2.1.2.3 0 .3-.3.4-1.6.6-.8 2.7-1.8 4.7-3.5 7.5 2 .4 2.4.5 2.4.7 0 .2-.1.3-1 .6V213c0 .3-.1.4-.3.5-.2.1-.9.2-1.3.2-.3 0-.4-.1-.4-.4 0-.9.1-3.7.1-8.4v-6.8c-1.2 1.9-1.9 2.7-3.2 4.1l-.3-.4zm15.8-2.7c-2 4.8-2.5 5.9-4.8 10.1 4.2-.2 6.4-.4 10.6-1-.7-1.6-1.7-3.4-3.7-6.5l.3-.2c1.9 1.8 3.4 3.5 4.7 5.2 1.3 1.7 1.7 2.4 1.7 3.2 0 1.2-.8 2.7-1.5 2.7-.2 0-.3-.2-.8-1.8-.2-.8-.4-1.3-.6-2-2.1.6-2.7.7-4.5 1.1-1.1.3-1.1.3-6.7 1.2-.8.1-1.5.3-2.4.4-.2.7-.3 1-.6 1-.1 0-.2-.1-.3-.3 0-.1-.3-1-.8-2.9 1.8 0 2.5 0 3.5-.1 1.4-3.4 1.8-4.8 3.2-10.1h-4.6c-.4 0-.8 0-1.8.2l-.2-1c.7.1 1.7.2 2.2.2h12.6c.8-.9 1-1.2 1.8-2.1 1.1 1 1.4 1.3 2.4 2.3.1.1.1.2.1.3s-.1.1-.3.1h-9.5zm-7.2-7.8c.9.2 1.5.2 2.2.2h9.2c.7-1 1-1.3 1.8-2.2 1.1 1 1.4 1.3 2.4 2.3.1.1.2.2.2.3 0 .1-.2.3-.4.3H23.1c-.8 0-1.2 0-2 .1l-.1-1zm-8.7 57.5c1.2-3.6 1.6-6.1 1.7-9 2.2.4 2.6.6 2.6.8 0 .2-.2.3-1 .5-.3 1.7-.6 2.6-1.2 4.3-.6 1.5-1 2.3-1.8 3.7l-.3-.3zm4.7-11.3c-.5.1-.9.2-1.2.2-1.1.2-1.3.2-2.1.3-.1.7-.2.8-.4.8s-.3-.2-.7-2.4h1c.4 0 .4 0 1.7-.1.8-.9 1.3-1.6 2.3-3.3 1.7-2.9 2.2-4 2.8-5.4 2.3.8 2.5 1 2.5 1.2 0 .3-.3.4-1 .4-1.4 2-4.3 5.6-5.7 7.1 3.4-.2 3.4-.2 4.6-.3-.4-1.3-.5-1.6-1-2.5l.3-.2c.7.6 1 1 1.7 1.9.7 1 1 1.4 1 1.8 0 .8-.5 1.8-1 1.8-.3 0-.3-.2-.5-1-.1-.3-.1-.5-.3-1.2-.8.2-1.2.3-2.1.5v6.5c0 4.6 0 4.6.1 5.9 0 .2-.1.3-.2.4-.1.1-.9.1-1.4.1-.3 0-.3-.1-.3-.3 0-1.5.1-4.7.1-5.9v-6.3zm-3.9-9.1c.9.6 1.2.8 1.8 1.3.9-1.7 1.7-3.5 2.1-5.3 2.9 1 2.9 1 2.9 1.2s-.3.4-1.1.4c-2.2 2.6-2.4 2.8-3.5 3.9 1.1 1 1.5 1.6 1.5 2.2 0 .7-.5 1.6-.9 1.6-.3 0-.4-.2-.8-1.1-.4-1.1-1.3-2.6-2.4-4l.4-.2zm6.8 11.1c1.6 1.7 2.7 3.4 2.7 4.4 0 .8-.7 1.8-1.2 1.8-.3 0-.4-.3-.5-1 0-.3-.2-1.3-.4-2.3-.2-1-.4-1.6-.9-2.7l.3-.2zm.3 9.9c2-1 3.1-2 4.1-3.5 1.1-1.7 1.6-3.8 1.6-6.9 0-.8 0-1.3-.1-2.2 2.4.3 2.9.4 2.9.7 0 .2-.2.3-1 .6-.2 4.2-.6 6-1.7 7.8-.8 1.2-1.9 2.2-3.2 3-.7.4-1.2.6-2.5 1l-.1-.5zm13.7-20.3c.7-.9 1-1.2 1.7-2 1.2 1 1.6 1.3 2.7 2.3.1.1.1.2.1.2 0 .1-.1.2-.3.2h-8.4c-1.1 2-1.3 2.3-3.1 4.6 4.7-.2 4.8-.2 7.1-.4-.5-.7-.8-1.1-2-2.4l.3-.3c1.7 1 2.8 1.7 3.7 2.5.9.8 1.1 1.1 1.1 1.7 0 .9-.5 2-.9 2-.3 0-.4-.2-.8-1-.2-.5-.8-1.4-1.1-2.1-.9.2-.9.2-4.9.9-.8.2-1.7.3-4.8.8-.3.9-.4 1.1-.6 1.1s-.4-.6-.7-2.8h2.9c.8-1.9 1-2.5 1.5-4.6h-2.2c-.8 0-1.5.1-2 .1l-.2-1c.8.2 1.2.2 2.2.2h3.2V227c0-1 0-1.4-.1-2.4 2.5.3 3.1.4 3.1.7s-.2.3-1.1.6v3.3h3.6zm-3.5 10.2v-2.8c2.3.3 2.9.5 2.9.8 0 .2-.3.4-1.1.6v9c0 .6.1.6 1.1.6 1.8 0 2 0 2.2-.3.3-.4.7-1.8 1.7-5.7h.3l-.3 4.8v.5c0 .3.1.4.5.6.4.2.6.4.6.6 0 .4-.3.7-.9.8-.5.1-1.9.2-3.6.2-2.9 0-3.4-.2-3.5-1.7v-8zm-5.2 44.5c3-.9 5-2 6.6-3.9 1.7-1.9 2.5-4.2 2.5-6.7 0-2.7-1.1-4.9-3.2-6.2-1.2-.8-3.1-1.3-4.8-1.3-.3 0-.5 0-1 .1.7 1 .9 1.5.9 2.3 0 2.2-1.6 6.3-3.7 9.7-1.8 2.8-3.1 4.2-4.2 4.2-.5 0-.9-.2-1.2-.6-.3-.3-.3-.4-.8-1.8-.3-.7-.4-1.1-1.2-2.6-.4-.9-.6-1.7-.6-2.5 0-1.8 1-3.8 2.5-5.5 2.3-2.4 6-3.9 9.6-3.9 2.8 0 5.4.9 7.2 2.6 1.8 1.7 2.7 3.9 2.7 6.6 0 3.5-2 6.6-5.6 8.5-1.6.9-3.1 1.3-5.5 1.7l-.2-.7zm-9.2-8.7c0 1.3.4 2.7 1.1 3.7.4.5.8.8 1.1.8.6 0 2-1.5 3.3-3.7 2.1-3.3 3.6-6.9 3.6-8.7 0-.4-.1-.7-.4-1.4-4.9.9-8.7 5-8.7 9.3zm-3.1 42.5c1.3.2 1.8.3 3 .3h17.3c.8-1 1.1-1.3 1.9-2.4 1.3 1.1 1.8 1.5 3.1 2.6.1.1.2.2.2.3s-.1.1-.2.1H15.9c-1.3 0-1.9.1-2.8.2l-.2-1.1zm2.8-15.7c1 .2 2 .3 2.8.3h12c.8-1 1-1.3 1.8-2.3 1.2 1.1 1.6 1.4 2.9 2.5.1.1.1.2.1.2 0 .1-.1.2-.4.2H18.5c-1 0-1.7.1-2.6.2l-.2-1.1zm17.9 37.6c.7-.9.9-1.2 1.6-2.1 1.3.9 1.6 1.2 2.8 2.2.1.1.2.2.2.3 0 .1-.1.2-.3.2H26.5c.7 1.9 1.5 3.1 3.3 5.2 2 2.4 4.1 4.3 5.8 5.4 1 .6 1.7 1 3.4 1.7v.4c-1.1.2-1.7.6-2.4 1.7-2.4-1.8-4.2-3.5-6.3-6.3-1.7-2.3-2.8-4.1-4.1-7.3v11.4H29c.6-.9.9-1.1 1.5-1.9 1.1.8 1.5 1.1 2.5 2.1.1.1.1.2.1.2 0 .1-.1.2-.3.2h-6.6v.4c.1 4 .1 4.2.1 5.6-.1.2-.1.3-.2.3s-1 .1-1.4.1c-.3 0-.4-.1-.4-.4v-3.7c0-1.1.1-1.8.1-1.9v-.3h-4.2c-1.1 0-1.6 0-2.1.2l-.1-1c.6.1 1.5.2 2.2.2h4.2v-5.1l.1-5c-.8 1.8-1.2 2.5-2.4 4-1.7 2.2-4.3 4.9-6.4 6.5-1.2.9-1.8 1.3-3.4 2.1l-.2-.3c3.2-2.5 5.3-4.6 7.9-8.1 1.7-2.4 2.5-3.8 3.7-6.3H15c-.6 0-1.3.1-1.8.2l-.1-1.1c.5.1 1.5.3 1.9.3h9.5v-3.2c0-1.2 0-1.6-.1-2.6.6.1 1.1.2 1.5.2 1.4.2 1.7.3 1.7.6s-.1.4-1.2.7v4.3h7.2zm-14 36.9c.7-.8.7-.8 1.3-1.6.9.8 1.2 1 2 1.9.1.1.1.2.1.3 0 .1-.1.1-.3.1h-4.2v1.6c2.1 1 2.6 1.5 2.6 2.3 0 .8-.4 1.5-.8 1.5-.2 0-.3-.1-.4-.5-.4-1.1-.9-2.1-1.4-2.8v3.3c0 2.4 0 2.7.1 8.1 0 1.8 0 1.8.1 4.7 0 .4-.2.4-1.2.4-.6 0-.7-.1-.7-.3v-.1c.1-2.8.1-2.8.1-5.6.1-4.2.1-4.9.1-6.2l.1-3.4c-.6 2.3-1.1 3.5-2.1 5.2-.8 1.6-1.5 2.5-2.7 3.9l-.4-.3c1.5-2.4 2.3-4.1 3.3-7.1.7-1.9.9-2.9 1.3-4.8h-2c-.8 0-1.3.1-2 .2l-.2-1.1c.8.2 1.2.3 2.2.3h2.2v-3.2c0-1.2 0-1.8-.1-3.1.6.1 1.1.1 1.5.2 1.3.2 1.6.3 1.6.5s-.2.3-1.1.7v4.9h1zm.4 8.5c1.5-2.3 2.6-4.5 3.7-7.3 1-2.7 1.5-4.8 1.7-6.7 2.8.9 3.2 1 3.2 1.3 0 .3-.2.3-1.3.5-1 3.3-1.9 5.4-3.2 7.7-1.1 2-2 3.2-3.6 4.8l-.5-.3zm11-.4c2.6 2.4 3.9 3.8 4.9 5.5.5.8.7 1.4.7 2.2 0 1.3-.6 2.5-1.3 2.5-.3 0-.4-.2-.5-.6-.3-1-.4-1.6-.8-2.8-2.6.8-5 1.3-11.5 2.4-.2.9-.4 1.2-.6 1.2-.1 0-.3-.1-.4-.4-.1-.3-.1-.4-.6-2.9 1 .1 1.4.1 1.9.1H24c.8-1.8 1.3-3.2 2-5.5 1.2-3.8 1.6-5.8 1.8-7.6.7.2 1.2.4 1.6.4 1.5.4 1.6.4 1.6.7 0 .3-.4.5-1.3.6-1.8 5.4-2.8 7.8-4.9 11.3 2.6-.1 5.7-.4 9-.8-1-2.7-1.7-4-3.1-5.9l.3-.4zm.5-13.9c-.1.3-.1.3-.1.5 0 .8.7 2.9 1.6 4.6.9 1.8 2.2 3.5 3.5 4.7.7.6 1.2 1 2.4 1.6v.3c-1.1.4-1.4.8-1.8 2.1-1.6-1.5-2.6-3-3.8-5.4-.9-1.8-1.5-3.4-2.4-6.9-.2-.8-.3-1-.6-1.3l1.2-.2zm-7.3 40c0-2.1 0-2.4-.1-3.9 2.7.3 3.4.4 3.4.7 0 .3-.4.5-1.3.8v3.2h7.6c.7-.9 1-1.2 1.7-2.1 1.3 1 1.6 1.3 2.7 2.3.1.1.1.2.1.3 0 .1-.1.2-.3.2H15.5c-.8 0-1.7.1-2.3.2L13 411c.9.2 1.9.3 2.5.3h8.7v-.7zm8 5.8c.4-.6.6-.7 1.1-1.3.9.5 1.2.7 1.9 1.3l.3.3c0 .2-.3.4-1 1v9c-.1.8-.3 1.2-1.1 1.6-.5.3-1.1.4-2.1.6-.1-.9-.3-1.3-1-1.6-.5-.2-1.1-.4-2.2-.5v-.4c.5 0 .9 0 1.1.1 1.9.1 1.9.1 2.9.1.4 0 .5-.1.5-.5V417h-6.2v5.1c0 2.2 0 4 .1 5.7v3.6c0 .6-.2.7-1.5.7-.4 0-.6-.1-.6-.4V417h-5.9v11.4c0 .2-.1.3-.2.4-.2.1-.9.1-1.4.1-.3 0-.4-.1-.4-.3.1-3.4.1-5.2.1-8.2 0-2.5 0-3.4-.1-5.5 1.1.6 1.4.8 2.3 1.5h5.6v-1.9c0-.5 0-1-.1-1.8 2.7.3 3.3.4 3.3.8 0 .3-.3.4-1.2.6v2.4h5.8z" fill="#200701"/></g></g><line x1="89.4" y1="4.9" x2="89.4" y2="64.9" fill="none" stroke="#76544b" stroke-miterlimit="10"/></svg>