<?xml version="1.0" encoding="utf-8"?>
<!-- Generator: Adobe Illustrator 21.0.0, SVG Export Plug-In . SVG Version: 6.00 Build 0)  -->
<svg version="1.1" id="レイヤー_1" xmlns="http://www.w3.org/2000/svg" xmlns:xlink="http://www.w3.org/1999/xlink" x="0px"
	 y="0px" width="181px" height="401px" viewBox="0 0 181 401" style="enable-background:new 0 0 181 401;" xml:space="preserve">
<style type="text/css">
	.st0{fill:#FFFFFF;}
	.st1{fill:none;stroke:#210701;stroke-miterlimit:10;}
	.st2{fill:none;stroke:#210701;stroke-width:0.5;stroke-miterlimit:10;}
	.st3{fill:#210701;}
	.st4{fill:#4A1F00;}
</style>
<g>
	<g>
		<rect x="0.5" y="0.5" class="st0" width="180" height="400"/>
		<rect x="0.5" y="0.5" class="st1" width="180" height="400"/>
		<rect x="3.5" y="3.5" class="st2" width="174" height="394"/>
	</g>
	<g>
		<path class="st3" d="M50.2,49c-0.8,1.2-1.4,1.7-2.3,2.3c0,0-0.2,0.1-0.3,0.1c0,0,0,0,0,0c0,0,0.4-0.4,0.4-0.5
			c0.9-1.2,1.7-2.6,1.7-3.9c0-0.3,0-0.4,0.1-0.4c0,0,1,0.4,1.2,0.5c0.2,0.1,0.3,0.1,0.3,0.2c0,0.1-0.5,0.4-0.5,0.5
			C50.8,47.8,50.3,48.8,50.2,49z M58.5,45.2c0.5,0,0.6,0,0.8-0.1c0.1-0.1,0.5-0.9,0.7-0.9c0.1,0,1.5,1,1.5,1.2
			c0,0.2-0.3,0.2-0.8,0.2h-3.3c-0.1,0-0.3,0-0.4,0.1c-0.1,0.1-0.1,0.2-0.1,1.1c0,0.7,0.1,3.9,0.1,4.5c0,0.5,0,0.9-0.6,1.4
			C56,53,55.8,53,55.7,53c-0.1,0-0.2-0.1-0.4-0.3c-0.3-0.3-0.4-0.4-1.4-0.9c-0.2-0.1-0.2-0.1-0.2-0.1c0-0.1,0.1-0.1,0.1-0.1
			c0.2,0,0.9,0.1,1.1,0.1c0.2,0,0.6,0,0.8-0.1c0.2-0.1,0.2-0.3,0.2-1.9c0-1.1,0-3.7-0.1-3.9c-0.1-0.2-0.3-0.2-0.4-0.2h-0.9
			C54,45.6,54,45.8,54,46c-0.1,3.9-1.2,5.9-4.3,6.9c-0.1,0-0.7,0.2-0.8,0.2c0,0-0.1,0-0.1-0.1c0.2-0.1,0.4-0.2,0.5-0.3
			c3-1.7,3.5-4,3.5-6.6c0-0.5,0-0.6-0.4-0.6h-1.9c-1.3,0-1.8,0-1.9,0c0,0-0.3,0-0.3,0s-0.1,0-0.1-0.1l-0.3-0.3
			c-0.1-0.1-0.1-0.1-0.1-0.1c0,0,0,0,0,0c0.1,0,0.6,0,0.7,0c0.7,0,1.4,0.1,2.1,0.1h3c0.5,0,0.5-0.1,0.5-1.4c0-1.3,0-1.3,0-1.4
			c-0.1-0.2-0.2-0.2-0.4-0.2h-1.8c-1.3,0-1.8,0-1.9,0c0,0-0.3,0-0.3,0s-0.1,0-0.1-0.1l-0.3-0.3c0,0-0.1-0.1-0.1-0.1c0,0,0,0,0,0
			c0.1,0,0.6,0.1,0.7,0.1c0.7,0,1.4,0,2.1,0h1.8c0.1,0,0.4,0,0.4-0.4c0-0.5,0-1.1-0.1-1.5c0-0.1-0.1-0.4-0.1-0.5
			c0-0.1,0.1-0.1,0.2-0.1c0.1,0,1.7,0.2,1.7,0.5c0,0.1-0.1,0.2-0.3,0.4c-0.1,0.1-0.1,0.2-0.1,0.9c0,0.6,0,0.8,0.5,0.8h1
			c0.4,0,0.7,0,0.9-0.2c0.1-0.1,0.5-0.8,0.7-0.8c0.1,0,1.5,0.9,1.5,1.1c0,0.2-0.3,0.2-0.8,0.2h-3.2c-0.1,0-0.3,0-0.4,0.2
			c0,0.1,0,2,0,2.2c0,0.3,0,0.6,0.4,0.6H58.5z M60.7,50.8c-0.3,0-0.4-0.1-0.6-0.8c-0.7-2-1.5-2.6-1.8-2.8c0,0-0.3-0.2-0.3-0.2
			c0,0,0,0,0,0c0.1,0,0.4,0.1,0.4,0.1c1.6,0.5,2.9,1.8,2.9,2.7C61.4,50.2,61.2,50.8,60.7,50.8z"/>
		<path class="st3" d="M54.3,57.9c0.1,0.3,0.5,0.7,1,0.8c0.6,0.1,0.9,0.2,0.9,0.6c0,0.9-1.4,1.2-2.4,1.4c-0.3,0-0.3,0.1-0.4,0.3
			C53,62.9,53,63.2,53,63.8c0,0.2,0,0.7,0.2,0.7c0.1,0,0.2-0.1,0.3-0.2c0.7-0.5,1.7-1,2.8-1c1.9,0,2.6,1.6,2.6,2.7
			c0,2.5-2.7,3.1-3.9,3.3c-0.6,0.1-1.1,0.1-1.2,0.1c0,0-0.2,0-0.2-0.1c0,0,0.6-0.2,0.7-0.3c3-0.9,3.5-2.1,3.5-3.1
			c0-1.8-1.4-1.9-1.7-1.9c-1.4,0-2.6,1.1-2.8,1.7c-0.2,0.8-0.3,0.9-0.6,0.9c-0.6,0-0.7-1.3-0.7-1.4c0-0.7,0.8-4,0.8-4.4
			c0-0.1,0-0.1-0.3-0.2c-1.9-0.2-2.1-1.3-2.1-1.4c0,0,0-0.1,0.1-0.1c0.1,0,0.4,0.2,0.5,0.3c0.6,0.3,1.5,0.3,1.8,0.3
			c0.2,0,0.2,0,0.3-0.1c0.1-0.2,0.3-1,0.3-1.4c0-0.3-0.1-0.8-0.3-1c-0.1-0.1-0.2-0.2-0.2-0.2c0-0.1,0.4-0.2,0.4-0.2
			C53.4,56.9,54.1,57.1,54.3,57.9z M53.8,59.6c0,0.1,0.1,0.1,0.1,0.1c0.2,0,1-0.2,1-0.5c0-0.3-0.6-0.8-0.7-0.8
			C54.1,58.5,53.8,59.6,53.8,59.6z"/>
		<path class="st3" d="M51.3,80c0.6,0,1.8-0.7,1.8-0.8c0-0.1-0.1-0.2-0.2-0.4c-0.8-1.1-0.9-1.2-0.9-1.5c0-0.3,0.5-0.8,1.8-0.8
			c0.2,0,1.3,0.1,1.5,0.1s0.3-0.1,0.3-0.3c0-0.1-0.1-0.3-0.1-0.4c0-0.1,0.1-0.1,0.1-0.1c0.2,0,0.9,0.6,0.9,1.2
			c0,0.1-0.1,0.3-0.1,0.3c0,0,0,0.1,0,0.1s0,0,0.2,0c0.4-0.1,0.9-0.2,1.4-0.2c1.2,0,2.3,1,2.3,2.2c0,0.8-0.6,1.9-2.1,1.9
			c-1.3,0-2.3-1.1-2.3-1.2c0,0,0-0.1,0.1-0.1c0,0,0.1,0,0.4,0.1c0.6,0.2,0.9,0.3,1.2,0.3c0.6,0,1.6-0.3,1.6-1.3
			c0-0.6-0.5-1.4-1.5-1.4c-1,0-1.8,0.5-3.7,1.7c0,0-0.1,0.1-0.1,0.1c0,0,0.4,0.7,0.4,0.7c0.7,1.2,1.7,3.1,1.7,4.1
			c0,0.5-0.3,0.8-0.6,0.8c-0.1,0-0.6,0-0.6-0.8c0-1.2,0-1.3-0.4-2.3c-0.4-1-1-2.2-1.1-2.2c-0.1,0-0.1,0-0.2,0.1
			c-0.3,0.2-1.4,0.9-1.8,0.9c-0.2,0-0.9-0.6-0.9-0.8c0-0.1,0.1-0.1,0.2-0.1C51,80,51.3,80,51.3,80z M53.6,76.9
			c-0.7,0-0.7,0.6-0.7,0.6c0,0.2,0.1,0.3,0.5,1c0.2,0.3,0.2,0.4,0.3,0.4c0.1,0,1.2-0.7,1.4-0.8c0,0,0.6-0.3,0.6-0.4
			C55.5,77.6,54.1,76.9,53.6,76.9z"/>
		<path class="st3" d="M55.1,93.2c0,0.2-0.1,0.3-0.8,1.1c-1.2,1.4-1.6,1.8-2,2.5c-0.1,0.1-0.3,0.6-0.3,0.6c0,0,0,0.1,0.1,0.1
			c0.2-0.1,0.5-0.3,0.6-0.4c1-0.6,1.6-0.7,1.9-0.7c1.8,0,2,2,2,2.6c0,0.2-0.1,1.2-0.1,1.4c0,1.1,0.9,1.1,1.1,1.1
			c0.8,0,1.6-0.6,2.3-1.4c0.1-0.1,0.3-0.4,0.3-0.4c0,0,0,0,0,0.1c0,0.3-0.4,1-0.7,1.4c-0.8,0.9-1.9,1.5-2.8,1.5
			c-0.8,0-1.3-0.8-1.3-1.6c0-0.3,0.2-1.9,0.2-2.2c0-0.8-0.3-2-1.4-2c-0.3,0-2.8,0.3-3.3,4.1c0,0.2-0.1,1-0.1,1.1
			c0,0.1-0.1,0.5-0.5,0.5c-0.2,0-0.7-0.1-0.7-1.1c0-0.4,0-0.5,0.4-1.4c0.1-0.3,0.6-1.5,0.7-1.7c0.5-1.1,0.7-1.4,2.2-3.8
			c0.1-0.1,0.7-1.3,0.8-1.6c0.1-0.1,0.1-0.4,0.1-0.6c0-0.1-0.1-0.6-0.1-0.7c0,0,0-0.1,0.1-0.1C54.3,91.7,55.1,92.7,55.1,93.2z"/>
		<path class="st3" d="M54.6,110.2c0,0,0,0.1,0,0.2c0.1,0.5,0.1,1,0.1,1.6c0,1-0.2,2.4-1.5,4.4c-1.2,1.8-2,2.2-2.6,2.2
			c-1,0-1.9-1.5-1.9-3.4c0-0.8,0.2-2.3,1.7-3.8c1.9-1.9,3.9-1.9,4.8-1.9c1.4,0,2,0.3,2.4,0.5c1.6,0.8,2.6,2.4,2.6,4.4
			c0,2-1.1,4.4-3.8,5.3c-1.3,0.5-2.3,0.6-2.5,0.6c-0.1,0-0.1,0-0.1-0.1c0,0,0-0.1,0.4-0.2c1.6-0.6,4.8-1.9,4.8-5.6
			c0-0.6-0.1-4.2-4.2-4.2C54.7,110,54.6,110.1,54.6,110.2z M49.8,114.8c0,1,0.4,2.3,1.3,2.3c0.4,0,0.8-0.2,1.8-1.7
			c0.8-1.2,1.5-2.9,1.5-4.4c0-0.9-0.1-1-0.3-1C52.7,110.1,49.8,112,49.8,114.8z"/>
		<path class="st3" d="M53.3,130.3c0.1,0,0.2,0,0.3-0.1c0,0,0.2-0.3,0.3-0.3c0,0,1,0.4,1,0.7c0,0.1-0.1,0.2-0.2,0.2
			c-0.3,0.2-0.3,0.2-0.3,0.5c-0.2,1-0.3,1.6-0.5,2.4c0,0.2-0.4,1.1-0.4,1.2c0,0.5,1.5,1.7,4.3,1.7c1.5,0,2.5-0.2,3.6-0.6
			c0.3-0.1,0.3-0.1,0.3-0.1c0,0-0.1,0.1-0.1,0.1c-0.5,0.4-0.7,0.6-0.9,1.1c0,0.1-0.1,0.5-0.2,0.6c-0.1,0-0.6,0-0.9,0
			c-3,0-4.2-0.2-5.7-1.2c-0.2-0.1-0.9-0.8-1-0.8c-0.1,0-0.8,0.8-0.9,0.9c-0.8,0.8-1.4,1.1-1.7,1.1c0,0,0,0,0-0.1
			c0,0,0.3-0.3,0.4-0.3c0.8-0.6,1.7-2,1.7-2.4c0-0.1-0.1-0.2-0.1-0.4c-0.5-0.8-1.1-2.5-1.1-2.9c0-0.1,0-0.1,0-0.1s0.1,0.1,0.2,0.3
			c0.3,0.9,1,2.1,1.2,2.1c0.3,0,0.7-3.1,0.7-3.2c0-0.3-0.2-0.3-0.3-0.3h-0.6c-0.1,0-0.2,0-0.3,0.2c-0.1,0.2-0.2,0.4-0.5,0.4
			c-0.2,0-0.5-0.1-0.5-0.4c0-0.2,0.3-1,0.4-1.1c0.2-0.6,0.8-2.7,0.8-3.2c0-0.2-0.1-0.2-0.3-0.2s-0.9,0.1-1,0.1
			c-0.1,0-0.2-0.3-0.3-0.3c-0.2,0-1.2,2.1-1.2,2.2c0,0.2,0,0.2,0.4,0.4c0.1,0.1,0.4,0.2,0.4,0.4c0,0.1-0.1,0.1-0.2,0.2
			c-0.3,0.2-0.3,0.4-0.3,0.8c0,0.8,0,4.9,0,5.8c0,0.2,0.1,1.5,0.1,1.7c0,0.2,0,0.4-0.2,0.5c-0.2,0.2-0.5,0.3-0.7,0.3
			c-0.3,0-0.3-0.1-0.3-0.3c0-0.1,0.1-0.6,0.1-0.7c0.1-1.3,0.1-3.9,0.1-5.3c0-0.3,0-1.9,0-2.1c0-0.1,0-0.3-0.1-0.3
			c0,0-0.2,0.3-0.3,0.4c-0.5,0.8-1.1,1.4-1.2,1.4c0,0,0,0,0,0c0-0.1,0.2-0.3,0.2-0.4c0.1-0.2,0.9-1.9,1.3-3c0.8-2.3,0.9-2.5,0.9-3
			c0-0.1,0-0.2,0.1-0.2c0.1,0,1.3,0.6,1.3,0.9c0,0,0,0.1-0.1,0.1c0,0-0.1,0.1-0.1,0.1c0,0.1,1.1,0.1,1.2,0.1c0.2,0,0.2,0,0.3-0.2
			c0.2-0.3,0.3-0.3,0.3-0.3c0,0,0.7,0.4,0.8,0.4c0.1,0.1,0.3,0.2,0.3,0.4c0,0.1,0,0.1-0.1,0.1c-0.4,0.2-0.4,0.2-0.5,0.4
			c0,0.1-0.9,3.3-0.9,3.3c0,0.2,0.1,0.2,0.2,0.2H53.3z M60.5,128.4c-0.3,0-0.4,0.1-0.4,0.4v0.7c0,0.2,0.1,0.8,0.1,1
			c0,0.3-0.3,0.6-0.7,0.6c-0.3,0-0.4-0.2-0.4-0.3c0-0.2-0.2-0.2-0.4-0.2h-0.8c-0.2,0-0.4,0-0.4,0.4c0,1.3,0,1.4,0.5,1.4
			c0.4,0,0.5,0,0.7-0.3c0.2-0.3,0.3-0.4,0.4-0.4c0.1,0,1.1,0.7,1.1,0.8c0,0.2-0.3,0.2-0.8,0.2H58c-0.3,0-0.4,0.1-0.4,0.4
			c0,1,0,1.1,0.4,1.1h0.6c0.6,0,0.8,0,0.9-0.2c0.2-0.4,0.2-0.5,0.4-0.5c0.2,0,1.3,0.8,1.3,1c0,0.2-0.3,0.2-0.8,0.2H58
			c-0.2,0-0.4,0-0.4,0.4c0,0.1,0,0.5,0,0.6c0,0.7-0.7,0.7-0.8,0.7c-0.4,0-0.4-0.2-0.4-0.5c0-0.1,0.1-0.7,0.1-0.9
			c0-0.3-0.2-0.3-0.3-0.3c-0.3,0-1,0-1.3,0c0,0-0.2,0-0.2,0c-0.1,0-0.1,0-0.1-0.1l-0.3-0.3c0,0-0.1-0.1-0.1-0.1c0,0,0,0,0.1,0
			c0.3,0,1.6,0.1,1.9,0.1c0.4,0,0.4-0.1,0.4-0.7c0-0.6,0-0.8-0.3-0.8c-0.1,0-0.8,0.1-0.9,0.1c0,0-0.1,0-0.1-0.1l-0.3-0.3
			c-0.1-0.1-0.1-0.1-0.1-0.1c0,0,0,0,0,0c0.2,0,1.1,0.1,1.3,0.1c0.4,0,0.4-0.2,0.4-0.4v-0.9c0-0.3-0.2-0.3-0.3-0.3
			c-0.1,0-0.8,0.1-0.9,0.1c0,0-0.1,0-0.1-0.1l-0.3-0.3c-0.1-0.1-0.1-0.1-0.1-0.1c0,0,0,0,0,0c0.1,0,1.1,0.1,1.3,0.1
			c0.3,0,0.3-0.1,0.3-1.2c0-0.3,0-0.5-0.4-0.5c-0.1,0-1.1,0-1.6,0c0,0-0.3,0-0.3,0c-0.1,0-0.1,0-0.1-0.1l-0.3-0.3
			c-0.1-0.1-0.1-0.1-0.1-0.1c0,0,0,0,0,0c0.1,0,0.6,0,0.7,0c0.5,0,1.2,0.1,1.7,0.1c0.4,0,0.4,0,0.4-1.1c0-0.2,0-0.4-0.3-0.4
			c-0.2,0-1.1,0.1-1.2,0.1c0,0-0.1,0-0.1-0.1l-0.3-0.3c0,0-0.1-0.1-0.1-0.1c0,0,0,0,0,0c0.3,0,1.5,0.1,1.8,0.1c0.1,0,0.3,0,0.3-0.3
			c0-0.1,0-0.3-0.1-0.6c0-0.1-0.1-0.4-0.1-0.4c0-0.1,0.1-0.1,0.1-0.1c0,0,0.9,0.2,1,0.2c0.3,0.1,0.6,0.1,0.6,0.3
			c0,0.1,0,0.1-0.3,0.4c-0.1,0.1-0.1,0.2-0.1,0.3c0,0.2,0.1,0.2,0.2,0.2h1c0.2,0,0.3,0,0.4-0.2c0.1-0.1,0.2-0.2,0.3-0.2
			c0,0,0.7,0.3,0.8,0.4c0.1,0.1,0.3,0.2,0.3,0.3c0,0.1-0.4,0.4-0.4,0.5c0,0.1,0,0.1,0,0.3c0,0.1,0,0.6,0.1,0.6c0,0,0.2-0.1,0.2-0.2
			c0.1-0.1,0.1-0.1,0.3-0.1c0.2,0,0.9,0.5,0.9,0.6c0,0.2-0.3,0.2-0.8,0.2H60.5z M58.7,128c0.4,0,0.4-0.1,0.4-0.9
			c0-0.4,0-0.6-0.4-0.6h-0.9c-0.4,0-0.4,0.1-0.4,0.8c0,0.4,0,0.6,0.4,0.6H58.7z M58.8,130.1c0.3,0,0.4-0.1,0.4-0.4
			c0-1.1,0-1.3-0.4-1.3h-0.9c-0.4,0-0.4,0.1-0.4,0.7c0,0.9,0,1,0.4,1H58.8z"/>
		<path class="st3" d="M58.4,143.5c0.6,0,0.7,0,0.9-0.2c0.1-0.1,0.5-0.6,0.7-0.6c0.1,0,1.3,0.8,1.3,1c0,0.2-0.1,0.2-0.8,0.2h-9.8
			c-0.6,0-0.6,0.2-0.6,0.9c0,6.3-0.6,7.6-0.9,8.4c-0.5,1.2-1.1,2-1.2,2c0,0-0.1,0-0.1-0.1c0,0,0.3-0.7,0.3-0.8c0.7-1.9,0.9-4,0.9-8
			c0-0.6,0-2.2-0.1-2.8c0-0.1-0.1-0.3-0.1-0.4c0-0.1,0.2-0.1,0.2-0.1c0.2,0,0.9,0.4,1,0.4c0.2,0.1,0.3,0.1,0.6,0.1h3
			c0.3,0,0.5,0,0.5-0.5c0-0.3,0-0.6-0.1-0.7c0,0-0.1-0.2-0.1-0.3c0-0.1,0.1-0.1,0.2-0.1c0.1,0,0.7,0.1,0.9,0.1
			c0.1,0,0.5,0.1,0.5,0.3c0,0.1,0,0.1-0.3,0.3c-0.1,0-0.1,0.2-0.1,0.3c0,0.5,0.3,0.5,0.6,0.5H58.4z M56,149.1
			c-0.4,0-0.5,0.2-0.5,0.5c0,0.5,0,3.1,0,3.7c0,0.9-0.1,1.1-0.3,1.4c-0.3,0.4-0.9,0.8-1.2,0.8c-0.1,0-0.2,0-0.3-0.1
			c-0.4-0.5-0.5-0.6-0.7-0.8c0,0-0.3-0.1-0.3-0.2c0-0.1,0.1-0.1,0.5-0.1c1.1,0,1.2-0.1,1.3-0.4c0.1-0.2,0.1-1.4,0.1-1.7
			c0-0.1,0-0.4-0.2-0.4c-0.2,0-3,2.1-3.1,2.4c-0.1,0.2-0.1,0.3-0.2,0.3c-0.2,0-0.9-1.3-0.9-1.3c0-0.1,0.1-0.1,0.4-0.1
			c0.8,0,3.6-1.5,3.8-1.7c0.1-0.2,0.1-0.3,0.1-1.7c0-0.4-0.1-0.5-0.5-0.5h-0.5c-0.4,0-1.4,0-1.9,0c0,0-0.3,0-0.3,0
			c-0.1,0-0.1,0-0.1-0.1l-0.3-0.3c-0.1-0.1-0.1-0.1-0.1-0.1c0,0,0,0,0.1,0c0.1,0,0.6,0,0.7,0c0.4,0,1.2,0.1,2.1,0.1H54
			c0.2,0,0.5,0,0.5-0.5c0-0.6,0-0.8-0.5-0.8h-1.1c-0.5,0-1.5,0-1.9,0c0,0-0.3,0-0.3,0c0,0-0.1,0-0.1-0.1l-0.3-0.3
			c-0.1-0.1-0.1-0.1-0.1-0.1c0,0,0,0,0,0c0.1,0,0.6,0,0.7,0c0.4,0,1.6,0.1,2.1,0.1h1c0.5,0,0.5-0.2,0.5-0.7c0-0.2,0-0.5-0.3-0.5
			c-0.7,0-1.2,0-2,0c-0.1,0-0.6,0-0.6,0c-0.1,0-0.1,0-0.2-0.1l-0.3-0.3c-0.1-0.1-0.1-0.1-0.1-0.1c0,0,0,0,0.1,0c0.1,0,0.5,0,0.6,0
			c0.4,0,1.2,0.1,2.1,0.1c0.4,0,0.5,0,0.5-0.6c0-0.2,0-0.4,0-0.5c0,0-0.1-0.2-0.1-0.3c0-0.1,0.1-0.1,0.2-0.1c0.2,0,1.4,0.2,1.4,0.4
			c0,0.1-0.2,0.3-0.2,0.4c-0.1,0.1-0.1,0.3-0.1,0.3c0,0.4,0.2,0.4,0.5,0.4h1.7c0.2,0,0.3,0,0.4-0.1c0,0,0.3-0.3,0.4-0.3
			c0.1,0,1,0.6,1,0.8c0,0.1,0,0.1-0.3,0.3c-0.2,0.1-0.2,0.2-0.2,0.5c0,0.2,0,0.4,0.3,0.4c0.3,0,0.3-0.1,0.8-0.7c0,0,0.1-0.1,0.2-0.1
			c0.1,0,1.1,0.7,1.1,1c0,0.2-0.1,0.2-0.8,0.2h-1.2c-0.4,0-0.5,0.2-0.5,0.4c0,0.1,0,0.8,0,1c0,0.8-0.6,0.8-0.7,0.8
			c-0.3,0-0.3-0.1-0.4-0.3c-0.1-0.3-0.3-0.3-0.4-0.3H56z M52.5,151.7c-0.4,0-0.5-0.2-0.9-0.8c-0.1-0.2-0.4-0.6-0.6-0.7
			c0,0-0.2-0.1-0.2-0.2s0.1,0,0.1,0c0.6,0,2,0.2,2,1.2C53,151.4,52.8,151.7,52.5,151.7z M56,145.8c-0.5,0-0.5,0.2-0.5,0.6
			c0,0.4,0,0.6,0.5,0.6h1.5c0.5,0,0.5-0.2,0.5-0.6c0-0.4,0-0.6-0.5-0.6H56z M56,147.4c-0.5,0-0.5,0.2-0.5,0.7c0,0.4,0.1,0.5,0.5,0.5
			h1.5c0.5,0,0.5-0.2,0.5-0.7c0-0.4-0.1-0.6-0.5-0.6H56z M60,150.8c-0.2,0-0.5,0.1-0.7,0.2c-1.6,0.7-1.6,0.8-1.6,0.9
			c0,0.3,1.3,1.2,2.5,1.7c0.1,0.1,0.9,0.3,0.9,0.4c0,0-0.1,0.1-0.2,0.1c-0.4,0-0.7,0.2-0.9,0.3c-0.2,0.1-0.7,0.5-0.8,0.5
			c0,0-0.1,0-0.1,0c-0.3-0.2-1.1-0.9-1.3-1.2c-0.3-0.3-0.8-1.2-1.1-1.7c-0.2-0.4-0.9-1.7-0.9-1.9c0,0,0,0,0,0c0.1,0,1.2,1.8,1.6,1.8
			c0.2,0,1.1-1,1.3-1.4c0-0.1,0.2-0.5,0.3-0.5c0.1,0,0.7,0.5,0.8,0.5c0.4,0.3,0.4,0.3,0.4,0.5C60.3,150.7,60.1,150.8,60,150.8z"/>
		<path class="st3" d="M52.6,166.9c0.4-0.4,0.6-0.6,0.6-0.8c0,0-0.1-0.4-0.1-0.5c-0.2-0.6-0.3-0.9-0.3-1.8c0-0.3,0.1-2.1,0.1-2.5
			c0-0.8-0.2-1-0.5-1.2c-0.3-0.3-0.4-0.4-0.4-0.4c0-0.1,0.4-0.1,0.4-0.1c0.9,0,1.6,0.7,1.6,1.1c0,0.1-0.2,0.8-0.2,1
			c-0.1,0.4-0.1,1.1-0.1,2c0,0.6,0,1.8,0.4,1.8c0.2,0,0.3-0.1,1.1-0.6c0.2-0.1,1.1-0.7,1.5-0.7c0.3,0,0.6,0.3,0.6,0.6
			c0,0.4-0.6,0.7-1.2,0.9c-3.6,1.4-4.1,2.5-4.1,3.5c0,1,0.9,1.4,2.1,1.4c0.8,0,1.3-0.1,1.8-0.3c0.7-0.2,0.8-0.2,1.1-0.2
			c0.5,0,1,0.3,1,0.7c0,0.8-3.1,0.8-3.9,0.8c-0.7,0-2.9,0-2.9-2.4C51.5,168.9,51.6,167.8,52.6,166.9z"/>
		<path class="st3" d="M50.4,182.8c-0.3,0-0.4,0.1-0.4,0.4c-0.1,1.6-0.3,2.8-0.6,3.9c-0.4,1.3-1.2,2.5-1.5,2.5c0,0-0.1,0-0.1-0.1
			c0-0.1,0-0.1,0.1-0.2c0.5-0.9,0.7-2,0.8-2.5c0.2-1.4,0.3-2.9,0.3-4.3c0-1.2-0.1-2.4-0.1-2.7c0-0.1-0.1-0.7-0.1-0.8
			c0,0,0-0.1,0-0.1c0.1,0,1,0.5,1.2,0.5c0.1,0,0.4,0.1,0.6,0.1H54c0.1,0,0.3,0,0.3-0.2c0,0-0.3-2.3-0.3-2.4c0,0-0.1-0.5-0.1-0.5
			c0-0.1,0-0.1,0.2-0.1c0,0,1.4,0.1,1.4,0.4c0,0.1-0.2,0.3-0.2,0.3c-0.1,0.1-0.1,0.2-0.1,0.4c0,0.3,0.2,1.8,0.2,1.9
			c0,0,0.1,0.2,0.4,0.2h2.6c0.6,0,0.7,0,0.8-0.1c0.1-0.1,0.5-0.9,0.7-0.9c0.2,0,1.4,1,1.4,1.2c0,0.2-0.3,0.2-0.8,0.2h-4.8
			c-0.2,0-0.3,0-0.3,0.2c0,0.8,1,4.6,1.3,4.6c0.1,0,1.2-2.3,1.4-3.2c0-0.2,0.1-0.5,0.2-0.5c0.1,0,0.1,0,0.7,0.4
			c0.5,0.3,0.6,0.3,0.6,0.5c0,0.1,0,0.1-0.1,0.2c0,0-0.3,0.2-0.3,0.3c-0.1,0.1-1.1,2-1.3,2.3c-0.1,0.2-0.5,0.9-0.5,1
			c0,0.2,1.9,2.3,2.5,2.3c0.2,0,0.5-0.4,0.8-1c0.1-0.1,0.4-0.7,0.5-0.7s0,0.1,0,0.1c0,0.1-0.2,1.3-0.2,1.6c0,0.1,0,0.2,0.1,0.4
			c0.2,0.4,0.2,0.5,0.2,0.6c0,0.4-0.4,0.5-0.5,0.5c-0.9,0-2.4-1.2-3.7-2.6c-0.3-0.3-0.3-0.4-0.4-0.4c-0.1,0-0.7,0.6-0.8,0.8
			c-1.4,1.3-3,2-3.2,2c0,0-0.1,0-0.1,0s1.4-1.1,1.6-1.4c1-0.9,1.9-2,1.9-2.2c0-0.1,0-0.1-0.1-0.2c-0.7-1.5-1.1-3.1-1.4-4.7
			c-0.1-0.9-0.2-1-0.6-1h-3.4c-0.1,0-0.4,0-0.4,0.3c0,0.3,0,1.5,0,1.8c0,0.2,0,0.4,0.4,0.4h1.1c0.1,0,0.3,0,0.4-0.1
			c0.1,0,0.3-0.4,0.5-0.4c0.1,0,0.9,0.7,0.9,0.8c0,0.1-0.3,0.3-0.3,0.4c0,0.1-0.1,2.1-0.1,2.2c0,1.6-0.3,3.3-1.6,3.3
			c-0.1,0-0.2,0-0.2-0.1c-0.1-0.2-0.2-0.4-0.3-0.5c-0.1-0.1-0.9-0.5-0.9-0.6c0,0,0.1-0.1,0.1-0.1c0.2,0,1.1,0.1,1.2,0.1
			c0.3,0,0.6-0.1,0.7-1.1c0-0.4,0.1-0.9,0.1-3.1c0-0.2,0-0.5-0.4-0.5H50.4z M58.7,178.1c0,0.3-0.1,0.6-0.5,0.6
			c-0.2,0-0.3-0.2-0.4-0.5c-0.1-0.3-0.6-1-0.8-1.3c-0.1-0.1-0.1-0.1,0-0.2C57,176.7,58.7,177,58.7,178.1z"/>
		<path class="st3" d="M58.4,199.8c0.5,0,0.8,0,1.1-0.2c0.1-0.1,0.5-0.6,0.6-0.6c0.1,0,1.3,0.9,1.3,1.1c0,0.2-0.4,0.2-0.8,0.2h-5.9
			c-0.1,0-0.2,0.1-0.2,0.2c0,0.3,1.3,2.2,1.6,2.2c0.2,0,1.6-1.2,1.8-1.8c0.1-0.3,0.2-0.4,0.3-0.4c0.1,0,1.4,0.8,1.4,1v0
			c0,0.2-0.1,0.2-0.6,0.2c-0.4,0-1.5,0.7-2.1,1c-0.4,0.2-0.4,0.3-0.4,0.3c0,0.2,1.9,2,4.6,2.4c0.2,0,0.3,0.1,0.3,0.1
			s-0.1,0.1-0.3,0.2c-0.4,0.2-0.6,0.4-1,0.6c0,0-0.3,0.2-0.3,0.2c-0.1,0-1.8-0.7-3-2c-0.5-0.5-0.5-0.5-0.7-0.5
			c-0.1,0-1.2,0.4-1.8,0.6c-0.7,0.2-4.3,1.4-4.5,1.5c-0.1,0-0.3,0.3-0.3,0.3c0,0-0.1,0-0.1,0c-0.2,0-0.2-0.1-0.6-0.7
			c0-0.1-0.3-0.4-0.3-0.5c0-0.1-0.1-0.2-0.1-0.2c0-0.2,0.2-0.2,0.4-0.2c0.8,0,1,0,1.6-0.1c0.3,0,0.3-0.2,0.3-0.5c0-0.6,0-2.9,0-3.4
			c0-0.5-0.1-0.6-0.5-0.6c-0.3,0-1.2,0-1.5,0.1c0,0-0.2,0-0.2,0c-0.1,0-0.1,0-0.1-0.1l-0.3-0.3c-0.1-0.1-0.1-0.1-0.1-0.1
			c0,0,0,0,0.1,0c0.3,0,1.9,0.1,2.3,0.1c0.5,0,0.5-0.2,0.5-0.6c0-3,0-3.3,0-3.9c0-0.3-0.1-1.5-0.1-1.6c0,0,0-0.1,0.1-0.1
			c0.1,0,0.8,0.3,1,0.4c0.4,0.2,0.6,0.2,0.8,0.2h4.1c0.7,0,0.7,0,1-0.3c0.4-0.5,0.5-0.6,0.6-0.6c0.1,0,1.4,0.8,1.4,1
			c0,0.2-0.3,0.2-0.8,0.2h-6.4c-0.5,0-0.5,0.1-0.5,0.6c0,0.7,0,0.8,0.4,0.8h3.5c0.6,0,0.7,0,0.8-0.1c0.1-0.1,0.5-0.6,0.6-0.6
			c0.2,0,1.2,0.8,1.2,0.9c0,0.2-0.4,0.2-0.8,0.2h-5.3c-0.4,0-0.4,0.3-0.4,0.6c0,0.8,0,1,0.5,1h3.5c0.6,0,0.7,0,0.8-0.1
			c0.1-0.1,0.5-0.6,0.6-0.6c0.2,0,1.2,0.8,1.2,0.9c0,0.2-0.4,0.2-0.8,0.2h-5.4c-0.4,0-0.5,0.2-0.5,0.6c0,0.7,0,0.9,0.4,0.9H58.4z
			 M52.1,200.2c-0.1,0-0.4,0-0.4,0.3c0,0.1,0,0.9,0,1.1c0,0.8,0,1.8,0,2.5c0,0.2,0,0.4,0.2,0.4c0.2,0,2.4-0.5,3-0.7
			c0.6-0.2,0.7-0.2,0.7-0.4c0,0,0-0.1-0.3-0.4c-0.4-0.6-0.8-1.6-1-2.1c-0.3-0.6-0.3-0.7-0.6-0.7H52.1z"/>
		<path class="st3" d="M50,218.3c0-0.4,0.4-0.9,1.4-2.1c0.7-0.8,1.3-2,1.3-2.2c0-0.1-0.1-0.1-0.2-0.1c-0.1,0-0.8,0.1-0.9,0.1
			c-0.6,0-1.3-0.7-1.3-1.3c0,0,0-0.1,0.1-0.1s0.5,0.2,0.6,0.3c0.2,0.1,0.6,0.3,1,0.3c1.2,0,1.2-0.4,1.2-0.7c0-0.1,0-0.3-0.1-0.5
			c0-0.1-0.4-0.3-0.4-0.4c0-0.1,0.4-0.2,0.7-0.2c0.4,0,0.7,0.1,0.8,0.5c0,0.2,0.1,0.2,0.7,0.3c0.1,0,0.7,0.1,0.7,0.4
			c0,0.5-1.1,0.9-1.8,1.2c-0.2,0.1-0.2,0.1-0.6,0.9c-0.4,0.8-0.4,0.9-0.8,1.6c-0.1,0.1-0.1,0.2-0.1,0.2c0,0,0,0.1,0.1,0.1
			s0.3-0.1,0.5-0.2c0.2-0.1,0.4-0.1,0.6-0.1c0.2,0,0.9,0,1.3,0.9c0.1,0.3,0.1,0.3,0.2,0.3c0,0,0.5-0.7,0.6-0.8
			c0.5-0.7,1.5-2.1,2.8-2.1c0.8,0,1.4,0.7,1.4,1.3c0,0.7-1.2,1.2-2.1,1.6c-0.4,0.2-2.1,0.8-2.3,1c-0.2,0.2-0.3,0.3-0.3,0.6
			c0,0.1,0,0.8,0,0.9c0,0.2,0,1.1-0.6,1.1c-0.4,0-0.5-0.5-0.5-0.8c0-0.2,0-0.9,0-0.9c0-0.1,0-0.2-0.1-0.2c-0.1,0-1.5,0.9-1.5,1.8
			c0,1,1.5,1,1.9,1c0.4,0,0.7,0,1-0.1c0.2,0,1.2-0.3,1.4-0.3c0.3,0,0.7,0.2,0.7,0.5c0,0.9-2.3,1-2.7,1c-1.9,0-2.9-0.8-2.9-2
			c0-1,0.6-1.4,2-2.6c0.1-0.1,0.2-0.3,0.2-0.5c0-0.7-0.1-1.5-0.7-1.5c-0.6,0-1.5,0.7-1.8,1.6c-0.2,0.4-0.3,0.7-0.8,0.7
			C50.3,218.8,50,218.7,50,218.3z M53.9,212.6c0,0,0.8-0.2,0.8-0.4c0-0.2-0.4-0.2-0.5-0.2c-0.2,0-0.3,0.4-0.3,0.5
			S53.8,212.6,53.9,212.6z M55.2,217.5C55.2,217.5,55.2,217.5,55.2,217.5c0.1,0.1,3.1-1.1,3.1-2.1c0-0.4-0.3-0.4-0.5-0.4
			C56.5,214.9,55.2,217.2,55.2,217.5z"/>
		<path class="st3" d="M52.8,230.6c0.2,0,0.4,0,0.5-0.1c0.2-0.3,0.2-0.3,0.3-0.3c0.1,0,1,0.6,1,0.8c0,0.1-0.1,0.2-0.2,0.3
			c-0.2,0.1-0.2,0.2-0.2,0.5c0,0.5,0.1,2.7,0.1,2.9c0,0.2,0,0.9-0.6,0.9c-0.1,0-0.3,0-0.4-0.1c-0.1-0.2-0.1-0.3-0.3-0.3
			c-0.3,0-0.3,0.2-0.3,0.3c0,0.3,0.1,3.9,0.1,4.3c0,0.8-0.7,1.2-1.3,1.2c-0.1,0-0.3-0.2-0.3-0.3c-0.2-0.3-0.3-0.4-0.4-0.4
			c-0.1,0-0.5-0.3-0.5-0.3c0-0.1,0.1-0.1,0.2-0.1c0.1,0,0.7,0,0.9,0c0.4,0,0.6,0,0.6-0.9c0-0.2-0.1-3-0.1-3.1c0-0.5,0-0.7-0.3-0.7
			c-0.2,0-0.2,0.1-0.3,0.2c-0.1,0.1-0.2,0.3-0.6,0.3c-0.3,0-0.4-0.1-0.4-0.3c0-0.1,0-0.8,0-0.9c0-0.7,0-2.3,0-3.1
			c0-0.1-0.1-0.8-0.1-0.9c0-0.1,0-0.2,0.1-0.2c0.1,0,0.7,0.3,0.8,0.3c0.3,0,0.3-0.2,0.3-0.3c0-0.5,0.1-0.9,0.1-1
			c0-0.4-0.2-0.4-0.4-0.4h-1c-0.2,0-0.4,0-0.4,0.4c0,0.4,0,2.6,0,3.1c0,2.1-0.1,4.9-1.1,7.5c-0.1,0.3-0.4,1-0.6,1c0,0,0,0,0,0
			c0-0.1,0.1-0.6,0.2-0.7c0.7-3,0.7-5.4,0.7-6.3c0-0.8-0.1-5.1-0.3-5.7c0,0-0.1-0.3-0.1-0.3s0-0.1,0.1-0.1c0.1,0,0.2,0.1,0.8,0.5
			c0.3,0.2,0.4,0.2,0.7,0.2h2.1c0.6,0,0.7,0,0.8-0.1c0.1-0.1,0.4-0.6,0.5-0.6c0.1,0,0.9,0.7,0.9,0.9c0,0.2-0.3,0.2-0.8,0.2H53
			c-0.3,0-0.4,0-0.7,0.7c-0.1,0.1-0.3,0.8-0.3,0.9c0,0.2,0.1,0.2,0.2,0.2H52.8z M51.5,237c0,0.1-0.4,0.3-0.4,0.4
			c-0.6,1-0.7,1.1-1,1.3c-0.2,0.2-0.8,0.9-1,0.9c0,0,0,0,0,0c0-0.1,0.6-1.1,0.7-1.3c0.1-0.2,0.4-0.8,0.5-1.5
			c0.1-0.4,0.1-0.4,0.2-0.4c0.1,0,0.4,0.1,0.6,0.3C51.3,236.7,51.5,236.8,51.5,237z M52.8,232.7c0.5,0,0.5-0.2,0.5-0.7
			c0-0.9,0-1-0.5-1h-1.1c-0.5,0-0.5,0.2-0.5,0.7c0,0.9,0,1,0.5,1H52.8z M51.7,233.1c-0.2,0-0.4,0.1-0.4,0.3v0.9
			c0,0.3,0.1,0.5,0.4,0.5h1c0.4,0,0.5-0.1,0.5-1.1c0-0.3-0.1-0.5-0.4-0.5H51.7z M54.4,239c-0.2,0-0.3-0.1-0.4-0.7
			c-0.1-0.6-0.2-0.7-0.5-1.5c-0.1-0.1-0.1-0.3-0.2-0.4c0,0,0-0.1,0-0.1c0,0,1.5,0.7,1.6,1.8C55,238.6,54.7,239,54.4,239z
			 M58.1,239.4c0,0.1-0.1,0.2-0.2,0.2c-0.3,0-0.4,0-1.3,0.4c-0.1,0-2.5,0.8-2.9,0.8c0,0-0.1,0-0.1,0c0-0.1,1.3-0.8,1.6-0.9
			c0.7-0.4,1.3-0.8,1.5-1.2c0-0.1,0.1-0.2,0.2-0.2s0.1,0,0.6,0.3C58.1,239.2,58.1,239.2,58.1,239.4z M59,230.6c0.4,0,0.4,0,0.5-0.2
			c0.1-0.1,0.3-0.3,0.4-0.3c0,0,1,0.6,1,0.8c0,0.1-0.1,0.1-0.1,0.1c-0.3,0.2-0.3,0.2-0.4,0.4c-0.1,0.2-0.1,1.9-0.1,2.3
			c0,0.7,0,1.2,0,2.2c0,0.3,0.1,1.5,0.1,1.8c0,0.2,0,0.8-0.6,0.8c-0.3,0-0.3-0.1-0.5-0.4c-0.1-0.2-0.3-0.2-0.4-0.2h-2.2
			c-0.3,0-0.3,0.1-0.4,0.4c-0.1,0.3-0.4,0.4-0.7,0.4c-0.2,0-0.3-0.1-0.3-0.4c0-0.1,0-0.5,0-0.6c0.1-1.6,0.1-4.1,0.1-5.9
			c0-0.4,0-0.9-0.1-1.3c0-0.1-0.1-0.4-0.1-0.5c0-0.1,0.1-0.2,0.2-0.2c0.2,0,0.9,0.5,1.1,0.5c0.1,0,0.1-0.1,0.2-0.3
			c0-0.1,0.1-0.9,0.1-1c0-0.2-0.1-0.4-0.3-0.4c-0.2,0-1.2,0.1-1.3,0.1c0,0-0.1,0-0.1-0.1l-0.3-0.3c-0.1-0.1-0.1-0.1-0.1-0.1
			c0,0,0,0,0,0c0.1,0,0.6,0,0.7,0.1c0.4,0,1.2,0,2.1,0h1.2c0.7,0,0.8,0,0.9-0.3c0.4-0.5,0.4-0.5,0.5-0.5c0.2,0,1.1,0.8,1.1,1
			c0,0.2-0.3,0.2-0.8,0.2h-2c-0.4,0-0.5,0-0.7,0.5c0,0.1-0.5,0.9-0.5,1c0,0.2,0.2,0.2,0.4,0.2H59z M59,232.9c0.4,0,0.4-0.3,0.4-0.6
			v-0.8c0-0.3,0-0.6-0.4-0.6h-2.2c-0.4,0-0.4,0.3-0.4,0.5c0,1.4,0,1.4,0.4,1.4H59z M59,235.3c0.4,0,0.4-0.2,0.4-0.5v-1.1
			c0-0.3-0.3-0.3-0.4-0.3h-2.2c-0.4,0-0.4,0.3-0.4,0.5c0,1.4,0,1.4,0.4,1.4H59z M59,237.6c0.4,0,0.4-0.1,0.4-1.5
			c0-0.1,0-0.4-0.4-0.4h-2.2c-0.4,0-0.4,0.3-0.4,0.5c0,1.3,0,1.4,0.4,1.4H59z M60.8,241c-0.3,0-0.5-0.3-1-0.9
			c-0.2-0.2-0.5-0.7-1-1.1c-0.2-0.2-0.3-0.3-0.3-0.3c0,0,0.1,0,0.1,0c0.2,0,1,0.3,1.2,0.4c0.7,0.3,1.3,0.6,1.4,1.3
			C61.3,240.6,61.1,241,60.8,241z"/>
		<path class="st3" d="M51.3,248.8c0,0.1,0,0.2-0.2,0.6c-0.2,0.6-0.4,1.1-0.4,1.9c0,1.5,0.8,2.6,1.2,2.6c0.3,0,0.3-0.1,0.8-0.8
			c0.1-0.1,0.3-0.5,0.5-0.5c0,0,0.1,0.1,0.1,0.1s0,0.3,0,0.3c-0.2,0.7-0.2,0.8-0.2,1.1c0,0.3,0,0.5,0.1,0.6c0,0.2,0.1,0.4,0.1,0.5
			c0,0.3-0.3,0.5-0.6,0.5c-1,0-2.8-1.6-2.8-4.4c0-0.4,0.2-2.3,0.2-2.7c0-0.3-0.1-0.7-0.1-0.9c-0.1-0.4-0.1-0.4-0.1-0.5
			c0,0,0.1-0.1,0.1-0.1C50.6,247.2,51.3,248.4,51.3,248.8z M58.6,249.1c0.8,0.6,1.3,1.7,1.3,2.9c0,0.3,0,1-0.8,1
			c-0.7,0-0.7-0.8-0.7-1c0-1.2,0-1.9-0.8-2.7c-0.1-0.1-0.7-0.6-0.7-0.7c0,0,0.1-0.1,0.1-0.1C57.1,248.6,58,248.6,58.6,249.1z"/>
		<path class="st3" d="M54.6,262.3c0,0-0.1-0.2-0.1-0.2c0-0.1,0.3-0.1,0.4-0.1c0.4,0,1.2,0.4,1.2,0.7c0,0.1-0.3,0.7-0.4,0.8
			c-0.1,0.2-0.2,0.8-0.2,1c0,0,0,0.1,0.1,0.1c0,0,0.1,0,0.4-0.1c0.1,0,0.3-0.1,0.5-0.1c0.1,0,0.4,0,0.4,0.3c0,0.6-1,0.9-1.4,1
			c-0.1,0-0.1,0-0.2,0.3c0,0-0.1,0.8-0.1,1.5c0,0.3,0,0.4,0.2,0.4c0.2,0,1.2-0.3,1.2-0.8c0,0-0.1-0.2-0.1-0.3s0,0,0.1,0
			c0.1,0,0.4,0.1,0.5,0.1c0.6,0,1,0.1,1,0.4c0,0.5-1.7,1.2-2.4,1.4c-0.5,0.2-0.5,0.2-0.5,0.3c0,0.3,0.2,2,0.2,2.2
			c0.1,0.5,0.1,0.6,0.4,0.7c1.2,0.5,2.1,1.3,2.1,2c0,0.4-0.3,0.6-0.5,0.6c-0.2,0-0.3-0.1-0.8-0.7c-0.3-0.4-0.9-0.8-1-0.8
			c-0.1,0-0.1,0.1-0.2,0.2c-0.3,0.7-1.3,1.5-2.5,1.5c-1.4,0-1.9-1-1.9-1.6c0-0.9,0.9-1.6,2.7-1.6c0.1,0,0.7,0,0.8,0
			c0.2,0,0.2,0,0.2-0.6c0-0.3,0-1.3,0-1.7c0-0.1,0-0.2-0.1-0.2c-0.2,0-1.1,0.1-1.3,0.1c-0.3,0-1.4,0-2.1-0.6
			c-0.2-0.2-0.4-0.6-0.4-0.7c0,0,0-0.1,0-0.1c0.1,0,0.5,0.2,0.6,0.2c0.7,0.2,1.3,0.3,1.8,0.3c0.4,0,1.4,0,1.5-0.3c0,0,0.1-2,0.1-2
			c0-0.1-0.1-0.1-0.3-0.1c-1.1-0.1-2-0.8-2-1.4c0,0,0-0.1,0.1-0.1c0,0,0.4,0.2,0.4,0.2c0.7,0.4,1.2,0.4,1.5,0.4
			c0.3,0,0.5-0.1,0.5-0.2c0-0.1,0.1-1,0.1-1.3C54.9,262.9,54.7,262.5,54.6,262.3z M53.1,272c0,0-1.6,0-1.6,0.9
			c0,0.6,0.8,0.8,1.2,0.8c0.5,0,1.1-0.2,1.5-0.6c0.3-0.2,0.4-0.6,0.3-0.7C54.4,272,53.4,272,53.1,272z"/>
		<path class="st3" d="M49.8,282.8c1,0,3-0.3,4.1-0.5c0.8-0.1,0.9-0.1,0.9-0.5c0-0.7-0.1-1.6-0.2-2c0-0.1-0.3-0.3-0.3-0.4
			c0-0.1,0.2-0.1,0.3-0.1c0.7,0,1.2,0.3,1.2,0.8c0,0.1-0.1,0.4-0.1,0.5c0,0.3,0.4,0.6,1.3,0.9c0.4,0.1,0.8,0.3,1.3,0.3
			c0.2,0,0.8-0.1,0.9-0.1c0.2,0,0.9,0.1,0.9,0.6c0,0.4-0.3,0.5-0.8,0.5c-0.3,0-1.7-0.1-2-0.1c-0.4,0-1.3,0-1.6,0.1
			c-0.2,0.1-0.2,0.3-0.2,1.6c0,0.4,0,0.5,0.2,1c0.3,0.6,0.4,1.1,0.4,2c0,2.9-2.3,4.8-2.7,4.8c0,0-0.1,0-0.1-0.1c0,0,0.6-0.8,0.7-0.9
			c0.4-0.6,0.8-1.6,0.8-2.2c0,0,0-0.2-0.2-0.2c0,0-0.3,0-0.3,0c-0.8,0-1.5-0.8-1.5-2c0-0.2,0-1.8,1.5-2.1c0.4-0.1,0.4-0.1,0.4-0.9
			c0-0.8,0-0.9-0.3-0.9c-0.1,0-1.7,0.3-2.7,0.6c-0.3,0.1-1.3,0.6-1.6,0.6c-0.3,0-1.6-0.6-1.6-1.2c0-0.1,0-0.1,0.1-0.1
			C48.9,282.7,49.6,282.8,49.8,282.8z M54.2,285.3c-0.4,0-0.9,0.6-0.9,1.4c0,0.8,0.6,1.2,1,1.2c0.6,0,0.6-0.9,0.6-1.1
			c0-0.5-0.1-0.9-0.2-1C54.7,285.6,54.5,285.3,54.2,285.3z M55.6,281.7c0,0.2,0.1,0.3,0.3,0.3c0.1,0,1,0,1-0.3c0-0.1-1-0.8-1.1-0.8
			C55.7,281,55.6,281.3,55.6,281.7z"/>
	</g>
	<g>
		<g>
			<path class="st3" d="M126.1,44.4c0,0.9-2,1.6-2.6,1.9c-0.4,0.1-0.4,0.2-0.4,1.1c-0.1,0.6-0.1,2.7-0.1,2.8c0,0.2,0,0.5,0.2,0.5
				c0.1,0,2.2-0.9,2.6-1c2.6-1,3.7-1,4.4-1c1.9,0,4,1.5,4,3.9c0,3.4-3.6,5-5.7,5c-1.5,0-2.7-0.8-2.7-2.1c0-1.2,1.1-2.1,1.3-2.1
				c0.1,0,0.1,0.1,0.1,0.1c0,0.1-0.1,0.1-0.1,0.2c-0.1,0.1-0.2,0.3-0.2,0.7c0,1.2,1.4,1.2,1.7,1.2c1.7,0,3.9-1.1,3.9-3.2
				c0-1.8-1.4-2.9-2.5-2.9c-0.7,0-2.3,0.3-5.4,2c-1.5,0.8-1.6,0.9-1.6,1.3c0,0.3,0.1,1.5,0.1,1.7c0,1.2-0.4,2.9-1.3,2.9
				c-0.7,0-1-0.5-1.2-1c-0.8-1.6-1-1.6-1.3-1.6c-0.2,0-0.5,0.1-0.7,0.2c-0.2,0.1-0.8,0.5-1,0.5c-0.3,0-1.6-0.8-1.6-1.6
				c0-0.5,0.3-1,0.8-1c0.2,0,0.9,0.1,1.1,0.1c0.7,0,1.2-0.1,2.7-0.9c1.3-0.7,1.5-0.7,1.5-1.5c0-0.6,0-2.8-0.1-3.3
				c0-0.2-0.1-0.6-0.4-0.6c-0.3,0-1,0.2-1.2,0.2c-1.3,0.4-1.5,0.5-1.8,0.5c-0.9,0-1.9-1.8-1.9-2c0-0.1,0.1-0.2,0.2-0.2
				c0.1,0,0.4,0.1,0.5,0.1c0.5,0.1,0.9,0.1,1.2,0.1c0.9,0,3.1-0.6,3.3-0.8c0.1-0.2,0.3-2.5,0.3-2.8c0-0.8-0.1-1.3-0.9-2.1
				c-0.1-0.1-0.4-0.4-0.4-0.4c0-0.2,0.4-0.3,0.6-0.3c1.7,0,2.7,1.3,2.7,1.8c0,0.2-0.5,1.2-0.5,1.4c0,0.2-0.3,1.2-0.3,1.7
				c0,0.1,0.1,0.3,0.2,0.3c0.2,0,0.9-0.3,0.9-0.6c0-0.1-0.1-0.3-0.1-0.4c0,0,0.1-0.1,0.1-0.1C124.9,43.2,126.1,43.6,126.1,44.4z
				 M120.2,54.3c0,0.4,0.7,1.2,1.1,1.2c0.4,0,0.7-0.7,0.7-2c0-0.1,0-0.4-0.1-0.4C121.9,53.1,120.2,54,120.2,54.3z M137.3,46.2
				c0,0.5-0.3,1.2-0.9,1.2c-0.2,0-0.8-0.1-0.9-0.1c-0.1,0-0.7,0.2-0.8,0.2c-0.1,0-0.1,0-0.1-0.1c0-0.1,0.1-0.2,0.1-0.2
				c0.1-0.2,0.1-0.3,0.1-0.5c0-1-1.3-1.4-2.2-1.4c-0.4,0-0.6,0.1-1,0.3c-0.1,0.1-0.2,0.1-0.3,0.1c-0.1,0-0.1,0-0.1-0.1
				c0-0.2,1.1-1.6,2.8-1.6C136.1,44,137.3,45,137.3,46.2z"/>
			<path class="st3" d="M124.3,74.3c0.2,0,0.8,0,0.8-0.8c0-1.1,0-1.4-0.2-2c0-0.1-0.2-0.6-0.2-0.7c0-0.2,0.3-0.2,0.4-0.2
				c0.5,0,2.5,0.6,2.5,1.1c0,0.2-0.4,0.7-0.5,0.8c-0.1,0.1-0.1,0.3-0.1,0.7c0,0.7,0,1.1,0.8,1.1h0.9c0.2,0,0.6,0,1-0.3
				c0.1-0.1,0.6-0.6,0.8-0.6c0.2,0,1.8,0.9,1.8,1.3c0,0.2-0.6,0.7-0.7,0.8c-0.2,0.3-0.2,0.8-0.2,1.5c0,0.7,0.1,3.6,0.1,4.2
				c0,1-0.5,2-1.5,2c-0.6,0-0.6-0.3-0.6-0.8c0-0.3-0.3-0.3-0.7-0.3h-2.2c-0.1,0-0.3,0-0.3,0.2c0,0.4,2.6,2.7,2.9,2.7
				c0.3,0,2.7-1.7,3.5-2.5c0.1-0.1,0.2-0.2,0.4-0.2c0.1,0,1.8,1.6,1.8,1.8c0,0.2-0.4,0.2-0.6,0.3c-0.9,0.1-4.2,0.9-4.2,1.2
				c0,0.4,3.8,2.1,6.4,2.4c0.8,0.1,1,0.1,1,0.3c0,0.1-0.3,0.2-0.4,0.3c-0.9,0.3-1.4,0.8-1.6,1.1c-0.3,0.3-0.3,0.4-0.5,0.4
				c-0.4,0-4-1.9-5.9-3.3c-0.4-0.3-0.5-0.4-0.7-0.4c-0.3,0-3.7,1.2-4.4,1.5c-0.6,0.2-4.9,1.6-5.1,1.7c-0.1,0.1-0.6,0.5-0.8,0.5
				c-0.2,0-0.3-0.1-0.8-1.1c-0.1-0.2-0.6-1-0.6-1.1c0-0.2,0.3-0.2,0.5-0.2c0.9,0,1.2-0.1,2.4-0.3c0.7-0.1,0.7-0.8,0.7-1.3
				c0-0.9,0.1-6.9,0.1-8.2c0-0.6,0-4.1-0.4-4.1c-0.1,0-4.3,2.4-5.2,2.4c-0.1,0-0.3-0.1-0.3-0.1c0-0.2,0.4-0.3,0.5-0.4
				c1-0.5,7.2-4.6,9.5-8.8c0.1-0.1,0.3-0.7,0.4-0.8c0-0.1,0.1-0.1,0.2-0.1c0.1,0,2.5,1,2.5,1.4c0,0.1-0.2,0.2-0.2,0.3
				c0,0.2,2.2,2.3,4.3,3.4c2.2,1.2,5.7,2.2,6.4,2.3c0.1,0,0.3,0.1,0.3,0.2c0,0.1-0.2,0.2-0.4,0.3c-0.6,0.3-0.8,0.5-1.5,1.1
				c-0.3,0.3-0.3,0.3-0.4,0.3c-0.6,0-5.6-2.6-8.6-6.5c-0.5-0.6-0.5-0.7-0.7-0.7c-0.3,0-0.3,0-1.1,0.8c-0.2,0.2-2.3,2.2-3.8,3.4
				c-0.2,0.2-0.9,0.7-0.9,0.8c0,0.1,1,1.1,2,1.1H124.3z M128.8,81.5c0.7,0,0.8-0.1,0.8-2.1c0-0.5,0-1-0.8-1h-6c-0.8,0-0.8,0.3-0.8,2
				c0,0.6,0,1.1,0.8,1.1H128.8z M128.9,77.8c0.4,0,0.8-0.2,0.8-0.7v-1.4c0-0.7-0.6-0.7-0.8-0.7h-6c-0.8,0-0.8,0.2-0.8,2.1
				c0,0.7,0.6,0.7,0.8,0.7H128.9z M122.9,82.2c-0.4,0-0.7,0.1-0.8,0.5c0,0.1,0,2.9,0,3.3c0,0.4,0,0.8,0.6,0.8c0.4,0,3.8-0.8,4.6-1
				c0.1,0,0.5-0.1,0.5-0.3c0-0.1-0.3-0.4-0.4-0.5c-0.2-0.2-1.1-1.3-1.7-2.4c-0.3-0.5-0.4-0.5-0.9-0.5H122.9z"/>
			<path class="st3" d="M120.6,103.5c0,0.2-0.1,0.3-0.3,1c-0.4,1-0.6,2-0.6,3.4c0,2.6,1.4,4.5,2.2,4.5c0.4,0,0.5-0.1,1.3-1.4
				c0.2-0.3,0.6-0.9,0.8-0.9c0.1,0,0.1,0.1,0.1,0.2s-0.1,0.4-0.1,0.5c-0.3,1.2-0.3,1.4-0.3,2c0,0.4,0.1,0.8,0.2,1
				c0.1,0.3,0.2,0.7,0.2,0.9c0,0.5-0.5,0.8-1,0.8c-1.7,0-4.9-2.7-4.9-7.7c0-0.7,0.4-3.9,0.4-4.6c0-0.5-0.1-1.2-0.2-1.5
				c-0.2-0.6-0.2-0.7-0.2-0.9c0-0.1,0.1-0.1,0.2-0.1C119.4,100.7,120.6,102.8,120.6,103.5z M133.3,104.1c1.3,1.1,2.3,2.9,2.3,5
				c0,0.5-0.1,1.7-1.3,1.7c-1.3,0-1.3-1.4-1.3-1.7c0-2.2,0-3.3-1.4-4.6c-0.2-0.2-1.2-1-1.2-1.2c0-0.1,0.1-0.1,0.2-0.1
				C130.7,103.1,132.2,103.2,133.3,104.1z"/>
			<path class="st3" d="M119.3,131.7c-2.3,0-3,0.1-3.3,0.1c-0.1,0-0.4,0.1-0.5,0.1c-0.1,0-0.2-0.1-0.2-0.2l-0.5-0.6
				c-0.1-0.1-0.1-0.1-0.1-0.2c0-0.1,0.1-0.1,0.1-0.1c0.2,0,2.4,0.2,2.9,0.2c0.3,0,0.6-0.1,0.7-0.3c0.1-0.3,0.2-2.2,0.2-2.4
				c0-0.6-0.1-1.3-0.4-1.9c0-0.1-0.1-0.2-0.1-0.3c0-0.2,0.2-0.3,0.4-0.3c0.2,0,2.4,0.4,2.4,0.8c0,0.2-0.1,0.3-0.3,0.4
				c-0.2,0.2-0.3,0.3-0.3,0.7c0,2.7,0,2.9,0.1,3.1c0.2,0.3,0.5,0.3,1,0.3c0.2,0,0.4,0,0.8-0.5c0.3-0.4,0.5-0.6,0.7-0.6
				c0.2,0,1.7,1.1,1.7,1.5c0,0.2-0.1,0.2-0.6,0.4c-0.5,0.2-0.6,0.3-1.6,1.7c-0.2,0.2-0.6,0.9-1.3,1.7c-0.3,0.4-0.3,0.4-0.3,0.5
				c0,0.1,0.2,0.5,0.2,0.6c0,0.1-0.4,0.6-0.4,0.7c0,0.2-0.1,0.4-0.1,1.2c0,0.1,0,0.4,0.2,0.4c0.5,0,2.5-2.7,2.8-3.4
				c0.1-0.3,0.2-0.3,0.3-0.3c0.3,0,1.4,1.2,1.4,1.4s-0.2,0.3-0.6,0.4c-0.2,0.1-0.5,0.2-2.5,1.6c-0.5,0.3-0.5,0.4-0.5,0.5
				c0,0.1,0.2,0.2,0.5,0.3c0.6,0.2,2.4,1,2.4,2.5c0,0.5-0.4,0.9-0.9,0.9c-0.4,0-0.5-0.1-0.9-0.8c-0.1-0.2-1.5-2.3-2.1-2.3
				c-0.2,0-0.3,0.1-0.3,0.4c0,1-0.1,5.4-0.1,6.2c0,0.3,0.1,1.6,0.1,1.8c0,0.5,0,1.4-1.2,1.4c-0.5,0-0.7-0.1-0.7-0.9
				c0-0.6,0.2-5.1,0.2-5.8c0-1.1,0.1-2.9,0.1-4.1c0-0.1,0-0.4-0.3-0.4c-0.1,0-0.6,0.4-0.9,0.6c-1,0.7-3.1,1.8-3.3,1.8
				c0,0-0.1,0-0.1-0.1c0-0.1,0.3-0.4,0.5-0.5c1.3-1.1,3.3-2.9,5.8-6.3c0.7-1,0.8-1.1,0.8-1.4c0-0.3-0.3-0.3-0.6-0.3H119.3z
				 M134.2,128.4c0.3,0,0.5-0.1,0.7-0.3c0.4-0.7,0.5-0.8,0.7-0.8c0.1,0,2,1.2,2,1.7c0,0.1-0.5,0.7-0.5,0.8c-0.2,0.4-0.2,0.8-0.3,2.5
				c-0.1,2.2-0.2,8.3-1.2,12.9c-0.6,2.7-1.8,3.8-3,3.8c-0.7,0-0.9-0.3-1-0.7c-0.1-0.4-0.3-0.9-1-1.4c-0.1-0.1-0.8-0.3-0.8-0.5
				c0-0.1,0.1-0.1,0.2-0.1c0.1,0,0.3,0.1,0.5,0.1c1.1,0.2,1.5,0.3,1.9,0.3c0.7,0,1.3,0,2-4.9c0.3-2.4,0.7-5.2,0.7-11.9
				c0-0.6-0.2-0.8-0.8-0.8h-2.9c-0.9,0-1,0.2-1,1.5c-0.1,4.2-0.2,8.2-1.6,11.9c-1.7,4.7-5.5,6.2-5.7,6.2c0,0-0.1,0-0.1-0.1
				c0-0.1,1.6-1.8,1.9-2.2c1.2-1.6,3.6-4.7,3.7-13.3c0-0.5-0.1-2.8-0.1-3.3s-0.1-0.8-0.9-0.8c-0.3,0-1.8,0.1-2,0.1
				c-0.1,0-0.2-0.1-0.2-0.2l-0.5-0.6c-0.1-0.1-0.1-0.1-0.1-0.2s0.1-0.1,0.1-0.1c0.2,0,1,0.1,1.1,0.1c0.8,0,2.1,0.1,3.6,0.1H134.2z"
				/>
			<path class="st3" d="M125.5,176.9c-0.4,0-0.5,0-0.5-0.1c0-0.1,0.1-0.1,0.8-0.3c3.4-1.1,8.2-3.4,8.2-8.1c0-4.1-3.9-5.3-5-5.3
				c-0.4,0-0.4,0.2-1.1,1.7c-0.8,1.8-1.2,2.5-2,3.7c-0.1,0.2-0.1,0.3-0.1,0.4c0,0.3,0.2,0.4,0.4,0.5c0.9,0.5,1.2,0.7,1.2,1.3
				c0,0.7-0.5,0.8-1,0.8c-0.6,0-0.9-0.1-1.5-0.4c-0.4-0.2-0.4-0.2-0.5-0.2c-0.3,0-0.3,0.1-0.8,0.5c-2.1,2.2-3.8,2.9-4.5,2.9
				c-1.7,0-2-2.7-2-3.7c0-2.7,1.6-4.8,2.7-5.9c0.2-0.2,0.3-0.4,0.3-0.7c0-0.2-1-3.4-1.2-3.7c-0.1-0.2-0.5-1.1-0.5-1.2
				c0,0,0-0.1,0.1-0.1c0.8,0,2,0.9,2.1,1.4c0.3,1.7,0.6,2.4,0.7,2.6c0.1,0.2,0.3,0.3,0.5,0.3s1.1-0.5,1.2-0.5
				c1.5-0.6,2.8-0.8,4.1-0.9c0.2,0,0.5-0.1,0.7-0.3c0.2-0.3,0.4-1.4,0.4-1.9c0-0.1,0-1-0.5-2.2c0-0.1-0.1-0.1-0.1-0.1
				c0-0.1,0.2-0.1,0.3-0.1c1.2,0,2.6,1,2.6,1.6c0,0.1-0.9,2.2-0.9,2.7c0,0.4,0.3,0.5,0.5,0.5c3.6,0.6,6.2,3.2,6.2,6.7
				C135.9,174.1,130.1,176.9,125.5,176.9z M122.6,169.3c-0.8-0.9-1.5-2.1-1.8-3c-0.1-0.4-0.2-0.6-0.5-0.6c-0.3,0-2.1,1.8-2.1,4.4
				c0,1.4,0.5,2.3,1.1,2.3c1,0,3.4-2.1,3.4-2.7C122.8,169.5,122.7,169.4,122.6,169.3z M126.5,162.9c-1.7,0-3.1,0.5-4,1
				c-0.4,0.3-0.7,0.4-0.7,0.8c0,0.4,1.5,3.3,2.2,3.3c0.3,0,0.4-0.1,0.9-0.9c1.4-2.3,1.9-3.7,1.9-3.8
				C126.9,162.9,126.6,162.9,126.5,162.9z"/>
			<path class="st3" d="M126.4,189.4c0,0.1,0.1,0.2,0.1,0.3c0.1,0.8,0.3,1.7,0.3,2.8c0,1.7-0.4,4.2-2.7,7.6
				c-2.1,3.2-3.4,3.8-4.4,3.8c-1.7,0-3.3-2.7-3.3-5.9c0-1.4,0.3-4,2.9-6.6c3.3-3.4,6.8-3.4,8.3-3.4c2.4,0,3.5,0.5,4.2,0.8
				c2.8,1.4,4.5,4.2,4.5,7.6c0,3.4-2,7.5-6.6,9.2c-2.2,0.8-3.9,1-4.3,1c-0.1,0-0.3,0-0.3-0.2c0-0.1,0.1-0.1,0.7-0.4
				c2.7-1.1,8.3-3.3,8.3-9.8c0-1-0.1-7.2-7.2-7.2C126.4,189,126.4,189.2,126.4,189.4z M117.9,197.4c0,1.7,0.7,4,2.3,4
				c0.8,0,1.4-0.3,3.2-3c1.4-2.1,2.5-5,2.5-7.6c0-1.6-0.1-1.7-0.4-1.7C123,189.1,117.9,192.5,117.9,197.4z"/>
			<path class="st3" d="M126.1,222.2c0,0.9-2,1.6-2.6,1.9c-0.4,0.1-0.4,0.2-0.4,1.1c-0.1,0.6-0.1,2.7-0.1,2.8c0,0.2,0,0.5,0.2,0.5
				c0.1,0,2.2-0.9,2.6-1c2.6-1,3.7-1,4.4-1c1.9,0,4,1.5,4,3.9c0,3.4-3.6,5-5.7,5c-1.5,0-2.7-0.8-2.7-2.1c0-1.2,1.1-2.1,1.3-2.1
				c0.1,0,0.1,0.1,0.1,0.1c0,0.1-0.1,0.1-0.1,0.2c-0.1,0.1-0.2,0.3-0.2,0.7c0,1.2,1.4,1.2,1.7,1.2c1.7,0,3.9-1.1,3.9-3.2
				c0-1.8-1.4-2.9-2.5-2.9c-0.7,0-2.3,0.3-5.4,2c-1.5,0.8-1.6,0.9-1.6,1.3c0,0.3,0.1,1.5,0.1,1.7c0,1.2-0.4,2.9-1.3,2.9
				c-0.7,0-1-0.5-1.2-1c-0.8-1.6-1-1.6-1.3-1.6c-0.2,0-0.5,0.1-0.7,0.2c-0.2,0.1-0.8,0.5-1,0.5c-0.3,0-1.6-0.8-1.6-1.6
				c0-0.5,0.3-1,0.8-1c0.2,0,0.9,0.1,1.1,0.1c0.7,0,1.2-0.1,2.7-0.9c1.3-0.7,1.5-0.7,1.5-1.5c0-0.6,0-2.8-0.1-3.3
				c0-0.2-0.1-0.6-0.4-0.6c-0.3,0-1,0.2-1.2,0.2c-1.3,0.4-1.5,0.5-1.8,0.5c-0.9,0-1.9-1.8-1.9-2c0-0.1,0.1-0.2,0.2-0.2
				c0.1,0,0.4,0.1,0.5,0.1c0.5,0.1,0.9,0.1,1.2,0.1c0.9,0,3.1-0.6,3.3-0.8c0.1-0.2,0.3-2.5,0.3-2.8c0-0.8-0.1-1.3-0.9-2.1
				c-0.1-0.1-0.4-0.4-0.4-0.4c0-0.2,0.4-0.3,0.6-0.3c1.7,0,2.7,1.3,2.7,1.8c0,0.2-0.5,1.2-0.5,1.4c0,0.2-0.3,1.2-0.3,1.7
				c0,0.1,0.1,0.3,0.2,0.3c0.2,0,0.9-0.3,0.9-0.6c0-0.1-0.1-0.3-0.1-0.4c0,0,0.1-0.1,0.1-0.1C124.9,221,126.1,221.4,126.1,222.2z
				 M120.2,232.2c0,0.4,0.7,1.2,1.1,1.2c0.4,0,0.7-0.7,0.7-2c0-0.1,0-0.4-0.1-0.4C121.9,231,120.2,231.8,120.2,232.2z M137.3,224.1
				c0,0.5-0.3,1.2-0.9,1.2c-0.2,0-0.8-0.1-0.9-0.1c-0.1,0-0.7,0.2-0.8,0.2c-0.1,0-0.1,0-0.1-0.1c0-0.1,0.1-0.2,0.1-0.2
				c0.1-0.2,0.1-0.3,0.1-0.5c0-1-1.3-1.4-2.2-1.4c-0.4,0-0.6,0.1-1,0.3c-0.1,0.1-0.2,0.1-0.3,0.1c-0.1,0-0.1,0-0.1-0.1
				c0-0.2,1.1-1.6,2.8-1.6C136.1,221.8,137.3,222.9,137.3,224.1z"/>
			<path class="st3" d="M119.3,249.9c-0.6,0-2.4,0-3.3,0.1c-0.1,0-0.5,0.1-0.5,0.1c-0.1,0-0.1-0.1-0.2-0.2l-0.5-0.6
				c-0.1-0.1-0.1-0.1-0.1-0.2c0-0.1,0-0.1,0.1-0.1c0.5,0,2.5,0.2,2.9,0.2c0.8,0,0.8-0.3,0.8-1.7c0-0.2-0.1-1.7-0.1-2.1
				c0-0.2-0.2-0.8-0.2-0.9c0-0.2,0.2-0.2,0.3-0.2c0.2,0,2.3,0.5,2.3,1c0,0.2-0.1,0.2-0.4,0.5c-0.2,0.2-0.3,0.5-0.3,1.6
				c0,0.2,0,0.8,0,1c0,0.2,0,0.8,0.6,0.8c0.5,0,0.6,0,0.8-0.2c0.4-0.4,0.8-0.7,0.9-0.7c0.2,0,1.5,1.2,1.5,1.6c0,0.4-0.3,0.5-0.8,0.7
				c-0.4,0.2-2,2-2.7,2.9c-0.5,0.6-0.6,0.8-0.6,1.3c0,0.5,0,0.6,0.8,0.8c2.3,0.7,3.3,1.9,3.3,2.9c0,0.5-0.3,1-0.8,1
				c-0.5,0-0.5-0.1-1.2-1.3c0-0.1-1.3-2.2-1.8-2.2c-0.3,0-0.3,0.1-0.3,2.1c0,1.3,0.1,7,0.1,8.2c0,0.4-0.1,1.4-1.1,1.4
				c-0.8,0-0.8-0.5-0.8-0.9c0-0.2,0.2-2,0.2-2.4c0-1,0.1-2.8,0.1-4.8v-2.9c0-0.2,0-0.5-0.2-0.5c-0.1,0-3.1,2.7-3.5,2.7
				c-0.2,0,0.4-0.6,0.5-0.8c4.2-4.7,5.8-7.5,5.8-7.9s-0.4-0.3-0.6-0.3H119.3z M129.6,256.9c0,0.2-0.5,0.6-0.5,0.8
				c-0.1,0.2-0.6,2.9-0.8,3.4c-1.6,5.2-6.6,6.2-6.7,6.2c-0.1,0-0.2,0-0.2-0.1c0-0.1,0.7-0.5,0.8-0.5c3.4-2.1,4.2-4.3,4.6-5.6
				c0.3-1.1,0.5-3.2,0.5-4.1c0-0.2-0.2-0.9-0.2-1c0-0.2,0.2-0.2,0.2-0.2c0.2,0,1,0.4,1.2,0.4C129.3,256.6,129.6,256.8,129.6,256.9z
				 M127.8,255c-0.2,0-0.4,0-0.6,0.4c-0.2,0.6-0.5,1.2-1.4,1.2c-0.6,0-0.6-0.4-0.6-0.7c0-0.2,0.1-0.9,0.1-1c0.1-1.1,0.1-3.8,0.1-4.5
				c0-1.5-0.1-3.1-0.2-3.8c0-0.1-0.1-0.6-0.1-0.8c0-0.3,0.2-0.3,0.3-0.3c0.2,0,0.3,0.1,1.4,0.7c0.5,0.3,0.6,0.3,1.2,0.3h5.8
				c0.4,0,0.6,0,0.8-0.3c0.4-0.7,0.5-0.8,0.8-0.8c0.3,0,1.9,1.3,1.9,1.7c0,0.2-0.1,0.3-0.2,0.4c-0.5,0.3-0.5,0.4-0.6,0.6v2.5
				c0,0.6,0.1,3.6,0.1,4.3c0,0.5,0,1.4-1.3,1.4c-0.5,0-0.5-0.2-0.6-0.6c-0.1-0.4-0.4-0.4-0.7-0.4c-0.6,0-1,0-1,0.7
				c-0.1,0.4,0,1.9,0,7.7c0,1.5,0.1,2.1,1.6,2.1c1.5,0,2.1-0.5,2.5-2.9c0-0.2,0.2-1.3,0.4-1.3c0.1,0,0.1,0.4,0.1,0.5
				c0,0.4,0.1,1.5,0.3,2c0.1,0.2,0.8,1.2,0.8,1.5c0,0.2-0.3,0.9-1,1.3c-0.3,0.2-1,0.5-3,0.5c-3.2,0-3.3-1.5-3.3-3.2
				c0-1.2,0.1-6.9,0.1-8.2c0-0.2,0-0.8-0.7-0.8H127.8z M128,247.1c-0.6,0-0.9,0.1-0.9,0.9v5.5c0,0.8,0.4,0.9,1,0.9h5.6
				c0.8,0,1-0.3,1-1c0-0.1,0-5.3,0-5.4c0-0.8-0.4-0.9-0.9-0.9H128z"/>
			<path class="st3" d="M120.6,281.3c0,0.2-0.1,0.3-0.3,1c-0.4,1-0.6,2-0.6,3.4c0,2.6,1.4,4.5,2.2,4.5c0.4,0,0.5-0.1,1.3-1.4
				c0.2-0.3,0.6-0.9,0.8-0.9c0.1,0,0.1,0.1,0.1,0.2s-0.1,0.4-0.1,0.5c-0.3,1.2-0.3,1.4-0.3,2c0,0.4,0.1,0.8,0.2,1
				c0.1,0.3,0.2,0.7,0.2,0.9c0,0.5-0.5,0.8-1,0.8c-1.7,0-4.9-2.7-4.9-7.7c0-0.7,0.4-3.9,0.4-4.6c0-0.5-0.1-1.2-0.2-1.5
				c-0.2-0.6-0.2-0.7-0.2-0.9c0-0.1,0.1-0.1,0.2-0.1C119.4,278.5,120.6,280.6,120.6,281.3z M133.3,281.9c1.3,1.1,2.3,2.9,2.3,5
				c0,0.5-0.1,1.7-1.3,1.7c-1.3,0-1.3-1.4-1.3-1.7c0-2.2,0-3.3-1.4-4.6c-0.2-0.2-1.2-1-1.2-1.2c0-0.1,0.1-0.1,0.2-0.1
				C130.7,280.9,132.2,281,133.3,281.9z"/>
		</g>
		<g>
			<path class="st4" d="M109.3,45.7c0,0.1,0,0.3-0.2,0.3c-0.2,0-0.2-0.2-0.2-0.5c0-0.2,0-0.6-0.6-0.6c-0.1,0-0.3,0-0.3,0.1
				c-0.5,0.1-3.7,1.1-4.6,1.4c-0.5,0.2-0.6,0.2-0.6,0.3c0,0.1,0.1,0.1,0.1,0.1c0.2,0.1,4.7,1.3,5.1,1.4c0.1,0,0.3,0.1,0.4,0.1
				c0.5,0,0.6-0.6,0.6-0.8c0-0.5,0-0.5,0.2-0.5c0.2,0,0.2,0.2,0.2,0.3v2.6c0,0.1,0,0.3-0.2,0.3c-0.2,0-0.2-0.1-0.2-0.5
				c-0.1-0.8-0.6-0.9-1.8-1.3c-1.7-0.5-4.5-1.2-6.2-1.7c-0.4-0.1-0.5-0.1-0.5-0.3s0.1-0.2,0.8-0.4c0.8-0.2,4.5-1.3,5.3-1.6
				c0.5-0.2,0.6-0.2,0.6-0.2c0-0.1-0.1-0.1-0.3-0.2c-1.5-0.5-3.8-1.2-5.3-1.7c-0.5-0.2-1-0.3-1-0.5c0-0.1,0.2-0.2,0.3-0.2
				c0.5-0.1,3.1-0.8,3.7-1c4.5-1.2,4.5-1.3,4.5-2.1c0-0.2,0-0.4,0.2-0.4c0.1,0,0.2,0.1,0.2,0.3v3.1c0,0.1,0,0.4-0.2,0.4
				c-0.2,0-0.2-0.1-0.2-0.5c0-0.3-0.1-0.7-0.6-0.7c-0.1,0-0.2,0-0.5,0.1c-0.7,0.2-4,1.1-4.7,1.3c0,0-0.4,0.1-0.4,0.2
				c0,0.1,0.2,0.2,0.2,0.2c0.5,0.2,4.4,1.5,5,1.5c0.3,0,0.6-0.1,0.8-0.4c0.1-0.2,0.1-0.4,0.1-0.6c0-0.2,0-0.4,0.2-0.4
				c0.2,0,0.2,0.2,0.2,0.3V45.7z"/>
			<path class="st4" d="M103.7,53.8c0-0.2,0-0.4-0.4-0.4c-1.5,0-2.5,1.1-2.5,2.1c0,0.6,0.3,1.2,0.7,1.5c0.1,0.1,0.5,0.4,0.5,0.5
				c0,0.1-0.1,0.1-0.2,0.1c-0.3,0-1.5-0.9-1.5-2.6c0-1.8,1.3-2.8,3.1-2.8c2,0,3,1.3,3,2.7c0,2-2,2.5-2.5,2.5c-0.2,0-0.3-0.1-0.3-0.4
				V53.8z M104.1,56.1c0,0.3,0.1,0.4,0.3,0.4c0.5,0,1.7-0.5,1.7-1.5c0-1.2-1.5-1.6-1.8-1.6s-0.3,0.2-0.3,0.3V56.1z"/>
			<path class="st4" d="M104.9,64.6c-0.4,0-2.4,0-2.8,0c-0.6,0-1.1,0-1.1,0.5c0,0.1,0.1,0.3,0.1,0.4c0,0,0.1,0.1,0.1,0.1
				c0,0,0,0.1-0.1,0.1c-0.2,0-0.7-0.5-0.7-1.1c0-0.4,0.3-0.7,0.5-0.8c0.1,0,0.2-0.1,0.2-0.2c0-0.1-0.1-0.2-0.2-0.3
				c-0.4-0.5-0.6-1.1-0.6-1.7c0-0.8,0.4-1.6,1.3-1.6c1.4,0,2,2.2,2.2,2.9c0.2,0.8,0.2,0.8,0.9,0.8c1,0,1.4-0.6,1.4-1.2
				c0-0.8-0.6-1-0.7-1c-0.4-0.1-0.8-0.2-0.8-0.7c0-0.3,0.3-0.6,0.6-0.6c0.7,0,1.3,1.2,1.3,2.3C106.5,63.5,106.1,64.6,104.9,64.6z
				 M101.6,63.6c0.1,0.1,0.2,0.1,1.6,0.1c0.2,0,0.4,0,0.4-0.3c0-0.5-0.8-2.4-1.9-2.4c-0.3,0-0.9,0.2-0.9,1.1
				C100.9,62.6,101.2,63.4,101.6,63.6z"/>
			<path class="st4" d="M100.6,71.3c0-0.2,0.2-0.2,0.2-0.2c0.2,0,0.2,0.2,0.2,0.2c0,0.3,0,0.5,0.3,0.6c0.2,0.1,0.4,0.1,2.3,0.1
				c1.1,0,1.6,0,2-0.3c0.4-0.3,0.4-0.7,0.4-0.8c0-0.4-0.2-0.9-0.5-1.3c-0.4-0.4-0.6-0.4-1.9-0.4c-0.3,0-1.8,0-2,0
				c-0.4,0.1-0.5,0.3-0.5,0.6c0,0.1,0,0.3-0.2,0.3c0,0-0.2,0-0.2-0.3v-2.4c0-0.3,0.2-0.3,0.2-0.3c0.2,0,0.2,0.2,0.2,0.3
				c0,0.3,0.2,0.5,0.4,0.6c0.3,0.1,1.9,0.1,2.3,0.1c1.9,0,2.2,0,2.2-0.6c0-0.1,0-0.3,0-0.4s0-0.1,0.1-0.1s0.1,0.1,0.2,0.5
				c0,0.2,0.3,1.3,0.3,1.3c0,0.1,0,0.1-0.5,0.1c-0.2,0-0.3,0-0.3,0.1c0,0.1,0.3,0.4,0.4,0.5c0.3,0.5,0.4,1,0.4,1.4
				c0,0.9-0.5,1.3-0.8,1.4c-0.5,0.2-0.7,0.2-2.5,0.2c-0.4,0-1.6,0-1.8,0.1c-0.1,0-0.3,0.2-0.4,0.6c0,0.2,0,0.4-0.2,0.4
				c-0.2,0-0.2-0.2-0.2-0.3V71.3z"/>
			<path class="st4" d="M100.6,76c0-0.1,0-0.3,0.2-0.3c0.2,0,0.2,0.2,0.2,0.4c0,0.2,0.1,0.4,0.3,0.5c0.2,0.1,2,0.1,2.4,0.1
				c0.3,0,1.7,0,1.9-0.1c0.1-0.1,0.2-0.2,0.2-0.4c0-0.1,0-0.4,0-0.4c0-0.1,0-0.1,0.1-0.1s0.1,0.1,0.3,0.6c0,0.2,0.3,1,0.3,1.1
				c0,0.1-0.1,0.1-0.2,0.1c-0.5,0-3.2,0-3.9,0c-0.9,0-1.4,0-1.4,0.6c0,0.3,0,0.4-0.2,0.4c-0.2,0-0.2-0.2-0.2-0.3V76z M108.9,76.4
				c0.4,0,0.7,0.3,0.7,0.7c0,0.4-0.3,0.7-0.7,0.7s-0.7-0.3-0.7-0.7C108.2,76.7,108.5,76.4,108.9,76.4z"/>
			<path class="st4" d="M100.6,84.3c0-0.2,0.2-0.2,0.2-0.2c0.2,0,0.2,0.2,0.2,0.2c0,0.3,0,0.5,0.3,0.6c0.2,0.1,0.4,0.1,2.3,0.1
				c1.1,0,1.6,0,2-0.3c0.4-0.3,0.4-0.7,0.4-0.8c0-0.4-0.2-0.9-0.5-1.3c-0.4-0.4-0.6-0.4-1.9-0.4c-0.3,0-1.8,0-2,0
				c-0.4,0.1-0.5,0.3-0.5,0.6c0,0.1,0,0.3-0.2,0.3c0,0-0.2,0-0.2-0.3v-2.4c0-0.3,0.2-0.3,0.2-0.3c0.2,0,0.2,0.2,0.2,0.3
				c0,0.3,0.2,0.5,0.4,0.6c0.3,0.1,1.9,0.1,2.3,0.1c1.9,0,2.2,0,2.2-0.6c0-0.1,0-0.3,0-0.4s0-0.1,0.1-0.1s0.1,0.1,0.2,0.5
				c0,0.2,0.3,1.3,0.3,1.3c0,0.1,0,0.1-0.5,0.1c-0.2,0-0.3,0-0.3,0.1c0,0.1,0.3,0.4,0.4,0.5c0.3,0.5,0.4,1,0.4,1.4
				c0,0.9-0.5,1.3-0.8,1.4c-0.5,0.2-0.7,0.2-2.5,0.2c-0.4,0-1.6,0-1.8,0.1c-0.1,0-0.3,0.2-0.4,0.6c0,0.2,0,0.4-0.2,0.4
				c-0.2,0-0.2-0.2-0.2-0.3V84.3z"/>
			<path class="st4" d="M106.3,93.1c0,0.1-0.3,0.5-0.3,0.6c0,0.1,0.1,0.2,0.3,0.4c0.2,0.2,0.3,0.5,0.3,0.8c0,0.4-0.3,0.7-0.7,0.7
				c-0.3,0-0.6-0.2-0.6-0.5c0-0.3,0.2-0.5,0.4-0.6c0.1-0.1,0.1-0.1,0.1-0.2c0-0.1,0-0.3-0.2-0.3c-0.1,0-0.3,0.2-0.4,0.2
				c-0.2,0.1-0.5,0.2-0.8,0.2c-1.1,0-2.1-1.2-2.1-2.5c0-0.1,0.1-0.7,0.1-0.9c0-0.3-0.3-0.6-0.5-0.6c-0.1,0-0.2,0.1-0.3,0.2
				c-0.1,0.2-0.1,0.2-0.1,1.4c0,0.8-0.1,2.9-1.4,2.9c-1.5,0-1.5-2.9-1.5-3.3c0-1,0.1-2.8,1.1-2.8c0.6,0,0.9,0.7,1,1.1
				c0,0.1,0.1,0.2,0.1,0.2s0.2-0.3,0.2-0.4c0.1-0.2,0.3-0.3,0.5-0.3c0.4,0,0.7,0.3,0.9,0.8c0.1,0.2,0.1,0.3,0.2,0.3s0.2-0.2,0.2-0.3
				c0.1-0.2,0.7-0.9,1.6-0.9c1.2,0,2.1,1.2,2.1,2.4C106.5,92.5,106.3,92.9,106.3,93.1z M99,91.9c0,0.8,0.2,2,1,2
				c0.6,0,0.8-0.5,0.8-2.6c0-0.4,0-0.6-0.2-0.9c0-0.1-0.3-0.4-0.7-0.4C99,90,99,91.6,99,91.9z M102.6,92c0,1.4,1.6,1.4,1.8,1.4
				c0.7,0,1.7-0.3,1.7-1.4c0-0.8-0.6-1.3-1.8-1.3C103.5,90.6,102.6,91,102.6,92z"/>
			<path class="st4" d="M109.4,109.7c0,0-1.9,0.8-2,0.8c-0.1,0-0.2-0.1-0.2-0.2s0-0.1,0.4-0.4c1.4-1.1,1.6-2.2,1.6-2.8
				c0-2-2.3-3-4.4-3c-2.8,0-3.9,1.7-3.9,3.3c0,0.9,0.4,1.9,1.7,2.8c0.5,0.3,0.5,0.3,0.5,0.4s-0.1,0.2-0.2,0.2
				c-0.1,0-0.7-0.3-1.2-0.7c-1.2-1.1-1.3-2.4-1.3-3c0-2.7,2.1-4,4.4-4c2.8,0,4.8,1.9,4.8,4c0,0.3,0,0.7-0.1,1.1
				c0,0.1-0.2,0.7-0.2,0.8c0,0.1,0,0.3,0.1,0.3c0.2,0.2,0.2,0.2,0.2,0.3C109.6,109.6,109.5,109.7,109.4,109.7z"/>
			<path class="st4" d="M103.7,114.5c0-0.2,0-0.4-0.4-0.4c-1.5,0-2.5,1.1-2.5,2.1c0,0.6,0.3,1.2,0.7,1.5c0.1,0.1,0.5,0.4,0.5,0.5
				c0,0.1-0.1,0.1-0.2,0.1c-0.3,0-1.5-0.9-1.5-2.6c0-1.8,1.3-2.8,3.1-2.8c2,0,3,1.3,3,2.7c0,2-2,2.5-2.5,2.5c-0.2,0-0.3-0.1-0.3-0.4
				V114.5z M104.1,116.8c0,0.3,0.1,0.4,0.3,0.4c0.5,0,1.7-0.5,1.7-1.5c0-1.2-1.5-1.6-1.8-1.6s-0.3,0.2-0.3,0.3V116.8z"/>
			<path class="st4" d="M100.6,120.8c0-0.1,0-0.3,0.2-0.3c0.2,0,0.2,0.1,0.2,0.5c0,0.2,0,0.4,0.3,0.6c0.2,0.1,0.3,0.1,2,0.1
				c0.4,0,2.1,0,2.3-0.1c0.1,0,0.2-0.2,0.2-0.4c0-0.1-0.1-0.5-0.1-0.6c0-0.1,0.1-0.1,0.1-0.1c0.1,0,0.1,0.1,0.3,0.6
				c0,0.2,0.4,1.3,0.4,1.4c0,0,0,0.1,0,0.1h-0.5c-0.6,0-0.7,0-0.7,0.1c0,0.1,0,0.1,0.2,0.3c0.1,0.1,1,0.9,1,1.8
				c0,0.5-0.3,0.8-0.7,0.8c-0.4,0-0.6-0.3-0.6-0.6c0-0.3,0.1-0.4,0.3-0.5c0.1-0.1,0.2-0.2,0.2-0.4c0-0.3-0.4-0.8-0.8-1.1
				c-0.5-0.3-0.8-0.4-2.6-0.4c-1.1,0-1.3,0-1.3,0.9c0,0.1,0,0.3-0.2,0.3c-0.2,0-0.2-0.2-0.2-0.3V120.8z"/>
			<path class="st4" d="M103.7,129.1c0-0.2,0-0.4-0.4-0.4c-1.5,0-2.5,1.1-2.5,2.1c0,0.6,0.3,1.2,0.7,1.5c0.1,0.1,0.5,0.4,0.5,0.5
				c0,0.1-0.1,0.1-0.2,0.1c-0.3,0-1.5-0.9-1.5-2.6c0-1.8,1.3-2.8,3.1-2.8c2,0,3,1.3,3,2.7c0,2-2,2.5-2.5,2.5c-0.2,0-0.3-0.1-0.3-0.4
				V129.1z M104.1,131.5c0,0.3,0.1,0.4,0.3,0.4c0.5,0,1.7-0.5,1.7-1.5c0-1.2-1.5-1.6-1.8-1.6s-0.3,0.2-0.3,0.3V131.5z"/>
			<path class="st4" d="M100.6,142.9c0-0.2,0.1-0.2,0.2-0.2c0.2,0,0.2,0.2,0.2,0.3c0,0.7,0.3,0.7,2,0.7c1.7,0,1.8,0,2.2-0.1
				c0.4-0.1,0.8-0.4,0.8-1c0-0.7-0.6-1.6-1-1.7c-0.2-0.1-1.9-0.1-2.2-0.1c-1.2,0-1.3,0-1.5,0.1s-0.3,0.3-0.3,0.5
				c0,0.4,0,0.5-0.2,0.5c-0.2,0-0.2-0.2-0.2-0.3V139c0-0.1,0-0.3,0.2-0.3c0.1,0,0.1,0,0.2,0.1c0,0.1,0,0.4,0,0.5
				c0.1,0.5,0.3,0.5,2,0.5c1.6,0,1.9,0,2.3-0.2c0.3-0.1,0.6-0.4,0.6-1c0-0.6-0.3-1.1-0.6-1.4c-0.3-0.3-0.3-0.3-2.4-0.3
				c-1.7,0-2,0-2,0.7c0,0.2,0,0.4-0.2,0.4c-0.2,0-0.2-0.2-0.2-0.3v-2.4c0-0.1,0-0.3,0.2-0.3c0.2,0,0.2,0.2,0.2,0.4
				c0,0.3,0.2,0.5,0.3,0.6c0.3,0.1,2,0.1,2.4,0.1c0.3,0,1.6,0,1.8-0.1c0.1,0,0.3-0.2,0.3-0.5c0-0.1,0-0.3,0-0.4c0,0,0-0.1,0.1-0.1
				c0.1,0,0.1,0,0.3,0.6c0.1,0.3,0.3,1.1,0.3,1.2c0,0.1-0.1,0.1-0.3,0.1c-0.3,0-0.4,0-0.4,0.1c0,0.1,0.2,0.3,0.2,0.4
				c0.2,0.3,0.5,0.9,0.5,1.6c0,1-0.5,1.3-0.8,1.4c0,0-0.2,0.1-0.2,0.2c0,0.1,0,0.1,0.2,0.3c0.3,0.4,0.8,1,0.8,1.9
				c0,0.9-0.4,1.3-0.9,1.5c-0.5,0.2-0.7,0.2-2.7,0.2c-1.4,0-1.8,0-1.8,0.7c0,0.1,0,0.3-0.2,0.3c-0.1,0-0.2-0.1-0.2-0.2V142.9z"/>
			<path class="st4" d="M106.5,150.4c0,1.6-1.3,2.8-3.1,2.8c-1.7,0-3.1-1.2-3.1-2.8s1.3-2.8,3.1-2.8
				C105.1,147.6,106.5,148.7,106.5,150.4z M100.7,150.4c0,1.1,1.3,1.7,2.7,1.7c1.5,0,2.7-0.7,2.7-1.7c0-1-1.1-1.7-2.7-1.7
				C102,148.6,100.7,149.3,100.7,150.4z"/>
			<path class="st4" d="M100.6,159.1c0-0.2,0.2-0.2,0.2-0.2c0.2,0,0.2,0.2,0.2,0.2c0,0.3,0,0.5,0.3,0.6c0.2,0.1,0.4,0.1,2.3,0.1
				c1.1,0,1.6,0,2-0.3c0.4-0.3,0.4-0.7,0.4-0.8c0-0.4-0.2-0.9-0.5-1.3c-0.4-0.4-0.6-0.4-1.9-0.4c-0.3,0-1.8,0-2,0
				c-0.4,0.1-0.5,0.3-0.5,0.6c0,0.1,0,0.3-0.2,0.3c0,0-0.2,0-0.2-0.3v-2.4c0-0.3,0.2-0.3,0.2-0.3c0.2,0,0.2,0.2,0.2,0.3
				c0,0.3,0.2,0.5,0.4,0.6c0.3,0.1,1.9,0.1,2.3,0.1c1.9,0,2.2,0,2.2-0.6c0-0.1,0-0.3,0-0.4s0-0.1,0.1-0.1s0.1,0.1,0.2,0.5
				c0,0.2,0.3,1.3,0.3,1.3c0,0.1,0,0.1-0.5,0.1c-0.2,0-0.3,0-0.3,0.1c0,0.1,0.3,0.4,0.4,0.5c0.3,0.5,0.4,1,0.4,1.4
				c0,0.9-0.5,1.3-0.8,1.4c-0.5,0.2-0.7,0.2-2.5,0.2c-0.4,0-1.6,0-1.8,0.1c-0.1,0-0.3,0.2-0.4,0.6c0,0.2,0,0.4-0.2,0.4
				c-0.2,0-0.2-0.2-0.2-0.3V159.1z"/>
			<path class="st4" d="M106.3,166.2c0,0.2-0.1,0.3-0.2,0.3c-0.2,0-0.2-0.2-0.2-0.3c0-0.5-0.3-0.6-0.4-0.6c-0.3,0-2.6,1.2-3.1,1.4
				c-0.2,0.1-0.2,0.2-0.2,0.2c0,0.1,0.1,0.2,0.2,0.2c0.2,0.1,1.9,0.8,2.4,1c0.4,0.2,0.4,0.2,0.6,0.2c0.5,0,0.5-0.7,0.5-0.9
				c0-0.1,0.1-0.2,0.2-0.2c0.2,0,0.2,0.2,0.2,0.3v2.2c0,0.1,0,0.3-0.2,0.3c-0.2,0-0.2-0.2-0.2-0.3c0-0.6-0.7-0.9-0.9-1
				c-0.2-0.1-3.8-1.6-3.9-1.7c-1.5-0.6-2.5-1-2.5-2.4c0-0.8,0.5-0.9,0.7-0.9c0.3,0,0.6,0.3,0.6,0.6c0,0.3-0.2,0.5-0.3,0.7
				c-0.1,0.1-0.2,0.2-0.2,0.4c0,0.7,1,1,1.3,1c0.1,0,0.3,0,0.4-0.1c0.3-0.1,3.6-1.7,3.9-1.8c0.3-0.1,0.7-0.4,0.8-0.8
				c0.1-0.4,0.1-0.5,0.2-0.5c0.2,0,0.2,0.2,0.2,0.3V166.2z"/>
		</g>
	</g>
</g>
</svg>
