<?xml version="1.0" encoding="utf-8"?>
<!-- Generator: Adobe Illustrator 16.0.0, SVG Export Plug-In . SVG Version: 6.00 Build 0)  -->
<!DOCTYPE svg PUBLIC "-//W3C//DTD SVG 1.1 Tiny//EN" "http://www.w3.org/Graphics/SVG/1.1/DTD/svg11-tiny.dtd">
<svg version="1.1" baseProfile="tiny" id="レイヤー_1"
	 xmlns="http://www.w3.org/2000/svg" xmlns:xlink="http://www.w3.org/1999/xlink" x="0px" y="0px" width="181px" height="401px"
	 viewBox="0 0 181 401" xml:space="preserve">
<metadata><?xpacket begin="﻿" id="W5M0MpCehiHzreSzNTczkc9d"?>
<x:xmpmeta xmlns:x="adobe:ns:meta/" x:xmptk="Adobe XMP Core 5.3-c011 66.145661, 2012/02/06-14:56:27        ">
   <rdf:RDF xmlns:rdf="http://www.w3.org/1999/02/22-rdf-syntax-ns#">
      <rdf:Description rdf:about=""
            xmlns:dc="http://purl.org/dc/elements/1.1/">
         <dc:format>image/svg+xml</dc:format>
         <dc:title>
            <rdf:Alt>
               <rdf:li xml:lang="x-default">Web</rdf:li>
            </rdf:Alt>
         </dc:title>
      </rdf:Description>
      <rdf:Description rdf:about=""
            xmlns:xmp="http://ns.adobe.com/xap/1.0/"
            xmlns:xmpGImg="http://ns.adobe.com/xap/1.0/g/img/">
         <xmp:CreatorTool>Adobe Illustrator CS6 (Windows)</xmp:CreatorTool>
         <xmp:CreateDate>2017-07-11T14:07:19+09:00</xmp:CreateDate>
         <xmp:ModifyDate>2017-07-11T14:07:20+09:00</xmp:ModifyDate>
         <xmp:MetadataDate>2017-07-11T14:07:20+09:00</xmp:MetadataDate>
         <xmp:Thumbnails>
            <rdf:Alt>
               <rdf:li rdf:parseType="Resource">
                  <xmpGImg:width>116</xmpGImg:width>
                  <xmpGImg:height>256</xmpGImg:height>
                  <xmpGImg:format>JPEG</xmpGImg:format>
                  <xmpGImg:image>/9j/4AAQSkZJRgABAgEASABIAAD/7QAsUGhvdG9zaG9wIDMuMAA4QklNA+0AAAAAABAASAAAAAEA&#xA;AQBIAAAAAQAB/+4ADkFkb2JlAGTAAAAAAf/bAIQABgQEBAUEBgUFBgkGBQYJCwgGBggLDAoKCwoK&#xA;DBAMDAwMDAwQDA4PEA8ODBMTFBQTExwbGxscHx8fHx8fHx8fHwEHBwcNDA0YEBAYGhURFRofHx8f&#xA;Hx8fHx8fHx8fHx8fHx8fHx8fHx8fHx8fHx8fHx8fHx8fHx8fHx8fHx8fHx8f/8AAEQgBAAB0AwER&#xA;AAIRAQMRAf/EAaIAAAAHAQEBAQEAAAAAAAAAAAQFAwIGAQAHCAkKCwEAAgIDAQEBAQEAAAAAAAAA&#xA;AQACAwQFBgcICQoLEAACAQMDAgQCBgcDBAIGAnMBAgMRBAAFIRIxQVEGE2EicYEUMpGhBxWxQiPB&#xA;UtHhMxZi8CRygvElQzRTkqKyY3PCNUQnk6OzNhdUZHTD0uIIJoMJChgZhJRFRqS0VtNVKBry4/PE&#xA;1OT0ZXWFlaW1xdXl9WZ2hpamtsbW5vY3R1dnd4eXp7fH1+f3OEhYaHiImKi4yNjo+Ck5SVlpeYmZ&#xA;qbnJ2en5KjpKWmp6ipqqusra6voRAAICAQIDBQUEBQYECAMDbQEAAhEDBCESMUEFURNhIgZxgZEy&#xA;obHwFMHR4SNCFVJicvEzJDRDghaSUyWiY7LCB3PSNeJEgxdUkwgJChgZJjZFGidkdFU38qOzwygp&#xA;0+PzhJSktMTU5PRldYWVpbXF1eX1RlZmdoaWprbG1ub2R1dnd4eXp7fH1+f3OEhYaHiImKi4yNjo&#xA;+DlJWWl5iZmpucnZ6fkqOkpaanqKmqq6ytrq+v/aAAwDAQACEQMRAD8A7D5C8heU73ynpU02lWRc&#xA;2VlU/UrJiS1lC7Es8LMxZmJJJyIDOUjbIP8AlWnkz/q02X/SDYf9k+GkcRd/yrTyZ/1abL/pBsP+&#xA;yfGl4i7/AJVp5M/6tNl/0g2H/ZPjS8Rd/wAq08mf9Wmy/wCkGw/7J8aXiLv+VaeTP+rTZf8ASDYf&#xA;9k+NLxF3/KtPJn/Vpsv+kGw/7J8aXiLv+VaeTP8Aq02X/SDYf9k+NLxF3/KtPJn/AFabL/pBsP8A&#xA;snxpeIu/5Vp5M/6tNl/0g2H/AGT40vEXf8q08mf9Wmy/6QbD/snxpeIu/wCVaeTP+rTZf9INh/2T&#xA;40vEXf8AKtPJn/Vpsv8ApBsP+yfGl4i7/lWnkz/q02X/AEg2H/ZPjS8RYJ/hrQP8e/o79G2f1On9&#xA;x9VtvT5ev6PP0vT9Lnw25cMjW7OzTO/y0/5QzSf+YKx/6gLfJBhLmyjCxdirsVdirsVdirsVdirs&#xA;VdirsVdirsVeX/8AlT/8/wDlryPVs6Mo/LT/AJQzSf8AmCsf+oC3whjLmyjCxdirsVdirsVdirsV&#xA;dirsVaLqGCEjmQSFruQKVNPaoxVvFXYq7FXl/wD5U/8Az/5a8j1bOjKPy0/5QzSf+YKx/wCoC3wh&#xA;jLmyjCxdiqyeR44XkSJpmUVESFQzHwHNkX7yMVeIfl35l83Ta/5dtdY/St7c3Fl9ca1WeN4vQuwr&#xA;RXdxwZVEaJyAV2JLbKCwGQBbZAU9yybU7FXYq86/LXRfLVzY6VcW2o3l9qWhoodze6pJZyEwy2om&#xA;igvX9IxyLzKmNeINQrEDKccRt5e9vyyO/n7mKfnLrWkX3n3yXZW9xG1xaSasl6kg4CNRboDzMsci&#xA;8S6im1CaU7ZOXNjAbFryjqHlDSfNKa3qtxZzc7ZE0ZrX0rucPI/GV4o7a0WbgUlXk4kK0O4GxxCm&#xA;yHuIIIBHQ7jJtTsVdiry/wD8qf8A5/8ALXkerZ0ZR+Wn/KGaT/zBWP8A1AW+EMZc2UYWLsVQ2qQW&#xA;dxpt3Bep6lnJC63CVIJjKnkAVII28DXFQxrTdB/LNYdAk07TbG0W4pdaA0MItncmITHgVCMS0XxM&#xA;jfaAJINDgoMiSy7CxdirsVee/lJYyW0d850lNNjnhs3EiRX8QZyJS8KLfnkscPIcFjAReRplOEeT&#xA;dmPn+PghfMdj+ZOp/mXpeo6Votnb6f5ehvYIdSv7z93dDUEg+JIYY3lUxGGhVqV/mGWG7YiqSnS/&#xA;JPmzyd5vi1htGt/OEVy7R2l5bObWfR0ndjJDbQXc00X1b94aemyuASD8NBgqkmQI7nsWTanYq7FX&#xA;l/8A5U//AD/5a8j1bOjKPy0/5QzSf+YKx/6gLfCGMubKMLF2KrZI0kjaNxyRwVZT3BFCMVY75a8t&#xA;aBYaZaaEt4dZfy5ccoJLyVbi5tZGRmhVyN1ZLe4CpUV4EHvXAAyJPNkmFi7FULq1k99pV5ZJIYXu&#xA;YJIVlFQVMiFQ1VIO1exwEWEg0WCflHdQyzatFZ+YLjXdOhjsxC14t2JlkKy+pLyuqh4pgF9Mx0Wi&#xA;9K1Z6sJ5723Zhy2pT/Nj8wfM/ljQ9Zl02wQSW1vzs9Q430tHYAKWC2ElrXmacWuPmRXLJFhCIK6y&#xA;/MLzizaNaS6GhlupYYb67kj1mKNQy0eQl9KjijJb7PJ+NTSoG+No4Q9HyTB2KuxV5f8A+VP/AM/+&#xA;WvI9Wzoyj8tP+UM0n/mCsf8AqAt8IYy5sowsXYqp3VzBa28lxO3CGJS7tQmgHsKk/IYq888vT6xo&#xA;nma41jVbK5Wx87XAfhHG8rWM8A9C0FyiBmT6xaJHzP2Y3Ti3WuRDM7j3PR8kwdirsVYj5Ksb221f&#xA;WGutGt9H9SO0WJLdC4eOH1YY63dQsvGNF4xhF9MH/KyuA3O1NkzsN7YL+Z/k++1/XU8u6XDpt3Pd&#xA;yjVNUT6nMrxWkD+qiTz/AFsIWu5oxEoCJyHNqgKcJCYSrdj2leWJ/Nv5gaagNla6bPoaajcaTfaT&#xA;KE5Q6iYmSS1lvJOE3wsvqhvs9AdiBVlkTQfRCqqqFUBVUUAGwAGWNDeKuxV5f/5U/wDz/wCWvI9W&#xA;zoyj8tP+UM0n/mCsf+oC3whjLmyjCxdiqG1S5uLXTbq5toDdXMMTvBbL1kdVJVBT+Y7YqHnvkrzL&#xA;5vbXbnS9Xvvr0kL2UMxGnXkYDNac5nDCGNYRK4LAy0XsOuRBbJAU9LyTW7FVO4uLe2gkuLiVIbeF&#xA;TJNNIwRERRVmZjQAAdScVAYZ5P0ZLLWHsxpum2EdlbW031a2nknvIZHE0cSys3UCNpFBPWpIJyqA&#xA;ots5WOrK2XSNKhurxxBYwu5nvLluESlzQGSVzQV6CrHLWtJfLVj+Xkut6nrvlv8AR0+r3wQape2M&#xA;kcsjeHP02bjyIqenI7mpwCkm+RZNhYuxV2KvL/8Ayp/+f/LXkerZ0ZR+Wn/KGaT/AMwVj/1AW+EM&#xA;Zc2UYWLsVU7mATwPCXeMOKc42KOPcMOmKsI8tJ5V1bULu/srzVLe5nvBCxu5Z7RryXThRhHG/pu6&#xA;R0KOAo6EMMiGZsM7yTB2KtOiOjI6hkYEMpFQQdiCDiqR+XvK2g6HfahJpAEIuxH9YtFKsqOrSuX/&#xA;AJ6yGY15NTYUpkIxA5M5TJG7BPNHmnRYfOPmC41spfXHlqOyh8seXyVYz319GXWWOE7yTSOwiRv2&#xA;FViKVbCSkDZZ5l0aPy3Zflm0fpp5str7StGe5hAElxamIRX0T8ac4REhk32UgHE9FBu+563kmt2K&#xA;uxV5f/5U/wDz/wCWvI9Wzoyj8tP+UM0n/mCsf+oC3whjLmyjCxdirTlQjFzxUA8mrSg7mvbFXm35&#xA;fflpaaD5o1PU7q1sJ2eSSTQbuO4luLiG0kPEARzRj02kFWllEjtI7MSabZEBslKw9KyTW7FXYq83&#xA;8h2nlW8k0yXy0+ny3miu6a5f26SLcXEUsMqRMzsiNL9Yk4zMzsy8lNCxAbKMYBqujfkJF31ZldeU&#xA;/Ldzr0HmGfTbeTXbWMw22pPGrTRoa7Kx8ORp8z45dTTZqkFpvkbT7bXR5g1C6udY1uNGitbu9ZCt&#xA;skn21toYljii5DYsF5kbFjjSTLoyPCxdirsVeX/+VP8A8/8AlryPVs6Mo/LT/lDNJ/5grH/qAt8I&#xA;Yy5sowsXYqx78xXSPyD5ikeX0VTTrpi/Lh9mFjxLdg32TTffbfAeTKPN4D5F0+4bzFpM0Sh5frlo&#xA;sUcIW6Bs454l9OR4wUEcUfOWNz/ksGNRWAbpHZ9P5Y47sVdirzr8sL21vZJJNKuNLf0o7aHWPqcF&#xA;6hZIrdorYQSXTKDEOPwMqlSK9zXKcRvlTflFc7Wfm5551jRV07TdAtdSk1qa/sSjW1rytZYZbhYp&#xA;IJLqVDAhkUlRVgQ1OmWSLXCN82Q+aPO8mgRWUg0S/wBVFxLHDeLpohne0aUgL6sfqLIRU9UUjbcj&#xA;apJQI2yfCxdirsVeX/8AlT/8/wDlryPVs6Mo/LT/AJQzSf8AmCsf+oC3whjLmyjCxdiq2SKOWNo5&#xA;UDxsKMjAEEe4OKvL/J/n3zLq8vkme9S1X/EFvzvmjhiV6fUXuQsbJeXDqPUAPxRDbrxO2RBbJRAt&#xA;6lkmt2KuxV51+XD6xNqNxIuiR6HbrFaJqJms7qCWVooZIkt4Xmfiy23BPjUMhDUXxynHd8qb8tVz&#xA;tZ+YHkHzx5o8xaYg11E8mLeW89/o8UZt5+EA5lvrUZMr8nSgVSlOVd+OWEEtcZADzUfLHkPX7fzl&#xA;puoS6PpPl7TdCS8iWXSnJk1IXXwxiVBHFwjQAOwkZ2MgB98QEmQp6dkmt2KuxV5f/wCVP/z/AOWv&#xA;I9Wzoyj8tP8AlDNJ/wCYKx/6gLfCGMubKMLF2KuxV595Y8seTtPn8rWlj5iF3NpNsH0m0Z7ESTwG&#xA;1e3WSkMUUrj0yx5V7b5EBmSd3oOSYOxV2KsB/KvUvK2oi8uPLtzfS2qWtnBLBe3D3YheJpwFEjzX&#xA;HFypHNFIAHE98pxEHk3ZQRzdqv5oLp3n628vzWlylhewNBZXMlhexibVBMVFvHOyCJ0MQLlwOIA5&#xA;cqHay92AhtaF/wCVp68PI2h+bToNv9W1qawjFuL5jJGt/MkStvbhTTmNuWN7LwC6ekZJg7FXYq8v&#xA;/wDKn/5/8teR6tnRlH5af8oZpP8AzBWP/UBb4QxlzZRhYuxVp1LIyhihYEBlpUV7itRirF/K2lea&#xA;NF07Q9Ikt7CaysLSO1u70TSpOPSTgBFF6Lq4bipq0o+k74AyJBZThYuxV2KsN8nXtzPcRTy3mqvB&#xA;LbwxJYXWmmytopWWWRuANvG6oixcVq5AqqlmZlyqB9/ybZj3fNjGp6R5tuPzsivU1S342OmpKlnP&#xA;FWGGwuLtobj0H3dLkxxh/V6E/ARwyfVAI4WHeRNIspXsNN1zWLxvJumWd5rekwy3Lqhs9J1RVsp5&#xA;qGjr6CczwCrQggDY5EM5H5vooEEVG4OWNDsVdiry/wD8qf8A5/8ALXkerZ0ZR+Wn/KGaT/zBWP8A&#xA;1AW+EMZc2UYWLsVSvzVJ6flvU5frBtPTtpH+tCRoTFxUn1A6q5HGlfsmvTAUjm8L8kz6wsnl25v0&#xA;ubb9J6hDenT55Z5riZ0CwmUxQiOeX04wC3L9ytTJI7tSJYBuk+iMsaHYq7FXnX5Q2Qs11CL6zczm&#xA;SGznAurSe0dkl9YrPIZ5ZzLPLv6rrQfCBTbKcIpvzG2V6p5O8u6pfz31/bGae5to7K4/eyqkltFI&#xA;8oieNGVGUtI3IEfENjUZbTSJFB+aPy18j+aWtG13So7trFGitSryw8YnoGj/AHLx8kNPstUYkApE&#xA;iOTJIoooYkiiQJFGoSNFFAqqKAADsBhYrsVdiry//wAqf/n/AMteR6tnRlH5af8AKGaT/wAwVj/1&#xA;AW+EMZc2UYWLsVWyxRSrwlRZEqrcWAIqpDKaHuGAIxVhnkzX9JuvNXmHRrHSrGwbSWjhlurWeJ5Z&#xA;2Sq8ZIkRHHpJwqSWALca8lYAAs5DZmuFg7FXYqluieWvLuhRPFoumWumpLx9UWsMcPPgKKXKAFiK&#xA;9WyMYgcgylInmWP3Ou3Fr+aq2Fxei30ltC+sNDK4WN7j68sSOnLYMofi1OvNa9sPVa2RXmjW/MOk&#xA;+YvLgs7dr7SNVujp+pQpEzvblo3kjuhIp+FAU4ycwRSlKHqlQAQyjCxdirsVeX/+VP8A8/8AlryP&#xA;Vs6Mo/LT/lDNJ/5grH/qAt8IYy5sowsXYqpXV1a2drNd3cqW9rbo0s88rBEjjQFmd2NAqqBUk4q8&#xA;20HTfy+sPOS30HmmN102tppekSSW0cMEuoBOaxTcEluDMVU0Mj/GSWq5yIpsJNcnp2Sa3Yq7FXYq&#xA;x7zX5B8s+abnSrrV7cvd6LcpeafcxuY5EdHV+PJeqM0a8l9hgItkJEMhwsXYq7FXYq8v/wDKn/5/&#xA;8teR6tnRlH5af8oZpP8AzBWP/UBb4QxlzZRhYuxVCavB6+mXMXpxS8oz+7uIjPE1N6NEvxP06DFI&#xA;eGfll5S8zWXnsXUmm3NmkLXf1K9v4JWgME9xG8yIqJGwkKREo8zR05cVSQDlkAN22RFPfsm0uxV2&#xA;KuxV2KuxV2KuxV2KvL//ACp/+f8Ay15Hq2dGUflp/wAoZpP/ADBWP/UBb4QxlzZRhYuxVJfPF9dW&#xA;HkvX760mNtd2mm3c9vcKAxjkjgdkcKwIPFhWhGApjzeR+UfN/m+//MB7C5127/RT3VFnmtj6N1WS&#xA;trHBwiT0eUFpcc9kViN6mtYg7tpAp7tk2l2KuxV2KuxV2KuxV2KuxV5f/wCVP/z/AOWvI9Wzoyj8&#xA;tP8AlDNJ/wCYKx/6gLfCGMubKMLF2KqdxbW9zC0FxGssL05xuKqaGtCD1G2KpPb+SPKtvqMGowaf&#xA;Gl3bBRA4L8U4CQKQnLhyHryb0r8WCk8RTzCh2KuxV2KuxV2KuxV2KuxV5f8A+VP/AM/+WvI9Wzoy&#xA;j8tP+UM0n/mCsf8AqAt8IYy5sowsXYq7FXYq7FXYq7FXYq7FXYq7FXYq7FXl/wD5U/8Az/5a8j1b&#xA;OjKPy0/5QzSf+YKx/wCoC3whjLmyjCxdirsVdirsVdirsVdirsVdirsVdirsVeX/APlT/wDP/lry&#xA;PVs6Mo/LT/lDNJ/5grH/AKgLfCGMubKMLF2KuxV2KuxV2KuxV2KuxV2KuxV2KuxV5f8A+VP/AM/+&#xA;WvI9Wzoyj8tP+UM0n/mCsf8AqAt8IYy5sowsXYq7FXYq7FXYq7FXYq7FXYq7FXYq7FXl/wD5U/8A&#xA;z/5a8j1bOjKPy0/5QzSf+YKx/wCoC3whjLmyjCxdirsVdirsVdirsVdirsVdirsVdirsVeX/APlT&#xA;/wDP/lryPVs6Mo/LT/lDNJ/5grH/AKgLfCGMubKMLF2KuxV2KuxV2KuxV2KuxV2KuxV2KuxV5f8A&#xA;+VP/AM/+WvI9Wzoyj8tP+UM0n/mCsf8AqAt8IYy5sowsXYq7FXYq7FXYq7FXYq7FXYq7FXYq7FXl&#xA;/wD5U/8Az/5a8j1bOjKPy0/5QzSf+YKx/wCoC3whjLmyjCxdirsVdirsVdirsVdirsVdirsVdirs&#xA;VeX/APlT/wDP/lryPVs6Mo/LT/lDNJ/5grH/AKgLfCGMubKMLF2KuxV2KuxV2KuxV2KuxV2KuxV2&#xA;KuxV5f8A+VP/AM/+WvI9Wzoyj8tP+UM0n/mCsf8AqAt8IYy5sowsXYq7FXYq7FXYq7FXYq7FXYq7&#xA;FXYq7FXl/wD5U/8Az/5a8j1bOjKPy0/5QzSf+YKx/wCoC3whjLmyjCxdirsVdirsVdirsVdirsVd&#xA;irsVdirsVeX/APlT/wDP/lryPVs6IjyF598p2XlPSoZtVsg4srKo+u2SkFbKFGBV5lZSrKQQRiCi&#xA;UTbIP+Vl+TP+rtZf9J1h/wBlGG0cJd/ysvyZ/wBXay/6TrD/ALKMbXhLv+Vl+TP+rtZf9J1h/wBl&#xA;GNrwl3/Ky/Jn/V2sv+k6w/7KMbXhLv8AlZfkz/q7WX/SdYf9lGNrwl3/ACsvyZ/1drL/AKTrD/so&#xA;xteEu/5WX5M/6u1l/wBJ1h/2UY2vCXf8rL8mf9Xay/6TrD/soxteEu/5WX5M/wCrtZf9J1h/2UY2&#xA;vCXf8rL8mf8AV2sv+k6w/wCyjG14S7/lZfkz/q7WX/SdYf8AZRja8Jd/ysvyZ/1drL/pOsP+yjG1&#xA;4S7/AJWX5M/6u1l/0nWH/ZRja8JYJ/iXQP8AHv6R/SVn9Tp/f/Wrb0+Xr+tw9X1PS58N+PPI3uzo&#xA;0//Z</xmpGImg:image>
               </rdf:li>
            </rdf:Alt>
         </xmp:Thumbnails>
      </rdf:Description>
      <rdf:Description rdf:about=""
            xmlns:xmpMM="http://ns.adobe.com/xap/1.0/mm/"
            xmlns:stRef="http://ns.adobe.com/xap/1.0/sType/ResourceRef#"
            xmlns:stEvt="http://ns.adobe.com/xap/1.0/sType/ResourceEvent#">
         <xmpMM:RenditionClass>proof:pdf</xmpMM:RenditionClass>
         <xmpMM:OriginalDocumentID>uuid:65E6390686CF11DBA6E2D887CEACB407</xmpMM:OriginalDocumentID>
         <xmpMM:DocumentID>xmp.did:7ACAAD1FDC65E711A588CAE2881F51E6</xmpMM:DocumentID>
         <xmpMM:InstanceID>xmp.iid:7ACAAD1FDC65E711A588CAE2881F51E6</xmpMM:InstanceID>
         <xmpMM:DerivedFrom rdf:parseType="Resource">
            <stRef:instanceID>uuid:c5b5eddb-66da-6741-a40d-cc810f9d042d</stRef:instanceID>
            <stRef:documentID>xmp.did:FB05051EC465E111835FF2FC000FBA2B</stRef:documentID>
            <stRef:originalDocumentID>uuid:65E6390686CF11DBA6E2D887CEACB407</stRef:originalDocumentID>
            <stRef:renditionClass>proof:pdf</stRef:renditionClass>
         </xmpMM:DerivedFrom>
         <xmpMM:History>
            <rdf:Seq>
               <rdf:li rdf:parseType="Resource">
                  <stEvt:action>saved</stEvt:action>
                  <stEvt:instanceID>xmp.iid:7ACAAD1FDC65E711A588CAE2881F51E6</stEvt:instanceID>
                  <stEvt:when>2017-07-11T14:07:20+09:00</stEvt:when>
                  <stEvt:softwareAgent>Adobe Illustrator CS6 (Windows)</stEvt:softwareAgent>
                  <stEvt:changed>/</stEvt:changed>
               </rdf:li>
            </rdf:Seq>
         </xmpMM:History>
      </rdf:Description>
      <rdf:Description rdf:about=""
            xmlns:illustrator="http://ns.adobe.com/illustrator/1.0/">
         <illustrator:StartupProfile>Web</illustrator:StartupProfile>
      </rdf:Description>
      <rdf:Description rdf:about=""
            xmlns:xmpTPg="http://ns.adobe.com/xap/1.0/t/pg/"
            xmlns:stDim="http://ns.adobe.com/xap/1.0/sType/Dimensions#"
            xmlns:xmpG="http://ns.adobe.com/xap/1.0/g/">
         <xmpTPg:NPages>1</xmpTPg:NPages>
         <xmpTPg:HasVisibleTransparency>False</xmpTPg:HasVisibleTransparency>
         <xmpTPg:HasVisibleOverprint>False</xmpTPg:HasVisibleOverprint>
         <xmpTPg:MaxPageSize rdf:parseType="Resource">
            <stDim:w>181.000000</stDim:w>
            <stDim:h>401.000000</stDim:h>
            <stDim:unit>Pixels</stDim:unit>
         </xmpTPg:MaxPageSize>
         <xmpTPg:PlateNames>
            <rdf:Seq>
               <rdf:li>Cyan</rdf:li>
               <rdf:li>Magenta</rdf:li>
               <rdf:li>Yellow</rdf:li>
               <rdf:li>Black</rdf:li>
            </rdf:Seq>
         </xmpTPg:PlateNames>
         <xmpTPg:SwatchGroups>
            <rdf:Seq>
               <rdf:li rdf:parseType="Resource">
                  <xmpG:groupName>初期設定のスウォッチグループ</xmpG:groupName>
                  <xmpG:groupType>0</xmpG:groupType>
                  <xmpG:Colorants>
                     <rdf:Seq>
                        <rdf:li rdf:parseType="Resource">
                           <xmpG:swatchName>ホワイト</xmpG:swatchName>
                           <xmpG:mode>RGB</xmpG:mode>
                           <xmpG:type>PROCESS</xmpG:type>
                           <xmpG:red>255</xmpG:red>
                           <xmpG:green>255</xmpG:green>
                           <xmpG:blue>255</xmpG:blue>
                        </rdf:li>
                        <rdf:li rdf:parseType="Resource">
                           <xmpG:swatchName>ブラック</xmpG:swatchName>
                           <xmpG:mode>RGB</xmpG:mode>
                           <xmpG:type>PROCESS</xmpG:type>
                           <xmpG:red>0</xmpG:red>
                           <xmpG:green>0</xmpG:green>
                           <xmpG:blue>0</xmpG:blue>
                        </rdf:li>
                        <rdf:li rdf:parseType="Resource">
                           <xmpG:swatchName>RGB レッド</xmpG:swatchName>
                           <xmpG:mode>RGB</xmpG:mode>
                           <xmpG:type>PROCESS</xmpG:type>
                           <xmpG:red>255</xmpG:red>
                           <xmpG:green>0</xmpG:green>
                           <xmpG:blue>0</xmpG:blue>
                        </rdf:li>
                        <rdf:li rdf:parseType="Resource">
                           <xmpG:swatchName>RGB イエロー</xmpG:swatchName>
                           <xmpG:mode>RGB</xmpG:mode>
                           <xmpG:type>PROCESS</xmpG:type>
                           <xmpG:red>255</xmpG:red>
                           <xmpG:green>255</xmpG:green>
                           <xmpG:blue>0</xmpG:blue>
                        </rdf:li>
                        <rdf:li rdf:parseType="Resource">
                           <xmpG:swatchName>RGB グリーン</xmpG:swatchName>
                           <xmpG:mode>RGB</xmpG:mode>
                           <xmpG:type>PROCESS</xmpG:type>
                           <xmpG:red>0</xmpG:red>
                           <xmpG:green>255</xmpG:green>
                           <xmpG:blue>0</xmpG:blue>
                        </rdf:li>
                        <rdf:li rdf:parseType="Resource">
                           <xmpG:swatchName>RGB シアン</xmpG:swatchName>
                           <xmpG:mode>RGB</xmpG:mode>
                           <xmpG:type>PROCESS</xmpG:type>
                           <xmpG:red>0</xmpG:red>
                           <xmpG:green>255</xmpG:green>
                           <xmpG:blue>255</xmpG:blue>
                        </rdf:li>
                        <rdf:li rdf:parseType="Resource">
                           <xmpG:swatchName>RGB ブルー</xmpG:swatchName>
                           <xmpG:mode>RGB</xmpG:mode>
                           <xmpG:type>PROCESS</xmpG:type>
                           <xmpG:red>0</xmpG:red>
                           <xmpG:green>0</xmpG:green>
                           <xmpG:blue>255</xmpG:blue>
                        </rdf:li>
                        <rdf:li rdf:parseType="Resource">
                           <xmpG:swatchName>RGB マゼンタ</xmpG:swatchName>
                           <xmpG:mode>RGB</xmpG:mode>
                           <xmpG:type>PROCESS</xmpG:type>
                           <xmpG:red>255</xmpG:red>
                           <xmpG:green>0</xmpG:green>
                           <xmpG:blue>255</xmpG:blue>
                        </rdf:li>
                        <rdf:li rdf:parseType="Resource">
                           <xmpG:swatchName>R=193 G=39 B=45</xmpG:swatchName>
                           <xmpG:mode>RGB</xmpG:mode>
                           <xmpG:type>PROCESS</xmpG:type>
                           <xmpG:red>193</xmpG:red>
                           <xmpG:green>39</xmpG:green>
                           <xmpG:blue>45</xmpG:blue>
                        </rdf:li>
                        <rdf:li rdf:parseType="Resource">
                           <xmpG:swatchName>R=237 G=28 B=36</xmpG:swatchName>
                           <xmpG:mode>RGB</xmpG:mode>
                           <xmpG:type>PROCESS</xmpG:type>
                           <xmpG:red>237</xmpG:red>
                           <xmpG:green>28</xmpG:green>
                           <xmpG:blue>36</xmpG:blue>
                        </rdf:li>
                        <rdf:li rdf:parseType="Resource">
                           <xmpG:swatchName>R=241 G=90 B=36</xmpG:swatchName>
                           <xmpG:mode>RGB</xmpG:mode>
                           <xmpG:type>PROCESS</xmpG:type>
                           <xmpG:red>241</xmpG:red>
                           <xmpG:green>90</xmpG:green>
                           <xmpG:blue>36</xmpG:blue>
                        </rdf:li>
                        <rdf:li rdf:parseType="Resource">
                           <xmpG:swatchName>R=247 G=147 B=30</xmpG:swatchName>
                           <xmpG:mode>RGB</xmpG:mode>
                           <xmpG:type>PROCESS</xmpG:type>
                           <xmpG:red>247</xmpG:red>
                           <xmpG:green>147</xmpG:green>
                           <xmpG:blue>30</xmpG:blue>
                        </rdf:li>
                        <rdf:li rdf:parseType="Resource">
                           <xmpG:swatchName>R=251 G=176 B=59</xmpG:swatchName>
                           <xmpG:mode>RGB</xmpG:mode>
                           <xmpG:type>PROCESS</xmpG:type>
                           <xmpG:red>251</xmpG:red>
                           <xmpG:green>176</xmpG:green>
                           <xmpG:blue>59</xmpG:blue>
                        </rdf:li>
                        <rdf:li rdf:parseType="Resource">
                           <xmpG:swatchName>R=252 G=238 B=33</xmpG:swatchName>
                           <xmpG:mode>RGB</xmpG:mode>
                           <xmpG:type>PROCESS</xmpG:type>
                           <xmpG:red>252</xmpG:red>
                           <xmpG:green>238</xmpG:green>
                           <xmpG:blue>33</xmpG:blue>
                        </rdf:li>
                        <rdf:li rdf:parseType="Resource">
                           <xmpG:swatchName>R=217 G=224 B=33</xmpG:swatchName>
                           <xmpG:mode>RGB</xmpG:mode>
                           <xmpG:type>PROCESS</xmpG:type>
                           <xmpG:red>217</xmpG:red>
                           <xmpG:green>224</xmpG:green>
                           <xmpG:blue>33</xmpG:blue>
                        </rdf:li>
                        <rdf:li rdf:parseType="Resource">
                           <xmpG:swatchName>R=140 G=198 B=63</xmpG:swatchName>
                           <xmpG:mode>RGB</xmpG:mode>
                           <xmpG:type>PROCESS</xmpG:type>
                           <xmpG:red>140</xmpG:red>
                           <xmpG:green>198</xmpG:green>
                           <xmpG:blue>63</xmpG:blue>
                        </rdf:li>
                        <rdf:li rdf:parseType="Resource">
                           <xmpG:swatchName>R=57 G=181 B=74</xmpG:swatchName>
                           <xmpG:mode>RGB</xmpG:mode>
                           <xmpG:type>PROCESS</xmpG:type>
                           <xmpG:red>57</xmpG:red>
                           <xmpG:green>181</xmpG:green>
                           <xmpG:blue>74</xmpG:blue>
                        </rdf:li>
                        <rdf:li rdf:parseType="Resource">
                           <xmpG:swatchName>R=0 G=146 B=69</xmpG:swatchName>
                           <xmpG:mode>RGB</xmpG:mode>
                           <xmpG:type>PROCESS</xmpG:type>
                           <xmpG:red>0</xmpG:red>
                           <xmpG:green>146</xmpG:green>
                           <xmpG:blue>69</xmpG:blue>
                        </rdf:li>
                        <rdf:li rdf:parseType="Resource">
                           <xmpG:swatchName>R=0 G=104 B=55</xmpG:swatchName>
                           <xmpG:mode>RGB</xmpG:mode>
                           <xmpG:type>PROCESS</xmpG:type>
                           <xmpG:red>0</xmpG:red>
                           <xmpG:green>104</xmpG:green>
                           <xmpG:blue>55</xmpG:blue>
                        </rdf:li>
                        <rdf:li rdf:parseType="Resource">
                           <xmpG:swatchName>R=34 G=181 B=115</xmpG:swatchName>
                           <xmpG:mode>RGB</xmpG:mode>
                           <xmpG:type>PROCESS</xmpG:type>
                           <xmpG:red>34</xmpG:red>
                           <xmpG:green>181</xmpG:green>
                           <xmpG:blue>115</xmpG:blue>
                        </rdf:li>
                        <rdf:li rdf:parseType="Resource">
                           <xmpG:swatchName>R=0 G=169 B=157</xmpG:swatchName>
                           <xmpG:mode>RGB</xmpG:mode>
                           <xmpG:type>PROCESS</xmpG:type>
                           <xmpG:red>0</xmpG:red>
                           <xmpG:green>169</xmpG:green>
                           <xmpG:blue>157</xmpG:blue>
                        </rdf:li>
                        <rdf:li rdf:parseType="Resource">
                           <xmpG:swatchName>R=41 G=171 B=226</xmpG:swatchName>
                           <xmpG:mode>RGB</xmpG:mode>
                           <xmpG:type>PROCESS</xmpG:type>
                           <xmpG:red>41</xmpG:red>
                           <xmpG:green>171</xmpG:green>
                           <xmpG:blue>226</xmpG:blue>
                        </rdf:li>
                        <rdf:li rdf:parseType="Resource">
                           <xmpG:swatchName>R=0 G=113 B=188</xmpG:swatchName>
                           <xmpG:mode>RGB</xmpG:mode>
                           <xmpG:type>PROCESS</xmpG:type>
                           <xmpG:red>0</xmpG:red>
                           <xmpG:green>113</xmpG:green>
                           <xmpG:blue>188</xmpG:blue>
                        </rdf:li>
                        <rdf:li rdf:parseType="Resource">
                           <xmpG:swatchName>R=46 G=49 B=146</xmpG:swatchName>
                           <xmpG:mode>RGB</xmpG:mode>
                           <xmpG:type>PROCESS</xmpG:type>
                           <xmpG:red>46</xmpG:red>
                           <xmpG:green>49</xmpG:green>
                           <xmpG:blue>146</xmpG:blue>
                        </rdf:li>
                        <rdf:li rdf:parseType="Resource">
                           <xmpG:swatchName>R=27 G=20 B=100</xmpG:swatchName>
                           <xmpG:mode>RGB</xmpG:mode>
                           <xmpG:type>PROCESS</xmpG:type>
                           <xmpG:red>27</xmpG:red>
                           <xmpG:green>20</xmpG:green>
                           <xmpG:blue>100</xmpG:blue>
                        </rdf:li>
                        <rdf:li rdf:parseType="Resource">
                           <xmpG:swatchName>R=102 G=45 B=145</xmpG:swatchName>
                           <xmpG:mode>RGB</xmpG:mode>
                           <xmpG:type>PROCESS</xmpG:type>
                           <xmpG:red>102</xmpG:red>
                           <xmpG:green>45</xmpG:green>
                           <xmpG:blue>145</xmpG:blue>
                        </rdf:li>
                        <rdf:li rdf:parseType="Resource">
                           <xmpG:swatchName>R=147 G=39 B=143</xmpG:swatchName>
                           <xmpG:mode>RGB</xmpG:mode>
                           <xmpG:type>PROCESS</xmpG:type>
                           <xmpG:red>147</xmpG:red>
                           <xmpG:green>39</xmpG:green>
                           <xmpG:blue>143</xmpG:blue>
                        </rdf:li>
                        <rdf:li rdf:parseType="Resource">
                           <xmpG:swatchName>R=158 G=0 B=93</xmpG:swatchName>
                           <xmpG:mode>RGB</xmpG:mode>
                           <xmpG:type>PROCESS</xmpG:type>
                           <xmpG:red>158</xmpG:red>
                           <xmpG:green>0</xmpG:green>
                           <xmpG:blue>93</xmpG:blue>
                        </rdf:li>
                        <rdf:li rdf:parseType="Resource">
                           <xmpG:swatchName>R=212 G=20 B=90</xmpG:swatchName>
                           <xmpG:mode>RGB</xmpG:mode>
                           <xmpG:type>PROCESS</xmpG:type>
                           <xmpG:red>212</xmpG:red>
                           <xmpG:green>20</xmpG:green>
                           <xmpG:blue>90</xmpG:blue>
                        </rdf:li>
                        <rdf:li rdf:parseType="Resource">
                           <xmpG:swatchName>R=237 G=30 B=121</xmpG:swatchName>
                           <xmpG:mode>RGB</xmpG:mode>
                           <xmpG:type>PROCESS</xmpG:type>
                           <xmpG:red>237</xmpG:red>
                           <xmpG:green>30</xmpG:green>
                           <xmpG:blue>121</xmpG:blue>
                        </rdf:li>
                        <rdf:li rdf:parseType="Resource">
                           <xmpG:swatchName>R=199 G=178 B=153</xmpG:swatchName>
                           <xmpG:mode>RGB</xmpG:mode>
                           <xmpG:type>PROCESS</xmpG:type>
                           <xmpG:red>199</xmpG:red>
                           <xmpG:green>178</xmpG:green>
                           <xmpG:blue>153</xmpG:blue>
                        </rdf:li>
                        <rdf:li rdf:parseType="Resource">
                           <xmpG:swatchName>R=153 G=134 B=117</xmpG:swatchName>
                           <xmpG:mode>RGB</xmpG:mode>
                           <xmpG:type>PROCESS</xmpG:type>
                           <xmpG:red>153</xmpG:red>
                           <xmpG:green>134</xmpG:green>
                           <xmpG:blue>117</xmpG:blue>
                        </rdf:li>
                        <rdf:li rdf:parseType="Resource">
                           <xmpG:swatchName>R=115 G=99 B=87</xmpG:swatchName>
                           <xmpG:mode>RGB</xmpG:mode>
                           <xmpG:type>PROCESS</xmpG:type>
                           <xmpG:red>115</xmpG:red>
                           <xmpG:green>99</xmpG:green>
                           <xmpG:blue>87</xmpG:blue>
                        </rdf:li>
                        <rdf:li rdf:parseType="Resource">
                           <xmpG:swatchName>R=83 G=71 B=65</xmpG:swatchName>
                           <xmpG:mode>RGB</xmpG:mode>
                           <xmpG:type>PROCESS</xmpG:type>
                           <xmpG:red>83</xmpG:red>
                           <xmpG:green>71</xmpG:green>
                           <xmpG:blue>65</xmpG:blue>
                        </rdf:li>
                        <rdf:li rdf:parseType="Resource">
                           <xmpG:swatchName>R=198 G=156 B=109</xmpG:swatchName>
                           <xmpG:mode>RGB</xmpG:mode>
                           <xmpG:type>PROCESS</xmpG:type>
                           <xmpG:red>198</xmpG:red>
                           <xmpG:green>156</xmpG:green>
                           <xmpG:blue>109</xmpG:blue>
                        </rdf:li>
                        <rdf:li rdf:parseType="Resource">
                           <xmpG:swatchName>R=166 G=124 B=82</xmpG:swatchName>
                           <xmpG:mode>RGB</xmpG:mode>
                           <xmpG:type>PROCESS</xmpG:type>
                           <xmpG:red>166</xmpG:red>
                           <xmpG:green>124</xmpG:green>
                           <xmpG:blue>82</xmpG:blue>
                        </rdf:li>
                        <rdf:li rdf:parseType="Resource">
                           <xmpG:swatchName>R=140 G=98 B=57</xmpG:swatchName>
                           <xmpG:mode>RGB</xmpG:mode>
                           <xmpG:type>PROCESS</xmpG:type>
                           <xmpG:red>140</xmpG:red>
                           <xmpG:green>98</xmpG:green>
                           <xmpG:blue>57</xmpG:blue>
                        </rdf:li>
                        <rdf:li rdf:parseType="Resource">
                           <xmpG:swatchName>R=117 G=76 B=36</xmpG:swatchName>
                           <xmpG:mode>RGB</xmpG:mode>
                           <xmpG:type>PROCESS</xmpG:type>
                           <xmpG:red>117</xmpG:red>
                           <xmpG:green>76</xmpG:green>
                           <xmpG:blue>36</xmpG:blue>
                        </rdf:li>
                        <rdf:li rdf:parseType="Resource">
                           <xmpG:swatchName>R=96 G=56 B=19</xmpG:swatchName>
                           <xmpG:mode>RGB</xmpG:mode>
                           <xmpG:type>PROCESS</xmpG:type>
                           <xmpG:red>96</xmpG:red>
                           <xmpG:green>56</xmpG:green>
                           <xmpG:blue>19</xmpG:blue>
                        </rdf:li>
                        <rdf:li rdf:parseType="Resource">
                           <xmpG:swatchName>R=66 G=33 B=11</xmpG:swatchName>
                           <xmpG:mode>RGB</xmpG:mode>
                           <xmpG:type>PROCESS</xmpG:type>
                           <xmpG:red>66</xmpG:red>
                           <xmpG:green>33</xmpG:green>
                           <xmpG:blue>11</xmpG:blue>
                        </rdf:li>
                     </rdf:Seq>
                  </xmpG:Colorants>
               </rdf:li>
               <rdf:li rdf:parseType="Resource">
                  <xmpG:groupName>グレー</xmpG:groupName>
                  <xmpG:groupType>1</xmpG:groupType>
                  <xmpG:Colorants>
                     <rdf:Seq>
                        <rdf:li rdf:parseType="Resource">
                           <xmpG:swatchName>R=0 G=0 B=0</xmpG:swatchName>
                           <xmpG:mode>RGB</xmpG:mode>
                           <xmpG:type>PROCESS</xmpG:type>
                           <xmpG:red>0</xmpG:red>
                           <xmpG:green>0</xmpG:green>
                           <xmpG:blue>0</xmpG:blue>
                        </rdf:li>
                        <rdf:li rdf:parseType="Resource">
                           <xmpG:swatchName>R=26 G=26 B=26</xmpG:swatchName>
                           <xmpG:mode>RGB</xmpG:mode>
                           <xmpG:type>PROCESS</xmpG:type>
                           <xmpG:red>26</xmpG:red>
                           <xmpG:green>26</xmpG:green>
                           <xmpG:blue>26</xmpG:blue>
                        </rdf:li>
                        <rdf:li rdf:parseType="Resource">
                           <xmpG:swatchName>R=51 G=51 B=51</xmpG:swatchName>
                           <xmpG:mode>RGB</xmpG:mode>
                           <xmpG:type>PROCESS</xmpG:type>
                           <xmpG:red>51</xmpG:red>
                           <xmpG:green>51</xmpG:green>
                           <xmpG:blue>51</xmpG:blue>
                        </rdf:li>
                        <rdf:li rdf:parseType="Resource">
                           <xmpG:swatchName>R=77 G=77 B=77</xmpG:swatchName>
                           <xmpG:mode>RGB</xmpG:mode>
                           <xmpG:type>PROCESS</xmpG:type>
                           <xmpG:red>77</xmpG:red>
                           <xmpG:green>77</xmpG:green>
                           <xmpG:blue>77</xmpG:blue>
                        </rdf:li>
                        <rdf:li rdf:parseType="Resource">
                           <xmpG:swatchName>R=102 G=102 B=102</xmpG:swatchName>
                           <xmpG:mode>RGB</xmpG:mode>
                           <xmpG:type>PROCESS</xmpG:type>
                           <xmpG:red>102</xmpG:red>
                           <xmpG:green>102</xmpG:green>
                           <xmpG:blue>102</xmpG:blue>
                        </rdf:li>
                        <rdf:li rdf:parseType="Resource">
                           <xmpG:swatchName>R=128 G=128 B=128</xmpG:swatchName>
                           <xmpG:mode>RGB</xmpG:mode>
                           <xmpG:type>PROCESS</xmpG:type>
                           <xmpG:red>128</xmpG:red>
                           <xmpG:green>128</xmpG:green>
                           <xmpG:blue>128</xmpG:blue>
                        </rdf:li>
                        <rdf:li rdf:parseType="Resource">
                           <xmpG:swatchName>R=153 G=153 B=153</xmpG:swatchName>
                           <xmpG:mode>RGB</xmpG:mode>
                           <xmpG:type>PROCESS</xmpG:type>
                           <xmpG:red>153</xmpG:red>
                           <xmpG:green>153</xmpG:green>
                           <xmpG:blue>153</xmpG:blue>
                        </rdf:li>
                        <rdf:li rdf:parseType="Resource">
                           <xmpG:swatchName>R=179 G=179 B=179</xmpG:swatchName>
                           <xmpG:mode>RGB</xmpG:mode>
                           <xmpG:type>PROCESS</xmpG:type>
                           <xmpG:red>179</xmpG:red>
                           <xmpG:green>179</xmpG:green>
                           <xmpG:blue>179</xmpG:blue>
                        </rdf:li>
                        <rdf:li rdf:parseType="Resource">
                           <xmpG:swatchName>R=204 G=204 B=204</xmpG:swatchName>
                           <xmpG:mode>RGB</xmpG:mode>
                           <xmpG:type>PROCESS</xmpG:type>
                           <xmpG:red>204</xmpG:red>
                           <xmpG:green>204</xmpG:green>
                           <xmpG:blue>204</xmpG:blue>
                        </rdf:li>
                        <rdf:li rdf:parseType="Resource">
                           <xmpG:swatchName>R=230 G=230 B=230</xmpG:swatchName>
                           <xmpG:mode>RGB</xmpG:mode>
                           <xmpG:type>PROCESS</xmpG:type>
                           <xmpG:red>230</xmpG:red>
                           <xmpG:green>230</xmpG:green>
                           <xmpG:blue>230</xmpG:blue>
                        </rdf:li>
                        <rdf:li rdf:parseType="Resource">
                           <xmpG:swatchName>R=242 G=242 B=242</xmpG:swatchName>
                           <xmpG:mode>RGB</xmpG:mode>
                           <xmpG:type>PROCESS</xmpG:type>
                           <xmpG:red>242</xmpG:red>
                           <xmpG:green>242</xmpG:green>
                           <xmpG:blue>242</xmpG:blue>
                        </rdf:li>
                     </rdf:Seq>
                  </xmpG:Colorants>
               </rdf:li>
               <rdf:li rdf:parseType="Resource">
                  <xmpG:groupName>Web カラーグループ</xmpG:groupName>
                  <xmpG:groupType>1</xmpG:groupType>
                  <xmpG:Colorants>
                     <rdf:Seq>
                        <rdf:li rdf:parseType="Resource">
                           <xmpG:swatchName>R=63 G=169 B=245</xmpG:swatchName>
                           <xmpG:mode>RGB</xmpG:mode>
                           <xmpG:type>PROCESS</xmpG:type>
                           <xmpG:red>63</xmpG:red>
                           <xmpG:green>169</xmpG:green>
                           <xmpG:blue>245</xmpG:blue>
                        </rdf:li>
                        <rdf:li rdf:parseType="Resource">
                           <xmpG:swatchName>R=122 G=201 B=67</xmpG:swatchName>
                           <xmpG:mode>RGB</xmpG:mode>
                           <xmpG:type>PROCESS</xmpG:type>
                           <xmpG:red>122</xmpG:red>
                           <xmpG:green>201</xmpG:green>
                           <xmpG:blue>67</xmpG:blue>
                        </rdf:li>
                        <rdf:li rdf:parseType="Resource">
                           <xmpG:swatchName>R=255 G=147 B=30</xmpG:swatchName>
                           <xmpG:mode>RGB</xmpG:mode>
                           <xmpG:type>PROCESS</xmpG:type>
                           <xmpG:red>255</xmpG:red>
                           <xmpG:green>147</xmpG:green>
                           <xmpG:blue>30</xmpG:blue>
                        </rdf:li>
                        <rdf:li rdf:parseType="Resource">
                           <xmpG:swatchName>R=255 G=29 B=37</xmpG:swatchName>
                           <xmpG:mode>RGB</xmpG:mode>
                           <xmpG:type>PROCESS</xmpG:type>
                           <xmpG:red>255</xmpG:red>
                           <xmpG:green>29</xmpG:green>
                           <xmpG:blue>37</xmpG:blue>
                        </rdf:li>
                        <rdf:li rdf:parseType="Resource">
                           <xmpG:swatchName>R=255 G=123 B=172</xmpG:swatchName>
                           <xmpG:mode>RGB</xmpG:mode>
                           <xmpG:type>PROCESS</xmpG:type>
                           <xmpG:red>255</xmpG:red>
                           <xmpG:green>123</xmpG:green>
                           <xmpG:blue>172</xmpG:blue>
                        </rdf:li>
                        <rdf:li rdf:parseType="Resource">
                           <xmpG:swatchName>R=189 G=204 B=212</xmpG:swatchName>
                           <xmpG:mode>RGB</xmpG:mode>
                           <xmpG:type>PROCESS</xmpG:type>
                           <xmpG:red>189</xmpG:red>
                           <xmpG:green>204</xmpG:green>
                           <xmpG:blue>212</xmpG:blue>
                        </rdf:li>
                     </rdf:Seq>
                  </xmpG:Colorants>
               </rdf:li>
            </rdf:Seq>
         </xmpTPg:SwatchGroups>
      </rdf:Description>
      <rdf:Description rdf:about=""
            xmlns:pdf="http://ns.adobe.com/pdf/1.3/">
         <pdf:Producer>Adobe PDF library 10.01</pdf:Producer>
      </rdf:Description>
   </rdf:RDF>
</x:xmpmeta>
                                                                                                    
                                                                                                    
                                                                                                    
                                                                                                    
                                                                                                    
                                                                                                    
                                                                                                    
                                                                                                    
                                                                                                    
                                                                                                    
                                                                                                    
                                                                                                    
                                                                                                    
                                                                                                    
                                                                                                    
                                                                                                    
                                                                                                    
                                                                                                    
                                                                                                    
                                                                                                    
                           
<?xpacket end="w"?>
	</metadata>
<g>
	<g>
		<rect x="0.5" y="0.5" fill="#FFFFFF" width="180" height="400"/>
		<rect x="0.5" y="0.5" fill="none" stroke="#210701" stroke-miterlimit="10" width="180" height="400"/>
		<rect x="3.5" y="3.5" fill="none" stroke="#210701" stroke-width="0.5" stroke-miterlimit="10" width="174" height="394"/>
	</g>
	<g>
		<path fill="#210701" d="M58.366,45.931c0.494,0,0.795,0,1.064-0.21c0.12-0.09,0.51-0.645,0.645-0.645
			c0.15,0,1.261,0.9,1.261,1.065c0,0.18-0.36,0.18-0.81,0.18h-5.865c-0.135,0-0.24,0.06-0.24,0.18c0,0.255,1.26,2.235,1.561,2.235
			c0.194,0,1.56-1.23,1.77-1.8c0.105-0.255,0.165-0.405,0.255-0.405c0.104,0,1.351,0.795,1.425,0.96v0.045
			c0,0.149-0.061,0.149-0.585,0.21c-0.42,0.045-1.515,0.689-2.069,1.035c-0.391,0.24-0.436,0.255-0.436,0.345
			c0,0.18,1.936,1.965,4.561,2.37c0.225,0.03,0.27,0.06,0.27,0.12c0,0.06-0.105,0.12-0.255,0.18c-0.36,0.165-0.646,0.375-0.99,0.63
			c-0.045,0.03-0.255,0.226-0.3,0.226c-0.12,0-1.785-0.721-3.016-1.951c-0.465-0.465-0.51-0.525-0.674-0.525
			c-0.09,0-1.17,0.36-1.756,0.57c-0.705,0.24-4.274,1.395-4.5,1.53c-0.06,0.045-0.284,0.285-0.344,0.33
			c-0.031,0.015-0.061,0.015-0.091,0.015c-0.165,0-0.21-0.075-0.569-0.735c-0.045-0.075-0.256-0.42-0.285-0.495
			c-0.03-0.06-0.075-0.165-0.075-0.225c0-0.18,0.226-0.18,0.39-0.18c0.795,0,0.975,0,1.635-0.105
			c0.256-0.045,0.256-0.165,0.256-0.51c0-0.555-0.016-2.94-0.016-3.435c0-0.54-0.09-0.615-0.525-0.615
			c-0.344,0-1.154,0.045-1.455,0.06c-0.045,0-0.18,0.015-0.209,0.015c-0.061,0-0.09-0.029-0.135-0.09l-0.301-0.345
			c-0.06-0.06-0.06-0.075-0.06-0.105c0-0.015,0.015-0.03,0.06-0.03c0.301,0,1.905,0.105,2.266,0.105c0.51,0,0.539-0.15,0.539-0.585
			c0-2.955,0-3.285-0.029-3.854c-0.016-0.255-0.15-1.545-0.15-1.605c0-0.044,0-0.12,0.105-0.12c0.119,0,0.824,0.3,0.99,0.375
			c0.435,0.195,0.629,0.195,0.84,0.195h4.064c0.66,0,0.734,0,0.96-0.255c0.42-0.495,0.465-0.555,0.601-0.555
			c0.09,0,1.395,0.81,1.395,0.99c0,0.225-0.301,0.225-0.795,0.225h-6.436c-0.465,0-0.51,0.135-0.51,0.555
			c0,0.66,0,0.825,0.436,0.825h3.465c0.63,0,0.705,0,0.824-0.104c0.105-0.09,0.496-0.601,0.615-0.601c0.225,0,1.23,0.78,1.23,0.915
			c0,0.18-0.36,0.18-0.795,0.18h-5.34c-0.436,0-0.436,0.27-0.436,0.57c0,0.779,0,0.96,0.465,0.96h3.48c0.615,0,0.675,0,0.81-0.12
			c0.091-0.09,0.495-0.585,0.615-0.585c0.226,0,1.229,0.78,1.229,0.915c0,0.18-0.359,0.18-0.779,0.18h-5.355
			c-0.42,0-0.465,0.195-0.465,0.555c0,0.735,0,0.945,0.45,0.945H58.366z M52.081,46.321c-0.15,0-0.359,0-0.42,0.285
			c-0.016,0.075-0.016,0.915-0.016,1.125c0,0.75,0,1.799,0.031,2.549c0,0.21,0.014,0.36,0.239,0.36c0.195,0,2.415-0.524,2.955-0.69
			c0.63-0.18,0.705-0.21,0.705-0.375c0-0.03-0.03-0.075-0.255-0.436c-0.375-0.63-0.825-1.62-1.051-2.13
			c-0.27-0.615-0.299-0.69-0.6-0.69H52.081z"/>
		<path fill="#210701" d="M51.302,60.676c0,0.12-0.031,0.166-0.181,0.6c-0.21,0.584-0.36,1.14-0.36,1.935
			c0,1.516,0.78,2.61,1.246,2.61c0.254,0,0.314-0.075,0.764-0.825c0.091-0.15,0.346-0.51,0.466-0.51c0.045,0,0.075,0.06,0.075,0.12
			s-0.03,0.254-0.045,0.3c-0.166,0.689-0.195,0.825-0.195,1.14c0,0.255,0.045,0.45,0.09,0.6c0.045,0.165,0.12,0.42,0.12,0.495
			c0,0.301-0.315,0.465-0.57,0.465c-0.96,0-2.85-1.575-2.85-4.44c0-0.42,0.21-2.265,0.21-2.655c0-0.3-0.061-0.705-0.105-0.87
			c-0.104-0.375-0.119-0.419-0.119-0.509c0-0.046,0.06-0.061,0.09-0.061C50.626,59.071,51.302,60.271,51.302,60.676z M58.621,61.021
			c0.765,0.616,1.335,1.681,1.335,2.865c0,0.285-0.03,0.99-0.75,0.99c-0.735,0-0.735-0.81-0.735-1.005c0-1.245,0-1.875-0.795-2.67
			c-0.12-0.12-0.72-0.585-0.72-0.675c0-0.045,0.061-0.075,0.135-0.075C57.106,60.451,57.976,60.496,58.621,61.021z"/>
		<path fill="#210701" d="M54.871,75.031c0,0,0.181,3.601,2.175,6.87c0.255,0.405,1.95,3.149,4.26,3.75
			c0.045,0.015,0.15,0.044,0.15,0.104c0,0.075-0.045,0.075-0.525,0.18c-0.525,0.12-0.885,0.345-1.035,0.45
			c-0.285,0.21-0.33,0.255-0.375,0.255c-0.06,0-1.965-1.185-3.42-4.365c-0.27-0.6-1.229-2.655-1.439-5.805
			c-0.016-0.165-0.016-0.18-0.075-0.18c-0.09,0-0.09,0.06-0.149,0.6c-0.045,0.48-0.436,3.975-1.92,6.419
			c-1.605,2.671-4.23,3.57-4.365,3.57c-0.045,0-0.09-0.015-0.09-0.075c0-0.045,0.074-0.105,0.195-0.18
			c0.869-0.585,2.549-1.92,3.555-3.855c1.709-3.254,1.709-7.544,1.709-7.709c0-0.436,0-0.6-0.06-0.915
			c-0.015-0.045-0.06-0.255-0.06-0.3c0-0.075,0.074-0.12,0.119-0.12c0.09,0,0.735,0.21,0.871,0.24
			c0.719,0.195,1.02,0.285,1.02,0.555c0,0.165-0.12,0.21-0.255,0.24c-0.12,0.015-0.195,0.03-0.24,0.09
			C54.886,74.896,54.871,74.941,54.871,75.031z"/>
		<path fill="#210701" d="M53.656,93.931c0.465,0,0.465-0.18,0.465-0.93c0-1.035-0.06-1.484-0.09-1.755
			c-0.015-0.075-0.12-0.405-0.12-0.479c0-0.075,0.061-0.105,0.165-0.105s1.62,0.149,1.62,0.524c0,0.09-0.315,0.375-0.36,0.45
			c-0.104,0.225-0.135,1.41-0.135,1.725c0,0.391,0.015,0.57,0.479,0.57h1.936c0.689,0,0.765,0,0.959-0.255
			c0.451-0.615,0.496-0.675,0.631-0.675c0.164,0,1.365,1.005,1.365,1.14c0,0.195-0.346,0.195-0.795,0.195h-4.11
			c-0.165,0-0.375,0-0.45,0.255c-0.029,0.12-0.029,2.46-0.029,2.895c0,0.465,0.029,0.645,0.494,0.645h1.485
			c0.705,0,0.78,0,0.96-0.255c0.465-0.615,0.51-0.675,0.645-0.675c0.166,0,1.365,1.005,1.365,1.14c0,0.195-0.345,0.195-0.811,0.195
			h-3.629c-0.436,0-0.48,0.149-0.48,0.51c0,0.45,0.016,3.675,0.03,3.75c0.06,0.225,0.239,0.255,0.479,0.255h2.745
			c0.69,0,0.765,0,0.96-0.255c0.45-0.615,0.495-0.69,0.631-0.69c0.164,0,1.364,1.005,1.364,1.14c0,0.195-0.345,0.195-0.795,0.195
			h-9.96c-1.32,0-1.754,0.03-1.89,0.045c-0.06,0-0.271,0.03-0.33,0.03c-0.045,0-0.075-0.03-0.12-0.09l-0.3-0.345
			c-0.06-0.075-0.06-0.075-0.06-0.105s0.015-0.03,0.06-0.03c0.09,0,0.556,0.045,0.66,0.045c0.735,0.03,1.35,0.06,2.055,0.06h2.864
			c0.271,0,0.496,0,0.496-0.54v-3.615c0-0.18-0.09-0.359-0.436-0.359h-1.755c-1.319,0-1.755,0.029-1.89,0.029
			c-0.061,0.016-0.27,0.046-0.314,0.046c-0.061,0-0.091-0.046-0.136-0.105l-0.3-0.345c-0.045-0.06-0.061-0.075-0.061-0.089
			c0-0.03,0.016-0.045,0.061-0.045c0.105,0,0.555,0.045,0.66,0.06c0.734,0.03,1.35,0.045,2.055,0.045h1.665
			c0.45,0,0.45-0.225,0.45-0.465v-2.94c-0.03-0.284-0.166-0.39-0.436-0.39h-2.475c-0.465,0-0.495,0.045-0.87,0.675
			c-0.825,1.38-1.845,2.61-2.085,2.61c-0.061,0-0.074-0.044-0.074-0.09c0-0.03,0.239-0.48,0.375-0.72
			c1.649-3.045,1.934-4.979,1.979-5.28c0.031-0.285,0.061-0.315,0.091-0.315s1.47,0.585,1.47,0.841c0,0.119-0.48,0.449-0.54,0.539
			c-0.09,0.12-0.479,1.005-0.479,1.14c0,0.195,0.18,0.195,0.375,0.195H53.656z"/>
		<path fill="#210701" d="M50.026,115.666c0-0.45,0.42-0.93,1.439-2.115c0.676-0.78,1.275-2.025,1.275-2.235
			c0-0.089-0.105-0.105-0.165-0.105c-0.149,0-0.765,0.12-0.899,0.12c-0.57,0-1.336-0.735-1.336-1.32c0-0.045,0-0.105,0.09-0.105
			s0.48,0.239,0.57,0.285c0.18,0.089,0.585,0.27,0.99,0.27c1.23,0,1.23-0.404,1.23-0.705c0-0.09-0.016-0.33-0.121-0.524
			c-0.045-0.075-0.359-0.345-0.359-0.436c0-0.12,0.391-0.239,0.66-0.239c0.359,0,0.734,0.135,0.765,0.464
			c0.015,0.195,0.075,0.226,0.675,0.271c0.105,0,0.676,0.075,0.676,0.39c0,0.495-1.096,0.915-1.785,1.185
			c-0.226,0.09-0.24,0.12-0.57,0.885c-0.359,0.825-0.42,0.945-0.811,1.62c-0.074,0.135-0.104,0.18-0.104,0.24
			c0,0.029,0.015,0.06,0.06,0.06s0.33-0.105,0.465-0.165c0.166-0.075,0.361-0.12,0.586-0.12c0.195,0,0.885,0.03,1.274,0.915
			c0.104,0.255,0.12,0.285,0.15,0.285c0.045,0,0.54-0.69,0.614-0.81c0.496-0.69,1.471-2.055,2.775-2.055
			c0.825,0,1.41,0.705,1.41,1.335c0,0.705-1.186,1.2-2.115,1.605c-0.375,0.166-2.07,0.84-2.34,1.005
			c-0.24,0.15-0.255,0.315-0.255,0.63c0,0.135,0.03,0.765,0.03,0.9c0,0.24,0,1.095-0.555,1.095c-0.406,0-0.466-0.495-0.466-0.765
			c0-0.15,0.046-0.87,0.046-0.885c0-0.06,0-0.18-0.105-0.18c-0.12,0-1.455,0.93-1.455,1.785c0,1.035,1.5,1.035,1.936,1.035
			c0.375,0,0.659-0.03,0.959-0.09c0.211-0.03,1.17-0.27,1.365-0.27c0.314,0,0.734,0.15,0.734,0.51c0,0.93-2.324,0.99-2.684,0.99
			c-1.906,0-2.91-0.78-2.91-1.965c0-0.959,0.569-1.44,1.979-2.58c0.149-0.12,0.226-0.3,0.226-0.525c0-0.675-0.121-1.515-0.721-1.515
			c-0.57,0-1.455,0.69-1.845,1.59c-0.165,0.375-0.33,0.735-0.81,0.735C50.312,116.161,50.026,116.071,50.026,115.666z
			 M53.851,109.996c0.03,0,0.75-0.195,0.75-0.36c0-0.195-0.375-0.225-0.51-0.225c-0.21,0-0.27,0.42-0.27,0.48
			S53.821,109.996,53.851,109.996z M55.216,114.856c0,0.03,0.016,0.075,0.061,0.075s3-1.199,3-2.19c0-0.375-0.33-0.45-0.525-0.45
			C56.506,112.291,55.216,114.616,55.216,114.856z"/>
		<path fill="#210701" d="M51.496,127.081c-0.165,0-0.284,0-0.284,0.075c0,0.06,0.059,0.12,0.225,0.239
			c1.154,0.826,1.274,0.931,1.274,1.38c0,0.285-0.21,0.63-0.524,0.63c-0.256,0-0.45-0.12-0.555-0.315
			c-0.046-0.09-0.166-0.614-0.195-0.72c-0.465-1.29-0.825-1.29-0.975-1.29c-0.406,0-0.436,0.03-0.691,0.36
			c-0.449,0.555-1.664,2.04-1.979,2.04c-0.016,0-0.046,0-0.046-0.046c0-0.089,0.091-0.209,0.104-0.24
			c0.181-0.254,0.375-0.584,0.436-0.69c0.66-1.17,1.29-2.414,1.471-3.33c0.074-0.36,0.074-0.406,0.164-0.406
			c0.075,0,1.41,0.346,1.41,0.646c0,0.09-0.42,0.346-0.48,0.42c-0.119,0.135-0.479,0.675-0.479,0.75c0,0.09,0.075,0.09,0.285,0.09
			h1.425c0.615,0,0.66,0,0.93-0.315c0.271-0.301,0.391-0.45,0.541-0.45c0.149,0,1.109,0.734,1.109,0.96c0,0.18-0.21,0.21-0.975,0.21
			H51.496z M52.636,129.661c0.135,0,0.315-0.016,0.436-0.075c0.074-0.045,0.435-0.33,0.525-0.33c0.254,0,0.854,0.511,0.854,0.69
			c0,0.06-0.21,0.315-0.24,0.39c-0.06,0.135-0.06,0.435-0.06,3.195c0,0.915-0.6,0.915-0.646,0.915c-0.3,0-0.345-0.165-0.39-0.3
			c-0.061-0.164-0.18-0.164-0.436-0.164h-1.904c-0.24,0-0.57,0-0.57,0.375v1.695c0,0.255,0,0.57,0.346,0.57
			c0.104,0,0.944-0.225,1.08-0.27c1.109-0.33,1.229-0.36,1.229-0.48c0-0.21-0.765-1.02-0.765-1.035c0-0.03,0.015-0.075,0.074-0.075
			c0.27,0,2.325,1.05,2.325,2.385c0,0.225-0.149,0.585-0.556,0.585c-0.344,0-0.494-0.24-0.659-0.795
			c-0.149-0.494-0.165-0.555-0.3-0.555c-0.105,0-2.67,1.095-3.436,1.5c-0.149,0.075-0.885,0.585-0.93,0.585
			c-0.27,0-0.72-1.125-0.72-1.26c0-0.03,0.63-0.089,0.704-0.105c0.406-0.06,0.57-0.104,0.615-0.27
			c0.09-0.271,0.076-4.365,0.076-5.205c0-0.345-0.091-2.175-0.091-2.385c0-0.06,0-0.105,0.06-0.105c0.09,0,0.166,0.03,0.78,0.345
			c0.165,0.075,0.36,0.18,0.705,0.18H52.636z M52.591,131.596c0.301,0,0.48,0,0.555-0.194c0.045-0.091,0.045-0.675,0.045-0.885
			c0-0.466-0.225-0.466-0.6-0.466h-1.785c-0.299,0-0.465,0-0.555,0.195c-0.045,0.09-0.045,0.675-0.045,0.885
			c0,0.465,0.225,0.465,0.6,0.465H52.591z M50.837,131.986c-0.631,0-0.631,0.105-0.631,0.975c0,0.585,0.09,0.615,0.631,0.615h1.694
			c0.63,0,0.63-0.061,0.63-0.811c0-0.689,0-0.78-0.63-0.78H50.837z M56.446,127.066c-0.405,0-0.51,0-0.735,0.285
			c-0.976,1.2-1.71,1.709-1.784,1.709c-0.031,0-0.046-0.029-0.046-0.044c0-0.045,0.226-0.405,0.255-0.466
			c0.916-1.665,1.471-2.819,1.575-3.375c0.06-0.345,0.06-0.39,0.149-0.39c0.076,0,0.811,0.195,1.156,0.3
			c0.254,0.09,0.42,0.136,0.42,0.3c0,0.134-0.091,0.165-0.391,0.255c-0.314,0.105-0.705,0.87-0.705,0.916
			c0,0.12,0.061,0.12,0.256,0.12h1.889c0.705,0,0.78,0,0.961-0.255c0.359-0.51,0.39-0.57,0.569-0.57c0.181,0,1.32,0.781,1.32,1.005
			c0,0.21-0.3,0.21-0.795,0.21h-2.386c-0.194,0-0.254,0-0.254,0.06c0,0.075,0.074,0.15,0.225,0.27
			c0.585,0.48,0.975,0.96,0.975,1.366c0,0.359-0.255,0.72-0.63,0.72c-0.165,0-0.375-0.135-0.42-0.3
			c-0.03-0.135-0.135-0.615-0.165-0.735c-0.314-1.38-0.66-1.38-0.885-1.38H56.446z M58.966,129.691c0.27,0,0.346,0,0.48-0.18
			c0.285-0.375,0.314-0.42,0.435-0.42c0.21,0,1.035,0.57,1.035,0.78c0,0.075-0.285,0.345-0.33,0.405
			c-0.181,0.27-0.181,0.63-0.181,3.84c0,1.274-0.015,1.665-0.254,2.069c-0.271,0.45-0.976,0.66-1.035,0.66
			c-0.061,0-0.09-0.015-0.135-0.075c-0.045-0.06-0.226-0.36-0.271-0.42c-0.12-0.135-0.854-0.69-0.96-0.765
			c0-0.045,0.029-0.06,0.09-0.06c0.105,0,0.6,0.03,0.721,0.03c0.764,0,0.809-0.345,0.84-0.614c0.029-0.375,0.104-1.681,0.104-4.186
			c0-0.57-0.03-0.66-0.614-0.66h-1.396c-0.3,0-0.54,0-0.585,0.285c-0.03,0.15-0.03,1.86-0.03,2.16c0,0.705,0.03,4.185,0.03,4.965
			c0,0.3,0,0.405-0.225,0.615c-0.195,0.195-0.436,0.286-0.601,0.286c-0.285,0-0.345-0.181-0.345-0.42c0-0.03,0-0.135,0.015-0.285
			c0.045-0.975,0.149-5.46,0.149-6.644c0-0.256-0.029-1.44-0.029-1.65c0-0.165,0-0.33,0.15-0.33c0.135,0,0.584,0.284,0.765,0.405
			c0.33,0.194,0.42,0.21,0.72,0.21H58.966z"/>
		<path fill="#210701" d="M52.007,154.366c-0.406,0-0.451,0.21-0.496,0.524c-0.06,0.375-0.765,0.465-0.944,0.465
			c-0.33,0-0.345-0.21-0.345-0.39c0-0.33,0.074-1.965,0.09-2.34c0.029-1.695,0.029-3.015,0.029-7.53c0-0.735,0-1.185-0.029-1.799
			c-0.016-0.15-0.12-0.841-0.12-1.005c0-0.06,0.015-0.15,0.09-0.15c0.149,0,0.42,0.166,1.035,0.51
			c0.374,0.226,0.735,0.226,1.02,0.226h4.604c0.51,0,0.631-0.075,0.826-0.316c0.344-0.389,0.375-0.449,0.465-0.449
			c0.119,0,1.26,0.811,1.26,1.021c0,0.09-0.045,0.165-0.226,0.33c-0.284,0.285-0.3,0.315-0.3,2.145c0,0.21,0.03,6.48,0.045,6.871
			c0,0.284,0.061,1.649,0.061,1.965c0,0.419,0,0.524-0.256,0.675c-0.33,0.21-0.645,0.254-0.75,0.254
			c-0.314,0-0.314-0.225-0.314-0.54c0-0.33-0.12-0.465-0.45-0.465H52.007z M51.991,143.281c-0.375,0-0.465,0.15-0.465,0.42v2.16
			c0,0.255,0.015,0.495,0.465,0.495h5.369c0.211,0,0.406-0.045,0.451-0.285c0.014-0.075,0.014-2.04,0.014-2.295
			c0-0.256,0-0.495-0.465-0.495H51.991z M57.346,150.136c0.3,0,0.479-0.06,0.479-0.435c0-0.391,0.031-2.085,0.031-2.431
			c0-0.329-0.016-0.524-0.48-0.524h-5.369c-0.451,0-0.48,0.195-0.48,0.495c0,0.345,0,2.52,0.015,2.595c0.03,0.3,0.3,0.3,0.466,0.3
			H57.346z M57.315,153.976c0.465,0,0.48-0.195,0.48-0.585c0-0.39,0.029-2.19,0.016-2.489c-0.031-0.315-0.211-0.375-0.48-0.375
			h-5.324c-0.406,0-0.48,0.15-0.48,0.54c0,0.36,0,2.55,0.015,2.64c0.06,0.24,0.255,0.27,0.466,0.27H57.315z"/>
		<path fill="#210701" d="M51.031,168.106c0.255,0,0.39-0.24,0.72-1.17c0.09-0.254,0.135-0.375,0.21-0.375s0.075,0.15,0.075,0.181
			c0,0.165-0.346,1.92-0.346,2.279c0,0.255,0.211,0.706,0.24,0.78c0.105,0.21,0.181,0.466,0.181,0.66c0,0.3-0.24,0.51-0.495,0.51
			c-0.93,0-1.62-2.55-1.62-3.989c0-0.961,0.12-1.396,0.63-3.27c0.256-0.915,0.256-1.29,0.256-1.56c0-0.479-0.091-0.885-0.15-1.065
			c-0.016-0.045-0.09-0.225-0.09-0.27s0.06-0.075,0.119-0.075c0.69,0,1.32,1.365,1.32,1.905c0,0.164,0,0.18-0.285,0.69
			c-0.164,0.314-1.154,2.519-1.154,3.869C50.642,167.656,50.791,168.106,51.031,168.106z M59.745,169.606
			c0,0.585-0.449,0.765-2.549,0.765c-1.471,0-2.025-0.375-2.34-0.675c-0.075-0.075-0.465-0.464-0.465-0.75c0-0.03,0-0.15,0.074-0.15
			c0.061,0,0.301,0.181,0.36,0.21c0.435,0.226,1.05,0.255,1.604,0.255c0.391,0,0.93,0,1.305-0.045c0.211-0.015,1.261-0.12,1.32-0.12
			C59.626,169.096,59.745,169.426,59.745,169.606z M59.041,162.302c0,0.734-1.665,0.734-1.845,0.734
			c-1.695,0-2.625-0.915-2.625-1.11c0-0.03,0.015-0.075,0.105-0.075c0.045,0,0.225,0.06,0.42,0.105c0.344,0.075,0.75,0.09,1.02,0.09
			c0.734,0,1.439-0.15,1.65-0.225c0.449-0.165,0.494-0.18,0.645-0.165C58.681,161.701,59.041,161.956,59.041,162.302z"/>
		<path fill="#210701" d="M52.351,183.166c-0.164,0-0.42,0-0.42,0.195c0,0.075,0.016,0.15,0.51,0.42
			c0.871,0.465,1.471,0.78,1.471,1.56c0,0.33-0.24,0.675-0.525,0.675c-0.195,0-0.225-0.075-0.539-0.765
			c-0.076-0.15-0.586-1.275-0.84-1.275c-0.076,0-0.091,0.12-0.091,0.165c0,0.36,0.06,2.115,0.06,2.52
			c0,0.315,0.045,1.89,0.045,2.235c0,0.195,0,0.84-0.614,0.84c-0.33,0-0.479-0.12-0.479-0.54c0-0.075,0.045-0.825,0.045-0.944
			c0.06-0.976,0.074-2.101,0.074-3.075c0-0.391,0-0.42-0.09-0.42s-0.119,0.045-0.345,0.57c-0.72,1.635-2.399,3.494-2.851,3.494
			c-0.015,0-0.045-0.015-0.045-0.045c0-0.045,0.391-0.57,0.465-0.675c1.531-2.22,2.25-4.5,2.25-4.68c0-0.255-0.239-0.255-0.33-0.255
			c-0.27,0-1.125,0-1.5,0.03c-0.045,0.015-0.27,0.045-0.329,0.045c-0.046,0-0.075-0.045-0.12-0.105l-0.301-0.345
			c-0.059-0.075-0.059-0.075-0.059-0.09c0-0.03,0.029-0.044,0.059-0.044c0.076,0,0.451,0.044,0.541,0.044
			c0.3,0.015,1.395,0.06,1.875,0.06c0.75,0,0.765,0,0.765-0.645c0-0.135,0-0.661-0.045-1.155c-0.015-0.045-0.075-0.315-0.075-0.375
			c0-0.12,0.135-0.15,0.21-0.15c0.255,0,1.351,0.42,1.351,0.676c0,0.089-0.36,0.375-0.42,0.449c-0.105,0.12-0.105,0.511-0.105,0.705
			c0,0.255,0.015,0.495,0.48,0.495c0.569,0,0.614-0.029,0.854-0.359c0.329-0.451,0.375-0.511,0.45-0.511
			c0.119,0,1.244,0.81,1.244,1.065c0,0.21-0.299,0.21-0.795,0.21H52.351z M55.291,177.046c0,0.15-0.181,0.165-0.285,0.165
			c-0.675,0-0.96,0-1.515,0.06c-0.645,0.061-3.495,0.391-4.08,0.45c-0.27,0.03-1.005,0.075-1.23,0.075c-0.074,0-0.164,0-0.164-0.06
			c0-0.105,0.074-0.12,0.779-0.27c2.115-0.435,3.24-0.675,4.455-1.199c0.105-0.045,0.585-0.301,0.689-0.301
			c0.121,0,0.166,0.045,0.69,0.45C55.216,176.881,55.291,176.941,55.291,177.046z M48.706,179.477
			c-0.045-0.391-0.15-0.661-0.24-0.871c-0.045-0.06-0.225-0.39-0.225-0.45c0-0.015,0.016-0.03,0.03-0.03
			c0.345,0,1.59,0.555,1.59,1.89c0,0.33-0.104,0.765-0.511,0.765C48.871,180.781,48.826,180.511,48.706,179.477z M51.031,179.296
			c-0.06-0.6-0.12-0.96-0.255-1.23c-0.061-0.12-0.105-0.255-0.105-0.27c0-0.015,0.03-0.029,0.045-0.029
			c0.271,0,1.455,0.704,1.455,1.71c0,0.494-0.359,0.809-0.675,0.809C51.136,180.285,51.136,180.181,51.031,179.296z M55.231,178.576
			c0,0.104-0.48,0.225-0.555,0.27c-0.346,0.195-1.576,1.561-1.936,1.561c-0.03,0-0.045-0.03-0.045-0.046
			c0-0.09,1.005-1.875,1.064-2.265c0.016-0.06,0.045-0.285,0.061-0.329c0-0.046,0.045-0.075,0.09-0.075
			c0.225,0,0.615,0.165,0.84,0.299C55.11,178.201,55.231,178.501,55.231,178.576z M61.516,185.386c0,0.18-0.075,0.195-0.72,0.36
			c-0.225,0.06-1.846,1.2-2.189,1.411c-1.951,1.139-3.195,1.544-4.516,1.979c-0.48,0.15-0.795,0.211-0.854,0.211
			c-0.046,0-0.104,0-0.104-0.061c0-0.075,0.074-0.12,0.719-0.45c3.735-1.905,5.325-3.345,6.12-4.259
			c0.075-0.075,0.285-0.495,0.375-0.495c0.181,0,0.3,0.135,0.39,0.24s0.465,0.57,0.555,0.66
			C61.336,185.041,61.516,185.251,61.516,185.386z M60.78,177.316c0,0.135-0.029,0.15-0.494,0.27c-0.135,0.03-1.11,0.99-1.32,1.17
			c-3.015,2.655-4.35,3.09-4.439,3.09c-0.016,0-0.03-0.015-0.03-0.045c0-0.06,1.455-1.275,1.726-1.53
			c1.199-1.169,2.999-3.225,3.044-3.839c0.015-0.165,0.015-0.3,0.165-0.3c0.105,0,0.165,0.061,0.375,0.225
			c0.256,0.21,0.66,0.525,0.705,0.57C60.616,177.001,60.78,177.151,60.78,177.316z M61.081,181.486c0,0.15-0.061,0.15-0.615,0.225
			c-0.12,0.015-0.21,0.105-0.346,0.21c-1.694,1.455-5.084,3.12-5.579,3.12c-0.015,0-0.03-0.016-0.03-0.03
			c0-0.104,0.961-0.75,1.141-0.87c2.399-1.604,3.914-3.36,4.004-3.645c0.045-0.18,0.076-0.271,0.211-0.271
			c0.06,0,0.164,0.045,0.225,0.12c0.57,0.556,0.63,0.615,0.75,0.735C61.036,181.261,61.081,181.381,61.081,181.486z"/>
		<path fill="#210701" d="M57.706,202.261c0-1.23-1.035-2.279-2.535-2.279c-1.98,0-3.255,2.055-3.525,2.52
			c-0.299,0.51-0.449,0.795-0.854,0.795c-0.36,0-0.435-0.3-0.435-0.42c0-0.375,0.119-0.705,1.185-1.95
			c0.976-1.141,1.125-1.335,3.39-4.515c0.495-0.705,0.705-1.02,0.705-1.185c0-0.105-0.105-0.21-0.285-0.21
			c-0.555,0-1.439,0.75-1.694,0.96c-0.601,0.495-0.81,0.54-1.065,0.54c-0.705,0-1.17-0.96-1.17-1.035
			c0-0.046,0.045-0.046,0.36-0.046c0.795,0,1.905-0.359,2.325-0.54c0.93-0.404,1.035-0.449,1.365-0.449
			c0.6,0,1.574,0.375,1.574,1.035c0,0.435-0.345,0.675-1.064,1.17c-1.08,0.765-2.4,2.819-2.4,3.074c0,0.045,0.045,0.105,0.09,0.105
			c0.09-0.03,0.285-0.105,0.375-0.135c0.48-0.18,0.9-0.24,1.32-0.24c1.92,0,3.375,1.425,3.375,3.12c0,1.904-1.846,3.239-3.75,3.239
			c-1.485,0-2.551-0.795-2.551-1.545c0-0.54,0.631-1.215,1.486-1.215c0.704,0,1.289,0.42,1.709,0.96
			c0.211,0.27,0.301,0.405,0.51,0.405C56.655,204.421,57.706,203.506,57.706,202.261z M53.851,203.611
			c-0.359,0-0.629,0.284-0.629,0.524c0,0.39,0.645,0.705,1.289,0.705c0.15,0,0.256-0.105,0.256-0.27
			C54.767,204.21,54.406,203.611,53.851,203.611z"/>
		<path fill="#210701" d="M58.142,219.315c-0.046,0-0.166,0-0.166,0.105c0,0.045,0.12,0.24,0.12,0.285
			c0,0.09-0.075,0.164-0.284,0.225c-0.181,0.061-0.256,0.12-0.871,0.75c-0.149,0.165-1.004,0.885-1.004,1.005
			c0,0.091,0.045,0.105,0.885,0.375c1.274,0.39,1.92,0.631,1.92,1.261c0,0.375-0.315,0.539-0.57,0.539
			c-0.51,0-2.67-1.484-3.24-1.484c-0.195,0-1.125,0.435-1.334,0.51c-2.146,0.795-3.15,0.779-4.455,0.779
			c-0.045,0-0.09-0.014-0.09-0.045c0-0.044,2.01-0.539,2.385-0.645c0.93-0.255,2.43-0.795,2.43-1.095
			c0-0.104-0.061-0.136-0.615-0.345c-0.18-0.075-0.811-0.33-0.93-0.33c-0.075,0-0.12,0-0.195,0.06
			c-0.21,0.195-0.3,0.271-0.525,0.271c-0.344,0-0.614-0.256-0.614-0.405c0-0.24,1.274-1.38,1.274-1.649
			c0-0.166-0.119-0.166-0.209-0.166h-1.336c-0.359,0-1.365,0-1.89,0.045c-0.045,0-0.271,0.03-0.315,0.03
			c-0.06,0-0.09-0.03-0.135-0.09l-0.285-0.345c-0.029-0.03-0.074-0.075-0.074-0.105c0-0.029,0.029-0.029,0.06-0.029
			c0.091,0,0.556,0.045,0.66,0.045c0.42,0.015,1.2,0.06,2.055,0.06h1.56c0.406,0,0.496-0.135,0.69-0.42
			c0.165-0.226,0.72-1.005,0.72-1.17c0-0.15-0.15-0.15-0.225-0.15h-0.975c-0.271,0-0.315,0.091-0.36,0.195
			c-0.149,0.39-0.646,0.479-0.765,0.479c-0.346,0-0.36-0.284-0.36-0.494c0-0.105,0.03-0.615,0.06-0.931
			c0.016-0.3,0.016-1.47,0.016-1.829c0-0.256-0.016-0.541-0.03-0.721c0-0.09-0.09-0.51-0.09-0.6c0-0.075,0.075-0.075,0.12-0.075
			c0.061,0,0.645,0.225,0.84,0.3c0.24,0.09,0.359,0.105,0.585,0.105h3.915c0.285,0,0.375,0,0.585-0.225
			c0.18-0.195,0.255-0.271,0.329-0.271c0.076,0,0.871,0.585,1.006,0.689c0.045,0.046,0.074,0.105,0.074,0.195
			c0,0.105-0.029,0.136-0.285,0.33c-0.164,0.136-0.194,0.255-0.194,0.63c0,0.314,0.149,1.905,0.149,1.98
			c0,0.435-0.479,0.63-0.764,0.63c-0.301,0-0.361-0.12-0.466-0.3c-0.045-0.091-0.225-0.091-0.3-0.091h-1.845
			c-0.06,0-0.165,0-0.165,0.091c0,0.045,0.015,0.06,0.195,0.24c0.149,0.135,0.254,0.225,0.254,0.329c0,0.12-0.014,0.12-0.42,0.21
			c-0.119,0.016-0.539,0.585-0.539,0.721c0,0.149,0.119,0.149,0.225,0.149h4.275c0.629,0,0.705,0,0.84-0.12
			c0.104-0.105,0.569-0.81,0.75-0.81c0.149,0,1.244,0.975,1.244,1.11c0,0.209-0.3,0.209-0.795,0.209H58.142z M50.056,212.296
			c-0.33,0-0.33,0.061-0.33,0.721c0,0.419-0.209,1.334-0.93,1.334c-0.209,0-0.675-0.119-0.675-0.51c0-0.225,0.06-0.284,0.525-0.945
			c0.255-0.345,0.375-0.944,0.375-1.185c0-0.045-0.06-0.255-0.06-0.3c0-0.075,0.045-0.09,0.074-0.09c0.135,0,0.24,0.15,0.436,0.39
			c0.119,0.165,0.345,0.195,0.51,0.195h3.734c0.375,0,0.391-0.165,0.391-0.511c0-0.149-0.016-0.359-0.03-0.51
			c-0.015-0.089-0.136-0.524-0.136-0.615c0-0.074,0.061-0.074,0.091-0.074c0.12,0,0.69,0.135,0.81,0.15
			c0.465,0.089,0.689,0.149,0.689,0.314c0,0.105-0.029,0.12-0.27,0.359c-0.09,0.105-0.104,0.301-0.104,0.451
			c0,0.27,0.03,0.435,0.374,0.435h3.466c0.18,0,0.39,0,0.524-0.104c0.061-0.031,0.301-0.33,0.375-0.33c0.09,0,1.44,0.854,1.44,1.185
			c0,0.271-0.255,0.345-0.45,0.345c-0.12,0-0.705-0.105-0.84-0.105c-0.285,0-0.6,0.181-0.825,0.315
			c-0.03,0.016-0.315,0.21-0.36,0.21c-0.015,0-0.015-0.029-0.015-0.045c0-0.135,0.345-0.705,0.345-0.84c0-0.24-0.194-0.24-0.33-0.24
			H50.056z M56.536,215.206c0.375,0,0.404-0.135,0.404-0.479c0-0.615,0-0.721-0.42-0.721h-3.885c-0.404,0-0.42,0.136-0.42,0.601
			c0,0.45,0,0.6,0.42,0.6H56.536z M52.651,215.597c-0.436,0-0.436,0.135-0.436,0.63c0,0.404,0,0.554,0.436,0.554h3.899
			c0.421,0,0.421-0.135,0.421-0.629c0-0.405,0-0.555-0.421-0.555H52.651z M54.121,219.315c-0.36,0-0.511,0.045-0.705,0.301
			c-0.104,0.135-0.854,1.125-0.854,1.185c0,0.12,0.119,0.149,0.209,0.181c0.315,0.074,1.59,0.389,1.771,0.389
			c0.226,0,0.375,0,1.274-0.959c0.195-0.195,0.721-0.78,0.721-0.945c0-0.15-0.105-0.15-0.21-0.15H54.121z"/>
		<path fill="#210701" d="M58.336,229.036c0.705,0,0.78,0,0.93-0.226c0.375-0.554,0.405-0.614,0.525-0.614
			c0.135,0,1.364,0.87,1.364,1.035c0,0.21-0.299,0.21-0.81,0.21h-9.944c-0.375,0-0.375,0.271-0.375,0.6
			c0,5.686-0.016,6.78-0.795,8.43c-0.405,0.855-1.125,1.785-1.275,1.785c-0.015,0-0.029-0.015-0.029-0.045s0.194-0.435,0.225-0.511
			c0.54-1.334,0.885-2.534,0.885-6.974c0-0.556,0-1.98-0.15-3.465c-0.015-0.105-0.104-0.57-0.104-0.675
			c0-0.076,0.015-0.121,0.104-0.121s0.391,0.166,0.99,0.465c0.18,0.09,0.42,0.105,0.525,0.105h3.225c0.12,0,0.391-0.06,0.391-0.375
			c0-0.104-0.016-0.39-0.076-0.66c-0.014-0.074-0.149-0.39-0.149-0.465c0-0.06,0.03-0.105,0.12-0.105
			c0.045,0,1.47,0.376,1.515,0.391c0.06,0.029,0.136,0.09,0.136,0.18c0,0.091-0.076,0.15-0.195,0.256
			c-0.105,0.074-0.195,0.149-0.195,0.39c0,0.39,0.359,0.39,0.391,0.39H58.336z M54.256,235.696c0.39,0,0.39-0.24,0.39-0.886
			c0-0.794,0-0.869-0.6-0.869c-0.285,0-0.314,0.104-0.375,0.359c-0.074,0.256-0.555,0.435-0.705,0.435c-0.255,0-0.3-0.329-0.3-0.435
			c0-0.225,0.075-1.185,0.075-1.395c0-0.735-0.03-0.93-0.45-0.93c-0.315,0-0.87,0.029-1.155,0.044
			c-0.045,0.016-0.18,0.03-0.209,0.03c-0.061,0-0.09-0.03-0.136-0.09l-0.3-0.345c-0.045-0.075-0.061-0.075-0.061-0.105
			c0-0.029,0.016-0.029,0.061-0.029c0.27,0,1.484,0.09,1.74,0.09c0.164,0,0.435,0,0.435-0.42c0-0.27-0.045-0.675-0.075-0.854
			c-0.015-0.075-0.119-0.421-0.119-0.466c0-0.061,0.06-0.074,0.135-0.074c0.029,0,1.365,0.239,1.365,0.465
			c0,0.06-0.016,0.089-0.181,0.285c-0.09,0.104-0.135,0.165-0.135,0.435c0,0.329,0,0.645,0.39,0.645h2.13
			c0.39,0,0.39-0.315,0.39-0.569c0-0.24-0.029-0.615-0.045-0.69c-0.015-0.075-0.164-0.404-0.164-0.479
			c0-0.045,0.045-0.076,0.135-0.076c0.06,0,1.02,0.226,1.215,0.286c0.09,0.015,0.24,0.089,0.24,0.194
			c0,0.091-0.226,0.315-0.346,0.421c-0.074,0.074-0.074,0.374-0.074,0.449c0,0.149,0,0.465,0.39,0.465h0.345
			c0.689,0,0.78,0,0.885-0.194c0.36-0.646,0.405-0.72,0.555-0.72c0.166,0,1.201,0.824,1.201,1.034c0,0.271-0.24,0.271-0.826,0.271
			h-2.174c-0.391,0-0.391,0.285-0.391,0.435c0,0.195,0.061,1.05,0.061,1.23c0,0.81-0.69,0.81-0.735,0.81
			c-0.33,0-0.36-0.15-0.39-0.36c-0.03-0.119-0.09-0.149-0.285-0.149H55.44c-0.09,0-0.284,0-0.284,0.135s0.329,0.18,0.465,0.194
			c0.12,0,0.405,0.03,0.405,0.211c0,0.119-0.03,0.135-0.256,0.314c-0.119,0.105-0.135,0.285-0.135,0.39c0,0.136,0,0.511,0.391,0.511
			h1.965c0.3,0,0.404-0.105,0.51-0.225c0.045-0.061,0.24-0.36,0.3-0.36c0.045,0,1.261,0.749,1.261,0.945
			c0,0.119-0.046,0.149-0.406,0.42c-0.104,0.089-0.104,0.165-0.104,0.839c0,0.315,0.03,1.771,0,2.055
			c-0.149,1.365-1.425,1.396-1.575,1.396c-0.104,0-0.435-0.405-0.51-0.48c-0.135-0.119-0.855-0.659-0.855-0.689
			c0-0.045,0.031-0.06,0.105-0.06c0.15,0,0.825,0.045,0.975,0.045c0.076,0,0.631-0.016,0.735-0.12
			c0.091-0.104,0.091-0.78,0.091-1.005c0-0.33,0-1.92-0.061-2.146c-0.061-0.18-0.285-0.225-0.36-0.225h-2.085
			c-0.39,0-0.39,0.165-0.39,1.41c0,0.465,0.09,2.774,0.09,2.954c0,0.15,0,0.601-0.51,0.601c-0.63,0-0.63-0.601-0.63-0.75
			c0-0.181,0.06-1.47,0.06-1.755v-1.995c0-0.135,0-0.465-0.375-0.465h-1.694c-0.271,0-0.36,0.181-0.375,0.345
			c-0.016,0.135-0.016,1.605-0.016,1.86c0,0.12,0,1.545-0.015,1.59c-0.06,0.435-0.511,0.555-0.69,0.555
			c-0.27,0-0.39-0.21-0.39-0.479c0-0.256,0.045-1.38,0.045-1.62c0-0.854,0-2.34-0.015-2.565c0-0.06-0.03-0.329-0.03-0.375
			c0-0.135,0.015-0.21,0.12-0.21c0.165,0,0.465,0.165,0.975,0.421c0.075,0.045,0.27,0.09,0.375,0.09H54.256z M54.046,231.977
			c-0.39,0-0.39,0.314-0.39,0.569c0,0.735,0,0.99,0.405,0.99h2.084c0.391,0,0.391-0.255,0.391-0.885c0-0.39,0-0.675-0.375-0.675
			H54.046z"/>
	</g>
	<g>
		<g>
			<path fill="#210701" d="M132.844,48.287c0.858,0,1.378,0,1.846-0.364c0.209-0.156,0.885-1.118,1.118-1.118
				c0.261,0,2.185,1.56,2.185,1.846c0,0.312-0.624,0.312-1.404,0.312h-10.166c-0.234,0-0.416,0.104-0.416,0.312
				c0,0.442,2.184,3.874,2.704,3.874c0.338,0,2.704-2.132,3.067-3.12c0.183-0.442,0.286-0.702,0.442-0.702
				c0.183,0,2.34,1.378,2.47,1.664v0.078c0,0.26-0.104,0.26-1.014,0.364c-0.728,0.078-2.626,1.196-3.588,1.794
				c-0.676,0.416-0.754,0.442-0.754,0.598c0,0.312,3.354,3.407,7.904,4.108c0.39,0.052,0.468,0.104,0.468,0.208
				c0,0.104-0.182,0.208-0.442,0.313c-0.624,0.286-1.117,0.649-1.716,1.092c-0.078,0.052-0.442,0.39-0.52,0.39
				c-0.208,0-3.095-1.248-5.227-3.38c-0.806-0.806-0.884-0.91-1.17-0.91c-0.156,0-2.028,0.624-3.042,0.988
				c-1.223,0.416-7.41,2.418-7.801,2.652c-0.104,0.078-0.494,0.494-0.598,0.572c-0.052,0.025-0.104,0.025-0.156,0.025
				c-0.286,0-0.364-0.13-0.988-1.273c-0.078-0.13-0.441-0.729-0.494-0.858c-0.052-0.104-0.13-0.286-0.13-0.391
				c0-0.312,0.391-0.312,0.677-0.312c1.378,0,1.689,0,2.834-0.182c0.441-0.078,0.441-0.286,0.441-0.883
				c0-0.963-0.025-5.097-0.025-5.955c0-0.936-0.156-1.066-0.91-1.066c-0.598,0-2.002,0.079-2.522,0.104
				c-0.078,0-0.312,0.026-0.364,0.026c-0.104,0-0.155-0.052-0.233-0.156l-0.521-0.598c-0.104-0.104-0.104-0.129-0.104-0.182
				c0-0.026,0.025-0.052,0.104-0.052c0.521,0,3.303,0.182,3.927,0.182c0.884,0,0.936-0.26,0.936-1.014c0-5.122,0-5.694-0.052-6.682
				c-0.026-0.442-0.26-2.678-0.26-2.782c0-0.079,0-0.208,0.182-0.208c0.208,0,1.43,0.52,1.716,0.649
				c0.755,0.338,1.093,0.338,1.456,0.338h7.047c1.144,0,1.273,0,1.664-0.442c0.728-0.857,0.806-0.961,1.04-0.961
				c0.155,0,2.418,1.403,2.418,1.716c0,0.39-0.521,0.39-1.378,0.39H122.34c-0.807,0-0.885,0.234-0.885,0.962
				c0,1.145,0,1.431,0.754,1.431h6.007c1.092,0,1.222,0,1.43-0.183c0.183-0.156,0.858-1.04,1.066-1.04
				c0.39,0,2.132,1.353,2.132,1.586c0,0.312-0.624,0.312-1.378,0.312h-9.257c-0.754,0-0.754,0.468-0.754,0.988
				c0,1.352,0,1.664,0.807,1.664h6.032c1.065,0,1.17,0,1.403-0.208c0.156-0.156,0.858-1.014,1.066-1.014
				c0.391,0,2.132,1.353,2.132,1.587c0,0.312-0.624,0.312-1.352,0.312h-9.282c-0.729,0-0.807,0.338-0.807,0.962
				c0,1.274,0,1.638,0.78,1.638H132.844z M121.949,48.962c-0.26,0-0.624,0-0.728,0.495c-0.026,0.129-0.026,1.586-0.026,1.95
				c0,1.3,0,3.121,0.052,4.42c0,0.365,0.026,0.624,0.416,0.624c0.339,0,4.187-0.91,5.122-1.196c1.093-0.312,1.223-0.364,1.223-0.65
				c0-0.052-0.052-0.13-0.442-0.754c-0.649-1.092-1.43-2.808-1.819-3.692c-0.469-1.066-0.521-1.196-1.041-1.196H121.949z"/>
			<path fill="#210701" d="M119.713,81.124c-0.598,0-2.392,0-3.302,0.078c-0.078,0-0.468,0.052-0.546,0.052s-0.13-0.052-0.234-0.156
				l-0.494-0.599c-0.104-0.13-0.104-0.13-0.104-0.182s0.026-0.052,0.078-0.052c0.182,0,0.988,0.078,1.17,0.078
				c1.17,0.052,2.34,0.104,3.563,0.104h0.832c0.441,0,0.91-0.156,1.065-0.546c0.104-0.26,0.702-2.158,0.702-2.418
				c0-0.624-0.52-0.624-0.754-0.624h-2.496c-0.598,0-2.393,0-3.302,0.052c-0.078,0.025-0.469,0.078-0.546,0.078
				c-0.078,0-0.131-0.053-0.234-0.182l-0.494-0.599c-0.104-0.104-0.104-0.13-0.104-0.156c0-0.052,0.025-0.078,0.077-0.078
				c0.183,0,0.988,0.104,1.171,0.104c1.222,0.078,2.054,0.078,3.562,0.078h2.756c0.261,0,0.702,0,0.807-0.416
				c0-0.026,0.26-1.456,0.26-1.586c0-0.677-0.546-0.677-0.78-0.677h-0.936c-0.599,0-2.393,0-3.303,0.079
				c-0.078,0-0.468,0.051-0.546,0.051s-0.13-0.051-0.233-0.156l-0.494-0.598c-0.104-0.104-0.104-0.129-0.104-0.182
				c0-0.026,0.026-0.052,0.078-0.052c0.183,0,0.988,0.078,1.17,0.078c1.17,0.052,2.341,0.104,3.563,0.104h1.014
				c0.183,0,0.677,0,0.78-0.442c0,0,0.13-1.3,0.13-1.378c0-0.676-0.494-0.676-0.754-0.676h-2.288c-0.598,0-2.366,0-3.276,0.052
				c-0.104,0.026-0.468,0.078-0.571,0.078c-0.078,0-0.131-0.078-0.209-0.182l-0.52-0.598c-0.104-0.104-0.104-0.13-0.104-0.183
				c0-0.025,0.052-0.052,0.104-0.052c0.182,0,0.988,0.078,1.145,0.104c1.195,0.052,2.34,0.078,3.562,0.078h2.263
				c0.779,0,0.806-0.234,0.806-1.638c0-0.364,0-1.014-0.156-1.274c-0.156-0.234-0.182-0.26-0.182-0.312
				c0-0.13,0.13-0.156,0.208-0.156c0.104,0,3.016,0.572,3.016,0.962c0,0.182-0.104,0.261-0.416,0.469
				c-0.363,0.233-0.52,0.91-0.52,1.326c0,0.624,0.649,0.624,0.779,0.624h5.98c0.624,0,0.702,0,0.832-0.026
				c0.286-0.104,1.092-1.379,1.274-1.379c0.156,0,2.444,1.379,2.444,1.847c0,0.208-0.208,0.208-0.677,0.234
				c-0.286,0.025-0.416,0.025-1.611,0.025h-8.45c-0.313,0-0.702,0-0.832,0.521c-0.026,0.104-0.183,1.222-0.183,1.378
				c0,0.442,0.39,0.598,0.78,0.598h5.46c0.65,0,0.729,0,0.858-0.052c0.286-0.078,1.092-1.352,1.248-1.352
				c0.182,0,2.47,1.352,2.47,1.846c0,0.208-0.208,0.233-0.676,0.233h-9.568c-0.364,0-0.729,0-0.832,0.495
				c-0.026,0.208-0.26,1.43-0.26,1.585c0,0.599,0.571,0.599,0.806,0.599h7.696c1.17,0,1.274,0,1.638-0.416
				c0.729-0.884,0.832-0.962,1.066-0.962c0.156,0,2.418,1.378,2.418,1.716c0,0.364-0.52,0.364-1.378,0.364h-11.778
				c-0.364,0-0.702,0-0.807,0.52c-0.13,0.442-0.909,2.601-0.909,2.704c0,0.338,0.233,0.364,0.338,0.364h6.24
				c0.208,0,0.754-0.026,0.754-0.676c0-0.26-0.13-1.742-0.234-1.977c-0.025-0.078-0.208-0.363-0.208-0.416
				c0-0.078,0.053-0.104,0.156-0.104c0.156,0,1.3,0.26,1.534,0.285c0.494,0.079,1.481,0.287,1.481,0.729
				c0,0.183-0.025,0.208-0.39,0.442c-0.364,0.208-0.39,0.338-0.39,0.546c0,0.728,0,1.196,0.494,1.196
				c0.363,0,0.728-0.442,0.754-0.468c0.728-0.858,0.806-0.962,1.04-0.962c0.182,0,2.444,1.404,2.444,1.716
				c0,0.364-0.521,0.364-1.404,0.364h-2.626c-0.599,0-0.755,0.338-0.755,0.729c0,0.78,0.053,4.238,0.053,4.94
				c0,0.857,0,3.38-3.12,3.38c-0.313,0-0.364-0.078-0.729-0.78c-0.364-0.65-0.728-0.91-1.196-1.144
				c-0.052-0.026-0.468-0.261-0.468-0.287c0-0.104,0.183-0.104,0.234-0.104c0.182,0,2.028,0.13,2.392,0.13
				c0.338,0,0.702-0.026,0.858-0.416c0.104-0.312,0.104-3.38,0.104-4.029c0-2.314,0-2.419-0.78-2.419h-6.215
				c-0.26,0-0.806,0-1.222,0.858c-2.496,5.174-6.969,7.41-7.332,7.41c-0.104,0-0.104-0.078-0.104-0.13
				c0-0.078,0.261-0.312,0.442-0.442c2.158-1.768,4.212-4.368,5.33-6.838c0.104-0.234,0.182-0.39,0.182-0.468
				c0-0.234-0.182-0.391-0.441-0.391H119.713z M124.082,82.294c0.13,0,3.978,1.196,3.978,3.458c0,0.753-0.649,1.3-1.118,1.3
				c-0.546,0-0.702-0.416-1.014-1.378c-0.364-1.066-1.274-2.6-1.716-3.042c-0.053-0.026-0.234-0.208-0.208-0.286
				C124.029,82.32,124.029,82.294,124.082,82.294z"/>
			<path fill="#210701" d="M126.396,100.468c0,0.078,0.052,0.182,0.052,0.286c0.104,0.832,0.261,1.664,0.261,2.808
				c0,1.742-0.391,4.16-2.679,7.618c-2.08,3.172-3.406,3.797-4.446,3.797c-1.716,0-3.25-2.679-3.25-5.851
				c0-1.378,0.286-4.004,2.887-6.63c3.302-3.381,6.786-3.381,8.294-3.381c2.366,0,3.458,0.468,4.187,0.832
				c2.808,1.379,4.523,4.16,4.523,7.566c0,3.38-1.95,7.541-6.552,9.152c-2.21,0.78-3.926,0.962-4.316,0.962
				c-0.104,0-0.26-0.026-0.26-0.182c0-0.078,0.052-0.104,0.702-0.364c2.704-1.065,8.346-3.302,8.346-9.776
				c0-1.014-0.104-7.202-7.202-7.202C126.422,100.104,126.396,100.312,126.396,100.468z M117.945,108.45
				c0,1.689,0.676,4.004,2.262,4.004c0.754,0,1.379-0.312,3.173-3.017c1.378-2.105,2.548-4.992,2.548-7.565
				c0-1.561-0.104-1.69-0.442-1.69C123.016,100.182,117.945,103.536,117.945,108.45z"/>
			<path fill="#210701" d="M126.136,133.28c0,0.858-1.977,1.638-2.601,1.898c-0.363,0.13-0.39,0.234-0.441,1.144
				c-0.053,0.572-0.053,2.679-0.053,2.808c0,0.156,0,0.468,0.234,0.468c0.078,0,2.21-0.884,2.626-1.04
				c2.574-0.962,3.744-1.04,4.421-1.04c1.897,0,4.004,1.482,4.004,3.926c0,3.433-3.614,4.992-5.746,4.992
				c-1.482,0-2.679-0.754-2.679-2.105c0-1.223,1.066-2.055,1.3-2.055c0.078,0,0.131,0.078,0.131,0.13
				c0,0.078-0.053,0.13-0.104,0.208c-0.078,0.104-0.233,0.312-0.233,0.702c0,1.248,1.43,1.248,1.689,1.248
				c1.716,0,3.9-1.144,3.9-3.224c0-1.846-1.378-2.86-2.496-2.86c-0.729,0-2.34,0.338-5.383,1.95c-1.455,0.779-1.611,0.858-1.611,1.3
				c0,0.286,0.078,1.456,0.078,1.717c0,1.195-0.391,2.912-1.326,2.912c-0.702,0-0.988-0.547-1.196-0.963
				c-0.832-1.612-0.962-1.612-1.3-1.612c-0.234,0-0.494,0.104-0.65,0.156c-0.156,0.078-0.806,0.521-0.988,0.521
				c-0.285,0-1.611-0.78-1.611-1.638c0-0.468,0.285-1.014,0.754-1.014c0.156,0,0.91,0.13,1.065,0.13c0.702,0,1.171-0.13,2.704-0.884
				c1.326-0.65,1.482-0.728,1.482-1.456c0-0.598-0.026-2.808-0.052-3.25c0-0.182-0.078-0.572-0.364-0.572
				c-0.313,0-1.04,0.183-1.196,0.234c-1.326,0.442-1.456,0.495-1.846,0.495c-0.884,0-1.872-1.795-1.872-1.977
				c0-0.13,0.104-0.182,0.208-0.182c0.078,0,0.39,0.104,0.468,0.104c0.468,0.078,0.858,0.13,1.196,0.13
				c0.936,0,3.146-0.624,3.302-0.78c0.13-0.182,0.26-2.548,0.26-2.834c0-0.806-0.13-1.326-0.857-2.08
				c-0.052-0.052-0.364-0.364-0.364-0.416c0-0.234,0.416-0.286,0.572-0.286c1.742,0,2.678,1.273,2.678,1.768
				c0,0.233-0.494,1.17-0.546,1.352c-0.025,0.182-0.26,1.222-0.26,1.69c0,0.104,0.052,0.286,0.208,0.286
				c0.182,0,0.91-0.286,0.91-0.65c0-0.052-0.13-0.312-0.13-0.364c0-0.026,0.052-0.078,0.104-0.104
				C124.888,132.11,126.136,132.475,126.136,133.28z M120.207,143.239c0,0.39,0.702,1.222,1.093,1.222
				c0.363,0,0.728-0.729,0.728-2.002c0-0.104,0-0.364-0.078-0.416C121.871,142.043,120.207,142.875,120.207,143.239z
				 M137.29,135.152c0,0.546-0.312,1.248-0.858,1.248c-0.155,0-0.754-0.052-0.884-0.052c-0.13,0.026-0.676,0.182-0.78,0.182
				c-0.052,0-0.13-0.025-0.13-0.13c0-0.052,0.078-0.182,0.078-0.208c0.052-0.156,0.104-0.286,0.104-0.468
				c0-1.04-1.301-1.404-2.185-1.404c-0.416,0-0.649,0.104-1.014,0.26c-0.104,0.052-0.183,0.078-0.261,0.078
				c-0.077,0-0.104-0.026-0.104-0.104c0-0.182,1.092-1.638,2.809-1.638C136.068,132.916,137.29,133.956,137.29,135.152z"/>
			<path fill="#210701" d="M119.323,160.944c-0.598,0-2.392,0-3.302,0.078c-0.078,0-0.469,0.052-0.546,0.052
				c-0.078,0-0.13-0.052-0.234-0.156l-0.494-0.598c-0.104-0.13-0.104-0.13-0.104-0.182c0-0.052,0.025-0.052,0.077-0.052
				c0.469,0,2.471,0.156,2.887,0.156c0.78,0,0.78-0.26,0.78-1.664c0-0.182-0.053-1.742-0.13-2.132
				c-0.026-0.156-0.183-0.806-0.183-0.936c0-0.182,0.208-0.182,0.286-0.182c0.208,0,2.314,0.546,2.314,1.04
				c0,0.182-0.053,0.208-0.442,0.521c-0.208,0.208-0.26,0.468-0.26,1.638c0,0.156,0.025,0.806,0.025,0.962
				c0,0.208,0,0.78,0.624,0.78c0.469,0,0.572-0.026,0.754-0.182c0.416-0.364,0.755-0.676,0.858-0.676
				c0.234,0,1.534,1.222,1.534,1.586c0,0.364-0.338,0.468-0.78,0.65c-0.416,0.156-2.002,2.028-2.704,2.886
				c-0.494,0.598-0.598,0.832-0.598,1.301c0,0.545,0,0.598,0.754,0.832c2.34,0.728,3.276,1.872,3.276,2.938
				c0,0.469-0.261,1.04-0.807,1.04c-0.468,0-0.546-0.13-1.222-1.274c-0.026-0.052-1.326-2.236-1.768-2.236
				c-0.261,0-0.286,0.077-0.286,2.132c0,1.3,0.104,7.046,0.104,8.217c0,0.441-0.078,1.352-1.144,1.352
				c-0.807,0-0.807-0.494-0.807-0.884c0-0.234,0.156-2.002,0.183-2.366c0.025-0.962,0.104-2.782,0.104-4.836v-2.938
				c0-0.156-0.026-0.52-0.208-0.52c-0.104,0-3.12,2.704-3.536,2.704c-0.208,0,0.364-0.65,0.521-0.832
				c4.238-4.732,5.771-7.541,5.771-7.878s-0.39-0.338-0.598-0.338H119.323z M129.567,168.017c0,0.156-0.468,0.624-0.546,0.754
				c-0.078,0.156-0.649,2.86-0.806,3.381c-1.586,5.226-6.604,6.24-6.708,6.24c-0.053,0-0.234,0-0.234-0.079
				c0-0.052,0.676-0.468,0.806-0.545c3.381-2.106,4.213-4.291,4.603-5.616c0.313-1.066,0.546-3.199,0.546-4.057
				c0-0.156-0.182-0.885-0.182-1.014c0-0.156,0.182-0.156,0.233-0.156c0.208,0,1.015,0.364,1.196,0.442
				C129.334,167.705,129.567,167.86,129.567,168.017z M127.826,166.066c-0.209,0-0.416,0-0.572,0.364
				c-0.234,0.571-0.494,1.17-1.431,1.17c-0.598,0-0.598-0.442-0.598-0.676c0-0.156,0.052-0.858,0.078-1.014
				c0.052-1.118,0.104-3.822,0.104-4.524c0-1.482-0.077-3.12-0.182-3.822c-0.026-0.104-0.13-0.624-0.13-0.755
				c0-0.285,0.182-0.337,0.312-0.337c0.183,0,0.313,0.052,1.353,0.702c0.52,0.312,0.624,0.312,1.17,0.312h5.772
				c0.416,0,0.571-0.026,0.754-0.338c0.416-0.702,0.494-0.832,0.806-0.832c0.338,0,1.898,1.3,1.898,1.664
				c0,0.182-0.13,0.312-0.234,0.364c-0.468,0.338-0.52,0.364-0.572,0.598v2.496c0,0.598,0.053,3.588,0.053,4.264
				c0,0.468,0,1.43-1.274,1.43c-0.494,0-0.546-0.208-0.649-0.624c-0.131-0.442-0.416-0.442-0.729-0.442c-0.624,0-0.988,0-1.04,0.676
				c-0.052,0.442-0.026,1.95-0.026,7.748c0,1.482,0.104,2.106,1.561,2.106c1.534,0,2.132-0.468,2.548-2.938
				c0.026-0.208,0.234-1.299,0.364-1.299c0.104,0,0.104,0.39,0.13,0.52c0,0.442,0.104,1.534,0.312,1.976
				c0.104,0.234,0.832,1.248,0.832,1.534c0,0.183-0.338,0.858-1.014,1.274c-0.338,0.208-0.962,0.546-3.042,0.546
				c-3.198,0-3.302-1.534-3.302-3.198c0-1.222,0.104-6.942,0.104-8.19c0-0.182,0-0.754-0.702-0.754H127.826z M127.956,158.162
				c-0.599,0-0.937,0.13-0.937,0.91v5.46c0,0.754,0.364,0.858,0.962,0.858h5.643c0.806,0,0.962-0.26,0.962-1.014
				c0-0.053,0-5.305-0.026-5.356c0-0.754-0.363-0.858-0.936-0.858H127.956z"/>
			<path fill="#210701" d="M120.598,192.404c0,0.208-0.053,0.286-0.313,1.04c-0.363,1.015-0.624,1.977-0.624,3.354
				c0,2.626,1.353,4.524,2.158,4.524c0.442,0,0.546-0.13,1.326-1.43c0.156-0.26,0.598-0.884,0.806-0.884
				c0.078,0,0.131,0.104,0.131,0.208s-0.053,0.442-0.078,0.52c-0.286,1.196-0.338,1.43-0.338,1.976c0,0.442,0.077,0.78,0.155,1.04
				c0.078,0.286,0.208,0.729,0.208,0.858c0,0.52-0.546,0.806-0.988,0.806c-1.664,0-4.939-2.73-4.939-7.696
				c0-0.728,0.363-3.927,0.363-4.602c0-0.52-0.104-1.222-0.182-1.508c-0.182-0.649-0.208-0.728-0.208-0.884
				c0-0.078,0.104-0.104,0.156-0.104C119.428,189.623,120.598,191.703,120.598,192.404z M133.286,193.002
				c1.326,1.066,2.313,2.913,2.313,4.967c0,0.494-0.052,1.716-1.3,1.716c-1.274,0-1.274-1.404-1.274-1.741
				c0-2.159,0-3.251-1.378-4.629c-0.208-0.208-1.248-1.014-1.248-1.17c0-0.078,0.104-0.13,0.234-0.13
				C130.66,192.015,132.168,192.093,133.286,193.002z"/>
		</g>
		<g>
			<path fill="#4A1F00" d="M100.982,41.607c0,0.807,0.24,2.253,1.631,3.227c0.336,0.243,0.372,0.269,0.372,0.358
				c0,0.076-0.036,0.191-0.18,0.191c-0.072,0-1.247-0.486-1.439-0.563c-0.756-0.319-0.768-0.371-0.768-1.203v-5.364
				c0-0.191,0-0.371,0.192-0.371c0.191,0,0.191,0.141,0.191,0.461c0,0.308,0.036,0.857,0.624,0.973
				c0.203,0.039,2.962,0.039,3.31,0.039c0.48,0,3.202,0,3.418-0.039c0.612-0.115,0.612-0.678,0.612-1.151
				c0-0.09,0-0.282,0.191-0.282c0.204,0,0.204,0.18,0.204,0.371v3.175c0,0.205,0,0.385-0.204,0.385
				c-0.191,0-0.191-0.141-0.191-0.461c0-0.269-0.024-0.858-0.612-0.973c-0.216-0.039-2.771-0.039-3.334-0.039
				c-3.19,0-3.202,0-3.394,0.039c-0.564,0.114-0.624,0.64-0.624,0.883V41.607z"/>
			<path fill="#4A1F00" d="M106.487,50.17c0,1.639-1.331,2.83-3.059,2.83c-1.727,0-3.058-1.191-3.058-2.83s1.343-2.829,3.058-2.829
				C105.132,47.341,106.487,48.506,106.487,50.17z M100.694,50.17c0,1.076,1.296,1.741,2.734,1.741c1.464,0,2.735-0.679,2.735-1.741
				c0-0.973-1.116-1.741-2.735-1.741C102.014,48.429,100.694,49.082,100.694,50.17z"/>
			<path fill="#4A1F00" d="M100.599,58.861c0-0.23,0.168-0.23,0.192-0.23c0.167,0,0.191,0.166,0.191,0.23
				c0.036,0.333,0.048,0.461,0.252,0.614c0.191,0.128,0.396,0.128,2.326,0.128c1.14,0,1.584,0,1.968-0.269
				c0.407-0.281,0.443-0.691,0.443-0.845c0-0.41-0.204-0.947-0.54-1.306c-0.371-0.385-0.552-0.385-1.931-0.385
				c-0.312,0-1.775,0-1.991,0.039c-0.384,0.076-0.516,0.294-0.527,0.627c-0.012,0.128-0.012,0.346-0.191,0.346
				c-0.024,0-0.192,0-0.192-0.256v-2.382c0-0.256,0.168-0.256,0.18-0.256c0.204,0,0.204,0.154,0.204,0.346
				c0,0.32,0.191,0.513,0.359,0.576c0.276,0.103,1.871,0.103,2.291,0.103c1.943,0,2.243-0.013,2.243-0.576
				c0-0.051-0.048-0.32-0.048-0.371s0.012-0.128,0.107-0.128s0.108,0.051,0.204,0.512c0.048,0.205,0.348,1.28,0.348,1.319
				c0,0.128-0.048,0.128-0.527,0.128c-0.168,0-0.264,0-0.264,0.089c0,0.09,0.312,0.448,0.359,0.525
				c0.312,0.512,0.432,0.96,0.432,1.434c0,0.922-0.468,1.306-0.804,1.434c-0.468,0.18-0.672,0.18-2.53,0.18
				c-0.36,0-1.595,0-1.812,0.09c-0.084,0.025-0.348,0.153-0.359,0.576c0,0.204-0.012,0.358-0.204,0.358
				c-0.18,0-0.18-0.154-0.18-0.257V58.861z"/>
			<path fill="#4A1F00" d="M106.26,67.643c-0.036,0.09-0.288,0.5-0.288,0.602c0,0.064,0.132,0.243,0.252,0.41
				c0.191,0.243,0.264,0.538,0.264,0.768c0,0.448-0.348,0.743-0.659,0.743c-0.265,0-0.564-0.218-0.564-0.525
				c0-0.333,0.229-0.474,0.42-0.602c0.108-0.063,0.12-0.128,0.12-0.179c0-0.103-0.036-0.27-0.191-0.27
				c-0.061,0-0.349,0.18-0.42,0.218C104.964,68.923,104.7,69,104.4,69c-1.14,0-2.087-1.152-2.087-2.458
				c0-0.115,0.096-0.717,0.096-0.857c0-0.308-0.335-0.603-0.479-0.603c-0.144,0-0.216,0.115-0.252,0.205
				c-0.06,0.167-0.084,0.243-0.119,1.421c-0.024,0.832-0.072,2.944-1.428,2.944c-1.499,0-1.499-2.944-1.499-3.315
				c0-0.973,0.107-2.791,1.079-2.791c0.624,0,0.899,0.704,1.008,1.114c0.023,0.076,0.072,0.243,0.132,0.243s0.156-0.333,0.191-0.397
				c0.12-0.204,0.265-0.332,0.504-0.332c0.42,0,0.66,0.332,0.863,0.78c0.072,0.154,0.133,0.295,0.181,0.295s0.191-0.192,0.239-0.269
				c0.145-0.205,0.696-0.858,1.571-0.858c1.163,0,2.087,1.178,2.087,2.433C106.487,67.105,106.319,67.502,106.26,67.643z
				 M98.955,66.529c0,0.807,0.204,2.048,1.008,2.048c0.576,0,0.828-0.474,0.828-2.573c0-0.371,0-0.589-0.192-0.922
				c-0.036-0.063-0.264-0.447-0.743-0.447C98.991,64.635,98.955,66.196,98.955,66.529z M102.638,66.555
				c0,1.357,1.583,1.357,1.799,1.357c0.743,0,1.728-0.308,1.728-1.357c0-0.769-0.576-1.345-1.764-1.345
				C103.501,65.21,102.638,65.582,102.638,66.555z"/>
			<path fill="#4A1F00" d="M103.741,73.493c0-0.167,0-0.41-0.384-0.41c-1.464,0-2.471,1.063-2.471,2.125
				c0,0.589,0.323,1.152,0.672,1.549c0.06,0.077,0.467,0.372,0.467,0.487c0,0.063-0.06,0.128-0.155,0.128
				c-0.264,0-1.499-0.896-1.499-2.586c0-1.793,1.331-2.804,3.07-2.804c1.99,0,3.046,1.318,3.046,2.714
				c0,1.984-1.967,2.548-2.471,2.548c-0.216,0-0.275-0.129-0.275-0.385V73.493z M104.137,75.849c0,0.281,0.06,0.422,0.348,0.422
				c0.456,0,1.68-0.461,1.68-1.536c0-1.19-1.5-1.562-1.764-1.562s-0.264,0.218-0.264,0.333V75.849z"/>
			<path fill="#4A1F00" d="M106.26,85.757c0,0.128,0,0.319-0.192,0.319c-0.18,0-0.191-0.166-0.204-0.307
				c-0.012-0.154-0.132-0.513-0.875-0.845c-0.456-0.205-2.734-1.14-3.238-1.345c-1.308-0.551-1.379-0.602-1.379-0.769
				c0-0.153,0.252-0.281,0.312-0.319c0.527-0.27,1.451-0.704,2.171-1.05c2.71-1.28,2.926-1.383,3.01-1.831
				c0.036-0.23,0.061-0.333,0.204-0.333c0.192,0,0.192,0.192,0.192,0.333v2.062c0,0.128,0,0.32-0.192,0.32
				c-0.191,0-0.191-0.192-0.191-0.308c0-0.397-0.276-0.461-0.372-0.461s-0.168,0.038-0.216,0.051c-0.24,0.115-2.639,1.28-3.13,1.511
				c-0.24,0.115-0.36,0.167-0.36,0.256c0,0.064,0.096,0.129,0.144,0.154c0.072,0.038,2.111,0.896,2.315,0.985
				c0.888,0.371,0.995,0.41,1.151,0.41c0.468,0,0.468-0.346,0.468-0.615c0-0.102,0-0.294,0.191-0.294
				c0.192,0,0.192,0.192,0.192,0.308V85.757z"/>
			<path fill="#4A1F00" d="M100.599,88.033c0-0.115,0-0.294,0.192-0.294c0.18,0,0.191,0.153,0.203,0.396
				c0,0.167,0.072,0.397,0.336,0.513c0.204,0.103,1.955,0.103,2.387,0.103c0.336,0,1.728-0.014,1.896-0.077
				c0.144-0.064,0.203-0.205,0.203-0.358c0-0.064-0.036-0.385-0.036-0.397c0-0.051,0.024-0.115,0.108-0.115s0.108,0.064,0.276,0.641
				c0.048,0.166,0.323,0.96,0.323,1.063c0,0.128-0.107,0.128-0.228,0.128c-0.54,0-3.238-0.013-3.851-0.013
				c-0.875,0-1.379,0-1.415,0.589c-0.012,0.256-0.023,0.409-0.203,0.409c-0.192,0-0.192-0.217-0.192-0.307V88.033z M108.874,88.443
				c0.384,0,0.695,0.333,0.684,0.742c0,0.41-0.3,0.743-0.684,0.743s-0.695-0.333-0.695-0.743
				C108.179,88.764,108.49,88.443,108.874,88.443z"/>
			<path fill="#4A1F00" d="M105.876,92.783c0-0.142,0-0.346,0.191-0.346c0.156,0,0.168,0.063,0.216,0.435
				c0.024,0.205,0.264,1.28,1.799,1.28c0.108,0,0.276,0,0.276,0.167c0,0.205-0.18,0.205-0.252,0.205h-1.547
				c-0.108,0-0.3,0.038-0.3,0.319v1.357c0,0.128-0.024,0.358-0.192,0.358c-0.071,0-0.191-0.077-0.191-0.346v-1.37
				c0-0.038-0.013-0.23-0.156-0.294c-0.132-0.052-1.476-0.052-1.715-0.052c-0.36,0-2.279,0-2.446,0.039
				c-0.672,0.166-0.672,0.755-0.672,0.883c0,0.27,0.096,0.576,0.3,0.858c0.048,0.076,0.323,0.371,0.323,0.46
				c0,0.052-0.048,0.077-0.096,0.077c-0.216,0-1.043-0.794-1.043-1.869c0-1.344,0.947-1.344,2.158-1.344
				c0.036,0,2.639,0.025,3.047,0c0.06,0,0.3-0.013,0.3-0.32V92.783z"/>
			<path fill="#4A1F00" d="M106.26,101.078c0,0.243-0.12,0.269-0.18,0.269c-0.181,0-0.204-0.217-0.204-0.346
				c-0.024-0.512-0.3-0.575-0.42-0.575c-0.264,0-2.614,1.151-3.106,1.369c-0.156,0.064-0.228,0.154-0.228,0.218
				c0,0.077,0.144,0.153,0.228,0.205c0.216,0.115,1.919,0.832,2.435,1.05c0.384,0.166,0.432,0.179,0.6,0.179
				c0.492,0,0.492-0.652,0.492-0.896c0-0.128,0.071-0.23,0.191-0.23c0.192,0,0.192,0.166,0.192,0.307v2.228
				c0,0.09,0,0.282-0.192,0.282c-0.191,0-0.191-0.18-0.191-0.32c0-0.614-0.696-0.935-0.899-1.024
				c-0.192-0.089-3.778-1.612-3.874-1.664c-1.476-0.602-2.471-1.012-2.471-2.42c0-0.819,0.527-0.883,0.672-0.883
				c0.348,0,0.611,0.269,0.611,0.589c0,0.346-0.18,0.524-0.336,0.679c-0.12,0.115-0.168,0.204-0.168,0.358
				c0,0.652,1.031,0.985,1.331,0.985c0.12,0,0.265-0.038,0.384-0.076c0.349-0.129,3.61-1.652,3.91-1.806
				c0.288-0.141,0.743-0.436,0.815-0.832c0.084-0.409,0.084-0.486,0.229-0.486c0.18,0,0.18,0.205,0.18,0.308V101.078z"/>
			<path fill="#4A1F00" d="M109.426,119.37c-0.012,0-1.895,0.832-2.027,0.832c-0.132,0-0.216-0.128-0.216-0.243
				s0.036-0.141,0.384-0.409c1.439-1.088,1.607-2.228,1.607-2.766c0-2.01-2.303-3.047-4.378-3.047c-2.782,0-3.873,1.741-3.873,3.265
				c0,0.896,0.359,1.921,1.703,2.766c0.468,0.294,0.479,0.294,0.479,0.396s-0.084,0.192-0.192,0.192
				c-0.107,0-0.731-0.32-1.211-0.729c-1.247-1.076-1.331-2.433-1.331-3.009c0-2.701,2.051-4.021,4.401-4.021
				c2.807,0,4.797,1.856,4.797,4.021c0,0.32-0.048,0.691-0.144,1.088c-0.036,0.09-0.191,0.691-0.191,0.769
				c0,0.103,0.035,0.256,0.119,0.346c0.192,0.204,0.216,0.23,0.216,0.332C109.569,119.229,109.498,119.332,109.426,119.37z"/>
			<path fill="#4A1F00" d="M103.741,124.169c0-0.166,0-0.409-0.384-0.409c-1.464,0-2.471,1.063-2.471,2.125
				c0,0.589,0.323,1.152,0.672,1.549c0.06,0.077,0.467,0.372,0.467,0.487c0,0.063-0.06,0.128-0.155,0.128
				c-0.264,0-1.499-0.896-1.499-2.586c0-1.793,1.331-2.804,3.07-2.804c1.99,0,3.046,1.318,3.046,2.714
				c0,1.984-1.967,2.548-2.471,2.548c-0.216,0-0.275-0.129-0.275-0.385V124.169z M104.137,126.525c0,0.281,0.06,0.422,0.348,0.422
				c0.456,0,1.68-0.461,1.68-1.536c0-1.19-1.5-1.562-1.764-1.562s-0.264,0.218-0.264,0.333V126.525z"/>
			<path fill="#4A1F00" d="M100.599,130.25c0-0.077,0-0.308,0.18-0.308c0.204,0,0.204,0.205,0.204,0.371
				c0,0.18,0.06,0.487,0.443,0.603c0.252,0.076,4.51,0.076,5.157,0.076c0.349,0,1.871,0,2.1-0.076
				c0.071-0.026,0.203-0.115,0.203-0.359c0-0.051-0.036-0.345-0.036-0.422s0.049-0.115,0.097-0.115c0.107,0,0.228,0.422,0.288,0.627
				c0.023,0.09,0.335,1.165,0.335,1.178c0,0.077-0.035,0.077-0.275,0.077c-0.947,0-5.565-0.025-6.608-0.025
				c-1.271,0-1.667,0-1.703,0.665c-0.012,0.282-0.012,0.41-0.204,0.41c-0.18,0-0.18-0.167-0.18-0.32V130.25z"/>
			<path fill="#4A1F00" d="M103.741,136.444c0-0.166,0-0.409-0.384-0.409c-1.464,0-2.471,1.063-2.471,2.125
				c0,0.589,0.323,1.152,0.672,1.549c0.06,0.077,0.467,0.372,0.467,0.487c0,0.063-0.06,0.128-0.155,0.128
				c-0.264,0-1.499-0.896-1.499-2.586c0-1.793,1.331-2.804,3.07-2.804c1.99,0,3.046,1.318,3.046,2.714
				c0,1.984-1.967,2.548-2.471,2.548c-0.216,0-0.275-0.129-0.275-0.385V136.444z M104.137,138.801c0,0.281,0.06,0.422,0.348,0.422
				c0.456,0,1.68-0.461,1.68-1.536c0-1.19-1.5-1.562-1.764-1.562s-0.264,0.218-0.264,0.333V138.801z"/>
			<path fill="#4A1F00" d="M100.646,143.818c-0.264-0.23-0.275-0.256-0.275-0.308c0-0.09,0.144-0.09,0.18-0.09
				c0.204,0,1.175,0.014,1.391,0.014c0.696,0,6.333,0,6.465-0.026c0.432-0.076,0.516-0.422,0.516-0.652
				c0-0.039-0.023-0.243-0.023-0.282c0-0.102,0.048-0.141,0.096-0.141c0.084,0,0.107,0.052,0.228,0.513
				c0.12,0.46,0.348,1.318,0.348,1.382c0,0.052-0.035,0.09-0.06,0.103c-0.036,0.025-0.12,0.025-2.039,0.025h-1.271
				c-0.071,0.014-0.216,0.039-0.216,0.167c0,0.077,0.204,0.524,0.216,0.537c0.229,0.5,0.288,0.935,0.288,1.191
				c0,1.216-1.091,2.458-2.95,2.458c-1.691,0-3.166-1.076-3.166-2.51c0-0.589,0.264-1.178,0.491-1.498
				c0.084-0.115,0.168-0.23,0.168-0.384S100.923,144.074,100.646,143.818z M105.54,144.766c-0.384-0.396-0.66-0.41-2.375-0.41
				c-0.695,0-1.211-0.013-1.619,0.23c-0.504,0.295-0.659,0.896-0.659,1.28c0,1.102,1.115,1.767,2.519,1.767
				c1.427,0,2.566-0.665,2.566-1.767C105.972,145.482,105.804,145.047,105.54,144.766z"/>
			<path fill="#4A1F00" d="M100.599,151.153c0-0.09,0-0.333,0.192-0.333c0.191,0,0.191,0.128,0.191,0.486
				c0,0.153,0.012,0.423,0.264,0.589c0.168,0.115,0.313,0.141,1.991,0.141c0.384,0,2.135,0,2.339-0.076
				c0.132-0.039,0.228-0.192,0.228-0.397c0-0.089-0.107-0.524-0.107-0.614c0-0.077,0.06-0.128,0.119-0.128
				c0.097,0,0.108,0.063,0.276,0.627c0.048,0.18,0.396,1.345,0.396,1.408c0,0.039-0.012,0.052-0.036,0.064h-0.527
				c-0.636,0-0.708,0-0.708,0.128c0,0.064,0.024,0.09,0.24,0.269c0.132,0.103,1.031,0.871,1.031,1.806
				c0,0.474-0.275,0.755-0.684,0.755c-0.396,0-0.636-0.333-0.636-0.64c0-0.27,0.132-0.397,0.252-0.5
				c0.072-0.076,0.204-0.191,0.204-0.371c0-0.319-0.36-0.845-0.779-1.088c-0.517-0.308-0.792-0.358-2.567-0.358
				c-1.091,0-1.295,0.038-1.295,0.935c0,0.103-0.036,0.269-0.191,0.269c-0.192,0-0.192-0.23-0.192-0.333V151.153z"/>
			<path fill="#4A1F00" d="M104.856,162.635c-0.408,0.014-2.363-0.013-2.807-0.013c-0.563,0-1.067,0-1.067,0.513
				c0,0.128,0.072,0.333,0.132,0.409c0.012,0.013,0.072,0.09,0.072,0.103c0,0.025-0.013,0.064-0.072,0.064
				c-0.216,0-0.743-0.525-0.743-1.076c0-0.409,0.287-0.742,0.539-0.845c0.084-0.025,0.192-0.063,0.192-0.179
				c0-0.077-0.084-0.192-0.168-0.308c-0.36-0.499-0.563-1.127-0.563-1.689c0-0.769,0.384-1.626,1.271-1.626
				c1.428,0,2.039,2.15,2.243,2.893c0.216,0.769,0.24,0.846,0.863,0.846c1.031,0,1.416-0.615,1.416-1.204
				c0-0.845-0.564-0.985-0.732-1.023c-0.359-0.09-0.791-0.18-0.791-0.679c0-0.333,0.252-0.602,0.588-0.602
				c0.707,0,1.259,1.241,1.259,2.316C106.487,161.547,106.056,162.609,104.856,162.635z M101.642,161.637
				c0.145,0.063,0.192,0.09,1.607,0.09c0.24,0,0.444,0,0.444-0.27c0-0.461-0.804-2.381-1.932-2.381
				c-0.323,0-0.875,0.218-0.875,1.101C100.887,160.612,101.246,161.457,101.642,161.637z"/>
			<path fill="#4A1F00" d="M105.876,165.783c0-0.142,0-0.346,0.191-0.346c0.156,0,0.168,0.063,0.216,0.435
				c0.024,0.205,0.264,1.28,1.799,1.28c0.108,0,0.276,0,0.276,0.167c0,0.205-0.18,0.205-0.252,0.205h-1.547
				c-0.108,0-0.3,0.038-0.3,0.319v1.357c0,0.128-0.024,0.358-0.192,0.358c-0.071,0-0.191-0.077-0.191-0.346v-1.37
				c0-0.038-0.013-0.23-0.156-0.294c-0.132-0.052-1.476-0.052-1.715-0.052c-0.36,0-2.279,0-2.446,0.039
				c-0.672,0.166-0.672,0.755-0.672,0.883c0,0.27,0.096,0.576,0.3,0.858c0.048,0.076,0.323,0.371,0.323,0.46
				c0,0.052-0.048,0.077-0.096,0.077c-0.216,0-1.043-0.794-1.043-1.869c0-1.344,0.947-1.344,2.158-1.344
				c0.036,0,2.639,0.025,3.047,0c0.06,0,0.3-0.013,0.3-0.32V165.783z"/>
			<path fill="#4A1F00" d="M100.599,171.646c0-0.115,0-0.294,0.192-0.294c0.18,0,0.191,0.153,0.203,0.396
				c0,0.167,0.072,0.397,0.336,0.513c0.204,0.102,1.955,0.102,2.387,0.102c0.336,0,1.728-0.013,1.896-0.076
				c0.144-0.064,0.203-0.205,0.203-0.358c0-0.064-0.036-0.384-0.036-0.397c0-0.051,0.024-0.115,0.108-0.115s0.108,0.064,0.276,0.641
				c0.048,0.166,0.323,0.96,0.323,1.063c0,0.128-0.107,0.128-0.228,0.128c-0.54,0-3.238-0.013-3.851-0.013
				c-0.875,0-1.379,0-1.415,0.589c-0.012,0.256-0.023,0.409-0.203,0.409c-0.192,0-0.192-0.217-0.192-0.307V171.646z
				 M108.874,172.056c0.384,0,0.695,0.333,0.684,0.742c0,0.41-0.3,0.743-0.684,0.743s-0.695-0.333-0.695-0.743
				C108.179,172.376,108.49,172.056,108.874,172.056z"/>
			<path fill="#4A1F00" d="M106.487,178.93c0,1.639-1.331,2.83-3.059,2.83c-1.727,0-3.058-1.191-3.058-2.83s1.343-2.829,3.058-2.829
				C105.132,176.101,106.487,177.266,106.487,178.93z M100.694,178.93c0,1.076,1.296,1.741,2.734,1.741
				c1.464,0,2.735-0.679,2.735-1.741c0-0.973-1.116-1.741-2.735-1.741C102.014,177.188,100.694,177.842,100.694,178.93z"/>
			<path fill="#4A1F00" d="M100.599,187.621c0-0.23,0.168-0.23,0.192-0.23c0.167,0,0.191,0.166,0.191,0.23
				c0.036,0.333,0.048,0.461,0.252,0.614c0.191,0.128,0.396,0.128,2.326,0.128c1.14,0,1.584,0,1.968-0.269
				c0.407-0.281,0.443-0.691,0.443-0.845c0-0.41-0.204-0.947-0.54-1.306c-0.371-0.385-0.552-0.385-1.931-0.385
				c-0.312,0-1.775,0-1.991,0.039c-0.384,0.076-0.516,0.294-0.527,0.627c-0.012,0.128-0.012,0.346-0.191,0.346
				c-0.024,0-0.192,0-0.192-0.256v-2.382c0-0.256,0.168-0.256,0.18-0.256c0.204,0,0.204,0.154,0.204,0.346
				c0,0.32,0.191,0.513,0.359,0.576c0.276,0.103,1.871,0.103,2.291,0.103c1.943,0,2.243-0.013,2.243-0.576
				c0-0.051-0.048-0.32-0.048-0.371s0.012-0.128,0.107-0.128s0.108,0.051,0.204,0.512c0.048,0.205,0.348,1.28,0.348,1.319
				c0,0.128-0.048,0.128-0.527,0.128c-0.168,0-0.264,0-0.264,0.089c0,0.09,0.312,0.448,0.359,0.525
				c0.312,0.512,0.432,0.96,0.432,1.434c0,0.922-0.468,1.306-0.804,1.434c-0.468,0.18-0.672,0.18-2.53,0.18
				c-0.36,0-1.595,0-1.812,0.09c-0.084,0.025-0.348,0.153-0.359,0.576c0,0.204-0.012,0.358-0.204,0.358
				c-0.18,0-0.18-0.154-0.18-0.257V187.621z"/>
		</g>
	</g>
</g>
</svg>
