<?xml version="1.0" encoding="utf-8"?>
<!-- Generator: Adobe Illustrator 16.0.0, SVG Export Plug-In . SVG Version: 6.00 Build 0)  -->
<!DOCTYPE svg PUBLIC "-//W3C//DTD SVG 1.1 Tiny//EN" "http://www.w3.org/Graphics/SVG/1.1/DTD/svg11-tiny.dtd">
<svg version="1.1" baseProfile="tiny" id="レイヤー_1"
	 xmlns="http://www.w3.org/2000/svg" xmlns:xlink="http://www.w3.org/1999/xlink" x="0px" y="0px" width="200.526px"
	 height="22.851px" viewBox="0 0 200.526 22.851" xml:space="preserve">
<metadata><?xpacket begin="﻿" id="W5M0MpCehiHzreSzNTczkc9d"?>
<x:xmpmeta xmlns:x="adobe:ns:meta/" x:xmptk="Adobe XMP Core 5.3-c011 66.145661, 2012/02/06-14:56:27        ">
   <rdf:RDF xmlns:rdf="http://www.w3.org/1999/02/22-rdf-syntax-ns#">
      <rdf:Description rdf:about=""
            xmlns:dc="http://purl.org/dc/elements/1.1/">
         <dc:format>image/svg+xml</dc:format>
         <dc:title>
            <rdf:Alt>
               <rdf:li xml:lang="x-default">Web</rdf:li>
            </rdf:Alt>
         </dc:title>
      </rdf:Description>
      <rdf:Description rdf:about=""
            xmlns:xmp="http://ns.adobe.com/xap/1.0/"
            xmlns:xmpGImg="http://ns.adobe.com/xap/1.0/g/img/">
         <xmp:CreatorTool>Adobe Illustrator CS6 (Windows)</xmp:CreatorTool>
         <xmp:CreateDate>2017-07-11T15:55:54+09:00</xmp:CreateDate>
         <xmp:ModifyDate>2017-07-11T15:55:55+09:00</xmp:ModifyDate>
         <xmp:MetadataDate>2017-07-11T15:55:55+09:00</xmp:MetadataDate>
         <xmp:Thumbnails>
            <rdf:Alt>
               <rdf:li rdf:parseType="Resource">
                  <xmpGImg:width>256</xmpGImg:width>
                  <xmpGImg:height>32</xmpGImg:height>
                  <xmpGImg:format>JPEG</xmpGImg:format>
                  <xmpGImg:image>/9j/4AAQSkZJRgABAgEASABIAAD/7QAsUGhvdG9zaG9wIDMuMAA4QklNA+0AAAAAABAASAAAAAEA&#xA;AQBIAAAAAQAB/+4ADkFkb2JlAGTAAAAAAf/bAIQABgQEBAUEBgUFBgkGBQYJCwgGBggLDAoKCwoK&#xA;DBAMDAwMDAwQDA4PEA8ODBMTFBQTExwbGxscHx8fHx8fHx8fHwEHBwcNDA0YEBAYGhURFRofHx8f&#xA;Hx8fHx8fHx8fHx8fHx8fHx8fHx8fHx8fHx8fHx8fHx8fHx8fHx8fHx8fHx8f/8AAEQgAIAEAAwER&#xA;AAIRAQMRAf/EAaIAAAAHAQEBAQEAAAAAAAAAAAQFAwIGAQAHCAkKCwEAAgIDAQEBAQEAAAAAAAAA&#xA;AQACAwQFBgcICQoLEAACAQMDAgQCBgcDBAIGAnMBAgMRBAAFIRIxQVEGE2EicYEUMpGhBxWxQiPB&#xA;UtHhMxZi8CRygvElQzRTkqKyY3PCNUQnk6OzNhdUZHTD0uIIJoMJChgZhJRFRqS0VtNVKBry4/PE&#xA;1OT0ZXWFlaW1xdXl9WZ2hpamtsbW5vY3R1dnd4eXp7fH1+f3OEhYaHiImKi4yNjo+Ck5SVlpeYmZ&#xA;qbnJ2en5KjpKWmp6ipqqusra6voRAAICAQIDBQUEBQYECAMDbQEAAhEDBCESMUEFURNhIgZxgZEy&#xA;obHwFMHR4SNCFVJicvEzJDRDghaSUyWiY7LCB3PSNeJEgxdUkwgJChgZJjZFGidkdFU38qOzwygp&#xA;0+PzhJSktMTU5PRldYWVpbXF1eX1RlZmdoaWprbG1ub2R1dnd4eXp7fH1+f3OEhYaHiImKi4yNjo&#xA;+DlJWWl5iZmpucnZ6fkqOkpaanqKmqq6ytrq+v/aAAwDAQACEQMRAD8A9AWX5p/lteWjXcPmfTBb&#xA;xsUkeW6hhKspIIZZGRl6bVG+Cwy4D3JNqf8AzkD+TmnV9fzPayEdrZZbqvTp6CSDvg4gkY5dyc+Q&#xA;fzM8n+fLCa88u3nrfV3KXNtIPTnj3IVmjO/FwKqf4ggEG0SiRzZThYuxVp3SNGd2CIgLMzGgAG5J&#xA;JxV4r+TX5pedPOfn/wAzwRKuoeQ7S4m/R+qSIsUkRMn7mJCgX1FZKtRl5KtKt2MImy2zgAB3va8m&#xA;1OxVJvN3mC68v6JNqtvpN1rP1f4prSy9P1hGASzqsjJz40+yvxeAwEpAtK/y6/NHyj+YOmS33l+d&#xA;y1sVW8s7hRHcQl6leagstG4mhViPfEG0ygY82W4WLsVdirsVdirz1r2Tzv57vdHRj/hPyq8a6oo2&#xA;W+1RgJFt3I+1DbLRpE/acgNVRvHmWfIeZehZJgx3UfOttYanNYTaTq8ph4/6VbWE9xA/JQ3wSQhw&#xA;eu/vgtkIvG/zO8/3P/K4PIRsY9esLN2dNRt0t7y2N3H6ilY1gorThd+YCnY/dAndsjH0l6O/5p6k&#xA;fM9jplv5N12TR7iq3OsvZyRLDIzBU/dOodo+7ttTsDvkrYcG3Nn+SYOxV2KuxV2KuPTx9sVfP/5g&#xA;/m9o/wCY35e/ofyUb4XWr3cFrqUzWd0Tp9uriWSSZrdJlNQgXijMSCcgZWG6MOE7vQ/K3m/yzoXl&#xA;+x0mfVNW1aa0jEcmoXun6i88p7sx+r/QK1NOpJ3wgsCCSq2/50/l5P5stvKo1CSHV7tQbeO5tri2&#xA;Vnc0SKs6R/G/7O1D0rWgw8QXgNWzjCwefC8l8keebHSWanlHzTJImnIfs2OqAGUwIe0N0vJkT9lw&#xA;QKA5HkWfMebzv8rfIfkTWPzZ/NCPU9HtNS/R+pQSWi3KJNHH9Yad5lWNhw+2u+3tkQBZZzkREPX9&#xA;TsvJnkzy9qGtwaRY2FtpdtJcsLa3hh2hTkFXgo3PEAe9MnyaxZLzj/nFfyYdO8m3Hmy+iUav5ome&#xA;450oVtVYiNQOwd+T7dQV8MjAM8st6e25NqdirwT83fO/mbz0dU8hflwhngtYpP8AFGvAlbaNEQlr&#xA;NJVDcnkpxbj1+z05EQkb2DdCIG5Zd/zjcbdvyc0GWDT49PWRZuaxkt6zxzNE078hXlIY60qdum1B&#xA;hhyY5fqem5JrdirsVY95X/L/AMpeVr7Vb7QtPSzudZmFxfspYhmFSFUEkIoZmbiu1TgApkZE82Me&#xA;Y/zJu9V8wt5I8gtHd6+P+OvrJX1bPSodwzuRtJP2jj6cvtdCMBPQJEaFlnWh6Pa6PpVvpts0kkUA&#xA;NZpmLyyO7F5JZHP2nkdi7HuTkmJNo7FDsVdirzL/AJxzDT/lbaaxNQ3uu3l/qV84PLlNNdyKST48&#xA;Y1yMeTZk5vSpmkWF2iQSShSY4yeIZgNhyoaVPfJNbC/8bed/rJtf8FyfWgglMH6T0/1PTJ4h+POv&#xA;GopXBZZ8I73jfmjzd5n84fmHZeZdN8rTRxflhLcN5itprq3VtyS4iatGKrA5FK1yBNn3NgiAKvm9&#xA;L038z/Pvmjygut+U/Jjv9fhkOmXF3fWiRhwzRh5I+QfirKTx2r4jrkrJYGAB3LMPI195xvPL0L+b&#xA;9Ni0zXEJjuIreVZopOIH71eJbhy/kqaeOEMZVezIMLFIPP3nKx8meUdR8zX0MlxbaeqFoIac3aWR&#xA;YUA5EAfHIKnsMBNMoxs0s/L/AM62HnbylY+ZbGCW2t70PSCcAOrRSNEwqNmHJDQj+zEG1lGjTIsL&#xA;F2KvAv8AnGLzX5R0ryNqenX2r2On3MWsXTfVrieKBhGyxhGCuy1X4SKjwyEDs3ZQSXr/APj/AMif&#xA;9TJpf/Sbb/8ANeSsNXCe55BqOsaHrX/OWHlibTLy21GCDQpI3lt5EmRJV+uPx5IWHIK6n6cj/E2g&#xA;VAvfcm0vNP8AnIqJk/Ky/wBVhoL3RLmy1KxkO3CaC6jHIEd+DsMjLk2Y+bJ/LnkDQfL/AJk8w+YN&#xA;PVxe+ZJYpr5WIKq0SsP3e1QHZy7VPU/LCAxMiRTz/wDNG4u/zF8zwfldochGl20kV5521GM/DDAj&#xA;B4rQHvLIwrTtQeDUid9mcPSLevWVla2NnBZWkSw2lrGkNvCmypHGoVFHsFFMm1K2KpR5n8vtr+m/&#xA;o1tQudPtJW/002TCOaaKhrD6pBaNWNORSjU2qK4CEg0h/wBDaD5W8nXllpFlFYaZZWkzrbwqFFFj&#xA;JZiT9pjTdmNT3OPJbJLFv+cc3R/yX8slCGAhnWo8VupQR9BGCPJlk+ovSMkwdirBPze/Mq8/L3Q7&#xA;PXE0eTVrBroQaj6b+mYI3RuMnKj9XAXcU7VBIyMjTOEeJ5bb+fPzQ/O65l0vyjC/lPyUh9LU9cf4&#xA;7mQEfFFGy8RyI6pGdv2noaGNktnCIc9y9s8jeQ/LfknQotG0K29KFfinuHoZ55O8szgDkx+4dAAN&#xA;smBTVKRJ3ZDhYuxV2KuxV5l+RaHRtJ1vyNMOFz5U1O4hhjOxayvHa6tZqeEgkb7sjHubMm+/e9MZ&#xA;lVSzEKqipJ2AAyTW8Y8saPb+cPzS1P8ANbUj6XlrRIPqHliaUlEmS35Ge9qSP3IdpOBOxrX9nIDc&#xA;22k0OFKvy0hk1D8uvzS86GMxweaZ9VubAMCC1rFDKI23/wAp2X6MRyKZcwEV+Vvlu98zf8456B+j&#xA;rqTTfMVnFetoupWzmJ4poryYKrEH4o5fTCyK1VI7VAogWFmakzH8i/zB1fzx5FXUtZt/q+r2N1Lp&#xA;98QvprJLCqN6ip+zUSAMP5gflhibDDJGi9CyTBTuba2ureS3uYknt5VKSwyKHRlPUMrVBGKutra2&#xA;tbeO3tokgt4lCRQxqERVHQKq0AGKqmKuxV4Z/wA4nWenXn5cX17LaQtPcavctI7IrN/dxEKWIrtX&#xA;bIQ5N2bm9p/RWl/8scH/ACLT+mTabeK63aWdt/zlr5ZFtDHCJNAkeURqqcn/ANMXk3ECp4qB8gMh&#xA;/E3D6C90ybS8y/PZP0zouj+RYDzvPNmpW8DxDdls7SRbq6m/1Y1iWvzyMu5sx7b9z0e8t2ubSe3W&#xA;aS2aaNoxcQkCWMsKc0LBgGXqKg5JrQHlrytoXlrTRp2jWwt7cu0srEs8ssrmryzSuWeR2PVmJOAB&#xA;JNprhQ7FXYqhtU0211TTLvTbsFrS+gktrhVYoxjmQo4DLQqeLdRioKS/l35KtvJPlCx8s2t1JeW9&#xA;gZjFPKqq5E07z0IXbb1KYAKZSlZtkeFi7FVs0MM0TwzIssUgKyRuAysp2IIOxBxVSsrGxsLZLWxt&#xA;4rW1j2jggRY41qa/CqgAb4qr4q7FXYq7FXYqxfX/ACpdN5jsvNWhOkOtW6fVL+GQlYb6xLcjDIQG&#xA;4yRt8cT02NVPwtsCGQO1Fkd3aW15bS2t1Gs1tOpjmhcVV0YUZWHcEdRhYsN82eSNb82KdEvr6PSv&#xA;Jq0SfT9O5G5vIl+zFLMyxrbxbAGONST/AD02wEWzEq96H8//AJZX+s+Vho/lTWpvLXo231KG0gp9&#xA;Re3oVMUsNCRVSRyQ18a4CFjKjunP5a+S4/JPkjS/LCXJvP0ejh7krw5yTSvNIQtTRechoK9MIFBE&#xA;pWbZIkccY4ooQEkkKABUmpO2FiuxV2KuxV2KtMCVIU0YjY9aHFXkn5Vf84+6P5Q0Caz1a5l1DUbi&#xA;4aaS5tLm8s4+HEKicIZYwaUJqRXfIiNNk8llmn/KtfKf++73/uJ6j/2UYaY8RYra/kjbad+cFh56&#xA;0q7MFhb2bwXdjM89zNLO8ckXMTTO5VeDptX9n3wcO9svE9NPUsk1sX0HyrdjzHe+atdeObWbhDaa&#xA;fBES0NlYq3IRRkhS0kpo8z03NFHwruAGRO1P/9k=</xmpGImg:image>
               </rdf:li>
            </rdf:Alt>
         </xmp:Thumbnails>
      </rdf:Description>
      <rdf:Description rdf:about=""
            xmlns:xmpMM="http://ns.adobe.com/xap/1.0/mm/"
            xmlns:stRef="http://ns.adobe.com/xap/1.0/sType/ResourceRef#"
            xmlns:stEvt="http://ns.adobe.com/xap/1.0/sType/ResourceEvent#">
         <xmpMM:RenditionClass>proof:pdf</xmpMM:RenditionClass>
         <xmpMM:OriginalDocumentID>uuid:65E6390686CF11DBA6E2D887CEACB407</xmpMM:OriginalDocumentID>
         <xmpMM:DocumentID>xmp.did:8B07AA7AFA65E711A588CAE2881F51E6</xmpMM:DocumentID>
         <xmpMM:InstanceID>xmp.iid:8B07AA7AFA65E711A588CAE2881F51E6</xmpMM:InstanceID>
         <xmpMM:DerivedFrom rdf:parseType="Resource">
            <stRef:instanceID>uuid:c5b5eddb-66da-6741-a40d-cc810f9d042d</stRef:instanceID>
            <stRef:documentID>xmp.did:FB05051EC465E111835FF2FC000FBA2B</stRef:documentID>
            <stRef:originalDocumentID>uuid:65E6390686CF11DBA6E2D887CEACB407</stRef:originalDocumentID>
            <stRef:renditionClass>proof:pdf</stRef:renditionClass>
         </xmpMM:DerivedFrom>
         <xmpMM:History>
            <rdf:Seq>
               <rdf:li rdf:parseType="Resource">
                  <stEvt:action>saved</stEvt:action>
                  <stEvt:instanceID>xmp.iid:8B07AA7AFA65E711A588CAE2881F51E6</stEvt:instanceID>
                  <stEvt:when>2017-07-11T15:55:55+09:00</stEvt:when>
                  <stEvt:softwareAgent>Adobe Illustrator CS6 (Windows)</stEvt:softwareAgent>
                  <stEvt:changed>/</stEvt:changed>
               </rdf:li>
            </rdf:Seq>
         </xmpMM:History>
      </rdf:Description>
      <rdf:Description rdf:about=""
            xmlns:illustrator="http://ns.adobe.com/illustrator/1.0/">
         <illustrator:StartupProfile>Web</illustrator:StartupProfile>
      </rdf:Description>
      <rdf:Description rdf:about=""
            xmlns:xmpTPg="http://ns.adobe.com/xap/1.0/t/pg/"
            xmlns:stDim="http://ns.adobe.com/xap/1.0/sType/Dimensions#"
            xmlns:xmpG="http://ns.adobe.com/xap/1.0/g/">
         <xmpTPg:NPages>1</xmpTPg:NPages>
         <xmpTPg:HasVisibleTransparency>False</xmpTPg:HasVisibleTransparency>
         <xmpTPg:HasVisibleOverprint>False</xmpTPg:HasVisibleOverprint>
         <xmpTPg:MaxPageSize rdf:parseType="Resource">
            <stDim:w>200.526367</stDim:w>
            <stDim:h>22.850586</stDim:h>
            <stDim:unit>Pixels</stDim:unit>
         </xmpTPg:MaxPageSize>
         <xmpTPg:PlateNames>
            <rdf:Seq>
               <rdf:li>Cyan</rdf:li>
               <rdf:li>Magenta</rdf:li>
               <rdf:li>Yellow</rdf:li>
               <rdf:li>Black</rdf:li>
            </rdf:Seq>
         </xmpTPg:PlateNames>
         <xmpTPg:SwatchGroups>
            <rdf:Seq>
               <rdf:li rdf:parseType="Resource">
                  <xmpG:groupName>初期設定のスウォッチグループ</xmpG:groupName>
                  <xmpG:groupType>0</xmpG:groupType>
                  <xmpG:Colorants>
                     <rdf:Seq>
                        <rdf:li rdf:parseType="Resource">
                           <xmpG:swatchName>ホワイト</xmpG:swatchName>
                           <xmpG:mode>RGB</xmpG:mode>
                           <xmpG:type>PROCESS</xmpG:type>
                           <xmpG:red>255</xmpG:red>
                           <xmpG:green>255</xmpG:green>
                           <xmpG:blue>255</xmpG:blue>
                        </rdf:li>
                        <rdf:li rdf:parseType="Resource">
                           <xmpG:swatchName>ブラック</xmpG:swatchName>
                           <xmpG:mode>RGB</xmpG:mode>
                           <xmpG:type>PROCESS</xmpG:type>
                           <xmpG:red>0</xmpG:red>
                           <xmpG:green>0</xmpG:green>
                           <xmpG:blue>0</xmpG:blue>
                        </rdf:li>
                        <rdf:li rdf:parseType="Resource">
                           <xmpG:swatchName>RGB レッド</xmpG:swatchName>
                           <xmpG:mode>RGB</xmpG:mode>
                           <xmpG:type>PROCESS</xmpG:type>
                           <xmpG:red>255</xmpG:red>
                           <xmpG:green>0</xmpG:green>
                           <xmpG:blue>0</xmpG:blue>
                        </rdf:li>
                        <rdf:li rdf:parseType="Resource">
                           <xmpG:swatchName>RGB イエロー</xmpG:swatchName>
                           <xmpG:mode>RGB</xmpG:mode>
                           <xmpG:type>PROCESS</xmpG:type>
                           <xmpG:red>255</xmpG:red>
                           <xmpG:green>255</xmpG:green>
                           <xmpG:blue>0</xmpG:blue>
                        </rdf:li>
                        <rdf:li rdf:parseType="Resource">
                           <xmpG:swatchName>RGB グリーン</xmpG:swatchName>
                           <xmpG:mode>RGB</xmpG:mode>
                           <xmpG:type>PROCESS</xmpG:type>
                           <xmpG:red>0</xmpG:red>
                           <xmpG:green>255</xmpG:green>
                           <xmpG:blue>0</xmpG:blue>
                        </rdf:li>
                        <rdf:li rdf:parseType="Resource">
                           <xmpG:swatchName>RGB シアン</xmpG:swatchName>
                           <xmpG:mode>RGB</xmpG:mode>
                           <xmpG:type>PROCESS</xmpG:type>
                           <xmpG:red>0</xmpG:red>
                           <xmpG:green>255</xmpG:green>
                           <xmpG:blue>255</xmpG:blue>
                        </rdf:li>
                        <rdf:li rdf:parseType="Resource">
                           <xmpG:swatchName>RGB ブルー</xmpG:swatchName>
                           <xmpG:mode>RGB</xmpG:mode>
                           <xmpG:type>PROCESS</xmpG:type>
                           <xmpG:red>0</xmpG:red>
                           <xmpG:green>0</xmpG:green>
                           <xmpG:blue>255</xmpG:blue>
                        </rdf:li>
                        <rdf:li rdf:parseType="Resource">
                           <xmpG:swatchName>RGB マゼンタ</xmpG:swatchName>
                           <xmpG:mode>RGB</xmpG:mode>
                           <xmpG:type>PROCESS</xmpG:type>
                           <xmpG:red>255</xmpG:red>
                           <xmpG:green>0</xmpG:green>
                           <xmpG:blue>255</xmpG:blue>
                        </rdf:li>
                        <rdf:li rdf:parseType="Resource">
                           <xmpG:swatchName>R=193 G=39 B=45</xmpG:swatchName>
                           <xmpG:mode>RGB</xmpG:mode>
                           <xmpG:type>PROCESS</xmpG:type>
                           <xmpG:red>193</xmpG:red>
                           <xmpG:green>39</xmpG:green>
                           <xmpG:blue>45</xmpG:blue>
                        </rdf:li>
                        <rdf:li rdf:parseType="Resource">
                           <xmpG:swatchName>R=237 G=28 B=36</xmpG:swatchName>
                           <xmpG:mode>RGB</xmpG:mode>
                           <xmpG:type>PROCESS</xmpG:type>
                           <xmpG:red>237</xmpG:red>
                           <xmpG:green>28</xmpG:green>
                           <xmpG:blue>36</xmpG:blue>
                        </rdf:li>
                        <rdf:li rdf:parseType="Resource">
                           <xmpG:swatchName>R=241 G=90 B=36</xmpG:swatchName>
                           <xmpG:mode>RGB</xmpG:mode>
                           <xmpG:type>PROCESS</xmpG:type>
                           <xmpG:red>241</xmpG:red>
                           <xmpG:green>90</xmpG:green>
                           <xmpG:blue>36</xmpG:blue>
                        </rdf:li>
                        <rdf:li rdf:parseType="Resource">
                           <xmpG:swatchName>R=247 G=147 B=30</xmpG:swatchName>
                           <xmpG:mode>RGB</xmpG:mode>
                           <xmpG:type>PROCESS</xmpG:type>
                           <xmpG:red>247</xmpG:red>
                           <xmpG:green>147</xmpG:green>
                           <xmpG:blue>30</xmpG:blue>
                        </rdf:li>
                        <rdf:li rdf:parseType="Resource">
                           <xmpG:swatchName>R=251 G=176 B=59</xmpG:swatchName>
                           <xmpG:mode>RGB</xmpG:mode>
                           <xmpG:type>PROCESS</xmpG:type>
                           <xmpG:red>251</xmpG:red>
                           <xmpG:green>176</xmpG:green>
                           <xmpG:blue>59</xmpG:blue>
                        </rdf:li>
                        <rdf:li rdf:parseType="Resource">
                           <xmpG:swatchName>R=252 G=238 B=33</xmpG:swatchName>
                           <xmpG:mode>RGB</xmpG:mode>
                           <xmpG:type>PROCESS</xmpG:type>
                           <xmpG:red>252</xmpG:red>
                           <xmpG:green>238</xmpG:green>
                           <xmpG:blue>33</xmpG:blue>
                        </rdf:li>
                        <rdf:li rdf:parseType="Resource">
                           <xmpG:swatchName>R=217 G=224 B=33</xmpG:swatchName>
                           <xmpG:mode>RGB</xmpG:mode>
                           <xmpG:type>PROCESS</xmpG:type>
                           <xmpG:red>217</xmpG:red>
                           <xmpG:green>224</xmpG:green>
                           <xmpG:blue>33</xmpG:blue>
                        </rdf:li>
                        <rdf:li rdf:parseType="Resource">
                           <xmpG:swatchName>R=140 G=198 B=63</xmpG:swatchName>
                           <xmpG:mode>RGB</xmpG:mode>
                           <xmpG:type>PROCESS</xmpG:type>
                           <xmpG:red>140</xmpG:red>
                           <xmpG:green>198</xmpG:green>
                           <xmpG:blue>63</xmpG:blue>
                        </rdf:li>
                        <rdf:li rdf:parseType="Resource">
                           <xmpG:swatchName>R=57 G=181 B=74</xmpG:swatchName>
                           <xmpG:mode>RGB</xmpG:mode>
                           <xmpG:type>PROCESS</xmpG:type>
                           <xmpG:red>57</xmpG:red>
                           <xmpG:green>181</xmpG:green>
                           <xmpG:blue>74</xmpG:blue>
                        </rdf:li>
                        <rdf:li rdf:parseType="Resource">
                           <xmpG:swatchName>R=0 G=146 B=69</xmpG:swatchName>
                           <xmpG:mode>RGB</xmpG:mode>
                           <xmpG:type>PROCESS</xmpG:type>
                           <xmpG:red>0</xmpG:red>
                           <xmpG:green>146</xmpG:green>
                           <xmpG:blue>69</xmpG:blue>
                        </rdf:li>
                        <rdf:li rdf:parseType="Resource">
                           <xmpG:swatchName>R=0 G=104 B=55</xmpG:swatchName>
                           <xmpG:mode>RGB</xmpG:mode>
                           <xmpG:type>PROCESS</xmpG:type>
                           <xmpG:red>0</xmpG:red>
                           <xmpG:green>104</xmpG:green>
                           <xmpG:blue>55</xmpG:blue>
                        </rdf:li>
                        <rdf:li rdf:parseType="Resource">
                           <xmpG:swatchName>R=34 G=181 B=115</xmpG:swatchName>
                           <xmpG:mode>RGB</xmpG:mode>
                           <xmpG:type>PROCESS</xmpG:type>
                           <xmpG:red>34</xmpG:red>
                           <xmpG:green>181</xmpG:green>
                           <xmpG:blue>115</xmpG:blue>
                        </rdf:li>
                        <rdf:li rdf:parseType="Resource">
                           <xmpG:swatchName>R=0 G=169 B=157</xmpG:swatchName>
                           <xmpG:mode>RGB</xmpG:mode>
                           <xmpG:type>PROCESS</xmpG:type>
                           <xmpG:red>0</xmpG:red>
                           <xmpG:green>169</xmpG:green>
                           <xmpG:blue>157</xmpG:blue>
                        </rdf:li>
                        <rdf:li rdf:parseType="Resource">
                           <xmpG:swatchName>R=41 G=171 B=226</xmpG:swatchName>
                           <xmpG:mode>RGB</xmpG:mode>
                           <xmpG:type>PROCESS</xmpG:type>
                           <xmpG:red>41</xmpG:red>
                           <xmpG:green>171</xmpG:green>
                           <xmpG:blue>226</xmpG:blue>
                        </rdf:li>
                        <rdf:li rdf:parseType="Resource">
                           <xmpG:swatchName>R=0 G=113 B=188</xmpG:swatchName>
                           <xmpG:mode>RGB</xmpG:mode>
                           <xmpG:type>PROCESS</xmpG:type>
                           <xmpG:red>0</xmpG:red>
                           <xmpG:green>113</xmpG:green>
                           <xmpG:blue>188</xmpG:blue>
                        </rdf:li>
                        <rdf:li rdf:parseType="Resource">
                           <xmpG:swatchName>R=46 G=49 B=146</xmpG:swatchName>
                           <xmpG:mode>RGB</xmpG:mode>
                           <xmpG:type>PROCESS</xmpG:type>
                           <xmpG:red>46</xmpG:red>
                           <xmpG:green>49</xmpG:green>
                           <xmpG:blue>146</xmpG:blue>
                        </rdf:li>
                        <rdf:li rdf:parseType="Resource">
                           <xmpG:swatchName>R=27 G=20 B=100</xmpG:swatchName>
                           <xmpG:mode>RGB</xmpG:mode>
                           <xmpG:type>PROCESS</xmpG:type>
                           <xmpG:red>27</xmpG:red>
                           <xmpG:green>20</xmpG:green>
                           <xmpG:blue>100</xmpG:blue>
                        </rdf:li>
                        <rdf:li rdf:parseType="Resource">
                           <xmpG:swatchName>R=102 G=45 B=145</xmpG:swatchName>
                           <xmpG:mode>RGB</xmpG:mode>
                           <xmpG:type>PROCESS</xmpG:type>
                           <xmpG:red>102</xmpG:red>
                           <xmpG:green>45</xmpG:green>
                           <xmpG:blue>145</xmpG:blue>
                        </rdf:li>
                        <rdf:li rdf:parseType="Resource">
                           <xmpG:swatchName>R=147 G=39 B=143</xmpG:swatchName>
                           <xmpG:mode>RGB</xmpG:mode>
                           <xmpG:type>PROCESS</xmpG:type>
                           <xmpG:red>147</xmpG:red>
                           <xmpG:green>39</xmpG:green>
                           <xmpG:blue>143</xmpG:blue>
                        </rdf:li>
                        <rdf:li rdf:parseType="Resource">
                           <xmpG:swatchName>R=158 G=0 B=93</xmpG:swatchName>
                           <xmpG:mode>RGB</xmpG:mode>
                           <xmpG:type>PROCESS</xmpG:type>
                           <xmpG:red>158</xmpG:red>
                           <xmpG:green>0</xmpG:green>
                           <xmpG:blue>93</xmpG:blue>
                        </rdf:li>
                        <rdf:li rdf:parseType="Resource">
                           <xmpG:swatchName>R=212 G=20 B=90</xmpG:swatchName>
                           <xmpG:mode>RGB</xmpG:mode>
                           <xmpG:type>PROCESS</xmpG:type>
                           <xmpG:red>212</xmpG:red>
                           <xmpG:green>20</xmpG:green>
                           <xmpG:blue>90</xmpG:blue>
                        </rdf:li>
                        <rdf:li rdf:parseType="Resource">
                           <xmpG:swatchName>R=237 G=30 B=121</xmpG:swatchName>
                           <xmpG:mode>RGB</xmpG:mode>
                           <xmpG:type>PROCESS</xmpG:type>
                           <xmpG:red>237</xmpG:red>
                           <xmpG:green>30</xmpG:green>
                           <xmpG:blue>121</xmpG:blue>
                        </rdf:li>
                        <rdf:li rdf:parseType="Resource">
                           <xmpG:swatchName>R=199 G=178 B=153</xmpG:swatchName>
                           <xmpG:mode>RGB</xmpG:mode>
                           <xmpG:type>PROCESS</xmpG:type>
                           <xmpG:red>199</xmpG:red>
                           <xmpG:green>178</xmpG:green>
                           <xmpG:blue>153</xmpG:blue>
                        </rdf:li>
                        <rdf:li rdf:parseType="Resource">
                           <xmpG:swatchName>R=153 G=134 B=117</xmpG:swatchName>
                           <xmpG:mode>RGB</xmpG:mode>
                           <xmpG:type>PROCESS</xmpG:type>
                           <xmpG:red>153</xmpG:red>
                           <xmpG:green>134</xmpG:green>
                           <xmpG:blue>117</xmpG:blue>
                        </rdf:li>
                        <rdf:li rdf:parseType="Resource">
                           <xmpG:swatchName>R=115 G=99 B=87</xmpG:swatchName>
                           <xmpG:mode>RGB</xmpG:mode>
                           <xmpG:type>PROCESS</xmpG:type>
                           <xmpG:red>115</xmpG:red>
                           <xmpG:green>99</xmpG:green>
                           <xmpG:blue>87</xmpG:blue>
                        </rdf:li>
                        <rdf:li rdf:parseType="Resource">
                           <xmpG:swatchName>R=83 G=71 B=65</xmpG:swatchName>
                           <xmpG:mode>RGB</xmpG:mode>
                           <xmpG:type>PROCESS</xmpG:type>
                           <xmpG:red>83</xmpG:red>
                           <xmpG:green>71</xmpG:green>
                           <xmpG:blue>65</xmpG:blue>
                        </rdf:li>
                        <rdf:li rdf:parseType="Resource">
                           <xmpG:swatchName>R=198 G=156 B=109</xmpG:swatchName>
                           <xmpG:mode>RGB</xmpG:mode>
                           <xmpG:type>PROCESS</xmpG:type>
                           <xmpG:red>198</xmpG:red>
                           <xmpG:green>156</xmpG:green>
                           <xmpG:blue>109</xmpG:blue>
                        </rdf:li>
                        <rdf:li rdf:parseType="Resource">
                           <xmpG:swatchName>R=166 G=124 B=82</xmpG:swatchName>
                           <xmpG:mode>RGB</xmpG:mode>
                           <xmpG:type>PROCESS</xmpG:type>
                           <xmpG:red>166</xmpG:red>
                           <xmpG:green>124</xmpG:green>
                           <xmpG:blue>82</xmpG:blue>
                        </rdf:li>
                        <rdf:li rdf:parseType="Resource">
                           <xmpG:swatchName>R=140 G=98 B=57</xmpG:swatchName>
                           <xmpG:mode>RGB</xmpG:mode>
                           <xmpG:type>PROCESS</xmpG:type>
                           <xmpG:red>140</xmpG:red>
                           <xmpG:green>98</xmpG:green>
                           <xmpG:blue>57</xmpG:blue>
                        </rdf:li>
                        <rdf:li rdf:parseType="Resource">
                           <xmpG:swatchName>R=117 G=76 B=36</xmpG:swatchName>
                           <xmpG:mode>RGB</xmpG:mode>
                           <xmpG:type>PROCESS</xmpG:type>
                           <xmpG:red>117</xmpG:red>
                           <xmpG:green>76</xmpG:green>
                           <xmpG:blue>36</xmpG:blue>
                        </rdf:li>
                        <rdf:li rdf:parseType="Resource">
                           <xmpG:swatchName>R=96 G=56 B=19</xmpG:swatchName>
                           <xmpG:mode>RGB</xmpG:mode>
                           <xmpG:type>PROCESS</xmpG:type>
                           <xmpG:red>96</xmpG:red>
                           <xmpG:green>56</xmpG:green>
                           <xmpG:blue>19</xmpG:blue>
                        </rdf:li>
                        <rdf:li rdf:parseType="Resource">
                           <xmpG:swatchName>R=66 G=33 B=11</xmpG:swatchName>
                           <xmpG:mode>RGB</xmpG:mode>
                           <xmpG:type>PROCESS</xmpG:type>
                           <xmpG:red>66</xmpG:red>
                           <xmpG:green>33</xmpG:green>
                           <xmpG:blue>11</xmpG:blue>
                        </rdf:li>
                     </rdf:Seq>
                  </xmpG:Colorants>
               </rdf:li>
               <rdf:li rdf:parseType="Resource">
                  <xmpG:groupName>グレー</xmpG:groupName>
                  <xmpG:groupType>1</xmpG:groupType>
                  <xmpG:Colorants>
                     <rdf:Seq>
                        <rdf:li rdf:parseType="Resource">
                           <xmpG:swatchName>R=0 G=0 B=0</xmpG:swatchName>
                           <xmpG:mode>RGB</xmpG:mode>
                           <xmpG:type>PROCESS</xmpG:type>
                           <xmpG:red>0</xmpG:red>
                           <xmpG:green>0</xmpG:green>
                           <xmpG:blue>0</xmpG:blue>
                        </rdf:li>
                        <rdf:li rdf:parseType="Resource">
                           <xmpG:swatchName>R=26 G=26 B=26</xmpG:swatchName>
                           <xmpG:mode>RGB</xmpG:mode>
                           <xmpG:type>PROCESS</xmpG:type>
                           <xmpG:red>26</xmpG:red>
                           <xmpG:green>26</xmpG:green>
                           <xmpG:blue>26</xmpG:blue>
                        </rdf:li>
                        <rdf:li rdf:parseType="Resource">
                           <xmpG:swatchName>R=51 G=51 B=51</xmpG:swatchName>
                           <xmpG:mode>RGB</xmpG:mode>
                           <xmpG:type>PROCESS</xmpG:type>
                           <xmpG:red>51</xmpG:red>
                           <xmpG:green>51</xmpG:green>
                           <xmpG:blue>51</xmpG:blue>
                        </rdf:li>
                        <rdf:li rdf:parseType="Resource">
                           <xmpG:swatchName>R=77 G=77 B=77</xmpG:swatchName>
                           <xmpG:mode>RGB</xmpG:mode>
                           <xmpG:type>PROCESS</xmpG:type>
                           <xmpG:red>77</xmpG:red>
                           <xmpG:green>77</xmpG:green>
                           <xmpG:blue>77</xmpG:blue>
                        </rdf:li>
                        <rdf:li rdf:parseType="Resource">
                           <xmpG:swatchName>R=102 G=102 B=102</xmpG:swatchName>
                           <xmpG:mode>RGB</xmpG:mode>
                           <xmpG:type>PROCESS</xmpG:type>
                           <xmpG:red>102</xmpG:red>
                           <xmpG:green>102</xmpG:green>
                           <xmpG:blue>102</xmpG:blue>
                        </rdf:li>
                        <rdf:li rdf:parseType="Resource">
                           <xmpG:swatchName>R=128 G=128 B=128</xmpG:swatchName>
                           <xmpG:mode>RGB</xmpG:mode>
                           <xmpG:type>PROCESS</xmpG:type>
                           <xmpG:red>128</xmpG:red>
                           <xmpG:green>128</xmpG:green>
                           <xmpG:blue>128</xmpG:blue>
                        </rdf:li>
                        <rdf:li rdf:parseType="Resource">
                           <xmpG:swatchName>R=153 G=153 B=153</xmpG:swatchName>
                           <xmpG:mode>RGB</xmpG:mode>
                           <xmpG:type>PROCESS</xmpG:type>
                           <xmpG:red>153</xmpG:red>
                           <xmpG:green>153</xmpG:green>
                           <xmpG:blue>153</xmpG:blue>
                        </rdf:li>
                        <rdf:li rdf:parseType="Resource">
                           <xmpG:swatchName>R=179 G=179 B=179</xmpG:swatchName>
                           <xmpG:mode>RGB</xmpG:mode>
                           <xmpG:type>PROCESS</xmpG:type>
                           <xmpG:red>179</xmpG:red>
                           <xmpG:green>179</xmpG:green>
                           <xmpG:blue>179</xmpG:blue>
                        </rdf:li>
                        <rdf:li rdf:parseType="Resource">
                           <xmpG:swatchName>R=204 G=204 B=204</xmpG:swatchName>
                           <xmpG:mode>RGB</xmpG:mode>
                           <xmpG:type>PROCESS</xmpG:type>
                           <xmpG:red>204</xmpG:red>
                           <xmpG:green>204</xmpG:green>
                           <xmpG:blue>204</xmpG:blue>
                        </rdf:li>
                        <rdf:li rdf:parseType="Resource">
                           <xmpG:swatchName>R=230 G=230 B=230</xmpG:swatchName>
                           <xmpG:mode>RGB</xmpG:mode>
                           <xmpG:type>PROCESS</xmpG:type>
                           <xmpG:red>230</xmpG:red>
                           <xmpG:green>230</xmpG:green>
                           <xmpG:blue>230</xmpG:blue>
                        </rdf:li>
                        <rdf:li rdf:parseType="Resource">
                           <xmpG:swatchName>R=242 G=242 B=242</xmpG:swatchName>
                           <xmpG:mode>RGB</xmpG:mode>
                           <xmpG:type>PROCESS</xmpG:type>
                           <xmpG:red>242</xmpG:red>
                           <xmpG:green>242</xmpG:green>
                           <xmpG:blue>242</xmpG:blue>
                        </rdf:li>
                     </rdf:Seq>
                  </xmpG:Colorants>
               </rdf:li>
               <rdf:li rdf:parseType="Resource">
                  <xmpG:groupName>Web カラーグループ</xmpG:groupName>
                  <xmpG:groupType>1</xmpG:groupType>
                  <xmpG:Colorants>
                     <rdf:Seq>
                        <rdf:li rdf:parseType="Resource">
                           <xmpG:swatchName>R=63 G=169 B=245</xmpG:swatchName>
                           <xmpG:mode>RGB</xmpG:mode>
                           <xmpG:type>PROCESS</xmpG:type>
                           <xmpG:red>63</xmpG:red>
                           <xmpG:green>169</xmpG:green>
                           <xmpG:blue>245</xmpG:blue>
                        </rdf:li>
                        <rdf:li rdf:parseType="Resource">
                           <xmpG:swatchName>R=122 G=201 B=67</xmpG:swatchName>
                           <xmpG:mode>RGB</xmpG:mode>
                           <xmpG:type>PROCESS</xmpG:type>
                           <xmpG:red>122</xmpG:red>
                           <xmpG:green>201</xmpG:green>
                           <xmpG:blue>67</xmpG:blue>
                        </rdf:li>
                        <rdf:li rdf:parseType="Resource">
                           <xmpG:swatchName>R=255 G=147 B=30</xmpG:swatchName>
                           <xmpG:mode>RGB</xmpG:mode>
                           <xmpG:type>PROCESS</xmpG:type>
                           <xmpG:red>255</xmpG:red>
                           <xmpG:green>147</xmpG:green>
                           <xmpG:blue>30</xmpG:blue>
                        </rdf:li>
                        <rdf:li rdf:parseType="Resource">
                           <xmpG:swatchName>R=255 G=29 B=37</xmpG:swatchName>
                           <xmpG:mode>RGB</xmpG:mode>
                           <xmpG:type>PROCESS</xmpG:type>
                           <xmpG:red>255</xmpG:red>
                           <xmpG:green>29</xmpG:green>
                           <xmpG:blue>37</xmpG:blue>
                        </rdf:li>
                        <rdf:li rdf:parseType="Resource">
                           <xmpG:swatchName>R=255 G=123 B=172</xmpG:swatchName>
                           <xmpG:mode>RGB</xmpG:mode>
                           <xmpG:type>PROCESS</xmpG:type>
                           <xmpG:red>255</xmpG:red>
                           <xmpG:green>123</xmpG:green>
                           <xmpG:blue>172</xmpG:blue>
                        </rdf:li>
                        <rdf:li rdf:parseType="Resource">
                           <xmpG:swatchName>R=189 G=204 B=212</xmpG:swatchName>
                           <xmpG:mode>RGB</xmpG:mode>
                           <xmpG:type>PROCESS</xmpG:type>
                           <xmpG:red>189</xmpG:red>
                           <xmpG:green>204</xmpG:green>
                           <xmpG:blue>212</xmpG:blue>
                        </rdf:li>
                     </rdf:Seq>
                  </xmpG:Colorants>
               </rdf:li>
            </rdf:Seq>
         </xmpTPg:SwatchGroups>
      </rdf:Description>
      <rdf:Description rdf:about=""
            xmlns:pdf="http://ns.adobe.com/pdf/1.3/">
         <pdf:Producer>Adobe PDF library 10.01</pdf:Producer>
      </rdf:Description>
   </rdf:RDF>
</x:xmpmeta>
                                                                                                    
                                                                                                    
                                                                                                    
                                                                                                    
                                                                                                    
                                                                                                    
                                                                                                    
                                                                                                    
                                                                                                    
                                                                                                    
                                                                                                    
                                                                                                    
                                                                                                    
                                                                                                    
                                                                                                    
                                                                                                    
                                                                                                    
                                                                                                    
                                                                                                    
                                                                                                    
                           
<?xpacket end="w"?>
	</metadata>
<g>
	<path fill="#210701" d="M12.662,6.173c-0.364,0-6.969,0.806-8.658,1.066C2.912,7.395,2.912,7.525,2.912,9.111
		c0,0.624,0.285,3.433,0.285,4.004c0,0.338,0,1.925-0.676,1.925c-0.598,0-1.481-1.431-1.481-2.367c0-0.286,0.025-0.39,0.182-1.169
		C1.3,11.113,1.3,10.541,1.3,10.333c0-1.456-0.26-3.12-0.832-4.134C0.416,6.095,0,5.575,0,5.445c0-0.182,0.52-0.39,0.936-0.39
		c0.391,0,0.572,0.104,1.353,0.572c0.182,0.13,0.39,0.26,1.378,0.26c0.779,0,8.372-0.962,9.048-1.248
		c0.156-0.052,0.702-0.52,0.832-0.52c0.338,0,2.548,1.716,2.548,2.262c0,0.234-0.676,1.04-0.779,1.248
		c-0.286,0.624-1.456,3.536-1.717,4.134c-0.884,1.976-2.912,6.136-6.838,8.632c-0.39,0.234-1.014,0.598-1.17,0.598
		c-0.104,0-0.156-0.078-0.156-0.155c0-0.104,0.494-0.599,0.78-0.884c1.353-1.379,4.004-4.213,5.616-8.555
		c0.729-1.924,1.3-4.316,1.3-4.706C13.13,6.407,13.13,6.173,12.662,6.173z"/>
	<path fill="#210701" d="M38.271,8.825c1.014,0.624,1.118,0.728,1.118,0.962c0,0.156-0.286,0.884-0.312,1.04
		c-0.104,0.468-0.156,1.014-0.156,4.603c0,0.702,0.025,2.106,0.078,3.12c0.025,0.312,0.182,1.82,0.182,2.158
		c0,0.26,0,1.144-0.624,1.144c-0.728,0-1.612-1.118-1.612-1.819c0-0.261,0.26-1.404,0.286-1.664c0.156-1.404,0.26-3.406,0.26-4.785
		c0-0.936,0-3.666-0.676-3.666c-0.13,0-0.233,0.104-0.442,0.313c-2.548,2.443-6.916,4.966-7.384,4.966
		c-0.078,0-0.13-0.052-0.13-0.155c0-0.078,0.025-0.131,0.078-0.183c0.676-0.599,1.404-1.196,1.82-1.56
		c6.136-5.253,8.164-9.673,8.164-10.401c0-0.26-0.078-0.494-0.208-0.728c-0.026-0.052-0.183-0.364-0.183-0.416
		c0-0.104,0.131-0.208,0.261-0.208c0.39,0,3.016,1.092,3.016,2.08c0,0.26-0.13,0.442-0.233,0.52
		c-0.702,0.572-0.807,0.728-1.769,2.132c-0.442,0.624-1.274,1.56-1.769,2.184C38.037,8.617,38.115,8.721,38.271,8.825z"/>
	<path fill="#210701" d="M66.898,16.6c-0.676,0.494-2.002,1.481-2.549,2.132c-0.493,0.598-0.546,0.65-0.936,0.65
		c-1.404,0-3.328-1.664-3.328-2.704c0-0.183,0.026-1.378,0.26-1.378c0.104,0,0.676,0.441,0.78,0.494
		c0.338,0.207,1.196,0.598,1.769,0.598c1.273,0,8.164-4.603,12.48-8.866c0.416-0.416,1.144-1.145,1.195-1.145
		c0.053,0,0.13,0.078,0.13,0.13C76.7,6.745,73.658,11.607,66.898,16.6z M64.766,8.045c-0.701,0-0.962-0.416-1.819-1.716
		c-0.884-1.326-1.639-1.716-2.366-2.132c-0.104-0.052-0.234-0.13-0.234-0.234s0.208-0.234,0.572-0.234
		c2.782,0,4.966,1.482,4.966,3.016C65.884,7.525,65.442,8.045,64.766,8.045z"/>
	<path fill="#210701" d="M105.079,21.29c0.192,0.216,1.176,1.271,1.176,1.416c0,0.048-0.048,0.145-0.168,0.145
		c-0.239,0-5.784-3.984-5.784-11.425S105.848,0,106.087,0c0.12,0,0.168,0.096,0.168,0.144c0,0.144-0.983,1.2-1.176,1.416
		c-0.96,1.2-3.456,4.633-3.456,9.865C101.623,16.657,104.119,20.09,105.079,21.29z"/>
	<path fill="#210701" d="M115.926,15.962c-1.319,1.992-2.28,2.783-3.624,3.6c-0.072,0.049-0.384,0.24-0.432,0.24
		c-0.024,0-0.048-0.023-0.048-0.072c0-0.048,0.575-0.695,0.672-0.816c1.464-1.871,2.664-4.104,2.76-6.216
		c0.024-0.456,0.024-0.624,0.24-0.624c0.072,0,1.68,0.695,1.992,0.816c0.264,0.119,0.408,0.168,0.408,0.336
		c0,0.191-0.744,0.72-0.84,0.84C116.982,14.161,116.118,15.673,115.926,15.962z M129.199,9.961c0.744,0,1.032-0.024,1.248-0.24
		c0.192-0.216,0.84-1.464,1.104-1.464c0.144,0,2.424,1.608,2.424,1.992c0,0.336-0.456,0.336-1.296,0.336h-5.257
		c-0.191,0-0.432,0-0.6,0.168c-0.168,0.144-0.168,0.288-0.168,1.752c0,1.129,0.144,6.169,0.144,7.201c0,0.84,0,1.416-0.96,2.232
		c-0.528,0.432-0.984,0.432-1.152,0.432c-0.239,0-0.336-0.096-0.672-0.504c-0.432-0.504-0.6-0.624-2.208-1.465
		c-0.264-0.144-0.288-0.144-0.288-0.215c0-0.097,0.096-0.097,0.145-0.097c0.264,0,1.487,0.097,1.728,0.097
		c0.288,0,1.008,0,1.248-0.121c0.288-0.144,0.288-0.432,0.288-2.976c0-1.824-0.048-5.857-0.144-6.193
		c-0.097-0.312-0.456-0.312-0.624-0.312h-1.44c-0.6,0-0.696,0.24-0.72,0.672c-0.192,6.289-1.921,9.433-6.841,11.065
		c-0.192,0.071-1.128,0.336-1.225,0.336c-0.071,0-0.096-0.048-0.096-0.097c0.288-0.144,0.672-0.336,0.84-0.432
		c4.801-2.736,5.545-6.385,5.545-10.513c0-0.72,0-1.032-0.672-1.032h-3.001c-2.111,0-2.808,0.048-3.048,0.072
		c-0.072,0-0.432,0.048-0.504,0.048s-0.145-0.048-0.216-0.144l-0.456-0.552c-0.097-0.12-0.097-0.12-0.097-0.168
		c0-0.048,0.024-0.048,0.072-0.048c0.168,0,0.912,0.072,1.056,0.072c1.177,0.048,2.185,0.096,3.313,0.096h4.776
		c0.721,0,0.721-0.24,0.721-2.28c0-2.064,0-2.064-0.072-2.232c-0.12-0.264-0.384-0.264-0.624-0.264h-2.929
		c-2.112,0-2.808,0.048-3.048,0.048c-0.072,0.024-0.432,0.072-0.504,0.072s-0.145-0.072-0.216-0.168l-0.456-0.552
		c-0.049-0.072-0.097-0.12-0.097-0.144c0-0.048,0.024-0.072,0.072-0.072c0.168,0,0.912,0.096,1.056,0.096
		c1.177,0.048,2.185,0.072,3.313,0.072h2.809c0.192,0,0.648,0,0.648-0.6c0-0.864,0-1.68-0.097-2.472
		c-0.023-0.12-0.24-0.672-0.24-0.792c0-0.168,0.168-0.192,0.265-0.192c0.191,0,2.664,0.312,2.664,0.864
		c0,0.24-0.145,0.312-0.528,0.6c-0.216,0.144-0.216,0.264-0.216,1.392c0,1.008,0.024,1.2,0.744,1.2h1.608c0.6,0,1.056,0,1.392-0.264
		c0.192-0.144,0.84-1.248,1.057-1.248c0.144,0,2.376,1.464,2.376,1.824c0,0.336-0.456,0.336-1.272,0.336h-5.16
		c-0.216,0-0.552,0-0.672,0.312c-0.072,0.192-0.072,3.192-0.072,3.48c0,0.504,0,0.984,0.696,0.984H129.199z M132.8,18.962
		c-0.528,0-0.624-0.217-0.96-1.2c-1.152-3.24-2.4-4.177-2.904-4.536c-0.072-0.049-0.433-0.289-0.433-0.336
		c0-0.024,0.024-0.049,0.072-0.049c0.096,0,0.576,0.145,0.672,0.168c2.496,0.816,4.585,2.881,4.585,4.369
		C133.832,17.978,133.592,18.962,132.8,18.962z"/>
	<path fill="#210701" d="M148.83,11.425c0-0.864,0.696-1.584,1.584-1.584c0.864,0,1.584,0.696,1.584,1.584
		c0,0.912-0.744,1.583-1.584,1.583C149.55,13.009,148.83,12.313,148.83,11.425z"/>
	<path fill="#210701" d="M172.014,20.042c-0.479,0-0.695,0.191-0.695,0.768c0,0.816-0.288,1.488-1.272,1.488
		c-0.84,0-0.864-0.504-0.864-0.984c0-0.287,0.096-1.752,0.096-2.063c0.049-0.937,0.145-3.024,0.145-8.569
		c0-0.744,0-4.729-0.048-5.161c-0.024-0.192-0.192-1.008-0.192-1.2c0-0.24,0.24-0.264,0.384-0.264c0.336,0,0.48,0.096,1.776,0.768
		c0.408,0.216,0.552,0.216,0.984,0.216c0.288,0,0.456-0.12,0.6-0.36c0.168-0.288,1.297-3.121,1.32-3.937
		c0.024-0.36,0.024-0.624,0.384-0.624c0.504,0,2.425,0.96,2.425,1.44c0,0.144-0.097,0.312-0.265,0.384
		c-0.479,0.216-0.552,0.216-0.936,0.6c-0.216,0.192-1.152,1.296-1.368,1.536c-0.504,0.576-0.576,0.624-0.576,0.744
		c0,0.216,0.192,0.216,0.264,0.216h9.361c0.24,0,0.528-0.048,0.792-0.336c0.384-0.504,0.432-0.552,0.576-0.552
		c0.191,0,2.184,1.104,2.184,1.632c0,0.144-0.12,0.264-0.239,0.336c-0.505,0.336-0.576,0.36-0.648,0.552
		c-0.048,0.216-0.048,8.761-0.048,9.24c0,2.353,0,3.025,0.048,4.057c0,0.168,0.048,1.008,0.048,1.2c0,1.009-0.768,1.152-1.248,1.152
		c-0.888,0-0.888-0.528-0.888-1.608c0-0.672-0.385-0.672-0.744-0.672H172.014z M171.966,5.665c-0.647,0-0.72,0.432-0.72,0.744v4.824
		c0,0.432,0.191,0.72,0.72,0.72h11.593c0.624,0,0.696-0.408,0.696-0.72V6.409c0-0.432-0.168-0.744-0.696-0.744H171.966z
		 M172.014,12.601c-0.768,0-0.768,0.385-0.768,0.865c0,0.815,0.023,4.488,0.023,5.256c0,0.217,0,0.672,0.769,0.672h11.377
		c0.768,0,0.768-0.455,0.768-0.695c0-0.865,0.072-4.969,0.072-5.4c0-0.24,0-0.697-0.768-0.697H172.014z"/>
	<path fill="#210701" d="M195.75,1.56c-0.192-0.216-1.176-1.272-1.176-1.416c0-0.048,0.048-0.144,0.168-0.144
		c0.24,0,5.784,3.984,5.784,11.425s-5.544,11.425-5.784,11.425c-0.12,0-0.168-0.097-0.168-0.145c0-0.145,0.983-1.2,1.176-1.416
		c0.96-1.2,3.456-4.633,3.456-9.865C199.206,6.193,196.71,2.76,195.75,1.56z"/>
</g>
</svg>
