<svg xmlns="http://www.w3.org/2000/svg" width="558.01" height="25.28" viewBox="0 0 558.01 25.28"><defs><style>.cls-1{fill:#b41815;}</style></defs><g id="レイヤー_2" data-name="レイヤー 2"><g id="レイヤー_2-2" data-name="レイヤー 2"><path class="cls-1" d="M11.75,9a41.66,41.66,0,0,0,7,6.52c.44.29,2.39,1.46,2.73,1.75a1.25,1.25,0,0,1,.57,1c0,.6-.62.78-1.09.78-.75,0-2.73,0-9.18-7.8-.31-.37-1.58-2-1.87-2.29a1.23,1.23,0,0,0-.78-.39c-.44,0-.47,0-4.13,3.41A5.22,5.22,0,0,0,3.8,13.21,1.67,1.67,0,0,1,2.5,14C2,14,1.64,13.89.31,12.51A1.14,1.14,0,0,1,0,11.7c0-.12,0-.31.18-.31s.68.11.81.11c1.19,0,2.52-.5,5.77-3.12C8,7.39,8.4,7.05,9.13,7.05,10.17,7.05,11.05,8.06,11.75,9Zm7.67-1.69a2.5,2.5,0,1,1-5,0A2.48,2.48,0,0,1,17,4.79,2.41,2.41,0,0,1,19.42,7.26Zm-4.13.08a1.65,1.65,0,0,0,3.3,0,1.74,1.74,0,0,0-1.66-1.67A1.69,1.69,0,0,0,15.29,7.34Z"/><path class="cls-1" d="M30.68,6.22a11,11,0,0,0,1.64.1A76.89,76.89,0,0,0,43.08,4.81a9.64,9.64,0,0,1,1.07-.59c.6,0,3.07,2.49,3.07,3.38,0,.18,0,.46-.91.67s-4.89,1.64-5.44,2.37c-.31.44-.41.75-1.32,3.33A14.2,14.2,0,0,1,33,22a6.55,6.55,0,0,1-1.79.75c-.1,0-.16-.05-.16-.13s.06-.12.52-.49a17.63,17.63,0,0,0,4.66-4.84,11.82,11.82,0,0,0,2-5.69,3.34,3.34,0,0,0-.34-1.53c-.21-.42-.23-.47-.23-.57s.39-.24.54-.24a3.94,3.94,0,0,1,1.41.24,7.44,7.44,0,0,0,1,.33c.73,0,3.22-2.49,3.22-3.17,0-.18-.15-.39-.49-.39A45.35,45.35,0,0,0,34,7.88a19,19,0,0,1-2.19.76c-.62,0-2.65-1.67-2.65-2.58,0,0,0-.1.18-.1S30.47,6.19,30.68,6.22Z"/><path class="cls-1" d="M65.57,18.78c.34,0,1.38-.11,2.47-.24.39-.05,2.08-.31,2.42-.31.88,0,1.69.65,1.69,1.22,0,1.41-4.42,1.54-5.88,1.54-3.48,0-8.06-.76-8.06-4.63,0-.83.29-1.2.37-1.2s.1.05.28.65c.6,2.06,3.12,2.91,5.13,2.91Zm-4-14.23a21.75,21.75,0,0,0,4.18-.46,5.61,5.61,0,0,1,1.3-.21,2.72,2.72,0,0,1,2.42,1.77c0,.39-.18.46-1.92.85a7.78,7.78,0,0,0-3.07,1.72c-.21.18-.23.21-.34.21a.09.09,0,0,1-.08-.08c0-.21,1.15-1.59,1.15-1.9s-.08-.18-.89-.21c-3,0-4.91-1.4-4.91-1.76,0-.08.13-.11.18-.11s.16,0,.83.13A10.43,10.43,0,0,0,61.57,4.55Zm11,3.28a2.12,2.12,0,0,1,1.12,1.48c0,.5-.31,1-.73,1s-.52-.11-1.4-1.07a7,7,0,0,0-1.9-1.43c-.13-.1-.42-.29-.42-.39s.21-.23.45-.23A4.69,4.69,0,0,1,72.59,7.83Zm3.85-.62c0,.28-.21.78-.68.78s-.85-.39-1.35-1a6.58,6.58,0,0,0-2.26-1.45c-.29-.11-.34-.21-.34-.29s.52-.31,1-.31C75.09,5,76.44,6.17,76.44,7.21Z"/><path class="cls-1" d="M86.09,12.33A7,7,0,0,0,86,13.91c0,1.07.13,5.83.13,6.79v1.51c0,.1.06.7.06.83A1.16,1.16,0,0,1,85,24.11c-.75,0-.85-.37-.85-.81,0-.21,0-.47,0-.88.08-1.35.15-2.92.15-5,0-.65,0-2.7,0-4.29,0-.36,0-.6-.24-.6s-3.14,2.52-3.45,2.52c0,0-.13,0-.13-.07s1.53-1.69,1.76-2c1.88-2.24,4.09-5.41,4.27-6.66,0-.28,0-.39.21-.39a2.26,2.26,0,0,1,.8.45c.65.44,1.35.93,1.35,1.27s-.18.39-.67.57c-.26.11-.31.11-1.48,1.51a10.78,10.78,0,0,0-.81,1c0,.13,0,.16.42.34a.46.46,0,0,1,.26.49A4.72,4.72,0,0,1,86.09,12.33ZM100,3.7c.49,0,.7-.06.91-.37.34-.49.39-.54.57-.54a.65.65,0,0,1,.39.1c.47.34,1.14.91,1.59,1.25.7.54.75.62.75.88s-.29.52-.68.52c-.2,0-1.35-.13-1.61-.13a4.45,4.45,0,0,0-1.51.44c-.2.11-.39.21-.46.26s-.06-.05-.06-.07a4.33,4.33,0,0,0,.63-1.28c0-.36-.44-.36-.73-.36H85.25c-.46,0-.54,0-.83.91s-1.19,2.21-2,2.21a1,1,0,0,1-1-1.12,1.26,1.26,0,0,1,.47-1A7.05,7.05,0,0,0,83.51,3.2c.08-.15.31-1,.34-1s.44.42.62,1,.29.5.68.5h6c.81,0,.81-.47.81-.81s0-1.51-.06-1.87c0-.11-.15-.52-.15-.63s.13-.23.28-.23,1.77.36,2,.42a.53.53,0,0,1,.52.49c0,.21-.05.26-.52.73-.19.18-.24.31-.24,1.14,0,.57.21.76.89.76ZM98.25,8.32a1,1,0,0,0-1,.45A20.89,20.89,0,0,1,95,11c-.29.23-.47.39-.47.49s.21.16.29.16h4.37a.87.87,0,0,0,.83-.34c.31-.47.36-.55.6-.55a10.24,10.24,0,0,1,1.3.91c.62.5.67.55.67.68a.5.5,0,0,1-.36.44c-.31.18-.47.31-.55.52s-.08,5.12-.08,5.75c0,.31,0,2.13.08,2.75a6.37,6.37,0,0,1,.11.78,1.3,1.3,0,0,1-1.44,1.25c-.62,0-.64-.81-.67-1.22s-.52-.55-.7-.55H93.31c-.62,0-.67.19-.77.83a1.29,1.29,0,0,1-1.23,1,.69.69,0,0,1-.78-.77c0-.21,0-.29,0-1,.08-1,.19-2.39.19-4.84,0-1.87,0-4.73-.16-5.74a7.58,7.58,0,0,1-.13-.81.15.15,0,0,1,.16-.13c.13,0,.26.08,1.45.73a1.43,1.43,0,0,0,.89.29c.47,0,.49-.08.85-.63A9.67,9.67,0,0,0,95,8.69c0-.37-.23-.37-.44-.37h-.42c-.49,0-1.84,0-2.88.06l-.78.07c-.08,0-.13,0-.23-.15l-.5-.6c-.1-.13-.1-.16-.1-.18s.05,0,.07,0c.19,0,1,.07,1.15.07.75,0,2.1.11,3.59.11h4.37c.75,0,.85,0,1.24-.5s.76-.83,1-.83c.39,0,2.06,1.25,2.06,1.64s-.5.36-1.38.36Zm-4.91,4c-.83,0-.83.21-.83,1.93s0,2.05.83,2.05h5.77c.84,0,.84-.21.84-2s0-2-.84-2ZM93.24,17c-.5,0-.7.23-.7.7v2.7c0,.52,0,1,.72,1h6a.61.61,0,0,0,.7-.7V18c0-.52,0-1-.7-1Z"/><path class="cls-1" d="M113.15,10.22a1,1,0,0,1-1,1.12c-.42,0-.65-.18-1-.88a11.2,11.2,0,0,0-2.73-3.36c-.08,0-.36-.26-.36-.31s.18-.1.23-.1a6.91,6.91,0,0,1,2.81.88C113,8.61,113.15,9.81,113.15,10.22ZM116.69,8s.08,0,.08.07-2.63,6.71-2.94,7.39c-1.12,2.34-1.2,2.65-1.2,3.4a5.37,5.37,0,0,0,.29,1.64,7.61,7.61,0,0,1,.52,2.06,1.36,1.36,0,0,1-1.28,1.51c-1.27,0-1.27-1.62-1.27-2.63,0-2.44-.16-3.15-1.9-3.8-.15-.08-.49-.18-.49-.26a.15.15,0,0,1,.15-.15c1.41,0,1.8,0,2.53-.84a45.31,45.31,0,0,0,4.62-7C116.53,8.09,116.58,8,116.69,8Zm-1.9-3.8c0,.62-.39,1.27-1,1.27s-.76-.31-1-1a10.06,10.06,0,0,0-2.13-3.12c-.26-.24-.29-.26-.29-.37a.06.06,0,0,1,.06-.05A9,9,0,0,1,113.28,2,3.06,3.06,0,0,1,114.79,4.19ZM120.72,22c-.5,0-.73.18-.76.62s-.13,1.49-1.45,1.49c-.6,0-.73-.32-.73-.94,0-.34.13-1.95.16-2.34.07-2.19.13-3.2.13-10a27.4,27.4,0,0,0-.11-3.9c0-.21-.21-1.09-.21-1.3s.08-.21.19-.21a3.57,3.57,0,0,1,1.22.52,2.3,2.3,0,0,0,1.25.49.78.78,0,0,0,.7-.49,15,15,0,0,0,1.82-5c0-.08,0-.28.31-.28s2.84.8,2.84,1.56c0,.18-.16.26-.37.33-.8.32-.86.32-1.25.76a34.63,34.63,0,0,1-2.57,2.68c-.08,0-.24.2-.24.28s.19.18.27.18h5.71a1,1,0,0,0,.81-.33c.55-.58.6-.63.78-.63s2.06,1,2.06,1.56c0,.21-.08.26-.42.5s-.42.46-.42,2.15c0,7,0,7.8.11,10,0,.37.15,2.5.15,2.66,0,.46,0,1.66-1.37,1.66-.81,0-.81-.91-.81-1.4a.68.68,0,0,0-.73-.6Zm-.13-14.9c-.76,0-.76.39-.76,1.66,0,.5,0,4.29.06,4.45a.65.65,0,0,0,.7.44h7.3a.67.67,0,0,0,.76-.75c0-4.66,0-5.23-.05-5.36a.67.67,0,0,0-.71-.44Zm0,7.23c-.47,0-.76.23-.76.7s0,5.72.06,5.85a.65.65,0,0,0,.7.42h7.3c.45,0,.73-.21.73-.68,0-.88,0-4.73,0-5.59,0-.7-.52-.7-.76-.7Z"/><path class="cls-1" d="M149.71,7.1c-.26,0-.6,0-.6.26a8.25,8.25,0,0,0,1.74,2.32,1.39,1.39,0,0,0,1.25.49h1.35c1.17,0,1.33,0,1.67-.44.93-1.2,1.06-1.33,1.3-1.33.49,0,2.65,1.64,2.65,2.11s-.52.36-1.38.36h-4.81c-.29,0-.52,0-.52.18,0,.53,4.29,3.46,7.15,4.14.13,0,.52.1.52.21a1,1,0,0,1-.31.13,5.05,5.05,0,0,0-1.87,1.14c-.29.31-.31.34-.47.34-.52,0-4.4-2.76-6.32-5.28-.62-.81-.68-.86-1.43-.86h-4.06a1.39,1.39,0,0,0-.93.24c-.21.18-1.28,1.58-1.51,1.87-3.56,4.29-7.18,5.64-7.38,5.64,0,0,0,0,0-.05s1.38-1.15,1.61-1.35c3.1-2.73,5.2-5.64,5.2-6s-.26-.34-.47-.34h-1.24c-.76,0-2,0-3.07.05L137,11c-.1,0-.15-.08-.23-.18l-.49-.6c-.11-.1-.13-.13-.13-.15s.05-.08.1-.08,1,.08,1.14.1c.76,0,2.08.08,3.57.08h1.58a1,1,0,0,0,1-.47,8.05,8.05,0,0,0,1-2.21c0-.39-.31-.39-.62-.39H142c-.75,0-2,0-3.07.05-.1,0-.7.08-.75.08s-.16-.05-.24-.18l-.52-.57a1.41,1.41,0,0,1-.1-.18c0-.06.05-.06.1-.06s.94.08,1.12.08c.76,0,2.11.11,3.59.11h2c.94,0,1.2,0,1.8-3.49a8.72,8.72,0,0,0,.18-2.13.41.41,0,0,1,.39-.42c.26,0,2.57.63,2.57,1.25,0,.18-.1.26-.52.5S147.29,5.52,147.16,6s.23.42.55.42h4.62a2.91,2.91,0,0,0,1.25-.13c.26-.13,1.09-1.56,1.43-1.56s2.55,1.61,2.55,2c0,.13-.1.24-.28.29a6.72,6.72,0,0,1-1.2,0Zm-2,7.88c-.7,0-.7.08-.85,1.12s-.84,5.54-5.31,7.07a5.72,5.72,0,0,1-1.64.39c-.05,0-.1,0-.1,0s.83-.52,1-.63c4.36-2.86,4.36-6.57,4.36-7.09,0-.21,0-.78-.57-.78-.18,0-1.14.1-1.3.1s-.15,0-.23-.18l-.52-.6c-.08-.1-.11-.13-.11-.16s0-.05.11-.05,1,.08,1.14.08c1.2.05,2.34.1,3.56.1h2.58a.9.9,0,0,0,.65-.2c.15-.11.65-.71.8-.71s1.93,1.33,1.93,1.72c0,.18-.08.23-.5.49-.23.16-.23.32-.28,1.72-.18,4.66-1.22,5.56-1.77,6.06a2.46,2.46,0,0,1-1.14.57c-.34,0-.47-.16-.89-.75a4.3,4.3,0,0,0-2-1.41s-.42-.21-.42-.26.06-.13.24-.13,1.82.16,2.16.16c1.27,0,1.51-.7,1.71-1.59a24.16,24.16,0,0,0,.44-4.26c0-.73-.46-.73-.8-.73ZM143.6,4.66a.91.91,0,0,1-.91,1c-.78,0-1-.62-1.3-1.71a4.77,4.77,0,0,0-1-1.75,3.49,3.49,0,0,1-.47-.49c0-.05.08-.05.15-.05a5.49,5.49,0,0,1,1.46.44A3.2,3.2,0,0,1,143.6,4.66Zm5.59,5.51c.26,0,.57,0,.57-.26,0-.05-.83-1.82-1-2.18-.23-.55-.36-.63-1-.63s-.78,0-1.12.24a15,15,0,0,0-1.22,2.49c0,.34.29.34.47.34Zm4.57-7c0,.21-.1.26-.62.42-.29.1-3.56,2.63-4,2.63-.05,0,.1-.26.16-.37.33-.54,2-2.94,2.18-3.46.05-.1.13-.75.23-.75a3.37,3.37,0,0,1,1.2.57C153.58,2.63,153.76,2.89,153.76,3.12Z"/><path class="cls-1" d="M170.85,22.24c-.58,0-.6-.34-.6-.42,0-.42.39-.42,1.32-.42,1.41,0,2.08-.07,2.4-.8.18-.44.18-5,.18-5.93,0-1.25-.05-7.31-.05-8.69,0-1.22-.37-1.22-2.55-1.22-.63,0-.89,0-.89-.34s.26-.36,1.07-.41a12.69,12.69,0,0,0,2.94-.65,11.17,11.17,0,0,1,1.27-.57c.29,0,.29.07.29,1.24,0,.71,0,4.06,0,4.84,0,1.2,0,11.18.1,11.47.18.75.55,1.06,2.47,1.06.23,0,.62,0,.62.47s-.41.37-.65.37Z"/><path class="cls-1" d="M195,15.86c0,3.72-2.71,6.87-5.57,6.87s-6-3.2-6-8.92c0-6.06,3.49-11,7.41-11,1.59,0,2.91,1,2.91,2.18a1.29,1.29,0,0,1-1.35,1.3c-.47,0-1.38-.29-1.43-1.74,0-.52-.08-.89-.75-.89-2.5,0-4.37,5-4.37,8.45,0,.11,0,.52.18.52s.13-.07.65-.59a4.91,4.91,0,0,1,3.64-1.77C192.79,10.25,195,12.54,195,15.86ZM186,15.63c0,2.68,1.32,6.27,3.38,6.27,1.19,0,3.33-1.43,3.33-5.7,0-1.3-.24-4.81-3.05-4.81A4.3,4.3,0,0,0,186,15.63Z"/><path class="cls-1" d="M198.35,24.42c.47-.31,1-.89,1-1.35,0-.21-.26-.34-.76-.6a1.54,1.54,0,0,1-1-1.46,1.73,1.73,0,1,1,3.46.08c0,2.29-2.26,4.19-2.94,4.19a.28.28,0,0,1-.31-.29C197.78,24.86,197.81,24.81,198.35,24.42Z"/><path class="cls-1" d="M215.44,15.86c0,3.72-2.71,6.87-5.57,6.87s-6-3.2-6-8.92c0-6.06,3.49-11,7.41-11,1.59,0,2.91,1,2.91,2.18a1.29,1.29,0,0,1-1.35,1.3c-.47,0-1.38-.29-1.43-1.74,0-.52-.08-.89-.75-.89-2.5,0-4.37,5-4.37,8.45,0,.11,0,.52.18.52s.13-.07.65-.59a4.91,4.91,0,0,1,3.64-1.77C213.2,10.25,215.44,12.54,215.44,15.86Zm-9.05-.23c0,2.68,1.32,6.27,3.38,6.27,1.19,0,3.33-1.43,3.33-5.7,0-1.3-.24-4.81-3-4.81A4.3,4.3,0,0,0,206.39,15.63Z"/><path class="cls-1" d="M221.1,5.26c-.88,0-.88.23-.91,1,0,.39-.2,4.78-.2,4.81,0,.2,0,.39.23.39s.23-.06,1-.55A4.94,4.94,0,0,1,224,10.2a5.63,5.63,0,0,1,5.59,5.9,6.62,6.62,0,0,1-6.5,6.63c-2.75,0-4.86-2-4.86-3.69a1.46,1.46,0,0,1,1.54-1.51,1.23,1.23,0,0,1,1.32,1.27c0,.21-.21,1.22-.21,1.46,0,1.12,1.25,1.64,2.16,1.64,1.9,0,4.14-1.85,4.14-5.49,0-3.46-2-5.1-3.67-5.1a5.87,5.87,0,0,0-3.38,1.51c-.13.11-.62.73-.81.73s-.23-.18-.23-.42c0-1,.31-7.48.36-8.89,0-.34.06-1,.84-1h7.43c.52,0,.76,0,.76.26a6.74,6.74,0,0,1-.37,1.33c-.15.39-.41.39-.75.39Z"/><path class="cls-1" d="M238.11,22.73c-4.11,0-5.85-5.18-5.85-10s1.77-10,5.85-10,5.85,5.4,5.85,10S242.29,22.73,238.11,22.73Zm0-19.09c-3.46,0-3.51,7.8-3.51,9.13,0,1.07,0,9.13,3.51,9.1s3.51-7.75,3.51-9.1C241.62,11.68,241.62,3.64,238.11,3.64Z"/><path class="cls-1" d="M258.23,13.78c-.39,0-.83,0-.86.73s0,3.75,0,7.8c0,1.77-1.2,1.87-1.43,1.87-.78,0-.78-.36-.78-.7,0-.05.15-2.21.18-2.62.18-2.76.23-14.1.23-14.36,0-.7-.1-4.1-.1-4.86,0-.18,0-.31.13-.31a5.08,5.08,0,0,1,1.4.47,2.72,2.72,0,0,0,1.33.21h14c.83,0,.93-.08,1.22-.37s.55-.47.7-.47,2.08,1.23,2.08,1.59-.13.34-.67.75-.47.37-.47,3.15c0,2.13.26,12.87.26,15.29,0,1.84-2,2.11-2.11,2.11-.44,0-.49-.19-.6-.89s-1.32-1.12-2.08-1.4c-1.37-.5-1.53-.55-1.53-.7s.18-.14.31-.14c.34,0,2.71.4,3.23.4.26,0,.57,0,.65-.29s.1-2.24.1-2.81,0-3.72-.08-3.93a.68.68,0,0,0-.78-.52Zm5.28-.67c.26,0,.55,0,.68-.31s.1-5.49.1-6.11,0-3.49-.1-3.67-.39-.31-.68-.31h-5.33c-.21,0-.55,0-.68.31s-.07,4.52-.07,5.15,0,4.29.05,4.52c.08.42.54.42.7.42Zm8.89,0c.91,0,.91-.18.91-1.8,0-.36-.08-7.85-.13-8.16s-.44-.44-.86-.44h-5.2c-.33,0-.65,0-.78.28s-.13,4.16-.13,4.84,0,4.73.13,5,.42.29.78.29Z"/><path class="cls-1" d="M305.55,7.49c-1,.94-2.6,2.55-3.87,3.82-1.12,1.1-1.22,1.17-1.22,1.44s.2.46.46.7c.55.52,3.18,3.09,3.77,3.69,1,1,1.1,1.12,1.1,1.32a.66.66,0,0,1-.63.65.68.68,0,0,1-.49-.18c-.63-.57-3.15-3-4.71-4.57-.31-.29-.44-.45-.7-.45a.81.81,0,0,0-.52.26c-.65.63-2.76,2.71-4.16,4.06-.94.91-1,1-1.27,1a.64.64,0,0,1-.65-.66A.79.79,0,0,1,293,18c.68-.62,3.85-3.82,4.61-4.52a1.1,1.1,0,0,0,.44-.68.92.92,0,0,0-.34-.6L293.85,8.4C292.73,7.34,292.6,7.18,292.6,7a.67.67,0,0,1,.68-.68c.26,0,.42.16.62.36.63.65,3.93,3.77,4.66,4.5.26.29.47.45.7.45a.71.71,0,0,0,.49-.24c.55-.52,2.71-2.65,4.06-3.95.94-.94,1.07-1,1.33-1a.66.66,0,0,1,.41,1.14Z"/><path class="cls-1" d="M315,22.24c-.15,0-.75,0-.75-.4,0-1.37,1.66-3.38,2.26-4.08,6.14-7.3,6.68-8,6.68-10.45a3.48,3.48,0,0,0-3.46-3.67c-1.56,0-2.91,1.07-2.91,2.19a1.34,1.34,0,0,0,.26.78,2.09,2.09,0,0,1,.55,1.25,1.42,1.42,0,0,1-1.41,1.4,1.6,1.6,0,0,1-1.48-1.77c0-2.21,2.29-4.7,5.59-4.7,2.81,0,5.2,1.82,5.2,4.88,0,2.68-1.63,4.16-3.84,6-3.93,3.28-5.34,5.69-5.34,6.19s.84.39.94.39H320c2.62,0,4.13-.73,4.86-2.44.42-1,.42-1,.57-1s.26.31.26.36c0,.21-.83,3.56-1,4.11a1.38,1.38,0,0,1-1.56.94Z"/><path class="cls-1" d="M353.55,14.62a1,1,0,0,0,.93-.39c.29-.37.45-.52.63-.52s2.13,1,2.13,1.48a.5.5,0,0,1-.21.41,3,3,0,0,0-.52.42,8.92,8.92,0,0,0-.26,3.15c0,.46.16,2.81.16,3.33s-.08,1.29-1.38,1.29c-.62,0-.7-.28-.7-1.14,0-.6-.52-.6-.78-.6h-7.78c-.8,0-.8.26-.8.94a1,1,0,0,1-.18.67,1.78,1.78,0,0,1-1.12.52c-.55,0-.78-.41-.78-1,0-.15.08-1.22.08-1.43,0-.62.07-1.51.07-3,0-.84,0-1.59-.05-2.45,0-.31-.05-.47-.21-.47a3,3,0,0,0-.65.24,29,29,0,0,1-5.74,2c-.11,0-.26,0-.26-.16s.08-.16.73-.42a33.76,33.76,0,0,0,12.87-8.71A15.41,15.41,0,0,0,352.3,5c0-.24-.28-.24-.41-.24h-6.35c-.81,0-.88.11-1.64.86-2.68,2.78-5.85,5-6.6,5-.08,0-.16,0-.16-.11s1.51-1.38,1.77-1.61c1-1,5-5,5.85-7.77.08-.26.13-.55.31-.55s2.45,1,2.45,1.35c0,.13-.65.47-.78.57a10.13,10.13,0,0,0-1.17,1.43c0,.19.15.19.52.19h5.82a.92.92,0,0,0,.91-.47c.55-.73.6-.81.86-.81s2.39.81,2.39,1.33c0,.23-.05.28-.78.75a3.85,3.85,0,0,0-1,1.15,30.71,30.71,0,0,1-8.06,7.85c-.47.31-.52.34-.52.47s.41.26.78.26Zm-7-4.53a1.24,1.24,0,0,1-1.17,1.41c-.42,0-.44-.11-.81-1.28a7.14,7.14,0,0,0-1.09-2.34c-.21-.34-.26-.41-.26-.49a.14.14,0,0,1,.08-.13C343.46,7.26,346.58,7.93,346.58,10.09Zm-1,5.2c-.16,0-.57,0-.7.34a19.51,19.51,0,0,0-.08,2.24,31.21,31.21,0,0,0,.1,3.17c.13.34.52.34.71.34h8c.44,0,.68-.16.73-.39s.1-3.12.1-3.64c0-1.85,0-2.06-.78-2.06Z"/><path class="cls-1" d="M368.32,11.08c-.39,0-1,0-1-.68s.65-.67,1-.67H380.9c.39,0,1,0,1,.67s-.65.68-1,.68Zm0,4.71c-.39,0-1,0-1-.68s.65-.68,1-.68H380.9c.39,0,1,0,1,.68s-.65.68-1,.68Z"/><path class="cls-1" d="M403.1,1.3a.2.2,0,0,1,.06.13c0,.16-.08.19-.29.34a.23.23,0,0,0-.1.21,18.29,18.29,0,0,0,4.05,5.46,21.3,21.3,0,0,0,6.55,4c.84.32.84.32.84.5s-.11.26-.91.44a3.32,3.32,0,0,0-1.64.73c-.11.1-.24.23-.34.23s-1.35-.44-3.77-2.86a19.86,19.86,0,0,1-4.89-6.86c-.15-.34-.54-1.17-.67-1.17s-.19.08-.71.83C397,9.5,391,13.39,390.36,13.39c-.13,0-.2-.07-.2-.15s2.52-2.37,3-2.84a33.23,33.23,0,0,0,6.34-8.71c.13-.26.55-1.63.62-1.69A12.07,12.07,0,0,1,403.1,1.3Zm2.34,13.58a1.09,1.09,0,0,0,.58-.11c.15-.13.83-.88,1-.88s1.69,1.19,1.69,1.64c0,.23-.08.31-.34.54s-.28,1.41-.28,1.8c0,.8.15,4.42.15,5.14s-1.3,1-1.66,1c-.57,0-.57-.5-.57-.68,0-1.09,0-1.38-.68-1.38h-7.85c-.26,0-.78,0-.78.7s0,.78-.18,1a2.4,2.4,0,0,1-1.38.52.61.61,0,0,1-.68-.67c0-.16.24-4.94.24-5.88,0-.54,0-2-.06-2.52,0-.1-.13-.7-.13-.81s0-.28.24-.28a13.76,13.76,0,0,1,1.56.7,2.28,2.28,0,0,0,1.06.16Zm-3.74-4.06c.94,0,1.25,0,1.53-.23s1-1.28,1.25-1.28a10,10,0,0,1,2.37,1.87c0,.32-.63.32-1.41.32h-4.88c-1.85,0-2.55,0-3.31.08l-.54.05c-.08,0-.13-.05-.24-.16l-.49-.6c-.1-.1-.1-.13-.1-.18s0,0,.07,0,1,.1,1.15.1c1.27.08,2.36.08,3.59.08Zm3.67,10.51c.75,0,.75-.5.75-.81,0-.65,0-3.56,0-4.16,0-.31,0-.81-.73-.81h-7.91c-.75,0-.8.42-.8.81,0,.65,0,3.56,0,4.16,0,.34,0,.81.78.81Z"/><path class="cls-1" d="M424.79,5.46a1.11,1.11,0,0,0,1.14-.54c.6-.89.68-1,1-1s2.36,1.45,2.36,1.87-.31.34-.73.34H420c-.44,0-.88,0-1.43,0a3.93,3.93,0,0,1-.54.08c-.06,0-.11-.08-.19-.18l-.39-.55a.3.3,0,0,1-.07-.15c0-.06.05-.08.1-.08s.52.08.6.08c1.17.07,1.35.07,1.82.07ZM424.22,9c.54,0,.72,0,1-.44.49-.73.67-.83.85-.83.47,0,1.54,1.32,1.54,1.66s-.31.31-.73.31h-5.85c-.49,0-.7,0-1.12,0-.13,0-.72.08-.83.08s-.1,0-.18-.16l-.47-.57a.37.37,0,0,1-.08-.18c0-.06.05-.06.08-.06a5.58,5.58,0,0,1,.57.08c.6.05,1.2.08,1.87.08Zm-.32,3.22c.52,0,.76,0,1.1-.52.52-.83.57-.93.83-.93A5.16,5.16,0,0,1,428,12.64c0,.26-.31.26-.73.26h-6c-.42,0-.91,0-1.43,0-.1,0-.47.08-.54.08s-.08,0-.19-.18l-.41-.55c-.06-.1-.08-.1-.08-.15a.1.1,0,0,1,.1-.11,3.56,3.56,0,0,1,.6.11c1.09.07,1.43.07,1.82.07ZM423.46,1.9a1.34,1.34,0,0,0,.68-.1c.26-.16,1.09-1.41,1.38-1.41s.26.08,1.14.86c.52.5.91.81.91,1s-.31.31-.73.31h-5.15a14,14,0,0,0-1.43,0l-.52.05c-.07,0-.15-.08-.2-.15L419.15,2a.33.33,0,0,1-.08-.18c0-.05.05-.05.1-.05a4.51,4.51,0,0,1,.6.08,15.19,15.19,0,0,0,1.82.1Zm-1.35,19.84c-.16,0-.73,0-.73.6,0,.1.08.52.08.62,0,.91-1,1.3-1.53,1.3s-.42-.26-.45-.52c0-.57,0-3.3,0-3.92,0-.81,0-1.54-.1-3.33,0-.21-.08-1.15-.08-1.3s0-.24.1-.24a13.13,13.13,0,0,1,1.64.71,3.28,3.28,0,0,0,.88.18h2.58a1.06,1.06,0,0,0,.78-.26c.29-.37.36-.47.6-.47s2,.94,2,1.35c0,.16-.16.29-.5.6s-.36.73-.36,1.82c0,.49.13,3.41.13,4.06S426,24,425.85,24c-.46,0-.46-.18-.46-1.19,0-.78,0-1.07-.7-1.07Zm-.1-5.23c-.76,0-.76.26-.76,1.33,0,.62.06,2.68.11,2.83s.39.37.7.37h2.63c.75,0,.75-.39.75-.94,0-.39-.05-2-.05-2.36,0-.94,0-1.23-.7-1.23Zm11.2-6.94c.34,0,.65-.07.73-.49,0-.11,0-2.11,0-2.47,0-.94,0-3-.05-4.45,0-.21-.11-1.25-.11-1.32s0-.21.11-.21c.41,0,2.83.52,2.83.91,0,.18-.81.75-.88.93s-.11,5.78-.11,6.43.42.67,1.17.67a.88.88,0,0,0,.65-.23c.21-.18.91-1.43,1.2-1.43s2.47,1.59,2.47,2-.34.31-.73.31h-4c-.16,0-.65,0-.73.49,0,.13,0,.37,0,3.41,0,1.22.06,7.2.06,8.55a1.43,1.43,0,0,1-1.28,1.51c-.72,0-.72-.86-.72-1.3,0-1.69.15-10,.15-11.88,0-.31,0-.78-.73-.78h-2.47a9,9,0,0,0-1.43.05c-.08,0-.44.08-.52.08s-.1,0-.18-.18l-.36-.55a.44.44,0,0,1-.08-.21s.05,0,.08,0,.52.08.6.08c.59,0,1.17.1,1.84.1Z"/><path class="cls-1" d="M461.68,7.18a5,5,0,0,1-2.31,4c-.21.13-1.35.76-1.35.91s1.22.65,1.43.78a5.11,5.11,0,0,1,2.62,4.42c0,3.33-2.86,5.49-6.13,5.49-2.6,0-5.1-1.46-5.1-3.54a1.44,1.44,0,0,1,1.48-1.56,1.23,1.23,0,0,1,1.28,1.22c0,.21-.24,1.17-.24,1.38,0,1,1.12,1.67,2.34,1.67,2.08,0,4-2.11,4-4.63s-1.79-4.76-4.08-4.76c-.13,0-.86.1-1,.1a.51.51,0,0,1-.58-.52.56.56,0,0,1,.6-.54c.16,0,.94.13,1.12.13a3.85,3.85,0,0,0,3.56-4.11c0-2-1.22-3.93-3.27-3.93A1.87,1.87,0,0,0,454,5.31c0,.13.13.8.13,1a1.35,1.35,0,0,1-1.33,1.38,1.32,1.32,0,0,1-1.3-1.38c0-1.25,1.53-3.48,5.07-3.48C459.13,2.79,461.68,4.53,461.68,7.18Z"/><path class="cls-1" d="M476,7.18a5,5,0,0,1-2.31,4c-.21.13-1.35.76-1.35.91s1.22.65,1.43.78a5.11,5.11,0,0,1,2.62,4.42c0,3.33-2.86,5.49-6.13,5.49-2.6,0-5.1-1.46-5.1-3.54a1.44,1.44,0,0,1,1.48-1.56,1.23,1.23,0,0,1,1.28,1.22c0,.21-.24,1.17-.24,1.38,0,1,1.12,1.67,2.34,1.67,2.08,0,4-2.11,4-4.63s-1.79-4.76-4.08-4.76c-.13,0-.86.1-1,.1a.51.51,0,0,1-.58-.52.56.56,0,0,1,.6-.54c.16,0,.94.13,1.12.13a3.85,3.85,0,0,0,3.56-4.11c0-2-1.22-3.93-3.27-3.93a1.87,1.87,0,0,0-2.08,1.67c0,.13.13.8.13,1a1.35,1.35,0,0,1-1.33,1.38,1.32,1.32,0,0,1-1.3-1.38c0-1.25,1.53-3.48,5.07-3.48C473.43,2.79,476,4.53,476,7.18Z"/><path class="cls-1" d="M480.06,24.42c.47-.31,1-.89,1-1.35,0-.21-.26-.34-.76-.6a1.54,1.54,0,0,1-1-1.46,1.73,1.73,0,1,1,3.46.08c0,2.29-2.26,4.19-2.94,4.19a.28.28,0,0,1-.31-.29C479.49,24.86,479.52,24.81,480.06,24.42Z"/><path class="cls-1" d="M496.39,7.18a5,5,0,0,1-2.31,4c-.21.13-1.35.76-1.35.91s1.22.65,1.43.78a5.11,5.11,0,0,1,2.62,4.42c0,3.33-2.86,5.49-6.13,5.49-2.6,0-5.1-1.46-5.1-3.54A1.44,1.44,0,0,1,487,17.63a1.23,1.23,0,0,1,1.28,1.22c0,.21-.24,1.17-.24,1.38,0,1,1.12,1.67,2.34,1.67,2.08,0,4-2.11,4-4.63s-1.79-4.76-4.08-4.76c-.13,0-.86.1-1,.1a.51.51,0,0,1-.58-.52.56.56,0,0,1,.6-.54c.16,0,.94.13,1.12.13a3.85,3.85,0,0,0,3.56-4.11c0-2-1.22-3.93-3.27-3.93a1.87,1.87,0,0,0-2.08,1.67c0,.13.13.8.13,1a1.35,1.35,0,0,1-1.33,1.38,1.32,1.32,0,0,1-1.3-1.38c0-1.25,1.53-3.48,5.07-3.48C493.84,2.79,496.39,4.53,496.39,7.18Z"/><path class="cls-1" d="M505.52,22.73c-4.11,0-5.85-5.18-5.85-10s1.77-10,5.85-10,5.85,5.4,5.85,10S509.7,22.73,505.52,22.73Zm0-19.09c-3.46,0-3.51,7.8-3.51,9.13,0,1.07,0,9.13,3.51,9.1s3.51-7.75,3.51-9.1C509,11.68,509,3.64,505.52,3.64Z"/><path class="cls-1" d="M519.82,22.73c-4.11,0-5.85-5.18-5.85-10s1.77-10,5.85-10,5.85,5.4,5.85,10S524,22.73,519.82,22.73Zm0-19.09c-3.46,0-3.51,7.8-3.51,9.13,0,1.07,0,9.13,3.51,9.1s3.51-7.75,3.51-9.1C523.33,11.68,523.33,3.64,519.82,3.64Z"/><path class="cls-1" d="M539.94,13.78c-.39,0-.83,0-.86.73s0,3.75,0,7.8c0,1.77-1.2,1.87-1.43,1.87-.78,0-.78-.36-.78-.7,0-.05.15-2.21.18-2.62.18-2.76.23-14.1.23-14.36,0-.7-.1-4.1-.1-4.86,0-.18,0-.31.13-.31a5.08,5.08,0,0,1,1.4.47A2.72,2.72,0,0,0,540,2h14c.83,0,.93-.08,1.22-.37s.55-.47.7-.47S558,2.4,558,2.76s-.13.34-.67.75-.47.37-.47,3.15c0,2.13.26,12.87.26,15.29,0,1.84-2,2.11-2.11,2.11-.44,0-.49-.19-.6-.89s-1.32-1.12-2.08-1.4c-1.37-.5-1.53-.55-1.53-.7s.18-.14.31-.14c.34,0,2.71.4,3.23.4.26,0,.57,0,.65-.29s.1-2.24.1-2.81,0-3.72-.08-3.93a.68.68,0,0,0-.78-.52Zm5.28-.67c.26,0,.55,0,.68-.31s.1-5.49.1-6.11,0-3.49-.1-3.67-.39-.31-.68-.31h-5.33c-.21,0-.55,0-.68.31s-.07,4.52-.07,5.15,0,4.29.05,4.52c.08.42.54.42.7.42Zm8.89,0c.91,0,.91-.18.91-1.8,0-.36-.08-7.85-.13-8.16s-.44-.44-.86-.44h-5.2c-.33,0-.65,0-.78.28s-.13,4.16-.13,4.84,0,4.73.13,5,.42.29.78.29Z"/></g></g></svg>