<?xml version="1.0" encoding="utf-8"?>
<!-- Generator: Adobe Illustrator 25.2.3, SVG Export Plug-In . SVG Version: 6.00 Build 0)  -->
<svg version="1.1" id="レイヤー_1" xmlns="http://www.w3.org/2000/svg" xmlns:xlink="http://www.w3.org/1999/xlink" x="0px"
	 y="0px" viewBox="0 0 114 438" style="enable-background:new 0 0 114 438;" xml:space="preserve">
<style type="text/css">
	.st0{fill:#200701;}
	.st1{fill:none;stroke:#76544B;stroke-miterlimit:10;}
</style>
<g>
	<g>
		<path class="st0" d="M80.4,104.1c0.2-2.2,0.3-3.9,0.3-5c0-0.5,0-0.6,0-1.3c0.6,0.1,1,0.2,1.3,0.3c1.6,0.3,1.8,0.4,1.8,0.6
			c0,0.3-0.3,0.4-1.3,0.7c-0.1,2.4-0.1,3.2-0.3,4.8h2.7c0.5-0.8,0.7-1,1.4-1.8c0.9,0.8,1.2,1.1,2,2c0.1,0.1,0.1,0.2,0.1,0.2
			c0,0.1-0.1,0.2-0.2,0.2h-6c-0.3,3.1-0.8,5.9-1.5,8.3c-0.6,2.2-1.5,4.5-2.5,6.4c-0.5,1-0.8,1.5-1.8,2.8l-0.5-0.3
			c1.3-2,1.7-3.1,2.5-5.6c1.1-3.5,1.7-6.8,2-11.5h-1.8c-0.5,0-1,0-1.8,0.1l-0.2-1c0.8,0.1,1.7,0.2,2.3,0.2H80.4z M79.3,119.6
			c-0.1-0.2-0.1-0.4-0.1-0.6c0.6-0.1,0.6-0.1,1.3-0.1c1-2.3,1.4-3.6,2.1-5.8c0.7-2.5,1.1-4.3,1.3-6c0.5,0.1,0.9,0.2,1.1,0.3
			c1,0.2,1.4,0.4,1.4,0.6c0,0.2-0.3,0.3-1,0.4c-0.2,0.7-0.4,1.2-0.5,1.6c-0.8,2.4-0.9,2.6-2.5,6.5c-0.4,1-0.5,1.1-1.1,2.3
			c4.1-0.6,4.1-0.6,5-0.9c-0.5-1.8-0.8-2.6-1.5-4.3l0.4-0.2c0.8,1.1,1.1,1.5,2,2.9c1,1.7,1.3,2.1,1.3,2.5c0,0.7-0.8,2-1.2,2
			c-0.2,0-0.3-0.2-0.4-0.6c0-0.1-0.1-0.7-0.3-1.8c-1.5,0.6-3.7,1.3-5.9,1.9c-0.1,0.3-0.2,0.5-0.2,0.6c-0.1,0.3-0.3,0.6-0.4,0.6
			c-0.1,0-0.2-0.1-0.3-0.2c-0.1-0.1-0.2-0.5-0.3-1L79.3,119.6z M98,108.7c0.5-0.7,0.6-1,1.2-1.7c0.9,0.8,1.2,1,2,1.9
			c0.1,0.1,0.1,0.1,0.1,0.2c0,0.1-0.1,0.2-0.3,0.2h-4.6v4.9h1.6c0.5-0.7,0.7-0.9,1.3-1.7c1,0.8,1.2,1.1,2.1,2c0,0.1,0.1,0.1,0.1,0.1
			c0,0.1-0.1,0.2-0.3,0.2h-4.8v5.4h2c0.6-0.8,0.8-1,1.5-1.7c1.1,0.8,1.4,1.1,2.4,2c0.1,0.1,0.1,0.1,0.1,0.2c0,0.1-0.1,0.2-0.2,0.2
			H91.4v1.6c0,0.4-0.3,0.6-1.3,0.6c-0.4,0-0.5-0.1-0.6-0.4c0.1-2.8,0.1-4.1,0.1-7.4v-9.3c-1,1.8-1.7,2.7-3,4.3l-0.4-0.3
			c1.5-2.3,2.5-4.3,3.6-7.4c0.8-2.2,1.1-3.6,1.3-5c0.6,0.2,1,0.3,1.3,0.4c1.2,0.3,1.7,0.5,1.7,0.8s-0.2,0.3-1.4,0.5
			c-1.1,2.8-1.3,3.1-1.8,4.3h3.6c1-2.3,1.5-3.8,1.9-5.6c2.7,0.7,3.1,0.9,3.1,1.2c0,0.3-0.3,0.4-1.5,0.5c-0.4,0.6-0.4,0.6-2.2,3.2
			c-0.1,0.1-0.2,0.3-0.6,0.8h2.9c0.5-0.8,0.7-1.1,1.3-1.8c1,0.9,1.3,1.1,2.2,2.1c0.1,0.1,0.1,0.1,0.1,0.2s-0.1,0.2-0.2,0.2h-5.3v4.6
			H98z M94.7,108.7v-4.6h-3.2v4.6H94.7z M91.4,114.2h3.2v-4.9h-3.2V114.2z M94.7,120.2v-5.4h-3.2v5.4H94.7z"/>
		<path class="st0" d="M90.1,142.6c0.8,3,1.8,5.1,3.3,7.2c1.5,2.2,3.6,4.1,5.9,5.5c1.2,0.7,1.9,1,3.7,1.6l-0.1,0.4
			c-1.6,0.2-2,0.5-2.5,1.9c-2.3-1.5-3.3-2.3-4.8-3.9c-1.9-2.1-3.5-4.8-4.5-7.3c-0.5-1.3-0.9-2.7-1.4-4.7c-0.4,4-1.8,7.2-4,9.9
			c-1.5,1.8-3.5,3.4-5.7,4.7c-1.1,0.6-1.8,1-3.6,1.7l-0.2-0.4c2.5-1.4,3.7-2.3,5.2-3.6c3.8-3.4,5.9-7.7,6.4-12.8h-8.1
			c-1.1,0-1.7,0-2.6,0.2l-0.2-1.1c1.1,0.2,1.7,0.2,2.9,0.2h8c0.1-1.7,0.2-3.8,0.2-5.5c0-0.8,0-1.1-0.1-1.9c3.2,0.3,3.5,0.3,3.5,0.7
			c0,0.3-0.4,0.5-1.2,0.8c-0.1,3.2-0.2,4.3-0.3,6h7.9c0.7-1,0.9-1.3,1.6-2.2c1.2,1,1.6,1.3,2.8,2.4c0.1,0.1,0.2,0.2,0.2,0.3
			c0,0.1-0.1,0.3-0.3,0.3H90.1z"/>
		<path class="st0" d="M79,176.2c1.3,1.3,2.1,1.6,3.5,1.6c0.7,0,1.5-0.1,2.5-0.3c0.7-1.8,1-3,1-4c0-0.9-0.4-1.5-1.8-2.2
			c0.3-0.2,0.4-0.2,0.7-0.2c0.6,0,1.4,0.3,2.2,0.6c1,0.5,1.3,0.8,1.3,1.2c0,0.2-0.1,0.4-0.3,0.7c-0.1,0.2-0.7,1.4-1.7,3.4
			c2.1-0.7,2.3-0.9,3.1-1.5c0.2-0.2,0.3-0.2,0.6-0.2c1.1,0,1.9,0.4,1.9,0.8c0,0.7-1.7,1.4-6.2,2.5c-0.3,0.6-0.7,1.7-1.5,3.4
			c-0.8,1.9-3,6.6-3.2,7.1c-0.4,0.8-0.7,1-1,1c-0.5,0-0.9-0.9-0.9-2c0-0.6,0.1-0.7,0.3-1c0.6-0.7,1-1.1,1.3-1.7
			c1.4-2,2.4-3.9,3.5-6.6c-0.6,0.1-0.9,0.1-1.3,0.1c-1,0-1.8-0.2-2.5-0.6c-0.8-0.5-1.5-1.1-2-2L79,176.2z M93.8,177.8
			c1.9,0.2,3.5,0.7,4.8,1.5c1.1,0.7,1.8,1.5,1.8,2.2c0,0.5-0.3,0.8-0.7,0.8c-0.2,0-0.4-0.1-0.6-0.2c-0.8-0.5-1.3-0.6-2.7-0.6
			c-2.2,0-2.9,0.6-2.9,2.5c0,0.8,0.1,2,0.6,4.8c1.7,0.5,3.2,1.2,4,1.8c0.8,0.6,1.1,1.3,1.1,2.2c0,0.6-0.2,1-0.6,1
			c-0.3,0-0.4-0.1-1-0.7c-1-1.1-1.9-1.8-3.4-2.5c0,0.2,0,0.4,0,0.5c0,1.1-0.2,1.8-0.8,2.4c-0.8,0.8-2.1,1.2-3.6,1.2
			c-2.5,0-4.3-1.2-4.3-3c0-2,2.1-3.3,5.2-3.3c0.6,0,1,0,1.7,0.1c-0.1-2.2-0.1-2.4-0.1-2.8c0-2.3,0.2-3.2,1-4c0.6-0.6,1.3-1,2.7-1.3
			c0.4-0.1,0.5-0.1,1.5-0.4c-0.8-0.8-1.6-1.3-3.6-1.9L93.8,177.8z M92.3,190c-0.9-0.3-1.5-0.3-2.4-0.3c-2.4,0-3.8,0.8-3.8,2.1
			c0,1,1.1,1.7,2.8,1.7c2.3,0,3.4-0.9,3.4-2.7V190z"/>
		<path class="st0" d="M95.4,210.9c0.5-0.6,0.6-0.8,1.2-1.4c0.8,0.6,1,0.8,1.7,1.4c0.2,0.2,0.3,0.3,0.3,0.4c0,0.2-0.2,0.4-0.9,0.7
			v5.1c0,9.7,0,10.1,0.2,14.5c0,0.3-0.1,0.3-0.3,0.4c-0.2,0.1-1.1,0.2-1.5,0.2c-0.2,0-0.3-0.1-0.3-0.3v-2h-13v1.8c0,0,0,0.1,0,0.1
			c0,0.2-0.1,0.3-0.3,0.4c-0.1,0-1,0.1-1.3,0.1c-0.4,0-0.5-0.1-0.5-0.3v-0.1c0.1-3.4,0.1-7.8,0.1-10.8c0-6.8,0-10.1-0.1-11.7
			c1.1,0.6,1.4,0.9,2.4,1.6h3.1c0.7-1.5,1.1-3.1,1.4-4.8c3.2,0.8,3.3,0.9,3.3,1.1c0,0.2-0.3,0.3-1.3,0.6c-0.3,0.4-0.5,0.7-0.7,0.8
			c-1,1.3-1.3,1.7-1.9,2.2H95.4z M95.8,216.7v-5.2h-13v5.2H95.8z M82.7,217.3v5.5h13v-5.5H82.7z M82.7,223.4v5.8h13v-5.8H82.7z"/>
		<path class="st0" d="M92,250.7c0.2-1.5,0.3-2.9,0.3-4.9c0-0.9,0-1.5-0.1-2.5c2.8,0.3,3.2,0.4,3.2,0.7c0,0.2-0.3,0.4-1.2,0.7
			c0,2.9-0.1,4.2-0.4,6h4.3c0.6-0.7,0.8-1,1.4-1.7c0.9,0.8,1.2,1.1,2.1,2c0.1,0.1,0.1,0.1,0.1,0.2c0,0.1-0.1,0.1-0.2,0.1h-7.4
			c0.5,1.7,1,2.8,2.1,4.1c1.6,2,3.3,3.1,6,3.9v0.3c-1.1,0.3-1.5,0.6-1.9,1.9c-2.2-1.4-3.5-2.7-4.8-4.9c-0.9-1.5-1.5-3-1.9-4.8
			c-0.6,2.5-1.6,4.5-3,6.1c-1,1-2.4,2.1-3.8,2.9c-0.6,0.4-1.1,0.6-2.2,1l-0.2-0.3c2.2-1.3,3.8-2.6,5.1-4.3c1.3-1.7,2-3.4,2.5-5.9
			h-3.8c-1,2.4-2.5,4.6-4.3,6.5c-2.1,2.3-4.2,3.9-6.9,5.2l-0.3-0.3c2.5-1.8,4.5-3.7,6.3-6c2-2.7,3.2-5.2,4.3-8.9h-4.6
			c-0.3,0.5-0.6,1-0.9,1.5c0.7,0.2,1.1,0.4,1.9,0.8c1.2,0.5,1.5,0.9,1.5,1.7c0,0.7-0.3,1.2-0.6,1.2c-0.2,0-0.3-0.1-0.5-0.4
			c-0.8-1.3-1.3-2-2.5-3c-0.7,1-1.2,1.8-2,2.7c2.5,1.1,3.3,1.7,3.3,2.6c0,0.7-0.4,1.5-0.7,1.5c-0.2,0-0.4-0.2-0.6-0.7
			c-0.5-1.2-1.1-2.1-2.2-3.1c-0.9,1.1-1.4,1.5-2.7,2.5l-0.2-0.3c1.6-2,3.1-4.2,4.1-6.5c0.8-1.8,1.5-3.8,1.7-5.2c2.9,1,3,1,3,1.3
			c0,0.2-0.3,0.3-1.3,0.5c-0.5,1.1-0.6,1.4-1.1,2.4h4.3c0.4-0.5,0.4-0.5,1-1.1c0.7,0.5,0.9,0.6,1.5,1.1c0.3,0.3,0.4,0.4,0.4,0.4
			c0,0.2,0,0.2-1.1,0.9c-0.3,1-0.4,1.4-0.7,2.1H92z M81.4,261.6c0,0.2,0,0.4,0,0.4c0,2.4-0.6,4.2-1.7,5.4c-0.5,0.6-1.1,0.9-1.5,0.9
			c-0.4,0-0.8-0.8-0.8-1.7c0-0.4,0.1-0.6,0.6-0.8c0.6-0.2,1.3-0.8,1.8-1.6c0.6-0.8,0.9-1.5,1.2-2.8L81.4,261.6z M85.4,262.2
			c1.5,1.5,2.3,2.8,2.3,3.7c0,1-0.9,2.1-1.6,2.1c-0.3,0-0.4-0.2-0.4-0.6c0-0.1,0-0.3,0-0.4c0-0.3,0-0.5,0-0.6c0-1.2-0.1-2.1-0.6-3.9
			L85.4,262.2z M90.9,261.6c1,0.9,1.5,1.3,2.4,2.3c0.6,0.8,0.9,1.3,0.9,1.7c0,1-0.7,2.2-1.3,2.2c-0.3,0-0.4-0.2-0.5-0.7
			c-0.3-2-0.6-2.9-1.8-5.3L90.9,261.6z M95.1,245.2c1,0.3,1.5,0.6,2.2,1c0.9,0.5,1.2,0.9,1.2,1.5c0,0.8-0.4,1.7-0.7,1.7
			c-0.2,0-0.3-0.1-0.6-0.7c-0.5-1-1.1-1.8-2.3-3.2L95.1,245.2z M96.4,261.4c1.5,1,2.7,2,3.6,2.9c0.8,0.7,1.1,1.4,1.1,1.9
			c0,0.8-0.6,2-1,2c-0.2,0-0.4-0.2-0.6-0.8c-0.8-1.8-2-3.8-3.4-5.7L96.4,261.4z"/>
		<path class="st0" d="M30.3,121.8v-2.4c0-0.2,0-0.3-0.1-1.2c2,0.3,2.5,0.4,2.5,0.6c0,0.2-0.2,0.3-0.9,0.6v2.4h2
			c0.6-0.8,0.8-1,1.4-1.7c1,0.8,1.3,1.1,2.2,2c0.1,0.1,0.1,0.2,0.1,0.2c0,0.1-0.1,0.1-0.3,0.1H32c0.4,0.8,0.8,1.3,1.8,2.2
			c1.4,1.1,2.4,1.7,4.3,2.1l0,0.3c-0.8,0.2-1,0.4-1.6,1.7c-0.9-0.5-1.8-1.3-2.8-2.5c-0.6-0.8-1-1.4-1.8-3.2v2.8
			c0,0.7,0.1,3.1,0.1,3.8c0,0,0,0.1,0,0.1c0,0.1-0.1,0.2-0.2,0.3c-0.1,0-0.9,0.1-1.1,0.1s-0.3-0.1-0.3-0.3c0-0.8,0-0.8,0-2
			c0-0.3,0-1,0.1-2l0.1-2.2c-1.8,2.8-3.2,4.1-5.7,5.8l-0.2-0.3c1.6-1.4,2.8-2.9,3.9-4.7c0.4-0.7,0.5-1,0.9-1.8h-6.4v1.1
			c1,0.1,2.3,0.5,2.8,0.8c0.4,0.2,0.6,0.6,0.6,1.1c0,0.5-0.3,1.1-0.6,1.1c-0.1,0-0.2-0.1-0.4-0.4c-0.6-0.8-1.6-1.7-2.4-2.1v1.7
			c0,0.9,0,2.1,0.1,3.9c-0.1,0.2-0.1,0.3-0.3,0.3c-0.2,0.1-0.7,0.1-1,0.1c-0.2,0-0.3-0.1-0.3-0.4c0-0.1,0-1.3,0.1-3.6V124
			c-0.7,1.3-1.2,2-2.1,3c-0.9,1-1.4,1.4-2.5,2.2l-0.2-0.3c-0.2,2.5-0.5,4.4-1.1,6.3c-0.7,2.3-1.4,3.6-2.9,5.4l-0.3-0.2
			c1.1-2,1.6-3.6,2-6.4c0.4-2.4,0.5-4.7,0.5-8.6c0-4-0.1-5.9-0.2-9l-0.1-0.9c1.2,0.6,1.5,0.8,2.5,1.4h16.4c0.6-0.8,0.8-1.1,1.5-1.9
			c1.2,0.9,1.6,1.2,2.8,2.2c0.1,0.1,0.1,0.2,0.1,0.2c0,0.1-0.1,0.1-0.3,0.1H16.7l0.1,6.6c0,1.8-0.1,3.2-0.2,4.7
			c1.1-1,1.5-1.7,2.4-2.9c0.7-1.1,1.1-1.9,1.8-3.5h-1.3c-0.5,0-0.9,0-1.7,0.2l-0.2-1c0.6,0.1,1,0.2,1.9,0.2h2v-1.9
			c0-0.6,0-0.9-0.1-1.7c0.4,0.1,0.8,0.1,1.1,0.1c1.1,0.1,1.5,0.2,1.5,0.5c0,0.2-0.3,0.4-0.9,0.6v2.4h1.5c0.5-0.7,0.7-0.9,1.2-1.5
			c0.9,0.7,1.1,1,1.8,1.5H30.3z M33.8,138.7c0.7-0.9,0.9-1.1,1.7-2c1.2,1,1.5,1.3,2.7,2.2c0.1,0.1,0.1,0.2,0.1,0.2
			c0,0.1-0.1,0.2-0.3,0.2H17.6c-0.6,0-1.1,0.1-2.3,0.2l-0.2-1.1c0.8,0.2,1.9,0.3,2.6,0.3h2.9v-5c0-0.5,0-0.9-0.1-1.8
			c0.6,0.1,1.1,0.1,1.4,0.2c1.1,0.1,1.5,0.3,1.5,0.5c0,0.2-0.3,0.3-1,0.6v5.5h4.1V132c0-0.8,0-1.3-0.1-2.4c2.6,0.3,3.1,0.4,3.1,0.7
			c0,0.2-0.3,0.3-1.1,0.6v2.6h2.8c0.7-0.8,0.9-1,1.6-1.8c1,0.9,1.3,1.2,2.3,2.1c0.1,0.1,0.1,0.1,0.1,0.2c0,0.1-0.1,0.1-0.2,0.1h-6.6
			v4.5H33.8z"/>
		<path class="st0" d="M26.4,164.1c-0.3,3.5-0.7,5-2,6.9c3.2,2.1,7.3,3.1,12.5,3.1c0.3,0,1,0,1.8-0.1v0.4c-1.2,0.3-1.6,0.8-1.9,2.2
			c-6.1-0.6-9.8-1.9-13.2-4.7c-0.9,1-2,1.8-3.4,2.7c-2.1,1.3-4.2,2-7.4,2.6l-0.1-0.4c3.1-1,4.9-1.9,6.8-3.3c1.2-0.9,2-1.7,2.8-2.7
			c-1.2-1.3-1.9-2.2-2.9-4.1c-0.2-0.4-0.3-0.5-0.5-0.7l1-0.3c0,0.1,0,0.2,0,0.2c0,0.9,1.2,2.5,3,4.1c0.9-1.6,1.3-2.9,1.5-5.8h-7.2
			v1.5c0,0.3-0.3,0.4-1.5,0.4c-0.4,0-0.5-0.1-0.5-0.3c0.1-2.3,0.2-3.9,0.2-6.2c0-1.8,0-2.4-0.1-3.6c1,0.5,1.3,0.6,2.2,1.1h7.1
			c0-3.8,0-3.8-0.1-5.3c0.7,0.1,1.3,0.1,1.6,0.2c1.4,0.2,1.7,0.3,1.7,0.5s-0.2,0.3-1.1,0.6c0,1.2,0,1.2,0,4H33
			c0.5-0.6,0.6-0.8,1.1-1.3c0.8,0.6,1.1,0.8,1.8,1.3c0.3,0.2,0.3,0.3,0.3,0.4c0,0.2-0.3,0.4-1,0.8c0,0.6,0,0.6,0,1.2
			c0,1.3,0,2.9,0.1,6.3c0,0.3-0.4,0.4-1.6,0.4c-0.4,0-0.6-0.1-0.6-0.3v-1.7H26.4z M24.4,163.4c0.1-1.8,0.1-1.8,0.1-5.8h-7.3v5.8
			H24.4z M33.3,163.4v-5.8h-6.7c-0.1,3.7-0.1,3.7-0.2,5.8H33.3z"/>
		<path class="st0" d="M12.4,201.8c1.6-2.5,2.7-4.6,3.9-7.8c0.9-2.5,1.4-4.1,1.7-6c1.3,0.3,3,0.7,3.3,0.9c0.2,0.1,0.2,0.1,0.2,0.3
			c0,0.3-0.3,0.4-1.6,0.6c-0.8,2.7-1.8,4.7-3.5,7.5c2,0.4,2.4,0.5,2.4,0.7c0,0.2-0.1,0.3-1,0.6v6.2c0,0.4,0,1.5,0,3.1
			c0,1.7,0,1.8,0,5.1c0,0.3-0.1,0.4-0.3,0.5c-0.2,0.1-0.9,0.2-1.3,0.2c-0.3,0-0.4-0.1-0.4-0.4c0-0.9,0.1-3.7,0.1-8.4v-6.8
			c-1.2,1.9-1.9,2.7-3.2,4.1L12.4,201.8z M28.2,199.1c-2,4.8-2.5,5.9-4.8,10.1c4.2-0.2,6.4-0.4,10.6-1c-0.7-1.6-1.7-3.4-3.7-6.5
			l0.3-0.2c1.9,1.8,3.4,3.5,4.7,5.2c1.3,1.7,1.7,2.4,1.7,3.2c0,1.2-0.8,2.7-1.5,2.7c-0.2,0-0.3-0.2-0.8-1.8c-0.2-0.8-0.4-1.3-0.6-2
			c-2.1,0.6-2.7,0.7-4.5,1.1c-1.1,0.3-1.1,0.3-6.7,1.2c-0.8,0.1-1.5,0.3-2.4,0.4c-0.2,0.7-0.3,1-0.6,1c-0.1,0-0.2-0.1-0.3-0.3
			c0-0.1-0.3-1-0.8-2.9c1.8,0,2.5,0,3.5-0.1c1.4-3.4,1.8-4.8,3.2-10.1h-4.6c-0.4,0-0.8,0-1.8,0.2l-0.2-1c0.7,0.1,1.7,0.2,2.2,0.2
			h12.6c0.8-0.9,1-1.2,1.8-2.1c1.1,1,1.4,1.3,2.4,2.3c0.1,0.1,0.1,0.2,0.1,0.3s-0.1,0.1-0.3,0.1H28.2z M21,191.3
			c0.9,0.2,1.5,0.2,2.2,0.2h9.2c0.7-1,1-1.3,1.8-2.2c1.1,1,1.4,1.3,2.4,2.3c0.1,0.1,0.2,0.2,0.2,0.3c0,0.1-0.2,0.3-0.4,0.3H23.1
			c-0.8,0-1.2,0-2,0.1L21,191.3z"/>
		<path class="st0" d="M12.3,248.8c1.2-3.6,1.6-6.1,1.7-9c2.2,0.4,2.6,0.6,2.6,0.8c0,0.2-0.2,0.3-1,0.5c-0.3,1.7-0.6,2.6-1.2,4.3
			c-0.6,1.5-1,2.3-1.8,3.7L12.3,248.8z M17,237.5c-0.5,0.1-0.9,0.2-1.2,0.2c-1.1,0.2-1.3,0.2-2.1,0.3c-0.1,0.7-0.2,0.8-0.4,0.8
			c-0.2,0-0.3-0.2-0.7-2.4c0.9,0,0.9,0,1,0c0.4,0,0.4,0,1.7-0.1c0.8-0.9,1.3-1.6,2.3-3.3c1.7-2.9,2.2-4,2.8-5.4
			c2.3,0.8,2.5,1,2.5,1.2c0,0.3-0.3,0.4-1,0.4c-1.4,2-4.3,5.6-5.7,7.1c3.4-0.2,3.4-0.2,4.6-0.3c-0.4-1.3-0.5-1.6-1-2.5l0.3-0.2
			c0.7,0.6,1,1,1.7,1.9c0.7,1,1,1.4,1,1.8c0,0.8-0.5,1.8-1,1.8c-0.3,0-0.3-0.2-0.5-1c-0.1-0.3-0.1-0.5-0.3-1.2
			c-0.8,0.2-1.2,0.3-2.1,0.5v6.5c0,4.6,0,4.6,0.1,5.9c0,0.2-0.1,0.3-0.2,0.4c-0.1,0.1-0.9,0.1-1.4,0.1c-0.3,0-0.3-0.1-0.3-0.3
			c0-1.5,0.1-4.7,0.1-5.9V237.5z M13.1,228.4c0.9,0.6,1.2,0.8,1.8,1.3c0.9-1.7,1.7-3.5,2.1-5.3c2.9,1,2.9,1,2.9,1.2
			s-0.3,0.4-1.1,0.4c-2.2,2.6-2.4,2.8-3.5,3.9c1.1,1,1.5,1.6,1.5,2.2c0,0.7-0.5,1.6-0.9,1.6c-0.3,0-0.4-0.2-0.8-1.1
			c-0.4-1.1-1.3-2.6-2.4-4L13.1,228.4z M19.9,239.5c1.6,1.7,2.7,3.4,2.7,4.4c0,0.8-0.7,1.8-1.2,1.8c-0.3,0-0.4-0.3-0.5-1
			c0-0.3-0.2-1.3-0.4-2.3c-0.2-1-0.4-1.6-0.9-2.7L19.9,239.5z M20.2,249.4c2-1,3.1-2,4.1-3.5c1.1-1.7,1.6-3.8,1.6-6.9
			c0-0.8,0-1.3-0.1-2.2c2.4,0.3,2.9,0.4,2.9,0.7c0,0.2-0.2,0.3-1,0.6c-0.2,4.2-0.6,6-1.7,7.8c-0.8,1.2-1.9,2.2-3.2,3
			c-0.7,0.4-1.2,0.6-2.5,1L20.2,249.4z M33.9,229.1c0.7-0.9,1-1.2,1.7-2c1.2,1,1.6,1.3,2.7,2.3c0.1,0.1,0.1,0.2,0.1,0.2
			c0,0.1-0.1,0.2-0.3,0.2h-8.4c-1.1,2-1.3,2.3-3.1,4.6c4.7-0.2,4.8-0.2,7.1-0.4c-0.5-0.7-0.8-1.1-2-2.4l0.3-0.3
			c1.7,1,2.8,1.7,3.7,2.5c0.9,0.8,1.1,1.1,1.1,1.7c0,0.9-0.5,2-0.9,2c-0.3,0-0.4-0.2-0.8-1c-0.2-0.5-0.8-1.4-1.1-2.1
			c-0.9,0.2-0.9,0.2-4.9,0.9c-0.8,0.2-1.7,0.3-4.8,0.8c-0.3,0.9-0.4,1.1-0.6,1.1s-0.4-0.6-0.7-2.8l0.8,0c0.5,0,0.8,0,1,0
			c0.1,0,0.1,0,1.1,0c0.8-1.9,1-2.5,1.5-4.6h-2.2c-0.8,0-1.5,0.1-2,0.1l-0.2-1c0.8,0.2,1.2,0.2,2.2,0.2h3.2V227c0-1,0-1.4-0.1-2.4
			c2.5,0.3,3.1,0.4,3.1,0.7s-0.2,0.3-1.1,0.6v3.3H33.9z M30.4,239.3c0-1.6,0-1.8,0-2.8c2.3,0.3,2.9,0.5,2.9,0.8
			c0,0.2-0.3,0.4-1.1,0.6v9c0,0.6,0.1,0.6,1.1,0.6c1.8,0,2,0,2.2-0.3c0.3-0.4,0.7-1.8,1.7-5.7l0.3,0l-0.3,4.8c0,0.5,0,0.5,0,0.5
			c0,0.3,0.1,0.4,0.5,0.6c0.4,0.2,0.6,0.4,0.6,0.6c0,0.4-0.3,0.7-0.9,0.8c-0.5,0.1-1.9,0.2-3.6,0.2c-2.9,0-3.4-0.2-3.5-1.7l0-3.2
			V239.3z"/>
		<path class="st0" d="M25.2,283.8c3-0.9,5-2,6.6-3.9c1.7-1.9,2.5-4.2,2.5-6.7c0-2.7-1.1-4.9-3.2-6.2c-1.2-0.8-3.1-1.3-4.8-1.3
			c-0.3,0-0.5,0-1,0.1c0.7,1,0.9,1.5,0.9,2.3c0,2.2-1.6,6.3-3.7,9.7c-1.8,2.8-3.1,4.2-4.2,4.2c-0.5,0-0.9-0.2-1.2-0.6
			c-0.3-0.3-0.3-0.4-0.8-1.8c-0.3-0.7-0.4-1.1-1.2-2.6c-0.4-0.9-0.6-1.7-0.6-2.5c0-1.8,1-3.8,2.5-5.5c2.3-2.4,6-3.9,9.6-3.9
			c2.8,0,5.4,0.9,7.2,2.6c1.8,1.7,2.7,3.9,2.7,6.6c0,3.5-2,6.6-5.6,8.5c-1.6,0.9-3.1,1.3-5.5,1.7L25.2,283.8z M16,275.1
			c0,1.3,0.4,2.7,1.1,3.7c0.4,0.5,0.8,0.8,1.1,0.8c0.6,0,2-1.5,3.3-3.7c2.1-3.3,3.6-6.9,3.6-8.7c0-0.4-0.1-0.7-0.4-1.4
			C19.8,266.7,16,270.8,16,275.1z"/>
		<path class="st0" d="M12.9,317.6c1.3,0.2,1.8,0.3,3,0.3h17.3c0.8-1,1.1-1.3,1.9-2.4c1.3,1.1,1.8,1.5,3.1,2.6
			c0.1,0.1,0.2,0.2,0.2,0.3s-0.1,0.1-0.2,0.1H15.9c-1.3,0-1.9,0.1-2.8,0.2L12.9,317.6z M15.7,301.9c1,0.2,2,0.3,2.8,0.3h12
			c0.8-1,1-1.3,1.8-2.3c1.2,1.1,1.6,1.4,2.9,2.5c0.1,0.1,0.1,0.2,0.1,0.2c0,0.1-0.1,0.2-0.4,0.2H18.5c-1,0-1.7,0.1-2.6,0.2
			L15.7,301.9z"/>
		<path class="st0" d="M33.6,339.5c0.7-0.9,0.9-1.2,1.6-2.1c1.3,0.9,1.6,1.2,2.8,2.2c0.1,0.1,0.2,0.2,0.2,0.3c0,0.1-0.1,0.2-0.3,0.2
			H26.5c0.7,1.9,1.5,3.1,3.3,5.2c2,2.4,4.1,4.3,5.8,5.4c1,0.6,1.7,1,3.4,1.7v0.4c-1.1,0.2-1.7,0.6-2.4,1.7c-2.4-1.8-4.2-3.5-6.3-6.3
			c-1.7-2.3-2.8-4.1-4.1-7.3l0,6.3v5.1H29c0.6-0.9,0.9-1.1,1.5-1.9c1.1,0.8,1.5,1.1,2.5,2.1c0.1,0.1,0.1,0.2,0.1,0.2
			c0,0.1-0.1,0.2-0.3,0.2h-6.6v0.4c0.1,4,0.1,4.2,0.1,5.6c-0.1,0.2-0.1,0.3-0.2,0.3c-0.1,0-1,0.1-1.4,0.1c-0.3,0-0.4-0.1-0.4-0.4
			l0-1.5c0-1.1,0-1.9,0-2.2c0-1.1,0.1-1.8,0.1-1.9V353h-4.2c-1.1,0-1.6,0-2.1,0.2l-0.1-1c0.6,0.1,1.5,0.2,2.2,0.2h4.2v-5.1l0.1-5
			c-0.8,1.8-1.2,2.5-2.4,4c-1.7,2.2-4.3,4.9-6.4,6.5c-1.2,0.9-1.8,1.3-3.4,2.1l-0.2-0.3c3.2-2.5,5.3-4.6,7.9-8.1
			c1.7-2.4,2.5-3.8,3.7-6.3h-8.7c-0.6,0-1.3,0.1-1.8,0.2l-0.1-1.1c0.5,0.1,1.5,0.3,1.9,0.3h9.5v-3.2c0-1.2,0-1.6-0.1-2.6
			c0.6,0.1,1.1,0.2,1.5,0.2c1.4,0.2,1.7,0.3,1.7,0.6c0,0.3-0.1,0.4-1.2,0.7v4.3H33.6z"/>
		<path class="st0" d="M19.6,376.4c0.7-0.8,0.7-0.8,1.3-1.6c0.9,0.8,1.2,1,2,1.9c0.1,0.1,0.1,0.2,0.1,0.3c0,0.1-0.1,0.1-0.3,0.1
			h-4.2v1.6c2.1,1,2.6,1.5,2.6,2.3c0,0.8-0.4,1.5-0.8,1.5c-0.2,0-0.3-0.1-0.4-0.5c-0.4-1.1-0.9-2.1-1.4-2.8v3.3c0,2.4,0,2.7,0.1,8.1
			c0,1.8,0,1.8,0.1,4.7c0,0.4-0.2,0.4-1.2,0.4c-0.6,0-0.7-0.1-0.7-0.3c0,0,0,0,0-0.1c0.1-2.8,0.1-2.8,0.1-5.6
			c0.1-4.2,0.1-4.9,0.1-6.2l0.1-3.4c-0.6,2.3-1.1,3.5-2.1,5.2c-0.8,1.6-1.5,2.5-2.7,3.9l-0.4-0.3c1.5-2.4,2.3-4.1,3.3-7.1
			c0.7-1.9,0.9-2.9,1.3-4.8h-2c-0.8,0-1.3,0.1-2,0.2l-0.2-1.1c0.8,0.2,1.2,0.3,2.2,0.3h2.2v-3.2c0-1.2,0-1.8-0.1-3.1
			c0.6,0.1,1.1,0.1,1.5,0.2c1.3,0.2,1.6,0.3,1.6,0.5c0,0.2-0.2,0.3-1.1,0.7v4.9H19.6z M20,384.9c1.5-2.3,2.6-4.5,3.7-7.3
			c1-2.7,1.5-4.8,1.7-6.7c2.8,0.9,3.2,1,3.2,1.3c0,0.3-0.2,0.3-1.3,0.5c-1,3.3-1.9,5.4-3.2,7.7c-1.1,2-2,3.2-3.6,4.8L20,384.9z
			 M31,384.5c2.6,2.4,3.9,3.8,4.9,5.5c0.5,0.8,0.7,1.4,0.7,2.2c0,1.3-0.6,2.5-1.3,2.5c-0.3,0-0.4-0.2-0.5-0.6
			c-0.3-1-0.4-1.6-0.8-2.8c-2.6,0.8-5,1.3-11.5,2.4c-0.2,0.9-0.4,1.2-0.6,1.2c-0.1,0-0.3-0.1-0.4-0.4c-0.1-0.3-0.1-0.4-0.6-2.9
			c1,0.1,1.4,0.1,1.9,0.1c0.3,0,0.6,0,1.2,0c0.8-1.8,1.3-3.2,2-5.5c1.2-3.8,1.6-5.8,1.8-7.6c0.7,0.2,1.2,0.4,1.6,0.4
			c1.5,0.4,1.6,0.4,1.6,0.7c0,0.3-0.4,0.5-1.3,0.6c-1.8,5.4-2.8,7.8-4.9,11.3c2.6-0.1,5.7-0.4,9-0.8c-1-2.7-1.7-4-3.1-5.9L31,384.5z
			 M31.5,370.6c-0.1,0.3-0.1,0.3-0.1,0.5c0,0.8,0.7,2.9,1.6,4.6c0.9,1.8,2.2,3.5,3.5,4.7c0.7,0.6,1.2,1,2.4,1.6v0.3
			c-1.1,0.4-1.4,0.8-1.8,2.1c-1.6-1.5-2.6-3-3.8-5.4c-0.9-1.8-1.5-3.4-2.4-6.9c-0.2-0.8-0.3-1-0.6-1.3L31.5,370.6z"/>
		<path class="st0" d="M24.2,410.6c0-2.1,0-2.4-0.1-3.9c2.7,0.3,3.4,0.4,3.4,0.7c0,0.3-0.4,0.5-1.3,0.8v3.2h7.6
			c0.7-0.9,1-1.2,1.7-2.1c1.3,1,1.6,1.3,2.7,2.3c0.1,0.1,0.1,0.2,0.1,0.3c0,0.1-0.1,0.2-0.3,0.2H15.5c-0.8,0-1.7,0.1-2.3,0.2L13,411
			c0.9,0.2,1.9,0.3,2.5,0.3h8.7V410.6z M32.2,416.4c0.4-0.6,0.6-0.7,1.1-1.3c0.9,0.5,1.2,0.7,1.9,1.3c0.2,0.2,0.3,0.3,0.3,0.3
			c0,0.2-0.3,0.4-1,1v4.3l0,1.6l0,2.2v0.9c-0.1,0.8-0.3,1.2-1.1,1.6c-0.5,0.3-1.1,0.4-2.1,0.6c-0.1-0.9-0.3-1.3-1-1.6
			c-0.5-0.2-1.1-0.4-2.2-0.5v-0.4c0.5,0,0.9,0,1.1,0.1c1.9,0.1,1.9,0.1,2.9,0.1c0.4,0,0.5-0.1,0.5-0.5V417h-6.2v5.1
			c0,2.2,0,4,0.1,5.7c0,2,0,2,0,3.6c0,0.6-0.2,0.7-1.5,0.7c-0.4,0-0.6-0.1-0.6-0.4c0-3.4,0-3.4,0-4.6l0-2.8c0-1.4,0-1.7,0-2V417
			h-5.9v11.4c0,0.2-0.1,0.3-0.2,0.4c-0.2,0.1-0.9,0.1-1.4,0.1c-0.3,0-0.4-0.1-0.4-0.3c0.1-3.4,0.1-5.2,0.1-8.2c0-2.5,0-3.4-0.1-5.5
			c1.1,0.6,1.4,0.8,2.3,1.5h5.6c0-0.4,0-0.5,0-0.7v-1.2c0-0.5,0-1-0.1-1.8c2.7,0.3,3.3,0.4,3.3,0.8c0,0.3-0.3,0.4-1.2,0.6v2.4H32.2z
			"/>
	</g>
</g>
<line class="st1" x1="89.4" y1="4.9" x2="89.4" y2="64.9"/>
</svg>
